<?xml version="1.0" encoding="utf-8"?>
<svg xmlns="http://www.w3.org/2000/svg" xmlns:xlink="http://www.w3.org/1999/xlink" width="600" height="400" viewBox="0 0 2400 1600">
<defs>
  <clipPath id="clip190">
    <rect x="0" y="0" width="2400" height="1600"/>
  </clipPath>
</defs>
<path clip-path="url(#clip190)" d="M0 1600 L2400 1600 L2400 0 L0 0  Z" fill="#ffffff" fill-rule="evenodd" fill-opacity="1"/>
<defs>
  <clipPath id="clip191">
    <rect x="295" y="47" width="2058" height="1377"/>
  </clipPath>
</defs>
<path clip-path="url(#clip190)" d="M295.607 1423.18 L2352.76 1423.18 L2352.76 47.2441 L295.607 47.2441  Z" fill="#ffffff" fill-rule="evenodd" fill-opacity="1"/>
<polyline clip-path="url(#clip191)" style="stroke:#000000; stroke-linecap:round; stroke-linejoin:round; stroke-width:2; stroke-opacity:0.1; fill:none" points="353.828,1423.18 353.828,47.2441 "/>
<polyline clip-path="url(#clip191)" style="stroke:#000000; stroke-linecap:round; stroke-linejoin:round; stroke-width:2; stroke-opacity:0.1; fill:none" points="741.969,1423.18 741.969,47.2441 "/>
<polyline clip-path="url(#clip191)" style="stroke:#000000; stroke-linecap:round; stroke-linejoin:round; stroke-width:2; stroke-opacity:0.1; fill:none" points="1130.11,1423.18 1130.11,47.2441 "/>
<polyline clip-path="url(#clip191)" style="stroke:#000000; stroke-linecap:round; stroke-linejoin:round; stroke-width:2; stroke-opacity:0.1; fill:none" points="1518.25,1423.18 1518.25,47.2441 "/>
<polyline clip-path="url(#clip191)" style="stroke:#000000; stroke-linecap:round; stroke-linejoin:round; stroke-width:2; stroke-opacity:0.1; fill:none" points="1906.39,1423.18 1906.39,47.2441 "/>
<polyline clip-path="url(#clip191)" style="stroke:#000000; stroke-linecap:round; stroke-linejoin:round; stroke-width:2; stroke-opacity:0.1; fill:none" points="2294.53,1423.18 2294.53,47.2441 "/>
<polyline clip-path="url(#clip191)" style="stroke:#000000; stroke-linecap:round; stroke-linejoin:round; stroke-width:2; stroke-opacity:0.1; fill:none" points="295.607,1393.45 2352.76,1393.45 "/>
<polyline clip-path="url(#clip191)" style="stroke:#000000; stroke-linecap:round; stroke-linejoin:round; stroke-width:2; stroke-opacity:0.1; fill:none" points="295.607,1106.98 2352.76,1106.98 "/>
<polyline clip-path="url(#clip191)" style="stroke:#000000; stroke-linecap:round; stroke-linejoin:round; stroke-width:2; stroke-opacity:0.1; fill:none" points="295.607,820.505 2352.76,820.505 "/>
<polyline clip-path="url(#clip191)" style="stroke:#000000; stroke-linecap:round; stroke-linejoin:round; stroke-width:2; stroke-opacity:0.1; fill:none" points="295.607,534.035 2352.76,534.035 "/>
<polyline clip-path="url(#clip191)" style="stroke:#000000; stroke-linecap:round; stroke-linejoin:round; stroke-width:2; stroke-opacity:0.1; fill:none" points="295.607,247.564 2352.76,247.564 "/>
<polyline clip-path="url(#clip190)" style="stroke:#000000; stroke-linecap:round; stroke-linejoin:round; stroke-width:4; stroke-opacity:1; fill:none" points="295.607,1423.18 2352.76,1423.18 "/>
<polyline clip-path="url(#clip190)" style="stroke:#000000; stroke-linecap:round; stroke-linejoin:round; stroke-width:4; stroke-opacity:1; fill:none" points="353.828,1423.18 353.828,1404.28 "/>
<polyline clip-path="url(#clip190)" style="stroke:#000000; stroke-linecap:round; stroke-linejoin:round; stroke-width:4; stroke-opacity:1; fill:none" points="741.969,1423.18 741.969,1404.28 "/>
<polyline clip-path="url(#clip190)" style="stroke:#000000; stroke-linecap:round; stroke-linejoin:round; stroke-width:4; stroke-opacity:1; fill:none" points="1130.11,1423.18 1130.11,1404.28 "/>
<polyline clip-path="url(#clip190)" style="stroke:#000000; stroke-linecap:round; stroke-linejoin:round; stroke-width:4; stroke-opacity:1; fill:none" points="1518.25,1423.18 1518.25,1404.28 "/>
<polyline clip-path="url(#clip190)" style="stroke:#000000; stroke-linecap:round; stroke-linejoin:round; stroke-width:4; stroke-opacity:1; fill:none" points="1906.39,1423.18 1906.39,1404.28 "/>
<polyline clip-path="url(#clip190)" style="stroke:#000000; stroke-linecap:round; stroke-linejoin:round; stroke-width:4; stroke-opacity:1; fill:none" points="2294.53,1423.18 2294.53,1404.28 "/>
<path clip-path="url(#clip190)" d="M353.828 1454.1 Q350.217 1454.1 348.388 1457.66 Q346.582 1461.2 346.582 1468.33 Q346.582 1475.44 348.388 1479.01 Q350.217 1482.55 353.828 1482.55 Q357.462 1482.55 359.268 1479.01 Q361.096 1475.44 361.096 1468.33 Q361.096 1461.2 359.268 1457.66 Q357.462 1454.1 353.828 1454.1 M353.828 1450.39 Q359.638 1450.39 362.694 1455 Q365.772 1459.58 365.772 1468.33 Q365.772 1477.06 362.694 1481.67 Q359.638 1486.25 353.828 1486.25 Q348.018 1486.25 344.939 1481.67 Q341.883 1477.06 341.883 1468.33 Q341.883 1459.58 344.939 1455 Q348.018 1450.39 353.828 1450.39 Z" fill="#000000" fill-rule="nonzero" fill-opacity="1" /><path clip-path="url(#clip190)" d="M736.622 1481.64 L752.941 1481.64 L752.941 1485.58 L730.997 1485.58 L730.997 1481.64 Q733.659 1478.89 738.242 1474.26 Q742.849 1469.61 744.029 1468.27 Q746.275 1465.74 747.154 1464.01 Q748.057 1462.25 748.057 1460.56 Q748.057 1457.8 746.113 1456.07 Q744.191 1454.33 741.09 1454.33 Q738.89 1454.33 736.437 1455.09 Q734.006 1455.86 731.229 1457.41 L731.229 1452.69 Q734.053 1451.55 736.506 1450.97 Q738.96 1450.39 740.997 1450.39 Q746.367 1450.39 749.562 1453.08 Q752.756 1455.77 752.756 1460.26 Q752.756 1462.39 751.946 1464.31 Q751.159 1466.2 749.052 1468.8 Q748.474 1469.47 745.372 1472.69 Q742.27 1475.88 736.622 1481.64 Z" fill="#000000" fill-rule="nonzero" fill-opacity="1" /><path clip-path="url(#clip190)" d="M1133.12 1455.09 L1121.31 1473.54 L1133.12 1473.54 L1133.12 1455.09 M1131.89 1451.02 L1137.77 1451.02 L1137.77 1473.54 L1142.7 1473.54 L1142.7 1477.43 L1137.77 1477.43 L1137.77 1485.58 L1133.12 1485.58 L1133.12 1477.43 L1117.52 1477.43 L1117.52 1472.92 L1131.89 1451.02 Z" fill="#000000" fill-rule="nonzero" fill-opacity="1" /><path clip-path="url(#clip190)" d="M1518.66 1466.44 Q1515.51 1466.44 1513.66 1468.59 Q1511.83 1470.74 1511.83 1474.49 Q1511.83 1478.22 1513.66 1480.39 Q1515.51 1482.55 1518.66 1482.55 Q1521.81 1482.55 1523.63 1480.39 Q1525.49 1478.22 1525.49 1474.49 Q1525.49 1470.74 1523.63 1468.59 Q1521.81 1466.44 1518.66 1466.44 M1527.94 1451.78 L1527.94 1456.04 Q1526.18 1455.21 1524.37 1454.77 Q1522.59 1454.33 1520.83 1454.33 Q1516.2 1454.33 1513.75 1457.45 Q1511.32 1460.58 1510.97 1466.9 Q1512.34 1464.89 1514.4 1463.82 Q1516.46 1462.73 1518.93 1462.73 Q1524.14 1462.73 1527.15 1465.9 Q1530.18 1469.05 1530.18 1474.49 Q1530.18 1479.82 1527.04 1483.03 Q1523.89 1486.25 1518.66 1486.25 Q1512.66 1486.25 1509.49 1481.67 Q1506.32 1477.06 1506.32 1468.33 Q1506.32 1460.14 1510.21 1455.28 Q1514.1 1450.39 1520.65 1450.39 Q1522.41 1450.39 1524.19 1450.74 Q1525.99 1451.09 1527.94 1451.78 Z" fill="#000000" fill-rule="nonzero" fill-opacity="1" /><path clip-path="url(#clip190)" d="M1906.39 1469.17 Q1903.06 1469.17 1901.14 1470.95 Q1899.24 1472.73 1899.24 1475.86 Q1899.24 1478.98 1901.14 1480.77 Q1903.06 1482.55 1906.39 1482.55 Q1909.73 1482.55 1911.65 1480.77 Q1913.57 1478.96 1913.57 1475.86 Q1913.57 1472.73 1911.65 1470.95 Q1909.75 1469.17 1906.39 1469.17 M1901.72 1467.18 Q1898.71 1466.44 1897.02 1464.38 Q1895.35 1462.32 1895.35 1459.35 Q1895.35 1455.21 1898.29 1452.8 Q1901.25 1450.39 1906.39 1450.39 Q1911.56 1450.39 1914.5 1452.8 Q1917.43 1455.21 1917.43 1459.35 Q1917.43 1462.32 1915.75 1464.38 Q1914.08 1466.44 1911.09 1467.18 Q1914.47 1467.96 1916.35 1470.26 Q1918.25 1472.55 1918.25 1475.86 Q1918.25 1480.88 1915.17 1483.57 Q1912.11 1486.25 1906.39 1486.25 Q1900.68 1486.25 1897.6 1483.57 Q1894.54 1480.88 1894.54 1475.86 Q1894.54 1472.55 1896.44 1470.26 Q1898.34 1467.96 1901.72 1467.18 M1900 1459.79 Q1900 1462.48 1901.67 1463.98 Q1903.36 1465.49 1906.39 1465.49 Q1909.4 1465.49 1911.09 1463.98 Q1912.81 1462.48 1912.81 1459.79 Q1912.81 1457.11 1911.09 1455.6 Q1909.4 1454.1 1906.39 1454.1 Q1903.36 1454.1 1901.67 1455.6 Q1900 1457.11 1900 1459.79 Z" fill="#000000" fill-rule="nonzero" fill-opacity="1" /><path clip-path="url(#clip190)" d="M2269.22 1481.64 L2276.86 1481.64 L2276.86 1455.28 L2268.55 1456.95 L2268.55 1452.69 L2276.81 1451.02 L2281.49 1451.02 L2281.49 1481.64 L2289.13 1481.64 L2289.13 1485.58 L2269.22 1485.58 L2269.22 1481.64 Z" fill="#000000" fill-rule="nonzero" fill-opacity="1" /><path clip-path="url(#clip190)" d="M2308.57 1454.1 Q2304.96 1454.1 2303.13 1457.66 Q2301.33 1461.2 2301.33 1468.33 Q2301.33 1475.44 2303.13 1479.01 Q2304.96 1482.55 2308.57 1482.55 Q2312.21 1482.55 2314.01 1479.01 Q2315.84 1475.44 2315.84 1468.33 Q2315.84 1461.2 2314.01 1457.66 Q2312.21 1454.1 2308.57 1454.1 M2308.57 1450.39 Q2314.38 1450.39 2317.44 1455 Q2320.52 1459.58 2320.52 1468.33 Q2320.52 1477.06 2317.44 1481.67 Q2314.38 1486.25 2308.57 1486.25 Q2302.76 1486.25 2299.69 1481.67 Q2296.63 1477.06 2296.63 1468.33 Q2296.63 1459.58 2299.69 1455 Q2302.76 1450.39 2308.57 1450.39 Z" fill="#000000" fill-rule="nonzero" fill-opacity="1" /><path clip-path="url(#clip190)" d="M1191.9 1520.52 L1198.33 1520.52 L1198.33 1568.04 L1191.9 1568.04 L1191.9 1520.52 Z" fill="#000000" fill-rule="nonzero" fill-opacity="1" /><path clip-path="url(#clip190)" d="M1216.66 1522.27 L1216.66 1532.4 L1228.73 1532.4 L1228.73 1536.95 L1216.66 1536.95 L1216.66 1556.3 Q1216.66 1560.66 1217.84 1561.9 Q1219.05 1563.14 1222.71 1563.14 L1228.73 1563.14 L1228.73 1568.04 L1222.71 1568.04 Q1215.93 1568.04 1213.35 1565.53 Q1210.78 1562.98 1210.78 1556.3 L1210.78 1536.95 L1206.48 1536.95 L1206.48 1532.4 L1210.78 1532.4 L1210.78 1522.27 L1216.66 1522.27 Z" fill="#000000" fill-rule="nonzero" fill-opacity="1" /><path clip-path="url(#clip190)" d="M1266.92 1548.76 L1266.92 1551.62 L1239.99 1551.62 Q1240.38 1557.67 1243.62 1560.85 Q1246.9 1564 1252.73 1564 Q1256.1 1564 1259.25 1563.17 Q1262.43 1562.35 1265.55 1560.69 L1265.55 1566.23 Q1262.4 1567.57 1259.09 1568.27 Q1255.78 1568.97 1252.38 1568.97 Q1243.85 1568.97 1238.85 1564 Q1233.88 1559.04 1233.88 1550.57 Q1233.88 1541.82 1238.59 1536.69 Q1243.34 1531.54 1251.36 1531.54 Q1258.55 1531.54 1262.72 1536.18 Q1266.92 1540.8 1266.92 1548.76 M1261.07 1547.04 Q1261 1542.23 1258.36 1539.37 Q1255.75 1536.5 1251.42 1536.5 Q1246.52 1536.5 1243.56 1539.27 Q1240.63 1542.04 1240.19 1547.07 L1261.07 1547.04 Z" fill="#000000" fill-rule="nonzero" fill-opacity="1" /><path clip-path="url(#clip190)" d="M1297.19 1537.87 Q1296.2 1537.3 1295.03 1537.04 Q1293.88 1536.76 1292.48 1536.76 Q1287.51 1536.76 1284.84 1540 Q1282.2 1543.22 1282.2 1549.27 L1282.2 1568.04 L1276.31 1568.04 L1276.31 1532.4 L1282.2 1532.4 L1282.2 1537.93 Q1284.05 1534.69 1287.01 1533.13 Q1289.97 1531.54 1294.2 1531.54 Q1294.8 1531.54 1295.54 1531.63 Q1296.27 1531.7 1297.16 1531.85 L1297.19 1537.87 Z" fill="#000000" fill-rule="nonzero" fill-opacity="1" /><path clip-path="url(#clip190)" d="M1319.53 1550.12 Q1312.44 1550.12 1309.7 1551.75 Q1306.96 1553.37 1306.96 1557.29 Q1306.96 1560.4 1309 1562.25 Q1311.07 1564.07 1314.6 1564.07 Q1319.47 1564.07 1322.4 1560.63 Q1325.36 1557.16 1325.36 1551.43 L1325.36 1550.12 L1319.53 1550.12 M1331.22 1547.71 L1331.22 1568.04 L1325.36 1568.04 L1325.36 1562.63 Q1323.35 1565.88 1320.36 1567.44 Q1317.37 1568.97 1313.04 1568.97 Q1307.57 1568.97 1304.32 1565.91 Q1301.11 1562.82 1301.11 1557.67 Q1301.11 1551.65 1305.12 1548.6 Q1309.16 1545.54 1317.15 1545.54 L1325.36 1545.54 L1325.36 1544.97 Q1325.36 1540.93 1322.69 1538.73 Q1320.04 1536.5 1315.24 1536.5 Q1312.18 1536.5 1309.29 1537.23 Q1306.39 1537.97 1303.72 1539.43 L1303.72 1534.02 Q1306.93 1532.78 1309.95 1532.17 Q1312.98 1531.54 1315.84 1531.54 Q1323.58 1531.54 1327.4 1535.55 Q1331.22 1539.56 1331.22 1547.71 Z" fill="#000000" fill-rule="nonzero" fill-opacity="1" /><path clip-path="url(#clip190)" d="M1349.07 1522.27 L1349.07 1532.4 L1361.13 1532.4 L1361.13 1536.95 L1349.07 1536.95 L1349.07 1556.3 Q1349.07 1560.66 1350.25 1561.9 Q1351.46 1563.14 1355.12 1563.14 L1361.13 1563.14 L1361.13 1568.04 L1355.12 1568.04 Q1348.34 1568.04 1345.76 1565.53 Q1343.18 1562.98 1343.18 1556.3 L1343.18 1536.95 L1338.89 1536.95 L1338.89 1532.4 L1343.18 1532.4 L1343.18 1522.27 L1349.07 1522.27 Z" fill="#000000" fill-rule="nonzero" fill-opacity="1" /><path clip-path="url(#clip190)" d="M1368.84 1532.4 L1374.69 1532.4 L1374.69 1568.04 L1368.84 1568.04 L1368.84 1532.4 M1368.84 1518.52 L1374.69 1518.52 L1374.69 1525.93 L1368.84 1525.93 L1368.84 1518.52 Z" fill="#000000" fill-rule="nonzero" fill-opacity="1" /><path clip-path="url(#clip190)" d="M1400.76 1536.5 Q1396.05 1536.5 1393.31 1540.19 Q1390.58 1543.85 1390.58 1550.25 Q1390.58 1556.65 1393.28 1560.34 Q1396.02 1564 1400.76 1564 Q1405.44 1564 1408.18 1560.31 Q1410.91 1556.62 1410.91 1550.25 Q1410.91 1543.92 1408.18 1540.23 Q1405.44 1536.5 1400.76 1536.5 M1400.76 1531.54 Q1408.4 1531.54 1412.76 1536.5 Q1417.12 1541.47 1417.12 1550.25 Q1417.12 1559 1412.76 1564 Q1408.4 1568.97 1400.76 1568.97 Q1393.09 1568.97 1388.73 1564 Q1384.4 1559 1384.4 1550.25 Q1384.4 1541.47 1388.73 1536.5 Q1393.09 1531.54 1400.76 1531.54 Z" fill="#000000" fill-rule="nonzero" fill-opacity="1" /><path clip-path="url(#clip190)" d="M1456.46 1546.53 L1456.46 1568.04 L1450.6 1568.04 L1450.6 1546.72 Q1450.6 1541.66 1448.63 1539.14 Q1446.66 1536.63 1442.71 1536.63 Q1437.97 1536.63 1435.23 1539.65 Q1432.49 1542.68 1432.49 1547.9 L1432.49 1568.04 L1426.61 1568.04 L1426.61 1532.4 L1432.49 1532.4 L1432.49 1537.93 Q1434.59 1534.72 1437.43 1533.13 Q1440.29 1531.54 1444.02 1531.54 Q1450.16 1531.54 1453.31 1535.36 Q1456.46 1539.14 1456.46 1546.53 Z" fill="#000000" fill-rule="nonzero" fill-opacity="1" /><polyline clip-path="url(#clip190)" style="stroke:#000000; stroke-linecap:round; stroke-linejoin:round; stroke-width:4; stroke-opacity:1; fill:none" points="295.607,1423.18 295.607,47.2441 "/>
<polyline clip-path="url(#clip190)" style="stroke:#000000; stroke-linecap:round; stroke-linejoin:round; stroke-width:4; stroke-opacity:1; fill:none" points="295.607,1393.45 314.504,1393.45 "/>
<polyline clip-path="url(#clip190)" style="stroke:#000000; stroke-linecap:round; stroke-linejoin:round; stroke-width:4; stroke-opacity:1; fill:none" points="295.607,1106.98 314.504,1106.98 "/>
<polyline clip-path="url(#clip190)" style="stroke:#000000; stroke-linecap:round; stroke-linejoin:round; stroke-width:4; stroke-opacity:1; fill:none" points="295.607,820.505 314.504,820.505 "/>
<polyline clip-path="url(#clip190)" style="stroke:#000000; stroke-linecap:round; stroke-linejoin:round; stroke-width:4; stroke-opacity:1; fill:none" points="295.607,534.035 314.504,534.035 "/>
<polyline clip-path="url(#clip190)" style="stroke:#000000; stroke-linecap:round; stroke-linejoin:round; stroke-width:4; stroke-opacity:1; fill:none" points="295.607,247.564 314.504,247.564 "/>
<path clip-path="url(#clip190)" d="M131.181 1392.09 Q134.538 1392.81 136.413 1395.08 Q138.311 1397.35 138.311 1400.68 Q138.311 1405.8 134.792 1408.6 Q131.274 1411.4 124.793 1411.4 Q122.617 1411.4 120.302 1410.96 Q118.01 1410.54 115.556 1409.68 L115.556 1405.17 Q117.501 1406.31 119.816 1406.88 Q122.13 1407.46 124.654 1407.46 Q129.052 1407.46 131.343 1405.73 Q133.658 1403.99 133.658 1400.68 Q133.658 1397.62 131.505 1395.91 Q129.376 1394.18 125.556 1394.18 L121.529 1394.18 L121.529 1390.33 L125.742 1390.33 Q129.191 1390.33 131.019 1388.97 Q132.848 1387.58 132.848 1384.99 Q132.848 1382.32 130.95 1380.91 Q129.075 1379.48 125.556 1379.48 Q123.635 1379.48 121.436 1379.89 Q119.237 1380.31 116.598 1381.19 L116.598 1377.02 Q119.26 1376.28 121.575 1375.91 Q123.913 1375.54 125.973 1375.54 Q131.297 1375.54 134.399 1377.97 Q137.501 1380.38 137.501 1384.5 Q137.501 1387.37 135.857 1389.36 Q134.214 1391.33 131.181 1392.09 Z" fill="#000000" fill-rule="nonzero" fill-opacity="1" /><path clip-path="url(#clip190)" d="M151.204 1406.79 L167.524 1406.79 L167.524 1410.73 L145.579 1410.73 L145.579 1406.79 Q148.241 1404.04 152.825 1399.41 Q157.431 1394.75 158.612 1393.41 Q160.857 1390.89 161.737 1389.15 Q162.64 1387.39 162.64 1385.7 Q162.64 1382.95 160.695 1381.21 Q158.774 1379.48 155.672 1379.48 Q153.473 1379.48 151.019 1380.24 Q148.589 1381 145.811 1382.56 L145.811 1377.83 Q148.635 1376.7 151.089 1376.12 Q153.542 1375.54 155.579 1375.54 Q160.95 1375.54 164.144 1378.23 Q167.339 1380.91 167.339 1385.4 Q167.339 1387.53 166.528 1389.45 Q165.741 1391.35 163.635 1393.94 Q163.056 1394.62 159.954 1397.83 Q156.853 1401.03 151.204 1406.79 Z" fill="#000000" fill-rule="nonzero" fill-opacity="1" /><path clip-path="url(#clip190)" d="M177.385 1376.17 L195.741 1376.17 L195.741 1380.1 L181.667 1380.1 L181.667 1388.57 Q182.686 1388.23 183.704 1388.06 Q184.723 1387.88 185.741 1387.88 Q191.528 1387.88 194.908 1391.05 Q198.287 1394.22 198.287 1399.64 Q198.287 1405.22 194.815 1408.32 Q191.343 1411.4 185.024 1411.4 Q182.848 1411.4 180.579 1411.03 Q178.334 1410.66 175.926 1409.92 L175.926 1405.22 Q178.01 1406.35 180.232 1406.91 Q182.454 1407.46 184.931 1407.46 Q188.936 1407.46 191.274 1405.36 Q193.612 1403.25 193.612 1399.64 Q193.612 1396.03 191.274 1393.92 Q188.936 1391.81 184.931 1391.81 Q183.056 1391.81 181.181 1392.23 Q179.329 1392.65 177.385 1393.53 L177.385 1376.17 Z" fill="#000000" fill-rule="nonzero" fill-opacity="1" /><path clip-path="url(#clip190)" d="M217.5 1379.25 Q213.889 1379.25 212.061 1382.81 Q210.255 1386.35 210.255 1393.48 Q210.255 1400.59 212.061 1404.15 Q213.889 1407.69 217.5 1407.69 Q221.135 1407.69 222.94 1404.15 Q224.769 1400.59 224.769 1393.48 Q224.769 1386.35 222.94 1382.81 Q221.135 1379.25 217.5 1379.25 M217.5 1375.54 Q223.31 1375.54 226.366 1380.15 Q229.445 1384.73 229.445 1393.48 Q229.445 1402.21 226.366 1406.81 Q223.31 1411.4 217.5 1411.4 Q211.69 1411.4 208.612 1406.81 Q205.556 1402.21 205.556 1393.48 Q205.556 1384.73 208.612 1380.15 Q211.69 1375.54 217.5 1375.54 Z" fill="#000000" fill-rule="nonzero" fill-opacity="1" /><path clip-path="url(#clip190)" d="M247.662 1379.25 Q244.051 1379.25 242.222 1382.81 Q240.417 1386.35 240.417 1393.48 Q240.417 1400.59 242.222 1404.15 Q244.051 1407.69 247.662 1407.69 Q251.296 1407.69 253.102 1404.15 Q254.931 1400.59 254.931 1393.48 Q254.931 1386.35 253.102 1382.81 Q251.296 1379.25 247.662 1379.25 M247.662 1375.54 Q253.472 1375.54 256.528 1380.15 Q259.607 1384.73 259.607 1393.48 Q259.607 1402.21 256.528 1406.81 Q253.472 1411.4 247.662 1411.4 Q241.852 1411.4 238.773 1406.81 Q235.718 1402.21 235.718 1393.48 Q235.718 1384.73 238.773 1380.15 Q241.852 1375.54 247.662 1375.54 Z" fill="#000000" fill-rule="nonzero" fill-opacity="1" /><path clip-path="url(#clip190)" d="M131.181 1105.62 Q134.538 1106.34 136.413 1108.61 Q138.311 1110.88 138.311 1114.21 Q138.311 1119.33 134.792 1122.13 Q131.274 1124.93 124.793 1124.93 Q122.617 1124.93 120.302 1124.49 Q118.01 1124.07 115.556 1123.21 L115.556 1118.7 Q117.501 1119.83 119.816 1120.41 Q122.13 1120.99 124.654 1120.99 Q129.052 1120.99 131.343 1119.26 Q133.658 1117.52 133.658 1114.21 Q133.658 1111.15 131.505 1109.44 Q129.376 1107.7 125.556 1107.7 L121.529 1107.7 L121.529 1103.86 L125.742 1103.86 Q129.191 1103.86 131.019 1102.5 Q132.848 1101.11 132.848 1098.52 Q132.848 1095.85 130.95 1094.44 Q129.075 1093.01 125.556 1093.01 Q123.635 1093.01 121.436 1093.42 Q119.237 1093.84 116.598 1094.72 L116.598 1090.55 Q119.26 1089.81 121.575 1089.44 Q123.913 1089.07 125.973 1089.07 Q131.297 1089.07 134.399 1091.5 Q137.501 1093.91 137.501 1098.03 Q137.501 1100.9 135.857 1102.89 Q134.214 1104.86 131.181 1105.62 Z" fill="#000000" fill-rule="nonzero" fill-opacity="1" /><path clip-path="url(#clip190)" d="M147.223 1089.7 L165.579 1089.7 L165.579 1093.63 L151.505 1093.63 L151.505 1102.1 Q152.524 1101.76 153.542 1101.59 Q154.561 1101.41 155.579 1101.41 Q161.366 1101.41 164.746 1104.58 Q168.126 1107.75 168.126 1113.17 Q168.126 1118.75 164.653 1121.85 Q161.181 1124.93 154.862 1124.93 Q152.686 1124.93 150.417 1124.56 Q148.172 1124.19 145.765 1123.45 L145.765 1118.75 Q147.848 1119.88 150.07 1120.44 Q152.292 1120.99 154.769 1120.99 Q158.774 1120.99 161.112 1118.89 Q163.45 1116.78 163.45 1113.17 Q163.45 1109.56 161.112 1107.45 Q158.774 1105.34 154.769 1105.34 Q152.894 1105.34 151.019 1105.76 Q149.167 1106.18 147.223 1107.06 L147.223 1089.7 Z" fill="#000000" fill-rule="nonzero" fill-opacity="1" /><path clip-path="url(#clip190)" d="M187.338 1092.77 Q183.727 1092.77 181.899 1096.34 Q180.093 1099.88 180.093 1107.01 Q180.093 1114.12 181.899 1117.68 Q183.727 1121.22 187.338 1121.22 Q190.973 1121.22 192.778 1117.68 Q194.607 1114.12 194.607 1107.01 Q194.607 1099.88 192.778 1096.34 Q190.973 1092.77 187.338 1092.77 M187.338 1089.07 Q193.149 1089.07 196.204 1093.68 Q199.283 1098.26 199.283 1107.01 Q199.283 1115.74 196.204 1120.34 Q193.149 1124.93 187.338 1124.93 Q181.528 1124.93 178.45 1120.34 Q175.394 1115.74 175.394 1107.01 Q175.394 1098.26 178.45 1093.68 Q181.528 1089.07 187.338 1089.07 Z" fill="#000000" fill-rule="nonzero" fill-opacity="1" /><path clip-path="url(#clip190)" d="M217.5 1092.77 Q213.889 1092.77 212.061 1096.34 Q210.255 1099.88 210.255 1107.01 Q210.255 1114.12 212.061 1117.68 Q213.889 1121.22 217.5 1121.22 Q221.135 1121.22 222.94 1117.68 Q224.769 1114.12 224.769 1107.01 Q224.769 1099.88 222.94 1096.34 Q221.135 1092.77 217.5 1092.77 M217.5 1089.07 Q223.31 1089.07 226.366 1093.68 Q229.445 1098.26 229.445 1107.01 Q229.445 1115.74 226.366 1120.34 Q223.31 1124.93 217.5 1124.93 Q211.69 1124.93 208.612 1120.34 Q205.556 1115.74 205.556 1107.01 Q205.556 1098.26 208.612 1093.68 Q211.69 1089.07 217.5 1089.07 Z" fill="#000000" fill-rule="nonzero" fill-opacity="1" /><path clip-path="url(#clip190)" d="M247.662 1092.77 Q244.051 1092.77 242.222 1096.34 Q240.417 1099.88 240.417 1107.01 Q240.417 1114.12 242.222 1117.68 Q244.051 1121.22 247.662 1121.22 Q251.296 1121.22 253.102 1117.68 Q254.931 1114.12 254.931 1107.01 Q254.931 1099.88 253.102 1096.34 Q251.296 1092.77 247.662 1092.77 M247.662 1089.07 Q253.472 1089.07 256.528 1093.68 Q259.607 1098.26 259.607 1107.01 Q259.607 1115.74 256.528 1120.34 Q253.472 1124.93 247.662 1124.93 Q241.852 1124.93 238.773 1120.34 Q235.718 1115.74 235.718 1107.01 Q235.718 1098.26 238.773 1093.68 Q241.852 1089.07 247.662 1089.07 Z" fill="#000000" fill-rule="nonzero" fill-opacity="1" /><path clip-path="url(#clip190)" d="M131.181 819.151 Q134.538 819.869 136.413 822.137 Q138.311 824.406 138.311 827.739 Q138.311 832.855 134.792 835.656 Q131.274 838.456 124.793 838.456 Q122.617 838.456 120.302 838.017 Q118.01 837.6 115.556 836.743 L115.556 832.23 Q117.501 833.364 119.816 833.943 Q122.13 834.521 124.654 834.521 Q129.052 834.521 131.343 832.785 Q133.658 831.049 133.658 827.739 Q133.658 824.683 131.505 822.97 Q129.376 821.234 125.556 821.234 L121.529 821.234 L121.529 817.392 L125.742 817.392 Q129.191 817.392 131.019 816.026 Q132.848 814.637 132.848 812.045 Q132.848 809.383 130.95 807.97 Q129.075 806.535 125.556 806.535 Q123.635 806.535 121.436 806.952 Q119.237 807.369 116.598 808.248 L116.598 804.082 Q119.26 803.341 121.575 802.971 Q123.913 802.6 125.973 802.6 Q131.297 802.6 134.399 805.031 Q137.501 807.438 137.501 811.558 Q137.501 814.429 135.857 816.42 Q134.214 818.387 131.181 819.151 Z" fill="#000000" fill-rule="nonzero" fill-opacity="1" /><path clip-path="url(#clip190)" d="M145.996 803.225 L168.218 803.225 L168.218 805.216 L155.672 837.785 L150.788 837.785 L162.593 807.16 L145.996 807.16 L145.996 803.225 Z" fill="#000000" fill-rule="nonzero" fill-opacity="1" /><path clip-path="url(#clip190)" d="M177.385 803.225 L195.741 803.225 L195.741 807.16 L181.667 807.16 L181.667 815.632 Q182.686 815.285 183.704 815.123 Q184.723 814.938 185.741 814.938 Q191.528 814.938 194.908 818.109 Q198.287 821.281 198.287 826.697 Q198.287 832.276 194.815 835.378 Q191.343 838.456 185.024 838.456 Q182.848 838.456 180.579 838.086 Q178.334 837.716 175.926 836.975 L175.926 832.276 Q178.01 833.41 180.232 833.966 Q182.454 834.521 184.931 834.521 Q188.936 834.521 191.274 832.415 Q193.612 830.308 193.612 826.697 Q193.612 823.086 191.274 820.98 Q188.936 818.873 184.931 818.873 Q183.056 818.873 181.181 819.29 Q179.329 819.707 177.385 820.586 L177.385 803.225 Z" fill="#000000" fill-rule="nonzero" fill-opacity="1" /><path clip-path="url(#clip190)" d="M217.5 806.304 Q213.889 806.304 212.061 809.869 Q210.255 813.41 210.255 820.54 Q210.255 827.646 212.061 831.211 Q213.889 834.753 217.5 834.753 Q221.135 834.753 222.94 831.211 Q224.769 827.646 224.769 820.54 Q224.769 813.41 222.94 809.869 Q221.135 806.304 217.5 806.304 M217.5 802.6 Q223.31 802.6 226.366 807.207 Q229.445 811.79 229.445 820.54 Q229.445 829.267 226.366 833.873 Q223.31 838.456 217.5 838.456 Q211.69 838.456 208.612 833.873 Q205.556 829.267 205.556 820.54 Q205.556 811.79 208.612 807.207 Q211.69 802.6 217.5 802.6 Z" fill="#000000" fill-rule="nonzero" fill-opacity="1" /><path clip-path="url(#clip190)" d="M247.662 806.304 Q244.051 806.304 242.222 809.869 Q240.417 813.41 240.417 820.54 Q240.417 827.646 242.222 831.211 Q244.051 834.753 247.662 834.753 Q251.296 834.753 253.102 831.211 Q254.931 827.646 254.931 820.54 Q254.931 813.41 253.102 809.869 Q251.296 806.304 247.662 806.304 M247.662 802.6 Q253.472 802.6 256.528 807.207 Q259.607 811.79 259.607 820.54 Q259.607 829.267 256.528 833.873 Q253.472 838.456 247.662 838.456 Q241.852 838.456 238.773 833.873 Q235.718 829.267 235.718 820.54 Q235.718 811.79 238.773 807.207 Q241.852 802.6 247.662 802.6 Z" fill="#000000" fill-rule="nonzero" fill-opacity="1" /><path clip-path="url(#clip190)" d="M129.862 520.829 L118.056 539.278 L129.862 539.278 L129.862 520.829 M128.635 516.755 L134.515 516.755 L134.515 539.278 L139.445 539.278 L139.445 543.166 L134.515 543.166 L134.515 551.315 L129.862 551.315 L129.862 543.166 L114.26 543.166 L114.26 538.653 L128.635 516.755 Z" fill="#000000" fill-rule="nonzero" fill-opacity="1" /><path clip-path="url(#clip190)" d="M157.177 519.833 Q153.566 519.833 151.737 523.398 Q149.931 526.94 149.931 534.069 Q149.931 541.176 151.737 544.74 Q153.566 548.282 157.177 548.282 Q160.811 548.282 162.616 544.74 Q164.445 541.176 164.445 534.069 Q164.445 526.94 162.616 523.398 Q160.811 519.833 157.177 519.833 M157.177 516.13 Q162.987 516.13 166.042 520.736 Q169.121 525.319 169.121 534.069 Q169.121 542.796 166.042 547.402 Q162.987 551.986 157.177 551.986 Q151.366 551.986 148.288 547.402 Q145.232 542.796 145.232 534.069 Q145.232 525.319 148.288 520.736 Q151.366 516.13 157.177 516.13 Z" fill="#000000" fill-rule="nonzero" fill-opacity="1" /><path clip-path="url(#clip190)" d="M187.338 519.833 Q183.727 519.833 181.899 523.398 Q180.093 526.94 180.093 534.069 Q180.093 541.176 181.899 544.74 Q183.727 548.282 187.338 548.282 Q190.973 548.282 192.778 544.74 Q194.607 541.176 194.607 534.069 Q194.607 526.94 192.778 523.398 Q190.973 519.833 187.338 519.833 M187.338 516.13 Q193.149 516.13 196.204 520.736 Q199.283 525.319 199.283 534.069 Q199.283 542.796 196.204 547.402 Q193.149 551.986 187.338 551.986 Q181.528 551.986 178.45 547.402 Q175.394 542.796 175.394 534.069 Q175.394 525.319 178.45 520.736 Q181.528 516.13 187.338 516.13 Z" fill="#000000" fill-rule="nonzero" fill-opacity="1" /><path clip-path="url(#clip190)" d="M217.5 519.833 Q213.889 519.833 212.061 523.398 Q210.255 526.94 210.255 534.069 Q210.255 541.176 212.061 544.74 Q213.889 548.282 217.5 548.282 Q221.135 548.282 222.94 544.74 Q224.769 541.176 224.769 534.069 Q224.769 526.94 222.94 523.398 Q221.135 519.833 217.5 519.833 M217.5 516.13 Q223.31 516.13 226.366 520.736 Q229.445 525.319 229.445 534.069 Q229.445 542.796 226.366 547.402 Q223.31 551.986 217.5 551.986 Q211.69 551.986 208.612 547.402 Q205.556 542.796 205.556 534.069 Q205.556 525.319 208.612 520.736 Q211.69 516.13 217.5 516.13 Z" fill="#000000" fill-rule="nonzero" fill-opacity="1" /><path clip-path="url(#clip190)" d="M247.662 519.833 Q244.051 519.833 242.222 523.398 Q240.417 526.94 240.417 534.069 Q240.417 541.176 242.222 544.74 Q244.051 548.282 247.662 548.282 Q251.296 548.282 253.102 544.74 Q254.931 541.176 254.931 534.069 Q254.931 526.94 253.102 523.398 Q251.296 519.833 247.662 519.833 M247.662 516.13 Q253.472 516.13 256.528 520.736 Q259.607 525.319 259.607 534.069 Q259.607 542.796 256.528 547.402 Q253.472 551.986 247.662 551.986 Q241.852 551.986 238.773 547.402 Q235.718 542.796 235.718 534.069 Q235.718 525.319 238.773 520.736 Q241.852 516.13 247.662 516.13 Z" fill="#000000" fill-rule="nonzero" fill-opacity="1" /><path clip-path="url(#clip190)" d="M129.862 234.358 L118.056 252.807 L129.862 252.807 L129.862 234.358 M128.635 230.284 L134.515 230.284 L134.515 252.807 L139.445 252.807 L139.445 256.696 L134.515 256.696 L134.515 264.844 L129.862 264.844 L129.862 256.696 L114.26 256.696 L114.26 252.182 L128.635 230.284 Z" fill="#000000" fill-rule="nonzero" fill-opacity="1" /><path clip-path="url(#clip190)" d="M151.204 260.909 L167.524 260.909 L167.524 264.844 L145.579 264.844 L145.579 260.909 Q148.241 258.154 152.825 253.524 Q157.431 248.872 158.612 247.529 Q160.857 245.006 161.737 243.27 Q162.64 241.511 162.64 239.821 Q162.64 237.066 160.695 235.33 Q158.774 233.594 155.672 233.594 Q153.473 233.594 151.019 234.358 Q148.589 235.122 145.811 236.673 L145.811 231.951 Q148.635 230.816 151.089 230.238 Q153.542 229.659 155.579 229.659 Q160.95 229.659 164.144 232.344 Q167.339 235.029 167.339 239.52 Q167.339 241.65 166.528 243.571 Q165.741 245.469 163.635 248.062 Q163.056 248.733 159.954 251.95 Q156.853 255.145 151.204 260.909 Z" fill="#000000" fill-rule="nonzero" fill-opacity="1" /><path clip-path="url(#clip190)" d="M177.385 230.284 L195.741 230.284 L195.741 234.219 L181.667 234.219 L181.667 242.691 Q182.686 242.344 183.704 242.182 Q184.723 241.997 185.741 241.997 Q191.528 241.997 194.908 245.168 Q198.287 248.339 198.287 253.756 Q198.287 259.335 194.815 262.436 Q191.343 265.515 185.024 265.515 Q182.848 265.515 180.579 265.145 Q178.334 264.774 175.926 264.034 L175.926 259.335 Q178.01 260.469 180.232 261.024 Q182.454 261.58 184.931 261.58 Q188.936 261.58 191.274 259.474 Q193.612 257.367 193.612 253.756 Q193.612 250.145 191.274 248.038 Q188.936 245.932 184.931 245.932 Q183.056 245.932 181.181 246.349 Q179.329 246.765 177.385 247.645 L177.385 230.284 Z" fill="#000000" fill-rule="nonzero" fill-opacity="1" /><path clip-path="url(#clip190)" d="M217.5 233.363 Q213.889 233.363 212.061 236.927 Q210.255 240.469 210.255 247.599 Q210.255 254.705 212.061 258.27 Q213.889 261.811 217.5 261.811 Q221.135 261.811 222.94 258.27 Q224.769 254.705 224.769 247.599 Q224.769 240.469 222.94 236.927 Q221.135 233.363 217.5 233.363 M217.5 229.659 Q223.31 229.659 226.366 234.265 Q229.445 238.849 229.445 247.599 Q229.445 256.325 226.366 260.932 Q223.31 265.515 217.5 265.515 Q211.69 265.515 208.612 260.932 Q205.556 256.325 205.556 247.599 Q205.556 238.849 208.612 234.265 Q211.69 229.659 217.5 229.659 Z" fill="#000000" fill-rule="nonzero" fill-opacity="1" /><path clip-path="url(#clip190)" d="M247.662 233.363 Q244.051 233.363 242.222 236.927 Q240.417 240.469 240.417 247.599 Q240.417 254.705 242.222 258.27 Q244.051 261.811 247.662 261.811 Q251.296 261.811 253.102 258.27 Q254.931 254.705 254.931 247.599 Q254.931 240.469 253.102 236.927 Q251.296 233.363 247.662 233.363 M247.662 229.659 Q253.472 229.659 256.528 234.265 Q259.607 238.849 259.607 247.599 Q259.607 256.325 256.528 260.932 Q253.472 265.515 247.662 265.515 Q241.852 265.515 238.773 260.932 Q235.718 256.325 235.718 247.599 Q235.718 238.849 238.773 234.265 Q241.852 229.659 247.662 229.659 Z" fill="#000000" fill-rule="nonzero" fill-opacity="1" /><path clip-path="url(#clip190)" d="M20.1444 908.248 L26.9239 908.248 Q23.9002 911.494 22.4043 915.186 Q20.9083 918.847 20.9083 922.984 Q20.9083 931.133 25.9054 935.461 Q30.8707 939.79 40.2919 939.79 Q49.6813 939.79 54.6784 935.461 Q59.6436 931.133 59.6436 922.984 Q59.6436 918.847 58.1477 915.186 Q56.6518 911.494 53.6281 908.248 L60.3439 908.248 Q62.6355 911.622 63.7814 915.409 Q64.9272 919.165 64.9272 923.366 Q64.9272 934.156 58.3387 940.363 Q51.7183 946.569 40.2919 946.569 Q28.8336 946.569 22.2451 940.363 Q15.6248 934.156 15.6248 923.366 Q15.6248 919.101 16.7706 915.346 Q17.8846 911.558 20.1444 908.248 Z" fill="#000000" fill-rule="nonzero" fill-opacity="1" /><path clip-path="url(#clip190)" d="M32.4621 884.758 Q32.4621 889.469 36.1542 892.206 Q39.8145 894.943 46.212 894.943 Q52.6095 894.943 56.3017 892.238 Q59.9619 889.501 59.9619 884.758 Q59.9619 880.08 56.2698 877.342 Q52.5777 874.605 46.212 874.605 Q39.8781 874.605 36.186 877.342 Q32.4621 880.08 32.4621 884.758 M27.4968 884.758 Q27.4968 877.119 32.4621 872.759 Q37.4273 868.398 46.212 868.398 Q54.9649 868.398 59.9619 872.759 Q64.9272 877.119 64.9272 884.758 Q64.9272 892.429 59.9619 896.79 Q54.9649 901.118 46.212 901.118 Q37.4273 901.118 32.4621 896.79 Q27.4968 892.429 27.4968 884.758 Z" fill="#000000" fill-rule="nonzero" fill-opacity="1" /><path clip-path="url(#clip190)" d="M29.4065 835.965 L34.9447 835.965 Q33.6716 838.448 33.035 841.121 Q32.3984 843.795 32.3984 846.66 Q32.3984 851.02 33.7352 853.216 Q35.072 855.381 37.7456 855.381 Q39.7826 855.381 40.9603 853.821 Q42.1061 852.261 43.1565 847.551 L43.6021 845.546 Q44.9389 839.307 47.3897 836.697 Q49.8086 834.055 54.1691 834.055 Q59.1344 834.055 62.0308 838.002 Q64.9272 841.917 64.9272 848.792 Q64.9272 851.657 64.3543 854.776 Q63.8132 857.863 62.6992 861.301 L56.6518 861.301 Q58.3387 858.054 59.198 854.903 Q60.0256 851.752 60.0256 848.665 Q60.0256 844.527 58.6251 842.299 Q57.1929 840.071 54.6147 840.071 Q52.2276 840.071 50.9545 841.694 Q49.6813 843.286 48.5037 848.728 L48.0262 850.765 Q46.8804 856.208 44.5251 858.627 Q42.138 861.046 38.0002 861.046 Q32.9713 861.046 30.2341 857.481 Q27.4968 853.916 27.4968 847.36 Q27.4968 844.113 27.9743 841.249 Q28.4517 838.384 29.4065 835.965 Z" fill="#000000" fill-rule="nonzero" fill-opacity="1" /><path clip-path="url(#clip190)" d="M18.2347 818.937 L28.3562 818.937 L28.3562 806.874 L32.9077 806.874 L32.9077 818.937 L52.2594 818.937 Q56.6199 818.937 57.8613 817.759 Q59.1026 816.55 59.1026 812.89 L59.1026 806.874 L64.0042 806.874 L64.0042 812.89 Q64.0042 819.669 61.4897 822.247 Q58.9434 824.825 52.2594 824.825 L32.9077 824.825 L32.9077 829.122 L28.3562 829.122 L28.3562 824.825 L18.2347 824.825 L18.2347 818.937 Z" fill="#000000" fill-rule="nonzero" fill-opacity="1" /><path clip-path="url(#clip190)" d="M14.479 760.404 L19.3487 760.404 L19.3487 766.006 Q19.3487 769.157 20.6219 770.398 Q21.895 771.608 25.2052 771.608 L28.3562 771.608 L28.3562 761.964 L32.9077 761.964 L32.9077 771.608 L64.0042 771.608 L64.0042 777.496 L32.9077 777.496 L32.9077 783.098 L28.3562 783.098 L28.3562 777.496 L25.8736 777.496 Q19.9216 777.496 17.2162 774.727 Q14.479 771.958 14.479 765.942 L14.479 760.404 Z" fill="#000000" fill-rule="nonzero" fill-opacity="1" /><path clip-path="url(#clip190)" d="M49.9359 756.107 L28.3562 756.107 L28.3562 750.251 L49.7131 750.251 Q54.7739 750.251 57.3202 748.278 Q59.8346 746.304 59.8346 742.357 Q59.8346 737.615 56.8109 734.878 Q53.7872 732.109 48.5673 732.109 L28.3562 732.109 L28.3562 726.252 L64.0042 726.252 L64.0042 732.109 L58.5296 732.109 Q61.7762 734.241 63.3676 737.074 Q64.9272 739.875 64.9272 743.599 Q64.9272 749.742 61.1078 752.925 Q57.2883 756.107 49.9359 756.107 M27.4968 741.371 L27.4968 741.371 Z" fill="#000000" fill-rule="nonzero" fill-opacity="1" /><path clip-path="url(#clip190)" d="M42.4881 684.557 L64.0042 684.557 L64.0042 690.413 L42.679 690.413 Q37.6183 690.413 35.1038 692.387 Q32.5894 694.36 32.5894 698.307 Q32.5894 703.049 35.6131 705.786 Q38.6368 708.524 43.8567 708.524 L64.0042 708.524 L64.0042 714.412 L28.3562 714.412 L28.3562 708.524 L33.8944 708.524 Q30.6797 706.423 29.0883 703.59 Q27.4968 700.726 27.4968 697.002 Q27.4968 690.859 31.3163 687.708 Q35.1038 684.557 42.4881 684.557 Z" fill="#000000" fill-rule="nonzero" fill-opacity="1" /><path clip-path="url(#clip190)" d="M29.7248 647.222 L35.1993 647.222 Q33.8307 649.705 33.1623 652.219 Q32.4621 654.702 32.4621 657.248 Q32.4621 662.945 36.0905 666.096 Q39.6872 669.247 46.212 669.247 Q52.7369 669.247 56.3653 666.096 Q59.9619 662.945 59.9619 657.248 Q59.9619 654.702 59.2935 652.219 Q58.5933 649.705 57.2247 647.222 L62.6355 647.222 Q63.7814 649.673 64.3543 652.315 Q64.9272 654.924 64.9272 657.885 Q64.9272 665.937 59.8664 670.68 Q54.8057 675.422 46.212 675.422 Q37.491 675.422 32.4939 670.648 Q27.4968 665.842 27.4968 657.503 Q27.4968 654.797 28.0697 652.219 Q28.6108 649.641 29.7248 647.222 Z" fill="#000000" fill-rule="nonzero" fill-opacity="1" /><path clip-path="url(#clip190)" d="M18.2347 631.244 L28.3562 631.244 L28.3562 619.181 L32.9077 619.181 L32.9077 631.244 L52.2594 631.244 Q56.6199 631.244 57.8613 630.066 Q59.1026 628.857 59.1026 625.197 L59.1026 619.181 L64.0042 619.181 L64.0042 625.197 Q64.0042 631.976 61.4897 634.554 Q58.9434 637.132 52.2594 637.132 L32.9077 637.132 L32.9077 641.429 L28.3562 641.429 L28.3562 637.132 L18.2347 637.132 L18.2347 631.244 Z" fill="#000000" fill-rule="nonzero" fill-opacity="1" /><path clip-path="url(#clip190)" d="M28.3562 611.479 L28.3562 605.622 L64.0042 605.622 L64.0042 611.479 L28.3562 611.479 M14.479 611.479 L14.479 605.622 L21.895 605.622 L21.895 611.479 L14.479 611.479 Z" fill="#000000" fill-rule="nonzero" fill-opacity="1" /><path clip-path="url(#clip190)" d="M32.4621 579.555 Q32.4621 584.265 36.1542 587.002 Q39.8145 589.74 46.212 589.74 Q52.6095 589.74 56.3017 587.034 Q59.9619 584.297 59.9619 579.555 Q59.9619 574.876 56.2698 572.138 Q52.5777 569.401 46.212 569.401 Q39.8781 569.401 36.186 572.138 Q32.4621 574.876 32.4621 579.555 M27.4968 579.555 Q27.4968 571.916 32.4621 567.555 Q37.4273 563.195 46.212 563.195 Q54.9649 563.195 59.9619 567.555 Q64.9272 571.916 64.9272 579.555 Q64.9272 587.225 59.9619 591.586 Q54.9649 595.914 46.212 595.914 Q37.4273 595.914 32.4621 591.586 Q27.4968 587.225 27.4968 579.555 Z" fill="#000000" fill-rule="nonzero" fill-opacity="1" /><path clip-path="url(#clip190)" d="M42.4881 523.855 L64.0042 523.855 L64.0042 529.711 L42.679 529.711 Q37.6183 529.711 35.1038 531.684 Q32.5894 533.658 32.5894 537.605 Q32.5894 542.347 35.6131 545.084 Q38.6368 547.821 43.8567 547.821 L64.0042 547.821 L64.0042 553.71 L28.3562 553.71 L28.3562 547.821 L33.8944 547.821 Q30.6797 545.721 29.0883 542.888 Q27.4968 540.023 27.4968 536.3 Q27.4968 530.157 31.3163 527.006 Q35.1038 523.855 42.4881 523.855 Z" fill="#000000" fill-rule="nonzero" fill-opacity="1" /><polyline clip-path="url(#clip191)" style="stroke:#009af9; stroke-linecap:round; stroke-linejoin:round; stroke-width:4; stroke-opacity:1; fill:none" points="353.828,86.1857 547.898,1342.18 741.969,1382.29 936.04,1382.13 1130.11,1384.14 1324.18,1384.23 1518.25,1384.24 1712.32,1384.24 1906.39,1384.24 2100.46,1384.24 2294.53,1384.24 "/>
<circle clip-path="url(#clip191)" cx="353.828" cy="86.1857" r="21.6" fill="#009af9" fill-rule="evenodd" fill-opacity="1" stroke="none"/>
<circle clip-path="url(#clip191)" cx="547.898" cy="1342.18" r="21.6" fill="#009af9" fill-rule="evenodd" fill-opacity="1" stroke="none"/>
<circle clip-path="url(#clip191)" cx="741.969" cy="1382.29" r="21.6" fill="#009af9" fill-rule="evenodd" fill-opacity="1" stroke="none"/>
<circle clip-path="url(#clip191)" cx="936.04" cy="1382.13" r="21.6" fill="#009af9" fill-rule="evenodd" fill-opacity="1" stroke="none"/>
<circle clip-path="url(#clip191)" cx="1130.11" cy="1384.14" r="21.6" fill="#009af9" fill-rule="evenodd" fill-opacity="1" stroke="none"/>
<circle clip-path="url(#clip191)" cx="1324.18" cy="1384.23" r="21.6" fill="#009af9" fill-rule="evenodd" fill-opacity="1" stroke="none"/>
<circle clip-path="url(#clip191)" cx="1518.25" cy="1384.24" r="21.6" fill="#009af9" fill-rule="evenodd" fill-opacity="1" stroke="none"/>
<circle clip-path="url(#clip191)" cx="1712.32" cy="1384.24" r="21.6" fill="#009af9" fill-rule="evenodd" fill-opacity="1" stroke="none"/>
<circle clip-path="url(#clip191)" cx="1906.39" cy="1384.24" r="21.6" fill="#009af9" fill-rule="evenodd" fill-opacity="1" stroke="none"/>
<circle clip-path="url(#clip191)" cx="2100.46" cy="1384.24" r="21.6" fill="#009af9" fill-rule="evenodd" fill-opacity="1" stroke="none"/>
<circle clip-path="url(#clip191)" cx="2294.53" cy="1384.24" r="21.6" fill="#009af9" fill-rule="evenodd" fill-opacity="1" stroke="none"/>
<path clip-path="url(#clip190)" d="M1944.21 196.789 L2284.18 196.789 L2284.18 93.1086 L1944.21 93.1086  Z" fill="#ffffff" fill-rule="evenodd" fill-opacity="1"/>
<polyline clip-path="url(#clip190)" style="stroke:#000000; stroke-linecap:round; stroke-linejoin:round; stroke-width:4; stroke-opacity:1; fill:none" points="1944.21,196.789 2284.18,196.789 2284.18,93.1086 1944.21,93.1086 1944.21,196.789 "/>
<polyline clip-path="url(#clip190)" style="stroke:#009af9; stroke-linecap:round; stroke-linejoin:round; stroke-width:4; stroke-opacity:1; fill:none" points="1967.07,144.949 2104.21,144.949 "/>
<circle clip-path="url(#clip190)" cx="2035.64" cy="144.949" r="19.0477" fill="#009af9" fill-rule="evenodd" fill-opacity="1" stroke="none"/>
<path clip-path="url(#clip190)" d="M2131.74 131.511 L2131.74 144.497 L2137.62 144.497 Q2140.89 144.497 2142.67 142.807 Q2144.45 141.118 2144.45 137.993 Q2144.45 134.891 2142.67 133.201 Q2140.89 131.511 2137.62 131.511 L2131.74 131.511 M2127.07 127.669 L2137.62 127.669 Q2143.43 127.669 2146.4 130.307 Q2149.38 132.923 2149.38 137.993 Q2149.38 143.108 2146.4 145.724 Q2143.43 148.34 2137.62 148.34 L2131.74 148.34 L2131.74 162.229 L2127.07 162.229 L2127.07 127.669 Z" fill="#000000" fill-rule="nonzero" fill-opacity="1" /><path clip-path="url(#clip190)" d="M2169.68 130.84 Q2164.59 130.84 2161.58 134.636 Q2158.6 138.432 2158.6 144.983 Q2158.6 151.511 2161.58 155.307 Q2164.59 159.104 2169.68 159.104 Q2174.78 159.104 2177.74 155.307 Q2180.73 151.511 2180.73 144.983 Q2180.73 138.432 2177.74 134.636 Q2174.78 130.84 2169.68 130.84 M2169.68 127.044 Q2176.95 127.044 2181.3 131.928 Q2185.66 136.789 2185.66 144.983 Q2185.66 153.155 2181.3 158.039 Q2176.95 162.9 2169.68 162.9 Q2162.39 162.9 2158.02 158.039 Q2153.67 153.178 2153.67 144.983 Q2153.67 136.789 2158.02 131.928 Q2162.39 127.044 2169.68 127.044 Z" fill="#000000" fill-rule="nonzero" fill-opacity="1" /><path clip-path="url(#clip190)" d="M2216.54 157.298 L2216.54 148.016 L2208.9 148.016 L2208.9 144.173 L2221.17 144.173 L2221.17 159.011 Q2218.46 160.932 2215.19 161.928 Q2211.93 162.9 2208.23 162.9 Q2200.12 162.9 2195.54 158.178 Q2190.98 153.432 2190.98 144.983 Q2190.98 136.511 2195.54 131.789 Q2200.12 127.044 2208.23 127.044 Q2211.61 127.044 2214.64 127.877 Q2217.69 128.71 2220.26 130.331 L2220.26 135.307 Q2217.67 133.108 2214.75 131.997 Q2211.84 130.886 2208.62 130.886 Q2202.28 130.886 2199.08 134.428 Q2195.91 137.969 2195.91 144.983 Q2195.91 151.974 2199.08 155.516 Q2202.28 159.057 2208.62 159.057 Q2211.1 159.057 2213.04 158.641 Q2214.98 158.201 2216.54 157.298 Z" fill="#000000" fill-rule="nonzero" fill-opacity="1" /><path clip-path="url(#clip190)" d="M2229.71 127.669 L2236.67 127.669 L2245.49 151.187 L2254.36 127.669 L2261.33 127.669 L2261.33 162.229 L2256.77 162.229 L2256.77 131.882 L2247.85 155.585 L2243.16 155.585 L2234.24 131.882 L2234.24 162.229 L2229.71 162.229 L2229.71 127.669 Z" fill="#000000" fill-rule="nonzero" fill-opacity="1" /></svg>
