<?xml version="1.0" encoding="utf-8"?>
<svg xmlns="http://www.w3.org/2000/svg" xmlns:xlink="http://www.w3.org/1999/xlink" width="600" height="400" viewBox="0 0 2400 1600">
<defs>
  <clipPath id="clip360">
    <rect x="0" y="0" width="2400" height="1600"/>
  </clipPath>
</defs>
<path clip-path="url(#clip360)" d="M0 1600 L2400 1600 L2400 0 L0 0  Z" fill="#ffffff" fill-rule="evenodd" fill-opacity="1"/>
<defs>
  <clipPath id="clip361">
    <rect x="252" y="47" width="2101" height="1338"/>
  </clipPath>
</defs>
<path clip-path="url(#clip360)" d="M252.415 1384.3 L2352.76 1384.3 L2352.76 47.2441 L252.415 47.2441  Z" fill="#ffffff" fill-rule="evenodd" fill-opacity="1"/>
<polyline clip-path="url(#clip361)" style="stroke:#000000; stroke-linecap:round; stroke-linejoin:round; stroke-width:2; stroke-opacity:0.1; fill:none" points="311.859,1384.3 311.859,47.2441 "/>
<polyline clip-path="url(#clip361)" style="stroke:#000000; stroke-linecap:round; stroke-linejoin:round; stroke-width:2; stroke-opacity:0.1; fill:none" points="1302.59,1384.3 1302.59,47.2441 "/>
<polyline clip-path="url(#clip361)" style="stroke:#000000; stroke-linecap:round; stroke-linejoin:round; stroke-width:2; stroke-opacity:0.1; fill:none" points="2293.31,1384.3 2293.31,47.2441 "/>
<polyline clip-path="url(#clip361)" style="stroke:#000000; stroke-linecap:round; stroke-linejoin:round; stroke-width:2; stroke-opacity:0.1; fill:none" points="252.415,1236.77 2352.76,1236.77 "/>
<polyline clip-path="url(#clip361)" style="stroke:#000000; stroke-linecap:round; stroke-linejoin:round; stroke-width:2; stroke-opacity:0.1; fill:none" points="252.415,1017.4 2352.76,1017.4 "/>
<polyline clip-path="url(#clip361)" style="stroke:#000000; stroke-linecap:round; stroke-linejoin:round; stroke-width:2; stroke-opacity:0.1; fill:none" points="252.415,798.035 2352.76,798.035 "/>
<polyline clip-path="url(#clip361)" style="stroke:#000000; stroke-linecap:round; stroke-linejoin:round; stroke-width:2; stroke-opacity:0.1; fill:none" points="252.415,578.666 2352.76,578.666 "/>
<polyline clip-path="url(#clip361)" style="stroke:#000000; stroke-linecap:round; stroke-linejoin:round; stroke-width:2; stroke-opacity:0.1; fill:none" points="252.415,359.297 2352.76,359.297 "/>
<polyline clip-path="url(#clip361)" style="stroke:#000000; stroke-linecap:round; stroke-linejoin:round; stroke-width:2; stroke-opacity:0.1; fill:none" points="252.415,139.928 2352.76,139.928 "/>
<polyline clip-path="url(#clip360)" style="stroke:#000000; stroke-linecap:round; stroke-linejoin:round; stroke-width:4; stroke-opacity:1; fill:none" points="252.415,1384.3 2352.76,1384.3 "/>
<polyline clip-path="url(#clip360)" style="stroke:#000000; stroke-linecap:round; stroke-linejoin:round; stroke-width:4; stroke-opacity:1; fill:none" points="311.859,1384.3 311.859,1365.4 "/>
<polyline clip-path="url(#clip360)" style="stroke:#000000; stroke-linecap:round; stroke-linejoin:round; stroke-width:4; stroke-opacity:1; fill:none" points="1302.59,1384.3 1302.59,1365.4 "/>
<polyline clip-path="url(#clip360)" style="stroke:#000000; stroke-linecap:round; stroke-linejoin:round; stroke-width:4; stroke-opacity:1; fill:none" points="2293.31,1384.3 2293.31,1365.4 "/>
<path clip-path="url(#clip360)" d="M311.859 1421.08 Q306.442 1421.08 303.699 1426.43 Q300.991 1431.74 300.991 1442.43 Q300.991 1453.09 303.699 1458.44 Q306.442 1463.75 311.859 1463.75 Q317.31 1463.75 320.019 1458.44 Q322.762 1453.09 322.762 1442.43 Q322.762 1431.74 320.019 1426.43 Q317.31 1421.08 311.859 1421.08 M311.859 1415.52 Q320.574 1415.52 325.157 1422.43 Q329.775 1429.31 329.775 1442.43 Q329.775 1455.52 325.157 1462.43 Q320.574 1469.31 311.859 1469.31 Q303.144 1469.31 298.526 1462.43 Q293.942 1455.52 293.942 1442.43 Q293.942 1429.31 298.526 1422.43 Q303.144 1415.52 311.859 1415.52 Z" fill="#000000" fill-rule="nonzero" fill-opacity="1" /><path clip-path="url(#clip360)" d="M1288.16 1462.4 L1299.62 1462.4 L1299.62 1422.85 L1287.15 1425.35 L1287.15 1418.96 L1299.55 1416.46 L1306.56 1416.46 L1306.56 1462.4 L1318.02 1462.4 L1318.02 1468.3 L1288.16 1468.3 L1288.16 1462.4 Z" fill="#000000" fill-rule="nonzero" fill-opacity="1" /><path clip-path="url(#clip360)" d="M2285.29 1462.4 L2309.77 1462.4 L2309.77 1468.3 L2276.85 1468.3 L2276.85 1462.4 Q2280.85 1458.27 2287.72 1451.32 Q2294.63 1444.34 2296.4 1442.33 Q2299.77 1438.54 2301.09 1435.94 Q2302.44 1433.3 2302.44 1430.77 Q2302.44 1426.63 2299.53 1424.03 Q2296.65 1421.43 2291.99 1421.43 Q2288.69 1421.43 2285.01 1422.57 Q2281.37 1423.72 2277.2 1426.04 L2277.2 1418.96 Q2281.44 1417.26 2285.12 1416.39 Q2288.8 1415.52 2291.85 1415.52 Q2299.91 1415.52 2304.7 1419.55 Q2309.49 1423.58 2309.49 1430.31 Q2309.49 1433.51 2308.28 1436.39 Q2307.1 1439.24 2303.94 1443.13 Q2303.07 1444.13 2298.42 1448.96 Q2293.76 1453.75 2285.29 1462.4 Z" fill="#000000" fill-rule="nonzero" fill-opacity="1" /><path clip-path="url(#clip360)" d="M1323.2 1523.92 Q1323.2 1526.55 1321.56 1528.04 Q1319.92 1529.5 1318.05 1529.5 Q1316.27 1529.5 1315.33 1528.47 Q1314.4 1527.44 1314.4 1526.12 Q1314.4 1524.34 1315.71 1522.8 Q1317.02 1521.25 1318.99 1520.92 Q1317.07 1519.71 1314.21 1519.71 Q1312.34 1519.71 1310.7 1520.69 Q1309.1 1521.67 1308.12 1522.94 Q1307.18 1524.2 1306.34 1526.03 Q1305.54 1527.81 1305.22 1528.89 Q1304.93 1529.92 1304.7 1531.04 L1301.42 1544.16 Q1299.83 1550.39 1299.83 1552.59 Q1299.83 1555.31 1301.14 1557.14 Q1302.45 1558.92 1305.07 1558.92 Q1306.11 1558.92 1307.28 1558.63 Q1308.45 1558.31 1309.95 1557.46 Q1311.49 1556.57 1312.85 1555.26 Q1314.26 1553.9 1315.61 1551.61 Q1316.97 1549.31 1317.86 1546.36 Q1318.14 1545.33 1319.08 1545.33 Q1320.25 1545.33 1320.25 1546.27 Q1320.25 1547.06 1319.6 1548.75 Q1318.99 1550.39 1317.63 1552.54 Q1316.32 1554.65 1314.58 1556.57 Q1312.85 1558.45 1310.27 1559.76 Q1307.7 1561.07 1304.89 1561.07 Q1300.86 1561.07 1298.19 1558.92 Q1295.52 1556.76 1294.53 1553.76 Q1294.3 1554.18 1293.97 1554.75 Q1293.64 1555.31 1292.66 1556.57 Q1291.72 1557.79 1290.65 1558.73 Q1289.57 1559.62 1287.88 1560.32 Q1286.24 1561.07 1284.46 1561.07 Q1282.21 1561.07 1280.2 1560.41 Q1278.23 1559.76 1276.83 1558.26 Q1275.42 1556.76 1275.42 1554.7 Q1275.42 1552.4 1276.97 1550.81 Q1278.56 1549.17 1280.72 1549.17 Q1282.07 1549.17 1283.15 1549.97 Q1284.28 1550.76 1284.28 1552.5 Q1284.28 1554.42 1282.96 1555.87 Q1281.65 1557.32 1279.78 1557.7 Q1281.7 1558.92 1284.56 1558.92 Q1287.65 1558.92 1290.08 1556.2 Q1292.52 1553.48 1293.69 1548.94 Q1296.6 1538.02 1297.72 1533.15 Q1298.84 1528.23 1298.84 1526.12 Q1298.84 1524.16 1298.33 1522.8 Q1297.81 1521.44 1296.92 1520.83 Q1296.08 1520.17 1295.28 1519.94 Q1294.53 1519.71 1293.69 1519.71 Q1292.29 1519.71 1290.69 1520.27 Q1289.15 1520.83 1287.27 1522.14 Q1285.45 1523.41 1283.71 1526.03 Q1281.98 1528.65 1280.81 1532.26 Q1280.57 1533.34 1279.54 1533.34 Q1278.42 1533.29 1278.42 1532.35 Q1278.42 1531.56 1279.03 1529.92 Q1279.68 1528.23 1281 1526.12 Q1282.35 1524.02 1284.09 1522.14 Q1285.87 1520.22 1288.44 1518.91 Q1291.07 1517.6 1293.88 1517.6 Q1295.14 1517.6 1296.36 1517.88 Q1297.63 1518.11 1299.13 1518.82 Q1300.67 1519.52 1302.03 1521.06 Q1303.39 1522.61 1304.23 1524.86 Q1304.79 1523.78 1305.54 1522.75 Q1306.34 1521.72 1307.56 1520.46 Q1308.82 1519.14 1310.56 1518.39 Q1312.34 1517.6 1314.3 1517.6 Q1316.22 1517.6 1318.1 1518.11 Q1319.97 1518.58 1321.56 1520.13 Q1323.2 1521.63 1323.2 1523.92 Z" fill="#000000" fill-rule="nonzero" fill-opacity="1" /><polyline clip-path="url(#clip360)" style="stroke:#000000; stroke-linecap:round; stroke-linejoin:round; stroke-width:4; stroke-opacity:1; fill:none" points="252.415,1384.3 252.415,47.2441 "/>
<polyline clip-path="url(#clip360)" style="stroke:#000000; stroke-linecap:round; stroke-linejoin:round; stroke-width:4; stroke-opacity:1; fill:none" points="252.415,1236.77 271.313,1236.77 "/>
<polyline clip-path="url(#clip360)" style="stroke:#000000; stroke-linecap:round; stroke-linejoin:round; stroke-width:4; stroke-opacity:1; fill:none" points="252.415,1017.4 271.313,1017.4 "/>
<polyline clip-path="url(#clip360)" style="stroke:#000000; stroke-linecap:round; stroke-linejoin:round; stroke-width:4; stroke-opacity:1; fill:none" points="252.415,798.035 271.313,798.035 "/>
<polyline clip-path="url(#clip360)" style="stroke:#000000; stroke-linecap:round; stroke-linejoin:round; stroke-width:4; stroke-opacity:1; fill:none" points="252.415,578.666 271.313,578.666 "/>
<polyline clip-path="url(#clip360)" style="stroke:#000000; stroke-linecap:round; stroke-linejoin:round; stroke-width:4; stroke-opacity:1; fill:none" points="252.415,359.297 271.313,359.297 "/>
<polyline clip-path="url(#clip360)" style="stroke:#000000; stroke-linecap:round; stroke-linejoin:round; stroke-width:4; stroke-opacity:1; fill:none" points="252.415,139.928 271.313,139.928 "/>
<path clip-path="url(#clip360)" d="M198.499 1215.47 Q193.082 1215.47 190.339 1220.82 Q187.631 1226.13 187.631 1236.83 Q187.631 1247.49 190.339 1252.83 Q193.082 1258.15 198.499 1258.15 Q203.95 1258.15 206.658 1252.83 Q209.401 1247.49 209.401 1236.83 Q209.401 1226.13 206.658 1220.82 Q203.95 1215.47 198.499 1215.47 M198.499 1209.92 Q207.214 1209.92 211.797 1216.83 Q216.415 1223.7 216.415 1236.83 Q216.415 1249.92 211.797 1256.83 Q207.214 1263.7 198.499 1263.7 Q189.783 1263.7 185.165 1256.83 Q180.582 1249.92 180.582 1236.83 Q180.582 1223.7 185.165 1216.83 Q189.783 1209.92 198.499 1209.92 Z" fill="#000000" fill-rule="nonzero" fill-opacity="1" /><path clip-path="url(#clip360)" d="M202.04 997.596 L184.332 1025.27 L202.04 1025.27 L202.04 997.596 M200.2 991.485 L209.019 991.485 L209.019 1025.27 L216.415 1025.27 L216.415 1031.1 L209.019 1031.1 L209.019 1043.32 L202.04 1043.32 L202.04 1031.1 L178.638 1031.1 L178.638 1024.33 L200.2 991.485 Z" fill="#000000" fill-rule="nonzero" fill-opacity="1" /><path clip-path="url(#clip360)" d="M198.638 799.338 Q193.638 799.338 190.756 802.011 Q187.908 804.685 187.908 809.372 Q187.908 814.06 190.756 816.733 Q193.638 819.407 198.638 819.407 Q203.638 819.407 206.52 816.733 Q209.401 814.025 209.401 809.372 Q209.401 804.685 206.52 802.011 Q203.672 799.338 198.638 799.338 M191.624 796.351 Q187.11 795.24 184.575 792.15 Q182.075 789.06 182.075 784.615 Q182.075 778.4 186.485 774.789 Q190.929 771.178 198.638 771.178 Q206.381 771.178 210.79 774.789 Q215.2 778.4 215.2 784.615 Q215.2 789.06 212.665 792.15 Q210.165 795.24 205.686 796.351 Q210.756 797.532 213.568 800.969 Q216.415 804.407 216.415 809.372 Q216.415 816.907 211.797 820.935 Q207.214 824.962 198.638 824.962 Q190.061 824.962 185.443 820.935 Q180.86 816.907 180.86 809.372 Q180.86 804.407 183.707 800.969 Q186.554 797.532 191.624 796.351 M189.054 785.275 Q189.054 789.303 191.554 791.56 Q194.089 793.817 198.638 793.817 Q203.151 793.817 205.686 791.56 Q208.256 789.303 208.256 785.275 Q208.256 781.247 205.686 778.99 Q203.151 776.733 198.638 776.733 Q194.089 776.733 191.554 778.99 Q189.054 781.247 189.054 785.275 Z" fill="#000000" fill-rule="nonzero" fill-opacity="1" /><path clip-path="url(#clip360)" d="M141.867 598.683 L153.325 598.683 L153.325 559.135 L140.86 561.635 L140.86 555.246 L153.256 552.746 L160.27 552.746 L160.27 598.683 L171.728 598.683 L171.728 604.586 L141.867 604.586 L141.867 598.683 Z" fill="#000000" fill-rule="nonzero" fill-opacity="1" /><path clip-path="url(#clip360)" d="M191.936 598.683 L216.415 598.683 L216.415 604.586 L183.499 604.586 L183.499 598.683 Q187.492 594.552 194.367 587.607 Q201.276 580.628 203.047 578.614 Q206.415 574.829 207.735 572.225 Q209.089 569.586 209.089 567.052 Q209.089 562.92 206.172 560.316 Q203.29 557.711 198.638 557.711 Q195.339 557.711 191.658 558.857 Q188.013 560.003 183.846 562.329 L183.846 555.246 Q188.082 553.545 191.763 552.677 Q195.443 551.809 198.499 551.809 Q206.554 551.809 211.346 555.836 Q216.138 559.864 216.138 566.6 Q216.138 569.795 214.922 572.677 Q213.742 575.524 210.582 579.413 Q209.714 580.42 205.061 585.246 Q200.408 590.038 191.936 598.683 Z" fill="#000000" fill-rule="nonzero" fill-opacity="1" /><path clip-path="url(#clip360)" d="M139.228 379.314 L150.686 379.314 L150.686 339.766 L138.221 342.266 L138.221 335.877 L150.617 333.377 L157.631 333.377 L157.631 379.314 L169.089 379.314 L169.089 385.217 L139.228 385.217 L139.228 379.314 Z" fill="#000000" fill-rule="nonzero" fill-opacity="1" /><path clip-path="url(#clip360)" d="M199.124 356.502 Q194.402 356.502 191.624 359.731 Q188.881 362.96 188.881 368.585 Q188.881 374.175 191.624 377.439 Q194.402 380.668 199.124 380.668 Q203.846 380.668 206.589 377.439 Q209.367 374.175 209.367 368.585 Q209.367 362.96 206.589 359.731 Q203.846 356.502 199.124 356.502 M213.047 334.523 L213.047 340.912 Q210.408 339.662 207.7 339.002 Q205.026 338.342 202.388 338.342 Q195.443 338.342 191.763 343.03 Q188.117 347.717 187.596 357.196 Q189.645 354.175 192.735 352.578 Q195.825 350.946 199.54 350.946 Q207.353 350.946 211.867 355.703 Q216.415 360.425 216.415 368.585 Q216.415 376.571 211.693 381.397 Q206.971 386.224 199.124 386.224 Q190.131 386.224 185.374 379.349 Q180.617 372.439 180.617 359.349 Q180.617 347.057 186.45 339.766 Q192.283 332.439 202.11 332.439 Q204.749 332.439 207.422 332.96 Q210.131 333.481 213.047 334.523 Z" fill="#000000" fill-rule="nonzero" fill-opacity="1" /><path clip-path="url(#clip360)" d="M144.298 159.945 L168.777 159.945 L168.777 165.848 L135.86 165.848 L135.86 159.945 Q139.853 155.813 146.728 148.869 Q153.638 141.889 155.409 139.876 Q158.777 136.091 160.096 133.487 Q161.45 130.848 161.45 128.313 Q161.45 124.181 158.534 121.577 Q155.652 118.973 150.999 118.973 Q147.7 118.973 144.02 120.119 Q140.374 121.265 136.207 123.591 L136.207 116.508 Q140.443 114.806 144.124 113.938 Q147.805 113.07 150.86 113.07 Q158.916 113.07 163.707 117.098 Q168.499 121.126 168.499 127.862 Q168.499 131.056 167.284 133.938 Q166.103 136.785 162.943 140.674 Q162.075 141.681 157.423 146.507 Q152.77 151.299 144.298 159.945 Z" fill="#000000" fill-rule="nonzero" fill-opacity="1" /><path clip-path="url(#clip360)" d="M198.499 118.626 Q193.082 118.626 190.339 123.973 Q187.631 129.285 187.631 139.98 Q187.631 150.639 190.339 155.987 Q193.082 161.299 198.499 161.299 Q203.95 161.299 206.658 155.987 Q209.401 150.639 209.401 139.98 Q209.401 129.285 206.658 123.973 Q203.95 118.626 198.499 118.626 M198.499 113.07 Q207.214 113.07 211.797 119.98 Q216.415 126.855 216.415 139.98 Q216.415 153.07 211.797 159.98 Q207.214 166.855 198.499 166.855 Q189.783 166.855 185.165 159.98 Q180.582 153.07 180.582 139.98 Q180.582 126.855 185.165 119.98 Q189.783 113.07 198.499 113.07 Z" fill="#000000" fill-rule="nonzero" fill-opacity="1" /><path clip-path="url(#clip360)" d="M30.8974 694.77 Q31.5533 694.77 33.0991 695.192 L69.7318 704.374 Q77.8829 706.388 83.5979 712.946 Q89.313 719.458 89.313 726.859 Q89.313 731.309 86.9239 734.167 Q84.5817 737.024 80.9746 737.024 Q77.7892 737.024 76.2433 735.338 Q74.7443 733.652 74.7443 731.637 Q74.7443 730.981 74.9316 730.279 Q75.119 729.576 75.9154 728.827 Q76.7117 728.077 78.0702 728.077 Q80.2719 728.077 82.0052 729.998 Q82.8016 730.935 82.989 731.825 Q83.1763 732.668 83.1763 734.12 Q84.488 733.558 85.378 732.527 Q86.2681 731.497 86.596 730.326 Q86.9708 729.154 87.0645 728.405 Q87.205 727.609 87.205 726.859 Q87.205 720.863 81.162 716.272 Q79.335 714.914 77.5081 713.93 Q75.728 712.899 73.5263 712.15 Q71.3714 711.4 70.2003 711.072 Q69.0292 710.698 66.359 710.042 Q70.7156 714.398 70.7156 719.739 Q70.7156 721.987 70.1066 724.002 Q69.4976 725.969 68.2328 727.702 Q66.9212 729.436 64.6258 730.466 Q62.3304 731.45 59.2854 731.45 Q56.0531 731.45 51.6497 730.185 Q47.2463 728.92 39.1421 725.875 Q34.5982 724.236 32.3965 724.236 Q31.319 724.236 30.6632 724.47 Q29.9605 724.704 29.7263 725.173 Q29.4452 725.641 29.3984 725.922 Q29.3516 726.156 29.3516 726.625 Q29.3516 729.389 32.1622 731.965 Q34.9729 734.542 41.2502 736.322 Q42.4213 736.696 42.7023 736.931 Q42.9834 737.165 42.9834 737.868 Q42.9366 739.039 41.9997 739.039 Q41.6249 739.039 40.1727 738.617 Q38.6737 738.196 36.472 737.212 Q34.2234 736.181 32.2091 734.776 Q30.1479 733.37 28.6957 731.169 Q27.2435 728.92 27.2435 726.344 Q27.2435 722.83 29.5389 720.676 Q31.7875 718.474 35.1135 718.474 Q36.472 718.474 37.6899 718.849 Q38.8611 719.176 41.9997 720.394 Q54.6478 725.313 60.8313 725.313 Q62.3304 725.313 63.5952 725.079 Q64.8131 724.798 66.0311 724.189 Q67.2022 723.58 67.9049 722.362 Q68.5607 721.097 68.5607 719.364 Q68.5607 717.162 67.5301 715.101 Q66.4527 712.993 65.0005 711.681 Q63.5483 710.323 62.3304 709.526 Q61.0655 708.683 60.4097 708.496 L43.1708 704.186 L35.4882 702.265 Q31.319 701.375 30.2885 700.954 Q29.3047 700.392 28.7894 699.408 Q28.2741 698.424 28.2741 697.581 Q28.2741 696.41 28.9768 695.614 Q29.6795 694.77 30.8974 694.77 Z" fill="#000000" fill-rule="nonzero" fill-opacity="1" /><circle clip-path="url(#clip361)" cx="370.604" cy="1190.4" r="21.6" fill="#000000" fill-rule="evenodd" fill-opacity="1" stroke="none"/>
<circle clip-path="url(#clip361)" cx="484.14" cy="1159.03" r="21.6" fill="#000000" fill-rule="evenodd" fill-opacity="1" stroke="none"/>
<circle clip-path="url(#clip361)" cx="543.667" cy="1243.43" r="21.6" fill="#000000" fill-rule="evenodd" fill-opacity="1" stroke="none"/>
<circle clip-path="url(#clip361)" cx="694.856" cy="1165.09" r="21.6" fill="#000000" fill-rule="evenodd" fill-opacity="1" stroke="none"/>
<circle clip-path="url(#clip361)" cx="1008.32" cy="1143.43" r="21.6" fill="#000000" fill-rule="evenodd" fill-opacity="1" stroke="none"/>
<circle clip-path="url(#clip361)" cx="1213.89" cy="1072.66" r="21.6" fill="#000000" fill-rule="evenodd" fill-opacity="1" stroke="none"/>
<circle clip-path="url(#clip361)" cx="1396.99" cy="1013.27" r="21.6" fill="#000000" fill-rule="evenodd" fill-opacity="1" stroke="none"/>
<circle clip-path="url(#clip361)" cx="1791.61" cy="867.675" r="21.6" fill="#000000" fill-rule="evenodd" fill-opacity="1" stroke="none"/>
<circle clip-path="url(#clip361)" cx="1791.89" cy="828.074" r="21.6" fill="#000000" fill-rule="evenodd" fill-opacity="1" stroke="none"/>
<circle clip-path="url(#clip361)" cx="1844.22" cy="803.503" r="21.6" fill="#000000" fill-rule="evenodd" fill-opacity="1" stroke="none"/>
<circle clip-path="url(#clip361)" cx="2175.58" cy="400.717" r="21.6" fill="#000000" fill-rule="evenodd" fill-opacity="1" stroke="none"/>
<circle clip-path="url(#clip361)" cx="2247.08" cy="323.825" r="21.6" fill="#000000" fill-rule="evenodd" fill-opacity="1" stroke="none"/>
<polyline clip-path="url(#clip361)" style="stroke:#0000ff; stroke-linecap:round; stroke-linejoin:round; stroke-width:8; stroke-opacity:1; fill:none" points="311.859,1209.35 315.822,1209.15 319.785,1208.96 323.748,1208.75 327.711,1208.55 331.673,1208.35 335.636,1208.14 339.599,1207.94 343.562,1207.73 347.525,1207.52 351.488,1207.31 355.451,1207.09 359.414,1206.88 363.377,1206.66 367.34,1206.44 371.302,1206.23 375.265,1206 379.228,1205.78 383.191,1205.56 387.154,1205.33 391.117,1205.11 395.08,1204.88 399.043,1204.65 403.006,1204.41 406.969,1204.18 410.932,1203.94 414.894,1203.71 418.857,1203.47 422.82,1203.23 426.783,1202.99 430.746,1202.74 434.709,1202.5 438.672,1202.25 442.635,1202 446.598,1201.75 450.561,1201.49 454.524,1201.24 458.486,1200.98 462.449,1200.72 466.412,1200.46 470.375,1200.2 474.338,1199.94 478.301,1199.67 482.264,1199.4 486.227,1199.13 490.19,1198.86 494.153,1198.59 498.116,1198.31 502.078,1198.03 506.041,1197.75 510.004,1197.47 513.967,1197.19 517.93,1196.9 521.893,1196.61 525.856,1196.32 529.819,1196.03 533.782,1195.74 537.745,1195.44 541.707,1195.14 545.67,1194.84 549.633,1194.54 553.596,1194.23 557.559,1193.92 561.522,1193.61 565.485,1193.3 569.448,1192.99 573.411,1192.67 577.374,1192.35 581.337,1192.03 585.299,1191.71 589.262,1191.38 593.225,1191.05 597.188,1190.72 601.151,1190.39 605.114,1190.06 609.077,1189.72 613.04,1189.38 617.003,1189.04 620.966,1188.69 624.929,1188.34 628.891,1187.99 632.854,1187.64 636.817,1187.29 640.78,1186.93 644.743,1186.57 648.706,1186.21 652.669,1185.84 656.632,1185.47 660.595,1185.1 664.558,1184.73 668.52,1184.35 672.483,1183.97 676.446,1183.59 680.409,1183.21 684.372,1182.82 688.335,1182.43 692.298,1182.04 696.261,1181.64 700.224,1181.24 704.187,1180.84 708.15,1180.44 712.112,1180.03 716.075,1179.62 720.038,1179.21 724.001,1178.79 727.964,1178.37 731.927,1177.95 735.89,1177.53 739.853,1177.1 743.816,1176.67 747.779,1176.23 751.742,1175.8 755.704,1175.36 759.667,1174.91 763.63,1174.46 767.593,1174.01 771.556,1173.56 775.519,1173.1 779.482,1172.64 783.445,1172.18 787.408,1171.71 791.371,1171.24 795.334,1170.77 799.296,1170.29 803.259,1169.81 807.222,1169.33 811.185,1168.84 815.148,1168.35 819.111,1167.86 823.074,1167.36 827.037,1166.86 831,1166.35 834.963,1165.84 838.925,1165.33 842.888,1164.81 846.851,1164.29 850.814,1163.77 854.777,1163.24 858.74,1162.71 862.703,1162.18 866.666,1161.64 870.629,1161.09 874.592,1160.55 878.555,1160 882.517,1159.44 886.48,1158.88 890.443,1158.32 894.406,1157.75 898.369,1157.18 902.332,1156.61 906.295,1156.03 910.258,1155.44 914.221,1154.86 918.184,1154.26 922.147,1153.67 926.109,1153.07 930.072,1152.46 934.035,1151.85 937.998,1151.24 941.961,1150.62 945.924,1150 949.887,1149.37 953.85,1148.74 957.813,1148.1 961.776,1147.46 965.739,1146.82 969.701,1146.17 973.664,1145.51 977.627,1144.85 981.59,1144.19 985.553,1143.52 989.516,1142.85 993.479,1142.17 997.442,1141.48 1001.4,1140.8 1005.37,1140.1 1009.33,1139.4 1013.29,1138.7 1017.26,1137.99 1021.22,1137.28 1025.18,1136.56 1029.15,1135.84 1033.11,1135.11 1037.07,1134.37 1041.03,1133.63 1045,1132.89 1048.96,1132.14 1052.92,1131.38 1056.89,1130.62 1060.85,1129.85 1064.81,1129.08 1068.77,1128.3 1072.74,1127.52 1076.7,1126.73 1080.66,1125.93 1084.63,1125.13 1088.59,1124.32 1092.55,1123.51 1096.51,1122.69 1100.48,1121.87 1104.44,1121.04 1108.4,1120.2 1112.37,1119.36 1116.33,1118.51 1120.29,1117.66 1124.25,1116.8 1128.22,1115.93 1132.18,1115.06 1136.14,1114.18 1140.11,1113.29 1144.07,1112.4 1148.03,1111.5 1152,1110.59 1155.96,1109.68 1159.92,1108.76 1163.88,1107.84 1167.85,1106.91 1171.81,1105.97 1175.77,1105.02 1179.74,1104.07 1183.7,1103.11 1187.66,1102.15 1191.62,1101.17 1195.59,1100.19 1199.55,1099.21 1203.51,1098.21 1207.48,1097.21 1211.44,1096.2 1215.4,1095.19 1219.36,1094.16 1223.33,1093.13 1227.29,1092.1 1231.25,1091.05 1235.22,1090 1239.18,1088.94 1243.14,1087.87 1247.1,1086.79 1251.07,1085.71 1255.03,1084.62 1258.99,1083.52 1262.96,1082.41 1266.92,1081.29 1270.88,1080.17 1274.85,1079.04 1278.81,1077.9 1282.77,1076.75 1286.73,1075.6 1290.7,1074.43 1294.66,1073.26 1298.62,1072.08 1302.59,1070.89 1306.55,1069.69 1310.51,1068.48 1314.47,1067.26 1318.44,1066.04 1322.4,1064.8 1326.36,1063.56 1330.33,1062.31 1334.29,1061.05 1338.25,1059.78 1342.21,1058.5 1346.18,1057.21 1350.14,1055.92 1354.1,1054.61 1358.07,1053.29 1362.03,1051.97 1365.99,1050.63 1369.96,1049.29 1373.92,1047.93 1377.88,1046.57 1381.84,1045.19 1385.81,1043.81 1389.77,1042.41 1393.73,1041.01 1397.7,1039.59 1401.66,1038.17 1405.62,1036.73 1409.58,1035.29 1413.55,1033.83 1417.51,1032.37 1421.47,1030.89 1425.44,1029.4 1429.4,1027.9 1433.36,1026.39 1437.32,1024.87 1441.29,1023.34 1445.25,1021.8 1449.21,1020.25 1453.18,1018.68 1457.14,1017.11 1461.1,1015.52 1465.06,1013.92 1469.03,1012.31 1472.99,1010.69 1476.95,1009.05 1480.92,1007.41 1484.88,1005.75 1488.84,1004.08 1492.81,1002.4 1496.77,1000.71 1500.73,999.001 1504.69,997.283 1508.66,995.553 1512.62,993.81 1516.58,992.054 1520.55,990.286 1524.51,988.504 1528.47,986.71 1532.43,984.904 1536.4,983.084 1540.36,981.25 1544.32,979.404 1548.29,977.544 1552.25,975.671 1556.21,973.784 1560.17,971.884 1564.14,969.97 1568.1,968.042 1572.06,966.1 1576.03,964.144 1579.99,962.174 1583.95,960.19 1587.91,958.191 1591.88,956.178 1595.84,954.151 1599.8,952.108 1603.77,950.051 1607.73,947.98 1611.69,945.893 1615.66,943.791 1619.62,941.674 1623.58,939.541 1627.54,937.394 1631.51,935.23 1635.47,933.051 1639.43,930.857 1643.4,928.646 1647.36,926.42 1651.32,924.177 1655.28,921.918 1659.25,919.643 1663.21,917.351 1667.17,915.043 1671.14,912.718 1675.1,910.377 1679.06,908.018 1683.02,905.643 1686.99,903.25 1690.95,900.84 1694.91,898.412 1698.88,895.967 1702.84,893.505 1706.8,891.024 1710.76,888.526 1714.73,886.01 1718.69,883.475 1722.65,880.922 1726.62,878.351 1730.58,875.761 1734.54,873.152 1738.51,870.524 1742.47,867.878 1746.43,865.212 1750.39,862.527 1754.36,859.823 1758.32,857.099 1762.28,854.356 1766.25,851.592 1770.21,848.809 1774.17,846.006 1778.13,843.182 1782.1,840.338 1786.06,837.473 1790.02,834.588 1793.99,831.682 1797.95,828.755 1801.91,825.806 1805.87,822.837 1809.84,819.845 1813.8,816.833 1817.76,813.798 1821.73,810.742 1825.69,807.663 1829.65,804.563 1833.62,801.439 1837.58,798.294 1841.54,795.125 1845.5,791.934 1849.47,788.719 1853.43,785.482 1857.39,782.221 1861.36,778.936 1865.32,775.628 1869.28,772.296 1873.24,768.939 1877.21,765.559 1881.17,762.154 1885.13,758.724 1889.1,755.27 1893.06,751.79 1897.02,748.286 1900.98,744.756 1904.95,741.201 1908.91,737.62 1912.87,734.013 1916.84,730.38 1920.8,726.721 1924.76,723.035 1928.72,719.323 1932.69,715.584 1936.65,711.818 1940.61,708.024 1944.58,704.204 1948.54,700.355 1952.5,696.479 1956.47,692.575 1960.43,688.643 1964.39,684.682 1968.35,680.692 1972.32,676.674 1976.28,672.627 1980.24,668.55 1984.21,664.444 1988.17,660.309 1992.13,656.143 1996.09,651.948 2000.06,647.722 2004.02,643.465 2007.98,639.178 2011.95,634.86 2015.91,630.51 2019.87,626.129 2023.83,621.717 2027.8,617.273 2031.76,612.796 2035.72,608.287 2039.69,603.746 2043.65,599.172 2047.61,594.564 2051.57,589.924 2055.54,585.25 2059.5,580.542 2063.46,575.8 2067.43,571.024 2071.39,566.213 2075.35,561.367 2079.32,556.487 2083.28,551.571 2087.24,546.62 2091.2,541.633 2095.17,536.61 2099.13,531.55 2103.09,526.454 2107.06,521.322 2111.02,516.152 2114.98,510.945 2118.94,505.7 2122.91,500.417 2126.87,495.096 2130.83,489.737 2134.8,484.339 2138.76,478.902 2142.72,473.425 2146.68,467.909 2150.65,462.354 2154.61,456.758 2158.57,451.121 2162.54,445.444 2166.5,439.726 2170.46,433.966 2174.43,428.165 2178.39,422.322 2182.35,416.437 2186.31,410.509 2190.28,404.539 2194.24,398.525 2198.2,392.468 2202.17,386.367 2206.13,380.222 2210.09,374.033 2214.05,367.798 2218.02,361.519 2221.98,355.195 2225.94,348.824 2229.91,342.408 2233.87,335.945 2237.83,329.436 2241.79,322.88 2245.76,316.276 2249.72,309.624 2253.68,302.925 2257.65,296.177 2261.61,289.38 2265.57,282.534 2269.53,275.639 2273.5,268.694 2277.46,261.698 2281.42,254.653 2285.39,247.556 2289.35,240.408 2293.31,233.208 "/>
<polyline clip-path="url(#clip361)" style="stroke:#3da44d; stroke-linecap:round; stroke-linejoin:round; stroke-width:8; stroke-opacity:1; fill:none" points="311.859,1339.38 315.822,1337.75 319.785,1336.12 323.748,1334.49 327.711,1332.86 331.673,1331.23 335.636,1329.6 339.599,1327.97 343.562,1326.34 347.525,1324.71 351.488,1323.08 355.451,1321.45 359.414,1319.82 363.377,1318.19 367.34,1316.56 371.302,1314.93 375.265,1313.3 379.228,1311.67 383.191,1310.04 387.154,1308.41 391.117,1306.78 395.08,1305.15 399.043,1303.52 403.006,1301.89 406.969,1300.26 410.932,1298.63 414.894,1297 418.857,1295.37 422.82,1293.74 426.783,1292.11 430.746,1290.48 434.709,1288.85 438.672,1287.22 442.635,1285.59 446.598,1283.96 450.561,1282.33 454.524,1280.7 458.486,1279.07 462.449,1277.44 466.412,1275.81 470.375,1274.19 474.338,1272.56 478.301,1270.93 482.264,1269.3 486.227,1267.67 490.19,1266.04 494.153,1264.41 498.116,1262.78 502.078,1261.15 506.041,1259.52 510.004,1257.89 513.967,1256.26 517.93,1254.63 521.893,1253 525.856,1251.37 529.819,1249.74 533.782,1248.11 537.745,1246.48 541.707,1244.85 545.67,1243.22 549.633,1241.59 553.596,1239.96 557.559,1238.33 561.522,1236.7 565.485,1235.07 569.448,1233.44 573.411,1231.81 577.374,1230.18 581.337,1228.55 585.299,1226.92 589.262,1225.29 593.225,1223.66 597.188,1222.03 601.151,1220.4 605.114,1218.77 609.077,1217.14 613.04,1215.51 617.003,1213.88 620.966,1212.25 624.929,1210.62 628.891,1208.99 632.854,1207.36 636.817,1205.73 640.78,1204.1 644.743,1202.47 648.706,1200.84 652.669,1199.21 656.632,1197.58 660.595,1195.95 664.558,1194.32 668.52,1192.69 672.483,1191.06 676.446,1189.43 680.409,1187.8 684.372,1186.17 688.335,1184.54 692.298,1182.91 696.261,1181.28 700.224,1179.66 704.187,1178.03 708.15,1176.4 712.112,1174.77 716.075,1173.14 720.038,1171.51 724.001,1169.88 727.964,1168.25 731.927,1166.62 735.89,1164.99 739.853,1163.36 743.816,1161.73 747.779,1160.1 751.742,1158.47 755.704,1156.84 759.667,1155.21 763.63,1153.58 767.593,1151.95 771.556,1150.32 775.519,1148.69 779.482,1147.06 783.445,1145.43 787.408,1143.8 791.371,1142.17 795.334,1140.54 799.296,1138.91 803.259,1137.28 807.222,1135.65 811.185,1134.02 815.148,1132.39 819.111,1130.76 823.074,1129.13 827.037,1127.5 831,1125.87 834.963,1124.24 838.925,1122.61 842.888,1120.98 846.851,1119.35 850.814,1117.72 854.777,1116.09 858.74,1114.46 862.703,1112.83 866.666,1111.2 870.629,1109.57 874.592,1107.94 878.555,1106.31 882.517,1104.68 886.48,1103.05 890.443,1101.42 894.406,1099.79 898.369,1098.16 902.332,1096.53 906.295,1094.9 910.258,1093.27 914.221,1091.64 918.184,1090.01 922.147,1088.38 926.109,1086.76 930.072,1085.13 934.035,1083.5 937.998,1081.87 941.961,1080.24 945.924,1078.61 949.887,1076.98 953.85,1075.35 957.813,1073.72 961.776,1072.09 965.739,1070.46 969.701,1068.83 973.664,1067.2 977.627,1065.57 981.59,1063.94 985.553,1062.31 989.516,1060.68 993.479,1059.05 997.442,1057.42 1001.4,1055.79 1005.37,1054.16 1009.33,1052.53 1013.29,1050.9 1017.26,1049.27 1021.22,1047.64 1025.18,1046.01 1029.15,1044.38 1033.11,1042.75 1037.07,1041.12 1041.03,1039.49 1045,1037.86 1048.96,1036.23 1052.92,1034.6 1056.89,1032.97 1060.85,1031.34 1064.81,1029.71 1068.77,1028.08 1072.74,1026.45 1076.7,1024.82 1080.66,1023.19 1084.63,1021.56 1088.59,1019.93 1092.55,1018.3 1096.51,1016.67 1100.48,1015.04 1104.44,1013.41 1108.4,1011.78 1112.37,1010.15 1116.33,1008.52 1120.29,1006.89 1124.25,1005.26 1128.22,1003.63 1132.18,1002 1136.14,1000.37 1140.11,998.745 1144.07,997.115 1148.03,995.485 1152,993.855 1155.96,992.225 1159.92,990.595 1163.88,988.966 1167.85,987.336 1171.81,985.706 1175.77,984.076 1179.74,982.446 1183.7,980.817 1187.66,979.187 1191.62,977.557 1195.59,975.927 1199.55,974.297 1203.51,972.667 1207.48,971.038 1211.44,969.408 1215.4,967.778 1219.36,966.148 1223.33,964.518 1227.29,962.888 1231.25,961.259 1235.22,959.629 1239.18,957.999 1243.14,956.369 1247.1,954.739 1251.07,953.109 1255.03,951.48 1258.99,949.85 1262.96,948.22 1266.92,946.59 1270.88,944.96 1274.85,943.331 1278.81,941.701 1282.77,940.071 1286.73,938.441 1290.7,936.811 1294.66,935.181 1298.62,933.552 1302.59,931.922 1306.55,930.292 1310.51,928.662 1314.47,927.032 1318.44,925.402 1322.4,923.773 1326.36,922.143 1330.33,920.513 1334.29,918.883 1338.25,917.253 1342.21,915.624 1346.18,913.994 1350.14,912.364 1354.1,910.734 1358.07,909.104 1362.03,907.474 1365.99,905.845 1369.96,904.215 1373.92,902.585 1377.88,900.955 1381.84,899.325 1385.81,897.695 1389.77,896.066 1393.73,894.436 1397.7,892.806 1401.66,891.176 1405.62,889.546 1409.58,887.916 1413.55,886.287 1417.51,884.657 1421.47,883.027 1425.44,881.397 1429.4,879.767 1433.36,878.138 1437.32,876.508 1441.29,874.878 1445.25,873.248 1449.21,871.618 1453.18,869.988 1457.14,868.359 1461.1,866.729 1465.06,865.099 1469.03,863.469 1472.99,861.839 1476.95,860.209 1480.92,858.58 1484.88,856.95 1488.84,855.32 1492.81,853.69 1496.77,852.06 1500.73,850.431 1504.69,848.801 1508.66,847.171 1512.62,845.541 1516.58,843.911 1520.55,842.281 1524.51,840.652 1528.47,839.022 1532.43,837.392 1536.4,835.762 1540.36,834.132 1544.32,832.502 1548.29,830.873 1552.25,829.243 1556.21,827.613 1560.17,825.983 1564.14,824.353 1568.1,822.723 1572.06,821.094 1576.03,819.464 1579.99,817.834 1583.95,816.204 1587.91,814.574 1591.88,812.945 1595.84,811.315 1599.8,809.685 1603.77,808.055 1607.73,806.425 1611.69,804.795 1615.66,803.166 1619.62,801.536 1623.58,799.906 1627.54,798.276 1631.51,796.646 1635.47,795.016 1639.43,793.387 1643.4,791.757 1647.36,790.127 1651.32,788.497 1655.28,786.867 1659.25,785.238 1663.21,783.608 1667.17,781.978 1671.14,780.348 1675.1,778.718 1679.06,777.088 1683.02,775.459 1686.99,773.829 1690.95,772.199 1694.91,770.569 1698.88,768.939 1702.84,767.309 1706.8,765.68 1710.76,764.05 1714.73,762.42 1718.69,760.79 1722.65,759.16 1726.62,757.53 1730.58,755.901 1734.54,754.271 1738.51,752.641 1742.47,751.011 1746.43,749.381 1750.39,747.752 1754.36,746.122 1758.32,744.492 1762.28,742.862 1766.25,741.232 1770.21,739.602 1774.17,737.973 1778.13,736.343 1782.1,734.713 1786.06,733.083 1790.02,731.453 1793.99,729.823 1797.95,728.194 1801.91,726.564 1805.87,724.934 1809.84,723.304 1813.8,721.674 1817.76,720.045 1821.73,718.415 1825.69,716.785 1829.65,715.155 1833.62,713.525 1837.58,711.895 1841.54,710.266 1845.5,708.636 1849.47,707.006 1853.43,705.376 1857.39,703.746 1861.36,702.116 1865.32,700.487 1869.28,698.857 1873.24,697.227 1877.21,695.597 1881.17,693.967 1885.13,692.337 1889.1,690.708 1893.06,689.078 1897.02,687.448 1900.98,685.818 1904.95,684.188 1908.91,682.559 1912.87,680.929 1916.84,679.299 1920.8,677.669 1924.76,676.039 1928.72,674.409 1932.69,672.78 1936.65,671.15 1940.61,669.52 1944.58,667.89 1948.54,666.26 1952.5,664.63 1956.47,663.001 1960.43,661.371 1964.39,659.741 1968.35,658.111 1972.32,656.481 1976.28,654.852 1980.24,653.222 1984.21,651.592 1988.17,649.962 1992.13,648.332 1996.09,646.702 2000.06,645.073 2004.02,643.443 2007.98,641.813 2011.95,640.183 2015.91,638.553 2019.87,636.923 2023.83,635.294 2027.8,633.664 2031.76,632.034 2035.72,630.404 2039.69,628.774 2043.65,627.144 2047.61,625.515 2051.57,623.885 2055.54,622.255 2059.5,620.625 2063.46,618.995 2067.43,617.366 2071.39,615.736 2075.35,614.106 2079.32,612.476 2083.28,610.846 2087.24,609.216 2091.2,607.587 2095.17,605.957 2099.13,604.327 2103.09,602.697 2107.06,601.067 2111.02,599.437 2114.98,597.808 2118.94,596.178 2122.91,594.548 2126.87,592.918 2130.83,591.288 2134.8,589.659 2138.76,588.029 2142.72,586.399 2146.68,584.769 2150.65,583.139 2154.61,581.509 2158.57,579.88 2162.54,578.25 2166.5,576.62 2170.46,574.99 2174.43,573.36 2178.39,571.73 2182.35,570.101 2186.31,568.471 2190.28,566.841 2194.24,565.211 2198.2,563.581 2202.17,561.951 2206.13,560.322 2210.09,558.692 2214.05,557.062 2218.02,555.432 2221.98,553.802 2225.94,552.173 2229.91,550.543 2233.87,548.913 2237.83,547.283 2241.79,545.653 2245.76,544.023 2249.72,542.394 2253.68,540.764 2257.65,539.134 2261.61,537.504 2265.57,535.874 2269.53,534.244 2273.5,532.615 2277.46,530.985 2281.42,529.355 2285.39,527.725 2289.35,526.095 2293.31,524.466 "/>
<polyline clip-path="url(#clip361)" style="stroke:#c271d2; stroke-linecap:round; stroke-linejoin:round; stroke-width:8; stroke-opacity:1; fill:none" points="311.859,1222.38 315.822,1221.44 319.785,1220.51 323.748,1219.59 327.711,1218.68 331.673,1217.77 335.636,1216.88 339.599,1216 343.562,1215.12 347.525,1214.26 351.488,1213.4 355.451,1212.56 359.414,1211.72 363.377,1210.89 367.34,1210.07 371.302,1209.26 375.265,1208.45 379.228,1207.66 383.191,1206.87 387.154,1206.09 391.117,1205.32 395.08,1204.56 399.043,1203.81 403.006,1203.06 406.969,1202.32 410.932,1201.59 414.894,1200.87 418.857,1200.15 422.82,1199.44 426.783,1198.74 430.746,1198.05 434.709,1197.36 438.672,1196.68 442.635,1196.01 446.598,1195.34 450.561,1194.69 454.524,1194.03 458.486,1193.39 462.449,1192.75 466.412,1192.12 470.375,1191.49 474.338,1190.88 478.301,1190.26 482.264,1189.66 486.227,1189.06 490.19,1188.46 494.153,1187.88 498.116,1187.29 502.078,1186.72 506.041,1186.15 510.004,1185.58 513.967,1185.02 517.93,1184.47 521.893,1183.92 525.856,1183.38 529.819,1182.84 533.782,1182.31 537.745,1181.78 541.707,1181.26 545.67,1180.74 549.633,1180.23 553.596,1179.72 557.559,1179.22 561.522,1178.72 565.485,1178.23 569.448,1177.74 573.411,1177.25 577.374,1176.77 581.337,1176.3 585.299,1175.82 589.262,1175.36 593.225,1174.89 597.188,1174.43 601.151,1173.97 605.114,1173.52 609.077,1173.07 613.04,1172.63 617.003,1172.18 620.966,1171.74 624.929,1171.31 628.891,1170.88 632.854,1170.45 636.817,1170.02 640.78,1169.6 644.743,1169.17 648.706,1168.76 652.669,1168.34 656.632,1167.93 660.595,1167.52 664.558,1167.11 668.52,1166.71 672.483,1166.3 676.446,1165.9 680.409,1165.5 684.372,1165.11 688.335,1164.71 692.298,1164.32 696.261,1163.93 700.224,1163.54 704.187,1163.15 708.15,1162.76 712.112,1162.38 716.075,1162 720.038,1161.61 724.001,1161.23 727.964,1160.85 731.927,1160.48 735.89,1160.1 739.853,1159.72 743.816,1159.35 747.779,1158.97 751.742,1158.6 755.704,1158.22 759.667,1157.85 763.63,1157.48 767.593,1157.1 771.556,1156.73 775.519,1156.36 779.482,1155.98 783.445,1155.61 787.408,1155.24 791.371,1154.87 795.334,1154.49 799.296,1154.12 803.259,1153.75 807.222,1153.37 811.185,1153 815.148,1152.62 819.111,1152.25 823.074,1151.87 827.037,1151.49 831,1151.11 834.963,1150.73 838.925,1150.35 842.888,1149.97 846.851,1149.58 850.814,1149.2 854.777,1148.81 858.74,1148.42 862.703,1148.03 866.666,1147.64 870.629,1147.25 874.592,1146.85 878.555,1146.46 882.517,1146.06 886.48,1145.65 890.443,1145.25 894.406,1144.84 898.369,1144.44 902.332,1144.02 906.295,1143.61 910.258,1143.19 914.221,1142.77 918.184,1142.35 922.147,1141.93 926.109,1141.5 930.072,1141.07 934.035,1140.63 937.998,1140.2 941.961,1139.76 945.924,1139.31 949.887,1138.86 953.85,1138.41 957.813,1137.96 961.776,1137.5 965.739,1137.04 969.701,1136.57 973.664,1136.1 977.627,1135.63 981.59,1135.15 985.553,1134.67 989.516,1134.18 993.479,1133.69 997.442,1133.19 1001.4,1132.69 1005.37,1132.19 1009.33,1131.68 1013.29,1131.16 1017.26,1130.64 1021.22,1130.12 1025.18,1129.59 1029.15,1129.05 1033.11,1128.51 1037.07,1127.97 1041.03,1127.42 1045,1126.86 1048.96,1126.3 1052.92,1125.73 1056.89,1125.16 1060.85,1124.58 1064.81,1124 1068.77,1123.41 1072.74,1122.81 1076.7,1122.21 1080.66,1121.6 1084.63,1120.99 1088.59,1120.36 1092.55,1119.74 1096.51,1119.1 1100.48,1118.46 1104.44,1117.81 1108.4,1117.16 1112.37,1116.5 1116.33,1115.83 1120.29,1115.15 1124.25,1114.47 1128.22,1113.78 1132.18,1113.08 1136.14,1112.38 1140.11,1111.67 1144.07,1110.95 1148.03,1110.22 1152,1109.49 1155.96,1108.75 1159.92,1108 1163.88,1107.24 1167.85,1106.47 1171.81,1105.7 1175.77,1104.92 1179.74,1104.12 1183.7,1103.33 1187.66,1102.52 1191.62,1101.7 1195.59,1100.88 1199.55,1100.04 1203.51,1099.2 1207.48,1098.35 1211.44,1097.49 1215.4,1096.62 1219.36,1095.75 1223.33,1094.86 1227.29,1093.96 1231.25,1093.06 1235.22,1092.14 1239.18,1091.22 1243.14,1090.28 1247.1,1089.34 1251.07,1088.39 1255.03,1087.42 1258.99,1086.45 1262.96,1085.47 1266.92,1084.47 1270.88,1083.47 1274.85,1082.46 1278.81,1081.43 1282.77,1080.4 1286.73,1079.35 1290.7,1078.3 1294.66,1077.23 1298.62,1076.15 1302.59,1075.07 1306.55,1073.97 1310.51,1072.86 1314.47,1071.74 1318.44,1070.61 1322.4,1069.46 1326.36,1068.31 1330.33,1067.14 1334.29,1065.96 1338.25,1064.78 1342.21,1063.58 1346.18,1062.36 1350.14,1061.14 1354.1,1059.9 1358.07,1058.66 1362.03,1057.4 1365.99,1056.12 1369.96,1054.84 1373.92,1053.54 1377.88,1052.23 1381.84,1050.91 1385.81,1049.58 1389.77,1048.23 1393.73,1046.87 1397.7,1045.5 1401.66,1044.12 1405.62,1042.72 1409.58,1041.31 1413.55,1039.88 1417.51,1038.44 1421.47,1036.99 1425.44,1035.53 1429.4,1034.05 1433.36,1032.56 1437.32,1031.06 1441.29,1029.54 1445.25,1028.01 1449.21,1026.46 1453.18,1024.9 1457.14,1023.33 1461.1,1021.74 1465.06,1020.14 1469.03,1018.52 1472.99,1016.89 1476.95,1015.24 1480.92,1013.58 1484.88,1011.91 1488.84,1010.22 1492.81,1008.51 1496.77,1006.8 1500.73,1005.06 1504.69,1003.31 1508.66,1001.55 1512.62,999.769 1516.58,997.975 1520.55,996.165 1524.51,994.34 1528.47,992.499 1532.43,990.642 1536.4,988.77 1540.36,986.882 1544.32,984.979 1548.29,983.059 1552.25,981.123 1556.21,979.172 1560.17,977.204 1564.14,975.219 1568.1,973.219 1572.06,971.202 1576.03,969.168 1579.99,967.118 1583.95,965.052 1587.91,962.968 1591.88,960.868 1595.84,958.75 1599.8,956.616 1603.77,954.465 1607.73,952.296 1611.69,950.111 1615.66,947.907 1619.62,945.687 1623.58,943.449 1627.54,941.193 1631.51,938.92 1635.47,936.629 1639.43,934.32 1643.4,931.993 1647.36,929.648 1651.32,927.286 1655.28,924.905 1659.25,922.505 1663.21,920.088 1667.17,917.652 1671.14,915.197 1675.1,912.724 1679.06,910.233 1683.02,907.722 1686.99,905.193 1690.95,902.645 1694.91,900.078 1698.88,897.491 1702.84,894.886 1706.8,892.261 1710.76,889.618 1714.73,886.954 1718.69,884.271 1722.65,881.569 1726.62,878.847 1730.58,876.105 1734.54,873.344 1738.51,870.562 1742.47,867.761 1746.43,864.94 1750.39,862.098 1754.36,859.236 1758.32,856.354 1762.28,853.452 1766.25,850.529 1770.21,847.585 1774.17,844.621 1778.13,841.636 1782.1,838.631 1786.06,835.604 1790.02,832.557 1793.99,829.488 1797.95,826.398 1801.91,823.287 1805.87,820.155 1809.84,817.002 1813.8,813.827 1817.76,810.63 1821.73,807.412 1825.69,804.172 1829.65,800.91 1833.62,797.627 1837.58,794.321 1841.54,790.994 1845.5,787.644 1849.47,784.272 1853.43,780.878 1857.39,777.462 1861.36,774.023 1865.32,770.561 1869.28,767.077 1873.24,763.57 1877.21,760.041 1881.17,756.489 1885.13,752.913 1889.1,749.315 1893.06,745.693 1897.02,742.049 1900.98,738.381 1904.95,734.689 1908.91,730.975 1912.87,727.236 1916.84,723.475 1920.8,719.689 1924.76,715.88 1928.72,712.046 1932.69,708.189 1936.65,704.308 1940.61,700.403 1944.58,696.474 1948.54,692.52 1952.5,688.542 1956.47,684.54 1960.43,680.513 1964.39,676.461 1968.35,672.385 1972.32,668.284 1976.28,664.158 1980.24,660.008 1984.21,655.832 1988.17,651.631 1992.13,647.405 1996.09,643.154 2000.06,638.877 2004.02,634.575 2007.98,630.248 2011.95,625.895 2015.91,621.516 2019.87,617.112 2023.83,612.681 2027.8,608.225 2031.76,603.743 2035.72,599.235 2039.69,594.7 2043.65,590.14 2047.61,585.553 2051.57,580.939 2055.54,576.299 2059.5,571.633 2063.46,566.94 2067.43,562.22 2071.39,557.473 2075.35,552.7 2079.32,547.899 2083.28,543.072 2087.24,538.217 2091.2,533.335 2095.17,528.426 2099.13,523.489 2103.09,518.525 2107.06,513.533 2111.02,508.514 2114.98,503.467 2118.94,498.392 2122.91,493.289 2126.87,488.158 2130.83,482.999 2134.8,477.812 2138.76,472.597 2142.72,467.354 2146.68,462.082 2150.65,456.781 2154.61,451.453 2158.57,446.095 2162.54,440.709 2166.5,435.294 2170.46,429.85 2174.43,424.377 2178.39,418.875 2182.35,413.344 2186.31,407.784 2190.28,402.194 2194.24,396.575 2198.2,390.927 2202.17,385.249 2206.13,379.542 2210.09,373.804 2214.05,368.037 2218.02,362.24 2221.98,356.414 2225.94,350.557 2229.91,344.67 2233.87,338.753 2237.83,332.805 2241.79,326.827 2245.76,320.819 2249.72,314.78 2253.68,308.711 2257.65,302.611 2261.61,296.48 2265.57,290.318 2269.53,284.125 2273.5,277.902 2277.46,271.647 2281.42,265.361 2285.39,259.043 2289.35,252.695 2293.31,246.315 "/>
<polyline clip-path="url(#clip361)" style="stroke:#ac8d18; stroke-linecap:round; stroke-linejoin:round; stroke-width:8; stroke-opacity:1; fill:none" points="311.859,1476.38 315.822,1443.36 319.785,1412.79 323.748,1384.54 327.711,1358.49 331.673,1334.52 335.636,1312.52 339.599,1292.38 343.562,1274 347.525,1257.27 351.488,1242.11 355.451,1228.42 359.414,1216.11 363.377,1205.09 367.34,1195.29 371.302,1186.63 375.265,1179.03 379.228,1172.42 383.191,1166.74 387.154,1161.91 391.117,1157.89 395.08,1154.6 399.043,1151.99 403.006,1150.01 406.969,1148.61 410.932,1147.74 414.894,1147.35 418.857,1147.39 422.82,1147.83 426.783,1148.63 430.746,1149.75 434.709,1151.15 438.672,1152.8 442.635,1154.68 446.598,1156.74 450.561,1158.96 454.524,1161.32 458.486,1163.79 462.449,1166.34 466.412,1168.96 470.375,1171.63 474.338,1174.33 478.301,1177.03 482.264,1179.73 486.227,1182.4 490.19,1185.04 494.153,1187.64 498.116,1190.17 502.078,1192.64 506.041,1195.02 510.004,1197.32 513.967,1199.52 517.93,1201.62 521.893,1203.61 525.856,1205.49 529.819,1207.24 533.782,1208.88 537.745,1210.39 541.707,1211.77 545.67,1213.03 549.633,1214.15 553.596,1215.14 557.559,1215.99 561.522,1216.72 565.485,1217.31 569.448,1217.77 573.411,1218.1 577.374,1218.3 581.337,1218.38 585.299,1218.33 589.262,1218.16 593.225,1217.87 597.188,1217.47 601.151,1216.95 605.114,1216.33 609.077,1215.59 613.04,1214.76 617.003,1213.83 620.966,1212.81 624.929,1211.69 628.891,1210.49 632.854,1209.21 636.817,1207.86 640.78,1206.43 644.743,1204.93 648.706,1203.37 652.669,1201.75 656.632,1200.08 660.595,1198.36 664.558,1196.59 668.52,1194.78 672.483,1192.93 676.446,1191.06 680.409,1189.15 684.372,1187.22 688.335,1185.27 692.298,1183.31 696.261,1181.33 700.224,1179.35 704.187,1177.36 708.15,1175.37 712.112,1173.38 716.075,1171.41 720.038,1169.44 724.001,1167.48 727.964,1165.55 731.927,1163.63 735.89,1161.73 739.853,1159.86 743.816,1158.02 747.779,1156.21 751.742,1154.43 755.704,1152.68 759.667,1150.98 763.63,1149.31 767.593,1147.68 771.556,1146.09 775.519,1144.55 779.482,1143.06 783.445,1141.61 787.408,1140.21 791.371,1138.86 795.334,1137.55 799.296,1136.3 803.259,1135.1 807.222,1133.96 811.185,1132.86 815.148,1131.82 819.111,1130.83 823.074,1129.89 827.037,1129.01 831,1128.18 834.963,1127.4 838.925,1126.68 842.888,1126 846.851,1125.38 850.814,1124.81 854.777,1124.29 858.74,1123.81 862.703,1123.39 866.666,1123.01 870.629,1122.68 874.592,1122.39 878.555,1122.15 882.517,1121.94 886.48,1121.78 890.443,1121.66 894.406,1121.58 898.369,1121.53 902.332,1121.52 906.295,1121.54 910.258,1121.6 914.221,1121.68 918.184,1121.79 922.147,1121.93 926.109,1122.09 930.072,1122.28 934.035,1122.48 937.998,1122.71 941.961,1122.95 945.924,1123.2 949.887,1123.47 953.85,1123.75 957.813,1124.04 961.776,1124.34 965.739,1124.64 969.701,1124.95 973.664,1125.25 977.627,1125.56 981.59,1125.86 985.553,1126.16 989.516,1126.46 993.479,1126.74 997.442,1127.02 1001.4,1127.28 1005.37,1127.53 1009.33,1127.76 1013.29,1127.98 1017.26,1128.18 1021.22,1128.35 1025.18,1128.51 1029.15,1128.64 1033.11,1128.75 1037.07,1128.83 1041.03,1128.88 1045,1128.9 1048.96,1128.89 1052.92,1128.85 1056.89,1128.78 1060.85,1128.67 1064.81,1128.53 1068.77,1128.35 1072.74,1128.13 1076.7,1127.87 1080.66,1127.58 1084.63,1127.24 1088.59,1126.86 1092.55,1126.45 1096.51,1125.98 1100.48,1125.48 1104.44,1124.93 1108.4,1124.34 1112.37,1123.71 1116.33,1123.03 1120.29,1122.3 1124.25,1121.53 1128.22,1120.72 1132.18,1119.86 1136.14,1118.95 1140.11,1118 1144.07,1117 1148.03,1115.96 1152,1114.88 1155.96,1113.75 1159.92,1112.57 1163.88,1111.36 1167.85,1110.09 1171.81,1108.79 1175.77,1107.45 1179.74,1106.06 1183.7,1104.63 1187.66,1103.17 1191.62,1101.66 1195.59,1100.12 1199.55,1098.54 1203.51,1096.92 1207.48,1095.27 1211.44,1093.58 1215.4,1091.86 1219.36,1090.11 1223.33,1088.32 1227.29,1086.51 1231.25,1084.67 1235.22,1082.8 1239.18,1080.91 1243.14,1078.99 1247.1,1077.05 1251.07,1075.08 1255.03,1073.1 1258.99,1071.09 1262.96,1069.07 1266.92,1067.04 1270.88,1064.98 1274.85,1062.92 1278.81,1060.84 1282.77,1058.76 1286.73,1056.66 1290.7,1054.56 1294.66,1052.45 1298.62,1050.34 1302.59,1048.23 1306.55,1046.12 1310.51,1044 1314.47,1041.89 1318.44,1039.78 1322.4,1037.68 1326.36,1035.59 1330.33,1033.5 1334.29,1031.42 1338.25,1029.35 1342.21,1027.3 1346.18,1025.26 1350.14,1023.23 1354.1,1021.22 1358.07,1019.23 1362.03,1017.26 1365.99,1015.31 1369.96,1013.38 1373.92,1011.47 1377.88,1009.59 1381.84,1007.73 1385.81,1005.89 1389.77,1004.09 1393.73,1002.31 1397.7,1000.56 1401.66,998.833 1405.62,997.141 1409.58,995.48 1413.55,993.85 1417.51,992.253 1421.47,990.687 1425.44,989.155 1429.4,987.656 1433.36,986.191 1437.32,984.759 1441.29,983.362 1445.25,982 1449.21,980.672 1453.18,979.378 1457.14,978.119 1461.1,976.894 1465.06,975.703 1469.03,974.546 1472.99,973.423 1476.95,972.333 1480.92,971.275 1484.88,970.25 1488.84,969.256 1492.81,968.293 1496.77,967.36 1500.73,966.456 1504.69,965.58 1508.66,964.732 1512.62,963.91 1516.58,963.114 1520.55,962.341 1524.51,961.592 1528.47,960.863 1532.43,960.155 1536.4,959.466 1540.36,958.793 1544.32,958.136 1548.29,957.493 1552.25,956.862 1556.21,956.242 1560.17,955.63 1564.14,955.025 1568.1,954.424 1572.06,953.826 1576.03,953.23 1579.99,952.631 1583.95,952.029 1587.91,951.422 1591.88,950.806 1595.84,950.18 1599.8,949.542 1603.77,948.889 1607.73,948.218 1611.69,947.528 1615.66,946.815 1619.62,946.078 1623.58,945.314 1627.54,944.52 1631.51,943.694 1635.47,942.833 1639.43,941.935 1643.4,940.997 1647.36,940.017 1651.32,938.991 1655.28,937.918 1659.25,936.795 1663.21,935.619 1667.17,934.387 1671.14,933.098 1675.1,931.748 1679.06,930.335 1683.02,928.858 1686.99,927.312 1690.95,925.696 1694.91,924.008 1698.88,922.244 1702.84,920.404 1706.8,918.484 1710.76,916.483 1714.73,914.398 1718.69,912.227 1722.65,909.968 1726.62,907.62 1730.58,905.181 1734.54,902.648 1738.51,900.02 1742.47,897.296 1746.43,894.474 1750.39,891.552 1754.36,888.53 1758.32,885.406 1762.28,882.178 1766.25,878.847 1770.21,875.41 1774.17,871.868 1778.13,868.219 1782.1,864.464 1786.06,860.601 1790.02,856.631 1793.99,852.553 1797.95,848.367 1801.91,844.073 1805.87,839.673 1809.84,835.165 1813.8,830.551 1817.76,825.831 1821.73,821.007 1825.69,816.079 1829.65,811.049 1833.62,805.917 1837.58,800.686 1841.54,795.357 1845.5,789.931 1849.47,784.412 1853.43,778.801 1857.39,773.099 1861.36,767.311 1865.32,761.438 1869.28,755.484 1873.24,749.451 1877.21,743.342 1881.17,737.162 1885.13,730.912 1889.1,724.598 1893.06,718.222 1897.02,711.789 1900.98,705.303 1904.95,698.768 1908.91,692.189 1912.87,685.57 1916.84,678.916 1920.8,672.231 1924.76,665.522 1928.72,658.792 1932.69,652.047 1936.65,645.293 1940.61,638.535 1944.58,631.779 1948.54,625.029 1952.5,618.293 1956.47,611.576 1960.43,604.883 1964.39,598.222 1968.35,591.597 1972.32,585.015 1976.28,578.482 1980.24,572.004 1984.21,565.587 1988.17,559.238 1992.13,552.962 1996.09,546.766 2000.06,540.655 2004.02,534.636 2007.98,528.715 2011.95,522.896 2015.91,517.187 2019.87,511.591 2023.83,506.116 2027.8,500.765 2031.76,495.544 2035.72,490.459 2039.69,485.512 2043.65,480.709 2047.61,476.053 2051.57,471.548 2055.54,467.198 2059.5,463.005 2063.46,458.973 2067.43,455.102 2071.39,451.396 2075.35,447.854 2079.32,444.478 2083.28,441.268 2087.24,438.223 2091.2,435.343 2095.17,432.625 2099.13,430.067 2103.09,427.666 2107.06,425.418 2111.02,423.318 2114.98,421.36 2118.94,419.539 2122.91,417.846 2126.87,416.273 2130.83,414.811 2134.8,413.448 2138.76,412.173 2142.72,410.974 2146.68,409.835 2150.65,408.742 2154.61,407.677 2158.57,406.622 2162.54,405.557 2166.5,404.462 2170.46,403.312 2174.43,402.084 2178.39,400.751 2182.35,399.285 2186.31,397.657 2190.28,395.833 2194.24,393.78 2198.2,391.462 2202.17,388.841 2206.13,385.876 2210.09,382.524 2214.05,378.741 2218.02,374.479 2221.98,369.686 2225.94,364.312 2229.91,358.298 2233.87,351.588 2237.83,344.12 2241.79,335.829 2245.76,326.647 2249.72,316.505 2253.68,305.326 2257.65,293.034 2261.61,279.548 2265.57,264.782 2269.53,248.648 2273.5,231.054 2277.46,211.903 2281.42,191.094 2285.39,168.522 2289.35,144.078 2293.31,117.648 "/>
<path clip-path="url(#clip360)" d="M322.427 636.133 L1445.98 636.133 L1445.98 91.8126 L322.427 91.8126  Z" fill="#ffffff" fill-rule="evenodd" fill-opacity="1"/>
<polyline clip-path="url(#clip360)" style="stroke:#000000; stroke-linecap:round; stroke-linejoin:round; stroke-width:4; stroke-opacity:1; fill:none" points="322.427,636.133 1445.98,636.133 1445.98,91.8126 322.427,91.8126 322.427,636.133 "/>
<circle clip-path="url(#clip360)" cx="415.775" cy="182.533" r="37.2185" fill="#000000" fill-rule="evenodd" fill-opacity="1" stroke="none"/>
<path clip-path="url(#clip360)" d="M533.348 216.986 Q530.188 225.087 527.191 227.558 Q524.193 230.029 519.17 230.029 L513.215 230.029 L513.215 223.791 L517.59 223.791 Q520.669 223.791 522.37 222.333 Q524.071 220.874 526.137 215.446 L527.474 212.043 L509.124 167.402 L517.023 167.402 L531.201 202.888 L545.379 167.402 L553.278 167.402 L533.348 216.986 Z" fill="#000000" fill-rule="nonzero" fill-opacity="1" /><path clip-path="url(#clip360)" d="M607.844 149.822 Q602.416 159.139 599.783 168.253 Q597.15 177.368 597.15 186.725 Q597.15 196.083 599.783 205.278 Q602.456 214.433 607.844 223.71 L601.363 223.71 Q595.286 214.19 592.248 204.995 Q589.25 195.799 589.25 186.725 Q589.25 177.692 592.248 168.537 Q595.246 159.382 601.363 149.822 L607.844 149.822 Z" fill="#000000" fill-rule="nonzero" fill-opacity="1" /><path clip-path="url(#clip360)" d="M660.02 185.389 L660.02 212.773 L652.566 212.773 L652.566 185.632 Q652.566 179.191 650.055 175.99 Q647.543 172.79 642.52 172.79 Q636.484 172.79 633 176.639 Q629.516 180.487 629.516 187.13 L629.516 212.773 L622.022 212.773 L622.022 167.402 L629.516 167.402 L629.516 174.451 Q632.19 170.36 635.795 168.334 Q639.441 166.309 644.181 166.309 Q651.999 166.309 656.009 171.17 Q660.02 175.99 660.02 185.389 Z" fill="#000000" fill-rule="nonzero" fill-opacity="1" /><path clip-path="url(#clip360)" d="M692.468 172.628 Q686.472 172.628 682.988 177.327 Q679.505 181.986 679.505 190.128 Q679.505 198.27 682.948 202.969 Q686.432 207.628 692.468 207.628 Q698.422 207.628 701.906 202.929 Q705.39 198.23 705.39 190.128 Q705.39 182.067 701.906 177.368 Q698.422 172.628 692.468 172.628 M692.468 166.309 Q702.19 166.309 707.739 172.628 Q713.289 178.948 713.289 190.128 Q713.289 201.268 707.739 207.628 Q702.19 213.947 692.468 213.947 Q682.705 213.947 677.155 207.628 Q671.646 201.268 671.646 190.128 Q671.646 178.948 677.155 172.628 Q682.705 166.309 692.468 166.309 Z" fill="#000000" fill-rule="nonzero" fill-opacity="1" /><path clip-path="url(#clip360)" d="M725.644 167.402 L733.098 167.402 L733.098 212.773 L725.644 212.773 L725.644 167.402 M725.644 149.741 L733.098 149.741 L733.098 159.179 L725.644 159.179 L725.644 149.741 Z" fill="#000000" fill-rule="nonzero" fill-opacity="1" /><path clip-path="url(#clip360)" d="M777.618 168.739 L777.618 175.788 Q774.458 174.168 771.055 173.357 Q767.652 172.547 764.006 172.547 Q758.457 172.547 755.662 174.249 Q752.907 175.95 752.907 179.353 Q752.907 181.945 754.892 183.444 Q756.877 184.902 762.872 186.239 L765.424 186.806 Q773.364 188.508 776.686 191.627 Q780.048 194.706 780.048 200.255 Q780.048 206.575 775.025 210.261 Q770.042 213.947 761.292 213.947 Q757.647 213.947 753.677 213.218 Q749.747 212.53 745.372 211.112 L745.372 203.415 Q749.504 205.562 753.515 206.656 Q757.525 207.709 761.454 207.709 Q766.721 207.709 769.556 205.927 Q772.392 204.104 772.392 200.822 Q772.392 197.784 770.326 196.164 Q768.3 194.544 761.373 193.045 L758.781 192.437 Q751.854 190.979 748.775 187.981 Q745.696 184.943 745.696 179.677 Q745.696 173.276 750.233 169.793 Q754.77 166.309 763.115 166.309 Q767.247 166.309 770.893 166.916 Q774.539 167.524 777.618 168.739 Z" fill="#000000" fill-rule="nonzero" fill-opacity="1" /><path clip-path="url(#clip360)" d="M810.794 216.986 Q807.635 225.087 804.637 227.558 Q801.639 230.029 796.616 230.029 L790.661 230.029 L790.661 223.791 L795.036 223.791 Q798.115 223.791 799.816 222.333 Q801.518 220.874 803.584 215.446 L804.921 212.043 L786.57 167.402 L794.469 167.402 L808.647 202.888 L822.826 167.402 L830.725 167.402 L810.794 216.986 Z" fill="#000000" fill-rule="nonzero" fill-opacity="1" /><path clip-path="url(#clip360)" d="M897.241 174.289 L897.241 149.741 L904.694 149.741 L904.694 212.773 L897.241 212.773 L897.241 205.967 Q894.891 210.018 891.286 212.003 Q887.721 213.947 882.698 213.947 Q874.475 213.947 869.289 207.385 Q864.145 200.822 864.145 190.128 Q864.145 179.434 869.289 172.871 Q874.475 166.309 882.698 166.309 Q887.721 166.309 891.286 168.294 Q894.891 170.238 897.241 174.289 M871.842 190.128 Q871.842 198.351 875.204 203.05 Q878.607 207.709 884.521 207.709 Q890.435 207.709 893.838 203.05 Q897.241 198.351 897.241 190.128 Q897.241 181.905 893.838 177.246 Q890.435 172.547 884.521 172.547 Q878.607 172.547 875.204 177.246 Q871.842 181.905 871.842 190.128 Z" fill="#000000" fill-rule="nonzero" fill-opacity="1" /><path clip-path="url(#clip360)" d="M940.666 189.966 Q931.633 189.966 928.149 192.032 Q924.665 194.098 924.665 199.081 Q924.665 203.05 927.258 205.4 Q929.891 207.709 934.388 207.709 Q940.585 207.709 944.312 203.334 Q948.08 198.919 948.08 191.627 L948.08 189.966 L940.666 189.966 M955.533 186.887 L955.533 212.773 L948.08 212.773 L948.08 205.886 Q945.527 210.018 941.72 212.003 Q937.912 213.947 932.403 213.947 Q925.435 213.947 921.303 210.059 Q917.212 206.129 917.212 199.567 Q917.212 191.91 922.316 188.022 Q927.46 184.133 937.628 184.133 L948.08 184.133 L948.08 183.404 Q948.08 178.259 944.677 175.464 Q941.315 172.628 935.198 172.628 Q931.309 172.628 927.622 173.56 Q923.936 174.492 920.533 176.355 L920.533 169.468 Q924.625 167.889 928.473 167.119 Q932.322 166.309 935.967 166.309 Q945.811 166.309 950.672 171.413 Q955.533 176.517 955.533 186.887 Z" fill="#000000" fill-rule="nonzero" fill-opacity="1" /><path clip-path="url(#clip360)" d="M978.259 154.521 L978.259 167.402 L993.612 167.402 L993.612 173.195 L978.259 173.195 L978.259 197.825 Q978.259 203.375 979.758 204.954 Q981.297 206.534 985.956 206.534 L993.612 206.534 L993.612 212.773 L985.956 212.773 Q977.327 212.773 974.046 209.572 Q970.765 206.332 970.765 197.825 L970.765 173.195 L965.296 173.195 L965.296 167.402 L970.765 167.402 L970.765 154.521 L978.259 154.521 Z" fill="#000000" fill-rule="nonzero" fill-opacity="1" /><path clip-path="url(#clip360)" d="M1024.03 189.966 Q1015 189.966 1011.52 192.032 Q1008.03 194.098 1008.03 199.081 Q1008.03 203.05 1010.63 205.4 Q1013.26 207.709 1017.76 207.709 Q1023.95 207.709 1027.68 203.334 Q1031.45 198.919 1031.45 191.627 L1031.45 189.966 L1024.03 189.966 M1038.9 186.887 L1038.9 212.773 L1031.45 212.773 L1031.45 205.886 Q1028.9 210.018 1025.09 212.003 Q1021.28 213.947 1015.77 213.947 Q1008.8 213.947 1004.67 210.059 Q1000.58 206.129 1000.58 199.567 Q1000.58 191.91 1005.68 188.022 Q1010.83 184.133 1021 184.133 L1031.45 184.133 L1031.45 183.404 Q1031.45 178.259 1028.04 175.464 Q1024.68 172.628 1018.57 172.628 Q1014.68 172.628 1010.99 173.56 Q1007.3 174.492 1003.9 176.355 L1003.9 169.468 Q1007.99 167.889 1011.84 167.119 Q1015.69 166.309 1019.33 166.309 Q1029.18 166.309 1034.04 171.413 Q1038.9 176.517 1038.9 186.887 Z" fill="#000000" fill-rule="nonzero" fill-opacity="1" /><path clip-path="url(#clip360)" d="M1053.08 149.822 L1059.56 149.822 Q1065.64 159.382 1068.63 168.537 Q1071.67 177.692 1071.67 186.725 Q1071.67 195.799 1068.63 204.995 Q1065.64 214.19 1059.56 223.71 L1053.08 223.71 Q1058.47 214.433 1061.1 205.278 Q1063.77 196.083 1063.77 186.725 Q1063.77 177.368 1061.1 168.253 Q1058.47 159.139 1053.08 149.822 Z" fill="#000000" fill-rule="nonzero" fill-opacity="1" /><path clip-path="url(#clip360)" d="M1088.52 202.483 L1097.07 202.483 L1097.07 209.451 L1090.43 222.414 L1085.2 222.414 L1088.52 209.451 L1088.52 202.483 Z" fill="#000000" fill-rule="nonzero" fill-opacity="1" /><path clip-path="url(#clip360)" d="M1139.69 152.293 L1151.88 152.293 L1167.31 193.45 L1182.83 152.293 L1195.02 152.293 L1195.02 212.773 L1187.04 212.773 L1187.04 159.665 L1171.45 201.147 L1163.22 201.147 L1147.63 159.665 L1147.63 212.773 L1139.69 212.773 L1139.69 152.293 Z" fill="#000000" fill-rule="nonzero" fill-opacity="1" /><path clip-path="url(#clip360)" d="M1238.29 175.099 L1290.22 175.099 L1290.22 181.905 L1238.29 181.905 L1238.29 175.099 M1238.29 191.627 L1290.22 191.627 L1290.22 198.513 L1238.29 198.513 L1238.29 191.627 Z" fill="#000000" fill-rule="nonzero" fill-opacity="1" /><path clip-path="url(#clip360)" d="M1335.67 205.886 L1349.04 205.886 L1349.04 159.746 L1334.5 162.663 L1334.5 155.209 L1348.96 152.293 L1357.14 152.293 L1357.14 205.886 L1370.51 205.886 L1370.51 212.773 L1335.67 212.773 L1335.67 205.886 Z" fill="#000000" fill-rule="nonzero" fill-opacity="1" /><path clip-path="url(#clip360)" d="M1394.08 205.886 L1422.64 205.886 L1422.64 212.773 L1384.24 212.773 L1384.24 205.886 Q1388.9 201.066 1396.92 192.964 Q1404.98 184.821 1407.05 182.472 Q1410.98 178.056 1412.52 175.018 Q1414.1 171.94 1414.1 168.982 Q1414.1 164.162 1410.69 161.124 Q1407.33 158.085 1401.9 158.085 Q1398.05 158.085 1393.76 159.422 Q1389.51 160.759 1384.65 163.473 L1384.65 155.209 Q1389.59 153.224 1393.88 152.212 Q1398.18 151.199 1401.74 151.199 Q1411.14 151.199 1416.73 155.898 Q1422.32 160.597 1422.32 168.456 Q1422.32 172.183 1420.9 175.545 Q1419.52 178.867 1415.84 183.404 Q1414.82 184.578 1409.4 190.209 Q1403.97 195.799 1394.08 205.886 Z" fill="#000000" fill-rule="nonzero" fill-opacity="1" /><polyline clip-path="url(#clip360)" style="stroke:#0000ff; stroke-linecap:round; stroke-linejoin:round; stroke-width:14; stroke-opacity:1; fill:none" points="345.764,273.253 485.786,273.253 "/>
<path clip-path="url(#clip360)" d="M538.007 240.461 L538.007 246.658 L530.877 246.658 Q526.867 246.658 525.287 248.279 Q523.747 249.899 523.747 254.112 L523.747 258.122 L536.022 258.122 L536.022 263.915 L523.747 263.915 L523.747 303.493 L516.253 303.493 L516.253 263.915 L509.124 263.915 L509.124 258.122 L516.253 258.122 L516.253 254.963 Q516.253 247.388 519.777 243.944 Q523.302 240.461 530.958 240.461 L538.007 240.461 Z" fill="#000000" fill-rule="nonzero" fill-opacity="1" /><path clip-path="url(#clip360)" d="M562.15 240.542 Q556.722 249.859 554.089 258.973 Q551.456 268.088 551.456 277.445 Q551.456 286.803 554.089 295.998 Q556.762 305.153 562.15 314.43 L555.668 314.43 Q549.592 304.91 546.554 295.715 Q543.556 286.519 543.556 277.445 Q543.556 268.412 546.554 259.257 Q549.552 250.102 555.668 240.542 L562.15 240.542 Z" fill="#000000" fill-rule="nonzero" fill-opacity="1" /><path clip-path="url(#clip360)" d="M614.326 258.122 L597.919 280.2 L615.176 303.493 L606.386 303.493 L593.18 285.669 L579.974 303.493 L571.183 303.493 L588.805 279.754 L572.682 258.122 L581.473 258.122 L593.504 274.286 L605.535 258.122 L614.326 258.122 Z" fill="#000000" fill-rule="nonzero" fill-opacity="1" /><path clip-path="url(#clip360)" d="M624.534 240.542 L631.015 240.542 Q637.092 250.102 640.089 259.257 Q643.127 268.412 643.127 277.445 Q643.127 286.519 640.089 295.715 Q637.092 304.91 631.015 314.43 L624.534 314.43 Q629.922 305.153 632.555 295.998 Q635.228 286.803 635.228 277.445 Q635.228 268.088 632.555 258.973 Q629.922 249.859 624.534 240.542 Z" fill="#000000" fill-rule="nonzero" fill-opacity="1" /><path clip-path="url(#clip360)" d="M686.351 293.203 L694.898 293.203 L694.898 303.493 L686.351 303.493 L686.351 293.203 M686.351 260.594 L694.898 260.594 L694.898 270.883 L686.351 270.883 L686.351 260.594 Z" fill="#000000" fill-rule="nonzero" fill-opacity="1" /><path clip-path="url(#clip360)" d="M738.769 240.461 L746.223 240.461 L746.223 303.493 L738.769 303.493 L738.769 240.461 Z" fill="#000000" fill-rule="nonzero" fill-opacity="1" /><path clip-path="url(#clip360)" d="M782.438 280.686 Q773.405 280.686 769.921 282.752 Q766.437 284.818 766.437 289.801 Q766.437 293.77 769.03 296.12 Q771.663 298.429 776.159 298.429 Q782.357 298.429 786.084 294.054 Q789.851 289.639 789.851 282.347 L789.851 280.686 L782.438 280.686 M797.305 277.607 L797.305 303.493 L789.851 303.493 L789.851 296.606 Q787.299 300.738 783.491 302.723 Q779.683 304.667 774.174 304.667 Q767.207 304.667 763.075 300.779 Q758.983 296.849 758.983 290.287 Q758.983 282.63 764.087 278.742 Q769.232 274.853 779.4 274.853 L789.851 274.853 L789.851 274.124 Q789.851 268.979 786.448 266.184 Q783.086 263.348 776.969 263.348 Q773.08 263.348 769.394 264.28 Q765.708 265.212 762.305 267.075 L762.305 260.188 Q766.397 258.609 770.245 257.839 Q774.093 257.029 777.739 257.029 Q787.583 257.029 792.444 262.133 Q797.305 267.237 797.305 277.607 Z" fill="#000000" fill-rule="nonzero" fill-opacity="1" /><path clip-path="url(#clip360)" d="M820.03 245.241 L820.03 258.122 L835.383 258.122 L835.383 263.915 L820.03 263.915 L820.03 288.545 Q820.03 294.095 821.529 295.674 Q823.069 297.254 827.727 297.254 L835.383 297.254 L835.383 303.493 L827.727 303.493 Q819.099 303.493 815.818 300.292 Q812.536 297.052 812.536 288.545 L812.536 263.915 L807.068 263.915 L807.068 258.122 L812.536 258.122 L812.536 245.241 L820.03 245.241 Z" fill="#000000" fill-rule="nonzero" fill-opacity="1" /><path clip-path="url(#clip360)" d="M883.994 278.944 L883.994 282.59 L849.724 282.59 Q850.21 290.287 854.342 294.338 Q858.514 298.348 865.927 298.348 Q870.221 298.348 874.232 297.295 Q878.282 296.242 882.252 294.135 L882.252 301.184 Q878.242 302.885 874.029 303.776 Q869.816 304.667 865.482 304.667 Q854.625 304.667 848.265 298.348 Q841.946 292.029 841.946 281.253 Q841.946 270.113 847.941 263.591 Q853.977 257.029 864.185 257.029 Q873.34 257.029 878.647 262.943 Q883.994 268.817 883.994 278.944 M876.541 276.757 Q876.46 270.64 873.097 266.994 Q869.776 263.348 864.266 263.348 Q858.028 263.348 854.261 266.872 Q850.534 270.397 849.967 276.797 L876.541 276.757 Z" fill="#000000" fill-rule="nonzero" fill-opacity="1" /><path clip-path="url(#clip360)" d="M933.942 276.109 L933.942 303.493 L926.488 303.493 L926.488 276.352 Q926.488 269.911 923.977 266.71 Q921.465 263.51 916.442 263.51 Q910.406 263.51 906.922 267.359 Q903.439 271.207 903.439 277.85 L903.439 303.493 L895.944 303.493 L895.944 258.122 L903.439 258.122 L903.439 265.171 Q906.112 261.08 909.717 259.054 Q913.363 257.029 918.103 257.029 Q925.921 257.029 929.932 261.89 Q933.942 266.71 933.942 276.109 Z" fill="#000000" fill-rule="nonzero" fill-opacity="1" /><path clip-path="url(#clip360)" d="M956.181 245.241 L956.181 258.122 L971.534 258.122 L971.534 263.915 L956.181 263.915 L956.181 288.545 Q956.181 294.095 957.68 295.674 Q959.22 297.254 963.878 297.254 L971.534 297.254 L971.534 303.493 L963.878 303.493 Q955.25 303.493 951.968 300.292 Q948.687 297.052 948.687 288.545 L948.687 263.915 L943.218 263.915 L943.218 258.122 L948.687 258.122 L948.687 245.241 L956.181 245.241 Z" fill="#000000" fill-rule="nonzero" fill-opacity="1" /><path clip-path="url(#clip360)" d="M1030.68 240.461 L1030.68 246.658 L1023.55 246.658 Q1019.54 246.658 1017.96 248.279 Q1016.42 249.899 1016.42 254.112 L1016.42 258.122 L1028.69 258.122 L1028.69 263.915 L1016.42 263.915 L1016.42 303.493 L1008.92 303.493 L1008.92 263.915 L1001.79 263.915 L1001.79 258.122 L1008.92 258.122 L1008.92 254.963 Q1008.92 247.388 1012.45 243.944 Q1015.97 240.461 1023.63 240.461 L1030.68 240.461 Z" fill="#000000" fill-rule="nonzero" fill-opacity="1" /><path clip-path="url(#clip360)" d="M1036.15 285.588 L1036.15 258.122 L1043.6 258.122 L1043.6 285.304 Q1043.6 291.745 1046.11 294.986 Q1048.62 298.186 1053.65 298.186 Q1059.68 298.186 1063.17 294.338 Q1066.69 290.489 1066.69 283.846 L1066.69 258.122 L1074.14 258.122 L1074.14 303.493 L1066.69 303.493 L1066.69 296.525 Q1063.98 300.657 1060.37 302.682 Q1056.81 304.667 1052.07 304.667 Q1044.25 304.667 1040.2 299.806 Q1036.15 294.945 1036.15 285.588 M1054.9 257.029 L1054.9 257.029 Z" fill="#000000" fill-rule="nonzero" fill-opacity="1" /><path clip-path="url(#clip360)" d="M1127.21 276.109 L1127.21 303.493 L1119.76 303.493 L1119.76 276.352 Q1119.76 269.911 1117.25 266.71 Q1114.73 263.51 1109.71 263.51 Q1103.67 263.51 1100.19 267.359 Q1096.71 271.207 1096.71 277.85 L1096.71 303.493 L1089.21 303.493 L1089.21 258.122 L1096.71 258.122 L1096.71 265.171 Q1099.38 261.08 1102.99 259.054 Q1106.63 257.029 1111.37 257.029 Q1119.19 257.029 1123.2 261.89 Q1127.21 266.71 1127.21 276.109 Z" fill="#000000" fill-rule="nonzero" fill-opacity="1" /><path clip-path="url(#clip360)" d="M1174.73 259.864 L1174.73 266.832 Q1171.57 265.09 1168.37 264.239 Q1165.21 263.348 1161.97 263.348 Q1154.72 263.348 1150.71 267.966 Q1146.7 272.544 1146.7 280.848 Q1146.7 289.152 1150.71 293.77 Q1154.72 298.348 1161.97 298.348 Q1165.21 298.348 1168.37 297.497 Q1171.57 296.606 1174.73 294.864 L1174.73 301.751 Q1171.61 303.209 1168.25 303.938 Q1164.92 304.667 1161.16 304.667 Q1150.91 304.667 1144.87 298.226 Q1138.84 291.786 1138.84 280.848 Q1138.84 269.749 1144.91 263.389 Q1151.03 257.029 1161.64 257.029 Q1165.09 257.029 1168.37 257.758 Q1171.65 258.447 1174.73 259.864 Z" fill="#000000" fill-rule="nonzero" fill-opacity="1" /><path clip-path="url(#clip360)" d="M1195.06 245.241 L1195.06 258.122 L1210.42 258.122 L1210.42 263.915 L1195.06 263.915 L1195.06 288.545 Q1195.06 294.095 1196.56 295.674 Q1198.1 297.254 1202.76 297.254 L1210.42 297.254 L1210.42 303.493 L1202.76 303.493 Q1194.13 303.493 1190.85 300.292 Q1187.57 297.052 1187.57 288.545 L1187.57 263.915 L1182.1 263.915 L1182.1 258.122 L1187.57 258.122 L1187.57 245.241 L1195.06 245.241 Z" fill="#000000" fill-rule="nonzero" fill-opacity="1" /><path clip-path="url(#clip360)" d="M1220.22 258.122 L1227.67 258.122 L1227.67 303.493 L1220.22 303.493 L1220.22 258.122 M1220.22 240.461 L1227.67 240.461 L1227.67 249.899 L1220.22 249.899 L1220.22 240.461 Z" fill="#000000" fill-rule="nonzero" fill-opacity="1" /><path clip-path="url(#clip360)" d="M1260.85 263.348 Q1254.85 263.348 1251.37 268.047 Q1247.89 272.706 1247.89 280.848 Q1247.89 288.99 1251.33 293.689 Q1254.81 298.348 1260.85 298.348 Q1266.8 298.348 1270.29 293.649 Q1273.77 288.95 1273.77 280.848 Q1273.77 272.787 1270.29 268.088 Q1266.8 263.348 1260.85 263.348 M1260.85 257.029 Q1270.57 257.029 1276.12 263.348 Q1281.67 269.668 1281.67 280.848 Q1281.67 291.988 1276.12 298.348 Q1270.57 304.667 1260.85 304.667 Q1251.09 304.667 1245.54 298.348 Q1240.03 291.988 1240.03 280.848 Q1240.03 269.668 1245.54 263.348 Q1251.09 257.029 1260.85 257.029 Z" fill="#000000" fill-rule="nonzero" fill-opacity="1" /><path clip-path="url(#clip360)" d="M1331.74 276.109 L1331.74 303.493 L1324.29 303.493 L1324.29 276.352 Q1324.29 269.911 1321.78 266.71 Q1319.26 263.51 1314.24 263.51 Q1308.2 263.51 1304.72 267.359 Q1301.24 271.207 1301.24 277.85 L1301.24 303.493 L1293.74 303.493 L1293.74 258.122 L1301.24 258.122 L1301.24 265.171 Q1303.91 261.08 1307.52 259.054 Q1311.16 257.029 1315.9 257.029 Q1323.72 257.029 1327.73 261.89 Q1331.74 266.71 1331.74 276.109 Z" fill="#000000" fill-rule="nonzero" fill-opacity="1" /><polyline clip-path="url(#clip360)" style="stroke:#3da44d; stroke-linecap:round; stroke-linejoin:round; stroke-width:14; stroke-opacity:1; fill:none" points="345.764,363.973 485.786,363.973 "/>
<path clip-path="url(#clip360)" d="M542.219 355.729 L542.219 331.181 L549.673 331.181 L549.673 394.213 L542.219 394.213 L542.219 387.407 Q539.87 391.458 536.265 393.443 Q532.7 395.387 527.677 395.387 Q519.453 395.387 514.268 388.825 Q509.124 382.262 509.124 371.568 Q509.124 360.874 514.268 354.311 Q519.453 347.749 527.677 347.749 Q532.7 347.749 536.265 349.734 Q539.87 351.678 542.219 355.729 M516.82 371.568 Q516.82 379.791 520.183 384.49 Q523.585 389.149 529.5 389.149 Q535.414 389.149 538.817 384.49 Q542.219 379.791 542.219 371.568 Q542.219 363.345 538.817 358.686 Q535.414 353.987 529.5 353.987 Q523.585 353.987 520.183 358.686 Q516.82 363.345 516.82 371.568 Z" fill="#000000" fill-rule="nonzero" fill-opacity="1" /><path clip-path="url(#clip360)" d="M603.834 369.664 L603.834 373.31 L569.563 373.31 Q570.049 381.007 574.181 385.058 Q578.354 389.068 585.767 389.068 Q590.061 389.068 594.071 388.015 Q598.122 386.962 602.092 384.855 L602.092 391.904 Q598.081 393.605 593.868 394.496 Q589.656 395.387 585.321 395.387 Q574.465 395.387 568.105 389.068 Q561.785 382.749 561.785 371.973 Q561.785 360.833 567.781 354.311 Q573.817 347.749 584.025 347.749 Q593.18 347.749 598.487 353.663 Q603.834 359.537 603.834 369.664 M596.38 367.477 Q596.299 361.36 592.937 357.714 Q589.615 354.068 584.106 354.068 Q577.867 354.068 574.1 357.592 Q570.373 361.117 569.806 367.517 L596.38 367.477 Z" fill="#000000" fill-rule="nonzero" fill-opacity="1" /><path clip-path="url(#clip360)" d="M645.923 371.001 Q645.923 362.899 642.56 358.443 Q639.239 353.987 633.203 353.987 Q627.207 353.987 623.845 358.443 Q620.523 362.899 620.523 371.001 Q620.523 379.062 623.845 383.518 Q627.207 387.974 633.203 387.974 Q639.239 387.974 642.56 383.518 Q645.923 379.062 645.923 371.001 M653.376 388.582 Q653.376 400.167 648.232 405.798 Q643.087 411.469 632.474 411.469 Q628.544 411.469 625.06 410.862 Q621.577 410.295 618.295 409.079 L618.295 401.828 Q621.577 403.611 624.777 404.461 Q627.977 405.312 631.299 405.312 Q638.631 405.312 642.277 401.464 Q645.923 397.656 645.923 389.919 L645.923 386.232 Q643.614 390.243 640.008 392.228 Q636.403 394.213 631.38 394.213 Q623.035 394.213 617.931 387.853 Q612.827 381.493 612.827 371.001 Q612.827 360.469 617.931 354.109 Q623.035 347.749 631.38 347.749 Q636.403 347.749 640.008 349.734 Q643.614 351.719 645.923 355.729 L645.923 348.842 L653.376 348.842 L653.376 388.582 Z" fill="#000000" fill-rule="nonzero" fill-opacity="1" /><path clip-path="url(#clip360)" d="M695.02 355.81 Q693.764 355.081 692.265 354.757 Q690.807 354.392 689.024 354.392 Q682.705 354.392 679.302 358.524 Q675.94 362.616 675.94 370.312 L675.94 394.213 L668.446 394.213 L668.446 348.842 L675.94 348.842 L675.94 355.891 Q678.289 351.759 682.057 349.774 Q685.824 347.749 691.212 347.749 Q691.981 347.749 692.913 347.87 Q693.845 347.951 694.979 348.154 L695.02 355.81 Z" fill="#000000" fill-rule="nonzero" fill-opacity="1" /><path clip-path="url(#clip360)" d="M739.823 369.664 L739.823 373.31 L705.552 373.31 Q706.038 381.007 710.17 385.058 Q714.342 389.068 721.756 389.068 Q726.05 389.068 730.06 388.015 Q734.111 386.962 738.081 384.855 L738.081 391.904 Q734.07 393.605 729.857 394.496 Q725.644 395.387 721.31 395.387 Q710.454 395.387 704.094 389.068 Q697.774 382.749 697.774 371.973 Q697.774 360.833 703.77 354.311 Q709.805 347.749 720.014 347.749 Q729.169 347.749 734.475 353.663 Q739.823 359.537 739.823 369.664 M732.369 367.477 Q732.288 361.36 728.926 357.714 Q725.604 354.068 720.095 354.068 Q713.856 354.068 710.089 357.592 Q706.362 361.117 705.795 367.517 L732.369 367.477 Z" fill="#000000" fill-rule="nonzero" fill-opacity="1" /><path clip-path="url(#clip360)" d="M790.864 369.664 L790.864 373.31 L756.593 373.31 Q757.079 381.007 761.211 385.058 Q765.384 389.068 772.797 389.068 Q777.091 389.068 781.101 388.015 Q785.152 386.962 789.122 384.855 L789.122 391.904 Q785.112 393.605 780.899 394.496 Q776.686 395.387 772.351 395.387 Q761.495 395.387 755.135 389.068 Q748.816 382.749 748.816 371.973 Q748.816 360.833 754.811 354.311 Q760.847 347.749 771.055 347.749 Q780.21 347.749 785.517 353.663 Q790.864 359.537 790.864 369.664 M783.41 367.477 Q783.329 361.36 779.967 357.714 Q776.645 354.068 771.136 354.068 Q764.898 354.068 761.13 357.592 Q757.403 361.117 756.836 367.517 L783.41 367.477 Z" fill="#000000" fill-rule="nonzero" fill-opacity="1" /><path clip-path="url(#clip360)" d="M831.94 387.326 L845.308 387.326 L845.308 341.186 L830.765 344.103 L830.765 336.649 L845.227 333.733 L853.41 333.733 L853.41 387.326 L866.778 387.326 L866.778 394.213 L831.94 394.213 L831.94 387.326 Z" fill="#000000" fill-rule="nonzero" fill-opacity="1" /><polyline clip-path="url(#clip360)" style="stroke:#c271d2; stroke-linecap:round; stroke-linejoin:round; stroke-width:14; stroke-opacity:1; fill:none" points="345.764,454.693 485.786,454.693 "/>
<path clip-path="url(#clip360)" d="M542.219 446.449 L542.219 421.901 L549.673 421.901 L549.673 484.933 L542.219 484.933 L542.219 478.127 Q539.87 482.178 536.265 484.163 Q532.7 486.107 527.677 486.107 Q519.453 486.107 514.268 479.545 Q509.124 472.982 509.124 462.288 Q509.124 451.594 514.268 445.031 Q519.453 438.469 527.677 438.469 Q532.7 438.469 536.265 440.454 Q539.87 442.398 542.219 446.449 M516.82 462.288 Q516.82 470.511 520.183 475.21 Q523.585 479.869 529.5 479.869 Q535.414 479.869 538.817 475.21 Q542.219 470.511 542.219 462.288 Q542.219 454.065 538.817 449.406 Q535.414 444.707 529.5 444.707 Q523.585 444.707 520.183 449.406 Q516.82 454.065 516.82 462.288 Z" fill="#000000" fill-rule="nonzero" fill-opacity="1" /><path clip-path="url(#clip360)" d="M603.834 460.384 L603.834 464.03 L569.563 464.03 Q570.049 471.727 574.181 475.778 Q578.354 479.788 585.767 479.788 Q590.061 479.788 594.071 478.735 Q598.122 477.682 602.092 475.575 L602.092 482.624 Q598.081 484.325 593.868 485.216 Q589.656 486.107 585.321 486.107 Q574.465 486.107 568.105 479.788 Q561.785 473.469 561.785 462.693 Q561.785 451.553 567.781 445.031 Q573.817 438.469 584.025 438.469 Q593.18 438.469 598.487 444.383 Q603.834 450.257 603.834 460.384 M596.38 458.197 Q596.299 452.08 592.937 448.434 Q589.615 444.788 584.106 444.788 Q577.867 444.788 574.1 448.312 Q570.373 451.837 569.806 458.237 L596.38 458.197 Z" fill="#000000" fill-rule="nonzero" fill-opacity="1" /><path clip-path="url(#clip360)" d="M645.923 461.721 Q645.923 453.619 642.56 449.163 Q639.239 444.707 633.203 444.707 Q627.207 444.707 623.845 449.163 Q620.523 453.619 620.523 461.721 Q620.523 469.782 623.845 474.238 Q627.207 478.694 633.203 478.694 Q639.239 478.694 642.56 474.238 Q645.923 469.782 645.923 461.721 M653.376 479.302 Q653.376 490.887 648.232 496.518 Q643.087 502.189 632.474 502.189 Q628.544 502.189 625.06 501.582 Q621.577 501.015 618.295 499.799 L618.295 492.548 Q621.577 494.331 624.777 495.181 Q627.977 496.032 631.299 496.032 Q638.631 496.032 642.277 492.184 Q645.923 488.376 645.923 480.639 L645.923 476.952 Q643.614 480.963 640.008 482.948 Q636.403 484.933 631.38 484.933 Q623.035 484.933 617.931 478.573 Q612.827 472.213 612.827 461.721 Q612.827 451.189 617.931 444.829 Q623.035 438.469 631.38 438.469 Q636.403 438.469 640.008 440.454 Q643.614 442.439 645.923 446.449 L645.923 439.562 L653.376 439.562 L653.376 479.302 Z" fill="#000000" fill-rule="nonzero" fill-opacity="1" /><path clip-path="url(#clip360)" d="M695.02 446.53 Q693.764 445.801 692.265 445.477 Q690.807 445.112 689.024 445.112 Q682.705 445.112 679.302 449.244 Q675.94 453.336 675.94 461.032 L675.94 484.933 L668.446 484.933 L668.446 439.562 L675.94 439.562 L675.94 446.611 Q678.289 442.479 682.057 440.494 Q685.824 438.469 691.212 438.469 Q691.981 438.469 692.913 438.59 Q693.845 438.671 694.979 438.874 L695.02 446.53 Z" fill="#000000" fill-rule="nonzero" fill-opacity="1" /><path clip-path="url(#clip360)" d="M739.823 460.384 L739.823 464.03 L705.552 464.03 Q706.038 471.727 710.17 475.778 Q714.342 479.788 721.756 479.788 Q726.05 479.788 730.06 478.735 Q734.111 477.682 738.081 475.575 L738.081 482.624 Q734.07 484.325 729.857 485.216 Q725.644 486.107 721.31 486.107 Q710.454 486.107 704.094 479.788 Q697.774 473.469 697.774 462.693 Q697.774 451.553 703.77 445.031 Q709.805 438.469 720.014 438.469 Q729.169 438.469 734.475 444.383 Q739.823 450.257 739.823 460.384 M732.369 458.197 Q732.288 452.08 728.926 448.434 Q725.604 444.788 720.095 444.788 Q713.856 444.788 710.089 448.312 Q706.362 451.837 705.795 458.237 L732.369 458.197 Z" fill="#000000" fill-rule="nonzero" fill-opacity="1" /><path clip-path="url(#clip360)" d="M790.864 460.384 L790.864 464.03 L756.593 464.03 Q757.079 471.727 761.211 475.778 Q765.384 479.788 772.797 479.788 Q777.091 479.788 781.101 478.735 Q785.152 477.682 789.122 475.575 L789.122 482.624 Q785.112 484.325 780.899 485.216 Q776.686 486.107 772.351 486.107 Q761.495 486.107 755.135 479.788 Q748.816 473.469 748.816 462.693 Q748.816 451.553 754.811 445.031 Q760.847 438.469 771.055 438.469 Q780.21 438.469 785.517 444.383 Q790.864 450.257 790.864 460.384 M783.41 458.197 Q783.329 452.08 779.967 448.434 Q776.645 444.788 771.136 444.788 Q764.898 444.788 761.13 448.312 Q757.403 451.837 756.836 458.237 L783.41 458.197 Z" fill="#000000" fill-rule="nonzero" fill-opacity="1" /><path clip-path="url(#clip360)" d="M855.314 452.323 Q861.188 453.579 864.469 457.549 Q867.791 461.518 867.791 467.352 Q867.791 476.304 861.633 481.206 Q855.476 486.107 844.133 486.107 Q840.326 486.107 836.275 485.338 Q832.264 484.609 827.97 483.11 L827.97 475.21 Q831.373 477.195 835.424 478.208 Q839.475 479.221 843.89 479.221 Q851.587 479.221 855.597 476.183 Q859.648 473.144 859.648 467.352 Q859.648 462.005 855.881 459.007 Q852.154 455.969 845.47 455.969 L838.422 455.969 L838.422 449.244 L845.794 449.244 Q851.83 449.244 855.03 446.854 Q858.231 444.424 858.231 439.887 Q858.231 435.228 854.909 432.757 Q851.628 430.245 845.47 430.245 Q842.108 430.245 838.26 430.975 Q834.411 431.704 829.793 433.243 L829.793 425.951 Q834.452 424.655 838.503 424.007 Q842.594 423.359 846.199 423.359 Q855.516 423.359 860.945 427.612 Q866.373 431.825 866.373 439.036 Q866.373 444.059 863.497 447.543 Q860.621 450.986 855.314 452.323 Z" fill="#000000" fill-rule="nonzero" fill-opacity="1" /><polyline clip-path="url(#clip360)" style="stroke:#ac8d18; stroke-linecap:round; stroke-linejoin:round; stroke-width:14; stroke-opacity:1; fill:none" points="345.764,545.413 485.786,545.413 "/>
<path clip-path="url(#clip360)" d="M542.219 537.169 L542.219 512.621 L549.673 512.621 L549.673 575.653 L542.219 575.653 L542.219 568.847 Q539.87 572.898 536.265 574.883 Q532.7 576.827 527.677 576.827 Q519.453 576.827 514.268 570.265 Q509.124 563.702 509.124 553.008 Q509.124 542.314 514.268 535.751 Q519.453 529.189 527.677 529.189 Q532.7 529.189 536.265 531.174 Q539.87 533.118 542.219 537.169 M516.82 553.008 Q516.82 561.231 520.183 565.93 Q523.585 570.589 529.5 570.589 Q535.414 570.589 538.817 565.93 Q542.219 561.231 542.219 553.008 Q542.219 544.785 538.817 540.126 Q535.414 535.427 529.5 535.427 Q523.585 535.427 520.183 540.126 Q516.82 544.785 516.82 553.008 Z" fill="#000000" fill-rule="nonzero" fill-opacity="1" /><path clip-path="url(#clip360)" d="M603.834 551.104 L603.834 554.75 L569.563 554.75 Q570.049 562.447 574.181 566.498 Q578.354 570.508 585.767 570.508 Q590.061 570.508 594.071 569.455 Q598.122 568.402 602.092 566.295 L602.092 573.344 Q598.081 575.045 593.868 575.936 Q589.656 576.827 585.321 576.827 Q574.465 576.827 568.105 570.508 Q561.785 564.189 561.785 553.413 Q561.785 542.273 567.781 535.751 Q573.817 529.189 584.025 529.189 Q593.18 529.189 598.487 535.103 Q603.834 540.977 603.834 551.104 M596.38 548.917 Q596.299 542.8 592.937 539.154 Q589.615 535.508 584.106 535.508 Q577.867 535.508 574.1 539.032 Q570.373 542.557 569.806 548.957 L596.38 548.917 Z" fill="#000000" fill-rule="nonzero" fill-opacity="1" /><path clip-path="url(#clip360)" d="M645.923 552.441 Q645.923 544.339 642.56 539.883 Q639.239 535.427 633.203 535.427 Q627.207 535.427 623.845 539.883 Q620.523 544.339 620.523 552.441 Q620.523 560.502 623.845 564.958 Q627.207 569.414 633.203 569.414 Q639.239 569.414 642.56 564.958 Q645.923 560.502 645.923 552.441 M653.376 570.022 Q653.376 581.607 648.232 587.238 Q643.087 592.909 632.474 592.909 Q628.544 592.909 625.06 592.302 Q621.577 591.735 618.295 590.519 L618.295 583.268 Q621.577 585.051 624.777 585.901 Q627.977 586.752 631.299 586.752 Q638.631 586.752 642.277 582.904 Q645.923 579.096 645.923 571.359 L645.923 567.672 Q643.614 571.683 640.008 573.668 Q636.403 575.653 631.38 575.653 Q623.035 575.653 617.931 569.293 Q612.827 562.933 612.827 552.441 Q612.827 541.909 617.931 535.549 Q623.035 529.189 631.38 529.189 Q636.403 529.189 640.008 531.174 Q643.614 533.159 645.923 537.169 L645.923 530.282 L653.376 530.282 L653.376 570.022 Z" fill="#000000" fill-rule="nonzero" fill-opacity="1" /><path clip-path="url(#clip360)" d="M695.02 537.25 Q693.764 536.521 692.265 536.197 Q690.807 535.832 689.024 535.832 Q682.705 535.832 679.302 539.964 Q675.94 544.056 675.94 551.752 L675.94 575.653 L668.446 575.653 L668.446 530.282 L675.94 530.282 L675.94 537.331 Q678.289 533.199 682.057 531.214 Q685.824 529.189 691.212 529.189 Q691.981 529.189 692.913 529.31 Q693.845 529.391 694.979 529.594 L695.02 537.25 Z" fill="#000000" fill-rule="nonzero" fill-opacity="1" /><path clip-path="url(#clip360)" d="M739.823 551.104 L739.823 554.75 L705.552 554.75 Q706.038 562.447 710.17 566.498 Q714.342 570.508 721.756 570.508 Q726.05 570.508 730.06 569.455 Q734.111 568.402 738.081 566.295 L738.081 573.344 Q734.07 575.045 729.857 575.936 Q725.644 576.827 721.31 576.827 Q710.454 576.827 704.094 570.508 Q697.774 564.189 697.774 553.413 Q697.774 542.273 703.77 535.751 Q709.805 529.189 720.014 529.189 Q729.169 529.189 734.475 535.103 Q739.823 540.977 739.823 551.104 M732.369 548.917 Q732.288 542.8 728.926 539.154 Q725.604 535.508 720.095 535.508 Q713.856 535.508 710.089 539.032 Q706.362 542.557 705.795 548.957 L732.369 548.917 Z" fill="#000000" fill-rule="nonzero" fill-opacity="1" /><path clip-path="url(#clip360)" d="M790.864 551.104 L790.864 554.75 L756.593 554.75 Q757.079 562.447 761.211 566.498 Q765.384 570.508 772.797 570.508 Q777.091 570.508 781.101 569.455 Q785.152 568.402 789.122 566.295 L789.122 573.344 Q785.112 575.045 780.899 575.936 Q776.686 576.827 772.351 576.827 Q761.495 576.827 755.135 570.508 Q748.816 564.189 748.816 553.413 Q748.816 542.273 754.811 535.751 Q760.847 529.189 771.055 529.189 Q780.21 529.189 785.517 535.103 Q790.864 540.977 790.864 551.104 M783.41 548.917 Q783.329 542.8 779.967 539.154 Q776.645 535.508 771.136 535.508 Q764.898 535.508 761.13 539.032 Q757.403 542.557 756.836 548.957 L783.41 548.917 Z" fill="#000000" fill-rule="nonzero" fill-opacity="1" /><path clip-path="url(#clip360)" d="M830.765 574.397 L830.765 566.943 Q833.844 568.402 837.004 569.171 Q840.163 569.941 843.202 569.941 Q851.303 569.941 855.557 564.513 Q859.851 559.044 860.459 547.944 Q858.109 551.428 854.504 553.292 Q850.898 555.155 846.523 555.155 Q837.449 555.155 832.143 549.686 Q826.877 544.177 826.877 534.657 Q826.877 525.34 832.386 519.71 Q837.895 514.079 847.05 514.079 Q857.542 514.079 863.051 522.14 Q868.601 530.161 868.601 545.473 Q868.601 559.773 861.795 568.32 Q855.03 576.827 843.566 576.827 Q840.488 576.827 837.328 576.22 Q834.168 575.612 830.765 574.397 M847.05 548.755 Q852.559 548.755 855.759 544.987 Q859 541.22 859 534.657 Q859 528.136 855.759 524.368 Q852.559 520.56 847.05 520.56 Q841.541 520.56 838.3 524.368 Q835.1 528.136 835.1 534.657 Q835.1 541.22 838.3 544.987 Q841.541 548.755 847.05 548.755 Z" fill="#000000" fill-rule="nonzero" fill-opacity="1" /></svg>
