<?xml version="1.0" encoding="utf-8"?>
<svg xmlns="http://www.w3.org/2000/svg" xmlns:xlink="http://www.w3.org/1999/xlink" width="600" height="400" viewBox="0 0 2400 1600">
<defs>
  <clipPath id="clip390">
    <rect x="0" y="0" width="2400" height="1600"/>
  </clipPath>
</defs>
<path clip-path="url(#clip390)" d="M0 1600 L2400 1600 L2400 0 L0 0  Z" fill="#ffffff" fill-rule="evenodd" fill-opacity="1"/>
<defs>
  <clipPath id="clip391">
    <rect x="209" y="47" width="2144" height="1338"/>
  </clipPath>
</defs>
<path clip-path="url(#clip390)" d="M209.638 1384.3 L2352.76 1384.3 L2352.76 47.2441 L209.638 47.2441  Z" fill="#ffffff" fill-rule="evenodd" fill-opacity="1"/>
<polyline clip-path="url(#clip391)" style="stroke:#000000; stroke-linecap:round; stroke-linejoin:round; stroke-width:2; stroke-opacity:0.1; fill:none" points="270.292,1384.3 270.292,47.2441 "/>
<polyline clip-path="url(#clip391)" style="stroke:#000000; stroke-linecap:round; stroke-linejoin:round; stroke-width:2; stroke-opacity:0.1; fill:none" points="821.695,1384.3 821.695,47.2441 "/>
<polyline clip-path="url(#clip391)" style="stroke:#000000; stroke-linecap:round; stroke-linejoin:round; stroke-width:2; stroke-opacity:0.1; fill:none" points="2292.1,1384.3 2292.1,47.2441 "/>
<polyline clip-path="url(#clip391)" style="stroke:#000000; stroke-linecap:round; stroke-linejoin:round; stroke-width:2; stroke-opacity:0.1; fill:none" points="209.638,1346.46 2352.76,1346.46 "/>
<polyline clip-path="url(#clip391)" style="stroke:#000000; stroke-linecap:round; stroke-linejoin:round; stroke-width:2; stroke-opacity:0.1; fill:none" points="209.638,1031.12 2352.76,1031.12 "/>
<polyline clip-path="url(#clip391)" style="stroke:#000000; stroke-linecap:round; stroke-linejoin:round; stroke-width:2; stroke-opacity:0.1; fill:none" points="209.638,715.772 2352.76,715.772 "/>
<polyline clip-path="url(#clip391)" style="stroke:#000000; stroke-linecap:round; stroke-linejoin:round; stroke-width:2; stroke-opacity:0.1; fill:none" points="209.638,400.429 2352.76,400.429 "/>
<polyline clip-path="url(#clip391)" style="stroke:#000000; stroke-linecap:round; stroke-linejoin:round; stroke-width:2; stroke-opacity:0.1; fill:none" points="209.638,85.0853 2352.76,85.0853 "/>
<polyline clip-path="url(#clip390)" style="stroke:#000000; stroke-linecap:round; stroke-linejoin:round; stroke-width:4; stroke-opacity:1; fill:none" points="209.638,1384.3 2352.76,1384.3 "/>
<polyline clip-path="url(#clip390)" style="stroke:#000000; stroke-linecap:round; stroke-linejoin:round; stroke-width:4; stroke-opacity:1; fill:none" points="270.292,1384.3 270.292,1365.4 "/>
<polyline clip-path="url(#clip390)" style="stroke:#000000; stroke-linecap:round; stroke-linejoin:round; stroke-width:4; stroke-opacity:1; fill:none" points="821.695,1384.3 821.695,1365.4 "/>
<polyline clip-path="url(#clip390)" style="stroke:#000000; stroke-linecap:round; stroke-linejoin:round; stroke-width:4; stroke-opacity:1; fill:none" points="2292.1,1384.3 2292.1,1365.4 "/>
<path clip-path="url(#clip390)" d="M270.292 1421.08 Q264.875 1421.08 262.132 1426.43 Q259.424 1431.74 259.424 1442.43 Q259.424 1453.09 262.132 1458.44 Q264.875 1463.75 270.292 1463.75 Q275.743 1463.75 278.452 1458.44 Q281.195 1453.09 281.195 1442.43 Q281.195 1431.74 278.452 1426.43 Q275.743 1421.08 270.292 1421.08 M270.292 1415.52 Q279.007 1415.52 283.591 1422.43 Q288.209 1429.31 288.209 1442.43 Q288.209 1455.52 283.591 1462.43 Q279.007 1469.31 270.292 1469.31 Q261.577 1469.31 256.959 1462.43 Q252.375 1455.52 252.375 1442.43 Q252.375 1429.31 256.959 1422.43 Q261.577 1415.52 270.292 1415.52 Z" fill="#000000" fill-rule="nonzero" fill-opacity="1" /><path clip-path="url(#clip390)" d="M828.066 1440.35 Q833.101 1441.42 835.913 1444.83 Q838.761 1448.23 838.761 1453.23 Q838.761 1460.9 833.483 1465.11 Q828.205 1469.31 818.483 1469.31 Q815.219 1469.31 811.747 1468.65 Q808.309 1468.02 804.629 1466.74 L804.629 1459.97 Q807.545 1461.67 811.018 1462.54 Q814.49 1463.4 818.275 1463.4 Q824.872 1463.4 828.309 1460.8 Q831.781 1458.2 831.781 1453.23 Q831.781 1448.65 828.552 1446.08 Q825.358 1443.47 819.629 1443.47 L813.587 1443.47 L813.587 1437.71 L819.906 1437.71 Q825.08 1437.71 827.823 1435.66 Q830.566 1433.58 830.566 1429.69 Q830.566 1425.7 827.719 1423.58 Q824.906 1421.43 819.629 1421.43 Q816.747 1421.43 813.448 1422.05 Q810.15 1422.68 806.191 1423.99 L806.191 1417.74 Q810.184 1416.63 813.656 1416.08 Q817.163 1415.52 820.254 1415.52 Q828.24 1415.52 832.892 1419.17 Q837.545 1422.78 837.545 1428.96 Q837.545 1433.27 835.08 1436.25 Q832.615 1439.2 828.066 1440.35 Z" fill="#000000" fill-rule="nonzero" fill-opacity="1" /><path clip-path="url(#clip390)" d="M2255.05 1462.4 L2266.51 1462.4 L2266.51 1422.85 L2254.05 1425.35 L2254.05 1418.96 L2266.44 1416.46 L2273.46 1416.46 L2273.46 1462.4 L2284.91 1462.4 L2284.91 1468.3 L2255.05 1468.3 L2255.05 1462.4 Z" fill="#000000" fill-rule="nonzero" fill-opacity="1" /><path clip-path="url(#clip390)" d="M2300.3 1462.4 L2311.75 1462.4 L2311.75 1422.85 L2299.29 1425.35 L2299.29 1418.96 L2311.68 1416.46 L2318.7 1416.46 L2318.7 1462.4 L2330.16 1462.4 L2330.16 1468.3 L2300.3 1468.3 L2300.3 1462.4 Z" fill="#000000" fill-rule="nonzero" fill-opacity="1" /><path clip-path="url(#clip390)" d="M1158.03 1537.02 L1158.03 1508.97 L1166.54 1508.97 L1166.54 1581 L1158.03 1581 L1158.03 1573.23 Q1155.34 1577.86 1151.22 1580.12 Q1147.15 1582.35 1141.41 1582.35 Q1132.01 1582.35 1126.08 1574.85 Q1120.2 1567.35 1120.2 1555.12 Q1120.2 1542.9 1126.08 1535.4 Q1132.01 1527.9 1141.41 1527.9 Q1147.15 1527.9 1151.22 1530.17 Q1155.34 1532.39 1158.03 1537.02 M1129 1555.12 Q1129 1564.52 1132.84 1569.89 Q1136.73 1575.22 1143.49 1575.22 Q1150.25 1575.22 1154.14 1569.89 Q1158.03 1564.52 1158.03 1555.12 Q1158.03 1545.73 1154.14 1540.4 Q1150.25 1535.03 1143.49 1535.03 Q1136.73 1535.03 1132.84 1540.4 Q1129 1545.73 1129 1555.12 Z" fill="#000000" fill-rule="nonzero" fill-opacity="1" /><path clip-path="url(#clip390)" d="M1228.44 1552.95 L1228.44 1557.12 L1189.28 1557.12 Q1189.83 1565.91 1194.55 1570.54 Q1199.32 1575.12 1207.79 1575.12 Q1212.7 1575.12 1217.29 1573.92 Q1221.91 1572.72 1226.45 1570.31 L1226.45 1578.36 Q1221.87 1580.31 1217.05 1581.33 Q1212.24 1582.35 1207.29 1582.35 Q1194.88 1582.35 1187.61 1575.12 Q1180.39 1567.9 1180.39 1555.59 Q1180.39 1542.86 1187.24 1535.4 Q1194.14 1527.9 1205.8 1527.9 Q1216.27 1527.9 1222.33 1534.66 Q1228.44 1541.37 1228.44 1552.95 M1219.92 1550.45 Q1219.83 1543.46 1215.99 1539.29 Q1212.19 1535.12 1205.9 1535.12 Q1198.77 1535.12 1194.46 1539.15 Q1190.2 1543.18 1189.55 1550.49 L1219.92 1550.45 Z" fill="#000000" fill-rule="nonzero" fill-opacity="1" /><path clip-path="url(#clip390)" d="M1276.54 1554.48 Q1276.54 1545.22 1272.7 1540.12 Q1268.91 1535.03 1262.01 1535.03 Q1255.16 1535.03 1251.31 1540.12 Q1247.52 1545.22 1247.52 1554.48 Q1247.52 1563.69 1251.31 1568.78 Q1255.16 1573.87 1262.01 1573.87 Q1268.91 1573.87 1272.7 1568.78 Q1276.54 1563.69 1276.54 1554.48 M1285.06 1574.57 Q1285.06 1587.81 1279.18 1594.24 Q1273.3 1600.73 1261.17 1600.73 Q1256.68 1600.73 1252.7 1600.03 Q1248.72 1599.38 1244.97 1597.99 L1244.97 1589.71 Q1248.72 1591.74 1252.38 1592.72 Q1256.03 1593.69 1259.83 1593.69 Q1268.21 1593.69 1272.38 1589.29 Q1276.54 1584.94 1276.54 1576.1 L1276.54 1571.88 Q1273.91 1576.47 1269.78 1578.74 Q1265.66 1581 1259.92 1581 Q1250.39 1581 1244.55 1573.74 Q1238.72 1566.47 1238.72 1554.48 Q1238.72 1542.44 1244.55 1535.17 Q1250.39 1527.9 1259.92 1527.9 Q1265.66 1527.9 1269.78 1530.17 Q1273.91 1532.44 1276.54 1537.02 L1276.54 1529.15 L1285.06 1529.15 L1285.06 1574.57 Z" fill="#000000" fill-rule="nonzero" fill-opacity="1" /><path clip-path="url(#clip390)" d="M1332.65 1537.12 Q1331.22 1536.28 1329.51 1535.91 Q1327.84 1535.49 1325.8 1535.49 Q1318.58 1535.49 1314.69 1540.22 Q1310.85 1544.89 1310.85 1553.69 L1310.85 1581 L1302.28 1581 L1302.28 1529.15 L1310.85 1529.15 L1310.85 1537.21 Q1313.53 1532.49 1317.84 1530.22 Q1322.15 1527.9 1328.3 1527.9 Q1329.18 1527.9 1330.25 1528.04 Q1331.31 1528.13 1332.61 1528.37 L1332.65 1537.12 Z" fill="#000000" fill-rule="nonzero" fill-opacity="1" /><path clip-path="url(#clip390)" d="M1383.86 1552.95 L1383.86 1557.12 L1344.69 1557.12 Q1345.25 1565.91 1349.97 1570.54 Q1354.74 1575.12 1363.21 1575.12 Q1368.12 1575.12 1372.7 1573.92 Q1377.33 1572.72 1381.87 1570.31 L1381.87 1578.36 Q1377.28 1580.31 1372.47 1581.33 Q1367.65 1582.35 1362.7 1582.35 Q1350.29 1582.35 1343.03 1575.12 Q1335.8 1567.9 1335.8 1555.59 Q1335.8 1542.86 1342.65 1535.4 Q1349.55 1527.9 1361.22 1527.9 Q1371.68 1527.9 1377.75 1534.66 Q1383.86 1541.37 1383.86 1552.95 M1375.34 1550.45 Q1375.25 1543.46 1371.4 1539.29 Q1367.61 1535.12 1361.31 1535.12 Q1354.18 1535.12 1349.88 1539.15 Q1345.62 1543.18 1344.97 1550.49 L1375.34 1550.45 Z" fill="#000000" fill-rule="nonzero" fill-opacity="1" /><path clip-path="url(#clip390)" d="M1442.19 1552.95 L1442.19 1557.12 L1403.02 1557.12 Q1403.58 1565.91 1408.3 1570.54 Q1413.07 1575.12 1421.54 1575.12 Q1426.45 1575.12 1431.03 1573.92 Q1435.66 1572.72 1440.2 1570.31 L1440.2 1578.36 Q1435.62 1580.31 1430.8 1581.33 Q1425.99 1582.35 1421.03 1582.35 Q1408.63 1582.35 1401.36 1575.12 Q1394.14 1567.9 1394.14 1555.59 Q1394.14 1542.86 1400.99 1535.4 Q1407.89 1527.9 1419.55 1527.9 Q1430.02 1527.9 1436.08 1534.66 Q1442.19 1541.37 1442.19 1552.95 M1433.67 1550.45 Q1433.58 1543.46 1429.74 1539.29 Q1425.94 1535.12 1419.65 1535.12 Q1412.52 1535.12 1408.21 1539.15 Q1403.95 1543.18 1403.3 1550.49 L1433.67 1550.45 Z" fill="#000000" fill-rule="nonzero" fill-opacity="1" /><polyline clip-path="url(#clip390)" style="stroke:#000000; stroke-linecap:round; stroke-linejoin:round; stroke-width:4; stroke-opacity:1; fill:none" points="209.638,1384.3 209.638,47.2441 "/>
<polyline clip-path="url(#clip390)" style="stroke:#000000; stroke-linecap:round; stroke-linejoin:round; stroke-width:4; stroke-opacity:1; fill:none" points="209.638,1346.46 228.535,1346.46 "/>
<polyline clip-path="url(#clip390)" style="stroke:#000000; stroke-linecap:round; stroke-linejoin:round; stroke-width:4; stroke-opacity:1; fill:none" points="209.638,1031.12 228.535,1031.12 "/>
<polyline clip-path="url(#clip390)" style="stroke:#000000; stroke-linecap:round; stroke-linejoin:round; stroke-width:4; stroke-opacity:1; fill:none" points="209.638,715.772 228.535,715.772 "/>
<polyline clip-path="url(#clip390)" style="stroke:#000000; stroke-linecap:round; stroke-linejoin:round; stroke-width:4; stroke-opacity:1; fill:none" points="209.638,400.429 228.535,400.429 "/>
<polyline clip-path="url(#clip390)" style="stroke:#000000; stroke-linecap:round; stroke-linejoin:round; stroke-width:4; stroke-opacity:1; fill:none" points="209.638,85.0853 228.535,85.0853 "/>
<path clip-path="url(#clip390)" d="M155.721 1325.16 Q150.305 1325.16 147.561 1330.5 Q144.853 1335.82 144.853 1346.51 Q144.853 1357.17 147.561 1362.52 Q150.305 1367.83 155.721 1367.83 Q161.173 1367.83 163.881 1362.52 Q166.624 1357.17 166.624 1346.51 Q166.624 1335.82 163.881 1330.5 Q161.173 1325.16 155.721 1325.16 M155.721 1319.6 Q164.436 1319.6 169.02 1326.51 Q173.638 1333.39 173.638 1346.51 Q173.638 1359.6 169.02 1366.51 Q164.436 1373.39 155.721 1373.39 Q147.006 1373.39 142.388 1366.51 Q137.805 1359.6 137.805 1346.51 Q137.805 1333.39 142.388 1326.51 Q147.006 1319.6 155.721 1319.6 Z" fill="#000000" fill-rule="nonzero" fill-opacity="1" /><path clip-path="url(#clip390)" d="M149.159 1051.13 L173.638 1051.13 L173.638 1057.04 L140.721 1057.04 L140.721 1051.13 Q144.714 1047 151.589 1040.06 Q158.499 1033.08 160.27 1031.06 Q163.638 1027.28 164.957 1024.67 Q166.311 1022.04 166.311 1019.5 Q166.311 1015.37 163.395 1012.76 Q160.513 1010.16 155.86 1010.16 Q152.561 1010.16 148.881 1011.31 Q145.235 1012.45 141.068 1014.78 L141.068 1007.7 Q145.305 1005.99 148.985 1005.13 Q152.666 1004.26 155.721 1004.26 Q163.777 1004.26 168.568 1008.29 Q173.36 1012.31 173.36 1019.05 Q173.36 1022.24 172.145 1025.13 Q170.964 1027.97 167.804 1031.86 Q166.936 1032.87 162.284 1037.7 Q157.631 1042.49 149.159 1051.13 Z" fill="#000000" fill-rule="nonzero" fill-opacity="1" /><path clip-path="url(#clip390)" d="M159.263 695.963 L141.555 723.637 L159.263 723.637 L159.263 695.963 M157.423 689.852 L166.242 689.852 L166.242 723.637 L173.638 723.637 L173.638 729.47 L166.242 729.47 L166.242 741.692 L159.263 741.692 L159.263 729.47 L135.86 729.47 L135.86 722.699 L157.423 689.852 Z" fill="#000000" fill-rule="nonzero" fill-opacity="1" /><path clip-path="url(#clip390)" d="M156.346 397.634 Q151.624 397.634 148.846 400.863 Q146.103 404.092 146.103 409.717 Q146.103 415.307 148.846 418.571 Q151.624 421.8 156.346 421.8 Q161.068 421.8 163.811 418.571 Q166.589 415.307 166.589 409.717 Q166.589 404.092 163.811 400.863 Q161.068 397.634 156.346 397.634 M170.27 375.654 L170.27 382.043 Q167.631 380.793 164.923 380.134 Q162.249 379.474 159.61 379.474 Q152.666 379.474 148.985 384.161 Q145.339 388.849 144.818 398.328 Q146.867 395.307 149.957 393.71 Q153.048 392.078 156.763 392.078 Q164.575 392.078 169.089 396.835 Q173.638 401.557 173.638 409.717 Q173.638 417.703 168.916 422.529 Q164.193 427.356 156.346 427.356 Q147.353 427.356 142.596 420.481 Q137.839 413.571 137.839 400.481 Q137.839 388.189 143.673 380.897 Q149.506 373.571 159.332 373.571 Q161.971 373.571 164.645 374.092 Q167.353 374.613 170.27 375.654 Z" fill="#000000" fill-rule="nonzero" fill-opacity="1" /><path clip-path="url(#clip390)" d="M155.86 86.3874 Q150.86 86.3874 147.978 89.061 Q145.131 91.7346 145.131 96.422 Q145.131 101.11 147.978 103.783 Q150.86 106.457 155.86 106.457 Q160.86 106.457 163.742 103.783 Q166.624 101.075 166.624 96.422 Q166.624 91.7346 163.742 89.061 Q160.895 86.3874 155.86 86.3874 M148.846 83.4013 Q144.332 82.2902 141.798 79.1999 Q139.298 76.1096 139.298 71.6652 Q139.298 65.45 143.707 61.8389 Q148.152 58.2278 155.86 58.2278 Q163.603 58.2278 168.013 61.8389 Q172.422 65.45 172.422 71.6652 Q172.422 76.1096 169.888 79.1999 Q167.388 82.2902 162.909 83.4013 Q167.978 84.5818 170.791 88.0193 Q173.638 91.4568 173.638 96.422 Q173.638 103.957 169.02 107.984 Q164.436 112.012 155.86 112.012 Q147.284 112.012 142.666 107.984 Q138.082 103.957 138.082 96.422 Q138.082 91.4568 140.93 88.0193 Q143.777 84.5818 148.846 83.4013 M146.277 72.3249 Q146.277 76.3527 148.777 78.6096 Q151.311 80.8666 155.86 80.8666 Q160.374 80.8666 162.909 78.6096 Q165.478 76.3527 165.478 72.3249 Q165.478 68.2972 162.909 66.0403 Q160.374 63.7833 155.86 63.7833 Q151.311 63.7833 148.777 66.0403 Q146.277 68.2972 146.277 72.3249 Z" fill="#000000" fill-rule="nonzero" fill-opacity="1" /><path clip-path="url(#clip390)" d="M7.08751 752.508 L14.1708 752.508 L14.1708 760.656 Q14.1708 765.239 16.0226 767.045 Q17.8745 768.804 22.6893 768.804 L27.2726 768.804 L27.2726 754.776 L33.8929 754.776 L33.8929 768.804 L79.1242 768.804 L79.1242 777.369 L33.8929 777.369 L33.8929 785.517 L27.2726 785.517 L27.2726 777.369 L23.6615 777.369 Q15.0041 777.369 11.069 773.341 Q7.08751 769.313 7.08751 760.563 L7.08751 752.508 Z" fill="#000000" fill-rule="nonzero" fill-opacity="1" /><path clip-path="url(#clip390)" d="M27.2726 745.378 L27.2726 736.86 L79.1242 736.86 L79.1242 745.378 L27.2726 745.378 M7.08751 745.378 L7.08751 736.86 L17.8745 736.86 L17.8745 745.378 L7.08751 745.378 Z" fill="#000000" fill-rule="nonzero" fill-opacity="1" /><path clip-path="url(#clip390)" d="M12.5504 710.61 L27.2726 710.61 L27.2726 693.064 L33.8929 693.064 L33.8929 710.61 L62.0409 710.61 Q68.3835 710.61 70.189 708.897 Q71.9946 707.138 71.9946 701.814 L71.9946 693.064 L79.1242 693.064 L79.1242 701.814 Q79.1242 711.675 75.4668 715.425 Q71.7631 719.175 62.0409 719.175 L33.8929 719.175 L33.8929 725.425 L27.2726 725.425 L27.2726 719.175 L12.5504 719.175 L12.5504 710.61 Z" fill="#000000" fill-rule="nonzero" fill-opacity="1" /><path clip-path="url(#clip390)" d="M28.8004 648.805 L36.8559 648.805 Q35.004 652.416 34.0781 656.305 Q33.1522 660.194 33.1522 664.36 Q33.1522 670.703 35.0966 673.897 Q37.041 677.045 40.9299 677.045 Q43.8929 677.045 45.6058 674.777 Q47.2725 672.508 48.8002 665.656 L49.4484 662.74 Q51.3928 653.666 54.9576 649.87 Q58.4761 646.027 64.8187 646.027 Q72.0409 646.027 76.2538 651.768 Q80.4667 657.462 80.4667 667.462 Q80.4667 671.629 79.6334 676.166 Q78.8464 680.656 77.226 685.656 L68.4298 685.656 Q70.8835 680.934 72.1335 676.351 Q73.3372 671.768 73.3372 667.277 Q73.3372 661.258 71.3001 658.018 Q69.2168 654.777 65.4668 654.777 Q61.9946 654.777 60.1428 657.138 Q58.2909 659.453 56.578 667.369 L55.8835 670.332 Q54.2169 678.249 50.791 681.768 Q47.3188 685.286 41.3003 685.286 Q33.9855 685.286 30.0041 680.101 Q26.0226 674.916 26.0226 665.379 Q26.0226 660.657 26.717 656.49 Q27.4115 652.323 28.8004 648.805 Z" fill="#000000" fill-rule="nonzero" fill-opacity="1" /><circle clip-path="url(#clip391)" cx="454.093" cy="139.105" r="21.6" fill="#ff0000" fill-rule="evenodd" fill-opacity="1" stroke="none"/>
<circle clip-path="url(#clip391)" cx="637.894" cy="913.243" r="21.6" fill="#ff0000" fill-rule="evenodd" fill-opacity="1" stroke="none"/>
<circle clip-path="url(#clip391)" cx="821.695" cy="1073.41" r="21.6" fill="#ff0000" fill-rule="evenodd" fill-opacity="1" stroke="none"/>
<circle clip-path="url(#clip391)" cx="1005.5" cy="1117.22" r="21.6" fill="#ff0000" fill-rule="evenodd" fill-opacity="1" stroke="none"/>
<circle clip-path="url(#clip391)" cx="1189.3" cy="1118.99" r="21.6" fill="#ff0000" fill-rule="evenodd" fill-opacity="1" stroke="none"/>
<circle clip-path="url(#clip391)" cx="1373.1" cy="1136.02" r="21.6" fill="#ff0000" fill-rule="evenodd" fill-opacity="1" stroke="none"/>
<circle clip-path="url(#clip391)" cx="1556.9" cy="1142.8" r="21.6" fill="#ff0000" fill-rule="evenodd" fill-opacity="1" stroke="none"/>
<circle clip-path="url(#clip391)" cx="1740.7" cy="1144.8" r="21.6" fill="#ff0000" fill-rule="evenodd" fill-opacity="1" stroke="none"/>
<circle clip-path="url(#clip391)" cx="1924.5" cy="1175.31" r="21.6" fill="#ff0000" fill-rule="evenodd" fill-opacity="1" stroke="none"/>
<circle clip-path="url(#clip391)" cx="2108.3" cy="1266.49" r="21.6" fill="#ff0000" fill-rule="evenodd" fill-opacity="1" stroke="none"/>
<circle clip-path="url(#clip391)" cx="2292.1" cy="1346.46" r="21.6" fill="#ff0000" fill-rule="evenodd" fill-opacity="1" stroke="none"/>
<path clip-path="url(#clip391)" d="M454.093 149.571 L430.093 197.571 L478.093 197.571 L454.093 149.571 Z" fill="#0000ff" fill-rule="evenodd" fill-opacity="1" stroke="none"/>
<path clip-path="url(#clip391)" d="M637.894 997.581 L613.894 1045.58 L661.894 1045.58 L637.894 997.581 Z" fill="#0000ff" fill-rule="evenodd" fill-opacity="1" stroke="none"/>
<path clip-path="url(#clip391)" d="M821.695 1242.29 L797.695 1290.29 L845.695 1290.29 L821.695 1242.29 Z" fill="#0000ff" fill-rule="evenodd" fill-opacity="1" stroke="none"/>
<path clip-path="url(#clip391)" d="M1005.5 1216.19 L981.496 1264.19 L1029.5 1264.19 L1005.5 1216.19 Z" fill="#0000ff" fill-rule="evenodd" fill-opacity="1" stroke="none"/>
<path clip-path="url(#clip391)" d="M1189.3 1210.41 L1165.3 1258.41 L1213.3 1258.41 L1189.3 1210.41 Z" fill="#0000ff" fill-rule="evenodd" fill-opacity="1" stroke="none"/>
<path clip-path="url(#clip391)" d="M1373.1 1180.1 L1349.1 1228.1 L1397.1 1228.1 L1373.1 1180.1 Z" fill="#0000ff" fill-rule="evenodd" fill-opacity="1" stroke="none"/>
<path clip-path="url(#clip391)" d="M1556.9 1170.51 L1532.9 1218.51 L1580.9 1218.51 L1556.9 1170.51 Z" fill="#0000ff" fill-rule="evenodd" fill-opacity="1" stroke="none"/>
<path clip-path="url(#clip391)" d="M1740.7 1167.86 L1716.7 1215.86 L1764.7 1215.86 L1740.7 1167.86 Z" fill="#0000ff" fill-rule="evenodd" fill-opacity="1" stroke="none"/>
<path clip-path="url(#clip391)" d="M1924.5 1134.64 L1900.5 1182.64 L1948.5 1182.64 L1924.5 1134.64 Z" fill="#0000ff" fill-rule="evenodd" fill-opacity="1" stroke="none"/>
<path clip-path="url(#clip391)" d="M2108.3 1081.27 L2084.3 1129.27 L2132.3 1129.27 L2108.3 1081.27 Z" fill="#0000ff" fill-rule="evenodd" fill-opacity="1" stroke="none"/>
<path clip-path="url(#clip391)" d="M2292.1 1068.36 L2268.1 1116.36 L2316.1 1116.36 L2292.1 1068.36 Z" fill="#0000ff" fill-rule="evenodd" fill-opacity="1" stroke="none"/>
<polyline clip-path="url(#clip391)" style="stroke:#008000; stroke-linecap:round; stroke-linejoin:round; stroke-width:8; stroke-opacity:1; fill:none" points="270.292,1092.36 2292.1,1092.36 "/>
<path clip-path="url(#clip390)" d="M1629.18 516.78 L2281.32 516.78 L2281.32 91.8126 L1629.18 91.8126  Z" fill="#ffffff" fill-rule="evenodd" fill-opacity="1"/>
<polyline clip-path="url(#clip390)" style="stroke:#000000; stroke-linecap:round; stroke-linejoin:round; stroke-width:4; stroke-opacity:1; fill:none" points="1629.18,516.78 2281.32,516.78 2281.32,91.8126 1629.18,91.8126 1629.18,516.78 "/>
<circle clip-path="url(#clip390)" cx="1724.43" cy="198.054" r="37.2185" fill="#ff0000" fill-rule="evenodd" fill-opacity="1" stroke="none"/>
<path clip-path="url(#clip390)" d="M1819.68 225.619 L1819.68 146.838 Q1819.68 144.337 1821.36 144.337 Q1823.04 144.337 1823.04 146.961 L1823.04 225.414 Q1823.04 228.119 1821.36 228.119 Q1819.68 228.119 1819.68 225.619 M1828.95 225.619 L1828.95 147.452 Q1828.95 144.337 1830.63 144.337 Q1832.31 144.337 1832.31 146.961 L1832.31 225.414 Q1832.31 228.119 1830.63 228.119 Q1828.95 228.119 1828.95 225.619 Z" fill="#000000" fill-rule="nonzero" fill-opacity="1" /><path clip-path="url(#clip390)" d="M1918.84 205.534 Q1918.84 206.313 1918.52 206.723 Q1918.23 207.092 1917.94 207.174 Q1917.7 207.215 1917.33 207.215 Q1916.26 207.215 1912.57 207.092 Q1908.88 206.969 1907.82 206.969 Q1906.1 206.969 1902.57 207.092 Q1899.05 207.215 1897.32 207.215 Q1896.18 207.215 1896.18 206.272 Q1896.18 205.657 1896.3 205.329 Q1896.42 204.96 1896.75 204.837 Q1897.12 204.673 1897.32 204.673 Q1897.57 204.632 1898.18 204.632 Q1899 204.632 1899.87 204.551 Q1900.73 204.428 1901.79 204.182 Q1902.86 203.936 1903.51 203.321 Q1904.21 202.706 1904.21 201.845 Q1904.21 201.476 1903.92 198.443 Q1903.64 195.41 1903.27 191.885 Q1902.9 188.319 1902.86 187.827 L1881.79 187.827 Q1879.86 191.147 1878.51 193.442 Q1877.16 195.738 1876.67 196.517 Q1876.17 197.295 1875.89 197.787 Q1875.6 198.279 1875.44 198.566 Q1874.25 200.739 1874.25 201.681 Q1874.25 204.305 1878.18 204.632 Q1879.53 204.632 1879.53 205.616 Q1879.53 206.354 1879.21 206.764 Q1878.88 207.133 1878.59 207.174 Q1878.35 207.215 1877.94 207.215 Q1876.58 207.215 1873.76 207.092 Q1870.93 206.969 1869.53 206.969 Q1868.34 206.969 1865.89 207.092 Q1863.43 207.215 1862.32 207.215 Q1861.83 207.215 1861.54 206.928 Q1861.25 206.641 1861.25 206.272 Q1861.25 205.698 1861.34 205.37 Q1861.46 205.042 1861.79 204.878 Q1862.11 204.714 1862.28 204.714 Q1862.44 204.673 1863.02 204.632 Q1866.13 204.428 1868.55 202.952 Q1871.01 201.435 1873.35 197.541 L1902.53 148.518 Q1902.82 148.026 1903.02 147.78 Q1903.23 147.534 1903.64 147.329 Q1904.09 147.125 1904.74 147.125 Q1905.77 147.125 1905.97 147.452 Q1906.18 147.739 1906.3 149.133 L1911.42 201.599 Q1911.55 202.706 1911.63 203.157 Q1911.75 203.567 1912.29 204.018 Q1912.86 204.428 1913.88 204.551 Q1914.95 204.632 1916.92 204.632 Q1917.65 204.632 1917.94 204.673 Q1918.23 204.673 1918.52 204.878 Q1918.84 205.083 1918.84 205.534 M1902.61 185.204 L1899.95 157.536 L1883.39 185.204 L1902.61 185.204 Z" fill="#000000" fill-rule="nonzero" fill-opacity="1" /><path clip-path="url(#clip390)" d="M1955.22 191.303 L1946.76 225.275 Q1946.41 226.795 1946.41 228.087 Q1946.41 230.784 1948.16 230.784 Q1949.02 230.784 1949.71 230.238 Q1950.4 229.693 1950.94 228.546 Q1951.49 227.398 1951.83 226.336 Q1952.18 225.246 1952.64 223.524 Q1952.78 222.836 1952.9 222.664 Q1953.04 222.463 1953.44 222.463 Q1954.16 222.463 1954.16 223.037 Q1953.38 226.738 1952.38 228.861 Q1950.77 232.103 1948.05 232.103 Q1945.98 232.103 1944.52 230.841 Q1943.05 229.579 1942.71 227.685 Q1938.95 232.103 1935.05 232.103 Q1931.61 232.103 1929.43 229.492 Q1927.24 226.853 1927.24 222.692 Q1927.24 218.503 1929.31 214.486 Q1931.41 210.469 1934.7 207.973 Q1938 205.477 1941.39 205.477 Q1944.98 205.477 1946.81 209.236 L1950.34 195.291 L1950.51 194.143 Q1950.51 193.799 1950.37 193.627 Q1950.26 193.426 1949.57 193.283 Q1948.91 193.139 1947.59 193.139 Q1947.04 193.139 1946.78 193.11 Q1946.55 193.082 1946.35 192.938 Q1946.15 192.766 1946.15 192.422 Q1946.15 191.418 1946.99 191.303 Q1952.49 190.672 1954.45 190.672 Q1954.79 190.672 1954.99 190.844 Q1955.19 190.987 1955.19 191.159 L1955.22 191.303 M1946.1 211.933 Q1946.1 211.674 1945.89 210.957 Q1945.69 210.24 1945.23 209.236 Q1944.78 208.231 1943.77 207.514 Q1942.8 206.768 1941.48 206.768 Q1939.7 206.768 1937.83 208.289 Q1936 209.809 1934.65 212.392 Q1933.61 214.458 1932.5 218.79 Q1931.41 223.123 1931.41 225.275 Q1931.41 226.595 1931.69 227.771 Q1932.01 228.919 1932.9 229.865 Q1933.79 230.784 1935.16 230.784 Q1938.52 230.784 1941.82 226.623 Q1942.45 225.906 1942.6 225.619 Q1942.77 225.303 1943 224.443 L1945.92 212.937 Q1946.1 212.076 1946.1 211.933 Z" fill="#000000" fill-rule="nonzero" fill-opacity="1" /><path clip-path="url(#clip390)" d="M2001.68 160.013 L2000.97 161.19 Q1996.52 159.267 1990.98 156.197 Q1985.44 159.267 1981 161.19 L1980.31 160.013 Q1985.16 155.796 1990.98 152.553 Q1996.86 155.824 2001.68 160.013 Z" fill="#000000" fill-rule="nonzero" fill-opacity="1" /><path clip-path="url(#clip390)" d="M2005.72 175.653 Q2005.72 177.948 2004.28 179.26 Q2002.85 180.531 2001.21 180.531 Q1999.65 180.531 1998.83 179.629 Q1998.01 178.727 1998.01 177.58 Q1998.01 176.022 1999.16 174.669 Q2000.31 173.317 2002.03 173.03 Q2000.35 171.964 1997.85 171.964 Q1996.21 171.964 1994.77 172.825 Q1993.38 173.686 1992.52 174.792 Q1991.7 175.899 1990.96 177.498 Q1990.27 179.055 1989.98 179.998 Q1989.73 180.9 1989.53 181.883 L1986.66 193.36 Q1985.26 198.812 1985.26 200.739 Q1985.26 203.116 1986.41 204.714 Q1987.56 206.272 1989.86 206.272 Q1990.76 206.272 1991.78 206.026 Q1992.81 205.739 1994.12 205.001 Q1995.47 204.223 1996.66 203.075 Q1997.89 201.886 1999.08 199.878 Q2000.27 197.869 2001.05 195.287 Q2001.29 194.385 2002.11 194.385 Q2003.14 194.385 2003.14 195.205 Q2003.14 195.902 2002.56 197.377 Q2002.03 198.812 2000.84 200.698 Q1999.69 202.542 1998.18 204.223 Q1996.66 205.862 1994.41 207.01 Q1992.15 208.158 1989.69 208.158 Q1986.17 208.158 1983.83 206.272 Q1981.49 204.387 1980.63 201.763 Q1980.43 202.132 1980.14 202.624 Q1979.85 203.116 1978.99 204.223 Q1978.17 205.288 1977.23 206.108 Q1976.29 206.887 1974.81 207.502 Q1973.38 208.158 1971.82 208.158 Q1969.85 208.158 1968.09 207.584 Q1966.37 207.01 1965.14 205.698 Q1963.91 204.387 1963.91 202.583 Q1963.91 200.575 1965.26 199.181 Q1966.66 197.746 1968.54 197.746 Q1969.73 197.746 1970.67 198.443 Q1971.66 199.14 1971.66 200.657 Q1971.66 202.337 1970.51 203.608 Q1969.36 204.878 1967.72 205.206 Q1969.4 206.272 1971.9 206.272 Q1974.61 206.272 1976.74 203.895 Q1978.87 201.517 1979.9 197.541 Q1982.44 187.991 1983.42 183.728 Q1984.4 179.424 1984.4 177.58 Q1984.4 175.858 1983.95 174.669 Q1983.5 173.481 1982.72 172.948 Q1981.99 172.374 1981.29 172.169 Q1980.63 171.964 1979.9 171.964 Q1978.67 171.964 1977.27 172.456 Q1975.92 172.948 1974.28 174.095 Q1972.68 175.202 1971.16 177.498 Q1969.65 179.793 1968.62 182.949 Q1968.42 183.892 1967.52 183.892 Q1966.53 183.851 1966.53 183.031 Q1966.53 182.334 1967.07 180.9 Q1967.64 179.424 1968.79 177.58 Q1969.98 175.735 1971.49 174.095 Q1973.05 172.415 1975.3 171.267 Q1977.6 170.12 1980.06 170.12 Q1981.17 170.12 1982.23 170.365 Q1983.34 170.57 1984.65 171.185 Q1986 171.8 1987.19 173.153 Q1988.38 174.505 1989.12 176.473 Q1989.61 175.53 1990.27 174.628 Q1990.96 173.727 1992.03 172.62 Q1993.13 171.472 1994.65 170.816 Q1996.21 170.12 1997.93 170.12 Q1999.61 170.12 2001.25 170.57 Q2002.89 170.98 2004.28 172.333 Q2005.72 173.645 2005.72 175.653 Z" fill="#000000" fill-rule="nonzero" fill-opacity="1" /><path clip-path="url(#clip390)" d="M2043.19 192.24 L2034.72 226.212 Q2034.38 227.733 2034.38 229.024 Q2034.38 231.721 2036.13 231.721 Q2036.99 231.721 2037.68 231.176 Q2038.37 230.631 2038.91 229.483 Q2039.46 228.335 2039.8 227.274 Q2040.14 226.183 2040.6 224.462 Q2040.75 223.773 2040.86 223.601 Q2041.01 223.4 2041.41 223.4 Q2042.12 223.4 2042.12 223.974 Q2041.35 227.675 2040.35 229.799 Q2038.74 233.041 2036.01 233.041 Q2033.95 233.041 2032.48 231.779 Q2031.02 230.516 2030.68 228.622 Q2026.92 233.041 2023.02 233.041 Q2019.57 233.041 2017.39 230.43 Q2015.21 227.79 2015.21 223.63 Q2015.21 219.441 2017.28 215.424 Q2019.37 211.407 2022.67 208.911 Q2025.97 206.414 2029.36 206.414 Q2032.94 206.414 2034.78 210.173 L2038.31 196.229 L2038.48 195.081 Q2038.48 194.737 2038.34 194.564 Q2038.22 194.364 2037.53 194.22 Q2036.87 194.077 2035.55 194.077 Q2035.01 194.077 2034.75 194.048 Q2034.52 194.019 2034.32 193.876 Q2034.12 193.704 2034.12 193.359 Q2034.12 192.355 2034.95 192.24 Q2040.46 191.609 2042.41 191.609 Q2042.76 191.609 2042.96 191.781 Q2043.16 191.925 2043.16 192.097 L2043.19 192.24 M2034.06 212.87 Q2034.06 212.612 2033.86 211.895 Q2033.66 211.177 2033.2 210.173 Q2032.74 209.169 2031.74 208.452 Q2030.76 207.706 2029.44 207.706 Q2027.66 207.706 2025.8 209.226 Q2023.96 210.747 2022.61 213.329 Q2021.58 215.395 2020.46 219.728 Q2019.37 224.06 2019.37 226.212 Q2019.37 227.532 2019.66 228.708 Q2019.97 229.856 2020.86 230.803 Q2021.75 231.721 2023.13 231.721 Q2026.49 231.721 2029.79 227.561 Q2030.42 226.843 2030.56 226.556 Q2030.73 226.241 2030.96 225.38 L2033.89 213.874 Q2034.06 213.014 2034.06 212.87 Z" fill="#000000" fill-rule="nonzero" fill-opacity="1" /><path clip-path="url(#clip390)" d="M2130.58 185.04 Q2131.08 185.531 2131.08 186.228 Q2131.08 186.925 2130.58 187.417 Q2130.09 187.909 2129.4 187.909 L2076.85 187.909 Q2076.15 187.909 2075.66 187.417 Q2075.17 186.925 2075.17 186.228 Q2075.17 185.531 2075.66 185.04 Q2076.15 184.548 2076.85 184.548 L2129.4 184.548 Q2130.09 184.548 2130.58 185.04 Z" fill="#000000" fill-rule="nonzero" fill-opacity="1" /><path clip-path="url(#clip390)" d="M2201.86 173.317 Q2201.86 173.891 2201.49 175.243 L2193.46 207.297 Q2191.7 214.429 2185.96 219.43 Q2180.26 224.43 2173.78 224.43 Q2169.89 224.43 2167.39 222.34 Q2164.89 220.29 2164.89 217.134 Q2164.89 214.347 2166.36 212.994 Q2167.84 211.683 2169.6 211.683 Q2170.18 211.683 2170.79 211.847 Q2171.41 212.011 2172.06 212.707 Q2172.72 213.404 2172.72 214.593 Q2172.72 216.519 2171.04 218.036 Q2170.22 218.733 2169.44 218.897 Q2168.7 219.061 2167.43 219.061 Q2167.92 220.208 2168.82 220.987 Q2169.73 221.766 2170.75 222.053 Q2171.77 222.381 2172.43 222.463 Q2173.13 222.586 2173.78 222.586 Q2179.03 222.586 2183.05 217.298 Q2184.24 215.7 2185.1 214.101 Q2186 212.543 2186.65 210.617 Q2187.31 208.731 2187.6 207.707 Q2187.92 206.682 2188.5 204.346 Q2184.69 208.158 2180.01 208.158 Q2178.05 208.158 2176.28 207.625 Q2174.56 207.092 2173.05 205.985 Q2171.53 204.837 2170.63 202.829 Q2169.77 200.82 2169.77 198.156 Q2169.77 195.328 2170.87 191.475 Q2171.98 187.622 2174.64 180.531 Q2176.08 176.555 2176.08 174.628 Q2176.08 173.686 2175.87 173.112 Q2175.67 172.497 2175.26 172.292 Q2174.85 172.046 2174.6 172.005 Q2174.4 171.964 2173.99 171.964 Q2171.57 171.964 2169.32 174.423 Q2167.06 176.883 2165.5 182.375 Q2165.18 183.4 2164.97 183.646 Q2164.77 183.892 2164.15 183.892 Q2163.13 183.851 2163.13 183.031 Q2163.13 182.703 2163.5 181.433 Q2163.86 180.121 2164.72 178.194 Q2165.63 176.227 2166.86 174.464 Q2168.09 172.661 2170.01 171.39 Q2171.98 170.12 2174.23 170.12 Q2177.31 170.12 2179.19 172.128 Q2181.12 174.095 2181.12 177.006 Q2181.12 178.194 2180.79 179.26 Q2180.51 180.285 2179.44 183.031 Q2175.14 194.098 2175.14 199.509 Q2175.14 200.82 2175.34 201.927 Q2175.59 202.993 2176.12 204.059 Q2176.65 205.083 2177.72 205.698 Q2178.83 206.272 2180.34 206.272 Q2182.27 206.272 2184.07 205.37 Q2185.92 204.428 2187.06 203.157 Q2188.25 201.886 2188.95 200.82 Q2189.69 199.714 2189.85 199.14 L2193.62 184.056 L2195.3 177.334 Q2196.08 173.686 2196.45 172.784 Q2196.94 171.923 2197.8 171.472 Q2198.66 171.021 2199.4 171.021 Q2200.43 171.021 2201.12 171.636 Q2201.86 172.251 2201.86 173.317 Z" fill="#000000" fill-rule="nonzero" fill-opacity="1" /><path clip-path="url(#clip390)" d="M2203.84 225.619 L2203.84 146.838 Q2203.84 144.337 2205.52 144.337 Q2207.21 144.337 2207.21 146.961 L2207.21 225.414 Q2207.21 228.119 2205.52 228.119 Q2203.84 228.119 2203.84 225.619 M2213.11 225.619 L2213.11 147.452 Q2213.11 144.337 2214.79 144.337 Q2216.47 144.337 2216.47 146.961 L2216.47 225.414 Q2216.47 228.119 2214.79 228.119 Q2213.11 228.119 2213.11 225.619 Z" fill="#000000" fill-rule="nonzero" fill-opacity="1" /><path clip-path="url(#clip390)" d="M2225.3 251.175 Q2225.3 250.114 2225.39 249.798 Q2225.5 249.483 2225.96 248.995 L2237.24 236.427 Q2243.41 229.484 2243.41 223.43 Q2243.41 219.499 2241.34 216.687 Q2239.31 213.875 2235.55 213.875 Q2232.96 213.875 2230.78 215.453 Q2228.6 217.031 2227.6 219.843 Q2227.77 219.786 2228.37 219.786 Q2229.84 219.786 2230.64 220.704 Q2231.47 221.622 2231.47 222.856 Q2231.47 224.434 2230.44 225.209 Q2229.44 225.955 2228.43 225.955 Q2228.03 225.955 2227.48 225.869 Q2226.97 225.783 2226.14 224.979 Q2225.3 224.147 2225.3 222.684 Q2225.3 218.581 2228.4 215.31 Q2231.53 212.039 2236.29 212.039 Q2241.69 212.039 2245.22 215.252 Q2248.77 218.437 2248.77 223.43 Q2248.77 225.18 2248.23 226.787 Q2247.71 228.365 2247 229.599 Q2246.31 230.832 2244.41 232.812 Q2242.52 234.792 2241 236.198 Q2239.48 237.604 2236.06 240.588 L2229.84 246.642 L2240.42 246.642 Q2245.59 246.642 2245.99 246.183 Q2246.57 245.351 2247.28 240.961 L2248.77 240.961 L2247.11 251.175 L2225.3 251.175 Z" fill="#000000" fill-rule="nonzero" fill-opacity="1" /><path clip-path="url(#clip390)" d="M1724.43 262.943 L1683.08 345.65 L1765.79 345.65 L1724.43 262.943 Z" fill="#0000ff" fill-rule="evenodd" fill-opacity="1" stroke="none"/>
<path clip-path="url(#clip390)" d="M1819.68 331.861 L1819.68 253.079 Q1819.68 250.579 1821.36 250.579 Q1823.04 250.579 1823.04 253.202 L1823.04 331.656 Q1823.04 334.361 1821.36 334.361 Q1819.68 334.361 1819.68 331.861 M1828.95 331.861 L1828.95 253.694 Q1828.95 250.579 1830.63 250.579 Q1832.31 250.579 1832.31 253.202 L1832.31 331.656 Q1832.31 334.361 1830.63 334.361 Q1828.95 334.361 1828.95 331.861 Z" fill="#000000" fill-rule="nonzero" fill-opacity="1" /><path clip-path="url(#clip390)" d="M1918.84 311.776 Q1918.84 312.555 1918.52 312.965 Q1918.23 313.334 1917.94 313.416 Q1917.7 313.457 1917.33 313.457 Q1916.26 313.457 1912.57 313.334 Q1908.88 313.211 1907.82 313.211 Q1906.1 313.211 1902.57 313.334 Q1899.05 313.457 1897.32 313.457 Q1896.18 313.457 1896.18 312.514 Q1896.18 311.899 1896.3 311.571 Q1896.42 311.202 1896.75 311.079 Q1897.12 310.915 1897.32 310.915 Q1897.57 310.874 1898.18 310.874 Q1899 310.874 1899.87 310.792 Q1900.73 310.669 1901.79 310.423 Q1902.86 310.178 1903.51 309.563 Q1904.21 308.948 1904.21 308.087 Q1904.21 307.718 1903.92 304.685 Q1903.64 301.652 1903.27 298.127 Q1902.9 294.561 1902.86 294.069 L1881.79 294.069 Q1879.86 297.389 1878.51 299.684 Q1877.16 301.98 1876.67 302.758 Q1876.17 303.537 1875.89 304.029 Q1875.6 304.521 1875.44 304.808 Q1874.25 306.98 1874.25 307.923 Q1874.25 310.546 1878.18 310.874 Q1879.53 310.874 1879.53 311.858 Q1879.53 312.596 1879.21 313.006 Q1878.88 313.375 1878.59 313.416 Q1878.35 313.457 1877.94 313.457 Q1876.58 313.457 1873.76 313.334 Q1870.93 313.211 1869.53 313.211 Q1868.34 313.211 1865.89 313.334 Q1863.43 313.457 1862.32 313.457 Q1861.83 313.457 1861.54 313.17 Q1861.25 312.883 1861.25 312.514 Q1861.25 311.94 1861.34 311.612 Q1861.46 311.284 1861.79 311.12 Q1862.11 310.956 1862.28 310.956 Q1862.44 310.915 1863.02 310.874 Q1866.13 310.669 1868.55 309.194 Q1871.01 307.677 1873.35 303.783 L1902.53 254.76 Q1902.82 254.268 1903.02 254.022 Q1903.23 253.776 1903.64 253.571 Q1904.09 253.366 1904.74 253.366 Q1905.77 253.366 1905.97 253.694 Q1906.18 253.981 1906.3 255.375 L1911.42 307.841 Q1911.55 308.948 1911.63 309.399 Q1911.75 309.809 1912.29 310.26 Q1912.86 310.669 1913.88 310.792 Q1914.95 310.874 1916.92 310.874 Q1917.65 310.874 1917.94 310.915 Q1918.23 310.915 1918.52 311.12 Q1918.84 311.325 1918.84 311.776 M1902.61 291.445 L1899.95 263.778 L1883.39 291.445 L1902.61 291.445 Z" fill="#000000" fill-rule="nonzero" fill-opacity="1" /><path clip-path="url(#clip390)" d="M1955.22 297.545 L1946.76 331.517 Q1946.41 333.037 1946.41 334.328 Q1946.41 337.026 1948.16 337.026 Q1949.02 337.026 1949.71 336.48 Q1950.4 335.935 1950.94 334.787 Q1951.49 333.64 1951.83 332.578 Q1952.18 331.488 1952.64 329.766 Q1952.78 329.078 1952.9 328.906 Q1953.04 328.705 1953.44 328.705 Q1954.16 328.705 1954.16 329.279 Q1953.38 332.98 1952.38 335.103 Q1950.77 338.345 1948.05 338.345 Q1945.98 338.345 1944.52 337.083 Q1943.05 335.82 1942.71 333.927 Q1938.95 338.345 1935.05 338.345 Q1931.61 338.345 1929.43 335.734 Q1927.24 333.095 1927.24 328.934 Q1927.24 324.745 1929.31 320.728 Q1931.41 316.711 1934.7 314.215 Q1938 311.719 1941.39 311.719 Q1944.98 311.719 1946.81 315.477 L1950.34 301.533 L1950.51 300.385 Q1950.51 300.041 1950.37 299.869 Q1950.26 299.668 1949.57 299.524 Q1948.91 299.381 1947.59 299.381 Q1947.04 299.381 1946.78 299.352 Q1946.55 299.324 1946.35 299.18 Q1946.15 299.008 1946.15 298.664 Q1946.15 297.659 1946.99 297.545 Q1952.49 296.913 1954.45 296.913 Q1954.79 296.913 1954.99 297.086 Q1955.19 297.229 1955.19 297.401 L1955.22 297.545 M1946.1 318.175 Q1946.1 317.916 1945.89 317.199 Q1945.69 316.482 1945.23 315.477 Q1944.78 314.473 1943.77 313.756 Q1942.8 313.01 1941.48 313.01 Q1939.7 313.01 1937.83 314.531 Q1936 316.051 1934.65 318.634 Q1933.61 320.699 1932.5 325.032 Q1931.41 329.365 1931.41 331.517 Q1931.41 332.836 1931.69 334.013 Q1932.01 335.16 1932.9 336.107 Q1933.79 337.026 1935.16 337.026 Q1938.52 337.026 1941.82 332.865 Q1942.45 332.148 1942.6 331.861 Q1942.77 331.545 1943 330.684 L1945.92 319.179 Q1946.1 318.318 1946.1 318.175 Z" fill="#000000" fill-rule="nonzero" fill-opacity="1" /><path clip-path="url(#clip390)" d="M2001.68 266.255 L2000.97 267.432 Q1996.52 265.509 1990.98 262.439 Q1985.44 265.509 1981 267.432 L1980.31 266.255 Q1985.16 262.038 1990.98 258.795 Q1996.86 262.066 2001.68 266.255 Z" fill="#000000" fill-rule="nonzero" fill-opacity="1" /><path clip-path="url(#clip390)" d="M2005.72 281.895 Q2005.72 284.19 2004.28 285.502 Q2002.85 286.773 2001.21 286.773 Q1999.65 286.773 1998.83 285.871 Q1998.01 284.969 1998.01 283.821 Q1998.01 282.264 1999.16 280.911 Q2000.31 279.559 2002.03 279.272 Q2000.35 278.206 1997.85 278.206 Q1996.21 278.206 1994.77 279.067 Q1993.38 279.927 1992.52 281.034 Q1991.7 282.141 1990.96 283.739 Q1990.27 285.297 1989.98 286.24 Q1989.73 287.142 1989.53 288.125 L1986.66 299.602 Q1985.26 305.054 1985.26 306.98 Q1985.26 309.358 1986.41 310.956 Q1987.56 312.514 1989.86 312.514 Q1990.76 312.514 1991.78 312.268 Q1992.81 311.981 1994.12 311.243 Q1995.47 310.464 1996.66 309.317 Q1997.89 308.128 1999.08 306.12 Q2000.27 304.111 2001.05 301.529 Q2001.29 300.627 2002.11 300.627 Q2003.14 300.627 2003.14 301.447 Q2003.14 302.144 2002.56 303.619 Q2002.03 305.054 2000.84 306.939 Q1999.69 308.784 1998.18 310.464 Q1996.66 312.104 1994.41 313.252 Q1992.15 314.399 1989.69 314.399 Q1986.17 314.399 1983.83 312.514 Q1981.49 310.628 1980.63 308.005 Q1980.43 308.374 1980.14 308.866 Q1979.85 309.358 1978.99 310.464 Q1978.17 311.53 1977.23 312.35 Q1976.29 313.129 1974.81 313.744 Q1973.38 314.399 1971.82 314.399 Q1969.85 314.399 1968.09 313.826 Q1966.37 313.252 1965.14 311.94 Q1963.91 310.628 1963.91 308.825 Q1963.91 306.816 1965.26 305.423 Q1966.66 303.988 1968.54 303.988 Q1969.73 303.988 1970.67 304.685 Q1971.66 305.382 1971.66 306.898 Q1971.66 308.579 1970.51 309.85 Q1969.36 311.12 1967.72 311.448 Q1969.4 312.514 1971.9 312.514 Q1974.61 312.514 1976.74 310.137 Q1978.87 307.759 1979.9 303.783 Q1982.44 294.233 1983.42 289.97 Q1984.4 285.666 1984.4 283.821 Q1984.4 282.1 1983.95 280.911 Q1983.5 279.723 1982.72 279.19 Q1981.99 278.616 1981.29 278.411 Q1980.63 278.206 1979.9 278.206 Q1978.67 278.206 1977.27 278.698 Q1975.92 279.19 1974.28 280.337 Q1972.68 281.444 1971.16 283.739 Q1969.65 286.035 1968.62 289.191 Q1968.42 290.134 1967.52 290.134 Q1966.53 290.093 1966.53 289.273 Q1966.53 288.576 1967.07 287.142 Q1967.64 285.666 1968.79 283.821 Q1969.98 281.977 1971.49 280.337 Q1973.05 278.657 1975.3 277.509 Q1977.6 276.361 1980.06 276.361 Q1981.17 276.361 1982.23 276.607 Q1983.34 276.812 1984.65 277.427 Q1986 278.042 1987.19 279.395 Q1988.38 280.747 1989.12 282.715 Q1989.61 281.772 1990.27 280.87 Q1990.96 279.968 1992.03 278.862 Q1993.13 277.714 1994.65 277.058 Q1996.21 276.361 1997.93 276.361 Q1999.61 276.361 2001.25 276.812 Q2002.89 277.222 2004.28 278.575 Q2005.72 279.886 2005.72 281.895 Z" fill="#000000" fill-rule="nonzero" fill-opacity="1" /><path clip-path="url(#clip390)" d="M2043.19 298.482 L2034.72 332.454 Q2034.38 333.975 2034.38 335.266 Q2034.38 337.963 2036.13 337.963 Q2036.99 337.963 2037.68 337.418 Q2038.37 336.873 2038.91 335.725 Q2039.46 334.577 2039.8 333.516 Q2040.14 332.425 2040.6 330.704 Q2040.75 330.015 2040.86 329.843 Q2041.01 329.642 2041.41 329.642 Q2042.12 329.642 2042.12 330.216 Q2041.35 333.917 2040.35 336.041 Q2038.74 339.283 2036.01 339.283 Q2033.95 339.283 2032.48 338.02 Q2031.02 336.758 2030.68 334.864 Q2026.92 339.283 2023.02 339.283 Q2019.57 339.283 2017.39 336.672 Q2015.21 334.032 2015.21 329.872 Q2015.21 325.683 2017.28 321.666 Q2019.37 317.649 2022.67 315.152 Q2025.97 312.656 2029.36 312.656 Q2032.94 312.656 2034.78 316.415 L2038.31 302.47 L2038.48 301.323 Q2038.48 300.978 2038.34 300.806 Q2038.22 300.605 2037.53 300.462 Q2036.87 300.318 2035.55 300.318 Q2035.01 300.318 2034.75 300.29 Q2034.52 300.261 2034.32 300.118 Q2034.12 299.945 2034.12 299.601 Q2034.12 298.597 2034.95 298.482 Q2040.46 297.851 2042.41 297.851 Q2042.76 297.851 2042.96 298.023 Q2043.16 298.167 2043.16 298.339 L2043.19 298.482 M2034.06 319.112 Q2034.06 318.854 2033.86 318.136 Q2033.66 317.419 2033.2 316.415 Q2032.74 315.411 2031.74 314.693 Q2030.76 313.947 2029.44 313.947 Q2027.66 313.947 2025.8 315.468 Q2023.96 316.989 2022.61 319.571 Q2021.58 321.637 2020.46 325.97 Q2019.37 330.302 2019.37 332.454 Q2019.37 333.774 2019.66 334.95 Q2019.97 336.098 2020.86 337.045 Q2021.75 337.963 2023.13 337.963 Q2026.49 337.963 2029.79 333.803 Q2030.42 333.085 2030.56 332.798 Q2030.73 332.483 2030.96 331.622 L2033.89 320.116 Q2034.06 319.255 2034.06 319.112 Z" fill="#000000" fill-rule="nonzero" fill-opacity="1" /><path clip-path="url(#clip390)" d="M2130.58 291.281 Q2131.08 291.773 2131.08 292.47 Q2131.08 293.167 2130.58 293.659 Q2130.09 294.151 2129.4 294.151 L2076.85 294.151 Q2076.15 294.151 2075.66 293.659 Q2075.17 293.167 2075.17 292.47 Q2075.17 291.773 2075.66 291.281 Q2076.15 290.79 2076.85 290.79 L2129.4 290.79 Q2130.09 290.79 2130.58 291.281 Z" fill="#000000" fill-rule="nonzero" fill-opacity="1" /><path clip-path="url(#clip390)" d="M2204.98 260.048 Q2204.98 262.302 2203.54 263.696 Q2202.15 265.089 2200.39 265.089 Q2199.11 265.089 2198.17 264.311 Q2197.27 263.532 2197.27 262.179 Q2197.27 260.785 2198.34 259.31 Q2199.4 257.834 2201.82 257.629 Q2200.22 256.113 2197.68 256.113 Q2196.41 256.113 2195.34 256.932 Q2194.32 257.711 2193.75 258.982 Q2193.13 260.294 2191.74 267.713 Q2191.29 270.131 2190.88 272.467 Q2190.47 274.804 2189.97 277.263 L2196.94 277.263 Q2197.84 277.263 2198.21 277.304 Q2198.58 277.345 2198.87 277.55 Q2199.2 277.755 2199.2 278.206 Q2199.2 279.354 2198.66 279.641 Q2198.17 279.886 2196.7 279.886 L2189.48 279.886 L2184.44 306.489 Q2184.32 307.267 2183.78 309.727 Q2183.29 312.145 2182.1 316.121 Q2180.92 320.138 2179.73 322.515 Q2179.07 323.868 2178.21 325.139 Q2177.39 326.45 2176.2 327.762 Q2175.01 329.074 2173.46 329.852 Q2171.9 330.672 2170.26 330.672 Q2167.47 330.672 2165.3 329.115 Q2163.13 327.557 2163.13 324.893 Q2163.13 322.638 2164.52 321.245 Q2165.95 319.851 2167.72 319.851 Q2168.99 319.851 2169.89 320.63 Q2170.83 321.409 2170.83 322.761 Q2170.83 323.335 2170.63 323.991 Q2170.42 324.647 2169.97 325.385 Q2169.52 326.163 2168.54 326.696 Q2167.55 327.229 2166.2 327.311 Q2167.8 328.828 2170.26 328.828 Q2171.04 328.828 2171.73 328.5 Q2172.43 328.213 2173 327.475 Q2173.62 326.737 2174.07 325.999 Q2174.52 325.303 2174.97 323.95 Q2175.42 322.638 2175.71 321.655 Q2176 320.671 2176.37 318.908 Q2176.78 317.146 2176.98 316.08 Q2177.19 315.055 2177.55 313.047 L2183.83 279.886 L2178.29 279.886 Q2177.31 279.886 2176.9 279.845 Q2176.53 279.804 2176.24 279.6 Q2175.96 279.354 2175.96 278.862 Q2175.96 278.083 2176.28 277.755 Q2176.65 277.386 2177.06 277.345 Q2177.47 277.263 2178.46 277.263 L2184.28 277.263 Q2186.24 266.893 2187.02 264.106 Q2187.92 261.154 2189.32 259.105 Q2190.71 257.014 2192.27 256.031 Q2193.83 255.047 2195.1 254.678 Q2196.41 254.268 2197.68 254.268 Q2200.55 254.268 2202.76 255.826 Q2204.98 257.342 2204.98 260.048 Z" fill="#000000" fill-rule="nonzero" fill-opacity="1" /><path clip-path="url(#clip390)" d="M2203.84 331.861 L2203.84 253.079 Q2203.84 250.579 2205.52 250.579 Q2207.21 250.579 2207.21 253.202 L2207.21 331.656 Q2207.21 334.361 2205.52 334.361 Q2203.84 334.361 2203.84 331.861 M2213.11 331.861 L2213.11 253.694 Q2213.11 250.579 2214.79 250.579 Q2216.47 250.579 2216.47 253.202 L2216.47 331.656 Q2216.47 334.361 2214.79 334.361 Q2213.11 334.361 2213.11 331.861 Z" fill="#000000" fill-rule="nonzero" fill-opacity="1" /><path clip-path="url(#clip390)" d="M2225.3 357.417 Q2225.3 356.356 2225.39 356.04 Q2225.5 355.724 2225.96 355.237 L2237.24 342.669 Q2243.41 335.726 2243.41 329.672 Q2243.41 325.741 2241.34 322.929 Q2239.31 320.117 2235.55 320.117 Q2232.96 320.117 2230.78 321.695 Q2228.6 323.273 2227.6 326.085 Q2227.77 326.028 2228.37 326.028 Q2229.84 326.028 2230.64 326.946 Q2231.47 327.864 2231.47 329.098 Q2231.47 330.676 2230.44 331.451 Q2229.44 332.197 2228.43 332.197 Q2228.03 332.197 2227.48 332.111 Q2226.97 332.024 2226.14 331.221 Q2225.3 330.389 2225.3 328.926 Q2225.3 324.823 2228.4 321.552 Q2231.53 318.281 2236.29 318.281 Q2241.69 318.281 2245.22 321.494 Q2248.77 324.679 2248.77 329.672 Q2248.77 331.422 2248.23 333.029 Q2247.71 334.607 2247 335.841 Q2246.31 337.074 2244.41 339.054 Q2242.52 341.034 2241 342.44 Q2239.48 343.846 2236.06 346.83 L2229.84 352.884 L2240.42 352.884 Q2245.59 352.884 2245.99 352.425 Q2246.57 351.593 2247.28 347.203 L2248.77 347.203 L2247.11 357.417 L2225.3 357.417 Z" fill="#000000" fill-rule="nonzero" fill-opacity="1" /><polyline clip-path="url(#clip390)" style="stroke:#008000; stroke-linecap:round; stroke-linejoin:round; stroke-width:14; stroke-opacity:1; fill:none" points="1653,410.538 1795.87,410.538 "/>
<path clip-path="url(#clip390)" d="M1819.68 438.103 L1819.68 359.321 Q1819.68 356.821 1821.36 356.821 Q1823.04 356.821 1823.04 359.444 L1823.04 437.898 Q1823.04 440.603 1821.36 440.603 Q1819.68 440.603 1819.68 438.103 M1828.95 438.103 L1828.95 359.936 Q1828.95 356.821 1830.63 356.821 Q1832.31 356.821 1832.31 359.444 L1832.31 437.898 Q1832.31 440.603 1830.63 440.603 Q1828.95 440.603 1828.95 438.103 Z" fill="#000000" fill-rule="nonzero" fill-opacity="1" /><path clip-path="url(#clip390)" d="M1892.26 385.8 Q1892.26 386.374 1891.89 387.727 L1883.86 419.781 Q1882.09 426.913 1876.36 431.913 Q1870.66 436.914 1864.18 436.914 Q1860.29 436.914 1857.79 434.824 Q1855.29 432.774 1855.29 429.618 Q1855.29 426.831 1856.76 425.478 Q1858.24 424.166 1860 424.166 Q1860.58 424.166 1861.19 424.33 Q1861.81 424.494 1862.46 425.191 Q1863.12 425.888 1863.12 427.077 Q1863.12 429.003 1861.44 430.52 Q1860.62 431.217 1859.84 431.381 Q1859.1 431.544 1857.83 431.544 Q1858.32 432.692 1859.22 433.471 Q1860.12 434.25 1861.15 434.537 Q1862.17 434.865 1862.83 434.947 Q1863.53 435.07 1864.18 435.07 Q1869.43 435.07 1873.45 429.782 Q1874.63 428.183 1875.5 426.585 Q1876.4 425.027 1877.05 423.101 Q1877.71 421.215 1878 420.19 Q1878.32 419.166 1878.9 416.829 Q1875.09 420.641 1870.41 420.641 Q1868.45 420.641 1866.68 420.108 Q1864.96 419.576 1863.44 418.469 Q1861.93 417.321 1861.03 415.313 Q1860.17 413.304 1860.17 410.64 Q1860.17 407.812 1861.27 403.959 Q1862.38 400.106 1865.04 393.015 Q1866.48 389.039 1866.48 387.112 Q1866.48 386.169 1866.27 385.595 Q1866.07 384.981 1865.66 384.776 Q1865.25 384.53 1865 384.489 Q1864.8 384.448 1864.39 384.448 Q1861.97 384.448 1859.71 386.907 Q1857.46 389.366 1855.9 394.859 Q1855.57 395.884 1855.37 396.13 Q1855.16 396.376 1854.55 396.376 Q1853.53 396.335 1853.53 395.515 Q1853.53 395.187 1853.89 393.916 Q1854.26 392.605 1855.12 390.678 Q1856.03 388.711 1857.26 386.948 Q1858.49 385.145 1860.41 383.874 Q1862.38 382.603 1864.63 382.603 Q1867.71 382.603 1869.59 384.612 Q1871.52 386.579 1871.52 389.489 Q1871.52 390.678 1871.19 391.744 Q1870.9 392.769 1869.84 395.515 Q1865.54 406.582 1865.54 411.993 Q1865.54 413.304 1865.74 414.411 Q1865.99 415.477 1866.52 416.542 Q1867.05 417.567 1868.12 418.182 Q1869.22 418.756 1870.74 418.756 Q1872.67 418.756 1874.47 417.854 Q1876.32 416.911 1877.46 415.641 Q1878.65 414.37 1879.35 413.304 Q1880.09 412.198 1880.25 411.624 L1884.02 396.54 L1885.7 389.817 Q1886.48 386.169 1886.85 385.268 Q1887.34 384.407 1888.2 383.956 Q1889.06 383.505 1889.8 383.505 Q1890.83 383.505 1891.52 384.12 Q1892.26 384.735 1892.26 385.8 Z" fill="#000000" fill-rule="nonzero" fill-opacity="1" /><path clip-path="url(#clip390)" d="M1972.95 397.523 Q1973.44 398.015 1973.44 398.712 Q1973.44 399.409 1972.95 399.901 Q1972.46 400.393 1971.76 400.393 L1919.21 400.393 Q1918.52 400.393 1918.03 399.901 Q1917.53 399.409 1917.53 398.712 Q1917.53 398.015 1918.03 397.523 Q1918.52 397.031 1919.21 397.031 L1971.76 397.031 Q1972.46 397.031 1972.95 397.523 Z" fill="#000000" fill-rule="nonzero" fill-opacity="1" /><path clip-path="url(#clip390)" d="M2047.34 366.29 Q2047.34 368.544 2045.91 369.938 Q2044.52 371.331 2042.75 371.331 Q2041.48 371.331 2040.54 370.552 Q2039.64 369.774 2039.64 368.421 Q2039.64 367.027 2040.7 365.552 Q2041.77 364.076 2044.19 363.871 Q2042.59 362.355 2040.05 362.355 Q2038.78 362.355 2037.71 363.174 Q2036.69 363.953 2036.11 365.224 Q2035.5 366.535 2034.1 373.955 Q2033.65 376.373 2033.24 378.709 Q2032.83 381.046 2032.34 383.505 L2039.31 383.505 Q2040.21 383.505 2040.58 383.546 Q2040.95 383.587 2041.24 383.792 Q2041.56 383.997 2041.56 384.448 Q2041.56 385.595 2041.03 385.882 Q2040.54 386.128 2039.06 386.128 L2031.85 386.128 L2026.81 412.73 Q2026.69 413.509 2026.15 415.969 Q2025.66 418.387 2024.47 422.363 Q2023.28 426.38 2022.09 428.757 Q2021.44 430.11 2020.58 431.381 Q2019.76 432.692 2018.57 434.004 Q2017.38 435.315 2015.82 436.094 Q2014.27 436.914 2012.63 436.914 Q2009.84 436.914 2007.67 435.356 Q2005.49 433.799 2005.49 431.135 Q2005.49 428.88 2006.89 427.487 Q2008.32 426.093 2010.08 426.093 Q2011.36 426.093 2012.26 426.872 Q2013.2 427.65 2013.2 429.003 Q2013.2 429.577 2012.99 430.233 Q2012.79 430.889 2012.34 431.626 Q2011.89 432.405 2010.9 432.938 Q2009.92 433.471 2008.57 433.553 Q2010.17 435.07 2012.63 435.07 Q2013.4 435.07 2014.1 434.742 Q2014.8 434.455 2015.37 433.717 Q2015.99 432.979 2016.44 432.241 Q2016.89 431.544 2017.34 430.192 Q2017.79 428.88 2018.08 427.896 Q2018.36 426.913 2018.73 425.15 Q2019.14 423.388 2019.35 422.322 Q2019.55 421.297 2019.92 419.289 L2026.19 386.128 L2020.66 386.128 Q2019.68 386.128 2019.27 386.087 Q2018.9 386.046 2018.61 385.841 Q2018.32 385.595 2018.32 385.104 Q2018.32 384.325 2018.65 383.997 Q2019.02 383.628 2019.43 383.587 Q2019.84 383.505 2020.82 383.505 L2026.64 383.505 Q2028.61 373.135 2029.39 370.347 Q2030.29 367.396 2031.69 365.347 Q2033.08 363.256 2034.64 362.273 Q2036.19 361.289 2037.47 360.92 Q2038.78 360.51 2040.05 360.51 Q2042.92 360.51 2045.13 362.068 Q2047.34 363.584 2047.34 366.29 Z" fill="#000000" fill-rule="nonzero" fill-opacity="1" /><path clip-path="url(#clip390)" d="M2046.21 438.103 L2046.21 359.321 Q2046.21 356.821 2047.89 356.821 Q2049.57 356.821 2049.57 359.444 L2049.57 437.898 Q2049.57 440.603 2047.89 440.603 Q2046.21 440.603 2046.21 438.103 M2055.47 438.103 L2055.47 359.936 Q2055.47 356.821 2057.16 356.821 Q2058.84 356.821 2058.84 359.444 L2058.84 437.898 Q2058.84 440.603 2057.16 440.603 Q2055.47 440.603 2055.47 438.103 Z" fill="#000000" fill-rule="nonzero" fill-opacity="1" /><path clip-path="url(#clip390)" d="M2067.67 463.659 Q2067.67 462.598 2067.76 462.282 Q2067.87 461.966 2068.33 461.479 L2079.61 448.911 Q2085.78 441.968 2085.78 435.914 Q2085.78 431.983 2083.71 429.171 Q2081.67 426.359 2077.91 426.359 Q2075.33 426.359 2073.15 427.937 Q2070.97 429.515 2069.97 432.327 Q2070.14 432.27 2070.74 432.27 Q2072.2 432.27 2073.01 433.188 Q2073.84 434.106 2073.84 435.34 Q2073.84 436.918 2072.81 437.692 Q2071.8 438.438 2070.8 438.438 Q2070.4 438.438 2069.85 438.352 Q2069.34 438.266 2068.5 437.463 Q2067.67 436.631 2067.67 435.168 Q2067.67 431.065 2070.77 427.794 Q2073.9 424.523 2078.66 424.523 Q2084.05 424.523 2087.58 427.736 Q2091.14 430.921 2091.14 435.914 Q2091.14 437.664 2090.6 439.271 Q2090.08 440.849 2089.36 442.082 Q2088.67 443.316 2086.78 445.296 Q2084.89 447.276 2083.37 448.682 Q2081.85 450.088 2078.43 453.072 L2072.2 459.126 L2082.79 459.126 Q2087.96 459.126 2088.36 458.667 Q2088.93 457.835 2089.65 453.445 L2091.14 453.445 L2089.48 463.659 L2067.67 463.659 Z" fill="#000000" fill-rule="nonzero" fill-opacity="1" /></svg>
