<?xml version="1.0" encoding="utf-8"?>
<svg xmlns="http://www.w3.org/2000/svg" xmlns:xlink="http://www.w3.org/1999/xlink" width="600" height="400" viewBox="0 0 2400 1600">
<defs>
  <clipPath id="clip130">
    <rect x="0" y="0" width="2400" height="1600"/>
  </clipPath>
</defs>
<path clip-path="url(#clip130)" d="M0 1600 L2400 1600 L2400 0 L0 0  Z" fill="#ffffff" fill-rule="evenodd" fill-opacity="1"/>
<defs>
  <clipPath id="clip131">
    <rect x="214" y="47" width="2139" height="1423"/>
  </clipPath>
</defs>
<path clip-path="url(#clip130)" d="M214.526 1469.17 L2352.76 1469.17 L2352.76 47.2441 L214.526 47.2441  Z" fill="#ffffff" fill-rule="evenodd" fill-opacity="1"/>
<polyline clip-path="url(#clip131)" style="stroke:#000000; stroke-linecap:round; stroke-linejoin:round; stroke-width:2; stroke-opacity:0.1; fill:none" points="249.508,1469.17 249.508,47.2441 "/>
<polyline clip-path="url(#clip131)" style="stroke:#000000; stroke-linecap:round; stroke-linejoin:round; stroke-width:2; stroke-opacity:0.1; fill:none" points="760.191,1469.17 760.191,47.2441 "/>
<polyline clip-path="url(#clip131)" style="stroke:#000000; stroke-linecap:round; stroke-linejoin:round; stroke-width:2; stroke-opacity:0.1; fill:none" points="1270.87,1469.17 1270.87,47.2441 "/>
<polyline clip-path="url(#clip131)" style="stroke:#000000; stroke-linecap:round; stroke-linejoin:round; stroke-width:2; stroke-opacity:0.1; fill:none" points="1781.56,1469.17 1781.56,47.2441 "/>
<polyline clip-path="url(#clip131)" style="stroke:#000000; stroke-linecap:round; stroke-linejoin:round; stroke-width:2; stroke-opacity:0.1; fill:none" points="2292.24,1469.17 2292.24,47.2441 "/>
<polyline clip-path="url(#clip131)" style="stroke:#000000; stroke-linecap:round; stroke-linejoin:round; stroke-width:2; stroke-opacity:0.1; fill:none" points="214.526,1428.92 2352.76,1428.92 "/>
<polyline clip-path="url(#clip131)" style="stroke:#000000; stroke-linecap:round; stroke-linejoin:round; stroke-width:2; stroke-opacity:0.1; fill:none" points="214.526,1100.57 2352.76,1100.57 "/>
<polyline clip-path="url(#clip131)" style="stroke:#000000; stroke-linecap:round; stroke-linejoin:round; stroke-width:2; stroke-opacity:0.1; fill:none" points="214.526,772.22 2352.76,772.22 "/>
<polyline clip-path="url(#clip131)" style="stroke:#000000; stroke-linecap:round; stroke-linejoin:round; stroke-width:2; stroke-opacity:0.1; fill:none" points="214.526,443.867 2352.76,443.867 "/>
<polyline clip-path="url(#clip131)" style="stroke:#000000; stroke-linecap:round; stroke-linejoin:round; stroke-width:2; stroke-opacity:0.1; fill:none" points="214.526,115.514 2352.76,115.514 "/>
<polyline clip-path="url(#clip130)" style="stroke:#000000; stroke-linecap:round; stroke-linejoin:round; stroke-width:4; stroke-opacity:1; fill:none" points="214.526,1469.17 2352.76,1469.17 "/>
<polyline clip-path="url(#clip130)" style="stroke:#000000; stroke-linecap:round; stroke-linejoin:round; stroke-width:4; stroke-opacity:1; fill:none" points="249.508,1469.17 249.508,1450.27 "/>
<polyline clip-path="url(#clip130)" style="stroke:#000000; stroke-linecap:round; stroke-linejoin:round; stroke-width:4; stroke-opacity:1; fill:none" points="760.191,1469.17 760.191,1450.27 "/>
<polyline clip-path="url(#clip130)" style="stroke:#000000; stroke-linecap:round; stroke-linejoin:round; stroke-width:4; stroke-opacity:1; fill:none" points="1270.87,1469.17 1270.87,1450.27 "/>
<polyline clip-path="url(#clip130)" style="stroke:#000000; stroke-linecap:round; stroke-linejoin:round; stroke-width:4; stroke-opacity:1; fill:none" points="1781.56,1469.17 1781.56,1450.27 "/>
<polyline clip-path="url(#clip130)" style="stroke:#000000; stroke-linecap:round; stroke-linejoin:round; stroke-width:4; stroke-opacity:1; fill:none" points="2292.24,1469.17 2292.24,1450.27 "/>
<path clip-path="url(#clip130)" d="M249.508 1505.95 Q244.091 1505.95 241.348 1511.29 Q238.64 1516.61 238.64 1527.3 Q238.64 1537.96 241.348 1543.31 Q244.091 1548.62 249.508 1548.62 Q254.959 1548.62 257.668 1543.31 Q260.411 1537.96 260.411 1527.3 Q260.411 1516.61 257.668 1511.29 Q254.959 1505.95 249.508 1505.95 M249.508 1500.39 Q258.223 1500.39 262.806 1507.3 Q267.425 1514.18 267.425 1527.3 Q267.425 1540.39 262.806 1547.3 Q258.223 1554.17 249.508 1554.17 Q240.793 1554.17 236.175 1547.3 Q231.591 1540.39 231.591 1527.3 Q231.591 1514.18 236.175 1507.3 Q240.793 1500.39 249.508 1500.39 Z" fill="#000000" fill-rule="nonzero" fill-opacity="1" /><path clip-path="url(#clip130)" d="M728.351 1547.27 L752.83 1547.27 L752.83 1553.17 L719.913 1553.17 L719.913 1547.27 Q723.906 1543.13 730.781 1536.19 Q737.691 1529.21 739.462 1527.2 Q742.83 1523.41 744.149 1520.81 Q745.504 1518.17 745.504 1515.63 Q745.504 1511.5 742.587 1508.9 Q739.705 1506.29 735.052 1506.29 Q731.754 1506.29 728.073 1507.44 Q724.427 1508.58 720.261 1510.91 L720.261 1503.83 Q724.497 1502.13 728.177 1501.26 Q731.858 1500.39 734.913 1500.39 Q742.969 1500.39 747.76 1504.42 Q752.552 1508.45 752.552 1515.18 Q752.552 1518.38 751.337 1521.26 Q750.156 1524.11 746.997 1527.99 Q746.129 1529 741.476 1533.83 Q736.823 1538.62 728.351 1547.27 Z" fill="#000000" fill-rule="nonzero" fill-opacity="1" /><path clip-path="url(#clip130)" d="M782.552 1505.95 Q777.135 1505.95 774.392 1511.29 Q771.684 1516.61 771.684 1527.3 Q771.684 1537.96 774.392 1543.31 Q777.135 1548.62 782.552 1548.62 Q788.003 1548.62 790.712 1543.31 Q793.455 1537.96 793.455 1527.3 Q793.455 1516.61 790.712 1511.29 Q788.003 1505.95 782.552 1505.95 M782.552 1500.39 Q791.267 1500.39 795.85 1507.3 Q800.469 1514.18 800.469 1527.3 Q800.469 1540.39 795.85 1547.3 Q791.267 1554.17 782.552 1554.17 Q773.837 1554.17 769.219 1547.3 Q764.635 1540.39 764.635 1527.3 Q764.635 1514.18 769.219 1507.3 Q773.837 1500.39 782.552 1500.39 Z" fill="#000000" fill-rule="nonzero" fill-opacity="1" /><path clip-path="url(#clip130)" d="M1253.13 1507.44 L1235.42 1535.11 L1253.13 1535.11 L1253.13 1507.44 M1251.29 1501.33 L1260.11 1501.33 L1260.11 1535.11 L1267.51 1535.11 L1267.51 1540.95 L1260.11 1540.95 L1260.11 1553.17 L1253.13 1553.17 L1253.13 1540.95 L1229.73 1540.95 L1229.73 1534.17 L1251.29 1501.33 Z" fill="#000000" fill-rule="nonzero" fill-opacity="1" /><path clip-path="url(#clip130)" d="M1294.1 1505.95 Q1288.69 1505.95 1285.94 1511.29 Q1283.24 1516.61 1283.24 1527.3 Q1283.24 1537.96 1285.94 1543.31 Q1288.69 1548.62 1294.1 1548.62 Q1299.55 1548.62 1302.26 1543.31 Q1305.01 1537.96 1305.01 1527.3 Q1305.01 1516.61 1302.26 1511.29 Q1299.55 1505.95 1294.1 1505.95 M1294.1 1500.39 Q1302.82 1500.39 1307.4 1507.3 Q1312.02 1514.18 1312.02 1527.3 Q1312.02 1540.39 1307.4 1547.3 Q1302.82 1554.17 1294.1 1554.17 Q1285.39 1554.17 1280.77 1547.3 Q1276.19 1540.39 1276.19 1527.3 Q1276.19 1514.18 1280.77 1507.3 Q1285.39 1500.39 1294.1 1500.39 Z" fill="#000000" fill-rule="nonzero" fill-opacity="1" /><path clip-path="url(#clip130)" d="M1759.66 1524.45 Q1754.94 1524.45 1752.16 1527.68 Q1749.42 1530.91 1749.42 1536.54 Q1749.42 1542.13 1752.16 1545.39 Q1754.94 1548.62 1759.66 1548.62 Q1764.39 1548.62 1767.13 1545.39 Q1769.91 1542.13 1769.91 1536.54 Q1769.91 1530.91 1767.13 1527.68 Q1764.39 1524.45 1759.66 1524.45 M1773.59 1502.47 L1773.59 1508.86 Q1770.95 1507.61 1768.24 1506.95 Q1765.57 1506.29 1762.93 1506.29 Q1755.98 1506.29 1752.3 1510.98 Q1748.66 1515.67 1748.14 1525.15 Q1750.19 1522.13 1753.28 1520.53 Q1756.37 1518.9 1760.08 1518.9 Q1767.89 1518.9 1772.41 1523.65 Q1776.96 1528.38 1776.96 1536.54 Q1776.96 1544.52 1772.23 1549.35 Q1767.51 1554.17 1759.66 1554.17 Q1750.67 1554.17 1745.91 1547.3 Q1741.16 1540.39 1741.16 1527.3 Q1741.16 1515.01 1746.99 1507.72 Q1752.82 1500.39 1762.65 1500.39 Q1765.29 1500.39 1767.96 1500.91 Q1770.67 1501.43 1773.59 1502.47 Z" fill="#000000" fill-rule="nonzero" fill-opacity="1" /><path clip-path="url(#clip130)" d="M1804.04 1505.95 Q1798.62 1505.95 1795.88 1511.29 Q1793.17 1516.61 1793.17 1527.3 Q1793.17 1537.96 1795.88 1543.31 Q1798.62 1548.62 1804.04 1548.62 Q1809.49 1548.62 1812.2 1543.31 Q1814.94 1537.96 1814.94 1527.3 Q1814.94 1516.61 1812.2 1511.29 Q1809.49 1505.95 1804.04 1505.95 M1804.04 1500.39 Q1812.75 1500.39 1817.34 1507.3 Q1821.96 1514.18 1821.96 1527.3 Q1821.96 1540.39 1817.34 1547.3 Q1812.75 1554.17 1804.04 1554.17 Q1795.32 1554.17 1790.71 1547.3 Q1786.12 1540.39 1786.12 1527.3 Q1786.12 1514.18 1790.71 1507.3 Q1795.32 1500.39 1804.04 1500.39 Z" fill="#000000" fill-rule="nonzero" fill-opacity="1" /><path clip-path="url(#clip130)" d="M2269.55 1528.55 Q2264.55 1528.55 2261.67 1531.22 Q2258.82 1533.9 2258.82 1538.58 Q2258.82 1543.27 2261.67 1545.95 Q2264.55 1548.62 2269.55 1548.62 Q2274.55 1548.62 2277.43 1545.95 Q2280.31 1543.24 2280.31 1538.58 Q2280.31 1533.9 2277.43 1531.22 Q2274.58 1528.55 2269.55 1528.55 M2262.54 1525.56 Q2258.02 1524.45 2255.49 1521.36 Q2252.99 1518.27 2252.99 1513.83 Q2252.99 1507.61 2257.4 1504 Q2261.84 1500.39 2269.55 1500.39 Q2277.29 1500.39 2281.7 1504 Q2286.11 1507.61 2286.11 1513.83 Q2286.11 1518.27 2283.58 1521.36 Q2281.08 1524.45 2276.6 1525.56 Q2281.67 1526.74 2284.48 1530.18 Q2287.33 1533.62 2287.33 1538.58 Q2287.33 1546.12 2282.71 1550.15 Q2278.13 1554.17 2269.55 1554.17 Q2260.97 1554.17 2256.35 1550.15 Q2251.77 1546.12 2251.77 1538.58 Q2251.77 1533.62 2254.62 1530.18 Q2257.47 1526.74 2262.54 1525.56 M2259.97 1514.49 Q2259.97 1518.52 2262.47 1520.77 Q2265 1523.03 2269.55 1523.03 Q2274.06 1523.03 2276.6 1520.77 Q2279.17 1518.52 2279.17 1514.49 Q2279.17 1510.46 2276.6 1508.2 Q2274.06 1505.95 2269.55 1505.95 Q2265 1505.95 2262.47 1508.2 Q2259.97 1510.46 2259.97 1514.49 Z" fill="#000000" fill-rule="nonzero" fill-opacity="1" /><path clip-path="url(#clip130)" d="M2314.79 1505.95 Q2309.38 1505.95 2306.63 1511.29 Q2303.92 1516.61 2303.92 1527.3 Q2303.92 1537.96 2306.63 1543.31 Q2309.38 1548.62 2314.79 1548.62 Q2320.24 1548.62 2322.95 1543.31 Q2325.69 1537.96 2325.69 1527.3 Q2325.69 1516.61 2322.95 1511.29 Q2320.24 1505.95 2314.79 1505.95 M2314.79 1500.39 Q2323.51 1500.39 2328.09 1507.3 Q2332.71 1514.18 2332.71 1527.3 Q2332.71 1540.39 2328.09 1547.3 Q2323.51 1554.17 2314.79 1554.17 Q2306.08 1554.17 2301.46 1547.3 Q2296.88 1540.39 2296.88 1527.3 Q2296.88 1514.18 2301.46 1507.3 Q2306.08 1500.39 2314.79 1500.39 Z" fill="#000000" fill-rule="nonzero" fill-opacity="1" /><polyline clip-path="url(#clip130)" style="stroke:#000000; stroke-linecap:round; stroke-linejoin:round; stroke-width:4; stroke-opacity:1; fill:none" points="214.526,1469.17 214.526,47.2441 "/>
<polyline clip-path="url(#clip130)" style="stroke:#000000; stroke-linecap:round; stroke-linejoin:round; stroke-width:4; stroke-opacity:1; fill:none" points="214.526,1428.92 233.424,1428.92 "/>
<polyline clip-path="url(#clip130)" style="stroke:#000000; stroke-linecap:round; stroke-linejoin:round; stroke-width:4; stroke-opacity:1; fill:none" points="214.526,1100.57 233.424,1100.57 "/>
<polyline clip-path="url(#clip130)" style="stroke:#000000; stroke-linecap:round; stroke-linejoin:round; stroke-width:4; stroke-opacity:1; fill:none" points="214.526,772.22 233.424,772.22 "/>
<polyline clip-path="url(#clip130)" style="stroke:#000000; stroke-linecap:round; stroke-linejoin:round; stroke-width:4; stroke-opacity:1; fill:none" points="214.526,443.867 233.424,443.867 "/>
<polyline clip-path="url(#clip130)" style="stroke:#000000; stroke-linecap:round; stroke-linejoin:round; stroke-width:4; stroke-opacity:1; fill:none" points="214.526,115.514 233.424,115.514 "/>
<path clip-path="url(#clip130)" d="M160.61 1407.62 Q155.193 1407.62 152.45 1412.97 Q149.742 1418.28 149.742 1428.98 Q149.742 1439.64 152.45 1444.98 Q155.193 1450.3 160.61 1450.3 Q166.061 1450.3 168.769 1444.98 Q171.512 1439.64 171.512 1428.98 Q171.512 1418.28 168.769 1412.97 Q166.061 1407.62 160.61 1407.62 M160.61 1402.07 Q169.325 1402.07 173.908 1408.98 Q178.526 1415.85 178.526 1428.98 Q178.526 1442.07 173.908 1448.98 Q169.325 1455.85 160.61 1455.85 Q151.894 1455.85 147.276 1448.98 Q142.693 1442.07 142.693 1428.98 Q142.693 1415.85 147.276 1408.98 Q151.894 1402.07 160.61 1402.07 Z" fill="#000000" fill-rule="nonzero" fill-opacity="1" /><path clip-path="url(#clip130)" d="M56.3393 1120.59 L67.7976 1120.59 L67.7976 1081.04 L55.3324 1083.54 L55.3324 1077.15 L67.7281 1074.65 L74.742 1074.65 L74.742 1120.59 L86.2003 1120.59 L86.2003 1126.49 L56.3393 1126.49 L56.3393 1120.59 Z" fill="#000000" fill-rule="nonzero" fill-opacity="1" /><path clip-path="url(#clip130)" d="M115.367 1079.27 Q109.95 1079.27 107.207 1084.62 Q104.499 1089.93 104.499 1100.62 Q104.499 1111.28 107.207 1116.63 Q109.95 1121.94 115.367 1121.94 Q120.818 1121.94 123.526 1116.63 Q126.27 1111.28 126.27 1100.62 Q126.27 1089.93 123.526 1084.62 Q120.818 1079.27 115.367 1079.27 M115.367 1073.71 Q124.082 1073.71 128.665 1080.62 Q133.283 1087.5 133.283 1100.62 Q133.283 1113.71 128.665 1120.62 Q124.082 1127.5 115.367 1127.5 Q106.652 1127.5 102.034 1120.62 Q97.4502 1113.71 97.4502 1100.62 Q97.4502 1087.5 102.034 1080.62 Q106.652 1073.71 115.367 1073.71 Z" fill="#000000" fill-rule="nonzero" fill-opacity="1" /><path clip-path="url(#clip130)" d="M160.61 1079.27 Q155.193 1079.27 152.45 1084.62 Q149.742 1089.93 149.742 1100.62 Q149.742 1111.28 152.45 1116.63 Q155.193 1121.94 160.61 1121.94 Q166.061 1121.94 168.769 1116.63 Q171.512 1111.28 171.512 1100.62 Q171.512 1089.93 168.769 1084.62 Q166.061 1079.27 160.61 1079.27 M160.61 1073.71 Q169.325 1073.71 173.908 1080.62 Q178.526 1087.5 178.526 1100.62 Q178.526 1113.71 173.908 1120.62 Q169.325 1127.5 160.61 1127.5 Q151.894 1127.5 147.276 1120.62 Q142.693 1113.71 142.693 1100.62 Q142.693 1087.5 147.276 1080.62 Q151.894 1073.71 160.61 1073.71 Z" fill="#000000" fill-rule="nonzero" fill-opacity="1" /><path clip-path="url(#clip130)" d="M61.1657 792.237 L85.6447 792.237 L85.6447 798.14 L52.7282 798.14 L52.7282 792.237 Q56.7213 788.105 63.5962 781.161 Q70.5059 774.181 72.2767 772.167 Q75.6448 768.383 76.9642 765.779 Q78.3184 763.14 78.3184 760.605 Q78.3184 756.473 75.4017 753.869 Q72.5198 751.265 67.867 751.265 Q64.5684 751.265 60.8879 752.411 Q57.2421 753.556 53.0754 755.883 L53.0754 748.8 Q57.3115 747.098 60.9921 746.23 Q64.6726 745.362 67.7281 745.362 Q75.7837 745.362 80.5753 749.39 Q85.3669 753.418 85.3669 760.154 Q85.3669 763.348 84.1517 766.23 Q82.9711 769.077 79.8114 772.966 Q78.9434 773.973 74.2906 778.799 Q69.6379 783.591 61.1657 792.237 Z" fill="#000000" fill-rule="nonzero" fill-opacity="1" /><path clip-path="url(#clip130)" d="M115.367 750.918 Q109.95 750.918 107.207 756.265 Q104.499 761.577 104.499 772.272 Q104.499 782.931 107.207 788.279 Q109.95 793.591 115.367 793.591 Q120.818 793.591 123.526 788.279 Q126.27 782.931 126.27 772.272 Q126.27 761.577 123.526 756.265 Q120.818 750.918 115.367 750.918 M115.367 745.362 Q124.082 745.362 128.665 752.272 Q133.283 759.147 133.283 772.272 Q133.283 785.362 128.665 792.272 Q124.082 799.147 115.367 799.147 Q106.652 799.147 102.034 792.272 Q97.4502 785.362 97.4502 772.272 Q97.4502 759.147 102.034 752.272 Q106.652 745.362 115.367 745.362 Z" fill="#000000" fill-rule="nonzero" fill-opacity="1" /><path clip-path="url(#clip130)" d="M160.61 750.918 Q155.193 750.918 152.45 756.265 Q149.742 761.577 149.742 772.272 Q149.742 782.931 152.45 788.279 Q155.193 793.591 160.61 793.591 Q166.061 793.591 168.769 788.279 Q171.512 782.931 171.512 772.272 Q171.512 761.577 168.769 756.265 Q166.061 750.918 160.61 750.918 M160.61 745.362 Q169.325 745.362 173.908 752.272 Q178.526 759.147 178.526 772.272 Q178.526 785.362 173.908 792.272 Q169.325 799.147 160.61 799.147 Q151.894 799.147 147.276 792.272 Q142.693 785.362 142.693 772.272 Q142.693 759.147 147.276 752.272 Q151.894 745.362 160.61 745.362 Z" fill="#000000" fill-rule="nonzero" fill-opacity="1" /><path clip-path="url(#clip130)" d="M76.3739 441.836 Q81.4086 442.912 84.2211 446.315 Q87.0683 449.718 87.0683 454.718 Q87.0683 462.391 81.7906 466.593 Q76.5128 470.794 66.7907 470.794 Q63.5268 470.794 60.0546 470.134 Q56.6171 469.509 52.9366 468.225 L52.9366 461.454 Q55.8532 463.155 59.3254 464.023 Q62.7976 464.891 66.5823 464.891 Q73.1795 464.891 76.617 462.287 Q80.0892 459.683 80.0892 454.718 Q80.0892 450.134 76.86 447.565 Q73.6656 444.961 67.9365 444.961 L61.8948 444.961 L61.8948 439.197 L68.2143 439.197 Q73.3878 439.197 76.1309 437.148 Q78.8739 435.065 78.8739 431.176 Q78.8739 427.183 76.0267 425.065 Q73.2142 422.912 67.9365 422.912 Q65.0546 422.912 61.756 423.537 Q58.4574 424.162 54.4991 425.482 L54.4991 419.232 Q58.4921 418.121 61.9643 417.565 Q65.4712 417.009 68.5615 417.009 Q76.5475 417.009 81.2003 420.655 Q85.8531 424.266 85.8531 430.447 Q85.8531 434.752 83.3878 437.739 Q80.9225 440.69 76.3739 441.836 Z" fill="#000000" fill-rule="nonzero" fill-opacity="1" /><path clip-path="url(#clip130)" d="M115.367 422.565 Q109.95 422.565 107.207 427.912 Q104.499 433.225 104.499 443.919 Q104.499 454.579 107.207 459.926 Q109.95 465.238 115.367 465.238 Q120.818 465.238 123.526 459.926 Q126.27 454.579 126.27 443.919 Q126.27 433.225 123.526 427.912 Q120.818 422.565 115.367 422.565 M115.367 417.009 Q124.082 417.009 128.665 423.919 Q133.283 430.794 133.283 443.919 Q133.283 457.009 128.665 463.919 Q124.082 470.794 115.367 470.794 Q106.652 470.794 102.034 463.919 Q97.4502 457.009 97.4502 443.919 Q97.4502 430.794 102.034 423.919 Q106.652 417.009 115.367 417.009 Z" fill="#000000" fill-rule="nonzero" fill-opacity="1" /><path clip-path="url(#clip130)" d="M160.61 422.565 Q155.193 422.565 152.45 427.912 Q149.742 433.225 149.742 443.919 Q149.742 454.579 152.45 459.926 Q155.193 465.238 160.61 465.238 Q166.061 465.238 168.769 459.926 Q171.512 454.579 171.512 443.919 Q171.512 433.225 168.769 427.912 Q166.061 422.565 160.61 422.565 M160.61 417.009 Q169.325 417.009 173.908 423.919 Q178.526 430.794 178.526 443.919 Q178.526 457.009 173.908 463.919 Q169.325 470.794 160.61 470.794 Q151.894 470.794 147.276 463.919 Q142.693 457.009 142.693 443.919 Q142.693 430.794 147.276 423.919 Q151.894 417.009 160.61 417.009 Z" fill="#000000" fill-rule="nonzero" fill-opacity="1" /><path clip-path="url(#clip130)" d="M74.3948 95.7055 L56.6865 123.379 L74.3948 123.379 L74.3948 95.7055 M72.5545 89.5944 L81.3739 89.5944 L81.3739 123.379 L88.7697 123.379 L88.7697 129.212 L81.3739 129.212 L81.3739 141.434 L74.3948 141.434 L74.3948 129.212 L50.9921 129.212 L50.9921 122.441 L72.5545 89.5944 Z" fill="#000000" fill-rule="nonzero" fill-opacity="1" /><path clip-path="url(#clip130)" d="M115.367 94.2124 Q109.95 94.2124 107.207 99.5596 Q104.499 104.872 104.499 115.566 Q104.499 126.226 107.207 131.573 Q109.95 136.886 115.367 136.886 Q120.818 136.886 123.526 131.573 Q126.27 126.226 126.27 115.566 Q126.27 104.872 123.526 99.5596 Q120.818 94.2124 115.367 94.2124 M115.367 88.6569 Q124.082 88.6569 128.665 95.5666 Q133.283 102.442 133.283 115.566 Q133.283 128.657 128.665 135.566 Q124.082 142.441 115.367 142.441 Q106.652 142.441 102.034 135.566 Q97.4502 128.657 97.4502 115.566 Q97.4502 102.442 102.034 95.5666 Q106.652 88.6569 115.367 88.6569 Z" fill="#000000" fill-rule="nonzero" fill-opacity="1" /><path clip-path="url(#clip130)" d="M160.61 94.2124 Q155.193 94.2124 152.45 99.5596 Q149.742 104.872 149.742 115.566 Q149.742 126.226 152.45 131.573 Q155.193 136.886 160.61 136.886 Q166.061 136.886 168.769 131.573 Q171.512 126.226 171.512 115.566 Q171.512 104.872 168.769 99.5596 Q166.061 94.2124 160.61 94.2124 M160.61 88.6569 Q169.325 88.6569 173.908 95.5666 Q178.526 102.442 178.526 115.566 Q178.526 128.657 173.908 135.566 Q169.325 142.441 160.61 142.441 Q151.894 142.441 147.276 135.566 Q142.693 128.657 142.693 115.566 Q142.693 102.442 147.276 95.5666 Q151.894 88.6569 160.61 88.6569 Z" fill="#000000" fill-rule="nonzero" fill-opacity="1" /><circle clip-path="url(#clip131)" cx="275.042" cy="87.4872" r="14.4" fill="#009af9" fill-rule="evenodd" fill-opacity="1" stroke="none"/>
<circle clip-path="url(#clip131)" cx="300.576" cy="725.398" r="14.4" fill="#009af9" fill-rule="evenodd" fill-opacity="1" stroke="none"/>
<circle clip-path="url(#clip131)" cx="326.11" cy="1352.22" r="14.4" fill="#009af9" fill-rule="evenodd" fill-opacity="1" stroke="none"/>
<circle clip-path="url(#clip131)" cx="351.645" cy="1358.38" r="14.4" fill="#009af9" fill-rule="evenodd" fill-opacity="1" stroke="none"/>
<circle clip-path="url(#clip131)" cx="377.179" cy="1362.44" r="14.4" fill="#009af9" fill-rule="evenodd" fill-opacity="1" stroke="none"/>
<circle clip-path="url(#clip131)" cx="402.713" cy="1366.05" r="14.4" fill="#009af9" fill-rule="evenodd" fill-opacity="1" stroke="none"/>
<circle clip-path="url(#clip131)" cx="428.247" cy="1366.88" r="14.4" fill="#009af9" fill-rule="evenodd" fill-opacity="1" stroke="none"/>
<circle clip-path="url(#clip131)" cx="453.781" cy="1368.98" r="14.4" fill="#009af9" fill-rule="evenodd" fill-opacity="1" stroke="none"/>
<circle clip-path="url(#clip131)" cx="479.315" cy="1369.76" r="14.4" fill="#009af9" fill-rule="evenodd" fill-opacity="1" stroke="none"/>
<circle clip-path="url(#clip131)" cx="504.849" cy="1372.37" r="14.4" fill="#009af9" fill-rule="evenodd" fill-opacity="1" stroke="none"/>
<circle clip-path="url(#clip131)" cx="530.384" cy="1374.52" r="14.4" fill="#009af9" fill-rule="evenodd" fill-opacity="1" stroke="none"/>
<circle clip-path="url(#clip131)" cx="555.918" cy="1375.67" r="14.4" fill="#009af9" fill-rule="evenodd" fill-opacity="1" stroke="none"/>
<circle clip-path="url(#clip131)" cx="581.452" cy="1377.32" r="14.4" fill="#009af9" fill-rule="evenodd" fill-opacity="1" stroke="none"/>
<circle clip-path="url(#clip131)" cx="606.986" cy="1379.63" r="14.4" fill="#009af9" fill-rule="evenodd" fill-opacity="1" stroke="none"/>
<circle clip-path="url(#clip131)" cx="632.52" cy="1380.23" r="14.4" fill="#009af9" fill-rule="evenodd" fill-opacity="1" stroke="none"/>
<circle clip-path="url(#clip131)" cx="658.054" cy="1380.71" r="14.4" fill="#009af9" fill-rule="evenodd" fill-opacity="1" stroke="none"/>
<circle clip-path="url(#clip131)" cx="683.589" cy="1381.75" r="14.4" fill="#009af9" fill-rule="evenodd" fill-opacity="1" stroke="none"/>
<circle clip-path="url(#clip131)" cx="709.123" cy="1382.46" r="14.4" fill="#009af9" fill-rule="evenodd" fill-opacity="1" stroke="none"/>
<circle clip-path="url(#clip131)" cx="734.657" cy="1383.78" r="14.4" fill="#009af9" fill-rule="evenodd" fill-opacity="1" stroke="none"/>
<circle clip-path="url(#clip131)" cx="760.191" cy="1384.16" r="14.4" fill="#009af9" fill-rule="evenodd" fill-opacity="1" stroke="none"/>
<circle clip-path="url(#clip131)" cx="785.725" cy="1385.97" r="14.4" fill="#009af9" fill-rule="evenodd" fill-opacity="1" stroke="none"/>
<circle clip-path="url(#clip131)" cx="811.259" cy="1387.51" r="14.4" fill="#009af9" fill-rule="evenodd" fill-opacity="1" stroke="none"/>
<circle clip-path="url(#clip131)" cx="836.793" cy="1388.23" r="14.4" fill="#009af9" fill-rule="evenodd" fill-opacity="1" stroke="none"/>
<circle clip-path="url(#clip131)" cx="862.328" cy="1389.27" r="14.4" fill="#009af9" fill-rule="evenodd" fill-opacity="1" stroke="none"/>
<circle clip-path="url(#clip131)" cx="887.862" cy="1389.92" r="14.4" fill="#009af9" fill-rule="evenodd" fill-opacity="1" stroke="none"/>
<circle clip-path="url(#clip131)" cx="913.396" cy="1390.49" r="14.4" fill="#009af9" fill-rule="evenodd" fill-opacity="1" stroke="none"/>
<circle clip-path="url(#clip131)" cx="938.93" cy="1392.69" r="14.4" fill="#009af9" fill-rule="evenodd" fill-opacity="1" stroke="none"/>
<circle clip-path="url(#clip131)" cx="964.464" cy="1392.87" r="14.4" fill="#009af9" fill-rule="evenodd" fill-opacity="1" stroke="none"/>
<circle clip-path="url(#clip131)" cx="989.998" cy="1393.68" r="14.4" fill="#009af9" fill-rule="evenodd" fill-opacity="1" stroke="none"/>
<circle clip-path="url(#clip131)" cx="1015.53" cy="1395.01" r="14.4" fill="#009af9" fill-rule="evenodd" fill-opacity="1" stroke="none"/>
<circle clip-path="url(#clip131)" cx="1041.07" cy="1395.63" r="14.4" fill="#009af9" fill-rule="evenodd" fill-opacity="1" stroke="none"/>
<circle clip-path="url(#clip131)" cx="1066.6" cy="1396.64" r="14.4" fill="#009af9" fill-rule="evenodd" fill-opacity="1" stroke="none"/>
<circle clip-path="url(#clip131)" cx="1092.13" cy="1398.31" r="14.4" fill="#009af9" fill-rule="evenodd" fill-opacity="1" stroke="none"/>
<circle clip-path="url(#clip131)" cx="1117.67" cy="1398.71" r="14.4" fill="#009af9" fill-rule="evenodd" fill-opacity="1" stroke="none"/>
<circle clip-path="url(#clip131)" cx="1143.2" cy="1399.28" r="14.4" fill="#009af9" fill-rule="evenodd" fill-opacity="1" stroke="none"/>
<circle clip-path="url(#clip131)" cx="1168.74" cy="1400.34" r="14.4" fill="#009af9" fill-rule="evenodd" fill-opacity="1" stroke="none"/>
<circle clip-path="url(#clip131)" cx="1194.27" cy="1400.63" r="14.4" fill="#009af9" fill-rule="evenodd" fill-opacity="1" stroke="none"/>
<circle clip-path="url(#clip131)" cx="1219.81" cy="1401.72" r="14.4" fill="#009af9" fill-rule="evenodd" fill-opacity="1" stroke="none"/>
<circle clip-path="url(#clip131)" cx="1245.34" cy="1401.82" r="14.4" fill="#009af9" fill-rule="evenodd" fill-opacity="1" stroke="none"/>
<circle clip-path="url(#clip131)" cx="1270.87" cy="1403.69" r="14.4" fill="#009af9" fill-rule="evenodd" fill-opacity="1" stroke="none"/>
<circle clip-path="url(#clip131)" cx="1296.41" cy="1403.97" r="14.4" fill="#009af9" fill-rule="evenodd" fill-opacity="1" stroke="none"/>
<circle clip-path="url(#clip131)" cx="1321.94" cy="1404.46" r="14.4" fill="#009af9" fill-rule="evenodd" fill-opacity="1" stroke="none"/>
<circle clip-path="url(#clip131)" cx="1347.48" cy="1405.27" r="14.4" fill="#009af9" fill-rule="evenodd" fill-opacity="1" stroke="none"/>
<circle clip-path="url(#clip131)" cx="1373.01" cy="1406.15" r="14.4" fill="#009af9" fill-rule="evenodd" fill-opacity="1" stroke="none"/>
<circle clip-path="url(#clip131)" cx="1398.54" cy="1407.7" r="14.4" fill="#009af9" fill-rule="evenodd" fill-opacity="1" stroke="none"/>
<circle clip-path="url(#clip131)" cx="1424.08" cy="1407.91" r="14.4" fill="#009af9" fill-rule="evenodd" fill-opacity="1" stroke="none"/>
<circle clip-path="url(#clip131)" cx="1449.61" cy="1408.87" r="14.4" fill="#009af9" fill-rule="evenodd" fill-opacity="1" stroke="none"/>
<circle clip-path="url(#clip131)" cx="1475.15" cy="1409.23" r="14.4" fill="#009af9" fill-rule="evenodd" fill-opacity="1" stroke="none"/>
<circle clip-path="url(#clip131)" cx="1500.68" cy="1410.69" r="14.4" fill="#009af9" fill-rule="evenodd" fill-opacity="1" stroke="none"/>
<circle clip-path="url(#clip131)" cx="1526.22" cy="1411.08" r="14.4" fill="#009af9" fill-rule="evenodd" fill-opacity="1" stroke="none"/>
<circle clip-path="url(#clip131)" cx="1551.75" cy="1411.64" r="14.4" fill="#009af9" fill-rule="evenodd" fill-opacity="1" stroke="none"/>
<circle clip-path="url(#clip131)" cx="1577.28" cy="1412.23" r="14.4" fill="#009af9" fill-rule="evenodd" fill-opacity="1" stroke="none"/>
<circle clip-path="url(#clip131)" cx="1602.82" cy="1412.5" r="14.4" fill="#009af9" fill-rule="evenodd" fill-opacity="1" stroke="none"/>
<circle clip-path="url(#clip131)" cx="1628.35" cy="1413.46" r="14.4" fill="#009af9" fill-rule="evenodd" fill-opacity="1" stroke="none"/>
<circle clip-path="url(#clip131)" cx="1653.89" cy="1413.9" r="14.4" fill="#009af9" fill-rule="evenodd" fill-opacity="1" stroke="none"/>
<circle clip-path="url(#clip131)" cx="1679.42" cy="1414.88" r="14.4" fill="#009af9" fill-rule="evenodd" fill-opacity="1" stroke="none"/>
<circle clip-path="url(#clip131)" cx="1704.95" cy="1415.62" r="14.4" fill="#009af9" fill-rule="evenodd" fill-opacity="1" stroke="none"/>
<circle clip-path="url(#clip131)" cx="1730.49" cy="1415.79" r="14.4" fill="#009af9" fill-rule="evenodd" fill-opacity="1" stroke="none"/>
<circle clip-path="url(#clip131)" cx="1756.02" cy="1416.93" r="14.4" fill="#009af9" fill-rule="evenodd" fill-opacity="1" stroke="none"/>
<circle clip-path="url(#clip131)" cx="1781.56" cy="1418.09" r="14.4" fill="#009af9" fill-rule="evenodd" fill-opacity="1" stroke="none"/>
<circle clip-path="url(#clip131)" cx="1807.09" cy="1418.79" r="14.4" fill="#009af9" fill-rule="evenodd" fill-opacity="1" stroke="none"/>
<circle clip-path="url(#clip131)" cx="1832.63" cy="1419.15" r="14.4" fill="#009af9" fill-rule="evenodd" fill-opacity="1" stroke="none"/>
<circle clip-path="url(#clip131)" cx="1858.16" cy="1419.35" r="14.4" fill="#009af9" fill-rule="evenodd" fill-opacity="1" stroke="none"/>
<circle clip-path="url(#clip131)" cx="1883.69" cy="1420.08" r="14.4" fill="#009af9" fill-rule="evenodd" fill-opacity="1" stroke="none"/>
<circle clip-path="url(#clip131)" cx="1909.23" cy="1420.35" r="14.4" fill="#009af9" fill-rule="evenodd" fill-opacity="1" stroke="none"/>
<circle clip-path="url(#clip131)" cx="1934.76" cy="1421.38" r="14.4" fill="#009af9" fill-rule="evenodd" fill-opacity="1" stroke="none"/>
<circle clip-path="url(#clip131)" cx="1960.3" cy="1422.19" r="14.4" fill="#009af9" fill-rule="evenodd" fill-opacity="1" stroke="none"/>
<circle clip-path="url(#clip131)" cx="1985.83" cy="1422.58" r="14.4" fill="#009af9" fill-rule="evenodd" fill-opacity="1" stroke="none"/>
<circle clip-path="url(#clip131)" cx="2011.36" cy="1423.14" r="14.4" fill="#009af9" fill-rule="evenodd" fill-opacity="1" stroke="none"/>
<circle clip-path="url(#clip131)" cx="2036.9" cy="1423.45" r="14.4" fill="#009af9" fill-rule="evenodd" fill-opacity="1" stroke="none"/>
<circle clip-path="url(#clip131)" cx="2062.43" cy="1423.86" r="14.4" fill="#009af9" fill-rule="evenodd" fill-opacity="1" stroke="none"/>
<circle clip-path="url(#clip131)" cx="2087.97" cy="1424.51" r="14.4" fill="#009af9" fill-rule="evenodd" fill-opacity="1" stroke="none"/>
<circle clip-path="url(#clip131)" cx="2113.5" cy="1424.83" r="14.4" fill="#009af9" fill-rule="evenodd" fill-opacity="1" stroke="none"/>
<circle clip-path="url(#clip131)" cx="2139.04" cy="1425.8" r="14.4" fill="#009af9" fill-rule="evenodd" fill-opacity="1" stroke="none"/>
<circle clip-path="url(#clip131)" cx="2164.57" cy="1426.43" r="14.4" fill="#009af9" fill-rule="evenodd" fill-opacity="1" stroke="none"/>
<circle clip-path="url(#clip131)" cx="2190.1" cy="1426.88" r="14.4" fill="#009af9" fill-rule="evenodd" fill-opacity="1" stroke="none"/>
<circle clip-path="url(#clip131)" cx="2215.64" cy="1427.72" r="14.4" fill="#009af9" fill-rule="evenodd" fill-opacity="1" stroke="none"/>
<circle clip-path="url(#clip131)" cx="2241.17" cy="1428.37" r="14.4" fill="#009af9" fill-rule="evenodd" fill-opacity="1" stroke="none"/>
<circle clip-path="url(#clip131)" cx="2266.71" cy="1428.79" r="14.4" fill="#009af9" fill-rule="evenodd" fill-opacity="1" stroke="none"/>
<circle clip-path="url(#clip131)" cx="2292.24" cy="1428.92" r="14.4" fill="#009af9" fill-rule="evenodd" fill-opacity="1" stroke="none"/>
<path clip-path="url(#clip130)" d="M924.088 276.082 L2281.48 276.082 L2281.48 94.6416 L924.088 94.6416  Z" fill="#ffffff" fill-rule="evenodd" fill-opacity="1"/>
<polyline clip-path="url(#clip130)" style="stroke:#000000; stroke-linecap:round; stroke-linejoin:round; stroke-width:4; stroke-opacity:1; fill:none" points="924.088,276.082 2281.48,276.082 2281.48,94.6416 924.088,94.6416 924.088,276.082 "/>
<circle clip-path="url(#clip130)" cx="1019.12" cy="185.362" r="35.84" fill="#009af9" fill-rule="evenodd" fill-opacity="1" stroke="none"/>
<path clip-path="url(#clip130)" d="M1146.4 171.568 L1146.4 178.617 Q1143.24 176.996 1139.84 176.186 Q1136.43 175.376 1132.79 175.376 Q1127.24 175.376 1124.44 177.077 Q1121.69 178.779 1121.69 182.182 Q1121.69 184.774 1123.67 186.273 Q1125.66 187.731 1131.65 189.068 L1134.21 189.635 Q1142.14 191.337 1145.47 194.456 Q1148.83 197.535 1148.83 203.084 Q1148.83 209.404 1143.81 213.09 Q1138.82 216.776 1130.07 216.776 Q1126.43 216.776 1122.46 216.047 Q1118.53 215.358 1114.15 213.941 L1114.15 206.244 Q1118.29 208.391 1122.3 209.485 Q1126.31 210.538 1130.24 210.538 Q1135.5 210.538 1138.34 208.756 Q1141.17 206.933 1141.17 203.651 Q1141.17 200.613 1139.11 198.993 Q1137.08 197.372 1130.15 195.874 L1127.56 195.266 Q1120.63 193.808 1117.56 190.81 Q1114.48 187.772 1114.48 182.506 Q1114.48 176.105 1119.01 172.621 Q1123.55 169.138 1131.9 169.138 Q1136.03 169.138 1139.67 169.745 Q1143.32 170.353 1146.4 171.568 Z" fill="#000000" fill-rule="nonzero" fill-opacity="1" /><path clip-path="url(#clip130)" d="M1160.7 170.231 L1168.15 170.231 L1168.15 215.602 L1160.7 215.602 L1160.7 170.231 M1160.7 152.569 L1168.15 152.569 L1168.15 162.008 L1160.7 162.008 L1160.7 152.569 Z" fill="#000000" fill-rule="nonzero" fill-opacity="1" /><path clip-path="url(#clip130)" d="M1221.46 188.217 L1221.46 215.602 L1214.01 215.602 L1214.01 188.46 Q1214.01 182.02 1211.5 178.819 Q1208.98 175.619 1203.96 175.619 Q1197.93 175.619 1194.44 179.467 Q1190.96 183.316 1190.96 189.959 L1190.96 215.602 L1183.46 215.602 L1183.46 170.231 L1190.96 170.231 L1190.96 177.28 Q1193.63 173.189 1197.24 171.163 Q1200.88 169.138 1205.62 169.138 Q1213.44 169.138 1217.45 173.999 Q1221.46 178.819 1221.46 188.217 Z" fill="#000000" fill-rule="nonzero" fill-opacity="1" /><path clip-path="url(#clip130)" d="M1266.18 192.39 Q1266.18 184.288 1262.82 179.832 Q1259.5 175.376 1253.46 175.376 Q1247.47 175.376 1244.11 179.832 Q1240.78 184.288 1240.78 192.39 Q1240.78 200.451 1244.11 204.907 Q1247.47 209.363 1253.46 209.363 Q1259.5 209.363 1262.82 204.907 Q1266.18 200.451 1266.18 192.39 M1273.64 209.971 Q1273.64 221.556 1268.49 227.187 Q1263.35 232.858 1252.73 232.858 Q1248.81 232.858 1245.32 232.251 Q1241.84 231.684 1238.56 230.468 L1238.56 223.217 Q1241.84 225 1245.04 225.85 Q1248.24 226.701 1251.56 226.701 Q1258.89 226.701 1262.54 222.853 Q1266.18 219.045 1266.18 211.308 L1266.18 207.621 Q1263.87 211.632 1260.27 213.617 Q1256.66 215.602 1251.64 215.602 Q1243.3 215.602 1238.19 209.242 Q1233.09 202.882 1233.09 192.39 Q1233.09 181.858 1238.19 175.498 Q1243.3 169.138 1251.64 169.138 Q1256.66 169.138 1260.27 171.123 Q1263.87 173.108 1266.18 177.118 L1266.18 170.231 L1273.64 170.231 L1273.64 209.971 Z" fill="#000000" fill-rule="nonzero" fill-opacity="1" /><path clip-path="url(#clip130)" d="M1288.22 197.697 L1288.22 170.231 L1295.67 170.231 L1295.67 197.413 Q1295.67 203.854 1298.19 207.095 Q1300.7 210.295 1305.72 210.295 Q1311.76 210.295 1315.24 206.447 Q1318.76 202.598 1318.76 195.955 L1318.76 170.231 L1326.22 170.231 L1326.22 215.602 L1318.76 215.602 L1318.76 208.634 Q1316.05 212.766 1312.44 214.791 Q1308.88 216.776 1304.14 216.776 Q1296.32 216.776 1292.27 211.915 Q1288.22 207.054 1288.22 197.697 M1306.98 169.138 L1306.98 169.138 Z" fill="#000000" fill-rule="nonzero" fill-opacity="1" /><path clip-path="url(#clip130)" d="M1341.57 152.569 L1349.02 152.569 L1349.02 215.602 L1341.57 215.602 L1341.57 152.569 Z" fill="#000000" fill-rule="nonzero" fill-opacity="1" /><path clip-path="url(#clip130)" d="M1385.24 192.795 Q1376.21 192.795 1372.72 194.861 Q1369.24 196.927 1369.24 201.909 Q1369.24 205.879 1371.83 208.229 Q1374.46 210.538 1378.96 210.538 Q1385.16 210.538 1388.89 206.163 Q1392.65 201.747 1392.65 194.456 L1392.65 192.795 L1385.24 192.795 M1400.11 189.716 L1400.11 215.602 L1392.65 215.602 L1392.65 208.715 Q1390.1 212.847 1386.29 214.832 Q1382.49 216.776 1376.98 216.776 Q1370.01 216.776 1365.88 212.887 Q1361.78 208.958 1361.78 202.396 Q1361.78 194.739 1366.89 190.851 Q1372.03 186.962 1382.2 186.962 L1392.65 186.962 L1392.65 186.232 Q1392.65 181.088 1389.25 178.293 Q1385.89 175.457 1379.77 175.457 Q1375.88 175.457 1372.2 176.389 Q1368.51 177.321 1365.11 179.184 L1365.11 172.297 Q1369.2 170.718 1373.05 169.948 Q1376.89 169.138 1380.54 169.138 Q1390.38 169.138 1395.25 174.242 Q1400.11 179.346 1400.11 189.716 Z" fill="#000000" fill-rule="nonzero" fill-opacity="1" /><path clip-path="url(#clip130)" d="M1441.75 177.199 Q1440.49 176.47 1439 176.146 Q1437.54 175.781 1435.75 175.781 Q1429.44 175.781 1426.03 179.913 Q1422.67 184.005 1422.67 191.701 L1422.67 215.602 L1415.18 215.602 L1415.18 170.231 L1422.67 170.231 L1422.67 177.28 Q1425.02 173.148 1428.79 171.163 Q1432.55 169.138 1437.94 169.138 Q1438.71 169.138 1439.64 169.259 Q1440.58 169.34 1441.71 169.543 L1441.75 177.199 Z" fill="#000000" fill-rule="nonzero" fill-opacity="1" /><path clip-path="url(#clip130)" d="M1470.59 170.231 L1478.49 170.231 L1492.67 208.31 L1506.85 170.231 L1514.75 170.231 L1497.73 215.602 L1487.61 215.602 L1470.59 170.231 Z" fill="#000000" fill-rule="nonzero" fill-opacity="1" /><path clip-path="url(#clip130)" d="M1545.66 192.795 Q1536.62 192.795 1533.14 194.861 Q1529.65 196.927 1529.65 201.909 Q1529.65 205.879 1532.25 208.229 Q1534.88 210.538 1539.38 210.538 Q1545.57 210.538 1549.3 206.163 Q1553.07 201.747 1553.07 194.456 L1553.07 192.795 L1545.66 192.795 M1560.52 189.716 L1560.52 215.602 L1553.07 215.602 L1553.07 208.715 Q1550.52 212.847 1546.71 214.832 Q1542.9 216.776 1537.39 216.776 Q1530.42 216.776 1526.29 212.887 Q1522.2 208.958 1522.2 202.396 Q1522.2 194.739 1527.3 190.851 Q1532.45 186.962 1542.62 186.962 L1553.07 186.962 L1553.07 186.232 Q1553.07 181.088 1549.67 178.293 Q1546.3 175.457 1540.19 175.457 Q1536.3 175.457 1532.61 176.389 Q1528.93 177.321 1525.52 179.184 L1525.52 172.297 Q1529.61 170.718 1533.46 169.948 Q1537.31 169.138 1540.96 169.138 Q1550.8 169.138 1555.66 174.242 Q1560.52 179.346 1560.52 189.716 Z" fill="#000000" fill-rule="nonzero" fill-opacity="1" /><path clip-path="url(#clip130)" d="M1575.88 152.569 L1583.33 152.569 L1583.33 215.602 L1575.88 215.602 L1575.88 152.569 Z" fill="#000000" fill-rule="nonzero" fill-opacity="1" /><path clip-path="url(#clip130)" d="M1598.16 197.697 L1598.16 170.231 L1605.61 170.231 L1605.61 197.413 Q1605.61 203.854 1608.12 207.095 Q1610.63 210.295 1615.66 210.295 Q1621.69 210.295 1625.17 206.447 Q1628.7 202.598 1628.7 195.955 L1628.7 170.231 L1636.15 170.231 L1636.15 215.602 L1628.7 215.602 L1628.7 208.634 Q1625.98 212.766 1622.38 214.791 Q1618.81 216.776 1614.08 216.776 Q1606.26 216.776 1602.21 211.915 Q1598.16 207.054 1598.16 197.697 M1616.91 169.138 L1616.91 169.138 Z" fill="#000000" fill-rule="nonzero" fill-opacity="1" /><path clip-path="url(#clip130)" d="M1690.31 191.053 L1690.31 194.699 L1656.04 194.699 Q1656.53 202.396 1660.66 206.447 Q1664.83 210.457 1672.25 210.457 Q1676.54 210.457 1680.55 209.404 Q1684.6 208.35 1688.57 206.244 L1688.57 213.293 Q1684.56 214.994 1680.35 215.885 Q1676.14 216.776 1671.8 216.776 Q1660.94 216.776 1654.58 210.457 Q1648.26 204.137 1648.26 193.362 Q1648.26 182.222 1654.26 175.7 Q1660.3 169.138 1670.5 169.138 Q1679.66 169.138 1684.97 175.052 Q1690.31 180.926 1690.31 191.053 M1682.86 188.866 Q1682.78 182.749 1679.42 179.103 Q1676.09 175.457 1670.59 175.457 Q1664.35 175.457 1660.58 178.981 Q1656.85 182.506 1656.29 188.906 L1682.86 188.866 Z" fill="#000000" fill-rule="nonzero" fill-opacity="1" /><path clip-path="url(#clip130)" d="M1731.47 171.568 L1731.47 178.617 Q1728.31 176.996 1724.91 176.186 Q1721.51 175.376 1717.86 175.376 Q1712.31 175.376 1709.51 177.077 Q1706.76 178.779 1706.76 182.182 Q1706.76 184.774 1708.74 186.273 Q1710.73 187.731 1716.73 189.068 L1719.28 189.635 Q1727.22 191.337 1730.54 194.456 Q1733.9 197.535 1733.9 203.084 Q1733.9 209.404 1728.88 213.09 Q1723.9 216.776 1715.15 216.776 Q1711.5 216.776 1707.53 216.047 Q1703.6 215.358 1699.23 213.941 L1699.23 206.244 Q1703.36 208.391 1707.37 209.485 Q1711.38 210.538 1715.31 210.538 Q1720.57 210.538 1723.41 208.756 Q1726.24 206.933 1726.24 203.651 Q1726.24 200.613 1724.18 198.993 Q1722.15 197.372 1715.23 195.874 L1712.63 195.266 Q1705.71 193.808 1702.63 190.81 Q1699.55 187.772 1699.55 182.506 Q1699.55 176.105 1704.09 172.621 Q1708.62 169.138 1716.97 169.138 Q1721.1 169.138 1724.75 169.745 Q1728.39 170.353 1731.47 171.568 Z" fill="#000000" fill-rule="nonzero" fill-opacity="1" /><path clip-path="url(#clip130)" d="M1790.05 152.651 Q1784.62 161.968 1781.99 171.082 Q1779.35 180.197 1779.35 189.554 Q1779.35 198.912 1781.99 208.107 Q1784.66 217.262 1790.05 226.539 L1783.57 226.539 Q1777.49 217.019 1774.45 207.824 Q1771.45 198.628 1771.45 189.554 Q1771.45 180.521 1774.45 171.366 Q1777.45 162.211 1783.57 152.651 L1790.05 152.651 Z" fill="#000000" fill-rule="nonzero" fill-opacity="1" /><path clip-path="url(#clip130)" d="M1842.22 188.217 L1842.22 215.602 L1834.77 215.602 L1834.77 188.46 Q1834.77 182.02 1832.26 178.819 Q1829.75 175.619 1824.72 175.619 Q1818.69 175.619 1815.2 179.467 Q1811.72 183.316 1811.72 189.959 L1811.72 215.602 L1804.22 215.602 L1804.22 170.231 L1811.72 170.231 L1811.72 177.28 Q1814.39 173.189 1818 171.163 Q1821.64 169.138 1826.38 169.138 Q1834.2 169.138 1838.21 173.999 Q1842.22 178.819 1842.22 188.217 Z" fill="#000000" fill-rule="nonzero" fill-opacity="1" /><path clip-path="url(#clip130)" d="M1874.67 175.457 Q1868.67 175.457 1865.19 180.156 Q1861.71 184.815 1861.71 192.957 Q1861.71 201.099 1865.15 205.798 Q1868.63 210.457 1874.67 210.457 Q1880.62 210.457 1884.11 205.758 Q1887.59 201.059 1887.59 192.957 Q1887.59 184.896 1884.11 180.197 Q1880.62 175.457 1874.67 175.457 M1874.67 169.138 Q1884.39 169.138 1889.94 175.457 Q1895.49 181.777 1895.49 192.957 Q1895.49 204.097 1889.94 210.457 Q1884.39 216.776 1874.67 216.776 Q1864.91 216.776 1859.36 210.457 Q1853.85 204.097 1853.85 192.957 Q1853.85 181.777 1859.36 175.457 Q1864.91 169.138 1874.67 169.138 Z" fill="#000000" fill-rule="nonzero" fill-opacity="1" /><path clip-path="url(#clip130)" d="M1907.85 170.231 L1915.3 170.231 L1915.3 215.602 L1907.85 215.602 L1907.85 170.231 M1907.85 152.569 L1915.3 152.569 L1915.3 162.008 L1907.85 162.008 L1907.85 152.569 Z" fill="#000000" fill-rule="nonzero" fill-opacity="1" /><path clip-path="url(#clip130)" d="M1959.82 171.568 L1959.82 178.617 Q1956.66 176.996 1953.26 176.186 Q1949.85 175.376 1946.21 175.376 Q1940.66 175.376 1937.86 177.077 Q1935.11 178.779 1935.11 182.182 Q1935.11 184.774 1937.09 186.273 Q1939.08 187.731 1945.07 189.068 L1947.63 189.635 Q1955.57 191.337 1958.89 194.456 Q1962.25 197.535 1962.25 203.084 Q1962.25 209.404 1957.23 213.09 Q1952.24 216.776 1943.49 216.776 Q1939.85 216.776 1935.88 216.047 Q1931.95 215.358 1927.57 213.941 L1927.57 206.244 Q1931.71 208.391 1935.72 209.485 Q1939.73 210.538 1943.66 210.538 Q1948.92 210.538 1951.76 208.756 Q1954.59 206.933 1954.59 203.651 Q1954.59 200.613 1952.53 198.993 Q1950.5 197.372 1943.58 195.874 L1940.98 195.266 Q1934.06 193.808 1930.98 190.81 Q1927.9 187.772 1927.9 182.506 Q1927.9 176.105 1932.44 172.621 Q1936.97 169.138 1945.32 169.138 Q1949.45 169.138 1953.1 169.745 Q1956.74 170.353 1959.82 171.568 Z" fill="#000000" fill-rule="nonzero" fill-opacity="1" /><path clip-path="url(#clip130)" d="M1993 219.814 Q1989.84 227.916 1986.84 230.387 Q1983.84 232.858 1978.82 232.858 L1972.86 232.858 L1972.86 226.62 L1977.24 226.62 Q1980.32 226.62 1982.02 225.162 Q1983.72 223.703 1985.79 218.275 L1987.12 214.872 L1968.77 170.231 L1976.67 170.231 L1990.85 205.717 L2005.03 170.231 L2012.93 170.231 L1993 219.814 Z" fill="#000000" fill-rule="nonzero" fill-opacity="1" /><path clip-path="url(#clip130)" d="M2082.24 171.973 L2082.24 178.941 Q2079.08 177.199 2075.88 176.348 Q2072.72 175.457 2069.48 175.457 Q2062.23 175.457 2058.22 180.075 Q2054.21 184.653 2054.21 192.957 Q2054.21 201.261 2058.22 205.879 Q2062.23 210.457 2069.48 210.457 Q2072.72 210.457 2075.88 209.606 Q2079.08 208.715 2082.24 206.973 L2082.24 213.86 Q2079.12 215.318 2075.76 216.047 Q2072.44 216.776 2068.67 216.776 Q2058.42 216.776 2052.38 210.335 Q2046.35 203.894 2046.35 192.957 Q2046.35 181.858 2052.42 175.498 Q2058.54 169.138 2069.15 169.138 Q2072.6 169.138 2075.88 169.867 Q2079.16 170.555 2082.24 171.973 Z" fill="#000000" fill-rule="nonzero" fill-opacity="1" /><path clip-path="url(#clip130)" d="M2115.82 192.795 Q2106.79 192.795 2103.3 194.861 Q2099.82 196.927 2099.82 201.909 Q2099.82 205.879 2102.41 208.229 Q2105.04 210.538 2109.54 210.538 Q2115.74 210.538 2119.47 206.163 Q2123.23 201.747 2123.23 194.456 L2123.23 192.795 L2115.82 192.795 M2130.69 189.716 L2130.69 215.602 L2123.23 215.602 L2123.23 208.715 Q2120.68 212.847 2116.87 214.832 Q2113.07 216.776 2107.56 216.776 Q2100.59 216.776 2096.46 212.887 Q2092.37 208.958 2092.37 202.396 Q2092.37 194.739 2097.47 190.851 Q2102.61 186.962 2112.78 186.962 L2123.23 186.962 L2123.23 186.232 Q2123.23 181.088 2119.83 178.293 Q2116.47 175.457 2110.35 175.457 Q2106.46 175.457 2102.78 176.389 Q2099.09 177.321 2095.69 179.184 L2095.69 172.297 Q2099.78 170.718 2103.63 169.948 Q2107.48 169.138 2111.12 169.138 Q2120.96 169.138 2125.83 174.242 Q2130.69 179.346 2130.69 189.716 Z" fill="#000000" fill-rule="nonzero" fill-opacity="1" /><path clip-path="url(#clip130)" d="M2174.96 171.568 L2174.96 178.617 Q2171.8 176.996 2168.4 176.186 Q2165 175.376 2161.35 175.376 Q2155.8 175.376 2153.01 177.077 Q2150.25 178.779 2150.25 182.182 Q2150.25 184.774 2152.24 186.273 Q2154.22 187.731 2160.22 189.068 L2162.77 189.635 Q2170.71 191.337 2174.03 194.456 Q2177.39 197.535 2177.39 203.084 Q2177.39 209.404 2172.37 213.09 Q2167.39 216.776 2158.64 216.776 Q2154.99 216.776 2151.02 216.047 Q2147.09 215.358 2142.72 213.941 L2142.72 206.244 Q2146.85 208.391 2150.86 209.485 Q2154.87 210.538 2158.8 210.538 Q2164.07 210.538 2166.9 208.756 Q2169.74 206.933 2169.74 203.651 Q2169.74 200.613 2167.67 198.993 Q2165.65 197.372 2158.72 195.874 L2156.13 195.266 Q2149.2 193.808 2146.12 190.81 Q2143.04 187.772 2143.04 182.506 Q2143.04 176.105 2147.58 172.621 Q2152.12 169.138 2160.46 169.138 Q2164.59 169.138 2168.24 169.745 Q2171.88 170.353 2174.96 171.568 Z" fill="#000000" fill-rule="nonzero" fill-opacity="1" /><path clip-path="url(#clip130)" d="M2228.07 191.053 L2228.07 194.699 L2193.8 194.699 Q2194.29 202.396 2198.42 206.447 Q2202.59 210.457 2210 210.457 Q2214.3 210.457 2218.31 209.404 Q2222.36 208.35 2226.33 206.244 L2226.33 213.293 Q2222.32 214.994 2218.11 215.885 Q2213.89 216.776 2209.56 216.776 Q2198.7 216.776 2192.34 210.457 Q2186.02 204.137 2186.02 193.362 Q2186.02 182.222 2192.02 175.7 Q2198.05 169.138 2208.26 169.138 Q2217.42 169.138 2222.72 175.052 Q2228.07 180.926 2228.07 191.053 M2220.62 188.866 Q2220.54 182.749 2217.17 179.103 Q2213.85 175.457 2208.34 175.457 Q2202.1 175.457 2198.34 178.981 Q2194.61 182.506 2194.04 188.906 L2220.62 188.866 Z" fill="#000000" fill-rule="nonzero" fill-opacity="1" /><path clip-path="url(#clip130)" d="M2239.13 152.651 L2245.61 152.651 Q2251.69 162.211 2254.69 171.366 Q2257.72 180.521 2257.72 189.554 Q2257.72 198.628 2254.69 207.824 Q2251.69 217.019 2245.61 226.539 L2239.13 226.539 Q2244.52 217.262 2247.15 208.107 Q2249.82 198.912 2249.82 189.554 Q2249.82 180.197 2247.15 171.082 Q2244.52 161.968 2239.13 152.651 Z" fill="#000000" fill-rule="nonzero" fill-opacity="1" /></svg>
