<?xml version="1.0" encoding="utf-8"?>
<svg xmlns="http://www.w3.org/2000/svg" xmlns:xlink="http://www.w3.org/1999/xlink" width="600" height="400" viewBox="0 0 2400 1600">
<defs>
  <clipPath id="clip070">
    <rect x="0" y="0" width="2400" height="1600"/>
  </clipPath>
</defs>
<path clip-path="url(#clip070)" d="M0 1600 L2400 1600 L2400 0 L0 0  Z" fill="#ffffff" fill-rule="evenodd" fill-opacity="1"/>
<defs>
  <clipPath id="clip071">
    <rect x="177" y="123" width="2176" height="1347"/>
  </clipPath>
</defs>
<path clip-path="url(#clip070)" d="M177.721 1469.17 L2352.76 1469.17 L2352.76 123.472 L177.721 123.472  Z" fill="#ffffff" fill-rule="evenodd" fill-opacity="1"/>
<polyline clip-path="url(#clip071)" style="stroke:#000000; stroke-linecap:round; stroke-linejoin:round; stroke-width:2; stroke-opacity:0.1; fill:none" points="249.619,1469.17 249.619,123.472 "/>
<polyline clip-path="url(#clip071)" style="stroke:#000000; stroke-linecap:round; stroke-linejoin:round; stroke-width:2; stroke-opacity:0.1; fill:none" points="503.524,1469.17 503.524,123.472 "/>
<polyline clip-path="url(#clip071)" style="stroke:#000000; stroke-linecap:round; stroke-linejoin:round; stroke-width:2; stroke-opacity:0.1; fill:none" points="757.429,1469.17 757.429,123.472 "/>
<polyline clip-path="url(#clip071)" style="stroke:#000000; stroke-linecap:round; stroke-linejoin:round; stroke-width:2; stroke-opacity:0.1; fill:none" points="1011.33,1469.17 1011.33,123.472 "/>
<polyline clip-path="url(#clip071)" style="stroke:#000000; stroke-linecap:round; stroke-linejoin:round; stroke-width:2; stroke-opacity:0.1; fill:none" points="1265.24,1469.17 1265.24,123.472 "/>
<polyline clip-path="url(#clip071)" style="stroke:#000000; stroke-linecap:round; stroke-linejoin:round; stroke-width:2; stroke-opacity:0.1; fill:none" points="1519.14,1469.17 1519.14,123.472 "/>
<polyline clip-path="url(#clip071)" style="stroke:#000000; stroke-linecap:round; stroke-linejoin:round; stroke-width:2; stroke-opacity:0.1; fill:none" points="1773.05,1469.17 1773.05,123.472 "/>
<polyline clip-path="url(#clip071)" style="stroke:#000000; stroke-linecap:round; stroke-linejoin:round; stroke-width:2; stroke-opacity:0.1; fill:none" points="2026.95,1469.17 2026.95,123.472 "/>
<polyline clip-path="url(#clip071)" style="stroke:#000000; stroke-linecap:round; stroke-linejoin:round; stroke-width:2; stroke-opacity:0.1; fill:none" points="2280.86,1469.17 2280.86,123.472 "/>
<polyline clip-path="url(#clip071)" style="stroke:#000000; stroke-linecap:round; stroke-linejoin:round; stroke-width:2; stroke-opacity:0.1; fill:none" points="177.721,1278.74 2352.76,1278.74 "/>
<polyline clip-path="url(#clip071)" style="stroke:#000000; stroke-linecap:round; stroke-linejoin:round; stroke-width:2; stroke-opacity:0.1; fill:none" points="177.721,1024.83 2352.76,1024.83 "/>
<polyline clip-path="url(#clip071)" style="stroke:#000000; stroke-linecap:round; stroke-linejoin:round; stroke-width:2; stroke-opacity:0.1; fill:none" points="177.721,770.93 2352.76,770.93 "/>
<polyline clip-path="url(#clip071)" style="stroke:#000000; stroke-linecap:round; stroke-linejoin:round; stroke-width:2; stroke-opacity:0.1; fill:none" points="177.721,517.025 2352.76,517.025 "/>
<polyline clip-path="url(#clip071)" style="stroke:#000000; stroke-linecap:round; stroke-linejoin:round; stroke-width:2; stroke-opacity:0.1; fill:none" points="177.721,263.12 2352.76,263.12 "/>
<polyline clip-path="url(#clip070)" style="stroke:#000000; stroke-linecap:round; stroke-linejoin:round; stroke-width:4; stroke-opacity:1; fill:none" points="177.721,1469.17 2352.76,1469.17 "/>
<polyline clip-path="url(#clip070)" style="stroke:#000000; stroke-linecap:round; stroke-linejoin:round; stroke-width:4; stroke-opacity:1; fill:none" points="249.619,1469.17 249.619,1450.27 "/>
<polyline clip-path="url(#clip070)" style="stroke:#000000; stroke-linecap:round; stroke-linejoin:round; stroke-width:4; stroke-opacity:1; fill:none" points="503.524,1469.17 503.524,1450.27 "/>
<polyline clip-path="url(#clip070)" style="stroke:#000000; stroke-linecap:round; stroke-linejoin:round; stroke-width:4; stroke-opacity:1; fill:none" points="757.429,1469.17 757.429,1450.27 "/>
<polyline clip-path="url(#clip070)" style="stroke:#000000; stroke-linecap:round; stroke-linejoin:round; stroke-width:4; stroke-opacity:1; fill:none" points="1011.33,1469.17 1011.33,1450.27 "/>
<polyline clip-path="url(#clip070)" style="stroke:#000000; stroke-linecap:round; stroke-linejoin:round; stroke-width:4; stroke-opacity:1; fill:none" points="1265.24,1469.17 1265.24,1450.27 "/>
<polyline clip-path="url(#clip070)" style="stroke:#000000; stroke-linecap:round; stroke-linejoin:round; stroke-width:4; stroke-opacity:1; fill:none" points="1519.14,1469.17 1519.14,1450.27 "/>
<polyline clip-path="url(#clip070)" style="stroke:#000000; stroke-linecap:round; stroke-linejoin:round; stroke-width:4; stroke-opacity:1; fill:none" points="1773.05,1469.17 1773.05,1450.27 "/>
<polyline clip-path="url(#clip070)" style="stroke:#000000; stroke-linecap:round; stroke-linejoin:round; stroke-width:4; stroke-opacity:1; fill:none" points="2026.95,1469.17 2026.95,1450.27 "/>
<polyline clip-path="url(#clip070)" style="stroke:#000000; stroke-linecap:round; stroke-linejoin:round; stroke-width:4; stroke-opacity:1; fill:none" points="2280.86,1469.17 2280.86,1450.27 "/>
<path clip-path="url(#clip070)" d="M202.97 1527.92 L247.484 1527.92 L247.484 1533.83 L202.97 1533.83 L202.97 1527.92 Z" fill="#000000" fill-rule="nonzero" fill-opacity="1" /><path clip-path="url(#clip070)" d="M281.893 1507.44 L264.185 1535.11 L281.893 1535.11 L281.893 1507.44 M280.053 1501.33 L288.872 1501.33 L288.872 1535.11 L296.268 1535.11 L296.268 1540.95 L288.872 1540.95 L288.872 1553.17 L281.893 1553.17 L281.893 1540.95 L258.49 1540.95 L258.49 1534.17 L280.053 1501.33 Z" fill="#000000" fill-rule="nonzero" fill-opacity="1" /><path clip-path="url(#clip070)" d="M457.725 1527.92 L502.239 1527.92 L502.239 1533.83 L457.725 1533.83 L457.725 1527.92 Z" fill="#000000" fill-rule="nonzero" fill-opacity="1" /><path clip-path="url(#clip070)" d="M538.628 1525.22 Q543.662 1526.29 546.475 1529.7 Q549.322 1533.1 549.322 1538.1 Q549.322 1545.77 544.044 1549.97 Q538.767 1554.17 529.044 1554.17 Q525.781 1554.17 522.308 1553.52 Q518.871 1552.89 515.19 1551.61 L515.19 1544.83 Q518.107 1546.54 521.579 1547.4 Q525.051 1548.27 528.836 1548.27 Q535.433 1548.27 538.871 1545.67 Q542.343 1543.06 542.343 1538.1 Q542.343 1533.52 539.114 1530.95 Q535.919 1528.34 530.19 1528.34 L524.149 1528.34 L524.149 1522.58 L530.468 1522.58 Q535.642 1522.58 538.385 1520.53 Q541.128 1518.45 541.128 1514.56 Q541.128 1510.56 538.281 1508.45 Q535.468 1506.29 530.19 1506.29 Q527.308 1506.29 524.01 1506.92 Q520.711 1507.54 516.753 1508.86 L516.753 1502.61 Q520.746 1501.5 524.218 1500.95 Q527.725 1500.39 530.815 1500.39 Q538.801 1500.39 543.454 1504.04 Q548.107 1507.65 548.107 1513.83 Q548.107 1518.13 545.642 1521.12 Q543.176 1524.07 538.628 1525.22 Z" fill="#000000" fill-rule="nonzero" fill-opacity="1" /><path clip-path="url(#clip070)" d="M712.342 1527.92 L756.856 1527.92 L756.856 1533.83 L712.342 1533.83 L712.342 1527.92 Z" fill="#000000" fill-rule="nonzero" fill-opacity="1" /><path clip-path="url(#clip070)" d="M778.036 1547.27 L802.515 1547.27 L802.515 1553.17 L769.599 1553.17 L769.599 1547.27 Q773.592 1543.13 780.467 1536.19 Q787.376 1529.21 789.147 1527.2 Q792.515 1523.41 793.835 1520.81 Q795.189 1518.17 795.189 1515.63 Q795.189 1511.5 792.272 1508.9 Q789.39 1506.29 784.738 1506.29 Q781.439 1506.29 777.758 1507.44 Q774.113 1508.58 769.946 1510.91 L769.946 1503.83 Q774.182 1502.13 777.863 1501.26 Q781.543 1500.39 784.599 1500.39 Q792.654 1500.39 797.446 1504.42 Q802.237 1508.45 802.237 1515.18 Q802.237 1518.38 801.022 1521.26 Q799.842 1524.11 796.682 1527.99 Q795.814 1529 791.161 1533.83 Q786.508 1538.62 778.036 1547.27 Z" fill="#000000" fill-rule="nonzero" fill-opacity="1" /><path clip-path="url(#clip070)" d="M965.969 1527.92 L1010.48 1527.92 L1010.48 1533.83 L965.969 1533.83 L965.969 1527.92 Z" fill="#000000" fill-rule="nonzero" fill-opacity="1" /><path clip-path="url(#clip070)" d="M1026.84 1547.27 L1038.3 1547.27 L1038.3 1507.72 L1025.83 1510.22 L1025.83 1503.83 L1038.23 1501.33 L1045.24 1501.33 L1045.24 1547.27 L1056.7 1547.27 L1056.7 1553.17 L1026.84 1553.17 L1026.84 1547.27 Z" fill="#000000" fill-rule="nonzero" fill-opacity="1" /><path clip-path="url(#clip070)" d="M1265.24 1505.95 Q1259.82 1505.95 1257.08 1511.29 Q1254.37 1516.61 1254.37 1527.3 Q1254.37 1537.96 1257.08 1543.31 Q1259.82 1548.62 1265.24 1548.62 Q1270.69 1548.62 1273.4 1543.31 Q1276.14 1537.96 1276.14 1527.3 Q1276.14 1516.61 1273.4 1511.29 Q1270.69 1505.95 1265.24 1505.95 M1265.24 1500.39 Q1273.95 1500.39 1278.54 1507.3 Q1283.15 1514.18 1283.15 1527.3 Q1283.15 1540.39 1278.54 1547.3 Q1273.95 1554.17 1265.24 1554.17 Q1256.52 1554.17 1251.91 1547.3 Q1247.32 1540.39 1247.32 1527.3 Q1247.32 1514.18 1251.91 1507.3 Q1256.52 1500.39 1265.24 1500.39 Z" fill="#000000" fill-rule="nonzero" fill-opacity="1" /><path clip-path="url(#clip070)" d="M1504.72 1547.27 L1516.17 1547.27 L1516.17 1507.72 L1503.71 1510.22 L1503.71 1503.83 L1516.11 1501.33 L1523.12 1501.33 L1523.12 1547.27 L1534.58 1547.27 L1534.58 1553.17 L1504.72 1553.17 L1504.72 1547.27 Z" fill="#000000" fill-rule="nonzero" fill-opacity="1" /><path clip-path="url(#clip070)" d="M1765.03 1547.27 L1789.51 1547.27 L1789.51 1553.17 L1756.59 1553.17 L1756.59 1547.27 Q1760.58 1543.13 1767.46 1536.19 Q1774.37 1529.21 1776.14 1527.2 Q1779.51 1523.41 1780.83 1520.81 Q1782.18 1518.17 1782.18 1515.63 Q1782.18 1511.5 1779.26 1508.9 Q1776.38 1506.29 1771.73 1506.29 Q1768.43 1506.29 1764.75 1507.44 Q1761.1 1508.58 1756.94 1510.91 L1756.94 1503.83 Q1761.17 1502.13 1764.85 1501.26 Q1768.53 1500.39 1771.59 1500.39 Q1779.65 1500.39 1784.44 1504.42 Q1789.23 1508.45 1789.23 1515.18 Q1789.23 1518.38 1788.01 1521.26 Q1786.83 1524.11 1783.67 1527.99 Q1782.8 1529 1778.15 1533.83 Q1773.5 1538.62 1765.03 1547.27 Z" fill="#000000" fill-rule="nonzero" fill-opacity="1" /><path clip-path="url(#clip070)" d="M2033.32 1525.22 Q2038.36 1526.29 2041.17 1529.7 Q2044.02 1533.1 2044.02 1538.1 Q2044.02 1545.77 2038.74 1549.97 Q2033.46 1554.17 2023.74 1554.17 Q2020.48 1554.17 2017.01 1553.52 Q2013.57 1552.89 2009.89 1551.61 L2009.89 1544.83 Q2012.8 1546.54 2016.28 1547.4 Q2019.75 1548.27 2023.53 1548.27 Q2030.13 1548.27 2033.57 1545.67 Q2037.04 1543.06 2037.04 1538.1 Q2037.04 1533.52 2033.81 1530.95 Q2030.62 1528.34 2024.89 1528.34 L2018.85 1528.34 L2018.85 1522.58 L2025.16 1522.58 Q2030.34 1522.58 2033.08 1520.53 Q2035.82 1518.45 2035.82 1514.56 Q2035.82 1510.56 2032.98 1508.45 Q2030.16 1506.29 2024.89 1506.29 Q2022.01 1506.29 2018.71 1506.92 Q2015.41 1507.54 2011.45 1508.86 L2011.45 1502.61 Q2015.44 1501.5 2018.91 1500.95 Q2022.42 1500.39 2025.51 1500.39 Q2033.5 1500.39 2038.15 1504.04 Q2042.8 1507.65 2042.8 1513.83 Q2042.8 1518.13 2040.34 1521.12 Q2037.87 1524.07 2033.32 1525.22 Z" fill="#000000" fill-rule="nonzero" fill-opacity="1" /><path clip-path="url(#clip070)" d="M2285.37 1507.44 L2267.66 1535.11 L2285.37 1535.11 L2285.37 1507.44 M2283.53 1501.33 L2292.35 1501.33 L2292.35 1535.11 L2299.75 1535.11 L2299.75 1540.95 L2292.35 1540.95 L2292.35 1553.17 L2285.37 1553.17 L2285.37 1540.95 L2261.97 1540.95 L2261.97 1534.17 L2283.53 1501.33 Z" fill="#000000" fill-rule="nonzero" fill-opacity="1" /><polyline clip-path="url(#clip070)" style="stroke:#000000; stroke-linecap:round; stroke-linejoin:round; stroke-width:4; stroke-opacity:1; fill:none" points="177.721,1469.17 177.721,123.472 "/>
<polyline clip-path="url(#clip070)" style="stroke:#000000; stroke-linecap:round; stroke-linejoin:round; stroke-width:4; stroke-opacity:1; fill:none" points="177.721,1278.74 196.618,1278.74 "/>
<polyline clip-path="url(#clip070)" style="stroke:#000000; stroke-linecap:round; stroke-linejoin:round; stroke-width:4; stroke-opacity:1; fill:none" points="177.721,1024.83 196.618,1024.83 "/>
<polyline clip-path="url(#clip070)" style="stroke:#000000; stroke-linecap:round; stroke-linejoin:round; stroke-width:4; stroke-opacity:1; fill:none" points="177.721,770.93 196.618,770.93 "/>
<polyline clip-path="url(#clip070)" style="stroke:#000000; stroke-linecap:round; stroke-linejoin:round; stroke-width:4; stroke-opacity:1; fill:none" points="177.721,517.025 196.618,517.025 "/>
<polyline clip-path="url(#clip070)" style="stroke:#000000; stroke-linecap:round; stroke-linejoin:round; stroke-width:4; stroke-opacity:1; fill:none" points="177.721,263.12 196.618,263.12 "/>
<path clip-path="url(#clip070)" d="M51.5477 1279.42 L96.0613 1279.42 L96.0613 1285.32 L51.5477 1285.32 L51.5477 1279.42 Z" fill="#000000" fill-rule="nonzero" fill-opacity="1" /><path clip-path="url(#clip070)" d="M117.242 1298.76 L141.721 1298.76 L141.721 1304.66 L108.804 1304.66 L108.804 1298.76 Q112.797 1294.62 119.672 1287.68 Q126.582 1280.7 128.353 1278.69 Q131.721 1274.9 133.04 1272.3 Q134.394 1269.66 134.394 1267.12 Q134.394 1262.99 131.478 1260.39 Q128.596 1257.78 123.943 1257.78 Q120.645 1257.78 116.964 1258.93 Q113.318 1260.08 109.152 1262.4 L109.152 1255.32 Q113.388 1253.62 117.068 1252.75 Q120.749 1251.88 123.804 1251.88 Q131.86 1251.88 136.651 1255.91 Q141.443 1259.94 141.443 1266.67 Q141.443 1269.87 140.228 1272.75 Q139.047 1275.6 135.888 1279.49 Q135.019 1280.49 130.367 1285.32 Q125.714 1290.11 117.242 1298.76 Z" fill="#000000" fill-rule="nonzero" fill-opacity="1" /><path clip-path="url(#clip070)" d="M50.9921 1025.51 L95.5058 1025.51 L95.5058 1031.41 L50.9921 1031.41 L50.9921 1025.51 Z" fill="#000000" fill-rule="nonzero" fill-opacity="1" /><path clip-path="url(#clip070)" d="M111.86 1044.85 L123.318 1044.85 L123.318 1005.3 L110.853 1007.8 L110.853 1001.41 L123.249 998.914 L130.263 998.914 L130.263 1044.85 L141.721 1044.85 L141.721 1050.75 L111.86 1050.75 L111.86 1044.85 Z" fill="#000000" fill-rule="nonzero" fill-opacity="1" /><path clip-path="url(#clip070)" d="M123.804 749.628 Q118.388 749.628 115.645 754.975 Q112.936 760.287 112.936 770.982 Q112.936 781.641 115.645 786.988 Q118.388 792.301 123.804 792.301 Q129.256 792.301 131.964 786.988 Q134.707 781.641 134.707 770.982 Q134.707 760.287 131.964 754.975 Q129.256 749.628 123.804 749.628 M123.804 744.072 Q132.519 744.072 137.103 750.982 Q141.721 757.857 141.721 770.982 Q141.721 784.072 137.103 790.981 Q132.519 797.856 123.804 797.856 Q115.089 797.856 110.471 790.981 Q105.888 784.072 105.888 770.982 Q105.888 757.857 110.471 750.982 Q115.089 744.072 123.804 744.072 Z" fill="#000000" fill-rule="nonzero" fill-opacity="1" /><path clip-path="url(#clip070)" d="M111.86 537.042 L123.318 537.042 L123.318 497.494 L110.853 499.993 L110.853 493.605 L123.249 491.105 L130.263 491.105 L130.263 537.042 L141.721 537.042 L141.721 542.945 L111.86 542.945 L111.86 537.042 Z" fill="#000000" fill-rule="nonzero" fill-opacity="1" /><path clip-path="url(#clip070)" d="M117.242 283.137 L141.721 283.137 L141.721 289.04 L108.804 289.04 L108.804 283.137 Q112.797 279.005 119.672 272.061 Q126.582 265.082 128.353 263.068 Q131.721 259.283 133.04 256.679 Q134.394 254.04 134.394 251.505 Q134.394 247.373 131.478 244.769 Q128.596 242.165 123.943 242.165 Q120.645 242.165 116.964 243.311 Q113.318 244.457 109.152 246.783 L109.152 239.7 Q113.388 237.998 117.068 237.13 Q120.749 236.262 123.804 236.262 Q131.86 236.262 136.651 240.29 Q141.443 244.318 141.443 251.054 Q141.443 254.248 140.228 257.13 Q139.047 259.977 135.888 263.866 Q135.019 264.873 130.367 269.7 Q125.714 274.491 117.242 283.137 Z" fill="#000000" fill-rule="nonzero" fill-opacity="1" /><path clip-path="url(#clip070)" d="M535.407 12.096 L543.59 12.096 L543.59 65.6895 L573.04 65.6895 L573.04 72.576 L535.407 72.576 L535.407 12.096 Z" fill="#000000" fill-rule="nonzero" fill-opacity="1" /><path clip-path="url(#clip070)" d="M597.427 32.4315 Q591.431 32.4315 587.947 37.1306 Q584.464 41.7891 584.464 49.9314 Q584.464 58.0738 587.907 62.7728 Q591.391 67.4314 597.427 67.4314 Q603.381 67.4314 606.865 62.7323 Q610.349 58.0333 610.349 49.9314 Q610.349 41.8701 606.865 37.1711 Q603.381 32.4315 597.427 32.4315 M597.427 26.1121 Q607.149 26.1121 612.698 32.4315 Q618.248 38.7509 618.248 49.9314 Q618.248 61.0714 612.698 67.4314 Q607.149 73.7508 597.427 73.7508 Q587.664 73.7508 582.114 67.4314 Q576.605 61.0714 576.605 49.9314 Q576.605 38.7509 582.114 32.4315 Q587.664 26.1121 597.427 26.1121 Z" fill="#000000" fill-rule="nonzero" fill-opacity="1" /><path clip-path="url(#clip070)" d="M663.254 28.9478 L663.254 35.9153 Q660.094 34.1734 656.894 33.3227 Q653.734 32.4315 650.493 32.4315 Q643.242 32.4315 639.232 37.0496 Q635.221 41.6271 635.221 49.9314 Q635.221 58.2358 639.232 62.8538 Q643.242 67.4314 650.493 67.4314 Q653.734 67.4314 656.894 66.5807 Q660.094 65.6895 663.254 63.9476 L663.254 70.8341 Q660.135 72.2924 656.772 73.0216 Q653.451 73.7508 649.683 73.7508 Q639.434 73.7508 633.399 67.3098 Q627.363 60.8689 627.363 49.9314 Q627.363 38.832 633.439 32.472 Q639.556 26.1121 650.169 26.1121 Q653.613 26.1121 656.894 26.8413 Q660.175 27.5299 663.254 28.9478 Z" fill="#000000" fill-rule="nonzero" fill-opacity="1" /><path clip-path="url(#clip070)" d="M696.836 49.7694 Q687.802 49.7694 684.318 51.8354 Q680.835 53.9013 680.835 58.8839 Q680.835 62.8538 683.427 65.2034 Q686.06 67.5124 690.557 67.5124 Q696.755 67.5124 700.482 63.1374 Q704.249 58.7219 704.249 51.4303 L704.249 49.7694 L696.836 49.7694 M711.703 46.6907 L711.703 72.576 L704.249 72.576 L704.249 65.6895 Q701.697 69.8214 697.889 71.8063 Q694.081 73.7508 688.572 73.7508 Q681.604 73.7508 677.472 69.8619 Q673.381 65.9325 673.381 59.3701 Q673.381 51.7138 678.485 47.825 Q683.63 43.9361 693.798 43.9361 L704.249 43.9361 L704.249 43.2069 Q704.249 38.0623 700.846 35.2672 Q697.484 32.4315 691.367 32.4315 Q687.478 32.4315 683.792 33.3632 Q680.105 34.295 676.703 36.1584 L676.703 29.2718 Q680.794 27.692 684.643 26.9223 Q688.491 26.1121 692.137 26.1121 Q701.98 26.1121 706.841 31.2163 Q711.703 36.3204 711.703 46.6907 Z" fill="#000000" fill-rule="nonzero" fill-opacity="1" /><path clip-path="url(#clip070)" d="M734.428 14.324 L734.428 27.2059 L749.781 27.2059 L749.781 32.9987 L734.428 32.9987 L734.428 57.6282 Q734.428 63.1779 735.927 64.7578 Q737.466 66.3376 742.125 66.3376 L749.781 66.3376 L749.781 72.576 L742.125 72.576 Q733.496 72.576 730.215 69.3758 Q726.934 66.1351 726.934 57.6282 L726.934 32.9987 L721.465 32.9987 L721.465 27.2059 L726.934 27.2059 L726.934 14.324 L734.428 14.324 Z" fill="#000000" fill-rule="nonzero" fill-opacity="1" /><path clip-path="url(#clip070)" d="M759.584 27.2059 L767.038 27.2059 L767.038 72.576 L759.584 72.576 L759.584 27.2059 M759.584 9.54393 L767.038 9.54393 L767.038 18.9825 L759.584 18.9825 L759.584 9.54393 Z" fill="#000000" fill-rule="nonzero" fill-opacity="1" /><path clip-path="url(#clip070)" d="M800.215 32.4315 Q794.219 32.4315 790.736 37.1306 Q787.252 41.7891 787.252 49.9314 Q787.252 58.0738 790.695 62.7728 Q794.179 67.4314 800.215 67.4314 Q806.17 67.4314 809.653 62.7323 Q813.137 58.0333 813.137 49.9314 Q813.137 41.8701 809.653 37.1711 Q806.17 32.4315 800.215 32.4315 M800.215 26.1121 Q809.937 26.1121 815.487 32.4315 Q821.036 38.7509 821.036 49.9314 Q821.036 61.0714 815.487 67.4314 Q809.937 73.7508 800.215 73.7508 Q790.452 73.7508 784.902 67.4314 Q779.393 61.0714 779.393 49.9314 Q779.393 38.7509 784.902 32.4315 Q790.452 26.1121 800.215 26.1121 Z" fill="#000000" fill-rule="nonzero" fill-opacity="1" /><path clip-path="url(#clip070)" d="M871.106 45.1919 L871.106 72.576 L863.652 72.576 L863.652 45.4349 Q863.652 38.994 861.14 35.7938 Q858.629 32.5936 853.606 32.5936 Q847.57 32.5936 844.086 36.4419 Q840.602 40.2903 840.602 46.9338 L840.602 72.576 L833.108 72.576 L833.108 27.2059 L840.602 27.2059 L840.602 34.2544 Q843.276 30.163 846.881 28.1376 Q850.527 26.1121 855.267 26.1121 Q863.085 26.1121 867.095 30.9732 Q871.106 35.7938 871.106 45.1919 Z" fill="#000000" fill-rule="nonzero" fill-opacity="1" /><path clip-path="url(#clip070)" d="M951.151 48.0275 L951.151 51.6733 L916.881 51.6733 Q917.367 59.3701 921.499 63.421 Q925.671 67.4314 933.084 67.4314 Q937.378 67.4314 941.389 66.3781 Q945.44 65.3249 949.41 63.2184 L949.41 70.267 Q945.399 71.9684 941.186 72.8596 Q936.973 73.7508 932.639 73.7508 Q921.782 73.7508 915.423 67.4314 Q909.103 61.1119 909.103 50.3365 Q909.103 39.1965 915.098 32.6746 Q921.134 26.1121 931.343 26.1121 Q940.498 26.1121 945.804 32.0264 Q951.151 37.9003 951.151 48.0275 M943.698 45.84 Q943.617 39.7232 940.255 36.0774 Q936.933 32.4315 931.424 32.4315 Q925.185 32.4315 921.418 35.9558 Q917.691 39.4801 917.124 45.8805 L943.698 45.84 Z" fill="#000000" fill-rule="nonzero" fill-opacity="1" /><path clip-path="url(#clip070)" d="M992.309 28.5427 L992.309 35.5912 Q989.149 33.9709 985.746 33.1607 Q982.343 32.3505 978.698 32.3505 Q973.148 32.3505 970.353 34.0519 Q967.598 35.7533 967.598 39.156 Q967.598 41.7486 969.583 43.2475 Q971.568 44.7058 977.563 46.0426 L980.115 46.6097 Q988.055 48.3111 991.377 51.4303 Q994.739 54.509 994.739 60.0587 Q994.739 66.3781 989.716 70.0644 Q984.733 73.7508 975.984 73.7508 Q972.338 73.7508 968.368 73.0216 Q964.438 72.3329 960.063 70.9151 L960.063 63.2184 Q964.195 65.3654 968.206 66.4591 Q972.216 67.5124 976.146 67.5124 Q981.412 67.5124 984.247 65.73 Q987.083 63.9071 987.083 60.6258 Q987.083 57.5877 985.017 55.9673 Q982.992 54.3469 976.065 52.8481 L973.472 52.2405 Q966.545 50.7821 963.466 47.7845 Q960.388 44.7463 960.388 39.4801 Q960.388 33.0797 964.925 29.5959 Q969.462 26.1121 977.806 26.1121 Q981.938 26.1121 985.584 26.7198 Q989.23 27.3274 992.309 28.5427 Z" fill="#000000" fill-rule="nonzero" fill-opacity="1" /><path clip-path="url(#clip070)" d="M1013.98 14.324 L1013.98 27.2059 L1029.33 27.2059 L1029.33 32.9987 L1013.98 32.9987 L1013.98 57.6282 Q1013.98 63.1779 1015.48 64.7578 Q1017.02 66.3376 1021.68 66.3376 L1029.33 66.3376 L1029.33 72.576 L1021.68 72.576 Q1013.05 72.576 1009.77 69.3758 Q1006.49 66.1351 1006.49 57.6282 L1006.49 32.9987 L1001.02 32.9987 L1001.02 27.2059 L1006.49 27.2059 L1006.49 14.324 L1013.98 14.324 Z" fill="#000000" fill-rule="nonzero" fill-opacity="1" /><path clip-path="url(#clip070)" d="M1039.14 27.2059 L1046.59 27.2059 L1046.59 72.576 L1039.14 72.576 L1039.14 27.2059 M1039.14 9.54393 L1046.59 9.54393 L1046.59 18.9825 L1039.14 18.9825 L1039.14 9.54393 Z" fill="#000000" fill-rule="nonzero" fill-opacity="1" /><path clip-path="url(#clip070)" d="M1097.51 35.9153 Q1100.31 30.8922 1104.19 28.5022 Q1108.08 26.1121 1113.35 26.1121 Q1120.44 26.1121 1124.29 31.0947 Q1128.14 36.0368 1128.14 45.1919 L1128.14 72.576 L1120.64 72.576 L1120.64 45.4349 Q1120.64 38.913 1118.33 35.7533 Q1116.02 32.5936 1111.28 32.5936 Q1105.49 32.5936 1102.13 36.4419 Q1098.77 40.2903 1098.77 46.9338 L1098.77 72.576 L1091.27 72.576 L1091.27 45.4349 Q1091.27 38.8725 1088.96 35.7533 Q1086.65 32.5936 1081.83 32.5936 Q1076.12 32.5936 1072.76 36.4824 Q1069.4 40.3308 1069.4 46.9338 L1069.4 72.576 L1061.9 72.576 L1061.9 27.2059 L1069.4 27.2059 L1069.4 34.2544 Q1071.95 30.082 1075.51 28.0971 Q1079.08 26.1121 1083.98 26.1121 Q1088.92 26.1121 1092.37 28.6237 Q1095.85 31.1352 1097.51 35.9153 Z" fill="#000000" fill-rule="nonzero" fill-opacity="1" /><path clip-path="url(#clip070)" d="M1163.62 49.7694 Q1154.59 49.7694 1151.1 51.8354 Q1147.62 53.9013 1147.62 58.8839 Q1147.62 62.8538 1150.21 65.2034 Q1152.85 67.5124 1157.34 67.5124 Q1163.54 67.5124 1167.27 63.1374 Q1171.03 58.7219 1171.03 51.4303 L1171.03 49.7694 L1163.62 49.7694 M1178.49 46.6907 L1178.49 72.576 L1171.03 72.576 L1171.03 65.6895 Q1168.48 69.8214 1164.67 71.8063 Q1160.87 73.7508 1155.36 73.7508 Q1148.39 73.7508 1144.26 69.8619 Q1140.17 65.9325 1140.17 59.3701 Q1140.17 51.7138 1145.27 47.825 Q1150.42 43.9361 1160.58 43.9361 L1171.03 43.9361 L1171.03 43.2069 Q1171.03 38.0623 1167.63 35.2672 Q1164.27 32.4315 1158.15 32.4315 Q1154.26 32.4315 1150.58 33.3632 Q1146.89 34.295 1143.49 36.1584 L1143.49 29.2718 Q1147.58 27.692 1151.43 26.9223 Q1155.28 26.1121 1158.92 26.1121 Q1168.77 26.1121 1173.63 31.2163 Q1178.49 36.3204 1178.49 46.6907 Z" fill="#000000" fill-rule="nonzero" fill-opacity="1" /><path clip-path="url(#clip070)" d="M1201.21 14.324 L1201.21 27.2059 L1216.57 27.2059 L1216.57 32.9987 L1201.21 32.9987 L1201.21 57.6282 Q1201.21 63.1779 1202.71 64.7578 Q1204.25 66.3376 1208.91 66.3376 L1216.57 66.3376 L1216.57 72.576 L1208.91 72.576 Q1200.28 72.576 1197 69.3758 Q1193.72 66.1351 1193.72 57.6282 L1193.72 32.9987 L1188.25 32.9987 L1188.25 27.2059 L1193.72 27.2059 L1193.72 14.324 L1201.21 14.324 Z" fill="#000000" fill-rule="nonzero" fill-opacity="1" /><path clip-path="url(#clip070)" d="M1265.18 48.0275 L1265.18 51.6733 L1230.91 51.6733 Q1231.39 59.3701 1235.52 63.421 Q1239.7 67.4314 1247.11 67.4314 Q1251.4 67.4314 1255.41 66.3781 Q1259.47 65.3249 1263.44 63.2184 L1263.44 70.267 Q1259.43 71.9684 1255.21 72.8596 Q1251 73.7508 1246.66 73.7508 Q1235.81 73.7508 1229.45 67.4314 Q1223.13 61.1119 1223.13 50.3365 Q1223.13 39.1965 1229.12 32.6746 Q1235.16 26.1121 1245.37 26.1121 Q1254.52 26.1121 1259.83 32.0264 Q1265.18 37.9003 1265.18 48.0275 M1257.72 45.84 Q1257.64 39.7232 1254.28 36.0774 Q1250.96 32.4315 1245.45 32.4315 Q1239.21 32.4315 1235.44 35.9558 Q1231.72 39.4801 1231.15 45.8805 L1257.72 45.84 Z" fill="#000000" fill-rule="nonzero" fill-opacity="1" /><path clip-path="url(#clip070)" d="M1306.33 28.5427 L1306.33 35.5912 Q1303.18 33.9709 1299.77 33.1607 Q1296.37 32.3505 1292.72 32.3505 Q1287.17 32.3505 1284.38 34.0519 Q1281.62 35.7533 1281.62 39.156 Q1281.62 41.7486 1283.61 43.2475 Q1285.59 44.7058 1291.59 46.0426 L1294.14 46.6097 Q1302.08 48.3111 1305.4 51.4303 Q1308.77 54.509 1308.77 60.0587 Q1308.77 66.3781 1303.74 70.0644 Q1298.76 73.7508 1290.01 73.7508 Q1286.36 73.7508 1282.39 73.0216 Q1278.46 72.3329 1274.09 70.9151 L1274.09 63.2184 Q1278.22 65.3654 1282.23 66.4591 Q1286.24 67.5124 1290.17 67.5124 Q1295.44 67.5124 1298.27 65.73 Q1301.11 63.9071 1301.11 60.6258 Q1301.11 57.5877 1299.04 55.9673 Q1297.02 54.3469 1290.09 52.8481 L1287.5 52.2405 Q1280.57 50.7821 1277.49 47.7845 Q1274.41 44.7463 1274.41 39.4801 Q1274.41 33.0797 1278.95 29.5959 Q1283.49 26.1121 1291.83 26.1121 Q1295.96 26.1121 1299.61 26.7198 Q1303.26 27.3274 1306.33 28.5427 Z" fill="#000000" fill-rule="nonzero" fill-opacity="1" /><path clip-path="url(#clip070)" d="M1364.91 9.62495 Q1359.48 18.942 1356.85 28.0566 Q1354.22 37.1711 1354.22 46.5287 Q1354.22 55.8863 1356.85 65.0818 Q1359.52 74.2369 1364.91 83.5134 L1358.43 83.5134 Q1352.35 73.9938 1349.31 64.7983 Q1346.32 55.6027 1346.32 46.5287 Q1346.32 37.4952 1349.31 28.3401 Q1352.31 19.1851 1358.43 9.62495 L1364.91 9.62495 Z" fill="#000000" fill-rule="nonzero" fill-opacity="1" /><path clip-path="url(#clip070)" d="M1417.09 45.1919 L1417.09 72.576 L1409.63 72.576 L1409.63 45.4349 Q1409.63 38.994 1407.12 35.7938 Q1404.61 32.5936 1399.59 32.5936 Q1393.55 32.5936 1390.07 36.4419 Q1386.58 40.2903 1386.58 46.9338 L1386.58 72.576 L1379.09 72.576 L1379.09 27.2059 L1386.58 27.2059 L1386.58 34.2544 Q1389.26 30.163 1392.86 28.1376 Q1396.51 26.1121 1401.25 26.1121 Q1409.07 26.1121 1413.08 30.9732 Q1417.09 35.7938 1417.09 45.1919 Z" fill="#000000" fill-rule="nonzero" fill-opacity="1" /><path clip-path="url(#clip070)" d="M1449.53 32.4315 Q1443.54 32.4315 1440.06 37.1306 Q1436.57 41.7891 1436.57 49.9314 Q1436.57 58.0738 1440.01 62.7728 Q1443.5 67.4314 1449.53 67.4314 Q1455.49 67.4314 1458.97 62.7323 Q1462.46 58.0333 1462.46 49.9314 Q1462.46 41.8701 1458.97 37.1711 Q1455.49 32.4315 1449.53 32.4315 M1449.53 26.1121 Q1459.26 26.1121 1464.81 32.4315 Q1470.36 38.7509 1470.36 49.9314 Q1470.36 61.0714 1464.81 67.4314 Q1459.26 73.7508 1449.53 73.7508 Q1439.77 73.7508 1434.22 67.4314 Q1428.71 61.0714 1428.71 49.9314 Q1428.71 38.7509 1434.22 32.4315 Q1439.77 26.1121 1449.53 26.1121 Z" fill="#000000" fill-rule="nonzero" fill-opacity="1" /><path clip-path="url(#clip070)" d="M1482.71 27.2059 L1490.16 27.2059 L1490.16 72.576 L1482.71 72.576 L1482.71 27.2059 M1482.71 9.54393 L1490.16 9.54393 L1490.16 18.9825 L1482.71 18.9825 L1482.71 9.54393 Z" fill="#000000" fill-rule="nonzero" fill-opacity="1" /><path clip-path="url(#clip070)" d="M1534.68 28.5427 L1534.68 35.5912 Q1531.52 33.9709 1528.12 33.1607 Q1524.72 32.3505 1521.07 32.3505 Q1515.52 32.3505 1512.73 34.0519 Q1509.97 35.7533 1509.97 39.156 Q1509.97 41.7486 1511.96 43.2475 Q1513.94 44.7058 1519.94 46.0426 L1522.49 46.6097 Q1530.43 48.3111 1533.75 51.4303 Q1537.11 54.509 1537.11 60.0587 Q1537.11 66.3781 1532.09 70.0644 Q1527.11 73.7508 1518.36 73.7508 Q1514.71 73.7508 1510.74 73.0216 Q1506.81 72.3329 1502.44 70.9151 L1502.44 63.2184 Q1506.57 65.3654 1510.58 66.4591 Q1514.59 67.5124 1518.52 67.5124 Q1523.79 67.5124 1526.62 65.73 Q1529.46 63.9071 1529.46 60.6258 Q1529.46 57.5877 1527.39 55.9673 Q1525.37 54.3469 1518.44 52.8481 L1515.85 52.2405 Q1508.92 50.7821 1505.84 47.7845 Q1502.76 44.7463 1502.76 39.4801 Q1502.76 33.0797 1507.3 29.5959 Q1511.84 26.1121 1520.18 26.1121 Q1524.31 26.1121 1527.96 26.7198 Q1531.61 27.3274 1534.68 28.5427 Z" fill="#000000" fill-rule="nonzero" fill-opacity="1" /><path clip-path="url(#clip070)" d="M1587.79 48.0275 L1587.79 51.6733 L1553.52 51.6733 Q1554.01 59.3701 1558.14 63.421 Q1562.31 67.4314 1569.72 67.4314 Q1574.02 67.4314 1578.03 66.3781 Q1582.08 65.3249 1586.05 63.2184 L1586.05 70.267 Q1582.04 71.9684 1577.83 72.8596 Q1573.61 73.7508 1569.28 73.7508 Q1558.42 73.7508 1552.06 67.4314 Q1545.74 61.1119 1545.74 50.3365 Q1545.74 39.1965 1551.74 32.6746 Q1557.77 26.1121 1567.98 26.1121 Q1577.14 26.1121 1582.44 32.0264 Q1587.79 37.9003 1587.79 48.0275 M1580.34 45.84 Q1580.26 39.7232 1576.89 36.0774 Q1573.57 32.4315 1568.06 32.4315 Q1561.83 32.4315 1558.06 35.9558 Q1554.33 39.4801 1553.76 45.8805 L1580.34 45.84 Z" fill="#000000" fill-rule="nonzero" fill-opacity="1" /><path clip-path="url(#clip070)" d="M1600.03 9.54393 L1607.48 9.54393 L1607.48 72.576 L1600.03 72.576 L1600.03 9.54393 Z" fill="#000000" fill-rule="nonzero" fill-opacity="1" /><path clip-path="url(#clip070)" d="M1661.88 48.0275 L1661.88 51.6733 L1627.61 51.6733 Q1628.1 59.3701 1632.23 63.421 Q1636.4 67.4314 1643.82 67.4314 Q1648.11 67.4314 1652.12 66.3781 Q1656.17 65.3249 1660.14 63.2184 L1660.14 70.267 Q1656.13 71.9684 1651.92 72.8596 Q1647.7 73.7508 1643.37 73.7508 Q1632.51 73.7508 1626.15 67.4314 Q1619.83 61.1119 1619.83 50.3365 Q1619.83 39.1965 1625.83 32.6746 Q1631.87 26.1121 1642.07 26.1121 Q1651.23 26.1121 1656.54 32.0264 Q1661.88 37.9003 1661.88 48.0275 M1654.43 45.84 Q1654.35 39.7232 1650.99 36.0774 Q1647.66 32.4315 1642.15 32.4315 Q1635.92 32.4315 1632.15 35.9558 Q1628.42 39.4801 1627.86 45.8805 L1654.43 45.84 Z" fill="#000000" fill-rule="nonzero" fill-opacity="1" /><path clip-path="url(#clip070)" d="M1703.04 28.5427 L1703.04 35.5912 Q1699.88 33.9709 1696.48 33.1607 Q1693.07 32.3505 1689.43 32.3505 Q1683.88 32.3505 1681.08 34.0519 Q1678.33 35.7533 1678.33 39.156 Q1678.33 41.7486 1680.31 43.2475 Q1682.3 44.7058 1688.29 46.0426 L1690.85 46.6097 Q1698.79 48.3111 1702.11 51.4303 Q1705.47 54.509 1705.47 60.0587 Q1705.47 66.3781 1700.45 70.0644 Q1695.46 73.7508 1686.71 73.7508 Q1683.07 73.7508 1679.1 73.0216 Q1675.17 72.3329 1670.79 70.9151 L1670.79 63.2184 Q1674.93 65.3654 1678.94 66.4591 Q1682.95 67.5124 1686.88 67.5124 Q1692.14 67.5124 1694.98 65.73 Q1697.81 63.9071 1697.81 60.6258 Q1697.81 57.5877 1695.75 55.9673 Q1693.72 54.3469 1686.8 52.8481 L1684.2 52.2405 Q1677.28 50.7821 1674.2 47.7845 Q1671.12 44.7463 1671.12 39.4801 Q1671.12 33.0797 1675.66 29.5959 Q1680.19 26.1121 1688.54 26.1121 Q1692.67 26.1121 1696.32 26.7198 Q1699.96 27.3274 1703.04 28.5427 Z" fill="#000000" fill-rule="nonzero" fill-opacity="1" /><path clip-path="url(#clip070)" d="M1746.26 28.5427 L1746.26 35.5912 Q1743.1 33.9709 1739.7 33.1607 Q1736.3 32.3505 1732.65 32.3505 Q1727.1 32.3505 1724.31 34.0519 Q1721.55 35.7533 1721.55 39.156 Q1721.55 41.7486 1723.54 43.2475 Q1725.52 44.7058 1731.52 46.0426 L1734.07 46.6097 Q1742.01 48.3111 1745.33 51.4303 Q1748.69 54.509 1748.69 60.0587 Q1748.69 66.3781 1743.67 70.0644 Q1738.69 73.7508 1729.94 73.7508 Q1726.29 73.7508 1722.32 73.0216 Q1718.39 72.3329 1714.02 70.9151 L1714.02 63.2184 Q1718.15 65.3654 1722.16 66.4591 Q1726.17 67.5124 1730.1 67.5124 Q1735.37 67.5124 1738.2 65.73 Q1741.04 63.9071 1741.04 60.6258 Q1741.04 57.5877 1738.97 55.9673 Q1736.95 54.3469 1730.02 52.8481 L1727.43 52.2405 Q1720.5 50.7821 1717.42 47.7845 Q1714.34 44.7463 1714.34 39.4801 Q1714.34 33.0797 1718.88 29.5959 Q1723.42 26.1121 1731.76 26.1121 Q1735.89 26.1121 1739.54 26.7198 Q1743.18 27.3274 1746.26 28.5427 Z" fill="#000000" fill-rule="nonzero" fill-opacity="1" /><path clip-path="url(#clip070)" d="M1819.58 28.9478 L1819.58 35.9153 Q1816.42 34.1734 1813.22 33.3227 Q1810.06 32.4315 1806.82 32.4315 Q1799.57 32.4315 1795.56 37.0496 Q1791.55 41.6271 1791.55 49.9314 Q1791.55 58.2358 1795.56 62.8538 Q1799.57 67.4314 1806.82 67.4314 Q1810.06 67.4314 1813.22 66.5807 Q1816.42 65.6895 1819.58 63.9476 L1819.58 70.8341 Q1816.47 72.2924 1813.1 73.0216 Q1809.78 73.7508 1806.01 73.7508 Q1795.77 73.7508 1789.73 67.3098 Q1783.69 60.8689 1783.69 49.9314 Q1783.69 38.832 1789.77 32.472 Q1795.89 26.1121 1806.5 26.1121 Q1809.94 26.1121 1813.22 26.8413 Q1816.51 27.5299 1819.58 28.9478 Z" fill="#000000" fill-rule="nonzero" fill-opacity="1" /><path clip-path="url(#clip070)" d="M1853.17 49.7694 Q1844.13 49.7694 1840.65 51.8354 Q1837.17 53.9013 1837.17 58.8839 Q1837.17 62.8538 1839.76 65.2034 Q1842.39 67.5124 1846.89 67.5124 Q1853.09 67.5124 1856.81 63.1374 Q1860.58 58.7219 1860.58 51.4303 L1860.58 49.7694 L1853.17 49.7694 M1868.03 46.6907 L1868.03 72.576 L1860.58 72.576 L1860.58 65.6895 Q1858.03 69.8214 1854.22 71.8063 Q1850.41 73.7508 1844.9 73.7508 Q1837.93 73.7508 1833.8 69.8619 Q1829.71 65.9325 1829.71 59.3701 Q1829.71 51.7138 1834.82 47.825 Q1839.96 43.9361 1850.13 43.9361 L1860.58 43.9361 L1860.58 43.2069 Q1860.58 38.0623 1857.18 35.2672 Q1853.81 32.4315 1847.7 32.4315 Q1843.81 32.4315 1840.12 33.3632 Q1836.44 34.295 1833.03 36.1584 L1833.03 29.2718 Q1837.12 27.692 1840.97 26.9223 Q1844.82 26.1121 1848.47 26.1121 Q1858.31 26.1121 1863.17 31.2163 Q1868.03 36.3204 1868.03 46.6907 Z" fill="#000000" fill-rule="nonzero" fill-opacity="1" /><path clip-path="url(#clip070)" d="M1912.31 28.5427 L1912.31 35.5912 Q1909.15 33.9709 1905.75 33.1607 Q1902.34 32.3505 1898.7 32.3505 Q1893.15 32.3505 1890.35 34.0519 Q1887.6 35.7533 1887.6 39.156 Q1887.6 41.7486 1889.58 43.2475 Q1891.57 44.7058 1897.56 46.0426 L1900.12 46.6097 Q1908.06 48.3111 1911.38 51.4303 Q1914.74 54.509 1914.74 60.0587 Q1914.74 66.3781 1909.72 70.0644 Q1904.73 73.7508 1895.98 73.7508 Q1892.34 73.7508 1888.37 73.0216 Q1884.44 72.3329 1880.06 70.9151 L1880.06 63.2184 Q1884.2 65.3654 1888.21 66.4591 Q1892.22 67.5124 1896.15 67.5124 Q1901.41 67.5124 1904.25 65.73 Q1907.08 63.9071 1907.08 60.6258 Q1907.08 57.5877 1905.02 55.9673 Q1902.99 54.3469 1896.07 52.8481 L1893.47 52.2405 Q1886.55 50.7821 1883.47 47.7845 Q1880.39 44.7463 1880.39 39.4801 Q1880.39 33.0797 1884.93 29.5959 Q1889.46 26.1121 1897.81 26.1121 Q1901.94 26.1121 1905.59 26.7198 Q1909.23 27.3274 1912.31 28.5427 Z" fill="#000000" fill-rule="nonzero" fill-opacity="1" /><path clip-path="url(#clip070)" d="M1965.42 48.0275 L1965.42 51.6733 L1931.15 51.6733 Q1931.63 59.3701 1935.76 63.421 Q1939.94 67.4314 1947.35 67.4314 Q1951.64 67.4314 1955.65 66.3781 Q1959.71 65.3249 1963.68 63.2184 L1963.68 70.267 Q1959.66 71.9684 1955.45 72.8596 Q1951.24 73.7508 1946.9 73.7508 Q1936.05 73.7508 1929.69 67.4314 Q1923.37 61.1119 1923.37 50.3365 Q1923.37 39.1965 1929.36 32.6746 Q1935.4 26.1121 1945.61 26.1121 Q1954.76 26.1121 1960.07 32.0264 Q1965.42 37.9003 1965.42 48.0275 M1957.96 45.84 Q1957.88 39.7232 1954.52 36.0774 Q1951.2 32.4315 1945.69 32.4315 Q1939.45 32.4315 1935.68 35.9558 Q1931.96 39.4801 1931.39 45.8805 L1957.96 45.84 Z" fill="#000000" fill-rule="nonzero" fill-opacity="1" /><path clip-path="url(#clip070)" d="M1976.48 9.62495 L1982.96 9.62495 Q1989.03 19.1851 1992.03 28.3401 Q1995.07 37.4952 1995.07 46.5287 Q1995.07 55.6027 1992.03 64.7983 Q1989.03 73.9938 1982.96 83.5134 L1976.48 83.5134 Q1981.86 74.2369 1984.5 65.0818 Q1987.17 55.8863 1987.17 46.5287 Q1987.17 37.1711 1984.5 28.0566 Q1981.86 18.942 1976.48 9.62495 Z" fill="#000000" fill-rule="nonzero" fill-opacity="1" /><circle clip-path="url(#clip071)" cx="1138.29" cy="923.272" r="14.4" fill="#009af9" fill-rule="evenodd" fill-opacity="1" stroke="none"/>
<circle clip-path="url(#clip071)" cx="1074.81" cy="796.32" r="14.4" fill="#009af9" fill-rule="evenodd" fill-opacity="1" stroke="none"/>
<circle clip-path="url(#clip071)" cx="1011.33" cy="669.368" r="14.4" fill="#009af9" fill-rule="evenodd" fill-opacity="1" stroke="none"/>
<circle clip-path="url(#clip071)" cx="947.857" cy="542.415" r="14.4" fill="#009af9" fill-rule="evenodd" fill-opacity="1" stroke="none"/>
<circle clip-path="url(#clip071)" cx="884.381" cy="415.463" r="14.4" fill="#009af9" fill-rule="evenodd" fill-opacity="1" stroke="none"/>
<circle clip-path="url(#clip071)" cx="884.381" cy="542.415" r="14.4" fill="#009af9" fill-rule="evenodd" fill-opacity="1" stroke="none"/>
<circle clip-path="url(#clip071)" cx="884.381" cy="669.368" r="14.4" fill="#009af9" fill-rule="evenodd" fill-opacity="1" stroke="none"/>
<circle clip-path="url(#clip071)" cx="884.381" cy="796.32" r="14.4" fill="#009af9" fill-rule="evenodd" fill-opacity="1" stroke="none"/>
<circle clip-path="url(#clip071)" cx="884.381" cy="923.272" r="14.4" fill="#009af9" fill-rule="evenodd" fill-opacity="1" stroke="none"/>
<circle clip-path="url(#clip071)" cx="884.381" cy="1050.22" r="14.4" fill="#009af9" fill-rule="evenodd" fill-opacity="1" stroke="none"/>
<circle clip-path="url(#clip071)" cx="884.381" cy="1177.18" r="14.4" fill="#009af9" fill-rule="evenodd" fill-opacity="1" stroke="none"/>
<circle clip-path="url(#clip071)" cx="884.381" cy="1304.13" r="14.4" fill="#009af9" fill-rule="evenodd" fill-opacity="1" stroke="none"/>
<circle clip-path="url(#clip071)" cx="884.381" cy="1431.08" r="14.4" fill="#009af9" fill-rule="evenodd" fill-opacity="1" stroke="none"/>
<circle clip-path="url(#clip071)" cx="757.429" cy="1431.08" r="14.4" fill="#009af9" fill-rule="evenodd" fill-opacity="1" stroke="none"/>
<circle clip-path="url(#clip071)" cx="630.476" cy="1431.08" r="14.4" fill="#009af9" fill-rule="evenodd" fill-opacity="1" stroke="none"/>
<circle clip-path="url(#clip071)" cx="503.524" cy="1431.08" r="14.4" fill="#009af9" fill-rule="evenodd" fill-opacity="1" stroke="none"/>
<circle clip-path="url(#clip071)" cx="376.571" cy="1431.08" r="14.4" fill="#009af9" fill-rule="evenodd" fill-opacity="1" stroke="none"/>
<circle clip-path="url(#clip071)" cx="376.571" cy="1304.13" r="14.4" fill="#009af9" fill-rule="evenodd" fill-opacity="1" stroke="none"/>
<circle clip-path="url(#clip071)" cx="376.571" cy="1177.18" r="14.4" fill="#009af9" fill-rule="evenodd" fill-opacity="1" stroke="none"/>
<circle clip-path="url(#clip071)" cx="503.524" cy="1177.18" r="14.4" fill="#009af9" fill-rule="evenodd" fill-opacity="1" stroke="none"/>
<circle clip-path="url(#clip071)" cx="630.476" cy="1177.18" r="14.4" fill="#009af9" fill-rule="evenodd" fill-opacity="1" stroke="none"/>
<circle clip-path="url(#clip071)" cx="630.476" cy="1050.22" r="14.4" fill="#009af9" fill-rule="evenodd" fill-opacity="1" stroke="none"/>
<circle clip-path="url(#clip071)" cx="630.476" cy="923.272" r="14.4" fill="#009af9" fill-rule="evenodd" fill-opacity="1" stroke="none"/>
<circle clip-path="url(#clip071)" cx="630.476" cy="796.32" r="14.4" fill="#009af9" fill-rule="evenodd" fill-opacity="1" stroke="none"/>
<circle clip-path="url(#clip071)" cx="630.476" cy="669.368" r="14.4" fill="#009af9" fill-rule="evenodd" fill-opacity="1" stroke="none"/>
<circle clip-path="url(#clip071)" cx="630.476" cy="542.415" r="14.4" fill="#009af9" fill-rule="evenodd" fill-opacity="1" stroke="none"/>
<circle clip-path="url(#clip071)" cx="630.476" cy="415.463" r="14.4" fill="#009af9" fill-rule="evenodd" fill-opacity="1" stroke="none"/>
<circle clip-path="url(#clip071)" cx="503.524" cy="415.463" r="14.4" fill="#009af9" fill-rule="evenodd" fill-opacity="1" stroke="none"/>
<circle clip-path="url(#clip071)" cx="376.571" cy="415.463" r="14.4" fill="#009af9" fill-rule="evenodd" fill-opacity="1" stroke="none"/>
<circle clip-path="url(#clip071)" cx="376.571" cy="288.51" r="14.4" fill="#009af9" fill-rule="evenodd" fill-opacity="1" stroke="none"/>
<circle clip-path="url(#clip071)" cx="376.571" cy="161.558" r="14.4" fill="#009af9" fill-rule="evenodd" fill-opacity="1" stroke="none"/>
<circle clip-path="url(#clip071)" cx="503.524" cy="161.558" r="14.4" fill="#009af9" fill-rule="evenodd" fill-opacity="1" stroke="none"/>
<circle clip-path="url(#clip071)" cx="630.476" cy="161.558" r="14.4" fill="#009af9" fill-rule="evenodd" fill-opacity="1" stroke="none"/>
<circle clip-path="url(#clip071)" cx="757.429" cy="161.558" r="14.4" fill="#009af9" fill-rule="evenodd" fill-opacity="1" stroke="none"/>
<circle clip-path="url(#clip071)" cx="884.381" cy="161.558" r="14.4" fill="#009af9" fill-rule="evenodd" fill-opacity="1" stroke="none"/>
<circle clip-path="url(#clip071)" cx="947.857" cy="288.51" r="14.4" fill="#009af9" fill-rule="evenodd" fill-opacity="1" stroke="none"/>
<circle clip-path="url(#clip071)" cx="1011.33" cy="415.463" r="14.4" fill="#009af9" fill-rule="evenodd" fill-opacity="1" stroke="none"/>
<circle clip-path="url(#clip071)" cx="1074.81" cy="542.415" r="14.4" fill="#009af9" fill-rule="evenodd" fill-opacity="1" stroke="none"/>
<circle clip-path="url(#clip071)" cx="1138.29" cy="669.368" r="14.4" fill="#009af9" fill-rule="evenodd" fill-opacity="1" stroke="none"/>
<circle clip-path="url(#clip071)" cx="1265.24" cy="669.368" r="14.4" fill="#009af9" fill-rule="evenodd" fill-opacity="1" stroke="none"/>
<circle clip-path="url(#clip071)" cx="1392.19" cy="669.368" r="14.4" fill="#009af9" fill-rule="evenodd" fill-opacity="1" stroke="none"/>
<circle clip-path="url(#clip071)" cx="1455.67" cy="542.415" r="14.4" fill="#009af9" fill-rule="evenodd" fill-opacity="1" stroke="none"/>
<circle clip-path="url(#clip071)" cx="1519.14" cy="415.463" r="14.4" fill="#009af9" fill-rule="evenodd" fill-opacity="1" stroke="none"/>
<circle clip-path="url(#clip071)" cx="1582.62" cy="288.51" r="14.4" fill="#009af9" fill-rule="evenodd" fill-opacity="1" stroke="none"/>
<circle clip-path="url(#clip071)" cx="1646.1" cy="161.558" r="14.4" fill="#009af9" fill-rule="evenodd" fill-opacity="1" stroke="none"/>
<circle clip-path="url(#clip071)" cx="1773.05" cy="161.558" r="14.4" fill="#009af9" fill-rule="evenodd" fill-opacity="1" stroke="none"/>
<circle clip-path="url(#clip071)" cx="1900" cy="161.558" r="14.4" fill="#009af9" fill-rule="evenodd" fill-opacity="1" stroke="none"/>
<circle clip-path="url(#clip071)" cx="2026.95" cy="161.558" r="14.4" fill="#009af9" fill-rule="evenodd" fill-opacity="1" stroke="none"/>
<circle clip-path="url(#clip071)" cx="2153.91" cy="161.558" r="14.4" fill="#009af9" fill-rule="evenodd" fill-opacity="1" stroke="none"/>
<circle clip-path="url(#clip071)" cx="2153.91" cy="288.51" r="14.4" fill="#009af9" fill-rule="evenodd" fill-opacity="1" stroke="none"/>
<circle clip-path="url(#clip071)" cx="2153.91" cy="415.463" r="14.4" fill="#009af9" fill-rule="evenodd" fill-opacity="1" stroke="none"/>
<circle clip-path="url(#clip071)" cx="2026.95" cy="415.463" r="14.4" fill="#009af9" fill-rule="evenodd" fill-opacity="1" stroke="none"/>
<circle clip-path="url(#clip071)" cx="1900" cy="415.463" r="14.4" fill="#009af9" fill-rule="evenodd" fill-opacity="1" stroke="none"/>
<circle clip-path="url(#clip071)" cx="1900" cy="542.415" r="14.4" fill="#009af9" fill-rule="evenodd" fill-opacity="1" stroke="none"/>
<circle clip-path="url(#clip071)" cx="1900" cy="669.368" r="14.4" fill="#009af9" fill-rule="evenodd" fill-opacity="1" stroke="none"/>
<circle clip-path="url(#clip071)" cx="1900" cy="796.32" r="14.4" fill="#009af9" fill-rule="evenodd" fill-opacity="1" stroke="none"/>
<circle clip-path="url(#clip071)" cx="1900" cy="923.272" r="14.4" fill="#009af9" fill-rule="evenodd" fill-opacity="1" stroke="none"/>
<circle clip-path="url(#clip071)" cx="1900" cy="1050.22" r="14.4" fill="#009af9" fill-rule="evenodd" fill-opacity="1" stroke="none"/>
<circle clip-path="url(#clip071)" cx="1900" cy="1177.18" r="14.4" fill="#009af9" fill-rule="evenodd" fill-opacity="1" stroke="none"/>
<circle clip-path="url(#clip071)" cx="2026.95" cy="1177.18" r="14.4" fill="#009af9" fill-rule="evenodd" fill-opacity="1" stroke="none"/>
<circle clip-path="url(#clip071)" cx="2153.91" cy="1177.18" r="14.4" fill="#009af9" fill-rule="evenodd" fill-opacity="1" stroke="none"/>
<circle clip-path="url(#clip071)" cx="2153.91" cy="1304.13" r="14.4" fill="#009af9" fill-rule="evenodd" fill-opacity="1" stroke="none"/>
<circle clip-path="url(#clip071)" cx="2153.91" cy="1431.08" r="14.4" fill="#009af9" fill-rule="evenodd" fill-opacity="1" stroke="none"/>
<circle clip-path="url(#clip071)" cx="2026.95" cy="1431.08" r="14.4" fill="#009af9" fill-rule="evenodd" fill-opacity="1" stroke="none"/>
<circle clip-path="url(#clip071)" cx="1900" cy="1431.08" r="14.4" fill="#009af9" fill-rule="evenodd" fill-opacity="1" stroke="none"/>
<circle clip-path="url(#clip071)" cx="1773.05" cy="1431.08" r="14.4" fill="#009af9" fill-rule="evenodd" fill-opacity="1" stroke="none"/>
<circle clip-path="url(#clip071)" cx="1646.1" cy="1431.08" r="14.4" fill="#009af9" fill-rule="evenodd" fill-opacity="1" stroke="none"/>
<circle clip-path="url(#clip071)" cx="1646.1" cy="1304.13" r="14.4" fill="#009af9" fill-rule="evenodd" fill-opacity="1" stroke="none"/>
<circle clip-path="url(#clip071)" cx="1646.1" cy="1177.18" r="14.4" fill="#009af9" fill-rule="evenodd" fill-opacity="1" stroke="none"/>
<circle clip-path="url(#clip071)" cx="1646.1" cy="1050.22" r="14.4" fill="#009af9" fill-rule="evenodd" fill-opacity="1" stroke="none"/>
<circle clip-path="url(#clip071)" cx="1646.1" cy="923.272" r="14.4" fill="#009af9" fill-rule="evenodd" fill-opacity="1" stroke="none"/>
<circle clip-path="url(#clip071)" cx="1646.1" cy="796.32" r="14.4" fill="#009af9" fill-rule="evenodd" fill-opacity="1" stroke="none"/>
<circle clip-path="url(#clip071)" cx="1646.1" cy="669.368" r="14.4" fill="#009af9" fill-rule="evenodd" fill-opacity="1" stroke="none"/>
<circle clip-path="url(#clip071)" cx="1646.1" cy="542.415" r="14.4" fill="#009af9" fill-rule="evenodd" fill-opacity="1" stroke="none"/>
<circle clip-path="url(#clip071)" cx="1646.1" cy="415.463" r="14.4" fill="#009af9" fill-rule="evenodd" fill-opacity="1" stroke="none"/>
<circle clip-path="url(#clip071)" cx="1582.62" cy="542.415" r="14.4" fill="#009af9" fill-rule="evenodd" fill-opacity="1" stroke="none"/>
<circle clip-path="url(#clip071)" cx="1519.14" cy="669.368" r="14.4" fill="#009af9" fill-rule="evenodd" fill-opacity="1" stroke="none"/>
<circle clip-path="url(#clip071)" cx="1455.67" cy="796.32" r="14.4" fill="#009af9" fill-rule="evenodd" fill-opacity="1" stroke="none"/>
<circle clip-path="url(#clip071)" cx="1392.19" cy="923.272" r="14.4" fill="#009af9" fill-rule="evenodd" fill-opacity="1" stroke="none"/>
<circle clip-path="url(#clip071)" cx="1265.24" cy="923.272" r="14.4" fill="#009af9" fill-rule="evenodd" fill-opacity="1" stroke="none"/>
</svg>
