<?xml version="1.0" encoding="utf-8"?>
<svg xmlns="http://www.w3.org/2000/svg" xmlns:xlink="http://www.w3.org/1999/xlink" width="600" height="400" viewBox="0 0 2400 1600">
<defs>
  <clipPath id="clip040">
    <rect x="0" y="0" width="2400" height="1600"/>
  </clipPath>
</defs>
<path clip-path="url(#clip040)" d="M0 1600 L2400 1600 L2400 0 L0 0  Z" fill="#ffffff" fill-rule="evenodd" fill-opacity="1"/>
<defs>
  <clipPath id="clip041">
    <rect x="290" y="47" width="2063" height="1347"/>
  </clipPath>
</defs>
<path clip-path="url(#clip040)" d="M290.754 1392.94 L2352.76 1392.94 L2352.76 47.2441 L290.754 47.2441  Z" fill="#ffffff" fill-rule="evenodd" fill-opacity="1"/>
<polyline clip-path="url(#clip041)" style="stroke:#000000; stroke-linecap:round; stroke-linejoin:round; stroke-width:2; stroke-opacity:0.1; fill:none" points="324.489,1392.94 324.489,47.2441 "/>
<polyline clip-path="url(#clip041)" style="stroke:#000000; stroke-linecap:round; stroke-linejoin:round; stroke-width:2; stroke-opacity:0.1; fill:none" points="816.966,1392.94 816.966,47.2441 "/>
<polyline clip-path="url(#clip041)" style="stroke:#000000; stroke-linecap:round; stroke-linejoin:round; stroke-width:2; stroke-opacity:0.1; fill:none" points="1309.44,1392.94 1309.44,47.2441 "/>
<polyline clip-path="url(#clip041)" style="stroke:#000000; stroke-linecap:round; stroke-linejoin:round; stroke-width:2; stroke-opacity:0.1; fill:none" points="1801.92,1392.94 1801.92,47.2441 "/>
<polyline clip-path="url(#clip041)" style="stroke:#000000; stroke-linecap:round; stroke-linejoin:round; stroke-width:2; stroke-opacity:0.1; fill:none" points="2294.4,1392.94 2294.4,47.2441 "/>
<polyline clip-path="url(#clip041)" style="stroke:#000000; stroke-linecap:round; stroke-linejoin:round; stroke-width:2; stroke-opacity:0.1; fill:none" points="290.754,1354.85 2352.76,1354.85 "/>
<polyline clip-path="url(#clip041)" style="stroke:#000000; stroke-linecap:round; stroke-linejoin:round; stroke-width:2; stroke-opacity:0.1; fill:none" points="290.754,1042.16 2352.76,1042.16 "/>
<polyline clip-path="url(#clip041)" style="stroke:#000000; stroke-linecap:round; stroke-linejoin:round; stroke-width:2; stroke-opacity:0.1; fill:none" points="290.754,729.473 2352.76,729.473 "/>
<polyline clip-path="url(#clip041)" style="stroke:#000000; stroke-linecap:round; stroke-linejoin:round; stroke-width:2; stroke-opacity:0.1; fill:none" points="290.754,416.782 2352.76,416.782 "/>
<polyline clip-path="url(#clip041)" style="stroke:#000000; stroke-linecap:round; stroke-linejoin:round; stroke-width:2; stroke-opacity:0.1; fill:none" points="290.754,104.091 2352.76,104.091 "/>
<polyline clip-path="url(#clip040)" style="stroke:#000000; stroke-linecap:round; stroke-linejoin:round; stroke-width:4; stroke-opacity:1; fill:none" points="290.754,1392.94 2352.76,1392.94 "/>
<polyline clip-path="url(#clip040)" style="stroke:#000000; stroke-linecap:round; stroke-linejoin:round; stroke-width:4; stroke-opacity:1; fill:none" points="324.489,1392.94 324.489,1374.04 "/>
<polyline clip-path="url(#clip040)" style="stroke:#000000; stroke-linecap:round; stroke-linejoin:round; stroke-width:4; stroke-opacity:1; fill:none" points="816.966,1392.94 816.966,1374.04 "/>
<polyline clip-path="url(#clip040)" style="stroke:#000000; stroke-linecap:round; stroke-linejoin:round; stroke-width:4; stroke-opacity:1; fill:none" points="1309.44,1392.94 1309.44,1374.04 "/>
<polyline clip-path="url(#clip040)" style="stroke:#000000; stroke-linecap:round; stroke-linejoin:round; stroke-width:4; stroke-opacity:1; fill:none" points="1801.92,1392.94 1801.92,1374.04 "/>
<polyline clip-path="url(#clip040)" style="stroke:#000000; stroke-linecap:round; stroke-linejoin:round; stroke-width:4; stroke-opacity:1; fill:none" points="2294.4,1392.94 2294.4,1374.04 "/>
<path clip-path="url(#clip040)" d="M324.489 1429.72 Q319.072 1429.72 316.329 1435.07 Q313.621 1440.38 313.621 1451.07 Q313.621 1461.73 316.329 1467.08 Q319.072 1472.39 324.489 1472.39 Q329.94 1472.39 332.649 1467.08 Q335.392 1461.73 335.392 1451.07 Q335.392 1440.38 332.649 1435.07 Q329.94 1429.72 324.489 1429.72 M324.489 1424.16 Q333.204 1424.16 337.787 1431.07 Q342.405 1437.95 342.405 1451.07 Q342.405 1464.16 337.787 1471.07 Q333.204 1477.95 324.489 1477.95 Q315.774 1477.95 311.156 1471.07 Q306.572 1464.16 306.572 1451.07 Q306.572 1437.95 311.156 1431.07 Q315.774 1424.16 324.489 1424.16 Z" fill="#000000" fill-rule="nonzero" fill-opacity="1" /><path clip-path="url(#clip040)" d="M785.126 1471.04 L809.605 1471.04 L809.605 1476.94 L776.688 1476.94 L776.688 1471.04 Q780.681 1466.91 787.556 1459.96 Q794.466 1452.98 796.237 1450.97 Q799.605 1447.18 800.924 1444.58 Q802.279 1441.94 802.279 1439.41 Q802.279 1435.27 799.362 1432.67 Q796.48 1430.07 791.827 1430.07 Q788.529 1430.07 784.848 1431.21 Q781.202 1432.36 777.036 1434.68 L777.036 1427.6 Q781.272 1425.9 784.952 1425.03 Q788.633 1424.16 791.688 1424.16 Q799.744 1424.16 804.536 1428.19 Q809.327 1432.22 809.327 1438.95 Q809.327 1442.15 808.112 1445.03 Q806.931 1447.88 803.772 1451.77 Q802.904 1452.77 798.251 1457.6 Q793.598 1462.39 785.126 1471.04 Z" fill="#000000" fill-rule="nonzero" fill-opacity="1" /><path clip-path="url(#clip040)" d="M839.327 1429.72 Q833.91 1429.72 831.167 1435.07 Q828.459 1440.38 828.459 1451.07 Q828.459 1461.73 831.167 1467.08 Q833.91 1472.39 839.327 1472.39 Q844.778 1472.39 847.487 1467.08 Q850.23 1461.73 850.23 1451.07 Q850.23 1440.38 847.487 1435.07 Q844.778 1429.72 839.327 1429.72 M839.327 1424.16 Q848.042 1424.16 852.626 1431.07 Q857.244 1437.95 857.244 1451.07 Q857.244 1464.16 852.626 1471.07 Q848.042 1477.95 839.327 1477.95 Q830.612 1477.95 825.994 1471.07 Q821.41 1464.16 821.41 1451.07 Q821.41 1437.95 825.994 1431.07 Q830.612 1424.16 839.327 1424.16 Z" fill="#000000" fill-rule="nonzero" fill-opacity="1" /><path clip-path="url(#clip040)" d="M1291.7 1431.21 L1273.99 1458.88 L1291.7 1458.88 L1291.7 1431.21 M1289.86 1425.1 L1298.68 1425.1 L1298.68 1458.88 L1306.08 1458.88 L1306.08 1464.72 L1298.68 1464.72 L1298.68 1476.94 L1291.7 1476.94 L1291.7 1464.72 L1268.3 1464.72 L1268.3 1457.95 L1289.86 1425.1 Z" fill="#000000" fill-rule="nonzero" fill-opacity="1" /><path clip-path="url(#clip040)" d="M1332.67 1429.72 Q1327.26 1429.72 1324.51 1435.07 Q1321.8 1440.38 1321.8 1451.07 Q1321.8 1461.73 1324.51 1467.08 Q1327.26 1472.39 1332.67 1472.39 Q1338.12 1472.39 1340.83 1467.08 Q1343.57 1461.73 1343.57 1451.07 Q1343.57 1440.38 1340.83 1435.07 Q1338.12 1429.72 1332.67 1429.72 M1332.67 1424.16 Q1341.39 1424.16 1345.97 1431.07 Q1350.59 1437.95 1350.59 1451.07 Q1350.59 1464.16 1345.97 1471.07 Q1341.39 1477.95 1332.67 1477.95 Q1323.96 1477.95 1319.34 1471.07 Q1314.76 1464.16 1314.76 1451.07 Q1314.76 1437.95 1319.34 1431.07 Q1323.96 1424.16 1332.67 1424.16 Z" fill="#000000" fill-rule="nonzero" fill-opacity="1" /><path clip-path="url(#clip040)" d="M1780.03 1448.22 Q1775.31 1448.22 1772.53 1451.45 Q1769.79 1454.68 1769.79 1460.31 Q1769.79 1465.9 1772.53 1469.16 Q1775.31 1472.39 1780.03 1472.39 Q1784.75 1472.39 1787.49 1469.16 Q1790.27 1465.9 1790.27 1460.31 Q1790.27 1454.68 1787.49 1451.45 Q1784.75 1448.22 1780.03 1448.22 M1793.95 1426.25 L1793.95 1432.63 Q1791.31 1431.38 1788.6 1430.72 Q1785.93 1430.07 1783.29 1430.07 Q1776.35 1430.07 1772.67 1434.75 Q1769.02 1439.44 1768.5 1448.92 Q1770.55 1445.9 1773.64 1444.3 Q1776.73 1442.67 1780.44 1442.67 Q1788.26 1442.67 1792.77 1447.43 Q1797.32 1452.15 1797.32 1460.31 Q1797.32 1468.29 1792.6 1473.12 Q1787.88 1477.95 1780.03 1477.95 Q1771.03 1477.95 1766.28 1471.07 Q1761.52 1464.16 1761.52 1451.07 Q1761.52 1438.78 1767.35 1431.49 Q1773.19 1424.16 1783.01 1424.16 Q1785.65 1424.16 1788.33 1424.68 Q1791.03 1425.2 1793.95 1426.25 Z" fill="#000000" fill-rule="nonzero" fill-opacity="1" /><path clip-path="url(#clip040)" d="M1824.4 1429.72 Q1818.99 1429.72 1816.24 1435.07 Q1813.53 1440.38 1813.53 1451.07 Q1813.53 1461.73 1816.24 1467.08 Q1818.99 1472.39 1824.4 1472.39 Q1829.85 1472.39 1832.56 1467.08 Q1835.31 1461.73 1835.31 1451.07 Q1835.31 1440.38 1832.56 1435.07 Q1829.85 1429.72 1824.4 1429.72 M1824.4 1424.16 Q1833.12 1424.16 1837.7 1431.07 Q1842.32 1437.95 1842.32 1451.07 Q1842.32 1464.16 1837.7 1471.07 Q1833.12 1477.95 1824.4 1477.95 Q1815.69 1477.95 1811.07 1471.07 Q1806.49 1464.16 1806.49 1451.07 Q1806.49 1437.95 1811.07 1431.07 Q1815.69 1424.16 1824.4 1424.16 Z" fill="#000000" fill-rule="nonzero" fill-opacity="1" /><path clip-path="url(#clip040)" d="M2271.71 1452.32 Q2266.71 1452.32 2263.82 1455 Q2260.98 1457.67 2260.98 1462.36 Q2260.98 1467.04 2263.82 1469.72 Q2266.71 1472.39 2271.71 1472.39 Q2276.71 1472.39 2279.59 1469.72 Q2282.47 1467.01 2282.47 1462.36 Q2282.47 1457.67 2279.59 1455 Q2276.74 1452.32 2271.71 1452.32 M2264.69 1449.34 Q2260.18 1448.22 2257.64 1445.13 Q2255.14 1442.04 2255.14 1437.6 Q2255.14 1431.38 2259.55 1427.77 Q2264 1424.16 2271.71 1424.16 Q2279.45 1424.16 2283.86 1427.77 Q2288.27 1431.38 2288.27 1437.6 Q2288.27 1442.04 2285.73 1445.13 Q2283.23 1448.22 2278.76 1449.34 Q2283.82 1450.52 2286.64 1453.95 Q2289.48 1457.39 2289.48 1462.36 Q2289.48 1469.89 2284.87 1473.92 Q2280.28 1477.95 2271.71 1477.95 Q2263.13 1477.95 2258.51 1473.92 Q2253.93 1469.89 2253.93 1462.36 Q2253.93 1457.39 2256.78 1453.95 Q2259.62 1450.52 2264.69 1449.34 M2262.12 1438.26 Q2262.12 1442.29 2264.62 1444.54 Q2267.16 1446.8 2271.71 1446.8 Q2276.22 1446.8 2278.76 1444.54 Q2281.32 1442.29 2281.32 1438.26 Q2281.32 1434.23 2278.76 1431.97 Q2276.22 1429.72 2271.71 1429.72 Q2267.16 1429.72 2264.62 1431.97 Q2262.12 1434.23 2262.12 1438.26 Z" fill="#000000" fill-rule="nonzero" fill-opacity="1" /><path clip-path="url(#clip040)" d="M2316.95 1429.72 Q2311.53 1429.72 2308.79 1435.07 Q2306.08 1440.38 2306.08 1451.07 Q2306.08 1461.73 2308.79 1467.08 Q2311.53 1472.39 2316.95 1472.39 Q2322.4 1472.39 2325.11 1467.08 Q2327.85 1461.73 2327.85 1451.07 Q2327.85 1440.38 2325.11 1435.07 Q2322.4 1429.72 2316.95 1429.72 M2316.95 1424.16 Q2325.66 1424.16 2330.25 1431.07 Q2334.87 1437.95 2334.87 1451.07 Q2334.87 1464.16 2330.25 1471.07 Q2325.66 1477.95 2316.95 1477.95 Q2308.23 1477.95 2303.62 1471.07 Q2299.03 1464.16 2299.03 1451.07 Q2299.03 1437.95 2303.62 1431.07 Q2308.23 1424.16 2316.95 1424.16 Z" fill="#000000" fill-rule="nonzero" fill-opacity="1" /><path clip-path="url(#clip040)" d="M1338.09 1539.56 Q1338.09 1541.89 1336.66 1543.29 Q1335.27 1544.68 1333.5 1544.68 Q1331.95 1544.68 1331.13 1543.78 Q1330.31 1542.88 1330.31 1541.73 Q1330.31 1541.24 1330.51 1540.62 Q1330.72 1539.97 1331.17 1539.19 Q1331.66 1538.41 1332.68 1537.83 Q1333.71 1537.26 1335.1 1537.18 Q1334.82 1536.89 1334.73 1536.85 Q1334.12 1536.36 1332.97 1536.19 Q1332.81 1536.11 1332.23 1536.11 Q1329.4 1536.11 1326.54 1538.2 Q1323.71 1540.25 1320.22 1544.15 Q1315.84 1548.7 1313.01 1550.38 Q1325.43 1552.02 1325.43 1559.19 Q1325.43 1560.38 1325.1 1561.81 Q1324.44 1564.52 1324.44 1566.49 Q1324.44 1570.42 1327.11 1570.42 Q1329.69 1570.42 1331.33 1567.8 Q1333.01 1565.17 1334.41 1560.05 Q1334.61 1559.11 1334.82 1558.82 Q1335.02 1558.53 1335.59 1558.53 Q1336.62 1558.53 1336.62 1559.35 Q1335.68 1564.15 1333.59 1567.84 Q1330.92 1572.31 1326.95 1572.31 Q1323.62 1572.31 1321.41 1570.01 Q1319.24 1567.67 1319.24 1563.98 Q1319.24 1563.08 1319.57 1561.03 Q1319.81 1560.21 1319.81 1559.27 Q1319.81 1557.34 1318.75 1555.91 Q1317.68 1554.43 1315.96 1553.7 Q1314.24 1552.96 1312.8 1552.63 Q1311.41 1552.26 1310.06 1552.14 Q1305.96 1569.48 1305.38 1570.54 Q1305.02 1571.28 1304.2 1571.77 Q1303.38 1572.31 1302.52 1572.31 Q1301.7 1572.31 1300.88 1571.73 Q1300.1 1571.2 1300.1 1569.93 Q1300.1 1569.27 1300.42 1568.08 L1312.6 1519.72 L1312.84 1518.08 Q1312.84 1517.58 1312.64 1517.34 Q1312.48 1517.05 1311.49 1516.85 Q1310.55 1516.64 1308.66 1516.64 Q1307.89 1516.64 1307.52 1516.6 Q1307.19 1516.56 1306.9 1516.36 Q1306.61 1516.11 1306.61 1515.62 Q1306.61 1514.92 1306.9 1514.55 Q1307.23 1514.14 1307.48 1514.06 Q1307.72 1513.98 1308.21 1513.94 Q1308.91 1513.9 1311.25 1513.69 Q1313.58 1513.44 1315.59 1513.28 Q1317.6 1513.12 1318.46 1513.12 Q1318.95 1513.12 1319.2 1513.36 Q1319.49 1513.57 1319.53 1513.81 L1319.57 1514.02 L1310.84 1549.43 Q1314.44 1548 1320.14 1541.65 Q1326.74 1534.27 1332.4 1534.27 Q1335.06 1534.27 1336.58 1535.91 Q1338.09 1537.51 1338.09 1539.56 Z" fill="#000000" fill-rule="nonzero" fill-opacity="1" /><polyline clip-path="url(#clip040)" style="stroke:#000000; stroke-linecap:round; stroke-linejoin:round; stroke-width:4; stroke-opacity:1; fill:none" points="290.754,1392.94 290.754,47.2441 "/>
<polyline clip-path="url(#clip040)" style="stroke:#000000; stroke-linecap:round; stroke-linejoin:round; stroke-width:4; stroke-opacity:1; fill:none" points="290.754,1354.85 309.652,1354.85 "/>
<polyline clip-path="url(#clip040)" style="stroke:#000000; stroke-linecap:round; stroke-linejoin:round; stroke-width:4; stroke-opacity:1; fill:none" points="290.754,1042.16 309.652,1042.16 "/>
<polyline clip-path="url(#clip040)" style="stroke:#000000; stroke-linecap:round; stroke-linejoin:round; stroke-width:4; stroke-opacity:1; fill:none" points="290.754,729.473 309.652,729.473 "/>
<polyline clip-path="url(#clip040)" style="stroke:#000000; stroke-linecap:round; stroke-linejoin:round; stroke-width:4; stroke-opacity:1; fill:none" points="290.754,416.782 309.652,416.782 "/>
<polyline clip-path="url(#clip040)" style="stroke:#000000; stroke-linecap:round; stroke-linejoin:round; stroke-width:4; stroke-opacity:1; fill:none" points="290.754,104.091 309.652,104.091 "/>
<path clip-path="url(#clip040)" d="M236.838 1333.55 Q231.421 1333.55 228.678 1338.9 Q225.97 1344.21 225.97 1354.91 Q225.97 1365.57 228.678 1370.91 Q231.421 1376.23 236.838 1376.23 Q242.289 1376.23 244.997 1370.91 Q247.74 1365.57 247.74 1354.91 Q247.74 1344.21 244.997 1338.9 Q242.289 1333.55 236.838 1333.55 M236.838 1328 Q245.553 1328 250.136 1334.91 Q254.754 1341.78 254.754 1354.91 Q254.754 1368 250.136 1374.91 Q245.553 1381.78 236.838 1381.78 Q228.122 1381.78 223.504 1374.91 Q218.921 1368 218.921 1354.91 Q218.921 1341.78 223.504 1334.91 Q228.122 1328 236.838 1328 Z" fill="#000000" fill-rule="nonzero" fill-opacity="1" /><path clip-path="url(#clip040)" d="M132.567 1062.18 L144.026 1062.18 L144.026 1022.63 L131.56 1025.13 L131.56 1018.74 L143.956 1016.24 L150.97 1016.24 L150.97 1062.18 L162.428 1062.18 L162.428 1068.08 L132.567 1068.08 L132.567 1062.18 Z" fill="#000000" fill-rule="nonzero" fill-opacity="1" /><path clip-path="url(#clip040)" d="M191.595 1020.86 Q186.178 1020.86 183.435 1026.21 Q180.727 1031.52 180.727 1042.22 Q180.727 1052.88 183.435 1058.22 Q186.178 1063.53 191.595 1063.53 Q197.046 1063.53 199.754 1058.22 Q202.498 1052.88 202.498 1042.22 Q202.498 1031.52 199.754 1026.21 Q197.046 1020.86 191.595 1020.86 M191.595 1015.31 Q200.31 1015.31 204.893 1022.22 Q209.511 1029.09 209.511 1042.22 Q209.511 1055.31 204.893 1062.22 Q200.31 1069.09 191.595 1069.09 Q182.88 1069.09 178.262 1062.22 Q173.678 1055.31 173.678 1042.22 Q173.678 1029.09 178.262 1022.22 Q182.88 1015.31 191.595 1015.31 Z" fill="#000000" fill-rule="nonzero" fill-opacity="1" /><path clip-path="url(#clip040)" d="M236.838 1020.86 Q231.421 1020.86 228.678 1026.21 Q225.97 1031.52 225.97 1042.22 Q225.97 1052.88 228.678 1058.22 Q231.421 1063.53 236.838 1063.53 Q242.289 1063.53 244.997 1058.22 Q247.74 1052.88 247.74 1042.22 Q247.74 1031.52 244.997 1026.21 Q242.289 1020.86 236.838 1020.86 M236.838 1015.31 Q245.553 1015.31 250.136 1022.22 Q254.754 1029.09 254.754 1042.22 Q254.754 1055.31 250.136 1062.22 Q245.553 1069.09 236.838 1069.09 Q228.122 1069.09 223.504 1062.22 Q218.921 1055.31 218.921 1042.22 Q218.921 1029.09 223.504 1022.22 Q228.122 1015.31 236.838 1015.31 Z" fill="#000000" fill-rule="nonzero" fill-opacity="1" /><path clip-path="url(#clip040)" d="M137.394 749.49 L161.873 749.49 L161.873 755.393 L128.956 755.393 L128.956 749.49 Q132.949 745.358 139.824 738.414 Q146.734 731.434 148.505 729.421 Q151.873 725.636 153.192 723.032 Q154.546 720.393 154.546 717.858 Q154.546 713.726 151.63 711.122 Q148.748 708.518 144.095 708.518 Q140.796 708.518 137.116 709.664 Q133.47 710.81 129.303 713.136 L129.303 706.053 Q133.54 704.351 137.22 703.483 Q140.901 702.615 143.956 702.615 Q152.012 702.615 156.803 706.643 Q161.595 710.671 161.595 717.407 Q161.595 720.601 160.38 723.483 Q159.199 726.33 156.039 730.219 Q155.171 731.226 150.519 736.053 Q145.866 740.844 137.394 749.49 Z" fill="#000000" fill-rule="nonzero" fill-opacity="1" /><path clip-path="url(#clip040)" d="M191.595 708.171 Q186.178 708.171 183.435 713.518 Q180.727 718.83 180.727 729.525 Q180.727 740.184 183.435 745.532 Q186.178 750.844 191.595 750.844 Q197.046 750.844 199.754 745.532 Q202.498 740.184 202.498 729.525 Q202.498 718.83 199.754 713.518 Q197.046 708.171 191.595 708.171 M191.595 702.615 Q200.31 702.615 204.893 709.525 Q209.511 716.4 209.511 729.525 Q209.511 742.615 204.893 749.525 Q200.31 756.4 191.595 756.4 Q182.88 756.4 178.262 749.525 Q173.678 742.615 173.678 729.525 Q173.678 716.4 178.262 709.525 Q182.88 702.615 191.595 702.615 Z" fill="#000000" fill-rule="nonzero" fill-opacity="1" /><path clip-path="url(#clip040)" d="M236.838 708.171 Q231.421 708.171 228.678 713.518 Q225.97 718.83 225.97 729.525 Q225.97 740.184 228.678 745.532 Q231.421 750.844 236.838 750.844 Q242.289 750.844 244.997 745.532 Q247.74 740.184 247.74 729.525 Q247.74 718.83 244.997 713.518 Q242.289 708.171 236.838 708.171 M236.838 702.615 Q245.553 702.615 250.136 709.525 Q254.754 716.4 254.754 729.525 Q254.754 742.615 250.136 749.525 Q245.553 756.4 236.838 756.4 Q228.122 756.4 223.504 749.525 Q218.921 742.615 218.921 729.525 Q218.921 716.4 223.504 709.525 Q228.122 702.615 236.838 702.615 Z" fill="#000000" fill-rule="nonzero" fill-opacity="1" /><path clip-path="url(#clip040)" d="M152.602 414.751 Q157.637 415.827 160.449 419.23 Q163.296 422.633 163.296 427.633 Q163.296 435.306 158.019 439.508 Q152.741 443.709 143.019 443.709 Q139.755 443.709 136.283 443.049 Q132.845 442.424 129.165 441.139 L129.165 434.369 Q132.081 436.07 135.553 436.938 Q139.026 437.806 142.81 437.806 Q149.408 437.806 152.845 435.202 Q156.317 432.598 156.317 427.633 Q156.317 423.049 153.088 420.48 Q149.894 417.876 144.165 417.876 L138.123 417.876 L138.123 412.112 L144.442 412.112 Q149.616 412.112 152.359 410.063 Q155.102 407.98 155.102 404.091 Q155.102 400.098 152.255 397.98 Q149.442 395.827 144.165 395.827 Q141.283 395.827 137.984 396.452 Q134.685 397.077 130.727 398.397 L130.727 392.147 Q134.72 391.036 138.192 390.48 Q141.699 389.924 144.79 389.924 Q152.776 389.924 157.428 393.57 Q162.081 397.181 162.081 403.362 Q162.081 407.667 159.616 410.654 Q157.151 413.605 152.602 414.751 Z" fill="#000000" fill-rule="nonzero" fill-opacity="1" /><path clip-path="url(#clip040)" d="M191.595 395.48 Q186.178 395.48 183.435 400.827 Q180.727 406.14 180.727 416.834 Q180.727 427.494 183.435 432.841 Q186.178 438.153 191.595 438.153 Q197.046 438.153 199.754 432.841 Q202.498 427.494 202.498 416.834 Q202.498 406.14 199.754 400.827 Q197.046 395.48 191.595 395.48 M191.595 389.924 Q200.31 389.924 204.893 396.834 Q209.511 403.709 209.511 416.834 Q209.511 429.924 204.893 436.834 Q200.31 443.709 191.595 443.709 Q182.88 443.709 178.262 436.834 Q173.678 429.924 173.678 416.834 Q173.678 403.709 178.262 396.834 Q182.88 389.924 191.595 389.924 Z" fill="#000000" fill-rule="nonzero" fill-opacity="1" /><path clip-path="url(#clip040)" d="M236.838 395.48 Q231.421 395.48 228.678 400.827 Q225.97 406.14 225.97 416.834 Q225.97 427.494 228.678 432.841 Q231.421 438.153 236.838 438.153 Q242.289 438.153 244.997 432.841 Q247.74 427.494 247.74 416.834 Q247.74 406.14 244.997 400.827 Q242.289 395.48 236.838 395.48 M236.838 389.924 Q245.553 389.924 250.136 396.834 Q254.754 403.709 254.754 416.834 Q254.754 429.924 250.136 436.834 Q245.553 443.709 236.838 443.709 Q228.122 443.709 223.504 436.834 Q218.921 429.924 218.921 416.834 Q218.921 403.709 223.504 396.834 Q228.122 389.924 236.838 389.924 Z" fill="#000000" fill-rule="nonzero" fill-opacity="1" /><path clip-path="url(#clip040)" d="M150.623 84.2823 L132.915 111.956 L150.623 111.956 L150.623 84.2823 M148.783 78.1713 L157.602 78.1713 L157.602 111.956 L164.998 111.956 L164.998 117.789 L157.602 117.789 L157.602 130.011 L150.623 130.011 L150.623 117.789 L127.22 117.789 L127.22 111.018 L148.783 78.1713 Z" fill="#000000" fill-rule="nonzero" fill-opacity="1" /><path clip-path="url(#clip040)" d="M191.595 82.7893 Q186.178 82.7893 183.435 88.1365 Q180.727 93.449 180.727 104.143 Q180.727 114.803 183.435 120.15 Q186.178 125.463 191.595 125.463 Q197.046 125.463 199.754 120.15 Q202.498 114.803 202.498 104.143 Q202.498 93.449 199.754 88.1365 Q197.046 82.7893 191.595 82.7893 M191.595 77.2338 Q200.31 77.2338 204.893 84.1435 Q209.511 91.0184 209.511 104.143 Q209.511 117.234 204.893 124.143 Q200.31 131.018 191.595 131.018 Q182.88 131.018 178.262 124.143 Q173.678 117.234 173.678 104.143 Q173.678 91.0184 178.262 84.1435 Q182.88 77.2338 191.595 77.2338 Z" fill="#000000" fill-rule="nonzero" fill-opacity="1" /><path clip-path="url(#clip040)" d="M236.838 82.7893 Q231.421 82.7893 228.678 88.1365 Q225.97 93.449 225.97 104.143 Q225.97 114.803 228.678 120.15 Q231.421 125.463 236.838 125.463 Q242.289 125.463 244.997 120.15 Q247.74 114.803 247.74 104.143 Q247.74 93.449 244.997 88.1365 Q242.289 82.7893 236.838 82.7893 M236.838 77.2338 Q245.553 77.2338 250.136 84.1435 Q254.754 91.0184 254.754 104.143 Q254.754 117.234 250.136 124.143 Q245.553 131.018 236.838 131.018 Q228.122 131.018 223.504 124.143 Q218.921 117.234 218.921 104.143 Q218.921 91.0184 223.504 84.1435 Q228.122 77.2338 236.838 77.2338 Z" fill="#000000" fill-rule="nonzero" fill-opacity="1" /><path clip-path="url(#clip040)" d="M25.7577 719.806 Q28.627 719.806 28.627 723.905 L28.627 733.127 Q32.316 730.545 37.7676 730.545 Q42.4404 730.545 46.8262 732.472 Q51.1711 734.357 54.2043 737.39 Q57.2375 740.383 59.082 744.154 Q60.8855 747.925 60.8855 751.614 Q60.8855 757.229 57.0735 760.713 Q53.2615 764.197 47.605 764.197 Q44.6128 764.197 41.2927 763.173 Q37.9725 762.107 34.8983 760.098 Q31.7831 758.09 29.2828 755.467 Q26.7825 752.802 25.2659 749.359 Q23.7492 745.875 23.7492 742.227 L23.7492 723.085 Q23.7492 722.06 23.8312 721.527 Q23.8722 720.954 24.3641 720.38 Q24.815 719.806 25.7577 719.806 M36.7838 735.915 Q35.8001 735.915 34.9393 736.038 Q34.0376 736.161 32.8489 736.611 Q31.6192 737.062 30.7584 737.841 Q29.8567 738.62 29.2418 740.137 Q28.627 741.612 28.627 743.621 Q28.627 746.449 30.1846 749.564 Q31.7422 752.679 35.5952 755.057 Q38.8743 757.024 43.1372 758.008 Q47.4001 758.992 49.9414 758.992 Q54.2863 758.992 56.6636 756.901 Q59 754.77 59 751.532 Q59 748.867 57.1965 745.834 Q55.352 742.801 51.8679 740.464 Q48.8347 738.415 44.4078 737.185 Q39.981 735.915 36.7838 735.915 Z" fill="#000000" fill-rule="nonzero" fill-opacity="1" /><path clip-path="url(#clip040)" d="M62.8437 684.686 Q64.4791 684.686 65.4547 685.69 Q66.4302 686.666 66.4302 687.9 Q66.4302 688.99 65.799 689.564 Q65.1677 690.138 64.3644 690.138 Q64.02 690.138 63.5897 689.994 Q63.1306 689.851 62.5854 689.535 Q62.0403 689.191 61.6386 688.474 Q61.2369 687.756 61.1795 686.781 Q60.9786 686.982 60.95 687.039 Q60.6056 687.469 60.4909 688.273 Q60.4335 688.388 60.4335 688.789 Q60.4335 690.769 61.8968 692.777 Q63.3314 694.757 66.0572 697.196 Q69.2421 700.266 70.4185 702.246 Q71.5662 693.552 76.5874 693.552 Q77.4194 693.552 78.4237 693.782 Q80.3174 694.241 81.6946 694.241 Q84.4491 694.241 84.4491 692.376 Q84.4491 690.568 82.6128 689.42 Q80.7765 688.244 77.1899 687.269 Q76.53 687.125 76.3291 686.982 Q76.1283 686.838 76.1283 686.436 Q76.1283 685.719 76.7021 685.719 Q80.0592 686.379 82.6415 687.842 Q85.769 689.707 85.769 692.491 Q85.769 694.815 84.1622 696.364 Q82.5267 697.885 79.9444 697.885 Q79.3131 697.885 77.8785 697.655 Q77.3047 697.483 76.6447 697.483 Q75.2962 697.483 74.292 698.229 Q73.259 698.975 72.7426 700.18 Q72.2261 701.385 71.9966 702.389 Q71.7383 703.365 71.6523 704.312 Q83.7892 707.181 84.5352 707.583 Q85.0516 707.841 85.396 708.415 Q85.769 708.989 85.769 709.591 Q85.769 710.165 85.3673 710.739 Q84.9943 711.284 84.1048 711.284 Q83.6457 711.284 82.8136 711.055 L48.9565 702.533 L47.8088 702.361 Q47.4645 702.361 47.2923 702.504 Q47.0915 702.619 46.948 703.308 Q46.8046 703.968 46.8046 705.287 Q46.8046 705.833 46.7759 706.091 Q46.7472 706.32 46.6037 706.521 Q46.4315 706.722 46.0872 706.722 Q45.5995 706.722 45.3412 706.521 Q45.0543 706.292 44.9969 706.12 Q44.9395 705.947 44.9108 705.603 Q44.8822 705.115 44.7387 703.48 Q44.5665 701.844 44.4518 700.438 Q44.337 699.032 44.337 698.43 Q44.337 698.086 44.5092 697.913 Q44.6526 697.713 44.8248 697.684 L44.9682 697.655 L69.7585 703.767 Q68.7543 701.242 64.307 697.254 Q59.1423 692.634 59.1423 688.674 Q59.1423 686.809 60.29 685.748 Q61.409 684.686 62.8437 684.686 Z" fill="#000000" fill-rule="nonzero" fill-opacity="1" /><circle clip-path="url(#clip041)" cx="349.113" cy="85.3298" r="14.4" fill="#009af9" fill-rule="evenodd" fill-opacity="1" stroke="none"/>
<circle clip-path="url(#clip041)" cx="373.737" cy="689.761" r="14.4" fill="#009af9" fill-rule="evenodd" fill-opacity="1" stroke="none"/>
<circle clip-path="url(#clip041)" cx="398.36" cy="1354.85" r="14.4" fill="#009af9" fill-rule="evenodd" fill-opacity="1" stroke="none"/>
<circle clip-path="url(#clip041)" cx="422.984" cy="1354.85" r="14.4" fill="#009af9" fill-rule="evenodd" fill-opacity="1" stroke="none"/>
<circle clip-path="url(#clip041)" cx="447.608" cy="1354.85" r="14.4" fill="#009af9" fill-rule="evenodd" fill-opacity="1" stroke="none"/>
<circle clip-path="url(#clip041)" cx="472.232" cy="1354.85" r="14.4" fill="#009af9" fill-rule="evenodd" fill-opacity="1" stroke="none"/>
<circle clip-path="url(#clip041)" cx="496.856" cy="1354.85" r="14.4" fill="#009af9" fill-rule="evenodd" fill-opacity="1" stroke="none"/>
<circle clip-path="url(#clip041)" cx="521.48" cy="1354.85" r="14.4" fill="#009af9" fill-rule="evenodd" fill-opacity="1" stroke="none"/>
<circle clip-path="url(#clip041)" cx="546.104" cy="1354.85" r="14.4" fill="#009af9" fill-rule="evenodd" fill-opacity="1" stroke="none"/>
<circle clip-path="url(#clip041)" cx="570.727" cy="1354.85" r="14.4" fill="#009af9" fill-rule="evenodd" fill-opacity="1" stroke="none"/>
<circle clip-path="url(#clip041)" cx="595.351" cy="1354.85" r="14.4" fill="#009af9" fill-rule="evenodd" fill-opacity="1" stroke="none"/>
<circle clip-path="url(#clip041)" cx="619.975" cy="1354.85" r="14.4" fill="#009af9" fill-rule="evenodd" fill-opacity="1" stroke="none"/>
<circle clip-path="url(#clip041)" cx="644.599" cy="1354.85" r="14.4" fill="#009af9" fill-rule="evenodd" fill-opacity="1" stroke="none"/>
<circle clip-path="url(#clip041)" cx="669.223" cy="1354.85" r="14.4" fill="#009af9" fill-rule="evenodd" fill-opacity="1" stroke="none"/>
<circle clip-path="url(#clip041)" cx="693.847" cy="1354.85" r="14.4" fill="#009af9" fill-rule="evenodd" fill-opacity="1" stroke="none"/>
<circle clip-path="url(#clip041)" cx="718.471" cy="1354.85" r="14.4" fill="#009af9" fill-rule="evenodd" fill-opacity="1" stroke="none"/>
<circle clip-path="url(#clip041)" cx="743.094" cy="1354.85" r="14.4" fill="#009af9" fill-rule="evenodd" fill-opacity="1" stroke="none"/>
<circle clip-path="url(#clip041)" cx="767.718" cy="1354.85" r="14.4" fill="#009af9" fill-rule="evenodd" fill-opacity="1" stroke="none"/>
<circle clip-path="url(#clip041)" cx="792.342" cy="1354.85" r="14.4" fill="#009af9" fill-rule="evenodd" fill-opacity="1" stroke="none"/>
<circle clip-path="url(#clip041)" cx="816.966" cy="1354.85" r="14.4" fill="#009af9" fill-rule="evenodd" fill-opacity="1" stroke="none"/>
<circle clip-path="url(#clip041)" cx="841.59" cy="1354.85" r="14.4" fill="#009af9" fill-rule="evenodd" fill-opacity="1" stroke="none"/>
<circle clip-path="url(#clip041)" cx="866.214" cy="1354.85" r="14.4" fill="#009af9" fill-rule="evenodd" fill-opacity="1" stroke="none"/>
<circle clip-path="url(#clip041)" cx="890.838" cy="1354.85" r="14.4" fill="#009af9" fill-rule="evenodd" fill-opacity="1" stroke="none"/>
<circle clip-path="url(#clip041)" cx="915.461" cy="1354.85" r="14.4" fill="#009af9" fill-rule="evenodd" fill-opacity="1" stroke="none"/>
<circle clip-path="url(#clip041)" cx="940.085" cy="1354.85" r="14.4" fill="#009af9" fill-rule="evenodd" fill-opacity="1" stroke="none"/>
<circle clip-path="url(#clip041)" cx="964.709" cy="1354.85" r="14.4" fill="#009af9" fill-rule="evenodd" fill-opacity="1" stroke="none"/>
<circle clip-path="url(#clip041)" cx="989.333" cy="1354.85" r="14.4" fill="#009af9" fill-rule="evenodd" fill-opacity="1" stroke="none"/>
<circle clip-path="url(#clip041)" cx="1013.96" cy="1354.85" r="14.4" fill="#009af9" fill-rule="evenodd" fill-opacity="1" stroke="none"/>
<circle clip-path="url(#clip041)" cx="1038.58" cy="1354.85" r="14.4" fill="#009af9" fill-rule="evenodd" fill-opacity="1" stroke="none"/>
<circle clip-path="url(#clip041)" cx="1063.2" cy="1354.85" r="14.4" fill="#009af9" fill-rule="evenodd" fill-opacity="1" stroke="none"/>
<circle clip-path="url(#clip041)" cx="1087.83" cy="1354.85" r="14.4" fill="#009af9" fill-rule="evenodd" fill-opacity="1" stroke="none"/>
<circle clip-path="url(#clip041)" cx="1112.45" cy="1354.85" r="14.4" fill="#009af9" fill-rule="evenodd" fill-opacity="1" stroke="none"/>
<circle clip-path="url(#clip041)" cx="1137.08" cy="1354.85" r="14.4" fill="#009af9" fill-rule="evenodd" fill-opacity="1" stroke="none"/>
<circle clip-path="url(#clip041)" cx="1161.7" cy="1354.85" r="14.4" fill="#009af9" fill-rule="evenodd" fill-opacity="1" stroke="none"/>
<circle clip-path="url(#clip041)" cx="1186.32" cy="1354.85" r="14.4" fill="#009af9" fill-rule="evenodd" fill-opacity="1" stroke="none"/>
<circle clip-path="url(#clip041)" cx="1210.95" cy="1354.85" r="14.4" fill="#009af9" fill-rule="evenodd" fill-opacity="1" stroke="none"/>
<circle clip-path="url(#clip041)" cx="1235.57" cy="1354.85" r="14.4" fill="#009af9" fill-rule="evenodd" fill-opacity="1" stroke="none"/>
<circle clip-path="url(#clip041)" cx="1260.2" cy="1354.85" r="14.4" fill="#009af9" fill-rule="evenodd" fill-opacity="1" stroke="none"/>
<circle clip-path="url(#clip041)" cx="1284.82" cy="1354.85" r="14.4" fill="#009af9" fill-rule="evenodd" fill-opacity="1" stroke="none"/>
<circle clip-path="url(#clip041)" cx="1309.44" cy="1354.85" r="14.4" fill="#009af9" fill-rule="evenodd" fill-opacity="1" stroke="none"/>
<circle clip-path="url(#clip041)" cx="1334.07" cy="1354.85" r="14.4" fill="#009af9" fill-rule="evenodd" fill-opacity="1" stroke="none"/>
<circle clip-path="url(#clip041)" cx="1358.69" cy="1354.85" r="14.4" fill="#009af9" fill-rule="evenodd" fill-opacity="1" stroke="none"/>
<circle clip-path="url(#clip041)" cx="1383.31" cy="1354.85" r="14.4" fill="#009af9" fill-rule="evenodd" fill-opacity="1" stroke="none"/>
<circle clip-path="url(#clip041)" cx="1407.94" cy="1354.85" r="14.4" fill="#009af9" fill-rule="evenodd" fill-opacity="1" stroke="none"/>
<circle clip-path="url(#clip041)" cx="1432.56" cy="1354.85" r="14.4" fill="#009af9" fill-rule="evenodd" fill-opacity="1" stroke="none"/>
<circle clip-path="url(#clip041)" cx="1457.19" cy="1354.85" r="14.4" fill="#009af9" fill-rule="evenodd" fill-opacity="1" stroke="none"/>
<circle clip-path="url(#clip041)" cx="1481.81" cy="1354.85" r="14.4" fill="#009af9" fill-rule="evenodd" fill-opacity="1" stroke="none"/>
<circle clip-path="url(#clip041)" cx="1506.43" cy="1354.85" r="14.4" fill="#009af9" fill-rule="evenodd" fill-opacity="1" stroke="none"/>
<circle clip-path="url(#clip041)" cx="1531.06" cy="1354.85" r="14.4" fill="#009af9" fill-rule="evenodd" fill-opacity="1" stroke="none"/>
<circle clip-path="url(#clip041)" cx="1555.68" cy="1354.85" r="14.4" fill="#009af9" fill-rule="evenodd" fill-opacity="1" stroke="none"/>
<circle clip-path="url(#clip041)" cx="1580.31" cy="1354.85" r="14.4" fill="#009af9" fill-rule="evenodd" fill-opacity="1" stroke="none"/>
<circle clip-path="url(#clip041)" cx="1604.93" cy="1354.85" r="14.4" fill="#009af9" fill-rule="evenodd" fill-opacity="1" stroke="none"/>
<circle clip-path="url(#clip041)" cx="1629.55" cy="1354.85" r="14.4" fill="#009af9" fill-rule="evenodd" fill-opacity="1" stroke="none"/>
<circle clip-path="url(#clip041)" cx="1654.18" cy="1354.85" r="14.4" fill="#009af9" fill-rule="evenodd" fill-opacity="1" stroke="none"/>
<circle clip-path="url(#clip041)" cx="1678.8" cy="1354.85" r="14.4" fill="#009af9" fill-rule="evenodd" fill-opacity="1" stroke="none"/>
<circle clip-path="url(#clip041)" cx="1703.42" cy="1354.85" r="14.4" fill="#009af9" fill-rule="evenodd" fill-opacity="1" stroke="none"/>
<circle clip-path="url(#clip041)" cx="1728.05" cy="1354.85" r="14.4" fill="#009af9" fill-rule="evenodd" fill-opacity="1" stroke="none"/>
<circle clip-path="url(#clip041)" cx="1752.67" cy="1354.85" r="14.4" fill="#009af9" fill-rule="evenodd" fill-opacity="1" stroke="none"/>
<circle clip-path="url(#clip041)" cx="1777.3" cy="1354.85" r="14.4" fill="#009af9" fill-rule="evenodd" fill-opacity="1" stroke="none"/>
<circle clip-path="url(#clip041)" cx="1801.92" cy="1354.85" r="14.4" fill="#009af9" fill-rule="evenodd" fill-opacity="1" stroke="none"/>
<circle clip-path="url(#clip041)" cx="1826.54" cy="1354.85" r="14.4" fill="#009af9" fill-rule="evenodd" fill-opacity="1" stroke="none"/>
<circle clip-path="url(#clip041)" cx="1851.17" cy="1354.85" r="14.4" fill="#009af9" fill-rule="evenodd" fill-opacity="1" stroke="none"/>
<circle clip-path="url(#clip041)" cx="1875.79" cy="1354.85" r="14.4" fill="#009af9" fill-rule="evenodd" fill-opacity="1" stroke="none"/>
<circle clip-path="url(#clip041)" cx="1900.42" cy="1354.85" r="14.4" fill="#009af9" fill-rule="evenodd" fill-opacity="1" stroke="none"/>
<circle clip-path="url(#clip041)" cx="1925.04" cy="1354.85" r="14.4" fill="#009af9" fill-rule="evenodd" fill-opacity="1" stroke="none"/>
<circle clip-path="url(#clip041)" cx="1949.66" cy="1354.85" r="14.4" fill="#009af9" fill-rule="evenodd" fill-opacity="1" stroke="none"/>
<circle clip-path="url(#clip041)" cx="1974.29" cy="1354.85" r="14.4" fill="#009af9" fill-rule="evenodd" fill-opacity="1" stroke="none"/>
<circle clip-path="url(#clip041)" cx="1998.91" cy="1354.85" r="14.4" fill="#009af9" fill-rule="evenodd" fill-opacity="1" stroke="none"/>
<circle clip-path="url(#clip041)" cx="2023.53" cy="1354.85" r="14.4" fill="#009af9" fill-rule="evenodd" fill-opacity="1" stroke="none"/>
<circle clip-path="url(#clip041)" cx="2048.16" cy="1354.85" r="14.4" fill="#009af9" fill-rule="evenodd" fill-opacity="1" stroke="none"/>
<circle clip-path="url(#clip041)" cx="2072.78" cy="1354.85" r="14.4" fill="#009af9" fill-rule="evenodd" fill-opacity="1" stroke="none"/>
<circle clip-path="url(#clip041)" cx="2097.41" cy="1354.85" r="14.4" fill="#009af9" fill-rule="evenodd" fill-opacity="1" stroke="none"/>
<circle clip-path="url(#clip041)" cx="2122.03" cy="1354.85" r="14.4" fill="#009af9" fill-rule="evenodd" fill-opacity="1" stroke="none"/>
<circle clip-path="url(#clip041)" cx="2146.65" cy="1354.85" r="14.4" fill="#009af9" fill-rule="evenodd" fill-opacity="1" stroke="none"/>
<circle clip-path="url(#clip041)" cx="2171.28" cy="1354.85" r="14.4" fill="#009af9" fill-rule="evenodd" fill-opacity="1" stroke="none"/>
<circle clip-path="url(#clip041)" cx="2195.9" cy="1354.85" r="14.4" fill="#009af9" fill-rule="evenodd" fill-opacity="1" stroke="none"/>
<circle clip-path="url(#clip041)" cx="2220.53" cy="1354.85" r="14.4" fill="#009af9" fill-rule="evenodd" fill-opacity="1" stroke="none"/>
<circle clip-path="url(#clip041)" cx="2245.15" cy="1354.85" r="14.4" fill="#009af9" fill-rule="evenodd" fill-opacity="1" stroke="none"/>
<circle clip-path="url(#clip041)" cx="2269.77" cy="1354.85" r="14.4" fill="#009af9" fill-rule="evenodd" fill-opacity="1" stroke="none"/>
<circle clip-path="url(#clip041)" cx="2294.4" cy="1354.85" r="14.4" fill="#009af9" fill-rule="evenodd" fill-opacity="1" stroke="none"/>
<path clip-path="url(#clip040)" d="M771.77 273.541 L2284.02 273.541 L2284.02 92.1006 L771.77 92.1006  Z" fill="#ffffff" fill-rule="evenodd" fill-opacity="1"/>
<polyline clip-path="url(#clip040)" style="stroke:#000000; stroke-linecap:round; stroke-linejoin:round; stroke-width:4; stroke-opacity:1; fill:none" points="771.77,273.541 2284.02,273.541 2284.02,92.1006 771.77,92.1006 771.77,273.541 "/>
<circle clip-path="url(#clip040)" cx="863.415" cy="182.821" r="35.84" fill="#009af9" fill-rule="evenodd" fill-opacity="1" stroke="none"/>
<path clip-path="url(#clip040)" d="M987.305 169.027 L987.305 176.076 Q984.145 174.456 980.742 173.645 Q977.339 172.835 973.694 172.835 Q968.144 172.835 965.349 174.537 Q962.594 176.238 962.594 179.641 Q962.594 182.233 964.579 183.732 Q966.564 185.19 972.559 186.527 L975.111 187.094 Q983.051 188.796 986.373 191.915 Q989.735 194.994 989.735 200.543 Q989.735 206.863 984.712 210.549 Q979.729 214.235 970.979 214.235 Q967.334 214.235 963.364 213.506 Q959.434 212.818 955.059 211.4 L955.059 203.703 Q959.191 205.85 963.202 206.944 Q967.212 207.997 971.141 207.997 Q976.408 207.997 979.243 206.215 Q982.079 204.392 982.079 201.11 Q982.079 198.072 980.013 196.452 Q977.987 194.832 971.06 193.333 L968.468 192.725 Q961.541 191.267 958.462 188.269 Q955.383 185.231 955.383 179.965 Q955.383 173.564 959.92 170.081 Q964.457 166.597 972.802 166.597 Q976.934 166.597 980.58 167.204 Q984.226 167.812 987.305 169.027 Z" fill="#000000" fill-rule="nonzero" fill-opacity="1" /><path clip-path="url(#clip040)" d="M1001.6 167.69 L1009.06 167.69 L1009.06 213.061 L1001.6 213.061 L1001.6 167.69 M1001.6 150.029 L1009.06 150.029 L1009.06 159.467 L1001.6 159.467 L1001.6 150.029 Z" fill="#000000" fill-rule="nonzero" fill-opacity="1" /><path clip-path="url(#clip040)" d="M1062.37 185.677 L1062.37 213.061 L1054.91 213.061 L1054.91 185.92 Q1054.91 179.479 1052.4 176.278 Q1049.89 173.078 1044.87 173.078 Q1038.83 173.078 1035.35 176.927 Q1031.86 180.775 1031.86 187.418 L1031.86 213.061 L1024.37 213.061 L1024.37 167.69 L1031.86 167.69 L1031.86 174.739 Q1034.54 170.648 1038.14 168.622 Q1041.79 166.597 1046.53 166.597 Q1054.35 166.597 1058.36 171.458 Q1062.37 176.278 1062.37 185.677 Z" fill="#000000" fill-rule="nonzero" fill-opacity="1" /><path clip-path="url(#clip040)" d="M1107.09 189.849 Q1107.09 181.747 1103.73 177.291 Q1100.41 172.835 1094.37 172.835 Q1088.37 172.835 1085.01 177.291 Q1081.69 181.747 1081.69 189.849 Q1081.69 197.91 1085.01 202.366 Q1088.37 206.822 1094.37 206.822 Q1100.41 206.822 1103.73 202.366 Q1107.09 197.91 1107.09 189.849 M1114.54 207.43 Q1114.54 219.015 1109.4 224.646 Q1104.25 230.317 1093.64 230.317 Q1089.71 230.317 1086.23 229.71 Q1082.74 229.143 1079.46 227.927 L1079.46 220.676 Q1082.74 222.459 1085.94 223.309 Q1089.14 224.16 1092.47 224.16 Q1099.8 224.16 1103.44 220.312 Q1107.09 216.504 1107.09 208.767 L1107.09 205.08 Q1104.78 209.091 1101.18 211.076 Q1097.57 213.061 1092.55 213.061 Q1084.2 213.061 1079.1 206.701 Q1073.99 200.341 1073.99 189.849 Q1073.99 179.317 1079.1 172.957 Q1084.2 166.597 1092.55 166.597 Q1097.57 166.597 1101.18 168.582 Q1104.78 170.567 1107.09 174.577 L1107.09 167.69 L1114.54 167.69 L1114.54 207.43 Z" fill="#000000" fill-rule="nonzero" fill-opacity="1" /><path clip-path="url(#clip040)" d="M1129.13 195.156 L1129.13 167.69 L1136.58 167.69 L1136.58 194.872 Q1136.58 201.313 1139.09 204.554 Q1141.6 207.754 1146.63 207.754 Q1152.66 207.754 1156.15 203.906 Q1159.67 200.057 1159.67 193.414 L1159.67 167.69 L1167.12 167.69 L1167.12 213.061 L1159.67 213.061 L1159.67 206.093 Q1156.96 210.225 1153.35 212.25 Q1149.79 214.235 1145.05 214.235 Q1137.23 214.235 1133.18 209.374 Q1129.13 204.513 1129.13 195.156 M1147.88 166.597 L1147.88 166.597 Z" fill="#000000" fill-rule="nonzero" fill-opacity="1" /><path clip-path="url(#clip040)" d="M1182.48 150.029 L1189.93 150.029 L1189.93 213.061 L1182.48 213.061 L1182.48 150.029 Z" fill="#000000" fill-rule="nonzero" fill-opacity="1" /><path clip-path="url(#clip040)" d="M1226.15 190.254 Q1217.11 190.254 1213.63 192.32 Q1210.14 194.386 1210.14 199.369 Q1210.14 203.338 1212.74 205.688 Q1215.37 207.997 1219.87 207.997 Q1226.06 207.997 1229.79 203.622 Q1233.56 199.207 1233.56 191.915 L1233.56 190.254 L1226.15 190.254 M1241.01 187.175 L1241.01 213.061 L1233.56 213.061 L1233.56 206.174 Q1231.01 210.306 1227.2 212.291 Q1223.39 214.235 1217.88 214.235 Q1210.91 214.235 1206.78 210.347 Q1202.69 206.417 1202.69 199.855 Q1202.69 192.198 1207.8 188.31 Q1212.94 184.421 1223.11 184.421 L1233.56 184.421 L1233.56 183.692 Q1233.56 178.547 1230.16 175.752 Q1226.79 172.916 1220.68 172.916 Q1216.79 172.916 1213.1 173.848 Q1209.42 174.78 1206.01 176.643 L1206.01 169.756 Q1210.1 168.177 1213.95 167.407 Q1217.8 166.597 1221.45 166.597 Q1231.29 166.597 1236.15 171.701 Q1241.01 176.805 1241.01 187.175 Z" fill="#000000" fill-rule="nonzero" fill-opacity="1" /><path clip-path="url(#clip040)" d="M1282.66 174.658 Q1281.4 173.929 1279.9 173.605 Q1278.44 173.24 1276.66 173.24 Q1270.34 173.24 1266.94 177.372 Q1263.58 181.464 1263.58 189.16 L1263.58 213.061 L1256.08 213.061 L1256.08 167.69 L1263.58 167.69 L1263.58 174.739 Q1265.93 170.607 1269.69 168.622 Q1273.46 166.597 1278.85 166.597 Q1279.62 166.597 1280.55 166.718 Q1281.48 166.799 1282.62 167.002 L1282.66 174.658 Z" fill="#000000" fill-rule="nonzero" fill-opacity="1" /><path clip-path="url(#clip040)" d="M1311.5 167.69 L1319.4 167.69 L1333.58 205.769 L1347.75 167.69 L1355.65 167.69 L1338.64 213.061 L1328.51 213.061 L1311.5 167.69 Z" fill="#000000" fill-rule="nonzero" fill-opacity="1" /><path clip-path="url(#clip040)" d="M1386.56 190.254 Q1377.53 190.254 1374.04 192.32 Q1370.56 194.386 1370.56 199.369 Q1370.56 203.338 1373.15 205.688 Q1375.79 207.997 1380.28 207.997 Q1386.48 207.997 1390.21 203.622 Q1393.97 199.207 1393.97 191.915 L1393.97 190.254 L1386.56 190.254 M1401.43 187.175 L1401.43 213.061 L1393.97 213.061 L1393.97 206.174 Q1391.42 210.306 1387.61 212.291 Q1383.81 214.235 1378.3 214.235 Q1371.33 214.235 1367.2 210.347 Q1363.11 206.417 1363.11 199.855 Q1363.11 192.198 1368.21 188.31 Q1373.36 184.421 1383.52 184.421 L1393.97 184.421 L1393.97 183.692 Q1393.97 178.547 1390.57 175.752 Q1387.21 172.916 1381.09 172.916 Q1377.2 172.916 1373.52 173.848 Q1369.83 174.78 1366.43 176.643 L1366.43 169.756 Q1370.52 168.177 1374.37 167.407 Q1378.22 166.597 1381.86 166.597 Q1391.71 166.597 1396.57 171.701 Q1401.43 176.805 1401.43 187.175 Z" fill="#000000" fill-rule="nonzero" fill-opacity="1" /><path clip-path="url(#clip040)" d="M1416.78 150.029 L1424.24 150.029 L1424.24 213.061 L1416.78 213.061 L1416.78 150.029 Z" fill="#000000" fill-rule="nonzero" fill-opacity="1" /><path clip-path="url(#clip040)" d="M1439.06 195.156 L1439.06 167.69 L1446.52 167.69 L1446.52 194.872 Q1446.52 201.313 1449.03 204.554 Q1451.54 207.754 1456.56 207.754 Q1462.6 207.754 1466.08 203.906 Q1469.61 200.057 1469.61 193.414 L1469.61 167.69 L1477.06 167.69 L1477.06 213.061 L1469.61 213.061 L1469.61 206.093 Q1466.89 210.225 1463.29 212.25 Q1459.72 214.235 1454.98 214.235 Q1447.16 214.235 1443.11 209.374 Q1439.06 204.513 1439.06 195.156 M1457.82 166.597 L1457.82 166.597 Z" fill="#000000" fill-rule="nonzero" fill-opacity="1" /><path clip-path="url(#clip040)" d="M1531.22 188.512 L1531.22 192.158 L1496.95 192.158 Q1497.43 199.855 1501.57 203.906 Q1505.74 207.916 1513.15 207.916 Q1517.45 207.916 1521.46 206.863 Q1525.51 205.81 1529.48 203.703 L1529.48 210.752 Q1525.47 212.453 1521.25 213.344 Q1517.04 214.235 1512.71 214.235 Q1501.85 214.235 1495.49 207.916 Q1489.17 201.597 1489.17 190.821 Q1489.17 179.681 1495.17 173.159 Q1501.2 166.597 1511.41 166.597 Q1520.57 166.597 1525.87 172.511 Q1531.22 178.385 1531.22 188.512 M1523.77 186.325 Q1523.68 180.208 1520.32 176.562 Q1517 172.916 1511.49 172.916 Q1505.25 172.916 1501.49 176.44 Q1497.76 179.965 1497.19 186.365 L1523.77 186.325 Z" fill="#000000" fill-rule="nonzero" fill-opacity="1" /><path clip-path="url(#clip040)" d="M1572.38 169.027 L1572.38 176.076 Q1569.22 174.456 1565.81 173.645 Q1562.41 172.835 1558.77 172.835 Q1553.22 172.835 1550.42 174.537 Q1547.67 176.238 1547.67 179.641 Q1547.67 182.233 1549.65 183.732 Q1551.64 185.19 1557.63 186.527 L1560.18 187.094 Q1568.12 188.796 1571.44 191.915 Q1574.81 194.994 1574.81 200.543 Q1574.81 206.863 1569.78 210.549 Q1564.8 214.235 1556.05 214.235 Q1552.41 214.235 1548.44 213.506 Q1544.51 212.818 1540.13 211.4 L1540.13 203.703 Q1544.26 205.85 1548.27 206.944 Q1552.28 207.997 1556.21 207.997 Q1561.48 207.997 1564.32 206.215 Q1567.15 204.392 1567.15 201.11 Q1567.15 198.072 1565.09 196.452 Q1563.06 194.832 1556.13 193.333 L1553.54 192.725 Q1546.61 191.267 1543.53 188.269 Q1540.46 185.231 1540.46 179.965 Q1540.46 173.564 1544.99 170.081 Q1549.53 166.597 1557.87 166.597 Q1562.01 166.597 1565.65 167.204 Q1569.3 167.812 1572.38 169.027 Z" fill="#000000" fill-rule="nonzero" fill-opacity="1" /><path clip-path="url(#clip040)" d="M1630.95 150.11 Q1625.52 159.427 1622.89 168.541 Q1620.26 177.656 1620.26 187.013 Q1620.26 196.371 1622.89 205.566 Q1625.57 214.721 1630.95 223.998 L1624.47 223.998 Q1618.39 214.478 1615.36 205.283 Q1612.36 196.087 1612.36 187.013 Q1612.36 177.98 1615.36 168.825 Q1618.35 159.67 1624.47 150.11 L1630.95 150.11 Z" fill="#000000" fill-rule="nonzero" fill-opacity="1" /><path clip-path="url(#clip040)" d="M1683.13 185.677 L1683.13 213.061 L1675.67 213.061 L1675.67 185.92 Q1675.67 179.479 1673.16 176.278 Q1670.65 173.078 1665.63 173.078 Q1659.59 173.078 1656.11 176.927 Q1652.63 180.775 1652.63 187.418 L1652.63 213.061 L1645.13 213.061 L1645.13 167.69 L1652.63 167.69 L1652.63 174.739 Q1655.3 170.648 1658.9 168.622 Q1662.55 166.597 1667.29 166.597 Q1675.11 166.597 1679.12 171.458 Q1683.13 176.278 1683.13 185.677 Z" fill="#000000" fill-rule="nonzero" fill-opacity="1" /><path clip-path="url(#clip040)" d="M1715.58 172.916 Q1709.58 172.916 1706.1 177.615 Q1702.61 182.274 1702.61 190.416 Q1702.61 198.558 1706.06 203.257 Q1709.54 207.916 1715.58 207.916 Q1721.53 207.916 1725.01 203.217 Q1728.5 198.518 1728.5 190.416 Q1728.5 182.355 1725.01 177.656 Q1721.53 172.916 1715.58 172.916 M1715.58 166.597 Q1725.3 166.597 1730.85 172.916 Q1736.4 179.236 1736.4 190.416 Q1736.4 201.556 1730.85 207.916 Q1725.3 214.235 1715.58 214.235 Q1705.81 214.235 1700.26 207.916 Q1694.75 201.556 1694.75 190.416 Q1694.75 179.236 1700.26 172.916 Q1705.81 166.597 1715.58 166.597 Z" fill="#000000" fill-rule="nonzero" fill-opacity="1" /><path clip-path="url(#clip040)" d="M1748.75 167.69 L1756.21 167.69 L1756.21 213.061 L1748.75 213.061 L1748.75 167.69 M1748.75 150.029 L1756.21 150.029 L1756.21 159.467 L1748.75 159.467 L1748.75 150.029 Z" fill="#000000" fill-rule="nonzero" fill-opacity="1" /><path clip-path="url(#clip040)" d="M1800.73 169.027 L1800.73 176.076 Q1797.57 174.456 1794.16 173.645 Q1790.76 172.835 1787.12 172.835 Q1781.57 172.835 1778.77 174.537 Q1776.02 176.238 1776.02 179.641 Q1776.02 182.233 1778 183.732 Q1779.99 185.19 1785.98 186.527 L1788.53 187.094 Q1796.47 188.796 1799.79 191.915 Q1803.16 194.994 1803.16 200.543 Q1803.16 206.863 1798.13 210.549 Q1793.15 214.235 1784.4 214.235 Q1780.76 214.235 1776.79 213.506 Q1772.86 212.818 1768.48 211.4 L1768.48 203.703 Q1772.61 205.85 1776.62 206.944 Q1780.63 207.997 1784.56 207.997 Q1789.83 207.997 1792.66 206.215 Q1795.5 204.392 1795.5 201.11 Q1795.5 198.072 1793.43 196.452 Q1791.41 194.832 1784.48 193.333 L1781.89 192.725 Q1774.96 191.267 1771.88 188.269 Q1768.8 185.231 1768.8 179.965 Q1768.8 173.564 1773.34 170.081 Q1777.88 166.597 1786.22 166.597 Q1790.36 166.597 1794 167.204 Q1797.65 167.812 1800.73 169.027 Z" fill="#000000" fill-rule="nonzero" fill-opacity="1" /><path clip-path="url(#clip040)" d="M1853.83 188.512 L1853.83 192.158 L1819.56 192.158 Q1820.05 199.855 1824.18 203.906 Q1828.35 207.916 1835.77 207.916 Q1840.06 207.916 1844.07 206.863 Q1848.12 205.81 1852.09 203.703 L1852.09 210.752 Q1848.08 212.453 1843.87 213.344 Q1839.66 214.235 1835.32 214.235 Q1824.46 214.235 1818.1 207.916 Q1811.79 201.597 1811.79 190.821 Q1811.79 179.681 1817.78 173.159 Q1823.82 166.597 1834.02 166.597 Q1843.18 166.597 1848.49 172.511 Q1853.83 178.385 1853.83 188.512 M1846.38 186.325 Q1846.3 180.208 1842.94 176.562 Q1839.61 172.916 1834.11 172.916 Q1827.87 172.916 1824.1 176.44 Q1820.37 179.965 1819.81 186.365 L1846.38 186.325 Z" fill="#000000" fill-rule="nonzero" fill-opacity="1" /><path clip-path="url(#clip040)" d="M1866.07 150.029 L1873.52 150.029 L1873.52 213.061 L1866.07 213.061 L1866.07 150.029 Z" fill="#000000" fill-rule="nonzero" fill-opacity="1" /><path clip-path="url(#clip040)" d="M1927.92 188.512 L1927.92 192.158 L1893.65 192.158 Q1894.14 199.855 1898.27 203.906 Q1902.44 207.916 1909.86 207.916 Q1914.15 207.916 1918.16 206.863 Q1922.21 205.81 1926.18 203.703 L1926.18 210.752 Q1922.17 212.453 1917.96 213.344 Q1913.75 214.235 1909.41 214.235 Q1898.56 214.235 1892.2 207.916 Q1885.88 201.597 1885.88 190.821 Q1885.88 179.681 1891.87 173.159 Q1897.91 166.597 1908.12 166.597 Q1917.27 166.597 1922.58 172.511 Q1927.92 178.385 1927.92 188.512 M1920.47 186.325 Q1920.39 180.208 1917.03 176.562 Q1913.71 172.916 1908.2 172.916 Q1901.96 172.916 1898.19 176.44 Q1894.46 179.965 1893.9 186.365 L1920.47 186.325 Z" fill="#000000" fill-rule="nonzero" fill-opacity="1" /><path clip-path="url(#clip040)" d="M1969.08 169.027 L1969.08 176.076 Q1965.92 174.456 1962.52 173.645 Q1959.12 172.835 1955.47 172.835 Q1949.92 172.835 1947.13 174.537 Q1944.37 176.238 1944.37 179.641 Q1944.37 182.233 1946.36 183.732 Q1948.34 185.19 1954.34 186.527 L1956.89 187.094 Q1964.83 188.796 1968.15 191.915 Q1971.51 194.994 1971.51 200.543 Q1971.51 206.863 1966.49 210.549 Q1961.51 214.235 1952.76 214.235 Q1949.11 214.235 1945.14 213.506 Q1941.21 212.818 1936.84 211.4 L1936.84 203.703 Q1940.97 205.85 1944.98 206.944 Q1948.99 207.997 1952.92 207.997 Q1958.18 207.997 1961.02 206.215 Q1963.86 204.392 1963.86 201.11 Q1963.86 198.072 1961.79 196.452 Q1959.76 194.832 1952.84 193.333 L1950.24 192.725 Q1943.32 191.267 1940.24 188.269 Q1937.16 185.231 1937.16 179.965 Q1937.16 173.564 1941.7 170.081 Q1946.23 166.597 1954.58 166.597 Q1958.71 166.597 1962.36 167.204 Q1966 167.812 1969.08 169.027 Z" fill="#000000" fill-rule="nonzero" fill-opacity="1" /><path clip-path="url(#clip040)" d="M2012.3 169.027 L2012.3 176.076 Q2009.15 174.456 2005.74 173.645 Q2002.34 172.835 1998.69 172.835 Q1993.14 172.835 1990.35 174.537 Q1987.59 176.238 1987.59 179.641 Q1987.59 182.233 1989.58 183.732 Q1991.56 185.19 1997.56 186.527 L2000.11 187.094 Q2008.05 188.796 2011.37 191.915 Q2014.74 194.994 2014.74 200.543 Q2014.74 206.863 2009.71 210.549 Q2004.73 214.235 1995.98 214.235 Q1992.33 214.235 1988.36 213.506 Q1984.43 212.818 1980.06 211.4 L1980.06 203.703 Q1984.19 205.85 1988.2 206.944 Q1992.21 207.997 1996.14 207.997 Q2001.41 207.997 2004.24 206.215 Q2007.08 204.392 2007.08 201.11 Q2007.08 198.072 2005.01 196.452 Q2002.99 194.832 1996.06 193.333 L1993.47 192.725 Q1986.54 191.267 1983.46 188.269 Q1980.38 185.231 1980.38 179.965 Q1980.38 173.564 1984.92 170.081 Q1989.46 166.597 1997.8 166.597 Q2001.93 166.597 2005.58 167.204 Q2009.23 167.812 2012.3 169.027 Z" fill="#000000" fill-rule="nonzero" fill-opacity="1" /><path clip-path="url(#clip040)" d="M2085.63 169.432 L2085.63 176.4 Q2082.47 174.658 2079.27 173.807 Q2076.11 172.916 2072.87 172.916 Q2065.61 172.916 2061.6 177.534 Q2057.59 182.112 2057.59 190.416 Q2057.59 198.72 2061.6 203.338 Q2065.61 207.916 2072.87 207.916 Q2076.11 207.916 2079.27 207.065 Q2082.47 206.174 2085.63 204.432 L2085.63 211.319 Q2082.51 212.777 2079.14 213.506 Q2075.82 214.235 2072.06 214.235 Q2061.81 214.235 2055.77 207.794 Q2049.74 201.354 2049.74 190.416 Q2049.74 179.317 2055.81 172.957 Q2061.93 166.597 2072.54 166.597 Q2075.99 166.597 2079.27 167.326 Q2082.55 168.015 2085.63 169.432 Z" fill="#000000" fill-rule="nonzero" fill-opacity="1" /><path clip-path="url(#clip040)" d="M2119.21 190.254 Q2110.17 190.254 2106.69 192.32 Q2103.21 194.386 2103.21 199.369 Q2103.21 203.338 2105.8 205.688 Q2108.43 207.997 2112.93 207.997 Q2119.13 207.997 2122.85 203.622 Q2126.62 199.207 2126.62 191.915 L2126.62 190.254 L2119.21 190.254 M2134.08 187.175 L2134.08 213.061 L2126.62 213.061 L2126.62 206.174 Q2124.07 210.306 2120.26 212.291 Q2116.45 214.235 2110.94 214.235 Q2103.98 214.235 2099.84 210.347 Q2095.75 206.417 2095.75 199.855 Q2095.75 192.198 2100.86 188.31 Q2106 184.421 2116.17 184.421 L2126.62 184.421 L2126.62 183.692 Q2126.62 178.547 2123.22 175.752 Q2119.86 172.916 2113.74 172.916 Q2109.85 172.916 2106.16 173.848 Q2102.48 174.78 2099.08 176.643 L2099.08 169.756 Q2103.17 168.177 2107.01 167.407 Q2110.86 166.597 2114.51 166.597 Q2124.35 166.597 2129.21 171.701 Q2134.08 176.805 2134.08 187.175 Z" fill="#000000" fill-rule="nonzero" fill-opacity="1" /><path clip-path="url(#clip040)" d="M2178.35 169.027 L2178.35 176.076 Q2175.19 174.456 2171.79 173.645 Q2168.39 172.835 2164.74 172.835 Q2159.19 172.835 2156.4 174.537 Q2153.64 176.238 2153.64 179.641 Q2153.64 182.233 2155.63 183.732 Q2157.61 185.19 2163.61 186.527 L2166.16 187.094 Q2174.1 188.796 2177.42 191.915 Q2180.78 194.994 2180.78 200.543 Q2180.78 206.863 2175.76 210.549 Q2170.78 214.235 2162.03 214.235 Q2158.38 214.235 2154.41 213.506 Q2150.48 212.818 2146.11 211.4 L2146.11 203.703 Q2150.24 205.85 2154.25 206.944 Q2158.26 207.997 2162.19 207.997 Q2167.45 207.997 2170.29 206.215 Q2173.13 204.392 2173.13 201.11 Q2173.13 198.072 2171.06 196.452 Q2169.03 194.832 2162.11 193.333 L2159.51 192.725 Q2152.59 191.267 2149.51 188.269 Q2146.43 185.231 2146.43 179.965 Q2146.43 173.564 2150.97 170.081 Q2155.5 166.597 2163.85 166.597 Q2167.98 166.597 2171.63 167.204 Q2175.27 167.812 2178.35 169.027 Z" fill="#000000" fill-rule="nonzero" fill-opacity="1" /><path clip-path="url(#clip040)" d="M2231.46 188.512 L2231.46 192.158 L2197.19 192.158 Q2197.67 199.855 2201.81 203.906 Q2205.98 207.916 2213.39 207.916 Q2217.69 207.916 2221.7 206.863 Q2225.75 205.81 2229.72 203.703 L2229.72 210.752 Q2225.71 212.453 2221.49 213.344 Q2217.28 214.235 2212.95 214.235 Q2202.09 214.235 2195.73 207.916 Q2189.41 201.597 2189.41 190.821 Q2189.41 179.681 2195.41 173.159 Q2201.44 166.597 2211.65 166.597 Q2220.8 166.597 2226.11 172.511 Q2231.46 178.385 2231.46 188.512 M2224.01 186.325 Q2223.92 180.208 2220.56 176.562 Q2217.24 172.916 2211.73 172.916 Q2205.49 172.916 2201.73 176.44 Q2198 179.965 2197.43 186.365 L2224.01 186.325 Z" fill="#000000" fill-rule="nonzero" fill-opacity="1" /><path clip-path="url(#clip040)" d="M2242.52 150.11 L2249 150.11 Q2255.08 159.67 2258.07 168.825 Q2261.11 177.98 2261.11 187.013 Q2261.11 196.087 2258.07 205.283 Q2255.08 214.478 2249 223.998 L2242.52 223.998 Q2247.91 214.721 2250.54 205.566 Q2253.21 196.371 2253.21 187.013 Q2253.21 177.656 2250.54 168.541 Q2247.91 159.427 2242.52 150.11 Z" fill="#000000" fill-rule="nonzero" fill-opacity="1" /></svg>
