<?xml version="1.0" encoding="utf-8"?>
<svg xmlns="http://www.w3.org/2000/svg" xmlns:xlink="http://www.w3.org/1999/xlink" width="600" height="400" viewBox="0 0 2400 1600">
<defs>
  <clipPath id="clip160">
    <rect x="0" y="0" width="2400" height="1600"/>
  </clipPath>
</defs>
<path clip-path="url(#clip160)" d="M0 1600 L2400 1600 L2400 0 L0 0  Z" fill="#ffffff" fill-rule="evenodd" fill-opacity="1"/>
<defs>
  <clipPath id="clip161">
    <rect x="177" y="123" width="2176" height="1347"/>
  </clipPath>
</defs>
<path clip-path="url(#clip160)" d="M177.721 1469.17 L2352.76 1469.17 L2352.76 123.472 L177.721 123.472  Z" fill="#ffffff" fill-rule="evenodd" fill-opacity="1"/>
<polyline clip-path="url(#clip161)" style="stroke:#000000; stroke-linecap:round; stroke-linejoin:round; stroke-width:2; stroke-opacity:0.1; fill:none" points="298.425,1469.17 298.425,123.472 "/>
<polyline clip-path="url(#clip161)" style="stroke:#000000; stroke-linecap:round; stroke-linejoin:round; stroke-width:2; stroke-opacity:0.1; fill:none" points="541.683,1469.17 541.683,123.472 "/>
<polyline clip-path="url(#clip161)" style="stroke:#000000; stroke-linecap:round; stroke-linejoin:round; stroke-width:2; stroke-opacity:0.1; fill:none" points="784.941,1469.17 784.941,123.472 "/>
<polyline clip-path="url(#clip161)" style="stroke:#000000; stroke-linecap:round; stroke-linejoin:round; stroke-width:2; stroke-opacity:0.1; fill:none" points="1028.2,1469.17 1028.2,123.472 "/>
<polyline clip-path="url(#clip161)" style="stroke:#000000; stroke-linecap:round; stroke-linejoin:round; stroke-width:2; stroke-opacity:0.1; fill:none" points="1271.46,1469.17 1271.46,123.472 "/>
<polyline clip-path="url(#clip161)" style="stroke:#000000; stroke-linecap:round; stroke-linejoin:round; stroke-width:2; stroke-opacity:0.1; fill:none" points="1514.71,1469.17 1514.71,123.472 "/>
<polyline clip-path="url(#clip161)" style="stroke:#000000; stroke-linecap:round; stroke-linejoin:round; stroke-width:2; stroke-opacity:0.1; fill:none" points="1757.97,1469.17 1757.97,123.472 "/>
<polyline clip-path="url(#clip161)" style="stroke:#000000; stroke-linecap:round; stroke-linejoin:round; stroke-width:2; stroke-opacity:0.1; fill:none" points="2001.23,1469.17 2001.23,123.472 "/>
<polyline clip-path="url(#clip161)" style="stroke:#000000; stroke-linecap:round; stroke-linejoin:round; stroke-width:2; stroke-opacity:0.1; fill:none" points="2244.49,1469.17 2244.49,123.472 "/>
<polyline clip-path="url(#clip161)" style="stroke:#000000; stroke-linecap:round; stroke-linejoin:round; stroke-width:2; stroke-opacity:0.1; fill:none" points="177.721,1266.65 2352.76,1266.65 "/>
<polyline clip-path="url(#clip161)" style="stroke:#000000; stroke-linecap:round; stroke-linejoin:round; stroke-width:2; stroke-opacity:0.1; fill:none" points="177.721,1023.39 2352.76,1023.39 "/>
<polyline clip-path="url(#clip161)" style="stroke:#000000; stroke-linecap:round; stroke-linejoin:round; stroke-width:2; stroke-opacity:0.1; fill:none" points="177.721,780.133 2352.76,780.133 "/>
<polyline clip-path="url(#clip161)" style="stroke:#000000; stroke-linecap:round; stroke-linejoin:round; stroke-width:2; stroke-opacity:0.1; fill:none" points="177.721,536.875 2352.76,536.875 "/>
<polyline clip-path="url(#clip161)" style="stroke:#000000; stroke-linecap:round; stroke-linejoin:round; stroke-width:2; stroke-opacity:0.1; fill:none" points="177.721,293.617 2352.76,293.617 "/>
<polyline clip-path="url(#clip160)" style="stroke:#000000; stroke-linecap:round; stroke-linejoin:round; stroke-width:4; stroke-opacity:1; fill:none" points="177.721,1469.17 2352.76,1469.17 "/>
<polyline clip-path="url(#clip160)" style="stroke:#000000; stroke-linecap:round; stroke-linejoin:round; stroke-width:4; stroke-opacity:1; fill:none" points="298.425,1469.17 298.425,1450.27 "/>
<polyline clip-path="url(#clip160)" style="stroke:#000000; stroke-linecap:round; stroke-linejoin:round; stroke-width:4; stroke-opacity:1; fill:none" points="541.683,1469.17 541.683,1450.27 "/>
<polyline clip-path="url(#clip160)" style="stroke:#000000; stroke-linecap:round; stroke-linejoin:round; stroke-width:4; stroke-opacity:1; fill:none" points="784.941,1469.17 784.941,1450.27 "/>
<polyline clip-path="url(#clip160)" style="stroke:#000000; stroke-linecap:round; stroke-linejoin:round; stroke-width:4; stroke-opacity:1; fill:none" points="1028.2,1469.17 1028.2,1450.27 "/>
<polyline clip-path="url(#clip160)" style="stroke:#000000; stroke-linecap:round; stroke-linejoin:round; stroke-width:4; stroke-opacity:1; fill:none" points="1271.46,1469.17 1271.46,1450.27 "/>
<polyline clip-path="url(#clip160)" style="stroke:#000000; stroke-linecap:round; stroke-linejoin:round; stroke-width:4; stroke-opacity:1; fill:none" points="1514.71,1469.17 1514.71,1450.27 "/>
<polyline clip-path="url(#clip160)" style="stroke:#000000; stroke-linecap:round; stroke-linejoin:round; stroke-width:4; stroke-opacity:1; fill:none" points="1757.97,1469.17 1757.97,1450.27 "/>
<polyline clip-path="url(#clip160)" style="stroke:#000000; stroke-linecap:round; stroke-linejoin:round; stroke-width:4; stroke-opacity:1; fill:none" points="2001.23,1469.17 2001.23,1450.27 "/>
<polyline clip-path="url(#clip160)" style="stroke:#000000; stroke-linecap:round; stroke-linejoin:round; stroke-width:4; stroke-opacity:1; fill:none" points="2244.49,1469.17 2244.49,1450.27 "/>
<path clip-path="url(#clip160)" d="M251.776 1527.92 L296.29 1527.92 L296.29 1533.83 L251.776 1533.83 L251.776 1527.92 Z" fill="#000000" fill-rule="nonzero" fill-opacity="1" /><path clip-path="url(#clip160)" d="M330.699 1507.44 L312.991 1535.11 L330.699 1535.11 L330.699 1507.44 M328.859 1501.33 L337.678 1501.33 L337.678 1535.11 L345.074 1535.11 L345.074 1540.95 L337.678 1540.95 L337.678 1553.17 L330.699 1553.17 L330.699 1540.95 L307.297 1540.95 L307.297 1534.17 L328.859 1501.33 Z" fill="#000000" fill-rule="nonzero" fill-opacity="1" /><path clip-path="url(#clip160)" d="M495.885 1527.92 L540.398 1527.92 L540.398 1533.83 L495.885 1533.83 L495.885 1527.92 Z" fill="#000000" fill-rule="nonzero" fill-opacity="1" /><path clip-path="url(#clip160)" d="M576.787 1525.22 Q581.822 1526.29 584.634 1529.7 Q587.481 1533.1 587.481 1538.1 Q587.481 1545.77 582.204 1549.97 Q576.926 1554.17 567.204 1554.17 Q563.94 1554.17 560.468 1553.52 Q557.03 1552.89 553.35 1551.61 L553.35 1544.83 Q556.266 1546.54 559.738 1547.4 Q563.211 1548.27 566.995 1548.27 Q573.593 1548.27 577.03 1545.67 Q580.502 1543.06 580.502 1538.1 Q580.502 1533.52 577.273 1530.95 Q574.079 1528.34 568.35 1528.34 L562.308 1528.34 L562.308 1522.58 L568.627 1522.58 Q573.801 1522.58 576.544 1520.53 Q579.287 1518.45 579.287 1514.56 Q579.287 1510.56 576.44 1508.45 Q573.627 1506.29 568.35 1506.29 Q565.468 1506.29 562.169 1506.92 Q558.87 1507.54 554.912 1508.86 L554.912 1502.61 Q558.905 1501.5 562.377 1500.95 Q565.884 1500.39 568.975 1500.39 Q576.961 1500.39 581.613 1504.04 Q586.266 1507.65 586.266 1513.83 Q586.266 1518.13 583.801 1521.12 Q581.336 1524.07 576.787 1525.22 Z" fill="#000000" fill-rule="nonzero" fill-opacity="1" /><path clip-path="url(#clip160)" d="M739.854 1527.92 L784.368 1527.92 L784.368 1533.83 L739.854 1533.83 L739.854 1527.92 Z" fill="#000000" fill-rule="nonzero" fill-opacity="1" /><path clip-path="url(#clip160)" d="M805.548 1547.27 L830.027 1547.27 L830.027 1553.17 L797.111 1553.17 L797.111 1547.27 Q801.104 1543.13 807.979 1536.19 Q814.889 1529.21 816.66 1527.2 Q820.028 1523.41 821.347 1520.81 Q822.701 1518.17 822.701 1515.63 Q822.701 1511.5 819.784 1508.9 Q816.903 1506.29 812.25 1506.29 Q808.951 1506.29 805.271 1507.44 Q801.625 1508.58 797.458 1510.91 L797.458 1503.83 Q801.694 1502.13 805.375 1501.26 Q809.055 1500.39 812.111 1500.39 Q820.166 1500.39 824.958 1504.42 Q829.75 1508.45 829.75 1515.18 Q829.75 1518.38 828.534 1521.26 Q827.354 1524.11 824.194 1527.99 Q823.326 1529 818.673 1533.83 Q814.021 1538.62 805.548 1547.27 Z" fill="#000000" fill-rule="nonzero" fill-opacity="1" /><path clip-path="url(#clip160)" d="M982.835 1527.92 L1027.35 1527.92 L1027.35 1533.83 L982.835 1533.83 L982.835 1527.92 Z" fill="#000000" fill-rule="nonzero" fill-opacity="1" /><path clip-path="url(#clip160)" d="M1043.7 1547.27 L1055.16 1547.27 L1055.16 1507.72 L1042.7 1510.22 L1042.7 1503.83 L1055.09 1501.33 L1062.1 1501.33 L1062.1 1547.27 L1073.56 1547.27 L1073.56 1553.17 L1043.7 1553.17 L1043.7 1547.27 Z" fill="#000000" fill-rule="nonzero" fill-opacity="1" /><path clip-path="url(#clip160)" d="M1271.46 1505.95 Q1266.04 1505.95 1263.3 1511.29 Q1260.59 1516.61 1260.59 1527.3 Q1260.59 1537.96 1263.3 1543.31 Q1266.04 1548.62 1271.46 1548.62 Q1276.91 1548.62 1279.62 1543.31 Q1282.36 1537.96 1282.36 1527.3 Q1282.36 1516.61 1279.62 1511.29 Q1276.91 1505.95 1271.46 1505.95 M1271.46 1500.39 Q1280.17 1500.39 1284.76 1507.3 Q1289.37 1514.18 1289.37 1527.3 Q1289.37 1540.39 1284.76 1547.3 Q1280.17 1554.17 1271.46 1554.17 Q1262.74 1554.17 1258.12 1547.3 Q1253.54 1540.39 1253.54 1527.3 Q1253.54 1514.18 1258.12 1507.3 Q1262.74 1500.39 1271.46 1500.39 Z" fill="#000000" fill-rule="nonzero" fill-opacity="1" /><path clip-path="url(#clip160)" d="M1500.29 1547.27 L1511.75 1547.27 L1511.75 1507.72 L1499.28 1510.22 L1499.28 1503.83 L1511.68 1501.33 L1518.69 1501.33 L1518.69 1547.27 L1530.15 1547.27 L1530.15 1553.17 L1500.29 1553.17 L1500.29 1547.27 Z" fill="#000000" fill-rule="nonzero" fill-opacity="1" /><path clip-path="url(#clip160)" d="M1749.95 1547.27 L1774.43 1547.27 L1774.43 1553.17 L1741.51 1553.17 L1741.51 1547.27 Q1745.51 1543.13 1752.38 1536.19 Q1759.29 1529.21 1761.06 1527.2 Q1764.43 1523.41 1765.75 1520.81 Q1767.1 1518.17 1767.1 1515.63 Q1767.1 1511.5 1764.19 1508.9 Q1761.31 1506.29 1756.65 1506.29 Q1753.35 1506.29 1749.67 1507.44 Q1746.03 1508.58 1741.86 1510.91 L1741.86 1503.83 Q1746.1 1502.13 1749.78 1501.26 Q1753.46 1500.39 1756.51 1500.39 Q1764.57 1500.39 1769.36 1504.42 Q1774.15 1508.45 1774.15 1515.18 Q1774.15 1518.38 1772.94 1521.26 Q1771.76 1524.11 1768.6 1527.99 Q1767.73 1529 1763.08 1533.83 Q1758.42 1538.62 1749.95 1547.27 Z" fill="#000000" fill-rule="nonzero" fill-opacity="1" /><path clip-path="url(#clip160)" d="M2007.6 1525.22 Q2012.64 1526.29 2015.45 1529.7 Q2018.3 1533.1 2018.3 1538.1 Q2018.3 1545.77 2013.02 1549.97 Q2007.74 1554.17 1998.02 1554.17 Q1994.75 1554.17 1991.28 1553.52 Q1987.85 1552.89 1984.16 1551.61 L1984.16 1544.83 Q1987.08 1546.54 1990.55 1547.4 Q1994.03 1548.27 1997.81 1548.27 Q2004.41 1548.27 2007.85 1545.67 Q2011.32 1543.06 2011.32 1538.1 Q2011.32 1533.52 2008.09 1530.95 Q2004.89 1528.34 1999.16 1528.34 L1993.12 1528.34 L1993.12 1522.58 L1999.44 1522.58 Q2004.62 1522.58 2007.36 1520.53 Q2010.1 1518.45 2010.1 1514.56 Q2010.1 1510.56 2007.25 1508.45 Q2004.44 1506.29 1999.16 1506.29 Q1996.28 1506.29 1992.98 1506.92 Q1989.69 1507.54 1985.73 1508.86 L1985.73 1502.61 Q1989.72 1501.5 1993.19 1500.95 Q1996.7 1500.39 1999.79 1500.39 Q2007.78 1500.39 2012.43 1504.04 Q2017.08 1507.65 2017.08 1513.83 Q2017.08 1518.13 2014.62 1521.12 Q2012.15 1524.07 2007.6 1525.22 Z" fill="#000000" fill-rule="nonzero" fill-opacity="1" /><path clip-path="url(#clip160)" d="M2249 1507.44 L2231.29 1535.11 L2249 1535.11 L2249 1507.44 M2247.16 1501.33 L2255.98 1501.33 L2255.98 1535.11 L2263.38 1535.11 L2263.38 1540.95 L2255.98 1540.95 L2255.98 1553.17 L2249 1553.17 L2249 1540.95 L2225.6 1540.95 L2225.6 1534.17 L2247.16 1501.33 Z" fill="#000000" fill-rule="nonzero" fill-opacity="1" /><polyline clip-path="url(#clip160)" style="stroke:#000000; stroke-linecap:round; stroke-linejoin:round; stroke-width:4; stroke-opacity:1; fill:none" points="177.721,1469.17 177.721,123.472 "/>
<polyline clip-path="url(#clip160)" style="stroke:#000000; stroke-linecap:round; stroke-linejoin:round; stroke-width:4; stroke-opacity:1; fill:none" points="177.721,1266.65 196.618,1266.65 "/>
<polyline clip-path="url(#clip160)" style="stroke:#000000; stroke-linecap:round; stroke-linejoin:round; stroke-width:4; stroke-opacity:1; fill:none" points="177.721,1023.39 196.618,1023.39 "/>
<polyline clip-path="url(#clip160)" style="stroke:#000000; stroke-linecap:round; stroke-linejoin:round; stroke-width:4; stroke-opacity:1; fill:none" points="177.721,780.133 196.618,780.133 "/>
<polyline clip-path="url(#clip160)" style="stroke:#000000; stroke-linecap:round; stroke-linejoin:round; stroke-width:4; stroke-opacity:1; fill:none" points="177.721,536.875 196.618,536.875 "/>
<polyline clip-path="url(#clip160)" style="stroke:#000000; stroke-linecap:round; stroke-linejoin:round; stroke-width:4; stroke-opacity:1; fill:none" points="177.721,293.617 196.618,293.617 "/>
<path clip-path="url(#clip160)" d="M51.5477 1267.33 L96.0613 1267.33 L96.0613 1273.23 L51.5477 1273.23 L51.5477 1267.33 Z" fill="#000000" fill-rule="nonzero" fill-opacity="1" /><path clip-path="url(#clip160)" d="M117.242 1286.67 L141.721 1286.67 L141.721 1292.57 L108.804 1292.57 L108.804 1286.67 Q112.797 1282.53 119.672 1275.59 Q126.582 1268.61 128.353 1266.6 Q131.721 1262.81 133.04 1260.21 Q134.394 1257.57 134.394 1255.03 Q134.394 1250.9 131.478 1248.3 Q128.596 1245.69 123.943 1245.69 Q120.645 1245.69 116.964 1246.84 Q113.318 1247.99 109.152 1250.31 L109.152 1243.23 Q113.388 1241.53 117.068 1240.66 Q120.749 1239.79 123.804 1239.79 Q131.86 1239.79 136.651 1243.82 Q141.443 1247.85 141.443 1254.58 Q141.443 1257.78 140.228 1260.66 Q139.047 1263.51 135.888 1267.4 Q135.019 1268.4 130.367 1273.23 Q125.714 1278.02 117.242 1286.67 Z" fill="#000000" fill-rule="nonzero" fill-opacity="1" /><path clip-path="url(#clip160)" d="M50.9921 1024.07 L95.5058 1024.07 L95.5058 1029.97 L50.9921 1029.97 L50.9921 1024.07 Z" fill="#000000" fill-rule="nonzero" fill-opacity="1" /><path clip-path="url(#clip160)" d="M111.86 1043.41 L123.318 1043.41 L123.318 1003.86 L110.853 1006.36 L110.853 999.971 L123.249 997.471 L130.263 997.471 L130.263 1043.41 L141.721 1043.41 L141.721 1049.31 L111.86 1049.31 L111.86 1043.41 Z" fill="#000000" fill-rule="nonzero" fill-opacity="1" /><path clip-path="url(#clip160)" d="M123.804 758.831 Q118.388 758.831 115.645 764.178 Q112.936 769.491 112.936 780.185 Q112.936 790.845 115.645 796.192 Q118.388 801.504 123.804 801.504 Q129.256 801.504 131.964 796.192 Q134.707 790.845 134.707 780.185 Q134.707 769.491 131.964 764.178 Q129.256 758.831 123.804 758.831 M123.804 753.275 Q132.519 753.275 137.103 760.185 Q141.721 767.06 141.721 780.185 Q141.721 793.275 137.103 800.185 Q132.519 807.06 123.804 807.06 Q115.089 807.06 110.471 800.185 Q105.888 793.275 105.888 780.185 Q105.888 767.06 110.471 760.185 Q115.089 753.275 123.804 753.275 Z" fill="#000000" fill-rule="nonzero" fill-opacity="1" /><path clip-path="url(#clip160)" d="M111.86 556.892 L123.318 556.892 L123.318 517.344 L110.853 519.844 L110.853 513.455 L123.249 510.955 L130.263 510.955 L130.263 556.892 L141.721 556.892 L141.721 562.795 L111.86 562.795 L111.86 556.892 Z" fill="#000000" fill-rule="nonzero" fill-opacity="1" /><path clip-path="url(#clip160)" d="M117.242 313.634 L141.721 313.634 L141.721 319.537 L108.804 319.537 L108.804 313.634 Q112.797 309.502 119.672 302.558 Q126.582 295.579 128.353 293.565 Q131.721 289.78 133.04 287.176 Q134.394 284.537 134.394 282.002 Q134.394 277.871 131.478 275.266 Q128.596 272.662 123.943 272.662 Q120.645 272.662 116.964 273.808 Q113.318 274.954 109.152 277.28 L109.152 270.197 Q113.388 268.496 117.068 267.628 Q120.749 266.759 123.804 266.759 Q131.86 266.759 136.651 270.787 Q141.443 274.815 141.443 281.551 Q141.443 284.745 140.228 287.627 Q139.047 290.475 135.888 294.363 Q135.019 295.37 130.367 300.197 Q125.714 304.988 117.242 313.634 Z" fill="#000000" fill-rule="nonzero" fill-opacity="1" /><path clip-path="url(#clip160)" d="M616.648 12.096 L624.831 12.096 L624.831 65.6895 L654.281 65.6895 L654.281 72.576 L616.648 72.576 L616.648 12.096 Z" fill="#000000" fill-rule="nonzero" fill-opacity="1" /><path clip-path="url(#clip160)" d="M678.667 32.4315 Q672.672 32.4315 669.188 37.1306 Q665.705 41.7891 665.705 49.9314 Q665.705 58.0738 669.148 62.7728 Q672.632 67.4314 678.667 67.4314 Q684.622 67.4314 688.106 62.7323 Q691.59 58.0333 691.59 49.9314 Q691.59 41.8701 688.106 37.1711 Q684.622 32.4315 678.667 32.4315 M678.667 26.1121 Q688.39 26.1121 693.939 32.4315 Q699.489 38.7509 699.489 49.9314 Q699.489 61.0714 693.939 67.4314 Q688.39 73.7508 678.667 73.7508 Q668.905 73.7508 663.355 67.4314 Q657.846 61.0714 657.846 49.9314 Q657.846 38.7509 663.355 32.4315 Q668.905 26.1121 678.667 26.1121 Z" fill="#000000" fill-rule="nonzero" fill-opacity="1" /><path clip-path="url(#clip160)" d="M744.495 28.9478 L744.495 35.9153 Q741.335 34.1734 738.135 33.3227 Q734.975 32.4315 731.734 32.4315 Q724.483 32.4315 720.473 37.0496 Q716.462 41.6271 716.462 49.9314 Q716.462 58.2358 720.473 62.8538 Q724.483 67.4314 731.734 67.4314 Q734.975 67.4314 738.135 66.5807 Q741.335 65.6895 744.495 63.9476 L744.495 70.8341 Q741.375 72.2924 738.013 73.0216 Q734.691 73.7508 730.924 73.7508 Q720.675 73.7508 714.639 67.3098 Q708.604 60.8689 708.604 49.9314 Q708.604 38.832 714.68 32.472 Q720.797 26.1121 731.41 26.1121 Q734.853 26.1121 738.135 26.8413 Q741.416 27.5299 744.495 28.9478 Z" fill="#000000" fill-rule="nonzero" fill-opacity="1" /><path clip-path="url(#clip160)" d="M778.077 49.7694 Q769.043 49.7694 765.559 51.8354 Q762.076 53.9013 762.076 58.8839 Q762.076 62.8538 764.668 65.2034 Q767.301 67.5124 771.798 67.5124 Q777.996 67.5124 781.722 63.1374 Q785.49 58.7219 785.49 51.4303 L785.49 49.7694 L778.077 49.7694 M792.943 46.6907 L792.943 72.576 L785.49 72.576 L785.49 65.6895 Q782.938 69.8214 779.13 71.8063 Q775.322 73.7508 769.813 73.7508 Q762.845 73.7508 758.713 69.8619 Q754.622 65.9325 754.622 59.3701 Q754.622 51.7138 759.726 47.825 Q764.871 43.9361 775.038 43.9361 L785.49 43.9361 L785.49 43.2069 Q785.49 38.0623 782.087 35.2672 Q778.725 32.4315 772.608 32.4315 Q768.719 32.4315 765.033 33.3632 Q761.346 34.295 757.944 36.1584 L757.944 29.2718 Q762.035 27.692 765.883 26.9223 Q769.732 26.1121 773.378 26.1121 Q783.221 26.1121 788.082 31.2163 Q792.943 36.3204 792.943 46.6907 Z" fill="#000000" fill-rule="nonzero" fill-opacity="1" /><path clip-path="url(#clip160)" d="M815.669 14.324 L815.669 27.2059 L831.022 27.2059 L831.022 32.9987 L815.669 32.9987 L815.669 57.6282 Q815.669 63.1779 817.168 64.7578 Q818.707 66.3376 823.366 66.3376 L831.022 66.3376 L831.022 72.576 L823.366 72.576 Q814.737 72.576 811.456 69.3758 Q808.175 66.1351 808.175 57.6282 L808.175 32.9987 L802.706 32.9987 L802.706 27.2059 L808.175 27.2059 L808.175 14.324 L815.669 14.324 Z" fill="#000000" fill-rule="nonzero" fill-opacity="1" /><path clip-path="url(#clip160)" d="M840.825 27.2059 L848.279 27.2059 L848.279 72.576 L840.825 72.576 L840.825 27.2059 M840.825 9.54393 L848.279 9.54393 L848.279 18.9825 L840.825 18.9825 L840.825 9.54393 Z" fill="#000000" fill-rule="nonzero" fill-opacity="1" /><path clip-path="url(#clip160)" d="M881.456 32.4315 Q875.46 32.4315 871.977 37.1306 Q868.493 41.7891 868.493 49.9314 Q868.493 58.0738 871.936 62.7728 Q875.42 67.4314 881.456 67.4314 Q887.411 67.4314 890.894 62.7323 Q894.378 58.0333 894.378 49.9314 Q894.378 41.8701 890.894 37.1711 Q887.411 32.4315 881.456 32.4315 M881.456 26.1121 Q891.178 26.1121 896.728 32.4315 Q902.277 38.7509 902.277 49.9314 Q902.277 61.0714 896.728 67.4314 Q891.178 73.7508 881.456 73.7508 Q871.693 73.7508 866.143 67.4314 Q860.634 61.0714 860.634 49.9314 Q860.634 38.7509 866.143 32.4315 Q871.693 26.1121 881.456 26.1121 Z" fill="#000000" fill-rule="nonzero" fill-opacity="1" /><path clip-path="url(#clip160)" d="M952.347 45.1919 L952.347 72.576 L944.893 72.576 L944.893 45.4349 Q944.893 38.994 942.381 35.7938 Q939.87 32.5936 934.847 32.5936 Q928.811 32.5936 925.327 36.4419 Q921.843 40.2903 921.843 46.9338 L921.843 72.576 L914.349 72.576 L914.349 27.2059 L921.843 27.2059 L921.843 34.2544 Q924.517 30.163 928.122 28.1376 Q931.768 26.1121 936.507 26.1121 Q944.326 26.1121 948.336 30.9732 Q952.347 35.7938 952.347 45.1919 Z" fill="#000000" fill-rule="nonzero" fill-opacity="1" /><path clip-path="url(#clip160)" d="M1032.39 48.0275 L1032.39 51.6733 L998.122 51.6733 Q998.608 59.3701 1002.74 63.421 Q1006.91 67.4314 1014.33 67.4314 Q1018.62 67.4314 1022.63 66.3781 Q1026.68 65.3249 1030.65 63.2184 L1030.65 70.267 Q1026.64 71.9684 1022.43 72.8596 Q1018.21 73.7508 1013.88 73.7508 Q1003.02 73.7508 996.663 67.4314 Q990.344 61.1119 990.344 50.3365 Q990.344 39.1965 996.339 32.6746 Q1002.38 26.1121 1012.58 26.1121 Q1021.74 26.1121 1027.05 32.0264 Q1032.39 37.9003 1032.39 48.0275 M1024.94 45.84 Q1024.86 39.7232 1021.5 36.0774 Q1018.17 32.4315 1012.66 32.4315 Q1006.43 32.4315 1002.66 35.9558 Q998.932 39.4801 998.365 45.8805 L1024.94 45.84 Z" fill="#000000" fill-rule="nonzero" fill-opacity="1" /><path clip-path="url(#clip160)" d="M1073.55 28.5427 L1073.55 35.5912 Q1070.39 33.9709 1066.99 33.1607 Q1063.58 32.3505 1059.94 32.3505 Q1054.39 32.3505 1051.59 34.0519 Q1048.84 35.7533 1048.84 39.156 Q1048.84 41.7486 1050.82 43.2475 Q1052.81 44.7058 1058.8 46.0426 L1061.36 46.6097 Q1069.3 48.3111 1072.62 51.4303 Q1075.98 54.509 1075.98 60.0587 Q1075.98 66.3781 1070.96 70.0644 Q1065.97 73.7508 1057.22 73.7508 Q1053.58 73.7508 1049.61 73.0216 Q1045.68 72.3329 1041.3 70.9151 L1041.3 63.2184 Q1045.44 65.3654 1049.45 66.4591 Q1053.46 67.5124 1057.39 67.5124 Q1062.65 67.5124 1065.49 65.73 Q1068.32 63.9071 1068.32 60.6258 Q1068.32 57.5877 1066.26 55.9673 Q1064.23 54.3469 1057.31 52.8481 L1054.71 52.2405 Q1047.79 50.7821 1044.71 47.7845 Q1041.63 44.7463 1041.63 39.4801 Q1041.63 33.0797 1046.17 29.5959 Q1050.7 26.1121 1059.05 26.1121 Q1063.18 26.1121 1066.83 26.7198 Q1070.47 27.3274 1073.55 28.5427 Z" fill="#000000" fill-rule="nonzero" fill-opacity="1" /><path clip-path="url(#clip160)" d="M1095.22 14.324 L1095.22 27.2059 L1110.57 27.2059 L1110.57 32.9987 L1095.22 32.9987 L1095.22 57.6282 Q1095.22 63.1779 1096.72 64.7578 Q1098.26 66.3376 1102.92 66.3376 L1110.57 66.3376 L1110.57 72.576 L1102.92 72.576 Q1094.29 72.576 1091.01 69.3758 Q1087.73 66.1351 1087.73 57.6282 L1087.73 32.9987 L1082.26 32.9987 L1082.26 27.2059 L1087.73 27.2059 L1087.73 14.324 L1095.22 14.324 Z" fill="#000000" fill-rule="nonzero" fill-opacity="1" /><path clip-path="url(#clip160)" d="M1120.38 27.2059 L1127.83 27.2059 L1127.83 72.576 L1120.38 72.576 L1120.38 27.2059 M1120.38 9.54393 L1127.83 9.54393 L1127.83 18.9825 L1120.38 18.9825 L1120.38 9.54393 Z" fill="#000000" fill-rule="nonzero" fill-opacity="1" /><path clip-path="url(#clip160)" d="M1178.75 35.9153 Q1181.55 30.8922 1185.44 28.5022 Q1189.32 26.1121 1194.59 26.1121 Q1201.68 26.1121 1205.53 31.0947 Q1209.38 36.0368 1209.38 45.1919 L1209.38 72.576 L1201.88 72.576 L1201.88 45.4349 Q1201.88 38.913 1199.57 35.7533 Q1197.26 32.5936 1192.52 32.5936 Q1186.73 32.5936 1183.37 36.4419 Q1180.01 40.2903 1180.01 46.9338 L1180.01 72.576 L1172.51 72.576 L1172.51 45.4349 Q1172.51 38.8725 1170.2 35.7533 Q1167.9 32.5936 1163.07 32.5936 Q1157.36 32.5936 1154 36.4824 Q1150.64 40.3308 1150.64 46.9338 L1150.64 72.576 L1143.14 72.576 L1143.14 27.2059 L1150.64 27.2059 L1150.64 34.2544 Q1153.19 30.082 1156.76 28.0971 Q1160.32 26.1121 1165.22 26.1121 Q1170.16 26.1121 1173.61 28.6237 Q1177.09 31.1352 1178.75 35.9153 Z" fill="#000000" fill-rule="nonzero" fill-opacity="1" /><path clip-path="url(#clip160)" d="M1244.86 49.7694 Q1235.83 49.7694 1232.35 51.8354 Q1228.86 53.9013 1228.86 58.8839 Q1228.86 62.8538 1231.45 65.2034 Q1234.09 67.5124 1238.58 67.5124 Q1244.78 67.5124 1248.51 63.1374 Q1252.28 58.7219 1252.28 51.4303 L1252.28 49.7694 L1244.86 49.7694 M1259.73 46.6907 L1259.73 72.576 L1252.28 72.576 L1252.28 65.6895 Q1249.72 69.8214 1245.92 71.8063 Q1242.11 73.7508 1236.6 73.7508 Q1229.63 73.7508 1225.5 69.8619 Q1221.41 65.9325 1221.41 59.3701 Q1221.41 51.7138 1226.51 47.825 Q1231.66 43.9361 1241.82 43.9361 L1252.28 43.9361 L1252.28 43.2069 Q1252.28 38.0623 1248.87 35.2672 Q1245.51 32.4315 1239.39 32.4315 Q1235.5 32.4315 1231.82 33.3632 Q1228.13 34.295 1224.73 36.1584 L1224.73 29.2718 Q1228.82 27.692 1232.67 26.9223 Q1236.52 26.1121 1240.16 26.1121 Q1250.01 26.1121 1254.87 31.2163 Q1259.73 36.3204 1259.73 46.6907 Z" fill="#000000" fill-rule="nonzero" fill-opacity="1" /><path clip-path="url(#clip160)" d="M1282.45 14.324 L1282.45 27.2059 L1297.81 27.2059 L1297.81 32.9987 L1282.45 32.9987 L1282.45 57.6282 Q1282.45 63.1779 1283.95 64.7578 Q1285.49 66.3376 1290.15 66.3376 L1297.81 66.3376 L1297.81 72.576 L1290.15 72.576 Q1281.52 72.576 1278.24 69.3758 Q1274.96 66.1351 1274.96 57.6282 L1274.96 32.9987 L1269.49 32.9987 L1269.49 27.2059 L1274.96 27.2059 L1274.96 14.324 L1282.45 14.324 Z" fill="#000000" fill-rule="nonzero" fill-opacity="1" /><path clip-path="url(#clip160)" d="M1346.42 48.0275 L1346.42 51.6733 L1312.15 51.6733 Q1312.63 59.3701 1316.77 63.421 Q1320.94 67.4314 1328.35 67.4314 Q1332.65 67.4314 1336.66 66.3781 Q1340.71 65.3249 1344.68 63.2184 L1344.68 70.267 Q1340.67 71.9684 1336.45 72.8596 Q1332.24 73.7508 1327.91 73.7508 Q1317.05 73.7508 1310.69 67.4314 Q1304.37 61.1119 1304.37 50.3365 Q1304.37 39.1965 1310.37 32.6746 Q1316.4 26.1121 1326.61 26.1121 Q1335.76 26.1121 1341.07 32.0264 Q1346.42 37.9003 1346.42 48.0275 M1338.96 45.84 Q1338.88 39.7232 1335.52 36.0774 Q1332.2 32.4315 1326.69 32.4315 Q1320.45 32.4315 1316.68 35.9558 Q1312.96 39.4801 1312.39 45.8805 L1338.96 45.84 Z" fill="#000000" fill-rule="nonzero" fill-opacity="1" /><path clip-path="url(#clip160)" d="M1387.58 28.5427 L1387.58 35.5912 Q1384.42 33.9709 1381.01 33.1607 Q1377.61 32.3505 1373.96 32.3505 Q1368.41 32.3505 1365.62 34.0519 Q1362.87 35.7533 1362.87 39.156 Q1362.87 41.7486 1364.85 43.2475 Q1366.84 44.7058 1372.83 46.0426 L1375.38 46.6097 Q1383.32 48.3111 1386.64 51.4303 Q1390.01 54.509 1390.01 60.0587 Q1390.01 66.3781 1384.98 70.0644 Q1380 73.7508 1371.25 73.7508 Q1367.6 73.7508 1363.63 73.0216 Q1359.71 72.3329 1355.33 70.9151 L1355.33 63.2184 Q1359.46 65.3654 1363.47 66.4591 Q1367.48 67.5124 1371.41 67.5124 Q1376.68 67.5124 1379.51 65.73 Q1382.35 63.9071 1382.35 60.6258 Q1382.35 57.5877 1380.28 55.9673 Q1378.26 54.3469 1371.33 52.8481 L1368.74 52.2405 Q1361.81 50.7821 1358.73 47.7845 Q1355.65 44.7463 1355.65 39.4801 Q1355.65 33.0797 1360.19 29.5959 Q1364.73 26.1121 1373.07 26.1121 Q1377.21 26.1121 1380.85 26.7198 Q1384.5 27.3274 1387.58 28.5427 Z" fill="#000000" fill-rule="nonzero" fill-opacity="1" /><path clip-path="url(#clip160)" d="M1446.15 9.62495 Q1440.72 18.942 1438.09 28.0566 Q1435.46 37.1711 1435.46 46.5287 Q1435.46 55.8863 1438.09 65.0818 Q1440.76 74.2369 1446.15 83.5134 L1439.67 83.5134 Q1433.59 73.9938 1430.56 64.7983 Q1427.56 55.6027 1427.56 46.5287 Q1427.56 37.4952 1430.56 28.3401 Q1433.55 19.1851 1439.67 9.62495 L1446.15 9.62495 Z" fill="#000000" fill-rule="nonzero" fill-opacity="1" /><path clip-path="url(#clip160)" d="M1498.33 45.1919 L1498.33 72.576 L1490.87 72.576 L1490.87 45.4349 Q1490.87 38.994 1488.36 35.7938 Q1485.85 32.5936 1480.83 32.5936 Q1474.79 32.5936 1471.31 36.4419 Q1467.82 40.2903 1467.82 46.9338 L1467.82 72.576 L1460.33 72.576 L1460.33 27.2059 L1467.82 27.2059 L1467.82 34.2544 Q1470.5 30.163 1474.1 28.1376 Q1477.75 26.1121 1482.49 26.1121 Q1490.31 26.1121 1494.32 30.9732 Q1498.33 35.7938 1498.33 45.1919 Z" fill="#000000" fill-rule="nonzero" fill-opacity="1" /><path clip-path="url(#clip160)" d="M1530.78 32.4315 Q1524.78 32.4315 1521.3 37.1306 Q1517.81 41.7891 1517.81 49.9314 Q1517.81 58.0738 1521.26 62.7728 Q1524.74 67.4314 1530.78 67.4314 Q1536.73 67.4314 1540.21 62.7323 Q1543.7 58.0333 1543.7 49.9314 Q1543.7 41.8701 1540.21 37.1711 Q1536.73 32.4315 1530.78 32.4315 M1530.78 26.1121 Q1540.5 26.1121 1546.05 32.4315 Q1551.6 38.7509 1551.6 49.9314 Q1551.6 61.0714 1546.05 67.4314 Q1540.5 73.7508 1530.78 73.7508 Q1521.01 73.7508 1515.46 67.4314 Q1509.95 61.0714 1509.95 49.9314 Q1509.95 38.7509 1515.46 32.4315 Q1521.01 26.1121 1530.78 26.1121 Z" fill="#000000" fill-rule="nonzero" fill-opacity="1" /><path clip-path="url(#clip160)" d="M1563.95 27.2059 L1571.41 27.2059 L1571.41 72.576 L1563.95 72.576 L1563.95 27.2059 M1563.95 9.54393 L1571.41 9.54393 L1571.41 18.9825 L1563.95 18.9825 L1563.95 9.54393 Z" fill="#000000" fill-rule="nonzero" fill-opacity="1" /><path clip-path="url(#clip160)" d="M1615.93 28.5427 L1615.93 35.5912 Q1612.77 33.9709 1609.36 33.1607 Q1605.96 32.3505 1602.31 32.3505 Q1596.76 32.3505 1593.97 34.0519 Q1591.21 35.7533 1591.21 39.156 Q1591.21 41.7486 1593.2 43.2475 Q1595.18 44.7058 1601.18 46.0426 L1603.73 46.6097 Q1611.67 48.3111 1614.99 51.4303 Q1618.36 54.509 1618.36 60.0587 Q1618.36 66.3781 1613.33 70.0644 Q1608.35 73.7508 1599.6 73.7508 Q1595.95 73.7508 1591.98 73.0216 Q1588.05 72.3329 1583.68 70.9151 L1583.68 63.2184 Q1587.81 65.3654 1591.82 66.4591 Q1595.83 67.5124 1599.76 67.5124 Q1605.03 67.5124 1607.86 65.73 Q1610.7 63.9071 1610.7 60.6258 Q1610.7 57.5877 1608.63 55.9673 Q1606.61 54.3469 1599.68 52.8481 L1597.09 52.2405 Q1590.16 50.7821 1587.08 47.7845 Q1584 44.7463 1584 39.4801 Q1584 33.0797 1588.54 29.5959 Q1593.08 26.1121 1601.42 26.1121 Q1605.55 26.1121 1609.2 26.7198 Q1612.85 27.3274 1615.93 28.5427 Z" fill="#000000" fill-rule="nonzero" fill-opacity="1" /><path clip-path="url(#clip160)" d="M1649.1 76.7889 Q1645.94 84.8907 1642.94 87.3618 Q1639.95 89.8329 1634.92 89.8329 L1628.97 89.8329 L1628.97 83.5945 L1633.34 83.5945 Q1636.42 83.5945 1638.12 82.1361 Q1639.83 80.6778 1641.89 75.2496 L1643.23 71.8468 L1624.88 27.2059 L1632.78 27.2059 L1646.96 62.6918 L1661.13 27.2059 L1669.03 27.2059 L1649.1 76.7889 Z" fill="#000000" fill-rule="nonzero" fill-opacity="1" /><path clip-path="url(#clip160)" d="M1738.34 28.9478 L1738.34 35.9153 Q1735.18 34.1734 1731.98 33.3227 Q1728.82 32.4315 1725.58 32.4315 Q1718.33 32.4315 1714.32 37.0496 Q1710.31 41.6271 1710.31 49.9314 Q1710.31 58.2358 1714.32 62.8538 Q1718.33 67.4314 1725.58 67.4314 Q1728.82 67.4314 1731.98 66.5807 Q1735.18 65.6895 1738.34 63.9476 L1738.34 70.8341 Q1735.22 72.2924 1731.86 73.0216 Q1728.54 73.7508 1724.77 73.7508 Q1714.52 73.7508 1708.49 67.3098 Q1702.45 60.8689 1702.45 49.9314 Q1702.45 38.832 1708.53 32.472 Q1714.65 26.1121 1725.26 26.1121 Q1728.7 26.1121 1731.98 26.8413 Q1735.26 27.5299 1738.34 28.9478 Z" fill="#000000" fill-rule="nonzero" fill-opacity="1" /><path clip-path="url(#clip160)" d="M1771.93 49.7694 Q1762.89 49.7694 1759.41 51.8354 Q1755.92 53.9013 1755.92 58.8839 Q1755.92 62.8538 1758.52 65.2034 Q1761.15 67.5124 1765.65 67.5124 Q1771.84 67.5124 1775.57 63.1374 Q1779.34 58.7219 1779.34 51.4303 L1779.34 49.7694 L1771.93 49.7694 M1786.79 46.6907 L1786.79 72.576 L1779.34 72.576 L1779.34 65.6895 Q1776.79 69.8214 1772.98 71.8063 Q1769.17 73.7508 1763.66 73.7508 Q1756.69 73.7508 1752.56 69.8619 Q1748.47 65.9325 1748.47 59.3701 Q1748.47 51.7138 1753.57 47.825 Q1758.72 43.9361 1768.89 43.9361 L1779.34 43.9361 L1779.34 43.2069 Q1779.34 38.0623 1775.94 35.2672 Q1772.57 32.4315 1766.46 32.4315 Q1762.57 32.4315 1758.88 33.3632 Q1755.2 34.295 1751.79 36.1584 L1751.79 29.2718 Q1755.88 27.692 1759.73 26.9223 Q1763.58 26.1121 1767.23 26.1121 Q1777.07 26.1121 1781.93 31.2163 Q1786.79 36.3204 1786.79 46.6907 Z" fill="#000000" fill-rule="nonzero" fill-opacity="1" /><path clip-path="url(#clip160)" d="M1831.07 28.5427 L1831.07 35.5912 Q1827.91 33.9709 1824.51 33.1607 Q1821.1 32.3505 1817.46 32.3505 Q1811.91 32.3505 1809.11 34.0519 Q1806.36 35.7533 1806.36 39.156 Q1806.36 41.7486 1808.34 43.2475 Q1810.33 44.7058 1816.32 46.0426 L1818.88 46.6097 Q1826.82 48.3111 1830.14 51.4303 Q1833.5 54.509 1833.5 60.0587 Q1833.5 66.3781 1828.48 70.0644 Q1823.49 73.7508 1814.74 73.7508 Q1811.1 73.7508 1807.13 73.0216 Q1803.2 72.3329 1798.82 70.9151 L1798.82 63.2184 Q1802.96 65.3654 1806.97 66.4591 Q1810.98 67.5124 1814.91 67.5124 Q1820.17 67.5124 1823.01 65.73 Q1825.84 63.9071 1825.84 60.6258 Q1825.84 57.5877 1823.78 55.9673 Q1821.75 54.3469 1814.82 52.8481 L1812.23 52.2405 Q1805.3 50.7821 1802.23 47.7845 Q1799.15 44.7463 1799.15 39.4801 Q1799.15 33.0797 1803.68 29.5959 Q1808.22 26.1121 1816.57 26.1121 Q1820.7 26.1121 1824.34 26.7198 Q1827.99 27.3274 1831.07 28.5427 Z" fill="#000000" fill-rule="nonzero" fill-opacity="1" /><path clip-path="url(#clip160)" d="M1884.18 48.0275 L1884.18 51.6733 L1849.91 51.6733 Q1850.39 59.3701 1854.52 63.421 Q1858.7 67.4314 1866.11 67.4314 Q1870.4 67.4314 1874.41 66.3781 Q1878.46 65.3249 1882.43 63.2184 L1882.43 70.267 Q1878.42 71.9684 1874.21 72.8596 Q1870 73.7508 1865.66 73.7508 Q1854.81 73.7508 1848.45 67.4314 Q1842.13 61.1119 1842.13 50.3365 Q1842.13 39.1965 1848.12 32.6746 Q1854.16 26.1121 1864.37 26.1121 Q1873.52 26.1121 1878.83 32.0264 Q1884.18 37.9003 1884.18 48.0275 M1876.72 45.84 Q1876.64 39.7232 1873.28 36.0774 Q1869.96 32.4315 1864.45 32.4315 Q1858.21 32.4315 1854.44 35.9558 Q1850.72 39.4801 1850.15 45.8805 L1876.72 45.84 Z" fill="#000000" fill-rule="nonzero" fill-opacity="1" /><path clip-path="url(#clip160)" d="M1895.23 9.62495 L1901.72 9.62495 Q1907.79 19.1851 1910.79 28.3401 Q1913.83 37.4952 1913.83 46.5287 Q1913.83 55.6027 1910.79 64.7983 Q1907.79 73.9938 1901.72 83.5134 L1895.23 83.5134 Q1900.62 74.2369 1903.26 65.0818 Q1905.93 55.8863 1905.93 46.5287 Q1905.93 37.1711 1903.26 28.0566 Q1900.62 18.942 1895.23 9.62495 Z" fill="#000000" fill-rule="nonzero" fill-opacity="1" /><circle clip-path="url(#clip161)" cx="1144.83" cy="948.778" r="14.4" fill="#009af9" fill-rule="evenodd" fill-opacity="1" stroke="none"/>
<circle clip-path="url(#clip161)" cx="1089.94" cy="805.962" r="14.4" fill="#009af9" fill-rule="evenodd" fill-opacity="1" stroke="none"/>
<circle clip-path="url(#clip161)" cx="1042.6" cy="670.912" r="14.4" fill="#009af9" fill-rule="evenodd" fill-opacity="1" stroke="none"/>
<circle clip-path="url(#clip161)" cx="953.188" cy="570.512" r="14.4" fill="#009af9" fill-rule="evenodd" fill-opacity="1" stroke="none"/>
<circle clip-path="url(#clip161)" cx="906.775" cy="469.711" r="14.4" fill="#009af9" fill-rule="evenodd" fill-opacity="1" stroke="none"/>
<circle clip-path="url(#clip161)" cx="909.003" cy="570.368" r="14.4" fill="#009af9" fill-rule="evenodd" fill-opacity="1" stroke="none"/>
<circle clip-path="url(#clip161)" cx="903.761" cy="681.996" r="14.4" fill="#009af9" fill-rule="evenodd" fill-opacity="1" stroke="none"/>
<circle clip-path="url(#clip161)" cx="883.834" cy="809.577" r="14.4" fill="#009af9" fill-rule="evenodd" fill-opacity="1" stroke="none"/>
<circle clip-path="url(#clip161)" cx="892.747" cy="908.426" r="14.4" fill="#009af9" fill-rule="evenodd" fill-opacity="1" stroke="none"/>
<circle clip-path="url(#clip161)" cx="928.818" cy="1027.84" r="14.4" fill="#009af9" fill-rule="evenodd" fill-opacity="1" stroke="none"/>
<circle clip-path="url(#clip161)" cx="894.627" cy="1164.66" r="14.4" fill="#009af9" fill-rule="evenodd" fill-opacity="1" stroke="none"/>
<circle clip-path="url(#clip161)" cx="936.643" cy="1297" r="14.4" fill="#009af9" fill-rule="evenodd" fill-opacity="1" stroke="none"/>
<circle clip-path="url(#clip161)" cx="930.827" cy="1431.08" r="14.4" fill="#009af9" fill-rule="evenodd" fill-opacity="1" stroke="none"/>
<circle clip-path="url(#clip161)" cx="763.399" cy="1384.34" r="14.4" fill="#009af9" fill-rule="evenodd" fill-opacity="1" stroke="none"/>
<circle clip-path="url(#clip161)" cx="666.575" cy="1366.98" r="14.4" fill="#009af9" fill-rule="evenodd" fill-opacity="1" stroke="none"/>
<circle clip-path="url(#clip161)" cx="555.547" cy="1410.57" r="14.4" fill="#009af9" fill-rule="evenodd" fill-opacity="1" stroke="none"/>
<circle clip-path="url(#clip161)" cx="466.393" cy="1426.25" r="14.4" fill="#009af9" fill-rule="evenodd" fill-opacity="1" stroke="none"/>
<circle clip-path="url(#clip161)" cx="456.577" cy="1298.05" r="14.4" fill="#009af9" fill-rule="evenodd" fill-opacity="1" stroke="none"/>
<circle clip-path="url(#clip161)" cx="420.037" cy="1172.74" r="14.4" fill="#009af9" fill-rule="evenodd" fill-opacity="1" stroke="none"/>
<circle clip-path="url(#clip161)" cx="527.012" cy="1144.74" r="14.4" fill="#009af9" fill-rule="evenodd" fill-opacity="1" stroke="none"/>
<circle clip-path="url(#clip161)" cx="649.003" cy="1194.72" r="14.4" fill="#009af9" fill-rule="evenodd" fill-opacity="1" stroke="none"/>
<circle clip-path="url(#clip161)" cx="667.649" cy="1069.46" r="14.4" fill="#009af9" fill-rule="evenodd" fill-opacity="1" stroke="none"/>
<circle clip-path="url(#clip161)" cx="626.457" cy="945.814" r="14.4" fill="#009af9" fill-rule="evenodd" fill-opacity="1" stroke="none"/>
<circle clip-path="url(#clip161)" cx="657.609" cy="802.818" r="14.4" fill="#009af9" fill-rule="evenodd" fill-opacity="1" stroke="none"/>
<circle clip-path="url(#clip161)" cx="651.057" cy="668.455" r="14.4" fill="#009af9" fill-rule="evenodd" fill-opacity="1" stroke="none"/>
<circle clip-path="url(#clip161)" cx="665.779" cy="572.673" r="14.4" fill="#009af9" fill-rule="evenodd" fill-opacity="1" stroke="none"/>
<circle clip-path="url(#clip161)" cx="664.519" cy="447.05" r="14.4" fill="#009af9" fill-rule="evenodd" fill-opacity="1" stroke="none"/>
<circle clip-path="url(#clip161)" cx="552.891" cy="405.398" r="14.4" fill="#009af9" fill-rule="evenodd" fill-opacity="1" stroke="none"/>
<circle clip-path="url(#clip161)" cx="418.135" cy="453.54" r="14.4" fill="#009af9" fill-rule="evenodd" fill-opacity="1" stroke="none"/>
<circle clip-path="url(#clip161)" cx="437.816" cy="342.8" r="14.4" fill="#009af9" fill-rule="evenodd" fill-opacity="1" stroke="none"/>
<circle clip-path="url(#clip161)" cx="389.066" cy="187.81" r="14.4" fill="#009af9" fill-rule="evenodd" fill-opacity="1" stroke="none"/>
<circle clip-path="url(#clip161)" cx="541.689" cy="198.834" r="14.4" fill="#009af9" fill-rule="evenodd" fill-opacity="1" stroke="none"/>
<circle clip-path="url(#clip161)" cx="627.96" cy="161.558" r="14.4" fill="#009af9" fill-rule="evenodd" fill-opacity="1" stroke="none"/>
<circle clip-path="url(#clip161)" cx="767.855" cy="164.416" r="14.4" fill="#009af9" fill-rule="evenodd" fill-opacity="1" stroke="none"/>
<circle clip-path="url(#clip161)" cx="901.697" cy="222.872" r="14.4" fill="#009af9" fill-rule="evenodd" fill-opacity="1" stroke="none"/>
<circle clip-path="url(#clip161)" cx="958.626" cy="333.416" r="14.4" fill="#009af9" fill-rule="evenodd" fill-opacity="1" stroke="none"/>
<circle clip-path="url(#clip161)" cx="1024.91" cy="442.417" r="14.4" fill="#009af9" fill-rule="evenodd" fill-opacity="1" stroke="none"/>
<circle clip-path="url(#clip161)" cx="1106.15" cy="551.699" r="14.4" fill="#009af9" fill-rule="evenodd" fill-opacity="1" stroke="none"/>
<circle clip-path="url(#clip161)" cx="1125.05" cy="684.182" r="14.4" fill="#009af9" fill-rule="evenodd" fill-opacity="1" stroke="none"/>
<circle clip-path="url(#clip161)" cx="1269.84" cy="684.212" r="14.4" fill="#009af9" fill-rule="evenodd" fill-opacity="1" stroke="none"/>
<circle clip-path="url(#clip161)" cx="1389.68" cy="677.379" r="14.4" fill="#009af9" fill-rule="evenodd" fill-opacity="1" stroke="none"/>
<circle clip-path="url(#clip161)" cx="1445.79" cy="603.359" r="14.4" fill="#009af9" fill-rule="evenodd" fill-opacity="1" stroke="none"/>
<circle clip-path="url(#clip161)" cx="1495.84" cy="437.045" r="14.4" fill="#009af9" fill-rule="evenodd" fill-opacity="1" stroke="none"/>
<circle clip-path="url(#clip161)" cx="1572.48" cy="287.047" r="14.4" fill="#009af9" fill-rule="evenodd" fill-opacity="1" stroke="none"/>
<circle clip-path="url(#clip161)" cx="1660.4" cy="216.856" r="14.4" fill="#009af9" fill-rule="evenodd" fill-opacity="1" stroke="none"/>
<circle clip-path="url(#clip161)" cx="1772.58" cy="197.492" r="14.4" fill="#009af9" fill-rule="evenodd" fill-opacity="1" stroke="none"/>
<circle clip-path="url(#clip161)" cx="1874.67" cy="180.542" r="14.4" fill="#009af9" fill-rule="evenodd" fill-opacity="1" stroke="none"/>
<circle clip-path="url(#clip161)" cx="2026.41" cy="193.666" r="14.4" fill="#009af9" fill-rule="evenodd" fill-opacity="1" stroke="none"/>
<circle clip-path="url(#clip161)" cx="2126.16" cy="186.934" r="14.4" fill="#009af9" fill-rule="evenodd" fill-opacity="1" stroke="none"/>
<circle clip-path="url(#clip161)" cx="2141.41" cy="309.35" r="14.4" fill="#009af9" fill-rule="evenodd" fill-opacity="1" stroke="none"/>
<circle clip-path="url(#clip161)" cx="2123.77" cy="441.83" r="14.4" fill="#009af9" fill-rule="evenodd" fill-opacity="1" stroke="none"/>
<circle clip-path="url(#clip161)" cx="2044.28" cy="406.456" r="14.4" fill="#009af9" fill-rule="evenodd" fill-opacity="1" stroke="none"/>
<circle clip-path="url(#clip161)" cx="1886.47" cy="448.183" r="14.4" fill="#009af9" fill-rule="evenodd" fill-opacity="1" stroke="none"/>
<circle clip-path="url(#clip161)" cx="1902.18" cy="523.135" r="14.4" fill="#009af9" fill-rule="evenodd" fill-opacity="1" stroke="none"/>
<circle clip-path="url(#clip161)" cx="1873.19" cy="663.811" r="14.4" fill="#009af9" fill-rule="evenodd" fill-opacity="1" stroke="none"/>
<circle clip-path="url(#clip161)" cx="1888.44" cy="808.366" r="14.4" fill="#009af9" fill-rule="evenodd" fill-opacity="1" stroke="none"/>
<circle clip-path="url(#clip161)" cx="1877.05" cy="943.597" r="14.4" fill="#009af9" fill-rule="evenodd" fill-opacity="1" stroke="none"/>
<circle clip-path="url(#clip161)" cx="1873.66" cy="1059.8" r="14.4" fill="#009af9" fill-rule="evenodd" fill-opacity="1" stroke="none"/>
<circle clip-path="url(#clip161)" cx="1888.03" cy="1148.18" r="14.4" fill="#009af9" fill-rule="evenodd" fill-opacity="1" stroke="none"/>
<circle clip-path="url(#clip161)" cx="2017.25" cy="1154.12" r="14.4" fill="#009af9" fill-rule="evenodd" fill-opacity="1" stroke="none"/>
<circle clip-path="url(#clip161)" cx="2101.34" cy="1193.12" r="14.4" fill="#009af9" fill-rule="evenodd" fill-opacity="1" stroke="none"/>
<circle clip-path="url(#clip161)" cx="2111.37" cy="1314.19" r="14.4" fill="#009af9" fill-rule="evenodd" fill-opacity="1" stroke="none"/>
<circle clip-path="url(#clip161)" cx="2100.83" cy="1404.21" r="14.4" fill="#009af9" fill-rule="evenodd" fill-opacity="1" stroke="none"/>
<circle clip-path="url(#clip161)" cx="2012.03" cy="1418.14" r="14.4" fill="#009af9" fill-rule="evenodd" fill-opacity="1" stroke="none"/>
<circle clip-path="url(#clip161)" cx="1882.13" cy="1427.94" r="14.4" fill="#009af9" fill-rule="evenodd" fill-opacity="1" stroke="none"/>
<circle clip-path="url(#clip161)" cx="1742.37" cy="1406.1" r="14.4" fill="#009af9" fill-rule="evenodd" fill-opacity="1" stroke="none"/>
<circle clip-path="url(#clip161)" cx="1659.03" cy="1414.83" r="14.4" fill="#009af9" fill-rule="evenodd" fill-opacity="1" stroke="none"/>
<circle clip-path="url(#clip161)" cx="1619.75" cy="1314.21" r="14.4" fill="#009af9" fill-rule="evenodd" fill-opacity="1" stroke="none"/>
<circle clip-path="url(#clip161)" cx="1630.05" cy="1158.39" r="14.4" fill="#009af9" fill-rule="evenodd" fill-opacity="1" stroke="none"/>
<circle clip-path="url(#clip161)" cx="1628.04" cy="1035.57" r="14.4" fill="#009af9" fill-rule="evenodd" fill-opacity="1" stroke="none"/>
<circle clip-path="url(#clip161)" cx="1644.87" cy="935.385" r="14.4" fill="#009af9" fill-rule="evenodd" fill-opacity="1" stroke="none"/>
<circle clip-path="url(#clip161)" cx="1603.18" cy="795.046" r="14.4" fill="#009af9" fill-rule="evenodd" fill-opacity="1" stroke="none"/>
<circle clip-path="url(#clip161)" cx="1650.54" cy="663.476" r="14.4" fill="#009af9" fill-rule="evenodd" fill-opacity="1" stroke="none"/>
<circle clip-path="url(#clip161)" cx="1653.33" cy="568.206" r="14.4" fill="#009af9" fill-rule="evenodd" fill-opacity="1" stroke="none"/>
<circle clip-path="url(#clip161)" cx="1631.63" cy="430.483" r="14.4" fill="#009af9" fill-rule="evenodd" fill-opacity="1" stroke="none"/>
<circle clip-path="url(#clip161)" cx="1580.56" cy="592.659" r="14.4" fill="#009af9" fill-rule="evenodd" fill-opacity="1" stroke="none"/>
<circle clip-path="url(#clip161)" cx="1498.64" cy="685.573" r="14.4" fill="#009af9" fill-rule="evenodd" fill-opacity="1" stroke="none"/>
<circle clip-path="url(#clip161)" cx="1457.77" cy="829.925" r="14.4" fill="#009af9" fill-rule="evenodd" fill-opacity="1" stroke="none"/>
<circle clip-path="url(#clip161)" cx="1397.16" cy="908.128" r="14.4" fill="#009af9" fill-rule="evenodd" fill-opacity="1" stroke="none"/>
<circle clip-path="url(#clip161)" cx="1255.33" cy="933.254" r="14.4" fill="#009af9" fill-rule="evenodd" fill-opacity="1" stroke="none"/>
</svg>
