<?xml version="1.0" encoding="utf-8"?>
<svg xmlns="http://www.w3.org/2000/svg" xmlns:xlink="http://www.w3.org/1999/xlink" width="600" height="400" viewBox="0 0 2400 1600">
<defs>
  <clipPath id="clip280">
    <rect x="0" y="0" width="2400" height="1600"/>
  </clipPath>
</defs>
<path clip-path="url(#clip280)" d="M0 1600 L2400 1600 L2400 0 L0 0  Z" fill="#ffffff" fill-rule="evenodd" fill-opacity="1"/>
<defs>
  <clipPath id="clip281">
    <rect x="178" y="123" width="2175" height="1347"/>
  </clipPath>
</defs>
<path clip-path="url(#clip280)" d="M178.589 1469.17 L2352.76 1469.17 L2352.76 123.472 L178.589 123.472  Z" fill="#ffffff" fill-rule="evenodd" fill-opacity="1"/>
<polyline clip-path="url(#clip281)" style="stroke:#000000; stroke-linecap:round; stroke-linejoin:round; stroke-width:2; stroke-opacity:0.1; fill:none" points="485.206,1469.17 485.206,123.472 "/>
<polyline clip-path="url(#clip281)" style="stroke:#000000; stroke-linecap:round; stroke-linejoin:round; stroke-width:2; stroke-opacity:0.1; fill:none" points="680.322,1469.17 680.322,123.472 "/>
<polyline clip-path="url(#clip281)" style="stroke:#000000; stroke-linecap:round; stroke-linejoin:round; stroke-width:2; stroke-opacity:0.1; fill:none" points="875.439,1469.17 875.439,123.472 "/>
<polyline clip-path="url(#clip281)" style="stroke:#000000; stroke-linecap:round; stroke-linejoin:round; stroke-width:2; stroke-opacity:0.1; fill:none" points="1070.56,1469.17 1070.56,123.472 "/>
<polyline clip-path="url(#clip281)" style="stroke:#000000; stroke-linecap:round; stroke-linejoin:round; stroke-width:2; stroke-opacity:0.1; fill:none" points="1265.67,1469.17 1265.67,123.472 "/>
<polyline clip-path="url(#clip281)" style="stroke:#000000; stroke-linecap:round; stroke-linejoin:round; stroke-width:2; stroke-opacity:0.1; fill:none" points="1460.79,1469.17 1460.79,123.472 "/>
<polyline clip-path="url(#clip281)" style="stroke:#000000; stroke-linecap:round; stroke-linejoin:round; stroke-width:2; stroke-opacity:0.1; fill:none" points="1655.91,1469.17 1655.91,123.472 "/>
<polyline clip-path="url(#clip281)" style="stroke:#000000; stroke-linecap:round; stroke-linejoin:round; stroke-width:2; stroke-opacity:0.1; fill:none" points="1851.02,1469.17 1851.02,123.472 "/>
<polyline clip-path="url(#clip281)" style="stroke:#000000; stroke-linecap:round; stroke-linejoin:round; stroke-width:2; stroke-opacity:0.1; fill:none" points="2046.14,1469.17 2046.14,123.472 "/>
<polyline clip-path="url(#clip281)" style="stroke:#000000; stroke-linecap:round; stroke-linejoin:round; stroke-width:2; stroke-opacity:0.1; fill:none" points="178.589,1409.6 2352.76,1409.6 "/>
<polyline clip-path="url(#clip281)" style="stroke:#000000; stroke-linecap:round; stroke-linejoin:round; stroke-width:2; stroke-opacity:0.1; fill:none" points="178.589,1214.48 2352.76,1214.48 "/>
<polyline clip-path="url(#clip281)" style="stroke:#000000; stroke-linecap:round; stroke-linejoin:round; stroke-width:2; stroke-opacity:0.1; fill:none" points="178.589,1019.36 2352.76,1019.36 "/>
<polyline clip-path="url(#clip281)" style="stroke:#000000; stroke-linecap:round; stroke-linejoin:round; stroke-width:2; stroke-opacity:0.1; fill:none" points="178.589,824.247 2352.76,824.247 "/>
<polyline clip-path="url(#clip281)" style="stroke:#000000; stroke-linecap:round; stroke-linejoin:round; stroke-width:2; stroke-opacity:0.1; fill:none" points="178.589,629.13 2352.76,629.13 "/>
<polyline clip-path="url(#clip281)" style="stroke:#000000; stroke-linecap:round; stroke-linejoin:round; stroke-width:2; stroke-opacity:0.1; fill:none" points="178.589,434.013 2352.76,434.013 "/>
<polyline clip-path="url(#clip281)" style="stroke:#000000; stroke-linecap:round; stroke-linejoin:round; stroke-width:2; stroke-opacity:0.1; fill:none" points="178.589,238.897 2352.76,238.897 "/>
<polyline clip-path="url(#clip280)" style="stroke:#000000; stroke-linecap:round; stroke-linejoin:round; stroke-width:4; stroke-opacity:1; fill:none" points="178.589,1469.17 2352.76,1469.17 "/>
<polyline clip-path="url(#clip280)" style="stroke:#000000; stroke-linecap:round; stroke-linejoin:round; stroke-width:4; stroke-opacity:1; fill:none" points="485.206,1469.17 485.206,1450.27 "/>
<polyline clip-path="url(#clip280)" style="stroke:#000000; stroke-linecap:round; stroke-linejoin:round; stroke-width:4; stroke-opacity:1; fill:none" points="680.322,1469.17 680.322,1450.27 "/>
<polyline clip-path="url(#clip280)" style="stroke:#000000; stroke-linecap:round; stroke-linejoin:round; stroke-width:4; stroke-opacity:1; fill:none" points="875.439,1469.17 875.439,1450.27 "/>
<polyline clip-path="url(#clip280)" style="stroke:#000000; stroke-linecap:round; stroke-linejoin:round; stroke-width:4; stroke-opacity:1; fill:none" points="1070.56,1469.17 1070.56,1450.27 "/>
<polyline clip-path="url(#clip280)" style="stroke:#000000; stroke-linecap:round; stroke-linejoin:round; stroke-width:4; stroke-opacity:1; fill:none" points="1265.67,1469.17 1265.67,1450.27 "/>
<polyline clip-path="url(#clip280)" style="stroke:#000000; stroke-linecap:round; stroke-linejoin:round; stroke-width:4; stroke-opacity:1; fill:none" points="1460.79,1469.17 1460.79,1450.27 "/>
<polyline clip-path="url(#clip280)" style="stroke:#000000; stroke-linecap:round; stroke-linejoin:round; stroke-width:4; stroke-opacity:1; fill:none" points="1655.91,1469.17 1655.91,1450.27 "/>
<polyline clip-path="url(#clip280)" style="stroke:#000000; stroke-linecap:round; stroke-linejoin:round; stroke-width:4; stroke-opacity:1; fill:none" points="1851.02,1469.17 1851.02,1450.27 "/>
<polyline clip-path="url(#clip280)" style="stroke:#000000; stroke-linecap:round; stroke-linejoin:round; stroke-width:4; stroke-opacity:1; fill:none" points="2046.14,1469.17 2046.14,1450.27 "/>
<path clip-path="url(#clip280)" d="M438.557 1527.92 L483.07 1527.92 L483.07 1533.83 L438.557 1533.83 L438.557 1527.92 Z" fill="#000000" fill-rule="nonzero" fill-opacity="1" /><path clip-path="url(#clip280)" d="M517.48 1507.44 L499.772 1535.11 L517.48 1535.11 L517.48 1507.44 M515.64 1501.33 L524.459 1501.33 L524.459 1535.11 L531.855 1535.11 L531.855 1540.95 L524.459 1540.95 L524.459 1553.17 L517.48 1553.17 L517.48 1540.95 L494.077 1540.95 L494.077 1534.17 L515.64 1501.33 Z" fill="#000000" fill-rule="nonzero" fill-opacity="1" /><path clip-path="url(#clip280)" d="M634.524 1527.92 L679.038 1527.92 L679.038 1533.83 L634.524 1533.83 L634.524 1527.92 Z" fill="#000000" fill-rule="nonzero" fill-opacity="1" /><path clip-path="url(#clip280)" d="M715.426 1525.22 Q720.461 1526.29 723.273 1529.7 Q726.121 1533.1 726.121 1538.1 Q726.121 1545.77 720.843 1549.97 Q715.565 1554.17 705.843 1554.17 Q702.579 1554.17 699.107 1553.52 Q695.669 1552.89 691.989 1551.61 L691.989 1544.83 Q694.906 1546.54 698.378 1547.4 Q701.85 1548.27 705.635 1548.27 Q712.232 1548.27 715.669 1545.67 Q719.142 1543.06 719.142 1538.1 Q719.142 1533.52 715.912 1530.95 Q712.718 1528.34 706.989 1528.34 L700.947 1528.34 L700.947 1522.58 L707.267 1522.58 Q712.44 1522.58 715.183 1520.53 Q717.926 1518.45 717.926 1514.56 Q717.926 1510.56 715.079 1508.45 Q712.267 1506.29 706.989 1506.29 Q704.107 1506.29 700.808 1506.92 Q697.51 1507.54 693.551 1508.86 L693.551 1502.61 Q697.544 1501.5 701.017 1500.95 Q704.524 1500.39 707.614 1500.39 Q715.6 1500.39 720.253 1504.04 Q724.905 1507.65 724.905 1513.83 Q724.905 1518.13 722.44 1521.12 Q719.975 1524.07 715.426 1525.22 Z" fill="#000000" fill-rule="nonzero" fill-opacity="1" /><path clip-path="url(#clip280)" d="M830.352 1527.92 L874.866 1527.92 L874.866 1533.83 L830.352 1533.83 L830.352 1527.92 Z" fill="#000000" fill-rule="nonzero" fill-opacity="1" /><path clip-path="url(#clip280)" d="M896.047 1547.27 L920.526 1547.27 L920.526 1553.17 L887.609 1553.17 L887.609 1547.27 Q891.602 1543.13 898.477 1536.19 Q905.387 1529.21 907.158 1527.2 Q910.526 1523.41 911.845 1520.81 Q913.199 1518.17 913.199 1515.63 Q913.199 1511.5 910.283 1508.9 Q907.401 1506.29 902.748 1506.29 Q899.449 1506.29 895.769 1507.44 Q892.123 1508.58 887.956 1510.91 L887.956 1503.83 Q892.192 1502.13 895.873 1501.26 Q899.553 1500.39 902.609 1500.39 Q910.665 1500.39 915.456 1504.42 Q920.248 1508.45 920.248 1515.18 Q920.248 1518.38 919.033 1521.26 Q917.852 1524.11 914.692 1527.99 Q913.824 1529 909.171 1533.83 Q904.519 1538.62 896.047 1547.27 Z" fill="#000000" fill-rule="nonzero" fill-opacity="1" /><path clip-path="url(#clip280)" d="M1025.19 1527.92 L1069.71 1527.92 L1069.71 1533.83 L1025.19 1533.83 L1025.19 1527.92 Z" fill="#000000" fill-rule="nonzero" fill-opacity="1" /><path clip-path="url(#clip280)" d="M1086.06 1547.27 L1097.52 1547.27 L1097.52 1507.72 L1085.05 1510.22 L1085.05 1503.83 L1097.45 1501.33 L1104.46 1501.33 L1104.46 1547.27 L1115.92 1547.27 L1115.92 1553.17 L1086.06 1553.17 L1086.06 1547.27 Z" fill="#000000" fill-rule="nonzero" fill-opacity="1" /><path clip-path="url(#clip280)" d="M1265.67 1505.95 Q1260.26 1505.95 1257.51 1511.29 Q1254.8 1516.61 1254.8 1527.3 Q1254.8 1537.96 1257.51 1543.31 Q1260.26 1548.62 1265.67 1548.62 Q1271.12 1548.62 1273.83 1543.31 Q1276.58 1537.96 1276.58 1527.3 Q1276.58 1516.61 1273.83 1511.29 Q1271.12 1505.95 1265.67 1505.95 M1265.67 1500.39 Q1274.39 1500.39 1278.97 1507.3 Q1283.59 1514.18 1283.59 1527.3 Q1283.59 1540.39 1278.97 1547.3 Q1274.39 1554.17 1265.67 1554.17 Q1256.96 1554.17 1252.34 1547.3 Q1247.76 1540.39 1247.76 1527.3 Q1247.76 1514.18 1252.34 1507.3 Q1256.96 1500.39 1265.67 1500.39 Z" fill="#000000" fill-rule="nonzero" fill-opacity="1" /><path clip-path="url(#clip280)" d="M1446.36 1547.27 L1457.82 1547.27 L1457.82 1507.72 L1445.36 1510.22 L1445.36 1503.83 L1457.75 1501.33 L1464.76 1501.33 L1464.76 1547.27 L1476.22 1547.27 L1476.22 1553.17 L1446.36 1553.17 L1446.36 1547.27 Z" fill="#000000" fill-rule="nonzero" fill-opacity="1" /><path clip-path="url(#clip280)" d="M1647.88 1547.27 L1672.36 1547.27 L1672.36 1553.17 L1639.45 1553.17 L1639.45 1547.27 Q1643.44 1543.13 1650.32 1536.19 Q1657.23 1529.21 1659 1527.2 Q1662.36 1523.41 1663.68 1520.81 Q1665.04 1518.17 1665.04 1515.63 Q1665.04 1511.5 1662.12 1508.9 Q1659.24 1506.29 1654.59 1506.29 Q1651.29 1506.29 1647.61 1507.44 Q1643.96 1508.58 1639.79 1510.91 L1639.79 1503.83 Q1644.03 1502.13 1647.71 1501.26 Q1651.39 1500.39 1654.45 1500.39 Q1662.5 1500.39 1667.29 1504.42 Q1672.09 1508.45 1672.09 1515.18 Q1672.09 1518.38 1670.87 1521.26 Q1669.69 1524.11 1666.53 1527.99 Q1665.66 1529 1661.01 1533.83 Q1656.36 1538.62 1647.88 1547.27 Z" fill="#000000" fill-rule="nonzero" fill-opacity="1" /><path clip-path="url(#clip280)" d="M1857.39 1525.22 Q1862.43 1526.29 1865.24 1529.7 Q1868.09 1533.1 1868.09 1538.1 Q1868.09 1545.77 1862.81 1549.97 Q1857.53 1554.17 1847.81 1554.17 Q1844.55 1554.17 1841.07 1553.52 Q1837.64 1552.89 1833.96 1551.61 L1833.96 1544.83 Q1836.87 1546.54 1840.35 1547.4 Q1843.82 1548.27 1847.6 1548.27 Q1854.2 1548.27 1857.64 1545.67 Q1861.11 1543.06 1861.11 1538.1 Q1861.11 1533.52 1857.88 1530.95 Q1854.69 1528.34 1848.96 1528.34 L1842.91 1528.34 L1842.91 1522.58 L1849.23 1522.58 Q1854.41 1522.58 1857.15 1520.53 Q1859.89 1518.45 1859.89 1514.56 Q1859.89 1510.56 1857.05 1508.45 Q1854.23 1506.29 1848.96 1506.29 Q1846.07 1506.29 1842.78 1506.92 Q1839.48 1507.54 1835.52 1508.86 L1835.52 1502.61 Q1839.51 1501.5 1842.98 1500.95 Q1846.49 1500.39 1849.58 1500.39 Q1857.57 1500.39 1862.22 1504.04 Q1866.87 1507.65 1866.87 1513.83 Q1866.87 1518.13 1864.41 1521.12 Q1861.94 1524.07 1857.39 1525.22 Z" fill="#000000" fill-rule="nonzero" fill-opacity="1" /><path clip-path="url(#clip280)" d="M2050.65 1507.44 L2032.94 1535.11 L2050.65 1535.11 L2050.65 1507.44 M2048.81 1501.33 L2057.63 1501.33 L2057.63 1535.11 L2065.03 1535.11 L2065.03 1540.95 L2057.63 1540.95 L2057.63 1553.17 L2050.65 1553.17 L2050.65 1540.95 L2027.25 1540.95 L2027.25 1534.17 L2048.81 1501.33 Z" fill="#000000" fill-rule="nonzero" fill-opacity="1" /><polyline clip-path="url(#clip280)" style="stroke:#000000; stroke-linecap:round; stroke-linejoin:round; stroke-width:4; stroke-opacity:1; fill:none" points="178.589,1469.17 178.589,123.472 "/>
<polyline clip-path="url(#clip280)" style="stroke:#000000; stroke-linecap:round; stroke-linejoin:round; stroke-width:4; stroke-opacity:1; fill:none" points="178.589,1409.6 197.486,1409.6 "/>
<polyline clip-path="url(#clip280)" style="stroke:#000000; stroke-linecap:round; stroke-linejoin:round; stroke-width:4; stroke-opacity:1; fill:none" points="178.589,1214.48 197.486,1214.48 "/>
<polyline clip-path="url(#clip280)" style="stroke:#000000; stroke-linecap:round; stroke-linejoin:round; stroke-width:4; stroke-opacity:1; fill:none" points="178.589,1019.36 197.486,1019.36 "/>
<polyline clip-path="url(#clip280)" style="stroke:#000000; stroke-linecap:round; stroke-linejoin:round; stroke-width:4; stroke-opacity:1; fill:none" points="178.589,824.247 197.486,824.247 "/>
<polyline clip-path="url(#clip280)" style="stroke:#000000; stroke-linecap:round; stroke-linejoin:round; stroke-width:4; stroke-opacity:1; fill:none" points="178.589,629.13 197.486,629.13 "/>
<polyline clip-path="url(#clip280)" style="stroke:#000000; stroke-linecap:round; stroke-linejoin:round; stroke-width:4; stroke-opacity:1; fill:none" points="178.589,434.013 197.486,434.013 "/>
<polyline clip-path="url(#clip280)" style="stroke:#000000; stroke-linecap:round; stroke-linejoin:round; stroke-width:4; stroke-opacity:1; fill:none" points="178.589,238.897 197.486,238.897 "/>
<path clip-path="url(#clip280)" d="M50.9921 1410.27 L95.5058 1410.27 L95.5058 1416.18 L50.9921 1416.18 L50.9921 1410.27 Z" fill="#000000" fill-rule="nonzero" fill-opacity="1" /><path clip-path="url(#clip280)" d="M131.894 1407.57 Q136.929 1408.64 139.742 1412.04 Q142.589 1415.45 142.589 1420.45 Q142.589 1428.12 137.311 1432.32 Q132.033 1436.52 122.311 1436.52 Q119.047 1436.52 115.575 1435.86 Q112.138 1435.24 108.457 1433.95 L108.457 1427.18 Q111.374 1428.88 114.846 1429.75 Q118.318 1430.62 122.103 1430.62 Q128.7 1430.62 132.138 1428.02 Q135.61 1425.41 135.61 1420.45 Q135.61 1415.86 132.381 1413.29 Q129.186 1410.69 123.457 1410.69 L117.415 1410.69 L117.415 1404.93 L123.735 1404.93 Q128.908 1404.93 131.651 1402.88 Q134.394 1400.79 134.394 1396.91 Q134.394 1392.91 131.547 1390.79 Q128.735 1388.64 123.457 1388.64 Q120.575 1388.64 117.276 1389.27 Q113.978 1389.89 110.02 1391.21 L110.02 1384.96 Q114.013 1383.85 117.485 1383.29 Q120.992 1382.74 124.082 1382.74 Q132.068 1382.74 136.721 1386.39 Q141.374 1390 141.374 1396.18 Q141.374 1400.48 138.908 1403.47 Q136.443 1406.42 131.894 1407.57 Z" fill="#000000" fill-rule="nonzero" fill-opacity="1" /><path clip-path="url(#clip280)" d="M52.4157 1215.16 L96.9294 1215.16 L96.9294 1221.06 L52.4157 1221.06 L52.4157 1215.16 Z" fill="#000000" fill-rule="nonzero" fill-opacity="1" /><path clip-path="url(#clip280)" d="M118.11 1234.5 L142.589 1234.5 L142.589 1240.4 L109.672 1240.4 L109.672 1234.5 Q113.665 1230.37 120.54 1223.42 Q127.45 1216.44 129.221 1214.43 Q132.589 1210.64 133.908 1208.04 Q135.263 1205.4 135.263 1202.87 Q135.263 1198.73 132.346 1196.13 Q129.464 1193.53 124.811 1193.53 Q121.513 1193.53 117.832 1194.67 Q114.186 1195.82 110.02 1198.14 L110.02 1191.06 Q114.256 1189.36 117.936 1188.49 Q121.617 1187.62 124.672 1187.62 Q132.728 1187.62 137.519 1191.65 Q142.311 1195.68 142.311 1202.41 Q142.311 1205.61 141.096 1208.49 Q139.915 1211.34 136.756 1215.23 Q135.888 1216.23 131.235 1221.06 Q126.582 1225.85 118.11 1234.5 Z" fill="#000000" fill-rule="nonzero" fill-opacity="1" /><path clip-path="url(#clip280)" d="M51.8602 1020.04 L96.3738 1020.04 L96.3738 1025.94 L51.8602 1025.94 L51.8602 1020.04 Z" fill="#000000" fill-rule="nonzero" fill-opacity="1" /><path clip-path="url(#clip280)" d="M112.728 1039.38 L124.186 1039.38 L124.186 999.832 L111.721 1002.33 L111.721 995.943 L124.117 993.443 L131.131 993.443 L131.131 1039.38 L142.589 1039.38 L142.589 1045.28 L112.728 1045.28 L112.728 1039.38 Z" fill="#000000" fill-rule="nonzero" fill-opacity="1" /><path clip-path="url(#clip280)" d="M124.672 802.945 Q119.256 802.945 116.513 808.292 Q113.804 813.604 113.804 824.299 Q113.804 834.958 116.513 840.306 Q119.256 845.618 124.672 845.618 Q130.124 845.618 132.832 840.306 Q135.575 834.958 135.575 824.299 Q135.575 813.604 132.832 808.292 Q130.124 802.945 124.672 802.945 M124.672 797.389 Q133.388 797.389 137.971 804.299 Q142.589 811.174 142.589 824.299 Q142.589 837.389 137.971 844.299 Q133.388 851.174 124.672 851.174 Q115.957 851.174 111.339 844.299 Q106.756 837.389 106.756 824.299 Q106.756 811.174 111.339 804.299 Q115.957 797.389 124.672 797.389 Z" fill="#000000" fill-rule="nonzero" fill-opacity="1" /><path clip-path="url(#clip280)" d="M112.728 649.147 L124.186 649.147 L124.186 609.599 L111.721 612.099 L111.721 605.71 L124.117 603.21 L131.131 603.21 L131.131 649.147 L142.589 649.147 L142.589 655.05 L112.728 655.05 L112.728 649.147 Z" fill="#000000" fill-rule="nonzero" fill-opacity="1" /><path clip-path="url(#clip280)" d="M118.11 454.031 L142.589 454.031 L142.589 459.933 L109.672 459.933 L109.672 454.031 Q113.665 449.899 120.54 442.954 Q127.45 435.975 129.221 433.961 Q132.589 430.177 133.908 427.572 Q135.263 424.934 135.263 422.399 Q135.263 418.267 132.346 415.663 Q129.464 413.059 124.811 413.059 Q121.513 413.059 117.832 414.204 Q114.186 415.35 110.02 417.677 L110.02 410.593 Q114.256 408.892 117.936 408.024 Q121.617 407.156 124.672 407.156 Q132.728 407.156 137.519 411.184 Q142.311 415.211 142.311 421.947 Q142.311 425.142 141.096 428.024 Q139.915 430.871 136.756 434.76 Q135.888 435.767 131.235 440.593 Q126.582 445.385 118.11 454.031 Z" fill="#000000" fill-rule="nonzero" fill-opacity="1" /><path clip-path="url(#clip280)" d="M131.894 236.865 Q136.929 237.942 139.742 241.345 Q142.589 244.747 142.589 249.747 Q142.589 257.421 137.311 261.622 Q132.033 265.824 122.311 265.824 Q119.047 265.824 115.575 265.164 Q112.138 264.539 108.457 263.254 L108.457 256.483 Q111.374 258.185 114.846 259.053 Q118.318 259.921 122.103 259.921 Q128.7 259.921 132.138 257.317 Q135.61 254.713 135.61 249.747 Q135.61 245.164 132.381 242.595 Q129.186 239.99 123.457 239.99 L117.415 239.99 L117.415 234.227 L123.735 234.227 Q128.908 234.227 131.651 232.178 Q134.394 230.095 134.394 226.206 Q134.394 222.213 131.547 220.095 Q128.735 217.942 123.457 217.942 Q120.575 217.942 117.276 218.567 Q113.978 219.192 110.02 220.511 L110.02 214.261 Q114.013 213.15 117.485 212.595 Q120.992 212.039 124.082 212.039 Q132.068 212.039 136.721 215.685 Q141.374 219.296 141.374 225.477 Q141.374 229.782 138.908 232.768 Q136.443 235.72 131.894 236.865 Z" fill="#000000" fill-rule="nonzero" fill-opacity="1" /><path clip-path="url(#clip280)" d="M589.698 12.096 L597.881 12.096 L597.881 65.6895 L627.331 65.6895 L627.331 72.576 L589.698 72.576 L589.698 12.096 Z" fill="#000000" fill-rule="nonzero" fill-opacity="1" /><path clip-path="url(#clip280)" d="M651.717 32.4315 Q645.722 32.4315 642.238 37.1306 Q638.754 41.7891 638.754 49.9314 Q638.754 58.0738 642.198 62.7728 Q645.681 67.4314 651.717 67.4314 Q657.672 67.4314 661.156 62.7323 Q664.64 58.0333 664.64 49.9314 Q664.64 41.8701 661.156 37.1711 Q657.672 32.4315 651.717 32.4315 M651.717 26.1121 Q661.44 26.1121 666.989 32.4315 Q672.539 38.7509 672.539 49.9314 Q672.539 61.0714 666.989 67.4314 Q661.44 73.7508 651.717 73.7508 Q641.955 73.7508 636.405 67.4314 Q630.896 61.0714 630.896 49.9314 Q630.896 38.7509 636.405 32.4315 Q641.955 26.1121 651.717 26.1121 Z" fill="#000000" fill-rule="nonzero" fill-opacity="1" /><path clip-path="url(#clip280)" d="M717.545 28.9478 L717.545 35.9153 Q714.385 34.1734 711.185 33.3227 Q708.025 32.4315 704.784 32.4315 Q697.533 32.4315 693.523 37.0496 Q689.512 41.6271 689.512 49.9314 Q689.512 58.2358 693.523 62.8538 Q697.533 67.4314 704.784 67.4314 Q708.025 67.4314 711.185 66.5807 Q714.385 65.6895 717.545 63.9476 L717.545 70.8341 Q714.425 72.2924 711.063 73.0216 Q707.741 73.7508 703.974 73.7508 Q693.725 73.7508 687.689 67.3098 Q681.654 60.8689 681.654 49.9314 Q681.654 38.832 687.73 32.472 Q693.847 26.1121 704.46 26.1121 Q707.903 26.1121 711.185 26.8413 Q714.466 27.5299 717.545 28.9478 Z" fill="#000000" fill-rule="nonzero" fill-opacity="1" /><path clip-path="url(#clip280)" d="M751.127 49.7694 Q742.093 49.7694 738.609 51.8354 Q735.125 53.9013 735.125 58.8839 Q735.125 62.8538 737.718 65.2034 Q740.351 67.5124 744.848 67.5124 Q751.046 67.5124 754.772 63.1374 Q758.54 58.7219 758.54 51.4303 L758.54 49.7694 L751.127 49.7694 M765.993 46.6907 L765.993 72.576 L758.54 72.576 L758.54 65.6895 Q755.988 69.8214 752.18 71.8063 Q748.372 73.7508 742.863 73.7508 Q735.895 73.7508 731.763 69.8619 Q727.672 65.9325 727.672 59.3701 Q727.672 51.7138 732.776 47.825 Q737.921 43.9361 748.088 43.9361 L758.54 43.9361 L758.54 43.2069 Q758.54 38.0623 755.137 35.2672 Q751.775 32.4315 745.658 32.4315 Q741.769 32.4315 738.083 33.3632 Q734.396 34.295 730.994 36.1584 L730.994 29.2718 Q735.085 27.692 738.933 26.9223 Q742.782 26.1121 746.427 26.1121 Q756.271 26.1121 761.132 31.2163 Q765.993 36.3204 765.993 46.6907 Z" fill="#000000" fill-rule="nonzero" fill-opacity="1" /><path clip-path="url(#clip280)" d="M788.719 14.324 L788.719 27.2059 L804.072 27.2059 L804.072 32.9987 L788.719 32.9987 L788.719 57.6282 Q788.719 63.1779 790.218 64.7578 Q791.757 66.3376 796.416 66.3376 L804.072 66.3376 L804.072 72.576 L796.416 72.576 Q787.787 72.576 784.506 69.3758 Q781.225 66.1351 781.225 57.6282 L781.225 32.9987 L775.756 32.9987 L775.756 27.2059 L781.225 27.2059 L781.225 14.324 L788.719 14.324 Z" fill="#000000" fill-rule="nonzero" fill-opacity="1" /><path clip-path="url(#clip280)" d="M813.875 27.2059 L821.329 27.2059 L821.329 72.576 L813.875 72.576 L813.875 27.2059 M813.875 9.54393 L821.329 9.54393 L821.329 18.9825 L813.875 18.9825 L813.875 9.54393 Z" fill="#000000" fill-rule="nonzero" fill-opacity="1" /><path clip-path="url(#clip280)" d="M854.506 32.4315 Q848.51 32.4315 845.026 37.1306 Q841.543 41.7891 841.543 49.9314 Q841.543 58.0738 844.986 62.7728 Q848.47 67.4314 854.506 67.4314 Q860.46 67.4314 863.944 62.7323 Q867.428 58.0333 867.428 49.9314 Q867.428 41.8701 863.944 37.1711 Q860.46 32.4315 854.506 32.4315 M854.506 26.1121 Q864.228 26.1121 869.778 32.4315 Q875.327 38.7509 875.327 49.9314 Q875.327 61.0714 869.778 67.4314 Q864.228 73.7508 854.506 73.7508 Q844.743 73.7508 839.193 67.4314 Q833.684 61.0714 833.684 49.9314 Q833.684 38.7509 839.193 32.4315 Q844.743 26.1121 854.506 26.1121 Z" fill="#000000" fill-rule="nonzero" fill-opacity="1" /><path clip-path="url(#clip280)" d="M925.396 45.1919 L925.396 72.576 L917.943 72.576 L917.943 45.4349 Q917.943 38.994 915.431 35.7938 Q912.92 32.5936 907.897 32.5936 Q901.861 32.5936 898.377 36.4419 Q894.893 40.2903 894.893 46.9338 L894.893 72.576 L887.399 72.576 L887.399 27.2059 L894.893 27.2059 L894.893 34.2544 Q897.567 30.163 901.172 28.1376 Q904.818 26.1121 909.557 26.1121 Q917.376 26.1121 921.386 30.9732 Q925.396 35.7938 925.396 45.1919 Z" fill="#000000" fill-rule="nonzero" fill-opacity="1" /><path clip-path="url(#clip280)" d="M1005.44 48.0275 L1005.44 51.6733 L971.172 51.6733 Q971.658 59.3701 975.79 63.421 Q979.962 67.4314 987.375 67.4314 Q991.669 67.4314 995.68 66.3781 Q999.731 65.3249 1003.7 63.2184 L1003.7 70.267 Q999.69 71.9684 995.477 72.8596 Q991.264 73.7508 986.93 73.7508 Q976.073 73.7508 969.713 67.4314 Q963.394 61.1119 963.394 50.3365 Q963.394 39.1965 969.389 32.6746 Q975.425 26.1121 985.633 26.1121 Q994.788 26.1121 1000.1 32.0264 Q1005.44 37.9003 1005.44 48.0275 M997.989 45.84 Q997.908 39.7232 994.545 36.0774 Q991.224 32.4315 985.714 32.4315 Q979.476 32.4315 975.709 35.9558 Q971.982 39.4801 971.415 45.8805 L997.989 45.84 Z" fill="#000000" fill-rule="nonzero" fill-opacity="1" /><path clip-path="url(#clip280)" d="M1046.6 28.5427 L1046.6 35.5912 Q1043.44 33.9709 1040.04 33.1607 Q1036.63 32.3505 1032.99 32.3505 Q1027.44 32.3505 1024.64 34.0519 Q1021.89 35.7533 1021.89 39.156 Q1021.89 41.7486 1023.87 43.2475 Q1025.86 44.7058 1031.85 46.0426 L1034.41 46.6097 Q1042.35 48.3111 1045.67 51.4303 Q1049.03 54.509 1049.03 60.0587 Q1049.03 66.3781 1044.01 70.0644 Q1039.02 73.7508 1030.27 73.7508 Q1026.63 73.7508 1022.66 73.0216 Q1018.73 72.3329 1014.35 70.9151 L1014.35 63.2184 Q1018.49 65.3654 1022.5 66.4591 Q1026.51 67.5124 1030.44 67.5124 Q1035.7 67.5124 1038.54 65.73 Q1041.37 63.9071 1041.37 60.6258 Q1041.37 57.5877 1039.31 55.9673 Q1037.28 54.3469 1030.36 52.8481 L1027.76 52.2405 Q1020.84 50.7821 1017.76 47.7845 Q1014.68 44.7463 1014.68 39.4801 Q1014.68 33.0797 1019.22 29.5959 Q1023.75 26.1121 1032.1 26.1121 Q1036.23 26.1121 1039.87 26.7198 Q1043.52 27.3274 1046.6 28.5427 Z" fill="#000000" fill-rule="nonzero" fill-opacity="1" /><path clip-path="url(#clip280)" d="M1068.27 14.324 L1068.27 27.2059 L1083.62 27.2059 L1083.62 32.9987 L1068.27 32.9987 L1068.27 57.6282 Q1068.27 63.1779 1069.77 64.7578 Q1071.31 66.3376 1075.97 66.3376 L1083.62 66.3376 L1083.62 72.576 L1075.97 72.576 Q1067.34 72.576 1064.06 69.3758 Q1060.78 66.1351 1060.78 57.6282 L1060.78 32.9987 L1055.31 32.9987 L1055.31 27.2059 L1060.78 27.2059 L1060.78 14.324 L1068.27 14.324 Z" fill="#000000" fill-rule="nonzero" fill-opacity="1" /><path clip-path="url(#clip280)" d="M1093.43 27.2059 L1100.88 27.2059 L1100.88 72.576 L1093.43 72.576 L1093.43 27.2059 M1093.43 9.54393 L1100.88 9.54393 L1100.88 18.9825 L1093.43 18.9825 L1093.43 9.54393 Z" fill="#000000" fill-rule="nonzero" fill-opacity="1" /><path clip-path="url(#clip280)" d="M1151.8 35.9153 Q1154.6 30.8922 1158.49 28.5022 Q1162.37 26.1121 1167.64 26.1121 Q1174.73 26.1121 1178.58 31.0947 Q1182.43 36.0368 1182.43 45.1919 L1182.43 72.576 L1174.93 72.576 L1174.93 45.4349 Q1174.93 38.913 1172.62 35.7533 Q1170.31 32.5936 1165.57 32.5936 Q1159.78 32.5936 1156.42 36.4419 Q1153.06 40.2903 1153.06 46.9338 L1153.06 72.576 L1145.56 72.576 L1145.56 45.4349 Q1145.56 38.8725 1143.25 35.7533 Q1140.95 32.5936 1136.12 32.5936 Q1130.41 32.5936 1127.05 36.4824 Q1123.69 40.3308 1123.69 46.9338 L1123.69 72.576 L1116.19 72.576 L1116.19 27.2059 L1123.69 27.2059 L1123.69 34.2544 Q1126.24 30.082 1129.81 28.0971 Q1133.37 26.1121 1138.27 26.1121 Q1143.21 26.1121 1146.66 28.6237 Q1150.14 31.1352 1151.8 35.9153 Z" fill="#000000" fill-rule="nonzero" fill-opacity="1" /><path clip-path="url(#clip280)" d="M1217.91 49.7694 Q1208.88 49.7694 1205.39 51.8354 Q1201.91 53.9013 1201.91 58.8839 Q1201.91 62.8538 1204.5 65.2034 Q1207.14 67.5124 1211.63 67.5124 Q1217.83 67.5124 1221.56 63.1374 Q1225.33 58.7219 1225.33 51.4303 L1225.33 49.7694 L1217.91 49.7694 M1232.78 46.6907 L1232.78 72.576 L1225.33 72.576 L1225.33 65.6895 Q1222.77 69.8214 1218.97 71.8063 Q1215.16 73.7508 1209.65 73.7508 Q1202.68 73.7508 1198.55 69.8619 Q1194.46 65.9325 1194.46 59.3701 Q1194.46 51.7138 1199.56 47.825 Q1204.71 43.9361 1214.87 43.9361 L1225.33 43.9361 L1225.33 43.2069 Q1225.33 38.0623 1221.92 35.2672 Q1218.56 32.4315 1212.44 32.4315 Q1208.55 32.4315 1204.87 33.3632 Q1201.18 34.295 1197.78 36.1584 L1197.78 29.2718 Q1201.87 27.692 1205.72 26.9223 Q1209.57 26.1121 1213.21 26.1121 Q1223.06 26.1121 1227.92 31.2163 Q1232.78 36.3204 1232.78 46.6907 Z" fill="#000000" fill-rule="nonzero" fill-opacity="1" /><path clip-path="url(#clip280)" d="M1255.5 14.324 L1255.5 27.2059 L1270.86 27.2059 L1270.86 32.9987 L1255.5 32.9987 L1255.5 57.6282 Q1255.5 63.1779 1257 64.7578 Q1258.54 66.3376 1263.2 66.3376 L1270.86 66.3376 L1270.86 72.576 L1263.2 72.576 Q1254.57 72.576 1251.29 69.3758 Q1248.01 66.1351 1248.01 57.6282 L1248.01 32.9987 L1242.54 32.9987 L1242.54 27.2059 L1248.01 27.2059 L1248.01 14.324 L1255.5 14.324 Z" fill="#000000" fill-rule="nonzero" fill-opacity="1" /><path clip-path="url(#clip280)" d="M1319.47 48.0275 L1319.47 51.6733 L1285.2 51.6733 Q1285.68 59.3701 1289.82 63.421 Q1293.99 67.4314 1301.4 67.4314 Q1305.7 67.4314 1309.71 66.3781 Q1313.76 65.3249 1317.73 63.2184 L1317.73 70.267 Q1313.72 71.9684 1309.5 72.8596 Q1305.29 73.7508 1300.96 73.7508 Q1290.1 73.7508 1283.74 67.4314 Q1277.42 61.1119 1277.42 50.3365 Q1277.42 39.1965 1283.42 32.6746 Q1289.45 26.1121 1299.66 26.1121 Q1308.81 26.1121 1314.12 32.0264 Q1319.47 37.9003 1319.47 48.0275 M1312.01 45.84 Q1311.93 39.7232 1308.57 36.0774 Q1305.25 32.4315 1299.74 32.4315 Q1293.5 32.4315 1289.73 35.9558 Q1286.01 39.4801 1285.44 45.8805 L1312.01 45.84 Z" fill="#000000" fill-rule="nonzero" fill-opacity="1" /><path clip-path="url(#clip280)" d="M1360.63 28.5427 L1360.63 35.5912 Q1357.47 33.9709 1354.06 33.1607 Q1350.66 32.3505 1347.01 32.3505 Q1341.46 32.3505 1338.67 34.0519 Q1335.92 35.7533 1335.92 39.156 Q1335.92 41.7486 1337.9 43.2475 Q1339.88 44.7058 1345.88 46.0426 L1348.43 46.6097 Q1356.37 48.3111 1359.69 51.4303 Q1363.06 54.509 1363.06 60.0587 Q1363.06 66.3781 1358.03 70.0644 Q1353.05 73.7508 1344.3 73.7508 Q1340.65 73.7508 1336.68 73.0216 Q1332.76 72.3329 1328.38 70.9151 L1328.38 63.2184 Q1332.51 65.3654 1336.52 66.4591 Q1340.53 67.5124 1344.46 67.5124 Q1349.73 67.5124 1352.56 65.73 Q1355.4 63.9071 1355.4 60.6258 Q1355.4 57.5877 1353.33 55.9673 Q1351.31 54.3469 1344.38 52.8481 L1341.79 52.2405 Q1334.86 50.7821 1331.78 47.7845 Q1328.7 44.7463 1328.7 39.4801 Q1328.7 33.0797 1333.24 29.5959 Q1337.78 26.1121 1346.12 26.1121 Q1350.26 26.1121 1353.9 26.7198 Q1357.55 27.3274 1360.63 28.5427 Z" fill="#000000" fill-rule="nonzero" fill-opacity="1" /><path clip-path="url(#clip280)" d="M1419.2 9.62495 Q1413.77 18.942 1411.14 28.0566 Q1408.51 37.1711 1408.51 46.5287 Q1408.51 55.8863 1411.14 65.0818 Q1413.81 74.2369 1419.2 83.5134 L1412.72 83.5134 Q1406.64 73.9938 1403.61 64.7983 Q1400.61 55.6027 1400.61 46.5287 Q1400.61 37.4952 1403.61 28.3401 Q1406.6 19.1851 1412.72 9.62495 L1419.2 9.62495 Z" fill="#000000" fill-rule="nonzero" fill-opacity="1" /><path clip-path="url(#clip280)" d="M1466.23 49.9314 Q1466.23 41.7081 1462.83 37.0496 Q1459.47 32.3505 1453.55 32.3505 Q1447.64 32.3505 1444.24 37.0496 Q1440.87 41.7081 1440.87 49.9314 Q1440.87 58.1548 1444.24 62.8538 Q1447.64 67.5124 1453.55 67.5124 Q1459.47 67.5124 1462.83 62.8538 Q1466.23 58.1548 1466.23 49.9314 M1440.87 34.0924 Q1443.22 30.0415 1446.79 28.0971 Q1450.39 26.1121 1455.38 26.1121 Q1463.64 26.1121 1468.78 32.6746 Q1473.97 39.2371 1473.97 49.9314 Q1473.97 60.6258 1468.78 67.1883 Q1463.64 73.7508 1455.38 73.7508 Q1450.39 73.7508 1446.79 71.8063 Q1443.22 69.8214 1440.87 65.7705 L1440.87 72.576 L1433.38 72.576 L1433.38 9.54393 L1440.87 9.54393 L1440.87 34.0924 Z" fill="#000000" fill-rule="nonzero" fill-opacity="1" /><path clip-path="url(#clip280)" d="M1486.33 27.2059 L1493.78 27.2059 L1493.78 72.576 L1486.33 72.576 L1486.33 27.2059 M1486.33 9.54393 L1493.78 9.54393 L1493.78 18.9825 L1486.33 18.9825 L1486.33 9.54393 Z" fill="#000000" fill-rule="nonzero" fill-opacity="1" /><path clip-path="url(#clip280)" d="M1529.99 49.7694 Q1520.96 49.7694 1517.48 51.8354 Q1513.99 53.9013 1513.99 58.8839 Q1513.99 62.8538 1516.59 65.2034 Q1519.22 67.5124 1523.71 67.5124 Q1529.91 67.5124 1533.64 63.1374 Q1537.41 58.7219 1537.41 51.4303 L1537.41 49.7694 L1529.99 49.7694 M1544.86 46.6907 L1544.86 72.576 L1537.41 72.576 L1537.41 65.6895 Q1534.85 69.8214 1531.05 71.8063 Q1527.24 73.7508 1521.73 73.7508 Q1514.76 73.7508 1510.63 69.8619 Q1506.54 65.9325 1506.54 59.3701 Q1506.54 51.7138 1511.64 47.825 Q1516.79 43.9361 1526.96 43.9361 L1537.41 43.9361 L1537.41 43.2069 Q1537.41 38.0623 1534 35.2672 Q1530.64 32.4315 1524.53 32.4315 Q1520.64 32.4315 1516.95 33.3632 Q1513.26 34.295 1509.86 36.1584 L1509.86 29.2718 Q1513.95 27.692 1517.8 26.9223 Q1521.65 26.1121 1525.29 26.1121 Q1535.14 26.1121 1540 31.2163 Q1544.86 36.3204 1544.86 46.6907 Z" fill="#000000" fill-rule="nonzero" fill-opacity="1" /><path clip-path="url(#clip280)" d="M1589.14 28.5427 L1589.14 35.5912 Q1585.98 33.9709 1582.57 33.1607 Q1579.17 32.3505 1575.53 32.3505 Q1569.98 32.3505 1567.18 34.0519 Q1564.43 35.7533 1564.43 39.156 Q1564.43 41.7486 1566.41 43.2475 Q1568.4 44.7058 1574.39 46.0426 L1576.94 46.6097 Q1584.88 48.3111 1588.21 51.4303 Q1591.57 54.509 1591.57 60.0587 Q1591.57 66.3781 1586.54 70.0644 Q1581.56 73.7508 1572.81 73.7508 Q1569.17 73.7508 1565.2 73.0216 Q1561.27 72.3329 1556.89 70.9151 L1556.89 63.2184 Q1561.02 65.3654 1565.03 66.4591 Q1569.04 67.5124 1572.97 67.5124 Q1578.24 67.5124 1581.08 65.73 Q1583.91 63.9071 1583.91 60.6258 Q1583.91 57.5877 1581.85 55.9673 Q1579.82 54.3469 1572.89 52.8481 L1570.3 52.2405 Q1563.37 50.7821 1560.29 47.7845 Q1557.22 44.7463 1557.22 39.4801 Q1557.22 33.0797 1561.75 29.5959 Q1566.29 26.1121 1574.63 26.1121 Q1578.77 26.1121 1582.41 26.7198 Q1586.06 27.3274 1589.14 28.5427 Z" fill="#000000" fill-rule="nonzero" fill-opacity="1" /><path clip-path="url(#clip280)" d="M1642.24 48.0275 L1642.24 51.6733 L1607.97 51.6733 Q1608.46 59.3701 1612.59 63.421 Q1616.76 67.4314 1624.18 67.4314 Q1628.47 67.4314 1632.48 66.3781 Q1636.53 65.3249 1640.5 63.2184 L1640.5 70.267 Q1636.49 71.9684 1632.28 72.8596 Q1628.07 73.7508 1623.73 73.7508 Q1612.88 73.7508 1606.52 67.4314 Q1600.2 61.1119 1600.2 50.3365 Q1600.2 39.1965 1606.19 32.6746 Q1612.23 26.1121 1622.44 26.1121 Q1631.59 26.1121 1636.9 32.0264 Q1642.24 37.9003 1642.24 48.0275 M1634.79 45.84 Q1634.71 39.7232 1631.35 36.0774 Q1628.03 32.4315 1622.52 32.4315 Q1616.28 32.4315 1612.51 35.9558 Q1608.78 39.4801 1608.22 45.8805 L1634.79 45.84 Z" fill="#000000" fill-rule="nonzero" fill-opacity="1" /><path clip-path="url(#clip280)" d="M1684.33 34.0924 L1684.33 9.54393 L1691.79 9.54393 L1691.79 72.576 L1684.33 72.576 L1684.33 65.7705 Q1681.98 69.8214 1678.38 71.8063 Q1674.81 73.7508 1669.79 73.7508 Q1661.57 73.7508 1656.38 67.1883 Q1651.24 60.6258 1651.24 49.9314 Q1651.24 39.2371 1656.38 32.6746 Q1661.57 26.1121 1669.79 26.1121 Q1674.81 26.1121 1678.38 28.0971 Q1681.98 30.0415 1684.33 34.0924 M1658.93 49.9314 Q1658.93 58.1548 1662.3 62.8538 Q1665.7 67.5124 1671.61 67.5124 Q1677.53 67.5124 1680.93 62.8538 Q1684.33 58.1548 1684.33 49.9314 Q1684.33 41.7081 1680.93 37.0496 Q1677.53 32.3505 1671.61 32.3505 Q1665.7 32.3505 1662.3 37.0496 Q1658.93 41.7081 1658.93 49.9314 Z" fill="#000000" fill-rule="nonzero" fill-opacity="1" /><path clip-path="url(#clip280)" d="M1766.16 28.9478 L1766.16 35.9153 Q1763 34.1734 1759.8 33.3227 Q1756.64 32.4315 1753.4 32.4315 Q1746.15 32.4315 1742.14 37.0496 Q1738.13 41.6271 1738.13 49.9314 Q1738.13 58.2358 1742.14 62.8538 Q1746.15 67.4314 1753.4 67.4314 Q1756.64 67.4314 1759.8 66.5807 Q1763 65.6895 1766.16 63.9476 L1766.16 70.8341 Q1763.04 72.2924 1759.68 73.0216 Q1756.36 73.7508 1752.59 73.7508 Q1742.34 73.7508 1736.31 67.3098 Q1730.27 60.8689 1730.27 49.9314 Q1730.27 38.832 1736.35 32.472 Q1742.46 26.1121 1753.08 26.1121 Q1756.52 26.1121 1759.8 26.8413 Q1763.08 27.5299 1766.16 28.9478 Z" fill="#000000" fill-rule="nonzero" fill-opacity="1" /><path clip-path="url(#clip280)" d="M1799.74 49.7694 Q1790.71 49.7694 1787.23 51.8354 Q1783.74 53.9013 1783.74 58.8839 Q1783.74 62.8538 1786.34 65.2034 Q1788.97 67.5124 1793.46 67.5124 Q1799.66 67.5124 1803.39 63.1374 Q1807.16 58.7219 1807.16 51.4303 L1807.16 49.7694 L1799.74 49.7694 M1814.61 46.6907 L1814.61 72.576 L1807.16 72.576 L1807.16 65.6895 Q1804.6 69.8214 1800.8 71.8063 Q1796.99 73.7508 1791.48 73.7508 Q1784.51 73.7508 1780.38 69.8619 Q1776.29 65.9325 1776.29 59.3701 Q1776.29 51.7138 1781.39 47.825 Q1786.54 43.9361 1796.71 43.9361 L1807.16 43.9361 L1807.16 43.2069 Q1807.16 38.0623 1803.75 35.2672 Q1800.39 32.4315 1794.27 32.4315 Q1790.39 32.4315 1786.7 33.3632 Q1783.01 34.295 1779.61 36.1584 L1779.61 29.2718 Q1783.7 27.692 1787.55 26.9223 Q1791.4 26.1121 1795.04 26.1121 Q1804.89 26.1121 1809.75 31.2163 Q1814.61 36.3204 1814.61 46.6907 Z" fill="#000000" fill-rule="nonzero" fill-opacity="1" /><path clip-path="url(#clip280)" d="M1858.89 28.5427 L1858.89 35.5912 Q1855.73 33.9709 1852.32 33.1607 Q1848.92 32.3505 1845.28 32.3505 Q1839.73 32.3505 1836.93 34.0519 Q1834.18 35.7533 1834.18 39.156 Q1834.18 41.7486 1836.16 43.2475 Q1838.15 44.7058 1844.14 46.0426 L1846.69 46.6097 Q1854.63 48.3111 1857.96 51.4303 Q1861.32 54.509 1861.32 60.0587 Q1861.32 66.3781 1856.29 70.0644 Q1851.31 73.7508 1842.56 73.7508 Q1838.92 73.7508 1834.95 73.0216 Q1831.02 72.3329 1826.64 70.9151 L1826.64 63.2184 Q1830.77 65.3654 1834.78 66.4591 Q1838.79 67.5124 1842.72 67.5124 Q1847.99 67.5124 1850.83 65.73 Q1853.66 63.9071 1853.66 60.6258 Q1853.66 57.5877 1851.6 55.9673 Q1849.57 54.3469 1842.64 52.8481 L1840.05 52.2405 Q1833.12 50.7821 1830.04 47.7845 Q1826.97 44.7463 1826.97 39.4801 Q1826.97 33.0797 1831.5 29.5959 Q1836.04 26.1121 1844.38 26.1121 Q1848.52 26.1121 1852.16 26.7198 Q1855.81 27.3274 1858.89 28.5427 Z" fill="#000000" fill-rule="nonzero" fill-opacity="1" /><path clip-path="url(#clip280)" d="M1911.99 48.0275 L1911.99 51.6733 L1877.72 51.6733 Q1878.21 59.3701 1882.34 63.421 Q1886.51 67.4314 1893.93 67.4314 Q1898.22 67.4314 1902.23 66.3781 Q1906.28 65.3249 1910.25 63.2184 L1910.25 70.267 Q1906.24 71.9684 1902.03 72.8596 Q1897.82 73.7508 1893.48 73.7508 Q1882.63 73.7508 1876.27 67.4314 Q1869.95 61.1119 1869.95 50.3365 Q1869.95 39.1965 1875.94 32.6746 Q1881.98 26.1121 1892.19 26.1121 Q1901.34 26.1121 1906.65 32.0264 Q1911.99 37.9003 1911.99 48.0275 M1904.54 45.84 Q1904.46 39.7232 1901.1 36.0774 Q1897.78 32.4315 1892.27 32.4315 Q1886.03 32.4315 1882.26 35.9558 Q1878.53 39.4801 1877.97 45.8805 L1904.54 45.84 Z" fill="#000000" fill-rule="nonzero" fill-opacity="1" /><path clip-path="url(#clip280)" d="M1923.05 9.62495 L1929.53 9.62495 Q1935.61 19.1851 1938.61 28.3401 Q1941.65 37.4952 1941.65 46.5287 Q1941.65 55.6027 1938.61 64.7983 Q1935.61 73.9938 1929.53 83.5134 L1923.05 83.5134 Q1928.44 74.2369 1931.07 65.0818 Q1933.75 55.8863 1933.75 46.5287 Q1933.75 37.1711 1931.07 28.0566 Q1928.44 18.942 1923.05 9.62495 Z" fill="#000000" fill-rule="nonzero" fill-opacity="1" /><circle clip-path="url(#clip281)" cx="1125.79" cy="666.105" r="14.4" fill="#009af9" fill-rule="evenodd" fill-opacity="1" stroke="none"/>
<circle clip-path="url(#clip281)" cx="1055.16" cy="804.466" r="14.4" fill="#009af9" fill-rule="evenodd" fill-opacity="1" stroke="none"/>
<circle clip-path="url(#clip281)" cx="986.323" cy="943.449" r="14.4" fill="#009af9" fill-rule="evenodd" fill-opacity="1" stroke="none"/>
<circle clip-path="url(#clip281)" cx="921.169" cy="1078.55" r="14.4" fill="#009af9" fill-rule="evenodd" fill-opacity="1" stroke="none"/>
<circle clip-path="url(#clip281)" cx="861.548" cy="1205.11" r="14.4" fill="#009af9" fill-rule="evenodd" fill-opacity="1" stroke="none"/>
<circle clip-path="url(#clip281)" cx="856.257" cy="1077.2" r="14.4" fill="#009af9" fill-rule="evenodd" fill-opacity="1" stroke="none"/>
<circle clip-path="url(#clip281)" cx="853.998" cy="941.178" r="14.4" fill="#009af9" fill-rule="evenodd" fill-opacity="1" stroke="none"/>
<circle clip-path="url(#clip281)" cx="854.061" cy="801.163" r="14.4" fill="#009af9" fill-rule="evenodd" fill-opacity="1" stroke="none"/>
<circle clip-path="url(#clip281)" cx="855.932" cy="661.169" r="14.4" fill="#009af9" fill-rule="evenodd" fill-opacity="1" stroke="none"/>
<circle clip-path="url(#clip281)" cx="859.448" cy="524.684" r="14.4" fill="#009af9" fill-rule="evenodd" fill-opacity="1" stroke="none"/>
<circle clip-path="url(#clip281)" cx="864.697" cy="394.57" r="14.4" fill="#009af9" fill-rule="evenodd" fill-opacity="1" stroke="none"/>
<circle clip-path="url(#clip281)" cx="871.804" cy="273.092" r="14.4" fill="#009af9" fill-rule="evenodd" fill-opacity="1" stroke="none"/>
<circle clip-path="url(#clip281)" cx="880.977" cy="162.372" r="14.4" fill="#009af9" fill-rule="evenodd" fill-opacity="1" stroke="none"/>
<circle clip-path="url(#clip281)" cx="760.026" cy="161.558" r="14.4" fill="#009af9" fill-rule="evenodd" fill-opacity="1" stroke="none"/>
<circle clip-path="url(#clip281)" cx="645.282" cy="164.97" r="14.4" fill="#009af9" fill-rule="evenodd" fill-opacity="1" stroke="none"/>
<circle clip-path="url(#clip281)" cx="537.612" cy="172.529" r="14.4" fill="#009af9" fill-rule="evenodd" fill-opacity="1" stroke="none"/>
<circle clip-path="url(#clip281)" cx="437.928" cy="184.784" r="14.4" fill="#009af9" fill-rule="evenodd" fill-opacity="1" stroke="none"/>
<circle clip-path="url(#clip281)" cx="424.924" cy="291.72" r="14.4" fill="#009af9" fill-rule="evenodd" fill-opacity="1" stroke="none"/>
<circle clip-path="url(#clip281)" cx="416.449" cy="408.363" r="14.4" fill="#009af9" fill-rule="evenodd" fill-opacity="1" stroke="none"/>
<circle clip-path="url(#clip281)" cx="515.359" cy="399.25" r="14.4" fill="#009af9" fill-rule="evenodd" fill-opacity="1" stroke="none"/>
<circle clip-path="url(#clip281)" cx="623.515" cy="394.358" r="14.4" fill="#009af9" fill-rule="evenodd" fill-opacity="1" stroke="none"/>
<circle clip-path="url(#clip281)" cx="617.584" cy="523.022" r="14.4" fill="#009af9" fill-rule="evenodd" fill-opacity="1" stroke="none"/>
<circle clip-path="url(#clip281)" cx="614.35" cy="657.843" r="14.4" fill="#009af9" fill-rule="evenodd" fill-opacity="1" stroke="none"/>
<circle clip-path="url(#clip281)" cx="612.976" cy="795.42" r="14.4" fill="#009af9" fill-rule="evenodd" fill-opacity="1" stroke="none"/>
<circle clip-path="url(#clip281)" cx="613.372" cy="932.707" r="14.4" fill="#009af9" fill-rule="evenodd" fill-opacity="1" stroke="none"/>
<circle clip-path="url(#clip281)" cx="615.903" cy="1066.64" r="14.4" fill="#009af9" fill-rule="evenodd" fill-opacity="1" stroke="none"/>
<circle clip-path="url(#clip281)" cx="621.533" cy="1193.93" r="14.4" fill="#009af9" fill-rule="evenodd" fill-opacity="1" stroke="none"/>
<circle clip-path="url(#clip281)" cx="513.773" cy="1184.92" r="14.4" fill="#009af9" fill-rule="evenodd" fill-opacity="1" stroke="none"/>
<circle clip-path="url(#clip281)" cx="415.169" cy="1172.89" r="14.4" fill="#009af9" fill-rule="evenodd" fill-opacity="1" stroke="none"/>
<circle clip-path="url(#clip281)" cx="423.488" cy="1288.81" r="14.4" fill="#009af9" fill-rule="evenodd" fill-opacity="1" stroke="none"/>
<circle clip-path="url(#clip281)" cx="436.452" cy="1395.42" r="14.4" fill="#009af9" fill-rule="evenodd" fill-opacity="1" stroke="none"/>
<circle clip-path="url(#clip281)" cx="535.944" cy="1409.94" r="14.4" fill="#009af9" fill-rule="evenodd" fill-opacity="1" stroke="none"/>
<circle clip-path="url(#clip281)" cx="643.444" cy="1420.6" r="14.4" fill="#009af9" fill-rule="evenodd" fill-opacity="1" stroke="none"/>
<circle clip-path="url(#clip281)" cx="758.078" cy="1427.71" r="14.4" fill="#009af9" fill-rule="evenodd" fill-opacity="1" stroke="none"/>
<circle clip-path="url(#clip281)" cx="878.973" cy="1431.08" r="14.4" fill="#009af9" fill-rule="evenodd" fill-opacity="1" stroke="none"/>
<circle clip-path="url(#clip281)" cx="932.866" cy="1323.94" r="14.4" fill="#009af9" fill-rule="evenodd" fill-opacity="1" stroke="none"/>
<circle clip-path="url(#clip281)" cx="991.993" cy="1206.23" r="14.4" fill="#009af9" fill-rule="evenodd" fill-opacity="1" stroke="none"/>
<circle clip-path="url(#clip281)" cx="1056.24" cy="1078.76" r="14.4" fill="#009af9" fill-rule="evenodd" fill-opacity="1" stroke="none"/>
<circle clip-path="url(#clip281)" cx="1124.55" cy="943.999" r="14.4" fill="#009af9" fill-rule="evenodd" fill-opacity="1" stroke="none"/>
<circle clip-path="url(#clip281)" cx="1265.67" cy="943.953" r="14.4" fill="#009af9" fill-rule="evenodd" fill-opacity="1" stroke="none"/>
<circle clip-path="url(#clip281)" cx="1406.8" cy="943.999" r="14.4" fill="#009af9" fill-rule="evenodd" fill-opacity="1" stroke="none"/>
<circle clip-path="url(#clip281)" cx="1475.1" cy="1078.76" r="14.4" fill="#009af9" fill-rule="evenodd" fill-opacity="1" stroke="none"/>
<circle clip-path="url(#clip281)" cx="1539.35" cy="1206.23" r="14.4" fill="#009af9" fill-rule="evenodd" fill-opacity="1" stroke="none"/>
<circle clip-path="url(#clip281)" cx="1598.48" cy="1323.94" r="14.4" fill="#009af9" fill-rule="evenodd" fill-opacity="1" stroke="none"/>
<circle clip-path="url(#clip281)" cx="1652.37" cy="1431.08" r="14.4" fill="#009af9" fill-rule="evenodd" fill-opacity="1" stroke="none"/>
<circle clip-path="url(#clip281)" cx="1773.27" cy="1427.71" r="14.4" fill="#009af9" fill-rule="evenodd" fill-opacity="1" stroke="none"/>
<circle clip-path="url(#clip281)" cx="1887.9" cy="1420.6" r="14.4" fill="#009af9" fill-rule="evenodd" fill-opacity="1" stroke="none"/>
<circle clip-path="url(#clip281)" cx="1995.4" cy="1409.94" r="14.4" fill="#009af9" fill-rule="evenodd" fill-opacity="1" stroke="none"/>
<circle clip-path="url(#clip281)" cx="2094.89" cy="1395.42" r="14.4" fill="#009af9" fill-rule="evenodd" fill-opacity="1" stroke="none"/>
<circle clip-path="url(#clip281)" cx="2107.86" cy="1288.81" r="14.4" fill="#009af9" fill-rule="evenodd" fill-opacity="1" stroke="none"/>
<circle clip-path="url(#clip281)" cx="2116.18" cy="1172.89" r="14.4" fill="#009af9" fill-rule="evenodd" fill-opacity="1" stroke="none"/>
<circle clip-path="url(#clip281)" cx="2017.57" cy="1184.92" r="14.4" fill="#009af9" fill-rule="evenodd" fill-opacity="1" stroke="none"/>
<circle clip-path="url(#clip281)" cx="1909.81" cy="1193.93" r="14.4" fill="#009af9" fill-rule="evenodd" fill-opacity="1" stroke="none"/>
<circle clip-path="url(#clip281)" cx="1915.44" cy="1066.64" r="14.4" fill="#009af9" fill-rule="evenodd" fill-opacity="1" stroke="none"/>
<circle clip-path="url(#clip281)" cx="1917.97" cy="932.707" r="14.4" fill="#009af9" fill-rule="evenodd" fill-opacity="1" stroke="none"/>
<circle clip-path="url(#clip281)" cx="1918.37" cy="795.42" r="14.4" fill="#009af9" fill-rule="evenodd" fill-opacity="1" stroke="none"/>
<circle clip-path="url(#clip281)" cx="1916.99" cy="657.843" r="14.4" fill="#009af9" fill-rule="evenodd" fill-opacity="1" stroke="none"/>
<circle clip-path="url(#clip281)" cx="1913.76" cy="523.022" r="14.4" fill="#009af9" fill-rule="evenodd" fill-opacity="1" stroke="none"/>
<circle clip-path="url(#clip281)" cx="1907.83" cy="394.358" r="14.4" fill="#009af9" fill-rule="evenodd" fill-opacity="1" stroke="none"/>
<circle clip-path="url(#clip281)" cx="2015.99" cy="399.25" r="14.4" fill="#009af9" fill-rule="evenodd" fill-opacity="1" stroke="none"/>
<circle clip-path="url(#clip281)" cx="2114.9" cy="408.363" r="14.4" fill="#009af9" fill-rule="evenodd" fill-opacity="1" stroke="none"/>
<circle clip-path="url(#clip281)" cx="2106.42" cy="291.72" r="14.4" fill="#009af9" fill-rule="evenodd" fill-opacity="1" stroke="none"/>
<circle clip-path="url(#clip281)" cx="2093.42" cy="184.784" r="14.4" fill="#009af9" fill-rule="evenodd" fill-opacity="1" stroke="none"/>
<circle clip-path="url(#clip281)" cx="1993.73" cy="172.529" r="14.4" fill="#009af9" fill-rule="evenodd" fill-opacity="1" stroke="none"/>
<circle clip-path="url(#clip281)" cx="1886.06" cy="164.97" r="14.4" fill="#009af9" fill-rule="evenodd" fill-opacity="1" stroke="none"/>
<circle clip-path="url(#clip281)" cx="1771.32" cy="161.558" r="14.4" fill="#009af9" fill-rule="evenodd" fill-opacity="1" stroke="none"/>
<circle clip-path="url(#clip281)" cx="1650.37" cy="162.372" r="14.4" fill="#009af9" fill-rule="evenodd" fill-opacity="1" stroke="none"/>
<circle clip-path="url(#clip281)" cx="1659.54" cy="273.092" r="14.4" fill="#009af9" fill-rule="evenodd" fill-opacity="1" stroke="none"/>
<circle clip-path="url(#clip281)" cx="1666.65" cy="394.57" r="14.4" fill="#009af9" fill-rule="evenodd" fill-opacity="1" stroke="none"/>
<circle clip-path="url(#clip281)" cx="1671.9" cy="524.684" r="14.4" fill="#009af9" fill-rule="evenodd" fill-opacity="1" stroke="none"/>
<circle clip-path="url(#clip281)" cx="1675.41" cy="661.169" r="14.4" fill="#009af9" fill-rule="evenodd" fill-opacity="1" stroke="none"/>
<circle clip-path="url(#clip281)" cx="1677.28" cy="801.163" r="14.4" fill="#009af9" fill-rule="evenodd" fill-opacity="1" stroke="none"/>
<circle clip-path="url(#clip281)" cx="1677.35" cy="941.178" r="14.4" fill="#009af9" fill-rule="evenodd" fill-opacity="1" stroke="none"/>
<circle clip-path="url(#clip281)" cx="1675.09" cy="1077.2" r="14.4" fill="#009af9" fill-rule="evenodd" fill-opacity="1" stroke="none"/>
<circle clip-path="url(#clip281)" cx="1669.8" cy="1205.11" r="14.4" fill="#009af9" fill-rule="evenodd" fill-opacity="1" stroke="none"/>
<circle clip-path="url(#clip281)" cx="1610.18" cy="1078.55" r="14.4" fill="#009af9" fill-rule="evenodd" fill-opacity="1" stroke="none"/>
<circle clip-path="url(#clip281)" cx="1545.02" cy="943.449" r="14.4" fill="#009af9" fill-rule="evenodd" fill-opacity="1" stroke="none"/>
<circle clip-path="url(#clip281)" cx="1476.18" cy="804.466" r="14.4" fill="#009af9" fill-rule="evenodd" fill-opacity="1" stroke="none"/>
<circle clip-path="url(#clip281)" cx="1405.56" cy="666.105" r="14.4" fill="#009af9" fill-rule="evenodd" fill-opacity="1" stroke="none"/>
<circle clip-path="url(#clip281)" cx="1265.67" cy="666.791" r="14.4" fill="#009af9" fill-rule="evenodd" fill-opacity="1" stroke="none"/>
</svg>
