<?xml version="1.0" encoding="utf-8"?>
<svg xmlns="http://www.w3.org/2000/svg" xmlns:xlink="http://www.w3.org/1999/xlink" width="600" height="400" viewBox="0 0 2400 1600">
<defs>
  <clipPath id="clip300">
    <rect x="0" y="0" width="2400" height="1600"/>
  </clipPath>
</defs>
<path clip-path="url(#clip300)" d="M0 1600 L2400 1600 L2400 0 L0 0  Z" fill="#ffffff" fill-rule="evenodd" fill-opacity="1"/>
<defs>
  <clipPath id="clip301">
    <rect x="604" y="47" width="1347" height="1347"/>
  </clipPath>
</defs>
<path clip-path="url(#clip300)" d="M604.029 1392.94 L1949.72 1392.94 L1949.72 47.2441 L604.029 47.2441  Z" fill="#ffffff" fill-rule="evenodd" fill-opacity="1"/>
<polyline clip-path="url(#clip301)" style="stroke:#000000; stroke-linecap:round; stroke-linejoin:round; stroke-width:2; stroke-opacity:0.1; fill:none" points="604.029,1392.94 604.029,47.2441 "/>
<polyline clip-path="url(#clip301)" style="stroke:#000000; stroke-linecap:round; stroke-linejoin:round; stroke-width:2; stroke-opacity:0.1; fill:none" points="1142.31,1392.94 1142.31,47.2441 "/>
<polyline clip-path="url(#clip301)" style="stroke:#000000; stroke-linecap:round; stroke-linejoin:round; stroke-width:2; stroke-opacity:0.1; fill:none" points="1680.59,1392.94 1680.59,47.2441 "/>
<polyline clip-path="url(#clip301)" style="stroke:#000000; stroke-linecap:round; stroke-linejoin:round; stroke-width:2; stroke-opacity:0.1; fill:none" points="604.029,1392.94 1949.72,1392.94 "/>
<polyline clip-path="url(#clip301)" style="stroke:#000000; stroke-linecap:round; stroke-linejoin:round; stroke-width:2; stroke-opacity:0.1; fill:none" points="604.029,854.662 1949.72,854.662 "/>
<polyline clip-path="url(#clip301)" style="stroke:#000000; stroke-linecap:round; stroke-linejoin:round; stroke-width:2; stroke-opacity:0.1; fill:none" points="604.029,316.383 1949.72,316.383 "/>
<polyline clip-path="url(#clip300)" style="stroke:#000000; stroke-linecap:round; stroke-linejoin:round; stroke-width:4; stroke-opacity:1; fill:none" points="604.029,1392.94 1949.72,1392.94 "/>
<polyline clip-path="url(#clip300)" style="stroke:#000000; stroke-linecap:round; stroke-linejoin:round; stroke-width:4; stroke-opacity:1; fill:none" points="604.029,1392.94 604.029,1374.04 "/>
<polyline clip-path="url(#clip300)" style="stroke:#000000; stroke-linecap:round; stroke-linejoin:round; stroke-width:4; stroke-opacity:1; fill:none" points="1142.31,1392.94 1142.31,1374.04 "/>
<polyline clip-path="url(#clip300)" style="stroke:#000000; stroke-linecap:round; stroke-linejoin:round; stroke-width:4; stroke-opacity:1; fill:none" points="1680.59,1392.94 1680.59,1374.04 "/>
<path clip-path="url(#clip300)" d="M604.029 1429.72 Q598.612 1429.72 595.869 1435.07 Q593.161 1440.38 593.161 1451.07 Q593.161 1461.73 595.869 1467.08 Q598.612 1472.39 604.029 1472.39 Q609.48 1472.39 612.189 1467.08 Q614.932 1461.73 614.932 1451.07 Q614.932 1440.38 612.189 1435.07 Q609.48 1429.72 604.029 1429.72 M604.029 1424.16 Q612.744 1424.16 617.327 1431.07 Q621.946 1437.95 621.946 1451.07 Q621.946 1464.16 617.327 1471.07 Q612.744 1477.95 604.029 1477.95 Q595.314 1477.95 590.696 1471.07 Q586.112 1464.16 586.112 1451.07 Q586.112 1437.95 590.696 1431.07 Q595.314 1424.16 604.029 1424.16 Z" fill="#000000" fill-rule="nonzero" fill-opacity="1" /><path clip-path="url(#clip300)" d="M1146.82 1431.21 L1129.11 1458.88 L1146.82 1458.88 L1146.82 1431.21 M1144.98 1425.1 L1153.8 1425.1 L1153.8 1458.88 L1161.2 1458.88 L1161.2 1464.72 L1153.8 1464.72 L1153.8 1476.94 L1146.82 1476.94 L1146.82 1464.72 L1123.42 1464.72 L1123.42 1457.95 L1144.98 1425.1 Z" fill="#000000" fill-rule="nonzero" fill-opacity="1" /><path clip-path="url(#clip300)" d="M1680.59 1452.32 Q1675.59 1452.32 1672.7 1455 Q1669.86 1457.67 1669.86 1462.36 Q1669.86 1467.04 1672.7 1469.72 Q1675.59 1472.39 1680.59 1472.39 Q1685.59 1472.39 1688.47 1469.72 Q1691.35 1467.01 1691.35 1462.36 Q1691.35 1457.67 1688.47 1455 Q1685.62 1452.32 1680.59 1452.32 M1673.57 1449.34 Q1669.06 1448.22 1666.52 1445.13 Q1664.02 1442.04 1664.02 1437.6 Q1664.02 1431.38 1668.43 1427.77 Q1672.88 1424.16 1680.59 1424.16 Q1688.33 1424.16 1692.74 1427.77 Q1697.15 1431.38 1697.15 1437.6 Q1697.15 1442.04 1694.61 1445.13 Q1692.11 1448.22 1687.63 1449.34 Q1692.7 1450.52 1695.52 1453.95 Q1698.36 1457.39 1698.36 1462.36 Q1698.36 1469.89 1693.75 1473.92 Q1689.16 1477.95 1680.59 1477.95 Q1672.01 1477.95 1667.39 1473.92 Q1662.81 1469.89 1662.81 1462.36 Q1662.81 1457.39 1665.66 1453.95 Q1668.5 1450.52 1673.57 1449.34 M1671 1438.26 Q1671 1442.29 1673.5 1444.54 Q1676.04 1446.8 1680.59 1446.8 Q1685.1 1446.8 1687.63 1444.54 Q1690.2 1442.29 1690.2 1438.26 Q1690.2 1434.23 1687.63 1431.97 Q1685.1 1429.72 1680.59 1429.72 Q1676.04 1429.72 1673.5 1431.97 Q1671 1434.23 1671 1438.26 Z" fill="#000000" fill-rule="nonzero" fill-opacity="1" /><path clip-path="url(#clip300)" d="M1294.92 1529.32 Q1294.92 1531.62 1293.48 1532.93 Q1292.05 1534.2 1290.41 1534.2 Q1288.85 1534.2 1288.03 1533.3 Q1287.21 1532.4 1287.21 1531.25 Q1287.21 1529.69 1288.36 1528.34 Q1289.51 1526.99 1291.23 1526.7 Q1289.55 1525.64 1287.05 1525.64 Q1285.41 1525.64 1283.97 1526.5 Q1282.58 1527.36 1281.72 1528.46 Q1280.9 1529.57 1280.16 1531.17 Q1279.46 1532.73 1279.18 1533.67 Q1278.93 1534.57 1278.73 1535.55 L1275.86 1547.03 Q1274.46 1552.48 1274.46 1554.41 Q1274.46 1556.79 1275.61 1558.39 Q1276.76 1559.94 1279.05 1559.94 Q1279.96 1559.94 1280.98 1559.7 Q1282.01 1559.41 1283.32 1558.67 Q1284.67 1557.89 1285.86 1556.75 Q1287.09 1555.56 1288.28 1553.55 Q1289.47 1551.54 1290.24 1548.96 Q1290.49 1548.06 1291.31 1548.06 Q1292.33 1548.06 1292.33 1548.88 Q1292.33 1549.57 1291.76 1551.05 Q1291.23 1552.48 1290.04 1554.37 Q1288.89 1556.21 1287.37 1557.89 Q1285.86 1559.53 1283.6 1560.68 Q1281.35 1561.83 1278.89 1561.83 Q1275.37 1561.83 1273.03 1559.94 Q1270.69 1558.06 1269.83 1555.43 Q1269.63 1555.8 1269.34 1556.3 Q1269.05 1556.79 1268.19 1557.89 Q1267.37 1558.96 1266.43 1559.78 Q1265.49 1560.56 1264.01 1561.17 Q1262.58 1561.83 1261.02 1561.83 Q1259.05 1561.83 1257.29 1561.26 Q1255.57 1560.68 1254.34 1559.37 Q1253.11 1558.06 1253.11 1556.25 Q1253.11 1554.25 1254.46 1552.85 Q1255.85 1551.42 1257.74 1551.42 Q1258.93 1551.42 1259.87 1552.11 Q1260.85 1552.81 1260.85 1554.33 Q1260.85 1556.01 1259.71 1557.28 Q1258.56 1558.55 1256.92 1558.88 Q1258.6 1559.94 1261.1 1559.94 Q1263.81 1559.94 1265.94 1557.57 Q1268.07 1555.19 1269.09 1551.21 Q1271.64 1541.66 1272.62 1537.4 Q1273.6 1533.1 1273.6 1531.25 Q1273.6 1529.53 1273.15 1528.34 Q1272.7 1527.15 1271.92 1526.62 Q1271.18 1526.05 1270.49 1525.84 Q1269.83 1525.64 1269.09 1525.64 Q1267.86 1525.64 1266.47 1526.13 Q1265.12 1526.62 1263.48 1527.77 Q1261.88 1528.87 1260.36 1531.17 Q1258.85 1533.46 1257.82 1536.62 Q1257.62 1537.56 1256.71 1537.56 Q1255.73 1537.52 1255.73 1536.7 Q1255.73 1536.01 1256.26 1534.57 Q1256.84 1533.1 1257.99 1531.25 Q1259.17 1529.41 1260.69 1527.77 Q1262.25 1526.09 1264.5 1524.94 Q1266.8 1523.79 1269.26 1523.79 Q1270.36 1523.79 1271.43 1524.04 Q1272.54 1524.24 1273.85 1524.86 Q1275.2 1525.47 1276.39 1526.82 Q1277.58 1528.18 1278.32 1530.14 Q1278.81 1529.2 1279.46 1528.3 Q1280.16 1527.4 1281.23 1526.29 Q1282.33 1525.14 1283.85 1524.49 Q1285.41 1523.79 1287.13 1523.79 Q1288.81 1523.79 1290.45 1524.24 Q1292.09 1524.65 1293.48 1526 Q1294.92 1527.32 1294.92 1529.32 Z" fill="#000000" fill-rule="nonzero" fill-opacity="1" /><polyline clip-path="url(#clip300)" style="stroke:#000000; stroke-linecap:round; stroke-linejoin:round; stroke-width:4; stroke-opacity:1; fill:none" points="604.029,1392.94 604.029,47.2441 "/>
<polyline clip-path="url(#clip300)" style="stroke:#000000; stroke-linecap:round; stroke-linejoin:round; stroke-width:4; stroke-opacity:1; fill:none" points="604.029,1392.94 615.847,1392.94 "/>
<polyline clip-path="url(#clip300)" style="stroke:#000000; stroke-linecap:round; stroke-linejoin:round; stroke-width:4; stroke-opacity:1; fill:none" points="604.029,854.662 615.847,854.662 "/>
<polyline clip-path="url(#clip300)" style="stroke:#000000; stroke-linecap:round; stroke-linejoin:round; stroke-width:4; stroke-opacity:1; fill:none" points="604.029,316.383 615.847,316.383 "/>
<path clip-path="url(#clip300)" d="M550.112 1371.64 Q544.696 1371.64 541.953 1376.99 Q539.244 1382.3 539.244 1392.99 Q539.244 1403.65 541.953 1409 Q544.696 1414.31 550.112 1414.31 Q555.564 1414.31 558.272 1409 Q561.015 1403.65 561.015 1392.99 Q561.015 1382.3 558.272 1376.99 Q555.564 1371.64 550.112 1371.64 M550.112 1366.08 Q558.828 1366.08 563.411 1372.99 Q568.029 1379.87 568.029 1392.99 Q568.029 1406.08 563.411 1412.99 Q558.828 1419.87 550.112 1419.87 Q541.397 1419.87 536.779 1412.99 Q532.196 1406.08 532.196 1392.99 Q532.196 1379.87 536.779 1372.99 Q541.397 1366.08 550.112 1366.08 Z" fill="#000000" fill-rule="nonzero" fill-opacity="1" /><path clip-path="url(#clip300)" d="M553.654 834.853 L535.946 862.526 L553.654 862.526 L553.654 834.853 M551.814 828.742 L560.633 828.742 L560.633 862.526 L568.029 862.526 L568.029 868.359 L560.633 868.359 L560.633 880.582 L553.654 880.582 L553.654 868.359 L530.251 868.359 L530.251 861.589 L551.814 828.742 Z" fill="#000000" fill-rule="nonzero" fill-opacity="1" /><path clip-path="url(#clip300)" d="M550.251 317.685 Q545.251 317.685 542.369 320.359 Q539.522 323.033 539.522 327.72 Q539.522 332.407 542.369 335.081 Q545.251 337.755 550.251 337.755 Q555.251 337.755 558.133 335.081 Q561.015 332.373 561.015 327.72 Q561.015 323.033 558.133 320.359 Q555.286 317.685 550.251 317.685 M543.237 314.699 Q538.724 313.588 536.189 310.498 Q533.689 307.408 533.689 302.963 Q533.689 296.748 538.099 293.137 Q542.543 289.526 550.251 289.526 Q557.994 289.526 562.404 293.137 Q566.814 296.748 566.814 302.963 Q566.814 307.408 564.279 310.498 Q561.779 313.588 557.3 314.699 Q562.369 315.88 565.182 319.317 Q568.029 322.755 568.029 327.72 Q568.029 335.255 563.411 339.282 Q558.828 343.31 550.251 343.31 Q541.675 343.31 537.057 339.282 Q532.474 335.255 532.474 327.72 Q532.474 322.755 535.321 319.317 Q538.168 315.88 543.237 314.699 M540.668 303.623 Q540.668 307.651 543.168 309.908 Q545.703 312.165 550.251 312.165 Q554.765 312.165 557.3 309.908 Q559.869 307.651 559.869 303.623 Q559.869 299.595 557.3 297.338 Q554.765 295.081 550.251 295.081 Q545.703 295.081 543.168 297.338 Q540.668 299.595 540.668 303.623 Z" fill="#000000" fill-rule="nonzero" fill-opacity="1" /><path clip-path="url(#clip300)" d="M433.909 701.716 Q434.483 701.716 435.835 702.085 L467.889 710.119 Q475.021 711.881 480.022 717.62 Q485.023 723.317 485.023 729.794 Q485.023 733.688 482.932 736.188 Q480.883 738.688 477.727 738.688 Q474.939 738.688 473.587 737.213 Q472.275 735.737 472.275 733.975 Q472.275 733.401 472.439 732.786 Q472.603 732.171 473.3 731.515 Q473.997 730.859 475.185 730.859 Q477.112 730.859 478.628 732.54 Q479.325 733.36 479.489 734.139 Q479.653 734.876 479.653 736.147 Q480.801 735.655 481.58 734.753 Q482.358 733.852 482.645 732.827 Q482.973 731.802 483.055 731.146 Q483.178 730.449 483.178 729.794 Q483.178 724.547 477.89 720.53 Q476.292 719.341 474.693 718.481 Q473.136 717.579 471.209 716.923 Q469.324 716.267 468.299 715.98 Q467.274 715.652 464.938 715.078 Q468.75 718.891 468.75 723.563 Q468.75 725.531 468.217 727.293 Q467.684 729.015 466.577 730.531 Q465.43 732.048 463.421 732.95 Q461.413 733.811 458.748 733.811 Q455.92 733.811 452.067 732.704 Q448.214 731.597 441.123 728.933 Q437.147 727.498 435.221 727.498 Q434.278 727.498 433.704 727.703 Q433.089 727.908 432.884 728.318 Q432.638 728.728 432.597 728.974 Q432.556 729.179 432.556 729.589 Q432.556 732.007 435.016 734.261 Q437.475 736.516 442.968 738.073 Q443.992 738.401 444.238 738.606 Q444.484 738.811 444.484 739.426 Q444.443 740.451 443.623 740.451 Q443.296 740.451 442.025 740.082 Q440.713 739.713 438.787 738.852 Q436.819 737.951 435.057 736.721 Q433.253 735.491 431.982 733.565 Q430.712 731.597 430.712 729.343 Q430.712 726.269 432.72 724.383 Q434.688 722.457 437.598 722.457 Q438.787 722.457 439.852 722.784 Q440.877 723.071 443.623 724.137 Q454.691 728.441 460.101 728.441 Q461.413 728.441 462.52 728.236 Q463.585 727.99 464.651 727.457 Q465.676 726.924 466.291 725.859 Q466.864 724.752 466.864 723.235 Q466.864 721.309 465.963 719.505 Q465.02 717.661 463.749 716.513 Q462.479 715.324 461.413 714.628 Q460.306 713.89 459.732 713.726 L444.648 709.955 L437.926 708.274 Q434.278 707.495 433.376 707.127 Q432.515 706.635 432.064 705.774 Q431.614 704.913 431.614 704.175 Q431.614 703.151 432.228 702.454 Q432.843 701.716 433.909 701.716 Z" fill="#000000" fill-rule="nonzero" fill-opacity="1" /><circle clip-path="url(#clip301)" cx="676.183" cy="1178.12" r="25.2" fill="#0000ff" fill-rule="evenodd" fill-opacity="1" stroke="none"/>
<circle clip-path="url(#clip301)" cx="1126.26" cy="762.266" r="25.2" fill="#0000ff" fill-rule="evenodd" fill-opacity="1" stroke="none"/>
<circle clip-path="url(#clip301)" cx="1168.35" cy="995.757" r="25.2" fill="#0000ff" fill-rule="evenodd" fill-opacity="1" stroke="none"/>
<circle clip-path="url(#clip301)" cx="1680" cy="595.282" r="25.2" fill="#0000ff" fill-rule="evenodd" fill-opacity="1" stroke="none"/>
<circle clip-path="url(#clip301)" cx="1263" cy="564.347" r="25.2" fill="#0000ff" fill-rule="evenodd" fill-opacity="1" stroke="none"/>
<circle clip-path="url(#clip301)" cx="1726.94" cy="190.52" r="25.2" fill="#0000ff" fill-rule="evenodd" fill-opacity="1" stroke="none"/>
<circle clip-path="url(#clip301)" cx="1089.34" cy="926.368" r="25.2" fill="#0000ff" fill-rule="evenodd" fill-opacity="1" stroke="none"/>
<circle clip-path="url(#clip301)" cx="1111.05" cy="152.543" r="25.2" fill="#0000ff" fill-rule="evenodd" fill-opacity="1" stroke="none"/>
<polyline clip-path="url(#clip301)" style="stroke:#ff0000; stroke-linecap:round; stroke-linejoin:round; stroke-width:8; stroke-opacity:1; fill:none" points="604.029,1392.94 738.599,1258.37 873.168,1123.8 1007.74,989.231 1142.31,854.662 1276.88,720.092 1411.45,585.522 1546.02,450.953 1680.59,316.383 1815.16,181.814 1949.72,47.2441 "/>
<path clip-path="url(#clip300)" d="M1488.07 1348.08 L1878 1348.08 L1878 1075.92 L1488.07 1075.92  Z" fill="#ffffff" fill-rule="evenodd" fill-opacity="1"/>
<polyline clip-path="url(#clip300)" style="stroke:#000000; stroke-linecap:round; stroke-linejoin:round; stroke-width:4; stroke-opacity:1; fill:none" points="1488.07,1348.08 1878,1348.08 1878,1075.92 1488.07,1075.92 1488.07,1348.08 "/>
<circle clip-path="url(#clip300)" cx="1583.7" cy="1166.64" r="37.632" fill="#0000ff" fill-rule="evenodd" fill-opacity="1" stroke="none"/>
<path clip-path="url(#clip300)" d="M1712.43 1158.4 L1712.43 1133.85 L1719.88 1133.85 L1719.88 1196.88 L1712.43 1196.88 L1712.43 1190.08 Q1710.08 1194.13 1706.48 1196.11 Q1702.91 1198.06 1697.89 1198.06 Q1689.66 1198.06 1684.48 1191.5 Q1679.33 1184.93 1679.33 1174.24 Q1679.33 1163.54 1684.48 1156.98 Q1689.66 1150.42 1697.89 1150.42 Q1702.91 1150.42 1706.48 1152.4 Q1710.08 1154.35 1712.43 1158.4 M1687.03 1174.24 Q1687.03 1182.46 1690.39 1187.16 Q1693.8 1191.82 1699.71 1191.82 Q1705.63 1191.82 1709.03 1187.16 Q1712.43 1182.46 1712.43 1174.24 Q1712.43 1166.02 1709.03 1161.36 Q1705.63 1156.66 1699.71 1156.66 Q1693.8 1156.66 1690.39 1161.36 Q1687.03 1166.02 1687.03 1174.24 Z" fill="#000000" fill-rule="nonzero" fill-opacity="1" /><path clip-path="url(#clip300)" d="M1755.86 1174.08 Q1746.82 1174.08 1743.34 1176.14 Q1739.86 1178.21 1739.86 1183.19 Q1739.86 1187.16 1742.45 1189.51 Q1745.08 1191.82 1749.58 1191.82 Q1755.78 1191.82 1759.5 1187.44 Q1763.27 1183.03 1763.27 1175.74 L1763.27 1174.08 L1755.86 1174.08 M1770.72 1171 L1770.72 1196.88 L1763.27 1196.88 L1763.27 1190 Q1760.72 1194.13 1756.91 1196.11 Q1753.1 1198.06 1747.59 1198.06 Q1740.63 1198.06 1736.49 1194.17 Q1732.4 1190.24 1732.4 1183.68 Q1732.4 1176.02 1737.51 1172.13 Q1742.65 1168.24 1752.82 1168.24 L1763.27 1168.24 L1763.27 1167.51 Q1763.27 1162.37 1759.87 1159.57 Q1756.5 1156.74 1750.39 1156.74 Q1746.5 1156.74 1742.81 1157.67 Q1739.13 1158.6 1735.72 1160.47 L1735.72 1153.58 Q1739.81 1152 1743.66 1151.23 Q1747.51 1150.42 1751.16 1150.42 Q1761 1150.42 1765.86 1155.52 Q1770.72 1160.63 1770.72 1171 Z" fill="#000000" fill-rule="nonzero" fill-opacity="1" /><path clip-path="url(#clip300)" d="M1793.45 1138.63 L1793.45 1151.51 L1808.8 1151.51 L1808.8 1157.31 L1793.45 1157.31 L1793.45 1181.94 Q1793.45 1187.49 1794.95 1189.07 Q1796.49 1190.64 1801.15 1190.64 L1808.8 1190.64 L1808.8 1196.88 L1801.15 1196.88 Q1792.52 1196.88 1789.24 1193.68 Q1785.95 1190.44 1785.95 1181.94 L1785.95 1157.31 L1780.49 1157.31 L1780.49 1151.51 L1785.95 1151.51 L1785.95 1138.63 L1793.45 1138.63 Z" fill="#000000" fill-rule="nonzero" fill-opacity="1" /><path clip-path="url(#clip300)" d="M1839.22 1174.08 Q1830.19 1174.08 1826.71 1176.14 Q1823.22 1178.21 1823.22 1183.19 Q1823.22 1187.16 1825.82 1189.51 Q1828.45 1191.82 1832.95 1191.82 Q1839.14 1191.82 1842.87 1187.44 Q1846.64 1183.03 1846.64 1175.74 L1846.64 1174.08 L1839.22 1174.08 M1854.09 1171 L1854.09 1196.88 L1846.64 1196.88 L1846.64 1190 Q1844.09 1194.13 1840.28 1196.11 Q1836.47 1198.06 1830.96 1198.06 Q1823.99 1198.06 1819.86 1194.17 Q1815.77 1190.24 1815.77 1183.68 Q1815.77 1176.02 1820.87 1172.13 Q1826.02 1168.24 1836.19 1168.24 L1846.64 1168.24 L1846.64 1167.51 Q1846.64 1162.37 1843.23 1159.57 Q1839.87 1156.74 1833.76 1156.74 Q1829.87 1156.74 1826.18 1157.67 Q1822.49 1158.6 1819.09 1160.47 L1819.09 1153.58 Q1823.18 1152 1827.03 1151.23 Q1830.88 1150.42 1834.53 1150.42 Q1844.37 1150.42 1849.23 1155.52 Q1854.09 1160.63 1854.09 1171 Z" fill="#000000" fill-rule="nonzero" fill-opacity="1" /><polyline clip-path="url(#clip300)" style="stroke:#ff0000; stroke-linecap:round; stroke-linejoin:round; stroke-width:14; stroke-opacity:1; fill:none" points="1511.98,1257.36 1655.43,1257.36 "/>
<path clip-path="url(#clip300)" d="M1692.3 1229.35 L1692.3 1242.23 L1707.65 1242.23 L1707.65 1248.03 L1692.3 1248.03 L1692.3 1272.66 Q1692.3 1278.21 1693.8 1279.79 Q1695.34 1281.36 1699.99 1281.36 L1707.65 1281.36 L1707.65 1287.6 L1699.99 1287.6 Q1691.37 1287.6 1688.08 1284.4 Q1684.8 1281.16 1684.8 1272.66 L1684.8 1248.03 L1679.33 1248.03 L1679.33 1242.23 L1684.8 1242.23 L1684.8 1229.35 L1692.3 1229.35 Z" fill="#000000" fill-rule="nonzero" fill-opacity="1" /><path clip-path="url(#clip300)" d="M1743.74 1249.2 Q1742.49 1248.47 1740.99 1248.15 Q1739.53 1247.78 1737.75 1247.78 Q1731.43 1247.78 1728.03 1251.91 Q1724.66 1256.01 1724.66 1263.7 L1724.66 1287.6 L1717.17 1287.6 L1717.17 1242.23 L1724.66 1242.23 L1724.66 1249.28 Q1727.01 1245.15 1730.78 1243.16 Q1734.55 1241.14 1739.94 1241.14 Q1740.71 1241.14 1741.64 1241.26 Q1742.57 1241.34 1743.7 1241.54 L1743.74 1249.2 Z" fill="#000000" fill-rule="nonzero" fill-opacity="1" /><path clip-path="url(#clip300)" d="M1750.79 1269.7 L1750.79 1242.23 L1758.25 1242.23 L1758.25 1269.41 Q1758.25 1275.86 1760.76 1279.1 Q1763.27 1282.3 1768.29 1282.3 Q1774.33 1282.3 1777.81 1278.45 Q1781.34 1274.6 1781.34 1267.96 L1781.34 1242.23 L1788.79 1242.23 L1788.79 1287.6 L1781.34 1287.6 L1781.34 1280.64 Q1778.62 1284.77 1775.02 1286.79 Q1771.45 1288.78 1766.71 1288.78 Q1758.89 1288.78 1754.84 1283.92 Q1750.79 1279.06 1750.79 1269.7 M1769.55 1241.14 L1769.55 1241.14 Z" fill="#000000" fill-rule="nonzero" fill-opacity="1" /><path clip-path="url(#clip300)" d="M1842.95 1263.05 L1842.95 1266.7 L1808.68 1266.7 Q1809.17 1274.4 1813.3 1278.45 Q1817.47 1282.46 1824.88 1282.46 Q1829.18 1282.46 1833.19 1281.41 Q1837.24 1280.35 1841.21 1278.25 L1841.21 1285.29 Q1837.2 1287 1832.99 1287.89 Q1828.77 1288.78 1824.44 1288.78 Q1813.58 1288.78 1807.22 1282.46 Q1800.9 1276.14 1800.9 1265.36 Q1800.9 1254.22 1806.9 1247.7 Q1812.93 1241.14 1823.14 1241.14 Q1832.3 1241.14 1837.6 1247.05 Q1842.95 1252.93 1842.95 1263.05 M1835.5 1260.87 Q1835.42 1254.75 1832.05 1251.1 Q1828.73 1247.46 1823.22 1247.46 Q1816.98 1247.46 1813.22 1250.98 Q1809.49 1254.51 1808.92 1260.91 L1835.5 1260.87 Z" fill="#000000" fill-rule="nonzero" fill-opacity="1" /></svg>
