<?xml version="1.0" encoding="utf-8"?>
<svg xmlns="http://www.w3.org/2000/svg" xmlns:xlink="http://www.w3.org/1999/xlink" width="600" height="400" viewBox="0 0 2400 1600">
<defs>
  <clipPath id="clip370">
    <rect x="0" y="0" width="2400" height="1600"/>
  </clipPath>
</defs>
<path clip-path="url(#clip370)" d="M0 1600 L2400 1600 L2400 0 L0 0  Z" fill="#ffffff" fill-rule="evenodd" fill-opacity="1"/>
<defs>
  <clipPath id="clip371">
    <rect x="296" y="123" width="2058" height="1262"/>
  </clipPath>
</defs>
<path clip-path="url(#clip370)" d="M296.165 1384.3 L2352.76 1384.3 L2352.76 123.472 L296.165 123.472  Z" fill="#ffffff" fill-rule="evenodd" fill-opacity="1"/>
<polyline clip-path="url(#clip371)" style="stroke:#000000; stroke-linecap:round; stroke-linejoin:round; stroke-width:2; stroke-opacity:0.1; fill:none" points="354.37,1384.3 354.37,123.472 "/>
<polyline clip-path="url(#clip371)" style="stroke:#000000; stroke-linecap:round; stroke-linejoin:round; stroke-width:2; stroke-opacity:0.1; fill:none" points="2294.55,1384.3 2294.55,123.472 "/>
<polyline clip-path="url(#clip371)" style="stroke:#000000; stroke-linecap:round; stroke-linejoin:round; stroke-width:2; stroke-opacity:0.1; fill:none" points="296.165,1348.62 2352.76,1348.62 "/>
<polyline clip-path="url(#clip371)" style="stroke:#000000; stroke-linecap:round; stroke-linejoin:round; stroke-width:2; stroke-opacity:0.1; fill:none" points="296.165,1172.4 2352.76,1172.4 "/>
<polyline clip-path="url(#clip371)" style="stroke:#000000; stroke-linecap:round; stroke-linejoin:round; stroke-width:2; stroke-opacity:0.1; fill:none" points="296.165,1084.29 2352.76,1084.29 "/>
<polyline clip-path="url(#clip371)" style="stroke:#000000; stroke-linecap:round; stroke-linejoin:round; stroke-width:2; stroke-opacity:0.1; fill:none" points="296.165,952.129 2352.76,952.129 "/>
<polyline clip-path="url(#clip371)" style="stroke:#000000; stroke-linecap:round; stroke-linejoin:round; stroke-width:2; stroke-opacity:0.1; fill:none" points="296.165,164.663 2352.76,164.663 "/>
<polyline clip-path="url(#clip370)" style="stroke:#000000; stroke-linecap:round; stroke-linejoin:round; stroke-width:4; stroke-opacity:1; fill:none" points="296.165,1384.3 2352.76,1384.3 "/>
<polyline clip-path="url(#clip370)" style="stroke:#000000; stroke-linecap:round; stroke-linejoin:round; stroke-width:4; stroke-opacity:1; fill:none" points="354.37,1384.3 354.37,1365.4 "/>
<polyline clip-path="url(#clip370)" style="stroke:#000000; stroke-linecap:round; stroke-linejoin:round; stroke-width:4; stroke-opacity:1; fill:none" points="2294.55,1384.3 2294.55,1365.4 "/>
<path clip-path="url(#clip370)" d="M339.943 1462.4 L351.402 1462.4 L351.402 1422.85 L338.937 1425.35 L338.937 1418.96 L351.332 1416.46 L358.346 1416.46 L358.346 1462.4 L369.804 1462.4 L369.804 1468.3 L339.943 1468.3 L339.943 1462.4 Z" fill="#000000" fill-rule="nonzero" fill-opacity="1" /><path clip-path="url(#clip370)" d="M2276.81 1422.57 L2259.1 1450.24 L2276.81 1450.24 L2276.81 1422.57 M2274.97 1416.46 L2283.79 1416.46 L2283.79 1450.24 L2291.18 1450.24 L2291.18 1456.08 L2283.79 1456.08 L2283.79 1468.3 L2276.81 1468.3 L2276.81 1456.08 L2253.4 1456.08 L2253.4 1449.31 L2274.97 1416.46 Z" fill="#000000" fill-rule="nonzero" fill-opacity="1" /><path clip-path="url(#clip370)" d="M2317.78 1421.08 Q2312.36 1421.08 2309.62 1426.43 Q2306.91 1431.74 2306.91 1442.43 Q2306.91 1453.09 2309.62 1458.44 Q2312.36 1463.75 2317.78 1463.75 Q2323.23 1463.75 2325.94 1458.44 Q2328.68 1453.09 2328.68 1442.43 Q2328.68 1431.74 2325.94 1426.43 Q2323.23 1421.08 2317.78 1421.08 M2317.78 1415.52 Q2326.49 1415.52 2331.08 1422.43 Q2335.7 1429.31 2335.7 1442.43 Q2335.7 1455.52 2331.08 1462.43 Q2326.49 1469.31 2317.78 1469.31 Q2309.06 1469.31 2304.45 1462.43 Q2299.86 1455.52 2299.86 1442.43 Q2299.86 1429.31 2304.45 1422.43 Q2309.06 1415.52 2317.78 1415.52 Z" fill="#000000" fill-rule="nonzero" fill-opacity="1" /><path clip-path="url(#clip370)" d="M1343.13 1535.61 Q1343.13 1538.28 1341.49 1539.87 Q1339.9 1541.47 1337.89 1541.47 Q1336.11 1541.47 1335.17 1540.43 Q1334.23 1539.4 1334.23 1538.09 Q1334.23 1537.53 1334.47 1536.83 Q1334.7 1536.08 1335.22 1535.19 Q1335.78 1534.3 1336.95 1533.64 Q1338.12 1532.99 1339.71 1532.89 Q1339.39 1532.56 1339.29 1532.52 Q1338.59 1531.96 1337.28 1531.77 Q1337.09 1531.67 1336.44 1531.67 Q1333.2 1531.67 1329.92 1534.06 Q1326.69 1536.41 1322.71 1540.86 Q1317.7 1546.06 1314.47 1547.98 Q1328.66 1549.85 1328.66 1558.05 Q1328.66 1559.41 1328.28 1561.05 Q1327.53 1564.14 1327.53 1566.39 Q1327.53 1570.88 1330.58 1570.88 Q1333.53 1570.88 1335.4 1567.89 Q1337.33 1564.89 1338.92 1559.03 Q1339.15 1557.95 1339.39 1557.63 Q1339.62 1557.3 1340.28 1557.3 Q1341.45 1557.3 1341.45 1558.24 Q1340.37 1563.72 1337.98 1567.93 Q1334.94 1573.04 1330.39 1573.04 Q1326.6 1573.04 1324.07 1570.42 Q1321.59 1567.75 1321.59 1563.53 Q1321.59 1562.5 1321.96 1560.16 Q1322.24 1559.22 1322.24 1558.14 Q1322.24 1555.94 1321.02 1554.3 Q1319.81 1552.61 1317.84 1551.77 Q1315.87 1550.93 1314.23 1550.55 Q1312.64 1550.13 1311.09 1549.99 Q1306.41 1569.81 1305.75 1571.02 Q1305.33 1571.87 1304.39 1572.43 Q1303.46 1573.04 1302.47 1573.04 Q1301.54 1573.04 1300.6 1572.38 Q1299.71 1571.77 1299.71 1570.32 Q1299.71 1569.57 1300.08 1568.21 L1314 1512.94 L1314.28 1511.06 Q1314.28 1510.5 1314.04 1510.22 Q1313.86 1509.89 1312.73 1509.66 Q1311.65 1509.42 1309.5 1509.42 Q1308.61 1509.42 1308.19 1509.38 Q1307.81 1509.33 1307.49 1509.1 Q1307.16 1508.81 1307.16 1508.25 Q1307.16 1507.46 1307.49 1507.03 Q1307.86 1506.57 1308.14 1506.47 Q1308.42 1506.38 1308.98 1506.33 Q1309.78 1506.28 1312.45 1506.05 Q1315.12 1505.77 1317.42 1505.58 Q1319.71 1505.39 1320.7 1505.39 Q1321.26 1505.39 1321.54 1505.68 Q1321.87 1505.91 1321.91 1506.19 L1321.96 1506.43 L1311.98 1546.9 Q1316.1 1545.26 1322.62 1538 Q1330.16 1529.57 1336.62 1529.57 Q1339.67 1529.57 1341.4 1531.44 Q1343.13 1533.27 1343.13 1535.61 Z" fill="#000000" fill-rule="nonzero" fill-opacity="1" /><polyline clip-path="url(#clip370)" style="stroke:#000000; stroke-linecap:round; stroke-linejoin:round; stroke-width:4; stroke-opacity:1; fill:none" points="296.165,1384.3 296.165,123.472 "/>
<polyline clip-path="url(#clip370)" style="stroke:#000000; stroke-linecap:round; stroke-linejoin:round; stroke-width:4; stroke-opacity:1; fill:none" points="296.165,1348.62 315.063,1348.62 "/>
<polyline clip-path="url(#clip370)" style="stroke:#000000; stroke-linecap:round; stroke-linejoin:round; stroke-width:4; stroke-opacity:1; fill:none" points="296.165,1172.4 315.063,1172.4 "/>
<polyline clip-path="url(#clip370)" style="stroke:#000000; stroke-linecap:round; stroke-linejoin:round; stroke-width:4; stroke-opacity:1; fill:none" points="296.165,1084.29 315.063,1084.29 "/>
<polyline clip-path="url(#clip370)" style="stroke:#000000; stroke-linecap:round; stroke-linejoin:round; stroke-width:4; stroke-opacity:1; fill:none" points="296.165,952.129 315.063,952.129 "/>
<polyline clip-path="url(#clip370)" style="stroke:#000000; stroke-linecap:round; stroke-linejoin:round; stroke-width:4; stroke-opacity:1; fill:none" points="296.165,164.663 315.063,164.663 "/>
<path clip-path="url(#clip370)" d="M242.248 1327.31 Q236.832 1327.31 234.089 1332.66 Q231.38 1337.97 231.38 1348.67 Q231.38 1359.33 234.089 1364.67 Q236.832 1369.99 242.248 1369.99 Q247.7 1369.99 250.408 1364.67 Q253.151 1359.33 253.151 1348.67 Q253.151 1337.97 250.408 1332.66 Q247.7 1327.31 242.248 1327.31 M242.248 1321.76 Q250.964 1321.76 255.547 1328.67 Q260.165 1335.54 260.165 1348.67 Q260.165 1361.76 255.547 1368.67 Q250.964 1375.54 242.248 1375.54 Q233.533 1375.54 228.915 1368.67 Q224.332 1361.76 224.332 1348.67 Q224.332 1335.54 228.915 1328.67 Q233.533 1321.76 242.248 1321.76 Z" fill="#000000" fill-rule="nonzero" fill-opacity="1" /><path clip-path="url(#clip370)" d="M205.651 1170.37 Q210.686 1171.44 213.499 1174.85 Q216.346 1178.25 216.346 1183.25 Q216.346 1190.92 211.068 1195.13 Q205.79 1199.33 196.068 1199.33 Q192.804 1199.33 189.332 1198.67 Q185.895 1198.04 182.214 1196.76 L182.214 1189.99 Q185.131 1191.69 188.603 1192.56 Q192.075 1193.42 195.86 1193.42 Q202.457 1193.42 205.895 1190.82 Q209.367 1188.22 209.367 1183.25 Q209.367 1178.67 206.138 1176.1 Q202.943 1173.49 197.214 1173.49 L191.172 1173.49 L191.172 1167.73 L197.492 1167.73 Q202.665 1167.73 205.408 1165.68 Q208.151 1163.6 208.151 1159.71 Q208.151 1155.72 205.304 1153.6 Q202.492 1151.44 197.214 1151.44 Q194.332 1151.44 191.033 1152.07 Q187.735 1152.69 183.777 1154.01 L183.777 1147.76 Q187.77 1146.65 191.242 1146.1 Q194.749 1145.54 197.839 1145.54 Q205.825 1145.54 210.478 1149.19 Q215.131 1152.8 215.131 1158.98 Q215.131 1163.29 212.665 1166.27 Q210.2 1169.22 205.651 1170.37 Z" fill="#000000" fill-rule="nonzero" fill-opacity="1" /><path clip-path="url(#clip370)" d="M235.686 1192.42 L260.165 1192.42 L260.165 1198.32 L227.249 1198.32 L227.249 1192.42 Q231.242 1188.29 238.117 1181.34 Q245.026 1174.36 246.797 1172.35 Q250.165 1168.56 251.485 1165.96 Q252.839 1163.32 252.839 1160.79 Q252.839 1156.65 249.922 1154.05 Q247.04 1151.44 242.387 1151.44 Q239.089 1151.44 235.408 1152.59 Q231.762 1153.74 227.596 1156.06 L227.596 1148.98 Q231.832 1147.28 235.512 1146.41 Q239.193 1145.54 242.248 1145.54 Q250.304 1145.54 255.096 1149.57 Q259.887 1153.6 259.887 1160.33 Q259.887 1163.53 258.672 1166.41 Q257.491 1169.26 254.332 1173.15 Q253.464 1174.15 248.811 1178.98 Q244.158 1183.77 235.686 1192.42 Z" fill="#000000" fill-rule="nonzero" fill-opacity="1" /><path clip-path="url(#clip370)" d="M201.415 1064.48 L183.707 1092.16 L201.415 1092.16 L201.415 1064.48 M199.575 1058.37 L208.394 1058.37 L208.394 1092.16 L215.79 1092.16 L215.79 1097.99 L208.394 1097.99 L208.394 1110.21 L201.415 1110.21 L201.415 1097.99 L178.013 1097.99 L178.013 1091.22 L199.575 1058.37 Z" fill="#000000" fill-rule="nonzero" fill-opacity="1" /><path clip-path="url(#clip370)" d="M242.387 1085.59 Q237.387 1085.59 234.505 1088.27 Q231.658 1090.94 231.658 1095.63 Q231.658 1100.32 234.505 1102.99 Q237.387 1105.66 242.387 1105.66 Q247.387 1105.66 250.269 1102.99 Q253.151 1100.28 253.151 1095.63 Q253.151 1090.94 250.269 1088.27 Q247.422 1085.59 242.387 1085.59 M235.374 1082.61 Q230.86 1081.5 228.325 1078.41 Q225.825 1075.32 225.825 1070.87 Q225.825 1064.66 230.235 1061.05 Q234.679 1057.43 242.387 1057.43 Q250.13 1057.43 254.54 1061.05 Q258.95 1064.66 258.95 1070.87 Q258.95 1075.32 256.415 1078.41 Q253.915 1081.5 249.436 1082.61 Q254.505 1083.79 257.318 1087.23 Q260.165 1090.66 260.165 1095.63 Q260.165 1103.16 255.547 1107.19 Q250.964 1111.22 242.387 1111.22 Q233.811 1111.22 229.193 1107.19 Q224.61 1103.16 224.61 1095.63 Q224.61 1090.66 227.457 1087.23 Q230.304 1083.79 235.374 1082.61 M232.804 1071.53 Q232.804 1075.56 235.304 1077.82 Q237.839 1080.07 242.387 1080.07 Q246.901 1080.07 249.436 1077.82 Q252.005 1075.56 252.005 1071.53 Q252.005 1067.5 249.436 1065.25 Q246.901 1062.99 242.387 1062.99 Q237.839 1062.99 235.304 1065.25 Q232.804 1067.5 232.804 1071.53 Z" fill="#000000" fill-rule="nonzero" fill-opacity="1" /><path clip-path="url(#clip370)" d="M182.631 926.209 L215.964 926.209 L215.964 929.195 L197.145 978.049 L189.818 978.049 L207.526 932.112 L182.631 932.112 L182.631 926.209 Z" fill="#000000" fill-rule="nonzero" fill-opacity="1" /><path clip-path="url(#clip370)" d="M235.686 972.147 L260.165 972.147 L260.165 978.049 L227.249 978.049 L227.249 972.147 Q231.242 968.015 238.117 961.07 Q245.026 954.091 246.797 952.077 Q250.165 948.293 251.485 945.688 Q252.839 943.05 252.839 940.515 Q252.839 936.383 249.922 933.779 Q247.04 931.175 242.387 931.175 Q239.089 931.175 235.408 932.32 Q231.762 933.466 227.596 935.793 L227.596 928.709 Q231.832 927.008 235.512 926.14 Q239.193 925.272 242.248 925.272 Q250.304 925.272 255.096 929.3 Q259.887 933.327 259.887 940.063 Q259.887 943.258 258.672 946.14 Q257.491 948.987 254.332 952.876 Q253.464 953.883 248.811 958.709 Q244.158 963.501 235.686 972.147 Z" fill="#000000" fill-rule="nonzero" fill-opacity="1" /><path clip-path="url(#clip370)" d="M144.298 184.68 L168.777 184.68 L168.777 190.583 L135.86 190.583 L135.86 184.68 Q139.853 180.548 146.728 173.604 Q153.638 166.624 155.409 164.611 Q158.777 160.826 160.096 158.222 Q161.45 155.583 161.45 153.048 Q161.45 148.916 158.534 146.312 Q155.652 143.708 150.999 143.708 Q147.7 143.708 144.02 144.854 Q140.374 146 136.207 148.326 L136.207 141.243 Q140.443 139.541 144.124 138.673 Q147.805 137.805 150.86 137.805 Q158.916 137.805 163.707 141.833 Q168.499 145.861 168.499 152.597 Q168.499 155.791 167.284 158.673 Q166.103 161.52 162.943 165.409 Q162.075 166.416 157.423 171.243 Q152.77 176.034 144.298 184.68 Z" fill="#000000" fill-rule="nonzero" fill-opacity="1" /><path clip-path="url(#clip370)" d="M184.714 184.68 L196.172 184.68 L196.172 145.132 L183.707 147.632 L183.707 141.243 L196.103 138.743 L203.117 138.743 L203.117 184.68 L214.575 184.68 L214.575 190.583 L184.714 190.583 L184.714 184.68 Z" fill="#000000" fill-rule="nonzero" fill-opacity="1" /><path clip-path="url(#clip370)" d="M228.811 138.743 L256.346 138.743 L256.346 144.645 L235.235 144.645 L235.235 157.354 Q236.762 156.833 238.29 156.59 Q239.818 156.312 241.346 156.312 Q250.026 156.312 255.096 161.069 Q260.165 165.826 260.165 173.951 Q260.165 182.319 254.957 186.972 Q249.748 191.59 240.269 191.59 Q237.005 191.59 233.603 191.034 Q230.235 190.479 226.624 189.367 L226.624 182.319 Q229.749 184.02 233.082 184.854 Q236.415 185.687 240.13 185.687 Q246.137 185.687 249.644 182.527 Q253.151 179.367 253.151 173.951 Q253.151 168.534 249.644 165.374 Q246.137 162.215 240.13 162.215 Q237.318 162.215 234.505 162.84 Q231.728 163.465 228.811 164.784 L228.811 138.743 Z" fill="#000000" fill-rule="nonzero" fill-opacity="1" /><path clip-path="url(#clip370)" d="M25.0572 753.56 Q28.3363 753.56 28.3363 758.245 L28.3363 768.785 Q32.5524 765.834 38.7827 765.834 Q44.123 765.834 49.1354 768.035 Q54.101 770.19 57.5675 773.657 Q61.0341 777.076 63.1421 781.386 Q65.2032 785.696 65.2032 789.912 Q65.2032 796.33 60.8467 800.311 Q56.4901 804.293 50.0255 804.293 Q46.6058 804.293 42.8114 803.122 Q39.017 801.904 35.5036 799.609 Q31.9434 797.313 29.0858 794.315 Q26.2283 791.27 24.495 787.335 Q22.7618 783.354 22.7618 779.184 L22.7618 757.308 Q22.7618 756.137 22.8555 755.528 Q22.9023 754.872 23.4644 754.216 Q23.9797 753.56 25.0572 753.56 M37.6585 771.97 Q36.5342 771.97 35.5504 772.111 Q34.5198 772.251 33.1613 772.767 Q31.756 773.282 30.7723 774.172 Q29.7417 775.062 29.039 776.795 Q28.3363 778.482 28.3363 780.777 Q28.3363 784.009 30.1164 787.57 Q31.8965 791.13 36.2999 793.847 Q40.0475 796.095 44.9194 797.22 Q49.7913 798.344 52.6957 798.344 Q57.6612 798.344 60.3782 795.955 Q63.0484 793.519 63.0484 789.818 Q63.0484 786.773 60.9872 783.307 Q58.8792 779.84 54.8974 777.17 Q51.4308 774.828 46.3716 773.422 Q41.3124 771.97 37.6585 771.97 Z" fill="#000000" fill-rule="nonzero" fill-opacity="1" /><path clip-path="url(#clip370)" d="M67.4294 713.421 Q69.2985 713.421 70.4134 714.569 Q71.5283 715.684 71.5283 717.094 Q71.5283 718.34 70.8069 718.996 Q70.0855 719.652 69.1673 719.652 Q68.7738 719.652 68.2819 719.488 Q67.7573 719.324 67.1342 718.963 Q66.5112 718.569 66.0521 717.75 Q65.593 716.93 65.5275 715.815 Q65.2979 716.044 65.2651 716.11 Q64.8716 716.602 64.7405 717.52 Q64.6749 717.651 64.6749 718.11 Q64.6749 720.373 66.3472 722.668 Q67.9868 724.931 71.102 727.718 Q74.7418 731.227 76.0863 733.489 Q77.3979 723.554 83.1364 723.554 Q84.0874 723.554 85.2351 723.816 Q87.3993 724.341 88.9733 724.341 Q92.1213 724.341 92.1213 722.209 Q92.1213 720.143 90.0226 718.832 Q87.924 717.487 83.8251 716.372 Q83.0709 716.208 82.8413 716.044 Q82.6118 715.881 82.6118 715.421 Q82.6118 714.602 83.2676 714.602 Q87.1042 715.356 90.0554 717.028 Q93.6297 719.16 93.6297 722.34 Q93.6297 724.997 91.7934 726.767 Q89.9243 728.505 86.973 728.505 Q86.2516 728.505 84.6121 728.243 Q83.9562 728.046 83.202 728.046 Q81.6608 728.046 80.5131 728.899 Q79.3326 729.751 78.7424 731.129 Q78.1522 732.506 77.8898 733.653 Q77.5947 734.768 77.4963 735.85 Q91.3671 739.13 92.2197 739.589 Q92.8099 739.884 93.2034 740.54 Q93.6297 741.195 93.6297 741.884 Q93.6297 742.54 93.1706 743.196 Q92.7443 743.819 91.7278 743.819 Q91.2031 743.819 90.2522 743.556 L51.5583 733.817 L50.2467 733.621 Q49.8532 733.621 49.6564 733.785 Q49.4269 733.916 49.2629 734.703 Q49.099 735.457 49.099 736.965 Q49.099 737.588 49.0662 737.884 Q49.0334 738.146 48.8694 738.375 Q48.6727 738.605 48.2792 738.605 Q47.7217 738.605 47.4266 738.375 Q47.0987 738.113 47.0331 737.916 Q46.9675 737.72 46.9347 737.326 Q46.9019 736.769 46.738 734.9 Q46.5412 733.03 46.4101 731.424 Q46.2789 729.817 46.2789 729.128 Q46.2789 728.735 46.4756 728.538 Q46.6396 728.308 46.8363 728.276 L47.0003 728.243 L75.3321 735.227 Q74.1844 732.342 69.1017 727.784 Q63.1993 722.504 63.1993 717.979 Q63.1993 715.848 64.5109 714.634 Q65.7898 713.421 67.4294 713.421 Z" fill="#000000" fill-rule="nonzero" fill-opacity="1" /><path clip-path="url(#clip370)" d="M912.362 18.8205 L912.362 65.8515 L922.246 65.8515 Q934.763 65.8515 940.556 60.1802 Q946.39 54.509 946.39 42.2752 Q946.39 30.1225 940.556 24.4918 Q934.763 18.8205 922.246 18.8205 L912.362 18.8205 M904.179 12.096 L920.99 12.096 Q938.571 12.096 946.795 19.4281 Q955.018 26.7198 955.018 42.2752 Q955.018 57.9117 946.754 65.2439 Q938.49 72.576 920.99 72.576 L904.179 72.576 L904.179 12.096 Z" fill="#000000" fill-rule="nonzero" fill-opacity="1" /><path clip-path="url(#clip370)" d="M988.357 49.7694 Q979.323 49.7694 975.84 51.8354 Q972.356 53.9013 972.356 58.8839 Q972.356 62.8538 974.948 65.2034 Q977.582 67.5124 982.078 67.5124 Q988.276 67.5124 992.003 63.1374 Q995.77 58.7219 995.77 51.4303 L995.77 49.7694 L988.357 49.7694 M1003.22 46.6907 L1003.22 72.576 L995.77 72.576 L995.77 65.6895 Q993.218 69.8214 989.41 71.8063 Q985.602 73.7508 980.093 73.7508 Q973.126 73.7508 968.994 69.8619 Q964.902 65.9325 964.902 59.3701 Q964.902 51.7138 970.006 47.825 Q975.151 43.9361 985.319 43.9361 L995.77 43.9361 L995.77 43.2069 Q995.77 38.0623 992.367 35.2672 Q989.005 32.4315 982.888 32.4315 Q978.999 32.4315 975.313 33.3632 Q971.627 34.295 968.224 36.1584 L968.224 29.2718 Q972.315 27.692 976.164 26.9223 Q980.012 26.1121 983.658 26.1121 Q993.502 26.1121 998.363 31.2163 Q1003.22 36.3204 1003.22 46.6907 Z" fill="#000000" fill-rule="nonzero" fill-opacity="1" /><path clip-path="url(#clip370)" d="M1025.95 14.324 L1025.95 27.2059 L1041.3 27.2059 L1041.3 32.9987 L1025.95 32.9987 L1025.95 57.6282 Q1025.95 63.1779 1027.45 64.7578 Q1028.99 66.3376 1033.65 66.3376 L1041.3 66.3376 L1041.3 72.576 L1033.65 72.576 Q1025.02 72.576 1021.74 69.3758 Q1018.46 66.1351 1018.46 57.6282 L1018.46 32.9987 L1012.99 32.9987 L1012.99 27.2059 L1018.46 27.2059 L1018.46 14.324 L1025.95 14.324 Z" fill="#000000" fill-rule="nonzero" fill-opacity="1" /><path clip-path="url(#clip370)" d="M1071.72 49.7694 Q1062.69 49.7694 1059.21 51.8354 Q1055.72 53.9013 1055.72 58.8839 Q1055.72 62.8538 1058.32 65.2034 Q1060.95 67.5124 1065.45 67.5124 Q1071.64 67.5124 1075.37 63.1374 Q1079.14 58.7219 1079.14 51.4303 L1079.14 49.7694 L1071.72 49.7694 M1086.59 46.6907 L1086.59 72.576 L1079.14 72.576 L1079.14 65.6895 Q1076.59 69.8214 1072.78 71.8063 Q1068.97 73.7508 1063.46 73.7508 Q1056.49 73.7508 1052.36 69.8619 Q1048.27 65.9325 1048.27 59.3701 Q1048.27 51.7138 1053.37 47.825 Q1058.52 43.9361 1068.69 43.9361 L1079.14 43.9361 L1079.14 43.2069 Q1079.14 38.0623 1075.73 35.2672 Q1072.37 32.4315 1066.26 32.4315 Q1062.37 32.4315 1058.68 33.3632 Q1054.99 34.295 1051.59 36.1584 L1051.59 29.2718 Q1055.68 27.692 1059.53 26.9223 Q1063.38 26.1121 1067.03 26.1121 Q1076.87 26.1121 1081.73 31.2163 Q1086.59 36.3204 1086.59 46.6907 Z" fill="#000000" fill-rule="nonzero" fill-opacity="1" /><path clip-path="url(#clip370)" d="M1157.24 28.5427 L1157.24 35.5912 Q1154.08 33.9709 1150.68 33.1607 Q1147.27 32.3505 1143.63 32.3505 Q1138.08 32.3505 1135.28 34.0519 Q1132.53 35.7533 1132.53 39.156 Q1132.53 41.7486 1134.51 43.2475 Q1136.5 44.7058 1142.49 46.0426 L1145.05 46.6097 Q1152.99 48.3111 1156.31 51.4303 Q1159.67 54.509 1159.67 60.0587 Q1159.67 66.3781 1154.65 70.0644 Q1149.66 73.7508 1140.91 73.7508 Q1137.27 73.7508 1133.3 73.0216 Q1129.37 72.3329 1124.99 70.9151 L1124.99 63.2184 Q1129.13 65.3654 1133.14 66.4591 Q1137.15 67.5124 1141.08 67.5124 Q1146.34 67.5124 1149.18 65.73 Q1152.01 63.9071 1152.01 60.6258 Q1152.01 57.5877 1149.95 55.9673 Q1147.92 54.3469 1141 52.8481 L1138.4 52.2405 Q1131.48 50.7821 1128.4 47.7845 Q1125.32 44.7463 1125.32 39.4801 Q1125.32 33.0797 1129.86 29.5959 Q1134.39 26.1121 1142.74 26.1121 Q1146.87 26.1121 1150.51 26.7198 Q1154.16 27.3274 1157.24 28.5427 Z" fill="#000000" fill-rule="nonzero" fill-opacity="1" /><path clip-path="url(#clip370)" d="M1171.54 27.2059 L1178.99 27.2059 L1178.99 72.576 L1171.54 72.576 L1171.54 27.2059 M1171.54 9.54393 L1178.99 9.54393 L1178.99 18.9825 L1171.54 18.9825 L1171.54 9.54393 Z" fill="#000000" fill-rule="nonzero" fill-opacity="1" /><path clip-path="url(#clip370)" d="M1232.3 45.1919 L1232.3 72.576 L1224.85 72.576 L1224.85 45.4349 Q1224.85 38.994 1222.34 35.7938 Q1219.83 32.5936 1214.8 32.5936 Q1208.77 32.5936 1205.28 36.4419 Q1201.8 40.2903 1201.8 46.9338 L1201.8 72.576 L1194.3 72.576 L1194.3 27.2059 L1201.8 27.2059 L1201.8 34.2544 Q1204.47 30.163 1208.08 28.1376 Q1211.72 26.1121 1216.46 26.1121 Q1224.28 26.1121 1228.29 30.9732 Q1232.3 35.7938 1232.3 45.1919 Z" fill="#000000" fill-rule="nonzero" fill-opacity="1" /><path clip-path="url(#clip370)" d="M1277.02 49.3643 Q1277.02 41.2625 1273.66 36.8065 Q1270.34 32.3505 1264.3 32.3505 Q1258.31 32.3505 1254.95 36.8065 Q1251.63 41.2625 1251.63 49.3643 Q1251.63 57.4256 1254.95 61.8816 Q1258.31 66.3376 1264.3 66.3376 Q1270.34 66.3376 1273.66 61.8816 Q1277.02 57.4256 1277.02 49.3643 M1284.48 66.9452 Q1284.48 78.5308 1279.33 84.1616 Q1274.19 89.8329 1263.58 89.8329 Q1259.65 89.8329 1256.16 89.2252 Q1252.68 88.6581 1249.4 87.4428 L1249.4 80.1917 Q1252.68 81.9741 1255.88 82.8248 Q1259.08 83.6755 1262.4 83.6755 Q1269.73 83.6755 1273.38 79.8271 Q1277.02 76.0193 1277.02 68.282 L1277.02 64.5957 Q1274.72 68.6061 1271.11 70.5911 Q1267.5 72.576 1262.48 72.576 Q1254.14 72.576 1249.03 66.2161 Q1243.93 59.8562 1243.93 49.3643 Q1243.93 38.832 1249.03 32.472 Q1254.14 26.1121 1262.48 26.1121 Q1267.5 26.1121 1271.11 28.0971 Q1274.72 30.082 1277.02 34.0924 L1277.02 27.2059 L1284.48 27.2059 L1284.48 66.9452 Z" fill="#000000" fill-rule="nonzero" fill-opacity="1" /><path clip-path="url(#clip370)" d="M1299.06 54.671 L1299.06 27.2059 L1306.51 27.2059 L1306.51 54.3874 Q1306.51 60.8284 1309.03 64.0691 Q1311.54 67.2693 1316.56 67.2693 Q1322.6 67.2693 1326.08 63.421 Q1329.61 59.5726 1329.61 52.9291 L1329.61 27.2059 L1337.06 27.2059 L1337.06 72.576 L1329.61 72.576 L1329.61 65.6084 Q1326.89 69.7404 1323.29 71.7658 Q1319.72 73.7508 1314.98 73.7508 Q1307.16 73.7508 1303.11 68.8897 Q1299.06 64.0286 1299.06 54.671 M1317.82 26.1121 L1317.82 26.1121 Z" fill="#000000" fill-rule="nonzero" fill-opacity="1" /><path clip-path="url(#clip370)" d="M1352.41 9.54393 L1359.87 9.54393 L1359.87 72.576 L1352.41 72.576 L1352.41 9.54393 Z" fill="#000000" fill-rule="nonzero" fill-opacity="1" /><path clip-path="url(#clip370)" d="M1396.08 49.7694 Q1387.05 49.7694 1383.56 51.8354 Q1380.08 53.9013 1380.08 58.8839 Q1380.08 62.8538 1382.67 65.2034 Q1385.31 67.5124 1389.8 67.5124 Q1396 67.5124 1399.73 63.1374 Q1403.49 58.7219 1403.49 51.4303 L1403.49 49.7694 L1396.08 49.7694 M1410.95 46.6907 L1410.95 72.576 L1403.49 72.576 L1403.49 65.6895 Q1400.94 69.8214 1397.13 71.8063 Q1393.33 73.7508 1387.82 73.7508 Q1380.85 73.7508 1376.72 69.8619 Q1372.63 65.9325 1372.63 59.3701 Q1372.63 51.7138 1377.73 47.825 Q1382.87 43.9361 1393.04 43.9361 L1403.49 43.9361 L1403.49 43.2069 Q1403.49 38.0623 1400.09 35.2672 Q1396.73 32.4315 1390.61 32.4315 Q1386.72 32.4315 1383.04 33.3632 Q1379.35 34.295 1375.95 36.1584 L1375.95 29.2718 Q1380.04 27.692 1383.89 26.9223 Q1387.74 26.1121 1391.38 26.1121 Q1401.23 26.1121 1406.09 31.2163 Q1410.95 36.3204 1410.95 46.6907 Z" fill="#000000" fill-rule="nonzero" fill-opacity="1" /><path clip-path="url(#clip370)" d="M1452.59 34.1734 Q1451.33 33.4443 1449.84 33.1202 Q1448.38 32.7556 1446.6 32.7556 Q1440.28 32.7556 1436.87 36.8875 Q1433.51 40.9789 1433.51 48.6757 L1433.51 72.576 L1426.02 72.576 L1426.02 27.2059 L1433.51 27.2059 L1433.51 34.2544 Q1435.86 30.1225 1439.63 28.1376 Q1443.4 26.1121 1448.78 26.1121 Q1449.55 26.1121 1450.48 26.2337 Q1451.42 26.3147 1452.55 26.5172 L1452.59 34.1734 Z" fill="#000000" fill-rule="nonzero" fill-opacity="1" /><path clip-path="url(#clip370)" d="M1481.43 27.2059 L1489.33 27.2059 L1503.51 65.2844 L1517.69 27.2059 L1525.59 27.2059 L1508.57 72.576 L1498.45 72.576 L1481.43 27.2059 Z" fill="#000000" fill-rule="nonzero" fill-opacity="1" /><path clip-path="url(#clip370)" d="M1556.5 49.7694 Q1547.46 49.7694 1543.98 51.8354 Q1540.5 53.9013 1540.5 58.8839 Q1540.5 62.8538 1543.09 65.2034 Q1545.72 67.5124 1550.22 67.5124 Q1556.42 67.5124 1560.14 63.1374 Q1563.91 58.7219 1563.91 51.4303 L1563.91 49.7694 L1556.5 49.7694 M1571.36 46.6907 L1571.36 72.576 L1563.91 72.576 L1563.91 65.6895 Q1561.36 69.8214 1557.55 71.8063 Q1553.74 73.7508 1548.23 73.7508 Q1541.26 73.7508 1537.13 69.8619 Q1533.04 65.9325 1533.04 59.3701 Q1533.04 51.7138 1538.15 47.825 Q1543.29 43.9361 1553.46 43.9361 L1563.91 43.9361 L1563.91 43.2069 Q1563.91 38.0623 1560.51 35.2672 Q1557.14 32.4315 1551.03 32.4315 Q1547.14 32.4315 1543.45 33.3632 Q1539.77 34.295 1536.36 36.1584 L1536.36 29.2718 Q1540.45 27.692 1544.3 26.9223 Q1548.15 26.1121 1551.8 26.1121 Q1561.64 26.1121 1566.5 31.2163 Q1571.36 36.3204 1571.36 46.6907 Z" fill="#000000" fill-rule="nonzero" fill-opacity="1" /><path clip-path="url(#clip370)" d="M1586.72 9.54393 L1594.17 9.54393 L1594.17 72.576 L1586.72 72.576 L1586.72 9.54393 Z" fill="#000000" fill-rule="nonzero" fill-opacity="1" /><path clip-path="url(#clip370)" d="M1609 54.671 L1609 27.2059 L1616.45 27.2059 L1616.45 54.3874 Q1616.45 60.8284 1618.96 64.0691 Q1621.47 67.2693 1626.5 67.2693 Q1632.53 67.2693 1636.02 63.421 Q1639.54 59.5726 1639.54 52.9291 L1639.54 27.2059 L1646.99 27.2059 L1646.99 72.576 L1639.54 72.576 L1639.54 65.6084 Q1636.83 69.7404 1633.22 71.7658 Q1629.66 73.7508 1624.92 73.7508 Q1617.1 73.7508 1613.05 68.8897 Q1609 64.0286 1609 54.671 M1627.75 26.1121 L1627.75 26.1121 Z" fill="#000000" fill-rule="nonzero" fill-opacity="1" /><path clip-path="url(#clip370)" d="M1701.15 48.0275 L1701.15 51.6733 L1666.88 51.6733 Q1667.37 59.3701 1671.5 63.421 Q1675.67 67.4314 1683.09 67.4314 Q1687.38 67.4314 1691.39 66.3781 Q1695.44 65.3249 1699.41 63.2184 L1699.41 70.267 Q1695.4 71.9684 1691.19 72.8596 Q1686.98 73.7508 1682.64 73.7508 Q1671.79 73.7508 1665.43 67.4314 Q1659.11 61.1119 1659.11 50.3365 Q1659.11 39.1965 1665.1 32.6746 Q1671.14 26.1121 1681.35 26.1121 Q1690.5 26.1121 1695.81 32.0264 Q1701.15 37.9003 1701.15 48.0275 M1693.7 45.84 Q1693.62 39.7232 1690.26 36.0774 Q1686.94 32.4315 1681.43 32.4315 Q1675.19 32.4315 1671.42 35.9558 Q1667.69 39.4801 1667.13 45.8805 L1693.7 45.84 Z" fill="#000000" fill-rule="nonzero" fill-opacity="1" /><path clip-path="url(#clip370)" d="M1742.31 28.5427 L1742.31 35.5912 Q1739.15 33.9709 1735.75 33.1607 Q1732.35 32.3505 1728.7 32.3505 Q1723.15 32.3505 1720.36 34.0519 Q1717.6 35.7533 1717.6 39.156 Q1717.6 41.7486 1719.59 43.2475 Q1721.57 44.7058 1727.57 46.0426 L1730.12 46.6097 Q1738.06 48.3111 1741.38 51.4303 Q1744.74 54.509 1744.74 60.0587 Q1744.74 66.3781 1739.72 70.0644 Q1734.74 73.7508 1725.99 73.7508 Q1722.34 73.7508 1718.37 73.0216 Q1714.44 72.3329 1710.07 70.9151 L1710.07 63.2184 Q1714.2 65.3654 1718.21 66.4591 Q1722.22 67.5124 1726.15 67.5124 Q1731.41 67.5124 1734.25 65.73 Q1737.09 63.9071 1737.09 60.6258 Q1737.09 57.5877 1735.02 55.9673 Q1732.99 54.3469 1726.07 52.8481 L1723.47 52.2405 Q1716.55 50.7821 1713.47 47.7845 Q1710.39 44.7463 1710.39 39.4801 Q1710.39 33.0797 1714.93 29.5959 Q1719.46 26.1121 1727.81 26.1121 Q1731.94 26.1121 1735.59 26.7198 Q1739.23 27.3274 1742.31 28.5427 Z" fill="#000000" fill-rule="nonzero" fill-opacity="1" /><circle clip-path="url(#clip371)" cx="354.37" cy="164.016" r="14.4" fill="#009af9" fill-rule="evenodd" fill-opacity="1" stroke="none"/>
<circle clip-path="url(#clip371)" cx="404.119" cy="950.145" r="14.4" fill="#009af9" fill-rule="evenodd" fill-opacity="1" stroke="none"/>
<circle clip-path="url(#clip371)" cx="453.867" cy="1082.85" r="14.4" fill="#009af9" fill-rule="evenodd" fill-opacity="1" stroke="none"/>
<circle clip-path="url(#clip371)" cx="503.615" cy="1173.64" r="14.4" fill="#009af9" fill-rule="evenodd" fill-opacity="1" stroke="none"/>
<circle clip-path="url(#clip371)" cx="553.363" cy="1216.76" r="14.4" fill="#009af9" fill-rule="evenodd" fill-opacity="1" stroke="none"/>
<circle clip-path="url(#clip371)" cx="603.111" cy="1224.19" r="14.4" fill="#009af9" fill-rule="evenodd" fill-opacity="1" stroke="none"/>
<circle clip-path="url(#clip371)" cx="652.86" cy="1230.75" r="14.4" fill="#009af9" fill-rule="evenodd" fill-opacity="1" stroke="none"/>
<circle clip-path="url(#clip371)" cx="702.608" cy="1266.54" r="14.4" fill="#009af9" fill-rule="evenodd" fill-opacity="1" stroke="none"/>
<circle clip-path="url(#clip371)" cx="752.356" cy="1269.75" r="14.4" fill="#009af9" fill-rule="evenodd" fill-opacity="1" stroke="none"/>
<circle clip-path="url(#clip371)" cx="802.104" cy="1276.57" r="14.4" fill="#009af9" fill-rule="evenodd" fill-opacity="1" stroke="none"/>
<circle clip-path="url(#clip371)" cx="851.853" cy="1284.67" r="14.4" fill="#009af9" fill-rule="evenodd" fill-opacity="1" stroke="none"/>
<circle clip-path="url(#clip371)" cx="901.601" cy="1291.31" r="14.4" fill="#009af9" fill-rule="evenodd" fill-opacity="1" stroke="none"/>
<circle clip-path="url(#clip371)" cx="951.349" cy="1295.59" r="14.4" fill="#009af9" fill-rule="evenodd" fill-opacity="1" stroke="none"/>
<circle clip-path="url(#clip371)" cx="1001.1" cy="1300.19" r="14.4" fill="#009af9" fill-rule="evenodd" fill-opacity="1" stroke="none"/>
<circle clip-path="url(#clip371)" cx="1050.85" cy="1304.88" r="14.4" fill="#009af9" fill-rule="evenodd" fill-opacity="1" stroke="none"/>
<circle clip-path="url(#clip371)" cx="1100.59" cy="1307.59" r="14.4" fill="#009af9" fill-rule="evenodd" fill-opacity="1" stroke="none"/>
<circle clip-path="url(#clip371)" cx="1150.34" cy="1310.05" r="14.4" fill="#009af9" fill-rule="evenodd" fill-opacity="1" stroke="none"/>
<circle clip-path="url(#clip371)" cx="1200.09" cy="1314.31" r="14.4" fill="#009af9" fill-rule="evenodd" fill-opacity="1" stroke="none"/>
<circle clip-path="url(#clip371)" cx="1249.84" cy="1314.97" r="14.4" fill="#009af9" fill-rule="evenodd" fill-opacity="1" stroke="none"/>
<circle clip-path="url(#clip371)" cx="1299.59" cy="1317.91" r="14.4" fill="#009af9" fill-rule="evenodd" fill-opacity="1" stroke="none"/>
<circle clip-path="url(#clip371)" cx="1349.33" cy="1318.4" r="14.4" fill="#009af9" fill-rule="evenodd" fill-opacity="1" stroke="none"/>
<circle clip-path="url(#clip371)" cx="1399.08" cy="1320.6" r="14.4" fill="#009af9" fill-rule="evenodd" fill-opacity="1" stroke="none"/>
<circle clip-path="url(#clip371)" cx="1448.83" cy="1323.17" r="14.4" fill="#009af9" fill-rule="evenodd" fill-opacity="1" stroke="none"/>
<circle clip-path="url(#clip371)" cx="1498.58" cy="1323.6" r="14.4" fill="#009af9" fill-rule="evenodd" fill-opacity="1" stroke="none"/>
<circle clip-path="url(#clip371)" cx="1548.33" cy="1324.04" r="14.4" fill="#009af9" fill-rule="evenodd" fill-opacity="1" stroke="none"/>
<circle clip-path="url(#clip371)" cx="1598.08" cy="1324.86" r="14.4" fill="#009af9" fill-rule="evenodd" fill-opacity="1" stroke="none"/>
<circle clip-path="url(#clip371)" cx="1647.82" cy="1328.11" r="14.4" fill="#009af9" fill-rule="evenodd" fill-opacity="1" stroke="none"/>
<circle clip-path="url(#clip371)" cx="1697.57" cy="1328.6" r="14.4" fill="#009af9" fill-rule="evenodd" fill-opacity="1" stroke="none"/>
<circle clip-path="url(#clip371)" cx="1747.32" cy="1329.25" r="14.4" fill="#009af9" fill-rule="evenodd" fill-opacity="1" stroke="none"/>
<circle clip-path="url(#clip371)" cx="1797.07" cy="1330.11" r="14.4" fill="#009af9" fill-rule="evenodd" fill-opacity="1" stroke="none"/>
<circle clip-path="url(#clip371)" cx="1846.82" cy="1330.68" r="14.4" fill="#009af9" fill-rule="evenodd" fill-opacity="1" stroke="none"/>
<circle clip-path="url(#clip371)" cx="1896.56" cy="1331.77" r="14.4" fill="#009af9" fill-rule="evenodd" fill-opacity="1" stroke="none"/>
<circle clip-path="url(#clip371)" cx="1946.31" cy="1332.42" r="14.4" fill="#009af9" fill-rule="evenodd" fill-opacity="1" stroke="none"/>
<circle clip-path="url(#clip371)" cx="1996.06" cy="1332.96" r="14.4" fill="#009af9" fill-rule="evenodd" fill-opacity="1" stroke="none"/>
<circle clip-path="url(#clip371)" cx="2045.81" cy="1333.62" r="14.4" fill="#009af9" fill-rule="evenodd" fill-opacity="1" stroke="none"/>
<circle clip-path="url(#clip371)" cx="2095.56" cy="1334.26" r="14.4" fill="#009af9" fill-rule="evenodd" fill-opacity="1" stroke="none"/>
<circle clip-path="url(#clip371)" cx="2145.31" cy="1334.73" r="14.4" fill="#009af9" fill-rule="evenodd" fill-opacity="1" stroke="none"/>
<circle clip-path="url(#clip371)" cx="2195.05" cy="1335.39" r="14.4" fill="#009af9" fill-rule="evenodd" fill-opacity="1" stroke="none"/>
<circle clip-path="url(#clip371)" cx="2244.8" cy="1335.58" r="14.4" fill="#009af9" fill-rule="evenodd" fill-opacity="1" stroke="none"/>
<circle clip-path="url(#clip371)" cx="2294.55" cy="1335.87" r="14.4" fill="#009af9" fill-rule="evenodd" fill-opacity="1" stroke="none"/>
<circle clip-path="url(#clip371)" cx="2344.3" cy="1336.49" r="14.4" fill="#009af9" fill-rule="evenodd" fill-opacity="1" stroke="none"/>
</svg>
