<?xml version="1.0" encoding="utf-8"?>
<svg xmlns="http://www.w3.org/2000/svg" xmlns:xlink="http://www.w3.org/1999/xlink" width="600" height="400" viewBox="0 0 2400 1600">
<defs>
  <clipPath id="clip680">
    <rect x="0" y="0" width="2400" height="1600"/>
  </clipPath>
</defs>
<path clip-path="url(#clip680)" d="M0 1600 L2400 1600 L2400 0 L0 0  Z" fill="#ffffff" fill-rule="evenodd" fill-opacity="1"/>
<defs>
  <clipPath id="clip681">
    <rect x="1404" y="123" width="949" height="1301"/>
  </clipPath>
</defs>
<path clip-path="url(#clip680)" d="M234.125 1423.18 L1182.1 1423.18 L1182.1 123.472 L234.125 123.472  Z" fill="#ffffff" fill-rule="evenodd" fill-opacity="1"/>
<defs>
  <clipPath id="clip682">
    <rect x="234" y="123" width="949" height="1301"/>
  </clipPath>
</defs>
<polyline clip-path="url(#clip682)" style="stroke:#000000; stroke-linecap:round; stroke-linejoin:round; stroke-width:2; stroke-opacity:0.1; fill:none" points="260.955,1423.18 260.955,123.472 "/>
<polyline clip-path="url(#clip682)" style="stroke:#000000; stroke-linecap:round; stroke-linejoin:round; stroke-width:2; stroke-opacity:0.1; fill:none" points="423.557,1423.18 423.557,123.472 "/>
<polyline clip-path="url(#clip682)" style="stroke:#000000; stroke-linecap:round; stroke-linejoin:round; stroke-width:2; stroke-opacity:0.1; fill:none" points="504.858,1423.18 504.858,123.472 "/>
<polyline clip-path="url(#clip682)" style="stroke:#000000; stroke-linecap:round; stroke-linejoin:round; stroke-width:2; stroke-opacity:0.1; fill:none" points="1155.27,1423.18 1155.27,123.472 "/>
<polyline clip-path="url(#clip682)" style="stroke:#000000; stroke-linecap:round; stroke-linejoin:round; stroke-width:2; stroke-opacity:0.1; fill:none" points="234.125,1386.4 1182.1,1386.4 "/>
<polyline clip-path="url(#clip682)" style="stroke:#000000; stroke-linecap:round; stroke-linejoin:round; stroke-width:2; stroke-opacity:0.1; fill:none" points="234.125,1053.26 1182.1,1053.26 "/>
<polyline clip-path="url(#clip682)" style="stroke:#000000; stroke-linecap:round; stroke-linejoin:round; stroke-width:2; stroke-opacity:0.1; fill:none" points="234.125,720.128 1182.1,720.128 "/>
<polyline clip-path="url(#clip682)" style="stroke:#000000; stroke-linecap:round; stroke-linejoin:round; stroke-width:2; stroke-opacity:0.1; fill:none" points="234.125,386.993 1182.1,386.993 "/>
<polyline clip-path="url(#clip680)" style="stroke:#000000; stroke-linecap:round; stroke-linejoin:round; stroke-width:4; stroke-opacity:1; fill:none" points="234.125,1423.18 1182.1,1423.18 "/>
<polyline clip-path="url(#clip680)" style="stroke:#000000; stroke-linecap:round; stroke-linejoin:round; stroke-width:4; stroke-opacity:1; fill:none" points="260.955,1423.18 260.955,1404.28 "/>
<polyline clip-path="url(#clip680)" style="stroke:#000000; stroke-linecap:round; stroke-linejoin:round; stroke-width:4; stroke-opacity:1; fill:none" points="423.557,1423.18 423.557,1404.28 "/>
<polyline clip-path="url(#clip680)" style="stroke:#000000; stroke-linecap:round; stroke-linejoin:round; stroke-width:4; stroke-opacity:1; fill:none" points="504.858,1423.18 504.858,1404.28 "/>
<polyline clip-path="url(#clip680)" style="stroke:#000000; stroke-linecap:round; stroke-linejoin:round; stroke-width:4; stroke-opacity:1; fill:none" points="1155.27,1423.18 1155.27,1404.28 "/>
<path clip-path="url(#clip680)" d="M251.337 1481.64 L258.976 1481.64 L258.976 1455.28 L250.666 1456.95 L250.666 1452.69 L258.929 1451.02 L263.605 1451.02 L263.605 1481.64 L271.244 1481.64 L271.244 1485.58 L251.337 1485.58 L251.337 1481.64 Z" fill="#000000" fill-rule="nonzero" fill-opacity="1" /><path clip-path="url(#clip680)" d="M427.805 1466.95 Q431.161 1467.66 433.036 1469.93 Q434.934 1472.2 434.934 1475.53 Q434.934 1480.65 431.416 1483.45 Q427.897 1486.25 421.416 1486.25 Q419.24 1486.25 416.925 1485.81 Q414.633 1485.39 412.18 1484.54 L412.18 1480.02 Q414.124 1481.16 416.439 1481.74 Q418.754 1482.32 421.277 1482.32 Q425.675 1482.32 427.967 1480.58 Q430.281 1478.84 430.281 1475.53 Q430.281 1472.48 428.129 1470.77 Q425.999 1469.03 422.18 1469.03 L418.152 1469.03 L418.152 1465.19 L422.365 1465.19 Q425.814 1465.19 427.643 1463.82 Q429.471 1462.43 429.471 1459.84 Q429.471 1457.18 427.573 1455.77 Q425.698 1454.33 422.18 1454.33 Q420.258 1454.33 418.059 1454.75 Q415.86 1455.16 413.221 1456.04 L413.221 1451.88 Q415.883 1451.14 418.198 1450.77 Q420.536 1450.39 422.596 1450.39 Q427.92 1450.39 431.022 1452.83 Q434.124 1455.23 434.124 1459.35 Q434.124 1462.22 432.481 1464.21 Q430.837 1466.18 427.805 1466.95 Z" fill="#000000" fill-rule="nonzero" fill-opacity="1" /><path clip-path="url(#clip680)" d="M507.867 1455.09 L496.062 1473.54 L507.867 1473.54 L507.867 1455.09 M506.64 1451.02 L512.52 1451.02 L512.52 1473.54 L517.451 1473.54 L517.451 1477.43 L512.52 1477.43 L512.52 1485.58 L507.867 1485.58 L507.867 1477.43 L492.266 1477.43 L492.266 1472.92 L506.64 1451.02 Z" fill="#000000" fill-rule="nonzero" fill-opacity="1" /><path clip-path="url(#clip680)" d="M1130.75 1481.64 L1138.39 1481.64 L1138.39 1455.28 L1130.08 1456.95 L1130.08 1452.69 L1138.35 1451.02 L1143.02 1451.02 L1143.02 1481.64 L1150.66 1481.64 L1150.66 1485.58 L1130.75 1485.58 L1130.75 1481.64 Z" fill="#000000" fill-rule="nonzero" fill-opacity="1" /><path clip-path="url(#clip680)" d="M1164.13 1481.64 L1180.45 1481.64 L1180.45 1485.58 L1158.51 1485.58 L1158.51 1481.64 Q1161.17 1478.89 1165.75 1474.26 Q1170.36 1469.61 1171.54 1468.27 Q1173.79 1465.74 1174.66 1464.01 Q1175.57 1462.25 1175.57 1460.56 Q1175.57 1457.8 1173.62 1456.07 Q1171.7 1454.33 1168.6 1454.33 Q1166.4 1454.33 1163.95 1455.09 Q1161.52 1455.86 1158.74 1457.41 L1158.74 1452.69 Q1161.56 1451.55 1164.02 1450.97 Q1166.47 1450.39 1168.51 1450.39 Q1173.88 1450.39 1177.07 1453.08 Q1180.27 1455.77 1180.27 1460.26 Q1180.27 1462.39 1179.46 1464.31 Q1178.67 1466.2 1176.56 1468.8 Q1175.98 1469.47 1172.88 1472.69 Q1169.78 1475.88 1164.13 1481.64 Z" fill="#000000" fill-rule="nonzero" fill-opacity="1" /><path clip-path="url(#clip680)" d="M720.948 1536.84 Q720.948 1538.67 719.821 1539.77 Q718.726 1540.86 717.341 1540.86 Q716.117 1540.86 715.473 1540.15 Q714.829 1539.45 714.829 1538.54 Q714.829 1538.16 714.99 1537.67 Q715.151 1537.16 715.505 1536.55 Q715.891 1535.94 716.697 1535.48 Q717.502 1535.03 718.597 1534.97 Q718.371 1534.74 718.307 1534.71 Q717.824 1534.32 716.922 1534.2 Q716.793 1534.13 716.342 1534.13 Q714.12 1534.13 711.866 1535.77 Q709.643 1537.38 706.906 1540.44 Q703.46 1544.02 701.238 1545.34 Q710.996 1546.63 710.996 1552.26 Q710.996 1553.2 710.738 1554.32 Q710.223 1556.45 710.223 1558 Q710.223 1561.09 712.317 1561.09 Q714.346 1561.09 715.634 1559.03 Q716.954 1556.97 718.049 1552.94 Q718.21 1552.2 718.371 1551.97 Q718.532 1551.75 718.983 1551.75 Q719.788 1551.75 719.788 1552.39 Q719.048 1556.16 717.405 1559.06 Q715.312 1562.57 712.188 1562.57 Q709.579 1562.57 707.84 1560.77 Q706.133 1558.93 706.133 1556.03 Q706.133 1555.32 706.391 1553.71 Q706.584 1553.07 706.584 1552.33 Q706.584 1550.81 705.747 1549.69 Q704.909 1548.53 703.557 1547.95 Q702.204 1547.37 701.077 1547.11 Q699.982 1546.82 698.919 1546.72 Q695.698 1560.35 695.247 1561.18 Q694.958 1561.76 694.313 1562.15 Q693.669 1562.57 692.993 1562.57 Q692.349 1562.57 691.705 1562.12 Q691.093 1561.7 691.093 1560.7 Q691.093 1560.19 691.351 1559.25 L700.916 1521.25 L701.109 1519.96 Q701.109 1519.57 700.948 1519.38 Q700.819 1519.16 700.046 1518.99 Q699.305 1518.83 697.824 1518.83 Q697.212 1518.83 696.922 1518.8 Q696.665 1518.77 696.439 1518.61 Q696.214 1518.42 696.214 1518.03 Q696.214 1517.48 696.439 1517.19 Q696.697 1516.87 696.89 1516.8 Q697.083 1516.74 697.47 1516.71 Q698.017 1516.68 699.853 1516.52 Q701.689 1516.32 703.267 1516.19 Q704.845 1516.06 705.521 1516.06 Q705.908 1516.06 706.101 1516.26 Q706.326 1516.42 706.358 1516.61 L706.391 1516.77 L699.531 1544.6 Q702.365 1543.47 706.842 1538.48 Q712.027 1532.68 716.471 1532.68 Q718.564 1532.68 719.756 1533.97 Q720.948 1535.23 720.948 1536.84 Z" fill="#000000" fill-rule="nonzero" fill-opacity="1" /><polyline clip-path="url(#clip680)" style="stroke:#000000; stroke-linecap:round; stroke-linejoin:round; stroke-width:4; stroke-opacity:1; fill:none" points="234.125,1423.18 234.125,123.472 "/>
<polyline clip-path="url(#clip680)" style="stroke:#000000; stroke-linecap:round; stroke-linejoin:round; stroke-width:4; stroke-opacity:1; fill:none" points="234.125,1386.4 253.023,1386.4 "/>
<polyline clip-path="url(#clip680)" style="stroke:#000000; stroke-linecap:round; stroke-linejoin:round; stroke-width:4; stroke-opacity:1; fill:none" points="234.125,1053.26 253.023,1053.26 "/>
<polyline clip-path="url(#clip680)" style="stroke:#000000; stroke-linecap:round; stroke-linejoin:round; stroke-width:4; stroke-opacity:1; fill:none" points="234.125,720.128 253.023,720.128 "/>
<polyline clip-path="url(#clip680)" style="stroke:#000000; stroke-linecap:round; stroke-linejoin:round; stroke-width:4; stroke-opacity:1; fill:none" points="234.125,386.993 253.023,386.993 "/>
<path clip-path="url(#clip680)" d="M186.181 1372.19 Q182.57 1372.19 180.741 1375.76 Q178.936 1379.3 178.936 1386.43 Q178.936 1393.54 180.741 1397.1 Q182.57 1400.64 186.181 1400.64 Q189.815 1400.64 191.621 1397.1 Q193.45 1393.54 193.45 1386.43 Q193.45 1379.3 191.621 1375.76 Q189.815 1372.19 186.181 1372.19 M186.181 1368.49 Q191.991 1368.49 195.047 1373.1 Q198.125 1377.68 198.125 1386.43 Q198.125 1395.16 195.047 1399.76 Q191.991 1404.35 186.181 1404.35 Q180.371 1404.35 177.292 1399.76 Q174.237 1395.16 174.237 1386.43 Q174.237 1377.68 177.292 1373.1 Q180.371 1368.49 186.181 1368.49 Z" fill="#000000" fill-rule="nonzero" fill-opacity="1" /><path clip-path="url(#clip680)" d="M116.668 1066.61 L124.306 1066.61 L124.306 1040.24 L115.996 1041.91 L115.996 1037.65 L124.26 1035.98 L128.936 1035.98 L128.936 1066.61 L136.575 1066.61 L136.575 1070.54 L116.668 1070.54 L116.668 1066.61 Z" fill="#000000" fill-rule="nonzero" fill-opacity="1" /><path clip-path="url(#clip680)" d="M156.019 1039.06 Q152.408 1039.06 150.579 1042.63 Q148.774 1046.17 148.774 1053.3 Q148.774 1060.4 150.579 1063.97 Q152.408 1067.51 156.019 1067.51 Q159.653 1067.51 161.459 1063.97 Q163.288 1060.4 163.288 1053.3 Q163.288 1046.17 161.459 1042.63 Q159.653 1039.06 156.019 1039.06 M156.019 1035.36 Q161.829 1035.36 164.885 1039.96 Q167.964 1044.55 167.964 1053.3 Q167.964 1062.02 164.885 1066.63 Q161.829 1071.21 156.019 1071.21 Q150.209 1071.21 147.13 1066.63 Q144.075 1062.02 144.075 1053.3 Q144.075 1044.55 147.13 1039.96 Q150.209 1035.36 156.019 1035.36 Z" fill="#000000" fill-rule="nonzero" fill-opacity="1" /><path clip-path="url(#clip680)" d="M186.181 1039.06 Q182.57 1039.06 180.741 1042.63 Q178.936 1046.17 178.936 1053.3 Q178.936 1060.4 180.741 1063.97 Q182.57 1067.51 186.181 1067.51 Q189.815 1067.51 191.621 1063.97 Q193.45 1060.4 193.45 1053.3 Q193.45 1046.17 191.621 1042.63 Q189.815 1039.06 186.181 1039.06 M186.181 1035.36 Q191.991 1035.36 195.047 1039.96 Q198.125 1044.55 198.125 1053.3 Q198.125 1062.02 195.047 1066.63 Q191.991 1071.21 186.181 1071.21 Q180.371 1071.21 177.292 1066.63 Q174.237 1062.02 174.237 1053.3 Q174.237 1044.55 177.292 1039.96 Q180.371 1035.36 186.181 1035.36 Z" fill="#000000" fill-rule="nonzero" fill-opacity="1" /><path clip-path="url(#clip680)" d="M119.885 733.472 L136.204 733.472 L136.204 737.408 L114.26 737.408 L114.26 733.472 Q116.922 730.718 121.505 726.088 Q126.112 721.435 127.292 720.093 Q129.538 717.57 130.417 715.834 Q131.32 714.074 131.32 712.384 Q131.32 709.63 129.376 707.894 Q127.455 706.158 124.353 706.158 Q122.154 706.158 119.7 706.922 Q117.269 707.685 114.492 709.236 L114.492 704.514 Q117.316 703.38 119.769 702.801 Q122.223 702.223 124.26 702.223 Q129.63 702.223 132.825 704.908 Q136.019 707.593 136.019 712.084 Q136.019 714.213 135.209 716.134 Q134.422 718.033 132.316 720.625 Q131.737 721.296 128.635 724.514 Q125.533 727.708 119.885 733.472 Z" fill="#000000" fill-rule="nonzero" fill-opacity="1" /><path clip-path="url(#clip680)" d="M156.019 705.926 Q152.408 705.926 150.579 709.491 Q148.774 713.033 148.774 720.162 Q148.774 727.269 150.579 730.833 Q152.408 734.375 156.019 734.375 Q159.653 734.375 161.459 730.833 Q163.288 727.269 163.288 720.162 Q163.288 713.033 161.459 709.491 Q159.653 705.926 156.019 705.926 M156.019 702.223 Q161.829 702.223 164.885 706.829 Q167.964 711.412 167.964 720.162 Q167.964 728.889 164.885 733.495 Q161.829 738.079 156.019 738.079 Q150.209 738.079 147.13 733.495 Q144.075 728.889 144.075 720.162 Q144.075 711.412 147.13 706.829 Q150.209 702.223 156.019 702.223 Z" fill="#000000" fill-rule="nonzero" fill-opacity="1" /><path clip-path="url(#clip680)" d="M186.181 705.926 Q182.57 705.926 180.741 709.491 Q178.936 713.033 178.936 720.162 Q178.936 727.269 180.741 730.833 Q182.57 734.375 186.181 734.375 Q189.815 734.375 191.621 730.833 Q193.45 727.269 193.45 720.162 Q193.45 713.033 191.621 709.491 Q189.815 705.926 186.181 705.926 M186.181 702.223 Q191.991 702.223 195.047 706.829 Q198.125 711.412 198.125 720.162 Q198.125 728.889 195.047 733.495 Q191.991 738.079 186.181 738.079 Q180.371 738.079 177.292 733.495 Q174.237 728.889 174.237 720.162 Q174.237 711.412 177.292 706.829 Q180.371 702.223 186.181 702.223 Z" fill="#000000" fill-rule="nonzero" fill-opacity="1" /><path clip-path="url(#clip680)" d="M130.024 385.639 Q133.38 386.357 135.255 388.625 Q137.154 390.894 137.154 394.227 Q137.154 399.343 133.635 402.144 Q130.117 404.945 123.635 404.945 Q121.459 404.945 119.144 404.505 Q116.853 404.088 114.399 403.232 L114.399 398.718 Q116.343 399.852 118.658 400.431 Q120.973 401.01 123.496 401.01 Q127.894 401.01 130.186 399.273 Q132.501 397.537 132.501 394.227 Q132.501 391.172 130.348 389.459 Q128.218 387.723 124.399 387.723 L120.371 387.723 L120.371 383.88 L124.584 383.88 Q128.033 383.88 129.862 382.514 Q131.691 381.125 131.691 378.533 Q131.691 375.871 129.792 374.459 Q127.917 373.024 124.399 373.024 Q122.478 373.024 120.279 373.44 Q118.08 373.857 115.441 374.737 L115.441 370.57 Q118.103 369.829 120.418 369.459 Q122.755 369.088 124.816 369.088 Q130.14 369.088 133.242 371.519 Q136.343 373.926 136.343 378.047 Q136.343 380.917 134.7 382.908 Q133.056 384.875 130.024 385.639 Z" fill="#000000" fill-rule="nonzero" fill-opacity="1" /><path clip-path="url(#clip680)" d="M156.019 372.792 Q152.408 372.792 150.579 376.357 Q148.774 379.899 148.774 387.028 Q148.774 394.135 150.579 397.699 Q152.408 401.241 156.019 401.241 Q159.653 401.241 161.459 397.699 Q163.288 394.135 163.288 387.028 Q163.288 379.899 161.459 376.357 Q159.653 372.792 156.019 372.792 M156.019 369.088 Q161.829 369.088 164.885 373.695 Q167.964 378.278 167.964 387.028 Q167.964 395.755 164.885 400.361 Q161.829 404.945 156.019 404.945 Q150.209 404.945 147.13 400.361 Q144.075 395.755 144.075 387.028 Q144.075 378.278 147.13 373.695 Q150.209 369.088 156.019 369.088 Z" fill="#000000" fill-rule="nonzero" fill-opacity="1" /><path clip-path="url(#clip680)" d="M186.181 372.792 Q182.57 372.792 180.741 376.357 Q178.936 379.899 178.936 387.028 Q178.936 394.135 180.741 397.699 Q182.57 401.241 186.181 401.241 Q189.815 401.241 191.621 397.699 Q193.45 394.135 193.45 387.028 Q193.45 379.899 191.621 376.357 Q189.815 372.792 186.181 372.792 M186.181 369.088 Q191.991 369.088 195.047 373.695 Q198.125 378.278 198.125 387.028 Q198.125 395.755 195.047 400.361 Q191.991 404.945 186.181 404.945 Q180.371 404.945 177.292 400.361 Q174.237 395.755 174.237 387.028 Q174.237 378.278 177.292 373.695 Q180.371 369.088 186.181 369.088 Z" fill="#000000" fill-rule="nonzero" fill-opacity="1" /><path clip-path="url(#clip680)" d="M26.8313 773.1 Q29.0857 773.1 29.0857 776.32 L29.0857 783.566 Q31.9842 781.537 36.2676 781.537 Q39.9391 781.537 43.3851 783.051 Q46.7989 784.533 49.1821 786.916 Q51.5654 789.267 53.0146 792.23 Q54.4317 795.193 54.4317 798.091 Q54.4317 802.503 51.4366 805.241 Q48.4414 807.978 43.997 807.978 Q41.646 807.978 39.0373 807.173 Q36.4286 806.336 34.0132 804.758 Q31.5655 803.18 29.601 801.119 Q27.6364 799.025 26.4448 796.32 Q25.2532 793.582 25.2532 790.716 L25.2532 775.676 Q25.2532 774.871 25.3176 774.452 Q25.3498 774.001 25.7363 773.55 Q26.0905 773.1 26.8313 773.1 M35.4947 785.756 Q34.7217 785.756 34.0454 785.853 Q33.3369 785.95 32.4029 786.304 Q31.4367 786.658 30.7604 787.27 Q30.0519 787.882 29.5688 789.074 Q29.0857 790.233 29.0857 791.811 Q29.0857 794.033 30.3095 796.481 Q31.5333 798.929 34.5607 800.797 Q37.1372 802.342 40.4866 803.115 Q43.836 803.888 45.8327 803.888 Q49.2466 803.888 51.1145 802.246 Q52.9502 800.571 52.9502 798.027 Q52.9502 795.933 51.5332 793.55 Q50.0839 791.167 47.3464 789.331 Q44.9632 787.721 41.4849 786.755 Q38.0067 785.756 35.4947 785.756 Z" fill="#000000" fill-rule="nonzero" fill-opacity="1" /><path clip-path="url(#clip680)" d="M55.9689 745.509 Q57.2539 745.509 58.0204 746.298 Q58.7869 747.064 58.7869 748.034 Q58.7869 748.89 58.291 749.341 Q57.795 749.792 57.1638 749.792 Q56.8932 749.792 56.5551 749.68 Q56.1944 749.567 55.766 749.319 Q55.3377 749.048 55.0221 748.485 Q54.7065 747.921 54.6614 747.155 Q54.5036 747.312 54.481 747.357 Q54.2105 747.696 54.1203 748.327 Q54.0752 748.417 54.0752 748.733 Q54.0752 750.288 55.225 751.866 Q56.3522 753.422 58.4939 755.338 Q60.9963 757.75 61.9206 759.306 Q62.8223 752.475 66.7676 752.475 Q67.4213 752.475 68.2104 752.655 Q69.6983 753.016 70.7804 753.016 Q72.9446 753.016 72.9446 751.551 Q72.9446 750.13 71.5018 749.229 Q70.059 748.304 67.241 747.538 Q66.7225 747.425 66.5647 747.312 Q66.4069 747.2 66.4069 746.884 Q66.4069 746.32 66.8577 746.32 Q69.4954 746.839 71.5244 747.989 Q73.9817 749.454 73.9817 751.641 Q73.9817 753.467 72.7192 754.684 Q71.4342 755.879 69.4052 755.879 Q68.9092 755.879 67.782 755.699 Q67.3312 755.564 66.8126 755.564 Q65.7531 755.564 64.964 756.15 Q64.1524 756.736 63.7466 757.683 Q63.3409 758.63 63.1605 759.419 Q62.9576 760.185 62.89 760.929 Q72.4261 763.183 73.0123 763.499 Q73.4181 763.702 73.6886 764.153 Q73.9817 764.604 73.9817 765.077 Q73.9817 765.528 73.6661 765.979 Q73.373 766.407 72.6741 766.407 Q72.3134 766.407 71.6596 766.227 L45.0576 759.531 L44.1558 759.396 Q43.8853 759.396 43.75 759.509 Q43.5922 759.599 43.4795 760.14 Q43.3668 760.658 43.3668 761.696 Q43.3668 762.124 43.3442 762.327 Q43.3217 762.507 43.209 762.665 Q43.0737 762.823 42.8032 762.823 Q42.4199 762.823 42.217 762.665 Q41.9916 762.485 41.9465 762.349 Q41.9014 762.214 41.8789 761.944 Q41.8563 761.56 41.7436 760.275 Q41.6083 758.99 41.5182 757.886 Q41.428 756.781 41.428 756.307 Q41.428 756.037 41.5633 755.902 Q41.676 755.744 41.8112 755.721 L41.924 755.699 L61.4021 760.501 Q60.613 758.517 57.1187 755.383 Q53.0607 751.754 53.0607 748.642 Q53.0607 747.177 53.9625 746.343 Q54.8417 745.509 55.9689 745.509 Z" fill="#000000" fill-rule="nonzero" fill-opacity="1" /><path clip-path="url(#clip680)" d="M432.933 14.0809 L432.933 22.0612 Q428.274 19.8332 424.142 18.7395 Q420.01 17.6457 416.162 17.6457 Q409.478 17.6457 405.832 20.2383 Q402.227 22.8309 402.227 27.611 Q402.227 31.6214 404.617 33.6873 Q407.048 35.7128 413.772 36.9686 L418.714 37.9813 Q427.869 39.7232 432.204 44.1387 Q436.579 48.5136 436.579 55.8863 Q436.579 64.6767 430.664 69.2137 Q424.79 73.7508 413.407 73.7508 Q409.113 73.7508 404.252 72.7785 Q399.432 71.8063 394.247 69.9024 L394.247 61.4765 Q399.229 64.2716 404.009 65.6895 Q408.789 67.1073 413.407 67.1073 Q420.416 67.1073 424.223 64.3527 Q428.031 61.598 428.031 56.4939 Q428.031 52.0379 425.277 49.5264 Q422.562 47.0148 416.324 45.759 L411.341 44.7868 Q402.186 42.9639 398.095 39.075 Q394.004 35.1862 394.004 28.2591 Q394.004 20.2383 399.634 15.6203 Q405.306 11.0023 415.23 11.0023 Q419.484 11.0023 423.899 11.7719 Q428.315 12.5416 432.933 14.0809 Z" fill="#000000" fill-rule="nonzero" fill-opacity="1" /><path clip-path="url(#clip680)" d="M449.015 27.2059 L456.469 27.2059 L456.469 72.576 L449.015 72.576 L449.015 27.2059 M449.015 9.54393 L456.469 9.54393 L456.469 18.9825 L449.015 18.9825 L449.015 9.54393 Z" fill="#000000" fill-rule="nonzero" fill-opacity="1" /><path clip-path="url(#clip680)" d="M509.778 45.1919 L509.778 72.576 L502.325 72.576 L502.325 45.4349 Q502.325 38.994 499.813 35.7938 Q497.302 32.5936 492.279 32.5936 Q486.243 32.5936 482.759 36.4419 Q479.275 40.2903 479.275 46.9338 L479.275 72.576 L471.781 72.576 L471.781 27.2059 L479.275 27.2059 L479.275 34.2544 Q481.949 30.163 485.554 28.1376 Q489.2 26.1121 493.939 26.1121 Q501.758 26.1121 505.768 30.9732 Q509.778 35.7938 509.778 45.1919 Z" fill="#000000" fill-rule="nonzero" fill-opacity="1" /><path clip-path="url(#clip680)" d="M554.5 49.3643 Q554.5 41.2625 551.138 36.8065 Q547.816 32.3505 541.781 32.3505 Q535.785 32.3505 532.423 36.8065 Q529.101 41.2625 529.101 49.3643 Q529.101 57.4256 532.423 61.8816 Q535.785 66.3376 541.781 66.3376 Q547.816 66.3376 551.138 61.8816 Q554.5 57.4256 554.5 49.3643 M561.954 66.9452 Q561.954 78.5308 556.809 84.1616 Q551.665 89.8329 541.051 89.8329 Q537.122 89.8329 533.638 89.2252 Q530.155 88.6581 526.873 87.4428 L526.873 80.1917 Q530.155 81.9741 533.355 82.8248 Q536.555 83.6755 539.877 83.6755 Q547.209 83.6755 550.855 79.8271 Q554.5 76.0193 554.5 68.282 L554.5 64.5957 Q552.191 68.6061 548.586 70.5911 Q544.981 72.576 539.958 72.576 Q531.613 72.576 526.509 66.2161 Q521.405 59.8562 521.405 49.3643 Q521.405 38.832 526.509 32.472 Q531.613 26.1121 539.958 26.1121 Q544.981 26.1121 548.586 28.0971 Q552.191 30.082 554.5 34.0924 L554.5 27.2059 L561.954 27.2059 L561.954 66.9452 Z" fill="#000000" fill-rule="nonzero" fill-opacity="1" /><path clip-path="url(#clip680)" d="M576.537 54.671 L576.537 27.2059 L583.991 27.2059 L583.991 54.3874 Q583.991 60.8284 586.503 64.0691 Q589.014 67.2693 594.037 67.2693 Q600.073 67.2693 603.557 63.421 Q607.081 59.5726 607.081 52.9291 L607.081 27.2059 L614.535 27.2059 L614.535 72.576 L607.081 72.576 L607.081 65.6084 Q604.367 69.7404 600.762 71.7658 Q597.197 73.7508 592.457 73.7508 Q584.639 73.7508 580.588 68.8897 Q576.537 64.0286 576.537 54.671 M595.293 26.1121 L595.293 26.1121 Z" fill="#000000" fill-rule="nonzero" fill-opacity="1" /><path clip-path="url(#clip680)" d="M629.888 9.54393 L637.341 9.54393 L637.341 72.576 L629.888 72.576 L629.888 9.54393 Z" fill="#000000" fill-rule="nonzero" fill-opacity="1" /><path clip-path="url(#clip680)" d="M673.557 49.7694 Q664.523 49.7694 661.039 51.8354 Q657.555 53.9013 657.555 58.8839 Q657.555 62.8538 660.148 65.2034 Q662.781 67.5124 667.278 67.5124 Q673.476 67.5124 677.202 63.1374 Q680.97 58.7219 680.97 51.4303 L680.97 49.7694 L673.557 49.7694 M688.423 46.6907 L688.423 72.576 L680.97 72.576 L680.97 65.6895 Q678.418 69.8214 674.61 71.8063 Q670.802 73.7508 665.293 73.7508 Q658.325 73.7508 654.193 69.8619 Q650.102 65.9325 650.102 59.3701 Q650.102 51.7138 655.206 47.825 Q660.351 43.9361 670.518 43.9361 L680.97 43.9361 L680.97 43.2069 Q680.97 38.0623 677.567 35.2672 Q674.205 32.4315 668.088 32.4315 Q664.199 32.4315 660.513 33.3632 Q656.826 34.295 653.424 36.1584 L653.424 29.2718 Q657.515 27.692 661.363 26.9223 Q665.212 26.1121 668.857 26.1121 Q678.701 26.1121 683.562 31.2163 Q688.423 36.3204 688.423 46.6907 Z" fill="#000000" fill-rule="nonzero" fill-opacity="1" /><path clip-path="url(#clip680)" d="M730.067 34.1734 Q728.811 33.4443 727.312 33.1202 Q725.854 32.7556 724.071 32.7556 Q717.752 32.7556 714.349 36.8875 Q710.987 40.9789 710.987 48.6757 L710.987 72.576 L703.493 72.576 L703.493 27.2059 L710.987 27.2059 L710.987 34.2544 Q713.336 30.1225 717.104 28.1376 Q720.871 26.1121 726.259 26.1121 Q727.028 26.1121 727.96 26.2337 Q728.892 26.3147 730.026 26.5172 L730.067 34.1734 Z" fill="#000000" fill-rule="nonzero" fill-opacity="1" /><path clip-path="url(#clip680)" d="M758.909 27.2059 L766.808 27.2059 L780.987 65.2844 L795.165 27.2059 L803.064 27.2059 L786.05 72.576 L775.923 72.576 L758.909 27.2059 Z" fill="#000000" fill-rule="nonzero" fill-opacity="1" /><path clip-path="url(#clip680)" d="M833.972 49.7694 Q824.939 49.7694 821.455 51.8354 Q817.971 53.9013 817.971 58.8839 Q817.971 62.8538 820.564 65.2034 Q823.197 67.5124 827.693 67.5124 Q833.891 67.5124 837.618 63.1374 Q841.385 58.7219 841.385 51.4303 L841.385 49.7694 L833.972 49.7694 M848.839 46.6907 L848.839 72.576 L841.385 72.576 L841.385 65.6895 Q838.833 69.8214 835.026 71.8063 Q831.218 73.7508 825.708 73.7508 Q818.741 73.7508 814.609 69.8619 Q810.518 65.9325 810.518 59.3701 Q810.518 51.7138 815.622 47.825 Q820.766 43.9361 830.934 43.9361 L841.385 43.9361 L841.385 43.2069 Q841.385 38.0623 837.983 35.2672 Q834.62 32.4315 828.504 32.4315 Q824.615 32.4315 820.928 33.3632 Q817.242 34.295 813.839 36.1584 L813.839 29.2718 Q817.931 27.692 821.779 26.9223 Q825.627 26.1121 829.273 26.1121 Q839.117 26.1121 843.978 31.2163 Q848.839 36.3204 848.839 46.6907 Z" fill="#000000" fill-rule="nonzero" fill-opacity="1" /><path clip-path="url(#clip680)" d="M864.192 9.54393 L871.646 9.54393 L871.646 72.576 L864.192 72.576 L864.192 9.54393 Z" fill="#000000" fill-rule="nonzero" fill-opacity="1" /><path clip-path="url(#clip680)" d="M886.472 54.671 L886.472 27.2059 L893.926 27.2059 L893.926 54.3874 Q893.926 60.8284 896.437 64.0691 Q898.949 67.2693 903.972 67.2693 Q910.008 67.2693 913.492 63.421 Q917.016 59.5726 917.016 52.9291 L917.016 27.2059 L924.47 27.2059 L924.47 72.576 L917.016 72.576 L917.016 65.6084 Q914.302 69.7404 910.696 71.7658 Q907.132 73.7508 902.392 73.7508 Q894.574 73.7508 890.523 68.8897 Q886.472 64.0286 886.472 54.671 M905.228 26.1121 L905.228 26.1121 Z" fill="#000000" fill-rule="nonzero" fill-opacity="1" /><path clip-path="url(#clip680)" d="M978.63 48.0275 L978.63 51.6733 L944.359 51.6733 Q944.846 59.3701 948.978 63.421 Q953.15 67.4314 960.563 67.4314 Q964.857 67.4314 968.867 66.3781 Q972.918 65.3249 976.888 63.2184 L976.888 70.267 Q972.878 71.9684 968.665 72.8596 Q964.452 73.7508 960.117 73.7508 Q949.261 73.7508 942.901 67.4314 Q936.582 61.1119 936.582 50.3365 Q936.582 39.1965 942.577 32.6746 Q948.613 26.1121 958.821 26.1121 Q967.976 26.1121 973.283 32.0264 Q978.63 37.9003 978.63 48.0275 M971.176 45.84 Q971.095 39.7232 967.733 36.0774 Q964.411 32.4315 958.902 32.4315 Q952.664 32.4315 948.896 35.9558 Q945.17 39.4801 944.603 45.8805 L971.176 45.84 Z" fill="#000000" fill-rule="nonzero" fill-opacity="1" /><path clip-path="url(#clip680)" d="M1019.79 28.5427 L1019.79 35.5912 Q1016.63 33.9709 1013.22 33.1607 Q1009.82 32.3505 1006.18 32.3505 Q1000.63 32.3505 997.831 34.0519 Q995.077 35.7533 995.077 39.156 Q995.077 41.7486 997.062 43.2475 Q999.047 44.7058 1005.04 46.0426 L1007.59 46.6097 Q1015.53 48.3111 1018.86 51.4303 Q1022.22 54.509 1022.22 60.0587 Q1022.22 66.3781 1017.19 70.0644 Q1012.21 73.7508 1003.46 73.7508 Q999.816 73.7508 995.846 73.0216 Q991.917 72.3329 987.542 70.9151 L987.542 63.2184 Q991.674 65.3654 995.684 66.4591 Q999.695 67.5124 1003.62 67.5124 Q1008.89 67.5124 1011.73 65.73 Q1014.56 63.9071 1014.56 60.6258 Q1014.56 57.5877 1012.5 55.9673 Q1010.47 54.3469 1003.54 52.8481 L1000.95 52.2405 Q994.024 50.7821 990.945 47.7845 Q987.866 44.7463 987.866 39.4801 Q987.866 33.0797 992.403 29.5959 Q996.94 26.1121 1005.29 26.1121 Q1009.42 26.1121 1013.06 26.7198 Q1016.71 27.3274 1019.79 28.5427 Z" fill="#000000" fill-rule="nonzero" fill-opacity="1" /><line clip-path="url(#clip682)" x1="260.955" y1="162.047" x2="244.955" y2="146.047" style="stroke:#0000ff; stroke-width:3.2; stroke-opacity:1"/>
<line clip-path="url(#clip682)" x1="260.955" y1="162.047" x2="244.955" y2="178.047" style="stroke:#0000ff; stroke-width:3.2; stroke-opacity:1"/>
<line clip-path="url(#clip682)" x1="260.955" y1="162.047" x2="276.955" y2="178.047" style="stroke:#0000ff; stroke-width:3.2; stroke-opacity:1"/>
<line clip-path="url(#clip682)" x1="260.955" y1="162.047" x2="276.955" y2="146.047" style="stroke:#0000ff; stroke-width:3.2; stroke-opacity:1"/>
<line clip-path="url(#clip682)" x1="342.256" y1="1142.07" x2="326.256" y2="1126.07" style="stroke:#0000ff; stroke-width:3.2; stroke-opacity:1"/>
<line clip-path="url(#clip682)" x1="342.256" y1="1142.07" x2="326.256" y2="1158.07" style="stroke:#0000ff; stroke-width:3.2; stroke-opacity:1"/>
<line clip-path="url(#clip682)" x1="342.256" y1="1142.07" x2="358.256" y2="1158.07" style="stroke:#0000ff; stroke-width:3.2; stroke-opacity:1"/>
<line clip-path="url(#clip682)" x1="342.256" y1="1142.07" x2="358.256" y2="1126.07" style="stroke:#0000ff; stroke-width:3.2; stroke-opacity:1"/>
<line clip-path="url(#clip682)" x1="423.557" y1="1187.51" x2="407.557" y2="1171.51" style="stroke:#0000ff; stroke-width:3.2; stroke-opacity:1"/>
<line clip-path="url(#clip682)" x1="423.557" y1="1187.51" x2="407.557" y2="1203.51" style="stroke:#0000ff; stroke-width:3.2; stroke-opacity:1"/>
<line clip-path="url(#clip682)" x1="423.557" y1="1187.51" x2="439.557" y2="1203.51" style="stroke:#0000ff; stroke-width:3.2; stroke-opacity:1"/>
<line clip-path="url(#clip682)" x1="423.557" y1="1187.51" x2="439.557" y2="1171.51" style="stroke:#0000ff; stroke-width:3.2; stroke-opacity:1"/>
<line clip-path="url(#clip682)" x1="504.858" y1="1386.4" x2="488.858" y2="1370.4" style="stroke:#0000ff; stroke-width:3.2; stroke-opacity:1"/>
<line clip-path="url(#clip682)" x1="504.858" y1="1386.4" x2="488.858" y2="1402.4" style="stroke:#0000ff; stroke-width:3.2; stroke-opacity:1"/>
<line clip-path="url(#clip682)" x1="504.858" y1="1386.4" x2="520.858" y2="1402.4" style="stroke:#0000ff; stroke-width:3.2; stroke-opacity:1"/>
<line clip-path="url(#clip682)" x1="504.858" y1="1386.4" x2="520.858" y2="1370.4" style="stroke:#0000ff; stroke-width:3.2; stroke-opacity:1"/>
<line clip-path="url(#clip682)" x1="586.159" y1="1386.4" x2="570.159" y2="1370.4" style="stroke:#0000ff; stroke-width:3.2; stroke-opacity:1"/>
<line clip-path="url(#clip682)" x1="586.159" y1="1386.4" x2="570.159" y2="1402.4" style="stroke:#0000ff; stroke-width:3.2; stroke-opacity:1"/>
<line clip-path="url(#clip682)" x1="586.159" y1="1386.4" x2="602.159" y2="1402.4" style="stroke:#0000ff; stroke-width:3.2; stroke-opacity:1"/>
<line clip-path="url(#clip682)" x1="586.159" y1="1386.4" x2="602.159" y2="1370.4" style="stroke:#0000ff; stroke-width:3.2; stroke-opacity:1"/>
<line clip-path="url(#clip682)" x1="667.46" y1="1386.4" x2="651.46" y2="1370.4" style="stroke:#0000ff; stroke-width:3.2; stroke-opacity:1"/>
<line clip-path="url(#clip682)" x1="667.46" y1="1386.4" x2="651.46" y2="1402.4" style="stroke:#0000ff; stroke-width:3.2; stroke-opacity:1"/>
<line clip-path="url(#clip682)" x1="667.46" y1="1386.4" x2="683.46" y2="1402.4" style="stroke:#0000ff; stroke-width:3.2; stroke-opacity:1"/>
<line clip-path="url(#clip682)" x1="667.46" y1="1386.4" x2="683.46" y2="1370.4" style="stroke:#0000ff; stroke-width:3.2; stroke-opacity:1"/>
<line clip-path="url(#clip682)" x1="748.761" y1="1386.4" x2="732.761" y2="1370.4" style="stroke:#0000ff; stroke-width:3.2; stroke-opacity:1"/>
<line clip-path="url(#clip682)" x1="748.761" y1="1386.4" x2="732.761" y2="1402.4" style="stroke:#0000ff; stroke-width:3.2; stroke-opacity:1"/>
<line clip-path="url(#clip682)" x1="748.761" y1="1386.4" x2="764.761" y2="1402.4" style="stroke:#0000ff; stroke-width:3.2; stroke-opacity:1"/>
<line clip-path="url(#clip682)" x1="748.761" y1="1386.4" x2="764.761" y2="1370.4" style="stroke:#0000ff; stroke-width:3.2; stroke-opacity:1"/>
<line clip-path="url(#clip682)" x1="830.062" y1="1386.4" x2="814.062" y2="1370.4" style="stroke:#0000ff; stroke-width:3.2; stroke-opacity:1"/>
<line clip-path="url(#clip682)" x1="830.062" y1="1386.4" x2="814.062" y2="1402.4" style="stroke:#0000ff; stroke-width:3.2; stroke-opacity:1"/>
<line clip-path="url(#clip682)" x1="830.062" y1="1386.4" x2="846.062" y2="1402.4" style="stroke:#0000ff; stroke-width:3.2; stroke-opacity:1"/>
<line clip-path="url(#clip682)" x1="830.062" y1="1386.4" x2="846.062" y2="1370.4" style="stroke:#0000ff; stroke-width:3.2; stroke-opacity:1"/>
<line clip-path="url(#clip682)" x1="911.363" y1="1386.4" x2="895.363" y2="1370.4" style="stroke:#0000ff; stroke-width:3.2; stroke-opacity:1"/>
<line clip-path="url(#clip682)" x1="911.363" y1="1386.4" x2="895.363" y2="1402.4" style="stroke:#0000ff; stroke-width:3.2; stroke-opacity:1"/>
<line clip-path="url(#clip682)" x1="911.363" y1="1386.4" x2="927.363" y2="1402.4" style="stroke:#0000ff; stroke-width:3.2; stroke-opacity:1"/>
<line clip-path="url(#clip682)" x1="911.363" y1="1386.4" x2="927.363" y2="1370.4" style="stroke:#0000ff; stroke-width:3.2; stroke-opacity:1"/>
<line clip-path="url(#clip682)" x1="992.665" y1="1386.4" x2="976.665" y2="1370.4" style="stroke:#0000ff; stroke-width:3.2; stroke-opacity:1"/>
<line clip-path="url(#clip682)" x1="992.665" y1="1386.4" x2="976.665" y2="1402.4" style="stroke:#0000ff; stroke-width:3.2; stroke-opacity:1"/>
<line clip-path="url(#clip682)" x1="992.665" y1="1386.4" x2="1008.66" y2="1402.4" style="stroke:#0000ff; stroke-width:3.2; stroke-opacity:1"/>
<line clip-path="url(#clip682)" x1="992.665" y1="1386.4" x2="1008.66" y2="1370.4" style="stroke:#0000ff; stroke-width:3.2; stroke-opacity:1"/>
<line clip-path="url(#clip682)" x1="1073.97" y1="1386.4" x2="1057.97" y2="1370.4" style="stroke:#0000ff; stroke-width:3.2; stroke-opacity:1"/>
<line clip-path="url(#clip682)" x1="1073.97" y1="1386.4" x2="1057.97" y2="1402.4" style="stroke:#0000ff; stroke-width:3.2; stroke-opacity:1"/>
<line clip-path="url(#clip682)" x1="1073.97" y1="1386.4" x2="1089.97" y2="1402.4" style="stroke:#0000ff; stroke-width:3.2; stroke-opacity:1"/>
<line clip-path="url(#clip682)" x1="1073.97" y1="1386.4" x2="1089.97" y2="1370.4" style="stroke:#0000ff; stroke-width:3.2; stroke-opacity:1"/>
<line clip-path="url(#clip682)" x1="1155.27" y1="1386.4" x2="1139.27" y2="1370.4" style="stroke:#0000ff; stroke-width:3.2; stroke-opacity:1"/>
<line clip-path="url(#clip682)" x1="1155.27" y1="1386.4" x2="1139.27" y2="1402.4" style="stroke:#0000ff; stroke-width:3.2; stroke-opacity:1"/>
<line clip-path="url(#clip682)" x1="1155.27" y1="1386.4" x2="1171.27" y2="1402.4" style="stroke:#0000ff; stroke-width:3.2; stroke-opacity:1"/>
<line clip-path="url(#clip682)" x1="1155.27" y1="1386.4" x2="1171.27" y2="1370.4" style="stroke:#0000ff; stroke-width:3.2; stroke-opacity:1"/>
<circle clip-path="url(#clip682)" cx="260.955" cy="160.256" r="14.4" fill="#ff0000" fill-rule="evenodd" fill-opacity="1" stroke="none"/>
<circle clip-path="url(#clip682)" cx="342.256" cy="1154.28" r="14.4" fill="#ff0000" fill-rule="evenodd" fill-opacity="1" stroke="none"/>
<circle clip-path="url(#clip682)" cx="423.557" cy="1191.95" r="14.4" fill="#ff0000" fill-rule="evenodd" fill-opacity="1" stroke="none"/>
<circle clip-path="url(#clip682)" cx="504.858" cy="1369.92" r="14.4" fill="#ff0000" fill-rule="evenodd" fill-opacity="1" stroke="none"/>
<circle clip-path="url(#clip682)" cx="586.159" cy="1376.15" r="14.4" fill="#ff0000" fill-rule="evenodd" fill-opacity="1" stroke="none"/>
<circle clip-path="url(#clip682)" cx="667.46" cy="1381.67" r="14.4" fill="#ff0000" fill-rule="evenodd" fill-opacity="1" stroke="none"/>
<circle clip-path="url(#clip682)" cx="748.761" cy="1383.19" r="14.4" fill="#ff0000" fill-rule="evenodd" fill-opacity="1" stroke="none"/>
<circle clip-path="url(#clip682)" cx="830.062" cy="1384.2" r="14.4" fill="#ff0000" fill-rule="evenodd" fill-opacity="1" stroke="none"/>
<circle clip-path="url(#clip682)" cx="911.363" cy="1384.85" r="14.4" fill="#ff0000" fill-rule="evenodd" fill-opacity="1" stroke="none"/>
<circle clip-path="url(#clip682)" cx="992.665" cy="1385.18" r="14.4" fill="#ff0000" fill-rule="evenodd" fill-opacity="1" stroke="none"/>
<circle clip-path="url(#clip682)" cx="1073.97" cy="1385.68" r="14.4" fill="#ff0000" fill-rule="evenodd" fill-opacity="1" stroke="none"/>
<circle clip-path="url(#clip682)" cx="1155.27" cy="1386.07" r="14.4" fill="#ff0000" fill-rule="evenodd" fill-opacity="1" stroke="none"/>
<circle clip-path="url(#clip682)" cx="260.955" cy="174.834" r="14.4" fill="#008000" fill-rule="evenodd" fill-opacity="1" stroke="none"/>
<circle clip-path="url(#clip682)" cx="342.256" cy="1176.76" r="14.4" fill="#008000" fill-rule="evenodd" fill-opacity="1" stroke="none"/>
<circle clip-path="url(#clip682)" cx="423.557" cy="1208.44" r="14.4" fill="#008000" fill-rule="evenodd" fill-opacity="1" stroke="none"/>
<circle clip-path="url(#clip682)" cx="504.858" cy="1386.4" r="14.4" fill="#008000" fill-rule="evenodd" fill-opacity="1" stroke="none"/>
<circle clip-path="url(#clip682)" cx="586.159" cy="1386.4" r="14.4" fill="#008000" fill-rule="evenodd" fill-opacity="1" stroke="none"/>
<circle clip-path="url(#clip682)" cx="667.46" cy="1386.4" r="14.4" fill="#008000" fill-rule="evenodd" fill-opacity="1" stroke="none"/>
<circle clip-path="url(#clip682)" cx="748.761" cy="1386.4" r="14.4" fill="#008000" fill-rule="evenodd" fill-opacity="1" stroke="none"/>
<circle clip-path="url(#clip682)" cx="830.062" cy="1386.4" r="14.4" fill="#008000" fill-rule="evenodd" fill-opacity="1" stroke="none"/>
<circle clip-path="url(#clip682)" cx="911.363" cy="1386.4" r="14.4" fill="#008000" fill-rule="evenodd" fill-opacity="1" stroke="none"/>
<circle clip-path="url(#clip682)" cx="992.665" cy="1386.4" r="14.4" fill="#008000" fill-rule="evenodd" fill-opacity="1" stroke="none"/>
<circle clip-path="url(#clip682)" cx="1073.97" cy="1386.4" r="14.4" fill="#008000" fill-rule="evenodd" fill-opacity="1" stroke="none"/>
<circle clip-path="url(#clip682)" cx="1155.27" cy="1386.4" r="14.4" fill="#008000" fill-rule="evenodd" fill-opacity="1" stroke="none"/>
<path clip-path="url(#clip680)" d="M783.873 374.156 L1150.5 374.156 L1150.5 166.796 L783.873 166.796  Z" fill="#ffffff" fill-rule="evenodd" fill-opacity="1"/>
<polyline clip-path="url(#clip680)" style="stroke:#000000; stroke-linecap:round; stroke-linejoin:round; stroke-width:4; stroke-opacity:1; fill:none" points="783.873,374.156 1150.5,374.156 1150.5,166.796 783.873,166.796 783.873,374.156 "/>
<line clip-path="url(#clip680)" x1="826.005" y1="218.636" x2="803.249" y2="195.88" style="stroke:#0000ff; stroke-width:4.55111; stroke-opacity:1"/>
<line clip-path="url(#clip680)" x1="826.005" y1="218.636" x2="803.249" y2="241.391" style="stroke:#0000ff; stroke-width:4.55111; stroke-opacity:1"/>
<line clip-path="url(#clip680)" x1="826.005" y1="218.636" x2="848.76" y2="241.391" style="stroke:#0000ff; stroke-width:4.55111; stroke-opacity:1"/>
<line clip-path="url(#clip680)" x1="826.005" y1="218.636" x2="848.76" y2="195.88" style="stroke:#0000ff; stroke-width:4.55111; stroke-opacity:1"/>
<path clip-path="url(#clip680)" d="M868.137 201.356 L872.813 201.356 L872.813 235.916 L868.137 235.916 L868.137 201.356 Z" fill="#000000" fill-rule="nonzero" fill-opacity="1" /><path clip-path="url(#clip680)" d="M898.993 213.925 L898.993 199.897 L903.252 199.897 L903.252 235.916 L898.993 235.916 L898.993 232.027 Q897.65 234.342 895.59 235.476 Q893.553 236.587 890.683 236.587 Q885.984 236.587 883.021 232.837 Q880.081 229.087 880.081 222.976 Q880.081 216.865 883.021 213.115 Q885.984 209.365 890.683 209.365 Q893.553 209.365 895.59 210.499 Q897.65 211.61 898.993 213.925 M884.479 222.976 Q884.479 227.675 886.401 230.36 Q888.345 233.022 891.725 233.022 Q895.104 233.022 897.049 230.36 Q898.993 227.675 898.993 222.976 Q898.993 218.277 897.049 215.615 Q895.104 212.93 891.725 212.93 Q888.345 212.93 886.401 215.615 Q884.479 218.277 884.479 222.976 Z" fill="#000000" fill-rule="nonzero" fill-opacity="1" /><path clip-path="url(#clip680)" d="M934.201 221.888 L934.201 223.971 L914.618 223.971 Q914.896 228.369 917.257 230.684 Q919.641 232.976 923.877 232.976 Q926.331 232.976 928.623 232.374 Q930.937 231.772 933.206 230.569 L933.206 234.596 Q930.914 235.568 928.507 236.078 Q926.099 236.587 923.623 236.587 Q917.419 236.587 913.785 232.976 Q910.174 229.365 910.174 223.207 Q910.174 216.842 913.599 213.115 Q917.049 209.365 922.882 209.365 Q928.113 209.365 931.146 212.745 Q934.201 216.101 934.201 221.888 M929.942 220.638 Q929.896 217.143 927.974 215.059 Q926.076 212.976 922.928 212.976 Q919.363 212.976 917.211 214.99 Q915.081 217.004 914.757 220.661 L929.942 220.638 Z" fill="#000000" fill-rule="nonzero" fill-opacity="1" /><path clip-path="url(#clip680)" d="M952.974 222.883 Q947.812 222.883 945.822 224.064 Q943.831 225.244 943.831 228.092 Q943.831 230.36 945.312 231.703 Q946.817 233.022 949.386 233.022 Q952.928 233.022 955.058 230.522 Q957.21 227.999 957.21 223.832 L957.21 222.883 L952.974 222.883 M961.47 221.124 L961.47 235.916 L957.21 235.916 L957.21 231.981 Q955.752 234.342 953.576 235.476 Q951.4 236.587 948.252 236.587 Q944.271 236.587 941.91 234.365 Q939.572 232.119 939.572 228.369 Q939.572 223.994 942.488 221.772 Q945.428 219.55 951.238 219.55 L957.21 219.55 L957.21 219.133 Q957.21 216.194 955.266 214.596 Q953.345 212.976 949.849 212.976 Q947.627 212.976 945.521 213.508 Q943.414 214.041 941.47 215.106 L941.47 211.17 Q943.808 210.268 946.007 209.828 Q948.206 209.365 950.289 209.365 Q955.914 209.365 958.692 212.282 Q961.47 215.198 961.47 221.124 Z" fill="#000000" fill-rule="nonzero" fill-opacity="1" /><path clip-path="url(#clip680)" d="M970.243 199.897 L974.502 199.897 L974.502 235.916 L970.243 235.916 L970.243 199.897 Z" fill="#000000" fill-rule="nonzero" fill-opacity="1" /><circle clip-path="url(#clip680)" cx="826.005" cy="270.476" r="20.48" fill="#ff0000" fill-rule="evenodd" fill-opacity="1" stroke="none"/>
<path clip-path="url(#clip680)" d="M884.526 271.552 Q886.03 272.061 887.442 273.728 Q888.877 275.395 890.313 278.311 L895.058 287.756 L890.035 287.756 L885.614 278.89 Q883.901 275.418 882.28 274.284 Q880.683 273.149 877.905 273.149 L872.813 273.149 L872.813 287.756 L868.137 287.756 L868.137 253.196 L878.692 253.196 Q884.618 253.196 887.535 255.673 Q890.451 258.149 890.451 263.149 Q890.451 266.413 888.924 268.566 Q887.419 270.719 884.526 271.552 M872.813 257.038 L872.813 269.307 L878.692 269.307 Q882.072 269.307 883.785 267.756 Q885.521 266.182 885.521 263.149 Q885.521 260.117 883.785 258.589 Q882.072 257.038 878.692 257.038 L872.813 257.038 Z" fill="#000000" fill-rule="nonzero" fill-opacity="1" /><path clip-path="url(#clip680)" d="M920.937 273.728 L920.937 275.811 L901.354 275.811 Q901.632 280.209 903.993 282.524 Q906.377 284.816 910.613 284.816 Q913.067 284.816 915.359 284.214 Q917.674 283.612 919.942 282.409 L919.942 286.436 Q917.65 287.408 915.243 287.918 Q912.836 288.427 910.359 288.427 Q904.155 288.427 900.521 284.816 Q896.91 281.205 896.91 275.047 Q896.91 268.682 900.336 264.955 Q903.785 261.205 909.618 261.205 Q914.849 261.205 917.882 264.585 Q920.937 267.941 920.937 273.728 M916.678 272.478 Q916.632 268.983 914.711 266.899 Q912.812 264.816 909.664 264.816 Q906.1 264.816 903.947 266.83 Q901.817 268.844 901.493 272.501 L916.678 272.478 Z" fill="#000000" fill-rule="nonzero" fill-opacity="1" /><path clip-path="url(#clip680)" d="M939.71 274.723 Q934.548 274.723 932.558 275.904 Q930.567 277.084 930.567 279.932 Q930.567 282.2 932.048 283.543 Q933.553 284.862 936.123 284.862 Q939.664 284.862 941.794 282.362 Q943.947 279.839 943.947 275.672 L943.947 274.723 L939.71 274.723 M948.206 272.964 L948.206 287.756 L943.947 287.756 L943.947 283.821 Q942.488 286.182 940.312 287.316 Q938.136 288.427 934.988 288.427 Q931.007 288.427 928.646 286.205 Q926.308 283.959 926.308 280.209 Q926.308 275.834 929.224 273.612 Q932.164 271.39 937.974 271.39 L943.947 271.39 L943.947 270.973 Q943.947 268.034 942.002 266.436 Q940.081 264.816 936.585 264.816 Q934.363 264.816 932.257 265.348 Q930.15 265.881 928.206 266.946 L928.206 263.01 Q930.544 262.108 932.743 261.668 Q934.942 261.205 937.025 261.205 Q942.65 261.205 945.428 264.122 Q948.206 267.038 948.206 272.964 Z" fill="#000000" fill-rule="nonzero" fill-opacity="1" /><path clip-path="url(#clip680)" d="M956.979 251.737 L961.238 251.737 L961.238 287.756 L956.979 287.756 L956.979 251.737 Z" fill="#000000" fill-rule="nonzero" fill-opacity="1" /><path clip-path="url(#clip680)" d="M970.15 261.83 L974.409 261.83 L974.409 287.756 L970.15 287.756 L970.15 261.83 M970.15 251.737 L974.409 251.737 L974.409 257.131 L970.15 257.131 L970.15 251.737 Z" fill="#000000" fill-rule="nonzero" fill-opacity="1" /><path clip-path="url(#clip680)" d="M999.849 262.594 L999.849 266.622 Q998.043 265.696 996.099 265.233 Q994.155 264.77 992.071 264.77 Q988.9 264.77 987.303 265.742 Q985.729 266.714 985.729 268.659 Q985.729 270.14 986.863 270.997 Q987.997 271.83 991.423 272.594 L992.881 272.918 Q997.418 273.89 999.317 275.672 Q1001.24 277.432 1001.24 280.603 Q1001.24 284.214 998.368 286.321 Q995.52 288.427 990.52 288.427 Q988.437 288.427 986.169 288.01 Q983.923 287.617 981.423 286.807 L981.423 282.409 Q983.784 283.635 986.076 284.26 Q988.368 284.862 990.613 284.862 Q993.622 284.862 995.243 283.844 Q996.863 282.802 996.863 280.927 Q996.863 279.191 995.682 278.265 Q994.525 277.339 990.567 276.483 L989.085 276.135 Q985.127 275.302 983.368 273.589 Q981.608 271.853 981.608 268.844 Q981.608 265.186 984.201 263.196 Q986.794 261.205 991.562 261.205 Q993.923 261.205 996.006 261.552 Q998.09 261.899 999.849 262.594 Z" fill="#000000" fill-rule="nonzero" fill-opacity="1" /><path clip-path="url(#clip680)" d="M1012.23 254.469 L1012.23 261.83 L1021.01 261.83 L1021.01 265.14 L1012.23 265.14 L1012.23 279.214 Q1012.23 282.385 1013.09 283.288 Q1013.97 284.191 1016.63 284.191 L1021.01 284.191 L1021.01 287.756 L1016.63 287.756 Q1011.7 287.756 1009.83 285.927 Q1007.95 284.075 1007.95 279.214 L1007.95 265.14 L1004.83 265.14 L1004.83 261.83 L1007.95 261.83 L1007.95 254.469 L1012.23 254.469 Z" fill="#000000" fill-rule="nonzero" fill-opacity="1" /><path clip-path="url(#clip680)" d="M1026.61 261.83 L1030.87 261.83 L1030.87 287.756 L1026.61 287.756 L1026.61 261.83 M1026.61 251.737 L1030.87 251.737 L1030.87 257.131 L1026.61 257.131 L1026.61 251.737 Z" fill="#000000" fill-rule="nonzero" fill-opacity="1" /><path clip-path="url(#clip680)" d="M1058.44 262.825 L1058.44 266.807 Q1056.63 265.811 1054.8 265.325 Q1053 264.816 1051.15 264.816 Q1047 264.816 1044.71 267.455 Q1042.42 270.071 1042.42 274.816 Q1042.42 279.561 1044.71 282.2 Q1047 284.816 1051.15 284.816 Q1053 284.816 1054.8 284.33 Q1056.63 283.821 1058.44 282.825 L1058.44 286.76 Q1056.65 287.594 1054.73 288.01 Q1052.83 288.427 1050.68 288.427 Q1044.83 288.427 1041.38 284.746 Q1037.93 281.066 1037.93 274.816 Q1037.93 268.473 1041.4 264.839 Q1044.9 261.205 1050.96 261.205 Q1052.93 261.205 1054.8 261.622 Q1056.68 262.015 1058.44 262.825 Z" fill="#000000" fill-rule="nonzero" fill-opacity="1" /><circle clip-path="url(#clip680)" cx="826.005" cy="322.316" r="20.48" fill="#008000" fill-rule="evenodd" fill-opacity="1" stroke="none"/>
<path clip-path="url(#clip680)" d="M893.692 334.665 L893.692 325.383 L886.053 325.383 L886.053 321.54 L898.322 321.54 L898.322 336.378 Q895.613 338.299 892.35 339.295 Q889.086 340.267 885.382 340.267 Q877.28 340.267 872.697 335.545 Q868.137 330.799 868.137 322.35 Q868.137 313.878 872.697 309.156 Q877.28 304.411 885.382 304.411 Q888.762 304.411 891.794 305.244 Q894.85 306.077 897.419 307.698 L897.419 312.675 Q894.826 310.476 891.91 309.364 Q888.993 308.253 885.776 308.253 Q879.433 308.253 876.239 311.795 Q873.067 315.337 873.067 322.35 Q873.067 329.341 876.239 332.883 Q879.433 336.424 885.776 336.424 Q888.252 336.424 890.197 336.008 Q892.141 335.568 893.692 334.665 Z" fill="#000000" fill-rule="nonzero" fill-opacity="1" /><path clip-path="url(#clip680)" d="M916.724 316.656 Q913.299 316.656 911.308 319.341 Q909.317 322.003 909.317 326.656 Q909.317 331.309 911.285 333.994 Q913.275 336.656 916.724 336.656 Q920.127 336.656 922.118 333.971 Q924.109 331.286 924.109 326.656 Q924.109 322.05 922.118 319.364 Q920.127 316.656 916.724 316.656 M916.724 313.045 Q922.28 313.045 925.451 316.656 Q928.623 320.267 928.623 326.656 Q928.623 333.022 925.451 336.656 Q922.28 340.267 916.724 340.267 Q911.146 340.267 907.975 336.656 Q904.826 333.022 904.826 326.656 Q904.826 320.267 907.975 316.656 Q911.146 313.045 916.724 313.045 Z" fill="#000000" fill-rule="nonzero" fill-opacity="1" /><path clip-path="url(#clip680)" d="M945.729 316.656 Q942.303 316.656 940.312 319.341 Q938.322 322.003 938.322 326.656 Q938.322 331.309 940.289 333.994 Q942.28 336.656 945.729 336.656 Q949.132 336.656 951.122 333.971 Q953.113 331.286 953.113 326.656 Q953.113 322.05 951.122 319.364 Q949.132 316.656 945.729 316.656 M945.729 313.045 Q951.284 313.045 954.456 316.656 Q957.627 320.267 957.627 326.656 Q957.627 333.022 954.456 336.656 Q951.284 340.267 945.729 340.267 Q940.15 340.267 936.979 336.656 Q933.831 333.022 933.831 326.656 Q933.831 320.267 936.979 316.656 Q940.15 313.045 945.729 313.045 Z" fill="#000000" fill-rule="nonzero" fill-opacity="1" /><path clip-path="url(#clip680)" d="M981.747 317.605 L981.747 303.577 L986.006 303.577 L986.006 339.596 L981.747 339.596 L981.747 335.707 Q980.405 338.022 978.344 339.156 Q976.307 340.267 973.437 340.267 Q968.738 340.267 965.775 336.517 Q962.835 332.767 962.835 326.656 Q962.835 320.545 965.775 316.795 Q968.738 313.045 973.437 313.045 Q976.307 313.045 978.344 314.179 Q980.405 315.29 981.747 317.605 M967.233 326.656 Q967.233 331.355 969.155 334.04 Q971.099 336.702 974.479 336.702 Q977.858 336.702 979.803 334.04 Q981.747 331.355 981.747 326.656 Q981.747 321.957 979.803 319.295 Q977.858 316.61 974.479 316.61 Q971.099 316.61 969.155 319.295 Q967.233 321.957 967.233 326.656 Z" fill="#000000" fill-rule="nonzero" fill-opacity="1" /><path clip-path="url(#clip680)" d="M1013.97 335.707 L1013.97 349.457 L1009.69 349.457 L1009.69 313.67 L1013.97 313.67 L1013.97 317.605 Q1015.31 315.29 1017.35 314.179 Q1019.41 313.045 1022.26 313.045 Q1026.98 313.045 1029.92 316.795 Q1032.88 320.545 1032.88 326.656 Q1032.88 332.767 1029.92 336.517 Q1026.98 340.267 1022.26 340.267 Q1019.41 340.267 1017.35 339.156 Q1015.31 338.022 1013.97 335.707 M1028.46 326.656 Q1028.46 321.957 1026.52 319.295 Q1024.59 316.61 1021.21 316.61 Q1017.84 316.61 1015.89 319.295 Q1013.97 321.957 1013.97 326.656 Q1013.97 331.355 1015.89 334.04 Q1017.84 336.702 1021.21 336.702 Q1024.59 336.702 1026.52 334.04 Q1028.46 331.355 1028.46 326.656 Z" fill="#000000" fill-rule="nonzero" fill-opacity="1" /><path clip-path="url(#clip680)" d="M1039.94 313.67 L1044.2 313.67 L1044.2 339.596 L1039.94 339.596 L1039.94 313.67 M1039.94 303.577 L1044.2 303.577 L1044.2 308.971 L1039.94 308.971 L1039.94 303.577 Z" fill="#000000" fill-rule="nonzero" fill-opacity="1" /><path clip-path="url(#clip680)" d="M1074.66 313.67 L1065.29 326.286 L1075.15 339.596 L1070.13 339.596 L1062.58 329.411 L1055.03 339.596 L1050.01 339.596 L1060.08 326.031 L1050.87 313.67 L1055.89 313.67 L1062.77 322.906 L1069.64 313.67 L1074.66 313.67 Z" fill="#000000" fill-rule="nonzero" fill-opacity="1" /><path clip-path="url(#clip680)" d="M1101.89 325.568 L1101.89 327.651 L1082.3 327.651 Q1082.58 332.049 1084.94 334.364 Q1087.33 336.656 1091.56 336.656 Q1094.02 336.656 1096.31 336.054 Q1098.62 335.452 1100.89 334.249 L1100.89 338.276 Q1098.6 339.248 1096.19 339.758 Q1093.78 340.267 1091.31 340.267 Q1085.1 340.267 1081.47 336.656 Q1077.86 333.045 1077.86 326.887 Q1077.86 320.522 1081.28 316.795 Q1084.73 313.045 1090.57 313.045 Q1095.8 313.045 1098.83 316.425 Q1101.89 319.781 1101.89 325.568 M1097.63 324.318 Q1097.58 320.823 1095.66 318.739 Q1093.76 316.656 1090.61 316.656 Q1087.05 316.656 1084.89 318.67 Q1082.77 320.684 1082.44 324.341 L1097.63 324.318 Z" fill="#000000" fill-rule="nonzero" fill-opacity="1" /><path clip-path="url(#clip680)" d="M1108.88 303.577 L1113.14 303.577 L1113.14 339.596 L1108.88 339.596 L1108.88 303.577 Z" fill="#000000" fill-rule="nonzero" fill-opacity="1" /><path clip-path="url(#clip680)" d="M1138.58 314.434 L1138.58 318.462 Q1136.77 317.536 1134.83 317.073 Q1132.88 316.61 1130.8 316.61 Q1127.63 316.61 1126.03 317.582 Q1124.45 318.554 1124.45 320.499 Q1124.45 321.98 1125.59 322.837 Q1126.72 323.67 1130.15 324.434 L1131.61 324.758 Q1136.14 325.73 1138.04 327.512 Q1139.96 329.272 1139.96 332.443 Q1139.96 336.054 1137.09 338.161 Q1134.25 340.267 1129.25 340.267 Q1127.16 340.267 1124.89 339.85 Q1122.65 339.457 1120.15 338.647 L1120.15 334.249 Q1122.51 335.475 1124.8 336.1 Q1127.09 336.702 1129.34 336.702 Q1132.35 336.702 1133.97 335.684 Q1135.59 334.642 1135.59 332.767 Q1135.59 331.031 1134.41 330.105 Q1133.25 329.179 1129.29 328.323 L1127.81 327.975 Q1123.85 327.142 1122.09 325.429 Q1120.33 323.693 1120.33 320.684 Q1120.33 317.026 1122.93 315.036 Q1125.52 313.045 1130.29 313.045 Q1132.65 313.045 1134.73 313.392 Q1136.82 313.739 1138.58 314.434 Z" fill="#000000" fill-rule="nonzero" fill-opacity="1" /><path clip-path="url(#clip680)" d="M1404.79 1423.18 L2352.76 1423.18 L2352.76 123.472 L1404.79 123.472  Z" fill="#ffffff" fill-rule="evenodd" fill-opacity="1"/>
<polyline clip-path="url(#clip681)" style="stroke:#000000; stroke-linecap:round; stroke-linejoin:round; stroke-width:2; stroke-opacity:0.1; fill:none" points="1431.61,1423.18 1431.61,123.472 "/>
<polyline clip-path="url(#clip681)" style="stroke:#000000; stroke-linecap:round; stroke-linejoin:round; stroke-width:2; stroke-opacity:0.1; fill:none" points="1594.22,1423.18 1594.22,123.472 "/>
<polyline clip-path="url(#clip681)" style="stroke:#000000; stroke-linecap:round; stroke-linejoin:round; stroke-width:2; stroke-opacity:0.1; fill:none" points="1675.52,1423.18 1675.52,123.472 "/>
<polyline clip-path="url(#clip681)" style="stroke:#000000; stroke-linecap:round; stroke-linejoin:round; stroke-width:2; stroke-opacity:0.1; fill:none" points="2325.93,1423.18 2325.93,123.472 "/>
<polyline clip-path="url(#clip681)" style="stroke:#000000; stroke-linecap:round; stroke-linejoin:round; stroke-width:2; stroke-opacity:0.1; fill:none" points="1404.79,1386.4 2352.76,1386.4 "/>
<polyline clip-path="url(#clip681)" style="stroke:#000000; stroke-linecap:round; stroke-linejoin:round; stroke-width:2; stroke-opacity:0.1; fill:none" points="1404.79,1141.17 2352.76,1141.17 "/>
<polyline clip-path="url(#clip681)" style="stroke:#000000; stroke-linecap:round; stroke-linejoin:round; stroke-width:2; stroke-opacity:0.1; fill:none" points="1404.79,895.94 2352.76,895.94 "/>
<polyline clip-path="url(#clip681)" style="stroke:#000000; stroke-linecap:round; stroke-linejoin:round; stroke-width:2; stroke-opacity:0.1; fill:none" points="1404.79,650.712 2352.76,650.712 "/>
<polyline clip-path="url(#clip681)" style="stroke:#000000; stroke-linecap:round; stroke-linejoin:round; stroke-width:2; stroke-opacity:0.1; fill:none" points="1404.79,405.484 2352.76,405.484 "/>
<polyline clip-path="url(#clip681)" style="stroke:#000000; stroke-linecap:round; stroke-linejoin:round; stroke-width:2; stroke-opacity:0.1; fill:none" points="1404.79,160.256 2352.76,160.256 "/>
<polyline clip-path="url(#clip680)" style="stroke:#000000; stroke-linecap:round; stroke-linejoin:round; stroke-width:4; stroke-opacity:1; fill:none" points="1404.79,1423.18 2352.76,1423.18 "/>
<polyline clip-path="url(#clip680)" style="stroke:#000000; stroke-linecap:round; stroke-linejoin:round; stroke-width:4; stroke-opacity:1; fill:none" points="1431.61,1423.18 1431.61,1404.28 "/>
<polyline clip-path="url(#clip680)" style="stroke:#000000; stroke-linecap:round; stroke-linejoin:round; stroke-width:4; stroke-opacity:1; fill:none" points="1594.22,1423.18 1594.22,1404.28 "/>
<polyline clip-path="url(#clip680)" style="stroke:#000000; stroke-linecap:round; stroke-linejoin:round; stroke-width:4; stroke-opacity:1; fill:none" points="1675.52,1423.18 1675.52,1404.28 "/>
<polyline clip-path="url(#clip680)" style="stroke:#000000; stroke-linecap:round; stroke-linejoin:round; stroke-width:4; stroke-opacity:1; fill:none" points="2325.93,1423.18 2325.93,1404.28 "/>
<path clip-path="url(#clip680)" d="M1422 1481.64 L1429.64 1481.64 L1429.64 1455.28 L1421.33 1456.95 L1421.33 1452.69 L1429.59 1451.02 L1434.27 1451.02 L1434.27 1481.64 L1441.9 1481.64 L1441.9 1485.58 L1422 1485.58 L1422 1481.64 Z" fill="#000000" fill-rule="nonzero" fill-opacity="1" /><path clip-path="url(#clip680)" d="M1598.46 1466.95 Q1601.82 1467.66 1603.7 1469.93 Q1605.59 1472.2 1605.59 1475.53 Q1605.59 1480.65 1602.08 1483.45 Q1598.56 1486.25 1592.08 1486.25 Q1589.9 1486.25 1587.58 1485.81 Q1585.29 1485.39 1582.84 1484.54 L1582.84 1480.02 Q1584.78 1481.16 1587.1 1481.74 Q1589.41 1482.32 1591.94 1482.32 Q1596.33 1482.32 1598.63 1480.58 Q1600.94 1478.84 1600.94 1475.53 Q1600.94 1472.48 1598.79 1470.77 Q1596.66 1469.03 1592.84 1469.03 L1588.81 1469.03 L1588.81 1465.19 L1593.02 1465.19 Q1596.47 1465.19 1598.3 1463.82 Q1600.13 1462.43 1600.13 1459.84 Q1600.13 1457.18 1598.23 1455.77 Q1596.36 1454.33 1592.84 1454.33 Q1590.92 1454.33 1588.72 1454.75 Q1586.52 1455.16 1583.88 1456.04 L1583.88 1451.88 Q1586.54 1451.14 1588.86 1450.77 Q1591.2 1450.39 1593.26 1450.39 Q1598.58 1450.39 1601.68 1452.83 Q1604.78 1455.23 1604.78 1459.35 Q1604.78 1462.22 1603.14 1464.21 Q1601.5 1466.18 1598.46 1466.95 Z" fill="#000000" fill-rule="nonzero" fill-opacity="1" /><path clip-path="url(#clip680)" d="M1678.53 1455.09 L1666.72 1473.54 L1678.53 1473.54 L1678.53 1455.09 M1677.3 1451.02 L1683.18 1451.02 L1683.18 1473.54 L1688.11 1473.54 L1688.11 1477.43 L1683.18 1477.43 L1683.18 1485.58 L1678.53 1485.58 L1678.53 1477.43 L1662.93 1477.43 L1662.93 1472.92 L1677.3 1451.02 Z" fill="#000000" fill-rule="nonzero" fill-opacity="1" /><path clip-path="url(#clip680)" d="M2301.41 1481.64 L2309.05 1481.64 L2309.05 1455.28 L2300.74 1456.95 L2300.74 1452.69 L2309.01 1451.02 L2313.68 1451.02 L2313.68 1481.64 L2321.32 1481.64 L2321.32 1485.58 L2301.41 1485.58 L2301.41 1481.64 Z" fill="#000000" fill-rule="nonzero" fill-opacity="1" /><path clip-path="url(#clip680)" d="M2334.79 1481.64 L2351.11 1481.64 L2351.11 1485.58 L2329.17 1485.58 L2329.17 1481.64 Q2331.83 1478.89 2336.41 1474.26 Q2341.02 1469.61 2342.2 1468.27 Q2344.44 1465.74 2345.32 1464.01 Q2346.23 1462.25 2346.23 1460.56 Q2346.23 1457.8 2344.28 1456.07 Q2342.36 1454.33 2339.26 1454.33 Q2337.06 1454.33 2334.61 1455.09 Q2332.18 1455.86 2329.4 1457.41 L2329.4 1452.69 Q2332.22 1451.55 2334.68 1450.97 Q2337.13 1450.39 2339.17 1450.39 Q2344.54 1450.39 2347.73 1453.08 Q2350.93 1455.77 2350.93 1460.26 Q2350.93 1462.39 2350.12 1464.31 Q2349.33 1466.2 2347.22 1468.8 Q2346.64 1469.47 2343.54 1472.69 Q2340.44 1475.88 2334.79 1481.64 Z" fill="#000000" fill-rule="nonzero" fill-opacity="1" /><path clip-path="url(#clip680)" d="M1891.61 1536.84 Q1891.61 1538.67 1890.48 1539.77 Q1889.39 1540.86 1888 1540.86 Q1886.78 1540.86 1886.13 1540.15 Q1885.49 1539.45 1885.49 1538.54 Q1885.49 1538.16 1885.65 1537.67 Q1885.81 1537.16 1886.16 1536.55 Q1886.55 1535.94 1887.36 1535.48 Q1888.16 1535.03 1889.26 1534.97 Q1889.03 1534.74 1888.97 1534.71 Q1888.48 1534.32 1887.58 1534.2 Q1887.45 1534.13 1887 1534.13 Q1884.78 1534.13 1882.53 1535.77 Q1880.3 1537.38 1877.57 1540.44 Q1874.12 1544.02 1871.9 1545.34 Q1881.66 1546.63 1881.66 1552.26 Q1881.66 1553.2 1881.4 1554.32 Q1880.88 1556.45 1880.88 1558 Q1880.88 1561.09 1882.98 1561.09 Q1885.01 1561.09 1886.29 1559.03 Q1887.61 1556.97 1888.71 1552.94 Q1888.87 1552.2 1889.03 1551.97 Q1889.19 1551.75 1889.64 1551.75 Q1890.45 1551.75 1890.45 1552.39 Q1889.71 1556.16 1888.06 1559.06 Q1885.97 1562.57 1882.85 1562.57 Q1880.24 1562.57 1878.5 1560.77 Q1876.79 1558.93 1876.79 1556.03 Q1876.79 1555.32 1877.05 1553.71 Q1877.24 1553.07 1877.24 1552.33 Q1877.24 1550.81 1876.41 1549.69 Q1875.57 1548.53 1874.22 1547.95 Q1872.86 1547.37 1871.74 1547.11 Q1870.64 1546.82 1869.58 1546.72 Q1866.36 1560.35 1865.91 1561.18 Q1865.62 1561.76 1864.97 1562.15 Q1864.33 1562.57 1863.65 1562.57 Q1863.01 1562.57 1862.36 1562.12 Q1861.75 1561.7 1861.75 1560.7 Q1861.75 1560.19 1862.01 1559.25 L1871.58 1521.25 L1871.77 1519.96 Q1871.77 1519.57 1871.61 1519.38 Q1871.48 1519.16 1870.71 1518.99 Q1869.97 1518.83 1868.48 1518.83 Q1867.87 1518.83 1867.58 1518.8 Q1867.32 1518.77 1867.1 1518.61 Q1866.87 1518.42 1866.87 1518.03 Q1866.87 1517.48 1867.1 1517.19 Q1867.36 1516.87 1867.55 1516.8 Q1867.74 1516.74 1868.13 1516.71 Q1868.68 1516.68 1870.51 1516.52 Q1872.35 1516.32 1873.93 1516.19 Q1875.5 1516.06 1876.18 1516.06 Q1876.57 1516.06 1876.76 1516.26 Q1876.99 1516.42 1877.02 1516.61 L1877.05 1516.77 L1870.19 1544.6 Q1873.02 1543.47 1877.5 1538.48 Q1882.69 1532.68 1887.13 1532.68 Q1889.22 1532.68 1890.42 1533.97 Q1891.61 1535.23 1891.61 1536.84 Z" fill="#000000" fill-rule="nonzero" fill-opacity="1" /><polyline clip-path="url(#clip680)" style="stroke:#000000; stroke-linecap:round; stroke-linejoin:round; stroke-width:4; stroke-opacity:1; fill:none" points="1404.79,1423.18 1404.79,123.472 "/>
<polyline clip-path="url(#clip680)" style="stroke:#000000; stroke-linecap:round; stroke-linejoin:round; stroke-width:4; stroke-opacity:1; fill:none" points="1404.79,1386.4 1423.68,1386.4 "/>
<polyline clip-path="url(#clip680)" style="stroke:#000000; stroke-linecap:round; stroke-linejoin:round; stroke-width:4; stroke-opacity:1; fill:none" points="1404.79,1141.17 1423.68,1141.17 "/>
<polyline clip-path="url(#clip680)" style="stroke:#000000; stroke-linecap:round; stroke-linejoin:round; stroke-width:4; stroke-opacity:1; fill:none" points="1404.79,895.94 1423.68,895.94 "/>
<polyline clip-path="url(#clip680)" style="stroke:#000000; stroke-linecap:round; stroke-linejoin:round; stroke-width:4; stroke-opacity:1; fill:none" points="1404.79,650.712 1423.68,650.712 "/>
<polyline clip-path="url(#clip680)" style="stroke:#000000; stroke-linecap:round; stroke-linejoin:round; stroke-width:4; stroke-opacity:1; fill:none" points="1404.79,405.484 1423.68,405.484 "/>
<polyline clip-path="url(#clip680)" style="stroke:#000000; stroke-linecap:round; stroke-linejoin:round; stroke-width:4; stroke-opacity:1; fill:none" points="1404.79,160.256 1423.68,160.256 "/>
<path clip-path="url(#clip680)" d="M1356.84 1372.19 Q1353.23 1372.19 1351.4 1375.76 Q1349.6 1379.3 1349.6 1386.43 Q1349.6 1393.54 1351.4 1397.1 Q1353.23 1400.64 1356.84 1400.64 Q1360.48 1400.64 1362.28 1397.1 Q1364.11 1393.54 1364.11 1386.43 Q1364.11 1379.3 1362.28 1375.76 Q1360.48 1372.19 1356.84 1372.19 M1356.84 1368.49 Q1362.65 1368.49 1365.71 1373.1 Q1368.79 1377.68 1368.79 1386.43 Q1368.79 1395.16 1365.71 1399.76 Q1362.65 1404.35 1356.84 1404.35 Q1351.03 1404.35 1347.95 1399.76 Q1344.9 1395.16 1344.9 1386.43 Q1344.9 1377.68 1347.95 1373.1 Q1351.03 1368.49 1356.84 1368.49 Z" fill="#000000" fill-rule="nonzero" fill-opacity="1" /><path clip-path="url(#clip680)" d="M1348.88 1154.51 L1356.52 1154.51 L1356.52 1128.15 L1348.21 1129.81 L1348.21 1125.55 L1356.47 1123.89 L1361.15 1123.89 L1361.15 1154.51 L1368.79 1154.51 L1368.79 1158.45 L1348.88 1158.45 L1348.88 1154.51 Z" fill="#000000" fill-rule="nonzero" fill-opacity="1" /><path clip-path="url(#clip680)" d="M1352.47 909.285 L1368.79 909.285 L1368.79 913.22 L1346.84 913.22 L1346.84 909.285 Q1349.5 906.53 1354.09 901.901 Q1358.69 897.248 1359.87 895.905 Q1362.12 893.382 1363 891.646 Q1363.9 889.887 1363.9 888.197 Q1363.9 885.442 1361.96 883.706 Q1360.04 881.97 1356.93 881.97 Q1354.73 881.97 1352.28 882.734 Q1349.85 883.498 1347.07 885.049 L1347.07 880.327 Q1349.9 879.192 1352.35 878.614 Q1354.8 878.035 1356.84 878.035 Q1362.21 878.035 1365.41 880.72 Q1368.6 883.405 1368.6 887.896 Q1368.6 890.026 1367.79 891.947 Q1367 893.845 1364.9 896.438 Q1364.32 897.109 1361.22 900.326 Q1358.11 903.521 1352.47 909.285 Z" fill="#000000" fill-rule="nonzero" fill-opacity="1" /><path clip-path="url(#clip680)" d="M1361.66 649.358 Q1365.01 650.075 1366.89 652.344 Q1368.79 654.612 1368.79 657.946 Q1368.79 663.062 1365.27 665.862 Q1361.75 668.663 1355.27 668.663 Q1353.09 668.663 1350.78 668.224 Q1348.48 667.807 1346.03 666.95 L1346.03 662.437 Q1347.98 663.571 1350.29 664.149 Q1352.6 664.728 1355.13 664.728 Q1359.53 664.728 1361.82 662.992 Q1364.13 661.256 1364.13 657.946 Q1364.13 654.89 1361.98 653.177 Q1359.85 651.441 1356.03 651.441 L1352 651.441 L1352 647.599 L1356.22 647.599 Q1359.67 647.599 1361.49 646.233 Q1363.32 644.844 1363.32 642.251 Q1363.32 639.589 1361.42 638.177 Q1359.55 636.742 1356.03 636.742 Q1354.11 636.742 1351.91 637.159 Q1349.71 637.576 1347.07 638.455 L1347.07 634.289 Q1349.73 633.548 1352.05 633.177 Q1354.39 632.807 1356.45 632.807 Q1361.77 632.807 1364.87 635.238 Q1367.98 637.645 1367.98 641.765 Q1367.98 644.636 1366.33 646.626 Q1364.69 648.594 1361.66 649.358 Z" fill="#000000" fill-rule="nonzero" fill-opacity="1" /><path clip-path="url(#clip680)" d="M1359.2 392.278 L1347.4 410.727 L1359.2 410.727 L1359.2 392.278 M1357.98 388.204 L1363.85 388.204 L1363.85 410.727 L1368.79 410.727 L1368.79 414.616 L1363.85 414.616 L1363.85 422.764 L1359.2 422.764 L1359.2 414.616 L1343.6 414.616 L1343.6 410.102 L1357.98 388.204 Z" fill="#000000" fill-rule="nonzero" fill-opacity="1" /><path clip-path="url(#clip680)" d="M1347.88 142.976 L1366.24 142.976 L1366.24 146.911 L1352.17 146.911 L1352.17 155.384 Q1353.18 155.036 1354.2 154.874 Q1355.22 154.689 1356.24 154.689 Q1362.03 154.689 1365.41 157.86 Q1368.79 161.032 1368.79 166.448 Q1368.79 172.027 1365.31 175.129 Q1361.84 178.208 1355.52 178.208 Q1353.35 178.208 1351.08 177.837 Q1348.83 177.467 1346.42 176.726 L1346.42 172.027 Q1348.51 173.161 1350.73 173.717 Q1352.95 174.272 1355.43 174.272 Q1359.43 174.272 1361.77 172.166 Q1364.11 170.059 1364.11 166.448 Q1364.11 162.837 1361.77 160.731 Q1359.43 158.624 1355.43 158.624 Q1353.55 158.624 1351.68 159.041 Q1349.83 159.458 1347.88 160.337 L1347.88 142.976 Z" fill="#000000" fill-rule="nonzero" fill-opacity="1" /><path clip-path="url(#clip680)" d="M1256.17 773.1 Q1258.43 773.1 1258.43 776.32 L1258.43 783.566 Q1261.32 781.537 1265.61 781.537 Q1269.28 781.537 1272.73 783.051 Q1276.14 784.533 1278.52 786.916 Q1280.91 789.267 1282.35 792.23 Q1283.77 795.193 1283.77 798.091 Q1283.77 802.503 1280.78 805.241 Q1277.78 807.978 1273.34 807.978 Q1270.99 807.978 1268.38 807.173 Q1265.77 806.336 1263.35 804.758 Q1260.91 803.18 1258.94 801.119 Q1256.98 799.025 1255.78 796.32 Q1254.59 793.582 1254.59 790.716 L1254.59 775.676 Q1254.59 774.871 1254.66 774.452 Q1254.69 774.001 1255.08 773.55 Q1255.43 773.1 1256.17 773.1 M1264.83 785.756 Q1264.06 785.756 1263.39 785.853 Q1262.68 785.95 1261.74 786.304 Q1260.78 786.658 1260.1 787.27 Q1259.39 787.882 1258.91 789.074 Q1258.43 790.233 1258.43 791.811 Q1258.43 794.033 1259.65 796.481 Q1260.87 798.929 1263.9 800.797 Q1266.48 802.342 1269.83 803.115 Q1273.18 803.888 1275.17 803.888 Q1278.59 803.888 1280.45 802.246 Q1282.29 800.571 1282.29 798.027 Q1282.29 795.933 1280.87 793.55 Q1279.42 791.167 1276.69 789.331 Q1274.3 787.721 1270.83 786.755 Q1267.35 785.756 1264.83 785.756 Z" fill="#000000" fill-rule="nonzero" fill-opacity="1" /><path clip-path="url(#clip680)" d="M1285.31 745.509 Q1286.59 745.509 1287.36 746.298 Q1288.13 747.064 1288.13 748.034 Q1288.13 748.89 1287.63 749.341 Q1287.14 749.792 1286.5 749.792 Q1286.23 749.792 1285.9 749.68 Q1285.53 749.567 1285.11 749.319 Q1284.68 749.048 1284.36 748.485 Q1284.05 747.921 1284 747.155 Q1283.84 747.312 1283.82 747.357 Q1283.55 747.696 1283.46 748.327 Q1283.42 748.417 1283.42 748.733 Q1283.42 750.288 1284.57 751.866 Q1285.69 753.422 1287.83 755.338 Q1290.34 757.75 1291.26 759.306 Q1292.16 752.475 1296.11 752.475 Q1296.76 752.475 1297.55 752.655 Q1299.04 753.016 1300.12 753.016 Q1302.28 753.016 1302.28 751.551 Q1302.28 750.13 1300.84 749.229 Q1299.4 748.304 1296.58 747.538 Q1296.06 747.425 1295.9 747.312 Q1295.75 747.2 1295.75 746.884 Q1295.75 746.32 1296.2 746.32 Q1298.84 746.839 1300.86 747.989 Q1303.32 749.454 1303.32 751.641 Q1303.32 753.467 1302.06 754.684 Q1300.77 755.879 1298.75 755.879 Q1298.25 755.879 1297.12 755.699 Q1296.67 755.564 1296.15 755.564 Q1295.09 755.564 1294.3 756.15 Q1293.49 756.736 1293.09 757.683 Q1292.68 758.63 1292.5 759.419 Q1292.3 760.185 1292.23 760.929 Q1301.77 763.183 1302.35 763.499 Q1302.76 763.702 1303.03 764.153 Q1303.32 764.604 1303.32 765.077 Q1303.32 765.528 1303.01 765.979 Q1302.71 766.407 1302.01 766.407 Q1301.65 766.407 1301 766.227 L1274.4 759.531 L1273.5 759.396 Q1273.23 759.396 1273.09 759.509 Q1272.93 759.599 1272.82 760.14 Q1272.71 760.658 1272.71 761.696 Q1272.71 762.124 1272.68 762.327 Q1272.66 762.507 1272.55 762.665 Q1272.41 762.823 1272.14 762.823 Q1271.76 762.823 1271.56 762.665 Q1271.33 762.485 1271.29 762.349 Q1271.24 762.214 1271.22 761.944 Q1271.2 761.56 1271.08 760.275 Q1270.95 758.99 1270.86 757.886 Q1270.77 756.781 1270.77 756.307 Q1270.77 756.037 1270.9 755.902 Q1271.02 755.744 1271.15 755.721 L1271.26 755.699 L1290.74 760.501 Q1289.95 758.517 1286.46 755.383 Q1282.4 751.754 1282.4 748.642 Q1282.4 747.177 1283.3 746.343 Q1284.18 745.509 1285.31 745.509 Z" fill="#000000" fill-rule="nonzero" fill-opacity="1" /><path clip-path="url(#clip680)" d="M1772.15 27.2059 L1807.56 27.2059 L1807.56 34.0114 L1779.52 66.6212 L1807.56 66.6212 L1807.56 72.576 L1771.14 72.576 L1771.14 65.7705 L1799.17 33.1607 L1772.15 33.1607 L1772.15 27.2059 Z" fill="#000000" fill-rule="nonzero" fill-opacity="1" /><path clip-path="url(#clip680)" d="M1836.52 32.4315 Q1830.52 32.4315 1827.04 37.1306 Q1823.56 41.7891 1823.56 49.9314 Q1823.56 58.0738 1827 62.7728 Q1830.48 67.4314 1836.52 67.4314 Q1842.47 67.4314 1845.96 62.7323 Q1849.44 58.0333 1849.44 49.9314 Q1849.44 41.8701 1845.96 37.1711 Q1842.47 32.4315 1836.52 32.4315 M1836.52 26.1121 Q1846.24 26.1121 1851.79 32.4315 Q1857.34 38.7509 1857.34 49.9314 Q1857.34 61.0714 1851.79 67.4314 Q1846.24 73.7508 1836.52 73.7508 Q1826.76 73.7508 1821.21 67.4314 Q1815.7 61.0714 1815.7 49.9314 Q1815.7 38.7509 1821.21 32.4315 Q1826.76 26.1121 1836.52 26.1121 Z" fill="#000000" fill-rule="nonzero" fill-opacity="1" /><path clip-path="url(#clip680)" d="M1887.28 32.4315 Q1881.28 32.4315 1877.8 37.1306 Q1874.31 41.7891 1874.31 49.9314 Q1874.31 58.0738 1877.76 62.7728 Q1881.24 67.4314 1887.28 67.4314 Q1893.23 67.4314 1896.72 62.7323 Q1900.2 58.0333 1900.2 49.9314 Q1900.2 41.8701 1896.72 37.1711 Q1893.23 32.4315 1887.28 32.4315 M1887.28 26.1121 Q1897 26.1121 1902.55 32.4315 Q1908.1 38.7509 1908.1 49.9314 Q1908.1 61.0714 1902.55 67.4314 Q1897 73.7508 1887.28 73.7508 Q1877.51 73.7508 1871.97 67.4314 Q1866.46 61.0714 1866.46 49.9314 Q1866.46 38.7509 1871.97 32.4315 Q1877.51 26.1121 1887.28 26.1121 Z" fill="#000000" fill-rule="nonzero" fill-opacity="1" /><path clip-path="url(#clip680)" d="M1955.78 35.9153 Q1958.57 30.8922 1962.46 28.5022 Q1966.35 26.1121 1971.62 26.1121 Q1978.71 26.1121 1982.55 31.0947 Q1986.4 36.0368 1986.4 45.1919 L1986.4 72.576 L1978.91 72.576 L1978.91 45.4349 Q1978.91 38.913 1976.6 35.7533 Q1974.29 32.5936 1969.55 32.5936 Q1963.76 32.5936 1960.4 36.4419 Q1957.03 40.2903 1957.03 46.9338 L1957.03 72.576 L1949.54 72.576 L1949.54 45.4349 Q1949.54 38.8725 1947.23 35.7533 Q1944.92 32.5936 1940.1 32.5936 Q1934.39 32.5936 1931.03 36.4824 Q1927.67 40.3308 1927.67 46.9338 L1927.67 72.576 L1920.17 72.576 L1920.17 27.2059 L1927.67 27.2059 L1927.67 34.2544 Q1930.22 30.082 1933.78 28.0971 Q1937.35 26.1121 1942.25 26.1121 Q1947.19 26.1121 1950.63 28.6237 Q1954.12 31.1352 1955.78 35.9153 Z" fill="#000000" fill-rule="nonzero" fill-opacity="1" /><line clip-path="url(#clip681)" x1="1675.52" y1="1386.4" x2="1659.52" y2="1370.4" style="stroke:#0000ff; stroke-width:3.2; stroke-opacity:1"/>
<line clip-path="url(#clip681)" x1="1675.52" y1="1386.4" x2="1659.52" y2="1402.4" style="stroke:#0000ff; stroke-width:3.2; stroke-opacity:1"/>
<line clip-path="url(#clip681)" x1="1675.52" y1="1386.4" x2="1691.52" y2="1402.4" style="stroke:#0000ff; stroke-width:3.2; stroke-opacity:1"/>
<line clip-path="url(#clip681)" x1="1675.52" y1="1386.4" x2="1691.52" y2="1370.4" style="stroke:#0000ff; stroke-width:3.2; stroke-opacity:1"/>
<line clip-path="url(#clip681)" x1="1756.82" y1="1386.4" x2="1740.82" y2="1370.4" style="stroke:#0000ff; stroke-width:3.2; stroke-opacity:1"/>
<line clip-path="url(#clip681)" x1="1756.82" y1="1386.4" x2="1740.82" y2="1402.4" style="stroke:#0000ff; stroke-width:3.2; stroke-opacity:1"/>
<line clip-path="url(#clip681)" x1="1756.82" y1="1386.4" x2="1772.82" y2="1402.4" style="stroke:#0000ff; stroke-width:3.2; stroke-opacity:1"/>
<line clip-path="url(#clip681)" x1="1756.82" y1="1386.4" x2="1772.82" y2="1370.4" style="stroke:#0000ff; stroke-width:3.2; stroke-opacity:1"/>
<line clip-path="url(#clip681)" x1="1838.12" y1="1386.4" x2="1822.12" y2="1370.4" style="stroke:#0000ff; stroke-width:3.2; stroke-opacity:1"/>
<line clip-path="url(#clip681)" x1="1838.12" y1="1386.4" x2="1822.12" y2="1402.4" style="stroke:#0000ff; stroke-width:3.2; stroke-opacity:1"/>
<line clip-path="url(#clip681)" x1="1838.12" y1="1386.4" x2="1854.12" y2="1402.4" style="stroke:#0000ff; stroke-width:3.2; stroke-opacity:1"/>
<line clip-path="url(#clip681)" x1="1838.12" y1="1386.4" x2="1854.12" y2="1370.4" style="stroke:#0000ff; stroke-width:3.2; stroke-opacity:1"/>
<line clip-path="url(#clip681)" x1="1919.42" y1="1386.4" x2="1903.42" y2="1370.4" style="stroke:#0000ff; stroke-width:3.2; stroke-opacity:1"/>
<line clip-path="url(#clip681)" x1="1919.42" y1="1386.4" x2="1903.42" y2="1402.4" style="stroke:#0000ff; stroke-width:3.2; stroke-opacity:1"/>
<line clip-path="url(#clip681)" x1="1919.42" y1="1386.4" x2="1935.42" y2="1402.4" style="stroke:#0000ff; stroke-width:3.2; stroke-opacity:1"/>
<line clip-path="url(#clip681)" x1="1919.42" y1="1386.4" x2="1935.42" y2="1370.4" style="stroke:#0000ff; stroke-width:3.2; stroke-opacity:1"/>
<line clip-path="url(#clip681)" x1="2000.72" y1="1386.4" x2="1984.72" y2="1370.4" style="stroke:#0000ff; stroke-width:3.2; stroke-opacity:1"/>
<line clip-path="url(#clip681)" x1="2000.72" y1="1386.4" x2="1984.72" y2="1402.4" style="stroke:#0000ff; stroke-width:3.2; stroke-opacity:1"/>
<line clip-path="url(#clip681)" x1="2000.72" y1="1386.4" x2="2016.72" y2="1402.4" style="stroke:#0000ff; stroke-width:3.2; stroke-opacity:1"/>
<line clip-path="url(#clip681)" x1="2000.72" y1="1386.4" x2="2016.72" y2="1370.4" style="stroke:#0000ff; stroke-width:3.2; stroke-opacity:1"/>
<line clip-path="url(#clip681)" x1="2082.02" y1="1386.4" x2="2066.02" y2="1370.4" style="stroke:#0000ff; stroke-width:3.2; stroke-opacity:1"/>
<line clip-path="url(#clip681)" x1="2082.02" y1="1386.4" x2="2066.02" y2="1402.4" style="stroke:#0000ff; stroke-width:3.2; stroke-opacity:1"/>
<line clip-path="url(#clip681)" x1="2082.02" y1="1386.4" x2="2098.02" y2="1402.4" style="stroke:#0000ff; stroke-width:3.2; stroke-opacity:1"/>
<line clip-path="url(#clip681)" x1="2082.02" y1="1386.4" x2="2098.02" y2="1370.4" style="stroke:#0000ff; stroke-width:3.2; stroke-opacity:1"/>
<line clip-path="url(#clip681)" x1="2163.32" y1="1386.4" x2="2147.32" y2="1370.4" style="stroke:#0000ff; stroke-width:3.2; stroke-opacity:1"/>
<line clip-path="url(#clip681)" x1="2163.32" y1="1386.4" x2="2147.32" y2="1402.4" style="stroke:#0000ff; stroke-width:3.2; stroke-opacity:1"/>
<line clip-path="url(#clip681)" x1="2163.32" y1="1386.4" x2="2179.32" y2="1402.4" style="stroke:#0000ff; stroke-width:3.2; stroke-opacity:1"/>
<line clip-path="url(#clip681)" x1="2163.32" y1="1386.4" x2="2179.32" y2="1370.4" style="stroke:#0000ff; stroke-width:3.2; stroke-opacity:1"/>
<line clip-path="url(#clip681)" x1="2244.63" y1="1386.4" x2="2228.63" y2="1370.4" style="stroke:#0000ff; stroke-width:3.2; stroke-opacity:1"/>
<line clip-path="url(#clip681)" x1="2244.63" y1="1386.4" x2="2228.63" y2="1402.4" style="stroke:#0000ff; stroke-width:3.2; stroke-opacity:1"/>
<line clip-path="url(#clip681)" x1="2244.63" y1="1386.4" x2="2260.63" y2="1402.4" style="stroke:#0000ff; stroke-width:3.2; stroke-opacity:1"/>
<line clip-path="url(#clip681)" x1="2244.63" y1="1386.4" x2="2260.63" y2="1370.4" style="stroke:#0000ff; stroke-width:3.2; stroke-opacity:1"/>
<line clip-path="url(#clip681)" x1="2325.93" y1="1386.4" x2="2309.93" y2="1370.4" style="stroke:#0000ff; stroke-width:3.2; stroke-opacity:1"/>
<line clip-path="url(#clip681)" x1="2325.93" y1="1386.4" x2="2309.93" y2="1402.4" style="stroke:#0000ff; stroke-width:3.2; stroke-opacity:1"/>
<line clip-path="url(#clip681)" x1="2325.93" y1="1386.4" x2="2341.93" y2="1402.4" style="stroke:#0000ff; stroke-width:3.2; stroke-opacity:1"/>
<line clip-path="url(#clip681)" x1="2325.93" y1="1386.4" x2="2341.93" y2="1370.4" style="stroke:#0000ff; stroke-width:3.2; stroke-opacity:1"/>
<circle clip-path="url(#clip681)" cx="1675.52" cy="173.354" r="14.4" fill="#ff0000" fill-rule="evenodd" fill-opacity="1" stroke="none"/>
<circle clip-path="url(#clip681)" cx="1756.82" cy="631.873" r="14.4" fill="#ff0000" fill-rule="evenodd" fill-opacity="1" stroke="none"/>
<circle clip-path="url(#clip681)" cx="1838.12" cy="1038.46" r="14.4" fill="#ff0000" fill-rule="evenodd" fill-opacity="1" stroke="none"/>
<circle clip-path="url(#clip681)" cx="1919.42" cy="1150.42" r="14.4" fill="#ff0000" fill-rule="evenodd" fill-opacity="1" stroke="none"/>
<circle clip-path="url(#clip681)" cx="2000.72" cy="1224.55" r="14.4" fill="#ff0000" fill-rule="evenodd" fill-opacity="1" stroke="none"/>
<circle clip-path="url(#clip681)" cx="2082.02" cy="1272.48" r="14.4" fill="#ff0000" fill-rule="evenodd" fill-opacity="1" stroke="none"/>
<circle clip-path="url(#clip681)" cx="2163.32" cy="1297.27" r="14.4" fill="#ff0000" fill-rule="evenodd" fill-opacity="1" stroke="none"/>
<circle clip-path="url(#clip681)" cx="2244.63" cy="1333.64" r="14.4" fill="#ff0000" fill-rule="evenodd" fill-opacity="1" stroke="none"/>
<circle clip-path="url(#clip681)" cx="2325.93" cy="1362.21" r="14.4" fill="#ff0000" fill-rule="evenodd" fill-opacity="1" stroke="none"/>
<circle clip-path="url(#clip681)" cx="1675.52" cy="1386.4" r="14.4" fill="#008000" fill-rule="evenodd" fill-opacity="1" stroke="none"/>
<circle clip-path="url(#clip681)" cx="1756.82" cy="1386.4" r="14.4" fill="#008000" fill-rule="evenodd" fill-opacity="1" stroke="none"/>
<circle clip-path="url(#clip681)" cx="1838.12" cy="1386.4" r="14.4" fill="#008000" fill-rule="evenodd" fill-opacity="1" stroke="none"/>
<circle clip-path="url(#clip681)" cx="1919.42" cy="1386.4" r="14.4" fill="#008000" fill-rule="evenodd" fill-opacity="1" stroke="none"/>
<circle clip-path="url(#clip681)" cx="2000.72" cy="1386.4" r="14.4" fill="#008000" fill-rule="evenodd" fill-opacity="1" stroke="none"/>
<circle clip-path="url(#clip681)" cx="2082.02" cy="1386.4" r="14.4" fill="#008000" fill-rule="evenodd" fill-opacity="1" stroke="none"/>
<circle clip-path="url(#clip681)" cx="2163.32" cy="1386.4" r="14.4" fill="#008000" fill-rule="evenodd" fill-opacity="1" stroke="none"/>
<circle clip-path="url(#clip681)" cx="2244.63" cy="1386.4" r="14.4" fill="#008000" fill-rule="evenodd" fill-opacity="1" stroke="none"/>
<circle clip-path="url(#clip681)" cx="2325.93" cy="1386.4" r="14.4" fill="#008000" fill-rule="evenodd" fill-opacity="1" stroke="none"/>
<path clip-path="url(#clip680)" d="M1954.53 374.156 L2321.16 374.156 L2321.16 166.796 L1954.53 166.796  Z" fill="#ffffff" fill-rule="evenodd" fill-opacity="1"/>
<polyline clip-path="url(#clip680)" style="stroke:#000000; stroke-linecap:round; stroke-linejoin:round; stroke-width:4; stroke-opacity:1; fill:none" points="1954.53,374.156 2321.16,374.156 2321.16,166.796 1954.53,166.796 1954.53,374.156 "/>
<line clip-path="url(#clip680)" x1="1996.66" y1="218.636" x2="1973.91" y2="195.88" style="stroke:#0000ff; stroke-width:4.55111; stroke-opacity:1"/>
<line clip-path="url(#clip680)" x1="1996.66" y1="218.636" x2="1973.91" y2="241.391" style="stroke:#0000ff; stroke-width:4.55111; stroke-opacity:1"/>
<line clip-path="url(#clip680)" x1="1996.66" y1="218.636" x2="2019.42" y2="241.391" style="stroke:#0000ff; stroke-width:4.55111; stroke-opacity:1"/>
<line clip-path="url(#clip680)" x1="1996.66" y1="218.636" x2="2019.42" y2="195.88" style="stroke:#0000ff; stroke-width:4.55111; stroke-opacity:1"/>
<path clip-path="url(#clip680)" d="M2038.8 201.356 L2043.47 201.356 L2043.47 235.916 L2038.8 235.916 L2038.8 201.356 Z" fill="#000000" fill-rule="nonzero" fill-opacity="1" /><path clip-path="url(#clip680)" d="M2069.65 213.925 L2069.65 199.897 L2073.91 199.897 L2073.91 235.916 L2069.65 235.916 L2069.65 232.027 Q2068.31 234.342 2066.25 235.476 Q2064.21 236.587 2061.34 236.587 Q2056.64 236.587 2053.68 232.837 Q2050.74 229.087 2050.74 222.976 Q2050.74 216.865 2053.68 213.115 Q2056.64 209.365 2061.34 209.365 Q2064.21 209.365 2066.25 210.499 Q2068.31 211.61 2069.65 213.925 M2055.14 222.976 Q2055.14 227.675 2057.06 230.36 Q2059 233.022 2062.38 233.022 Q2065.76 233.022 2067.71 230.36 Q2069.65 227.675 2069.65 222.976 Q2069.65 218.277 2067.71 215.615 Q2065.76 212.93 2062.38 212.93 Q2059 212.93 2057.06 215.615 Q2055.14 218.277 2055.14 222.976 Z" fill="#000000" fill-rule="nonzero" fill-opacity="1" /><path clip-path="url(#clip680)" d="M2104.86 221.888 L2104.86 223.971 L2085.28 223.971 Q2085.56 228.369 2087.92 230.684 Q2090.3 232.976 2094.54 232.976 Q2096.99 232.976 2099.28 232.374 Q2101.6 231.772 2103.87 230.569 L2103.87 234.596 Q2101.57 235.568 2099.17 236.078 Q2096.76 236.587 2094.28 236.587 Q2088.08 236.587 2084.44 232.976 Q2080.83 229.365 2080.83 223.207 Q2080.83 216.842 2084.26 213.115 Q2087.71 209.365 2093.54 209.365 Q2098.77 209.365 2101.81 212.745 Q2104.86 216.101 2104.86 221.888 M2100.6 220.638 Q2100.56 217.143 2098.63 215.059 Q2096.74 212.976 2093.59 212.976 Q2090.02 212.976 2087.87 214.99 Q2085.74 217.004 2085.42 220.661 L2100.6 220.638 Z" fill="#000000" fill-rule="nonzero" fill-opacity="1" /><path clip-path="url(#clip680)" d="M2123.63 222.883 Q2118.47 222.883 2116.48 224.064 Q2114.49 225.244 2114.49 228.092 Q2114.49 230.36 2115.97 231.703 Q2117.48 233.022 2120.05 233.022 Q2123.59 233.022 2125.72 230.522 Q2127.87 227.999 2127.87 223.832 L2127.87 222.883 L2123.63 222.883 M2132.13 221.124 L2132.13 235.916 L2127.87 235.916 L2127.87 231.981 Q2126.41 234.342 2124.24 235.476 Q2122.06 236.587 2118.91 236.587 Q2114.93 236.587 2112.57 234.365 Q2110.23 232.119 2110.23 228.369 Q2110.23 223.994 2113.15 221.772 Q2116.09 219.55 2121.9 219.55 L2127.87 219.55 L2127.87 219.133 Q2127.87 216.194 2125.93 214.596 Q2124 212.976 2120.51 212.976 Q2118.29 212.976 2116.18 213.508 Q2114.07 214.041 2112.13 215.106 L2112.13 211.17 Q2114.47 210.268 2116.67 209.828 Q2118.87 209.365 2120.95 209.365 Q2126.57 209.365 2129.35 212.282 Q2132.13 215.198 2132.13 221.124 Z" fill="#000000" fill-rule="nonzero" fill-opacity="1" /><path clip-path="url(#clip680)" d="M2140.9 199.897 L2145.16 199.897 L2145.16 235.916 L2140.9 235.916 L2140.9 199.897 Z" fill="#000000" fill-rule="nonzero" fill-opacity="1" /><circle clip-path="url(#clip680)" cx="1996.66" cy="270.476" r="20.48" fill="#ff0000" fill-rule="evenodd" fill-opacity="1" stroke="none"/>
<path clip-path="url(#clip680)" d="M2055.19 271.552 Q2056.69 272.061 2058.1 273.728 Q2059.54 275.395 2060.97 278.311 L2065.72 287.756 L2060.69 287.756 L2056.27 278.89 Q2054.56 275.418 2052.94 274.284 Q2051.34 273.149 2048.57 273.149 L2043.47 273.149 L2043.47 287.756 L2038.8 287.756 L2038.8 253.196 L2049.35 253.196 Q2055.28 253.196 2058.19 255.673 Q2061.11 258.149 2061.11 263.149 Q2061.11 266.413 2059.58 268.566 Q2058.08 270.719 2055.19 271.552 M2043.47 257.038 L2043.47 269.307 L2049.35 269.307 Q2052.73 269.307 2054.44 267.756 Q2056.18 266.182 2056.18 263.149 Q2056.18 260.117 2054.44 258.589 Q2052.73 257.038 2049.35 257.038 L2043.47 257.038 Z" fill="#000000" fill-rule="nonzero" fill-opacity="1" /><path clip-path="url(#clip680)" d="M2091.6 273.728 L2091.6 275.811 L2072.01 275.811 Q2072.29 280.209 2074.65 282.524 Q2077.04 284.816 2081.27 284.816 Q2083.73 284.816 2086.02 284.214 Q2088.33 283.612 2090.6 282.409 L2090.6 286.436 Q2088.31 287.408 2085.9 287.918 Q2083.5 288.427 2081.02 288.427 Q2074.81 288.427 2071.18 284.816 Q2067.57 281.205 2067.57 275.047 Q2067.57 268.682 2071 264.955 Q2074.44 261.205 2080.28 261.205 Q2085.51 261.205 2088.54 264.585 Q2091.6 267.941 2091.6 273.728 M2087.34 272.478 Q2087.29 268.983 2085.37 266.899 Q2083.47 264.816 2080.32 264.816 Q2076.76 264.816 2074.61 266.83 Q2072.48 268.844 2072.15 272.501 L2087.34 272.478 Z" fill="#000000" fill-rule="nonzero" fill-opacity="1" /><path clip-path="url(#clip680)" d="M2110.37 274.723 Q2105.21 274.723 2103.22 275.904 Q2101.23 277.084 2101.23 279.932 Q2101.23 282.2 2102.71 283.543 Q2104.21 284.862 2106.78 284.862 Q2110.32 284.862 2112.45 282.362 Q2114.61 279.839 2114.61 275.672 L2114.61 274.723 L2110.37 274.723 M2118.87 272.964 L2118.87 287.756 L2114.61 287.756 L2114.61 283.821 Q2113.15 286.182 2110.97 287.316 Q2108.8 288.427 2105.65 288.427 Q2101.67 288.427 2099.31 286.205 Q2096.97 283.959 2096.97 280.209 Q2096.97 275.834 2099.88 273.612 Q2102.82 271.39 2108.63 271.39 L2114.61 271.39 L2114.61 270.973 Q2114.61 268.034 2112.66 266.436 Q2110.74 264.816 2107.25 264.816 Q2105.02 264.816 2102.92 265.348 Q2100.81 265.881 2098.87 266.946 L2098.87 263.01 Q2101.2 262.108 2103.4 261.668 Q2105.6 261.205 2107.69 261.205 Q2113.31 261.205 2116.09 264.122 Q2118.87 267.038 2118.87 272.964 Z" fill="#000000" fill-rule="nonzero" fill-opacity="1" /><path clip-path="url(#clip680)" d="M2127.64 251.737 L2131.9 251.737 L2131.9 287.756 L2127.64 287.756 L2127.64 251.737 Z" fill="#000000" fill-rule="nonzero" fill-opacity="1" /><path clip-path="url(#clip680)" d="M2140.81 261.83 L2145.07 261.83 L2145.07 287.756 L2140.81 287.756 L2140.81 261.83 M2140.81 251.737 L2145.07 251.737 L2145.07 257.131 L2140.81 257.131 L2140.81 251.737 Z" fill="#000000" fill-rule="nonzero" fill-opacity="1" /><path clip-path="url(#clip680)" d="M2170.51 262.594 L2170.51 266.622 Q2168.7 265.696 2166.76 265.233 Q2164.81 264.77 2162.73 264.77 Q2159.56 264.77 2157.96 265.742 Q2156.39 266.714 2156.39 268.659 Q2156.39 270.14 2157.52 270.997 Q2158.66 271.83 2162.08 272.594 L2163.54 272.918 Q2168.08 273.89 2169.98 275.672 Q2171.9 277.432 2171.9 280.603 Q2171.9 284.214 2169.03 286.321 Q2166.18 288.427 2161.18 288.427 Q2159.1 288.427 2156.83 288.01 Q2154.58 287.617 2152.08 286.807 L2152.08 282.409 Q2154.44 283.635 2156.74 284.26 Q2159.03 284.862 2161.27 284.862 Q2164.28 284.862 2165.9 283.844 Q2167.52 282.802 2167.52 280.927 Q2167.52 279.191 2166.34 278.265 Q2165.18 277.339 2161.23 276.483 L2159.75 276.135 Q2155.79 275.302 2154.03 273.589 Q2152.27 271.853 2152.27 268.844 Q2152.27 265.186 2154.86 263.196 Q2157.45 261.205 2162.22 261.205 Q2164.58 261.205 2166.67 261.552 Q2168.75 261.899 2170.51 262.594 Z" fill="#000000" fill-rule="nonzero" fill-opacity="1" /><path clip-path="url(#clip680)" d="M2182.89 254.469 L2182.89 261.83 L2191.67 261.83 L2191.67 265.14 L2182.89 265.14 L2182.89 279.214 Q2182.89 282.385 2183.75 283.288 Q2184.63 284.191 2187.29 284.191 L2191.67 284.191 L2191.67 287.756 L2187.29 287.756 Q2182.36 287.756 2180.49 285.927 Q2178.61 284.075 2178.61 279.214 L2178.61 265.14 L2175.49 265.14 L2175.49 261.83 L2178.61 261.83 L2178.61 254.469 L2182.89 254.469 Z" fill="#000000" fill-rule="nonzero" fill-opacity="1" /><path clip-path="url(#clip680)" d="M2197.27 261.83 L2201.53 261.83 L2201.53 287.756 L2197.27 287.756 L2197.27 261.83 M2197.27 251.737 L2201.53 251.737 L2201.53 257.131 L2197.27 257.131 L2197.27 251.737 Z" fill="#000000" fill-rule="nonzero" fill-opacity="1" /><path clip-path="url(#clip680)" d="M2229.1 262.825 L2229.1 266.807 Q2227.29 265.811 2225.46 265.325 Q2223.66 264.816 2221.8 264.816 Q2217.66 264.816 2215.37 267.455 Q2213.08 270.071 2213.08 274.816 Q2213.08 279.561 2215.37 282.2 Q2217.66 284.816 2221.8 284.816 Q2223.66 284.816 2225.46 284.33 Q2227.29 283.821 2229.1 282.825 L2229.1 286.76 Q2227.31 287.594 2225.39 288.01 Q2223.49 288.427 2221.34 288.427 Q2215.49 288.427 2212.04 284.746 Q2208.59 281.066 2208.59 274.816 Q2208.59 268.473 2212.06 264.839 Q2215.55 261.205 2221.62 261.205 Q2223.59 261.205 2225.46 261.622 Q2227.34 262.015 2229.1 262.825 Z" fill="#000000" fill-rule="nonzero" fill-opacity="1" /><circle clip-path="url(#clip680)" cx="1996.66" cy="322.316" r="20.48" fill="#008000" fill-rule="evenodd" fill-opacity="1" stroke="none"/>
<path clip-path="url(#clip680)" d="M2064.35 334.665 L2064.35 325.383 L2056.71 325.383 L2056.71 321.54 L2068.98 321.54 L2068.98 336.378 Q2066.27 338.299 2063.01 339.295 Q2059.75 340.267 2056.04 340.267 Q2047.94 340.267 2043.36 335.545 Q2038.8 330.799 2038.8 322.35 Q2038.8 313.878 2043.36 309.156 Q2047.94 304.411 2056.04 304.411 Q2059.42 304.411 2062.45 305.244 Q2065.51 306.077 2068.08 307.698 L2068.08 312.675 Q2065.49 310.476 2062.57 309.364 Q2059.65 308.253 2056.44 308.253 Q2050.09 308.253 2046.9 311.795 Q2043.73 315.337 2043.73 322.35 Q2043.73 329.341 2046.9 332.883 Q2050.09 336.424 2056.44 336.424 Q2058.91 336.424 2060.86 336.008 Q2062.8 335.568 2064.35 334.665 Z" fill="#000000" fill-rule="nonzero" fill-opacity="1" /><path clip-path="url(#clip680)" d="M2087.38 316.656 Q2083.96 316.656 2081.97 319.341 Q2079.98 322.003 2079.98 326.656 Q2079.98 331.309 2081.94 333.994 Q2083.94 336.656 2087.38 336.656 Q2090.79 336.656 2092.78 333.971 Q2094.77 331.286 2094.77 326.656 Q2094.77 322.05 2092.78 319.364 Q2090.79 316.656 2087.38 316.656 M2087.38 313.045 Q2092.94 313.045 2096.11 316.656 Q2099.28 320.267 2099.28 326.656 Q2099.28 333.022 2096.11 336.656 Q2092.94 340.267 2087.38 340.267 Q2081.81 340.267 2078.63 336.656 Q2075.49 333.022 2075.49 326.656 Q2075.49 320.267 2078.63 316.656 Q2081.81 313.045 2087.38 313.045 Z" fill="#000000" fill-rule="nonzero" fill-opacity="1" /><path clip-path="url(#clip680)" d="M2116.39 316.656 Q2112.96 316.656 2110.97 319.341 Q2108.98 322.003 2108.98 326.656 Q2108.98 331.309 2110.95 333.994 Q2112.94 336.656 2116.39 336.656 Q2119.79 336.656 2121.78 333.971 Q2123.77 331.286 2123.77 326.656 Q2123.77 322.05 2121.78 319.364 Q2119.79 316.656 2116.39 316.656 M2116.39 313.045 Q2121.94 313.045 2125.12 316.656 Q2128.29 320.267 2128.29 326.656 Q2128.29 333.022 2125.12 336.656 Q2121.94 340.267 2116.39 340.267 Q2110.81 340.267 2107.64 336.656 Q2104.49 333.022 2104.49 326.656 Q2104.49 320.267 2107.64 316.656 Q2110.81 313.045 2116.39 313.045 Z" fill="#000000" fill-rule="nonzero" fill-opacity="1" /><path clip-path="url(#clip680)" d="M2152.41 317.605 L2152.41 303.577 L2156.67 303.577 L2156.67 339.596 L2152.41 339.596 L2152.41 335.707 Q2151.06 338.022 2149 339.156 Q2146.97 340.267 2144.1 340.267 Q2139.4 340.267 2136.43 336.517 Q2133.5 332.767 2133.5 326.656 Q2133.5 320.545 2136.43 316.795 Q2139.4 313.045 2144.1 313.045 Q2146.97 313.045 2149 314.179 Q2151.06 315.29 2152.41 317.605 M2137.89 326.656 Q2137.89 331.355 2139.81 334.04 Q2141.76 336.702 2145.14 336.702 Q2148.52 336.702 2150.46 334.04 Q2152.41 331.355 2152.41 326.656 Q2152.41 321.957 2150.46 319.295 Q2148.52 316.61 2145.14 316.61 Q2141.76 316.61 2139.81 319.295 Q2137.89 321.957 2137.89 326.656 Z" fill="#000000" fill-rule="nonzero" fill-opacity="1" /><path clip-path="url(#clip680)" d="M2184.63 335.707 L2184.63 349.457 L2180.35 349.457 L2180.35 313.67 L2184.63 313.67 L2184.63 317.605 Q2185.97 315.29 2188.01 314.179 Q2190.07 313.045 2192.92 313.045 Q2197.64 313.045 2200.58 316.795 Q2203.54 320.545 2203.54 326.656 Q2203.54 332.767 2200.58 336.517 Q2197.64 340.267 2192.92 340.267 Q2190.07 340.267 2188.01 339.156 Q2185.97 338.022 2184.63 335.707 M2199.12 326.656 Q2199.12 321.957 2197.18 319.295 Q2195.25 316.61 2191.87 316.61 Q2188.49 316.61 2186.55 319.295 Q2184.63 321.957 2184.63 326.656 Q2184.63 331.355 2186.55 334.04 Q2188.49 336.702 2191.87 336.702 Q2195.25 336.702 2197.18 334.04 Q2199.12 331.355 2199.12 326.656 Z" fill="#000000" fill-rule="nonzero" fill-opacity="1" /><path clip-path="url(#clip680)" d="M2210.6 313.67 L2214.86 313.67 L2214.86 339.596 L2210.6 339.596 L2210.6 313.67 M2210.6 303.577 L2214.86 303.577 L2214.86 308.971 L2210.6 308.971 L2210.6 303.577 Z" fill="#000000" fill-rule="nonzero" fill-opacity="1" /><path clip-path="url(#clip680)" d="M2245.32 313.67 L2235.95 326.286 L2245.81 339.596 L2240.79 339.596 L2233.24 329.411 L2225.69 339.596 L2220.67 339.596 L2230.74 326.031 L2221.53 313.67 L2226.55 313.67 L2233.43 322.906 L2240.3 313.67 L2245.32 313.67 Z" fill="#000000" fill-rule="nonzero" fill-opacity="1" /><path clip-path="url(#clip680)" d="M2272.55 325.568 L2272.55 327.651 L2252.96 327.651 Q2253.24 332.049 2255.6 334.364 Q2257.99 336.656 2262.22 336.656 Q2264.68 336.656 2266.97 336.054 Q2269.28 335.452 2271.55 334.249 L2271.55 338.276 Q2269.26 339.248 2266.85 339.758 Q2264.44 340.267 2261.97 340.267 Q2255.76 340.267 2252.13 336.656 Q2248.52 333.045 2248.52 326.887 Q2248.52 320.522 2251.94 316.795 Q2255.39 313.045 2261.23 313.045 Q2266.46 313.045 2269.49 316.425 Q2272.55 319.781 2272.55 325.568 M2268.29 324.318 Q2268.24 320.823 2266.32 318.739 Q2264.42 316.656 2261.27 316.656 Q2257.71 316.656 2255.55 318.67 Q2253.43 320.684 2253.1 324.341 L2268.29 324.318 Z" fill="#000000" fill-rule="nonzero" fill-opacity="1" /><path clip-path="url(#clip680)" d="M2279.54 303.577 L2283.8 303.577 L2283.8 339.596 L2279.54 339.596 L2279.54 303.577 Z" fill="#000000" fill-rule="nonzero" fill-opacity="1" /><path clip-path="url(#clip680)" d="M2309.23 314.434 L2309.23 318.462 Q2307.43 317.536 2305.49 317.073 Q2303.54 316.61 2301.46 316.61 Q2298.29 316.61 2296.69 317.582 Q2295.11 318.554 2295.11 320.499 Q2295.11 321.98 2296.25 322.837 Q2297.38 323.67 2300.81 324.434 L2302.27 324.758 Q2306.8 325.73 2308.7 327.512 Q2310.62 329.272 2310.62 332.443 Q2310.62 336.054 2307.75 338.161 Q2304.91 340.267 2299.91 340.267 Q2297.82 340.267 2295.55 339.85 Q2293.31 339.457 2290.81 338.647 L2290.81 334.249 Q2293.17 335.475 2295.46 336.1 Q2297.75 336.702 2300 336.702 Q2303.01 336.702 2304.63 335.684 Q2306.25 334.642 2306.25 332.767 Q2306.25 331.031 2305.07 330.105 Q2303.91 329.179 2299.95 328.323 L2298.47 327.975 Q2294.51 327.142 2292.75 325.429 Q2290.99 323.693 2290.99 320.684 Q2290.99 317.026 2293.59 315.036 Q2296.18 313.045 2300.95 313.045 Q2303.31 313.045 2305.39 313.392 Q2307.48 313.739 2309.23 314.434 Z" fill="#000000" fill-rule="nonzero" fill-opacity="1" /></svg>
