<?xml version="1.0" encoding="utf-8"?>
<svg xmlns="http://www.w3.org/2000/svg" xmlns:xlink="http://www.w3.org/1999/xlink" width="600" height="400" viewBox="0 0 2400 1600">
<defs>
  <clipPath id="clip800">
    <rect x="0" y="0" width="2400" height="1600"/>
  </clipPath>
</defs>
<path clip-path="url(#clip800)" d="M0 1600 L2400 1600 L2400 0 L0 0  Z" fill="#ffffff" fill-rule="evenodd" fill-opacity="1"/>
<defs>
  <clipPath id="clip801">
    <rect x="249" y="123" width="2104" height="1301"/>
  </clipPath>
</defs>
<path clip-path="url(#clip801)" d="M660.576 1265.32 L660.576 452.999 L1129.57 46.8401 L1941.88 281.336 L1941.88 1093.65 L1472.89 1499.81 L660.576 1265.32  Z" fill="#ffffff" fill-rule="evenodd" fill-opacity="1"/>
<polyline clip-path="url(#clip801)" style="stroke:#000000; stroke-linecap:round; stroke-linejoin:round; stroke-width:2; stroke-opacity:0.1; fill:none" points="788.706,1166.92 1163.9,841.991 1163.9,192.137 "/>
<polyline clip-path="url(#clip801)" style="stroke:#000000; stroke-linecap:round; stroke-linejoin:round; stroke-width:2; stroke-opacity:0.1; fill:none" points="1113.63,1260.72 1488.83,935.789 1488.83,285.936 "/>
<polyline clip-path="url(#clip801)" style="stroke:#000000; stroke-linecap:round; stroke-linejoin:round; stroke-width:2; stroke-opacity:0.1; fill:none" points="1438.56,1354.51 1813.75,1029.59 1813.75,379.734 "/>
<polyline clip-path="url(#clip801)" style="stroke:#000000; stroke-linecap:round; stroke-linejoin:round; stroke-width:2; stroke-opacity:0.1; fill:none" points="1438.56,1354.51 788.706,1166.92 788.706,517.064 "/>
<polyline clip-path="url(#clip801)" style="stroke:#000000; stroke-linecap:round; stroke-linejoin:round; stroke-width:2; stroke-opacity:0.1; fill:none" points="1626.16,1192.05 976.303,1004.45 976.303,354.601 "/>
<polyline clip-path="url(#clip801)" style="stroke:#000000; stroke-linecap:round; stroke-linejoin:round; stroke-width:2; stroke-opacity:0.1; fill:none" points="1813.75,1029.59 1163.9,841.991 1163.9,192.137 "/>
<polyline clip-path="url(#clip801)" style="stroke:#000000; stroke-linecap:round; stroke-linejoin:round; stroke-width:2; stroke-opacity:0.1; fill:none" points="788.706,1166.92 1163.9,841.991 1813.75,1029.59 "/>
<polyline clip-path="url(#clip801)" style="stroke:#000000; stroke-linecap:round; stroke-linejoin:round; stroke-width:2; stroke-opacity:0.1; fill:none" points="788.706,852.822 1163.9,527.895 1813.75,715.492 "/>
<polyline clip-path="url(#clip801)" style="stroke:#000000; stroke-linecap:round; stroke-linejoin:round; stroke-width:2; stroke-opacity:0.1; fill:none" points="788.706,560.388 1163.9,235.461 1813.75,423.058 "/>
<polyline clip-path="url(#clip800)" style="stroke:#000000; stroke-linecap:round; stroke-linejoin:round; stroke-width:4; stroke-opacity:1; fill:none" points="788.706,1166.92 1438.56,1354.51 "/>
<polyline clip-path="url(#clip800)" style="stroke:#000000; stroke-linecap:round; stroke-linejoin:round; stroke-width:4; stroke-opacity:1; fill:none" points="788.706,1166.92 793.209,1163.02 "/>
<polyline clip-path="url(#clip800)" style="stroke:#000000; stroke-linecap:round; stroke-linejoin:round; stroke-width:4; stroke-opacity:1; fill:none" points="1113.63,1260.72 1118.14,1256.82 "/>
<polyline clip-path="url(#clip800)" style="stroke:#000000; stroke-linecap:round; stroke-linejoin:round; stroke-width:4; stroke-opacity:1; fill:none" points="1438.56,1354.51 1443.06,1350.62 "/>
<path clip-path="url(#clip800)" d="M673.867 1195.04 L703.543 1195.04 L703.543 1198.97 L673.867 1198.97 L673.867 1195.04 Z" fill="#000000" fill-rule="nonzero" fill-opacity="1" /><path clip-path="url(#clip800)" d="M723.636 1180.39 Q720.025 1180.39 718.196 1183.95 Q716.39 1187.49 716.39 1194.62 Q716.39 1201.73 718.196 1205.29 Q720.025 1208.84 723.636 1208.84 Q727.27 1208.84 729.075 1205.29 Q730.904 1201.73 730.904 1194.62 Q730.904 1187.49 729.075 1183.95 Q727.27 1180.39 723.636 1180.39 M723.636 1176.68 Q729.446 1176.68 732.501 1181.29 Q735.58 1185.87 735.58 1194.62 Q735.58 1203.35 732.501 1207.96 Q729.446 1212.54 723.636 1212.54 Q717.826 1212.54 714.747 1207.96 Q711.691 1203.35 711.691 1194.62 Q711.691 1185.87 714.747 1181.29 Q717.826 1176.68 723.636 1176.68 Z" fill="#000000" fill-rule="nonzero" fill-opacity="1" /><path clip-path="url(#clip800)" d="M743.798 1205.99 L748.682 1205.99 L748.682 1211.87 L743.798 1211.87 L743.798 1205.99 Z" fill="#000000" fill-rule="nonzero" fill-opacity="1" /><path clip-path="url(#clip800)" d="M768.867 1195.46 Q765.534 1195.46 763.612 1197.24 Q761.714 1199.02 761.714 1202.15 Q761.714 1205.27 763.612 1207.05 Q765.534 1208.84 768.867 1208.84 Q772.2 1208.84 774.122 1207.05 Q776.043 1205.25 776.043 1202.15 Q776.043 1199.02 774.122 1197.24 Q772.223 1195.46 768.867 1195.46 M764.191 1193.47 Q761.182 1192.72 759.492 1190.66 Q757.825 1188.6 757.825 1185.64 Q757.825 1181.5 760.765 1179.09 Q763.728 1176.68 768.867 1176.68 Q774.029 1176.68 776.969 1179.09 Q779.909 1181.5 779.909 1185.64 Q779.909 1188.6 778.219 1190.66 Q776.552 1192.72 773.566 1193.47 Q776.946 1194.25 778.821 1196.54 Q780.719 1198.84 780.719 1202.15 Q780.719 1207.17 777.64 1209.85 Q774.584 1212.54 768.867 1212.54 Q763.149 1212.54 760.071 1209.85 Q757.015 1207.17 757.015 1202.15 Q757.015 1198.84 758.913 1196.54 Q760.811 1194.25 764.191 1193.47 M762.478 1186.08 Q762.478 1188.77 764.145 1190.27 Q765.835 1191.78 768.867 1191.78 Q771.876 1191.78 773.566 1190.27 Q775.279 1188.77 775.279 1186.08 Q775.279 1183.4 773.566 1181.89 Q771.876 1180.39 768.867 1180.39 Q765.835 1180.39 764.145 1181.89 Q762.478 1183.4 762.478 1186.08 Z" fill="#000000" fill-rule="nonzero" fill-opacity="1" /><path clip-path="url(#clip800)" d="M1048.47 1274.19 Q1044.86 1274.19 1043.03 1277.75 Q1041.22 1281.29 1041.22 1288.42 Q1041.22 1295.53 1043.03 1299.09 Q1044.86 1302.63 1048.47 1302.63 Q1052.1 1302.63 1053.91 1299.09 Q1055.74 1295.53 1055.74 1288.42 Q1055.74 1281.29 1053.91 1277.75 Q1052.1 1274.19 1048.47 1274.19 M1048.47 1270.48 Q1054.28 1270.48 1057.34 1275.09 Q1060.41 1279.67 1060.41 1288.42 Q1060.41 1297.15 1057.34 1301.75 Q1054.28 1306.34 1048.47 1306.34 Q1042.66 1306.34 1039.58 1301.75 Q1036.53 1297.15 1036.53 1288.42 Q1036.53 1279.67 1039.58 1275.09 Q1042.66 1270.48 1048.47 1270.48 Z" fill="#000000" fill-rule="nonzero" fill-opacity="1" /><path clip-path="url(#clip800)" d="M1068.63 1299.79 L1073.52 1299.79 L1073.52 1305.67 L1068.63 1305.67 L1068.63 1299.79 Z" fill="#000000" fill-rule="nonzero" fill-opacity="1" /><path clip-path="url(#clip800)" d="M1093.7 1274.19 Q1090.09 1274.19 1088.26 1277.75 Q1086.46 1281.29 1086.46 1288.42 Q1086.46 1295.53 1088.26 1299.09 Q1090.09 1302.63 1093.7 1302.63 Q1097.34 1302.63 1099.14 1299.09 Q1100.97 1295.53 1100.97 1288.42 Q1100.97 1281.29 1099.14 1277.75 Q1097.34 1274.19 1093.7 1274.19 M1093.7 1270.48 Q1099.51 1270.48 1102.57 1275.09 Q1105.65 1279.67 1105.65 1288.42 Q1105.65 1297.15 1102.57 1301.75 Q1099.51 1306.34 1093.7 1306.34 Q1087.89 1306.34 1084.81 1301.75 Q1081.76 1297.15 1081.76 1288.42 Q1081.76 1279.67 1084.81 1275.09 Q1087.89 1270.48 1093.7 1270.48 Z" fill="#000000" fill-rule="nonzero" fill-opacity="1" /><path clip-path="url(#clip800)" d="M1373.49 1367.98 Q1369.88 1367.98 1368.05 1371.55 Q1366.24 1375.09 1366.24 1382.22 Q1366.24 1389.33 1368.05 1392.89 Q1369.88 1396.43 1373.49 1396.43 Q1377.12 1396.43 1378.93 1392.89 Q1380.76 1389.33 1380.76 1382.22 Q1380.76 1375.09 1378.93 1371.55 Q1377.12 1367.98 1373.49 1367.98 M1373.49 1364.28 Q1379.3 1364.28 1382.36 1368.89 Q1385.43 1373.47 1385.43 1382.22 Q1385.43 1390.95 1382.36 1395.55 Q1379.3 1400.14 1373.49 1400.14 Q1367.68 1400.14 1364.6 1395.55 Q1361.55 1390.95 1361.55 1382.22 Q1361.55 1373.47 1364.6 1368.89 Q1367.68 1364.28 1373.49 1364.28 Z" fill="#000000" fill-rule="nonzero" fill-opacity="1" /><path clip-path="url(#clip800)" d="M1393.65 1393.59 L1398.54 1393.59 L1398.54 1399.46 L1393.65 1399.46 L1393.65 1393.59 Z" fill="#000000" fill-rule="nonzero" fill-opacity="1" /><path clip-path="url(#clip800)" d="M1418.72 1383.05 Q1415.39 1383.05 1413.47 1384.84 Q1411.57 1386.62 1411.57 1389.74 Q1411.57 1392.87 1413.47 1394.65 Q1415.39 1396.43 1418.72 1396.43 Q1422.05 1396.43 1423.98 1394.65 Q1425.9 1392.84 1425.9 1389.74 Q1425.9 1386.62 1423.98 1384.84 Q1422.08 1383.05 1418.72 1383.05 M1414.04 1381.06 Q1411.04 1380.32 1409.35 1378.26 Q1407.68 1376.2 1407.68 1373.24 Q1407.68 1369.09 1410.62 1366.69 Q1413.58 1364.28 1418.72 1364.28 Q1423.88 1364.28 1426.82 1366.69 Q1429.76 1369.09 1429.76 1373.24 Q1429.76 1376.2 1428.07 1378.26 Q1426.41 1380.32 1423.42 1381.06 Q1426.8 1381.85 1428.67 1384.14 Q1430.57 1386.43 1430.57 1389.74 Q1430.57 1394.77 1427.49 1397.45 Q1424.44 1400.14 1418.72 1400.14 Q1413 1400.14 1409.92 1397.45 Q1406.87 1394.77 1406.87 1389.74 Q1406.87 1386.43 1408.77 1384.14 Q1410.67 1381.85 1414.04 1381.06 M1412.33 1373.68 Q1412.33 1376.36 1414 1377.87 Q1415.69 1379.37 1418.72 1379.37 Q1421.73 1379.37 1423.42 1377.87 Q1425.13 1376.36 1425.13 1373.68 Q1425.13 1370.99 1423.42 1369.49 Q1421.73 1367.98 1418.72 1367.98 Q1415.69 1367.98 1414 1369.49 Q1412.33 1370.99 1412.33 1373.68 Z" fill="#000000" fill-rule="nonzero" fill-opacity="1" /><path clip-path="url(#clip800)" d="M1004.69 1415.88 Q1004.69 1417.68 1003.56 1418.71 Q1002.43 1419.71 1001.14 1419.71 Q999.92 1419.71 999.276 1419 Q998.632 1418.29 998.632 1417.39 Q998.632 1416.17 999.534 1415.1 Q1000.44 1414.04 1001.79 1413.82 Q1000.47 1412.98 998.503 1412.98 Q997.215 1412.98 996.088 1413.65 Q994.993 1414.33 994.316 1415.2 Q993.672 1416.07 993.093 1417.33 Q992.545 1418.55 992.32 1419.29 Q992.126 1420 991.965 1420.77 L989.711 1429.79 Q988.616 1434.07 988.616 1435.59 Q988.616 1437.45 989.518 1438.71 Q990.42 1439.93 992.223 1439.93 Q992.932 1439.93 993.737 1439.74 Q994.542 1439.52 995.572 1438.94 Q996.635 1438.32 997.569 1437.42 Q998.535 1436.49 999.469 1434.91 Q1000.4 1433.33 1001.02 1431.3 Q1001.21 1430.59 1001.85 1430.59 Q1002.66 1430.59 1002.66 1431.24 Q1002.66 1431.79 1002.21 1432.95 Q1001.79 1434.07 1000.85 1435.55 Q999.952 1437 998.761 1438.32 Q997.569 1439.61 995.798 1440.51 Q994.027 1441.42 992.094 1441.42 Q989.325 1441.42 987.489 1439.93 Q985.653 1438.45 984.977 1436.39 Q984.816 1436.68 984.59 1437.07 Q984.365 1437.45 983.689 1438.32 Q983.044 1439.16 982.304 1439.81 Q981.563 1440.42 980.404 1440.9 Q979.276 1441.42 978.053 1441.42 Q976.507 1441.42 975.122 1440.96 Q973.769 1440.51 972.803 1439.48 Q971.837 1438.45 971.837 1437.04 Q971.837 1435.46 972.9 1434.36 Q973.995 1433.24 975.476 1433.24 Q976.41 1433.24 977.151 1433.78 Q977.924 1434.33 977.924 1435.52 Q977.924 1436.84 977.022 1437.84 Q976.12 1438.84 974.832 1439.1 Q976.152 1439.93 978.117 1439.93 Q980.243 1439.93 981.917 1438.07 Q983.592 1436.2 984.397 1433.07 Q986.394 1425.57 987.167 1422.22 Q987.94 1418.84 987.94 1417.39 Q987.94 1416.04 987.585 1415.1 Q987.231 1414.17 986.619 1413.75 Q986.04 1413.3 985.492 1413.14 Q984.977 1412.98 984.397 1412.98 Q983.431 1412.98 982.336 1413.36 Q981.273 1413.75 979.985 1414.65 Q978.729 1415.52 977.537 1417.33 Q976.346 1419.13 975.54 1421.61 Q975.379 1422.35 974.671 1422.35 Q973.898 1422.32 973.898 1421.67 Q973.898 1421.13 974.317 1420 Q974.768 1418.84 975.669 1417.39 Q976.603 1415.94 977.795 1414.65 Q979.019 1413.33 980.79 1412.43 Q982.594 1411.53 984.526 1411.53 Q985.395 1411.53 986.233 1411.72 Q987.102 1411.88 988.133 1412.37 Q989.196 1412.85 990.13 1413.91 Q991.064 1414.97 991.643 1416.52 Q992.03 1415.78 992.545 1415.07 Q993.093 1414.36 993.93 1413.49 Q994.8 1412.59 995.991 1412.08 Q997.215 1411.53 998.568 1411.53 Q999.888 1411.53 1001.18 1411.88 Q1002.46 1412.2 1003.56 1413.27 Q1004.69 1414.3 1004.69 1415.88 Z" fill="#000000" fill-rule="nonzero" fill-opacity="1" /><polyline clip-path="url(#clip800)" style="stroke:#000000; stroke-linecap:round; stroke-linejoin:round; stroke-width:4; stroke-opacity:1; fill:none" points="1438.56,1354.51 1813.75,1029.59 "/>
<polyline clip-path="url(#clip800)" style="stroke:#000000; stroke-linecap:round; stroke-linejoin:round; stroke-width:4; stroke-opacity:1; fill:none" points="1438.56,1354.51 1430.76,1352.26 "/>
<polyline clip-path="url(#clip800)" style="stroke:#000000; stroke-linecap:round; stroke-linejoin:round; stroke-width:4; stroke-opacity:1; fill:none" points="1626.16,1192.05 1618.36,1189.8 "/>
<polyline clip-path="url(#clip800)" style="stroke:#000000; stroke-linecap:round; stroke-linejoin:round; stroke-width:4; stroke-opacity:1; fill:none" points="1813.75,1029.59 1805.96,1027.34 "/>
<path clip-path="url(#clip800)" d="M1457.41 1376.74 L1487.09 1376.74 L1487.09 1380.67 L1457.41 1380.67 L1457.41 1376.74 Z" fill="#000000" fill-rule="nonzero" fill-opacity="1" /><path clip-path="url(#clip800)" d="M1507.18 1362.08 Q1503.57 1362.08 1501.74 1365.65 Q1499.94 1369.19 1499.94 1376.32 Q1499.94 1383.43 1501.74 1386.99 Q1503.57 1390.53 1507.18 1390.53 Q1510.82 1390.53 1512.62 1386.99 Q1514.45 1383.43 1514.45 1376.32 Q1514.45 1369.19 1512.62 1365.65 Q1510.82 1362.08 1507.18 1362.08 M1507.18 1358.38 Q1512.99 1358.38 1516.05 1362.99 Q1519.13 1367.57 1519.13 1376.32 Q1519.13 1385.05 1516.05 1389.65 Q1512.99 1394.24 1507.18 1394.24 Q1501.37 1394.24 1498.29 1389.65 Q1495.24 1385.05 1495.24 1376.32 Q1495.24 1367.57 1498.29 1362.99 Q1501.37 1358.38 1507.18 1358.38 Z" fill="#000000" fill-rule="nonzero" fill-opacity="1" /><path clip-path="url(#clip800)" d="M1527.34 1387.69 L1532.23 1387.69 L1532.23 1393.57 L1527.34 1393.57 L1527.34 1387.69 Z" fill="#000000" fill-rule="nonzero" fill-opacity="1" /><path clip-path="url(#clip800)" d="M1552.41 1377.15 Q1549.08 1377.15 1547.16 1378.94 Q1545.26 1380.72 1545.26 1383.84 Q1545.26 1386.97 1547.16 1388.75 Q1549.08 1390.53 1552.41 1390.53 Q1555.75 1390.53 1557.67 1388.75 Q1559.59 1386.95 1559.59 1383.84 Q1559.59 1380.72 1557.67 1378.94 Q1555.77 1377.15 1552.41 1377.15 M1547.74 1375.16 Q1544.73 1374.42 1543.04 1372.36 Q1541.37 1370.3 1541.37 1367.34 Q1541.37 1363.2 1544.31 1360.79 Q1547.27 1358.38 1552.41 1358.38 Q1557.58 1358.38 1560.52 1360.79 Q1563.46 1363.2 1563.46 1367.34 Q1563.46 1370.3 1561.77 1372.36 Q1560.1 1374.42 1557.11 1375.16 Q1560.49 1375.95 1562.37 1378.24 Q1564.27 1380.53 1564.27 1383.84 Q1564.27 1388.87 1561.19 1391.55 Q1558.13 1394.24 1552.41 1394.24 Q1546.7 1394.24 1543.62 1391.55 Q1540.56 1388.87 1540.56 1383.84 Q1540.56 1380.53 1542.46 1378.24 Q1544.36 1375.95 1547.74 1375.16 M1546.02 1367.78 Q1546.02 1370.46 1547.69 1371.97 Q1549.38 1373.47 1552.41 1373.47 Q1555.42 1373.47 1557.11 1371.97 Q1558.83 1370.46 1558.83 1367.78 Q1558.83 1365.09 1557.11 1363.59 Q1555.42 1362.08 1552.41 1362.08 Q1549.38 1362.08 1547.69 1363.59 Q1546.02 1365.09 1546.02 1367.78 Z" fill="#000000" fill-rule="nonzero" fill-opacity="1" /><path clip-path="url(#clip800)" d="M1656.96 1199.62 Q1653.34 1199.62 1651.52 1203.19 Q1649.71 1206.73 1649.71 1213.86 Q1649.71 1220.96 1651.52 1224.53 Q1653.34 1228.07 1656.96 1228.07 Q1660.59 1228.07 1662.4 1224.53 Q1664.22 1220.96 1664.22 1213.86 Q1664.22 1206.73 1662.4 1203.19 Q1660.59 1199.62 1656.96 1199.62 M1656.96 1195.92 Q1662.77 1195.92 1665.82 1200.52 Q1668.9 1205.11 1668.9 1213.86 Q1668.9 1222.58 1665.82 1227.19 Q1662.77 1231.77 1656.96 1231.77 Q1651.15 1231.77 1648.07 1227.19 Q1645.01 1222.58 1645.01 1213.86 Q1645.01 1205.11 1648.07 1200.52 Q1651.15 1195.92 1656.96 1195.92 Z" fill="#000000" fill-rule="nonzero" fill-opacity="1" /><path clip-path="url(#clip800)" d="M1677.12 1225.22 L1682 1225.22 L1682 1231.1 L1677.12 1231.1 L1677.12 1225.22 Z" fill="#000000" fill-rule="nonzero" fill-opacity="1" /><path clip-path="url(#clip800)" d="M1702.19 1199.62 Q1698.58 1199.62 1696.75 1203.19 Q1694.94 1206.73 1694.94 1213.86 Q1694.94 1220.96 1696.75 1224.53 Q1698.58 1228.07 1702.19 1228.07 Q1705.82 1228.07 1707.63 1224.53 Q1709.46 1220.96 1709.46 1213.86 Q1709.46 1206.73 1707.63 1203.19 Q1705.82 1199.62 1702.19 1199.62 M1702.19 1195.92 Q1708 1195.92 1711.05 1200.52 Q1714.13 1205.11 1714.13 1213.86 Q1714.13 1222.58 1711.05 1227.19 Q1708 1231.77 1702.19 1231.77 Q1696.38 1231.77 1693.3 1227.19 Q1690.24 1222.58 1690.24 1213.86 Q1690.24 1205.11 1693.3 1200.52 Q1696.38 1195.92 1702.19 1195.92 Z" fill="#000000" fill-rule="nonzero" fill-opacity="1" /><path clip-path="url(#clip800)" d="M1844.55 1037.16 Q1840.94 1037.16 1839.11 1040.72 Q1837.31 1044.26 1837.31 1051.39 Q1837.31 1058.5 1839.11 1062.06 Q1840.94 1065.61 1844.55 1065.61 Q1848.19 1065.61 1849.99 1062.06 Q1851.82 1058.5 1851.82 1051.39 Q1851.82 1044.26 1849.99 1040.72 Q1848.19 1037.16 1844.55 1037.16 M1844.55 1033.45 Q1850.36 1033.45 1853.42 1038.06 Q1856.5 1042.64 1856.5 1051.39 Q1856.5 1060.12 1853.42 1064.73 Q1850.36 1069.31 1844.55 1069.31 Q1838.74 1069.31 1835.66 1064.73 Q1832.61 1060.12 1832.61 1051.39 Q1832.61 1042.64 1835.66 1038.06 Q1838.74 1033.45 1844.55 1033.45 Z" fill="#000000" fill-rule="nonzero" fill-opacity="1" /><path clip-path="url(#clip800)" d="M1864.71 1062.76 L1869.6 1062.76 L1869.6 1068.64 L1864.71 1068.64 L1864.71 1062.76 Z" fill="#000000" fill-rule="nonzero" fill-opacity="1" /><path clip-path="url(#clip800)" d="M1889.78 1052.23 Q1886.45 1052.23 1884.53 1054.01 Q1882.63 1055.79 1882.63 1058.92 Q1882.63 1062.04 1884.53 1063.82 Q1886.45 1065.61 1889.78 1065.61 Q1893.12 1065.61 1895.04 1063.82 Q1896.96 1062.02 1896.96 1058.92 Q1896.96 1055.79 1895.04 1054.01 Q1893.14 1052.23 1889.78 1052.23 M1885.11 1050.24 Q1882.1 1049.5 1880.41 1047.43 Q1878.74 1045.37 1878.74 1042.41 Q1878.74 1038.27 1881.68 1035.86 Q1884.64 1033.45 1889.78 1033.45 Q1894.95 1033.45 1897.89 1035.86 Q1900.82 1038.27 1900.82 1042.41 Q1900.82 1045.37 1899.14 1047.43 Q1897.47 1049.5 1894.48 1050.24 Q1897.86 1051.02 1899.74 1053.31 Q1901.64 1055.61 1901.64 1058.92 Q1901.64 1063.94 1898.56 1066.62 Q1895.5 1069.31 1889.78 1069.31 Q1884.07 1069.31 1880.99 1066.62 Q1877.93 1063.94 1877.93 1058.92 Q1877.93 1055.61 1879.83 1053.31 Q1881.73 1051.02 1885.11 1050.24 M1883.39 1042.85 Q1883.39 1045.54 1885.06 1047.04 Q1886.75 1048.55 1889.78 1048.55 Q1892.79 1048.55 1894.48 1047.04 Q1896.2 1045.54 1896.2 1042.85 Q1896.2 1040.17 1894.48 1038.66 Q1892.79 1037.16 1889.78 1037.16 Q1886.75 1037.16 1885.06 1038.66 Q1883.39 1040.17 1883.39 1042.85 Z" fill="#000000" fill-rule="nonzero" fill-opacity="1" /><path clip-path="url(#clip800)" d="M1763.71 1339.05 Q1763.71 1339.5 1763.42 1340.56 L1757.11 1365.75 Q1755.73 1371.35 1751.22 1375.28 Q1746.74 1379.21 1741.65 1379.21 Q1738.59 1379.21 1736.63 1377.57 Q1734.66 1375.96 1734.66 1373.48 Q1734.66 1371.29 1735.82 1370.22 Q1736.98 1369.19 1738.37 1369.19 Q1738.82 1369.19 1739.3 1369.32 Q1739.79 1369.45 1740.3 1370 Q1740.82 1370.54 1740.82 1371.48 Q1740.82 1372.99 1739.5 1374.18 Q1738.85 1374.73 1738.24 1374.86 Q1737.66 1374.99 1736.66 1374.99 Q1737.05 1375.89 1737.76 1376.5 Q1738.46 1377.11 1739.27 1377.34 Q1740.08 1377.6 1740.59 1377.66 Q1741.14 1377.76 1741.65 1377.76 Q1745.78 1377.76 1748.93 1373.6 Q1749.87 1372.35 1750.54 1371.09 Q1751.25 1369.87 1751.77 1368.35 Q1752.28 1366.87 1752.51 1366.07 Q1752.76 1365.26 1753.22 1363.43 Q1750.22 1366.42 1746.55 1366.42 Q1745 1366.42 1743.62 1366 Q1742.27 1365.58 1741.07 1364.72 Q1739.88 1363.81 1739.17 1362.24 Q1738.5 1360.66 1738.5 1358.56 Q1738.5 1356.34 1739.37 1353.31 Q1740.24 1350.29 1742.33 1344.72 Q1743.46 1341.59 1743.46 1340.08 Q1743.46 1339.34 1743.3 1338.89 Q1743.13 1338.4 1742.81 1338.24 Q1742.49 1338.05 1742.3 1338.02 Q1742.14 1337.98 1741.81 1337.98 Q1739.91 1337.98 1738.14 1339.92 Q1736.37 1341.85 1735.15 1346.16 Q1734.89 1346.97 1734.73 1347.16 Q1734.57 1347.36 1734.08 1347.36 Q1733.28 1347.32 1733.28 1346.68 Q1733.28 1346.42 1733.57 1345.42 Q1733.86 1344.39 1734.54 1342.88 Q1735.24 1341.33 1736.21 1339.95 Q1737.18 1338.53 1738.69 1337.53 Q1740.24 1336.54 1742.01 1336.54 Q1744.42 1336.54 1745.9 1338.11 Q1747.42 1339.66 1747.42 1341.95 Q1747.42 1342.88 1747.16 1343.72 Q1746.94 1344.52 1746.1 1346.68 Q1742.72 1355.38 1742.72 1359.63 Q1742.72 1360.66 1742.88 1361.53 Q1743.07 1362.36 1743.49 1363.2 Q1743.91 1364.01 1744.75 1364.49 Q1745.61 1364.94 1746.81 1364.94 Q1748.32 1364.94 1749.74 1364.23 Q1751.19 1363.49 1752.09 1362.49 Q1753.02 1361.49 1753.57 1360.66 Q1754.15 1359.79 1754.28 1359.34 L1757.24 1347.49 L1758.56 1342.2 Q1759.17 1339.34 1759.46 1338.63 Q1759.85 1337.95 1760.53 1337.6 Q1761.2 1337.24 1761.78 1337.24 Q1762.59 1337.24 1763.13 1337.73 Q1763.71 1338.21 1763.71 1339.05 Z" fill="#000000" fill-rule="nonzero" fill-opacity="1" /><polyline clip-path="url(#clip800)" style="stroke:#000000; stroke-linecap:round; stroke-linejoin:round; stroke-width:4; stroke-opacity:1; fill:none" points="788.706,1166.92 788.706,517.064 "/>
<polyline clip-path="url(#clip800)" style="stroke:#000000; stroke-linecap:round; stroke-linejoin:round; stroke-width:4; stroke-opacity:1; fill:none" points="788.706,1166.92 793.209,1163.02 "/>
<polyline clip-path="url(#clip800)" style="stroke:#000000; stroke-linecap:round; stroke-linejoin:round; stroke-width:4; stroke-opacity:1; fill:none" points="788.706,852.822 793.209,848.923 "/>
<polyline clip-path="url(#clip800)" style="stroke:#000000; stroke-linecap:round; stroke-linejoin:round; stroke-width:4; stroke-opacity:1; fill:none" points="788.706,560.388 793.209,556.489 "/>
<path clip-path="url(#clip800)" d="M672.569 1152.72 Q668.958 1152.72 667.129 1156.28 Q665.324 1159.82 665.324 1166.95 Q665.324 1174.06 667.129 1177.62 Q668.958 1181.17 672.569 1181.17 Q676.203 1181.17 678.009 1177.62 Q679.837 1174.06 679.837 1166.95 Q679.837 1159.82 678.009 1156.28 Q676.203 1152.72 672.569 1152.72 M672.569 1149.01 Q678.379 1149.01 681.435 1153.62 Q684.513 1158.2 684.513 1166.95 Q684.513 1175.68 681.435 1180.29 Q678.379 1184.87 672.569 1184.87 Q666.759 1184.87 663.68 1180.29 Q660.625 1175.68 660.625 1166.95 Q660.625 1158.2 663.68 1153.62 Q666.759 1149.01 672.569 1149.01 Z" fill="#000000" fill-rule="nonzero" fill-opacity="1" /><path clip-path="url(#clip800)" d="M692.731 1178.32 L697.615 1178.32 L697.615 1184.2 L692.731 1184.2 L692.731 1178.32 Z" fill="#000000" fill-rule="nonzero" fill-opacity="1" /><path clip-path="url(#clip800)" d="M720.647 1153.71 L708.842 1172.16 L720.647 1172.16 L720.647 1153.71 M719.421 1149.64 L725.3 1149.64 L725.3 1172.16 L730.231 1172.16 L730.231 1176.05 L725.3 1176.05 L725.3 1184.2 L720.647 1184.2 L720.647 1176.05 L705.046 1176.05 L705.046 1171.54 L719.421 1149.64 Z" fill="#000000" fill-rule="nonzero" fill-opacity="1" /><path clip-path="url(#clip800)" d="M747.962 1152.72 Q744.351 1152.72 742.522 1156.28 Q740.717 1159.82 740.717 1166.95 Q740.717 1174.06 742.522 1177.62 Q744.351 1181.17 747.962 1181.17 Q751.596 1181.17 753.402 1177.62 Q755.231 1174.06 755.231 1166.95 Q755.231 1159.82 753.402 1156.28 Q751.596 1152.72 747.962 1152.72 M747.962 1149.01 Q753.772 1149.01 756.828 1153.62 Q759.906 1158.2 759.906 1166.95 Q759.906 1175.68 756.828 1180.29 Q753.772 1184.87 747.962 1184.87 Q742.152 1184.87 739.073 1180.29 Q736.018 1175.68 736.018 1166.95 Q736.018 1158.2 739.073 1153.62 Q742.152 1149.01 747.962 1149.01 Z" fill="#000000" fill-rule="nonzero" fill-opacity="1" /><path clip-path="url(#clip800)" d="M672.754 838.621 Q669.143 838.621 667.314 842.186 Q665.509 845.727 665.509 852.857 Q665.509 859.963 667.314 863.528 Q669.143 867.07 672.754 867.07 Q676.388 867.07 678.194 863.528 Q680.023 859.963 680.023 852.857 Q680.023 845.727 678.194 842.186 Q676.388 838.621 672.754 838.621 M672.754 834.917 Q678.564 834.917 681.62 839.523 Q684.698 844.107 684.698 852.857 Q684.698 861.584 681.62 866.19 Q678.564 870.773 672.754 870.773 Q666.944 870.773 663.865 866.19 Q660.81 861.584 660.81 852.857 Q660.81 844.107 663.865 839.523 Q666.944 834.917 672.754 834.917 Z" fill="#000000" fill-rule="nonzero" fill-opacity="1" /><path clip-path="url(#clip800)" d="M692.916 864.222 L697.8 864.222 L697.8 870.102 L692.916 870.102 L692.916 864.222 Z" fill="#000000" fill-rule="nonzero" fill-opacity="1" /><path clip-path="url(#clip800)" d="M718.564 850.959 Q715.416 850.959 713.564 853.111 Q711.735 855.264 711.735 859.014 Q711.735 862.741 713.564 864.917 Q715.416 867.07 718.564 867.07 Q721.712 867.07 723.541 864.917 Q725.393 862.741 725.393 859.014 Q725.393 855.264 723.541 853.111 Q721.712 850.959 718.564 850.959 M727.846 836.306 L727.846 840.565 Q726.087 839.732 724.282 839.292 Q722.499 838.852 720.74 838.852 Q716.11 838.852 713.657 841.977 Q711.226 845.102 710.879 851.422 Q712.245 849.408 714.305 848.343 Q716.365 847.255 718.842 847.255 Q724.05 847.255 727.059 850.426 Q730.092 853.574 730.092 859.014 Q730.092 864.338 726.944 867.556 Q723.795 870.773 718.564 870.773 Q712.569 870.773 709.397 866.19 Q706.226 861.584 706.226 852.857 Q706.226 844.662 710.115 839.801 Q714.004 834.917 720.555 834.917 Q722.314 834.917 724.096 835.264 Q725.902 835.611 727.846 836.306 Z" fill="#000000" fill-rule="nonzero" fill-opacity="1" /><path clip-path="url(#clip800)" d="M738.286 869.384 L738.286 865.125 Q740.045 865.959 741.851 866.398 Q743.656 866.838 745.393 866.838 Q750.022 866.838 752.453 863.736 Q754.906 860.611 755.254 854.269 Q753.911 856.26 751.851 857.324 Q749.791 858.389 747.291 858.389 Q742.106 858.389 739.073 855.264 Q736.064 852.116 736.064 846.676 Q736.064 841.352 739.212 838.135 Q742.36 834.917 747.592 834.917 Q753.587 834.917 756.735 839.523 Q759.906 844.107 759.906 852.857 Q759.906 861.028 756.018 865.912 Q752.152 870.773 745.601 870.773 Q743.842 870.773 742.036 870.426 Q740.231 870.079 738.286 869.384 M747.592 854.732 Q750.74 854.732 752.568 852.579 Q754.42 850.426 754.42 846.676 Q754.42 842.949 752.568 840.797 Q750.74 838.621 747.592 838.621 Q744.444 838.621 742.592 840.797 Q740.763 842.949 740.763 846.676 Q740.763 850.426 742.592 852.579 Q744.444 854.732 747.592 854.732 Z" fill="#000000" fill-rule="nonzero" fill-opacity="1" /><path clip-path="url(#clip800)" d="M672.407 546.186 Q668.796 546.186 666.967 549.751 Q665.162 553.293 665.162 560.423 Q665.162 567.529 666.967 571.094 Q668.796 574.635 672.407 574.635 Q676.041 574.635 677.847 571.094 Q679.675 567.529 679.675 560.423 Q679.675 553.293 677.847 549.751 Q676.041 546.186 672.407 546.186 M672.407 542.483 Q678.217 542.483 681.273 547.089 Q684.351 551.673 684.351 560.423 Q684.351 569.149 681.273 573.756 Q678.217 578.339 672.407 578.339 Q666.597 578.339 663.518 573.756 Q660.462 569.149 660.462 560.423 Q660.462 551.673 663.518 547.089 Q666.597 542.483 672.407 542.483 Z" fill="#000000" fill-rule="nonzero" fill-opacity="1" /><path clip-path="url(#clip800)" d="M692.569 571.788 L697.453 571.788 L697.453 577.668 L692.569 577.668 L692.569 571.788 Z" fill="#000000" fill-rule="nonzero" fill-opacity="1" /><path clip-path="url(#clip800)" d="M707.777 576.95 L707.777 572.691 Q709.536 573.524 711.342 573.964 Q713.147 574.404 714.884 574.404 Q719.513 574.404 721.944 571.302 Q724.397 568.177 724.745 561.835 Q723.402 563.825 721.342 564.89 Q719.282 565.955 716.782 565.955 Q711.596 565.955 708.564 562.83 Q705.555 559.682 705.555 554.242 Q705.555 548.918 708.703 545.7 Q711.851 542.483 717.083 542.483 Q723.078 542.483 726.226 547.089 Q729.397 551.673 729.397 560.423 Q729.397 568.594 725.508 573.478 Q721.643 578.339 715.092 578.339 Q713.333 578.339 711.527 577.992 Q709.721 577.645 707.777 576.95 M717.083 562.297 Q720.231 562.297 722.059 560.145 Q723.911 557.992 723.911 554.242 Q723.911 550.515 722.059 548.362 Q720.231 546.186 717.083 546.186 Q713.934 546.186 712.083 548.362 Q710.254 550.515 710.254 554.242 Q710.254 557.992 712.083 560.145 Q713.934 562.297 717.083 562.297 Z" fill="#000000" fill-rule="nonzero" fill-opacity="1" /><path clip-path="url(#clip800)" d="M748.379 558.524 Q745.231 558.524 743.379 560.677 Q741.55 562.83 741.55 566.58 Q741.55 570.307 743.379 572.483 Q745.231 574.635 748.379 574.635 Q751.527 574.635 753.356 572.483 Q755.207 570.307 755.207 566.58 Q755.207 562.83 753.356 560.677 Q751.527 558.524 748.379 558.524 M757.661 543.872 L757.661 548.131 Q755.902 547.298 754.096 546.858 Q752.314 546.418 750.555 546.418 Q745.925 546.418 743.471 549.543 Q741.041 552.668 740.694 558.987 Q742.059 556.973 744.119 555.909 Q746.18 554.821 748.656 554.821 Q753.865 554.821 756.874 557.992 Q759.906 561.14 759.906 566.58 Q759.906 571.904 756.758 575.122 Q753.61 578.339 748.379 578.339 Q742.383 578.339 739.212 573.756 Q736.041 569.149 736.041 560.423 Q736.041 552.228 739.93 547.367 Q743.819 542.483 750.369 542.483 Q752.129 542.483 753.911 542.83 Q755.717 543.177 757.661 543.872 Z" fill="#000000" fill-rule="nonzero" fill-opacity="1" /><path clip-path="url(#clip800)" d="M574.319 829.22 Q574.544 829.22 575.51 829.768 Q576.444 830.283 578.795 832.183 Q581.146 834.083 583.884 836.917 Q584.947 837.98 586.428 839.59 Q587.909 841.201 588.876 842.296 L589.842 843.391 Q593.384 847.577 597.346 851.249 Q597.249 850.991 597.217 850.54 Q597.153 850.09 597.153 849.767 L597.153 849.445 Q597.153 847.771 598.28 844.84 Q599.117 842.263 599.117 840.943 Q599.117 839.655 598.666 838.238 Q598.215 836.821 596.895 835.275 Q595.574 833.729 593.578 833.02 Q593.256 832.892 593.159 832.827 Q593.03 832.763 592.901 832.57 Q592.74 832.376 592.74 832.119 Q592.74 831.764 592.934 831.539 Q593.127 831.314 593.384 831.314 Q593.964 831.314 595.124 831.764 Q596.283 832.183 597.732 833.117 Q599.182 834.019 600.502 835.21 Q601.79 836.37 602.692 838.109 Q603.562 839.848 603.562 841.684 Q603.562 843.004 602.917 843.97 Q602.306 844.937 601.114 845.903 Q599.6 847.223 599.117 847.932 Q598.602 848.64 598.602 849.735 Q598.602 852.666 602.692 855.339 Q603.272 855.629 603.401 855.822 Q603.562 855.983 603.562 856.37 Q603.529 857.175 602.885 857.175 Q602.628 857.175 601.5 856.466 Q600.341 855.726 598.312 854.083 Q596.283 852.408 594.254 850.379 L588.715 844.453 Q583.175 837.883 580.051 835.275 Q580.051 836.37 580.019 836.853 Q579.987 837.304 579.794 838.206 Q579.568 839.107 579.085 840.363 Q578.087 843.294 578.087 844.518 Q578.087 844.84 578.119 845.194 Q578.151 845.548 578.312 846.354 Q578.473 847.127 578.795 847.771 Q579.085 848.415 579.729 849.091 Q580.341 849.767 581.178 850.122 Q581.436 850.218 581.565 850.283 Q581.694 850.347 581.823 850.54 Q581.919 850.701 581.919 850.959 Q581.919 851.346 581.694 851.571 Q581.468 851.764 581.178 851.764 Q580.599 851.764 579.407 851.185 Q578.216 850.605 576.927 849.639 Q575.607 848.672 574.641 847.094 Q573.675 845.516 573.675 843.777 Q573.675 842.747 574.125 841.877 Q574.576 840.975 575.059 840.524 Q575.51 840.041 576.509 839.236 Q577.282 838.56 577.604 838.238 Q577.926 837.916 578.28 837.272 Q578.602 836.595 578.602 835.855 Q578.602 834.631 577.668 833.504 Q576.702 832.376 574.383 830.927 Q573.675 830.541 573.675 829.929 Q573.675 829.22 574.319 829.22 Z" fill="#000000" fill-rule="nonzero" fill-opacity="1" /><path clip-path="url(#clip800)" d="M829.178 12.096 L880.341 12.096 L880.341 18.9825 L858.871 18.9825 L858.871 72.576 L850.648 72.576 L850.648 18.9825 L829.178 18.9825 L829.178 12.096 Z" fill="#000000" fill-rule="nonzero" fill-opacity="1" /><path clip-path="url(#clip800)" d="M902.013 34.1734 Q900.758 33.4443 899.259 33.1202 Q897.8 32.7556 896.018 32.7556 Q889.699 32.7556 886.296 36.8875 Q882.934 40.9789 882.934 48.6757 L882.934 72.576 L875.439 72.576 L875.439 27.2059 L882.934 27.2059 L882.934 34.2544 Q885.283 30.1225 889.05 28.1376 Q892.818 26.1121 898.206 26.1121 Q898.975 26.1121 899.907 26.2337 Q900.839 26.3147 901.973 26.5172 L902.013 34.1734 Z" fill="#000000" fill-rule="nonzero" fill-opacity="1" /><path clip-path="url(#clip800)" d="M909.062 54.671 L909.062 27.2059 L916.516 27.2059 L916.516 54.3874 Q916.516 60.8284 919.027 64.0691 Q921.539 67.2693 926.562 67.2693 Q932.598 67.2693 936.081 63.421 Q939.606 59.5726 939.606 52.9291 L939.606 27.2059 L947.059 27.2059 L947.059 72.576 L939.606 72.576 L939.606 65.6084 Q936.892 69.7404 933.286 71.7658 Q929.722 73.7508 924.982 73.7508 Q917.164 73.7508 913.113 68.8897 Q909.062 64.0286 909.062 54.671 M927.818 26.1121 L927.818 26.1121 Z" fill="#000000" fill-rule="nonzero" fill-opacity="1" /><path clip-path="url(#clip800)" d="M1001.22 48.0275 L1001.22 51.6733 L966.949 51.6733 Q967.435 59.3701 971.567 63.421 Q975.74 67.4314 983.153 67.4314 Q987.447 67.4314 991.457 66.3781 Q995.508 65.3249 999.478 63.2184 L999.478 70.267 Q995.468 71.9684 991.255 72.8596 Q987.042 73.7508 982.707 73.7508 Q971.851 73.7508 965.491 67.4314 Q959.172 61.1119 959.172 50.3365 Q959.172 39.1965 965.167 32.6746 Q971.203 26.1121 981.411 26.1121 Q990.566 26.1121 995.873 32.0264 Q1001.22 37.9003 1001.22 48.0275 M993.766 45.84 Q993.685 39.7232 990.323 36.0774 Q987.001 32.4315 981.492 32.4315 Q975.254 32.4315 971.486 35.9558 Q967.76 39.4801 967.192 45.8805 L993.766 45.84 Z" fill="#000000" fill-rule="nonzero" fill-opacity="1" /><path clip-path="url(#clip800)" d="M1039.83 9.54393 L1047.28 9.54393 L1047.28 72.576 L1039.83 72.576 L1039.83 9.54393 Z" fill="#000000" fill-rule="nonzero" fill-opacity="1" /><path clip-path="url(#clip800)" d="M1062.87 27.2059 L1070.33 27.2059 L1070.33 72.576 L1062.87 72.576 L1062.87 27.2059 M1062.87 9.54393 L1070.33 9.54393 L1070.33 18.9825 L1062.87 18.9825 L1062.87 9.54393 Z" fill="#000000" fill-rule="nonzero" fill-opacity="1" /><path clip-path="url(#clip800)" d="M1115.78 49.3643 Q1115.78 41.2625 1112.42 36.8065 Q1109.1 32.3505 1103.06 32.3505 Q1097.06 32.3505 1093.7 36.8065 Q1090.38 41.2625 1090.38 49.3643 Q1090.38 57.4256 1093.7 61.8816 Q1097.06 66.3376 1103.06 66.3376 Q1109.1 66.3376 1112.42 61.8816 Q1115.78 57.4256 1115.78 49.3643 M1123.23 66.9452 Q1123.23 78.5308 1118.09 84.1616 Q1112.94 89.8329 1102.33 89.8329 Q1098.4 89.8329 1094.92 89.2252 Q1091.43 88.6581 1088.15 87.4428 L1088.15 80.1917 Q1091.43 81.9741 1094.63 82.8248 Q1097.83 83.6755 1101.16 83.6755 Q1108.49 83.6755 1112.13 79.8271 Q1115.78 76.0193 1115.78 68.282 L1115.78 64.5957 Q1113.47 68.6061 1109.87 70.5911 Q1106.26 72.576 1101.24 72.576 Q1092.89 72.576 1087.79 66.2161 Q1082.68 59.8562 1082.68 49.3643 Q1082.68 38.832 1087.79 32.472 Q1092.89 26.1121 1101.24 26.1121 Q1106.26 26.1121 1109.87 28.0971 Q1113.47 30.082 1115.78 34.0924 L1115.78 27.2059 L1123.23 27.2059 L1123.23 66.9452 Z" fill="#000000" fill-rule="nonzero" fill-opacity="1" /><path clip-path="url(#clip800)" d="M1176.3 45.1919 L1176.3 72.576 L1168.85 72.576 L1168.85 45.4349 Q1168.85 38.994 1166.33 35.7938 Q1163.82 32.5936 1158.8 32.5936 Q1152.76 32.5936 1149.28 36.4419 Q1145.8 40.2903 1145.8 46.9338 L1145.8 72.576 L1138.3 72.576 L1138.3 9.54393 L1145.8 9.54393 L1145.8 34.2544 Q1148.47 30.163 1152.08 28.1376 Q1155.72 26.1121 1160.46 26.1121 Q1168.28 26.1121 1172.29 30.9732 Q1176.3 35.7938 1176.3 45.1919 Z" fill="#000000" fill-rule="nonzero" fill-opacity="1" /><path clip-path="url(#clip800)" d="M1198.54 14.324 L1198.54 27.2059 L1213.89 27.2059 L1213.89 32.9987 L1198.54 32.9987 L1198.54 57.6282 Q1198.54 63.1779 1200.04 64.7578 Q1201.58 66.3376 1206.24 66.3376 L1213.89 66.3376 L1213.89 72.576 L1206.24 72.576 Q1197.61 72.576 1194.33 69.3758 Q1191.05 66.1351 1191.05 57.6282 L1191.05 32.9987 L1185.58 32.9987 L1185.58 27.2059 L1191.05 27.2059 L1191.05 14.324 L1198.54 14.324 Z" fill="#000000" fill-rule="nonzero" fill-opacity="1" /><path clip-path="url(#clip800)" d="M1223.7 27.2059 L1231.15 27.2059 L1231.15 72.576 L1223.7 72.576 L1223.7 27.2059 M1223.7 9.54393 L1231.15 9.54393 L1231.15 18.9825 L1223.7 18.9825 L1223.7 9.54393 Z" fill="#000000" fill-rule="nonzero" fill-opacity="1" /><path clip-path="url(#clip800)" d="M1284.46 45.1919 L1284.46 72.576 L1277.01 72.576 L1277.01 45.4349 Q1277.01 38.994 1274.49 35.7938 Q1271.98 32.5936 1266.96 32.5936 Q1260.92 32.5936 1257.44 36.4419 Q1253.96 40.2903 1253.96 46.9338 L1253.96 72.576 L1246.46 72.576 L1246.46 27.2059 L1253.96 27.2059 L1253.96 34.2544 Q1256.63 30.163 1260.23 28.1376 Q1263.88 26.1121 1268.62 26.1121 Q1276.44 26.1121 1280.45 30.9732 Q1284.46 35.7938 1284.46 45.1919 Z" fill="#000000" fill-rule="nonzero" fill-opacity="1" /><path clip-path="url(#clip800)" d="M1329.18 49.3643 Q1329.18 41.2625 1325.82 36.8065 Q1322.5 32.3505 1316.46 32.3505 Q1310.47 32.3505 1307.1 36.8065 Q1303.78 41.2625 1303.78 49.3643 Q1303.78 57.4256 1307.1 61.8816 Q1310.47 66.3376 1316.46 66.3376 Q1322.5 66.3376 1325.82 61.8816 Q1329.18 57.4256 1329.18 49.3643 M1336.63 66.9452 Q1336.63 78.5308 1331.49 84.1616 Q1326.35 89.8329 1315.73 89.8329 Q1311.8 89.8329 1308.32 89.2252 Q1304.84 88.6581 1301.55 87.4428 L1301.55 80.1917 Q1304.84 81.9741 1308.04 82.8248 Q1311.24 83.6755 1314.56 83.6755 Q1321.89 83.6755 1325.54 79.8271 Q1329.18 76.0193 1329.18 68.282 L1329.18 64.5957 Q1326.87 68.6061 1323.27 70.5911 Q1319.66 72.576 1314.64 72.576 Q1306.29 72.576 1301.19 66.2161 Q1296.09 59.8562 1296.09 49.3643 Q1296.09 38.832 1301.19 32.472 Q1306.29 26.1121 1314.64 26.1121 Q1319.66 26.1121 1323.27 28.0971 Q1326.87 30.082 1329.18 34.0924 L1329.18 27.2059 L1336.63 27.2059 L1336.63 66.9452 Z" fill="#000000" fill-rule="nonzero" fill-opacity="1" /><path clip-path="url(#clip800)" d="M1408.21 34.0924 L1408.21 9.54393 L1415.67 9.54393 L1415.67 72.576 L1408.21 72.576 L1408.21 65.7705 Q1405.86 69.8214 1402.26 71.8063 Q1398.69 73.7508 1393.67 73.7508 Q1385.45 73.7508 1380.26 67.1883 Q1375.12 60.6258 1375.12 49.9314 Q1375.12 39.2371 1380.26 32.6746 Q1385.45 26.1121 1393.67 26.1121 Q1398.69 26.1121 1402.26 28.0971 Q1405.86 30.0415 1408.21 34.0924 M1382.82 49.9314 Q1382.82 58.1548 1386.18 62.8538 Q1389.58 67.5124 1395.49 67.5124 Q1401.41 67.5124 1404.81 62.8538 Q1408.21 58.1548 1408.21 49.9314 Q1408.21 41.7081 1404.81 37.0496 Q1401.41 32.3505 1395.49 32.3505 Q1389.58 32.3505 1386.18 37.0496 Q1382.82 41.7081 1382.82 49.9314 Z" fill="#000000" fill-rule="nonzero" fill-opacity="1" /><path clip-path="url(#clip800)" d="M1431.02 27.2059 L1438.47 27.2059 L1438.47 72.576 L1431.02 72.576 L1431.02 27.2059 M1431.02 9.54393 L1438.47 9.54393 L1438.47 18.9825 L1431.02 18.9825 L1431.02 9.54393 Z" fill="#000000" fill-rule="nonzero" fill-opacity="1" /><path clip-path="url(#clip800)" d="M1480.36 34.1734 Q1479.11 33.4443 1477.61 33.1202 Q1476.15 32.7556 1474.37 32.7556 Q1468.05 32.7556 1464.64 36.8875 Q1461.28 40.9789 1461.28 48.6757 L1461.28 72.576 L1453.79 72.576 L1453.79 27.2059 L1461.28 27.2059 L1461.28 34.2544 Q1463.63 30.1225 1467.4 28.1376 Q1471.17 26.1121 1476.55 26.1121 Q1477.32 26.1121 1478.25 26.2337 Q1479.19 26.3147 1480.32 26.5172 L1480.36 34.1734 Z" fill="#000000" fill-rule="nonzero" fill-opacity="1" /><path clip-path="url(#clip800)" d="M1525.16 48.0275 L1525.16 51.6733 L1490.89 51.6733 Q1491.38 59.3701 1495.51 63.421 Q1499.68 67.4314 1507.1 67.4314 Q1511.39 67.4314 1515.4 66.3781 Q1519.45 65.3249 1523.42 63.2184 L1523.42 70.267 Q1519.41 71.9684 1515.2 72.8596 Q1510.99 73.7508 1506.65 73.7508 Q1495.79 73.7508 1489.43 67.4314 Q1483.12 61.1119 1483.12 50.3365 Q1483.12 39.1965 1489.11 32.6746 Q1495.15 26.1121 1505.36 26.1121 Q1514.51 26.1121 1519.82 32.0264 Q1525.16 37.9003 1525.16 48.0275 M1517.71 45.84 Q1517.63 39.7232 1514.27 36.0774 Q1510.95 32.4315 1505.44 32.4315 Q1499.2 32.4315 1495.43 35.9558 Q1491.7 39.4801 1491.14 45.8805 L1517.71 45.84 Z" fill="#000000" fill-rule="nonzero" fill-opacity="1" /><path clip-path="url(#clip800)" d="M1570.05 28.9478 L1570.05 35.9153 Q1566.89 34.1734 1563.69 33.3227 Q1560.53 32.4315 1557.29 32.4315 Q1550.04 32.4315 1546.03 37.0496 Q1542.02 41.6271 1542.02 49.9314 Q1542.02 58.2358 1546.03 62.8538 Q1550.04 67.4314 1557.29 67.4314 Q1560.53 67.4314 1563.69 66.5807 Q1566.89 65.6895 1570.05 63.9476 L1570.05 70.8341 Q1566.93 72.2924 1563.57 73.0216 Q1560.24 73.7508 1556.48 73.7508 Q1546.23 73.7508 1540.19 67.3098 Q1534.16 60.8689 1534.16 49.9314 Q1534.16 38.832 1540.23 32.472 Q1546.35 26.1121 1556.96 26.1121 Q1560.41 26.1121 1563.69 26.8413 Q1566.97 27.5299 1570.05 28.9478 Z" fill="#000000" fill-rule="nonzero" fill-opacity="1" /><path clip-path="url(#clip800)" d="M1590.38 14.324 L1590.38 27.2059 L1605.74 27.2059 L1605.74 32.9987 L1590.38 32.9987 L1590.38 57.6282 Q1590.38 63.1779 1591.88 64.7578 Q1593.42 66.3376 1598.08 66.3376 L1605.74 66.3376 L1605.74 72.576 L1598.08 72.576 Q1589.45 72.576 1586.17 69.3758 Q1582.89 66.1351 1582.89 57.6282 L1582.89 32.9987 L1577.42 32.9987 L1577.42 27.2059 L1582.89 27.2059 L1582.89 14.324 L1590.38 14.324 Z" fill="#000000" fill-rule="nonzero" fill-opacity="1" /><path clip-path="url(#clip800)" d="M1615.54 27.2059 L1622.99 27.2059 L1622.99 72.576 L1615.54 72.576 L1615.54 27.2059 M1615.54 9.54393 L1622.99 9.54393 L1622.99 18.9825 L1615.54 18.9825 L1615.54 9.54393 Z" fill="#000000" fill-rule="nonzero" fill-opacity="1" /><path clip-path="url(#clip800)" d="M1656.17 32.4315 Q1650.17 32.4315 1646.69 37.1306 Q1643.21 41.7891 1643.21 49.9314 Q1643.21 58.0738 1646.65 62.7728 Q1650.13 67.4314 1656.17 67.4314 Q1662.13 67.4314 1665.61 62.7323 Q1669.09 58.0333 1669.09 49.9314 Q1669.09 41.8701 1665.61 37.1711 Q1662.13 32.4315 1656.17 32.4315 M1656.17 26.1121 Q1665.89 26.1121 1671.44 32.4315 Q1676.99 38.7509 1676.99 49.9314 Q1676.99 61.0714 1671.44 67.4314 Q1665.89 73.7508 1656.17 73.7508 Q1646.41 73.7508 1640.86 67.4314 Q1635.35 61.0714 1635.35 49.9314 Q1635.35 38.7509 1640.86 32.4315 Q1646.41 26.1121 1656.17 26.1121 Z" fill="#000000" fill-rule="nonzero" fill-opacity="1" /><path clip-path="url(#clip800)" d="M1727.06 45.1919 L1727.06 72.576 L1719.61 72.576 L1719.61 45.4349 Q1719.61 38.994 1717.1 35.7938 Q1714.58 32.5936 1709.56 32.5936 Q1703.53 32.5936 1700.04 36.4419 Q1696.56 40.2903 1696.56 46.9338 L1696.56 72.576 L1689.06 72.576 L1689.06 27.2059 L1696.56 27.2059 L1696.56 34.2544 Q1699.23 30.163 1702.84 28.1376 Q1706.48 26.1121 1711.22 26.1121 Q1719.04 26.1121 1723.05 30.9732 Q1727.06 35.7938 1727.06 45.1919 Z" fill="#000000" fill-rule="nonzero" fill-opacity="1" /><path clip-path="url(#clip800)" d="M1770.85 28.5427 L1770.85 35.5912 Q1767.69 33.9709 1764.29 33.1607 Q1760.89 32.3505 1757.24 32.3505 Q1751.69 32.3505 1748.9 34.0519 Q1746.14 35.7533 1746.14 39.156 Q1746.14 41.7486 1748.13 43.2475 Q1750.11 44.7058 1756.11 46.0426 L1758.66 46.6097 Q1766.6 48.3111 1769.92 51.4303 Q1773.28 54.509 1773.28 60.0587 Q1773.28 66.3781 1768.26 70.0644 Q1763.28 73.7508 1754.53 73.7508 Q1750.88 73.7508 1746.91 73.0216 Q1742.98 72.3329 1738.61 70.9151 L1738.61 63.2184 Q1742.74 65.3654 1746.75 66.4591 Q1750.76 67.5124 1754.69 67.5124 Q1759.95 67.5124 1762.79 65.73 Q1765.63 63.9071 1765.63 60.6258 Q1765.63 57.5877 1763.56 55.9673 Q1761.53 54.3469 1754.61 52.8481 L1752.01 52.2405 Q1745.09 50.7821 1742.01 47.7845 Q1738.93 44.7463 1738.93 39.4801 Q1738.93 33.0797 1743.47 29.5959 Q1748 26.1121 1756.35 26.1121 Q1760.48 26.1121 1764.13 26.7198 Q1767.77 27.3274 1770.85 28.5427 Z" fill="#000000" fill-rule="nonzero" fill-opacity="1" /><circle clip-path="url(#clip801)" cx="1235.16" cy="549.486" r="14.4" fill="#009af9" fill-rule="evenodd" fill-opacity="1" stroke="none"/>
<circle clip-path="url(#clip801)" cx="1389.64" cy="541.368" r="14.4" fill="#009af9" fill-rule="evenodd" fill-opacity="1" stroke="none"/>
<circle clip-path="url(#clip801)" cx="1421.94" cy="465.401" r="14.4" fill="#009af9" fill-rule="evenodd" fill-opacity="1" stroke="none"/>
<circle clip-path="url(#clip801)" cx="1287.42" cy="426.569" r="14.4" fill="#009af9" fill-rule="evenodd" fill-opacity="1" stroke="none"/>
<circle clip-path="url(#clip801)" cx="1171.99" cy="478.536" r="14.4" fill="#009af9" fill-rule="evenodd" fill-opacity="1" stroke="none"/>
<circle clip-path="url(#clip801)" cx="1150.84" cy="932.688" r="14.4" fill="#009af9" fill-rule="evenodd" fill-opacity="1" stroke="none"/>
<circle clip-path="url(#clip801)" cx="1542.89" cy="899.533" r="14.4" fill="#009af9" fill-rule="evenodd" fill-opacity="1" stroke="none"/>
<circle clip-path="url(#clip801)" cx="1600.98" cy="702.854" r="14.4" fill="#009af9" fill-rule="evenodd" fill-opacity="1" stroke="none"/>
<circle clip-path="url(#clip801)" cx="1244.82" cy="614.455" r="14.4" fill="#009af9" fill-rule="evenodd" fill-opacity="1" stroke="none"/>
<circle clip-path="url(#clip801)" cx="966.621" cy="756.501" r="14.4" fill="#009af9" fill-rule="evenodd" fill-opacity="1" stroke="none"/>
</svg>
