<?xml version="1.0" encoding="utf-8"?>
<svg xmlns="http://www.w3.org/2000/svg" xmlns:xlink="http://www.w3.org/1999/xlink" width="600" height="350" viewBox="0 0 2400 1400">
<defs>
  <clipPath id="clip410">
    <rect x="0" y="0" width="2400" height="1400"/>
  </clipPath>
</defs>
<path clip-path="url(#clip410)" d="M0 1400 L2400 1400 L2400 0 L0 0  Z" fill="#ffffff" fill-rule="evenodd" fill-opacity="1"/>
<defs>
  <clipPath id="clip411">
    <rect x="357" y="131" width="1996" height="1007"/>
  </clipPath>
</defs>
<path clip-path="url(#clip410)" d="M357.566 1137.17 L2352.76 1137.17 L2352.76 131.032 L357.566 131.032  Z" fill="#ffffff" fill-rule="evenodd" fill-opacity="1"/>
<polyline clip-path="url(#clip411)" style="stroke:#000000; stroke-linecap:round; stroke-linejoin:round; stroke-width:2; stroke-opacity:0.1; fill:none" points="414.034,1137.17 414.034,131.032 "/>
<polyline clip-path="url(#clip411)" style="stroke:#000000; stroke-linecap:round; stroke-linejoin:round; stroke-width:2; stroke-opacity:0.1; fill:none" points="556.091,1137.17 556.091,131.032 "/>
<polyline clip-path="url(#clip411)" style="stroke:#000000; stroke-linecap:round; stroke-linejoin:round; stroke-width:2; stroke-opacity:0.1; fill:none" points="1443.95,1137.17 1443.95,131.032 "/>
<polyline clip-path="url(#clip411)" style="stroke:#000000; stroke-linecap:round; stroke-linejoin:round; stroke-width:2; stroke-opacity:0.1; fill:none" points="2296.29,1137.17 2296.29,131.032 "/>
<polyline clip-path="url(#clip411)" style="stroke:#000000; stroke-linecap:round; stroke-linejoin:round; stroke-width:2; stroke-opacity:0.1; fill:none" points="357.566,1108.69 2352.76,1108.69 "/>
<polyline clip-path="url(#clip411)" style="stroke:#000000; stroke-linecap:round; stroke-linejoin:round; stroke-width:2; stroke-opacity:0.1; fill:none" points="357.566,850.261 2352.76,850.261 "/>
<polyline clip-path="url(#clip411)" style="stroke:#000000; stroke-linecap:round; stroke-linejoin:round; stroke-width:2; stroke-opacity:0.1; fill:none" points="357.566,591.83 2352.76,591.83 "/>
<polyline clip-path="url(#clip411)" style="stroke:#000000; stroke-linecap:round; stroke-linejoin:round; stroke-width:2; stroke-opacity:0.1; fill:none" points="357.566,333.398 2352.76,333.398 "/>
<polyline clip-path="url(#clip410)" style="stroke:#000000; stroke-linecap:round; stroke-linejoin:round; stroke-width:4; stroke-opacity:1; fill:none" points="357.566,1137.17 2352.76,1137.17 "/>
<polyline clip-path="url(#clip410)" style="stroke:#000000; stroke-linecap:round; stroke-linejoin:round; stroke-width:4; stroke-opacity:1; fill:none" points="414.034,1137.17 414.034,1118.27 "/>
<polyline clip-path="url(#clip410)" style="stroke:#000000; stroke-linecap:round; stroke-linejoin:round; stroke-width:4; stroke-opacity:1; fill:none" points="556.091,1137.17 556.091,1118.27 "/>
<polyline clip-path="url(#clip410)" style="stroke:#000000; stroke-linecap:round; stroke-linejoin:round; stroke-width:4; stroke-opacity:1; fill:none" points="1443.95,1137.17 1443.95,1118.27 "/>
<polyline clip-path="url(#clip410)" style="stroke:#000000; stroke-linecap:round; stroke-linejoin:round; stroke-width:4; stroke-opacity:1; fill:none" points="2296.29,1137.17 2296.29,1118.27 "/>
<path clip-path="url(#clip410)" d="M402.011 1205.45 L411.56 1205.45 L411.56 1172.49 L401.172 1174.58 L401.172 1169.25 L411.502 1167.17 L417.347 1167.17 L417.347 1205.45 L426.895 1205.45 L426.895 1210.37 L402.011 1210.37 L402.011 1205.45 Z" fill="#000000" fill-rule="nonzero" fill-opacity="1" /><path clip-path="url(#clip410)" d="M543.938 1167.17 L566.883 1167.17 L566.883 1172.09 L549.291 1172.09 L549.291 1182.68 Q550.564 1182.24 551.837 1182.04 Q553.11 1181.81 554.384 1181.81 Q561.617 1181.81 565.842 1185.77 Q570.066 1189.74 570.066 1196.51 Q570.066 1203.48 565.726 1207.36 Q561.386 1211.21 553.487 1211.21 Q550.767 1211.21 547.931 1210.74 Q545.124 1210.28 542.115 1209.36 L542.115 1203.48 Q544.719 1204.9 547.497 1205.59 Q550.275 1206.29 553.371 1206.29 Q558.377 1206.29 561.299 1203.65 Q564.221 1201.02 564.221 1196.51 Q564.221 1191.99 561.299 1189.36 Q558.377 1186.73 553.371 1186.73 Q551.027 1186.73 548.683 1187.25 Q546.368 1187.77 543.938 1188.87 L543.938 1167.17 Z" fill="#000000" fill-rule="nonzero" fill-opacity="1" /><path clip-path="url(#clip410)" d="M1430 1187.08 Q1434.2 1187.97 1436.54 1190.81 Q1438.91 1193.64 1438.91 1197.81 Q1438.91 1204.2 1434.51 1207.71 Q1430.12 1211.21 1422.01 1211.21 Q1419.29 1211.21 1416.4 1210.66 Q1413.54 1210.14 1410.47 1209.07 L1410.47 1203.42 Q1412.9 1204.84 1415.79 1205.56 Q1418.69 1206.29 1421.84 1206.29 Q1427.34 1206.29 1430.2 1204.12 Q1433.1 1201.95 1433.1 1197.81 Q1433.1 1193.99 1430.4 1191.85 Q1427.74 1189.68 1422.97 1189.68 L1417.93 1189.68 L1417.93 1184.88 L1423.2 1184.88 Q1427.51 1184.88 1429.8 1183.17 Q1432.08 1181.43 1432.08 1178.19 Q1432.08 1174.86 1429.71 1173.1 Q1427.37 1171.31 1422.97 1171.31 Q1420.57 1171.31 1417.82 1171.83 Q1415.07 1172.35 1411.77 1173.45 L1411.77 1168.24 Q1415.1 1167.31 1417.99 1166.85 Q1420.91 1166.39 1423.49 1166.39 Q1430.14 1166.39 1434.02 1169.42 Q1437.9 1172.43 1437.9 1177.58 Q1437.9 1181.17 1435.84 1183.66 Q1433.79 1186.12 1430 1187.08 Z" fill="#000000" fill-rule="nonzero" fill-opacity="1" /><path clip-path="url(#clip410)" d="M1462.49 1171.02 Q1457.98 1171.02 1455.69 1175.47 Q1453.44 1179.9 1453.44 1188.81 Q1453.44 1197.69 1455.69 1202.15 Q1457.98 1206.58 1462.49 1206.58 Q1467.04 1206.58 1469.29 1202.15 Q1471.58 1197.69 1471.58 1188.81 Q1471.58 1179.9 1469.29 1175.47 Q1467.04 1171.02 1462.49 1171.02 M1462.49 1166.39 Q1469.76 1166.39 1473.58 1172.14 Q1477.42 1177.87 1477.42 1188.81 Q1477.42 1199.72 1473.58 1205.48 Q1469.76 1211.21 1462.49 1211.21 Q1455.23 1211.21 1451.38 1205.48 Q1447.56 1199.72 1447.56 1188.81 Q1447.56 1177.87 1451.38 1172.14 Q1455.23 1166.39 1462.49 1166.39 Z" fill="#000000" fill-rule="nonzero" fill-opacity="1" /><path clip-path="url(#clip410)" d="M2264.36 1167.17 L2287.3 1167.17 L2287.3 1172.09 L2269.71 1172.09 L2269.71 1182.68 Q2270.98 1182.24 2272.26 1182.04 Q2273.53 1181.81 2274.8 1181.81 Q2282.04 1181.81 2286.26 1185.77 Q2290.49 1189.74 2290.49 1196.51 Q2290.49 1203.48 2286.15 1207.36 Q2281.81 1211.21 2273.91 1211.21 Q2271.19 1211.21 2268.35 1210.74 Q2265.54 1210.28 2262.54 1209.36 L2262.54 1203.48 Q2265.14 1204.9 2267.92 1205.59 Q2270.7 1206.29 2273.79 1206.29 Q2278.8 1206.29 2281.72 1203.65 Q2284.64 1201.02 2284.64 1196.51 Q2284.64 1191.99 2281.72 1189.36 Q2278.8 1186.73 2273.79 1186.73 Q2271.45 1186.73 2269.1 1187.25 Q2266.79 1187.77 2264.36 1188.87 L2264.36 1167.17 Z" fill="#000000" fill-rule="nonzero" fill-opacity="1" /><path clip-path="url(#clip410)" d="M2318.06 1172.26 L2303.31 1195.32 L2318.06 1195.32 L2318.06 1172.26 M2316.53 1167.17 L2323.88 1167.17 L2323.88 1195.32 L2330.04 1195.32 L2330.04 1200.18 L2323.88 1200.18 L2323.88 1210.37 L2318.06 1210.37 L2318.06 1200.18 L2298.56 1200.18 L2298.56 1194.54 L2316.53 1167.17 Z" fill="#000000" fill-rule="nonzero" fill-opacity="1" /><path clip-path="url(#clip410)" d="M1376.17 1280.21 Q1376.17 1283.22 1374.33 1285.01 Q1372.53 1286.8 1370.27 1286.8 Q1368.26 1286.8 1367.21 1285.64 Q1366.16 1284.48 1366.16 1283.01 Q1366.16 1282.37 1366.42 1281.58 Q1366.68 1280.74 1367.26 1279.74 Q1367.9 1278.74 1369.21 1278 Q1370.53 1277.26 1372.32 1277.16 Q1371.95 1276.79 1371.85 1276.73 Q1371.06 1276.1 1369.58 1275.89 Q1369.37 1275.79 1368.63 1275.79 Q1365 1275.79 1361.31 1278.47 Q1357.67 1281.11 1353.19 1286.12 Q1347.55 1291.96 1343.92 1294.13 Q1359.89 1296.23 1359.89 1305.46 Q1359.89 1306.98 1359.46 1308.83 Q1358.62 1312.31 1358.62 1314.84 Q1358.62 1319.9 1362.05 1319.9 Q1365.37 1319.9 1367.47 1316.52 Q1369.63 1313.15 1371.43 1306.56 Q1371.69 1305.35 1371.95 1304.98 Q1372.22 1304.61 1372.95 1304.61 Q1374.27 1304.61 1374.27 1305.67 Q1373.06 1311.83 1370.37 1316.58 Q1366.95 1322.32 1361.84 1322.32 Q1357.57 1322.32 1354.72 1319.37 Q1351.93 1316.37 1351.93 1311.62 Q1351.93 1310.46 1352.35 1307.83 Q1352.67 1306.77 1352.67 1305.56 Q1352.67 1303.08 1351.29 1301.24 Q1349.92 1299.34 1347.71 1298.39 Q1345.5 1297.45 1343.65 1297.02 Q1341.86 1296.55 1340.12 1296.39 Q1334.85 1318.68 1334.11 1320.05 Q1333.64 1321 1332.59 1321.64 Q1331.53 1322.32 1330.43 1322.32 Q1329.37 1322.32 1328.32 1321.58 Q1327.32 1320.9 1327.32 1319.26 Q1327.32 1318.42 1327.74 1316.89 L1343.39 1254.71 L1343.71 1252.6 Q1343.71 1251.97 1343.44 1251.65 Q1343.23 1251.28 1341.97 1251.02 Q1340.75 1250.75 1338.33 1250.75 Q1337.33 1250.75 1336.85 1250.7 Q1336.43 1250.65 1336.06 1250.38 Q1335.7 1250.07 1335.7 1249.44 Q1335.7 1248.54 1336.06 1248.07 Q1336.49 1247.54 1336.8 1247.43 Q1337.12 1247.33 1337.75 1247.27 Q1338.65 1247.22 1341.65 1246.96 Q1344.65 1246.64 1347.24 1246.43 Q1349.82 1246.22 1350.93 1246.22 Q1351.56 1246.22 1351.87 1246.54 Q1352.24 1246.8 1352.3 1247.12 L1352.35 1247.38 L1341.12 1292.91 Q1345.76 1291.07 1353.09 1282.9 Q1361.57 1273.41 1368.84 1273.41 Q1372.27 1273.41 1374.22 1275.52 Q1376.17 1277.58 1376.17 1280.21 Z" fill="#000000" fill-rule="nonzero" fill-opacity="1" /><polyline clip-path="url(#clip410)" style="stroke:#000000; stroke-linecap:round; stroke-linejoin:round; stroke-width:4; stroke-opacity:1; fill:none" points="357.566,1137.17 357.566,131.032 "/>
<polyline clip-path="url(#clip410)" style="stroke:#000000; stroke-linecap:round; stroke-linejoin:round; stroke-width:4; stroke-opacity:1; fill:none" points="357.566,1108.69 376.464,1108.69 "/>
<polyline clip-path="url(#clip410)" style="stroke:#000000; stroke-linecap:round; stroke-linejoin:round; stroke-width:4; stroke-opacity:1; fill:none" points="357.566,850.261 376.464,850.261 "/>
<polyline clip-path="url(#clip410)" style="stroke:#000000; stroke-linecap:round; stroke-linejoin:round; stroke-width:4; stroke-opacity:1; fill:none" points="357.566,591.83 376.464,591.83 "/>
<polyline clip-path="url(#clip410)" style="stroke:#000000; stroke-linecap:round; stroke-linejoin:round; stroke-width:4; stroke-opacity:1; fill:none" points="357.566,333.398 376.464,333.398 "/>
<path clip-path="url(#clip410)" d="M306.636 1090.94 Q302.122 1090.94 299.836 1095.4 Q297.579 1099.82 297.579 1108.74 Q297.579 1117.62 299.836 1122.07 Q302.122 1126.5 306.636 1126.5 Q311.178 1126.5 313.435 1122.07 Q315.721 1117.62 315.721 1108.74 Q315.721 1099.82 313.435 1095.4 Q311.178 1090.94 306.636 1090.94 M306.636 1086.31 Q313.898 1086.31 317.718 1092.07 Q321.566 1097.8 321.566 1108.74 Q321.566 1119.64 317.718 1125.4 Q313.898 1131.13 306.636 1131.13 Q299.373 1131.13 295.525 1125.4 Q291.705 1119.64 291.705 1108.74 Q291.705 1097.8 295.525 1092.07 Q299.373 1086.31 306.636 1086.31 Z" fill="#000000" fill-rule="nonzero" fill-opacity="1" /><path clip-path="url(#clip410)" d="M182.041 866.942 L191.59 866.942 L191.59 833.985 L181.202 836.068 L181.202 830.744 L191.532 828.661 L197.377 828.661 L197.377 866.942 L206.925 866.942 L206.925 871.861 L182.041 871.861 L182.041 866.942 Z" fill="#000000" fill-rule="nonzero" fill-opacity="1" /><path clip-path="url(#clip410)" d="M231.231 832.509 Q226.717 832.509 224.431 836.965 Q222.174 841.392 222.174 850.304 Q222.174 859.187 224.431 863.643 Q226.717 868.071 231.231 868.071 Q235.774 868.071 238.031 863.643 Q240.317 859.187 240.317 850.304 Q240.317 841.392 238.031 836.965 Q235.774 832.509 231.231 832.509 M231.231 827.88 Q238.494 827.88 242.313 833.638 Q246.161 839.367 246.161 850.304 Q246.161 861.213 242.313 866.971 Q238.494 872.7 231.231 872.7 Q223.968 872.7 220.12 866.971 Q216.3 861.213 216.3 850.304 Q216.3 839.367 220.12 833.638 Q223.968 827.88 231.231 827.88 Z" fill="#000000" fill-rule="nonzero" fill-opacity="1" /><path clip-path="url(#clip410)" d="M268.933 832.509 Q264.419 832.509 262.134 836.965 Q259.877 841.392 259.877 850.304 Q259.877 859.187 262.134 863.643 Q264.419 868.071 268.933 868.071 Q273.476 868.071 275.733 863.643 Q278.019 859.187 278.019 850.304 Q278.019 841.392 275.733 836.965 Q273.476 832.509 268.933 832.509 M268.933 827.88 Q276.196 827.88 280.015 833.638 Q283.864 839.367 283.864 850.304 Q283.864 861.213 280.015 866.971 Q276.196 872.7 268.933 872.7 Q261.671 872.7 257.822 866.971 Q254.003 861.213 254.003 850.304 Q254.003 839.367 257.822 833.638 Q261.671 827.88 268.933 827.88 Z" fill="#000000" fill-rule="nonzero" fill-opacity="1" /><path clip-path="url(#clip410)" d="M306.636 832.509 Q302.122 832.509 299.836 836.965 Q297.579 841.392 297.579 850.304 Q297.579 859.187 299.836 863.643 Q302.122 868.071 306.636 868.071 Q311.178 868.071 313.435 863.643 Q315.721 859.187 315.721 850.304 Q315.721 841.392 313.435 836.965 Q311.178 832.509 306.636 832.509 M306.636 827.88 Q313.898 827.88 317.718 833.638 Q321.566 839.367 321.566 850.304 Q321.566 861.213 317.718 866.971 Q313.898 872.7 306.636 872.7 Q299.373 872.7 295.525 866.971 Q291.705 861.213 291.705 850.304 Q291.705 839.367 295.525 833.638 Q299.373 827.88 306.636 827.88 Z" fill="#000000" fill-rule="nonzero" fill-opacity="1" /><path clip-path="url(#clip410)" d="M186.063 608.511 L206.463 608.511 L206.463 613.43 L179.032 613.43 L179.032 608.511 Q182.36 605.067 188.089 599.28 Q193.847 593.465 195.323 591.786 Q198.129 588.632 199.229 586.462 Q200.357 584.263 200.357 582.151 Q200.357 578.708 197.927 576.538 Q195.525 574.367 191.648 574.367 Q188.899 574.367 185.832 575.322 Q182.794 576.277 179.321 578.216 L179.321 572.313 Q182.852 570.895 185.919 570.172 Q188.986 569.448 191.532 569.448 Q198.245 569.448 202.238 572.805 Q206.231 576.161 206.231 581.775 Q206.231 584.437 205.218 586.838 Q204.235 589.211 201.601 592.452 Q200.878 593.291 197.001 597.313 Q193.123 601.306 186.063 608.511 Z" fill="#000000" fill-rule="nonzero" fill-opacity="1" /><path clip-path="url(#clip410)" d="M231.231 574.078 Q226.717 574.078 224.431 578.534 Q222.174 582.961 222.174 591.873 Q222.174 600.756 224.431 605.212 Q226.717 609.639 231.231 609.639 Q235.774 609.639 238.031 605.212 Q240.317 600.756 240.317 591.873 Q240.317 582.961 238.031 578.534 Q235.774 574.078 231.231 574.078 M231.231 569.448 Q238.494 569.448 242.313 575.207 Q246.161 580.936 246.161 591.873 Q246.161 602.782 242.313 608.54 Q238.494 614.269 231.231 614.269 Q223.968 614.269 220.12 608.54 Q216.3 602.782 216.3 591.873 Q216.3 580.936 220.12 575.207 Q223.968 569.448 231.231 569.448 Z" fill="#000000" fill-rule="nonzero" fill-opacity="1" /><path clip-path="url(#clip410)" d="M268.933 574.078 Q264.419 574.078 262.134 578.534 Q259.877 582.961 259.877 591.873 Q259.877 600.756 262.134 605.212 Q264.419 609.639 268.933 609.639 Q273.476 609.639 275.733 605.212 Q278.019 600.756 278.019 591.873 Q278.019 582.961 275.733 578.534 Q273.476 574.078 268.933 574.078 M268.933 569.448 Q276.196 569.448 280.015 575.207 Q283.864 580.936 283.864 591.873 Q283.864 602.782 280.015 608.54 Q276.196 614.269 268.933 614.269 Q261.671 614.269 257.822 608.54 Q254.003 602.782 254.003 591.873 Q254.003 580.936 257.822 575.207 Q261.671 569.448 268.933 569.448 Z" fill="#000000" fill-rule="nonzero" fill-opacity="1" /><path clip-path="url(#clip410)" d="M306.636 574.078 Q302.122 574.078 299.836 578.534 Q297.579 582.961 297.579 591.873 Q297.579 600.756 299.836 605.212 Q302.122 609.639 306.636 609.639 Q311.178 609.639 313.435 605.212 Q315.721 600.756 315.721 591.873 Q315.721 582.961 313.435 578.534 Q311.178 574.078 306.636 574.078 M306.636 569.448 Q313.898 569.448 317.718 575.207 Q321.566 580.936 321.566 591.873 Q321.566 602.782 317.718 608.54 Q313.898 614.269 306.636 614.269 Q299.373 614.269 295.525 608.54 Q291.705 602.782 291.705 591.873 Q291.705 580.936 295.525 575.207 Q299.373 569.448 306.636 569.448 Z" fill="#000000" fill-rule="nonzero" fill-opacity="1" /><path clip-path="url(#clip410)" d="M198.737 331.706 Q202.932 332.603 205.276 335.438 Q207.649 338.274 207.649 342.441 Q207.649 348.835 203.251 352.336 Q198.853 355.837 190.751 355.837 Q188.031 355.837 185.137 355.288 Q182.273 354.767 179.206 353.696 L179.206 348.054 Q181.636 349.472 184.53 350.195 Q187.423 350.919 190.577 350.919 Q196.075 350.919 198.939 348.748 Q201.833 346.578 201.833 342.441 Q201.833 338.621 199.142 336.48 Q196.48 334.31 191.706 334.31 L186.671 334.31 L186.671 329.507 L191.937 329.507 Q196.248 329.507 198.534 327.799 Q200.82 326.063 200.82 322.823 Q200.82 319.495 198.448 317.73 Q196.104 315.936 191.706 315.936 Q189.304 315.936 186.555 316.457 Q183.806 316.978 180.508 318.077 L180.508 312.869 Q183.835 311.943 186.729 311.48 Q189.651 311.017 192.226 311.017 Q198.882 311.017 202.759 314.055 Q206.636 317.065 206.636 322.215 Q206.636 325.803 204.582 328.291 Q202.527 330.751 198.737 331.706 Z" fill="#000000" fill-rule="nonzero" fill-opacity="1" /><path clip-path="url(#clip410)" d="M231.231 315.647 Q226.717 315.647 224.431 320.103 Q222.174 324.53 222.174 333.442 Q222.174 342.325 224.431 346.781 Q226.717 351.208 231.231 351.208 Q235.774 351.208 238.031 346.781 Q240.317 342.325 240.317 333.442 Q240.317 324.53 238.031 320.103 Q235.774 315.647 231.231 315.647 M231.231 311.017 Q238.494 311.017 242.313 316.775 Q246.161 322.504 246.161 333.442 Q246.161 344.35 242.313 350.108 Q238.494 355.837 231.231 355.837 Q223.968 355.837 220.12 350.108 Q216.3 344.35 216.3 333.442 Q216.3 322.504 220.12 316.775 Q223.968 311.017 231.231 311.017 Z" fill="#000000" fill-rule="nonzero" fill-opacity="1" /><path clip-path="url(#clip410)" d="M268.933 315.647 Q264.419 315.647 262.134 320.103 Q259.877 324.53 259.877 333.442 Q259.877 342.325 262.134 346.781 Q264.419 351.208 268.933 351.208 Q273.476 351.208 275.733 346.781 Q278.019 342.325 278.019 333.442 Q278.019 324.53 275.733 320.103 Q273.476 315.647 268.933 315.647 M268.933 311.017 Q276.196 311.017 280.015 316.775 Q283.864 322.504 283.864 333.442 Q283.864 344.35 280.015 350.108 Q276.196 355.837 268.933 355.837 Q261.671 355.837 257.822 350.108 Q254.003 344.35 254.003 333.442 Q254.003 322.504 257.822 316.775 Q261.671 311.017 268.933 311.017 Z" fill="#000000" fill-rule="nonzero" fill-opacity="1" /><path clip-path="url(#clip410)" d="M306.636 315.647 Q302.122 315.647 299.836 320.103 Q297.579 324.53 297.579 333.442 Q297.579 342.325 299.836 346.781 Q302.122 351.208 306.636 351.208 Q311.178 351.208 313.435 346.781 Q315.721 342.325 315.721 333.442 Q315.721 324.53 313.435 320.103 Q311.178 315.647 306.636 315.647 M306.636 311.017 Q313.898 311.017 317.718 316.775 Q321.566 322.504 321.566 333.442 Q321.566 344.35 317.718 350.108 Q313.898 355.837 306.636 355.837 Q299.373 355.837 295.525 350.108 Q291.705 344.35 291.705 333.442 Q291.705 322.504 295.525 316.775 Q299.373 311.017 306.636 311.017 Z" fill="#000000" fill-rule="nonzero" fill-opacity="1" /><path clip-path="url(#clip410)" d="M74.8692 607.532 Q78.5583 607.532 78.5583 612.802 L78.5583 624.66 Q83.3013 621.34 90.3105 621.34 Q96.3183 621.34 101.957 623.816 Q107.544 626.241 111.443 630.14 Q115.343 633.988 117.715 638.836 Q120.034 643.685 120.034 648.428 Q120.034 655.648 115.132 660.127 Q110.231 664.607 102.959 664.607 Q99.1115 664.607 94.8427 663.289 Q90.574 661.919 86.6214 659.337 Q82.6162 656.754 79.4015 653.381 Q76.1867 649.956 74.2368 645.529 Q72.2869 641.049 72.2869 636.359 L72.2869 611.748 Q72.2869 610.431 72.3923 609.745 Q72.445 609.008 73.0774 608.27 Q73.6571 607.532 74.8692 607.532 M89.0457 628.243 Q87.7808 628.243 86.6741 628.401 Q85.5147 628.559 83.9864 629.139 Q82.4054 629.719 81.2987 630.72 Q80.1393 631.722 79.3488 633.671 Q78.5583 635.569 78.5583 638.151 Q78.5583 641.787 80.5609 645.793 Q82.5635 649.798 87.5173 652.854 Q91.7334 655.384 97.2142 656.649 Q102.695 657.914 105.963 657.914 Q111.549 657.914 114.605 655.226 Q117.609 652.486 117.609 648.322 Q117.609 644.897 115.291 640.997 Q112.919 637.097 108.439 634.093 Q104.54 631.458 98.8479 629.877 Q93.1563 628.243 89.0457 628.243 Z" fill="#000000" fill-rule="nonzero" fill-opacity="1" /><path clip-path="url(#clip410)" d="M998.21 36.6977 L998.21 45.7602 Q994.147 43.6768 989.772 42.6352 Q985.397 41.5935 980.71 41.5935 Q973.574 41.5935 969.981 43.781 Q966.439 45.9685 966.439 50.3435 Q966.439 53.6768 968.991 55.6039 Q971.543 57.4789 979.252 59.1976 L982.533 59.9268 Q992.741 62.1143 997.012 66.1246 Q1001.33 70.083 1001.33 77.2183 Q1001.33 85.3433 994.876 90.0829 Q988.47 94.8224 977.22 94.8224 Q972.533 94.8224 967.429 93.8849 Q962.377 92.9995 956.752 91.1766 L956.752 81.2808 Q962.064 84.0412 967.22 85.4475 Q972.377 86.8016 977.429 86.8016 Q984.199 86.8016 987.845 84.51 Q991.491 82.1662 991.491 77.9475 Q991.491 74.0413 988.835 71.9579 Q986.231 69.8746 977.324 67.9476 L973.991 67.1663 Q965.085 65.2913 961.127 61.4372 Q957.168 57.5309 957.168 50.7601 Q957.168 42.531 963.002 38.0519 Q968.835 33.5727 979.564 33.5727 Q984.877 33.5727 989.564 34.354 Q994.251 35.1352 998.21 36.6977 Z" fill="#000000" fill-rule="nonzero" fill-opacity="1" /><path clip-path="url(#clip410)" d="M1016.6 34.979 L1026.18 34.979 L1026.18 93.312 L1016.6 93.312 L1016.6 34.979 M1016.6 12.2708 L1026.18 12.2708 L1026.18 24.4061 L1016.6 24.4061 L1016.6 12.2708 Z" fill="#000000" fill-rule="nonzero" fill-opacity="1" /><path clip-path="url(#clip410)" d="M1094.72 58.1039 L1094.72 93.312 L1085.14 93.312 L1085.14 58.4164 Q1085.14 50.1351 1081.91 46.0206 Q1078.68 41.906 1072.22 41.906 Q1064.46 41.906 1059.98 46.8539 Q1055.5 51.8018 1055.5 60.3434 L1055.5 93.312 L1045.87 93.312 L1045.87 34.979 L1055.5 34.979 L1055.5 44.0414 Q1058.94 38.781 1063.57 36.1769 Q1068.26 33.5727 1074.36 33.5727 Q1084.41 33.5727 1089.56 39.8227 Q1094.72 46.0206 1094.72 58.1039 Z" fill="#000000" fill-rule="nonzero" fill-opacity="1" /><path clip-path="url(#clip410)" d="M1152.22 63.4684 Q1152.22 53.0518 1147.9 47.3227 Q1143.63 41.5935 1135.87 41.5935 Q1128.16 41.5935 1123.83 47.3227 Q1119.56 53.0518 1119.56 63.4684 Q1119.56 73.8329 1123.83 79.5621 Q1128.16 85.2912 1135.87 85.2912 Q1143.63 85.2912 1147.9 79.5621 Q1152.22 73.8329 1152.22 63.4684 M1161.8 86.0725 Q1161.8 100.968 1155.19 108.208 Q1148.57 115.499 1134.93 115.499 Q1129.88 115.499 1125.4 114.718 Q1120.92 113.989 1116.7 112.426 L1116.7 103.104 Q1120.92 105.395 1125.03 106.489 Q1129.15 107.583 1133.42 107.583 Q1142.84 107.583 1147.53 102.635 Q1152.22 97.7391 1152.22 87.7912 L1152.22 83.0516 Q1149.25 88.2079 1144.62 90.7599 Q1139.98 93.312 1133.52 93.312 Q1122.79 93.312 1116.23 85.135 Q1109.67 76.9579 1109.67 63.4684 Q1109.67 49.9268 1116.23 41.7498 Q1122.79 33.5727 1133.52 33.5727 Q1139.98 33.5727 1144.62 36.1248 Q1149.25 38.6769 1152.22 43.8331 L1152.22 34.979 L1161.8 34.979 L1161.8 86.0725 Z" fill="#000000" fill-rule="nonzero" fill-opacity="1" /><path clip-path="url(#clip410)" d="M1180.55 70.2913 L1180.55 34.979 L1190.14 34.979 L1190.14 69.9267 Q1190.14 78.2079 1193.36 82.3746 Q1196.59 86.4891 1203.05 86.4891 Q1210.81 86.4891 1215.29 81.5412 Q1219.82 76.5933 1219.82 68.0517 L1219.82 34.979 L1229.41 34.979 L1229.41 93.312 L1219.82 93.312 L1219.82 84.3537 Q1216.33 89.6662 1211.7 92.2703 Q1207.11 94.8224 1201.02 94.8224 Q1190.97 94.8224 1185.76 88.5724 Q1180.55 82.3225 1180.55 70.2913 M1204.67 33.5727 L1204.67 33.5727 Z" fill="#000000" fill-rule="nonzero" fill-opacity="1" /><path clip-path="url(#clip410)" d="M1249.15 12.2708 L1258.73 12.2708 L1258.73 93.312 L1249.15 93.312 L1249.15 12.2708 Z" fill="#000000" fill-rule="nonzero" fill-opacity="1" /><path clip-path="url(#clip410)" d="M1305.29 63.9892 Q1293.68 63.9892 1289.2 66.6455 Q1284.72 69.3017 1284.72 75.7079 Q1284.72 80.8121 1288.05 83.8329 Q1291.44 86.8016 1297.22 86.8016 Q1305.19 86.8016 1309.98 81.1766 Q1314.82 75.4996 1314.82 66.1246 L1314.82 63.9892 L1305.29 63.9892 M1324.41 60.0309 L1324.41 93.312 L1314.82 93.312 L1314.82 84.4579 Q1311.54 89.7704 1306.65 92.3224 Q1301.75 94.8224 1294.67 94.8224 Q1285.71 94.8224 1280.4 89.8224 Q1275.14 84.7704 1275.14 76.3329 Q1275.14 66.4892 1281.7 61.4893 Q1288.31 56.4893 1301.39 56.4893 L1314.82 56.4893 L1314.82 55.5518 Q1314.82 48.9372 1310.45 45.3435 Q1306.12 41.6977 1298.26 41.6977 Q1293.26 41.6977 1288.52 42.8956 Q1283.78 44.0935 1279.41 46.4893 L1279.41 37.6352 Q1284.67 35.604 1289.61 34.6144 Q1294.56 33.5727 1299.25 33.5727 Q1311.91 33.5727 1318.16 40.1352 Q1324.41 46.6977 1324.41 60.0309 Z" fill="#000000" fill-rule="nonzero" fill-opacity="1" /><path clip-path="url(#clip410)" d="M1377.95 43.9373 Q1376.33 42.9998 1374.41 42.5831 Q1372.53 42.1144 1370.24 42.1144 Q1362.11 42.1144 1357.74 47.4268 Q1353.42 52.6872 1353.42 62.583 L1353.42 93.312 L1343.78 93.312 L1343.78 34.979 L1353.42 34.979 L1353.42 44.0414 Q1356.44 38.729 1361.28 36.1769 Q1366.12 33.5727 1373.05 33.5727 Q1374.04 33.5727 1375.24 33.729 Q1376.44 33.8332 1377.9 34.0936 L1377.95 43.9373 Z" fill="#000000" fill-rule="nonzero" fill-opacity="1" /><path clip-path="url(#clip410)" d="M1415.03 34.979 L1425.19 34.979 L1443.42 83.9371 L1461.64 34.979 L1471.8 34.979 L1449.93 93.312 L1436.91 93.312 L1415.03 34.979 Z" fill="#000000" fill-rule="nonzero" fill-opacity="1" /><path clip-path="url(#clip410)" d="M1511.54 63.9892 Q1499.93 63.9892 1495.45 66.6455 Q1490.97 69.3017 1490.97 75.7079 Q1490.97 80.8121 1494.3 83.8329 Q1497.69 86.8016 1503.47 86.8016 Q1511.44 86.8016 1516.23 81.1766 Q1521.07 75.4996 1521.07 66.1246 L1521.07 63.9892 L1511.54 63.9892 M1530.65 60.0309 L1530.65 93.312 L1521.07 93.312 L1521.07 84.4579 Q1517.79 89.7704 1512.89 92.3224 Q1508 94.8224 1500.92 94.8224 Q1491.96 94.8224 1486.64 89.8224 Q1481.38 84.7704 1481.38 76.3329 Q1481.38 66.4892 1487.95 61.4893 Q1494.56 56.4893 1507.63 56.4893 L1521.07 56.4893 L1521.07 55.5518 Q1521.07 48.9372 1516.7 45.3435 Q1512.37 41.6977 1504.51 41.6977 Q1499.51 41.6977 1494.77 42.8956 Q1490.03 44.0935 1485.66 46.4893 L1485.66 37.6352 Q1490.92 35.604 1495.86 34.6144 Q1500.81 33.5727 1505.5 33.5727 Q1518.15 33.5727 1524.4 40.1352 Q1530.65 46.6977 1530.65 60.0309 Z" fill="#000000" fill-rule="nonzero" fill-opacity="1" /><path clip-path="url(#clip410)" d="M1550.39 12.2708 L1559.98 12.2708 L1559.98 93.312 L1550.39 93.312 L1550.39 12.2708 Z" fill="#000000" fill-rule="nonzero" fill-opacity="1" /><path clip-path="url(#clip410)" d="M1579.04 70.2913 L1579.04 34.979 L1588.62 34.979 L1588.62 69.9267 Q1588.62 78.2079 1591.85 82.3746 Q1595.08 86.4891 1601.54 86.4891 Q1609.3 86.4891 1613.78 81.5412 Q1618.31 76.5933 1618.31 68.0517 L1618.31 34.979 L1627.89 34.979 L1627.89 93.312 L1618.31 93.312 L1618.31 84.3537 Q1614.82 89.6662 1610.19 92.2703 Q1605.6 94.8224 1599.51 94.8224 Q1589.46 94.8224 1584.25 88.5724 Q1579.04 82.3225 1579.04 70.2913 M1603.15 33.5727 L1603.15 33.5727 Z" fill="#000000" fill-rule="nonzero" fill-opacity="1" /><path clip-path="url(#clip410)" d="M1697.53 61.7497 L1697.53 66.4371 L1653.47 66.4371 Q1654.09 76.3329 1659.4 81.5412 Q1664.77 86.6975 1674.3 86.6975 Q1679.82 86.6975 1684.98 85.3433 Q1690.19 83.9891 1695.29 81.2808 L1695.29 90.3433 Q1690.13 92.5308 1684.72 93.6766 Q1679.3 94.8224 1673.73 94.8224 Q1659.77 94.8224 1651.59 86.6975 Q1643.47 78.5725 1643.47 64.7184 Q1643.47 50.3956 1651.18 42.0102 Q1658.94 33.5727 1672.06 33.5727 Q1683.83 33.5727 1690.65 41.1769 Q1697.53 48.7289 1697.53 61.7497 M1687.95 58.9372 Q1687.84 51.0726 1683.52 46.3852 Q1679.25 41.6977 1672.16 41.6977 Q1664.14 41.6977 1659.3 46.2289 Q1654.51 50.7601 1653.78 58.9893 L1687.95 58.9372 Z" fill="#000000" fill-rule="nonzero" fill-opacity="1" /><path clip-path="url(#clip410)" d="M1750.45 36.6977 L1750.45 45.7602 Q1746.38 43.6768 1742.01 42.6352 Q1737.63 41.5935 1732.95 41.5935 Q1725.81 41.5935 1722.22 43.781 Q1718.67 45.9685 1718.67 50.3435 Q1718.67 53.6768 1721.23 55.6039 Q1723.78 57.4789 1731.49 59.1976 L1734.77 59.9268 Q1744.98 62.1143 1749.25 66.1246 Q1753.57 70.083 1753.57 77.2183 Q1753.57 85.3433 1747.11 90.0829 Q1740.71 94.8224 1729.46 94.8224 Q1724.77 94.8224 1719.66 93.8849 Q1714.61 92.9995 1708.99 91.1766 L1708.99 81.2808 Q1714.3 84.0412 1719.46 85.4475 Q1724.61 86.8016 1729.66 86.8016 Q1736.43 86.8016 1740.08 84.51 Q1743.73 82.1662 1743.73 77.9475 Q1743.73 74.0413 1741.07 71.9579 Q1738.47 69.8746 1729.56 67.9476 L1726.23 67.1663 Q1717.32 65.2913 1713.36 61.4372 Q1709.4 57.5309 1709.4 50.7601 Q1709.4 42.531 1715.24 38.0519 Q1721.07 33.5727 1731.8 33.5727 Q1737.11 33.5727 1741.8 34.354 Q1746.49 35.1352 1750.45 36.6977 Z" fill="#000000" fill-rule="nonzero" fill-opacity="1" /><path clip-path="url(#clip411)" d="M442.034 815.383 L386.034 815.383 L414.034 871.383 L442.034 815.383 Z" fill="#ff0000" fill-rule="evenodd" fill-opacity="1" stroke="none"/>
<path clip-path="url(#clip411)" d="M477.548 924.488 L421.548 924.488 L449.548 980.488 L477.548 924.488 Z" fill="#ff0000" fill-rule="evenodd" fill-opacity="1" stroke="none"/>
<path clip-path="url(#clip411)" d="M513.062 947.609 L457.062 947.609 L485.062 1003.61 L513.062 947.609 Z" fill="#ff0000" fill-rule="evenodd" fill-opacity="1" stroke="none"/>
<path clip-path="url(#clip411)" d="M548.576 957.728 L492.576 957.728 L520.576 1013.73 L548.576 957.728 Z" fill="#ff0000" fill-rule="evenodd" fill-opacity="1" stroke="none"/>
<path clip-path="url(#clip411)" d="M584.091 959.669 L528.091 959.669 L556.091 1015.67 L584.091 959.669 Z" fill="#ff0000" fill-rule="evenodd" fill-opacity="1" stroke="none"/>
<path clip-path="url(#clip411)" d="M619.605 965.026 L563.605 965.026 L591.605 1021.03 L619.605 965.026 Z" fill="#ff0000" fill-rule="evenodd" fill-opacity="1" stroke="none"/>
<path clip-path="url(#clip411)" d="M655.119 971.185 L599.119 971.185 L627.119 1027.18 L655.119 971.185 Z" fill="#ff0000" fill-rule="evenodd" fill-opacity="1" stroke="none"/>
<path clip-path="url(#clip411)" d="M690.633 972.209 L634.633 972.209 L662.633 1028.21 L690.633 972.209 Z" fill="#ff0000" fill-rule="evenodd" fill-opacity="1" stroke="none"/>
<path clip-path="url(#clip411)" d="M726.148 976.779 L670.148 976.779 L698.148 1032.78 L726.148 976.779 Z" fill="#ff0000" fill-rule="evenodd" fill-opacity="1" stroke="none"/>
<path clip-path="url(#clip411)" d="M761.662 979.195 L705.662 979.195 L733.662 1035.2 L761.662 979.195 Z" fill="#ff0000" fill-rule="evenodd" fill-opacity="1" stroke="none"/>
<path clip-path="url(#clip411)" d="M797.176 980.647 L741.176 980.647 L769.176 1036.65 L797.176 980.647 Z" fill="#ff0000" fill-rule="evenodd" fill-opacity="1" stroke="none"/>
<path clip-path="url(#clip411)" d="M832.69 984.101 L776.69 984.101 L804.69 1040.1 L832.69 984.101 Z" fill="#ff0000" fill-rule="evenodd" fill-opacity="1" stroke="none"/>
<path clip-path="url(#clip411)" d="M868.205 990.311 L812.205 990.311 L840.205 1046.31 L868.205 990.311 Z" fill="#ff0000" fill-rule="evenodd" fill-opacity="1" stroke="none"/>
<path clip-path="url(#clip411)" d="M903.719 990.781 L847.719 990.781 L875.719 1046.78 L903.719 990.781 Z" fill="#ff0000" fill-rule="evenodd" fill-opacity="1" stroke="none"/>
<path clip-path="url(#clip411)" d="M939.233 995.671 L883.233 995.671 L911.233 1051.67 L939.233 995.671 Z" fill="#ff0000" fill-rule="evenodd" fill-opacity="1" stroke="none"/>
<path clip-path="url(#clip411)" d="M974.747 997.667 L918.747 997.667 L946.747 1053.67 L974.747 997.667 Z" fill="#ff0000" fill-rule="evenodd" fill-opacity="1" stroke="none"/>
<path clip-path="url(#clip411)" d="M1010.26 999.602 L954.262 999.602 L982.262 1055.6 L1010.26 999.602 Z" fill="#ff0000" fill-rule="evenodd" fill-opacity="1" stroke="none"/>
<path clip-path="url(#clip411)" d="M1045.78 1000.46 L989.776 1000.46 L1017.78 1056.46 L1045.78 1000.46 Z" fill="#ff0000" fill-rule="evenodd" fill-opacity="1" stroke="none"/>
<path clip-path="url(#clip411)" d="M1081.29 1003.9 L1025.29 1003.9 L1053.29 1059.9 L1081.29 1003.9 Z" fill="#ff0000" fill-rule="evenodd" fill-opacity="1" stroke="none"/>
<path clip-path="url(#clip411)" d="M1116.8 1006.8 L1060.8 1006.8 L1088.8 1062.8 L1116.8 1006.8 Z" fill="#ff0000" fill-rule="evenodd" fill-opacity="1" stroke="none"/>
<path clip-path="url(#clip411)" d="M1152.32 1007.22 L1096.32 1007.22 L1124.32 1063.22 L1152.32 1007.22 Z" fill="#ff0000" fill-rule="evenodd" fill-opacity="1" stroke="none"/>
<path clip-path="url(#clip411)" d="M1187.83 1011.04 L1131.83 1011.04 L1159.83 1067.04 L1187.83 1011.04 Z" fill="#ff0000" fill-rule="evenodd" fill-opacity="1" stroke="none"/>
<path clip-path="url(#clip411)" d="M1223.35 1014.2 L1167.35 1014.2 L1195.35 1070.2 L1223.35 1014.2 Z" fill="#ff0000" fill-rule="evenodd" fill-opacity="1" stroke="none"/>
<path clip-path="url(#clip411)" d="M1258.86 1016.86 L1202.86 1016.86 L1230.86 1072.86 L1258.86 1016.86 Z" fill="#ff0000" fill-rule="evenodd" fill-opacity="1" stroke="none"/>
<path clip-path="url(#clip411)" d="M1294.38 1018.18 L1238.38 1018.18 L1266.38 1074.18 L1294.38 1018.18 Z" fill="#ff0000" fill-rule="evenodd" fill-opacity="1" stroke="none"/>
<path clip-path="url(#clip411)" d="M1329.89 1020.99 L1273.89 1020.99 L1301.89 1076.99 L1329.89 1020.99 Z" fill="#ff0000" fill-rule="evenodd" fill-opacity="1" stroke="none"/>
<path clip-path="url(#clip411)" d="M1365.4 1022.98 L1309.4 1022.98 L1337.4 1078.98 L1365.4 1022.98 Z" fill="#ff0000" fill-rule="evenodd" fill-opacity="1" stroke="none"/>
<path clip-path="url(#clip411)" d="M1400.92 1026.61 L1344.92 1026.61 L1372.92 1082.61 L1400.92 1026.61 Z" fill="#ff0000" fill-rule="evenodd" fill-opacity="1" stroke="none"/>
<path clip-path="url(#clip411)" d="M1436.43 1027.11 L1380.43 1027.11 L1408.43 1083.11 L1436.43 1027.11 Z" fill="#ff0000" fill-rule="evenodd" fill-opacity="1" stroke="none"/>
<path clip-path="url(#clip411)" d="M1471.95 1032.52 L1415.95 1032.52 L1443.95 1088.52 L1471.95 1032.52 Z" fill="#ff0000" fill-rule="evenodd" fill-opacity="1" stroke="none"/>
<path clip-path="url(#clip411)" d="M1507.46 1034.31 L1451.46 1034.31 L1479.46 1090.31 L1507.46 1034.31 Z" fill="#ff0000" fill-rule="evenodd" fill-opacity="1" stroke="none"/>
<path clip-path="url(#clip411)" d="M1542.98 1038.76 L1486.98 1038.76 L1514.98 1094.76 L1542.98 1038.76 Z" fill="#ff0000" fill-rule="evenodd" fill-opacity="1" stroke="none"/>
<path clip-path="url(#clip411)" d="M1578.49 1044.34 L1522.49 1044.34 L1550.49 1100.34 L1578.49 1044.34 Z" fill="#ff0000" fill-rule="evenodd" fill-opacity="1" stroke="none"/>
<path clip-path="url(#clip411)" d="M1614 1046.35 L1558 1046.35 L1586 1102.35 L1614 1046.35 Z" fill="#ff0000" fill-rule="evenodd" fill-opacity="1" stroke="none"/>
<path clip-path="url(#clip411)" d="M1649.52 1049.98 L1593.52 1049.98 L1621.52 1105.98 L1649.52 1049.98 Z" fill="#ff0000" fill-rule="evenodd" fill-opacity="1" stroke="none"/>
<path clip-path="url(#clip411)" d="M1685.03 1051.89 L1629.03 1051.89 L1657.03 1107.89 L1685.03 1051.89 Z" fill="#ff0000" fill-rule="evenodd" fill-opacity="1" stroke="none"/>
<path clip-path="url(#clip411)" d="M1720.55 1056.8 L1664.55 1056.8 L1692.55 1112.8 L1720.55 1056.8 Z" fill="#ff0000" fill-rule="evenodd" fill-opacity="1" stroke="none"/>
<path clip-path="url(#clip411)" d="M1756.06 1063.24 L1700.06 1063.24 L1728.06 1119.24 L1756.06 1063.24 Z" fill="#ff0000" fill-rule="evenodd" fill-opacity="1" stroke="none"/>
<path clip-path="url(#clip411)" d="M1791.57 1064.08 L1735.57 1064.08 L1763.57 1120.08 L1791.57 1064.08 Z" fill="#ff0000" fill-rule="evenodd" fill-opacity="1" stroke="none"/>
<path clip-path="url(#clip411)" d="M1827.09 1065.06 L1771.09 1065.06 L1799.09 1121.06 L1827.09 1065.06 Z" fill="#ff0000" fill-rule="evenodd" fill-opacity="1" stroke="none"/>
<path clip-path="url(#clip411)" d="M1862.6 1065.55 L1806.6 1065.55 L1834.6 1121.55 L1862.6 1065.55 Z" fill="#ff0000" fill-rule="evenodd" fill-opacity="1" stroke="none"/>
<path clip-path="url(#clip411)" d="M1898.12 1066 L1842.12 1066 L1870.12 1122 L1898.12 1066 Z" fill="#ff0000" fill-rule="evenodd" fill-opacity="1" stroke="none"/>
<path clip-path="url(#clip411)" d="M1933.63 1066.37 L1877.63 1066.37 L1905.63 1122.37 L1933.63 1066.37 Z" fill="#ff0000" fill-rule="evenodd" fill-opacity="1" stroke="none"/>
<path clip-path="url(#clip411)" d="M1969.15 1067.03 L1913.15 1067.03 L1941.15 1123.03 L1969.15 1067.03 Z" fill="#ff0000" fill-rule="evenodd" fill-opacity="1" stroke="none"/>
<path clip-path="url(#clip411)" d="M2004.66 1067.35 L1948.66 1067.35 L1976.66 1123.35 L2004.66 1067.35 Z" fill="#ff0000" fill-rule="evenodd" fill-opacity="1" stroke="none"/>
<path clip-path="url(#clip411)" d="M2040.17 1067.5 L1984.17 1067.5 L2012.17 1123.5 L2040.17 1067.5 Z" fill="#ff0000" fill-rule="evenodd" fill-opacity="1" stroke="none"/>
<path clip-path="url(#clip411)" d="M2075.69 1068.3 L2019.69 1068.3 L2047.69 1124.3 L2075.69 1068.3 Z" fill="#ff0000" fill-rule="evenodd" fill-opacity="1" stroke="none"/>
<path clip-path="url(#clip411)" d="M2111.2 1068.55 L2055.2 1068.55 L2083.2 1124.55 L2111.2 1068.55 Z" fill="#ff0000" fill-rule="evenodd" fill-opacity="1" stroke="none"/>
<path clip-path="url(#clip411)" d="M2146.72 1068.86 L2090.72 1068.86 L2118.72 1124.86 L2146.72 1068.86 Z" fill="#ff0000" fill-rule="evenodd" fill-opacity="1" stroke="none"/>
<path clip-path="url(#clip411)" d="M2182.23 1069.41 L2126.23 1069.41 L2154.23 1125.41 L2182.23 1069.41 Z" fill="#ff0000" fill-rule="evenodd" fill-opacity="1" stroke="none"/>
<path clip-path="url(#clip411)" d="M2217.75 1069.89 L2161.75 1069.89 L2189.75 1125.89 L2217.75 1069.89 Z" fill="#ff0000" fill-rule="evenodd" fill-opacity="1" stroke="none"/>
<path clip-path="url(#clip411)" d="M2253.26 1070.33 L2197.26 1070.33 L2225.26 1126.33 L2253.26 1070.33 Z" fill="#ff0000" fill-rule="evenodd" fill-opacity="1" stroke="none"/>
<path clip-path="url(#clip411)" d="M2288.77 1071 L2232.77 1071 L2260.77 1127 L2288.77 1071 Z" fill="#ff0000" fill-rule="evenodd" fill-opacity="1" stroke="none"/>
<path clip-path="url(#clip411)" d="M2324.29 1071.44 L2268.29 1071.44 L2296.29 1127.44 L2324.29 1071.44 Z" fill="#ff0000" fill-rule="evenodd" fill-opacity="1" stroke="none"/>
<path clip-path="url(#clip411)" d="M414.034 131.508 L386.034 187.508 L442.034 187.508 L414.034 131.508 Z" fill="#0000ff" fill-rule="evenodd" fill-opacity="1" stroke="none"/>
<path clip-path="url(#clip411)" d="M449.548 639.824 L421.548 695.824 L477.548 695.824 L449.548 639.824 Z" fill="#0000ff" fill-rule="evenodd" fill-opacity="1" stroke="none"/>
<path clip-path="url(#clip411)" d="M485.062 737.936 L457.062 793.936 L513.062 793.936 L485.062 737.936 Z" fill="#0000ff" fill-rule="evenodd" fill-opacity="1" stroke="none"/>
<path clip-path="url(#clip411)" d="M520.576 954.359 L492.576 1010.36 L548.576 1010.36 L520.576 954.359 Z" fill="#0000ff" fill-rule="evenodd" fill-opacity="1" stroke="none"/>
<path clip-path="url(#clip411)" d="M556.091 1012.44 L528.091 1068.44 L584.091 1068.44 L556.091 1012.44 Z" fill="#0000ff" fill-rule="evenodd" fill-opacity="1" stroke="none"/>
<path clip-path="url(#clip411)" d="M591.605 1080.69 L563.605 1136.69 L619.605 1136.69 L591.605 1080.69 Z" fill="#0000ff" fill-rule="evenodd" fill-opacity="1" stroke="none"/>
<path clip-path="url(#clip411)" d="M627.119 1080.69 L599.119 1136.69 L655.119 1136.69 L627.119 1080.69 Z" fill="#0000ff" fill-rule="evenodd" fill-opacity="1" stroke="none"/>
<path clip-path="url(#clip411)" d="M662.633 1080.69 L634.633 1136.69 L690.633 1136.69 L662.633 1080.69 Z" fill="#0000ff" fill-rule="evenodd" fill-opacity="1" stroke="none"/>
<path clip-path="url(#clip411)" d="M698.148 1080.69 L670.148 1136.69 L726.148 1136.69 L698.148 1080.69 Z" fill="#0000ff" fill-rule="evenodd" fill-opacity="1" stroke="none"/>
<path clip-path="url(#clip411)" d="M733.662 1080.69 L705.662 1136.69 L761.662 1136.69 L733.662 1080.69 Z" fill="#0000ff" fill-rule="evenodd" fill-opacity="1" stroke="none"/>
<path clip-path="url(#clip411)" d="M769.176 1080.69 L741.176 1136.69 L797.176 1136.69 L769.176 1080.69 Z" fill="#0000ff" fill-rule="evenodd" fill-opacity="1" stroke="none"/>
<path clip-path="url(#clip411)" d="M804.69 1080.69 L776.69 1136.69 L832.69 1136.69 L804.69 1080.69 Z" fill="#0000ff" fill-rule="evenodd" fill-opacity="1" stroke="none"/>
<path clip-path="url(#clip411)" d="M840.205 1080.69 L812.205 1136.69 L868.205 1136.69 L840.205 1080.69 Z" fill="#0000ff" fill-rule="evenodd" fill-opacity="1" stroke="none"/>
<path clip-path="url(#clip411)" d="M875.719 1080.69 L847.719 1136.69 L903.719 1136.69 L875.719 1080.69 Z" fill="#0000ff" fill-rule="evenodd" fill-opacity="1" stroke="none"/>
<path clip-path="url(#clip411)" d="M911.233 1080.69 L883.233 1136.69 L939.233 1136.69 L911.233 1080.69 Z" fill="#0000ff" fill-rule="evenodd" fill-opacity="1" stroke="none"/>
<path clip-path="url(#clip411)" d="M946.747 1080.69 L918.747 1136.69 L974.747 1136.69 L946.747 1080.69 Z" fill="#0000ff" fill-rule="evenodd" fill-opacity="1" stroke="none"/>
<path clip-path="url(#clip411)" d="M982.262 1080.69 L954.262 1136.69 L1010.26 1136.69 L982.262 1080.69 Z" fill="#0000ff" fill-rule="evenodd" fill-opacity="1" stroke="none"/>
<path clip-path="url(#clip411)" d="M1017.78 1080.69 L989.776 1136.69 L1045.78 1136.69 L1017.78 1080.69 Z" fill="#0000ff" fill-rule="evenodd" fill-opacity="1" stroke="none"/>
<path clip-path="url(#clip411)" d="M1053.29 1080.69 L1025.29 1136.69 L1081.29 1136.69 L1053.29 1080.69 Z" fill="#0000ff" fill-rule="evenodd" fill-opacity="1" stroke="none"/>
<path clip-path="url(#clip411)" d="M1088.8 1080.69 L1060.8 1136.69 L1116.8 1136.69 L1088.8 1080.69 Z" fill="#0000ff" fill-rule="evenodd" fill-opacity="1" stroke="none"/>
<path clip-path="url(#clip411)" d="M1124.32 1080.69 L1096.32 1136.69 L1152.32 1136.69 L1124.32 1080.69 Z" fill="#0000ff" fill-rule="evenodd" fill-opacity="1" stroke="none"/>
<path clip-path="url(#clip411)" d="M1159.83 1080.69 L1131.83 1136.69 L1187.83 1136.69 L1159.83 1080.69 Z" fill="#0000ff" fill-rule="evenodd" fill-opacity="1" stroke="none"/>
<path clip-path="url(#clip411)" d="M1195.35 1080.69 L1167.35 1136.69 L1223.35 1136.69 L1195.35 1080.69 Z" fill="#0000ff" fill-rule="evenodd" fill-opacity="1" stroke="none"/>
<path clip-path="url(#clip411)" d="M1230.86 1080.69 L1202.86 1136.69 L1258.86 1136.69 L1230.86 1080.69 Z" fill="#0000ff" fill-rule="evenodd" fill-opacity="1" stroke="none"/>
<path clip-path="url(#clip411)" d="M1266.38 1080.69 L1238.38 1136.69 L1294.38 1136.69 L1266.38 1080.69 Z" fill="#0000ff" fill-rule="evenodd" fill-opacity="1" stroke="none"/>
<path clip-path="url(#clip411)" d="M1301.89 1080.69 L1273.89 1136.69 L1329.89 1136.69 L1301.89 1080.69 Z" fill="#0000ff" fill-rule="evenodd" fill-opacity="1" stroke="none"/>
<path clip-path="url(#clip411)" d="M1337.4 1080.69 L1309.4 1136.69 L1365.4 1136.69 L1337.4 1080.69 Z" fill="#0000ff" fill-rule="evenodd" fill-opacity="1" stroke="none"/>
<path clip-path="url(#clip411)" d="M1372.92 1080.69 L1344.92 1136.69 L1400.92 1136.69 L1372.92 1080.69 Z" fill="#0000ff" fill-rule="evenodd" fill-opacity="1" stroke="none"/>
<path clip-path="url(#clip411)" d="M1408.43 1080.69 L1380.43 1136.69 L1436.43 1136.69 L1408.43 1080.69 Z" fill="#0000ff" fill-rule="evenodd" fill-opacity="1" stroke="none"/>
<path clip-path="url(#clip411)" d="M1443.95 1080.69 L1415.95 1136.69 L1471.95 1136.69 L1443.95 1080.69 Z" fill="#0000ff" fill-rule="evenodd" fill-opacity="1" stroke="none"/>
<path clip-path="url(#clip411)" d="M1479.46 1080.69 L1451.46 1136.69 L1507.46 1136.69 L1479.46 1080.69 Z" fill="#0000ff" fill-rule="evenodd" fill-opacity="1" stroke="none"/>
<path clip-path="url(#clip411)" d="M1514.98 1080.69 L1486.98 1136.69 L1542.98 1136.69 L1514.98 1080.69 Z" fill="#0000ff" fill-rule="evenodd" fill-opacity="1" stroke="none"/>
<path clip-path="url(#clip411)" d="M1550.49 1080.69 L1522.49 1136.69 L1578.49 1136.69 L1550.49 1080.69 Z" fill="#0000ff" fill-rule="evenodd" fill-opacity="1" stroke="none"/>
<path clip-path="url(#clip411)" d="M1586 1080.69 L1558 1136.69 L1614 1136.69 L1586 1080.69 Z" fill="#0000ff" fill-rule="evenodd" fill-opacity="1" stroke="none"/>
<path clip-path="url(#clip411)" d="M1621.52 1080.69 L1593.52 1136.69 L1649.52 1136.69 L1621.52 1080.69 Z" fill="#0000ff" fill-rule="evenodd" fill-opacity="1" stroke="none"/>
<path clip-path="url(#clip411)" d="M1657.03 1080.69 L1629.03 1136.69 L1685.03 1136.69 L1657.03 1080.69 Z" fill="#0000ff" fill-rule="evenodd" fill-opacity="1" stroke="none"/>
<path clip-path="url(#clip411)" d="M1692.55 1080.69 L1664.55 1136.69 L1720.55 1136.69 L1692.55 1080.69 Z" fill="#0000ff" fill-rule="evenodd" fill-opacity="1" stroke="none"/>
<path clip-path="url(#clip411)" d="M1728.06 1080.69 L1700.06 1136.69 L1756.06 1136.69 L1728.06 1080.69 Z" fill="#0000ff" fill-rule="evenodd" fill-opacity="1" stroke="none"/>
<path clip-path="url(#clip411)" d="M1763.57 1080.69 L1735.57 1136.69 L1791.57 1136.69 L1763.57 1080.69 Z" fill="#0000ff" fill-rule="evenodd" fill-opacity="1" stroke="none"/>
<path clip-path="url(#clip411)" d="M1799.09 1080.69 L1771.09 1136.69 L1827.09 1136.69 L1799.09 1080.69 Z" fill="#0000ff" fill-rule="evenodd" fill-opacity="1" stroke="none"/>
<path clip-path="url(#clip411)" d="M1834.6 1080.69 L1806.6 1136.69 L1862.6 1136.69 L1834.6 1080.69 Z" fill="#0000ff" fill-rule="evenodd" fill-opacity="1" stroke="none"/>
<path clip-path="url(#clip411)" d="M1870.12 1080.69 L1842.12 1136.69 L1898.12 1136.69 L1870.12 1080.69 Z" fill="#0000ff" fill-rule="evenodd" fill-opacity="1" stroke="none"/>
<path clip-path="url(#clip411)" d="M1905.63 1080.69 L1877.63 1136.69 L1933.63 1136.69 L1905.63 1080.69 Z" fill="#0000ff" fill-rule="evenodd" fill-opacity="1" stroke="none"/>
<path clip-path="url(#clip411)" d="M1941.15 1080.69 L1913.15 1136.69 L1969.15 1136.69 L1941.15 1080.69 Z" fill="#0000ff" fill-rule="evenodd" fill-opacity="1" stroke="none"/>
<path clip-path="url(#clip411)" d="M1976.66 1080.69 L1948.66 1136.69 L2004.66 1136.69 L1976.66 1080.69 Z" fill="#0000ff" fill-rule="evenodd" fill-opacity="1" stroke="none"/>
<path clip-path="url(#clip411)" d="M2012.17 1080.69 L1984.17 1136.69 L2040.17 1136.69 L2012.17 1080.69 Z" fill="#0000ff" fill-rule="evenodd" fill-opacity="1" stroke="none"/>
<path clip-path="url(#clip411)" d="M2047.69 1080.69 L2019.69 1136.69 L2075.69 1136.69 L2047.69 1080.69 Z" fill="#0000ff" fill-rule="evenodd" fill-opacity="1" stroke="none"/>
<path clip-path="url(#clip411)" d="M2083.2 1080.69 L2055.2 1136.69 L2111.2 1136.69 L2083.2 1080.69 Z" fill="#0000ff" fill-rule="evenodd" fill-opacity="1" stroke="none"/>
<path clip-path="url(#clip411)" d="M2118.72 1080.69 L2090.72 1136.69 L2146.72 1136.69 L2118.72 1080.69 Z" fill="#0000ff" fill-rule="evenodd" fill-opacity="1" stroke="none"/>
<path clip-path="url(#clip411)" d="M2154.23 1080.69 L2126.23 1136.69 L2182.23 1136.69 L2154.23 1080.69 Z" fill="#0000ff" fill-rule="evenodd" fill-opacity="1" stroke="none"/>
<path clip-path="url(#clip411)" d="M2189.75 1080.69 L2161.75 1136.69 L2217.75 1136.69 L2189.75 1080.69 Z" fill="#0000ff" fill-rule="evenodd" fill-opacity="1" stroke="none"/>
<path clip-path="url(#clip411)" d="M2225.26 1080.69 L2197.26 1136.69 L2253.26 1136.69 L2225.26 1080.69 Z" fill="#0000ff" fill-rule="evenodd" fill-opacity="1" stroke="none"/>
<path clip-path="url(#clip411)" d="M2260.77 1080.69 L2232.77 1136.69 L2288.77 1136.69 L2260.77 1080.69 Z" fill="#0000ff" fill-rule="evenodd" fill-opacity="1" stroke="none"/>
<path clip-path="url(#clip411)" d="M2296.29 1080.69 L2268.29 1136.69 L2324.29 1136.69 L2296.29 1080.69 Z" fill="#0000ff" fill-rule="evenodd" fill-opacity="1" stroke="none"/>
<circle clip-path="url(#clip411)" cx="414.034" cy="195.329" r="25.2" fill="#ff00ff" fill-rule="evenodd" fill-opacity="1" stroke="none"/>
<circle clip-path="url(#clip411)" cx="449.548" cy="696.504" r="25.2" fill="#ff00ff" fill-rule="evenodd" fill-opacity="1" stroke="none"/>
<circle clip-path="url(#clip411)" cx="485.062" cy="787.064" r="25.2" fill="#ff00ff" fill-rule="evenodd" fill-opacity="1" stroke="none"/>
<circle clip-path="url(#clip411)" cx="520.576" cy="1006.25" r="25.2" fill="#ff00ff" fill-rule="evenodd" fill-opacity="1" stroke="none"/>
<circle clip-path="url(#clip411)" cx="556.091" cy="1045.71" r="25.2" fill="#ff00ff" fill-rule="evenodd" fill-opacity="1" stroke="none"/>
<circle clip-path="url(#clip411)" cx="591.605" cy="1094.18" r="25.2" fill="#ff00ff" fill-rule="evenodd" fill-opacity="1" stroke="none"/>
<circle clip-path="url(#clip411)" cx="627.119" cy="1098.81" r="25.2" fill="#ff00ff" fill-rule="evenodd" fill-opacity="1" stroke="none"/>
<circle clip-path="url(#clip411)" cx="662.633" cy="1099.88" r="25.2" fill="#ff00ff" fill-rule="evenodd" fill-opacity="1" stroke="none"/>
<circle clip-path="url(#clip411)" cx="698.148" cy="1101.35" r="25.2" fill="#ff00ff" fill-rule="evenodd" fill-opacity="1" stroke="none"/>
<circle clip-path="url(#clip411)" cx="733.662" cy="1101.66" r="25.2" fill="#ff00ff" fill-rule="evenodd" fill-opacity="1" stroke="none"/>
<circle clip-path="url(#clip411)" cx="769.176" cy="1102.39" r="25.2" fill="#ff00ff" fill-rule="evenodd" fill-opacity="1" stroke="none"/>
<circle clip-path="url(#clip411)" cx="804.69" cy="1102.79" r="25.2" fill="#ff00ff" fill-rule="evenodd" fill-opacity="1" stroke="none"/>
<circle clip-path="url(#clip411)" cx="840.205" cy="1103.64" r="25.2" fill="#ff00ff" fill-rule="evenodd" fill-opacity="1" stroke="none"/>
<circle clip-path="url(#clip411)" cx="875.719" cy="1103.98" r="25.2" fill="#ff00ff" fill-rule="evenodd" fill-opacity="1" stroke="none"/>
<circle clip-path="url(#clip411)" cx="911.233" cy="1104.27" r="25.2" fill="#ff00ff" fill-rule="evenodd" fill-opacity="1" stroke="none"/>
<circle clip-path="url(#clip411)" cx="946.747" cy="1104.78" r="25.2" fill="#ff00ff" fill-rule="evenodd" fill-opacity="1" stroke="none"/>
<circle clip-path="url(#clip411)" cx="982.262" cy="1105.42" r="25.2" fill="#ff00ff" fill-rule="evenodd" fill-opacity="1" stroke="none"/>
<circle clip-path="url(#clip411)" cx="1017.78" cy="1105.66" r="25.2" fill="#ff00ff" fill-rule="evenodd" fill-opacity="1" stroke="none"/>
<circle clip-path="url(#clip411)" cx="1053.29" cy="1105.8" r="25.2" fill="#ff00ff" fill-rule="evenodd" fill-opacity="1" stroke="none"/>
<circle clip-path="url(#clip411)" cx="1088.8" cy="1106.52" r="25.2" fill="#ff00ff" fill-rule="evenodd" fill-opacity="1" stroke="none"/>
<circle clip-path="url(#clip411)" cx="1124.32" cy="1106.62" r="25.2" fill="#ff00ff" fill-rule="evenodd" fill-opacity="1" stroke="none"/>
<circle clip-path="url(#clip411)" cx="1159.83" cy="1106.76" r="25.2" fill="#ff00ff" fill-rule="evenodd" fill-opacity="1" stroke="none"/>
<circle clip-path="url(#clip411)" cx="1195.35" cy="1106.95" r="25.2" fill="#ff00ff" fill-rule="evenodd" fill-opacity="1" stroke="none"/>
<circle clip-path="url(#clip411)" cx="1230.86" cy="1107.15" r="25.2" fill="#ff00ff" fill-rule="evenodd" fill-opacity="1" stroke="none"/>
<circle clip-path="url(#clip411)" cx="1266.38" cy="1107.49" r="25.2" fill="#ff00ff" fill-rule="evenodd" fill-opacity="1" stroke="none"/>
<circle clip-path="url(#clip411)" cx="1301.89" cy="1107.81" r="25.2" fill="#ff00ff" fill-rule="evenodd" fill-opacity="1" stroke="none"/>
<circle clip-path="url(#clip411)" cx="1337.4" cy="1107.91" r="25.2" fill="#ff00ff" fill-rule="evenodd" fill-opacity="1" stroke="none"/>
<circle clip-path="url(#clip411)" cx="1372.92" cy="1108.16" r="25.2" fill="#ff00ff" fill-rule="evenodd" fill-opacity="1" stroke="none"/>
<circle clip-path="url(#clip411)" cx="1408.43" cy="1108.53" r="25.2" fill="#ff00ff" fill-rule="evenodd" fill-opacity="1" stroke="none"/>
<circle clip-path="url(#clip411)" cx="1443.95" cy="1108.63" r="25.2" fill="#ff00ff" fill-rule="evenodd" fill-opacity="1" stroke="none"/>
<circle clip-path="url(#clip411)" cx="1479.46" cy="1108.69" r="25.2" fill="#ff00ff" fill-rule="evenodd" fill-opacity="1" stroke="none"/>
<circle clip-path="url(#clip411)" cx="1514.98" cy="1108.69" r="25.2" fill="#ff00ff" fill-rule="evenodd" fill-opacity="1" stroke="none"/>
<circle clip-path="url(#clip411)" cx="1550.49" cy="1108.69" r="25.2" fill="#ff00ff" fill-rule="evenodd" fill-opacity="1" stroke="none"/>
<circle clip-path="url(#clip411)" cx="1586" cy="1108.69" r="25.2" fill="#ff00ff" fill-rule="evenodd" fill-opacity="1" stroke="none"/>
<circle clip-path="url(#clip411)" cx="1621.52" cy="1108.69" r="25.2" fill="#ff00ff" fill-rule="evenodd" fill-opacity="1" stroke="none"/>
<circle clip-path="url(#clip411)" cx="1657.03" cy="1108.69" r="25.2" fill="#ff00ff" fill-rule="evenodd" fill-opacity="1" stroke="none"/>
<circle clip-path="url(#clip411)" cx="1692.55" cy="1108.69" r="25.2" fill="#ff00ff" fill-rule="evenodd" fill-opacity="1" stroke="none"/>
<circle clip-path="url(#clip411)" cx="1728.06" cy="1108.69" r="25.2" fill="#ff00ff" fill-rule="evenodd" fill-opacity="1" stroke="none"/>
<circle clip-path="url(#clip411)" cx="1763.57" cy="1108.69" r="25.2" fill="#ff00ff" fill-rule="evenodd" fill-opacity="1" stroke="none"/>
<circle clip-path="url(#clip411)" cx="1799.09" cy="1108.69" r="25.2" fill="#ff00ff" fill-rule="evenodd" fill-opacity="1" stroke="none"/>
<circle clip-path="url(#clip411)" cx="1834.6" cy="1108.69" r="25.2" fill="#ff00ff" fill-rule="evenodd" fill-opacity="1" stroke="none"/>
<circle clip-path="url(#clip411)" cx="1870.12" cy="1108.69" r="25.2" fill="#ff00ff" fill-rule="evenodd" fill-opacity="1" stroke="none"/>
<circle clip-path="url(#clip411)" cx="1905.63" cy="1108.69" r="25.2" fill="#ff00ff" fill-rule="evenodd" fill-opacity="1" stroke="none"/>
<circle clip-path="url(#clip411)" cx="1941.15" cy="1108.69" r="25.2" fill="#ff00ff" fill-rule="evenodd" fill-opacity="1" stroke="none"/>
<circle clip-path="url(#clip411)" cx="1976.66" cy="1108.69" r="25.2" fill="#ff00ff" fill-rule="evenodd" fill-opacity="1" stroke="none"/>
<circle clip-path="url(#clip411)" cx="2012.17" cy="1108.69" r="25.2" fill="#ff00ff" fill-rule="evenodd" fill-opacity="1" stroke="none"/>
<circle clip-path="url(#clip411)" cx="2047.69" cy="1108.69" r="25.2" fill="#ff00ff" fill-rule="evenodd" fill-opacity="1" stroke="none"/>
<circle clip-path="url(#clip411)" cx="2083.2" cy="1108.69" r="25.2" fill="#ff00ff" fill-rule="evenodd" fill-opacity="1" stroke="none"/>
<circle clip-path="url(#clip411)" cx="2118.72" cy="1108.69" r="25.2" fill="#ff00ff" fill-rule="evenodd" fill-opacity="1" stroke="none"/>
<circle clip-path="url(#clip411)" cx="2154.23" cy="1108.69" r="25.2" fill="#ff00ff" fill-rule="evenodd" fill-opacity="1" stroke="none"/>
<circle clip-path="url(#clip411)" cx="2189.75" cy="1108.69" r="25.2" fill="#ff00ff" fill-rule="evenodd" fill-opacity="1" stroke="none"/>
<circle clip-path="url(#clip411)" cx="2225.26" cy="1108.69" r="25.2" fill="#ff00ff" fill-rule="evenodd" fill-opacity="1" stroke="none"/>
<circle clip-path="url(#clip411)" cx="2260.77" cy="1108.69" r="25.2" fill="#ff00ff" fill-rule="evenodd" fill-opacity="1" stroke="none"/>
<circle clip-path="url(#clip411)" cx="2296.29" cy="1108.69" r="25.2" fill="#ff00ff" fill-rule="evenodd" fill-opacity="1" stroke="none"/>
<path clip-path="url(#clip410)" d="M1028.46 631.13 L2286.25 631.13 L2286.25 164.57 L1028.46 164.57  Z" fill="#ffffff" fill-rule="evenodd" fill-opacity="1"/>
<polyline clip-path="url(#clip410)" style="stroke:#000000; stroke-linecap:round; stroke-linejoin:round; stroke-width:4; stroke-opacity:1; fill:none" points="1028.46,631.13 2286.25,631.13 2286.25,164.57 1028.46,164.57 1028.46,631.13 "/>
<path clip-path="url(#clip410)" d="M1170.89 227.45 L1063.37 227.45 L1117.13 334.97 L1170.89 227.45 Z" fill="#ff0000" fill-rule="evenodd" fill-opacity="1" stroke="none"/>
<path clip-path="url(#clip410)" d="M1205.81 242.33 L1217.11 242.33 L1238.67 274.309 L1260.08 242.33 L1271.38 242.33 L1243.88 283.059 L1243.88 320.09 L1233.31 320.09 L1233.31 283.059 L1205.81 242.33 Z" fill="#000000" fill-rule="nonzero" fill-opacity="1" /><path clip-path="url(#clip410)" d="M1338.15 239.153 Q1331.17 251.132 1327.78 262.851 Q1324.4 274.569 1324.4 286.601 Q1324.4 298.632 1327.78 310.455 Q1331.22 322.225 1338.15 334.152 L1329.81 334.152 Q1322 321.913 1318.1 310.09 Q1314.24 298.267 1314.24 286.601 Q1314.24 274.986 1318.1 263.215 Q1321.95 251.445 1329.81 239.153 L1338.15 239.153 Z" fill="#000000" fill-rule="nonzero" fill-opacity="1" /><path clip-path="url(#clip410)" d="M1395.13 270.611 L1395.13 239.049 L1404.71 239.049 L1404.71 320.09 L1395.13 320.09 L1395.13 311.34 Q1392.11 316.548 1387.47 319.1 Q1382.89 321.6 1376.43 321.6 Q1365.86 321.6 1359.19 313.163 Q1352.58 304.725 1352.58 290.976 Q1352.58 277.226 1359.19 268.788 Q1365.86 260.351 1376.43 260.351 Q1382.89 260.351 1387.47 262.903 Q1392.11 265.403 1395.13 270.611 M1362.47 290.976 Q1362.47 301.548 1366.79 307.59 Q1371.17 313.58 1378.77 313.58 Q1386.38 313.58 1390.75 307.59 Q1395.13 301.548 1395.13 290.976 Q1395.13 280.403 1390.75 274.413 Q1386.38 268.372 1378.77 268.372 Q1371.17 268.372 1366.79 274.413 Q1362.47 280.403 1362.47 290.976 Z" fill="#000000" fill-rule="nonzero" fill-opacity="1" /><path clip-path="url(#clip410)" d="M1450.96 290.767 Q1439.35 290.767 1434.87 293.423 Q1430.39 296.08 1430.39 302.486 Q1430.39 307.59 1433.72 310.611 Q1437.11 313.58 1442.89 313.58 Q1450.86 313.58 1455.65 307.955 Q1460.49 302.278 1460.49 292.903 L1460.49 290.767 L1450.96 290.767 M1470.07 286.809 L1470.07 320.09 L1460.49 320.09 L1460.49 311.236 Q1457.21 316.548 1452.31 319.1 Q1447.42 321.6 1440.34 321.6 Q1431.38 321.6 1426.06 316.6 Q1420.8 311.548 1420.8 303.111 Q1420.8 293.267 1427.37 288.267 Q1433.98 283.267 1447.05 283.267 L1460.49 283.267 L1460.49 282.33 Q1460.49 275.715 1456.12 272.121 Q1451.79 268.476 1443.93 268.476 Q1438.93 268.476 1434.19 269.674 Q1429.45 270.871 1425.07 273.267 L1425.07 264.413 Q1430.34 262.382 1435.28 261.392 Q1440.23 260.351 1444.92 260.351 Q1457.57 260.351 1463.82 266.913 Q1470.07 273.476 1470.07 286.809 Z" fill="#000000" fill-rule="nonzero" fill-opacity="1" /><path clip-path="url(#clip410)" d="M1499.29 245.195 L1499.29 261.757 L1519.03 261.757 L1519.03 269.205 L1499.29 269.205 L1499.29 300.871 Q1499.29 308.007 1501.22 310.038 Q1503.2 312.069 1509.19 312.069 L1519.03 312.069 L1519.03 320.09 L1509.19 320.09 Q1498.1 320.09 1493.88 315.975 Q1489.66 311.809 1489.66 300.871 L1489.66 269.205 L1482.63 269.205 L1482.63 261.757 L1489.66 261.757 L1489.66 245.195 L1499.29 245.195 Z" fill="#000000" fill-rule="nonzero" fill-opacity="1" /><path clip-path="url(#clip410)" d="M1558.15 290.767 Q1546.53 290.767 1542.05 293.423 Q1537.57 296.08 1537.57 302.486 Q1537.57 307.59 1540.91 310.611 Q1544.29 313.58 1550.07 313.58 Q1558.04 313.58 1562.83 307.955 Q1567.68 302.278 1567.68 292.903 L1567.68 290.767 L1558.15 290.767 M1577.26 286.809 L1577.26 320.09 L1567.68 320.09 L1567.68 311.236 Q1564.4 316.548 1559.5 319.1 Q1554.61 321.6 1547.52 321.6 Q1538.56 321.6 1533.25 316.6 Q1527.99 311.548 1527.99 303.111 Q1527.99 293.267 1534.55 288.267 Q1541.17 283.267 1554.24 283.267 L1567.68 283.267 L1567.68 282.33 Q1567.68 275.715 1563.3 272.121 Q1558.98 268.476 1551.12 268.476 Q1546.12 268.476 1541.38 269.674 Q1536.64 270.871 1532.26 273.267 L1532.26 264.413 Q1537.52 262.382 1542.47 261.392 Q1547.42 260.351 1552.11 260.351 Q1564.76 260.351 1571.01 266.913 Q1577.26 273.476 1577.26 286.809 Z" fill="#000000" fill-rule="nonzero" fill-opacity="1" /><path clip-path="url(#clip410)" d="M1595.49 239.153 L1603.82 239.153 Q1611.64 251.445 1615.49 263.215 Q1619.4 274.986 1619.4 286.601 Q1619.4 298.267 1615.49 310.09 Q1611.64 321.913 1603.82 334.152 L1595.49 334.152 Q1602.42 322.225 1605.8 310.455 Q1609.24 298.632 1609.24 286.601 Q1609.24 274.569 1605.8 262.851 Q1602.42 251.132 1595.49 239.153 Z" fill="#000000" fill-rule="nonzero" fill-opacity="1" /><path clip-path="url(#clip410)" d="M1117.13 344.09 L1063.37 451.61 L1170.89 451.61 L1117.13 344.09 Z" fill="#0000ff" fill-rule="evenodd" fill-opacity="1" stroke="none"/>
<path clip-path="url(#clip410)" d="M1209.35 358.97 L1220.65 358.97 L1239.97 387.876 L1259.4 358.97 L1270.7 358.97 L1245.7 396.314 L1272.37 436.73 L1261.07 436.73 L1239.19 403.657 L1217.16 436.73 L1205.81 436.73 L1233.57 395.22 L1209.35 358.97 Z" fill="#000000" fill-rule="nonzero" fill-opacity="1" /><path clip-path="url(#clip410)" d="M1295.23 361.835 L1295.23 378.397 L1314.97 378.397 L1314.97 385.845 L1295.23 385.845 L1295.23 417.511 Q1295.23 424.647 1297.16 426.678 Q1299.14 428.709 1305.13 428.709 L1314.97 428.709 L1314.97 436.73 L1305.13 436.73 Q1294.03 436.73 1289.82 432.615 Q1285.6 428.449 1285.6 417.511 L1285.6 385.845 L1278.57 385.845 L1278.57 378.397 L1285.6 378.397 L1285.6 361.835 L1295.23 361.835 Z" fill="#000000" fill-rule="nonzero" fill-opacity="1" /><path clip-path="url(#clip410)" d="M1361.38 387.355 Q1359.76 386.418 1357.84 386.001 Q1355.96 385.532 1353.67 385.532 Q1345.54 385.532 1341.17 390.845 Q1336.85 396.105 1336.85 406.001 L1336.85 436.73 L1327.21 436.73 L1327.21 378.397 L1336.85 378.397 L1336.85 387.459 Q1339.87 382.147 1344.71 379.595 Q1349.55 376.991 1356.48 376.991 Q1357.47 376.991 1358.67 377.147 Q1359.87 377.251 1361.33 377.512 L1361.38 387.355 Z" fill="#000000" fill-rule="nonzero" fill-opacity="1" /><path clip-path="url(#clip410)" d="M1370.44 413.709 L1370.44 378.397 L1380.02 378.397 L1380.02 413.345 Q1380.02 421.626 1383.25 425.793 Q1386.48 429.907 1392.94 429.907 Q1400.7 429.907 1405.18 424.959 Q1409.71 420.011 1409.71 411.47 L1409.71 378.397 L1419.29 378.397 L1419.29 436.73 L1409.71 436.73 L1409.71 427.772 Q1406.22 433.084 1401.59 435.688 Q1397 438.24 1390.91 438.24 Q1380.86 438.24 1375.65 431.99 Q1370.44 425.74 1370.44 413.709 M1394.55 376.991 L1394.55 376.991 Z" fill="#000000" fill-rule="nonzero" fill-opacity="1" /><path clip-path="url(#clip410)" d="M1488.93 405.168 L1488.93 409.855 L1444.87 409.855 Q1445.49 419.751 1450.8 424.959 Q1456.17 430.115 1465.7 430.115 Q1471.22 430.115 1476.38 428.761 Q1481.58 427.407 1486.69 424.699 L1486.69 433.761 Q1481.53 435.949 1476.12 437.095 Q1470.7 438.24 1465.13 438.24 Q1451.17 438.24 1442.99 430.115 Q1434.87 421.99 1434.87 408.136 Q1434.87 393.814 1442.57 385.428 Q1450.34 376.991 1463.46 376.991 Q1475.23 376.991 1482.05 384.595 Q1488.93 392.147 1488.93 405.168 M1479.35 402.355 Q1479.24 394.491 1474.92 389.803 Q1470.65 385.116 1463.56 385.116 Q1455.54 385.116 1450.7 389.647 Q1445.91 394.178 1445.18 402.407 L1479.35 402.355 Z" fill="#000000" fill-rule="nonzero" fill-opacity="1" /><circle clip-path="url(#clip410)" cx="1117.13" cy="514.49" r="48.384" fill="#ff00ff" fill-rule="evenodd" fill-opacity="1" stroke="none"/>
<path clip-path="url(#clip410)" d="M1209.35 475.61 L1220.65 475.61 L1239.97 504.516 L1259.4 475.61 L1270.7 475.61 L1245.7 512.954 L1272.37 553.37 L1261.07 553.37 L1239.19 520.297 L1217.16 553.37 L1205.81 553.37 L1233.57 511.86 L1209.35 475.61 Z" fill="#000000" fill-rule="nonzero" fill-opacity="1" /><path clip-path="url(#clip410)" d="M1334.24 518.162 L1334.24 553.37 L1324.66 553.37 L1324.66 518.474 Q1324.66 510.193 1321.43 506.079 Q1318.2 501.964 1311.74 501.964 Q1303.98 501.964 1299.5 506.912 Q1295.02 511.86 1295.02 520.401 L1295.02 553.37 L1285.39 553.37 L1285.39 472.329 L1295.02 472.329 L1295.02 504.099 Q1298.46 498.839 1303.1 496.235 Q1307.78 493.631 1313.88 493.631 Q1323.93 493.631 1329.09 499.881 Q1334.24 506.079 1334.24 518.162 Z" fill="#000000" fill-rule="nonzero" fill-opacity="1" /><path clip-path="url(#clip410)" d="M1410.28 472.433 Q1403.3 484.412 1399.92 496.131 Q1396.53 507.849 1396.53 519.881 Q1396.53 531.912 1399.92 543.735 Q1403.36 555.505 1410.28 567.432 L1401.95 567.432 Q1394.14 555.193 1390.23 543.37 Q1386.38 531.547 1386.38 519.881 Q1386.38 508.266 1390.23 496.495 Q1394.09 484.725 1401.95 472.433 L1410.28 472.433 Z" fill="#000000" fill-rule="nonzero" fill-opacity="1" /><path clip-path="url(#clip410)" d="M1451.48 501.756 Q1443.77 501.756 1439.29 507.797 Q1434.81 513.787 1434.81 524.256 Q1434.81 534.724 1439.24 540.766 Q1443.72 546.755 1451.48 546.755 Q1459.14 546.755 1463.62 540.714 Q1468.1 534.672 1468.1 524.256 Q1468.1 513.891 1463.62 507.849 Q1459.14 501.756 1451.48 501.756 M1451.48 493.631 Q1463.98 493.631 1471.12 501.756 Q1478.25 509.881 1478.25 524.256 Q1478.25 538.578 1471.12 546.755 Q1463.98 554.88 1451.48 554.88 Q1438.93 554.88 1431.79 546.755 Q1424.71 538.578 1424.71 524.256 Q1424.71 509.881 1431.79 501.756 Q1438.93 493.631 1451.48 493.631 Z" fill="#000000" fill-rule="nonzero" fill-opacity="1" /><path clip-path="url(#clip410)" d="M1493.15 530.349 L1493.15 495.037 L1502.73 495.037 L1502.73 529.985 Q1502.73 538.266 1505.96 542.433 Q1509.19 546.547 1515.65 546.547 Q1523.41 546.547 1527.89 541.599 Q1532.42 536.651 1532.42 528.11 L1532.42 495.037 L1542 495.037 L1542 553.37 L1532.42 553.37 L1532.42 544.412 Q1528.93 549.724 1524.29 552.328 Q1519.71 554.88 1513.62 554.88 Q1503.56 554.88 1498.36 548.63 Q1493.15 542.38 1493.15 530.349 M1517.26 493.631 L1517.26 493.631 Z" fill="#000000" fill-rule="nonzero" fill-opacity="1" /><path clip-path="url(#clip410)" d="M1571.22 478.475 L1571.22 495.037 L1590.96 495.037 L1590.96 502.485 L1571.22 502.485 L1571.22 534.151 Q1571.22 541.287 1573.15 543.318 Q1575.13 545.349 1581.12 545.349 L1590.96 545.349 L1590.96 553.37 L1581.12 553.37 Q1570.02 553.37 1565.8 549.255 Q1561.58 545.089 1561.58 534.151 L1561.58 502.485 L1554.55 502.485 L1554.55 495.037 L1561.58 495.037 L1561.58 478.475 L1571.22 478.475 Z" fill="#000000" fill-rule="nonzero" fill-opacity="1" /><path clip-path="url(#clip410)" d="M1612.83 544.62 L1612.83 575.557 L1603.2 575.557 L1603.2 495.037 L1612.83 495.037 L1612.83 503.891 Q1615.86 498.683 1620.44 496.183 Q1625.07 493.631 1631.48 493.631 Q1642.1 493.631 1648.72 502.068 Q1655.39 510.506 1655.39 524.256 Q1655.39 538.005 1648.72 546.443 Q1642.1 554.88 1631.48 554.88 Q1625.07 554.88 1620.44 552.38 Q1615.86 549.828 1612.83 544.62 M1645.44 524.256 Q1645.44 513.683 1641.06 507.693 Q1636.74 501.652 1629.14 501.652 Q1621.53 501.652 1617.16 507.693 Q1612.83 513.683 1612.83 524.256 Q1612.83 534.828 1617.16 540.87 Q1621.53 546.86 1629.14 546.86 Q1636.74 546.86 1641.06 540.87 Q1645.44 534.828 1645.44 524.256 Z" fill="#000000" fill-rule="nonzero" fill-opacity="1" /><path clip-path="url(#clip410)" d="M1670.28 530.349 L1670.28 495.037 L1679.87 495.037 L1679.87 529.985 Q1679.87 538.266 1683.09 542.433 Q1686.32 546.547 1692.78 546.547 Q1700.54 546.547 1705.02 541.599 Q1709.55 536.651 1709.55 528.11 L1709.55 495.037 L1719.14 495.037 L1719.14 553.37 L1709.55 553.37 L1709.55 544.412 Q1706.06 549.724 1701.43 552.328 Q1696.84 554.88 1690.75 554.88 Q1680.7 554.88 1675.49 548.63 Q1670.28 542.38 1670.28 530.349 M1694.4 493.631 L1694.4 493.631 Z" fill="#000000" fill-rule="nonzero" fill-opacity="1" /><path clip-path="url(#clip410)" d="M1748.35 478.475 L1748.35 495.037 L1768.09 495.037 L1768.09 502.485 L1748.35 502.485 L1748.35 534.151 Q1748.35 541.287 1750.28 543.318 Q1752.26 545.349 1758.25 545.349 L1768.09 545.349 L1768.09 553.37 L1758.25 553.37 Q1747.16 553.37 1742.94 549.255 Q1738.72 545.089 1738.72 534.151 L1738.72 502.485 L1731.69 502.485 L1731.69 495.037 L1738.72 495.037 L1738.72 478.475 L1748.35 478.475 Z" fill="#000000" fill-rule="nonzero" fill-opacity="1" /><path clip-path="url(#clip410)" d="M1837.21 501.756 Q1829.5 501.756 1825.02 507.797 Q1820.54 513.787 1820.54 524.256 Q1820.54 534.724 1824.97 540.766 Q1829.45 546.755 1837.21 546.755 Q1844.86 546.755 1849.34 540.714 Q1853.82 534.672 1853.82 524.256 Q1853.82 513.891 1849.34 507.849 Q1844.86 501.756 1837.21 501.756 M1837.21 493.631 Q1849.71 493.631 1856.84 501.756 Q1863.98 509.881 1863.98 524.256 Q1863.98 538.578 1856.84 546.755 Q1849.71 554.88 1837.21 554.88 Q1824.66 554.88 1817.52 546.755 Q1810.44 538.578 1810.44 524.256 Q1810.44 509.881 1817.52 501.756 Q1824.66 493.631 1837.21 493.631 Z" fill="#000000" fill-rule="nonzero" fill-opacity="1" /><path clip-path="url(#clip410)" d="M1909.4 472.329 L1909.4 480.297 L1900.23 480.297 Q1895.07 480.297 1893.04 482.381 Q1891.06 484.464 1891.06 489.881 L1891.06 495.037 L1906.84 495.037 L1906.84 502.485 L1891.06 502.485 L1891.06 553.37 L1881.43 553.37 L1881.43 502.485 L1872.26 502.485 L1872.26 495.037 L1881.43 495.037 L1881.43 490.974 Q1881.43 481.235 1885.96 476.808 Q1890.49 472.329 1900.33 472.329 L1909.4 472.329 Z" fill="#000000" fill-rule="nonzero" fill-opacity="1" /><path clip-path="url(#clip410)" d="M1951.74 475.61 L1996.43 475.61 L1996.43 484.464 L1962.26 484.464 L1962.26 507.381 L1993.09 507.381 L1993.09 516.235 L1962.26 516.235 L1962.26 553.37 L1951.74 553.37 L1951.74 475.61 Z" fill="#000000" fill-rule="nonzero" fill-opacity="1" /><path clip-path="url(#clip410)" d="M2013.09 475.61 L2023.61 475.61 L2023.61 553.37 L2013.09 553.37 L2013.09 475.61 Z" fill="#000000" fill-rule="nonzero" fill-opacity="1" /><path clip-path="url(#clip410)" d="M2091.17 478.162 L2091.17 488.422 Q2085.18 485.558 2079.86 484.152 Q2074.55 482.745 2069.6 482.745 Q2061.01 482.745 2056.32 486.079 Q2051.69 489.412 2051.69 495.558 Q2051.69 500.714 2054.76 503.37 Q2057.88 505.974 2066.53 507.589 L2072.88 508.891 Q2084.65 511.131 2090.23 516.808 Q2095.85 522.433 2095.85 531.912 Q2095.85 543.214 2088.25 549.047 Q2080.7 554.88 2066.06 554.88 Q2060.54 554.88 2054.29 553.63 Q2048.09 552.38 2041.43 549.933 L2041.43 539.099 Q2047.83 542.693 2053.98 544.516 Q2060.12 546.339 2066.06 546.339 Q2075.07 546.339 2079.97 542.797 Q2084.86 539.255 2084.86 532.693 Q2084.86 526.964 2081.32 523.735 Q2077.83 520.506 2069.81 518.891 L2063.4 517.641 Q2051.63 515.297 2046.37 510.297 Q2041.11 505.297 2041.11 496.391 Q2041.11 486.079 2048.35 480.141 Q2055.64 474.204 2068.4 474.204 Q2073.87 474.204 2079.55 475.193 Q2085.23 476.183 2091.17 478.162 Z" fill="#000000" fill-rule="nonzero" fill-opacity="1" /><path clip-path="url(#clip410)" d="M2101.48 475.61 L2167.26 475.61 L2167.26 484.464 L2139.65 484.464 L2139.65 553.37 L2129.08 553.37 L2129.08 484.464 L2101.48 484.464 L2101.48 475.61 Z" fill="#000000" fill-rule="nonzero" fill-opacity="1" /><path clip-path="url(#clip410)" d="M2195.12 485.975 L2180.85 524.672 L2209.45 524.672 L2195.12 485.975 M2189.19 475.61 L2201.11 475.61 L2230.75 553.37 L2219.81 553.37 L2212.73 533.422 L2177.68 533.422 L2170.59 553.37 L2159.5 553.37 L2189.19 475.61 Z" fill="#000000" fill-rule="nonzero" fill-opacity="1" /><path clip-path="url(#clip410)" d="M2240.17 472.433 L2248.51 472.433 Q2256.32 484.725 2260.17 496.495 Q2264.08 508.266 2264.08 519.881 Q2264.08 531.547 2260.17 543.37 Q2256.32 555.193 2248.51 567.432 L2240.17 567.432 Q2247.1 555.505 2250.49 543.735 Q2253.92 531.912 2253.92 519.881 Q2253.92 507.849 2250.49 496.131 Q2247.1 484.412 2240.17 472.433 Z" fill="#000000" fill-rule="nonzero" fill-opacity="1" /></svg>
