<?xml version="1.0" encoding="utf-8"?>
<svg xmlns="http://www.w3.org/2000/svg" xmlns:xlink="http://www.w3.org/1999/xlink" width="600" height="350" viewBox="0 0 2400 1400">
<defs>
  <clipPath id="clip470">
    <rect x="0" y="0" width="2400" height="1400"/>
  </clipPath>
</defs>
<path clip-path="url(#clip470)" d="M0 1400 L2400 1400 L2400 0 L0 0  Z" fill="#ffffff" fill-rule="evenodd" fill-opacity="1"/>
<defs>
  <clipPath id="clip471">
    <rect x="357" y="131" width="1996" height="1007"/>
  </clipPath>
</defs>
<path clip-path="url(#clip470)" d="M357.566 1137.17 L2352.76 1137.17 L2352.76 131.032 L357.566 131.032  Z" fill="#ffffff" fill-rule="evenodd" fill-opacity="1"/>
<polyline clip-path="url(#clip471)" style="stroke:#000000; stroke-linecap:round; stroke-linejoin:round; stroke-width:2; stroke-opacity:0.1; fill:none" points="414.034,1137.17 414.034,131.032 "/>
<polyline clip-path="url(#clip471)" style="stroke:#000000; stroke-linecap:round; stroke-linejoin:round; stroke-width:2; stroke-opacity:0.1; fill:none" points="2296.29,1137.17 2296.29,131.032 "/>
<polyline clip-path="url(#clip471)" style="stroke:#000000; stroke-linecap:round; stroke-linejoin:round; stroke-width:2; stroke-opacity:0.1; fill:none" points="2296.29,1137.17 2296.29,131.032 "/>
<polyline clip-path="url(#clip471)" style="stroke:#000000; stroke-linecap:round; stroke-linejoin:round; stroke-width:2; stroke-opacity:0.1; fill:none" points="357.566,1108.69 2352.76,1108.69 "/>
<polyline clip-path="url(#clip471)" style="stroke:#000000; stroke-linecap:round; stroke-linejoin:round; stroke-width:2; stroke-opacity:0.1; fill:none" points="357.566,850.261 2352.76,850.261 "/>
<polyline clip-path="url(#clip471)" style="stroke:#000000; stroke-linecap:round; stroke-linejoin:round; stroke-width:2; stroke-opacity:0.1; fill:none" points="357.566,591.83 2352.76,591.83 "/>
<polyline clip-path="url(#clip471)" style="stroke:#000000; stroke-linecap:round; stroke-linejoin:round; stroke-width:2; stroke-opacity:0.1; fill:none" points="357.566,333.398 2352.76,333.398 "/>
<polyline clip-path="url(#clip470)" style="stroke:#000000; stroke-linecap:round; stroke-linejoin:round; stroke-width:4; stroke-opacity:1; fill:none" points="357.566,1137.17 2352.76,1137.17 "/>
<polyline clip-path="url(#clip470)" style="stroke:#000000; stroke-linecap:round; stroke-linejoin:round; stroke-width:4; stroke-opacity:1; fill:none" points="414.034,1137.17 414.034,1118.27 "/>
<polyline clip-path="url(#clip470)" style="stroke:#000000; stroke-linecap:round; stroke-linejoin:round; stroke-width:4; stroke-opacity:1; fill:none" points="2296.29,1137.17 2296.29,1118.27 "/>
<polyline clip-path="url(#clip470)" style="stroke:#000000; stroke-linecap:round; stroke-linejoin:round; stroke-width:4; stroke-opacity:1; fill:none" points="2296.29,1137.17 2296.29,1118.27 "/>
<path clip-path="url(#clip470)" d="M402.011 1205.45 L411.56 1205.45 L411.56 1172.49 L401.172 1174.58 L401.172 1169.25 L411.502 1167.17 L417.347 1167.17 L417.347 1205.45 L426.895 1205.45 L426.895 1210.37 L402.011 1210.37 L402.011 1205.45 Z" fill="#000000" fill-rule="nonzero" fill-opacity="1" /><path clip-path="url(#clip470)" d="M2264.36 1167.17 L2287.3 1167.17 L2287.3 1172.09 L2269.71 1172.09 L2269.71 1182.68 Q2270.98 1182.24 2272.26 1182.04 Q2273.53 1181.81 2274.8 1181.81 Q2282.04 1181.81 2286.26 1185.77 Q2290.49 1189.74 2290.49 1196.51 Q2290.49 1203.48 2286.15 1207.36 Q2281.81 1211.21 2273.91 1211.21 Q2271.19 1211.21 2268.35 1210.74 Q2265.54 1210.28 2262.54 1209.36 L2262.54 1203.48 Q2265.14 1204.9 2267.92 1205.59 Q2270.7 1206.29 2273.79 1206.29 Q2278.8 1206.29 2281.72 1203.65 Q2284.64 1201.02 2284.64 1196.51 Q2284.64 1191.99 2281.72 1189.36 Q2278.8 1186.73 2273.79 1186.73 Q2271.45 1186.73 2269.1 1187.25 Q2266.79 1187.77 2264.36 1188.87 L2264.36 1167.17 Z" fill="#000000" fill-rule="nonzero" fill-opacity="1" /><path clip-path="url(#clip470)" d="M2318.06 1172.26 L2303.31 1195.32 L2318.06 1195.32 L2318.06 1172.26 M2316.53 1167.17 L2323.88 1167.17 L2323.88 1195.32 L2330.04 1195.32 L2330.04 1200.18 L2323.88 1200.18 L2323.88 1210.37 L2318.06 1210.37 L2318.06 1200.18 L2298.56 1200.18 L2298.56 1194.54 L2316.53 1167.17 Z" fill="#000000" fill-rule="nonzero" fill-opacity="1" /><path clip-path="url(#clip470)" d="M2264.36 1167.17 L2287.3 1167.17 L2287.3 1172.09 L2269.71 1172.09 L2269.71 1182.68 Q2270.98 1182.24 2272.26 1182.04 Q2273.53 1181.81 2274.8 1181.81 Q2282.04 1181.81 2286.26 1185.77 Q2290.49 1189.74 2290.49 1196.51 Q2290.49 1203.48 2286.15 1207.36 Q2281.81 1211.21 2273.91 1211.21 Q2271.19 1211.21 2268.35 1210.74 Q2265.54 1210.28 2262.54 1209.36 L2262.54 1203.48 Q2265.14 1204.9 2267.92 1205.59 Q2270.7 1206.29 2273.79 1206.29 Q2278.8 1206.29 2281.72 1203.65 Q2284.64 1201.02 2284.64 1196.51 Q2284.64 1191.99 2281.72 1189.36 Q2278.8 1186.73 2273.79 1186.73 Q2271.45 1186.73 2269.1 1187.25 Q2266.79 1187.77 2264.36 1188.87 L2264.36 1167.17 Z" fill="#000000" fill-rule="nonzero" fill-opacity="1" /><path clip-path="url(#clip470)" d="M2318.06 1172.26 L2303.31 1195.32 L2318.06 1195.32 L2318.06 1172.26 M2316.53 1167.17 L2323.88 1167.17 L2323.88 1195.32 L2330.04 1195.32 L2330.04 1200.18 L2323.88 1200.18 L2323.88 1210.37 L2318.06 1210.37 L2318.06 1200.18 L2298.56 1200.18 L2298.56 1194.54 L2316.53 1167.17 Z" fill="#000000" fill-rule="nonzero" fill-opacity="1" /><path clip-path="url(#clip470)" d="M1376.17 1280.21 Q1376.17 1283.22 1374.33 1285.01 Q1372.53 1286.8 1370.27 1286.8 Q1368.26 1286.8 1367.21 1285.64 Q1366.16 1284.48 1366.16 1283.01 Q1366.16 1282.37 1366.42 1281.58 Q1366.68 1280.74 1367.26 1279.74 Q1367.9 1278.74 1369.21 1278 Q1370.53 1277.26 1372.32 1277.16 Q1371.95 1276.79 1371.85 1276.73 Q1371.06 1276.1 1369.58 1275.89 Q1369.37 1275.79 1368.63 1275.79 Q1365 1275.79 1361.31 1278.47 Q1357.67 1281.11 1353.19 1286.12 Q1347.55 1291.96 1343.92 1294.13 Q1359.89 1296.23 1359.89 1305.46 Q1359.89 1306.98 1359.46 1308.83 Q1358.62 1312.31 1358.62 1314.84 Q1358.62 1319.9 1362.05 1319.9 Q1365.37 1319.9 1367.47 1316.52 Q1369.63 1313.15 1371.43 1306.56 Q1371.69 1305.35 1371.95 1304.98 Q1372.22 1304.61 1372.95 1304.61 Q1374.27 1304.61 1374.27 1305.67 Q1373.06 1311.83 1370.37 1316.58 Q1366.95 1322.32 1361.84 1322.32 Q1357.57 1322.32 1354.72 1319.37 Q1351.93 1316.37 1351.93 1311.62 Q1351.93 1310.46 1352.35 1307.83 Q1352.67 1306.77 1352.67 1305.56 Q1352.67 1303.08 1351.29 1301.24 Q1349.92 1299.34 1347.71 1298.39 Q1345.5 1297.45 1343.65 1297.02 Q1341.86 1296.55 1340.12 1296.39 Q1334.85 1318.68 1334.11 1320.05 Q1333.64 1321 1332.59 1321.64 Q1331.53 1322.32 1330.43 1322.32 Q1329.37 1322.32 1328.32 1321.58 Q1327.32 1320.9 1327.32 1319.26 Q1327.32 1318.42 1327.74 1316.89 L1343.39 1254.71 L1343.71 1252.6 Q1343.71 1251.97 1343.44 1251.65 Q1343.23 1251.28 1341.97 1251.02 Q1340.75 1250.75 1338.33 1250.75 Q1337.33 1250.75 1336.85 1250.7 Q1336.43 1250.65 1336.06 1250.38 Q1335.7 1250.07 1335.7 1249.44 Q1335.7 1248.54 1336.06 1248.07 Q1336.49 1247.54 1336.8 1247.43 Q1337.12 1247.33 1337.75 1247.27 Q1338.65 1247.22 1341.65 1246.96 Q1344.65 1246.64 1347.24 1246.43 Q1349.82 1246.22 1350.93 1246.22 Q1351.56 1246.22 1351.87 1246.54 Q1352.24 1246.8 1352.3 1247.12 L1352.35 1247.38 L1341.12 1292.91 Q1345.76 1291.07 1353.09 1282.9 Q1361.57 1273.41 1368.84 1273.41 Q1372.27 1273.41 1374.22 1275.52 Q1376.17 1277.58 1376.17 1280.21 Z" fill="#000000" fill-rule="nonzero" fill-opacity="1" /><polyline clip-path="url(#clip470)" style="stroke:#000000; stroke-linecap:round; stroke-linejoin:round; stroke-width:4; stroke-opacity:1; fill:none" points="357.566,1137.17 357.566,131.032 "/>
<polyline clip-path="url(#clip470)" style="stroke:#000000; stroke-linecap:round; stroke-linejoin:round; stroke-width:4; stroke-opacity:1; fill:none" points="357.566,1108.69 376.464,1108.69 "/>
<polyline clip-path="url(#clip470)" style="stroke:#000000; stroke-linecap:round; stroke-linejoin:round; stroke-width:4; stroke-opacity:1; fill:none" points="357.566,850.261 376.464,850.261 "/>
<polyline clip-path="url(#clip470)" style="stroke:#000000; stroke-linecap:round; stroke-linejoin:round; stroke-width:4; stroke-opacity:1; fill:none" points="357.566,591.83 376.464,591.83 "/>
<polyline clip-path="url(#clip470)" style="stroke:#000000; stroke-linecap:round; stroke-linejoin:round; stroke-width:4; stroke-opacity:1; fill:none" points="357.566,333.398 376.464,333.398 "/>
<path clip-path="url(#clip470)" d="M306.636 1090.94 Q302.122 1090.94 299.836 1095.4 Q297.579 1099.82 297.579 1108.74 Q297.579 1117.62 299.836 1122.07 Q302.122 1126.5 306.636 1126.5 Q311.178 1126.5 313.435 1122.07 Q315.721 1117.62 315.721 1108.74 Q315.721 1099.82 313.435 1095.4 Q311.178 1090.94 306.636 1090.94 M306.636 1086.31 Q313.898 1086.31 317.718 1092.07 Q321.566 1097.8 321.566 1108.74 Q321.566 1119.64 317.718 1125.4 Q313.898 1131.13 306.636 1131.13 Q299.373 1131.13 295.525 1125.4 Q291.705 1119.64 291.705 1108.74 Q291.705 1097.8 295.525 1092.07 Q299.373 1086.31 306.636 1086.31 Z" fill="#000000" fill-rule="nonzero" fill-opacity="1" /><path clip-path="url(#clip470)" d="M182.041 866.942 L191.59 866.942 L191.59 833.985 L181.202 836.068 L181.202 830.744 L191.532 828.661 L197.377 828.661 L197.377 866.942 L206.925 866.942 L206.925 871.861 L182.041 871.861 L182.041 866.942 Z" fill="#000000" fill-rule="nonzero" fill-opacity="1" /><path clip-path="url(#clip470)" d="M231.231 832.509 Q226.717 832.509 224.431 836.965 Q222.174 841.392 222.174 850.304 Q222.174 859.187 224.431 863.643 Q226.717 868.071 231.231 868.071 Q235.774 868.071 238.031 863.643 Q240.317 859.187 240.317 850.304 Q240.317 841.392 238.031 836.965 Q235.774 832.509 231.231 832.509 M231.231 827.88 Q238.494 827.88 242.313 833.638 Q246.161 839.367 246.161 850.304 Q246.161 861.213 242.313 866.971 Q238.494 872.7 231.231 872.7 Q223.968 872.7 220.12 866.971 Q216.3 861.213 216.3 850.304 Q216.3 839.367 220.12 833.638 Q223.968 827.88 231.231 827.88 Z" fill="#000000" fill-rule="nonzero" fill-opacity="1" /><path clip-path="url(#clip470)" d="M268.933 832.509 Q264.419 832.509 262.134 836.965 Q259.877 841.392 259.877 850.304 Q259.877 859.187 262.134 863.643 Q264.419 868.071 268.933 868.071 Q273.476 868.071 275.733 863.643 Q278.019 859.187 278.019 850.304 Q278.019 841.392 275.733 836.965 Q273.476 832.509 268.933 832.509 M268.933 827.88 Q276.196 827.88 280.015 833.638 Q283.864 839.367 283.864 850.304 Q283.864 861.213 280.015 866.971 Q276.196 872.7 268.933 872.7 Q261.671 872.7 257.822 866.971 Q254.003 861.213 254.003 850.304 Q254.003 839.367 257.822 833.638 Q261.671 827.88 268.933 827.88 Z" fill="#000000" fill-rule="nonzero" fill-opacity="1" /><path clip-path="url(#clip470)" d="M306.636 832.509 Q302.122 832.509 299.836 836.965 Q297.579 841.392 297.579 850.304 Q297.579 859.187 299.836 863.643 Q302.122 868.071 306.636 868.071 Q311.178 868.071 313.435 863.643 Q315.721 859.187 315.721 850.304 Q315.721 841.392 313.435 836.965 Q311.178 832.509 306.636 832.509 M306.636 827.88 Q313.898 827.88 317.718 833.638 Q321.566 839.367 321.566 850.304 Q321.566 861.213 317.718 866.971 Q313.898 872.7 306.636 872.7 Q299.373 872.7 295.525 866.971 Q291.705 861.213 291.705 850.304 Q291.705 839.367 295.525 833.638 Q299.373 827.88 306.636 827.88 Z" fill="#000000" fill-rule="nonzero" fill-opacity="1" /><path clip-path="url(#clip470)" d="M186.063 608.511 L206.463 608.511 L206.463 613.43 L179.032 613.43 L179.032 608.511 Q182.36 605.067 188.089 599.28 Q193.847 593.465 195.323 591.786 Q198.129 588.632 199.229 586.462 Q200.357 584.263 200.357 582.151 Q200.357 578.708 197.927 576.538 Q195.525 574.367 191.648 574.367 Q188.899 574.367 185.832 575.322 Q182.794 576.277 179.321 578.216 L179.321 572.313 Q182.852 570.895 185.919 570.172 Q188.986 569.448 191.532 569.448 Q198.245 569.448 202.238 572.805 Q206.231 576.161 206.231 581.775 Q206.231 584.437 205.218 586.838 Q204.235 589.211 201.601 592.452 Q200.878 593.291 197.001 597.313 Q193.123 601.306 186.063 608.511 Z" fill="#000000" fill-rule="nonzero" fill-opacity="1" /><path clip-path="url(#clip470)" d="M231.231 574.078 Q226.717 574.078 224.431 578.534 Q222.174 582.961 222.174 591.873 Q222.174 600.756 224.431 605.212 Q226.717 609.639 231.231 609.639 Q235.774 609.639 238.031 605.212 Q240.317 600.756 240.317 591.873 Q240.317 582.961 238.031 578.534 Q235.774 574.078 231.231 574.078 M231.231 569.448 Q238.494 569.448 242.313 575.207 Q246.161 580.936 246.161 591.873 Q246.161 602.782 242.313 608.54 Q238.494 614.269 231.231 614.269 Q223.968 614.269 220.12 608.54 Q216.3 602.782 216.3 591.873 Q216.3 580.936 220.12 575.207 Q223.968 569.448 231.231 569.448 Z" fill="#000000" fill-rule="nonzero" fill-opacity="1" /><path clip-path="url(#clip470)" d="M268.933 574.078 Q264.419 574.078 262.134 578.534 Q259.877 582.961 259.877 591.873 Q259.877 600.756 262.134 605.212 Q264.419 609.639 268.933 609.639 Q273.476 609.639 275.733 605.212 Q278.019 600.756 278.019 591.873 Q278.019 582.961 275.733 578.534 Q273.476 574.078 268.933 574.078 M268.933 569.448 Q276.196 569.448 280.015 575.207 Q283.864 580.936 283.864 591.873 Q283.864 602.782 280.015 608.54 Q276.196 614.269 268.933 614.269 Q261.671 614.269 257.822 608.54 Q254.003 602.782 254.003 591.873 Q254.003 580.936 257.822 575.207 Q261.671 569.448 268.933 569.448 Z" fill="#000000" fill-rule="nonzero" fill-opacity="1" /><path clip-path="url(#clip470)" d="M306.636 574.078 Q302.122 574.078 299.836 578.534 Q297.579 582.961 297.579 591.873 Q297.579 600.756 299.836 605.212 Q302.122 609.639 306.636 609.639 Q311.178 609.639 313.435 605.212 Q315.721 600.756 315.721 591.873 Q315.721 582.961 313.435 578.534 Q311.178 574.078 306.636 574.078 M306.636 569.448 Q313.898 569.448 317.718 575.207 Q321.566 580.936 321.566 591.873 Q321.566 602.782 317.718 608.54 Q313.898 614.269 306.636 614.269 Q299.373 614.269 295.525 608.54 Q291.705 602.782 291.705 591.873 Q291.705 580.936 295.525 575.207 Q299.373 569.448 306.636 569.448 Z" fill="#000000" fill-rule="nonzero" fill-opacity="1" /><path clip-path="url(#clip470)" d="M198.737 331.706 Q202.932 332.603 205.276 335.438 Q207.649 338.274 207.649 342.441 Q207.649 348.835 203.251 352.336 Q198.853 355.837 190.751 355.837 Q188.031 355.837 185.137 355.288 Q182.273 354.767 179.206 353.696 L179.206 348.054 Q181.636 349.472 184.53 350.195 Q187.423 350.919 190.577 350.919 Q196.075 350.919 198.939 348.748 Q201.833 346.578 201.833 342.441 Q201.833 338.621 199.142 336.48 Q196.48 334.31 191.706 334.31 L186.671 334.31 L186.671 329.507 L191.937 329.507 Q196.248 329.507 198.534 327.799 Q200.82 326.063 200.82 322.823 Q200.82 319.495 198.448 317.73 Q196.104 315.936 191.706 315.936 Q189.304 315.936 186.555 316.457 Q183.806 316.978 180.508 318.077 L180.508 312.869 Q183.835 311.943 186.729 311.48 Q189.651 311.017 192.226 311.017 Q198.882 311.017 202.759 314.055 Q206.636 317.065 206.636 322.215 Q206.636 325.803 204.582 328.291 Q202.527 330.751 198.737 331.706 Z" fill="#000000" fill-rule="nonzero" fill-opacity="1" /><path clip-path="url(#clip470)" d="M231.231 315.647 Q226.717 315.647 224.431 320.103 Q222.174 324.53 222.174 333.442 Q222.174 342.325 224.431 346.781 Q226.717 351.208 231.231 351.208 Q235.774 351.208 238.031 346.781 Q240.317 342.325 240.317 333.442 Q240.317 324.53 238.031 320.103 Q235.774 315.647 231.231 315.647 M231.231 311.017 Q238.494 311.017 242.313 316.775 Q246.161 322.504 246.161 333.442 Q246.161 344.35 242.313 350.108 Q238.494 355.837 231.231 355.837 Q223.968 355.837 220.12 350.108 Q216.3 344.35 216.3 333.442 Q216.3 322.504 220.12 316.775 Q223.968 311.017 231.231 311.017 Z" fill="#000000" fill-rule="nonzero" fill-opacity="1" /><path clip-path="url(#clip470)" d="M268.933 315.647 Q264.419 315.647 262.134 320.103 Q259.877 324.53 259.877 333.442 Q259.877 342.325 262.134 346.781 Q264.419 351.208 268.933 351.208 Q273.476 351.208 275.733 346.781 Q278.019 342.325 278.019 333.442 Q278.019 324.53 275.733 320.103 Q273.476 315.647 268.933 315.647 M268.933 311.017 Q276.196 311.017 280.015 316.775 Q283.864 322.504 283.864 333.442 Q283.864 344.35 280.015 350.108 Q276.196 355.837 268.933 355.837 Q261.671 355.837 257.822 350.108 Q254.003 344.35 254.003 333.442 Q254.003 322.504 257.822 316.775 Q261.671 311.017 268.933 311.017 Z" fill="#000000" fill-rule="nonzero" fill-opacity="1" /><path clip-path="url(#clip470)" d="M306.636 315.647 Q302.122 315.647 299.836 320.103 Q297.579 324.53 297.579 333.442 Q297.579 342.325 299.836 346.781 Q302.122 351.208 306.636 351.208 Q311.178 351.208 313.435 346.781 Q315.721 342.325 315.721 333.442 Q315.721 324.53 313.435 320.103 Q311.178 315.647 306.636 315.647 M306.636 311.017 Q313.898 311.017 317.718 316.775 Q321.566 322.504 321.566 333.442 Q321.566 344.35 317.718 350.108 Q313.898 355.837 306.636 355.837 Q299.373 355.837 295.525 350.108 Q291.705 344.35 291.705 333.442 Q291.705 322.504 295.525 316.775 Q299.373 311.017 306.636 311.017 Z" fill="#000000" fill-rule="nonzero" fill-opacity="1" /><path clip-path="url(#clip470)" d="M74.8692 607.532 Q78.5583 607.532 78.5583 612.802 L78.5583 624.66 Q83.3013 621.34 90.3105 621.34 Q96.3183 621.34 101.957 623.816 Q107.544 626.241 111.443 630.14 Q115.343 633.988 117.715 638.836 Q120.034 643.685 120.034 648.428 Q120.034 655.648 115.132 660.127 Q110.231 664.607 102.959 664.607 Q99.1115 664.607 94.8427 663.289 Q90.574 661.919 86.6214 659.337 Q82.6162 656.754 79.4015 653.381 Q76.1867 649.956 74.2368 645.529 Q72.2869 641.049 72.2869 636.359 L72.2869 611.748 Q72.2869 610.431 72.3923 609.745 Q72.445 609.008 73.0774 608.27 Q73.6571 607.532 74.8692 607.532 M89.0457 628.243 Q87.7808 628.243 86.6741 628.401 Q85.5147 628.559 83.9864 629.139 Q82.4054 629.719 81.2987 630.72 Q80.1393 631.722 79.3488 633.671 Q78.5583 635.569 78.5583 638.151 Q78.5583 641.787 80.5609 645.793 Q82.5635 649.798 87.5173 652.854 Q91.7334 655.384 97.2142 656.649 Q102.695 657.914 105.963 657.914 Q111.549 657.914 114.605 655.226 Q117.609 652.486 117.609 648.322 Q117.609 644.897 115.291 640.997 Q112.919 637.097 108.439 634.093 Q104.54 631.458 98.8479 629.877 Q93.1563 628.243 89.0457 628.243 Z" fill="#000000" fill-rule="nonzero" fill-opacity="1" /><path clip-path="url(#clip470)" d="M998.21 36.6977 L998.21 45.7602 Q994.147 43.6768 989.772 42.6352 Q985.397 41.5935 980.71 41.5935 Q973.574 41.5935 969.981 43.781 Q966.439 45.9685 966.439 50.3435 Q966.439 53.6768 968.991 55.6039 Q971.543 57.4789 979.252 59.1976 L982.533 59.9268 Q992.741 62.1143 997.012 66.1246 Q1001.33 70.083 1001.33 77.2183 Q1001.33 85.3433 994.876 90.0829 Q988.47 94.8224 977.22 94.8224 Q972.533 94.8224 967.429 93.8849 Q962.377 92.9995 956.752 91.1766 L956.752 81.2808 Q962.064 84.0412 967.22 85.4475 Q972.377 86.8016 977.429 86.8016 Q984.199 86.8016 987.845 84.51 Q991.491 82.1662 991.491 77.9475 Q991.491 74.0413 988.835 71.9579 Q986.231 69.8746 977.324 67.9476 L973.991 67.1663 Q965.085 65.2913 961.127 61.4372 Q957.168 57.5309 957.168 50.7601 Q957.168 42.531 963.002 38.0519 Q968.835 33.5727 979.564 33.5727 Q984.877 33.5727 989.564 34.354 Q994.251 35.1352 998.21 36.6977 Z" fill="#000000" fill-rule="nonzero" fill-opacity="1" /><path clip-path="url(#clip470)" d="M1016.6 34.979 L1026.18 34.979 L1026.18 93.312 L1016.6 93.312 L1016.6 34.979 M1016.6 12.2708 L1026.18 12.2708 L1026.18 24.4061 L1016.6 24.4061 L1016.6 12.2708 Z" fill="#000000" fill-rule="nonzero" fill-opacity="1" /><path clip-path="url(#clip470)" d="M1094.72 58.1039 L1094.72 93.312 L1085.14 93.312 L1085.14 58.4164 Q1085.14 50.1351 1081.91 46.0206 Q1078.68 41.906 1072.22 41.906 Q1064.46 41.906 1059.98 46.8539 Q1055.5 51.8018 1055.5 60.3434 L1055.5 93.312 L1045.87 93.312 L1045.87 34.979 L1055.5 34.979 L1055.5 44.0414 Q1058.94 38.781 1063.57 36.1769 Q1068.26 33.5727 1074.36 33.5727 Q1084.41 33.5727 1089.56 39.8227 Q1094.72 46.0206 1094.72 58.1039 Z" fill="#000000" fill-rule="nonzero" fill-opacity="1" /><path clip-path="url(#clip470)" d="M1152.22 63.4684 Q1152.22 53.0518 1147.9 47.3227 Q1143.63 41.5935 1135.87 41.5935 Q1128.16 41.5935 1123.83 47.3227 Q1119.56 53.0518 1119.56 63.4684 Q1119.56 73.8329 1123.83 79.5621 Q1128.16 85.2912 1135.87 85.2912 Q1143.63 85.2912 1147.9 79.5621 Q1152.22 73.8329 1152.22 63.4684 M1161.8 86.0725 Q1161.8 100.968 1155.19 108.208 Q1148.57 115.499 1134.93 115.499 Q1129.88 115.499 1125.4 114.718 Q1120.92 113.989 1116.7 112.426 L1116.7 103.104 Q1120.92 105.395 1125.03 106.489 Q1129.15 107.583 1133.42 107.583 Q1142.84 107.583 1147.53 102.635 Q1152.22 97.7391 1152.22 87.7912 L1152.22 83.0516 Q1149.25 88.2079 1144.62 90.7599 Q1139.98 93.312 1133.52 93.312 Q1122.79 93.312 1116.23 85.135 Q1109.67 76.9579 1109.67 63.4684 Q1109.67 49.9268 1116.23 41.7498 Q1122.79 33.5727 1133.52 33.5727 Q1139.98 33.5727 1144.62 36.1248 Q1149.25 38.6769 1152.22 43.8331 L1152.22 34.979 L1161.8 34.979 L1161.8 86.0725 Z" fill="#000000" fill-rule="nonzero" fill-opacity="1" /><path clip-path="url(#clip470)" d="M1180.55 70.2913 L1180.55 34.979 L1190.14 34.979 L1190.14 69.9267 Q1190.14 78.2079 1193.36 82.3746 Q1196.59 86.4891 1203.05 86.4891 Q1210.81 86.4891 1215.29 81.5412 Q1219.82 76.5933 1219.82 68.0517 L1219.82 34.979 L1229.41 34.979 L1229.41 93.312 L1219.82 93.312 L1219.82 84.3537 Q1216.33 89.6662 1211.7 92.2703 Q1207.11 94.8224 1201.02 94.8224 Q1190.97 94.8224 1185.76 88.5724 Q1180.55 82.3225 1180.55 70.2913 M1204.67 33.5727 L1204.67 33.5727 Z" fill="#000000" fill-rule="nonzero" fill-opacity="1" /><path clip-path="url(#clip470)" d="M1249.15 12.2708 L1258.73 12.2708 L1258.73 93.312 L1249.15 93.312 L1249.15 12.2708 Z" fill="#000000" fill-rule="nonzero" fill-opacity="1" /><path clip-path="url(#clip470)" d="M1305.29 63.9892 Q1293.68 63.9892 1289.2 66.6455 Q1284.72 69.3017 1284.72 75.7079 Q1284.72 80.8121 1288.05 83.8329 Q1291.44 86.8016 1297.22 86.8016 Q1305.19 86.8016 1309.98 81.1766 Q1314.82 75.4996 1314.82 66.1246 L1314.82 63.9892 L1305.29 63.9892 M1324.41 60.0309 L1324.41 93.312 L1314.82 93.312 L1314.82 84.4579 Q1311.54 89.7704 1306.65 92.3224 Q1301.75 94.8224 1294.67 94.8224 Q1285.71 94.8224 1280.4 89.8224 Q1275.14 84.7704 1275.14 76.3329 Q1275.14 66.4892 1281.7 61.4893 Q1288.31 56.4893 1301.39 56.4893 L1314.82 56.4893 L1314.82 55.5518 Q1314.82 48.9372 1310.45 45.3435 Q1306.12 41.6977 1298.26 41.6977 Q1293.26 41.6977 1288.52 42.8956 Q1283.78 44.0935 1279.41 46.4893 L1279.41 37.6352 Q1284.67 35.604 1289.61 34.6144 Q1294.56 33.5727 1299.25 33.5727 Q1311.91 33.5727 1318.16 40.1352 Q1324.41 46.6977 1324.41 60.0309 Z" fill="#000000" fill-rule="nonzero" fill-opacity="1" /><path clip-path="url(#clip470)" d="M1377.95 43.9373 Q1376.33 42.9998 1374.41 42.5831 Q1372.53 42.1144 1370.24 42.1144 Q1362.11 42.1144 1357.74 47.4268 Q1353.42 52.6872 1353.42 62.583 L1353.42 93.312 L1343.78 93.312 L1343.78 34.979 L1353.42 34.979 L1353.42 44.0414 Q1356.44 38.729 1361.28 36.1769 Q1366.12 33.5727 1373.05 33.5727 Q1374.04 33.5727 1375.24 33.729 Q1376.44 33.8332 1377.9 34.0936 L1377.95 43.9373 Z" fill="#000000" fill-rule="nonzero" fill-opacity="1" /><path clip-path="url(#clip470)" d="M1415.03 34.979 L1425.19 34.979 L1443.42 83.9371 L1461.64 34.979 L1471.8 34.979 L1449.93 93.312 L1436.91 93.312 L1415.03 34.979 Z" fill="#000000" fill-rule="nonzero" fill-opacity="1" /><path clip-path="url(#clip470)" d="M1511.54 63.9892 Q1499.93 63.9892 1495.45 66.6455 Q1490.97 69.3017 1490.97 75.7079 Q1490.97 80.8121 1494.3 83.8329 Q1497.69 86.8016 1503.47 86.8016 Q1511.44 86.8016 1516.23 81.1766 Q1521.07 75.4996 1521.07 66.1246 L1521.07 63.9892 L1511.54 63.9892 M1530.65 60.0309 L1530.65 93.312 L1521.07 93.312 L1521.07 84.4579 Q1517.79 89.7704 1512.89 92.3224 Q1508 94.8224 1500.92 94.8224 Q1491.96 94.8224 1486.64 89.8224 Q1481.38 84.7704 1481.38 76.3329 Q1481.38 66.4892 1487.95 61.4893 Q1494.56 56.4893 1507.63 56.4893 L1521.07 56.4893 L1521.07 55.5518 Q1521.07 48.9372 1516.7 45.3435 Q1512.37 41.6977 1504.51 41.6977 Q1499.51 41.6977 1494.77 42.8956 Q1490.03 44.0935 1485.66 46.4893 L1485.66 37.6352 Q1490.92 35.604 1495.86 34.6144 Q1500.81 33.5727 1505.5 33.5727 Q1518.15 33.5727 1524.4 40.1352 Q1530.65 46.6977 1530.65 60.0309 Z" fill="#000000" fill-rule="nonzero" fill-opacity="1" /><path clip-path="url(#clip470)" d="M1550.39 12.2708 L1559.98 12.2708 L1559.98 93.312 L1550.39 93.312 L1550.39 12.2708 Z" fill="#000000" fill-rule="nonzero" fill-opacity="1" /><path clip-path="url(#clip470)" d="M1579.04 70.2913 L1579.04 34.979 L1588.62 34.979 L1588.62 69.9267 Q1588.62 78.2079 1591.85 82.3746 Q1595.08 86.4891 1601.54 86.4891 Q1609.3 86.4891 1613.78 81.5412 Q1618.31 76.5933 1618.31 68.0517 L1618.31 34.979 L1627.89 34.979 L1627.89 93.312 L1618.31 93.312 L1618.31 84.3537 Q1614.82 89.6662 1610.19 92.2703 Q1605.6 94.8224 1599.51 94.8224 Q1589.46 94.8224 1584.25 88.5724 Q1579.04 82.3225 1579.04 70.2913 M1603.15 33.5727 L1603.15 33.5727 Z" fill="#000000" fill-rule="nonzero" fill-opacity="1" /><path clip-path="url(#clip470)" d="M1697.53 61.7497 L1697.53 66.4371 L1653.47 66.4371 Q1654.09 76.3329 1659.4 81.5412 Q1664.77 86.6975 1674.3 86.6975 Q1679.82 86.6975 1684.98 85.3433 Q1690.19 83.9891 1695.29 81.2808 L1695.29 90.3433 Q1690.13 92.5308 1684.72 93.6766 Q1679.3 94.8224 1673.73 94.8224 Q1659.77 94.8224 1651.59 86.6975 Q1643.47 78.5725 1643.47 64.7184 Q1643.47 50.3956 1651.18 42.0102 Q1658.94 33.5727 1672.06 33.5727 Q1683.83 33.5727 1690.65 41.1769 Q1697.53 48.7289 1697.53 61.7497 M1687.95 58.9372 Q1687.84 51.0726 1683.52 46.3852 Q1679.25 41.6977 1672.16 41.6977 Q1664.14 41.6977 1659.3 46.2289 Q1654.51 50.7601 1653.78 58.9893 L1687.95 58.9372 Z" fill="#000000" fill-rule="nonzero" fill-opacity="1" /><path clip-path="url(#clip470)" d="M1750.45 36.6977 L1750.45 45.7602 Q1746.38 43.6768 1742.01 42.6352 Q1737.63 41.5935 1732.95 41.5935 Q1725.81 41.5935 1722.22 43.781 Q1718.67 45.9685 1718.67 50.3435 Q1718.67 53.6768 1721.23 55.6039 Q1723.78 57.4789 1731.49 59.1976 L1734.77 59.9268 Q1744.98 62.1143 1749.25 66.1246 Q1753.57 70.083 1753.57 77.2183 Q1753.57 85.3433 1747.11 90.0829 Q1740.71 94.8224 1729.46 94.8224 Q1724.77 94.8224 1719.66 93.8849 Q1714.61 92.9995 1708.99 91.1766 L1708.99 81.2808 Q1714.3 84.0412 1719.46 85.4475 Q1724.61 86.8016 1729.66 86.8016 Q1736.43 86.8016 1740.08 84.51 Q1743.73 82.1662 1743.73 77.9475 Q1743.73 74.0413 1741.07 71.9579 Q1738.47 69.8746 1729.56 67.9476 L1726.23 67.1663 Q1717.32 65.2913 1713.36 61.4372 Q1709.4 57.5309 1709.4 50.7601 Q1709.4 42.531 1715.24 38.0519 Q1721.07 33.5727 1731.8 33.5727 Q1737.11 33.5727 1741.8 34.354 Q1746.49 35.1352 1750.45 36.6977 Z" fill="#000000" fill-rule="nonzero" fill-opacity="1" /><path clip-path="url(#clip471)" d="M442.034 815.383 L386.034 815.383 L414.034 871.383 L442.034 815.383 Z" fill="#ff0000" fill-rule="evenodd" fill-opacity="1" stroke="none"/>
<path clip-path="url(#clip471)" d="M477.548 924.488 L421.548 924.488 L449.548 980.488 L477.548 924.488 Z" fill="#ff0000" fill-rule="evenodd" fill-opacity="1" stroke="none"/>
<path clip-path="url(#clip471)" d="M513.062 947.609 L457.062 947.609 L485.062 1003.61 L513.062 947.609 Z" fill="#ff0000" fill-rule="evenodd" fill-opacity="1" stroke="none"/>
<path clip-path="url(#clip471)" d="M548.576 957.728 L492.576 957.728 L520.576 1013.73 L548.576 957.728 Z" fill="#ff0000" fill-rule="evenodd" fill-opacity="1" stroke="none"/>
<path clip-path="url(#clip471)" d="M584.091 959.669 L528.091 959.669 L556.091 1015.67 L584.091 959.669 Z" fill="#ff0000" fill-rule="evenodd" fill-opacity="1" stroke="none"/>
<path clip-path="url(#clip471)" d="M619.605 965.026 L563.605 965.026 L591.605 1021.03 L619.605 965.026 Z" fill="#ff0000" fill-rule="evenodd" fill-opacity="1" stroke="none"/>
<path clip-path="url(#clip471)" d="M655.119 971.185 L599.119 971.185 L627.119 1027.18 L655.119 971.185 Z" fill="#ff0000" fill-rule="evenodd" fill-opacity="1" stroke="none"/>
<path clip-path="url(#clip471)" d="M690.633 972.209 L634.633 972.209 L662.633 1028.21 L690.633 972.209 Z" fill="#ff0000" fill-rule="evenodd" fill-opacity="1" stroke="none"/>
<path clip-path="url(#clip471)" d="M726.148 976.779 L670.148 976.779 L698.148 1032.78 L726.148 976.779 Z" fill="#ff0000" fill-rule="evenodd" fill-opacity="1" stroke="none"/>
<path clip-path="url(#clip471)" d="M761.662 979.195 L705.662 979.195 L733.662 1035.2 L761.662 979.195 Z" fill="#ff0000" fill-rule="evenodd" fill-opacity="1" stroke="none"/>
<path clip-path="url(#clip471)" d="M797.176 980.647 L741.176 980.647 L769.176 1036.65 L797.176 980.647 Z" fill="#ff0000" fill-rule="evenodd" fill-opacity="1" stroke="none"/>
<path clip-path="url(#clip471)" d="M832.69 984.101 L776.69 984.101 L804.69 1040.1 L832.69 984.101 Z" fill="#ff0000" fill-rule="evenodd" fill-opacity="1" stroke="none"/>
<path clip-path="url(#clip471)" d="M868.205 990.311 L812.205 990.311 L840.205 1046.31 L868.205 990.311 Z" fill="#ff0000" fill-rule="evenodd" fill-opacity="1" stroke="none"/>
<path clip-path="url(#clip471)" d="M903.719 990.781 L847.719 990.781 L875.719 1046.78 L903.719 990.781 Z" fill="#ff0000" fill-rule="evenodd" fill-opacity="1" stroke="none"/>
<path clip-path="url(#clip471)" d="M939.233 995.671 L883.233 995.671 L911.233 1051.67 L939.233 995.671 Z" fill="#ff0000" fill-rule="evenodd" fill-opacity="1" stroke="none"/>
<path clip-path="url(#clip471)" d="M974.747 997.667 L918.747 997.667 L946.747 1053.67 L974.747 997.667 Z" fill="#ff0000" fill-rule="evenodd" fill-opacity="1" stroke="none"/>
<path clip-path="url(#clip471)" d="M1010.26 999.602 L954.262 999.602 L982.262 1055.6 L1010.26 999.602 Z" fill="#ff0000" fill-rule="evenodd" fill-opacity="1" stroke="none"/>
<path clip-path="url(#clip471)" d="M1045.78 1000.46 L989.776 1000.46 L1017.78 1056.46 L1045.78 1000.46 Z" fill="#ff0000" fill-rule="evenodd" fill-opacity="1" stroke="none"/>
<path clip-path="url(#clip471)" d="M1081.29 1003.9 L1025.29 1003.9 L1053.29 1059.9 L1081.29 1003.9 Z" fill="#ff0000" fill-rule="evenodd" fill-opacity="1" stroke="none"/>
<path clip-path="url(#clip471)" d="M1116.8 1006.8 L1060.8 1006.8 L1088.8 1062.8 L1116.8 1006.8 Z" fill="#ff0000" fill-rule="evenodd" fill-opacity="1" stroke="none"/>
<path clip-path="url(#clip471)" d="M1152.32 1007.22 L1096.32 1007.22 L1124.32 1063.22 L1152.32 1007.22 Z" fill="#ff0000" fill-rule="evenodd" fill-opacity="1" stroke="none"/>
<path clip-path="url(#clip471)" d="M1187.83 1011.04 L1131.83 1011.04 L1159.83 1067.04 L1187.83 1011.04 Z" fill="#ff0000" fill-rule="evenodd" fill-opacity="1" stroke="none"/>
<path clip-path="url(#clip471)" d="M1223.35 1014.2 L1167.35 1014.2 L1195.35 1070.2 L1223.35 1014.2 Z" fill="#ff0000" fill-rule="evenodd" fill-opacity="1" stroke="none"/>
<path clip-path="url(#clip471)" d="M1258.86 1016.86 L1202.86 1016.86 L1230.86 1072.86 L1258.86 1016.86 Z" fill="#ff0000" fill-rule="evenodd" fill-opacity="1" stroke="none"/>
<path clip-path="url(#clip471)" d="M1294.38 1018.18 L1238.38 1018.18 L1266.38 1074.18 L1294.38 1018.18 Z" fill="#ff0000" fill-rule="evenodd" fill-opacity="1" stroke="none"/>
<path clip-path="url(#clip471)" d="M1329.89 1020.99 L1273.89 1020.99 L1301.89 1076.99 L1329.89 1020.99 Z" fill="#ff0000" fill-rule="evenodd" fill-opacity="1" stroke="none"/>
<path clip-path="url(#clip471)" d="M1365.4 1022.98 L1309.4 1022.98 L1337.4 1078.98 L1365.4 1022.98 Z" fill="#ff0000" fill-rule="evenodd" fill-opacity="1" stroke="none"/>
<path clip-path="url(#clip471)" d="M1400.92 1026.61 L1344.92 1026.61 L1372.92 1082.61 L1400.92 1026.61 Z" fill="#ff0000" fill-rule="evenodd" fill-opacity="1" stroke="none"/>
<path clip-path="url(#clip471)" d="M1436.43 1027.11 L1380.43 1027.11 L1408.43 1083.11 L1436.43 1027.11 Z" fill="#ff0000" fill-rule="evenodd" fill-opacity="1" stroke="none"/>
<path clip-path="url(#clip471)" d="M1471.95 1032.52 L1415.95 1032.52 L1443.95 1088.52 L1471.95 1032.52 Z" fill="#ff0000" fill-rule="evenodd" fill-opacity="1" stroke="none"/>
<path clip-path="url(#clip471)" d="M1507.46 1034.31 L1451.46 1034.31 L1479.46 1090.31 L1507.46 1034.31 Z" fill="#ff0000" fill-rule="evenodd" fill-opacity="1" stroke="none"/>
<path clip-path="url(#clip471)" d="M1542.98 1038.76 L1486.98 1038.76 L1514.98 1094.76 L1542.98 1038.76 Z" fill="#ff0000" fill-rule="evenodd" fill-opacity="1" stroke="none"/>
<path clip-path="url(#clip471)" d="M1578.49 1044.34 L1522.49 1044.34 L1550.49 1100.34 L1578.49 1044.34 Z" fill="#ff0000" fill-rule="evenodd" fill-opacity="1" stroke="none"/>
<path clip-path="url(#clip471)" d="M1614 1046.35 L1558 1046.35 L1586 1102.35 L1614 1046.35 Z" fill="#ff0000" fill-rule="evenodd" fill-opacity="1" stroke="none"/>
<path clip-path="url(#clip471)" d="M1649.52 1049.98 L1593.52 1049.98 L1621.52 1105.98 L1649.52 1049.98 Z" fill="#ff0000" fill-rule="evenodd" fill-opacity="1" stroke="none"/>
<path clip-path="url(#clip471)" d="M1685.03 1051.89 L1629.03 1051.89 L1657.03 1107.89 L1685.03 1051.89 Z" fill="#ff0000" fill-rule="evenodd" fill-opacity="1" stroke="none"/>
<path clip-path="url(#clip471)" d="M1720.55 1056.8 L1664.55 1056.8 L1692.55 1112.8 L1720.55 1056.8 Z" fill="#ff0000" fill-rule="evenodd" fill-opacity="1" stroke="none"/>
<path clip-path="url(#clip471)" d="M1756.06 1063.24 L1700.06 1063.24 L1728.06 1119.24 L1756.06 1063.24 Z" fill="#ff0000" fill-rule="evenodd" fill-opacity="1" stroke="none"/>
<path clip-path="url(#clip471)" d="M1791.57 1064.08 L1735.57 1064.08 L1763.57 1120.08 L1791.57 1064.08 Z" fill="#ff0000" fill-rule="evenodd" fill-opacity="1" stroke="none"/>
<path clip-path="url(#clip471)" d="M1827.09 1065.06 L1771.09 1065.06 L1799.09 1121.06 L1827.09 1065.06 Z" fill="#ff0000" fill-rule="evenodd" fill-opacity="1" stroke="none"/>
<path clip-path="url(#clip471)" d="M1862.6 1065.55 L1806.6 1065.55 L1834.6 1121.55 L1862.6 1065.55 Z" fill="#ff0000" fill-rule="evenodd" fill-opacity="1" stroke="none"/>
<path clip-path="url(#clip471)" d="M1898.12 1066 L1842.12 1066 L1870.12 1122 L1898.12 1066 Z" fill="#ff0000" fill-rule="evenodd" fill-opacity="1" stroke="none"/>
<path clip-path="url(#clip471)" d="M1933.63 1066.37 L1877.63 1066.37 L1905.63 1122.37 L1933.63 1066.37 Z" fill="#ff0000" fill-rule="evenodd" fill-opacity="1" stroke="none"/>
<path clip-path="url(#clip471)" d="M1969.15 1067.03 L1913.15 1067.03 L1941.15 1123.03 L1969.15 1067.03 Z" fill="#ff0000" fill-rule="evenodd" fill-opacity="1" stroke="none"/>
<path clip-path="url(#clip471)" d="M2004.66 1067.35 L1948.66 1067.35 L1976.66 1123.35 L2004.66 1067.35 Z" fill="#ff0000" fill-rule="evenodd" fill-opacity="1" stroke="none"/>
<path clip-path="url(#clip471)" d="M2040.17 1067.5 L1984.17 1067.5 L2012.17 1123.5 L2040.17 1067.5 Z" fill="#ff0000" fill-rule="evenodd" fill-opacity="1" stroke="none"/>
<path clip-path="url(#clip471)" d="M2075.69 1068.3 L2019.69 1068.3 L2047.69 1124.3 L2075.69 1068.3 Z" fill="#ff0000" fill-rule="evenodd" fill-opacity="1" stroke="none"/>
<path clip-path="url(#clip471)" d="M2111.2 1068.55 L2055.2 1068.55 L2083.2 1124.55 L2111.2 1068.55 Z" fill="#ff0000" fill-rule="evenodd" fill-opacity="1" stroke="none"/>
<path clip-path="url(#clip471)" d="M2146.72 1068.86 L2090.72 1068.86 L2118.72 1124.86 L2146.72 1068.86 Z" fill="#ff0000" fill-rule="evenodd" fill-opacity="1" stroke="none"/>
<path clip-path="url(#clip471)" d="M2182.23 1069.41 L2126.23 1069.41 L2154.23 1125.41 L2182.23 1069.41 Z" fill="#ff0000" fill-rule="evenodd" fill-opacity="1" stroke="none"/>
<path clip-path="url(#clip471)" d="M2217.75 1069.89 L2161.75 1069.89 L2189.75 1125.89 L2217.75 1069.89 Z" fill="#ff0000" fill-rule="evenodd" fill-opacity="1" stroke="none"/>
<path clip-path="url(#clip471)" d="M2253.26 1070.33 L2197.26 1070.33 L2225.26 1126.33 L2253.26 1070.33 Z" fill="#ff0000" fill-rule="evenodd" fill-opacity="1" stroke="none"/>
<path clip-path="url(#clip471)" d="M2288.77 1071 L2232.77 1071 L2260.77 1127 L2288.77 1071 Z" fill="#ff0000" fill-rule="evenodd" fill-opacity="1" stroke="none"/>
<path clip-path="url(#clip471)" d="M2324.29 1071.44 L2268.29 1071.44 L2296.29 1127.44 L2324.29 1071.44 Z" fill="#ff0000" fill-rule="evenodd" fill-opacity="1" stroke="none"/>
<path clip-path="url(#clip471)" d="M414.034 131.508 L386.034 187.508 L442.034 187.508 L414.034 131.508 Z" fill="#0000ff" fill-rule="evenodd" fill-opacity="1" stroke="none"/>
<path clip-path="url(#clip471)" d="M449.548 639.824 L421.548 695.824 L477.548 695.824 L449.548 639.824 Z" fill="#0000ff" fill-rule="evenodd" fill-opacity="1" stroke="none"/>
<path clip-path="url(#clip471)" d="M485.062 737.936 L457.062 793.936 L513.062 793.936 L485.062 737.936 Z" fill="#0000ff" fill-rule="evenodd" fill-opacity="1" stroke="none"/>
<path clip-path="url(#clip471)" d="M520.576 954.359 L492.576 1010.36 L548.576 1010.36 L520.576 954.359 Z" fill="#0000ff" fill-rule="evenodd" fill-opacity="1" stroke="none"/>
<path clip-path="url(#clip471)" d="M556.091 1012.44 L528.091 1068.44 L584.091 1068.44 L556.091 1012.44 Z" fill="#0000ff" fill-rule="evenodd" fill-opacity="1" stroke="none"/>
<path clip-path="url(#clip471)" d="M591.605 1080.69 L563.605 1136.69 L619.605 1136.69 L591.605 1080.69 Z" fill="#0000ff" fill-rule="evenodd" fill-opacity="1" stroke="none"/>
<path clip-path="url(#clip471)" d="M627.119 1080.69 L599.119 1136.69 L655.119 1136.69 L627.119 1080.69 Z" fill="#0000ff" fill-rule="evenodd" fill-opacity="1" stroke="none"/>
<path clip-path="url(#clip471)" d="M662.633 1080.69 L634.633 1136.69 L690.633 1136.69 L662.633 1080.69 Z" fill="#0000ff" fill-rule="evenodd" fill-opacity="1" stroke="none"/>
<path clip-path="url(#clip471)" d="M698.148 1080.69 L670.148 1136.69 L726.148 1136.69 L698.148 1080.69 Z" fill="#0000ff" fill-rule="evenodd" fill-opacity="1" stroke="none"/>
<path clip-path="url(#clip471)" d="M733.662 1080.69 L705.662 1136.69 L761.662 1136.69 L733.662 1080.69 Z" fill="#0000ff" fill-rule="evenodd" fill-opacity="1" stroke="none"/>
<path clip-path="url(#clip471)" d="M769.176 1080.69 L741.176 1136.69 L797.176 1136.69 L769.176 1080.69 Z" fill="#0000ff" fill-rule="evenodd" fill-opacity="1" stroke="none"/>
<path clip-path="url(#clip471)" d="M804.69 1080.69 L776.69 1136.69 L832.69 1136.69 L804.69 1080.69 Z" fill="#0000ff" fill-rule="evenodd" fill-opacity="1" stroke="none"/>
<path clip-path="url(#clip471)" d="M840.205 1080.69 L812.205 1136.69 L868.205 1136.69 L840.205 1080.69 Z" fill="#0000ff" fill-rule="evenodd" fill-opacity="1" stroke="none"/>
<path clip-path="url(#clip471)" d="M875.719 1080.69 L847.719 1136.69 L903.719 1136.69 L875.719 1080.69 Z" fill="#0000ff" fill-rule="evenodd" fill-opacity="1" stroke="none"/>
<path clip-path="url(#clip471)" d="M911.233 1080.69 L883.233 1136.69 L939.233 1136.69 L911.233 1080.69 Z" fill="#0000ff" fill-rule="evenodd" fill-opacity="1" stroke="none"/>
<path clip-path="url(#clip471)" d="M946.747 1080.69 L918.747 1136.69 L974.747 1136.69 L946.747 1080.69 Z" fill="#0000ff" fill-rule="evenodd" fill-opacity="1" stroke="none"/>
<path clip-path="url(#clip471)" d="M982.262 1080.69 L954.262 1136.69 L1010.26 1136.69 L982.262 1080.69 Z" fill="#0000ff" fill-rule="evenodd" fill-opacity="1" stroke="none"/>
<path clip-path="url(#clip471)" d="M1017.78 1080.69 L989.776 1136.69 L1045.78 1136.69 L1017.78 1080.69 Z" fill="#0000ff" fill-rule="evenodd" fill-opacity="1" stroke="none"/>
<path clip-path="url(#clip471)" d="M1053.29 1080.69 L1025.29 1136.69 L1081.29 1136.69 L1053.29 1080.69 Z" fill="#0000ff" fill-rule="evenodd" fill-opacity="1" stroke="none"/>
<path clip-path="url(#clip471)" d="M1088.8 1080.69 L1060.8 1136.69 L1116.8 1136.69 L1088.8 1080.69 Z" fill="#0000ff" fill-rule="evenodd" fill-opacity="1" stroke="none"/>
<path clip-path="url(#clip471)" d="M1124.32 1080.69 L1096.32 1136.69 L1152.32 1136.69 L1124.32 1080.69 Z" fill="#0000ff" fill-rule="evenodd" fill-opacity="1" stroke="none"/>
<path clip-path="url(#clip471)" d="M1159.83 1080.69 L1131.83 1136.69 L1187.83 1136.69 L1159.83 1080.69 Z" fill="#0000ff" fill-rule="evenodd" fill-opacity="1" stroke="none"/>
<path clip-path="url(#clip471)" d="M1195.35 1080.69 L1167.35 1136.69 L1223.35 1136.69 L1195.35 1080.69 Z" fill="#0000ff" fill-rule="evenodd" fill-opacity="1" stroke="none"/>
<path clip-path="url(#clip471)" d="M1230.86 1080.69 L1202.86 1136.69 L1258.86 1136.69 L1230.86 1080.69 Z" fill="#0000ff" fill-rule="evenodd" fill-opacity="1" stroke="none"/>
<path clip-path="url(#clip471)" d="M1266.38 1080.69 L1238.38 1136.69 L1294.38 1136.69 L1266.38 1080.69 Z" fill="#0000ff" fill-rule="evenodd" fill-opacity="1" stroke="none"/>
<path clip-path="url(#clip471)" d="M1301.89 1080.69 L1273.89 1136.69 L1329.89 1136.69 L1301.89 1080.69 Z" fill="#0000ff" fill-rule="evenodd" fill-opacity="1" stroke="none"/>
<path clip-path="url(#clip471)" d="M1337.4 1080.69 L1309.4 1136.69 L1365.4 1136.69 L1337.4 1080.69 Z" fill="#0000ff" fill-rule="evenodd" fill-opacity="1" stroke="none"/>
<path clip-path="url(#clip471)" d="M1372.92 1080.69 L1344.92 1136.69 L1400.92 1136.69 L1372.92 1080.69 Z" fill="#0000ff" fill-rule="evenodd" fill-opacity="1" stroke="none"/>
<path clip-path="url(#clip471)" d="M1408.43 1080.69 L1380.43 1136.69 L1436.43 1136.69 L1408.43 1080.69 Z" fill="#0000ff" fill-rule="evenodd" fill-opacity="1" stroke="none"/>
<path clip-path="url(#clip471)" d="M1443.95 1080.69 L1415.95 1136.69 L1471.95 1136.69 L1443.95 1080.69 Z" fill="#0000ff" fill-rule="evenodd" fill-opacity="1" stroke="none"/>
<path clip-path="url(#clip471)" d="M1479.46 1080.69 L1451.46 1136.69 L1507.46 1136.69 L1479.46 1080.69 Z" fill="#0000ff" fill-rule="evenodd" fill-opacity="1" stroke="none"/>
<path clip-path="url(#clip471)" d="M1514.98 1080.69 L1486.98 1136.69 L1542.98 1136.69 L1514.98 1080.69 Z" fill="#0000ff" fill-rule="evenodd" fill-opacity="1" stroke="none"/>
<path clip-path="url(#clip471)" d="M1550.49 1080.69 L1522.49 1136.69 L1578.49 1136.69 L1550.49 1080.69 Z" fill="#0000ff" fill-rule="evenodd" fill-opacity="1" stroke="none"/>
<path clip-path="url(#clip471)" d="M1586 1080.69 L1558 1136.69 L1614 1136.69 L1586 1080.69 Z" fill="#0000ff" fill-rule="evenodd" fill-opacity="1" stroke="none"/>
<path clip-path="url(#clip471)" d="M1621.52 1080.69 L1593.52 1136.69 L1649.52 1136.69 L1621.52 1080.69 Z" fill="#0000ff" fill-rule="evenodd" fill-opacity="1" stroke="none"/>
<path clip-path="url(#clip471)" d="M1657.03 1080.69 L1629.03 1136.69 L1685.03 1136.69 L1657.03 1080.69 Z" fill="#0000ff" fill-rule="evenodd" fill-opacity="1" stroke="none"/>
<path clip-path="url(#clip471)" d="M1692.55 1080.69 L1664.55 1136.69 L1720.55 1136.69 L1692.55 1080.69 Z" fill="#0000ff" fill-rule="evenodd" fill-opacity="1" stroke="none"/>
<path clip-path="url(#clip471)" d="M1728.06 1080.69 L1700.06 1136.69 L1756.06 1136.69 L1728.06 1080.69 Z" fill="#0000ff" fill-rule="evenodd" fill-opacity="1" stroke="none"/>
<path clip-path="url(#clip471)" d="M1763.57 1080.69 L1735.57 1136.69 L1791.57 1136.69 L1763.57 1080.69 Z" fill="#0000ff" fill-rule="evenodd" fill-opacity="1" stroke="none"/>
<path clip-path="url(#clip471)" d="M1799.09 1080.69 L1771.09 1136.69 L1827.09 1136.69 L1799.09 1080.69 Z" fill="#0000ff" fill-rule="evenodd" fill-opacity="1" stroke="none"/>
<path clip-path="url(#clip471)" d="M1834.6 1080.69 L1806.6 1136.69 L1862.6 1136.69 L1834.6 1080.69 Z" fill="#0000ff" fill-rule="evenodd" fill-opacity="1" stroke="none"/>
<path clip-path="url(#clip471)" d="M1870.12 1080.69 L1842.12 1136.69 L1898.12 1136.69 L1870.12 1080.69 Z" fill="#0000ff" fill-rule="evenodd" fill-opacity="1" stroke="none"/>
<path clip-path="url(#clip471)" d="M1905.63 1080.69 L1877.63 1136.69 L1933.63 1136.69 L1905.63 1080.69 Z" fill="#0000ff" fill-rule="evenodd" fill-opacity="1" stroke="none"/>
<path clip-path="url(#clip471)" d="M1941.15 1080.69 L1913.15 1136.69 L1969.15 1136.69 L1941.15 1080.69 Z" fill="#0000ff" fill-rule="evenodd" fill-opacity="1" stroke="none"/>
<path clip-path="url(#clip471)" d="M1976.66 1080.69 L1948.66 1136.69 L2004.66 1136.69 L1976.66 1080.69 Z" fill="#0000ff" fill-rule="evenodd" fill-opacity="1" stroke="none"/>
<path clip-path="url(#clip471)" d="M2012.17 1080.69 L1984.17 1136.69 L2040.17 1136.69 L2012.17 1080.69 Z" fill="#0000ff" fill-rule="evenodd" fill-opacity="1" stroke="none"/>
<path clip-path="url(#clip471)" d="M2047.69 1080.69 L2019.69 1136.69 L2075.69 1136.69 L2047.69 1080.69 Z" fill="#0000ff" fill-rule="evenodd" fill-opacity="1" stroke="none"/>
<path clip-path="url(#clip471)" d="M2083.2 1080.69 L2055.2 1136.69 L2111.2 1136.69 L2083.2 1080.69 Z" fill="#0000ff" fill-rule="evenodd" fill-opacity="1" stroke="none"/>
<path clip-path="url(#clip471)" d="M2118.72 1080.69 L2090.72 1136.69 L2146.72 1136.69 L2118.72 1080.69 Z" fill="#0000ff" fill-rule="evenodd" fill-opacity="1" stroke="none"/>
<path clip-path="url(#clip471)" d="M2154.23 1080.69 L2126.23 1136.69 L2182.23 1136.69 L2154.23 1080.69 Z" fill="#0000ff" fill-rule="evenodd" fill-opacity="1" stroke="none"/>
<path clip-path="url(#clip471)" d="M2189.75 1080.69 L2161.75 1136.69 L2217.75 1136.69 L2189.75 1080.69 Z" fill="#0000ff" fill-rule="evenodd" fill-opacity="1" stroke="none"/>
<path clip-path="url(#clip471)" d="M2225.26 1080.69 L2197.26 1136.69 L2253.26 1136.69 L2225.26 1080.69 Z" fill="#0000ff" fill-rule="evenodd" fill-opacity="1" stroke="none"/>
<path clip-path="url(#clip471)" d="M2260.77 1080.69 L2232.77 1136.69 L2288.77 1136.69 L2260.77 1080.69 Z" fill="#0000ff" fill-rule="evenodd" fill-opacity="1" stroke="none"/>
<path clip-path="url(#clip471)" d="M2296.29 1080.69 L2268.29 1136.69 L2324.29 1136.69 L2296.29 1080.69 Z" fill="#0000ff" fill-rule="evenodd" fill-opacity="1" stroke="none"/>
<circle clip-path="url(#clip471)" cx="414.034" cy="843.383" r="25.2" fill="#00ffff" fill-rule="evenodd" fill-opacity="1" stroke="none"/>
<circle clip-path="url(#clip471)" cx="449.548" cy="952.488" r="25.2" fill="#00ffff" fill-rule="evenodd" fill-opacity="1" stroke="none"/>
<circle clip-path="url(#clip471)" cx="485.062" cy="975.609" r="25.2" fill="#00ffff" fill-rule="evenodd" fill-opacity="1" stroke="none"/>
<circle clip-path="url(#clip471)" cx="520.576" cy="985.728" r="25.2" fill="#00ffff" fill-rule="evenodd" fill-opacity="1" stroke="none"/>
<circle clip-path="url(#clip471)" cx="556.091" cy="987.669" r="25.2" fill="#00ffff" fill-rule="evenodd" fill-opacity="1" stroke="none"/>
<circle clip-path="url(#clip471)" cx="591.605" cy="993.026" r="25.2" fill="#00ffff" fill-rule="evenodd" fill-opacity="1" stroke="none"/>
<circle clip-path="url(#clip471)" cx="627.119" cy="999.185" r="25.2" fill="#00ffff" fill-rule="evenodd" fill-opacity="1" stroke="none"/>
<circle clip-path="url(#clip471)" cx="662.633" cy="1000.21" r="25.2" fill="#00ffff" fill-rule="evenodd" fill-opacity="1" stroke="none"/>
<circle clip-path="url(#clip471)" cx="698.148" cy="1004.78" r="25.2" fill="#00ffff" fill-rule="evenodd" fill-opacity="1" stroke="none"/>
<circle clip-path="url(#clip471)" cx="733.662" cy="1007.2" r="25.2" fill="#00ffff" fill-rule="evenodd" fill-opacity="1" stroke="none"/>
<circle clip-path="url(#clip471)" cx="769.176" cy="1008.65" r="25.2" fill="#00ffff" fill-rule="evenodd" fill-opacity="1" stroke="none"/>
<circle clip-path="url(#clip471)" cx="804.69" cy="1012.1" r="25.2" fill="#00ffff" fill-rule="evenodd" fill-opacity="1" stroke="none"/>
<circle clip-path="url(#clip471)" cx="840.205" cy="1018.31" r="25.2" fill="#00ffff" fill-rule="evenodd" fill-opacity="1" stroke="none"/>
<circle clip-path="url(#clip471)" cx="875.719" cy="1018.78" r="25.2" fill="#00ffff" fill-rule="evenodd" fill-opacity="1" stroke="none"/>
<circle clip-path="url(#clip471)" cx="911.233" cy="1023.67" r="25.2" fill="#00ffff" fill-rule="evenodd" fill-opacity="1" stroke="none"/>
<circle clip-path="url(#clip471)" cx="946.747" cy="1025.67" r="25.2" fill="#00ffff" fill-rule="evenodd" fill-opacity="1" stroke="none"/>
<circle clip-path="url(#clip471)" cx="982.262" cy="1027.6" r="25.2" fill="#00ffff" fill-rule="evenodd" fill-opacity="1" stroke="none"/>
<circle clip-path="url(#clip471)" cx="1017.78" cy="1028.46" r="25.2" fill="#00ffff" fill-rule="evenodd" fill-opacity="1" stroke="none"/>
<circle clip-path="url(#clip471)" cx="1053.29" cy="1031.9" r="25.2" fill="#00ffff" fill-rule="evenodd" fill-opacity="1" stroke="none"/>
<circle clip-path="url(#clip471)" cx="1088.8" cy="1034.8" r="25.2" fill="#00ffff" fill-rule="evenodd" fill-opacity="1" stroke="none"/>
<circle clip-path="url(#clip471)" cx="1124.32" cy="1035.22" r="25.2" fill="#00ffff" fill-rule="evenodd" fill-opacity="1" stroke="none"/>
<circle clip-path="url(#clip471)" cx="1159.83" cy="1039.04" r="25.2" fill="#00ffff" fill-rule="evenodd" fill-opacity="1" stroke="none"/>
<circle clip-path="url(#clip471)" cx="1195.35" cy="1042.2" r="25.2" fill="#00ffff" fill-rule="evenodd" fill-opacity="1" stroke="none"/>
<circle clip-path="url(#clip471)" cx="1230.86" cy="1044.86" r="25.2" fill="#00ffff" fill-rule="evenodd" fill-opacity="1" stroke="none"/>
<circle clip-path="url(#clip471)" cx="1266.38" cy="1046.18" r="25.2" fill="#00ffff" fill-rule="evenodd" fill-opacity="1" stroke="none"/>
<circle clip-path="url(#clip471)" cx="1301.89" cy="1048.99" r="25.2" fill="#00ffff" fill-rule="evenodd" fill-opacity="1" stroke="none"/>
<circle clip-path="url(#clip471)" cx="1337.4" cy="1050.98" r="25.2" fill="#00ffff" fill-rule="evenodd" fill-opacity="1" stroke="none"/>
<circle clip-path="url(#clip471)" cx="1372.92" cy="1054.61" r="25.2" fill="#00ffff" fill-rule="evenodd" fill-opacity="1" stroke="none"/>
<circle clip-path="url(#clip471)" cx="1408.43" cy="1055.11" r="25.2" fill="#00ffff" fill-rule="evenodd" fill-opacity="1" stroke="none"/>
<circle clip-path="url(#clip471)" cx="1443.95" cy="1060.52" r="25.2" fill="#00ffff" fill-rule="evenodd" fill-opacity="1" stroke="none"/>
<circle clip-path="url(#clip471)" cx="1479.46" cy="1062.31" r="25.2" fill="#00ffff" fill-rule="evenodd" fill-opacity="1" stroke="none"/>
<circle clip-path="url(#clip471)" cx="1514.98" cy="1066.76" r="25.2" fill="#00ffff" fill-rule="evenodd" fill-opacity="1" stroke="none"/>
<circle clip-path="url(#clip471)" cx="1550.49" cy="1072.34" r="25.2" fill="#00ffff" fill-rule="evenodd" fill-opacity="1" stroke="none"/>
<circle clip-path="url(#clip471)" cx="1586" cy="1074.35" r="25.2" fill="#00ffff" fill-rule="evenodd" fill-opacity="1" stroke="none"/>
<circle clip-path="url(#clip471)" cx="1621.52" cy="1077.98" r="25.2" fill="#00ffff" fill-rule="evenodd" fill-opacity="1" stroke="none"/>
<circle clip-path="url(#clip471)" cx="1657.03" cy="1079.89" r="25.2" fill="#00ffff" fill-rule="evenodd" fill-opacity="1" stroke="none"/>
<circle clip-path="url(#clip471)" cx="1692.55" cy="1084.8" r="25.2" fill="#00ffff" fill-rule="evenodd" fill-opacity="1" stroke="none"/>
<circle clip-path="url(#clip471)" cx="1728.06" cy="1091.24" r="25.2" fill="#00ffff" fill-rule="evenodd" fill-opacity="1" stroke="none"/>
<circle clip-path="url(#clip471)" cx="1763.57" cy="1092.08" r="25.2" fill="#00ffff" fill-rule="evenodd" fill-opacity="1" stroke="none"/>
<circle clip-path="url(#clip471)" cx="1799.09" cy="1093.06" r="25.2" fill="#00ffff" fill-rule="evenodd" fill-opacity="1" stroke="none"/>
<circle clip-path="url(#clip471)" cx="1834.6" cy="1093.55" r="25.2" fill="#00ffff" fill-rule="evenodd" fill-opacity="1" stroke="none"/>
<circle clip-path="url(#clip471)" cx="1870.12" cy="1094" r="25.2" fill="#00ffff" fill-rule="evenodd" fill-opacity="1" stroke="none"/>
<circle clip-path="url(#clip471)" cx="1905.63" cy="1094.37" r="25.2" fill="#00ffff" fill-rule="evenodd" fill-opacity="1" stroke="none"/>
<circle clip-path="url(#clip471)" cx="1941.15" cy="1095.03" r="25.2" fill="#00ffff" fill-rule="evenodd" fill-opacity="1" stroke="none"/>
<circle clip-path="url(#clip471)" cx="1976.66" cy="1095.35" r="25.2" fill="#00ffff" fill-rule="evenodd" fill-opacity="1" stroke="none"/>
<circle clip-path="url(#clip471)" cx="2012.17" cy="1095.5" r="25.2" fill="#00ffff" fill-rule="evenodd" fill-opacity="1" stroke="none"/>
<circle clip-path="url(#clip471)" cx="2047.69" cy="1096.3" r="25.2" fill="#00ffff" fill-rule="evenodd" fill-opacity="1" stroke="none"/>
<circle clip-path="url(#clip471)" cx="2083.2" cy="1096.55" r="25.2" fill="#00ffff" fill-rule="evenodd" fill-opacity="1" stroke="none"/>
<circle clip-path="url(#clip471)" cx="2118.72" cy="1096.86" r="25.2" fill="#00ffff" fill-rule="evenodd" fill-opacity="1" stroke="none"/>
<circle clip-path="url(#clip471)" cx="2154.23" cy="1097.41" r="25.2" fill="#00ffff" fill-rule="evenodd" fill-opacity="1" stroke="none"/>
<circle clip-path="url(#clip471)" cx="2189.75" cy="1097.89" r="25.2" fill="#00ffff" fill-rule="evenodd" fill-opacity="1" stroke="none"/>
<circle clip-path="url(#clip471)" cx="2225.26" cy="1098.33" r="25.2" fill="#00ffff" fill-rule="evenodd" fill-opacity="1" stroke="none"/>
<circle clip-path="url(#clip471)" cx="2260.77" cy="1099" r="25.2" fill="#00ffff" fill-rule="evenodd" fill-opacity="1" stroke="none"/>
<circle clip-path="url(#clip471)" cx="2296.29" cy="1099.44" r="25.2" fill="#00ffff" fill-rule="evenodd" fill-opacity="1" stroke="none"/>
<path clip-path="url(#clip470)" d="M856.425 631.13 L2286.25 631.13 L2286.25 164.57 L856.425 164.57  Z" fill="#ffffff" fill-rule="evenodd" fill-opacity="1"/>
<polyline clip-path="url(#clip470)" style="stroke:#000000; stroke-linecap:round; stroke-linejoin:round; stroke-width:4; stroke-opacity:1; fill:none" points="856.425,631.13 2286.25,631.13 2286.25,164.57 856.425,164.57 856.425,631.13 "/>
<path clip-path="url(#clip470)" d="M998.86 227.45 L891.34 227.45 L945.1 334.97 L998.86 227.45 Z" fill="#ff0000" fill-rule="evenodd" fill-opacity="1" stroke="none"/>
<path clip-path="url(#clip470)" d="M1033.77 242.33 L1045.08 242.33 L1066.64 274.309 L1088.05 242.33 L1099.35 242.33 L1071.85 283.059 L1071.85 320.09 L1061.27 320.09 L1061.27 283.059 L1033.77 242.33 Z" fill="#000000" fill-rule="nonzero" fill-opacity="1" /><path clip-path="url(#clip470)" d="M1166.12 239.153 Q1159.14 251.132 1155.75 262.851 Q1152.37 274.569 1152.37 286.601 Q1152.37 298.632 1155.75 310.455 Q1159.19 322.225 1166.12 334.152 L1157.78 334.152 Q1149.97 321.913 1146.07 310.09 Q1142.21 298.267 1142.21 286.601 Q1142.21 274.986 1146.07 263.215 Q1149.92 251.445 1157.78 239.153 L1166.12 239.153 Z" fill="#000000" fill-rule="nonzero" fill-opacity="1" /><path clip-path="url(#clip470)" d="M1223.1 270.611 L1223.1 239.049 L1232.68 239.049 L1232.68 320.09 L1223.1 320.09 L1223.1 311.34 Q1220.08 316.548 1215.44 319.1 Q1210.86 321.6 1204.4 321.6 Q1193.83 321.6 1187.16 313.163 Q1180.54 304.725 1180.54 290.976 Q1180.54 277.226 1187.16 268.788 Q1193.83 260.351 1204.4 260.351 Q1210.86 260.351 1215.44 262.903 Q1220.08 265.403 1223.1 270.611 M1190.44 290.976 Q1190.44 301.548 1194.76 307.59 Q1199.14 313.58 1206.74 313.58 Q1214.35 313.58 1218.72 307.59 Q1223.1 301.548 1223.1 290.976 Q1223.1 280.403 1218.72 274.413 Q1214.35 268.372 1206.74 268.372 Q1199.14 268.372 1194.76 274.413 Q1190.44 280.403 1190.44 290.976 Z" fill="#000000" fill-rule="nonzero" fill-opacity="1" /><path clip-path="url(#clip470)" d="M1278.93 290.767 Q1267.32 290.767 1262.84 293.423 Q1258.36 296.08 1258.36 302.486 Q1258.36 307.59 1261.69 310.611 Q1265.08 313.58 1270.86 313.58 Q1278.83 313.58 1283.62 307.955 Q1288.46 302.278 1288.46 292.903 L1288.46 290.767 L1278.93 290.767 M1298.04 286.809 L1298.04 320.09 L1288.46 320.09 L1288.46 311.236 Q1285.18 316.548 1280.28 319.1 Q1275.39 321.6 1268.3 321.6 Q1259.35 321.6 1254.03 316.6 Q1248.77 311.548 1248.77 303.111 Q1248.77 293.267 1255.34 288.267 Q1261.95 283.267 1275.02 283.267 L1288.46 283.267 L1288.46 282.33 Q1288.46 275.715 1284.09 272.121 Q1279.76 268.476 1271.9 268.476 Q1266.9 268.476 1262.16 269.674 Q1257.42 270.871 1253.04 273.267 L1253.04 264.413 Q1258.3 262.382 1263.25 261.392 Q1268.2 260.351 1272.89 260.351 Q1285.54 260.351 1291.79 266.913 Q1298.04 273.476 1298.04 286.809 Z" fill="#000000" fill-rule="nonzero" fill-opacity="1" /><path clip-path="url(#clip470)" d="M1327.26 245.195 L1327.26 261.757 L1347 261.757 L1347 269.205 L1327.26 269.205 L1327.26 300.871 Q1327.26 308.007 1329.19 310.038 Q1331.17 312.069 1337.16 312.069 L1347 312.069 L1347 320.09 L1337.16 320.09 Q1326.06 320.09 1321.85 315.975 Q1317.63 311.809 1317.63 300.871 L1317.63 269.205 L1310.6 269.205 L1310.6 261.757 L1317.63 261.757 L1317.63 245.195 L1327.26 245.195 Z" fill="#000000" fill-rule="nonzero" fill-opacity="1" /><path clip-path="url(#clip470)" d="M1386.12 290.767 Q1374.5 290.767 1370.02 293.423 Q1365.54 296.08 1365.54 302.486 Q1365.54 307.59 1368.88 310.611 Q1372.26 313.58 1378.04 313.58 Q1386.01 313.58 1390.8 307.955 Q1395.65 302.278 1395.65 292.903 L1395.65 290.767 L1386.12 290.767 M1405.23 286.809 L1405.23 320.09 L1395.65 320.09 L1395.65 311.236 Q1392.37 316.548 1387.47 319.1 Q1382.58 321.6 1375.49 321.6 Q1366.53 321.6 1361.22 316.6 Q1355.96 311.548 1355.96 303.111 Q1355.96 293.267 1362.52 288.267 Q1369.14 283.267 1382.21 283.267 L1395.65 283.267 L1395.65 282.33 Q1395.65 275.715 1391.27 272.121 Q1386.95 268.476 1379.09 268.476 Q1374.09 268.476 1369.35 269.674 Q1364.61 270.871 1360.23 273.267 L1360.23 264.413 Q1365.49 262.382 1370.44 261.392 Q1375.39 260.351 1380.08 260.351 Q1392.73 260.351 1398.98 266.913 Q1405.23 273.476 1405.23 286.809 Z" fill="#000000" fill-rule="nonzero" fill-opacity="1" /><path clip-path="url(#clip470)" d="M1423.46 239.153 L1431.79 239.153 Q1439.61 251.445 1443.46 263.215 Q1447.37 274.986 1447.37 286.601 Q1447.37 298.267 1443.46 310.09 Q1439.61 321.913 1431.79 334.152 L1423.46 334.152 Q1430.39 322.225 1433.77 310.455 Q1437.21 298.632 1437.21 286.601 Q1437.21 274.569 1433.77 262.851 Q1430.39 251.132 1423.46 239.153 Z" fill="#000000" fill-rule="nonzero" fill-opacity="1" /><path clip-path="url(#clip470)" d="M945.1 344.09 L891.34 451.61 L998.86 451.61 L945.1 344.09 Z" fill="#0000ff" fill-rule="evenodd" fill-opacity="1" stroke="none"/>
<path clip-path="url(#clip470)" d="M1037.32 358.97 L1048.62 358.97 L1067.94 387.876 L1087.37 358.97 L1098.67 358.97 L1073.67 396.314 L1100.34 436.73 L1089.04 436.73 L1067.16 403.657 L1045.13 436.73 L1033.77 436.73 L1061.54 395.22 L1037.32 358.97 Z" fill="#000000" fill-rule="nonzero" fill-opacity="1" /><path clip-path="url(#clip470)" d="M1123.2 361.835 L1123.2 378.397 L1142.94 378.397 L1142.94 385.845 L1123.2 385.845 L1123.2 417.511 Q1123.2 424.647 1125.13 426.678 Q1127.11 428.709 1133.1 428.709 L1142.94 428.709 L1142.94 436.73 L1133.1 436.73 Q1122 436.73 1117.78 432.615 Q1113.57 428.449 1113.57 417.511 L1113.57 385.845 L1106.53 385.845 L1106.53 378.397 L1113.57 378.397 L1113.57 361.835 L1123.2 361.835 Z" fill="#000000" fill-rule="nonzero" fill-opacity="1" /><path clip-path="url(#clip470)" d="M1189.35 387.355 Q1187.73 386.418 1185.81 386.001 Q1183.93 385.532 1181.64 385.532 Q1173.51 385.532 1169.14 390.845 Q1164.82 396.105 1164.82 406.001 L1164.82 436.73 L1155.18 436.73 L1155.18 378.397 L1164.82 378.397 L1164.82 387.459 Q1167.84 382.147 1172.68 379.595 Q1177.52 376.991 1184.45 376.991 Q1185.44 376.991 1186.64 377.147 Q1187.84 377.251 1189.29 377.512 L1189.35 387.355 Z" fill="#000000" fill-rule="nonzero" fill-opacity="1" /><path clip-path="url(#clip470)" d="M1198.41 413.709 L1198.41 378.397 L1207.99 378.397 L1207.99 413.345 Q1207.99 421.626 1211.22 425.793 Q1214.45 429.907 1220.91 429.907 Q1228.67 429.907 1233.15 424.959 Q1237.68 420.011 1237.68 411.47 L1237.68 378.397 L1247.26 378.397 L1247.26 436.73 L1237.68 436.73 L1237.68 427.772 Q1234.19 433.084 1229.56 435.688 Q1224.97 438.24 1218.88 438.24 Q1208.83 438.24 1203.62 431.99 Q1198.41 425.74 1198.41 413.709 M1222.52 376.991 L1222.52 376.991 Z" fill="#000000" fill-rule="nonzero" fill-opacity="1" /><path clip-path="url(#clip470)" d="M1316.9 405.168 L1316.9 409.855 L1272.84 409.855 Q1273.46 419.751 1278.77 424.959 Q1284.14 430.115 1293.67 430.115 Q1299.19 430.115 1304.35 428.761 Q1309.55 427.407 1314.66 424.699 L1314.66 433.761 Q1309.5 435.949 1304.09 437.095 Q1298.67 438.24 1293.1 438.24 Q1279.14 438.24 1270.96 430.115 Q1262.84 421.99 1262.84 408.136 Q1262.84 393.814 1270.54 385.428 Q1278.3 376.991 1291.43 376.991 Q1303.2 376.991 1310.02 384.595 Q1316.9 392.147 1316.9 405.168 M1307.32 402.355 Q1307.21 394.491 1302.89 389.803 Q1298.62 385.116 1291.53 385.116 Q1283.51 385.116 1278.67 389.647 Q1273.88 394.178 1273.15 402.407 L1307.32 402.355 Z" fill="#000000" fill-rule="nonzero" fill-opacity="1" /><circle clip-path="url(#clip470)" cx="945.1" cy="514.49" r="48.384" fill="#00ffff" fill-rule="evenodd" fill-opacity="1" stroke="none"/>
<path clip-path="url(#clip470)" d="M1037.32 475.61 L1048.62 475.61 L1067.94 504.516 L1087.37 475.61 L1098.67 475.61 L1073.67 512.954 L1100.34 553.37 L1089.04 553.37 L1067.16 520.297 L1045.13 553.37 L1033.77 553.37 L1061.54 511.86 L1037.32 475.61 Z" fill="#000000" fill-rule="nonzero" fill-opacity="1" /><path clip-path="url(#clip470)" d="M1162.21 518.162 L1162.21 553.37 L1152.63 553.37 L1152.63 518.474 Q1152.63 510.193 1149.4 506.079 Q1146.17 501.964 1139.71 501.964 Q1131.95 501.964 1127.47 506.912 Q1122.99 511.86 1122.99 520.401 L1122.99 553.37 L1113.36 553.37 L1113.36 472.329 L1122.99 472.329 L1122.99 504.099 Q1126.43 498.839 1131.07 496.235 Q1135.75 493.631 1141.85 493.631 Q1151.9 493.631 1157.06 499.881 Q1162.21 506.079 1162.21 518.162 Z" fill="#000000" fill-rule="nonzero" fill-opacity="1" /><path clip-path="url(#clip470)" d="M1238.25 472.433 Q1231.27 484.412 1227.89 496.131 Q1224.5 507.849 1224.5 519.881 Q1224.5 531.912 1227.89 543.735 Q1231.33 555.505 1238.25 567.432 L1229.92 567.432 Q1222.11 555.193 1218.2 543.37 Q1214.35 531.547 1214.35 519.881 Q1214.35 508.266 1218.2 496.495 Q1222.06 484.725 1229.92 472.433 L1238.25 472.433 Z" fill="#000000" fill-rule="nonzero" fill-opacity="1" /><path clip-path="url(#clip470)" d="M1257.26 475.61 L1301.95 475.61 L1301.95 484.464 L1267.78 484.464 L1267.78 507.381 L1298.62 507.381 L1298.62 516.235 L1267.78 516.235 L1267.78 553.37 L1257.26 553.37 L1257.26 475.61 Z" fill="#000000" fill-rule="nonzero" fill-opacity="1" /><path clip-path="url(#clip470)" d="M1318.62 475.61 L1329.14 475.61 L1329.14 553.37 L1318.62 553.37 L1318.62 475.61 Z" fill="#000000" fill-rule="nonzero" fill-opacity="1" /><path clip-path="url(#clip470)" d="M1396.69 478.162 L1396.69 488.422 Q1390.7 485.558 1385.39 484.152 Q1380.08 482.745 1375.13 482.745 Q1366.53 482.745 1361.85 486.079 Q1357.21 489.412 1357.21 495.558 Q1357.21 500.714 1360.28 503.37 Q1363.41 505.974 1372.05 507.589 L1378.41 508.891 Q1390.18 511.131 1395.75 516.808 Q1401.38 522.433 1401.38 531.912 Q1401.38 543.214 1393.77 549.047 Q1386.22 554.88 1371.59 554.88 Q1366.06 554.88 1359.81 553.63 Q1353.62 552.38 1346.95 549.933 L1346.95 539.099 Q1353.36 542.693 1359.5 544.516 Q1365.65 546.339 1371.59 546.339 Q1380.6 546.339 1385.49 542.797 Q1390.39 539.255 1390.39 532.693 Q1390.39 526.964 1386.85 523.735 Q1383.36 520.506 1375.34 518.891 L1368.93 517.641 Q1357.16 515.297 1351.9 510.297 Q1346.64 505.297 1346.64 496.391 Q1346.64 486.079 1353.88 480.141 Q1361.17 474.204 1373.93 474.204 Q1379.4 474.204 1385.08 475.193 Q1390.75 476.183 1396.69 478.162 Z" fill="#000000" fill-rule="nonzero" fill-opacity="1" /><path clip-path="url(#clip470)" d="M1407 475.61 L1472.78 475.61 L1472.78 484.464 L1445.18 484.464 L1445.18 553.37 L1434.61 553.37 L1434.61 484.464 L1407 484.464 L1407 475.61 Z" fill="#000000" fill-rule="nonzero" fill-opacity="1" /><path clip-path="url(#clip470)" d="M1500.65 485.975 L1486.38 524.672 L1514.97 524.672 L1500.65 485.975 M1494.71 475.61 L1506.64 475.61 L1536.27 553.37 L1525.33 553.37 L1518.25 533.422 L1483.2 533.422 L1476.12 553.37 L1465.02 553.37 L1494.71 475.61 Z" fill="#000000" fill-rule="nonzero" fill-opacity="1" /><path clip-path="url(#clip470)" d="M1590.39 544.62 L1590.39 575.557 L1580.75 575.557 L1580.75 495.037 L1590.39 495.037 L1590.39 503.891 Q1593.41 498.683 1597.99 496.183 Q1602.63 493.631 1609.03 493.631 Q1619.66 493.631 1626.27 502.068 Q1632.94 510.506 1632.94 524.256 Q1632.94 538.005 1626.27 546.443 Q1619.66 554.88 1609.03 554.88 Q1602.63 554.88 1597.99 552.38 Q1593.41 549.828 1590.39 544.62 M1622.99 524.256 Q1622.99 513.683 1618.62 507.693 Q1614.29 501.652 1606.69 501.652 Q1599.08 501.652 1594.71 507.693 Q1590.39 513.683 1590.39 524.256 Q1590.39 534.828 1594.71 540.87 Q1599.08 546.86 1606.69 546.86 Q1614.29 546.86 1618.62 540.87 Q1622.99 534.828 1622.99 524.256 Z" fill="#000000" fill-rule="nonzero" fill-opacity="1" /><path clip-path="url(#clip470)" d="M1648.82 472.329 L1658.41 472.329 L1658.41 553.37 L1648.82 553.37 L1648.82 472.329 Z" fill="#000000" fill-rule="nonzero" fill-opacity="1" /><path clip-path="url(#clip470)" d="M1704.97 524.047 Q1693.35 524.047 1688.88 526.703 Q1684.4 529.36 1684.4 535.766 Q1684.4 540.87 1687.73 543.891 Q1691.12 546.86 1696.9 546.86 Q1704.87 546.86 1709.66 541.235 Q1714.5 535.558 1714.5 526.183 L1714.5 524.047 L1704.97 524.047 M1724.08 520.089 L1724.08 553.37 L1714.5 553.37 L1714.5 544.516 Q1711.22 549.828 1706.32 552.38 Q1701.43 554.88 1694.34 554.88 Q1685.39 554.88 1680.07 549.88 Q1674.81 544.828 1674.81 536.391 Q1674.81 526.547 1681.38 521.547 Q1687.99 516.547 1701.06 516.547 L1714.5 516.547 L1714.5 515.61 Q1714.5 508.995 1710.13 505.401 Q1705.8 501.756 1697.94 501.756 Q1692.94 501.756 1688.2 502.954 Q1683.46 504.151 1679.08 506.547 L1679.08 497.693 Q1684.34 495.662 1689.29 494.672 Q1694.24 493.631 1698.93 493.631 Q1711.58 493.631 1717.83 500.193 Q1724.08 506.756 1724.08 520.089 Z" fill="#000000" fill-rule="nonzero" fill-opacity="1" /><path clip-path="url(#clip470)" d="M1785.8 497.277 L1785.8 506.235 Q1781.74 503.995 1777.63 502.902 Q1773.56 501.756 1769.4 501.756 Q1760.07 501.756 1754.92 507.693 Q1749.76 513.579 1749.76 524.256 Q1749.76 534.933 1754.92 540.87 Q1760.07 546.755 1769.4 546.755 Q1773.56 546.755 1777.63 545.662 Q1781.74 544.516 1785.8 542.276 L1785.8 551.13 Q1781.79 553.005 1777.47 553.943 Q1773.2 554.88 1768.35 554.88 Q1755.18 554.88 1747.42 546.599 Q1739.66 538.318 1739.66 524.256 Q1739.66 509.985 1747.47 501.808 Q1755.33 493.631 1768.98 493.631 Q1773.41 493.631 1777.63 494.568 Q1781.84 495.454 1785.8 497.277 Z" fill="#000000" fill-rule="nonzero" fill-opacity="1" /><path clip-path="url(#clip470)" d="M1852.36 521.808 L1852.36 526.495 L1808.3 526.495 Q1808.93 536.391 1814.24 541.599 Q1819.6 546.755 1829.14 546.755 Q1834.66 546.755 1839.81 545.401 Q1845.02 544.047 1850.12 541.339 L1850.12 550.401 Q1844.97 552.589 1839.55 553.735 Q1834.14 554.88 1828.56 554.88 Q1814.6 554.88 1806.43 546.755 Q1798.3 538.63 1798.3 524.776 Q1798.3 510.454 1806.01 502.068 Q1813.77 493.631 1826.9 493.631 Q1838.67 493.631 1845.49 501.235 Q1852.36 508.787 1852.36 521.808 M1842.78 518.995 Q1842.68 511.131 1838.35 506.443 Q1834.08 501.756 1827 501.756 Q1818.98 501.756 1814.14 506.287 Q1809.34 510.818 1808.61 519.047 L1842.78 518.995 Z" fill="#000000" fill-rule="nonzero" fill-opacity="1" /><path clip-path="url(#clip470)" d="M1916.58 518.162 L1916.58 553.37 L1907 553.37 L1907 518.474 Q1907 510.193 1903.77 506.079 Q1900.54 501.964 1894.08 501.964 Q1886.32 501.964 1881.84 506.912 Q1877.36 511.86 1877.36 520.401 L1877.36 553.37 L1867.73 553.37 L1867.73 472.329 L1877.36 472.329 L1877.36 504.099 Q1880.8 498.839 1885.44 496.235 Q1890.12 493.631 1896.22 493.631 Q1906.27 493.631 1911.43 499.881 Q1916.58 506.079 1916.58 518.162 Z" fill="#000000" fill-rule="nonzero" fill-opacity="1" /><path clip-path="url(#clip470)" d="M1958.3 501.756 Q1950.59 501.756 1946.11 507.797 Q1941.63 513.787 1941.63 524.256 Q1941.63 534.724 1946.06 540.766 Q1950.54 546.755 1958.3 546.755 Q1965.96 546.755 1970.44 540.714 Q1974.92 534.672 1974.92 524.256 Q1974.92 513.891 1970.44 507.849 Q1965.96 501.756 1958.3 501.756 M1958.3 493.631 Q1970.8 493.631 1977.94 501.756 Q1985.07 509.881 1985.07 524.256 Q1985.07 538.578 1977.94 546.755 Q1970.8 554.88 1958.3 554.88 Q1945.75 554.88 1938.61 546.755 Q1931.53 538.578 1931.53 524.256 Q1931.53 509.881 1938.61 501.756 Q1945.75 493.631 1958.3 493.631 Z" fill="#000000" fill-rule="nonzero" fill-opacity="1" /><path clip-path="url(#clip470)" d="M2000.96 472.329 L2010.54 472.329 L2010.54 553.37 L2000.96 553.37 L2000.96 472.329 Z" fill="#000000" fill-rule="nonzero" fill-opacity="1" /><path clip-path="url(#clip470)" d="M2068.98 503.891 L2068.98 472.329 L2078.56 472.329 L2078.56 553.37 L2068.98 553.37 L2068.98 544.62 Q2065.96 549.828 2061.32 552.38 Q2056.74 554.88 2050.28 554.88 Q2039.71 554.88 2033.04 546.443 Q2026.43 538.005 2026.43 524.256 Q2026.43 510.506 2033.04 502.068 Q2039.71 493.631 2050.28 493.631 Q2056.74 493.631 2061.32 496.183 Q2065.96 498.683 2068.98 503.891 M2036.32 524.256 Q2036.32 534.828 2040.64 540.87 Q2045.02 546.86 2052.62 546.86 Q2060.23 546.86 2064.6 540.87 Q2068.98 534.828 2068.98 524.256 Q2068.98 513.683 2064.6 507.693 Q2060.23 501.652 2052.62 501.652 Q2045.02 501.652 2040.64 507.693 Q2036.32 513.683 2036.32 524.256 Z" fill="#000000" fill-rule="nonzero" fill-opacity="1" /><path clip-path="url(#clip470)" d="M2148.2 521.808 L2148.2 526.495 L2104.13 526.495 Q2104.76 536.391 2110.07 541.599 Q2115.44 546.755 2124.97 546.755 Q2130.49 546.755 2135.64 545.401 Q2140.85 544.047 2145.96 541.339 L2145.96 550.401 Q2140.8 552.589 2135.38 553.735 Q2129.97 554.88 2124.39 554.88 Q2110.44 554.88 2102.26 546.755 Q2094.13 538.63 2094.13 524.776 Q2094.13 510.454 2101.84 502.068 Q2109.6 493.631 2122.73 493.631 Q2134.5 493.631 2141.32 501.235 Q2148.2 508.787 2148.2 521.808 M2138.61 518.995 Q2138.51 511.131 2134.19 506.443 Q2129.91 501.756 2122.83 501.756 Q2114.81 501.756 2109.97 506.287 Q2105.18 510.818 2104.45 519.047 L2138.61 518.995 Z" fill="#000000" fill-rule="nonzero" fill-opacity="1" /><path clip-path="url(#clip470)" d="M2197.73 503.995 Q2196.11 503.058 2194.19 502.641 Q2192.31 502.172 2190.02 502.172 Q2181.89 502.172 2177.52 507.485 Q2173.2 512.745 2173.2 522.641 L2173.2 553.37 L2163.56 553.37 L2163.56 495.037 L2173.2 495.037 L2173.2 504.099 Q2176.22 498.787 2181.06 496.235 Q2185.9 493.631 2192.83 493.631 Q2193.82 493.631 2195.02 493.787 Q2196.22 493.891 2197.67 494.152 L2197.73 503.995 Z" fill="#000000" fill-rule="nonzero" fill-opacity="1" /><path clip-path="url(#clip470)" d="M2240.17 472.433 L2248.51 472.433 Q2256.32 484.725 2260.17 496.495 Q2264.08 508.266 2264.08 519.881 Q2264.08 531.547 2260.17 543.37 Q2256.32 555.193 2248.51 567.432 L2240.17 567.432 Q2247.1 555.505 2250.49 543.735 Q2253.92 531.912 2253.92 519.881 Q2253.92 507.849 2250.49 496.131 Q2247.1 484.412 2240.17 472.433 Z" fill="#000000" fill-rule="nonzero" fill-opacity="1" /></svg>
