<?xml version="1.0" encoding="utf-8"?>
<svg xmlns="http://www.w3.org/2000/svg" xmlns:xlink="http://www.w3.org/1999/xlink" width="600" height="350" viewBox="0 0 2400 1400">
<defs>
  <clipPath id="clip290">
    <rect x="0" y="0" width="2400" height="1400"/>
  </clipPath>
</defs>
<path clip-path="url(#clip290)" d="M0 1400 L2400 1400 L2400 0 L0 0  Z" fill="#ffffff" fill-rule="evenodd" fill-opacity="1"/>
<defs>
  <clipPath id="clip291">
    <rect x="357" y="131" width="1996" height="1007"/>
  </clipPath>
</defs>
<path clip-path="url(#clip290)" d="M357.566 1137.17 L2352.76 1137.17 L2352.76 131.032 L357.566 131.032  Z" fill="#ffffff" fill-rule="evenodd" fill-opacity="1"/>
<polyline clip-path="url(#clip291)" style="stroke:#000000; stroke-linecap:round; stroke-linejoin:round; stroke-width:2; stroke-opacity:0.1; fill:none" points="414.034,1137.17 414.034,131.032 "/>
<polyline clip-path="url(#clip291)" style="stroke:#000000; stroke-linecap:round; stroke-linejoin:round; stroke-width:2; stroke-opacity:0.1; fill:none" points="556.091,1137.17 556.091,131.032 "/>
<polyline clip-path="url(#clip291)" style="stroke:#000000; stroke-linecap:round; stroke-linejoin:round; stroke-width:2; stroke-opacity:0.1; fill:none" points="1728.06,1137.17 1728.06,131.032 "/>
<polyline clip-path="url(#clip291)" style="stroke:#000000; stroke-linecap:round; stroke-linejoin:round; stroke-width:2; stroke-opacity:0.1; fill:none" points="2296.29,1137.17 2296.29,131.032 "/>
<polyline clip-path="url(#clip291)" style="stroke:#000000; stroke-linecap:round; stroke-linejoin:round; stroke-width:2; stroke-opacity:0.1; fill:none" points="357.566,1108.69 2352.76,1108.69 "/>
<polyline clip-path="url(#clip291)" style="stroke:#000000; stroke-linecap:round; stroke-linejoin:round; stroke-width:2; stroke-opacity:0.1; fill:none" points="357.566,850.261 2352.76,850.261 "/>
<polyline clip-path="url(#clip291)" style="stroke:#000000; stroke-linecap:round; stroke-linejoin:round; stroke-width:2; stroke-opacity:0.1; fill:none" points="357.566,591.83 2352.76,591.83 "/>
<polyline clip-path="url(#clip291)" style="stroke:#000000; stroke-linecap:round; stroke-linejoin:round; stroke-width:2; stroke-opacity:0.1; fill:none" points="357.566,333.398 2352.76,333.398 "/>
<polyline clip-path="url(#clip290)" style="stroke:#000000; stroke-linecap:round; stroke-linejoin:round; stroke-width:4; stroke-opacity:1; fill:none" points="357.566,1137.17 2352.76,1137.17 "/>
<polyline clip-path="url(#clip290)" style="stroke:#000000; stroke-linecap:round; stroke-linejoin:round; stroke-width:4; stroke-opacity:1; fill:none" points="414.034,1137.17 414.034,1118.27 "/>
<polyline clip-path="url(#clip290)" style="stroke:#000000; stroke-linecap:round; stroke-linejoin:round; stroke-width:4; stroke-opacity:1; fill:none" points="556.091,1137.17 556.091,1118.27 "/>
<polyline clip-path="url(#clip290)" style="stroke:#000000; stroke-linecap:round; stroke-linejoin:round; stroke-width:4; stroke-opacity:1; fill:none" points="1728.06,1137.17 1728.06,1118.27 "/>
<polyline clip-path="url(#clip290)" style="stroke:#000000; stroke-linecap:round; stroke-linejoin:round; stroke-width:4; stroke-opacity:1; fill:none" points="2296.29,1137.17 2296.29,1118.27 "/>
<path clip-path="url(#clip290)" d="M402.011 1205.45 L411.56 1205.45 L411.56 1172.49 L401.172 1174.58 L401.172 1169.25 L411.502 1167.17 L417.347 1167.17 L417.347 1205.45 L426.895 1205.45 L426.895 1210.37 L402.011 1210.37 L402.011 1205.45 Z" fill="#000000" fill-rule="nonzero" fill-opacity="1" /><path clip-path="url(#clip290)" d="M543.938 1167.17 L566.883 1167.17 L566.883 1172.09 L549.291 1172.09 L549.291 1182.68 Q550.564 1182.24 551.837 1182.04 Q553.11 1181.81 554.384 1181.81 Q561.617 1181.81 565.842 1185.77 Q570.066 1189.74 570.066 1196.51 Q570.066 1203.48 565.726 1207.36 Q561.386 1211.21 553.487 1211.21 Q550.767 1211.21 547.931 1210.74 Q545.124 1210.28 542.115 1209.36 L542.115 1203.48 Q544.719 1204.9 547.497 1205.59 Q550.275 1206.29 553.371 1206.29 Q558.377 1206.29 561.299 1203.65 Q564.221 1201.02 564.221 1196.51 Q564.221 1191.99 561.299 1189.36 Q558.377 1186.73 553.371 1186.73 Q551.027 1186.73 548.683 1187.25 Q546.368 1187.77 543.938 1188.87 L543.938 1167.17 Z" fill="#000000" fill-rule="nonzero" fill-opacity="1" /><path clip-path="url(#clip290)" d="M1714.17 1187.08 Q1718.37 1187.97 1720.71 1190.81 Q1723.08 1193.64 1723.08 1197.81 Q1723.08 1204.2 1718.69 1207.71 Q1714.29 1211.21 1706.19 1211.21 Q1703.47 1211.21 1700.57 1210.66 Q1697.71 1210.14 1694.64 1209.07 L1694.64 1203.42 Q1697.07 1204.84 1699.96 1205.56 Q1702.86 1206.29 1706.01 1206.29 Q1711.51 1206.29 1714.37 1204.12 Q1717.27 1201.95 1717.27 1197.81 Q1717.27 1193.99 1714.58 1191.85 Q1711.91 1189.68 1707.14 1189.68 L1702.11 1189.68 L1702.11 1184.88 L1707.37 1184.88 Q1711.68 1184.88 1713.97 1183.17 Q1716.25 1181.43 1716.25 1178.19 Q1716.25 1174.86 1713.88 1173.1 Q1711.54 1171.31 1707.14 1171.31 Q1704.74 1171.31 1701.99 1171.83 Q1699.24 1172.35 1695.94 1173.45 L1695.94 1168.24 Q1699.27 1167.31 1702.16 1166.85 Q1705.09 1166.39 1707.66 1166.39 Q1714.32 1166.39 1718.19 1169.42 Q1722.07 1172.43 1722.07 1177.58 Q1722.07 1181.17 1720.02 1183.66 Q1717.96 1186.12 1714.17 1187.08 Z" fill="#000000" fill-rule="nonzero" fill-opacity="1" /><path clip-path="url(#clip290)" d="M1746.67 1189.85 Q1742.5 1189.85 1740.1 1192.08 Q1737.72 1194.31 1737.72 1198.22 Q1737.72 1202.12 1740.1 1204.35 Q1742.5 1206.58 1746.67 1206.58 Q1750.83 1206.58 1753.23 1204.35 Q1755.64 1202.09 1755.64 1198.22 Q1755.64 1194.31 1753.23 1192.08 Q1750.86 1189.85 1746.67 1189.85 M1740.82 1187.36 Q1737.06 1186.44 1734.95 1183.86 Q1732.86 1181.29 1732.86 1177.58 Q1732.86 1172.41 1736.54 1169.4 Q1740.24 1166.39 1746.67 1166.39 Q1753.12 1166.39 1756.79 1169.4 Q1760.47 1172.41 1760.47 1177.58 Q1760.47 1181.29 1758.36 1183.86 Q1756.27 1186.44 1752.54 1187.36 Q1756.76 1188.35 1759.11 1191.21 Q1761.48 1194.08 1761.48 1198.22 Q1761.48 1204.49 1757.63 1207.85 Q1753.81 1211.21 1746.67 1211.21 Q1739.52 1211.21 1735.67 1207.85 Q1731.85 1204.49 1731.85 1198.22 Q1731.85 1194.08 1734.22 1191.21 Q1736.6 1188.35 1740.82 1187.36 M1738.68 1178.13 Q1738.68 1181.49 1740.76 1183.37 Q1742.88 1185.25 1746.67 1185.25 Q1750.43 1185.25 1752.54 1183.37 Q1754.68 1181.49 1754.68 1178.13 Q1754.68 1174.78 1752.54 1172.9 Q1750.43 1171.02 1746.67 1171.02 Q1742.88 1171.02 1740.76 1172.9 Q1738.68 1174.78 1738.68 1178.13 Z" fill="#000000" fill-rule="nonzero" fill-opacity="1" /><path clip-path="url(#clip290)" d="M2264.36 1167.17 L2287.3 1167.17 L2287.3 1172.09 L2269.71 1172.09 L2269.71 1182.68 Q2270.98 1182.24 2272.26 1182.04 Q2273.53 1181.81 2274.8 1181.81 Q2282.04 1181.81 2286.26 1185.77 Q2290.49 1189.74 2290.49 1196.51 Q2290.49 1203.48 2286.15 1207.36 Q2281.81 1211.21 2273.91 1211.21 Q2271.19 1211.21 2268.35 1210.74 Q2265.54 1210.28 2262.54 1209.36 L2262.54 1203.48 Q2265.14 1204.9 2267.92 1205.59 Q2270.7 1206.29 2273.79 1206.29 Q2278.8 1206.29 2281.72 1203.65 Q2284.64 1201.02 2284.64 1196.51 Q2284.64 1191.99 2281.72 1189.36 Q2278.8 1186.73 2273.79 1186.73 Q2271.45 1186.73 2269.1 1187.25 Q2266.79 1187.77 2264.36 1188.87 L2264.36 1167.17 Z" fill="#000000" fill-rule="nonzero" fill-opacity="1" /><path clip-path="url(#clip290)" d="M2318.06 1172.26 L2303.31 1195.32 L2318.06 1195.32 L2318.06 1172.26 M2316.53 1167.17 L2323.88 1167.17 L2323.88 1195.32 L2330.04 1195.32 L2330.04 1200.18 L2323.88 1200.18 L2323.88 1210.37 L2318.06 1210.37 L2318.06 1200.18 L2298.56 1200.18 L2298.56 1194.54 L2316.53 1167.17 Z" fill="#000000" fill-rule="nonzero" fill-opacity="1" /><path clip-path="url(#clip290)" d="M1376.17 1280.21 Q1376.17 1283.22 1374.33 1285.01 Q1372.53 1286.8 1370.27 1286.8 Q1368.26 1286.8 1367.21 1285.64 Q1366.16 1284.48 1366.16 1283.01 Q1366.16 1282.37 1366.42 1281.58 Q1366.68 1280.74 1367.26 1279.74 Q1367.9 1278.74 1369.21 1278 Q1370.53 1277.26 1372.32 1277.16 Q1371.95 1276.79 1371.85 1276.73 Q1371.06 1276.1 1369.58 1275.89 Q1369.37 1275.79 1368.63 1275.79 Q1365 1275.79 1361.31 1278.47 Q1357.67 1281.11 1353.19 1286.12 Q1347.55 1291.96 1343.92 1294.13 Q1359.89 1296.23 1359.89 1305.46 Q1359.89 1306.98 1359.46 1308.83 Q1358.62 1312.31 1358.62 1314.84 Q1358.62 1319.9 1362.05 1319.9 Q1365.37 1319.9 1367.47 1316.52 Q1369.63 1313.15 1371.43 1306.56 Q1371.69 1305.35 1371.95 1304.98 Q1372.22 1304.61 1372.95 1304.61 Q1374.27 1304.61 1374.27 1305.67 Q1373.06 1311.83 1370.37 1316.58 Q1366.95 1322.32 1361.84 1322.32 Q1357.57 1322.32 1354.72 1319.37 Q1351.93 1316.37 1351.93 1311.62 Q1351.93 1310.46 1352.35 1307.83 Q1352.67 1306.77 1352.67 1305.56 Q1352.67 1303.08 1351.29 1301.24 Q1349.92 1299.34 1347.71 1298.39 Q1345.5 1297.45 1343.65 1297.02 Q1341.86 1296.55 1340.12 1296.39 Q1334.85 1318.68 1334.11 1320.05 Q1333.64 1321 1332.59 1321.64 Q1331.53 1322.32 1330.43 1322.32 Q1329.37 1322.32 1328.32 1321.58 Q1327.32 1320.9 1327.32 1319.26 Q1327.32 1318.42 1327.74 1316.89 L1343.39 1254.71 L1343.71 1252.6 Q1343.71 1251.97 1343.44 1251.65 Q1343.23 1251.28 1341.97 1251.02 Q1340.75 1250.75 1338.33 1250.75 Q1337.33 1250.75 1336.85 1250.7 Q1336.43 1250.65 1336.06 1250.38 Q1335.7 1250.07 1335.7 1249.44 Q1335.7 1248.54 1336.06 1248.07 Q1336.49 1247.54 1336.8 1247.43 Q1337.12 1247.33 1337.75 1247.27 Q1338.65 1247.22 1341.65 1246.96 Q1344.65 1246.64 1347.24 1246.43 Q1349.82 1246.22 1350.93 1246.22 Q1351.56 1246.22 1351.87 1246.54 Q1352.24 1246.8 1352.3 1247.12 L1352.35 1247.38 L1341.12 1292.91 Q1345.76 1291.07 1353.09 1282.9 Q1361.57 1273.41 1368.84 1273.41 Q1372.27 1273.41 1374.22 1275.52 Q1376.17 1277.58 1376.17 1280.21 Z" fill="#000000" fill-rule="nonzero" fill-opacity="1" /><polyline clip-path="url(#clip290)" style="stroke:#000000; stroke-linecap:round; stroke-linejoin:round; stroke-width:4; stroke-opacity:1; fill:none" points="357.566,1137.17 357.566,131.032 "/>
<polyline clip-path="url(#clip290)" style="stroke:#000000; stroke-linecap:round; stroke-linejoin:round; stroke-width:4; stroke-opacity:1; fill:none" points="357.566,1108.69 376.464,1108.69 "/>
<polyline clip-path="url(#clip290)" style="stroke:#000000; stroke-linecap:round; stroke-linejoin:round; stroke-width:4; stroke-opacity:1; fill:none" points="357.566,850.261 376.464,850.261 "/>
<polyline clip-path="url(#clip290)" style="stroke:#000000; stroke-linecap:round; stroke-linejoin:round; stroke-width:4; stroke-opacity:1; fill:none" points="357.566,591.83 376.464,591.83 "/>
<polyline clip-path="url(#clip290)" style="stroke:#000000; stroke-linecap:round; stroke-linejoin:round; stroke-width:4; stroke-opacity:1; fill:none" points="357.566,333.398 376.464,333.398 "/>
<path clip-path="url(#clip290)" d="M306.636 1090.94 Q302.122 1090.94 299.836 1095.4 Q297.579 1099.82 297.579 1108.74 Q297.579 1117.62 299.836 1122.07 Q302.122 1126.5 306.636 1126.5 Q311.178 1126.5 313.435 1122.07 Q315.721 1117.62 315.721 1108.74 Q315.721 1099.82 313.435 1095.4 Q311.178 1090.94 306.636 1090.94 M306.636 1086.31 Q313.898 1086.31 317.718 1092.07 Q321.566 1097.8 321.566 1108.74 Q321.566 1119.64 317.718 1125.4 Q313.898 1131.13 306.636 1131.13 Q299.373 1131.13 295.525 1125.4 Q291.705 1119.64 291.705 1108.74 Q291.705 1097.8 295.525 1092.07 Q299.373 1086.31 306.636 1086.31 Z" fill="#000000" fill-rule="nonzero" fill-opacity="1" /><path clip-path="url(#clip290)" d="M182.041 866.942 L191.59 866.942 L191.59 833.985 L181.202 836.068 L181.202 830.744 L191.532 828.661 L197.377 828.661 L197.377 866.942 L206.925 866.942 L206.925 871.861 L182.041 871.861 L182.041 866.942 Z" fill="#000000" fill-rule="nonzero" fill-opacity="1" /><path clip-path="url(#clip290)" d="M231.231 832.509 Q226.717 832.509 224.431 836.965 Q222.174 841.392 222.174 850.304 Q222.174 859.187 224.431 863.643 Q226.717 868.071 231.231 868.071 Q235.774 868.071 238.031 863.643 Q240.317 859.187 240.317 850.304 Q240.317 841.392 238.031 836.965 Q235.774 832.509 231.231 832.509 M231.231 827.88 Q238.494 827.88 242.313 833.638 Q246.161 839.367 246.161 850.304 Q246.161 861.213 242.313 866.971 Q238.494 872.7 231.231 872.7 Q223.968 872.7 220.12 866.971 Q216.3 861.213 216.3 850.304 Q216.3 839.367 220.12 833.638 Q223.968 827.88 231.231 827.88 Z" fill="#000000" fill-rule="nonzero" fill-opacity="1" /><path clip-path="url(#clip290)" d="M268.933 832.509 Q264.419 832.509 262.134 836.965 Q259.877 841.392 259.877 850.304 Q259.877 859.187 262.134 863.643 Q264.419 868.071 268.933 868.071 Q273.476 868.071 275.733 863.643 Q278.019 859.187 278.019 850.304 Q278.019 841.392 275.733 836.965 Q273.476 832.509 268.933 832.509 M268.933 827.88 Q276.196 827.88 280.015 833.638 Q283.864 839.367 283.864 850.304 Q283.864 861.213 280.015 866.971 Q276.196 872.7 268.933 872.7 Q261.671 872.7 257.822 866.971 Q254.003 861.213 254.003 850.304 Q254.003 839.367 257.822 833.638 Q261.671 827.88 268.933 827.88 Z" fill="#000000" fill-rule="nonzero" fill-opacity="1" /><path clip-path="url(#clip290)" d="M306.636 832.509 Q302.122 832.509 299.836 836.965 Q297.579 841.392 297.579 850.304 Q297.579 859.187 299.836 863.643 Q302.122 868.071 306.636 868.071 Q311.178 868.071 313.435 863.643 Q315.721 859.187 315.721 850.304 Q315.721 841.392 313.435 836.965 Q311.178 832.509 306.636 832.509 M306.636 827.88 Q313.898 827.88 317.718 833.638 Q321.566 839.367 321.566 850.304 Q321.566 861.213 317.718 866.971 Q313.898 872.7 306.636 872.7 Q299.373 872.7 295.525 866.971 Q291.705 861.213 291.705 850.304 Q291.705 839.367 295.525 833.638 Q299.373 827.88 306.636 827.88 Z" fill="#000000" fill-rule="nonzero" fill-opacity="1" /><path clip-path="url(#clip290)" d="M186.063 608.511 L206.463 608.511 L206.463 613.43 L179.032 613.43 L179.032 608.511 Q182.36 605.067 188.089 599.28 Q193.847 593.465 195.323 591.786 Q198.129 588.632 199.229 586.462 Q200.357 584.263 200.357 582.151 Q200.357 578.708 197.927 576.538 Q195.525 574.367 191.648 574.367 Q188.899 574.367 185.832 575.322 Q182.794 576.277 179.321 578.216 L179.321 572.313 Q182.852 570.895 185.919 570.172 Q188.986 569.448 191.532 569.448 Q198.245 569.448 202.238 572.805 Q206.231 576.161 206.231 581.775 Q206.231 584.437 205.218 586.838 Q204.235 589.211 201.601 592.452 Q200.878 593.291 197.001 597.313 Q193.123 601.306 186.063 608.511 Z" fill="#000000" fill-rule="nonzero" fill-opacity="1" /><path clip-path="url(#clip290)" d="M231.231 574.078 Q226.717 574.078 224.431 578.534 Q222.174 582.961 222.174 591.873 Q222.174 600.756 224.431 605.212 Q226.717 609.639 231.231 609.639 Q235.774 609.639 238.031 605.212 Q240.317 600.756 240.317 591.873 Q240.317 582.961 238.031 578.534 Q235.774 574.078 231.231 574.078 M231.231 569.448 Q238.494 569.448 242.313 575.207 Q246.161 580.936 246.161 591.873 Q246.161 602.782 242.313 608.54 Q238.494 614.269 231.231 614.269 Q223.968 614.269 220.12 608.54 Q216.3 602.782 216.3 591.873 Q216.3 580.936 220.12 575.207 Q223.968 569.448 231.231 569.448 Z" fill="#000000" fill-rule="nonzero" fill-opacity="1" /><path clip-path="url(#clip290)" d="M268.933 574.078 Q264.419 574.078 262.134 578.534 Q259.877 582.961 259.877 591.873 Q259.877 600.756 262.134 605.212 Q264.419 609.639 268.933 609.639 Q273.476 609.639 275.733 605.212 Q278.019 600.756 278.019 591.873 Q278.019 582.961 275.733 578.534 Q273.476 574.078 268.933 574.078 M268.933 569.448 Q276.196 569.448 280.015 575.207 Q283.864 580.936 283.864 591.873 Q283.864 602.782 280.015 608.54 Q276.196 614.269 268.933 614.269 Q261.671 614.269 257.822 608.54 Q254.003 602.782 254.003 591.873 Q254.003 580.936 257.822 575.207 Q261.671 569.448 268.933 569.448 Z" fill="#000000" fill-rule="nonzero" fill-opacity="1" /><path clip-path="url(#clip290)" d="M306.636 574.078 Q302.122 574.078 299.836 578.534 Q297.579 582.961 297.579 591.873 Q297.579 600.756 299.836 605.212 Q302.122 609.639 306.636 609.639 Q311.178 609.639 313.435 605.212 Q315.721 600.756 315.721 591.873 Q315.721 582.961 313.435 578.534 Q311.178 574.078 306.636 574.078 M306.636 569.448 Q313.898 569.448 317.718 575.207 Q321.566 580.936 321.566 591.873 Q321.566 602.782 317.718 608.54 Q313.898 614.269 306.636 614.269 Q299.373 614.269 295.525 608.54 Q291.705 602.782 291.705 591.873 Q291.705 580.936 295.525 575.207 Q299.373 569.448 306.636 569.448 Z" fill="#000000" fill-rule="nonzero" fill-opacity="1" /><path clip-path="url(#clip290)" d="M198.737 331.706 Q202.932 332.603 205.276 335.438 Q207.649 338.274 207.649 342.441 Q207.649 348.835 203.251 352.336 Q198.853 355.837 190.751 355.837 Q188.031 355.837 185.137 355.288 Q182.273 354.767 179.206 353.696 L179.206 348.054 Q181.636 349.472 184.53 350.195 Q187.423 350.919 190.577 350.919 Q196.075 350.919 198.939 348.748 Q201.833 346.578 201.833 342.441 Q201.833 338.621 199.142 336.48 Q196.48 334.31 191.706 334.31 L186.671 334.31 L186.671 329.507 L191.937 329.507 Q196.248 329.507 198.534 327.799 Q200.82 326.063 200.82 322.823 Q200.82 319.495 198.448 317.73 Q196.104 315.936 191.706 315.936 Q189.304 315.936 186.555 316.457 Q183.806 316.978 180.508 318.077 L180.508 312.869 Q183.835 311.943 186.729 311.48 Q189.651 311.017 192.226 311.017 Q198.882 311.017 202.759 314.055 Q206.636 317.065 206.636 322.215 Q206.636 325.803 204.582 328.291 Q202.527 330.751 198.737 331.706 Z" fill="#000000" fill-rule="nonzero" fill-opacity="1" /><path clip-path="url(#clip290)" d="M231.231 315.647 Q226.717 315.647 224.431 320.103 Q222.174 324.53 222.174 333.442 Q222.174 342.325 224.431 346.781 Q226.717 351.208 231.231 351.208 Q235.774 351.208 238.031 346.781 Q240.317 342.325 240.317 333.442 Q240.317 324.53 238.031 320.103 Q235.774 315.647 231.231 315.647 M231.231 311.017 Q238.494 311.017 242.313 316.775 Q246.161 322.504 246.161 333.442 Q246.161 344.35 242.313 350.108 Q238.494 355.837 231.231 355.837 Q223.968 355.837 220.12 350.108 Q216.3 344.35 216.3 333.442 Q216.3 322.504 220.12 316.775 Q223.968 311.017 231.231 311.017 Z" fill="#000000" fill-rule="nonzero" fill-opacity="1" /><path clip-path="url(#clip290)" d="M268.933 315.647 Q264.419 315.647 262.134 320.103 Q259.877 324.53 259.877 333.442 Q259.877 342.325 262.134 346.781 Q264.419 351.208 268.933 351.208 Q273.476 351.208 275.733 346.781 Q278.019 342.325 278.019 333.442 Q278.019 324.53 275.733 320.103 Q273.476 315.647 268.933 315.647 M268.933 311.017 Q276.196 311.017 280.015 316.775 Q283.864 322.504 283.864 333.442 Q283.864 344.35 280.015 350.108 Q276.196 355.837 268.933 355.837 Q261.671 355.837 257.822 350.108 Q254.003 344.35 254.003 333.442 Q254.003 322.504 257.822 316.775 Q261.671 311.017 268.933 311.017 Z" fill="#000000" fill-rule="nonzero" fill-opacity="1" /><path clip-path="url(#clip290)" d="M306.636 315.647 Q302.122 315.647 299.836 320.103 Q297.579 324.53 297.579 333.442 Q297.579 342.325 299.836 346.781 Q302.122 351.208 306.636 351.208 Q311.178 351.208 313.435 346.781 Q315.721 342.325 315.721 333.442 Q315.721 324.53 313.435 320.103 Q311.178 315.647 306.636 315.647 M306.636 311.017 Q313.898 311.017 317.718 316.775 Q321.566 322.504 321.566 333.442 Q321.566 344.35 317.718 350.108 Q313.898 355.837 306.636 355.837 Q299.373 355.837 295.525 350.108 Q291.705 344.35 291.705 333.442 Q291.705 322.504 295.525 316.775 Q299.373 311.017 306.636 311.017 Z" fill="#000000" fill-rule="nonzero" fill-opacity="1" /><path clip-path="url(#clip290)" d="M74.8692 607.532 Q78.5583 607.532 78.5583 612.802 L78.5583 624.66 Q83.3013 621.34 90.3105 621.34 Q96.3183 621.34 101.957 623.816 Q107.544 626.241 111.443 630.14 Q115.343 633.988 117.715 638.836 Q120.034 643.685 120.034 648.428 Q120.034 655.648 115.132 660.127 Q110.231 664.607 102.959 664.607 Q99.1115 664.607 94.8427 663.289 Q90.574 661.919 86.6214 659.337 Q82.6162 656.754 79.4015 653.381 Q76.1867 649.956 74.2368 645.529 Q72.2869 641.049 72.2869 636.359 L72.2869 611.748 Q72.2869 610.431 72.3923 609.745 Q72.445 609.008 73.0774 608.27 Q73.6571 607.532 74.8692 607.532 M89.0457 628.243 Q87.7808 628.243 86.6741 628.401 Q85.5147 628.559 83.9864 629.139 Q82.4054 629.719 81.2987 630.72 Q80.1393 631.722 79.3488 633.671 Q78.5583 635.569 78.5583 638.151 Q78.5583 641.787 80.5609 645.793 Q82.5635 649.798 87.5173 652.854 Q91.7334 655.384 97.2142 656.649 Q102.695 657.914 105.963 657.914 Q111.549 657.914 114.605 655.226 Q117.609 652.486 117.609 648.322 Q117.609 644.897 115.291 640.997 Q112.919 637.097 108.439 634.093 Q104.54 631.458 98.8479 629.877 Q93.1563 628.243 89.0457 628.243 Z" fill="#000000" fill-rule="nonzero" fill-opacity="1" /><path clip-path="url(#clip290)" d="M998.21 36.6977 L998.21 45.7602 Q994.147 43.6768 989.772 42.6352 Q985.397 41.5935 980.71 41.5935 Q973.574 41.5935 969.981 43.781 Q966.439 45.9685 966.439 50.3435 Q966.439 53.6768 968.991 55.6039 Q971.543 57.4789 979.252 59.1976 L982.533 59.9268 Q992.741 62.1143 997.012 66.1246 Q1001.33 70.083 1001.33 77.2183 Q1001.33 85.3433 994.876 90.0829 Q988.47 94.8224 977.22 94.8224 Q972.533 94.8224 967.429 93.8849 Q962.377 92.9995 956.752 91.1766 L956.752 81.2808 Q962.064 84.0412 967.22 85.4475 Q972.377 86.8016 977.429 86.8016 Q984.199 86.8016 987.845 84.51 Q991.491 82.1662 991.491 77.9475 Q991.491 74.0413 988.835 71.9579 Q986.231 69.8746 977.324 67.9476 L973.991 67.1663 Q965.085 65.2913 961.127 61.4372 Q957.168 57.5309 957.168 50.7601 Q957.168 42.531 963.002 38.0519 Q968.835 33.5727 979.564 33.5727 Q984.877 33.5727 989.564 34.354 Q994.251 35.1352 998.21 36.6977 Z" fill="#000000" fill-rule="nonzero" fill-opacity="1" /><path clip-path="url(#clip290)" d="M1016.6 34.979 L1026.18 34.979 L1026.18 93.312 L1016.6 93.312 L1016.6 34.979 M1016.6 12.2708 L1026.18 12.2708 L1026.18 24.4061 L1016.6 24.4061 L1016.6 12.2708 Z" fill="#000000" fill-rule="nonzero" fill-opacity="1" /><path clip-path="url(#clip290)" d="M1094.72 58.1039 L1094.72 93.312 L1085.14 93.312 L1085.14 58.4164 Q1085.14 50.1351 1081.91 46.0206 Q1078.68 41.906 1072.22 41.906 Q1064.46 41.906 1059.98 46.8539 Q1055.5 51.8018 1055.5 60.3434 L1055.5 93.312 L1045.87 93.312 L1045.87 34.979 L1055.5 34.979 L1055.5 44.0414 Q1058.94 38.781 1063.57 36.1769 Q1068.26 33.5727 1074.36 33.5727 Q1084.41 33.5727 1089.56 39.8227 Q1094.72 46.0206 1094.72 58.1039 Z" fill="#000000" fill-rule="nonzero" fill-opacity="1" /><path clip-path="url(#clip290)" d="M1152.22 63.4684 Q1152.22 53.0518 1147.9 47.3227 Q1143.63 41.5935 1135.87 41.5935 Q1128.16 41.5935 1123.83 47.3227 Q1119.56 53.0518 1119.56 63.4684 Q1119.56 73.8329 1123.83 79.5621 Q1128.16 85.2912 1135.87 85.2912 Q1143.63 85.2912 1147.9 79.5621 Q1152.22 73.8329 1152.22 63.4684 M1161.8 86.0725 Q1161.8 100.968 1155.19 108.208 Q1148.57 115.499 1134.93 115.499 Q1129.88 115.499 1125.4 114.718 Q1120.92 113.989 1116.7 112.426 L1116.7 103.104 Q1120.92 105.395 1125.03 106.489 Q1129.15 107.583 1133.42 107.583 Q1142.84 107.583 1147.53 102.635 Q1152.22 97.7391 1152.22 87.7912 L1152.22 83.0516 Q1149.25 88.2079 1144.62 90.7599 Q1139.98 93.312 1133.52 93.312 Q1122.79 93.312 1116.23 85.135 Q1109.67 76.9579 1109.67 63.4684 Q1109.67 49.9268 1116.23 41.7498 Q1122.79 33.5727 1133.52 33.5727 Q1139.98 33.5727 1144.62 36.1248 Q1149.25 38.6769 1152.22 43.8331 L1152.22 34.979 L1161.8 34.979 L1161.8 86.0725 Z" fill="#000000" fill-rule="nonzero" fill-opacity="1" /><path clip-path="url(#clip290)" d="M1180.55 70.2913 L1180.55 34.979 L1190.14 34.979 L1190.14 69.9267 Q1190.14 78.2079 1193.36 82.3746 Q1196.59 86.4891 1203.05 86.4891 Q1210.81 86.4891 1215.29 81.5412 Q1219.82 76.5933 1219.82 68.0517 L1219.82 34.979 L1229.41 34.979 L1229.41 93.312 L1219.82 93.312 L1219.82 84.3537 Q1216.33 89.6662 1211.7 92.2703 Q1207.11 94.8224 1201.02 94.8224 Q1190.97 94.8224 1185.76 88.5724 Q1180.55 82.3225 1180.55 70.2913 M1204.67 33.5727 L1204.67 33.5727 Z" fill="#000000" fill-rule="nonzero" fill-opacity="1" /><path clip-path="url(#clip290)" d="M1249.15 12.2708 L1258.73 12.2708 L1258.73 93.312 L1249.15 93.312 L1249.15 12.2708 Z" fill="#000000" fill-rule="nonzero" fill-opacity="1" /><path clip-path="url(#clip290)" d="M1305.29 63.9892 Q1293.68 63.9892 1289.2 66.6455 Q1284.72 69.3017 1284.72 75.7079 Q1284.72 80.8121 1288.05 83.8329 Q1291.44 86.8016 1297.22 86.8016 Q1305.19 86.8016 1309.98 81.1766 Q1314.82 75.4996 1314.82 66.1246 L1314.82 63.9892 L1305.29 63.9892 M1324.41 60.0309 L1324.41 93.312 L1314.82 93.312 L1314.82 84.4579 Q1311.54 89.7704 1306.65 92.3224 Q1301.75 94.8224 1294.67 94.8224 Q1285.71 94.8224 1280.4 89.8224 Q1275.14 84.7704 1275.14 76.3329 Q1275.14 66.4892 1281.7 61.4893 Q1288.31 56.4893 1301.39 56.4893 L1314.82 56.4893 L1314.82 55.5518 Q1314.82 48.9372 1310.45 45.3435 Q1306.12 41.6977 1298.26 41.6977 Q1293.26 41.6977 1288.52 42.8956 Q1283.78 44.0935 1279.41 46.4893 L1279.41 37.6352 Q1284.67 35.604 1289.61 34.6144 Q1294.56 33.5727 1299.25 33.5727 Q1311.91 33.5727 1318.16 40.1352 Q1324.41 46.6977 1324.41 60.0309 Z" fill="#000000" fill-rule="nonzero" fill-opacity="1" /><path clip-path="url(#clip290)" d="M1377.95 43.9373 Q1376.33 42.9998 1374.41 42.5831 Q1372.53 42.1144 1370.24 42.1144 Q1362.11 42.1144 1357.74 47.4268 Q1353.42 52.6872 1353.42 62.583 L1353.42 93.312 L1343.78 93.312 L1343.78 34.979 L1353.42 34.979 L1353.42 44.0414 Q1356.44 38.729 1361.28 36.1769 Q1366.12 33.5727 1373.05 33.5727 Q1374.04 33.5727 1375.24 33.729 Q1376.44 33.8332 1377.9 34.0936 L1377.95 43.9373 Z" fill="#000000" fill-rule="nonzero" fill-opacity="1" /><path clip-path="url(#clip290)" d="M1415.03 34.979 L1425.19 34.979 L1443.42 83.9371 L1461.64 34.979 L1471.8 34.979 L1449.93 93.312 L1436.91 93.312 L1415.03 34.979 Z" fill="#000000" fill-rule="nonzero" fill-opacity="1" /><path clip-path="url(#clip290)" d="M1511.54 63.9892 Q1499.93 63.9892 1495.45 66.6455 Q1490.97 69.3017 1490.97 75.7079 Q1490.97 80.8121 1494.3 83.8329 Q1497.69 86.8016 1503.47 86.8016 Q1511.44 86.8016 1516.23 81.1766 Q1521.07 75.4996 1521.07 66.1246 L1521.07 63.9892 L1511.54 63.9892 M1530.65 60.0309 L1530.65 93.312 L1521.07 93.312 L1521.07 84.4579 Q1517.79 89.7704 1512.89 92.3224 Q1508 94.8224 1500.92 94.8224 Q1491.96 94.8224 1486.64 89.8224 Q1481.38 84.7704 1481.38 76.3329 Q1481.38 66.4892 1487.95 61.4893 Q1494.56 56.4893 1507.63 56.4893 L1521.07 56.4893 L1521.07 55.5518 Q1521.07 48.9372 1516.7 45.3435 Q1512.37 41.6977 1504.51 41.6977 Q1499.51 41.6977 1494.77 42.8956 Q1490.03 44.0935 1485.66 46.4893 L1485.66 37.6352 Q1490.92 35.604 1495.86 34.6144 Q1500.81 33.5727 1505.5 33.5727 Q1518.15 33.5727 1524.4 40.1352 Q1530.65 46.6977 1530.65 60.0309 Z" fill="#000000" fill-rule="nonzero" fill-opacity="1" /><path clip-path="url(#clip290)" d="M1550.39 12.2708 L1559.98 12.2708 L1559.98 93.312 L1550.39 93.312 L1550.39 12.2708 Z" fill="#000000" fill-rule="nonzero" fill-opacity="1" /><path clip-path="url(#clip290)" d="M1579.04 70.2913 L1579.04 34.979 L1588.62 34.979 L1588.62 69.9267 Q1588.62 78.2079 1591.85 82.3746 Q1595.08 86.4891 1601.54 86.4891 Q1609.3 86.4891 1613.78 81.5412 Q1618.31 76.5933 1618.31 68.0517 L1618.31 34.979 L1627.89 34.979 L1627.89 93.312 L1618.31 93.312 L1618.31 84.3537 Q1614.82 89.6662 1610.19 92.2703 Q1605.6 94.8224 1599.51 94.8224 Q1589.46 94.8224 1584.25 88.5724 Q1579.04 82.3225 1579.04 70.2913 M1603.15 33.5727 L1603.15 33.5727 Z" fill="#000000" fill-rule="nonzero" fill-opacity="1" /><path clip-path="url(#clip290)" d="M1697.53 61.7497 L1697.53 66.4371 L1653.47 66.4371 Q1654.09 76.3329 1659.4 81.5412 Q1664.77 86.6975 1674.3 86.6975 Q1679.82 86.6975 1684.98 85.3433 Q1690.19 83.9891 1695.29 81.2808 L1695.29 90.3433 Q1690.13 92.5308 1684.72 93.6766 Q1679.3 94.8224 1673.73 94.8224 Q1659.77 94.8224 1651.59 86.6975 Q1643.47 78.5725 1643.47 64.7184 Q1643.47 50.3956 1651.18 42.0102 Q1658.94 33.5727 1672.06 33.5727 Q1683.83 33.5727 1690.65 41.1769 Q1697.53 48.7289 1697.53 61.7497 M1687.95 58.9372 Q1687.84 51.0726 1683.52 46.3852 Q1679.25 41.6977 1672.16 41.6977 Q1664.14 41.6977 1659.3 46.2289 Q1654.51 50.7601 1653.78 58.9893 L1687.95 58.9372 Z" fill="#000000" fill-rule="nonzero" fill-opacity="1" /><path clip-path="url(#clip290)" d="M1750.45 36.6977 L1750.45 45.7602 Q1746.38 43.6768 1742.01 42.6352 Q1737.63 41.5935 1732.95 41.5935 Q1725.81 41.5935 1722.22 43.781 Q1718.67 45.9685 1718.67 50.3435 Q1718.67 53.6768 1721.23 55.6039 Q1723.78 57.4789 1731.49 59.1976 L1734.77 59.9268 Q1744.98 62.1143 1749.25 66.1246 Q1753.57 70.083 1753.57 77.2183 Q1753.57 85.3433 1747.11 90.0829 Q1740.71 94.8224 1729.46 94.8224 Q1724.77 94.8224 1719.66 93.8849 Q1714.61 92.9995 1708.99 91.1766 L1708.99 81.2808 Q1714.3 84.0412 1719.46 85.4475 Q1724.61 86.8016 1729.66 86.8016 Q1736.43 86.8016 1740.08 84.51 Q1743.73 82.1662 1743.73 77.9475 Q1743.73 74.0413 1741.07 71.9579 Q1738.47 69.8746 1729.56 67.9476 L1726.23 67.1663 Q1717.32 65.2913 1713.36 61.4372 Q1709.4 57.5309 1709.4 50.7601 Q1709.4 42.531 1715.24 38.0519 Q1721.07 33.5727 1731.8 33.5727 Q1737.11 33.5727 1741.8 34.354 Q1746.49 35.1352 1750.45 36.6977 Z" fill="#000000" fill-rule="nonzero" fill-opacity="1" /><path clip-path="url(#clip291)" d="M442.034 815.383 L386.034 815.383 L414.034 871.383 L442.034 815.383 Z" fill="#ff0000" fill-rule="evenodd" fill-opacity="1" stroke="none"/>
<path clip-path="url(#clip291)" d="M477.548 924.488 L421.548 924.488 L449.548 980.488 L477.548 924.488 Z" fill="#ff0000" fill-rule="evenodd" fill-opacity="1" stroke="none"/>
<path clip-path="url(#clip291)" d="M513.062 947.609 L457.062 947.609 L485.062 1003.61 L513.062 947.609 Z" fill="#ff0000" fill-rule="evenodd" fill-opacity="1" stroke="none"/>
<path clip-path="url(#clip291)" d="M548.576 957.728 L492.576 957.728 L520.576 1013.73 L548.576 957.728 Z" fill="#ff0000" fill-rule="evenodd" fill-opacity="1" stroke="none"/>
<path clip-path="url(#clip291)" d="M584.091 959.669 L528.091 959.669 L556.091 1015.67 L584.091 959.669 Z" fill="#ff0000" fill-rule="evenodd" fill-opacity="1" stroke="none"/>
<path clip-path="url(#clip291)" d="M619.605 965.026 L563.605 965.026 L591.605 1021.03 L619.605 965.026 Z" fill="#ff0000" fill-rule="evenodd" fill-opacity="1" stroke="none"/>
<path clip-path="url(#clip291)" d="M655.119 971.185 L599.119 971.185 L627.119 1027.18 L655.119 971.185 Z" fill="#ff0000" fill-rule="evenodd" fill-opacity="1" stroke="none"/>
<path clip-path="url(#clip291)" d="M690.633 972.209 L634.633 972.209 L662.633 1028.21 L690.633 972.209 Z" fill="#ff0000" fill-rule="evenodd" fill-opacity="1" stroke="none"/>
<path clip-path="url(#clip291)" d="M726.148 976.779 L670.148 976.779 L698.148 1032.78 L726.148 976.779 Z" fill="#ff0000" fill-rule="evenodd" fill-opacity="1" stroke="none"/>
<path clip-path="url(#clip291)" d="M761.662 979.195 L705.662 979.195 L733.662 1035.2 L761.662 979.195 Z" fill="#ff0000" fill-rule="evenodd" fill-opacity="1" stroke="none"/>
<path clip-path="url(#clip291)" d="M797.176 980.647 L741.176 980.647 L769.176 1036.65 L797.176 980.647 Z" fill="#ff0000" fill-rule="evenodd" fill-opacity="1" stroke="none"/>
<path clip-path="url(#clip291)" d="M832.69 984.101 L776.69 984.101 L804.69 1040.1 L832.69 984.101 Z" fill="#ff0000" fill-rule="evenodd" fill-opacity="1" stroke="none"/>
<path clip-path="url(#clip291)" d="M868.205 990.311 L812.205 990.311 L840.205 1046.31 L868.205 990.311 Z" fill="#ff0000" fill-rule="evenodd" fill-opacity="1" stroke="none"/>
<path clip-path="url(#clip291)" d="M903.719 990.781 L847.719 990.781 L875.719 1046.78 L903.719 990.781 Z" fill="#ff0000" fill-rule="evenodd" fill-opacity="1" stroke="none"/>
<path clip-path="url(#clip291)" d="M939.233 995.671 L883.233 995.671 L911.233 1051.67 L939.233 995.671 Z" fill="#ff0000" fill-rule="evenodd" fill-opacity="1" stroke="none"/>
<path clip-path="url(#clip291)" d="M974.747 997.667 L918.747 997.667 L946.747 1053.67 L974.747 997.667 Z" fill="#ff0000" fill-rule="evenodd" fill-opacity="1" stroke="none"/>
<path clip-path="url(#clip291)" d="M1010.26 999.602 L954.262 999.602 L982.262 1055.6 L1010.26 999.602 Z" fill="#ff0000" fill-rule="evenodd" fill-opacity="1" stroke="none"/>
<path clip-path="url(#clip291)" d="M1045.78 1000.46 L989.776 1000.46 L1017.78 1056.46 L1045.78 1000.46 Z" fill="#ff0000" fill-rule="evenodd" fill-opacity="1" stroke="none"/>
<path clip-path="url(#clip291)" d="M1081.29 1003.9 L1025.29 1003.9 L1053.29 1059.9 L1081.29 1003.9 Z" fill="#ff0000" fill-rule="evenodd" fill-opacity="1" stroke="none"/>
<path clip-path="url(#clip291)" d="M1116.8 1006.8 L1060.8 1006.8 L1088.8 1062.8 L1116.8 1006.8 Z" fill="#ff0000" fill-rule="evenodd" fill-opacity="1" stroke="none"/>
<path clip-path="url(#clip291)" d="M1152.32 1007.22 L1096.32 1007.22 L1124.32 1063.22 L1152.32 1007.22 Z" fill="#ff0000" fill-rule="evenodd" fill-opacity="1" stroke="none"/>
<path clip-path="url(#clip291)" d="M1187.83 1011.04 L1131.83 1011.04 L1159.83 1067.04 L1187.83 1011.04 Z" fill="#ff0000" fill-rule="evenodd" fill-opacity="1" stroke="none"/>
<path clip-path="url(#clip291)" d="M1223.35 1014.2 L1167.35 1014.2 L1195.35 1070.2 L1223.35 1014.2 Z" fill="#ff0000" fill-rule="evenodd" fill-opacity="1" stroke="none"/>
<path clip-path="url(#clip291)" d="M1258.86 1016.86 L1202.86 1016.86 L1230.86 1072.86 L1258.86 1016.86 Z" fill="#ff0000" fill-rule="evenodd" fill-opacity="1" stroke="none"/>
<path clip-path="url(#clip291)" d="M1294.38 1018.18 L1238.38 1018.18 L1266.38 1074.18 L1294.38 1018.18 Z" fill="#ff0000" fill-rule="evenodd" fill-opacity="1" stroke="none"/>
<path clip-path="url(#clip291)" d="M1329.89 1020.99 L1273.89 1020.99 L1301.89 1076.99 L1329.89 1020.99 Z" fill="#ff0000" fill-rule="evenodd" fill-opacity="1" stroke="none"/>
<path clip-path="url(#clip291)" d="M1365.4 1022.98 L1309.4 1022.98 L1337.4 1078.98 L1365.4 1022.98 Z" fill="#ff0000" fill-rule="evenodd" fill-opacity="1" stroke="none"/>
<path clip-path="url(#clip291)" d="M1400.92 1026.61 L1344.92 1026.61 L1372.92 1082.61 L1400.92 1026.61 Z" fill="#ff0000" fill-rule="evenodd" fill-opacity="1" stroke="none"/>
<path clip-path="url(#clip291)" d="M1436.43 1027.11 L1380.43 1027.11 L1408.43 1083.11 L1436.43 1027.11 Z" fill="#ff0000" fill-rule="evenodd" fill-opacity="1" stroke="none"/>
<path clip-path="url(#clip291)" d="M1471.95 1032.52 L1415.95 1032.52 L1443.95 1088.52 L1471.95 1032.52 Z" fill="#ff0000" fill-rule="evenodd" fill-opacity="1" stroke="none"/>
<path clip-path="url(#clip291)" d="M1507.46 1034.31 L1451.46 1034.31 L1479.46 1090.31 L1507.46 1034.31 Z" fill="#ff0000" fill-rule="evenodd" fill-opacity="1" stroke="none"/>
<path clip-path="url(#clip291)" d="M1542.98 1038.76 L1486.98 1038.76 L1514.98 1094.76 L1542.98 1038.76 Z" fill="#ff0000" fill-rule="evenodd" fill-opacity="1" stroke="none"/>
<path clip-path="url(#clip291)" d="M1578.49 1044.34 L1522.49 1044.34 L1550.49 1100.34 L1578.49 1044.34 Z" fill="#ff0000" fill-rule="evenodd" fill-opacity="1" stroke="none"/>
<path clip-path="url(#clip291)" d="M1614 1046.35 L1558 1046.35 L1586 1102.35 L1614 1046.35 Z" fill="#ff0000" fill-rule="evenodd" fill-opacity="1" stroke="none"/>
<path clip-path="url(#clip291)" d="M1649.52 1049.98 L1593.52 1049.98 L1621.52 1105.98 L1649.52 1049.98 Z" fill="#ff0000" fill-rule="evenodd" fill-opacity="1" stroke="none"/>
<path clip-path="url(#clip291)" d="M1685.03 1051.89 L1629.03 1051.89 L1657.03 1107.89 L1685.03 1051.89 Z" fill="#ff0000" fill-rule="evenodd" fill-opacity="1" stroke="none"/>
<path clip-path="url(#clip291)" d="M1720.55 1056.8 L1664.55 1056.8 L1692.55 1112.8 L1720.55 1056.8 Z" fill="#ff0000" fill-rule="evenodd" fill-opacity="1" stroke="none"/>
<path clip-path="url(#clip291)" d="M1756.06 1063.24 L1700.06 1063.24 L1728.06 1119.24 L1756.06 1063.24 Z" fill="#ff0000" fill-rule="evenodd" fill-opacity="1" stroke="none"/>
<path clip-path="url(#clip291)" d="M1791.57 1064.08 L1735.57 1064.08 L1763.57 1120.08 L1791.57 1064.08 Z" fill="#ff0000" fill-rule="evenodd" fill-opacity="1" stroke="none"/>
<path clip-path="url(#clip291)" d="M1827.09 1065.06 L1771.09 1065.06 L1799.09 1121.06 L1827.09 1065.06 Z" fill="#ff0000" fill-rule="evenodd" fill-opacity="1" stroke="none"/>
<path clip-path="url(#clip291)" d="M1862.6 1065.55 L1806.6 1065.55 L1834.6 1121.55 L1862.6 1065.55 Z" fill="#ff0000" fill-rule="evenodd" fill-opacity="1" stroke="none"/>
<path clip-path="url(#clip291)" d="M1898.12 1066 L1842.12 1066 L1870.12 1122 L1898.12 1066 Z" fill="#ff0000" fill-rule="evenodd" fill-opacity="1" stroke="none"/>
<path clip-path="url(#clip291)" d="M1933.63 1066.37 L1877.63 1066.37 L1905.63 1122.37 L1933.63 1066.37 Z" fill="#ff0000" fill-rule="evenodd" fill-opacity="1" stroke="none"/>
<path clip-path="url(#clip291)" d="M1969.15 1067.03 L1913.15 1067.03 L1941.15 1123.03 L1969.15 1067.03 Z" fill="#ff0000" fill-rule="evenodd" fill-opacity="1" stroke="none"/>
<path clip-path="url(#clip291)" d="M2004.66 1067.35 L1948.66 1067.35 L1976.66 1123.35 L2004.66 1067.35 Z" fill="#ff0000" fill-rule="evenodd" fill-opacity="1" stroke="none"/>
<path clip-path="url(#clip291)" d="M2040.17 1067.5 L1984.17 1067.5 L2012.17 1123.5 L2040.17 1067.5 Z" fill="#ff0000" fill-rule="evenodd" fill-opacity="1" stroke="none"/>
<path clip-path="url(#clip291)" d="M2075.69 1068.3 L2019.69 1068.3 L2047.69 1124.3 L2075.69 1068.3 Z" fill="#ff0000" fill-rule="evenodd" fill-opacity="1" stroke="none"/>
<path clip-path="url(#clip291)" d="M2111.2 1068.55 L2055.2 1068.55 L2083.2 1124.55 L2111.2 1068.55 Z" fill="#ff0000" fill-rule="evenodd" fill-opacity="1" stroke="none"/>
<path clip-path="url(#clip291)" d="M2146.72 1068.86 L2090.72 1068.86 L2118.72 1124.86 L2146.72 1068.86 Z" fill="#ff0000" fill-rule="evenodd" fill-opacity="1" stroke="none"/>
<path clip-path="url(#clip291)" d="M2182.23 1069.41 L2126.23 1069.41 L2154.23 1125.41 L2182.23 1069.41 Z" fill="#ff0000" fill-rule="evenodd" fill-opacity="1" stroke="none"/>
<path clip-path="url(#clip291)" d="M2217.75 1069.89 L2161.75 1069.89 L2189.75 1125.89 L2217.75 1069.89 Z" fill="#ff0000" fill-rule="evenodd" fill-opacity="1" stroke="none"/>
<path clip-path="url(#clip291)" d="M2253.26 1070.33 L2197.26 1070.33 L2225.26 1126.33 L2253.26 1070.33 Z" fill="#ff0000" fill-rule="evenodd" fill-opacity="1" stroke="none"/>
<path clip-path="url(#clip291)" d="M2288.77 1071 L2232.77 1071 L2260.77 1127 L2288.77 1071 Z" fill="#ff0000" fill-rule="evenodd" fill-opacity="1" stroke="none"/>
<path clip-path="url(#clip291)" d="M2324.29 1071.44 L2268.29 1071.44 L2296.29 1127.44 L2324.29 1071.44 Z" fill="#ff0000" fill-rule="evenodd" fill-opacity="1" stroke="none"/>
<path clip-path="url(#clip291)" d="M414.034 131.508 L386.034 187.508 L442.034 187.508 L414.034 131.508 Z" fill="#0000ff" fill-rule="evenodd" fill-opacity="1" stroke="none"/>
<path clip-path="url(#clip291)" d="M449.548 639.824 L421.548 695.824 L477.548 695.824 L449.548 639.824 Z" fill="#0000ff" fill-rule="evenodd" fill-opacity="1" stroke="none"/>
<path clip-path="url(#clip291)" d="M485.062 737.936 L457.062 793.936 L513.062 793.936 L485.062 737.936 Z" fill="#0000ff" fill-rule="evenodd" fill-opacity="1" stroke="none"/>
<path clip-path="url(#clip291)" d="M520.576 954.359 L492.576 1010.36 L548.576 1010.36 L520.576 954.359 Z" fill="#0000ff" fill-rule="evenodd" fill-opacity="1" stroke="none"/>
<path clip-path="url(#clip291)" d="M556.091 1012.44 L528.091 1068.44 L584.091 1068.44 L556.091 1012.44 Z" fill="#0000ff" fill-rule="evenodd" fill-opacity="1" stroke="none"/>
<path clip-path="url(#clip291)" d="M591.605 1080.69 L563.605 1136.69 L619.605 1136.69 L591.605 1080.69 Z" fill="#0000ff" fill-rule="evenodd" fill-opacity="1" stroke="none"/>
<path clip-path="url(#clip291)" d="M627.119 1080.69 L599.119 1136.69 L655.119 1136.69 L627.119 1080.69 Z" fill="#0000ff" fill-rule="evenodd" fill-opacity="1" stroke="none"/>
<path clip-path="url(#clip291)" d="M662.633 1080.69 L634.633 1136.69 L690.633 1136.69 L662.633 1080.69 Z" fill="#0000ff" fill-rule="evenodd" fill-opacity="1" stroke="none"/>
<path clip-path="url(#clip291)" d="M698.148 1080.69 L670.148 1136.69 L726.148 1136.69 L698.148 1080.69 Z" fill="#0000ff" fill-rule="evenodd" fill-opacity="1" stroke="none"/>
<path clip-path="url(#clip291)" d="M733.662 1080.69 L705.662 1136.69 L761.662 1136.69 L733.662 1080.69 Z" fill="#0000ff" fill-rule="evenodd" fill-opacity="1" stroke="none"/>
<path clip-path="url(#clip291)" d="M769.176 1080.69 L741.176 1136.69 L797.176 1136.69 L769.176 1080.69 Z" fill="#0000ff" fill-rule="evenodd" fill-opacity="1" stroke="none"/>
<path clip-path="url(#clip291)" d="M804.69 1080.69 L776.69 1136.69 L832.69 1136.69 L804.69 1080.69 Z" fill="#0000ff" fill-rule="evenodd" fill-opacity="1" stroke="none"/>
<path clip-path="url(#clip291)" d="M840.205 1080.69 L812.205 1136.69 L868.205 1136.69 L840.205 1080.69 Z" fill="#0000ff" fill-rule="evenodd" fill-opacity="1" stroke="none"/>
<path clip-path="url(#clip291)" d="M875.719 1080.69 L847.719 1136.69 L903.719 1136.69 L875.719 1080.69 Z" fill="#0000ff" fill-rule="evenodd" fill-opacity="1" stroke="none"/>
<path clip-path="url(#clip291)" d="M911.233 1080.69 L883.233 1136.69 L939.233 1136.69 L911.233 1080.69 Z" fill="#0000ff" fill-rule="evenodd" fill-opacity="1" stroke="none"/>
<path clip-path="url(#clip291)" d="M946.747 1080.69 L918.747 1136.69 L974.747 1136.69 L946.747 1080.69 Z" fill="#0000ff" fill-rule="evenodd" fill-opacity="1" stroke="none"/>
<path clip-path="url(#clip291)" d="M982.262 1080.69 L954.262 1136.69 L1010.26 1136.69 L982.262 1080.69 Z" fill="#0000ff" fill-rule="evenodd" fill-opacity="1" stroke="none"/>
<path clip-path="url(#clip291)" d="M1017.78 1080.69 L989.776 1136.69 L1045.78 1136.69 L1017.78 1080.69 Z" fill="#0000ff" fill-rule="evenodd" fill-opacity="1" stroke="none"/>
<path clip-path="url(#clip291)" d="M1053.29 1080.69 L1025.29 1136.69 L1081.29 1136.69 L1053.29 1080.69 Z" fill="#0000ff" fill-rule="evenodd" fill-opacity="1" stroke="none"/>
<path clip-path="url(#clip291)" d="M1088.8 1080.69 L1060.8 1136.69 L1116.8 1136.69 L1088.8 1080.69 Z" fill="#0000ff" fill-rule="evenodd" fill-opacity="1" stroke="none"/>
<path clip-path="url(#clip291)" d="M1124.32 1080.69 L1096.32 1136.69 L1152.32 1136.69 L1124.32 1080.69 Z" fill="#0000ff" fill-rule="evenodd" fill-opacity="1" stroke="none"/>
<path clip-path="url(#clip291)" d="M1159.83 1080.69 L1131.83 1136.69 L1187.83 1136.69 L1159.83 1080.69 Z" fill="#0000ff" fill-rule="evenodd" fill-opacity="1" stroke="none"/>
<path clip-path="url(#clip291)" d="M1195.35 1080.69 L1167.35 1136.69 L1223.35 1136.69 L1195.35 1080.69 Z" fill="#0000ff" fill-rule="evenodd" fill-opacity="1" stroke="none"/>
<path clip-path="url(#clip291)" d="M1230.86 1080.69 L1202.86 1136.69 L1258.86 1136.69 L1230.86 1080.69 Z" fill="#0000ff" fill-rule="evenodd" fill-opacity="1" stroke="none"/>
<path clip-path="url(#clip291)" d="M1266.38 1080.69 L1238.38 1136.69 L1294.38 1136.69 L1266.38 1080.69 Z" fill="#0000ff" fill-rule="evenodd" fill-opacity="1" stroke="none"/>
<path clip-path="url(#clip291)" d="M1301.89 1080.69 L1273.89 1136.69 L1329.89 1136.69 L1301.89 1080.69 Z" fill="#0000ff" fill-rule="evenodd" fill-opacity="1" stroke="none"/>
<path clip-path="url(#clip291)" d="M1337.4 1080.69 L1309.4 1136.69 L1365.4 1136.69 L1337.4 1080.69 Z" fill="#0000ff" fill-rule="evenodd" fill-opacity="1" stroke="none"/>
<path clip-path="url(#clip291)" d="M1372.92 1080.69 L1344.92 1136.69 L1400.92 1136.69 L1372.92 1080.69 Z" fill="#0000ff" fill-rule="evenodd" fill-opacity="1" stroke="none"/>
<path clip-path="url(#clip291)" d="M1408.43 1080.69 L1380.43 1136.69 L1436.43 1136.69 L1408.43 1080.69 Z" fill="#0000ff" fill-rule="evenodd" fill-opacity="1" stroke="none"/>
<path clip-path="url(#clip291)" d="M1443.95 1080.69 L1415.95 1136.69 L1471.95 1136.69 L1443.95 1080.69 Z" fill="#0000ff" fill-rule="evenodd" fill-opacity="1" stroke="none"/>
<path clip-path="url(#clip291)" d="M1479.46 1080.69 L1451.46 1136.69 L1507.46 1136.69 L1479.46 1080.69 Z" fill="#0000ff" fill-rule="evenodd" fill-opacity="1" stroke="none"/>
<path clip-path="url(#clip291)" d="M1514.98 1080.69 L1486.98 1136.69 L1542.98 1136.69 L1514.98 1080.69 Z" fill="#0000ff" fill-rule="evenodd" fill-opacity="1" stroke="none"/>
<path clip-path="url(#clip291)" d="M1550.49 1080.69 L1522.49 1136.69 L1578.49 1136.69 L1550.49 1080.69 Z" fill="#0000ff" fill-rule="evenodd" fill-opacity="1" stroke="none"/>
<path clip-path="url(#clip291)" d="M1586 1080.69 L1558 1136.69 L1614 1136.69 L1586 1080.69 Z" fill="#0000ff" fill-rule="evenodd" fill-opacity="1" stroke="none"/>
<path clip-path="url(#clip291)" d="M1621.52 1080.69 L1593.52 1136.69 L1649.52 1136.69 L1621.52 1080.69 Z" fill="#0000ff" fill-rule="evenodd" fill-opacity="1" stroke="none"/>
<path clip-path="url(#clip291)" d="M1657.03 1080.69 L1629.03 1136.69 L1685.03 1136.69 L1657.03 1080.69 Z" fill="#0000ff" fill-rule="evenodd" fill-opacity="1" stroke="none"/>
<path clip-path="url(#clip291)" d="M1692.55 1080.69 L1664.55 1136.69 L1720.55 1136.69 L1692.55 1080.69 Z" fill="#0000ff" fill-rule="evenodd" fill-opacity="1" stroke="none"/>
<path clip-path="url(#clip291)" d="M1728.06 1080.69 L1700.06 1136.69 L1756.06 1136.69 L1728.06 1080.69 Z" fill="#0000ff" fill-rule="evenodd" fill-opacity="1" stroke="none"/>
<path clip-path="url(#clip291)" d="M1763.57 1080.69 L1735.57 1136.69 L1791.57 1136.69 L1763.57 1080.69 Z" fill="#0000ff" fill-rule="evenodd" fill-opacity="1" stroke="none"/>
<path clip-path="url(#clip291)" d="M1799.09 1080.69 L1771.09 1136.69 L1827.09 1136.69 L1799.09 1080.69 Z" fill="#0000ff" fill-rule="evenodd" fill-opacity="1" stroke="none"/>
<path clip-path="url(#clip291)" d="M1834.6 1080.69 L1806.6 1136.69 L1862.6 1136.69 L1834.6 1080.69 Z" fill="#0000ff" fill-rule="evenodd" fill-opacity="1" stroke="none"/>
<path clip-path="url(#clip291)" d="M1870.12 1080.69 L1842.12 1136.69 L1898.12 1136.69 L1870.12 1080.69 Z" fill="#0000ff" fill-rule="evenodd" fill-opacity="1" stroke="none"/>
<path clip-path="url(#clip291)" d="M1905.63 1080.69 L1877.63 1136.69 L1933.63 1136.69 L1905.63 1080.69 Z" fill="#0000ff" fill-rule="evenodd" fill-opacity="1" stroke="none"/>
<path clip-path="url(#clip291)" d="M1941.15 1080.69 L1913.15 1136.69 L1969.15 1136.69 L1941.15 1080.69 Z" fill="#0000ff" fill-rule="evenodd" fill-opacity="1" stroke="none"/>
<path clip-path="url(#clip291)" d="M1976.66 1080.69 L1948.66 1136.69 L2004.66 1136.69 L1976.66 1080.69 Z" fill="#0000ff" fill-rule="evenodd" fill-opacity="1" stroke="none"/>
<path clip-path="url(#clip291)" d="M2012.17 1080.69 L1984.17 1136.69 L2040.17 1136.69 L2012.17 1080.69 Z" fill="#0000ff" fill-rule="evenodd" fill-opacity="1" stroke="none"/>
<path clip-path="url(#clip291)" d="M2047.69 1080.69 L2019.69 1136.69 L2075.69 1136.69 L2047.69 1080.69 Z" fill="#0000ff" fill-rule="evenodd" fill-opacity="1" stroke="none"/>
<path clip-path="url(#clip291)" d="M2083.2 1080.69 L2055.2 1136.69 L2111.2 1136.69 L2083.2 1080.69 Z" fill="#0000ff" fill-rule="evenodd" fill-opacity="1" stroke="none"/>
<path clip-path="url(#clip291)" d="M2118.72 1080.69 L2090.72 1136.69 L2146.72 1136.69 L2118.72 1080.69 Z" fill="#0000ff" fill-rule="evenodd" fill-opacity="1" stroke="none"/>
<path clip-path="url(#clip291)" d="M2154.23 1080.69 L2126.23 1136.69 L2182.23 1136.69 L2154.23 1080.69 Z" fill="#0000ff" fill-rule="evenodd" fill-opacity="1" stroke="none"/>
<path clip-path="url(#clip291)" d="M2189.75 1080.69 L2161.75 1136.69 L2217.75 1136.69 L2189.75 1080.69 Z" fill="#0000ff" fill-rule="evenodd" fill-opacity="1" stroke="none"/>
<path clip-path="url(#clip291)" d="M2225.26 1080.69 L2197.26 1136.69 L2253.26 1136.69 L2225.26 1080.69 Z" fill="#0000ff" fill-rule="evenodd" fill-opacity="1" stroke="none"/>
<path clip-path="url(#clip291)" d="M2260.77 1080.69 L2232.77 1136.69 L2288.77 1136.69 L2260.77 1080.69 Z" fill="#0000ff" fill-rule="evenodd" fill-opacity="1" stroke="none"/>
<path clip-path="url(#clip291)" d="M2296.29 1080.69 L2268.29 1136.69 L2324.29 1136.69 L2296.29 1080.69 Z" fill="#0000ff" fill-rule="evenodd" fill-opacity="1" stroke="none"/>
<circle clip-path="url(#clip291)" cx="414.034" cy="602.131" r="25.2" fill="#ffa500" fill-rule="evenodd" fill-opacity="1" stroke="none"/>
<circle clip-path="url(#clip291)" cx="449.548" cy="870.92" r="25.2" fill="#ffa500" fill-rule="evenodd" fill-opacity="1" stroke="none"/>
<circle clip-path="url(#clip291)" cx="485.062" cy="931.808" r="25.2" fill="#ffa500" fill-rule="evenodd" fill-opacity="1" stroke="none"/>
<circle clip-path="url(#clip291)" cx="520.576" cy="986.188" r="25.2" fill="#ffa500" fill-rule="evenodd" fill-opacity="1" stroke="none"/>
<circle clip-path="url(#clip291)" cx="556.091" cy="997.482" r="25.2" fill="#ffa500" fill-rule="evenodd" fill-opacity="1" stroke="none"/>
<circle clip-path="url(#clip291)" cx="591.605" cy="1008.93" r="25.2" fill="#ffa500" fill-rule="evenodd" fill-opacity="1" stroke="none"/>
<circle clip-path="url(#clip291)" cx="627.119" cy="1012.05" r="25.2" fill="#ffa500" fill-rule="evenodd" fill-opacity="1" stroke="none"/>
<circle clip-path="url(#clip291)" cx="662.633" cy="1014.15" r="25.2" fill="#ffa500" fill-rule="evenodd" fill-opacity="1" stroke="none"/>
<circle clip-path="url(#clip291)" cx="698.148" cy="1018.93" r="25.2" fill="#ffa500" fill-rule="evenodd" fill-opacity="1" stroke="none"/>
<circle clip-path="url(#clip291)" cx="733.662" cy="1024.06" r="25.2" fill="#ffa500" fill-rule="evenodd" fill-opacity="1" stroke="none"/>
<circle clip-path="url(#clip291)" cx="769.176" cy="1026.98" r="25.2" fill="#ffa500" fill-rule="evenodd" fill-opacity="1" stroke="none"/>
<circle clip-path="url(#clip291)" cx="804.69" cy="1038.07" r="25.2" fill="#ffa500" fill-rule="evenodd" fill-opacity="1" stroke="none"/>
<circle clip-path="url(#clip291)" cx="840.205" cy="1042.17" r="25.2" fill="#ffa500" fill-rule="evenodd" fill-opacity="1" stroke="none"/>
<circle clip-path="url(#clip291)" cx="875.719" cy="1045.6" r="25.2" fill="#ffa500" fill-rule="evenodd" fill-opacity="1" stroke="none"/>
<circle clip-path="url(#clip291)" cx="911.233" cy="1048.1" r="25.2" fill="#ffa500" fill-rule="evenodd" fill-opacity="1" stroke="none"/>
<circle clip-path="url(#clip291)" cx="946.747" cy="1051.64" r="25.2" fill="#ffa500" fill-rule="evenodd" fill-opacity="1" stroke="none"/>
<circle clip-path="url(#clip291)" cx="982.262" cy="1054.82" r="25.2" fill="#ffa500" fill-rule="evenodd" fill-opacity="1" stroke="none"/>
<circle clip-path="url(#clip291)" cx="1017.78" cy="1057.03" r="25.2" fill="#ffa500" fill-rule="evenodd" fill-opacity="1" stroke="none"/>
<circle clip-path="url(#clip291)" cx="1053.29" cy="1061.62" r="25.2" fill="#ffa500" fill-rule="evenodd" fill-opacity="1" stroke="none"/>
<circle clip-path="url(#clip291)" cx="1088.8" cy="1064.07" r="25.2" fill="#ffa500" fill-rule="evenodd" fill-opacity="1" stroke="none"/>
<circle clip-path="url(#clip291)" cx="1124.32" cy="1069.18" r="25.2" fill="#ffa500" fill-rule="evenodd" fill-opacity="1" stroke="none"/>
<circle clip-path="url(#clip291)" cx="1159.83" cy="1072.9" r="25.2" fill="#ffa500" fill-rule="evenodd" fill-opacity="1" stroke="none"/>
<circle clip-path="url(#clip291)" cx="1195.35" cy="1079.25" r="25.2" fill="#ffa500" fill-rule="evenodd" fill-opacity="1" stroke="none"/>
<circle clip-path="url(#clip291)" cx="1230.86" cy="1084.2" r="25.2" fill="#ffa500" fill-rule="evenodd" fill-opacity="1" stroke="none"/>
<circle clip-path="url(#clip291)" cx="1266.38" cy="1087.54" r="25.2" fill="#ffa500" fill-rule="evenodd" fill-opacity="1" stroke="none"/>
<circle clip-path="url(#clip291)" cx="1301.89" cy="1091.16" r="25.2" fill="#ffa500" fill-rule="evenodd" fill-opacity="1" stroke="none"/>
<circle clip-path="url(#clip291)" cx="1337.4" cy="1094.21" r="25.2" fill="#ffa500" fill-rule="evenodd" fill-opacity="1" stroke="none"/>
<circle clip-path="url(#clip291)" cx="1372.92" cy="1095.88" r="25.2" fill="#ffa500" fill-rule="evenodd" fill-opacity="1" stroke="none"/>
<circle clip-path="url(#clip291)" cx="1408.43" cy="1099.67" r="25.2" fill="#ffa500" fill-rule="evenodd" fill-opacity="1" stroke="none"/>
<circle clip-path="url(#clip291)" cx="1443.95" cy="1102.48" r="25.2" fill="#ffa500" fill-rule="evenodd" fill-opacity="1" stroke="none"/>
<circle clip-path="url(#clip291)" cx="1479.46" cy="1103.56" r="25.2" fill="#ffa500" fill-rule="evenodd" fill-opacity="1" stroke="none"/>
<circle clip-path="url(#clip291)" cx="1514.98" cy="1106.29" r="25.2" fill="#ffa500" fill-rule="evenodd" fill-opacity="1" stroke="none"/>
<circle clip-path="url(#clip291)" cx="1550.49" cy="1106.68" r="25.2" fill="#ffa500" fill-rule="evenodd" fill-opacity="1" stroke="none"/>
<circle clip-path="url(#clip291)" cx="1586" cy="1107.4" r="25.2" fill="#ffa500" fill-rule="evenodd" fill-opacity="1" stroke="none"/>
<circle clip-path="url(#clip291)" cx="1621.52" cy="1107.93" r="25.2" fill="#ffa500" fill-rule="evenodd" fill-opacity="1" stroke="none"/>
<circle clip-path="url(#clip291)" cx="1657.03" cy="1108.1" r="25.2" fill="#ffa500" fill-rule="evenodd" fill-opacity="1" stroke="none"/>
<circle clip-path="url(#clip291)" cx="1692.55" cy="1108.29" r="25.2" fill="#ffa500" fill-rule="evenodd" fill-opacity="1" stroke="none"/>
<circle clip-path="url(#clip291)" cx="1728.06" cy="1108.55" r="25.2" fill="#ffa500" fill-rule="evenodd" fill-opacity="1" stroke="none"/>
<circle clip-path="url(#clip291)" cx="1763.57" cy="1108.69" r="25.2" fill="#ffa500" fill-rule="evenodd" fill-opacity="1" stroke="none"/>
<circle clip-path="url(#clip291)" cx="1799.09" cy="1108.69" r="25.2" fill="#ffa500" fill-rule="evenodd" fill-opacity="1" stroke="none"/>
<circle clip-path="url(#clip291)" cx="1834.6" cy="1108.69" r="25.2" fill="#ffa500" fill-rule="evenodd" fill-opacity="1" stroke="none"/>
<circle clip-path="url(#clip291)" cx="1870.12" cy="1108.69" r="25.2" fill="#ffa500" fill-rule="evenodd" fill-opacity="1" stroke="none"/>
<circle clip-path="url(#clip291)" cx="1905.63" cy="1108.69" r="25.2" fill="#ffa500" fill-rule="evenodd" fill-opacity="1" stroke="none"/>
<circle clip-path="url(#clip291)" cx="1941.15" cy="1108.69" r="25.2" fill="#ffa500" fill-rule="evenodd" fill-opacity="1" stroke="none"/>
<circle clip-path="url(#clip291)" cx="1976.66" cy="1108.69" r="25.2" fill="#ffa500" fill-rule="evenodd" fill-opacity="1" stroke="none"/>
<circle clip-path="url(#clip291)" cx="2012.17" cy="1108.69" r="25.2" fill="#ffa500" fill-rule="evenodd" fill-opacity="1" stroke="none"/>
<circle clip-path="url(#clip291)" cx="2047.69" cy="1108.69" r="25.2" fill="#ffa500" fill-rule="evenodd" fill-opacity="1" stroke="none"/>
<circle clip-path="url(#clip291)" cx="2083.2" cy="1108.69" r="25.2" fill="#ffa500" fill-rule="evenodd" fill-opacity="1" stroke="none"/>
<circle clip-path="url(#clip291)" cx="2118.72" cy="1108.69" r="25.2" fill="#ffa500" fill-rule="evenodd" fill-opacity="1" stroke="none"/>
<circle clip-path="url(#clip291)" cx="2154.23" cy="1108.69" r="25.2" fill="#ffa500" fill-rule="evenodd" fill-opacity="1" stroke="none"/>
<circle clip-path="url(#clip291)" cx="2189.75" cy="1108.69" r="25.2" fill="#ffa500" fill-rule="evenodd" fill-opacity="1" stroke="none"/>
<circle clip-path="url(#clip291)" cx="2225.26" cy="1108.69" r="25.2" fill="#ffa500" fill-rule="evenodd" fill-opacity="1" stroke="none"/>
<circle clip-path="url(#clip291)" cx="2260.77" cy="1108.69" r="25.2" fill="#ffa500" fill-rule="evenodd" fill-opacity="1" stroke="none"/>
<circle clip-path="url(#clip291)" cx="2296.29" cy="1108.69" r="25.2" fill="#ffa500" fill-rule="evenodd" fill-opacity="1" stroke="none"/>
<path clip-path="url(#clip290)" d="M1642.77 653.6 L2286.25 653.6 L2286.25 164.57 L1642.77 164.57  Z" fill="#ffffff" fill-rule="evenodd" fill-opacity="1"/>
<polyline clip-path="url(#clip290)" style="stroke:#000000; stroke-linecap:round; stroke-linejoin:round; stroke-width:4; stroke-opacity:1; fill:none" points="1642.77,653.6 2286.25,653.6 2286.25,164.57 1642.77,164.57 1642.77,653.6 "/>
<path clip-path="url(#clip290)" d="M1785.2 233.067 L1677.68 233.067 L1731.44 340.587 L1785.2 233.067 Z" fill="#ff0000" fill-rule="evenodd" fill-opacity="1" stroke="none"/>
<path clip-path="url(#clip290)" d="M1820.12 247.947 L1831.42 247.947 L1852.98 279.926 L1874.39 247.947 L1885.69 247.947 L1858.19 288.676 L1858.19 325.707 L1847.62 325.707 L1847.62 288.676 L1820.12 247.947 Z" fill="#000000" fill-rule="nonzero" fill-opacity="1" /><path clip-path="url(#clip290)" d="M1952.46 244.77 Q1945.48 256.75 1942.1 268.468 Q1938.71 280.187 1938.71 292.218 Q1938.71 304.249 1942.1 316.072 Q1945.53 327.843 1952.46 339.77 L1944.13 339.77 Q1936.32 327.53 1932.41 315.708 Q1928.55 303.885 1928.55 292.218 Q1928.55 280.604 1932.41 268.833 Q1936.26 257.062 1944.13 244.77 L1952.46 244.77 Z" fill="#000000" fill-rule="nonzero" fill-opacity="1" /><path clip-path="url(#clip290)" d="M2009.44 276.229 L2009.44 244.666 L2019.02 244.666 L2019.02 325.707 L2009.44 325.707 L2009.44 316.958 Q2006.42 322.166 2001.78 324.718 Q1997.2 327.218 1990.74 327.218 Q1980.17 327.218 1973.5 318.78 Q1966.89 310.343 1966.89 296.593 Q1966.89 282.843 1973.5 274.406 Q1980.17 265.968 1990.74 265.968 Q1997.2 265.968 2001.78 268.52 Q2006.42 271.02 2009.44 276.229 M1976.78 296.593 Q1976.78 307.166 1981.11 313.208 Q1985.48 319.197 1993.09 319.197 Q2000.69 319.197 2005.06 313.208 Q2009.44 307.166 2009.44 296.593 Q2009.44 286.02 2005.06 280.031 Q2000.69 273.989 1993.09 273.989 Q1985.48 273.989 1981.11 280.031 Q1976.78 286.02 1976.78 296.593 Z" fill="#000000" fill-rule="nonzero" fill-opacity="1" /><path clip-path="url(#clip290)" d="M2065.27 296.385 Q2053.66 296.385 2049.18 299.041 Q2044.7 301.697 2044.7 308.103 Q2044.7 313.208 2048.03 316.228 Q2051.42 319.197 2057.2 319.197 Q2065.17 319.197 2069.96 313.572 Q2074.8 307.895 2074.8 298.52 L2074.8 296.385 L2065.27 296.385 M2084.39 292.426 L2084.39 325.707 L2074.8 325.707 L2074.8 316.853 Q2071.52 322.166 2066.63 324.718 Q2061.73 327.218 2054.65 327.218 Q2045.69 327.218 2040.38 322.218 Q2035.12 317.166 2035.12 308.728 Q2035.12 298.885 2041.68 293.885 Q2048.29 288.885 2061.37 288.885 L2074.8 288.885 L2074.8 287.947 Q2074.8 281.333 2070.43 277.739 Q2066.11 274.093 2058.24 274.093 Q2053.24 274.093 2048.5 275.291 Q2043.76 276.489 2039.39 278.885 L2039.39 270.031 Q2044.65 267.999 2049.6 267.01 Q2054.54 265.968 2059.23 265.968 Q2071.89 265.968 2078.14 272.531 Q2084.39 279.093 2084.39 292.426 Z" fill="#000000" fill-rule="nonzero" fill-opacity="1" /><path clip-path="url(#clip290)" d="M2113.61 250.812 L2113.61 267.374 L2133.35 267.374 L2133.35 274.822 L2113.61 274.822 L2113.61 306.489 Q2113.61 313.624 2115.53 315.655 Q2117.51 317.687 2123.5 317.687 L2133.35 317.687 L2133.35 325.707 L2123.5 325.707 Q2112.41 325.707 2108.19 321.593 Q2103.97 317.426 2103.97 306.489 L2103.97 274.822 L2096.94 274.822 L2096.94 267.374 L2103.97 267.374 L2103.97 250.812 L2113.61 250.812 Z" fill="#000000" fill-rule="nonzero" fill-opacity="1" /><path clip-path="url(#clip290)" d="M2172.46 296.385 Q2160.85 296.385 2156.37 299.041 Q2151.89 301.697 2151.89 308.103 Q2151.89 313.208 2155.22 316.228 Q2158.61 319.197 2164.39 319.197 Q2172.36 319.197 2177.15 313.572 Q2181.99 307.895 2181.99 298.52 L2181.99 296.385 L2172.46 296.385 M2191.57 292.426 L2191.57 325.707 L2181.99 325.707 L2181.99 316.853 Q2178.71 322.166 2173.81 324.718 Q2168.92 327.218 2161.83 327.218 Q2152.88 327.218 2147.56 322.218 Q2142.3 317.166 2142.3 308.728 Q2142.3 298.885 2148.87 293.885 Q2155.48 288.885 2168.55 288.885 L2181.99 288.885 L2181.99 287.947 Q2181.99 281.333 2177.62 277.739 Q2173.29 274.093 2165.43 274.093 Q2160.43 274.093 2155.69 275.291 Q2150.95 276.489 2146.57 278.885 L2146.57 270.031 Q2151.83 267.999 2156.78 267.01 Q2161.73 265.968 2166.42 265.968 Q2179.07 265.968 2185.32 272.531 Q2191.57 279.093 2191.57 292.426 Z" fill="#000000" fill-rule="nonzero" fill-opacity="1" /><path clip-path="url(#clip290)" d="M2209.8 244.77 L2218.14 244.77 Q2225.95 257.062 2229.8 268.833 Q2233.71 280.604 2233.71 292.218 Q2233.71 303.885 2229.8 315.708 Q2225.95 327.53 2218.14 339.77 L2209.8 339.77 Q2216.73 327.843 2220.12 316.072 Q2223.55 304.249 2223.55 292.218 Q2223.55 280.187 2220.12 268.468 Q2216.73 256.75 2209.8 244.77 Z" fill="#000000" fill-rule="nonzero" fill-opacity="1" /><path clip-path="url(#clip290)" d="M1731.44 355.325 L1677.68 462.845 L1785.2 462.845 L1731.44 355.325 Z" fill="#0000ff" fill-rule="evenodd" fill-opacity="1" stroke="none"/>
<path clip-path="url(#clip290)" d="M1823.66 370.205 L1834.96 370.205 L1854.28 399.111 L1873.71 370.205 L1885.01 370.205 L1860.01 407.549 L1886.68 447.965 L1875.38 447.965 L1853.5 414.892 L1831.47 447.965 L1820.12 447.965 L1847.88 406.455 L1823.66 370.205 Z" fill="#000000" fill-rule="nonzero" fill-opacity="1" /><path clip-path="url(#clip290)" d="M1909.54 373.07 L1909.54 389.632 L1929.28 389.632 L1929.28 397.08 L1909.54 397.08 L1909.54 428.746 Q1909.54 435.882 1911.47 437.913 Q1913.45 439.944 1919.44 439.944 L1929.28 439.944 L1929.28 447.965 L1919.44 447.965 Q1908.35 447.965 1904.13 443.85 Q1899.91 439.684 1899.91 428.746 L1899.91 397.08 L1892.88 397.08 L1892.88 389.632 L1899.91 389.632 L1899.91 373.07 L1909.54 373.07 Z" fill="#000000" fill-rule="nonzero" fill-opacity="1" /><path clip-path="url(#clip290)" d="M1975.69 398.59 Q1974.08 397.653 1972.15 397.236 Q1970.27 396.767 1967.98 396.767 Q1959.86 396.767 1955.48 402.08 Q1951.16 407.34 1951.16 417.236 L1951.16 447.965 L1941.52 447.965 L1941.52 389.632 L1951.16 389.632 L1951.16 398.694 Q1954.18 393.382 1959.02 390.83 Q1963.87 388.226 1970.79 388.226 Q1971.78 388.226 1972.98 388.382 Q1974.18 388.486 1975.64 388.747 L1975.69 398.59 Z" fill="#000000" fill-rule="nonzero" fill-opacity="1" /><path clip-path="url(#clip290)" d="M1984.75 424.944 L1984.75 389.632 L1994.34 389.632 L1994.34 424.58 Q1994.34 432.861 1997.56 437.028 Q2000.79 441.142 2007.25 441.142 Q2015.01 441.142 2019.49 436.194 Q2024.02 431.246 2024.02 422.705 L2024.02 389.632 L2033.61 389.632 L2033.61 447.965 L2024.02 447.965 L2024.02 439.007 Q2020.53 444.319 2015.9 446.923 Q2011.31 449.475 2005.22 449.475 Q1995.17 449.475 1989.96 443.225 Q1984.75 436.975 1984.75 424.944 M2008.87 388.226 L2008.87 388.226 Z" fill="#000000" fill-rule="nonzero" fill-opacity="1" /><path clip-path="url(#clip290)" d="M2103.24 416.403 L2103.24 421.09 L2059.18 421.09 Q2059.8 430.986 2065.12 436.194 Q2070.48 441.35 2080.01 441.35 Q2085.53 441.35 2090.69 439.996 Q2095.9 438.642 2101 435.934 L2101 444.996 Q2095.85 447.184 2090.43 448.33 Q2085.01 449.475 2079.44 449.475 Q2065.48 449.475 2057.3 441.35 Q2049.18 433.225 2049.18 419.371 Q2049.18 405.049 2056.89 396.663 Q2064.65 388.226 2077.77 388.226 Q2089.54 388.226 2096.37 395.83 Q2103.24 403.382 2103.24 416.403 M2093.66 413.59 Q2093.55 405.726 2089.23 401.038 Q2084.96 396.351 2077.88 396.351 Q2069.86 396.351 2065.01 400.882 Q2060.22 405.413 2059.49 413.642 L2093.66 413.59 Z" fill="#000000" fill-rule="nonzero" fill-opacity="1" /><circle clip-path="url(#clip290)" cx="1731.44" cy="531.342" r="48.384" fill="#ffa500" fill-rule="evenodd" fill-opacity="1" stroke="none"/>
<path clip-path="url(#clip290)" d="M1885.69 479.276 L1884.77 480.789 Q1879.05 478.317 1871.93 474.37 Q1864.81 478.317 1859.09 480.789 L1858.21 479.276 Q1864.44 473.853 1871.93 469.685 Q1879.49 473.89 1885.69 479.276 Z" fill="#000000" fill-rule="nonzero" fill-opacity="1" /><path clip-path="url(#clip290)" d="M1909.08 493.237 Q1909.08 494.185 1908.71 494.712 Q1908.39 495.187 1908.02 495.292 Q1907.65 495.345 1906.7 495.397 Q1899.17 495.766 1893 500.878 Q1891.47 502.196 1887.63 506.306 Q1883.83 510.417 1878.77 515.898 Q1873.77 521.379 1870.87 524.33 L1884.78 557.637 Q1885.36 558.954 1885.57 559.534 Q1885.84 560.061 1886.36 560.746 Q1886.94 561.431 1887.36 561.642 Q1887.84 561.853 1888.84 562.116 Q1889.89 562.327 1890.95 562.38 Q1892.05 562.38 1894.06 562.432 Q1894.69 562.432 1894.95 562.485 Q1895.27 562.485 1895.64 562.801 Q1896.01 563.065 1896.01 563.697 Q1896.01 564.646 1895.59 565.173 Q1895.22 565.647 1894.85 565.7 Q1894.53 565.752 1893.95 565.752 Q1892.58 565.752 1887.94 565.594 Q1883.31 565.436 1881.99 565.436 L1868.39 565.752 Q1866.76 565.752 1866.76 564.435 Q1866.76 563.75 1866.86 563.381 Q1867.02 562.959 1867.39 562.801 Q1867.76 562.59 1868.02 562.538 Q1868.29 562.485 1868.92 562.432 Q1870.87 562.222 1872.34 561.642 Q1873.87 561.009 1874.5 560.377 Q1875.19 559.745 1875.19 559.27 L1874.66 557.742 L1863.75 531.971 L1854 542.564 L1842.99 554.211 Q1840.09 557.32 1840.09 559.06 Q1840.09 561.958 1844.41 562.432 Q1845.73 562.538 1845.73 563.592 Q1845.73 564.593 1845.31 565.12 Q1844.94 565.594 1844.57 565.7 Q1844.25 565.752 1843.78 565.752 Q1841.83 565.752 1837.72 565.594 Q1833.66 565.436 1831.66 565.436 Q1829.97 565.436 1826.55 565.594 Q1823.12 565.752 1821.54 565.752 Q1820.91 565.752 1820.54 565.436 Q1820.17 565.12 1820.17 564.804 L1820.12 564.54 Q1820.12 563.803 1820.22 563.381 Q1820.38 562.959 1820.8 562.749 Q1821.28 562.538 1821.49 562.538 Q1821.7 562.485 1822.49 562.432 Q1826.97 562.169 1830.76 560.43 Q1834.61 558.691 1838.35 554.633 Q1838.67 554.369 1839.04 554.053 Q1839.46 553.737 1839.78 553.473 L1862.54 528.968 L1849.79 498.823 Q1849.21 497.453 1848.68 496.873 Q1848.15 496.241 1846.52 495.819 Q1844.89 495.397 1841.73 495.397 Q1840.83 495.397 1840.41 495.345 Q1839.99 495.292 1839.62 495.028 Q1839.25 494.765 1839.25 494.185 Q1839.25 493.184 1839.62 492.71 Q1840.04 492.183 1840.36 492.13 Q1840.72 492.024 1841.2 492.024 Q1842.52 492.024 1847.21 492.183 Q1851.9 492.341 1853.27 492.341 Q1855.53 492.341 1860.06 492.183 Q1864.65 492.024 1866.86 492.024 Q1868.5 492.024 1868.5 493.342 Q1868.5 494.185 1868.13 494.66 Q1867.76 495.134 1867.39 495.239 Q1867.02 495.345 1866.34 495.397 Q1864.28 495.608 1862.7 496.293 Q1861.17 496.926 1860.54 497.558 Q1859.96 498.138 1859.96 498.507 L1860.49 499.93 L1869.55 521.379 L1887.05 502.617 Q1889.1 500.298 1889.1 498.717 Q1889.1 495.872 1884.78 495.397 Q1883.46 495.187 1883.46 494.185 Q1883.46 493.184 1883.89 492.71 Q1884.31 492.183 1884.62 492.13 Q1884.99 492.024 1885.52 492.024 Q1887.47 492.024 1891.47 492.183 Q1895.53 492.341 1897.54 492.341 Q1899.22 492.341 1902.65 492.183 Q1906.07 492.024 1907.65 492.024 Q1908.29 492.024 1908.65 492.341 Q1909.02 492.604 1909.02 492.92 L1909.08 493.237 Z" fill="#000000" fill-rule="nonzero" fill-opacity="1" /><path clip-path="url(#clip290)" d="M1908.21 538.77 Q1908.21 520.535 1915.01 505.832 Q1917.91 499.666 1921.97 494.501 Q1926.02 489.337 1928.71 487.071 Q1931.4 484.805 1932.14 484.805 Q1933.19 484.805 1933.24 485.859 Q1933.24 486.386 1931.82 487.703 Q1914.43 505.41 1914.48 538.77 Q1914.48 572.235 1931.4 589.257 Q1933.24 591.101 1933.24 591.681 Q1933.24 592.735 1932.14 592.735 Q1931.4 592.735 1928.82 590.574 Q1926.24 588.414 1922.23 583.46 Q1918.22 578.506 1915.33 572.445 Q1908.21 557.742 1908.21 538.77 Z" fill="#000000" fill-rule="nonzero" fill-opacity="1" /><path clip-path="url(#clip290)" d="M1941.44 565.752 L1941.44 562.432 L1944.29 562.432 Q1950.35 562.432 1951.72 561.484 Q1953.14 560.482 1953.14 557.32 L1953.14 500.457 Q1953.14 497.347 1951.72 496.399 Q1950.3 495.397 1944.29 495.397 L1941.44 495.397 L1941.44 492.024 Q1945.24 492.341 1957.99 492.341 Q1970.64 492.341 1974.38 492.024 L1974.38 495.397 L1971.59 495.397 Q1965.53 495.397 1964.11 496.399 Q1962.74 497.347 1962.74 500.457 L1962.74 557.32 Q1962.74 560.43 1964.11 561.431 Q1965.53 562.432 1971.59 562.432 L1974.38 562.432 L1974.38 565.752 Q1970.59 565.436 1957.89 565.436 Q1945.24 565.436 1941.44 565.752 Z" fill="#000000" fill-rule="nonzero" fill-opacity="1" /><path clip-path="url(#clip290)" d="M1990.82 565.542 L1990.82 543.934 Q1990.82 542.722 1990.87 542.301 Q1990.92 541.879 1991.24 541.563 Q1991.55 541.247 1992.19 541.247 Q1993.4 541.247 1993.5 542.353 Q1993.82 553.052 2000.2 558.954 Q2006.47 564.804 2017.22 564.804 Q2023.7 564.804 2027.71 560.166 Q2031.71 555.476 2031.71 549.363 Q2031.71 543.513 2028.34 539.402 Q2026.91 537.558 2025.12 536.398 Q2023.38 535.186 2022.28 534.817 Q2021.22 534.448 2019.17 533.921 Q2005.78 530.707 2004.94 530.338 Q1998.56 528.177 1994.66 522.749 Q1990.82 517.268 1990.82 510.575 Q1990.82 501.932 1996.88 495.819 Q2002.99 489.653 2011.84 489.653 Q2016.27 489.653 2019.96 491.076 Q2023.7 492.446 2025.23 493.711 Q2026.76 494.976 2029.13 497.242 L2032.87 491.076 Q2033.71 489.653 2034.5 489.653 Q2035.35 489.653 2035.51 490.18 Q2035.72 490.654 2035.72 492.235 L2035.72 513.948 Q2035.72 515.16 2035.66 515.582 Q2035.61 516.003 2035.24 516.267 Q2034.93 516.53 2034.29 516.53 Q2033.24 516.53 2032.98 515.265 Q2029.97 492.71 2011.95 492.71 Q2005.78 492.71 2001.72 496.873 Q1997.72 500.984 1997.72 506.833 Q1997.72 511.576 2000.67 515.476 Q2003.62 519.323 2008.63 520.535 L2022.44 523.856 Q2029.34 525.489 2033.98 531.603 Q2038.61 537.716 2038.61 545.674 Q2038.61 554.843 2032.61 561.484 Q2026.65 568.124 2017.32 568.124 Q2010.63 568.124 2005.47 565.911 Q2000.3 563.697 1997.51 560.588 Q1995.35 564.171 1993.92 566.174 L1993.61 566.701 Q1992.77 568.124 1991.97 568.124 Q1991.13 568.124 1990.97 567.597 Q1990.82 567.07 1990.82 565.542 Z" fill="#000000" fill-rule="nonzero" fill-opacity="1" /><path clip-path="url(#clip290)" d="M2050.98 516.952 L2053.04 492.71 L2118.97 492.71 L2121.02 516.952 L2118.33 516.952 Q2117.91 512.103 2117.49 509.31 Q2117.12 506.517 2116.17 503.882 Q2115.28 501.194 2114.12 499.93 Q2113.01 498.612 2110.85 497.611 Q2108.69 496.557 2105.9 496.293 Q2103.1 496.03 2098.89 496.03 Q2093.93 496.03 2092.72 496.241 Q2091.4 496.557 2091.09 497.505 Q2090.77 498.401 2090.77 500.351 L2090.77 557.215 Q2090.77 559.376 2091.19 560.272 Q2091.67 561.115 2094.14 561.8 Q2096.62 562.432 2102.1 562.432 L2106.42 562.432 L2106.42 565.752 Q2102 565.436 2085.92 565.436 Q2069.96 565.436 2065.53 565.752 L2065.53 562.432 L2069.85 562.432 Q2075.33 562.432 2077.81 561.8 Q2080.34 561.115 2080.76 560.272 Q2081.18 559.376 2081.18 557.215 L2081.18 500.351 Q2081.18 498.823 2081.08 498.19 Q2080.97 497.558 2080.5 497.031 Q2080.02 496.451 2078.91 496.241 Q2077.86 496.03 2073.12 496.03 Q2068.9 496.03 2066.06 496.293 Q2063.26 496.557 2061.1 497.611 Q2058.94 498.612 2057.78 499.93 Q2056.67 501.194 2055.73 503.882 Q2054.83 506.517 2054.46 509.31 Q2054.09 512.103 2053.67 516.952 L2050.98 516.952 Z" fill="#000000" fill-rule="nonzero" fill-opacity="1" /><path clip-path="url(#clip290)" d="M2139.88 565.752 L2139.88 562.432 Q2149.47 562.222 2151.95 555.16 L2174.29 490.654 Q2174.71 489.337 2175.19 488.915 Q2175.66 488.494 2176.88 488.494 Q2177.51 488.494 2177.88 488.599 Q2178.3 488.704 2178.56 489.073 Q2178.83 489.442 2178.93 489.653 Q2179.04 489.864 2179.35 490.654 L2202.65 558.111 Q2203.49 560.799 2205.23 561.642 Q2206.97 562.432 2211.87 562.432 L2213.77 562.432 L2213.77 565.752 Q2206.97 565.436 2199.64 565.436 Q2188 565.436 2184.1 565.752 L2184.1 562.432 Q2193.05 562.432 2193.05 559.165 Q2193.05 558.954 2192.74 557.637 L2187.05 541.141 L2160.38 541.141 L2155.37 555.265 Q2155.16 555.687 2155.16 556.899 Q2155.16 559.165 2157.27 560.799 Q2159.38 562.432 2163.28 562.432 L2163.28 565.752 Q2152.9 565.436 2150.84 565.436 Q2147.31 565.436 2139.88 565.752 M2161.54 537.821 L2185.83 537.821 L2173.66 502.723 L2161.54 537.821 Z" fill="#000000" fill-rule="nonzero" fill-opacity="1" /><path clip-path="url(#clip290)" d="M2222.64 591.681 Q2222.64 591.154 2224.01 589.837 Q2241.4 572.129 2241.4 538.77 Q2241.4 505.305 2224.7 488.388 Q2222.64 486.438 2222.64 485.859 Q2222.64 484.805 2223.69 484.805 Q2224.43 484.805 2227.01 486.965 Q2229.65 489.126 2233.6 494.08 Q2237.61 499.034 2240.56 505.094 Q2247.67 519.798 2247.67 538.77 Q2247.67 557.004 2240.87 571.708 Q2237.98 577.874 2233.92 583.038 Q2229.86 588.203 2227.17 590.469 Q2224.48 592.735 2223.69 592.735 Q2222.64 592.735 2222.64 591.681 Z" fill="#000000" fill-rule="nonzero" fill-opacity="1" /></svg>
