<?xml version="1.0" encoding="utf-8"?>
<svg xmlns="http://www.w3.org/2000/svg" xmlns:xlink="http://www.w3.org/1999/xlink" width="600" height="350" viewBox="0 0 2400 1400">
<defs>
  <clipPath id="clip230">
    <rect x="0" y="0" width="2400" height="1400"/>
  </clipPath>
</defs>
<path clip-path="url(#clip230)" d="M0 1400 L2400 1400 L2400 0 L0 0  Z" fill="#ffffff" fill-rule="evenodd" fill-opacity="1"/>
<defs>
  <clipPath id="clip231">
    <rect x="357" y="131" width="1996" height="1007"/>
  </clipPath>
</defs>
<path clip-path="url(#clip230)" d="M357.566 1137.17 L2352.76 1137.17 L2352.76 131.032 L357.566 131.032  Z" fill="#ffffff" fill-rule="evenodd" fill-opacity="1"/>
<polyline clip-path="url(#clip231)" style="stroke:#000000; stroke-linecap:round; stroke-linejoin:round; stroke-width:2; stroke-opacity:0.1; fill:none" points="414.034,1137.17 414.034,131.032 "/>
<polyline clip-path="url(#clip231)" style="stroke:#000000; stroke-linecap:round; stroke-linejoin:round; stroke-width:2; stroke-opacity:0.1; fill:none" points="591.605,1137.17 591.605,131.032 "/>
<polyline clip-path="url(#clip231)" style="stroke:#000000; stroke-linecap:round; stroke-linejoin:round; stroke-width:2; stroke-opacity:0.1; fill:none" points="2296.29,1137.17 2296.29,131.032 "/>
<polyline clip-path="url(#clip231)" style="stroke:#000000; stroke-linecap:round; stroke-linejoin:round; stroke-width:2; stroke-opacity:0.1; fill:none" points="357.566,1108.69 2352.76,1108.69 "/>
<polyline clip-path="url(#clip231)" style="stroke:#000000; stroke-linecap:round; stroke-linejoin:round; stroke-width:2; stroke-opacity:0.1; fill:none" points="357.566,850.261 2352.76,850.261 "/>
<polyline clip-path="url(#clip231)" style="stroke:#000000; stroke-linecap:round; stroke-linejoin:round; stroke-width:2; stroke-opacity:0.1; fill:none" points="357.566,591.83 2352.76,591.83 "/>
<polyline clip-path="url(#clip231)" style="stroke:#000000; stroke-linecap:round; stroke-linejoin:round; stroke-width:2; stroke-opacity:0.1; fill:none" points="357.566,333.398 2352.76,333.398 "/>
<polyline clip-path="url(#clip230)" style="stroke:#000000; stroke-linecap:round; stroke-linejoin:round; stroke-width:4; stroke-opacity:1; fill:none" points="357.566,1137.17 2352.76,1137.17 "/>
<polyline clip-path="url(#clip230)" style="stroke:#000000; stroke-linecap:round; stroke-linejoin:round; stroke-width:4; stroke-opacity:1; fill:none" points="414.034,1137.17 414.034,1118.27 "/>
<polyline clip-path="url(#clip230)" style="stroke:#000000; stroke-linecap:round; stroke-linejoin:round; stroke-width:4; stroke-opacity:1; fill:none" points="591.605,1137.17 591.605,1118.27 "/>
<polyline clip-path="url(#clip230)" style="stroke:#000000; stroke-linecap:round; stroke-linejoin:round; stroke-width:4; stroke-opacity:1; fill:none" points="2296.29,1137.17 2296.29,1118.27 "/>
<path clip-path="url(#clip230)" d="M402.011 1205.45 L411.56 1205.45 L411.56 1172.49 L401.172 1174.58 L401.172 1169.25 L411.502 1167.17 L417.347 1167.17 L417.347 1205.45 L426.895 1205.45 L426.895 1210.37 L402.011 1210.37 L402.011 1205.45 Z" fill="#000000" fill-rule="nonzero" fill-opacity="1" /><path clip-path="url(#clip230)" d="M592.111 1186.44 Q588.176 1186.44 585.861 1189.13 Q583.575 1191.82 583.575 1196.51 Q583.575 1201.17 585.861 1203.89 Q588.176 1206.58 592.111 1206.58 Q596.046 1206.58 598.332 1203.89 Q600.647 1201.17 600.647 1196.51 Q600.647 1191.82 598.332 1189.13 Q596.046 1186.44 592.111 1186.44 M603.714 1168.12 L603.714 1173.45 Q601.515 1172.41 599.258 1171.86 Q597.03 1171.31 594.831 1171.31 Q589.044 1171.31 585.977 1175.21 Q582.939 1179.12 582.505 1187.02 Q584.212 1184.5 586.787 1183.17 Q589.362 1181.81 592.458 1181.81 Q598.969 1181.81 602.73 1185.77 Q606.521 1189.71 606.521 1196.51 Q606.521 1203.16 602.586 1207.19 Q598.651 1211.21 592.111 1211.21 Q584.617 1211.21 580.653 1205.48 Q576.689 1199.72 576.689 1188.81 Q576.689 1178.57 581.55 1172.49 Q586.411 1166.39 594.6 1166.39 Q596.799 1166.39 599.027 1166.82 Q601.284 1167.25 603.714 1168.12 Z" fill="#000000" fill-rule="nonzero" fill-opacity="1" /><path clip-path="url(#clip230)" d="M2264.36 1167.17 L2287.3 1167.17 L2287.3 1172.09 L2269.71 1172.09 L2269.71 1182.68 Q2270.98 1182.24 2272.26 1182.04 Q2273.53 1181.81 2274.8 1181.81 Q2282.04 1181.81 2286.26 1185.77 Q2290.49 1189.74 2290.49 1196.51 Q2290.49 1203.48 2286.15 1207.36 Q2281.81 1211.21 2273.91 1211.21 Q2271.19 1211.21 2268.35 1210.74 Q2265.54 1210.28 2262.54 1209.36 L2262.54 1203.48 Q2265.14 1204.9 2267.92 1205.59 Q2270.7 1206.29 2273.79 1206.29 Q2278.8 1206.29 2281.72 1203.65 Q2284.64 1201.02 2284.64 1196.51 Q2284.64 1191.99 2281.72 1189.36 Q2278.8 1186.73 2273.79 1186.73 Q2271.45 1186.73 2269.1 1187.25 Q2266.79 1187.77 2264.36 1188.87 L2264.36 1167.17 Z" fill="#000000" fill-rule="nonzero" fill-opacity="1" /><path clip-path="url(#clip230)" d="M2318.06 1172.26 L2303.31 1195.32 L2318.06 1195.32 L2318.06 1172.26 M2316.53 1167.17 L2323.88 1167.17 L2323.88 1195.32 L2330.04 1195.32 L2330.04 1200.18 L2323.88 1200.18 L2323.88 1210.37 L2318.06 1210.37 L2318.06 1200.18 L2298.56 1200.18 L2298.56 1194.54 L2316.53 1167.17 Z" fill="#000000" fill-rule="nonzero" fill-opacity="1" /><path clip-path="url(#clip230)" d="M1376.17 1280.21 Q1376.17 1283.22 1374.33 1285.01 Q1372.53 1286.8 1370.27 1286.8 Q1368.26 1286.8 1367.21 1285.64 Q1366.16 1284.48 1366.16 1283.01 Q1366.16 1282.37 1366.42 1281.58 Q1366.68 1280.74 1367.26 1279.74 Q1367.9 1278.74 1369.21 1278 Q1370.53 1277.26 1372.32 1277.16 Q1371.95 1276.79 1371.85 1276.73 Q1371.06 1276.1 1369.58 1275.89 Q1369.37 1275.79 1368.63 1275.79 Q1365 1275.79 1361.31 1278.47 Q1357.67 1281.11 1353.19 1286.12 Q1347.55 1291.96 1343.92 1294.13 Q1359.89 1296.23 1359.89 1305.46 Q1359.89 1306.98 1359.46 1308.83 Q1358.62 1312.31 1358.62 1314.84 Q1358.62 1319.9 1362.05 1319.9 Q1365.37 1319.9 1367.47 1316.52 Q1369.63 1313.15 1371.43 1306.56 Q1371.69 1305.35 1371.95 1304.98 Q1372.22 1304.61 1372.95 1304.61 Q1374.27 1304.61 1374.27 1305.67 Q1373.06 1311.83 1370.37 1316.58 Q1366.95 1322.32 1361.84 1322.32 Q1357.57 1322.32 1354.72 1319.37 Q1351.93 1316.37 1351.93 1311.62 Q1351.93 1310.46 1352.35 1307.83 Q1352.67 1306.77 1352.67 1305.56 Q1352.67 1303.08 1351.29 1301.24 Q1349.92 1299.34 1347.71 1298.39 Q1345.5 1297.45 1343.65 1297.02 Q1341.86 1296.55 1340.12 1296.39 Q1334.85 1318.68 1334.11 1320.05 Q1333.64 1321 1332.59 1321.64 Q1331.53 1322.32 1330.43 1322.32 Q1329.37 1322.32 1328.32 1321.58 Q1327.32 1320.9 1327.32 1319.26 Q1327.32 1318.42 1327.74 1316.89 L1343.39 1254.71 L1343.71 1252.6 Q1343.71 1251.97 1343.44 1251.65 Q1343.23 1251.28 1341.97 1251.02 Q1340.75 1250.75 1338.33 1250.75 Q1337.33 1250.75 1336.85 1250.7 Q1336.43 1250.65 1336.06 1250.38 Q1335.7 1250.07 1335.7 1249.44 Q1335.7 1248.54 1336.06 1248.07 Q1336.49 1247.54 1336.8 1247.43 Q1337.12 1247.33 1337.75 1247.27 Q1338.65 1247.22 1341.65 1246.96 Q1344.65 1246.64 1347.24 1246.43 Q1349.82 1246.22 1350.93 1246.22 Q1351.56 1246.22 1351.87 1246.54 Q1352.24 1246.8 1352.3 1247.12 L1352.35 1247.38 L1341.12 1292.91 Q1345.76 1291.07 1353.09 1282.9 Q1361.57 1273.41 1368.84 1273.41 Q1372.27 1273.41 1374.22 1275.52 Q1376.17 1277.58 1376.17 1280.21 Z" fill="#000000" fill-rule="nonzero" fill-opacity="1" /><polyline clip-path="url(#clip230)" style="stroke:#000000; stroke-linecap:round; stroke-linejoin:round; stroke-width:4; stroke-opacity:1; fill:none" points="357.566,1137.17 357.566,131.032 "/>
<polyline clip-path="url(#clip230)" style="stroke:#000000; stroke-linecap:round; stroke-linejoin:round; stroke-width:4; stroke-opacity:1; fill:none" points="357.566,1108.69 376.464,1108.69 "/>
<polyline clip-path="url(#clip230)" style="stroke:#000000; stroke-linecap:round; stroke-linejoin:round; stroke-width:4; stroke-opacity:1; fill:none" points="357.566,850.261 376.464,850.261 "/>
<polyline clip-path="url(#clip230)" style="stroke:#000000; stroke-linecap:round; stroke-linejoin:round; stroke-width:4; stroke-opacity:1; fill:none" points="357.566,591.83 376.464,591.83 "/>
<polyline clip-path="url(#clip230)" style="stroke:#000000; stroke-linecap:round; stroke-linejoin:round; stroke-width:4; stroke-opacity:1; fill:none" points="357.566,333.398 376.464,333.398 "/>
<path clip-path="url(#clip230)" d="M306.636 1090.94 Q302.122 1090.94 299.836 1095.4 Q297.579 1099.82 297.579 1108.74 Q297.579 1117.62 299.836 1122.07 Q302.122 1126.5 306.636 1126.5 Q311.178 1126.5 313.435 1122.07 Q315.721 1117.62 315.721 1108.74 Q315.721 1099.82 313.435 1095.4 Q311.178 1090.94 306.636 1090.94 M306.636 1086.31 Q313.898 1086.31 317.718 1092.07 Q321.566 1097.8 321.566 1108.74 Q321.566 1119.64 317.718 1125.4 Q313.898 1131.13 306.636 1131.13 Q299.373 1131.13 295.525 1125.4 Q291.705 1119.64 291.705 1108.74 Q291.705 1097.8 295.525 1092.07 Q299.373 1086.31 306.636 1086.31 Z" fill="#000000" fill-rule="nonzero" fill-opacity="1" /><path clip-path="url(#clip230)" d="M182.041 866.942 L191.59 866.942 L191.59 833.985 L181.202 836.068 L181.202 830.744 L191.532 828.661 L197.377 828.661 L197.377 866.942 L206.925 866.942 L206.925 871.861 L182.041 871.861 L182.041 866.942 Z" fill="#000000" fill-rule="nonzero" fill-opacity="1" /><path clip-path="url(#clip230)" d="M231.231 832.509 Q226.717 832.509 224.431 836.965 Q222.174 841.392 222.174 850.304 Q222.174 859.187 224.431 863.643 Q226.717 868.071 231.231 868.071 Q235.774 868.071 238.031 863.643 Q240.317 859.187 240.317 850.304 Q240.317 841.392 238.031 836.965 Q235.774 832.509 231.231 832.509 M231.231 827.88 Q238.494 827.88 242.313 833.638 Q246.161 839.367 246.161 850.304 Q246.161 861.213 242.313 866.971 Q238.494 872.7 231.231 872.7 Q223.968 872.7 220.12 866.971 Q216.3 861.213 216.3 850.304 Q216.3 839.367 220.12 833.638 Q223.968 827.88 231.231 827.88 Z" fill="#000000" fill-rule="nonzero" fill-opacity="1" /><path clip-path="url(#clip230)" d="M268.933 832.509 Q264.419 832.509 262.134 836.965 Q259.877 841.392 259.877 850.304 Q259.877 859.187 262.134 863.643 Q264.419 868.071 268.933 868.071 Q273.476 868.071 275.733 863.643 Q278.019 859.187 278.019 850.304 Q278.019 841.392 275.733 836.965 Q273.476 832.509 268.933 832.509 M268.933 827.88 Q276.196 827.88 280.015 833.638 Q283.864 839.367 283.864 850.304 Q283.864 861.213 280.015 866.971 Q276.196 872.7 268.933 872.7 Q261.671 872.7 257.822 866.971 Q254.003 861.213 254.003 850.304 Q254.003 839.367 257.822 833.638 Q261.671 827.88 268.933 827.88 Z" fill="#000000" fill-rule="nonzero" fill-opacity="1" /><path clip-path="url(#clip230)" d="M306.636 832.509 Q302.122 832.509 299.836 836.965 Q297.579 841.392 297.579 850.304 Q297.579 859.187 299.836 863.643 Q302.122 868.071 306.636 868.071 Q311.178 868.071 313.435 863.643 Q315.721 859.187 315.721 850.304 Q315.721 841.392 313.435 836.965 Q311.178 832.509 306.636 832.509 M306.636 827.88 Q313.898 827.88 317.718 833.638 Q321.566 839.367 321.566 850.304 Q321.566 861.213 317.718 866.971 Q313.898 872.7 306.636 872.7 Q299.373 872.7 295.525 866.971 Q291.705 861.213 291.705 850.304 Q291.705 839.367 295.525 833.638 Q299.373 827.88 306.636 827.88 Z" fill="#000000" fill-rule="nonzero" fill-opacity="1" /><path clip-path="url(#clip230)" d="M186.063 608.511 L206.463 608.511 L206.463 613.43 L179.032 613.43 L179.032 608.511 Q182.36 605.067 188.089 599.28 Q193.847 593.465 195.323 591.786 Q198.129 588.632 199.229 586.462 Q200.357 584.263 200.357 582.151 Q200.357 578.708 197.927 576.538 Q195.525 574.367 191.648 574.367 Q188.899 574.367 185.832 575.322 Q182.794 576.277 179.321 578.216 L179.321 572.313 Q182.852 570.895 185.919 570.172 Q188.986 569.448 191.532 569.448 Q198.245 569.448 202.238 572.805 Q206.231 576.161 206.231 581.775 Q206.231 584.437 205.218 586.838 Q204.235 589.211 201.601 592.452 Q200.878 593.291 197.001 597.313 Q193.123 601.306 186.063 608.511 Z" fill="#000000" fill-rule="nonzero" fill-opacity="1" /><path clip-path="url(#clip230)" d="M231.231 574.078 Q226.717 574.078 224.431 578.534 Q222.174 582.961 222.174 591.873 Q222.174 600.756 224.431 605.212 Q226.717 609.639 231.231 609.639 Q235.774 609.639 238.031 605.212 Q240.317 600.756 240.317 591.873 Q240.317 582.961 238.031 578.534 Q235.774 574.078 231.231 574.078 M231.231 569.448 Q238.494 569.448 242.313 575.207 Q246.161 580.936 246.161 591.873 Q246.161 602.782 242.313 608.54 Q238.494 614.269 231.231 614.269 Q223.968 614.269 220.12 608.54 Q216.3 602.782 216.3 591.873 Q216.3 580.936 220.12 575.207 Q223.968 569.448 231.231 569.448 Z" fill="#000000" fill-rule="nonzero" fill-opacity="1" /><path clip-path="url(#clip230)" d="M268.933 574.078 Q264.419 574.078 262.134 578.534 Q259.877 582.961 259.877 591.873 Q259.877 600.756 262.134 605.212 Q264.419 609.639 268.933 609.639 Q273.476 609.639 275.733 605.212 Q278.019 600.756 278.019 591.873 Q278.019 582.961 275.733 578.534 Q273.476 574.078 268.933 574.078 M268.933 569.448 Q276.196 569.448 280.015 575.207 Q283.864 580.936 283.864 591.873 Q283.864 602.782 280.015 608.54 Q276.196 614.269 268.933 614.269 Q261.671 614.269 257.822 608.54 Q254.003 602.782 254.003 591.873 Q254.003 580.936 257.822 575.207 Q261.671 569.448 268.933 569.448 Z" fill="#000000" fill-rule="nonzero" fill-opacity="1" /><path clip-path="url(#clip230)" d="M306.636 574.078 Q302.122 574.078 299.836 578.534 Q297.579 582.961 297.579 591.873 Q297.579 600.756 299.836 605.212 Q302.122 609.639 306.636 609.639 Q311.178 609.639 313.435 605.212 Q315.721 600.756 315.721 591.873 Q315.721 582.961 313.435 578.534 Q311.178 574.078 306.636 574.078 M306.636 569.448 Q313.898 569.448 317.718 575.207 Q321.566 580.936 321.566 591.873 Q321.566 602.782 317.718 608.54 Q313.898 614.269 306.636 614.269 Q299.373 614.269 295.525 608.54 Q291.705 602.782 291.705 591.873 Q291.705 580.936 295.525 575.207 Q299.373 569.448 306.636 569.448 Z" fill="#000000" fill-rule="nonzero" fill-opacity="1" /><path clip-path="url(#clip230)" d="M198.737 331.706 Q202.932 332.603 205.276 335.438 Q207.649 338.274 207.649 342.441 Q207.649 348.835 203.251 352.336 Q198.853 355.837 190.751 355.837 Q188.031 355.837 185.137 355.288 Q182.273 354.767 179.206 353.696 L179.206 348.054 Q181.636 349.472 184.53 350.195 Q187.423 350.919 190.577 350.919 Q196.075 350.919 198.939 348.748 Q201.833 346.578 201.833 342.441 Q201.833 338.621 199.142 336.48 Q196.48 334.31 191.706 334.31 L186.671 334.31 L186.671 329.507 L191.937 329.507 Q196.248 329.507 198.534 327.799 Q200.82 326.063 200.82 322.823 Q200.82 319.495 198.448 317.73 Q196.104 315.936 191.706 315.936 Q189.304 315.936 186.555 316.457 Q183.806 316.978 180.508 318.077 L180.508 312.869 Q183.835 311.943 186.729 311.48 Q189.651 311.017 192.226 311.017 Q198.882 311.017 202.759 314.055 Q206.636 317.065 206.636 322.215 Q206.636 325.803 204.582 328.291 Q202.527 330.751 198.737 331.706 Z" fill="#000000" fill-rule="nonzero" fill-opacity="1" /><path clip-path="url(#clip230)" d="M231.231 315.647 Q226.717 315.647 224.431 320.103 Q222.174 324.53 222.174 333.442 Q222.174 342.325 224.431 346.781 Q226.717 351.208 231.231 351.208 Q235.774 351.208 238.031 346.781 Q240.317 342.325 240.317 333.442 Q240.317 324.53 238.031 320.103 Q235.774 315.647 231.231 315.647 M231.231 311.017 Q238.494 311.017 242.313 316.775 Q246.161 322.504 246.161 333.442 Q246.161 344.35 242.313 350.108 Q238.494 355.837 231.231 355.837 Q223.968 355.837 220.12 350.108 Q216.3 344.35 216.3 333.442 Q216.3 322.504 220.12 316.775 Q223.968 311.017 231.231 311.017 Z" fill="#000000" fill-rule="nonzero" fill-opacity="1" /><path clip-path="url(#clip230)" d="M268.933 315.647 Q264.419 315.647 262.134 320.103 Q259.877 324.53 259.877 333.442 Q259.877 342.325 262.134 346.781 Q264.419 351.208 268.933 351.208 Q273.476 351.208 275.733 346.781 Q278.019 342.325 278.019 333.442 Q278.019 324.53 275.733 320.103 Q273.476 315.647 268.933 315.647 M268.933 311.017 Q276.196 311.017 280.015 316.775 Q283.864 322.504 283.864 333.442 Q283.864 344.35 280.015 350.108 Q276.196 355.837 268.933 355.837 Q261.671 355.837 257.822 350.108 Q254.003 344.35 254.003 333.442 Q254.003 322.504 257.822 316.775 Q261.671 311.017 268.933 311.017 Z" fill="#000000" fill-rule="nonzero" fill-opacity="1" /><path clip-path="url(#clip230)" d="M306.636 315.647 Q302.122 315.647 299.836 320.103 Q297.579 324.53 297.579 333.442 Q297.579 342.325 299.836 346.781 Q302.122 351.208 306.636 351.208 Q311.178 351.208 313.435 346.781 Q315.721 342.325 315.721 333.442 Q315.721 324.53 313.435 320.103 Q311.178 315.647 306.636 315.647 M306.636 311.017 Q313.898 311.017 317.718 316.775 Q321.566 322.504 321.566 333.442 Q321.566 344.35 317.718 350.108 Q313.898 355.837 306.636 355.837 Q299.373 355.837 295.525 350.108 Q291.705 344.35 291.705 333.442 Q291.705 322.504 295.525 316.775 Q299.373 311.017 306.636 311.017 Z" fill="#000000" fill-rule="nonzero" fill-opacity="1" /><path clip-path="url(#clip230)" d="M74.8692 607.532 Q78.5583 607.532 78.5583 612.802 L78.5583 624.66 Q83.3013 621.34 90.3105 621.34 Q96.3183 621.34 101.957 623.816 Q107.544 626.241 111.443 630.14 Q115.343 633.988 117.715 638.836 Q120.034 643.685 120.034 648.428 Q120.034 655.648 115.132 660.127 Q110.231 664.607 102.959 664.607 Q99.1115 664.607 94.8427 663.289 Q90.574 661.919 86.6214 659.337 Q82.6162 656.754 79.4015 653.381 Q76.1867 649.956 74.2368 645.529 Q72.2869 641.049 72.2869 636.359 L72.2869 611.748 Q72.2869 610.431 72.3923 609.745 Q72.445 609.008 73.0774 608.27 Q73.6571 607.532 74.8692 607.532 M89.0457 628.243 Q87.7808 628.243 86.6741 628.401 Q85.5147 628.559 83.9864 629.139 Q82.4054 629.719 81.2987 630.72 Q80.1393 631.722 79.3488 633.671 Q78.5583 635.569 78.5583 638.151 Q78.5583 641.787 80.5609 645.793 Q82.5635 649.798 87.5173 652.854 Q91.7334 655.384 97.2142 656.649 Q102.695 657.914 105.963 657.914 Q111.549 657.914 114.605 655.226 Q117.609 652.486 117.609 648.322 Q117.609 644.897 115.291 640.997 Q112.919 637.097 108.439 634.093 Q104.54 631.458 98.8479 629.877 Q93.1563 628.243 89.0457 628.243 Z" fill="#000000" fill-rule="nonzero" fill-opacity="1" /><path clip-path="url(#clip230)" d="M998.21 36.6977 L998.21 45.7602 Q994.147 43.6768 989.772 42.6352 Q985.397 41.5935 980.71 41.5935 Q973.574 41.5935 969.981 43.781 Q966.439 45.9685 966.439 50.3435 Q966.439 53.6768 968.991 55.6039 Q971.543 57.4789 979.252 59.1976 L982.533 59.9268 Q992.741 62.1143 997.012 66.1246 Q1001.33 70.083 1001.33 77.2183 Q1001.33 85.3433 994.876 90.0829 Q988.47 94.8224 977.22 94.8224 Q972.533 94.8224 967.429 93.8849 Q962.377 92.9995 956.752 91.1766 L956.752 81.2808 Q962.064 84.0412 967.22 85.4475 Q972.377 86.8016 977.429 86.8016 Q984.199 86.8016 987.845 84.51 Q991.491 82.1662 991.491 77.9475 Q991.491 74.0413 988.835 71.9579 Q986.231 69.8746 977.324 67.9476 L973.991 67.1663 Q965.085 65.2913 961.127 61.4372 Q957.168 57.5309 957.168 50.7601 Q957.168 42.531 963.002 38.0519 Q968.835 33.5727 979.564 33.5727 Q984.877 33.5727 989.564 34.354 Q994.251 35.1352 998.21 36.6977 Z" fill="#000000" fill-rule="nonzero" fill-opacity="1" /><path clip-path="url(#clip230)" d="M1016.6 34.979 L1026.18 34.979 L1026.18 93.312 L1016.6 93.312 L1016.6 34.979 M1016.6 12.2708 L1026.18 12.2708 L1026.18 24.4061 L1016.6 24.4061 L1016.6 12.2708 Z" fill="#000000" fill-rule="nonzero" fill-opacity="1" /><path clip-path="url(#clip230)" d="M1094.72 58.1039 L1094.72 93.312 L1085.14 93.312 L1085.14 58.4164 Q1085.14 50.1351 1081.91 46.0206 Q1078.68 41.906 1072.22 41.906 Q1064.46 41.906 1059.98 46.8539 Q1055.5 51.8018 1055.5 60.3434 L1055.5 93.312 L1045.87 93.312 L1045.87 34.979 L1055.5 34.979 L1055.5 44.0414 Q1058.94 38.781 1063.57 36.1769 Q1068.26 33.5727 1074.36 33.5727 Q1084.41 33.5727 1089.56 39.8227 Q1094.72 46.0206 1094.72 58.1039 Z" fill="#000000" fill-rule="nonzero" fill-opacity="1" /><path clip-path="url(#clip230)" d="M1152.22 63.4684 Q1152.22 53.0518 1147.9 47.3227 Q1143.63 41.5935 1135.87 41.5935 Q1128.16 41.5935 1123.83 47.3227 Q1119.56 53.0518 1119.56 63.4684 Q1119.56 73.8329 1123.83 79.5621 Q1128.16 85.2912 1135.87 85.2912 Q1143.63 85.2912 1147.9 79.5621 Q1152.22 73.8329 1152.22 63.4684 M1161.8 86.0725 Q1161.8 100.968 1155.19 108.208 Q1148.57 115.499 1134.93 115.499 Q1129.88 115.499 1125.4 114.718 Q1120.92 113.989 1116.7 112.426 L1116.7 103.104 Q1120.92 105.395 1125.03 106.489 Q1129.15 107.583 1133.42 107.583 Q1142.84 107.583 1147.53 102.635 Q1152.22 97.7391 1152.22 87.7912 L1152.22 83.0516 Q1149.25 88.2079 1144.62 90.7599 Q1139.98 93.312 1133.52 93.312 Q1122.79 93.312 1116.23 85.135 Q1109.67 76.9579 1109.67 63.4684 Q1109.67 49.9268 1116.23 41.7498 Q1122.79 33.5727 1133.52 33.5727 Q1139.98 33.5727 1144.62 36.1248 Q1149.25 38.6769 1152.22 43.8331 L1152.22 34.979 L1161.8 34.979 L1161.8 86.0725 Z" fill="#000000" fill-rule="nonzero" fill-opacity="1" /><path clip-path="url(#clip230)" d="M1180.55 70.2913 L1180.55 34.979 L1190.14 34.979 L1190.14 69.9267 Q1190.14 78.2079 1193.36 82.3746 Q1196.59 86.4891 1203.05 86.4891 Q1210.81 86.4891 1215.29 81.5412 Q1219.82 76.5933 1219.82 68.0517 L1219.82 34.979 L1229.41 34.979 L1229.41 93.312 L1219.82 93.312 L1219.82 84.3537 Q1216.33 89.6662 1211.7 92.2703 Q1207.11 94.8224 1201.02 94.8224 Q1190.97 94.8224 1185.76 88.5724 Q1180.55 82.3225 1180.55 70.2913 M1204.67 33.5727 L1204.67 33.5727 Z" fill="#000000" fill-rule="nonzero" fill-opacity="1" /><path clip-path="url(#clip230)" d="M1249.15 12.2708 L1258.73 12.2708 L1258.73 93.312 L1249.15 93.312 L1249.15 12.2708 Z" fill="#000000" fill-rule="nonzero" fill-opacity="1" /><path clip-path="url(#clip230)" d="M1305.29 63.9892 Q1293.68 63.9892 1289.2 66.6455 Q1284.72 69.3017 1284.72 75.7079 Q1284.72 80.8121 1288.05 83.8329 Q1291.44 86.8016 1297.22 86.8016 Q1305.19 86.8016 1309.98 81.1766 Q1314.82 75.4996 1314.82 66.1246 L1314.82 63.9892 L1305.29 63.9892 M1324.41 60.0309 L1324.41 93.312 L1314.82 93.312 L1314.82 84.4579 Q1311.54 89.7704 1306.65 92.3224 Q1301.75 94.8224 1294.67 94.8224 Q1285.71 94.8224 1280.4 89.8224 Q1275.14 84.7704 1275.14 76.3329 Q1275.14 66.4892 1281.7 61.4893 Q1288.31 56.4893 1301.39 56.4893 L1314.82 56.4893 L1314.82 55.5518 Q1314.82 48.9372 1310.45 45.3435 Q1306.12 41.6977 1298.26 41.6977 Q1293.26 41.6977 1288.52 42.8956 Q1283.78 44.0935 1279.41 46.4893 L1279.41 37.6352 Q1284.67 35.604 1289.61 34.6144 Q1294.56 33.5727 1299.25 33.5727 Q1311.91 33.5727 1318.16 40.1352 Q1324.41 46.6977 1324.41 60.0309 Z" fill="#000000" fill-rule="nonzero" fill-opacity="1" /><path clip-path="url(#clip230)" d="M1377.95 43.9373 Q1376.33 42.9998 1374.41 42.5831 Q1372.53 42.1144 1370.24 42.1144 Q1362.11 42.1144 1357.74 47.4268 Q1353.42 52.6872 1353.42 62.583 L1353.42 93.312 L1343.78 93.312 L1343.78 34.979 L1353.42 34.979 L1353.42 44.0414 Q1356.44 38.729 1361.28 36.1769 Q1366.12 33.5727 1373.05 33.5727 Q1374.04 33.5727 1375.24 33.729 Q1376.44 33.8332 1377.9 34.0936 L1377.95 43.9373 Z" fill="#000000" fill-rule="nonzero" fill-opacity="1" /><path clip-path="url(#clip230)" d="M1415.03 34.979 L1425.19 34.979 L1443.42 83.9371 L1461.64 34.979 L1471.8 34.979 L1449.93 93.312 L1436.91 93.312 L1415.03 34.979 Z" fill="#000000" fill-rule="nonzero" fill-opacity="1" /><path clip-path="url(#clip230)" d="M1511.54 63.9892 Q1499.93 63.9892 1495.45 66.6455 Q1490.97 69.3017 1490.97 75.7079 Q1490.97 80.8121 1494.3 83.8329 Q1497.69 86.8016 1503.47 86.8016 Q1511.44 86.8016 1516.23 81.1766 Q1521.07 75.4996 1521.07 66.1246 L1521.07 63.9892 L1511.54 63.9892 M1530.65 60.0309 L1530.65 93.312 L1521.07 93.312 L1521.07 84.4579 Q1517.79 89.7704 1512.89 92.3224 Q1508 94.8224 1500.92 94.8224 Q1491.96 94.8224 1486.64 89.8224 Q1481.38 84.7704 1481.38 76.3329 Q1481.38 66.4892 1487.95 61.4893 Q1494.56 56.4893 1507.63 56.4893 L1521.07 56.4893 L1521.07 55.5518 Q1521.07 48.9372 1516.7 45.3435 Q1512.37 41.6977 1504.51 41.6977 Q1499.51 41.6977 1494.77 42.8956 Q1490.03 44.0935 1485.66 46.4893 L1485.66 37.6352 Q1490.92 35.604 1495.86 34.6144 Q1500.81 33.5727 1505.5 33.5727 Q1518.15 33.5727 1524.4 40.1352 Q1530.65 46.6977 1530.65 60.0309 Z" fill="#000000" fill-rule="nonzero" fill-opacity="1" /><path clip-path="url(#clip230)" d="M1550.39 12.2708 L1559.98 12.2708 L1559.98 93.312 L1550.39 93.312 L1550.39 12.2708 Z" fill="#000000" fill-rule="nonzero" fill-opacity="1" /><path clip-path="url(#clip230)" d="M1579.04 70.2913 L1579.04 34.979 L1588.62 34.979 L1588.62 69.9267 Q1588.62 78.2079 1591.85 82.3746 Q1595.08 86.4891 1601.54 86.4891 Q1609.3 86.4891 1613.78 81.5412 Q1618.31 76.5933 1618.31 68.0517 L1618.31 34.979 L1627.89 34.979 L1627.89 93.312 L1618.31 93.312 L1618.31 84.3537 Q1614.82 89.6662 1610.19 92.2703 Q1605.6 94.8224 1599.51 94.8224 Q1589.46 94.8224 1584.25 88.5724 Q1579.04 82.3225 1579.04 70.2913 M1603.15 33.5727 L1603.15 33.5727 Z" fill="#000000" fill-rule="nonzero" fill-opacity="1" /><path clip-path="url(#clip230)" d="M1697.53 61.7497 L1697.53 66.4371 L1653.47 66.4371 Q1654.09 76.3329 1659.4 81.5412 Q1664.77 86.6975 1674.3 86.6975 Q1679.82 86.6975 1684.98 85.3433 Q1690.19 83.9891 1695.29 81.2808 L1695.29 90.3433 Q1690.13 92.5308 1684.72 93.6766 Q1679.3 94.8224 1673.73 94.8224 Q1659.77 94.8224 1651.59 86.6975 Q1643.47 78.5725 1643.47 64.7184 Q1643.47 50.3956 1651.18 42.0102 Q1658.94 33.5727 1672.06 33.5727 Q1683.83 33.5727 1690.65 41.1769 Q1697.53 48.7289 1697.53 61.7497 M1687.95 58.9372 Q1687.84 51.0726 1683.52 46.3852 Q1679.25 41.6977 1672.16 41.6977 Q1664.14 41.6977 1659.3 46.2289 Q1654.51 50.7601 1653.78 58.9893 L1687.95 58.9372 Z" fill="#000000" fill-rule="nonzero" fill-opacity="1" /><path clip-path="url(#clip230)" d="M1750.45 36.6977 L1750.45 45.7602 Q1746.38 43.6768 1742.01 42.6352 Q1737.63 41.5935 1732.95 41.5935 Q1725.81 41.5935 1722.22 43.781 Q1718.67 45.9685 1718.67 50.3435 Q1718.67 53.6768 1721.23 55.6039 Q1723.78 57.4789 1731.49 59.1976 L1734.77 59.9268 Q1744.98 62.1143 1749.25 66.1246 Q1753.57 70.083 1753.57 77.2183 Q1753.57 85.3433 1747.11 90.0829 Q1740.71 94.8224 1729.46 94.8224 Q1724.77 94.8224 1719.66 93.8849 Q1714.61 92.9995 1708.99 91.1766 L1708.99 81.2808 Q1714.3 84.0412 1719.46 85.4475 Q1724.61 86.8016 1729.66 86.8016 Q1736.43 86.8016 1740.08 84.51 Q1743.73 82.1662 1743.73 77.9475 Q1743.73 74.0413 1741.07 71.9579 Q1738.47 69.8746 1729.56 67.9476 L1726.23 67.1663 Q1717.32 65.2913 1713.36 61.4372 Q1709.4 57.5309 1709.4 50.7601 Q1709.4 42.531 1715.24 38.0519 Q1721.07 33.5727 1731.8 33.5727 Q1737.11 33.5727 1741.8 34.354 Q1746.49 35.1352 1750.45 36.6977 Z" fill="#000000" fill-rule="nonzero" fill-opacity="1" /><path clip-path="url(#clip231)" d="M442.034 815.383 L386.034 815.383 L414.034 871.383 L442.034 815.383 Z" fill="#ff0000" fill-rule="evenodd" fill-opacity="1" stroke="none"/>
<path clip-path="url(#clip231)" d="M477.548 924.488 L421.548 924.488 L449.548 980.488 L477.548 924.488 Z" fill="#ff0000" fill-rule="evenodd" fill-opacity="1" stroke="none"/>
<path clip-path="url(#clip231)" d="M513.062 947.609 L457.062 947.609 L485.062 1003.61 L513.062 947.609 Z" fill="#ff0000" fill-rule="evenodd" fill-opacity="1" stroke="none"/>
<path clip-path="url(#clip231)" d="M548.576 957.728 L492.576 957.728 L520.576 1013.73 L548.576 957.728 Z" fill="#ff0000" fill-rule="evenodd" fill-opacity="1" stroke="none"/>
<path clip-path="url(#clip231)" d="M584.091 959.669 L528.091 959.669 L556.091 1015.67 L584.091 959.669 Z" fill="#ff0000" fill-rule="evenodd" fill-opacity="1" stroke="none"/>
<path clip-path="url(#clip231)" d="M619.605 965.026 L563.605 965.026 L591.605 1021.03 L619.605 965.026 Z" fill="#ff0000" fill-rule="evenodd" fill-opacity="1" stroke="none"/>
<path clip-path="url(#clip231)" d="M655.119 971.185 L599.119 971.185 L627.119 1027.18 L655.119 971.185 Z" fill="#ff0000" fill-rule="evenodd" fill-opacity="1" stroke="none"/>
<path clip-path="url(#clip231)" d="M690.633 972.209 L634.633 972.209 L662.633 1028.21 L690.633 972.209 Z" fill="#ff0000" fill-rule="evenodd" fill-opacity="1" stroke="none"/>
<path clip-path="url(#clip231)" d="M726.148 976.779 L670.148 976.779 L698.148 1032.78 L726.148 976.779 Z" fill="#ff0000" fill-rule="evenodd" fill-opacity="1" stroke="none"/>
<path clip-path="url(#clip231)" d="M761.662 979.195 L705.662 979.195 L733.662 1035.2 L761.662 979.195 Z" fill="#ff0000" fill-rule="evenodd" fill-opacity="1" stroke="none"/>
<path clip-path="url(#clip231)" d="M797.176 980.647 L741.176 980.647 L769.176 1036.65 L797.176 980.647 Z" fill="#ff0000" fill-rule="evenodd" fill-opacity="1" stroke="none"/>
<path clip-path="url(#clip231)" d="M832.69 984.101 L776.69 984.101 L804.69 1040.1 L832.69 984.101 Z" fill="#ff0000" fill-rule="evenodd" fill-opacity="1" stroke="none"/>
<path clip-path="url(#clip231)" d="M868.205 990.311 L812.205 990.311 L840.205 1046.31 L868.205 990.311 Z" fill="#ff0000" fill-rule="evenodd" fill-opacity="1" stroke="none"/>
<path clip-path="url(#clip231)" d="M903.719 990.781 L847.719 990.781 L875.719 1046.78 L903.719 990.781 Z" fill="#ff0000" fill-rule="evenodd" fill-opacity="1" stroke="none"/>
<path clip-path="url(#clip231)" d="M939.233 995.671 L883.233 995.671 L911.233 1051.67 L939.233 995.671 Z" fill="#ff0000" fill-rule="evenodd" fill-opacity="1" stroke="none"/>
<path clip-path="url(#clip231)" d="M974.747 997.667 L918.747 997.667 L946.747 1053.67 L974.747 997.667 Z" fill="#ff0000" fill-rule="evenodd" fill-opacity="1" stroke="none"/>
<path clip-path="url(#clip231)" d="M1010.26 999.602 L954.262 999.602 L982.262 1055.6 L1010.26 999.602 Z" fill="#ff0000" fill-rule="evenodd" fill-opacity="1" stroke="none"/>
<path clip-path="url(#clip231)" d="M1045.78 1000.46 L989.776 1000.46 L1017.78 1056.46 L1045.78 1000.46 Z" fill="#ff0000" fill-rule="evenodd" fill-opacity="1" stroke="none"/>
<path clip-path="url(#clip231)" d="M1081.29 1003.9 L1025.29 1003.9 L1053.29 1059.9 L1081.29 1003.9 Z" fill="#ff0000" fill-rule="evenodd" fill-opacity="1" stroke="none"/>
<path clip-path="url(#clip231)" d="M1116.8 1006.8 L1060.8 1006.8 L1088.8 1062.8 L1116.8 1006.8 Z" fill="#ff0000" fill-rule="evenodd" fill-opacity="1" stroke="none"/>
<path clip-path="url(#clip231)" d="M1152.32 1007.22 L1096.32 1007.22 L1124.32 1063.22 L1152.32 1007.22 Z" fill="#ff0000" fill-rule="evenodd" fill-opacity="1" stroke="none"/>
<path clip-path="url(#clip231)" d="M1187.83 1011.04 L1131.83 1011.04 L1159.83 1067.04 L1187.83 1011.04 Z" fill="#ff0000" fill-rule="evenodd" fill-opacity="1" stroke="none"/>
<path clip-path="url(#clip231)" d="M1223.35 1014.2 L1167.35 1014.2 L1195.35 1070.2 L1223.35 1014.2 Z" fill="#ff0000" fill-rule="evenodd" fill-opacity="1" stroke="none"/>
<path clip-path="url(#clip231)" d="M1258.86 1016.86 L1202.86 1016.86 L1230.86 1072.86 L1258.86 1016.86 Z" fill="#ff0000" fill-rule="evenodd" fill-opacity="1" stroke="none"/>
<path clip-path="url(#clip231)" d="M1294.38 1018.18 L1238.38 1018.18 L1266.38 1074.18 L1294.38 1018.18 Z" fill="#ff0000" fill-rule="evenodd" fill-opacity="1" stroke="none"/>
<path clip-path="url(#clip231)" d="M1329.89 1020.99 L1273.89 1020.99 L1301.89 1076.99 L1329.89 1020.99 Z" fill="#ff0000" fill-rule="evenodd" fill-opacity="1" stroke="none"/>
<path clip-path="url(#clip231)" d="M1365.4 1022.98 L1309.4 1022.98 L1337.4 1078.98 L1365.4 1022.98 Z" fill="#ff0000" fill-rule="evenodd" fill-opacity="1" stroke="none"/>
<path clip-path="url(#clip231)" d="M1400.92 1026.61 L1344.92 1026.61 L1372.92 1082.61 L1400.92 1026.61 Z" fill="#ff0000" fill-rule="evenodd" fill-opacity="1" stroke="none"/>
<path clip-path="url(#clip231)" d="M1436.43 1027.11 L1380.43 1027.11 L1408.43 1083.11 L1436.43 1027.11 Z" fill="#ff0000" fill-rule="evenodd" fill-opacity="1" stroke="none"/>
<path clip-path="url(#clip231)" d="M1471.95 1032.52 L1415.95 1032.52 L1443.95 1088.52 L1471.95 1032.52 Z" fill="#ff0000" fill-rule="evenodd" fill-opacity="1" stroke="none"/>
<path clip-path="url(#clip231)" d="M1507.46 1034.31 L1451.46 1034.31 L1479.46 1090.31 L1507.46 1034.31 Z" fill="#ff0000" fill-rule="evenodd" fill-opacity="1" stroke="none"/>
<path clip-path="url(#clip231)" d="M1542.98 1038.76 L1486.98 1038.76 L1514.98 1094.76 L1542.98 1038.76 Z" fill="#ff0000" fill-rule="evenodd" fill-opacity="1" stroke="none"/>
<path clip-path="url(#clip231)" d="M1578.49 1044.34 L1522.49 1044.34 L1550.49 1100.34 L1578.49 1044.34 Z" fill="#ff0000" fill-rule="evenodd" fill-opacity="1" stroke="none"/>
<path clip-path="url(#clip231)" d="M1614 1046.35 L1558 1046.35 L1586 1102.35 L1614 1046.35 Z" fill="#ff0000" fill-rule="evenodd" fill-opacity="1" stroke="none"/>
<path clip-path="url(#clip231)" d="M1649.52 1049.98 L1593.52 1049.98 L1621.52 1105.98 L1649.52 1049.98 Z" fill="#ff0000" fill-rule="evenodd" fill-opacity="1" stroke="none"/>
<path clip-path="url(#clip231)" d="M1685.03 1051.89 L1629.03 1051.89 L1657.03 1107.89 L1685.03 1051.89 Z" fill="#ff0000" fill-rule="evenodd" fill-opacity="1" stroke="none"/>
<path clip-path="url(#clip231)" d="M1720.55 1056.8 L1664.55 1056.8 L1692.55 1112.8 L1720.55 1056.8 Z" fill="#ff0000" fill-rule="evenodd" fill-opacity="1" stroke="none"/>
<path clip-path="url(#clip231)" d="M1756.06 1063.24 L1700.06 1063.24 L1728.06 1119.24 L1756.06 1063.24 Z" fill="#ff0000" fill-rule="evenodd" fill-opacity="1" stroke="none"/>
<path clip-path="url(#clip231)" d="M1791.57 1064.08 L1735.57 1064.08 L1763.57 1120.08 L1791.57 1064.08 Z" fill="#ff0000" fill-rule="evenodd" fill-opacity="1" stroke="none"/>
<path clip-path="url(#clip231)" d="M1827.09 1065.06 L1771.09 1065.06 L1799.09 1121.06 L1827.09 1065.06 Z" fill="#ff0000" fill-rule="evenodd" fill-opacity="1" stroke="none"/>
<path clip-path="url(#clip231)" d="M1862.6 1065.55 L1806.6 1065.55 L1834.6 1121.55 L1862.6 1065.55 Z" fill="#ff0000" fill-rule="evenodd" fill-opacity="1" stroke="none"/>
<path clip-path="url(#clip231)" d="M1898.12 1066 L1842.12 1066 L1870.12 1122 L1898.12 1066 Z" fill="#ff0000" fill-rule="evenodd" fill-opacity="1" stroke="none"/>
<path clip-path="url(#clip231)" d="M1933.63 1066.37 L1877.63 1066.37 L1905.63 1122.37 L1933.63 1066.37 Z" fill="#ff0000" fill-rule="evenodd" fill-opacity="1" stroke="none"/>
<path clip-path="url(#clip231)" d="M1969.15 1067.03 L1913.15 1067.03 L1941.15 1123.03 L1969.15 1067.03 Z" fill="#ff0000" fill-rule="evenodd" fill-opacity="1" stroke="none"/>
<path clip-path="url(#clip231)" d="M2004.66 1067.35 L1948.66 1067.35 L1976.66 1123.35 L2004.66 1067.35 Z" fill="#ff0000" fill-rule="evenodd" fill-opacity="1" stroke="none"/>
<path clip-path="url(#clip231)" d="M2040.17 1067.5 L1984.17 1067.5 L2012.17 1123.5 L2040.17 1067.5 Z" fill="#ff0000" fill-rule="evenodd" fill-opacity="1" stroke="none"/>
<path clip-path="url(#clip231)" d="M2075.69 1068.3 L2019.69 1068.3 L2047.69 1124.3 L2075.69 1068.3 Z" fill="#ff0000" fill-rule="evenodd" fill-opacity="1" stroke="none"/>
<path clip-path="url(#clip231)" d="M2111.2 1068.55 L2055.2 1068.55 L2083.2 1124.55 L2111.2 1068.55 Z" fill="#ff0000" fill-rule="evenodd" fill-opacity="1" stroke="none"/>
<path clip-path="url(#clip231)" d="M2146.72 1068.86 L2090.72 1068.86 L2118.72 1124.86 L2146.72 1068.86 Z" fill="#ff0000" fill-rule="evenodd" fill-opacity="1" stroke="none"/>
<path clip-path="url(#clip231)" d="M2182.23 1069.41 L2126.23 1069.41 L2154.23 1125.41 L2182.23 1069.41 Z" fill="#ff0000" fill-rule="evenodd" fill-opacity="1" stroke="none"/>
<path clip-path="url(#clip231)" d="M2217.75 1069.89 L2161.75 1069.89 L2189.75 1125.89 L2217.75 1069.89 Z" fill="#ff0000" fill-rule="evenodd" fill-opacity="1" stroke="none"/>
<path clip-path="url(#clip231)" d="M2253.26 1070.33 L2197.26 1070.33 L2225.26 1126.33 L2253.26 1070.33 Z" fill="#ff0000" fill-rule="evenodd" fill-opacity="1" stroke="none"/>
<path clip-path="url(#clip231)" d="M2288.77 1071 L2232.77 1071 L2260.77 1127 L2288.77 1071 Z" fill="#ff0000" fill-rule="evenodd" fill-opacity="1" stroke="none"/>
<path clip-path="url(#clip231)" d="M2324.29 1071.44 L2268.29 1071.44 L2296.29 1127.44 L2324.29 1071.44 Z" fill="#ff0000" fill-rule="evenodd" fill-opacity="1" stroke="none"/>
<path clip-path="url(#clip231)" d="M414.034 131.508 L386.034 187.508 L442.034 187.508 L414.034 131.508 Z" fill="#0000ff" fill-rule="evenodd" fill-opacity="1" stroke="none"/>
<path clip-path="url(#clip231)" d="M449.548 639.824 L421.548 695.824 L477.548 695.824 L449.548 639.824 Z" fill="#0000ff" fill-rule="evenodd" fill-opacity="1" stroke="none"/>
<path clip-path="url(#clip231)" d="M485.062 737.936 L457.062 793.936 L513.062 793.936 L485.062 737.936 Z" fill="#0000ff" fill-rule="evenodd" fill-opacity="1" stroke="none"/>
<path clip-path="url(#clip231)" d="M520.576 954.359 L492.576 1010.36 L548.576 1010.36 L520.576 954.359 Z" fill="#0000ff" fill-rule="evenodd" fill-opacity="1" stroke="none"/>
<path clip-path="url(#clip231)" d="M556.091 1012.44 L528.091 1068.44 L584.091 1068.44 L556.091 1012.44 Z" fill="#0000ff" fill-rule="evenodd" fill-opacity="1" stroke="none"/>
<path clip-path="url(#clip231)" d="M591.605 1080.69 L563.605 1136.69 L619.605 1136.69 L591.605 1080.69 Z" fill="#0000ff" fill-rule="evenodd" fill-opacity="1" stroke="none"/>
<path clip-path="url(#clip231)" d="M627.119 1080.69 L599.119 1136.69 L655.119 1136.69 L627.119 1080.69 Z" fill="#0000ff" fill-rule="evenodd" fill-opacity="1" stroke="none"/>
<path clip-path="url(#clip231)" d="M662.633 1080.69 L634.633 1136.69 L690.633 1136.69 L662.633 1080.69 Z" fill="#0000ff" fill-rule="evenodd" fill-opacity="1" stroke="none"/>
<path clip-path="url(#clip231)" d="M698.148 1080.69 L670.148 1136.69 L726.148 1136.69 L698.148 1080.69 Z" fill="#0000ff" fill-rule="evenodd" fill-opacity="1" stroke="none"/>
<path clip-path="url(#clip231)" d="M733.662 1080.69 L705.662 1136.69 L761.662 1136.69 L733.662 1080.69 Z" fill="#0000ff" fill-rule="evenodd" fill-opacity="1" stroke="none"/>
<path clip-path="url(#clip231)" d="M769.176 1080.69 L741.176 1136.69 L797.176 1136.69 L769.176 1080.69 Z" fill="#0000ff" fill-rule="evenodd" fill-opacity="1" stroke="none"/>
<path clip-path="url(#clip231)" d="M804.69 1080.69 L776.69 1136.69 L832.69 1136.69 L804.69 1080.69 Z" fill="#0000ff" fill-rule="evenodd" fill-opacity="1" stroke="none"/>
<path clip-path="url(#clip231)" d="M840.205 1080.69 L812.205 1136.69 L868.205 1136.69 L840.205 1080.69 Z" fill="#0000ff" fill-rule="evenodd" fill-opacity="1" stroke="none"/>
<path clip-path="url(#clip231)" d="M875.719 1080.69 L847.719 1136.69 L903.719 1136.69 L875.719 1080.69 Z" fill="#0000ff" fill-rule="evenodd" fill-opacity="1" stroke="none"/>
<path clip-path="url(#clip231)" d="M911.233 1080.69 L883.233 1136.69 L939.233 1136.69 L911.233 1080.69 Z" fill="#0000ff" fill-rule="evenodd" fill-opacity="1" stroke="none"/>
<path clip-path="url(#clip231)" d="M946.747 1080.69 L918.747 1136.69 L974.747 1136.69 L946.747 1080.69 Z" fill="#0000ff" fill-rule="evenodd" fill-opacity="1" stroke="none"/>
<path clip-path="url(#clip231)" d="M982.262 1080.69 L954.262 1136.69 L1010.26 1136.69 L982.262 1080.69 Z" fill="#0000ff" fill-rule="evenodd" fill-opacity="1" stroke="none"/>
<path clip-path="url(#clip231)" d="M1017.78 1080.69 L989.776 1136.69 L1045.78 1136.69 L1017.78 1080.69 Z" fill="#0000ff" fill-rule="evenodd" fill-opacity="1" stroke="none"/>
<path clip-path="url(#clip231)" d="M1053.29 1080.69 L1025.29 1136.69 L1081.29 1136.69 L1053.29 1080.69 Z" fill="#0000ff" fill-rule="evenodd" fill-opacity="1" stroke="none"/>
<path clip-path="url(#clip231)" d="M1088.8 1080.69 L1060.8 1136.69 L1116.8 1136.69 L1088.8 1080.69 Z" fill="#0000ff" fill-rule="evenodd" fill-opacity="1" stroke="none"/>
<path clip-path="url(#clip231)" d="M1124.32 1080.69 L1096.32 1136.69 L1152.32 1136.69 L1124.32 1080.69 Z" fill="#0000ff" fill-rule="evenodd" fill-opacity="1" stroke="none"/>
<path clip-path="url(#clip231)" d="M1159.83 1080.69 L1131.83 1136.69 L1187.83 1136.69 L1159.83 1080.69 Z" fill="#0000ff" fill-rule="evenodd" fill-opacity="1" stroke="none"/>
<path clip-path="url(#clip231)" d="M1195.35 1080.69 L1167.35 1136.69 L1223.35 1136.69 L1195.35 1080.69 Z" fill="#0000ff" fill-rule="evenodd" fill-opacity="1" stroke="none"/>
<path clip-path="url(#clip231)" d="M1230.86 1080.69 L1202.86 1136.69 L1258.86 1136.69 L1230.86 1080.69 Z" fill="#0000ff" fill-rule="evenodd" fill-opacity="1" stroke="none"/>
<path clip-path="url(#clip231)" d="M1266.38 1080.69 L1238.38 1136.69 L1294.38 1136.69 L1266.38 1080.69 Z" fill="#0000ff" fill-rule="evenodd" fill-opacity="1" stroke="none"/>
<path clip-path="url(#clip231)" d="M1301.89 1080.69 L1273.89 1136.69 L1329.89 1136.69 L1301.89 1080.69 Z" fill="#0000ff" fill-rule="evenodd" fill-opacity="1" stroke="none"/>
<path clip-path="url(#clip231)" d="M1337.4 1080.69 L1309.4 1136.69 L1365.4 1136.69 L1337.4 1080.69 Z" fill="#0000ff" fill-rule="evenodd" fill-opacity="1" stroke="none"/>
<path clip-path="url(#clip231)" d="M1372.92 1080.69 L1344.92 1136.69 L1400.92 1136.69 L1372.92 1080.69 Z" fill="#0000ff" fill-rule="evenodd" fill-opacity="1" stroke="none"/>
<path clip-path="url(#clip231)" d="M1408.43 1080.69 L1380.43 1136.69 L1436.43 1136.69 L1408.43 1080.69 Z" fill="#0000ff" fill-rule="evenodd" fill-opacity="1" stroke="none"/>
<path clip-path="url(#clip231)" d="M1443.95 1080.69 L1415.95 1136.69 L1471.95 1136.69 L1443.95 1080.69 Z" fill="#0000ff" fill-rule="evenodd" fill-opacity="1" stroke="none"/>
<path clip-path="url(#clip231)" d="M1479.46 1080.69 L1451.46 1136.69 L1507.46 1136.69 L1479.46 1080.69 Z" fill="#0000ff" fill-rule="evenodd" fill-opacity="1" stroke="none"/>
<path clip-path="url(#clip231)" d="M1514.98 1080.69 L1486.98 1136.69 L1542.98 1136.69 L1514.98 1080.69 Z" fill="#0000ff" fill-rule="evenodd" fill-opacity="1" stroke="none"/>
<path clip-path="url(#clip231)" d="M1550.49 1080.69 L1522.49 1136.69 L1578.49 1136.69 L1550.49 1080.69 Z" fill="#0000ff" fill-rule="evenodd" fill-opacity="1" stroke="none"/>
<path clip-path="url(#clip231)" d="M1586 1080.69 L1558 1136.69 L1614 1136.69 L1586 1080.69 Z" fill="#0000ff" fill-rule="evenodd" fill-opacity="1" stroke="none"/>
<path clip-path="url(#clip231)" d="M1621.52 1080.69 L1593.52 1136.69 L1649.52 1136.69 L1621.52 1080.69 Z" fill="#0000ff" fill-rule="evenodd" fill-opacity="1" stroke="none"/>
<path clip-path="url(#clip231)" d="M1657.03 1080.69 L1629.03 1136.69 L1685.03 1136.69 L1657.03 1080.69 Z" fill="#0000ff" fill-rule="evenodd" fill-opacity="1" stroke="none"/>
<path clip-path="url(#clip231)" d="M1692.55 1080.69 L1664.55 1136.69 L1720.55 1136.69 L1692.55 1080.69 Z" fill="#0000ff" fill-rule="evenodd" fill-opacity="1" stroke="none"/>
<path clip-path="url(#clip231)" d="M1728.06 1080.69 L1700.06 1136.69 L1756.06 1136.69 L1728.06 1080.69 Z" fill="#0000ff" fill-rule="evenodd" fill-opacity="1" stroke="none"/>
<path clip-path="url(#clip231)" d="M1763.57 1080.69 L1735.57 1136.69 L1791.57 1136.69 L1763.57 1080.69 Z" fill="#0000ff" fill-rule="evenodd" fill-opacity="1" stroke="none"/>
<path clip-path="url(#clip231)" d="M1799.09 1080.69 L1771.09 1136.69 L1827.09 1136.69 L1799.09 1080.69 Z" fill="#0000ff" fill-rule="evenodd" fill-opacity="1" stroke="none"/>
<path clip-path="url(#clip231)" d="M1834.6 1080.69 L1806.6 1136.69 L1862.6 1136.69 L1834.6 1080.69 Z" fill="#0000ff" fill-rule="evenodd" fill-opacity="1" stroke="none"/>
<path clip-path="url(#clip231)" d="M1870.12 1080.69 L1842.12 1136.69 L1898.12 1136.69 L1870.12 1080.69 Z" fill="#0000ff" fill-rule="evenodd" fill-opacity="1" stroke="none"/>
<path clip-path="url(#clip231)" d="M1905.63 1080.69 L1877.63 1136.69 L1933.63 1136.69 L1905.63 1080.69 Z" fill="#0000ff" fill-rule="evenodd" fill-opacity="1" stroke="none"/>
<path clip-path="url(#clip231)" d="M1941.15 1080.69 L1913.15 1136.69 L1969.15 1136.69 L1941.15 1080.69 Z" fill="#0000ff" fill-rule="evenodd" fill-opacity="1" stroke="none"/>
<path clip-path="url(#clip231)" d="M1976.66 1080.69 L1948.66 1136.69 L2004.66 1136.69 L1976.66 1080.69 Z" fill="#0000ff" fill-rule="evenodd" fill-opacity="1" stroke="none"/>
<path clip-path="url(#clip231)" d="M2012.17 1080.69 L1984.17 1136.69 L2040.17 1136.69 L2012.17 1080.69 Z" fill="#0000ff" fill-rule="evenodd" fill-opacity="1" stroke="none"/>
<path clip-path="url(#clip231)" d="M2047.69 1080.69 L2019.69 1136.69 L2075.69 1136.69 L2047.69 1080.69 Z" fill="#0000ff" fill-rule="evenodd" fill-opacity="1" stroke="none"/>
<path clip-path="url(#clip231)" d="M2083.2 1080.69 L2055.2 1136.69 L2111.2 1136.69 L2083.2 1080.69 Z" fill="#0000ff" fill-rule="evenodd" fill-opacity="1" stroke="none"/>
<path clip-path="url(#clip231)" d="M2118.72 1080.69 L2090.72 1136.69 L2146.72 1136.69 L2118.72 1080.69 Z" fill="#0000ff" fill-rule="evenodd" fill-opacity="1" stroke="none"/>
<path clip-path="url(#clip231)" d="M2154.23 1080.69 L2126.23 1136.69 L2182.23 1136.69 L2154.23 1080.69 Z" fill="#0000ff" fill-rule="evenodd" fill-opacity="1" stroke="none"/>
<path clip-path="url(#clip231)" d="M2189.75 1080.69 L2161.75 1136.69 L2217.75 1136.69 L2189.75 1080.69 Z" fill="#0000ff" fill-rule="evenodd" fill-opacity="1" stroke="none"/>
<path clip-path="url(#clip231)" d="M2225.26 1080.69 L2197.26 1136.69 L2253.26 1136.69 L2225.26 1080.69 Z" fill="#0000ff" fill-rule="evenodd" fill-opacity="1" stroke="none"/>
<path clip-path="url(#clip231)" d="M2260.77 1080.69 L2232.77 1136.69 L2288.77 1136.69 L2260.77 1080.69 Z" fill="#0000ff" fill-rule="evenodd" fill-opacity="1" stroke="none"/>
<path clip-path="url(#clip231)" d="M2296.29 1080.69 L2268.29 1136.69 L2324.29 1136.69 L2296.29 1080.69 Z" fill="#0000ff" fill-rule="evenodd" fill-opacity="1" stroke="none"/>
<circle clip-path="url(#clip231)" cx="414.034" cy="168.56" r="25.2" fill="#008000" fill-rule="evenodd" fill-opacity="1" stroke="none"/>
<circle clip-path="url(#clip231)" cx="449.548" cy="657.493" r="25.2" fill="#008000" fill-rule="evenodd" fill-opacity="1" stroke="none"/>
<circle clip-path="url(#clip231)" cx="485.062" cy="747.83" r="25.2" fill="#008000" fill-rule="evenodd" fill-opacity="1" stroke="none"/>
<circle clip-path="url(#clip231)" cx="520.576" cy="951.484" r="25.2" fill="#008000" fill-rule="evenodd" fill-opacity="1" stroke="none"/>
<circle clip-path="url(#clip231)" cx="556.091" cy="1006.16" r="25.2" fill="#008000" fill-rule="evenodd" fill-opacity="1" stroke="none"/>
<circle clip-path="url(#clip231)" cx="591.605" cy="1097.15" r="25.2" fill="#008000" fill-rule="evenodd" fill-opacity="1" stroke="none"/>
<circle clip-path="url(#clip231)" cx="627.119" cy="1101.49" r="25.2" fill="#008000" fill-rule="evenodd" fill-opacity="1" stroke="none"/>
<circle clip-path="url(#clip231)" cx="662.633" cy="1102.35" r="25.2" fill="#008000" fill-rule="evenodd" fill-opacity="1" stroke="none"/>
<circle clip-path="url(#clip231)" cx="698.148" cy="1102.68" r="25.2" fill="#008000" fill-rule="evenodd" fill-opacity="1" stroke="none"/>
<circle clip-path="url(#clip231)" cx="733.662" cy="1103" r="25.2" fill="#008000" fill-rule="evenodd" fill-opacity="1" stroke="none"/>
<circle clip-path="url(#clip231)" cx="769.176" cy="1103.33" r="25.2" fill="#008000" fill-rule="evenodd" fill-opacity="1" stroke="none"/>
<circle clip-path="url(#clip231)" cx="804.69" cy="1103.46" r="25.2" fill="#008000" fill-rule="evenodd" fill-opacity="1" stroke="none"/>
<circle clip-path="url(#clip231)" cx="840.205" cy="1103.7" r="25.2" fill="#008000" fill-rule="evenodd" fill-opacity="1" stroke="none"/>
<circle clip-path="url(#clip231)" cx="875.719" cy="1103.98" r="25.2" fill="#008000" fill-rule="evenodd" fill-opacity="1" stroke="none"/>
<circle clip-path="url(#clip231)" cx="911.233" cy="1104.23" r="25.2" fill="#008000" fill-rule="evenodd" fill-opacity="1" stroke="none"/>
<circle clip-path="url(#clip231)" cx="946.747" cy="1104.55" r="25.2" fill="#008000" fill-rule="evenodd" fill-opacity="1" stroke="none"/>
<circle clip-path="url(#clip231)" cx="982.262" cy="1105.12" r="25.2" fill="#008000" fill-rule="evenodd" fill-opacity="1" stroke="none"/>
<circle clip-path="url(#clip231)" cx="1017.78" cy="1105.17" r="25.2" fill="#008000" fill-rule="evenodd" fill-opacity="1" stroke="none"/>
<circle clip-path="url(#clip231)" cx="1053.29" cy="1105.25" r="25.2" fill="#008000" fill-rule="evenodd" fill-opacity="1" stroke="none"/>
<circle clip-path="url(#clip231)" cx="1088.8" cy="1105.45" r="25.2" fill="#008000" fill-rule="evenodd" fill-opacity="1" stroke="none"/>
<circle clip-path="url(#clip231)" cx="1124.32" cy="1105.53" r="25.2" fill="#008000" fill-rule="evenodd" fill-opacity="1" stroke="none"/>
<circle clip-path="url(#clip231)" cx="1159.83" cy="1105.75" r="25.2" fill="#008000" fill-rule="evenodd" fill-opacity="1" stroke="none"/>
<circle clip-path="url(#clip231)" cx="1195.35" cy="1105.86" r="25.2" fill="#008000" fill-rule="evenodd" fill-opacity="1" stroke="none"/>
<circle clip-path="url(#clip231)" cx="1230.86" cy="1105.89" r="25.2" fill="#008000" fill-rule="evenodd" fill-opacity="1" stroke="none"/>
<circle clip-path="url(#clip231)" cx="1266.38" cy="1106.03" r="25.2" fill="#008000" fill-rule="evenodd" fill-opacity="1" stroke="none"/>
<circle clip-path="url(#clip231)" cx="1301.89" cy="1106.13" r="25.2" fill="#008000" fill-rule="evenodd" fill-opacity="1" stroke="none"/>
<circle clip-path="url(#clip231)" cx="1337.4" cy="1106.14" r="25.2" fill="#008000" fill-rule="evenodd" fill-opacity="1" stroke="none"/>
<circle clip-path="url(#clip231)" cx="1372.92" cy="1106.28" r="25.2" fill="#008000" fill-rule="evenodd" fill-opacity="1" stroke="none"/>
<circle clip-path="url(#clip231)" cx="1408.43" cy="1106.38" r="25.2" fill="#008000" fill-rule="evenodd" fill-opacity="1" stroke="none"/>
<circle clip-path="url(#clip231)" cx="1443.95" cy="1106.43" r="25.2" fill="#008000" fill-rule="evenodd" fill-opacity="1" stroke="none"/>
<circle clip-path="url(#clip231)" cx="1479.46" cy="1106.58" r="25.2" fill="#008000" fill-rule="evenodd" fill-opacity="1" stroke="none"/>
<circle clip-path="url(#clip231)" cx="1514.98" cy="1106.69" r="25.2" fill="#008000" fill-rule="evenodd" fill-opacity="1" stroke="none"/>
<circle clip-path="url(#clip231)" cx="1550.49" cy="1106.71" r="25.2" fill="#008000" fill-rule="evenodd" fill-opacity="1" stroke="none"/>
<circle clip-path="url(#clip231)" cx="1586" cy="1106.73" r="25.2" fill="#008000" fill-rule="evenodd" fill-opacity="1" stroke="none"/>
<circle clip-path="url(#clip231)" cx="1621.52" cy="1106.79" r="25.2" fill="#008000" fill-rule="evenodd" fill-opacity="1" stroke="none"/>
<circle clip-path="url(#clip231)" cx="1657.03" cy="1106.88" r="25.2" fill="#008000" fill-rule="evenodd" fill-opacity="1" stroke="none"/>
<circle clip-path="url(#clip231)" cx="1692.55" cy="1106.92" r="25.2" fill="#008000" fill-rule="evenodd" fill-opacity="1" stroke="none"/>
<circle clip-path="url(#clip231)" cx="1728.06" cy="1106.96" r="25.2" fill="#008000" fill-rule="evenodd" fill-opacity="1" stroke="none"/>
<circle clip-path="url(#clip231)" cx="1763.57" cy="1107" r="25.2" fill="#008000" fill-rule="evenodd" fill-opacity="1" stroke="none"/>
<circle clip-path="url(#clip231)" cx="1799.09" cy="1107.08" r="25.2" fill="#008000" fill-rule="evenodd" fill-opacity="1" stroke="none"/>
<circle clip-path="url(#clip231)" cx="1834.6" cy="1107.18" r="25.2" fill="#008000" fill-rule="evenodd" fill-opacity="1" stroke="none"/>
<circle clip-path="url(#clip231)" cx="1870.12" cy="1107.2" r="25.2" fill="#008000" fill-rule="evenodd" fill-opacity="1" stroke="none"/>
<circle clip-path="url(#clip231)" cx="1905.63" cy="1107.26" r="25.2" fill="#008000" fill-rule="evenodd" fill-opacity="1" stroke="none"/>
<circle clip-path="url(#clip231)" cx="1941.15" cy="1107.33" r="25.2" fill="#008000" fill-rule="evenodd" fill-opacity="1" stroke="none"/>
<circle clip-path="url(#clip231)" cx="1976.66" cy="1107.39" r="25.2" fill="#008000" fill-rule="evenodd" fill-opacity="1" stroke="none"/>
<circle clip-path="url(#clip231)" cx="2012.17" cy="1107.46" r="25.2" fill="#008000" fill-rule="evenodd" fill-opacity="1" stroke="none"/>
<circle clip-path="url(#clip231)" cx="2047.69" cy="1107.52" r="25.2" fill="#008000" fill-rule="evenodd" fill-opacity="1" stroke="none"/>
<circle clip-path="url(#clip231)" cx="2083.2" cy="1107.56" r="25.2" fill="#008000" fill-rule="evenodd" fill-opacity="1" stroke="none"/>
<circle clip-path="url(#clip231)" cx="2118.72" cy="1107.66" r="25.2" fill="#008000" fill-rule="evenodd" fill-opacity="1" stroke="none"/>
<circle clip-path="url(#clip231)" cx="2154.23" cy="1107.68" r="25.2" fill="#008000" fill-rule="evenodd" fill-opacity="1" stroke="none"/>
<circle clip-path="url(#clip231)" cx="2189.75" cy="1107.74" r="25.2" fill="#008000" fill-rule="evenodd" fill-opacity="1" stroke="none"/>
<circle clip-path="url(#clip231)" cx="2225.26" cy="1107.77" r="25.2" fill="#008000" fill-rule="evenodd" fill-opacity="1" stroke="none"/>
<circle clip-path="url(#clip231)" cx="2260.77" cy="1107.82" r="25.2" fill="#008000" fill-rule="evenodd" fill-opacity="1" stroke="none"/>
<circle clip-path="url(#clip231)" cx="2296.29" cy="1107.93" r="25.2" fill="#008000" fill-rule="evenodd" fill-opacity="1" stroke="none"/>
<path clip-path="url(#clip230)" d="M1259.39 631.13 L2286.25 631.13 L2286.25 164.57 L1259.39 164.57  Z" fill="#ffffff" fill-rule="evenodd" fill-opacity="1"/>
<polyline clip-path="url(#clip230)" style="stroke:#000000; stroke-linecap:round; stroke-linejoin:round; stroke-width:4; stroke-opacity:1; fill:none" points="1259.39,631.13 2286.25,631.13 2286.25,164.57 1259.39,164.57 1259.39,631.13 "/>
<path clip-path="url(#clip230)" d="M1401.83 227.45 L1294.31 227.45 L1348.07 334.97 L1401.83 227.45 Z" fill="#ff0000" fill-rule="evenodd" fill-opacity="1" stroke="none"/>
<path clip-path="url(#clip230)" d="M1436.74 242.33 L1448.04 242.33 L1469.61 274.309 L1491.01 242.33 L1502.31 242.33 L1474.81 283.059 L1474.81 320.09 L1464.24 320.09 L1464.24 283.059 L1436.74 242.33 Z" fill="#000000" fill-rule="nonzero" fill-opacity="1" /><path clip-path="url(#clip230)" d="M1569.08 239.153 Q1562.11 251.132 1558.72 262.851 Q1555.33 274.569 1555.33 286.601 Q1555.33 298.632 1558.72 310.455 Q1562.16 322.225 1569.08 334.152 L1560.75 334.152 Q1552.94 321.913 1549.03 310.09 Q1545.18 298.267 1545.18 286.601 Q1545.18 274.986 1549.03 263.215 Q1552.89 251.445 1560.75 239.153 L1569.08 239.153 Z" fill="#000000" fill-rule="nonzero" fill-opacity="1" /><path clip-path="url(#clip230)" d="M1626.06 270.611 L1626.06 239.049 L1635.65 239.049 L1635.65 320.09 L1626.06 320.09 L1626.06 311.34 Q1623.04 316.548 1618.41 319.1 Q1613.82 321.6 1607.37 321.6 Q1596.79 321.6 1590.13 313.163 Q1583.51 304.725 1583.51 290.976 Q1583.51 277.226 1590.13 268.788 Q1596.79 260.351 1607.37 260.351 Q1613.82 260.351 1618.41 262.903 Q1623.04 265.403 1626.06 270.611 M1593.41 290.976 Q1593.41 301.548 1597.73 307.59 Q1602.11 313.58 1609.71 313.58 Q1617.31 313.58 1621.69 307.59 Q1626.06 301.548 1626.06 290.976 Q1626.06 280.403 1621.69 274.413 Q1617.31 268.372 1609.71 268.372 Q1602.11 268.372 1597.73 274.413 Q1593.41 280.403 1593.41 290.976 Z" fill="#000000" fill-rule="nonzero" fill-opacity="1" /><path clip-path="url(#clip230)" d="M1681.9 290.767 Q1670.28 290.767 1665.8 293.423 Q1661.32 296.08 1661.32 302.486 Q1661.32 307.59 1664.66 310.611 Q1668.04 313.58 1673.82 313.58 Q1681.79 313.58 1686.58 307.955 Q1691.43 302.278 1691.43 292.903 L1691.43 290.767 L1681.9 290.767 M1701.01 286.809 L1701.01 320.09 L1691.43 320.09 L1691.43 311.236 Q1688.15 316.548 1683.25 319.1 Q1678.35 321.6 1671.27 321.6 Q1662.31 321.6 1657 316.6 Q1651.74 311.548 1651.74 303.111 Q1651.74 293.267 1658.3 288.267 Q1664.92 283.267 1677.99 283.267 L1691.43 283.267 L1691.43 282.33 Q1691.43 275.715 1687.05 272.121 Q1682.73 268.476 1674.87 268.476 Q1669.87 268.476 1665.13 269.674 Q1660.39 270.871 1656.01 273.267 L1656.01 264.413 Q1661.27 262.382 1666.22 261.392 Q1671.17 260.351 1675.85 260.351 Q1688.51 260.351 1694.76 266.913 Q1701.01 273.476 1701.01 286.809 Z" fill="#000000" fill-rule="nonzero" fill-opacity="1" /><path clip-path="url(#clip230)" d="M1730.23 245.195 L1730.23 261.757 L1749.97 261.757 L1749.97 269.205 L1730.23 269.205 L1730.23 300.871 Q1730.23 308.007 1732.16 310.038 Q1734.14 312.069 1740.13 312.069 L1749.97 312.069 L1749.97 320.09 L1740.13 320.09 Q1729.03 320.09 1724.81 315.975 Q1720.59 311.809 1720.59 300.871 L1720.59 269.205 L1713.56 269.205 L1713.56 261.757 L1720.59 261.757 L1720.59 245.195 L1730.23 245.195 Z" fill="#000000" fill-rule="nonzero" fill-opacity="1" /><path clip-path="url(#clip230)" d="M1789.08 290.767 Q1777.47 290.767 1772.99 293.423 Q1768.51 296.08 1768.51 302.486 Q1768.51 307.59 1771.84 310.611 Q1775.23 313.58 1781.01 313.58 Q1788.98 313.58 1793.77 307.955 Q1798.61 302.278 1798.61 292.903 L1798.61 290.767 L1789.08 290.767 M1808.2 286.809 L1808.2 320.09 L1798.61 320.09 L1798.61 311.236 Q1795.33 316.548 1790.44 319.1 Q1785.54 321.6 1778.46 321.6 Q1769.5 321.6 1764.19 316.6 Q1758.93 311.548 1758.93 303.111 Q1758.93 293.267 1765.49 288.267 Q1772.1 283.267 1785.18 283.267 L1798.61 283.267 L1798.61 282.33 Q1798.61 275.715 1794.24 272.121 Q1789.92 268.476 1782.05 268.476 Q1777.05 268.476 1772.31 269.674 Q1767.57 270.871 1763.2 273.267 L1763.2 264.413 Q1768.46 262.382 1773.41 261.392 Q1778.35 260.351 1783.04 260.351 Q1795.7 260.351 1801.95 266.913 Q1808.2 273.476 1808.2 286.809 Z" fill="#000000" fill-rule="nonzero" fill-opacity="1" /><path clip-path="url(#clip230)" d="M1826.43 239.153 L1834.76 239.153 Q1842.57 251.445 1846.43 263.215 Q1850.33 274.986 1850.33 286.601 Q1850.33 298.267 1846.43 310.09 Q1842.57 321.913 1834.76 334.152 L1826.43 334.152 Q1833.35 322.225 1836.74 310.455 Q1840.18 298.632 1840.18 286.601 Q1840.18 274.569 1836.74 262.851 Q1833.35 251.132 1826.43 239.153 Z" fill="#000000" fill-rule="nonzero" fill-opacity="1" /><path clip-path="url(#clip230)" d="M1348.07 344.09 L1294.31 451.61 L1401.83 451.61 L1348.07 344.09 Z" fill="#0000ff" fill-rule="evenodd" fill-opacity="1" stroke="none"/>
<path clip-path="url(#clip230)" d="M1440.28 358.97 L1451.59 358.97 L1470.91 387.876 L1490.33 358.97 L1501.64 358.97 L1476.64 396.314 L1503.3 436.73 L1492 436.73 L1470.13 403.657 L1448.1 436.73 L1436.74 436.73 L1464.5 395.22 L1440.28 358.97 Z" fill="#000000" fill-rule="nonzero" fill-opacity="1" /><path clip-path="url(#clip230)" d="M1526.17 361.835 L1526.17 378.397 L1545.91 378.397 L1545.91 385.845 L1526.17 385.845 L1526.17 417.511 Q1526.17 424.647 1528.1 426.678 Q1530.07 428.709 1536.06 428.709 L1545.91 428.709 L1545.91 436.73 L1536.06 436.73 Q1524.97 436.73 1520.75 432.615 Q1516.53 428.449 1516.53 417.511 L1516.53 385.845 L1509.5 385.845 L1509.5 378.397 L1516.53 378.397 L1516.53 361.835 L1526.17 361.835 Z" fill="#000000" fill-rule="nonzero" fill-opacity="1" /><path clip-path="url(#clip230)" d="M1592.31 387.355 Q1590.7 386.418 1588.77 386.001 Q1586.9 385.532 1584.61 385.532 Q1576.48 385.532 1572.11 390.845 Q1567.78 396.105 1567.78 406.001 L1567.78 436.73 L1558.15 436.73 L1558.15 378.397 L1567.78 378.397 L1567.78 387.459 Q1570.8 382.147 1575.65 379.595 Q1580.49 376.991 1587.42 376.991 Q1588.41 376.991 1589.61 377.147 Q1590.8 377.251 1592.26 377.512 L1592.31 387.355 Z" fill="#000000" fill-rule="nonzero" fill-opacity="1" /><path clip-path="url(#clip230)" d="M1601.38 413.709 L1601.38 378.397 L1610.96 378.397 L1610.96 413.345 Q1610.96 421.626 1614.19 425.793 Q1617.42 429.907 1623.88 429.907 Q1631.64 429.907 1636.12 424.959 Q1640.65 420.011 1640.65 411.47 L1640.65 378.397 L1650.23 378.397 L1650.23 436.73 L1640.65 436.73 L1640.65 427.772 Q1637.16 433.084 1632.52 435.688 Q1627.94 438.24 1621.84 438.24 Q1611.79 438.24 1606.58 431.99 Q1601.38 425.74 1601.38 413.709 M1625.49 376.991 L1625.49 376.991 Z" fill="#000000" fill-rule="nonzero" fill-opacity="1" /><path clip-path="url(#clip230)" d="M1719.86 405.168 L1719.86 409.855 L1675.8 409.855 Q1676.43 419.751 1681.74 424.959 Q1687.1 430.115 1696.64 430.115 Q1702.16 430.115 1707.31 428.761 Q1712.52 427.407 1717.63 424.699 L1717.63 433.761 Q1712.47 435.949 1707.05 437.095 Q1701.64 438.24 1696.06 438.24 Q1682.1 438.24 1673.93 430.115 Q1665.8 421.99 1665.8 408.136 Q1665.8 393.814 1673.51 385.428 Q1681.27 376.991 1694.4 376.991 Q1706.17 376.991 1712.99 384.595 Q1719.86 392.147 1719.86 405.168 M1710.28 402.355 Q1710.18 394.491 1705.85 389.803 Q1701.58 385.116 1694.5 385.116 Q1686.48 385.116 1681.64 389.647 Q1676.84 394.178 1676.12 402.407 L1710.28 402.355 Z" fill="#000000" fill-rule="nonzero" fill-opacity="1" /><circle clip-path="url(#clip230)" cx="1348.07" cy="514.49" r="48.384" fill="#008000" fill-rule="evenodd" fill-opacity="1" stroke="none"/>
<path clip-path="url(#clip230)" d="M1472.37 485.975 L1458.1 524.672 L1486.69 524.672 L1472.37 485.975 M1466.43 475.61 L1478.36 475.61 L1507.99 553.37 L1497.05 553.37 L1489.97 533.422 L1454.92 533.422 L1447.84 553.37 L1436.74 553.37 L1466.43 475.61 Z" fill="#000000" fill-rule="nonzero" fill-opacity="1" /><path clip-path="url(#clip230)" d="M1518.93 472.329 L1528.51 472.329 L1528.51 553.37 L1518.93 553.37 L1518.93 472.329 Z" fill="#000000" fill-rule="nonzero" fill-opacity="1" /><path clip-path="url(#clip230)" d="M1558.04 478.475 L1558.04 495.037 L1577.78 495.037 L1577.78 502.485 L1558.04 502.485 L1558.04 534.151 Q1558.04 541.287 1559.97 543.318 Q1561.95 545.349 1567.94 545.349 L1577.78 545.349 L1577.78 553.37 L1567.94 553.37 Q1556.85 553.37 1552.63 549.255 Q1548.41 545.089 1548.41 534.151 L1548.41 502.485 L1541.38 502.485 L1541.38 495.037 L1548.41 495.037 L1548.41 478.475 L1558.04 478.475 Z" fill="#000000" fill-rule="nonzero" fill-opacity="1" /><path clip-path="url(#clip230)" d="M1591.74 540.141 L1602.73 540.141 L1602.73 553.37 L1591.74 553.37 L1591.74 540.141 Z" fill="#000000" fill-rule="nonzero" fill-opacity="1" /><path clip-path="url(#clip230)" d="M1669.14 484.256 L1669.14 513.474 L1682.37 513.474 Q1689.71 513.474 1693.72 509.672 Q1697.73 505.87 1697.73 498.839 Q1697.73 491.86 1693.72 488.058 Q1689.71 484.256 1682.37 484.256 L1669.14 484.256 M1658.62 475.61 L1682.37 475.61 Q1695.44 475.61 1702.1 481.547 Q1708.82 487.433 1708.82 498.839 Q1708.82 510.349 1702.1 516.235 Q1695.44 522.12 1682.37 522.12 L1669.14 522.12 L1669.14 553.37 L1658.62 553.37 L1658.62 475.61 Z" fill="#000000" fill-rule="nonzero" fill-opacity="1" /><path clip-path="url(#clip230)" d="M1754.45 503.995 Q1752.83 503.058 1750.91 502.641 Q1749.03 502.172 1746.74 502.172 Q1738.61 502.172 1734.24 507.485 Q1729.92 512.745 1729.92 522.641 L1729.92 553.37 L1720.28 553.37 L1720.28 495.037 L1729.92 495.037 L1729.92 504.099 Q1732.94 498.787 1737.78 496.235 Q1742.63 493.631 1749.55 493.631 Q1750.54 493.631 1751.74 493.787 Q1752.94 493.891 1754.4 494.152 L1754.45 503.995 Z" fill="#000000" fill-rule="nonzero" fill-opacity="1" /><path clip-path="url(#clip230)" d="M1784.76 501.756 Q1777.05 501.756 1772.57 507.797 Q1768.09 513.787 1768.09 524.256 Q1768.09 534.724 1772.52 540.766 Q1777 546.755 1784.76 546.755 Q1792.42 546.755 1796.9 540.714 Q1801.37 534.672 1801.37 524.256 Q1801.37 513.891 1796.9 507.849 Q1792.42 501.756 1784.76 501.756 M1784.76 493.631 Q1797.26 493.631 1804.4 501.756 Q1811.53 509.881 1811.53 524.256 Q1811.53 538.578 1804.4 546.755 Q1797.26 554.88 1784.76 554.88 Q1772.21 554.88 1765.07 546.755 Q1757.99 538.578 1757.99 524.256 Q1757.99 509.881 1765.07 501.756 Q1772.21 493.631 1784.76 493.631 Z" fill="#000000" fill-rule="nonzero" fill-opacity="1" /><path clip-path="url(#clip230)" d="M1827.42 495.037 L1837 495.037 L1837 554.412 Q1837 565.557 1832.73 570.557 Q1828.51 575.557 1819.08 575.557 L1815.44 575.557 L1815.44 567.432 L1817.99 567.432 Q1823.46 567.432 1825.44 564.88 Q1827.42 562.38 1827.42 554.412 L1827.42 495.037 M1827.42 472.329 L1837 472.329 L1837 484.464 L1827.42 484.464 L1827.42 472.329 Z" fill="#000000" fill-rule="nonzero" fill-opacity="1" /><path clip-path="url(#clip230)" d="M1858.41 540.141 L1869.4 540.141 L1869.4 553.37 L1858.41 553.37 L1858.41 540.141 Z" fill="#000000" fill-rule="nonzero" fill-opacity="1" /><path clip-path="url(#clip230)" d="M1947.47 501.756 Q1939.76 501.756 1935.28 507.797 Q1930.8 513.787 1930.8 524.256 Q1930.8 534.724 1935.23 540.766 Q1939.71 546.755 1947.47 546.755 Q1955.12 546.755 1959.6 540.714 Q1964.08 534.672 1964.08 524.256 Q1964.08 513.891 1959.6 507.849 Q1955.12 501.756 1947.47 501.756 M1947.47 493.631 Q1959.97 493.631 1967.1 501.756 Q1974.24 509.881 1974.24 524.256 Q1974.24 538.578 1967.1 546.755 Q1959.97 554.88 1947.47 554.88 Q1934.92 554.88 1927.78 546.755 Q1920.7 538.578 1920.7 524.256 Q1920.7 509.881 1927.78 501.756 Q1934.92 493.631 1947.47 493.631 Z" fill="#000000" fill-rule="nonzero" fill-opacity="1" /><path clip-path="url(#clip230)" d="M1989.13 530.349 L1989.13 495.037 L1998.72 495.037 L1998.72 529.985 Q1998.72 538.266 2001.95 542.433 Q2005.18 546.547 2011.63 546.547 Q2019.39 546.547 2023.87 541.599 Q2028.4 536.651 2028.4 528.11 L2028.4 495.037 L2037.99 495.037 L2037.99 553.37 L2028.4 553.37 L2028.4 544.412 Q2024.92 549.724 2020.28 552.328 Q2015.7 554.88 2009.6 554.88 Q1999.55 554.88 1994.34 548.63 Q1989.13 542.38 1989.13 530.349 M2013.25 493.631 L2013.25 493.631 Z" fill="#000000" fill-rule="nonzero" fill-opacity="1" /><path clip-path="url(#clip230)" d="M2067.21 478.475 L2067.21 495.037 L2086.95 495.037 L2086.95 502.485 L2067.21 502.485 L2067.21 534.151 Q2067.21 541.287 2069.13 543.318 Q2071.11 545.349 2077.1 545.349 L2086.95 545.349 L2086.95 553.37 L2077.1 553.37 Q2066.01 553.37 2061.79 549.255 Q2057.57 545.089 2057.57 534.151 L2057.57 502.485 L2050.54 502.485 L2050.54 495.037 L2057.57 495.037 L2057.57 478.475 L2067.21 478.475 Z" fill="#000000" fill-rule="nonzero" fill-opacity="1" /><path clip-path="url(#clip230)" d="M2108.82 544.62 L2108.82 575.557 L2099.19 575.557 L2099.19 495.037 L2108.82 495.037 L2108.82 503.891 Q2111.84 498.683 2116.43 496.183 Q2121.06 493.631 2127.47 493.631 Q2138.09 493.631 2144.71 502.068 Q2151.37 510.506 2151.37 524.256 Q2151.37 538.005 2144.71 546.443 Q2138.09 554.88 2127.47 554.88 Q2121.06 554.88 2116.43 552.38 Q2111.84 549.828 2108.82 544.62 M2141.43 524.256 Q2141.43 513.683 2137.05 507.693 Q2132.73 501.652 2125.12 501.652 Q2117.52 501.652 2113.14 507.693 Q2108.82 513.683 2108.82 524.256 Q2108.82 534.828 2113.14 540.87 Q2117.52 546.86 2125.12 546.86 Q2132.73 546.86 2137.05 540.87 Q2141.43 534.828 2141.43 524.256 Z" fill="#000000" fill-rule="nonzero" fill-opacity="1" /><path clip-path="url(#clip230)" d="M2166.27 530.349 L2166.27 495.037 L2175.85 495.037 L2175.85 529.985 Q2175.85 538.266 2179.08 542.433 Q2182.31 546.547 2188.77 546.547 Q2196.53 546.547 2201.01 541.599 Q2205.54 536.651 2205.54 528.11 L2205.54 495.037 L2215.12 495.037 L2215.12 553.37 L2205.54 553.37 L2205.54 544.412 Q2202.05 549.724 2197.41 552.328 Q2192.83 554.88 2186.74 554.88 Q2176.69 554.88 2171.48 548.63 Q2166.27 542.38 2166.27 530.349 M2190.38 493.631 L2190.38 493.631 Z" fill="#000000" fill-rule="nonzero" fill-opacity="1" /><path clip-path="url(#clip230)" d="M2244.34 478.475 L2244.34 495.037 L2264.08 495.037 L2264.08 502.485 L2244.34 502.485 L2244.34 534.151 Q2244.34 541.287 2246.27 543.318 Q2248.25 545.349 2254.24 545.349 L2264.08 545.349 L2264.08 553.37 L2254.24 553.37 Q2243.14 553.37 2238.92 549.255 Q2234.71 545.089 2234.71 534.151 L2234.71 502.485 L2227.67 502.485 L2227.67 495.037 L2234.71 495.037 L2234.71 478.475 L2244.34 478.475 Z" fill="#000000" fill-rule="nonzero" fill-opacity="1" /></svg>
