<?xml version="1.0" encoding="utf-8"?>
<svg xmlns="http://www.w3.org/2000/svg" xmlns:xlink="http://www.w3.org/1999/xlink" width="600" height="400" viewBox="0 0 2400 1600">
<defs>
  <clipPath id="clip940">
    <rect x="0" y="0" width="2400" height="1600"/>
  </clipPath>
</defs>
<path clip-path="url(#clip940)" d="M0 1600 L2400 1600 L2400 0 L0 0  Z" fill="#ffffff" fill-rule="evenodd" fill-opacity="1"/>
<defs>
  <clipPath id="clip941">
    <rect x="249" y="47" width="2104" height="1377"/>
  </clipPath>
</defs>
<path clip-path="url(#clip940)" d="M249.542 1423.18 L2352.76 1423.18 L2352.76 47.2441 L249.542 47.2441  Z" fill="#ffffff" fill-rule="evenodd" fill-opacity="1"/>
<polyline clip-path="url(#clip941)" style="stroke:#000000; stroke-linecap:round; stroke-linejoin:round; stroke-width:2; stroke-opacity:0.1; fill:none" points="286.773,1423.18 286.773,47.2441 "/>
<polyline clip-path="url(#clip941)" style="stroke:#000000; stroke-linecap:round; stroke-linejoin:round; stroke-width:2; stroke-opacity:0.1; fill:none" points="732.653,1423.18 732.653,47.2441 "/>
<polyline clip-path="url(#clip941)" style="stroke:#000000; stroke-linecap:round; stroke-linejoin:round; stroke-width:2; stroke-opacity:0.1; fill:none" points="1178.53,1423.18 1178.53,47.2441 "/>
<polyline clip-path="url(#clip941)" style="stroke:#000000; stroke-linecap:round; stroke-linejoin:round; stroke-width:2; stroke-opacity:0.1; fill:none" points="1624.41,1423.18 1624.41,47.2441 "/>
<polyline clip-path="url(#clip941)" style="stroke:#000000; stroke-linecap:round; stroke-linejoin:round; stroke-width:2; stroke-opacity:0.1; fill:none" points="2070.29,1423.18 2070.29,47.2441 "/>
<polyline clip-path="url(#clip941)" style="stroke:#000000; stroke-linecap:round; stroke-linejoin:round; stroke-width:2; stroke-opacity:0.1; fill:none" points="249.542,1384.24 2352.76,1384.24 "/>
<polyline clip-path="url(#clip941)" style="stroke:#000000; stroke-linecap:round; stroke-linejoin:round; stroke-width:2; stroke-opacity:0.1; fill:none" points="249.542,1058.92 2352.76,1058.92 "/>
<polyline clip-path="url(#clip941)" style="stroke:#000000; stroke-linecap:round; stroke-linejoin:round; stroke-width:2; stroke-opacity:0.1; fill:none" points="249.542,733.594 2352.76,733.594 "/>
<polyline clip-path="url(#clip941)" style="stroke:#000000; stroke-linecap:round; stroke-linejoin:round; stroke-width:2; stroke-opacity:0.1; fill:none" points="249.542,408.271 2352.76,408.271 "/>
<polyline clip-path="url(#clip941)" style="stroke:#000000; stroke-linecap:round; stroke-linejoin:round; stroke-width:2; stroke-opacity:0.1; fill:none" points="249.542,82.9491 2352.76,82.9491 "/>
<polyline clip-path="url(#clip940)" style="stroke:#000000; stroke-linecap:round; stroke-linejoin:round; stroke-width:4; stroke-opacity:1; fill:none" points="249.542,1423.18 2352.76,1423.18 "/>
<polyline clip-path="url(#clip940)" style="stroke:#000000; stroke-linecap:round; stroke-linejoin:round; stroke-width:4; stroke-opacity:1; fill:none" points="286.773,1423.18 286.773,1404.28 "/>
<polyline clip-path="url(#clip940)" style="stroke:#000000; stroke-linecap:round; stroke-linejoin:round; stroke-width:4; stroke-opacity:1; fill:none" points="732.653,1423.18 732.653,1404.28 "/>
<polyline clip-path="url(#clip940)" style="stroke:#000000; stroke-linecap:round; stroke-linejoin:round; stroke-width:4; stroke-opacity:1; fill:none" points="1178.53,1423.18 1178.53,1404.28 "/>
<polyline clip-path="url(#clip940)" style="stroke:#000000; stroke-linecap:round; stroke-linejoin:round; stroke-width:4; stroke-opacity:1; fill:none" points="1624.41,1423.18 1624.41,1404.28 "/>
<polyline clip-path="url(#clip940)" style="stroke:#000000; stroke-linecap:round; stroke-linejoin:round; stroke-width:4; stroke-opacity:1; fill:none" points="2070.29,1423.18 2070.29,1404.28 "/>
<path clip-path="url(#clip940)" d="M286.773 1454.1 Q283.162 1454.1 281.333 1457.66 Q279.528 1461.2 279.528 1468.33 Q279.528 1475.44 281.333 1479.01 Q283.162 1482.55 286.773 1482.55 Q290.407 1482.55 292.213 1479.01 Q294.041 1475.44 294.041 1468.33 Q294.041 1461.2 292.213 1457.66 Q290.407 1454.1 286.773 1454.1 M286.773 1450.39 Q292.583 1450.39 295.639 1455 Q298.717 1459.58 298.717 1468.33 Q298.717 1477.06 295.639 1481.67 Q292.583 1486.25 286.773 1486.25 Q280.963 1486.25 277.884 1481.67 Q274.829 1477.06 274.829 1468.33 Q274.829 1459.58 277.884 1455 Q280.963 1450.39 286.773 1450.39 Z" fill="#000000" fill-rule="nonzero" fill-opacity="1" /><path clip-path="url(#clip940)" d="M711.426 1481.64 L727.745 1481.64 L727.745 1485.58 L705.801 1485.58 L705.801 1481.64 Q708.463 1478.89 713.046 1474.26 Q717.653 1469.61 718.833 1468.27 Q721.079 1465.74 721.958 1464.01 Q722.861 1462.25 722.861 1460.56 Q722.861 1457.8 720.916 1456.07 Q718.995 1454.33 715.893 1454.33 Q713.694 1454.33 711.241 1455.09 Q708.81 1455.86 706.032 1457.41 L706.032 1452.69 Q708.856 1451.55 711.31 1450.97 Q713.764 1450.39 715.801 1450.39 Q721.171 1450.39 724.366 1453.08 Q727.56 1455.77 727.56 1460.26 Q727.56 1462.39 726.75 1464.31 Q725.963 1466.2 723.856 1468.8 Q723.278 1469.47 720.176 1472.69 Q717.074 1475.88 711.426 1481.64 Z" fill="#000000" fill-rule="nonzero" fill-opacity="1" /><path clip-path="url(#clip940)" d="M747.56 1454.1 Q743.949 1454.1 742.12 1457.66 Q740.315 1461.2 740.315 1468.33 Q740.315 1475.44 742.12 1479.01 Q743.949 1482.55 747.56 1482.55 Q751.194 1482.55 753 1479.01 Q754.828 1475.44 754.828 1468.33 Q754.828 1461.2 753 1457.66 Q751.194 1454.1 747.56 1454.1 M747.56 1450.39 Q753.37 1450.39 756.426 1455 Q759.504 1459.58 759.504 1468.33 Q759.504 1477.06 756.426 1481.67 Q753.37 1486.25 747.56 1486.25 Q741.75 1486.25 738.671 1481.67 Q735.615 1477.06 735.615 1468.33 Q735.615 1459.58 738.671 1455 Q741.75 1450.39 747.56 1450.39 Z" fill="#000000" fill-rule="nonzero" fill-opacity="1" /><path clip-path="url(#clip940)" d="M1166.7 1455.09 L1154.9 1473.54 L1166.7 1473.54 L1166.7 1455.09 M1165.48 1451.02 L1171.36 1451.02 L1171.36 1473.54 L1176.29 1473.54 L1176.29 1477.43 L1171.36 1477.43 L1171.36 1485.58 L1166.7 1485.58 L1166.7 1477.43 L1151.1 1477.43 L1151.1 1472.92 L1165.48 1451.02 Z" fill="#000000" fill-rule="nonzero" fill-opacity="1" /><path clip-path="url(#clip940)" d="M1194.02 1454.1 Q1190.41 1454.1 1188.58 1457.66 Q1186.77 1461.2 1186.77 1468.33 Q1186.77 1475.44 1188.58 1479.01 Q1190.41 1482.55 1194.02 1482.55 Q1197.65 1482.55 1199.46 1479.01 Q1201.29 1475.44 1201.29 1468.33 Q1201.29 1461.2 1199.46 1457.66 Q1197.65 1454.1 1194.02 1454.1 M1194.02 1450.39 Q1199.83 1450.39 1202.88 1455 Q1205.96 1459.58 1205.96 1468.33 Q1205.96 1477.06 1202.88 1481.67 Q1199.83 1486.25 1194.02 1486.25 Q1188.21 1486.25 1185.13 1481.67 Q1182.07 1477.06 1182.07 1468.33 Q1182.07 1459.58 1185.13 1455 Q1188.21 1450.39 1194.02 1450.39 Z" fill="#000000" fill-rule="nonzero" fill-opacity="1" /><path clip-path="url(#clip940)" d="M1609.82 1466.44 Q1606.67 1466.44 1604.82 1468.59 Q1602.99 1470.74 1602.99 1474.49 Q1602.99 1478.22 1604.82 1480.39 Q1606.67 1482.55 1609.82 1482.55 Q1612.96 1482.55 1614.79 1480.39 Q1616.65 1478.22 1616.65 1474.49 Q1616.65 1470.74 1614.79 1468.59 Q1612.96 1466.44 1609.82 1466.44 M1619.1 1451.78 L1619.1 1456.04 Q1617.34 1455.21 1615.53 1454.77 Q1613.75 1454.33 1611.99 1454.33 Q1607.36 1454.33 1604.91 1457.45 Q1602.48 1460.58 1602.13 1466.9 Q1603.5 1464.89 1605.56 1463.82 Q1607.62 1462.73 1610.09 1462.73 Q1615.3 1462.73 1618.31 1465.9 Q1621.34 1469.05 1621.34 1474.49 Q1621.34 1479.82 1618.2 1483.03 Q1615.05 1486.25 1609.82 1486.25 Q1603.82 1486.25 1600.65 1481.67 Q1597.48 1477.06 1597.48 1468.33 Q1597.48 1460.14 1601.37 1455.28 Q1605.26 1450.39 1611.81 1450.39 Q1613.57 1450.39 1615.35 1450.74 Q1617.15 1451.09 1619.1 1451.78 Z" fill="#000000" fill-rule="nonzero" fill-opacity="1" /><path clip-path="url(#clip940)" d="M1639.4 1454.1 Q1635.79 1454.1 1633.96 1457.66 Q1632.15 1461.2 1632.15 1468.33 Q1632.15 1475.44 1633.96 1479.01 Q1635.79 1482.55 1639.4 1482.55 Q1643.03 1482.55 1644.84 1479.01 Q1646.67 1475.44 1646.67 1468.33 Q1646.67 1461.2 1644.84 1457.66 Q1643.03 1454.1 1639.4 1454.1 M1639.4 1450.39 Q1645.21 1450.39 1648.27 1455 Q1651.34 1459.58 1651.34 1468.33 Q1651.34 1477.06 1648.27 1481.67 Q1645.21 1486.25 1639.4 1486.25 Q1633.59 1486.25 1630.51 1481.67 Q1627.46 1477.06 1627.46 1468.33 Q1627.46 1459.58 1630.51 1455 Q1633.59 1450.39 1639.4 1450.39 Z" fill="#000000" fill-rule="nonzero" fill-opacity="1" /><path clip-path="url(#clip940)" d="M2055.16 1469.17 Q2051.83 1469.17 2049.91 1470.95 Q2048.01 1472.73 2048.01 1475.86 Q2048.01 1478.98 2049.91 1480.77 Q2051.83 1482.55 2055.16 1482.55 Q2058.5 1482.55 2060.42 1480.77 Q2062.34 1478.96 2062.34 1475.86 Q2062.34 1472.73 2060.42 1470.95 Q2058.52 1469.17 2055.16 1469.17 M2050.49 1467.18 Q2047.48 1466.44 2045.79 1464.38 Q2044.12 1462.32 2044.12 1459.35 Q2044.12 1455.21 2047.06 1452.8 Q2050.03 1450.39 2055.16 1450.39 Q2060.33 1450.39 2063.27 1452.8 Q2066.21 1455.21 2066.21 1459.35 Q2066.21 1462.32 2064.52 1464.38 Q2062.85 1466.44 2059.86 1467.18 Q2063.24 1467.96 2065.12 1470.26 Q2067.02 1472.55 2067.02 1475.86 Q2067.02 1480.88 2063.94 1483.57 Q2060.88 1486.25 2055.16 1486.25 Q2049.45 1486.25 2046.37 1483.57 Q2043.31 1480.88 2043.31 1475.86 Q2043.31 1472.55 2045.21 1470.26 Q2047.11 1467.96 2050.49 1467.18 M2048.78 1459.79 Q2048.78 1462.48 2050.44 1463.98 Q2052.13 1465.49 2055.16 1465.49 Q2058.17 1465.49 2059.86 1463.98 Q2061.58 1462.48 2061.58 1459.79 Q2061.58 1457.11 2059.86 1455.6 Q2058.17 1454.1 2055.16 1454.1 Q2052.13 1454.1 2050.44 1455.6 Q2048.78 1457.11 2048.78 1459.79 Z" fill="#000000" fill-rule="nonzero" fill-opacity="1" /><path clip-path="url(#clip940)" d="M2085.33 1454.1 Q2081.71 1454.1 2079.89 1457.66 Q2078.08 1461.2 2078.08 1468.33 Q2078.08 1475.44 2079.89 1479.01 Q2081.71 1482.55 2085.33 1482.55 Q2088.96 1482.55 2090.77 1479.01 Q2092.59 1475.44 2092.59 1468.33 Q2092.59 1461.2 2090.77 1457.66 Q2088.96 1454.1 2085.33 1454.1 M2085.33 1450.39 Q2091.14 1450.39 2094.19 1455 Q2097.27 1459.58 2097.27 1468.33 Q2097.27 1477.06 2094.19 1481.67 Q2091.14 1486.25 2085.33 1486.25 Q2079.52 1486.25 2076.44 1481.67 Q2073.38 1477.06 2073.38 1468.33 Q2073.38 1459.58 2076.44 1455 Q2079.52 1450.39 2085.33 1450.39 Z" fill="#000000" fill-rule="nonzero" fill-opacity="1" /><path clip-path="url(#clip940)" d="M1313.99 1536.84 Q1313.99 1538.67 1312.86 1539.77 Q1311.76 1540.86 1310.38 1540.86 Q1309.16 1540.86 1308.51 1540.15 Q1307.87 1539.45 1307.87 1538.54 Q1307.87 1538.16 1308.03 1537.67 Q1308.19 1537.16 1308.54 1536.55 Q1308.93 1535.94 1309.73 1535.48 Q1310.54 1535.03 1311.63 1534.97 Q1311.41 1534.74 1311.35 1534.71 Q1310.86 1534.32 1309.96 1534.2 Q1309.83 1534.13 1309.38 1534.13 Q1307.16 1534.13 1304.9 1535.77 Q1302.68 1537.38 1299.94 1540.44 Q1296.5 1544.02 1294.28 1545.34 Q1304.03 1546.63 1304.03 1552.26 Q1304.03 1553.2 1303.78 1554.32 Q1303.26 1556.45 1303.26 1558 Q1303.26 1561.09 1305.35 1561.09 Q1307.38 1561.09 1308.67 1559.03 Q1309.99 1556.97 1311.09 1552.94 Q1311.25 1552.2 1311.41 1551.97 Q1311.57 1551.75 1312.02 1551.75 Q1312.83 1551.75 1312.83 1552.39 Q1312.09 1556.16 1310.44 1559.06 Q1308.35 1562.57 1305.23 1562.57 Q1302.62 1562.57 1300.88 1560.77 Q1299.17 1558.93 1299.17 1556.03 Q1299.17 1555.32 1299.43 1553.71 Q1299.62 1553.07 1299.62 1552.33 Q1299.62 1550.81 1298.78 1549.69 Q1297.95 1548.53 1296.59 1547.95 Q1295.24 1547.37 1294.11 1547.11 Q1293.02 1546.82 1291.96 1546.72 Q1288.74 1560.35 1288.29 1561.18 Q1288 1561.76 1287.35 1562.15 Q1286.71 1562.57 1286.03 1562.57 Q1285.39 1562.57 1284.74 1562.12 Q1284.13 1561.7 1284.13 1560.7 Q1284.13 1560.19 1284.39 1559.25 L1293.95 1521.25 L1294.15 1519.96 Q1294.15 1519.57 1293.99 1519.38 Q1293.86 1519.16 1293.08 1518.99 Q1292.34 1518.83 1290.86 1518.83 Q1290.25 1518.83 1289.96 1518.8 Q1289.7 1518.77 1289.48 1518.61 Q1289.25 1518.42 1289.25 1518.03 Q1289.25 1517.48 1289.48 1517.19 Q1289.73 1516.87 1289.93 1516.8 Q1290.12 1516.74 1290.51 1516.71 Q1291.06 1516.68 1292.89 1516.52 Q1294.73 1516.32 1296.3 1516.19 Q1297.88 1516.06 1298.56 1516.06 Q1298.95 1516.06 1299.14 1516.26 Q1299.36 1516.42 1299.4 1516.61 L1299.43 1516.77 L1292.57 1544.6 Q1295.4 1543.47 1299.88 1538.48 Q1305.06 1532.68 1309.51 1532.68 Q1311.6 1532.68 1312.79 1533.97 Q1313.99 1535.23 1313.99 1536.84 Z" fill="#000000" fill-rule="nonzero" fill-opacity="1" /><polyline clip-path="url(#clip940)" style="stroke:#000000; stroke-linecap:round; stroke-linejoin:round; stroke-width:4; stroke-opacity:1; fill:none" points="249.542,1423.18 249.542,47.2441 "/>
<polyline clip-path="url(#clip940)" style="stroke:#000000; stroke-linecap:round; stroke-linejoin:round; stroke-width:4; stroke-opacity:1; fill:none" points="249.542,1384.24 268.44,1384.24 "/>
<polyline clip-path="url(#clip940)" style="stroke:#000000; stroke-linecap:round; stroke-linejoin:round; stroke-width:4; stroke-opacity:1; fill:none" points="249.542,1058.92 268.44,1058.92 "/>
<polyline clip-path="url(#clip940)" style="stroke:#000000; stroke-linecap:round; stroke-linejoin:round; stroke-width:4; stroke-opacity:1; fill:none" points="249.542,733.594 268.44,733.594 "/>
<polyline clip-path="url(#clip940)" style="stroke:#000000; stroke-linecap:round; stroke-linejoin:round; stroke-width:4; stroke-opacity:1; fill:none" points="249.542,408.271 268.44,408.271 "/>
<polyline clip-path="url(#clip940)" style="stroke:#000000; stroke-linecap:round; stroke-linejoin:round; stroke-width:4; stroke-opacity:1; fill:none" points="249.542,82.9491 268.44,82.9491 "/>
<path clip-path="url(#clip940)" d="M126.205 1370.04 Q122.593 1370.04 120.765 1373.6 Q118.959 1377.14 118.959 1384.27 Q118.959 1391.38 120.765 1394.94 Q122.593 1398.49 126.205 1398.49 Q129.839 1398.49 131.644 1394.94 Q133.473 1391.38 133.473 1384.27 Q133.473 1377.14 131.644 1373.6 Q129.839 1370.04 126.205 1370.04 M126.205 1366.33 Q132.015 1366.33 135.07 1370.94 Q138.149 1375.52 138.149 1384.27 Q138.149 1393 135.07 1397.61 Q132.015 1402.19 126.205 1402.19 Q120.394 1402.19 117.316 1397.61 Q114.26 1393 114.26 1384.27 Q114.26 1375.52 117.316 1370.94 Q120.394 1366.33 126.205 1366.33 Z" fill="#000000" fill-rule="nonzero" fill-opacity="1" /><path clip-path="url(#clip940)" d="M146.366 1395.64 L151.251 1395.64 L151.251 1401.52 L146.366 1401.52 L146.366 1395.64 Z" fill="#000000" fill-rule="nonzero" fill-opacity="1" /><path clip-path="url(#clip940)" d="M171.436 1370.04 Q167.825 1370.04 165.996 1373.6 Q164.19 1377.14 164.19 1384.27 Q164.19 1391.38 165.996 1394.94 Q167.825 1398.49 171.436 1398.49 Q175.07 1398.49 176.876 1394.94 Q178.704 1391.38 178.704 1384.27 Q178.704 1377.14 176.876 1373.6 Q175.07 1370.04 171.436 1370.04 M171.436 1366.33 Q177.246 1366.33 180.301 1370.94 Q183.38 1375.52 183.38 1384.27 Q183.38 1393 180.301 1397.61 Q177.246 1402.19 171.436 1402.19 Q165.626 1402.19 162.547 1397.61 Q159.491 1393 159.491 1384.27 Q159.491 1375.52 162.547 1370.94 Q165.626 1366.33 171.436 1366.33 Z" fill="#000000" fill-rule="nonzero" fill-opacity="1" /><path clip-path="url(#clip940)" d="M201.598 1370.04 Q197.987 1370.04 196.158 1373.6 Q194.352 1377.14 194.352 1384.27 Q194.352 1391.38 196.158 1394.94 Q197.987 1398.49 201.598 1398.49 Q205.232 1398.49 207.037 1394.94 Q208.866 1391.38 208.866 1384.27 Q208.866 1377.14 207.037 1373.6 Q205.232 1370.04 201.598 1370.04 M201.598 1366.33 Q207.408 1366.33 210.463 1370.94 Q213.542 1375.52 213.542 1384.27 Q213.542 1393 210.463 1397.61 Q207.408 1402.19 201.598 1402.19 Q195.787 1402.19 192.709 1397.61 Q189.653 1393 189.653 1384.27 Q189.653 1375.52 192.709 1370.94 Q195.787 1366.33 201.598 1366.33 Z" fill="#000000" fill-rule="nonzero" fill-opacity="1" /><path clip-path="url(#clip940)" d="M127.2 1044.71 Q123.589 1044.71 121.76 1048.28 Q119.955 1051.82 119.955 1058.95 Q119.955 1066.06 121.76 1069.62 Q123.589 1073.16 127.2 1073.16 Q130.834 1073.16 132.64 1069.62 Q134.468 1066.06 134.468 1058.95 Q134.468 1051.82 132.64 1048.28 Q130.834 1044.71 127.2 1044.71 M127.2 1041.01 Q133.01 1041.01 136.066 1045.62 Q139.144 1050.2 139.144 1058.95 Q139.144 1067.68 136.066 1072.28 Q133.01 1076.87 127.2 1076.87 Q121.39 1076.87 118.311 1072.28 Q115.256 1067.68 115.256 1058.95 Q115.256 1050.2 118.311 1045.62 Q121.39 1041.01 127.2 1041.01 Z" fill="#000000" fill-rule="nonzero" fill-opacity="1" /><path clip-path="url(#clip940)" d="M147.362 1070.32 L152.246 1070.32 L152.246 1076.2 L147.362 1076.2 L147.362 1070.32 Z" fill="#000000" fill-rule="nonzero" fill-opacity="1" /><path clip-path="url(#clip940)" d="M166.459 1072.26 L182.778 1072.26 L182.778 1076.2 L160.834 1076.2 L160.834 1072.26 Q163.496 1069.51 168.079 1064.88 Q172.686 1060.22 173.866 1058.88 Q176.112 1056.36 176.991 1054.62 Q177.894 1052.86 177.894 1051.17 Q177.894 1048.42 175.95 1046.68 Q174.028 1044.95 170.927 1044.95 Q168.727 1044.95 166.274 1045.71 Q163.843 1046.47 161.065 1048.02 L161.065 1043.3 Q163.89 1042.17 166.343 1041.59 Q168.797 1041.01 170.834 1041.01 Q176.204 1041.01 179.399 1043.7 Q182.593 1046.38 182.593 1050.87 Q182.593 1053 181.783 1054.92 Q180.996 1056.82 178.889 1059.41 Q178.311 1060.08 175.209 1063.3 Q172.107 1066.5 166.459 1072.26 Z" fill="#000000" fill-rule="nonzero" fill-opacity="1" /><path clip-path="url(#clip940)" d="M192.639 1041.64 L210.996 1041.64 L210.996 1045.57 L196.922 1045.57 L196.922 1054.04 Q197.94 1053.7 198.959 1053.53 Q199.977 1053.35 200.996 1053.35 Q206.783 1053.35 210.162 1056.52 Q213.542 1059.69 213.542 1065.11 Q213.542 1070.69 210.07 1073.79 Q206.598 1076.87 200.278 1076.87 Q198.102 1076.87 195.834 1076.5 Q193.588 1076.13 191.181 1075.39 L191.181 1070.69 Q193.264 1071.82 195.487 1072.38 Q197.709 1072.93 200.186 1072.93 Q204.19 1072.93 206.528 1070.83 Q208.866 1068.72 208.866 1065.11 Q208.866 1061.5 206.528 1059.39 Q204.19 1057.28 200.186 1057.28 Q198.311 1057.28 196.436 1057.7 Q194.584 1058.12 192.639 1059 L192.639 1041.64 Z" fill="#000000" fill-rule="nonzero" fill-opacity="1" /><path clip-path="url(#clip940)" d="M126.205 719.392 Q122.593 719.392 120.765 722.957 Q118.959 726.499 118.959 733.628 Q118.959 740.735 120.765 744.3 Q122.593 747.841 126.205 747.841 Q129.839 747.841 131.644 744.3 Q133.473 740.735 133.473 733.628 Q133.473 726.499 131.644 722.957 Q129.839 719.392 126.205 719.392 M126.205 715.689 Q132.015 715.689 135.07 720.295 Q138.149 724.878 138.149 733.628 Q138.149 742.355 135.07 746.962 Q132.015 751.545 126.205 751.545 Q120.394 751.545 117.316 746.962 Q114.26 742.355 114.26 733.628 Q114.26 724.878 117.316 720.295 Q120.394 715.689 126.205 715.689 Z" fill="#000000" fill-rule="nonzero" fill-opacity="1" /><path clip-path="url(#clip940)" d="M146.366 744.994 L151.251 744.994 L151.251 750.874 L146.366 750.874 L146.366 744.994 Z" fill="#000000" fill-rule="nonzero" fill-opacity="1" /><path clip-path="url(#clip940)" d="M161.482 716.314 L179.839 716.314 L179.839 720.249 L165.765 720.249 L165.765 728.721 Q166.783 728.374 167.802 728.212 Q168.82 728.027 169.839 728.027 Q175.626 728.027 179.005 731.198 Q182.385 734.369 182.385 739.786 Q182.385 745.364 178.913 748.466 Q175.44 751.545 169.121 751.545 Q166.945 751.545 164.677 751.175 Q162.431 750.804 160.024 750.063 L160.024 745.364 Q162.107 746.499 164.329 747.054 Q166.552 747.61 169.028 747.61 Q173.033 747.61 175.371 745.503 Q177.709 743.397 177.709 739.786 Q177.709 736.175 175.371 734.068 Q173.033 731.962 169.028 731.962 Q167.153 731.962 165.278 732.378 Q163.427 732.795 161.482 733.675 L161.482 716.314 Z" fill="#000000" fill-rule="nonzero" fill-opacity="1" /><path clip-path="url(#clip940)" d="M201.598 719.392 Q197.987 719.392 196.158 722.957 Q194.352 726.499 194.352 733.628 Q194.352 740.735 196.158 744.3 Q197.987 747.841 201.598 747.841 Q205.232 747.841 207.037 744.3 Q208.866 740.735 208.866 733.628 Q208.866 726.499 207.037 722.957 Q205.232 719.392 201.598 719.392 M201.598 715.689 Q207.408 715.689 210.463 720.295 Q213.542 724.878 213.542 733.628 Q213.542 742.355 210.463 746.962 Q207.408 751.545 201.598 751.545 Q195.787 751.545 192.709 746.962 Q189.653 742.355 189.653 733.628 Q189.653 724.878 192.709 720.295 Q195.787 715.689 201.598 715.689 Z" fill="#000000" fill-rule="nonzero" fill-opacity="1" /><path clip-path="url(#clip940)" d="M127.2 394.07 Q123.589 394.07 121.76 397.635 Q119.955 401.176 119.955 408.306 Q119.955 415.413 121.76 418.977 Q123.589 422.519 127.2 422.519 Q130.834 422.519 132.64 418.977 Q134.468 415.413 134.468 408.306 Q134.468 401.176 132.64 397.635 Q130.834 394.07 127.2 394.07 M127.2 390.366 Q133.01 390.366 136.066 394.973 Q139.144 399.556 139.144 408.306 Q139.144 417.033 136.066 421.639 Q133.01 426.223 127.2 426.223 Q121.39 426.223 118.311 421.639 Q115.256 417.033 115.256 408.306 Q115.256 399.556 118.311 394.973 Q121.39 390.366 127.2 390.366 Z" fill="#000000" fill-rule="nonzero" fill-opacity="1" /><path clip-path="url(#clip940)" d="M147.362 419.672 L152.246 419.672 L152.246 425.551 L147.362 425.551 L147.362 419.672 Z" fill="#000000" fill-rule="nonzero" fill-opacity="1" /><path clip-path="url(#clip940)" d="M161.251 390.991 L183.473 390.991 L183.473 392.982 L170.927 425.551 L166.042 425.551 L177.848 394.927 L161.251 394.927 L161.251 390.991 Z" fill="#000000" fill-rule="nonzero" fill-opacity="1" /><path clip-path="url(#clip940)" d="M192.639 390.991 L210.996 390.991 L210.996 394.927 L196.922 394.927 L196.922 403.399 Q197.94 403.051 198.959 402.889 Q199.977 402.704 200.996 402.704 Q206.783 402.704 210.162 405.876 Q213.542 409.047 213.542 414.463 Q213.542 420.042 210.07 423.144 Q206.598 426.223 200.278 426.223 Q198.102 426.223 195.834 425.852 Q193.588 425.482 191.181 424.741 L191.181 420.042 Q193.264 421.176 195.487 421.732 Q197.709 422.287 200.186 422.287 Q204.19 422.287 206.528 420.181 Q208.866 418.075 208.866 414.463 Q208.866 410.852 206.528 408.746 Q204.19 406.639 200.186 406.639 Q198.311 406.639 196.436 407.056 Q194.584 407.473 192.639 408.352 L192.639 390.991 Z" fill="#000000" fill-rule="nonzero" fill-opacity="1" /><path clip-path="url(#clip940)" d="M117.015 96.2939 L124.654 96.2939 L124.654 69.9283 L116.343 71.595 L116.343 67.3357 L124.607 65.6691 L129.283 65.6691 L129.283 96.2939 L136.922 96.2939 L136.922 100.229 L117.015 100.229 L117.015 96.2939 Z" fill="#000000" fill-rule="nonzero" fill-opacity="1" /><path clip-path="url(#clip940)" d="M146.366 94.3495 L151.251 94.3495 L151.251 100.229 L146.366 100.229 L146.366 94.3495 Z" fill="#000000" fill-rule="nonzero" fill-opacity="1" /><path clip-path="url(#clip940)" d="M171.436 68.7477 Q167.825 68.7477 165.996 72.3125 Q164.19 75.8542 164.19 82.9838 Q164.19 90.0902 165.996 93.655 Q167.825 97.1967 171.436 97.1967 Q175.07 97.1967 176.876 93.655 Q178.704 90.0902 178.704 82.9838 Q178.704 75.8542 176.876 72.3125 Q175.07 68.7477 171.436 68.7477 M171.436 65.0441 Q177.246 65.0441 180.301 69.6505 Q183.38 74.2338 183.38 82.9838 Q183.38 91.7106 180.301 96.317 Q177.246 100.9 171.436 100.9 Q165.626 100.9 162.547 96.317 Q159.491 91.7106 159.491 82.9838 Q159.491 74.2338 162.547 69.6505 Q165.626 65.0441 171.436 65.0441 Z" fill="#000000" fill-rule="nonzero" fill-opacity="1" /><path clip-path="url(#clip940)" d="M201.598 68.7477 Q197.987 68.7477 196.158 72.3125 Q194.352 75.8542 194.352 82.9838 Q194.352 90.0902 196.158 93.655 Q197.987 97.1967 201.598 97.1967 Q205.232 97.1967 207.037 93.655 Q208.866 90.0902 208.866 82.9838 Q208.866 75.8542 207.037 72.3125 Q205.232 68.7477 201.598 68.7477 M201.598 65.0441 Q207.408 65.0441 210.463 69.6505 Q213.542 74.2338 213.542 82.9838 Q213.542 91.7106 210.463 96.317 Q207.408 100.9 201.598 100.9 Q195.787 100.9 192.709 96.317 Q189.653 91.7106 189.653 82.9838 Q189.653 74.2338 192.709 69.6505 Q195.787 65.0441 201.598 65.0441 Z" fill="#000000" fill-rule="nonzero" fill-opacity="1" /><path clip-path="url(#clip940)" d="M16.4842 927.472 L16.4842 897.426 L21.895 897.426 L21.895 921.043 L35.9632 921.043 L35.9632 898.413 L41.3741 898.413 L41.3741 921.043 L58.5933 921.043 L58.5933 896.853 L64.0042 896.853 L64.0042 927.472 L16.4842 927.472 Z" fill="#000000" fill-rule="nonzero" fill-opacity="1" /><path clip-path="url(#clip940)" d="M28.3562 886.541 L28.3562 880.684 L64.0042 880.684 L64.0042 886.541 L28.3562 886.541 M14.479 886.541 L14.479 880.684 L21.895 880.684 L21.895 886.541 L14.479 886.541 Z" fill="#000000" fill-rule="nonzero" fill-opacity="1" /><path clip-path="url(#clip940)" d="M45.7664 844.973 Q39.4007 844.973 35.8996 847.614 Q32.3984 850.224 32.3984 854.967 Q32.3984 859.677 35.8996 862.319 Q39.4007 864.929 45.7664 864.929 Q52.1003 864.929 55.6014 862.319 Q59.1026 859.677 59.1026 854.967 Q59.1026 850.224 55.6014 847.614 Q52.1003 844.973 45.7664 844.973 M59.58 839.116 Q68.683 839.116 73.1071 843.158 Q77.5631 847.201 77.5631 855.54 Q77.5631 858.627 77.0857 861.364 Q76.6401 864.102 75.6852 866.68 L69.9879 866.68 Q71.3884 864.102 72.0568 861.587 Q72.7252 859.073 72.7252 856.463 Q72.7252 850.702 69.7015 847.837 Q66.7096 844.973 60.6303 844.973 L57.7339 844.973 Q60.885 846.787 62.4446 849.62 Q64.0042 852.452 64.0042 856.399 Q64.0042 862.956 59.0071 866.966 Q54.01 870.977 45.7664 870.977 Q37.491 870.977 32.4939 866.966 Q27.4968 862.956 27.4968 856.399 Q27.4968 852.452 29.0564 849.62 Q30.616 846.787 33.7671 844.973 L28.3562 844.973 L28.3562 839.116 L59.58 839.116 Z" fill="#000000" fill-rule="nonzero" fill-opacity="1" /><path clip-path="url(#clip940)" d="M44.7161 796.561 L47.5806 796.561 L47.5806 823.488 Q53.6281 823.106 56.8109 819.86 Q59.9619 816.582 59.9619 810.757 Q59.9619 807.383 59.1344 804.232 Q58.3069 801.049 56.6518 797.93 L62.1899 797.93 Q63.5267 801.081 64.227 804.391 Q64.9272 807.701 64.9272 811.107 Q64.9272 819.637 59.9619 824.634 Q54.9967 829.599 46.5303 829.599 Q37.7774 829.599 32.6531 824.889 Q27.4968 820.146 27.4968 812.126 Q27.4968 804.932 32.1438 800.763 Q36.7589 796.561 44.7161 796.561 M42.9973 802.418 Q38.1912 802.482 35.3266 805.123 Q32.4621 807.733 32.4621 812.062 Q32.4621 816.964 35.2312 819.924 Q38.0002 822.852 43.0292 823.297 L42.9973 802.418 Z" fill="#000000" fill-rule="nonzero" fill-opacity="1" /><path clip-path="url(#clip940)" d="M42.4881 757.317 L64.0042 757.317 L64.0042 763.173 L42.679 763.173 Q37.6183 763.173 35.1038 765.147 Q32.5894 767.12 32.5894 771.067 Q32.5894 775.809 35.6131 778.547 Q38.6368 781.284 43.8567 781.284 L64.0042 781.284 L64.0042 787.172 L28.3562 787.172 L28.3562 781.284 L33.8944 781.284 Q30.6797 779.183 29.0883 776.35 Q27.4968 773.486 27.4968 769.762 Q27.4968 763.619 31.3163 760.468 Q35.1038 757.317 42.4881 757.317 Z" fill="#000000" fill-rule="nonzero" fill-opacity="1" /><path clip-path="url(#clip940)" d="M28.3562 749.837 L28.3562 743.631 L58.275 732.491 L28.3562 721.351 L28.3562 715.144 L64.0042 728.512 L64.0042 736.469 L28.3562 749.837 Z" fill="#000000" fill-rule="nonzero" fill-opacity="1" /><path clip-path="url(#clip940)" d="M46.0847 690.859 Q46.0847 697.957 47.7079 700.694 Q49.3312 703.431 53.2461 703.431 Q56.3653 703.431 58.2114 701.394 Q60.0256 699.325 60.0256 695.792 Q60.0256 690.923 56.5881 687.994 Q53.1188 685.034 47.3897 685.034 L46.0847 685.034 L46.0847 690.859 M43.6657 679.178 L64.0042 679.178 L64.0042 685.034 L58.5933 685.034 Q61.8398 687.039 63.3994 690.031 Q64.9272 693.023 64.9272 697.352 Q64.9272 702.826 61.8716 706.073 Q58.7843 709.288 53.6281 709.288 Q47.6125 709.288 44.5569 705.277 Q41.5014 701.235 41.5014 693.246 L41.5014 685.034 L40.9285 685.034 Q36.8862 685.034 34.6901 687.708 Q32.4621 690.35 32.4621 695.156 Q32.4621 698.211 33.1941 701.108 Q33.9262 704.004 35.3903 706.678 L29.9795 706.678 Q28.7381 703.463 28.1334 700.439 Q27.4968 697.416 27.4968 694.551 Q27.4968 686.817 31.5072 682.997 Q35.5176 679.178 43.6657 679.178 Z" fill="#000000" fill-rule="nonzero" fill-opacity="1" /><path clip-path="url(#clip940)" d="M14.479 667.115 L14.479 661.258 L64.0042 661.258 L64.0042 667.115 L14.479 667.115 Z" fill="#000000" fill-rule="nonzero" fill-opacity="1" /><path clip-path="url(#clip940)" d="M49.9359 649.609 L28.3562 649.609 L28.3562 643.753 L49.7131 643.753 Q54.7739 643.753 57.3202 641.779 Q59.8346 639.806 59.8346 635.859 Q59.8346 631.117 56.8109 628.379 Q53.7872 625.61 48.5673 625.61 L28.3562 625.61 L28.3562 619.754 L64.0042 619.754 L64.0042 625.61 L58.5296 625.61 Q61.7762 627.743 63.3676 630.576 Q64.9272 633.377 64.9272 637.101 Q64.9272 643.243 61.1078 646.426 Q57.2883 649.609 49.9359 649.609 M27.4968 634.873 L27.4968 634.873 Z" fill="#000000" fill-rule="nonzero" fill-opacity="1" /><path clip-path="url(#clip940)" d="M44.7161 577.199 L47.5806 577.199 L47.5806 604.126 Q53.6281 603.744 56.8109 600.498 Q59.9619 597.219 59.9619 591.395 Q59.9619 588.021 59.1344 584.87 Q58.3069 581.687 56.6518 578.568 L62.1899 578.568 Q63.5267 581.719 64.227 585.029 Q64.9272 588.339 64.9272 591.745 Q64.9272 600.275 59.9619 605.272 Q54.9967 610.237 46.5303 610.237 Q37.7774 610.237 32.6531 605.527 Q27.4968 600.784 27.4968 592.763 Q27.4968 585.57 32.1438 581.401 Q36.7589 577.199 44.7161 577.199 M42.9973 583.056 Q38.1912 583.119 35.3266 585.761 Q32.4621 588.371 32.4621 592.7 Q32.4621 597.601 35.2312 600.561 Q38.0002 603.49 43.0292 603.935 L42.9973 583.056 Z" fill="#000000" fill-rule="nonzero" fill-opacity="1" /><path clip-path="url(#clip940)" d="M29.4065 544.861 L34.9447 544.861 Q33.6716 547.344 33.035 550.018 Q32.3984 552.691 32.3984 555.556 Q32.3984 559.916 33.7352 562.112 Q35.072 564.277 37.7456 564.277 Q39.7826 564.277 40.9603 562.717 Q42.1061 561.158 43.1565 556.447 L43.6021 554.442 Q44.9389 548.203 47.3897 545.593 Q49.8086 542.952 54.1691 542.952 Q59.1344 542.952 62.0308 546.898 Q64.9272 550.813 64.9272 557.688 Q64.9272 560.553 64.3543 563.672 Q63.8132 566.759 62.6992 570.197 L56.6518 570.197 Q58.3387 566.95 59.198 563.799 Q60.0256 560.648 60.0256 557.561 Q60.0256 553.423 58.6251 551.195 Q57.1929 548.967 54.6147 548.967 Q52.2276 548.967 50.9545 550.591 Q49.6813 552.182 48.5037 557.625 L48.0262 559.662 Q46.8804 565.104 44.5251 567.523 Q42.138 569.942 38.0002 569.942 Q32.9713 569.942 30.2341 566.378 Q27.4968 562.813 27.4968 556.256 Q27.4968 553.01 27.9743 550.145 Q28.4517 547.28 29.4065 544.861 Z" fill="#000000" fill-rule="nonzero" fill-opacity="1" /><circle clip-path="url(#clip941)" cx="309.067" cy="1384.24" r="18" fill="#009af9" fill-rule="evenodd" fill-opacity="1" stroke="none"/>
<circle clip-path="url(#clip941)" cx="331.361" cy="708.561" r="18" fill="#009af9" fill-rule="evenodd" fill-opacity="1" stroke="none"/>
<circle clip-path="url(#clip941)" cx="353.655" cy="544.73" r="18" fill="#009af9" fill-rule="evenodd" fill-opacity="1" stroke="none"/>
<circle clip-path="url(#clip941)" cx="375.949" cy="469.946" r="18" fill="#009af9" fill-rule="evenodd" fill-opacity="1" stroke="none"/>
<circle clip-path="url(#clip941)" cx="398.243" cy="434.254" r="18" fill="#009af9" fill-rule="evenodd" fill-opacity="1" stroke="none"/>
<circle clip-path="url(#clip941)" cx="420.537" cy="350.419" r="18" fill="#009af9" fill-rule="evenodd" fill-opacity="1" stroke="none"/>
<circle clip-path="url(#clip941)" cx="442.831" cy="334.241" r="18" fill="#009af9" fill-rule="evenodd" fill-opacity="1" stroke="none"/>
<circle clip-path="url(#clip941)" cx="465.125" cy="306.266" r="18" fill="#009af9" fill-rule="evenodd" fill-opacity="1" stroke="none"/>
<circle clip-path="url(#clip941)" cx="487.419" cy="284.196" r="18" fill="#009af9" fill-rule="evenodd" fill-opacity="1" stroke="none"/>
<circle clip-path="url(#clip941)" cx="509.713" cy="275.332" r="18" fill="#009af9" fill-rule="evenodd" fill-opacity="1" stroke="none"/>
<circle clip-path="url(#clip941)" cx="532.007" cy="260.672" r="18" fill="#009af9" fill-rule="evenodd" fill-opacity="1" stroke="none"/>
<circle clip-path="url(#clip941)" cx="554.301" cy="250.012" r="18" fill="#009af9" fill-rule="evenodd" fill-opacity="1" stroke="none"/>
<circle clip-path="url(#clip941)" cx="576.595" cy="238.815" r="18" fill="#009af9" fill-rule="evenodd" fill-opacity="1" stroke="none"/>
<circle clip-path="url(#clip941)" cx="598.889" cy="229.233" r="18" fill="#009af9" fill-rule="evenodd" fill-opacity="1" stroke="none"/>
<circle clip-path="url(#clip941)" cx="621.183" cy="223.909" r="18" fill="#009af9" fill-rule="evenodd" fill-opacity="1" stroke="none"/>
<circle clip-path="url(#clip941)" cx="643.477" cy="222.389" r="18" fill="#009af9" fill-rule="evenodd" fill-opacity="1" stroke="none"/>
<circle clip-path="url(#clip941)" cx="665.771" cy="217.485" r="18" fill="#009af9" fill-rule="evenodd" fill-opacity="1" stroke="none"/>
<circle clip-path="url(#clip941)" cx="688.065" cy="215.119" r="18" fill="#009af9" fill-rule="evenodd" fill-opacity="1" stroke="none"/>
<circle clip-path="url(#clip941)" cx="710.359" cy="207.087" r="18" fill="#009af9" fill-rule="evenodd" fill-opacity="1" stroke="none"/>
<circle clip-path="url(#clip941)" cx="732.653" cy="201.722" r="18" fill="#009af9" fill-rule="evenodd" fill-opacity="1" stroke="none"/>
<circle clip-path="url(#clip941)" cx="754.947" cy="197.497" r="18" fill="#009af9" fill-rule="evenodd" fill-opacity="1" stroke="none"/>
<circle clip-path="url(#clip941)" cx="777.24" cy="195.428" r="18" fill="#009af9" fill-rule="evenodd" fill-opacity="1" stroke="none"/>
<circle clip-path="url(#clip941)" cx="799.534" cy="190.053" r="18" fill="#009af9" fill-rule="evenodd" fill-opacity="1" stroke="none"/>
<circle clip-path="url(#clip941)" cx="821.828" cy="187.61" r="18" fill="#009af9" fill-rule="evenodd" fill-opacity="1" stroke="none"/>
<circle clip-path="url(#clip941)" cx="844.122" cy="184.652" r="18" fill="#009af9" fill-rule="evenodd" fill-opacity="1" stroke="none"/>
<circle clip-path="url(#clip941)" cx="866.416" cy="184.067" r="18" fill="#009af9" fill-rule="evenodd" fill-opacity="1" stroke="none"/>
<circle clip-path="url(#clip941)" cx="888.71" cy="180.775" r="18" fill="#009af9" fill-rule="evenodd" fill-opacity="1" stroke="none"/>
<circle clip-path="url(#clip941)" cx="911.004" cy="178.664" r="18" fill="#009af9" fill-rule="evenodd" fill-opacity="1" stroke="none"/>
<circle clip-path="url(#clip941)" cx="933.298" cy="176.85" r="18" fill="#009af9" fill-rule="evenodd" fill-opacity="1" stroke="none"/>
<circle clip-path="url(#clip941)" cx="955.592" cy="174.408" r="18" fill="#009af9" fill-rule="evenodd" fill-opacity="1" stroke="none"/>
<circle clip-path="url(#clip941)" cx="977.886" cy="172.315" r="18" fill="#009af9" fill-rule="evenodd" fill-opacity="1" stroke="none"/>
<circle clip-path="url(#clip941)" cx="1000.18" cy="171.732" r="18" fill="#009af9" fill-rule="evenodd" fill-opacity="1" stroke="none"/>
<circle clip-path="url(#clip941)" cx="1022.47" cy="166.849" r="18" fill="#009af9" fill-rule="evenodd" fill-opacity="1" stroke="none"/>
<circle clip-path="url(#clip941)" cx="1044.77" cy="166.75" r="18" fill="#009af9" fill-rule="evenodd" fill-opacity="1" stroke="none"/>
<circle clip-path="url(#clip941)" cx="1067.06" cy="165.154" r="18" fill="#009af9" fill-rule="evenodd" fill-opacity="1" stroke="none"/>
<circle clip-path="url(#clip941)" cx="1089.36" cy="163.481" r="18" fill="#009af9" fill-rule="evenodd" fill-opacity="1" stroke="none"/>
<circle clip-path="url(#clip941)" cx="1111.65" cy="163.264" r="18" fill="#009af9" fill-rule="evenodd" fill-opacity="1" stroke="none"/>
<circle clip-path="url(#clip941)" cx="1133.94" cy="160.059" r="18" fill="#009af9" fill-rule="evenodd" fill-opacity="1" stroke="none"/>
<circle clip-path="url(#clip941)" cx="1156.24" cy="159.252" r="18" fill="#009af9" fill-rule="evenodd" fill-opacity="1" stroke="none"/>
<circle clip-path="url(#clip941)" cx="1178.53" cy="155.792" r="18" fill="#009af9" fill-rule="evenodd" fill-opacity="1" stroke="none"/>
<circle clip-path="url(#clip941)" cx="1200.83" cy="153.363" r="18" fill="#009af9" fill-rule="evenodd" fill-opacity="1" stroke="none"/>
<circle clip-path="url(#clip941)" cx="1223.12" cy="151.48" r="18" fill="#009af9" fill-rule="evenodd" fill-opacity="1" stroke="none"/>
<circle clip-path="url(#clip941)" cx="1245.41" cy="150.623" r="18" fill="#009af9" fill-rule="evenodd" fill-opacity="1" stroke="none"/>
<circle clip-path="url(#clip941)" cx="1267.71" cy="148.347" r="18" fill="#009af9" fill-rule="evenodd" fill-opacity="1" stroke="none"/>
<circle clip-path="url(#clip941)" cx="1290" cy="146.503" r="18" fill="#009af9" fill-rule="evenodd" fill-opacity="1" stroke="none"/>
<circle clip-path="url(#clip941)" cx="1312.3" cy="145.782" r="18" fill="#009af9" fill-rule="evenodd" fill-opacity="1" stroke="none"/>
<circle clip-path="url(#clip941)" cx="1334.59" cy="144.375" r="18" fill="#009af9" fill-rule="evenodd" fill-opacity="1" stroke="none"/>
<circle clip-path="url(#clip941)" cx="1356.88" cy="143.309" r="18" fill="#009af9" fill-rule="evenodd" fill-opacity="1" stroke="none"/>
<circle clip-path="url(#clip941)" cx="1379.18" cy="141.347" r="18" fill="#009af9" fill-rule="evenodd" fill-opacity="1" stroke="none"/>
<circle clip-path="url(#clip941)" cx="1401.47" cy="141.334" r="18" fill="#009af9" fill-rule="evenodd" fill-opacity="1" stroke="none"/>
<circle clip-path="url(#clip941)" cx="1423.77" cy="138.208" r="18" fill="#009af9" fill-rule="evenodd" fill-opacity="1" stroke="none"/>
<circle clip-path="url(#clip941)" cx="1446.06" cy="137.048" r="18" fill="#009af9" fill-rule="evenodd" fill-opacity="1" stroke="none"/>
<circle clip-path="url(#clip941)" cx="1468.35" cy="135.26" r="18" fill="#009af9" fill-rule="evenodd" fill-opacity="1" stroke="none"/>
<circle clip-path="url(#clip941)" cx="1490.65" cy="133.911" r="18" fill="#009af9" fill-rule="evenodd" fill-opacity="1" stroke="none"/>
<circle clip-path="url(#clip941)" cx="1512.94" cy="133.176" r="18" fill="#009af9" fill-rule="evenodd" fill-opacity="1" stroke="none"/>
<circle clip-path="url(#clip941)" cx="1535.24" cy="132.842" r="18" fill="#009af9" fill-rule="evenodd" fill-opacity="1" stroke="none"/>
<circle clip-path="url(#clip941)" cx="1557.53" cy="130.353" r="18" fill="#009af9" fill-rule="evenodd" fill-opacity="1" stroke="none"/>
<circle clip-path="url(#clip941)" cx="1579.82" cy="129.952" r="18" fill="#009af9" fill-rule="evenodd" fill-opacity="1" stroke="none"/>
<circle clip-path="url(#clip941)" cx="1602.12" cy="128.579" r="18" fill="#009af9" fill-rule="evenodd" fill-opacity="1" stroke="none"/>
<circle clip-path="url(#clip941)" cx="1624.41" cy="127.022" r="18" fill="#009af9" fill-rule="evenodd" fill-opacity="1" stroke="none"/>
<circle clip-path="url(#clip941)" cx="1646.71" cy="125.002" r="18" fill="#009af9" fill-rule="evenodd" fill-opacity="1" stroke="none"/>
<circle clip-path="url(#clip941)" cx="1669" cy="123.899" r="18" fill="#009af9" fill-rule="evenodd" fill-opacity="1" stroke="none"/>
<circle clip-path="url(#clip941)" cx="1691.29" cy="122.054" r="18" fill="#009af9" fill-rule="evenodd" fill-opacity="1" stroke="none"/>
<circle clip-path="url(#clip941)" cx="1713.59" cy="121.202" r="18" fill="#009af9" fill-rule="evenodd" fill-opacity="1" stroke="none"/>
<circle clip-path="url(#clip941)" cx="1735.88" cy="119.889" r="18" fill="#009af9" fill-rule="evenodd" fill-opacity="1" stroke="none"/>
<circle clip-path="url(#clip941)" cx="1758.18" cy="117.406" r="18" fill="#009af9" fill-rule="evenodd" fill-opacity="1" stroke="none"/>
<circle clip-path="url(#clip941)" cx="1780.47" cy="113.467" r="18" fill="#009af9" fill-rule="evenodd" fill-opacity="1" stroke="none"/>
<circle clip-path="url(#clip941)" cx="1802.76" cy="112.825" r="18" fill="#009af9" fill-rule="evenodd" fill-opacity="1" stroke="none"/>
<circle clip-path="url(#clip941)" cx="1825.06" cy="108.688" r="18" fill="#009af9" fill-rule="evenodd" fill-opacity="1" stroke="none"/>
<circle clip-path="url(#clip941)" cx="1847.35" cy="108.246" r="18" fill="#009af9" fill-rule="evenodd" fill-opacity="1" stroke="none"/>
<circle clip-path="url(#clip941)" cx="1869.65" cy="106.717" r="18" fill="#009af9" fill-rule="evenodd" fill-opacity="1" stroke="none"/>
<circle clip-path="url(#clip941)" cx="1891.94" cy="106.357" r="18" fill="#009af9" fill-rule="evenodd" fill-opacity="1" stroke="none"/>
<circle clip-path="url(#clip941)" cx="1914.23" cy="105.393" r="18" fill="#009af9" fill-rule="evenodd" fill-opacity="1" stroke="none"/>
<circle clip-path="url(#clip941)" cx="1936.53" cy="104.686" r="18" fill="#009af9" fill-rule="evenodd" fill-opacity="1" stroke="none"/>
<circle clip-path="url(#clip941)" cx="1958.82" cy="103.664" r="18" fill="#009af9" fill-rule="evenodd" fill-opacity="1" stroke="none"/>
<circle clip-path="url(#clip941)" cx="1981.12" cy="102.684" r="18" fill="#009af9" fill-rule="evenodd" fill-opacity="1" stroke="none"/>
<circle clip-path="url(#clip941)" cx="2003.41" cy="100.606" r="18" fill="#009af9" fill-rule="evenodd" fill-opacity="1" stroke="none"/>
<circle clip-path="url(#clip941)" cx="2025.7" cy="98.9889" r="18" fill="#009af9" fill-rule="evenodd" fill-opacity="1" stroke="none"/>
<circle clip-path="url(#clip941)" cx="2048" cy="98.4153" r="18" fill="#009af9" fill-rule="evenodd" fill-opacity="1" stroke="none"/>
<circle clip-path="url(#clip941)" cx="2070.29" cy="97.297" r="18" fill="#009af9" fill-rule="evenodd" fill-opacity="1" stroke="none"/>
<circle clip-path="url(#clip941)" cx="2092.59" cy="96.0765" r="18" fill="#009af9" fill-rule="evenodd" fill-opacity="1" stroke="none"/>
<circle clip-path="url(#clip941)" cx="2114.88" cy="94.927" r="18" fill="#009af9" fill-rule="evenodd" fill-opacity="1" stroke="none"/>
<circle clip-path="url(#clip941)" cx="2137.17" cy="93.2627" r="18" fill="#009af9" fill-rule="evenodd" fill-opacity="1" stroke="none"/>
<circle clip-path="url(#clip941)" cx="2159.47" cy="92.2062" r="18" fill="#009af9" fill-rule="evenodd" fill-opacity="1" stroke="none"/>
<circle clip-path="url(#clip941)" cx="2181.76" cy="91.8478" r="18" fill="#009af9" fill-rule="evenodd" fill-opacity="1" stroke="none"/>
<circle clip-path="url(#clip941)" cx="2204.06" cy="91.1798" r="18" fill="#009af9" fill-rule="evenodd" fill-opacity="1" stroke="none"/>
<circle clip-path="url(#clip941)" cx="2226.35" cy="89.8157" r="18" fill="#009af9" fill-rule="evenodd" fill-opacity="1" stroke="none"/>
<circle clip-path="url(#clip941)" cx="2248.64" cy="89.1197" r="18" fill="#009af9" fill-rule="evenodd" fill-opacity="1" stroke="none"/>
<circle clip-path="url(#clip941)" cx="2270.94" cy="87.4419" r="18" fill="#009af9" fill-rule="evenodd" fill-opacity="1" stroke="none"/>
<circle clip-path="url(#clip941)" cx="2293.23" cy="86.1857" r="18" fill="#009af9" fill-rule="evenodd" fill-opacity="1" stroke="none"/>
</svg>
