<?xml version="1.0" encoding="utf-8"?>
<svg xmlns="http://www.w3.org/2000/svg" xmlns:xlink="http://www.w3.org/1999/xlink" width="600" height="400" viewBox="0 0 2400 1600">
<defs>
  <clipPath id="clip720">
    <rect x="0" y="0" width="2400" height="1600"/>
  </clipPath>
</defs>
<path clip-path="url(#clip720)" d="M0 1600 L2400 1600 L2400 0 L0 0  Z" fill="#ffffff" fill-rule="evenodd" fill-opacity="1"/>
<defs>
  <clipPath id="clip721">
    <rect x="327" y="47" width="2026" height="1321"/>
  </clipPath>
</defs>
<path clip-path="url(#clip720)" d="M327.548 1367.02 L2352.76 1367.02 L2352.76 47.2441 L327.548 47.2441  Z" fill="#ffffff" fill-rule="evenodd" fill-opacity="1"/>
<polyline clip-path="url(#clip721)" style="stroke:#000000; stroke-linecap:round; stroke-linejoin:round; stroke-width:2; stroke-opacity:0.1; fill:none" points="717.139,1367.02 717.139,47.2441 "/>
<polyline clip-path="url(#clip721)" style="stroke:#000000; stroke-linecap:round; stroke-linejoin:round; stroke-width:2; stroke-opacity:0.1; fill:none" points="1132.48,1367.02 1132.48,47.2441 "/>
<polyline clip-path="url(#clip721)" style="stroke:#000000; stroke-linecap:round; stroke-linejoin:round; stroke-width:2; stroke-opacity:0.1; fill:none" points="1547.82,1367.02 1547.82,47.2441 "/>
<polyline clip-path="url(#clip721)" style="stroke:#000000; stroke-linecap:round; stroke-linejoin:round; stroke-width:2; stroke-opacity:0.1; fill:none" points="1963.17,1367.02 1963.17,47.2441 "/>
<polyline clip-path="url(#clip721)" style="stroke:#000000; stroke-linecap:round; stroke-linejoin:round; stroke-width:2; stroke-opacity:0.1; fill:none" points="327.548,1329.67 2352.76,1329.67 "/>
<polyline clip-path="url(#clip721)" style="stroke:#000000; stroke-linecap:round; stroke-linejoin:round; stroke-width:2; stroke-opacity:0.1; fill:none" points="327.548,914.644 2352.76,914.644 "/>
<polyline clip-path="url(#clip721)" style="stroke:#000000; stroke-linecap:round; stroke-linejoin:round; stroke-width:2; stroke-opacity:0.1; fill:none" points="327.548,499.62 2352.76,499.62 "/>
<polyline clip-path="url(#clip721)" style="stroke:#000000; stroke-linecap:round; stroke-linejoin:round; stroke-width:2; stroke-opacity:0.1; fill:none" points="327.548,84.5962 2352.76,84.5962 "/>
<polyline clip-path="url(#clip720)" style="stroke:#000000; stroke-linecap:round; stroke-linejoin:round; stroke-width:4; stroke-opacity:1; fill:none" points="327.548,1367.02 2352.76,1367.02 "/>
<polyline clip-path="url(#clip720)" style="stroke:#000000; stroke-linecap:round; stroke-linejoin:round; stroke-width:4; stroke-opacity:1; fill:none" points="717.139,1367.02 717.139,1348.12 "/>
<polyline clip-path="url(#clip720)" style="stroke:#000000; stroke-linecap:round; stroke-linejoin:round; stroke-width:4; stroke-opacity:1; fill:none" points="1132.48,1367.02 1132.48,1348.12 "/>
<polyline clip-path="url(#clip720)" style="stroke:#000000; stroke-linecap:round; stroke-linejoin:round; stroke-width:4; stroke-opacity:1; fill:none" points="1547.82,1367.02 1547.82,1348.12 "/>
<polyline clip-path="url(#clip720)" style="stroke:#000000; stroke-linecap:round; stroke-linejoin:round; stroke-width:4; stroke-opacity:1; fill:none" points="1963.17,1367.02 1963.17,1348.12 "/>
<path clip-path="url(#clip720)" d="M680.863 1454.93 L709.422 1454.93 L709.422 1461.82 L671.019 1461.82 L671.019 1454.93 Q675.678 1450.11 683.699 1442.01 Q691.76 1433.87 693.826 1431.52 Q697.755 1427.1 699.295 1424.07 Q700.874 1420.99 700.874 1418.03 Q700.874 1413.21 697.472 1410.17 Q694.109 1407.13 688.681 1407.13 Q684.833 1407.13 680.539 1408.47 Q676.285 1409.81 671.424 1412.52 L671.424 1404.26 Q676.366 1402.27 680.66 1401.26 Q684.954 1400.25 688.519 1400.25 Q697.917 1400.25 703.508 1404.95 Q709.098 1409.64 709.098 1417.5 Q709.098 1421.23 707.68 1424.59 Q706.303 1427.91 702.616 1432.45 Q701.604 1433.63 696.175 1439.26 Q690.747 1444.85 680.863 1454.93 Z" fill="#000000" fill-rule="nonzero" fill-opacity="1" /><path clip-path="url(#clip720)" d="M726.679 1401.34 L758.802 1401.34 L758.802 1408.23 L734.173 1408.23 L734.173 1423.05 Q735.955 1422.45 737.738 1422.16 Q739.52 1421.84 741.302 1421.84 Q751.43 1421.84 757.344 1427.39 Q763.258 1432.94 763.258 1442.42 Q763.258 1452.18 757.182 1457.61 Q751.106 1462.99 740.047 1462.99 Q736.239 1462.99 732.269 1462.35 Q728.34 1461.7 724.127 1460.4 L724.127 1452.18 Q727.772 1454.16 731.661 1455.14 Q735.55 1456.11 739.885 1456.11 Q746.893 1456.11 750.984 1452.42 Q755.076 1448.74 755.076 1442.42 Q755.076 1436.1 750.984 1432.41 Q746.893 1428.72 739.885 1428.72 Q736.603 1428.72 733.322 1429.45 Q730.081 1430.18 726.679 1431.72 L726.679 1401.34 Z" fill="#000000" fill-rule="nonzero" fill-opacity="1" /><path clip-path="url(#clip720)" d="M1088.2 1401.34 L1120.33 1401.34 L1120.33 1408.23 L1095.7 1408.23 L1095.7 1423.05 Q1097.48 1422.45 1099.26 1422.16 Q1101.05 1421.84 1102.83 1421.84 Q1112.96 1421.84 1118.87 1427.39 Q1124.78 1432.94 1124.78 1442.42 Q1124.78 1452.18 1118.71 1457.61 Q1112.63 1462.99 1101.57 1462.99 Q1097.76 1462.99 1093.79 1462.35 Q1089.87 1461.7 1085.65 1460.4 L1085.65 1452.18 Q1089.3 1454.16 1093.19 1455.14 Q1097.08 1456.11 1101.41 1456.11 Q1108.42 1456.11 1112.51 1452.42 Q1116.6 1448.74 1116.6 1442.42 Q1116.6 1436.1 1112.51 1432.41 Q1108.42 1428.72 1101.41 1428.72 Q1098.13 1428.72 1094.85 1429.45 Q1091.61 1430.18 1088.2 1431.72 L1088.2 1401.34 Z" fill="#000000" fill-rule="nonzero" fill-opacity="1" /><path clip-path="url(#clip720)" d="M1158.41 1406.73 Q1152.09 1406.73 1148.89 1412.97 Q1145.73 1419.16 1145.73 1431.64 Q1145.73 1444.08 1148.89 1450.32 Q1152.09 1456.51 1158.41 1456.51 Q1164.77 1456.51 1167.93 1450.32 Q1171.13 1444.08 1171.13 1431.64 Q1171.13 1419.16 1167.93 1412.97 Q1164.77 1406.73 1158.41 1406.73 M1158.41 1400.25 Q1168.57 1400.25 1173.92 1408.31 Q1179.31 1416.33 1179.31 1431.64 Q1179.31 1446.91 1173.92 1454.97 Q1168.57 1462.99 1158.41 1462.99 Q1148.24 1462.99 1142.85 1454.97 Q1137.5 1446.91 1137.5 1431.64 Q1137.5 1416.33 1142.85 1408.31 Q1148.24 1400.25 1158.41 1400.25 Z" fill="#000000" fill-rule="nonzero" fill-opacity="1" /><path clip-path="url(#clip720)" d="M1502.07 1401.34 L1540.96 1401.34 L1540.96 1404.82 L1519 1461.82 L1510.45 1461.82 L1531.11 1408.23 L1502.07 1408.23 L1502.07 1401.34 Z" fill="#000000" fill-rule="nonzero" fill-opacity="1" /><path clip-path="url(#clip720)" d="M1557 1401.34 L1589.12 1401.34 L1589.12 1408.23 L1564.49 1408.23 L1564.49 1423.05 Q1566.27 1422.45 1568.06 1422.16 Q1569.84 1421.84 1571.62 1421.84 Q1581.75 1421.84 1587.66 1427.39 Q1593.58 1432.94 1593.58 1442.42 Q1593.58 1452.18 1587.5 1457.61 Q1581.43 1462.99 1570.37 1462.99 Q1566.56 1462.99 1562.59 1462.35 Q1558.66 1461.7 1554.45 1460.4 L1554.45 1452.18 Q1558.09 1454.16 1561.98 1455.14 Q1565.87 1456.11 1570.2 1456.11 Q1577.21 1456.11 1581.3 1452.42 Q1585.4 1448.74 1585.4 1442.42 Q1585.4 1436.1 1581.3 1432.41 Q1577.21 1428.72 1570.2 1428.72 Q1566.92 1428.72 1563.64 1429.45 Q1560.4 1430.18 1557 1431.72 L1557 1401.34 Z" fill="#000000" fill-rule="nonzero" fill-opacity="1" /><path clip-path="url(#clip720)" d="M1892.48 1454.93 L1905.84 1454.93 L1905.84 1408.79 L1891.3 1411.71 L1891.3 1404.26 L1905.76 1401.34 L1913.95 1401.34 L1913.95 1454.93 L1927.31 1454.93 L1927.31 1461.82 L1892.48 1461.82 L1892.48 1454.93 Z" fill="#000000" fill-rule="nonzero" fill-opacity="1" /><path clip-path="url(#clip720)" d="M1961.34 1406.73 Q1955.02 1406.73 1951.82 1412.97 Q1948.66 1419.16 1948.66 1431.64 Q1948.66 1444.08 1951.82 1450.32 Q1955.02 1456.51 1961.34 1456.51 Q1967.7 1456.51 1970.86 1450.32 Q1974.06 1444.08 1974.06 1431.64 Q1974.06 1419.16 1970.86 1412.97 Q1967.7 1406.73 1961.34 1406.73 M1961.34 1400.25 Q1971.51 1400.25 1976.86 1408.31 Q1982.24 1416.33 1982.24 1431.64 Q1982.24 1446.91 1976.86 1454.97 Q1971.51 1462.99 1961.34 1462.99 Q1951.17 1462.99 1945.79 1454.97 Q1940.44 1446.91 1940.44 1431.64 Q1940.44 1416.33 1945.79 1408.31 Q1951.17 1400.25 1961.34 1400.25 Z" fill="#000000" fill-rule="nonzero" fill-opacity="1" /><path clip-path="url(#clip720)" d="M2014.13 1406.73 Q2007.81 1406.73 2004.61 1412.97 Q2001.45 1419.16 2001.45 1431.64 Q2001.45 1444.08 2004.61 1450.32 Q2007.81 1456.51 2014.13 1456.51 Q2020.49 1456.51 2023.65 1450.32 Q2026.85 1444.08 2026.85 1431.64 Q2026.85 1419.16 2023.65 1412.97 Q2020.49 1406.73 2014.13 1406.73 M2014.13 1400.25 Q2024.29 1400.25 2029.64 1408.31 Q2035.03 1416.33 2035.03 1431.64 Q2035.03 1446.91 2029.64 1454.97 Q2024.29 1462.99 2014.13 1462.99 Q2003.96 1462.99 1998.57 1454.97 Q1993.22 1446.91 1993.22 1431.64 Q1993.22 1416.33 1998.57 1408.31 Q2003.96 1400.25 2014.13 1400.25 Z" fill="#000000" fill-rule="nonzero" fill-opacity="1" /><path clip-path="url(#clip720)" d="M534.583 1509.29 L579.271 1509.29 L579.271 1518.15 L545.104 1518.15 L545.104 1541.06 L575.937 1541.06 L575.937 1549.92 L545.104 1549.92 L545.104 1587.05 L534.583 1587.05 L534.583 1509.29 Z" fill="#000000" fill-rule="nonzero" fill-opacity="1" /><path clip-path="url(#clip720)" d="M612.239 1557.73 Q600.625 1557.73 596.146 1560.39 Q591.666 1563.04 591.666 1569.45 Q591.666 1574.55 595 1577.57 Q598.385 1580.54 604.166 1580.54 Q612.135 1580.54 616.927 1574.92 Q621.77 1569.24 621.77 1559.86 L621.77 1557.73 L612.239 1557.73 M631.354 1553.77 L631.354 1587.05 L621.77 1587.05 L621.77 1578.2 Q618.489 1583.51 613.593 1586.06 Q608.698 1588.56 601.614 1588.56 Q592.656 1588.56 587.343 1583.56 Q582.083 1578.51 582.083 1570.07 Q582.083 1560.23 588.646 1555.23 Q595.26 1550.23 608.333 1550.23 L621.77 1550.23 L621.77 1549.29 Q621.77 1542.68 617.395 1539.08 Q613.073 1535.44 605.208 1535.44 Q600.208 1535.44 595.468 1536.64 Q590.729 1537.83 586.354 1540.23 L586.354 1531.38 Q591.614 1529.34 596.562 1528.35 Q601.51 1527.31 606.198 1527.31 Q618.854 1527.31 625.104 1533.88 Q631.354 1540.44 631.354 1553.77 Z" fill="#000000" fill-rule="nonzero" fill-opacity="1" /><path clip-path="url(#clip720)" d="M696.51 1539.92 Q700.103 1533.46 705.103 1530.39 Q710.103 1527.31 716.874 1527.31 Q725.989 1527.31 730.936 1533.72 Q735.884 1540.07 735.884 1551.84 L735.884 1587.05 L726.249 1587.05 L726.249 1552.16 Q726.249 1543.77 723.28 1539.71 Q720.312 1535.65 714.218 1535.65 Q706.77 1535.65 702.447 1540.59 Q698.124 1545.54 698.124 1554.08 L698.124 1587.05 L688.489 1587.05 L688.489 1552.16 Q688.489 1543.72 685.52 1539.71 Q682.551 1535.65 676.353 1535.65 Q669.01 1535.65 664.687 1540.65 Q660.364 1545.59 660.364 1554.08 L660.364 1587.05 L650.729 1587.05 L650.729 1528.72 L660.364 1528.72 L660.364 1537.78 Q663.645 1532.42 668.228 1529.86 Q672.812 1527.31 679.114 1527.31 Q685.468 1527.31 689.895 1530.54 Q694.374 1533.77 696.51 1539.92 Z" fill="#000000" fill-rule="nonzero" fill-opacity="1" /><path clip-path="url(#clip720)" d="M754.999 1528.72 L764.582 1528.72 L764.582 1587.05 L754.999 1587.05 L754.999 1528.72 M754.999 1506.01 L764.582 1506.01 L764.582 1518.15 L754.999 1518.15 L754.999 1506.01 Z" fill="#000000" fill-rule="nonzero" fill-opacity="1" /><path clip-path="url(#clip720)" d="M784.634 1506.01 L794.217 1506.01 L794.217 1587.05 L784.634 1587.05 L784.634 1506.01 Z" fill="#000000" fill-rule="nonzero" fill-opacity="1" /><path clip-path="url(#clip720)" d="M838.54 1592.47 Q834.478 1602.89 830.623 1606.06 Q826.769 1609.24 820.311 1609.24 L812.655 1609.24 L812.655 1601.22 L818.28 1601.22 Q822.238 1601.22 824.426 1599.34 Q826.613 1597.47 829.269 1590.49 L830.988 1586.11 L807.394 1528.72 L817.551 1528.72 L835.78 1574.34 L854.009 1528.72 L864.165 1528.72 L838.54 1592.47 Z" fill="#000000" fill-rule="nonzero" fill-opacity="1" /><path clip-path="url(#clip720)" d="M937.706 1519.66 L923.435 1558.35 L952.029 1558.35 L937.706 1519.66 M931.769 1509.29 L943.696 1509.29 L973.331 1587.05 L962.394 1587.05 L955.31 1567.1 L920.258 1567.1 L913.175 1587.05 L902.081 1587.05 L931.769 1509.29 Z" fill="#000000" fill-rule="nonzero" fill-opacity="1" /><path clip-path="url(#clip720)" d="M1032.76 1551.84 L1032.76 1587.05 L1023.17 1587.05 L1023.17 1552.16 Q1023.17 1543.87 1019.95 1539.76 Q1016.72 1535.65 1010.26 1535.65 Q1002.5 1535.65 998.018 1540.59 Q993.539 1545.54 993.539 1554.08 L993.539 1587.05 L983.904 1587.05 L983.904 1528.72 L993.539 1528.72 L993.539 1537.78 Q996.977 1532.52 1001.61 1529.92 Q1006.3 1527.31 1012.39 1527.31 Q1022.45 1527.31 1027.6 1533.56 Q1032.76 1539.76 1032.76 1551.84 Z" fill="#000000" fill-rule="nonzero" fill-opacity="1" /><path clip-path="url(#clip720)" d="M1100.36 1551.84 L1100.36 1587.05 L1090.78 1587.05 L1090.78 1552.16 Q1090.78 1543.87 1087.55 1539.76 Q1084.32 1535.65 1077.86 1535.65 Q1070.1 1535.65 1065.62 1540.59 Q1061.14 1545.54 1061.14 1554.08 L1061.14 1587.05 L1051.51 1587.05 L1051.51 1528.72 L1061.14 1528.72 L1061.14 1537.78 Q1064.58 1532.52 1069.22 1529.92 Q1073.9 1527.31 1080 1527.31 Q1090.05 1527.31 1095.21 1533.56 Q1100.36 1539.76 1100.36 1551.84 Z" fill="#000000" fill-rule="nonzero" fill-opacity="1" /><path clip-path="url(#clip720)" d="M1118.49 1564.03 L1118.49 1528.72 L1128.07 1528.72 L1128.07 1563.67 Q1128.07 1571.95 1131.3 1576.11 Q1134.53 1580.23 1140.99 1580.23 Q1148.75 1580.23 1153.23 1575.28 Q1157.76 1570.33 1157.76 1561.79 L1157.76 1528.72 L1167.34 1528.72 L1167.34 1587.05 L1157.76 1587.05 L1157.76 1578.09 Q1154.27 1583.41 1149.63 1586.01 Q1145.05 1588.56 1138.96 1588.56 Q1128.9 1588.56 1123.69 1582.31 Q1118.49 1576.06 1118.49 1564.03 M1142.6 1527.31 L1142.6 1527.31 Z" fill="#000000" fill-rule="nonzero" fill-opacity="1" /><path clip-path="url(#clip720)" d="M1213.59 1557.73 Q1201.98 1557.73 1197.5 1560.39 Q1193.02 1563.04 1193.02 1569.45 Q1193.02 1574.55 1196.35 1577.57 Q1199.74 1580.54 1205.52 1580.54 Q1213.49 1580.54 1218.28 1574.92 Q1223.12 1569.24 1223.12 1559.86 L1223.12 1557.73 L1213.59 1557.73 M1232.7 1553.77 L1232.7 1587.05 L1223.12 1587.05 L1223.12 1578.2 Q1219.84 1583.51 1214.94 1586.06 Q1210.05 1588.56 1202.97 1588.56 Q1194.01 1588.56 1188.69 1583.56 Q1183.43 1578.51 1183.43 1570.07 Q1183.43 1560.23 1190 1555.23 Q1196.61 1550.23 1209.68 1550.23 L1223.12 1550.23 L1223.12 1549.29 Q1223.12 1542.68 1218.75 1539.08 Q1214.42 1535.44 1206.56 1535.44 Q1201.56 1535.44 1196.82 1536.64 Q1192.08 1537.83 1187.7 1540.23 L1187.7 1531.38 Q1192.97 1529.34 1197.91 1528.35 Q1202.86 1527.31 1207.55 1527.31 Q1220.2 1527.31 1226.45 1533.88 Q1232.7 1540.44 1232.7 1553.77 Z" fill="#000000" fill-rule="nonzero" fill-opacity="1" /><path clip-path="url(#clip720)" d="M1252.44 1506.01 L1262.03 1506.01 L1262.03 1587.05 L1252.44 1587.05 L1252.44 1506.01 Z" fill="#000000" fill-rule="nonzero" fill-opacity="1" /><path clip-path="url(#clip720)" d="M1316.4 1509.29 L1326.92 1509.29 L1326.92 1587.05 L1316.4 1587.05 L1316.4 1509.29 Z" fill="#000000" fill-rule="nonzero" fill-opacity="1" /><path clip-path="url(#clip720)" d="M1395.93 1551.84 L1395.93 1587.05 L1386.35 1587.05 L1386.35 1552.16 Q1386.35 1543.87 1383.12 1539.76 Q1379.89 1535.65 1373.43 1535.65 Q1365.67 1535.65 1361.19 1540.59 Q1356.71 1545.54 1356.71 1554.08 L1356.71 1587.05 L1347.08 1587.05 L1347.08 1528.72 L1356.71 1528.72 L1356.71 1537.78 Q1360.15 1532.52 1364.79 1529.92 Q1369.47 1527.31 1375.57 1527.31 Q1385.62 1527.31 1390.78 1533.56 Q1395.93 1539.76 1395.93 1551.84 Z" fill="#000000" fill-rule="nonzero" fill-opacity="1" /><path clip-path="url(#clip720)" d="M1457.03 1530.96 L1457.03 1539.92 Q1452.96 1537.68 1448.85 1536.58 Q1444.79 1535.44 1440.62 1535.44 Q1431.3 1535.44 1426.14 1541.38 Q1420.98 1547.26 1420.98 1557.94 Q1420.98 1568.61 1426.14 1574.55 Q1431.3 1580.44 1440.62 1580.44 Q1444.79 1580.44 1448.85 1579.34 Q1452.96 1578.2 1457.03 1575.96 L1457.03 1584.81 Q1453.02 1586.69 1448.69 1587.62 Q1444.42 1588.56 1439.58 1588.56 Q1426.4 1588.56 1418.64 1580.28 Q1410.88 1572 1410.88 1557.94 Q1410.88 1543.67 1418.69 1535.49 Q1426.56 1527.31 1440.2 1527.31 Q1444.63 1527.31 1448.85 1528.25 Q1453.07 1529.14 1457.03 1530.96 Z" fill="#000000" fill-rule="nonzero" fill-opacity="1" /><path clip-path="url(#clip720)" d="M1496.3 1535.44 Q1488.59 1535.44 1484.11 1541.48 Q1479.63 1547.47 1479.63 1557.94 Q1479.63 1568.41 1484.06 1574.45 Q1488.54 1580.44 1496.3 1580.44 Q1503.95 1580.44 1508.43 1574.4 Q1512.91 1568.35 1512.91 1557.94 Q1512.91 1547.57 1508.43 1541.53 Q1503.95 1535.44 1496.3 1535.44 M1496.3 1527.31 Q1508.8 1527.31 1515.93 1535.44 Q1523.07 1543.56 1523.07 1557.94 Q1523.07 1572.26 1515.93 1580.44 Q1508.8 1588.56 1496.3 1588.56 Q1483.74 1588.56 1476.61 1580.44 Q1469.53 1572.26 1469.53 1557.94 Q1469.53 1543.56 1476.61 1535.44 Q1483.74 1527.31 1496.3 1527.31 Z" fill="#000000" fill-rule="nonzero" fill-opacity="1" /><path clip-path="url(#clip720)" d="M1584.37 1539.92 Q1587.96 1533.46 1592.96 1530.39 Q1597.96 1527.31 1604.73 1527.31 Q1613.85 1527.31 1618.8 1533.72 Q1623.74 1540.07 1623.74 1551.84 L1623.74 1587.05 L1614.11 1587.05 L1614.11 1552.16 Q1614.11 1543.77 1611.14 1539.71 Q1608.17 1535.65 1602.08 1535.65 Q1594.63 1535.65 1590.31 1540.59 Q1585.98 1545.54 1585.98 1554.08 L1585.98 1587.05 L1576.35 1587.05 L1576.35 1552.16 Q1576.35 1543.72 1573.38 1539.71 Q1570.41 1535.65 1564.21 1535.65 Q1556.87 1535.65 1552.55 1540.65 Q1548.22 1545.59 1548.22 1554.08 L1548.22 1587.05 L1538.59 1587.05 L1538.59 1528.72 L1548.22 1528.72 L1548.22 1537.78 Q1551.5 1532.42 1556.09 1529.86 Q1560.67 1527.31 1566.97 1527.31 Q1573.33 1527.31 1577.75 1530.54 Q1582.23 1533.77 1584.37 1539.92 Z" fill="#000000" fill-rule="nonzero" fill-opacity="1" /><path clip-path="url(#clip720)" d="M1692.75 1555.49 L1692.75 1560.18 L1648.69 1560.18 Q1649.32 1570.07 1654.63 1575.28 Q1659.99 1580.44 1669.53 1580.44 Q1675.05 1580.44 1680.2 1579.08 Q1685.41 1577.73 1690.51 1575.02 L1690.51 1584.08 Q1685.36 1586.27 1679.94 1587.42 Q1674.53 1588.56 1668.95 1588.56 Q1654.99 1588.56 1646.82 1580.44 Q1638.69 1572.31 1638.69 1558.46 Q1638.69 1544.14 1646.4 1535.75 Q1654.16 1527.31 1667.29 1527.31 Q1679.06 1527.31 1685.88 1534.92 Q1692.75 1542.47 1692.75 1555.49 M1683.17 1552.68 Q1683.07 1544.81 1678.74 1540.13 Q1674.47 1535.44 1667.39 1535.44 Q1659.37 1535.44 1654.53 1539.97 Q1649.73 1544.5 1649 1552.73 L1683.17 1552.68 Z" fill="#000000" fill-rule="nonzero" fill-opacity="1" /><path clip-path="url(#clip720)" d="M1765.41 1506.11 Q1758.43 1518.09 1755.05 1529.81 Q1751.66 1541.53 1751.66 1553.56 Q1751.66 1565.59 1755.05 1577.42 Q1758.48 1589.19 1765.41 1601.11 L1757.08 1601.11 Q1749.26 1588.87 1745.36 1577.05 Q1741.5 1565.23 1741.5 1553.56 Q1741.5 1541.95 1745.36 1530.18 Q1749.21 1518.41 1757.08 1506.11 L1765.41 1506.11 Z" fill="#000000" fill-rule="nonzero" fill-opacity="1" /><path clip-path="url(#clip720)" d="M1787.18 1578.2 L1804.37 1578.2 L1804.37 1518.88 L1785.67 1522.63 L1785.67 1513.04 L1804.26 1509.29 L1814.78 1509.29 L1814.78 1578.2 L1831.97 1578.2 L1831.97 1587.05 L1787.18 1587.05 L1787.18 1578.2 Z" fill="#000000" fill-rule="nonzero" fill-opacity="1" /><path clip-path="url(#clip720)" d="M1875.72 1516.22 Q1867.6 1516.22 1863.48 1524.24 Q1859.42 1532.21 1859.42 1548.25 Q1859.42 1564.24 1863.48 1572.26 Q1867.6 1580.23 1875.72 1580.23 Q1883.9 1580.23 1887.96 1572.26 Q1892.08 1564.24 1892.08 1548.25 Q1892.08 1532.21 1887.96 1524.24 Q1883.9 1516.22 1875.72 1516.22 M1875.72 1507.89 Q1888.79 1507.89 1895.67 1518.25 Q1902.6 1528.56 1902.6 1548.25 Q1902.6 1567.89 1895.67 1578.25 Q1888.79 1588.56 1875.72 1588.56 Q1862.65 1588.56 1855.72 1578.25 Q1848.85 1567.89 1848.85 1548.25 Q1848.85 1528.56 1855.72 1518.25 Q1862.65 1507.89 1875.72 1507.89 Z" fill="#000000" fill-rule="nonzero" fill-opacity="1" /><path clip-path="url(#clip720)" d="M1943.59 1516.22 Q1935.46 1516.22 1931.35 1524.24 Q1927.28 1532.21 1927.28 1548.25 Q1927.28 1564.24 1931.35 1572.26 Q1935.46 1580.23 1943.59 1580.23 Q1951.76 1580.23 1955.83 1572.26 Q1959.94 1564.24 1959.94 1548.25 Q1959.94 1532.21 1955.83 1524.24 Q1951.76 1516.22 1943.59 1516.22 M1943.59 1507.89 Q1956.66 1507.89 1963.53 1518.25 Q1970.46 1528.56 1970.46 1548.25 Q1970.46 1567.89 1963.53 1578.25 Q1956.66 1588.56 1943.59 1588.56 Q1930.51 1588.56 1923.59 1578.25 Q1916.71 1567.89 1916.71 1548.25 Q1916.71 1528.56 1923.59 1518.25 Q1930.51 1507.89 1943.59 1507.89 Z" fill="#000000" fill-rule="nonzero" fill-opacity="1" /><path clip-path="url(#clip720)" d="M2011.45 1516.22 Q2003.33 1516.22 1999.21 1524.24 Q1995.15 1532.21 1995.15 1548.25 Q1995.15 1564.24 1999.21 1572.26 Q2003.33 1580.23 2011.45 1580.23 Q2019.63 1580.23 2023.69 1572.26 Q2027.8 1564.24 2027.8 1548.25 Q2027.8 1532.21 2023.69 1524.24 Q2019.63 1516.22 2011.45 1516.22 M2011.45 1507.89 Q2024.52 1507.89 2031.4 1518.25 Q2038.33 1528.56 2038.33 1548.25 Q2038.33 1567.89 2031.4 1578.25 Q2024.52 1588.56 2011.45 1588.56 Q1998.38 1588.56 1991.45 1578.25 Q1984.58 1567.89 1984.58 1548.25 Q1984.58 1528.56 1991.45 1518.25 Q1998.38 1507.89 2011.45 1507.89 Z" fill="#000000" fill-rule="nonzero" fill-opacity="1" /><path clip-path="url(#clip720)" d="M2081.45 1602.73 L2076.24 1602.73 L2076.19 1587.05 Q2070.72 1586.95 2065.25 1585.8 Q2059.78 1584.6 2054.26 1582.26 L2054.26 1572.89 Q2059.58 1576.22 2064.99 1577.94 Q2070.46 1579.6 2076.24 1579.66 L2076.24 1555.91 Q2064.73 1554.03 2059.47 1549.55 Q2054.26 1545.07 2054.26 1537.26 Q2054.26 1528.77 2059.94 1523.88 Q2065.62 1518.98 2076.24 1518.25 L2076.24 1506.01 L2081.45 1506.01 L2081.45 1518.09 Q2086.29 1518.3 2090.83 1519.14 Q2095.36 1519.92 2099.68 1521.32 L2099.68 1530.44 Q2095.36 1528.25 2090.77 1527.05 Q2086.24 1525.85 2081.45 1525.65 L2081.45 1547.89 Q2093.27 1549.71 2098.85 1554.4 Q2104.42 1559.08 2104.42 1567.21 Q2104.42 1576.01 2098.48 1581.11 Q2092.6 1586.17 2081.45 1586.95 L2081.45 1602.73 M2076.24 1546.95 L2076.24 1525.59 Q2070.2 1526.27 2067.02 1529.03 Q2063.85 1531.79 2063.85 1536.38 Q2063.85 1540.85 2066.76 1543.35 Q2069.73 1545.85 2076.24 1546.95 M2081.45 1556.95 L2081.45 1579.5 Q2088.06 1578.61 2091.4 1575.75 Q2094.78 1572.89 2094.78 1568.2 Q2094.78 1563.61 2091.55 1560.91 Q2088.38 1558.2 2081.45 1556.95 Z" fill="#000000" fill-rule="nonzero" fill-opacity="1" /><path clip-path="url(#clip720)" d="M2121.81 1506.11 L2130.15 1506.11 Q2137.96 1518.41 2141.81 1530.18 Q2145.72 1541.95 2145.72 1553.56 Q2145.72 1565.23 2141.81 1577.05 Q2137.96 1588.87 2130.15 1601.11 L2121.81 1601.11 Q2128.74 1589.19 2132.13 1577.42 Q2135.56 1565.59 2135.56 1553.56 Q2135.56 1541.53 2132.13 1529.81 Q2128.74 1518.09 2121.81 1506.11 Z" fill="#000000" fill-rule="nonzero" fill-opacity="1" /><polyline clip-path="url(#clip720)" style="stroke:#000000; stroke-linecap:round; stroke-linejoin:round; stroke-width:4; stroke-opacity:1; fill:none" points="327.548,1367.02 327.548,47.2441 "/>
<polyline clip-path="url(#clip720)" style="stroke:#000000; stroke-linecap:round; stroke-linejoin:round; stroke-width:4; stroke-opacity:1; fill:none" points="327.548,1329.67 346.446,1329.67 "/>
<polyline clip-path="url(#clip720)" style="stroke:#000000; stroke-linecap:round; stroke-linejoin:round; stroke-width:4; stroke-opacity:1; fill:none" points="327.548,914.644 346.446,914.644 "/>
<polyline clip-path="url(#clip720)" style="stroke:#000000; stroke-linecap:round; stroke-linejoin:round; stroke-width:4; stroke-opacity:1; fill:none" points="327.548,499.62 346.446,499.62 "/>
<polyline clip-path="url(#clip720)" style="stroke:#000000; stroke-linecap:round; stroke-linejoin:round; stroke-width:4; stroke-opacity:1; fill:none" points="327.548,84.5962 346.446,84.5962 "/>
<path clip-path="url(#clip720)" d="M171.803 1306.56 L151.144 1338.84 L171.803 1338.84 L171.803 1306.56 M169.656 1299.43 L179.946 1299.43 L179.946 1338.84 L188.574 1338.84 L188.574 1345.65 L179.946 1345.65 L179.946 1359.91 L171.803 1359.91 L171.803 1345.65 L144.5 1345.65 L144.5 1337.75 L169.656 1299.43 Z" fill="#000000" fill-rule="nonzero" fill-opacity="1" /><path clip-path="url(#clip720)" d="M209.153 1353.02 L237.711 1353.02 L237.711 1359.91 L199.309 1359.91 L199.309 1353.02 Q203.967 1348.2 211.988 1340.1 Q220.05 1331.96 222.115 1329.61 Q226.045 1325.19 227.584 1322.15 Q229.164 1319.07 229.164 1316.12 Q229.164 1311.3 225.761 1308.26 Q222.399 1305.22 216.971 1305.22 Q213.122 1305.22 208.829 1306.56 Q204.575 1307.89 199.714 1310.61 L199.714 1302.34 Q204.656 1300.36 208.95 1299.35 Q213.244 1298.33 216.809 1298.33 Q226.207 1298.33 231.797 1303.03 Q237.387 1307.73 237.387 1315.59 Q237.387 1319.32 235.97 1322.68 Q234.592 1326 230.906 1330.54 Q229.893 1331.71 224.465 1337.34 Q219.037 1342.93 209.153 1353.02 Z" fill="#000000" fill-rule="nonzero" fill-opacity="1" /><path clip-path="url(#clip720)" d="M254.968 1299.43 L287.092 1299.43 L287.092 1306.31 L262.462 1306.31 L262.462 1321.14 Q264.245 1320.53 266.027 1320.25 Q267.81 1319.93 269.592 1319.93 Q279.719 1319.93 285.634 1325.48 Q291.548 1331.02 291.548 1340.5 Q291.548 1350.27 285.472 1355.69 Q279.395 1361.08 268.336 1361.08 Q264.528 1361.08 260.559 1360.43 Q256.629 1359.79 252.416 1358.49 L252.416 1350.27 Q256.062 1352.25 259.951 1353.22 Q263.84 1354.2 268.174 1354.2 Q275.182 1354.2 279.274 1350.51 Q283.365 1346.82 283.365 1340.5 Q283.365 1334.18 279.274 1330.5 Q275.182 1326.81 268.174 1326.81 Q264.893 1326.81 261.612 1327.54 Q258.371 1328.27 254.968 1329.81 L254.968 1299.43 Z" fill="#000000" fill-rule="nonzero" fill-opacity="1" /><path clip-path="url(#clip720)" d="M171.803 891.533 L151.144 923.819 L171.803 923.819 L171.803 891.533 M169.656 884.404 L179.946 884.404 L179.946 923.819 L188.574 923.819 L188.574 930.625 L179.946 930.625 L179.946 944.884 L171.803 944.884 L171.803 930.625 L144.5 930.625 L144.5 922.725 L169.656 884.404 Z" fill="#000000" fill-rule="nonzero" fill-opacity="1" /><path clip-path="url(#clip720)" d="M200.038 884.404 L238.927 884.404 L238.927 887.888 L216.971 944.884 L208.423 944.884 L229.083 891.29 L200.038 891.29 L200.038 884.404 Z" fill="#000000" fill-rule="nonzero" fill-opacity="1" /><path clip-path="url(#clip720)" d="M254.968 884.404 L287.092 884.404 L287.092 891.29 L262.462 891.29 L262.462 906.117 Q264.245 905.509 266.027 905.226 Q267.81 904.901 269.592 904.901 Q279.719 904.901 285.634 910.451 Q291.548 916.001 291.548 925.48 Q291.548 935.243 285.472 940.671 Q279.395 946.059 268.336 946.059 Q264.528 946.059 260.559 945.41 Q256.629 944.762 252.416 943.466 L252.416 935.243 Q256.062 937.228 259.951 938.2 Q263.84 939.172 268.174 939.172 Q275.182 939.172 279.274 935.486 Q283.365 931.799 283.365 925.48 Q283.365 919.161 279.274 915.474 Q275.182 911.788 268.174 911.788 Q264.893 911.788 261.612 912.517 Q258.371 913.246 254.968 914.786 L254.968 884.404 Z" fill="#000000" fill-rule="nonzero" fill-opacity="1" /><path clip-path="url(#clip720)" d="M149.402 469.38 L181.525 469.38 L181.525 476.267 L156.896 476.267 L156.896 491.093 Q158.678 490.485 160.461 490.202 Q162.243 489.878 164.026 489.878 Q174.153 489.878 180.067 495.427 Q185.981 500.977 185.981 510.456 Q185.981 520.219 179.905 525.647 Q173.829 531.035 162.77 531.035 Q158.962 531.035 154.992 530.387 Q151.063 529.739 146.85 528.442 L146.85 520.219 Q150.495 522.204 154.384 523.176 Q158.273 524.148 162.608 524.148 Q169.616 524.148 173.707 520.462 Q177.799 516.776 177.799 510.456 Q177.799 504.137 173.707 500.45 Q169.616 496.764 162.608 496.764 Q159.326 496.764 156.045 497.493 Q152.805 498.222 149.402 499.762 L149.402 469.38 Z" fill="#000000" fill-rule="nonzero" fill-opacity="1" /><path clip-path="url(#clip720)" d="M209.153 522.974 L237.711 522.974 L237.711 529.86 L199.309 529.86 L199.309 522.974 Q203.967 518.153 211.988 510.051 Q220.05 501.909 222.115 499.559 Q226.045 495.144 227.584 492.106 Q229.164 489.027 229.164 486.07 Q229.164 481.249 225.761 478.211 Q222.399 475.173 216.971 475.173 Q213.122 475.173 208.829 476.51 Q204.575 477.846 199.714 480.561 L199.714 472.297 Q204.656 470.312 208.95 469.299 Q213.244 468.286 216.809 468.286 Q226.207 468.286 231.797 472.985 Q237.387 477.684 237.387 485.543 Q237.387 489.27 235.97 492.632 Q234.592 495.954 230.906 500.491 Q229.893 501.666 224.465 507.297 Q219.037 512.887 209.153 522.974 Z" fill="#000000" fill-rule="nonzero" fill-opacity="1" /><path clip-path="url(#clip720)" d="M254.968 469.38 L287.092 469.38 L287.092 476.267 L262.462 476.267 L262.462 491.093 Q264.245 490.485 266.027 490.202 Q267.81 489.878 269.592 489.878 Q279.719 489.878 285.634 495.427 Q291.548 500.977 291.548 510.456 Q291.548 520.219 285.472 525.647 Q279.395 531.035 268.336 531.035 Q264.528 531.035 260.559 530.387 Q256.629 529.739 252.416 528.442 L252.416 520.219 Q256.062 522.204 259.951 523.176 Q263.84 524.148 268.174 524.148 Q275.182 524.148 279.274 520.462 Q283.365 516.776 283.365 510.456 Q283.365 504.137 279.274 500.45 Q275.182 496.764 268.174 496.764 Q264.893 496.764 261.612 497.493 Q258.371 498.222 254.968 499.762 L254.968 469.38 Z" fill="#000000" fill-rule="nonzero" fill-opacity="1" /><path clip-path="url(#clip720)" d="M149.402 54.3562 L181.525 54.3562 L181.525 61.2428 L156.896 61.2428 L156.896 76.0691 Q158.678 75.4614 160.461 75.1779 Q162.243 74.8538 164.026 74.8538 Q174.153 74.8538 180.067 80.4036 Q185.981 85.9533 185.981 95.4324 Q185.981 105.195 179.905 110.623 Q173.829 116.011 162.77 116.011 Q158.962 116.011 154.992 115.363 Q151.063 114.715 146.85 113.418 L146.85 105.195 Q150.495 107.18 154.384 108.152 Q158.273 109.124 162.608 109.124 Q169.616 109.124 173.707 105.438 Q177.799 101.752 177.799 95.4324 Q177.799 89.113 173.707 85.4267 Q169.616 81.7404 162.608 81.7404 Q159.326 81.7404 156.045 82.4695 Q152.805 83.1987 149.402 84.738 L149.402 54.3562 Z" fill="#000000" fill-rule="nonzero" fill-opacity="1" /><path clip-path="url(#clip720)" d="M200.038 54.3562 L238.927 54.3562 L238.927 57.84 L216.971 114.836 L208.423 114.836 L229.083 61.2428 L200.038 61.2428 L200.038 54.3562 Z" fill="#000000" fill-rule="nonzero" fill-opacity="1" /><path clip-path="url(#clip720)" d="M254.968 54.3562 L287.092 54.3562 L287.092 61.2428 L262.462 61.2428 L262.462 76.0691 Q264.245 75.4614 266.027 75.1779 Q267.81 74.8538 269.592 74.8538 Q279.719 74.8538 285.634 80.4036 Q291.548 85.9533 291.548 95.4324 Q291.548 105.195 285.472 110.623 Q279.395 116.011 268.336 116.011 Q264.528 116.011 260.559 115.363 Q256.629 114.715 252.416 113.418 L252.416 105.195 Q256.062 107.18 259.951 108.152 Q263.84 109.124 268.174 109.124 Q275.182 109.124 279.274 105.438 Q283.365 101.752 283.365 95.4324 Q283.365 89.113 279.274 85.4267 Q275.182 81.7404 268.174 81.7404 Q264.893 81.7404 261.612 82.4695 Q258.371 83.1987 254.968 84.738 L254.968 54.3562 Z" fill="#000000" fill-rule="nonzero" fill-opacity="1" /><path clip-path="url(#clip720)" d="M9.96423 1303.14 L20.2246 1303.14 Q17.36 1309.13 15.9538 1314.45 Q14.5475 1319.76 14.5475 1324.71 Q14.5475 1333.3 17.8809 1337.99 Q21.2142 1342.62 27.36 1342.62 Q32.5162 1342.62 35.1724 1339.55 Q37.7766 1336.43 39.3912 1327.78 L40.6932 1321.43 Q42.9328 1309.65 48.6099 1304.08 Q54.2348 1298.46 63.7139 1298.46 Q75.016 1298.46 80.8493 1306.06 Q86.6826 1313.61 86.6826 1328.25 Q86.6826 1333.77 85.4326 1340.02 Q84.1826 1346.22 81.7347 1352.88 L70.9014 1352.88 Q74.4951 1346.48 76.318 1340.33 Q78.1409 1334.19 78.1409 1328.25 Q78.1409 1319.24 74.5993 1314.34 Q71.0576 1309.45 64.4952 1309.45 Q58.766 1309.45 55.5369 1312.99 Q52.3078 1316.48 50.6932 1324.5 L49.4432 1330.9 Q47.0994 1342.68 42.0995 1347.94 Q37.0995 1353.2 28.1933 1353.2 Q17.8809 1353.2 11.9434 1345.96 Q6.00592 1338.67 6.00592 1325.9 Q6.00592 1320.44 6.99549 1314.76 Q7.98507 1309.08 9.96423 1303.14 Z" fill="#000000" fill-rule="nonzero" fill-opacity="1" /><path clip-path="url(#clip720)" d="M17.7767 1254.08 L56.4744 1268.35 L56.4744 1239.76 L17.7767 1254.08 M7.41216 1260.02 L7.41216 1248.09 L85.1722 1218.46 L85.1722 1229.39 L65.2243 1236.48 L65.2243 1271.53 L85.1722 1278.61 L85.1722 1289.71 L7.41216 1260.02 Z" fill="#000000" fill-rule="nonzero" fill-opacity="1" /><path clip-path="url(#clip720)" d="M7.41216 1226.17 L7.41216 1160.38 L16.2663 1160.38 L16.2663 1187.99 L85.1722 1187.99 L85.1722 1198.56 L16.2663 1198.56 L16.2663 1226.17 L7.41216 1226.17 Z" fill="#000000" fill-rule="nonzero" fill-opacity="1" /><path clip-path="url(#clip720)" d="M17.7767 1090.33 L56.4744 1104.6 L56.4744 1076.01 L17.7767 1090.33 M7.41216 1096.27 L7.41216 1084.34 L85.1722 1054.71 L85.1722 1065.65 L65.2243 1072.73 L65.2243 1107.78 L85.1722 1114.86 L85.1722 1125.96 L7.41216 1096.27 Z" fill="#000000" fill-rule="nonzero" fill-opacity="1" /><path clip-path="url(#clip720)" d="M26.8391 1056.9 L26.8391 1046.74 L75.7972 1028.51 L26.8391 1010.28 L26.8391 1000.13 L85.1722 1022 L85.1722 1035.02 L26.8391 1056.9 Z" fill="#000000" fill-rule="nonzero" fill-opacity="1" /><path clip-path="url(#clip720)" d="M53.6098 937.001 L58.2973 937.001 L58.2973 981.063 Q68.1931 980.438 73.4014 975.125 Q78.5576 969.761 78.5576 960.23 Q78.5576 954.709 77.2035 949.553 Q75.8493 944.344 73.141 939.24 L82.2034 939.24 Q84.3909 944.396 85.5367 949.813 Q86.6826 955.23 86.6826 960.802 Q86.6826 974.761 78.5576 982.938 Q70.4327 991.063 56.5786 991.063 Q42.2557 991.063 33.8703 983.354 Q25.4329 975.594 25.4329 962.469 Q25.4329 950.698 33.037 943.875 Q40.5891 937.001 53.6098 937.001 M50.7973 946.584 Q42.9328 946.688 38.2453 951.011 Q33.5579 955.282 33.5579 962.365 Q33.5579 970.386 38.0891 975.229 Q42.6203 980.021 50.8494 980.75 L50.7973 946.584 Z" fill="#000000" fill-rule="nonzero" fill-opacity="1" /><path clip-path="url(#clip720)" d="M35.7974 887.47 Q34.8599 889.084 34.4433 891.011 Q33.9745 892.886 33.9745 895.178 Q33.9745 903.303 39.287 907.678 Q44.5474 912.001 54.4432 912.001 L85.1722 912.001 L85.1722 921.636 L26.8391 921.636 L26.8391 912.001 L35.9016 912.001 Q30.5891 908.98 28.037 904.136 Q25.4329 899.292 25.4329 892.365 Q25.4329 891.376 25.5891 890.178 Q25.6933 888.98 25.9537 887.522 L35.7974 887.47 Z" fill="#000000" fill-rule="nonzero" fill-opacity="1" /><path clip-path="url(#clip720)" d="M55.8494 850.907 Q55.8494 862.522 58.5056 867.001 Q61.1619 871.48 67.5681 871.48 Q72.6722 871.48 75.693 868.147 Q78.6618 864.761 78.6618 858.98 Q78.6618 851.011 73.0368 846.22 Q67.3598 841.376 57.9848 841.376 L55.8494 841.376 L55.8494 850.907 M51.8911 831.793 L85.1722 831.793 L85.1722 841.376 L76.318 841.376 Q81.6305 844.657 84.1826 849.553 Q86.6826 854.449 86.6826 861.532 Q86.6826 870.49 81.6826 875.803 Q76.6305 881.063 68.1931 881.063 Q58.3494 881.063 53.3494 874.501 Q48.3494 867.886 48.3494 854.813 L48.3494 841.376 L47.4119 841.376 Q40.7974 841.376 37.2037 845.751 Q33.5579 850.074 33.5579 857.938 Q33.5579 862.938 34.7558 867.678 Q35.9537 872.418 38.3495 876.793 L29.4954 876.793 Q27.4641 871.532 26.4746 866.584 Q25.4329 861.636 25.4329 856.949 Q25.4329 844.293 31.9954 838.043 Q38.5578 831.793 51.8911 831.793 Z" fill="#000000" fill-rule="nonzero" fill-opacity="1" /><path clip-path="url(#clip720)" d="M55.3286 773.668 Q44.912 773.668 39.1828 777.991 Q33.4537 782.262 33.4537 790.022 Q33.4537 797.73 39.1828 802.053 Q44.912 806.324 55.3286 806.324 Q65.6931 806.324 71.4222 802.053 Q77.1514 797.73 77.1514 790.022 Q77.1514 782.262 71.4222 777.991 Q65.6931 773.668 55.3286 773.668 M77.9326 764.085 Q92.8284 764.085 100.068 770.699 Q107.36 777.314 107.36 790.96 Q107.36 796.012 106.578 800.491 Q105.849 804.97 104.287 809.189 L94.9638 809.189 Q97.2554 804.97 98.3492 800.855 Q99.4429 796.741 99.4429 792.47 Q99.4429 783.043 94.495 778.356 Q89.5992 773.668 79.6514 773.668 L74.9118 773.668 Q80.068 776.637 82.6201 781.272 Q85.1722 785.908 85.1722 792.366 Q85.1722 803.095 76.9951 809.657 Q68.8181 816.22 55.3286 816.22 Q41.787 816.22 33.6099 809.657 Q25.4329 803.095 25.4329 792.366 Q25.4329 785.908 27.985 781.272 Q30.537 776.637 35.6933 773.668 L26.8391 773.668 L26.8391 764.085 L77.9326 764.085 Z" fill="#000000" fill-rule="nonzero" fill-opacity="1" /><path clip-path="url(#clip720)" d="M53.6098 694.45 L58.2973 694.45 L58.2973 738.512 Q68.1931 737.887 73.4014 732.575 Q78.5576 727.21 78.5576 717.679 Q78.5576 712.158 77.2035 707.002 Q75.8493 701.793 73.141 696.689 L82.2034 696.689 Q84.3909 701.846 85.5367 707.262 Q86.6826 712.679 86.6826 718.252 Q86.6826 732.21 78.5576 740.387 Q70.4327 748.512 56.5786 748.512 Q42.2557 748.512 33.8703 740.804 Q25.4329 733.043 25.4329 719.918 Q25.4329 708.148 33.037 701.325 Q40.5891 694.45 53.6098 694.45 M50.7973 704.033 Q42.9328 704.137 38.2453 708.46 Q33.5579 712.731 33.5579 719.814 Q33.5579 727.835 38.0891 732.679 Q42.6203 737.47 50.8494 738.2 L50.7973 704.033 Z" fill="#000000" fill-rule="nonzero" fill-opacity="1" /><path clip-path="url(#clip720)" d="M7.41216 644.398 L7.41216 628.721 L60.3285 608.877 L7.41216 588.929 L7.41216 573.252 L85.1722 573.252 L85.1722 583.513 L16.8913 583.513 L70.2243 603.565 L70.2243 614.138 L16.8913 634.19 L85.1722 634.19 L85.1722 644.398 L7.41216 644.398 Z" fill="#000000" fill-rule="nonzero" fill-opacity="1" /><path clip-path="url(#clip720)" d="M55.8494 526.274 Q55.8494 537.888 58.5056 542.367 Q61.1619 546.846 67.5681 546.846 Q72.6722 546.846 75.693 543.513 Q78.6618 540.128 78.6618 534.346 Q78.6618 526.378 73.0368 521.586 Q67.3598 516.742 57.9848 516.742 L55.8494 516.742 L55.8494 526.274 M51.8911 507.159 L85.1722 507.159 L85.1722 516.742 L76.318 516.742 Q81.6305 520.024 84.1826 524.919 Q86.6826 529.815 86.6826 536.899 Q86.6826 545.857 81.6826 551.169 Q76.6305 556.43 68.1931 556.43 Q58.3494 556.43 53.3494 549.867 Q48.3494 543.253 48.3494 530.18 L48.3494 516.742 L47.4119 516.742 Q40.7974 516.742 37.2037 521.117 Q33.5579 525.44 33.5579 533.305 Q33.5579 538.305 34.7558 543.044 Q35.9537 547.784 38.3495 552.159 L29.4954 552.159 Q27.4641 546.898 26.4746 541.951 Q25.4329 537.003 25.4329 532.315 Q25.4329 519.659 31.9954 513.409 Q38.5578 507.159 51.8911 507.159 Z" fill="#000000" fill-rule="nonzero" fill-opacity="1" /><path clip-path="url(#clip720)" d="M10.2767 477.94 L26.8391 477.94 L26.8391 458.201 L34.287 458.201 L34.287 477.94 L65.9535 477.94 Q73.0889 477.94 75.1201 476.013 Q77.1514 474.034 77.1514 468.045 L77.1514 458.201 L85.1722 458.201 L85.1722 468.045 Q85.1722 479.138 81.0576 483.357 Q76.891 487.576 65.9535 487.576 L34.287 487.576 L34.287 494.607 L26.8391 494.607 L26.8391 487.576 L10.2767 487.576 L10.2767 477.94 Z" fill="#000000" fill-rule="nonzero" fill-opacity="1" /><path clip-path="url(#clip720)" d="M49.964 397.108 L85.1722 397.108 L85.1722 406.691 L50.2765 406.691 Q41.9953 406.691 37.8807 409.92 Q33.7662 413.149 33.7662 419.607 Q33.7662 427.368 38.7141 431.847 Q43.662 436.326 52.2036 436.326 L85.1722 436.326 L85.1722 445.961 L4.13093 445.961 L4.13093 436.326 L35.9016 436.326 Q30.6412 432.889 28.037 428.253 Q25.4329 423.566 25.4329 417.472 Q25.4329 407.42 31.6829 402.264 Q37.8807 397.108 49.964 397.108 Z" fill="#000000" fill-rule="nonzero" fill-opacity="1" /><path clip-path="url(#clip720)" d="M9.96423 297.056 L20.2246 297.056 Q17.36 303.046 15.9538 308.358 Q14.5475 313.671 14.5475 318.618 Q14.5475 327.212 17.8809 331.9 Q21.2142 336.535 27.36 336.535 Q32.5162 336.535 35.1724 333.462 Q37.7766 330.337 39.3912 321.691 L40.6932 315.337 Q42.9328 303.566 48.6099 297.994 Q54.2348 292.369 63.7139 292.369 Q75.016 292.369 80.8493 299.973 Q86.6826 307.525 86.6826 322.16 Q86.6826 327.681 85.4326 333.931 Q84.1826 340.129 81.7347 346.795 L70.9014 346.795 Q74.4951 340.389 76.318 334.243 Q78.1409 328.098 78.1409 322.16 Q78.1409 313.15 74.5993 308.254 Q71.0576 303.358 64.4952 303.358 Q58.766 303.358 55.5369 306.9 Q52.3078 310.389 50.6932 318.41 L49.4432 324.816 Q47.0994 336.587 42.0995 341.847 Q37.0995 347.108 28.1933 347.108 Q17.8809 347.108 11.9434 339.868 Q6.00592 332.577 6.00592 319.816 Q6.00592 314.348 6.99549 308.671 Q7.98507 302.994 9.96423 297.056 Z" fill="#000000" fill-rule="nonzero" fill-opacity="1" /><path clip-path="url(#clip720)" d="M29.0787 234.4 L38.037 234.4 Q35.7974 238.463 34.7037 242.577 Q33.5579 246.64 33.5579 250.806 Q33.5579 260.129 39.4953 265.285 Q45.3807 270.442 56.0577 270.442 Q66.7348 270.442 72.6722 265.285 Q78.5576 260.129 78.5576 250.806 Q78.5576 246.64 77.4639 242.577 Q76.318 238.463 74.0785 234.4 L82.9326 234.4 Q84.8076 238.411 85.7451 242.733 Q86.6826 247.004 86.6826 251.848 Q86.6826 265.025 78.4014 272.785 Q70.1202 280.546 56.0577 280.546 Q41.787 280.546 33.6099 272.733 Q25.4329 264.869 25.4329 251.223 Q25.4329 246.796 26.3704 242.577 Q27.2558 238.358 29.0787 234.4 Z" fill="#000000" fill-rule="nonzero" fill-opacity="1" /><path clip-path="url(#clip720)" d="M33.5579 195.13 Q33.5579 202.838 39.5995 207.317 Q45.589 211.796 56.0577 211.796 Q66.5264 211.796 72.5681 207.369 Q78.5576 202.89 78.5576 195.13 Q78.5576 187.473 72.516 182.994 Q66.4743 178.515 56.0577 178.515 Q45.6932 178.515 39.6516 182.994 Q33.5579 187.473 33.5579 195.13 M25.4329 195.13 Q25.4329 182.63 33.5579 175.494 Q41.6828 168.359 56.0577 168.359 Q70.3806 168.359 78.5576 175.494 Q86.6826 182.63 86.6826 195.13 Q86.6826 207.682 78.5576 214.817 Q70.3806 221.9 56.0577 221.9 Q41.6828 221.9 33.5579 214.817 Q25.4329 207.682 25.4329 195.13 Z" fill="#000000" fill-rule="nonzero" fill-opacity="1" /><path clip-path="url(#clip720)" d="M35.7974 118.672 Q34.8599 120.286 34.4433 122.213 Q33.9745 124.088 33.9745 126.38 Q33.9745 134.505 39.287 138.88 Q44.5474 143.203 54.4432 143.203 L85.1722 143.203 L85.1722 152.838 L26.8391 152.838 L26.8391 143.203 L35.9016 143.203 Q30.5891 140.182 28.037 135.338 Q25.4329 130.494 25.4329 123.567 Q25.4329 122.578 25.5891 121.38 Q25.6933 120.182 25.9537 118.724 L35.7974 118.672 Z" fill="#000000" fill-rule="nonzero" fill-opacity="1" /><path clip-path="url(#clip720)" d="M53.6098 61.0677 L58.2973 61.0677 L58.2973 105.13 Q68.1931 104.505 73.4014 99.1925 Q78.5576 93.828 78.5576 84.2968 Q78.5576 78.776 77.2035 73.6197 Q75.8493 68.4114 73.141 63.3073 L82.2034 63.3073 Q84.3909 68.4635 85.5367 73.8802 Q86.6826 79.2968 86.6826 84.8697 Q86.6826 98.8279 78.5576 107.005 Q70.4327 115.13 56.5786 115.13 Q42.2557 115.13 33.8703 107.422 Q25.4329 99.6613 25.4329 86.5363 Q25.4329 74.7656 33.037 67.9427 Q40.5891 61.0677 53.6098 61.0677 M50.7973 70.651 Q42.9328 70.7552 38.2453 75.0781 Q33.5579 79.3489 33.5579 86.4322 Q33.5579 94.453 38.0891 99.2967 Q42.6203 104.088 50.8494 104.817 L50.7973 70.651 Z" fill="#000000" fill-rule="nonzero" fill-opacity="1" /><circle clip-path="url(#clip721)" cx="384.865" cy="1064.05" r="21.6" fill="#009af9" fill-rule="evenodd" fill-opacity="1" stroke="none"/>
<circle clip-path="url(#clip721)" cx="551.002" cy="997.649" r="21.6" fill="#009af9" fill-rule="evenodd" fill-opacity="1" stroke="none"/>
<circle clip-path="url(#clip721)" cx="717.139" cy="922.944" r="21.6" fill="#009af9" fill-rule="evenodd" fill-opacity="1" stroke="none"/>
<circle clip-path="url(#clip721)" cx="883.276" cy="806.738" r="21.6" fill="#009af9" fill-rule="evenodd" fill-opacity="1" stroke="none"/>
<circle clip-path="url(#clip721)" cx="1049.41" cy="698.831" r="21.6" fill="#009af9" fill-rule="evenodd" fill-opacity="1" stroke="none"/>
<circle clip-path="url(#clip721)" cx="1215.55" cy="632.428" r="21.6" fill="#009af9" fill-rule="evenodd" fill-opacity="1" stroke="none"/>
<circle clip-path="url(#clip721)" cx="1381.69" cy="582.625" r="21.6" fill="#009af9" fill-rule="evenodd" fill-opacity="1" stroke="none"/>
<circle clip-path="url(#clip721)" cx="1547.82" cy="532.822" r="21.6" fill="#009af9" fill-rule="evenodd" fill-opacity="1" stroke="none"/>
<circle clip-path="url(#clip721)" cx="1797.03" cy="424.916" r="21.6" fill="#009af9" fill-rule="evenodd" fill-opacity="1" stroke="none"/>
<circle clip-path="url(#clip721)" cx="2295.44" cy="175.901" r="21.6" fill="#009af9" fill-rule="evenodd" fill-opacity="1" stroke="none"/>
<path clip-path="url(#clip720)" d="M1874.26 1323.03 L2285.25 1323.03 L2285.25 1115.67 L1874.26 1115.67  Z" fill="#ffffff" fill-rule="evenodd" fill-opacity="1"/>
<polyline clip-path="url(#clip720)" style="stroke:#000000; stroke-linecap:round; stroke-linejoin:round; stroke-width:4; stroke-opacity:1; fill:none" points="1874.26,1323.03 2285.25,1323.03 2285.25,1115.67 1874.26,1115.67 1874.26,1323.03 "/>
<circle clip-path="url(#clip720)" cx="1964.27" cy="1219.35" r="42.5354" fill="#009af9" fill-rule="evenodd" fill-opacity="1" stroke="none"/>
<path clip-path="url(#clip720)" d="M2063.63 1192.47 L2063.63 1246.22 L2074.92 1246.22 Q2089.23 1246.22 2095.85 1239.74 Q2102.52 1233.26 2102.52 1219.28 Q2102.52 1205.39 2095.85 1198.95 Q2089.23 1192.47 2074.92 1192.47 L2063.63 1192.47 M2054.28 1184.79 L2073.49 1184.79 Q2093.58 1184.79 2102.98 1193.17 Q2112.38 1201.5 2112.38 1219.28 Q2112.38 1237.15 2102.93 1245.53 Q2093.49 1253.91 2073.49 1253.91 L2054.28 1253.91 L2054.28 1184.79 Z" fill="#000000" fill-rule="nonzero" fill-opacity="1" /><path clip-path="url(#clip720)" d="M2150.48 1227.84 Q2140.15 1227.84 2136.17 1230.2 Q2132.19 1232.56 2132.19 1238.26 Q2132.19 1242.8 2135.15 1245.48 Q2138.16 1248.12 2143.3 1248.12 Q2150.39 1248.12 2154.65 1243.12 Q2158.95 1238.07 2158.95 1229.74 L2158.95 1227.84 L2150.48 1227.84 M2167.47 1224.32 L2167.47 1253.91 L2158.95 1253.91 L2158.95 1246.04 Q2156.03 1250.76 2151.68 1253.03 Q2147.33 1255.25 2141.03 1255.25 Q2133.07 1255.25 2128.35 1250.81 Q2123.67 1246.31 2123.67 1238.81 Q2123.67 1230.06 2129.51 1225.62 Q2135.39 1221.18 2147.01 1221.18 L2158.95 1221.18 L2158.95 1220.34 Q2158.95 1214.46 2155.06 1211.27 Q2151.22 1208.03 2144.23 1208.03 Q2139.78 1208.03 2135.57 1209.09 Q2131.36 1210.16 2127.47 1212.29 L2127.47 1204.42 Q2132.15 1202.61 2136.54 1201.73 Q2140.94 1200.81 2145.11 1200.81 Q2156.36 1200.81 2161.91 1206.64 Q2167.47 1212.47 2167.47 1224.32 Z" fill="#000000" fill-rule="nonzero" fill-opacity="1" /><path clip-path="url(#clip720)" d="M2193.44 1187.33 L2193.44 1202.06 L2210.99 1202.06 L2210.99 1208.68 L2193.44 1208.68 L2193.44 1236.82 Q2193.44 1243.17 2195.15 1244.97 Q2196.91 1246.78 2202.24 1246.78 L2210.99 1246.78 L2210.99 1253.91 L2202.24 1253.91 Q2192.38 1253.91 2188.63 1250.25 Q2184.88 1246.55 2184.88 1236.82 L2184.88 1208.68 L2178.63 1208.68 L2178.63 1202.06 L2184.88 1202.06 L2184.88 1187.33 L2193.44 1187.33 Z" fill="#000000" fill-rule="nonzero" fill-opacity="1" /><path clip-path="url(#clip720)" d="M2245.76 1227.84 Q2235.43 1227.84 2231.45 1230.2 Q2227.47 1232.56 2227.47 1238.26 Q2227.47 1242.8 2230.43 1245.48 Q2233.44 1248.12 2238.58 1248.12 Q2245.66 1248.12 2249.92 1243.12 Q2254.23 1238.07 2254.23 1229.74 L2254.23 1227.84 L2245.76 1227.84 M2262.75 1224.32 L2262.75 1253.91 L2254.23 1253.91 L2254.23 1246.04 Q2251.31 1250.76 2246.96 1253.03 Q2242.61 1255.25 2236.31 1255.25 Q2228.35 1255.25 2223.63 1250.81 Q2218.95 1246.31 2218.95 1238.81 Q2218.95 1230.06 2224.78 1225.62 Q2230.66 1221.18 2242.28 1221.18 L2254.23 1221.18 L2254.23 1220.34 Q2254.23 1214.46 2250.34 1211.27 Q2246.5 1208.03 2239.51 1208.03 Q2235.06 1208.03 2230.85 1209.09 Q2226.64 1210.16 2222.75 1212.29 L2222.75 1204.42 Q2227.42 1202.61 2231.82 1201.73 Q2236.22 1200.81 2240.39 1200.81 Q2251.64 1200.81 2257.19 1206.64 Q2262.75 1212.47 2262.75 1224.32 Z" fill="#000000" fill-rule="nonzero" fill-opacity="1" /></svg>
