<?xml version="1.0" encoding="utf-8"?>
<svg xmlns="http://www.w3.org/2000/svg" xmlns:xlink="http://www.w3.org/1999/xlink" width="600" height="400" viewBox="0 0 2400 1600">
<defs>
  <clipPath id="clip620">
    <rect x="0" y="0" width="2400" height="1600"/>
  </clipPath>
</defs>
<path clip-path="url(#clip620)" d="M0 1600 L2400 1600 L2400 0 L0 0  Z" fill="#ffffff" fill-rule="evenodd" fill-opacity="1"/>
<defs>
  <clipPath id="clip621">
    <rect x="192" y="123" width="2161" height="1364"/>
  </clipPath>
</defs>
<path clip-path="url(#clip620)" d="M192.709 1486.45 L2352.76 1486.45 L2352.76 123.472 L192.709 123.472  Z" fill="#ffffff" fill-rule="evenodd" fill-opacity="1"/>
<polyline clip-path="url(#clip621)" style="stroke:#000000; stroke-linecap:round; stroke-linejoin:round; stroke-width:2; stroke-opacity:0.1; fill:none" points="454.115,1486.45 454.115,123.472 "/>
<polyline clip-path="url(#clip621)" style="stroke:#000000; stroke-linecap:round; stroke-linejoin:round; stroke-width:2; stroke-opacity:0.1; fill:none" points="851.696,1486.45 851.696,123.472 "/>
<polyline clip-path="url(#clip621)" style="stroke:#000000; stroke-linecap:round; stroke-linejoin:round; stroke-width:2; stroke-opacity:0.1; fill:none" points="1249.28,1486.45 1249.28,123.472 "/>
<polyline clip-path="url(#clip621)" style="stroke:#000000; stroke-linecap:round; stroke-linejoin:round; stroke-width:2; stroke-opacity:0.1; fill:none" points="1646.86,1486.45 1646.86,123.472 "/>
<polyline clip-path="url(#clip621)" style="stroke:#000000; stroke-linecap:round; stroke-linejoin:round; stroke-width:2; stroke-opacity:0.1; fill:none" points="2044.44,1486.45 2044.44,123.472 "/>
<polyline clip-path="url(#clip621)" style="stroke:#000000; stroke-linecap:round; stroke-linejoin:round; stroke-width:2; stroke-opacity:0.1; fill:none" points="192.709,1306.25 2352.76,1306.25 "/>
<polyline clip-path="url(#clip621)" style="stroke:#000000; stroke-linecap:round; stroke-linejoin:round; stroke-width:2; stroke-opacity:0.1; fill:none" points="192.709,1058.69 2352.76,1058.69 "/>
<polyline clip-path="url(#clip621)" style="stroke:#000000; stroke-linecap:round; stroke-linejoin:round; stroke-width:2; stroke-opacity:0.1; fill:none" points="192.709,811.115 2352.76,811.115 "/>
<polyline clip-path="url(#clip621)" style="stroke:#000000; stroke-linecap:round; stroke-linejoin:round; stroke-width:2; stroke-opacity:0.1; fill:none" points="192.709,563.545 2352.76,563.545 "/>
<polyline clip-path="url(#clip621)" style="stroke:#000000; stroke-linecap:round; stroke-linejoin:round; stroke-width:2; stroke-opacity:0.1; fill:none" points="192.709,315.975 2352.76,315.975 "/>
<polyline clip-path="url(#clip620)" style="stroke:#000000; stroke-linecap:round; stroke-linejoin:round; stroke-width:4; stroke-opacity:1; fill:none" points="192.709,1486.45 2352.76,1486.45 "/>
<polyline clip-path="url(#clip620)" style="stroke:#000000; stroke-linecap:round; stroke-linejoin:round; stroke-width:4; stroke-opacity:1; fill:none" points="454.115,1486.45 454.115,1467.55 "/>
<polyline clip-path="url(#clip620)" style="stroke:#000000; stroke-linecap:round; stroke-linejoin:round; stroke-width:4; stroke-opacity:1; fill:none" points="851.696,1486.45 851.696,1467.55 "/>
<polyline clip-path="url(#clip620)" style="stroke:#000000; stroke-linecap:round; stroke-linejoin:round; stroke-width:4; stroke-opacity:1; fill:none" points="1249.28,1486.45 1249.28,1467.55 "/>
<polyline clip-path="url(#clip620)" style="stroke:#000000; stroke-linecap:round; stroke-linejoin:round; stroke-width:4; stroke-opacity:1; fill:none" points="1646.86,1486.45 1646.86,1467.55 "/>
<polyline clip-path="url(#clip620)" style="stroke:#000000; stroke-linecap:round; stroke-linejoin:round; stroke-width:4; stroke-opacity:1; fill:none" points="2044.44,1486.45 2044.44,1467.55 "/>
<path clip-path="url(#clip620)" d="M416.917 1517.37 Q413.305 1517.37 411.477 1520.93 Q409.671 1524.47 409.671 1531.6 Q409.671 1538.71 411.477 1542.27 Q413.305 1545.82 416.917 1545.82 Q420.551 1545.82 422.356 1542.27 Q424.185 1538.71 424.185 1531.6 Q424.185 1524.47 422.356 1520.93 Q420.551 1517.37 416.917 1517.37 M416.917 1513.66 Q422.727 1513.66 425.782 1518.27 Q428.861 1522.85 428.861 1531.6 Q428.861 1540.33 425.782 1544.94 Q422.727 1549.52 416.917 1549.52 Q411.106 1549.52 408.028 1544.94 Q404.972 1540.33 404.972 1531.6 Q404.972 1522.85 408.028 1518.27 Q411.106 1513.66 416.917 1513.66 Z" fill="#000000" fill-rule="nonzero" fill-opacity="1" /><path clip-path="url(#clip620)" d="M437.078 1542.97 L441.963 1542.97 L441.963 1548.85 L437.078 1548.85 L437.078 1542.97 Z" fill="#000000" fill-rule="nonzero" fill-opacity="1" /><path clip-path="url(#clip620)" d="M462.148 1517.37 Q458.537 1517.37 456.708 1520.93 Q454.902 1524.47 454.902 1531.6 Q454.902 1538.71 456.708 1542.27 Q458.537 1545.82 462.148 1545.82 Q465.782 1545.82 467.588 1542.27 Q469.416 1538.71 469.416 1531.6 Q469.416 1524.47 467.588 1520.93 Q465.782 1517.37 462.148 1517.37 M462.148 1513.66 Q467.958 1513.66 471.013 1518.27 Q474.092 1522.85 474.092 1531.6 Q474.092 1540.33 471.013 1544.94 Q467.958 1549.52 462.148 1549.52 Q456.338 1549.52 453.259 1544.94 Q450.203 1540.33 450.203 1531.6 Q450.203 1522.85 453.259 1518.27 Q456.338 1513.66 462.148 1513.66 Z" fill="#000000" fill-rule="nonzero" fill-opacity="1" /><path clip-path="url(#clip620)" d="M482.356 1514.29 L500.712 1514.29 L500.712 1518.22 L486.638 1518.22 L486.638 1526.7 Q487.657 1526.35 488.675 1526.19 Q489.694 1526 490.712 1526 Q496.499 1526 499.879 1529.17 Q503.259 1532.34 503.259 1537.76 Q503.259 1543.34 499.786 1546.44 Q496.314 1549.52 489.995 1549.52 Q487.819 1549.52 485.55 1549.15 Q483.305 1548.78 480.898 1548.04 L480.898 1543.34 Q482.981 1544.47 485.203 1545.03 Q487.425 1545.58 489.902 1545.58 Q493.907 1545.58 496.245 1543.48 Q498.583 1541.37 498.583 1537.76 Q498.583 1534.15 496.245 1532.04 Q493.907 1529.94 489.902 1529.94 Q488.027 1529.94 486.152 1530.35 Q484.3 1530.77 482.356 1531.65 L482.356 1514.29 Z" fill="#000000" fill-rule="nonzero" fill-opacity="1" /><path clip-path="url(#clip620)" d="M814 1517.37 Q810.388 1517.37 808.56 1520.93 Q806.754 1524.47 806.754 1531.6 Q806.754 1538.71 808.56 1542.27 Q810.388 1545.82 814 1545.82 Q817.634 1545.82 819.439 1542.27 Q821.268 1538.71 821.268 1531.6 Q821.268 1524.47 819.439 1520.93 Q817.634 1517.37 814 1517.37 M814 1513.66 Q819.81 1513.66 822.865 1518.27 Q825.944 1522.85 825.944 1531.6 Q825.944 1540.33 822.865 1544.94 Q819.81 1549.52 814 1549.52 Q808.189 1549.52 805.111 1544.94 Q802.055 1540.33 802.055 1531.6 Q802.055 1522.85 805.111 1518.27 Q808.189 1513.66 814 1513.66 Z" fill="#000000" fill-rule="nonzero" fill-opacity="1" /><path clip-path="url(#clip620)" d="M834.161 1542.97 L839.046 1542.97 L839.046 1548.85 L834.161 1548.85 L834.161 1542.97 Z" fill="#000000" fill-rule="nonzero" fill-opacity="1" /><path clip-path="url(#clip620)" d="M850.041 1544.91 L857.68 1544.91 L857.68 1518.55 L849.37 1520.21 L849.37 1515.95 L857.634 1514.29 L862.309 1514.29 L862.309 1544.91 L869.948 1544.91 L869.948 1548.85 L850.041 1548.85 L850.041 1544.91 Z" fill="#000000" fill-rule="nonzero" fill-opacity="1" /><path clip-path="url(#clip620)" d="M889.393 1517.37 Q885.782 1517.37 883.953 1520.93 Q882.147 1524.47 882.147 1531.6 Q882.147 1538.71 883.953 1542.27 Q885.782 1545.82 889.393 1545.82 Q893.027 1545.82 894.832 1542.27 Q896.661 1538.71 896.661 1531.6 Q896.661 1524.47 894.832 1520.93 Q893.027 1517.37 889.393 1517.37 M889.393 1513.66 Q895.203 1513.66 898.258 1518.27 Q901.337 1522.85 901.337 1531.6 Q901.337 1540.33 898.258 1544.94 Q895.203 1549.52 889.393 1549.52 Q883.583 1549.52 880.504 1544.94 Q877.448 1540.33 877.448 1531.6 Q877.448 1522.85 880.504 1518.27 Q883.583 1513.66 889.393 1513.66 Z" fill="#000000" fill-rule="nonzero" fill-opacity="1" /><path clip-path="url(#clip620)" d="M1212.08 1517.37 Q1208.47 1517.37 1206.64 1520.93 Q1204.83 1524.47 1204.83 1531.6 Q1204.83 1538.71 1206.64 1542.27 Q1208.47 1545.82 1212.08 1545.82 Q1215.71 1545.82 1217.52 1542.27 Q1219.35 1538.71 1219.35 1531.6 Q1219.35 1524.47 1217.52 1520.93 Q1215.71 1517.37 1212.08 1517.37 M1212.08 1513.66 Q1217.89 1513.66 1220.94 1518.27 Q1224.02 1522.85 1224.02 1531.6 Q1224.02 1540.33 1220.94 1544.94 Q1217.89 1549.52 1212.08 1549.52 Q1206.27 1549.52 1203.19 1544.94 Q1200.13 1540.33 1200.13 1531.6 Q1200.13 1522.85 1203.19 1518.27 Q1206.27 1513.66 1212.08 1513.66 Z" fill="#000000" fill-rule="nonzero" fill-opacity="1" /><path clip-path="url(#clip620)" d="M1232.24 1542.97 L1237.12 1542.97 L1237.12 1548.85 L1232.24 1548.85 L1232.24 1542.97 Z" fill="#000000" fill-rule="nonzero" fill-opacity="1" /><path clip-path="url(#clip620)" d="M1248.12 1544.91 L1255.76 1544.91 L1255.76 1518.55 L1247.45 1520.21 L1247.45 1515.95 L1255.71 1514.29 L1260.39 1514.29 L1260.39 1544.91 L1268.03 1544.91 L1268.03 1548.85 L1248.12 1548.85 L1248.12 1544.91 Z" fill="#000000" fill-rule="nonzero" fill-opacity="1" /><path clip-path="url(#clip620)" d="M1277.52 1514.29 L1295.87 1514.29 L1295.87 1518.22 L1281.8 1518.22 L1281.8 1526.7 Q1282.82 1526.35 1283.84 1526.19 Q1284.86 1526 1285.87 1526 Q1291.66 1526 1295.04 1529.17 Q1298.42 1532.34 1298.42 1537.76 Q1298.42 1543.34 1294.95 1546.44 Q1291.48 1549.52 1285.16 1549.52 Q1282.98 1549.52 1280.71 1549.15 Q1278.47 1548.78 1276.06 1548.04 L1276.06 1543.34 Q1278.14 1544.47 1280.36 1545.03 Q1282.59 1545.58 1285.06 1545.58 Q1289.07 1545.58 1291.41 1543.48 Q1293.74 1541.37 1293.74 1537.76 Q1293.74 1534.15 1291.41 1532.04 Q1289.07 1529.94 1285.06 1529.94 Q1283.19 1529.94 1281.31 1530.35 Q1279.46 1530.77 1277.52 1531.65 L1277.52 1514.29 Z" fill="#000000" fill-rule="nonzero" fill-opacity="1" /><path clip-path="url(#clip620)" d="M1609.16 1517.37 Q1605.55 1517.37 1603.72 1520.93 Q1601.92 1524.47 1601.92 1531.6 Q1601.92 1538.71 1603.72 1542.27 Q1605.55 1545.82 1609.16 1545.82 Q1612.8 1545.82 1614.6 1542.27 Q1616.43 1538.71 1616.43 1531.6 Q1616.43 1524.47 1614.6 1520.93 Q1612.8 1517.37 1609.16 1517.37 M1609.16 1513.66 Q1614.97 1513.66 1618.03 1518.27 Q1621.11 1522.85 1621.11 1531.6 Q1621.11 1540.33 1618.03 1544.94 Q1614.97 1549.52 1609.16 1549.52 Q1603.35 1549.52 1600.27 1544.94 Q1597.22 1540.33 1597.22 1531.6 Q1597.22 1522.85 1600.27 1518.27 Q1603.35 1513.66 1609.16 1513.66 Z" fill="#000000" fill-rule="nonzero" fill-opacity="1" /><path clip-path="url(#clip620)" d="M1629.32 1542.97 L1634.21 1542.97 L1634.21 1548.85 L1629.32 1548.85 L1629.32 1542.97 Z" fill="#000000" fill-rule="nonzero" fill-opacity="1" /><path clip-path="url(#clip620)" d="M1648.42 1544.91 L1664.74 1544.91 L1664.74 1548.85 L1642.79 1548.85 L1642.79 1544.91 Q1645.46 1542.16 1650.04 1537.53 Q1654.65 1532.88 1655.83 1531.53 Q1658.07 1529.01 1658.95 1527.27 Q1659.86 1525.51 1659.86 1523.82 Q1659.86 1521.07 1657.91 1519.33 Q1655.99 1517.6 1652.89 1517.6 Q1650.69 1517.6 1648.23 1518.36 Q1645.8 1519.13 1643.03 1520.68 L1643.03 1515.95 Q1645.85 1514.82 1648.3 1514.24 Q1650.76 1513.66 1652.79 1513.66 Q1658.17 1513.66 1661.36 1516.35 Q1664.55 1519.03 1664.55 1523.52 Q1664.55 1525.65 1663.74 1527.57 Q1662.96 1529.47 1660.85 1532.07 Q1660.27 1532.74 1657.17 1535.95 Q1654.07 1539.15 1648.42 1544.91 Z" fill="#000000" fill-rule="nonzero" fill-opacity="1" /><path clip-path="url(#clip620)" d="M1684.55 1517.37 Q1680.94 1517.37 1679.11 1520.93 Q1677.31 1524.47 1677.31 1531.6 Q1677.31 1538.71 1679.11 1542.27 Q1680.94 1545.82 1684.55 1545.82 Q1688.19 1545.82 1689.99 1542.27 Q1691.82 1538.71 1691.82 1531.6 Q1691.82 1524.47 1689.99 1520.93 Q1688.19 1517.37 1684.55 1517.37 M1684.55 1513.66 Q1690.36 1513.66 1693.42 1518.27 Q1696.5 1522.85 1696.5 1531.6 Q1696.5 1540.33 1693.42 1544.94 Q1690.36 1549.52 1684.55 1549.52 Q1678.74 1549.52 1675.67 1544.94 Q1672.61 1540.33 1672.61 1531.6 Q1672.61 1522.85 1675.67 1518.27 Q1678.74 1513.66 1684.55 1513.66 Z" fill="#000000" fill-rule="nonzero" fill-opacity="1" /><path clip-path="url(#clip620)" d="M2007.24 1517.37 Q2003.63 1517.37 2001.8 1520.93 Q1999.99 1524.47 1999.99 1531.6 Q1999.99 1538.71 2001.8 1542.27 Q2003.63 1545.82 2007.24 1545.82 Q2010.87 1545.82 2012.68 1542.27 Q2014.51 1538.71 2014.51 1531.6 Q2014.51 1524.47 2012.68 1520.93 Q2010.87 1517.37 2007.24 1517.37 M2007.24 1513.66 Q2013.05 1513.66 2016.1 1518.27 Q2019.18 1522.85 2019.18 1531.6 Q2019.18 1540.33 2016.1 1544.94 Q2013.05 1549.52 2007.24 1549.52 Q2001.43 1549.52 1998.35 1544.94 Q1995.29 1540.33 1995.29 1531.6 Q1995.29 1522.85 1998.35 1518.27 Q2001.43 1513.66 2007.24 1513.66 Z" fill="#000000" fill-rule="nonzero" fill-opacity="1" /><path clip-path="url(#clip620)" d="M2027.4 1542.97 L2032.29 1542.97 L2032.29 1548.85 L2027.4 1548.85 L2027.4 1542.97 Z" fill="#000000" fill-rule="nonzero" fill-opacity="1" /><path clip-path="url(#clip620)" d="M2046.5 1544.91 L2062.82 1544.91 L2062.82 1548.85 L2040.87 1548.85 L2040.87 1544.91 Q2043.54 1542.16 2048.12 1537.53 Q2052.73 1532.88 2053.91 1531.53 Q2056.15 1529.01 2057.03 1527.27 Q2057.93 1525.51 2057.93 1523.82 Q2057.93 1521.07 2055.99 1519.33 Q2054.07 1517.6 2050.97 1517.6 Q2048.77 1517.6 2046.31 1518.36 Q2043.88 1519.13 2041.1 1520.68 L2041.1 1515.95 Q2043.93 1514.82 2046.38 1514.24 Q2048.84 1513.66 2050.87 1513.66 Q2056.24 1513.66 2059.44 1516.35 Q2062.63 1519.03 2062.63 1523.52 Q2062.63 1525.65 2061.82 1527.57 Q2061.04 1529.47 2058.93 1532.07 Q2058.35 1532.74 2055.25 1535.95 Q2052.15 1539.15 2046.5 1544.91 Z" fill="#000000" fill-rule="nonzero" fill-opacity="1" /><path clip-path="url(#clip620)" d="M2072.68 1514.29 L2091.04 1514.29 L2091.04 1518.22 L2076.96 1518.22 L2076.96 1526.7 Q2077.98 1526.35 2079 1526.19 Q2080.02 1526 2081.04 1526 Q2086.82 1526 2090.2 1529.17 Q2093.58 1532.34 2093.58 1537.76 Q2093.58 1543.34 2090.11 1546.44 Q2086.64 1549.52 2080.32 1549.52 Q2078.14 1549.52 2075.87 1549.15 Q2073.63 1548.78 2071.22 1548.04 L2071.22 1543.34 Q2073.3 1544.47 2075.53 1545.03 Q2077.75 1545.58 2080.23 1545.58 Q2084.23 1545.58 2086.57 1543.48 Q2088.91 1541.37 2088.91 1537.76 Q2088.91 1534.15 2086.57 1532.04 Q2084.23 1529.94 2080.23 1529.94 Q2078.35 1529.94 2076.48 1530.35 Q2074.62 1530.77 2072.68 1531.65 L2072.68 1514.29 Z" fill="#000000" fill-rule="nonzero" fill-opacity="1" /><polyline clip-path="url(#clip620)" style="stroke:#000000; stroke-linecap:round; stroke-linejoin:round; stroke-width:4; stroke-opacity:1; fill:none" points="192.709,1486.45 192.709,123.472 "/>
<polyline clip-path="url(#clip620)" style="stroke:#000000; stroke-linecap:round; stroke-linejoin:round; stroke-width:4; stroke-opacity:1; fill:none" points="192.709,1306.25 211.607,1306.25 "/>
<polyline clip-path="url(#clip620)" style="stroke:#000000; stroke-linecap:round; stroke-linejoin:round; stroke-width:4; stroke-opacity:1; fill:none" points="192.709,1058.69 211.607,1058.69 "/>
<polyline clip-path="url(#clip620)" style="stroke:#000000; stroke-linecap:round; stroke-linejoin:round; stroke-width:4; stroke-opacity:1; fill:none" points="192.709,811.115 211.607,811.115 "/>
<polyline clip-path="url(#clip620)" style="stroke:#000000; stroke-linecap:round; stroke-linejoin:round; stroke-width:4; stroke-opacity:1; fill:none" points="192.709,563.545 211.607,563.545 "/>
<polyline clip-path="url(#clip620)" style="stroke:#000000; stroke-linecap:round; stroke-linejoin:round; stroke-width:4; stroke-opacity:1; fill:none" points="192.709,315.975 211.607,315.975 "/>
<path clip-path="url(#clip620)" d="M51.3625 1306.71 L81.0383 1306.71 L81.0383 1310.64 L51.3625 1310.64 L51.3625 1306.71 Z" fill="#000000" fill-rule="nonzero" fill-opacity="1" /><path clip-path="url(#clip620)" d="M101.131 1292.05 Q97.5197 1292.05 95.691 1295.62 Q93.8854 1299.16 93.8854 1306.29 Q93.8854 1313.4 95.691 1316.96 Q97.5197 1320.5 101.131 1320.5 Q104.765 1320.5 106.571 1316.96 Q108.399 1313.4 108.399 1306.29 Q108.399 1299.16 106.571 1295.62 Q104.765 1292.05 101.131 1292.05 M101.131 1288.35 Q106.941 1288.35 109.996 1292.96 Q113.075 1297.54 113.075 1306.29 Q113.075 1315.02 109.996 1319.62 Q106.941 1324.21 101.131 1324.21 Q95.3206 1324.21 92.2419 1319.62 Q89.1864 1315.02 89.1864 1306.29 Q89.1864 1297.54 92.2419 1292.96 Q95.3206 1288.35 101.131 1288.35 Z" fill="#000000" fill-rule="nonzero" fill-opacity="1" /><path clip-path="url(#clip620)" d="M121.293 1317.66 L126.177 1317.66 L126.177 1323.53 L121.293 1323.53 L121.293 1317.66 Z" fill="#000000" fill-rule="nonzero" fill-opacity="1" /><path clip-path="url(#clip620)" d="M140.39 1319.6 L156.709 1319.6 L156.709 1323.53 L134.765 1323.53 L134.765 1319.6 Q137.427 1316.85 142.01 1312.22 Q146.617 1307.56 147.797 1306.22 Q150.043 1303.7 150.922 1301.96 Q151.825 1300.2 151.825 1298.51 Q151.825 1295.76 149.88 1294.02 Q147.959 1292.29 144.857 1292.29 Q142.658 1292.29 140.205 1293.05 Q137.774 1293.81 134.996 1295.36 L134.996 1290.64 Q137.82 1289.51 140.274 1288.93 Q142.728 1288.35 144.765 1288.35 Q150.135 1288.35 153.33 1291.04 Q156.524 1293.72 156.524 1298.21 Q156.524 1300.34 155.714 1302.26 Q154.927 1304.16 152.82 1306.75 Q152.242 1307.42 149.14 1310.64 Q146.038 1313.84 140.39 1319.6 Z" fill="#000000" fill-rule="nonzero" fill-opacity="1" /><path clip-path="url(#clip620)" d="M50.9921 1059.14 L80.6679 1059.14 L80.6679 1063.07 L50.9921 1063.07 L50.9921 1059.14 Z" fill="#000000" fill-rule="nonzero" fill-opacity="1" /><path clip-path="url(#clip620)" d="M100.76 1044.48 Q97.1493 1044.48 95.3206 1048.05 Q93.515 1051.59 93.515 1058.72 Q93.515 1065.83 95.3206 1069.39 Q97.1493 1072.93 100.76 1072.93 Q104.395 1072.93 106.2 1069.39 Q108.029 1065.83 108.029 1058.72 Q108.029 1051.59 106.2 1048.05 Q104.395 1044.48 100.76 1044.48 M100.76 1040.78 Q106.571 1040.78 109.626 1045.39 Q112.705 1049.97 112.705 1058.72 Q112.705 1067.45 109.626 1072.05 Q106.571 1076.64 100.76 1076.64 Q94.9502 1076.64 91.8715 1072.05 Q88.816 1067.45 88.816 1058.72 Q88.816 1049.97 91.8715 1045.39 Q94.9502 1040.78 100.76 1040.78 Z" fill="#000000" fill-rule="nonzero" fill-opacity="1" /><path clip-path="url(#clip620)" d="M120.922 1070.09 L125.807 1070.09 L125.807 1075.97 L120.922 1075.97 L120.922 1070.09 Z" fill="#000000" fill-rule="nonzero" fill-opacity="1" /><path clip-path="url(#clip620)" d="M136.802 1072.03 L144.441 1072.03 L144.441 1045.66 L136.131 1047.33 L136.131 1043.07 L144.394 1041.41 L149.07 1041.41 L149.07 1072.03 L156.709 1072.03 L156.709 1075.97 L136.802 1075.97 L136.802 1072.03 Z" fill="#000000" fill-rule="nonzero" fill-opacity="1" /><path clip-path="url(#clip620)" d="M99.5335 796.914 Q95.9224 796.914 94.0937 800.479 Q92.2882 804.02 92.2882 811.15 Q92.2882 818.256 94.0937 821.821 Q95.9224 825.363 99.5335 825.363 Q103.168 825.363 104.973 821.821 Q106.802 818.256 106.802 811.15 Q106.802 804.02 104.973 800.479 Q103.168 796.914 99.5335 796.914 M99.5335 793.21 Q105.344 793.21 108.399 797.817 Q111.478 802.4 111.478 811.15 Q111.478 819.877 108.399 824.483 Q105.344 829.066 99.5335 829.066 Q93.7234 829.066 90.6447 824.483 Q87.5892 819.877 87.5892 811.15 Q87.5892 802.4 90.6447 797.817 Q93.7234 793.21 99.5335 793.21 Z" fill="#000000" fill-rule="nonzero" fill-opacity="1" /><path clip-path="url(#clip620)" d="M119.695 822.516 L124.58 822.516 L124.58 828.395 L119.695 828.395 L119.695 822.516 Z" fill="#000000" fill-rule="nonzero" fill-opacity="1" /><path clip-path="url(#clip620)" d="M144.765 796.914 Q141.154 796.914 139.325 800.479 Q137.519 804.02 137.519 811.15 Q137.519 818.256 139.325 821.821 Q141.154 825.363 144.765 825.363 Q148.399 825.363 150.205 821.821 Q152.033 818.256 152.033 811.15 Q152.033 804.02 150.205 800.479 Q148.399 796.914 144.765 796.914 M144.765 793.21 Q150.575 793.21 153.63 797.817 Q156.709 802.4 156.709 811.15 Q156.709 819.877 153.63 824.483 Q150.575 829.066 144.765 829.066 Q138.955 829.066 135.876 824.483 Q132.82 819.877 132.82 811.15 Q132.82 802.4 135.876 797.817 Q138.955 793.21 144.765 793.21 Z" fill="#000000" fill-rule="nonzero" fill-opacity="1" /><path clip-path="url(#clip620)" d="M100.76 549.344 Q97.1493 549.344 95.3206 552.909 Q93.515 556.45 93.515 563.58 Q93.515 570.686 95.3206 574.251 Q97.1493 577.793 100.76 577.793 Q104.395 577.793 106.2 574.251 Q108.029 570.686 108.029 563.58 Q108.029 556.45 106.2 552.909 Q104.395 549.344 100.76 549.344 M100.76 545.64 Q106.571 545.64 109.626 550.247 Q112.705 554.83 112.705 563.58 Q112.705 572.307 109.626 576.913 Q106.571 581.497 100.76 581.497 Q94.9502 581.497 91.8715 576.913 Q88.816 572.307 88.816 563.58 Q88.816 554.83 91.8715 550.247 Q94.9502 545.64 100.76 545.64 Z" fill="#000000" fill-rule="nonzero" fill-opacity="1" /><path clip-path="url(#clip620)" d="M120.922 574.946 L125.807 574.946 L125.807 580.825 L120.922 580.825 L120.922 574.946 Z" fill="#000000" fill-rule="nonzero" fill-opacity="1" /><path clip-path="url(#clip620)" d="M136.802 576.89 L144.441 576.89 L144.441 550.525 L136.131 552.191 L136.131 547.932 L144.394 546.265 L149.07 546.265 L149.07 576.89 L156.709 576.89 L156.709 580.825 L136.802 580.825 L136.802 576.89 Z" fill="#000000" fill-rule="nonzero" fill-opacity="1" /><path clip-path="url(#clip620)" d="M101.131 301.774 Q97.5197 301.774 95.691 305.339 Q93.8854 308.881 93.8854 316.01 Q93.8854 323.117 95.691 326.681 Q97.5197 330.223 101.131 330.223 Q104.765 330.223 106.571 326.681 Q108.399 323.117 108.399 316.01 Q108.399 308.881 106.571 305.339 Q104.765 301.774 101.131 301.774 M101.131 298.07 Q106.941 298.07 109.996 302.677 Q113.075 307.26 113.075 316.01 Q113.075 324.737 109.996 329.343 Q106.941 333.927 101.131 333.927 Q95.3206 333.927 92.2419 329.343 Q89.1864 324.737 89.1864 316.01 Q89.1864 307.26 92.2419 302.677 Q95.3206 298.07 101.131 298.07 Z" fill="#000000" fill-rule="nonzero" fill-opacity="1" /><path clip-path="url(#clip620)" d="M121.293 327.376 L126.177 327.376 L126.177 333.255 L121.293 333.255 L121.293 327.376 Z" fill="#000000" fill-rule="nonzero" fill-opacity="1" /><path clip-path="url(#clip620)" d="M140.39 329.32 L156.709 329.32 L156.709 333.255 L134.765 333.255 L134.765 329.32 Q137.427 326.566 142.01 321.936 Q146.617 317.283 147.797 315.941 Q150.043 313.418 150.922 311.681 Q151.825 309.922 151.825 308.232 Q151.825 305.478 149.88 303.742 Q147.959 302.006 144.857 302.006 Q142.658 302.006 140.205 302.77 Q137.774 303.533 134.996 305.084 L134.996 300.362 Q137.82 299.228 140.274 298.649 Q142.728 298.07 144.765 298.07 Q150.135 298.07 153.33 300.756 Q156.524 303.441 156.524 307.932 Q156.524 310.061 155.714 311.982 Q154.927 313.881 152.82 316.473 Q152.242 317.144 149.14 320.362 Q146.038 323.556 140.39 329.32 Z" fill="#000000" fill-rule="nonzero" fill-opacity="1" /><path clip-path="url(#clip620)" d="M804.306 14.0809 L804.306 22.0612 Q799.648 19.8332 795.516 18.7395 Q791.384 17.6457 787.535 17.6457 Q780.851 17.6457 777.206 20.2383 Q773.6 22.8309 773.6 27.611 Q773.6 31.6214 775.99 33.6873 Q778.421 35.7128 785.145 36.9686 L790.088 37.9813 Q799.243 39.7232 803.577 44.1387 Q807.952 48.5136 807.952 55.8863 Q807.952 64.6767 802.038 69.2137 Q796.164 73.7508 784.781 73.7508 Q780.487 73.7508 775.626 72.7785 Q770.805 71.8063 765.62 69.9024 L765.62 61.4765 Q770.603 64.2716 775.383 65.6895 Q780.163 67.1073 784.781 67.1073 Q791.789 67.1073 795.597 64.3527 Q799.405 61.598 799.405 56.4939 Q799.405 52.0379 796.65 49.5264 Q793.936 47.0148 787.698 45.759 L782.715 44.7868 Q773.56 42.9639 769.468 39.075 Q765.377 35.1862 765.377 28.2591 Q765.377 20.2383 771.008 15.6203 Q776.679 11.0023 786.604 11.0023 Q790.857 11.0023 795.273 11.7719 Q799.688 12.5416 804.306 14.0809 Z" fill="#000000" fill-rule="nonzero" fill-opacity="1" /><path clip-path="url(#clip620)" d="M827.599 65.7705 L827.599 89.8329 L820.105 89.8329 L820.105 27.2059 L827.599 27.2059 L827.599 34.0924 Q829.948 30.0415 833.513 28.0971 Q837.119 26.1121 842.101 26.1121 Q850.365 26.1121 855.51 32.6746 Q860.695 39.2371 860.695 49.9314 Q860.695 60.6258 855.51 67.1883 Q850.365 73.7508 842.101 73.7508 Q837.119 73.7508 833.513 71.8063 Q829.948 69.8214 827.599 65.7705 M852.958 49.9314 Q852.958 41.7081 849.555 37.0496 Q846.193 32.3505 840.278 32.3505 Q834.364 32.3505 830.961 37.0496 Q827.599 41.7081 827.599 49.9314 Q827.599 58.1548 830.961 62.8538 Q834.364 67.5124 840.278 67.5124 Q846.193 67.5124 849.555 62.8538 Q852.958 58.1548 852.958 49.9314 Z" fill="#000000" fill-rule="nonzero" fill-opacity="1" /><path clip-path="url(#clip620)" d="M911.858 48.0275 L911.858 51.6733 L877.587 51.6733 Q878.073 59.3701 882.205 63.421 Q886.378 67.4314 893.791 67.4314 Q898.085 67.4314 902.095 66.3781 Q906.146 65.3249 910.116 63.2184 L910.116 70.267 Q906.105 71.9684 901.893 72.8596 Q897.68 73.7508 893.345 73.7508 Q882.489 73.7508 876.129 67.4314 Q869.809 61.1119 869.809 50.3365 Q869.809 39.1965 875.805 32.6746 Q881.841 26.1121 892.049 26.1121 Q901.204 26.1121 906.511 32.0264 Q911.858 37.9003 911.858 48.0275 M904.404 45.84 Q904.323 39.7232 900.961 36.0774 Q897.639 32.4315 892.13 32.4315 Q885.891 32.4315 882.124 35.9558 Q878.397 39.4801 877.83 45.8805 L904.404 45.84 Z" fill="#000000" fill-rule="nonzero" fill-opacity="1" /><path clip-path="url(#clip620)" d="M956.742 28.9478 L956.742 35.9153 Q953.582 34.1734 950.382 33.3227 Q947.222 32.4315 943.981 32.4315 Q936.73 32.4315 932.72 37.0496 Q928.709 41.6271 928.709 49.9314 Q928.709 58.2358 932.72 62.8538 Q936.73 67.4314 943.981 67.4314 Q947.222 67.4314 950.382 66.5807 Q953.582 65.6895 956.742 63.9476 L956.742 70.8341 Q953.623 72.2924 950.26 73.0216 Q946.939 73.7508 943.171 73.7508 Q932.922 73.7508 926.887 67.3098 Q920.851 60.8689 920.851 49.9314 Q920.851 38.832 926.927 32.472 Q933.044 26.1121 943.657 26.1121 Q947.101 26.1121 950.382 26.8413 Q953.663 27.5299 956.742 28.9478 Z" fill="#000000" fill-rule="nonzero" fill-opacity="1" /><path clip-path="url(#clip620)" d="M977.077 14.324 L977.077 27.2059 L992.43 27.2059 L992.43 32.9987 L977.077 32.9987 L977.077 57.6282 Q977.077 63.1779 978.576 64.7578 Q980.115 66.3376 984.774 66.3376 L992.43 66.3376 L992.43 72.576 L984.774 72.576 Q976.146 72.576 972.864 69.3758 Q969.583 66.1351 969.583 57.6282 L969.583 32.9987 L964.114 32.9987 L964.114 27.2059 L969.583 27.2059 L969.583 14.324 L977.077 14.324 Z" fill="#000000" fill-rule="nonzero" fill-opacity="1" /><path clip-path="url(#clip620)" d="M1028.52 34.1734 Q1027.27 33.4443 1025.77 33.1202 Q1024.31 32.7556 1022.53 32.7556 Q1016.21 32.7556 1012.81 36.8875 Q1009.44 40.9789 1009.44 48.6757 L1009.44 72.576 L1001.95 72.576 L1001.95 27.2059 L1009.44 27.2059 L1009.44 34.2544 Q1011.79 30.1225 1015.56 28.1376 Q1019.33 26.1121 1024.72 26.1121 Q1025.49 26.1121 1026.42 26.2337 Q1027.35 26.3147 1028.48 26.5172 L1028.52 34.1734 Z" fill="#000000" fill-rule="nonzero" fill-opacity="1" /><path clip-path="url(#clip620)" d="M1056.96 49.7694 Q1047.93 49.7694 1044.44 51.8354 Q1040.96 53.9013 1040.96 58.8839 Q1040.96 62.8538 1043.55 65.2034 Q1046.19 67.5124 1050.68 67.5124 Q1056.88 67.5124 1060.61 63.1374 Q1064.37 58.7219 1064.37 51.4303 L1064.37 49.7694 L1056.96 49.7694 M1071.83 46.6907 L1071.83 72.576 L1064.37 72.576 L1064.37 65.6895 Q1061.82 69.8214 1058.01 71.8063 Q1054.21 73.7508 1048.7 73.7508 Q1041.73 73.7508 1037.6 69.8619 Q1033.51 65.9325 1033.51 59.3701 Q1033.51 51.7138 1038.61 47.825 Q1043.76 43.9361 1053.92 43.9361 L1064.37 43.9361 L1064.37 43.2069 Q1064.37 38.0623 1060.97 35.2672 Q1057.61 32.4315 1051.49 32.4315 Q1047.6 32.4315 1043.92 33.3632 Q1040.23 34.295 1036.83 36.1584 L1036.83 29.2718 Q1040.92 27.692 1044.77 26.9223 Q1048.62 26.1121 1052.26 26.1121 Q1062.11 26.1121 1066.97 31.2163 Q1071.83 36.3204 1071.83 46.6907 Z" fill="#000000" fill-rule="nonzero" fill-opacity="1" /><path clip-path="url(#clip620)" d="M1087.18 9.54393 L1094.63 9.54393 L1094.63 72.576 L1087.18 72.576 L1087.18 9.54393 Z" fill="#000000" fill-rule="nonzero" fill-opacity="1" /><path clip-path="url(#clip620)" d="M1136.93 12.096 L1175.17 12.096 L1175.17 18.9825 L1145.11 18.9825 L1145.11 36.8875 L1173.91 36.8875 L1173.91 43.7741 L1145.11 43.7741 L1145.11 65.6895 L1175.9 65.6895 L1175.9 72.576 L1136.93 72.576 L1136.93 12.096 Z" fill="#000000" fill-rule="nonzero" fill-opacity="1" /><path clip-path="url(#clip620)" d="M1224.34 35.9153 Q1227.14 30.8922 1231.03 28.5022 Q1234.92 26.1121 1240.18 26.1121 Q1247.27 26.1121 1251.12 31.0947 Q1254.97 36.0368 1254.97 45.1919 L1254.97 72.576 L1247.48 72.576 L1247.48 45.4349 Q1247.48 38.913 1245.17 35.7533 Q1242.86 32.5936 1238.12 32.5936 Q1232.32 32.5936 1228.96 36.4419 Q1225.6 40.2903 1225.6 46.9338 L1225.6 72.576 L1218.11 72.576 L1218.11 45.4349 Q1218.11 38.8725 1215.8 35.7533 Q1213.49 32.5936 1208.67 32.5936 Q1202.96 32.5936 1199.59 36.4824 Q1196.23 40.3308 1196.23 46.9338 L1196.23 72.576 L1188.74 72.576 L1188.74 27.2059 L1196.23 27.2059 L1196.23 34.2544 Q1198.78 30.082 1202.35 28.0971 Q1205.91 26.1121 1210.81 26.1121 Q1215.76 26.1121 1219.2 28.6237 Q1222.68 31.1352 1224.34 35.9153 Z" fill="#000000" fill-rule="nonzero" fill-opacity="1" /><path clip-path="url(#clip620)" d="M1302.41 49.9314 Q1302.41 41.7081 1299 37.0496 Q1295.64 32.3505 1289.73 32.3505 Q1283.81 32.3505 1280.41 37.0496 Q1277.05 41.7081 1277.05 49.9314 Q1277.05 58.1548 1280.41 62.8538 Q1283.81 67.5124 1289.73 67.5124 Q1295.64 67.5124 1299 62.8538 Q1302.41 58.1548 1302.41 49.9314 M1277.05 34.0924 Q1279.4 30.0415 1282.96 28.0971 Q1286.57 26.1121 1291.55 26.1121 Q1299.81 26.1121 1304.96 32.6746 Q1310.14 39.2371 1310.14 49.9314 Q1310.14 60.6258 1304.96 67.1883 Q1299.81 73.7508 1291.55 73.7508 Q1286.57 73.7508 1282.96 71.8063 Q1279.4 69.8214 1277.05 65.7705 L1277.05 72.576 L1269.55 72.576 L1269.55 9.54393 L1277.05 9.54393 L1277.05 34.0924 Z" fill="#000000" fill-rule="nonzero" fill-opacity="1" /><path clip-path="url(#clip620)" d="M1361.31 48.0275 L1361.31 51.6733 L1327.03 51.6733 Q1327.52 59.3701 1331.65 63.421 Q1335.83 67.4314 1343.24 67.4314 Q1347.53 67.4314 1351.54 66.3781 Q1355.59 65.3249 1359.56 63.2184 L1359.56 70.267 Q1355.55 71.9684 1351.34 72.8596 Q1347.13 73.7508 1342.79 73.7508 Q1331.94 73.7508 1325.58 67.4314 Q1319.26 61.1119 1319.26 50.3365 Q1319.26 39.1965 1325.25 32.6746 Q1331.29 26.1121 1341.5 26.1121 Q1350.65 26.1121 1355.96 32.0264 Q1361.31 37.9003 1361.31 48.0275 M1353.85 45.84 Q1353.77 39.7232 1350.41 36.0774 Q1347.09 32.4315 1341.58 32.4315 Q1335.34 32.4315 1331.57 35.9558 Q1327.85 39.4801 1327.28 45.8805 L1353.85 45.84 Z" fill="#000000" fill-rule="nonzero" fill-opacity="1" /><path clip-path="url(#clip620)" d="M1403.39 34.0924 L1403.39 9.54393 L1410.85 9.54393 L1410.85 72.576 L1403.39 72.576 L1403.39 65.7705 Q1401.04 69.8214 1397.44 71.8063 Q1393.87 73.7508 1388.85 73.7508 Q1380.63 73.7508 1375.44 67.1883 Q1370.3 60.6258 1370.3 49.9314 Q1370.3 39.2371 1375.44 32.6746 Q1380.63 26.1121 1388.85 26.1121 Q1393.87 26.1121 1397.44 28.0971 Q1401.04 30.0415 1403.39 34.0924 M1378 49.9314 Q1378 58.1548 1381.36 62.8538 Q1384.76 67.5124 1390.67 67.5124 Q1396.59 67.5124 1399.99 62.8538 Q1403.39 58.1548 1403.39 49.9314 Q1403.39 41.7081 1399.99 37.0496 Q1396.59 32.3505 1390.67 32.3505 Q1384.76 32.3505 1381.36 37.0496 Q1378 41.7081 1378 49.9314 Z" fill="#000000" fill-rule="nonzero" fill-opacity="1" /><path clip-path="url(#clip620)" d="M1456.06 34.0924 L1456.06 9.54393 L1463.51 9.54393 L1463.51 72.576 L1456.06 72.576 L1456.06 65.7705 Q1453.71 69.8214 1450.1 71.8063 Q1446.54 73.7508 1441.51 73.7508 Q1433.29 73.7508 1428.1 67.1883 Q1422.96 60.6258 1422.96 49.9314 Q1422.96 39.2371 1428.1 32.6746 Q1433.29 26.1121 1441.51 26.1121 Q1446.54 26.1121 1450.1 28.0971 Q1453.71 30.0415 1456.06 34.0924 M1430.66 49.9314 Q1430.66 58.1548 1434.02 62.8538 Q1437.42 67.5124 1443.34 67.5124 Q1449.25 67.5124 1452.65 62.8538 Q1456.06 58.1548 1456.06 49.9314 Q1456.06 41.7081 1452.65 37.0496 Q1449.25 32.3505 1443.34 32.3505 Q1437.42 32.3505 1434.02 37.0496 Q1430.66 41.7081 1430.66 49.9314 Z" fill="#000000" fill-rule="nonzero" fill-opacity="1" /><path clip-path="url(#clip620)" d="M1478.86 27.2059 L1486.32 27.2059 L1486.32 72.576 L1478.86 72.576 L1478.86 27.2059 M1478.86 9.54393 L1486.32 9.54393 L1486.32 18.9825 L1478.86 18.9825 L1478.86 9.54393 Z" fill="#000000" fill-rule="nonzero" fill-opacity="1" /><path clip-path="url(#clip620)" d="M1539.63 45.1919 L1539.63 72.576 L1532.17 72.576 L1532.17 45.4349 Q1532.17 38.994 1529.66 35.7938 Q1527.15 32.5936 1522.13 32.5936 Q1516.09 32.5936 1512.61 36.4419 Q1509.12 40.2903 1509.12 46.9338 L1509.12 72.576 L1501.63 72.576 L1501.63 27.2059 L1509.12 27.2059 L1509.12 34.2544 Q1511.8 30.163 1515.4 28.1376 Q1519.05 26.1121 1523.79 26.1121 Q1531.61 26.1121 1535.62 30.9732 Q1539.63 35.7938 1539.63 45.1919 Z" fill="#000000" fill-rule="nonzero" fill-opacity="1" /><path clip-path="url(#clip620)" d="M1584.35 49.3643 Q1584.35 41.2625 1580.99 36.8065 Q1577.66 32.3505 1571.63 32.3505 Q1565.63 32.3505 1562.27 36.8065 Q1558.95 41.2625 1558.95 49.3643 Q1558.95 57.4256 1562.27 61.8816 Q1565.63 66.3376 1571.63 66.3376 Q1577.66 66.3376 1580.99 61.8816 Q1584.35 57.4256 1584.35 49.3643 M1591.8 66.9452 Q1591.8 78.5308 1586.66 84.1616 Q1581.51 89.8329 1570.9 89.8329 Q1566.97 89.8329 1563.49 89.2252 Q1560 88.6581 1556.72 87.4428 L1556.72 80.1917 Q1560 81.9741 1563.2 82.8248 Q1566.4 83.6755 1569.72 83.6755 Q1577.06 83.6755 1580.7 79.8271 Q1584.35 76.0193 1584.35 68.282 L1584.35 64.5957 Q1582.04 68.6061 1578.43 70.5911 Q1574.83 72.576 1569.81 72.576 Q1561.46 72.576 1556.36 66.2161 Q1551.25 59.8562 1551.25 49.3643 Q1551.25 38.832 1556.36 32.472 Q1561.46 26.1121 1569.81 26.1121 Q1574.83 26.1121 1578.43 28.0971 Q1582.04 30.082 1584.35 34.0924 L1584.35 27.2059 L1591.8 27.2059 L1591.8 66.9452 Z" fill="#000000" fill-rule="nonzero" fill-opacity="1" /><path clip-path="url(#clip620)" d="M1642.03 18.8205 L1642.03 41.5461 L1652.32 41.5461 Q1658.03 41.5461 1661.15 38.5889 Q1664.27 35.6318 1664.27 30.163 Q1664.27 24.7348 1661.15 21.7777 Q1658.03 18.8205 1652.32 18.8205 L1642.03 18.8205 M1633.85 12.096 L1652.32 12.096 Q1662.49 12.096 1667.68 16.714 Q1672.9 21.2916 1672.9 30.163 Q1672.9 39.1155 1667.68 43.6931 Q1662.49 48.2706 1652.32 48.2706 L1642.03 48.2706 L1642.03 72.576 L1633.85 72.576 L1633.85 12.096 Z" fill="#000000" fill-rule="nonzero" fill-opacity="1" /><path clip-path="url(#clip620)" d="M1683.55 9.54393 L1691.01 9.54393 L1691.01 72.576 L1683.55 72.576 L1683.55 9.54393 Z" fill="#000000" fill-rule="nonzero" fill-opacity="1" /><path clip-path="url(#clip620)" d="M1724.19 32.4315 Q1718.19 32.4315 1714.71 37.1306 Q1711.22 41.7891 1711.22 49.9314 Q1711.22 58.0738 1714.67 62.7728 Q1718.15 67.4314 1724.19 67.4314 Q1730.14 67.4314 1733.62 62.7323 Q1737.11 58.0333 1737.11 49.9314 Q1737.11 41.8701 1733.62 37.1711 Q1730.14 32.4315 1724.19 32.4315 M1724.19 26.1121 Q1733.91 26.1121 1739.46 32.4315 Q1745.01 38.7509 1745.01 49.9314 Q1745.01 61.0714 1739.46 67.4314 Q1733.91 73.7508 1724.19 73.7508 Q1714.42 73.7508 1708.87 67.4314 Q1703.36 61.0714 1703.36 49.9314 Q1703.36 38.7509 1708.87 32.4315 Q1714.42 26.1121 1724.19 26.1121 Z" fill="#000000" fill-rule="nonzero" fill-opacity="1" /><path clip-path="url(#clip620)" d="M1764.74 14.324 L1764.74 27.2059 L1780.09 27.2059 L1780.09 32.9987 L1764.74 32.9987 L1764.74 57.6282 Q1764.74 63.1779 1766.23 64.7578 Q1767.77 66.3376 1772.43 66.3376 L1780.09 66.3376 L1780.09 72.576 L1772.43 72.576 Q1763.8 72.576 1760.52 69.3758 Q1757.24 66.1351 1757.24 57.6282 L1757.24 32.9987 L1751.77 32.9987 L1751.77 27.2059 L1757.24 27.2059 L1757.24 14.324 L1764.74 14.324 Z" fill="#000000" fill-rule="nonzero" fill-opacity="1" /><circle clip-path="url(#clip621)" cx="1368.76" cy="388.663" r="18" fill="#87ceeb" fill-rule="evenodd" fill-opacity="1" stroke="#ffa500" stroke-opacity="1" stroke-width="3.2"/>
<circle clip-path="url(#clip621)" cx="612.716" cy="635.611" r="18" fill="#87ceeb" fill-rule="evenodd" fill-opacity="1" stroke="none"/>
<circle clip-path="url(#clip621)" cx="1296.79" cy="1221.63" r="18" fill="#ffa500" fill-rule="evenodd" fill-opacity="1" stroke="none"/>
<circle clip-path="url(#clip621)" cx="754.665" cy="947.54" r="18" fill="#ffa500" fill-rule="evenodd" fill-opacity="1" stroke="#87ceeb" stroke-opacity="1" stroke-width="3.2"/>
<circle clip-path="url(#clip621)" cx="716.656" cy="616.387" r="18" fill="#87ceeb" fill-rule="evenodd" fill-opacity="1" stroke="#ffa500" stroke-opacity="1" stroke-width="3.2"/>
<circle clip-path="url(#clip621)" cx="607.316" cy="941.661" r="18" fill="#ffa500" fill-rule="evenodd" fill-opacity="1" stroke="#87ceeb" stroke-opacity="1" stroke-width="3.2"/>
<circle clip-path="url(#clip621)" cx="2291.62" cy="1445.72" r="18" fill="#ffa500" fill-rule="evenodd" fill-opacity="1" stroke="none"/>
<circle clip-path="url(#clip621)" cx="286.967" cy="875.145" r="18" fill="#ffa500" fill-rule="evenodd" fill-opacity="1" stroke="#87ceeb" stroke-opacity="1" stroke-width="3.2"/>
<circle clip-path="url(#clip621)" cx="548.357" cy="951.693" r="18" fill="#ffa500" fill-rule="evenodd" fill-opacity="1" stroke="none"/>
<circle clip-path="url(#clip621)" cx="1112.98" cy="459.155" r="18" fill="#87ceeb" fill-rule="evenodd" fill-opacity="1" stroke="none"/>
<circle clip-path="url(#clip621)" cx="362.057" cy="815.568" r="18" fill="#87ceeb" fill-rule="evenodd" fill-opacity="1" stroke="#ffa500" stroke-opacity="1" stroke-width="3.2"/>
<circle clip-path="url(#clip621)" cx="2163.08" cy="167.23" r="18" fill="#87ceeb" fill-rule="evenodd" fill-opacity="1" stroke="none"/>
<circle clip-path="url(#clip621)" cx="1004.88" cy="1102.91" r="18" fill="#ffa500" fill-rule="evenodd" fill-opacity="1" stroke="none"/>
<circle clip-path="url(#clip621)" cx="561.185" cy="671.097" r="18" fill="#87ceeb" fill-rule="evenodd" fill-opacity="1" stroke="none"/>
<circle clip-path="url(#clip621)" cx="253.843" cy="821.812" r="18" fill="#ffa500" fill-rule="evenodd" fill-opacity="1" stroke="none"/>
<circle clip-path="url(#clip621)" cx="1580.6" cy="1312.74" r="18" fill="#ffa500" fill-rule="evenodd" fill-opacity="1" stroke="#87ceeb" stroke-opacity="1" stroke-width="3.2"/>
<circle clip-path="url(#clip621)" cx="1591.85" cy="313.493" r="18" fill="#87ceeb" fill-rule="evenodd" fill-opacity="1" stroke="#ffa500" stroke-opacity="1" stroke-width="3.2"/>
<circle clip-path="url(#clip621)" cx="1213.01" cy="1183" r="18" fill="#ffa500" fill-rule="evenodd" fill-opacity="1" stroke="#87ceeb" stroke-opacity="1" stroke-width="3.2"/>
<circle clip-path="url(#clip621)" cx="893.035" cy="1004.49" r="18" fill="#ffa500" fill-rule="evenodd" fill-opacity="1" stroke="none"/>
<circle clip-path="url(#clip621)" cx="894.048" cy="1061.17" r="18" fill="#ffa500" fill-rule="evenodd" fill-opacity="1" stroke="#87ceeb" stroke-opacity="1" stroke-width="3.2"/>
<circle clip-path="url(#clip621)" cx="702.788" cy="608.432" r="18" fill="#87ceeb" fill-rule="evenodd" fill-opacity="1" stroke="#ffa500" stroke-opacity="1" stroke-width="3.2"/>
<circle clip-path="url(#clip621)" cx="1889.53" cy="229.641" r="18" fill="#87ceeb" fill-rule="evenodd" fill-opacity="1" stroke="none"/>
<circle clip-path="url(#clip621)" cx="647.209" cy="685.976" r="18" fill="#87ceeb" fill-rule="evenodd" fill-opacity="1" stroke="#ffa500" stroke-opacity="1" stroke-width="3.2"/>
<circle clip-path="url(#clip621)" cx="2142.35" cy="1447.87" r="18" fill="#ffa500" fill-rule="evenodd" fill-opacity="1" stroke="#87ceeb" stroke-opacity="1" stroke-width="3.2"/>
<circle clip-path="url(#clip621)" cx="1918.7" cy="214.777" r="18" fill="#87ceeb" fill-rule="evenodd" fill-opacity="1" stroke="#ffa500" stroke-opacity="1" stroke-width="3.2"/>
<circle clip-path="url(#clip621)" cx="861.058" cy="556.384" r="18" fill="#87ceeb" fill-rule="evenodd" fill-opacity="1" stroke="none"/>
<circle clip-path="url(#clip621)" cx="1569.35" cy="1308.06" r="18" fill="#ffa500" fill-rule="evenodd" fill-opacity="1" stroke="none"/>
<circle clip-path="url(#clip621)" cx="680.762" cy="988.458" r="18" fill="#ffa500" fill-rule="evenodd" fill-opacity="1" stroke="#87ceeb" stroke-opacity="1" stroke-width="3.2"/>
<circle clip-path="url(#clip621)" cx="674.953" cy="994.644" r="18" fill="#ffa500" fill-rule="evenodd" fill-opacity="1" stroke="none"/>
<circle clip-path="url(#clip621)" cx="1696.1" cy="274.567" r="18" fill="#87ceeb" fill-rule="evenodd" fill-opacity="1" stroke="none"/>
<circle clip-path="url(#clip621)" cx="1719.45" cy="1354.28" r="18" fill="#ffa500" fill-rule="evenodd" fill-opacity="1" stroke="none"/>
<circle clip-path="url(#clip621)" cx="790.792" cy="579.082" r="18" fill="#87ceeb" fill-rule="evenodd" fill-opacity="1" stroke="none"/>
<circle clip-path="url(#clip621)" cx="1776.78" cy="1373.41" r="18" fill="#ffa500" fill-rule="evenodd" fill-opacity="1" stroke="none"/>
<circle clip-path="url(#clip621)" cx="967.681" cy="508.787" r="18" fill="#87ceeb" fill-rule="evenodd" fill-opacity="1" stroke="none"/>
<circle clip-path="url(#clip621)" cx="867.458" cy="559.95" r="18" fill="#87ceeb" fill-rule="evenodd" fill-opacity="1" stroke="#ffa500" stroke-opacity="1" stroke-width="3.2"/>
<circle clip-path="url(#clip621)" cx="1140.31" cy="1141.45" r="18" fill="#ffa500" fill-rule="evenodd" fill-opacity="1" stroke="#87ceeb" stroke-opacity="1" stroke-width="3.2"/>
<circle clip-path="url(#clip621)" cx="436.683" cy="716.086" r="18" fill="#87ceeb" fill-rule="evenodd" fill-opacity="1" stroke="#ffa500" stroke-opacity="1" stroke-width="3.2"/>
<circle clip-path="url(#clip621)" cx="2046.84" cy="1440.9" r="18" fill="#ffa500" fill-rule="evenodd" fill-opacity="1" stroke="#87ceeb" stroke-opacity="1" stroke-width="3.2"/>
<circle clip-path="url(#clip621)" cx="1728.29" cy="268.968" r="18" fill="#87ceeb" fill-rule="evenodd" fill-opacity="1" stroke="#ffa500" stroke-opacity="1" stroke-width="3.2"/>
<circle clip-path="url(#clip621)" cx="2228.06" cy="162.047" r="18" fill="#87ceeb" fill-rule="evenodd" fill-opacity="1" stroke="none"/>
</svg>
