<?xml version="1.0" encoding="utf-8"?>
<svg xmlns="http://www.w3.org/2000/svg" xmlns:xlink="http://www.w3.org/1999/xlink" width="1100" height="450" viewBox="0 0 4400 1800">
<defs>
  <clipPath id="clip650">
    <rect x="0" y="0" width="4400" height="1800"/>
  </clipPath>
</defs>
<path clip-path="url(#clip650)" d="M0 1800 L4400 1800 L4400 0 L0 0  Z" fill="#ffffff" fill-rule="evenodd" fill-opacity="1"/>
<defs>
  <clipPath id="clip651">
    <rect x="2621" y="100" width="1554" height="1554"/>
  </clipPath>
</defs>
<path clip-path="url(#clip650)" d="M421.871 1652.89 L1974.66 1652.89 L1974.66 100.105 L421.871 100.105  Z" fill="#ffffff" fill-rule="evenodd" fill-opacity="1"/>
<defs>
  <clipPath id="clip652">
    <rect x="421" y="100" width="1554" height="1554"/>
  </clipPath>
</defs>
<polyline clip-path="url(#clip652)" style="stroke:#000000; stroke-linecap:round; stroke-linejoin:round; stroke-width:2; stroke-opacity:0.1; fill:none" points="492.453,1652.89 492.453,100.105 "/>
<polyline clip-path="url(#clip652)" style="stroke:#000000; stroke-linecap:round; stroke-linejoin:round; stroke-width:2; stroke-opacity:0.1; fill:none" points="845.359,1652.89 845.359,100.105 "/>
<polyline clip-path="url(#clip652)" style="stroke:#000000; stroke-linecap:round; stroke-linejoin:round; stroke-width:2; stroke-opacity:0.1; fill:none" points="1198.27,1652.89 1198.27,100.105 "/>
<polyline clip-path="url(#clip652)" style="stroke:#000000; stroke-linecap:round; stroke-linejoin:round; stroke-width:2; stroke-opacity:0.1; fill:none" points="1551.17,1652.89 1551.17,100.105 "/>
<polyline clip-path="url(#clip652)" style="stroke:#000000; stroke-linecap:round; stroke-linejoin:round; stroke-width:2; stroke-opacity:0.1; fill:none" points="1904.08,1652.89 1904.08,100.105 "/>
<polyline clip-path="url(#clip652)" style="stroke:#000000; stroke-linecap:round; stroke-linejoin:round; stroke-width:2; stroke-opacity:0.1; fill:none" points="421.871,1582.31 1974.66,1582.31 "/>
<polyline clip-path="url(#clip652)" style="stroke:#000000; stroke-linecap:round; stroke-linejoin:round; stroke-width:2; stroke-opacity:0.1; fill:none" points="421.871,1229.41 1974.66,1229.41 "/>
<polyline clip-path="url(#clip652)" style="stroke:#000000; stroke-linecap:round; stroke-linejoin:round; stroke-width:2; stroke-opacity:0.1; fill:none" points="421.871,876.499 1974.66,876.499 "/>
<polyline clip-path="url(#clip652)" style="stroke:#000000; stroke-linecap:round; stroke-linejoin:round; stroke-width:2; stroke-opacity:0.1; fill:none" points="421.871,523.592 1974.66,523.592 "/>
<polyline clip-path="url(#clip652)" style="stroke:#000000; stroke-linecap:round; stroke-linejoin:round; stroke-width:2; stroke-opacity:0.1; fill:none" points="421.871,170.686 1974.66,170.686 "/>
<polyline clip-path="url(#clip650)" style="stroke:#000000; stroke-linecap:round; stroke-linejoin:round; stroke-width:4; stroke-opacity:1; fill:none" points="421.871,1652.89 1974.66,1652.89 "/>
<polyline clip-path="url(#clip650)" style="stroke:#000000; stroke-linecap:round; stroke-linejoin:round; stroke-width:4; stroke-opacity:1; fill:none" points="492.453,1652.89 492.453,1633.99 "/>
<polyline clip-path="url(#clip650)" style="stroke:#000000; stroke-linecap:round; stroke-linejoin:round; stroke-width:4; stroke-opacity:1; fill:none" points="845.359,1652.89 845.359,1633.99 "/>
<polyline clip-path="url(#clip650)" style="stroke:#000000; stroke-linecap:round; stroke-linejoin:round; stroke-width:4; stroke-opacity:1; fill:none" points="1198.27,1652.89 1198.27,1633.99 "/>
<polyline clip-path="url(#clip650)" style="stroke:#000000; stroke-linecap:round; stroke-linejoin:round; stroke-width:4; stroke-opacity:1; fill:none" points="1551.17,1652.89 1551.17,1633.99 "/>
<polyline clip-path="url(#clip650)" style="stroke:#000000; stroke-linecap:round; stroke-linejoin:round; stroke-width:4; stroke-opacity:1; fill:none" points="1904.08,1652.89 1904.08,1633.99 "/>
<path clip-path="url(#clip650)" d="M446.515 1714.46 L476.191 1714.46 L476.191 1718.4 L446.515 1718.4 L446.515 1714.46 Z" fill="#000000" fill-rule="nonzero" fill-opacity="1" /><path clip-path="url(#clip650)" d="M487.094 1727.36 L494.733 1727.36 L494.733 1700.99 L486.423 1702.66 L486.423 1698.4 L494.686 1696.73 L499.362 1696.73 L499.362 1727.36 L507.001 1727.36 L507.001 1731.29 L487.094 1731.29 L487.094 1727.36 Z" fill="#000000" fill-rule="nonzero" fill-opacity="1" /><path clip-path="url(#clip650)" d="M526.446 1699.81 Q522.834 1699.81 521.006 1703.38 Q519.2 1706.92 519.2 1714.05 Q519.2 1721.15 521.006 1724.72 Q522.834 1728.26 526.446 1728.26 Q530.08 1728.26 531.885 1724.72 Q533.714 1721.15 533.714 1714.05 Q533.714 1706.92 531.885 1703.38 Q530.08 1699.81 526.446 1699.81 M526.446 1696.11 Q532.256 1696.11 535.311 1700.71 Q538.39 1705.3 538.39 1714.05 Q538.39 1722.77 535.311 1727.38 Q532.256 1731.96 526.446 1731.96 Q520.635 1731.96 517.557 1727.38 Q514.501 1722.77 514.501 1714.05 Q514.501 1705.3 517.557 1700.71 Q520.635 1696.11 526.446 1696.11 Z" fill="#000000" fill-rule="nonzero" fill-opacity="1" /><path clip-path="url(#clip650)" d="M815 1714.46 L844.676 1714.46 L844.676 1718.4 L815 1718.4 L815 1714.46 Z" fill="#000000" fill-rule="nonzero" fill-opacity="1" /><path clip-path="url(#clip650)" d="M854.815 1696.73 L873.171 1696.73 L873.171 1700.67 L859.097 1700.67 L859.097 1709.14 Q860.116 1708.79 861.134 1708.63 Q862.153 1708.45 863.171 1708.45 Q868.958 1708.45 872.338 1711.62 Q875.718 1714.79 875.718 1720.2 Q875.718 1725.78 872.245 1728.89 Q868.773 1731.96 862.454 1731.96 Q860.278 1731.96 858.009 1731.59 Q855.764 1731.22 853.357 1730.48 L853.357 1725.78 Q855.44 1726.92 857.662 1727.47 Q859.884 1728.03 862.361 1728.03 Q866.366 1728.03 868.704 1725.92 Q871.042 1723.82 871.042 1720.2 Q871.042 1716.59 868.704 1714.49 Q866.366 1712.38 862.361 1712.38 Q860.486 1712.38 858.611 1712.8 Q856.759 1713.21 854.815 1714.09 L854.815 1696.73 Z" fill="#000000" fill-rule="nonzero" fill-opacity="1" /><path clip-path="url(#clip650)" d="M1198.27 1699.81 Q1194.65 1699.81 1192.83 1703.38 Q1191.02 1706.92 1191.02 1714.05 Q1191.02 1721.15 1192.83 1724.72 Q1194.65 1728.26 1198.27 1728.26 Q1201.9 1728.26 1203.71 1724.72 Q1205.53 1721.15 1205.53 1714.05 Q1205.53 1706.92 1203.71 1703.38 Q1201.9 1699.81 1198.27 1699.81 M1198.27 1696.11 Q1204.08 1696.11 1207.13 1700.71 Q1210.21 1705.3 1210.21 1714.05 Q1210.21 1722.77 1207.13 1727.38 Q1204.08 1731.96 1198.27 1731.96 Q1192.46 1731.96 1189.38 1727.38 Q1186.32 1722.77 1186.32 1714.05 Q1186.32 1705.3 1189.38 1700.71 Q1192.46 1696.11 1198.27 1696.11 Z" fill="#000000" fill-rule="nonzero" fill-opacity="1" /><path clip-path="url(#clip650)" d="M1541.45 1696.73 L1559.81 1696.73 L1559.81 1700.67 L1545.73 1700.67 L1545.73 1709.14 Q1546.75 1708.79 1547.77 1708.63 Q1548.79 1708.45 1549.81 1708.45 Q1555.59 1708.45 1558.97 1711.62 Q1562.35 1714.79 1562.35 1720.2 Q1562.35 1725.78 1558.88 1728.89 Q1555.41 1731.96 1549.09 1731.96 Q1546.91 1731.96 1544.64 1731.59 Q1542.4 1731.22 1539.99 1730.48 L1539.99 1725.78 Q1542.07 1726.92 1544.3 1727.47 Q1546.52 1728.03 1549 1728.03 Q1553 1728.03 1555.34 1725.92 Q1557.68 1723.82 1557.68 1720.2 Q1557.68 1716.59 1555.34 1714.49 Q1553 1712.38 1549 1712.38 Q1547.12 1712.38 1545.25 1712.8 Q1543.39 1713.21 1541.45 1714.09 L1541.45 1696.73 Z" fill="#000000" fill-rule="nonzero" fill-opacity="1" /><path clip-path="url(#clip650)" d="M1878.77 1727.36 L1886.4 1727.36 L1886.4 1700.99 L1878.09 1702.66 L1878.09 1698.4 L1886.36 1696.73 L1891.03 1696.73 L1891.03 1727.36 L1898.67 1727.36 L1898.67 1731.29 L1878.77 1731.29 L1878.77 1727.36 Z" fill="#000000" fill-rule="nonzero" fill-opacity="1" /><path clip-path="url(#clip650)" d="M1918.12 1699.81 Q1914.51 1699.81 1912.68 1703.38 Q1910.87 1706.92 1910.87 1714.05 Q1910.87 1721.15 1912.68 1724.72 Q1914.51 1728.26 1918.12 1728.26 Q1921.75 1728.26 1923.56 1724.72 Q1925.39 1721.15 1925.39 1714.05 Q1925.39 1706.92 1923.56 1703.38 Q1921.75 1699.81 1918.12 1699.81 M1918.12 1696.11 Q1923.93 1696.11 1926.98 1700.71 Q1930.06 1705.3 1930.06 1714.05 Q1930.06 1722.77 1926.98 1727.38 Q1923.93 1731.96 1918.12 1731.96 Q1912.31 1731.96 1909.23 1727.38 Q1906.17 1722.77 1906.17 1714.05 Q1906.17 1705.3 1909.23 1700.71 Q1912.31 1696.11 1918.12 1696.11 Z" fill="#000000" fill-rule="nonzero" fill-opacity="1" /><path clip-path="url(#clip650)" d="M1200.28 1779.37 Q1200.28 1781.18 1199.15 1782.21 Q1198.02 1783.21 1196.74 1783.21 Q1195.51 1783.21 1194.87 1782.5 Q1194.22 1781.79 1194.22 1780.89 Q1194.22 1779.66 1195.13 1778.6 Q1196.03 1777.54 1197.38 1777.31 Q1196.06 1776.47 1194.1 1776.47 Q1192.81 1776.47 1191.68 1777.15 Q1190.59 1777.83 1189.91 1778.7 Q1189.26 1779.57 1188.69 1780.82 Q1188.14 1782.05 1187.91 1782.79 Q1187.72 1783.5 1187.56 1784.27 L1185.3 1793.29 Q1184.21 1797.57 1184.21 1799.08 Q1184.21 1800.95 1185.11 1802.21 Q1186.01 1803.43 1187.82 1803.43 Q1188.52 1803.43 1189.33 1803.24 Q1190.13 1803.01 1191.16 1802.43 Q1192.23 1801.82 1193.16 1800.92 Q1194.13 1799.99 1195.06 1798.41 Q1196 1796.83 1196.61 1794.8 Q1196.8 1794.09 1197.45 1794.09 Q1198.25 1794.09 1198.25 1794.74 Q1198.25 1795.28 1197.8 1796.44 Q1197.38 1797.57 1196.45 1799.05 Q1195.54 1800.5 1194.35 1801.82 Q1193.16 1803.11 1191.39 1804.01 Q1189.62 1804.91 1187.69 1804.91 Q1184.92 1804.91 1183.08 1803.43 Q1181.25 1801.95 1180.57 1799.89 Q1180.41 1800.18 1180.18 1800.56 Q1179.96 1800.95 1179.28 1801.82 Q1178.64 1802.66 1177.9 1803.3 Q1177.16 1803.91 1176 1804.4 Q1174.87 1804.91 1173.64 1804.91 Q1172.1 1804.91 1170.71 1804.46 Q1169.36 1804.01 1168.4 1802.98 Q1167.43 1801.95 1167.43 1800.53 Q1167.43 1798.95 1168.49 1797.86 Q1169.59 1796.73 1171.07 1796.73 Q1172 1796.73 1172.74 1797.28 Q1173.52 1797.83 1173.52 1799.02 Q1173.52 1800.34 1172.61 1801.34 Q1171.71 1802.34 1170.42 1802.59 Q1171.74 1803.43 1173.71 1803.43 Q1175.83 1803.43 1177.51 1801.56 Q1179.18 1799.7 1179.99 1796.57 Q1181.99 1789.07 1182.76 1785.72 Q1183.53 1782.34 1183.53 1780.89 Q1183.53 1779.53 1183.18 1778.6 Q1182.82 1777.67 1182.21 1777.25 Q1181.63 1776.8 1181.08 1776.64 Q1180.57 1776.47 1179.99 1776.47 Q1179.02 1776.47 1177.93 1776.86 Q1176.87 1777.25 1175.58 1778.15 Q1174.32 1779.02 1173.13 1780.82 Q1171.94 1782.63 1171.13 1785.11 Q1170.97 1785.85 1170.26 1785.85 Q1169.49 1785.81 1169.49 1785.17 Q1169.49 1784.62 1169.91 1783.5 Q1170.36 1782.34 1171.26 1780.89 Q1172.2 1779.44 1173.39 1778.15 Q1174.61 1776.83 1176.38 1775.93 Q1178.19 1775.03 1180.12 1775.03 Q1180.99 1775.03 1181.83 1775.22 Q1182.69 1775.38 1183.73 1775.86 Q1184.79 1776.35 1185.72 1777.41 Q1186.66 1778.47 1187.24 1780.02 Q1187.62 1779.28 1188.14 1778.57 Q1188.69 1777.86 1189.52 1776.99 Q1190.39 1776.09 1191.58 1775.57 Q1192.81 1775.03 1194.16 1775.03 Q1195.48 1775.03 1196.77 1775.38 Q1198.06 1775.7 1199.15 1776.76 Q1200.28 1777.8 1200.28 1779.37 Z" fill="#000000" fill-rule="nonzero" fill-opacity="1" /><path clip-path="url(#clip650)" d="M1206.98 1796.84 L1206.98 1795.4 Q1212.53 1795.4 1215.39 1792.44 Q1216.18 1792.44 1216.32 1792.62 Q1216.45 1792.8 1216.45 1793.64 L1216.45 1819.54 Q1216.45 1820.92 1217.13 1821.34 Q1217.8 1821.77 1220.76 1821.77 L1222.22 1821.77 L1222.22 1823.19 Q1220.6 1823.06 1214.74 1823.06 Q1208.88 1823.06 1207.28 1823.19 L1207.28 1821.77 L1208.74 1821.77 Q1211.65 1821.77 1212.35 1821.37 Q1213.05 1820.94 1213.05 1819.54 L1213.05 1795.62 Q1210.63 1796.84 1206.98 1796.84 Z" fill="#000000" fill-rule="nonzero" fill-opacity="1" /><polyline clip-path="url(#clip650)" style="stroke:#000000; stroke-linecap:round; stroke-linejoin:round; stroke-width:4; stroke-opacity:1; fill:none" points="421.871,1652.89 421.871,100.105 "/>
<polyline clip-path="url(#clip650)" style="stroke:#000000; stroke-linecap:round; stroke-linejoin:round; stroke-width:4; stroke-opacity:1; fill:none" points="421.871,1582.31 437.243,1582.31 "/>
<polyline clip-path="url(#clip650)" style="stroke:#000000; stroke-linecap:round; stroke-linejoin:round; stroke-width:4; stroke-opacity:1; fill:none" points="421.871,1229.41 437.243,1229.41 "/>
<polyline clip-path="url(#clip650)" style="stroke:#000000; stroke-linecap:round; stroke-linejoin:round; stroke-width:4; stroke-opacity:1; fill:none" points="421.871,876.499 437.243,876.499 "/>
<polyline clip-path="url(#clip650)" style="stroke:#000000; stroke-linecap:round; stroke-linejoin:round; stroke-width:4; stroke-opacity:1; fill:none" points="421.871,523.592 437.243,523.592 "/>
<polyline clip-path="url(#clip650)" style="stroke:#000000; stroke-linecap:round; stroke-linejoin:round; stroke-width:4; stroke-opacity:1; fill:none" points="421.871,170.686 437.243,170.686 "/>
<path clip-path="url(#clip650)" d="M263.997 1582.76 L293.673 1582.76 L293.673 1586.7 L263.997 1586.7 L263.997 1582.76 Z" fill="#000000" fill-rule="nonzero" fill-opacity="1" /><path clip-path="url(#clip650)" d="M304.575 1595.66 L312.214 1595.66 L312.214 1569.29 L303.904 1570.96 L303.904 1566.7 L312.168 1565.03 L316.844 1565.03 L316.844 1595.66 L324.483 1595.66 L324.483 1599.59 L304.575 1599.59 L304.575 1595.66 Z" fill="#000000" fill-rule="nonzero" fill-opacity="1" /><path clip-path="url(#clip650)" d="M343.927 1568.11 Q340.316 1568.11 338.487 1571.67 Q336.682 1575.22 336.682 1582.35 Q336.682 1589.45 338.487 1593.02 Q340.316 1596.56 343.927 1596.56 Q347.561 1596.56 349.367 1593.02 Q351.196 1589.45 351.196 1582.35 Q351.196 1575.22 349.367 1571.67 Q347.561 1568.11 343.927 1568.11 M343.927 1564.41 Q349.737 1564.41 352.793 1569.01 Q355.871 1573.6 355.871 1582.35 Q355.871 1591.07 352.793 1595.68 Q349.737 1600.26 343.927 1600.26 Q338.117 1600.26 335.038 1595.68 Q331.983 1591.07 331.983 1582.35 Q331.983 1573.6 335.038 1569.01 Q338.117 1564.41 343.927 1564.41 Z" fill="#000000" fill-rule="nonzero" fill-opacity="1" /><path clip-path="url(#clip650)" d="M295.154 1229.86 L324.83 1229.86 L324.83 1233.79 L295.154 1233.79 L295.154 1229.86 Z" fill="#000000" fill-rule="nonzero" fill-opacity="1" /><path clip-path="url(#clip650)" d="M334.969 1212.13 L353.325 1212.13 L353.325 1216.06 L339.251 1216.06 L339.251 1224.53 Q340.27 1224.19 341.288 1224.02 Q342.307 1223.84 343.325 1223.84 Q349.112 1223.84 352.492 1227.01 Q355.871 1230.18 355.871 1235.6 Q355.871 1241.18 352.399 1244.28 Q348.927 1247.36 342.608 1247.36 Q340.432 1247.36 338.163 1246.99 Q335.918 1246.62 333.51 1245.87 L333.51 1241.18 Q335.594 1242.31 337.816 1242.87 Q340.038 1243.42 342.515 1243.42 Q346.52 1243.42 348.858 1241.31 Q351.196 1239.21 351.196 1235.6 Q351.196 1231.99 348.858 1229.88 Q346.52 1227.77 342.515 1227.77 Q340.64 1227.77 338.765 1228.19 Q336.913 1228.61 334.969 1229.49 L334.969 1212.13 Z" fill="#000000" fill-rule="nonzero" fill-opacity="1" /><path clip-path="url(#clip650)" d="M343.927 862.297 Q340.316 862.297 338.487 865.862 Q336.682 869.404 336.682 876.533 Q336.682 883.64 338.487 887.205 Q340.316 890.746 343.927 890.746 Q347.561 890.746 349.367 887.205 Q351.196 883.64 351.196 876.533 Q351.196 869.404 349.367 865.862 Q347.561 862.297 343.927 862.297 M343.927 858.594 Q349.737 858.594 352.793 863.2 Q355.871 867.783 355.871 876.533 Q355.871 885.26 352.793 889.867 Q349.737 894.45 343.927 894.45 Q338.117 894.45 335.038 889.867 Q331.983 885.26 331.983 876.533 Q331.983 867.783 335.038 863.2 Q338.117 858.594 343.927 858.594 Z" fill="#000000" fill-rule="nonzero" fill-opacity="1" /><path clip-path="url(#clip650)" d="M334.969 506.312 L353.325 506.312 L353.325 510.248 L339.251 510.248 L339.251 518.72 Q340.27 518.373 341.288 518.21 Q342.307 518.025 343.325 518.025 Q349.112 518.025 352.492 521.197 Q355.871 524.368 355.871 529.785 Q355.871 535.363 352.399 538.465 Q348.927 541.544 342.608 541.544 Q340.432 541.544 338.163 541.173 Q335.918 540.803 333.51 540.062 L333.51 535.363 Q335.594 536.497 337.816 537.053 Q340.038 537.609 342.515 537.609 Q346.52 537.609 348.858 535.502 Q351.196 533.396 351.196 529.785 Q351.196 526.173 348.858 524.067 Q346.52 521.96 342.515 521.96 Q340.64 521.96 338.765 522.377 Q336.913 522.794 334.969 523.673 L334.969 506.312 Z" fill="#000000" fill-rule="nonzero" fill-opacity="1" /><path clip-path="url(#clip650)" d="M304.575 184.031 L312.214 184.031 L312.214 157.665 L303.904 159.332 L303.904 155.073 L312.168 153.406 L316.844 153.406 L316.844 184.031 L324.483 184.031 L324.483 187.966 L304.575 187.966 L304.575 184.031 Z" fill="#000000" fill-rule="nonzero" fill-opacity="1" /><path clip-path="url(#clip650)" d="M343.927 156.485 Q340.316 156.485 338.487 160.05 Q336.682 163.591 336.682 170.721 Q336.682 177.827 338.487 181.392 Q340.316 184.934 343.927 184.934 Q347.561 184.934 349.367 181.392 Q351.196 177.827 351.196 170.721 Q351.196 163.591 349.367 160.05 Q347.561 156.485 343.927 156.485 M343.927 152.781 Q349.737 152.781 352.793 157.388 Q355.871 161.971 355.871 170.721 Q355.871 179.448 352.793 184.054 Q349.737 188.637 343.927 188.637 Q338.117 188.637 335.038 184.054 Q331.983 179.448 331.983 170.721 Q331.983 161.971 335.038 157.388 Q338.117 152.781 343.927 152.781 Z" fill="#000000" fill-rule="nonzero" fill-opacity="1" /><path clip-path="url(#clip650)" d="M149.614 876.069 Q151.417 876.069 152.448 877.196 Q153.446 878.323 153.446 879.612 Q153.446 880.835 152.738 881.48 Q152.029 882.124 151.127 882.124 Q149.904 882.124 148.841 881.222 Q147.778 880.32 147.553 878.967 Q146.715 880.288 146.715 882.252 Q146.715 883.541 147.392 884.668 Q148.068 885.763 148.937 886.439 Q149.807 887.083 151.063 887.663 Q152.287 888.211 153.028 888.436 Q153.736 888.629 154.509 888.79 L163.527 891.045 Q167.81 892.14 169.324 892.14 Q171.192 892.14 172.448 891.238 Q173.672 890.336 173.672 888.533 Q173.672 887.824 173.478 887.019 Q173.253 886.214 172.673 885.183 Q172.061 884.12 171.159 883.186 Q170.226 882.22 168.647 881.286 Q167.069 880.352 165.04 879.74 Q164.332 879.547 164.332 878.903 Q164.332 878.098 164.976 878.098 Q165.523 878.098 166.683 878.549 Q167.81 878.967 169.292 879.901 Q170.741 880.803 172.061 881.995 Q173.349 883.186 174.251 884.958 Q175.153 886.729 175.153 888.661 Q175.153 891.431 173.672 893.267 Q172.19 895.103 170.129 895.779 Q170.419 895.94 170.805 896.165 Q171.192 896.391 172.061 897.067 Q172.899 897.711 173.543 898.452 Q174.155 899.193 174.638 900.352 Q175.153 901.479 175.153 902.703 Q175.153 904.249 174.702 905.634 Q174.251 906.987 173.221 907.953 Q172.19 908.919 170.773 908.919 Q169.195 908.919 168.1 907.856 Q166.973 906.761 166.973 905.28 Q166.973 904.346 167.52 903.605 Q168.068 902.832 169.259 902.832 Q170.58 902.832 171.578 903.734 Q172.577 904.636 172.834 905.924 Q173.672 904.603 173.672 902.639 Q173.672 900.513 171.804 898.838 Q169.936 897.164 166.812 896.359 Q159.308 894.362 155.958 893.589 Q152.577 892.816 151.127 892.816 Q149.775 892.816 148.841 893.17 Q147.907 893.525 147.488 894.136 Q147.037 894.716 146.876 895.264 Q146.715 895.779 146.715 896.359 Q146.715 897.325 147.102 898.42 Q147.488 899.483 148.39 900.771 Q149.26 902.027 151.063 903.218 Q152.867 904.41 155.346 905.215 Q156.087 905.376 156.087 906.085 Q156.055 906.858 155.411 906.858 Q154.863 906.858 153.736 906.439 Q152.577 905.988 151.127 905.086 Q149.678 904.152 148.39 902.961 Q147.07 901.737 146.168 899.966 Q145.266 898.162 145.266 896.23 Q145.266 895.36 145.459 894.523 Q145.62 893.653 146.103 892.623 Q146.586 891.56 147.649 890.626 Q148.712 889.692 150.258 889.112 Q149.517 888.726 148.809 888.211 Q148.1 887.663 147.231 886.826 Q146.329 885.956 145.813 884.765 Q145.266 883.541 145.266 882.188 Q145.266 880.868 145.62 879.579 Q145.942 878.291 147.005 877.196 Q148.036 876.069 149.614 876.069 Z" fill="#000000" fill-rule="nonzero" fill-opacity="1" /><path clip-path="url(#clip650)" d="M193.433 869.366 Q192.598 869.366 192.35 869.298 Q192.102 869.208 191.719 868.847 L181.845 859.988 Q176.389 855.141 171.632 855.141 Q168.544 855.141 166.335 856.764 Q164.125 858.364 164.125 861.318 Q164.125 863.347 165.365 865.06 Q166.605 866.773 168.814 867.562 Q168.769 867.427 168.769 866.954 Q168.769 865.804 169.491 865.173 Q170.212 864.519 171.182 864.519 Q172.421 864.519 173.03 865.331 Q173.616 866.12 173.616 866.909 Q173.616 867.224 173.549 867.653 Q173.481 868.058 172.85 868.712 Q172.196 869.366 171.046 869.366 Q167.822 869.366 165.252 866.931 Q162.682 864.474 162.682 860.732 Q162.682 856.493 165.207 853.72 Q167.71 850.925 171.632 850.925 Q173.008 850.925 174.27 851.353 Q175.51 851.759 176.479 852.323 Q177.449 852.864 179.004 854.352 Q180.56 855.839 181.665 857.034 Q182.769 858.229 185.114 860.912 L189.871 865.804 L189.871 857.485 Q189.871 853.427 189.51 853.112 Q188.856 852.661 185.407 852.097 L185.407 850.925 L193.433 852.232 L193.433 869.366 Z" fill="#000000" fill-rule="nonzero" fill-opacity="1" /><path clip-path="url(#clip650)" d="M1096.53 12.096 L1147.69 12.096 L1147.69 18.9825 L1126.22 18.9825 L1126.22 72.576 L1118 72.576 L1118 18.9825 L1096.53 18.9825 L1096.53 12.096 Z" fill="#000000" fill-rule="nonzero" fill-opacity="1" /><path clip-path="url(#clip650)" d="M1169.36 34.1734 Q1168.11 33.4443 1166.61 33.1202 Q1165.15 32.7556 1163.37 32.7556 Q1157.05 32.7556 1153.64 36.8875 Q1150.28 40.9789 1150.28 48.6757 L1150.28 72.576 L1142.79 72.576 L1142.79 27.2059 L1150.28 27.2059 L1150.28 34.2544 Q1152.63 30.1225 1156.4 28.1376 Q1160.17 26.1121 1165.55 26.1121 Q1166.32 26.1121 1167.26 26.2337 Q1168.19 26.3147 1169.32 26.5172 L1169.36 34.1734 Z" fill="#000000" fill-rule="nonzero" fill-opacity="1" /><path clip-path="url(#clip650)" d="M1176.41 54.671 L1176.41 27.2059 L1183.86 27.2059 L1183.86 54.3874 Q1183.86 60.8284 1186.38 64.0691 Q1188.89 67.2693 1193.91 67.2693 Q1199.95 67.2693 1203.43 63.421 Q1206.95 59.5726 1206.95 52.9291 L1206.95 27.2059 L1214.41 27.2059 L1214.41 72.576 L1206.95 72.576 L1206.95 65.6084 Q1204.24 69.7404 1200.64 71.7658 Q1197.07 73.7508 1192.33 73.7508 Q1184.51 73.7508 1180.46 68.8897 Q1176.41 64.0286 1176.41 54.671 M1195.17 26.1121 L1195.17 26.1121 Z" fill="#000000" fill-rule="nonzero" fill-opacity="1" /><path clip-path="url(#clip650)" d="M1237.13 14.324 L1237.13 27.2059 L1252.49 27.2059 L1252.49 32.9987 L1237.13 32.9987 L1237.13 57.6282 Q1237.13 63.1779 1238.63 64.7578 Q1240.17 66.3376 1244.83 66.3376 L1252.49 66.3376 L1252.49 72.576 L1244.83 72.576 Q1236.2 72.576 1232.92 69.3758 Q1229.64 66.1351 1229.64 57.6282 L1229.64 32.9987 L1224.17 32.9987 L1224.17 27.2059 L1229.64 27.2059 L1229.64 14.324 L1237.13 14.324 Z" fill="#000000" fill-rule="nonzero" fill-opacity="1" /><path clip-path="url(#clip650)" d="M1300 45.1919 L1300 72.576 L1292.55 72.576 L1292.55 45.4349 Q1292.55 38.994 1290.04 35.7938 Q1287.53 32.5936 1282.5 32.5936 Q1276.47 32.5936 1272.98 36.4419 Q1269.5 40.2903 1269.5 46.9338 L1269.5 72.576 L1262.01 72.576 L1262.01 9.54393 L1269.5 9.54393 L1269.5 34.2544 Q1272.17 30.163 1275.78 28.1376 Q1279.43 26.1121 1284.16 26.1121 Q1291.98 26.1121 1295.99 30.9732 Q1300 35.7938 1300 45.1919 Z" fill="#000000" fill-rule="nonzero" fill-opacity="1" /><polyline clip-path="url(#clip652)" style="stroke:#009af9; stroke-linecap:round; stroke-linejoin:round; stroke-width:4; stroke-opacity:1; fill:none" points="527.743,1547.02 598.325,1476.44 668.906,1405.86 739.487,1335.28 810.068,1264.7 880.65,1194.11 951.231,1123.53 1021.81,1052.95 1092.39,982.371 1162.97,911.789 1233.56,841.208 1304.14,770.627 1374.72,700.046 1445.3,629.464 1515.88,558.883 1586.46,488.302 1657.04,417.721 1727.62,347.139 1798.21,276.558 1868.79,205.977 "/>
<polyline clip-path="url(#clip652)" style="stroke:#e26f46; stroke-linecap:round; stroke-linejoin:round; stroke-width:4; stroke-opacity:1; fill:none" points="527.743,205.977 598.325,276.558 668.906,347.139 739.487,417.721 810.068,488.302 880.65,558.883 951.231,629.464 1021.81,700.046 1092.39,770.627 1162.97,841.208 1233.56,911.789 1304.14,982.371 1374.72,1052.95 1445.3,1123.53 1515.88,1194.11 1586.46,1264.7 1657.04,1335.28 1727.62,1405.86 1798.21,1476.44 1868.79,1547.02 "/>
<circle clip-path="url(#clip652)" cx="726.256" cy="442.535" r="18" fill="#87ceeb" fill-rule="evenodd" fill-opacity="1" stroke="#ffa500" stroke-opacity="1" stroke-width="3.6"/>
<circle clip-path="url(#clip652)" cx="1047.75" cy="734.551" r="18" fill="#87ceeb" fill-rule="evenodd" fill-opacity="1" stroke="none"/>
<circle clip-path="url(#clip652)" cx="1627.6" cy="449.351" r="18" fill="#ffa500" fill-rule="evenodd" fill-opacity="1" stroke="none"/>
<circle clip-path="url(#clip652)" cx="1431.08" cy="743.71" r="18" fill="#ffa500" fill-rule="evenodd" fill-opacity="1" stroke="#87ceeb" stroke-opacity="1" stroke-width="3.6"/>
<circle clip-path="url(#clip652)" cx="1404.91" cy="1055.96" r="18" fill="#87ceeb" fill-rule="evenodd" fill-opacity="1" stroke="#ffa500" stroke-opacity="1" stroke-width="3.6"/>
<circle clip-path="url(#clip652)" cx="1047.91" cy="984.351" r="18" fill="#ffa500" fill-rule="evenodd" fill-opacity="1" stroke="#87ceeb" stroke-opacity="1" stroke-width="3.6"/>
<circle clip-path="url(#clip652)" cx="1878.68" cy="187.244" r="18" fill="#ffa500" fill-rule="evenodd" fill-opacity="1" stroke="none"/>
<circle clip-path="url(#clip652)" cx="1173.7" cy="904.459" r="18" fill="#ffa500" fill-rule="evenodd" fill-opacity="1" stroke="#87ceeb" stroke-opacity="1" stroke-width="3.6"/>
<circle clip-path="url(#clip652)" cx="1318.99" cy="770.687" r="18" fill="#ffa500" fill-rule="evenodd" fill-opacity="1" stroke="none"/>
<circle clip-path="url(#clip652)" cx="816.088" cy="497.906" r="18" fill="#87ceeb" fill-rule="evenodd" fill-opacity="1" stroke="none"/>
<circle clip-path="url(#clip652)" cx="1201.26" cy="826.889" r="18" fill="#87ceeb" fill-rule="evenodd" fill-opacity="1" stroke="#ffa500" stroke-opacity="1" stroke-width="3.6"/>
<circle clip-path="url(#clip652)" cx="550.13" cy="185.795" r="18" fill="#87ceeb" fill-rule="evenodd" fill-opacity="1" stroke="none"/>
<circle clip-path="url(#clip652)" cx="870.855" cy="1236.29" r="18" fill="#ffa500" fill-rule="evenodd" fill-opacity="1" stroke="none"/>
<circle clip-path="url(#clip652)" cx="1302" cy="1004.35" r="18" fill="#87ceeb" fill-rule="evenodd" fill-opacity="1" stroke="none"/>
<circle clip-path="url(#clip652)" cx="1218.76" cy="872.645" r="18" fill="#ffa500" fill-rule="evenodd" fill-opacity="1" stroke="none"/>
<circle clip-path="url(#clip652)" cx="691.937" cy="1378.67" r="18" fill="#ffa500" fill-rule="evenodd" fill-opacity="1" stroke="#87ceeb" stroke-opacity="1" stroke-width="3.6"/>
<circle clip-path="url(#clip652)" cx="1731.68" cy="1369.5" r="18" fill="#87ceeb" fill-rule="evenodd" fill-opacity="1" stroke="#ffa500" stroke-opacity="1" stroke-width="3.6"/>
<circle clip-path="url(#clip652)" cx="1591.74" cy="461.153" r="18" fill="#ffa500" fill-rule="evenodd" fill-opacity="1" stroke="#87ceeb" stroke-opacity="1" stroke-width="3.6"/>
<circle clip-path="url(#clip652)" cx="1517.29" cy="664.661" r="18" fill="#ffa500" fill-rule="evenodd" fill-opacity="1" stroke="none"/>
<circle clip-path="url(#clip652)" cx="887.748" cy="1149.96" r="18" fill="#ffa500" fill-rule="evenodd" fill-opacity="1" stroke="#87ceeb" stroke-opacity="1" stroke-width="3.6"/>
<circle clip-path="url(#clip652)" cx="1382.46" cy="1076.32" r="18" fill="#87ceeb" fill-rule="evenodd" fill-opacity="1" stroke="#ffa500" stroke-opacity="1" stroke-width="3.6"/>
<circle clip-path="url(#clip652)" cx="580.988" cy="306.843" r="18" fill="#87ceeb" fill-rule="evenodd" fill-opacity="1" stroke="none"/>
<circle clip-path="url(#clip652)" cx="1093.3" cy="702.197" r="18" fill="#87ceeb" fill-rule="evenodd" fill-opacity="1" stroke="#ffa500" stroke-opacity="1" stroke-width="3.6"/>
<circle clip-path="url(#clip652)" cx="551.174" cy="1535.01" r="18" fill="#ffa500" fill-rule="evenodd" fill-opacity="1" stroke="#87ceeb" stroke-opacity="1" stroke-width="3.6"/>
<circle clip-path="url(#clip652)" cx="1818.13" cy="1463.17" r="18" fill="#87ceeb" fill-rule="evenodd" fill-opacity="1" stroke="#ffa500" stroke-opacity="1" stroke-width="3.6"/>
<circle clip-path="url(#clip652)" cx="911.257" cy="609.297" r="18" fill="#87ceeb" fill-rule="evenodd" fill-opacity="1" stroke="none"/>
<circle clip-path="url(#clip652)" cx="694.099" cy="1373.64" r="18" fill="#ffa500" fill-rule="evenodd" fill-opacity="1" stroke="none"/>
<circle clip-path="url(#clip652)" cx="1385.08" cy="717.409" r="18" fill="#ffa500" fill-rule="evenodd" fill-opacity="1" stroke="#87ceeb" stroke-opacity="1" stroke-width="3.6"/>
<circle clip-path="url(#clip652)" cx="1015.55" cy="1039.86" r="18" fill="#ffa500" fill-rule="evenodd" fill-opacity="1" stroke="none"/>
<circle clip-path="url(#clip652)" cx="1730.96" cy="1437.02" r="18" fill="#87ceeb" fill-rule="evenodd" fill-opacity="1" stroke="none"/>
<circle clip-path="url(#clip652)" cx="1742.05" cy="340.605" r="18" fill="#ffa500" fill-rule="evenodd" fill-opacity="1" stroke="none"/>
<circle clip-path="url(#clip652)" cx="955.06" cy="649.274" r="18" fill="#87ceeb" fill-rule="evenodd" fill-opacity="1" stroke="none"/>
<circle clip-path="url(#clip652)" cx="640.343" cy="1430.39" r="18" fill="#ffa500" fill-rule="evenodd" fill-opacity="1" stroke="none"/>
<circle clip-path="url(#clip652)" cx="1536.86" cy="1219.8" r="18" fill="#87ceeb" fill-rule="evenodd" fill-opacity="1" stroke="none"/>
<circle clip-path="url(#clip652)" cx="1490.84" cy="1141.83" r="18" fill="#87ceeb" fill-rule="evenodd" fill-opacity="1" stroke="#ffa500" stroke-opacity="1" stroke-width="3.6"/>
<circle clip-path="url(#clip652)" cx="793.899" cy="1231.21" r="18" fill="#ffa500" fill-rule="evenodd" fill-opacity="1" stroke="#87ceeb" stroke-opacity="1" stroke-width="3.6"/>
<circle clip-path="url(#clip652)" cx="1253.9" cy="952.042" r="18" fill="#87ceeb" fill-rule="evenodd" fill-opacity="1" stroke="#ffa500" stroke-opacity="1" stroke-width="3.6"/>
<circle clip-path="url(#clip652)" cx="1833.22" cy="253.56" r="18" fill="#ffa500" fill-rule="evenodd" fill-opacity="1" stroke="#87ceeb" stroke-opacity="1" stroke-width="3.6"/>
<circle clip-path="url(#clip652)" cx="663.872" cy="301.759" r="18" fill="#87ceeb" fill-rule="evenodd" fill-opacity="1" stroke="#ffa500" stroke-opacity="1" stroke-width="3.6"/>
<circle clip-path="url(#clip652)" cx="1879.22" cy="1562.77" r="18" fill="#87ceeb" fill-rule="evenodd" fill-opacity="1" stroke="none"/>
<path clip-path="url(#clip650)" d="M2621.87 1652.89 L4174.66 1652.89 L4174.66 100.105 L2621.87 100.105  Z" fill="#ffffff" fill-rule="evenodd" fill-opacity="1"/>
<polyline clip-path="url(#clip651)" style="stroke:#000000; stroke-linecap:round; stroke-linejoin:round; stroke-width:2; stroke-opacity:0.1; fill:none" points="2692.45,1652.89 2692.45,100.105 "/>
<polyline clip-path="url(#clip651)" style="stroke:#000000; stroke-linecap:round; stroke-linejoin:round; stroke-width:2; stroke-opacity:0.1; fill:none" points="3045.36,1652.89 3045.36,100.105 "/>
<polyline clip-path="url(#clip651)" style="stroke:#000000; stroke-linecap:round; stroke-linejoin:round; stroke-width:2; stroke-opacity:0.1; fill:none" points="3398.27,1652.89 3398.27,100.105 "/>
<polyline clip-path="url(#clip651)" style="stroke:#000000; stroke-linecap:round; stroke-linejoin:round; stroke-width:2; stroke-opacity:0.1; fill:none" points="3751.17,1652.89 3751.17,100.105 "/>
<polyline clip-path="url(#clip651)" style="stroke:#000000; stroke-linecap:round; stroke-linejoin:round; stroke-width:2; stroke-opacity:0.1; fill:none" points="4104.08,1652.89 4104.08,100.105 "/>
<polyline clip-path="url(#clip651)" style="stroke:#000000; stroke-linecap:round; stroke-linejoin:round; stroke-width:2; stroke-opacity:0.1; fill:none" points="2621.87,1582.31 4174.66,1582.31 "/>
<polyline clip-path="url(#clip651)" style="stroke:#000000; stroke-linecap:round; stroke-linejoin:round; stroke-width:2; stroke-opacity:0.1; fill:none" points="2621.87,1229.41 4174.66,1229.41 "/>
<polyline clip-path="url(#clip651)" style="stroke:#000000; stroke-linecap:round; stroke-linejoin:round; stroke-width:2; stroke-opacity:0.1; fill:none" points="2621.87,876.499 4174.66,876.499 "/>
<polyline clip-path="url(#clip651)" style="stroke:#000000; stroke-linecap:round; stroke-linejoin:round; stroke-width:2; stroke-opacity:0.1; fill:none" points="2621.87,523.592 4174.66,523.592 "/>
<polyline clip-path="url(#clip651)" style="stroke:#000000; stroke-linecap:round; stroke-linejoin:round; stroke-width:2; stroke-opacity:0.1; fill:none" points="2621.87,170.686 4174.66,170.686 "/>
<polyline clip-path="url(#clip650)" style="stroke:#000000; stroke-linecap:round; stroke-linejoin:round; stroke-width:4; stroke-opacity:1; fill:none" points="2621.87,1652.89 4174.66,1652.89 "/>
<polyline clip-path="url(#clip650)" style="stroke:#000000; stroke-linecap:round; stroke-linejoin:round; stroke-width:4; stroke-opacity:1; fill:none" points="2692.45,1652.89 2692.45,1633.99 "/>
<polyline clip-path="url(#clip650)" style="stroke:#000000; stroke-linecap:round; stroke-linejoin:round; stroke-width:4; stroke-opacity:1; fill:none" points="3045.36,1652.89 3045.36,1633.99 "/>
<polyline clip-path="url(#clip650)" style="stroke:#000000; stroke-linecap:round; stroke-linejoin:round; stroke-width:4; stroke-opacity:1; fill:none" points="3398.27,1652.89 3398.27,1633.99 "/>
<polyline clip-path="url(#clip650)" style="stroke:#000000; stroke-linecap:round; stroke-linejoin:round; stroke-width:4; stroke-opacity:1; fill:none" points="3751.17,1652.89 3751.17,1633.99 "/>
<polyline clip-path="url(#clip650)" style="stroke:#000000; stroke-linecap:round; stroke-linejoin:round; stroke-width:4; stroke-opacity:1; fill:none" points="4104.08,1652.89 4104.08,1633.99 "/>
<path clip-path="url(#clip650)" d="M2646.52 1714.46 L2676.19 1714.46 L2676.19 1718.4 L2646.52 1718.4 L2646.52 1714.46 Z" fill="#000000" fill-rule="nonzero" fill-opacity="1" /><path clip-path="url(#clip650)" d="M2687.09 1727.36 L2694.73 1727.36 L2694.73 1700.99 L2686.42 1702.66 L2686.42 1698.4 L2694.69 1696.73 L2699.36 1696.73 L2699.36 1727.36 L2707 1727.36 L2707 1731.29 L2687.09 1731.29 L2687.09 1727.36 Z" fill="#000000" fill-rule="nonzero" fill-opacity="1" /><path clip-path="url(#clip650)" d="M2726.45 1699.81 Q2722.83 1699.81 2721.01 1703.38 Q2719.2 1706.92 2719.2 1714.05 Q2719.2 1721.15 2721.01 1724.72 Q2722.83 1728.26 2726.45 1728.26 Q2730.08 1728.26 2731.89 1724.72 Q2733.71 1721.15 2733.71 1714.05 Q2733.71 1706.92 2731.89 1703.38 Q2730.08 1699.81 2726.45 1699.81 M2726.45 1696.11 Q2732.26 1696.11 2735.31 1700.71 Q2738.39 1705.3 2738.39 1714.05 Q2738.39 1722.77 2735.31 1727.38 Q2732.26 1731.96 2726.45 1731.96 Q2720.64 1731.96 2717.56 1727.38 Q2714.5 1722.77 2714.5 1714.05 Q2714.5 1705.3 2717.56 1700.71 Q2720.64 1696.11 2726.45 1696.11 Z" fill="#000000" fill-rule="nonzero" fill-opacity="1" /><path clip-path="url(#clip650)" d="M3015 1714.46 L3044.68 1714.46 L3044.68 1718.4 L3015 1718.4 L3015 1714.46 Z" fill="#000000" fill-rule="nonzero" fill-opacity="1" /><path clip-path="url(#clip650)" d="M3054.81 1696.73 L3073.17 1696.73 L3073.17 1700.67 L3059.1 1700.67 L3059.1 1709.14 Q3060.12 1708.79 3061.13 1708.63 Q3062.15 1708.45 3063.17 1708.45 Q3068.96 1708.45 3072.34 1711.62 Q3075.72 1714.79 3075.72 1720.2 Q3075.72 1725.78 3072.25 1728.89 Q3068.77 1731.96 3062.45 1731.96 Q3060.28 1731.96 3058.01 1731.59 Q3055.76 1731.22 3053.36 1730.48 L3053.36 1725.78 Q3055.44 1726.92 3057.66 1727.47 Q3059.88 1728.03 3062.36 1728.03 Q3066.37 1728.03 3068.7 1725.92 Q3071.04 1723.82 3071.04 1720.2 Q3071.04 1716.59 3068.7 1714.49 Q3066.37 1712.38 3062.36 1712.38 Q3060.49 1712.38 3058.61 1712.8 Q3056.76 1713.21 3054.81 1714.09 L3054.81 1696.73 Z" fill="#000000" fill-rule="nonzero" fill-opacity="1" /><path clip-path="url(#clip650)" d="M3398.27 1699.81 Q3394.65 1699.81 3392.83 1703.38 Q3391.02 1706.92 3391.02 1714.05 Q3391.02 1721.15 3392.83 1724.72 Q3394.65 1728.26 3398.27 1728.26 Q3401.9 1728.26 3403.71 1724.72 Q3405.53 1721.15 3405.53 1714.05 Q3405.53 1706.92 3403.71 1703.38 Q3401.9 1699.81 3398.27 1699.81 M3398.27 1696.11 Q3404.08 1696.11 3407.13 1700.71 Q3410.21 1705.3 3410.21 1714.05 Q3410.21 1722.77 3407.13 1727.38 Q3404.08 1731.96 3398.27 1731.96 Q3392.46 1731.96 3389.38 1727.38 Q3386.32 1722.77 3386.32 1714.05 Q3386.32 1705.3 3389.38 1700.71 Q3392.46 1696.11 3398.27 1696.11 Z" fill="#000000" fill-rule="nonzero" fill-opacity="1" /><path clip-path="url(#clip650)" d="M3741.45 1696.73 L3759.81 1696.73 L3759.81 1700.67 L3745.73 1700.67 L3745.73 1709.14 Q3746.75 1708.79 3747.77 1708.63 Q3748.79 1708.45 3749.81 1708.45 Q3755.59 1708.45 3758.97 1711.62 Q3762.35 1714.79 3762.35 1720.2 Q3762.35 1725.78 3758.88 1728.89 Q3755.41 1731.96 3749.09 1731.96 Q3746.91 1731.96 3744.64 1731.59 Q3742.4 1731.22 3739.99 1730.48 L3739.99 1725.78 Q3742.07 1726.92 3744.3 1727.47 Q3746.52 1728.03 3749 1728.03 Q3753 1728.03 3755.34 1725.92 Q3757.68 1723.82 3757.68 1720.2 Q3757.68 1716.59 3755.34 1714.49 Q3753 1712.38 3749 1712.38 Q3747.12 1712.38 3745.25 1712.8 Q3743.39 1713.21 3741.45 1714.09 L3741.45 1696.73 Z" fill="#000000" fill-rule="nonzero" fill-opacity="1" /><path clip-path="url(#clip650)" d="M4078.77 1727.36 L4086.4 1727.36 L4086.4 1700.99 L4078.09 1702.66 L4078.09 1698.4 L4086.36 1696.73 L4091.03 1696.73 L4091.03 1727.36 L4098.67 1727.36 L4098.67 1731.29 L4078.77 1731.29 L4078.77 1727.36 Z" fill="#000000" fill-rule="nonzero" fill-opacity="1" /><path clip-path="url(#clip650)" d="M4118.12 1699.81 Q4114.51 1699.81 4112.68 1703.38 Q4110.87 1706.92 4110.87 1714.05 Q4110.87 1721.15 4112.68 1724.72 Q4114.51 1728.26 4118.12 1728.26 Q4121.75 1728.26 4123.56 1724.72 Q4125.39 1721.15 4125.39 1714.05 Q4125.39 1706.92 4123.56 1703.38 Q4121.75 1699.81 4118.12 1699.81 M4118.12 1696.11 Q4123.93 1696.11 4126.98 1700.71 Q4130.06 1705.3 4130.06 1714.05 Q4130.06 1722.77 4126.98 1727.38 Q4123.93 1731.96 4118.12 1731.96 Q4112.31 1731.96 4109.23 1727.38 Q4106.17 1722.77 4106.17 1714.05 Q4106.17 1705.3 4109.23 1700.71 Q4112.31 1696.11 4118.12 1696.11 Z" fill="#000000" fill-rule="nonzero" fill-opacity="1" /><path clip-path="url(#clip650)" d="M3400.28 1779.37 Q3400.28 1781.18 3399.15 1782.21 Q3398.02 1783.21 3396.74 1783.21 Q3395.51 1783.21 3394.87 1782.5 Q3394.22 1781.79 3394.22 1780.89 Q3394.22 1779.66 3395.13 1778.6 Q3396.03 1777.54 3397.38 1777.31 Q3396.06 1776.47 3394.1 1776.47 Q3392.81 1776.47 3391.68 1777.15 Q3390.59 1777.83 3389.91 1778.7 Q3389.26 1779.57 3388.69 1780.82 Q3388.14 1782.05 3387.91 1782.79 Q3387.72 1783.5 3387.56 1784.27 L3385.3 1793.29 Q3384.21 1797.57 3384.21 1799.08 Q3384.21 1800.95 3385.11 1802.21 Q3386.01 1803.43 3387.82 1803.43 Q3388.52 1803.43 3389.33 1803.24 Q3390.13 1803.01 3391.16 1802.43 Q3392.23 1801.82 3393.16 1800.92 Q3394.13 1799.99 3395.06 1798.41 Q3396 1796.83 3396.61 1794.8 Q3396.8 1794.09 3397.45 1794.09 Q3398.25 1794.09 3398.25 1794.74 Q3398.25 1795.28 3397.8 1796.44 Q3397.38 1797.57 3396.45 1799.05 Q3395.54 1800.5 3394.35 1801.82 Q3393.16 1803.11 3391.39 1804.01 Q3389.62 1804.91 3387.69 1804.91 Q3384.92 1804.91 3383.08 1803.43 Q3381.25 1801.95 3380.57 1799.89 Q3380.41 1800.18 3380.18 1800.56 Q3379.96 1800.95 3379.28 1801.82 Q3378.64 1802.66 3377.9 1803.3 Q3377.16 1803.91 3376 1804.4 Q3374.87 1804.91 3373.64 1804.91 Q3372.1 1804.91 3370.71 1804.46 Q3369.36 1804.01 3368.4 1802.98 Q3367.43 1801.95 3367.43 1800.53 Q3367.43 1798.95 3368.49 1797.86 Q3369.59 1796.73 3371.07 1796.73 Q3372 1796.73 3372.74 1797.28 Q3373.52 1797.83 3373.52 1799.02 Q3373.52 1800.34 3372.61 1801.34 Q3371.71 1802.34 3370.42 1802.59 Q3371.74 1803.43 3373.71 1803.43 Q3375.83 1803.43 3377.51 1801.56 Q3379.18 1799.7 3379.99 1796.57 Q3381.99 1789.07 3382.76 1785.72 Q3383.53 1782.34 3383.53 1780.89 Q3383.53 1779.53 3383.18 1778.6 Q3382.82 1777.67 3382.21 1777.25 Q3381.63 1776.8 3381.08 1776.64 Q3380.57 1776.47 3379.99 1776.47 Q3379.02 1776.47 3377.93 1776.86 Q3376.87 1777.25 3375.58 1778.15 Q3374.32 1779.02 3373.13 1780.82 Q3371.94 1782.63 3371.13 1785.11 Q3370.97 1785.85 3370.26 1785.85 Q3369.49 1785.81 3369.49 1785.17 Q3369.49 1784.62 3369.91 1783.5 Q3370.36 1782.34 3371.26 1780.89 Q3372.2 1779.44 3373.39 1778.15 Q3374.61 1776.83 3376.38 1775.93 Q3378.19 1775.03 3380.12 1775.03 Q3380.99 1775.03 3381.83 1775.22 Q3382.69 1775.38 3383.73 1775.86 Q3384.79 1776.35 3385.72 1777.41 Q3386.66 1778.47 3387.24 1780.02 Q3387.62 1779.28 3388.14 1778.57 Q3388.69 1777.86 3389.52 1776.99 Q3390.39 1776.09 3391.58 1775.57 Q3392.81 1775.03 3394.16 1775.03 Q3395.48 1775.03 3396.77 1775.38 Q3398.06 1775.7 3399.15 1776.76 Q3400.28 1777.8 3400.28 1779.37 Z" fill="#000000" fill-rule="nonzero" fill-opacity="1" /><path clip-path="url(#clip650)" d="M3406.98 1796.84 L3406.98 1795.4 Q3412.53 1795.4 3415.39 1792.44 Q3416.18 1792.44 3416.32 1792.62 Q3416.45 1792.8 3416.45 1793.64 L3416.45 1819.54 Q3416.45 1820.92 3417.13 1821.34 Q3417.8 1821.77 3420.76 1821.77 L3422.22 1821.77 L3422.22 1823.19 Q3420.6 1823.06 3414.74 1823.06 Q3408.88 1823.06 3407.28 1823.19 L3407.28 1821.77 L3408.74 1821.77 Q3411.65 1821.77 3412.35 1821.37 Q3413.05 1820.94 3413.05 1819.54 L3413.05 1795.62 Q3410.63 1796.84 3406.98 1796.84 Z" fill="#000000" fill-rule="nonzero" fill-opacity="1" /><polyline clip-path="url(#clip650)" style="stroke:#000000; stroke-linecap:round; stroke-linejoin:round; stroke-width:4; stroke-opacity:1; fill:none" points="2621.87,1652.89 2621.87,100.105 "/>
<polyline clip-path="url(#clip650)" style="stroke:#000000; stroke-linecap:round; stroke-linejoin:round; stroke-width:4; stroke-opacity:1; fill:none" points="2621.87,1582.31 2637.24,1582.31 "/>
<polyline clip-path="url(#clip650)" style="stroke:#000000; stroke-linecap:round; stroke-linejoin:round; stroke-width:4; stroke-opacity:1; fill:none" points="2621.87,1229.41 2637.24,1229.41 "/>
<polyline clip-path="url(#clip650)" style="stroke:#000000; stroke-linecap:round; stroke-linejoin:round; stroke-width:4; stroke-opacity:1; fill:none" points="2621.87,876.499 2637.24,876.499 "/>
<polyline clip-path="url(#clip650)" style="stroke:#000000; stroke-linecap:round; stroke-linejoin:round; stroke-width:4; stroke-opacity:1; fill:none" points="2621.87,523.592 2637.24,523.592 "/>
<polyline clip-path="url(#clip650)" style="stroke:#000000; stroke-linecap:round; stroke-linejoin:round; stroke-width:4; stroke-opacity:1; fill:none" points="2621.87,170.686 2637.24,170.686 "/>
<path clip-path="url(#clip650)" d="M2464 1582.76 L2493.67 1582.76 L2493.67 1586.7 L2464 1586.7 L2464 1582.76 Z" fill="#000000" fill-rule="nonzero" fill-opacity="1" /><path clip-path="url(#clip650)" d="M2504.58 1595.66 L2512.21 1595.66 L2512.21 1569.29 L2503.9 1570.96 L2503.9 1566.7 L2512.17 1565.03 L2516.84 1565.03 L2516.84 1595.66 L2524.48 1595.66 L2524.48 1599.59 L2504.58 1599.59 L2504.58 1595.66 Z" fill="#000000" fill-rule="nonzero" fill-opacity="1" /><path clip-path="url(#clip650)" d="M2543.93 1568.11 Q2540.32 1568.11 2538.49 1571.67 Q2536.68 1575.22 2536.68 1582.35 Q2536.68 1589.45 2538.49 1593.02 Q2540.32 1596.56 2543.93 1596.56 Q2547.56 1596.56 2549.37 1593.02 Q2551.2 1589.45 2551.2 1582.35 Q2551.2 1575.22 2549.37 1571.67 Q2547.56 1568.11 2543.93 1568.11 M2543.93 1564.41 Q2549.74 1564.41 2552.79 1569.01 Q2555.87 1573.6 2555.87 1582.35 Q2555.87 1591.07 2552.79 1595.68 Q2549.74 1600.26 2543.93 1600.26 Q2538.12 1600.26 2535.04 1595.68 Q2531.98 1591.07 2531.98 1582.35 Q2531.98 1573.6 2535.04 1569.01 Q2538.12 1564.41 2543.93 1564.41 Z" fill="#000000" fill-rule="nonzero" fill-opacity="1" /><path clip-path="url(#clip650)" d="M2495.15 1229.86 L2524.83 1229.86 L2524.83 1233.79 L2495.15 1233.79 L2495.15 1229.86 Z" fill="#000000" fill-rule="nonzero" fill-opacity="1" /><path clip-path="url(#clip650)" d="M2534.97 1212.13 L2553.33 1212.13 L2553.33 1216.06 L2539.25 1216.06 L2539.25 1224.53 Q2540.27 1224.19 2541.29 1224.02 Q2542.31 1223.84 2543.33 1223.84 Q2549.11 1223.84 2552.49 1227.01 Q2555.87 1230.18 2555.87 1235.6 Q2555.87 1241.18 2552.4 1244.28 Q2548.93 1247.36 2542.61 1247.36 Q2540.43 1247.36 2538.16 1246.99 Q2535.92 1246.62 2533.51 1245.87 L2533.51 1241.18 Q2535.59 1242.31 2537.82 1242.87 Q2540.04 1243.42 2542.52 1243.42 Q2546.52 1243.42 2548.86 1241.31 Q2551.2 1239.21 2551.2 1235.6 Q2551.2 1231.99 2548.86 1229.88 Q2546.52 1227.77 2542.52 1227.77 Q2540.64 1227.77 2538.77 1228.19 Q2536.91 1228.61 2534.97 1229.49 L2534.97 1212.13 Z" fill="#000000" fill-rule="nonzero" fill-opacity="1" /><path clip-path="url(#clip650)" d="M2543.93 862.297 Q2540.32 862.297 2538.49 865.862 Q2536.68 869.404 2536.68 876.533 Q2536.68 883.64 2538.49 887.205 Q2540.32 890.746 2543.93 890.746 Q2547.56 890.746 2549.37 887.205 Q2551.2 883.64 2551.2 876.533 Q2551.2 869.404 2549.37 865.862 Q2547.56 862.297 2543.93 862.297 M2543.93 858.594 Q2549.74 858.594 2552.79 863.2 Q2555.87 867.783 2555.87 876.533 Q2555.87 885.26 2552.79 889.867 Q2549.74 894.45 2543.93 894.45 Q2538.12 894.45 2535.04 889.867 Q2531.98 885.26 2531.98 876.533 Q2531.98 867.783 2535.04 863.2 Q2538.12 858.594 2543.93 858.594 Z" fill="#000000" fill-rule="nonzero" fill-opacity="1" /><path clip-path="url(#clip650)" d="M2534.97 506.312 L2553.33 506.312 L2553.33 510.248 L2539.25 510.248 L2539.25 518.72 Q2540.27 518.373 2541.29 518.21 Q2542.31 518.025 2543.33 518.025 Q2549.11 518.025 2552.49 521.197 Q2555.87 524.368 2555.87 529.785 Q2555.87 535.363 2552.4 538.465 Q2548.93 541.544 2542.61 541.544 Q2540.43 541.544 2538.16 541.173 Q2535.92 540.803 2533.51 540.062 L2533.51 535.363 Q2535.59 536.497 2537.82 537.053 Q2540.04 537.609 2542.52 537.609 Q2546.52 537.609 2548.86 535.502 Q2551.2 533.396 2551.2 529.785 Q2551.2 526.173 2548.86 524.067 Q2546.52 521.96 2542.52 521.96 Q2540.64 521.96 2538.77 522.377 Q2536.91 522.794 2534.97 523.673 L2534.97 506.312 Z" fill="#000000" fill-rule="nonzero" fill-opacity="1" /><path clip-path="url(#clip650)" d="M2504.58 184.031 L2512.21 184.031 L2512.21 157.665 L2503.9 159.332 L2503.9 155.073 L2512.17 153.406 L2516.84 153.406 L2516.84 184.031 L2524.48 184.031 L2524.48 187.966 L2504.58 187.966 L2504.58 184.031 Z" fill="#000000" fill-rule="nonzero" fill-opacity="1" /><path clip-path="url(#clip650)" d="M2543.93 156.485 Q2540.32 156.485 2538.49 160.05 Q2536.68 163.591 2536.68 170.721 Q2536.68 177.827 2538.49 181.392 Q2540.32 184.934 2543.93 184.934 Q2547.56 184.934 2549.37 181.392 Q2551.2 177.827 2551.2 170.721 Q2551.2 163.591 2549.37 160.05 Q2547.56 156.485 2543.93 156.485 M2543.93 152.781 Q2549.74 152.781 2552.79 157.388 Q2555.87 161.971 2555.87 170.721 Q2555.87 179.448 2552.79 184.054 Q2549.74 188.637 2543.93 188.637 Q2538.12 188.637 2535.04 184.054 Q2531.98 179.448 2531.98 170.721 Q2531.98 161.971 2535.04 157.388 Q2538.12 152.781 2543.93 152.781 Z" fill="#000000" fill-rule="nonzero" fill-opacity="1" /><path clip-path="url(#clip650)" d="M2349.61 876.069 Q2351.42 876.069 2352.45 877.196 Q2353.45 878.323 2353.45 879.612 Q2353.45 880.835 2352.74 881.48 Q2352.03 882.124 2351.13 882.124 Q2349.9 882.124 2348.84 881.222 Q2347.78 880.32 2347.55 878.967 Q2346.72 880.288 2346.72 882.252 Q2346.72 883.541 2347.39 884.668 Q2348.07 885.763 2348.94 886.439 Q2349.81 887.083 2351.06 887.663 Q2352.29 888.211 2353.03 888.436 Q2353.74 888.629 2354.51 888.79 L2363.53 891.045 Q2367.81 892.14 2369.32 892.14 Q2371.19 892.14 2372.45 891.238 Q2373.67 890.336 2373.67 888.533 Q2373.67 887.824 2373.48 887.019 Q2373.25 886.214 2372.67 885.183 Q2372.06 884.12 2371.16 883.186 Q2370.23 882.22 2368.65 881.286 Q2367.07 880.352 2365.04 879.74 Q2364.33 879.547 2364.33 878.903 Q2364.33 878.098 2364.98 878.098 Q2365.52 878.098 2366.68 878.549 Q2367.81 878.967 2369.29 879.901 Q2370.74 880.803 2372.06 881.995 Q2373.35 883.186 2374.25 884.958 Q2375.15 886.729 2375.15 888.661 Q2375.15 891.431 2373.67 893.267 Q2372.19 895.103 2370.13 895.779 Q2370.42 895.94 2370.81 896.165 Q2371.19 896.391 2372.06 897.067 Q2372.9 897.711 2373.54 898.452 Q2374.15 899.193 2374.64 900.352 Q2375.15 901.479 2375.15 902.703 Q2375.15 904.249 2374.7 905.634 Q2374.25 906.987 2373.22 907.953 Q2372.19 908.919 2370.77 908.919 Q2369.19 908.919 2368.1 907.856 Q2366.97 906.761 2366.97 905.28 Q2366.97 904.346 2367.52 903.605 Q2368.07 902.832 2369.26 902.832 Q2370.58 902.832 2371.58 903.734 Q2372.58 904.636 2372.83 905.924 Q2373.67 904.603 2373.67 902.639 Q2373.67 900.513 2371.8 898.838 Q2369.94 897.164 2366.81 896.359 Q2359.31 894.362 2355.96 893.589 Q2352.58 892.816 2351.13 892.816 Q2349.77 892.816 2348.84 893.17 Q2347.91 893.525 2347.49 894.136 Q2347.04 894.716 2346.88 895.264 Q2346.72 895.779 2346.72 896.359 Q2346.72 897.325 2347.1 898.42 Q2347.49 899.483 2348.39 900.771 Q2349.26 902.027 2351.06 903.218 Q2352.87 904.41 2355.35 905.215 Q2356.09 905.376 2356.09 906.085 Q2356.05 906.858 2355.41 906.858 Q2354.86 906.858 2353.74 906.439 Q2352.58 905.988 2351.13 905.086 Q2349.68 904.152 2348.39 902.961 Q2347.07 901.737 2346.17 899.966 Q2345.27 898.162 2345.27 896.23 Q2345.27 895.36 2345.46 894.523 Q2345.62 893.653 2346.1 892.623 Q2346.59 891.56 2347.65 890.626 Q2348.71 889.692 2350.26 889.112 Q2349.52 888.726 2348.81 888.211 Q2348.1 887.663 2347.23 886.826 Q2346.33 885.956 2345.81 884.765 Q2345.27 883.541 2345.27 882.188 Q2345.27 880.868 2345.62 879.579 Q2345.94 878.291 2347.01 877.196 Q2348.04 876.069 2349.61 876.069 Z" fill="#000000" fill-rule="nonzero" fill-opacity="1" /><path clip-path="url(#clip650)" d="M2393.43 869.366 Q2392.6 869.366 2392.35 869.298 Q2392.1 869.208 2391.72 868.847 L2381.84 859.988 Q2376.39 855.141 2371.63 855.141 Q2368.54 855.141 2366.33 856.764 Q2364.13 858.364 2364.13 861.318 Q2364.13 863.347 2365.37 865.06 Q2366.61 866.773 2368.81 867.562 Q2368.77 867.427 2368.77 866.954 Q2368.77 865.804 2369.49 865.173 Q2370.21 864.519 2371.18 864.519 Q2372.42 864.519 2373.03 865.331 Q2373.62 866.12 2373.62 866.909 Q2373.62 867.224 2373.55 867.653 Q2373.48 868.058 2372.85 868.712 Q2372.2 869.366 2371.05 869.366 Q2367.82 869.366 2365.25 866.931 Q2362.68 864.474 2362.68 860.732 Q2362.68 856.493 2365.21 853.72 Q2367.71 850.925 2371.63 850.925 Q2373.01 850.925 2374.27 851.353 Q2375.51 851.759 2376.48 852.323 Q2377.45 852.864 2379 854.352 Q2380.56 855.839 2381.66 857.034 Q2382.77 858.229 2385.11 860.912 L2389.87 865.804 L2389.87 857.485 Q2389.87 853.427 2389.51 853.112 Q2388.86 852.661 2385.41 852.097 L2385.41 850.925 L2393.43 852.232 L2393.43 869.366 Z" fill="#000000" fill-rule="nonzero" fill-opacity="1" /><path clip-path="url(#clip650)" d="M3190.72 14.0809 L3190.72 22.0612 Q3186.06 19.8332 3181.93 18.7395 Q3177.79 17.6457 3173.95 17.6457 Q3167.26 17.6457 3163.62 20.2383 Q3160.01 22.8309 3160.01 27.611 Q3160.01 31.6214 3162.4 33.6873 Q3164.83 35.7128 3171.56 36.9686 L3176.5 37.9813 Q3185.65 39.7232 3189.99 44.1387 Q3194.36 48.5136 3194.36 55.8863 Q3194.36 64.6767 3188.45 69.2137 Q3182.57 73.7508 3171.19 73.7508 Q3166.9 73.7508 3162.04 72.7785 Q3157.22 71.8063 3152.03 69.9024 L3152.03 61.4765 Q3157.01 64.2716 3161.79 65.6895 Q3166.57 67.1073 3171.19 67.1073 Q3178.2 67.1073 3182.01 64.3527 Q3185.82 61.598 3185.82 56.4939 Q3185.82 52.0379 3183.06 49.5264 Q3180.35 47.0148 3174.11 45.759 L3169.13 44.7868 Q3159.97 42.9639 3155.88 39.075 Q3151.79 35.1862 3151.79 28.2591 Q3151.79 20.2383 3157.42 15.6203 Q3163.09 11.0023 3173.01 11.0023 Q3177.27 11.0023 3181.68 11.7719 Q3186.1 12.5416 3190.72 14.0809 Z" fill="#000000" fill-rule="nonzero" fill-opacity="1" /><path clip-path="url(#clip650)" d="M3243.38 14.0809 L3243.38 22.0612 Q3238.72 19.8332 3234.59 18.7395 Q3230.46 17.6457 3226.61 17.6457 Q3219.92 17.6457 3216.28 20.2383 Q3212.67 22.8309 3212.67 27.611 Q3212.67 31.6214 3215.06 33.6873 Q3217.49 35.7128 3224.22 36.9686 L3229.16 37.9813 Q3238.32 39.7232 3242.65 44.1387 Q3247.02 48.5136 3247.02 55.8863 Q3247.02 64.6767 3241.11 69.2137 Q3235.24 73.7508 3223.85 73.7508 Q3219.56 73.7508 3214.7 72.7785 Q3209.88 71.8063 3204.69 69.9024 L3204.69 61.4765 Q3209.68 64.2716 3214.46 65.6895 Q3219.24 67.1073 3223.85 67.1073 Q3230.86 67.1073 3234.67 64.3527 Q3238.48 61.598 3238.48 56.4939 Q3238.48 52.0379 3235.72 49.5264 Q3233.01 47.0148 3226.77 45.759 L3221.79 44.7868 Q3212.63 42.9639 3208.54 39.075 Q3204.45 35.1862 3204.45 28.2591 Q3204.45 20.2383 3210.08 15.6203 Q3215.75 11.0023 3225.68 11.0023 Q3229.93 11.0023 3234.35 11.7719 Q3238.76 12.5416 3243.38 14.0809 Z" fill="#000000" fill-rule="nonzero" fill-opacity="1" /><path clip-path="url(#clip650)" d="M3305.07 16.7545 L3305.07 25.383 Q3300.94 21.5346 3296.24 19.6307 Q3291.58 17.7268 3286.32 17.7268 Q3275.95 17.7268 3270.44 24.0867 Q3264.93 30.4061 3264.93 42.3968 Q3264.93 54.3469 3270.44 60.7069 Q3275.95 67.0263 3286.32 67.0263 Q3291.58 67.0263 3296.24 65.1223 Q3300.94 63.2184 3305.07 59.3701 L3305.07 67.9175 Q3300.78 70.8341 3295.96 72.2924 Q3291.18 73.7508 3285.83 73.7508 Q3272.1 73.7508 3264.2 65.3654 Q3256.3 56.9395 3256.3 42.3968 Q3256.3 27.8135 3264.2 19.4281 Q3272.1 11.0023 3285.83 11.0023 Q3291.26 11.0023 3296.04 12.4606 Q3300.86 13.8784 3305.07 16.7545 Z" fill="#000000" fill-rule="nonzero" fill-opacity="1" /><path clip-path="url(#clip650)" d="M3361.67 9.62495 Q3356.24 18.942 3353.6 28.0566 Q3350.97 37.1711 3350.97 46.5287 Q3350.97 55.8863 3353.6 65.0818 Q3356.28 74.2369 3361.67 83.5134 L3355.18 83.5134 Q3349.11 73.9938 3346.07 64.7983 Q3343.07 55.6027 3343.07 46.5287 Q3343.07 37.4952 3346.07 28.3401 Q3349.07 19.1851 3355.18 9.62495 L3361.67 9.62495 Z" fill="#000000" fill-rule="nonzero" fill-opacity="1" /><path clip-path="url(#clip650)" d="M3384.63 18.8205 L3384.63 41.5461 L3394.92 41.5461 Q3400.64 41.5461 3403.75 38.5889 Q3406.87 35.6318 3406.87 30.163 Q3406.87 24.7348 3403.75 21.7777 Q3400.64 18.8205 3394.92 18.8205 L3384.63 18.8205 M3376.45 12.096 L3394.92 12.096 Q3405.09 12.096 3410.28 16.714 Q3415.5 21.2916 3415.5 30.163 Q3415.5 39.1155 3410.28 43.6931 Q3405.09 48.2706 3394.92 48.2706 L3384.63 48.2706 L3384.63 72.576 L3376.45 72.576 L3376.45 12.096 Z" fill="#000000" fill-rule="nonzero" fill-opacity="1" /><path clip-path="url(#clip650)" d="M3451.03 17.6457 Q3442.12 17.6457 3436.85 24.2892 Q3431.62 30.9327 3431.62 42.3968 Q3431.62 53.8203 3436.85 60.4638 Q3442.12 67.1073 3451.03 67.1073 Q3459.94 67.1073 3465.13 60.4638 Q3470.35 53.8203 3470.35 42.3968 Q3470.35 30.9327 3465.13 24.2892 Q3459.94 17.6457 3451.03 17.6457 M3451.03 11.0023 Q3463.75 11.0023 3471.36 19.5497 Q3478.98 28.0566 3478.98 42.3968 Q3478.98 56.6965 3471.36 65.2439 Q3463.75 73.7508 3451.03 73.7508 Q3438.27 73.7508 3430.61 65.2439 Q3423 56.737 3423 42.3968 Q3423 28.0566 3430.61 19.5497 Q3438.27 11.0023 3451.03 11.0023 Z" fill="#000000" fill-rule="nonzero" fill-opacity="1" /><path clip-path="url(#clip650)" d="M3533.02 63.9476 L3533.02 47.7034 L3519.65 47.7034 L3519.65 40.9789 L3541.12 40.9789 L3541.12 66.9452 Q3536.38 70.3075 3530.67 72.0494 Q3524.96 73.7508 3518.48 73.7508 Q3504.3 73.7508 3496.28 65.4869 Q3488.3 57.1826 3488.3 42.3968 Q3488.3 27.5705 3496.28 19.3066 Q3504.3 11.0023 3518.48 11.0023 Q3524.39 11.0023 3529.7 12.4606 Q3535.04 13.9189 3539.54 16.7545 L3539.54 25.464 Q3535 21.6156 3529.9 19.6712 Q3524.8 17.7268 3519.16 17.7268 Q3508.07 17.7268 3502.47 23.9246 Q3496.93 30.1225 3496.93 42.3968 Q3496.93 54.6305 3502.47 60.8284 Q3508.07 67.0263 3519.16 67.0263 Q3523.5 67.0263 3526.9 66.2971 Q3530.3 65.5274 3533.02 63.9476 Z" fill="#000000" fill-rule="nonzero" fill-opacity="1" /><path clip-path="url(#clip650)" d="M3556.07 12.096 L3568.26 12.096 L3583.7 53.2532 L3599.21 12.096 L3611.4 12.096 L3611.4 72.576 L3603.42 72.576 L3603.42 19.4686 L3587.83 60.9499 L3579.6 60.9499 L3564.01 19.4686 L3564.01 72.576 L3556.07 72.576 L3556.07 12.096 Z" fill="#000000" fill-rule="nonzero" fill-opacity="1" /><path clip-path="url(#clip650)" d="M3626.15 9.62495 L3632.63 9.62495 Q3638.71 19.1851 3641.7 28.3401 Q3644.74 37.4952 3644.74 46.5287 Q3644.74 55.6027 3641.7 64.7983 Q3638.71 73.9938 3632.63 83.5134 L3626.15 83.5134 Q3631.54 74.2369 3634.17 65.0818 Q3636.84 55.8863 3636.84 46.5287 Q3636.84 37.1711 3634.17 28.0566 Q3631.54 18.942 3626.15 9.62495 Z" fill="#000000" fill-rule="nonzero" fill-opacity="1" /><polyline clip-path="url(#clip651)" style="stroke:#009af9; stroke-linecap:round; stroke-linejoin:round; stroke-width:4; stroke-opacity:1; fill:none" points="2727.74,1547.02 2798.32,1476.44 2868.91,1405.86 2939.49,1335.28 3010.07,1264.7 3080.65,1194.11 3151.23,1123.53 3221.81,1052.95 3292.39,982.371 3362.97,911.789 3433.56,841.208 3504.14,770.627 3574.72,700.046 3645.3,629.464 3715.88,558.883 3786.46,488.302 3857.04,417.721 3927.62,347.139 3998.21,276.558 4068.79,205.977 "/>
<polyline clip-path="url(#clip651)" style="stroke:#e26f46; stroke-linecap:round; stroke-linejoin:round; stroke-width:4; stroke-opacity:1; fill:none" points="2727.74,205.977 2798.32,276.558 2868.91,347.139 2939.49,417.721 3010.07,488.302 3080.65,558.883 3151.23,629.464 3221.81,700.046 3292.39,770.627 3362.97,841.208 3433.56,911.789 3504.14,982.371 3574.72,1052.95 3645.3,1123.53 3715.88,1194.11 3786.46,1264.7 3857.04,1335.28 3927.62,1405.86 3998.21,1476.44 4068.79,1547.02 "/>
<circle clip-path="url(#clip651)" cx="2926.26" cy="442.535" r="18" fill="#ffa500" fill-rule="evenodd" fill-opacity="1" stroke="none"/>
<circle clip-path="url(#clip651)" cx="3247.75" cy="734.551" r="18" fill="#ffa500" fill-rule="evenodd" fill-opacity="1" stroke="#87ceeb" stroke-opacity="1" stroke-width="3.6"/>
<circle clip-path="url(#clip651)" cx="3827.6" cy="449.351" r="18" fill="#87ceeb" fill-rule="evenodd" fill-opacity="1" stroke="#ffa500" stroke-opacity="1" stroke-width="3.6"/>
<circle clip-path="url(#clip651)" cx="3631.08" cy="743.71" r="18" fill="#87ceeb" fill-rule="evenodd" fill-opacity="1" stroke="none"/>
<circle clip-path="url(#clip651)" cx="3604.91" cy="1055.96" r="18" fill="#ffa500" fill-rule="evenodd" fill-opacity="1" stroke="none"/>
<circle clip-path="url(#clip651)" cx="3247.91" cy="984.351" r="18" fill="#87ceeb" fill-rule="evenodd" fill-opacity="1" stroke="none"/>
<circle clip-path="url(#clip651)" cx="4078.68" cy="187.244" r="18" fill="#87ceeb" fill-rule="evenodd" fill-opacity="1" stroke="#ffa500" stroke-opacity="1" stroke-width="3.6"/>
<circle clip-path="url(#clip651)" cx="3373.7" cy="904.459" r="18" fill="#87ceeb" fill-rule="evenodd" fill-opacity="1" stroke="none"/>
<circle clip-path="url(#clip651)" cx="3518.99" cy="770.687" r="18" fill="#87ceeb" fill-rule="evenodd" fill-opacity="1" stroke="#ffa500" stroke-opacity="1" stroke-width="3.6"/>
<circle clip-path="url(#clip651)" cx="3016.09" cy="497.906" r="18" fill="#ffa500" fill-rule="evenodd" fill-opacity="1" stroke="#87ceeb" stroke-opacity="1" stroke-width="3.6"/>
<circle clip-path="url(#clip651)" cx="3401.26" cy="826.889" r="18" fill="#87ceeb" fill-rule="evenodd" fill-opacity="1" stroke="#ffa500" stroke-opacity="1" stroke-width="3.6"/>
<circle clip-path="url(#clip651)" cx="2750.13" cy="185.795" r="18" fill="#ffa500" fill-rule="evenodd" fill-opacity="1" stroke="#87ceeb" stroke-opacity="1" stroke-width="3.6"/>
<circle clip-path="url(#clip651)" cx="3070.85" cy="1236.29" r="18" fill="#87ceeb" fill-rule="evenodd" fill-opacity="1" stroke="#ffa500" stroke-opacity="1" stroke-width="3.6"/>
<circle clip-path="url(#clip651)" cx="3502" cy="1004.35" r="18" fill="#ffa500" fill-rule="evenodd" fill-opacity="1" stroke="#87ceeb" stroke-opacity="1" stroke-width="3.6"/>
<circle clip-path="url(#clip651)" cx="3418.76" cy="872.645" r="18" fill="#87ceeb" fill-rule="evenodd" fill-opacity="1" stroke="#ffa500" stroke-opacity="1" stroke-width="3.6"/>
<circle clip-path="url(#clip651)" cx="2891.94" cy="1378.67" r="18" fill="#87ceeb" fill-rule="evenodd" fill-opacity="1" stroke="none"/>
<circle clip-path="url(#clip651)" cx="3931.68" cy="1369.5" r="18" fill="#ffa500" fill-rule="evenodd" fill-opacity="1" stroke="none"/>
<circle clip-path="url(#clip651)" cx="3791.74" cy="461.153" r="18" fill="#87ceeb" fill-rule="evenodd" fill-opacity="1" stroke="none"/>
<circle clip-path="url(#clip651)" cx="3717.29" cy="664.661" r="18" fill="#87ceeb" fill-rule="evenodd" fill-opacity="1" stroke="#ffa500" stroke-opacity="1" stroke-width="3.6"/>
<circle clip-path="url(#clip651)" cx="3087.75" cy="1149.96" r="18" fill="#87ceeb" fill-rule="evenodd" fill-opacity="1" stroke="none"/>
<circle clip-path="url(#clip651)" cx="3582.46" cy="1076.32" r="18" fill="#ffa500" fill-rule="evenodd" fill-opacity="1" stroke="none"/>
<circle clip-path="url(#clip651)" cx="2780.99" cy="306.843" r="18" fill="#ffa500" fill-rule="evenodd" fill-opacity="1" stroke="#87ceeb" stroke-opacity="1" stroke-width="3.6"/>
<circle clip-path="url(#clip651)" cx="3293.3" cy="702.197" r="18" fill="#ffa500" fill-rule="evenodd" fill-opacity="1" stroke="none"/>
<circle clip-path="url(#clip651)" cx="2751.17" cy="1535.01" r="18" fill="#87ceeb" fill-rule="evenodd" fill-opacity="1" stroke="none"/>
<circle clip-path="url(#clip651)" cx="4018.13" cy="1463.17" r="18" fill="#ffa500" fill-rule="evenodd" fill-opacity="1" stroke="none"/>
<circle clip-path="url(#clip651)" cx="3111.26" cy="609.297" r="18" fill="#ffa500" fill-rule="evenodd" fill-opacity="1" stroke="#87ceeb" stroke-opacity="1" stroke-width="3.6"/>
<circle clip-path="url(#clip651)" cx="2894.1" cy="1373.64" r="18" fill="#87ceeb" fill-rule="evenodd" fill-opacity="1" stroke="#ffa500" stroke-opacity="1" stroke-width="3.6"/>
<circle clip-path="url(#clip651)" cx="3585.08" cy="717.409" r="18" fill="#87ceeb" fill-rule="evenodd" fill-opacity="1" stroke="none"/>
<circle clip-path="url(#clip651)" cx="3215.55" cy="1039.86" r="18" fill="#87ceeb" fill-rule="evenodd" fill-opacity="1" stroke="#ffa500" stroke-opacity="1" stroke-width="3.6"/>
<circle clip-path="url(#clip651)" cx="3930.96" cy="1437.02" r="18" fill="#ffa500" fill-rule="evenodd" fill-opacity="1" stroke="#87ceeb" stroke-opacity="1" stroke-width="3.6"/>
<circle clip-path="url(#clip651)" cx="3942.05" cy="340.605" r="18" fill="#87ceeb" fill-rule="evenodd" fill-opacity="1" stroke="#ffa500" stroke-opacity="1" stroke-width="3.6"/>
<circle clip-path="url(#clip651)" cx="3155.06" cy="649.274" r="18" fill="#ffa500" fill-rule="evenodd" fill-opacity="1" stroke="#87ceeb" stroke-opacity="1" stroke-width="3.6"/>
<circle clip-path="url(#clip651)" cx="2840.34" cy="1430.39" r="18" fill="#87ceeb" fill-rule="evenodd" fill-opacity="1" stroke="#ffa500" stroke-opacity="1" stroke-width="3.6"/>
<circle clip-path="url(#clip651)" cx="3736.86" cy="1219.8" r="18" fill="#ffa500" fill-rule="evenodd" fill-opacity="1" stroke="#87ceeb" stroke-opacity="1" stroke-width="3.6"/>
<circle clip-path="url(#clip651)" cx="3690.84" cy="1141.83" r="18" fill="#ffa500" fill-rule="evenodd" fill-opacity="1" stroke="none"/>
<circle clip-path="url(#clip651)" cx="2993.9" cy="1231.21" r="18" fill="#87ceeb" fill-rule="evenodd" fill-opacity="1" stroke="none"/>
<circle clip-path="url(#clip651)" cx="3453.9" cy="952.042" r="18" fill="#ffa500" fill-rule="evenodd" fill-opacity="1" stroke="none"/>
<circle clip-path="url(#clip651)" cx="4033.22" cy="253.56" r="18" fill="#87ceeb" fill-rule="evenodd" fill-opacity="1" stroke="none"/>
<circle clip-path="url(#clip651)" cx="2863.87" cy="301.759" r="18" fill="#ffa500" fill-rule="evenodd" fill-opacity="1" stroke="none"/>
<circle clip-path="url(#clip651)" cx="4079.22" cy="1562.77" r="18" fill="#ffa500" fill-rule="evenodd" fill-opacity="1" stroke="#87ceeb" stroke-opacity="1" stroke-width="3.6"/>
</svg>
