<?xml version="1.0" encoding="utf-8"?>
<svg xmlns="http://www.w3.org/2000/svg" xmlns:xlink="http://www.w3.org/1999/xlink" width="600" height="400" viewBox="0 0 2400 1600">
<defs>
  <clipPath id="clip510">
    <rect x="0" y="0" width="2400" height="1600"/>
  </clipPath>
</defs>
<path clip-path="url(#clip510)" d="M0 1600 L2400 1600 L2400 0 L0 0  Z" fill="#ffffff" fill-rule="evenodd" fill-opacity="1"/>
<defs>
  <clipPath id="clip511">
    <rect x="235" y="123" width="2118" height="1262"/>
  </clipPath>
</defs>
<path clip-path="url(#clip510)" d="M235.915 1384.3 L2352.76 1384.3 L2352.76 123.472 L235.915 123.472  Z" fill="#ffffff" fill-rule="evenodd" fill-opacity="1"/>
<polyline clip-path="url(#clip511)" style="stroke:#000000; stroke-linecap:round; stroke-linejoin:round; stroke-width:2; stroke-opacity:0.1; fill:none" points="655.054,1384.3 655.054,123.472 "/>
<polyline clip-path="url(#clip511)" style="stroke:#000000; stroke-linecap:round; stroke-linejoin:round; stroke-width:2; stroke-opacity:0.1; fill:none" points="1076.8,1384.3 1076.8,123.472 "/>
<polyline clip-path="url(#clip511)" style="stroke:#000000; stroke-linecap:round; stroke-linejoin:round; stroke-width:2; stroke-opacity:0.1; fill:none" points="1498.55,1384.3 1498.55,123.472 "/>
<polyline clip-path="url(#clip511)" style="stroke:#000000; stroke-linecap:round; stroke-linejoin:round; stroke-width:2; stroke-opacity:0.1; fill:none" points="1920.3,1384.3 1920.3,123.472 "/>
<polyline clip-path="url(#clip511)" style="stroke:#000000; stroke-linecap:round; stroke-linejoin:round; stroke-width:2; stroke-opacity:0.1; fill:none" points="2342.04,1384.3 2342.04,123.472 "/>
<polyline clip-path="url(#clip511)" style="stroke:#000000; stroke-linecap:round; stroke-linejoin:round; stroke-width:2; stroke-opacity:0.1; fill:none" points="235.915,1348.65 2352.76,1348.65 "/>
<polyline clip-path="url(#clip511)" style="stroke:#000000; stroke-linecap:round; stroke-linejoin:round; stroke-width:2; stroke-opacity:0.1; fill:none" points="235.915,1051.27 2352.76,1051.27 "/>
<polyline clip-path="url(#clip511)" style="stroke:#000000; stroke-linecap:round; stroke-linejoin:round; stroke-width:2; stroke-opacity:0.1; fill:none" points="235.915,753.901 2352.76,753.901 "/>
<polyline clip-path="url(#clip511)" style="stroke:#000000; stroke-linecap:round; stroke-linejoin:round; stroke-width:2; stroke-opacity:0.1; fill:none" points="235.915,456.529 2352.76,456.529 "/>
<polyline clip-path="url(#clip511)" style="stroke:#000000; stroke-linecap:round; stroke-linejoin:round; stroke-width:2; stroke-opacity:0.1; fill:none" points="235.915,159.156 2352.76,159.156 "/>
<polyline clip-path="url(#clip510)" style="stroke:#000000; stroke-linecap:round; stroke-linejoin:round; stroke-width:4; stroke-opacity:1; fill:none" points="235.915,1384.3 2352.76,1384.3 "/>
<polyline clip-path="url(#clip510)" style="stroke:#000000; stroke-linecap:round; stroke-linejoin:round; stroke-width:4; stroke-opacity:1; fill:none" points="655.054,1384.3 655.054,1365.4 "/>
<polyline clip-path="url(#clip510)" style="stroke:#000000; stroke-linecap:round; stroke-linejoin:round; stroke-width:4; stroke-opacity:1; fill:none" points="1076.8,1384.3 1076.8,1365.4 "/>
<polyline clip-path="url(#clip510)" style="stroke:#000000; stroke-linecap:round; stroke-linejoin:round; stroke-width:4; stroke-opacity:1; fill:none" points="1498.55,1384.3 1498.55,1365.4 "/>
<polyline clip-path="url(#clip510)" style="stroke:#000000; stroke-linecap:round; stroke-linejoin:round; stroke-width:4; stroke-opacity:1; fill:none" points="1920.3,1384.3 1920.3,1365.4 "/>
<polyline clip-path="url(#clip510)" style="stroke:#000000; stroke-linecap:round; stroke-linejoin:round; stroke-width:4; stroke-opacity:1; fill:none" points="2342.04,1384.3 2342.04,1365.4 "/>
<path clip-path="url(#clip510)" d="M622.328 1421.08 Q616.911 1421.08 614.168 1426.43 Q611.46 1431.74 611.46 1442.43 Q611.46 1453.09 614.168 1458.44 Q616.911 1463.75 622.328 1463.75 Q627.779 1463.75 630.488 1458.44 Q633.231 1453.09 633.231 1442.43 Q633.231 1431.74 630.488 1426.43 Q627.779 1421.08 622.328 1421.08 M622.328 1415.52 Q631.043 1415.52 635.627 1422.43 Q640.245 1429.31 640.245 1442.43 Q640.245 1455.52 635.627 1462.43 Q631.043 1469.31 622.328 1469.31 Q613.613 1469.31 608.995 1462.43 Q604.412 1455.52 604.412 1442.43 Q604.412 1429.31 608.995 1422.43 Q613.613 1415.52 622.328 1415.52 Z" fill="#000000" fill-rule="nonzero" fill-opacity="1" /><path clip-path="url(#clip510)" d="M652.571 1459.48 L659.897 1459.48 L659.897 1468.3 L652.571 1468.3 L652.571 1459.48 Z" fill="#000000" fill-rule="nonzero" fill-opacity="1" /><path clip-path="url(#clip510)" d="M681.217 1462.4 L705.696 1462.4 L705.696 1468.3 L672.779 1468.3 L672.779 1462.4 Q676.772 1458.27 683.647 1451.32 Q690.557 1444.34 692.328 1442.33 Q695.696 1438.54 697.015 1435.94 Q698.369 1433.3 698.369 1430.77 Q698.369 1426.63 695.453 1424.03 Q692.571 1421.43 687.918 1421.43 Q684.619 1421.43 680.939 1422.57 Q677.293 1423.72 673.126 1426.04 L673.126 1418.96 Q677.363 1417.26 681.043 1416.39 Q684.724 1415.52 687.779 1415.52 Q695.835 1415.52 700.626 1419.55 Q705.418 1423.58 705.418 1430.31 Q705.418 1433.51 704.203 1436.39 Q703.022 1439.24 699.862 1443.13 Q698.994 1444.13 694.342 1448.96 Q689.689 1453.75 681.217 1462.4 Z" fill="#000000" fill-rule="nonzero" fill-opacity="1" /><path clip-path="url(#clip510)" d="M1042.51 1421.08 Q1037.1 1421.08 1034.35 1426.43 Q1031.64 1431.74 1031.64 1442.43 Q1031.64 1453.09 1034.35 1458.44 Q1037.1 1463.75 1042.51 1463.75 Q1047.96 1463.75 1050.67 1458.44 Q1053.42 1453.09 1053.42 1442.43 Q1053.42 1431.74 1050.67 1426.43 Q1047.96 1421.08 1042.51 1421.08 M1042.51 1415.52 Q1051.23 1415.52 1055.81 1422.43 Q1060.43 1429.31 1060.43 1442.43 Q1060.43 1455.52 1055.81 1462.43 Q1051.23 1469.31 1042.51 1469.31 Q1033.8 1469.31 1029.18 1462.43 Q1024.6 1455.52 1024.6 1442.43 Q1024.6 1429.31 1029.18 1422.43 Q1033.8 1415.52 1042.51 1415.52 Z" fill="#000000" fill-rule="nonzero" fill-opacity="1" /><path clip-path="url(#clip510)" d="M1072.76 1459.48 L1080.08 1459.48 L1080.08 1468.3 L1072.76 1468.3 L1072.76 1459.48 Z" fill="#000000" fill-rule="nonzero" fill-opacity="1" /><path clip-path="url(#clip510)" d="M1114.63 1422.57 L1096.92 1450.24 L1114.63 1450.24 L1114.63 1422.57 M1112.79 1416.46 L1121.61 1416.46 L1121.61 1450.24 L1129.01 1450.24 L1129.01 1456.08 L1121.61 1456.08 L1121.61 1468.3 L1114.63 1468.3 L1114.63 1456.08 L1091.23 1456.08 L1091.23 1449.31 L1112.79 1416.46 Z" fill="#000000" fill-rule="nonzero" fill-opacity="1" /><path clip-path="url(#clip510)" d="M1464.5 1421.08 Q1459.09 1421.08 1456.34 1426.43 Q1453.64 1431.74 1453.64 1442.43 Q1453.64 1453.09 1456.34 1458.44 Q1459.09 1463.75 1464.5 1463.75 Q1469.95 1463.75 1472.66 1458.44 Q1475.41 1453.09 1475.41 1442.43 Q1475.41 1431.74 1472.66 1426.43 Q1469.95 1421.08 1464.5 1421.08 M1464.5 1415.52 Q1473.22 1415.52 1477.8 1422.43 Q1482.42 1429.31 1482.42 1442.43 Q1482.42 1455.52 1477.8 1462.43 Q1473.22 1469.31 1464.5 1469.31 Q1455.79 1469.31 1451.17 1462.43 Q1446.59 1455.52 1446.59 1442.43 Q1446.59 1429.31 1451.17 1422.43 Q1455.79 1415.52 1464.5 1415.52 Z" fill="#000000" fill-rule="nonzero" fill-opacity="1" /><path clip-path="url(#clip510)" d="M1494.75 1459.48 L1502.07 1459.48 L1502.07 1468.3 L1494.75 1468.3 L1494.75 1459.48 Z" fill="#000000" fill-rule="nonzero" fill-opacity="1" /><path clip-path="url(#clip510)" d="M1533.22 1439.58 Q1528.5 1439.58 1525.72 1442.81 Q1522.97 1446.04 1522.97 1451.67 Q1522.97 1457.26 1525.72 1460.52 Q1528.5 1463.75 1533.22 1463.75 Q1537.94 1463.75 1540.68 1460.52 Q1543.46 1457.26 1543.46 1451.67 Q1543.46 1446.04 1540.68 1442.81 Q1537.94 1439.58 1533.22 1439.58 M1547.14 1417.61 L1547.14 1423.99 Q1544.5 1422.74 1541.79 1422.08 Q1539.12 1421.43 1536.48 1421.43 Q1529.54 1421.43 1525.86 1426.11 Q1522.21 1430.8 1521.69 1440.28 Q1523.74 1437.26 1526.83 1435.66 Q1529.92 1434.03 1533.63 1434.03 Q1541.45 1434.03 1545.96 1438.79 Q1550.51 1443.51 1550.51 1451.67 Q1550.51 1459.65 1545.79 1464.48 Q1541.07 1469.31 1533.22 1469.31 Q1524.22 1469.31 1519.47 1462.43 Q1514.71 1455.52 1514.71 1442.43 Q1514.71 1430.14 1520.54 1422.85 Q1526.38 1415.52 1536.2 1415.52 Q1538.84 1415.52 1541.52 1416.04 Q1544.22 1416.56 1547.14 1417.61 Z" fill="#000000" fill-rule="nonzero" fill-opacity="1" /><path clip-path="url(#clip510)" d="M1886.44 1421.08 Q1881.02 1421.08 1878.28 1426.43 Q1875.57 1431.74 1875.57 1442.43 Q1875.57 1453.09 1878.28 1458.44 Q1881.02 1463.75 1886.44 1463.75 Q1891.89 1463.75 1894.6 1458.44 Q1897.34 1453.09 1897.34 1442.43 Q1897.34 1431.74 1894.6 1426.43 Q1891.89 1421.08 1886.44 1421.08 M1886.44 1415.52 Q1895.16 1415.52 1899.74 1422.43 Q1904.36 1429.31 1904.36 1442.43 Q1904.36 1455.52 1899.74 1462.43 Q1895.16 1469.31 1886.44 1469.31 Q1877.73 1469.31 1873.11 1462.43 Q1868.52 1455.52 1868.52 1442.43 Q1868.52 1429.31 1873.11 1422.43 Q1877.73 1415.52 1886.44 1415.52 Z" fill="#000000" fill-rule="nonzero" fill-opacity="1" /><path clip-path="url(#clip510)" d="M1916.68 1459.48 L1924.01 1459.48 L1924.01 1468.3 L1916.68 1468.3 L1916.68 1459.48 Z" fill="#000000" fill-rule="nonzero" fill-opacity="1" /><path clip-path="url(#clip510)" d="M1954.29 1443.68 Q1949.29 1443.68 1946.41 1446.36 Q1943.56 1449.03 1943.56 1453.72 Q1943.56 1458.4 1946.41 1461.08 Q1949.29 1463.75 1954.29 1463.75 Q1959.29 1463.75 1962.17 1461.08 Q1965.05 1458.37 1965.05 1453.72 Q1965.05 1449.03 1962.17 1446.36 Q1959.32 1443.68 1954.29 1443.68 M1947.27 1440.7 Q1942.76 1439.58 1940.23 1436.49 Q1937.73 1433.4 1937.73 1428.96 Q1937.73 1422.74 1942.14 1419.13 Q1946.58 1415.52 1954.29 1415.52 Q1962.03 1415.52 1966.44 1419.13 Q1970.85 1422.74 1970.85 1428.96 Q1970.85 1433.4 1968.32 1436.49 Q1965.82 1439.58 1961.34 1440.7 Q1966.41 1441.88 1969.22 1445.31 Q1972.07 1448.75 1972.07 1453.72 Q1972.07 1461.25 1967.45 1465.28 Q1962.86 1469.31 1954.29 1469.31 Q1945.71 1469.31 1941.09 1465.28 Q1936.51 1461.25 1936.51 1453.72 Q1936.51 1448.75 1939.36 1445.31 Q1942.2 1441.88 1947.27 1440.7 M1944.7 1429.62 Q1944.7 1433.65 1947.2 1435.9 Q1949.74 1438.16 1954.29 1438.16 Q1958.8 1438.16 1961.34 1435.9 Q1963.91 1433.65 1963.91 1429.62 Q1963.91 1425.59 1961.34 1423.33 Q1958.8 1421.08 1954.29 1421.08 Q1949.74 1421.08 1947.2 1423.33 Q1944.7 1425.59 1944.7 1429.62 Z" fill="#000000" fill-rule="nonzero" fill-opacity="1" /><path clip-path="url(#clip510)" d="M2292.77 1462.4 L2304.23 1462.4 L2304.23 1422.85 L2291.76 1425.35 L2291.76 1418.96 L2304.16 1416.46 L2311.17 1416.46 L2311.17 1462.4 L2322.63 1462.4 L2322.63 1468.3 L2292.77 1468.3 L2292.77 1462.4 Z" fill="#000000" fill-rule="nonzero" fill-opacity="1" /><path clip-path="url(#clip510)" d="M2336.8 1459.48 L2344.13 1459.48 L2344.13 1468.3 L2336.8 1468.3 L2336.8 1459.48 Z" fill="#000000" fill-rule="nonzero" fill-opacity="1" /><path clip-path="url(#clip510)" d="M2374.4 1421.08 Q2368.99 1421.08 2366.24 1426.43 Q2363.54 1431.74 2363.54 1442.43 Q2363.54 1453.09 2366.24 1458.44 Q2368.99 1463.75 2374.4 1463.75 Q2379.85 1463.75 2382.56 1458.44 Q2385.31 1453.09 2385.31 1442.43 Q2385.31 1431.74 2382.56 1426.43 Q2379.85 1421.08 2374.4 1421.08 M2374.4 1415.52 Q2383.12 1415.52 2387.7 1422.43 Q2392.32 1429.31 2392.32 1442.43 Q2392.32 1455.52 2387.7 1462.43 Q2383.12 1469.31 2374.4 1469.31 Q2365.69 1469.31 2361.07 1462.43 Q2356.49 1455.52 2356.49 1442.43 Q2356.49 1429.31 2361.07 1422.43 Q2365.69 1415.52 2374.4 1415.52 Z" fill="#000000" fill-rule="nonzero" fill-opacity="1" /><path clip-path="url(#clip510)" d="M1306.66 1528.46 Q1306.66 1529.77 1306.05 1530.1 Q1305.44 1530.38 1303.75 1530.38 L1294.76 1530.38 L1287.64 1558.67 Q1287.08 1561.15 1287.08 1563.26 Q1287.08 1565.6 1287.78 1566.63 Q1288.53 1567.67 1290.08 1567.67 Q1293.12 1567.67 1296.4 1564.9 Q1299.73 1562.14 1302.54 1555.39 Q1302.91 1554.5 1303.1 1554.31 Q1303.33 1554.08 1303.94 1554.08 Q1305.11 1554.08 1305.11 1555.02 Q1305.11 1555.35 1304.46 1556.84 Q1303.85 1558.34 1302.49 1560.54 Q1301.18 1562.75 1299.44 1564.81 Q1297.76 1566.87 1295.18 1568.37 Q1292.6 1569.82 1289.84 1569.82 Q1285.95 1569.82 1283.47 1567.34 Q1281.03 1564.85 1281.03 1560.97 Q1281.03 1559.7 1282.02 1555.67 Q1283 1551.6 1288.34 1530.38 L1279.86 1530.38 Q1278.69 1530.38 1278.22 1530.33 Q1277.8 1530.28 1277.47 1530.05 Q1277.19 1529.77 1277.19 1529.21 Q1277.19 1528.32 1277.57 1527.94 Q1277.94 1527.52 1278.41 1527.47 Q1278.93 1527.38 1280.1 1527.38 L1289.09 1527.38 L1292.84 1512.15 Q1293.21 1510.66 1294.15 1509.81 Q1295.13 1508.92 1295.7 1508.83 Q1296.26 1508.69 1296.68 1508.69 Q1297.95 1508.69 1298.69 1509.39 Q1299.44 1510.05 1299.44 1511.26 Q1299.44 1511.92 1295.51 1527.38 L1303.94 1527.38 Q1305.02 1527.38 1305.44 1527.43 Q1305.91 1527.47 1306.28 1527.71 Q1306.66 1527.94 1306.66 1528.46 Z" fill="#000000" fill-rule="nonzero" fill-opacity="1" /><polyline clip-path="url(#clip510)" style="stroke:#000000; stroke-linecap:round; stroke-linejoin:round; stroke-width:4; stroke-opacity:1; fill:none" points="235.915,1384.3 235.915,123.472 "/>
<polyline clip-path="url(#clip510)" style="stroke:#000000; stroke-linecap:round; stroke-linejoin:round; stroke-width:4; stroke-opacity:1; fill:none" points="235.915,1348.65 254.813,1348.65 "/>
<polyline clip-path="url(#clip510)" style="stroke:#000000; stroke-linecap:round; stroke-linejoin:round; stroke-width:4; stroke-opacity:1; fill:none" points="235.915,1051.27 254.813,1051.27 "/>
<polyline clip-path="url(#clip510)" style="stroke:#000000; stroke-linecap:round; stroke-linejoin:round; stroke-width:4; stroke-opacity:1; fill:none" points="235.915,753.901 254.813,753.901 "/>
<polyline clip-path="url(#clip510)" style="stroke:#000000; stroke-linecap:round; stroke-linejoin:round; stroke-width:4; stroke-opacity:1; fill:none" points="235.915,456.529 254.813,456.529 "/>
<polyline clip-path="url(#clip510)" style="stroke:#000000; stroke-linecap:round; stroke-linejoin:round; stroke-width:4; stroke-opacity:1; fill:none" points="235.915,159.156 254.813,159.156 "/>
<path clip-path="url(#clip510)" d="M68.9087 1327.35 Q63.4921 1327.35 60.749 1332.69 Q58.0407 1338 58.0407 1348.7 Q58.0407 1359.36 60.749 1364.71 Q63.4921 1370.02 68.9087 1370.02 Q74.3601 1370.02 77.0684 1364.71 Q79.8114 1359.36 79.8114 1348.7 Q79.8114 1338 77.0684 1332.69 Q74.3601 1327.35 68.9087 1327.35 M68.9087 1321.79 Q77.6239 1321.79 82.2072 1328.7 Q86.8253 1335.57 86.8253 1348.7 Q86.8253 1361.79 82.2072 1368.7 Q77.6239 1375.57 68.9087 1375.57 Q60.1935 1375.57 55.5754 1368.7 Q50.9921 1361.79 50.9921 1348.7 Q50.9921 1335.57 55.5754 1328.7 Q60.1935 1321.79 68.9087 1321.79 Z" fill="#000000" fill-rule="nonzero" fill-opacity="1" /><path clip-path="url(#clip510)" d="M99.1516 1365.75 L106.478 1365.75 L106.478 1374.57 L99.1516 1374.57 L99.1516 1365.75 Z" fill="#000000" fill-rule="nonzero" fill-opacity="1" /><path clip-path="url(#clip510)" d="M136.756 1327.35 Q131.339 1327.35 128.596 1332.69 Q125.888 1338 125.888 1348.7 Q125.888 1359.36 128.596 1364.71 Q131.339 1370.02 136.756 1370.02 Q142.207 1370.02 144.915 1364.71 Q147.658 1359.36 147.658 1348.7 Q147.658 1338 144.915 1332.69 Q142.207 1327.35 136.756 1327.35 M136.756 1321.79 Q145.471 1321.79 150.054 1328.7 Q154.672 1335.57 154.672 1348.7 Q154.672 1361.79 150.054 1368.7 Q145.471 1375.57 136.756 1375.57 Q128.04 1375.57 123.422 1368.7 Q118.839 1361.79 118.839 1348.7 Q118.839 1335.57 123.422 1328.7 Q128.04 1321.79 136.756 1321.79 Z" fill="#000000" fill-rule="nonzero" fill-opacity="1" /><path clip-path="url(#clip510)" d="M181.998 1327.35 Q176.582 1327.35 173.839 1332.69 Q171.13 1338 171.13 1348.7 Q171.13 1359.36 173.839 1364.71 Q176.582 1370.02 181.998 1370.02 Q187.45 1370.02 190.158 1364.71 Q192.901 1359.36 192.901 1348.7 Q192.901 1338 190.158 1332.69 Q187.45 1327.35 181.998 1327.35 M181.998 1321.79 Q190.714 1321.79 195.297 1328.7 Q199.915 1335.57 199.915 1348.7 Q199.915 1361.79 195.297 1368.7 Q190.714 1375.57 181.998 1375.57 Q173.283 1375.57 168.665 1368.7 Q164.082 1361.79 164.082 1348.7 Q164.082 1335.57 168.665 1328.7 Q173.283 1321.79 181.998 1321.79 Z" fill="#000000" fill-rule="nonzero" fill-opacity="1" /><path clip-path="url(#clip510)" d="M70.4017 1029.97 Q64.9851 1029.97 62.2421 1035.32 Q59.5337 1040.63 59.5337 1051.33 Q59.5337 1061.99 62.2421 1067.33 Q64.9851 1072.65 70.4017 1072.65 Q75.8531 1072.65 78.5614 1067.33 Q81.3045 1061.99 81.3045 1051.33 Q81.3045 1040.63 78.5614 1035.32 Q75.8531 1029.97 70.4017 1029.97 M70.4017 1024.42 Q79.117 1024.42 83.7003 1031.33 Q88.3183 1038.2 88.3183 1051.33 Q88.3183 1064.42 83.7003 1071.33 Q79.117 1078.2 70.4017 1078.2 Q61.6865 1078.2 57.0685 1071.33 Q52.4852 1064.42 52.4852 1051.33 Q52.4852 1038.2 57.0685 1031.33 Q61.6865 1024.42 70.4017 1024.42 Z" fill="#000000" fill-rule="nonzero" fill-opacity="1" /><path clip-path="url(#clip510)" d="M100.645 1068.37 L107.971 1068.37 L107.971 1077.19 L100.645 1077.19 L100.645 1068.37 Z" fill="#000000" fill-rule="nonzero" fill-opacity="1" /><path clip-path="url(#clip510)" d="M129.29 1071.29 L153.769 1071.29 L153.769 1077.19 L120.853 1077.19 L120.853 1071.29 Q124.846 1067.16 131.721 1060.22 Q138.631 1053.24 140.401 1051.22 Q143.769 1047.44 145.089 1044.83 Q146.443 1042.19 146.443 1039.66 Q146.443 1035.53 143.526 1032.92 Q140.644 1030.32 135.992 1030.32 Q132.693 1030.32 129.013 1031.47 Q125.367 1032.61 121.2 1034.94 L121.2 1027.85 Q125.436 1026.15 129.117 1025.28 Q132.797 1024.42 135.853 1024.42 Q143.908 1024.42 148.7 1028.44 Q153.492 1032.47 153.492 1039.21 Q153.492 1042.4 152.276 1045.28 Q151.096 1048.13 147.936 1052.02 Q147.068 1053.03 142.415 1057.85 Q137.762 1062.65 129.29 1071.29 Z" fill="#000000" fill-rule="nonzero" fill-opacity="1" /><path clip-path="url(#clip510)" d="M168.561 1025.35 L196.096 1025.35 L196.096 1031.26 L174.985 1031.26 L174.985 1043.97 Q176.512 1043.44 178.04 1043.2 Q179.568 1042.92 181.096 1042.92 Q189.776 1042.92 194.846 1047.68 Q199.915 1052.44 199.915 1060.56 Q199.915 1068.93 194.707 1073.58 Q189.498 1078.2 180.019 1078.2 Q176.755 1078.2 173.353 1077.65 Q169.985 1077.09 166.373 1075.98 L166.373 1068.93 Q169.498 1070.63 172.832 1071.47 Q176.165 1072.3 179.88 1072.3 Q185.887 1072.3 189.394 1069.14 Q192.901 1065.98 192.901 1060.56 Q192.901 1055.15 189.394 1051.99 Q185.887 1048.83 179.88 1048.83 Q177.068 1048.83 174.255 1049.45 Q171.478 1050.08 168.561 1051.4 L168.561 1025.35 Z" fill="#000000" fill-rule="nonzero" fill-opacity="1" /><path clip-path="url(#clip510)" d="M68.9087 732.6 Q63.4921 732.6 60.749 737.947 Q58.0407 743.259 58.0407 753.954 Q58.0407 764.613 60.749 769.96 Q63.4921 775.273 68.9087 775.273 Q74.3601 775.273 77.0684 769.96 Q79.8114 764.613 79.8114 753.954 Q79.8114 743.259 77.0684 737.947 Q74.3601 732.6 68.9087 732.6 M68.9087 727.044 Q77.6239 727.044 82.2072 733.954 Q86.8253 740.829 86.8253 753.954 Q86.8253 767.044 82.2072 773.953 Q77.6239 780.828 68.9087 780.828 Q60.1935 780.828 55.5754 773.953 Q50.9921 767.044 50.9921 753.954 Q50.9921 740.829 55.5754 733.954 Q60.1935 727.044 68.9087 727.044 Z" fill="#000000" fill-rule="nonzero" fill-opacity="1" /><path clip-path="url(#clip510)" d="M99.1516 771.002 L106.478 771.002 L106.478 779.821 L99.1516 779.821 L99.1516 771.002 Z" fill="#000000" fill-rule="nonzero" fill-opacity="1" /><path clip-path="url(#clip510)" d="M121.825 727.981 L149.36 727.981 L149.36 733.884 L128.249 733.884 L128.249 746.592 Q129.776 746.072 131.304 745.829 Q132.832 745.551 134.36 745.551 Q143.04 745.551 148.11 750.308 Q153.179 755.065 153.179 763.19 Q153.179 771.558 147.971 776.21 Q142.762 780.828 133.283 780.828 Q130.019 780.828 126.617 780.273 Q123.249 779.717 119.638 778.606 L119.638 771.558 Q122.763 773.259 126.096 774.092 Q129.429 774.926 133.144 774.926 Q139.151 774.926 142.658 771.766 Q146.165 768.606 146.165 763.19 Q146.165 757.773 142.658 754.613 Q139.151 751.454 133.144 751.454 Q130.332 751.454 127.519 752.079 Q124.742 752.704 121.825 754.023 L121.825 727.981 Z" fill="#000000" fill-rule="nonzero" fill-opacity="1" /><path clip-path="url(#clip510)" d="M181.998 732.6 Q176.582 732.6 173.839 737.947 Q171.13 743.259 171.13 753.954 Q171.13 764.613 173.839 769.96 Q176.582 775.273 181.998 775.273 Q187.45 775.273 190.158 769.96 Q192.901 764.613 192.901 753.954 Q192.901 743.259 190.158 737.947 Q187.45 732.6 181.998 732.6 M181.998 727.044 Q190.714 727.044 195.297 733.954 Q199.915 740.829 199.915 753.954 Q199.915 767.044 195.297 773.953 Q190.714 780.828 181.998 780.828 Q173.283 780.828 168.665 773.953 Q164.082 767.044 164.082 753.954 Q164.082 740.829 168.665 733.954 Q173.283 727.044 181.998 727.044 Z" fill="#000000" fill-rule="nonzero" fill-opacity="1" /><path clip-path="url(#clip510)" d="M70.4017 435.227 Q64.9851 435.227 62.2421 440.574 Q59.5337 445.886 59.5337 456.581 Q59.5337 467.24 62.2421 472.588 Q64.9851 477.9 70.4017 477.9 Q75.8531 477.9 78.5614 472.588 Q81.3045 467.24 81.3045 456.581 Q81.3045 445.886 78.5614 440.574 Q75.8531 435.227 70.4017 435.227 M70.4017 429.671 Q79.117 429.671 83.7003 436.581 Q88.3183 443.456 88.3183 456.581 Q88.3183 469.671 83.7003 476.581 Q79.117 483.456 70.4017 483.456 Q61.6865 483.456 57.0685 476.581 Q52.4852 469.671 52.4852 456.581 Q52.4852 443.456 57.0685 436.581 Q61.6865 429.671 70.4017 429.671 Z" fill="#000000" fill-rule="nonzero" fill-opacity="1" /><path clip-path="url(#clip510)" d="M100.645 473.629 L107.971 473.629 L107.971 482.449 L100.645 482.449 L100.645 473.629 Z" fill="#000000" fill-rule="nonzero" fill-opacity="1" /><path clip-path="url(#clip510)" d="M121.478 430.609 L154.811 430.609 L154.811 433.595 L135.992 482.449 L128.665 482.449 L146.374 436.511 L121.478 436.511 L121.478 430.609 Z" fill="#000000" fill-rule="nonzero" fill-opacity="1" /><path clip-path="url(#clip510)" d="M168.561 430.609 L196.096 430.609 L196.096 436.511 L174.985 436.511 L174.985 449.22 Q176.512 448.699 178.04 448.456 Q179.568 448.178 181.096 448.178 Q189.776 448.178 194.846 452.935 Q199.915 457.692 199.915 465.817 Q199.915 474.185 194.707 478.838 Q189.498 483.456 180.019 483.456 Q176.755 483.456 173.353 482.9 Q169.985 482.345 166.373 481.233 L166.373 474.185 Q169.498 475.886 172.832 476.72 Q176.165 477.553 179.88 477.553 Q185.887 477.553 189.394 474.393 Q192.901 471.233 192.901 465.817 Q192.901 460.4 189.394 457.241 Q185.887 454.081 179.88 454.081 Q177.068 454.081 174.255 454.706 Q171.478 455.331 168.561 456.65 L168.561 430.609 Z" fill="#000000" fill-rule="nonzero" fill-opacity="1" /><path clip-path="url(#clip510)" d="M55.124 179.173 L66.5823 179.173 L66.5823 139.625 L54.1171 142.125 L54.1171 135.736 L66.5129 133.236 L73.5267 133.236 L73.5267 179.173 L84.985 179.173 L84.985 185.076 L55.124 185.076 L55.124 179.173 Z" fill="#000000" fill-rule="nonzero" fill-opacity="1" /><path clip-path="url(#clip510)" d="M99.1516 176.257 L106.478 176.257 L106.478 185.076 L99.1516 185.076 L99.1516 176.257 Z" fill="#000000" fill-rule="nonzero" fill-opacity="1" /><path clip-path="url(#clip510)" d="M136.756 137.854 Q131.339 137.854 128.596 143.201 Q125.888 148.514 125.888 159.208 Q125.888 169.868 128.596 175.215 Q131.339 180.527 136.756 180.527 Q142.207 180.527 144.915 175.215 Q147.658 169.868 147.658 159.208 Q147.658 148.514 144.915 143.201 Q142.207 137.854 136.756 137.854 M136.756 132.298 Q145.471 132.298 150.054 139.208 Q154.672 146.083 154.672 159.208 Q154.672 172.298 150.054 179.208 Q145.471 186.083 136.756 186.083 Q128.04 186.083 123.422 179.208 Q118.839 172.298 118.839 159.208 Q118.839 146.083 123.422 139.208 Q128.04 132.298 136.756 132.298 Z" fill="#000000" fill-rule="nonzero" fill-opacity="1" /><path clip-path="url(#clip510)" d="M181.998 137.854 Q176.582 137.854 173.839 143.201 Q171.13 148.514 171.13 159.208 Q171.13 169.868 173.839 175.215 Q176.582 180.527 181.998 180.527 Q187.45 180.527 190.158 175.215 Q192.901 169.868 192.901 159.208 Q192.901 148.514 190.158 143.201 Q187.45 137.854 181.998 137.854 M181.998 132.298 Q190.714 132.298 195.297 139.208 Q199.915 146.083 199.915 159.208 Q199.915 172.298 195.297 179.208 Q190.714 186.083 181.998 186.083 Q173.283 186.083 168.665 179.208 Q164.082 172.298 164.082 159.208 Q164.082 146.083 168.665 139.208 Q173.283 132.298 181.998 132.298 Z" fill="#000000" fill-rule="nonzero" fill-opacity="1" /><path clip-path="url(#clip510)" d="M922.179 16.7545 L922.179 25.383 Q918.047 21.5346 913.348 19.6307 Q908.689 17.7268 903.423 17.7268 Q893.053 17.7268 887.544 24.0867 Q882.034 30.4061 882.034 42.3968 Q882.034 54.3469 887.544 60.7069 Q893.053 67.0263 903.423 67.0263 Q908.689 67.0263 913.348 65.1223 Q918.047 63.2184 922.179 59.3701 L922.179 67.9175 Q917.885 70.8341 913.064 72.2924 Q908.284 73.7508 902.937 73.7508 Q889.204 73.7508 881.305 65.3654 Q873.406 56.9395 873.406 42.3968 Q873.406 27.8135 881.305 19.4281 Q889.204 11.0023 902.937 11.0023 Q908.365 11.0023 913.145 12.4606 Q917.966 13.8784 922.179 16.7545 Z" fill="#000000" fill-rule="nonzero" fill-opacity="1" /><path clip-path="url(#clip510)" d="M952.075 32.4315 Q946.079 32.4315 942.595 37.1306 Q939.112 41.7891 939.112 49.9314 Q939.112 58.0738 942.555 62.7728 Q946.039 67.4314 952.075 67.4314 Q958.029 67.4314 961.513 62.7323 Q964.997 58.0333 964.997 49.9314 Q964.997 41.8701 961.513 37.1711 Q958.029 32.4315 952.075 32.4315 M952.075 26.1121 Q961.797 26.1121 967.346 32.4315 Q972.896 38.7509 972.896 49.9314 Q972.896 61.0714 967.346 67.4314 Q961.797 73.7508 952.075 73.7508 Q942.312 73.7508 936.762 67.4314 Q931.253 61.0714 931.253 49.9314 Q931.253 38.7509 936.762 32.4315 Q942.312 26.1121 952.075 26.1121 Z" fill="#000000" fill-rule="nonzero" fill-opacity="1" /><path clip-path="url(#clip510)" d="M985.251 9.54393 L992.705 9.54393 L992.705 72.576 L985.251 72.576 L985.251 9.54393 Z" fill="#000000" fill-rule="nonzero" fill-opacity="1" /><path clip-path="url(#clip510)" d="M1007.53 54.671 L1007.53 27.2059 L1014.99 27.2059 L1014.99 54.3874 Q1014.99 60.8284 1017.5 64.0691 Q1020.01 67.2693 1025.03 67.2693 Q1031.07 67.2693 1034.55 63.421 Q1038.08 59.5726 1038.08 52.9291 L1038.08 27.2059 L1045.53 27.2059 L1045.53 72.576 L1038.08 72.576 L1038.08 65.6084 Q1035.36 69.7404 1031.76 71.7658 Q1028.19 73.7508 1023.45 73.7508 Q1015.63 73.7508 1011.58 68.8897 Q1007.53 64.0286 1007.53 54.671 M1026.29 26.1121 L1026.29 26.1121 Z" fill="#000000" fill-rule="nonzero" fill-opacity="1" /><path clip-path="url(#clip510)" d="M1096.21 35.9153 Q1099 30.8922 1102.89 28.5022 Q1106.78 26.1121 1112.04 26.1121 Q1119.13 26.1121 1122.98 31.0947 Q1126.83 36.0368 1126.83 45.1919 L1126.83 72.576 L1119.34 72.576 L1119.34 45.4349 Q1119.34 38.913 1117.03 35.7533 Q1114.72 32.5936 1109.98 32.5936 Q1104.19 32.5936 1100.82 36.4419 Q1097.46 40.2903 1097.46 46.9338 L1097.46 72.576 L1089.97 72.576 L1089.97 45.4349 Q1089.97 38.8725 1087.66 35.7533 Q1085.35 32.5936 1080.53 32.5936 Q1074.82 32.5936 1071.45 36.4824 Q1068.09 40.3308 1068.09 46.9338 L1068.09 72.576 L1060.6 72.576 L1060.6 27.2059 L1068.09 27.2059 L1068.09 34.2544 Q1070.64 30.082 1074.21 28.0971 Q1077.77 26.1121 1082.68 26.1121 Q1087.62 26.1121 1091.06 28.6237 Q1094.54 31.1352 1096.21 35.9153 Z" fill="#000000" fill-rule="nonzero" fill-opacity="1" /><path clip-path="url(#clip510)" d="M1179.41 45.1919 L1179.41 72.576 L1171.96 72.576 L1171.96 45.4349 Q1171.96 38.994 1169.45 35.7938 Q1166.93 32.5936 1161.91 32.5936 Q1155.88 32.5936 1152.39 36.4419 Q1148.91 40.2903 1148.91 46.9338 L1148.91 72.576 L1141.41 72.576 L1141.41 27.2059 L1148.91 27.2059 L1148.91 34.2544 Q1151.58 30.163 1155.19 28.1376 Q1158.83 26.1121 1163.57 26.1121 Q1171.39 26.1121 1175.4 30.9732 Q1179.41 35.7938 1179.41 45.1919 Z" fill="#000000" fill-rule="nonzero" fill-opacity="1" /><path clip-path="url(#clip510)" d="M1223.2 28.5427 L1223.2 35.5912 Q1220.04 33.9709 1216.64 33.1607 Q1213.24 32.3505 1209.59 32.3505 Q1204.04 32.3505 1201.25 34.0519 Q1198.49 35.7533 1198.49 39.156 Q1198.49 41.7486 1200.48 43.2475 Q1202.46 44.7058 1208.46 46.0426 L1211.01 46.6097 Q1218.95 48.3111 1222.27 51.4303 Q1225.63 54.509 1225.63 60.0587 Q1225.63 66.3781 1220.61 70.0644 Q1215.63 73.7508 1206.88 73.7508 Q1203.23 73.7508 1199.26 73.0216 Q1195.33 72.3329 1190.96 70.9151 L1190.96 63.2184 Q1195.09 65.3654 1199.1 66.4591 Q1203.11 67.5124 1207.04 67.5124 Q1212.3 67.5124 1215.14 65.73 Q1217.98 63.9071 1217.98 60.6258 Q1217.98 57.5877 1215.91 55.9673 Q1213.88 54.3469 1206.96 52.8481 L1204.36 52.2405 Q1197.44 50.7821 1194.36 47.7845 Q1191.28 44.7463 1191.28 39.4801 Q1191.28 33.0797 1195.82 29.5959 Q1200.35 26.1121 1208.7 26.1121 Q1212.83 26.1121 1216.48 26.7198 Q1220.12 27.3274 1223.2 28.5427 Z" fill="#000000" fill-rule="nonzero" fill-opacity="1" /><path clip-path="url(#clip510)" d="M1281.45 32.4315 Q1275.46 32.4315 1271.97 37.1306 Q1268.49 41.7891 1268.49 49.9314 Q1268.49 58.0738 1271.93 62.7728 Q1275.42 67.4314 1281.45 67.4314 Q1287.41 67.4314 1290.89 62.7323 Q1294.38 58.0333 1294.38 49.9314 Q1294.38 41.8701 1290.89 37.1711 Q1287.41 32.4315 1281.45 32.4315 M1281.45 26.1121 Q1291.18 26.1121 1296.73 32.4315 Q1302.28 38.7509 1302.28 49.9314 Q1302.28 61.0714 1296.73 67.4314 Q1291.18 73.7508 1281.45 73.7508 Q1271.69 73.7508 1266.14 67.4314 Q1260.63 61.0714 1260.63 49.9314 Q1260.63 38.7509 1266.14 32.4315 Q1271.69 26.1121 1281.45 26.1121 Z" fill="#000000" fill-rule="nonzero" fill-opacity="1" /><path clip-path="url(#clip510)" d="M1337.6 9.54393 L1337.6 15.7418 L1330.47 15.7418 Q1326.46 15.7418 1324.88 17.3622 Q1323.34 18.9825 1323.34 23.1955 L1323.34 27.2059 L1335.61 27.2059 L1335.61 32.9987 L1323.34 32.9987 L1323.34 72.576 L1315.85 72.576 L1315.85 32.9987 L1308.72 32.9987 L1308.72 27.2059 L1315.85 27.2059 L1315.85 24.0462 Q1315.85 16.471 1319.37 13.0277 Q1322.89 9.54393 1330.55 9.54393 L1337.6 9.54393 Z" fill="#000000" fill-rule="nonzero" fill-opacity="1" /><path clip-path="url(#clip510)" d="M1405.53 35.9153 Q1408.33 30.8922 1412.22 28.5022 Q1416.11 26.1121 1421.37 26.1121 Q1428.46 26.1121 1432.31 31.0947 Q1436.16 36.0368 1436.16 45.1919 L1436.16 72.576 L1428.66 72.576 L1428.66 45.4349 Q1428.66 38.913 1426.35 35.7533 Q1424.05 32.5936 1419.31 32.5936 Q1413.51 32.5936 1410.15 36.4419 Q1406.79 40.2903 1406.79 46.9338 L1406.79 72.576 L1399.29 72.576 L1399.29 45.4349 Q1399.29 38.8725 1396.99 35.7533 Q1394.68 32.5936 1389.86 32.5936 Q1384.14 32.5936 1380.78 36.4824 Q1377.42 40.3308 1377.42 46.9338 L1377.42 72.576 L1369.93 72.576 L1369.93 27.2059 L1377.42 27.2059 L1377.42 34.2544 Q1379.97 30.082 1383.54 28.0971 Q1387.1 26.1121 1392 26.1121 Q1396.94 26.1121 1400.39 28.6237 Q1403.87 31.1352 1405.53 35.9153 Z" fill="#000000" fill-rule="nonzero" fill-opacity="1" /><path clip-path="url(#clip510)" d="M1471.64 49.7694 Q1462.61 49.7694 1459.13 51.8354 Q1455.64 53.9013 1455.64 58.8839 Q1455.64 62.8538 1458.24 65.2034 Q1460.87 67.5124 1465.36 67.5124 Q1471.56 67.5124 1475.29 63.1374 Q1479.06 58.7219 1479.06 51.4303 L1479.06 49.7694 L1471.64 49.7694 M1486.51 46.6907 L1486.51 72.576 L1479.06 72.576 L1479.06 65.6895 Q1476.5 69.8214 1472.7 71.8063 Q1468.89 73.7508 1463.38 73.7508 Q1456.41 73.7508 1452.28 69.8619 Q1448.19 65.9325 1448.19 59.3701 Q1448.19 51.7138 1453.29 47.825 Q1458.44 43.9361 1468.61 43.9361 L1479.06 43.9361 L1479.06 43.2069 Q1479.06 38.0623 1475.65 35.2672 Q1472.29 32.4315 1466.17 32.4315 Q1462.29 32.4315 1458.6 33.3632 Q1454.91 34.295 1451.51 36.1584 L1451.51 29.2718 Q1455.6 27.692 1459.45 26.9223 Q1463.3 26.1121 1466.94 26.1121 Q1476.79 26.1121 1481.65 31.2163 Q1486.51 36.3204 1486.51 46.6907 Z" fill="#000000" fill-rule="nonzero" fill-opacity="1" /><path clip-path="url(#clip510)" d="M1509.24 14.324 L1509.24 27.2059 L1524.59 27.2059 L1524.59 32.9987 L1509.24 32.9987 L1509.24 57.6282 Q1509.24 63.1779 1510.73 64.7578 Q1512.27 66.3376 1516.93 66.3376 L1524.59 66.3376 L1524.59 72.576 L1516.93 72.576 Q1508.3 72.576 1505.02 69.3758 Q1501.74 66.1351 1501.74 57.6282 L1501.74 32.9987 L1496.27 32.9987 L1496.27 27.2059 L1501.74 27.2059 L1501.74 14.324 L1509.24 14.324 Z" fill="#000000" fill-rule="nonzero" fill-opacity="1" /><path clip-path="url(#clip510)" d="M1560.68 34.1734 Q1559.43 33.4443 1557.93 33.1202 Q1556.47 32.7556 1554.69 32.7556 Q1548.37 32.7556 1544.96 36.8875 Q1541.6 40.9789 1541.6 48.6757 L1541.6 72.576 L1534.11 72.576 L1534.11 27.2059 L1541.6 27.2059 L1541.6 34.2544 Q1543.95 30.1225 1547.72 28.1376 Q1551.49 26.1121 1556.87 26.1121 Q1557.64 26.1121 1558.58 26.2337 Q1559.51 26.3147 1560.64 26.5172 L1560.68 34.1734 Z" fill="#000000" fill-rule="nonzero" fill-opacity="1" /><path clip-path="url(#clip510)" d="M1568.5 27.2059 L1575.95 27.2059 L1575.95 72.576 L1568.5 72.576 L1568.5 27.2059 M1568.5 9.54393 L1575.95 9.54393 L1575.95 18.9825 L1568.5 18.9825 L1568.5 9.54393 Z" fill="#000000" fill-rule="nonzero" fill-opacity="1" /><path clip-path="url(#clip510)" d="M1629.26 27.2059 L1612.86 49.2833 L1630.11 72.576 L1621.32 72.576 L1608.12 54.752 L1594.91 72.576 L1586.12 72.576 L1603.74 48.8377 L1587.62 27.2059 L1596.41 27.2059 L1608.44 43.369 L1620.47 27.2059 L1629.26 27.2059 Z" fill="#000000" fill-rule="nonzero" fill-opacity="1" /><path clip-path="url(#clip510)" d="M1687.56 20.1573 L1676.46 50.2555 L1698.7 50.2555 L1687.56 20.1573 M1682.94 12.096 L1692.22 12.096 L1715.26 72.576 L1706.76 72.576 L1701.25 57.061 L1673.99 57.061 L1668.48 72.576 L1659.85 72.576 L1682.94 12.096 Z" fill="#000000" fill-rule="nonzero" fill-opacity="1" /><polyline clip-path="url(#clip511)" style="stroke:#009af9; stroke-linecap:round; stroke-linejoin:round; stroke-width:8; stroke-opacity:1; fill:none" points="295.826,159.156 416.654,159.156 480.005,159.156 640.906,159.156 974.509,159.156 1125.13,159.156 1193.28,159.156 1388.14,159.156 1725.31,159.156 1808.11,159.156 1808.41,159.156 1864.1,159.156 2130.67,159.156 2216.75,159.156 2292.85,159.156 "/>
<circle clip-path="url(#clip511)" cx="295.826" cy="159.156" r="21.6" fill="#009af9" fill-rule="evenodd" fill-opacity="1" stroke="none"/>
<circle clip-path="url(#clip511)" cx="416.654" cy="159.156" r="21.6" fill="#009af9" fill-rule="evenodd" fill-opacity="1" stroke="none"/>
<circle clip-path="url(#clip511)" cx="480.005" cy="159.156" r="21.6" fill="#009af9" fill-rule="evenodd" fill-opacity="1" stroke="none"/>
<circle clip-path="url(#clip511)" cx="640.906" cy="159.156" r="21.6" fill="#009af9" fill-rule="evenodd" fill-opacity="1" stroke="none"/>
<circle clip-path="url(#clip511)" cx="974.509" cy="159.156" r="21.6" fill="#009af9" fill-rule="evenodd" fill-opacity="1" stroke="none"/>
<circle clip-path="url(#clip511)" cx="1125.13" cy="159.156" r="21.6" fill="#009af9" fill-rule="evenodd" fill-opacity="1" stroke="none"/>
<circle clip-path="url(#clip511)" cx="1193.28" cy="159.156" r="21.6" fill="#009af9" fill-rule="evenodd" fill-opacity="1" stroke="none"/>
<circle clip-path="url(#clip511)" cx="1388.14" cy="159.156" r="21.6" fill="#009af9" fill-rule="evenodd" fill-opacity="1" stroke="none"/>
<circle clip-path="url(#clip511)" cx="1725.31" cy="159.156" r="21.6" fill="#009af9" fill-rule="evenodd" fill-opacity="1" stroke="none"/>
<circle clip-path="url(#clip511)" cx="1808.11" cy="159.156" r="21.6" fill="#009af9" fill-rule="evenodd" fill-opacity="1" stroke="none"/>
<circle clip-path="url(#clip511)" cx="1808.41" cy="159.156" r="21.6" fill="#009af9" fill-rule="evenodd" fill-opacity="1" stroke="none"/>
<circle clip-path="url(#clip511)" cx="1864.1" cy="159.156" r="21.6" fill="#009af9" fill-rule="evenodd" fill-opacity="1" stroke="none"/>
<circle clip-path="url(#clip511)" cx="2130.67" cy="159.156" r="21.6" fill="#009af9" fill-rule="evenodd" fill-opacity="1" stroke="none"/>
<circle clip-path="url(#clip511)" cx="2216.75" cy="159.156" r="21.6" fill="#009af9" fill-rule="evenodd" fill-opacity="1" stroke="none"/>
<circle clip-path="url(#clip511)" cx="2292.85" cy="159.156" r="21.6" fill="#009af9" fill-rule="evenodd" fill-opacity="1" stroke="none"/>
<polyline clip-path="url(#clip511)" style="stroke:#e26f46; stroke-linecap:round; stroke-linejoin:round; stroke-width:8; stroke-opacity:1; fill:none" points="295.826,1313.38 416.654,1245.22 480.005,1209.49 640.906,1118.73 974.509,930.551 1125.13,845.59 1193.28,807.145 1388.14,697.231 1725.31,507.042 1808.11,460.334 1808.41,460.165 1864.1,428.75 2130.67,278.384 2216.75,229.83 2292.85,186.907 "/>
<circle clip-path="url(#clip511)" cx="295.826" cy="1313.38" r="21.6" fill="#e26f46" fill-rule="evenodd" fill-opacity="1" stroke="none"/>
<circle clip-path="url(#clip511)" cx="416.654" cy="1245.22" r="21.6" fill="#e26f46" fill-rule="evenodd" fill-opacity="1" stroke="none"/>
<circle clip-path="url(#clip511)" cx="480.005" cy="1209.49" r="21.6" fill="#e26f46" fill-rule="evenodd" fill-opacity="1" stroke="none"/>
<circle clip-path="url(#clip511)" cx="640.906" cy="1118.73" r="21.6" fill="#e26f46" fill-rule="evenodd" fill-opacity="1" stroke="none"/>
<circle clip-path="url(#clip511)" cx="974.509" cy="930.551" r="21.6" fill="#e26f46" fill-rule="evenodd" fill-opacity="1" stroke="none"/>
<circle clip-path="url(#clip511)" cx="1125.13" cy="845.59" r="21.6" fill="#e26f46" fill-rule="evenodd" fill-opacity="1" stroke="none"/>
<circle clip-path="url(#clip511)" cx="1193.28" cy="807.145" r="21.6" fill="#e26f46" fill-rule="evenodd" fill-opacity="1" stroke="none"/>
<circle clip-path="url(#clip511)" cx="1388.14" cy="697.231" r="21.6" fill="#e26f46" fill-rule="evenodd" fill-opacity="1" stroke="none"/>
<circle clip-path="url(#clip511)" cx="1725.31" cy="507.042" r="21.6" fill="#e26f46" fill-rule="evenodd" fill-opacity="1" stroke="none"/>
<circle clip-path="url(#clip511)" cx="1808.11" cy="460.334" r="21.6" fill="#e26f46" fill-rule="evenodd" fill-opacity="1" stroke="none"/>
<circle clip-path="url(#clip511)" cx="1808.41" cy="460.165" r="21.6" fill="#e26f46" fill-rule="evenodd" fill-opacity="1" stroke="none"/>
<circle clip-path="url(#clip511)" cx="1864.1" cy="428.75" r="21.6" fill="#e26f46" fill-rule="evenodd" fill-opacity="1" stroke="none"/>
<circle clip-path="url(#clip511)" cx="2130.67" cy="278.384" r="21.6" fill="#e26f46" fill-rule="evenodd" fill-opacity="1" stroke="none"/>
<circle clip-path="url(#clip511)" cx="2216.75" cy="229.83" r="21.6" fill="#e26f46" fill-rule="evenodd" fill-opacity="1" stroke="none"/>
<circle clip-path="url(#clip511)" cx="2292.85" cy="186.907" r="21.6" fill="#e26f46" fill-rule="evenodd" fill-opacity="1" stroke="none"/>
<polyline clip-path="url(#clip511)" style="stroke:#3da44d; stroke-linecap:round; stroke-linejoin:round; stroke-width:8; stroke-opacity:1; fill:none" points="295.826,1347.6 416.654,1339.65 480.005,1332.37 640.906,1304.21 974.509,1201.69 1125.13,1135.9 1193.28,1102.13 1388.14,991.904 1725.31,753.183 1808.11,685.254 1808.41,685.002 1864.1,637.241 2130.67,385.661 2216.75,296.304 2292.85,214.01 "/>
<circle clip-path="url(#clip511)" cx="295.826" cy="1347.6" r="21.6" fill="#3da44d" fill-rule="evenodd" fill-opacity="1" stroke="none"/>
<circle clip-path="url(#clip511)" cx="416.654" cy="1339.65" r="21.6" fill="#3da44d" fill-rule="evenodd" fill-opacity="1" stroke="none"/>
<circle clip-path="url(#clip511)" cx="480.005" cy="1332.37" r="21.6" fill="#3da44d" fill-rule="evenodd" fill-opacity="1" stroke="none"/>
<circle clip-path="url(#clip511)" cx="640.906" cy="1304.21" r="21.6" fill="#3da44d" fill-rule="evenodd" fill-opacity="1" stroke="none"/>
<circle clip-path="url(#clip511)" cx="974.509" cy="1201.69" r="21.6" fill="#3da44d" fill-rule="evenodd" fill-opacity="1" stroke="none"/>
<circle clip-path="url(#clip511)" cx="1125.13" cy="1135.9" r="21.6" fill="#3da44d" fill-rule="evenodd" fill-opacity="1" stroke="none"/>
<circle clip-path="url(#clip511)" cx="1193.28" cy="1102.13" r="21.6" fill="#3da44d" fill-rule="evenodd" fill-opacity="1" stroke="none"/>
<circle clip-path="url(#clip511)" cx="1388.14" cy="991.904" r="21.6" fill="#3da44d" fill-rule="evenodd" fill-opacity="1" stroke="none"/>
<circle clip-path="url(#clip511)" cx="1725.31" cy="753.183" r="21.6" fill="#3da44d" fill-rule="evenodd" fill-opacity="1" stroke="none"/>
<circle clip-path="url(#clip511)" cx="1808.11" cy="685.254" r="21.6" fill="#3da44d" fill-rule="evenodd" fill-opacity="1" stroke="none"/>
<circle clip-path="url(#clip511)" cx="1808.41" cy="685.002" r="21.6" fill="#3da44d" fill-rule="evenodd" fill-opacity="1" stroke="none"/>
<circle clip-path="url(#clip511)" cx="1864.1" cy="637.241" r="21.6" fill="#3da44d" fill-rule="evenodd" fill-opacity="1" stroke="none"/>
<circle clip-path="url(#clip511)" cx="2130.67" cy="385.661" r="21.6" fill="#3da44d" fill-rule="evenodd" fill-opacity="1" stroke="none"/>
<circle clip-path="url(#clip511)" cx="2216.75" cy="296.304" r="21.6" fill="#3da44d" fill-rule="evenodd" fill-opacity="1" stroke="none"/>
<circle clip-path="url(#clip511)" cx="2292.85" cy="214.01" r="21.6" fill="#3da44d" fill-rule="evenodd" fill-opacity="1" stroke="none"/>
<polyline clip-path="url(#clip511)" style="stroke:#c271d2; stroke-linecap:round; stroke-linejoin:round; stroke-width:8; stroke-opacity:1; fill:none" points="295.826,1348.62 416.654,1347.87 480.005,1346.74 640.906,1340.06 974.509,1296.99 1125.13,1258.67 1193.28,1236.43 1388.14,1153.28 1725.31,927.336 1808.11,853.225 1808.41,852.942 1864.1,798.479 2130.67,482.185 2216.75,358.83 2292.85,240.482 "/>
<circle clip-path="url(#clip511)" cx="295.826" cy="1348.62" r="21.6" fill="#c271d2" fill-rule="evenodd" fill-opacity="1" stroke="none"/>
<circle clip-path="url(#clip511)" cx="416.654" cy="1347.87" r="21.6" fill="#c271d2" fill-rule="evenodd" fill-opacity="1" stroke="none"/>
<circle clip-path="url(#clip511)" cx="480.005" cy="1346.74" r="21.6" fill="#c271d2" fill-rule="evenodd" fill-opacity="1" stroke="none"/>
<circle clip-path="url(#clip511)" cx="640.906" cy="1340.06" r="21.6" fill="#c271d2" fill-rule="evenodd" fill-opacity="1" stroke="none"/>
<circle clip-path="url(#clip511)" cx="974.509" cy="1296.99" r="21.6" fill="#c271d2" fill-rule="evenodd" fill-opacity="1" stroke="none"/>
<circle clip-path="url(#clip511)" cx="1125.13" cy="1258.67" r="21.6" fill="#c271d2" fill-rule="evenodd" fill-opacity="1" stroke="none"/>
<circle clip-path="url(#clip511)" cx="1193.28" cy="1236.43" r="21.6" fill="#c271d2" fill-rule="evenodd" fill-opacity="1" stroke="none"/>
<circle clip-path="url(#clip511)" cx="1388.14" cy="1153.28" r="21.6" fill="#c271d2" fill-rule="evenodd" fill-opacity="1" stroke="none"/>
<circle clip-path="url(#clip511)" cx="1725.31" cy="927.336" r="21.6" fill="#c271d2" fill-rule="evenodd" fill-opacity="1" stroke="none"/>
<circle clip-path="url(#clip511)" cx="1808.11" cy="853.225" r="21.6" fill="#c271d2" fill-rule="evenodd" fill-opacity="1" stroke="none"/>
<circle clip-path="url(#clip511)" cx="1808.41" cy="852.942" r="21.6" fill="#c271d2" fill-rule="evenodd" fill-opacity="1" stroke="none"/>
<circle clip-path="url(#clip511)" cx="1864.1" cy="798.479" r="21.6" fill="#c271d2" fill-rule="evenodd" fill-opacity="1" stroke="none"/>
<circle clip-path="url(#clip511)" cx="2130.67" cy="482.185" r="21.6" fill="#c271d2" fill-rule="evenodd" fill-opacity="1" stroke="none"/>
<circle clip-path="url(#clip511)" cx="2216.75" cy="358.83" r="21.6" fill="#c271d2" fill-rule="evenodd" fill-opacity="1" stroke="none"/>
<circle clip-path="url(#clip511)" cx="2292.85" cy="240.482" r="21.6" fill="#c271d2" fill-rule="evenodd" fill-opacity="1" stroke="none"/>
<path clip-path="url(#clip510)" d="M306.476 977.354 L738.975 977.354 L738.975 523.754 L306.476 523.754  Z" fill="#ffffff" fill-rule="evenodd" fill-opacity="1"/>
<polyline clip-path="url(#clip510)" style="stroke:#000000; stroke-linecap:round; stroke-linejoin:round; stroke-width:4; stroke-opacity:1; fill:none" points="306.476,977.354 738.975,977.354 738.975,523.754 306.476,523.754 306.476,977.354 "/>
<polyline clip-path="url(#clip510)" style="stroke:#009af9; stroke-linecap:round; stroke-linejoin:round; stroke-width:14; stroke-opacity:1; fill:none" points="329.997,614.474 471.119,614.474 "/>
<circle clip-path="url(#clip510)" cx="400.558" cy="614.474" r="11.2002" fill="#009af9" fill-rule="evenodd" fill-opacity="1" stroke="none"/>
<path clip-path="url(#clip510)" d="M522.348 592.295 L511.249 622.393 L533.488 622.393 L522.348 592.295 M517.73 584.234 L527.007 584.234 L550.056 644.714 L541.549 644.714 L536.04 629.199 L508.778 629.199 L503.268 644.714 L494.64 644.714 L517.73 584.234 Z" fill="#000000" fill-rule="nonzero" fill-opacity="1" /><path clip-path="url(#clip510)" d="M557.875 581.682 L575.05 581.682 L575.05 587.474 L565.328 587.474 L565.328 649.858 L575.05 649.858 L575.05 655.651 L557.875 655.651 L557.875 581.682 Z" fill="#000000" fill-rule="nonzero" fill-opacity="1" /><path clip-path="url(#clip510)" d="M592.834 634.424 L601.381 634.424 L601.381 644.714 L592.834 644.714 L592.834 634.424 M592.834 601.814 L601.381 601.814 L601.381 612.104 L592.834 612.104 L592.834 601.814 Z" fill="#000000" fill-rule="nonzero" fill-opacity="1" /><path clip-path="url(#clip510)" d="M620.785 634.424 L629.333 634.424 L629.333 641.392 L622.689 654.355 L617.463 654.355 L620.785 641.392 L620.785 634.424 Z" fill="#000000" fill-rule="nonzero" fill-opacity="1" /><path clip-path="url(#clip510)" d="M647.724 637.827 L661.092 637.827 L661.092 591.687 L646.549 594.604 L646.549 587.15 L661.011 584.234 L669.193 584.234 L669.193 637.827 L682.561 637.827 L682.561 644.714 L647.724 644.714 L647.724 637.827 Z" fill="#000000" fill-rule="nonzero" fill-opacity="1" /><path clip-path="url(#clip510)" d="M715.455 581.682 L715.455 655.651 L698.279 655.651 L698.279 649.858 L707.961 649.858 L707.961 587.474 L698.279 587.474 L698.279 581.682 L715.455 581.682 Z" fill="#000000" fill-rule="nonzero" fill-opacity="1" /><polyline clip-path="url(#clip510)" style="stroke:#e26f46; stroke-linecap:round; stroke-linejoin:round; stroke-width:14; stroke-opacity:1; fill:none" points="329.997,705.194 471.119,705.194 "/>
<circle clip-path="url(#clip510)" cx="400.558" cy="705.194" r="11.2002" fill="#e26f46" fill-rule="evenodd" fill-opacity="1" stroke="none"/>
<path clip-path="url(#clip510)" d="M522.348 683.015 L511.249 713.113 L533.488 713.113 L522.348 683.015 M517.73 674.954 L527.007 674.954 L550.056 735.434 L541.549 735.434 L536.04 719.919 L508.778 719.919 L503.268 735.434 L494.64 735.434 L517.73 674.954 Z" fill="#000000" fill-rule="nonzero" fill-opacity="1" /><path clip-path="url(#clip510)" d="M557.875 672.402 L575.05 672.402 L575.05 678.194 L565.328 678.194 L565.328 740.578 L575.05 740.578 L575.05 746.371 L557.875 746.371 L557.875 672.402 Z" fill="#000000" fill-rule="nonzero" fill-opacity="1" /><path clip-path="url(#clip510)" d="M592.834 725.144 L601.381 725.144 L601.381 735.434 L592.834 735.434 L592.834 725.144 M592.834 692.534 L601.381 692.534 L601.381 702.824 L592.834 702.824 L592.834 692.534 Z" fill="#000000" fill-rule="nonzero" fill-opacity="1" /><path clip-path="url(#clip510)" d="M620.785 725.144 L629.333 725.144 L629.333 732.112 L622.689 745.075 L617.463 745.075 L620.785 732.112 L620.785 725.144 Z" fill="#000000" fill-rule="nonzero" fill-opacity="1" /><path clip-path="url(#clip510)" d="M653.354 728.547 L681.913 728.547 L681.913 735.434 L643.511 735.434 L643.511 728.547 Q648.169 723.726 656.19 715.625 Q664.251 707.482 666.317 705.133 Q670.247 700.717 671.786 697.679 Q673.366 694.6 673.366 691.643 Q673.366 686.823 669.963 683.785 Q666.601 680.746 661.173 680.746 Q657.324 680.746 653.03 682.083 Q648.777 683.42 643.916 686.134 L643.916 677.87 Q648.858 675.885 653.152 674.873 Q657.446 673.86 661.011 673.86 Q670.409 673.86 675.999 678.559 Q681.589 683.258 681.589 691.117 Q681.589 694.844 680.171 698.206 Q678.794 701.528 675.108 706.065 Q674.095 707.239 668.667 712.87 Q663.239 718.46 653.354 728.547 Z" fill="#000000" fill-rule="nonzero" fill-opacity="1" /><path clip-path="url(#clip510)" d="M715.455 672.402 L715.455 746.371 L698.279 746.371 L698.279 740.578 L707.961 740.578 L707.961 678.194 L698.279 678.194 L698.279 672.402 L715.455 672.402 Z" fill="#000000" fill-rule="nonzero" fill-opacity="1" /><polyline clip-path="url(#clip510)" style="stroke:#3da44d; stroke-linecap:round; stroke-linejoin:round; stroke-width:14; stroke-opacity:1; fill:none" points="329.997,795.914 471.119,795.914 "/>
<circle clip-path="url(#clip510)" cx="400.558" cy="795.914" r="11.2002" fill="#3da44d" fill-rule="evenodd" fill-opacity="1" stroke="none"/>
<path clip-path="url(#clip510)" d="M522.348 773.735 L511.249 803.833 L533.488 803.833 L522.348 773.735 M517.73 765.674 L527.007 765.674 L550.056 826.154 L541.549 826.154 L536.04 810.639 L508.778 810.639 L503.268 826.154 L494.64 826.154 L517.73 765.674 Z" fill="#000000" fill-rule="nonzero" fill-opacity="1" /><path clip-path="url(#clip510)" d="M557.875 763.122 L575.05 763.122 L575.05 768.914 L565.328 768.914 L565.328 831.298 L575.05 831.298 L575.05 837.091 L557.875 837.091 L557.875 763.122 Z" fill="#000000" fill-rule="nonzero" fill-opacity="1" /><path clip-path="url(#clip510)" d="M592.834 815.864 L601.381 815.864 L601.381 826.154 L592.834 826.154 L592.834 815.864 M592.834 783.254 L601.381 783.254 L601.381 793.544 L592.834 793.544 L592.834 783.254 Z" fill="#000000" fill-rule="nonzero" fill-opacity="1" /><path clip-path="url(#clip510)" d="M620.785 815.864 L629.333 815.864 L629.333 822.832 L622.689 835.795 L617.463 835.795 L620.785 822.832 L620.785 815.864 Z" fill="#000000" fill-rule="nonzero" fill-opacity="1" /><path clip-path="url(#clip510)" d="M671.097 793.544 Q676.971 794.8 680.252 798.769 Q683.574 802.739 683.574 808.573 Q683.574 817.525 677.417 822.427 Q671.259 827.328 659.917 827.328 Q656.109 827.328 652.058 826.559 Q648.048 825.83 643.754 824.331 L643.754 816.431 Q647.156 818.416 651.207 819.429 Q655.258 820.442 659.674 820.442 Q667.371 820.442 671.381 817.404 Q675.432 814.365 675.432 808.573 Q675.432 803.225 671.664 800.228 Q667.938 797.19 661.254 797.19 L654.205 797.19 L654.205 790.465 L661.578 790.465 Q667.614 790.465 670.814 788.075 Q674.014 785.645 674.014 781.108 Q674.014 776.449 670.692 773.978 Q667.411 771.466 661.254 771.466 Q657.891 771.466 654.043 772.196 Q650.195 772.925 645.577 774.464 L645.577 767.172 Q650.235 765.876 654.286 765.228 Q658.377 764.58 661.983 764.58 Q671.3 764.58 676.728 768.833 Q682.156 773.046 682.156 780.257 Q682.156 785.28 679.28 788.764 Q676.404 792.207 671.097 793.544 Z" fill="#000000" fill-rule="nonzero" fill-opacity="1" /><path clip-path="url(#clip510)" d="M715.455 763.122 L715.455 837.091 L698.279 837.091 L698.279 831.298 L707.961 831.298 L707.961 768.914 L698.279 768.914 L698.279 763.122 L715.455 763.122 Z" fill="#000000" fill-rule="nonzero" fill-opacity="1" /><polyline clip-path="url(#clip510)" style="stroke:#c271d2; stroke-linecap:round; stroke-linejoin:round; stroke-width:14; stroke-opacity:1; fill:none" points="329.997,886.634 471.119,886.634 "/>
<circle clip-path="url(#clip510)" cx="400.558" cy="886.634" r="11.2002" fill="#c271d2" fill-rule="evenodd" fill-opacity="1" stroke="none"/>
<path clip-path="url(#clip510)" d="M522.348 864.455 L511.249 894.553 L533.488 894.553 L522.348 864.455 M517.73 856.394 L527.007 856.394 L550.056 916.874 L541.549 916.874 L536.04 901.359 L508.778 901.359 L503.268 916.874 L494.64 916.874 L517.73 856.394 Z" fill="#000000" fill-rule="nonzero" fill-opacity="1" /><path clip-path="url(#clip510)" d="M557.875 853.842 L575.05 853.842 L575.05 859.634 L565.328 859.634 L565.328 922.018 L575.05 922.018 L575.05 927.811 L557.875 927.811 L557.875 853.842 Z" fill="#000000" fill-rule="nonzero" fill-opacity="1" /><path clip-path="url(#clip510)" d="M592.834 906.584 L601.381 906.584 L601.381 916.874 L592.834 916.874 L592.834 906.584 M592.834 873.974 L601.381 873.974 L601.381 884.264 L592.834 884.264 L592.834 873.974 Z" fill="#000000" fill-rule="nonzero" fill-opacity="1" /><path clip-path="url(#clip510)" d="M620.785 906.584 L629.333 906.584 L629.333 913.552 L622.689 926.515 L617.463 926.515 L620.785 913.552 L620.785 906.584 Z" fill="#000000" fill-rule="nonzero" fill-opacity="1" /><path clip-path="url(#clip510)" d="M668.788 863.523 L648.129 895.809 L668.788 895.809 L668.788 863.523 M666.641 856.394 L676.931 856.394 L676.931 895.809 L685.559 895.809 L685.559 902.614 L676.931 902.614 L676.931 916.874 L668.788 916.874 L668.788 902.614 L641.485 902.614 L641.485 894.715 L666.641 856.394 Z" fill="#000000" fill-rule="nonzero" fill-opacity="1" /><path clip-path="url(#clip510)" d="M715.455 853.842 L715.455 927.811 L698.279 927.811 L698.279 922.018 L707.961 922.018 L707.961 859.634 L698.279 859.634 L698.279 853.842 L715.455 853.842 Z" fill="#000000" fill-rule="nonzero" fill-opacity="1" /></svg>
