<?xml version="1.0" encoding="utf-8"?>
<svg xmlns="http://www.w3.org/2000/svg" xmlns:xlink="http://www.w3.org/1999/xlink" width="600" height="400" viewBox="0 0 2400 1600">
<defs>
  <clipPath id="clip500">
    <rect x="0" y="0" width="2400" height="1600"/>
  </clipPath>
</defs>
<path clip-path="url(#clip500)" d="M0 1600 L2400 1600 L2400 0 L0 0  Z" fill="#ffffff" fill-rule="evenodd" fill-opacity="1"/>
<defs>
  <clipPath id="clip501">
    <rect x="289" y="140" width="2064" height="1227"/>
  </clipPath>
</defs>
<path clip-path="url(#clip500)" d="M289.348 1367.02 L2352.76 1367.02 L2352.76 140.752 L289.348 140.752  Z" fill="#ffffff" fill-rule="evenodd" fill-opacity="1"/>
<polyline clip-path="url(#clip501)" style="stroke:#000000; stroke-linecap:round; stroke-linejoin:round; stroke-width:2; stroke-opacity:0.1; fill:none" points="606.795,1367.02 606.795,140.752 "/>
<polyline clip-path="url(#clip501)" style="stroke:#000000; stroke-linecap:round; stroke-linejoin:round; stroke-width:2; stroke-opacity:0.1; fill:none" points="1082.97,1367.02 1082.97,140.752 "/>
<polyline clip-path="url(#clip501)" style="stroke:#000000; stroke-linecap:round; stroke-linejoin:round; stroke-width:2; stroke-opacity:0.1; fill:none" points="1559.14,1367.02 1559.14,140.752 "/>
<polyline clip-path="url(#clip501)" style="stroke:#000000; stroke-linecap:round; stroke-linejoin:round; stroke-width:2; stroke-opacity:0.1; fill:none" points="2035.31,1367.02 2035.31,140.752 "/>
<polyline clip-path="url(#clip501)" style="stroke:#000000; stroke-linecap:round; stroke-linejoin:round; stroke-width:2; stroke-opacity:0.1; fill:none" points="289.348,1121.77 2352.76,1121.77 "/>
<polyline clip-path="url(#clip501)" style="stroke:#000000; stroke-linecap:round; stroke-linejoin:round; stroke-width:2; stroke-opacity:0.1; fill:none" points="289.348,631.259 2352.76,631.259 "/>
<polyline clip-path="url(#clip501)" style="stroke:#000000; stroke-linecap:round; stroke-linejoin:round; stroke-width:2; stroke-opacity:0.1; fill:none" points="289.348,140.752 2352.76,140.752 "/>
<polyline clip-path="url(#clip500)" style="stroke:#000000; stroke-linecap:round; stroke-linejoin:round; stroke-width:4; stroke-opacity:1; fill:none" points="289.348,1367.02 2352.76,1367.02 "/>
<polyline clip-path="url(#clip500)" style="stroke:#000000; stroke-linecap:round; stroke-linejoin:round; stroke-width:4; stroke-opacity:1; fill:none" points="606.795,1367.02 606.795,1348.12 "/>
<polyline clip-path="url(#clip500)" style="stroke:#000000; stroke-linecap:round; stroke-linejoin:round; stroke-width:4; stroke-opacity:1; fill:none" points="1082.97,1367.02 1082.97,1348.12 "/>
<polyline clip-path="url(#clip500)" style="stroke:#000000; stroke-linecap:round; stroke-linejoin:round; stroke-width:4; stroke-opacity:1; fill:none" points="1559.14,1367.02 1559.14,1348.12 "/>
<polyline clip-path="url(#clip500)" style="stroke:#000000; stroke-linecap:round; stroke-linejoin:round; stroke-width:4; stroke-opacity:1; fill:none" points="2035.31,1367.02 2035.31,1348.12 "/>
<path clip-path="url(#clip500)" d="M553.364 1432.37 L605.296 1432.37 L605.296 1439.26 L553.364 1439.26 L553.364 1432.37 Z" fill="#000000" fill-rule="nonzero" fill-opacity="1" /><path clip-path="url(#clip500)" d="M647.75 1429.21 Q653.624 1430.47 656.905 1434.44 Q660.227 1438.41 660.227 1444.24 Q660.227 1453.19 654.069 1458.09 Q647.912 1462.99 636.569 1462.99 Q632.762 1462.99 628.711 1462.22 Q624.7 1461.5 620.406 1460 L620.406 1452.1 Q623.809 1454.08 627.86 1455.1 Q631.911 1456.11 636.326 1456.11 Q644.023 1456.11 648.034 1453.07 Q652.084 1450.03 652.084 1444.24 Q652.084 1438.89 648.317 1435.89 Q644.59 1432.86 637.906 1432.86 L630.858 1432.86 L630.858 1426.13 L638.23 1426.13 Q644.266 1426.13 647.466 1423.74 Q650.667 1421.31 650.667 1416.77 Q650.667 1412.12 647.345 1409.64 Q644.064 1407.13 637.906 1407.13 Q634.544 1407.13 630.696 1407.86 Q626.847 1408.59 622.229 1410.13 L622.229 1402.84 Q626.888 1401.54 630.939 1400.89 Q635.03 1400.25 638.635 1400.25 Q647.953 1400.25 653.381 1404.5 Q658.809 1408.71 658.809 1415.92 Q658.809 1420.95 655.933 1424.43 Q653.057 1427.87 647.75 1429.21 Z" fill="#000000" fill-rule="nonzero" fill-opacity="1" /><path clip-path="url(#clip500)" d="M1082.97 1406.73 Q1076.65 1406.73 1073.45 1412.97 Q1070.29 1419.16 1070.29 1431.64 Q1070.29 1444.08 1073.45 1450.32 Q1076.65 1456.51 1082.97 1456.51 Q1089.33 1456.51 1092.49 1450.32 Q1095.69 1444.08 1095.69 1431.64 Q1095.69 1419.16 1092.49 1412.97 Q1089.33 1406.73 1082.97 1406.73 M1082.97 1400.25 Q1093.13 1400.25 1098.48 1408.31 Q1103.87 1416.33 1103.87 1431.64 Q1103.87 1446.91 1098.48 1454.97 Q1093.13 1462.99 1082.97 1462.99 Q1072.8 1462.99 1067.41 1454.97 Q1062.06 1446.91 1062.06 1431.64 Q1062.06 1416.33 1067.41 1408.31 Q1072.8 1400.25 1082.97 1400.25 Z" fill="#000000" fill-rule="nonzero" fill-opacity="1" /><path clip-path="url(#clip500)" d="M1566.57 1429.21 Q1572.44 1430.47 1575.73 1434.44 Q1579.05 1438.41 1579.05 1444.24 Q1579.05 1453.19 1572.89 1458.09 Q1566.73 1462.99 1555.39 1462.99 Q1551.58 1462.99 1547.53 1462.22 Q1543.52 1461.5 1539.23 1460 L1539.23 1452.1 Q1542.63 1454.08 1546.68 1455.1 Q1550.73 1456.11 1555.15 1456.11 Q1562.84 1456.11 1566.85 1453.07 Q1570.91 1450.03 1570.91 1444.24 Q1570.91 1438.89 1567.14 1435.89 Q1563.41 1432.86 1556.73 1432.86 L1549.68 1432.86 L1549.68 1426.13 L1557.05 1426.13 Q1563.09 1426.13 1566.29 1423.74 Q1569.49 1421.31 1569.49 1416.77 Q1569.49 1412.12 1566.17 1409.64 Q1562.88 1407.13 1556.73 1407.13 Q1553.36 1407.13 1549.52 1407.86 Q1545.67 1408.59 1541.05 1410.13 L1541.05 1402.84 Q1545.71 1401.54 1549.76 1400.89 Q1553.85 1400.25 1557.46 1400.25 Q1566.77 1400.25 1572.2 1404.5 Q1577.63 1408.71 1577.63 1415.92 Q1577.63 1420.95 1574.75 1424.43 Q1571.88 1427.87 1566.57 1429.21 Z" fill="#000000" fill-rule="nonzero" fill-opacity="1" /><path clip-path="url(#clip500)" d="M2036.02 1428.32 Q2030.51 1428.32 2027.27 1432.09 Q2024.07 1435.85 2024.07 1442.42 Q2024.07 1448.94 2027.27 1452.75 Q2030.51 1456.51 2036.02 1456.51 Q2041.53 1456.51 2044.73 1452.75 Q2047.97 1448.94 2047.97 1442.42 Q2047.97 1435.85 2044.73 1432.09 Q2041.53 1428.32 2036.02 1428.32 M2052.26 1402.68 L2052.26 1410.13 Q2049.18 1408.67 2046.02 1407.9 Q2042.9 1407.13 2039.83 1407.13 Q2031.72 1407.13 2027.43 1412.6 Q2023.18 1418.07 2022.57 1429.13 Q2024.96 1425.6 2028.56 1423.74 Q2032.17 1421.84 2036.5 1421.84 Q2045.62 1421.84 2050.88 1427.39 Q2056.19 1432.9 2056.19 1442.42 Q2056.19 1451.73 2050.68 1457.36 Q2045.17 1462.99 2036.02 1462.99 Q2025.53 1462.99 2019.98 1454.97 Q2014.43 1446.91 2014.43 1431.64 Q2014.43 1417.3 2021.23 1408.79 Q2028.04 1400.25 2039.5 1400.25 Q2042.58 1400.25 2045.7 1400.85 Q2048.86 1401.46 2052.26 1402.68 Z" fill="#000000" fill-rule="nonzero" fill-opacity="1" /><path clip-path="url(#clip500)" d="M1179.28 1511.84 L1179.28 1522.1 Q1173.29 1519.24 1167.98 1517.83 Q1162.67 1516.43 1157.72 1516.43 Q1149.13 1516.43 1144.44 1519.76 Q1139.8 1523.09 1139.8 1529.24 Q1139.8 1534.4 1142.88 1537.05 Q1146 1539.66 1154.65 1541.27 L1161 1542.57 Q1172.77 1544.81 1178.34 1550.49 Q1183.97 1556.11 1183.97 1565.59 Q1183.97 1576.9 1176.37 1582.73 Q1168.81 1588.56 1154.18 1588.56 Q1148.66 1588.56 1142.41 1587.31 Q1136.21 1586.06 1129.54 1583.61 L1129.54 1572.78 Q1135.95 1576.37 1142.09 1578.2 Q1148.24 1580.02 1154.18 1580.02 Q1163.19 1580.02 1168.08 1576.48 Q1172.98 1572.94 1172.98 1566.37 Q1172.98 1560.65 1169.44 1557.42 Q1165.95 1554.19 1157.93 1552.57 L1151.52 1551.32 Q1139.75 1548.98 1134.49 1543.98 Q1129.23 1538.98 1129.23 1530.07 Q1129.23 1519.76 1136.47 1513.82 Q1143.76 1507.89 1156.52 1507.89 Q1161.99 1507.89 1167.67 1508.88 Q1173.34 1509.86 1179.28 1511.84 Z" fill="#000000" fill-rule="nonzero" fill-opacity="1" /><path clip-path="url(#clip500)" d="M1241.94 1530.96 L1241.94 1539.92 Q1237.88 1537.68 1233.76 1536.58 Q1229.7 1535.44 1225.53 1535.44 Q1216.21 1535.44 1211.05 1541.38 Q1205.9 1547.26 1205.9 1557.94 Q1205.9 1568.61 1211.05 1574.55 Q1216.21 1580.44 1225.53 1580.44 Q1229.7 1580.44 1233.76 1579.34 Q1237.88 1578.2 1241.94 1575.96 L1241.94 1584.81 Q1237.93 1586.69 1233.6 1587.62 Q1229.33 1588.56 1224.49 1588.56 Q1211.31 1588.56 1203.55 1580.28 Q1195.79 1572 1195.79 1557.94 Q1195.79 1543.67 1203.6 1535.49 Q1211.47 1527.31 1225.11 1527.31 Q1229.54 1527.31 1233.76 1528.25 Q1237.98 1529.14 1241.94 1530.96 Z" fill="#000000" fill-rule="nonzero" fill-opacity="1" /><path clip-path="url(#clip500)" d="M1281.21 1535.44 Q1273.5 1535.44 1269.02 1541.48 Q1264.54 1547.47 1264.54 1557.94 Q1264.54 1568.41 1268.97 1574.45 Q1273.45 1580.44 1281.21 1580.44 Q1288.86 1580.44 1293.34 1574.4 Q1297.82 1568.35 1297.82 1557.94 Q1297.82 1547.57 1293.34 1541.53 Q1288.86 1535.44 1281.21 1535.44 M1281.21 1527.31 Q1293.71 1527.31 1300.84 1535.44 Q1307.98 1543.56 1307.98 1557.94 Q1307.98 1572.26 1300.84 1580.44 Q1293.71 1588.56 1281.21 1588.56 Q1268.66 1588.56 1261.52 1580.44 Q1254.44 1572.26 1254.44 1557.94 Q1254.44 1543.56 1261.52 1535.44 Q1268.66 1527.31 1281.21 1527.31 Z" fill="#000000" fill-rule="nonzero" fill-opacity="1" /><path clip-path="url(#clip500)" d="M1357.67 1537.68 Q1356.05 1536.74 1354.12 1536.32 Q1352.25 1535.85 1349.96 1535.85 Q1341.83 1535.85 1337.46 1541.17 Q1333.14 1546.43 1333.14 1556.32 L1333.14 1587.05 L1323.5 1587.05 L1323.5 1528.72 L1333.14 1528.72 L1333.14 1537.78 Q1336.16 1532.47 1341 1529.92 Q1345.84 1527.31 1352.77 1527.31 Q1353.76 1527.31 1354.96 1527.47 Q1356.16 1527.57 1357.61 1527.83 L1357.67 1537.68 Z" fill="#000000" fill-rule="nonzero" fill-opacity="1" /><path clip-path="url(#clip500)" d="M1415.27 1555.49 L1415.27 1560.18 L1371.21 1560.18 Q1371.83 1570.07 1377.15 1575.28 Q1382.51 1580.44 1392.04 1580.44 Q1397.56 1580.44 1402.72 1579.08 Q1407.93 1577.73 1413.03 1575.02 L1413.03 1584.08 Q1407.87 1586.27 1402.46 1587.42 Q1397.04 1588.56 1391.47 1588.56 Q1377.51 1588.56 1369.33 1580.44 Q1361.21 1572.31 1361.21 1558.46 Q1361.21 1544.14 1368.92 1535.75 Q1376.68 1527.31 1389.8 1527.31 Q1401.57 1527.31 1408.4 1534.92 Q1415.27 1542.47 1415.27 1555.49 M1405.69 1552.68 Q1405.58 1544.81 1401.26 1540.13 Q1396.99 1535.44 1389.91 1535.44 Q1381.88 1535.44 1377.04 1539.97 Q1372.25 1544.5 1371.52 1552.73 L1405.69 1552.68 Z" fill="#000000" fill-rule="nonzero" fill-opacity="1" /><path clip-path="url(#clip500)" d="M1468.08 1578.2 L1485.27 1578.2 L1485.27 1518.88 L1466.57 1522.63 L1466.57 1513.04 L1485.17 1509.29 L1495.69 1509.29 L1495.69 1578.2 L1512.87 1578.2 L1512.87 1587.05 L1468.08 1587.05 L1468.08 1578.2 Z" fill="#000000" fill-rule="nonzero" fill-opacity="1" /><polyline clip-path="url(#clip500)" style="stroke:#000000; stroke-linecap:round; stroke-linejoin:round; stroke-width:4; stroke-opacity:1; fill:none" points="289.348,1367.02 289.348,140.752 "/>
<polyline clip-path="url(#clip500)" style="stroke:#000000; stroke-linecap:round; stroke-linejoin:round; stroke-width:4; stroke-opacity:1; fill:none" points="289.348,1121.77 308.246,1121.77 "/>
<polyline clip-path="url(#clip500)" style="stroke:#000000; stroke-linecap:round; stroke-linejoin:round; stroke-width:4; stroke-opacity:1; fill:none" points="289.348,631.259 308.246,631.259 "/>
<polyline clip-path="url(#clip500)" style="stroke:#000000; stroke-linecap:round; stroke-linejoin:round; stroke-width:4; stroke-opacity:1; fill:none" points="289.348,140.752 308.246,140.752 "/>
<path clip-path="url(#clip500)" d="M144.5 1122.56 L196.433 1122.56 L196.433 1129.44 L144.5 1129.44 L144.5 1122.56 Z" fill="#000000" fill-rule="nonzero" fill-opacity="1" /><path clip-path="url(#clip500)" d="M236.577 1098.66 L215.918 1130.94 L236.577 1130.94 L236.577 1098.66 M234.43 1091.53 L244.72 1091.53 L244.72 1130.94 L253.348 1130.94 L253.348 1137.75 L244.72 1137.75 L244.72 1152.01 L236.577 1152.01 L236.577 1137.75 L209.274 1137.75 L209.274 1129.85 L234.43 1091.53 Z" fill="#000000" fill-rule="nonzero" fill-opacity="1" /><path clip-path="url(#clip500)" d="M232.445 606.407 Q226.126 606.407 222.926 612.645 Q219.766 618.843 219.766 631.32 Q219.766 643.756 222.926 649.995 Q226.126 656.193 232.445 656.193 Q238.805 656.193 241.965 649.995 Q245.165 643.756 245.165 631.32 Q245.165 618.843 241.965 612.645 Q238.805 606.407 232.445 606.407 M232.445 599.925 Q242.613 599.925 247.96 607.987 Q253.348 616.008 253.348 631.32 Q253.348 646.592 247.96 654.653 Q242.613 662.674 232.445 662.674 Q222.278 662.674 216.89 654.653 Q211.543 646.592 211.543 631.32 Q211.543 616.008 216.89 607.987 Q222.278 599.925 232.445 599.925 Z" fill="#000000" fill-rule="nonzero" fill-opacity="1" /><path clip-path="url(#clip500)" d="M236.577 117.642 L215.918 149.927 L236.577 149.927 L236.577 117.642 M234.43 110.512 L244.72 110.512 L244.72 149.927 L253.348 149.927 L253.348 156.733 L244.72 156.733 L244.72 170.992 L236.577 170.992 L236.577 156.733 L209.274 156.733 L209.274 148.834 L234.43 110.512 Z" fill="#000000" fill-rule="nonzero" fill-opacity="1" /><path clip-path="url(#clip500)" d="M9.96423 895.239 L20.2246 895.239 Q17.36 901.229 15.9538 906.541 Q14.5475 911.854 14.5475 916.802 Q14.5475 925.395 17.8809 930.083 Q21.2142 934.718 27.36 934.718 Q32.5162 934.718 35.1724 931.645 Q37.7766 928.52 39.3912 919.875 L40.6932 913.521 Q42.9328 901.75 48.6099 896.177 Q54.2348 890.552 63.7139 890.552 Q75.016 890.552 80.8493 898.156 Q86.6826 905.708 86.6826 920.343 Q86.6826 925.864 85.4326 932.114 Q84.1826 938.312 81.7347 944.979 L70.9014 944.979 Q74.4951 938.572 76.318 932.427 Q78.1409 926.281 78.1409 920.343 Q78.1409 911.333 74.5993 906.437 Q71.0576 901.541 64.4952 901.541 Q58.766 901.541 55.5369 905.083 Q52.3078 908.573 50.6932 916.593 L49.4432 923 Q47.0994 934.77 42.0995 940.031 Q37.0995 945.291 28.1933 945.291 Q17.8809 945.291 11.9434 938.052 Q6.00592 930.76 6.00592 918 Q6.00592 912.531 6.99549 906.854 Q7.98507 901.177 9.96423 895.239 Z" fill="#000000" fill-rule="nonzero" fill-opacity="1" /><path clip-path="url(#clip500)" d="M29.0787 832.583 L38.037 832.583 Q35.7974 836.646 34.7037 840.761 Q33.5579 844.823 33.5579 848.99 Q33.5579 858.313 39.4953 863.469 Q45.3807 868.625 56.0577 868.625 Q66.7348 868.625 72.6722 863.469 Q78.5576 858.313 78.5576 848.99 Q78.5576 844.823 77.4639 840.761 Q76.318 836.646 74.0785 832.583 L82.9326 832.583 Q84.8076 836.594 85.7451 840.917 Q86.6826 845.188 86.6826 850.031 Q86.6826 863.208 78.4014 870.969 Q70.1202 878.729 56.0577 878.729 Q41.787 878.729 33.6099 870.917 Q25.4329 863.052 25.4329 849.406 Q25.4329 844.979 26.3704 840.761 Q27.2558 836.542 29.0787 832.583 Z" fill="#000000" fill-rule="nonzero" fill-opacity="1" /><path clip-path="url(#clip500)" d="M33.5579 793.313 Q33.5579 801.021 39.5995 805.5 Q45.589 809.979 56.0577 809.979 Q66.5264 809.979 72.5681 805.552 Q78.5576 801.073 78.5576 793.313 Q78.5576 785.657 72.516 781.178 Q66.4743 776.698 56.0577 776.698 Q45.6932 776.698 39.6516 781.178 Q33.5579 785.657 33.5579 793.313 M25.4329 793.313 Q25.4329 780.813 33.5579 773.678 Q41.6828 766.542 56.0577 766.542 Q70.3806 766.542 78.5576 773.678 Q86.6826 780.813 86.6826 793.313 Q86.6826 805.865 78.5576 813 Q70.3806 820.084 56.0577 820.084 Q41.6828 820.084 33.5579 813 Q25.4329 805.865 25.4329 793.313 Z" fill="#000000" fill-rule="nonzero" fill-opacity="1" /><path clip-path="url(#clip500)" d="M35.7974 716.855 Q34.8599 718.47 34.4433 720.397 Q33.9745 722.272 33.9745 724.563 Q33.9745 732.688 39.287 737.063 Q44.5474 741.386 54.4432 741.386 L85.1722 741.386 L85.1722 751.021 L26.8391 751.021 L26.8391 741.386 L35.9016 741.386 Q30.5891 738.365 28.037 733.522 Q25.4329 728.678 25.4329 721.751 Q25.4329 720.761 25.5891 719.563 Q25.6933 718.365 25.9537 716.907 L35.7974 716.855 Z" fill="#000000" fill-rule="nonzero" fill-opacity="1" /><path clip-path="url(#clip500)" d="M53.6098 659.251 L58.2973 659.251 L58.2973 703.313 Q68.1931 702.688 73.4014 697.376 Q78.5576 692.011 78.5576 682.48 Q78.5576 676.959 77.2035 671.803 Q75.8493 666.595 73.141 661.491 L82.2034 661.491 Q84.3909 666.647 85.5367 672.064 Q86.6826 677.48 86.6826 683.053 Q86.6826 697.011 78.5576 705.188 Q70.4327 713.313 56.5786 713.313 Q42.2557 713.313 33.8703 705.605 Q25.4329 697.845 25.4329 684.72 Q25.4329 672.949 33.037 666.126 Q40.5891 659.251 53.6098 659.251 M50.7973 668.834 Q42.9328 668.939 38.2453 673.261 Q33.5579 677.532 33.5579 684.616 Q33.5579 692.636 38.0891 697.48 Q42.6203 702.272 50.8494 703.001 L50.7973 668.834 Z" fill="#000000" fill-rule="nonzero" fill-opacity="1" /><path clip-path="url(#clip500)" d="M76.318 599.199 L76.318 562.481 L85.1722 562.481 L85.1722 611.855 L76.318 611.855 Q70.1202 605.866 59.7035 595.553 Q49.2349 585.189 46.214 582.533 Q40.537 577.481 36.6308 575.502 Q32.6724 573.47 28.8704 573.47 Q22.6725 573.47 18.7663 577.845 Q14.86 582.168 14.86 589.147 Q14.86 594.095 16.5788 599.616 Q18.2975 605.085 21.7871 611.335 L11.1621 611.335 Q8.61007 604.981 7.30799 599.46 Q6.00592 593.939 6.00592 589.356 Q6.00592 577.272 12.0475 570.085 Q18.0892 562.897 28.1933 562.897 Q32.9849 562.897 37.3078 564.72 Q41.5786 566.491 47.4119 571.231 Q48.9224 572.533 56.1619 579.512 Q63.3494 586.491 76.318 599.199 Z" fill="#000000" fill-rule="nonzero" fill-opacity="1" /><path clip-path="url(#clip500)" d="M804.518 18.1041 L804.518 28.3644 Q798.529 25.4999 793.216 24.0936 Q787.904 22.6874 782.956 22.6874 Q774.362 22.6874 769.675 26.0207 Q765.039 29.354 765.039 35.4998 Q765.039 40.656 768.112 43.3123 Q771.237 45.9164 779.883 47.531 L786.237 48.8331 Q798.008 51.0726 803.581 56.7497 Q809.206 62.3747 809.206 71.8538 Q809.206 83.1558 801.602 88.9891 Q794.05 94.8224 779.414 94.8224 Q773.893 94.8224 767.643 93.5724 Q761.446 92.3224 754.779 89.8745 L754.779 79.0412 Q761.185 82.635 767.331 84.4579 Q773.477 86.2808 779.414 86.2808 Q788.425 86.2808 793.32 82.7391 Q798.216 79.1975 798.216 72.635 Q798.216 66.9059 794.675 63.6767 Q791.185 60.4476 783.164 58.833 L776.758 57.583 Q764.987 55.2393 759.727 50.2393 Q754.466 45.2393 754.466 36.3331 Q754.466 26.0207 761.706 20.0832 Q768.998 14.1458 781.758 14.1458 Q787.227 14.1458 792.904 15.1353 Q798.581 16.1249 804.518 18.1041 Z" fill="#000000" fill-rule="nonzero" fill-opacity="1" /><path clip-path="url(#clip500)" d="M867.174 37.2186 L867.174 46.1768 Q863.112 43.9373 858.997 42.8435 Q854.935 41.6977 850.768 41.6977 Q841.445 41.6977 836.289 47.6352 Q831.133 53.5205 831.133 64.1976 Q831.133 74.8746 836.289 80.8121 Q841.445 86.6975 850.768 86.6975 Q854.935 86.6975 858.997 85.6037 Q863.112 84.4579 867.174 82.2183 L867.174 91.0724 Q863.164 92.9474 858.841 93.8849 Q854.57 94.8224 849.726 94.8224 Q836.549 94.8224 828.789 86.5412 Q821.029 78.26 821.029 64.1976 Q821.029 49.9268 828.841 41.7498 Q836.706 33.5727 850.351 33.5727 Q854.778 33.5727 858.997 34.5102 Q863.216 35.3956 867.174 37.2186 Z" fill="#000000" fill-rule="nonzero" fill-opacity="1" /><path clip-path="url(#clip500)" d="M906.445 41.6977 Q898.736 41.6977 894.257 47.7393 Q889.778 53.7289 889.778 64.1976 Q889.778 74.6663 894.205 80.7079 Q898.684 86.6975 906.445 86.6975 Q914.101 86.6975 918.58 80.6558 Q923.059 74.6142 923.059 64.1976 Q923.059 53.833 918.58 47.7914 Q914.101 41.6977 906.445 41.6977 M906.445 33.5727 Q918.945 33.5727 926.08 41.6977 Q933.215 49.8226 933.215 64.1976 Q933.215 78.5204 926.08 86.6975 Q918.945 94.8224 906.445 94.8224 Q893.893 94.8224 886.757 86.6975 Q879.674 78.5204 879.674 64.1976 Q879.674 49.8226 886.757 41.6977 Q893.893 33.5727 906.445 33.5727 Z" fill="#000000" fill-rule="nonzero" fill-opacity="1" /><path clip-path="url(#clip500)" d="M982.903 43.9373 Q981.288 42.9998 979.361 42.5831 Q977.486 42.1144 975.194 42.1144 Q967.069 42.1144 962.694 47.4268 Q958.372 52.6872 958.372 62.583 L958.372 93.312 L948.736 93.312 L948.736 34.979 L958.372 34.979 L958.372 44.0414 Q961.392 38.729 966.236 36.1769 Q971.08 33.5727 978.007 33.5727 Q978.996 33.5727 980.194 33.729 Q981.392 33.8332 982.851 34.0936 L982.903 43.9373 Z" fill="#000000" fill-rule="nonzero" fill-opacity="1" /><path clip-path="url(#clip500)" d="M1040.51 61.7497 L1040.51 66.4371 L996.444 66.4371 Q997.069 76.3329 1002.38 81.5412 Q1007.75 86.6975 1017.28 86.6975 Q1022.8 86.6975 1027.95 85.3433 Q1033.16 83.9891 1038.27 81.2808 L1038.27 90.3433 Q1033.11 92.5308 1027.69 93.6766 Q1022.28 94.8224 1016.7 94.8224 Q1002.75 94.8224 994.569 86.6975 Q986.444 78.5725 986.444 64.7184 Q986.444 50.3956 994.153 42.0102 Q1001.91 33.5727 1015.04 33.5727 Q1026.81 33.5727 1033.63 41.1769 Q1040.51 48.7289 1040.51 61.7497 M1030.92 58.9372 Q1030.82 51.0726 1026.5 46.3852 Q1022.23 41.6977 1015.14 41.6977 Q1007.12 41.6977 1002.28 46.2289 Q997.486 50.7601 996.757 58.9893 L1030.92 58.9372 Z" fill="#000000" fill-rule="nonzero" fill-opacity="1" /><path clip-path="url(#clip500)" d="M1099.41 84.562 L1099.41 115.499 L1089.78 115.499 L1089.78 34.979 L1099.41 34.979 L1099.41 43.8331 Q1102.43 38.6248 1107.02 36.1248 Q1111.65 33.5727 1118.06 33.5727 Q1128.68 33.5727 1135.3 42.0102 Q1141.96 50.4476 1141.96 64.1976 Q1141.96 77.9475 1135.3 86.385 Q1128.68 94.8224 1118.06 94.8224 Q1111.65 94.8224 1107.02 92.3224 Q1102.43 89.7704 1099.41 84.562 M1132.02 64.1976 Q1132.02 53.6247 1127.64 47.6352 Q1123.32 41.5935 1115.71 41.5935 Q1108.11 41.5935 1103.74 47.6352 Q1099.41 53.6247 1099.41 64.1976 Q1099.41 74.7704 1103.74 80.8121 Q1108.11 86.8016 1115.71 86.8016 Q1123.32 86.8016 1127.64 80.8121 Q1132.02 74.7704 1132.02 64.1976 Z" fill="#000000" fill-rule="nonzero" fill-opacity="1" /><path clip-path="url(#clip500)" d="M1157.85 12.2708 L1167.43 12.2708 L1167.43 93.312 L1157.85 93.312 L1157.85 12.2708 Z" fill="#000000" fill-rule="nonzero" fill-opacity="1" /><path clip-path="url(#clip500)" d="M1210.09 41.6977 Q1202.38 41.6977 1197.9 47.7393 Q1193.42 53.7289 1193.42 64.1976 Q1193.42 74.6663 1197.85 80.7079 Q1202.33 86.6975 1210.09 86.6975 Q1217.75 86.6975 1222.22 80.6558 Q1226.7 74.6142 1226.7 64.1976 Q1226.7 53.833 1222.22 47.7914 Q1217.75 41.6977 1210.09 41.6977 M1210.09 33.5727 Q1222.59 33.5727 1229.72 41.6977 Q1236.86 49.8226 1236.86 64.1976 Q1236.86 78.5204 1229.72 86.6975 Q1222.59 94.8224 1210.09 94.8224 Q1197.54 94.8224 1190.4 86.6975 Q1183.32 78.5204 1183.32 64.1976 Q1183.32 49.8226 1190.4 41.6977 Q1197.54 33.5727 1210.09 33.5727 Z" fill="#000000" fill-rule="nonzero" fill-opacity="1" /><path clip-path="url(#clip500)" d="M1262.22 18.4166 L1262.22 34.979 L1281.96 34.979 L1281.96 42.4269 L1262.22 42.4269 L1262.22 74.0934 Q1262.22 81.2287 1264.15 83.26 Q1266.13 85.2912 1272.12 85.2912 L1281.96 85.2912 L1281.96 93.312 L1272.12 93.312 Q1261.03 93.312 1256.81 89.1974 Q1252.59 85.0308 1252.59 74.0934 L1252.59 42.4269 L1245.56 42.4269 L1245.56 34.979 L1252.59 34.979 L1252.59 18.4166 L1262.22 18.4166 Z" fill="#000000" fill-rule="nonzero" fill-opacity="1" /><path clip-path="url(#clip500)" d="M1358 12.2708 L1358 20.2395 L1348.84 20.2395 Q1343.68 20.2395 1341.65 22.3228 Q1339.67 24.4061 1339.67 29.8228 L1339.67 34.979 L1355.45 34.979 L1355.45 42.4269 L1339.67 42.4269 L1339.67 93.312 L1330.04 93.312 L1330.04 42.4269 L1320.87 42.4269 L1320.87 34.979 L1330.04 34.979 L1330.04 30.9165 Q1330.04 21.177 1334.57 16.7499 Q1339.1 12.2708 1348.94 12.2708 L1358 12.2708 Z" fill="#000000" fill-rule="nonzero" fill-opacity="1" /><path clip-path="url(#clip500)" d="M1388.63 41.6977 Q1380.92 41.6977 1376.44 47.7393 Q1371.96 53.7289 1371.96 64.1976 Q1371.96 74.6663 1376.39 80.7079 Q1380.87 86.6975 1388.63 86.6975 Q1396.29 86.6975 1400.77 80.6558 Q1405.24 74.6142 1405.24 64.1976 Q1405.24 53.833 1400.77 47.7914 Q1396.29 41.6977 1388.63 41.6977 M1388.63 33.5727 Q1401.13 33.5727 1408.27 41.6977 Q1415.4 49.8226 1415.4 64.1976 Q1415.4 78.5204 1408.27 86.6975 Q1401.13 94.8224 1388.63 94.8224 Q1376.08 94.8224 1368.94 86.6975 Q1361.86 78.5204 1361.86 64.1976 Q1361.86 49.8226 1368.94 41.6977 Q1376.08 33.5727 1388.63 33.5727 Z" fill="#000000" fill-rule="nonzero" fill-opacity="1" /><path clip-path="url(#clip500)" d="M1465.09 43.9373 Q1463.47 42.9998 1461.55 42.5831 Q1459.67 42.1144 1457.38 42.1144 Q1449.25 42.1144 1444.88 47.4268 Q1440.56 52.6872 1440.56 62.583 L1440.56 93.312 L1430.92 93.312 L1430.92 34.979 L1440.56 34.979 L1440.56 44.0414 Q1443.58 38.729 1448.42 36.1769 Q1453.26 33.5727 1460.19 33.5727 Q1461.18 33.5727 1462.38 33.729 Q1463.58 33.8332 1465.04 34.0936 L1465.09 43.9373 Z" fill="#000000" fill-rule="nonzero" fill-opacity="1" /><path clip-path="url(#clip500)" d="M1542.27 51.3851 Q1549.83 52.9997 1554.05 58.1039 Q1558.32 63.208 1558.32 70.708 Q1558.32 82.2183 1550.4 88.5204 Q1542.48 94.8224 1527.9 94.8224 Q1523 94.8224 1517.8 93.8328 Q1512.64 92.8953 1507.12 90.9683 L1507.12 80.8121 Q1511.49 83.3641 1516.7 84.6662 Q1521.91 85.9683 1527.59 85.9683 Q1537.48 85.9683 1542.64 82.0621 Q1547.85 78.1558 1547.85 70.708 Q1547.85 63.833 1543 59.9788 Q1538.21 56.0726 1529.62 56.0726 L1520.56 56.0726 L1520.56 47.4268 L1530.04 47.4268 Q1537.8 47.4268 1541.91 44.3539 Q1546.02 41.2289 1546.02 35.3956 Q1546.02 29.4061 1541.75 26.229 Q1537.54 22.9999 1529.62 22.9999 Q1525.3 22.9999 1520.35 23.9374 Q1515.4 24.8749 1509.46 26.854 L1509.46 17.4791 Q1515.45 15.8124 1520.66 14.9791 Q1525.92 14.1458 1530.56 14.1458 Q1542.54 14.1458 1549.51 19.6145 Q1556.49 25.0311 1556.49 34.3019 Q1556.49 40.7602 1552.8 45.2393 Q1549.1 49.6664 1542.27 51.3851 Z" fill="#000000" fill-rule="nonzero" fill-opacity="1" /><path clip-path="url(#clip500)" d="M1649.2 43.8331 L1649.2 12.2708 L1658.78 12.2708 L1658.78 93.312 L1649.2 93.312 L1649.2 84.562 Q1646.18 89.7704 1641.55 92.3224 Q1636.96 94.8224 1630.5 94.8224 Q1619.93 94.8224 1613.26 86.385 Q1606.65 77.9475 1606.65 64.1976 Q1606.65 50.4476 1613.26 42.0102 Q1619.93 33.5727 1630.5 33.5727 Q1636.96 33.5727 1641.55 36.1248 Q1646.18 38.6248 1649.2 43.8331 M1616.55 64.1976 Q1616.55 74.7704 1620.87 80.8121 Q1625.24 86.8016 1632.85 86.8016 Q1640.45 86.8016 1644.83 80.8121 Q1649.2 74.7704 1649.2 64.1976 Q1649.2 53.6247 1644.83 47.6352 Q1640.45 41.5935 1632.85 41.5935 Q1625.24 41.5935 1620.87 47.6352 Q1616.55 53.6247 1616.55 64.1976 Z" fill="#000000" fill-rule="nonzero" fill-opacity="1" /><path clip-path="url(#clip500)" d="M1678.52 34.979 L1688.11 34.979 L1688.11 93.312 L1678.52 93.312 L1678.52 34.979 M1678.52 12.2708 L1688.11 12.2708 L1688.11 24.4061 L1678.52 24.4061 L1678.52 12.2708 Z" fill="#000000" fill-rule="nonzero" fill-opacity="1" /><path clip-path="url(#clip500)" d="M1746.54 63.4684 Q1746.54 53.0518 1742.22 47.3227 Q1737.95 41.5935 1730.19 41.5935 Q1722.48 41.5935 1718.16 47.3227 Q1713.89 53.0518 1713.89 63.4684 Q1713.89 73.8329 1718.16 79.5621 Q1722.48 85.2912 1730.19 85.2912 Q1737.95 85.2912 1742.22 79.5621 Q1746.54 73.8329 1746.54 63.4684 M1756.13 86.0725 Q1756.13 100.968 1749.51 108.208 Q1742.9 115.499 1729.25 115.499 Q1724.2 115.499 1719.72 114.718 Q1715.24 113.989 1711.02 112.426 L1711.02 103.104 Q1715.24 105.395 1719.36 106.489 Q1723.47 107.583 1727.74 107.583 Q1737.17 107.583 1741.86 102.635 Q1746.54 97.7391 1746.54 87.7912 L1746.54 83.0516 Q1743.58 88.2079 1738.94 90.7599 Q1734.3 93.312 1727.85 93.312 Q1717.12 93.312 1710.56 85.135 Q1703.99 76.9579 1703.99 63.4684 Q1703.99 49.9268 1710.56 41.7498 Q1717.12 33.5727 1727.85 33.5727 Q1734.3 33.5727 1738.94 36.1248 Q1743.58 38.6769 1746.54 43.8331 L1746.54 34.979 L1756.13 34.979 L1756.13 86.0725 Z" fill="#000000" fill-rule="nonzero" fill-opacity="1" /><path clip-path="url(#clip500)" d="M1775.87 34.979 L1785.45 34.979 L1785.45 93.312 L1775.87 93.312 L1775.87 34.979 M1775.87 12.2708 L1785.45 12.2708 L1785.45 24.4061 L1775.87 24.4061 L1775.87 12.2708 Z" fill="#000000" fill-rule="nonzero" fill-opacity="1" /><path clip-path="url(#clip500)" d="M1814.98 18.4166 L1814.98 34.979 L1834.72 34.979 L1834.72 42.4269 L1814.98 42.4269 L1814.98 74.0934 Q1814.98 81.2287 1816.91 83.26 Q1818.89 85.2912 1824.88 85.2912 L1834.72 85.2912 L1834.72 93.312 L1824.88 93.312 Q1813.78 93.312 1809.56 89.1974 Q1805.35 85.0308 1805.35 74.0934 L1805.35 42.4269 L1798.31 42.4269 L1798.31 34.979 L1805.35 34.979 L1805.35 18.4166 L1814.98 18.4166 Z" fill="#000000" fill-rule="nonzero" fill-opacity="1" /><path clip-path="url(#clip500)" d="M1884.51 36.6977 L1884.51 45.7602 Q1880.45 43.6768 1876.07 42.6352 Q1871.7 41.5935 1867.01 41.5935 Q1859.88 41.5935 1856.28 43.781 Q1852.74 45.9685 1852.74 50.3435 Q1852.74 53.6768 1855.29 55.6039 Q1857.85 57.4789 1865.55 59.1976 L1868.84 59.9268 Q1879.04 62.1143 1883.31 66.1246 Q1887.64 70.083 1887.64 77.2183 Q1887.64 85.3433 1881.18 90.0829 Q1874.77 94.8224 1863.52 94.8224 Q1858.84 94.8224 1853.73 93.8849 Q1848.68 92.9995 1843.05 91.1766 L1843.05 81.2808 Q1848.37 84.0412 1853.52 85.4475 Q1858.68 86.8016 1863.73 86.8016 Q1870.5 86.8016 1874.15 84.51 Q1877.79 82.1662 1877.79 77.9475 Q1877.79 74.0413 1875.14 71.9579 Q1872.53 69.8746 1863.63 67.9476 L1860.29 67.1663 Q1851.39 65.2913 1847.43 61.4372 Q1843.47 57.5309 1843.47 50.7601 Q1843.47 42.531 1849.3 38.0519 Q1855.14 33.5727 1865.87 33.5727 Q1871.18 33.5727 1875.87 34.354 Q1880.55 35.1352 1884.51 36.6977 Z" fill="#000000" fill-rule="nonzero" fill-opacity="1" /><circle clip-path="url(#clip501)" cx="2075.9" cy="449.701" r="18" fill="#009af9" fill-rule="evenodd" fill-opacity="1" stroke="none"/>
<circle clip-path="url(#clip501)" cx="1960.52" cy="525.314" r="18" fill="#009af9" fill-rule="evenodd" fill-opacity="1" stroke="none"/>
<circle clip-path="url(#clip501)" cx="1473.14" cy="504.583" r="18" fill="#009af9" fill-rule="evenodd" fill-opacity="1" stroke="none"/>
<circle clip-path="url(#clip501)" cx="1580.74" cy="726.218" r="18" fill="#009af9" fill-rule="evenodd" fill-opacity="1" stroke="none"/>
<circle clip-path="url(#clip501)" cx="1206.77" cy="848.258" r="18" fill="#009af9" fill-rule="evenodd" fill-opacity="1" stroke="none"/>
<circle clip-path="url(#clip501)" cx="1778.01" cy="740.213" r="18" fill="#009af9" fill-rule="evenodd" fill-opacity="1" stroke="none"/>
<circle clip-path="url(#clip501)" cx="1507.33" cy="362.771" r="18" fill="#009af9" fill-rule="evenodd" fill-opacity="1" stroke="none"/>
<circle clip-path="url(#clip501)" cx="1796.04" cy="585.046" r="18" fill="#009af9" fill-rule="evenodd" fill-opacity="1" stroke="none"/>
<circle clip-path="url(#clip501)" cx="1446.7" cy="736.514" r="18" fill="#009af9" fill-rule="evenodd" fill-opacity="1" stroke="none"/>
<circle clip-path="url(#clip501)" cx="1745.79" cy="682.475" r="18" fill="#009af9" fill-rule="evenodd" fill-opacity="1" stroke="none"/>
<circle clip-path="url(#clip501)" cx="1817.26" cy="403.06" r="18" fill="#009af9" fill-rule="evenodd" fill-opacity="1" stroke="none"/>
<circle clip-path="url(#clip501)" cx="2275.1" cy="330.073" r="18" fill="#009af9" fill-rule="evenodd" fill-opacity="1" stroke="none"/>
<circle clip-path="url(#clip501)" cx="1315.72" cy="584.668" r="18" fill="#009af9" fill-rule="evenodd" fill-opacity="1" stroke="none"/>
<circle clip-path="url(#clip501)" cx="1777.8" cy="485.911" r="18" fill="#009af9" fill-rule="evenodd" fill-opacity="1" stroke="none"/>
<circle clip-path="url(#clip501)" cx="2025.11" cy="641.035" r="18" fill="#009af9" fill-rule="evenodd" fill-opacity="1" stroke="none"/>
<circle clip-path="url(#clip501)" cx="1648.69" cy="711.781" r="18" fill="#009af9" fill-rule="evenodd" fill-opacity="1" stroke="none"/>
<circle clip-path="url(#clip501)" cx="1364" cy="749.187" r="18" fill="#009af9" fill-rule="evenodd" fill-opacity="1" stroke="none"/>
<circle clip-path="url(#clip501)" cx="1974.23" cy="320.004" r="18" fill="#009af9" fill-rule="evenodd" fill-opacity="1" stroke="none"/>
<circle clip-path="url(#clip501)" cx="2168.04" cy="509.722" r="18" fill="#009af9" fill-rule="evenodd" fill-opacity="1" stroke="none"/>
<circle clip-path="url(#clip501)" cx="1849.72" cy="244.638" r="18" fill="#009af9" fill-rule="evenodd" fill-opacity="1" stroke="none"/>
<circle clip-path="url(#clip501)" cx="1802.77" cy="558.658" r="18" fill="#009af9" fill-rule="evenodd" fill-opacity="1" stroke="none"/>
<circle clip-path="url(#clip501)" cx="1493.05" cy="724.686" r="18" fill="#009af9" fill-rule="evenodd" fill-opacity="1" stroke="none"/>
<circle clip-path="url(#clip501)" cx="1830.58" cy="645.091" r="18" fill="#009af9" fill-rule="evenodd" fill-opacity="1" stroke="none"/>
<circle clip-path="url(#clip501)" cx="1922.24" cy="334.374" r="18" fill="#009af9" fill-rule="evenodd" fill-opacity="1" stroke="none"/>
<circle clip-path="url(#clip501)" cx="1692.35" cy="533.508" r="18" fill="#009af9" fill-rule="evenodd" fill-opacity="1" stroke="none"/>
<circle clip-path="url(#clip501)" cx="1700.13" cy="743.138" r="18" fill="#009af9" fill-rule="evenodd" fill-opacity="1" stroke="none"/>
<circle clip-path="url(#clip501)" cx="1800.37" cy="723.487" r="18" fill="#009af9" fill-rule="evenodd" fill-opacity="1" stroke="none"/>
<circle clip-path="url(#clip501)" cx="2177.94" cy="339.51" r="18" fill="#009af9" fill-rule="evenodd" fill-opacity="1" stroke="none"/>
<circle clip-path="url(#clip501)" cx="1313.46" cy="413.822" r="18" fill="#009af9" fill-rule="evenodd" fill-opacity="1" stroke="none"/>
<circle clip-path="url(#clip501)" cx="1599.03" cy="722.782" r="18" fill="#009af9" fill-rule="evenodd" fill-opacity="1" stroke="none"/>
<circle clip-path="url(#clip501)" cx="1625.11" cy="554.706" r="18" fill="#009af9" fill-rule="evenodd" fill-opacity="1" stroke="none"/>
<circle clip-path="url(#clip501)" cx="2223.19" cy="457.666" r="18" fill="#009af9" fill-rule="evenodd" fill-opacity="1" stroke="none"/>
<circle clip-path="url(#clip501)" cx="1600.97" cy="628.988" r="18" fill="#009af9" fill-rule="evenodd" fill-opacity="1" stroke="none"/>
<circle clip-path="url(#clip501)" cx="1077.59" cy="805.451" r="18" fill="#009af9" fill-rule="evenodd" fill-opacity="1" stroke="none"/>
<circle clip-path="url(#clip501)" cx="1938.86" cy="391.432" r="18" fill="#009af9" fill-rule="evenodd" fill-opacity="1" stroke="none"/>
<circle clip-path="url(#clip501)" cx="1783.4" cy="451.113" r="18" fill="#009af9" fill-rule="evenodd" fill-opacity="1" stroke="none"/>
<circle clip-path="url(#clip501)" cx="2202.63" cy="637.633" r="18" fill="#009af9" fill-rule="evenodd" fill-opacity="1" stroke="none"/>
<circle clip-path="url(#clip501)" cx="1926.05" cy="253.201" r="18" fill="#009af9" fill-rule="evenodd" fill-opacity="1" stroke="none"/>
<circle clip-path="url(#clip501)" cx="1662.23" cy="399.027" r="18" fill="#009af9" fill-rule="evenodd" fill-opacity="1" stroke="none"/>
<circle clip-path="url(#clip501)" cx="2145.83" cy="595.834" r="18" fill="#009af9" fill-rule="evenodd" fill-opacity="1" stroke="none"/>
<circle clip-path="url(#clip501)" cx="1460.42" cy="730.302" r="18" fill="#009af9" fill-rule="evenodd" fill-opacity="1" stroke="none"/>
<circle clip-path="url(#clip501)" cx="1911.18" cy="504.849" r="18" fill="#009af9" fill-rule="evenodd" fill-opacity="1" stroke="none"/>
<circle clip-path="url(#clip501)" cx="1353.26" cy="340.591" r="18" fill="#009af9" fill-rule="evenodd" fill-opacity="1" stroke="none"/>
<circle clip-path="url(#clip501)" cx="1822.5" cy="583.291" r="18" fill="#009af9" fill-rule="evenodd" fill-opacity="1" stroke="none"/>
<circle clip-path="url(#clip501)" cx="1667.61" cy="548.665" r="18" fill="#009af9" fill-rule="evenodd" fill-opacity="1" stroke="none"/>
<circle clip-path="url(#clip501)" cx="1802.23" cy="751.427" r="18" fill="#009af9" fill-rule="evenodd" fill-opacity="1" stroke="none"/>
<circle clip-path="url(#clip501)" cx="2056.3" cy="222.836" r="18" fill="#009af9" fill-rule="evenodd" fill-opacity="1" stroke="none"/>
<circle clip-path="url(#clip501)" cx="1848.05" cy="674.601" r="18" fill="#009af9" fill-rule="evenodd" fill-opacity="1" stroke="none"/>
<circle clip-path="url(#clip501)" cx="1131.93" cy="477.895" r="18" fill="#009af9" fill-rule="evenodd" fill-opacity="1" stroke="none"/>
<circle clip-path="url(#clip501)" cx="2218.9" cy="414.562" r="18" fill="#009af9" fill-rule="evenodd" fill-opacity="1" stroke="none"/>
<circle clip-path="url(#clip501)" cx="2082.39" cy="394.519" r="18" fill="#009af9" fill-rule="evenodd" fill-opacity="1" stroke="none"/>
<circle clip-path="url(#clip501)" cx="2135.5" cy="197.449" r="18" fill="#009af9" fill-rule="evenodd" fill-opacity="1" stroke="none"/>
<circle clip-path="url(#clip501)" cx="1934.97" cy="293.119" r="18" fill="#009af9" fill-rule="evenodd" fill-opacity="1" stroke="none"/>
<circle clip-path="url(#clip501)" cx="1720.59" cy="598.208" r="18" fill="#009af9" fill-rule="evenodd" fill-opacity="1" stroke="none"/>
<circle clip-path="url(#clip501)" cx="2251.87" cy="603.009" r="18" fill="#009af9" fill-rule="evenodd" fill-opacity="1" stroke="none"/>
<circle clip-path="url(#clip501)" cx="1619.49" cy="787.289" r="18" fill="#009af9" fill-rule="evenodd" fill-opacity="1" stroke="none"/>
<circle clip-path="url(#clip501)" cx="2062.68" cy="380.215" r="18" fill="#009af9" fill-rule="evenodd" fill-opacity="1" stroke="none"/>
<circle clip-path="url(#clip501)" cx="1842.57" cy="510.775" r="18" fill="#009af9" fill-rule="evenodd" fill-opacity="1" stroke="none"/>
<circle clip-path="url(#clip501)" cx="1618.03" cy="808.369" r="18" fill="#009af9" fill-rule="evenodd" fill-opacity="1" stroke="none"/>
<circle clip-path="url(#clip501)" cx="2163.98" cy="356.007" r="18" fill="#009af9" fill-rule="evenodd" fill-opacity="1" stroke="none"/>
<path clip-path="url(#clip501)" d="M497.642 187.096 L477.642 207.096 L497.642 227.096 L517.642 207.096 L497.642 187.096 Z" fill="#e26f46" fill-rule="evenodd" fill-opacity="1" stroke="none"/>
<path clip-path="url(#clip501)" d="M490.207 255.003 L470.207 275.003 L490.207 295.003 L510.207 275.003 L490.207 255.003 Z" fill="#e26f46" fill-rule="evenodd" fill-opacity="1" stroke="none"/>
<path clip-path="url(#clip501)" d="M614.847 389.173 L594.847 409.173 L614.847 429.173 L634.847 409.173 L614.847 389.173 Z" fill="#e26f46" fill-rule="evenodd" fill-opacity="1" stroke="none"/>
<path clip-path="url(#clip501)" d="M504.759 309.642 L484.759 329.642 L504.759 349.642 L524.759 329.642 L504.759 309.642 Z" fill="#e26f46" fill-rule="evenodd" fill-opacity="1" stroke="none"/>
<path clip-path="url(#clip501)" d="M494.738 353.509 L474.738 373.509 L494.738 393.509 L514.738 373.509 L494.738 353.509 Z" fill="#e26f46" fill-rule="evenodd" fill-opacity="1" stroke="none"/>
<path clip-path="url(#clip501)" d="M515.413 298.867 L495.413 318.867 L515.413 338.867 L535.413 318.867 L515.413 298.867 Z" fill="#e26f46" fill-rule="evenodd" fill-opacity="1" stroke="none"/>
<path clip-path="url(#clip501)" d="M544.266 210.106 L524.266 230.106 L544.266 250.106 L564.266 230.106 L544.266 210.106 Z" fill="#e26f46" fill-rule="evenodd" fill-opacity="1" stroke="none"/>
<path clip-path="url(#clip501)" d="M563.827 438.92 L543.827 458.92 L563.827 478.92 L583.827 458.92 L563.827 438.92 Z" fill="#e26f46" fill-rule="evenodd" fill-opacity="1" stroke="none"/>
<path clip-path="url(#clip501)" d="M686.605 458.754 L666.605 478.754 L686.605 498.754 L706.605 478.754 L686.605 458.754 Z" fill="#e26f46" fill-rule="evenodd" fill-opacity="1" stroke="none"/>
<path clip-path="url(#clip501)" d="M567.324 276.838 L547.324 296.838 L567.324 316.838 L587.324 296.838 L567.324 276.838 Z" fill="#e26f46" fill-rule="evenodd" fill-opacity="1" stroke="none"/>
<path clip-path="url(#clip501)" d="M543.397 281.587 L523.397 301.587 L543.397 321.587 L563.397 301.587 L543.397 281.587 Z" fill="#e26f46" fill-rule="evenodd" fill-opacity="1" stroke="none"/>
<path clip-path="url(#clip501)" d="M462.729 297.582 L442.729 317.582 L462.729 337.582 L482.729 317.582 L462.729 297.582 Z" fill="#e26f46" fill-rule="evenodd" fill-opacity="1" stroke="none"/>
<path clip-path="url(#clip501)" d="M524.281 402.95 L504.281 422.95 L524.281 442.95 L544.281 422.95 L524.281 402.95 Z" fill="#e26f46" fill-rule="evenodd" fill-opacity="1" stroke="none"/>
<path clip-path="url(#clip501)" d="M487.044 253.339 L467.044 273.339 L487.044 293.339 L507.044 273.339 L487.044 253.339 Z" fill="#e26f46" fill-rule="evenodd" fill-opacity="1" stroke="none"/>
<path clip-path="url(#clip501)" d="M528.936 348.363 L508.936 368.363 L528.936 388.363 L548.936 368.363 L528.936 348.363 Z" fill="#e26f46" fill-rule="evenodd" fill-opacity="1" stroke="none"/>
<path clip-path="url(#clip501)" d="M578.235 369.292 L558.235 389.292 L578.235 409.292 L598.235 389.292 L578.235 369.292 Z" fill="#e26f46" fill-rule="evenodd" fill-opacity="1" stroke="none"/>
<path clip-path="url(#clip501)" d="M502.449 333.278 L482.449 353.278 L502.449 373.278 L522.449 353.278 L502.449 333.278 Z" fill="#e26f46" fill-rule="evenodd" fill-opacity="1" stroke="none"/>
<path clip-path="url(#clip501)" d="M485.337 296.223 L465.337 316.223 L485.337 336.223 L505.337 316.223 L485.337 296.223 Z" fill="#e26f46" fill-rule="evenodd" fill-opacity="1" stroke="none"/>
<path clip-path="url(#clip501)" d="M838.397 727.334 L818.397 747.334 L838.397 767.334 L858.397 747.334 L838.397 727.334 Z" fill="#e26f46" fill-rule="evenodd" fill-opacity="1" stroke="none"/>
<path clip-path="url(#clip501)" d="M491.613 212.263 L471.613 232.263 L491.613 252.263 L511.613 232.263 L491.613 212.263 Z" fill="#e26f46" fill-rule="evenodd" fill-opacity="1" stroke="none"/>
<path clip-path="url(#clip501)" d="M526.388 157.845 L506.388 177.845 L526.388 197.845 L546.388 177.845 L526.388 157.845 Z" fill="#e26f46" fill-rule="evenodd" fill-opacity="1" stroke="none"/>
<path clip-path="url(#clip501)" d="M1102.96 578.963 L1082.96 598.963 L1102.96 618.963 L1122.96 598.963 L1102.96 578.963 Z" fill="#e26f46" fill-rule="evenodd" fill-opacity="1" stroke="none"/>
<path clip-path="url(#clip501)" d="M543.278 364.778 L523.278 384.778 L543.278 404.778 L563.278 384.778 L543.278 364.778 Z" fill="#e26f46" fill-rule="evenodd" fill-opacity="1" stroke="none"/>
<path clip-path="url(#clip501)" d="M575.025 257.744 L555.025 277.744 L575.025 297.744 L595.025 277.744 L575.025 257.744 Z" fill="#e26f46" fill-rule="evenodd" fill-opacity="1" stroke="none"/>
<path clip-path="url(#clip501)" d="M507.024 187.557 L487.024 207.557 L507.024 227.557 L527.024 207.557 L507.024 187.557 Z" fill="#e26f46" fill-rule="evenodd" fill-opacity="1" stroke="none"/>
<path clip-path="url(#clip501)" d="M617.177 446.029 L597.177 466.029 L617.177 486.029 L637.177 466.029 L617.177 446.029 Z" fill="#e26f46" fill-rule="evenodd" fill-opacity="1" stroke="none"/>
<path clip-path="url(#clip501)" d="M537.368 278.997 L517.368 298.997 L537.368 318.997 L557.368 298.997 L537.368 278.997 Z" fill="#e26f46" fill-rule="evenodd" fill-opacity="1" stroke="none"/>
<path clip-path="url(#clip501)" d="M475.978 335.046 L455.978 355.046 L475.978 375.046 L495.978 355.046 L475.978 335.046 Z" fill="#e26f46" fill-rule="evenodd" fill-opacity="1" stroke="none"/>
<path clip-path="url(#clip501)" d="M569.604 406.381 L549.604 426.381 L569.604 446.381 L589.604 426.381 L569.604 406.381 Z" fill="#e26f46" fill-rule="evenodd" fill-opacity="1" stroke="none"/>
<path clip-path="url(#clip501)" d="M571.82 290.016 L551.82 310.016 L571.82 330.016 L591.82 310.016 L571.82 290.016 Z" fill="#e26f46" fill-rule="evenodd" fill-opacity="1" stroke="none"/>
<path clip-path="url(#clip501)" d="M507.309 305.27 L487.309 325.27 L507.309 345.27 L527.309 325.27 L507.309 305.27 Z" fill="#e26f46" fill-rule="evenodd" fill-opacity="1" stroke="none"/>
<path clip-path="url(#clip501)" d="M578.047 461.008 L558.047 481.008 L578.047 501.008 L598.047 481.008 L578.047 461.008 Z" fill="#e26f46" fill-rule="evenodd" fill-opacity="1" stroke="none"/>
<path clip-path="url(#clip501)" d="M523.07 357.925 L503.07 377.925 L523.07 397.925 L543.07 377.925 L523.07 357.925 Z" fill="#e26f46" fill-rule="evenodd" fill-opacity="1" stroke="none"/>
<path clip-path="url(#clip501)" d="M902.12 298.618 L882.12 318.618 L902.12 338.618 L922.12 318.618 L902.12 298.618 Z" fill="#e26f46" fill-rule="evenodd" fill-opacity="1" stroke="none"/>
<path clip-path="url(#clip501)" d="M381.033 368.057 L361.033 388.057 L381.033 408.057 L401.033 388.057 L381.033 368.057 Z" fill="#e26f46" fill-rule="evenodd" fill-opacity="1" stroke="none"/>
<path clip-path="url(#clip501)" d="M539.637 398.39 L519.637 418.39 L539.637 438.39 L559.637 418.39 L539.637 398.39 Z" fill="#e26f46" fill-rule="evenodd" fill-opacity="1" stroke="none"/>
<path clip-path="url(#clip501)" d="M511.33 191.549 L491.33 211.549 L511.33 231.549 L531.33 211.549 L511.33 191.549 Z" fill="#e26f46" fill-rule="evenodd" fill-opacity="1" stroke="none"/>
<path clip-path="url(#clip501)" d="M585.905 350.214 L565.905 370.214 L585.905 390.214 L605.905 370.214 L585.905 350.214 Z" fill="#e26f46" fill-rule="evenodd" fill-opacity="1" stroke="none"/>
<path clip-path="url(#clip501)" d="M544.549 210.505 L524.549 230.505 L544.549 250.505 L564.549 230.505 L544.549 210.505 Z" fill="#e26f46" fill-rule="evenodd" fill-opacity="1" stroke="none"/>
<path clip-path="url(#clip501)" d="M650.265 525.617 L630.265 545.617 L650.265 565.617 L670.265 545.617 L650.265 525.617 Z" fill="#e26f46" fill-rule="evenodd" fill-opacity="1" stroke="none"/>
<path clip-path="url(#clip501)" d="M564.279 290.329 L544.279 310.329 L564.279 330.329 L584.279 310.329 L564.279 290.329 Z" fill="#e26f46" fill-rule="evenodd" fill-opacity="1" stroke="none"/>
<path clip-path="url(#clip501)" d="M640.764 464.657 L620.764 484.657 L640.764 504.657 L660.764 484.657 L640.764 464.657 Z" fill="#e26f46" fill-rule="evenodd" fill-opacity="1" stroke="none"/>
<path clip-path="url(#clip501)" d="M555.864 328.03 L535.864 348.03 L555.864 368.03 L575.864 348.03 L555.864 328.03 Z" fill="#e26f46" fill-rule="evenodd" fill-opacity="1" stroke="none"/>
<path clip-path="url(#clip501)" d="M514.926 332.824 L494.926 352.824 L514.926 372.824 L534.926 352.824 L514.926 332.824 Z" fill="#e26f46" fill-rule="evenodd" fill-opacity="1" stroke="none"/>
<path clip-path="url(#clip501)" d="M566.884 333.132 L546.884 353.132 L566.884 373.132 L586.884 353.132 L566.884 333.132 Z" fill="#e26f46" fill-rule="evenodd" fill-opacity="1" stroke="none"/>
<path clip-path="url(#clip501)" d="M575.505 209.966 L555.505 229.966 L575.505 249.966 L595.505 229.966 L575.505 209.966 Z" fill="#e26f46" fill-rule="evenodd" fill-opacity="1" stroke="none"/>
<path clip-path="url(#clip501)" d="M589.253 344.288 L569.253 364.288 L589.253 384.288 L609.253 364.288 L589.253 344.288 Z" fill="#e26f46" fill-rule="evenodd" fill-opacity="1" stroke="none"/>
<path clip-path="url(#clip501)" d="M497.49 241.381 L477.49 261.381 L497.49 281.381 L517.49 261.381 L497.49 241.381 Z" fill="#e26f46" fill-rule="evenodd" fill-opacity="1" stroke="none"/>
<path clip-path="url(#clip501)" d="M528.35 215.377 L508.35 235.377 L528.35 255.377 L548.35 235.377 L528.35 215.377 Z" fill="#e26f46" fill-rule="evenodd" fill-opacity="1" stroke="none"/>
<path clip-path="url(#clip501)" d="M467.857 252.504 L447.857 272.504 L467.857 292.504 L487.857 272.504 L467.857 252.504 Z" fill="#e26f46" fill-rule="evenodd" fill-opacity="1" stroke="none"/>
<path clip-path="url(#clip501)" d="M515.665 310.73 L495.665 330.73 L515.665 350.73 L535.665 330.73 L515.665 310.73 Z" fill="#e26f46" fill-rule="evenodd" fill-opacity="1" stroke="none"/>
<path clip-path="url(#clip501)" d="M484.241 241.434 L464.241 261.434 L484.241 281.434 L504.241 261.434 L484.241 241.434 Z" fill="#e26f46" fill-rule="evenodd" fill-opacity="1" stroke="none"/>
<path clip-path="url(#clip501)" d="M580.252 415.59 L560.252 435.59 L580.252 455.59 L600.252 435.59 L580.252 415.59 Z" fill="#e26f46" fill-rule="evenodd" fill-opacity="1" stroke="none"/>
<path clip-path="url(#clip501)" d="M541.906 356.69 L521.906 376.69 L541.906 396.69 L561.906 376.69 L541.906 356.69 Z" fill="#e26f46" fill-rule="evenodd" fill-opacity="1" stroke="none"/>
<path clip-path="url(#clip501)" d="M708.713 478.451 L688.713 498.451 L708.713 518.451 L728.713 498.451 L708.713 478.451 Z" fill="#e26f46" fill-rule="evenodd" fill-opacity="1" stroke="none"/>
<path clip-path="url(#clip501)" d="M663.799 467.78 L643.799 487.78 L663.799 507.78 L683.799 487.78 L663.799 467.78 Z" fill="#e26f46" fill-rule="evenodd" fill-opacity="1" stroke="none"/>
<path clip-path="url(#clip501)" d="M615.586 495.59 L595.586 515.59 L615.586 535.59 L635.586 515.59 L615.586 495.59 Z" fill="#e26f46" fill-rule="evenodd" fill-opacity="1" stroke="none"/>
<path clip-path="url(#clip501)" d="M559.818 289.422 L539.818 309.422 L559.818 329.422 L579.818 309.422 L559.818 289.422 Z" fill="#e26f46" fill-rule="evenodd" fill-opacity="1" stroke="none"/>
<path clip-path="url(#clip501)" d="M908.904 423.14 L888.904 443.14 L908.904 463.14 L928.904 443.14 L908.904 423.14 Z" fill="#e26f46" fill-rule="evenodd" fill-opacity="1" stroke="none"/>
<path clip-path="url(#clip501)" d="M496.399 301.981 L476.399 321.981 L496.399 341.981 L516.399 321.981 L496.399 301.981 Z" fill="#e26f46" fill-rule="evenodd" fill-opacity="1" stroke="none"/>
<path clip-path="url(#clip501)" d="M756.162 1046.11 L756.162 1086.11 L796.162 1086.11 L796.162 1046.11 L756.162 1046.11 Z" fill="#3da44d" fill-rule="evenodd" fill-opacity="1" stroke="none"/>
<path clip-path="url(#clip501)" d="M671.232 773.909 L671.232 813.909 L711.232 813.909 L711.232 773.909 L671.232 773.909 Z" fill="#3da44d" fill-rule="evenodd" fill-opacity="1" stroke="none"/>
<path clip-path="url(#clip501)" d="M1001.14 1160.2 L1001.14 1200.2 L1041.14 1200.2 L1041.14 1160.2 L1001.14 1160.2 Z" fill="#3da44d" fill-rule="evenodd" fill-opacity="1" stroke="none"/>
<path clip-path="url(#clip501)" d="M1018 1095.14 L1018 1135.14 L1058 1135.14 L1058 1095.14 L1018 1095.14 Z" fill="#3da44d" fill-rule="evenodd" fill-opacity="1" stroke="none"/>
<path clip-path="url(#clip501)" d="M643.557 897.067 L643.557 937.067 L683.557 937.067 L683.557 897.067 L643.557 897.067 Z" fill="#3da44d" fill-rule="evenodd" fill-opacity="1" stroke="none"/>
<path clip-path="url(#clip501)" d="M999.164 1072.57 L999.164 1112.57 L1039.16 1112.57 L1039.16 1072.57 L999.164 1072.57 Z" fill="#3da44d" fill-rule="evenodd" fill-opacity="1" stroke="none"/>
<path clip-path="url(#clip501)" d="M909.255 1100.06 L909.255 1140.06 L949.255 1140.06 L949.255 1100.06 L909.255 1100.06 Z" fill="#3da44d" fill-rule="evenodd" fill-opacity="1" stroke="none"/>
<path clip-path="url(#clip501)" d="M796.489 1110.55 L796.489 1150.55 L836.489 1150.55 L836.489 1110.55 L796.489 1110.55 Z" fill="#3da44d" fill-rule="evenodd" fill-opacity="1" stroke="none"/>
<path clip-path="url(#clip501)" d="M599.004 662.598 L599.004 702.598 L639.004 702.598 L639.004 662.598 L599.004 662.598 Z" fill="#3da44d" fill-rule="evenodd" fill-opacity="1" stroke="none"/>
<path clip-path="url(#clip501)" d="M859.732 1120.59 L859.732 1160.59 L899.732 1160.59 L899.732 1120.59 L859.732 1120.59 Z" fill="#3da44d" fill-rule="evenodd" fill-opacity="1" stroke="none"/>
<path clip-path="url(#clip501)" d="M1307.48 911.834 L1307.48 951.834 L1347.48 951.834 L1347.48 911.834 L1307.48 911.834 Z" fill="#3da44d" fill-rule="evenodd" fill-opacity="1" stroke="none"/>
<path clip-path="url(#clip501)" d="M1198.7 982.399 L1198.7 1022.4 L1238.7 1022.4 L1238.7 982.399 L1198.7 982.399 Z" fill="#3da44d" fill-rule="evenodd" fill-opacity="1" stroke="none"/>
<path clip-path="url(#clip501)" d="M880.925 1013.8 L880.925 1053.8 L920.925 1053.8 L920.925 1013.8 L880.925 1013.8 Z" fill="#3da44d" fill-rule="evenodd" fill-opacity="1" stroke="none"/>
<path clip-path="url(#clip501)" d="M921.819 1215.43 L921.819 1255.43 L961.819 1255.43 L961.819 1215.43 L921.819 1215.43 Z" fill="#3da44d" fill-rule="evenodd" fill-opacity="1" stroke="none"/>
<path clip-path="url(#clip501)" d="M774.739 967.873 L774.739 1007.87 L814.739 1007.87 L814.739 967.873 L774.739 967.873 Z" fill="#3da44d" fill-rule="evenodd" fill-opacity="1" stroke="none"/>
<path clip-path="url(#clip501)" d="M782.274 726.593 L782.274 766.593 L822.274 766.593 L822.274 726.593 L782.274 726.593 Z" fill="#3da44d" fill-rule="evenodd" fill-opacity="1" stroke="none"/>
<path clip-path="url(#clip501)" d="M849.073 1042.67 L849.073 1082.67 L889.073 1082.67 L889.073 1042.67 L849.073 1042.67 Z" fill="#3da44d" fill-rule="evenodd" fill-opacity="1" stroke="none"/>
<path clip-path="url(#clip501)" d="M886.28 997.359 L886.28 1037.36 L926.28 1037.36 L926.28 997.359 L886.28 997.359 Z" fill="#3da44d" fill-rule="evenodd" fill-opacity="1" stroke="none"/>
<path clip-path="url(#clip501)" d="M803.545 968.68 L803.545 1008.68 L843.545 1008.68 L843.545 968.68 L803.545 968.68 Z" fill="#3da44d" fill-rule="evenodd" fill-opacity="1" stroke="none"/>
<path clip-path="url(#clip501)" d="M1091.43 1028.88 L1091.43 1068.88 L1131.43 1068.88 L1131.43 1028.88 L1091.43 1028.88 Z" fill="#3da44d" fill-rule="evenodd" fill-opacity="1" stroke="none"/>
<path clip-path="url(#clip501)" d="M769.091 1133.26 L769.091 1173.26 L809.091 1173.26 L809.091 1133.26 L769.091 1133.26 Z" fill="#3da44d" fill-rule="evenodd" fill-opacity="1" stroke="none"/>
<path clip-path="url(#clip501)" d="M730.856 787.452 L730.856 827.452 L770.856 827.452 L770.856 787.452 L730.856 787.452 Z" fill="#3da44d" fill-rule="evenodd" fill-opacity="1" stroke="none"/>
<path clip-path="url(#clip501)" d="M1001.01 1117.9 L1001.01 1157.9 L1041.01 1157.9 L1041.01 1117.9 L1001.01 1117.9 Z" fill="#3da44d" fill-rule="evenodd" fill-opacity="1" stroke="none"/>
<path clip-path="url(#clip501)" d="M1333.7 940.091 L1333.7 980.091 L1373.7 980.091 L1373.7 940.091 L1333.7 940.091 Z" fill="#3da44d" fill-rule="evenodd" fill-opacity="1" stroke="none"/>
<path clip-path="url(#clip501)" d="M722.403 862.526 L722.403 902.526 L762.403 902.526 L762.403 862.526 L722.403 862.526 Z" fill="#3da44d" fill-rule="evenodd" fill-opacity="1" stroke="none"/>
<path clip-path="url(#clip501)" d="M899.512 728.252 L899.512 768.252 L939.512 768.252 L939.512 728.252 L899.512 728.252 Z" fill="#3da44d" fill-rule="evenodd" fill-opacity="1" stroke="none"/>
<path clip-path="url(#clip501)" d="M846.165 966.275 L846.165 1006.27 L886.165 1006.27 L886.165 966.275 L846.165 966.275 Z" fill="#3da44d" fill-rule="evenodd" fill-opacity="1" stroke="none"/>
<path clip-path="url(#clip501)" d="M1049.33 999.84 L1049.33 1039.84 L1089.33 1039.84 L1089.33 999.84 L1049.33 999.84 Z" fill="#3da44d" fill-rule="evenodd" fill-opacity="1" stroke="none"/>
<path clip-path="url(#clip501)" d="M690.447 1055.63 L690.447 1095.63 L730.447 1095.63 L730.447 1055.63 L690.447 1055.63 Z" fill="#3da44d" fill-rule="evenodd" fill-opacity="1" stroke="none"/>
<path clip-path="url(#clip501)" d="M837.745 979.7 L837.745 1019.7 L877.745 1019.7 L877.745 979.7 L837.745 979.7 Z" fill="#3da44d" fill-rule="evenodd" fill-opacity="1" stroke="none"/>
<path clip-path="url(#clip501)" d="M968.301 1164.67 L968.301 1204.67 L1008.3 1204.67 L1008.3 1164.67 L968.301 1164.67 Z" fill="#3da44d" fill-rule="evenodd" fill-opacity="1" stroke="none"/>
<path clip-path="url(#clip501)" d="M1278.71 818.902 L1278.71 858.902 L1318.71 858.902 L1318.71 818.902 L1278.71 818.902 Z" fill="#3da44d" fill-rule="evenodd" fill-opacity="1" stroke="none"/>
<path clip-path="url(#clip501)" d="M740.146 1024.92 L740.146 1064.92 L780.146 1064.92 L780.146 1024.92 L740.146 1024.92 Z" fill="#3da44d" fill-rule="evenodd" fill-opacity="1" stroke="none"/>
<path clip-path="url(#clip501)" d="M834.917 1224.08 L834.917 1264.08 L874.917 1264.08 L874.917 1224.08 L834.917 1224.08 Z" fill="#3da44d" fill-rule="evenodd" fill-opacity="1" stroke="none"/>
<path clip-path="url(#clip501)" d="M784.013 935.378 L784.013 975.378 L824.013 975.378 L824.013 935.378 L784.013 935.378 Z" fill="#3da44d" fill-rule="evenodd" fill-opacity="1" stroke="none"/>
<path clip-path="url(#clip501)" d="M1227.9 995.995 L1227.9 1035.99 L1267.9 1035.99 L1267.9 995.995 L1227.9 995.995 Z" fill="#3da44d" fill-rule="evenodd" fill-opacity="1" stroke="none"/>
<path clip-path="url(#clip501)" d="M750.242 937.522 L750.242 977.522 L790.242 977.522 L790.242 937.522 L750.242 937.522 Z" fill="#3da44d" fill-rule="evenodd" fill-opacity="1" stroke="none"/>
<path clip-path="url(#clip501)" d="M1074.47 985.02 L1074.47 1025.02 L1114.47 1025.02 L1114.47 985.02 L1074.47 985.02 Z" fill="#3da44d" fill-rule="evenodd" fill-opacity="1" stroke="none"/>
<path clip-path="url(#clip501)" d="M858.254 1173.33 L858.254 1213.33 L898.254 1213.33 L898.254 1173.33 L858.254 1173.33 Z" fill="#3da44d" fill-rule="evenodd" fill-opacity="1" stroke="none"/>
<path clip-path="url(#clip501)" d="M591.606 749.274 L591.606 789.274 L631.606 789.274 L631.606 749.274 L591.606 749.274 Z" fill="#3da44d" fill-rule="evenodd" fill-opacity="1" stroke="none"/>
<path clip-path="url(#clip501)" d="M927.503 934.88 L927.503 974.88 L967.503 974.88 L967.503 934.88 L927.503 934.88 Z" fill="#3da44d" fill-rule="evenodd" fill-opacity="1" stroke="none"/>
<path clip-path="url(#clip501)" d="M953.489 1212.1 L953.489 1252.1 L993.489 1252.1 L993.489 1212.1 L953.489 1212.1 Z" fill="#3da44d" fill-rule="evenodd" fill-opacity="1" stroke="none"/>
<path clip-path="url(#clip501)" d="M756.823 1100.96 L756.823 1140.96 L796.823 1140.96 L796.823 1100.96 L756.823 1100.96 Z" fill="#3da44d" fill-rule="evenodd" fill-opacity="1" stroke="none"/>
<path clip-path="url(#clip501)" d="M906.161 1141.68 L906.161 1181.68 L946.161 1181.68 L946.161 1141.68 L906.161 1141.68 Z" fill="#3da44d" fill-rule="evenodd" fill-opacity="1" stroke="none"/>
<path clip-path="url(#clip501)" d="M1047.91 1170.96 L1047.91 1210.96 L1087.91 1210.96 L1087.91 1170.96 L1047.91 1170.96 Z" fill="#3da44d" fill-rule="evenodd" fill-opacity="1" stroke="none"/>
<path clip-path="url(#clip501)" d="M619.767 954.671 L619.767 994.671 L659.767 994.671 L659.767 954.671 L619.767 954.671 Z" fill="#3da44d" fill-rule="evenodd" fill-opacity="1" stroke="none"/>
<path clip-path="url(#clip501)" d="M866.299 933.805 L866.299 973.805 L906.299 973.805 L906.299 933.805 L866.299 933.805 Z" fill="#3da44d" fill-rule="evenodd" fill-opacity="1" stroke="none"/>
<path clip-path="url(#clip501)" d="M792.468 638.986 L792.468 678.986 L832.468 678.986 L832.468 638.986 L792.468 638.986 Z" fill="#3da44d" fill-rule="evenodd" fill-opacity="1" stroke="none"/>
<path clip-path="url(#clip501)" d="M924.108 1071.61 L924.108 1111.61 L964.108 1111.61 L964.108 1071.61 L924.108 1071.61 Z" fill="#3da44d" fill-rule="evenodd" fill-opacity="1" stroke="none"/>
<path clip-path="url(#clip501)" d="M1051.2 1065.96 L1051.2 1105.96 L1091.2 1105.96 L1091.2 1065.96 L1051.2 1065.96 Z" fill="#3da44d" fill-rule="evenodd" fill-opacity="1" stroke="none"/>
<path clip-path="url(#clip501)" d="M779.118 848.105 L779.118 888.105 L819.118 888.105 L819.118 848.105 L779.118 848.105 Z" fill="#3da44d" fill-rule="evenodd" fill-opacity="1" stroke="none"/>
<path clip-path="url(#clip501)" d="M555.73 532.296 L555.73 572.296 L595.73 572.296 L595.73 532.296 L555.73 532.296 Z" fill="#3da44d" fill-rule="evenodd" fill-opacity="1" stroke="none"/>
<path clip-path="url(#clip501)" d="M602.01 880.281 L602.01 920.281 L642.01 920.281 L642.01 880.281 L602.01 880.281 Z" fill="#3da44d" fill-rule="evenodd" fill-opacity="1" stroke="none"/>
<path clip-path="url(#clip501)" d="M908.576 1188.11 L908.576 1228.11 L948.576 1228.11 L948.576 1188.11 L908.576 1188.11 Z" fill="#3da44d" fill-rule="evenodd" fill-opacity="1" stroke="none"/>
<path clip-path="url(#clip501)" d="M730.288 859.728 L730.288 899.728 L770.288 899.728 L770.288 859.728 L730.288 859.728 Z" fill="#3da44d" fill-rule="evenodd" fill-opacity="1" stroke="none"/>
<path clip-path="url(#clip501)" d="M761.986 1017.52 L761.986 1057.52 L801.986 1057.52 L801.986 1017.52 L761.986 1017.52 Z" fill="#3da44d" fill-rule="evenodd" fill-opacity="1" stroke="none"/>
<path clip-path="url(#clip501)" d="M691.258 832.957 L691.258 872.957 L731.258 872.957 L731.258 832.957 L691.258 832.957 Z" fill="#3da44d" fill-rule="evenodd" fill-opacity="1" stroke="none"/>
<path clip-path="url(#clip501)" d="M675.687 815.056 L675.687 855.056 L715.687 855.056 L715.687 815.056 L675.687 815.056 Z" fill="#3da44d" fill-rule="evenodd" fill-opacity="1" stroke="none"/>
<path clip-path="url(#clip501)" d="M966.57 958.088 L966.57 998.088 L1006.57 998.088 L1006.57 958.088 L966.57 958.088 Z" fill="#3da44d" fill-rule="evenodd" fill-opacity="1" stroke="none"/>
<path clip-path="url(#clip501)" d="M1220.96 1097.4 L1220.96 1137.4 L1260.96 1137.4 L1260.96 1097.4 L1220.96 1097.4 Z" fill="#3da44d" fill-rule="evenodd" fill-opacity="1" stroke="none"/>
<path clip-path="url(#clip500)" d="M1741.39 1326.14 L2283.98 1326.14 L2283.98 859.584 L1741.39 859.584  Z" fill="#ffffff" fill-rule="evenodd" fill-opacity="1"/>
<polyline clip-path="url(#clip500)" style="stroke:#000000; stroke-linecap:round; stroke-linejoin:round; stroke-width:4; stroke-opacity:1; fill:none" points="1741.39,1326.14 2283.98,1326.14 2283.98,859.584 1741.39,859.584 1741.39,1326.14 "/>
<circle clip-path="url(#clip500)" cx="1833.09" cy="976.224" r="47.1273" fill="#009af9" fill-rule="evenodd" fill-opacity="1" stroke="none"/>
<path clip-path="url(#clip500)" d="M1935.32 945.99 L1935.32 1006.46 L1948.03 1006.46 Q1964.12 1006.46 1971.57 999.167 Q1979.07 991.875 1979.07 976.146 Q1979.07 960.521 1971.57 953.282 Q1964.12 945.99 1948.03 945.99 L1935.32 945.99 M1924.8 937.344 L1946.42 937.344 Q1969.02 937.344 1979.59 946.771 Q1990.16 956.146 1990.16 976.146 Q1990.16 996.25 1979.54 1005.68 Q1968.92 1015.1 1946.42 1015.1 L1924.8 1015.1 L1924.8 937.344 Z" fill="#000000" fill-rule="nonzero" fill-opacity="1" /><path clip-path="url(#clip500)" d="M2006.52 956.771 L2016.1 956.771 L2016.1 1015.1 L2006.52 1015.1 L2006.52 956.771 M2006.52 934.063 L2016.1 934.063 L2016.1 946.198 L2006.52 946.198 L2006.52 934.063 Z" fill="#000000" fill-rule="nonzero" fill-opacity="1" /><path clip-path="url(#clip500)" d="M2074.54 985.261 Q2074.54 974.844 2070.22 969.115 Q2065.95 963.386 2058.19 963.386 Q2050.48 963.386 2046.15 969.115 Q2041.88 974.844 2041.88 985.261 Q2041.88 995.625 2046.15 1001.35 Q2050.48 1007.08 2058.19 1007.08 Q2065.95 1007.08 2070.22 1001.35 Q2074.54 995.625 2074.54 985.261 M2084.12 1007.86 Q2084.12 1022.76 2077.51 1030 Q2070.89 1037.29 2057.25 1037.29 Q2052.2 1037.29 2047.72 1036.51 Q2043.24 1035.78 2039.02 1034.22 L2039.02 1024.9 Q2043.24 1027.19 2047.35 1028.28 Q2051.47 1029.38 2055.74 1029.38 Q2065.16 1029.38 2069.85 1024.43 Q2074.54 1019.53 2074.54 1009.58 L2074.54 1004.84 Q2071.57 1010 2066.94 1012.55 Q2062.3 1015.1 2055.84 1015.1 Q2045.11 1015.1 2038.55 1006.93 Q2031.99 998.75 2031.99 985.261 Q2031.99 971.719 2038.55 963.542 Q2045.11 955.365 2055.84 955.365 Q2062.3 955.365 2066.94 957.917 Q2071.57 960.469 2074.54 965.625 L2074.54 956.771 L2084.12 956.771 L2084.12 1007.86 Z" fill="#000000" fill-rule="nonzero" fill-opacity="1" /><path clip-path="url(#clip500)" d="M2103.86 956.771 L2113.45 956.771 L2113.45 1015.1 L2103.86 1015.1 L2103.86 956.771 M2103.86 934.063 L2113.45 934.063 L2113.45 946.198 L2103.86 946.198 L2103.86 934.063 Z" fill="#000000" fill-rule="nonzero" fill-opacity="1" /><path clip-path="url(#clip500)" d="M2142.98 940.209 L2142.98 956.771 L2162.72 956.771 L2162.72 964.219 L2142.98 964.219 L2142.98 995.886 Q2142.98 1003.02 2144.9 1005.05 Q2146.88 1007.08 2152.87 1007.08 L2162.72 1007.08 L2162.72 1015.1 L2152.87 1015.1 Q2141.78 1015.1 2137.56 1010.99 Q2133.34 1006.82 2133.34 995.886 L2133.34 964.219 L2126.31 964.219 L2126.31 956.771 L2133.34 956.771 L2133.34 940.209 L2142.98 940.209 Z" fill="#000000" fill-rule="nonzero" fill-opacity="1" /><path clip-path="url(#clip500)" d="M2233.08 944.271 Q2224.96 944.271 2220.84 952.292 Q2216.78 960.261 2216.78 976.302 Q2216.78 992.292 2220.84 1000.31 Q2224.96 1008.28 2233.08 1008.28 Q2241.26 1008.28 2245.32 1000.31 Q2249.43 992.292 2249.43 976.302 Q2249.43 960.261 2245.32 952.292 Q2241.26 944.271 2233.08 944.271 M2233.08 935.938 Q2246.15 935.938 2253.03 946.303 Q2259.96 956.615 2259.96 976.302 Q2259.96 995.938 2253.03 1006.3 Q2246.15 1016.61 2233.08 1016.61 Q2220.01 1016.61 2213.08 1006.3 Q2206.21 995.938 2206.21 976.302 Q2206.21 956.615 2213.08 946.303 Q2220.01 935.938 2233.08 935.938 Z" fill="#000000" fill-rule="nonzero" fill-opacity="1" /><path clip-path="url(#clip500)" d="M1833.09 1040.5 L1780.73 1092.86 L1833.09 1145.23 L1885.46 1092.86 L1833.09 1040.5 Z" fill="#e26f46" fill-rule="evenodd" fill-opacity="1" stroke="none"/>
<path clip-path="url(#clip500)" d="M1935.32 1062.63 L1935.32 1123.1 L1948.03 1123.1 Q1964.12 1123.1 1971.57 1115.81 Q1979.07 1108.52 1979.07 1092.79 Q1979.07 1077.16 1971.57 1069.92 Q1964.12 1062.63 1948.03 1062.63 L1935.32 1062.63 M1924.8 1053.98 L1946.42 1053.98 Q1969.02 1053.98 1979.59 1063.41 Q1990.16 1072.79 1990.16 1092.79 Q1990.16 1112.89 1979.54 1122.32 Q1968.92 1131.74 1946.42 1131.74 L1924.8 1131.74 L1924.8 1053.98 Z" fill="#000000" fill-rule="nonzero" fill-opacity="1" /><path clip-path="url(#clip500)" d="M2006.52 1073.41 L2016.1 1073.41 L2016.1 1131.74 L2006.52 1131.74 L2006.52 1073.41 M2006.52 1050.7 L2016.1 1050.7 L2016.1 1062.84 L2006.52 1062.84 L2006.52 1050.7 Z" fill="#000000" fill-rule="nonzero" fill-opacity="1" /><path clip-path="url(#clip500)" d="M2074.54 1101.9 Q2074.54 1091.48 2070.22 1085.75 Q2065.95 1080.03 2058.19 1080.03 Q2050.48 1080.03 2046.15 1085.75 Q2041.88 1091.48 2041.88 1101.9 Q2041.88 1112.27 2046.15 1117.99 Q2050.48 1123.72 2058.19 1123.72 Q2065.95 1123.72 2070.22 1117.99 Q2074.54 1112.27 2074.54 1101.9 M2084.12 1124.5 Q2084.12 1139.4 2077.51 1146.64 Q2070.89 1153.93 2057.25 1153.93 Q2052.2 1153.93 2047.72 1153.15 Q2043.24 1152.42 2039.02 1150.86 L2039.02 1141.54 Q2043.24 1143.83 2047.35 1144.92 Q2051.47 1146.02 2055.74 1146.02 Q2065.16 1146.02 2069.85 1141.07 Q2074.54 1136.17 2074.54 1126.22 L2074.54 1121.48 Q2071.57 1126.64 2066.94 1129.19 Q2062.3 1131.74 2055.84 1131.74 Q2045.11 1131.74 2038.55 1123.57 Q2031.99 1115.39 2031.99 1101.9 Q2031.99 1088.36 2038.55 1080.18 Q2045.11 1072 2055.84 1072 Q2062.3 1072 2066.94 1074.56 Q2071.57 1077.11 2074.54 1082.27 L2074.54 1073.41 L2084.12 1073.41 L2084.12 1124.5 Z" fill="#000000" fill-rule="nonzero" fill-opacity="1" /><path clip-path="url(#clip500)" d="M2103.86 1073.41 L2113.45 1073.41 L2113.45 1131.74 L2103.86 1131.74 L2103.86 1073.41 M2103.86 1050.7 L2113.45 1050.7 L2113.45 1062.84 L2103.86 1062.84 L2103.86 1050.7 Z" fill="#000000" fill-rule="nonzero" fill-opacity="1" /><path clip-path="url(#clip500)" d="M2142.98 1056.85 L2142.98 1073.41 L2162.72 1073.41 L2162.72 1080.86 L2142.98 1080.86 L2142.98 1112.53 Q2142.98 1119.66 2144.9 1121.69 Q2146.88 1123.72 2152.87 1123.72 L2162.72 1123.72 L2162.72 1131.74 L2152.87 1131.74 Q2141.78 1131.74 2137.56 1127.63 Q2133.34 1123.46 2133.34 1112.53 L2133.34 1080.86 L2126.31 1080.86 L2126.31 1073.41 L2133.34 1073.41 L2133.34 1056.85 L2142.98 1056.85 Z" fill="#000000" fill-rule="nonzero" fill-opacity="1" /><path clip-path="url(#clip500)" d="M2212.4 1122.89 L2229.59 1122.89 L2229.59 1063.57 L2210.89 1067.32 L2210.89 1057.73 L2229.49 1053.98 L2240.01 1053.98 L2240.01 1122.89 L2257.19 1122.89 L2257.19 1131.74 L2212.4 1131.74 L2212.4 1122.89 Z" fill="#000000" fill-rule="nonzero" fill-opacity="1" /><path clip-path="url(#clip500)" d="M1780.73 1157.14 L1780.73 1261.87 L1885.46 1261.87 L1885.46 1157.14 L1780.73 1157.14 Z" fill="#3da44d" fill-rule="evenodd" fill-opacity="1" stroke="none"/>
<path clip-path="url(#clip500)" d="M1935.32 1179.27 L1935.32 1239.74 L1948.03 1239.74 Q1964.12 1239.74 1971.57 1232.45 Q1979.07 1225.16 1979.07 1209.43 Q1979.07 1193.8 1971.57 1186.56 Q1964.12 1179.27 1948.03 1179.27 L1935.32 1179.27 M1924.8 1170.62 L1946.42 1170.62 Q1969.02 1170.62 1979.59 1180.05 Q1990.16 1189.43 1990.16 1209.43 Q1990.16 1229.53 1979.54 1238.96 Q1968.92 1248.38 1946.42 1248.38 L1924.8 1248.38 L1924.8 1170.62 Z" fill="#000000" fill-rule="nonzero" fill-opacity="1" /><path clip-path="url(#clip500)" d="M2006.52 1190.05 L2016.1 1190.05 L2016.1 1248.38 L2006.52 1248.38 L2006.52 1190.05 M2006.52 1167.34 L2016.1 1167.34 L2016.1 1179.48 L2006.52 1179.48 L2006.52 1167.34 Z" fill="#000000" fill-rule="nonzero" fill-opacity="1" /><path clip-path="url(#clip500)" d="M2074.54 1218.54 Q2074.54 1208.12 2070.22 1202.39 Q2065.95 1196.67 2058.19 1196.67 Q2050.48 1196.67 2046.15 1202.39 Q2041.88 1208.12 2041.88 1218.54 Q2041.88 1228.91 2046.15 1234.63 Q2050.48 1240.36 2058.19 1240.36 Q2065.95 1240.36 2070.22 1234.63 Q2074.54 1228.91 2074.54 1218.54 M2084.12 1241.14 Q2084.12 1256.04 2077.51 1263.28 Q2070.89 1270.57 2057.25 1270.57 Q2052.2 1270.57 2047.72 1269.79 Q2043.24 1269.06 2039.02 1267.5 L2039.02 1258.18 Q2043.24 1260.47 2047.35 1261.56 Q2051.47 1262.66 2055.74 1262.66 Q2065.16 1262.66 2069.85 1257.71 Q2074.54 1252.81 2074.54 1242.86 L2074.54 1238.12 Q2071.57 1243.28 2066.94 1245.83 Q2062.3 1248.38 2055.84 1248.38 Q2045.11 1248.38 2038.55 1240.21 Q2031.99 1232.03 2031.99 1218.54 Q2031.99 1205 2038.55 1196.82 Q2045.11 1188.64 2055.84 1188.64 Q2062.3 1188.64 2066.94 1191.2 Q2071.57 1193.75 2074.54 1198.91 L2074.54 1190.05 L2084.12 1190.05 L2084.12 1241.14 Z" fill="#000000" fill-rule="nonzero" fill-opacity="1" /><path clip-path="url(#clip500)" d="M2103.86 1190.05 L2113.45 1190.05 L2113.45 1248.38 L2103.86 1248.38 L2103.86 1190.05 M2103.86 1167.34 L2113.45 1167.34 L2113.45 1179.48 L2103.86 1179.48 L2103.86 1167.34 Z" fill="#000000" fill-rule="nonzero" fill-opacity="1" /><path clip-path="url(#clip500)" d="M2142.98 1173.49 L2142.98 1190.05 L2162.72 1190.05 L2162.72 1197.5 L2142.98 1197.5 L2142.98 1229.17 Q2142.98 1236.3 2144.9 1238.33 Q2146.88 1240.36 2152.87 1240.36 L2162.72 1240.36 L2162.72 1248.38 L2152.87 1248.38 Q2141.78 1248.38 2137.56 1244.27 Q2133.34 1240.1 2133.34 1229.17 L2133.34 1197.5 L2126.31 1197.5 L2126.31 1190.05 L2133.34 1190.05 L2133.34 1173.49 L2142.98 1173.49 Z" fill="#000000" fill-rule="nonzero" fill-opacity="1" /><path clip-path="url(#clip500)" d="M2239.49 1179.79 L2212.92 1221.3 L2239.49 1221.3 L2239.49 1179.79 M2236.73 1170.62 L2249.96 1170.62 L2249.96 1221.3 L2261.05 1221.3 L2261.05 1230.05 L2249.96 1230.05 L2249.96 1248.38 L2239.49 1248.38 L2239.49 1230.05 L2204.38 1230.05 L2204.38 1219.89 L2236.73 1170.62 Z" fill="#000000" fill-rule="nonzero" fill-opacity="1" /></svg>
