<?xml version="1.0" encoding="utf-8"?>
<svg xmlns="http://www.w3.org/2000/svg" xmlns:xlink="http://www.w3.org/1999/xlink" width="600" height="400" viewBox="0 0 2400 1600">
<defs>
  <clipPath id="clip440">
    <rect x="0" y="0" width="2400" height="1600"/>
  </clipPath>
</defs>
<path clip-path="url(#clip440)" d="M0 1600 L2400 1600 L2400 0 L0 0  Z" fill="#ffffff" fill-rule="evenodd" fill-opacity="1"/>
<defs>
  <clipPath id="clip441">
    <rect x="274" y="140" width="2079" height="1227"/>
  </clipPath>
</defs>
<path clip-path="url(#clip440)" d="M274.927 1367.02 L2352.76 1367.02 L2352.76 140.752 L274.927 140.752  Z" fill="#ffffff" fill-rule="evenodd" fill-opacity="1"/>
<polyline clip-path="url(#clip441)" style="stroke:#000000; stroke-linecap:round; stroke-linejoin:round; stroke-width:2; stroke-opacity:0.1; fill:none" points="333.733,1367.02 333.733,140.752 "/>
<polyline clip-path="url(#clip441)" style="stroke:#000000; stroke-linecap:round; stroke-linejoin:round; stroke-width:2; stroke-opacity:0.1; fill:none" points="388.488,1367.02 388.488,140.752 "/>
<polyline clip-path="url(#clip441)" style="stroke:#000000; stroke-linecap:round; stroke-linejoin:round; stroke-width:2; stroke-opacity:0.1; fill:none" points="2293.95,1367.02 2293.95,140.752 "/>
<polyline clip-path="url(#clip441)" style="stroke:#000000; stroke-linecap:round; stroke-linejoin:round; stroke-width:2; stroke-opacity:0.1; fill:none" points="274.927,1332.31 2352.76,1332.31 "/>
<polyline clip-path="url(#clip441)" style="stroke:#000000; stroke-linecap:round; stroke-linejoin:round; stroke-width:2; stroke-opacity:0.1; fill:none" points="274.927,1332.31 2352.76,1332.31 "/>
<polyline clip-path="url(#clip441)" style="stroke:#000000; stroke-linecap:round; stroke-linejoin:round; stroke-width:2; stroke-opacity:0.1; fill:none" points="274.927,199.559 2352.76,199.559 "/>
<polyline clip-path="url(#clip440)" style="stroke:#000000; stroke-linecap:round; stroke-linejoin:round; stroke-width:4; stroke-opacity:1; fill:none" points="274.927,1367.02 2352.76,1367.02 "/>
<polyline clip-path="url(#clip440)" style="stroke:#000000; stroke-linecap:round; stroke-linejoin:round; stroke-width:4; stroke-opacity:1; fill:none" points="333.733,1367.02 333.733,1348.12 "/>
<polyline clip-path="url(#clip440)" style="stroke:#000000; stroke-linecap:round; stroke-linejoin:round; stroke-width:4; stroke-opacity:1; fill:none" points="388.488,1367.02 388.488,1348.12 "/>
<polyline clip-path="url(#clip440)" style="stroke:#000000; stroke-linecap:round; stroke-linejoin:round; stroke-width:4; stroke-opacity:1; fill:none" points="2293.95,1367.02 2293.95,1348.12 "/>
<path clip-path="url(#clip440)" d="M316.902 1454.93 L330.27 1454.93 L330.27 1408.79 L315.727 1411.71 L315.727 1404.26 L330.189 1401.34 L338.372 1401.34 L338.372 1454.93 L351.739 1454.93 L351.739 1461.82 L316.902 1461.82 L316.902 1454.93 Z" fill="#000000" fill-rule="nonzero" fill-opacity="1" /><path clip-path="url(#clip440)" d="M389.197 1428.32 Q383.688 1428.32 380.447 1432.09 Q377.247 1435.85 377.247 1442.42 Q377.247 1448.94 380.447 1452.75 Q383.688 1456.51 389.197 1456.51 Q394.706 1456.51 397.906 1452.75 Q401.147 1448.94 401.147 1442.42 Q401.147 1435.85 397.906 1432.09 Q394.706 1428.32 389.197 1428.32 M405.441 1402.68 L405.441 1410.13 Q402.362 1408.67 399.203 1407.9 Q396.083 1407.13 393.005 1407.13 Q384.903 1407.13 380.609 1412.6 Q376.355 1418.07 375.748 1429.13 Q378.138 1425.6 381.743 1423.74 Q385.348 1421.84 389.683 1421.84 Q398.797 1421.84 404.064 1427.39 Q409.37 1432.9 409.37 1442.42 Q409.37 1451.73 403.861 1457.36 Q398.352 1462.99 389.197 1462.99 Q378.705 1462.99 373.155 1454.97 Q367.605 1446.91 367.605 1431.64 Q367.605 1417.3 374.411 1408.79 Q381.216 1400.25 392.681 1400.25 Q395.759 1400.25 398.878 1400.85 Q402.038 1401.46 405.441 1402.68 Z" fill="#000000" fill-rule="nonzero" fill-opacity="1" /><path clip-path="url(#clip440)" d="M2223.26 1454.93 L2236.63 1454.93 L2236.63 1408.79 L2222.09 1411.71 L2222.09 1404.26 L2236.55 1401.34 L2244.73 1401.34 L2244.73 1454.93 L2258.1 1454.93 L2258.1 1461.82 L2223.26 1461.82 L2223.26 1454.93 Z" fill="#000000" fill-rule="nonzero" fill-opacity="1" /><path clip-path="url(#clip440)" d="M2292.13 1433.1 Q2286.29 1433.1 2282.93 1436.22 Q2279.61 1439.34 2279.61 1444.81 Q2279.61 1450.27 2282.93 1453.39 Q2286.29 1456.51 2292.13 1456.51 Q2297.96 1456.51 2301.32 1453.39 Q2304.68 1450.23 2304.68 1444.81 Q2304.68 1439.34 2301.32 1436.22 Q2298 1433.1 2292.13 1433.1 M2283.94 1429.62 Q2278.68 1428.32 2275.72 1424.71 Q2272.8 1421.11 2272.8 1415.92 Q2272.8 1408.67 2277.95 1404.46 Q2283.13 1400.25 2292.13 1400.25 Q2301.16 1400.25 2306.3 1404.46 Q2311.45 1408.67 2311.45 1415.92 Q2311.45 1421.11 2308.49 1424.71 Q2305.58 1428.32 2300.35 1429.62 Q2306.26 1430.99 2309.55 1435 Q2312.87 1439.01 2312.87 1444.81 Q2312.87 1453.6 2307.48 1458.3 Q2302.13 1462.99 2292.13 1462.99 Q2282.12 1462.99 2276.73 1458.3 Q2271.39 1453.6 2271.39 1444.81 Q2271.39 1439.01 2274.71 1435 Q2278.03 1430.99 2283.94 1429.62 M2280.95 1416.69 Q2280.95 1421.39 2283.86 1424.02 Q2286.82 1426.66 2292.13 1426.66 Q2297.39 1426.66 2300.35 1424.02 Q2303.35 1421.39 2303.35 1416.69 Q2303.35 1411.99 2300.35 1409.36 Q2297.39 1406.73 2292.13 1406.73 Q2286.82 1406.73 2283.86 1409.36 Q2280.95 1411.99 2280.95 1416.69 Z" fill="#000000" fill-rule="nonzero" fill-opacity="1" /><path clip-path="url(#clip440)" d="M2344.91 1406.73 Q2338.59 1406.73 2335.39 1412.97 Q2332.23 1419.16 2332.23 1431.64 Q2332.23 1444.08 2335.39 1450.32 Q2338.59 1456.51 2344.91 1456.51 Q2351.27 1456.51 2354.43 1450.32 Q2357.63 1444.08 2357.63 1431.64 Q2357.63 1419.16 2354.43 1412.97 Q2351.27 1406.73 2344.91 1406.73 M2344.91 1400.25 Q2355.08 1400.25 2360.42 1408.31 Q2365.81 1416.33 2365.81 1431.64 Q2365.81 1446.91 2360.42 1454.97 Q2355.08 1462.99 2344.91 1462.99 Q2334.74 1462.99 2329.35 1454.97 Q2324.01 1446.91 2324.01 1431.64 Q2324.01 1416.33 2329.35 1408.31 Q2334.74 1400.25 2344.91 1400.25 Z" fill="#000000" fill-rule="nonzero" fill-opacity="1" /><path clip-path="url(#clip440)" d="M1334.85 1535.98 Q1334.85 1538.99 1333.01 1540.78 Q1331.21 1542.57 1328.95 1542.57 Q1326.94 1542.57 1325.89 1541.41 Q1324.84 1540.25 1324.84 1538.78 Q1324.84 1538.15 1325.1 1537.35 Q1325.36 1536.51 1325.94 1535.51 Q1326.58 1534.51 1327.89 1533.77 Q1329.21 1533.03 1331 1532.93 Q1330.63 1532.56 1330.53 1532.51 Q1329.74 1531.87 1328.26 1531.66 Q1328.05 1531.56 1327.31 1531.56 Q1323.68 1531.56 1319.99 1534.25 Q1316.35 1536.88 1311.87 1541.89 Q1306.23 1547.74 1302.6 1549.9 Q1318.57 1552.01 1318.57 1561.23 Q1318.57 1562.76 1318.14 1564.6 Q1317.3 1568.08 1317.3 1570.61 Q1317.3 1575.67 1320.73 1575.67 Q1324.05 1575.67 1326.15 1572.3 Q1328.32 1568.92 1330.11 1562.33 Q1330.37 1561.12 1330.63 1560.75 Q1330.9 1560.38 1331.64 1560.38 Q1332.95 1560.38 1332.95 1561.44 Q1331.74 1567.6 1329.05 1572.35 Q1325.63 1578.09 1320.52 1578.09 Q1316.25 1578.09 1313.4 1575.14 Q1310.61 1572.14 1310.61 1567.39 Q1310.61 1566.23 1311.03 1563.6 Q1311.35 1562.55 1311.35 1561.33 Q1311.35 1558.86 1309.98 1557.01 Q1308.61 1555.11 1306.39 1554.17 Q1304.18 1553.22 1302.33 1552.8 Q1300.54 1552.32 1298.8 1552.16 Q1293.53 1574.46 1292.79 1575.83 Q1292.32 1576.77 1291.27 1577.41 Q1290.21 1578.09 1289.11 1578.09 Q1288.05 1578.09 1287 1577.35 Q1286 1576.67 1286 1575.04 Q1286 1574.19 1286.42 1572.66 L1302.07 1510.48 L1302.39 1508.37 Q1302.39 1507.74 1302.12 1507.42 Q1301.91 1507.05 1300.65 1506.79 Q1299.44 1506.53 1297.01 1506.53 Q1296.01 1506.53 1295.54 1506.47 Q1295.11 1506.42 1294.74 1506.16 Q1294.38 1505.84 1294.38 1505.21 Q1294.38 1504.31 1294.74 1503.84 Q1295.17 1503.31 1295.48 1503.2 Q1295.8 1503.1 1296.43 1503.05 Q1297.33 1502.99 1300.33 1502.73 Q1303.33 1502.41 1305.92 1502.2 Q1308.5 1501.99 1309.61 1501.99 Q1310.24 1501.99 1310.55 1502.31 Q1310.92 1502.57 1310.98 1502.89 L1311.03 1503.15 L1299.8 1548.69 Q1304.44 1546.84 1311.77 1538.67 Q1320.25 1529.19 1327.52 1529.19 Q1330.95 1529.19 1332.9 1531.29 Q1334.85 1533.35 1334.85 1535.98 Z" fill="#000000" fill-rule="nonzero" fill-opacity="1" /><polyline clip-path="url(#clip440)" style="stroke:#000000; stroke-linecap:round; stroke-linejoin:round; stroke-width:4; stroke-opacity:1; fill:none" points="274.927,1367.02 274.927,140.752 "/>
<polyline clip-path="url(#clip440)" style="stroke:#000000; stroke-linecap:round; stroke-linejoin:round; stroke-width:4; stroke-opacity:1; fill:none" points="274.927,1332.31 293.824,1332.31 "/>
<polyline clip-path="url(#clip440)" style="stroke:#000000; stroke-linecap:round; stroke-linejoin:round; stroke-width:4; stroke-opacity:1; fill:none" points="274.927,1332.31 293.824,1332.31 "/>
<polyline clip-path="url(#clip440)" style="stroke:#000000; stroke-linecap:round; stroke-linejoin:round; stroke-width:4; stroke-opacity:1; fill:none" points="274.927,199.559 293.824,199.559 "/>
<path clip-path="url(#clip440)" d="M218.024 1307.46 Q211.705 1307.46 208.504 1313.7 Q205.345 1319.9 205.345 1332.37 Q205.345 1344.81 208.504 1351.05 Q211.705 1357.25 218.024 1357.25 Q224.384 1357.25 227.544 1351.05 Q230.744 1344.81 230.744 1332.37 Q230.744 1319.9 227.544 1313.7 Q224.384 1307.46 218.024 1307.46 M218.024 1300.98 Q228.192 1300.98 233.539 1309.04 Q238.927 1317.06 238.927 1332.37 Q238.927 1347.65 233.539 1355.71 Q228.192 1363.73 218.024 1363.73 Q207.856 1363.73 202.469 1355.71 Q197.121 1347.65 197.121 1332.37 Q197.121 1317.06 202.469 1309.04 Q207.856 1300.98 218.024 1300.98 Z" fill="#000000" fill-rule="nonzero" fill-opacity="1" /><path clip-path="url(#clip440)" d="M218.024 1307.46 Q211.705 1307.46 208.504 1313.7 Q205.345 1319.9 205.345 1332.37 Q205.345 1344.81 208.504 1351.05 Q211.705 1357.25 218.024 1357.25 Q224.384 1357.25 227.544 1351.05 Q230.744 1344.81 230.744 1332.37 Q230.744 1319.9 227.544 1313.7 Q224.384 1307.46 218.024 1307.46 M218.024 1300.98 Q228.192 1300.98 233.539 1309.04 Q238.927 1317.06 238.927 1332.37 Q238.927 1347.65 233.539 1355.71 Q228.192 1363.73 218.024 1363.73 Q207.856 1363.73 202.469 1355.71 Q197.121 1347.65 197.121 1332.37 Q197.121 1317.06 202.469 1309.04 Q207.856 1300.98 218.024 1300.98 Z" fill="#000000" fill-rule="nonzero" fill-opacity="1" /><path clip-path="url(#clip440)" d="M171.803 176.449 L151.144 208.734 L171.803 208.734 L171.803 176.449 M169.656 169.319 L179.946 169.319 L179.946 208.734 L188.574 208.734 L188.574 215.54 L179.946 215.54 L179.946 229.799 L171.803 229.799 L171.803 215.54 L144.5 215.54 L144.5 207.641 L169.656 169.319 Z" fill="#000000" fill-rule="nonzero" fill-opacity="1" /><path clip-path="url(#clip440)" d="M200.038 169.319 L238.927 169.319 L238.927 172.803 L216.971 229.799 L208.423 229.799 L229.083 176.206 L200.038 176.206 L200.038 169.319 Z" fill="#000000" fill-rule="nonzero" fill-opacity="1" /><path clip-path="url(#clip440)" d="M24.3401 753.52 Q28.0291 753.52 28.0291 758.79 L28.0291 770.648 Q32.7721 767.328 39.7813 767.328 Q45.7892 767.328 51.4281 769.805 Q57.0144 772.229 60.9142 776.129 Q64.814 779.976 67.1856 784.825 Q69.5044 789.673 69.5044 794.416 Q69.5044 801.636 64.6032 806.116 Q59.7021 810.595 52.4294 810.595 Q48.5823 810.595 44.3136 809.278 Q40.0448 807.907 36.0923 805.325 Q32.087 802.743 28.8723 799.37 Q25.6576 795.944 23.7077 791.517 Q21.7577 787.038 21.7577 782.348 L21.7577 757.736 Q21.7577 756.419 21.8631 755.734 Q21.9158 754.996 22.5482 754.258 Q23.128 753.52 24.3401 753.52 M38.5165 774.232 Q37.2517 774.232 36.145 774.39 Q34.9856 774.548 33.4573 775.128 Q31.8762 775.707 30.7695 776.709 Q29.6101 777.71 28.8196 779.66 Q28.0291 781.557 28.0291 784.139 Q28.0291 787.776 30.0317 791.781 Q32.0343 795.786 36.9882 798.843 Q41.2042 801.372 46.6851 802.637 Q52.1659 803.902 55.4334 803.902 Q61.0196 803.902 64.0762 801.214 Q67.0802 798.474 67.0802 794.311 Q67.0802 790.885 64.7613 786.985 Q62.3898 783.085 57.9103 780.081 Q54.0104 777.446 48.3188 775.865 Q42.6271 774.232 38.5165 774.232 Z" fill="#000000" fill-rule="nonzero" fill-opacity="1" /><path clip-path="url(#clip440)" d="M72.0207 708.362 Q74.1234 708.362 75.3777 709.653 Q76.632 710.908 76.632 712.494 Q76.632 713.896 75.8204 714.633 Q75.0088 715.371 73.9759 715.371 Q73.5332 715.371 72.9798 715.187 Q72.3896 715.002 71.6887 714.597 Q70.9878 714.154 70.4713 713.232 Q69.9548 712.309 69.881 711.055 Q69.6228 711.313 69.5859 711.387 Q69.1432 711.94 68.9957 712.973 Q68.9219 713.121 68.9219 713.637 Q68.9219 716.183 70.8033 718.765 Q72.6478 721.311 76.1524 724.446 Q80.2472 728.394 81.7597 730.939 Q83.2353 719.761 89.6912 719.761 Q90.761 719.761 92.0521 720.056 Q94.4869 720.647 96.2576 720.647 Q99.7991 720.647 99.7991 718.249 Q99.7991 715.925 97.4381 714.449 Q95.0772 712.936 90.4659 711.682 Q89.6174 711.498 89.3591 711.313 Q89.1009 711.129 89.1009 710.612 Q89.1009 709.69 89.8387 709.69 Q94.1549 710.539 97.475 712.42 Q101.496 714.818 101.496 718.396 Q101.496 721.384 99.4302 723.376 Q97.3275 725.332 94.0073 725.332 Q93.1957 725.332 91.3512 725.037 Q90.6134 724.815 89.7649 724.815 Q88.0311 724.815 86.7399 725.774 Q85.4119 726.733 84.7479 728.283 Q84.0838 729.832 83.7887 731.123 Q83.4567 732.378 83.346 733.595 Q98.9506 737.284 99.9098 737.801 Q100.574 738.133 101.016 738.87 Q101.496 739.608 101.496 740.383 Q101.496 741.121 100.98 741.859 Q100.5 742.559 99.3564 742.559 Q98.7662 742.559 97.6964 742.264 L54.1658 731.308 L52.6901 731.087 Q52.2475 731.087 52.0261 731.271 Q51.7679 731.419 51.5834 732.304 Q51.399 733.152 51.399 734.849 Q51.399 735.55 51.3621 735.882 Q51.3252 736.177 51.1407 736.436 Q50.9194 736.694 50.4767 736.694 Q49.8496 736.694 49.5176 736.436 Q49.1487 736.141 49.0749 735.919 Q49.0011 735.698 48.9642 735.255 Q48.9273 734.628 48.7429 732.525 Q48.5215 730.422 48.374 728.615 Q48.2264 726.807 48.2264 726.033 Q48.2264 725.59 48.4477 725.369 Q48.6322 725.11 48.8535 725.073 L49.038 725.037 L80.9113 732.894 Q79.6201 729.648 73.9021 724.52 Q67.2618 718.581 67.2618 713.49 Q67.2618 711.092 68.7374 709.727 Q70.1762 708.362 72.0207 708.362 Z" fill="#000000" fill-rule="nonzero" fill-opacity="1" /><path clip-path="url(#clip440)" d="M1099.96 18.1041 L1099.96 28.3644 Q1093.97 25.4999 1088.66 24.0936 Q1083.35 22.6874 1078.4 22.6874 Q1069.81 22.6874 1065.12 26.0207 Q1060.48 29.354 1060.48 35.4998 Q1060.48 40.656 1063.56 43.3123 Q1066.68 45.9164 1075.33 47.531 L1081.68 48.8331 Q1093.45 51.0726 1099.02 56.7497 Q1104.65 62.3747 1104.65 71.8538 Q1104.65 83.1558 1097.05 88.9891 Q1089.49 94.8224 1074.86 94.8224 Q1069.34 94.8224 1063.09 93.5724 Q1056.89 92.3224 1050.22 89.8745 L1050.22 79.0412 Q1056.63 82.635 1062.77 84.4579 Q1068.92 86.2808 1074.86 86.2808 Q1083.87 86.2808 1088.76 82.7391 Q1093.66 79.1975 1093.66 72.635 Q1093.66 66.9059 1090.12 63.6767 Q1086.63 60.4476 1078.61 58.833 L1072.2 57.583 Q1060.43 55.2393 1055.17 50.2393 Q1049.91 45.2393 1049.91 36.3331 Q1049.91 26.0207 1057.15 20.0832 Q1064.44 14.1458 1077.2 14.1458 Q1082.67 14.1458 1088.35 15.1353 Q1094.02 16.1249 1099.96 18.1041 Z" fill="#000000" fill-rule="nonzero" fill-opacity="1" /><path clip-path="url(#clip440)" d="M1162.62 37.2186 L1162.62 46.1768 Q1158.56 43.9373 1154.44 42.8435 Q1150.38 41.6977 1146.21 41.6977 Q1136.89 41.6977 1131.73 47.6352 Q1126.58 53.5205 1126.58 64.1976 Q1126.58 74.8746 1131.73 80.8121 Q1136.89 86.6975 1146.21 86.6975 Q1150.38 86.6975 1154.44 85.6037 Q1158.56 84.4579 1162.62 82.2183 L1162.62 91.0724 Q1158.61 92.9474 1154.28 93.8849 Q1150.01 94.8224 1145.17 94.8224 Q1131.99 94.8224 1124.23 86.5412 Q1116.47 78.26 1116.47 64.1976 Q1116.47 49.9268 1124.29 41.7498 Q1132.15 33.5727 1145.8 33.5727 Q1150.22 33.5727 1154.44 34.5102 Q1158.66 35.3956 1162.62 37.2186 Z" fill="#000000" fill-rule="nonzero" fill-opacity="1" /><path clip-path="url(#clip440)" d="M1213.09 43.9373 Q1211.47 42.9998 1209.55 42.5831 Q1207.67 42.1144 1205.38 42.1144 Q1197.25 42.1144 1192.88 47.4268 Q1188.56 52.6872 1188.56 62.583 L1188.56 93.312 L1178.92 93.312 L1178.92 34.979 L1188.56 34.979 L1188.56 44.0414 Q1191.58 38.729 1196.42 36.1769 Q1201.26 33.5727 1208.19 33.5727 Q1209.18 33.5727 1210.38 33.729 Q1211.58 33.8332 1213.03 34.0936 L1213.09 43.9373 Z" fill="#000000" fill-rule="nonzero" fill-opacity="1" /><path clip-path="url(#clip440)" d="M1270.69 61.7497 L1270.69 66.4371 L1226.63 66.4371 Q1227.25 76.3329 1232.57 81.5412 Q1237.93 86.6975 1247.46 86.6975 Q1252.98 86.6975 1258.14 85.3433 Q1263.35 83.9891 1268.45 81.2808 L1268.45 90.3433 Q1263.29 92.5308 1257.88 93.6766 Q1252.46 94.8224 1246.89 94.8224 Q1232.93 94.8224 1224.75 86.6975 Q1216.63 78.5725 1216.63 64.7184 Q1216.63 50.3956 1224.34 42.0102 Q1232.1 33.5727 1245.22 33.5727 Q1256.99 33.5727 1263.82 41.1769 Q1270.69 48.7289 1270.69 61.7497 M1261.11 58.9372 Q1261 51.0726 1256.68 46.3852 Q1252.41 41.6977 1245.33 41.6977 Q1237.31 41.6977 1232.46 46.2289 Q1227.67 50.7601 1226.94 58.9893 L1261.11 58.9372 Z" fill="#000000" fill-rule="nonzero" fill-opacity="1" /><path clip-path="url(#clip440)" d="M1336.32 61.7497 L1336.32 66.4371 L1292.25 66.4371 Q1292.88 76.3329 1298.19 81.5412 Q1303.55 86.6975 1313.09 86.6975 Q1318.61 86.6975 1323.76 85.3433 Q1328.97 83.9891 1334.08 81.2808 L1334.08 90.3433 Q1328.92 92.5308 1323.5 93.6766 Q1318.09 94.8224 1312.51 94.8224 Q1298.55 94.8224 1290.38 86.6975 Q1282.25 78.5725 1282.25 64.7184 Q1282.25 50.3956 1289.96 42.0102 Q1297.72 33.5727 1310.85 33.5727 Q1322.62 33.5727 1329.44 41.1769 Q1336.32 48.7289 1336.32 61.7497 M1326.73 58.9372 Q1326.63 51.0726 1322.3 46.3852 Q1318.03 41.6977 1310.95 41.6977 Q1302.93 41.6977 1298.09 46.2289 Q1293.29 50.7601 1292.57 58.9893 L1326.73 58.9372 Z" fill="#000000" fill-rule="nonzero" fill-opacity="1" /><path clip-path="url(#clip440)" d="M1395.22 84.562 L1395.22 115.499 L1385.59 115.499 L1385.59 34.979 L1395.22 34.979 L1395.22 43.8331 Q1398.24 38.6248 1402.83 36.1248 Q1407.46 33.5727 1413.87 33.5727 Q1424.49 33.5727 1431.11 42.0102 Q1437.77 50.4476 1437.77 64.1976 Q1437.77 77.9475 1431.11 86.385 Q1424.49 94.8224 1413.87 94.8224 Q1407.46 94.8224 1402.83 92.3224 Q1398.24 89.7704 1395.22 84.562 M1427.83 64.1976 Q1427.83 53.6247 1423.45 47.6352 Q1419.13 41.5935 1411.52 41.5935 Q1403.92 41.5935 1399.54 47.6352 Q1395.22 53.6247 1395.22 64.1976 Q1395.22 74.7704 1399.54 80.8121 Q1403.92 86.8016 1411.52 86.8016 Q1419.13 86.8016 1423.45 80.8121 Q1427.83 74.7704 1427.83 64.1976 Z" fill="#000000" fill-rule="nonzero" fill-opacity="1" /><path clip-path="url(#clip440)" d="M1453.66 12.2708 L1463.24 12.2708 L1463.24 93.312 L1453.66 93.312 L1453.66 12.2708 Z" fill="#000000" fill-rule="nonzero" fill-opacity="1" /><path clip-path="url(#clip440)" d="M1505.9 41.6977 Q1498.19 41.6977 1493.71 47.7393 Q1489.23 53.7289 1489.23 64.1976 Q1489.23 74.6663 1493.66 80.7079 Q1498.14 86.6975 1505.9 86.6975 Q1513.55 86.6975 1518.03 80.6558 Q1522.51 74.6142 1522.51 64.1976 Q1522.51 53.833 1518.03 47.7914 Q1513.55 41.6977 1505.9 41.6977 M1505.9 33.5727 Q1518.4 33.5727 1525.53 41.6977 Q1532.67 49.8226 1532.67 64.1976 Q1532.67 78.5204 1525.53 86.6975 Q1518.4 94.8224 1505.9 94.8224 Q1493.35 94.8224 1486.21 86.6975 Q1479.13 78.5204 1479.13 64.1976 Q1479.13 49.8226 1486.21 41.6977 Q1493.35 33.5727 1505.9 33.5727 Z" fill="#000000" fill-rule="nonzero" fill-opacity="1" /><path clip-path="url(#clip440)" d="M1558.03 18.4166 L1558.03 34.979 L1577.77 34.979 L1577.77 42.4269 L1558.03 42.4269 L1558.03 74.0934 Q1558.03 81.2287 1559.96 83.26 Q1561.94 85.2912 1567.93 85.2912 L1577.77 85.2912 L1577.77 93.312 L1567.93 93.312 Q1556.83 93.312 1552.62 89.1974 Q1548.4 85.0308 1548.4 74.0934 L1548.4 42.4269 L1541.37 42.4269 L1541.37 34.979 L1548.4 34.979 L1548.4 18.4166 L1558.03 18.4166 Z" fill="#000000" fill-rule="nonzero" fill-opacity="1" /><circle clip-path="url(#clip441)" cx="333.733" cy="204.144" r="18" fill="#009af9" fill-rule="evenodd" fill-opacity="1" stroke="none"/>
<circle clip-path="url(#clip441)" cx="344.684" cy="524.804" r="18" fill="#009af9" fill-rule="evenodd" fill-opacity="1" stroke="none"/>
<circle clip-path="url(#clip441)" cx="355.635" cy="674.691" r="18" fill="#009af9" fill-rule="evenodd" fill-opacity="1" stroke="none"/>
<circle clip-path="url(#clip441)" cx="366.586" cy="736.78" r="18" fill="#009af9" fill-rule="evenodd" fill-opacity="1" stroke="none"/>
<circle clip-path="url(#clip441)" cx="377.537" cy="833.204" r="18" fill="#009af9" fill-rule="evenodd" fill-opacity="1" stroke="none"/>
<circle clip-path="url(#clip441)" cx="388.488" cy="915.441" r="18" fill="#009af9" fill-rule="evenodd" fill-opacity="1" stroke="none"/>
<circle clip-path="url(#clip441)" cx="399.439" cy="954.312" r="18" fill="#009af9" fill-rule="evenodd" fill-opacity="1" stroke="none"/>
<circle clip-path="url(#clip441)" cx="410.39" cy="973.373" r="18" fill="#009af9" fill-rule="evenodd" fill-opacity="1" stroke="none"/>
<circle clip-path="url(#clip441)" cx="421.341" cy="992.857" r="18" fill="#009af9" fill-rule="evenodd" fill-opacity="1" stroke="none"/>
<circle clip-path="url(#clip441)" cx="432.292" cy="1001.7" r="18" fill="#009af9" fill-rule="evenodd" fill-opacity="1" stroke="none"/>
<circle clip-path="url(#clip441)" cx="443.243" cy="1010.59" r="18" fill="#009af9" fill-rule="evenodd" fill-opacity="1" stroke="none"/>
<circle clip-path="url(#clip441)" cx="454.193" cy="1025.12" r="18" fill="#009af9" fill-rule="evenodd" fill-opacity="1" stroke="none"/>
<circle clip-path="url(#clip441)" cx="465.144" cy="1056.06" r="18" fill="#009af9" fill-rule="evenodd" fill-opacity="1" stroke="none"/>
<circle clip-path="url(#clip441)" cx="476.095" cy="1058.21" r="18" fill="#009af9" fill-rule="evenodd" fill-opacity="1" stroke="none"/>
<circle clip-path="url(#clip441)" cx="487.046" cy="1068.98" r="18" fill="#009af9" fill-rule="evenodd" fill-opacity="1" stroke="none"/>
<circle clip-path="url(#clip441)" cx="497.997" cy="1084.49" r="18" fill="#009af9" fill-rule="evenodd" fill-opacity="1" stroke="none"/>
<circle clip-path="url(#clip441)" cx="508.948" cy="1091.58" r="18" fill="#009af9" fill-rule="evenodd" fill-opacity="1" stroke="none"/>
<circle clip-path="url(#clip441)" cx="519.899" cy="1100.81" r="18" fill="#009af9" fill-rule="evenodd" fill-opacity="1" stroke="none"/>
<circle clip-path="url(#clip441)" cx="530.85" cy="1103.93" r="18" fill="#009af9" fill-rule="evenodd" fill-opacity="1" stroke="none"/>
<circle clip-path="url(#clip441)" cx="541.801" cy="1115.18" r="18" fill="#009af9" fill-rule="evenodd" fill-opacity="1" stroke="none"/>
<circle clip-path="url(#clip441)" cx="552.752" cy="1127.08" r="18" fill="#009af9" fill-rule="evenodd" fill-opacity="1" stroke="none"/>
<circle clip-path="url(#clip441)" cx="563.703" cy="1130.47" r="18" fill="#009af9" fill-rule="evenodd" fill-opacity="1" stroke="none"/>
<circle clip-path="url(#clip441)" cx="574.654" cy="1139.02" r="18" fill="#009af9" fill-rule="evenodd" fill-opacity="1" stroke="none"/>
<circle clip-path="url(#clip441)" cx="585.605" cy="1143.75" r="18" fill="#009af9" fill-rule="evenodd" fill-opacity="1" stroke="none"/>
<circle clip-path="url(#clip441)" cx="596.556" cy="1145.63" r="18" fill="#009af9" fill-rule="evenodd" fill-opacity="1" stroke="none"/>
<circle clip-path="url(#clip441)" cx="607.506" cy="1153.72" r="18" fill="#009af9" fill-rule="evenodd" fill-opacity="1" stroke="none"/>
<circle clip-path="url(#clip441)" cx="618.457" cy="1158.77" r="18" fill="#009af9" fill-rule="evenodd" fill-opacity="1" stroke="none"/>
<circle clip-path="url(#clip441)" cx="629.408" cy="1160.22" r="18" fill="#009af9" fill-rule="evenodd" fill-opacity="1" stroke="none"/>
<circle clip-path="url(#clip441)" cx="640.359" cy="1165.21" r="18" fill="#009af9" fill-rule="evenodd" fill-opacity="1" stroke="none"/>
<circle clip-path="url(#clip441)" cx="651.31" cy="1168.4" r="18" fill="#009af9" fill-rule="evenodd" fill-opacity="1" stroke="none"/>
<circle clip-path="url(#clip441)" cx="662.261" cy="1174.69" r="18" fill="#009af9" fill-rule="evenodd" fill-opacity="1" stroke="none"/>
<circle clip-path="url(#clip441)" cx="673.212" cy="1179.86" r="18" fill="#009af9" fill-rule="evenodd" fill-opacity="1" stroke="none"/>
<circle clip-path="url(#clip441)" cx="684.163" cy="1184.59" r="18" fill="#009af9" fill-rule="evenodd" fill-opacity="1" stroke="none"/>
<circle clip-path="url(#clip441)" cx="695.114" cy="1187.33" r="18" fill="#009af9" fill-rule="evenodd" fill-opacity="1" stroke="none"/>
<circle clip-path="url(#clip441)" cx="706.065" cy="1189.14" r="18" fill="#009af9" fill-rule="evenodd" fill-opacity="1" stroke="none"/>
<circle clip-path="url(#clip441)" cx="717.016" cy="1190.84" r="18" fill="#009af9" fill-rule="evenodd" fill-opacity="1" stroke="none"/>
<circle clip-path="url(#clip441)" cx="727.967" cy="1195.72" r="18" fill="#009af9" fill-rule="evenodd" fill-opacity="1" stroke="none"/>
<circle clip-path="url(#clip441)" cx="738.918" cy="1198.85" r="18" fill="#009af9" fill-rule="evenodd" fill-opacity="1" stroke="none"/>
<circle clip-path="url(#clip441)" cx="749.869" cy="1199.66" r="18" fill="#009af9" fill-rule="evenodd" fill-opacity="1" stroke="none"/>
<circle clip-path="url(#clip441)" cx="760.819" cy="1202.59" r="18" fill="#009af9" fill-rule="evenodd" fill-opacity="1" stroke="none"/>
<circle clip-path="url(#clip441)" cx="771.77" cy="1205.56" r="18" fill="#009af9" fill-rule="evenodd" fill-opacity="1" stroke="none"/>
<circle clip-path="url(#clip441)" cx="782.721" cy="1206.05" r="18" fill="#009af9" fill-rule="evenodd" fill-opacity="1" stroke="none"/>
<circle clip-path="url(#clip441)" cx="793.672" cy="1208.07" r="18" fill="#009af9" fill-rule="evenodd" fill-opacity="1" stroke="none"/>
<circle clip-path="url(#clip441)" cx="804.623" cy="1211.24" r="18" fill="#009af9" fill-rule="evenodd" fill-opacity="1" stroke="none"/>
<circle clip-path="url(#clip441)" cx="815.574" cy="1212.87" r="18" fill="#009af9" fill-rule="evenodd" fill-opacity="1" stroke="none"/>
<circle clip-path="url(#clip441)" cx="826.525" cy="1216.58" r="18" fill="#009af9" fill-rule="evenodd" fill-opacity="1" stroke="none"/>
<circle clip-path="url(#clip441)" cx="837.476" cy="1218.35" r="18" fill="#009af9" fill-rule="evenodd" fill-opacity="1" stroke="none"/>
<circle clip-path="url(#clip441)" cx="848.427" cy="1221.78" r="18" fill="#009af9" fill-rule="evenodd" fill-opacity="1" stroke="none"/>
<circle clip-path="url(#clip441)" cx="859.378" cy="1222.76" r="18" fill="#009af9" fill-rule="evenodd" fill-opacity="1" stroke="none"/>
<circle clip-path="url(#clip441)" cx="870.329" cy="1224.63" r="18" fill="#009af9" fill-rule="evenodd" fill-opacity="1" stroke="none"/>
<circle clip-path="url(#clip441)" cx="881.28" cy="1226.32" r="18" fill="#009af9" fill-rule="evenodd" fill-opacity="1" stroke="none"/>
<circle clip-path="url(#clip441)" cx="892.231" cy="1226.49" r="18" fill="#009af9" fill-rule="evenodd" fill-opacity="1" stroke="none"/>
<circle clip-path="url(#clip441)" cx="903.182" cy="1228.87" r="18" fill="#009af9" fill-rule="evenodd" fill-opacity="1" stroke="none"/>
<circle clip-path="url(#clip441)" cx="914.132" cy="1230.53" r="18" fill="#009af9" fill-rule="evenodd" fill-opacity="1" stroke="none"/>
<circle clip-path="url(#clip441)" cx="925.083" cy="1232.99" r="18" fill="#009af9" fill-rule="evenodd" fill-opacity="1" stroke="none"/>
<circle clip-path="url(#clip441)" cx="936.034" cy="1235.71" r="18" fill="#009af9" fill-rule="evenodd" fill-opacity="1" stroke="none"/>
<circle clip-path="url(#clip441)" cx="946.985" cy="1236.36" r="18" fill="#009af9" fill-rule="evenodd" fill-opacity="1" stroke="none"/>
<circle clip-path="url(#clip441)" cx="957.936" cy="1238.14" r="18" fill="#009af9" fill-rule="evenodd" fill-opacity="1" stroke="none"/>
<circle clip-path="url(#clip441)" cx="968.887" cy="1239.76" r="18" fill="#009af9" fill-rule="evenodd" fill-opacity="1" stroke="none"/>
<circle clip-path="url(#clip441)" cx="979.838" cy="1240.62" r="18" fill="#009af9" fill-rule="evenodd" fill-opacity="1" stroke="none"/>
<circle clip-path="url(#clip441)" cx="990.789" cy="1240.8" r="18" fill="#009af9" fill-rule="evenodd" fill-opacity="1" stroke="none"/>
<circle clip-path="url(#clip441)" cx="1001.74" cy="1243.59" r="18" fill="#009af9" fill-rule="evenodd" fill-opacity="1" stroke="none"/>
<circle clip-path="url(#clip441)" cx="1012.69" cy="1244.68" r="18" fill="#009af9" fill-rule="evenodd" fill-opacity="1" stroke="none"/>
<circle clip-path="url(#clip441)" cx="1023.64" cy="1246.17" r="18" fill="#009af9" fill-rule="evenodd" fill-opacity="1" stroke="none"/>
<circle clip-path="url(#clip441)" cx="1034.59" cy="1246.66" r="18" fill="#009af9" fill-rule="evenodd" fill-opacity="1" stroke="none"/>
<circle clip-path="url(#clip441)" cx="1045.54" cy="1247.96" r="18" fill="#009af9" fill-rule="evenodd" fill-opacity="1" stroke="none"/>
<circle clip-path="url(#clip441)" cx="1056.49" cy="1248.71" r="18" fill="#009af9" fill-rule="evenodd" fill-opacity="1" stroke="none"/>
<circle clip-path="url(#clip441)" cx="1067.45" cy="1250.62" r="18" fill="#009af9" fill-rule="evenodd" fill-opacity="1" stroke="none"/>
<circle clip-path="url(#clip441)" cx="1078.4" cy="1251.82" r="18" fill="#009af9" fill-rule="evenodd" fill-opacity="1" stroke="none"/>
<circle clip-path="url(#clip441)" cx="1089.35" cy="1253.09" r="18" fill="#009af9" fill-rule="evenodd" fill-opacity="1" stroke="none"/>
<circle clip-path="url(#clip441)" cx="1100.3" cy="1254.52" r="18" fill="#009af9" fill-rule="evenodd" fill-opacity="1" stroke="none"/>
<circle clip-path="url(#clip441)" cx="1111.25" cy="1255.1" r="18" fill="#009af9" fill-rule="evenodd" fill-opacity="1" stroke="none"/>
<circle clip-path="url(#clip441)" cx="1122.2" cy="1256.77" r="18" fill="#009af9" fill-rule="evenodd" fill-opacity="1" stroke="none"/>
<circle clip-path="url(#clip441)" cx="1133.15" cy="1258.45" r="18" fill="#009af9" fill-rule="evenodd" fill-opacity="1" stroke="none"/>
<circle clip-path="url(#clip441)" cx="1144.1" cy="1258.74" r="18" fill="#009af9" fill-rule="evenodd" fill-opacity="1" stroke="none"/>
<circle clip-path="url(#clip441)" cx="1155.05" cy="1259.09" r="18" fill="#009af9" fill-rule="evenodd" fill-opacity="1" stroke="none"/>
<circle clip-path="url(#clip441)" cx="1166" cy="1259.36" r="18" fill="#009af9" fill-rule="evenodd" fill-opacity="1" stroke="none"/>
<circle clip-path="url(#clip441)" cx="1176.95" cy="1261.61" r="18" fill="#009af9" fill-rule="evenodd" fill-opacity="1" stroke="none"/>
<circle clip-path="url(#clip441)" cx="1187.91" cy="1262.25" r="18" fill="#009af9" fill-rule="evenodd" fill-opacity="1" stroke="none"/>
<circle clip-path="url(#clip441)" cx="1198.86" cy="1262.96" r="18" fill="#009af9" fill-rule="evenodd" fill-opacity="1" stroke="none"/>
<circle clip-path="url(#clip441)" cx="1209.81" cy="1263.86" r="18" fill="#009af9" fill-rule="evenodd" fill-opacity="1" stroke="none"/>
<circle clip-path="url(#clip441)" cx="1220.76" cy="1264.45" r="18" fill="#009af9" fill-rule="evenodd" fill-opacity="1" stroke="none"/>
<circle clip-path="url(#clip441)" cx="1231.71" cy="1265.44" r="18" fill="#009af9" fill-rule="evenodd" fill-opacity="1" stroke="none"/>
<circle clip-path="url(#clip441)" cx="1242.66" cy="1267.03" r="18" fill="#009af9" fill-rule="evenodd" fill-opacity="1" stroke="none"/>
<circle clip-path="url(#clip441)" cx="1253.61" cy="1268.32" r="18" fill="#009af9" fill-rule="evenodd" fill-opacity="1" stroke="none"/>
<circle clip-path="url(#clip441)" cx="1264.56" cy="1268.36" r="18" fill="#009af9" fill-rule="evenodd" fill-opacity="1" stroke="none"/>
<circle clip-path="url(#clip441)" cx="1275.51" cy="1269.07" r="18" fill="#009af9" fill-rule="evenodd" fill-opacity="1" stroke="none"/>
<circle clip-path="url(#clip441)" cx="1286.46" cy="1269.8" r="18" fill="#009af9" fill-rule="evenodd" fill-opacity="1" stroke="none"/>
<circle clip-path="url(#clip441)" cx="1297.41" cy="1270.65" r="18" fill="#009af9" fill-rule="evenodd" fill-opacity="1" stroke="none"/>
<circle clip-path="url(#clip441)" cx="1308.37" cy="1271.55" r="18" fill="#009af9" fill-rule="evenodd" fill-opacity="1" stroke="none"/>
<circle clip-path="url(#clip441)" cx="1319.32" cy="1271.89" r="18" fill="#009af9" fill-rule="evenodd" fill-opacity="1" stroke="none"/>
<circle clip-path="url(#clip441)" cx="1330.27" cy="1273.95" r="18" fill="#009af9" fill-rule="evenodd" fill-opacity="1" stroke="none"/>
<circle clip-path="url(#clip441)" cx="1341.22" cy="1274.34" r="18" fill="#009af9" fill-rule="evenodd" fill-opacity="1" stroke="none"/>
<circle clip-path="url(#clip441)" cx="1352.17" cy="1275.05" r="18" fill="#009af9" fill-rule="evenodd" fill-opacity="1" stroke="none"/>
<circle clip-path="url(#clip441)" cx="1363.12" cy="1275.32" r="18" fill="#009af9" fill-rule="evenodd" fill-opacity="1" stroke="none"/>
<circle clip-path="url(#clip441)" cx="1374.07" cy="1276" r="18" fill="#009af9" fill-rule="evenodd" fill-opacity="1" stroke="none"/>
<circle clip-path="url(#clip441)" cx="1385.02" cy="1277.28" r="18" fill="#009af9" fill-rule="evenodd" fill-opacity="1" stroke="none"/>
<circle clip-path="url(#clip441)" cx="1395.97" cy="1278.19" r="18" fill="#009af9" fill-rule="evenodd" fill-opacity="1" stroke="none"/>
<circle clip-path="url(#clip441)" cx="1406.92" cy="1279.03" r="18" fill="#009af9" fill-rule="evenodd" fill-opacity="1" stroke="none"/>
<circle clip-path="url(#clip441)" cx="1417.88" cy="1279.55" r="18" fill="#009af9" fill-rule="evenodd" fill-opacity="1" stroke="none"/>
<circle clip-path="url(#clip441)" cx="1428.83" cy="1280.01" r="18" fill="#009af9" fill-rule="evenodd" fill-opacity="1" stroke="none"/>
<circle clip-path="url(#clip441)" cx="1439.78" cy="1280.55" r="18" fill="#009af9" fill-rule="evenodd" fill-opacity="1" stroke="none"/>
<circle clip-path="url(#clip441)" cx="1450.73" cy="1281.32" r="18" fill="#009af9" fill-rule="evenodd" fill-opacity="1" stroke="none"/>
<circle clip-path="url(#clip441)" cx="1461.68" cy="1281.89" r="18" fill="#009af9" fill-rule="evenodd" fill-opacity="1" stroke="none"/>
<circle clip-path="url(#clip441)" cx="1472.63" cy="1282.22" r="18" fill="#009af9" fill-rule="evenodd" fill-opacity="1" stroke="none"/>
<circle clip-path="url(#clip441)" cx="1483.58" cy="1284.2" r="18" fill="#009af9" fill-rule="evenodd" fill-opacity="1" stroke="none"/>
<circle clip-path="url(#clip441)" cx="1494.53" cy="1284.35" r="18" fill="#009af9" fill-rule="evenodd" fill-opacity="1" stroke="none"/>
<circle clip-path="url(#clip441)" cx="1505.48" cy="1284.63" r="18" fill="#009af9" fill-rule="evenodd" fill-opacity="1" stroke="none"/>
<circle clip-path="url(#clip441)" cx="1516.43" cy="1286.06" r="18" fill="#009af9" fill-rule="evenodd" fill-opacity="1" stroke="none"/>
<circle clip-path="url(#clip441)" cx="1527.38" cy="1286.33" r="18" fill="#009af9" fill-rule="evenodd" fill-opacity="1" stroke="none"/>
<circle clip-path="url(#clip441)" cx="1538.34" cy="1286.49" r="18" fill="#009af9" fill-rule="evenodd" fill-opacity="1" stroke="none"/>
<circle clip-path="url(#clip441)" cx="1549.29" cy="1286.81" r="18" fill="#009af9" fill-rule="evenodd" fill-opacity="1" stroke="none"/>
<circle clip-path="url(#clip441)" cx="1560.24" cy="1287.78" r="18" fill="#009af9" fill-rule="evenodd" fill-opacity="1" stroke="none"/>
<circle clip-path="url(#clip441)" cx="1571.19" cy="1287.94" r="18" fill="#009af9" fill-rule="evenodd" fill-opacity="1" stroke="none"/>
<circle clip-path="url(#clip441)" cx="1582.14" cy="1289.14" r="18" fill="#009af9" fill-rule="evenodd" fill-opacity="1" stroke="none"/>
<circle clip-path="url(#clip441)" cx="1593.09" cy="1289.6" r="18" fill="#009af9" fill-rule="evenodd" fill-opacity="1" stroke="none"/>
<circle clip-path="url(#clip441)" cx="1604.04" cy="1289.81" r="18" fill="#009af9" fill-rule="evenodd" fill-opacity="1" stroke="none"/>
<circle clip-path="url(#clip441)" cx="1614.99" cy="1291.1" r="18" fill="#009af9" fill-rule="evenodd" fill-opacity="1" stroke="none"/>
<circle clip-path="url(#clip441)" cx="1625.94" cy="1291.5" r="18" fill="#009af9" fill-rule="evenodd" fill-opacity="1" stroke="none"/>
<circle clip-path="url(#clip441)" cx="1636.89" cy="1291.78" r="18" fill="#009af9" fill-rule="evenodd" fill-opacity="1" stroke="none"/>
<circle clip-path="url(#clip441)" cx="1647.84" cy="1292.03" r="18" fill="#009af9" fill-rule="evenodd" fill-opacity="1" stroke="none"/>
<circle clip-path="url(#clip441)" cx="1658.8" cy="1293.11" r="18" fill="#009af9" fill-rule="evenodd" fill-opacity="1" stroke="none"/>
<circle clip-path="url(#clip441)" cx="1669.75" cy="1293.5" r="18" fill="#009af9" fill-rule="evenodd" fill-opacity="1" stroke="none"/>
<circle clip-path="url(#clip441)" cx="1680.7" cy="1294.28" r="18" fill="#009af9" fill-rule="evenodd" fill-opacity="1" stroke="none"/>
<circle clip-path="url(#clip441)" cx="1691.65" cy="1294.61" r="18" fill="#009af9" fill-rule="evenodd" fill-opacity="1" stroke="none"/>
<circle clip-path="url(#clip441)" cx="1702.6" cy="1295.69" r="18" fill="#009af9" fill-rule="evenodd" fill-opacity="1" stroke="none"/>
<circle clip-path="url(#clip441)" cx="1713.55" cy="1296.19" r="18" fill="#009af9" fill-rule="evenodd" fill-opacity="1" stroke="none"/>
<circle clip-path="url(#clip441)" cx="1724.5" cy="1296.67" r="18" fill="#009af9" fill-rule="evenodd" fill-opacity="1" stroke="none"/>
<circle clip-path="url(#clip441)" cx="1735.45" cy="1297.02" r="18" fill="#009af9" fill-rule="evenodd" fill-opacity="1" stroke="none"/>
<circle clip-path="url(#clip441)" cx="1746.4" cy="1297.41" r="18" fill="#009af9" fill-rule="evenodd" fill-opacity="1" stroke="none"/>
<circle clip-path="url(#clip441)" cx="1757.35" cy="1297.96" r="18" fill="#009af9" fill-rule="evenodd" fill-opacity="1" stroke="none"/>
<circle clip-path="url(#clip441)" cx="1768.3" cy="1298.16" r="18" fill="#009af9" fill-rule="evenodd" fill-opacity="1" stroke="none"/>
<circle clip-path="url(#clip441)" cx="1779.26" cy="1298.91" r="18" fill="#009af9" fill-rule="evenodd" fill-opacity="1" stroke="none"/>
<circle clip-path="url(#clip441)" cx="1790.21" cy="1299.08" r="18" fill="#009af9" fill-rule="evenodd" fill-opacity="1" stroke="none"/>
<circle clip-path="url(#clip441)" cx="1801.16" cy="1299.23" r="18" fill="#009af9" fill-rule="evenodd" fill-opacity="1" stroke="none"/>
<circle clip-path="url(#clip441)" cx="1812.11" cy="1299.79" r="18" fill="#009af9" fill-rule="evenodd" fill-opacity="1" stroke="none"/>
<circle clip-path="url(#clip441)" cx="1823.06" cy="1300.17" r="18" fill="#009af9" fill-rule="evenodd" fill-opacity="1" stroke="none"/>
<circle clip-path="url(#clip441)" cx="1834.01" cy="1300.44" r="18" fill="#009af9" fill-rule="evenodd" fill-opacity="1" stroke="none"/>
<circle clip-path="url(#clip441)" cx="1844.96" cy="1301.79" r="18" fill="#009af9" fill-rule="evenodd" fill-opacity="1" stroke="none"/>
<circle clip-path="url(#clip441)" cx="1855.91" cy="1301.94" r="18" fill="#009af9" fill-rule="evenodd" fill-opacity="1" stroke="none"/>
<circle clip-path="url(#clip441)" cx="1866.86" cy="1302.98" r="18" fill="#009af9" fill-rule="evenodd" fill-opacity="1" stroke="none"/>
<circle clip-path="url(#clip441)" cx="1877.81" cy="1303.49" r="18" fill="#009af9" fill-rule="evenodd" fill-opacity="1" stroke="none"/>
<circle clip-path="url(#clip441)" cx="1888.77" cy="1303.79" r="18" fill="#009af9" fill-rule="evenodd" fill-opacity="1" stroke="none"/>
<circle clip-path="url(#clip441)" cx="1899.72" cy="1304.73" r="18" fill="#009af9" fill-rule="evenodd" fill-opacity="1" stroke="none"/>
<circle clip-path="url(#clip441)" cx="1910.67" cy="1305.12" r="18" fill="#009af9" fill-rule="evenodd" fill-opacity="1" stroke="none"/>
<circle clip-path="url(#clip441)" cx="1921.62" cy="1305.52" r="18" fill="#009af9" fill-rule="evenodd" fill-opacity="1" stroke="none"/>
<circle clip-path="url(#clip441)" cx="1932.57" cy="1305.96" r="18" fill="#009af9" fill-rule="evenodd" fill-opacity="1" stroke="none"/>
<circle clip-path="url(#clip441)" cx="1943.52" cy="1306.56" r="18" fill="#009af9" fill-rule="evenodd" fill-opacity="1" stroke="none"/>
<circle clip-path="url(#clip441)" cx="1954.47" cy="1306.9" r="18" fill="#009af9" fill-rule="evenodd" fill-opacity="1" stroke="none"/>
<circle clip-path="url(#clip441)" cx="1965.42" cy="1307.78" r="18" fill="#009af9" fill-rule="evenodd" fill-opacity="1" stroke="none"/>
<circle clip-path="url(#clip441)" cx="1976.37" cy="1307.93" r="18" fill="#009af9" fill-rule="evenodd" fill-opacity="1" stroke="none"/>
<circle clip-path="url(#clip441)" cx="1987.32" cy="1308.48" r="18" fill="#009af9" fill-rule="evenodd" fill-opacity="1" stroke="none"/>
<circle clip-path="url(#clip441)" cx="1998.27" cy="1308.81" r="18" fill="#009af9" fill-rule="evenodd" fill-opacity="1" stroke="none"/>
<circle clip-path="url(#clip441)" cx="2009.23" cy="1309.41" r="18" fill="#009af9" fill-rule="evenodd" fill-opacity="1" stroke="none"/>
<circle clip-path="url(#clip441)" cx="2020.18" cy="1309.79" r="18" fill="#009af9" fill-rule="evenodd" fill-opacity="1" stroke="none"/>
<circle clip-path="url(#clip441)" cx="2031.13" cy="1310.3" r="18" fill="#009af9" fill-rule="evenodd" fill-opacity="1" stroke="none"/>
<circle clip-path="url(#clip441)" cx="2042.08" cy="1310.55" r="18" fill="#009af9" fill-rule="evenodd" fill-opacity="1" stroke="none"/>
<circle clip-path="url(#clip441)" cx="2053.03" cy="1311.4" r="18" fill="#009af9" fill-rule="evenodd" fill-opacity="1" stroke="none"/>
<circle clip-path="url(#clip441)" cx="2063.98" cy="1312.08" r="18" fill="#009af9" fill-rule="evenodd" fill-opacity="1" stroke="none"/>
<circle clip-path="url(#clip441)" cx="2074.93" cy="1312.45" r="18" fill="#009af9" fill-rule="evenodd" fill-opacity="1" stroke="none"/>
<circle clip-path="url(#clip441)" cx="2085.88" cy="1312.73" r="18" fill="#009af9" fill-rule="evenodd" fill-opacity="1" stroke="none"/>
<circle clip-path="url(#clip441)" cx="2096.83" cy="1313.28" r="18" fill="#009af9" fill-rule="evenodd" fill-opacity="1" stroke="none"/>
<circle clip-path="url(#clip441)" cx="2107.78" cy="1313.72" r="18" fill="#009af9" fill-rule="evenodd" fill-opacity="1" stroke="none"/>
<circle clip-path="url(#clip441)" cx="2118.73" cy="1313.99" r="18" fill="#009af9" fill-rule="evenodd" fill-opacity="1" stroke="none"/>
<circle clip-path="url(#clip441)" cx="2129.69" cy="1314.44" r="18" fill="#009af9" fill-rule="evenodd" fill-opacity="1" stroke="none"/>
<circle clip-path="url(#clip441)" cx="2140.64" cy="1315.6" r="18" fill="#009af9" fill-rule="evenodd" fill-opacity="1" stroke="none"/>
<circle clip-path="url(#clip441)" cx="2151.59" cy="1315.74" r="18" fill="#009af9" fill-rule="evenodd" fill-opacity="1" stroke="none"/>
<circle clip-path="url(#clip441)" cx="2162.54" cy="1316.25" r="18" fill="#009af9" fill-rule="evenodd" fill-opacity="1" stroke="none"/>
<circle clip-path="url(#clip441)" cx="2173.49" cy="1316.97" r="18" fill="#009af9" fill-rule="evenodd" fill-opacity="1" stroke="none"/>
<circle clip-path="url(#clip441)" cx="2184.44" cy="1317.05" r="18" fill="#009af9" fill-rule="evenodd" fill-opacity="1" stroke="none"/>
<circle clip-path="url(#clip441)" cx="2195.39" cy="1317.52" r="18" fill="#009af9" fill-rule="evenodd" fill-opacity="1" stroke="none"/>
<circle clip-path="url(#clip441)" cx="2206.34" cy="1318.08" r="18" fill="#009af9" fill-rule="evenodd" fill-opacity="1" stroke="none"/>
<circle clip-path="url(#clip441)" cx="2217.29" cy="1318.42" r="18" fill="#009af9" fill-rule="evenodd" fill-opacity="1" stroke="none"/>
<circle clip-path="url(#clip441)" cx="2228.24" cy="1318.63" r="18" fill="#009af9" fill-rule="evenodd" fill-opacity="1" stroke="none"/>
<circle clip-path="url(#clip441)" cx="2239.19" cy="1319.92" r="18" fill="#009af9" fill-rule="evenodd" fill-opacity="1" stroke="none"/>
<circle clip-path="url(#clip441)" cx="2250.15" cy="1320.29" r="18" fill="#009af9" fill-rule="evenodd" fill-opacity="1" stroke="none"/>
<circle clip-path="url(#clip441)" cx="2261.1" cy="1321.25" r="18" fill="#009af9" fill-rule="evenodd" fill-opacity="1" stroke="none"/>
<circle clip-path="url(#clip441)" cx="2272.05" cy="1321.55" r="18" fill="#009af9" fill-rule="evenodd" fill-opacity="1" stroke="none"/>
<circle clip-path="url(#clip441)" cx="2283" cy="1322" r="18" fill="#009af9" fill-rule="evenodd" fill-opacity="1" stroke="none"/>
<circle clip-path="url(#clip441)" cx="2293.95" cy="1332.31" r="18" fill="#009af9" fill-rule="evenodd" fill-opacity="1" stroke="none"/>
</svg>
