<?xml version="1.0" encoding="utf-8"?>
<svg xmlns="http://www.w3.org/2000/svg" xmlns:xlink="http://www.w3.org/1999/xlink" width="600" height="400" viewBox="0 0 2400 1600">
<defs>
  <clipPath id="clip070">
    <rect x="0" y="0" width="2400" height="1600"/>
  </clipPath>
</defs>
<path clip-path="url(#clip070)" d="M0 1600 L2400 1600 L2400 0 L0 0  Z" fill="#ffffff" fill-rule="evenodd" fill-opacity="1"/>
<defs>
  <clipPath id="clip071">
    <rect x="301" y="47" width="2052" height="1321"/>
  </clipPath>
</defs>
<path clip-path="url(#clip070)" d="M301.46 1367.02 L2352.76 1367.02 L2352.76 47.2441 L301.46 47.2441  Z" fill="#ffffff" fill-rule="evenodd" fill-opacity="1"/>
<polyline clip-path="url(#clip071)" style="stroke:#000000; stroke-linecap:round; stroke-linejoin:round; stroke-width:2; stroke-opacity:0.1; fill:none" points="359.516,1367.02 359.516,47.2441 "/>
<polyline clip-path="url(#clip071)" style="stroke:#000000; stroke-linecap:round; stroke-linejoin:round; stroke-width:2; stroke-opacity:0.1; fill:none" points="1327.11,1367.02 1327.11,47.2441 "/>
<polyline clip-path="url(#clip071)" style="stroke:#000000; stroke-linecap:round; stroke-linejoin:round; stroke-width:2; stroke-opacity:0.1; fill:none" points="2294.7,1367.02 2294.7,47.2441 "/>
<polyline clip-path="url(#clip071)" style="stroke:#000000; stroke-linecap:round; stroke-linejoin:round; stroke-width:2; stroke-opacity:0.1; fill:none" points="301.46,1225.91 2352.76,1225.91 "/>
<polyline clip-path="url(#clip071)" style="stroke:#000000; stroke-linecap:round; stroke-linejoin:round; stroke-width:2; stroke-opacity:0.1; fill:none" points="301.46,707.132 2352.76,707.132 "/>
<polyline clip-path="url(#clip071)" style="stroke:#000000; stroke-linecap:round; stroke-linejoin:round; stroke-width:2; stroke-opacity:0.1; fill:none" points="301.46,188.352 2352.76,188.352 "/>
<polyline clip-path="url(#clip070)" style="stroke:#000000; stroke-linecap:round; stroke-linejoin:round; stroke-width:4; stroke-opacity:1; fill:none" points="301.46,1367.02 2352.76,1367.02 "/>
<polyline clip-path="url(#clip070)" style="stroke:#000000; stroke-linecap:round; stroke-linejoin:round; stroke-width:4; stroke-opacity:1; fill:none" points="359.516,1367.02 359.516,1348.12 "/>
<polyline clip-path="url(#clip070)" style="stroke:#000000; stroke-linecap:round; stroke-linejoin:round; stroke-width:4; stroke-opacity:1; fill:none" points="1327.11,1367.02 1327.11,1348.12 "/>
<polyline clip-path="url(#clip070)" style="stroke:#000000; stroke-linecap:round; stroke-linejoin:round; stroke-width:4; stroke-opacity:1; fill:none" points="2294.7,1367.02 2294.7,1348.12 "/>
<path clip-path="url(#clip070)" d="M319.938 1406.73 Q313.619 1406.73 310.419 1412.97 Q307.259 1419.16 307.259 1431.64 Q307.259 1444.08 310.419 1450.32 Q313.619 1456.51 319.938 1456.51 Q326.298 1456.51 329.458 1450.32 Q332.658 1444.08 332.658 1431.64 Q332.658 1419.16 329.458 1412.97 Q326.298 1406.73 319.938 1406.73 M319.938 1400.25 Q330.106 1400.25 335.453 1408.31 Q340.841 1416.33 340.841 1431.64 Q340.841 1446.91 335.453 1454.97 Q330.106 1462.99 319.938 1462.99 Q309.771 1462.99 304.383 1454.97 Q299.036 1446.91 299.036 1431.64 Q299.036 1416.33 304.383 1408.31 Q309.771 1400.25 319.938 1400.25 Z" fill="#000000" fill-rule="nonzero" fill-opacity="1" /><path clip-path="url(#clip070)" d="M355.222 1451.53 L363.769 1451.53 L363.769 1461.82 L355.222 1461.82 L355.222 1451.53 Z" fill="#000000" fill-rule="nonzero" fill-opacity="1" /><path clip-path="url(#clip070)" d="M399.093 1406.73 Q392.774 1406.73 389.573 1412.97 Q386.414 1419.16 386.414 1431.64 Q386.414 1444.08 389.573 1450.32 Q392.774 1456.51 399.093 1456.51 Q405.453 1456.51 408.613 1450.32 Q411.813 1444.08 411.813 1431.64 Q411.813 1419.16 408.613 1412.97 Q405.453 1406.73 399.093 1406.73 M399.093 1400.25 Q409.261 1400.25 414.608 1408.31 Q419.996 1416.33 419.996 1431.64 Q419.996 1446.91 414.608 1454.97 Q409.261 1462.99 399.093 1462.99 Q388.925 1462.99 383.538 1454.97 Q378.19 1446.91 378.19 1431.64 Q378.19 1416.33 383.538 1408.31 Q388.925 1400.25 399.093 1400.25 Z" fill="#000000" fill-rule="nonzero" fill-opacity="1" /><path clip-path="url(#clip070)" d="M1288.4 1406.73 Q1282.08 1406.73 1278.88 1412.97 Q1275.72 1419.16 1275.72 1431.64 Q1275.72 1444.08 1278.88 1450.32 Q1282.08 1456.51 1288.4 1456.51 Q1294.76 1456.51 1297.92 1450.32 Q1301.12 1444.08 1301.12 1431.64 Q1301.12 1419.16 1297.92 1412.97 Q1294.76 1406.73 1288.4 1406.73 M1288.4 1400.25 Q1298.57 1400.25 1303.92 1408.31 Q1309.3 1416.33 1309.3 1431.64 Q1309.3 1446.91 1303.92 1454.97 Q1298.57 1462.99 1288.4 1462.99 Q1278.23 1462.99 1272.85 1454.97 Q1267.5 1446.91 1267.5 1431.64 Q1267.5 1416.33 1272.85 1408.31 Q1278.23 1400.25 1288.4 1400.25 Z" fill="#000000" fill-rule="nonzero" fill-opacity="1" /><path clip-path="url(#clip070)" d="M1323.69 1451.53 L1332.23 1451.53 L1332.23 1461.82 L1323.69 1461.82 L1323.69 1451.53 Z" fill="#000000" fill-rule="nonzero" fill-opacity="1" /><path clip-path="url(#clip070)" d="M1350.14 1401.34 L1382.26 1401.34 L1382.26 1408.23 L1357.63 1408.23 L1357.63 1423.05 Q1359.41 1422.45 1361.2 1422.16 Q1362.98 1421.84 1364.76 1421.84 Q1374.89 1421.84 1380.8 1427.39 Q1386.72 1432.94 1386.72 1442.42 Q1386.72 1452.18 1380.64 1457.61 Q1374.56 1462.99 1363.51 1462.99 Q1359.7 1462.99 1355.73 1462.35 Q1351.8 1461.7 1347.59 1460.4 L1347.59 1452.18 Q1351.23 1454.16 1355.12 1455.14 Q1359.01 1456.11 1363.34 1456.11 Q1370.35 1456.11 1374.44 1452.42 Q1378.53 1448.74 1378.53 1442.42 Q1378.53 1436.1 1374.44 1432.41 Q1370.35 1428.72 1363.34 1428.72 Q1360.06 1428.72 1356.78 1429.45 Q1353.54 1430.18 1350.14 1431.72 L1350.14 1401.34 Z" fill="#000000" fill-rule="nonzero" fill-opacity="1" /><path clip-path="url(#clip070)" d="M2237.22 1454.93 L2250.59 1454.93 L2250.59 1408.79 L2236.04 1411.71 L2236.04 1404.26 L2250.51 1401.34 L2258.69 1401.34 L2258.69 1454.93 L2272.06 1454.93 L2272.06 1461.82 L2237.22 1461.82 L2237.22 1454.93 Z" fill="#000000" fill-rule="nonzero" fill-opacity="1" /><path clip-path="url(#clip070)" d="M2288.58 1451.53 L2297.13 1451.53 L2297.13 1461.82 L2288.58 1461.82 L2288.58 1451.53 Z" fill="#000000" fill-rule="nonzero" fill-opacity="1" /><path clip-path="url(#clip070)" d="M2332.45 1406.73 Q2326.14 1406.73 2322.94 1412.97 Q2319.78 1419.16 2319.78 1431.64 Q2319.78 1444.08 2322.94 1450.32 Q2326.14 1456.51 2332.45 1456.51 Q2338.81 1456.51 2341.97 1450.32 Q2345.17 1444.08 2345.17 1431.64 Q2345.17 1419.16 2341.97 1412.97 Q2338.81 1406.73 2332.45 1406.73 M2332.45 1400.25 Q2342.62 1400.25 2347.97 1408.31 Q2353.36 1416.33 2353.36 1431.64 Q2353.36 1446.91 2347.97 1454.97 Q2342.62 1462.99 2332.45 1462.99 Q2322.29 1462.99 2316.9 1454.97 Q2311.55 1446.91 2311.55 1431.64 Q2311.55 1416.33 2316.9 1408.31 Q2322.29 1400.25 2332.45 1400.25 Z" fill="#000000" fill-rule="nonzero" fill-opacity="1" /><path clip-path="url(#clip070)" d="M1340.97 1527.92 Q1340.97 1529.4 1340.29 1529.77 Q1339.6 1530.09 1337.7 1530.09 L1327.59 1530.09 L1319.58 1561.92 Q1318.94 1564.71 1318.94 1567.08 Q1318.94 1569.72 1319.73 1570.88 Q1320.58 1572.04 1322.32 1572.04 Q1325.74 1572.04 1329.43 1568.93 Q1333.17 1565.82 1336.33 1558.23 Q1336.76 1557.23 1336.97 1557.02 Q1337.23 1556.75 1337.91 1556.75 Q1339.23 1556.75 1339.23 1557.81 Q1339.23 1558.18 1338.49 1559.86 Q1337.81 1561.55 1336.28 1564.02 Q1334.81 1566.5 1332.86 1568.82 Q1330.96 1571.14 1328.06 1572.83 Q1325.16 1574.46 1322.05 1574.46 Q1317.68 1574.46 1314.88 1571.67 Q1312.14 1568.87 1312.14 1564.5 Q1312.14 1563.08 1313.25 1558.54 Q1314.36 1553.96 1320.37 1530.09 L1310.83 1530.09 Q1309.51 1530.09 1308.98 1530.03 Q1308.51 1529.98 1308.14 1529.72 Q1307.82 1529.4 1307.82 1528.77 Q1307.82 1527.77 1308.24 1527.35 Q1308.67 1526.87 1309.19 1526.82 Q1309.77 1526.71 1311.09 1526.71 L1321.21 1526.71 L1325.42 1509.59 Q1325.85 1507.9 1326.9 1506.95 Q1328.01 1505.95 1328.64 1505.84 Q1329.27 1505.69 1329.75 1505.69 Q1331.17 1505.69 1332.01 1506.48 Q1332.86 1507.21 1332.86 1508.58 Q1332.86 1509.32 1328.43 1526.71 L1337.91 1526.71 Q1339.13 1526.71 1339.6 1526.77 Q1340.13 1526.82 1340.55 1527.08 Q1340.97 1527.35 1340.97 1527.92 Z" fill="#000000" fill-rule="nonzero" fill-opacity="1" /><polyline clip-path="url(#clip070)" style="stroke:#000000; stroke-linecap:round; stroke-linejoin:round; stroke-width:4; stroke-opacity:1; fill:none" points="301.46,1367.02 301.46,47.2441 "/>
<polyline clip-path="url(#clip070)" style="stroke:#000000; stroke-linecap:round; stroke-linejoin:round; stroke-width:4; stroke-opacity:1; fill:none" points="301.46,1225.91 320.358,1225.91 "/>
<polyline clip-path="url(#clip070)" style="stroke:#000000; stroke-linecap:round; stroke-linejoin:round; stroke-width:4; stroke-opacity:1; fill:none" points="301.46,707.132 320.358,707.132 "/>
<polyline clip-path="url(#clip070)" style="stroke:#000000; stroke-linecap:round; stroke-linejoin:round; stroke-width:4; stroke-opacity:1; fill:none" points="301.46,188.352 320.358,188.352 "/>
<path clip-path="url(#clip070)" d="M165.403 1201.06 Q159.083 1201.06 155.883 1207.3 Q152.723 1213.5 152.723 1225.97 Q152.723 1238.41 155.883 1244.65 Q159.083 1250.85 165.403 1250.85 Q171.763 1250.85 174.922 1244.65 Q178.123 1238.41 178.123 1225.97 Q178.123 1213.5 174.922 1207.3 Q171.763 1201.06 165.403 1201.06 M165.403 1194.58 Q175.571 1194.58 180.918 1202.64 Q186.305 1210.66 186.305 1225.97 Q186.305 1241.24 180.918 1249.31 Q175.571 1257.33 165.403 1257.33 Q155.235 1257.33 149.847 1249.31 Q144.5 1241.24 144.5 1225.97 Q144.5 1210.66 149.847 1202.64 Q155.235 1194.58 165.403 1194.58 Z" fill="#000000" fill-rule="nonzero" fill-opacity="1" /><path clip-path="url(#clip070)" d="M200.686 1245.86 L209.234 1245.86 L209.234 1256.15 L200.686 1256.15 L200.686 1245.86 Z" fill="#000000" fill-rule="nonzero" fill-opacity="1" /><path clip-path="url(#clip070)" d="M244.557 1201.06 Q238.238 1201.06 235.038 1207.3 Q231.878 1213.5 231.878 1225.97 Q231.878 1238.41 235.038 1244.65 Q238.238 1250.85 244.557 1250.85 Q250.917 1250.85 254.077 1244.65 Q257.277 1238.41 257.277 1225.97 Q257.277 1213.5 254.077 1207.3 Q250.917 1201.06 244.557 1201.06 M244.557 1194.58 Q254.725 1194.58 260.072 1202.64 Q265.46 1210.66 265.46 1225.97 Q265.46 1241.24 260.072 1249.31 Q254.725 1257.33 244.557 1257.33 Q234.39 1257.33 229.002 1249.31 Q223.655 1241.24 223.655 1225.97 Q223.655 1210.66 229.002 1202.64 Q234.39 1194.58 244.557 1194.58 Z" fill="#000000" fill-rule="nonzero" fill-opacity="1" /><path clip-path="url(#clip070)" d="M167.145 682.28 Q160.825 682.28 157.625 688.518 Q154.465 694.716 154.465 707.193 Q154.465 719.629 157.625 725.867 Q160.825 732.065 167.145 732.065 Q173.505 732.065 176.664 725.867 Q179.865 719.629 179.865 707.193 Q179.865 694.716 176.664 688.518 Q173.505 682.28 167.145 682.28 M167.145 675.798 Q177.312 675.798 182.66 683.86 Q188.047 691.88 188.047 707.193 Q188.047 722.465 182.66 730.526 Q177.312 738.547 167.145 738.547 Q156.977 738.547 151.589 730.526 Q146.242 722.465 146.242 707.193 Q146.242 691.88 151.589 683.86 Q156.977 675.798 167.145 675.798 Z" fill="#000000" fill-rule="nonzero" fill-opacity="1" /><path clip-path="url(#clip070)" d="M202.428 727.083 L210.975 727.083 L210.975 737.372 L202.428 737.372 L202.428 727.083 Z" fill="#000000" fill-rule="nonzero" fill-opacity="1" /><path clip-path="url(#clip070)" d="M228.88 676.892 L261.004 676.892 L261.004 683.779 L236.375 683.779 L236.375 698.605 Q238.157 697.997 239.939 697.714 Q241.722 697.39 243.504 697.39 Q253.632 697.39 259.546 702.939 Q265.46 708.489 265.46 717.968 Q265.46 727.731 259.384 733.159 Q253.307 738.547 242.248 738.547 Q238.441 738.547 234.471 737.899 Q230.541 737.25 226.328 735.954 L226.328 727.731 Q229.974 729.716 233.863 730.688 Q237.752 731.66 242.086 731.66 Q249.095 731.66 253.186 727.974 Q257.277 724.288 257.277 717.968 Q257.277 711.649 253.186 707.962 Q249.095 704.276 242.086 704.276 Q238.805 704.276 235.524 705.005 Q232.283 705.734 228.88 707.274 L228.88 676.892 Z" fill="#000000" fill-rule="nonzero" fill-opacity="1" /><path clip-path="url(#clip070)" d="M149.321 211.706 L162.689 211.706 L162.689 165.566 L148.146 168.483 L148.146 161.029 L162.608 158.112 L170.791 158.112 L170.791 211.706 L184.159 211.706 L184.159 218.592 L149.321 218.592 L149.321 211.706 Z" fill="#000000" fill-rule="nonzero" fill-opacity="1" /><path clip-path="url(#clip070)" d="M200.686 208.303 L209.234 208.303 L209.234 218.592 L200.686 218.592 L200.686 208.303 Z" fill="#000000" fill-rule="nonzero" fill-opacity="1" /><path clip-path="url(#clip070)" d="M244.557 163.5 Q238.238 163.5 235.038 169.738 Q231.878 175.936 231.878 188.413 Q231.878 200.849 235.038 207.088 Q238.238 213.286 244.557 213.286 Q250.917 213.286 254.077 207.088 Q257.277 200.849 257.277 188.413 Q257.277 175.936 254.077 169.738 Q250.917 163.5 244.557 163.5 M244.557 157.018 Q254.725 157.018 260.072 165.08 Q265.46 173.101 265.46 188.413 Q265.46 203.685 260.072 211.746 Q254.725 219.767 244.557 219.767 Q234.39 219.767 229.002 211.746 Q223.655 203.685 223.655 188.413 Q223.655 173.101 229.002 165.08 Q234.39 157.018 244.557 157.018 Z" fill="#000000" fill-rule="nonzero" fill-opacity="1" /><path clip-path="url(#clip070)" d="M30.9171 683.505 Q31.6549 683.505 33.394 683.979 L74.6058 694.308 Q83.7757 696.574 90.2052 703.952 Q96.6346 711.278 96.6346 719.604 Q96.6346 724.611 93.9469 727.826 Q91.3119 731.04 87.2539 731.04 Q83.6703 731.04 81.9312 729.143 Q80.2448 727.246 80.2448 724.98 Q80.2448 724.242 80.4556 723.452 Q80.6664 722.661 81.5623 721.818 Q82.4582 720.975 83.9865 720.975 Q86.4634 720.975 88.4133 723.135 Q89.3092 724.189 89.5201 725.191 Q89.7309 726.139 89.7309 727.773 Q91.2065 727.141 92.2078 725.981 Q93.2091 724.822 93.578 723.504 Q93.9996 722.187 94.105 721.344 Q94.2631 720.448 94.2631 719.604 Q94.2631 712.859 87.4647 707.694 Q85.4094 706.166 83.3541 705.059 Q81.3515 703.9 78.8745 703.057 Q76.4503 702.213 75.1328 701.844 Q73.8153 701.423 70.8114 700.685 Q75.7125 705.586 75.7125 711.594 Q75.7125 714.124 75.0274 716.39 Q74.3423 718.603 72.9194 720.553 Q71.4438 722.503 68.8615 723.662 Q66.2791 724.769 62.8536 724.769 Q59.2173 724.769 54.2634 723.346 Q49.3096 721.923 40.1924 718.498 Q35.0804 716.653 32.6035 716.653 Q31.3914 716.653 30.6536 716.917 Q29.8631 717.18 29.5996 717.707 Q29.2834 718.234 29.2307 718.55 Q29.178 718.814 29.178 719.341 Q29.178 722.45 32.34 725.349 Q35.502 728.247 42.5639 730.25 Q43.8814 730.672 44.1976 730.935 Q44.5138 731.199 44.5138 731.989 Q44.4611 733.307 43.4071 733.307 Q42.9855 733.307 41.3518 732.832 Q39.6654 732.358 37.1885 731.251 Q34.6588 730.092 32.3927 728.511 Q30.0739 726.93 28.4402 724.453 Q26.8065 721.923 26.8065 719.025 Q26.8065 715.072 29.3888 712.648 Q31.9184 710.171 35.6601 710.171 Q37.1885 710.171 38.5587 710.593 Q39.8762 710.962 43.4071 712.332 Q57.6362 717.865 64.5927 717.865 Q66.2791 717.865 67.702 717.602 Q69.0723 717.286 70.4425 716.601 Q71.76 715.915 72.5505 714.545 Q73.2883 713.122 73.2883 711.172 Q73.2883 708.695 72.1289 706.377 Q70.9168 704.005 69.2831 702.53 Q67.6493 701.001 66.2791 700.105 Q64.8562 699.157 64.1184 698.946 L44.7246 694.097 L36.0817 691.937 Q31.3914 690.935 30.232 690.461 Q29.1253 689.829 28.5456 688.722 Q27.9659 687.615 27.9659 686.667 Q27.9659 685.349 28.7564 684.453 Q29.5469 683.505 30.9171 683.505 Z" fill="#000000" fill-rule="nonzero" fill-opacity="1" /><circle clip-path="url(#clip071)" cx="375.38" cy="1220.69" r="21.6" fill="#0000ff" fill-rule="evenodd" fill-opacity="1" stroke="none"/>
<circle clip-path="url(#clip071)" cx="406.143" cy="1248.07" r="21.6" fill="#0000ff" fill-rule="evenodd" fill-opacity="1" stroke="none"/>
<circle clip-path="url(#clip071)" cx="454.672" cy="1214.83" r="21.6" fill="#0000ff" fill-rule="evenodd" fill-opacity="1" stroke="none"/>
<circle clip-path="url(#clip071)" cx="528.366" cy="1192.27" r="21.6" fill="#0000ff" fill-rule="evenodd" fill-opacity="1" stroke="none"/>
<circle clip-path="url(#clip071)" cx="551.88" cy="1193.47" r="21.6" fill="#0000ff" fill-rule="evenodd" fill-opacity="1" stroke="none"/>
<circle clip-path="url(#clip071)" cx="589.955" cy="1213.05" r="21.6" fill="#0000ff" fill-rule="evenodd" fill-opacity="1" stroke="none"/>
<circle clip-path="url(#clip071)" cx="599.844" cy="1203.88" r="21.6" fill="#0000ff" fill-rule="evenodd" fill-opacity="1" stroke="none"/>
<circle clip-path="url(#clip071)" cx="627.011" cy="1184.28" r="21.6" fill="#0000ff" fill-rule="evenodd" fill-opacity="1" stroke="none"/>
<circle clip-path="url(#clip071)" cx="743.69" cy="1172.37" r="21.6" fill="#0000ff" fill-rule="evenodd" fill-opacity="1" stroke="none"/>
<circle clip-path="url(#clip071)" cx="993.726" cy="1084.92" r="21.6" fill="#0000ff" fill-rule="evenodd" fill-opacity="1" stroke="none"/>
<circle clip-path="url(#clip071)" cx="1032.45" cy="1047.21" r="21.6" fill="#0000ff" fill-rule="evenodd" fill-opacity="1" stroke="none"/>
<circle clip-path="url(#clip071)" cx="1120.57" cy="1044.21" r="21.6" fill="#0000ff" fill-rule="evenodd" fill-opacity="1" stroke="none"/>
<circle clip-path="url(#clip071)" cx="1451.32" cy="839.966" r="21.6" fill="#0000ff" fill-rule="evenodd" fill-opacity="1" stroke="none"/>
<circle clip-path="url(#clip071)" cx="1505.22" cy="772.578" r="21.6" fill="#0000ff" fill-rule="evenodd" fill-opacity="1" stroke="none"/>
<circle clip-path="url(#clip071)" cx="1698.39" cy="655.211" r="21.6" fill="#0000ff" fill-rule="evenodd" fill-opacity="1" stroke="none"/>
<circle clip-path="url(#clip071)" cx="1844.8" cy="562.129" r="21.6" fill="#0000ff" fill-rule="evenodd" fill-opacity="1" stroke="none"/>
<circle clip-path="url(#clip071)" cx="1909.71" cy="515.62" r="21.6" fill="#0000ff" fill-rule="evenodd" fill-opacity="1" stroke="none"/>
<circle clip-path="url(#clip071)" cx="1912.62" cy="501.853" r="21.6" fill="#0000ff" fill-rule="evenodd" fill-opacity="1" stroke="none"/>
<circle clip-path="url(#clip071)" cx="1985.81" cy="448.958" r="21.6" fill="#0000ff" fill-rule="evenodd" fill-opacity="1" stroke="none"/>
<circle clip-path="url(#clip071)" cx="2015.49" cy="418.894" r="21.6" fill="#0000ff" fill-rule="evenodd" fill-opacity="1" stroke="none"/>
<circle clip-path="url(#clip071)" cx="2083.32" cy="344.711" r="21.6" fill="#0000ff" fill-rule="evenodd" fill-opacity="1" stroke="none"/>
<circle clip-path="url(#clip071)" cx="2182.25" cy="259.173" r="21.6" fill="#0000ff" fill-rule="evenodd" fill-opacity="1" stroke="none"/>
<circle clip-path="url(#clip071)" cx="2241.61" cy="241.554" r="21.6" fill="#0000ff" fill-rule="evenodd" fill-opacity="1" stroke="none"/>
<circle clip-path="url(#clip071)" cx="2250.7" cy="231.995" r="21.6" fill="#0000ff" fill-rule="evenodd" fill-opacity="1" stroke="none"/>
<circle clip-path="url(#clip071)" cx="2263.08" cy="196.547" r="21.6" fill="#0000ff" fill-rule="evenodd" fill-opacity="1" stroke="none"/>
<polyline clip-path="url(#clip071)" style="stroke:#000000; stroke-linecap:round; stroke-linejoin:round; stroke-width:8; stroke-opacity:1; fill:none" points="359.516,1225.91 378.868,1225.78 398.219,1225.4 417.571,1224.76 436.923,1223.86 456.275,1222.71 475.627,1221.31 494.979,1219.65 514.33,1217.73 533.682,1215.56 553.034,1213.14 572.386,1210.46 591.738,1207.53 611.09,1204.35 630.442,1200.92 649.793,1197.24 669.145,1193.31 688.497,1189.14 707.849,1184.71 727.201,1180.04 746.553,1175.13 765.904,1169.97 785.256,1164.57 804.608,1158.93 823.96,1153.05 843.312,1146.93 862.664,1140.58 882.016,1133.99 901.367,1127.16 920.719,1120.11 940.071,1112.82 959.423,1105.31 978.775,1097.57 998.127,1089.61 1017.48,1081.42 1036.83,1073.02 1056.18,1064.39 1075.53,1055.55 1094.89,1046.5 1114.24,1037.23 1133.59,1027.76 1152.94,1018.07 1172.29,1008.19 1191.65,998.095 1211,987.806 1230.35,977.319 1249.7,966.637 1269.05,955.763 1288.4,944.701 1307.76,933.451 1327.11,922.018 1346.46,910.403 1365.81,898.611 1385.16,886.643 1404.52,874.503 1423.87,862.193 1443.22,849.718 1462.57,837.079 1481.92,824.28 1501.27,811.324 1520.63,798.214 1539.98,784.954 1559.33,771.547 1578.68,757.996 1598.03,744.304 1617.39,730.476 1636.74,716.513 1656.09,702.42 1675.44,688.2 1694.79,673.857 1714.14,659.394 1733.5,644.815 1752.85,630.124 1772.2,615.323 1791.55,600.417 1810.9,585.409 1830.26,570.303 1849.61,555.103 1868.96,539.813 1888.31,524.436 1907.66,508.976 1927.02,493.437 1946.37,477.822 1965.72,462.136 1985.07,446.383 2004.42,430.566 2023.77,414.689 2043.13,398.756 2062.48,382.771 2081.83,366.739 2101.18,350.662 2120.53,334.546 2139.89,318.393 2159.24,302.208 2178.59,285.995 2197.94,269.758 2217.29,253.501 2236.64,237.228 2256,220.943 2275.35,204.649 2294.7,188.352 "/>
<path clip-path="url(#clip070)" d="M369.837 402.277 L828.626 402.277 L828.626 91.2366 L369.837 91.2366  Z" fill="#ffffff" fill-rule="evenodd" fill-opacity="1"/>
<polyline clip-path="url(#clip070)" style="stroke:#000000; stroke-linecap:round; stroke-linejoin:round; stroke-width:4; stroke-opacity:1; fill:none" points="369.837,402.277 828.626,402.277 828.626,91.2366 369.837,91.2366 369.837,402.277 "/>
<circle clip-path="url(#clip070)" cx="461.005" cy="194.917" r="42.5354" fill="#0000ff" fill-rule="evenodd" fill-opacity="1" stroke="none"/>
<path clip-path="url(#clip070)" d="M552.174 197.524 Q552.174 188.389 558.545 182.065 Q564.916 175.741 573.535 175.741 Q580.843 175.741 585.621 181.69 L585.621 160.938 Q585.621 157.378 584.357 156.487 Q583.139 155.597 578.173 155.597 L578.173 152.599 L591.992 151.569 L591.992 209.797 Q591.992 213.357 593.21 214.294 Q594.475 215.184 599.441 215.184 L599.441 218.135 L585.34 219.213 L585.34 212.842 Q580.375 219.166 572.505 219.213 Q564.26 219.213 558.217 212.889 Q552.174 206.565 552.174 197.524 M560.138 197.617 Q560.138 206.518 562.902 210.921 Q566.743 217.058 572.973 217.058 Q580.094 217.058 584.31 210.359 Q585.387 208.72 585.34 206.799 L585.34 187.124 Q585.34 185.203 584.31 183.611 Q580.375 177.849 573.957 177.849 Q567.258 177.849 563.089 183.985 Q560.138 188.576 560.138 197.617 Z" fill="#000000" fill-rule="nonzero" fill-opacity="1" /><path clip-path="url(#clip070)" d="M604.878 209.001 Q604.878 200.85 614.481 196.54 Q620.243 193.776 632.142 193.073 L632.142 189.56 Q632.142 183.611 629.003 180.472 Q625.911 177.287 621.976 177.287 Q614.95 177.287 611.577 181.69 Q614.434 181.784 615.465 183.236 Q616.496 184.641 616.496 186.093 Q616.496 188.014 615.278 189.279 Q614.107 190.497 612.092 190.497 Q610.172 190.497 608.907 189.326 Q607.642 188.108 607.642 186 Q607.642 181.315 611.858 178.224 Q616.121 175.132 622.164 175.132 Q630.034 175.132 635.28 180.425 Q636.92 182.065 637.716 184.173 Q638.56 186.281 638.653 187.686 Q638.747 189.045 638.747 191.762 L638.747 210.921 Q638.747 211.483 638.934 212.42 Q639.122 213.357 639.965 214.575 Q640.855 215.746 642.307 215.746 Q645.774 215.746 645.727 209.61 L645.727 204.222 L648.163 204.222 L648.163 209.61 Q648.163 214.716 645.446 216.73 Q642.776 218.698 640.293 218.698 Q637.107 218.698 635.093 216.355 Q633.079 214.013 632.798 210.828 Q631.345 214.481 628.019 216.871 Q624.74 219.213 620.243 219.213 Q616.777 219.213 613.498 218.323 Q610.265 217.48 607.548 215.09 Q604.878 212.655 604.878 209.001 M612.28 208.907 Q612.28 212.467 614.809 214.763 Q617.339 217.058 620.899 217.058 Q624.928 217.058 628.535 213.966 Q632.142 210.828 632.142 204.691 L632.142 195.088 Q621.508 195.462 616.87 199.725 Q612.28 203.941 612.28 208.907 Z" fill="#000000" fill-rule="nonzero" fill-opacity="1" /><path clip-path="url(#clip070)" d="M650.466 179.769 L650.466 177.661 Q654.869 177.474 657.774 174.382 Q660.725 171.244 661.709 167.402 Q662.739 163.561 662.833 159.111 L665.222 159.111 L665.222 176.771 L678.948 176.771 L678.948 179.769 L665.222 179.769 L665.222 206.424 Q665.222 216.777 671.687 216.777 Q674.45 216.777 676.277 213.966 Q678.104 211.109 678.104 206.049 L678.104 200.756 L680.493 200.756 L680.493 206.237 Q680.493 211.437 678.104 215.325 Q675.715 219.213 670.984 219.213 Q669.251 219.213 667.517 218.744 Q665.831 218.323 663.582 217.198 Q661.381 216.027 659.975 213.217 Q658.617 210.359 658.617 206.237 L658.617 179.769 L650.466 179.769 Z" fill="#000000" fill-rule="nonzero" fill-opacity="1" /><path clip-path="url(#clip070)" d="M686.446 209.001 Q686.446 200.85 696.049 196.54 Q701.811 193.776 713.71 193.073 L713.71 189.56 Q713.71 183.611 710.571 180.472 Q707.479 177.287 703.544 177.287 Q696.518 177.287 693.145 181.69 Q696.002 181.784 697.033 183.236 Q698.064 184.641 698.064 186.093 Q698.064 188.014 696.846 189.279 Q695.674 190.497 693.66 190.497 Q691.739 190.497 690.475 189.326 Q689.21 188.108 689.21 186 Q689.21 181.315 693.426 178.224 Q697.689 175.132 703.732 175.132 Q711.602 175.132 716.848 180.425 Q718.488 182.065 719.284 184.173 Q720.127 186.281 720.221 187.686 Q720.315 189.045 720.315 191.762 L720.315 210.921 Q720.315 211.483 720.502 212.42 Q720.69 213.357 721.533 214.575 Q722.423 215.746 723.875 215.746 Q727.342 215.746 727.295 209.61 L727.295 204.222 L729.731 204.222 L729.731 209.61 Q729.731 214.716 727.014 216.73 Q724.344 218.698 721.861 218.698 Q718.675 218.698 716.661 216.355 Q714.647 214.013 714.366 210.828 Q712.913 214.481 709.587 216.871 Q706.308 219.213 701.811 219.213 Q698.345 219.213 695.065 218.323 Q691.833 217.48 689.116 215.09 Q686.446 212.655 686.446 209.001 M693.847 208.907 Q693.847 212.467 696.377 214.763 Q698.907 217.058 702.467 217.058 Q706.496 217.058 710.103 213.966 Q713.71 210.828 713.71 204.691 L713.71 195.088 Q703.076 195.462 698.438 199.725 Q693.847 203.941 693.847 208.907 Z" fill="#000000" fill-rule="nonzero" fill-opacity="1" /><path clip-path="url(#clip070)" d="M803.569 179.395 Q803.569 180.05 803.147 181.596 L793.965 218.229 Q791.951 226.38 785.393 232.095 Q778.881 237.81 771.48 237.81 Q767.03 237.81 764.172 235.421 Q761.314 233.079 761.314 229.472 Q761.314 226.286 763.001 224.74 Q764.687 223.241 766.702 223.241 Q767.357 223.241 768.06 223.429 Q768.763 223.616 769.512 224.413 Q770.262 225.209 770.262 226.567 Q770.262 228.769 768.341 230.502 Q767.404 231.299 766.514 231.486 Q765.671 231.674 764.219 231.674 Q764.781 232.985 765.812 233.875 Q766.842 234.765 768.013 235.093 Q769.184 235.468 769.934 235.562 Q770.73 235.702 771.48 235.702 Q777.476 235.702 782.067 229.659 Q783.425 227.832 784.409 226.005 Q785.44 224.225 786.189 222.023 Q786.939 219.869 787.267 218.698 Q787.641 217.526 788.297 214.856 Q783.941 219.213 778.6 219.213 Q776.352 219.213 774.337 218.604 Q772.37 217.995 770.637 216.73 Q768.903 215.418 767.873 213.123 Q766.889 210.828 766.889 207.783 Q766.889 204.55 768.154 200.147 Q769.419 195.744 772.464 187.639 Q774.103 183.095 774.103 180.894 Q774.103 179.816 773.869 179.16 Q773.635 178.458 773.166 178.224 Q772.698 177.942 772.417 177.896 Q772.183 177.849 771.714 177.849 Q768.95 177.849 766.374 180.659 Q763.797 183.47 762.017 189.747 Q761.642 190.918 761.408 191.2 Q761.174 191.481 760.471 191.481 Q759.3 191.434 759.3 190.497 Q759.3 190.122 759.722 188.67 Q760.143 187.171 761.127 184.969 Q762.158 182.721 763.563 180.706 Q764.968 178.645 767.17 177.193 Q769.419 175.741 771.995 175.741 Q775.508 175.741 777.663 178.036 Q779.865 180.285 779.865 183.611 Q779.865 184.969 779.49 186.187 Q779.162 187.358 777.944 190.497 Q773.026 203.145 773.026 209.329 Q773.026 210.828 773.26 212.092 Q773.541 213.31 774.15 214.528 Q774.759 215.699 775.977 216.402 Q777.242 217.058 778.975 217.058 Q781.177 217.058 783.238 216.027 Q785.346 214.95 786.658 213.498 Q788.016 212.046 788.812 210.828 Q789.656 209.563 789.843 208.907 L794.153 191.668 L796.073 183.985 Q796.963 179.816 797.385 178.786 Q797.947 177.802 798.931 177.287 Q799.915 176.771 800.758 176.771 Q801.929 176.771 802.725 177.474 Q803.569 178.177 803.569 179.395 Z" fill="#000000" fill-rule="nonzero" fill-opacity="1" /><polyline clip-path="url(#clip070)" style="stroke:#000000; stroke-linecap:round; stroke-linejoin:round; stroke-width:16; stroke-opacity:1; fill:none" points="392.629,298.597 529.382,298.597 "/>
<path clip-path="url(#clip070)" d="M587.495 288.205 Q587.495 290.828 586.183 292.233 Q584.872 293.592 583.092 293.592 Q581.64 293.592 580.843 292.748 Q580.094 291.905 580.094 290.781 Q580.094 289.141 581.405 287.83 Q582.764 286.518 584.731 286.471 Q584.075 284.738 582.342 283.707 Q580.609 282.63 579.063 282.349 Q577.564 282.068 576.065 282.068 Q573.114 282.068 570.865 283.005 Q568.617 283.942 567.492 285.394 Q566.368 286.799 565.853 288.158 Q565.337 289.516 565.337 290.687 Q565.337 291.718 565.572 292.561 Q565.853 293.357 566.509 293.966 Q567.164 294.529 567.633 294.903 Q568.148 295.278 569.272 295.606 Q570.397 295.934 570.865 296.074 Q571.334 296.168 572.645 296.449 Q575.362 297.011 576.58 297.339 Q577.798 297.62 579.391 298.417 Q581.031 299.213 582.249 300.478 Q585.2 303.429 585.2 307.505 Q585.2 309.004 584.684 310.831 Q584.216 312.658 582.857 314.953 Q581.499 317.248 579.438 319.075 Q577.377 320.902 573.816 322.167 Q570.303 323.432 565.9 323.432 Q559.763 323.432 555.969 320.855 Q552.174 318.232 552.174 314.11 Q552.174 311.112 553.814 309.472 Q555.453 307.786 557.561 307.786 Q559.154 307.786 560.138 308.676 Q561.121 309.519 561.121 311.112 Q561.121 313.267 559.388 314.906 Q557.655 316.546 555.078 316.218 Q557.28 321.277 565.993 321.277 Q569.272 321.277 571.802 320.434 Q574.379 319.544 575.784 318.326 Q577.236 317.061 578.173 315.515 Q579.11 313.969 579.391 312.798 Q579.719 311.627 579.719 310.737 Q579.719 309.191 579.11 308.02 Q578.501 306.849 577.658 306.193 Q576.861 305.49 575.315 304.928 Q573.816 304.319 572.739 304.085 Q571.662 303.851 569.741 303.476 Q568.851 303.289 568.289 303.195 Q567.727 303.054 566.555 302.68 Q565.431 302.258 564.635 301.836 Q563.885 301.415 562.902 300.665 Q561.918 299.916 561.309 299.026 Q560.7 298.136 560.278 296.824 Q559.857 295.512 559.857 293.966 Q559.857 292.561 560.278 290.875 Q560.747 289.188 561.918 287.221 Q563.136 285.253 564.869 283.661 Q566.602 282.068 569.507 281.037 Q572.458 279.96 576.065 279.96 Q581.312 279.96 584.403 282.396 Q587.495 284.785 587.495 288.205 Z" fill="#000000" fill-rule="nonzero" fill-opacity="1" /><path clip-path="url(#clip070)" d="M601.705 298.37 Q601.705 282.162 607.748 269.092 Q610.324 263.611 613.931 259.02 Q617.538 254.429 619.927 252.415 Q622.316 250.401 622.972 250.401 Q623.909 250.401 623.956 251.338 Q623.956 251.806 622.691 252.977 Q607.232 268.717 607.279 298.37 Q607.279 328.116 622.316 343.247 Q623.956 344.887 623.956 345.402 Q623.956 346.339 622.972 346.339 Q622.316 346.339 620.021 344.418 Q617.726 342.498 614.165 338.094 Q610.605 333.691 608.029 328.304 Q601.705 315.234 601.705 298.37 Z" fill="#000000" fill-rule="nonzero" fill-opacity="1" /><path clip-path="url(#clip070)" d="M660.711 282.068 Q660.711 283.379 660.102 283.707 Q659.493 283.988 657.807 283.988 L648.813 283.988 L641.692 312.283 Q641.13 314.766 641.13 316.874 Q641.13 319.216 641.833 320.246 Q642.582 321.277 644.128 321.277 Q647.173 321.277 650.452 318.513 Q653.778 315.749 656.589 309.004 Q656.964 308.114 657.151 307.926 Q657.385 307.692 657.994 307.692 Q659.165 307.692 659.165 308.629 Q659.165 308.957 658.509 310.456 Q657.901 311.955 656.542 314.157 Q655.23 316.358 653.497 318.419 Q651.811 320.481 649.234 321.98 Q646.658 323.432 643.894 323.432 Q640.006 323.432 637.523 320.949 Q635.087 318.466 635.087 314.578 Q635.087 313.313 636.071 309.285 Q637.055 305.209 642.395 283.988 L633.916 283.988 Q632.745 283.988 632.276 283.942 Q631.855 283.895 631.527 283.661 Q631.246 283.379 631.246 282.817 Q631.246 281.927 631.621 281.553 Q631.995 281.131 632.464 281.084 Q632.979 280.99 634.15 280.99 L643.144 280.99 L646.892 265.766 Q647.267 264.267 648.204 263.424 Q649.187 262.534 649.749 262.44 Q650.312 262.299 650.733 262.299 Q651.998 262.299 652.748 263.002 Q653.497 263.658 653.497 264.876 Q653.497 265.532 649.562 280.99 L657.994 280.99 Q659.072 280.99 659.493 281.037 Q659.962 281.084 660.336 281.318 Q660.711 281.553 660.711 282.068 Z" fill="#000000" fill-rule="nonzero" fill-opacity="1" /><path clip-path="url(#clip070)" d="M668.219 345.402 Q668.219 344.934 669.437 343.763 Q684.896 328.023 684.896 298.37 Q684.896 268.623 670.046 253.586 Q668.219 251.853 668.219 251.338 Q668.219 250.401 669.156 250.401 Q669.812 250.401 672.107 252.321 Q674.45 254.242 677.963 258.645 Q681.523 263.049 684.146 268.436 Q690.471 281.506 690.471 298.37 Q690.471 314.578 684.428 327.648 Q681.851 333.129 678.244 337.72 Q674.637 342.31 672.248 344.325 Q669.859 346.339 669.156 346.339 Q668.219 346.339 668.219 345.402 Z" fill="#000000" fill-rule="nonzero" fill-opacity="1" /></svg>
