<?xml version="1.0" encoding="utf-8"?>
<svg xmlns="http://www.w3.org/2000/svg" xmlns:xlink="http://www.w3.org/1999/xlink" width="600" height="400" viewBox="0 0 2400 1600">
<defs>
  <clipPath id="clip290">
    <rect x="0" y="0" width="2400" height="1600"/>
  </clipPath>
</defs>
<path clip-path="url(#clip290)" d="M0 1600 L2400 1600 L2400 0 L0 0  Z" fill="#ffffff" fill-rule="evenodd" fill-opacity="1"/>
<defs>
  <clipPath id="clip291">
    <rect x="353" y="47" width="2000" height="1303"/>
  </clipPath>
</defs>
<path clip-path="url(#clip290)" d="M353.399 1349.74 L2352.76 1349.74 L2352.76 47.2441 L353.399 47.2441  Z" fill="#ffffff" fill-rule="evenodd" fill-opacity="1"/>
<polyline clip-path="url(#clip291)" style="stroke:#000000; stroke-linecap:round; stroke-linejoin:round; stroke-width:2; stroke-opacity:0.1; fill:none" points="409.984,1349.74 409.984,47.2441 "/>
<polyline clip-path="url(#clip291)" style="stroke:#000000; stroke-linecap:round; stroke-linejoin:round; stroke-width:2; stroke-opacity:0.1; fill:none" points="724.348,1349.74 724.348,47.2441 "/>
<polyline clip-path="url(#clip291)" style="stroke:#000000; stroke-linecap:round; stroke-linejoin:round; stroke-width:2; stroke-opacity:0.1; fill:none" points="1038.71,1349.74 1038.71,47.2441 "/>
<polyline clip-path="url(#clip291)" style="stroke:#000000; stroke-linecap:round; stroke-linejoin:round; stroke-width:2; stroke-opacity:0.1; fill:none" points="1353.08,1349.74 1353.08,47.2441 "/>
<polyline clip-path="url(#clip291)" style="stroke:#000000; stroke-linecap:round; stroke-linejoin:round; stroke-width:2; stroke-opacity:0.1; fill:none" points="1667.44,1349.74 1667.44,47.2441 "/>
<polyline clip-path="url(#clip291)" style="stroke:#000000; stroke-linecap:round; stroke-linejoin:round; stroke-width:2; stroke-opacity:0.1; fill:none" points="1981.81,1349.74 1981.81,47.2441 "/>
<polyline clip-path="url(#clip291)" style="stroke:#000000; stroke-linecap:round; stroke-linejoin:round; stroke-width:2; stroke-opacity:0.1; fill:none" points="2296.17,1349.74 2296.17,47.2441 "/>
<polyline clip-path="url(#clip291)" style="stroke:#000000; stroke-linecap:round; stroke-linejoin:round; stroke-width:2; stroke-opacity:0.1; fill:none" points="353.399,1312.88 2352.76,1312.88 "/>
<polyline clip-path="url(#clip291)" style="stroke:#000000; stroke-linecap:round; stroke-linejoin:round; stroke-width:2; stroke-opacity:0.1; fill:none" points="353.399,1067.12 2352.76,1067.12 "/>
<polyline clip-path="url(#clip291)" style="stroke:#000000; stroke-linecap:round; stroke-linejoin:round; stroke-width:2; stroke-opacity:0.1; fill:none" points="353.399,821.369 2352.76,821.369 "/>
<polyline clip-path="url(#clip291)" style="stroke:#000000; stroke-linecap:round; stroke-linejoin:round; stroke-width:2; stroke-opacity:0.1; fill:none" points="353.399,575.615 2352.76,575.615 "/>
<polyline clip-path="url(#clip291)" style="stroke:#000000; stroke-linecap:round; stroke-linejoin:round; stroke-width:2; stroke-opacity:0.1; fill:none" points="353.399,329.861 2352.76,329.861 "/>
<polyline clip-path="url(#clip291)" style="stroke:#000000; stroke-linecap:round; stroke-linejoin:round; stroke-width:2; stroke-opacity:0.1; fill:none" points="353.399,84.1072 2352.76,84.1072 "/>
<polyline clip-path="url(#clip290)" style="stroke:#000000; stroke-linecap:round; stroke-linejoin:round; stroke-width:4; stroke-opacity:1; fill:none" points="353.399,1349.74 2352.76,1349.74 "/>
<polyline clip-path="url(#clip290)" style="stroke:#000000; stroke-linecap:round; stroke-linejoin:round; stroke-width:4; stroke-opacity:1; fill:none" points="409.984,1349.74 409.984,1330.84 "/>
<polyline clip-path="url(#clip290)" style="stroke:#000000; stroke-linecap:round; stroke-linejoin:round; stroke-width:4; stroke-opacity:1; fill:none" points="724.348,1349.74 724.348,1330.84 "/>
<polyline clip-path="url(#clip290)" style="stroke:#000000; stroke-linecap:round; stroke-linejoin:round; stroke-width:4; stroke-opacity:1; fill:none" points="1038.71,1349.74 1038.71,1330.84 "/>
<polyline clip-path="url(#clip290)" style="stroke:#000000; stroke-linecap:round; stroke-linejoin:round; stroke-width:4; stroke-opacity:1; fill:none" points="1353.08,1349.74 1353.08,1330.84 "/>
<polyline clip-path="url(#clip290)" style="stroke:#000000; stroke-linecap:round; stroke-linejoin:round; stroke-width:4; stroke-opacity:1; fill:none" points="1667.44,1349.74 1667.44,1330.84 "/>
<polyline clip-path="url(#clip290)" style="stroke:#000000; stroke-linecap:round; stroke-linejoin:round; stroke-width:4; stroke-opacity:1; fill:none" points="1981.81,1349.74 1981.81,1330.84 "/>
<polyline clip-path="url(#clip290)" style="stroke:#000000; stroke-linecap:round; stroke-linejoin:round; stroke-width:4; stroke-opacity:1; fill:none" points="2296.17,1349.74 2296.17,1330.84 "/>
<path clip-path="url(#clip290)" d="M409.984 1392.38 Q402.762 1392.38 399.105 1399.51 Q395.493 1406.59 395.493 1420.85 Q395.493 1435.06 399.105 1442.19 Q402.762 1449.28 409.984 1449.28 Q417.253 1449.28 420.864 1442.19 Q424.521 1435.06 424.521 1420.85 Q424.521 1406.59 420.864 1399.51 Q417.253 1392.38 409.984 1392.38 M409.984 1384.97 Q421.604 1384.97 427.716 1394.18 Q433.873 1403.35 433.873 1420.85 Q433.873 1438.3 427.716 1447.52 Q421.604 1456.68 409.984 1456.68 Q398.364 1456.68 392.206 1447.52 Q386.095 1438.3 386.095 1420.85 Q386.095 1403.35 392.206 1394.18 Q398.364 1384.97 409.984 1384.97 Z" fill="#000000" fill-rule="nonzero" fill-opacity="1" /><path clip-path="url(#clip290)" d="M705.112 1447.47 L720.39 1447.47 L720.39 1394.74 L703.77 1398.07 L703.77 1389.55 L720.298 1386.22 L729.649 1386.22 L729.649 1447.47 L744.927 1447.47 L744.927 1455.34 L705.112 1455.34 L705.112 1447.47 Z" fill="#000000" fill-rule="nonzero" fill-opacity="1" /><path clip-path="url(#clip290)" d="M1028.02 1447.47 L1060.66 1447.47 L1060.66 1455.34 L1016.77 1455.34 L1016.77 1447.47 Q1022.09 1441.96 1031.26 1432.7 Q1040.47 1423.4 1042.83 1420.71 Q1047.32 1415.66 1049.08 1412.19 Q1050.89 1408.67 1050.89 1405.29 Q1050.89 1399.78 1047 1396.31 Q1043.16 1392.84 1036.95 1392.84 Q1032.56 1392.84 1027.65 1394.37 Q1022.79 1395.9 1017.23 1399 L1017.23 1389.55 Q1022.88 1387.28 1027.79 1386.13 Q1032.69 1384.97 1036.77 1384.97 Q1047.51 1384.97 1053.9 1390.34 Q1060.29 1395.71 1060.29 1404.69 Q1060.29 1408.95 1058.67 1412.79 Q1057.09 1416.59 1052.88 1421.78 Q1051.72 1423.12 1045.52 1429.55 Q1039.31 1435.94 1028.02 1447.47 Z" fill="#000000" fill-rule="nonzero" fill-opacity="1" /><path clip-path="url(#clip290)" d="M1361.57 1418.07 Q1368.29 1419.51 1372.04 1424.04 Q1375.83 1428.58 1375.83 1435.25 Q1375.83 1445.48 1368.79 1451.08 Q1361.76 1456.68 1348.79 1456.68 Q1344.44 1456.68 1339.81 1455.8 Q1335.23 1454.97 1330.32 1453.26 L1330.32 1444.23 Q1334.21 1446.5 1338.84 1447.65 Q1343.47 1448.81 1348.52 1448.81 Q1357.31 1448.81 1361.9 1445.34 Q1366.53 1441.87 1366.53 1435.25 Q1366.53 1429.14 1362.22 1425.71 Q1357.96 1422.24 1350.32 1422.24 L1342.27 1422.24 L1342.27 1414.55 L1350.69 1414.55 Q1357.59 1414.55 1361.25 1411.82 Q1364.91 1409.04 1364.91 1403.86 Q1364.91 1398.53 1361.11 1395.71 Q1357.36 1392.84 1350.32 1392.84 Q1346.48 1392.84 1342.08 1393.67 Q1337.68 1394.51 1332.41 1396.27 L1332.41 1387.93 Q1337.73 1386.45 1342.36 1385.71 Q1347.04 1384.97 1351.16 1384.97 Q1361.8 1384.97 1368.01 1389.83 Q1374.21 1394.65 1374.21 1402.89 Q1374.21 1408.63 1370.92 1412.61 Q1367.64 1416.54 1361.57 1418.07 Z" fill="#000000" fill-rule="nonzero" fill-opacity="1" /><path clip-path="url(#clip290)" d="M1673.46 1394.37 L1649.85 1431.27 L1673.46 1431.27 L1673.46 1394.37 M1671.01 1386.22 L1682.77 1386.22 L1682.77 1431.27 L1692.63 1431.27 L1692.63 1439.04 L1682.77 1439.04 L1682.77 1455.34 L1673.46 1455.34 L1673.46 1439.04 L1642.26 1439.04 L1642.26 1430.02 L1671.01 1386.22 Z" fill="#000000" fill-rule="nonzero" fill-opacity="1" /><path clip-path="url(#clip290)" d="M1962.36 1386.22 L1999.07 1386.22 L1999.07 1394.09 L1970.93 1394.09 L1970.93 1411.03 Q1972.96 1410.34 1975 1410.02 Q1977.04 1409.65 1979.07 1409.65 Q1990.65 1409.65 1997.41 1415.99 Q2004.17 1422.33 2004.17 1433.16 Q2004.17 1444.32 1997.22 1450.53 Q1990.28 1456.68 1977.64 1456.68 Q1973.29 1456.68 1968.75 1455.94 Q1964.26 1455.2 1959.44 1453.72 L1959.44 1444.32 Q1963.61 1446.59 1968.06 1447.7 Q1972.5 1448.81 1977.45 1448.81 Q1985.46 1448.81 1990.14 1444.6 Q1994.82 1440.39 1994.82 1433.16 Q1994.82 1425.94 1990.14 1421.73 Q1985.46 1417.52 1977.45 1417.52 Q1973.7 1417.52 1969.95 1418.35 Q1966.25 1419.18 1962.36 1420.94 L1962.36 1386.22 Z" fill="#000000" fill-rule="nonzero" fill-opacity="1" /><path clip-path="url(#clip290)" d="M2296.98 1417.05 Q2290.68 1417.05 2286.98 1421.36 Q2283.32 1425.66 2283.32 1433.16 Q2283.32 1440.62 2286.98 1444.97 Q2290.68 1449.28 2296.98 1449.28 Q2303.28 1449.28 2306.93 1444.97 Q2310.64 1440.62 2310.64 1433.16 Q2310.64 1425.66 2306.93 1421.36 Q2303.28 1417.05 2296.98 1417.05 M2315.55 1387.75 L2315.55 1396.27 Q2312.03 1394.6 2308.42 1393.72 Q2304.85 1392.84 2301.33 1392.84 Q2292.07 1392.84 2287.17 1399.09 Q2282.3 1405.34 2281.61 1417.98 Q2284.34 1413.95 2288.46 1411.82 Q2292.58 1409.65 2297.54 1409.65 Q2307.95 1409.65 2313.97 1415.99 Q2320.04 1422.28 2320.04 1433.16 Q2320.04 1443.81 2313.74 1450.25 Q2307.44 1456.68 2296.98 1456.68 Q2284.99 1456.68 2278.65 1447.52 Q2272.3 1438.3 2272.3 1420.85 Q2272.3 1404.46 2280.08 1394.74 Q2287.86 1384.97 2300.96 1384.97 Q2304.48 1384.97 2308.05 1385.66 Q2311.66 1386.36 2315.55 1387.75 Z" fill="#000000" fill-rule="nonzero" fill-opacity="1" /><path clip-path="url(#clip290)" d="M1384.76 1502.81 Q1384.76 1504.33 1384.11 1507.26 Q1382.06 1515.52 1374.39 1521.2 Q1373.1 1522.25 1370.82 1523.6 Q1373.57 1525.41 1375.97 1528.75 Q1379.55 1534.26 1379.55 1541.69 Q1379.55 1545.15 1378.61 1549.36 Q1375.97 1559.14 1366.72 1566.17 Q1357.41 1573.02 1346.34 1573.02 Q1340.37 1573.02 1336.27 1569.86 Q1332.23 1566.64 1330.65 1561.25 L1322.51 1594.1 Q1322.34 1594.92 1321.28 1594.92 L1320.7 1594.92 Q1319.47 1594.92 1319.47 1593.52 L1337.97 1519.73 Q1339.2 1514.76 1341.19 1510.07 Q1343.18 1505.39 1345.93 1501.17 Q1348.75 1496.96 1351.97 1493.85 Q1355.19 1490.69 1359.17 1488.88 Q1363.15 1487 1367.37 1487 Q1376.21 1487 1381.24 1493.03 Q1384.76 1497.31 1384.76 1502.81 M1378.02 1500.7 Q1378.02 1497.07 1376.56 1494.56 Q1373.57 1489.75 1367.25 1489.75 Q1363.44 1489.75 1359.81 1491.51 Q1356.24 1493.21 1353.37 1496.14 Q1350.5 1499.06 1348.04 1503.05 Q1345.58 1507.03 1343.77 1511.36 Q1342.01 1515.64 1340.84 1520.32 L1333.64 1549.36 Q1332.93 1552.47 1332.93 1555.22 Q1332.93 1561.78 1336.57 1566.05 Q1340.2 1570.33 1346.46 1570.33 Q1354.78 1570.33 1361.92 1564.12 Q1368.13 1558.56 1370.7 1548.78 Q1372.17 1542.63 1372.17 1538.36 Q1372.17 1533.67 1370.47 1530.04 Q1369.24 1527.11 1366.84 1525.36 Q1362.39 1526.94 1357.88 1526.94 Q1355.71 1526.94 1354.54 1526.88 Q1353.43 1526.82 1351.79 1526.59 Q1350.21 1526.35 1349.45 1525.71 Q1348.75 1525.06 1348.75 1524.07 Q1348.75 1523.48 1348.86 1523.25 Q1349.1 1522.31 1349.86 1521.67 Q1350.62 1521.02 1351.5 1520.73 Q1352.38 1520.38 1353.84 1520.2 Q1355.36 1520.03 1356.36 1520.03 Q1357.35 1519.97 1359.05 1519.97 Q1363.03 1519.97 1367.07 1521.55 Q1368.6 1520.73 1370.24 1519.27 Q1375.45 1514.41 1377.2 1506.68 Q1378.02 1503.81 1378.02 1500.7 M1363.27 1523.37 Q1360.81 1522.72 1358.93 1522.72 Q1352.08 1522.72 1351.73 1523.83 Q1351.73 1523.95 1351.97 1524.07 Q1352.2 1524.13 1352.73 1524.18 Q1353.31 1524.18 1353.78 1524.24 Q1354.31 1524.3 1355.19 1524.3 Q1356.06 1524.3 1356.53 1524.3 Q1357.06 1524.3 1358 1524.3 Q1360.34 1524.3 1363.27 1523.37 Z" fill="#000000" fill-rule="nonzero" fill-opacity="1" /><polyline clip-path="url(#clip290)" style="stroke:#000000; stroke-linecap:round; stroke-linejoin:round; stroke-width:4; stroke-opacity:1; fill:none" points="353.399,1349.74 353.399,47.2441 "/>
<polyline clip-path="url(#clip290)" style="stroke:#000000; stroke-linecap:round; stroke-linejoin:round; stroke-width:4; stroke-opacity:1; fill:none" points="353.399,1312.88 372.296,1312.88 "/>
<polyline clip-path="url(#clip290)" style="stroke:#000000; stroke-linecap:round; stroke-linejoin:round; stroke-width:4; stroke-opacity:1; fill:none" points="353.399,1067.12 372.296,1067.12 "/>
<polyline clip-path="url(#clip290)" style="stroke:#000000; stroke-linecap:round; stroke-linejoin:round; stroke-width:4; stroke-opacity:1; fill:none" points="353.399,821.369 372.296,821.369 "/>
<polyline clip-path="url(#clip290)" style="stroke:#000000; stroke-linecap:round; stroke-linejoin:round; stroke-width:4; stroke-opacity:1; fill:none" points="353.399,575.615 372.296,575.615 "/>
<polyline clip-path="url(#clip290)" style="stroke:#000000; stroke-linecap:round; stroke-linejoin:round; stroke-width:4; stroke-opacity:1; fill:none" points="353.399,329.861 372.296,329.861 "/>
<polyline clip-path="url(#clip290)" style="stroke:#000000; stroke-linecap:round; stroke-linejoin:round; stroke-width:4; stroke-opacity:1; fill:none" points="353.399,84.1072 372.296,84.1072 "/>
<path clip-path="url(#clip290)" d="M293.51 1284.47 Q286.288 1284.47 282.63 1291.6 Q279.019 1298.69 279.019 1312.95 Q279.019 1327.16 282.63 1334.29 Q286.288 1341.37 293.51 1341.37 Q300.778 1341.37 304.389 1334.29 Q308.047 1327.16 308.047 1312.95 Q308.047 1298.69 304.389 1291.6 Q300.778 1284.47 293.51 1284.47 M293.51 1277.07 Q305.13 1277.07 311.241 1286.28 Q317.399 1295.45 317.399 1312.95 Q317.399 1330.4 311.241 1339.61 Q305.13 1348.78 293.51 1348.78 Q281.889 1348.78 275.732 1339.61 Q269.621 1330.4 269.621 1312.95 Q269.621 1295.45 275.732 1286.28 Q281.889 1277.07 293.51 1277.07 Z" fill="#000000" fill-rule="nonzero" fill-opacity="1" /><path clip-path="url(#clip290)" d="M221.242 1093.81 L253.88 1093.81 L253.88 1101.68 L209.992 1101.68 L209.992 1093.81 Q215.316 1088.3 224.482 1079.04 Q233.695 1069.74 236.056 1067.05 Q240.547 1062.01 242.306 1058.53 Q244.112 1055.02 244.112 1051.64 Q244.112 1046.13 240.223 1042.66 Q236.38 1039.18 230.177 1039.18 Q225.779 1039.18 220.871 1040.71 Q216.01 1042.24 210.455 1045.34 L210.455 1035.9 Q216.103 1033.63 221.01 1032.47 Q225.918 1031.31 229.992 1031.31 Q240.732 1031.31 247.121 1036.68 Q253.51 1042.05 253.51 1051.03 Q253.51 1055.29 251.89 1059.14 Q250.316 1062.93 246.103 1068.12 Q244.945 1069.46 238.742 1075.9 Q232.538 1082.28 221.242 1093.81 Z" fill="#000000" fill-rule="nonzero" fill-opacity="1" /><path clip-path="url(#clip290)" d="M293.51 1038.72 Q286.288 1038.72 282.63 1045.85 Q279.019 1052.93 279.019 1067.19 Q279.019 1081.41 282.63 1088.53 Q286.288 1095.62 293.51 1095.62 Q300.778 1095.62 304.389 1088.53 Q308.047 1081.41 308.047 1067.19 Q308.047 1052.93 304.389 1045.85 Q300.778 1038.72 293.51 1038.72 M293.51 1031.31 Q305.13 1031.31 311.241 1040.53 Q317.399 1049.69 317.399 1067.19 Q317.399 1084.65 311.241 1093.86 Q305.13 1103.03 293.51 1103.03 Q281.889 1103.03 275.732 1093.86 Q269.621 1084.65 269.621 1067.19 Q269.621 1049.69 275.732 1040.53 Q281.889 1031.31 293.51 1031.31 Z" fill="#000000" fill-rule="nonzero" fill-opacity="1" /><path clip-path="url(#clip290)" d="M238.88 794.957 L215.269 831.855 L238.88 831.855 L238.88 794.957 M236.427 786.809 L248.186 786.809 L248.186 831.855 L258.047 831.855 L258.047 839.633 L248.186 839.633 L248.186 855.929 L238.88 855.929 L238.88 839.633 L207.677 839.633 L207.677 830.605 L236.427 786.809 Z" fill="#000000" fill-rule="nonzero" fill-opacity="1" /><path clip-path="url(#clip290)" d="M293.51 792.966 Q286.288 792.966 282.63 800.096 Q279.019 807.179 279.019 821.438 Q279.019 835.651 282.63 842.781 Q286.288 849.864 293.51 849.864 Q300.778 849.864 304.389 842.781 Q308.047 835.651 308.047 821.438 Q308.047 807.179 304.389 800.096 Q300.778 792.966 293.51 792.966 M293.51 785.559 Q305.13 785.559 311.241 794.772 Q317.399 803.938 317.399 821.438 Q317.399 838.892 311.241 848.105 Q305.13 857.272 293.51 857.272 Q281.889 857.272 275.732 848.105 Q269.621 838.892 269.621 821.438 Q269.621 803.938 275.732 794.772 Q281.889 785.559 293.51 785.559 Z" fill="#000000" fill-rule="nonzero" fill-opacity="1" /><path clip-path="url(#clip290)" d="M234.343 571.888 Q228.047 571.888 224.343 576.194 Q220.686 580.499 220.686 587.999 Q220.686 595.453 224.343 599.805 Q228.047 604.11 234.343 604.11 Q240.64 604.11 244.297 599.805 Q248.001 595.453 248.001 587.999 Q248.001 580.499 244.297 576.194 Q240.64 571.888 234.343 571.888 M252.908 542.583 L252.908 551.101 Q249.39 549.435 245.779 548.555 Q242.214 547.675 238.695 547.675 Q229.436 547.675 224.529 553.925 Q219.668 560.175 218.973 572.814 Q221.705 568.786 225.825 566.657 Q229.945 564.481 234.899 564.481 Q245.316 564.481 251.334 570.823 Q257.399 577.12 257.399 587.999 Q257.399 598.647 251.103 605.082 Q244.806 611.518 234.343 611.518 Q222.353 611.518 216.01 602.351 Q209.668 593.138 209.668 575.684 Q209.668 559.296 217.445 549.573 Q225.223 539.805 238.325 539.805 Q241.843 539.805 245.408 540.499 Q249.019 541.194 252.908 542.583 Z" fill="#000000" fill-rule="nonzero" fill-opacity="1" /><path clip-path="url(#clip290)" d="M293.51 547.212 Q286.288 547.212 282.63 554.342 Q279.019 561.425 279.019 575.684 Q279.019 589.897 282.63 597.027 Q286.288 604.11 293.51 604.11 Q300.778 604.11 304.389 597.027 Q308.047 589.897 308.047 575.684 Q308.047 561.425 304.389 554.342 Q300.778 547.212 293.51 547.212 M293.51 539.805 Q305.13 539.805 311.241 549.018 Q317.399 558.185 317.399 575.684 Q317.399 593.138 311.241 602.351 Q305.13 611.518 293.51 611.518 Q281.889 611.518 275.732 602.351 Q269.621 593.138 269.621 575.684 Q269.621 558.185 275.732 549.018 Q281.889 539.805 293.51 539.805 Z" fill="#000000" fill-rule="nonzero" fill-opacity="1" /><path clip-path="url(#clip290)" d="M233.186 331.597 Q226.519 331.597 222.677 335.162 Q218.881 338.727 218.881 344.977 Q218.881 351.227 222.677 354.792 Q226.519 358.356 233.186 358.356 Q239.853 358.356 243.695 354.792 Q247.538 351.18 247.538 344.977 Q247.538 338.727 243.695 335.162 Q239.899 331.597 233.186 331.597 M223.834 327.616 Q217.816 326.134 214.436 322.014 Q211.103 317.894 211.103 311.968 Q211.103 303.681 216.982 298.866 Q222.908 294.051 233.186 294.051 Q243.51 294.051 249.39 298.866 Q255.269 303.681 255.269 311.968 Q255.269 317.894 251.89 322.014 Q248.556 326.134 242.584 327.616 Q249.343 329.19 253.093 333.773 Q256.89 338.356 256.89 344.977 Q256.89 355.023 250.732 360.393 Q244.621 365.764 233.186 365.764 Q221.751 365.764 215.594 360.393 Q209.482 355.023 209.482 344.977 Q209.482 338.356 213.279 333.773 Q217.075 329.19 223.834 327.616 M220.408 312.847 Q220.408 318.218 223.742 321.227 Q227.121 324.236 233.186 324.236 Q239.205 324.236 242.584 321.227 Q246.01 318.218 246.01 312.847 Q246.01 307.477 242.584 304.468 Q239.205 301.458 233.186 301.458 Q227.121 301.458 223.742 304.468 Q220.408 307.477 220.408 312.847 Z" fill="#000000" fill-rule="nonzero" fill-opacity="1" /><path clip-path="url(#clip290)" d="M293.51 301.458 Q286.288 301.458 282.63 308.588 Q279.019 315.671 279.019 329.931 Q279.019 344.143 282.63 351.273 Q286.288 358.356 293.51 358.356 Q300.778 358.356 304.389 351.273 Q308.047 344.143 308.047 329.931 Q308.047 315.671 304.389 308.588 Q300.778 301.458 293.51 301.458 M293.51 294.051 Q305.13 294.051 311.241 303.264 Q317.399 312.431 317.399 329.931 Q317.399 347.384 311.241 356.597 Q305.13 365.764 293.51 365.764 Q281.889 365.764 275.732 356.597 Q269.621 347.384 269.621 329.931 Q269.621 312.431 275.732 303.264 Q281.889 294.051 293.51 294.051 Z" fill="#000000" fill-rule="nonzero" fill-opacity="1" /><path clip-path="url(#clip290)" d="M154.483 110.797 L169.76 110.797 L169.76 58.0657 L153.14 61.399 L153.14 52.8805 L169.668 49.5472 L179.02 49.5472 L179.02 110.797 L194.297 110.797 L194.297 118.667 L154.483 118.667 L154.483 110.797 Z" fill="#000000" fill-rule="nonzero" fill-opacity="1" /><path clip-path="url(#clip290)" d="M233.186 55.7046 Q225.964 55.7046 222.306 62.8341 Q218.695 69.9174 218.695 84.1766 Q218.695 98.3895 222.306 105.519 Q225.964 112.602 233.186 112.602 Q240.455 112.602 244.066 105.519 Q247.723 98.3895 247.723 84.1766 Q247.723 69.9174 244.066 62.8341 Q240.455 55.7046 233.186 55.7046 M233.186 48.2972 Q244.806 48.2972 250.917 57.5101 Q257.075 66.6767 257.075 84.1766 Q257.075 101.63 250.917 110.843 Q244.806 120.01 233.186 120.01 Q221.566 120.01 215.408 110.843 Q209.297 101.63 209.297 84.1766 Q209.297 66.6767 215.408 57.5101 Q221.566 48.2972 233.186 48.2972 Z" fill="#000000" fill-rule="nonzero" fill-opacity="1" /><path clip-path="url(#clip290)" d="M293.51 55.7046 Q286.288 55.7046 282.63 62.8341 Q279.019 69.9174 279.019 84.1766 Q279.019 98.3895 282.63 105.519 Q286.288 112.602 293.51 112.602 Q300.778 112.602 304.389 105.519 Q308.047 98.3895 308.047 84.1766 Q308.047 69.9174 304.389 62.8341 Q300.778 55.7046 293.51 55.7046 M293.51 48.2972 Q305.13 48.2972 311.241 57.5101 Q317.399 66.6767 317.399 84.1766 Q317.399 101.63 311.241 110.843 Q305.13 120.01 293.51 120.01 Q281.889 120.01 275.732 110.843 Q269.621 101.63 269.621 84.1766 Q269.621 66.6767 275.732 57.5101 Q281.889 48.2972 293.51 48.2972 Z" fill="#000000" fill-rule="nonzero" fill-opacity="1" /><path clip-path="url(#clip290)" d="M4.82016 976.268 L36.938 976.268 L36.938 986.106 L4.82016 986.106 L4.82016 976.268 Z" fill="#000000" fill-rule="nonzero" fill-opacity="1" /><path clip-path="url(#clip290)" d="M4.82016 953.294 L4.82016 898.665 L14.6581 898.665 L14.6581 941.604 L40.2366 941.604 L40.2366 900.458 L50.0745 900.458 L50.0745 941.604 L81.3822 941.604 L81.3822 897.623 L91.2202 897.623 L91.2202 953.294 L4.82016 953.294 Z" fill="#000000" fill-rule="nonzero" fill-opacity="1" /><path clip-path="url(#clip290)" d="M36.3593 841.315 Q35.3177 843.109 34.8547 845.25 Q34.3339 847.334 34.3339 849.88 Q34.3339 858.908 40.2366 863.769 Q46.0815 868.572 57.0768 868.572 L91.2202 868.572 L91.2202 879.278 L26.4057 879.278 L26.4057 868.572 L36.4751 868.572 Q30.5723 865.216 27.7367 859.834 Q24.8432 854.452 24.8432 846.755 Q24.8432 845.656 25.0168 844.325 Q25.1325 842.994 25.4219 841.373 L36.3593 841.315 Z" fill="#000000" fill-rule="nonzero" fill-opacity="1" /><path clip-path="url(#clip290)" d="M36.3593 794.672 Q35.3177 796.466 34.8547 798.607 Q34.3339 800.69 34.3339 803.237 Q34.3339 812.265 40.2366 817.126 Q46.0815 821.929 57.0768 821.929 L91.2202 821.929 L91.2202 832.635 L26.4057 832.635 L26.4057 821.929 L36.4751 821.929 Q30.5723 818.572 27.7367 813.19 Q24.8432 807.809 24.8432 800.112 Q24.8432 799.012 25.0168 797.681 Q25.1325 796.35 25.4219 794.73 L36.3593 794.672 Z" fill="#000000" fill-rule="nonzero" fill-opacity="1" /><path clip-path="url(#clip290)" d="M33.8709 760.992 Q33.8709 769.556 40.5839 774.533 Q47.2389 779.51 58.8708 779.51 Q70.5027 779.51 77.2156 774.591 Q83.8707 769.614 83.8707 760.992 Q83.8707 752.485 77.1577 747.508 Q70.4448 742.531 58.8708 742.531 Q47.3547 742.531 40.6417 747.508 Q33.8709 752.485 33.8709 760.992 M24.8432 760.992 Q24.8432 747.103 33.8709 739.175 Q42.8987 731.246 58.8708 731.246 Q74.7851 731.246 83.8707 739.175 Q92.8984 747.103 92.8984 760.992 Q92.8984 774.938 83.8707 782.867 Q74.7851 790.737 58.8708 790.737 Q42.8987 790.737 33.8709 782.867 Q24.8432 774.938 24.8432 760.992 Z" fill="#000000" fill-rule="nonzero" fill-opacity="1" /><path clip-path="url(#clip290)" d="M36.3593 676.038 Q35.3177 677.832 34.8547 679.974 Q34.3339 682.057 34.3339 684.603 Q34.3339 693.631 40.2366 698.492 Q46.0815 703.295 57.0768 703.295 L91.2202 703.295 L91.2202 714.001 L26.4057 714.001 L26.4057 703.295 L36.4751 703.295 Q30.5723 699.939 27.7367 694.557 Q24.8432 689.175 24.8432 681.478 Q24.8432 680.379 25.0168 679.048 Q25.1325 677.717 25.4219 676.096 L36.3593 676.038 Z" fill="#000000" fill-rule="nonzero" fill-opacity="1" /><path clip-path="url(#clip290)" d="M4.82016 654.8 L36.938 654.8 L36.938 664.638 L4.82016 664.638 L4.82016 654.8 Z" fill="#000000" fill-rule="nonzero" fill-opacity="1" /><path clip-path="url(#clip290)" d="M1.17434 595.599 L1.17434 571.062 L9.44976 571.062 L9.44976 584.951 L98.5697 584.951 L98.5697 571.062 L106.845 571.062 L106.845 595.599 L1.17434 595.599 Z" fill="#000000" fill-rule="nonzero" fill-opacity="1" /><path clip-path="url(#clip290)" d="M53.1995 473.377 Q53.1995 478.412 57.4819 481.306 Q61.7643 484.141 69.4031 484.141 Q76.9263 484.141 81.2665 481.306 Q85.5489 478.412 85.5489 473.377 Q85.5489 468.458 81.2665 465.623 Q76.9263 462.729 69.4031 462.729 Q61.8222 462.729 57.5398 465.623 Q53.1995 468.458 53.1995 473.377 M45.85 473.377 Q45.85 464.234 52.2157 458.852 Q58.5814 453.47 69.4031 453.47 Q80.2248 453.47 86.5906 458.91 Q92.8984 464.292 92.8984 473.377 Q92.8984 482.637 86.5906 488.019 Q80.2248 493.4 69.4031 493.4 Q58.5236 493.4 52.2157 488.019 Q45.85 482.579 45.85 473.377 M10.6072 533.099 Q10.6072 538.076 14.9474 540.97 Q19.2298 543.805 26.7529 543.805 Q34.3918 543.805 38.6741 540.97 Q42.9565 538.134 42.9565 533.099 Q42.9565 528.065 38.6741 525.229 Q34.3918 522.336 26.7529 522.336 Q19.2877 522.336 14.9474 525.229 Q10.6072 528.123 10.6072 533.099 M3.25767 480.843 L3.25767 471.583 L92.8984 525.634 L92.8984 534.893 L3.25767 480.843 M3.25767 533.099 Q3.25767 523.956 9.62337 518.516 Q15.9312 513.076 26.7529 513.076 Q37.6904 513.076 43.9982 518.516 Q50.306 523.898 50.306 533.099 Q50.306 542.301 43.9982 547.683 Q37.6325 553.007 26.7529 553.007 Q15.9891 553.007 9.62337 547.625 Q3.25767 542.243 3.25767 533.099 Z" fill="#000000" fill-rule="nonzero" fill-opacity="1" /><path clip-path="url(#clip290)" d="M1.17434 410.878 L106.845 410.878 L106.845 435.415 L98.5697 435.415 L98.5697 421.584 L9.44976 421.584 L9.44976 435.415 L1.17434 435.415 L1.17434 410.878 Z" fill="#000000" fill-rule="nonzero" fill-opacity="1" /><circle clip-path="url(#clip291)" cx="409.984" cy="963.821" r="25.2" fill="#0000ff" fill-rule="evenodd" fill-opacity="1" stroke="none"/>
<circle clip-path="url(#clip291)" cx="425.702" cy="1011.23" r="25.2" fill="#0000ff" fill-rule="evenodd" fill-opacity="1" stroke="none"/>
<circle clip-path="url(#clip291)" cx="441.421" cy="1054.03" r="25.2" fill="#0000ff" fill-rule="evenodd" fill-opacity="1" stroke="none"/>
<circle clip-path="url(#clip291)" cx="457.139" cy="1089.92" r="25.2" fill="#0000ff" fill-rule="evenodd" fill-opacity="1" stroke="none"/>
<circle clip-path="url(#clip291)" cx="472.857" cy="1117.03" r="25.2" fill="#0000ff" fill-rule="evenodd" fill-opacity="1" stroke="none"/>
<circle clip-path="url(#clip291)" cx="488.575" cy="1134.09" r="25.2" fill="#0000ff" fill-rule="evenodd" fill-opacity="1" stroke="none"/>
<circle clip-path="url(#clip291)" cx="504.293" cy="1140.81" r="25.2" fill="#0000ff" fill-rule="evenodd" fill-opacity="1" stroke="none"/>
<circle clip-path="url(#clip291)" cx="520.012" cy="1138.49" r="25.2" fill="#0000ff" fill-rule="evenodd" fill-opacity="1" stroke="none"/>
<circle clip-path="url(#clip291)" cx="535.73" cy="1129.75" r="25.2" fill="#0000ff" fill-rule="evenodd" fill-opacity="1" stroke="none"/>
<circle clip-path="url(#clip291)" cx="551.448" cy="1117.42" r="25.2" fill="#0000ff" fill-rule="evenodd" fill-opacity="1" stroke="none"/>
<circle clip-path="url(#clip291)" cx="567.166" cy="1103.55" r="25.2" fill="#0000ff" fill-rule="evenodd" fill-opacity="1" stroke="none"/>
<circle clip-path="url(#clip291)" cx="645.757" cy="1026.14" r="25.2" fill="#0000ff" fill-rule="evenodd" fill-opacity="1" stroke="none"/>
<circle clip-path="url(#clip291)" cx="724.348" cy="941.692" r="25.2" fill="#0000ff" fill-rule="evenodd" fill-opacity="1" stroke="none"/>
<circle clip-path="url(#clip291)" cx="802.94" cy="862.529" r="25.2" fill="#0000ff" fill-rule="evenodd" fill-opacity="1" stroke="none"/>
<circle clip-path="url(#clip291)" cx="881.531" cy="787.458" r="25.2" fill="#0000ff" fill-rule="evenodd" fill-opacity="1" stroke="none"/>
<circle clip-path="url(#clip291)" cx="960.122" cy="710.347" r="25.2" fill="#0000ff" fill-rule="evenodd" fill-opacity="1" stroke="none"/>
<circle clip-path="url(#clip291)" cx="1038.71" cy="632.053" r="25.2" fill="#0000ff" fill-rule="evenodd" fill-opacity="1" stroke="none"/>
<circle clip-path="url(#clip291)" cx="1117.3" cy="571.821" r="25.2" fill="#0000ff" fill-rule="evenodd" fill-opacity="1" stroke="none"/>
<circle clip-path="url(#clip291)" cx="1195.9" cy="509.695" r="25.2" fill="#0000ff" fill-rule="evenodd" fill-opacity="1" stroke="none"/>
<circle clip-path="url(#clip291)" cx="1274.49" cy="446.083" r="25.2" fill="#0000ff" fill-rule="evenodd" fill-opacity="1" stroke="none"/>
<circle clip-path="url(#clip291)" cx="1353.08" cy="381.288" r="25.2" fill="#0000ff" fill-rule="evenodd" fill-opacity="1" stroke="none"/>
<circle clip-path="url(#clip291)" cx="1431.67" cy="336.567" r="25.2" fill="#0000ff" fill-rule="evenodd" fill-opacity="1" stroke="none"/>
<circle clip-path="url(#clip291)" cx="1510.26" cy="290.936" r="25.2" fill="#0000ff" fill-rule="evenodd" fill-opacity="1" stroke="none"/>
<circle clip-path="url(#clip291)" cx="1588.85" cy="244.042" r="25.2" fill="#0000ff" fill-rule="evenodd" fill-opacity="1" stroke="none"/>
<circle clip-path="url(#clip291)" cx="1667.44" cy="196.044" r="25.2" fill="#0000ff" fill-rule="evenodd" fill-opacity="1" stroke="none"/>
<circle clip-path="url(#clip291)" cx="1746.03" cy="166.328" r="25.2" fill="#0000ff" fill-rule="evenodd" fill-opacity="1" stroke="none"/>
<circle clip-path="url(#clip291)" cx="1824.62" cy="140.665" r="25.2" fill="#0000ff" fill-rule="evenodd" fill-opacity="1" stroke="none"/>
<circle clip-path="url(#clip291)" cx="1903.21" cy="114.12" r="25.2" fill="#0000ff" fill-rule="evenodd" fill-opacity="1" stroke="none"/>
<circle clip-path="url(#clip291)" cx="1981.81" cy="86.7494" r="25.2" fill="#0000ff" fill-rule="evenodd" fill-opacity="1" stroke="none"/>
<circle clip-path="url(#clip291)" cx="2060.4" cy="84.1072" r="25.2" fill="#0000ff" fill-rule="evenodd" fill-opacity="1" stroke="none"/>
<circle clip-path="url(#clip291)" cx="2138.99" cy="84.1072" r="25.2" fill="#0000ff" fill-rule="evenodd" fill-opacity="1" stroke="none"/>
<circle clip-path="url(#clip291)" cx="2217.58" cy="84.1072" r="25.2" fill="#0000ff" fill-rule="evenodd" fill-opacity="1" stroke="none"/>
<circle clip-path="url(#clip291)" cx="2296.17" cy="84.1072" r="25.2" fill="#0000ff" fill-rule="evenodd" fill-opacity="1" stroke="none"/>
<path clip-path="url(#clip291)" d="M409.984 1284.88 L381.984 1312.88 L409.984 1340.88 L437.984 1312.88 L409.984 1284.88 Z" fill="#ff0000" fill-rule="evenodd" fill-opacity="1" stroke="none"/>
<path clip-path="url(#clip291)" d="M425.702 1228.65 L397.702 1256.65 L425.702 1284.65 L453.702 1256.65 L425.702 1228.65 Z" fill="#ff0000" fill-rule="evenodd" fill-opacity="1" stroke="none"/>
<path clip-path="url(#clip291)" d="M441.421 1172.42 L413.421 1200.42 L441.421 1228.42 L469.421 1200.42 L441.421 1172.42 Z" fill="#ff0000" fill-rule="evenodd" fill-opacity="1" stroke="none"/>
<path clip-path="url(#clip291)" d="M457.139 1119.56 L429.139 1147.56 L457.139 1175.56 L485.139 1147.56 L457.139 1119.56 Z" fill="#ff0000" fill-rule="evenodd" fill-opacity="1" stroke="none"/>
<path clip-path="url(#clip291)" d="M472.857 1072.99 L444.857 1100.99 L472.857 1128.99 L500.857 1100.99 L472.857 1072.99 Z" fill="#ff0000" fill-rule="evenodd" fill-opacity="1" stroke="none"/>
<path clip-path="url(#clip291)" d="M488.575 1032.76 L460.575 1060.76 L488.575 1088.76 L516.575 1060.76 L488.575 1032.76 Z" fill="#ff0000" fill-rule="evenodd" fill-opacity="1" stroke="none"/>
<path clip-path="url(#clip291)" d="M504.293 999.273 L476.293 1027.27 L504.293 1055.27 L532.293 1027.27 L504.293 999.273 Z" fill="#ff0000" fill-rule="evenodd" fill-opacity="1" stroke="none"/>
<path clip-path="url(#clip291)" d="M520.012 971.835 L492.012 999.835 L520.012 1027.83 L548.012 999.835 L520.012 971.835 Z" fill="#ff0000" fill-rule="evenodd" fill-opacity="1" stroke="none"/>
<path clip-path="url(#clip291)" d="M535.73 951.672 L507.73 979.672 L535.73 1007.67 L563.73 979.672 L535.73 951.672 Z" fill="#ff0000" fill-rule="evenodd" fill-opacity="1" stroke="none"/>
<path clip-path="url(#clip291)" d="M551.448 937.436 L523.448 965.436 L551.448 993.436 L579.448 965.436 L551.448 937.436 Z" fill="#ff0000" fill-rule="evenodd" fill-opacity="1" stroke="none"/>
<path clip-path="url(#clip291)" d="M567.166 928.17 L539.166 956.17 L567.166 984.17 L595.166 956.17 L567.166 928.17 Z" fill="#ff0000" fill-rule="evenodd" fill-opacity="1" stroke="none"/>
<path clip-path="url(#clip291)" d="M645.757 876.517 L617.757 904.517 L645.757 932.517 L673.757 904.517 L645.757 876.517 Z" fill="#ff0000" fill-rule="evenodd" fill-opacity="1" stroke="none"/>
<path clip-path="url(#clip291)" d="M724.348 813.621 L696.348 841.621 L724.348 869.621 L752.348 841.621 L724.348 813.621 Z" fill="#ff0000" fill-rule="evenodd" fill-opacity="1" stroke="none"/>
<path clip-path="url(#clip291)" d="M802.94 751.027 L774.94 779.027 L802.94 807.027 L830.94 779.027 L802.94 751.027 Z" fill="#ff0000" fill-rule="evenodd" fill-opacity="1" stroke="none"/>
<path clip-path="url(#clip291)" d="M881.531 689.438 L853.531 717.438 L881.531 745.438 L909.531 717.438 L881.531 689.438 Z" fill="#ff0000" fill-rule="evenodd" fill-opacity="1" stroke="none"/>
<path clip-path="url(#clip291)" d="M960.122 624.011 L932.122 652.011 L960.122 680.011 L988.122 652.011 L960.122 624.011 Z" fill="#ff0000" fill-rule="evenodd" fill-opacity="1" stroke="none"/>
<path clip-path="url(#clip291)" d="M1038.71 555.922 L1010.71 583.922 L1038.71 611.922 L1066.71 583.922 L1038.71 555.922 Z" fill="#ff0000" fill-rule="evenodd" fill-opacity="1" stroke="none"/>
<path clip-path="url(#clip291)" d="M1117.3 502.579 L1089.3 530.579 L1117.3 558.579 L1145.3 530.579 L1117.3 502.579 Z" fill="#ff0000" fill-rule="evenodd" fill-opacity="1" stroke="none"/>
<path clip-path="url(#clip291)" d="M1195.9 446.969 L1167.9 474.969 L1195.9 502.969 L1223.9 474.969 L1195.9 446.969 Z" fill="#ff0000" fill-rule="evenodd" fill-opacity="1" stroke="none"/>
<path clip-path="url(#clip291)" d="M1274.49 389.514 L1246.49 417.514 L1274.49 445.514 L1302.49 417.514 L1274.49 389.514 Z" fill="#ff0000" fill-rule="evenodd" fill-opacity="1" stroke="none"/>
<path clip-path="url(#clip291)" d="M1353.08 330.549 L1325.08 358.549 L1353.08 386.549 L1381.08 358.549 L1353.08 330.549 Z" fill="#ff0000" fill-rule="evenodd" fill-opacity="1" stroke="none"/>
<path clip-path="url(#clip291)" d="M1431.67 289.532 L1403.67 317.532 L1431.67 345.532 L1459.67 317.532 L1431.67 289.532 Z" fill="#ff0000" fill-rule="evenodd" fill-opacity="1" stroke="none"/>
<path clip-path="url(#clip291)" d="M1510.26 247.539 L1482.26 275.539 L1510.26 303.539 L1538.26 275.539 L1510.26 247.539 Z" fill="#ff0000" fill-rule="evenodd" fill-opacity="1" stroke="none"/>
<path clip-path="url(#clip291)" d="M1588.85 204.252 L1560.85 232.252 L1588.85 260.252 L1616.85 232.252 L1588.85 204.252 Z" fill="#ff0000" fill-rule="evenodd" fill-opacity="1" stroke="none"/>
<path clip-path="url(#clip291)" d="M1667.44 159.82 L1639.44 187.82 L1667.44 215.82 L1695.44 187.82 L1667.44 159.82 Z" fill="#ff0000" fill-rule="evenodd" fill-opacity="1" stroke="none"/>
<path clip-path="url(#clip291)" d="M1746.03 132.317 L1718.03 160.317 L1746.03 188.317 L1774.03 160.317 L1746.03 132.317 Z" fill="#ff0000" fill-rule="evenodd" fill-opacity="1" stroke="none"/>
<path clip-path="url(#clip291)" d="M1824.62 108.561 L1796.62 136.561 L1824.62 164.561 L1852.62 136.561 L1824.62 108.561 Z" fill="#ff0000" fill-rule="evenodd" fill-opacity="1" stroke="none"/>
<path clip-path="url(#clip291)" d="M1903.21 83.9587 L1875.21 111.959 L1903.21 139.959 L1931.21 111.959 L1903.21 83.9587 Z" fill="#ff0000" fill-rule="evenodd" fill-opacity="1" stroke="none"/>
<path clip-path="url(#clip291)" d="M1981.81 58.5606 L1953.81 86.5606 L1981.81 114.561 L2009.81 86.5606 L1981.81 58.5606 Z" fill="#ff0000" fill-rule="evenodd" fill-opacity="1" stroke="none"/>
<path clip-path="url(#clip291)" d="M2060.4 56.1072 L2032.4 84.1072 L2060.4 112.107 L2088.4 84.1072 L2060.4 56.1072 Z" fill="#ff0000" fill-rule="evenodd" fill-opacity="1" stroke="none"/>
<path clip-path="url(#clip291)" d="M2138.99 56.1072 L2110.99 84.1072 L2138.99 112.107 L2166.99 84.1072 L2138.99 56.1072 Z" fill="#ff0000" fill-rule="evenodd" fill-opacity="1" stroke="none"/>
<path clip-path="url(#clip291)" d="M2217.58 56.1072 L2189.58 84.1072 L2217.58 112.107 L2245.58 84.1072 L2217.58 56.1072 Z" fill="#ff0000" fill-rule="evenodd" fill-opacity="1" stroke="none"/>
<path clip-path="url(#clip291)" d="M2296.17 56.1072 L2268.17 84.1072 L2296.17 112.107 L2324.17 84.1072 L2296.17 56.1072 Z" fill="#ff0000" fill-rule="evenodd" fill-opacity="1" stroke="none"/>
<path clip-path="url(#clip290)" d="M420.044 523.327 L2145.15 523.327 L2145.15 90.6606 L420.044 90.6606  Z" fill="#ffffff" fill-rule="evenodd" fill-opacity="1"/>
<polyline clip-path="url(#clip290)" style="stroke:#000000; stroke-linecap:round; stroke-linejoin:round; stroke-width:4; stroke-opacity:1; fill:none" points="420.044,523.327 2145.15,523.327 2145.15,90.6606 420.044,90.6606 420.044,523.327 "/>
<circle clip-path="url(#clip290)" cx="508.904" cy="234.883" r="45.696" fill="#0000ff" fill-rule="evenodd" fill-opacity="1" stroke="none"/>
<path clip-path="url(#clip290)" d="M597.764 253.011 L597.764 249.875 Q601.448 249.875 603.787 249.179 Q606.126 248.432 606.972 247.088 Q607.819 245.695 608.018 244.799 Q608.266 243.853 608.266 242.31 L608.266 189.103 Q608.266 187.66 607.868 187.311 Q607.52 186.963 605.778 186.764 Q602.742 186.565 600.701 186.565 L597.764 186.565 L597.764 183.379 L615.085 183.379 Q616.529 183.379 616.927 183.578 Q617.325 183.777 618.022 184.723 L654.008 237.631 L654.008 194.08 Q654.008 192.537 653.808 191.641 Q653.609 190.745 652.713 189.352 Q651.867 187.958 649.528 187.261 Q647.189 186.565 643.506 186.565 L643.506 183.379 Q654.207 183.678 655.401 183.678 Q656.646 183.678 667.347 183.379 L667.347 186.565 Q663.663 186.565 661.324 187.261 Q658.985 187.958 658.139 189.352 Q657.293 190.745 657.044 191.691 Q656.845 192.587 656.845 194.08 L656.845 250.373 Q656.845 252.016 656.646 252.513 Q656.446 253.011 655.451 253.011 Q654.754 253.011 653.709 251.667 L612.099 190.546 Q611.701 189.949 611.104 189.302 L611.104 242.31 Q611.104 243.853 611.303 244.799 Q611.502 245.695 612.348 247.088 Q613.244 248.432 615.583 249.179 Q617.922 249.875 621.606 249.875 L621.606 253.011 Q610.904 252.712 609.66 252.712 Q608.466 252.712 597.764 253.011 Z" fill="#000000" fill-rule="nonzero" fill-opacity="1" /><path clip-path="url(#clip290)" d="M684.495 253.011 L684.495 249.875 L686.934 249.875 Q692.459 249.875 693.703 248.979 Q694.997 248.034 694.997 245.047 L694.997 191.343 Q694.997 188.406 693.703 187.51 Q692.409 186.565 686.934 186.565 L684.495 186.565 L684.495 183.379 L716.499 183.379 Q727.598 183.379 735.313 188.854 Q743.078 194.279 743.078 201.745 Q743.078 207.469 738.051 211.949 Q733.024 216.428 725.259 218.369 Q735.363 221.853 737.702 230.165 L738.996 238.328 Q739.395 241.265 739.643 242.758 Q739.942 244.251 740.39 246.292 Q740.838 248.332 741.286 249.328 Q741.784 250.274 742.48 251.319 Q743.177 252.314 744.073 252.663 Q745.019 253.011 746.263 253.011 Q748.603 253.011 750.593 250.921 Q752.584 248.83 752.983 243.952 Q753.182 242.31 754.227 242.31 Q755.521 242.31 755.521 243.952 Q755.521 245.396 755.123 247.088 Q754.725 248.731 753.729 250.672 Q752.783 252.613 750.693 253.907 Q748.603 255.251 745.865 255.251 Q737.901 255.251 733.024 250.97 Q730.983 249.129 730.037 246.74 Q729.141 244.351 728.992 242.459 Q728.843 240.568 728.843 236.387 Q728.843 230.464 728.196 227.876 Q727.598 225.288 724.96 222.749 Q721.377 219.265 715.454 219.265 L703.757 219.265 L703.757 245.047 Q703.757 247.984 705.002 248.93 Q706.296 249.875 711.82 249.875 L714.259 249.875 L714.259 253.011 Q710.576 252.712 699.377 252.712 Q688.178 252.712 684.495 253.011 M703.757 217.025 L715.056 217.025 Q720.481 217.025 724.114 215.731 Q727.798 214.387 729.54 211.998 Q731.282 209.609 731.929 207.22 Q732.576 204.781 732.576 201.745 Q732.576 198.162 731.779 195.474 Q730.983 192.786 729.241 191.193 Q727.499 189.601 725.757 188.605 Q724.015 187.56 721.327 187.162 Q718.639 186.764 716.798 186.664 Q714.956 186.565 712.02 186.565 Q707.042 186.565 705.997 186.764 Q704.852 186.863 704.404 187.411 Q703.956 187.958 703.857 188.605 Q703.757 189.202 703.757 190.646 L703.757 217.025 Z" fill="#000000" fill-rule="nonzero" fill-opacity="1" /><path clip-path="url(#clip290)" d="M758.373 253.011 L758.373 249.875 Q762.056 249.875 764.395 249.179 Q766.734 248.432 767.581 247.088 Q768.476 245.695 768.676 244.799 Q768.875 243.853 768.875 242.31 L768.875 191.343 Q768.875 188.406 767.581 187.51 Q766.336 186.565 760.811 186.565 L758.373 186.565 L758.373 183.379 L775.594 183.379 Q777.436 183.379 777.933 183.727 Q778.431 184.026 779.178 185.619 L801.277 242.708 L823.575 185.32 Q824.073 183.877 824.521 183.628 Q825.018 183.379 826.959 183.379 L844.181 183.379 L844.181 186.565 L841.742 186.565 Q836.217 186.565 834.923 187.51 Q833.679 188.406 833.679 191.343 L833.679 245.047 Q833.679 247.984 834.923 248.93 Q836.217 249.875 841.742 249.875 L844.181 249.875 L844.181 253.011 Q840.398 252.712 829.597 252.712 Q818.697 252.712 814.914 253.011 L814.914 249.875 L817.403 249.875 Q822.928 249.875 824.172 248.979 Q825.416 248.034 825.416 245.047 L825.416 186.565 L825.317 186.565 L800.281 251.07 Q799.584 253.011 798.44 253.011 Q797.195 253.011 796.399 250.771 L771.811 187.361 L771.712 187.361 L771.712 242.31 Q771.712 243.853 771.911 244.799 Q772.11 245.695 772.956 247.088 Q773.852 248.432 776.191 249.179 Q778.531 249.875 782.214 249.875 L782.214 253.011 Q771.513 252.712 770.268 252.712 Q769.074 252.712 758.373 253.011 Z" fill="#000000" fill-rule="nonzero" fill-opacity="1" /><path clip-path="url(#clip290)" d="M860.59 252.812 L860.59 232.405 Q860.59 231.26 860.64 230.862 Q860.689 230.464 860.988 230.165 Q861.287 229.867 861.884 229.867 Q863.029 229.867 863.128 230.912 Q863.427 241.016 869.449 246.59 Q875.372 252.115 885.526 252.115 Q891.648 252.115 895.431 247.735 Q899.214 243.305 899.214 237.532 Q899.214 232.007 896.028 228.125 Q894.684 226.383 892.992 225.288 Q891.349 224.143 890.304 223.795 Q889.309 223.446 887.368 222.948 Q874.725 219.912 873.929 219.564 Q867.907 217.523 864.223 212.397 Q860.59 207.22 860.59 200.899 Q860.59 192.736 866.314 186.963 Q872.087 181.139 880.449 181.139 Q884.63 181.139 888.114 182.483 Q891.648 183.777 893.092 184.972 Q894.535 186.166 896.775 188.307 L900.309 182.483 Q901.105 181.139 901.852 181.139 Q902.648 181.139 902.797 181.637 Q902.996 182.085 902.996 183.578 L902.996 204.085 Q902.996 205.229 902.947 205.627 Q902.897 206.026 902.548 206.275 Q902.25 206.523 901.652 206.523 Q900.657 206.523 900.408 205.329 Q897.571 184.026 880.549 184.026 Q874.725 184.026 870.893 187.958 Q867.11 191.84 867.11 197.365 Q867.11 201.845 869.897 205.528 Q872.685 209.161 877.413 210.306 L890.454 213.442 Q896.974 214.985 901.354 220.758 Q905.734 226.532 905.734 234.048 Q905.734 242.708 900.06 248.979 Q894.435 255.251 885.626 255.251 Q879.304 255.251 874.427 253.16 Q869.549 251.07 866.911 248.133 Q864.87 251.518 863.527 253.409 L863.228 253.907 Q862.432 255.251 861.685 255.251 Q860.889 255.251 860.739 254.753 Q860.59 254.255 860.59 252.812 Z" fill="#000000" fill-rule="nonzero" fill-opacity="1" /><path clip-path="url(#clip290)" d="M922.707 253.011 L922.707 249.875 L925.146 249.875 Q930.671 249.875 931.915 248.979 Q933.209 248.034 933.209 245.047 L933.209 191.641 Q933.209 188.705 931.915 187.809 Q930.621 186.863 925.146 186.863 L922.707 186.863 L922.707 183.678 L980.095 183.678 L982.932 206.623 L980.394 206.623 Q979.697 200.8 978.751 197.465 Q977.856 194.08 975.616 191.492 Q973.426 188.904 969.792 187.908 Q966.209 186.863 960.385 186.863 L947.245 186.863 Q943.761 186.863 943.015 187.61 Q942.268 188.307 942.268 190.945 L942.268 215.383 L951.426 215.383 Q958.444 215.383 960.435 212.944 Q962.426 210.505 962.426 203.487 L965.014 203.487 L965.014 230.464 L962.426 230.464 Q962.426 223.546 960.435 221.057 Q958.444 218.568 951.426 218.568 L942.268 218.568 L942.268 245.794 Q942.268 248.432 943.015 249.179 Q943.811 249.875 947.245 249.875 L960.833 249.875 Q965.213 249.875 968.399 249.328 Q971.634 248.731 973.874 247.337 Q976.113 245.894 977.607 244.251 Q979.15 242.609 980.195 239.672 Q981.29 236.686 981.887 233.948 Q982.534 231.211 983.231 226.731 L985.769 226.731 L981.489 253.011 L922.707 253.011 Z" fill="#000000" fill-rule="nonzero" fill-opacity="1" /><path clip-path="url(#clip290)" d="M1018.26 275.359 L1018.26 179.696 Q1018.26 176.66 1020.3 176.66 Q1022.34 176.66 1022.34 179.845 L1022.34 275.11 Q1022.34 278.395 1020.3 278.395 Q1018.26 278.395 1018.26 275.359 M1029.5 275.359 L1029.5 180.442 Q1029.5 176.66 1031.54 176.66 Q1033.59 176.66 1033.59 179.845 L1033.59 275.11 Q1033.59 278.395 1031.54 278.395 Q1029.5 278.395 1029.5 275.359 Z" fill="#000000" fill-rule="nonzero" fill-opacity="1" /><path clip-path="url(#clip290)" d="M1117.14 171.33 L1116.27 172.759 Q1110.87 170.424 1104.14 166.696 Q1097.42 170.424 1092.02 172.759 L1091.18 171.33 Q1097.07 166.209 1104.14 162.271 Q1111.28 166.243 1117.14 171.33 Z" fill="#000000" fill-rule="nonzero" fill-opacity="1" /><path clip-path="url(#clip290)" d="M1139.28 184.524 Q1139.28 185.42 1138.93 185.917 Q1138.64 186.365 1138.29 186.465 Q1137.94 186.515 1137.04 186.565 Q1129.92 186.913 1124.1 191.741 Q1122.66 192.985 1119.02 196.867 Q1115.44 200.75 1110.66 205.926 Q1105.93 211.102 1103.2 213.89 L1116.34 245.346 Q1116.88 246.59 1117.08 247.138 Q1117.33 247.636 1117.83 248.283 Q1118.38 248.93 1118.78 249.129 Q1119.22 249.328 1120.17 249.577 Q1121.16 249.776 1122.16 249.826 Q1123.21 249.826 1125.1 249.875 Q1125.69 249.875 1125.94 249.925 Q1126.24 249.925 1126.59 250.224 Q1126.94 250.473 1126.94 251.07 Q1126.94 251.966 1126.54 252.464 Q1126.19 252.912 1125.84 252.961 Q1125.54 253.011 1125 253.011 Q1123.7 253.011 1119.32 252.862 Q1114.94 252.712 1113.7 252.712 L1100.86 253.011 Q1099.31 253.011 1099.31 251.767 Q1099.31 251.12 1099.41 250.771 Q1099.56 250.373 1099.91 250.224 Q1100.26 250.025 1100.51 249.975 Q1100.76 249.925 1101.36 249.875 Q1103.2 249.676 1104.59 249.129 Q1106.03 248.532 1106.63 247.934 Q1107.28 247.337 1107.28 246.889 L1106.78 245.446 L1096.48 221.107 L1087.27 231.111 L1076.87 242.111 Q1074.13 245.047 1074.13 246.69 Q1074.13 249.427 1078.21 249.875 Q1079.46 249.975 1079.46 250.97 Q1079.46 251.916 1079.06 252.414 Q1078.71 252.862 1078.36 252.961 Q1078.06 253.011 1077.61 253.011 Q1075.77 253.011 1071.89 252.862 Q1068.06 252.712 1066.17 252.712 Q1064.57 252.712 1061.34 252.862 Q1058.1 253.011 1056.61 253.011 Q1056.01 253.011 1055.66 252.712 Q1055.32 252.414 1055.32 252.115 L1055.27 251.866 Q1055.27 251.169 1055.37 250.771 Q1055.51 250.373 1055.91 250.174 Q1056.36 249.975 1056.56 249.975 Q1056.76 249.925 1057.51 249.875 Q1061.74 249.627 1065.32 247.984 Q1068.95 246.342 1072.49 242.509 Q1072.79 242.26 1073.13 241.962 Q1073.53 241.663 1073.83 241.414 L1095.33 218.27 L1083.29 189.8 Q1082.74 188.506 1082.24 187.958 Q1081.74 187.361 1080.2 186.963 Q1078.66 186.565 1075.67 186.565 Q1074.83 186.565 1074.43 186.515 Q1074.03 186.465 1073.68 186.216 Q1073.33 185.967 1073.33 185.42 Q1073.33 184.474 1073.68 184.026 Q1074.08 183.528 1074.38 183.479 Q1074.73 183.379 1075.17 183.379 Q1076.42 183.379 1080.85 183.528 Q1085.28 183.678 1086.57 183.678 Q1088.71 183.678 1092.99 183.528 Q1097.32 183.379 1099.41 183.379 Q1100.96 183.379 1100.96 184.623 Q1100.96 185.42 1100.61 185.868 Q1100.26 186.316 1099.91 186.415 Q1099.56 186.515 1098.92 186.565 Q1096.98 186.764 1095.48 187.411 Q1094.04 188.008 1093.44 188.605 Q1092.89 189.153 1092.89 189.501 L1093.39 190.845 L1101.95 211.102 L1118.48 193.383 Q1120.42 191.193 1120.42 189.7 Q1120.42 187.012 1116.34 186.565 Q1115.09 186.365 1115.09 185.42 Q1115.09 184.474 1115.49 184.026 Q1115.89 183.528 1116.19 183.479 Q1116.54 183.379 1117.03 183.379 Q1118.88 183.379 1122.66 183.528 Q1126.49 183.678 1128.38 183.678 Q1129.97 183.678 1133.21 183.528 Q1136.45 183.379 1137.94 183.379 Q1138.54 183.379 1138.88 183.678 Q1139.23 183.927 1139.23 184.225 L1139.28 184.524 Z" fill="#000000" fill-rule="nonzero" fill-opacity="1" /><path clip-path="url(#clip290)" d="M1188.2 241.976 Q1188.2 242.882 1187.81 244.624 Q1186.59 249.537 1182.03 252.916 Q1181.26 253.544 1179.9 254.345 Q1181.54 255.425 1182.97 257.411 Q1185.1 260.686 1185.1 265.111 Q1185.1 267.166 1184.54 269.675 Q1182.97 275.493 1177.47 279.674 Q1171.93 283.751 1165.34 283.751 Q1161.79 283.751 1159.35 281.869 Q1156.94 279.953 1156 276.748 L1151.16 296.293 Q1151.06 296.781 1150.43 296.781 L1150.08 296.781 Q1149.35 296.781 1149.35 295.945 L1160.36 252.045 Q1161.09 249.084 1162.27 246.297 Q1163.46 243.509 1165.1 241.001 Q1166.77 238.492 1168.69 236.646 Q1170.6 234.764 1172.97 233.684 Q1175.34 232.569 1177.85 232.569 Q1183.11 232.569 1186.11 236.158 Q1188.2 238.701 1188.2 241.976 M1184.19 240.722 Q1184.19 238.562 1183.32 237.064 Q1181.54 234.207 1177.78 234.207 Q1175.51 234.207 1173.35 235.252 Q1171.23 236.262 1169.52 238.004 Q1167.81 239.747 1166.35 242.116 Q1164.89 244.485 1163.81 247.063 Q1162.76 249.606 1162.07 252.394 L1157.78 269.675 Q1157.36 271.521 1157.36 273.159 Q1157.36 277.061 1159.52 279.604 Q1161.68 282.148 1165.41 282.148 Q1170.36 282.148 1174.61 278.455 Q1178.3 275.145 1179.83 269.326 Q1180.71 265.668 1180.71 263.125 Q1180.71 260.337 1179.7 258.177 Q1178.96 256.435 1177.54 255.39 Q1174.89 256.331 1172.2 256.331 Q1170.92 256.331 1170.22 256.296 Q1169.56 256.261 1168.58 256.122 Q1167.64 255.982 1167.19 255.599 Q1166.77 255.216 1166.77 254.624 Q1166.77 254.275 1166.84 254.136 Q1166.98 253.578 1167.43 253.195 Q1167.88 252.812 1168.41 252.638 Q1168.93 252.429 1169.8 252.324 Q1170.71 252.22 1171.3 252.22 Q1171.89 252.185 1172.9 252.185 Q1175.27 252.185 1177.67 253.125 Q1178.58 252.638 1179.56 251.767 Q1182.66 248.875 1183.7 244.276 Q1184.19 242.569 1184.19 240.722 M1175.41 254.205 Q1173.95 253.822 1172.83 253.822 Q1168.76 253.822 1168.55 254.484 Q1168.55 254.554 1168.69 254.624 Q1168.83 254.658 1169.14 254.693 Q1169.49 254.693 1169.77 254.728 Q1170.08 254.763 1170.6 254.763 Q1171.12 254.763 1171.4 254.763 Q1171.72 254.763 1172.27 254.763 Q1173.67 254.763 1175.41 254.205 Z" fill="#000000" fill-rule="nonzero" fill-opacity="1" /><path clip-path="url(#clip290)" d="M1295.79 226.084 Q1296.39 226.681 1296.39 227.527 Q1296.39 228.374 1295.79 228.971 Q1295.19 229.568 1294.35 229.568 L1230.54 229.568 Q1229.69 229.568 1229.1 228.971 Q1228.5 228.374 1228.5 227.527 Q1228.5 226.681 1229.1 226.084 Q1229.69 225.487 1230.54 225.487 L1294.35 225.487 Q1295.19 225.487 1295.79 226.084 Z" fill="#000000" fill-rule="nonzero" fill-opacity="1" /><path clip-path="url(#clip290)" d="M1419.32 184.524 Q1419.32 185.42 1418.97 185.917 Q1418.67 186.365 1418.32 186.465 Q1417.97 186.515 1417.08 186.565 Q1409.96 186.913 1404.14 191.741 Q1402.69 192.985 1399.06 196.867 Q1395.48 200.75 1390.7 205.926 Q1385.97 211.102 1383.23 213.89 L1396.37 245.346 Q1396.92 246.59 1397.12 247.138 Q1397.37 247.636 1397.87 248.283 Q1398.41 248.93 1398.81 249.129 Q1399.26 249.328 1400.21 249.577 Q1401.2 249.776 1402.2 249.826 Q1403.24 249.826 1405.13 249.875 Q1405.73 249.875 1405.98 249.925 Q1406.28 249.925 1406.63 250.224 Q1406.97 250.473 1406.97 251.07 Q1406.97 251.966 1406.58 252.464 Q1406.23 252.912 1405.88 252.961 Q1405.58 253.011 1405.03 253.011 Q1403.74 253.011 1399.36 252.862 Q1394.98 252.712 1393.74 252.712 L1380.89 253.011 Q1379.35 253.011 1379.35 251.767 Q1379.35 251.12 1379.45 250.771 Q1379.6 250.373 1379.95 250.224 Q1380.3 250.025 1380.55 249.975 Q1380.79 249.925 1381.39 249.875 Q1383.23 249.676 1384.63 249.129 Q1386.07 248.532 1386.67 247.934 Q1387.31 247.337 1387.31 246.889 L1386.82 245.446 L1376.51 221.107 L1367.31 231.111 L1356.9 242.111 Q1354.17 245.047 1354.17 246.69 Q1354.17 249.427 1358.25 249.875 Q1359.49 249.975 1359.49 250.97 Q1359.49 251.916 1359.09 252.414 Q1358.75 252.862 1358.4 252.961 Q1358.1 253.011 1357.65 253.011 Q1355.81 253.011 1351.93 252.862 Q1348.09 252.712 1346.2 252.712 Q1344.61 252.712 1341.37 252.862 Q1338.14 253.011 1336.65 253.011 Q1336.05 253.011 1335.7 252.712 Q1335.35 252.414 1335.35 252.115 L1335.3 251.866 Q1335.3 251.169 1335.4 250.771 Q1335.55 250.373 1335.95 250.174 Q1336.4 249.975 1336.6 249.975 Q1336.8 249.925 1337.54 249.875 Q1341.77 249.627 1345.36 247.984 Q1348.99 246.342 1352.52 242.509 Q1352.82 242.26 1353.17 241.962 Q1353.57 241.663 1353.87 241.414 L1375.37 218.27 L1363.32 189.8 Q1362.78 188.506 1362.28 187.958 Q1361.78 187.361 1360.24 186.963 Q1358.7 186.565 1355.71 186.565 Q1354.86 186.565 1354.46 186.515 Q1354.07 186.465 1353.72 186.216 Q1353.37 185.967 1353.37 185.42 Q1353.37 184.474 1353.72 184.026 Q1354.12 183.528 1354.41 183.479 Q1354.76 183.379 1355.21 183.379 Q1356.46 183.379 1360.89 183.528 Q1365.32 183.678 1366.61 183.678 Q1368.75 183.678 1373.03 183.528 Q1377.36 183.379 1379.45 183.379 Q1380.99 183.379 1380.99 184.623 Q1380.99 185.42 1380.65 185.868 Q1380.3 186.316 1379.95 186.415 Q1379.6 186.515 1378.95 186.565 Q1377.01 186.764 1375.52 187.411 Q1374.08 188.008 1373.48 188.605 Q1372.93 189.153 1372.93 189.501 L1373.43 190.845 L1381.99 211.102 L1398.51 193.383 Q1400.45 191.193 1400.45 189.7 Q1400.45 187.012 1396.37 186.565 Q1395.13 186.365 1395.13 185.42 Q1395.13 184.474 1395.53 184.026 Q1395.93 183.528 1396.22 183.479 Q1396.57 183.379 1397.07 183.379 Q1398.91 183.379 1402.69 183.528 Q1406.53 183.678 1408.42 183.678 Q1410.01 183.678 1413.25 183.528 Q1416.48 183.379 1417.97 183.379 Q1418.57 183.379 1418.92 183.678 Q1419.27 183.927 1419.27 184.225 L1419.32 184.524 Z" fill="#000000" fill-rule="nonzero" fill-opacity="1" /><path clip-path="url(#clip290)" d="M1445.79 275.359 L1445.79 179.696 Q1445.79 176.66 1447.83 176.66 Q1449.87 176.66 1449.87 179.845 L1449.87 275.11 Q1449.87 278.395 1447.83 278.395 Q1445.79 278.395 1445.79 275.359 M1457.03 275.359 L1457.03 180.442 Q1457.03 176.66 1459.08 176.66 Q1461.12 176.66 1461.12 179.845 L1461.12 275.11 Q1461.12 278.395 1459.08 278.395 Q1457.03 278.395 1457.03 275.359 Z" fill="#000000" fill-rule="nonzero" fill-opacity="1" /><path clip-path="url(#clip290)" d="M1471.84 306.994 L1471.84 304.799 L1473.55 304.799 Q1477.41 304.799 1478.28 304.172 Q1479.19 303.51 1479.19 301.419 L1479.19 264.035 Q1479.19 261.979 1478.28 261.352 Q1477.38 260.69 1473.55 260.69 L1471.84 260.69 L1471.84 258.461 L1511 258.461 L1512.99 274.522 L1511.21 274.522 Q1510.72 270.446 1510.06 268.146 Q1509.43 265.812 1507.97 263.965 Q1506.5 262.119 1504.03 261.422 Q1501.59 260.69 1497.59 260.69 L1489.01 260.69 Q1486.58 260.69 1486.05 261.213 Q1485.53 261.701 1485.53 263.547 L1485.53 281.595 L1491.66 281.595 Q1496.51 281.595 1497.86 279.853 Q1499.22 278.111 1499.22 273.233 L1501 273.233 L1501 292.152 L1499.22 292.152 Q1499.22 287.239 1497.86 285.532 Q1496.51 283.79 1491.66 283.79 L1485.53 283.79 L1485.53 301.35 Q1485.53 302.848 1485.77 303.44 Q1486.02 303.998 1487.52 304.416 Q1489.01 304.799 1492.29 304.799 L1494.66 304.799 L1494.66 306.994 Q1492.08 306.785 1482.67 306.785 Q1474.35 306.785 1471.84 306.994 Z" fill="#000000" fill-rule="nonzero" fill-opacity="1" /><path clip-path="url(#clip290)" d="M1528.78 277.051 Q1528.78 276.554 1529.18 275.459 L1565.17 179.298 Q1565.17 179.198 1565.42 178.651 Q1565.66 178.103 1565.81 177.755 Q1565.96 177.357 1566.26 177.058 Q1566.61 176.759 1567.01 176.759 Q1568 176.759 1568 178.004 Q1568 178.103 1567.71 179.298 L1531.62 275.558 Q1531.02 277.3 1530.62 277.798 Q1530.28 278.296 1529.68 278.296 Q1528.78 278.296 1528.78 277.051 Z" fill="#000000" fill-rule="nonzero" fill-opacity="1" /><path clip-path="url(#clip290)" d="M1579.26 275.359 L1579.26 179.696 Q1579.26 176.66 1581.3 176.66 Q1583.34 176.66 1583.34 179.845 L1583.34 275.11 Q1583.34 278.395 1581.3 278.395 Q1579.26 278.395 1579.26 275.359 M1590.51 275.359 L1590.51 180.442 Q1590.51 176.66 1592.55 176.66 Q1594.59 176.66 1594.59 179.845 L1594.59 275.11 Q1594.59 278.395 1592.55 278.395 Q1590.51 278.395 1590.51 275.359 Z" fill="#000000" fill-rule="nonzero" fill-opacity="1" /><path clip-path="url(#clip290)" d="M1704.37 184.524 Q1704.37 185.42 1704.02 185.917 Q1703.72 186.365 1703.37 186.465 Q1703.02 186.515 1702.13 186.565 Q1695.01 186.913 1689.19 191.741 Q1687.74 192.985 1684.11 196.867 Q1680.53 200.75 1675.75 205.926 Q1671.02 211.102 1668.28 213.89 L1681.42 245.346 Q1681.97 246.59 1682.17 247.138 Q1682.42 247.636 1682.92 248.283 Q1683.46 248.93 1683.86 249.129 Q1684.31 249.328 1685.26 249.577 Q1686.25 249.776 1687.25 249.826 Q1688.29 249.826 1690.18 249.875 Q1690.78 249.875 1691.03 249.925 Q1691.33 249.925 1691.68 250.224 Q1692.02 250.473 1692.02 251.07 Q1692.02 251.966 1691.63 252.464 Q1691.28 252.912 1690.93 252.961 Q1690.63 253.011 1690.08 253.011 Q1688.79 253.011 1684.41 252.862 Q1680.03 252.712 1678.79 252.712 L1665.94 253.011 Q1664.4 253.011 1664.4 251.767 Q1664.4 251.12 1664.5 250.771 Q1664.65 250.373 1665 250.224 Q1665.35 250.025 1665.6 249.975 Q1665.84 249.925 1666.44 249.875 Q1668.28 249.676 1669.68 249.129 Q1671.12 248.532 1671.72 247.934 Q1672.36 247.337 1672.36 246.889 L1671.87 245.446 L1661.56 221.107 L1652.36 231.111 L1641.95 242.111 Q1639.22 245.047 1639.22 246.69 Q1639.22 249.427 1643.3 249.875 Q1644.54 249.975 1644.54 250.97 Q1644.54 251.916 1644.14 252.414 Q1643.79 252.862 1643.45 252.961 Q1643.15 253.011 1642.7 253.011 Q1640.86 253.011 1636.98 252.862 Q1633.14 252.712 1631.25 252.712 Q1629.66 252.712 1626.42 252.862 Q1623.19 253.011 1621.7 253.011 Q1621.1 253.011 1620.75 252.712 Q1620.4 252.414 1620.4 252.115 L1620.35 251.866 Q1620.35 251.169 1620.45 250.771 Q1620.6 250.373 1621 250.174 Q1621.45 249.975 1621.65 249.975 Q1621.85 249.925 1622.59 249.875 Q1626.82 249.627 1630.41 247.984 Q1634.04 246.342 1637.57 242.509 Q1637.87 242.26 1638.22 241.962 Q1638.62 241.663 1638.92 241.414 L1660.42 218.27 L1648.37 189.8 Q1647.83 188.506 1647.33 187.958 Q1646.83 187.361 1645.29 186.963 Q1643.75 186.565 1640.76 186.565 Q1639.91 186.565 1639.51 186.515 Q1639.12 186.465 1638.77 186.216 Q1638.42 185.967 1638.42 185.42 Q1638.42 184.474 1638.77 184.026 Q1639.17 183.528 1639.46 183.479 Q1639.81 183.379 1640.26 183.379 Q1641.51 183.379 1645.94 183.528 Q1650.36 183.678 1651.66 183.678 Q1653.8 183.678 1658.08 183.528 Q1662.41 183.379 1664.5 183.379 Q1666.04 183.379 1666.04 184.623 Q1666.04 185.42 1665.69 185.868 Q1665.35 186.316 1665 186.415 Q1664.65 186.515 1664 186.565 Q1662.06 186.764 1660.57 187.411 Q1659.12 188.008 1658.53 188.605 Q1657.98 189.153 1657.98 189.501 L1658.48 190.845 L1667.04 211.102 L1683.56 193.383 Q1685.5 191.193 1685.5 189.7 Q1685.5 187.012 1681.42 186.565 Q1680.18 186.365 1680.18 185.42 Q1680.18 184.474 1680.58 184.026 Q1680.98 183.528 1681.27 183.479 Q1681.62 183.379 1682.12 183.379 Q1683.96 183.379 1687.74 183.528 Q1691.58 183.678 1693.47 183.678 Q1695.06 183.678 1698.3 183.528 Q1701.53 183.379 1703.02 183.379 Q1703.62 183.379 1703.97 183.678 Q1704.32 183.927 1704.32 184.225 L1704.37 184.524 Z" fill="#000000" fill-rule="nonzero" fill-opacity="1" /><path clip-path="url(#clip290)" d="M1730.84 275.359 L1730.84 179.696 Q1730.84 176.66 1732.88 176.66 Q1734.92 176.66 1734.92 179.845 L1734.92 275.11 Q1734.92 278.395 1732.88 278.395 Q1730.84 278.395 1730.84 275.359 M1742.08 275.359 L1742.08 180.442 Q1742.08 176.66 1744.13 176.66 Q1746.17 176.66 1746.17 179.845 L1746.17 275.11 Q1746.17 278.395 1744.13 278.395 Q1742.08 278.395 1742.08 275.359 Z" fill="#000000" fill-rule="nonzero" fill-opacity="1" /><path clip-path="url(#clip290)" d="M1756.89 306.994 L1756.89 304.799 L1758.6 304.799 Q1762.46 304.799 1763.33 304.172 Q1764.24 303.51 1764.24 301.419 L1764.24 264.035 Q1764.24 261.979 1763.33 261.352 Q1762.43 260.69 1758.6 260.69 L1756.89 260.69 L1756.89 258.461 L1796.05 258.461 L1798.04 274.522 L1796.26 274.522 Q1795.77 270.446 1795.11 268.146 Q1794.48 265.812 1793.02 263.965 Q1791.55 262.119 1789.08 261.422 Q1786.64 260.69 1782.64 260.69 L1774.06 260.69 Q1771.63 260.69 1771.1 261.213 Q1770.58 261.701 1770.58 263.547 L1770.58 281.595 L1776.71 281.595 Q1781.56 281.595 1782.91 279.853 Q1784.27 278.111 1784.27 273.233 L1786.05 273.233 L1786.05 292.152 L1784.27 292.152 Q1784.27 287.239 1782.91 285.532 Q1781.56 283.79 1776.71 283.79 L1770.58 283.79 L1770.58 301.35 Q1770.58 302.848 1770.82 303.44 Q1771.07 303.998 1772.57 304.416 Q1774.06 304.799 1777.34 304.799 L1779.71 304.799 L1779.71 306.994 Q1777.13 306.785 1767.72 306.785 Q1759.4 306.785 1756.89 306.994 Z" fill="#000000" fill-rule="nonzero" fill-opacity="1" /><path clip-path="url(#clip290)" d="M1851.32 223.745 Q1852.91 225.337 1852.91 227.527 Q1852.91 229.717 1851.32 231.36 Q1849.73 232.953 1847.54 232.953 Q1845.35 232.953 1843.7 231.36 Q1842.11 229.717 1842.11 227.527 Q1842.11 225.337 1843.7 223.745 Q1845.35 222.102 1847.54 222.102 Q1849.73 222.102 1851.32 223.745 Z" fill="#000000" fill-rule="nonzero" fill-opacity="1" /><path clip-path="url(#clip290)" d="M1898.44 194.827 L1898.44 191.641 Q1910.68 191.641 1917 185.121 Q1918.74 185.121 1919.04 185.519 Q1919.34 185.917 1919.34 187.759 L1919.34 244.948 Q1919.34 247.984 1920.84 248.93 Q1922.33 249.875 1928.85 249.875 L1932.08 249.875 L1932.08 253.011 Q1928.5 252.712 1915.56 252.712 Q1902.62 252.712 1899.08 253.011 L1899.08 249.875 L1902.32 249.875 Q1908.74 249.875 1910.28 248.979 Q1911.83 248.034 1911.83 244.948 L1911.83 192.139 Q1906.5 194.827 1898.44 194.827 Z" fill="#000000" fill-rule="nonzero" fill-opacity="1" /><path clip-path="url(#clip290)" d="M1937.12 220.41 Q1937.12 205.428 1940.9 197.266 Q1946.18 185.121 1958.62 185.121 Q1961.26 185.121 1963.99 185.868 Q1966.78 186.565 1970.27 189.302 Q1973.8 192.04 1975.94 196.519 Q1980.02 205.18 1980.02 220.41 Q1980.02 235.292 1976.24 243.405 Q1970.71 255.251 1958.52 255.251 Q1953.94 255.251 1949.26 252.912 Q1944.63 250.572 1941.7 244.948 Q1937.12 236.536 1937.12 220.41 M1945.58 219.166 Q1945.58 234.545 1946.67 240.667 Q1947.92 247.287 1951.3 250.174 Q1954.74 253.011 1958.52 253.011 Q1962.6 253.011 1965.99 249.975 Q1969.42 246.889 1970.46 240.269 Q1971.61 233.749 1971.56 219.166 Q1971.56 204.98 1970.56 199.306 Q1969.22 192.687 1965.64 190.049 Q1962.1 187.361 1958.52 187.361 Q1957.18 187.361 1955.73 187.759 Q1954.34 188.157 1952.3 189.302 Q1950.26 190.447 1948.66 193.284 Q1947.12 196.121 1946.37 200.401 Q1945.58 205.926 1945.58 219.166 Z" fill="#000000" fill-rule="nonzero" fill-opacity="1" /><path clip-path="url(#clip290)" d="M1988 220.41 Q1988 205.428 1991.78 197.266 Q1997.06 185.121 2009.5 185.121 Q2012.14 185.121 2014.88 185.868 Q2017.67 186.565 2021.15 189.302 Q2024.68 192.04 2026.82 196.519 Q2030.91 205.18 2030.91 220.41 Q2030.91 235.292 2027.12 243.405 Q2021.6 255.251 2009.4 255.251 Q2004.82 255.251 2000.15 252.912 Q1995.52 250.572 1992.58 244.948 Q1988 236.536 1988 220.41 M1996.46 219.166 Q1996.46 234.545 1997.56 240.667 Q1998.8 247.287 2002.19 250.174 Q2005.62 253.011 2009.4 253.011 Q2013.49 253.011 2016.87 249.975 Q2020.3 246.889 2021.35 240.269 Q2022.49 233.749 2022.44 219.166 Q2022.44 204.98 2021.45 199.306 Q2020.11 192.687 2016.52 190.049 Q2012.99 187.361 2009.4 187.361 Q2008.06 187.361 2006.62 187.759 Q2005.22 188.157 2003.18 189.302 Q2001.14 190.447 1999.55 193.284 Q1998.01 196.121 1997.26 200.401 Q1996.46 205.926 1996.46 219.166 Z" fill="#000000" fill-rule="nonzero" fill-opacity="1" /><path clip-path="url(#clip290)" d="M2038.89 197.067 Q2038.89 188.307 2043.37 182.433 Q2047.85 176.56 2053.87 176.56 Q2057.55 176.56 2061.18 179.845 Q2069.45 187.709 2080.25 187.66 Q2092.49 187.66 2099.61 178.004 Q2100.85 176.56 2101.75 176.56 Q2102.55 176.56 2103.14 177.207 Q2103.79 177.805 2103.79 178.601 Q2103.79 179.198 2102.99 180.442 L2051.43 257.192 Q2050.28 258.735 2049.39 258.735 Q2048.59 258.735 2047.94 258.088 Q2047.35 257.491 2047.35 256.694 Q2047.35 255.997 2048.24 254.654 L2094.03 186.465 L2093.93 186.365 Q2088.66 189.949 2080.35 189.899 Q2072.48 189.899 2064.97 185.619 Q2067.11 190.895 2067.11 197.166 Q2067.11 205.727 2063.27 211.7 Q2059.44 217.623 2053.87 217.623 Q2047.85 217.623 2043.37 211.849 Q2038.89 206.026 2038.89 197.067 M2045.9 188.755 Q2045.21 192.338 2045.21 197.166 Q2045.21 201.944 2045.9 205.528 Q2046.6 209.062 2047.6 210.903 Q2048.64 212.745 2050.04 213.84 Q2051.43 214.885 2052.28 215.134 Q2053.12 215.383 2053.97 215.383 Q2058.15 215.383 2061.33 210.207 Q2064.57 204.98 2064.57 197.067 Q2064.57 189.302 2061.33 184.076 Q2058.15 178.8 2053.97 178.8 Q2053.07 178.8 2052.18 179.049 Q2051.33 179.298 2049.99 180.393 Q2048.64 181.438 2047.6 183.28 Q2046.6 185.121 2045.9 188.755 M2084.03 238.129 Q2084.03 229.369 2088.51 223.496 Q2092.99 217.623 2099.01 217.623 Q2104.54 217.623 2108.37 223.595 Q2112.25 229.568 2112.25 238.229 Q2112.25 246.79 2108.42 252.762 Q2104.64 258.735 2099.01 258.735 Q2092.99 258.735 2088.51 252.912 Q2084.03 247.088 2084.03 238.129 M2091.05 229.817 Q2090.35 233.45 2090.35 238.229 Q2090.35 243.007 2091.05 246.59 Q2091.79 250.174 2092.79 252.016 Q2093.84 253.807 2095.18 254.853 Q2096.57 255.948 2097.42 256.197 Q2098.31 256.495 2099.11 256.495 Q2103.29 256.495 2106.48 251.319 Q2109.71 246.093 2109.71 238.129 Q2109.71 230.365 2106.48 225.138 Q2103.29 219.862 2099.11 219.862 Q2098.22 219.862 2097.32 220.161 Q2096.47 220.41 2095.13 221.505 Q2093.84 222.55 2092.79 224.392 Q2091.79 226.184 2091.05 229.817 Z" fill="#000000" fill-rule="nonzero" fill-opacity="1" /><path clip-path="url(#clip290)" d="M508.904 328.332 L458.131 379.105 L508.904 429.878 L559.677 379.105 L508.904 328.332 Z" fill="#ff0000" fill-rule="evenodd" fill-opacity="1" stroke="none"/>
<path clip-path="url(#clip290)" d="M597.764 397.233 L597.764 394.098 Q601.448 394.098 603.787 393.401 Q606.126 392.654 606.972 391.31 Q607.819 389.917 608.018 389.021 Q608.266 388.075 608.266 386.532 L608.266 333.325 Q608.266 331.882 607.868 331.533 Q607.52 331.185 605.778 330.986 Q602.742 330.787 600.701 330.787 L597.764 330.787 L597.764 327.601 L615.085 327.601 Q616.529 327.601 616.927 327.8 Q617.325 327.999 618.022 328.945 L654.008 381.854 L654.008 338.302 Q654.008 336.759 653.808 335.864 Q653.609 334.968 652.713 333.574 Q651.867 332.18 649.528 331.484 Q647.189 330.787 643.506 330.787 L643.506 327.601 Q654.207 327.9 655.401 327.9 Q656.646 327.9 667.347 327.601 L667.347 330.787 Q663.663 330.787 661.324 331.484 Q658.985 332.18 658.139 333.574 Q657.293 334.968 657.044 335.913 Q656.845 336.809 656.845 338.302 L656.845 394.595 Q656.845 396.238 656.646 396.736 Q656.446 397.233 655.451 397.233 Q654.754 397.233 653.709 395.889 L612.099 334.769 Q611.701 334.171 611.104 333.524 L611.104 386.532 Q611.104 388.075 611.303 389.021 Q611.502 389.917 612.348 391.31 Q613.244 392.654 615.583 393.401 Q617.922 394.098 621.606 394.098 L621.606 397.233 Q610.904 396.935 609.66 396.935 Q608.466 396.935 597.764 397.233 Z" fill="#000000" fill-rule="nonzero" fill-opacity="1" /><path clip-path="url(#clip290)" d="M684.495 397.233 L684.495 394.098 L686.934 394.098 Q692.459 394.098 693.703 393.202 Q694.997 392.256 694.997 389.27 L694.997 335.565 Q694.997 332.628 693.703 331.732 Q692.409 330.787 686.934 330.787 L684.495 330.787 L684.495 327.601 L716.499 327.601 Q727.598 327.601 735.313 333.076 Q743.078 338.501 743.078 345.967 Q743.078 351.691 738.051 356.171 Q733.024 360.65 725.259 362.591 Q735.363 366.076 737.702 374.388 L738.996 382.55 Q739.395 385.487 739.643 386.98 Q739.942 388.473 740.39 390.514 Q740.838 392.555 741.286 393.55 Q741.784 394.496 742.48 395.541 Q743.177 396.536 744.073 396.885 Q745.019 397.233 746.263 397.233 Q748.603 397.233 750.593 395.143 Q752.584 393.052 752.983 388.175 Q753.182 386.532 754.227 386.532 Q755.521 386.532 755.521 388.175 Q755.521 389.618 755.123 391.31 Q754.725 392.953 753.729 394.894 Q752.783 396.835 750.693 398.129 Q748.603 399.473 745.865 399.473 Q737.901 399.473 733.024 395.193 Q730.983 393.351 730.037 390.962 Q729.141 388.573 728.992 386.681 Q728.843 384.79 728.843 380.609 Q728.843 374.686 728.196 372.098 Q727.598 369.51 724.96 366.971 Q721.377 363.487 715.454 363.487 L703.757 363.487 L703.757 389.27 Q703.757 392.206 705.002 393.152 Q706.296 394.098 711.82 394.098 L714.259 394.098 L714.259 397.233 Q710.576 396.935 699.377 396.935 Q688.178 396.935 684.495 397.233 M703.757 361.248 L715.056 361.248 Q720.481 361.248 724.114 359.954 Q727.798 358.61 729.54 356.221 Q731.282 353.831 731.929 351.442 Q732.576 349.004 732.576 345.967 Q732.576 342.384 731.779 339.696 Q730.983 337.008 729.241 335.416 Q727.499 333.823 725.757 332.827 Q724.015 331.782 721.327 331.384 Q718.639 330.986 716.798 330.886 Q714.956 330.787 712.02 330.787 Q707.042 330.787 705.997 330.986 Q704.852 331.085 704.404 331.633 Q703.956 332.18 703.857 332.827 Q703.757 333.425 703.757 334.868 L703.757 361.248 Z" fill="#000000" fill-rule="nonzero" fill-opacity="1" /><path clip-path="url(#clip290)" d="M758.373 397.233 L758.373 394.098 Q762.056 394.098 764.395 393.401 Q766.734 392.654 767.581 391.31 Q768.476 389.917 768.676 389.021 Q768.875 388.075 768.875 386.532 L768.875 335.565 Q768.875 332.628 767.581 331.732 Q766.336 330.787 760.811 330.787 L758.373 330.787 L758.373 327.601 L775.594 327.601 Q777.436 327.601 777.933 327.95 Q778.431 328.248 779.178 329.841 L801.277 386.93 L823.575 329.542 Q824.073 328.099 824.521 327.85 Q825.018 327.601 826.959 327.601 L844.181 327.601 L844.181 330.787 L841.742 330.787 Q836.217 330.787 834.923 331.732 Q833.679 332.628 833.679 335.565 L833.679 389.27 Q833.679 392.206 834.923 393.152 Q836.217 394.098 841.742 394.098 L844.181 394.098 L844.181 397.233 Q840.398 396.935 829.597 396.935 Q818.697 396.935 814.914 397.233 L814.914 394.098 L817.403 394.098 Q822.928 394.098 824.172 393.202 Q825.416 392.256 825.416 389.27 L825.416 330.787 L825.317 330.787 L800.281 395.292 Q799.584 397.233 798.44 397.233 Q797.195 397.233 796.399 394.994 L771.811 331.583 L771.712 331.583 L771.712 386.532 Q771.712 388.075 771.911 389.021 Q772.11 389.917 772.956 391.31 Q773.852 392.654 776.191 393.401 Q778.531 394.098 782.214 394.098 L782.214 397.233 Q771.513 396.935 770.268 396.935 Q769.074 396.935 758.373 397.233 Z" fill="#000000" fill-rule="nonzero" fill-opacity="1" /><path clip-path="url(#clip290)" d="M860.59 397.034 L860.59 376.627 Q860.59 375.483 860.64 375.084 Q860.689 374.686 860.988 374.388 Q861.287 374.089 861.884 374.089 Q863.029 374.089 863.128 375.134 Q863.427 385.238 869.449 390.813 Q875.372 396.337 885.526 396.337 Q891.648 396.337 895.431 391.957 Q899.214 387.528 899.214 381.754 Q899.214 376.229 896.028 372.347 Q894.684 370.605 892.992 369.51 Q891.349 368.365 890.304 368.017 Q889.309 367.668 887.368 367.171 Q874.725 364.134 873.929 363.786 Q867.907 361.745 864.223 356.619 Q860.59 351.442 860.59 345.121 Q860.59 336.959 866.314 331.185 Q872.087 325.362 880.449 325.362 Q884.63 325.362 888.114 326.705 Q891.648 327.999 893.092 329.194 Q894.535 330.389 896.775 332.529 L900.309 326.705 Q901.105 325.362 901.852 325.362 Q902.648 325.362 902.797 325.859 Q902.996 326.307 902.996 327.8 L902.996 348.307 Q902.996 349.451 902.947 349.85 Q902.897 350.248 902.548 350.497 Q902.25 350.746 901.652 350.746 Q900.657 350.746 900.408 349.551 Q897.571 328.248 880.549 328.248 Q874.725 328.248 870.893 332.18 Q867.11 336.063 867.11 341.587 Q867.11 346.067 869.897 349.75 Q872.685 353.384 877.413 354.528 L890.454 357.664 Q896.974 359.207 901.354 364.981 Q905.734 370.754 905.734 378.27 Q905.734 386.93 900.06 393.202 Q894.435 399.473 885.626 399.473 Q879.304 399.473 874.427 397.383 Q869.549 395.292 866.911 392.356 Q864.87 395.74 863.527 397.631 L863.228 398.129 Q862.432 399.473 861.685 399.473 Q860.889 399.473 860.739 398.975 Q860.59 398.478 860.59 397.034 Z" fill="#000000" fill-rule="nonzero" fill-opacity="1" /><path clip-path="url(#clip290)" d="M921.075 397.233 L921.075 394.098 L923.514 394.098 Q929.039 394.098 930.283 393.202 Q931.577 392.256 931.577 389.27 L931.577 335.565 Q931.577 332.628 930.283 331.732 Q928.989 330.787 923.514 330.787 L921.075 330.787 L921.075 327.601 L958.355 327.601 Q971.396 327.601 980.454 338.004 Q989.563 348.406 989.563 362.99 Q989.563 377.274 980.404 387.279 Q971.296 397.233 958.355 397.233 L921.075 397.233 M940.337 390.016 Q940.337 392.654 941.084 393.401 Q941.831 394.098 945.315 394.098 L955.618 394.098 Q962.337 394.098 966.866 391.36 Q971.396 388.573 973.735 385.387 Q979.359 377.722 979.359 362.99 Q979.359 347.51 974.083 340.244 Q967.264 330.787 955.518 330.787 L945.315 330.787 Q941.831 330.787 941.084 331.484 Q940.337 332.18 940.337 334.868 L940.337 390.016 Z" fill="#000000" fill-rule="nonzero" fill-opacity="1" /><path clip-path="url(#clip290)" d="M1025 419.581 L1025 323.918 Q1025 320.882 1027.04 320.882 Q1029.08 320.882 1029.08 324.067 L1029.08 419.332 Q1029.08 422.617 1027.04 422.617 Q1025 422.617 1025 419.581 M1036.25 419.581 L1036.25 324.665 Q1036.25 320.882 1038.29 320.882 Q1040.33 320.882 1040.33 324.067 L1040.33 419.332 Q1040.33 422.617 1038.29 422.617 Q1036.25 422.617 1036.25 419.581 Z" fill="#000000" fill-rule="nonzero" fill-opacity="1" /><path clip-path="url(#clip290)" d="M1123.88 315.552 L1123.01 316.981 Q1117.61 314.646 1110.89 310.918 Q1104.16 314.646 1098.76 316.981 L1097.93 315.552 Q1103.82 310.431 1110.89 306.494 Q1118.03 310.466 1123.88 315.552 Z" fill="#000000" fill-rule="nonzero" fill-opacity="1" /><path clip-path="url(#clip290)" d="M1146.03 328.746 Q1146.03 329.642 1145.68 330.14 Q1145.38 330.588 1145.03 330.687 Q1144.69 330.737 1143.79 330.787 Q1136.67 331.135 1130.85 335.963 Q1129.41 337.207 1125.77 341.09 Q1122.19 344.972 1117.41 350.148 Q1112.68 355.325 1109.94 358.112 L1123.08 389.568 Q1123.63 390.813 1123.83 391.36 Q1124.08 391.858 1124.58 392.505 Q1125.13 393.152 1125.52 393.351 Q1125.97 393.55 1126.92 393.799 Q1127.91 393.998 1128.91 394.048 Q1129.95 394.048 1131.84 394.098 Q1132.44 394.098 1132.69 394.147 Q1132.99 394.147 1133.34 394.446 Q1133.69 394.695 1133.69 395.292 Q1133.69 396.188 1133.29 396.686 Q1132.94 397.134 1132.59 397.184 Q1132.29 397.233 1131.75 397.233 Q1130.45 397.233 1126.07 397.084 Q1121.69 396.935 1120.45 396.935 L1107.61 397.233 Q1106.06 397.233 1106.06 395.989 Q1106.06 395.342 1106.16 394.994 Q1106.31 394.595 1106.66 394.446 Q1107.01 394.247 1107.26 394.197 Q1107.51 394.147 1108.1 394.098 Q1109.94 393.899 1111.34 393.351 Q1112.78 392.754 1113.38 392.156 Q1114.03 391.559 1114.03 391.111 L1113.53 389.668 L1103.23 365.329 L1094.02 375.333 L1083.62 386.333 Q1080.88 389.27 1080.88 390.912 Q1080.88 393.65 1084.96 394.098 Q1086.2 394.197 1086.2 395.193 Q1086.2 396.138 1085.81 396.636 Q1085.46 397.084 1085.11 397.184 Q1084.81 397.233 1084.36 397.233 Q1082.52 397.233 1078.64 397.084 Q1074.81 396.935 1072.91 396.935 Q1071.32 396.935 1068.09 397.084 Q1064.85 397.233 1063.36 397.233 Q1062.76 397.233 1062.41 396.935 Q1062.06 396.636 1062.06 396.337 L1062.01 396.089 Q1062.01 395.392 1062.11 394.994 Q1062.26 394.595 1062.66 394.396 Q1063.11 394.197 1063.31 394.197 Q1063.51 394.147 1064.25 394.098 Q1068.48 393.849 1072.07 392.206 Q1075.7 390.564 1079.24 386.731 Q1079.53 386.482 1079.88 386.184 Q1080.28 385.885 1080.58 385.636 L1102.08 362.492 L1090.04 334.022 Q1089.49 332.728 1088.99 332.18 Q1088.49 331.583 1086.95 331.185 Q1085.41 330.787 1082.42 330.787 Q1081.57 330.787 1081.18 330.737 Q1080.78 330.687 1080.43 330.438 Q1080.08 330.189 1080.08 329.642 Q1080.08 328.696 1080.43 328.248 Q1080.83 327.751 1081.13 327.701 Q1081.47 327.601 1081.92 327.601 Q1083.17 327.601 1087.6 327.751 Q1092.03 327.9 1093.32 327.9 Q1095.46 327.9 1099.74 327.751 Q1104.07 327.601 1106.16 327.601 Q1107.71 327.601 1107.71 328.846 Q1107.71 329.642 1107.36 330.09 Q1107.01 330.538 1106.66 330.637 Q1106.31 330.737 1105.66 330.787 Q1103.72 330.986 1102.23 331.633 Q1100.79 332.23 1100.19 332.827 Q1099.64 333.375 1099.64 333.723 L1100.14 335.067 L1108.7 355.325 L1125.23 337.606 Q1127.17 335.416 1127.17 333.922 Q1127.17 331.235 1123.08 330.787 Q1121.84 330.588 1121.84 329.642 Q1121.84 328.696 1122.24 328.248 Q1122.64 327.751 1122.94 327.701 Q1123.28 327.601 1123.78 327.601 Q1125.62 327.601 1129.41 327.751 Q1133.24 327.9 1135.13 327.9 Q1136.72 327.9 1139.96 327.751 Q1143.19 327.601 1144.69 327.601 Q1145.28 327.601 1145.63 327.9 Q1145.98 328.149 1145.98 328.447 L1146.03 328.746 Z" fill="#000000" fill-rule="nonzero" fill-opacity="1" /><path clip-path="url(#clip290)" d="M1194.94 386.199 Q1194.94 387.104 1194.56 388.846 Q1193.34 393.759 1188.78 397.139 Q1188.01 397.766 1186.65 398.567 Q1188.29 399.647 1189.72 401.633 Q1191.84 404.908 1191.84 409.333 Q1191.84 411.388 1191.29 413.897 Q1189.72 419.715 1184.21 423.896 Q1178.67 427.973 1172.09 427.973 Q1168.54 427.973 1166.1 426.091 Q1163.69 424.175 1162.75 420.97 L1157.91 440.515 Q1157.8 441.003 1157.18 441.003 L1156.83 441.003 Q1156.1 441.003 1156.1 440.167 L1167.11 396.268 Q1167.84 393.306 1169.02 390.519 Q1170.21 387.732 1171.84 385.223 Q1173.52 382.714 1175.43 380.868 Q1177.35 378.986 1179.72 377.906 Q1182.09 376.791 1184.6 376.791 Q1189.86 376.791 1192.85 380.38 Q1194.94 382.923 1194.94 386.199 M1190.94 384.944 Q1190.94 382.784 1190.07 381.286 Q1188.29 378.429 1184.53 378.429 Q1182.26 378.429 1180.1 379.474 Q1177.98 380.485 1176.27 382.227 Q1174.56 383.969 1173.1 386.338 Q1171.64 388.707 1170.56 391.285 Q1169.51 393.829 1168.81 396.616 L1164.53 413.897 Q1164.11 415.744 1164.11 417.381 Q1164.11 421.283 1166.27 423.827 Q1168.43 426.37 1172.16 426.37 Q1177.11 426.37 1181.36 422.677 Q1185.05 419.367 1186.58 413.549 Q1187.45 409.89 1187.45 407.347 Q1187.45 404.56 1186.44 402.4 Q1185.71 400.657 1184.28 399.612 Q1181.64 400.553 1178.95 400.553 Q1177.66 400.553 1176.97 400.518 Q1176.3 400.483 1175.33 400.344 Q1174.39 400.205 1173.94 399.821 Q1173.52 399.438 1173.52 398.846 Q1173.52 398.497 1173.59 398.358 Q1173.73 397.801 1174.18 397.417 Q1174.63 397.034 1175.15 396.86 Q1175.68 396.651 1176.55 396.546 Q1177.45 396.442 1178.05 396.442 Q1178.64 396.407 1179.65 396.407 Q1182.02 396.407 1184.42 397.348 Q1185.33 396.86 1186.3 395.989 Q1189.4 393.097 1190.45 388.498 Q1190.94 386.791 1190.94 384.944 M1182.16 398.428 Q1180.69 398.044 1179.58 398.044 Q1175.5 398.044 1175.29 398.706 Q1175.29 398.776 1175.43 398.846 Q1175.57 398.881 1175.89 398.915 Q1176.23 398.915 1176.51 398.95 Q1176.83 398.985 1177.35 398.985 Q1177.87 398.985 1178.15 398.985 Q1178.46 398.985 1179.02 398.985 Q1180.42 398.985 1182.16 398.428 Z" fill="#000000" fill-rule="nonzero" fill-opacity="1" /><path clip-path="url(#clip290)" d="M1302.54 370.306 Q1303.14 370.904 1303.14 371.75 Q1303.14 372.596 1302.54 373.193 Q1301.94 373.79 1301.1 373.79 L1237.29 373.79 Q1236.44 373.79 1235.84 373.193 Q1235.25 372.596 1235.25 371.75 Q1235.25 370.904 1235.84 370.306 Q1236.44 369.709 1237.29 369.709 L1301.1 369.709 Q1301.94 369.709 1302.54 370.306 Z" fill="#000000" fill-rule="nonzero" fill-opacity="1" /><path clip-path="url(#clip290)" d="M1416.16 328.846 Q1416.16 329.493 1416.01 329.891 Q1415.91 330.289 1415.51 330.488 Q1415.17 330.637 1414.92 330.687 Q1414.72 330.737 1414.12 330.787 Q1411.68 330.986 1409.64 331.633 Q1407.6 332.23 1405.86 333.425 Q1404.17 334.619 1403.22 335.416 Q1402.32 336.212 1400.73 337.805 L1399.34 339.248 L1374.05 368.266 Q1373.16 369.261 1372.61 371.451 L1369.03 385.835 Q1367.63 391.808 1367.63 392.256 Q1367.63 393.152 1368.13 393.451 Q1368.68 393.699 1370.37 393.849 L1374.25 394.098 Q1376.54 394.098 1376.89 394.496 Q1377.09 394.745 1377.09 395.193 Q1377.09 396.138 1376.69 396.636 Q1376.34 397.084 1376 397.184 Q1375.7 397.233 1375.15 397.233 L1362.11 396.935 L1349.27 397.233 Q1347.82 397.233 1347.82 396.089 Q1347.82 395.342 1347.92 394.944 Q1348.07 394.496 1348.52 394.346 Q1348.97 394.147 1349.32 394.147 Q1349.67 394.098 1350.61 394.098 Q1352.9 394.048 1354.05 394.048 Q1355.24 393.998 1356.38 393.699 Q1357.53 393.401 1357.93 393.202 Q1358.38 392.953 1358.87 392.107 Q1359.42 391.211 1359.57 390.514 Q1359.77 389.817 1360.17 388.075 Q1360.57 386.532 1362.66 378.121 Q1364.75 369.709 1364.75 369.51 Q1364.75 368.962 1364.35 367.768 L1351.81 334.221 Q1351.26 332.728 1350.81 332.131 Q1350.36 331.533 1348.87 331.185 Q1347.38 330.787 1344.39 330.787 Q1343.54 330.787 1343.15 330.737 Q1342.75 330.687 1342.4 330.438 Q1342.05 330.189 1342.05 329.642 Q1342.05 328.696 1342.45 328.248 Q1342.85 327.751 1343.15 327.701 Q1343.49 327.601 1343.99 327.601 Q1345.24 327.601 1349.67 327.751 Q1354.1 327.9 1355.39 327.9 L1368.23 327.601 Q1369.77 327.601 1369.77 328.746 Q1369.77 330.14 1369.23 330.488 Q1368.68 330.787 1367.33 330.787 Q1361.31 330.787 1361.31 333.226 Q1361.31 333.524 1361.91 334.968 L1373.11 365.229 L1396.75 338.004 L1397.1 337.606 Q1397.4 337.207 1397.65 336.909 Q1397.9 336.61 1398.29 336.063 Q1398.69 335.515 1398.89 335.067 Q1399.14 334.619 1399.34 334.072 Q1399.54 333.524 1399.54 333.126 Q1399.54 332.379 1399.09 331.882 Q1398.64 331.334 1397.94 331.135 Q1397.25 330.936 1396.75 330.886 Q1396.25 330.787 1395.85 330.787 Q1394.31 330.787 1394.31 329.542 Q1394.31 328.647 1394.71 328.199 Q1395.11 327.701 1395.41 327.651 Q1395.75 327.601 1396.25 327.601 Q1397.9 327.601 1401.33 327.751 Q1404.76 327.9 1406.46 327.9 Q1407.85 327.9 1410.69 327.751 Q1413.52 327.601 1414.82 327.601 Q1416.16 327.601 1416.16 328.846 Z" fill="#000000" fill-rule="nonzero" fill-opacity="1" /><path clip-path="url(#clip290)" d="M1427.59 419.581 L1427.59 323.918 Q1427.59 320.882 1429.63 320.882 Q1431.67 320.882 1431.67 324.067 L1431.67 419.332 Q1431.67 422.617 1429.63 422.617 Q1427.59 422.617 1427.59 419.581 M1438.84 419.581 L1438.84 324.665 Q1438.84 320.882 1440.88 320.882 Q1442.92 320.882 1442.92 324.067 L1442.92 419.332 Q1442.92 422.617 1440.88 422.617 Q1438.84 422.617 1438.84 419.581 Z" fill="#000000" fill-rule="nonzero" fill-opacity="1" /><path clip-path="url(#clip290)" d="M1453.64 451.216 L1453.64 449.021 L1455.35 449.021 Q1459.22 449.021 1460.09 448.394 Q1460.99 447.732 1460.99 445.642 L1460.99 408.257 Q1460.99 406.202 1460.09 405.575 Q1459.18 404.913 1455.35 404.913 L1453.64 404.913 L1453.64 402.683 L1492.8 402.683 L1494.79 418.744 L1493.01 418.744 Q1492.53 414.668 1491.86 412.368 Q1491.24 410.034 1489.77 408.188 Q1488.31 406.341 1485.84 405.644 Q1483.4 404.913 1479.39 404.913 L1470.82 404.913 Q1468.38 404.913 1467.86 405.435 Q1467.34 405.923 1467.34 407.77 L1467.34 425.817 L1473.47 425.817 Q1478.31 425.817 1479.67 424.075 Q1481.03 422.333 1481.03 417.455 L1482.81 417.455 L1482.81 436.374 L1481.03 436.374 Q1481.03 431.461 1479.67 429.754 Q1478.31 428.012 1473.47 428.012 L1467.34 428.012 L1467.34 445.572 Q1467.34 447.07 1467.58 447.662 Q1467.82 448.22 1469.32 448.638 Q1470.82 449.021 1474.1 449.021 L1476.46 449.021 L1476.46 451.216 Q1473.89 451.007 1464.48 451.007 Q1456.15 451.007 1453.64 451.216 Z" fill="#000000" fill-rule="nonzero" fill-opacity="1" /><path clip-path="url(#clip290)" d="M1510.59 421.273 Q1510.59 420.776 1510.99 419.681 L1546.97 323.52 Q1546.97 323.42 1547.22 322.873 Q1547.47 322.325 1547.62 321.977 Q1547.77 321.579 1548.07 321.28 Q1548.42 320.982 1548.81 320.982 Q1549.81 320.982 1549.81 322.226 Q1549.81 322.325 1549.51 323.52 L1513.43 419.78 Q1512.83 421.522 1512.43 422.02 Q1512.08 422.518 1511.48 422.518 Q1510.59 422.518 1510.59 421.273 Z" fill="#000000" fill-rule="nonzero" fill-opacity="1" /><path clip-path="url(#clip290)" d="M1561.06 419.581 L1561.06 323.918 Q1561.06 320.882 1563.11 320.882 Q1565.15 320.882 1565.15 324.067 L1565.15 419.332 Q1565.15 422.617 1563.11 422.617 Q1561.06 422.617 1561.06 419.581 M1572.31 419.581 L1572.31 324.665 Q1572.31 320.882 1574.35 320.882 Q1576.39 320.882 1576.39 324.067 L1576.39 419.332 Q1576.39 422.617 1574.35 422.617 Q1572.31 422.617 1572.31 419.581 Z" fill="#000000" fill-rule="nonzero" fill-opacity="1" /><path clip-path="url(#clip290)" d="M1676.27 328.846 Q1676.27 329.493 1676.12 329.891 Q1676.02 330.289 1675.62 330.488 Q1675.27 330.637 1675.02 330.687 Q1674.83 330.737 1674.23 330.787 Q1671.79 330.986 1669.75 331.633 Q1667.71 332.23 1665.97 333.425 Q1664.27 334.619 1663.33 335.416 Q1662.43 336.212 1660.84 337.805 L1659.45 339.248 L1634.16 368.266 Q1633.27 369.261 1632.72 371.451 L1629.13 385.835 Q1627.74 391.808 1627.74 392.256 Q1627.74 393.152 1628.24 393.451 Q1628.79 393.699 1630.48 393.849 L1634.36 394.098 Q1636.65 394.098 1637 394.496 Q1637.2 394.745 1637.2 395.193 Q1637.2 396.138 1636.8 396.636 Q1636.45 397.084 1636.1 397.184 Q1635.8 397.233 1635.26 397.233 L1622.22 396.935 L1609.37 397.233 Q1607.93 397.233 1607.93 396.089 Q1607.93 395.342 1608.03 394.944 Q1608.18 394.496 1608.63 394.346 Q1609.08 394.147 1609.42 394.147 Q1609.77 394.098 1610.72 394.098 Q1613.01 394.048 1614.15 394.048 Q1615.35 393.998 1616.49 393.699 Q1617.64 393.401 1618.03 393.202 Q1618.48 392.953 1618.98 392.107 Q1619.53 391.211 1619.68 390.514 Q1619.88 389.817 1620.27 388.075 Q1620.67 386.532 1622.76 378.121 Q1624.85 369.709 1624.85 369.51 Q1624.85 368.962 1624.46 367.768 L1611.91 334.221 Q1611.37 332.728 1610.92 332.131 Q1610.47 331.533 1608.98 331.185 Q1607.48 330.787 1604.5 330.787 Q1603.65 330.787 1603.25 330.737 Q1602.85 330.687 1602.51 330.438 Q1602.16 330.189 1602.16 329.642 Q1602.16 328.696 1602.56 328.248 Q1602.95 327.751 1603.25 327.701 Q1603.6 327.601 1604.1 327.601 Q1605.34 327.601 1609.77 327.751 Q1614.2 327.9 1615.5 327.9 L1628.34 327.601 Q1629.88 327.601 1629.88 328.746 Q1629.88 330.14 1629.33 330.488 Q1628.79 330.787 1627.44 330.787 Q1621.42 330.787 1621.42 333.226 Q1621.42 333.524 1622.02 334.968 L1633.22 365.229 L1656.86 338.004 L1657.21 337.606 Q1657.5 337.207 1657.75 336.909 Q1658 336.61 1658.4 336.063 Q1658.8 335.515 1659 335.067 Q1659.25 334.619 1659.45 334.072 Q1659.64 333.524 1659.64 333.126 Q1659.64 332.379 1659.2 331.882 Q1658.75 331.334 1658.05 331.135 Q1657.36 330.936 1656.86 330.886 Q1656.36 330.787 1655.96 330.787 Q1654.42 330.787 1654.42 329.542 Q1654.42 328.647 1654.82 328.199 Q1655.22 327.701 1655.51 327.651 Q1655.86 327.601 1656.36 327.601 Q1658 327.601 1661.44 327.751 Q1664.87 327.9 1666.56 327.9 Q1667.96 327.9 1670.79 327.751 Q1673.63 327.601 1674.93 327.601 Q1676.27 327.601 1676.27 328.846 Z" fill="#000000" fill-rule="nonzero" fill-opacity="1" /><path clip-path="url(#clip290)" d="M1687.7 419.581 L1687.7 323.918 Q1687.7 320.882 1689.74 320.882 Q1691.78 320.882 1691.78 324.067 L1691.78 419.332 Q1691.78 422.617 1689.74 422.617 Q1687.7 422.617 1687.7 419.581 M1698.95 419.581 L1698.95 324.665 Q1698.95 320.882 1700.99 320.882 Q1703.03 320.882 1703.03 324.067 L1703.03 419.332 Q1703.03 422.617 1700.99 422.617 Q1698.95 422.617 1698.95 419.581 Z" fill="#000000" fill-rule="nonzero" fill-opacity="1" /><path clip-path="url(#clip290)" d="M1713.75 451.216 L1713.75 449.021 L1715.46 449.021 Q1719.33 449.021 1720.2 448.394 Q1721.1 447.732 1721.1 445.642 L1721.1 408.257 Q1721.1 406.202 1720.2 405.575 Q1719.29 404.913 1715.46 404.913 L1713.75 404.913 L1713.75 402.683 L1752.91 402.683 L1754.9 418.744 L1753.12 418.744 Q1752.63 414.668 1751.97 412.368 Q1751.34 410.034 1749.88 408.188 Q1748.42 406.341 1745.94 405.644 Q1743.5 404.913 1739.5 404.913 L1730.93 404.913 Q1728.49 404.913 1727.97 405.435 Q1727.44 405.923 1727.44 407.77 L1727.44 425.817 L1733.58 425.817 Q1738.42 425.817 1739.78 424.075 Q1741.14 422.333 1741.14 417.455 L1742.91 417.455 L1742.91 436.374 L1741.14 436.374 Q1741.14 431.461 1739.78 429.754 Q1738.42 428.012 1733.58 428.012 L1727.44 428.012 L1727.44 445.572 Q1727.44 447.07 1727.69 447.662 Q1727.93 448.22 1729.43 448.638 Q1730.93 449.021 1734.2 449.021 L1736.57 449.021 L1736.57 451.216 Q1733.99 451.007 1724.59 451.007 Q1716.26 451.007 1713.75 451.216 Z" fill="#000000" fill-rule="nonzero" fill-opacity="1" /><path clip-path="url(#clip290)" d="M1808.18 367.967 Q1809.77 369.56 1809.77 371.75 Q1809.77 373.94 1808.18 375.582 Q1806.59 377.175 1804.4 377.175 Q1802.21 377.175 1800.57 375.582 Q1798.97 373.94 1798.97 371.75 Q1798.97 369.56 1800.57 367.967 Q1802.21 366.324 1804.4 366.324 Q1806.59 366.324 1808.18 367.967 Z" fill="#000000" fill-rule="nonzero" fill-opacity="1" /><path clip-path="url(#clip290)" d="M1855.3 339.049 L1855.3 335.864 Q1867.54 335.864 1873.87 329.343 Q1875.61 329.343 1875.91 329.742 Q1876.2 330.14 1876.2 331.981 L1876.2 389.17 Q1876.2 392.206 1877.7 393.152 Q1879.19 394.098 1885.71 394.098 L1888.95 394.098 L1888.95 397.233 Q1885.36 396.935 1872.42 396.935 Q1859.48 396.935 1855.95 397.233 L1855.95 394.098 L1859.18 394.098 Q1865.6 394.098 1867.15 393.202 Q1868.69 392.256 1868.69 389.17 L1868.69 336.361 Q1863.36 339.049 1855.3 339.049 Z" fill="#000000" fill-rule="nonzero" fill-opacity="1" /><path clip-path="url(#clip290)" d="M1893.98 364.632 Q1893.98 349.651 1897.76 341.488 Q1903.04 329.343 1915.48 329.343 Q1918.12 329.343 1920.86 330.09 Q1923.64 330.787 1927.13 333.524 Q1930.66 336.262 1932.8 340.741 Q1936.88 349.402 1936.88 364.632 Q1936.88 379.514 1933.1 387.627 Q1927.58 399.473 1915.38 399.473 Q1910.8 399.473 1906.12 397.134 Q1901.5 394.794 1898.56 389.17 Q1893.98 380.759 1893.98 364.632 M1902.44 363.388 Q1902.44 378.768 1903.54 384.89 Q1904.78 391.509 1908.17 394.396 Q1911.6 397.233 1915.38 397.233 Q1919.46 397.233 1922.85 394.197 Q1926.28 391.111 1927.33 384.491 Q1928.47 377.971 1928.42 363.388 Q1928.42 349.203 1927.43 343.529 Q1926.08 336.909 1922.5 334.271 Q1918.97 331.583 1915.38 331.583 Q1914.04 331.583 1912.59 331.981 Q1911.2 332.379 1909.16 333.524 Q1907.12 334.669 1905.53 337.506 Q1903.98 340.343 1903.24 344.624 Q1902.44 350.148 1902.44 363.388 Z" fill="#000000" fill-rule="nonzero" fill-opacity="1" /><path clip-path="url(#clip290)" d="M1944.86 364.632 Q1944.86 349.651 1948.65 341.488 Q1953.92 329.343 1966.37 329.343 Q1969 329.343 1971.74 330.09 Q1974.53 330.787 1978.01 333.524 Q1981.55 336.262 1983.69 340.741 Q1987.77 349.402 1987.77 364.632 Q1987.77 379.514 1983.99 387.627 Q1978.46 399.473 1966.27 399.473 Q1961.69 399.473 1957.01 397.134 Q1952.38 394.794 1949.44 389.17 Q1944.86 380.759 1944.86 364.632 M1953.33 363.388 Q1953.33 378.768 1954.42 384.89 Q1955.67 391.509 1959.05 394.396 Q1962.48 397.233 1966.27 397.233 Q1970.35 397.233 1973.73 394.197 Q1977.17 391.111 1978.21 384.491 Q1979.36 377.971 1979.31 363.388 Q1979.31 349.203 1978.31 343.529 Q1976.97 336.909 1973.38 334.271 Q1969.85 331.583 1966.27 331.583 Q1964.92 331.583 1963.48 331.981 Q1962.09 332.379 1960.05 333.524 Q1958 334.669 1956.41 337.506 Q1954.87 340.343 1954.12 344.624 Q1953.33 350.148 1953.33 363.388 Z" fill="#000000" fill-rule="nonzero" fill-opacity="1" /><path clip-path="url(#clip290)" d="M1995.75 341.289 Q1995.75 332.529 2000.23 326.656 Q2004.71 320.782 2010.73 320.782 Q2014.41 320.782 2018.05 324.067 Q2026.31 331.932 2037.11 331.882 Q2049.35 331.882 2056.47 322.226 Q2057.72 320.782 2058.61 320.782 Q2059.41 320.782 2060.01 321.429 Q2060.65 322.027 2060.65 322.823 Q2060.65 323.42 2059.86 324.665 L2008.29 401.414 Q2007.15 402.957 2006.25 402.957 Q2005.45 402.957 2004.81 402.31 Q2004.21 401.713 2004.21 400.916 Q2004.21 400.22 2005.11 398.876 L2050.9 330.687 L2050.8 330.588 Q2045.52 334.171 2037.21 334.121 Q2029.35 334.121 2021.83 329.841 Q2023.97 335.117 2023.97 341.388 Q2023.97 349.949 2020.14 355.922 Q2016.31 361.845 2010.73 361.845 Q2004.71 361.845 2000.23 356.071 Q1995.75 350.248 1995.75 341.289 M2002.77 332.977 Q2002.07 336.56 2002.07 341.388 Q2002.07 346.166 2002.77 349.75 Q2003.46 353.284 2004.46 355.126 Q2005.5 356.967 2006.9 358.062 Q2008.29 359.107 2009.14 359.356 Q2009.98 359.605 2010.83 359.605 Q2015.01 359.605 2018.2 354.429 Q2021.43 349.203 2021.43 341.289 Q2021.43 333.524 2018.2 328.298 Q2015.01 323.022 2010.83 323.022 Q2009.93 323.022 2009.04 323.271 Q2008.19 323.52 2006.85 324.615 Q2005.5 325.66 2004.46 327.502 Q2003.46 329.343 2002.77 332.977 M2040.89 382.351 Q2040.89 373.591 2045.37 367.718 Q2049.85 361.845 2055.87 361.845 Q2061.4 361.845 2065.23 367.818 Q2069.11 373.79 2069.11 382.451 Q2069.11 391.012 2065.28 396.984 Q2061.5 402.957 2055.87 402.957 Q2049.85 402.957 2045.37 397.134 Q2040.89 391.31 2040.89 382.351 M2047.91 374.039 Q2047.21 377.673 2047.21 382.451 Q2047.21 387.229 2047.91 390.813 Q2048.66 394.396 2049.65 396.238 Q2050.7 398.03 2052.04 399.075 Q2053.44 400.17 2054.28 400.419 Q2055.18 400.717 2055.97 400.717 Q2060.15 400.717 2063.34 395.541 Q2066.58 390.315 2066.58 382.351 Q2066.58 374.587 2063.34 369.361 Q2060.15 364.085 2055.97 364.085 Q2055.08 364.085 2054.18 364.383 Q2053.34 364.632 2051.99 365.727 Q2050.7 366.772 2049.65 368.614 Q2048.66 370.406 2047.91 374.039 Z" fill="#000000" fill-rule="nonzero" fill-opacity="1" /></svg>
