<?xml version="1.0" encoding="utf-8"?>
<svg xmlns="http://www.w3.org/2000/svg" xmlns:xlink="http://www.w3.org/1999/xlink" width="600" height="400" viewBox="0 0 2400 1600">
<defs>
  <clipPath id="clip350">
    <rect x="0" y="0" width="2400" height="1600"/>
  </clipPath>
</defs>
<path clip-path="url(#clip350)" d="M0 1600 L2400 1600 L2400 0 L0 0  Z" fill="#ffffff" fill-rule="evenodd" fill-opacity="1"/>
<defs>
  <clipPath id="clip351">
    <rect x="239" y="47" width="2114" height="1303"/>
  </clipPath>
</defs>
<path clip-path="url(#clip350)" d="M239.51 1349.74 L2352.76 1349.74 L2352.76 47.2441 L239.51 47.2441  Z" fill="#ffffff" fill-rule="evenodd" fill-opacity="1"/>
<polyline clip-path="url(#clip351)" style="stroke:#000000; stroke-linecap:round; stroke-linejoin:round; stroke-width:2; stroke-opacity:0.1; fill:none" points="299.319,1349.74 299.319,47.2441 "/>
<polyline clip-path="url(#clip351)" style="stroke:#000000; stroke-linecap:round; stroke-linejoin:round; stroke-width:2; stroke-opacity:0.1; fill:none" points="462.064,1349.74 462.064,47.2441 "/>
<polyline clip-path="url(#clip351)" style="stroke:#000000; stroke-linecap:round; stroke-linejoin:round; stroke-width:2; stroke-opacity:0.1; fill:none" points="1194.42,1349.74 1194.42,47.2441 "/>
<polyline clip-path="url(#clip351)" style="stroke:#000000; stroke-linecap:round; stroke-linejoin:round; stroke-width:2; stroke-opacity:0.1; fill:none" points="2292.95,1349.74 2292.95,47.2441 "/>
<polyline clip-path="url(#clip351)" style="stroke:#000000; stroke-linecap:round; stroke-linejoin:round; stroke-width:2; stroke-opacity:0.1; fill:none" points="239.51,1312.88 2352.76,1312.88 "/>
<polyline clip-path="url(#clip351)" style="stroke:#000000; stroke-linecap:round; stroke-linejoin:round; stroke-width:2; stroke-opacity:0.1; fill:none" points="239.51,1089.46 2352.76,1089.46 "/>
<polyline clip-path="url(#clip351)" style="stroke:#000000; stroke-linecap:round; stroke-linejoin:round; stroke-width:2; stroke-opacity:0.1; fill:none" points="239.51,866.051 2352.76,866.051 "/>
<polyline clip-path="url(#clip351)" style="stroke:#000000; stroke-linecap:round; stroke-linejoin:round; stroke-width:2; stroke-opacity:0.1; fill:none" points="239.51,642.639 2352.76,642.639 "/>
<polyline clip-path="url(#clip351)" style="stroke:#000000; stroke-linecap:round; stroke-linejoin:round; stroke-width:2; stroke-opacity:0.1; fill:none" points="239.51,419.226 2352.76,419.226 "/>
<polyline clip-path="url(#clip351)" style="stroke:#000000; stroke-linecap:round; stroke-linejoin:round; stroke-width:2; stroke-opacity:0.1; fill:none" points="239.51,195.814 2352.76,195.814 "/>
<polyline clip-path="url(#clip350)" style="stroke:#000000; stroke-linecap:round; stroke-linejoin:round; stroke-width:4; stroke-opacity:1; fill:none" points="239.51,1349.74 2352.76,1349.74 "/>
<polyline clip-path="url(#clip350)" style="stroke:#000000; stroke-linecap:round; stroke-linejoin:round; stroke-width:4; stroke-opacity:1; fill:none" points="299.319,1349.74 299.319,1330.84 "/>
<polyline clip-path="url(#clip350)" style="stroke:#000000; stroke-linecap:round; stroke-linejoin:round; stroke-width:4; stroke-opacity:1; fill:none" points="462.064,1349.74 462.064,1330.84 "/>
<polyline clip-path="url(#clip350)" style="stroke:#000000; stroke-linecap:round; stroke-linejoin:round; stroke-width:4; stroke-opacity:1; fill:none" points="1194.42,1349.74 1194.42,1330.84 "/>
<polyline clip-path="url(#clip350)" style="stroke:#000000; stroke-linecap:round; stroke-linejoin:round; stroke-width:4; stroke-opacity:1; fill:none" points="2292.95,1349.74 2292.95,1330.84 "/>
<path clip-path="url(#clip350)" d="M280.083 1447.47 L295.361 1447.47 L295.361 1394.74 L278.741 1398.07 L278.741 1389.55 L295.268 1386.22 L304.62 1386.22 L304.62 1447.47 L319.898 1447.47 L319.898 1455.34 L280.083 1455.34 L280.083 1447.47 Z" fill="#000000" fill-rule="nonzero" fill-opacity="1" /><path clip-path="url(#clip350)" d="M442.62 1386.22 L479.333 1386.22 L479.333 1394.09 L451.185 1394.09 L451.185 1411.03 Q453.222 1410.34 455.259 1410.02 Q457.296 1409.65 459.333 1409.65 Q470.907 1409.65 477.666 1415.99 Q484.425 1422.33 484.425 1433.16 Q484.425 1444.32 477.481 1450.53 Q470.536 1456.68 457.898 1456.68 Q453.546 1456.68 449.009 1455.94 Q444.518 1455.2 439.703 1453.72 L439.703 1444.32 Q443.87 1446.59 448.314 1447.7 Q452.759 1448.81 457.712 1448.81 Q465.722 1448.81 470.398 1444.6 Q475.073 1440.39 475.073 1433.16 Q475.073 1425.94 470.398 1421.73 Q465.722 1417.52 457.712 1417.52 Q453.962 1417.52 450.212 1418.35 Q446.509 1419.18 442.62 1420.94 L442.62 1386.22 Z" fill="#000000" fill-rule="nonzero" fill-opacity="1" /><path clip-path="url(#clip350)" d="M1152.61 1447.47 L1185.25 1447.47 L1185.25 1455.34 L1141.36 1455.34 L1141.36 1447.47 Q1146.69 1441.96 1155.85 1432.7 Q1165.07 1423.4 1167.43 1420.71 Q1171.92 1415.66 1173.68 1412.19 Q1175.48 1408.67 1175.48 1405.29 Q1175.48 1399.78 1171.59 1396.31 Q1167.75 1392.84 1161.55 1392.84 Q1157.15 1392.84 1152.24 1394.37 Q1147.38 1395.9 1141.83 1399 L1141.83 1389.55 Q1147.47 1387.28 1152.38 1386.13 Q1157.29 1384.97 1161.36 1384.97 Q1172.1 1384.97 1178.49 1390.34 Q1184.88 1395.71 1184.88 1404.69 Q1184.88 1408.95 1183.26 1412.79 Q1181.69 1416.59 1177.47 1421.78 Q1176.32 1423.12 1170.11 1429.55 Q1163.91 1435.94 1152.61 1447.47 Z" fill="#000000" fill-rule="nonzero" fill-opacity="1" /><path clip-path="url(#clip350)" d="M1233.21 1418.07 Q1239.93 1419.51 1243.68 1424.04 Q1247.47 1428.58 1247.47 1435.25 Q1247.47 1445.48 1240.44 1451.08 Q1233.4 1456.68 1220.44 1456.68 Q1216.08 1456.68 1211.45 1455.8 Q1206.87 1454.97 1201.96 1453.26 L1201.96 1444.23 Q1205.85 1446.5 1210.48 1447.65 Q1215.11 1448.81 1220.16 1448.81 Q1228.95 1448.81 1233.54 1445.34 Q1238.17 1441.87 1238.17 1435.25 Q1238.17 1429.14 1233.86 1425.71 Q1229.6 1422.24 1221.96 1422.24 L1213.91 1422.24 L1213.91 1414.55 L1222.33 1414.55 Q1229.23 1414.55 1232.89 1411.82 Q1236.55 1409.04 1236.55 1403.86 Q1236.55 1398.53 1232.75 1395.71 Q1229 1392.84 1221.96 1392.84 Q1218.12 1392.84 1213.72 1393.67 Q1209.32 1394.51 1204.05 1396.27 L1204.05 1387.93 Q1209.37 1386.45 1214 1385.71 Q1218.68 1384.97 1222.8 1384.97 Q1233.44 1384.97 1239.65 1389.83 Q1245.85 1394.65 1245.85 1402.89 Q1245.85 1408.63 1242.57 1412.61 Q1239.28 1416.54 1233.21 1418.07 Z" fill="#000000" fill-rule="nonzero" fill-opacity="1" /><path clip-path="url(#clip350)" d="M2242.35 1386.22 L2279.06 1386.22 L2279.06 1394.09 L2250.91 1394.09 L2250.91 1411.03 Q2252.95 1410.34 2254.98 1410.02 Q2257.02 1409.65 2259.06 1409.65 Q2270.63 1409.65 2277.39 1415.99 Q2284.15 1422.33 2284.15 1433.16 Q2284.15 1444.32 2277.21 1450.53 Q2270.26 1456.68 2257.62 1456.68 Q2253.27 1456.68 2248.73 1455.94 Q2244.24 1455.2 2239.43 1453.72 L2239.43 1444.32 Q2243.6 1446.59 2248.04 1447.7 Q2252.48 1448.81 2257.44 1448.81 Q2265.45 1448.81 2270.12 1444.6 Q2274.8 1440.39 2274.8 1433.16 Q2274.8 1425.94 2270.12 1421.73 Q2265.45 1417.52 2257.44 1417.52 Q2253.69 1417.52 2249.94 1418.35 Q2246.23 1419.18 2242.35 1420.94 L2242.35 1386.22 Z" fill="#000000" fill-rule="nonzero" fill-opacity="1" /><path clip-path="url(#clip350)" d="M2322.58 1392.38 Q2315.35 1392.38 2311.7 1399.51 Q2308.09 1406.59 2308.09 1420.85 Q2308.09 1435.06 2311.7 1442.19 Q2315.35 1449.28 2322.58 1449.28 Q2329.85 1449.28 2333.46 1442.19 Q2337.11 1435.06 2337.11 1420.85 Q2337.11 1406.59 2333.46 1399.51 Q2329.85 1392.38 2322.58 1392.38 M2322.58 1384.97 Q2334.2 1384.97 2340.31 1394.18 Q2346.47 1403.35 2346.47 1420.85 Q2346.47 1438.3 2340.31 1447.52 Q2334.2 1456.68 2322.58 1456.68 Q2310.96 1456.68 2304.8 1447.52 Q2298.69 1438.3 2298.69 1420.85 Q2298.69 1403.35 2304.8 1394.18 Q2310.96 1384.97 2322.58 1384.97 Z" fill="#000000" fill-rule="nonzero" fill-opacity="1" /><path clip-path="url(#clip350)" d="M1319.47 1536.37 Q1319.47 1539.7 1317.42 1541.7 Q1315.43 1543.69 1312.91 1543.69 Q1310.69 1543.69 1309.52 1542.4 Q1308.35 1541.11 1308.35 1539.47 Q1308.35 1538.77 1308.64 1537.89 Q1308.93 1536.95 1309.58 1535.84 Q1310.28 1534.73 1311.74 1533.91 Q1313.21 1533.09 1315.2 1532.97 Q1314.79 1532.56 1314.67 1532.5 Q1313.79 1531.8 1312.15 1531.57 Q1311.92 1531.45 1311.1 1531.45 Q1307.06 1531.45 1302.96 1534.43 Q1298.92 1537.36 1293.94 1542.93 Q1287.68 1549.43 1283.64 1551.83 Q1301.38 1554.17 1301.38 1564.42 Q1301.38 1566.11 1300.91 1568.16 Q1299.97 1572.03 1299.97 1574.84 Q1299.97 1580.46 1303.78 1580.46 Q1307.47 1580.46 1309.81 1576.71 Q1312.21 1572.96 1314.2 1565.65 Q1314.5 1564.3 1314.79 1563.89 Q1315.08 1563.48 1315.9 1563.48 Q1317.36 1563.48 1317.36 1564.65 Q1316.02 1571.5 1313.03 1576.77 Q1309.22 1583.15 1303.55 1583.15 Q1298.8 1583.15 1295.64 1579.87 Q1292.54 1576.54 1292.54 1571.27 Q1292.54 1569.98 1293 1567.05 Q1293.36 1565.88 1293.36 1564.53 Q1293.36 1561.78 1291.83 1559.73 Q1290.31 1557.62 1287.85 1556.57 Q1285.39 1555.52 1283.34 1555.05 Q1281.35 1554.52 1279.42 1554.34 Q1273.56 1579.11 1272.74 1580.64 Q1272.22 1581.69 1271.05 1582.39 Q1269.88 1583.15 1268.65 1583.15 Q1267.47 1583.15 1266.3 1582.33 Q1265.19 1581.57 1265.19 1579.76 Q1265.19 1578.82 1265.66 1577.12 L1283.05 1508.03 L1283.4 1505.68 Q1283.4 1504.98 1283.11 1504.63 Q1282.87 1504.22 1281.47 1503.93 Q1280.12 1503.63 1277.43 1503.63 Q1276.32 1503.63 1275.79 1503.58 Q1275.32 1503.52 1274.91 1503.22 Q1274.5 1502.87 1274.5 1502.17 Q1274.5 1501.17 1274.91 1500.65 Q1275.38 1500.06 1275.73 1499.95 Q1276.08 1499.83 1276.78 1499.77 Q1277.78 1499.71 1281.12 1499.42 Q1284.46 1499.07 1287.33 1498.83 Q1290.19 1498.6 1291.42 1498.6 Q1292.13 1498.6 1292.48 1498.95 Q1292.89 1499.24 1292.95 1499.59 L1293 1499.89 L1280.53 1550.48 Q1285.69 1548.43 1293.82 1539.35 Q1303.25 1528.81 1311.33 1528.81 Q1315.14 1528.81 1317.31 1531.16 Q1319.47 1533.44 1319.47 1536.37 Z" fill="#000000" fill-rule="nonzero" fill-opacity="1" /><polyline clip-path="url(#clip350)" style="stroke:#000000; stroke-linecap:round; stroke-linejoin:round; stroke-width:4; stroke-opacity:1; fill:none" points="239.51,1349.74 239.51,47.2441 "/>
<polyline clip-path="url(#clip350)" style="stroke:#000000; stroke-linecap:round; stroke-linejoin:round; stroke-width:4; stroke-opacity:1; fill:none" points="239.51,1312.88 258.408,1312.88 "/>
<polyline clip-path="url(#clip350)" style="stroke:#000000; stroke-linecap:round; stroke-linejoin:round; stroke-width:4; stroke-opacity:1; fill:none" points="239.51,1089.46 258.408,1089.46 "/>
<polyline clip-path="url(#clip350)" style="stroke:#000000; stroke-linecap:round; stroke-linejoin:round; stroke-width:4; stroke-opacity:1; fill:none" points="239.51,866.051 258.408,866.051 "/>
<polyline clip-path="url(#clip350)" style="stroke:#000000; stroke-linecap:round; stroke-linejoin:round; stroke-width:4; stroke-opacity:1; fill:none" points="239.51,642.639 258.408,642.639 "/>
<polyline clip-path="url(#clip350)" style="stroke:#000000; stroke-linecap:round; stroke-linejoin:round; stroke-width:4; stroke-opacity:1; fill:none" points="239.51,419.226 258.408,419.226 "/>
<polyline clip-path="url(#clip350)" style="stroke:#000000; stroke-linecap:round; stroke-linejoin:round; stroke-width:4; stroke-opacity:1; fill:none" points="239.51,195.814 258.408,195.814 "/>
<path clip-path="url(#clip350)" d="M179.621 1284.47 Q172.399 1284.47 168.742 1291.6 Q165.131 1298.69 165.131 1312.95 Q165.131 1327.16 168.742 1334.29 Q172.399 1341.37 179.621 1341.37 Q186.89 1341.37 190.501 1334.29 Q194.158 1327.16 194.158 1312.95 Q194.158 1298.69 190.501 1291.6 Q186.89 1284.47 179.621 1284.47 M179.621 1277.07 Q191.242 1277.07 197.353 1286.28 Q203.51 1295.45 203.51 1312.95 Q203.51 1330.4 197.353 1339.61 Q191.242 1348.78 179.621 1348.78 Q168.001 1348.78 161.844 1339.61 Q155.733 1330.4 155.733 1312.95 Q155.733 1295.45 161.844 1286.28 Q168.001 1277.07 179.621 1277.07 Z" fill="#000000" fill-rule="nonzero" fill-opacity="1" /><path clip-path="url(#clip350)" d="M163.696 1116.15 L178.973 1116.15 L178.973 1063.42 L162.353 1066.76 L162.353 1058.24 L178.881 1054.9 L188.233 1054.9 L188.233 1116.15 L203.51 1116.15 L203.51 1124.02 L163.696 1124.02 L163.696 1116.15 Z" fill="#000000" fill-rule="nonzero" fill-opacity="1" /><path clip-path="url(#clip350)" d="M170.872 892.741 L203.51 892.741 L203.51 900.611 L159.622 900.611 L159.622 892.741 Q164.946 887.232 174.112 877.973 Q183.325 868.667 185.686 865.982 Q190.177 860.936 191.936 857.464 Q193.742 853.945 193.742 850.565 Q193.742 845.056 189.853 841.584 Q186.01 838.112 179.807 838.112 Q175.409 838.112 170.501 839.64 Q165.64 841.167 160.085 844.269 L160.085 834.825 Q165.733 832.556 170.64 831.399 Q175.547 830.241 179.621 830.241 Q190.362 830.241 196.751 835.612 Q203.14 840.982 203.14 849.964 Q203.14 854.223 201.52 858.065 Q199.945 861.862 195.733 867.047 Q194.575 868.389 188.371 874.825 Q182.168 881.213 170.872 892.741 Z" fill="#000000" fill-rule="nonzero" fill-opacity="1" /><path clip-path="url(#clip350)" d="M189.251 639.93 Q195.964 641.366 199.714 645.903 Q203.51 650.44 203.51 657.106 Q203.51 667.338 196.473 672.94 Q189.436 678.541 176.473 678.541 Q172.122 678.541 167.492 677.662 Q162.909 676.828 158.001 675.115 L158.001 666.088 Q161.89 668.356 166.52 669.514 Q171.149 670.671 176.196 670.671 Q184.992 670.671 189.575 667.199 Q194.205 663.727 194.205 657.106 Q194.205 650.995 189.899 647.569 Q185.64 644.097 178.001 644.097 L169.946 644.097 L169.946 636.412 L178.372 636.412 Q185.27 636.412 188.927 633.681 Q192.584 630.903 192.584 625.718 Q192.584 620.394 188.788 617.569 Q185.038 614.699 178.001 614.699 Q174.159 614.699 169.76 615.532 Q165.362 616.366 160.085 618.125 L160.085 609.792 Q165.409 608.31 170.038 607.57 Q174.714 606.829 178.834 606.829 Q189.483 606.829 195.686 611.69 Q201.89 616.505 201.89 624.745 Q201.89 630.486 198.603 634.468 Q195.316 638.403 189.251 639.93 Z" fill="#000000" fill-rule="nonzero" fill-opacity="1" /><path clip-path="url(#clip350)" d="M184.344 392.814 L160.733 429.712 L184.344 429.712 L184.344 392.814 M181.89 384.666 L193.649 384.666 L193.649 429.712 L203.51 429.712 L203.51 437.49 L193.649 437.49 L193.649 453.786 L184.344 453.786 L184.344 437.49 L153.14 437.49 L153.14 428.462 L181.89 384.666 Z" fill="#000000" fill-rule="nonzero" fill-opacity="1" /><path clip-path="url(#clip350)" d="M161.705 161.254 L198.418 161.254 L198.418 169.124 L170.27 169.124 L170.27 186.068 Q172.307 185.374 174.344 185.05 Q176.381 184.679 178.418 184.679 Q189.992 184.679 196.751 191.022 Q203.51 197.364 203.51 208.198 Q203.51 219.355 196.566 225.559 Q189.621 231.716 176.983 231.716 Q172.631 231.716 168.094 230.975 Q163.603 230.235 158.788 228.753 L158.788 219.355 Q162.955 221.624 167.399 222.735 Q171.844 223.846 176.797 223.846 Q184.807 223.846 189.483 219.633 Q194.158 215.42 194.158 208.198 Q194.158 200.976 189.483 196.763 Q184.807 192.55 176.797 192.55 Q173.047 192.55 169.297 193.383 Q165.594 194.216 161.705 195.976 L161.705 161.254 Z" fill="#000000" fill-rule="nonzero" fill-opacity="1" /><path clip-path="url(#clip350)" d="M41.4097 668.976 Q45.5086 668.976 45.5086 674.832 L45.5086 688.007 Q50.7787 684.318 58.5666 684.318 Q65.242 684.318 71.5075 687.07 Q77.7145 689.763 82.0476 694.096 Q86.3808 698.371 89.0158 703.758 Q91.5923 709.145 91.5923 714.415 Q91.5923 722.438 86.1465 727.415 Q80.7008 732.392 72.6201 732.392 Q68.3455 732.392 63.6024 730.928 Q58.8594 729.406 54.4677 726.537 Q50.0174 723.667 46.4455 719.92 Q42.8736 716.114 40.707 711.195 Q38.5404 706.218 38.5404 701.006 L38.5404 673.66 Q38.5404 672.197 38.6575 671.435 Q38.7161 670.615 39.4188 669.796 Q40.0629 668.976 41.4097 668.976 M57.1613 691.988 Q55.7559 691.988 54.5262 692.164 Q53.238 692.34 51.5399 692.984 Q49.7832 693.628 48.5535 694.741 Q47.2653 695.853 46.3869 698.02 Q45.5086 700.128 45.5086 702.997 Q45.5086 707.037 47.7337 711.488 Q49.9589 715.938 55.4631 719.334 Q60.1476 722.145 66.2375 723.55 Q72.3273 724.956 75.9578 724.956 Q82.1647 724.956 85.561 721.969 Q88.8987 718.924 88.8987 714.298 Q88.8987 710.492 86.3222 706.159 Q83.6872 701.826 78.7099 698.488 Q74.3768 695.56 68.0527 693.804 Q61.7286 691.988 57.1613 691.988 Z" fill="#000000" fill-rule="nonzero" fill-opacity="1" /><path clip-path="url(#clip351)" d="M299.319 218.505 L275.071 204.505 L275.071 176.505 L299.319 162.505 L323.567 176.505 L323.567 204.505 Z" fill="#ff0000" fill-rule="evenodd" fill-opacity="1" stroke="none"/>
<path clip-path="url(#clip351)" d="M340.005 435.729 L315.757 421.729 L315.757 393.729 L340.005 379.729 L364.253 393.729 L364.253 421.729 Z" fill="#ff0000" fill-rule="evenodd" fill-opacity="1" stroke="none"/>
<path clip-path="url(#clip351)" d="M380.692 669.265 L356.444 655.265 L356.444 627.265 L380.692 613.265 L404.94 627.265 L404.94 655.265 Z" fill="#ff0000" fill-rule="evenodd" fill-opacity="1" stroke="none"/>
<path clip-path="url(#clip351)" d="M421.378 894.515 L397.13 880.515 L397.13 852.515 L421.378 838.515 L445.626 852.515 L445.626 880.515 Z" fill="#ff0000" fill-rule="evenodd" fill-opacity="1" stroke="none"/>
<path clip-path="url(#clip351)" d="M462.064 1092.34 L437.816 1078.34 L437.816 1050.34 L462.064 1036.34 L486.312 1050.34 L486.312 1078.34 Z" fill="#ff0000" fill-rule="evenodd" fill-opacity="1" stroke="none"/>
<path clip-path="url(#clip351)" d="M502.751 1236.47 L478.503 1222.47 L478.503 1194.47 L502.751 1180.47 L526.999 1194.47 L526.999 1222.47 Z" fill="#ff0000" fill-rule="evenodd" fill-opacity="1" stroke="none"/>
<path clip-path="url(#clip351)" d="M543.437 1239.2 L519.189 1225.2 L519.189 1197.2 L543.437 1183.2 L567.685 1197.2 L567.685 1225.2 Z" fill="#ff0000" fill-rule="evenodd" fill-opacity="1" stroke="none"/>
<path clip-path="url(#clip351)" d="M584.123 1242.96 L559.875 1228.96 L559.875 1200.96 L584.123 1186.96 L608.371 1200.96 L608.371 1228.96 Z" fill="#ff0000" fill-rule="evenodd" fill-opacity="1" stroke="none"/>
<path clip-path="url(#clip351)" d="M624.809 1243.76 L600.561 1229.76 L600.561 1201.76 L624.809 1187.76 L649.057 1201.76 L649.057 1229.76 Z" fill="#ff0000" fill-rule="evenodd" fill-opacity="1" stroke="none"/>
<path clip-path="url(#clip351)" d="M665.496 1245.47 L641.248 1231.47 L641.248 1203.47 L665.496 1189.47 L689.744 1203.47 L689.744 1231.47 Z" fill="#ff0000" fill-rule="evenodd" fill-opacity="1" stroke="none"/>
<path clip-path="url(#clip351)" d="M706.182 1250.89 L681.934 1236.89 L681.934 1208.89 L706.182 1194.89 L730.43 1208.89 L730.43 1236.89 Z" fill="#ff0000" fill-rule="evenodd" fill-opacity="1" stroke="none"/>
<path clip-path="url(#clip351)" d="M746.868 1252.79 L722.62 1238.79 L722.62 1210.79 L746.868 1196.79 L771.116 1210.79 L771.116 1238.79 Z" fill="#ff0000" fill-rule="evenodd" fill-opacity="1" stroke="none"/>
<path clip-path="url(#clip351)" d="M787.555 1253.66 L763.307 1239.66 L763.307 1211.66 L787.555 1197.66 L811.803 1211.66 L811.803 1239.66 Z" fill="#ff0000" fill-rule="evenodd" fill-opacity="1" stroke="none"/>
<path clip-path="url(#clip351)" d="M828.241 1257.58 L803.993 1243.58 L803.993 1215.58 L828.241 1201.58 L852.489 1215.58 L852.489 1243.58 Z" fill="#ff0000" fill-rule="evenodd" fill-opacity="1" stroke="none"/>
<path clip-path="url(#clip351)" d="M868.927 1258.86 L844.679 1244.86 L844.679 1216.86 L868.927 1202.86 L893.175 1216.86 L893.175 1244.86 Z" fill="#ff0000" fill-rule="evenodd" fill-opacity="1" stroke="none"/>
<path clip-path="url(#clip351)" d="M909.613 1259.63 L885.365 1245.63 L885.365 1217.63 L909.613 1203.63 L933.861 1217.63 L933.861 1245.63 Z" fill="#ff0000" fill-rule="evenodd" fill-opacity="1" stroke="none"/>
<path clip-path="url(#clip351)" d="M950.3 1262.27 L926.052 1248.27 L926.052 1220.27 L950.3 1206.27 L974.548 1220.27 L974.548 1248.27 Z" fill="#ff0000" fill-rule="evenodd" fill-opacity="1" stroke="none"/>
<path clip-path="url(#clip351)" d="M990.986 1263.42 L966.738 1249.42 L966.738 1221.42 L990.986 1207.42 L1015.23 1221.42 L1015.23 1249.42 Z" fill="#ff0000" fill-rule="evenodd" fill-opacity="1" stroke="none"/>
<path clip-path="url(#clip351)" d="M1031.67 1265.46 L1007.42 1251.46 L1007.42 1223.46 L1031.67 1209.46 L1055.92 1223.46 L1055.92 1251.46 Z" fill="#ff0000" fill-rule="evenodd" fill-opacity="1" stroke="none"/>
<path clip-path="url(#clip351)" d="M1072.36 1266.77 L1048.11 1252.77 L1048.11 1224.77 L1072.36 1210.77 L1096.61 1224.77 L1096.61 1252.77 Z" fill="#ff0000" fill-rule="evenodd" fill-opacity="1" stroke="none"/>
<path clip-path="url(#clip351)" d="M1113.04 1268.87 L1088.8 1254.87 L1088.8 1226.87 L1113.04 1212.87 L1137.29 1226.87 L1137.29 1254.87 Z" fill="#ff0000" fill-rule="evenodd" fill-opacity="1" stroke="none"/>
<path clip-path="url(#clip351)" d="M1153.73 1271.01 L1129.48 1257.01 L1129.48 1229.01 L1153.73 1215.01 L1177.98 1229.01 L1177.98 1257.01 Z" fill="#ff0000" fill-rule="evenodd" fill-opacity="1" stroke="none"/>
<path clip-path="url(#clip351)" d="M1194.42 1273.45 L1170.17 1259.45 L1170.17 1231.45 L1194.42 1217.45 L1218.67 1231.45 L1218.67 1259.45 Z" fill="#ff0000" fill-rule="evenodd" fill-opacity="1" stroke="none"/>
<path clip-path="url(#clip351)" d="M1235.1 1274.48 L1210.86 1260.48 L1210.86 1232.48 L1235.1 1218.48 L1259.35 1232.48 L1259.35 1260.48 Z" fill="#ff0000" fill-rule="evenodd" fill-opacity="1" stroke="none"/>
<path clip-path="url(#clip351)" d="M1275.79 1276.63 L1251.54 1262.63 L1251.54 1234.63 L1275.79 1220.63 L1300.04 1234.63 L1300.04 1262.63 Z" fill="#ff0000" fill-rule="evenodd" fill-opacity="1" stroke="none"/>
<path clip-path="url(#clip351)" d="M1316.48 1279.45 L1292.23 1265.45 L1292.23 1237.45 L1316.48 1223.45 L1340.72 1237.45 L1340.72 1265.45 Z" fill="#ff0000" fill-rule="evenodd" fill-opacity="1" stroke="none"/>
<path clip-path="url(#clip351)" d="M1357.16 1280.34 L1332.91 1266.34 L1332.91 1238.34 L1357.16 1224.34 L1381.41 1238.34 L1381.41 1266.34 Z" fill="#ff0000" fill-rule="evenodd" fill-opacity="1" stroke="none"/>
<path clip-path="url(#clip351)" d="M1397.85 1282.48 L1373.6 1268.48 L1373.6 1240.48 L1397.85 1226.48 L1422.1 1240.48 L1422.1 1268.48 Z" fill="#ff0000" fill-rule="evenodd" fill-opacity="1" stroke="none"/>
<path clip-path="url(#clip351)" d="M1438.54 1284.06 L1414.29 1270.06 L1414.29 1242.06 L1438.54 1228.06 L1462.78 1242.06 L1462.78 1270.06 Z" fill="#ff0000" fill-rule="evenodd" fill-opacity="1" stroke="none"/>
<path clip-path="url(#clip351)" d="M1479.22 1284.51 L1454.97 1270.51 L1454.97 1242.51 L1479.22 1228.51 L1503.47 1242.51 L1503.47 1270.51 Z" fill="#ff0000" fill-rule="evenodd" fill-opacity="1" stroke="none"/>
<path clip-path="url(#clip351)" d="M1519.91 1284.85 L1495.66 1270.85 L1495.66 1242.85 L1519.91 1228.85 L1544.16 1242.85 L1544.16 1270.85 Z" fill="#ff0000" fill-rule="evenodd" fill-opacity="1" stroke="none"/>
<path clip-path="url(#clip351)" d="M1560.59 1287.38 L1536.35 1273.38 L1536.35 1245.38 L1560.59 1231.38 L1584.84 1245.38 L1584.84 1273.38 Z" fill="#ff0000" fill-rule="evenodd" fill-opacity="1" stroke="none"/>
<path clip-path="url(#clip351)" d="M1601.28 1291.12 L1577.03 1277.12 L1577.03 1249.12 L1601.28 1235.12 L1625.53 1249.12 L1625.53 1277.12 Z" fill="#ff0000" fill-rule="evenodd" fill-opacity="1" stroke="none"/>
<path clip-path="url(#clip351)" d="M1641.97 1291.99 L1617.72 1277.99 L1617.72 1249.99 L1641.97 1235.99 L1666.21 1249.99 L1666.21 1277.99 Z" fill="#ff0000" fill-rule="evenodd" fill-opacity="1" stroke="none"/>
<path clip-path="url(#clip351)" d="M1682.65 1293.65 L1658.4 1279.65 L1658.4 1251.65 L1682.65 1237.65 L1706.9 1251.65 L1706.9 1279.65 Z" fill="#ff0000" fill-rule="evenodd" fill-opacity="1" stroke="none"/>
<path clip-path="url(#clip351)" d="M1723.34 1295.68 L1699.09 1281.68 L1699.09 1253.68 L1723.34 1239.68 L1747.59 1253.68 L1747.59 1281.68 Z" fill="#ff0000" fill-rule="evenodd" fill-opacity="1" stroke="none"/>
<path clip-path="url(#clip351)" d="M1764.03 1296.76 L1739.78 1282.76 L1739.78 1254.76 L1764.03 1240.76 L1788.27 1254.76 L1788.27 1282.76 Z" fill="#ff0000" fill-rule="evenodd" fill-opacity="1" stroke="none"/>
<path clip-path="url(#clip351)" d="M1804.71 1298.48 L1780.46 1284.48 L1780.46 1256.48 L1804.71 1242.48 L1828.96 1256.48 L1828.96 1284.48 Z" fill="#ff0000" fill-rule="evenodd" fill-opacity="1" stroke="none"/>
<path clip-path="url(#clip351)" d="M1845.4 1299.69 L1821.15 1285.69 L1821.15 1257.69 L1845.4 1243.69 L1869.65 1257.69 L1869.65 1285.69 Z" fill="#ff0000" fill-rule="evenodd" fill-opacity="1" stroke="none"/>
<path clip-path="url(#clip351)" d="M1886.08 1300.59 L1861.84 1286.59 L1861.84 1258.59 L1886.08 1244.59 L1910.33 1258.59 L1910.33 1286.59 Z" fill="#ff0000" fill-rule="evenodd" fill-opacity="1" stroke="none"/>
<path clip-path="url(#clip351)" d="M1926.77 1302.45 L1902.52 1288.45 L1902.52 1260.45 L1926.77 1246.45 L1951.02 1260.45 L1951.02 1288.45 Z" fill="#ff0000" fill-rule="evenodd" fill-opacity="1" stroke="none"/>
<path clip-path="url(#clip351)" d="M1967.46 1305.19 L1943.21 1291.19 L1943.21 1263.19 L1967.46 1249.19 L1991.7 1263.19 L1991.7 1291.19 Z" fill="#ff0000" fill-rule="evenodd" fill-opacity="1" stroke="none"/>
<path clip-path="url(#clip351)" d="M2008.14 1305.56 L1983.9 1291.56 L1983.9 1263.56 L2008.14 1249.56 L2032.39 1263.56 L2032.39 1291.56 Z" fill="#ff0000" fill-rule="evenodd" fill-opacity="1" stroke="none"/>
<path clip-path="url(#clip351)" d="M2048.83 1306.96 L2024.58 1292.96 L2024.58 1264.96 L2048.83 1250.96 L2073.08 1264.96 L2073.08 1292.96 Z" fill="#ff0000" fill-rule="evenodd" fill-opacity="1" stroke="none"/>
<path clip-path="url(#clip351)" d="M2089.52 1308.66 L2065.27 1294.66 L2065.27 1266.66 L2089.52 1252.66 L2113.76 1266.66 L2113.76 1294.66 Z" fill="#ff0000" fill-rule="evenodd" fill-opacity="1" stroke="none"/>
<path clip-path="url(#clip351)" d="M2130.2 1311.28 L2105.95 1297.28 L2105.95 1269.28 L2130.2 1255.28 L2154.45 1269.28 L2154.45 1297.28 Z" fill="#ff0000" fill-rule="evenodd" fill-opacity="1" stroke="none"/>
<path clip-path="url(#clip351)" d="M2170.89 1313.49 L2146.64 1299.49 L2146.64 1271.49 L2170.89 1257.49 L2195.14 1271.49 L2195.14 1299.49 Z" fill="#ff0000" fill-rule="evenodd" fill-opacity="1" stroke="none"/>
<path clip-path="url(#clip351)" d="M2211.57 1315.16 L2187.33 1301.16 L2187.33 1273.16 L2211.57 1259.16 L2235.82 1273.16 L2235.82 1301.16 Z" fill="#ff0000" fill-rule="evenodd" fill-opacity="1" stroke="none"/>
<path clip-path="url(#clip351)" d="M2252.26 1315.95 L2228.01 1301.95 L2228.01 1273.95 L2252.26 1259.95 L2276.51 1273.95 L2276.51 1301.95 Z" fill="#ff0000" fill-rule="evenodd" fill-opacity="1" stroke="none"/>
<path clip-path="url(#clip351)" d="M2292.95 1316.88 L2268.7 1302.88 L2268.7 1274.88 L2292.95 1260.88 L2317.2 1274.88 L2317.2 1302.88 Z" fill="#ff0000" fill-rule="evenodd" fill-opacity="1" stroke="none"/>
<circle clip-path="url(#clip351)" cx="299.319" cy="195.814" r="25.2" fill="#0000ff" fill-rule="evenodd" fill-opacity="1" stroke="none"/>
<circle clip-path="url(#clip351)" cx="340.005" cy="419.226" r="25.2" fill="#0000ff" fill-rule="evenodd" fill-opacity="1" stroke="none"/>
<circle clip-path="url(#clip351)" cx="380.692" cy="642.639" r="25.2" fill="#0000ff" fill-rule="evenodd" fill-opacity="1" stroke="none"/>
<circle clip-path="url(#clip351)" cx="421.378" cy="866.051" r="25.2" fill="#0000ff" fill-rule="evenodd" fill-opacity="1" stroke="none"/>
<circle clip-path="url(#clip351)" cx="462.064" cy="1089.46" r="25.2" fill="#0000ff" fill-rule="evenodd" fill-opacity="1" stroke="none"/>
<circle clip-path="url(#clip351)" cx="502.751" cy="1312.88" r="25.2" fill="#0000ff" fill-rule="evenodd" fill-opacity="1" stroke="none"/>
<circle clip-path="url(#clip351)" cx="543.437" cy="1312.88" r="25.2" fill="#0000ff" fill-rule="evenodd" fill-opacity="1" stroke="none"/>
<circle clip-path="url(#clip351)" cx="584.123" cy="1312.88" r="25.2" fill="#0000ff" fill-rule="evenodd" fill-opacity="1" stroke="none"/>
<circle clip-path="url(#clip351)" cx="624.809" cy="1312.88" r="25.2" fill="#0000ff" fill-rule="evenodd" fill-opacity="1" stroke="none"/>
<circle clip-path="url(#clip351)" cx="665.496" cy="1312.88" r="25.2" fill="#0000ff" fill-rule="evenodd" fill-opacity="1" stroke="none"/>
<circle clip-path="url(#clip351)" cx="706.182" cy="1312.88" r="25.2" fill="#0000ff" fill-rule="evenodd" fill-opacity="1" stroke="none"/>
<circle clip-path="url(#clip351)" cx="746.868" cy="1312.88" r="25.2" fill="#0000ff" fill-rule="evenodd" fill-opacity="1" stroke="none"/>
<circle clip-path="url(#clip351)" cx="787.555" cy="1312.88" r="25.2" fill="#0000ff" fill-rule="evenodd" fill-opacity="1" stroke="none"/>
<circle clip-path="url(#clip351)" cx="828.241" cy="1312.88" r="25.2" fill="#0000ff" fill-rule="evenodd" fill-opacity="1" stroke="none"/>
<circle clip-path="url(#clip351)" cx="868.927" cy="1312.88" r="25.2" fill="#0000ff" fill-rule="evenodd" fill-opacity="1" stroke="none"/>
<circle clip-path="url(#clip351)" cx="909.613" cy="1312.88" r="25.2" fill="#0000ff" fill-rule="evenodd" fill-opacity="1" stroke="none"/>
<circle clip-path="url(#clip351)" cx="950.3" cy="1312.88" r="25.2" fill="#0000ff" fill-rule="evenodd" fill-opacity="1" stroke="none"/>
<circle clip-path="url(#clip351)" cx="990.986" cy="1312.88" r="25.2" fill="#0000ff" fill-rule="evenodd" fill-opacity="1" stroke="none"/>
<circle clip-path="url(#clip351)" cx="1031.67" cy="1312.88" r="25.2" fill="#0000ff" fill-rule="evenodd" fill-opacity="1" stroke="none"/>
<circle clip-path="url(#clip351)" cx="1072.36" cy="1312.88" r="25.2" fill="#0000ff" fill-rule="evenodd" fill-opacity="1" stroke="none"/>
<circle clip-path="url(#clip351)" cx="1113.04" cy="1312.88" r="25.2" fill="#0000ff" fill-rule="evenodd" fill-opacity="1" stroke="none"/>
<circle clip-path="url(#clip351)" cx="1153.73" cy="1312.88" r="25.2" fill="#0000ff" fill-rule="evenodd" fill-opacity="1" stroke="none"/>
<circle clip-path="url(#clip351)" cx="1194.42" cy="1312.88" r="25.2" fill="#0000ff" fill-rule="evenodd" fill-opacity="1" stroke="none"/>
<circle clip-path="url(#clip351)" cx="1235.1" cy="1312.88" r="25.2" fill="#0000ff" fill-rule="evenodd" fill-opacity="1" stroke="none"/>
<circle clip-path="url(#clip351)" cx="1275.79" cy="1312.88" r="25.2" fill="#0000ff" fill-rule="evenodd" fill-opacity="1" stroke="none"/>
<circle clip-path="url(#clip351)" cx="1316.48" cy="1312.88" r="25.2" fill="#0000ff" fill-rule="evenodd" fill-opacity="1" stroke="none"/>
<circle clip-path="url(#clip351)" cx="1357.16" cy="1312.88" r="25.2" fill="#0000ff" fill-rule="evenodd" fill-opacity="1" stroke="none"/>
<circle clip-path="url(#clip351)" cx="1397.85" cy="1312.88" r="25.2" fill="#0000ff" fill-rule="evenodd" fill-opacity="1" stroke="none"/>
<circle clip-path="url(#clip351)" cx="1438.54" cy="1312.88" r="25.2" fill="#0000ff" fill-rule="evenodd" fill-opacity="1" stroke="none"/>
<circle clip-path="url(#clip351)" cx="1479.22" cy="1312.88" r="25.2" fill="#0000ff" fill-rule="evenodd" fill-opacity="1" stroke="none"/>
<circle clip-path="url(#clip351)" cx="1519.91" cy="1312.88" r="25.2" fill="#0000ff" fill-rule="evenodd" fill-opacity="1" stroke="none"/>
<circle clip-path="url(#clip351)" cx="1560.59" cy="1312.88" r="25.2" fill="#0000ff" fill-rule="evenodd" fill-opacity="1" stroke="none"/>
<circle clip-path="url(#clip351)" cx="1601.28" cy="1312.88" r="25.2" fill="#0000ff" fill-rule="evenodd" fill-opacity="1" stroke="none"/>
<circle clip-path="url(#clip351)" cx="1641.97" cy="1312.88" r="25.2" fill="#0000ff" fill-rule="evenodd" fill-opacity="1" stroke="none"/>
<circle clip-path="url(#clip351)" cx="1682.65" cy="1312.88" r="25.2" fill="#0000ff" fill-rule="evenodd" fill-opacity="1" stroke="none"/>
<circle clip-path="url(#clip351)" cx="1723.34" cy="1312.88" r="25.2" fill="#0000ff" fill-rule="evenodd" fill-opacity="1" stroke="none"/>
<circle clip-path="url(#clip351)" cx="1764.03" cy="1312.88" r="25.2" fill="#0000ff" fill-rule="evenodd" fill-opacity="1" stroke="none"/>
<circle clip-path="url(#clip351)" cx="1804.71" cy="1312.88" r="25.2" fill="#0000ff" fill-rule="evenodd" fill-opacity="1" stroke="none"/>
<circle clip-path="url(#clip351)" cx="1845.4" cy="1312.88" r="25.2" fill="#0000ff" fill-rule="evenodd" fill-opacity="1" stroke="none"/>
<circle clip-path="url(#clip351)" cx="1886.08" cy="1312.88" r="25.2" fill="#0000ff" fill-rule="evenodd" fill-opacity="1" stroke="none"/>
<circle clip-path="url(#clip351)" cx="1926.77" cy="1312.88" r="25.2" fill="#0000ff" fill-rule="evenodd" fill-opacity="1" stroke="none"/>
<circle clip-path="url(#clip351)" cx="1967.46" cy="1312.88" r="25.2" fill="#0000ff" fill-rule="evenodd" fill-opacity="1" stroke="none"/>
<circle clip-path="url(#clip351)" cx="2008.14" cy="1312.88" r="25.2" fill="#0000ff" fill-rule="evenodd" fill-opacity="1" stroke="none"/>
<circle clip-path="url(#clip351)" cx="2048.83" cy="1312.88" r="25.2" fill="#0000ff" fill-rule="evenodd" fill-opacity="1" stroke="none"/>
<circle clip-path="url(#clip351)" cx="2089.52" cy="1312.88" r="25.2" fill="#0000ff" fill-rule="evenodd" fill-opacity="1" stroke="none"/>
<circle clip-path="url(#clip351)" cx="2130.2" cy="1312.88" r="25.2" fill="#0000ff" fill-rule="evenodd" fill-opacity="1" stroke="none"/>
<circle clip-path="url(#clip351)" cx="2170.89" cy="1312.88" r="25.2" fill="#0000ff" fill-rule="evenodd" fill-opacity="1" stroke="none"/>
<circle clip-path="url(#clip351)" cx="2211.57" cy="1312.88" r="25.2" fill="#0000ff" fill-rule="evenodd" fill-opacity="1" stroke="none"/>
<circle clip-path="url(#clip351)" cx="2252.26" cy="1312.88" r="25.2" fill="#0000ff" fill-rule="evenodd" fill-opacity="1" stroke="none"/>
<circle clip-path="url(#clip351)" cx="2292.95" cy="1312.88" r="25.2" fill="#0000ff" fill-rule="evenodd" fill-opacity="1" stroke="none"/>
<path clip-path="url(#clip351)" d="M299.319 229.529 L292.739 248.457 L272.691 248.877 L288.679 261.001 L282.855 280.181 L299.319 268.729 L315.783 280.181 L309.959 261.001 L325.947 248.877 L305.899 248.457 L299.319 229.529 Z" fill="#008000" fill-rule="evenodd" fill-opacity="1" stroke="none"/>
<path clip-path="url(#clip351)" d="M340.005 446.753 L333.425 465.681 L313.377 466.101 L329.365 478.225 L323.541 497.405 L340.005 485.953 L356.469 497.405 L350.645 478.225 L366.633 466.101 L346.585 465.681 L340.005 446.753 Z" fill="#008000" fill-rule="evenodd" fill-opacity="1" stroke="none"/>
<path clip-path="url(#clip351)" d="M380.692 680.289 L374.112 699.217 L354.064 699.637 L370.052 711.761 L364.228 730.941 L380.692 719.489 L397.156 730.941 L391.332 711.761 L407.32 699.637 L387.272 699.217 L380.692 680.289 Z" fill="#008000" fill-rule="evenodd" fill-opacity="1" stroke="none"/>
<path clip-path="url(#clip351)" d="M421.378 905.539 L414.798 924.467 L394.75 924.887 L410.738 937.011 L404.914 956.191 L421.378 944.739 L437.842 956.191 L432.018 937.011 L448.006 924.887 L427.958 924.467 L421.378 905.539 Z" fill="#008000" fill-rule="evenodd" fill-opacity="1" stroke="none"/>
<path clip-path="url(#clip351)" d="M462.064 1103.36 L455.484 1122.29 L435.436 1122.71 L451.424 1134.83 L445.6 1154.01 L462.064 1142.56 L478.528 1154.01 L472.704 1134.83 L488.692 1122.71 L468.644 1122.29 L462.064 1103.36 Z" fill="#008000" fill-rule="evenodd" fill-opacity="1" stroke="none"/>
<path clip-path="url(#clip351)" d="M502.751 1247.5 L496.171 1266.42 L476.123 1266.84 L492.111 1278.97 L486.287 1298.15 L502.751 1286.7 L519.215 1298.15 L513.391 1278.97 L529.379 1266.84 L509.331 1266.42 L502.751 1247.5 Z" fill="#008000" fill-rule="evenodd" fill-opacity="1" stroke="none"/>
<path clip-path="url(#clip351)" d="M543.437 1250.23 L536.857 1269.16 L516.809 1269.58 L532.797 1281.7 L526.973 1300.88 L543.437 1289.43 L559.901 1300.88 L554.077 1281.7 L570.065 1269.58 L550.017 1269.16 L543.437 1250.23 Z" fill="#008000" fill-rule="evenodd" fill-opacity="1" stroke="none"/>
<path clip-path="url(#clip351)" d="M584.123 1253.98 L577.543 1272.91 L557.495 1273.33 L573.483 1285.45 L567.659 1304.63 L584.123 1293.18 L600.587 1304.63 L594.763 1285.45 L610.751 1273.33 L590.703 1272.91 L584.123 1253.98 Z" fill="#008000" fill-rule="evenodd" fill-opacity="1" stroke="none"/>
<path clip-path="url(#clip351)" d="M624.809 1254.79 L618.229 1273.71 L598.181 1274.13 L614.169 1286.26 L608.345 1305.44 L624.809 1293.99 L641.273 1305.44 L635.449 1286.26 L651.437 1274.13 L631.389 1273.71 L624.809 1254.79 Z" fill="#008000" fill-rule="evenodd" fill-opacity="1" stroke="none"/>
<path clip-path="url(#clip351)" d="M665.496 1256.5 L658.916 1275.43 L638.868 1275.85 L654.856 1287.97 L649.032 1307.15 L665.496 1295.7 L681.96 1307.15 L676.136 1287.97 L692.124 1275.85 L672.076 1275.43 L665.496 1256.5 Z" fill="#008000" fill-rule="evenodd" fill-opacity="1" stroke="none"/>
<path clip-path="url(#clip351)" d="M706.182 1261.92 L699.602 1280.85 L679.554 1281.27 L695.542 1293.39 L689.718 1312.57 L706.182 1301.12 L722.646 1312.57 L716.822 1293.39 L732.81 1281.27 L712.762 1280.85 L706.182 1261.92 Z" fill="#008000" fill-rule="evenodd" fill-opacity="1" stroke="none"/>
<path clip-path="url(#clip351)" d="M746.868 1263.82 L740.288 1282.74 L720.24 1283.16 L736.228 1295.29 L730.404 1314.47 L746.868 1303.02 L763.332 1314.47 L757.508 1295.29 L773.496 1283.16 L753.448 1282.74 L746.868 1263.82 Z" fill="#008000" fill-rule="evenodd" fill-opacity="1" stroke="none"/>
<path clip-path="url(#clip351)" d="M787.555 1264.68 L780.975 1283.61 L760.927 1284.03 L776.915 1296.15 L771.091 1315.33 L787.555 1303.88 L804.019 1315.33 L798.195 1296.15 L814.183 1284.03 L794.135 1283.61 L787.555 1264.68 Z" fill="#008000" fill-rule="evenodd" fill-opacity="1" stroke="none"/>
<path clip-path="url(#clip351)" d="M828.241 1268.6 L821.661 1287.53 L801.613 1287.95 L817.601 1300.08 L811.777 1319.26 L828.241 1307.8 L844.705 1319.26 L838.881 1300.08 L854.869 1287.95 L834.821 1287.53 L828.241 1268.6 Z" fill="#008000" fill-rule="evenodd" fill-opacity="1" stroke="none"/>
<path clip-path="url(#clip351)" d="M868.927 1269.88 L862.347 1288.81 L842.299 1289.23 L858.287 1301.35 L852.463 1320.53 L868.927 1309.08 L885.391 1320.53 L879.567 1301.35 L895.555 1289.23 L875.507 1288.81 L868.927 1269.88 Z" fill="#008000" fill-rule="evenodd" fill-opacity="1" stroke="none"/>
<path clip-path="url(#clip351)" d="M909.613 1270.66 L903.033 1289.58 L882.985 1290 L898.973 1302.13 L893.149 1321.31 L909.613 1309.86 L926.077 1321.31 L920.253 1302.13 L936.241 1290 L916.193 1289.58 L909.613 1270.66 Z" fill="#008000" fill-rule="evenodd" fill-opacity="1" stroke="none"/>
<path clip-path="url(#clip351)" d="M950.3 1273.29 L943.72 1292.22 L923.672 1292.64 L939.66 1304.76 L933.836 1323.94 L950.3 1312.49 L966.764 1323.94 L960.94 1304.76 L976.928 1292.64 L956.88 1292.22 L950.3 1273.29 Z" fill="#008000" fill-rule="evenodd" fill-opacity="1" stroke="none"/>
<path clip-path="url(#clip351)" d="M990.986 1274.44 L984.406 1293.37 L964.358 1293.79 L980.346 1305.91 L974.522 1325.09 L990.986 1313.64 L1007.45 1325.09 L1001.63 1305.91 L1017.61 1293.79 L997.566 1293.37 L990.986 1274.44 Z" fill="#008000" fill-rule="evenodd" fill-opacity="1" stroke="none"/>
<path clip-path="url(#clip351)" d="M1031.67 1276.48 L1025.09 1295.41 L1005.04 1295.83 L1021.03 1307.95 L1015.21 1327.13 L1031.67 1315.68 L1048.14 1327.13 L1042.31 1307.95 L1058.3 1295.83 L1038.25 1295.41 L1031.67 1276.48 Z" fill="#008000" fill-rule="evenodd" fill-opacity="1" stroke="none"/>
<path clip-path="url(#clip351)" d="M1072.36 1277.79 L1065.78 1296.72 L1045.73 1297.14 L1061.72 1309.27 L1055.89 1328.45 L1072.36 1316.99 L1088.82 1328.45 L1083 1309.27 L1098.99 1297.14 L1078.94 1296.72 L1072.36 1277.79 Z" fill="#008000" fill-rule="evenodd" fill-opacity="1" stroke="none"/>
<path clip-path="url(#clip351)" d="M1113.04 1279.89 L1106.46 1298.82 L1086.42 1299.24 L1102.4 1311.37 L1096.58 1330.55 L1113.04 1319.09 L1129.51 1330.55 L1123.68 1311.37 L1139.67 1299.24 L1119.62 1298.82 L1113.04 1279.89 Z" fill="#008000" fill-rule="evenodd" fill-opacity="1" stroke="none"/>
<path clip-path="url(#clip351)" d="M1153.73 1282.03 L1147.15 1300.96 L1127.1 1301.38 L1143.09 1313.51 L1137.27 1332.69 L1153.73 1321.23 L1170.2 1332.69 L1164.37 1313.51 L1180.36 1301.38 L1160.31 1300.96 L1153.73 1282.03 Z" fill="#008000" fill-rule="evenodd" fill-opacity="1" stroke="none"/>
<path clip-path="url(#clip351)" d="M1194.42 1284.48 L1187.84 1303.4 L1167.79 1303.82 L1183.78 1315.95 L1177.95 1335.13 L1194.42 1323.68 L1210.88 1335.13 L1205.06 1315.95 L1221.05 1303.82 L1201 1303.4 L1194.42 1284.48 Z" fill="#008000" fill-rule="evenodd" fill-opacity="1" stroke="none"/>
<path clip-path="url(#clip351)" d="M1235.1 1284.88 L1228.52 1303.8 L1208.48 1304.22 L1224.46 1316.35 L1218.64 1335.53 L1235.1 1324.08 L1251.57 1335.53 L1245.74 1316.35 L1261.73 1304.22 L1241.68 1303.8 L1235.1 1284.88 Z" fill="#008000" fill-rule="evenodd" fill-opacity="1" stroke="none"/>
<path clip-path="url(#clip351)" d="M1275.79 1284.88 L1269.21 1303.8 L1249.16 1304.22 L1265.15 1316.35 L1259.33 1335.53 L1275.79 1324.08 L1292.25 1335.53 L1286.43 1316.35 L1302.42 1304.22 L1282.37 1303.8 L1275.79 1284.88 Z" fill="#008000" fill-rule="evenodd" fill-opacity="1" stroke="none"/>
<path clip-path="url(#clip351)" d="M1316.48 1284.88 L1309.9 1303.8 L1289.85 1304.22 L1305.84 1316.35 L1300.01 1335.53 L1316.48 1324.08 L1332.94 1335.53 L1327.12 1316.35 L1343.1 1304.22 L1323.06 1303.8 L1316.48 1284.88 Z" fill="#008000" fill-rule="evenodd" fill-opacity="1" stroke="none"/>
<path clip-path="url(#clip351)" d="M1357.16 1284.88 L1350.58 1303.8 L1330.53 1304.22 L1346.52 1316.35 L1340.7 1335.53 L1357.16 1324.08 L1373.63 1335.53 L1367.8 1316.35 L1383.79 1304.22 L1363.74 1303.8 L1357.16 1284.88 Z" fill="#008000" fill-rule="evenodd" fill-opacity="1" stroke="none"/>
<path clip-path="url(#clip351)" d="M1397.85 1284.88 L1391.27 1303.8 L1371.22 1304.22 L1387.21 1316.35 L1381.38 1335.53 L1397.85 1324.08 L1414.31 1335.53 L1408.49 1316.35 L1424.48 1304.22 L1404.43 1303.8 L1397.85 1284.88 Z" fill="#008000" fill-rule="evenodd" fill-opacity="1" stroke="none"/>
<path clip-path="url(#clip351)" d="M1438.54 1284.88 L1431.96 1303.8 L1411.91 1304.22 L1427.9 1316.35 L1422.07 1335.53 L1438.54 1324.08 L1455 1335.53 L1449.18 1316.35 L1465.16 1304.22 L1445.12 1303.8 L1438.54 1284.88 Z" fill="#008000" fill-rule="evenodd" fill-opacity="1" stroke="none"/>
<path clip-path="url(#clip351)" d="M1479.22 1284.88 L1472.64 1303.8 L1452.59 1304.22 L1468.58 1316.35 L1462.76 1335.53 L1479.22 1324.08 L1495.69 1335.53 L1489.86 1316.35 L1505.85 1304.22 L1485.8 1303.8 L1479.22 1284.88 Z" fill="#008000" fill-rule="evenodd" fill-opacity="1" stroke="none"/>
<path clip-path="url(#clip351)" d="M1519.91 1284.88 L1513.33 1303.8 L1493.28 1304.22 L1509.27 1316.35 L1503.44 1335.53 L1519.91 1324.08 L1536.37 1335.53 L1530.55 1316.35 L1546.54 1304.22 L1526.49 1303.8 L1519.91 1284.88 Z" fill="#008000" fill-rule="evenodd" fill-opacity="1" stroke="none"/>
<path clip-path="url(#clip351)" d="M1560.59 1284.88 L1554.01 1303.8 L1533.97 1304.22 L1549.95 1316.35 L1544.13 1335.53 L1560.59 1324.08 L1577.06 1335.53 L1571.23 1316.35 L1587.22 1304.22 L1567.17 1303.8 L1560.59 1284.88 Z" fill="#008000" fill-rule="evenodd" fill-opacity="1" stroke="none"/>
<path clip-path="url(#clip351)" d="M1601.28 1284.88 L1594.7 1303.8 L1574.65 1304.22 L1590.64 1316.35 L1584.82 1335.53 L1601.28 1324.08 L1617.74 1335.53 L1611.92 1316.35 L1627.91 1304.22 L1607.86 1303.8 L1601.28 1284.88 Z" fill="#008000" fill-rule="evenodd" fill-opacity="1" stroke="none"/>
<path clip-path="url(#clip351)" d="M1641.97 1284.88 L1635.39 1303.8 L1615.34 1304.22 L1631.33 1316.35 L1625.5 1335.53 L1641.97 1324.08 L1658.43 1335.53 L1652.61 1316.35 L1668.59 1304.22 L1648.55 1303.8 L1641.97 1284.88 Z" fill="#008000" fill-rule="evenodd" fill-opacity="1" stroke="none"/>
<path clip-path="url(#clip351)" d="M1682.65 1284.88 L1676.07 1303.8 L1656.02 1304.22 L1672.01 1316.35 L1666.19 1335.53 L1682.65 1324.08 L1699.12 1335.53 L1693.29 1316.35 L1709.28 1304.22 L1689.23 1303.8 L1682.65 1284.88 Z" fill="#008000" fill-rule="evenodd" fill-opacity="1" stroke="none"/>
<path clip-path="url(#clip351)" d="M1723.34 1284.88 L1716.76 1303.8 L1696.71 1304.22 L1712.7 1316.35 L1706.88 1335.53 L1723.34 1324.08 L1739.8 1335.53 L1733.98 1316.35 L1749.97 1304.22 L1729.92 1303.8 L1723.34 1284.88 Z" fill="#008000" fill-rule="evenodd" fill-opacity="1" stroke="none"/>
<path clip-path="url(#clip351)" d="M1764.03 1284.88 L1757.45 1303.8 L1737.4 1304.22 L1753.39 1316.35 L1747.56 1335.53 L1764.03 1324.08 L1780.49 1335.53 L1774.67 1316.35 L1790.65 1304.22 L1770.61 1303.8 L1764.03 1284.88 Z" fill="#008000" fill-rule="evenodd" fill-opacity="1" stroke="none"/>
<path clip-path="url(#clip351)" d="M1804.71 1284.88 L1798.13 1303.8 L1778.08 1304.22 L1794.07 1316.35 L1788.25 1335.53 L1804.71 1324.08 L1821.18 1335.53 L1815.35 1316.35 L1831.34 1304.22 L1811.29 1303.8 L1804.71 1284.88 Z" fill="#008000" fill-rule="evenodd" fill-opacity="1" stroke="none"/>
<path clip-path="url(#clip351)" d="M1845.4 1284.88 L1838.82 1303.8 L1818.77 1304.22 L1834.76 1316.35 L1828.93 1335.53 L1845.4 1324.08 L1861.86 1335.53 L1856.04 1316.35 L1872.03 1304.22 L1851.98 1303.8 L1845.4 1284.88 Z" fill="#008000" fill-rule="evenodd" fill-opacity="1" stroke="none"/>
<path clip-path="url(#clip351)" d="M1886.08 1284.88 L1879.5 1303.8 L1859.46 1304.22 L1875.44 1316.35 L1869.62 1335.53 L1886.08 1324.08 L1902.55 1335.53 L1896.72 1316.35 L1912.71 1304.22 L1892.66 1303.8 L1886.08 1284.88 Z" fill="#008000" fill-rule="evenodd" fill-opacity="1" stroke="none"/>
<path clip-path="url(#clip351)" d="M1926.77 1284.88 L1920.19 1303.8 L1900.14 1304.22 L1916.13 1316.35 L1910.31 1335.53 L1926.77 1324.08 L1943.23 1335.53 L1937.41 1316.35 L1953.4 1304.22 L1933.35 1303.8 L1926.77 1284.88 Z" fill="#008000" fill-rule="evenodd" fill-opacity="1" stroke="none"/>
<path clip-path="url(#clip351)" d="M1967.46 1284.88 L1960.88 1303.8 L1940.83 1304.22 L1956.82 1316.35 L1950.99 1335.53 L1967.46 1324.08 L1983.92 1335.53 L1978.1 1316.35 L1994.08 1304.22 L1974.04 1303.8 L1967.46 1284.88 Z" fill="#008000" fill-rule="evenodd" fill-opacity="1" stroke="none"/>
<path clip-path="url(#clip351)" d="M2008.14 1284.88 L2001.56 1303.8 L1981.52 1304.22 L1997.5 1316.35 L1991.68 1335.53 L2008.14 1324.08 L2024.61 1335.53 L2018.78 1316.35 L2034.77 1304.22 L2014.72 1303.8 L2008.14 1284.88 Z" fill="#008000" fill-rule="evenodd" fill-opacity="1" stroke="none"/>
<path clip-path="url(#clip351)" d="M2048.83 1284.88 L2042.25 1303.8 L2022.2 1304.22 L2038.19 1316.35 L2032.37 1335.53 L2048.83 1324.08 L2065.29 1335.53 L2059.47 1316.35 L2075.46 1304.22 L2055.41 1303.8 L2048.83 1284.88 Z" fill="#008000" fill-rule="evenodd" fill-opacity="1" stroke="none"/>
<path clip-path="url(#clip351)" d="M2089.52 1284.88 L2082.94 1303.8 L2062.89 1304.22 L2078.88 1316.35 L2073.05 1335.53 L2089.52 1324.08 L2105.98 1335.53 L2100.16 1316.35 L2116.14 1304.22 L2096.1 1303.8 L2089.52 1284.88 Z" fill="#008000" fill-rule="evenodd" fill-opacity="1" stroke="none"/>
<path clip-path="url(#clip351)" d="M2130.2 1284.88 L2123.62 1303.8 L2103.57 1304.22 L2119.56 1316.35 L2113.74 1335.53 L2130.2 1324.08 L2146.67 1335.53 L2140.84 1316.35 L2156.83 1304.22 L2136.78 1303.8 L2130.2 1284.88 Z" fill="#008000" fill-rule="evenodd" fill-opacity="1" stroke="none"/>
<path clip-path="url(#clip351)" d="M2170.89 1284.88 L2164.31 1303.8 L2144.26 1304.22 L2160.25 1316.35 L2154.42 1335.53 L2170.89 1324.08 L2187.35 1335.53 L2181.53 1316.35 L2197.52 1304.22 L2177.47 1303.8 L2170.89 1284.88 Z" fill="#008000" fill-rule="evenodd" fill-opacity="1" stroke="none"/>
<path clip-path="url(#clip351)" d="M2211.57 1284.88 L2204.99 1303.8 L2184.95 1304.22 L2200.93 1316.35 L2195.11 1335.53 L2211.57 1324.08 L2228.04 1335.53 L2222.21 1316.35 L2238.2 1304.22 L2218.15 1303.8 L2211.57 1284.88 Z" fill="#008000" fill-rule="evenodd" fill-opacity="1" stroke="none"/>
<path clip-path="url(#clip351)" d="M2252.26 1284.88 L2245.68 1303.8 L2225.63 1304.22 L2241.62 1316.35 L2235.8 1335.53 L2252.26 1324.08 L2268.72 1335.53 L2262.9 1316.35 L2278.89 1304.22 L2258.84 1303.8 L2252.26 1284.88 Z" fill="#008000" fill-rule="evenodd" fill-opacity="1" stroke="none"/>
<path clip-path="url(#clip351)" d="M2292.95 1284.88 L2286.37 1303.8 L2266.32 1304.22 L2282.31 1316.35 L2276.48 1335.53 L2292.95 1324.08 L2309.41 1335.53 L2303.59 1316.35 L2319.58 1304.22 L2299.53 1303.8 L2292.95 1284.88 Z" fill="#008000" fill-rule="evenodd" fill-opacity="1" stroke="none"/>
<path clip-path="url(#clip350)" d="M1324.2 618.292 L2282.31 618.292 L2282.31 90.6606 L1324.2 90.6606  Z" fill="#ffffff" fill-rule="evenodd" fill-opacity="1"/>
<polyline clip-path="url(#clip350)" style="stroke:#000000; stroke-linecap:round; stroke-linejoin:round; stroke-width:4; stroke-opacity:1; fill:none" points="1324.2,618.292 2282.31,618.292 2282.31,90.6606 1324.2,90.6606 1324.2,618.292 "/>
<path clip-path="url(#clip350)" d="M1418.13 282.302 L1366.4 252.435 L1366.4 192.702 L1418.13 162.835 L1469.85 192.702 L1469.85 252.435 Z" fill="#ff0000" fill-rule="evenodd" fill-opacity="1" stroke="none"/>
<path clip-path="url(#clip350)" d="M1575.46 203.428 Q1575.46 207.527 1569.61 207.527 L1556.43 207.527 Q1560.12 212.797 1560.12 220.585 Q1560.12 227.26 1557.37 233.526 Q1554.68 239.733 1550.34 244.066 Q1546.07 248.399 1540.68 251.034 Q1535.29 253.611 1530.02 253.611 Q1522 253.611 1517.03 248.165 Q1512.05 242.719 1512.05 234.638 Q1512.05 230.364 1513.51 225.621 Q1515.03 220.878 1517.9 216.486 Q1520.77 212.036 1524.52 208.464 Q1528.33 204.892 1533.25 202.725 Q1538.22 200.559 1543.43 200.559 L1570.78 200.559 Q1572.24 200.559 1573 200.676 Q1573.82 200.734 1574.64 201.437 Q1575.46 202.081 1575.46 203.428 M1552.45 219.18 Q1552.45 217.774 1552.28 216.545 Q1552.1 215.256 1551.46 213.558 Q1550.81 211.801 1549.7 210.572 Q1548.59 209.284 1546.42 208.405 Q1544.31 207.527 1541.44 207.527 Q1537.4 207.527 1532.95 209.752 Q1528.5 211.977 1525.11 217.481 Q1522.3 222.166 1520.89 228.256 Q1519.48 234.346 1519.48 237.976 Q1519.48 244.183 1522.47 247.579 Q1525.52 250.917 1530.14 250.917 Q1533.95 250.917 1538.28 248.34 Q1542.61 245.705 1545.95 240.728 Q1548.88 236.395 1550.64 230.071 Q1552.45 223.747 1552.45 219.18 Z" fill="#000000" fill-rule="nonzero" fill-opacity="1" /><path clip-path="url(#clip350)" d="M1592.81 222.283 Q1592.81 202.023 1600.36 185.685 Q1603.58 178.834 1608.09 173.096 Q1612.6 167.357 1615.59 164.839 Q1618.57 162.322 1619.39 162.322 Q1620.56 162.322 1620.62 163.493 Q1620.62 164.078 1619.04 165.542 Q1599.72 185.217 1599.78 222.283 Q1599.78 259.466 1618.57 278.38 Q1620.62 280.429 1620.62 281.073 Q1620.62 282.244 1619.39 282.244 Q1618.57 282.244 1615.7 279.844 Q1612.83 277.443 1608.38 271.939 Q1603.93 266.434 1600.71 259.7 Q1592.81 243.363 1592.81 222.283 Z" fill="#000000" fill-rule="nonzero" fill-opacity="1" /><path clip-path="url(#clip350)" d="M1716.93 171.808 Q1716.93 172.569 1716.75 173.037 Q1716.64 173.506 1716.17 173.74 Q1715.76 173.916 1715.47 173.974 Q1715.23 174.033 1714.53 174.091 Q1711.66 174.326 1709.26 175.087 Q1706.86 175.789 1704.81 177.195 Q1702.82 178.6 1701.7 179.537 Q1700.65 180.474 1698.78 182.348 L1697.14 184.046 L1667.39 218.184 Q1666.34 219.355 1665.69 221.932 L1661.48 238.854 Q1659.84 245.881 1659.84 246.408 Q1659.84 247.462 1660.42 247.813 Q1661.07 248.106 1663.06 248.282 L1667.62 248.575 Q1670.32 248.575 1670.73 249.043 Q1670.96 249.336 1670.96 249.863 Q1670.96 250.976 1670.49 251.561 Q1670.08 252.088 1669.67 252.205 Q1669.32 252.264 1668.68 252.264 L1653.34 251.912 L1638.23 252.264 Q1636.53 252.264 1636.53 250.917 Q1636.53 250.039 1636.65 249.57 Q1636.82 249.043 1637.35 248.867 Q1637.88 248.633 1638.29 248.633 Q1638.7 248.575 1639.81 248.575 Q1642.5 248.516 1643.85 248.516 Q1645.26 248.458 1646.6 248.106 Q1647.95 247.755 1648.42 247.521 Q1648.95 247.228 1649.53 246.232 Q1650.18 245.178 1650.35 244.359 Q1650.59 243.539 1651.05 241.489 Q1651.52 239.674 1653.98 229.778 Q1656.44 219.882 1656.44 219.648 Q1656.44 219.004 1655.97 217.599 L1641.22 178.132 Q1640.57 176.375 1640.04 175.672 Q1639.52 174.97 1637.76 174.56 Q1636 174.091 1632.49 174.091 Q1631.5 174.091 1631.03 174.033 Q1630.56 173.974 1630.15 173.681 Q1629.74 173.389 1629.74 172.745 Q1629.74 171.632 1630.21 171.105 Q1630.68 170.519 1631.03 170.461 Q1631.44 170.344 1632.02 170.344 Q1633.49 170.344 1638.7 170.519 Q1643.91 170.695 1645.43 170.695 L1660.54 170.344 Q1662.35 170.344 1662.35 171.691 Q1662.35 173.33 1661.71 173.74 Q1661.07 174.091 1659.49 174.091 Q1652.4 174.091 1652.4 176.961 Q1652.4 177.312 1653.1 179.01 L1666.28 214.612 L1694.09 182.582 L1694.5 182.114 Q1694.85 181.645 1695.15 181.294 Q1695.44 180.942 1695.91 180.298 Q1696.38 179.654 1696.61 179.127 Q1696.9 178.6 1697.14 177.956 Q1697.37 177.312 1697.37 176.843 Q1697.37 175.965 1696.84 175.38 Q1696.32 174.735 1695.5 174.501 Q1694.68 174.267 1694.09 174.208 Q1693.51 174.091 1693.04 174.091 Q1691.22 174.091 1691.22 172.627 Q1691.22 171.573 1691.69 171.046 Q1692.16 170.461 1692.51 170.402 Q1692.92 170.344 1693.51 170.344 Q1695.44 170.344 1699.48 170.519 Q1703.52 170.695 1705.51 170.695 Q1707.15 170.695 1710.49 170.519 Q1713.83 170.344 1715.35 170.344 Q1716.93 170.344 1716.93 171.808 Z" fill="#000000" fill-rule="nonzero" fill-opacity="1" /><path clip-path="url(#clip350)" d="M1730.86 281.073 Q1730.86 280.488 1732.38 279.024 Q1751.71 259.349 1751.71 222.283 Q1751.71 185.1 1733.14 166.303 Q1730.86 164.137 1730.86 163.493 Q1730.86 162.322 1732.03 162.322 Q1732.85 162.322 1735.72 164.722 Q1738.65 167.123 1743.04 172.627 Q1747.49 178.132 1750.77 184.866 Q1758.67 201.203 1758.67 222.283 Q1758.67 242.543 1751.12 258.881 Q1747.9 265.732 1743.39 271.47 Q1738.88 277.209 1735.9 279.727 Q1732.91 282.244 1732.03 282.244 Q1730.86 282.244 1730.86 281.073 Z" fill="#000000" fill-rule="nonzero" fill-opacity="1" /><path clip-path="url(#clip350)" d="M1808.6 252.264 L1808.6 248.575 Q1814.98 248.575 1816.44 247.813 Q1817.91 246.994 1817.91 243.129 L1817.91 210.982 Q1817.91 206.531 1816.33 205.419 Q1814.8 204.306 1808.6 204.306 L1808.6 200.559 L1825.46 199.27 L1825.46 211.86 Q1831.08 199.27 1843.2 199.27 Q1852.22 199.27 1855.79 203.721 Q1858.43 206.707 1858.95 210.045 Q1859.54 213.382 1859.54 222.049 L1859.54 244.944 Q1859.66 247.462 1861.59 248.048 Q1863.52 248.575 1868.91 248.575 L1868.91 252.264 Q1856.67 251.912 1855.44 251.912 Q1854.5 251.912 1841.92 252.264 L1841.92 248.575 Q1848.3 248.575 1849.76 247.813 Q1851.28 246.994 1851.28 243.129 L1851.28 215.198 Q1851.28 209.108 1849.41 205.536 Q1847.54 201.905 1842.38 201.905 Q1836.18 201.905 1831.2 207.117 Q1826.22 212.328 1826.22 221.112 L1826.22 243.129 Q1826.22 246.994 1827.69 247.813 Q1829.21 248.575 1835.53 248.575 L1835.53 252.264 Q1823.29 251.912 1822.12 251.912 Q1821.19 251.912 1808.6 252.264 Z" fill="#000000" fill-rule="nonzero" fill-opacity="1" /><path clip-path="url(#clip350)" d="M1885.27 245.823 Q1877.36 237.976 1877.36 226.616 Q1877.36 215.198 1885.09 206.883 Q1892.88 198.509 1904.01 198.509 Q1914.9 198.509 1922.69 206.824 Q1930.53 215.081 1930.53 226.616 Q1930.53 237.917 1922.63 245.764 Q1914.78 253.611 1903.89 253.611 Q1893.23 253.611 1885.27 245.823 M1887.32 225.621 Q1887.32 237.273 1890.36 242.543 Q1895.05 250.566 1904.01 250.566 Q1908.46 250.566 1912.15 248.165 Q1915.89 245.764 1917.94 241.724 Q1920.58 236.454 1920.58 225.621 Q1920.58 214.085 1917.42 208.991 Q1912.73 201.203 1903.89 201.203 Q1900.02 201.203 1896.22 203.252 Q1892.47 205.243 1890.19 209.225 Q1887.32 214.495 1887.32 225.621 Z" fill="#000000" fill-rule="nonzero" fill-opacity="1" /><path clip-path="url(#clip350)" d="M1934.35 252.264 L1934.35 248.575 Q1940.74 248.575 1942.2 247.813 Q1943.66 246.994 1943.66 243.129 L1943.66 210.865 Q1943.66 206.414 1942.14 205.36 Q1940.68 204.306 1934.82 204.306 L1934.82 200.559 L1951.57 199.27 L1951.57 243.246 Q1951.57 246.818 1952.86 247.696 Q1954.15 248.575 1960 248.575 L1960 252.264 Q1947.76 251.912 1947.53 251.912 Q1945.89 251.912 1934.35 252.264 M1939.39 178.366 Q1939.39 175.965 1941.2 174.033 Q1943.08 172.042 1945.71 172.042 Q1948.35 172.042 1950.22 173.857 Q1952.1 175.614 1952.1 178.424 Q1952.1 181.177 1950.22 182.992 Q1948.35 184.749 1945.71 184.749 Q1942.96 184.749 1941.15 182.816 Q1939.39 180.884 1939.39 178.366 Z" fill="#000000" fill-rule="nonzero" fill-opacity="1" /><path clip-path="url(#clip350)" d="M1970.6 250.683 L1970.6 234.873 Q1970.6 233.526 1970.66 233.057 Q1970.72 232.589 1971.07 232.238 Q1971.42 231.886 1972.12 231.886 Q1972.94 231.886 1973.23 232.238 Q1973.59 232.589 1973.82 233.936 Q1975.63 242.192 1979.5 246.584 Q1983.42 250.917 1990.51 250.917 Q1997.24 250.917 2000.64 247.931 Q2004.03 244.944 2004.03 240.026 Q2004.03 231.242 1991.56 229.017 Q1984.36 227.553 1981.37 226.616 Q1978.39 225.621 1975.75 223.454 Q1970.6 219.238 1970.6 213.265 Q1970.6 207.293 1975.11 202.901 Q1979.68 198.509 1989.75 198.509 Q1996.48 198.509 2001.05 201.905 Q2002.39 200.851 2003.1 199.973 Q2004.68 198.509 2005.5 198.509 Q2006.44 198.509 2006.61 199.153 Q2006.79 199.739 2006.79 201.437 L2006.79 213.5 Q2006.79 214.846 2006.73 215.315 Q2006.67 215.783 2006.32 216.135 Q2005.97 216.427 2005.21 216.427 Q2003.86 216.427 2003.8 215.315 Q2002.86 200.793 1989.75 200.793 Q1982.66 200.793 1979.5 203.545 Q1976.34 206.239 1976.34 209.928 Q1976.34 211.977 1977.27 213.558 Q1978.27 215.081 1979.5 216.018 Q1980.79 216.896 1983.13 217.774 Q1985.47 218.594 1986.88 218.887 Q1988.34 219.18 1991.09 219.765 Q2000.7 221.58 2004.74 225.504 Q2009.77 230.539 2009.77 236.922 Q2009.77 244.007 2004.97 248.809 Q2000.17 253.611 1990.51 253.611 Q1982.72 253.611 1977.27 248.399 Q1976.57 249.102 1976.04 249.746 Q1975.52 250.331 1975.28 250.566 Q1975.11 250.8 1975.05 250.976 Q1974.99 251.093 1974.87 251.21 Q1972.47 253.611 1971.89 253.611 Q1970.95 253.611 1970.77 252.966 Q1970.6 252.381 1970.6 250.683 Z" fill="#000000" fill-rule="nonzero" fill-opacity="1" /><path clip-path="url(#clip350)" d="M2014.47 267.137 Q2014.47 264.619 2015.93 263.272 Q2017.45 261.984 2019.5 261.984 Q2021.67 261.984 2023.07 263.331 Q2024.54 264.736 2024.54 267.02 Q2024.54 271.47 2019.85 272.056 Q2022.14 274.222 2025.47 274.222 Q2029.05 274.222 2031.92 271.587 Q2034.84 268.952 2036.07 266.434 Q2037.36 263.916 2039.18 259.349 Q2040.87 255.777 2042.16 252.264 L2024.19 208.464 Q2023.02 205.595 2021.2 204.95 Q2019.38 204.306 2014.47 204.306 L2014.47 200.559 Q2019.85 200.91 2026.12 200.91 Q2029.81 200.91 2039.18 200.559 L2039.18 204.306 Q2032.44 204.306 2032.44 207.41 Q2032.44 207.761 2033.15 209.576 L2046.5 241.841 L2058.62 212.328 Q2059.32 210.63 2059.32 209.459 Q2059.32 204.541 2053.7 204.306 L2053.7 200.559 Q2061.6 200.91 2064.12 200.91 Q2069.04 200.91 2073.08 200.559 L2073.08 204.306 Q2065.06 204.306 2061.95 211.977 L2040.82 263.155 Q2035.08 276.799 2025.47 276.857 Q2020.91 276.857 2017.69 274.047 Q2014.47 271.236 2014.47 267.137 Z" fill="#000000" fill-rule="nonzero" fill-opacity="1" /><circle clip-path="url(#clip350)" cx="1418.13" cy="354.476" r="53.76" fill="#0000ff" fill-rule="evenodd" fill-opacity="1" stroke="none"/>
<path clip-path="url(#clip350)" d="M1575.46 335.336 Q1575.46 339.435 1569.61 339.435 L1556.43 339.435 Q1560.12 344.705 1560.12 352.493 Q1560.12 359.168 1557.37 365.434 Q1554.68 371.641 1550.34 375.974 Q1546.07 380.307 1540.68 382.942 Q1535.29 385.518 1530.02 385.518 Q1522 385.518 1517.03 380.073 Q1512.05 374.627 1512.05 366.546 Q1512.05 362.272 1513.51 357.529 Q1515.03 352.785 1517.9 348.394 Q1520.77 343.944 1524.52 340.372 Q1528.33 336.8 1533.25 334.633 Q1538.22 332.467 1543.43 332.467 L1570.78 332.467 Q1572.24 332.467 1573 332.584 Q1573.82 332.642 1574.64 333.345 Q1575.46 333.989 1575.46 335.336 M1552.45 351.087 Q1552.45 349.682 1552.28 348.452 Q1552.1 347.164 1551.46 345.466 Q1550.81 343.709 1549.7 342.48 Q1548.59 341.191 1546.42 340.313 Q1544.31 339.435 1541.44 339.435 Q1537.4 339.435 1532.95 341.66 Q1528.5 343.885 1525.11 349.389 Q1522.3 354.074 1520.89 360.164 Q1519.48 366.253 1519.48 369.884 Q1519.48 376.091 1522.47 379.487 Q1525.52 382.825 1530.14 382.825 Q1533.95 382.825 1538.28 380.248 Q1542.61 377.613 1545.95 372.636 Q1548.88 368.303 1550.64 361.979 Q1552.45 355.655 1552.45 351.087 Z" fill="#000000" fill-rule="nonzero" fill-opacity="1" /><path clip-path="url(#clip350)" d="M1592.81 354.191 Q1592.81 333.93 1600.36 317.593 Q1603.58 310.742 1608.09 305.004 Q1612.6 299.265 1615.59 296.747 Q1618.57 294.229 1619.39 294.229 Q1620.56 294.229 1620.62 295.4 Q1620.62 295.986 1619.04 297.45 Q1599.72 317.125 1599.78 354.191 Q1599.78 391.374 1618.57 410.288 Q1620.62 412.337 1620.62 412.981 Q1620.62 414.152 1619.39 414.152 Q1618.57 414.152 1615.7 411.751 Q1612.83 409.351 1608.38 403.846 Q1603.93 398.342 1600.71 391.608 Q1592.81 375.271 1592.81 354.191 Z" fill="#000000" fill-rule="nonzero" fill-opacity="1" /><path clip-path="url(#clip350)" d="M1728.1 303.598 Q1728.1 304.652 1727.69 305.238 Q1727.34 305.765 1726.93 305.882 Q1726.52 305.941 1725.47 305.999 Q1717.09 306.409 1710.24 312.089 Q1708.54 313.553 1704.27 318.12 Q1700.05 322.688 1694.43 328.777 Q1688.87 334.867 1685.65 338.146 L1701.11 375.154 Q1701.75 376.618 1701.99 377.262 Q1702.28 377.847 1702.86 378.609 Q1703.51 379.37 1703.98 379.604 Q1704.5 379.838 1705.62 380.131 Q1706.79 380.365 1707.96 380.424 Q1709.19 380.424 1711.41 380.483 Q1712.12 380.483 1712.41 380.541 Q1712.76 380.541 1713.17 380.892 Q1713.58 381.185 1713.58 381.888 Q1713.58 382.942 1713.11 383.527 Q1712.7 384.054 1712.29 384.113 Q1711.94 384.172 1711.3 384.172 Q1709.77 384.172 1704.62 383.996 Q1699.47 383.82 1698 383.82 L1682.9 384.172 Q1681.08 384.172 1681.08 382.708 Q1681.08 381.946 1681.2 381.537 Q1681.37 381.068 1681.78 380.892 Q1682.19 380.658 1682.49 380.6 Q1682.78 380.541 1683.48 380.483 Q1685.65 380.248 1687.29 379.604 Q1688.99 378.902 1689.69 378.199 Q1690.45 377.496 1690.45 376.969 L1689.86 375.271 L1677.74 346.637 L1666.91 358.407 L1654.67 371.348 Q1651.45 374.803 1651.45 376.735 Q1651.45 379.956 1656.25 380.483 Q1657.72 380.6 1657.72 381.771 Q1657.72 382.883 1657.25 383.469 Q1656.84 383.996 1656.43 384.113 Q1656.08 384.172 1655.55 384.172 Q1653.38 384.172 1648.82 383.996 Q1644.31 383.82 1642.08 383.82 Q1640.21 383.82 1636.4 383.996 Q1632.6 384.172 1630.84 384.172 Q1630.14 384.172 1629.73 383.82 Q1629.32 383.469 1629.32 383.118 L1629.26 382.825 Q1629.26 382.005 1629.38 381.537 Q1629.55 381.068 1630.02 380.834 Q1630.55 380.6 1630.78 380.6 Q1631.02 380.541 1631.89 380.483 Q1636.87 380.19 1641.09 378.257 Q1645.36 376.325 1649.52 371.816 Q1649.87 371.523 1650.28 371.172 Q1650.75 370.821 1651.1 370.528 L1676.4 343.299 L1662.23 309.805 Q1661.58 308.283 1661 307.639 Q1660.41 306.936 1658.6 306.468 Q1656.78 305.999 1653.27 305.999 Q1652.27 305.999 1651.8 305.941 Q1651.33 305.882 1650.92 305.589 Q1650.51 305.296 1650.51 304.652 Q1650.51 303.54 1650.92 303.013 Q1651.39 302.427 1651.74 302.369 Q1652.15 302.252 1652.68 302.252 Q1654.15 302.252 1659.36 302.427 Q1664.57 302.603 1666.09 302.603 Q1668.61 302.603 1673.64 302.427 Q1678.74 302.252 1681.2 302.252 Q1683.01 302.252 1683.01 303.715 Q1683.01 304.652 1682.6 305.179 Q1682.19 305.706 1681.78 305.823 Q1681.37 305.941 1680.61 305.999 Q1678.33 306.233 1676.57 306.995 Q1674.87 307.697 1674.17 308.4 Q1673.53 309.044 1673.53 309.454 L1674.11 311.035 L1684.18 334.867 L1703.63 314.021 Q1705.91 311.445 1705.91 309.688 Q1705.91 306.526 1701.11 305.999 Q1699.64 305.765 1699.64 304.652 Q1699.64 303.54 1700.11 303.013 Q1700.58 302.427 1700.93 302.369 Q1701.34 302.252 1701.93 302.252 Q1704.09 302.252 1708.54 302.427 Q1713.05 302.603 1715.28 302.603 Q1717.15 302.603 1720.96 302.427 Q1724.76 302.252 1726.52 302.252 Q1727.22 302.252 1727.63 302.603 Q1728.04 302.896 1728.04 303.247 L1728.1 303.598 Z" fill="#000000" fill-rule="nonzero" fill-opacity="1" /><path clip-path="url(#clip350)" d="M1740.05 412.981 Q1740.05 412.396 1741.57 410.932 Q1760.89 391.257 1760.89 354.191 Q1760.89 317.008 1742.33 298.211 Q1740.05 296.045 1740.05 295.4 Q1740.05 294.229 1741.22 294.229 Q1742.04 294.229 1744.91 296.63 Q1747.83 299.031 1752.23 304.535 Q1756.68 310.04 1759.96 316.773 Q1767.86 333.111 1767.86 354.191 Q1767.86 374.451 1760.31 390.788 Q1757.09 397.639 1752.58 403.378 Q1748.07 409.116 1745.08 411.634 Q1742.1 414.152 1741.22 414.152 Q1740.05 414.152 1740.05 412.981 Z" fill="#000000" fill-rule="nonzero" fill-opacity="1" /><path clip-path="url(#clip350)" d="M1817.78 384.172 L1817.78 380.483 Q1824.17 380.483 1825.63 379.721 Q1827.09 378.902 1827.09 375.037 L1827.09 342.889 Q1827.09 338.439 1825.51 337.327 Q1823.99 336.214 1817.78 336.214 L1817.78 332.467 L1834.65 331.178 L1834.65 343.768 Q1840.27 331.178 1852.39 331.178 Q1861.41 331.178 1864.98 335.629 Q1867.62 338.615 1868.14 341.953 Q1868.73 345.29 1868.73 353.957 L1868.73 376.852 Q1868.84 379.37 1870.78 379.956 Q1872.71 380.483 1878.1 380.483 L1878.1 384.172 Q1865.86 383.82 1864.63 383.82 Q1863.69 383.82 1851.1 384.172 L1851.1 380.483 Q1857.49 380.483 1858.95 379.721 Q1860.47 378.902 1860.47 375.037 L1860.47 347.106 Q1860.47 341.016 1858.6 337.444 Q1856.72 333.813 1851.57 333.813 Q1845.36 333.813 1840.39 339.025 Q1835.41 344.236 1835.41 353.02 L1835.41 375.037 Q1835.41 378.902 1836.87 379.721 Q1838.4 380.483 1844.72 380.483 L1844.72 384.172 Q1832.48 383.82 1831.31 383.82 Q1830.37 383.82 1817.78 384.172 Z" fill="#000000" fill-rule="nonzero" fill-opacity="1" /><path clip-path="url(#clip350)" d="M1894.46 377.73 Q1886.55 369.884 1886.55 358.524 Q1886.55 347.106 1894.28 338.791 Q1902.07 330.417 1913.19 330.417 Q1924.08 330.417 1931.87 338.732 Q1939.72 346.988 1939.72 358.524 Q1939.72 369.825 1931.81 377.672 Q1923.97 385.518 1913.08 385.518 Q1902.42 385.518 1894.46 377.73 M1896.51 357.529 Q1896.51 369.181 1899.55 374.451 Q1904.23 382.473 1913.19 382.473 Q1917.64 382.473 1921.33 380.073 Q1925.08 377.672 1927.13 373.631 Q1929.76 368.361 1929.76 357.529 Q1929.76 345.993 1926.6 340.899 Q1921.92 333.111 1913.08 333.111 Q1909.21 333.111 1905.41 335.16 Q1901.66 337.151 1899.37 341.133 Q1896.51 346.403 1896.51 357.529 Z" fill="#000000" fill-rule="nonzero" fill-opacity="1" /><path clip-path="url(#clip350)" d="M1943.54 384.172 L1943.54 380.483 Q1949.92 380.483 1951.39 379.721 Q1952.85 378.902 1952.85 375.037 L1952.85 342.772 Q1952.85 338.322 1951.33 337.268 Q1949.87 336.214 1944.01 336.214 L1944.01 332.467 L1960.76 331.178 L1960.76 375.154 Q1960.76 378.726 1962.04 379.604 Q1963.33 380.483 1969.19 380.483 L1969.19 384.172 Q1956.95 383.82 1956.72 383.82 Q1955.08 383.82 1943.54 384.172 M1948.58 310.274 Q1948.58 307.873 1950.39 305.941 Q1952.27 303.95 1954.9 303.95 Q1957.54 303.95 1959.41 305.765 Q1961.28 307.522 1961.28 310.332 Q1961.28 313.084 1959.41 314.9 Q1957.54 316.656 1954.9 316.656 Q1952.15 316.656 1950.33 314.724 Q1948.58 312.792 1948.58 310.274 Z" fill="#000000" fill-rule="nonzero" fill-opacity="1" /><path clip-path="url(#clip350)" d="M1979.79 382.591 L1979.79 366.78 Q1979.79 365.434 1979.84 364.965 Q1979.9 364.497 1980.25 364.145 Q1980.61 363.794 1981.31 363.794 Q1982.13 363.794 1982.42 364.145 Q1982.77 364.497 1983.01 365.843 Q1984.82 374.1 1988.69 378.492 Q1992.61 382.825 1999.7 382.825 Q2006.43 382.825 2009.83 379.838 Q2013.22 376.852 2013.22 371.933 Q2013.22 363.15 2000.75 360.925 Q1993.55 359.461 1990.56 358.524 Q1987.57 357.529 1984.94 355.362 Q1979.79 351.146 1979.79 345.173 Q1979.79 339.2 1984.3 334.809 Q1988.86 330.417 1998.93 330.417 Q2005.67 330.417 2010.24 333.813 Q2011.58 332.759 2012.28 331.881 Q2013.87 330.417 2014.69 330.417 Q2015.62 330.417 2015.8 331.061 Q2015.97 331.647 2015.97 333.345 L2015.97 345.407 Q2015.97 346.754 2015.92 347.223 Q2015.86 347.691 2015.51 348.042 Q2015.15 348.335 2014.39 348.335 Q2013.05 348.335 2012.99 347.223 Q2012.05 332.701 1998.93 332.701 Q1991.85 332.701 1988.69 335.453 Q1985.52 338.146 1985.52 341.835 Q1985.52 343.885 1986.46 345.466 Q1987.46 346.988 1988.69 347.925 Q1989.98 348.804 1992.32 349.682 Q1994.66 350.502 1996.06 350.795 Q1997.53 351.087 2000.28 351.673 Q2009.88 353.488 2013.92 357.411 Q2018.96 362.447 2018.96 368.83 Q2018.96 375.915 2014.16 380.717 Q2009.36 385.518 1999.7 385.518 Q1991.91 385.518 1986.46 380.307 Q1985.76 381.01 1985.23 381.654 Q1984.71 382.239 1984.47 382.473 Q1984.3 382.708 1984.24 382.883 Q1984.18 383 1984.06 383.118 Q1981.66 385.518 1981.07 385.518 Q1980.14 385.518 1979.96 384.874 Q1979.79 384.289 1979.79 382.591 Z" fill="#000000" fill-rule="nonzero" fill-opacity="1" /><path clip-path="url(#clip350)" d="M2026.05 357.763 Q2026.05 346.461 2033.31 338.439 Q2040.58 330.417 2051 330.417 Q2061.54 330.417 2066.98 337.268 Q2072.49 344.119 2072.49 353.957 Q2072.49 355.772 2072.02 356.123 Q2071.55 356.475 2069.5 356.475 L2036.01 356.475 Q2036.01 368.713 2039.64 374.451 Q2044.67 382.473 2053.16 382.473 Q2054.34 382.473 2055.74 382.239 Q2057.15 382.005 2060.02 381.01 Q2062.89 379.956 2065.4 377.203 Q2067.92 374.451 2069.38 370.118 Q2069.74 368.42 2070.91 368.479 Q2072.49 368.479 2072.49 369.884 Q2072.49 370.938 2071.32 373.339 Q2070.2 375.681 2068.04 378.492 Q2065.87 381.302 2061.66 383.41 Q2057.5 385.518 2052.46 385.518 Q2041.92 385.518 2033.96 377.555 Q2026.05 369.533 2026.05 357.763 M2036.12 353.957 L2064.58 353.957 Q2064.58 351.439 2064.11 348.628 Q2063.7 345.817 2062.42 341.953 Q2061.19 338.029 2058.26 335.57 Q2055.33 333.111 2051 333.111 Q2049.07 333.111 2046.96 333.93 Q2044.91 334.75 2042.39 336.741 Q2039.87 338.732 2038.12 343.241 Q2036.36 347.75 2036.12 353.957 Z" fill="#000000" fill-rule="nonzero" fill-opacity="1" /><path clip-path="url(#clip350)" d="M2078.77 384.172 L2078.77 380.483 Q2085.16 380.483 2086.62 379.721 Q2088.08 378.902 2088.08 375.037 L2088.08 312.675 Q2088.08 308.224 2086.5 307.112 Q2084.98 305.999 2078.77 305.999 L2078.77 302.252 L2095.99 300.963 L2095.99 375.037 Q2095.99 378.902 2097.51 379.721 Q2099.03 380.483 2105.36 380.483 L2105.36 384.172 Q2103.89 384.172 2100.85 384.054 Q2097.8 383.937 2095.58 383.879 Q2093.35 383.82 2092.07 383.82 Q2090.66 383.82 2078.77 384.172 Z" fill="#000000" fill-rule="nonzero" fill-opacity="1" /><path clip-path="url(#clip350)" d="M2113.1 357.763 Q2113.1 346.461 2120.36 338.439 Q2127.62 330.417 2138.04 330.417 Q2148.58 330.417 2154.03 337.268 Q2159.53 344.119 2159.53 353.957 Q2159.53 355.772 2159.07 356.123 Q2158.6 356.475 2156.55 356.475 L2123.05 356.475 Q2123.05 368.713 2126.68 374.451 Q2131.72 382.473 2140.21 382.473 Q2141.38 382.473 2142.79 382.239 Q2144.19 382.005 2147.06 381.01 Q2149.93 379.956 2152.45 377.203 Q2154.97 374.451 2156.43 370.118 Q2156.78 368.42 2157.95 368.479 Q2159.53 368.479 2159.53 369.884 Q2159.53 370.938 2158.36 373.339 Q2157.25 375.681 2155.08 378.492 Q2152.92 381.302 2148.7 383.41 Q2144.54 385.518 2139.51 385.518 Q2128.97 385.518 2121 377.555 Q2113.1 369.533 2113.1 357.763 M2123.17 353.957 L2151.63 353.957 Q2151.63 351.439 2151.16 348.628 Q2150.75 345.817 2149.46 341.953 Q2148.23 338.029 2145.31 335.57 Q2142.38 333.111 2138.04 333.111 Q2136.11 333.111 2134 333.93 Q2131.95 334.75 2129.44 336.741 Q2126.92 338.732 2125.16 343.241 Q2123.41 347.75 2123.17 353.957 Z" fill="#000000" fill-rule="nonzero" fill-opacity="1" /><path clip-path="url(#clip350)" d="M2165.82 382.591 L2165.82 366.78 Q2165.82 365.434 2165.88 364.965 Q2165.94 364.497 2166.29 364.145 Q2166.64 363.794 2167.34 363.794 Q2168.16 363.794 2168.46 364.145 Q2168.81 364.497 2169.04 365.843 Q2170.86 374.1 2174.72 378.492 Q2178.64 382.825 2185.73 382.825 Q2192.46 382.825 2195.86 379.838 Q2199.26 376.852 2199.26 371.933 Q2199.26 363.15 2186.78 360.925 Q2179.58 359.461 2176.59 358.524 Q2173.61 357.529 2170.97 355.362 Q2165.82 351.146 2165.82 345.173 Q2165.82 339.2 2170.33 334.809 Q2174.9 330.417 2184.97 330.417 Q2191.7 330.417 2196.27 333.813 Q2197.62 332.759 2198.32 331.881 Q2199.9 330.417 2200.72 330.417 Q2201.66 330.417 2201.83 331.061 Q2202.01 331.647 2202.01 333.345 L2202.01 345.407 Q2202.01 346.754 2201.95 347.223 Q2201.89 347.691 2201.54 348.042 Q2201.19 348.335 2200.43 348.335 Q2199.08 348.335 2199.02 347.223 Q2198.08 332.701 2184.97 332.701 Q2177.88 332.701 2174.72 335.453 Q2171.56 338.146 2171.56 341.835 Q2171.56 343.885 2172.5 345.466 Q2173.49 346.988 2174.72 347.925 Q2176.01 348.804 2178.35 349.682 Q2180.69 350.502 2182.1 350.795 Q2183.56 351.087 2186.31 351.673 Q2195.92 353.488 2199.96 357.411 Q2204.99 362.447 2204.99 368.83 Q2204.99 375.915 2200.19 380.717 Q2195.39 385.518 2185.73 385.518 Q2177.94 385.518 2172.5 380.307 Q2171.79 381.01 2171.27 381.654 Q2170.74 382.239 2170.5 382.473 Q2170.33 382.708 2170.27 382.883 Q2170.21 383 2170.09 383.118 Q2167.69 385.518 2167.11 385.518 Q2166.17 385.518 2166 384.874 Q2165.82 384.289 2165.82 382.591 Z" fill="#000000" fill-rule="nonzero" fill-opacity="1" /><path clip-path="url(#clip350)" d="M2212.09 382.591 L2212.09 366.78 Q2212.09 365.434 2212.15 364.965 Q2212.2 364.497 2212.56 364.145 Q2212.91 363.794 2213.61 363.794 Q2214.43 363.794 2214.72 364.145 Q2215.07 364.497 2215.31 365.843 Q2217.12 374.1 2220.99 378.492 Q2224.91 382.825 2232 382.825 Q2238.73 382.825 2242.13 379.838 Q2245.52 376.852 2245.52 371.933 Q2245.52 363.15 2233.05 360.925 Q2225.85 359.461 2222.86 358.524 Q2219.87 357.529 2217.24 355.362 Q2212.09 351.146 2212.09 345.173 Q2212.09 339.2 2216.6 334.809 Q2221.16 330.417 2231.23 330.417 Q2237.97 330.417 2242.54 333.813 Q2243.88 332.759 2244.59 331.881 Q2246.17 330.417 2246.99 330.417 Q2247.92 330.417 2248.1 331.061 Q2248.27 331.647 2248.27 333.345 L2248.27 345.407 Q2248.27 346.754 2248.22 347.223 Q2248.16 347.691 2247.81 348.042 Q2247.45 348.335 2246.69 348.335 Q2245.35 348.335 2245.29 347.223 Q2244.35 332.701 2231.23 332.701 Q2224.15 332.701 2220.99 335.453 Q2217.83 338.146 2217.83 341.835 Q2217.83 343.885 2218.76 345.466 Q2219.76 346.988 2220.99 347.925 Q2222.28 348.804 2224.62 349.682 Q2226.96 350.502 2228.37 350.795 Q2229.83 351.087 2232.58 351.673 Q2242.18 353.488 2246.23 357.411 Q2251.26 362.447 2251.26 368.83 Q2251.26 375.915 2246.46 380.717 Q2241.66 385.518 2232 385.518 Q2224.21 385.518 2218.76 380.307 Q2218.06 381.01 2217.53 381.654 Q2217.01 382.239 2216.77 382.473 Q2216.6 382.708 2216.54 382.883 Q2216.48 383 2216.36 383.118 Q2213.96 385.518 2213.38 385.518 Q2212.44 385.518 2212.26 384.874 Q2212.09 384.289 2212.09 382.591 Z" fill="#000000" fill-rule="nonzero" fill-opacity="1" /><path clip-path="url(#clip350)" d="M1418.13 426.651 L1404.09 467.03 L1361.32 467.926 L1395.43 493.791 L1383 534.708 L1418.13 510.277 L1453.25 534.708 L1440.82 493.791 L1474.93 467.926 L1432.16 467.03 L1418.13 426.651 Z" fill="#008000" fill-rule="evenodd" fill-opacity="1" stroke="none"/>
<path clip-path="url(#clip350)" d="M1567.01 463.141 L1565.99 464.822 Q1559.63 462.076 1551.72 457.69 Q1543.81 462.076 1537.46 464.822 L1536.47 463.141 Q1543.4 457.116 1551.72 452.484 Q1560.12 457.157 1567.01 463.141 Z" fill="#000000" fill-rule="nonzero" fill-opacity="1" /><path clip-path="url(#clip350)" d="M1575.46 480.471 Q1575.46 484.57 1569.61 484.57 L1556.43 484.57 Q1560.12 489.84 1560.12 497.628 Q1560.12 504.303 1557.37 510.569 Q1554.68 516.776 1550.34 521.109 Q1546.07 525.442 1540.68 528.077 Q1535.29 530.654 1530.02 530.654 Q1522 530.654 1517.03 525.208 Q1512.05 519.762 1512.05 511.681 Q1512.05 507.407 1513.51 502.664 Q1515.03 497.921 1517.9 493.529 Q1520.77 489.079 1524.52 485.507 Q1528.33 481.935 1533.25 479.768 Q1538.22 477.602 1543.43 477.602 L1570.78 477.602 Q1572.24 477.602 1573 477.719 Q1573.82 477.777 1574.64 478.48 Q1575.46 479.124 1575.46 480.471 M1552.45 496.223 Q1552.45 494.817 1552.28 493.587 Q1552.1 492.299 1551.46 490.601 Q1550.81 488.844 1549.7 487.615 Q1548.59 486.327 1546.42 485.448 Q1544.31 484.57 1541.44 484.57 Q1537.4 484.57 1532.95 486.795 Q1528.5 489.02 1525.11 494.524 Q1522.3 499.209 1520.89 505.299 Q1519.48 511.389 1519.48 515.019 Q1519.48 521.226 1522.47 524.622 Q1525.52 527.96 1530.14 527.96 Q1533.95 527.96 1538.28 525.383 Q1542.61 522.748 1545.95 517.771 Q1548.88 513.438 1550.64 507.114 Q1552.45 500.79 1552.45 496.223 Z" fill="#000000" fill-rule="nonzero" fill-opacity="1" /><path clip-path="url(#clip350)" d="M1638.23 529.072 L1638.23 505.064 Q1638.23 503.718 1638.29 503.249 Q1638.35 502.781 1638.7 502.429 Q1639.05 502.078 1639.76 502.078 Q1641.1 502.078 1641.22 503.308 Q1641.57 515.195 1648.66 521.753 Q1655.62 528.253 1667.57 528.253 Q1674.77 528.253 1679.22 523.1 Q1683.67 517.888 1683.67 511.096 Q1683.67 504.596 1679.92 500.029 Q1678.34 497.979 1676.35 496.691 Q1674.42 495.344 1673.19 494.934 Q1672.02 494.524 1669.74 493.939 Q1654.86 490.367 1653.93 489.957 Q1646.84 487.556 1642.51 481.525 Q1638.23 475.435 1638.23 467.998 Q1638.23 458.395 1644.97 451.603 Q1651.76 444.752 1661.6 444.752 Q1666.52 444.752 1670.61 446.333 Q1674.77 447.855 1676.47 449.261 Q1678.17 450.666 1680.8 453.184 L1684.96 446.333 Q1685.9 444.752 1686.78 444.752 Q1687.71 444.752 1687.89 445.337 Q1688.12 445.864 1688.12 447.621 L1688.12 471.746 Q1688.12 473.093 1688.06 473.561 Q1688.01 474.03 1687.6 474.323 Q1687.24 474.615 1686.54 474.615 Q1685.37 474.615 1685.08 473.21 Q1681.74 448.148 1661.71 448.148 Q1654.86 448.148 1650.35 452.774 Q1645.9 457.341 1645.9 463.841 Q1645.9 469.111 1649.18 473.444 Q1652.46 477.719 1658.02 479.066 L1673.37 482.755 Q1681.04 484.57 1686.19 491.362 Q1691.34 498.155 1691.34 506.997 Q1691.34 517.186 1684.67 524.564 Q1678.05 531.942 1667.69 531.942 Q1660.25 531.942 1654.51 529.482 Q1648.77 527.023 1645.67 523.568 Q1643.27 527.55 1641.69 529.775 L1641.34 530.361 Q1640.4 531.942 1639.52 531.942 Q1638.58 531.942 1638.41 531.356 Q1638.23 530.771 1638.23 529.072 Z" fill="#000000" fill-rule="nonzero" fill-opacity="1" /><path clip-path="url(#clip350)" d="M1714.2 451.134 L1714.2 447.387 Q1718.42 447.738 1731.94 447.738 Q1745.35 447.738 1749.57 447.387 L1749.57 451.134 L1746.7 451.134 Q1740.2 451.134 1738.68 452.247 Q1737.21 453.301 1737.21 456.756 L1737.21 502.429 Q1737.21 510.452 1739.44 516.014 Q1741.66 521.519 1745.12 523.978 Q1748.57 526.437 1751.38 527.374 Q1754.25 528.253 1757 528.253 Q1766.14 528.253 1773.05 520.992 Q1780.02 513.731 1780.02 501.61 L1780.02 459.976 Q1780.02 458.161 1779.78 457.107 Q1779.55 456.053 1778.49 454.413 Q1777.5 452.774 1774.75 451.954 Q1771.99 451.134 1767.66 451.134 L1767.66 447.387 Q1780.6 447.738 1781.95 447.738 Q1783.12 447.738 1796.06 447.387 L1796.06 451.134 Q1791.73 451.134 1788.98 451.896 Q1786.22 452.657 1785.23 454.355 Q1784.23 456.053 1783.94 457.283 Q1783.71 458.454 1783.71 460.445 L1783.71 498.858 Q1783.71 504.713 1783.35 507.114 Q1781.77 517.537 1774.34 524.739 Q1766.96 531.942 1756.77 531.942 Q1744.41 531.942 1735.46 523.275 Q1726.55 514.551 1726.55 501.961 L1726.55 456.756 Q1726.55 453.301 1725.03 452.247 Q1723.51 451.134 1717.07 451.134 L1714.2 451.134 Z" fill="#000000" fill-rule="nonzero" fill-opacity="1" /><path clip-path="url(#clip350)" d="M1814.33 529.307 L1814.33 525.618 L1817.19 525.618 Q1823.69 525.618 1825.16 524.564 Q1826.68 523.451 1826.68 519.938 L1826.68 456.756 Q1826.68 453.301 1825.16 452.247 Q1823.64 451.134 1817.19 451.134 L1814.33 451.134 L1814.33 447.387 L1851.98 447.387 Q1865.03 447.387 1874.11 453.828 Q1883.25 460.211 1883.25 468.994 Q1883.25 475.728 1877.33 480.998 Q1871.42 486.268 1862.28 488.552 Q1874.17 492.651 1876.92 502.429 L1878.44 512.033 Q1878.91 515.487 1879.21 517.244 Q1879.56 519.001 1880.08 521.402 Q1880.61 523.802 1881.14 524.974 Q1881.72 526.086 1882.54 527.316 Q1883.36 528.487 1884.42 528.897 Q1885.53 529.307 1886.99 529.307 Q1889.75 529.307 1892.09 526.847 Q1894.43 524.388 1894.9 518.65 Q1895.13 516.717 1896.36 516.717 Q1897.88 516.717 1897.88 518.65 Q1897.88 520.348 1897.42 522.339 Q1896.95 524.271 1895.78 526.555 Q1894.66 528.838 1892.2 530.361 Q1889.75 531.942 1886.52 531.942 Q1877.16 531.942 1871.42 526.906 Q1869.02 524.739 1867.9 521.929 Q1866.85 519.118 1866.67 516.893 Q1866.5 514.668 1866.5 509.749 Q1866.5 502.781 1865.74 499.736 Q1865.03 496.691 1861.93 493.705 Q1857.72 489.606 1850.75 489.606 L1836.99 489.606 L1836.99 519.938 Q1836.99 523.393 1838.45 524.505 Q1839.97 525.618 1846.47 525.618 L1849.34 525.618 L1849.34 529.307 Q1845.01 528.955 1831.83 528.955 Q1818.66 528.955 1814.33 529.307 M1836.99 486.971 L1850.28 486.971 Q1856.66 486.971 1860.94 485.448 Q1865.27 483.867 1867.32 481.056 Q1869.37 478.246 1870.13 475.435 Q1870.89 472.566 1870.89 468.994 Q1870.89 464.778 1869.95 461.616 Q1869.02 458.454 1866.97 456.58 Q1864.92 454.706 1862.87 453.535 Q1860.82 452.305 1857.66 451.837 Q1854.49 451.369 1852.33 451.251 Q1850.16 451.134 1846.71 451.134 Q1840.85 451.134 1839.62 451.369 Q1838.27 451.486 1837.75 452.13 Q1837.22 452.774 1837.1 453.535 Q1836.99 454.238 1836.99 455.936 L1836.99 486.971 Z" fill="#000000" fill-rule="nonzero" fill-opacity="1" /><path clip-path="url(#clip350)" d="M1901.25 529.307 L1901.25 525.618 L1904.12 525.618 Q1910.62 525.618 1912.08 524.564 Q1913.6 523.451 1913.6 519.938 L1913.6 457.107 Q1913.6 453.652 1912.08 452.598 Q1910.56 451.486 1904.12 451.486 L1901.25 451.486 L1901.25 447.738 L1968.76 447.738 L1972.1 474.732 L1969.12 474.732 Q1968.3 467.881 1967.18 463.958 Q1966.13 459.976 1963.49 456.931 Q1960.92 453.886 1956.64 452.715 Q1952.43 451.486 1945.58 451.486 L1930.12 451.486 Q1926.02 451.486 1925.14 452.364 Q1924.26 453.184 1924.26 456.287 L1924.26 485.038 L1935.04 485.038 Q1943.29 485.038 1945.63 482.169 Q1947.98 479.3 1947.98 471.043 L1951.02 471.043 L1951.02 502.781 L1947.98 502.781 Q1947.98 494.641 1945.63 491.714 Q1943.29 488.786 1935.04 488.786 L1924.26 488.786 L1924.26 520.816 Q1924.26 523.92 1925.14 524.798 Q1926.08 525.618 1930.12 525.618 L1946.1 525.618 Q1951.26 525.618 1955 524.974 Q1958.81 524.271 1961.44 522.631 Q1964.08 520.933 1965.84 519.001 Q1967.65 517.068 1968.88 513.614 Q1970.17 510.1 1970.87 506.88 Q1971.63 503.659 1972.45 498.389 L1975.44 498.389 L1970.4 529.307 L1901.25 529.307 Z" fill="#000000" fill-rule="nonzero" fill-opacity="1" /><path clip-path="url(#clip350)" d="M2069.63 430.501 L2068.61 432.181 Q2062.25 429.435 2054.34 425.049 Q2046.43 429.435 2040.08 432.181 L2039.09 430.501 Q2046.02 424.475 2054.34 419.844 Q2062.75 424.516 2069.63 430.501 Z" fill="#000000" fill-rule="nonzero" fill-opacity="1" /><path clip-path="url(#clip350)" d="M2078.96 460.445 Q2078.96 461.967 2078.32 464.895 Q2076.27 473.151 2068.6 478.831 Q2067.31 479.885 2065.02 481.232 Q2067.78 483.047 2070.18 486.385 Q2073.75 491.889 2073.75 499.326 Q2073.75 502.781 2072.81 506.997 Q2070.18 516.776 2060.92 523.802 Q2051.61 530.654 2040.55 530.654 Q2034.57 530.654 2030.48 527.491 Q2026.43 524.271 2024.85 518.884 L2016.71 551.734 Q2016.54 552.553 2015.48 552.553 L2014.9 552.553 Q2013.67 552.553 2013.67 551.148 L2032.17 477.367 Q2033.4 472.39 2035.39 467.706 Q2037.38 463.021 2040.14 458.805 Q2042.95 454.589 2046.17 451.486 Q2049.39 448.324 2053.37 446.508 Q2057.35 444.635 2061.57 444.635 Q2070.41 444.635 2075.45 450.666 Q2078.96 454.94 2078.96 460.445 M2072.23 458.337 Q2072.23 454.706 2070.76 452.188 Q2067.78 447.387 2061.45 447.387 Q2057.65 447.387 2054.01 449.143 Q2050.44 450.842 2047.57 453.769 Q2044.7 456.697 2042.24 460.679 Q2039.79 464.661 2037.97 468.994 Q2036.21 473.269 2035.04 477.953 L2027.84 506.997 Q2027.14 510.1 2027.14 512.852 Q2027.14 519.411 2030.77 523.685 Q2034.4 527.96 2040.66 527.96 Q2048.98 527.96 2056.12 521.753 Q2062.33 516.19 2064.91 506.411 Q2066.37 500.263 2066.37 495.988 Q2066.37 491.304 2064.67 487.673 Q2063.44 484.746 2061.04 482.989 Q2056.59 484.57 2052.08 484.57 Q2049.92 484.57 2048.74 484.511 Q2047.63 484.453 2045.99 484.219 Q2044.41 483.984 2043.65 483.34 Q2042.95 482.696 2042.95 481.701 Q2042.95 481.115 2043.06 480.881 Q2043.3 479.944 2044.06 479.3 Q2044.82 478.656 2045.7 478.363 Q2046.58 478.012 2048.04 477.836 Q2049.56 477.66 2050.56 477.66 Q2051.56 477.602 2053.25 477.602 Q2057.24 477.602 2061.28 479.183 Q2062.8 478.363 2064.44 476.899 Q2069.65 472.039 2071.41 464.309 Q2072.23 461.44 2072.23 458.337 M2057.47 480.998 Q2055.01 480.354 2053.14 480.354 Q2046.29 480.354 2045.93 481.466 Q2045.93 481.583 2046.17 481.701 Q2046.4 481.759 2046.93 481.818 Q2047.51 481.818 2047.98 481.876 Q2048.51 481.935 2049.39 481.935 Q2050.27 481.935 2050.74 481.935 Q2051.26 481.935 2052.2 481.935 Q2054.54 481.935 2057.47 480.998 Z" fill="#000000" fill-rule="nonzero" fill-opacity="1" /></svg>
