<?xml version="1.0" encoding="utf-8"?>
<svg xmlns="http://www.w3.org/2000/svg" xmlns:xlink="http://www.w3.org/1999/xlink" width="600" height="400" viewBox="0 0 2400 1600">
<defs>
  <clipPath id="clip920">
    <rect x="0" y="0" width="2400" height="1600"/>
  </clipPath>
</defs>
<path clip-path="url(#clip920)" d="M0 1600 L2400 1600 L2400 0 L0 0  Z" fill="#ffffff" fill-rule="evenodd" fill-opacity="1"/>
<defs>
  <clipPath id="clip921">
    <rect x="252" y="47" width="2101" height="1338"/>
  </clipPath>
</defs>
<path clip-path="url(#clip920)" d="M252.415 1384.3 L2352.76 1384.3 L2352.76 47.2441 L252.415 47.2441  Z" fill="#ffffff" fill-rule="evenodd" fill-opacity="1"/>
<polyline clip-path="url(#clip921)" style="stroke:#000000; stroke-linecap:round; stroke-linejoin:round; stroke-width:2; stroke-opacity:0.1; fill:none" points="594.924,1384.3 594.924,47.2441 "/>
<polyline clip-path="url(#clip921)" style="stroke:#000000; stroke-linecap:round; stroke-linejoin:round; stroke-width:2; stroke-opacity:0.1; fill:none" points="1161.05,1384.3 1161.05,47.2441 "/>
<polyline clip-path="url(#clip921)" style="stroke:#000000; stroke-linecap:round; stroke-linejoin:round; stroke-width:2; stroke-opacity:0.1; fill:none" points="1727.18,1384.3 1727.18,47.2441 "/>
<polyline clip-path="url(#clip921)" style="stroke:#000000; stroke-linecap:round; stroke-linejoin:round; stroke-width:2; stroke-opacity:0.1; fill:none" points="2293.31,1384.3 2293.31,47.2441 "/>
<polyline clip-path="url(#clip921)" style="stroke:#000000; stroke-linecap:round; stroke-linejoin:round; stroke-width:2; stroke-opacity:0.1; fill:none" points="252.415,1375.79 2352.76,1375.79 "/>
<polyline clip-path="url(#clip921)" style="stroke:#000000; stroke-linecap:round; stroke-linejoin:round; stroke-width:2; stroke-opacity:0.1; fill:none" points="252.415,1087.36 2352.76,1087.36 "/>
<polyline clip-path="url(#clip921)" style="stroke:#000000; stroke-linecap:round; stroke-linejoin:round; stroke-width:2; stroke-opacity:0.1; fill:none" points="252.415,798.927 2352.76,798.927 "/>
<polyline clip-path="url(#clip921)" style="stroke:#000000; stroke-linecap:round; stroke-linejoin:round; stroke-width:2; stroke-opacity:0.1; fill:none" points="252.415,510.496 2352.76,510.496 "/>
<polyline clip-path="url(#clip921)" style="stroke:#000000; stroke-linecap:round; stroke-linejoin:round; stroke-width:2; stroke-opacity:0.1; fill:none" points="252.415,222.065 2352.76,222.065 "/>
<polyline clip-path="url(#clip920)" style="stroke:#000000; stroke-linecap:round; stroke-linejoin:round; stroke-width:4; stroke-opacity:1; fill:none" points="252.415,1384.3 2352.76,1384.3 "/>
<polyline clip-path="url(#clip920)" style="stroke:#000000; stroke-linecap:round; stroke-linejoin:round; stroke-width:4; stroke-opacity:1; fill:none" points="594.924,1384.3 594.924,1365.4 "/>
<polyline clip-path="url(#clip920)" style="stroke:#000000; stroke-linecap:round; stroke-linejoin:round; stroke-width:4; stroke-opacity:1; fill:none" points="1161.05,1384.3 1161.05,1365.4 "/>
<polyline clip-path="url(#clip920)" style="stroke:#000000; stroke-linecap:round; stroke-linejoin:round; stroke-width:4; stroke-opacity:1; fill:none" points="1727.18,1384.3 1727.18,1365.4 "/>
<polyline clip-path="url(#clip920)" style="stroke:#000000; stroke-linecap:round; stroke-linejoin:round; stroke-width:4; stroke-opacity:1; fill:none" points="2293.31,1384.3 2293.31,1365.4 "/>
<path clip-path="url(#clip920)" d="M586.903 1462.4 L611.382 1462.4 L611.382 1468.3 L578.465 1468.3 L578.465 1462.4 Q582.458 1458.27 589.333 1451.32 Q596.243 1444.34 598.014 1442.33 Q601.382 1438.54 602.701 1435.94 Q604.056 1433.3 604.056 1430.77 Q604.056 1426.63 601.139 1424.03 Q598.257 1421.43 593.604 1421.43 Q590.306 1421.43 586.625 1422.57 Q582.979 1423.72 578.813 1426.04 L578.813 1418.96 Q583.049 1417.26 586.729 1416.39 Q590.41 1415.52 593.465 1415.52 Q601.521 1415.52 606.312 1419.55 Q611.104 1423.58 611.104 1430.31 Q611.104 1433.51 609.889 1436.39 Q608.708 1439.24 605.549 1443.13 Q604.681 1444.13 600.028 1448.96 Q595.375 1453.75 586.903 1462.4 Z" fill="#000000" fill-rule="nonzero" fill-opacity="1" /><path clip-path="url(#clip920)" d="M1165.57 1422.57 L1147.86 1450.24 L1165.57 1450.24 L1165.57 1422.57 M1163.73 1416.46 L1172.55 1416.46 L1172.55 1450.24 L1179.94 1450.24 L1179.94 1456.08 L1172.55 1456.08 L1172.55 1468.3 L1165.57 1468.3 L1165.57 1456.08 L1142.16 1456.08 L1142.16 1449.31 L1163.73 1416.46 Z" fill="#000000" fill-rule="nonzero" fill-opacity="1" /><path clip-path="url(#clip920)" d="M1727.79 1439.58 Q1723.07 1439.58 1720.29 1442.81 Q1717.55 1446.04 1717.55 1451.67 Q1717.55 1457.26 1720.29 1460.52 Q1723.07 1463.75 1727.79 1463.75 Q1732.51 1463.75 1735.26 1460.52 Q1738.03 1457.26 1738.03 1451.67 Q1738.03 1446.04 1735.26 1442.81 Q1732.51 1439.58 1727.79 1439.58 M1741.71 1417.61 L1741.71 1423.99 Q1739.08 1422.74 1736.37 1422.08 Q1733.69 1421.43 1731.05 1421.43 Q1724.11 1421.43 1720.43 1426.11 Q1716.78 1430.8 1716.26 1440.28 Q1718.31 1437.26 1721.4 1435.66 Q1724.49 1434.03 1728.21 1434.03 Q1736.02 1434.03 1740.53 1438.79 Q1745.08 1443.51 1745.08 1451.67 Q1745.08 1459.65 1740.36 1464.48 Q1735.64 1469.31 1727.79 1469.31 Q1718.8 1469.31 1714.04 1462.43 Q1709.28 1455.52 1709.28 1442.43 Q1709.28 1430.14 1715.12 1422.85 Q1720.95 1415.52 1730.78 1415.52 Q1733.42 1415.52 1736.09 1416.04 Q1738.8 1416.56 1741.71 1417.61 Z" fill="#000000" fill-rule="nonzero" fill-opacity="1" /><path clip-path="url(#clip920)" d="M2293.31 1443.68 Q2288.31 1443.68 2285.43 1446.36 Q2282.58 1449.03 2282.58 1453.72 Q2282.58 1458.4 2285.43 1461.08 Q2288.31 1463.75 2293.31 1463.75 Q2298.31 1463.75 2301.19 1461.08 Q2304.08 1458.37 2304.08 1453.72 Q2304.08 1449.03 2301.19 1446.36 Q2298.35 1443.68 2293.31 1443.68 M2286.3 1440.7 Q2281.78 1439.58 2279.25 1436.49 Q2276.75 1433.4 2276.75 1428.96 Q2276.75 1422.74 2281.16 1419.13 Q2285.6 1415.52 2293.31 1415.52 Q2301.06 1415.52 2305.47 1419.13 Q2309.87 1422.74 2309.87 1428.96 Q2309.87 1433.4 2307.34 1436.49 Q2304.84 1439.58 2300.36 1440.7 Q2305.43 1441.88 2308.24 1445.31 Q2311.09 1448.75 2311.09 1453.72 Q2311.09 1461.25 2306.47 1465.28 Q2301.89 1469.31 2293.31 1469.31 Q2284.74 1469.31 2280.12 1465.28 Q2275.53 1461.25 2275.53 1453.72 Q2275.53 1448.75 2278.38 1445.31 Q2281.23 1441.88 2286.3 1440.7 M2283.73 1429.62 Q2283.73 1433.65 2286.23 1435.9 Q2288.76 1438.16 2293.31 1438.16 Q2297.83 1438.16 2300.36 1435.9 Q2302.93 1433.65 2302.93 1429.62 Q2302.93 1425.59 2300.36 1423.33 Q2297.83 1421.08 2293.31 1421.08 Q2288.76 1421.08 2286.23 1423.33 Q2283.73 1425.59 2283.73 1429.62 Z" fill="#000000" fill-rule="nonzero" fill-opacity="1" /><path clip-path="url(#clip920)" d="M1179.41 1537.02 L1179.41 1508.97 L1187.93 1508.97 L1187.93 1581 L1179.41 1581 L1179.41 1573.23 Q1176.73 1577.86 1172.61 1580.12 Q1168.54 1582.35 1162.79 1582.35 Q1153.4 1582.35 1147.47 1574.85 Q1141.59 1567.35 1141.59 1555.12 Q1141.59 1542.9 1147.47 1535.4 Q1153.4 1527.9 1162.79 1527.9 Q1168.54 1527.9 1172.61 1530.17 Q1176.73 1532.39 1179.41 1537.02 M1150.39 1555.12 Q1150.39 1564.52 1154.23 1569.89 Q1158.12 1575.22 1164.88 1575.22 Q1171.64 1575.22 1175.53 1569.89 Q1179.41 1564.52 1179.41 1555.12 Q1179.41 1545.73 1175.53 1540.4 Q1171.64 1535.03 1164.88 1535.03 Q1158.12 1535.03 1154.23 1540.4 Q1150.39 1545.73 1150.39 1555.12 Z" fill="#000000" fill-rule="nonzero" fill-opacity="1" /><path clip-path="url(#clip920)" d="M1249.83 1552.95 L1249.83 1557.12 L1210.66 1557.12 Q1211.22 1565.91 1215.94 1570.54 Q1220.71 1575.12 1229.18 1575.12 Q1234.09 1575.12 1238.67 1573.92 Q1243.3 1572.72 1247.84 1570.31 L1247.84 1578.36 Q1243.26 1580.31 1238.44 1581.33 Q1233.63 1582.35 1228.67 1582.35 Q1216.27 1582.35 1209 1575.12 Q1201.78 1567.9 1201.78 1555.59 Q1201.78 1542.86 1208.63 1535.4 Q1215.53 1527.9 1227.19 1527.9 Q1237.66 1527.9 1243.72 1534.66 Q1249.83 1541.37 1249.83 1552.95 M1241.31 1550.45 Q1241.22 1543.46 1237.38 1539.29 Q1233.58 1535.12 1227.29 1535.12 Q1220.16 1535.12 1215.85 1539.15 Q1211.59 1543.18 1210.94 1550.49 L1241.31 1550.45 Z" fill="#000000" fill-rule="nonzero" fill-opacity="1" /><path clip-path="url(#clip920)" d="M1297.93 1554.48 Q1297.93 1545.22 1294.09 1540.12 Q1290.29 1535.03 1283.4 1535.03 Q1276.54 1535.03 1272.7 1540.12 Q1268.91 1545.22 1268.91 1554.48 Q1268.91 1563.69 1272.7 1568.78 Q1276.54 1573.87 1283.4 1573.87 Q1290.29 1573.87 1294.09 1568.78 Q1297.93 1563.69 1297.93 1554.48 M1306.45 1574.57 Q1306.45 1587.81 1300.57 1594.24 Q1294.69 1600.73 1282.56 1600.73 Q1278.07 1600.73 1274.09 1600.03 Q1270.11 1599.38 1266.36 1597.99 L1266.36 1589.71 Q1270.11 1591.74 1273.77 1592.72 Q1277.42 1593.69 1281.22 1593.69 Q1289.6 1593.69 1293.77 1589.29 Q1297.93 1584.94 1297.93 1576.1 L1297.93 1571.88 Q1295.29 1576.47 1291.17 1578.74 Q1287.05 1581 1281.31 1581 Q1271.78 1581 1265.94 1573.74 Q1260.11 1566.47 1260.11 1554.48 Q1260.11 1542.44 1265.94 1535.17 Q1271.78 1527.9 1281.31 1527.9 Q1287.05 1527.9 1291.17 1530.17 Q1295.29 1532.44 1297.93 1537.02 L1297.93 1529.15 L1306.45 1529.15 L1306.45 1574.57 Z" fill="#000000" fill-rule="nonzero" fill-opacity="1" /><path clip-path="url(#clip920)" d="M1354.04 1537.12 Q1352.61 1536.28 1350.9 1535.91 Q1349.23 1535.49 1347.19 1535.49 Q1339.97 1535.49 1336.08 1540.22 Q1332.24 1544.89 1332.24 1553.69 L1332.24 1581 L1323.67 1581 L1323.67 1529.15 L1332.24 1529.15 L1332.24 1537.21 Q1334.92 1532.49 1339.23 1530.22 Q1343.53 1527.9 1349.69 1527.9 Q1350.57 1527.9 1351.64 1528.04 Q1352.7 1528.13 1354 1528.37 L1354.04 1537.12 Z" fill="#000000" fill-rule="nonzero" fill-opacity="1" /><path clip-path="url(#clip920)" d="M1405.25 1552.95 L1405.25 1557.12 L1366.08 1557.12 Q1366.64 1565.91 1371.36 1570.54 Q1376.13 1575.12 1384.6 1575.12 Q1389.51 1575.12 1394.09 1573.92 Q1398.72 1572.72 1403.26 1570.31 L1403.26 1578.36 Q1398.67 1580.31 1393.86 1581.33 Q1389.04 1582.35 1384.09 1582.35 Q1371.68 1582.35 1364.41 1575.12 Q1357.19 1567.9 1357.19 1555.59 Q1357.19 1542.86 1364.04 1535.4 Q1370.94 1527.9 1382.61 1527.9 Q1393.07 1527.9 1399.14 1534.66 Q1405.25 1541.37 1405.25 1552.95 M1396.73 1550.45 Q1396.64 1543.46 1392.79 1539.29 Q1389 1535.12 1382.7 1535.12 Q1375.57 1535.12 1371.27 1539.15 Q1367.01 1543.18 1366.36 1550.49 L1396.73 1550.45 Z" fill="#000000" fill-rule="nonzero" fill-opacity="1" /><path clip-path="url(#clip920)" d="M1463.58 1552.95 L1463.58 1557.12 L1424.41 1557.12 Q1424.97 1565.91 1429.69 1570.54 Q1434.46 1575.12 1442.93 1575.12 Q1447.84 1575.12 1452.42 1573.92 Q1457.05 1572.72 1461.59 1570.31 L1461.59 1578.36 Q1457.01 1580.31 1452.19 1581.33 Q1447.38 1582.35 1442.42 1582.35 Q1430.02 1582.35 1422.75 1575.12 Q1415.52 1567.9 1415.52 1555.59 Q1415.52 1542.86 1422.38 1535.4 Q1429.27 1527.9 1440.94 1527.9 Q1451.4 1527.9 1457.47 1534.66 Q1463.58 1541.37 1463.58 1552.95 M1455.06 1550.45 Q1454.97 1543.46 1451.13 1539.29 Q1447.33 1535.12 1441.03 1535.12 Q1433.9 1535.12 1429.6 1539.15 Q1425.34 1543.18 1424.69 1550.49 L1455.06 1550.45 Z" fill="#000000" fill-rule="nonzero" fill-opacity="1" /><polyline clip-path="url(#clip920)" style="stroke:#000000; stroke-linecap:round; stroke-linejoin:round; stroke-width:4; stroke-opacity:1; fill:none" points="252.415,1384.3 252.415,47.2441 "/>
<polyline clip-path="url(#clip920)" style="stroke:#000000; stroke-linecap:round; stroke-linejoin:round; stroke-width:4; stroke-opacity:1; fill:none" points="252.415,1375.79 271.313,1375.79 "/>
<polyline clip-path="url(#clip920)" style="stroke:#000000; stroke-linecap:round; stroke-linejoin:round; stroke-width:4; stroke-opacity:1; fill:none" points="252.415,1087.36 271.313,1087.36 "/>
<polyline clip-path="url(#clip920)" style="stroke:#000000; stroke-linecap:round; stroke-linejoin:round; stroke-width:4; stroke-opacity:1; fill:none" points="252.415,798.927 271.313,798.927 "/>
<polyline clip-path="url(#clip920)" style="stroke:#000000; stroke-linecap:round; stroke-linejoin:round; stroke-width:4; stroke-opacity:1; fill:none" points="252.415,510.496 271.313,510.496 "/>
<polyline clip-path="url(#clip920)" style="stroke:#000000; stroke-linecap:round; stroke-linejoin:round; stroke-width:4; stroke-opacity:1; fill:none" points="252.415,222.065 271.313,222.065 "/>
<path clip-path="url(#clip920)" d="M198.499 1354.49 Q193.082 1354.49 190.339 1359.83 Q187.631 1365.15 187.631 1375.84 Q187.631 1386.5 190.339 1391.85 Q193.082 1397.16 198.499 1397.16 Q203.95 1397.16 206.658 1391.85 Q209.401 1386.5 209.401 1375.84 Q209.401 1365.15 206.658 1359.83 Q203.95 1354.49 198.499 1354.49 M198.499 1348.93 Q207.214 1348.93 211.797 1355.84 Q216.415 1362.72 216.415 1375.84 Q216.415 1388.93 211.797 1395.84 Q207.214 1402.72 198.499 1402.72 Q189.783 1402.72 185.165 1395.84 Q180.582 1388.93 180.582 1375.84 Q180.582 1362.72 185.165 1355.84 Q189.783 1348.93 198.499 1348.93 Z" fill="#000000" fill-rule="nonzero" fill-opacity="1" /><path clip-path="url(#clip920)" d="M185.061 1061.44 L212.596 1061.44 L212.596 1067.34 L191.485 1067.34 L191.485 1080.05 Q193.013 1079.53 194.54 1079.28 Q196.068 1079.01 197.596 1079.01 Q206.276 1079.01 211.346 1083.76 Q216.415 1088.52 216.415 1096.65 Q216.415 1105.01 211.207 1109.67 Q205.999 1114.28 196.52 1114.28 Q193.256 1114.28 189.853 1113.73 Q186.485 1113.17 182.874 1112.06 L182.874 1105.01 Q185.999 1106.72 189.332 1107.55 Q192.665 1108.38 196.381 1108.38 Q202.388 1108.38 205.895 1105.22 Q209.401 1102.06 209.401 1096.65 Q209.401 1091.23 205.895 1088.07 Q202.388 1084.91 196.381 1084.91 Q193.568 1084.91 190.756 1085.53 Q187.978 1086.16 185.061 1087.48 L185.061 1061.44 Z" fill="#000000" fill-rule="nonzero" fill-opacity="1" /><path clip-path="url(#clip920)" d="M139.471 818.944 L150.93 818.944 L150.93 779.395 L138.464 781.895 L138.464 775.507 L150.86 773.007 L157.874 773.007 L157.874 818.944 L169.332 818.944 L169.332 824.847 L139.471 824.847 L139.471 818.944 Z" fill="#000000" fill-rule="nonzero" fill-opacity="1" /><path clip-path="url(#clip920)" d="M198.499 777.625 Q193.082 777.625 190.339 782.972 Q187.631 788.284 187.631 798.979 Q187.631 809.638 190.339 814.986 Q193.082 820.298 198.499 820.298 Q203.95 820.298 206.658 814.986 Q209.401 809.638 209.401 798.979 Q209.401 788.284 206.658 782.972 Q203.95 777.625 198.499 777.625 M198.499 772.069 Q207.214 772.069 211.797 778.979 Q216.415 785.854 216.415 798.979 Q216.415 812.069 211.797 818.979 Q207.214 825.854 198.499 825.854 Q189.783 825.854 185.165 818.979 Q180.582 812.069 180.582 798.979 Q180.582 785.854 185.165 778.979 Q189.783 772.069 198.499 772.069 Z" fill="#000000" fill-rule="nonzero" fill-opacity="1" /><path clip-path="url(#clip920)" d="M140.964 530.513 L152.423 530.513 L152.423 490.964 L139.957 493.464 L139.957 487.076 L152.353 484.576 L159.367 484.576 L159.367 530.513 L170.825 530.513 L170.825 536.416 L140.964 536.416 L140.964 530.513 Z" fill="#000000" fill-rule="nonzero" fill-opacity="1" /><path clip-path="url(#clip920)" d="M185.061 484.576 L212.596 484.576 L212.596 490.478 L191.485 490.478 L191.485 503.187 Q193.013 502.666 194.54 502.423 Q196.068 502.145 197.596 502.145 Q206.276 502.145 211.346 506.902 Q216.415 511.659 216.415 519.784 Q216.415 528.152 211.207 532.805 Q205.999 537.423 196.52 537.423 Q193.256 537.423 189.853 536.867 Q186.485 536.311 182.874 535.2 L182.874 528.152 Q185.999 529.853 189.332 530.686 Q192.665 531.52 196.381 531.52 Q202.388 531.52 205.895 528.36 Q209.401 525.2 209.401 519.784 Q209.401 514.367 205.895 511.207 Q202.388 508.048 196.381 508.048 Q193.568 508.048 190.756 508.673 Q187.978 509.298 185.061 510.617 L185.061 484.576 Z" fill="#000000" fill-rule="nonzero" fill-opacity="1" /><path clip-path="url(#clip920)" d="M144.298 242.082 L168.777 242.082 L168.777 247.985 L135.86 247.985 L135.86 242.082 Q139.853 237.95 146.728 231.006 Q153.638 224.026 155.409 222.013 Q158.777 218.228 160.096 215.624 Q161.45 212.985 161.45 210.45 Q161.45 206.318 158.534 203.714 Q155.652 201.11 150.999 201.11 Q147.7 201.11 144.02 202.256 Q140.374 203.402 136.207 205.728 L136.207 198.645 Q140.443 196.943 144.124 196.075 Q147.805 195.207 150.86 195.207 Q158.916 195.207 163.707 199.235 Q168.499 203.263 168.499 209.999 Q168.499 213.193 167.284 216.075 Q166.103 218.922 162.943 222.811 Q162.075 223.818 157.423 228.644 Q152.77 233.436 144.298 242.082 Z" fill="#000000" fill-rule="nonzero" fill-opacity="1" /><path clip-path="url(#clip920)" d="M198.499 200.763 Q193.082 200.763 190.339 206.11 Q187.631 211.422 187.631 222.117 Q187.631 232.776 190.339 238.124 Q193.082 243.436 198.499 243.436 Q203.95 243.436 206.658 238.124 Q209.401 232.776 209.401 222.117 Q209.401 211.422 206.658 206.11 Q203.95 200.763 198.499 200.763 M198.499 195.207 Q207.214 195.207 211.797 202.117 Q216.415 208.992 216.415 222.117 Q216.415 235.207 211.797 242.117 Q207.214 248.992 198.499 248.992 Q189.783 248.992 185.165 242.117 Q180.582 235.207 180.582 222.117 Q180.582 208.992 185.165 202.117 Q189.783 195.207 198.499 195.207 Z" fill="#000000" fill-rule="nonzero" fill-opacity="1" /><path clip-path="url(#clip920)" d="M51.0688 779.869 L55.2354 779.869 L55.2354 819.035 Q64.0316 818.48 68.6613 813.758 Q73.2446 808.989 73.2446 800.517 Q73.2446 795.61 72.0409 791.026 Q70.8372 786.397 68.4298 781.86 L76.4853 781.86 Q78.4297 786.443 79.4482 791.258 Q80.4667 796.072 80.4667 801.026 Q80.4667 813.433 73.2446 820.702 Q66.0224 827.924 53.7076 827.924 Q40.9762 827.924 33.5225 821.072 Q26.0226 814.174 26.0226 802.508 Q26.0226 792.045 32.7818 785.98 Q39.4947 779.869 51.0688 779.869 M48.5688 788.387 Q41.5781 788.48 37.4114 792.322 Q33.2448 796.119 33.2448 802.415 Q33.2448 809.545 37.2725 813.85 Q41.3003 818.109 48.6151 818.758 L48.5688 788.387 Z" fill="#000000" fill-rule="nonzero" fill-opacity="1" /><path clip-path="url(#clip920)" d="M35.2355 735.841 Q34.4022 737.276 34.0318 738.989 Q33.6151 740.656 33.6151 742.693 Q33.6151 749.915 38.3373 753.804 Q43.0132 757.647 51.8095 757.647 L79.1242 757.647 L79.1242 766.212 L27.2726 766.212 L27.2726 757.647 L35.3281 757.647 Q30.6059 754.962 28.3374 750.656 Q26.0226 746.351 26.0226 740.193 Q26.0226 739.314 26.1615 738.249 Q26.2541 737.184 26.4856 735.888 L35.2355 735.841 Z" fill="#000000" fill-rule="nonzero" fill-opacity="1" /><path clip-path="url(#clip920)" d="M35.2355 698.527 Q34.4022 699.962 34.0318 701.675 Q33.6151 703.341 33.6151 705.379 Q33.6151 712.601 38.3373 716.49 Q43.0132 720.332 51.8095 720.332 L79.1242 720.332 L79.1242 728.897 L27.2726 728.897 L27.2726 720.332 L35.3281 720.332 Q30.6059 717.647 28.3374 713.341 Q26.0226 709.036 26.0226 702.879 Q26.0226 701.999 26.1615 700.934 Q26.2541 699.869 26.4856 698.573 L35.2355 698.527 Z" fill="#000000" fill-rule="nonzero" fill-opacity="1" /><path clip-path="url(#clip920)" d="M33.2448 671.582 Q33.2448 678.434 38.6151 682.416 Q43.9392 686.397 53.2447 686.397 Q62.5502 686.397 67.9205 682.462 Q73.2446 678.481 73.2446 671.582 Q73.2446 664.777 67.8742 660.795 Q62.5039 656.814 53.2447 656.814 Q44.0318 656.814 38.6614 660.795 Q33.2448 664.777 33.2448 671.582 M26.0226 671.582 Q26.0226 660.471 33.2448 654.129 Q40.467 647.786 53.2447 647.786 Q65.9761 647.786 73.2446 654.129 Q80.4667 660.471 80.4667 671.582 Q80.4667 682.74 73.2446 689.082 Q65.9761 695.379 53.2447 695.379 Q40.467 695.379 33.2448 689.082 Q26.0226 682.74 26.0226 671.582 Z" fill="#000000" fill-rule="nonzero" fill-opacity="1" /><path clip-path="url(#clip920)" d="M35.2355 603.62 Q34.4022 605.055 34.0318 606.768 Q33.6151 608.435 33.6151 610.472 Q33.6151 617.694 38.3373 621.583 Q43.0132 625.425 51.8095 625.425 L79.1242 625.425 L79.1242 633.99 L27.2726 633.99 L27.2726 625.425 L35.3281 625.425 Q30.6059 622.74 28.3374 618.435 Q26.0226 614.129 26.0226 607.972 Q26.0226 607.092 26.1615 606.027 Q26.2541 604.962 26.4856 603.666 L35.2355 603.62 Z" fill="#000000" fill-rule="nonzero" fill-opacity="1" /><circle clip-path="url(#clip921)" cx="311.859" cy="821.473" r="21.6" fill="#009af9" fill-rule="evenodd" fill-opacity="1" stroke="none"/>
<circle clip-path="url(#clip921)" cx="594.924" cy="1165.21" r="21.6" fill="#009af9" fill-rule="evenodd" fill-opacity="1" stroke="none"/>
<circle clip-path="url(#clip921)" cx="877.988" cy="1234.93" r="21.6" fill="#009af9" fill-rule="evenodd" fill-opacity="1" stroke="none"/>
<circle clip-path="url(#clip921)" cx="1161.05" cy="1235.99" r="21.6" fill="#009af9" fill-rule="evenodd" fill-opacity="1" stroke="none"/>
<circle clip-path="url(#clip921)" cx="1444.12" cy="1181.9" r="21.6" fill="#009af9" fill-rule="evenodd" fill-opacity="1" stroke="none"/>
<circle clip-path="url(#clip921)" cx="1727.18" cy="1185.18" r="21.6" fill="#009af9" fill-rule="evenodd" fill-opacity="1" stroke="none"/>
<circle clip-path="url(#clip921)" cx="2010.25" cy="797.77" r="21.6" fill="#009af9" fill-rule="evenodd" fill-opacity="1" stroke="none"/>
<circle clip-path="url(#clip921)" cx="2293.31" cy="85.0853" r="21.6" fill="#009af9" fill-rule="evenodd" fill-opacity="1" stroke="none"/>
<path clip-path="url(#clip921)" d="M311.859 281.347 L287.859 329.347 L335.859 329.347 L311.859 281.347 Z" fill="#0000ff" fill-rule="evenodd" fill-opacity="1" stroke="none"/>
<path clip-path="url(#clip921)" d="M594.924 922.673 L570.924 970.673 L618.924 970.673 L594.924 922.673 Z" fill="#0000ff" fill-rule="evenodd" fill-opacity="1" stroke="none"/>
<path clip-path="url(#clip921)" d="M877.988 1232.93 L853.988 1280.93 L901.988 1280.93 L877.988 1232.93 Z" fill="#0000ff" fill-rule="evenodd" fill-opacity="1" stroke="none"/>
<path clip-path="url(#clip921)" d="M1161.05 1322.46 L1137.05 1370.46 L1185.05 1370.46 L1161.05 1322.46 Z" fill="#0000ff" fill-rule="evenodd" fill-opacity="1" stroke="none"/>
<path clip-path="url(#clip921)" d="M1444.12 1312.91 L1420.12 1360.91 L1468.12 1360.91 L1444.12 1312.91 Z" fill="#0000ff" fill-rule="evenodd" fill-opacity="1" stroke="none"/>
<path clip-path="url(#clip921)" d="M1727.18 1310.8 L1703.18 1358.8 L1751.18 1358.8 L1727.18 1310.8 Z" fill="#0000ff" fill-rule="evenodd" fill-opacity="1" stroke="none"/>
<path clip-path="url(#clip921)" d="M2010.25 1299.7 L1986.25 1347.7 L2034.25 1347.7 L2010.25 1299.7 Z" fill="#0000ff" fill-rule="evenodd" fill-opacity="1" stroke="none"/>
<path clip-path="url(#clip921)" d="M2293.31 1296.2 L2269.31 1344.2 L2317.31 1344.2 L2293.31 1296.2 Z" fill="#0000ff" fill-rule="evenodd" fill-opacity="1" stroke="none"/>
<path clip-path="url(#clip920)" d="M776.821 410.538 L1828.35 410.538 L1828.35 91.8126 L776.821 91.8126  Z" fill="#ffffff" fill-rule="evenodd" fill-opacity="1"/>
<polyline clip-path="url(#clip920)" style="stroke:#000000; stroke-linecap:round; stroke-linejoin:round; stroke-width:4; stroke-opacity:1; fill:none" points="776.821,410.538 1828.35,410.538 1828.35,91.8126 776.821,91.8126 776.821,410.538 "/>
<circle clip-path="url(#clip920)" cx="870.17" cy="198.054" r="37.2185" fill="#009af9" fill-rule="evenodd" fill-opacity="1" stroke="none"/>
<path clip-path="url(#clip920)" d="M1012.29 172.473 L1012.29 181.101 Q1008.16 177.253 1003.46 175.349 Q998.802 173.445 993.536 173.445 Q983.165 173.445 977.656 179.805 Q972.147 186.125 972.147 198.115 Q972.147 210.065 977.656 216.425 Q983.165 222.745 993.536 222.745 Q998.802 222.745 1003.46 220.841 Q1008.16 218.937 1012.29 215.089 L1012.29 223.636 Q1008 226.553 1003.18 228.011 Q998.397 229.469 993.049 229.469 Q979.317 229.469 971.418 221.084 Q963.518 212.658 963.518 198.115 Q963.518 183.532 971.418 175.147 Q979.317 166.721 993.049 166.721 Q998.478 166.721 1003.26 168.179 Q1008.08 169.597 1012.29 172.473 Z" fill="#000000" fill-rule="nonzero" fill-opacity="1" /><path clip-path="url(#clip920)" d="M1050.9 189.892 Q1049.64 189.163 1048.14 188.839 Q1046.68 188.474 1044.9 188.474 Q1038.58 188.474 1035.18 192.606 Q1031.82 196.697 1031.82 204.394 L1031.82 228.294 L1024.32 228.294 L1024.32 182.924 L1031.82 182.924 L1031.82 189.973 Q1034.17 185.841 1037.93 183.856 Q1041.7 181.831 1047.09 181.831 Q1047.86 181.831 1048.79 181.952 Q1049.72 182.033 1050.86 182.236 L1050.9 189.892 Z" fill="#000000" fill-rule="nonzero" fill-opacity="1" /><path clip-path="url(#clip920)" d="M1074.47 188.15 Q1068.48 188.15 1064.99 192.849 Q1061.51 197.508 1061.51 205.65 Q1061.51 213.792 1064.95 218.491 Q1068.44 223.15 1074.47 223.15 Q1080.43 223.15 1083.91 218.451 Q1087.39 213.752 1087.39 205.65 Q1087.39 197.589 1083.91 192.89 Q1080.43 188.15 1074.47 188.15 M1074.47 181.831 Q1084.19 181.831 1089.74 188.15 Q1095.29 194.469 1095.29 205.65 Q1095.29 216.79 1089.74 223.15 Q1084.19 229.469 1074.47 229.469 Q1064.71 229.469 1059.16 223.15 Q1053.65 216.79 1053.65 205.65 Q1053.65 194.469 1059.16 188.15 Q1064.71 181.831 1074.47 181.831 Z" fill="#000000" fill-rule="nonzero" fill-opacity="1" /><path clip-path="url(#clip920)" d="M1136.57 184.261 L1136.57 191.31 Q1133.41 189.689 1130.01 188.879 Q1126.61 188.069 1122.96 188.069 Q1117.41 188.069 1114.62 189.77 Q1111.86 191.472 1111.86 194.875 Q1111.86 197.467 1113.85 198.966 Q1115.83 200.424 1121.83 201.761 L1124.38 202.328 Q1132.32 204.03 1135.64 207.149 Q1139 210.227 1139 215.777 Q1139 222.097 1133.98 225.783 Q1129 229.469 1120.25 229.469 Q1116.6 229.469 1112.63 228.74 Q1108.7 228.051 1104.33 226.634 L1104.33 218.937 Q1108.46 221.084 1112.47 222.178 Q1116.48 223.231 1120.41 223.231 Q1125.68 223.231 1128.51 221.448 Q1131.35 219.626 1131.35 216.344 Q1131.35 213.306 1129.28 211.686 Q1127.26 210.065 1120.33 208.567 L1117.74 207.959 Q1110.81 206.501 1107.73 203.503 Q1104.65 200.465 1104.65 195.199 Q1104.65 188.798 1109.19 185.314 Q1113.73 181.831 1122.07 181.831 Q1126.2 181.831 1129.85 182.438 Q1133.49 183.046 1136.57 184.261 Z" fill="#000000" fill-rule="nonzero" fill-opacity="1" /><path clip-path="url(#clip920)" d="M1179.8 184.261 L1179.8 191.31 Q1176.64 189.689 1173.23 188.879 Q1169.83 188.069 1166.19 188.069 Q1160.64 188.069 1157.84 189.77 Q1155.09 191.472 1155.09 194.875 Q1155.09 197.467 1157.07 198.966 Q1159.06 200.424 1165.05 201.761 L1167.6 202.328 Q1175.54 204.03 1178.86 207.149 Q1182.23 210.227 1182.23 215.777 Q1182.23 222.097 1177.2 225.783 Q1172.22 229.469 1163.47 229.469 Q1159.83 229.469 1155.86 228.74 Q1151.93 228.051 1147.55 226.634 L1147.55 218.937 Q1151.68 221.084 1155.69 222.178 Q1159.7 223.231 1163.63 223.231 Q1168.9 223.231 1171.73 221.448 Q1174.57 219.626 1174.57 216.344 Q1174.57 213.306 1172.5 211.686 Q1170.48 210.065 1163.55 208.567 L1160.96 207.959 Q1154.03 206.501 1150.95 203.503 Q1147.87 200.465 1147.87 195.199 Q1147.87 188.798 1152.41 185.314 Q1156.95 181.831 1165.29 181.831 Q1169.43 181.831 1173.07 182.438 Q1176.72 183.046 1179.8 184.261 Z" fill="#000000" fill-rule="nonzero" fill-opacity="1" /><path clip-path="url(#clip920)" d="M1190.33 202.247 L1212.16 202.247 L1212.16 208.891 L1190.33 208.891 L1190.33 202.247 Z" fill="#000000" fill-rule="nonzero" fill-opacity="1" /><path clip-path="url(#clip920)" d="M1216.46 182.924 L1224.36 182.924 L1238.53 221.003 L1252.71 182.924 L1260.61 182.924 L1243.6 228.294 L1233.47 228.294 L1216.46 182.924 Z" fill="#000000" fill-rule="nonzero" fill-opacity="1" /><path clip-path="url(#clip920)" d="M1291.52 205.488 Q1282.49 205.488 1279 207.554 Q1275.52 209.62 1275.52 214.602 Q1275.52 218.572 1278.11 220.922 Q1280.74 223.231 1285.24 223.231 Q1291.44 223.231 1295.17 218.856 Q1298.93 214.44 1298.93 207.149 L1298.93 205.488 L1291.52 205.488 M1306.39 202.409 L1306.39 228.294 L1298.93 228.294 L1298.93 221.408 Q1296.38 225.54 1292.57 227.525 Q1288.77 229.469 1283.26 229.469 Q1276.29 229.469 1272.16 225.58 Q1268.07 221.651 1268.07 215.089 Q1268.07 207.432 1273.17 203.543 Q1278.31 199.655 1288.48 199.655 L1298.93 199.655 L1298.93 198.925 Q1298.93 193.781 1295.53 190.986 Q1292.17 188.15 1286.05 188.15 Q1282.16 188.15 1278.48 189.082 Q1274.79 190.013 1271.39 191.877 L1271.39 184.99 Q1275.48 183.41 1279.33 182.641 Q1283.18 181.831 1286.82 181.831 Q1296.66 181.831 1301.53 186.935 Q1306.39 192.039 1306.39 202.409 Z" fill="#000000" fill-rule="nonzero" fill-opacity="1" /><path clip-path="url(#clip920)" d="M1321.74 165.262 L1329.19 165.262 L1329.19 228.294 L1321.74 228.294 L1321.74 165.262 Z" fill="#000000" fill-rule="nonzero" fill-opacity="1" /><path clip-path="url(#clip920)" d="M1344.79 182.924 L1352.24 182.924 L1352.24 228.294 L1344.79 228.294 L1344.79 182.924 M1344.79 165.262 L1352.24 165.262 L1352.24 174.701 L1344.79 174.701 L1344.79 165.262 Z" fill="#000000" fill-rule="nonzero" fill-opacity="1" /><path clip-path="url(#clip920)" d="M1397.69 189.811 L1397.69 165.262 L1405.15 165.262 L1405.15 228.294 L1397.69 228.294 L1397.69 221.489 Q1395.34 225.54 1391.74 227.525 Q1388.17 229.469 1383.15 229.469 Q1374.93 229.469 1369.74 222.907 Q1364.6 216.344 1364.6 205.65 Q1364.6 194.956 1369.74 188.393 Q1374.93 181.831 1383.15 181.831 Q1388.17 181.831 1391.74 183.816 Q1395.34 185.76 1397.69 189.811 M1372.3 205.65 Q1372.3 213.873 1375.66 218.572 Q1379.06 223.231 1384.97 223.231 Q1390.89 223.231 1394.29 218.572 Q1397.69 213.873 1397.69 205.65 Q1397.69 197.427 1394.29 192.768 Q1390.89 188.069 1384.97 188.069 Q1379.06 188.069 1375.66 192.768 Q1372.3 197.427 1372.3 205.65 Z" fill="#000000" fill-rule="nonzero" fill-opacity="1" /><path clip-path="url(#clip920)" d="M1441.12 205.488 Q1432.09 205.488 1428.6 207.554 Q1425.12 209.62 1425.12 214.602 Q1425.12 218.572 1427.71 220.922 Q1430.34 223.231 1434.84 223.231 Q1441.04 223.231 1444.77 218.856 Q1448.53 214.44 1448.53 207.149 L1448.53 205.488 L1441.12 205.488 M1455.99 202.409 L1455.99 228.294 L1448.53 228.294 L1448.53 221.408 Q1445.98 225.54 1442.17 227.525 Q1438.37 229.469 1432.86 229.469 Q1425.89 229.469 1421.76 225.58 Q1417.67 221.651 1417.67 215.089 Q1417.67 207.432 1422.77 203.543 Q1427.91 199.655 1438.08 199.655 L1448.53 199.655 L1448.53 198.925 Q1448.53 193.781 1445.13 190.986 Q1441.77 188.15 1435.65 188.15 Q1431.76 188.15 1428.08 189.082 Q1424.39 190.013 1420.99 191.877 L1420.99 184.99 Q1425.08 183.41 1428.93 182.641 Q1432.78 181.831 1436.42 181.831 Q1446.26 181.831 1451.13 186.935 Q1455.99 192.039 1455.99 202.409 Z" fill="#000000" fill-rule="nonzero" fill-opacity="1" /><path clip-path="url(#clip920)" d="M1478.71 170.042 L1478.71 182.924 L1494.07 182.924 L1494.07 188.717 L1478.71 188.717 L1478.71 213.347 Q1478.71 218.896 1480.21 220.476 Q1481.75 222.056 1486.41 222.056 L1494.07 222.056 L1494.07 228.294 L1486.41 228.294 Q1477.78 228.294 1474.5 225.094 Q1471.22 221.854 1471.22 213.347 L1471.22 188.717 L1465.75 188.717 L1465.75 182.924 L1471.22 182.924 L1471.22 170.042 L1478.71 170.042 Z" fill="#000000" fill-rule="nonzero" fill-opacity="1" /><path clip-path="url(#clip920)" d="M1503.87 182.924 L1511.32 182.924 L1511.32 228.294 L1503.87 228.294 L1503.87 182.924 M1503.87 165.262 L1511.32 165.262 L1511.32 174.701 L1503.87 174.701 L1503.87 165.262 Z" fill="#000000" fill-rule="nonzero" fill-opacity="1" /><path clip-path="url(#clip920)" d="M1544.5 188.15 Q1538.5 188.15 1535.02 192.849 Q1531.54 197.508 1531.54 205.65 Q1531.54 213.792 1534.98 218.491 Q1538.46 223.15 1544.5 223.15 Q1550.45 223.15 1553.94 218.451 Q1557.42 213.752 1557.42 205.65 Q1557.42 197.589 1553.94 192.89 Q1550.45 188.15 1544.5 188.15 M1544.5 181.831 Q1554.22 181.831 1559.77 188.15 Q1565.32 194.469 1565.32 205.65 Q1565.32 216.79 1559.77 223.15 Q1554.22 229.469 1544.5 229.469 Q1534.74 229.469 1529.19 223.15 Q1523.68 216.79 1523.68 205.65 Q1523.68 194.469 1529.19 188.15 Q1534.74 181.831 1544.5 181.831 Z" fill="#000000" fill-rule="nonzero" fill-opacity="1" /><path clip-path="url(#clip920)" d="M1615.39 200.91 L1615.39 228.294 L1607.94 228.294 L1607.94 201.153 Q1607.94 194.712 1605.42 191.512 Q1602.91 188.312 1597.89 188.312 Q1591.85 188.312 1588.37 192.16 Q1584.89 196.009 1584.89 202.652 L1584.89 228.294 L1577.39 228.294 L1577.39 182.924 L1584.89 182.924 L1584.89 189.973 Q1587.56 185.882 1591.17 183.856 Q1594.81 181.831 1599.55 181.831 Q1607.37 181.831 1611.38 186.692 Q1615.39 191.512 1615.39 200.91 Z" fill="#000000" fill-rule="nonzero" fill-opacity="1" /><path clip-path="url(#clip920)" d="M1656.63 165.262 L1664.08 165.262 L1664.08 228.294 L1656.63 228.294 L1656.63 165.262 Z" fill="#000000" fill-rule="nonzero" fill-opacity="1" /><path clip-path="url(#clip920)" d="M1697.26 188.15 Q1691.26 188.15 1687.78 192.849 Q1684.3 197.508 1684.3 205.65 Q1684.3 213.792 1687.74 218.491 Q1691.22 223.15 1697.26 223.15 Q1703.21 223.15 1706.7 218.451 Q1710.18 213.752 1710.18 205.65 Q1710.18 197.589 1706.7 192.89 Q1703.21 188.15 1697.26 188.15 M1697.26 181.831 Q1706.98 181.831 1712.53 188.15 Q1718.08 194.469 1718.08 205.65 Q1718.08 216.79 1712.53 223.15 Q1706.98 229.469 1697.26 229.469 Q1687.5 229.469 1681.95 223.15 Q1676.44 216.79 1676.44 205.65 Q1676.44 194.469 1681.95 188.15 Q1687.5 181.831 1697.26 181.831 Z" fill="#000000" fill-rule="nonzero" fill-opacity="1" /><path clip-path="url(#clip920)" d="M1759.36 184.261 L1759.36 191.31 Q1756.2 189.689 1752.8 188.879 Q1749.39 188.069 1745.75 188.069 Q1740.2 188.069 1737.4 189.77 Q1734.65 191.472 1734.65 194.875 Q1734.65 197.467 1736.63 198.966 Q1738.62 200.424 1744.61 201.761 L1747.17 202.328 Q1755.11 204.03 1758.43 207.149 Q1761.79 210.227 1761.79 215.777 Q1761.79 222.097 1756.77 225.783 Q1751.78 229.469 1743.03 229.469 Q1739.39 229.469 1735.42 228.74 Q1731.49 228.051 1727.11 226.634 L1727.11 218.937 Q1731.25 221.084 1735.26 222.178 Q1739.27 223.231 1743.2 223.231 Q1748.46 223.231 1751.3 221.448 Q1754.13 219.626 1754.13 216.344 Q1754.13 213.306 1752.07 211.686 Q1750.04 210.065 1743.11 208.567 L1740.52 207.959 Q1733.6 206.501 1730.52 203.503 Q1727.44 200.465 1727.44 195.199 Q1727.44 188.798 1731.97 185.314 Q1736.51 181.831 1744.86 181.831 Q1748.99 181.831 1752.63 182.438 Q1756.28 183.046 1759.36 184.261 Z" fill="#000000" fill-rule="nonzero" fill-opacity="1" /><path clip-path="url(#clip920)" d="M1802.58 184.261 L1802.58 191.31 Q1799.42 189.689 1796.02 188.879 Q1792.62 188.069 1788.97 188.069 Q1783.42 188.069 1780.63 189.77 Q1777.87 191.472 1777.87 194.875 Q1777.87 197.467 1779.86 198.966 Q1781.84 200.424 1787.84 201.761 L1790.39 202.328 Q1798.33 204.03 1801.65 207.149 Q1805.01 210.227 1805.01 215.777 Q1805.01 222.097 1799.99 225.783 Q1795.01 229.469 1786.26 229.469 Q1782.61 229.469 1778.64 228.74 Q1774.71 228.051 1770.34 226.634 L1770.34 218.937 Q1774.47 221.084 1778.48 222.178 Q1782.49 223.231 1786.42 223.231 Q1791.69 223.231 1794.52 221.448 Q1797.36 219.626 1797.36 216.344 Q1797.36 213.306 1795.29 211.686 Q1793.27 210.065 1786.34 208.567 L1783.75 207.959 Q1776.82 206.501 1773.74 203.503 Q1770.66 200.465 1770.66 195.199 Q1770.66 188.798 1775.2 185.314 Q1779.74 181.831 1788.08 181.831 Q1792.21 181.831 1795.86 182.438 Q1799.5 183.046 1802.58 184.261 Z" fill="#000000" fill-rule="nonzero" fill-opacity="1" /><path clip-path="url(#clip920)" d="M870.17 262.943 L828.816 345.65 L911.524 345.65 L870.17 262.943 Z" fill="#0000ff" fill-rule="evenodd" fill-opacity="1" stroke="none"/>
<path clip-path="url(#clip920)" d="M963.518 331.861 L963.518 253.079 Q963.518 250.579 965.199 250.579 Q966.879 250.579 966.879 253.202 L966.879 331.656 Q966.879 334.361 965.199 334.361 Q963.518 334.361 963.518 331.861 M972.782 331.861 L972.782 253.694 Q972.782 250.579 974.462 250.579 Q976.143 250.579 976.143 253.202 L976.143 331.656 Q976.143 334.361 974.462 334.361 Q972.782 334.361 972.782 331.861 Z" fill="#000000" fill-rule="nonzero" fill-opacity="1" /><path clip-path="url(#clip920)" d="M1062.68 311.776 Q1062.68 312.555 1062.35 312.965 Q1062.06 313.334 1061.78 313.416 Q1061.53 313.457 1061.16 313.457 Q1060.1 313.457 1056.41 313.334 Q1052.72 313.211 1051.65 313.211 Q1049.93 313.211 1046.41 313.334 Q1042.88 313.457 1041.16 313.457 Q1040.01 313.457 1040.01 312.514 Q1040.01 311.899 1040.13 311.571 Q1040.26 311.202 1040.59 311.079 Q1040.95 310.915 1041.16 310.915 Q1041.41 310.874 1042.02 310.874 Q1042.84 310.874 1043.7 310.792 Q1044.56 310.669 1045.63 310.423 Q1046.69 310.178 1047.35 309.563 Q1048.05 308.948 1048.05 308.087 Q1048.05 307.718 1047.76 304.685 Q1047.47 301.652 1047.1 298.127 Q1046.73 294.561 1046.69 294.069 L1025.62 294.069 Q1023.7 297.389 1022.35 299.684 Q1020.99 301.98 1020.5 302.758 Q1020.01 303.537 1019.72 304.029 Q1019.43 304.521 1019.27 304.808 Q1018.08 306.98 1018.08 307.923 Q1018.08 310.546 1022.02 310.874 Q1023.37 310.874 1023.37 311.858 Q1023.37 312.596 1023.04 313.006 Q1022.71 313.375 1022.43 313.416 Q1022.18 313.457 1021.77 313.457 Q1020.42 313.457 1017.59 313.334 Q1014.76 313.211 1013.37 313.211 Q1012.18 313.211 1009.72 313.334 Q1007.26 313.457 1006.15 313.457 Q1005.66 313.457 1005.38 313.17 Q1005.09 312.883 1005.09 312.514 Q1005.09 311.94 1005.17 311.612 Q1005.29 311.284 1005.62 311.12 Q1005.95 310.956 1006.11 310.956 Q1006.28 310.915 1006.85 310.874 Q1009.97 310.669 1012.38 309.194 Q1014.84 307.677 1017.18 303.783 L1046.36 254.76 Q1046.65 254.268 1046.86 254.022 Q1047.06 253.776 1047.47 253.571 Q1047.92 253.366 1048.58 253.366 Q1049.6 253.366 1049.81 253.694 Q1050.01 253.981 1050.14 255.375 L1055.26 307.841 Q1055.38 308.948 1055.46 309.399 Q1055.59 309.809 1056.12 310.26 Q1056.69 310.669 1057.72 310.792 Q1058.78 310.874 1060.75 310.874 Q1061.49 310.874 1061.78 310.915 Q1062.06 310.915 1062.35 311.12 Q1062.68 311.325 1062.68 311.776 M1046.45 291.445 L1043.78 263.778 L1027.22 291.445 L1046.45 291.445 Z" fill="#000000" fill-rule="nonzero" fill-opacity="1" /><path clip-path="url(#clip920)" d="M1099.06 297.545 L1090.59 331.517 Q1090.25 333.037 1090.25 334.328 Q1090.25 337.026 1092 337.026 Q1092.86 337.026 1093.55 336.48 Q1094.23 335.935 1094.78 334.787 Q1095.33 333.64 1095.67 332.578 Q1096.01 331.488 1096.47 329.766 Q1096.62 329.078 1096.73 328.906 Q1096.87 328.705 1097.28 328.705 Q1097.99 328.705 1097.99 329.279 Q1097.22 332.98 1096.21 335.103 Q1094.61 338.345 1091.88 338.345 Q1089.82 338.345 1088.35 337.083 Q1086.89 335.82 1086.55 333.927 Q1082.79 338.345 1078.88 338.345 Q1075.44 338.345 1073.26 335.734 Q1071.08 333.095 1071.08 328.934 Q1071.08 324.745 1073.15 320.728 Q1075.24 316.711 1078.54 314.215 Q1081.84 311.719 1085.23 311.719 Q1088.81 311.719 1090.65 315.477 L1094.18 301.533 L1094.35 300.385 Q1094.35 300.041 1094.21 299.869 Q1094.09 299.668 1093.4 299.524 Q1092.74 299.381 1091.42 299.381 Q1090.88 299.381 1090.62 299.352 Q1090.39 299.324 1090.19 299.18 Q1089.99 299.008 1089.99 298.664 Q1089.99 297.659 1090.82 297.545 Q1096.33 296.913 1098.28 296.913 Q1098.62 296.913 1098.83 297.086 Q1099.03 297.229 1099.03 297.401 L1099.06 297.545 M1089.93 318.175 Q1089.93 317.916 1089.73 317.199 Q1089.53 316.482 1089.07 315.477 Q1088.61 314.473 1087.61 313.756 Q1086.63 313.01 1085.31 313.01 Q1083.53 313.01 1081.67 314.531 Q1079.83 316.051 1078.48 318.634 Q1077.45 320.699 1076.33 325.032 Q1075.24 329.365 1075.24 331.517 Q1075.24 332.836 1075.53 334.013 Q1075.84 335.16 1076.73 336.107 Q1077.62 337.026 1079 337.026 Q1082.36 337.026 1085.66 332.865 Q1086.29 332.148 1086.43 331.861 Q1086.6 331.545 1086.83 330.684 L1089.76 319.179 Q1089.93 318.318 1089.93 318.175 Z" fill="#000000" fill-rule="nonzero" fill-opacity="1" /><path clip-path="url(#clip920)" d="M1145.52 266.255 L1144.8 267.432 Q1140.35 265.509 1134.82 262.439 Q1129.28 265.509 1124.83 267.432 L1124.14 266.255 Q1128.99 262.038 1134.82 258.795 Q1140.7 262.066 1145.52 266.255 Z" fill="#000000" fill-rule="nonzero" fill-opacity="1" /><path clip-path="url(#clip920)" d="M1149.55 281.895 Q1149.55 284.19 1148.12 285.502 Q1146.68 286.773 1145.04 286.773 Q1143.49 286.773 1142.67 285.871 Q1141.85 284.969 1141.85 283.821 Q1141.85 282.264 1143 280.911 Q1144.14 279.559 1145.86 279.272 Q1144.18 278.206 1141.68 278.206 Q1140.04 278.206 1138.61 279.067 Q1137.22 279.927 1136.36 281.034 Q1135.54 282.141 1134.8 283.739 Q1134.1 285.297 1133.81 286.24 Q1133.57 287.142 1133.36 288.125 L1130.49 299.602 Q1129.1 305.054 1129.1 306.98 Q1129.1 309.358 1130.25 310.956 Q1131.4 312.514 1133.69 312.514 Q1134.59 312.514 1135.62 312.268 Q1136.64 311.981 1137.95 311.243 Q1139.31 310.464 1140.5 309.317 Q1141.72 308.128 1142.91 306.12 Q1144.1 304.111 1144.88 301.529 Q1145.13 300.627 1145.95 300.627 Q1146.97 300.627 1146.97 301.447 Q1146.97 302.144 1146.4 303.619 Q1145.86 305.054 1144.68 306.939 Q1143.53 308.784 1142.01 310.464 Q1140.5 312.104 1138.24 313.252 Q1135.99 314.399 1133.53 314.399 Q1130 314.399 1127.67 312.514 Q1125.33 310.628 1124.47 308.005 Q1124.26 308.374 1123.98 308.866 Q1123.69 309.358 1122.83 310.464 Q1122.01 311.53 1121.07 312.35 Q1120.12 313.129 1118.65 313.744 Q1117.21 314.399 1115.66 314.399 Q1113.69 314.399 1111.93 313.826 Q1110.2 313.252 1108.97 311.94 Q1107.74 310.628 1107.74 308.825 Q1107.74 306.816 1109.1 305.423 Q1110.49 303.988 1112.38 303.988 Q1113.57 303.988 1114.51 304.685 Q1115.49 305.382 1115.49 306.898 Q1115.49 308.579 1114.34 309.85 Q1113.2 311.12 1111.56 311.448 Q1113.24 312.514 1115.74 312.514 Q1118.44 312.514 1120.57 310.137 Q1122.71 307.759 1123.73 303.783 Q1126.27 294.233 1127.26 289.97 Q1128.24 285.666 1128.24 283.821 Q1128.24 282.1 1127.79 280.911 Q1127.34 279.723 1126.56 279.19 Q1125.82 278.616 1125.12 278.411 Q1124.47 278.206 1123.73 278.206 Q1122.5 278.206 1121.11 278.698 Q1119.75 279.19 1118.11 280.337 Q1116.52 281.444 1115 283.739 Q1113.48 286.035 1112.46 289.191 Q1112.25 290.134 1111.35 290.134 Q1110.37 290.093 1110.37 289.273 Q1110.37 288.576 1110.9 287.142 Q1111.47 285.666 1112.62 283.821 Q1113.81 281.977 1115.33 280.337 Q1116.89 278.657 1119.14 277.509 Q1121.44 276.361 1123.89 276.361 Q1125 276.361 1126.07 276.607 Q1127.17 276.812 1128.49 277.427 Q1129.84 278.042 1131.03 279.395 Q1132.22 280.747 1132.95 282.715 Q1133.44 281.772 1134.1 280.87 Q1134.8 279.968 1135.86 278.862 Q1136.97 277.714 1138.49 277.058 Q1140.04 276.361 1141.77 276.361 Q1143.45 276.361 1145.09 276.812 Q1146.73 277.222 1148.12 278.575 Q1149.55 279.886 1149.55 281.895 Z" fill="#000000" fill-rule="nonzero" fill-opacity="1" /><path clip-path="url(#clip920)" d="M1187.02 298.482 L1178.56 332.454 Q1178.21 333.975 1178.21 335.266 Q1178.21 337.963 1179.96 337.963 Q1180.82 337.963 1181.51 337.418 Q1182.2 336.873 1182.75 335.725 Q1183.29 334.577 1183.64 333.516 Q1183.98 332.425 1184.44 330.704 Q1184.58 330.015 1184.7 329.843 Q1184.84 329.642 1185.24 329.642 Q1185.96 329.642 1185.96 330.216 Q1185.19 333.917 1184.18 336.041 Q1182.57 339.283 1179.85 339.283 Q1177.78 339.283 1176.32 338.02 Q1174.86 336.758 1174.51 334.864 Q1170.75 339.283 1166.85 339.283 Q1163.41 339.283 1161.23 336.672 Q1159.05 334.032 1159.05 329.872 Q1159.05 325.683 1161.11 321.666 Q1163.21 317.649 1166.51 315.152 Q1169.81 312.656 1173.19 312.656 Q1176.78 312.656 1178.61 316.415 L1182.14 302.47 L1182.32 301.323 Q1182.32 300.978 1182.17 300.806 Q1182.06 300.605 1181.37 300.462 Q1180.71 300.318 1179.39 300.318 Q1178.84 300.318 1178.59 300.29 Q1178.36 300.261 1178.16 300.118 Q1177.95 299.945 1177.95 299.601 Q1177.95 298.597 1178.79 298.482 Q1184.3 297.851 1186.25 297.851 Q1186.59 297.851 1186.79 298.023 Q1186.99 298.167 1186.99 298.339 L1187.02 298.482 M1177.9 319.112 Q1177.9 318.854 1177.7 318.136 Q1177.5 317.419 1177.04 316.415 Q1176.58 315.411 1175.57 314.693 Q1174.6 313.947 1173.28 313.947 Q1171.5 313.947 1169.63 315.468 Q1167.8 316.989 1166.45 319.571 Q1165.42 321.637 1164.3 325.97 Q1163.21 330.302 1163.21 332.454 Q1163.21 333.774 1163.49 334.95 Q1163.81 336.098 1164.7 337.045 Q1165.59 337.963 1166.97 337.963 Q1170.32 337.963 1173.62 333.803 Q1174.25 333.085 1174.4 332.798 Q1174.57 332.483 1174.8 331.622 L1177.73 320.116 Q1177.9 319.255 1177.9 319.112 Z" fill="#000000" fill-rule="nonzero" fill-opacity="1" /><path clip-path="url(#clip920)" d="M1274.42 291.281 Q1274.91 291.773 1274.91 292.47 Q1274.91 293.167 1274.42 293.659 Q1273.93 294.151 1273.23 294.151 L1220.68 294.151 Q1219.99 294.151 1219.49 293.659 Q1219 293.167 1219 292.47 Q1219 291.773 1219.49 291.281 Q1219.99 290.79 1220.68 290.79 L1273.23 290.79 Q1273.93 290.79 1274.42 291.281 Z" fill="#000000" fill-rule="nonzero" fill-opacity="1" /><path clip-path="url(#clip920)" d="M1348.81 260.048 Q1348.81 262.302 1347.38 263.696 Q1345.98 265.089 1344.22 265.089 Q1342.95 265.089 1342.01 264.311 Q1341.11 263.532 1341.11 262.179 Q1341.11 260.785 1342.17 259.31 Q1343.24 257.834 1345.66 257.629 Q1344.06 256.113 1341.52 256.113 Q1340.24 256.113 1339.18 256.932 Q1338.15 257.711 1337.58 258.982 Q1336.97 260.294 1335.57 267.713 Q1335.12 270.131 1334.71 272.467 Q1334.3 274.804 1333.81 277.263 L1340.78 277.263 Q1341.68 277.263 1342.05 277.304 Q1342.42 277.345 1342.7 277.55 Q1343.03 277.755 1343.03 278.206 Q1343.03 279.354 1342.5 279.641 Q1342.01 279.886 1340.53 279.886 L1333.32 279.886 L1328.28 306.489 Q1328.15 307.267 1327.62 309.727 Q1327.13 312.145 1325.94 316.121 Q1324.75 320.138 1323.56 322.515 Q1322.91 323.868 1322.05 325.139 Q1321.23 326.45 1320.04 327.762 Q1318.85 329.074 1317.29 329.852 Q1315.73 330.672 1314.09 330.672 Q1311.31 330.672 1309.13 329.115 Q1306.96 327.557 1306.96 324.893 Q1306.96 322.638 1308.36 321.245 Q1309.79 319.851 1311.55 319.851 Q1312.82 319.851 1313.72 320.63 Q1314.67 321.409 1314.67 322.761 Q1314.67 323.335 1314.46 323.991 Q1314.26 324.647 1313.81 325.385 Q1313.36 326.163 1312.37 326.696 Q1311.39 327.229 1310.04 327.311 Q1311.63 328.828 1314.09 328.828 Q1314.87 328.828 1315.57 328.5 Q1316.27 328.213 1316.84 327.475 Q1317.45 326.737 1317.91 325.999 Q1318.36 325.303 1318.81 323.95 Q1319.26 322.638 1319.55 321.655 Q1319.83 320.671 1320.2 318.908 Q1320.61 317.146 1320.82 316.08 Q1321.02 315.055 1321.39 313.047 L1327.66 279.886 L1322.13 279.886 Q1321.14 279.886 1320.73 279.845 Q1320.37 279.804 1320.08 279.6 Q1319.79 279.354 1319.79 278.862 Q1319.79 278.083 1320.12 277.755 Q1320.49 277.386 1320.9 277.345 Q1321.31 277.263 1322.29 277.263 L1328.11 277.263 Q1330.08 266.893 1330.86 264.106 Q1331.76 261.154 1333.15 259.105 Q1334.55 257.014 1336.1 256.031 Q1337.66 255.047 1338.93 254.678 Q1340.24 254.268 1341.52 254.268 Q1344.38 254.268 1346.6 255.826 Q1348.81 257.342 1348.81 260.048 Z" fill="#000000" fill-rule="nonzero" fill-opacity="1" /><path clip-path="url(#clip920)" d="M1347.68 331.861 L1347.68 253.079 Q1347.68 250.579 1349.36 250.579 Q1351.04 250.579 1351.04 253.202 L1351.04 331.656 Q1351.04 334.361 1349.36 334.361 Q1347.68 334.361 1347.68 331.861 M1356.94 331.861 L1356.94 253.694 Q1356.94 250.579 1358.62 250.579 Q1360.3 250.579 1360.3 253.202 L1360.3 331.656 Q1360.3 334.361 1358.62 334.361 Q1356.94 334.361 1356.94 331.861 Z" fill="#000000" fill-rule="nonzero" fill-opacity="1" /><path clip-path="url(#clip920)" d="M1369.14 357.417 Q1369.14 356.356 1369.23 356.04 Q1369.34 355.724 1369.8 355.237 L1381.08 342.669 Q1387.24 335.726 1387.24 329.672 Q1387.24 325.741 1385.18 322.929 Q1383.14 320.117 1379.38 320.117 Q1376.8 320.117 1374.62 321.695 Q1372.44 323.273 1371.43 326.085 Q1371.61 326.028 1372.21 326.028 Q1373.67 326.028 1374.48 326.946 Q1375.31 327.864 1375.31 329.098 Q1375.31 330.676 1374.28 331.451 Q1373.27 332.197 1372.27 332.197 Q1371.87 332.197 1371.32 332.111 Q1370.8 332.024 1369.97 331.221 Q1369.14 330.389 1369.14 328.926 Q1369.14 324.823 1372.24 321.552 Q1375.37 318.281 1380.13 318.281 Q1385.52 318.281 1389.05 321.494 Q1392.61 324.679 1392.61 329.672 Q1392.61 331.422 1392.06 333.029 Q1391.55 334.607 1390.83 335.841 Q1390.14 337.074 1388.25 339.054 Q1386.35 341.034 1384.83 342.44 Q1383.31 343.846 1379.9 346.83 L1373.67 352.884 L1384.26 352.884 Q1389.42 352.884 1389.83 352.425 Q1390.4 351.593 1391.12 347.203 L1392.61 347.203 L1390.95 357.417 L1369.14 357.417 Z" fill="#000000" fill-rule="nonzero" fill-opacity="1" /></svg>
