<?xml version="1.0" encoding="utf-8"?>
<svg xmlns="http://www.w3.org/2000/svg" xmlns:xlink="http://www.w3.org/1999/xlink" width="600" height="400" viewBox="0 0 2400 1600">
<defs>
  <clipPath id="clip000">
    <rect x="0" y="0" width="2400" height="1600"/>
  </clipPath>
</defs>
<path clip-path="url(#clip000)" d="M0 1600 L2400 1600 L2400 0 L0 0  Z" fill="#ffffff" fill-rule="evenodd" fill-opacity="1"/>
<defs>
  <clipPath id="clip001">
    <rect x="209" y="47" width="2144" height="1338"/>
  </clipPath>
</defs>
<path clip-path="url(#clip000)" d="M209.638 1384.3 L2352.76 1384.3 L2352.76 47.2441 L209.638 47.2441  Z" fill="#ffffff" fill-rule="evenodd" fill-opacity="1"/>
<polyline clip-path="url(#clip001)" style="stroke:#000000; stroke-linecap:round; stroke-linejoin:round; stroke-width:2; stroke-opacity:0.1; fill:none" points="270.292,1384.3 270.292,47.2441 "/>
<polyline clip-path="url(#clip001)" style="stroke:#000000; stroke-linecap:round; stroke-linejoin:round; stroke-width:2; stroke-opacity:0.1; fill:none" points="821.695,1384.3 821.695,47.2441 "/>
<polyline clip-path="url(#clip001)" style="stroke:#000000; stroke-linecap:round; stroke-linejoin:round; stroke-width:2; stroke-opacity:0.1; fill:none" points="2292.1,1384.3 2292.1,47.2441 "/>
<polyline clip-path="url(#clip001)" style="stroke:#000000; stroke-linecap:round; stroke-linejoin:round; stroke-width:2; stroke-opacity:0.1; fill:none" points="209.638,1346.46 2352.76,1346.46 "/>
<polyline clip-path="url(#clip001)" style="stroke:#000000; stroke-linecap:round; stroke-linejoin:round; stroke-width:2; stroke-opacity:0.1; fill:none" points="209.638,1031.12 2352.76,1031.12 "/>
<polyline clip-path="url(#clip001)" style="stroke:#000000; stroke-linecap:round; stroke-linejoin:round; stroke-width:2; stroke-opacity:0.1; fill:none" points="209.638,715.772 2352.76,715.772 "/>
<polyline clip-path="url(#clip001)" style="stroke:#000000; stroke-linecap:round; stroke-linejoin:round; stroke-width:2; stroke-opacity:0.1; fill:none" points="209.638,400.429 2352.76,400.429 "/>
<polyline clip-path="url(#clip001)" style="stroke:#000000; stroke-linecap:round; stroke-linejoin:round; stroke-width:2; stroke-opacity:0.1; fill:none" points="209.638,85.0853 2352.76,85.0853 "/>
<polyline clip-path="url(#clip000)" style="stroke:#000000; stroke-linecap:round; stroke-linejoin:round; stroke-width:4; stroke-opacity:1; fill:none" points="209.638,1384.3 2352.76,1384.3 "/>
<polyline clip-path="url(#clip000)" style="stroke:#000000; stroke-linecap:round; stroke-linejoin:round; stroke-width:4; stroke-opacity:1; fill:none" points="270.292,1384.3 270.292,1365.4 "/>
<polyline clip-path="url(#clip000)" style="stroke:#000000; stroke-linecap:round; stroke-linejoin:round; stroke-width:4; stroke-opacity:1; fill:none" points="821.695,1384.3 821.695,1365.4 "/>
<polyline clip-path="url(#clip000)" style="stroke:#000000; stroke-linecap:round; stroke-linejoin:round; stroke-width:4; stroke-opacity:1; fill:none" points="2292.1,1384.3 2292.1,1365.4 "/>
<path clip-path="url(#clip000)" d="M270.292 1421.08 Q264.875 1421.08 262.132 1426.43 Q259.424 1431.74 259.424 1442.43 Q259.424 1453.09 262.132 1458.44 Q264.875 1463.75 270.292 1463.75 Q275.743 1463.75 278.452 1458.44 Q281.195 1453.09 281.195 1442.43 Q281.195 1431.74 278.452 1426.43 Q275.743 1421.08 270.292 1421.08 M270.292 1415.52 Q279.007 1415.52 283.591 1422.43 Q288.209 1429.31 288.209 1442.43 Q288.209 1455.52 283.591 1462.43 Q279.007 1469.31 270.292 1469.31 Q261.577 1469.31 256.959 1462.43 Q252.375 1455.52 252.375 1442.43 Q252.375 1429.31 256.959 1422.43 Q261.577 1415.52 270.292 1415.52 Z" fill="#000000" fill-rule="nonzero" fill-opacity="1" /><path clip-path="url(#clip000)" d="M828.066 1440.35 Q833.101 1441.42 835.913 1444.83 Q838.761 1448.23 838.761 1453.23 Q838.761 1460.9 833.483 1465.11 Q828.205 1469.31 818.483 1469.31 Q815.219 1469.31 811.747 1468.65 Q808.309 1468.02 804.629 1466.74 L804.629 1459.97 Q807.545 1461.67 811.018 1462.54 Q814.49 1463.4 818.275 1463.4 Q824.872 1463.4 828.309 1460.8 Q831.781 1458.2 831.781 1453.23 Q831.781 1448.65 828.552 1446.08 Q825.358 1443.47 819.629 1443.47 L813.587 1443.47 L813.587 1437.71 L819.906 1437.71 Q825.08 1437.71 827.823 1435.66 Q830.566 1433.58 830.566 1429.69 Q830.566 1425.7 827.719 1423.58 Q824.906 1421.43 819.629 1421.43 Q816.747 1421.43 813.448 1422.05 Q810.15 1422.68 806.191 1423.99 L806.191 1417.74 Q810.184 1416.63 813.656 1416.08 Q817.163 1415.52 820.254 1415.52 Q828.24 1415.52 832.892 1419.17 Q837.545 1422.78 837.545 1428.96 Q837.545 1433.27 835.08 1436.25 Q832.615 1439.2 828.066 1440.35 Z" fill="#000000" fill-rule="nonzero" fill-opacity="1" /><path clip-path="url(#clip000)" d="M2255.05 1462.4 L2266.51 1462.4 L2266.51 1422.85 L2254.05 1425.35 L2254.05 1418.96 L2266.44 1416.46 L2273.46 1416.46 L2273.46 1462.4 L2284.91 1462.4 L2284.91 1468.3 L2255.05 1468.3 L2255.05 1462.4 Z" fill="#000000" fill-rule="nonzero" fill-opacity="1" /><path clip-path="url(#clip000)" d="M2300.3 1462.4 L2311.75 1462.4 L2311.75 1422.85 L2299.29 1425.35 L2299.29 1418.96 L2311.68 1416.46 L2318.7 1416.46 L2318.7 1462.4 L2330.16 1462.4 L2330.16 1468.3 L2300.3 1468.3 L2300.3 1462.4 Z" fill="#000000" fill-rule="nonzero" fill-opacity="1" /><path clip-path="url(#clip000)" d="M1158.03 1537.02 L1158.03 1508.97 L1166.54 1508.97 L1166.54 1581 L1158.03 1581 L1158.03 1573.23 Q1155.34 1577.86 1151.22 1580.12 Q1147.15 1582.35 1141.41 1582.35 Q1132.01 1582.35 1126.08 1574.85 Q1120.2 1567.35 1120.2 1555.12 Q1120.2 1542.9 1126.08 1535.4 Q1132.01 1527.9 1141.41 1527.9 Q1147.15 1527.9 1151.22 1530.17 Q1155.34 1532.39 1158.03 1537.02 M1129 1555.12 Q1129 1564.52 1132.84 1569.89 Q1136.73 1575.22 1143.49 1575.22 Q1150.25 1575.22 1154.14 1569.89 Q1158.03 1564.52 1158.03 1555.12 Q1158.03 1545.73 1154.14 1540.4 Q1150.25 1535.03 1143.49 1535.03 Q1136.73 1535.03 1132.84 1540.4 Q1129 1545.73 1129 1555.12 Z" fill="#000000" fill-rule="nonzero" fill-opacity="1" /><path clip-path="url(#clip000)" d="M1228.44 1552.95 L1228.44 1557.12 L1189.28 1557.12 Q1189.83 1565.91 1194.55 1570.54 Q1199.32 1575.12 1207.79 1575.12 Q1212.7 1575.12 1217.29 1573.92 Q1221.91 1572.72 1226.45 1570.31 L1226.45 1578.36 Q1221.87 1580.31 1217.05 1581.33 Q1212.24 1582.35 1207.29 1582.35 Q1194.88 1582.35 1187.61 1575.12 Q1180.39 1567.9 1180.39 1555.59 Q1180.39 1542.86 1187.24 1535.4 Q1194.14 1527.9 1205.8 1527.9 Q1216.27 1527.9 1222.33 1534.66 Q1228.44 1541.37 1228.44 1552.95 M1219.92 1550.45 Q1219.83 1543.46 1215.99 1539.29 Q1212.19 1535.12 1205.9 1535.12 Q1198.77 1535.12 1194.46 1539.15 Q1190.2 1543.18 1189.55 1550.49 L1219.92 1550.45 Z" fill="#000000" fill-rule="nonzero" fill-opacity="1" /><path clip-path="url(#clip000)" d="M1276.54 1554.48 Q1276.54 1545.22 1272.7 1540.12 Q1268.91 1535.03 1262.01 1535.03 Q1255.16 1535.03 1251.31 1540.12 Q1247.52 1545.22 1247.52 1554.48 Q1247.52 1563.69 1251.31 1568.78 Q1255.16 1573.87 1262.01 1573.87 Q1268.91 1573.87 1272.7 1568.78 Q1276.54 1563.69 1276.54 1554.48 M1285.06 1574.57 Q1285.06 1587.81 1279.18 1594.24 Q1273.3 1600.73 1261.17 1600.73 Q1256.68 1600.73 1252.7 1600.03 Q1248.72 1599.38 1244.97 1597.99 L1244.97 1589.71 Q1248.72 1591.74 1252.38 1592.72 Q1256.03 1593.69 1259.83 1593.69 Q1268.21 1593.69 1272.38 1589.29 Q1276.54 1584.94 1276.54 1576.1 L1276.54 1571.88 Q1273.91 1576.47 1269.78 1578.74 Q1265.66 1581 1259.92 1581 Q1250.39 1581 1244.55 1573.74 Q1238.72 1566.47 1238.72 1554.48 Q1238.72 1542.44 1244.55 1535.17 Q1250.39 1527.9 1259.92 1527.9 Q1265.66 1527.9 1269.78 1530.17 Q1273.91 1532.44 1276.54 1537.02 L1276.54 1529.15 L1285.06 1529.15 L1285.06 1574.57 Z" fill="#000000" fill-rule="nonzero" fill-opacity="1" /><path clip-path="url(#clip000)" d="M1332.65 1537.12 Q1331.22 1536.28 1329.51 1535.91 Q1327.84 1535.49 1325.8 1535.49 Q1318.58 1535.49 1314.69 1540.22 Q1310.85 1544.89 1310.85 1553.69 L1310.85 1581 L1302.28 1581 L1302.28 1529.15 L1310.85 1529.15 L1310.85 1537.21 Q1313.53 1532.49 1317.84 1530.22 Q1322.15 1527.9 1328.3 1527.9 Q1329.18 1527.9 1330.25 1528.04 Q1331.31 1528.13 1332.61 1528.37 L1332.65 1537.12 Z" fill="#000000" fill-rule="nonzero" fill-opacity="1" /><path clip-path="url(#clip000)" d="M1383.86 1552.95 L1383.86 1557.12 L1344.69 1557.12 Q1345.25 1565.91 1349.97 1570.54 Q1354.74 1575.12 1363.21 1575.12 Q1368.12 1575.12 1372.7 1573.92 Q1377.33 1572.72 1381.87 1570.31 L1381.87 1578.36 Q1377.28 1580.31 1372.47 1581.33 Q1367.65 1582.35 1362.7 1582.35 Q1350.29 1582.35 1343.03 1575.12 Q1335.8 1567.9 1335.8 1555.59 Q1335.8 1542.86 1342.65 1535.4 Q1349.55 1527.9 1361.22 1527.9 Q1371.68 1527.9 1377.75 1534.66 Q1383.86 1541.37 1383.86 1552.95 M1375.34 1550.45 Q1375.25 1543.46 1371.4 1539.29 Q1367.61 1535.12 1361.31 1535.12 Q1354.18 1535.12 1349.88 1539.15 Q1345.62 1543.18 1344.97 1550.49 L1375.34 1550.45 Z" fill="#000000" fill-rule="nonzero" fill-opacity="1" /><path clip-path="url(#clip000)" d="M1442.19 1552.95 L1442.19 1557.12 L1403.02 1557.12 Q1403.58 1565.91 1408.3 1570.54 Q1413.07 1575.12 1421.54 1575.12 Q1426.45 1575.12 1431.03 1573.92 Q1435.66 1572.72 1440.2 1570.31 L1440.2 1578.36 Q1435.62 1580.31 1430.8 1581.33 Q1425.99 1582.35 1421.03 1582.35 Q1408.63 1582.35 1401.36 1575.12 Q1394.14 1567.9 1394.14 1555.59 Q1394.14 1542.86 1400.99 1535.4 Q1407.89 1527.9 1419.55 1527.9 Q1430.02 1527.9 1436.08 1534.66 Q1442.19 1541.37 1442.19 1552.95 M1433.67 1550.45 Q1433.58 1543.46 1429.74 1539.29 Q1425.94 1535.12 1419.65 1535.12 Q1412.52 1535.12 1408.21 1539.15 Q1403.95 1543.18 1403.3 1550.49 L1433.67 1550.45 Z" fill="#000000" fill-rule="nonzero" fill-opacity="1" /><polyline clip-path="url(#clip000)" style="stroke:#000000; stroke-linecap:round; stroke-linejoin:round; stroke-width:4; stroke-opacity:1; fill:none" points="209.638,1384.3 209.638,47.2441 "/>
<polyline clip-path="url(#clip000)" style="stroke:#000000; stroke-linecap:round; stroke-linejoin:round; stroke-width:4; stroke-opacity:1; fill:none" points="209.638,1346.46 228.535,1346.46 "/>
<polyline clip-path="url(#clip000)" style="stroke:#000000; stroke-linecap:round; stroke-linejoin:round; stroke-width:4; stroke-opacity:1; fill:none" points="209.638,1031.12 228.535,1031.12 "/>
<polyline clip-path="url(#clip000)" style="stroke:#000000; stroke-linecap:round; stroke-linejoin:round; stroke-width:4; stroke-opacity:1; fill:none" points="209.638,715.772 228.535,715.772 "/>
<polyline clip-path="url(#clip000)" style="stroke:#000000; stroke-linecap:round; stroke-linejoin:round; stroke-width:4; stroke-opacity:1; fill:none" points="209.638,400.429 228.535,400.429 "/>
<polyline clip-path="url(#clip000)" style="stroke:#000000; stroke-linecap:round; stroke-linejoin:round; stroke-width:4; stroke-opacity:1; fill:none" points="209.638,85.0853 228.535,85.0853 "/>
<path clip-path="url(#clip000)" d="M155.721 1325.16 Q150.305 1325.16 147.561 1330.5 Q144.853 1335.82 144.853 1346.51 Q144.853 1357.17 147.561 1362.52 Q150.305 1367.83 155.721 1367.83 Q161.173 1367.83 163.881 1362.52 Q166.624 1357.17 166.624 1346.51 Q166.624 1335.82 163.881 1330.5 Q161.173 1325.16 155.721 1325.16 M155.721 1319.6 Q164.436 1319.6 169.02 1326.51 Q173.638 1333.39 173.638 1346.51 Q173.638 1359.6 169.02 1366.51 Q164.436 1373.39 155.721 1373.39 Q147.006 1373.39 142.388 1366.51 Q137.805 1359.6 137.805 1346.51 Q137.805 1333.39 142.388 1326.51 Q147.006 1319.6 155.721 1319.6 Z" fill="#000000" fill-rule="nonzero" fill-opacity="1" /><path clip-path="url(#clip000)" d="M149.159 1051.13 L173.638 1051.13 L173.638 1057.04 L140.721 1057.04 L140.721 1051.13 Q144.714 1047 151.589 1040.06 Q158.499 1033.08 160.27 1031.06 Q163.638 1027.28 164.957 1024.67 Q166.311 1022.04 166.311 1019.5 Q166.311 1015.37 163.395 1012.76 Q160.513 1010.16 155.86 1010.16 Q152.561 1010.16 148.881 1011.31 Q145.235 1012.45 141.068 1014.78 L141.068 1007.7 Q145.305 1005.99 148.985 1005.13 Q152.666 1004.26 155.721 1004.26 Q163.777 1004.26 168.568 1008.29 Q173.36 1012.31 173.36 1019.05 Q173.36 1022.24 172.145 1025.13 Q170.964 1027.97 167.804 1031.86 Q166.936 1032.87 162.284 1037.7 Q157.631 1042.49 149.159 1051.13 Z" fill="#000000" fill-rule="nonzero" fill-opacity="1" /><path clip-path="url(#clip000)" d="M159.263 695.963 L141.555 723.637 L159.263 723.637 L159.263 695.963 M157.423 689.852 L166.242 689.852 L166.242 723.637 L173.638 723.637 L173.638 729.47 L166.242 729.47 L166.242 741.692 L159.263 741.692 L159.263 729.47 L135.86 729.47 L135.86 722.699 L157.423 689.852 Z" fill="#000000" fill-rule="nonzero" fill-opacity="1" /><path clip-path="url(#clip000)" d="M156.346 397.634 Q151.624 397.634 148.846 400.863 Q146.103 404.092 146.103 409.717 Q146.103 415.307 148.846 418.571 Q151.624 421.8 156.346 421.8 Q161.068 421.8 163.811 418.571 Q166.589 415.307 166.589 409.717 Q166.589 404.092 163.811 400.863 Q161.068 397.634 156.346 397.634 M170.27 375.654 L170.27 382.043 Q167.631 380.793 164.923 380.134 Q162.249 379.474 159.61 379.474 Q152.666 379.474 148.985 384.161 Q145.339 388.849 144.818 398.328 Q146.867 395.307 149.957 393.71 Q153.048 392.078 156.763 392.078 Q164.575 392.078 169.089 396.835 Q173.638 401.557 173.638 409.717 Q173.638 417.703 168.916 422.529 Q164.193 427.356 156.346 427.356 Q147.353 427.356 142.596 420.481 Q137.839 413.571 137.839 400.481 Q137.839 388.189 143.673 380.897 Q149.506 373.571 159.332 373.571 Q161.971 373.571 164.645 374.092 Q167.353 374.613 170.27 375.654 Z" fill="#000000" fill-rule="nonzero" fill-opacity="1" /><path clip-path="url(#clip000)" d="M155.86 86.3874 Q150.86 86.3874 147.978 89.061 Q145.131 91.7346 145.131 96.422 Q145.131 101.11 147.978 103.783 Q150.86 106.457 155.86 106.457 Q160.86 106.457 163.742 103.783 Q166.624 101.075 166.624 96.422 Q166.624 91.7346 163.742 89.061 Q160.895 86.3874 155.86 86.3874 M148.846 83.4013 Q144.332 82.2902 141.798 79.1999 Q139.298 76.1096 139.298 71.6652 Q139.298 65.45 143.707 61.8389 Q148.152 58.2278 155.86 58.2278 Q163.603 58.2278 168.013 61.8389 Q172.422 65.45 172.422 71.6652 Q172.422 76.1096 169.888 79.1999 Q167.388 82.2902 162.909 83.4013 Q167.978 84.5818 170.791 88.0193 Q173.638 91.4568 173.638 96.422 Q173.638 103.957 169.02 107.984 Q164.436 112.012 155.86 112.012 Q147.284 112.012 142.666 107.984 Q138.082 103.957 138.082 96.422 Q138.082 91.4568 140.93 88.0193 Q143.777 84.5818 148.846 83.4013 M146.277 72.3249 Q146.277 76.3527 148.777 78.6096 Q151.311 80.8666 155.86 80.8666 Q160.374 80.8666 162.909 78.6096 Q165.478 76.3527 165.478 72.3249 Q165.478 68.2972 162.909 66.0403 Q160.374 63.7833 155.86 63.7833 Q151.311 63.7833 148.777 66.0403 Q146.277 68.2972 146.277 72.3249 Z" fill="#000000" fill-rule="nonzero" fill-opacity="1" /><path clip-path="url(#clip000)" d="M7.08751 752.508 L14.1708 752.508 L14.1708 760.656 Q14.1708 765.239 16.0226 767.045 Q17.8745 768.804 22.6893 768.804 L27.2726 768.804 L27.2726 754.776 L33.8929 754.776 L33.8929 768.804 L79.1242 768.804 L79.1242 777.369 L33.8929 777.369 L33.8929 785.517 L27.2726 785.517 L27.2726 777.369 L23.6615 777.369 Q15.0041 777.369 11.069 773.341 Q7.08751 769.313 7.08751 760.563 L7.08751 752.508 Z" fill="#000000" fill-rule="nonzero" fill-opacity="1" /><path clip-path="url(#clip000)" d="M27.2726 745.378 L27.2726 736.86 L79.1242 736.86 L79.1242 745.378 L27.2726 745.378 M7.08751 745.378 L7.08751 736.86 L17.8745 736.86 L17.8745 745.378 L7.08751 745.378 Z" fill="#000000" fill-rule="nonzero" fill-opacity="1" /><path clip-path="url(#clip000)" d="M12.5504 710.61 L27.2726 710.61 L27.2726 693.064 L33.8929 693.064 L33.8929 710.61 L62.0409 710.61 Q68.3835 710.61 70.189 708.897 Q71.9946 707.138 71.9946 701.814 L71.9946 693.064 L79.1242 693.064 L79.1242 701.814 Q79.1242 711.675 75.4668 715.425 Q71.7631 719.175 62.0409 719.175 L33.8929 719.175 L33.8929 725.425 L27.2726 725.425 L27.2726 719.175 L12.5504 719.175 L12.5504 710.61 Z" fill="#000000" fill-rule="nonzero" fill-opacity="1" /><path clip-path="url(#clip000)" d="M28.8004 648.805 L36.8559 648.805 Q35.004 652.416 34.0781 656.305 Q33.1522 660.194 33.1522 664.36 Q33.1522 670.703 35.0966 673.897 Q37.041 677.045 40.9299 677.045 Q43.8929 677.045 45.6058 674.777 Q47.2725 672.508 48.8002 665.656 L49.4484 662.74 Q51.3928 653.666 54.9576 649.87 Q58.4761 646.027 64.8187 646.027 Q72.0409 646.027 76.2538 651.768 Q80.4667 657.462 80.4667 667.462 Q80.4667 671.629 79.6334 676.166 Q78.8464 680.656 77.226 685.656 L68.4298 685.656 Q70.8835 680.934 72.1335 676.351 Q73.3372 671.768 73.3372 667.277 Q73.3372 661.258 71.3001 658.018 Q69.2168 654.777 65.4668 654.777 Q61.9946 654.777 60.1428 657.138 Q58.2909 659.453 56.578 667.369 L55.8835 670.332 Q54.2169 678.249 50.791 681.768 Q47.3188 685.286 41.3003 685.286 Q33.9855 685.286 30.0041 680.101 Q26.0226 674.916 26.0226 665.379 Q26.0226 660.657 26.717 656.49 Q27.4115 652.323 28.8004 648.805 Z" fill="#000000" fill-rule="nonzero" fill-opacity="1" /><circle clip-path="url(#clip001)" cx="454.093" cy="139.105" r="21.6" fill="#ff0000" fill-rule="evenodd" fill-opacity="1" stroke="none"/>
<circle clip-path="url(#clip001)" cx="637.894" cy="913.243" r="21.6" fill="#ff0000" fill-rule="evenodd" fill-opacity="1" stroke="none"/>
<circle clip-path="url(#clip001)" cx="821.695" cy="1073.41" r="21.6" fill="#ff0000" fill-rule="evenodd" fill-opacity="1" stroke="none"/>
<circle clip-path="url(#clip001)" cx="1005.5" cy="1117.22" r="21.6" fill="#ff0000" fill-rule="evenodd" fill-opacity="1" stroke="none"/>
<circle clip-path="url(#clip001)" cx="1189.3" cy="1118.99" r="21.6" fill="#ff0000" fill-rule="evenodd" fill-opacity="1" stroke="none"/>
<circle clip-path="url(#clip001)" cx="1373.1" cy="1136.02" r="21.6" fill="#ff0000" fill-rule="evenodd" fill-opacity="1" stroke="none"/>
<circle clip-path="url(#clip001)" cx="1556.9" cy="1142.8" r="21.6" fill="#ff0000" fill-rule="evenodd" fill-opacity="1" stroke="none"/>
<circle clip-path="url(#clip001)" cx="1740.7" cy="1144.8" r="21.6" fill="#ff0000" fill-rule="evenodd" fill-opacity="1" stroke="none"/>
<circle clip-path="url(#clip001)" cx="1924.5" cy="1175.31" r="21.6" fill="#ff0000" fill-rule="evenodd" fill-opacity="1" stroke="none"/>
<circle clip-path="url(#clip001)" cx="2108.3" cy="1266.49" r="21.6" fill="#ff0000" fill-rule="evenodd" fill-opacity="1" stroke="none"/>
<circle clip-path="url(#clip001)" cx="2292.1" cy="1346.46" r="21.6" fill="#ff0000" fill-rule="evenodd" fill-opacity="1" stroke="none"/>
<path clip-path="url(#clip001)" d="M454.093 149.571 L430.093 197.571 L478.093 197.571 L454.093 149.571 Z" fill="#0000ff" fill-rule="evenodd" fill-opacity="1" stroke="none"/>
<path clip-path="url(#clip001)" d="M637.894 997.581 L613.894 1045.58 L661.894 1045.58 L637.894 997.581 Z" fill="#0000ff" fill-rule="evenodd" fill-opacity="1" stroke="none"/>
<path clip-path="url(#clip001)" d="M821.695 1242.29 L797.695 1290.29 L845.695 1290.29 L821.695 1242.29 Z" fill="#0000ff" fill-rule="evenodd" fill-opacity="1" stroke="none"/>
<path clip-path="url(#clip001)" d="M1005.5 1216.19 L981.496 1264.19 L1029.5 1264.19 L1005.5 1216.19 Z" fill="#0000ff" fill-rule="evenodd" fill-opacity="1" stroke="none"/>
<path clip-path="url(#clip001)" d="M1189.3 1210.41 L1165.3 1258.41 L1213.3 1258.41 L1189.3 1210.41 Z" fill="#0000ff" fill-rule="evenodd" fill-opacity="1" stroke="none"/>
<path clip-path="url(#clip001)" d="M1373.1 1180.1 L1349.1 1228.1 L1397.1 1228.1 L1373.1 1180.1 Z" fill="#0000ff" fill-rule="evenodd" fill-opacity="1" stroke="none"/>
<path clip-path="url(#clip001)" d="M1556.9 1170.51 L1532.9 1218.51 L1580.9 1218.51 L1556.9 1170.51 Z" fill="#0000ff" fill-rule="evenodd" fill-opacity="1" stroke="none"/>
<path clip-path="url(#clip001)" d="M1740.7 1167.86 L1716.7 1215.86 L1764.7 1215.86 L1740.7 1167.86 Z" fill="#0000ff" fill-rule="evenodd" fill-opacity="1" stroke="none"/>
<path clip-path="url(#clip001)" d="M1924.5 1134.64 L1900.5 1182.64 L1948.5 1182.64 L1924.5 1134.64 Z" fill="#0000ff" fill-rule="evenodd" fill-opacity="1" stroke="none"/>
<path clip-path="url(#clip001)" d="M2108.3 1081.27 L2084.3 1129.27 L2132.3 1129.27 L2108.3 1081.27 Z" fill="#0000ff" fill-rule="evenodd" fill-opacity="1" stroke="none"/>
<path clip-path="url(#clip001)" d="M2292.1 1068.36 L2268.1 1116.36 L2316.1 1116.36 L2292.1 1068.36 Z" fill="#0000ff" fill-rule="evenodd" fill-opacity="1" stroke="none"/>
<polyline clip-path="url(#clip001)" style="stroke:#008000; stroke-linecap:round; stroke-linejoin:round; stroke-width:8; stroke-opacity:1; fill:none" points="270.292,1092.36 2292.1,1092.36 "/>
<path clip-path="url(#clip000)" d="M1296.28 595.069 L2281.32 595.069 L2281.32 91.8126 L1296.28 91.8126  Z" fill="#ffffff" fill-rule="evenodd" fill-opacity="1"/>
<polyline clip-path="url(#clip000)" style="stroke:#000000; stroke-linecap:round; stroke-linejoin:round; stroke-width:4; stroke-opacity:1; fill:none" points="1296.28,595.069 2281.32,595.069 2281.32,91.8126 1296.28,91.8126 1296.28,595.069 "/>
<circle clip-path="url(#clip000)" cx="1391.53" cy="217.627" r="37.2185" fill="#ff0000" fill-rule="evenodd" fill-opacity="1" stroke="none"/>
<path clip-path="url(#clip000)" d="M1486.78 254.977 L1486.78 176.196 Q1486.78 173.696 1488.46 173.696 Q1490.14 173.696 1490.14 176.319 L1490.14 254.772 Q1490.14 257.478 1488.46 257.478 Q1486.78 257.478 1486.78 254.977 M1496.05 254.977 L1496.05 176.811 Q1496.05 173.696 1497.73 173.696 Q1499.41 173.696 1499.41 176.319 L1499.41 254.772 Q1499.41 257.478 1497.73 257.478 Q1496.05 257.478 1496.05 254.977 Z" fill="#000000" fill-rule="nonzero" fill-opacity="1" /><path clip-path="url(#clip000)" d="M1585.94 234.893 Q1585.94 235.671 1585.62 236.081 Q1585.33 236.45 1585.04 236.532 Q1584.8 236.573 1584.43 236.573 Q1583.36 236.573 1579.67 236.45 Q1575.98 236.327 1574.92 236.327 Q1573.2 236.327 1569.67 236.45 Q1566.15 236.573 1564.42 236.573 Q1563.28 236.573 1563.28 235.63 Q1563.28 235.016 1563.4 234.688 Q1563.52 234.319 1563.85 234.196 Q1564.22 234.032 1564.42 234.032 Q1564.67 233.991 1565.28 233.991 Q1566.1 233.991 1566.97 233.909 Q1567.83 233.786 1568.89 233.54 Q1569.96 233.294 1570.61 232.679 Q1571.31 232.064 1571.31 231.204 Q1571.31 230.835 1571.02 227.802 Q1570.74 224.768 1570.37 221.243 Q1570 217.677 1569.96 217.185 L1548.89 217.185 Q1546.96 220.505 1545.61 222.801 Q1544.26 225.096 1543.77 225.875 Q1543.27 226.654 1542.99 227.146 Q1542.7 227.638 1542.54 227.924 Q1541.35 230.097 1541.35 231.04 Q1541.35 233.663 1545.28 233.991 Q1546.63 233.991 1546.63 234.975 Q1546.63 235.712 1546.31 236.122 Q1545.98 236.491 1545.69 236.532 Q1545.45 236.573 1545.04 236.573 Q1543.68 236.573 1540.86 236.45 Q1538.03 236.327 1536.63 236.327 Q1535.44 236.327 1532.99 236.45 Q1530.53 236.573 1529.42 236.573 Q1528.93 236.573 1528.64 236.286 Q1528.35 235.999 1528.35 235.63 Q1528.35 235.057 1528.44 234.729 Q1528.56 234.401 1528.89 234.237 Q1529.21 234.073 1529.38 234.073 Q1529.54 234.032 1530.12 233.991 Q1533.23 233.786 1535.65 232.31 Q1538.11 230.794 1540.45 226.9 L1569.63 177.877 Q1569.92 177.385 1570.12 177.139 Q1570.33 176.893 1570.74 176.688 Q1571.19 176.483 1571.84 176.483 Q1572.87 176.483 1573.07 176.811 Q1573.28 177.098 1573.4 178.491 L1578.52 230.958 Q1578.65 232.064 1578.73 232.515 Q1578.85 232.925 1579.39 233.376 Q1579.96 233.786 1580.98 233.909 Q1582.05 233.991 1584.02 233.991 Q1584.75 233.991 1585.04 234.032 Q1585.33 234.032 1585.62 234.237 Q1585.94 234.442 1585.94 234.893 M1569.71 214.562 L1567.05 186.894 L1550.49 214.562 L1569.71 214.562 Z" fill="#000000" fill-rule="nonzero" fill-opacity="1" /><path clip-path="url(#clip000)" d="M1622.32 220.661 L1613.86 254.633 Q1613.51 256.154 1613.51 257.445 Q1613.51 260.142 1615.26 260.142 Q1616.12 260.142 1616.81 259.597 Q1617.5 259.052 1618.04 257.904 Q1618.59 256.756 1618.93 255.695 Q1619.28 254.604 1619.74 252.883 Q1619.88 252.194 1620 252.022 Q1620.14 251.821 1620.54 251.821 Q1621.26 251.821 1621.26 252.395 Q1620.48 256.096 1619.48 258.22 Q1617.87 261.462 1615.15 261.462 Q1613.08 261.462 1611.62 260.199 Q1610.15 258.937 1609.81 257.043 Q1606.05 261.462 1602.15 261.462 Q1598.71 261.462 1596.53 258.851 Q1594.34 256.211 1594.34 252.051 Q1594.34 247.862 1596.41 243.845 Q1598.51 239.828 1601.8 237.332 Q1605.1 234.835 1608.49 234.835 Q1612.08 234.835 1613.91 238.594 L1617.44 224.649 L1617.61 223.502 Q1617.61 223.157 1617.47 222.985 Q1617.36 222.784 1616.67 222.641 Q1616.01 222.497 1614.69 222.497 Q1614.14 222.497 1613.88 222.469 Q1613.65 222.44 1613.45 222.297 Q1613.25 222.124 1613.25 221.78 Q1613.25 220.776 1614.09 220.661 Q1619.59 220.03 1621.55 220.03 Q1621.89 220.03 1622.09 220.202 Q1622.29 220.346 1622.29 220.518 L1622.32 220.661 M1613.2 241.291 Q1613.2 241.033 1612.99 240.316 Q1612.79 239.598 1612.33 238.594 Q1611.88 237.59 1610.87 236.872 Q1609.9 236.126 1608.58 236.126 Q1606.8 236.126 1604.93 237.647 Q1603.1 239.168 1601.75 241.75 Q1600.71 243.816 1599.6 248.149 Q1598.51 252.481 1598.51 254.633 Q1598.51 255.953 1598.79 257.129 Q1599.11 258.277 1600 259.224 Q1600.89 260.142 1602.26 260.142 Q1605.62 260.142 1608.92 255.982 Q1609.55 255.264 1609.7 254.977 Q1609.87 254.662 1610.1 253.801 L1613.02 242.295 Q1613.2 241.435 1613.2 241.291 Z" fill="#000000" fill-rule="nonzero" fill-opacity="1" /><path clip-path="url(#clip000)" d="M1668.78 189.372 L1668.07 190.548 Q1663.62 188.626 1658.08 185.556 Q1652.54 188.626 1648.1 190.548 L1647.41 189.372 Q1652.26 185.154 1658.08 181.912 Q1663.96 185.183 1668.78 189.372 Z" fill="#000000" fill-rule="nonzero" fill-opacity="1" /><path clip-path="url(#clip000)" d="M1672.82 205.011 Q1672.82 207.307 1671.38 208.619 Q1669.95 209.889 1668.31 209.889 Q1666.75 209.889 1665.93 208.987 Q1665.11 208.086 1665.11 206.938 Q1665.11 205.38 1666.26 204.028 Q1667.41 202.675 1669.13 202.388 Q1667.45 201.322 1664.95 201.322 Q1663.31 201.322 1661.87 202.183 Q1660.48 203.044 1659.62 204.151 Q1658.8 205.257 1658.06 206.856 Q1657.37 208.414 1657.08 209.356 Q1656.83 210.258 1656.63 211.242 L1653.76 222.719 Q1652.36 228.17 1652.36 230.097 Q1652.36 232.474 1653.51 234.073 Q1654.66 235.63 1656.96 235.63 Q1657.86 235.63 1658.88 235.385 Q1659.91 235.098 1661.22 234.36 Q1662.57 233.581 1663.76 232.433 Q1664.99 231.245 1666.18 229.236 Q1667.37 227.228 1668.15 224.645 Q1668.39 223.744 1669.21 223.744 Q1670.24 223.744 1670.24 224.563 Q1670.24 225.26 1669.66 226.736 Q1669.13 228.17 1667.94 230.056 Q1666.79 231.9 1665.28 233.581 Q1663.76 235.221 1661.51 236.368 Q1659.25 237.516 1656.79 237.516 Q1653.27 237.516 1650.93 235.63 Q1648.59 233.745 1647.73 231.122 Q1647.53 231.491 1647.24 231.982 Q1646.95 232.474 1646.09 233.581 Q1645.27 234.647 1644.33 235.467 Q1643.39 236.245 1641.91 236.86 Q1640.48 237.516 1638.92 237.516 Q1636.95 237.516 1635.19 236.942 Q1633.47 236.368 1632.24 235.057 Q1631.01 233.745 1631.01 231.941 Q1631.01 229.933 1632.36 228.539 Q1633.76 227.105 1635.64 227.105 Q1636.83 227.105 1637.77 227.802 Q1638.76 228.498 1638.76 230.015 Q1638.76 231.696 1637.61 232.966 Q1636.46 234.237 1634.82 234.565 Q1636.5 235.63 1639 235.63 Q1641.71 235.63 1643.84 233.253 Q1645.97 230.876 1647 226.9 Q1649.54 217.349 1650.52 213.086 Q1651.5 208.782 1651.5 206.938 Q1651.5 205.216 1651.05 204.028 Q1650.6 202.839 1649.82 202.306 Q1649.09 201.732 1648.39 201.527 Q1647.73 201.322 1647 201.322 Q1645.77 201.322 1644.37 201.814 Q1643.02 202.306 1641.38 203.454 Q1639.78 204.561 1638.26 206.856 Q1636.75 209.151 1635.72 212.308 Q1635.52 213.25 1634.62 213.25 Q1633.63 213.209 1633.63 212.39 Q1633.63 211.693 1634.17 210.258 Q1634.74 208.782 1635.89 206.938 Q1637.08 205.093 1638.59 203.454 Q1640.15 201.773 1642.4 200.626 Q1644.7 199.478 1647.16 199.478 Q1648.27 199.478 1649.33 199.724 Q1650.44 199.929 1651.75 200.544 Q1653.1 201.158 1654.29 202.511 Q1655.48 203.864 1656.22 205.831 Q1656.71 204.889 1657.37 203.987 Q1658.06 203.085 1659.13 201.978 Q1660.23 200.831 1661.75 200.175 Q1663.31 199.478 1665.03 199.478 Q1666.71 199.478 1668.35 199.929 Q1669.99 200.339 1671.38 201.691 Q1672.82 203.003 1672.82 205.011 Z" fill="#000000" fill-rule="nonzero" fill-opacity="1" /><path clip-path="url(#clip000)" d="M1710.29 221.599 L1701.82 255.571 Q1701.48 257.091 1701.48 258.382 Q1701.48 261.08 1703.23 261.08 Q1704.09 261.08 1704.78 260.534 Q1705.47 259.989 1706.01 258.842 Q1706.56 257.694 1706.9 256.632 Q1707.24 255.542 1707.7 253.82 Q1707.85 253.132 1707.96 252.96 Q1708.11 252.759 1708.51 252.759 Q1709.22 252.759 1709.22 253.333 Q1708.45 257.034 1707.45 259.157 Q1705.84 262.399 1703.11 262.399 Q1701.05 262.399 1699.58 261.137 Q1698.12 259.874 1697.78 257.981 Q1694.02 262.399 1690.12 262.399 Q1686.67 262.399 1684.49 259.788 Q1682.31 257.149 1682.31 252.988 Q1682.31 248.799 1684.38 244.782 Q1686.47 240.765 1689.77 238.269 Q1693.07 235.773 1696.46 235.773 Q1700.04 235.773 1701.88 239.531 L1705.41 225.587 L1705.58 224.439 Q1705.58 224.095 1705.44 223.923 Q1705.32 223.722 1704.63 223.578 Q1703.97 223.435 1702.65 223.435 Q1702.11 223.435 1701.85 223.406 Q1701.62 223.378 1701.42 223.234 Q1701.22 223.062 1701.22 222.718 Q1701.22 221.713 1702.05 221.599 Q1707.56 220.967 1709.51 220.967 Q1709.86 220.967 1710.06 221.14 Q1710.26 221.283 1710.26 221.455 L1710.29 221.599 M1701.16 242.229 Q1701.16 241.97 1700.96 241.253 Q1700.76 240.536 1700.3 239.531 Q1699.84 238.527 1698.84 237.81 Q1697.86 237.064 1696.54 237.064 Q1694.76 237.064 1692.9 238.585 Q1691.06 240.105 1689.71 242.688 Q1688.68 244.754 1687.56 249.086 Q1686.47 253.419 1686.47 255.571 Q1686.47 256.89 1686.76 258.067 Q1687.07 259.215 1687.96 260.161 Q1688.85 261.08 1690.23 261.08 Q1693.59 261.08 1696.89 256.919 Q1697.52 256.202 1697.66 255.915 Q1697.83 255.599 1698.06 254.739 L1700.99 243.233 Q1701.16 242.372 1701.16 242.229 Z" fill="#000000" fill-rule="nonzero" fill-opacity="1" /><path clip-path="url(#clip000)" d="M1797.68 214.398 Q1798.18 214.89 1798.18 215.587 Q1798.18 216.284 1797.68 216.775 Q1797.19 217.267 1796.5 217.267 L1743.95 217.267 Q1743.25 217.267 1742.76 216.775 Q1742.27 216.284 1742.27 215.587 Q1742.27 214.89 1742.76 214.398 Q1743.25 213.906 1743.95 213.906 L1796.5 213.906 Q1797.19 213.906 1797.68 214.398 Z" fill="#000000" fill-rule="nonzero" fill-opacity="1" /><path clip-path="url(#clip000)" d="M1868.96 202.675 Q1868.96 203.249 1868.59 204.602 L1860.56 236.655 Q1858.8 243.787 1853.06 248.788 Q1847.36 253.789 1840.88 253.789 Q1836.99 253.789 1834.49 251.698 Q1831.99 249.649 1831.99 246.493 Q1831.99 243.705 1833.46 242.353 Q1834.94 241.041 1836.7 241.041 Q1837.28 241.041 1837.89 241.205 Q1838.51 241.369 1839.16 242.066 Q1839.82 242.763 1839.82 243.951 Q1839.82 245.878 1838.14 247.394 Q1837.32 248.091 1836.54 248.255 Q1835.8 248.419 1834.53 248.419 Q1835.02 249.567 1835.92 250.346 Q1836.83 251.124 1837.85 251.411 Q1838.88 251.739 1839.53 251.821 Q1840.23 251.944 1840.88 251.944 Q1846.13 251.944 1850.15 246.657 Q1851.34 245.058 1852.2 243.459 Q1853.1 241.902 1853.75 239.975 Q1854.41 238.09 1854.7 237.065 Q1855.02 236.04 1855.6 233.704 Q1851.79 237.516 1847.11 237.516 Q1845.15 237.516 1843.38 236.983 Q1841.66 236.45 1840.15 235.344 Q1838.63 234.196 1837.73 232.187 Q1836.87 230.179 1836.87 227.515 Q1836.87 224.686 1837.97 220.833 Q1839.08 216.98 1841.74 209.889 Q1843.18 205.913 1843.18 203.987 Q1843.18 203.044 1842.97 202.47 Q1842.77 201.855 1842.36 201.65 Q1841.95 201.404 1841.7 201.363 Q1841.5 201.322 1841.09 201.322 Q1838.67 201.322 1836.42 203.782 Q1834.16 206.241 1832.6 211.734 Q1832.28 212.758 1832.07 213.004 Q1831.87 213.25 1831.25 213.25 Q1830.23 213.209 1830.23 212.39 Q1830.23 212.062 1830.6 210.791 Q1830.96 209.479 1831.82 207.553 Q1832.73 205.585 1833.96 203.823 Q1835.19 202.019 1837.11 200.749 Q1839.08 199.478 1841.33 199.478 Q1844.41 199.478 1846.29 201.486 Q1848.22 203.454 1848.22 206.364 Q1848.22 207.553 1847.89 208.619 Q1847.61 209.643 1846.54 212.39 Q1842.24 223.457 1842.24 228.867 Q1842.24 230.179 1842.44 231.286 Q1842.69 232.351 1843.22 233.417 Q1843.75 234.442 1844.82 235.057 Q1845.93 235.63 1847.44 235.63 Q1849.37 235.63 1851.17 234.729 Q1853.02 233.786 1854.16 232.515 Q1855.35 231.245 1856.05 230.179 Q1856.79 229.072 1856.95 228.498 L1860.72 213.414 L1862.4 206.692 Q1863.18 203.044 1863.55 202.142 Q1864.04 201.281 1864.9 200.831 Q1865.76 200.38 1866.5 200.38 Q1867.53 200.38 1868.22 200.995 Q1868.96 201.609 1868.96 202.675 Z" fill="#000000" fill-rule="nonzero" fill-opacity="1" /><path clip-path="url(#clip000)" d="M1870.94 254.977 L1870.94 176.196 Q1870.94 173.696 1872.62 173.696 Q1874.31 173.696 1874.31 176.319 L1874.31 254.772 Q1874.31 257.478 1872.62 257.478 Q1870.94 257.478 1870.94 254.977 M1880.21 254.977 L1880.21 176.811 Q1880.21 173.696 1881.89 173.696 Q1883.57 173.696 1883.57 176.319 L1883.57 254.772 Q1883.57 257.478 1881.89 257.478 Q1880.21 257.478 1880.21 254.977 Z" fill="#000000" fill-rule="nonzero" fill-opacity="1" /><path clip-path="url(#clip000)" d="M1892.4 280.534 Q1892.4 279.472 1892.49 279.157 Q1892.6 278.841 1893.06 278.353 L1904.34 265.786 Q1910.51 258.842 1910.51 252.788 Q1910.51 248.857 1908.44 246.045 Q1906.41 243.234 1902.65 243.234 Q1900.06 243.234 1897.88 244.812 Q1895.7 246.39 1894.7 249.202 Q1894.87 249.144 1895.47 249.144 Q1896.94 249.144 1897.74 250.062 Q1898.57 250.981 1898.57 252.214 Q1898.57 253.792 1897.54 254.567 Q1896.54 255.313 1895.53 255.313 Q1895.13 255.313 1894.58 255.227 Q1894.07 255.141 1893.24 254.338 Q1892.4 253.506 1892.4 252.042 Q1892.4 247.939 1895.5 244.668 Q1898.63 241.397 1903.39 241.397 Q1908.79 241.397 1912.32 244.611 Q1915.87 247.796 1915.87 252.788 Q1915.87 254.538 1915.33 256.145 Q1914.81 257.723 1914.1 258.957 Q1913.41 260.191 1911.51 262.171 Q1909.62 264.15 1908.1 265.556 Q1906.58 266.962 1903.16 269.946 L1896.94 276 L1907.52 276 Q1912.69 276 1913.09 275.541 Q1913.67 274.709 1914.38 270.319 L1915.87 270.319 L1914.21 280.534 L1892.4 280.534 Z" fill="#000000" fill-rule="nonzero" fill-opacity="1" /><path clip-path="url(#clip000)" d="M1947.9 223.826 Q1947.98 222.801 1949.58 222.801 L2001.02 222.801 Q2003.44 222.801 2003.48 223.744 Q2003.48 224.768 2001.18 224.727 L1950.15 224.727 Q1947.9 224.768 1947.9 223.826 M1947.9 207.43 Q1947.9 206.405 1949.66 206.446 L2000.94 206.446 Q2003.44 206.446 2003.48 207.43 Q2003.48 208.373 2001.35 208.373 L1949.58 208.373 Q1947.9 208.373 1947.9 207.43 Z" fill="#000000" fill-rule="nonzero" fill-opacity="1" /><path clip-path="url(#clip000)" d="M2035.86 214.442 L2047.35 196.719 L2052.02 220.236 L2052.9 224.521 Q2053.09 223.401 2053.68 221.502 Q2054.31 219.554 2054.41 219.067 L2069.84 159.812 Q2069.94 159.423 2070.09 158.79 Q2070.28 158.108 2070.38 157.865 Q2070.47 157.621 2070.62 157.135 Q2070.77 156.648 2070.86 156.502 Q2070.96 156.307 2071.11 155.966 Q2071.25 155.625 2071.45 155.528 Q2071.64 155.43 2071.89 155.236 Q2072.13 155.041 2072.42 154.992 Q2072.76 154.943 2073.1 154.895 Q2073.44 154.846 2073.93 154.846 L2082.65 154.846 Q2085.71 154.846 2085.71 156.842 Q2085.71 158.839 2082.74 158.839 L2074.22 158.839 L2054.12 235.719 Q2053.82 236.839 2053.58 237.277 Q2053.38 237.716 2052.7 238.105 Q2052.02 238.495 2050.8 238.495 L2049.83 238.495 L2043.45 206.798 L2037.46 216.049 L2035.86 214.442 Z" fill="#000000" fill-rule="nonzero" fill-opacity="1" /><path clip-path="url(#clip000)" d="M2082.44 158.862 L2257.51 158.862 L2257.51 154.72 L2082.44 154.72  Z" fill="#000000" fill-rule="evenodd" fill-opacity="1"/>
<path clip-path="url(#clip000)" d="M2091.4 236.487 L2091.4 233.905 L2093.41 233.905 Q2097.96 233.905 2098.99 233.167 Q2100.05 232.388 2100.05 229.929 L2100.05 185.948 Q2100.05 183.529 2098.99 182.791 Q2097.92 182.013 2093.41 182.013 L2091.4 182.013 L2091.4 179.389 L2138.66 179.389 L2141 198.285 L2138.91 198.285 Q2138.34 193.49 2137.56 190.743 Q2136.82 187.956 2134.97 185.825 Q2133.17 183.693 2130.18 182.873 Q2127.23 182.013 2122.43 182.013 L2111.61 182.013 Q2108.74 182.013 2108.13 182.627 Q2107.51 183.201 2107.51 185.374 L2107.51 205.499 L2115.05 205.499 Q2120.83 205.499 2122.47 203.491 Q2124.11 201.483 2124.11 195.703 L2126.24 195.703 L2126.24 217.919 L2124.11 217.919 Q2124.11 212.222 2122.47 210.172 Q2120.83 208.123 2115.05 208.123 L2107.51 208.123 L2107.51 230.544 Q2107.51 232.716 2108.13 233.331 Q2108.78 233.905 2111.61 233.905 L2122.8 233.905 Q2126.41 233.905 2129.03 233.454 Q2131.69 232.962 2133.54 231.815 Q2135.38 230.626 2136.61 229.273 Q2137.88 227.921 2138.75 225.502 Q2139.65 223.043 2140.14 220.788 Q2140.67 218.534 2141.25 214.845 L2143.34 214.845 L2139.81 236.487 L2091.4 236.487 Z" fill="#000000" fill-rule="nonzero" fill-opacity="1" /><path clip-path="url(#clip000)" d="M2152.62 236.323 L2152.62 219.518 Q2152.62 218.575 2152.66 218.247 Q2152.7 217.919 2152.94 217.673 Q2153.19 217.427 2153.68 217.427 Q2154.62 217.427 2154.71 218.288 Q2154.95 226.609 2159.91 231.2 Q2164.79 235.75 2173.15 235.75 Q2178.19 235.75 2181.31 232.142 Q2184.42 228.494 2184.42 223.74 Q2184.42 219.19 2181.8 215.993 Q2180.69 214.558 2179.3 213.656 Q2177.95 212.714 2177.09 212.427 Q2176.27 212.14 2174.67 211.73 Q2164.26 209.229 2163.6 208.943 Q2158.64 207.262 2155.61 203.04 Q2152.62 198.777 2152.62 193.572 Q2152.62 186.849 2157.33 182.095 Q2162.08 177.299 2168.97 177.299 Q2172.41 177.299 2175.28 178.406 Q2178.19 179.471 2179.38 180.455 Q2180.57 181.439 2182.42 183.201 L2185.33 178.406 Q2185.98 177.299 2186.6 177.299 Q2187.25 177.299 2187.37 177.709 Q2187.54 178.078 2187.54 179.307 L2187.54 196.195 Q2187.54 197.138 2187.5 197.466 Q2187.46 197.793 2187.17 197.998 Q2186.92 198.203 2186.43 198.203 Q2185.61 198.203 2185.41 197.22 Q2183.07 179.676 2169.05 179.676 Q2164.26 179.676 2161.1 182.914 Q2157.99 186.112 2157.99 190.661 Q2157.99 194.35 2160.28 197.384 Q2162.58 200.376 2166.47 201.319 L2177.21 203.901 Q2182.58 205.172 2186.19 209.926 Q2189.79 214.681 2189.79 220.87 Q2189.79 228.003 2185.12 233.167 Q2180.49 238.332 2173.23 238.332 Q2168.03 238.332 2164.01 236.61 Q2159.99 234.889 2157.82 232.47 Q2156.14 235.258 2155.03 236.815 L2154.79 237.225 Q2154.13 238.332 2153.52 238.332 Q2152.86 238.332 2152.74 237.922 Q2152.62 237.512 2152.62 236.323 Z" fill="#000000" fill-rule="nonzero" fill-opacity="1" /><path clip-path="url(#clip000)" d="M2202.43 236.323 L2202.43 219.518 Q2202.43 218.575 2202.47 218.247 Q2202.51 217.919 2202.76 217.673 Q2203 217.427 2203.49 217.427 Q2204.44 217.427 2204.52 218.288 Q2204.77 226.609 2209.73 231.2 Q2214.6 235.75 2222.96 235.75 Q2228.01 235.75 2231.12 232.142 Q2234.24 228.494 2234.24 223.74 Q2234.24 219.19 2231.61 215.993 Q2230.51 214.558 2229.11 213.656 Q2227.76 212.714 2226.9 212.427 Q2226.08 212.14 2224.48 211.73 Q2214.07 209.229 2213.41 208.943 Q2208.45 207.262 2205.42 203.04 Q2202.43 198.777 2202.43 193.572 Q2202.43 186.849 2207.14 182.095 Q2211.9 177.299 2218.78 177.299 Q2222.23 177.299 2225.1 178.406 Q2228.01 179.471 2229.2 180.455 Q2230.38 181.439 2232.23 183.201 L2235.14 178.406 Q2235.79 177.299 2236.41 177.299 Q2237.07 177.299 2237.19 177.709 Q2237.35 178.078 2237.35 179.307 L2237.35 196.195 Q2237.35 197.138 2237.31 197.466 Q2237.27 197.793 2236.98 197.998 Q2236.74 198.203 2236.25 198.203 Q2235.43 198.203 2235.22 197.22 Q2232.88 179.676 2218.87 179.676 Q2214.07 179.676 2210.91 182.914 Q2207.8 186.112 2207.8 190.661 Q2207.8 194.35 2210.09 197.384 Q2212.39 200.376 2216.28 201.319 L2227.02 203.901 Q2232.39 205.172 2236 209.926 Q2239.61 214.681 2239.61 220.87 Q2239.61 228.003 2234.93 233.167 Q2230.3 238.332 2223.05 238.332 Q2217.84 238.332 2213.82 236.61 Q2209.81 234.889 2207.63 232.47 Q2205.95 235.258 2204.85 236.815 L2204.6 237.225 Q2203.95 238.332 2203.33 238.332 Q2202.68 238.332 2202.55 237.922 Q2202.43 237.512 2202.43 236.323 Z" fill="#000000" fill-rule="nonzero" fill-opacity="1" /><path clip-path="url(#clip000)" d="M1391.53 302.087 L1350.18 384.795 L1432.89 384.795 L1391.53 302.087 Z" fill="#0000ff" fill-rule="evenodd" fill-opacity="1" stroke="none"/>
<path clip-path="url(#clip000)" d="M1486.78 371.005 L1486.78 292.224 Q1486.78 289.724 1488.46 289.724 Q1490.14 289.724 1490.14 292.347 L1490.14 370.8 Q1490.14 373.506 1488.46 373.506 Q1486.78 373.506 1486.78 371.005 M1496.05 371.005 L1496.05 292.839 Q1496.05 289.724 1497.73 289.724 Q1499.41 289.724 1499.41 292.347 L1499.41 370.8 Q1499.41 373.506 1497.73 373.506 Q1496.05 373.506 1496.05 371.005 Z" fill="#000000" fill-rule="nonzero" fill-opacity="1" /><path clip-path="url(#clip000)" d="M1585.94 350.921 Q1585.94 351.699 1585.62 352.109 Q1585.33 352.478 1585.04 352.56 Q1584.8 352.601 1584.43 352.601 Q1583.36 352.601 1579.67 352.478 Q1575.98 352.355 1574.92 352.355 Q1573.2 352.355 1569.67 352.478 Q1566.15 352.601 1564.42 352.601 Q1563.28 352.601 1563.28 351.658 Q1563.28 351.044 1563.4 350.716 Q1563.52 350.347 1563.85 350.224 Q1564.22 350.06 1564.42 350.06 Q1564.67 350.019 1565.28 350.019 Q1566.1 350.019 1566.97 349.937 Q1567.83 349.814 1568.89 349.568 Q1569.96 349.322 1570.61 348.707 Q1571.31 348.092 1571.31 347.232 Q1571.31 346.863 1571.02 343.83 Q1570.74 340.796 1570.37 337.271 Q1570 333.705 1569.96 333.213 L1548.89 333.213 Q1546.96 336.533 1545.61 338.829 Q1544.26 341.124 1543.77 341.903 Q1543.27 342.682 1542.99 343.174 Q1542.7 343.666 1542.54 343.953 Q1541.35 346.125 1541.35 347.068 Q1541.35 349.691 1545.28 350.019 Q1546.63 350.019 1546.63 351.003 Q1546.63 351.74 1546.31 352.15 Q1545.98 352.519 1545.69 352.56 Q1545.45 352.601 1545.04 352.601 Q1543.68 352.601 1540.86 352.478 Q1538.03 352.355 1536.63 352.355 Q1535.44 352.355 1532.99 352.478 Q1530.53 352.601 1529.42 352.601 Q1528.93 352.601 1528.64 352.314 Q1528.35 352.027 1528.35 351.658 Q1528.35 351.085 1528.44 350.757 Q1528.56 350.429 1528.89 350.265 Q1529.21 350.101 1529.38 350.101 Q1529.54 350.06 1530.12 350.019 Q1533.23 349.814 1535.65 348.338 Q1538.11 346.822 1540.45 342.928 L1569.63 293.905 Q1569.92 293.413 1570.12 293.167 Q1570.33 292.921 1570.74 292.716 Q1571.19 292.511 1571.84 292.511 Q1572.87 292.511 1573.07 292.839 Q1573.28 293.126 1573.4 294.519 L1578.52 346.986 Q1578.65 348.092 1578.73 348.543 Q1578.85 348.953 1579.39 349.404 Q1579.96 349.814 1580.98 349.937 Q1582.05 350.019 1584.02 350.019 Q1584.75 350.019 1585.04 350.06 Q1585.33 350.06 1585.62 350.265 Q1585.94 350.47 1585.94 350.921 M1569.71 330.59 L1567.05 302.922 L1550.49 330.59 L1569.71 330.59 Z" fill="#000000" fill-rule="nonzero" fill-opacity="1" /><path clip-path="url(#clip000)" d="M1622.32 336.689 L1613.86 370.661 Q1613.51 372.182 1613.51 373.473 Q1613.51 376.17 1615.26 376.17 Q1616.12 376.17 1616.81 375.625 Q1617.5 375.08 1618.04 373.932 Q1618.59 372.784 1618.93 371.723 Q1619.28 370.632 1619.74 368.911 Q1619.88 368.222 1620 368.05 Q1620.14 367.849 1620.54 367.849 Q1621.26 367.849 1621.26 368.423 Q1620.48 372.124 1619.48 374.248 Q1617.87 377.49 1615.15 377.49 Q1613.08 377.49 1611.62 376.227 Q1610.15 374.965 1609.81 373.071 Q1606.05 377.49 1602.15 377.49 Q1598.71 377.49 1596.53 374.879 Q1594.34 372.239 1594.34 368.079 Q1594.34 363.89 1596.41 359.873 Q1598.51 355.856 1601.8 353.36 Q1605.1 350.863 1608.49 350.863 Q1612.08 350.863 1613.91 354.622 L1617.44 340.677 L1617.61 339.53 Q1617.61 339.185 1617.47 339.013 Q1617.36 338.812 1616.67 338.669 Q1616.01 338.526 1614.69 338.526 Q1614.14 338.526 1613.88 338.497 Q1613.65 338.468 1613.45 338.325 Q1613.25 338.153 1613.25 337.808 Q1613.25 336.804 1614.09 336.689 Q1619.59 336.058 1621.55 336.058 Q1621.89 336.058 1622.09 336.23 Q1622.29 336.374 1622.29 336.546 L1622.32 336.689 M1613.2 357.319 Q1613.2 357.061 1612.99 356.344 Q1612.79 355.626 1612.33 354.622 Q1611.88 353.618 1610.87 352.9 Q1609.9 352.154 1608.58 352.154 Q1606.8 352.154 1604.93 353.675 Q1603.1 355.196 1601.75 357.778 Q1600.71 359.844 1599.6 364.177 Q1598.51 368.509 1598.51 370.661 Q1598.51 371.981 1598.79 373.157 Q1599.11 374.305 1600 375.252 Q1600.89 376.17 1602.26 376.17 Q1605.62 376.17 1608.92 372.01 Q1609.55 371.292 1609.7 371.005 Q1609.87 370.69 1610.1 369.829 L1613.02 358.323 Q1613.2 357.463 1613.2 357.319 Z" fill="#000000" fill-rule="nonzero" fill-opacity="1" /><path clip-path="url(#clip000)" d="M1668.78 305.4 L1668.07 306.576 Q1663.62 304.654 1658.08 301.584 Q1652.54 304.654 1648.1 306.576 L1647.41 305.4 Q1652.26 301.182 1658.08 297.94 Q1663.96 301.211 1668.78 305.4 Z" fill="#000000" fill-rule="nonzero" fill-opacity="1" /><path clip-path="url(#clip000)" d="M1672.82 321.04 Q1672.82 323.335 1671.38 324.647 Q1669.95 325.917 1668.31 325.917 Q1666.75 325.917 1665.93 325.015 Q1665.11 324.114 1665.11 322.966 Q1665.11 321.408 1666.26 320.056 Q1667.41 318.703 1669.13 318.416 Q1667.45 317.35 1664.95 317.35 Q1663.31 317.35 1661.87 318.211 Q1660.48 319.072 1659.62 320.179 Q1658.8 321.285 1658.06 322.884 Q1657.37 324.442 1657.08 325.384 Q1656.83 326.286 1656.63 327.27 L1653.76 338.747 Q1652.36 344.198 1652.36 346.125 Q1652.36 348.502 1653.51 350.101 Q1654.66 351.658 1656.96 351.658 Q1657.86 351.658 1658.88 351.413 Q1659.91 351.126 1661.22 350.388 Q1662.57 349.609 1663.76 348.461 Q1664.99 347.273 1666.18 345.264 Q1667.37 343.256 1668.15 340.673 Q1668.39 339.772 1669.21 339.772 Q1670.24 339.772 1670.24 340.591 Q1670.24 341.288 1669.66 342.764 Q1669.13 344.198 1667.94 346.084 Q1666.79 347.928 1665.28 349.609 Q1663.76 351.249 1661.51 352.396 Q1659.25 353.544 1656.79 353.544 Q1653.27 353.544 1650.93 351.658 Q1648.59 349.773 1647.73 347.15 Q1647.53 347.519 1647.24 348.01 Q1646.95 348.502 1646.09 349.609 Q1645.27 350.675 1644.33 351.495 Q1643.39 352.273 1641.91 352.888 Q1640.48 353.544 1638.92 353.544 Q1636.95 353.544 1635.19 352.97 Q1633.47 352.396 1632.24 351.085 Q1631.01 349.773 1631.01 347.969 Q1631.01 345.961 1632.36 344.567 Q1633.76 343.133 1635.64 343.133 Q1636.83 343.133 1637.77 343.83 Q1638.76 344.526 1638.76 346.043 Q1638.76 347.724 1637.61 348.994 Q1636.46 350.265 1634.82 350.593 Q1636.5 351.658 1639 351.658 Q1641.71 351.658 1643.84 349.281 Q1645.97 346.904 1647 342.928 Q1649.54 333.377 1650.52 329.114 Q1651.5 324.811 1651.5 322.966 Q1651.5 321.244 1651.05 320.056 Q1650.6 318.867 1649.82 318.334 Q1649.09 317.76 1648.39 317.555 Q1647.73 317.35 1647 317.35 Q1645.77 317.35 1644.37 317.842 Q1643.02 318.334 1641.38 319.482 Q1639.78 320.589 1638.26 322.884 Q1636.75 325.179 1635.72 328.336 Q1635.52 329.278 1634.62 329.278 Q1633.63 329.237 1633.63 328.418 Q1633.63 327.721 1634.17 326.286 Q1634.74 324.811 1635.89 322.966 Q1637.08 321.121 1638.59 319.482 Q1640.15 317.801 1642.4 316.654 Q1644.7 315.506 1647.16 315.506 Q1648.27 315.506 1649.33 315.752 Q1650.44 315.957 1651.75 316.572 Q1653.1 317.187 1654.29 318.539 Q1655.48 319.892 1656.22 321.859 Q1656.71 320.917 1657.37 320.015 Q1658.06 319.113 1659.13 318.006 Q1660.23 316.859 1661.75 316.203 Q1663.31 315.506 1665.03 315.506 Q1666.71 315.506 1668.35 315.957 Q1669.99 316.367 1671.38 317.719 Q1672.82 319.031 1672.82 321.04 Z" fill="#000000" fill-rule="nonzero" fill-opacity="1" /><path clip-path="url(#clip000)" d="M1710.29 337.627 L1701.82 371.599 Q1701.48 373.119 1701.48 374.41 Q1701.48 377.108 1703.23 377.108 Q1704.09 377.108 1704.78 376.562 Q1705.47 376.017 1706.01 374.87 Q1706.56 373.722 1706.9 372.66 Q1707.24 371.57 1707.7 369.848 Q1707.85 369.16 1707.96 368.988 Q1708.11 368.787 1708.51 368.787 Q1709.22 368.787 1709.22 369.361 Q1708.45 373.062 1707.45 375.185 Q1705.84 378.427 1703.11 378.427 Q1701.05 378.427 1699.58 377.165 Q1698.12 375.902 1697.78 374.009 Q1694.02 378.427 1690.12 378.427 Q1686.67 378.427 1684.49 375.816 Q1682.31 373.177 1682.31 369.016 Q1682.31 364.827 1684.38 360.81 Q1686.47 356.793 1689.77 354.297 Q1693.07 351.801 1696.46 351.801 Q1700.04 351.801 1701.88 355.56 L1705.41 341.615 L1705.58 340.467 Q1705.58 340.123 1705.44 339.951 Q1705.32 339.75 1704.63 339.606 Q1703.97 339.463 1702.65 339.463 Q1702.11 339.463 1701.85 339.434 Q1701.62 339.406 1701.42 339.262 Q1701.22 339.09 1701.22 338.746 Q1701.22 337.741 1702.05 337.627 Q1707.56 336.995 1709.51 336.995 Q1709.86 336.995 1710.06 337.168 Q1710.26 337.311 1710.26 337.483 L1710.29 337.627 M1701.16 358.257 Q1701.16 357.998 1700.96 357.281 Q1700.76 356.564 1700.3 355.56 Q1699.84 354.555 1698.84 353.838 Q1697.86 353.092 1696.54 353.092 Q1694.76 353.092 1692.9 354.613 Q1691.06 356.133 1689.71 358.716 Q1688.68 360.782 1687.56 365.114 Q1686.47 369.447 1686.47 371.599 Q1686.47 372.918 1686.76 374.095 Q1687.07 375.243 1687.96 376.189 Q1688.85 377.108 1690.23 377.108 Q1693.59 377.108 1696.89 372.947 Q1697.52 372.23 1697.66 371.943 Q1697.83 371.627 1698.06 370.767 L1700.99 359.261 Q1701.16 358.4 1701.16 358.257 Z" fill="#000000" fill-rule="nonzero" fill-opacity="1" /><path clip-path="url(#clip000)" d="M1797.68 330.426 Q1798.18 330.918 1798.18 331.615 Q1798.18 332.312 1797.68 332.803 Q1797.19 333.295 1796.5 333.295 L1743.95 333.295 Q1743.25 333.295 1742.76 332.803 Q1742.27 332.312 1742.27 331.615 Q1742.27 330.918 1742.76 330.426 Q1743.25 329.934 1743.95 329.934 L1796.5 329.934 Q1797.19 329.934 1797.68 330.426 Z" fill="#000000" fill-rule="nonzero" fill-opacity="1" /><path clip-path="url(#clip000)" d="M1872.08 299.192 Q1872.08 301.447 1870.64 302.84 Q1869.25 304.234 1867.49 304.234 Q1866.21 304.234 1865.27 303.455 Q1864.37 302.676 1864.37 301.324 Q1864.37 299.93 1865.44 298.454 Q1866.5 296.979 1868.92 296.774 Q1867.32 295.257 1864.78 295.257 Q1863.51 295.257 1862.44 296.077 Q1861.42 296.856 1860.85 298.126 Q1860.23 299.438 1858.84 306.857 Q1858.39 309.276 1857.98 311.612 Q1857.57 313.948 1857.07 316.408 L1864.04 316.408 Q1864.94 316.408 1865.31 316.449 Q1865.68 316.49 1865.97 316.695 Q1866.3 316.9 1866.3 317.35 Q1866.3 318.498 1865.76 318.785 Q1865.27 319.031 1863.8 319.031 L1856.58 319.031 L1851.54 345.633 Q1851.42 346.412 1850.88 348.871 Q1850.39 351.29 1849.2 355.266 Q1848.02 359.282 1846.83 361.66 Q1846.17 363.013 1845.31 364.283 Q1844.49 365.595 1843.3 366.907 Q1842.11 368.218 1840.56 368.997 Q1839 369.817 1837.36 369.817 Q1834.57 369.817 1832.4 368.259 Q1830.23 366.702 1830.23 364.037 Q1830.23 361.783 1831.62 360.389 Q1833.05 358.996 1834.82 358.996 Q1836.09 358.996 1836.99 359.774 Q1837.93 360.553 1837.93 361.906 Q1837.93 362.48 1837.73 363.135 Q1837.52 363.791 1837.07 364.529 Q1836.62 365.308 1835.64 365.841 Q1834.65 366.374 1833.3 366.456 Q1834.9 367.972 1837.36 367.972 Q1838.14 367.972 1838.83 367.644 Q1839.53 367.357 1840.1 366.62 Q1840.72 365.882 1841.17 365.144 Q1841.62 364.447 1842.07 363.094 Q1842.52 361.783 1842.81 360.799 Q1843.1 359.815 1843.47 358.053 Q1843.88 356.29 1844.08 355.225 Q1844.29 354.2 1844.65 352.191 L1850.93 319.031 L1845.39 319.031 Q1844.41 319.031 1844 318.99 Q1843.63 318.949 1843.34 318.744 Q1843.06 318.498 1843.06 318.006 Q1843.06 317.227 1843.38 316.9 Q1843.75 316.531 1844.16 316.49 Q1844.57 316.408 1845.56 316.408 L1851.38 316.408 Q1853.34 306.037 1854.12 303.25 Q1855.02 300.299 1856.42 298.249 Q1857.81 296.159 1859.37 295.175 Q1860.93 294.192 1862.2 293.823 Q1863.51 293.413 1864.78 293.413 Q1867.65 293.413 1869.86 294.97 Q1872.08 296.487 1872.08 299.192 Z" fill="#000000" fill-rule="nonzero" fill-opacity="1" /><path clip-path="url(#clip000)" d="M1870.94 371.005 L1870.94 292.224 Q1870.94 289.724 1872.62 289.724 Q1874.31 289.724 1874.31 292.347 L1874.31 370.8 Q1874.31 373.506 1872.62 373.506 Q1870.94 373.506 1870.94 371.005 M1880.21 371.005 L1880.21 292.839 Q1880.21 289.724 1881.89 289.724 Q1883.57 289.724 1883.57 292.347 L1883.57 370.8 Q1883.57 373.506 1881.89 373.506 Q1880.21 373.506 1880.21 371.005 Z" fill="#000000" fill-rule="nonzero" fill-opacity="1" /><path clip-path="url(#clip000)" d="M1892.4 396.562 Q1892.4 395.5 1892.49 395.185 Q1892.6 394.869 1893.06 394.381 L1904.34 381.814 Q1910.51 374.87 1910.51 368.816 Q1910.51 364.885 1908.44 362.073 Q1906.41 359.262 1902.65 359.262 Q1900.06 359.262 1897.88 360.84 Q1895.7 362.418 1894.7 365.23 Q1894.87 365.172 1895.47 365.172 Q1896.94 365.172 1897.74 366.09 Q1898.57 367.009 1898.57 368.242 Q1898.57 369.82 1897.54 370.595 Q1896.54 371.341 1895.53 371.341 Q1895.13 371.341 1894.58 371.255 Q1894.07 371.169 1893.24 370.366 Q1892.4 369.534 1892.4 368.07 Q1892.4 363.967 1895.5 360.696 Q1898.63 357.425 1903.39 357.425 Q1908.79 357.425 1912.32 360.639 Q1915.87 363.824 1915.87 368.816 Q1915.87 370.566 1915.33 372.173 Q1914.81 373.751 1914.1 374.985 Q1913.41 376.219 1911.51 378.199 Q1909.62 380.178 1908.1 381.584 Q1906.58 382.99 1903.16 385.974 L1896.94 392.028 L1907.52 392.028 Q1912.69 392.028 1913.09 391.569 Q1913.67 390.737 1914.38 386.347 L1915.87 386.347 L1914.21 396.562 L1892.4 396.562 Z" fill="#000000" fill-rule="nonzero" fill-opacity="1" /><polyline clip-path="url(#clip000)" style="stroke:#008000; stroke-linecap:round; stroke-linejoin:round; stroke-width:14; stroke-opacity:1; fill:none" points="1320.1,469.255 1462.97,469.255 "/>
<path clip-path="url(#clip000)" d="M1486.78 496.82 L1486.78 418.038 Q1486.78 415.538 1488.46 415.538 Q1490.14 415.538 1490.14 418.161 L1490.14 496.615 Q1490.14 499.32 1488.46 499.32 Q1486.78 499.32 1486.78 496.82 M1496.05 496.82 L1496.05 418.653 Q1496.05 415.538 1497.73 415.538 Q1499.41 415.538 1499.41 418.161 L1499.41 496.615 Q1499.41 499.32 1497.73 499.32 Q1496.05 499.32 1496.05 496.82 Z" fill="#000000" fill-rule="nonzero" fill-opacity="1" /><path clip-path="url(#clip000)" d="M1559.36 444.517 Q1559.36 445.091 1558.99 446.444 L1550.96 478.497 Q1549.19 485.63 1543.46 490.63 Q1537.76 495.631 1531.28 495.631 Q1527.39 495.631 1524.89 493.54 Q1522.39 491.491 1522.39 488.335 Q1522.39 485.548 1523.86 484.195 Q1525.34 482.883 1527.1 482.883 Q1527.68 482.883 1528.29 483.047 Q1528.91 483.211 1529.56 483.908 Q1530.22 484.605 1530.22 485.793 Q1530.22 487.72 1528.54 489.237 Q1527.72 489.933 1526.94 490.097 Q1526.2 490.261 1524.93 490.261 Q1525.42 491.409 1526.32 492.188 Q1527.22 492.967 1528.25 493.254 Q1529.27 493.581 1529.93 493.663 Q1530.63 493.786 1531.28 493.786 Q1536.53 493.786 1540.55 488.499 Q1541.73 486.9 1542.6 485.302 Q1543.5 483.744 1544.15 481.818 Q1544.81 479.932 1545.1 478.907 Q1545.42 477.883 1546 475.546 Q1542.19 479.358 1537.51 479.358 Q1535.55 479.358 1533.78 478.825 Q1532.06 478.292 1530.54 477.186 Q1529.03 476.038 1528.13 474.03 Q1527.27 472.021 1527.27 469.357 Q1527.27 466.529 1528.37 462.676 Q1529.48 458.823 1532.14 451.731 Q1533.58 447.755 1533.58 445.829 Q1533.58 444.886 1533.37 444.312 Q1533.17 443.697 1532.76 443.493 Q1532.35 443.247 1532.1 443.206 Q1531.9 443.165 1531.49 443.165 Q1529.07 443.165 1526.81 445.624 Q1524.56 448.083 1523 453.576 Q1522.67 454.601 1522.47 454.847 Q1522.26 455.093 1521.65 455.093 Q1520.63 455.052 1520.63 454.232 Q1520.63 453.904 1520.99 452.633 Q1521.36 451.321 1522.22 449.395 Q1523.13 447.428 1524.36 445.665 Q1525.59 443.861 1527.51 442.591 Q1529.48 441.32 1531.73 441.32 Q1534.81 441.32 1536.69 443.329 Q1538.62 445.296 1538.62 448.206 Q1538.62 449.395 1538.29 450.461 Q1538 451.485 1536.94 454.232 Q1532.64 465.299 1532.64 470.709 Q1532.64 472.021 1532.84 473.128 Q1533.09 474.194 1533.62 475.259 Q1534.15 476.284 1535.22 476.899 Q1536.32 477.473 1537.84 477.473 Q1539.77 477.473 1541.57 476.571 Q1543.42 475.628 1544.56 474.357 Q1545.75 473.087 1546.45 472.021 Q1547.19 470.914 1547.35 470.341 L1551.12 455.256 L1552.8 448.534 Q1553.58 444.886 1553.95 443.984 Q1554.44 443.124 1555.3 442.673 Q1556.16 442.222 1556.9 442.222 Q1557.93 442.222 1558.62 442.837 Q1559.36 443.452 1559.36 444.517 Z" fill="#000000" fill-rule="nonzero" fill-opacity="1" /><path clip-path="url(#clip000)" d="M1640.05 456.24 Q1640.54 456.732 1640.54 457.429 Q1640.54 458.126 1640.05 458.618 Q1639.56 459.109 1638.86 459.109 L1586.31 459.109 Q1585.62 459.109 1585.13 458.618 Q1584.63 458.126 1584.63 457.429 Q1584.63 456.732 1585.13 456.24 Q1585.62 455.748 1586.31 455.748 L1638.86 455.748 Q1639.56 455.748 1640.05 456.24 Z" fill="#000000" fill-rule="nonzero" fill-opacity="1" /><path clip-path="url(#clip000)" d="M1714.44 425.006 Q1714.44 427.261 1713.01 428.654 Q1711.62 430.048 1709.85 430.048 Q1708.58 430.048 1707.64 429.269 Q1706.74 428.49 1706.74 427.138 Q1706.74 425.744 1707.8 424.269 Q1708.87 422.793 1711.29 422.588 Q1709.69 421.071 1707.15 421.071 Q1705.88 421.071 1704.81 421.891 Q1703.79 422.67 1703.21 423.941 Q1702.6 425.252 1701.2 432.671 Q1700.75 435.09 1700.34 437.426 Q1699.93 439.763 1699.44 442.222 L1706.41 442.222 Q1707.31 442.222 1707.68 442.263 Q1708.05 442.304 1708.34 442.509 Q1708.66 442.714 1708.66 443.165 Q1708.66 444.312 1708.13 444.599 Q1707.64 444.845 1706.16 444.845 L1698.95 444.845 L1693.91 471.447 Q1693.79 472.226 1693.25 474.685 Q1692.76 477.104 1691.57 481.08 Q1690.38 485.097 1689.19 487.474 Q1688.54 488.827 1687.68 490.097 Q1686.86 491.409 1685.67 492.721 Q1684.48 494.032 1682.92 494.811 Q1681.37 495.631 1679.73 495.631 Q1676.94 495.631 1674.77 494.073 Q1672.59 492.516 1672.59 489.851 Q1672.59 487.597 1673.99 486.203 Q1675.42 484.81 1677.18 484.81 Q1678.46 484.81 1679.36 485.589 Q1680.3 486.367 1680.3 487.72 Q1680.3 488.294 1680.09 488.95 Q1679.89 489.605 1679.44 490.343 Q1678.99 491.122 1678 491.655 Q1677.02 492.188 1675.67 492.27 Q1677.27 493.786 1679.73 493.786 Q1680.5 493.786 1681.2 493.458 Q1681.9 493.172 1682.47 492.434 Q1683.09 491.696 1683.54 490.958 Q1683.99 490.261 1684.44 488.909 Q1684.89 487.597 1685.18 486.613 Q1685.46 485.63 1685.83 483.867 Q1686.24 482.104 1686.45 481.039 Q1686.65 480.014 1687.02 478.006 L1693.29 444.845 L1687.76 444.845 Q1686.78 444.845 1686.37 444.804 Q1686 444.763 1685.71 444.558 Q1685.42 444.312 1685.42 443.82 Q1685.42 443.042 1685.75 442.714 Q1686.12 442.345 1686.53 442.304 Q1686.94 442.222 1687.92 442.222 L1693.74 442.222 Q1695.71 431.852 1696.49 429.064 Q1697.39 426.113 1698.79 424.064 Q1700.18 421.973 1701.74 420.989 Q1703.29 420.006 1704.57 419.637 Q1705.88 419.227 1707.15 419.227 Q1710.02 419.227 1712.23 420.784 Q1714.44 422.301 1714.44 425.006 Z" fill="#000000" fill-rule="nonzero" fill-opacity="1" /><path clip-path="url(#clip000)" d="M1713.31 496.82 L1713.31 418.038 Q1713.31 415.538 1714.99 415.538 Q1716.67 415.538 1716.67 418.161 L1716.67 496.615 Q1716.67 499.32 1714.99 499.32 Q1713.31 499.32 1713.31 496.82 M1722.57 496.82 L1722.57 418.653 Q1722.57 415.538 1724.26 415.538 Q1725.94 415.538 1725.94 418.161 L1725.94 496.615 Q1725.94 499.32 1724.26 499.32 Q1722.57 499.32 1722.57 496.82 Z" fill="#000000" fill-rule="nonzero" fill-opacity="1" /><path clip-path="url(#clip000)" d="M1734.77 522.376 Q1734.77 521.314 1734.86 520.999 Q1734.97 520.683 1735.43 520.195 L1746.71 507.628 Q1752.88 500.684 1752.88 494.63 Q1752.88 490.7 1750.81 487.888 Q1748.77 485.076 1745.01 485.076 Q1742.43 485.076 1740.25 486.654 Q1738.07 488.232 1737.07 491.044 Q1737.24 490.986 1737.84 490.986 Q1739.3 490.986 1740.11 491.905 Q1740.94 492.823 1740.94 494.057 Q1740.94 495.635 1739.91 496.409 Q1738.9 497.155 1737.9 497.155 Q1737.5 497.155 1736.95 497.069 Q1736.44 496.983 1735.6 496.18 Q1734.77 495.348 1734.77 493.884 Q1734.77 489.781 1737.87 486.51 Q1741 483.239 1745.76 483.239 Q1751.15 483.239 1754.68 486.453 Q1758.24 489.638 1758.24 494.63 Q1758.24 496.381 1757.7 497.987 Q1757.18 499.565 1756.46 500.799 Q1755.77 502.033 1753.88 504.013 Q1751.99 505.993 1750.47 507.399 Q1748.95 508.804 1745.53 511.788 L1739.3 517.843 L1749.89 517.843 Q1755.06 517.843 1755.46 517.384 Q1756.03 516.551 1756.75 512.161 L1758.24 512.161 L1756.58 522.376 L1734.77 522.376 Z" fill="#000000" fill-rule="nonzero" fill-opacity="1" /></svg>
