<?xml version="1.0" encoding="utf-8"?>
<svg xmlns="http://www.w3.org/2000/svg" xmlns:xlink="http://www.w3.org/1999/xlink" width="600" height="400" viewBox="0 0 2400 1600">
<defs>
  <clipPath id="clip730">
    <rect x="0" y="0" width="2400" height="1600"/>
  </clipPath>
</defs>
<path clip-path="url(#clip730)" d="M0 1600 L2400 1600 L2400 0 L0 0  Z" fill="#ffffff" fill-rule="evenodd" fill-opacity="1"/>
<defs>
  <clipPath id="clip731">
    <rect x="480" y="0" width="1681" height="1600"/>
  </clipPath>
</defs>
<path clip-path="url(#clip730)" d="M249.811 1384.3 L2352.76 1384.3 L2352.76 47.2441 L249.811 47.2441  Z" fill="#ffffff" fill-rule="evenodd" fill-opacity="1"/>
<defs>
  <clipPath id="clip732">
    <rect x="249" y="47" width="2104" height="1338"/>
  </clipPath>
</defs>
<polyline clip-path="url(#clip732)" style="stroke:#000000; stroke-linecap:round; stroke-linejoin:round; stroke-width:2; stroke-opacity:0.1; fill:none" points="309.328,1384.3 309.328,47.2441 "/>
<polyline clip-path="url(#clip732)" style="stroke:#000000; stroke-linecap:round; stroke-linejoin:round; stroke-width:2; stroke-opacity:0.1; fill:none" points="850.395,1384.3 850.395,47.2441 "/>
<polyline clip-path="url(#clip732)" style="stroke:#000000; stroke-linecap:round; stroke-linejoin:round; stroke-width:2; stroke-opacity:0.1; fill:none" points="2293.24,1384.3 2293.24,47.2441 "/>
<polyline clip-path="url(#clip732)" style="stroke:#000000; stroke-linecap:round; stroke-linejoin:round; stroke-width:2; stroke-opacity:0.1; fill:none" points="249.811,1346.46 2352.76,1346.46 "/>
<polyline clip-path="url(#clip732)" style="stroke:#000000; stroke-linecap:round; stroke-linejoin:round; stroke-width:2; stroke-opacity:0.1; fill:none" points="249.811,1014.52 2352.76,1014.52 "/>
<polyline clip-path="url(#clip732)" style="stroke:#000000; stroke-linecap:round; stroke-linejoin:round; stroke-width:2; stroke-opacity:0.1; fill:none" points="249.811,682.578 2352.76,682.578 "/>
<polyline clip-path="url(#clip732)" style="stroke:#000000; stroke-linecap:round; stroke-linejoin:round; stroke-width:2; stroke-opacity:0.1; fill:none" points="249.811,350.638 2352.76,350.638 "/>
<polyline clip-path="url(#clip730)" style="stroke:#000000; stroke-linecap:round; stroke-linejoin:round; stroke-width:4; stroke-opacity:1; fill:none" points="249.811,1384.3 2352.76,1384.3 "/>
<polyline clip-path="url(#clip730)" style="stroke:#000000; stroke-linecap:round; stroke-linejoin:round; stroke-width:4; stroke-opacity:1; fill:none" points="309.328,1384.3 309.328,1365.4 "/>
<polyline clip-path="url(#clip730)" style="stroke:#000000; stroke-linecap:round; stroke-linejoin:round; stroke-width:4; stroke-opacity:1; fill:none" points="850.395,1384.3 850.395,1365.4 "/>
<polyline clip-path="url(#clip730)" style="stroke:#000000; stroke-linecap:round; stroke-linejoin:round; stroke-width:4; stroke-opacity:1; fill:none" points="2293.24,1384.3 2293.24,1365.4 "/>
<path clip-path="url(#clip730)" d="M309.328 1421.08 Q303.912 1421.08 301.169 1426.43 Q298.46 1431.74 298.46 1442.43 Q298.46 1453.09 301.169 1458.44 Q303.912 1463.75 309.328 1463.75 Q314.78 1463.75 317.488 1458.44 Q320.231 1453.09 320.231 1442.43 Q320.231 1431.74 317.488 1426.43 Q314.78 1421.08 309.328 1421.08 M309.328 1415.52 Q318.044 1415.52 322.627 1422.43 Q327.245 1429.31 327.245 1442.43 Q327.245 1455.52 322.627 1462.43 Q318.044 1469.31 309.328 1469.31 Q300.613 1469.31 295.995 1462.43 Q291.412 1455.52 291.412 1442.43 Q291.412 1429.31 295.995 1422.43 Q300.613 1415.52 309.328 1415.52 Z" fill="#000000" fill-rule="nonzero" fill-opacity="1" /><path clip-path="url(#clip730)" d="M856.766 1440.35 Q861.801 1441.42 864.614 1444.83 Q867.461 1448.23 867.461 1453.23 Q867.461 1460.9 862.183 1465.11 Q856.905 1469.31 847.183 1469.31 Q843.919 1469.31 840.447 1468.65 Q837.009 1468.02 833.329 1466.74 L833.329 1459.97 Q836.246 1461.67 839.718 1462.54 Q843.19 1463.4 846.975 1463.4 Q853.572 1463.4 857.009 1460.8 Q860.482 1458.2 860.482 1453.23 Q860.482 1448.65 857.252 1446.08 Q854.058 1443.47 848.329 1443.47 L842.287 1443.47 L842.287 1437.71 L848.607 1437.71 Q853.78 1437.71 856.523 1435.66 Q859.266 1433.58 859.266 1429.69 Q859.266 1425.7 856.419 1423.58 Q853.607 1421.43 848.329 1421.43 Q845.447 1421.43 842.148 1422.05 Q838.85 1422.68 834.891 1423.99 L834.891 1417.74 Q838.884 1416.63 842.357 1416.08 Q845.864 1415.52 848.954 1415.52 Q856.94 1415.52 861.593 1419.17 Q866.245 1422.78 866.245 1428.96 Q866.245 1433.27 863.78 1436.25 Q861.315 1439.2 856.766 1440.35 Z" fill="#000000" fill-rule="nonzero" fill-opacity="1" /><path clip-path="url(#clip730)" d="M2256.19 1462.4 L2267.65 1462.4 L2267.65 1422.85 L2255.18 1425.35 L2255.18 1418.96 L2267.58 1416.46 L2274.59 1416.46 L2274.59 1462.4 L2286.05 1462.4 L2286.05 1468.3 L2256.19 1468.3 L2256.19 1462.4 Z" fill="#000000" fill-rule="nonzero" fill-opacity="1" /><path clip-path="url(#clip730)" d="M2301.43 1462.4 L2312.89 1462.4 L2312.89 1422.85 L2300.43 1425.35 L2300.43 1418.96 L2312.82 1416.46 L2319.84 1416.46 L2319.84 1462.4 L2331.29 1462.4 L2331.29 1468.3 L2301.43 1468.3 L2301.43 1462.4 Z" fill="#000000" fill-rule="nonzero" fill-opacity="1" /><path clip-path="url(#clip730)" d="M1178.11 1537.02 L1178.11 1508.97 L1186.63 1508.97 L1186.63 1581 L1178.11 1581 L1178.11 1573.23 Q1175.43 1577.86 1171.31 1580.12 Q1167.23 1582.35 1161.49 1582.35 Q1152.09 1582.35 1146.17 1574.85 Q1140.29 1567.35 1140.29 1555.12 Q1140.29 1542.9 1146.17 1535.4 Q1152.09 1527.9 1161.49 1527.9 Q1167.23 1527.9 1171.31 1530.17 Q1175.43 1532.39 1178.11 1537.02 M1149.09 1555.12 Q1149.09 1564.52 1152.93 1569.89 Q1156.82 1575.22 1163.58 1575.22 Q1170.34 1575.22 1174.22 1569.89 Q1178.11 1564.52 1178.11 1555.12 Q1178.11 1545.73 1174.22 1540.4 Q1170.34 1535.03 1163.58 1535.03 Q1156.82 1535.03 1152.93 1540.4 Q1149.09 1545.73 1149.09 1555.12 Z" fill="#000000" fill-rule="nonzero" fill-opacity="1" /><path clip-path="url(#clip730)" d="M1248.53 1552.95 L1248.53 1557.12 L1209.36 1557.12 Q1209.92 1565.91 1214.64 1570.54 Q1219.41 1575.12 1227.88 1575.12 Q1232.79 1575.12 1237.37 1573.92 Q1242 1572.72 1246.54 1570.31 L1246.54 1578.36 Q1241.96 1580.31 1237.14 1581.33 Q1232.33 1582.35 1227.37 1582.35 Q1214.96 1582.35 1207.7 1575.12 Q1200.47 1567.9 1200.47 1555.59 Q1200.47 1542.86 1207.33 1535.4 Q1214.22 1527.9 1225.89 1527.9 Q1236.35 1527.9 1242.42 1534.66 Q1248.53 1541.37 1248.53 1552.95 M1240.01 1550.45 Q1239.92 1543.46 1236.08 1539.29 Q1232.28 1535.12 1225.98 1535.12 Q1218.85 1535.12 1214.55 1539.15 Q1210.29 1543.18 1209.64 1550.49 L1240.01 1550.45 Z" fill="#000000" fill-rule="nonzero" fill-opacity="1" /><path clip-path="url(#clip730)" d="M1296.63 1554.48 Q1296.63 1545.22 1292.79 1540.12 Q1288.99 1535.03 1282.09 1535.03 Q1275.24 1535.03 1271.4 1540.12 Q1267.6 1545.22 1267.6 1554.48 Q1267.6 1563.69 1271.4 1568.78 Q1275.24 1573.87 1282.09 1573.87 Q1288.99 1573.87 1292.79 1568.78 Q1296.63 1563.69 1296.63 1554.48 M1305.15 1574.57 Q1305.15 1587.81 1299.27 1594.24 Q1293.39 1600.73 1281.26 1600.73 Q1276.77 1600.73 1272.79 1600.03 Q1268.81 1599.38 1265.06 1597.99 L1265.06 1589.71 Q1268.81 1591.74 1272.46 1592.72 Q1276.12 1593.69 1279.92 1593.69 Q1288.3 1593.69 1292.46 1589.29 Q1296.63 1584.94 1296.63 1576.1 L1296.63 1571.88 Q1293.99 1576.47 1289.87 1578.74 Q1285.75 1581 1280.01 1581 Q1270.47 1581 1264.64 1573.74 Q1258.81 1566.47 1258.81 1554.48 Q1258.81 1542.44 1264.64 1535.17 Q1270.47 1527.9 1280.01 1527.9 Q1285.75 1527.9 1289.87 1530.17 Q1293.99 1532.44 1296.63 1537.02 L1296.63 1529.15 L1305.15 1529.15 L1305.15 1574.57 Z" fill="#000000" fill-rule="nonzero" fill-opacity="1" /><path clip-path="url(#clip730)" d="M1352.74 1537.12 Q1351.31 1536.28 1349.59 1535.91 Q1347.93 1535.49 1345.89 1535.49 Q1338.67 1535.49 1334.78 1540.22 Q1330.94 1544.89 1330.94 1553.69 L1330.94 1581 L1322.37 1581 L1322.37 1529.15 L1330.94 1529.15 L1330.94 1537.21 Q1333.62 1532.49 1337.93 1530.22 Q1342.23 1527.9 1348.39 1527.9 Q1349.27 1527.9 1350.33 1528.04 Q1351.4 1528.13 1352.7 1528.37 L1352.74 1537.12 Z" fill="#000000" fill-rule="nonzero" fill-opacity="1" /><path clip-path="url(#clip730)" d="M1403.95 1552.95 L1403.95 1557.12 L1364.78 1557.12 Q1365.33 1565.91 1370.06 1570.54 Q1374.82 1575.12 1383.3 1575.12 Q1388.2 1575.12 1392.79 1573.92 Q1397.42 1572.72 1401.95 1570.31 L1401.95 1578.36 Q1397.37 1580.31 1392.56 1581.33 Q1387.74 1582.35 1382.79 1582.35 Q1370.38 1582.35 1363.11 1575.12 Q1355.89 1567.9 1355.89 1555.59 Q1355.89 1542.86 1362.74 1535.4 Q1369.64 1527.9 1381.31 1527.9 Q1391.77 1527.9 1397.83 1534.66 Q1403.95 1541.37 1403.95 1552.95 M1395.43 1550.45 Q1395.33 1543.46 1391.49 1539.29 Q1387.7 1535.12 1381.4 1535.12 Q1374.27 1535.12 1369.96 1539.15 Q1365.7 1543.18 1365.06 1550.49 L1395.43 1550.45 Z" fill="#000000" fill-rule="nonzero" fill-opacity="1" /><path clip-path="url(#clip730)" d="M1462.28 1552.95 L1462.28 1557.12 L1423.11 1557.12 Q1423.67 1565.91 1428.39 1570.54 Q1433.16 1575.12 1441.63 1575.12 Q1446.54 1575.12 1451.12 1573.92 Q1455.75 1572.72 1460.29 1570.31 L1460.29 1578.36 Q1455.7 1580.31 1450.89 1581.33 Q1446.07 1582.35 1441.12 1582.35 Q1428.71 1582.35 1421.44 1575.12 Q1414.22 1567.9 1414.22 1555.59 Q1414.22 1542.86 1421.07 1535.4 Q1427.97 1527.9 1439.64 1527.9 Q1450.1 1527.9 1456.17 1534.66 Q1462.28 1541.37 1462.28 1552.95 M1453.76 1550.45 Q1453.67 1543.46 1449.82 1539.29 Q1446.03 1535.12 1439.73 1535.12 Q1432.6 1535.12 1428.3 1539.15 Q1424.04 1543.18 1423.39 1550.49 L1453.76 1550.45 Z" fill="#000000" fill-rule="nonzero" fill-opacity="1" /><polyline clip-path="url(#clip730)" style="stroke:#000000; stroke-linecap:round; stroke-linejoin:round; stroke-width:4; stroke-opacity:1; fill:none" points="249.811,1384.3 249.811,47.2441 "/>
<polyline clip-path="url(#clip730)" style="stroke:#000000; stroke-linecap:round; stroke-linejoin:round; stroke-width:4; stroke-opacity:1; fill:none" points="249.811,1346.46 268.709,1346.46 "/>
<polyline clip-path="url(#clip730)" style="stroke:#000000; stroke-linecap:round; stroke-linejoin:round; stroke-width:4; stroke-opacity:1; fill:none" points="249.811,1014.52 268.709,1014.52 "/>
<polyline clip-path="url(#clip730)" style="stroke:#000000; stroke-linecap:round; stroke-linejoin:round; stroke-width:4; stroke-opacity:1; fill:none" points="249.811,682.578 268.709,682.578 "/>
<polyline clip-path="url(#clip730)" style="stroke:#000000; stroke-linecap:round; stroke-linejoin:round; stroke-width:4; stroke-opacity:1; fill:none" points="249.811,350.638 268.709,350.638 "/>
<path clip-path="url(#clip730)" d="M195.895 1325.16 Q190.478 1325.16 187.735 1330.5 Q185.027 1335.82 185.027 1346.51 Q185.027 1357.17 187.735 1362.52 Q190.478 1367.83 195.895 1367.83 Q201.346 1367.83 204.054 1362.52 Q206.797 1357.17 206.797 1346.51 Q206.797 1335.82 204.054 1330.5 Q201.346 1325.16 195.895 1325.16 M195.895 1319.6 Q204.61 1319.6 209.193 1326.51 Q213.811 1333.39 213.811 1346.51 Q213.811 1359.6 209.193 1366.51 Q204.61 1373.39 195.895 1373.39 Q187.179 1373.39 182.561 1366.51 Q177.978 1359.6 177.978 1346.51 Q177.978 1333.39 182.561 1326.51 Q187.179 1319.6 195.895 1319.6 Z" fill="#000000" fill-rule="nonzero" fill-opacity="1" /><path clip-path="url(#clip730)" d="M182.457 988.598 L209.992 988.598 L209.992 994.501 L188.881 994.501 L188.881 1007.21 Q190.408 1006.69 191.936 1006.45 Q193.464 1006.17 194.992 1006.17 Q203.672 1006.17 208.742 1010.92 Q213.811 1015.68 213.811 1023.81 Q213.811 1032.17 208.603 1036.83 Q203.395 1041.45 193.915 1041.45 Q190.652 1041.45 187.249 1040.89 Q183.881 1040.33 180.27 1039.22 L180.27 1032.17 Q183.395 1033.88 186.728 1034.71 Q190.061 1035.54 193.777 1035.54 Q199.783 1035.54 203.29 1032.38 Q206.797 1029.22 206.797 1023.81 Q206.797 1018.39 203.29 1015.23 Q199.783 1012.07 193.777 1012.07 Q190.964 1012.07 188.152 1012.7 Q185.374 1013.32 182.457 1014.64 L182.457 988.598 Z" fill="#000000" fill-rule="nonzero" fill-opacity="1" /><path clip-path="url(#clip730)" d="M136.867 702.595 L148.325 702.595 L148.325 663.047 L135.86 665.547 L135.86 659.158 L148.256 656.658 L155.27 656.658 L155.27 702.595 L166.728 702.595 L166.728 708.498 L136.867 708.498 L136.867 702.595 Z" fill="#000000" fill-rule="nonzero" fill-opacity="1" /><path clip-path="url(#clip730)" d="M195.895 661.276 Q190.478 661.276 187.735 666.623 Q185.027 671.936 185.027 682.63 Q185.027 693.29 187.735 698.637 Q190.478 703.949 195.895 703.949 Q201.346 703.949 204.054 698.637 Q206.797 693.29 206.797 682.63 Q206.797 671.936 204.054 666.623 Q201.346 661.276 195.895 661.276 M195.895 655.72 Q204.61 655.72 209.193 662.63 Q213.811 669.505 213.811 682.63 Q213.811 695.72 209.193 702.63 Q204.61 709.505 195.895 709.505 Q187.179 709.505 182.561 702.63 Q177.978 695.72 177.978 682.63 Q177.978 669.505 182.561 662.63 Q187.179 655.72 195.895 655.72 Z" fill="#000000" fill-rule="nonzero" fill-opacity="1" /><path clip-path="url(#clip730)" d="M138.36 370.655 L149.818 370.655 L149.818 331.106 L137.353 333.606 L137.353 327.218 L149.749 324.718 L156.763 324.718 L156.763 370.655 L168.221 370.655 L168.221 376.558 L138.36 376.558 L138.36 370.655 Z" fill="#000000" fill-rule="nonzero" fill-opacity="1" /><path clip-path="url(#clip730)" d="M182.457 324.718 L209.992 324.718 L209.992 330.62 L188.881 330.62 L188.881 343.329 Q190.408 342.808 191.936 342.565 Q193.464 342.287 194.992 342.287 Q203.672 342.287 208.742 347.044 Q213.811 351.801 213.811 359.926 Q213.811 368.294 208.603 372.946 Q203.395 377.565 193.915 377.565 Q190.652 377.565 187.249 377.009 Q183.881 376.453 180.27 375.342 L180.27 368.294 Q183.395 369.995 186.728 370.828 Q190.061 371.662 193.777 371.662 Q199.783 371.662 203.29 368.502 Q206.797 365.342 206.797 359.926 Q206.797 354.509 203.29 351.349 Q199.783 348.19 193.777 348.19 Q190.964 348.19 188.152 348.815 Q185.374 349.44 182.457 350.759 L182.457 324.718 Z" fill="#000000" fill-rule="nonzero" fill-opacity="1" /><path clip-path="url(#clip730)" d="M7.08751 752.508 L14.1708 752.508 L14.1708 760.656 Q14.1708 765.239 16.0226 767.045 Q17.8745 768.804 22.6893 768.804 L27.2726 768.804 L27.2726 754.776 L33.8929 754.776 L33.8929 768.804 L79.1242 768.804 L79.1242 777.369 L33.8929 777.369 L33.8929 785.517 L27.2726 785.517 L27.2726 777.369 L23.6615 777.369 Q15.0041 777.369 11.069 773.341 Q7.08751 769.313 7.08751 760.563 L7.08751 752.508 Z" fill="#000000" fill-rule="nonzero" fill-opacity="1" /><path clip-path="url(#clip730)" d="M27.2726 745.378 L27.2726 736.86 L79.1242 736.86 L79.1242 745.378 L27.2726 745.378 M7.08751 745.378 L7.08751 736.86 L17.8745 736.86 L17.8745 745.378 L7.08751 745.378 Z" fill="#000000" fill-rule="nonzero" fill-opacity="1" /><path clip-path="url(#clip730)" d="M12.5504 710.61 L27.2726 710.61 L27.2726 693.064 L33.8929 693.064 L33.8929 710.61 L62.0409 710.61 Q68.3835 710.61 70.189 708.897 Q71.9946 707.138 71.9946 701.814 L71.9946 693.064 L79.1242 693.064 L79.1242 701.814 Q79.1242 711.675 75.4668 715.425 Q71.7631 719.175 62.0409 719.175 L33.8929 719.175 L33.8929 725.425 L27.2726 725.425 L27.2726 719.175 L12.5504 719.175 L12.5504 710.61 Z" fill="#000000" fill-rule="nonzero" fill-opacity="1" /><path clip-path="url(#clip730)" d="M28.8004 648.805 L36.8559 648.805 Q35.004 652.416 34.0781 656.305 Q33.1522 660.194 33.1522 664.36 Q33.1522 670.703 35.0966 673.897 Q37.041 677.045 40.9299 677.045 Q43.8929 677.045 45.6058 674.777 Q47.2725 672.508 48.8002 665.656 L49.4484 662.74 Q51.3928 653.666 54.9576 649.87 Q58.4761 646.027 64.8187 646.027 Q72.0409 646.027 76.2538 651.768 Q80.4667 657.462 80.4667 667.462 Q80.4667 671.629 79.6334 676.166 Q78.8464 680.656 77.226 685.656 L68.4298 685.656 Q70.8835 680.934 72.1335 676.351 Q73.3372 671.768 73.3372 667.277 Q73.3372 661.258 71.3001 658.018 Q69.2168 654.777 65.4668 654.777 Q61.9946 654.777 60.1428 657.138 Q58.2909 659.453 56.578 667.369 L55.8835 670.332 Q54.2169 678.249 50.791 681.768 Q47.3188 685.286 41.3003 685.286 Q33.9855 685.286 30.0041 680.101 Q26.0226 674.916 26.0226 665.379 Q26.0226 660.657 26.717 656.49 Q27.4115 652.323 28.8004 648.805 Z" fill="#000000" fill-rule="nonzero" fill-opacity="1" /><circle clip-path="url(#clip732)" cx="309.328" cy="121.344" r="21.6" fill="#ff0000" fill-rule="evenodd" fill-opacity="1" stroke="none"/>
<circle clip-path="url(#clip732)" cx="489.684" cy="838.099" r="21.6" fill="#ff0000" fill-rule="evenodd" fill-opacity="1" stroke="none"/>
<circle clip-path="url(#clip732)" cx="670.039" cy="1164.05" r="21.6" fill="#ff0000" fill-rule="evenodd" fill-opacity="1" stroke="none"/>
<circle clip-path="url(#clip732)" cx="850.395" cy="1231.49" r="21.6" fill="#ff0000" fill-rule="evenodd" fill-opacity="1" stroke="none"/>
<circle clip-path="url(#clip732)" cx="1030.75" cy="1249.94" r="21.6" fill="#ff0000" fill-rule="evenodd" fill-opacity="1" stroke="none"/>
<circle clip-path="url(#clip732)" cx="1211.11" cy="1250.68" r="21.6" fill="#ff0000" fill-rule="evenodd" fill-opacity="1" stroke="none"/>
<circle clip-path="url(#clip732)" cx="1391.46" cy="1257.85" r="21.6" fill="#ff0000" fill-rule="evenodd" fill-opacity="1" stroke="none"/>
<circle clip-path="url(#clip732)" cx="1571.82" cy="1260.71" r="21.6" fill="#ff0000" fill-rule="evenodd" fill-opacity="1" stroke="none"/>
<circle clip-path="url(#clip732)" cx="1752.17" cy="1261.55" r="21.6" fill="#ff0000" fill-rule="evenodd" fill-opacity="1" stroke="none"/>
<circle clip-path="url(#clip732)" cx="1932.53" cy="1274.4" r="21.6" fill="#ff0000" fill-rule="evenodd" fill-opacity="1" stroke="none"/>
<circle clip-path="url(#clip732)" cx="2112.88" cy="1312.79" r="21.6" fill="#ff0000" fill-rule="evenodd" fill-opacity="1" stroke="none"/>
<circle clip-path="url(#clip732)" cx="2293.24" cy="1346.46" r="21.6" fill="#ff0000" fill-rule="evenodd" fill-opacity="1" stroke="none"/>
<path clip-path="url(#clip732)" d="M309.328 90.5422 L285.328 138.542 L333.328 138.542 L309.328 90.5422 Z" fill="#0000ff" fill-rule="evenodd" fill-opacity="1" stroke="none"/>
<path clip-path="url(#clip732)" d="M489.684 828.611 L465.684 876.611 L513.684 876.611 L489.684 828.611 Z" fill="#0000ff" fill-rule="evenodd" fill-opacity="1" stroke="none"/>
<path clip-path="url(#clip732)" d="M670.039 1185.67 L646.039 1233.67 L694.039 1233.67 L670.039 1185.67 Z" fill="#0000ff" fill-rule="evenodd" fill-opacity="1" stroke="none"/>
<path clip-path="url(#clip732)" d="M850.395 1288.7 L826.395 1336.7 L874.395 1336.7 L850.395 1288.7 Z" fill="#0000ff" fill-rule="evenodd" fill-opacity="1" stroke="none"/>
<path clip-path="url(#clip732)" d="M1030.75 1277.71 L1006.75 1325.71 L1054.75 1325.71 L1030.75 1277.71 Z" fill="#0000ff" fill-rule="evenodd" fill-opacity="1" stroke="none"/>
<path clip-path="url(#clip732)" d="M1211.11 1275.28 L1187.11 1323.28 L1235.11 1323.28 L1211.11 1275.28 Z" fill="#0000ff" fill-rule="evenodd" fill-opacity="1" stroke="none"/>
<path clip-path="url(#clip732)" d="M1391.46 1262.52 L1367.46 1310.52 L1415.46 1310.52 L1391.46 1262.52 Z" fill="#0000ff" fill-rule="evenodd" fill-opacity="1" stroke="none"/>
<path clip-path="url(#clip732)" d="M1571.82 1258.48 L1547.82 1306.48 L1595.82 1306.48 L1571.82 1258.48 Z" fill="#0000ff" fill-rule="evenodd" fill-opacity="1" stroke="none"/>
<path clip-path="url(#clip732)" d="M1752.17 1257.37 L1728.17 1305.37 L1776.17 1305.37 L1752.17 1257.37 Z" fill="#0000ff" fill-rule="evenodd" fill-opacity="1" stroke="none"/>
<path clip-path="url(#clip732)" d="M1932.53 1243.38 L1908.53 1291.38 L1956.53 1291.38 L1932.53 1243.38 Z" fill="#0000ff" fill-rule="evenodd" fill-opacity="1" stroke="none"/>
<path clip-path="url(#clip732)" d="M2112.88 1220.91 L2088.88 1268.91 L2136.88 1268.91 L2112.88 1220.91 Z" fill="#0000ff" fill-rule="evenodd" fill-opacity="1" stroke="none"/>
<path clip-path="url(#clip732)" d="M2293.24 1215.47 L2269.24 1263.47 L2317.24 1263.47 L2293.24 1215.47 Z" fill="#0000ff" fill-rule="evenodd" fill-opacity="1" stroke="none"/>
<path clip-path="url(#clip730)" d="M1634.54 410.538 L2282.66 410.538 L2282.66 91.8126 L1634.54 91.8126  Z" fill="#ffffff" fill-rule="evenodd" fill-opacity="1"/>
<polyline clip-path="url(#clip730)" style="stroke:#000000; stroke-linecap:round; stroke-linejoin:round; stroke-width:4; stroke-opacity:1; fill:none" points="1634.54,410.538 2282.66,410.538 2282.66,91.8126 1634.54,91.8126 1634.54,410.538 "/>
<circle clip-path="url(#clip730)" cx="1728" cy="198.054" r="37.2185" fill="#ff0000" fill-rule="evenodd" fill-opacity="1" stroke="none"/>
<path clip-path="url(#clip730)" d="M1821.47 225.619 L1821.47 146.838 Q1821.47 144.337 1823.15 144.337 Q1824.83 144.337 1824.83 146.961 L1824.83 225.414 Q1824.83 228.119 1823.15 228.119 Q1821.47 228.119 1821.47 225.619 M1830.73 225.619 L1830.73 147.452 Q1830.73 144.337 1832.41 144.337 Q1834.09 144.337 1834.09 146.961 L1834.09 225.414 Q1834.09 228.119 1832.41 228.119 Q1830.73 228.119 1830.73 225.619 Z" fill="#000000" fill-rule="nonzero" fill-opacity="1" /><path clip-path="url(#clip730)" d="M1920.63 205.534 Q1920.63 206.313 1920.3 206.723 Q1920.01 207.092 1919.73 207.174 Q1919.48 207.215 1919.11 207.215 Q1918.05 207.215 1914.36 207.092 Q1910.67 206.969 1909.6 206.969 Q1907.88 206.969 1904.36 207.092 Q1900.83 207.215 1899.11 207.215 Q1897.96 207.215 1897.96 206.272 Q1897.96 205.657 1898.08 205.329 Q1898.21 204.96 1898.54 204.837 Q1898.9 204.673 1899.11 204.673 Q1899.36 204.632 1899.97 204.632 Q1900.79 204.632 1901.65 204.551 Q1902.51 204.428 1903.58 204.182 Q1904.64 203.936 1905.3 203.321 Q1906 202.706 1906 201.845 Q1906 201.476 1905.71 198.443 Q1905.42 195.41 1905.05 191.885 Q1904.68 188.319 1904.64 187.827 L1883.57 187.827 Q1881.65 191.147 1880.3 193.442 Q1878.94 195.738 1878.45 196.517 Q1877.96 197.295 1877.67 197.787 Q1877.39 198.279 1877.22 198.566 Q1876.03 200.739 1876.03 201.681 Q1876.03 204.305 1879.97 204.632 Q1881.32 204.632 1881.32 205.616 Q1881.32 206.354 1880.99 206.764 Q1880.66 207.133 1880.38 207.174 Q1880.13 207.215 1879.72 207.215 Q1878.37 207.215 1875.54 207.092 Q1872.71 206.969 1871.32 206.969 Q1870.13 206.969 1867.67 207.092 Q1865.21 207.215 1864.1 207.215 Q1863.61 207.215 1863.33 206.928 Q1863.04 206.641 1863.04 206.272 Q1863.04 205.698 1863.12 205.37 Q1863.24 205.042 1863.57 204.878 Q1863.9 204.714 1864.06 204.714 Q1864.23 204.673 1864.8 204.632 Q1867.92 204.428 1870.33 202.952 Q1872.79 201.435 1875.13 197.541 L1904.32 148.518 Q1904.6 148.026 1904.81 147.78 Q1905.01 147.534 1905.42 147.329 Q1905.87 147.125 1906.53 147.125 Q1907.55 147.125 1907.76 147.452 Q1907.96 147.739 1908.09 149.133 L1913.21 201.599 Q1913.33 202.706 1913.41 203.157 Q1913.54 203.567 1914.07 204.018 Q1914.64 204.428 1915.67 204.551 Q1916.73 204.632 1918.7 204.632 Q1919.44 204.632 1919.73 204.673 Q1920.01 204.673 1920.3 204.878 Q1920.63 205.083 1920.63 205.534 M1904.4 185.204 L1901.73 157.536 L1885.17 185.204 L1904.4 185.204 Z" fill="#000000" fill-rule="nonzero" fill-opacity="1" /><path clip-path="url(#clip730)" d="M1957.01 191.303 L1948.54 225.275 Q1948.2 226.795 1948.2 228.087 Q1948.2 230.784 1949.95 230.784 Q1950.81 230.784 1951.5 230.238 Q1952.18 229.693 1952.73 228.546 Q1953.28 227.398 1953.62 226.336 Q1953.96 225.246 1954.42 223.524 Q1954.57 222.836 1954.68 222.664 Q1954.82 222.463 1955.23 222.463 Q1955.94 222.463 1955.94 223.037 Q1955.17 226.738 1954.16 228.861 Q1952.56 232.103 1949.83 232.103 Q1947.77 232.103 1946.3 230.841 Q1944.84 229.579 1944.5 227.685 Q1940.74 232.103 1936.83 232.103 Q1933.39 232.103 1931.21 229.492 Q1929.03 226.853 1929.03 222.692 Q1929.03 218.503 1931.1 214.486 Q1933.19 210.469 1936.49 207.973 Q1939.79 205.477 1943.18 205.477 Q1946.76 205.477 1948.6 209.236 L1952.13 195.291 L1952.3 194.143 Q1952.3 193.799 1952.16 193.627 Q1952.04 193.426 1951.35 193.283 Q1950.69 193.139 1949.37 193.139 Q1948.83 193.139 1948.57 193.11 Q1948.34 193.082 1948.14 192.938 Q1947.94 192.766 1947.94 192.422 Q1947.94 191.418 1948.77 191.303 Q1954.28 190.672 1956.23 190.672 Q1956.57 190.672 1956.78 190.844 Q1956.98 190.987 1956.98 191.159 L1957.01 191.303 M1947.88 211.933 Q1947.88 211.674 1947.68 210.957 Q1947.48 210.24 1947.02 209.236 Q1946.56 208.231 1945.56 207.514 Q1944.58 206.768 1943.26 206.768 Q1941.48 206.768 1939.62 208.289 Q1937.78 209.809 1936.43 212.392 Q1935.4 214.458 1934.28 218.79 Q1933.19 223.123 1933.19 225.275 Q1933.19 226.595 1933.48 227.771 Q1933.79 228.919 1934.68 229.865 Q1935.57 230.784 1936.95 230.784 Q1940.31 230.784 1943.61 226.623 Q1944.24 225.906 1944.38 225.619 Q1944.55 225.303 1944.78 224.443 L1947.71 212.937 Q1947.88 212.076 1947.88 211.933 Z" fill="#000000" fill-rule="nonzero" fill-opacity="1" /><path clip-path="url(#clip730)" d="M2003.47 160.013 L2002.75 161.19 Q1998.3 159.267 1992.77 156.197 Q1987.23 159.267 1982.78 161.19 L1982.09 160.013 Q1986.94 155.796 1992.77 152.553 Q1998.65 155.824 2003.47 160.013 Z" fill="#000000" fill-rule="nonzero" fill-opacity="1" /><path clip-path="url(#clip730)" d="M2007.5 175.653 Q2007.5 177.948 2006.07 179.26 Q2004.63 180.531 2003 180.531 Q2001.44 180.531 2000.62 179.629 Q1999.8 178.727 1999.8 177.58 Q1999.8 176.022 2000.95 174.669 Q2002.09 173.317 2003.81 173.03 Q2002.13 171.964 1999.63 171.964 Q1997.99 171.964 1996.56 172.825 Q1995.17 173.686 1994.31 174.792 Q1993.49 175.899 1992.75 177.498 Q1992.05 179.055 1991.76 179.998 Q1991.52 180.9 1991.31 181.883 L1988.44 193.36 Q1987.05 198.812 1987.05 200.739 Q1987.05 203.116 1988.2 204.714 Q1989.35 206.272 1991.64 206.272 Q1992.54 206.272 1993.57 206.026 Q1994.59 205.739 1995.9 205.001 Q1997.26 204.223 1998.45 203.075 Q1999.67 201.886 2000.86 199.878 Q2002.05 197.869 2002.83 195.287 Q2003.08 194.385 2003.9 194.385 Q2004.92 194.385 2004.92 195.205 Q2004.92 195.902 2004.35 197.377 Q2003.81 198.812 2002.63 200.698 Q2001.48 202.542 1999.96 204.223 Q1998.45 205.862 1996.19 207.01 Q1993.94 208.158 1991.48 208.158 Q1987.95 208.158 1985.62 206.272 Q1983.28 204.387 1982.42 201.763 Q1982.21 202.132 1981.93 202.624 Q1981.64 203.116 1980.78 204.223 Q1979.96 205.288 1979.02 206.108 Q1978.07 206.887 1976.6 207.502 Q1975.16 208.158 1973.61 208.158 Q1971.64 208.158 1969.88 207.584 Q1968.15 207.01 1966.92 205.698 Q1965.69 204.387 1965.69 202.583 Q1965.69 200.575 1967.05 199.181 Q1968.44 197.746 1970.33 197.746 Q1971.52 197.746 1972.46 198.443 Q1973.44 199.14 1973.44 200.657 Q1973.44 202.337 1972.29 203.608 Q1971.15 204.878 1969.51 205.206 Q1971.19 206.272 1973.69 206.272 Q1976.39 206.272 1978.52 203.895 Q1980.66 201.517 1981.68 197.541 Q1984.22 187.991 1985.21 183.728 Q1986.19 179.424 1986.19 177.58 Q1986.19 175.858 1985.74 174.669 Q1985.29 173.481 1984.51 172.948 Q1983.77 172.374 1983.07 172.169 Q1982.42 171.964 1981.68 171.964 Q1980.45 171.964 1979.06 172.456 Q1977.7 172.948 1976.07 174.095 Q1974.47 175.202 1972.95 177.498 Q1971.43 179.793 1970.41 182.949 Q1970.2 183.892 1969.3 183.892 Q1968.32 183.851 1968.32 183.031 Q1968.32 182.334 1968.85 180.9 Q1969.42 179.424 1970.57 177.58 Q1971.76 175.735 1973.28 174.095 Q1974.84 172.415 1977.09 171.267 Q1979.39 170.12 1981.84 170.12 Q1982.95 170.12 1984.02 170.365 Q1985.12 170.57 1986.44 171.185 Q1987.79 171.8 1988.98 173.153 Q1990.17 174.505 1990.9 176.473 Q1991.4 175.53 1992.05 174.628 Q1992.75 173.727 1993.81 172.62 Q1994.92 171.472 1996.44 170.816 Q1997.99 170.12 1999.72 170.12 Q2001.4 170.12 2003.04 170.57 Q2004.68 170.98 2006.07 172.333 Q2007.5 173.645 2007.5 175.653 Z" fill="#000000" fill-rule="nonzero" fill-opacity="1" /><path clip-path="url(#clip730)" d="M2044.97 192.24 L2036.51 226.212 Q2036.16 227.733 2036.16 229.024 Q2036.16 231.721 2037.91 231.721 Q2038.77 231.721 2039.46 231.176 Q2040.15 230.631 2040.7 229.483 Q2041.24 228.335 2041.59 227.274 Q2041.93 226.183 2042.39 224.462 Q2042.53 223.773 2042.65 223.601 Q2042.79 223.4 2043.19 223.4 Q2043.91 223.4 2043.91 223.974 Q2043.14 227.675 2042.13 229.799 Q2040.52 233.041 2037.8 233.041 Q2035.73 233.041 2034.27 231.779 Q2032.81 230.516 2032.46 228.622 Q2028.7 233.041 2024.8 233.041 Q2021.36 233.041 2019.18 230.43 Q2017 227.79 2017 223.63 Q2017 219.441 2019.06 215.424 Q2021.16 211.407 2024.46 208.911 Q2027.76 206.414 2031.14 206.414 Q2034.73 206.414 2036.56 210.173 L2040.09 196.229 L2040.27 195.081 Q2040.27 194.737 2040.12 194.564 Q2040.01 194.364 2039.32 194.22 Q2038.66 194.077 2037.34 194.077 Q2036.79 194.077 2036.54 194.048 Q2036.31 194.019 2036.11 193.876 Q2035.9 193.704 2035.9 193.359 Q2035.9 192.355 2036.74 192.24 Q2042.25 191.609 2044.2 191.609 Q2044.54 191.609 2044.74 191.781 Q2044.94 191.925 2044.94 192.097 L2044.97 192.24 M2035.85 212.87 Q2035.85 212.612 2035.65 211.895 Q2035.45 211.177 2034.99 210.173 Q2034.53 209.169 2033.52 208.452 Q2032.55 207.706 2031.23 207.706 Q2029.45 207.706 2027.58 209.226 Q2025.75 210.747 2024.4 213.329 Q2023.37 215.395 2022.25 219.728 Q2021.16 224.06 2021.16 226.212 Q2021.16 227.532 2021.44 228.708 Q2021.76 229.856 2022.65 230.803 Q2023.54 231.721 2024.92 231.721 Q2028.27 231.721 2031.57 227.561 Q2032.2 226.843 2032.35 226.556 Q2032.52 226.241 2032.75 225.38 L2035.68 213.874 Q2035.85 213.014 2035.85 212.87 Z" fill="#000000" fill-rule="nonzero" fill-opacity="1" /><path clip-path="url(#clip730)" d="M2132.37 185.04 Q2132.86 185.531 2132.86 186.228 Q2132.86 186.925 2132.37 187.417 Q2131.88 187.909 2131.18 187.909 L2078.63 187.909 Q2077.94 187.909 2077.44 187.417 Q2076.95 186.925 2076.95 186.228 Q2076.95 185.531 2077.44 185.04 Q2077.94 184.548 2078.63 184.548 L2131.18 184.548 Q2131.88 184.548 2132.37 185.04 Z" fill="#000000" fill-rule="nonzero" fill-opacity="1" /><path clip-path="url(#clip730)" d="M2203.65 173.317 Q2203.65 173.891 2203.28 175.243 L2195.24 207.297 Q2193.48 214.429 2187.74 219.43 Q2182.05 224.43 2175.57 224.43 Q2171.67 224.43 2169.17 222.34 Q2166.67 220.29 2166.67 217.134 Q2166.67 214.347 2168.15 212.994 Q2169.63 211.683 2171.39 211.683 Q2171.96 211.683 2172.58 211.847 Q2173.19 212.011 2173.85 212.707 Q2174.5 213.404 2174.5 214.593 Q2174.5 216.519 2172.82 218.036 Q2172 218.733 2171.22 218.897 Q2170.49 219.061 2169.22 219.061 Q2169.71 220.208 2170.61 220.987 Q2171.51 221.766 2172.54 222.053 Q2173.56 222.381 2174.22 222.463 Q2174.91 222.586 2175.57 222.586 Q2180.82 222.586 2184.83 217.298 Q2186.02 215.7 2186.88 214.101 Q2187.78 212.543 2188.44 210.617 Q2189.1 208.731 2189.38 207.707 Q2189.71 206.682 2190.28 204.346 Q2186.47 208.158 2181.8 208.158 Q2179.83 208.158 2178.07 207.625 Q2176.35 207.092 2174.83 205.985 Q2173.31 204.837 2172.41 202.829 Q2171.55 200.82 2171.55 198.156 Q2171.55 195.328 2172.66 191.475 Q2173.77 187.622 2176.43 180.531 Q2177.86 176.555 2177.86 174.628 Q2177.86 173.686 2177.66 173.112 Q2177.45 172.497 2177.04 172.292 Q2176.63 172.046 2176.39 172.005 Q2176.18 171.964 2175.77 171.964 Q2173.36 171.964 2171.1 174.423 Q2168.85 176.883 2167.29 182.375 Q2166.96 183.4 2166.76 183.646 Q2166.55 183.892 2165.94 183.892 Q2164.91 183.851 2164.91 183.031 Q2164.91 182.703 2165.28 181.433 Q2165.65 180.121 2166.51 178.194 Q2167.41 176.227 2168.64 174.464 Q2169.87 172.661 2171.8 171.39 Q2173.77 170.12 2176.02 170.12 Q2179.09 170.12 2180.98 172.128 Q2182.91 174.095 2182.91 177.006 Q2182.91 178.194 2182.58 179.26 Q2182.29 180.285 2181.23 183.031 Q2176.92 194.098 2176.92 199.509 Q2176.92 200.82 2177.13 201.927 Q2177.37 202.993 2177.91 204.059 Q2178.44 205.083 2179.5 205.698 Q2180.61 206.272 2182.13 206.272 Q2184.05 206.272 2185.86 205.37 Q2187.7 204.428 2188.85 203.157 Q2190.04 201.886 2190.73 200.82 Q2191.47 199.714 2191.64 199.14 L2195.41 184.056 L2197.09 177.334 Q2197.87 173.686 2198.24 172.784 Q2198.73 171.923 2199.59 171.472 Q2200.45 171.021 2201.19 171.021 Q2202.21 171.021 2202.91 171.636 Q2203.65 172.251 2203.65 173.317 Z" fill="#000000" fill-rule="nonzero" fill-opacity="1" /><path clip-path="url(#clip730)" d="M2205.63 225.619 L2205.63 146.838 Q2205.63 144.337 2207.31 144.337 Q2208.99 144.337 2208.99 146.961 L2208.99 225.414 Q2208.99 228.119 2207.31 228.119 Q2205.63 228.119 2205.63 225.619 M2214.89 225.619 L2214.89 147.452 Q2214.89 144.337 2216.57 144.337 Q2218.25 144.337 2218.25 146.961 L2218.25 225.414 Q2218.25 228.119 2216.57 228.119 Q2214.89 228.119 2214.89 225.619 Z" fill="#000000" fill-rule="nonzero" fill-opacity="1" /><path clip-path="url(#clip730)" d="M2227.09 251.175 Q2227.09 250.114 2227.18 249.798 Q2227.29 249.483 2227.75 248.995 L2239.03 236.427 Q2245.19 229.484 2245.19 223.43 Q2245.19 219.499 2243.13 216.687 Q2241.09 213.875 2237.33 213.875 Q2234.75 213.875 2232.57 215.453 Q2230.39 217.031 2229.38 219.843 Q2229.56 219.786 2230.16 219.786 Q2231.62 219.786 2232.43 220.704 Q2233.26 221.622 2233.26 222.856 Q2233.26 224.434 2232.23 225.209 Q2231.22 225.955 2230.22 225.955 Q2229.82 225.955 2229.27 225.869 Q2228.75 225.783 2227.92 224.979 Q2227.09 224.147 2227.09 222.684 Q2227.09 218.581 2230.19 215.31 Q2233.32 212.039 2238.08 212.039 Q2243.47 212.039 2247 215.252 Q2250.56 218.437 2250.56 223.43 Q2250.56 225.18 2250.01 226.787 Q2249.5 228.365 2248.78 229.599 Q2248.09 230.832 2246.2 232.812 Q2244.31 234.792 2242.78 236.198 Q2241.26 237.604 2237.85 240.588 L2231.62 246.642 L2242.21 246.642 Q2247.38 246.642 2247.78 246.183 Q2248.35 245.351 2249.07 240.961 L2250.56 240.961 L2248.9 251.175 L2227.09 251.175 Z" fill="#000000" fill-rule="nonzero" fill-opacity="1" /><path clip-path="url(#clip730)" d="M1728 262.943 L1686.65 345.65 L1769.36 345.65 L1728 262.943 Z" fill="#0000ff" fill-rule="evenodd" fill-opacity="1" stroke="none"/>
<path clip-path="url(#clip730)" d="M1821.47 331.861 L1821.47 253.079 Q1821.47 250.579 1823.15 250.579 Q1824.83 250.579 1824.83 253.202 L1824.83 331.656 Q1824.83 334.361 1823.15 334.361 Q1821.47 334.361 1821.47 331.861 M1830.73 331.861 L1830.73 253.694 Q1830.73 250.579 1832.41 250.579 Q1834.09 250.579 1834.09 253.202 L1834.09 331.656 Q1834.09 334.361 1832.41 334.361 Q1830.73 334.361 1830.73 331.861 Z" fill="#000000" fill-rule="nonzero" fill-opacity="1" /><path clip-path="url(#clip730)" d="M1920.63 311.776 Q1920.63 312.555 1920.3 312.965 Q1920.01 313.334 1919.73 313.416 Q1919.48 313.457 1919.11 313.457 Q1918.05 313.457 1914.36 313.334 Q1910.67 313.211 1909.6 313.211 Q1907.88 313.211 1904.36 313.334 Q1900.83 313.457 1899.11 313.457 Q1897.96 313.457 1897.96 312.514 Q1897.96 311.899 1898.08 311.571 Q1898.21 311.202 1898.54 311.079 Q1898.9 310.915 1899.11 310.915 Q1899.36 310.874 1899.97 310.874 Q1900.79 310.874 1901.65 310.792 Q1902.51 310.669 1903.58 310.423 Q1904.64 310.178 1905.3 309.563 Q1906 308.948 1906 308.087 Q1906 307.718 1905.71 304.685 Q1905.42 301.652 1905.05 298.127 Q1904.68 294.561 1904.64 294.069 L1883.57 294.069 Q1881.65 297.389 1880.3 299.684 Q1878.94 301.98 1878.45 302.758 Q1877.96 303.537 1877.67 304.029 Q1877.39 304.521 1877.22 304.808 Q1876.03 306.98 1876.03 307.923 Q1876.03 310.546 1879.97 310.874 Q1881.32 310.874 1881.32 311.858 Q1881.32 312.596 1880.99 313.006 Q1880.66 313.375 1880.38 313.416 Q1880.13 313.457 1879.72 313.457 Q1878.37 313.457 1875.54 313.334 Q1872.71 313.211 1871.32 313.211 Q1870.13 313.211 1867.67 313.334 Q1865.21 313.457 1864.1 313.457 Q1863.61 313.457 1863.33 313.17 Q1863.04 312.883 1863.04 312.514 Q1863.04 311.94 1863.12 311.612 Q1863.24 311.284 1863.57 311.12 Q1863.9 310.956 1864.06 310.956 Q1864.23 310.915 1864.8 310.874 Q1867.92 310.669 1870.33 309.194 Q1872.79 307.677 1875.13 303.783 L1904.32 254.76 Q1904.6 254.268 1904.81 254.022 Q1905.01 253.776 1905.42 253.571 Q1905.87 253.366 1906.53 253.366 Q1907.55 253.366 1907.76 253.694 Q1907.96 253.981 1908.09 255.375 L1913.21 307.841 Q1913.33 308.948 1913.41 309.399 Q1913.54 309.809 1914.07 310.26 Q1914.64 310.669 1915.67 310.792 Q1916.73 310.874 1918.7 310.874 Q1919.44 310.874 1919.73 310.915 Q1920.01 310.915 1920.3 311.12 Q1920.63 311.325 1920.63 311.776 M1904.4 291.445 L1901.73 263.778 L1885.17 291.445 L1904.4 291.445 Z" fill="#000000" fill-rule="nonzero" fill-opacity="1" /><path clip-path="url(#clip730)" d="M1957.01 297.545 L1948.54 331.517 Q1948.2 333.037 1948.2 334.328 Q1948.2 337.026 1949.95 337.026 Q1950.81 337.026 1951.5 336.48 Q1952.18 335.935 1952.73 334.787 Q1953.28 333.64 1953.62 332.578 Q1953.96 331.488 1954.42 329.766 Q1954.57 329.078 1954.68 328.906 Q1954.82 328.705 1955.23 328.705 Q1955.94 328.705 1955.94 329.279 Q1955.17 332.98 1954.16 335.103 Q1952.56 338.345 1949.83 338.345 Q1947.77 338.345 1946.3 337.083 Q1944.84 335.82 1944.5 333.927 Q1940.74 338.345 1936.83 338.345 Q1933.39 338.345 1931.21 335.734 Q1929.03 333.095 1929.03 328.934 Q1929.03 324.745 1931.1 320.728 Q1933.19 316.711 1936.49 314.215 Q1939.79 311.719 1943.18 311.719 Q1946.76 311.719 1948.6 315.477 L1952.13 301.533 L1952.3 300.385 Q1952.3 300.041 1952.16 299.869 Q1952.04 299.668 1951.35 299.524 Q1950.69 299.381 1949.37 299.381 Q1948.83 299.381 1948.57 299.352 Q1948.34 299.324 1948.14 299.18 Q1947.94 299.008 1947.94 298.664 Q1947.94 297.659 1948.77 297.545 Q1954.28 296.913 1956.23 296.913 Q1956.57 296.913 1956.78 297.086 Q1956.98 297.229 1956.98 297.401 L1957.01 297.545 M1947.88 318.175 Q1947.88 317.916 1947.68 317.199 Q1947.48 316.482 1947.02 315.477 Q1946.56 314.473 1945.56 313.756 Q1944.58 313.01 1943.26 313.01 Q1941.48 313.01 1939.62 314.531 Q1937.78 316.051 1936.43 318.634 Q1935.4 320.699 1934.28 325.032 Q1933.19 329.365 1933.19 331.517 Q1933.19 332.836 1933.48 334.013 Q1933.79 335.16 1934.68 336.107 Q1935.57 337.026 1936.95 337.026 Q1940.31 337.026 1943.61 332.865 Q1944.24 332.148 1944.38 331.861 Q1944.55 331.545 1944.78 330.684 L1947.71 319.179 Q1947.88 318.318 1947.88 318.175 Z" fill="#000000" fill-rule="nonzero" fill-opacity="1" /><path clip-path="url(#clip730)" d="M2003.47 266.255 L2002.75 267.432 Q1998.3 265.509 1992.77 262.439 Q1987.23 265.509 1982.78 267.432 L1982.09 266.255 Q1986.94 262.038 1992.77 258.795 Q1998.65 262.066 2003.47 266.255 Z" fill="#000000" fill-rule="nonzero" fill-opacity="1" /><path clip-path="url(#clip730)" d="M2007.5 281.895 Q2007.5 284.19 2006.07 285.502 Q2004.63 286.773 2003 286.773 Q2001.44 286.773 2000.62 285.871 Q1999.8 284.969 1999.8 283.821 Q1999.8 282.264 2000.95 280.911 Q2002.09 279.559 2003.81 279.272 Q2002.13 278.206 1999.63 278.206 Q1997.99 278.206 1996.56 279.067 Q1995.17 279.927 1994.31 281.034 Q1993.49 282.141 1992.75 283.739 Q1992.05 285.297 1991.76 286.24 Q1991.52 287.142 1991.31 288.125 L1988.44 299.602 Q1987.05 305.054 1987.05 306.98 Q1987.05 309.358 1988.2 310.956 Q1989.35 312.514 1991.64 312.514 Q1992.54 312.514 1993.57 312.268 Q1994.59 311.981 1995.9 311.243 Q1997.26 310.464 1998.45 309.317 Q1999.67 308.128 2000.86 306.12 Q2002.05 304.111 2002.83 301.529 Q2003.08 300.627 2003.9 300.627 Q2004.92 300.627 2004.92 301.447 Q2004.92 302.144 2004.35 303.619 Q2003.81 305.054 2002.63 306.939 Q2001.48 308.784 1999.96 310.464 Q1998.45 312.104 1996.19 313.252 Q1993.94 314.399 1991.48 314.399 Q1987.95 314.399 1985.62 312.514 Q1983.28 310.628 1982.42 308.005 Q1982.21 308.374 1981.93 308.866 Q1981.64 309.358 1980.78 310.464 Q1979.96 311.53 1979.02 312.35 Q1978.07 313.129 1976.6 313.744 Q1975.16 314.399 1973.61 314.399 Q1971.64 314.399 1969.88 313.826 Q1968.15 313.252 1966.92 311.94 Q1965.69 310.628 1965.69 308.825 Q1965.69 306.816 1967.05 305.423 Q1968.44 303.988 1970.33 303.988 Q1971.52 303.988 1972.46 304.685 Q1973.44 305.382 1973.44 306.898 Q1973.44 308.579 1972.29 309.85 Q1971.15 311.12 1969.51 311.448 Q1971.19 312.514 1973.69 312.514 Q1976.39 312.514 1978.52 310.137 Q1980.66 307.759 1981.68 303.783 Q1984.22 294.233 1985.21 289.97 Q1986.19 285.666 1986.19 283.821 Q1986.19 282.1 1985.74 280.911 Q1985.29 279.723 1984.51 279.19 Q1983.77 278.616 1983.07 278.411 Q1982.42 278.206 1981.68 278.206 Q1980.45 278.206 1979.06 278.698 Q1977.7 279.19 1976.07 280.337 Q1974.47 281.444 1972.95 283.739 Q1971.43 286.035 1970.41 289.191 Q1970.2 290.134 1969.3 290.134 Q1968.32 290.093 1968.32 289.273 Q1968.32 288.576 1968.85 287.142 Q1969.42 285.666 1970.57 283.821 Q1971.76 281.977 1973.28 280.337 Q1974.84 278.657 1977.09 277.509 Q1979.39 276.361 1981.84 276.361 Q1982.95 276.361 1984.02 276.607 Q1985.12 276.812 1986.44 277.427 Q1987.79 278.042 1988.98 279.395 Q1990.17 280.747 1990.9 282.715 Q1991.4 281.772 1992.05 280.87 Q1992.75 279.968 1993.81 278.862 Q1994.92 277.714 1996.44 277.058 Q1997.99 276.361 1999.72 276.361 Q2001.4 276.361 2003.04 276.812 Q2004.68 277.222 2006.07 278.575 Q2007.5 279.886 2007.5 281.895 Z" fill="#000000" fill-rule="nonzero" fill-opacity="1" /><path clip-path="url(#clip730)" d="M2044.97 298.482 L2036.51 332.454 Q2036.16 333.975 2036.16 335.266 Q2036.16 337.963 2037.91 337.963 Q2038.77 337.963 2039.46 337.418 Q2040.15 336.873 2040.7 335.725 Q2041.24 334.577 2041.59 333.516 Q2041.93 332.425 2042.39 330.704 Q2042.53 330.015 2042.65 329.843 Q2042.79 329.642 2043.19 329.642 Q2043.91 329.642 2043.91 330.216 Q2043.14 333.917 2042.13 336.041 Q2040.52 339.283 2037.8 339.283 Q2035.73 339.283 2034.27 338.02 Q2032.81 336.758 2032.46 334.864 Q2028.7 339.283 2024.8 339.283 Q2021.36 339.283 2019.18 336.672 Q2017 334.032 2017 329.872 Q2017 325.683 2019.06 321.666 Q2021.16 317.649 2024.46 315.152 Q2027.76 312.656 2031.14 312.656 Q2034.73 312.656 2036.56 316.415 L2040.09 302.47 L2040.27 301.323 Q2040.27 300.978 2040.12 300.806 Q2040.01 300.605 2039.32 300.462 Q2038.66 300.318 2037.34 300.318 Q2036.79 300.318 2036.54 300.29 Q2036.31 300.261 2036.11 300.118 Q2035.9 299.945 2035.9 299.601 Q2035.9 298.597 2036.74 298.482 Q2042.25 297.851 2044.2 297.851 Q2044.54 297.851 2044.74 298.023 Q2044.94 298.167 2044.94 298.339 L2044.97 298.482 M2035.85 319.112 Q2035.85 318.854 2035.65 318.136 Q2035.45 317.419 2034.99 316.415 Q2034.53 315.411 2033.52 314.693 Q2032.55 313.947 2031.23 313.947 Q2029.45 313.947 2027.58 315.468 Q2025.75 316.989 2024.4 319.571 Q2023.37 321.637 2022.25 325.97 Q2021.16 330.302 2021.16 332.454 Q2021.16 333.774 2021.44 334.95 Q2021.76 336.098 2022.65 337.045 Q2023.54 337.963 2024.92 337.963 Q2028.27 337.963 2031.57 333.803 Q2032.2 333.085 2032.35 332.798 Q2032.52 332.483 2032.75 331.622 L2035.68 320.116 Q2035.85 319.255 2035.85 319.112 Z" fill="#000000" fill-rule="nonzero" fill-opacity="1" /><path clip-path="url(#clip730)" d="M2132.37 291.281 Q2132.86 291.773 2132.86 292.47 Q2132.86 293.167 2132.37 293.659 Q2131.88 294.151 2131.18 294.151 L2078.63 294.151 Q2077.94 294.151 2077.44 293.659 Q2076.95 293.167 2076.95 292.47 Q2076.95 291.773 2077.44 291.281 Q2077.94 290.79 2078.63 290.79 L2131.18 290.79 Q2131.88 290.79 2132.37 291.281 Z" fill="#000000" fill-rule="nonzero" fill-opacity="1" /><path clip-path="url(#clip730)" d="M2206.76 260.048 Q2206.76 262.302 2205.33 263.696 Q2203.93 265.089 2202.17 265.089 Q2200.9 265.089 2199.96 264.311 Q2199.06 263.532 2199.06 262.179 Q2199.06 260.785 2200.12 259.31 Q2201.19 257.834 2203.61 257.629 Q2202.01 256.113 2199.47 256.113 Q2198.2 256.113 2197.13 256.932 Q2196.1 257.711 2195.53 258.982 Q2194.92 260.294 2193.52 267.713 Q2193.07 270.131 2192.66 272.467 Q2192.25 274.804 2191.76 277.263 L2198.73 277.263 Q2199.63 277.263 2200 277.304 Q2200.37 277.345 2200.65 277.55 Q2200.98 277.755 2200.98 278.206 Q2200.98 279.354 2200.45 279.641 Q2199.96 279.886 2198.48 279.886 L2191.27 279.886 L2186.23 306.489 Q2186.1 307.267 2185.57 309.727 Q2185.08 312.145 2183.89 316.121 Q2182.7 320.138 2181.51 322.515 Q2180.86 323.868 2180 325.139 Q2179.18 326.45 2177.99 327.762 Q2176.8 329.074 2175.24 329.852 Q2173.68 330.672 2172.04 330.672 Q2169.26 330.672 2167.08 329.115 Q2164.91 327.557 2164.91 324.893 Q2164.91 322.638 2166.31 321.245 Q2167.74 319.851 2169.5 319.851 Q2170.77 319.851 2171.67 320.63 Q2172.62 321.409 2172.62 322.761 Q2172.62 323.335 2172.41 323.991 Q2172.21 324.647 2171.76 325.385 Q2171.31 326.163 2170.32 326.696 Q2169.34 327.229 2167.99 327.311 Q2169.58 328.828 2172.04 328.828 Q2172.82 328.828 2173.52 328.5 Q2174.22 328.213 2174.79 327.475 Q2175.4 326.737 2175.86 325.999 Q2176.31 325.303 2176.76 323.95 Q2177.21 322.638 2177.5 321.655 Q2177.78 320.671 2178.15 318.908 Q2178.56 317.146 2178.77 316.08 Q2178.97 315.055 2179.34 313.047 L2185.61 279.886 L2180.08 279.886 Q2179.09 279.886 2178.68 279.845 Q2178.32 279.804 2178.03 279.6 Q2177.74 279.354 2177.74 278.862 Q2177.74 278.083 2178.07 277.755 Q2178.44 277.386 2178.85 277.345 Q2179.26 277.263 2180.24 277.263 L2186.06 277.263 Q2188.03 266.893 2188.81 264.106 Q2189.71 261.154 2191.1 259.105 Q2192.5 257.014 2194.06 256.031 Q2195.61 255.047 2196.88 254.678 Q2198.2 254.268 2199.47 254.268 Q2202.33 254.268 2204.55 255.826 Q2206.76 257.342 2206.76 260.048 Z" fill="#000000" fill-rule="nonzero" fill-opacity="1" /><path clip-path="url(#clip730)" d="M2205.63 331.861 L2205.63 253.079 Q2205.63 250.579 2207.31 250.579 Q2208.99 250.579 2208.99 253.202 L2208.99 331.656 Q2208.99 334.361 2207.31 334.361 Q2205.63 334.361 2205.63 331.861 M2214.89 331.861 L2214.89 253.694 Q2214.89 250.579 2216.57 250.579 Q2218.25 250.579 2218.25 253.202 L2218.25 331.656 Q2218.25 334.361 2216.57 334.361 Q2214.89 334.361 2214.89 331.861 Z" fill="#000000" fill-rule="nonzero" fill-opacity="1" /><path clip-path="url(#clip730)" d="M2227.09 357.417 Q2227.09 356.356 2227.18 356.04 Q2227.29 355.724 2227.75 355.237 L2239.03 342.669 Q2245.19 335.726 2245.19 329.672 Q2245.19 325.741 2243.13 322.929 Q2241.09 320.117 2237.33 320.117 Q2234.75 320.117 2232.57 321.695 Q2230.39 323.273 2229.38 326.085 Q2229.56 326.028 2230.16 326.028 Q2231.62 326.028 2232.43 326.946 Q2233.26 327.864 2233.26 329.098 Q2233.26 330.676 2232.23 331.451 Q2231.22 332.197 2230.22 332.197 Q2229.82 332.197 2229.27 332.111 Q2228.75 332.024 2227.92 331.221 Q2227.09 330.389 2227.09 328.926 Q2227.09 324.823 2230.19 321.552 Q2233.32 318.281 2238.08 318.281 Q2243.47 318.281 2247 321.494 Q2250.56 324.679 2250.56 329.672 Q2250.56 331.422 2250.01 333.029 Q2249.5 334.607 2248.78 335.841 Q2248.09 337.074 2246.2 339.054 Q2244.31 341.034 2242.78 342.44 Q2241.26 343.846 2237.85 346.83 L2231.62 352.884 L2242.21 352.884 Q2247.38 352.884 2247.78 352.425 Q2248.35 351.593 2249.07 347.203 L2250.56 347.203 L2248.9 357.417 L2227.09 357.417 Z" fill="#000000" fill-rule="nonzero" fill-opacity="1" /></svg>
