<?xml version="1.0" encoding="utf-8"?>
<svg xmlns="http://www.w3.org/2000/svg" xmlns:xlink="http://www.w3.org/1999/xlink" width="600" height="400" viewBox="0 0 2400 1600">
<defs>
  <clipPath id="clip580">
    <rect x="0" y="0" width="2400" height="1600"/>
  </clipPath>
</defs>
<path clip-path="url(#clip580)" d="M0 1600 L2400 1600 L2400 0 L0 0  Z" fill="#ffffff" fill-rule="evenodd" fill-opacity="1"/>
<defs>
  <clipPath id="clip581">
    <rect x="373" y="47" width="1980" height="1295"/>
  </clipPath>
</defs>
<path clip-path="url(#clip580)" d="M373.897 1341.1 L2352.76 1341.1 L2352.76 47.2441 L373.897 47.2441  Z" fill="#ffffff" fill-rule="evenodd" fill-opacity="1"/>
<polyline clip-path="url(#clip581)" style="stroke:#000000; stroke-linecap:round; stroke-linejoin:round; stroke-width:2; stroke-opacity:0.1; fill:none" points="429.903,1341.1 429.903,47.2441 "/>
<polyline clip-path="url(#clip581)" style="stroke:#000000; stroke-linecap:round; stroke-linejoin:round; stroke-width:2; stroke-opacity:0.1; fill:none" points="896.615,1341.1 896.615,47.2441 "/>
<polyline clip-path="url(#clip581)" style="stroke:#000000; stroke-linecap:round; stroke-linejoin:round; stroke-width:2; stroke-opacity:0.1; fill:none" points="1363.33,1341.1 1363.33,47.2441 "/>
<polyline clip-path="url(#clip581)" style="stroke:#000000; stroke-linecap:round; stroke-linejoin:round; stroke-width:2; stroke-opacity:0.1; fill:none" points="1830.04,1341.1 1830.04,47.2441 "/>
<polyline clip-path="url(#clip581)" style="stroke:#000000; stroke-linecap:round; stroke-linejoin:round; stroke-width:2; stroke-opacity:0.1; fill:none" points="2296.75,1341.1 2296.75,47.2441 "/>
<polyline clip-path="url(#clip581)" style="stroke:#000000; stroke-linecap:round; stroke-linejoin:round; stroke-width:2; stroke-opacity:0.1; fill:none" points="373.897,1304.48 2352.76,1304.48 "/>
<polyline clip-path="url(#clip581)" style="stroke:#000000; stroke-linecap:round; stroke-linejoin:round; stroke-width:2; stroke-opacity:0.1; fill:none" points="373.897,694.172 2352.76,694.172 "/>
<polyline clip-path="url(#clip581)" style="stroke:#000000; stroke-linecap:round; stroke-linejoin:round; stroke-width:2; stroke-opacity:0.1; fill:none" points="373.897,83.8627 2352.76,83.8627 "/>
<polyline clip-path="url(#clip580)" style="stroke:#000000; stroke-linecap:round; stroke-linejoin:round; stroke-width:4; stroke-opacity:1; fill:none" points="373.897,1341.1 2352.76,1341.1 "/>
<polyline clip-path="url(#clip580)" style="stroke:#000000; stroke-linecap:round; stroke-linejoin:round; stroke-width:4; stroke-opacity:1; fill:none" points="429.903,1341.1 429.903,1322.2 "/>
<polyline clip-path="url(#clip580)" style="stroke:#000000; stroke-linecap:round; stroke-linejoin:round; stroke-width:4; stroke-opacity:1; fill:none" points="896.615,1341.1 896.615,1322.2 "/>
<polyline clip-path="url(#clip580)" style="stroke:#000000; stroke-linecap:round; stroke-linejoin:round; stroke-width:4; stroke-opacity:1; fill:none" points="1363.33,1341.1 1363.33,1322.2 "/>
<polyline clip-path="url(#clip580)" style="stroke:#000000; stroke-linecap:round; stroke-linejoin:round; stroke-width:4; stroke-opacity:1; fill:none" points="1830.04,1341.1 1830.04,1322.2 "/>
<polyline clip-path="url(#clip580)" style="stroke:#000000; stroke-linecap:round; stroke-linejoin:round; stroke-width:4; stroke-opacity:1; fill:none" points="2296.75,1341.1 2296.75,1322.2 "/>
<path clip-path="url(#clip580)" d="M429.903 1380.81 Q423.583 1380.81 420.383 1387.05 Q417.224 1393.24 417.224 1405.72 Q417.224 1418.16 420.383 1424.4 Q423.583 1430.59 429.903 1430.59 Q436.263 1430.59 439.422 1424.4 Q442.623 1418.16 442.623 1405.72 Q442.623 1393.24 439.422 1387.05 Q436.263 1380.81 429.903 1380.81 M429.903 1374.33 Q440.071 1374.33 445.418 1382.39 Q450.806 1390.41 450.806 1405.72 Q450.806 1420.99 445.418 1429.05 Q440.071 1437.07 429.903 1437.07 Q419.735 1437.07 414.347 1429.05 Q409 1420.99 409 1405.72 Q409 1390.41 414.347 1382.39 Q419.735 1374.33 429.903 1374.33 Z" fill="#000000" fill-rule="nonzero" fill-opacity="1" /><path clip-path="url(#clip580)" d="M879.783 1429.01 L893.151 1429.01 L893.151 1382.87 L878.609 1385.79 L878.609 1378.34 L893.07 1375.42 L901.253 1375.42 L901.253 1429.01 L914.621 1429.01 L914.621 1435.9 L879.783 1435.9 L879.783 1429.01 Z" fill="#000000" fill-rule="nonzero" fill-opacity="1" /><path clip-path="url(#clip580)" d="M1353.97 1429.01 L1382.53 1429.01 L1382.53 1435.9 L1344.13 1435.9 L1344.13 1429.01 Q1348.78 1424.19 1356.8 1416.09 Q1364.87 1407.95 1366.93 1405.6 Q1370.86 1401.18 1372.4 1398.15 Q1373.98 1395.07 1373.98 1392.11 Q1373.98 1387.29 1370.58 1384.25 Q1367.22 1381.21 1361.79 1381.21 Q1357.94 1381.21 1353.65 1382.55 Q1349.39 1383.89 1344.53 1386.6 L1344.53 1378.34 Q1349.47 1376.35 1353.77 1375.34 Q1358.06 1374.33 1361.63 1374.33 Q1371.02 1374.33 1376.61 1379.03 Q1382.2 1383.72 1382.2 1391.58 Q1382.2 1395.31 1380.79 1398.67 Q1379.41 1401.99 1375.72 1406.53 Q1374.71 1407.71 1369.28 1413.34 Q1363.85 1418.93 1353.97 1429.01 Z" fill="#000000" fill-rule="nonzero" fill-opacity="1" /><path clip-path="url(#clip580)" d="M1837.47 1403.29 Q1843.35 1404.55 1846.63 1408.52 Q1849.95 1412.49 1849.95 1418.32 Q1849.95 1427.27 1843.79 1432.17 Q1837.63 1437.07 1826.29 1437.07 Q1822.48 1437.07 1818.43 1436.3 Q1814.42 1435.58 1810.13 1434.08 L1810.13 1426.18 Q1813.53 1428.16 1817.58 1429.18 Q1821.63 1430.19 1826.05 1430.19 Q1833.75 1430.19 1837.76 1427.15 Q1841.81 1424.11 1841.81 1418.32 Q1841.81 1412.97 1838.04 1409.97 Q1834.31 1406.94 1827.63 1406.94 L1820.58 1406.94 L1820.58 1400.21 L1827.95 1400.21 Q1833.99 1400.21 1837.19 1397.82 Q1840.39 1395.39 1840.39 1390.85 Q1840.39 1386.2 1837.07 1383.72 Q1833.79 1381.21 1827.63 1381.21 Q1824.27 1381.21 1820.42 1381.94 Q1816.57 1382.67 1811.95 1384.21 L1811.95 1376.92 Q1816.61 1375.62 1820.66 1374.97 Q1824.75 1374.33 1828.36 1374.33 Q1837.67 1374.33 1843.1 1378.58 Q1848.53 1382.79 1848.53 1390 Q1848.53 1395.03 1845.65 1398.51 Q1842.78 1401.95 1837.47 1403.29 Z" fill="#000000" fill-rule="nonzero" fill-opacity="1" /><path clip-path="url(#clip580)" d="M2302.02 1382.55 L2281.36 1414.84 L2302.02 1414.84 L2302.02 1382.55 M2299.87 1375.42 L2310.16 1375.42 L2310.16 1414.84 L2318.79 1414.84 L2318.79 1421.64 L2310.16 1421.64 L2310.16 1435.9 L2302.02 1435.9 L2302.02 1421.64 L2274.71 1421.64 L2274.71 1413.74 L2299.87 1375.42 Z" fill="#000000" fill-rule="nonzero" fill-opacity="1" /><path clip-path="url(#clip580)" d="M1389.37 1507.53 Q1389.37 1519.33 1385.57 1532.61 Q1381.85 1545.82 1375.95 1556.5 Q1370.04 1567.11 1362.31 1574.14 Q1354.58 1581.1 1347.21 1581.1 Q1342.5 1581.1 1338.99 1578.5 Q1335.54 1575.83 1333.65 1571.4 Q1331.75 1566.9 1330.83 1561.98 Q1329.92 1557 1329.92 1551.58 Q1329.92 1543.5 1331.68 1534.72 Q1333.43 1525.87 1336.39 1517.86 Q1339.34 1509.78 1343.48 1502.47 Q1347.63 1495.09 1352.2 1489.75 Q1356.83 1484.34 1362.03 1481.18 Q1367.23 1478.01 1372.08 1478.01 Q1375.59 1478.01 1378.41 1479.56 Q1381.29 1481.04 1383.11 1483.64 Q1384.94 1486.17 1386.21 1489.19 Q1387.54 1492.21 1388.17 1495.72 Q1388.8 1499.17 1389.09 1502.05 Q1389.37 1504.86 1389.37 1507.53 M1379.88 1498.6 Q1379.88 1495.02 1379.6 1492.35 Q1379.32 1489.61 1378.55 1486.87 Q1377.77 1484.13 1376.09 1482.65 Q1374.47 1481.18 1371.94 1481.18 Q1364.56 1481.18 1356.27 1496.28 Q1353.6 1500.99 1351.21 1507.39 Q1348.82 1513.78 1347.98 1516.8 Q1347.14 1519.82 1345.17 1527.27 L1375.24 1527.27 Q1379.88 1508.09 1379.88 1498.6 M1373.98 1531.84 L1344.04 1531.84 Q1339.41 1549.41 1339.41 1560.37 Q1339.41 1569.92 1341.37 1573.93 Q1343.41 1577.86 1347.21 1577.86 Q1351.56 1577.86 1355.64 1573.51 Q1359.71 1569.08 1363.86 1561.07 Q1369.34 1550.67 1373.98 1531.84 Z" fill="#000000" fill-rule="nonzero" fill-opacity="1" /><polyline clip-path="url(#clip580)" style="stroke:#000000; stroke-linecap:round; stroke-linejoin:round; stroke-width:4; stroke-opacity:1; fill:none" points="373.897,1341.1 373.897,47.2441 "/>
<polyline clip-path="url(#clip580)" style="stroke:#000000; stroke-linecap:round; stroke-linejoin:round; stroke-width:4; stroke-opacity:1; fill:none" points="373.897,1304.48 392.795,1304.48 "/>
<polyline clip-path="url(#clip580)" style="stroke:#000000; stroke-linecap:round; stroke-linejoin:round; stroke-width:4; stroke-opacity:1; fill:none" points="373.897,694.172 392.795,694.172 "/>
<polyline clip-path="url(#clip580)" style="stroke:#000000; stroke-linecap:round; stroke-linejoin:round; stroke-width:4; stroke-opacity:1; fill:none" points="373.897,83.8627 392.795,83.8627 "/>
<path clip-path="url(#clip580)" d="M237.84 1279.63 Q231.521 1279.63 228.32 1285.87 Q225.161 1292.07 225.161 1304.54 Q225.161 1316.98 228.32 1323.22 Q231.521 1329.41 237.84 1329.41 Q244.2 1329.41 247.36 1323.22 Q250.56 1316.98 250.56 1304.54 Q250.56 1292.07 247.36 1285.87 Q244.2 1279.63 237.84 1279.63 M237.84 1273.15 Q248.008 1273.15 253.355 1281.21 Q258.743 1289.23 258.743 1304.54 Q258.743 1319.81 253.355 1327.88 Q248.008 1335.9 237.84 1335.9 Q227.672 1335.9 222.285 1327.88 Q216.937 1319.81 216.937 1304.54 Q216.937 1289.23 222.285 1281.21 Q227.672 1273.15 237.84 1273.15 Z" fill="#000000" fill-rule="nonzero" fill-opacity="1" /><path clip-path="url(#clip580)" d="M273.123 1324.43 L281.671 1324.43 L281.671 1334.72 L273.123 1334.72 L273.123 1324.43 Z" fill="#000000" fill-rule="nonzero" fill-opacity="1" /><path clip-path="url(#clip580)" d="M316.995 1279.63 Q310.675 1279.63 307.475 1285.87 Q304.315 1292.07 304.315 1304.54 Q304.315 1316.98 307.475 1323.22 Q310.675 1329.41 316.995 1329.41 Q323.355 1329.41 326.514 1323.22 Q329.715 1316.98 329.715 1304.54 Q329.715 1292.07 326.514 1285.87 Q323.355 1279.63 316.995 1279.63 M316.995 1273.15 Q327.163 1273.15 332.51 1281.21 Q337.897 1289.23 337.897 1304.54 Q337.897 1319.81 332.51 1327.88 Q327.163 1335.9 316.995 1335.9 Q306.827 1335.9 301.439 1327.88 Q296.092 1319.81 296.092 1304.54 Q296.092 1289.23 301.439 1281.21 Q306.827 1273.15 316.995 1273.15 Z" fill="#000000" fill-rule="nonzero" fill-opacity="1" /><path clip-path="url(#clip580)" d="M239.582 669.32 Q233.263 669.32 230.062 675.558 Q226.903 681.756 226.903 694.233 Q226.903 706.669 230.062 712.907 Q233.263 719.105 239.582 719.105 Q245.942 719.105 249.102 712.907 Q252.302 706.669 252.302 694.233 Q252.302 681.756 249.102 675.558 Q245.942 669.32 239.582 669.32 M239.582 662.838 Q249.75 662.838 255.097 670.9 Q260.485 678.92 260.485 694.233 Q260.485 709.505 255.097 717.566 Q249.75 725.587 239.582 725.587 Q229.414 725.587 224.027 717.566 Q218.679 709.505 218.679 694.233 Q218.679 678.92 224.027 670.9 Q229.414 662.838 239.582 662.838 Z" fill="#000000" fill-rule="nonzero" fill-opacity="1" /><path clip-path="url(#clip580)" d="M274.865 714.123 L283.413 714.123 L283.413 724.412 L274.865 724.412 L274.865 714.123 Z" fill="#000000" fill-rule="nonzero" fill-opacity="1" /><path clip-path="url(#clip580)" d="M301.318 663.932 L333.441 663.932 L333.441 670.819 L308.812 670.819 L308.812 685.645 Q310.594 685.037 312.377 684.754 Q314.159 684.43 315.942 684.43 Q326.069 684.43 331.983 689.979 Q337.897 695.529 337.897 705.008 Q337.897 714.771 331.821 720.199 Q325.745 725.587 314.686 725.587 Q310.878 725.587 306.908 724.939 Q302.979 724.29 298.766 722.994 L298.766 714.771 Q302.412 716.756 306.3 717.728 Q310.189 718.7 314.524 718.7 Q321.532 718.7 325.623 715.014 Q329.715 711.328 329.715 705.008 Q329.715 698.689 325.623 695.002 Q321.532 691.316 314.524 691.316 Q311.242 691.316 307.961 692.045 Q304.721 692.774 301.318 694.314 L301.318 663.932 Z" fill="#000000" fill-rule="nonzero" fill-opacity="1" /><path clip-path="url(#clip580)" d="M221.758 107.216 L235.126 107.216 L235.126 61.0763 L220.583 63.993 L220.583 56.5393 L235.045 53.6227 L243.228 53.6227 L243.228 107.216 L256.596 107.216 L256.596 114.103 L221.758 114.103 L221.758 107.216 Z" fill="#000000" fill-rule="nonzero" fill-opacity="1" /><path clip-path="url(#clip580)" d="M273.123 103.813 L281.671 103.813 L281.671 114.103 L273.123 114.103 L273.123 103.813 Z" fill="#000000" fill-rule="nonzero" fill-opacity="1" /><path clip-path="url(#clip580)" d="M316.995 59.0104 Q310.675 59.0104 307.475 65.2487 Q304.315 71.4466 304.315 83.9234 Q304.315 96.3597 307.475 102.598 Q310.675 108.796 316.995 108.796 Q323.355 108.796 326.514 102.598 Q329.715 96.3597 329.715 83.9234 Q329.715 71.4466 326.514 65.2487 Q323.355 59.0104 316.995 59.0104 M316.995 52.5289 Q327.163 52.5289 332.51 60.5902 Q337.897 68.611 337.897 83.9234 Q337.897 99.1953 332.51 107.257 Q327.163 115.277 316.995 115.277 Q306.827 115.277 301.439 107.257 Q296.092 99.1953 296.092 83.9234 Q296.092 68.611 301.439 60.5902 Q306.827 52.5289 316.995 52.5289 Z" fill="#000000" fill-rule="nonzero" fill-opacity="1" /><path clip-path="url(#clip580)" d="M195.739 1133.02 L61.7388 1133.02 Q56.3985 1133.02 56.3985 1130.14 Q56.3985 1127.26 60.6848 1127.26 L194.685 1127.26 Q200.025 1127.26 200.025 1130.14 Q200.025 1133.02 195.739 1133.02 Z" fill="#000000" fill-rule="nonzero" fill-opacity="1" /><path clip-path="url(#clip580)" d="M197.285 1041.09 Q198.479 1041.09 199.322 1041.93 Q200.165 1042.77 200.165 1043.97 Q200.165 1046.01 198.268 1046.71 L129.195 1073.48 Q128.914 1073.62 128.212 1073.62 Q127.509 1073.62 127.228 1073.48 L58.1552 1046.71 Q56.258 1046.01 56.258 1043.97 Q56.258 1042.77 57.1012 1041.93 Q57.9444 1041.09 59.1389 1041.09 Q59.8416 1041.09 60.1227 1041.23 L128.212 1067.72 L196.301 1041.23 Q196.582 1041.09 197.285 1041.09 Z" fill="#000000" fill-rule="nonzero" fill-opacity="1" /><path clip-path="url(#clip580)" d="M81.6703 949.461 L83.6869 950.691 Q80.3914 958.315 75.1284 967.808 Q80.3914 977.301 83.6869 984.925 L81.6703 986.105 Q74.4397 977.793 68.8816 967.808 Q74.4889 957.724 81.6703 949.461 Z" fill="#000000" fill-rule="nonzero" fill-opacity="1" /><path clip-path="url(#clip580)" d="M112.121 945.004 Q115.423 945.004 120.412 945.918 Q125.331 946.831 131.374 948.658 Q137.417 950.415 143.389 953.436 Q149.292 956.388 154.281 960.112 Q159.2 963.836 162.291 969.106 Q165.313 974.376 165.313 980.279 Q165.313 984.284 164.751 987.727 Q164.259 991.1 162.924 994.402 Q161.589 997.705 159.481 1000.02 Q157.302 1002.34 153.93 1003.75 Q150.486 1005.15 146.06 1005.15 Q141.071 1005.15 135.098 1003.4 Q129.125 1001.57 115.985 996.37 Q110.153 994.192 107.342 994.192 Q105.937 994.192 105.234 994.683 Q104.532 995.105 104.461 995.527 Q104.321 995.948 104.321 996.651 Q104.321 997.635 104.602 998.759 Q104.883 999.883 106.007 1001.64 Q107.132 1003.4 108.888 1005.01 Q110.645 1006.63 114.018 1008.39 Q117.32 1010.14 121.747 1011.48 Q122.661 1011.76 123.082 1012.25 Q123.504 1012.74 123.574 1013.23 Q123.574 1013.66 123.574 1014.78 Q123.574 1015.55 123.574 1015.9 Q123.504 1016.26 123.363 1016.96 Q123.223 1017.59 122.801 1017.94 Q122.309 1018.22 121.607 1018.22 Q120.553 1018.22 118.164 1017.38 Q115.704 1016.54 112.472 1014.71 Q109.169 1012.81 106.218 1010.35 Q103.267 1007.82 101.229 1003.96 Q99.1211 1000.09 99.1211 995.808 Q99.1211 989.413 102.634 984.495 Q106.148 979.576 112.121 979.576 Q114.65 979.576 118.585 981.122 Q129.266 985.408 136.292 987.586 Q143.249 989.765 148.941 989.765 Q160.183 989.765 160.183 979.435 Q160.183 974.727 156.881 970.441 Q153.578 966.085 148.87 963.274 Q144.162 960.393 139.033 958.285 Q133.903 956.107 130.32 955.193 Q126.666 954.209 125.471 954.209 Q123.082 954.209 121.044 955.755 Q118.936 957.231 116.407 961.447 Q114.018 965.733 109.942 965.733 Q106.078 965.733 102.564 962.36 Q98.9805 958.988 98.9805 954.772 Q98.9805 954.35 99.0508 953.718 Q99.1211 953.085 99.894 951.399 Q100.597 949.712 101.861 948.447 Q103.056 947.112 105.796 946.058 Q108.467 945.004 112.121 945.004 Z" fill="#000000" fill-rule="nonzero" fill-opacity="1" /><path clip-path="url(#clip580)" d="M161.87 935.385 Q159.551 937.423 156.529 937.423 Q153.508 937.423 151.259 935.455 Q148.941 933.418 148.941 929.764 Q148.941 925.477 153.086 923.018 Q157.162 920.559 164.048 920.559 Q171.496 920.559 178.383 923.58 Q185.339 926.602 188.642 929.553 Q191.944 932.504 191.944 933.699 Q191.944 935.104 190.398 935.104 Q189.836 935.104 188.782 934.12 Q177.68 923.791 164.048 923.721 Q161.87 923.721 161.87 924.002 L162.151 924.353 Q164.189 926.812 164.189 929.764 Q164.189 933.347 161.87 935.385 Z" fill="#000000" fill-rule="nonzero" fill-opacity="1" /><path clip-path="url(#clip580)" d="M112.121 801.93 Q115.423 801.93 120.412 802.844 Q125.331 803.757 131.374 805.584 Q137.417 807.341 143.389 810.362 Q149.292 813.314 154.281 817.038 Q159.2 820.762 162.291 826.032 Q165.313 831.302 165.313 837.205 Q165.313 841.21 164.751 844.653 Q164.259 848.026 162.924 851.328 Q161.589 854.631 159.481 856.95 Q157.302 859.269 153.93 860.674 Q150.486 862.079 146.06 862.079 Q141.071 862.079 135.098 860.323 Q129.125 858.496 115.985 853.296 Q110.153 851.118 107.342 851.118 Q105.937 851.118 105.234 851.609 Q104.532 852.031 104.461 852.453 Q104.321 852.874 104.321 853.577 Q104.321 854.561 104.602 855.685 Q104.883 856.809 106.007 858.566 Q107.132 860.323 108.888 861.939 Q110.645 863.555 114.018 865.312 Q117.32 867.068 121.747 868.403 Q122.661 868.684 123.082 869.176 Q123.504 869.668 123.574 870.16 Q123.574 870.582 123.574 871.706 Q123.574 872.479 123.574 872.83 Q123.504 873.181 123.363 873.884 Q123.223 874.517 122.801 874.868 Q122.309 875.149 121.607 875.149 Q120.553 875.149 118.164 874.306 Q115.704 873.463 112.472 871.636 Q109.169 869.738 106.218 867.279 Q103.267 864.749 101.229 860.885 Q99.1211 857.02 99.1211 852.734 Q99.1211 846.339 102.634 841.421 Q106.148 836.502 112.121 836.502 Q114.65 836.502 118.585 838.048 Q129.266 842.334 136.292 844.512 Q143.249 846.691 148.941 846.691 Q160.183 846.691 160.183 836.361 Q160.183 831.653 156.881 827.367 Q153.578 823.011 148.87 820.2 Q144.162 817.319 139.033 815.211 Q133.903 813.033 130.32 812.119 Q126.666 811.135 125.471 811.135 Q123.082 811.135 121.044 812.681 Q118.936 814.157 116.407 818.373 Q114.018 822.659 109.942 822.659 Q106.078 822.659 102.564 819.286 Q98.9805 815.914 98.9805 811.698 Q98.9805 811.276 99.0508 810.644 Q99.1211 810.011 99.894 808.325 Q100.597 806.638 101.861 805.373 Q103.056 804.038 105.796 802.984 Q108.467 801.93 112.121 801.93 Z" fill="#000000" fill-rule="nonzero" fill-opacity="1" /><path clip-path="url(#clip580)" d="M127.228 762.026 Q127.509 761.885 128.212 761.885 Q128.914 761.885 129.195 762.026 L198.268 788.798 Q200.165 789.5 200.165 791.468 Q200.165 792.662 199.322 793.506 Q198.479 794.349 197.285 794.349 Q196.582 794.349 196.301 794.208 L128.212 767.788 L60.1227 794.208 Q59.8416 794.349 59.1389 794.349 Q57.9444 794.349 57.1012 793.506 Q56.258 792.662 56.258 791.468 Q56.258 789.5 58.1552 788.798 L127.228 762.026 Z" fill="#000000" fill-rule="nonzero" fill-opacity="1" /><path clip-path="url(#clip580)" d="M195.739 738.951 L61.7388 738.951 Q56.3985 738.951 56.3985 736.07 Q56.3985 733.189 60.6848 733.189 L194.685 733.189 Q200.025 733.189 200.025 736.07 Q200.025 738.951 195.739 738.951 Z" fill="#000000" fill-rule="nonzero" fill-opacity="1" /><path clip-path="url(#clip580)" d="M77.3566 717.888 Q75.5367 717.888 74.9956 717.74 Q74.4545 717.543 73.6184 716.756 L52.0744 697.426 Q40.1711 686.851 29.7926 686.851 Q23.054 686.851 18.2336 690.392 Q13.4133 693.884 13.4133 700.328 Q13.4133 704.755 16.1186 708.493 Q18.8239 712.231 23.6442 713.953 Q23.5459 713.658 23.5459 712.625 Q23.5459 710.116 25.1198 708.739 Q26.6938 707.313 28.8089 707.313 Q31.5142 707.313 32.8422 709.083 Q34.1211 710.805 34.1211 712.526 Q34.1211 713.215 33.9735 714.15 Q33.826 715.035 32.4487 716.461 Q31.0223 717.888 28.5138 717.888 Q21.48 717.888 15.8727 712.576 Q10.2653 707.214 10.2653 699.049 Q10.2653 689.802 15.7743 683.752 Q21.2341 677.653 29.7926 677.653 Q32.793 677.653 35.5475 678.587 Q38.2528 679.473 40.3679 680.702 Q42.4829 681.883 45.8768 685.129 Q49.2707 688.375 51.6809 690.982 Q54.0911 693.589 59.2065 699.443 L69.585 710.116 L69.585 691.966 Q69.585 683.112 68.798 682.424 Q67.3716 681.44 59.846 680.21 L59.846 677.653 L77.3566 680.506 L77.3566 717.888 Z" fill="#000000" fill-rule="nonzero" fill-opacity="1" /><path clip-path="url(#clip580)" d="M56.2725 573.377 Q72.2447 582.683 87.8696 587.197 Q103.494 591.711 119.536 591.711 Q135.578 591.711 151.341 587.197 Q167.036 582.613 182.939 573.377 L182.939 584.488 Q166.619 594.905 150.855 600.113 Q135.092 605.252 119.536 605.252 Q104.05 605.252 88.3557 600.113 Q72.6613 594.974 56.2725 584.488 L56.2725 573.377 Z" fill="#000000" fill-rule="nonzero" fill-opacity="1" /><path clip-path="url(#clip580)" d="M74.328 513.378 L125.925 532.405 L125.925 494.281 L74.328 513.378 M60.5086 521.294 L60.5086 505.392 L164.189 465.878 L164.189 480.461 L137.592 489.906 L137.592 536.641 L164.189 546.086 L164.189 560.877 L60.5086 521.294 Z" fill="#000000" fill-rule="nonzero" fill-opacity="1" /><path clip-path="url(#clip580)" d="M86.4112 468.795 L86.4112 455.253 L151.689 430.948 L86.4112 406.642 L86.4112 393.101 L164.189 422.267 L164.189 439.628 L86.4112 468.795 Z" fill="#000000" fill-rule="nonzero" fill-opacity="1" /><path clip-path="url(#clip580)" d="M124.397 324.281 Q110.508 324.281 102.869 330.045 Q95.2306 335.74 95.2306 346.087 Q95.2306 356.365 102.869 362.128 Q110.508 367.823 124.397 367.823 Q138.217 367.823 145.855 362.128 Q153.494 356.365 153.494 346.087 Q153.494 335.74 145.855 330.045 Q138.217 324.281 124.397 324.281 M154.536 311.504 Q174.397 311.504 184.05 320.323 Q193.772 329.143 193.772 347.337 Q193.772 354.073 192.73 360.045 Q191.758 366.017 189.675 371.642 L177.244 371.642 Q180.3 366.017 181.758 360.531 Q183.216 355.045 183.216 349.351 Q183.216 336.781 176.619 330.531 Q170.091 324.281 156.828 324.281 L150.508 324.281 Q157.383 328.24 160.786 334.42 Q164.189 340.601 164.189 349.212 Q164.189 363.517 153.286 372.267 Q142.383 381.017 124.397 381.017 Q106.342 381.017 95.439 372.267 Q84.5363 363.517 84.5363 349.212 Q84.5363 340.601 87.939 334.42 Q91.3418 328.24 98.2167 324.281 L86.4112 324.281 L86.4112 311.504 L154.536 311.504 Z" fill="#000000" fill-rule="nonzero" fill-opacity="1" /><path clip-path="url(#clip580)" d="M56.2725 287.198 L56.2725 276.087 Q72.6613 265.671 88.3557 260.532 Q104.05 255.323 119.536 255.323 Q135.092 255.323 150.855 260.532 Q166.619 265.671 182.939 276.087 L182.939 287.198 Q167.036 277.962 151.341 273.448 Q135.578 268.865 119.536 268.865 Q103.494 268.865 87.8696 273.448 Q72.2447 277.962 56.2725 287.198 Z" fill="#000000" fill-rule="nonzero" fill-opacity="1" /><polyline clip-path="url(#clip581)" style="stroke:#0000ff; stroke-linecap:round; stroke-linejoin:round; stroke-width:12; stroke-opacity:1; fill:none" points="429.903,1304.48 441.571,1304.48 453.238,1304.48 464.906,1304.48 476.574,1304.48 488.242,1304.48 499.91,1304.48 511.577,1304.48 523.245,1304.48 534.913,1304.48 546.581,1304.48 558.249,1304.48 569.916,1304.48 581.584,1304.48 593.252,1304.48 604.92,1304.48 616.588,1304.48 628.255,1304.48 639.923,1304.48 651.591,1304.48 663.259,1304.48 674.927,1304.48 686.594,1304.48 698.262,1304.48 709.93,1304.48 721.598,1304.48 733.266,1304.48 744.933,1304.48 756.601,1304.48 768.269,1304.48 779.937,1304.48 791.605,1304.48 803.272,1304.48 814.94,1304.48 826.608,1304.48 838.276,1304.48 849.944,1304.48 861.611,1304.48 873.279,1304.48 884.947,1304.48 896.615,1304.48 908.283,1245.67 919.95,1191 931.618,1140.1 943.286,1092.64 954.954,1048.3 966.622,1006.83 978.289,967.968 989.957,931.514 1001.62,897.269 1013.29,865.059 1024.96,834.724 1036.63,806.122 1048.3,779.124 1059.96,753.612 1071.63,729.479 1083.3,706.627 1094.97,684.968 1106.64,664.418 1118.3,644.905 1129.97,626.36 1141.64,608.719 1153.31,591.925 1164.97,575.924 1176.64,560.667 1188.31,546.109 1199.98,532.207 1211.65,518.924 1223.31,506.222 1234.98,494.068 1246.65,482.432 1258.32,471.284 1269.98,460.597 1281.65,450.346 1293.32,440.508 1304.99,431.061 1316.66,421.984 1328.32,413.259 1339.99,404.867 1351.66,396.792 1363.33,389.017 1374.99,381.529 1386.66,374.313 1398.33,367.357 1410,360.647 1421.67,354.173 1433.33,347.923 1445,341.887 1456.67,336.057 1468.34,330.421 1480,324.973 1491.67,319.703 1503.34,314.603 1515.01,309.668 1526.68,304.889 1538.34,300.26 1550.01,295.776 1561.68,291.429 1573.35,287.214 1585.01,283.127 1596.68,279.162 1608.35,275.313 1620.02,271.578 1631.69,267.951 1643.35,264.428 1655.02,261.005 1666.69,257.678 1678.36,254.444 1690.03,251.3 1701.69,248.242 1713.36,245.267 1725.03,242.372 1736.7,239.554 1748.36,236.81 1760.03,234.139 1771.7,231.537 1783.37,229.002 1795.04,226.531 1806.7,224.123 1818.37,221.776 1830.04,219.487 1841.71,217.254 1853.37,215.077 1865.04,212.952 1876.71,210.878 1888.38,208.854 1900.05,206.878 1911.71,204.948 1923.38,203.064 1935.05,201.223 1946.72,199.424 1958.38,197.667 1970.05,195.949 1981.72,194.27 1993.39,192.628 2005.06,191.023 2016.72,189.453 2028.39,187.917 2040.06,186.414 2051.73,184.944 2063.39,183.505 2075.06,182.097 2086.73,180.718 2098.4,179.368 2110.07,178.046 2121.73,176.752 2133.4,175.483 2145.07,174.241 2156.74,173.024 2168.4,171.831 2180.07,170.662 2191.74,169.516 2203.41,168.393 2215.08,167.292 2226.74,166.212 2238.41,165.153 2250.08,164.114 2261.75,163.095 2273.41,162.095 2285.08,161.114 2296.75,160.151 "/>
<path clip-path="url(#clip581)" d="M405.903 1247.39 L405.903 1295.39 L453.903 1295.39 L453.903 1247.39 L405.903 1247.39 Z" fill="#ffa500" fill-rule="evenodd" fill-opacity="1" stroke="none"/>
<path clip-path="url(#clip581)" d="M522.581 1232.34 L522.581 1280.34 L570.581 1280.34 L570.581 1232.34 L522.581 1232.34 Z" fill="#ffa500" fill-rule="evenodd" fill-opacity="1" stroke="none"/>
<path clip-path="url(#clip581)" d="M639.259 1213.29 L639.259 1261.29 L687.259 1261.29 L687.259 1213.29 L639.259 1213.29 Z" fill="#ffa500" fill-rule="evenodd" fill-opacity="1" stroke="none"/>
<path clip-path="url(#clip581)" d="M755.937 1132.96 L755.937 1180.96 L803.937 1180.96 L803.937 1132.96 L755.937 1132.96 Z" fill="#ffa500" fill-rule="evenodd" fill-opacity="1" stroke="none"/>
<path clip-path="url(#clip581)" d="M872.615 1015.72 L872.615 1063.72 L920.615 1063.72 L920.615 1015.72 L872.615 1015.72 Z" fill="#ffa500" fill-rule="evenodd" fill-opacity="1" stroke="none"/>
<path clip-path="url(#clip581)" d="M989.293 764.763 L989.293 812.763 L1037.29 812.763 L1037.29 764.763 L989.293 764.763 Z" fill="#ffa500" fill-rule="evenodd" fill-opacity="1" stroke="none"/>
<path clip-path="url(#clip581)" d="M1105.97 698.882 L1105.97 746.882 L1153.97 746.882 L1153.97 698.882 L1105.97 698.882 Z" fill="#ffa500" fill-rule="evenodd" fill-opacity="1" stroke="none"/>
<path clip-path="url(#clip581)" d="M1222.65 484.768 L1222.65 532.768 L1270.65 532.768 L1270.65 484.768 L1222.65 484.768 Z" fill="#ffa500" fill-rule="evenodd" fill-opacity="1" stroke="none"/>
<path clip-path="url(#clip581)" d="M1339.33 363.732 L1339.33 411.732 L1387.33 411.732 L1387.33 363.732 L1339.33 363.732 Z" fill="#ffa500" fill-rule="evenodd" fill-opacity="1" stroke="none"/>
<path clip-path="url(#clip581)" d="M1456 245.288 L1456 293.288 L1504 293.288 L1504 245.288 L1456 245.288 Z" fill="#ffa500" fill-rule="evenodd" fill-opacity="1" stroke="none"/>
<path clip-path="url(#clip581)" d="M1572.68 203.674 L1572.68 251.674 L1620.68 251.674 L1620.68 203.674 L1572.68 203.674 Z" fill="#ffa500" fill-rule="evenodd" fill-opacity="1" stroke="none"/>
<path clip-path="url(#clip581)" d="M1689.36 215.068 L1689.36 263.068 L1737.36 263.068 L1737.36 215.068 L1689.36 215.068 Z" fill="#ffa500" fill-rule="evenodd" fill-opacity="1" stroke="none"/>
<path clip-path="url(#clip581)" d="M1806.04 176.654 L1806.04 224.654 L1854.04 224.654 L1854.04 176.654 L1806.04 176.654 Z" fill="#ffa500" fill-rule="evenodd" fill-opacity="1" stroke="none"/>
<path clip-path="url(#clip581)" d="M1922.72 217.9 L1922.72 265.9 L1970.72 265.9 L1970.72 217.9 L1922.72 217.9 Z" fill="#ffa500" fill-rule="evenodd" fill-opacity="1" stroke="none"/>
<path clip-path="url(#clip581)" d="M2039.39 142.892 L2039.39 190.892 L2087.39 190.892 L2087.39 142.892 L2039.39 142.892 Z" fill="#ffa500" fill-rule="evenodd" fill-opacity="1" stroke="none"/>
<path clip-path="url(#clip581)" d="M2156.07 163.111 L2156.07 211.111 L2204.07 211.111 L2204.07 163.111 L2156.07 163.111 Z" fill="#ffa500" fill-rule="evenodd" fill-opacity="1" stroke="none"/>
<path clip-path="url(#clip581)" d="M2272.75 128.71 L2272.75 176.71 L2320.75 176.71 L2320.75 128.71 L2272.75 128.71 Z" fill="#ffa500" fill-rule="evenodd" fill-opacity="1" stroke="none"/>
<circle clip-path="url(#clip581)" cx="429.903" cy="1300.32" r="21.6" fill="#ff0000" fill-rule="evenodd" fill-opacity="1" stroke="none"/>
<circle clip-path="url(#clip581)" cx="546.581" cy="1299.68" r="21.6" fill="#ff0000" fill-rule="evenodd" fill-opacity="1" stroke="none"/>
<circle clip-path="url(#clip581)" cx="663.259" cy="1295.55" r="21.6" fill="#ff0000" fill-rule="evenodd" fill-opacity="1" stroke="none"/>
<circle clip-path="url(#clip581)" cx="779.937" cy="1280.48" r="21.6" fill="#ff0000" fill-rule="evenodd" fill-opacity="1" stroke="none"/>
<circle clip-path="url(#clip581)" cx="896.615" cy="1157.42" r="21.6" fill="#ff0000" fill-rule="evenodd" fill-opacity="1" stroke="none"/>
<circle clip-path="url(#clip581)" cx="1013.29" cy="884.742" r="21.6" fill="#ff0000" fill-rule="evenodd" fill-opacity="1" stroke="none"/>
<circle clip-path="url(#clip581)" cx="1129.97" cy="647.931" r="21.6" fill="#ff0000" fill-rule="evenodd" fill-opacity="1" stroke="none"/>
<circle clip-path="url(#clip581)" cx="1246.65" cy="483.215" r="21.6" fill="#ff0000" fill-rule="evenodd" fill-opacity="1" stroke="none"/>
<circle clip-path="url(#clip581)" cx="1363.33" cy="389.851" r="21.6" fill="#ff0000" fill-rule="evenodd" fill-opacity="1" stroke="none"/>
<circle clip-path="url(#clip581)" cx="1480" cy="327.15" r="21.6" fill="#ff0000" fill-rule="evenodd" fill-opacity="1" stroke="none"/>
<circle clip-path="url(#clip581)" cx="1596.68" cy="268.524" r="21.6" fill="#ff0000" fill-rule="evenodd" fill-opacity="1" stroke="none"/>
<circle clip-path="url(#clip581)" cx="1713.36" cy="247.014" r="21.6" fill="#ff0000" fill-rule="evenodd" fill-opacity="1" stroke="none"/>
<circle clip-path="url(#clip581)" cx="1830.04" cy="230.812" r="21.6" fill="#ff0000" fill-rule="evenodd" fill-opacity="1" stroke="none"/>
<circle clip-path="url(#clip581)" cx="1946.72" cy="215.418" r="21.6" fill="#ff0000" fill-rule="evenodd" fill-opacity="1" stroke="none"/>
<circle clip-path="url(#clip581)" cx="2063.39" cy="181.687" r="21.6" fill="#ff0000" fill-rule="evenodd" fill-opacity="1" stroke="none"/>
<circle clip-path="url(#clip581)" cx="2180.07" cy="177.337" r="21.6" fill="#ff0000" fill-rule="evenodd" fill-opacity="1" stroke="none"/>
<circle clip-path="url(#clip581)" cx="2296.75" cy="159.92" r="21.6" fill="#ff0000" fill-rule="evenodd" fill-opacity="1" stroke="none"/>
<path clip-path="url(#clip580)" d="M1681.02 1297.97 L2286.79 1297.97 L2286.79 831.411 L1681.02 831.411  Z" fill="#ffffff" fill-rule="evenodd" fill-opacity="1"/>
<polyline clip-path="url(#clip580)" style="stroke:#000000; stroke-linecap:round; stroke-linejoin:round; stroke-width:4; stroke-opacity:1; fill:none" points="1681.02,1297.97 2286.79,1297.97 2286.79,831.411 1681.02,831.411 1681.02,1297.97 "/>
<polyline clip-path="url(#clip580)" style="stroke:#0000ff; stroke-linecap:round; stroke-linejoin:round; stroke-width:27; stroke-opacity:1; fill:none" points="1703.01,948.051 1834.94,948.051 "/>
<path clip-path="url(#clip580)" d="M1873.59 912.036 L1873.59 928.598 L1893.33 928.598 L1893.33 936.046 L1873.59 936.046 L1873.59 967.713 Q1873.59 974.848 1875.52 976.879 Q1877.5 978.911 1883.49 978.911 L1893.33 978.911 L1893.33 986.931 L1883.49 986.931 Q1872.39 986.931 1868.17 982.817 Q1863.95 978.65 1863.95 967.713 L1863.95 936.046 L1856.92 936.046 L1856.92 928.598 L1863.95 928.598 L1863.95 912.036 L1873.59 912.036 Z" fill="#000000" fill-rule="nonzero" fill-opacity="1" /><path clip-path="url(#clip580)" d="M1954.42 951.723 L1954.42 986.931 L1944.84 986.931 L1944.84 952.036 Q1944.84 943.754 1941.61 939.64 Q1938.38 935.525 1931.92 935.525 Q1924.16 935.525 1919.68 940.473 Q1915.2 945.421 1915.2 953.963 L1915.2 986.931 L1905.57 986.931 L1905.57 905.89 L1915.2 905.89 L1915.2 937.661 Q1918.64 932.4 1923.28 929.796 Q1927.96 927.192 1934.06 927.192 Q1944.11 927.192 1949.27 933.442 Q1954.42 939.64 1954.42 951.723 Z" fill="#000000" fill-rule="nonzero" fill-opacity="1" /><path clip-path="url(#clip580)" d="M2023.43 955.369 L2023.43 960.056 L1979.37 960.056 Q1980 969.952 1985.31 975.161 Q1990.67 980.317 2000.2 980.317 Q2005.72 980.317 2010.88 978.963 Q2016.09 977.608 2021.19 974.9 L2021.19 983.963 Q2016.04 986.15 2010.62 987.296 Q2005.2 988.442 1999.63 988.442 Q1985.67 988.442 1977.5 980.317 Q1969.37 972.192 1969.37 958.338 Q1969.37 944.015 1977.08 935.63 Q1984.84 927.192 1997.96 927.192 Q2009.74 927.192 2016.56 934.796 Q2023.43 942.348 2023.43 955.369 M2013.85 952.557 Q2013.75 944.692 2009.42 940.004 Q2005.15 935.317 1998.07 935.317 Q1990.05 935.317 1985.2 939.848 Q1980.41 944.379 1979.68 952.609 L2013.85 952.557 Z" fill="#000000" fill-rule="nonzero" fill-opacity="1" /><path clip-path="url(#clip580)" d="M2061.77 935.317 Q2054.06 935.317 2049.58 941.359 Q2045.1 947.348 2045.1 957.817 Q2045.1 968.286 2049.53 974.327 Q2054.01 980.317 2061.77 980.317 Q2069.42 980.317 2073.9 974.275 Q2078.38 968.234 2078.38 957.817 Q2078.38 947.452 2073.9 941.411 Q2069.42 935.317 2061.77 935.317 M2061.77 927.192 Q2074.27 927.192 2081.4 935.317 Q2088.54 943.442 2088.54 957.817 Q2088.54 972.14 2081.4 980.317 Q2074.27 988.442 2061.77 988.442 Q2049.21 988.442 2042.08 980.317 Q2035 972.14 2035 957.817 Q2035 943.442 2042.08 935.317 Q2049.21 927.192 2061.77 927.192 Z" fill="#000000" fill-rule="nonzero" fill-opacity="1" /><path clip-path="url(#clip580)" d="M2138.22 937.557 Q2136.61 936.619 2134.68 936.202 Q2132.81 935.734 2130.52 935.734 Q2122.39 935.734 2118.02 941.046 Q2113.69 946.307 2113.69 956.202 L2113.69 986.931 L2104.06 986.931 L2104.06 928.598 L2113.69 928.598 L2113.69 937.661 Q2116.71 932.348 2121.56 929.796 Q2126.4 927.192 2133.33 927.192 Q2134.32 927.192 2135.52 927.348 Q2136.71 927.452 2138.17 927.713 L2138.22 937.557 Z" fill="#000000" fill-rule="nonzero" fill-opacity="1" /><path clip-path="url(#clip580)" d="M2172.55 992.348 Q2168.48 1002.76 2164.63 1005.94 Q2160.78 1009.12 2154.32 1009.12 L2146.66 1009.12 L2146.66 1001.1 L2152.29 1001.1 Q2156.24 1001.1 2158.43 999.223 Q2160.62 997.348 2163.28 990.369 L2164.99 985.994 L2141.4 928.598 L2151.56 928.598 L2169.79 974.223 L2188.02 928.598 L2198.17 928.598 L2172.55 992.348 Z" fill="#000000" fill-rule="nonzero" fill-opacity="1" /><path clip-path="url(#clip580)" d="M1715.8 1011.52 L1715.8 1117.86 L1822.14 1117.86 L1822.14 1011.52 L1715.8 1011.52 Z" fill="#ffa500" fill-rule="evenodd" fill-opacity="1" stroke="none"/>
<path clip-path="url(#clip580)" d="M1965.06 1027.51 Q1965.06 1029.04 1964.38 1029.36 Q1963.75 1029.67 1961.64 1029.67 Q1959.16 1029.67 1957.63 1029.88 Q1956.11 1030.04 1955.16 1030.3 Q1954.21 1030.52 1953.63 1031.25 Q1953.1 1031.99 1952.89 1032.62 Q1952.68 1033.2 1952.31 1034.63 L1937.98 1092.12 Q1937.45 1094.07 1937.45 1094.76 Q1937.45 1095.44 1937.87 1095.86 Q1938.35 1096.29 1939.51 1096.5 Q1940.66 1096.65 1941.56 1096.71 Q1942.51 1096.71 1944.46 1096.71 Q1946.88 1096.71 1947.25 1097.13 Q1947.46 1097.39 1947.46 1097.87 Q1947.46 1098.87 1947.04 1099.39 Q1946.62 1099.87 1946.25 1099.97 Q1945.93 1100.03 1945.41 1100.03 Q1943.19 1100.03 1938.66 1099.87 Q1934.13 1099.71 1931.92 1099.71 L1918.53 1100.03 Q1916.95 1100.03 1916.95 1098.71 Q1916.95 1097.71 1917.37 1097.29 Q1917.79 1096.81 1918.27 1096.76 Q1918.74 1096.71 1919.95 1096.71 Q1924.27 1096.71 1926.12 1096.23 Q1928.02 1095.76 1928.54 1094.92 Q1929.12 1094.02 1929.76 1091.6 L1945.2 1029.78 L1945.09 1029.78 L1901.51 1098.08 L1901.19 1098.55 Q1900.88 1098.97 1900.77 1099.13 Q1900.66 1099.24 1900.35 1099.55 Q1900.09 1099.82 1899.77 1099.92 Q1899.51 1100.03 1899.14 1100.03 Q1898.5 1100.03 1898.14 1099.61 Q1897.82 1099.18 1897.71 1098.87 Q1897.66 1098.5 1897.5 1097.55 L1888.23 1030.62 L1888.12 1030.62 L1873.42 1089.43 Q1873 1091.07 1873 1091.91 Q1873 1094.07 1874.53 1095.39 Q1876.11 1096.65 1880.32 1096.71 Q1882.27 1096.71 1882.27 1097.87 Q1882.27 1100.03 1880.32 1100.03 Q1878.53 1100.03 1874.79 1099.87 Q1871.05 1099.71 1869.2 1099.71 Q1867.41 1099.71 1863.77 1099.87 Q1860.19 1100.03 1858.45 1100.03 Q1856.92 1100.03 1856.92 1098.71 Q1856.92 1096.71 1858.87 1096.71 Q1862.04 1096.6 1864.2 1095.97 Q1866.36 1095.34 1867.57 1094.12 Q1868.83 1092.91 1869.41 1091.7 Q1870.05 1090.44 1870.52 1088.59 L1884.22 1033.62 Q1884.64 1031.89 1884.64 1031.62 Q1884.64 1030.73 1884.12 1030.41 Q1883.64 1030.04 1882.27 1029.88 Q1879.64 1029.67 1877.63 1029.67 Q1876.32 1029.67 1875.79 1029.62 Q1875.32 1029.57 1874.89 1029.3 Q1874.53 1028.99 1874.53 1028.35 Q1874.53 1027.35 1874.95 1026.93 Q1875.42 1026.46 1875.95 1026.4 Q1876.48 1026.3 1877.74 1026.3 L1892.55 1026.3 Q1894.71 1026.3 1895.18 1026.67 Q1895.66 1026.98 1895.87 1028.78 L1904.3 1089.86 L1943.72 1028.35 Q1944.72 1026.83 1945.25 1026.56 Q1945.78 1026.3 1947.88 1026.3 L1962.17 1026.3 Q1963.33 1026.3 1963.8 1026.35 Q1964.27 1026.4 1964.64 1026.67 Q1965.06 1026.93 1965.06 1027.51 Z" fill="#000000" fill-rule="nonzero" fill-opacity="1" /><path clip-path="url(#clip580)" d="M1990.52 1083.64 Q1990.63 1082.32 1992.68 1082.32 L2058.82 1082.32 Q2061.93 1082.32 2061.98 1083.53 Q2061.98 1084.85 2059.03 1084.8 L1993.42 1084.8 Q1990.52 1084.85 1990.52 1083.64 M1990.52 1062.56 Q1990.52 1061.24 1992.79 1061.29 L2058.72 1061.29 Q2061.93 1061.29 2061.98 1062.56 Q2061.98 1063.77 2059.24 1063.77 L1992.68 1063.77 Q1990.52 1063.77 1990.52 1062.56 Z" fill="#000000" fill-rule="nonzero" fill-opacity="1" /><path clip-path="url(#clip580)" d="M2103.61 1085.48 Q2103.61 1082.27 2105.45 1080.74 Q2107.3 1079.21 2109.67 1079.21 Q2112.14 1079.21 2113.88 1080.84 Q2115.68 1082.43 2115.68 1085.22 Q2115.68 1088.22 2113.57 1089.91 Q2111.51 1091.6 2108.56 1091.17 Q2111.14 1095.5 2115.89 1097.44 Q2120.68 1099.39 2125.11 1099.39 Q2129.75 1099.39 2133.49 1095.39 Q2137.28 1091.38 2137.28 1081.58 Q2137.28 1073.26 2134.01 1068.46 Q2130.8 1063.66 2124.42 1063.66 L2119.68 1063.66 Q2118.05 1063.66 2117.57 1063.51 Q2117.1 1063.35 2117.1 1062.45 Q2117.1 1061.4 2118.73 1061.19 Q2120.37 1061.19 2122.95 1060.87 Q2129.22 1060.66 2132.54 1055.23 Q2135.54 1050.17 2135.54 1042.95 Q2135.54 1036.37 2132.38 1033.62 Q2129.27 1030.83 2125.21 1030.83 Q2121.42 1030.83 2117.26 1032.41 Q2113.09 1033.99 2110.83 1037.52 Q2117.52 1037.52 2117.52 1042.95 Q2117.52 1045.32 2115.99 1046.91 Q2114.52 1048.43 2112.04 1048.43 Q2109.67 1048.43 2108.09 1046.96 Q2106.51 1045.43 2106.51 1042.85 Q2106.51 1036.68 2111.99 1032.41 Q2117.52 1028.14 2125.64 1028.14 Q2133.65 1028.14 2139.55 1032.36 Q2145.5 1036.58 2145.5 1043.06 Q2145.5 1049.43 2141.29 1054.65 Q2137.07 1059.87 2130.38 1062.03 Q2138.6 1063.66 2143.5 1069.25 Q2148.4 1074.78 2148.4 1081.58 Q2148.4 1090.01 2141.76 1096.23 Q2135.12 1102.4 2125.42 1102.4 Q2116.47 1102.4 2110.04 1097.55 Q2103.61 1092.7 2103.61 1085.48 Z" fill="#000000" fill-rule="nonzero" fill-opacity="1" /><path clip-path="url(#clip580)" d="M2157.48 1065.51 Q2157.48 1049.65 2161.49 1041 Q2167.08 1028.14 2180.25 1028.14 Q2183.04 1028.14 2185.94 1028.93 Q2188.89 1029.67 2192.58 1032.57 Q2196.32 1035.47 2198.59 1040.21 Q2202.91 1049.38 2202.91 1065.51 Q2202.91 1081.27 2198.91 1089.86 Q2193.06 1102.4 2180.15 1102.4 Q2175.3 1102.4 2170.34 1099.92 Q2165.44 1097.44 2162.33 1091.49 Q2157.48 1082.58 2157.48 1065.51 M2166.44 1064.19 Q2166.44 1080.48 2167.6 1086.96 Q2168.92 1093.97 2172.5 1097.02 Q2176.14 1100.03 2180.15 1100.03 Q2184.47 1100.03 2188.05 1096.81 Q2191.69 1093.55 2192.79 1086.54 Q2194.01 1079.63 2193.95 1064.19 Q2193.95 1049.17 2192.9 1043.16 Q2191.48 1036.15 2187.68 1033.36 Q2183.94 1030.52 2180.15 1030.52 Q2178.72 1030.52 2177.19 1030.94 Q2175.72 1031.36 2173.56 1032.57 Q2171.4 1033.78 2169.71 1036.79 Q2168.08 1039.79 2167.29 1044.32 Q2166.44 1050.17 2166.44 1064.19 Z" fill="#000000" fill-rule="nonzero" fill-opacity="1" /><circle clip-path="url(#clip580)" cx="1768.97" cy="1181.33" r="47.8523" fill="#ff0000" fill-rule="evenodd" fill-opacity="1" stroke="none"/>
<path clip-path="url(#clip580)" d="M1965.06 1144.15 Q1965.06 1145.68 1964.38 1146 Q1963.75 1146.31 1961.64 1146.31 Q1959.16 1146.31 1957.63 1146.52 Q1956.11 1146.68 1955.16 1146.94 Q1954.21 1147.16 1953.63 1147.89 Q1953.1 1148.63 1952.89 1149.26 Q1952.68 1149.84 1952.31 1151.27 L1937.98 1208.76 Q1937.45 1210.71 1937.45 1211.4 Q1937.45 1212.08 1937.87 1212.5 Q1938.35 1212.93 1939.51 1213.14 Q1940.66 1213.29 1941.56 1213.35 Q1942.51 1213.35 1944.46 1213.35 Q1946.88 1213.35 1947.25 1213.77 Q1947.46 1214.03 1947.46 1214.51 Q1947.46 1215.51 1947.04 1216.03 Q1946.62 1216.51 1946.25 1216.61 Q1945.93 1216.67 1945.41 1216.67 Q1943.19 1216.67 1938.66 1216.51 Q1934.13 1216.35 1931.92 1216.35 L1918.53 1216.67 Q1916.95 1216.67 1916.95 1215.35 Q1916.95 1214.35 1917.37 1213.93 Q1917.79 1213.45 1918.27 1213.4 Q1918.74 1213.35 1919.95 1213.35 Q1924.27 1213.35 1926.12 1212.87 Q1928.02 1212.4 1928.54 1211.56 Q1929.12 1210.66 1929.76 1208.24 L1945.2 1146.42 L1945.09 1146.42 L1901.51 1214.72 L1901.19 1215.19 Q1900.88 1215.61 1900.77 1215.77 Q1900.66 1215.88 1900.35 1216.19 Q1900.09 1216.46 1899.77 1216.56 Q1899.51 1216.67 1899.14 1216.67 Q1898.5 1216.67 1898.14 1216.25 Q1897.82 1215.82 1897.71 1215.51 Q1897.66 1215.14 1897.5 1214.19 L1888.23 1147.26 L1888.12 1147.26 L1873.42 1206.07 Q1873 1207.71 1873 1208.55 Q1873 1210.71 1874.53 1212.03 Q1876.11 1213.29 1880.32 1213.35 Q1882.27 1213.35 1882.27 1214.51 Q1882.27 1216.67 1880.32 1216.67 Q1878.53 1216.67 1874.79 1216.51 Q1871.05 1216.35 1869.2 1216.35 Q1867.41 1216.35 1863.77 1216.51 Q1860.19 1216.67 1858.45 1216.67 Q1856.92 1216.67 1856.92 1215.35 Q1856.92 1213.35 1858.87 1213.35 Q1862.04 1213.24 1864.2 1212.61 Q1866.36 1211.98 1867.57 1210.76 Q1868.83 1209.55 1869.41 1208.34 Q1870.05 1207.08 1870.52 1205.23 L1884.22 1150.26 Q1884.64 1148.53 1884.64 1148.26 Q1884.64 1147.37 1884.12 1147.05 Q1883.64 1146.68 1882.27 1146.52 Q1879.64 1146.31 1877.63 1146.31 Q1876.32 1146.31 1875.79 1146.26 Q1875.32 1146.21 1874.89 1145.94 Q1874.53 1145.63 1874.53 1144.99 Q1874.53 1143.99 1874.95 1143.57 Q1875.42 1143.1 1875.95 1143.04 Q1876.48 1142.94 1877.74 1142.94 L1892.55 1142.94 Q1894.71 1142.94 1895.18 1143.31 Q1895.66 1143.62 1895.87 1145.42 L1904.3 1206.5 L1943.72 1144.99 Q1944.72 1143.47 1945.25 1143.2 Q1945.78 1142.94 1947.88 1142.94 L1962.17 1142.94 Q1963.33 1142.94 1963.8 1142.99 Q1964.27 1143.04 1964.64 1143.31 Q1965.06 1143.57 1965.06 1144.15 Z" fill="#000000" fill-rule="nonzero" fill-opacity="1" /><path clip-path="url(#clip580)" d="M1990.52 1200.28 Q1990.63 1198.96 1992.68 1198.96 L2058.82 1198.96 Q2061.93 1198.96 2061.98 1200.17 Q2061.98 1201.49 2059.03 1201.44 L1993.42 1201.44 Q1990.52 1201.49 1990.52 1200.28 M1990.52 1179.2 Q1990.52 1177.88 1992.79 1177.93 L2058.72 1177.93 Q2061.93 1177.93 2061.98 1179.2 Q2061.98 1180.41 2059.24 1180.41 L1992.68 1180.41 Q1990.52 1180.41 1990.52 1179.2 Z" fill="#000000" fill-rule="nonzero" fill-opacity="1" /><path clip-path="url(#clip580)" d="M2103.61 1202.12 Q2103.61 1198.91 2105.45 1197.38 Q2107.3 1195.85 2109.67 1195.85 Q2112.14 1195.85 2113.88 1197.48 Q2115.68 1199.07 2115.68 1201.86 Q2115.68 1204.86 2113.57 1206.55 Q2111.51 1208.24 2108.56 1207.81 Q2111.14 1212.14 2115.89 1214.08 Q2120.68 1216.03 2125.11 1216.03 Q2129.75 1216.03 2133.49 1212.03 Q2137.28 1208.02 2137.28 1198.22 Q2137.28 1189.9 2134.01 1185.1 Q2130.8 1180.3 2124.42 1180.3 L2119.68 1180.3 Q2118.05 1180.3 2117.57 1180.15 Q2117.1 1179.99 2117.1 1179.09 Q2117.1 1178.04 2118.73 1177.83 Q2120.37 1177.83 2122.95 1177.51 Q2129.22 1177.3 2132.54 1171.87 Q2135.54 1166.81 2135.54 1159.59 Q2135.54 1153.01 2132.38 1150.26 Q2129.27 1147.47 2125.21 1147.47 Q2121.42 1147.47 2117.26 1149.05 Q2113.09 1150.63 2110.83 1154.16 Q2117.52 1154.16 2117.52 1159.59 Q2117.52 1161.96 2115.99 1163.55 Q2114.52 1165.07 2112.04 1165.07 Q2109.67 1165.07 2108.09 1163.6 Q2106.51 1162.07 2106.51 1159.49 Q2106.51 1153.32 2111.99 1149.05 Q2117.52 1144.78 2125.64 1144.78 Q2133.65 1144.78 2139.55 1149 Q2145.5 1153.22 2145.5 1159.7 Q2145.5 1166.07 2141.29 1171.29 Q2137.07 1176.51 2130.38 1178.67 Q2138.6 1180.3 2143.5 1185.89 Q2148.4 1191.42 2148.4 1198.22 Q2148.4 1206.65 2141.76 1212.87 Q2135.12 1219.04 2125.42 1219.04 Q2116.47 1219.04 2110.04 1214.19 Q2103.61 1209.34 2103.61 1202.12 Z" fill="#000000" fill-rule="nonzero" fill-opacity="1" /><path clip-path="url(#clip580)" d="M2157.48 1182.15 Q2157.48 1166.29 2161.49 1157.64 Q2167.08 1144.78 2180.25 1144.78 Q2183.04 1144.78 2185.94 1145.57 Q2188.89 1146.31 2192.58 1149.21 Q2196.32 1152.11 2198.59 1156.85 Q2202.91 1166.02 2202.91 1182.15 Q2202.91 1197.91 2198.91 1206.5 Q2193.06 1219.04 2180.15 1219.04 Q2175.3 1219.04 2170.34 1216.56 Q2165.44 1214.08 2162.33 1208.13 Q2157.48 1199.22 2157.48 1182.15 M2166.44 1180.83 Q2166.44 1197.12 2167.6 1203.6 Q2168.92 1210.61 2172.5 1213.66 Q2176.14 1216.67 2180.15 1216.67 Q2184.47 1216.67 2188.05 1213.45 Q2191.69 1210.19 2192.79 1203.18 Q2194.01 1196.27 2193.95 1180.83 Q2193.95 1165.81 2192.9 1159.8 Q2191.48 1152.79 2187.68 1150 Q2183.94 1147.16 2180.15 1147.16 Q2178.72 1147.16 2177.19 1147.58 Q2175.72 1148 2173.56 1149.21 Q2171.4 1150.42 2169.71 1153.43 Q2168.08 1156.43 2167.29 1160.96 Q2166.44 1166.81 2166.44 1180.83 Z" fill="#000000" fill-rule="nonzero" fill-opacity="1" /><path clip-path="url(#clip580)" d="M2211.36 1182.15 Q2211.36 1166.29 2215.37 1157.64 Q2220.95 1144.78 2234.13 1144.78 Q2236.92 1144.78 2239.82 1145.57 Q2242.77 1146.31 2246.46 1149.21 Q2250.2 1152.11 2252.47 1156.85 Q2256.79 1166.02 2256.79 1182.15 Q2256.79 1197.91 2252.78 1206.5 Q2246.93 1219.04 2234.02 1219.04 Q2229.17 1219.04 2224.22 1216.56 Q2219.32 1214.08 2216.21 1208.13 Q2211.36 1199.22 2211.36 1182.15 M2220.32 1180.83 Q2220.32 1197.12 2221.48 1203.6 Q2222.8 1210.61 2226.38 1213.66 Q2230.02 1216.67 2234.02 1216.67 Q2238.34 1216.67 2241.93 1213.45 Q2245.56 1210.19 2246.67 1203.18 Q2247.88 1196.27 2247.83 1180.83 Q2247.83 1165.81 2246.78 1159.8 Q2245.35 1152.79 2241.56 1150 Q2237.82 1147.16 2234.02 1147.16 Q2232.6 1147.16 2231.07 1147.58 Q2229.6 1148 2227.43 1149.21 Q2225.27 1150.42 2223.59 1153.43 Q2221.95 1156.43 2221.16 1160.96 Q2220.32 1166.81 2220.32 1180.83 Z" fill="#000000" fill-rule="nonzero" fill-opacity="1" /></svg>
