<?xml version="1.0" encoding="utf-8"?>
<svg xmlns="http://www.w3.org/2000/svg" xmlns:xlink="http://www.w3.org/1999/xlink" width="400" height="400" viewBox="0 0 1600 1600">
<defs>
  <clipPath id="clip290">
    <rect x="0" y="0" width="1600" height="1600"/>
  </clipPath>
</defs>
<path clip-path="url(#clip290)" d="M0 1600 L1600 1600 L1600 0 L0 0  Z" fill="#ffffff" fill-rule="evenodd" fill-opacity="1"/>
<defs>
  <clipPath id="clip291">
    <rect x="237" y="47" width="1316" height="1329"/>
  </clipPath>
</defs>
<path clip-path="url(#clip290)" d="M237.309 1375.66 L1552.76 1375.66 L1552.76 47.2441 L237.309 47.2441  Z" fill="#ffffff" fill-rule="evenodd" fill-opacity="1"/>
<polyline clip-path="url(#clip291)" style="stroke:#000000; stroke-linecap:round; stroke-linejoin:round; stroke-width:2; stroke-opacity:0.1; fill:none" points="274.538,1375.66 274.538,47.2441 "/>
<polyline clip-path="url(#clip291)" style="stroke:#000000; stroke-linecap:round; stroke-linejoin:round; stroke-width:2; stroke-opacity:0.1; fill:none" points="1515.53,1375.66 1515.53,47.2441 "/>
<polyline clip-path="url(#clip291)" style="stroke:#000000; stroke-linecap:round; stroke-linejoin:round; stroke-width:2; stroke-opacity:0.1; fill:none" points="237.309,1338.06 1552.76,1338.06 "/>
<polyline clip-path="url(#clip291)" style="stroke:#000000; stroke-linecap:round; stroke-linejoin:round; stroke-width:2; stroke-opacity:0.1; fill:none" points="237.309,84.8408 1552.76,84.8408 "/>
<polyline clip-path="url(#clip290)" style="stroke:#000000; stroke-linecap:round; stroke-linejoin:round; stroke-width:4; stroke-opacity:1; fill:none" points="237.309,711.452 1552.76,711.452 "/>
<polyline clip-path="url(#clip290)" style="stroke:#000000; stroke-linecap:round; stroke-linejoin:round; stroke-width:4; stroke-opacity:1; fill:none" points="274.538,730.35 274.538,692.554 "/>
<polyline clip-path="url(#clip290)" style="stroke:#000000; stroke-linecap:round; stroke-linejoin:round; stroke-width:4; stroke-opacity:1; fill:none" points="1515.53,730.35 1515.53,692.554 "/>
<path clip-path="url(#clip290)" d="M229.174 763.809 L273.688 763.809 L273.688 769.712 L229.174 769.712 L229.174 763.809 Z" fill="#000000" fill-rule="nonzero" fill-opacity="1" /><path clip-path="url(#clip290)" d="M290.042 783.149 L301.5 783.149 L301.5 743.601 L289.035 746.101 L289.035 739.712 L301.431 737.212 L308.445 737.212 L308.445 783.149 L319.903 783.149 L319.903 789.052 L290.042 789.052 L290.042 783.149 Z" fill="#000000" fill-rule="nonzero" fill-opacity="1" /><path clip-path="url(#clip290)" d="M1501.1 783.149 L1512.56 783.149 L1512.56 743.601 L1500.09 746.101 L1500.09 739.712 L1512.49 737.212 L1519.5 737.212 L1519.5 783.149 L1530.96 783.149 L1530.96 789.052 L1501.1 789.052 L1501.1 783.149 Z" fill="#000000" fill-rule="nonzero" fill-opacity="1" /><path clip-path="url(#clip290)" d="M853.273 1502.69 Q854.778 1503.2 856.19 1504.86 Q857.625 1506.53 859.06 1509.45 L863.806 1518.89 L858.783 1518.89 L854.361 1510.03 Q852.648 1506.55 851.028 1505.42 Q849.431 1504.29 846.653 1504.29 L841.56 1504.29 L841.56 1518.89 L836.885 1518.89 L836.885 1484.33 L847.44 1484.33 Q853.366 1484.33 856.283 1486.81 Q859.199 1489.29 859.199 1494.29 Q859.199 1497.55 857.671 1499.7 Q856.167 1501.85 853.273 1502.69 M841.56 1488.17 L841.56 1500.44 L847.44 1500.44 Q850.82 1500.44 852.533 1498.89 Q854.269 1497.32 854.269 1494.29 Q854.269 1491.25 852.533 1489.73 Q850.82 1488.17 847.44 1488.17 L841.56 1488.17 Z" fill="#000000" fill-rule="nonzero" fill-opacity="1" /><path clip-path="url(#clip290)" d="M889.685 1504.86 L889.685 1506.95 L870.102 1506.95 Q870.38 1511.35 872.741 1513.66 Q875.125 1515.95 879.361 1515.95 Q881.815 1515.95 884.107 1515.35 Q886.421 1514.75 888.69 1513.54 L888.69 1517.57 Q886.398 1518.54 883.991 1519.05 Q881.583 1519.56 879.107 1519.56 Q872.903 1519.56 869.269 1515.95 Q865.658 1512.34 865.658 1506.18 Q865.658 1499.82 869.083 1496.09 Q872.532 1492.34 878.366 1492.34 Q883.597 1492.34 886.63 1495.72 Q889.685 1499.08 889.685 1504.86 M885.426 1503.61 Q885.38 1500.12 883.458 1498.04 Q881.56 1495.95 878.412 1495.95 Q874.847 1495.95 872.695 1497.97 Q870.565 1499.98 870.241 1503.64 L885.426 1503.61 Z" fill="#000000" fill-rule="nonzero" fill-opacity="1" /><path clip-path="url(#clip290)" d="M906.907 1482.92 Q903.805 1488.24 902.301 1493.45 Q900.796 1498.66 900.796 1504.01 Q900.796 1509.35 902.301 1514.61 Q903.829 1519.84 906.907 1525.14 L903.204 1525.14 Q899.731 1519.7 897.995 1514.45 Q896.282 1509.19 896.282 1504.01 Q896.282 1498.85 897.995 1493.61 Q899.708 1488.38 903.204 1482.92 L906.907 1482.92 Z" fill="#000000" fill-rule="nonzero" fill-opacity="1" /><path clip-path="url(#clip290)" d="M925.379 1486.92 L937.347 1518.89 L932.833 1518.89 L925.565 1499.73 L916.629 1518.89 L912.116 1518.89 L923.481 1494.03 L921.768 1489.45 Q920.68 1486.53 918.204 1486.53 L915.981 1486.53 L915.981 1482.87 L918.69 1482.92 Q923.921 1482.99 925.379 1486.92 Z" fill="#000000" fill-rule="nonzero" fill-opacity="1" /><path clip-path="url(#clip290)" d="M942.555 1482.92 L946.259 1482.92 Q949.731 1488.38 951.444 1493.61 Q953.18 1498.85 953.18 1504.01 Q953.18 1509.19 951.444 1514.45 Q949.731 1519.7 946.259 1525.14 L942.555 1525.14 Q945.634 1519.84 947.139 1514.61 Q948.666 1509.35 948.666 1504.01 Q948.666 1498.66 947.139 1493.45 Q945.634 1488.24 942.555 1482.92 Z" fill="#000000" fill-rule="nonzero" fill-opacity="1" /><polyline clip-path="url(#clip290)" style="stroke:#000000; stroke-linecap:round; stroke-linejoin:round; stroke-width:4; stroke-opacity:1; fill:none" points="895.032,1375.66 895.032,47.2441 "/>
<polyline clip-path="url(#clip290)" style="stroke:#000000; stroke-linecap:round; stroke-linejoin:round; stroke-width:4; stroke-opacity:1; fill:none" points="876.135,1338.06 913.93,1338.06 "/>
<polyline clip-path="url(#clip290)" style="stroke:#000000; stroke-linecap:round; stroke-linejoin:round; stroke-width:4; stroke-opacity:1; fill:none" points="876.135,84.8408 913.93,84.8408 "/>
<path clip-path="url(#clip290)" d="M780.304 1338.74 L824.817 1338.74 L824.817 1344.64 L780.304 1344.64 L780.304 1338.74 Z" fill="#000000" fill-rule="nonzero" fill-opacity="1" /><path clip-path="url(#clip290)" d="M841.171 1358.08 L852.63 1358.08 L852.63 1318.53 L840.164 1321.03 L840.164 1314.64 L852.56 1312.14 L859.574 1312.14 L859.574 1358.08 L871.032 1358.08 L871.032 1363.98 L841.171 1363.98 L841.171 1358.08 Z" fill="#000000" fill-rule="nonzero" fill-opacity="1" /><path clip-path="url(#clip290)" d="M841.171 104.858 L852.63 104.858 L852.63 65.3096 L840.164 67.8096 L840.164 61.4208 L852.56 58.9208 L859.574 58.9208 L859.574 104.858 L871.032 104.858 L871.032 110.761 L841.171 110.761 L841.171 104.858 Z" fill="#000000" fill-rule="nonzero" fill-opacity="1" /><path clip-path="url(#clip290)" d="M53.6522 769.692 L53.6522 765.016 L88.2122 765.016 L88.2122 769.692 L53.6522 769.692 Z" fill="#000000" fill-rule="nonzero" fill-opacity="1" /><path clip-path="url(#clip290)" d="M67.2632 735.711 Q64.3928 734.114 63.0271 731.892 Q61.6614 729.669 61.6614 726.66 Q61.6614 722.609 64.5086 720.41 Q67.3326 718.211 72.5641 718.211 L88.2122 718.211 L88.2122 722.494 L72.703 722.494 Q68.9761 722.494 67.1706 723.813 Q65.3651 725.132 65.3651 727.841 Q65.3651 731.151 67.5641 733.072 Q69.7632 734.994 73.5595 734.994 L88.2122 734.994 L88.2122 739.276 L72.703 739.276 Q68.953 739.276 67.1706 740.595 Q65.3651 741.915 65.3651 744.669 Q65.3651 747.933 67.5873 749.855 Q69.7863 751.776 73.5595 751.776 L88.2122 751.776 L88.2122 756.058 L62.2864 756.058 L62.2864 751.776 L66.3141 751.776 Q63.9299 750.318 62.7956 748.28 Q61.6614 746.243 61.6614 743.443 Q61.6614 740.618 63.0966 738.651 Q64.5317 736.66 67.2632 735.711 Z" fill="#000000" fill-rule="nonzero" fill-opacity="1" /><path clip-path="url(#clip290)" d="M52.2401 699.484 Q57.5642 702.586 62.7725 704.091 Q67.9808 705.596 73.328 705.596 Q78.6752 705.596 83.9298 704.091 Q89.1612 702.563 94.4621 699.484 L94.4621 703.188 Q89.0223 706.66 83.7677 708.396 Q78.5131 710.109 73.328 710.109 Q68.166 710.109 62.9345 708.396 Q57.7031 706.683 52.2401 703.188 L52.2401 699.484 Z" fill="#000000" fill-rule="nonzero" fill-opacity="1" /><path clip-path="url(#clip290)" d="M56.2447 681.012 L88.2122 669.045 L88.2122 673.559 L69.0456 680.827 L88.2122 689.762 L88.2122 694.276 L63.3512 682.91 L58.7679 684.623 Q55.8512 685.711 55.8512 688.188 L55.8512 690.41 L52.1938 690.41 L52.2401 687.702 Q52.3096 682.471 56.2447 681.012 Z" fill="#000000" fill-rule="nonzero" fill-opacity="1" /><path clip-path="url(#clip290)" d="M52.2401 663.836 L52.2401 660.133 Q57.7031 656.661 62.9345 654.948 Q68.166 653.212 73.328 653.212 Q78.5131 653.212 83.7677 654.948 Q89.0223 656.661 94.4621 660.133 L94.4621 663.836 Q89.1612 660.758 83.9298 659.253 Q78.6752 657.725 73.328 657.725 Q67.9808 657.725 62.7725 659.253 Q57.5642 660.758 52.2401 663.836 Z" fill="#000000" fill-rule="nonzero" fill-opacity="1" /><circle clip-path="url(#clip291)" cx="564.57" cy="711.452" r="14.4" fill="#0000ff" fill-rule="evenodd" fill-opacity="1" stroke="none"/>
<circle clip-path="url(#clip291)" cx="750.017" cy="1234.38" r="14.4" fill="#0000ff" fill-rule="evenodd" fill-opacity="1" stroke="none"/>
<circle clip-path="url(#clip291)" cx="750.017" cy="188.526" r="14.4" fill="#0000ff" fill-rule="evenodd" fill-opacity="1" stroke="none"/>
<circle clip-path="url(#clip291)" cx="1515.53" cy="711.452" r="14.4" fill="#0000ff" fill-rule="evenodd" fill-opacity="1" stroke="none"/>
<polyline clip-path="url(#clip291)" style="stroke:#000000; stroke-linecap:round; stroke-linejoin:round; stroke-width:4; stroke-opacity:1; fill:none" points="1515.53,711.452 1515.39,698.329 1514.98,685.212 1514.3,672.107 1513.35,659.018 1512.13,645.953 1510.63,632.917 1508.87,619.915 1506.84,606.953 1504.54,594.037 1501.97,581.172 1499.13,568.365 1496.03,555.62 1492.67,542.944 1489.04,530.341 1485.16,517.818 1481.01,505.38 1476.61,493.033 1471.95,480.781 1467.04,468.63 1461.88,456.586 1456.47,444.654 1450.82,432.839 1444.92,421.145 1438.78,409.58 1432.4,398.146 1425.78,386.85 1418.93,375.697 1411.85,364.691 1404.55,353.836 1397.02,343.139 1389.27,332.603 1381.31,322.234 1373.13,312.035 1364.74,302.011 1356.15,292.167 1347.35,282.507 1338.36,273.035 1329.17,263.755 1319.79,254.672 1310.22,245.789 1300.48,237.11 1290.55,228.64 1280.45,220.381 1270.18,212.337 1259.75,204.513 1249.16,196.911 1238.41,189.534 1227.51,182.387 1216.46,175.471 1205.28,168.791 1193.96,162.348 1182.5,156.147 1170.93,150.189 1159.23,144.477 1147.41,139.014 1135.48,133.802 1123.45,128.844 1111.32,124.141 1099.09,119.695 1086.78,115.509 1074.37,111.585 1061.9,107.924 1049.34,104.527 1036.72,101.397 1024.04,98.5337 1011.3,95.9398 998.511,93.6158 985.676,91.5628 972.801,89.7818 959.892,88.2734 946.954,87.0384 933.994,86.0772 921.016,85.3904 908.027,84.9782 895.032,84.8408 882.038,84.9782 869.049,85.3904 856.071,86.0772 843.111,87.0384 830.173,88.2734 817.264,89.7818 804.389,91.5628 791.553,93.6158 778.763,95.9398 766.024,98.5337 753.342,101.397 740.722,104.527 728.169,107.924 715.69,111.585 703.289,115.509 690.973,119.695 678.746,124.141 666.613,128.844 654.581,133.802 642.655,139.014 630.839,144.477 619.139,150.189 607.56,156.147 596.107,162.348 584.785,168.791 573.6,175.471 562.555,182.387 551.656,189.534 540.908,196.911 530.315,204.513 519.882,212.337 509.614,220.381 499.515,228.64 489.589,237.11 479.841,245.789 470.275,254.672 460.896,263.755 451.706,273.035 442.712,282.507 433.916,292.167 425.322,302.011 416.934,312.035 408.755,322.234 400.79,332.603 393.042,343.139 385.514,353.836 378.21,364.691 371.132,375.697 364.284,386.85 357.669,398.146 351.289,409.58 345.148,421.145 339.249,432.839 333.593,444.654 328.183,456.586 323.022,468.63 318.112,480.781 313.455,493.033 309.053,505.38 304.908,517.818 301.021,530.341 297.396,542.944 294.032,555.62 290.933,568.365 288.098,581.172 285.529,594.037 283.228,606.953 281.195,619.915 279.431,632.917 277.938,645.953 276.715,659.018 275.763,672.107 275.083,685.212 274.675,698.329 274.538,711.452 274.675,724.575 275.083,737.692 275.763,750.797 276.715,763.885 277.938,776.951 279.431,789.987 281.195,802.989 283.228,815.951 285.529,828.867 288.098,841.732 290.933,854.539 294.032,867.284 297.396,879.96 301.021,892.563 304.908,905.085 309.053,917.523 313.455,929.871 318.112,942.123 323.022,954.274 328.183,966.318 333.593,978.25 339.249,990.065 345.148,1001.76 351.289,1013.32 357.669,1024.76 364.284,1036.05 371.132,1047.21 378.21,1058.21 385.514,1069.07 393.042,1079.76 400.79,1090.3 408.755,1100.67 416.934,1110.87 425.322,1120.89 433.916,1130.74 442.712,1140.4 451.706,1149.87 460.896,1159.15 470.275,1168.23 479.841,1177.11 489.589,1185.79 499.515,1194.26 509.614,1202.52 519.882,1210.57 530.315,1218.39 540.908,1225.99 551.656,1233.37 562.555,1240.52 573.6,1247.43 584.785,1254.11 596.107,1260.56 607.56,1266.76 619.139,1272.71 630.839,1278.43 642.655,1283.89 654.581,1289.1 666.613,1294.06 678.746,1298.76 690.973,1303.21 703.289,1307.39 715.69,1311.32 728.169,1314.98 740.722,1318.38 753.342,1321.51 766.024,1324.37 778.763,1326.96 791.553,1329.29 804.389,1331.34 817.264,1333.12 830.173,1334.63 843.111,1335.87 856.071,1336.83 869.049,1337.51 882.038,1337.93 895.032,1338.06 908.027,1337.93 921.016,1337.51 933.994,1336.83 946.954,1335.87 959.892,1334.63 972.801,1333.12 985.676,1331.34 998.511,1329.29 1011.3,1326.96 1024.04,1324.37 1036.72,1321.51 1049.34,1318.38 1061.9,1314.98 1074.37,1311.32 1086.78,1307.39 1099.09,1303.21 1111.32,1298.76 1123.45,1294.06 1135.48,1289.1 1147.41,1283.89 1159.23,1278.43 1170.93,1272.71 1182.5,1266.76 1193.96,1260.56 1205.28,1254.11 1216.46,1247.43 1227.51,1240.52 1238.41,1233.37 1249.16,1225.99 1259.75,1218.39 1270.18,1210.57 1280.45,1202.52 1290.55,1194.26 1300.48,1185.79 1310.22,1177.11 1319.79,1168.23 1329.17,1159.15 1338.36,1149.87 1347.35,1140.4 1356.15,1130.74 1364.74,1120.89 1373.13,1110.87 1381.31,1100.67 1389.27,1090.3 1397.02,1079.76 1404.55,1069.07 1411.85,1058.21 1418.93,1047.21 1425.78,1036.05 1432.4,1024.76 1438.78,1013.32 1444.92,1001.76 1450.82,990.065 1456.47,978.25 1461.88,966.318 1467.04,954.274 1471.95,942.123 1476.61,929.871 1481.01,917.523 1485.16,905.085 1489.04,892.563 1492.67,879.96 1496.03,867.284 1499.13,854.539 1501.97,841.732 1504.54,828.867 1506.84,815.951 1508.87,802.989 1510.63,789.987 1512.13,776.951 1513.35,763.885 1514.3,750.797 1514.98,737.692 1515.39,724.575 1515.53,711.452 "/>
</svg>
