<?xml version="1.0" encoding="utf-8"?>
<svg xmlns="http://www.w3.org/2000/svg" xmlns:xlink="http://www.w3.org/1999/xlink" width="600" height="400" viewBox="0 0 2400 1600">
<defs>
  <clipPath id="clip450">
    <rect x="0" y="0" width="2400" height="1600"/>
  </clipPath>
</defs>
<path clip-path="url(#clip450)" d="M0 1600 L2400 1600 L2400 0 L0 0  Z" fill="#ffffff" fill-rule="evenodd" fill-opacity="1"/>
<defs>
  <clipPath id="clip451">
    <rect x="308" y="47" width="2046" height="1329"/>
  </clipPath>
</defs>
<path clip-path="url(#clip450)" d="M308.034 1375.66 L2352.76 1375.66 L2352.76 47.2441 L308.034 47.2441  Z" fill="#ffffff" fill-rule="evenodd" fill-opacity="1"/>
<polyline clip-path="url(#clip451)" style="stroke:#000000; stroke-linecap:round; stroke-linejoin:round; stroke-width:2; stroke-opacity:0.1; fill:none" points="308.034,1375.66 308.034,47.2441 "/>
<polyline clip-path="url(#clip451)" style="stroke:#000000; stroke-linecap:round; stroke-linejoin:round; stroke-width:2; stroke-opacity:0.1; fill:none" points="716.979,1375.66 716.979,47.2441 "/>
<polyline clip-path="url(#clip451)" style="stroke:#000000; stroke-linecap:round; stroke-linejoin:round; stroke-width:2; stroke-opacity:0.1; fill:none" points="1125.92,1375.66 1125.92,47.2441 "/>
<polyline clip-path="url(#clip451)" style="stroke:#000000; stroke-linecap:round; stroke-linejoin:round; stroke-width:2; stroke-opacity:0.1; fill:none" points="1534.87,1375.66 1534.87,47.2441 "/>
<polyline clip-path="url(#clip451)" style="stroke:#000000; stroke-linecap:round; stroke-linejoin:round; stroke-width:2; stroke-opacity:0.1; fill:none" points="1943.81,1375.66 1943.81,47.2441 "/>
<polyline clip-path="url(#clip451)" style="stroke:#000000; stroke-linecap:round; stroke-linejoin:round; stroke-width:2; stroke-opacity:0.1; fill:none" points="2352.76,1375.66 2352.76,47.2441 "/>
<polyline clip-path="url(#clip451)" style="stroke:#000000; stroke-linecap:round; stroke-linejoin:round; stroke-width:2; stroke-opacity:0.1; fill:none" points="308.034,1338.06 2352.76,1338.06 "/>
<polyline clip-path="url(#clip451)" style="stroke:#000000; stroke-linecap:round; stroke-linejoin:round; stroke-width:2; stroke-opacity:0.1; fill:none" points="308.034,1136.56 2352.76,1136.56 "/>
<polyline clip-path="url(#clip451)" style="stroke:#000000; stroke-linecap:round; stroke-linejoin:round; stroke-width:2; stroke-opacity:0.1; fill:none" points="308.034,935.054 2352.76,935.054 "/>
<polyline clip-path="url(#clip451)" style="stroke:#000000; stroke-linecap:round; stroke-linejoin:round; stroke-width:2; stroke-opacity:0.1; fill:none" points="308.034,733.549 2352.76,733.549 "/>
<polyline clip-path="url(#clip451)" style="stroke:#000000; stroke-linecap:round; stroke-linejoin:round; stroke-width:2; stroke-opacity:0.1; fill:none" points="308.034,532.044 2352.76,532.044 "/>
<polyline clip-path="url(#clip451)" style="stroke:#000000; stroke-linecap:round; stroke-linejoin:round; stroke-width:2; stroke-opacity:0.1; fill:none" points="308.034,330.539 2352.76,330.539 "/>
<polyline clip-path="url(#clip451)" style="stroke:#000000; stroke-linecap:round; stroke-linejoin:round; stroke-width:2; stroke-opacity:0.1; fill:none" points="308.034,129.035 2352.76,129.035 "/>
<polyline clip-path="url(#clip450)" style="stroke:#000000; stroke-linecap:round; stroke-linejoin:round; stroke-width:4; stroke-opacity:1; fill:none" points="308.034,1375.66 2352.76,1375.66 "/>
<polyline clip-path="url(#clip450)" style="stroke:#000000; stroke-linecap:round; stroke-linejoin:round; stroke-width:4; stroke-opacity:1; fill:none" points="308.034,1375.66 308.034,1356.76 "/>
<polyline clip-path="url(#clip450)" style="stroke:#000000; stroke-linecap:round; stroke-linejoin:round; stroke-width:4; stroke-opacity:1; fill:none" points="716.979,1375.66 716.979,1356.76 "/>
<polyline clip-path="url(#clip450)" style="stroke:#000000; stroke-linecap:round; stroke-linejoin:round; stroke-width:4; stroke-opacity:1; fill:none" points="1125.92,1375.66 1125.92,1356.76 "/>
<polyline clip-path="url(#clip450)" style="stroke:#000000; stroke-linecap:round; stroke-linejoin:round; stroke-width:4; stroke-opacity:1; fill:none" points="1534.87,1375.66 1534.87,1356.76 "/>
<polyline clip-path="url(#clip450)" style="stroke:#000000; stroke-linecap:round; stroke-linejoin:round; stroke-width:4; stroke-opacity:1; fill:none" points="1943.81,1375.66 1943.81,1356.76 "/>
<polyline clip-path="url(#clip450)" style="stroke:#000000; stroke-linecap:round; stroke-linejoin:round; stroke-width:4; stroke-opacity:1; fill:none" points="2352.76,1375.66 2352.76,1356.76 "/>
<path clip-path="url(#clip450)" d="M308.034 1412.44 Q302.618 1412.44 299.875 1417.79 Q297.166 1423.1 297.166 1433.79 Q297.166 1444.45 299.875 1449.8 Q302.618 1455.11 308.034 1455.11 Q313.486 1455.11 316.194 1449.8 Q318.937 1444.45 318.937 1433.79 Q318.937 1423.1 316.194 1417.79 Q313.486 1412.44 308.034 1412.44 M308.034 1406.88 Q316.749 1406.88 321.333 1413.79 Q325.951 1420.67 325.951 1433.79 Q325.951 1446.88 321.333 1453.79 Q316.749 1460.67 308.034 1460.67 Q299.319 1460.67 294.701 1453.79 Q290.118 1446.88 290.118 1433.79 Q290.118 1420.67 294.701 1413.79 Q299.319 1406.88 308.034 1406.88 Z" fill="#000000" fill-rule="nonzero" fill-opacity="1" /><path clip-path="url(#clip450)" d="M708.958 1453.76 L733.437 1453.76 L733.437 1459.66 L700.52 1459.66 L700.52 1453.76 Q704.513 1449.63 711.388 1442.68 Q718.298 1435.7 720.069 1433.69 Q723.437 1429.9 724.756 1427.3 Q726.11 1424.66 726.11 1422.13 Q726.11 1417.99 723.194 1415.39 Q720.312 1412.79 715.659 1412.79 Q712.361 1412.79 708.68 1413.93 Q705.034 1415.08 700.868 1417.4 L700.868 1410.32 Q705.104 1408.62 708.784 1407.75 Q712.465 1406.88 715.52 1406.88 Q723.576 1406.88 728.367 1410.91 Q733.159 1414.94 733.159 1421.67 Q733.159 1424.87 731.944 1427.75 Q730.763 1430.6 727.603 1434.49 Q726.735 1435.49 722.083 1440.32 Q717.43 1445.11 708.958 1453.76 Z" fill="#000000" fill-rule="nonzero" fill-opacity="1" /><path clip-path="url(#clip450)" d="M1130.44 1413.93 L1112.73 1441.6 L1130.44 1441.6 L1130.44 1413.93 M1128.6 1407.82 L1137.42 1407.82 L1137.42 1441.6 L1144.81 1441.6 L1144.81 1447.44 L1137.42 1447.44 L1137.42 1459.66 L1130.44 1459.66 L1130.44 1447.44 L1107.03 1447.44 L1107.03 1440.67 L1128.6 1407.82 Z" fill="#000000" fill-rule="nonzero" fill-opacity="1" /><path clip-path="url(#clip450)" d="M1535.47 1430.94 Q1530.75 1430.94 1527.97 1434.17 Q1525.23 1437.4 1525.23 1443.03 Q1525.23 1448.62 1527.97 1451.88 Q1530.75 1455.11 1535.47 1455.11 Q1540.2 1455.11 1542.94 1451.88 Q1545.72 1448.62 1545.72 1443.03 Q1545.72 1437.4 1542.94 1434.17 Q1540.2 1430.94 1535.47 1430.94 M1549.4 1408.97 L1549.4 1415.35 Q1546.76 1414.1 1544.05 1413.44 Q1541.38 1412.79 1538.74 1412.79 Q1531.79 1412.79 1528.11 1417.47 Q1524.47 1422.16 1523.95 1431.64 Q1526 1428.62 1529.09 1427.02 Q1532.18 1425.39 1535.89 1425.39 Q1543.7 1425.39 1548.22 1430.15 Q1552.77 1434.87 1552.77 1443.03 Q1552.77 1451.01 1548.04 1455.84 Q1543.32 1460.67 1535.47 1460.67 Q1526.48 1460.67 1521.72 1453.79 Q1516.97 1446.88 1516.97 1433.79 Q1516.97 1421.5 1522.8 1414.21 Q1528.63 1406.88 1538.46 1406.88 Q1541.1 1406.88 1543.77 1407.4 Q1546.48 1407.92 1549.4 1408.97 Z" fill="#000000" fill-rule="nonzero" fill-opacity="1" /><path clip-path="url(#clip450)" d="M1943.81 1435.04 Q1938.81 1435.04 1935.93 1437.72 Q1933.08 1440.39 1933.08 1445.08 Q1933.08 1449.76 1935.93 1452.44 Q1938.81 1455.11 1943.81 1455.11 Q1948.81 1455.11 1951.69 1452.44 Q1954.58 1449.73 1954.58 1445.08 Q1954.58 1440.39 1951.69 1437.72 Q1948.85 1435.04 1943.81 1435.04 M1936.8 1432.06 Q1932.28 1430.94 1929.75 1427.85 Q1927.25 1424.76 1927.25 1420.32 Q1927.25 1414.1 1931.66 1410.49 Q1936.1 1406.88 1943.81 1406.88 Q1951.55 1406.88 1955.96 1410.49 Q1960.37 1414.1 1960.37 1420.32 Q1960.37 1424.76 1957.84 1427.85 Q1955.34 1430.94 1950.86 1432.06 Q1955.93 1433.24 1958.74 1436.67 Q1961.59 1440.11 1961.59 1445.08 Q1961.59 1452.61 1956.97 1456.64 Q1952.39 1460.67 1943.81 1460.67 Q1935.24 1460.67 1930.62 1456.64 Q1926.03 1452.61 1926.03 1445.08 Q1926.03 1440.11 1928.88 1436.67 Q1931.73 1433.24 1936.8 1432.06 M1934.23 1420.98 Q1934.23 1425.01 1936.73 1427.26 Q1939.26 1429.52 1943.81 1429.52 Q1948.33 1429.52 1950.86 1427.26 Q1953.43 1425.01 1953.43 1420.98 Q1953.43 1416.95 1950.86 1414.69 Q1948.33 1412.44 1943.81 1412.44 Q1939.26 1412.44 1936.73 1414.69 Q1934.23 1416.95 1934.23 1420.98 Z" fill="#000000" fill-rule="nonzero" fill-opacity="1" /><path clip-path="url(#clip450)" d="M2314.79 1453.76 L2326.25 1453.76 L2326.25 1414.21 L2313.78 1416.71 L2313.78 1410.32 L2326.18 1407.82 L2333.19 1407.82 L2333.19 1453.76 L2344.65 1453.76 L2344.65 1459.66 L2314.79 1459.66 L2314.79 1453.76 Z" fill="#000000" fill-rule="nonzero" fill-opacity="1" /><path clip-path="url(#clip450)" d="M2373.81 1412.44 Q2368.4 1412.44 2365.66 1417.79 Q2362.95 1423.1 2362.95 1433.79 Q2362.95 1444.45 2365.66 1449.8 Q2368.4 1455.11 2373.81 1455.11 Q2379.27 1455.11 2381.97 1449.8 Q2384.72 1444.45 2384.72 1433.79 Q2384.72 1423.1 2381.97 1417.79 Q2379.27 1412.44 2373.81 1412.44 M2373.81 1406.88 Q2382.53 1406.88 2387.11 1413.79 Q2391.73 1420.67 2391.73 1433.79 Q2391.73 1446.88 2387.11 1453.79 Q2382.53 1460.67 2373.81 1460.67 Q2365.1 1460.67 2360.48 1453.79 Q2355.9 1446.88 2355.9 1433.79 Q2355.9 1420.67 2360.48 1413.79 Q2365.1 1406.88 2373.81 1406.88 Z" fill="#000000" fill-rule="nonzero" fill-opacity="1" /><path clip-path="url(#clip450)" d="M1114.64 1524.4 L1124.22 1524.4 L1124.22 1582.73 L1114.64 1582.73 L1114.64 1524.4 M1114.64 1501.69 L1124.22 1501.69 L1124.22 1513.83 L1114.64 1513.83 L1114.64 1501.69 Z" fill="#000000" fill-rule="nonzero" fill-opacity="1" /><path clip-path="url(#clip450)" d="M1153.76 1507.84 L1153.76 1524.4 L1173.49 1524.4 L1173.49 1531.85 L1153.76 1531.85 L1153.76 1563.51 Q1153.76 1570.65 1155.68 1572.68 Q1157.66 1574.71 1163.65 1574.71 L1173.49 1574.71 L1173.49 1582.73 L1163.65 1582.73 Q1152.56 1582.73 1148.34 1578.62 Q1144.12 1574.45 1144.12 1563.51 L1144.12 1531.85 L1137.09 1531.85 L1137.09 1524.4 L1144.12 1524.4 L1144.12 1507.84 L1153.76 1507.84 Z" fill="#000000" fill-rule="nonzero" fill-opacity="1" /><path clip-path="url(#clip450)" d="M1235.99 1551.17 L1235.99 1555.86 L1191.93 1555.86 Q1192.56 1565.75 1197.87 1570.96 Q1203.23 1576.12 1212.77 1576.12 Q1218.29 1576.12 1223.44 1574.76 Q1228.65 1573.41 1233.75 1570.7 L1233.75 1579.76 Q1228.6 1581.95 1223.18 1583.1 Q1217.77 1584.24 1212.19 1584.24 Q1198.23 1584.24 1190.06 1576.12 Q1181.93 1567.99 1181.93 1554.14 Q1181.93 1539.82 1189.64 1531.43 Q1197.4 1522.99 1210.53 1522.99 Q1222.3 1522.99 1229.12 1530.6 Q1235.99 1538.15 1235.99 1551.17 M1226.41 1548.36 Q1226.31 1540.49 1221.98 1535.81 Q1217.71 1531.12 1210.63 1531.12 Q1202.61 1531.12 1197.77 1535.65 Q1192.97 1540.18 1192.24 1548.41 L1226.41 1548.36 Z" fill="#000000" fill-rule="nonzero" fill-opacity="1" /><path clip-path="url(#clip450)" d="M1285.53 1533.36 Q1283.91 1532.42 1281.98 1532 Q1280.11 1531.53 1277.82 1531.53 Q1269.69 1531.53 1265.32 1536.85 Q1260.99 1542.11 1260.99 1552 L1260.99 1582.73 L1251.36 1582.73 L1251.36 1524.4 L1260.99 1524.4 L1260.99 1533.46 Q1264.02 1528.15 1268.86 1525.6 Q1273.7 1522.99 1280.63 1522.99 Q1281.62 1522.99 1282.82 1523.15 Q1284.02 1523.25 1285.47 1523.51 L1285.53 1533.36 Z" fill="#000000" fill-rule="nonzero" fill-opacity="1" /><path clip-path="url(#clip450)" d="M1322.09 1553.41 Q1310.47 1553.41 1305.99 1556.07 Q1301.51 1558.72 1301.51 1565.13 Q1301.51 1570.23 1304.85 1573.25 Q1308.23 1576.22 1314.01 1576.22 Q1321.98 1576.22 1326.78 1570.6 Q1331.62 1564.92 1331.62 1555.54 L1331.62 1553.41 L1322.09 1553.41 M1341.2 1549.45 L1341.2 1582.73 L1331.62 1582.73 L1331.62 1573.88 Q1328.34 1579.19 1323.44 1581.74 Q1318.55 1584.24 1311.46 1584.24 Q1302.5 1584.24 1297.19 1579.24 Q1291.93 1574.19 1291.93 1565.75 Q1291.93 1555.91 1298.49 1550.91 Q1305.11 1545.91 1318.18 1545.91 L1331.62 1545.91 L1331.62 1544.97 Q1331.62 1538.36 1327.24 1534.76 Q1322.92 1531.12 1315.06 1531.12 Q1310.06 1531.12 1305.32 1532.32 Q1300.58 1533.51 1296.2 1535.91 L1296.2 1527.06 Q1301.46 1525.02 1306.41 1524.03 Q1311.36 1522.99 1316.05 1522.99 Q1328.7 1522.99 1334.95 1529.56 Q1341.2 1536.12 1341.2 1549.45 Z" fill="#000000" fill-rule="nonzero" fill-opacity="1" /><path clip-path="url(#clip450)" d="M1370.42 1507.84 L1370.42 1524.4 L1390.16 1524.4 L1390.16 1531.85 L1370.42 1531.85 L1370.42 1563.51 Q1370.42 1570.65 1372.35 1572.68 Q1374.33 1574.71 1380.32 1574.71 L1390.16 1574.71 L1390.16 1582.73 L1380.32 1582.73 Q1369.22 1582.73 1365 1578.62 Q1360.79 1574.45 1360.79 1563.51 L1360.79 1531.85 L1353.75 1531.85 L1353.75 1524.4 L1360.79 1524.4 L1360.79 1507.84 L1370.42 1507.84 Z" fill="#000000" fill-rule="nonzero" fill-opacity="1" /><path clip-path="url(#clip450)" d="M1402.76 1524.4 L1412.35 1524.4 L1412.35 1582.73 L1402.76 1582.73 L1402.76 1524.4 M1402.76 1501.69 L1412.35 1501.69 L1412.35 1513.83 L1402.76 1513.83 L1402.76 1501.69 Z" fill="#000000" fill-rule="nonzero" fill-opacity="1" /><path clip-path="url(#clip450)" d="M1455 1531.12 Q1447.3 1531.12 1442.82 1537.16 Q1438.34 1543.15 1438.34 1553.62 Q1438.34 1564.09 1442.76 1570.13 Q1447.24 1576.12 1455 1576.12 Q1462.66 1576.12 1467.14 1570.08 Q1471.62 1564.03 1471.62 1553.62 Q1471.62 1543.25 1467.14 1537.21 Q1462.66 1531.12 1455 1531.12 M1455 1522.99 Q1467.5 1522.99 1474.64 1531.12 Q1481.77 1539.24 1481.77 1553.62 Q1481.77 1567.94 1474.64 1576.12 Q1467.5 1584.24 1455 1584.24 Q1442.45 1584.24 1435.32 1576.12 Q1428.23 1567.94 1428.23 1553.62 Q1428.23 1539.24 1435.32 1531.12 Q1442.45 1522.99 1455 1522.99 Z" fill="#000000" fill-rule="nonzero" fill-opacity="1" /><path clip-path="url(#clip450)" d="M1546.15 1547.52 L1546.15 1582.73 L1536.57 1582.73 L1536.57 1547.84 Q1536.57 1539.55 1533.34 1535.44 Q1530.11 1531.33 1523.65 1531.33 Q1515.89 1531.33 1511.41 1536.27 Q1506.93 1541.22 1506.93 1549.76 L1506.93 1582.73 L1497.3 1582.73 L1497.3 1524.4 L1506.93 1524.4 L1506.93 1533.46 Q1510.37 1528.2 1515 1525.6 Q1519.69 1522.99 1525.78 1522.99 Q1535.84 1522.99 1540.99 1529.24 Q1546.15 1535.44 1546.15 1547.52 Z" fill="#000000" fill-rule="nonzero" fill-opacity="1" /><polyline clip-path="url(#clip450)" style="stroke:#000000; stroke-linecap:round; stroke-linejoin:round; stroke-width:4; stroke-opacity:1; fill:none" points="308.034,1375.66 308.034,47.2441 "/>
<polyline clip-path="url(#clip450)" style="stroke:#000000; stroke-linecap:round; stroke-linejoin:round; stroke-width:4; stroke-opacity:1; fill:none" points="308.034,1338.06 326.932,1338.06 "/>
<polyline clip-path="url(#clip450)" style="stroke:#000000; stroke-linecap:round; stroke-linejoin:round; stroke-width:4; stroke-opacity:1; fill:none" points="308.034,1136.56 326.932,1136.56 "/>
<polyline clip-path="url(#clip450)" style="stroke:#000000; stroke-linecap:round; stroke-linejoin:round; stroke-width:4; stroke-opacity:1; fill:none" points="308.034,935.054 326.932,935.054 "/>
<polyline clip-path="url(#clip450)" style="stroke:#000000; stroke-linecap:round; stroke-linejoin:round; stroke-width:4; stroke-opacity:1; fill:none" points="308.034,733.549 326.932,733.549 "/>
<polyline clip-path="url(#clip450)" style="stroke:#000000; stroke-linecap:round; stroke-linejoin:round; stroke-width:4; stroke-opacity:1; fill:none" points="308.034,532.044 326.932,532.044 "/>
<polyline clip-path="url(#clip450)" style="stroke:#000000; stroke-linecap:round; stroke-linejoin:round; stroke-width:4; stroke-opacity:1; fill:none" points="308.034,330.539 326.932,330.539 "/>
<polyline clip-path="url(#clip450)" style="stroke:#000000; stroke-linecap:round; stroke-linejoin:round; stroke-width:4; stroke-opacity:1; fill:none" points="308.034,129.035 326.932,129.035 "/>
<path clip-path="url(#clip450)" d="M254.118 1316.76 Q248.701 1316.76 245.958 1322.11 Q243.25 1327.42 243.25 1338.12 Q243.25 1348.77 245.958 1354.12 Q248.701 1359.43 254.118 1359.43 Q259.569 1359.43 262.277 1354.12 Q265.02 1348.77 265.02 1338.12 Q265.02 1327.42 262.277 1322.11 Q259.569 1316.76 254.118 1316.76 M254.118 1311.21 Q262.833 1311.21 267.416 1318.12 Q272.034 1324.99 272.034 1338.12 Q272.034 1351.21 267.416 1358.12 Q262.833 1364.99 254.118 1364.99 Q245.402 1364.99 240.784 1358.12 Q236.201 1351.21 236.201 1338.12 Q236.201 1324.99 240.784 1318.12 Q245.402 1311.21 254.118 1311.21 Z" fill="#000000" fill-rule="nonzero" fill-opacity="1" /><path clip-path="url(#clip450)" d="M149.847 1156.58 L161.306 1156.58 L161.306 1117.03 L148.84 1119.53 L148.84 1113.14 L161.236 1110.64 L168.25 1110.64 L168.25 1156.58 L179.708 1156.58 L179.708 1162.48 L149.847 1162.48 L149.847 1156.58 Z" fill="#000000" fill-rule="nonzero" fill-opacity="1" /><path clip-path="url(#clip450)" d="M208.875 1115.26 Q203.458 1115.26 200.715 1120.6 Q198.007 1125.92 198.007 1136.61 Q198.007 1147.27 200.715 1152.62 Q203.458 1157.93 208.875 1157.93 Q214.326 1157.93 217.034 1152.62 Q219.778 1147.27 219.778 1136.61 Q219.778 1125.92 217.034 1120.6 Q214.326 1115.26 208.875 1115.26 M208.875 1109.7 Q217.59 1109.7 222.173 1116.61 Q226.791 1123.49 226.791 1136.61 Q226.791 1149.7 222.173 1156.61 Q217.59 1163.49 208.875 1163.49 Q200.16 1163.49 195.542 1156.61 Q190.958 1149.7 190.958 1136.61 Q190.958 1123.49 195.542 1116.61 Q200.16 1109.7 208.875 1109.7 Z" fill="#000000" fill-rule="nonzero" fill-opacity="1" /><path clip-path="url(#clip450)" d="M254.118 1115.26 Q248.701 1115.26 245.958 1120.6 Q243.25 1125.92 243.25 1136.61 Q243.25 1147.27 245.958 1152.62 Q248.701 1157.93 254.118 1157.93 Q259.569 1157.93 262.277 1152.62 Q265.02 1147.27 265.02 1136.61 Q265.02 1125.92 262.277 1120.6 Q259.569 1115.26 254.118 1115.26 M254.118 1109.7 Q262.833 1109.7 267.416 1116.61 Q272.034 1123.49 272.034 1136.61 Q272.034 1149.7 267.416 1156.61 Q262.833 1163.49 254.118 1163.49 Q245.402 1163.49 240.784 1156.61 Q236.201 1149.7 236.201 1136.61 Q236.201 1123.49 240.784 1116.61 Q245.402 1109.7 254.118 1109.7 Z" fill="#000000" fill-rule="nonzero" fill-opacity="1" /><path clip-path="url(#clip450)" d="M154.674 955.071 L179.153 955.071 L179.153 960.974 L146.236 960.974 L146.236 955.071 Q150.229 950.939 157.104 943.995 Q164.014 937.015 165.785 935.002 Q169.153 931.217 170.472 928.613 Q171.826 925.974 171.826 923.439 Q171.826 919.307 168.91 916.703 Q166.028 914.099 161.375 914.099 Q158.076 914.099 154.396 915.245 Q150.75 916.391 146.583 918.717 L146.583 911.634 Q150.82 909.932 154.5 909.064 Q158.181 908.196 161.236 908.196 Q169.292 908.196 174.083 912.224 Q178.875 916.252 178.875 922.988 Q178.875 926.182 177.66 929.064 Q176.479 931.911 173.319 935.8 Q172.451 936.807 167.799 941.633 Q163.146 946.425 154.674 955.071 Z" fill="#000000" fill-rule="nonzero" fill-opacity="1" /><path clip-path="url(#clip450)" d="M208.875 913.752 Q203.458 913.752 200.715 919.099 Q198.007 924.411 198.007 935.106 Q198.007 945.765 200.715 951.113 Q203.458 956.425 208.875 956.425 Q214.326 956.425 217.034 951.113 Q219.778 945.765 219.778 935.106 Q219.778 924.411 217.034 919.099 Q214.326 913.752 208.875 913.752 M208.875 908.196 Q217.59 908.196 222.173 915.106 Q226.791 921.981 226.791 935.106 Q226.791 948.196 222.173 955.106 Q217.59 961.981 208.875 961.981 Q200.16 961.981 195.542 955.106 Q190.958 948.196 190.958 935.106 Q190.958 921.981 195.542 915.106 Q200.16 908.196 208.875 908.196 Z" fill="#000000" fill-rule="nonzero" fill-opacity="1" /><path clip-path="url(#clip450)" d="M254.118 913.752 Q248.701 913.752 245.958 919.099 Q243.25 924.411 243.25 935.106 Q243.25 945.765 245.958 951.113 Q248.701 956.425 254.118 956.425 Q259.569 956.425 262.277 951.113 Q265.02 945.765 265.02 935.106 Q265.02 924.411 262.277 919.099 Q259.569 913.752 254.118 913.752 M254.118 908.196 Q262.833 908.196 267.416 915.106 Q272.034 921.981 272.034 935.106 Q272.034 948.196 267.416 955.106 Q262.833 961.981 254.118 961.981 Q245.402 961.981 240.784 955.106 Q236.201 948.196 236.201 935.106 Q236.201 921.981 240.784 915.106 Q245.402 908.196 254.118 908.196 Z" fill="#000000" fill-rule="nonzero" fill-opacity="1" /><path clip-path="url(#clip450)" d="M169.882 731.518 Q174.917 732.594 177.729 735.997 Q180.576 739.4 180.576 744.4 Q180.576 752.073 175.299 756.274 Q170.021 760.476 160.299 760.476 Q157.035 760.476 153.563 759.816 Q150.125 759.191 146.445 757.906 L146.445 751.136 Q149.361 752.837 152.833 753.705 Q156.306 754.573 160.09 754.573 Q166.688 754.573 170.125 751.969 Q173.597 749.365 173.597 744.4 Q173.597 739.816 170.368 737.247 Q167.174 734.643 161.445 734.643 L155.403 734.643 L155.403 728.879 L161.722 728.879 Q166.896 728.879 169.639 726.83 Q172.382 724.747 172.382 720.858 Q172.382 716.865 169.535 714.747 Q166.722 712.594 161.445 712.594 Q158.563 712.594 155.264 713.219 Q151.965 713.844 148.007 715.164 L148.007 708.914 Q152 707.802 155.472 707.247 Q158.979 706.691 162.07 706.691 Q170.056 706.691 174.708 710.337 Q179.361 713.948 179.361 720.129 Q179.361 724.434 176.896 727.42 Q174.431 730.372 169.882 731.518 Z" fill="#000000" fill-rule="nonzero" fill-opacity="1" /><path clip-path="url(#clip450)" d="M208.875 712.247 Q203.458 712.247 200.715 717.594 Q198.007 722.907 198.007 733.601 Q198.007 744.261 200.715 749.608 Q203.458 754.92 208.875 754.92 Q214.326 754.92 217.034 749.608 Q219.778 744.261 219.778 733.601 Q219.778 722.907 217.034 717.594 Q214.326 712.247 208.875 712.247 M208.875 706.691 Q217.59 706.691 222.173 713.601 Q226.791 720.476 226.791 733.601 Q226.791 746.691 222.173 753.601 Q217.59 760.476 208.875 760.476 Q200.16 760.476 195.542 753.601 Q190.958 746.691 190.958 733.601 Q190.958 720.476 195.542 713.601 Q200.16 706.691 208.875 706.691 Z" fill="#000000" fill-rule="nonzero" fill-opacity="1" /><path clip-path="url(#clip450)" d="M254.118 712.247 Q248.701 712.247 245.958 717.594 Q243.25 722.907 243.25 733.601 Q243.25 744.261 245.958 749.608 Q248.701 754.92 254.118 754.92 Q259.569 754.92 262.277 749.608 Q265.02 744.261 265.02 733.601 Q265.02 722.907 262.277 717.594 Q259.569 712.247 254.118 712.247 M254.118 706.691 Q262.833 706.691 267.416 713.601 Q272.034 720.476 272.034 733.601 Q272.034 746.691 267.416 753.601 Q262.833 760.476 254.118 760.476 Q245.402 760.476 240.784 753.601 Q236.201 746.691 236.201 733.601 Q236.201 720.476 240.784 713.601 Q245.402 706.691 254.118 706.691 Z" fill="#000000" fill-rule="nonzero" fill-opacity="1" /><path clip-path="url(#clip450)" d="M167.903 512.235 L150.195 539.909 L167.903 539.909 L167.903 512.235 M166.063 506.124 L174.882 506.124 L174.882 539.909 L182.278 539.909 L182.278 545.742 L174.882 545.742 L174.882 557.964 L167.903 557.964 L167.903 545.742 L144.5 545.742 L144.5 538.971 L166.063 506.124 Z" fill="#000000" fill-rule="nonzero" fill-opacity="1" /><path clip-path="url(#clip450)" d="M208.875 510.742 Q203.458 510.742 200.715 516.089 Q198.007 521.402 198.007 532.096 Q198.007 542.756 200.715 548.103 Q203.458 553.416 208.875 553.416 Q214.326 553.416 217.034 548.103 Q219.778 542.756 219.778 532.096 Q219.778 521.402 217.034 516.089 Q214.326 510.742 208.875 510.742 M208.875 505.187 Q217.59 505.187 222.173 512.096 Q226.791 518.971 226.791 532.096 Q226.791 545.186 222.173 552.096 Q217.59 558.971 208.875 558.971 Q200.16 558.971 195.542 552.096 Q190.958 545.186 190.958 532.096 Q190.958 518.971 195.542 512.096 Q200.16 505.187 208.875 505.187 Z" fill="#000000" fill-rule="nonzero" fill-opacity="1" /><path clip-path="url(#clip450)" d="M254.118 510.742 Q248.701 510.742 245.958 516.089 Q243.25 521.402 243.25 532.096 Q243.25 542.756 245.958 548.103 Q248.701 553.416 254.118 553.416 Q259.569 553.416 262.277 548.103 Q265.02 542.756 265.02 532.096 Q265.02 521.402 262.277 516.089 Q259.569 510.742 254.118 510.742 M254.118 505.187 Q262.833 505.187 267.416 512.096 Q272.034 518.971 272.034 532.096 Q272.034 545.186 267.416 552.096 Q262.833 558.971 254.118 558.971 Q245.402 558.971 240.784 552.096 Q236.201 545.186 236.201 532.096 Q236.201 518.971 240.784 512.096 Q245.402 505.187 254.118 505.187 Z" fill="#000000" fill-rule="nonzero" fill-opacity="1" /><path clip-path="url(#clip450)" d="M148.702 304.619 L176.236 304.619 L176.236 310.522 L155.125 310.522 L155.125 323.23 Q156.653 322.71 158.181 322.466 Q159.708 322.189 161.236 322.189 Q169.917 322.189 174.986 326.946 Q180.056 331.703 180.056 339.827 Q180.056 348.195 174.847 352.848 Q169.639 357.466 160.16 357.466 Q156.896 357.466 153.493 356.911 Q150.125 356.355 146.514 355.244 L146.514 348.195 Q149.639 349.897 152.972 350.73 Q156.306 351.564 160.021 351.564 Q166.028 351.564 169.535 348.404 Q173.042 345.244 173.042 339.827 Q173.042 334.411 169.535 331.251 Q166.028 328.091 160.021 328.091 Q157.208 328.091 154.396 328.716 Q151.618 329.341 148.702 330.661 L148.702 304.619 Z" fill="#000000" fill-rule="nonzero" fill-opacity="1" /><path clip-path="url(#clip450)" d="M208.875 309.237 Q203.458 309.237 200.715 314.585 Q198.007 319.897 198.007 330.591 Q198.007 341.251 200.715 346.598 Q203.458 351.911 208.875 351.911 Q214.326 351.911 217.034 346.598 Q219.778 341.251 219.778 330.591 Q219.778 319.897 217.034 314.585 Q214.326 309.237 208.875 309.237 M208.875 303.682 Q217.59 303.682 222.173 310.592 Q226.791 317.466 226.791 330.591 Q226.791 343.682 222.173 350.591 Q217.59 357.466 208.875 357.466 Q200.16 357.466 195.542 350.591 Q190.958 343.682 190.958 330.591 Q190.958 317.466 195.542 310.592 Q200.16 303.682 208.875 303.682 Z" fill="#000000" fill-rule="nonzero" fill-opacity="1" /><path clip-path="url(#clip450)" d="M254.118 309.237 Q248.701 309.237 245.958 314.585 Q243.25 319.897 243.25 330.591 Q243.25 341.251 245.958 346.598 Q248.701 351.911 254.118 351.911 Q259.569 351.911 262.277 346.598 Q265.02 341.251 265.02 330.591 Q265.02 319.897 262.277 314.585 Q259.569 309.237 254.118 309.237 M254.118 303.682 Q262.833 303.682 267.416 310.592 Q272.034 317.466 272.034 330.591 Q272.034 343.682 267.416 350.591 Q262.833 357.466 254.118 357.466 Q245.402 357.466 240.784 350.591 Q236.201 343.682 236.201 330.591 Q236.201 317.466 240.784 310.592 Q245.402 303.682 254.118 303.682 Z" fill="#000000" fill-rule="nonzero" fill-opacity="1" /><path clip-path="url(#clip450)" d="M164.5 126.239 Q159.778 126.239 157 129.469 Q154.257 132.698 154.257 138.323 Q154.257 143.913 157 147.177 Q159.778 150.406 164.5 150.406 Q169.222 150.406 171.965 147.177 Q174.743 143.913 174.743 138.323 Q174.743 132.698 171.965 129.469 Q169.222 126.239 164.5 126.239 M178.424 104.26 L178.424 110.649 Q175.785 109.399 173.076 108.74 Q170.403 108.08 167.764 108.08 Q160.82 108.08 157.139 112.767 Q153.493 117.455 152.972 126.934 Q155.021 123.913 158.111 122.316 Q161.201 120.684 164.917 120.684 Q172.729 120.684 177.243 125.441 Q181.792 130.163 181.792 138.323 Q181.792 146.309 177.069 151.135 Q172.347 155.962 164.5 155.962 Q155.507 155.962 150.75 149.087 Q145.993 142.177 145.993 129.087 Q145.993 116.795 151.827 109.503 Q157.66 102.177 167.486 102.177 Q170.125 102.177 172.799 102.698 Q175.507 103.219 178.424 104.26 Z" fill="#000000" fill-rule="nonzero" fill-opacity="1" /><path clip-path="url(#clip450)" d="M208.875 107.733 Q203.458 107.733 200.715 113.08 Q198.007 118.392 198.007 129.087 Q198.007 139.746 200.715 145.094 Q203.458 150.406 208.875 150.406 Q214.326 150.406 217.034 145.094 Q219.778 139.746 219.778 129.087 Q219.778 118.392 217.034 113.08 Q214.326 107.733 208.875 107.733 M208.875 102.177 Q217.59 102.177 222.173 109.087 Q226.791 115.962 226.791 129.087 Q226.791 142.177 222.173 149.087 Q217.59 155.962 208.875 155.962 Q200.16 155.962 195.542 149.087 Q190.958 142.177 190.958 129.087 Q190.958 115.962 195.542 109.087 Q200.16 102.177 208.875 102.177 Z" fill="#000000" fill-rule="nonzero" fill-opacity="1" /><path clip-path="url(#clip450)" d="M254.118 107.733 Q248.701 107.733 245.958 113.08 Q243.25 118.392 243.25 129.087 Q243.25 139.746 245.958 145.094 Q248.701 150.406 254.118 150.406 Q259.569 150.406 262.277 145.094 Q265.02 139.746 265.02 129.087 Q265.02 118.392 262.277 113.08 Q259.569 107.733 254.118 107.733 M254.118 102.177 Q262.833 102.177 267.416 109.087 Q272.034 115.962 272.034 129.087 Q272.034 142.177 267.416 149.087 Q262.833 155.962 254.118 155.962 Q245.402 155.962 240.784 149.087 Q236.201 142.177 236.201 129.087 Q236.201 115.962 240.784 109.087 Q245.402 102.177 254.118 102.177 Z" fill="#000000" fill-rule="nonzero" fill-opacity="1" /><path clip-path="url(#clip450)" d="M13.4017 994.601 L24.4954 994.601 Q19.5475 999.914 17.0996 1005.96 Q14.6517 1011.95 14.6517 1018.72 Q14.6517 1032.05 22.8287 1039.13 Q30.9537 1046.22 46.3703 1046.22 Q61.7348 1046.22 69.9118 1039.13 Q78.0368 1032.05 78.0368 1018.72 Q78.0368 1011.95 75.5889 1005.96 Q73.141 999.914 68.1931 994.601 L79.1826 994.601 Q82.9326 1000.12 84.8076 1006.32 Q86.6826 1012.47 86.6826 1019.34 Q86.6826 1037 75.9014 1047.15 Q65.0681 1057.31 46.3703 1057.31 Q27.6204 1057.31 16.8392 1047.15 Q6.00592 1037 6.00592 1019.34 Q6.00592 1012.36 7.8809 1006.22 Q9.70381 1000.02 13.4017 994.601 Z" fill="#000000" fill-rule="nonzero" fill-opacity="1" /><path clip-path="url(#clip450)" d="M33.5579 956.164 Q33.5579 963.872 39.5995 968.352 Q45.589 972.831 56.0577 972.831 Q66.5264 972.831 72.5681 968.404 Q78.5576 963.925 78.5576 956.164 Q78.5576 948.508 72.516 944.029 Q66.4743 939.55 56.0577 939.55 Q45.6932 939.55 39.6516 944.029 Q33.5579 948.508 33.5579 956.164 M25.4329 956.164 Q25.4329 943.664 33.5579 936.529 Q41.6828 929.394 56.0577 929.394 Q70.3806 929.394 78.5576 936.529 Q86.6826 943.664 86.6826 956.164 Q86.6826 968.716 78.5576 975.852 Q70.3806 982.935 56.0577 982.935 Q41.6828 982.935 33.5579 975.852 Q25.4329 968.716 25.4329 956.164 Z" fill="#000000" fill-rule="nonzero" fill-opacity="1" /><path clip-path="url(#clip450)" d="M28.5579 876.321 L37.6203 876.321 Q35.537 880.383 34.4953 884.758 Q33.4537 889.133 33.4537 893.821 Q33.4537 900.956 35.6412 904.55 Q37.8287 908.092 42.2036 908.092 Q45.537 908.092 47.464 905.539 Q49.339 902.987 51.0578 895.279 L51.7869 891.998 Q53.9744 881.79 57.9848 877.519 Q61.9431 873.196 69.0785 873.196 Q77.2035 873.196 81.943 879.654 Q86.6826 886.06 86.6826 897.31 Q86.6826 901.998 85.7451 907.102 Q84.8597 912.154 83.0368 917.779 L73.141 917.779 Q75.9014 912.467 77.3076 907.31 Q78.6618 902.154 78.6618 897.102 Q78.6618 890.331 76.3701 886.685 Q74.0264 883.04 69.8077 883.04 Q65.9014 883.04 63.8181 885.696 Q61.7348 888.3 59.8077 897.206 L59.0265 900.539 Q57.1515 909.446 53.2973 913.404 Q49.3911 917.362 42.6203 917.362 Q34.3912 917.362 29.912 911.529 Q25.4329 905.696 25.4329 894.967 Q25.4329 889.654 26.2141 884.967 Q26.9954 880.279 28.5579 876.321 Z" fill="#000000" fill-rule="nonzero" fill-opacity="1" /><path clip-path="url(#clip450)" d="M10.2767 848.456 L26.8391 848.456 L26.8391 828.717 L34.287 828.717 L34.287 848.456 L65.9535 848.456 Q73.0889 848.456 75.1201 846.529 Q77.1514 844.55 77.1514 838.561 L77.1514 828.717 L85.1722 828.717 L85.1722 838.561 Q85.1722 849.654 81.0576 853.873 Q76.891 858.092 65.9535 858.092 L34.287 858.092 L34.287 865.123 L26.8391 865.123 L26.8391 858.092 L10.2767 858.092 L10.2767 848.456 Z" fill="#000000" fill-rule="nonzero" fill-opacity="1" /><path clip-path="url(#clip450)" d="M4.13093 752.676 L12.0996 752.676 L12.0996 761.842 Q12.0996 766.999 14.183 769.03 Q16.2663 771.009 21.6829 771.009 L26.8391 771.009 L26.8391 755.228 L34.287 755.228 L34.287 771.009 L85.1722 771.009 L85.1722 780.644 L34.287 780.644 L34.287 789.811 L26.8391 789.811 L26.8391 780.644 L22.7767 780.644 Q13.0371 780.644 8.61007 776.113 Q4.13093 771.582 4.13093 761.738 L4.13093 752.676 Z" fill="#000000" fill-rule="nonzero" fill-opacity="1" /><path clip-path="url(#clip450)" d="M62.1514 745.644 L26.8391 745.644 L26.8391 736.061 L61.7869 736.061 Q70.0681 736.061 74.2347 732.832 Q78.3493 729.603 78.3493 723.145 Q78.3493 715.384 73.4014 710.905 Q68.4535 706.374 59.9119 706.374 L26.8391 706.374 L26.8391 696.791 L85.1722 696.791 L85.1722 706.374 L76.2139 706.374 Q81.5263 709.863 84.1305 714.499 Q86.6826 719.082 86.6826 725.176 Q86.6826 735.228 80.4326 740.436 Q74.1826 745.644 62.1514 745.644 M25.4329 721.53 L25.4329 721.53 Z" fill="#000000" fill-rule="nonzero" fill-opacity="1" /><path clip-path="url(#clip450)" d="M49.964 628.562 L85.1722 628.562 L85.1722 638.145 L50.2765 638.145 Q41.9953 638.145 37.8807 641.374 Q33.7662 644.603 33.7662 651.062 Q33.7662 658.822 38.7141 663.301 Q43.662 667.78 52.2036 667.78 L85.1722 667.78 L85.1722 677.416 L26.8391 677.416 L26.8391 667.78 L35.9016 667.78 Q30.6412 664.343 28.037 659.707 Q25.4329 655.02 25.4329 648.926 Q25.4329 638.874 31.6829 633.718 Q37.8807 628.562 49.964 628.562 Z" fill="#000000" fill-rule="nonzero" fill-opacity="1" /><path clip-path="url(#clip450)" d="M29.0787 567.468 L38.037 567.468 Q35.7974 571.531 34.7037 575.645 Q33.5579 579.708 33.5579 583.875 Q33.5579 593.197 39.4953 598.354 Q45.3807 603.51 56.0577 603.51 Q66.7348 603.51 72.6722 598.354 Q78.5576 593.197 78.5576 583.875 Q78.5576 579.708 77.4639 575.645 Q76.318 571.531 74.0785 567.468 L82.9326 567.468 Q84.8076 571.479 85.7451 575.802 Q86.6826 580.072 86.6826 584.916 Q86.6826 598.093 78.4014 605.854 Q70.1202 613.614 56.0577 613.614 Q41.787 613.614 33.6099 605.801 Q25.4329 597.937 25.4329 584.291 Q25.4329 579.864 26.3704 575.645 Q27.2558 571.427 29.0787 567.468 Z" fill="#000000" fill-rule="nonzero" fill-opacity="1" /><path clip-path="url(#clip450)" d="M10.2767 541.323 L26.8391 541.323 L26.8391 521.583 L34.287 521.583 L34.287 541.323 L65.9535 541.323 Q73.0889 541.323 75.1201 539.396 Q77.1514 537.416 77.1514 531.427 L77.1514 521.583 L85.1722 521.583 L85.1722 531.427 Q85.1722 542.521 81.0576 546.739 Q76.891 550.958 65.9535 550.958 L34.287 550.958 L34.287 557.989 L26.8391 557.989 L26.8391 550.958 L10.2767 550.958 L10.2767 541.323 Z" fill="#000000" fill-rule="nonzero" fill-opacity="1" /><path clip-path="url(#clip450)" d="M26.8391 508.979 L26.8391 499.396 L85.1722 499.396 L85.1722 508.979 L26.8391 508.979 M4.13093 508.979 L4.13093 499.396 L16.2663 499.396 L16.2663 508.979 L4.13093 508.979 Z" fill="#000000" fill-rule="nonzero" fill-opacity="1" /><path clip-path="url(#clip450)" d="M33.5579 456.74 Q33.5579 464.448 39.5995 468.927 Q45.589 473.406 56.0577 473.406 Q66.5264 473.406 72.5681 468.979 Q78.5576 464.5 78.5576 456.74 Q78.5576 449.084 72.516 444.604 Q66.4743 440.125 56.0577 440.125 Q45.6932 440.125 39.6516 444.604 Q33.5579 449.084 33.5579 456.74 M25.4329 456.74 Q25.4329 444.24 33.5579 437.104 Q41.6828 429.969 56.0577 429.969 Q70.3806 429.969 78.5576 437.104 Q86.6826 444.24 86.6826 456.74 Q86.6826 469.292 78.5576 476.427 Q70.3806 483.51 56.0577 483.51 Q41.6828 483.51 33.5579 476.427 Q25.4329 469.292 25.4329 456.74 Z" fill="#000000" fill-rule="nonzero" fill-opacity="1" /><path clip-path="url(#clip450)" d="M49.964 365.594 L85.1722 365.594 L85.1722 375.178 L50.2765 375.178 Q41.9953 375.178 37.8807 378.407 Q33.7662 381.636 33.7662 388.094 Q33.7662 395.855 38.7141 400.334 Q43.662 404.813 52.2036 404.813 L85.1722 404.813 L85.1722 414.448 L26.8391 414.448 L26.8391 404.813 L35.9016 404.813 Q30.6412 401.376 28.037 396.74 Q25.4329 392.053 25.4329 385.959 Q25.4329 375.907 31.6829 370.751 Q37.8807 365.594 49.964 365.594 Z" fill="#000000" fill-rule="nonzero" fill-opacity="1" /><polyline clip-path="url(#clip451)" style="stroke:#009af9; stroke-linecap:round; stroke-linejoin:round; stroke-width:8; stroke-opacity:1; fill:none" points="308.034,84.8408 512.506,519.355 716.979,877.456 921.451,1164.7 1125.92,1275.75 1330.4,1301.69 1534.87,1312.55 1739.34,1318.34 1943.81,1321.86 2148.28,1324.19 2352.76,1325.85 2557.23,1327.08 2761.7,1328.04 2966.17,1328.81 3170.64,1329.45 3375.12,1329.99 3579.59,1330.46 3784.06,1330.87 3988.53,1331.24 4193.01,1331.56 4397.48,1331.86 4601.95,1332.13 4806.42,1332.38 5010.89,1332.61 5215.37,1332.83 5419.84,1333.03 5624.31,1333.22 5828.78,1333.39 6033.25,1333.56 6237.73,1333.72 6442.2,1333.87 6646.67,1334.01 6851.14,1334.15 7055.62,1334.28 7260.09,1334.41 7464.56,1334.53 7669.03,1334.64 7873.5,1334.75 8077.98,1334.86 8282.45,1334.96 8486.92,1335.06 8691.39,1335.15 8895.87,1335.24 9100.34,1335.33 9304.81,1335.41 9509.28,1335.5 9713.75,1335.57 9918.23,1335.65 10122.7,1335.72 10327.2,1335.8 10531.6,1335.86 10736.1,1335.93 10940.6,1336 11145.1,1336.06 11349.5,1336.12 11554,1336.18 11758.5,1336.23 11962.9,1336.29 12167.4,1336.34 12371.9,1336.39 12576.4,1336.44 12780.8,1336.49 12985.3,1336.54 13189.8,1336.58 13394.3,1336.63 13598.7,1336.67 13803.2,1336.71 14007.7,1336.75 14212.1,1336.79 14416.6,1336.83 14621.1,1336.86 14825.6,1336.9 15030,1336.93 15234.5,1336.97 15439,1337 15643.4,1337.03 15847.9,1337.06 16052.4,1337.09 16256.9,1337.12 16461.3,1337.15 16665.8,1337.18 16870.3,1337.2 17074.8,1337.23 17279.2,1337.25 17483.7,1337.27 17688.2,1337.3 17892.6,1337.32 18097.1,1337.34 18301.6,1337.36 18506.1,1337.38 18710.5,1337.4 18915,1337.42 19119.5,1337.44 19323.9,1337.46 19528.4,1337.48 19732.9,1337.49 19937.4,1337.51 20141.8,1337.53 20346.3,1337.54 20550.8,1337.56 20755.3,1337.57 20959.7,1337.59 21164.2,1337.6 21368.7,1337.61 21573.1,1337.63 21777.6,1337.64 21982.1,1337.65 22186.6,1337.66 22391,1337.68 22595.5,1337.69 22800,1337.7 23004.4,1337.71 23208.9,1337.72 23413.4,1337.73 23617.9,1337.74 23822.3,1337.75 24026.8,1337.76 24231.3,1337.77 24435.8,1337.77 24640.2,1337.78 24844.7,1337.79 25049.2,1337.8 25253.6,1337.81 25458.1,1337.81 25662.6,1337.82 25867.1,1337.83 26071.5,1337.84 26276,1337.84 26480.5,1337.85 26684.9,1337.85 26889.4,1337.86 27093.9,1337.87 27298.4,1337.87 27502.8,1337.88 27707.3,1337.88 27911.8,1337.89 28116.2,1337.89 28320.7,1337.9 28525.2,1337.9 28729.7,1337.91 28934.1,1337.91 29138.6,1337.92 29343.1,1337.92 29547.6,1337.92 29752,1337.93 29956.5,1337.93 30161,1337.94 30365.4,1337.94 30569.9,1337.94 30774.4,1337.95 30978.9,1337.95 31183.3,1337.95 31387.8,1337.96 31592.3,1337.96 31796.7,1337.96 32001.2,1337.97 32205.7,1337.97 32410.2,1337.97 32614.6,1337.97 32819.1,1337.98 33023.6,1337.98 33228.1,1337.98 33432.5,1337.98 33637,1337.99 33841.5,1337.99 34045.9,1337.99 34250.4,1337.99 34454.9,1337.99 34659.4,1338 34863.8,1338 35068.3,1338 35272.8,1338 35477.2,1338 35681.7,1338.01 35886.2,1338.01 36090.7,1338.01 36295.1,1338.01 36499.6,1338.01 36704.1,1338.01 36908.6,1338.01 37113,1338.02 37317.5,1338.02 37522,1338.02 37726.4,1338.02 37930.9,1338.02 38135.4,1338.02 38339.9,1338.02 38544.3,1338.02 38748.8,1338.03 38953.3,1338.03 39157.7,1338.03 39362.2,1338.03 39566.7,1338.03 39771.2,1338.03 39975.6,1338.03 40180.1,1338.03 40384.6,1338.03 40589.1,1338.03 40793.5,1338.04 40998,1338.04 41202.5,1338.04 41406.9,1338.04 41611.4,1338.04 41815.9,1338.04 42020.4,1338.04 42224.8,1338.04 42429.3,1338.04 42633.8,1338.04 42838.2,1338.04 43042.7,1338.04 43247.2,1338.04 43451.7,1338.04 43656.1,1338.04 43860.6,1338.04 44065.1,1338.05 44269.6,1338.05 44474,1338.05 44678.5,1338.05 44883,1338.05 45087.4,1338.05 45291.9,1338.05 45496.4,1338.05 45700.9,1338.05 45905.3,1338.05 46109.8,1338.05 46314.3,1338.05 46518.7,1338.05 46723.2,1338.05 46927.7,1338.05 47132.2,1338.05 47336.6,1338.05 47541.1,1338.05 47745.6,1338.05 47950.1,1338.05 48154.5,1338.05 48359,1338.05 48563.5,1338.05 48767.9,1338.05 48972.4,1338.05 49176.9,1338.05 49381.4,1338.05 49585.8,1338.06 49790.3,1338.06 49994.8,1338.06 50199.2,1338.06 50403.7,1338.06 50608.2,1338.06 50812.7,1338.06 51017.1,1338.06 51221.6,1338.06 51426.1,1338.06 51630.5,1338.06 51835,1338.06 52039.5,1338.06 52244,1338.06 52448.4,1338.06 52652.9,1338.06 52857.4,1338.06 53061.9,1338.06 53266.3,1338.06 53470.8,1338.06 53675.3,1338.06 53879.7,1338.06 54084.2,1338.06 54288.7,1338.06 54493.2,1338.06 54697.6,1338.06 54902.1,1338.06 55106.6,1338.06 55311,1338.06 55515.5,1338.06 55720,1338.06 55924.5,1338.06 56128.9,1338.06 56333.4,1338.06 56537.9,1338.06 56742.4,1338.06 56946.8,1338.06 57151.3,1338.06 57355.8,1338.06 57560.2,1338.06 57764.7,1338.06 57969.2,1338.06 58173.7,1338.06 58378.1,1338.06 58582.6,1338.06 58787.1,1338.06 58991.5,1338.06 59196,1338.06 59400.5,1338.06 59605,1338.06 59809.4,1338.06 60013.9,1338.06 60218.4,1338.06 60422.9,1338.06 60627.3,1338.06 60831.8,1338.06 61036.3,1338.06 61240.7,1338.06 61445.2,1338.06 61649.7,1338.06 "/>
<polyline clip-path="url(#clip451)" style="stroke:#e26f46; stroke-linecap:round; stroke-linejoin:round; stroke-width:8; stroke-opacity:1; fill:none" points="308.034,84.8408 512.506,519.355 716.979,972.677 921.451,1283.68 1125.92,1319.94 1330.4,1326.36 1534.87,1327.94 1739.34,1328.76 1943.81,1329.66 2148.28,1330.68 2352.76,1331.72 2557.23,1332.67 2761.7,1333.48 2966.17,1334.17 3170.64,1334.75 3375.12,1335.28 3579.59,1335.76 3784.06,1336.19 3988.53,1336.57 4193.01,1336.89 4397.48,1337.17 4601.95,1337.39 4806.42,1337.57 5010.89,1337.71 5215.37,1337.82 5419.84,1337.9 5624.31,1337.95 5828.78,1337.99 6033.25,1338.01 6237.73,1338.02 6442.2,1338.03 6646.67,1338.03 6851.14,1338.03 7055.62,1338.03 7260.09,1338.04 7464.56,1338.04 7669.03,1338.04 7873.5,1338.04 8077.98,1338.05 8282.45,1338.05 8486.92,1338.05 8691.39,1338.05 8895.87,1338.05 9100.34,1338.06 9304.81,1338.06 9509.28,1338.06 9713.75,1338.06 9918.23,1338.06 10122.7,1338.06 10327.2,1338.06 10531.6,1338.06 10736.1,1338.06 10940.6,1338.06 11145.1,1338.06 11349.5,1338.06 11554,1338.06 11758.5,1338.06 11962.9,1338.06 12167.4,1338.06 12371.9,1338.06 12576.4,1338.06 12780.8,1338.06 12985.3,1338.06 13189.8,1338.06 13394.3,1338.06 13598.7,1338.06 13803.2,1338.06 14007.7,1338.06 14212.1,1338.06 14416.6,1338.06 14621.1,1338.06 14825.6,1338.06 15030,1338.06 15234.5,1338.06 15439,1338.06 15643.4,1338.06 15847.9,1338.06 16052.4,1338.06 16256.9,1338.06 16461.3,1338.06 16665.8,1338.06 16870.3,1338.06 17074.8,1338.06 17279.2,1338.06 17483.7,1338.06 17688.2,1338.06 17892.6,1338.06 18097.1,1338.06 18301.6,1338.06 18506.1,1338.06 18710.5,1338.06 18915,1338.06 19119.5,1338.06 19323.9,1338.06 19528.4,1338.06 19732.9,1338.06 19937.4,1338.06 20141.8,1338.06 20346.3,1338.06 20550.8,1338.06 20755.3,1338.06 20959.7,1338.06 21164.2,1338.06 21368.7,1338.06 21573.1,1338.06 21777.6,1338.06 21982.1,1338.06 22186.6,1338.06 22391,1338.06 22595.5,1338.06 22800,1338.06 23004.4,1338.06 23208.9,1338.06 23413.4,1338.06 23617.9,1338.06 23822.3,1338.06 24026.8,1338.06 24231.3,1338.06 24435.8,1338.06 24640.2,1338.06 24844.7,1338.06 25049.2,1338.06 25253.6,1338.06 25458.1,1338.06 25662.6,1338.06 25867.1,1338.06 26071.5,1338.06 26276,1338.06 26480.5,1338.06 26684.9,1338.06 26889.4,1338.06 27093.9,1338.06 27298.4,1338.06 27502.8,1338.06 27707.3,1338.06 27911.8,1338.06 28116.2,1338.06 28320.7,1338.06 28525.2,1338.06 28729.7,1338.06 28934.1,1338.06 29138.6,1338.06 29343.1,1338.06 29547.6,1338.06 29752,1338.06 29956.5,1338.06 30161,1338.06 30365.4,1338.06 30569.9,1338.06 30774.4,1338.06 30978.9,1338.06 31183.3,1338.06 31387.8,1338.06 31592.3,1338.06 31796.7,1338.06 32001.2,1338.06 32205.7,1338.06 32410.2,1338.06 32614.6,1338.06 32819.1,1338.06 33023.6,1338.06 33228.1,1338.06 33432.5,1338.06 33637,1338.06 33841.5,1338.06 34045.9,1338.06 34250.4,1338.06 34454.9,1338.06 34659.4,1338.06 34863.8,1338.06 35068.3,1338.06 35272.8,1338.06 35477.2,1338.06 35681.7,1338.06 35886.2,1338.06 36090.7,1338.06 36295.1,1338.06 36499.6,1338.06 36704.1,1338.06 36908.6,1338.06 37113,1338.06 37317.5,1338.06 37522,1338.06 37726.4,1338.06 37930.9,1338.06 38135.4,1338.06 38339.9,1338.06 38544.3,1338.06 38748.8,1338.06 38953.3,1338.06 39157.7,1338.06 39362.2,1338.06 39566.7,1338.06 39771.2,1338.06 39975.6,1338.06 40180.1,1338.06 40384.6,1338.06 40589.1,1338.06 40793.5,1338.06 40998,1338.06 41202.5,1338.06 41406.9,1338.06 41611.4,1338.06 41815.9,1338.06 42020.4,1338.06 42224.8,1338.06 42429.3,1338.06 42633.8,1338.06 42838.2,1338.06 43042.7,1338.06 43247.2,1338.06 43451.7,1338.06 43656.1,1338.06 43860.6,1338.06 44065.1,1338.06 44269.6,1338.06 44474,1338.06 44678.5,1338.06 44883,1338.06 45087.4,1338.06 45291.9,1338.06 45496.4,1338.06 45700.9,1338.06 45905.3,1338.06 46109.8,1338.06 46314.3,1338.06 46518.7,1338.06 46723.2,1338.06 46927.7,1338.06 47132.2,1338.06 47336.6,1338.06 47541.1,1338.06 47745.6,1338.06 47950.1,1338.06 48154.5,1338.06 48359,1338.06 48563.5,1338.06 48767.9,1338.06 48972.4,1338.06 49176.9,1338.06 49381.4,1338.06 49585.8,1338.06 49790.3,1338.06 49994.8,1338.06 50199.2,1338.06 50403.7,1338.06 50608.2,1338.06 50812.7,1338.06 51017.1,1338.06 51221.6,1338.06 51426.1,1338.06 51630.5,1338.06 51835,1338.06 52039.5,1338.06 52244,1338.06 52448.4,1338.06 52652.9,1338.06 52857.4,1338.06 53061.9,1338.06 53266.3,1338.06 53470.8,1338.06 53675.3,1338.06 53879.7,1338.06 54084.2,1338.06 54288.7,1338.06 54493.2,1338.06 54697.6,1338.06 54902.1,1338.06 55106.6,1338.06 55311,1338.06 55515.5,1338.06 55720,1338.06 55924.5,1338.06 56128.9,1338.06 56333.4,1338.06 56537.9,1338.06 56742.4,1338.06 56946.8,1338.06 57151.3,1338.06 57355.8,1338.06 57560.2,1338.06 57764.7,1338.06 57969.2,1338.06 58173.7,1338.06 58378.1,1338.06 58582.6,1338.06 58787.1,1338.06 58991.5,1338.06 59196,1338.06 59400.5,1338.06 59605,1338.06 59809.4,1338.06 60013.9,1338.06 60218.4,1338.06 60422.9,1338.06 60627.3,1338.06 60831.8,1338.06 61036.3,1338.06 61240.7,1338.06 61445.2,1338.06 61649.7,1338.06 61854.2,1338.06 62058.6,1338.06 62263.1,1338.06 62467.6,1338.06 62672,1338.06 62876.5,1338.06 63081,1338.06 63285.5,1338.06 63489.9,1338.06 63694.4,1338.06 63898.9,1338.06 64103.4,1338.06 64307.8,1338.06 64512.3,1338.06 64716.8,1338.06 64921.2,1338.06 65125.7,1338.06 65330.2,1338.06 65534.7,1338.06 65739.1,1338.06 65943.6,1338.06 66148.1,1338.06 66352.5,1338.06 66557,1338.06 66761.5,1338.06 66966,1338.06 67170.4,1338.06 67374.9,1338.06 67579.4,1338.06 67783.9,1338.06 67988.3,1338.06 68192.8,1338.06 68397.3,1338.06 68601.7,1338.06 68806.2,1338.06 69010.7,1338.06 69215.2,1338.06 69419.6,1338.06 69624.1,1338.06 69828.6,1338.06 70033,1338.06 70237.5,1338.06 70442,1338.06 70646.5,1338.06 70850.9,1338.06 71055.4,1338.06 71259.9,1338.06 71464.3,1338.06 71668.8,1338.06 71873.3,1338.06 72077.8,1338.06 72282.2,1338.06 72486.7,1338.06 72691.2,1338.06 72895.7,1338.06 73100.1,1338.06 73304.6,1338.06 73509.1,1338.06 73713.5,1338.06 73918,1338.06 74122.5,1338.06 74327,1338.06 74531.4,1338.06 74735.9,1338.06 74940.4,1338.06 75144.8,1338.06 75349.3,1338.06 75553.8,1338.06 75758.3,1338.06 75962.7,1338.06 76167.2,1338.06 76371.7,1338.06 76576.2,1338.06 76780.6,1338.06 76985.1,1338.06 77189.6,1338.06 77394,1338.06 77598.5,1338.06 77803,1338.06 78007.5,1338.06 78211.9,1338.06 78416.4,1338.06 78620.9,1338.06 78825.3,1338.06 79029.8,1338.06 79234.3,1338.06 79438.8,1338.06 79643.2,1338.06 79847.7,1338.06 80052.2,1338.06 80256.7,1338.06 80461.1,1338.06 80665.6,1338.06 80870.1,1338.06 81074.5,1338.06 81279,1338.06 81483.5,1338.06 81688,1338.06 81892.4,1338.06 82096.9,1338.06 82301.4,1338.06 82505.8,1338.06 82710.3,1338.06 82914.8,1338.06 83119.3,1338.06 83323.7,1338.06 83528.2,1338.06 83732.7,1338.06 83937.2,1338.06 84141.6,1338.06 84346.1,1338.06 84550.6,1338.06 84755,1338.06 84959.5,1338.06 85164,1338.06 85368.5,1338.06 85572.9,1338.06 85777.4,1338.06 85981.9,1338.06 86186.3,1338.06 86390.8,1338.06 86595.3,1338.06 86799.8,1338.06 87004.2,1338.06 87208.7,1338.06 87413.2,1338.06 87617.7,1338.06 87822.1,1338.06 88026.6,1338.06 88231.1,1338.06 88435.5,1338.06 88640,1338.06 88844.5,1338.06 89049,1338.06 89253.4,1338.06 89457.9,1338.06 89662.4,1338.06 89866.8,1338.06 90071.3,1338.06 90275.8,1338.06 90480.3,1338.06 90684.7,1338.06 90889.2,1338.06 91093.7,1338.06 91298.2,1338.06 91502.6,1338.06 91707.1,1338.06 91911.6,1338.06 92116,1338.06 92320.5,1338.06 92525,1338.06 92729.5,1338.06 92933.9,1338.06 93138.4,1338.06 93342.9,1338.06 93547.3,1338.06 93751.8,1338.06 93956.3,1338.06 94160.8,1338.06 94365.2,1338.06 94569.7,1338.06 94774.2,1338.06 94978.6,1338.06 95183.1,1338.06 95387.6,1338.06 95592.1,1338.06 95796.5,1338.06 96001,1338.06 96205.5,1338.06 96410,1338.06 96614.4,1338.06 96818.9,1338.06 97023.4,1338.06 97227.8,1338.06 97432.3,1338.06 97636.8,1338.06 97841.3,1338.06 98045.7,1338.06 98250.2,1338.06 98454.7,1338.06 98659.1,1338.06 98863.6,1338.06 99068.1,1338.06 99272.6,1338.06 99477,1338.06 99681.5,1338.06 99886,1338.06 100090,1338.06 100295,1338.06 100499,1338.06 100704,1338.06 100908,1338.06 101113,1338.06 101317,1338.06 101522,1338.06 101726,1338.06 101931,1338.06 102135,1338.06 102340,1338.06 102544,1338.06 "/>
<polyline clip-path="url(#clip451)" style="stroke:#3da44d; stroke-linecap:round; stroke-linejoin:round; stroke-width:8; stroke-opacity:1; fill:none" points="308.034,84.8408 512.506,760.37 716.979,1287.18 921.451,1324.58 1125.92,1325.03 1330.4,1325.97 1534.87,1327.27 1739.34,1328.68 1943.81,1330.08 2148.28,1331.37 2352.76,1332.53 2557.23,1333.52 2761.7,1334.34 2966.17,1335.02 3170.64,1335.58 3375.12,1336.07 3579.59,1336.52 3784.06,1336.91 3988.53,1337.25 4193.01,1337.52 4397.48,1337.72 4601.95,1337.86 4806.42,1337.96 5010.89,1338.01 5215.37,1338.04 5419.84,1338.05 5624.31,1338.05 5828.78,1338.05 6033.25,1338.05 6237.73,1338.05 6442.2,1338.05 6646.67,1338.06 6851.14,1338.06 7055.62,1338.06 7260.09,1338.06 7464.56,1338.06 7669.03,1338.06 7873.5,1338.06 8077.98,1338.06 8282.45,1338.06 8486.92,1338.06 8691.39,1338.06 8895.87,1338.06 9100.34,1338.06 9304.81,1338.06 9509.28,1338.06 9713.75,1338.06 9918.23,1338.06 10122.7,1338.06 10327.2,1338.06 10531.6,1338.06 10736.1,1338.06 10940.6,1338.06 11145.1,1338.06 11349.5,1338.06 11554,1338.06 11758.5,1338.06 11962.9,1338.06 12167.4,1338.06 12371.9,1338.06 12576.4,1338.06 12780.8,1338.06 12985.3,1338.06 13189.8,1338.06 13394.3,1338.06 13598.7,1338.06 13803.2,1338.06 14007.7,1338.06 14212.1,1338.06 14416.6,1338.06 14621.1,1338.06 14825.6,1338.06 15030,1338.06 15234.5,1338.06 15439,1338.06 15643.4,1338.06 15847.9,1338.06 16052.4,1338.06 16256.9,1338.06 16461.3,1338.06 16665.8,1338.06 16870.3,1338.06 17074.8,1338.06 17279.2,1338.06 17483.7,1338.06 17688.2,1338.06 17892.6,1338.06 18097.1,1338.06 18301.6,1338.06 18506.1,1338.06 18710.5,1338.06 18915,1338.06 19119.5,1338.06 19323.9,1338.06 19528.4,1338.06 19732.9,1338.06 19937.4,1338.06 20141.8,1338.06 20346.3,1338.06 20550.8,1338.06 20755.3,1338.06 20959.7,1338.06 21164.2,1338.06 21368.7,1338.06 21573.1,1338.06 21777.6,1338.06 21982.1,1338.06 22186.6,1338.06 22391,1338.06 22595.5,1338.06 22800,1338.06 23004.4,1338.06 23208.9,1338.06 23413.4,1338.06 23617.9,1338.06 23822.3,1338.06 24026.8,1338.06 24231.3,1338.06 24435.8,1338.06 24640.2,1338.06 24844.7,1338.06 25049.2,1338.06 25253.6,1338.06 25458.1,1338.06 25662.6,1338.06 25867.1,1338.06 26071.5,1338.06 26276,1338.06 26480.5,1338.06 26684.9,1338.06 26889.4,1338.06 27093.9,1338.06 27298.4,1338.06 27502.8,1338.06 27707.3,1338.06 27911.8,1338.06 28116.2,1338.06 28320.7,1338.06 28525.2,1338.06 28729.7,1338.06 28934.1,1338.06 29138.6,1338.06 29343.1,1338.06 29547.6,1338.06 29752,1338.06 29956.5,1338.06 30161,1338.06 30365.4,1338.06 30569.9,1338.06 30774.4,1338.06 30978.9,1338.06 31183.3,1338.06 31387.8,1338.06 31592.3,1338.06 31796.7,1338.06 32001.2,1338.06 32205.7,1338.06 32410.2,1338.06 32614.6,1338.06 32819.1,1338.06 33023.6,1338.06 33228.1,1338.06 33432.5,1338.06 33637,1338.06 33841.5,1338.06 34045.9,1338.06 34250.4,1338.06 34454.9,1338.06 34659.4,1338.06 34863.8,1338.06 35068.3,1338.06 35272.8,1338.06 35477.2,1338.06 35681.7,1338.06 35886.2,1338.06 36090.7,1338.06 36295.1,1338.06 36499.6,1338.06 36704.1,1338.06 36908.6,1338.06 37113,1338.06 37317.5,1338.06 37522,1338.06 37726.4,1338.06 37930.9,1338.06 38135.4,1338.06 38339.9,1338.06 38544.3,1338.06 38748.8,1338.06 38953.3,1338.06 39157.7,1338.06 39362.2,1338.06 39566.7,1338.06 39771.2,1338.06 39975.6,1338.06 40180.1,1338.06 40384.6,1338.06 40589.1,1338.06 40793.5,1338.06 40998,1338.06 41202.5,1338.06 41406.9,1338.06 41611.4,1338.06 41815.9,1338.06 42020.4,1338.06 42224.8,1338.06 42429.3,1338.06 42633.8,1338.06 42838.2,1338.06 43042.7,1338.06 43247.2,1338.06 43451.7,1338.06 43656.1,1338.06 43860.6,1338.06 44065.1,1338.06 44269.6,1338.06 44474,1338.06 44678.5,1338.06 44883,1338.06 45087.4,1338.06 45291.9,1338.06 45496.4,1338.06 45700.9,1338.06 45905.3,1338.06 46109.8,1338.06 46314.3,1338.06 46518.7,1338.06 46723.2,1338.06 46927.7,1338.06 47132.2,1338.06 47336.6,1338.06 47541.1,1338.06 47745.6,1338.06 47950.1,1338.06 48154.5,1338.06 48359,1338.06 48563.5,1338.06 48767.9,1338.06 48972.4,1338.06 49176.9,1338.06 49381.4,1338.06 49585.8,1338.06 49790.3,1338.06 49994.8,1338.06 50199.2,1338.06 50403.7,1338.06 50608.2,1338.06 50812.7,1338.06 51017.1,1338.06 51221.6,1338.06 51426.1,1338.06 51630.5,1338.06 51835,1338.06 52039.5,1338.06 52244,1338.06 52448.4,1338.06 52652.9,1338.06 52857.4,1338.06 53061.9,1338.06 53266.3,1338.06 53470.8,1338.06 53675.3,1338.06 53879.7,1338.06 54084.2,1338.06 54288.7,1338.06 54493.2,1338.06 54697.6,1338.06 54902.1,1338.06 55106.6,1338.06 55311,1338.06 55515.5,1338.06 55720,1338.06 55924.5,1338.06 56128.9,1338.06 56333.4,1338.06 56537.9,1338.06 56742.4,1338.06 56946.8,1338.06 57151.3,1338.06 57355.8,1338.06 57560.2,1338.06 57764.7,1338.06 57969.2,1338.06 58173.7,1338.06 58378.1,1338.06 58582.6,1338.06 58787.1,1338.06 58991.5,1338.06 59196,1338.06 59400.5,1338.06 59605,1338.06 59809.4,1338.06 60013.9,1338.06 60218.4,1338.06 60422.9,1338.06 60627.3,1338.06 60831.8,1338.06 61036.3,1338.06 61240.7,1338.06 61445.2,1338.06 61649.7,1338.06 61854.2,1338.06 62058.6,1338.06 62263.1,1338.06 62467.6,1338.06 62672,1338.06 62876.5,1338.06 63081,1338.06 63285.5,1338.06 63489.9,1338.06 63694.4,1338.06 63898.9,1338.06 64103.4,1338.06 64307.8,1338.06 64512.3,1338.06 64716.8,1338.06 64921.2,1338.06 65125.7,1338.06 65330.2,1338.06 65534.7,1338.06 65739.1,1338.06 65943.6,1338.06 66148.1,1338.06 66352.5,1338.06 66557,1338.06 66761.5,1338.06 66966,1338.06 67170.4,1338.06 67374.9,1338.06 67579.4,1338.06 67783.9,1338.06 67988.3,1338.06 68192.8,1338.06 68397.3,1338.06 68601.7,1338.06 68806.2,1338.06 69010.7,1338.06 69215.2,1338.06 69419.6,1338.06 69624.1,1338.06 69828.6,1338.06 70033,1338.06 70237.5,1338.06 70442,1338.06 70646.5,1338.06 70850.9,1338.06 71055.4,1338.06 71259.9,1338.06 71464.3,1338.06 71668.8,1338.06 71873.3,1338.06 72077.8,1338.06 72282.2,1338.06 72486.7,1338.06 72691.2,1338.06 72895.7,1338.06 73100.1,1338.06 73304.6,1338.06 73509.1,1338.06 73713.5,1338.06 73918,1338.06 74122.5,1338.06 74327,1338.06 74531.4,1338.06 74735.9,1338.06 74940.4,1338.06 75144.8,1338.06 75349.3,1338.06 75553.8,1338.06 75758.3,1338.06 75962.7,1338.06 76167.2,1338.06 76371.7,1338.06 76576.2,1338.06 76780.6,1338.06 76985.1,1338.06 77189.6,1338.06 77394,1338.06 77598.5,1338.06 77803,1338.06 78007.5,1338.06 78211.9,1338.06 78416.4,1338.06 78620.9,1338.06 78825.3,1338.06 79029.8,1338.06 79234.3,1338.06 79438.8,1338.06 79643.2,1338.06 79847.7,1338.06 80052.2,1338.06 80256.7,1338.06 80461.1,1338.06 80665.6,1338.06 80870.1,1338.06 81074.5,1338.06 81279,1338.06 81483.5,1338.06 81688,1338.06 81892.4,1338.06 82096.9,1338.06 82301.4,1338.06 82505.8,1338.06 82710.3,1338.06 82914.8,1338.06 83119.3,1338.06 83323.7,1338.06 83528.2,1338.06 83732.7,1338.06 83937.2,1338.06 84141.6,1338.06 84346.1,1338.06 84550.6,1338.06 84755,1338.06 84959.5,1338.06 85164,1338.06 85368.5,1338.06 85572.9,1338.06 85777.4,1338.06 85981.9,1338.06 86186.3,1338.06 86390.8,1338.06 86595.3,1338.06 86799.8,1338.06 87004.2,1338.06 87208.7,1338.06 87413.2,1338.06 87617.7,1338.06 87822.1,1338.06 88026.6,1338.06 88231.1,1338.06 88435.5,1338.06 88640,1338.06 88844.5,1338.06 89049,1338.06 89253.4,1338.06 89457.9,1338.06 89662.4,1338.06 89866.8,1338.06 90071.3,1338.06 90275.8,1338.06 90480.3,1338.06 90684.7,1338.06 90889.2,1338.06 91093.7,1338.06 91298.2,1338.06 91502.6,1338.06 91707.1,1338.06 91911.6,1338.06 92116,1338.06 92320.5,1338.06 92525,1338.06 92729.5,1338.06 92933.9,1338.06 93138.4,1338.06 93342.9,1338.06 93547.3,1338.06 93751.8,1338.06 93956.3,1338.06 94160.8,1338.06 94365.2,1338.06 94569.7,1338.06 94774.2,1338.06 94978.6,1338.06 95183.1,1338.06 95387.6,1338.06 95592.1,1338.06 95796.5,1338.06 96001,1338.06 96205.5,1338.06 96410,1338.06 96614.4,1338.06 96818.9,1338.06 97023.4,1338.06 97227.8,1338.06 97432.3,1338.06 97636.8,1338.06 97841.3,1338.06 98045.7,1338.06 98250.2,1338.06 98454.7,1338.06 98659.1,1338.06 98863.6,1338.06 99068.1,1338.06 99272.6,1338.06 99477,1338.06 99681.5,1338.06 99886,1338.06 100090,1338.06 100295,1338.06 100499,1338.06 100704,1338.06 100908,1338.06 101113,1338.06 101317,1338.06 101522,1338.06 101726,1338.06 101931,1338.06 102135,1338.06 102340,1338.06 102544,1338.06 "/>
<path clip-path="url(#clip450)" d="M1296.07 558.085 L2284.6 558.085 L2284.6 91.5246 L1296.07 91.5246  Z" fill="#ffffff" fill-rule="evenodd" fill-opacity="1"/>
<polyline clip-path="url(#clip450)" style="stroke:#000000; stroke-linecap:round; stroke-linejoin:round; stroke-width:4; stroke-opacity:1; fill:none" points="1296.07,558.085 2284.6,558.085 2284.6,91.5246 1296.07,91.5246 1296.07,558.085 "/>
<polyline clip-path="url(#clip450)" style="stroke:#009af9; stroke-linecap:round; stroke-linejoin:round; stroke-width:18; stroke-opacity:1; fill:none" points="1318.79,208.165 1455.1,208.165 "/>
<path clip-path="url(#clip450)" d="M1535.32 235.951 L1535.32 215.066 L1518.13 215.066 L1518.13 206.42 L1545.74 206.42 L1545.74 239.805 Q1539.64 244.128 1532.3 246.368 Q1524.96 248.555 1516.62 248.555 Q1498.39 248.555 1488.08 237.93 Q1477.82 227.253 1477.82 208.243 Q1477.82 189.18 1488.08 178.555 Q1498.39 167.878 1516.62 167.878 Q1524.23 167.878 1531.05 169.753 Q1537.92 171.628 1543.71 175.274 L1543.71 186.472 Q1537.87 181.524 1531.31 179.024 Q1524.75 176.524 1517.51 176.524 Q1503.24 176.524 1496.05 184.493 Q1488.91 192.462 1488.91 208.243 Q1488.91 223.972 1496.05 231.941 Q1503.24 239.909 1517.51 239.909 Q1523.08 239.909 1527.46 238.972 Q1531.83 237.982 1535.32 235.951 Z" fill="#000000" fill-rule="nonzero" fill-opacity="1" /><path clip-path="url(#clip450)" d="M1575.48 177.93 L1575.48 238.399 L1588.19 238.399 Q1604.28 238.399 1611.73 231.107 Q1619.23 223.816 1619.23 208.086 Q1619.23 192.462 1611.73 185.222 Q1604.28 177.93 1588.19 177.93 L1575.48 177.93 M1564.96 169.285 L1586.57 169.285 Q1609.17 169.285 1619.75 178.712 Q1630.32 188.087 1630.32 208.086 Q1630.32 228.191 1619.7 237.618 Q1609.07 247.045 1586.57 247.045 L1564.96 247.045 L1564.96 169.285 Z" fill="#000000" fill-rule="nonzero" fill-opacity="1" /><path clip-path="url(#clip450)" d="M1703.6 166.108 Q1696.62 178.087 1693.24 189.805 Q1689.85 201.524 1689.85 213.555 Q1689.85 225.586 1693.24 237.409 Q1696.67 249.18 1703.6 261.107 L1695.27 261.107 Q1687.46 248.868 1683.55 237.045 Q1679.7 225.222 1679.7 213.555 Q1679.7 201.941 1683.55 190.17 Q1687.4 178.399 1695.27 166.108 L1703.6 166.108 Z" fill="#000000" fill-rule="nonzero" fill-opacity="1" /><path clip-path="url(#clip450)" d="M1756 197.67 Q1754.38 196.732 1752.46 196.316 Q1750.58 195.847 1748.29 195.847 Q1740.16 195.847 1735.79 201.159 Q1731.47 206.42 1731.47 216.316 L1731.47 247.045 L1721.83 247.045 L1721.83 188.712 L1731.47 188.712 L1731.47 197.774 Q1734.49 192.462 1739.33 189.91 Q1744.17 187.305 1751.1 187.305 Q1752.09 187.305 1753.29 187.462 Q1754.49 187.566 1755.94 187.826 L1756 197.67 Z" fill="#000000" fill-rule="nonzero" fill-opacity="1" /><path clip-path="url(#clip450)" d="M1813.6 215.482 L1813.6 220.17 L1769.54 220.17 Q1770.16 230.066 1775.48 235.274 Q1780.84 240.43 1790.37 240.43 Q1795.89 240.43 1801.05 239.076 Q1806.26 237.722 1811.36 235.013 L1811.36 244.076 Q1806.2 246.263 1800.79 247.409 Q1795.37 248.555 1789.8 248.555 Q1775.84 248.555 1767.66 240.43 Q1759.54 232.305 1759.54 218.451 Q1759.54 204.128 1767.25 195.743 Q1775.01 187.305 1788.13 187.305 Q1799.9 187.305 1806.73 194.909 Q1813.6 202.462 1813.6 215.482 M1804.02 212.67 Q1803.91 204.805 1799.59 200.118 Q1795.32 195.43 1788.24 195.43 Q1780.22 195.43 1775.37 199.962 Q1770.58 204.493 1769.85 212.722 L1804.02 212.67 Z" fill="#000000" fill-rule="nonzero" fill-opacity="1" /><path clip-path="url(#clip450)" d="M1866.52 190.43 L1866.52 199.493 Q1862.45 197.409 1858.08 196.368 Q1853.7 195.326 1849.02 195.326 Q1841.88 195.326 1838.29 197.514 Q1834.75 199.701 1834.75 204.076 Q1834.75 207.409 1837.3 209.336 Q1839.85 211.211 1847.56 212.93 L1850.84 213.659 Q1861.05 215.847 1865.32 219.857 Q1869.64 223.816 1869.64 230.951 Q1869.64 239.076 1863.18 243.815 Q1856.78 248.555 1845.53 248.555 Q1840.84 248.555 1835.74 247.618 Q1830.68 246.732 1825.06 244.909 L1825.06 235.013 Q1830.37 237.774 1835.53 239.18 Q1840.68 240.534 1845.74 240.534 Q1852.51 240.534 1856.15 238.243 Q1859.8 235.899 1859.8 231.68 Q1859.8 227.774 1857.14 225.691 Q1854.54 223.607 1845.63 221.68 L1842.3 220.899 Q1833.39 219.024 1829.43 215.17 Q1825.48 211.264 1825.48 204.493 Q1825.48 196.264 1831.31 191.784 Q1837.14 187.305 1847.87 187.305 Q1853.18 187.305 1857.87 188.087 Q1862.56 188.868 1866.52 190.43 Z" fill="#000000" fill-rule="nonzero" fill-opacity="1" /><path clip-path="url(#clip450)" d="M1894.38 172.149 L1894.38 188.712 L1914.12 188.712 L1914.12 196.159 L1894.38 196.159 L1894.38 227.826 Q1894.38 234.961 1896.31 236.993 Q1898.29 239.024 1904.28 239.024 L1914.12 239.024 L1914.12 247.045 L1904.28 247.045 Q1893.18 247.045 1888.96 242.93 Q1884.75 238.763 1884.75 227.826 L1884.75 196.159 L1877.71 196.159 L1877.71 188.712 L1884.75 188.712 L1884.75 172.149 L1894.38 172.149 Z" fill="#000000" fill-rule="nonzero" fill-opacity="1" /><path clip-path="url(#clip450)" d="M1953.24 217.722 Q1941.62 217.722 1937.14 220.378 Q1932.66 223.034 1932.66 229.441 Q1932.66 234.545 1936 237.566 Q1939.38 240.534 1945.16 240.534 Q1953.13 240.534 1957.92 234.909 Q1962.77 229.232 1962.77 219.857 L1962.77 217.722 L1953.24 217.722 M1972.35 213.764 L1972.35 247.045 L1962.77 247.045 L1962.77 238.191 Q1959.49 243.503 1954.59 246.055 Q1949.69 248.555 1942.61 248.555 Q1933.65 248.555 1928.34 243.555 Q1923.08 238.503 1923.08 230.066 Q1923.08 220.222 1929.64 215.222 Q1936.26 210.222 1949.33 210.222 L1962.77 210.222 L1962.77 209.284 Q1962.77 202.67 1958.39 199.076 Q1954.07 195.43 1946.2 195.43 Q1941.2 195.43 1936.46 196.628 Q1931.72 197.826 1927.35 200.222 L1927.35 191.368 Q1932.61 189.337 1937.56 188.347 Q1942.51 187.305 1947.19 187.305 Q1959.85 187.305 1966.1 193.868 Q1972.35 200.43 1972.35 213.764 Z" fill="#000000" fill-rule="nonzero" fill-opacity="1" /><path clip-path="url(#clip450)" d="M2025.89 197.67 Q2024.28 196.732 2022.35 196.316 Q2020.47 195.847 2018.18 195.847 Q2010.06 195.847 2005.68 201.159 Q2001.36 206.42 2001.36 216.316 L2001.36 247.045 L1991.72 247.045 L1991.72 188.712 L2001.36 188.712 L2001.36 197.774 Q2004.38 192.462 2009.22 189.91 Q2014.07 187.305 2021 187.305 Q2021.98 187.305 2023.18 187.462 Q2024.38 187.566 2025.84 187.826 L2025.89 197.67 Z" fill="#000000" fill-rule="nonzero" fill-opacity="1" /><path clip-path="url(#clip450)" d="M2045.42 172.149 L2045.42 188.712 L2065.16 188.712 L2065.16 196.159 L2045.42 196.159 L2045.42 227.826 Q2045.42 234.961 2047.35 236.993 Q2049.33 239.024 2055.32 239.024 L2065.16 239.024 L2065.16 247.045 L2055.32 247.045 Q2044.22 247.045 2040.01 242.93 Q2035.79 238.763 2035.79 227.826 L2035.79 196.159 L2028.76 196.159 L2028.76 188.712 L2035.79 188.712 L2035.79 172.149 L2045.42 172.149 Z" fill="#000000" fill-rule="nonzero" fill-opacity="1" /><path clip-path="url(#clip450)" d="M2076.26 166.108 L2084.59 166.108 Q2092.4 178.399 2096.26 190.17 Q2100.16 201.941 2100.16 213.555 Q2100.16 225.222 2096.26 237.045 Q2092.4 248.868 2084.59 261.107 L2076.26 261.107 Q2083.18 249.18 2086.57 237.409 Q2090.01 225.586 2090.01 213.555 Q2090.01 201.524 2086.57 189.805 Q2083.18 178.087 2076.26 166.108 Z" fill="#000000" fill-rule="nonzero" fill-opacity="1" /><polyline clip-path="url(#clip450)" style="stroke:#e26f46; stroke-linecap:round; stroke-linejoin:round; stroke-width:18; stroke-opacity:1; fill:none" points="1318.79,324.805 1455.1,324.805 "/>
<path clip-path="url(#clip450)" d="M1477.82 285.925 L1522.51 285.925 L1522.51 294.779 L1488.34 294.779 L1488.34 317.695 L1519.18 317.695 L1519.18 326.549 L1488.34 326.549 L1488.34 363.685 L1477.82 363.685 L1477.82 285.925 Z" fill="#000000" fill-rule="nonzero" fill-opacity="1" /><path clip-path="url(#clip450)" d="M1592.2 352.591 L1592.2 331.706 L1575.01 331.706 L1575.01 323.06 L1602.61 323.06 L1602.61 356.445 Q1596.52 360.768 1589.17 363.008 Q1581.83 365.195 1573.5 365.195 Q1555.27 365.195 1544.96 354.57 Q1534.7 343.893 1534.7 324.883 Q1534.7 305.82 1544.96 295.195 Q1555.27 284.518 1573.5 284.518 Q1581.1 284.518 1587.92 286.393 Q1594.8 288.268 1600.58 291.914 L1600.58 303.112 Q1594.75 298.164 1588.19 295.664 Q1581.62 293.164 1574.38 293.164 Q1560.11 293.164 1552.92 301.133 Q1545.79 309.102 1545.79 324.883 Q1545.79 340.612 1552.92 348.581 Q1560.11 356.549 1574.38 356.549 Q1579.96 356.549 1584.33 355.612 Q1588.71 354.622 1592.2 352.591 Z" fill="#000000" fill-rule="nonzero" fill-opacity="1" /><path clip-path="url(#clip450)" d="M1621.83 285.925 L1637.51 285.925 L1657.35 338.841 L1677.3 285.925 L1692.98 285.925 L1692.98 363.685 L1682.72 363.685 L1682.72 295.404 L1662.66 348.737 L1652.09 348.737 L1632.04 295.404 L1632.04 363.685 L1621.83 363.685 L1621.83 285.925 Z" fill="#000000" fill-rule="nonzero" fill-opacity="1" /><path clip-path="url(#clip450)" d="M1770.37 282.748 Q1763.39 294.727 1760.01 306.445 Q1756.62 318.164 1756.62 330.195 Q1756.62 342.226 1760.01 354.049 Q1763.44 365.82 1770.37 377.747 L1762.04 377.747 Q1754.23 365.508 1750.32 353.685 Q1746.47 341.862 1746.47 330.195 Q1746.47 318.581 1750.32 306.81 Q1754.17 295.039 1762.04 282.748 L1770.37 282.748 Z" fill="#000000" fill-rule="nonzero" fill-opacity="1" /><path clip-path="url(#clip450)" d="M1822.77 314.31 Q1821.15 313.372 1819.23 312.956 Q1817.35 312.487 1815.06 312.487 Q1806.93 312.487 1802.56 317.799 Q1798.24 323.06 1798.24 332.956 L1798.24 363.685 L1788.6 363.685 L1788.6 305.352 L1798.24 305.352 L1798.24 314.414 Q1801.26 309.102 1806.1 306.55 Q1810.94 303.945 1817.87 303.945 Q1818.86 303.945 1820.06 304.102 Q1821.26 304.206 1822.72 304.466 L1822.77 314.31 Z" fill="#000000" fill-rule="nonzero" fill-opacity="1" /><path clip-path="url(#clip450)" d="M1880.37 332.122 L1880.37 336.81 L1836.31 336.81 Q1836.93 346.706 1842.25 351.914 Q1847.61 357.07 1857.14 357.07 Q1862.66 357.07 1867.82 355.716 Q1873.03 354.362 1878.13 351.653 L1878.13 360.716 Q1872.98 362.903 1867.56 364.049 Q1862.14 365.195 1856.57 365.195 Q1842.61 365.195 1834.43 357.07 Q1826.31 348.945 1826.31 335.091 Q1826.31 320.768 1834.02 312.383 Q1841.78 303.945 1854.9 303.945 Q1866.67 303.945 1873.5 311.549 Q1880.37 319.102 1880.37 332.122 M1870.79 329.31 Q1870.68 321.445 1866.36 316.758 Q1862.09 312.07 1855.01 312.07 Q1846.99 312.07 1842.14 316.602 Q1837.35 321.133 1836.62 329.362 L1870.79 329.31 Z" fill="#000000" fill-rule="nonzero" fill-opacity="1" /><path clip-path="url(#clip450)" d="M1933.29 307.07 L1933.29 316.133 Q1929.22 314.049 1924.85 313.008 Q1920.47 311.966 1915.79 311.966 Q1908.65 311.966 1905.06 314.154 Q1901.52 316.341 1901.52 320.716 Q1901.52 324.049 1904.07 325.976 Q1906.62 327.851 1914.33 329.57 L1917.61 330.299 Q1927.82 332.487 1932.09 336.497 Q1936.41 340.456 1936.41 347.591 Q1936.41 355.716 1929.95 360.455 Q1923.55 365.195 1912.3 365.195 Q1907.61 365.195 1902.51 364.258 Q1897.45 363.372 1891.83 361.549 L1891.83 351.653 Q1897.14 354.414 1902.3 355.82 Q1907.45 357.174 1912.51 357.174 Q1919.28 357.174 1922.92 354.883 Q1926.57 352.539 1926.57 348.32 Q1926.57 344.414 1923.91 342.331 Q1921.31 340.247 1912.4 338.32 L1909.07 337.539 Q1900.16 335.664 1896.2 331.81 Q1892.25 327.904 1892.25 321.133 Q1892.25 312.904 1898.08 308.424 Q1903.91 303.945 1914.64 303.945 Q1919.95 303.945 1924.64 304.727 Q1929.33 305.508 1933.29 307.07 Z" fill="#000000" fill-rule="nonzero" fill-opacity="1" /><path clip-path="url(#clip450)" d="M1961.15 288.789 L1961.15 305.352 L1980.89 305.352 L1980.89 312.799 L1961.15 312.799 L1961.15 344.466 Q1961.15 351.601 1963.08 353.633 Q1965.06 355.664 1971.05 355.664 L1980.89 355.664 L1980.89 363.685 L1971.05 363.685 Q1959.95 363.685 1955.74 359.57 Q1951.52 355.403 1951.52 344.466 L1951.52 312.799 L1944.49 312.799 L1944.49 305.352 L1951.52 305.352 L1951.52 288.789 L1961.15 288.789 Z" fill="#000000" fill-rule="nonzero" fill-opacity="1" /><path clip-path="url(#clip450)" d="M2020.01 334.362 Q2008.39 334.362 2003.91 337.018 Q1999.43 339.674 1999.43 346.081 Q1999.43 351.185 2002.77 354.206 Q2006.15 357.174 2011.93 357.174 Q2019.9 357.174 2024.69 351.549 Q2029.54 345.872 2029.54 336.497 L2029.54 334.362 L2020.01 334.362 M2039.12 330.404 L2039.12 363.685 L2029.54 363.685 L2029.54 354.831 Q2026.26 360.143 2021.36 362.695 Q2016.46 365.195 2009.38 365.195 Q2000.42 365.195 1995.11 360.195 Q1989.85 355.143 1989.85 346.706 Q1989.85 336.862 1996.41 331.862 Q2003.03 326.862 2016.1 326.862 L2029.54 326.862 L2029.54 325.924 Q2029.54 319.31 2025.16 315.716 Q2020.84 312.07 2012.97 312.07 Q2007.97 312.07 2003.23 313.268 Q1998.5 314.466 1994.12 316.862 L1994.12 308.008 Q1999.38 305.977 2004.33 304.987 Q2009.28 303.945 2013.96 303.945 Q2026.62 303.945 2032.87 310.508 Q2039.12 317.07 2039.12 330.404 Z" fill="#000000" fill-rule="nonzero" fill-opacity="1" /><path clip-path="url(#clip450)" d="M2092.66 314.31 Q2091.05 313.372 2089.12 312.956 Q2087.24 312.487 2084.95 312.487 Q2076.83 312.487 2072.45 317.799 Q2068.13 323.06 2068.13 332.956 L2068.13 363.685 L2058.5 363.685 L2058.5 305.352 L2068.13 305.352 L2068.13 314.414 Q2071.15 309.102 2075.99 306.55 Q2080.84 303.945 2087.77 303.945 Q2088.76 303.945 2089.95 304.102 Q2091.15 304.206 2092.61 304.466 L2092.66 314.31 Z" fill="#000000" fill-rule="nonzero" fill-opacity="1" /><path clip-path="url(#clip450)" d="M2112.19 288.789 L2112.19 305.352 L2131.93 305.352 L2131.93 312.799 L2112.19 312.799 L2112.19 344.466 Q2112.19 351.601 2114.12 353.633 Q2116.1 355.664 2122.09 355.664 L2131.93 355.664 L2131.93 363.685 L2122.09 363.685 Q2110.99 363.685 2106.78 359.57 Q2102.56 355.403 2102.56 344.466 L2102.56 312.799 L2095.53 312.799 L2095.53 305.352 L2102.56 305.352 L2102.56 288.789 L2112.19 288.789 Z" fill="#000000" fill-rule="nonzero" fill-opacity="1" /><path clip-path="url(#clip450)" d="M2143.03 282.748 L2151.36 282.748 Q2159.17 295.039 2163.03 306.81 Q2166.93 318.581 2166.93 330.195 Q2166.93 341.862 2163.03 353.685 Q2159.17 365.508 2151.36 377.747 L2143.03 377.747 Q2149.95 365.82 2153.34 354.049 Q2156.78 342.226 2156.78 330.195 Q2156.78 318.164 2153.34 306.445 Q2149.95 294.727 2143.03 282.748 Z" fill="#000000" fill-rule="nonzero" fill-opacity="1" /><polyline clip-path="url(#clip450)" style="stroke:#3da44d; stroke-linecap:round; stroke-linejoin:round; stroke-width:18; stroke-opacity:1; fill:none" points="1318.79,441.445 1455.1,441.445 "/>
<path clip-path="url(#clip450)" d="M1513.86 409.7 Q1502.4 409.7 1495.63 418.242 Q1488.91 426.783 1488.91 441.523 Q1488.91 456.21 1495.63 464.752 Q1502.4 473.293 1513.86 473.293 Q1525.32 473.293 1531.99 464.752 Q1538.71 456.21 1538.71 441.523 Q1538.71 426.783 1531.99 418.242 Q1525.32 409.7 1513.86 409.7 M1513.86 401.158 Q1530.22 401.158 1540.01 412.148 Q1549.8 423.085 1549.8 441.523 Q1549.8 459.908 1540.01 470.898 Q1530.22 481.835 1513.86 481.835 Q1497.46 481.835 1487.61 470.898 Q1477.82 459.96 1477.82 441.523 Q1477.82 423.085 1487.61 412.148 Q1497.46 401.158 1513.86 401.158 Z" fill="#000000" fill-rule="nonzero" fill-opacity="1" /><path clip-path="url(#clip450)" d="M1619.28 469.231 L1619.28 448.346 L1602.09 448.346 L1602.09 439.7 L1629.7 439.7 L1629.7 473.085 Q1623.6 477.408 1616.26 479.648 Q1608.91 481.835 1600.58 481.835 Q1582.35 481.835 1572.04 471.21 Q1561.78 460.533 1561.78 441.523 Q1561.78 422.46 1572.04 411.835 Q1582.35 401.158 1600.58 401.158 Q1608.18 401.158 1615.01 403.033 Q1621.88 404.908 1627.66 408.554 L1627.66 419.752 Q1621.83 414.804 1615.27 412.304 Q1608.71 409.804 1601.47 409.804 Q1587.2 409.804 1580.01 417.773 Q1572.87 425.742 1572.87 441.523 Q1572.87 457.252 1580.01 465.221 Q1587.2 473.189 1601.47 473.189 Q1607.04 473.189 1611.41 472.252 Q1615.79 471.262 1619.28 469.231 Z" fill="#000000" fill-rule="nonzero" fill-opacity="1" /><path clip-path="url(#clip450)" d="M1648.91 402.565 L1664.59 402.565 L1684.43 455.481 L1704.38 402.565 L1720.06 402.565 L1720.06 480.325 L1709.8 480.325 L1709.8 412.044 L1689.75 465.377 L1679.17 465.377 L1659.12 412.044 L1659.12 480.325 L1648.91 480.325 L1648.91 402.565 Z" fill="#000000" fill-rule="nonzero" fill-opacity="1" /><path clip-path="url(#clip450)" d="M1743.71 471.471 L1760.89 471.471 L1760.89 412.148 L1742.19 415.898 L1742.19 406.315 L1760.79 402.565 L1771.31 402.565 L1771.31 471.471 L1788.5 471.471 L1788.5 480.325 L1743.71 480.325 L1743.71 471.471 Z" fill="#000000" fill-rule="nonzero" fill-opacity="1" /><path clip-path="url(#clip450)" d="M1865.32 399.388 Q1858.34 411.367 1854.95 423.085 Q1851.57 434.804 1851.57 446.835 Q1851.57 458.866 1854.95 470.689 Q1858.39 482.46 1865.32 494.387 L1856.99 494.387 Q1849.17 482.148 1845.27 470.325 Q1841.41 458.502 1841.41 446.835 Q1841.41 435.221 1845.27 423.45 Q1849.12 411.679 1856.99 399.388 L1865.32 399.388 Z" fill="#000000" fill-rule="nonzero" fill-opacity="1" /><path clip-path="url(#clip450)" d="M1917.71 430.95 Q1916.1 430.012 1914.17 429.596 Q1912.3 429.127 1910.01 429.127 Q1901.88 429.127 1897.51 434.439 Q1893.18 439.7 1893.18 449.596 L1893.18 480.325 L1883.55 480.325 L1883.55 421.992 L1893.18 421.992 L1893.18 431.054 Q1896.2 425.742 1901.05 423.19 Q1905.89 420.585 1912.82 420.585 Q1913.81 420.585 1915.01 420.742 Q1916.2 420.846 1917.66 421.106 L1917.71 430.95 Z" fill="#000000" fill-rule="nonzero" fill-opacity="1" /><path clip-path="url(#clip450)" d="M1975.32 448.762 L1975.32 453.45 L1931.26 453.45 Q1931.88 463.346 1937.19 468.554 Q1942.56 473.71 1952.09 473.71 Q1957.61 473.71 1962.77 472.356 Q1967.97 471.002 1973.08 468.293 L1973.08 477.356 Q1967.92 479.543 1962.51 480.689 Q1957.09 481.835 1951.52 481.835 Q1937.56 481.835 1929.38 473.71 Q1921.26 465.585 1921.26 451.731 Q1921.26 437.408 1928.96 429.023 Q1936.72 420.585 1949.85 420.585 Q1961.62 420.585 1968.44 428.189 Q1975.32 435.742 1975.32 448.762 M1965.74 445.95 Q1965.63 438.085 1961.31 433.398 Q1957.04 428.71 1949.95 428.71 Q1941.93 428.71 1937.09 433.242 Q1932.3 437.773 1931.57 446.002 L1965.74 445.95 Z" fill="#000000" fill-rule="nonzero" fill-opacity="1" /><path clip-path="url(#clip450)" d="M2028.23 423.71 L2028.23 432.773 Q2024.17 430.689 2019.8 429.648 Q2015.42 428.606 2010.73 428.606 Q2003.6 428.606 2000.01 430.794 Q1996.46 432.981 1996.46 437.356 Q1996.46 440.689 1999.02 442.616 Q2001.57 444.491 2009.28 446.21 L2012.56 446.939 Q2022.77 449.127 2027.04 453.137 Q2031.36 457.096 2031.36 464.231 Q2031.36 472.356 2024.9 477.095 Q2018.5 481.835 2007.25 481.835 Q2002.56 481.835 1997.45 480.898 Q1992.4 480.012 1986.78 478.189 L1986.78 468.293 Q1992.09 471.054 1997.25 472.46 Q2002.4 473.814 2007.45 473.814 Q2014.22 473.814 2017.87 471.523 Q2021.52 469.179 2021.52 464.96 Q2021.52 461.054 2018.86 458.971 Q2016.26 456.887 2007.35 454.96 L2004.02 454.179 Q1995.11 452.304 1991.15 448.45 Q1987.19 444.544 1987.19 437.773 Q1987.19 429.544 1993.03 425.064 Q1998.86 420.585 2009.59 420.585 Q2014.9 420.585 2019.59 421.367 Q2024.28 422.148 2028.23 423.71 Z" fill="#000000" fill-rule="nonzero" fill-opacity="1" /><path clip-path="url(#clip450)" d="M2056.1 405.429 L2056.1 421.992 L2075.84 421.992 L2075.84 429.439 L2056.1 429.439 L2056.1 461.106 Q2056.1 468.241 2058.03 470.273 Q2060.01 472.304 2066 472.304 L2075.84 472.304 L2075.84 480.325 L2066 480.325 Q2054.9 480.325 2050.68 476.21 Q2046.46 472.043 2046.46 461.106 L2046.46 429.439 L2039.43 429.439 L2039.43 421.992 L2046.46 421.992 L2046.46 405.429 L2056.1 405.429 Z" fill="#000000" fill-rule="nonzero" fill-opacity="1" /><path clip-path="url(#clip450)" d="M2114.95 451.002 Q2103.34 451.002 2098.86 453.658 Q2094.38 456.314 2094.38 462.721 Q2094.38 467.825 2097.71 470.846 Q2101.1 473.814 2106.88 473.814 Q2114.85 473.814 2119.64 468.189 Q2124.48 462.512 2124.48 453.137 L2124.48 451.002 L2114.95 451.002 M2134.07 447.044 L2134.07 480.325 L2124.48 480.325 L2124.48 471.471 Q2121.2 476.783 2116.31 479.335 Q2111.41 481.835 2104.33 481.835 Q2095.37 481.835 2090.06 476.835 Q2084.8 471.783 2084.8 463.346 Q2084.8 453.502 2091.36 448.502 Q2097.97 443.502 2111.05 443.502 L2124.48 443.502 L2124.48 442.564 Q2124.48 435.95 2120.11 432.356 Q2115.79 428.71 2107.92 428.71 Q2102.92 428.71 2098.18 429.908 Q2093.44 431.106 2089.07 433.502 L2089.07 424.648 Q2094.33 422.617 2099.28 421.627 Q2104.22 420.585 2108.91 420.585 Q2121.57 420.585 2127.82 427.148 Q2134.07 433.71 2134.07 447.044 Z" fill="#000000" fill-rule="nonzero" fill-opacity="1" /><path clip-path="url(#clip450)" d="M2187.61 430.95 Q2185.99 430.012 2184.07 429.596 Q2182.19 429.127 2179.9 429.127 Q2171.78 429.127 2167.4 434.439 Q2163.08 439.7 2163.08 449.596 L2163.08 480.325 L2153.44 480.325 L2153.44 421.992 L2163.08 421.992 L2163.08 431.054 Q2166.1 425.742 2170.94 423.19 Q2175.79 420.585 2182.71 420.585 Q2183.7 420.585 2184.9 420.742 Q2186.1 420.846 2187.56 421.106 L2187.61 430.95 Z" fill="#000000" fill-rule="nonzero" fill-opacity="1" /><path clip-path="url(#clip450)" d="M2207.14 405.429 L2207.14 421.992 L2226.88 421.992 L2226.88 429.439 L2207.14 429.439 L2207.14 461.106 Q2207.14 468.241 2209.07 470.273 Q2211.05 472.304 2217.04 472.304 L2226.88 472.304 L2226.88 480.325 L2217.04 480.325 Q2205.94 480.325 2201.72 476.21 Q2197.5 472.043 2197.5 461.106 L2197.5 429.439 L2190.47 429.439 L2190.47 421.992 L2197.5 421.992 L2197.5 405.429 L2207.14 405.429 Z" fill="#000000" fill-rule="nonzero" fill-opacity="1" /><path clip-path="url(#clip450)" d="M2237.97 399.388 L2246.31 399.388 Q2254.12 411.679 2257.97 423.45 Q2261.88 435.221 2261.88 446.835 Q2261.88 458.502 2257.97 470.325 Q2254.12 482.148 2246.31 494.387 L2237.97 494.387 Q2244.9 482.46 2248.29 470.689 Q2251.72 458.866 2251.72 446.835 Q2251.72 434.804 2248.29 423.085 Q2244.9 411.367 2237.97 399.388 Z" fill="#000000" fill-rule="nonzero" fill-opacity="1" /></svg>
