<?xml version="1.0" encoding="utf-8"?>
<svg xmlns="http://www.w3.org/2000/svg" xmlns:xlink="http://www.w3.org/1999/xlink" width="600" height="400" viewBox="0 0 2400 1600">
<defs>
  <clipPath id="clip510">
    <rect x="0" y="0" width="2400" height="1600"/>
  </clipPath>
</defs>
<path clip-path="url(#clip510)" d="M0 1600 L2400 1600 L2400 0 L0 0  Z" fill="#ffffff" fill-rule="evenodd" fill-opacity="1"/>
<defs>
  <clipPath id="clip511">
    <rect x="283" y="47" width="2070" height="1329"/>
  </clipPath>
</defs>
<path clip-path="url(#clip510)" d="M283.499 1375.66 L2352.76 1375.66 L2352.76 47.2441 L283.499 47.2441  Z" fill="#ffffff" fill-rule="evenodd" fill-opacity="1"/>
<polyline clip-path="url(#clip511)" style="stroke:#000000; stroke-linecap:round; stroke-linejoin:round; stroke-width:2; stroke-opacity:0.1; fill:none" points="283.499,1375.66 283.499,47.2441 "/>
<polyline clip-path="url(#clip511)" style="stroke:#000000; stroke-linecap:round; stroke-linejoin:round; stroke-width:2; stroke-opacity:0.1; fill:none" points="800.813,1375.66 800.813,47.2441 "/>
<polyline clip-path="url(#clip511)" style="stroke:#000000; stroke-linecap:round; stroke-linejoin:round; stroke-width:2; stroke-opacity:0.1; fill:none" points="1318.13,1375.66 1318.13,47.2441 "/>
<polyline clip-path="url(#clip511)" style="stroke:#000000; stroke-linecap:round; stroke-linejoin:round; stroke-width:2; stroke-opacity:0.1; fill:none" points="1835.44,1375.66 1835.44,47.2441 "/>
<polyline clip-path="url(#clip511)" style="stroke:#000000; stroke-linecap:round; stroke-linejoin:round; stroke-width:2; stroke-opacity:0.1; fill:none" points="2352.76,1375.66 2352.76,47.2441 "/>
<polyline clip-path="url(#clip511)" style="stroke:#000000; stroke-linecap:round; stroke-linejoin:round; stroke-width:2; stroke-opacity:0.1; fill:none" points="283.499,1375.66 2352.76,1375.66 "/>
<polyline clip-path="url(#clip511)" style="stroke:#000000; stroke-linecap:round; stroke-linejoin:round; stroke-width:2; stroke-opacity:0.1; fill:none" points="283.499,1043.56 2352.76,1043.56 "/>
<polyline clip-path="url(#clip511)" style="stroke:#000000; stroke-linecap:round; stroke-linejoin:round; stroke-width:2; stroke-opacity:0.1; fill:none" points="283.499,711.452 2352.76,711.452 "/>
<polyline clip-path="url(#clip511)" style="stroke:#000000; stroke-linecap:round; stroke-linejoin:round; stroke-width:2; stroke-opacity:0.1; fill:none" points="283.499,379.348 2352.76,379.348 "/>
<polyline clip-path="url(#clip511)" style="stroke:#000000; stroke-linecap:round; stroke-linejoin:round; stroke-width:2; stroke-opacity:0.1; fill:none" points="283.499,47.2441 2352.76,47.2441 "/>
<polyline clip-path="url(#clip510)" style="stroke:#000000; stroke-linecap:round; stroke-linejoin:round; stroke-width:4; stroke-opacity:1; fill:none" points="283.499,1375.66 2352.76,1375.66 "/>
<polyline clip-path="url(#clip510)" style="stroke:#000000; stroke-linecap:round; stroke-linejoin:round; stroke-width:4; stroke-opacity:1; fill:none" points="283.499,1375.66 283.499,1356.76 "/>
<polyline clip-path="url(#clip510)" style="stroke:#000000; stroke-linecap:round; stroke-linejoin:round; stroke-width:4; stroke-opacity:1; fill:none" points="800.813,1375.66 800.813,1356.76 "/>
<polyline clip-path="url(#clip510)" style="stroke:#000000; stroke-linecap:round; stroke-linejoin:round; stroke-width:4; stroke-opacity:1; fill:none" points="1318.13,1375.66 1318.13,1356.76 "/>
<polyline clip-path="url(#clip510)" style="stroke:#000000; stroke-linecap:round; stroke-linejoin:round; stroke-width:4; stroke-opacity:1; fill:none" points="1835.44,1375.66 1835.44,1356.76 "/>
<polyline clip-path="url(#clip510)" style="stroke:#000000; stroke-linecap:round; stroke-linejoin:round; stroke-width:4; stroke-opacity:1; fill:none" points="2352.76,1375.66 2352.76,1356.76 "/>
<path clip-path="url(#clip510)" d="M283.499 1412.44 Q278.082 1412.44 275.339 1417.79 Q272.631 1423.1 272.631 1433.79 Q272.631 1444.45 275.339 1449.8 Q278.082 1455.11 283.499 1455.11 Q288.95 1455.11 291.658 1449.8 Q294.401 1444.45 294.401 1433.79 Q294.401 1423.1 291.658 1417.79 Q288.95 1412.44 283.499 1412.44 M283.499 1406.88 Q292.214 1406.88 296.797 1413.79 Q301.415 1420.67 301.415 1433.79 Q301.415 1446.88 296.797 1453.79 Q292.214 1460.67 283.499 1460.67 Q274.783 1460.67 270.165 1453.79 Q265.582 1446.88 265.582 1433.79 Q265.582 1420.67 270.165 1413.79 Q274.783 1406.88 283.499 1406.88 Z" fill="#000000" fill-rule="nonzero" fill-opacity="1" /><path clip-path="url(#clip510)" d="M768.973 1453.76 L793.452 1453.76 L793.452 1459.66 L760.535 1459.66 L760.535 1453.76 Q764.528 1449.63 771.403 1442.68 Q778.313 1435.7 780.084 1433.69 Q783.452 1429.9 784.771 1427.3 Q786.125 1424.66 786.125 1422.13 Q786.125 1417.99 783.209 1415.39 Q780.327 1412.79 775.674 1412.79 Q772.376 1412.79 768.695 1413.93 Q765.049 1415.08 760.883 1417.4 L760.883 1410.32 Q765.119 1408.62 768.799 1407.75 Q772.48 1406.88 775.535 1406.88 Q783.591 1406.88 788.382 1410.91 Q793.174 1414.94 793.174 1421.67 Q793.174 1424.87 791.959 1427.75 Q790.778 1430.6 787.619 1434.49 Q786.75 1435.49 782.098 1440.32 Q777.445 1445.11 768.973 1453.76 Z" fill="#000000" fill-rule="nonzero" fill-opacity="1" /><path clip-path="url(#clip510)" d="M823.174 1412.44 Q817.757 1412.44 815.014 1417.79 Q812.306 1423.1 812.306 1433.79 Q812.306 1444.45 815.014 1449.8 Q817.757 1455.11 823.174 1455.11 Q828.625 1455.11 831.334 1449.8 Q834.077 1444.45 834.077 1433.79 Q834.077 1423.1 831.334 1417.79 Q828.625 1412.44 823.174 1412.44 M823.174 1406.88 Q831.889 1406.88 836.472 1413.79 Q841.09 1420.67 841.09 1433.79 Q841.09 1446.88 836.472 1453.79 Q831.889 1460.67 823.174 1460.67 Q814.459 1460.67 809.841 1453.79 Q805.257 1446.88 805.257 1433.79 Q805.257 1420.67 809.841 1413.79 Q814.459 1406.88 823.174 1406.88 Z" fill="#000000" fill-rule="nonzero" fill-opacity="1" /><path clip-path="url(#clip510)" d="M1300.38 1413.93 L1282.68 1441.6 L1300.38 1441.6 L1300.38 1413.93 M1298.54 1407.82 L1307.36 1407.82 L1307.36 1441.6 L1314.76 1441.6 L1314.76 1447.44 L1307.36 1447.44 L1307.36 1459.66 L1300.38 1459.66 L1300.38 1447.44 L1276.98 1447.44 L1276.98 1440.67 L1298.54 1407.82 Z" fill="#000000" fill-rule="nonzero" fill-opacity="1" /><path clip-path="url(#clip510)" d="M1341.36 1412.44 Q1335.94 1412.44 1333.2 1417.79 Q1330.49 1423.1 1330.49 1433.79 Q1330.49 1444.45 1333.2 1449.8 Q1335.94 1455.11 1341.36 1455.11 Q1346.81 1455.11 1349.52 1449.8 Q1352.26 1444.45 1352.26 1433.79 Q1352.26 1423.1 1349.52 1417.79 Q1346.81 1412.44 1341.36 1412.44 M1341.36 1406.88 Q1350.07 1406.88 1354.65 1413.79 Q1359.27 1420.67 1359.27 1433.79 Q1359.27 1446.88 1354.65 1453.79 Q1350.07 1460.67 1341.36 1460.67 Q1332.64 1460.67 1328.02 1453.79 Q1323.44 1446.88 1323.44 1433.79 Q1323.44 1420.67 1328.02 1413.79 Q1332.64 1406.88 1341.36 1406.88 Z" fill="#000000" fill-rule="nonzero" fill-opacity="1" /><path clip-path="url(#clip510)" d="M1813.55 1430.94 Q1808.83 1430.94 1806.05 1434.17 Q1803.31 1437.4 1803.31 1443.03 Q1803.31 1448.62 1806.05 1451.88 Q1808.83 1455.11 1813.55 1455.11 Q1818.27 1455.11 1821.01 1451.88 Q1823.79 1448.62 1823.79 1443.03 Q1823.79 1437.4 1821.01 1434.17 Q1818.27 1430.94 1813.55 1430.94 M1827.47 1408.97 L1827.47 1415.35 Q1824.83 1414.1 1822.13 1413.44 Q1819.45 1412.79 1816.81 1412.79 Q1809.87 1412.79 1806.19 1417.47 Q1802.54 1422.16 1802.02 1431.64 Q1804.07 1428.62 1807.16 1427.02 Q1810.25 1425.39 1813.97 1425.39 Q1821.78 1425.39 1826.29 1430.15 Q1830.84 1434.87 1830.84 1443.03 Q1830.84 1451.01 1826.12 1455.84 Q1821.4 1460.67 1813.55 1460.67 Q1804.56 1460.67 1799.8 1453.79 Q1795.04 1446.88 1795.04 1433.79 Q1795.04 1421.5 1800.88 1414.21 Q1806.71 1406.88 1816.54 1406.88 Q1819.17 1406.88 1821.85 1407.4 Q1824.56 1407.92 1827.47 1408.97 Z" fill="#000000" fill-rule="nonzero" fill-opacity="1" /><path clip-path="url(#clip510)" d="M1857.92 1412.44 Q1852.51 1412.44 1849.76 1417.79 Q1847.06 1423.1 1847.06 1433.79 Q1847.06 1444.45 1849.76 1449.8 Q1852.51 1455.11 1857.92 1455.11 Q1863.38 1455.11 1866.08 1449.8 Q1868.83 1444.45 1868.83 1433.79 Q1868.83 1423.1 1866.08 1417.79 Q1863.38 1412.44 1857.92 1412.44 M1857.92 1406.88 Q1866.64 1406.88 1871.22 1413.79 Q1875.84 1420.67 1875.84 1433.79 Q1875.84 1446.88 1871.22 1453.79 Q1866.64 1460.67 1857.92 1460.67 Q1849.21 1460.67 1844.59 1453.79 Q1840.01 1446.88 1840.01 1433.79 Q1840.01 1420.67 1844.59 1413.79 Q1849.21 1406.88 1857.92 1406.88 Z" fill="#000000" fill-rule="nonzero" fill-opacity="1" /><path clip-path="url(#clip510)" d="M2330.07 1435.04 Q2325.07 1435.04 2322.18 1437.72 Q2319.34 1440.39 2319.34 1445.08 Q2319.34 1449.76 2322.18 1452.44 Q2325.07 1455.11 2330.07 1455.11 Q2335.07 1455.11 2337.95 1452.44 Q2340.83 1449.73 2340.83 1445.08 Q2340.83 1440.39 2337.95 1437.72 Q2335.1 1435.04 2330.07 1435.04 M2323.05 1432.06 Q2318.54 1430.94 2316 1427.85 Q2313.5 1424.76 2313.5 1420.32 Q2313.5 1414.1 2317.91 1410.49 Q2322.36 1406.88 2330.07 1406.88 Q2337.81 1406.88 2342.22 1410.49 Q2346.63 1414.1 2346.63 1420.32 Q2346.63 1424.76 2344.09 1427.85 Q2341.59 1430.94 2337.11 1432.06 Q2342.18 1433.24 2345 1436.67 Q2347.84 1440.11 2347.84 1445.08 Q2347.84 1452.61 2343.22 1456.64 Q2338.64 1460.67 2330.07 1460.67 Q2321.49 1460.67 2316.87 1456.64 Q2312.29 1452.61 2312.29 1445.08 Q2312.29 1440.11 2315.13 1436.67 Q2317.98 1433.24 2323.05 1432.06 M2320.48 1420.98 Q2320.48 1425.01 2322.98 1427.26 Q2325.52 1429.52 2330.07 1429.52 Q2334.58 1429.52 2337.11 1427.26 Q2339.68 1425.01 2339.68 1420.98 Q2339.68 1416.95 2337.11 1414.69 Q2334.58 1412.44 2330.07 1412.44 Q2325.52 1412.44 2322.98 1414.69 Q2320.48 1416.95 2320.48 1420.98 Z" fill="#000000" fill-rule="nonzero" fill-opacity="1" /><path clip-path="url(#clip510)" d="M2375.31 1412.44 Q2369.89 1412.44 2367.15 1417.79 Q2364.44 1423.1 2364.44 1433.79 Q2364.44 1444.45 2367.15 1449.8 Q2369.89 1455.11 2375.31 1455.11 Q2380.76 1455.11 2383.47 1449.8 Q2386.21 1444.45 2386.21 1433.79 Q2386.21 1423.1 2383.47 1417.79 Q2380.76 1412.44 2375.31 1412.44 M2375.31 1406.88 Q2384.02 1406.88 2388.61 1413.79 Q2393.22 1420.67 2393.22 1433.79 Q2393.22 1446.88 2388.61 1453.79 Q2384.02 1460.67 2375.31 1460.67 Q2366.59 1460.67 2361.97 1453.79 Q2357.39 1446.88 2357.39 1433.79 Q2357.39 1420.67 2361.97 1413.79 Q2366.59 1406.88 2375.31 1406.88 Z" fill="#000000" fill-rule="nonzero" fill-opacity="1" /><path clip-path="url(#clip510)" d="M1101.67 1504.97 L1112.19 1504.97 L1112.19 1582.73 L1101.67 1582.73 L1101.67 1504.97 Z" fill="#000000" fill-rule="nonzero" fill-opacity="1" /><path clip-path="url(#clip510)" d="M1142.19 1507.84 L1142.19 1524.4 L1161.93 1524.4 L1161.93 1531.85 L1142.19 1531.85 L1142.19 1563.51 Q1142.19 1570.65 1144.12 1572.68 Q1146.1 1574.71 1152.09 1574.71 L1161.93 1574.71 L1161.93 1582.73 L1152.09 1582.73 Q1140.99 1582.73 1136.77 1578.62 Q1132.56 1574.45 1132.56 1563.51 L1132.56 1531.85 L1125.52 1531.85 L1125.52 1524.4 L1132.56 1524.4 L1132.56 1507.84 L1142.19 1507.84 Z" fill="#000000" fill-rule="nonzero" fill-opacity="1" /><path clip-path="url(#clip510)" d="M1224.43 1551.17 L1224.43 1555.86 L1180.37 1555.86 Q1180.99 1565.75 1186.31 1570.96 Q1191.67 1576.12 1201.2 1576.12 Q1206.72 1576.12 1211.88 1574.76 Q1217.09 1573.41 1222.19 1570.7 L1222.19 1579.76 Q1217.03 1581.95 1211.62 1583.1 Q1206.2 1584.24 1200.63 1584.24 Q1186.67 1584.24 1178.49 1576.12 Q1170.37 1567.99 1170.37 1554.14 Q1170.37 1539.82 1178.08 1531.43 Q1185.84 1522.99 1198.96 1522.99 Q1210.73 1522.99 1217.55 1530.6 Q1224.43 1538.15 1224.43 1551.17 M1214.85 1548.36 Q1214.74 1540.49 1210.42 1535.81 Q1206.15 1531.12 1199.07 1531.12 Q1191.04 1531.12 1186.2 1535.65 Q1181.41 1540.18 1180.68 1548.41 L1214.85 1548.36 Z" fill="#000000" fill-rule="nonzero" fill-opacity="1" /><path clip-path="url(#clip510)" d="M1273.96 1533.36 Q1272.35 1532.42 1270.42 1532 Q1268.54 1531.53 1266.25 1531.53 Q1258.13 1531.53 1253.75 1536.85 Q1249.43 1542.11 1249.43 1552 L1249.43 1582.73 L1239.79 1582.73 L1239.79 1524.4 L1249.43 1524.4 L1249.43 1533.46 Q1252.45 1528.15 1257.29 1525.6 Q1262.14 1522.99 1269.06 1522.99 Q1270.05 1522.99 1271.25 1523.15 Q1272.45 1523.25 1273.91 1523.51 L1273.96 1533.36 Z" fill="#000000" fill-rule="nonzero" fill-opacity="1" /><path clip-path="url(#clip510)" d="M1310.52 1553.41 Q1298.91 1553.41 1294.43 1556.07 Q1289.95 1558.72 1289.95 1565.13 Q1289.95 1570.23 1293.28 1573.25 Q1296.67 1576.22 1302.45 1576.22 Q1310.42 1576.22 1315.21 1570.6 Q1320.05 1564.92 1320.05 1555.54 L1320.05 1553.41 L1310.52 1553.41 M1329.64 1549.45 L1329.64 1582.73 L1320.05 1582.73 L1320.05 1573.88 Q1316.77 1579.19 1311.88 1581.74 Q1306.98 1584.24 1299.9 1584.24 Q1290.94 1584.24 1285.63 1579.24 Q1280.37 1574.19 1280.37 1565.75 Q1280.37 1555.91 1286.93 1550.91 Q1293.54 1545.91 1306.62 1545.91 L1320.05 1545.91 L1320.05 1544.97 Q1320.05 1538.36 1315.68 1534.76 Q1311.36 1531.12 1303.49 1531.12 Q1298.49 1531.12 1293.75 1532.32 Q1289.01 1533.51 1284.64 1535.91 L1284.64 1527.06 Q1289.9 1525.02 1294.85 1524.03 Q1299.79 1522.99 1304.48 1522.99 Q1317.14 1522.99 1323.39 1529.56 Q1329.64 1536.12 1329.64 1549.45 Z" fill="#000000" fill-rule="nonzero" fill-opacity="1" /><path clip-path="url(#clip510)" d="M1358.86 1507.84 L1358.86 1524.4 L1378.6 1524.4 L1378.6 1531.85 L1358.86 1531.85 L1358.86 1563.51 Q1358.86 1570.65 1360.78 1572.68 Q1362.76 1574.71 1368.75 1574.71 L1378.6 1574.71 L1378.6 1582.73 L1368.75 1582.73 Q1357.66 1582.73 1353.44 1578.62 Q1349.22 1574.45 1349.22 1563.51 L1349.22 1531.85 L1342.19 1531.85 L1342.19 1524.4 L1349.22 1524.4 L1349.22 1507.84 L1358.86 1507.84 Z" fill="#000000" fill-rule="nonzero" fill-opacity="1" /><path clip-path="url(#clip510)" d="M1391.2 1524.4 L1400.78 1524.4 L1400.78 1582.73 L1391.2 1582.73 L1391.2 1524.4 M1391.2 1501.69 L1400.78 1501.69 L1400.78 1513.83 L1391.2 1513.83 L1391.2 1501.69 Z" fill="#000000" fill-rule="nonzero" fill-opacity="1" /><path clip-path="url(#clip510)" d="M1443.44 1531.12 Q1435.73 1531.12 1431.25 1537.16 Q1426.77 1543.15 1426.77 1553.62 Q1426.77 1564.09 1431.2 1570.13 Q1435.68 1576.12 1443.44 1576.12 Q1451.1 1576.12 1455.57 1570.08 Q1460.05 1564.03 1460.05 1553.62 Q1460.05 1543.25 1455.57 1537.21 Q1451.1 1531.12 1443.44 1531.12 M1443.44 1522.99 Q1455.94 1522.99 1463.07 1531.12 Q1470.21 1539.24 1470.21 1553.62 Q1470.21 1567.94 1463.07 1576.12 Q1455.94 1584.24 1443.44 1584.24 Q1430.89 1584.24 1423.75 1576.12 Q1416.67 1567.94 1416.67 1553.62 Q1416.67 1539.24 1423.75 1531.12 Q1430.89 1522.99 1443.44 1522.99 Z" fill="#000000" fill-rule="nonzero" fill-opacity="1" /><path clip-path="url(#clip510)" d="M1534.58 1547.52 L1534.58 1582.73 L1525 1582.73 L1525 1547.84 Q1525 1539.55 1521.77 1535.44 Q1518.54 1531.33 1512.08 1531.33 Q1504.32 1531.33 1499.85 1536.27 Q1495.37 1541.22 1495.37 1549.76 L1495.37 1582.73 L1485.73 1582.73 L1485.73 1524.4 L1495.37 1524.4 L1495.37 1533.46 Q1498.8 1528.2 1503.44 1525.6 Q1508.13 1522.99 1514.22 1522.99 Q1524.27 1522.99 1529.43 1529.24 Q1534.58 1535.44 1534.58 1547.52 Z" fill="#000000" fill-rule="nonzero" fill-opacity="1" /><polyline clip-path="url(#clip510)" style="stroke:#000000; stroke-linecap:round; stroke-linejoin:round; stroke-width:4; stroke-opacity:1; fill:none" points="283.499,1375.66 283.499,47.2441 "/>
<polyline clip-path="url(#clip510)" style="stroke:#000000; stroke-linecap:round; stroke-linejoin:round; stroke-width:4; stroke-opacity:1; fill:none" points="283.499,1375.66 302.396,1375.66 "/>
<polyline clip-path="url(#clip510)" style="stroke:#000000; stroke-linecap:round; stroke-linejoin:round; stroke-width:4; stroke-opacity:1; fill:none" points="283.499,1043.56 302.396,1043.56 "/>
<polyline clip-path="url(#clip510)" style="stroke:#000000; stroke-linecap:round; stroke-linejoin:round; stroke-width:4; stroke-opacity:1; fill:none" points="283.499,711.452 302.396,711.452 "/>
<polyline clip-path="url(#clip510)" style="stroke:#000000; stroke-linecap:round; stroke-linejoin:round; stroke-width:4; stroke-opacity:1; fill:none" points="283.499,379.348 302.396,379.348 "/>
<polyline clip-path="url(#clip510)" style="stroke:#000000; stroke-linecap:round; stroke-linejoin:round; stroke-width:4; stroke-opacity:1; fill:none" points="283.499,47.2441 302.396,47.2441 "/>
<path clip-path="url(#clip510)" d="M155.902 1376.34 L200.415 1376.34 L200.415 1382.24 L155.902 1382.24 L155.902 1376.34 Z" fill="#000000" fill-rule="nonzero" fill-opacity="1" /><path clip-path="url(#clip510)" d="M236.804 1373.63 Q241.839 1374.7 244.651 1378.11 Q247.499 1381.51 247.499 1386.51 Q247.499 1394.18 242.221 1398.39 Q236.943 1402.59 227.221 1402.59 Q223.957 1402.59 220.485 1401.93 Q217.047 1401.3 213.367 1400.02 L213.367 1393.25 Q216.283 1394.95 219.756 1395.82 Q223.228 1396.68 227.013 1396.68 Q233.61 1396.68 237.047 1394.08 Q240.519 1391.48 240.519 1386.51 Q240.519 1381.93 237.29 1379.36 Q234.096 1376.75 228.367 1376.75 L222.325 1376.75 L222.325 1370.99 L228.644 1370.99 Q233.818 1370.99 236.561 1368.94 Q239.304 1366.86 239.304 1362.97 Q239.304 1358.98 236.457 1356.86 Q233.644 1354.71 228.367 1354.71 Q225.485 1354.71 222.186 1355.33 Q218.888 1355.96 214.929 1357.27 L214.929 1351.02 Q218.922 1349.91 222.395 1349.36 Q225.901 1348.8 228.992 1348.8 Q236.978 1348.8 241.631 1352.45 Q246.283 1356.06 246.283 1362.24 Q246.283 1366.55 243.818 1369.53 Q241.353 1372.48 236.804 1373.63 Z" fill="#000000" fill-rule="nonzero" fill-opacity="1" /><path clip-path="url(#clip510)" d="M157.325 1044.23 L201.839 1044.23 L201.839 1050.14 L157.325 1050.14 L157.325 1044.23 Z" fill="#000000" fill-rule="nonzero" fill-opacity="1" /><path clip-path="url(#clip510)" d="M223.02 1063.57 L247.499 1063.57 L247.499 1069.48 L214.582 1069.48 L214.582 1063.57 Q218.575 1059.44 225.45 1052.5 Q232.36 1045.52 234.131 1043.5 Q237.499 1039.72 238.818 1037.11 Q240.172 1034.48 240.172 1031.94 Q240.172 1027.81 237.256 1025.21 Q234.374 1022.6 229.721 1022.6 Q226.422 1022.6 222.742 1023.75 Q219.096 1024.89 214.929 1027.22 L214.929 1020.14 Q219.165 1018.43 222.846 1017.57 Q226.526 1016.7 229.582 1016.7 Q237.637 1016.7 242.429 1020.73 Q247.221 1024.75 247.221 1031.49 Q247.221 1034.68 246.006 1037.57 Q244.825 1040.41 241.665 1044.3 Q240.797 1045.31 236.144 1050.14 Q231.492 1054.93 223.02 1063.57 Z" fill="#000000" fill-rule="nonzero" fill-opacity="1" /><path clip-path="url(#clip510)" d="M156.77 712.129 L201.284 712.129 L201.284 718.032 L156.77 718.032 L156.77 712.129 Z" fill="#000000" fill-rule="nonzero" fill-opacity="1" /><path clip-path="url(#clip510)" d="M217.638 731.469 L229.096 731.469 L229.096 691.921 L216.631 694.421 L216.631 688.032 L229.026 685.532 L236.04 685.532 L236.04 731.469 L247.499 731.469 L247.499 737.372 L217.638 737.372 L217.638 731.469 Z" fill="#000000" fill-rule="nonzero" fill-opacity="1" /><path clip-path="url(#clip510)" d="M229.582 358.046 Q224.165 358.046 221.422 363.393 Q218.714 368.706 218.714 379.4 Q218.714 390.06 221.422 395.407 Q224.165 400.719 229.582 400.719 Q235.033 400.719 237.742 395.407 Q240.485 390.06 240.485 379.4 Q240.485 368.706 237.742 363.393 Q235.033 358.046 229.582 358.046 M229.582 352.491 Q238.297 352.491 242.881 359.4 Q247.499 366.275 247.499 379.4 Q247.499 392.49 242.881 399.4 Q238.297 406.275 229.582 406.275 Q220.867 406.275 216.249 399.4 Q211.665 392.49 211.665 379.4 Q211.665 366.275 216.249 359.4 Q220.867 352.491 229.582 352.491 Z" fill="#000000" fill-rule="nonzero" fill-opacity="1" /><path clip-path="url(#clip510)" d="M217.638 67.2613 L229.096 67.2613 L229.096 27.7129 L216.631 30.2129 L216.631 23.8241 L229.026 21.3241 L236.04 21.3241 L236.04 67.2613 L247.499 67.2613 L247.499 73.1641 L217.638 73.1641 L217.638 67.2613 Z" fill="#000000" fill-rule="nonzero" fill-opacity="1" /><path clip-path="url(#clip510)" d="M79.7054 1107.34 L76.3853 1107.34 Q76.3853 1101.59 75.7002 1100.27 Q74.9624 1098.96 71.4842 1098.96 L15.3581 1098.96 Q11.3529 1098.96 10.3516 1100.38 Q9.35028 1101.75 9.35028 1107.34 L5.97745 1107.34 L4.81804 1091.84 L71.4842 1091.84 Q74.9624 1091.84 75.7002 1090.47 Q76.3853 1089.1 76.3853 1083.41 L79.7054 1083.41 Q79.7054 1084.73 79.6 1087.47 Q79.4946 1090.21 79.4419 1092.21 Q79.3892 1094.21 79.3892 1095.37 Q79.3892 1096.64 79.7054 1107.34 Z" fill="#000000" fill-rule="nonzero" fill-opacity="1" /><path clip-path="url(#clip510)" d="M73.9084 1067.17 Q66.8465 1074.29 56.6226 1074.29 Q46.346 1074.29 38.8626 1067.33 Q31.3264 1060.32 31.3264 1050.31 Q31.3264 1040.51 38.8099 1033.5 Q46.2406 1026.43 56.6226 1026.43 Q66.7938 1026.43 73.8557 1033.55 Q80.9176 1040.61 80.9176 1050.41 Q80.9176 1060 73.9084 1067.17 M55.7267 1065.33 Q66.2141 1065.33 70.9572 1062.59 Q78.1771 1058.37 78.1771 1050.31 Q78.1771 1046.3 76.0164 1042.98 Q73.8557 1039.61 70.2194 1037.77 Q65.4763 1035.39 55.7267 1035.39 Q45.3447 1035.39 40.7598 1038.24 Q33.7506 1042.46 33.7506 1050.41 Q33.7506 1053.89 35.5951 1057.32 Q37.3869 1060.69 40.9706 1062.75 Q45.7136 1065.33 55.7267 1065.33 Z" fill="#000000" fill-rule="nonzero" fill-opacity="1" /><path clip-path="url(#clip510)" d="M88.2429 1024.73 Q84.7647 1024.73 81.7608 1022.09 Q78.7568 1019.41 77.4393 1014.77 Q74.4354 1019.51 67.8478 1019.51 Q62.7886 1019.51 58.8888 1016.19 Q54.6727 1021.25 47.7689 1021.25 Q41.3922 1021.25 36.7018 1016.19 Q32.0115 1011.13 32.0115 1003.75 Q32.0115 997.272 35.9113 992.318 Q30.8521 987.154 30.7994 980.882 Q30.7994 978.089 32.5385 976.772 Q34.2776 975.401 36.1221 975.401 Q37.7559 975.401 38.5464 976.455 Q39.3369 977.457 39.3369 978.511 Q39.3369 979.828 38.4937 980.777 Q37.5977 981.673 36.2275 981.673 Q33.9614 981.673 33.2763 979.934 Q33.1709 980.25 33.1709 980.988 Q33.1709 986.258 37.3869 990.737 Q41.4976 986.31 47.8743 986.31 Q54.2511 986.31 58.9415 991.37 Q63.6318 996.429 63.6318 1003.75 Q63.6318 1009.81 60.259 1014.45 Q62.4197 1016.3 65.3709 1016.3 Q68.0586 1016.3 70.1667 1014.66 Q72.2747 1013.03 72.5909 1010.55 Q72.6963 1009.81 72.6963 1002.49 Q72.6963 998.168 72.8017 995.797 Q72.9071 993.425 73.6449 990.052 Q74.33 986.627 75.7002 983.939 Q79.6 976.93 88.0321 976.877 Q94.1981 976.877 98.0452 983.992 Q101.945 991.054 101.945 1000.86 Q101.945 1010.76 97.9925 1017.77 Q94.0927 1024.73 88.2429 1024.73 M88.2429 1019.09 Q92.6698 1019.09 96.0426 1013.87 Q99.4681 1008.66 99.4681 1000.75 Q99.4681 993.003 96.0953 987.786 Q92.7752 982.516 88.2429 982.516 Q85.0282 982.516 82.9729 984.361 Q80.9176 986.205 80.0744 990 Q79.2838 993.741 79.1257 996.376 Q78.9676 999.011 78.9676 1003.86 L78.9676 1010.24 Q79.1784 1013.93 81.8662 1016.51 Q84.5539 1019.09 88.2429 1019.09 M47.8743 1013.19 Q61.1549 1013.19 61.1549 1003.75 Q61.1549 999.011 56.8334 996.113 Q53.9349 994.374 47.7689 994.374 Q34.4884 994.374 34.4884 1003.75 Q34.4884 1008.5 38.8099 1011.45 Q41.7084 1013.19 47.8743 1013.19 Z" fill="#000000" fill-rule="nonzero" fill-opacity="1" /><path clip-path="url(#clip510)" d="M88.5106 946.931 L86.1496 946.931 Q86.1496 937.856 81.317 933.171 Q81.317 931.88 81.6121 931.659 Q81.9073 931.437 83.2722 931.437 L125.659 931.437 Q127.91 931.437 128.61 930.331 Q129.311 929.224 129.311 924.391 L129.311 921.993 L131.635 921.993 Q131.414 924.649 131.414 934.241 Q131.414 943.832 131.635 946.452 L129.311 946.452 L129.311 944.054 Q129.311 939.295 128.647 938.151 Q127.946 937.008 125.659 937.008 L86.5186 937.008 Q88.5106 940.955 88.5106 946.931 Z" fill="#000000" fill-rule="nonzero" fill-opacity="1" /><path clip-path="url(#clip510)" d="M107.472 918.279 Q96.3683 918.279 90.3183 915.475 Q81.317 911.565 81.317 902.342 Q81.317 900.387 81.8704 898.358 Q82.3868 896.292 84.4158 893.71 Q86.4448 891.09 89.7649 889.504 Q96.1838 886.479 107.472 886.479 Q118.502 886.479 124.516 889.283 Q133.296 893.378 133.296 902.416 Q133.296 905.81 131.562 909.277 Q129.828 912.708 125.659 914.885 Q119.425 918.279 107.472 918.279 M106.55 912.007 Q117.949 912.007 122.487 911.196 Q127.393 910.273 129.533 907.765 Q131.635 905.219 131.635 902.416 Q131.635 899.391 129.385 896.882 Q127.098 894.337 122.192 893.562 Q117.359 892.714 106.55 892.75 Q96.0363 892.75 91.8308 893.488 Q86.9243 894.484 84.9692 897.14 Q82.9771 899.76 82.9771 902.416 Q82.9771 903.412 83.2722 904.482 Q83.5673 905.514 84.4158 907.027 Q85.2643 908.539 87.367 909.72 Q89.4698 910.864 92.6423 911.417 Q96.7372 912.007 106.55 912.007 Z" fill="#000000" fill-rule="nonzero" fill-opacity="1" /><path clip-path="url(#clip510)" d="M52.7228 869.347 Q34.4884 869.347 19.785 862.548 Q13.619 859.65 8.45437 855.592 Q3.28972 851.534 1.0236 848.846 Q-1.24252 846.159 -1.24252 845.421 Q-1.24252 844.367 -0.188509 844.314 Q0.338496 844.314 1.65601 845.737 Q19.3634 863.128 52.7228 863.075 Q86.1876 863.075 103.21 846.159 Q105.054 844.314 105.634 844.314 Q106.688 844.314 106.688 845.421 Q106.688 846.159 104.527 848.741 Q102.367 851.323 97.4128 855.328 Q92.459 859.334 86.3984 862.232 Q71.695 869.347 52.7228 869.347 Z" fill="#000000" fill-rule="nonzero" fill-opacity="1" /><path clip-path="url(#clip510)" d="M103.368 825.746 L2.07761 825.746 Q-1.13712 825.746 -1.13712 823.585 Q-1.13712 821.424 2.23571 821.424 L103.104 821.424 Q106.583 821.424 106.583 823.585 Q106.583 825.746 103.368 825.746 M103.368 813.836 L2.86812 813.836 Q-1.13712 813.836 -1.13712 811.675 Q-1.13712 809.514 2.23571 809.514 L103.104 809.514 Q106.583 809.514 106.583 811.675 Q106.583 813.836 103.368 813.836 Z" fill="#000000" fill-rule="nonzero" fill-opacity="1" /><path clip-path="url(#clip510)" d="M79.7054 711.537 L79.3892 723.394 L79.7054 736.359 L74.6462 736.359 L74.6462 732.143 L60.6279 744 L72.3801 754.488 L73.4341 755.226 Q73.9084 755.226 74.2773 754.013 Q74.6462 752.749 74.6462 751.273 L79.7054 751.273 L79.3892 762.393 L79.7054 772.301 L74.6462 772.301 Q74.6462 768.98 74.5935 767.452 Q74.4881 765.871 74.0138 764.079 Q73.5395 762.287 72.5909 761.392 L56.728 747.268 L36.8599 764.079 L36.8599 771.774 L31.8007 771.774 L32.1169 759.863 L31.8007 746.846 L36.8599 746.846 L36.8599 751.168 L49.2446 740.575 L39.1261 731.51 Q39.0734 731.458 37.8086 730.614 Q36.8599 732.301 36.8599 734.725 L31.8007 734.725 L32.1169 723.605 L31.8007 713.698 L36.8599 713.698 Q36.8599 718.019 37.1761 720.285 Q37.4396 722.499 37.8086 723.184 Q38.1775 723.816 39.1261 724.712 L53.1444 737.307 L74.6462 719.178 L74.6462 711.537 L79.7054 711.537 Z" fill="#000000" fill-rule="nonzero" fill-opacity="1" /><path clip-path="url(#clip510)" d="M82.2307 666.411 Q84.3335 666.411 85.5877 667.702 Q86.842 668.957 86.842 670.543 Q86.842 671.945 86.0304 672.683 Q85.2188 673.42 84.1859 673.42 Q83.7432 673.42 83.1899 673.236 Q82.5996 673.052 81.8987 672.646 Q81.1978 672.203 80.6813 671.281 Q80.1649 670.359 80.0911 669.104 Q79.8329 669.363 79.796 669.436 Q79.3533 669.99 79.2057 671.023 Q79.1319 671.17 79.1319 671.687 Q79.1319 674.232 81.0133 676.814 Q82.8579 679.36 86.3624 682.495 Q90.4573 686.443 91.9698 688.988 Q93.4454 677.81 99.9012 677.81 Q100.971 677.81 102.262 678.106 Q104.697 678.696 106.468 678.696 Q110.009 678.696 110.009 676.298 Q110.009 673.974 107.648 672.498 Q105.287 670.986 100.676 669.731 Q99.8274 669.547 99.5692 669.363 Q99.311 669.178 99.311 668.662 Q99.311 667.739 100.049 667.739 Q104.365 668.588 107.685 670.469 Q111.706 672.867 111.706 676.445 Q111.706 679.434 109.64 681.426 Q107.538 683.381 104.217 683.381 Q103.406 683.381 101.561 683.086 Q100.823 682.864 99.975 682.864 Q98.2411 682.864 96.95 683.824 Q95.6219 684.783 94.9579 686.332 Q94.2939 687.881 93.9987 689.173 Q93.6667 690.427 93.5561 691.644 Q109.161 695.333 110.12 695.85 Q110.784 696.182 111.227 696.92 Q111.706 697.657 111.706 698.432 Q111.706 699.17 111.19 699.908 Q110.71 700.609 109.566 700.609 Q108.976 700.609 107.906 700.314 L64.3758 689.357 L62.9002 689.136 Q62.4575 689.136 62.2362 689.32 Q61.9779 689.468 61.7935 690.353 Q61.609 691.202 61.609 692.899 Q61.609 693.599 61.5721 693.931 Q61.5352 694.227 61.3508 694.485 Q61.1294 694.743 60.6868 694.743 Q60.0596 694.743 59.7276 694.485 Q59.3587 694.19 59.2849 693.968 Q59.2111 693.747 59.1743 693.304 Q59.1374 692.677 58.9529 690.574 Q58.7316 688.472 58.584 686.664 Q58.4364 684.856 58.4364 684.082 Q58.4364 683.639 58.6578 683.418 Q58.8422 683.16 59.0636 683.123 L59.248 683.086 L91.1213 690.943 Q89.8301 687.697 84.1121 682.569 Q77.4719 676.63 77.4719 671.539 Q77.4719 669.141 78.9475 667.776 Q80.3862 666.411 82.2307 666.411 Z" fill="#000000" fill-rule="nonzero" fill-opacity="1" /><path clip-path="url(#clip510)" d="M51.1945 554.032 Q51.8269 553.4 52.7228 553.4 Q53.6187 553.4 54.2511 554.032 Q54.8835 554.665 54.8835 555.561 L54.8835 623.123 Q54.8835 624.018 54.2511 624.651 Q53.6187 625.283 52.7228 625.283 Q51.8269 625.283 51.1945 624.651 Q50.5621 624.018 50.5621 623.123 L50.5621 555.561 Q50.5621 554.665 51.1945 554.032 Z" fill="#000000" fill-rule="nonzero" fill-opacity="1" /><path clip-path="url(#clip510)" d="M79.7054 451.434 L79.3892 463.291 L79.7054 476.256 L74.6462 476.256 L74.6462 472.04 L60.6279 483.897 L72.3801 494.385 L73.4341 495.123 Q73.9084 495.123 74.2773 493.91 Q74.6462 492.646 74.6462 491.17 L79.7054 491.17 L79.3892 502.29 L79.7054 512.197 L74.6462 512.197 Q74.6462 508.877 74.5935 507.349 Q74.4881 505.768 74.0138 503.976 Q73.5395 502.184 72.5909 501.288 L56.728 487.165 L36.8599 503.976 L36.8599 511.67 L31.8007 511.67 L32.1169 499.76 L31.8007 486.743 L36.8599 486.743 L36.8599 491.065 L49.2446 480.472 L39.1261 471.407 Q39.0734 471.355 37.8086 470.511 Q36.8599 472.198 36.8599 474.622 L31.8007 474.622 L32.1169 463.502 L31.8007 453.595 L36.8599 453.595 Q36.8599 457.916 37.1761 460.182 Q37.4396 462.396 37.8086 463.081 Q38.1775 463.713 39.1261 464.609 L53.1444 477.204 L74.6462 459.075 L74.6462 451.434 L79.7054 451.434 Z" fill="#000000" fill-rule="nonzero" fill-opacity="1" /><path clip-path="url(#clip510)" d="M87.8071 440.506 Q86.5159 440.506 85.6675 438.772 L80.6873 428.258 L75.7071 438.919 Q74.9692 440.506 73.6781 440.506 Q72.9403 440.506 72.2763 439.915 Q71.5753 439.288 71.5753 438.477 Q71.5753 437.886 72.3869 436.817 L79.1747 427.446 Q66.7058 428.59 66.3369 428.553 Q65.5991 428.553 65.0457 428 Q64.4555 427.446 64.4555 426.524 Q64.4555 425.786 65.0089 425.196 Q65.5253 424.569 66.3369 424.569 L79.1747 425.676 L72.9772 417.302 Q71.5384 415.346 71.5753 414.645 Q71.5753 413.797 72.2394 413.207 Q72.9034 412.617 73.6781 412.617 Q74.9692 412.617 75.7808 414.35 L80.761 424.864 L85.7781 414.203 Q86.5159 412.617 87.8071 412.617 Q88.5449 412.617 89.2458 413.244 Q89.9098 413.834 89.9098 414.645 Q89.9098 415.088 89.4672 415.863 Q89.3934 416.01 88.2129 417.597 Q87.0324 419.183 85.2248 421.655 Q83.4171 424.089 82.2735 425.676 Q94.7425 424.532 95.1114 424.569 Q95.8492 424.569 96.4394 425.122 Q97.0297 425.676 97.0297 426.598 Q97.0297 427.336 96.5132 427.963 Q95.9599 428.553 95.1114 428.553 L82.2735 427.446 L89.9098 437.997 Q89.9098 439.141 89.3565 439.768 Q88.7662 440.358 88.4342 440.432 Q88.1022 440.506 87.8071 440.506 Z" fill="#000000" fill-rule="nonzero" fill-opacity="1" /><path clip-path="url(#clip510)" d="M103.368 391.574 L2.07761 391.574 Q-1.13712 391.574 -1.13712 389.413 Q-1.13712 387.252 2.23571 387.252 L103.104 387.252 Q106.583 387.252 106.583 389.413 Q106.583 391.574 103.368 391.574 M103.368 379.664 L2.86812 379.664 Q-1.13712 379.664 -1.13712 377.503 Q-1.13712 375.342 2.23571 375.342 L103.104 375.342 Q106.583 375.342 106.583 377.503 Q106.583 379.664 103.368 379.664 Z" fill="#000000" fill-rule="nonzero" fill-opacity="1" /><path clip-path="url(#clip510)" d="M105.634 344.177 Q105.107 344.177 103.79 342.806 Q86.0822 325.415 52.7228 325.415 Q19.258 325.415 2.34111 342.121 Q0.391196 344.177 -0.188509 344.177 Q-1.24252 344.177 -1.24252 343.123 Q-1.24252 342.385 0.918201 339.802 Q3.07892 337.167 8.03277 333.215 Q12.9866 329.21 19.0472 326.258 Q33.7506 319.144 52.7228 319.144 Q70.9572 319.144 85.6606 325.942 Q91.8266 328.841 96.9912 332.899 Q102.156 336.957 104.422 339.644 Q106.688 342.332 106.688 343.123 Q106.688 344.177 105.634 344.177 Z" fill="#000000" fill-rule="nonzero" fill-opacity="1" /><polyline clip-path="url(#clip511)" style="stroke:#008000; stroke-linecap:round; stroke-linejoin:round; stroke-width:8; stroke-opacity:1; fill:none" points="283.499,85.9538 309.364,116.013 335.23,148.379 361.096,182.314 386.961,207.107 412.827,218.952 438.693,226.666 464.559,232.492 490.424,237.266 516.29,241.39 542.156,245.08 568.021,248.468 593.887,251.634 619.753,254.632 645.619,257.502 671.484,260.268 697.35,262.951 723.216,265.566 749.081,268.123 774.947,270.633 800.813,273.101 826.679,275.535 852.544,277.938 878.41,280.315 904.276,282.669 930.141,285.003 956.007,287.319 981.873,289.618 1007.74,291.904 1033.6,294.177 1059.47,296.439 1085.34,298.691 1111.2,300.933 1137.07,303.168 1162.93,305.395 1188.8,307.615 1214.66,309.828 1240.53,312.036 1266.4,314.239 1292.26,316.438 1318.13,318.631 1343.99,320.821 1369.86,323.007 1395.72,325.19 1421.59,327.369 1447.46,329.546 1473.32,331.719 1499.19,333.89 1525.05,336.059 1550.92,338.225 1576.78,340.389 1602.65,342.552 1628.52,344.712 1654.38,346.87 1680.25,349.027 1706.11,351.181 1731.98,353.335 1757.84,355.486 1783.71,357.637 1809.58,359.786 1835.44,361.933 1861.31,364.08 1887.17,366.225 1913.04,368.369 1938.9,370.511 1964.77,372.653 1990.64,374.793 2016.5,376.933 2042.37,379.071 2068.23,381.208 2094.1,383.344 2119.96,385.48 2145.83,387.614 2171.7,389.748 2197.56,391.88 2223.43,394.012 2249.29,396.143 2275.16,398.273 2301.02,400.402 2326.89,402.53 2352.76,404.657 2378.62,406.784 2404.49,408.91 2430.35,411.035 2456.22,413.159 2482.08,415.283 2507.95,417.406 2533.82,419.528 2559.68,421.649 2585.55,423.77 2611.41,425.89 2637.28,428.009 2663.14,430.128 2689.01,432.246 2714.88,434.363 2740.74,436.48 2766.61,438.596 2792.47,440.711 2818.34,442.826 2844.2,444.94 2870.07,447.054 2895.94,449.166 2921.8,451.279 2947.67,453.39 2973.53,455.501 2999.4,457.612 3025.26,459.722 3051.13,461.831 3077,463.94 3102.86,466.048 3128.73,468.156 3154.59,470.263 3180.46,472.37 3206.32,474.476 3232.19,476.581 3258.06,478.686 3283.92,480.791 3309.79,482.895 3335.65,484.998 3361.52,487.101 3387.38,489.204 3413.25,491.306 3439.12,493.407 3464.98,495.508 3490.85,497.609 3516.71,499.709 3542.58,501.808 3568.44,503.908 3594.31,506.006 3620.18,508.105 3646.04,510.203 3671.91,512.3 3697.77,514.397 3723.64,516.493 3749.5,518.59 3775.37,520.685 3801.24,522.781 3827.1,524.876 3852.97,526.97 3878.83,529.064 3904.7,531.158 3930.56,533.251 3956.43,535.344 3982.3,537.437 4008.16,539.529 4034.03,541.621 4059.89,543.712 4085.76,545.803 4111.62,547.894 4137.49,549.984 4163.36,552.074 4189.22,554.164 4215.09,556.253 4240.95,558.342 4266.82,560.43 4292.68,562.519 4318.55,564.606 4344.42,566.694 4370.28,568.781 4396.15,570.868 4422.01,572.955 4447.88,575.041 4473.74,577.127 4499.61,579.213 4525.48,581.298 4551.34,583.383 4577.21,585.468 4603.07,587.552 4628.94,589.637 4654.8,591.721 4680.67,593.804 4706.54,595.887 4732.4,597.97 4758.27,600.053 4784.13,602.136 4810,604.218 4835.86,606.3 4861.73,608.382 4887.6,610.463 4913.46,612.544 4939.33,614.625 4965.19,616.706 4991.06,618.786 5016.92,620.866 5042.79,622.946 5068.66,625.026 5094.52,627.105 5120.39,629.184 5146.25,631.263 5172.12,633.342 5197.98,635.42 5223.85,637.499 5249.72,639.577 5275.58,641.654 5301.45,643.732 5327.31,645.809 5353.18,647.886 5379.04,649.963 5404.91,652.04 5430.78,654.116 5456.64,656.193 5482.51,658.269 5508.37,660.345 5534.24,662.42 5560.1,664.496 5585.97,666.571 5611.84,668.646 5637.7,670.721 5663.57,672.796 5689.43,674.87 5715.3,676.944 5741.16,679.018 5767.03,681.092 5792.9,683.166 5818.76,685.24 5844.63,687.313 5870.49,689.386 5896.36,691.459 5922.22,693.532 5948.09,695.605 5973.96,697.677 5999.82,699.75 6025.69,701.822 6051.55,703.894 6077.42,705.966 6103.28,708.037 6129.15,710.109 6155.02,712.18 6180.88,714.251 6206.75,716.322 6232.61,718.393 6258.48,720.464 6284.34,722.535 6310.21,724.605 6336.08,726.675 6361.94,728.746 6387.81,730.816 6413.67,732.885 6439.54,734.955 6465.4,737.025 6491.27,739.094 6517.14,741.163 6543,743.233 6568.87,745.302 6594.73,747.371 6620.6,749.439 6646.46,751.508 6672.33,753.576 6698.2,755.645 6724.06,757.713 6749.93,759.781 6775.79,761.849 6801.66,763.917 6827.52,765.985 6853.39,768.052 6879.26,770.12 6905.12,772.187 6930.99,774.255 6956.85,776.322 6982.72,778.389 7008.58,780.456 7034.45,782.523 7060.32,784.589 7086.18,786.656 7112.05,788.722 7137.91,790.789 7163.78,792.855 7189.64,794.921 7215.51,796.987 7241.38,799.053 7267.24,801.119 7293.11,803.185 7318.97,805.25 7344.84,807.316 7370.7,809.381 7396.57,811.447 7422.44,813.512 7448.3,815.577 7474.17,817.642 7500.03,819.707 7525.9,821.772 7551.76,823.837 7577.63,825.901 7603.5,827.966 7629.36,830.03 7655.23,832.095 7681.09,834.159 7706.96,836.223 7732.83,838.287 7758.69,840.351 7784.56,842.415 7810.42,844.479 7836.29,846.543 7862.15,848.607 7888.02,850.67 7913.89,852.734 7939.75,854.797 7965.62,856.861 7991.48,858.924 8017.35,860.987 8043.21,863.051 "/>
<polyline clip-path="url(#clip511)" style="stroke:#0000ff; stroke-linecap:round; stroke-linejoin:round; stroke-width:8; stroke-opacity:1; fill:none" points="283.499,85.9538 309.364,116.013 335.23,158.261 361.096,209.051 386.961,230.393 412.827,240.418 438.693,247.213 464.559,253.505 490.424,260.258 516.29,267.752 542.156,276.01 568.021,284.993 593.887,294.682 619.753,305.104 645.619,316.334 671.484,328.479 697.35,341.654 723.216,355.971 749.081,371.545 774.947,388.505 800.813,407.012 826.679,427.281 852.544,449.589 878.41,474.3 904.276,501.887 930.141,532.954 956.007,568.199 981.873,608.011 1007.74,650.599 1033.6,686.095 1059.47,694.707 1085.34,675.434 1111.2,679.058 1137.07,682.592 1162.93,687.023 1188.8,692.282 1214.66,698.315 1240.53,705.08 1266.4,712.551 1292.26,720.714 1318.13,729.576 1343.99,739.158 1369.86,749.5 1395.72,760.664 1421.59,772.726 1447.46,785.785 1473.32,799.955 1499.19,815.377 1525.05,832.214 1550.92,850.662 1576.78,870.958 1602.65,893.393 1628.52,918.32 1654.38,946.157 1680.25,977.342 1706.11,1012.12 1731.98,1049.78 1757.84,1086.41 1783.71,1111.73 1809.58,1115.06 1835.44,1117.91 1861.31,1120.75 1887.17,1124.38 1913.04,1128.79 1938.9,1133.95 1964.77,1139.89 1990.64,1146.6 2016.5,1154.1 2042.37,1162.42 2068.23,1171.58 2094.1,1181.62 2119.96,1192.59 2145.83,1204.54 2171.7,1217.53 2197.56,1231.65 2223.43,1246.97 2249.29,1263.61 2275.16,1281.68 2301.02,1301.31 2326.89,1322.66 2352.76,1345.87 2378.62,1371.05 2404.49,1398.15 2430.35,1426.78 2456.22,1455.71 2482.08,1482.23 2507.95,1502 2533.82,1511.24 2559.68,1514.05 2585.55,1516.86 2611.41,1520.47 2637.28,1524.86 2663.14,1530.02 2689.01,1535.98 2714.88,1542.73 2740.74,1550.29 2766.61,1558.7 2792.47,1567.98 2818.34,1578.16 2844.2,1589.29 2870.07,1601.41 2895.94,1614.6 2921.8,1628.91 2947.67,1644.43 2973.53,1661.26 2999.4,1679.5 3025.26,1699.27 3051.13,1720.69 3077,1743.84 3102.86,1768.76 3128.73,1795.27 3154.59,1822.77 3180.46,1849.83 3206.32,1873.75 3232.19,1890.91 3258.06,1898.84 3283.92,1901.69 3309.79,1904.54 3335.65,1908.19 3361.52,1912.63 3387.38,1917.87 3413.25,1923.91 3439.12,1930.76 3464.98,1938.45 3490.85,1946.99 3516.71,1956.42 3542.58,1966.77 3568.44,1978.1 3594.31,1990.45 3620.18,2003.88 3646.04,2018.48 3671.91,2034.32 3697.77,2051.5 3723.64,2070.14 3749.5,2090.35 3775.37,2112.25 3801.24,2135.91 3827.1,2161.32 3852.97,2188.22 3878.83,2215.8 3904.7,2242.31 3930.56,2264.66 3956.43,2279.32 3982.3,2281.87 4008.16,2284.42 4034.03,2287.68 4059.89,2291.66 4085.76,2296.34 4111.62,2301.72 4137.49,2307.82 4163.36,2314.65 4189.22,2322.22 4215.09,2330.56 4240.95,2339.69 4266.82,2349.65 4292.68,2360.47 4318.55,2372.2 4344.42,2384.88 4370.28,2398.6 4396.15,2413.41 4422.01,2429.42 4447.88,2446.72 4473.74,2465.43 4499.61,2485.71 4525.48,2507.69 4551.34,2531.53 4577.21,2557.3 4603.07,2584.93 4628.94,2613.83 4654.8,2642.42 4680.67,2667.35 4706.54,2683.85 4732.4,2688.88 4758.27,2692.09 4784.13,2695.31 4810,2699.44 4835.86,2704.48 4861.73,2710.44 4887.6,2717.33 4913.46,2725.19 4939.33,2734.06 4965.19,2743.97 4991.06,2755.01 5016.92,2767.23 5042.79,2780.75 5068.66,2795.68 5094.52,2812.18 5120.39,2830.45 5146.25,2850.74 5172.12,2873.4 5197.98,2898.89 5223.85,2927.87 5249.72,2961.23 5275.58,3000.26 5301.45,3046.52 5327.31,3100.27 5353.18,3150.54 5379.04,3160.56 5404.91,3162.9 5430.78,3165.24 5456.64,3168.23 5482.51,3171.88 5508.37,3176.17 5534.24,3181.11 5560.1,3186.71 5585.97,3192.97 5611.84,3199.93 5637.7,3207.58 5663.57,3215.97 5689.43,3225.11 5715.3,3235.05 5741.16,3245.83 5767.03,3257.51 5792.9,3270.14 5818.76,3283.8 5844.63,3298.59 5870.49,3314.61 5896.36,3332.02 5922.22,3350.99 5948.09,3371.74 5973.96,3394.55 5999.82,3419.75 6025.69,3447.77 6051.55,3478.99 6077.42,3513.56 6103.28,3550.43 6129.15,3584.92 6155.02,3606.12 6180.88,3605.15 6206.75,3608.41 6232.61,3611.66 6258.48,3615.85 6284.34,3620.97 6310.21,3627.01 6336.08,3634.01 6361.94,3642 6387.81,3651.02 6413.67,3661.11 6439.54,3672.36 6465.4,3684.84 6491.27,3698.67 6517.14,3713.98 6543,3730.95 6568.87,3749.82 6594.73,3770.88 6620.6,3794.57 6646.46,3821.5 6672.33,3852.56 6698.2,3889.2 6724.06,3933.85 6749.93,3991.14 6775.79,4070.33 6801.66,4171.13 6827.52,4140.31 6853.39,4143.08 6879.26,4145.84 6905.12,4149.39 6930.99,4153.7 6956.85,4158.79 6982.72,4164.65 7008.58,4171.29 7034.45,4178.74 7060.32,4187.01 7086.18,4196.14 7112.05,4206.15 7137.91,4217.08 7163.78,4228.99 7189.64,4241.92 7215.51,4255.94 7241.38,4271.12 7267.24,4287.55 7293.11,4305.33 7318.97,4324.56 7344.84,4345.36 7370.7,4367.83 7396.57,4391.99 7422.44,4417.73 7448.3,4444.62 7474.17,4471.54 7500.03,4496.32 7525.9,4515.72 7551.76,4526.8 7577.63,4529.6 7603.5,4532.41 7629.36,4536.02 7655.23,4540.41 7681.09,4545.6 7706.96,4551.59 7732.83,4558.35 7758.69,4565.92 7784.56,4574.33 7810.42,4583.61 7836.29,4593.76 7862.15,4604.87 7888.02,4617 7913.89,4630.17 7939.75,4644.51 7965.62,4660.05 7991.48,4676.88 8017.35,4695.11 8043.21,4714.88 8069.08,4736.24 8094.95,4759.35 8120.81,4784.23 8146.68,4810.56 8172.54,4838.09 8198.41,4865.51 8224.27,4889.14 8250.14,4905 8276.01,4911.83 8301.87,4914.82 8327.74,4917.87 8353.6,4922.08 8379.47,4926.96 8405.33,4931.65 8431.2,4936.58 8457.07,4942.35 8482.93,4948.3 8508.8,4955.25 8534.66,4962.47 8560.53,4971.2 8586.39,4980.53 8612.26,4991.51 8638.13,5002.4 8663.99,5014.08 8689.86,5026.66 8715.72,5040.97 8741.59,5056.74 8767.45,5074.41 8793.32,5094.21 8819.19,5111.58 8845.05,5132.55 8870.92,5153.76 8896.78,5176.79 8922.65,5202.38 8948.51,5235.96 8974.38,5267.17 9000.25,5289.08 9026.11,5287.6 9051.98,5290.41 9077.84,5293.24 9103.71,5296.28 9129.57,5299.41 9155.44,5304.82 9181.31,5310.5 9207.17,5316.27 9233.04,5322.04 9258.9,5327.83 9284.77,5333.75 9310.63,5342.44 9336.5,5351.11 9362.37,5356.86 9388.23,5365.27 9414.1,5370.55 9439.96,5375.59 9465.83,5380.23 9491.69,5384.37 9517.56,5387.92 9543.43,5390.03 9569.29,5391.3 9595.16,5392.27 9621.02,5392.07 9646.89,5390.93 9672.75,5390.74 9698.62,5390.47 9724.49,5389.52 9750.35,5388.22 9776.22,5388.22 9802.08,5388.22 9827.95,5388.22 9853.81,5388.22 9879.68,5388.22 9905.55,5388.22 9931.41,5388.22 9957.28,5388.22 9983.14,5388.22 10009,5388.22 10034.9,5388.22 10060.7,5388.22 10086.6,5388.22 10112.5,5388.22 10138.3,5388.22 10164.2,5388.22 10190.1,5388.22 10215.9,5388.22 10241.8,5388.22 10267.7,5388.22 10293.5,5388.22 10319.4,5388.22 10345.3,5388.22 10371.1,5388.22 10397,5388.22 10422.9,5388.22 10448.7,5388.22 10474.6,5388.22 10500.5,5388.22 10526.3,5388.22 10552.2,5388.22 10578.1,5388.22 10603.9,5388.22 10629.8,5388.22 10655.7,5388.22 10681.5,5388.22 10707.4,5388.22 10733.2,5388.22 10759.1,5388.22 10785,5388.22 10810.8,5388.22 10836.7,5388.22 10862.6,5388.22 10888.4,5388.22 10914.3,5388.22 10940.2,5388.22 10966,5388.22 10991.9,5388.22 11017.8,5388.22 11043.6,5388.22 11069.5,5388.22 11095.4,5388.22 11121.2,5388.22 11147.1,5388.22 11173,5388.22 11198.8,5388.22 11224.7,5388.22 11250.6,5388.22 11276.4,5388.22 11302.3,5388.22 11328.2,5388.22 11354,5388.22 11379.9,5388.22 11405.8,5388.22 11431.6,5388.22 11457.5,5388.22 11483.4,5388.22 11509.2,5388.22 11535.1,5388.22 11561,5388.22 11586.8,5388.22 11612.7,5388.22 11638.5,5388.22 11664.4,5388.22 11690.3,5388.22 11716.1,5388.22 11742,5388.22 11767.9,5388.22 11793.7,5388.22 11819.6,5388.22 11845.5,5388.22 11871.3,5388.22 11897.2,5388.22 11923.1,5388.22 11948.9,5388.22 11974.8,5388.22 12000.7,5388.22 12026.5,5388.22 12052.4,5388.22 12078.3,5388.22 12104.1,5388.22 12130,5388.22 12155.9,5388.22 12181.7,5388.22 12207.6,5388.22 12233.5,5388.22 12259.3,5388.22 12285.2,5388.22 12311.1,5388.22 12336.9,5388.22 12362.8,5388.22 12388.7,5388.22 12414.5,5388.22 12440.4,5388.22 12466.3,5388.22 12492.1,5388.22 12518,5388.22 12543.8,5388.22 12569.7,5388.22 12595.6,5388.22 12621.4,5388.22 12647.3,5388.22 12673.2,5388.22 12699,5388.22 12724.9,5388.22 12750.8,5388.22 12776.6,5388.22 12802.5,5388.22 12828.4,5388.22 12854.2,5388.22 12880.1,5388.22 12906,5388.22 12931.8,5388.22 12957.7,5388.22 12983.6,5388.22 13009.4,5388.22 13035.3,5388.22 13061.2,5388.22 13087,5388.22 13112.9,5388.22 13138.8,5388.22 13164.6,5388.22 13190.5,5388.22 13216.4,5388.22 "/>
<polyline clip-path="url(#clip511)" style="stroke:#ff0000; stroke-linecap:round; stroke-linejoin:round; stroke-width:8; stroke-opacity:1; fill:none" points="283.499,85.9538 309.364,136.776 335.23,210.13 361.096,235.03 386.961,240.781 412.827,243.792 438.693,248.527 464.559,254.72 490.424,262.213 516.29,270.895 542.156,280.698 568.021,291.59 593.887,303.6 619.753,316.84 645.619,331.531 671.484,347.991 697.35,366.608 723.216,387.812 749.081,412.084 774.947,440.021 800.813,472.469 826.679,510.736 852.544,556.921 878.41,614.096 904.276,682.442 930.141,726.377 956.007,730.03 981.873,735.816 1007.74,743.436 1033.6,752.713 1059.47,763.548 1085.34,775.933 1111.2,789.958 1137.07,805.82 1162.93,823.818 1188.8,844.359 1214.66,867.964 1240.53,895.316 1266.4,927.344 1292.26,965.39 1318.13,1011.47 1343.99,1068.41 1369.86,1136.42 1395.72,1185.32 1421.59,1188.38 1447.46,1193.28 1473.32,1199.79 1499.19,1207.8 1525.05,1217.27 1550.92,1228.2 1576.78,1240.65 1602.65,1254.73 1628.52,1270.63 1654.38,1288.53 1680.25,1308.69 1706.11,1331.4 1731.98,1356.98 1757.84,1385.81 1783.71,1418.26 1809.58,1454.52 1835.44,1493.94 1861.31,1533.24 1887.17,1563.61 1913.04,1574.52 1938.9,1577.61 1964.77,1582.64 1990.64,1589.48 2016.5,1598.1 2042.37,1608.56 2068.23,1620.91 2094.1,1635.29 2119.96,1651.86 2145.83,1670.83 2171.7,1692.53 2197.56,1717.33 2223.43,1745.75 2249.29,1778.44 2275.16,1816.14 2301.02,1859.26 2326.89,1906.08 2352.76,1947.07 2378.62,1962.95 2404.49,1965.48 2430.35,1969.59 2456.22,1975.17 2482.08,1982.21 2507.95,1990.71 2533.82,2000.72 2559.68,2012.28 2585.55,2025.48 2611.41,2040.42 2637.28,2057.24 2663.14,2076.11 2689.01,2097.24 2714.88,2120.93 2740.74,2147.52 2766.61,2177.43 2792.47,2211.12 2818.34,2248.82 2844.2,2289.7 2870.07,2329.28 2895.94,2356.15 2921.8,2360.02 2947.67,2363.28 2973.53,2368.59 2999.4,2375.86 3025.26,2385.1 3051.13,2396.39 3077,2409.86 3102.86,2425.69 3128.73,2444.15 3154.59,2465.62 3180.46,2490.63 3206.32,2519.98 3232.19,2554.93 3258.06,2597.62 3283.92,2652.09 3309.79,2727.46 3335.65,2848.7 3361.52,2912.09 3387.38,2914.71 3413.25,2918.95 3439.12,2924.72 3464.98,2932.02 3490.85,2940.84 3516.71,2951.25 3542.58,2963.28 3568.44,2977.05 3594.31,2992.65 3620.18,3010.24 3646.04,3030 3671.91,3052.17 3697.77,3077.04 3723.64,3104.97 3749.5,3136.34 3775.37,3171.43 3801.24,3209.95 3827.1,3249.55 3852.97,3283.04 3878.83,3299.24 3904.7,3302.26 3930.56,3307.16 3956.43,3313.84 3982.3,3322.32 4008.16,3332.62 4034.03,3344.83 4059.89,3359.07 4085.76,3375.49 4111.62,3394.29 4137.49,3415.77 4163.36,3440.27 4189.22,3468.25 4215.09,3500.3 4240.95,3537.03 4266.82,3578.7 4292.68,3623.58 4318.55,3663.34 4344.42,3681.33 4370.28,3683.81 4396.15,3687.83 4422.01,3693.31 4447.88,3700.22 4473.74,3708.58 4499.61,3718.42 4525.48,3729.81 4551.34,3742.8 4577.21,3757.52 4603.07,3774.08 4628.94,3792.65 4654.8,3813.47 4680.67,3836.79 4706.54,3863 4732.4,3892.53 4758.27,3925.91 4784.13,3963.55 4810,4005.06 4835.86,4046.85 4861.73,4077.68 4887.6,4084.15 4913.46,4087.41 4939.33,4092.71 4965.19,4099.97 4991.06,4109.21 5016.92,4120.5 5042.79,4133.96 5068.66,4149.79 5094.52,4168.26 5120.39,4189.72 5146.25,4214.72 5172.12,4244.05 5197.98,4278.97 5223.85,4321.6 5249.72,4375.94 5275.58,4451.01 5301.45,4570.61 5327.31,4632.84 5353.18,4635.41 5379.04,4639.56 5404.91,4645.28 5430.78,4652.48 5456.64,4661.19 5482.51,4671.43 5508.37,4683.33 5534.24,4696.92 5560.1,4712.27 5585.97,4729.52 5611.84,4748.96 5637.7,4770.89 5663.57,4795.51 5689.43,4823.35 5715.3,4854.62 5741.16,4889.94 5767.03,4929.24 5792.9,4970.64 5818.76,5006.5 5844.63,5023.06 5870.49,5025.15 5896.36,5029.02 5922.22,5034.91 5948.09,5041.45 5973.96,5051.58 5999.82,5062.54 6025.69,5075.84 6051.55,5090.4 6077.42,5108.68 6103.28,5129.34 6129.15,5155.71 6155.02,5179.82 6180.88,5203.04 6206.75,5224 6232.61,5240 6258.48,5254.53 6284.34,5267.61 6310.21,5281.54 6336.08,5298.24 6361.94,5315.84 6387.81,5317.73 6413.67,5320.77 6439.54,5323.78 6465.4,5327.63 6491.27,5330.93 6517.14,5339.51 6543,5348.16 6568.87,5352.67 6594.73,5355.76 6620.6,5358.31 6646.46,5361.32 6672.33,5364.54 6698.2,5367.19 6724.06,5369.51 6749.93,5371.48 6775.79,5373.11 6801.66,5374.62 6827.52,5376.03 6853.39,5377.31 6879.26,5377.68 6905.12,5377.68 6930.99,5377.68 6956.85,5377.68 6982.72,5377.68 7008.58,5377.68 7034.45,5377.68 7060.32,5377.68 7086.18,5377.68 7112.05,5377.68 7137.91,5377.68 7163.78,5377.68 7189.64,5377.68 7215.51,5377.68 7241.38,5377.68 7267.24,5377.68 7293.11,5377.68 7318.97,5377.68 7344.84,5377.68 7370.7,5377.68 7396.57,5377.68 7422.44,5377.68 7448.3,5377.68 7474.17,5377.68 7500.03,5377.68 7525.9,5377.68 7551.76,5377.68 7577.63,5377.68 7603.5,5377.68 7629.36,5377.68 7655.23,5377.68 7681.09,5377.68 7706.96,5377.68 7732.83,5377.68 7758.69,5377.68 7784.56,5377.68 7810.42,5377.68 7836.29,5377.68 7862.15,5377.68 7888.02,5377.68 7913.89,5377.68 7939.75,5377.68 7965.62,5377.68 7991.48,5377.68 8017.35,5377.68 8043.21,5377.68 8069.08,5377.68 8094.95,5377.68 8120.81,5377.68 8146.68,5377.68 8172.54,5377.68 8198.41,5377.68 8224.27,5377.68 8250.14,5377.68 8276.01,5377.68 8301.87,5377.68 8327.74,5377.68 8353.6,5377.68 8379.47,5377.68 8405.33,5377.68 8431.2,5377.68 8457.07,5377.68 8482.93,5377.68 8508.8,5377.68 8534.66,5377.68 8560.53,5377.68 8586.39,5377.68 8612.26,5377.68 8638.13,5377.68 8663.99,5377.68 8689.86,5377.68 8715.72,5377.68 8741.59,5377.68 8767.45,5377.68 8793.32,5377.68 8819.19,5377.68 8845.05,5377.68 8870.92,5377.68 8896.78,5377.68 8922.65,5377.68 8948.51,5377.68 8974.38,5377.68 9000.25,5377.68 9026.11,5377.68 9051.98,5377.68 9077.84,5377.68 9103.71,5377.68 9129.57,5377.68 9155.44,5377.68 9181.31,5377.68 9207.17,5377.68 9233.04,5377.68 9258.9,5377.68 9284.77,5377.68 9310.63,5377.68 9336.5,5377.68 9362.37,5377.68 9388.23,5377.68 9414.1,5377.68 9439.96,5377.68 9465.83,5377.68 9491.69,5377.68 9517.56,5377.68 9543.43,5377.68 9569.29,5377.68 9595.16,5377.68 9621.02,5377.68 9646.89,5377.68 9672.75,5377.68 9698.62,5377.68 9724.49,5377.68 9750.35,5377.68 9776.22,5377.68 9802.08,5377.68 9827.95,5377.68 9853.81,5377.68 9879.68,5377.68 9905.55,5377.68 9931.41,5377.68 9957.28,5377.68 9983.14,5377.68 10009,5377.68 10034.9,5377.68 10060.7,5377.68 10086.6,5377.68 10112.5,5377.68 10138.3,5377.68 10164.2,5377.68 10190.1,5377.68 10215.9,5377.68 10241.8,5377.68 10267.7,5377.68 10293.5,5377.68 10319.4,5377.68 10345.3,5377.68 10371.1,5377.68 10397,5377.68 10422.9,5377.68 10448.7,5377.68 10474.6,5377.68 10500.5,5377.68 10526.3,5377.68 10552.2,5377.68 10578.1,5377.68 10603.9,5377.68 10629.8,5377.68 10655.7,5377.68 10681.5,5377.68 10707.4,5377.68 10733.2,5377.68 10759.1,5377.68 10785,5377.68 10810.8,5377.68 10836.7,5377.68 10862.6,5377.68 10888.4,5377.68 10914.3,5377.68 10940.2,5377.68 10966,5377.68 10991.9,5377.68 11017.8,5377.68 11043.6,5377.68 11069.5,5377.68 11095.4,5377.68 11121.2,5377.68 11147.1,5377.68 11173,5377.68 11198.8,5377.68 11224.7,5377.68 11250.6,5377.68 11276.4,5377.68 11302.3,5377.68 11328.2,5377.68 11354,5377.68 11379.9,5377.68 11405.8,5377.68 11431.6,5377.68 11457.5,5377.68 11483.4,5377.68 11509.2,5377.68 11535.1,5377.68 11561,5377.68 11586.8,5377.68 11612.7,5377.68 11638.5,5377.68 11664.4,5377.68 11690.3,5377.68 11716.1,5377.68 11742,5377.68 11767.9,5377.68 11793.7,5377.68 11819.6,5377.68 11845.5,5377.68 11871.3,5377.68 11897.2,5377.68 11923.1,5377.68 11948.9,5377.68 11974.8,5377.68 12000.7,5377.68 12026.5,5377.68 12052.4,5377.68 12078.3,5377.68 12104.1,5377.68 12130,5377.68 12155.9,5377.68 12181.7,5377.68 12207.6,5377.68 12233.5,5377.68 12259.3,5377.68 12285.2,5377.68 12311.1,5377.68 12336.9,5377.68 12362.8,5377.68 12388.7,5377.68 12414.5,5377.68 12440.4,5377.68 12466.3,5377.68 12492.1,5377.68 12518,5377.68 12543.8,5377.68 12569.7,5377.68 12595.6,5377.68 12621.4,5377.68 12647.3,5377.68 12673.2,5377.68 12699,5377.68 12724.9,5377.68 12750.8,5377.68 12776.6,5377.68 12802.5,5377.68 12828.4,5377.68 12854.2,5377.68 12880.1,5377.68 12906,5377.68 12931.8,5377.68 12957.7,5377.68 12983.6,5377.68 13009.4,5377.68 13035.3,5377.68 13061.2,5377.68 13087,5377.68 13112.9,5377.68 13138.8,5377.68 13164.6,5377.68 13190.5,5377.68 13216.4,5377.68 "/>
<circle clip-path="url(#clip511)" cx="1111.2" cy="679.058" r="21.6" fill="#0000ff" fill-rule="evenodd" fill-opacity="1" stroke="none"/>
<circle clip-path="url(#clip511)" cx="1835.44" cy="1117.91" r="21.6" fill="#0000ff" fill-rule="evenodd" fill-opacity="1" stroke="none"/>
<circle clip-path="url(#clip511)" cx="412.827" cy="243.792" r="21.6" fill="#ff0000" fill-rule="evenodd" fill-opacity="1" stroke="none"/>
<circle clip-path="url(#clip511)" cx="956.007" cy="730.03" r="21.6" fill="#ff0000" fill-rule="evenodd" fill-opacity="1" stroke="none"/>
<circle clip-path="url(#clip511)" cx="1421.59" cy="1188.38" r="21.6" fill="#ff0000" fill-rule="evenodd" fill-opacity="1" stroke="none"/>
<path clip-path="url(#clip510)" d="M875.507 558.085 L2283.78 558.085 L2283.78 91.5246 L875.507 91.5246  Z" fill="#ffffff" fill-rule="evenodd" fill-opacity="1"/>
<polyline clip-path="url(#clip510)" style="stroke:#000000; stroke-linecap:round; stroke-linejoin:round; stroke-width:4; stroke-opacity:1; fill:none" points="875.507,558.085 2283.78,558.085 2283.78,91.5246 875.507,91.5246 875.507,558.085 "/>
<polyline clip-path="url(#clip510)" style="stroke:#008000; stroke-linecap:round; stroke-linejoin:round; stroke-width:18; stroke-opacity:1; fill:none" points="898.499,208.165 1036.45,208.165 "/>
<path clip-path="url(#clip510)" d="M1116.94 235.951 L1116.94 215.066 L1099.75 215.066 L1099.75 206.42 L1127.36 206.42 L1127.36 239.805 Q1121.26 244.128 1113.92 246.368 Q1106.58 248.555 1098.24 248.555 Q1080.01 248.555 1069.7 237.93 Q1059.44 227.253 1059.44 208.243 Q1059.44 189.18 1069.7 178.555 Q1080.01 167.878 1098.24 167.878 Q1105.85 167.878 1112.67 169.753 Q1119.55 171.628 1125.33 175.274 L1125.33 186.472 Q1119.49 181.524 1112.93 179.024 Q1106.37 176.524 1099.13 176.524 Q1084.86 176.524 1077.67 184.493 Q1070.53 192.462 1070.53 208.243 Q1070.53 223.972 1077.67 231.941 Q1084.86 239.909 1099.13 239.909 Q1104.7 239.909 1109.08 238.972 Q1113.45 237.982 1116.94 235.951 Z" fill="#000000" fill-rule="nonzero" fill-opacity="1" /><path clip-path="url(#clip510)" d="M1157.1 177.93 L1157.1 238.399 L1169.81 238.399 Q1185.9 238.399 1193.35 231.107 Q1200.85 223.816 1200.85 208.086 Q1200.85 192.462 1193.35 185.222 Q1185.9 177.93 1169.81 177.93 L1157.1 177.93 M1146.58 169.285 L1168.19 169.285 Q1190.79 169.285 1201.37 178.712 Q1211.94 188.087 1211.94 208.086 Q1211.94 228.191 1201.32 237.618 Q1190.69 247.045 1168.19 247.045 L1146.58 247.045 L1146.58 169.285 Z" fill="#000000" fill-rule="nonzero" fill-opacity="1" /><polyline clip-path="url(#clip510)" style="stroke:#0000ff; stroke-linecap:round; stroke-linejoin:round; stroke-width:18; stroke-opacity:1; fill:none" points="898.499,324.805 1036.45,324.805 "/>
<path clip-path="url(#clip510)" d="M1059.44 285.925 L1073.61 285.925 L1108.09 350.976 L1108.09 285.925 L1118.3 285.925 L1118.3 363.685 L1104.13 363.685 L1069.65 298.633 L1069.65 363.685 L1059.44 363.685 L1059.44 285.925 Z" fill="#000000" fill-rule="nonzero" fill-opacity="1" /><path clip-path="url(#clip510)" d="M1188.71 332.122 L1188.71 336.81 L1144.65 336.81 Q1145.27 346.706 1150.59 351.914 Q1155.95 357.07 1165.48 357.07 Q1171 357.07 1176.16 355.716 Q1181.37 354.362 1186.47 351.653 L1186.47 360.716 Q1181.32 362.903 1175.9 364.049 Q1170.48 365.195 1164.91 365.195 Q1150.95 365.195 1142.77 357.07 Q1134.65 348.945 1134.65 335.091 Q1134.65 320.768 1142.36 312.383 Q1150.12 303.945 1163.24 303.945 Q1175.01 303.945 1181.84 311.549 Q1188.71 319.102 1188.71 332.122 M1179.13 329.31 Q1179.02 321.445 1174.7 316.758 Q1170.43 312.07 1163.35 312.07 Q1155.33 312.07 1150.48 316.602 Q1145.69 321.133 1144.96 329.362 L1179.13 329.31 Z" fill="#000000" fill-rule="nonzero" fill-opacity="1" /><path clip-path="url(#clip510)" d="M1241.63 307.07 L1241.63 316.133 Q1237.57 314.049 1233.19 313.008 Q1228.82 311.966 1224.13 311.966 Q1216.99 311.966 1213.4 314.154 Q1209.86 316.341 1209.86 320.716 Q1209.86 324.049 1212.41 325.976 Q1214.96 327.851 1222.67 329.57 L1225.95 330.299 Q1236.16 332.487 1240.43 336.497 Q1244.75 340.456 1244.75 347.591 Q1244.75 355.716 1238.29 360.455 Q1231.89 365.195 1220.64 365.195 Q1215.95 365.195 1210.85 364.258 Q1205.79 363.372 1200.17 361.549 L1200.17 351.653 Q1205.48 354.414 1210.64 355.82 Q1215.79 357.174 1220.85 357.174 Q1227.62 357.174 1231.26 354.883 Q1234.91 352.539 1234.91 348.32 Q1234.91 344.414 1232.25 342.331 Q1229.65 340.247 1220.74 338.32 L1217.41 337.539 Q1208.5 335.664 1204.54 331.81 Q1200.59 327.904 1200.59 321.133 Q1200.59 312.904 1206.42 308.424 Q1212.25 303.945 1222.98 303.945 Q1228.29 303.945 1232.98 304.727 Q1237.67 305.508 1241.63 307.07 Z" fill="#000000" fill-rule="nonzero" fill-opacity="1" /><path clip-path="url(#clip510)" d="M1269.49 288.789 L1269.49 305.352 L1289.23 305.352 L1289.23 312.799 L1269.49 312.799 L1269.49 344.466 Q1269.49 351.601 1271.42 353.633 Q1273.4 355.664 1279.39 355.664 L1289.23 355.664 L1289.23 363.685 L1279.39 363.685 Q1268.29 363.685 1264.08 359.57 Q1259.86 355.403 1259.86 344.466 L1259.86 312.799 L1252.83 312.799 L1252.83 305.352 L1259.86 305.352 L1259.86 288.789 L1269.49 288.789 Z" fill="#000000" fill-rule="nonzero" fill-opacity="1" /><path clip-path="url(#clip510)" d="M1351.73 332.122 L1351.73 336.81 L1307.67 336.81 Q1308.29 346.706 1313.61 351.914 Q1318.97 357.07 1328.5 357.07 Q1334.02 357.07 1339.18 355.716 Q1344.39 354.362 1349.49 351.653 L1349.49 360.716 Q1344.34 362.903 1338.92 364.049 Q1333.5 365.195 1327.93 365.195 Q1313.97 365.195 1305.79 357.07 Q1297.67 348.945 1297.67 335.091 Q1297.67 320.768 1305.38 312.383 Q1313.14 303.945 1326.26 303.945 Q1338.03 303.945 1344.86 311.549 Q1351.73 319.102 1351.73 332.122 M1342.15 329.31 Q1342.04 321.445 1337.72 316.758 Q1333.45 312.07 1326.37 312.07 Q1318.35 312.07 1313.5 316.602 Q1308.71 321.133 1307.98 329.362 L1342.15 329.31 Z" fill="#000000" fill-rule="nonzero" fill-opacity="1" /><path clip-path="url(#clip510)" d="M1401.26 314.31 Q1399.65 313.372 1397.72 312.956 Q1395.85 312.487 1393.55 312.487 Q1385.43 312.487 1381.05 317.799 Q1376.73 323.06 1376.73 332.956 L1376.73 363.685 L1367.1 363.685 L1367.1 305.352 L1376.73 305.352 L1376.73 314.414 Q1379.75 309.102 1384.6 306.55 Q1389.44 303.945 1396.37 303.945 Q1397.36 303.945 1398.55 304.102 Q1399.75 304.206 1401.21 304.466 L1401.26 314.31 Z" fill="#000000" fill-rule="nonzero" fill-opacity="1" /><path clip-path="url(#clip510)" d="M1431.57 312.07 Q1423.87 312.07 1419.39 318.112 Q1414.91 324.101 1414.91 334.57 Q1414.91 345.039 1419.34 351.081 Q1423.81 357.07 1431.57 357.07 Q1439.23 357.07 1443.71 351.028 Q1448.19 344.987 1448.19 334.57 Q1448.19 324.206 1443.71 318.164 Q1439.23 312.07 1431.57 312.07 M1431.57 303.945 Q1444.07 303.945 1451.21 312.07 Q1458.35 320.195 1458.35 334.57 Q1458.35 348.893 1451.21 357.07 Q1444.07 365.195 1431.57 365.195 Q1419.02 365.195 1411.89 357.07 Q1404.8 348.893 1404.8 334.57 Q1404.8 320.195 1411.89 312.07 Q1419.02 303.945 1431.57 303.945 Z" fill="#000000" fill-rule="nonzero" fill-opacity="1" /><path clip-path="url(#clip510)" d="M1467.36 305.352 L1477.51 305.352 L1495.74 354.31 L1513.97 305.352 L1524.13 305.352 L1502.25 363.685 L1489.23 363.685 L1467.36 305.352 Z" fill="#000000" fill-rule="nonzero" fill-opacity="1" /><path clip-path="url(#clip510)" d="M1571.68 285.925 L1616.37 285.925 L1616.37 294.779 L1582.2 294.779 L1582.2 317.695 L1613.03 317.695 L1613.03 326.549 L1582.2 326.549 L1582.2 363.685 L1571.68 363.685 L1571.68 285.925 Z" fill="#000000" fill-rule="nonzero" fill-opacity="1" /><path clip-path="url(#clip510)" d="M1686.05 352.591 L1686.05 331.706 L1668.87 331.706 L1668.87 323.06 L1696.47 323.06 L1696.47 356.445 Q1690.38 360.768 1683.03 363.008 Q1675.69 365.195 1667.35 365.195 Q1649.13 365.195 1638.81 354.57 Q1628.55 343.893 1628.55 324.883 Q1628.55 305.82 1638.81 295.195 Q1649.13 284.518 1667.35 284.518 Q1674.96 284.518 1681.78 286.393 Q1688.66 288.268 1694.44 291.914 L1694.44 303.112 Q1688.6 298.164 1682.04 295.664 Q1675.48 293.164 1668.24 293.164 Q1653.97 293.164 1646.78 301.133 Q1639.65 309.102 1639.65 324.883 Q1639.65 340.612 1646.78 348.581 Q1653.97 356.549 1668.24 356.549 Q1673.81 356.549 1678.19 355.612 Q1682.56 354.622 1686.05 352.591 Z" fill="#000000" fill-rule="nonzero" fill-opacity="1" /><path clip-path="url(#clip510)" d="M1715.69 285.925 L1731.36 285.925 L1751.21 338.841 L1771.16 285.925 L1786.83 285.925 L1786.83 363.685 L1776.57 363.685 L1776.57 295.404 L1756.52 348.737 L1745.95 348.737 L1725.9 295.404 L1725.9 363.685 L1715.69 363.685 L1715.69 285.925 Z" fill="#000000" fill-rule="nonzero" fill-opacity="1" /><path clip-path="url(#clip510)" d="M1864.23 282.748 Q1857.25 294.727 1853.86 306.445 Q1850.48 318.164 1850.48 330.195 Q1850.48 342.226 1853.86 354.049 Q1857.3 365.82 1864.23 377.747 L1855.9 377.747 Q1848.08 365.508 1844.18 353.685 Q1840.32 341.862 1840.32 330.195 Q1840.32 318.581 1844.18 306.81 Q1848.03 295.039 1855.9 282.748 L1864.23 282.748 Z" fill="#000000" fill-rule="nonzero" fill-opacity="1" /><path clip-path="url(#clip510)" d="M1916.62 314.31 Q1915.01 313.372 1913.08 312.956 Q1911.21 312.487 1908.92 312.487 Q1900.79 312.487 1896.42 317.799 Q1892.09 323.06 1892.09 332.956 L1892.09 363.685 L1882.46 363.685 L1882.46 305.352 L1892.09 305.352 L1892.09 314.414 Q1895.11 309.102 1899.96 306.55 Q1904.8 303.945 1911.73 303.945 Q1912.72 303.945 1913.92 304.102 Q1915.11 304.206 1916.57 304.466 L1916.62 314.31 Z" fill="#000000" fill-rule="nonzero" fill-opacity="1" /><path clip-path="url(#clip510)" d="M1974.23 332.122 L1974.23 336.81 L1930.17 336.81 Q1930.79 346.706 1936.1 351.914 Q1941.47 357.07 1951 357.07 Q1956.52 357.07 1961.68 355.716 Q1966.88 354.362 1971.99 351.653 L1971.99 360.716 Q1966.83 362.903 1961.42 364.049 Q1956 365.195 1950.43 365.195 Q1936.47 365.195 1928.29 357.07 Q1920.17 348.945 1920.17 335.091 Q1920.17 320.768 1927.87 312.383 Q1935.63 303.945 1948.76 303.945 Q1960.53 303.945 1967.35 311.549 Q1974.23 319.102 1974.23 332.122 M1964.64 329.31 Q1964.54 321.445 1960.22 316.758 Q1955.95 312.07 1948.86 312.07 Q1940.84 312.07 1936 316.602 Q1931.21 321.133 1930.48 329.362 L1964.64 329.31 Z" fill="#000000" fill-rule="nonzero" fill-opacity="1" /><path clip-path="url(#clip510)" d="M2027.14 307.07 L2027.14 316.133 Q2023.08 314.049 2018.71 313.008 Q2014.33 311.966 2009.64 311.966 Q2002.51 311.966 1998.92 314.154 Q1995.37 316.341 1995.37 320.716 Q1995.37 324.049 1997.93 325.976 Q2000.48 327.851 2008.19 329.57 L2011.47 330.299 Q2021.68 332.487 2025.95 336.497 Q2030.27 340.456 2030.27 347.591 Q2030.27 355.716 2023.81 360.455 Q2017.4 365.195 2006.15 365.195 Q2001.47 365.195 1996.36 364.258 Q1991.31 363.372 1985.69 361.549 L1985.69 351.653 Q1991 354.414 1996.15 355.82 Q2001.31 357.174 2006.36 357.174 Q2013.13 357.174 2016.78 354.883 Q2020.43 352.539 2020.43 348.32 Q2020.43 344.414 2017.77 342.331 Q2015.17 340.247 2006.26 338.32 L2002.93 337.539 Q1994.02 335.664 1990.06 331.81 Q1986.1 327.904 1986.1 321.133 Q1986.1 312.904 1991.94 308.424 Q1997.77 303.945 2008.5 303.945 Q2013.81 303.945 2018.5 304.727 Q2023.19 305.508 2027.14 307.07 Z" fill="#000000" fill-rule="nonzero" fill-opacity="1" /><path clip-path="url(#clip510)" d="M2055.01 288.789 L2055.01 305.352 L2074.75 305.352 L2074.75 312.799 L2055.01 312.799 L2055.01 344.466 Q2055.01 351.601 2056.94 353.633 Q2058.91 355.664 2064.9 355.664 L2074.75 355.664 L2074.75 363.685 L2064.9 363.685 Q2053.81 363.685 2049.59 359.57 Q2045.37 355.403 2045.37 344.466 L2045.37 312.799 L2038.34 312.799 L2038.34 305.352 L2045.37 305.352 L2045.37 288.789 L2055.01 288.789 Z" fill="#000000" fill-rule="nonzero" fill-opacity="1" /><path clip-path="url(#clip510)" d="M2113.86 334.362 Q2102.25 334.362 2097.77 337.018 Q2093.29 339.674 2093.29 346.081 Q2093.29 351.185 2096.62 354.206 Q2100.01 357.174 2105.79 357.174 Q2113.76 357.174 2118.55 351.549 Q2123.39 345.872 2123.39 336.497 L2123.39 334.362 L2113.86 334.362 M2132.98 330.404 L2132.98 363.685 L2123.39 363.685 L2123.39 354.831 Q2120.11 360.143 2115.22 362.695 Q2110.32 365.195 2103.24 365.195 Q2094.28 365.195 2088.97 360.195 Q2083.71 355.143 2083.71 346.706 Q2083.71 336.862 2090.27 331.862 Q2096.88 326.862 2109.96 326.862 L2123.39 326.862 L2123.39 325.924 Q2123.39 319.31 2119.02 315.716 Q2114.7 312.07 2106.83 312.07 Q2101.83 312.07 2097.09 313.268 Q2092.35 314.466 2087.98 316.862 L2087.98 308.008 Q2093.24 305.977 2098.19 304.987 Q2103.13 303.945 2107.82 303.945 Q2120.48 303.945 2126.73 310.508 Q2132.98 317.07 2132.98 330.404 Z" fill="#000000" fill-rule="nonzero" fill-opacity="1" /><path clip-path="url(#clip510)" d="M2186.52 314.31 Q2184.9 313.372 2182.98 312.956 Q2181.1 312.487 2178.81 312.487 Q2170.69 312.487 2166.31 317.799 Q2161.99 323.06 2161.99 332.956 L2161.99 363.685 L2152.35 363.685 L2152.35 305.352 L2161.99 305.352 L2161.99 314.414 Q2165.01 309.102 2169.85 306.55 Q2174.7 303.945 2181.62 303.945 Q2182.61 303.945 2183.81 304.102 Q2185.01 304.206 2186.47 304.466 L2186.52 314.31 Z" fill="#000000" fill-rule="nonzero" fill-opacity="1" /><path clip-path="url(#clip510)" d="M2206.05 288.789 L2206.05 305.352 L2225.79 305.352 L2225.79 312.799 L2206.05 312.799 L2206.05 344.466 Q2206.05 351.601 2207.98 353.633 Q2209.96 355.664 2215.95 355.664 L2225.79 355.664 L2225.79 363.685 L2215.95 363.685 Q2204.85 363.685 2200.63 359.57 Q2196.41 355.403 2196.41 344.466 L2196.41 312.799 L2189.38 312.799 L2189.38 305.352 L2196.41 305.352 L2196.41 288.789 L2206.05 288.789 Z" fill="#000000" fill-rule="nonzero" fill-opacity="1" /><path clip-path="url(#clip510)" d="M2236.88 282.748 L2245.22 282.748 Q2253.03 295.039 2256.88 306.81 Q2260.79 318.581 2260.79 330.195 Q2260.79 341.862 2256.88 353.685 Q2253.03 365.508 2245.22 377.747 L2236.88 377.747 Q2243.81 365.82 2247.2 354.049 Q2250.63 342.226 2250.63 330.195 Q2250.63 318.164 2247.2 306.445 Q2243.81 294.727 2236.88 282.748 Z" fill="#000000" fill-rule="nonzero" fill-opacity="1" /><polyline clip-path="url(#clip510)" style="stroke:#ff0000; stroke-linecap:round; stroke-linejoin:round; stroke-width:18; stroke-opacity:1; fill:none" points="898.499,441.445 1036.45,441.445 "/>
<path clip-path="url(#clip510)" d="M1095.48 409.7 Q1084.02 409.7 1077.25 418.242 Q1070.53 426.783 1070.53 441.523 Q1070.53 456.21 1077.25 464.752 Q1084.02 473.293 1095.48 473.293 Q1106.94 473.293 1113.61 464.752 Q1120.33 456.21 1120.33 441.523 Q1120.33 426.783 1113.61 418.242 Q1106.94 409.7 1095.48 409.7 M1095.48 401.158 Q1111.84 401.158 1121.63 412.148 Q1131.42 423.085 1131.42 441.523 Q1131.42 459.908 1121.63 470.898 Q1111.84 481.835 1095.48 481.835 Q1079.08 481.835 1069.23 470.898 Q1059.44 459.96 1059.44 441.523 Q1059.44 423.085 1069.23 412.148 Q1079.08 401.158 1095.48 401.158 Z" fill="#000000" fill-rule="nonzero" fill-opacity="1" /><path clip-path="url(#clip510)" d="M1200.9 469.231 L1200.9 448.346 L1183.71 448.346 L1183.71 439.7 L1211.32 439.7 L1211.32 473.085 Q1205.22 477.408 1197.88 479.648 Q1190.53 481.835 1182.2 481.835 Q1163.97 481.835 1153.66 471.21 Q1143.4 460.533 1143.4 441.523 Q1143.4 422.46 1153.66 411.835 Q1163.97 401.158 1182.2 401.158 Q1189.81 401.158 1196.63 403.033 Q1203.5 404.908 1209.28 408.554 L1209.28 419.752 Q1203.45 414.804 1196.89 412.304 Q1190.33 409.804 1183.09 409.804 Q1168.82 409.804 1161.63 417.773 Q1154.49 425.742 1154.49 441.523 Q1154.49 457.252 1161.63 465.221 Q1168.82 473.189 1183.09 473.189 Q1188.66 473.189 1193.03 472.252 Q1197.41 471.262 1200.9 469.231 Z" fill="#000000" fill-rule="nonzero" fill-opacity="1" /><path clip-path="url(#clip510)" d="M1230.53 402.565 L1246.21 402.565 L1266.05 455.481 L1286 402.565 L1301.68 402.565 L1301.68 480.325 L1291.42 480.325 L1291.42 412.044 L1271.37 465.377 L1260.79 465.377 L1240.74 412.044 L1240.74 480.325 L1230.53 480.325 L1230.53 402.565 Z" fill="#000000" fill-rule="nonzero" fill-opacity="1" /><path clip-path="url(#clip510)" d="M1325.33 471.471 L1342.51 471.471 L1342.51 412.148 L1323.81 415.898 L1323.81 406.315 L1342.41 402.565 L1352.93 402.565 L1352.93 471.471 L1370.12 471.471 L1370.12 480.325 L1325.33 480.325 L1325.33 471.471 Z" fill="#000000" fill-rule="nonzero" fill-opacity="1" /><path clip-path="url(#clip510)" d="M1446.94 399.388 Q1439.96 411.367 1436.57 423.085 Q1433.19 434.804 1433.19 446.835 Q1433.19 458.866 1436.57 470.689 Q1440.01 482.46 1446.94 494.387 L1438.61 494.387 Q1430.79 482.148 1426.89 470.325 Q1423.03 458.502 1423.03 446.835 Q1423.03 435.221 1426.89 423.45 Q1430.74 411.679 1438.61 399.388 L1446.94 399.388 Z" fill="#000000" fill-rule="nonzero" fill-opacity="1" /><path clip-path="url(#clip510)" d="M1499.33 430.95 Q1497.72 430.012 1495.79 429.596 Q1493.92 429.127 1491.63 429.127 Q1483.5 429.127 1479.13 434.439 Q1474.8 439.7 1474.8 449.596 L1474.8 480.325 L1465.17 480.325 L1465.17 421.992 L1474.8 421.992 L1474.8 431.054 Q1477.82 425.742 1482.67 423.19 Q1487.51 420.585 1494.44 420.585 Q1495.43 420.585 1496.63 420.742 Q1497.82 420.846 1499.28 421.106 L1499.33 430.95 Z" fill="#000000" fill-rule="nonzero" fill-opacity="1" /><path clip-path="url(#clip510)" d="M1556.94 448.762 L1556.94 453.45 L1512.88 453.45 Q1513.5 463.346 1518.81 468.554 Q1524.18 473.71 1533.71 473.71 Q1539.23 473.71 1544.39 472.356 Q1549.59 471.002 1554.7 468.293 L1554.7 477.356 Q1549.54 479.543 1544.13 480.689 Q1538.71 481.835 1533.14 481.835 Q1519.18 481.835 1511 473.71 Q1502.88 465.585 1502.88 451.731 Q1502.88 437.408 1510.58 429.023 Q1518.34 420.585 1531.47 420.585 Q1543.24 420.585 1550.06 428.189 Q1556.94 435.742 1556.94 448.762 M1547.36 445.95 Q1547.25 438.085 1542.93 433.398 Q1538.66 428.71 1531.57 428.71 Q1523.55 428.71 1518.71 433.242 Q1513.92 437.773 1513.19 446.002 L1547.36 445.95 Z" fill="#000000" fill-rule="nonzero" fill-opacity="1" /><path clip-path="url(#clip510)" d="M1609.85 423.71 L1609.85 432.773 Q1605.79 430.689 1601.42 429.648 Q1597.04 428.606 1592.35 428.606 Q1585.22 428.606 1581.63 430.794 Q1578.08 432.981 1578.08 437.356 Q1578.08 440.689 1580.64 442.616 Q1583.19 444.491 1590.9 446.21 L1594.18 446.939 Q1604.39 449.127 1608.66 453.137 Q1612.98 457.096 1612.98 464.231 Q1612.98 472.356 1606.52 477.095 Q1600.12 481.835 1588.87 481.835 Q1584.18 481.835 1579.07 480.898 Q1574.02 480.012 1568.4 478.189 L1568.4 468.293 Q1573.71 471.054 1578.87 472.46 Q1584.02 473.814 1589.07 473.814 Q1595.84 473.814 1599.49 471.523 Q1603.14 469.179 1603.14 464.96 Q1603.14 461.054 1600.48 458.971 Q1597.88 456.887 1588.97 454.96 L1585.64 454.179 Q1576.73 452.304 1572.77 448.45 Q1568.81 444.544 1568.81 437.773 Q1568.81 429.544 1574.65 425.064 Q1580.48 420.585 1591.21 420.585 Q1596.52 420.585 1601.21 421.367 Q1605.9 422.148 1609.85 423.71 Z" fill="#000000" fill-rule="nonzero" fill-opacity="1" /><path clip-path="url(#clip510)" d="M1637.72 405.429 L1637.72 421.992 L1657.46 421.992 L1657.46 429.439 L1637.72 429.439 L1637.72 461.106 Q1637.72 468.241 1639.65 470.273 Q1641.63 472.304 1647.62 472.304 L1657.46 472.304 L1657.46 480.325 L1647.62 480.325 Q1636.52 480.325 1632.3 476.21 Q1628.08 472.043 1628.08 461.106 L1628.08 429.439 L1621.05 429.439 L1621.05 421.992 L1628.08 421.992 L1628.08 405.429 L1637.72 405.429 Z" fill="#000000" fill-rule="nonzero" fill-opacity="1" /><path clip-path="url(#clip510)" d="M1696.57 451.002 Q1684.96 451.002 1680.48 453.658 Q1676 456.314 1676 462.721 Q1676 467.825 1679.33 470.846 Q1682.72 473.814 1688.5 473.814 Q1696.47 473.814 1701.26 468.189 Q1706.1 462.512 1706.1 453.137 L1706.1 451.002 L1696.57 451.002 M1715.69 447.044 L1715.69 480.325 L1706.1 480.325 L1706.1 471.471 Q1702.82 476.783 1697.93 479.335 Q1693.03 481.835 1685.95 481.835 Q1676.99 481.835 1671.68 476.835 Q1666.42 471.783 1666.42 463.346 Q1666.42 453.502 1672.98 448.502 Q1679.59 443.502 1692.67 443.502 L1706.1 443.502 L1706.1 442.564 Q1706.1 435.95 1701.73 432.356 Q1697.41 428.71 1689.54 428.71 Q1684.54 428.71 1679.8 429.908 Q1675.06 431.106 1670.69 433.502 L1670.69 424.648 Q1675.95 422.617 1680.9 421.627 Q1685.84 420.585 1690.53 420.585 Q1703.19 420.585 1709.44 427.148 Q1715.69 433.71 1715.69 447.044 Z" fill="#000000" fill-rule="nonzero" fill-opacity="1" /><path clip-path="url(#clip510)" d="M1769.23 430.95 Q1767.61 430.012 1765.69 429.596 Q1763.81 429.127 1761.52 429.127 Q1753.4 429.127 1749.02 434.439 Q1744.7 439.7 1744.7 449.596 L1744.7 480.325 L1735.06 480.325 L1735.06 421.992 L1744.7 421.992 L1744.7 431.054 Q1747.72 425.742 1752.56 423.19 Q1757.41 420.585 1764.33 420.585 Q1765.32 420.585 1766.52 420.742 Q1767.72 420.846 1769.18 421.106 L1769.23 430.95 Z" fill="#000000" fill-rule="nonzero" fill-opacity="1" /><path clip-path="url(#clip510)" d="M1788.76 405.429 L1788.76 421.992 L1808.5 421.992 L1808.5 429.439 L1788.76 429.439 L1788.76 461.106 Q1788.76 468.241 1790.69 470.273 Q1792.67 472.304 1798.66 472.304 L1808.5 472.304 L1808.5 480.325 L1798.66 480.325 Q1787.56 480.325 1783.34 476.21 Q1779.12 472.043 1779.12 461.106 L1779.12 429.439 L1772.09 429.439 L1772.09 421.992 L1779.12 421.992 L1779.12 405.429 L1788.76 405.429 Z" fill="#000000" fill-rule="nonzero" fill-opacity="1" /><path clip-path="url(#clip510)" d="M1819.59 399.388 L1827.93 399.388 Q1835.74 411.679 1839.59 423.45 Q1843.5 435.221 1843.5 446.835 Q1843.5 458.502 1839.59 470.325 Q1835.74 482.148 1827.93 494.387 L1819.59 494.387 Q1826.52 482.46 1829.91 470.689 Q1833.34 458.866 1833.34 446.835 Q1833.34 434.804 1829.91 423.085 Q1826.52 411.367 1819.59 399.388 Z" fill="#000000" fill-rule="nonzero" fill-opacity="1" /></svg>
