<?xml version="1.0" encoding="utf-8"?>
<svg xmlns="http://www.w3.org/2000/svg" xmlns:xlink="http://www.w3.org/1999/xlink" width="600" height="400" viewBox="0 0 2400 1600">
<defs>
  <clipPath id="clip390">
    <rect x="0" y="0" width="2400" height="1600"/>
  </clipPath>
</defs>
<path clip-path="url(#clip390)" d="M0 1600 L2400 1600 L2400 0 L0 0  Z" fill="#ffffff" fill-rule="evenodd" fill-opacity="1"/>
<defs>
  <clipPath id="clip391">
    <rect x="177" y="140" width="2177" height="1236"/>
  </clipPath>
</defs>
<path clip-path="url(#clip390)" d="M177.165 1375.66 L2352.76 1375.66 L2352.76 140.752 L177.165 140.752  Z" fill="#ffffff" fill-rule="evenodd" fill-opacity="1"/>
<polyline clip-path="url(#clip391)" style="stroke:#000000; stroke-linecap:round; stroke-linejoin:round; stroke-width:2; stroke-opacity:0.1; fill:none" points="234.634,1375.66 234.634,140.752 "/>
<polyline clip-path="url(#clip391)" style="stroke:#000000; stroke-linecap:round; stroke-linejoin:round; stroke-width:2; stroke-opacity:0.1; fill:none" points="645.122,1375.66 645.122,140.752 "/>
<polyline clip-path="url(#clip391)" style="stroke:#000000; stroke-linecap:round; stroke-linejoin:round; stroke-width:2; stroke-opacity:0.1; fill:none" points="1055.61,1375.66 1055.61,140.752 "/>
<polyline clip-path="url(#clip391)" style="stroke:#000000; stroke-linecap:round; stroke-linejoin:round; stroke-width:2; stroke-opacity:0.1; fill:none" points="1466.1,1375.66 1466.1,140.752 "/>
<polyline clip-path="url(#clip391)" style="stroke:#000000; stroke-linecap:round; stroke-linejoin:round; stroke-width:2; stroke-opacity:0.1; fill:none" points="1876.59,1375.66 1876.59,140.752 "/>
<polyline clip-path="url(#clip391)" style="stroke:#000000; stroke-linecap:round; stroke-linejoin:round; stroke-width:2; stroke-opacity:0.1; fill:none" points="2287.08,1375.66 2287.08,140.752 "/>
<polyline clip-path="url(#clip391)" style="stroke:#000000; stroke-linecap:round; stroke-linejoin:round; stroke-width:2; stroke-opacity:0.1; fill:none" points="177.165,1313.29 2352.76,1313.29 "/>
<polyline clip-path="url(#clip391)" style="stroke:#000000; stroke-linecap:round; stroke-linejoin:round; stroke-width:2; stroke-opacity:0.1; fill:none" points="177.165,988.266 2352.76,988.266 "/>
<polyline clip-path="url(#clip391)" style="stroke:#000000; stroke-linecap:round; stroke-linejoin:round; stroke-width:2; stroke-opacity:0.1; fill:none" points="177.165,663.24 2352.76,663.24 "/>
<polyline clip-path="url(#clip391)" style="stroke:#000000; stroke-linecap:round; stroke-linejoin:round; stroke-width:2; stroke-opacity:0.1; fill:none" points="177.165,338.215 2352.76,338.215 "/>
<polyline clip-path="url(#clip390)" style="stroke:#000000; stroke-linecap:round; stroke-linejoin:round; stroke-width:4; stroke-opacity:1; fill:none" points="177.165,1375.66 2352.76,1375.66 "/>
<polyline clip-path="url(#clip390)" style="stroke:#000000; stroke-linecap:round; stroke-linejoin:round; stroke-width:4; stroke-opacity:1; fill:none" points="234.634,1375.66 234.634,1356.76 "/>
<polyline clip-path="url(#clip390)" style="stroke:#000000; stroke-linecap:round; stroke-linejoin:round; stroke-width:4; stroke-opacity:1; fill:none" points="645.122,1375.66 645.122,1356.76 "/>
<polyline clip-path="url(#clip390)" style="stroke:#000000; stroke-linecap:round; stroke-linejoin:round; stroke-width:4; stroke-opacity:1; fill:none" points="1055.61,1375.66 1055.61,1356.76 "/>
<polyline clip-path="url(#clip390)" style="stroke:#000000; stroke-linecap:round; stroke-linejoin:round; stroke-width:4; stroke-opacity:1; fill:none" points="1466.1,1375.66 1466.1,1356.76 "/>
<polyline clip-path="url(#clip390)" style="stroke:#000000; stroke-linecap:round; stroke-linejoin:round; stroke-width:4; stroke-opacity:1; fill:none" points="1876.59,1375.66 1876.59,1356.76 "/>
<polyline clip-path="url(#clip390)" style="stroke:#000000; stroke-linecap:round; stroke-linejoin:round; stroke-width:4; stroke-opacity:1; fill:none" points="2287.08,1375.66 2287.08,1356.76 "/>
<path clip-path="url(#clip390)" d="M234.634 1412.44 Q229.217 1412.44 226.474 1417.79 Q223.766 1423.1 223.766 1433.79 Q223.766 1444.45 226.474 1449.8 Q229.217 1455.11 234.634 1455.11 Q240.085 1455.11 242.793 1449.8 Q245.536 1444.45 245.536 1433.79 Q245.536 1423.1 242.793 1417.79 Q240.085 1412.44 234.634 1412.44 M234.634 1406.88 Q243.349 1406.88 247.932 1413.79 Q252.55 1420.67 252.55 1433.79 Q252.55 1446.88 247.932 1453.79 Q243.349 1460.67 234.634 1460.67 Q225.918 1460.67 221.3 1453.79 Q216.717 1446.88 216.717 1433.79 Q216.717 1420.67 221.3 1413.79 Q225.918 1406.88 234.634 1406.88 Z" fill="#000000" fill-rule="nonzero" fill-opacity="1" /><path clip-path="url(#clip390)" d="M584.533 1453.76 L595.991 1453.76 L595.991 1414.21 L583.526 1416.71 L583.526 1410.32 L595.921 1407.82 L602.935 1407.82 L602.935 1453.76 L614.393 1453.76 L614.393 1459.66 L584.533 1459.66 L584.533 1453.76 Z" fill="#000000" fill-rule="nonzero" fill-opacity="1" /><path clip-path="url(#clip390)" d="M643.56 1412.44 Q638.143 1412.44 635.4 1417.79 Q632.692 1423.1 632.692 1433.79 Q632.692 1444.45 635.4 1449.8 Q638.143 1455.11 643.56 1455.11 Q649.011 1455.11 651.72 1449.8 Q654.463 1444.45 654.463 1433.79 Q654.463 1423.1 651.72 1417.79 Q649.011 1412.44 643.56 1412.44 M643.56 1406.88 Q652.275 1406.88 656.859 1413.79 Q661.477 1420.67 661.477 1433.79 Q661.477 1446.88 656.859 1453.79 Q652.275 1460.67 643.56 1460.67 Q634.845 1460.67 630.227 1453.79 Q625.643 1446.88 625.643 1433.79 Q625.643 1420.67 630.227 1413.79 Q634.845 1406.88 643.56 1406.88 Z" fill="#000000" fill-rule="nonzero" fill-opacity="1" /><path clip-path="url(#clip390)" d="M688.803 1412.44 Q683.386 1412.44 680.643 1417.79 Q677.935 1423.1 677.935 1433.79 Q677.935 1444.45 680.643 1449.8 Q683.386 1455.11 688.803 1455.11 Q694.254 1455.11 696.962 1449.8 Q699.706 1444.45 699.706 1433.79 Q699.706 1423.1 696.962 1417.79 Q694.254 1412.44 688.803 1412.44 M688.803 1406.88 Q697.518 1406.88 702.101 1413.79 Q706.719 1420.67 706.719 1433.79 Q706.719 1446.88 702.101 1453.79 Q697.518 1460.67 688.803 1460.67 Q680.088 1460.67 675.47 1453.79 Q670.886 1446.88 670.886 1433.79 Q670.886 1420.67 675.47 1413.79 Q680.088 1406.88 688.803 1406.88 Z" fill="#000000" fill-rule="nonzero" fill-opacity="1" /><path clip-path="url(#clip390)" d="M1001.15 1453.76 L1025.63 1453.76 L1025.63 1459.66 L992.712 1459.66 L992.712 1453.76 Q996.705 1449.63 1003.58 1442.68 Q1010.49 1435.7 1012.26 1433.69 Q1015.63 1429.9 1016.95 1427.3 Q1018.3 1424.66 1018.3 1422.13 Q1018.3 1417.99 1015.39 1415.39 Q1012.5 1412.79 1007.85 1412.79 Q1004.55 1412.79 1000.87 1413.93 Q997.226 1415.08 993.06 1417.4 L993.06 1410.32 Q997.296 1408.62 1000.98 1407.75 Q1004.66 1406.88 1007.71 1406.88 Q1015.77 1406.88 1020.56 1410.91 Q1025.35 1414.94 1025.35 1421.67 Q1025.35 1424.87 1024.14 1427.75 Q1022.96 1430.6 1019.8 1434.49 Q1018.93 1435.49 1014.27 1440.32 Q1009.62 1445.11 1001.15 1453.76 Z" fill="#000000" fill-rule="nonzero" fill-opacity="1" /><path clip-path="url(#clip390)" d="M1055.35 1412.44 Q1049.93 1412.44 1047.19 1417.79 Q1044.48 1423.1 1044.48 1433.79 Q1044.48 1444.45 1047.19 1449.8 Q1049.93 1455.11 1055.35 1455.11 Q1060.8 1455.11 1063.51 1449.8 Q1066.25 1444.45 1066.25 1433.79 Q1066.25 1423.1 1063.51 1417.79 Q1060.8 1412.44 1055.35 1412.44 M1055.35 1406.88 Q1064.07 1406.88 1068.65 1413.79 Q1073.27 1420.67 1073.27 1433.79 Q1073.27 1446.88 1068.65 1453.79 Q1064.07 1460.67 1055.35 1460.67 Q1046.64 1460.67 1042.02 1453.79 Q1037.43 1446.88 1037.43 1433.79 Q1037.43 1420.67 1042.02 1413.79 Q1046.64 1406.88 1055.35 1406.88 Z" fill="#000000" fill-rule="nonzero" fill-opacity="1" /><path clip-path="url(#clip390)" d="M1100.59 1412.44 Q1095.18 1412.44 1092.43 1417.79 Q1089.73 1423.1 1089.73 1433.79 Q1089.73 1444.45 1092.43 1449.8 Q1095.18 1455.11 1100.59 1455.11 Q1106.05 1455.11 1108.75 1449.8 Q1111.5 1444.45 1111.5 1433.79 Q1111.5 1423.1 1108.75 1417.79 Q1106.05 1412.44 1100.59 1412.44 M1100.59 1406.88 Q1109.31 1406.88 1113.89 1413.79 Q1118.51 1420.67 1118.51 1433.79 Q1118.51 1446.88 1113.89 1453.79 Q1109.31 1460.67 1100.59 1460.67 Q1091.88 1460.67 1087.26 1453.79 Q1082.68 1446.88 1082.68 1433.79 Q1082.68 1420.67 1087.26 1413.79 Q1091.88 1406.88 1100.59 1406.88 Z" fill="#000000" fill-rule="nonzero" fill-opacity="1" /><path clip-path="url(#clip390)" d="M1426.74 1431.71 Q1431.78 1432.78 1434.59 1436.19 Q1437.44 1439.59 1437.44 1444.59 Q1437.44 1452.26 1432.16 1456.47 Q1426.88 1460.67 1417.16 1460.67 Q1413.9 1460.67 1410.42 1460.01 Q1406.99 1459.38 1403.31 1458.1 L1403.31 1451.33 Q1406.22 1453.03 1409.69 1453.9 Q1413.17 1454.76 1416.95 1454.76 Q1423.55 1454.76 1426.99 1452.16 Q1430.46 1449.56 1430.46 1444.59 Q1430.46 1440.01 1427.23 1437.44 Q1424.03 1434.83 1418.31 1434.83 L1412.26 1434.83 L1412.26 1429.07 L1418.58 1429.07 Q1423.76 1429.07 1426.5 1427.02 Q1429.24 1424.94 1429.24 1421.05 Q1429.24 1417.06 1426.4 1414.94 Q1423.58 1412.79 1418.31 1412.79 Q1415.42 1412.79 1412.12 1413.41 Q1408.83 1414.04 1404.87 1415.35 L1404.87 1409.1 Q1408.86 1407.99 1412.33 1407.44 Q1415.84 1406.88 1418.93 1406.88 Q1426.92 1406.88 1431.57 1410.53 Q1436.22 1414.14 1436.22 1420.32 Q1436.22 1424.63 1433.76 1427.61 Q1431.29 1430.56 1426.74 1431.71 Z" fill="#000000" fill-rule="nonzero" fill-opacity="1" /><path clip-path="url(#clip390)" d="M1465.74 1412.44 Q1460.32 1412.44 1457.58 1417.79 Q1454.87 1423.1 1454.87 1433.79 Q1454.87 1444.45 1457.58 1449.8 Q1460.32 1455.11 1465.74 1455.11 Q1471.19 1455.11 1473.9 1449.8 Q1476.64 1444.45 1476.64 1433.79 Q1476.64 1423.1 1473.9 1417.79 Q1471.19 1412.44 1465.74 1412.44 M1465.74 1406.88 Q1474.45 1406.88 1479.03 1413.79 Q1483.65 1420.67 1483.65 1433.79 Q1483.65 1446.88 1479.03 1453.79 Q1474.45 1460.67 1465.74 1460.67 Q1457.02 1460.67 1452.4 1453.79 Q1447.82 1446.88 1447.82 1433.79 Q1447.82 1420.67 1452.4 1413.79 Q1457.02 1406.88 1465.74 1406.88 Z" fill="#000000" fill-rule="nonzero" fill-opacity="1" /><path clip-path="url(#clip390)" d="M1510.98 1412.44 Q1505.56 1412.44 1502.82 1417.79 Q1500.11 1423.1 1500.11 1433.79 Q1500.11 1444.45 1502.82 1449.8 Q1505.56 1455.11 1510.98 1455.11 Q1516.43 1455.11 1519.14 1449.8 Q1521.88 1444.45 1521.88 1433.79 Q1521.88 1423.1 1519.14 1417.79 Q1516.43 1412.44 1510.98 1412.44 M1510.98 1406.88 Q1519.69 1406.88 1524.28 1413.79 Q1528.89 1420.67 1528.89 1433.79 Q1528.89 1446.88 1524.28 1453.79 Q1519.69 1460.67 1510.98 1460.67 Q1502.26 1460.67 1497.65 1453.79 Q1493.06 1446.88 1493.06 1433.79 Q1493.06 1420.67 1497.65 1413.79 Q1502.26 1406.88 1510.98 1406.88 Z" fill="#000000" fill-rule="nonzero" fill-opacity="1" /><path clip-path="url(#clip390)" d="M1836.22 1413.93 L1818.52 1441.6 L1836.22 1441.6 L1836.22 1413.93 M1834.38 1407.82 L1843.2 1407.82 L1843.2 1441.6 L1850.6 1441.6 L1850.6 1447.44 L1843.2 1447.44 L1843.2 1459.66 L1836.22 1459.66 L1836.22 1447.44 L1812.82 1447.44 L1812.82 1440.67 L1834.38 1407.82 Z" fill="#000000" fill-rule="nonzero" fill-opacity="1" /><path clip-path="url(#clip390)" d="M1877.2 1412.44 Q1871.78 1412.44 1869.04 1417.79 Q1866.33 1423.1 1866.33 1433.79 Q1866.33 1444.45 1869.04 1449.8 Q1871.78 1455.11 1877.2 1455.11 Q1882.65 1455.11 1885.36 1449.8 Q1888.1 1444.45 1888.1 1433.79 Q1888.1 1423.1 1885.36 1417.79 Q1882.65 1412.44 1877.2 1412.44 M1877.2 1406.88 Q1885.91 1406.88 1890.5 1413.79 Q1895.11 1420.67 1895.11 1433.79 Q1895.11 1446.88 1890.5 1453.79 Q1885.91 1460.67 1877.2 1460.67 Q1868.48 1460.67 1863.86 1453.79 Q1859.28 1446.88 1859.28 1433.79 Q1859.28 1420.67 1863.86 1413.79 Q1868.48 1406.88 1877.2 1406.88 Z" fill="#000000" fill-rule="nonzero" fill-opacity="1" /><path clip-path="url(#clip390)" d="M1922.44 1412.44 Q1917.02 1412.44 1914.28 1417.79 Q1911.57 1423.1 1911.57 1433.79 Q1911.57 1444.45 1914.28 1449.8 Q1917.02 1455.11 1922.44 1455.11 Q1927.89 1455.11 1930.6 1449.8 Q1933.34 1444.45 1933.34 1433.79 Q1933.34 1423.1 1930.6 1417.79 Q1927.89 1412.44 1922.44 1412.44 M1922.44 1406.88 Q1931.15 1406.88 1935.74 1413.79 Q1940.36 1420.67 1940.36 1433.79 Q1940.36 1446.88 1935.74 1453.79 Q1931.15 1460.67 1922.44 1460.67 Q1913.72 1460.67 1909.11 1453.79 Q1904.52 1446.88 1904.52 1433.79 Q1904.52 1420.67 1909.11 1413.79 Q1913.72 1406.88 1922.44 1406.88 Z" fill="#000000" fill-rule="nonzero" fill-opacity="1" /><path clip-path="url(#clip390)" d="M2226.51 1407.82 L2254.04 1407.82 L2254.04 1413.72 L2232.93 1413.72 L2232.93 1426.43 Q2234.46 1425.91 2235.98 1425.67 Q2237.51 1425.39 2239.04 1425.39 Q2247.72 1425.39 2252.79 1430.15 Q2257.86 1434.9 2257.86 1443.03 Q2257.86 1451.4 2252.65 1456.05 Q2247.44 1460.67 2237.96 1460.67 Q2234.7 1460.67 2231.3 1460.11 Q2227.93 1459.56 2224.32 1458.44 L2224.32 1451.4 Q2227.44 1453.1 2230.78 1453.93 Q2234.11 1454.76 2237.82 1454.76 Q2243.83 1454.76 2247.34 1451.6 Q2250.85 1448.44 2250.85 1443.03 Q2250.85 1437.61 2247.34 1434.45 Q2243.83 1431.29 2237.82 1431.29 Q2235.01 1431.29 2232.2 1431.92 Q2229.42 1432.54 2226.51 1433.86 L2226.51 1407.82 Z" fill="#000000" fill-rule="nonzero" fill-opacity="1" /><path clip-path="url(#clip390)" d="M2286.68 1412.44 Q2281.26 1412.44 2278.52 1417.79 Q2275.81 1423.1 2275.81 1433.79 Q2275.81 1444.45 2278.52 1449.8 Q2281.26 1455.11 2286.68 1455.11 Q2292.13 1455.11 2294.84 1449.8 Q2297.58 1444.45 2297.58 1433.79 Q2297.58 1423.1 2294.84 1417.79 Q2292.13 1412.44 2286.68 1412.44 M2286.68 1406.88 Q2295.39 1406.88 2299.98 1413.79 Q2304.59 1420.67 2304.59 1433.79 Q2304.59 1446.88 2299.98 1453.79 Q2295.39 1460.67 2286.68 1460.67 Q2277.96 1460.67 2273.35 1453.79 Q2268.76 1446.88 2268.76 1433.79 Q2268.76 1420.67 2273.35 1413.79 Q2277.96 1406.88 2286.68 1406.88 Z" fill="#000000" fill-rule="nonzero" fill-opacity="1" /><path clip-path="url(#clip390)" d="M2331.92 1412.44 Q2326.5 1412.44 2323.76 1417.79 Q2321.05 1423.1 2321.05 1433.79 Q2321.05 1444.45 2323.76 1449.8 Q2326.5 1455.11 2331.92 1455.11 Q2337.37 1455.11 2340.08 1449.8 Q2342.82 1444.45 2342.82 1433.79 Q2342.82 1423.1 2340.08 1417.79 Q2337.37 1412.44 2331.92 1412.44 M2331.92 1406.88 Q2340.64 1406.88 2345.22 1413.79 Q2349.84 1420.67 2349.84 1433.79 Q2349.84 1446.88 2345.22 1453.79 Q2340.64 1460.67 2331.92 1460.67 Q2323.21 1460.67 2318.59 1453.79 Q2314 1446.88 2314 1433.79 Q2314 1420.67 2318.59 1413.79 Q2323.21 1406.88 2331.92 1406.88 Z" fill="#000000" fill-rule="nonzero" fill-opacity="1" /><path clip-path="url(#clip390)" d="M1048.5 1504.97 L1059.02 1504.97 L1059.02 1582.73 L1048.5 1582.73 L1048.5 1504.97 Z" fill="#000000" fill-rule="nonzero" fill-opacity="1" /><path clip-path="url(#clip390)" d="M1089.02 1507.84 L1089.02 1524.4 L1108.76 1524.4 L1108.76 1531.85 L1089.02 1531.85 L1089.02 1563.51 Q1089.02 1570.65 1090.95 1572.68 Q1092.93 1574.71 1098.92 1574.71 L1108.76 1574.71 L1108.76 1582.73 L1098.92 1582.73 Q1087.83 1582.73 1083.61 1578.62 Q1079.39 1574.45 1079.39 1563.51 L1079.39 1531.85 L1072.36 1531.85 L1072.36 1524.4 L1079.39 1524.4 L1079.39 1507.84 L1089.02 1507.84 Z" fill="#000000" fill-rule="nonzero" fill-opacity="1" /><path clip-path="url(#clip390)" d="M1171.26 1551.17 L1171.26 1555.86 L1127.2 1555.86 Q1127.83 1565.75 1133.14 1570.96 Q1138.5 1576.12 1148.03 1576.12 Q1153.55 1576.12 1158.71 1574.76 Q1163.92 1573.41 1169.02 1570.7 L1169.02 1579.76 Q1163.87 1581.95 1158.45 1583.1 Q1153.03 1584.24 1147.46 1584.24 Q1133.5 1584.24 1125.33 1576.12 Q1117.2 1567.99 1117.2 1554.14 Q1117.2 1539.82 1124.91 1531.43 Q1132.67 1522.99 1145.79 1522.99 Q1157.57 1522.99 1164.39 1530.6 Q1171.26 1538.15 1171.26 1551.17 M1161.68 1548.36 Q1161.58 1540.49 1157.25 1535.81 Q1152.98 1531.12 1145.9 1531.12 Q1137.88 1531.12 1133.03 1535.65 Q1128.24 1540.18 1127.51 1548.41 L1161.68 1548.36 Z" fill="#000000" fill-rule="nonzero" fill-opacity="1" /><path clip-path="url(#clip390)" d="M1220.79 1533.36 Q1219.18 1532.42 1217.25 1532 Q1215.38 1531.53 1213.09 1531.53 Q1204.96 1531.53 1200.59 1536.85 Q1196.26 1542.11 1196.26 1552 L1196.26 1582.73 L1186.63 1582.73 L1186.63 1524.4 L1196.26 1524.4 L1196.26 1533.46 Q1199.28 1528.15 1204.13 1525.6 Q1208.97 1522.99 1215.9 1522.99 Q1216.89 1522.99 1218.09 1523.15 Q1219.28 1523.25 1220.74 1523.51 L1220.79 1533.36 Z" fill="#000000" fill-rule="nonzero" fill-opacity="1" /><path clip-path="url(#clip390)" d="M1257.36 1553.41 Q1245.74 1553.41 1241.26 1556.07 Q1236.78 1558.72 1236.78 1565.13 Q1236.78 1570.23 1240.12 1573.25 Q1243.5 1576.22 1249.28 1576.22 Q1257.25 1576.22 1262.04 1570.6 Q1266.89 1564.92 1266.89 1555.54 L1266.89 1553.41 L1257.36 1553.41 M1276.47 1549.45 L1276.47 1582.73 L1266.89 1582.73 L1266.89 1573.88 Q1263.61 1579.19 1258.71 1581.74 Q1253.81 1584.24 1246.73 1584.24 Q1237.77 1584.24 1232.46 1579.24 Q1227.2 1574.19 1227.2 1565.75 Q1227.2 1555.91 1233.76 1550.91 Q1240.38 1545.91 1253.45 1545.91 L1266.89 1545.91 L1266.89 1544.97 Q1266.89 1538.36 1262.51 1534.76 Q1258.19 1531.12 1250.33 1531.12 Q1245.33 1531.12 1240.59 1532.32 Q1235.85 1533.51 1231.47 1535.91 L1231.47 1527.06 Q1236.73 1525.02 1241.68 1524.03 Q1246.63 1522.99 1251.31 1522.99 Q1263.97 1522.99 1270.22 1529.56 Q1276.47 1536.12 1276.47 1549.45 Z" fill="#000000" fill-rule="nonzero" fill-opacity="1" /><path clip-path="url(#clip390)" d="M1305.69 1507.84 L1305.69 1524.4 L1325.43 1524.4 L1325.43 1531.85 L1305.69 1531.85 L1305.69 1563.51 Q1305.69 1570.65 1307.62 1572.68 Q1309.6 1574.71 1315.59 1574.71 L1325.43 1574.71 L1325.43 1582.73 L1315.59 1582.73 Q1304.49 1582.73 1300.27 1578.62 Q1296.05 1574.45 1296.05 1563.51 L1296.05 1531.85 L1289.02 1531.85 L1289.02 1524.4 L1296.05 1524.4 L1296.05 1507.84 L1305.69 1507.84 Z" fill="#000000" fill-rule="nonzero" fill-opacity="1" /><path clip-path="url(#clip390)" d="M1338.03 1524.4 L1347.62 1524.4 L1347.62 1582.73 L1338.03 1582.73 L1338.03 1524.4 M1338.03 1501.69 L1347.62 1501.69 L1347.62 1513.83 L1338.03 1513.83 L1338.03 1501.69 Z" fill="#000000" fill-rule="nonzero" fill-opacity="1" /><path clip-path="url(#clip390)" d="M1390.27 1531.12 Q1382.56 1531.12 1378.08 1537.16 Q1373.61 1543.15 1373.61 1553.62 Q1373.61 1564.09 1378.03 1570.13 Q1382.51 1576.12 1390.27 1576.12 Q1397.93 1576.12 1402.41 1570.08 Q1406.89 1564.03 1406.89 1553.62 Q1406.89 1543.25 1402.41 1537.21 Q1397.93 1531.12 1390.27 1531.12 M1390.27 1522.99 Q1402.77 1522.99 1409.91 1531.12 Q1417.04 1539.24 1417.04 1553.62 Q1417.04 1567.94 1409.91 1576.12 Q1402.77 1584.24 1390.27 1584.24 Q1377.72 1584.24 1370.59 1576.12 Q1363.5 1567.94 1363.5 1553.62 Q1363.5 1539.24 1370.59 1531.12 Q1377.72 1522.99 1390.27 1522.99 Z" fill="#000000" fill-rule="nonzero" fill-opacity="1" /><path clip-path="url(#clip390)" d="M1481.42 1547.52 L1481.42 1582.73 L1471.83 1582.73 L1471.83 1547.84 Q1471.83 1539.55 1468.61 1535.44 Q1465.38 1531.33 1458.92 1531.33 Q1451.16 1531.33 1446.68 1536.27 Q1442.2 1541.22 1442.2 1549.76 L1442.2 1582.73 L1432.56 1582.73 L1432.56 1524.4 L1442.2 1524.4 L1442.2 1533.46 Q1445.64 1528.2 1450.27 1525.6 Q1454.96 1522.99 1461.05 1522.99 Q1471.11 1522.99 1476.26 1529.24 Q1481.42 1535.44 1481.42 1547.52 Z" fill="#000000" fill-rule="nonzero" fill-opacity="1" /><polyline clip-path="url(#clip390)" style="stroke:#000000; stroke-linecap:round; stroke-linejoin:round; stroke-width:4; stroke-opacity:1; fill:none" points="177.165,1375.66 177.165,140.752 "/>
<polyline clip-path="url(#clip390)" style="stroke:#000000; stroke-linecap:round; stroke-linejoin:round; stroke-width:4; stroke-opacity:1; fill:none" points="177.165,1313.29 196.063,1313.29 "/>
<polyline clip-path="url(#clip390)" style="stroke:#000000; stroke-linecap:round; stroke-linejoin:round; stroke-width:4; stroke-opacity:1; fill:none" points="177.165,988.266 196.063,988.266 "/>
<polyline clip-path="url(#clip390)" style="stroke:#000000; stroke-linecap:round; stroke-linejoin:round; stroke-width:4; stroke-opacity:1; fill:none" points="177.165,663.24 196.063,663.24 "/>
<polyline clip-path="url(#clip390)" style="stroke:#000000; stroke-linecap:round; stroke-linejoin:round; stroke-width:4; stroke-opacity:1; fill:none" points="177.165,338.215 196.063,338.215 "/>
<path clip-path="url(#clip390)" d="M50.9921 1313.97 L95.5058 1313.97 L95.5058 1319.87 L50.9921 1319.87 L50.9921 1313.97 Z" fill="#000000" fill-rule="nonzero" fill-opacity="1" /><path clip-path="url(#clip390)" d="M116.686 1333.31 L141.165 1333.31 L141.165 1339.21 L108.249 1339.21 L108.249 1333.31 Q112.242 1329.18 119.117 1322.23 Q126.026 1315.25 127.797 1313.24 Q131.165 1309.45 132.485 1306.85 Q133.839 1304.21 133.839 1301.68 Q133.839 1297.54 130.922 1294.94 Q128.04 1292.34 123.388 1292.34 Q120.089 1292.34 116.408 1293.48 Q112.763 1294.63 108.596 1296.95 L108.596 1289.87 Q112.832 1288.17 116.513 1287.3 Q120.193 1286.43 123.249 1286.43 Q131.304 1286.43 136.096 1290.46 Q140.887 1294.49 140.887 1301.23 Q140.887 1304.42 139.672 1307.3 Q138.492 1310.15 135.332 1314.04 Q134.464 1315.04 129.811 1319.87 Q125.158 1324.66 116.686 1333.31 Z" fill="#000000" fill-rule="nonzero" fill-opacity="1" /><path clip-path="url(#clip390)" d="M123.249 966.964 Q117.832 966.964 115.089 972.311 Q112.381 977.624 112.381 988.318 Q112.381 998.978 115.089 1004.32 Q117.832 1009.64 123.249 1009.64 Q128.7 1009.64 131.408 1004.32 Q134.151 998.978 134.151 988.318 Q134.151 977.624 131.408 972.311 Q128.7 966.964 123.249 966.964 M123.249 961.408 Q131.964 961.408 136.547 968.318 Q141.165 975.193 141.165 988.318 Q141.165 1001.41 136.547 1008.32 Q131.964 1015.19 123.249 1015.19 Q114.533 1015.19 109.915 1008.32 Q105.332 1001.41 105.332 988.318 Q105.332 975.193 109.915 968.318 Q114.533 961.408 123.249 961.408 Z" fill="#000000" fill-rule="nonzero" fill-opacity="1" /><path clip-path="url(#clip390)" d="M116.686 683.258 L141.165 683.258 L141.165 689.16 L108.249 689.16 L108.249 683.258 Q112.242 679.126 119.117 672.181 Q126.026 665.202 127.797 663.188 Q131.165 659.404 132.485 656.8 Q133.839 654.161 133.839 651.626 Q133.839 647.494 130.922 644.89 Q128.04 642.286 123.388 642.286 Q120.089 642.286 116.408 643.432 Q112.763 644.577 108.596 646.904 L108.596 639.82 Q112.832 638.119 116.513 637.251 Q120.193 636.383 123.249 636.383 Q131.304 636.383 136.096 640.411 Q140.887 644.438 140.887 651.175 Q140.887 654.369 139.672 657.251 Q138.492 660.098 135.332 663.987 Q134.464 664.994 129.811 669.82 Q125.158 674.612 116.686 683.258 Z" fill="#000000" fill-rule="nonzero" fill-opacity="1" /><path clip-path="url(#clip390)" d="M126.79 318.406 L109.082 346.08 L126.79 346.08 L126.79 318.406 M124.95 312.295 L133.769 312.295 L133.769 346.08 L141.165 346.08 L141.165 351.913 L133.769 351.913 L133.769 364.135 L126.79 364.135 L126.79 351.913 L103.388 351.913 L103.388 345.142 L124.95 312.295 Z" fill="#000000" fill-rule="nonzero" fill-opacity="1" /><path clip-path="url(#clip390)" d="M1157.38 15.552 L1202.07 15.552 L1202.07 24.4061 L1167.9 24.4061 L1167.9 47.3227 L1198.74 47.3227 L1198.74 56.1768 L1167.9 56.1768 L1167.9 93.312 L1157.38 93.312 L1157.38 15.552 Z" fill="#000000" fill-rule="nonzero" fill-opacity="1" /><path clip-path="url(#clip390)" d="M1271.76 82.2183 L1271.76 61.333 L1254.57 61.333 L1254.57 52.6872 L1282.17 52.6872 L1282.17 86.0725 Q1276.08 90.3953 1268.74 92.6349 Q1261.39 94.8224 1253.06 94.8224 Q1234.83 94.8224 1224.52 84.1975 Q1214.26 73.5204 1214.26 54.5101 Q1214.26 35.4477 1224.52 24.8228 Q1234.83 14.1458 1253.06 14.1458 Q1260.66 14.1458 1267.49 16.0207 Q1274.36 17.8957 1280.14 21.5416 L1280.14 32.7394 Q1274.31 27.7915 1267.75 25.2915 Q1261.18 22.7915 1253.95 22.7915 Q1239.67 22.7915 1232.49 30.7603 Q1225.35 38.729 1225.35 54.5101 Q1225.35 70.2392 1232.49 78.2079 Q1239.67 86.1766 1253.95 86.1766 Q1259.52 86.1766 1263.89 85.2391 Q1268.27 84.2495 1271.76 82.2183 Z" fill="#000000" fill-rule="nonzero" fill-opacity="1" /><path clip-path="url(#clip390)" d="M1301.39 15.552 L1317.07 15.552 L1336.91 68.4684 L1356.86 15.552 L1372.54 15.552 L1372.54 93.312 L1362.28 93.312 L1362.28 25.0311 L1342.23 78.3642 L1331.65 78.3642 L1311.6 25.0311 L1311.6 93.312 L1301.39 93.312 L1301.39 15.552 Z" fill="#000000" fill-rule="nonzero" fill-opacity="1" /><polyline clip-path="url(#clip391)" style="stroke:#009af9; stroke-linecap:round; stroke-linejoin:round; stroke-width:8; stroke-opacity:1; fill:none" points="238.739,1150.78 242.843,1004.81 246.948,859.951 251.053,717.23 255.158,681.042 259.263,670.452 263.368,669.135 267.473,672.45 271.578,678.458 275.683,686.213 279.787,695.139 283.892,704.766 287.997,714.627 292.102,724.246 296.207,733.165 300.312,740.982 304.417,747.389 308.522,752.191 312.627,755.319 316.731,756.821 320.836,756.858 324.941,755.675 329.046,753.577 333.151,750.89 337.256,747.931 341.361,744.982 345.466,742.265 349.571,739.942 353.675,738.11 357.78,736.808 361.885,736.024 365.99,735.711 370.095,736.079 374.2,736.415 378.305,736.811 382.41,737.245 386.515,737.698 390.619,738.153 394.724,738.594 398.829,739.009 402.934,739.388 407.039,739.724 411.144,740.015 415.249,740.257 419.354,740.454 423.459,740.607 427.563,740.721 431.668,740.802 435.773,740.857 439.878,740.891 443.983,740.912 448.088,740.924 452.193,740.932 456.298,740.94 460.403,740.952 464.507,740.969 468.612,740.991 472.717,741.018 476.822,741.051 480.927,741.086 485.032,741.092 489.137,741.097 493.242,741.103 497.347,741.11 501.451,741.116 505.556,741.123 509.661,741.128 513.766,741.133 517.871,741.137 521.976,741.14 526.081,741.142 530.186,741.142 534.291,741.141 538.395,741.14 542.5,741.138 546.605,741.135 550.71,741.131 554.815,741.127 558.92,741.124 563.025,741.12 567.13,741.116 571.235,741.113 575.339,741.11 579.444,741.107 583.549,741.105 587.654,741.103 591.759,741.102 595.864,741.101 599.969,741.101 604.074,741.102 608.178,741.102 612.283,741.102 616.388,741.103 620.493,741.103 624.598,741.103 628.703,741.104 632.808,741.104 636.913,741.104 641.018,741.105 645.122,741.105 649.227,741.106 653.332,741.106 657.437,741.106 661.542,741.106 665.647,741.107 669.752,741.107 673.857,741.107 677.962,741.107 682.066,741.107 686.171,741.107 690.276,741.108 694.381,741.108 698.486,741.108 702.591,741.108 706.696,741.108 710.801,741.108 714.906,741.108 719.01,741.108 723.115,741.108 727.22,741.108 731.325,741.108 735.43,741.108 739.535,741.108 743.64,741.108 747.745,741.108 751.85,741.108 755.954,741.108 760.059,741.108 764.164,741.108 768.269,741.108 772.374,741.108 776.479,741.108 780.584,741.108 784.689,741.108 788.794,741.108 792.898,741.108 797.003,741.108 801.108,741.108 805.213,741.108 809.318,741.108 813.423,741.108 817.528,741.108 821.633,741.108 825.738,741.108 829.842,741.108 833.947,741.108 838.052,741.108 842.157,741.108 846.262,741.108 850.367,741.108 854.472,741.108 858.577,741.108 862.682,741.108 866.786,741.108 870.891,741.108 874.996,741.108 879.101,741.108 883.206,741.108 887.311,741.108 891.416,741.108 895.521,741.108 899.626,741.108 903.73,741.108 907.835,741.108 911.94,741.108 916.045,741.108 920.15,741.108 924.255,741.108 928.36,741.108 932.465,741.108 936.57,741.108 940.674,741.108 944.779,741.108 948.884,741.108 952.989,741.108 957.094,741.108 961.199,741.108 965.304,741.108 969.409,741.108 973.514,741.108 977.618,741.108 981.723,741.108 985.828,741.108 989.933,741.108 994.038,741.108 998.143,741.108 1002.25,741.108 1006.35,741.108 1010.46,741.108 1014.56,741.108 1018.67,741.108 1022.77,741.108 1026.88,741.108 1030.98,741.108 1035.09,741.108 1039.19,741.108 1043.3,741.108 1047.4,741.108 1051.51,741.108 1055.61,741.108 1059.72,741.108 1063.82,741.108 1067.93,741.108 1072.03,741.108 1076.14,741.108 1080.24,741.108 1084.35,741.108 1088.45,741.108 1092.56,741.108 1096.66,741.108 1100.77,741.108 1104.87,741.108 1108.97,741.108 1113.08,741.108 1117.18,741.108 1121.29,741.108 1125.39,741.108 1129.5,741.108 1133.6,741.108 1137.71,741.108 1141.81,741.108 1145.92,741.108 1150.02,741.108 1154.13,741.108 1158.23,741.108 1162.34,741.108 1166.44,741.108 1170.55,741.108 1174.65,741.108 1178.76,741.108 1182.86,741.108 1186.97,741.108 1191.07,741.108 1195.18,741.108 1199.28,741.108 1203.39,741.108 1207.49,741.108 1211.6,741.108 1215.7,741.108 1219.81,741.108 1223.91,741.108 1228.02,741.108 1232.12,741.108 1236.23,741.108 1240.33,741.108 1244.44,741.108 1248.54,741.108 1252.65,741.108 1256.75,741.108 1260.86,741.108 1264.96,741.108 1269.07,741.108 1273.17,741.108 1277.28,741.108 1281.38,741.108 1285.49,741.108 1289.59,741.108 1293.69,741.108 1297.8,741.108 1301.9,741.108 1306.01,741.108 1310.11,741.108 1314.22,741.108 1318.32,741.108 1322.43,741.108 1326.53,741.108 1330.64,741.108 1334.74,741.108 1338.85,741.108 1342.95,741.108 1347.06,741.108 1351.16,741.108 1355.27,741.108 1359.37,741.108 1363.48,741.108 1367.58,741.108 1371.69,741.108 1375.79,741.108 1379.9,741.108 1384,741.108 1388.11,741.108 1392.21,741.108 1396.32,741.108 1400.42,741.108 1404.53,741.108 1408.63,741.108 1412.74,741.108 1416.84,741.108 1420.95,741.108 1425.05,741.108 1429.16,741.108 1433.26,741.108 1437.37,741.108 1441.47,741.108 1445.58,741.108 1449.68,741.108 1453.79,741.108 1457.89,741.108 1462,741.108 1466.1,741.108 1470.2,741.108 1474.31,741.108 1478.41,741.108 1482.52,741.108 1486.62,741.108 1490.73,741.108 1494.83,741.108 1498.94,741.108 1503.04,741.108 1507.15,741.108 1511.25,741.108 1515.36,741.108 1519.46,741.108 1523.57,741.108 1527.67,741.108 1531.78,741.108 1535.88,741.108 1539.99,741.108 1544.09,741.108 1548.2,741.108 1552.3,741.108 1556.41,741.108 1560.51,741.108 1564.62,741.108 1568.72,741.108 1572.83,741.108 1576.93,741.108 1581.04,741.108 1585.14,741.108 1589.25,741.108 1593.35,741.108 1597.46,741.108 1601.56,741.108 1605.67,741.108 1609.77,741.108 1613.88,741.108 1617.98,741.108 1622.09,741.108 1626.19,741.108 1630.3,741.108 1634.4,741.108 1638.51,741.108 1642.61,741.108 1646.72,741.108 1650.82,741.108 1654.92,741.108 1659.03,741.108 1663.13,741.108 1667.24,741.108 1671.34,741.108 1675.45,741.108 1679.55,741.108 1683.66,741.108 1687.76,741.108 1691.87,741.108 1695.97,741.108 1700.08,741.108 1704.18,741.108 1708.29,741.108 1712.39,741.108 1716.5,741.108 1720.6,741.108 1724.71,741.108 1728.81,741.108 1732.92,741.108 1737.02,741.108 1741.13,741.108 1745.23,741.108 1749.34,741.108 1753.44,741.108 1757.55,741.108 1761.65,741.108 1765.76,741.108 1769.86,741.108 1773.97,741.108 1778.07,741.108 1782.18,741.108 1786.28,741.108 1790.39,741.108 1794.49,741.108 1798.6,741.108 1802.7,741.108 1806.81,741.108 1810.91,741.108 1815.02,741.108 1819.12,741.108 1823.23,741.108 1827.33,741.108 1831.44,741.108 1835.54,741.108 1839.64,741.108 1843.75,741.108 1847.85,741.108 1851.96,741.108 1856.06,741.108 1860.17,741.108 1864.27,741.108 1868.38,741.108 1872.48,741.108 1876.59,741.108 1880.69,741.108 1884.8,741.108 1888.9,741.108 1893.01,741.108 1897.11,741.108 1901.22,741.108 1905.32,741.108 1909.43,741.108 1913.53,741.108 1917.64,741.108 1921.74,741.108 1925.85,741.108 1929.95,741.108 1934.06,741.108 1938.16,741.108 1942.27,741.108 1946.37,741.108 1950.48,741.108 1954.58,741.108 1958.69,741.108 1962.79,741.108 1966.9,741.108 1971,741.108 1975.11,741.108 1979.21,741.108 1983.32,741.108 1987.42,741.108 1991.53,741.108 1995.63,741.108 1999.74,741.108 2003.84,741.108 2007.95,741.108 2012.05,741.108 2016.16,741.108 2020.26,741.108 2024.36,741.108 2028.47,741.108 2032.57,741.108 2036.68,741.108 2040.78,741.108 2044.89,741.108 2048.99,741.108 2053.1,741.108 2057.2,741.108 2061.31,741.108 2065.41,741.108 2069.52,741.108 2073.62,741.108 2077.73,741.108 2081.83,741.108 2085.94,741.108 2090.04,741.108 2094.15,741.108 2098.25,741.108 2102.36,741.108 2106.46,741.108 2110.57,741.108 2114.67,741.108 2118.78,741.108 2122.88,741.108 2126.99,741.108 2131.09,741.108 2135.2,741.108 2139.3,741.108 2143.41,741.108 2147.51,741.108 2151.62,741.108 2155.72,741.108 2159.83,741.108 2163.93,741.108 2168.04,741.108 2172.14,741.108 2176.25,741.108 2180.35,741.108 2184.46,741.108 2188.56,741.108 2192.67,741.108 2196.77,741.108 2200.88,741.108 2204.98,741.108 2209.08,741.108 2213.19,741.108 2217.29,741.108 2221.4,741.108 2225.5,741.108 2229.61,741.108 2233.71,741.108 2237.82,741.108 2241.92,741.108 2246.03,741.108 2250.13,741.108 2254.24,741.108 2258.34,741.108 2262.45,741.108 2266.55,741.108 2270.66,741.108 2274.76,741.108 2278.87,741.108 2282.97,741.108 2287.08,741.108 2291.18,741.108 "/>
<polyline clip-path="url(#clip391)" style="stroke:#e26f46; stroke-linecap:round; stroke-linejoin:round; stroke-width:8; stroke-opacity:1; fill:none" points="238.739,500.728 242.843,686.321 246.948,875.57 251.053,1071.26 255.158,1163.94 259.263,1218.22 263.368,1256.34 267.473,1284.53 271.578,1305.52 275.683,1320.81 279.787,1331.32 283.892,1337.76 287.997,1340.71 292.102,1340.69 296.207,1338.2 300.312,1333.73 304.417,1327.8 308.522,1320.89 312.627,1313.5 316.731,1306.06 320.836,1298.98 324.941,1292.57 329.046,1287.07 333.151,1282.62 337.256,1279.28 341.361,1277.04 345.466,1275.81 349.571,1275.49 353.675,1275.93 357.78,1276.97 361.885,1278.46 365.99,1280.22 370.095,1280.6 374.2,1280.96 378.305,1281.4 382.41,1281.89 386.515,1282.42 390.619,1282.97 394.724,1283.53 398.829,1284.07 402.934,1284.58 407.039,1285.05 411.144,1285.48 415.249,1285.86 419.354,1286.17 423.459,1286.43 427.563,1286.63 431.668,1286.78 435.773,1286.88 439.878,1286.93 443.983,1286.94 448.088,1286.92 452.193,1286.88 456.298,1286.82 460.403,1286.75 464.507,1286.68 468.612,1286.6 472.717,1286.54 476.822,1286.48 480.927,1286.43 485.032,1286.43 489.137,1286.43 493.242,1286.44 497.347,1286.44 501.451,1286.45 505.556,1286.46 509.661,1286.46 513.766,1286.47 517.871,1286.47 521.976,1286.48 526.081,1286.48 530.186,1286.49 534.291,1286.49 538.395,1286.5 542.5,1286.5 546.605,1286.5 550.71,1286.5 554.815,1286.5 558.92,1286.51 563.025,1286.51 567.13,1286.51 571.235,1286.51 575.339,1286.51 579.444,1286.51 583.549,1286.51 587.654,1286.51 591.759,1286.51 595.864,1286.51 599.969,1286.51 604.074,1286.51 608.178,1286.51 612.283,1286.51 616.388,1286.51 620.493,1286.51 624.598,1286.51 628.703,1286.51 632.808,1286.51 636.913,1286.51 641.018,1286.51 645.122,1286.51 649.227,1286.51 653.332,1286.51 657.437,1286.51 661.542,1286.51 665.647,1286.51 669.752,1286.51 673.857,1286.51 677.962,1286.51 682.066,1286.51 686.171,1286.51 690.276,1286.51 694.381,1286.51 698.486,1286.51 702.591,1286.51 706.696,1286.51 710.801,1286.51 714.906,1286.51 719.01,1286.51 723.115,1286.51 727.22,1286.51 731.325,1286.51 735.43,1286.51 739.535,1286.51 743.64,1286.51 747.745,1286.51 751.85,1286.51 755.954,1286.51 760.059,1286.51 764.164,1286.51 768.269,1286.51 772.374,1286.51 776.479,1286.51 780.584,1286.51 784.689,1286.51 788.794,1286.51 792.898,1286.51 797.003,1286.51 801.108,1286.51 805.213,1286.51 809.318,1286.51 813.423,1286.51 817.528,1286.51 821.633,1286.51 825.738,1286.51 829.842,1286.51 833.947,1286.51 838.052,1286.51 842.157,1286.51 846.262,1286.51 850.367,1286.51 854.472,1286.51 858.577,1286.51 862.682,1286.51 866.786,1286.51 870.891,1286.51 874.996,1286.51 879.101,1286.51 883.206,1286.51 887.311,1286.51 891.416,1286.51 895.521,1286.51 899.626,1286.51 903.73,1286.51 907.835,1286.51 911.94,1286.51 916.045,1286.51 920.15,1286.51 924.255,1286.51 928.36,1286.51 932.465,1286.51 936.57,1286.51 940.674,1286.51 944.779,1286.51 948.884,1286.51 952.989,1286.51 957.094,1286.51 961.199,1286.51 965.304,1286.51 969.409,1286.51 973.514,1286.51 977.618,1286.51 981.723,1286.51 985.828,1286.51 989.933,1286.51 994.038,1286.51 998.143,1286.51 1002.25,1286.51 1006.35,1286.51 1010.46,1286.51 1014.56,1286.51 1018.67,1286.51 1022.77,1286.51 1026.88,1286.51 1030.98,1286.51 1035.09,1286.51 1039.19,1286.51 1043.3,1286.51 1047.4,1286.51 1051.51,1286.51 1055.61,1286.51 1059.72,1286.51 1063.82,1286.51 1067.93,1286.51 1072.03,1286.51 1076.14,1286.51 1080.24,1286.51 1084.35,1286.51 1088.45,1286.51 1092.56,1286.51 1096.66,1286.51 1100.77,1286.51 1104.87,1286.51 1108.97,1286.51 1113.08,1286.51 1117.18,1286.51 1121.29,1286.51 1125.39,1286.51 1129.5,1286.51 1133.6,1286.51 1137.71,1286.51 1141.81,1286.51 1145.92,1286.51 1150.02,1286.51 1154.13,1286.51 1158.23,1286.51 1162.34,1286.51 1166.44,1286.51 1170.55,1286.51 1174.65,1286.51 1178.76,1286.51 1182.86,1286.51 1186.97,1286.51 1191.07,1286.51 1195.18,1286.51 1199.28,1286.51 1203.39,1286.51 1207.49,1286.51 1211.6,1286.51 1215.7,1286.51 1219.81,1286.51 1223.91,1286.51 1228.02,1286.51 1232.12,1286.51 1236.23,1286.51 1240.33,1286.51 1244.44,1286.51 1248.54,1286.51 1252.65,1286.51 1256.75,1286.51 1260.86,1286.51 1264.96,1286.51 1269.07,1286.51 1273.17,1286.51 1277.28,1286.51 1281.38,1286.51 1285.49,1286.51 1289.59,1286.51 1293.69,1286.51 1297.8,1286.51 1301.9,1286.51 1306.01,1286.51 1310.11,1286.51 1314.22,1286.51 1318.32,1286.51 1322.43,1286.51 1326.53,1286.51 1330.64,1286.51 1334.74,1286.51 1338.85,1286.51 1342.95,1286.51 1347.06,1286.51 1351.16,1286.51 1355.27,1286.51 1359.37,1286.51 1363.48,1286.51 1367.58,1286.51 1371.69,1286.51 1375.79,1286.51 1379.9,1286.51 1384,1286.51 1388.11,1286.51 1392.21,1286.51 1396.32,1286.51 1400.42,1286.51 1404.53,1286.51 1408.63,1286.51 1412.74,1286.51 1416.84,1286.51 1420.95,1286.51 1425.05,1286.51 1429.16,1286.51 1433.26,1286.51 1437.37,1286.51 1441.47,1286.51 1445.58,1286.51 1449.68,1286.51 1453.79,1286.51 1457.89,1286.51 1462,1286.51 1466.1,1286.51 1470.2,1286.51 1474.31,1286.51 1478.41,1286.51 1482.52,1286.51 1486.62,1286.51 1490.73,1286.51 1494.83,1286.51 1498.94,1286.51 1503.04,1286.51 1507.15,1286.51 1511.25,1286.51 1515.36,1286.51 1519.46,1286.51 1523.57,1286.51 1527.67,1286.51 1531.78,1286.51 1535.88,1286.51 1539.99,1286.51 1544.09,1286.51 1548.2,1286.51 1552.3,1286.51 1556.41,1286.51 1560.51,1286.51 1564.62,1286.51 1568.72,1286.51 1572.83,1286.51 1576.93,1286.51 1581.04,1286.51 1585.14,1286.51 1589.25,1286.51 1593.35,1286.51 1597.46,1286.51 1601.56,1286.51 1605.67,1286.51 1609.77,1286.51 1613.88,1286.51 1617.98,1286.51 1622.09,1286.51 1626.19,1286.51 1630.3,1286.51 1634.4,1286.51 1638.51,1286.51 1642.61,1286.51 1646.72,1286.51 1650.82,1286.51 1654.92,1286.51 1659.03,1286.51 1663.13,1286.51 1667.24,1286.51 1671.34,1286.51 1675.45,1286.51 1679.55,1286.51 1683.66,1286.51 1687.76,1286.51 1691.87,1286.51 1695.97,1286.51 1700.08,1286.51 1704.18,1286.51 1708.29,1286.51 1712.39,1286.51 1716.5,1286.51 1720.6,1286.51 1724.71,1286.51 1728.81,1286.51 1732.92,1286.51 1737.02,1286.51 1741.13,1286.51 1745.23,1286.51 1749.34,1286.51 1753.44,1286.51 1757.55,1286.51 1761.65,1286.51 1765.76,1286.51 1769.86,1286.51 1773.97,1286.51 1778.07,1286.51 1782.18,1286.51 1786.28,1286.51 1790.39,1286.51 1794.49,1286.51 1798.6,1286.51 1802.7,1286.51 1806.81,1286.51 1810.91,1286.51 1815.02,1286.51 1819.12,1286.51 1823.23,1286.51 1827.33,1286.51 1831.44,1286.51 1835.54,1286.51 1839.64,1286.51 1843.75,1286.51 1847.85,1286.51 1851.96,1286.51 1856.06,1286.51 1860.17,1286.51 1864.27,1286.51 1868.38,1286.51 1872.48,1286.51 1876.59,1286.51 1880.69,1286.51 1884.8,1286.51 1888.9,1286.51 1893.01,1286.51 1897.11,1286.51 1901.22,1286.51 1905.32,1286.51 1909.43,1286.51 1913.53,1286.51 1917.64,1286.51 1921.74,1286.51 1925.85,1286.51 1929.95,1286.51 1934.06,1286.51 1938.16,1286.51 1942.27,1286.51 1946.37,1286.51 1950.48,1286.51 1954.58,1286.51 1958.69,1286.51 1962.79,1286.51 1966.9,1286.51 1971,1286.51 1975.11,1286.51 1979.21,1286.51 1983.32,1286.51 1987.42,1286.51 1991.53,1286.51 1995.63,1286.51 1999.74,1286.51 2003.84,1286.51 2007.95,1286.51 2012.05,1286.51 2016.16,1286.51 2020.26,1286.51 2024.36,1286.51 2028.47,1286.51 2032.57,1286.51 2036.68,1286.51 2040.78,1286.51 2044.89,1286.51 2048.99,1286.51 2053.1,1286.51 2057.2,1286.51 2061.31,1286.51 2065.41,1286.51 2069.52,1286.51 2073.62,1286.51 2077.73,1286.51 2081.83,1286.51 2085.94,1286.51 2090.04,1286.51 2094.15,1286.51 2098.25,1286.51 2102.36,1286.51 2106.46,1286.51 2110.57,1286.51 2114.67,1286.51 2118.78,1286.51 2122.88,1286.51 2126.99,1286.51 2131.09,1286.51 2135.2,1286.51 2139.3,1286.51 2143.41,1286.51 2147.51,1286.51 2151.62,1286.51 2155.72,1286.51 2159.83,1286.51 2163.93,1286.51 2168.04,1286.51 2172.14,1286.51 2176.25,1286.51 2180.35,1286.51 2184.46,1286.51 2188.56,1286.51 2192.67,1286.51 2196.77,1286.51 2200.88,1286.51 2204.98,1286.51 2209.08,1286.51 2213.19,1286.51 2217.29,1286.51 2221.4,1286.51 2225.5,1286.51 2229.61,1286.51 2233.71,1286.51 2237.82,1286.51 2241.92,1286.51 2246.03,1286.51 2250.13,1286.51 2254.24,1286.51 2258.34,1286.51 2262.45,1286.51 2266.55,1286.51 2270.66,1286.51 2274.76,1286.51 2278.87,1286.51 2282.97,1286.51 2287.08,1286.51 2291.18,1286.51 "/>
<polyline clip-path="url(#clip391)" style="stroke:#3da44d; stroke-linecap:round; stroke-linejoin:round; stroke-width:8; stroke-opacity:1; fill:none" points="238.739,920.539 242.843,961.176 246.948,1026.53 251.053,1106.14 255.158,1142.65 259.263,1159.03 263.368,1164.73 267.473,1163.61 271.578,1158.01 275.683,1149.6 279.787,1139.65 283.892,1129.11 287.997,1118.69 292.102,1108.86 296.207,1099.91 300.312,1091.91 304.417,1084.82 308.522,1078.48 312.627,1072.7 316.731,1067.28 320.836,1062.08 324.941,1057.02 329.046,1052.07 333.151,1047.27 337.256,1042.66 341.361,1038.32 345.466,1034.3 349.571,1030.65 353.675,1027.37 357.78,1024.47 361.885,1021.92 365.99,1019.71 370.095,1019.81 374.2,1019.91 378.305,1020.02 382.41,1020.15 386.515,1020.29 390.619,1020.44 394.724,1020.61 398.829,1020.78 402.934,1020.95 407.039,1021.14 411.144,1021.33 415.249,1021.52 419.354,1021.72 423.459,1021.92 427.563,1022.12 431.668,1022.31 435.773,1022.5 439.878,1022.68 443.983,1022.85 448.088,1023.01 452.193,1023.16 456.298,1023.29 460.403,1023.41 464.507,1023.52 468.612,1023.61 472.717,1023.69 476.822,1023.75 480.927,1023.81 485.032,1023.8 489.137,1023.79 493.242,1023.79 497.347,1023.78 501.451,1023.77 505.556,1023.76 509.661,1023.75 513.766,1023.74 517.871,1023.73 521.976,1023.72 526.081,1023.7 530.186,1023.69 534.291,1023.68 538.395,1023.67 542.5,1023.66 546.605,1023.65 550.71,1023.65 554.815,1023.64 558.92,1023.63 563.025,1023.63 567.13,1023.62 571.235,1023.62 575.339,1023.62 579.444,1023.62 583.549,1023.62 587.654,1023.62 591.759,1023.62 595.864,1023.62 599.969,1023.62 604.074,1023.62 608.178,1023.62 612.283,1023.62 616.388,1023.63 620.493,1023.63 624.598,1023.63 628.703,1023.63 632.808,1023.63 636.913,1023.64 641.018,1023.64 645.122,1023.64 649.227,1023.64 653.332,1023.64 657.437,1023.65 661.542,1023.65 665.647,1023.65 669.752,1023.65 673.857,1023.65 677.962,1023.66 682.066,1023.66 686.171,1023.66 690.276,1023.66 694.381,1023.66 698.486,1023.66 702.591,1023.66 706.696,1023.66 710.801,1023.67 714.906,1023.67 719.01,1023.67 723.115,1023.67 727.22,1023.67 731.325,1023.67 735.43,1023.67 739.535,1023.67 743.64,1023.67 747.745,1023.66 751.85,1023.66 755.954,1023.66 760.059,1023.66 764.164,1023.66 768.269,1023.66 772.374,1023.66 776.479,1023.66 780.584,1023.66 784.689,1023.66 788.794,1023.66 792.898,1023.66 797.003,1023.66 801.108,1023.66 805.213,1023.66 809.318,1023.66 813.423,1023.66 817.528,1023.66 821.633,1023.66 825.738,1023.66 829.842,1023.66 833.947,1023.66 838.052,1023.66 842.157,1023.66 846.262,1023.66 850.367,1023.66 854.472,1023.66 858.577,1023.66 862.682,1023.66 866.786,1023.66 870.891,1023.66 874.996,1023.66 879.101,1023.66 883.206,1023.66 887.311,1023.66 891.416,1023.66 895.521,1023.66 899.626,1023.66 903.73,1023.66 907.835,1023.66 911.94,1023.66 916.045,1023.66 920.15,1023.66 924.255,1023.66 928.36,1023.66 932.465,1023.66 936.57,1023.66 940.674,1023.66 944.779,1023.66 948.884,1023.66 952.989,1023.66 957.094,1023.66 961.199,1023.66 965.304,1023.66 969.409,1023.66 973.514,1023.66 977.618,1023.66 981.723,1023.66 985.828,1023.66 989.933,1023.66 994.038,1023.66 998.143,1023.66 1002.25,1023.66 1006.35,1023.66 1010.46,1023.66 1014.56,1023.66 1018.67,1023.66 1022.77,1023.66 1026.88,1023.66 1030.98,1023.66 1035.09,1023.66 1039.19,1023.66 1043.3,1023.66 1047.4,1023.66 1051.51,1023.66 1055.61,1023.66 1059.72,1023.66 1063.82,1023.66 1067.93,1023.66 1072.03,1023.66 1076.14,1023.66 1080.24,1023.66 1084.35,1023.66 1088.45,1023.66 1092.56,1023.66 1096.66,1023.66 1100.77,1023.66 1104.87,1023.66 1108.97,1023.66 1113.08,1023.66 1117.18,1023.66 1121.29,1023.66 1125.39,1023.66 1129.5,1023.66 1133.6,1023.66 1137.71,1023.66 1141.81,1023.66 1145.92,1023.66 1150.02,1023.66 1154.13,1023.66 1158.23,1023.66 1162.34,1023.66 1166.44,1023.66 1170.55,1023.66 1174.65,1023.66 1178.76,1023.66 1182.86,1023.66 1186.97,1023.66 1191.07,1023.66 1195.18,1023.66 1199.28,1023.66 1203.39,1023.66 1207.49,1023.66 1211.6,1023.66 1215.7,1023.66 1219.81,1023.66 1223.91,1023.66 1228.02,1023.66 1232.12,1023.66 1236.23,1023.66 1240.33,1023.66 1244.44,1023.66 1248.54,1023.66 1252.65,1023.66 1256.75,1023.66 1260.86,1023.66 1264.96,1023.66 1269.07,1023.66 1273.17,1023.66 1277.28,1023.66 1281.38,1023.66 1285.49,1023.66 1289.59,1023.66 1293.69,1023.66 1297.8,1023.66 1301.9,1023.66 1306.01,1023.66 1310.11,1023.66 1314.22,1023.66 1318.32,1023.66 1322.43,1023.66 1326.53,1023.66 1330.64,1023.66 1334.74,1023.66 1338.85,1023.66 1342.95,1023.66 1347.06,1023.66 1351.16,1023.66 1355.27,1023.66 1359.37,1023.66 1363.48,1023.66 1367.58,1023.66 1371.69,1023.66 1375.79,1023.66 1379.9,1023.66 1384,1023.66 1388.11,1023.66 1392.21,1023.66 1396.32,1023.66 1400.42,1023.66 1404.53,1023.66 1408.63,1023.66 1412.74,1023.66 1416.84,1023.66 1420.95,1023.66 1425.05,1023.66 1429.16,1023.66 1433.26,1023.66 1437.37,1023.66 1441.47,1023.66 1445.58,1023.66 1449.68,1023.66 1453.79,1023.66 1457.89,1023.66 1462,1023.66 1466.1,1023.66 1470.2,1023.66 1474.31,1023.66 1478.41,1023.66 1482.52,1023.66 1486.62,1023.66 1490.73,1023.66 1494.83,1023.66 1498.94,1023.66 1503.04,1023.66 1507.15,1023.66 1511.25,1023.66 1515.36,1023.66 1519.46,1023.66 1523.57,1023.66 1527.67,1023.66 1531.78,1023.66 1535.88,1023.66 1539.99,1023.66 1544.09,1023.66 1548.2,1023.66 1552.3,1023.66 1556.41,1023.66 1560.51,1023.66 1564.62,1023.66 1568.72,1023.66 1572.83,1023.66 1576.93,1023.66 1581.04,1023.66 1585.14,1023.66 1589.25,1023.66 1593.35,1023.66 1597.46,1023.66 1601.56,1023.66 1605.67,1023.66 1609.77,1023.66 1613.88,1023.66 1617.98,1023.66 1622.09,1023.66 1626.19,1023.66 1630.3,1023.66 1634.4,1023.66 1638.51,1023.66 1642.61,1023.66 1646.72,1023.66 1650.82,1023.66 1654.92,1023.66 1659.03,1023.66 1663.13,1023.66 1667.24,1023.66 1671.34,1023.66 1675.45,1023.66 1679.55,1023.66 1683.66,1023.66 1687.76,1023.66 1691.87,1023.66 1695.97,1023.66 1700.08,1023.66 1704.18,1023.66 1708.29,1023.66 1712.39,1023.66 1716.5,1023.66 1720.6,1023.66 1724.71,1023.66 1728.81,1023.66 1732.92,1023.66 1737.02,1023.66 1741.13,1023.66 1745.23,1023.66 1749.34,1023.66 1753.44,1023.66 1757.55,1023.66 1761.65,1023.66 1765.76,1023.66 1769.86,1023.66 1773.97,1023.66 1778.07,1023.66 1782.18,1023.66 1786.28,1023.66 1790.39,1023.66 1794.49,1023.66 1798.6,1023.66 1802.7,1023.66 1806.81,1023.66 1810.91,1023.66 1815.02,1023.66 1819.12,1023.66 1823.23,1023.66 1827.33,1023.66 1831.44,1023.66 1835.54,1023.66 1839.64,1023.66 1843.75,1023.66 1847.85,1023.66 1851.96,1023.66 1856.06,1023.66 1860.17,1023.66 1864.27,1023.66 1868.38,1023.66 1872.48,1023.66 1876.59,1023.66 1880.69,1023.66 1884.8,1023.66 1888.9,1023.66 1893.01,1023.66 1897.11,1023.66 1901.22,1023.66 1905.32,1023.66 1909.43,1023.66 1913.53,1023.66 1917.64,1023.66 1921.74,1023.66 1925.85,1023.66 1929.95,1023.66 1934.06,1023.66 1938.16,1023.66 1942.27,1023.66 1946.37,1023.66 1950.48,1023.66 1954.58,1023.66 1958.69,1023.66 1962.79,1023.66 1966.9,1023.66 1971,1023.66 1975.11,1023.66 1979.21,1023.66 1983.32,1023.66 1987.42,1023.66 1991.53,1023.66 1995.63,1023.66 1999.74,1023.66 2003.84,1023.66 2007.95,1023.66 2012.05,1023.66 2016.16,1023.66 2020.26,1023.66 2024.36,1023.66 2028.47,1023.66 2032.57,1023.66 2036.68,1023.66 2040.78,1023.66 2044.89,1023.66 2048.99,1023.66 2053.1,1023.66 2057.2,1023.66 2061.31,1023.66 2065.41,1023.66 2069.52,1023.66 2073.62,1023.66 2077.73,1023.66 2081.83,1023.66 2085.94,1023.66 2090.04,1023.66 2094.15,1023.66 2098.25,1023.66 2102.36,1023.66 2106.46,1023.66 2110.57,1023.66 2114.67,1023.66 2118.78,1023.66 2122.88,1023.66 2126.99,1023.66 2131.09,1023.66 2135.2,1023.66 2139.3,1023.66 2143.41,1023.66 2147.51,1023.66 2151.62,1023.66 2155.72,1023.66 2159.83,1023.66 2163.93,1023.66 2168.04,1023.66 2172.14,1023.66 2176.25,1023.66 2180.35,1023.66 2184.46,1023.66 2188.56,1023.66 2192.67,1023.66 2196.77,1023.66 2200.88,1023.66 2204.98,1023.66 2209.08,1023.66 2213.19,1023.66 2217.29,1023.66 2221.4,1023.66 2225.5,1023.66 2229.61,1023.66 2233.71,1023.66 2237.82,1023.66 2241.92,1023.66 2246.03,1023.66 2250.13,1023.66 2254.24,1023.66 2258.34,1023.66 2262.45,1023.66 2266.55,1023.66 2270.66,1023.66 2274.76,1023.66 2278.87,1023.66 2282.97,1023.66 2287.08,1023.66 2291.18,1023.66 "/>
<polyline clip-path="url(#clip391)" style="stroke:#c271d2; stroke-linecap:round; stroke-linejoin:round; stroke-width:8; stroke-opacity:1; fill:none" points="238.739,936.972 242.843,977.342 246.948,1043.08 251.053,1123.43 255.158,1162.65 259.263,1182.26 263.368,1191.36 267.473,1193.63 271.578,1191.41 275.683,1186.39 279.787,1179.84 283.892,1172.7 287.997,1165.65 292.102,1159.11 296.207,1153.31 300.312,1148.26 304.417,1143.88 308.522,1139.97 312.627,1136.31 316.731,1132.68 320.836,1128.94 324.941,1125 329.046,1120.87 333.151,1116.58 337.256,1112.22 341.361,1107.91 345.466,1103.71 349.571,1099.71 353.675,1095.95 357.78,1092.46 361.885,1089.24 365.99,1086.28 370.095,1086.26 374.2,1086.23 378.305,1086.19 382.41,1086.13 386.515,1086.06 390.619,1085.98 394.724,1085.88 398.829,1085.78 402.934,1085.67 407.039,1085.56 411.144,1085.45 415.249,1085.34 419.354,1085.24 423.459,1085.15 427.563,1085.06 431.668,1084.98 435.773,1084.92 439.878,1084.86 443.983,1084.81 448.088,1084.78 452.193,1084.76 456.298,1084.74 460.403,1084.74 464.507,1084.75 468.612,1084.76 472.717,1084.79 476.822,1084.82 480.927,1084.86 485.032,1084.87 489.137,1084.88 493.242,1084.9 497.347,1084.91 501.451,1084.93 505.556,1084.95 509.661,1084.97 513.766,1085 517.871,1085.02 521.976,1085.05 526.081,1085.07 530.186,1085.1 534.291,1085.12 538.395,1085.15 542.5,1085.18 546.605,1085.2 550.71,1085.23 554.815,1085.25 558.92,1085.28 563.025,1085.3 567.13,1085.32 571.235,1085.34 575.339,1085.36 579.444,1085.38 583.549,1085.39 587.654,1085.4 591.759,1085.41 595.864,1085.42 599.969,1085.42 604.074,1085.42 608.178,1085.42 612.283,1085.42 616.388,1085.42 620.493,1085.42 624.598,1085.42 628.703,1085.42 632.808,1085.42 636.913,1085.42 641.018,1085.42 645.122,1085.42 649.227,1085.42 653.332,1085.41 657.437,1085.41 661.542,1085.41 665.647,1085.41 669.752,1085.41 673.857,1085.41 677.962,1085.41 682.066,1085.41 686.171,1085.41 690.276,1085.41 694.381,1085.41 698.486,1085.41 702.591,1085.41 706.696,1085.41 710.801,1085.41 714.906,1085.41 719.01,1085.41 723.115,1085.41 727.22,1085.41 731.325,1085.41 735.43,1085.41 739.535,1085.41 743.64,1085.41 747.745,1085.41 751.85,1085.41 755.954,1085.41 760.059,1085.41 764.164,1085.41 768.269,1085.41 772.374,1085.41 776.479,1085.41 780.584,1085.41 784.689,1085.41 788.794,1085.41 792.898,1085.41 797.003,1085.41 801.108,1085.41 805.213,1085.41 809.318,1085.41 813.423,1085.41 817.528,1085.41 821.633,1085.41 825.738,1085.41 829.842,1085.41 833.947,1085.41 838.052,1085.41 842.157,1085.41 846.262,1085.41 850.367,1085.41 854.472,1085.41 858.577,1085.41 862.682,1085.41 866.786,1085.41 870.891,1085.41 874.996,1085.41 879.101,1085.41 883.206,1085.41 887.311,1085.41 891.416,1085.41 895.521,1085.41 899.626,1085.41 903.73,1085.41 907.835,1085.41 911.94,1085.41 916.045,1085.41 920.15,1085.41 924.255,1085.41 928.36,1085.41 932.465,1085.41 936.57,1085.41 940.674,1085.41 944.779,1085.41 948.884,1085.41 952.989,1085.41 957.094,1085.41 961.199,1085.41 965.304,1085.41 969.409,1085.41 973.514,1085.41 977.618,1085.41 981.723,1085.41 985.828,1085.41 989.933,1085.41 994.038,1085.41 998.143,1085.41 1002.25,1085.41 1006.35,1085.41 1010.46,1085.41 1014.56,1085.41 1018.67,1085.41 1022.77,1085.41 1026.88,1085.41 1030.98,1085.41 1035.09,1085.41 1039.19,1085.41 1043.3,1085.41 1047.4,1085.41 1051.51,1085.41 1055.61,1085.41 1059.72,1085.41 1063.82,1085.41 1067.93,1085.41 1072.03,1085.41 1076.14,1085.41 1080.24,1085.41 1084.35,1085.41 1088.45,1085.41 1092.56,1085.41 1096.66,1085.41 1100.77,1085.41 1104.87,1085.41 1108.97,1085.41 1113.08,1085.41 1117.18,1085.41 1121.29,1085.41 1125.39,1085.41 1129.5,1085.41 1133.6,1085.41 1137.71,1085.41 1141.81,1085.41 1145.92,1085.41 1150.02,1085.41 1154.13,1085.41 1158.23,1085.41 1162.34,1085.41 1166.44,1085.41 1170.55,1085.41 1174.65,1085.41 1178.76,1085.41 1182.86,1085.41 1186.97,1085.41 1191.07,1085.41 1195.18,1085.41 1199.28,1085.41 1203.39,1085.41 1207.49,1085.41 1211.6,1085.41 1215.7,1085.41 1219.81,1085.41 1223.91,1085.41 1228.02,1085.41 1232.12,1085.41 1236.23,1085.41 1240.33,1085.41 1244.44,1085.41 1248.54,1085.41 1252.65,1085.41 1256.75,1085.41 1260.86,1085.41 1264.96,1085.41 1269.07,1085.41 1273.17,1085.41 1277.28,1085.41 1281.38,1085.41 1285.49,1085.41 1289.59,1085.41 1293.69,1085.41 1297.8,1085.41 1301.9,1085.41 1306.01,1085.41 1310.11,1085.41 1314.22,1085.41 1318.32,1085.41 1322.43,1085.41 1326.53,1085.41 1330.64,1085.41 1334.74,1085.41 1338.85,1085.41 1342.95,1085.41 1347.06,1085.41 1351.16,1085.41 1355.27,1085.41 1359.37,1085.41 1363.48,1085.41 1367.58,1085.41 1371.69,1085.41 1375.79,1085.41 1379.9,1085.41 1384,1085.41 1388.11,1085.41 1392.21,1085.41 1396.32,1085.41 1400.42,1085.41 1404.53,1085.41 1408.63,1085.41 1412.74,1085.41 1416.84,1085.41 1420.95,1085.41 1425.05,1085.41 1429.16,1085.41 1433.26,1085.41 1437.37,1085.41 1441.47,1085.41 1445.58,1085.41 1449.68,1085.41 1453.79,1085.41 1457.89,1085.41 1462,1085.41 1466.1,1085.41 1470.2,1085.41 1474.31,1085.41 1478.41,1085.41 1482.52,1085.41 1486.62,1085.41 1490.73,1085.41 1494.83,1085.41 1498.94,1085.41 1503.04,1085.41 1507.15,1085.41 1511.25,1085.41 1515.36,1085.41 1519.46,1085.41 1523.57,1085.41 1527.67,1085.41 1531.78,1085.41 1535.88,1085.41 1539.99,1085.41 1544.09,1085.41 1548.2,1085.41 1552.3,1085.41 1556.41,1085.41 1560.51,1085.41 1564.62,1085.41 1568.72,1085.41 1572.83,1085.41 1576.93,1085.41 1581.04,1085.41 1585.14,1085.41 1589.25,1085.41 1593.35,1085.41 1597.46,1085.41 1601.56,1085.41 1605.67,1085.41 1609.77,1085.41 1613.88,1085.41 1617.98,1085.41 1622.09,1085.41 1626.19,1085.41 1630.3,1085.41 1634.4,1085.41 1638.51,1085.41 1642.61,1085.41 1646.72,1085.41 1650.82,1085.41 1654.92,1085.41 1659.03,1085.41 1663.13,1085.41 1667.24,1085.41 1671.34,1085.41 1675.45,1085.41 1679.55,1085.41 1683.66,1085.41 1687.76,1085.41 1691.87,1085.41 1695.97,1085.41 1700.08,1085.41 1704.18,1085.41 1708.29,1085.41 1712.39,1085.41 1716.5,1085.41 1720.6,1085.41 1724.71,1085.41 1728.81,1085.41 1732.92,1085.41 1737.02,1085.41 1741.13,1085.41 1745.23,1085.41 1749.34,1085.41 1753.44,1085.41 1757.55,1085.41 1761.65,1085.41 1765.76,1085.41 1769.86,1085.41 1773.97,1085.41 1778.07,1085.41 1782.18,1085.41 1786.28,1085.41 1790.39,1085.41 1794.49,1085.41 1798.6,1085.41 1802.7,1085.41 1806.81,1085.41 1810.91,1085.41 1815.02,1085.41 1819.12,1085.41 1823.23,1085.41 1827.33,1085.41 1831.44,1085.41 1835.54,1085.41 1839.64,1085.41 1843.75,1085.41 1847.85,1085.41 1851.96,1085.41 1856.06,1085.41 1860.17,1085.41 1864.27,1085.41 1868.38,1085.41 1872.48,1085.41 1876.59,1085.41 1880.69,1085.41 1884.8,1085.41 1888.9,1085.41 1893.01,1085.41 1897.11,1085.41 1901.22,1085.41 1905.32,1085.41 1909.43,1085.41 1913.53,1085.41 1917.64,1085.41 1921.74,1085.41 1925.85,1085.41 1929.95,1085.41 1934.06,1085.41 1938.16,1085.41 1942.27,1085.41 1946.37,1085.41 1950.48,1085.41 1954.58,1085.41 1958.69,1085.41 1962.79,1085.41 1966.9,1085.41 1971,1085.41 1975.11,1085.41 1979.21,1085.41 1983.32,1085.41 1987.42,1085.41 1991.53,1085.41 1995.63,1085.41 1999.74,1085.41 2003.84,1085.41 2007.95,1085.41 2012.05,1085.41 2016.16,1085.41 2020.26,1085.41 2024.36,1085.41 2028.47,1085.41 2032.57,1085.41 2036.68,1085.41 2040.78,1085.41 2044.89,1085.41 2048.99,1085.41 2053.1,1085.41 2057.2,1085.41 2061.31,1085.41 2065.41,1085.41 2069.52,1085.41 2073.62,1085.41 2077.73,1085.41 2081.83,1085.41 2085.94,1085.41 2090.04,1085.41 2094.15,1085.41 2098.25,1085.41 2102.36,1085.41 2106.46,1085.41 2110.57,1085.41 2114.67,1085.41 2118.78,1085.41 2122.88,1085.41 2126.99,1085.41 2131.09,1085.41 2135.2,1085.41 2139.3,1085.41 2143.41,1085.41 2147.51,1085.41 2151.62,1085.41 2155.72,1085.41 2159.83,1085.41 2163.93,1085.41 2168.04,1085.41 2172.14,1085.41 2176.25,1085.41 2180.35,1085.41 2184.46,1085.41 2188.56,1085.41 2192.67,1085.41 2196.77,1085.41 2200.88,1085.41 2204.98,1085.41 2209.08,1085.41 2213.19,1085.41 2217.29,1085.41 2221.4,1085.41 2225.5,1085.41 2229.61,1085.41 2233.71,1085.41 2237.82,1085.41 2241.92,1085.41 2246.03,1085.41 2250.13,1085.41 2254.24,1085.41 2258.34,1085.41 2262.45,1085.41 2266.55,1085.41 2270.66,1085.41 2274.76,1085.41 2278.87,1085.41 2282.97,1085.41 2287.08,1085.41 2291.18,1085.41 "/>
<polyline clip-path="url(#clip391)" style="stroke:#ac8d18; stroke-linecap:round; stroke-linejoin:round; stroke-width:8; stroke-opacity:1; fill:none" points="238.739,839.107 242.843,886.214 246.948,957.944 251.053,1045.12 255.158,1089.57 259.263,1113.57 263.368,1126.88 267.473,1133.36 271.578,1135.37 275.683,1134.54 279.787,1132.08 283.892,1128.86 287.997,1125.54 292.102,1122.53 296.207,1120.04 300.312,1118.11 304.417,1116.66 308.522,1115.49 312.627,1114.42 316.731,1113.25 320.836,1111.85 324.941,1110.14 329.046,1108.13 333.151,1105.88 337.256,1103.46 341.361,1100.96 345.466,1098.48 349.571,1096.08 353.675,1093.78 357.78,1091.6 361.885,1089.55 365.99,1087.6 370.095,1087.52 374.2,1087.44 378.305,1087.32 382.41,1087.18 386.515,1087 390.619,1086.8 394.724,1086.56 398.829,1086.31 402.934,1086.03 407.039,1085.73 411.144,1085.43 415.249,1085.11 419.354,1084.79 423.459,1084.47 427.563,1084.15 431.668,1083.84 435.773,1083.54 439.878,1083.25 443.983,1082.97 448.088,1082.71 452.193,1082.47 456.298,1082.25 460.403,1082.04 464.507,1081.87 468.612,1081.71 472.717,1081.57 476.822,1081.46 480.927,1081.38 485.032,1081.39 489.137,1081.4 493.242,1081.41 497.347,1081.43 501.451,1081.45 505.556,1081.47 509.661,1081.5 513.766,1081.52 517.871,1081.55 521.976,1081.58 526.081,1081.61 530.186,1081.63 534.291,1081.66 538.395,1081.69 542.5,1081.72 546.605,1081.75 550.71,1081.78 554.815,1081.81 558.92,1081.84 563.025,1081.86 567.13,1081.89 571.235,1081.91 575.339,1081.93 579.444,1081.95 583.549,1081.97 587.654,1081.99 591.759,1082 595.864,1082.01 599.969,1082.01 604.074,1082.01 608.178,1082.01 612.283,1082.01 616.388,1082.01 620.493,1082.01 624.598,1082.01 628.703,1082.01 632.808,1082.01 636.913,1082.01 641.018,1082.01 645.122,1082.01 649.227,1082.01 653.332,1082.01 657.437,1082.01 661.542,1082.01 665.647,1082.01 669.752,1082.01 673.857,1082.01 677.962,1082 682.066,1082 686.171,1082 690.276,1082 694.381,1082 698.486,1082 702.591,1082 706.696,1082 710.801,1082 714.906,1082 719.01,1082 723.115,1082 727.22,1082 731.325,1082 735.43,1082 739.535,1082 743.64,1082 747.745,1082 751.85,1082 755.954,1082 760.059,1082 764.164,1082.01 768.269,1082.01 772.374,1082.01 776.479,1082.01 780.584,1082.01 784.689,1082.01 788.794,1082.01 792.898,1082.01 797.003,1082.01 801.108,1082.01 805.213,1082.01 809.318,1082.01 813.423,1082.01 817.528,1082.01 821.633,1082.01 825.738,1082.01 829.842,1082.01 833.947,1082.01 838.052,1082.01 842.157,1082.01 846.262,1082.01 850.367,1082.01 854.472,1082.01 858.577,1082.01 862.682,1082.01 866.786,1082.01 870.891,1082.01 874.996,1082.01 879.101,1082.01 883.206,1082.01 887.311,1082.01 891.416,1082.01 895.521,1082.01 899.626,1082.01 903.73,1082.01 907.835,1082.01 911.94,1082.01 916.045,1082.01 920.15,1082.01 924.255,1082.01 928.36,1082.01 932.465,1082.01 936.57,1082.01 940.674,1082.01 944.779,1082.01 948.884,1082.01 952.989,1082.01 957.094,1082.01 961.199,1082.01 965.304,1082.01 969.409,1082.01 973.514,1082.01 977.618,1082.01 981.723,1082.01 985.828,1082.01 989.933,1082.01 994.038,1082.01 998.143,1082.01 1002.25,1082.01 1006.35,1082.01 1010.46,1082.01 1014.56,1082.01 1018.67,1082.01 1022.77,1082.01 1026.88,1082.01 1030.98,1082.01 1035.09,1082.01 1039.19,1082.01 1043.3,1082.01 1047.4,1082.01 1051.51,1082.01 1055.61,1082.01 1059.72,1082.01 1063.82,1082.01 1067.93,1082.01 1072.03,1082.01 1076.14,1082.01 1080.24,1082.01 1084.35,1082.01 1088.45,1082.01 1092.56,1082.01 1096.66,1082.01 1100.77,1082.01 1104.87,1082.01 1108.97,1082.01 1113.08,1082.01 1117.18,1082.01 1121.29,1082.01 1125.39,1082.01 1129.5,1082.01 1133.6,1082.01 1137.71,1082.01 1141.81,1082.01 1145.92,1082.01 1150.02,1082.01 1154.13,1082.01 1158.23,1082.01 1162.34,1082.01 1166.44,1082.01 1170.55,1082.01 1174.65,1082.01 1178.76,1082.01 1182.86,1082.01 1186.97,1082.01 1191.07,1082.01 1195.18,1082.01 1199.28,1082.01 1203.39,1082.01 1207.49,1082.01 1211.6,1082.01 1215.7,1082.01 1219.81,1082.01 1223.91,1082.01 1228.02,1082.01 1232.12,1082.01 1236.23,1082.01 1240.33,1082.01 1244.44,1082.01 1248.54,1082.01 1252.65,1082.01 1256.75,1082.01 1260.86,1082.01 1264.96,1082.01 1269.07,1082.01 1273.17,1082.01 1277.28,1082.01 1281.38,1082.01 1285.49,1082.01 1289.59,1082.01 1293.69,1082.01 1297.8,1082.01 1301.9,1082.01 1306.01,1082.01 1310.11,1082.01 1314.22,1082.01 1318.32,1082.01 1322.43,1082.01 1326.53,1082.01 1330.64,1082.01 1334.74,1082.01 1338.85,1082.01 1342.95,1082.01 1347.06,1082.01 1351.16,1082.01 1355.27,1082.01 1359.37,1082.01 1363.48,1082.01 1367.58,1082.01 1371.69,1082.01 1375.79,1082.01 1379.9,1082.01 1384,1082.01 1388.11,1082.01 1392.21,1082.01 1396.32,1082.01 1400.42,1082.01 1404.53,1082.01 1408.63,1082.01 1412.74,1082.01 1416.84,1082.01 1420.95,1082.01 1425.05,1082.01 1429.16,1082.01 1433.26,1082.01 1437.37,1082.01 1441.47,1082.01 1445.58,1082.01 1449.68,1082.01 1453.79,1082.01 1457.89,1082.01 1462,1082.01 1466.1,1082.01 1470.2,1082.01 1474.31,1082.01 1478.41,1082.01 1482.52,1082.01 1486.62,1082.01 1490.73,1082.01 1494.83,1082.01 1498.94,1082.01 1503.04,1082.01 1507.15,1082.01 1511.25,1082.01 1515.36,1082.01 1519.46,1082.01 1523.57,1082.01 1527.67,1082.01 1531.78,1082.01 1535.88,1082.01 1539.99,1082.01 1544.09,1082.01 1548.2,1082.01 1552.3,1082.01 1556.41,1082.01 1560.51,1082.01 1564.62,1082.01 1568.72,1082.01 1572.83,1082.01 1576.93,1082.01 1581.04,1082.01 1585.14,1082.01 1589.25,1082.01 1593.35,1082.01 1597.46,1082.01 1601.56,1082.01 1605.67,1082.01 1609.77,1082.01 1613.88,1082.01 1617.98,1082.01 1622.09,1082.01 1626.19,1082.01 1630.3,1082.01 1634.4,1082.01 1638.51,1082.01 1642.61,1082.01 1646.72,1082.01 1650.82,1082.01 1654.92,1082.01 1659.03,1082.01 1663.13,1082.01 1667.24,1082.01 1671.34,1082.01 1675.45,1082.01 1679.55,1082.01 1683.66,1082.01 1687.76,1082.01 1691.87,1082.01 1695.97,1082.01 1700.08,1082.01 1704.18,1082.01 1708.29,1082.01 1712.39,1082.01 1716.5,1082.01 1720.6,1082.01 1724.71,1082.01 1728.81,1082.01 1732.92,1082.01 1737.02,1082.01 1741.13,1082.01 1745.23,1082.01 1749.34,1082.01 1753.44,1082.01 1757.55,1082.01 1761.65,1082.01 1765.76,1082.01 1769.86,1082.01 1773.97,1082.01 1778.07,1082.01 1782.18,1082.01 1786.28,1082.01 1790.39,1082.01 1794.49,1082.01 1798.6,1082.01 1802.7,1082.01 1806.81,1082.01 1810.91,1082.01 1815.02,1082.01 1819.12,1082.01 1823.23,1082.01 1827.33,1082.01 1831.44,1082.01 1835.54,1082.01 1839.64,1082.01 1843.75,1082.01 1847.85,1082.01 1851.96,1082.01 1856.06,1082.01 1860.17,1082.01 1864.27,1082.01 1868.38,1082.01 1872.48,1082.01 1876.59,1082.01 1880.69,1082.01 1884.8,1082.01 1888.9,1082.01 1893.01,1082.01 1897.11,1082.01 1901.22,1082.01 1905.32,1082.01 1909.43,1082.01 1913.53,1082.01 1917.64,1082.01 1921.74,1082.01 1925.85,1082.01 1929.95,1082.01 1934.06,1082.01 1938.16,1082.01 1942.27,1082.01 1946.37,1082.01 1950.48,1082.01 1954.58,1082.01 1958.69,1082.01 1962.79,1082.01 1966.9,1082.01 1971,1082.01 1975.11,1082.01 1979.21,1082.01 1983.32,1082.01 1987.42,1082.01 1991.53,1082.01 1995.63,1082.01 1999.74,1082.01 2003.84,1082.01 2007.95,1082.01 2012.05,1082.01 2016.16,1082.01 2020.26,1082.01 2024.36,1082.01 2028.47,1082.01 2032.57,1082.01 2036.68,1082.01 2040.78,1082.01 2044.89,1082.01 2048.99,1082.01 2053.1,1082.01 2057.2,1082.01 2061.31,1082.01 2065.41,1082.01 2069.52,1082.01 2073.62,1082.01 2077.73,1082.01 2081.83,1082.01 2085.94,1082.01 2090.04,1082.01 2094.15,1082.01 2098.25,1082.01 2102.36,1082.01 2106.46,1082.01 2110.57,1082.01 2114.67,1082.01 2118.78,1082.01 2122.88,1082.01 2126.99,1082.01 2131.09,1082.01 2135.2,1082.01 2139.3,1082.01 2143.41,1082.01 2147.51,1082.01 2151.62,1082.01 2155.72,1082.01 2159.83,1082.01 2163.93,1082.01 2168.04,1082.01 2172.14,1082.01 2176.25,1082.01 2180.35,1082.01 2184.46,1082.01 2188.56,1082.01 2192.67,1082.01 2196.77,1082.01 2200.88,1082.01 2204.98,1082.01 2209.08,1082.01 2213.19,1082.01 2217.29,1082.01 2221.4,1082.01 2225.5,1082.01 2229.61,1082.01 2233.71,1082.01 2237.82,1082.01 2241.92,1082.01 2246.03,1082.01 2250.13,1082.01 2254.24,1082.01 2258.34,1082.01 2262.45,1082.01 2266.55,1082.01 2270.66,1082.01 2274.76,1082.01 2278.87,1082.01 2282.97,1082.01 2287.08,1082.01 2291.18,1082.01 "/>
<polyline clip-path="url(#clip391)" style="stroke:#00a9ad; stroke-linecap:round; stroke-linejoin:round; stroke-width:8; stroke-opacity:1; fill:none" points="238.739,982.521 242.843,1019.81 246.948,1079.62 251.053,1151.38 255.158,1181.93 259.263,1192.82 263.368,1193.05 267.473,1186.32 271.578,1174.91 275.683,1160.48 279.787,1144.32 283.892,1127.37 287.997,1110.37 292.102,1093.83 296.207,1078.07 300.312,1063.24 304.417,1049.34 308.522,1036.28 312.627,1023.94 316.731,1012.18 320.836,1000.92 324.941,990.11 329.046,979.777 333.151,969.977 337.256,960.788 341.361,952.293 345.466,944.557 349.571,937.624 353.675,931.507 357.78,926.198 361.885,921.669 365.99,917.877 370.095,918.206 374.2,918.523 378.305,918.916 382.41,919.379 386.515,919.902 390.619,920.479 394.724,921.104 398.829,921.771 402.934,922.475 407.039,923.209 411.144,923.968 415.249,924.745 419.354,925.534 423.459,926.329 427.563,927.122 431.668,927.907 435.773,928.679 439.878,929.43 443.983,930.155 448.088,930.85 452.193,931.509 456.298,932.13 460.403,932.708 464.507,933.243 468.612,933.732 472.717,934.175 476.822,934.57 480.927,934.918 485.032,934.911 489.137,934.904 493.242,934.895 497.347,934.884 501.451,934.872 505.556,934.859 509.661,934.845 513.766,934.83 517.871,934.814 521.976,934.798 526.081,934.782 530.186,934.765 534.291,934.749 538.395,934.733 542.5,934.718 546.605,934.703 550.71,934.688 554.815,934.675 558.92,934.662 563.025,934.65 567.13,934.639 571.235,934.629 575.339,934.62 579.444,934.612 583.549,934.605 587.654,934.6 591.759,934.595 595.864,934.591 599.969,934.592 604.074,934.593 608.178,934.593 612.283,934.594 616.388,934.595 620.493,934.596 624.598,934.597 628.703,934.599 632.808,934.6 636.913,934.602 641.018,934.603 645.122,934.604 649.227,934.606 653.332,934.608 657.437,934.609 661.542,934.611 665.647,934.612 669.752,934.613 673.857,934.615 677.962,934.616 682.066,934.617 686.171,934.619 690.276,934.62 694.381,934.621 698.486,934.622 702.591,934.622 706.696,934.623 710.801,934.624 714.906,934.624 719.01,934.624 723.115,934.624 727.22,934.624 731.325,934.624 735.43,934.624 739.535,934.624 743.64,934.624 747.745,934.624 751.85,934.624 755.954,934.624 760.059,934.624 764.164,934.623 768.269,934.623 772.374,934.623 776.479,934.623 780.584,934.623 784.689,934.623 788.794,934.623 792.898,934.623 797.003,934.623 801.108,934.623 805.213,934.623 809.318,934.623 813.423,934.623 817.528,934.623 821.633,934.623 825.738,934.623 829.842,934.623 833.947,934.623 838.052,934.623 842.157,934.623 846.262,934.623 850.367,934.623 854.472,934.623 858.577,934.623 862.682,934.623 866.786,934.623 870.891,934.623 874.996,934.623 879.101,934.623 883.206,934.623 887.311,934.623 891.416,934.623 895.521,934.623 899.626,934.623 903.73,934.623 907.835,934.623 911.94,934.623 916.045,934.623 920.15,934.623 924.255,934.623 928.36,934.623 932.465,934.623 936.57,934.623 940.674,934.623 944.779,934.623 948.884,934.623 952.989,934.623 957.094,934.623 961.199,934.623 965.304,934.623 969.409,934.623 973.514,934.623 977.618,934.623 981.723,934.623 985.828,934.623 989.933,934.623 994.038,934.623 998.143,934.623 1002.25,934.623 1006.35,934.623 1010.46,934.623 1014.56,934.623 1018.67,934.623 1022.77,934.623 1026.88,934.623 1030.98,934.623 1035.09,934.623 1039.19,934.623 1043.3,934.623 1047.4,934.623 1051.51,934.623 1055.61,934.623 1059.72,934.623 1063.82,934.623 1067.93,934.623 1072.03,934.623 1076.14,934.623 1080.24,934.623 1084.35,934.623 1088.45,934.623 1092.56,934.623 1096.66,934.623 1100.77,934.623 1104.87,934.623 1108.97,934.623 1113.08,934.623 1117.18,934.623 1121.29,934.623 1125.39,934.623 1129.5,934.623 1133.6,934.623 1137.71,934.623 1141.81,934.623 1145.92,934.623 1150.02,934.623 1154.13,934.623 1158.23,934.623 1162.34,934.623 1166.44,934.623 1170.55,934.623 1174.65,934.623 1178.76,934.623 1182.86,934.623 1186.97,934.623 1191.07,934.623 1195.18,934.623 1199.28,934.623 1203.39,934.623 1207.49,934.623 1211.6,934.623 1215.7,934.623 1219.81,934.623 1223.91,934.623 1228.02,934.623 1232.12,934.623 1236.23,934.623 1240.33,934.623 1244.44,934.623 1248.54,934.623 1252.65,934.623 1256.75,934.623 1260.86,934.623 1264.96,934.623 1269.07,934.623 1273.17,934.623 1277.28,934.623 1281.38,934.623 1285.49,934.623 1289.59,934.623 1293.69,934.623 1297.8,934.623 1301.9,934.623 1306.01,934.623 1310.11,934.623 1314.22,934.623 1318.32,934.623 1322.43,934.623 1326.53,934.623 1330.64,934.623 1334.74,934.623 1338.85,934.623 1342.95,934.623 1347.06,934.623 1351.16,934.623 1355.27,934.623 1359.37,934.623 1363.48,934.623 1367.58,934.623 1371.69,934.623 1375.79,934.623 1379.9,934.623 1384,934.623 1388.11,934.623 1392.21,934.623 1396.32,934.623 1400.42,934.623 1404.53,934.623 1408.63,934.623 1412.74,934.623 1416.84,934.623 1420.95,934.623 1425.05,934.623 1429.16,934.623 1433.26,934.623 1437.37,934.623 1441.47,934.623 1445.58,934.623 1449.68,934.623 1453.79,934.623 1457.89,934.623 1462,934.623 1466.1,934.623 1470.2,934.623 1474.31,934.623 1478.41,934.623 1482.52,934.623 1486.62,934.623 1490.73,934.623 1494.83,934.623 1498.94,934.623 1503.04,934.623 1507.15,934.623 1511.25,934.623 1515.36,934.623 1519.46,934.623 1523.57,934.623 1527.67,934.623 1531.78,934.623 1535.88,934.623 1539.99,934.623 1544.09,934.623 1548.2,934.623 1552.3,934.623 1556.41,934.623 1560.51,934.623 1564.62,934.623 1568.72,934.623 1572.83,934.623 1576.93,934.623 1581.04,934.623 1585.14,934.623 1589.25,934.623 1593.35,934.623 1597.46,934.623 1601.56,934.623 1605.67,934.623 1609.77,934.623 1613.88,934.623 1617.98,934.623 1622.09,934.623 1626.19,934.623 1630.3,934.623 1634.4,934.623 1638.51,934.623 1642.61,934.623 1646.72,934.623 1650.82,934.623 1654.92,934.623 1659.03,934.623 1663.13,934.623 1667.24,934.623 1671.34,934.623 1675.45,934.623 1679.55,934.623 1683.66,934.623 1687.76,934.623 1691.87,934.623 1695.97,934.623 1700.08,934.623 1704.18,934.623 1708.29,934.623 1712.39,934.623 1716.5,934.623 1720.6,934.623 1724.71,934.623 1728.81,934.623 1732.92,934.623 1737.02,934.623 1741.13,934.623 1745.23,934.623 1749.34,934.623 1753.44,934.623 1757.55,934.623 1761.65,934.623 1765.76,934.623 1769.86,934.623 1773.97,934.623 1778.07,934.623 1782.18,934.623 1786.28,934.623 1790.39,934.623 1794.49,934.623 1798.6,934.623 1802.7,934.623 1806.81,934.623 1810.91,934.623 1815.02,934.623 1819.12,934.623 1823.23,934.623 1827.33,934.623 1831.44,934.623 1835.54,934.623 1839.64,934.623 1843.75,934.623 1847.85,934.623 1851.96,934.623 1856.06,934.623 1860.17,934.623 1864.27,934.623 1868.38,934.623 1872.48,934.623 1876.59,934.623 1880.69,934.623 1884.8,934.623 1888.9,934.623 1893.01,934.623 1897.11,934.623 1901.22,934.623 1905.32,934.623 1909.43,934.623 1913.53,934.623 1917.64,934.623 1921.74,934.623 1925.85,934.623 1929.95,934.623 1934.06,934.623 1938.16,934.623 1942.27,934.623 1946.37,934.623 1950.48,934.623 1954.58,934.623 1958.69,934.623 1962.79,934.623 1966.9,934.623 1971,934.623 1975.11,934.623 1979.21,934.623 1983.32,934.623 1987.42,934.623 1991.53,934.623 1995.63,934.623 1999.74,934.623 2003.84,934.623 2007.95,934.623 2012.05,934.623 2016.16,934.623 2020.26,934.623 2024.36,934.623 2028.47,934.623 2032.57,934.623 2036.68,934.623 2040.78,934.623 2044.89,934.623 2048.99,934.623 2053.1,934.623 2057.2,934.623 2061.31,934.623 2065.41,934.623 2069.52,934.623 2073.62,934.623 2077.73,934.623 2081.83,934.623 2085.94,934.623 2090.04,934.623 2094.15,934.623 2098.25,934.623 2102.36,934.623 2106.46,934.623 2110.57,934.623 2114.67,934.623 2118.78,934.623 2122.88,934.623 2126.99,934.623 2131.09,934.623 2135.2,934.623 2139.3,934.623 2143.41,934.623 2147.51,934.623 2151.62,934.623 2155.72,934.623 2159.83,934.623 2163.93,934.623 2168.04,934.623 2172.14,934.623 2176.25,934.623 2180.35,934.623 2184.46,934.623 2188.56,934.623 2192.67,934.623 2196.77,934.623 2200.88,934.623 2204.98,934.623 2209.08,934.623 2213.19,934.623 2217.29,934.623 2221.4,934.623 2225.5,934.623 2229.61,934.623 2233.71,934.623 2237.82,934.623 2241.92,934.623 2246.03,934.623 2250.13,934.623 2254.24,934.623 2258.34,934.623 2262.45,934.623 2266.55,934.623 2270.66,934.623 2274.76,934.623 2278.87,934.623 2282.97,934.623 2287.08,934.623 2291.18,934.623 "/>
<polyline clip-path="url(#clip391)" style="stroke:#ed5d92; stroke-linecap:round; stroke-linejoin:round; stroke-width:8; stroke-opacity:1; fill:none" points="238.739,175.702 242.843,265.241 246.948,403.428 251.053,570.777 255.158,661.828 259.263,714.83 263.368,748.155 267.473,769.175 271.578,782.352 275.683,790.806 279.787,796.834 283.892,802.127 287.997,807.883 292.102,814.86 296.207,823.426 300.312,833.609 304.417,845.172 308.522,857.707 312.627,870.733 316.731,883.791 320.836,896.515 324.941,908.663 329.046,920.122 333.151,930.882 337.256,940.994 341.361,950.533 345.466,959.565 349.571,968.124 353.675,976.211 357.78,983.796 361.885,990.826 365.99,997.239 370.095,997.223 374.2,997.195 378.305,997.146 382.41,997.072 386.515,996.971 390.619,996.841 394.724,996.684 398.829,996.501 402.934,996.295 407.039,996.07 411.144,995.829 415.249,995.576 419.354,995.313 423.459,995.042 427.563,994.767 431.668,994.489 435.773,994.21 439.878,993.93 443.983,993.651 448.088,993.376 452.193,993.104 456.298,992.839 460.403,992.581 464.507,992.332 468.612,992.094 472.717,991.868 476.822,991.656 480.927,991.459 485.032,991.453 489.137,991.447 493.242,991.439 497.347,991.431 501.451,991.42 505.556,991.409 509.661,991.397 513.766,991.383 517.871,991.369 521.976,991.354 526.081,991.339 530.186,991.323 534.291,991.306 538.395,991.289 542.5,991.272 546.605,991.255 550.71,991.238 554.815,991.222 558.92,991.205 563.025,991.188 567.13,991.172 571.235,991.157 575.339,991.141 579.444,991.127 583.549,991.113 587.654,991.1 591.759,991.087 595.864,991.076 599.969,991.075 604.074,991.075 608.178,991.074 612.283,991.074 616.388,991.073 620.493,991.072 624.598,991.071 628.703,991.07 632.808,991.069 636.913,991.068 641.018,991.067 645.122,991.066 649.227,991.065 653.332,991.064 657.437,991.063 661.542,991.061 665.647,991.06 669.752,991.059 673.857,991.058 677.962,991.057 682.066,991.056 686.171,991.055 690.276,991.054 694.381,991.053 698.486,991.052 702.591,991.051 706.696,991.05 710.801,991.049 714.906,991.049 719.01,991.049 723.115,991.049 727.22,991.049 731.325,991.049 735.43,991.049 739.535,991.049 743.64,991.049 747.745,991.049 751.85,991.049 755.954,991.049 760.059,991.048 764.164,991.048 768.269,991.048 772.374,991.048 776.479,991.048 780.584,991.048 784.689,991.048 788.794,991.048 792.898,991.048 797.003,991.048 801.108,991.048 805.213,991.048 809.318,991.048 813.423,991.048 817.528,991.047 821.633,991.047 825.738,991.047 829.842,991.047 833.947,991.047 838.052,991.047 842.157,991.047 846.262,991.047 850.367,991.047 854.472,991.047 858.577,991.047 862.682,991.047 866.786,991.047 870.891,991.047 874.996,991.047 879.101,991.047 883.206,991.047 887.311,991.047 891.416,991.047 895.521,991.047 899.626,991.047 903.73,991.047 907.835,991.047 911.94,991.047 916.045,991.047 920.15,991.047 924.255,991.047 928.36,991.047 932.465,991.047 936.57,991.047 940.674,991.047 944.779,991.047 948.884,991.047 952.989,991.047 957.094,991.047 961.199,991.047 965.304,991.047 969.409,991.047 973.514,991.047 977.618,991.047 981.723,991.047 985.828,991.047 989.933,991.047 994.038,991.047 998.143,991.047 1002.25,991.047 1006.35,991.047 1010.46,991.047 1014.56,991.047 1018.67,991.047 1022.77,991.047 1026.88,991.047 1030.98,991.047 1035.09,991.047 1039.19,991.047 1043.3,991.047 1047.4,991.047 1051.51,991.047 1055.61,991.047 1059.72,991.047 1063.82,991.047 1067.93,991.047 1072.03,991.047 1076.14,991.047 1080.24,991.047 1084.35,991.047 1088.45,991.047 1092.56,991.047 1096.66,991.047 1100.77,991.047 1104.87,991.047 1108.97,991.047 1113.08,991.047 1117.18,991.047 1121.29,991.047 1125.39,991.047 1129.5,991.047 1133.6,991.047 1137.71,991.047 1141.81,991.047 1145.92,991.047 1150.02,991.047 1154.13,991.047 1158.23,991.047 1162.34,991.047 1166.44,991.047 1170.55,991.047 1174.65,991.047 1178.76,991.047 1182.86,991.047 1186.97,991.047 1191.07,991.047 1195.18,991.047 1199.28,991.047 1203.39,991.047 1207.49,991.047 1211.6,991.047 1215.7,991.047 1219.81,991.047 1223.91,991.047 1228.02,991.047 1232.12,991.047 1236.23,991.047 1240.33,991.047 1244.44,991.047 1248.54,991.047 1252.65,991.047 1256.75,991.047 1260.86,991.047 1264.96,991.047 1269.07,991.047 1273.17,991.047 1277.28,991.047 1281.38,991.047 1285.49,991.047 1289.59,991.047 1293.69,991.047 1297.8,991.047 1301.9,991.047 1306.01,991.047 1310.11,991.047 1314.22,991.047 1318.32,991.047 1322.43,991.047 1326.53,991.047 1330.64,991.047 1334.74,991.047 1338.85,991.047 1342.95,991.047 1347.06,991.047 1351.16,991.047 1355.27,991.047 1359.37,991.047 1363.48,991.047 1367.58,991.047 1371.69,991.047 1375.79,991.047 1379.9,991.047 1384,991.047 1388.11,991.047 1392.21,991.047 1396.32,991.047 1400.42,991.047 1404.53,991.047 1408.63,991.047 1412.74,991.047 1416.84,991.047 1420.95,991.047 1425.05,991.047 1429.16,991.047 1433.26,991.047 1437.37,991.047 1441.47,991.047 1445.58,991.047 1449.68,991.047 1453.79,991.047 1457.89,991.047 1462,991.047 1466.1,991.047 1470.2,991.047 1474.31,991.047 1478.41,991.047 1482.52,991.047 1486.62,991.047 1490.73,991.047 1494.83,991.047 1498.94,991.047 1503.04,991.047 1507.15,991.047 1511.25,991.047 1515.36,991.047 1519.46,991.047 1523.57,991.047 1527.67,991.047 1531.78,991.047 1535.88,991.047 1539.99,991.047 1544.09,991.047 1548.2,991.047 1552.3,991.047 1556.41,991.047 1560.51,991.047 1564.62,991.047 1568.72,991.047 1572.83,991.047 1576.93,991.047 1581.04,991.047 1585.14,991.047 1589.25,991.047 1593.35,991.047 1597.46,991.047 1601.56,991.047 1605.67,991.047 1609.77,991.047 1613.88,991.047 1617.98,991.047 1622.09,991.047 1626.19,991.047 1630.3,991.047 1634.4,991.047 1638.51,991.047 1642.61,991.047 1646.72,991.047 1650.82,991.047 1654.92,991.047 1659.03,991.047 1663.13,991.047 1667.24,991.047 1671.34,991.047 1675.45,991.047 1679.55,991.047 1683.66,991.047 1687.76,991.047 1691.87,991.047 1695.97,991.047 1700.08,991.047 1704.18,991.047 1708.29,991.047 1712.39,991.047 1716.5,991.047 1720.6,991.047 1724.71,991.047 1728.81,991.047 1732.92,991.047 1737.02,991.047 1741.13,991.047 1745.23,991.047 1749.34,991.047 1753.44,991.047 1757.55,991.047 1761.65,991.047 1765.76,991.047 1769.86,991.047 1773.97,991.047 1778.07,991.047 1782.18,991.047 1786.28,991.047 1790.39,991.047 1794.49,991.047 1798.6,991.047 1802.7,991.047 1806.81,991.047 1810.91,991.047 1815.02,991.047 1819.12,991.047 1823.23,991.047 1827.33,991.047 1831.44,991.047 1835.54,991.047 1839.64,991.047 1843.75,991.047 1847.85,991.047 1851.96,991.047 1856.06,991.047 1860.17,991.047 1864.27,991.047 1868.38,991.047 1872.48,991.047 1876.59,991.047 1880.69,991.047 1884.8,991.047 1888.9,991.047 1893.01,991.047 1897.11,991.047 1901.22,991.047 1905.32,991.047 1909.43,991.047 1913.53,991.047 1917.64,991.047 1921.74,991.047 1925.85,991.047 1929.95,991.047 1934.06,991.047 1938.16,991.047 1942.27,991.047 1946.37,991.047 1950.48,991.047 1954.58,991.047 1958.69,991.047 1962.79,991.047 1966.9,991.047 1971,991.047 1975.11,991.047 1979.21,991.047 1983.32,991.047 1987.42,991.047 1991.53,991.047 1995.63,991.047 1999.74,991.047 2003.84,991.047 2007.95,991.047 2012.05,991.047 2016.16,991.047 2020.26,991.047 2024.36,991.047 2028.47,991.047 2032.57,991.047 2036.68,991.047 2040.78,991.047 2044.89,991.047 2048.99,991.047 2053.1,991.047 2057.2,991.047 2061.31,991.047 2065.41,991.047 2069.52,991.047 2073.62,991.047 2077.73,991.047 2081.83,991.047 2085.94,991.047 2090.04,991.047 2094.15,991.047 2098.25,991.047 2102.36,991.047 2106.46,991.047 2110.57,991.047 2114.67,991.047 2118.78,991.047 2122.88,991.047 2126.99,991.047 2131.09,991.047 2135.2,991.047 2139.3,991.047 2143.41,991.047 2147.51,991.047 2151.62,991.047 2155.72,991.047 2159.83,991.047 2163.93,991.047 2168.04,991.047 2172.14,991.047 2176.25,991.047 2180.35,991.047 2184.46,991.047 2188.56,991.047 2192.67,991.047 2196.77,991.047 2200.88,991.047 2204.98,991.047 2209.08,991.047 2213.19,991.047 2217.29,991.047 2221.4,991.047 2225.5,991.047 2229.61,991.047 2233.71,991.047 2237.82,991.047 2241.92,991.047 2246.03,991.047 2250.13,991.047 2254.24,991.047 2258.34,991.047 2262.45,991.047 2266.55,991.047 2270.66,991.047 2274.76,991.047 2278.87,991.047 2282.97,991.047 2287.08,991.047 2291.18,991.047 "/>
</svg>
