<?xml version="1.0" encoding="utf-8"?>
<svg xmlns="http://www.w3.org/2000/svg" xmlns:xlink="http://www.w3.org/1999/xlink" width="600" height="600" viewBox="0 0 2400 2400">
<defs>
  <clipPath id="clip790">
    <rect x="0" y="0" width="2400" height="2400"/>
  </clipPath>
</defs>
<path clip-path="url(#clip790)" d="M0 2400 L2400 2400 L2400 0 L0 0  Z" fill="#ffffff" fill-rule="evenodd" fill-opacity="1"/>
<defs>
  <clipPath id="clip791">
    <rect x="47" y="153" width="2307" height="2200"/>
  </clipPath>
</defs>
<path clip-path="url(#clip790)" d="M47.2441 2352.76 L2352.76 2352.76 L2352.76 153.712 L47.2441 153.712  Z" fill="#ffffff" fill-rule="evenodd" fill-opacity="1"/>
<path clip-path="url(#clip790)" d="M973.23 12.096 L981.413 12.096 L981.413 72.576 L973.23 72.576 L973.23 12.096 Z" fill="#000000" fill-rule="nonzero" fill-opacity="1" /><path clip-path="url(#clip790)" d="M1035.09 45.1919 L1035.09 72.576 L1027.63 72.576 L1027.63 45.4349 Q1027.63 38.994 1025.12 35.7938 Q1022.61 32.5936 1017.59 32.5936 Q1011.55 32.5936 1008.07 36.4419 Q1004.58 40.2903 1004.58 46.9338 L1004.58 72.576 L997.09 72.576 L997.09 27.2059 L1004.58 27.2059 L1004.58 34.2544 Q1007.26 30.163 1010.86 28.1376 Q1014.51 26.1121 1019.25 26.1121 Q1027.07 26.1121 1031.08 30.9732 Q1035.09 35.7938 1035.09 45.1919 Z" fill="#000000" fill-rule="nonzero" fill-opacity="1" /><path clip-path="url(#clip790)" d="M1049.95 27.2059 L1057.41 27.2059 L1057.41 72.576 L1049.95 72.576 L1049.95 27.2059 M1049.95 9.54393 L1057.41 9.54393 L1057.41 18.9825 L1049.95 18.9825 L1049.95 9.54393 Z" fill="#000000" fill-rule="nonzero" fill-opacity="1" /><path clip-path="url(#clip790)" d="M1080.38 14.324 L1080.38 27.2059 L1095.73 27.2059 L1095.73 32.9987 L1080.38 32.9987 L1080.38 57.6282 Q1080.38 63.1779 1081.88 64.7578 Q1083.41 66.3376 1088.07 66.3376 L1095.73 66.3376 L1095.73 72.576 L1088.07 72.576 Q1079.45 72.576 1076.16 69.3758 Q1072.88 66.1351 1072.88 57.6282 L1072.88 32.9987 L1067.41 32.9987 L1067.41 27.2059 L1072.88 27.2059 L1072.88 14.324 L1080.38 14.324 Z" fill="#000000" fill-rule="nonzero" fill-opacity="1" /><path clip-path="url(#clip790)" d="M1105.53 27.2059 L1112.99 27.2059 L1112.99 72.576 L1105.53 72.576 L1105.53 27.2059 M1105.53 9.54393 L1112.99 9.54393 L1112.99 18.9825 L1105.53 18.9825 L1105.53 9.54393 Z" fill="#000000" fill-rule="nonzero" fill-opacity="1" /><path clip-path="url(#clip790)" d="M1149.2 49.7694 Q1140.17 49.7694 1136.68 51.8354 Q1133.2 53.9013 1133.2 58.8839 Q1133.2 62.8538 1135.79 65.2034 Q1138.43 67.5124 1142.92 67.5124 Q1149.12 67.5124 1152.85 63.1374 Q1156.61 58.7219 1156.61 51.4303 L1156.61 49.7694 L1149.2 49.7694 M1164.07 46.6907 L1164.07 72.576 L1156.61 72.576 L1156.61 65.6895 Q1154.06 69.8214 1150.25 71.8063 Q1146.45 73.7508 1140.94 73.7508 Q1133.97 73.7508 1129.84 69.8619 Q1125.75 65.9325 1125.75 59.3701 Q1125.75 51.7138 1130.85 47.825 Q1136 43.9361 1146.16 43.9361 L1156.61 43.9361 L1156.61 43.2069 Q1156.61 38.0623 1153.21 35.2672 Q1149.85 32.4315 1143.73 32.4315 Q1139.84 32.4315 1136.16 33.3632 Q1132.47 34.295 1129.07 36.1584 L1129.07 29.2718 Q1133.16 27.692 1137.01 26.9223 Q1140.86 26.1121 1144.5 26.1121 Q1154.35 26.1121 1159.21 31.2163 Q1164.07 36.3204 1164.07 46.6907 Z" fill="#000000" fill-rule="nonzero" fill-opacity="1" /><path clip-path="url(#clip790)" d="M1179.42 9.54393 L1186.88 9.54393 L1186.88 72.576 L1179.42 72.576 L1179.42 9.54393 Z" fill="#000000" fill-rule="nonzero" fill-opacity="1" /><path clip-path="url(#clip790)" d="M1257.77 28.5427 L1257.77 35.5912 Q1254.61 33.9709 1251.2 33.1607 Q1247.8 32.3505 1244.15 32.3505 Q1238.61 32.3505 1235.81 34.0519 Q1233.06 35.7533 1233.06 39.156 Q1233.06 41.7486 1235.04 43.2475 Q1237.03 44.7058 1243.02 46.0426 L1245.57 46.6097 Q1253.51 48.3111 1256.83 51.4303 Q1260.2 54.509 1260.2 60.0587 Q1260.2 66.3781 1255.17 70.0644 Q1250.19 73.7508 1241.44 73.7508 Q1237.79 73.7508 1233.83 73.0216 Q1229.9 72.3329 1225.52 70.9151 L1225.52 63.2184 Q1229.65 65.3654 1233.66 66.4591 Q1237.67 67.5124 1241.6 67.5124 Q1246.87 67.5124 1249.7 65.73 Q1252.54 63.9071 1252.54 60.6258 Q1252.54 57.5877 1250.47 55.9673 Q1248.45 54.3469 1241.52 52.8481 L1238.93 52.2405 Q1232 50.7821 1228.92 47.7845 Q1225.84 44.7463 1225.84 39.4801 Q1225.84 33.0797 1230.38 29.5959 Q1234.92 26.1121 1243.26 26.1121 Q1247.4 26.1121 1251.04 26.7198 Q1254.69 27.3274 1257.77 28.5427 Z" fill="#000000" fill-rule="nonzero" fill-opacity="1" /><path clip-path="url(#clip790)" d="M1279.44 14.324 L1279.44 27.2059 L1294.79 27.2059 L1294.79 32.9987 L1279.44 32.9987 L1279.44 57.6282 Q1279.44 63.1779 1280.94 64.7578 Q1282.48 66.3376 1287.13 66.3376 L1294.79 66.3376 L1294.79 72.576 L1287.13 72.576 Q1278.51 72.576 1275.23 69.3758 Q1271.94 66.1351 1271.94 57.6282 L1271.94 32.9987 L1266.48 32.9987 L1266.48 27.2059 L1271.94 27.2059 L1271.94 14.324 L1279.44 14.324 Z" fill="#000000" fill-rule="nonzero" fill-opacity="1" /><path clip-path="url(#clip790)" d="M1325.21 49.7694 Q1316.18 49.7694 1312.7 51.8354 Q1309.21 53.9013 1309.21 58.8839 Q1309.21 62.8538 1311.8 65.2034 Q1314.44 67.5124 1318.93 67.5124 Q1325.13 67.5124 1328.86 63.1374 Q1332.63 58.7219 1332.63 51.4303 L1332.63 49.7694 L1325.21 49.7694 M1340.08 46.6907 L1340.08 72.576 L1332.63 72.576 L1332.63 65.6895 Q1330.07 69.8214 1326.27 71.8063 Q1322.46 73.7508 1316.95 73.7508 Q1309.98 73.7508 1305.85 69.8619 Q1301.76 65.9325 1301.76 59.3701 Q1301.76 51.7138 1306.86 47.825 Q1312.01 43.9361 1322.18 43.9361 L1332.63 43.9361 L1332.63 43.2069 Q1332.63 38.0623 1329.22 35.2672 Q1325.86 32.4315 1319.74 32.4315 Q1315.86 32.4315 1312.17 33.3632 Q1308.48 34.295 1305.08 36.1584 L1305.08 29.2718 Q1309.17 27.692 1313.02 26.9223 Q1316.87 26.1121 1320.51 26.1121 Q1330.36 26.1121 1335.22 31.2163 Q1340.08 36.3204 1340.08 46.6907 Z" fill="#000000" fill-rule="nonzero" fill-opacity="1" /><path clip-path="url(#clip790)" d="M1362.81 14.324 L1362.81 27.2059 L1378.16 27.2059 L1378.16 32.9987 L1362.81 32.9987 L1362.81 57.6282 Q1362.81 63.1779 1364.3 64.7578 Q1365.84 66.3376 1370.5 66.3376 L1378.16 66.3376 L1378.16 72.576 L1370.5 72.576 Q1361.87 72.576 1358.59 69.3758 Q1355.31 66.1351 1355.31 57.6282 L1355.31 32.9987 L1349.84 32.9987 L1349.84 27.2059 L1355.31 27.2059 L1355.31 14.324 L1362.81 14.324 Z" fill="#000000" fill-rule="nonzero" fill-opacity="1" /><path clip-path="url(#clip790)" d="M1426.77 48.0275 L1426.77 51.6733 L1392.5 51.6733 Q1392.99 59.3701 1397.12 63.421 Q1401.29 67.4314 1408.7 67.4314 Q1413 67.4314 1417.01 66.3781 Q1421.06 65.3249 1425.03 63.2184 L1425.03 70.267 Q1421.02 71.9684 1416.8 72.8596 Q1412.59 73.7508 1408.26 73.7508 Q1397.4 73.7508 1391.04 67.4314 Q1384.72 61.1119 1384.72 50.3365 Q1384.72 39.1965 1390.72 32.6746 Q1396.75 26.1121 1406.96 26.1121 Q1416.12 26.1121 1421.42 32.0264 Q1426.77 37.9003 1426.77 48.0275 M1419.32 45.84 Q1419.23 39.7232 1415.87 36.0774 Q1412.55 32.4315 1407.04 32.4315 Q1400.8 32.4315 1397.04 35.9558 Q1393.31 39.4801 1392.74 45.8805 L1419.32 45.84 Z" fill="#000000" fill-rule="nonzero" fill-opacity="1" /><polyline clip-path="url(#clip791)" style="stroke:#ff0000; stroke-linecap:round; stroke-linejoin:round; stroke-width:8; stroke-opacity:1; fill:none" points="854.238,561.711 853.556,540 851.512,518.375 848.114,496.922 843.376,475.723 837.316,454.865 829.958,434.427 821.331,414.493 811.47,395.139 800.413,376.442 788.204,358.477 774.891,341.314 760.526,325.021 745.167,309.661 728.874,295.297 711.71,281.984 693.745,269.775 675.049,258.718 655.695,248.856 635.76,240.23 615.323,232.872 594.464,226.812 573.266,222.074 551.812,218.676 530.187,216.631 508.477,215.949 486.766,216.631 465.141,218.676 443.688,222.074 422.489,226.812 401.631,232.872 381.193,240.23 361.259,248.856 341.905,258.718 323.208,269.775 305.243,281.984 288.08,295.297 271.787,309.661 256.427,325.021 242.063,341.314 228.75,358.477 216.541,376.442 205.484,395.139 195.622,414.493 186.996,434.427 179.638,454.865 173.578,475.723 168.84,496.922 165.442,518.375 163.397,540 162.715,561.711 163.397,583.421 165.442,605.046 168.84,626.5 173.578,647.698 179.638,668.557 186.996,688.994 195.622,708.929 205.484,728.283 216.541,746.979 228.75,764.944 242.063,782.108 256.427,798.401 271.787,813.76 288.08,828.125 305.243,841.438 323.208,853.647 341.905,864.704 361.259,874.565 381.193,883.192 401.631,890.55 422.489,896.61 443.688,901.348 465.141,904.746 486.766,906.79 508.477,907.472 530.187,906.79 551.812,904.746 573.266,901.348 594.464,896.61 615.323,890.55 635.76,883.192 655.695,874.565 675.049,864.704 693.745,853.647 711.71,841.438 728.874,828.125 745.167,813.76 760.526,798.401 774.891,782.108 788.204,764.944 800.413,746.979 811.47,728.283 821.331,708.929 829.958,688.994 837.316,668.557 843.376,647.698 848.114,626.5 851.512,605.046 853.556,583.421 854.238,561.711 "/>
<polyline clip-path="url(#clip791)" style="stroke:#008000; stroke-linecap:round; stroke-linejoin:round; stroke-width:8; stroke-opacity:1; fill:none" points="2237.28,561.711 2236.6,540 2234.56,518.375 2231.16,496.922 2226.42,475.723 2220.36,454.865 2213,434.427 2204.38,414.493 2194.52,395.139 2183.46,376.442 2171.25,358.477 2157.94,341.314 2143.57,325.021 2128.21,309.661 2111.92,295.297 2094.76,281.984 2076.79,269.775 2058.1,258.718 2038.74,248.856 2018.81,240.23 1998.37,232.872 1977.51,226.812 1956.31,222.074 1934.86,218.676 1913.23,216.631 1891.52,215.949 1869.81,216.631 1848.19,218.676 1826.73,222.074 1805.54,226.812 1784.68,232.872 1764.24,240.23 1744.31,248.856 1724.95,258.718 1706.25,269.775 1688.29,281.984 1671.13,295.297 1654.83,309.661 1639.47,325.021 1625.11,341.314 1611.8,358.477 1599.59,376.442 1588.53,395.139 1578.67,414.493 1570.04,434.427 1562.68,454.865 1556.62,475.723 1551.89,496.922 1548.49,518.375 1546.44,540 1545.76,561.711 1546.44,583.421 1548.49,605.046 1551.89,626.5 1556.62,647.698 1562.68,668.557 1570.04,688.994 1578.67,708.929 1588.53,728.283 1599.59,746.979 1611.8,764.944 1625.11,782.108 1639.47,798.401 1654.83,813.76 1671.13,828.125 1688.29,841.438 1706.25,853.647 1724.95,864.704 1744.31,874.565 1764.24,883.192 1784.68,890.55 1805.54,896.61 1826.73,901.348 1848.19,904.746 1869.81,906.79 1891.52,907.472 1913.23,906.79 1934.86,904.746 1956.31,901.348 1977.51,896.61 1998.37,890.55 2018.81,883.192 2038.74,874.565 2058.1,864.704 2076.79,853.647 2094.76,841.438 2111.92,828.125 2128.21,813.76 2143.57,798.401 2157.94,782.108 2171.25,764.944 2183.46,746.979 2194.52,728.283 2204.38,708.929 2213,688.994 2220.36,668.557 2226.42,647.698 2231.16,626.5 2234.56,605.046 2236.6,583.421 2237.28,561.711 "/>
<polyline clip-path="url(#clip791)" style="stroke:#0000ff; stroke-linecap:round; stroke-linejoin:round; stroke-width:8; stroke-opacity:1; fill:none" points="854.238,1944.76 853.556,1923.05 851.512,1901.42 848.114,1879.97 843.376,1858.77 837.316,1837.91 829.958,1817.47 821.331,1797.54 811.47,1778.19 800.413,1759.49 788.204,1741.52 774.891,1724.36 760.526,1708.07 745.167,1692.71 728.874,1678.34 711.71,1665.03 693.745,1652.82 675.049,1641.76 655.695,1631.9 635.76,1623.28 615.323,1615.92 594.464,1609.86 573.266,1605.12 551.812,1601.72 530.187,1599.68 508.477,1599 486.766,1599.68 465.141,1601.72 443.688,1605.12 422.489,1609.86 401.631,1615.92 381.193,1623.28 361.259,1631.9 341.905,1641.76 323.208,1652.82 305.243,1665.03 288.08,1678.34 271.787,1692.71 256.427,1708.07 242.063,1724.36 228.75,1741.52 216.541,1759.49 205.484,1778.19 195.622,1797.54 186.996,1817.47 179.638,1837.91 173.578,1858.77 168.84,1879.97 165.442,1901.42 163.397,1923.05 162.715,1944.76 163.397,1966.47 165.442,1988.09 168.84,2009.55 173.578,2030.74 179.638,2051.6 186.996,2072.04 195.622,2091.98 205.484,2111.33 216.541,2130.03 228.75,2147.99 242.063,2165.15 256.427,2181.45 271.787,2196.81 288.08,2211.17 305.243,2224.48 323.208,2236.69 341.905,2247.75 361.259,2257.61 381.193,2266.24 401.631,2273.6 422.489,2279.66 443.688,2284.39 465.141,2287.79 486.766,2289.84 508.477,2290.52 530.187,2289.84 551.812,2287.79 573.266,2284.39 594.464,2279.66 615.323,2273.6 635.76,2266.24 655.695,2257.61 675.049,2247.75 693.745,2236.69 711.71,2224.48 728.874,2211.17 745.167,2196.81 760.526,2181.45 774.891,2165.15 788.204,2147.99 800.413,2130.03 811.47,2111.33 821.331,2091.98 829.958,2072.04 837.316,2051.6 843.376,2030.74 848.114,2009.55 851.512,1988.09 853.556,1966.47 854.238,1944.76 "/>
<polyline clip-path="url(#clip791)" style="stroke:#800080; stroke-linecap:round; stroke-linejoin:round; stroke-width:8; stroke-opacity:1; fill:none" points="2237.28,1944.76 2236.6,1923.05 2234.56,1901.42 2231.16,1879.97 2226.42,1858.77 2220.36,1837.91 2213,1817.47 2204.38,1797.54 2194.52,1778.19 2183.46,1759.49 2171.25,1741.52 2157.94,1724.36 2143.57,1708.07 2128.21,1692.71 2111.92,1678.34 2094.76,1665.03 2076.79,1652.82 2058.1,1641.76 2038.74,1631.9 2018.81,1623.28 1998.37,1615.92 1977.51,1609.86 1956.31,1605.12 1934.86,1601.72 1913.23,1599.68 1891.52,1599 1869.81,1599.68 1848.19,1601.72 1826.73,1605.12 1805.54,1609.86 1784.68,1615.92 1764.24,1623.28 1744.31,1631.9 1724.95,1641.76 1706.25,1652.82 1688.29,1665.03 1671.13,1678.34 1654.83,1692.71 1639.47,1708.07 1625.11,1724.36 1611.8,1741.52 1599.59,1759.49 1588.53,1778.19 1578.67,1797.54 1570.04,1817.47 1562.68,1837.91 1556.62,1858.77 1551.89,1879.97 1548.49,1901.42 1546.44,1923.05 1545.76,1944.76 1546.44,1966.47 1548.49,1988.09 1551.89,2009.55 1556.62,2030.74 1562.68,2051.6 1570.04,2072.04 1578.67,2091.98 1588.53,2111.33 1599.59,2130.03 1611.8,2147.99 1625.11,2165.15 1639.47,2181.45 1654.83,2196.81 1671.13,2211.17 1688.29,2224.48 1706.25,2236.69 1724.95,2247.75 1744.31,2257.61 1764.24,2266.24 1784.68,2273.6 1805.54,2279.66 1826.73,2284.39 1848.19,2287.79 1869.81,2289.84 1891.52,2290.52 1913.23,2289.84 1934.86,2287.79 1956.31,2284.39 1977.51,2279.66 1998.37,2273.6 2018.81,2266.24 2038.74,2257.61 2058.1,2247.75 2076.79,2236.69 2094.76,2224.48 2111.92,2211.17 2128.21,2196.81 2143.57,2181.45 2157.94,2165.15 2171.25,2147.99 2183.46,2130.03 2194.52,2111.33 2204.38,2091.98 2213,2072.04 2220.36,2051.6 2226.42,2030.74 2231.16,2009.55 2234.56,1988.09 2236.6,1966.47 2237.28,1944.76 "/>
<polyline clip-path="url(#clip791)" style="stroke:#000000; stroke-linecap:round; stroke-linejoin:round; stroke-width:8; stroke-opacity:1; fill:none" points="508.477,1599 508.477,907.472 "/>
<polyline clip-path="url(#clip791)" style="stroke:#000000; stroke-linecap:round; stroke-linejoin:round; stroke-width:8; stroke-opacity:1; fill:none" points="490.477,943.472 508.477,907.472 526.477,943.472 "/>
<polyline clip-path="url(#clip791)" style="stroke:#000000; stroke-linecap:round; stroke-linejoin:round; stroke-width:8; stroke-opacity:1; fill:none" points="508.477,907.472 508.477,1599 "/>
<polyline clip-path="url(#clip791)" style="stroke:#000000; stroke-linecap:round; stroke-linejoin:round; stroke-width:8; stroke-opacity:1; fill:none" points="854.238,561.711 1545.76,561.711 "/>
<polyline clip-path="url(#clip791)" style="stroke:#000000; stroke-linecap:round; stroke-linejoin:round; stroke-width:8; stroke-opacity:1; fill:none" points="1509.76,543.711 1545.76,561.711 1509.76,579.711 "/>
<polyline clip-path="url(#clip791)" style="stroke:#000000; stroke-linecap:round; stroke-linejoin:round; stroke-width:8; stroke-opacity:1; fill:none" points="1545.76,561.711 854.238,561.711 "/>
<polyline clip-path="url(#clip791)" style="stroke:#000000; stroke-linecap:round; stroke-linejoin:round; stroke-width:8; stroke-opacity:1; fill:none" points="1647.03,806.201 752.967,1700.27 "/>
<polyline clip-path="url(#clip791)" style="stroke:#000000; stroke-linecap:round; stroke-linejoin:round; stroke-width:8; stroke-opacity:1; fill:none" points="791.151,1687.54 752.967,1700.27 765.695,1662.08 "/>
<polyline clip-path="url(#clip791)" style="stroke:#000000; stroke-linecap:round; stroke-linejoin:round; stroke-width:8; stroke-opacity:1; fill:none" points="752.967,1700.27 1647.03,806.201 "/>
<polyline clip-path="url(#clip791)" style="stroke:#000000; stroke-linecap:round; stroke-linejoin:round; stroke-width:8; stroke-opacity:1; fill:none" points="1545.76,1944.76 854.238,1944.76 "/>
<polyline clip-path="url(#clip791)" style="stroke:#000000; stroke-linecap:round; stroke-linejoin:round; stroke-width:8; stroke-opacity:1; fill:none" points="890.238,1962.76 854.238,1944.76 890.238,1926.76 "/>
<polyline clip-path="url(#clip791)" style="stroke:#000000; stroke-linecap:round; stroke-linejoin:round; stroke-width:8; stroke-opacity:1; fill:none" points="854.238,1944.76 1545.76,1944.76 "/>
<polyline clip-path="url(#clip791)" style="stroke:#000000; stroke-linecap:round; stroke-linejoin:round; stroke-width:8; stroke-opacity:1; fill:none" points="1891.52,907.472 1891.52,1599 "/>
<polyline clip-path="url(#clip791)" style="stroke:#000000; stroke-linecap:round; stroke-linejoin:round; stroke-width:8; stroke-opacity:1; fill:none" points="1909.52,1563 1891.52,1599 1873.52,1563 "/>
<polyline clip-path="url(#clip791)" style="stroke:#000000; stroke-linecap:round; stroke-linejoin:round; stroke-width:8; stroke-opacity:1; fill:none" points="1891.52,1599 1891.52,907.472 "/>
<circle clip-path="url(#clip791)" cx="1735.93" cy="717.304" r="14.4" fill="#8e971d" fill-rule="evenodd" fill-opacity="1" stroke="none"/>
<circle clip-path="url(#clip791)" cx="1770.51" cy="717.304" r="14.4" fill="#8e971d" fill-rule="evenodd" fill-opacity="1" stroke="none"/>
<circle clip-path="url(#clip791)" cx="1805.08" cy="717.304" r="14.4" fill="#8e971d" fill-rule="evenodd" fill-opacity="1" stroke="none"/>
<circle clip-path="url(#clip791)" cx="1839.66" cy="717.304" r="14.4" fill="#8e971d" fill-rule="evenodd" fill-opacity="1" stroke="none"/>
<circle clip-path="url(#clip791)" cx="1874.24" cy="717.304" r="14.4" fill="#8e971d" fill-rule="evenodd" fill-opacity="1" stroke="none"/>
<circle clip-path="url(#clip791)" cx="1908.81" cy="717.304" r="14.4" fill="#8e971d" fill-rule="evenodd" fill-opacity="1" stroke="none"/>
<circle clip-path="url(#clip791)" cx="1943.39" cy="717.304" r="14.4" fill="#8e971d" fill-rule="evenodd" fill-opacity="1" stroke="none"/>
<circle clip-path="url(#clip791)" cx="1977.96" cy="717.304" r="14.4" fill="#8e971d" fill-rule="evenodd" fill-opacity="1" stroke="none"/>
<circle clip-path="url(#clip791)" cx="2012.54" cy="717.304" r="14.4" fill="#8e971d" fill-rule="evenodd" fill-opacity="1" stroke="none"/>
<circle clip-path="url(#clip791)" cx="2047.12" cy="717.304" r="14.4" fill="#8e971d" fill-rule="evenodd" fill-opacity="1" stroke="none"/>
<circle clip-path="url(#clip791)" cx="1735.93" cy="682.727" r="14.4" fill="#8e971d" fill-rule="evenodd" fill-opacity="1" stroke="none"/>
<circle clip-path="url(#clip791)" cx="1770.51" cy="682.727" r="14.4" fill="#8e971d" fill-rule="evenodd" fill-opacity="1" stroke="none"/>
<circle clip-path="url(#clip791)" cx="1805.08" cy="682.727" r="14.4" fill="#8e971d" fill-rule="evenodd" fill-opacity="1" stroke="none"/>
<circle clip-path="url(#clip791)" cx="1839.66" cy="682.727" r="14.4" fill="#8e971d" fill-rule="evenodd" fill-opacity="1" stroke="none"/>
<circle clip-path="url(#clip791)" cx="1874.24" cy="682.727" r="14.4" fill="#8e971d" fill-rule="evenodd" fill-opacity="1" stroke="none"/>
<circle clip-path="url(#clip791)" cx="1908.81" cy="682.727" r="14.4" fill="#8e971d" fill-rule="evenodd" fill-opacity="1" stroke="none"/>
<circle clip-path="url(#clip791)" cx="1943.39" cy="682.727" r="14.4" fill="#8e971d" fill-rule="evenodd" fill-opacity="1" stroke="none"/>
<circle clip-path="url(#clip791)" cx="1977.96" cy="682.727" r="14.4" fill="#8e971d" fill-rule="evenodd" fill-opacity="1" stroke="none"/>
<circle clip-path="url(#clip791)" cx="2012.54" cy="682.727" r="14.4" fill="#8e971d" fill-rule="evenodd" fill-opacity="1" stroke="none"/>
<circle clip-path="url(#clip791)" cx="2047.12" cy="682.727" r="14.4" fill="#8e971d" fill-rule="evenodd" fill-opacity="1" stroke="none"/>
<circle clip-path="url(#clip791)" cx="1735.93" cy="648.151" r="14.4" fill="#8e971d" fill-rule="evenodd" fill-opacity="1" stroke="none"/>
<circle clip-path="url(#clip791)" cx="1770.51" cy="648.151" r="14.4" fill="#8e971d" fill-rule="evenodd" fill-opacity="1" stroke="none"/>
<circle clip-path="url(#clip791)" cx="1805.08" cy="648.151" r="14.4" fill="#8e971d" fill-rule="evenodd" fill-opacity="1" stroke="none"/>
<circle clip-path="url(#clip791)" cx="1839.66" cy="648.151" r="14.4" fill="#8e971d" fill-rule="evenodd" fill-opacity="1" stroke="none"/>
<circle clip-path="url(#clip791)" cx="1874.24" cy="648.151" r="14.4" fill="#8e971d" fill-rule="evenodd" fill-opacity="1" stroke="none"/>
<circle clip-path="url(#clip791)" cx="1908.81" cy="648.151" r="14.4" fill="#8e971d" fill-rule="evenodd" fill-opacity="1" stroke="none"/>
<circle clip-path="url(#clip791)" cx="1943.39" cy="648.151" r="14.4" fill="#8e971d" fill-rule="evenodd" fill-opacity="1" stroke="none"/>
<circle clip-path="url(#clip791)" cx="1977.96" cy="648.151" r="14.4" fill="#8e971d" fill-rule="evenodd" fill-opacity="1" stroke="none"/>
<circle clip-path="url(#clip791)" cx="2012.54" cy="648.151" r="14.4" fill="#8e971d" fill-rule="evenodd" fill-opacity="1" stroke="none"/>
<circle clip-path="url(#clip791)" cx="2047.12" cy="648.151" r="14.4" fill="#8e971d" fill-rule="evenodd" fill-opacity="1" stroke="none"/>
<circle clip-path="url(#clip791)" cx="1735.93" cy="613.575" r="14.4" fill="#8e971d" fill-rule="evenodd" fill-opacity="1" stroke="none"/>
<circle clip-path="url(#clip791)" cx="1770.51" cy="613.575" r="14.4" fill="#8e971d" fill-rule="evenodd" fill-opacity="1" stroke="none"/>
<circle clip-path="url(#clip791)" cx="1805.08" cy="613.575" r="14.4" fill="#8e971d" fill-rule="evenodd" fill-opacity="1" stroke="none"/>
<circle clip-path="url(#clip791)" cx="1839.66" cy="613.575" r="14.4" fill="#8e971d" fill-rule="evenodd" fill-opacity="1" stroke="none"/>
<circle clip-path="url(#clip791)" cx="1874.24" cy="613.575" r="14.4" fill="#8e971d" fill-rule="evenodd" fill-opacity="1" stroke="none"/>
<circle clip-path="url(#clip791)" cx="1908.81" cy="613.575" r="14.4" fill="#8e971d" fill-rule="evenodd" fill-opacity="1" stroke="none"/>
<circle clip-path="url(#clip791)" cx="1943.39" cy="613.575" r="14.4" fill="#8e971d" fill-rule="evenodd" fill-opacity="1" stroke="none"/>
<circle clip-path="url(#clip791)" cx="1977.96" cy="613.575" r="14.4" fill="#8e971d" fill-rule="evenodd" fill-opacity="1" stroke="none"/>
<circle clip-path="url(#clip791)" cx="2012.54" cy="613.575" r="14.4" fill="#8e971d" fill-rule="evenodd" fill-opacity="1" stroke="none"/>
<circle clip-path="url(#clip791)" cx="2047.12" cy="613.575" r="14.4" fill="#8e971d" fill-rule="evenodd" fill-opacity="1" stroke="none"/>
<circle clip-path="url(#clip791)" cx="1735.93" cy="578.999" r="14.4" fill="#8e971d" fill-rule="evenodd" fill-opacity="1" stroke="none"/>
<circle clip-path="url(#clip791)" cx="1770.51" cy="578.999" r="14.4" fill="#8e971d" fill-rule="evenodd" fill-opacity="1" stroke="none"/>
<circle clip-path="url(#clip791)" cx="1805.08" cy="578.999" r="14.4" fill="#8e971d" fill-rule="evenodd" fill-opacity="1" stroke="none"/>
<circle clip-path="url(#clip791)" cx="1839.66" cy="578.999" r="14.4" fill="#8e971d" fill-rule="evenodd" fill-opacity="1" stroke="none"/>
<circle clip-path="url(#clip791)" cx="1874.24" cy="578.999" r="14.4" fill="#8e971d" fill-rule="evenodd" fill-opacity="1" stroke="none"/>
<circle clip-path="url(#clip791)" cx="1908.81" cy="578.999" r="14.4" fill="#8e971d" fill-rule="evenodd" fill-opacity="1" stroke="none"/>
<circle clip-path="url(#clip791)" cx="1943.39" cy="578.999" r="14.4" fill="#8e971d" fill-rule="evenodd" fill-opacity="1" stroke="none"/>
<circle clip-path="url(#clip791)" cx="1977.96" cy="578.999" r="14.4" fill="#8e971d" fill-rule="evenodd" fill-opacity="1" stroke="none"/>
<circle clip-path="url(#clip791)" cx="2012.54" cy="578.999" r="14.4" fill="#8e971d" fill-rule="evenodd" fill-opacity="1" stroke="none"/>
<circle clip-path="url(#clip791)" cx="2047.12" cy="578.999" r="14.4" fill="#8e971d" fill-rule="evenodd" fill-opacity="1" stroke="none"/>
<circle clip-path="url(#clip791)" cx="1735.93" cy="544.423" r="14.4" fill="#8e971d" fill-rule="evenodd" fill-opacity="1" stroke="none"/>
<circle clip-path="url(#clip791)" cx="1770.51" cy="544.423" r="14.4" fill="#8e971d" fill-rule="evenodd" fill-opacity="1" stroke="none"/>
<circle clip-path="url(#clip791)" cx="1805.08" cy="544.423" r="14.4" fill="#8e971d" fill-rule="evenodd" fill-opacity="1" stroke="none"/>
<circle clip-path="url(#clip791)" cx="1839.66" cy="544.423" r="14.4" fill="#8e971d" fill-rule="evenodd" fill-opacity="1" stroke="none"/>
<circle clip-path="url(#clip791)" cx="1874.24" cy="544.423" r="14.4" fill="#8e971d" fill-rule="evenodd" fill-opacity="1" stroke="none"/>
<circle clip-path="url(#clip791)" cx="1908.81" cy="544.423" r="14.4" fill="#8e971d" fill-rule="evenodd" fill-opacity="1" stroke="none"/>
<circle clip-path="url(#clip791)" cx="1943.39" cy="544.423" r="14.4" fill="#8e971d" fill-rule="evenodd" fill-opacity="1" stroke="none"/>
<circle clip-path="url(#clip791)" cx="1977.96" cy="544.423" r="14.4" fill="#8e971d" fill-rule="evenodd" fill-opacity="1" stroke="none"/>
<circle clip-path="url(#clip791)" cx="2012.54" cy="544.423" r="14.4" fill="#8e971d" fill-rule="evenodd" fill-opacity="1" stroke="none"/>
<circle clip-path="url(#clip791)" cx="2047.12" cy="544.423" r="14.4" fill="#8e971d" fill-rule="evenodd" fill-opacity="1" stroke="none"/>
<circle clip-path="url(#clip791)" cx="1735.93" cy="509.847" r="14.4" fill="#8e971d" fill-rule="evenodd" fill-opacity="1" stroke="none"/>
<circle clip-path="url(#clip791)" cx="1770.51" cy="509.847" r="14.4" fill="#8e971d" fill-rule="evenodd" fill-opacity="1" stroke="none"/>
<circle clip-path="url(#clip791)" cx="1805.08" cy="509.847" r="14.4" fill="#8e971d" fill-rule="evenodd" fill-opacity="1" stroke="none"/>
<circle clip-path="url(#clip791)" cx="1839.66" cy="509.847" r="14.4" fill="#8e971d" fill-rule="evenodd" fill-opacity="1" stroke="none"/>
<circle clip-path="url(#clip791)" cx="1874.24" cy="509.847" r="14.4" fill="#8e971d" fill-rule="evenodd" fill-opacity="1" stroke="none"/>
<circle clip-path="url(#clip791)" cx="1908.81" cy="509.847" r="14.4" fill="#8e971d" fill-rule="evenodd" fill-opacity="1" stroke="none"/>
<circle clip-path="url(#clip791)" cx="1943.39" cy="509.847" r="14.4" fill="#8e971d" fill-rule="evenodd" fill-opacity="1" stroke="none"/>
<circle clip-path="url(#clip791)" cx="1977.96" cy="509.847" r="14.4" fill="#8e971d" fill-rule="evenodd" fill-opacity="1" stroke="none"/>
<circle clip-path="url(#clip791)" cx="2012.54" cy="509.847" r="14.4" fill="#8e971d" fill-rule="evenodd" fill-opacity="1" stroke="none"/>
<circle clip-path="url(#clip791)" cx="2047.12" cy="509.847" r="14.4" fill="#8e971d" fill-rule="evenodd" fill-opacity="1" stroke="none"/>
<circle clip-path="url(#clip791)" cx="1735.93" cy="475.27" r="14.4" fill="#8e971d" fill-rule="evenodd" fill-opacity="1" stroke="none"/>
<circle clip-path="url(#clip791)" cx="1770.51" cy="475.27" r="14.4" fill="#8e971d" fill-rule="evenodd" fill-opacity="1" stroke="none"/>
<circle clip-path="url(#clip791)" cx="1805.08" cy="475.27" r="14.4" fill="#8e971d" fill-rule="evenodd" fill-opacity="1" stroke="none"/>
<circle clip-path="url(#clip791)" cx="1839.66" cy="475.27" r="14.4" fill="#8e971d" fill-rule="evenodd" fill-opacity="1" stroke="none"/>
<circle clip-path="url(#clip791)" cx="1874.24" cy="475.27" r="14.4" fill="#8e971d" fill-rule="evenodd" fill-opacity="1" stroke="none"/>
<circle clip-path="url(#clip791)" cx="1908.81" cy="475.27" r="14.4" fill="#8e971d" fill-rule="evenodd" fill-opacity="1" stroke="none"/>
<circle clip-path="url(#clip791)" cx="1943.39" cy="475.27" r="14.4" fill="#8e971d" fill-rule="evenodd" fill-opacity="1" stroke="none"/>
<circle clip-path="url(#clip791)" cx="1977.96" cy="475.27" r="14.4" fill="#8e971d" fill-rule="evenodd" fill-opacity="1" stroke="none"/>
<circle clip-path="url(#clip791)" cx="2012.54" cy="475.27" r="14.4" fill="#8e971d" fill-rule="evenodd" fill-opacity="1" stroke="none"/>
<circle clip-path="url(#clip791)" cx="2047.12" cy="475.27" r="14.4" fill="#8e971d" fill-rule="evenodd" fill-opacity="1" stroke="none"/>
<circle clip-path="url(#clip791)" cx="1735.93" cy="440.694" r="14.4" fill="#8e971d" fill-rule="evenodd" fill-opacity="1" stroke="none"/>
<circle clip-path="url(#clip791)" cx="1770.51" cy="440.694" r="14.4" fill="#8e971d" fill-rule="evenodd" fill-opacity="1" stroke="none"/>
<circle clip-path="url(#clip791)" cx="1805.08" cy="440.694" r="14.4" fill="#8e971d" fill-rule="evenodd" fill-opacity="1" stroke="none"/>
<circle clip-path="url(#clip791)" cx="1839.66" cy="440.694" r="14.4" fill="#8e971d" fill-rule="evenodd" fill-opacity="1" stroke="none"/>
<circle clip-path="url(#clip791)" cx="1874.24" cy="440.694" r="14.4" fill="#8e971d" fill-rule="evenodd" fill-opacity="1" stroke="none"/>
<circle clip-path="url(#clip791)" cx="1908.81" cy="440.694" r="14.4" fill="#8e971d" fill-rule="evenodd" fill-opacity="1" stroke="none"/>
<circle clip-path="url(#clip791)" cx="1943.39" cy="440.694" r="14.4" fill="#8e971d" fill-rule="evenodd" fill-opacity="1" stroke="none"/>
<circle clip-path="url(#clip791)" cx="1977.96" cy="440.694" r="14.4" fill="#8e971d" fill-rule="evenodd" fill-opacity="1" stroke="none"/>
<circle clip-path="url(#clip791)" cx="2012.54" cy="440.694" r="14.4" fill="#8e971d" fill-rule="evenodd" fill-opacity="1" stroke="none"/>
<circle clip-path="url(#clip791)" cx="2047.12" cy="440.694" r="14.4" fill="#8e971d" fill-rule="evenodd" fill-opacity="1" stroke="none"/>
<circle clip-path="url(#clip791)" cx="1735.93" cy="406.118" r="14.4" fill="#8e971d" fill-rule="evenodd" fill-opacity="1" stroke="none"/>
<circle clip-path="url(#clip791)" cx="1770.51" cy="406.118" r="14.4" fill="#8e971d" fill-rule="evenodd" fill-opacity="1" stroke="none"/>
<circle clip-path="url(#clip791)" cx="1805.08" cy="406.118" r="14.4" fill="#8e971d" fill-rule="evenodd" fill-opacity="1" stroke="none"/>
<circle clip-path="url(#clip791)" cx="1839.66" cy="406.118" r="14.4" fill="#8e971d" fill-rule="evenodd" fill-opacity="1" stroke="none"/>
<circle clip-path="url(#clip791)" cx="1874.24" cy="406.118" r="14.4" fill="#8e971d" fill-rule="evenodd" fill-opacity="1" stroke="none"/>
<circle clip-path="url(#clip791)" cx="1908.81" cy="406.118" r="14.4" fill="#8e971d" fill-rule="evenodd" fill-opacity="1" stroke="none"/>
<circle clip-path="url(#clip791)" cx="1943.39" cy="406.118" r="14.4" fill="#8e971d" fill-rule="evenodd" fill-opacity="1" stroke="none"/>
<circle clip-path="url(#clip791)" cx="1977.96" cy="406.118" r="14.4" fill="#8e971d" fill-rule="evenodd" fill-opacity="1" stroke="none"/>
<circle clip-path="url(#clip791)" cx="2012.54" cy="406.118" r="14.4" fill="#8e971d" fill-rule="evenodd" fill-opacity="1" stroke="none"/>
<circle clip-path="url(#clip791)" cx="2047.12" cy="406.118" r="14.4" fill="#8e971d" fill-rule="evenodd" fill-opacity="1" stroke="none"/>
<path clip-path="url(#clip790)" d="M491.645 343.031 L505.013 343.031 L505.013 296.891 L490.471 299.808 L490.471 292.354 L504.932 289.438 L513.115 289.438 L513.115 343.031 L526.483 343.031 L526.483 349.918 L491.645 349.918 L491.645 343.031 Z" fill="#ff0000" fill-rule="nonzero" fill-opacity="1" /><path clip-path="url(#clip790)" d="M1882.17 343.031 L1910.72 343.031 L1910.72 349.918 L1872.32 349.918 L1872.32 343.031 Q1876.98 338.211 1885 330.109 Q1893.06 321.966 1895.13 319.617 Q1899.06 315.201 1900.6 312.163 Q1902.18 309.085 1902.18 306.127 Q1902.18 301.307 1898.77 298.269 Q1895.41 295.23 1889.98 295.23 Q1886.14 295.23 1881.84 296.567 Q1877.59 297.904 1872.73 300.618 L1872.73 292.354 Q1877.67 290.369 1881.96 289.357 Q1886.26 288.344 1889.82 288.344 Q1899.22 288.344 1904.81 293.043 Q1910.4 297.742 1910.4 305.601 Q1910.4 309.328 1908.98 312.69 Q1907.61 316.012 1903.92 320.549 Q1902.91 321.723 1897.48 327.354 Q1892.05 332.944 1882.17 343.031 Z" fill="#008000" fill-rule="nonzero" fill-opacity="1" /><path clip-path="url(#clip790)" d="M515.91 1700.35 Q521.784 1701.61 525.065 1705.58 Q528.387 1709.55 528.387 1715.38 Q528.387 1724.34 522.23 1729.24 Q516.072 1734.14 504.73 1734.14 Q500.922 1734.14 496.871 1733.37 Q492.861 1732.64 488.567 1731.14 L488.567 1723.24 Q491.969 1725.23 496.02 1726.24 Q500.071 1727.25 504.487 1727.25 Q512.183 1727.25 516.194 1724.21 Q520.245 1721.18 520.245 1715.38 Q520.245 1710.04 516.477 1707.04 Q512.751 1704 506.067 1704 L499.018 1704 L499.018 1697.28 L506.391 1697.28 Q512.426 1697.28 515.627 1694.89 Q518.827 1692.46 518.827 1687.92 Q518.827 1683.26 515.505 1680.79 Q512.224 1678.28 506.067 1678.28 Q502.704 1678.28 498.856 1679.01 Q495.008 1679.74 490.39 1681.27 L490.39 1673.98 Q495.048 1672.69 499.099 1672.04 Q503.19 1671.39 506.796 1671.39 Q516.113 1671.39 521.541 1675.64 Q526.969 1679.86 526.969 1687.07 Q526.969 1692.09 524.093 1695.57 Q521.217 1699.02 515.91 1700.35 Z" fill="#0000ff" fill-rule="nonzero" fill-opacity="1" /><path clip-path="url(#clip790)" d="M1896.79 1679.61 L1876.13 1711.9 L1896.79 1711.9 L1896.79 1679.61 M1894.64 1672.48 L1904.93 1672.48 L1904.93 1711.9 L1913.56 1711.9 L1913.56 1718.7 L1904.93 1718.7 L1904.93 1732.96 L1896.79 1732.96 L1896.79 1718.7 L1869.49 1718.7 L1869.49 1710.81 L1894.64 1672.48 Z" fill="#800080" fill-rule="nonzero" fill-opacity="1" /><path clip-path="url(#clip790)" d="M282.22 1274.92 L294.633 1274.92 L294.633 1232.08 L281.129 1234.78 L281.129 1227.86 L294.557 1225.15 L302.156 1225.15 L302.156 1274.92 L314.569 1274.92 L314.569 1281.31 L282.22 1281.31 L282.22 1274.92 Z" fill="#000000" fill-rule="nonzero" fill-opacity="1" /><path clip-path="url(#clip790)" d="M329.916 1271.76 L337.853 1271.76 L337.853 1281.31 L329.916 1281.31 L329.916 1271.76 Z" fill="#000000" fill-rule="nonzero" fill-opacity="1" /><path clip-path="url(#clip790)" d="M370.654 1230.16 Q364.786 1230.16 361.814 1235.95 Q358.88 1241.7 358.88 1253.29 Q358.88 1264.84 361.814 1270.63 Q364.786 1276.39 370.654 1276.39 Q376.559 1276.39 379.493 1270.63 Q382.465 1264.84 382.465 1253.29 Q382.465 1241.7 379.493 1235.95 Q376.559 1230.16 370.654 1230.16 M370.654 1224.14 Q380.095 1224.14 385.06 1231.62 Q390.063 1239.07 390.063 1253.29 Q390.063 1267.47 385.06 1274.96 Q380.095 1282.4 370.654 1282.4 Q361.212 1282.4 356.209 1274.96 Q351.244 1267.47 351.244 1253.29 Q351.244 1239.07 356.209 1231.62 Q361.212 1224.14 370.654 1224.14 Z" fill="#000000" fill-rule="nonzero" fill-opacity="1" /><path clip-path="url(#clip790)" d="M1146.62 410.515 L1159.04 410.515 L1159.04 367.671 L1145.53 370.38 L1145.53 363.458 L1158.96 360.75 L1166.56 360.75 L1166.56 410.515 L1178.97 410.515 L1178.97 416.91 L1146.62 416.91 L1146.62 410.515 Z" fill="#000000" fill-rule="nonzero" fill-opacity="1" /><path clip-path="url(#clip790)" d="M1194.32 407.356 L1202.26 407.356 L1202.26 416.91 L1194.32 416.91 L1194.32 407.356 Z" fill="#000000" fill-rule="nonzero" fill-opacity="1" /><path clip-path="url(#clip790)" d="M1235.06 365.753 Q1229.19 365.753 1226.22 371.546 Q1223.28 377.301 1223.28 388.886 Q1223.28 400.434 1226.22 406.227 Q1229.19 411.982 1235.06 411.982 Q1240.96 411.982 1243.9 406.227 Q1246.87 400.434 1246.87 388.886 Q1246.87 377.301 1243.9 371.546 Q1240.96 365.753 1235.06 365.753 M1235.06 359.734 Q1244.5 359.734 1249.46 367.22 Q1254.47 374.668 1254.47 388.886 Q1254.47 403.067 1249.46 410.553 Q1244.5 418.001 1235.06 418.001 Q1225.62 418.001 1220.61 410.553 Q1215.65 403.067 1215.65 388.886 Q1215.65 374.668 1220.61 367.22 Q1225.62 359.734 1235.06 359.734 Z" fill="#000000" fill-rule="nonzero" fill-opacity="1" /><path clip-path="url(#clip790)" d="M1285.36 1352.4 Q1279.5 1352.4 1276.52 1358.19 Q1273.59 1363.95 1273.59 1375.54 Q1273.59 1387.08 1276.52 1392.88 Q1279.5 1398.63 1285.36 1398.63 Q1291.27 1398.63 1294.2 1392.88 Q1297.17 1387.08 1297.17 1375.54 Q1297.17 1363.95 1294.2 1358.19 Q1291.27 1352.4 1285.36 1352.4 M1285.36 1346.38 Q1294.8 1346.38 1299.77 1353.87 Q1304.77 1361.32 1304.77 1375.54 Q1304.77 1389.72 1299.77 1397.2 Q1294.8 1404.65 1285.36 1404.65 Q1275.92 1404.65 1270.92 1397.2 Q1265.95 1389.72 1265.95 1375.54 Q1265.95 1361.32 1270.92 1353.87 Q1275.92 1346.38 1285.36 1346.38 Z" fill="#000000" fill-rule="nonzero" fill-opacity="1" /><path clip-path="url(#clip790)" d="M1318.13 1394 L1326.06 1394 L1326.06 1403.56 L1318.13 1403.56 L1318.13 1394 Z" fill="#000000" fill-rule="nonzero" fill-opacity="1" /><path clip-path="url(#clip790)" d="M1359.8 1372.45 Q1354.69 1372.45 1351.68 1375.95 Q1348.71 1379.45 1348.71 1385.54 Q1348.71 1391.6 1351.68 1395.13 Q1354.69 1398.63 1359.8 1398.63 Q1364.92 1398.63 1367.89 1395.13 Q1370.9 1391.6 1370.9 1385.54 Q1370.9 1379.45 1367.89 1375.95 Q1364.92 1372.45 1359.8 1372.45 M1374.89 1348.64 L1374.89 1355.56 Q1372.03 1354.21 1369.1 1353.49 Q1366.2 1352.78 1363.34 1352.78 Q1355.82 1352.78 1351.83 1357.86 Q1347.88 1362.93 1347.32 1373.2 Q1349.54 1369.93 1352.88 1368.2 Q1356.23 1366.43 1360.26 1366.43 Q1368.72 1366.43 1373.61 1371.59 Q1378.54 1376.7 1378.54 1385.54 Q1378.54 1394.19 1373.42 1399.42 Q1368.31 1404.65 1359.8 1404.65 Q1350.06 1404.65 1344.91 1397.2 Q1339.76 1389.72 1339.76 1375.54 Q1339.76 1362.22 1346.07 1354.32 Q1352.39 1346.38 1363.04 1346.38 Q1365.9 1346.38 1368.79 1346.95 Q1371.73 1347.51 1374.89 1348.64 Z" fill="#000000" fill-rule="nonzero" fill-opacity="1" /><path clip-path="url(#clip790)" d="M1146.62 2139.32 L1159.04 2139.32 L1159.04 2096.48 L1145.53 2099.19 L1145.53 2092.27 L1158.96 2089.56 L1166.56 2089.56 L1166.56 2139.32 L1178.97 2139.32 L1178.97 2145.72 L1146.62 2145.72 L1146.62 2139.32 Z" fill="#000000" fill-rule="nonzero" fill-opacity="1" /><path clip-path="url(#clip790)" d="M1194.32 2136.16 L1202.26 2136.16 L1202.26 2145.72 L1194.32 2145.72 L1194.32 2136.16 Z" fill="#000000" fill-rule="nonzero" fill-opacity="1" /><path clip-path="url(#clip790)" d="M1235.06 2094.56 Q1229.19 2094.56 1226.22 2100.35 Q1223.28 2106.11 1223.28 2117.69 Q1223.28 2129.24 1226.22 2135.04 Q1229.19 2140.79 1235.06 2140.79 Q1240.96 2140.79 1243.9 2135.04 Q1246.87 2129.24 1246.87 2117.69 Q1246.87 2106.11 1243.9 2100.35 Q1240.96 2094.56 1235.06 2094.56 M1235.06 2088.54 Q1244.5 2088.54 1249.46 2096.03 Q1254.47 2103.48 1254.47 2117.69 Q1254.47 2131.88 1249.46 2139.36 Q1244.5 2146.81 1235.06 2146.81 Q1225.62 2146.81 1220.61 2139.36 Q1215.65 2131.88 1215.65 2117.69 Q1215.65 2103.48 1220.61 2096.03 Q1225.62 2088.54 1235.06 2088.54 Z" fill="#000000" fill-rule="nonzero" fill-opacity="1" /><path clip-path="url(#clip790)" d="M2027.26 1230.16 Q2021.39 1230.16 2018.42 1235.95 Q2015.48 1241.7 2015.48 1253.29 Q2015.48 1264.84 2018.42 1270.63 Q2021.39 1276.39 2027.26 1276.39 Q2033.16 1276.39 2036.1 1270.63 Q2039.07 1264.84 2039.07 1253.29 Q2039.07 1241.7 2036.1 1235.95 Q2033.16 1230.16 2027.26 1230.16 M2027.26 1224.14 Q2036.7 1224.14 2041.67 1231.62 Q2046.67 1239.07 2046.67 1253.29 Q2046.67 1267.47 2041.67 1274.96 Q2036.7 1282.4 2027.26 1282.4 Q2017.82 1282.4 2012.81 1274.96 Q2007.85 1267.47 2007.85 1253.29 Q2007.85 1239.07 2012.81 1231.62 Q2017.82 1224.14 2027.26 1224.14 Z" fill="#000000" fill-rule="nonzero" fill-opacity="1" /><path clip-path="url(#clip790)" d="M2060.02 1271.76 L2067.96 1271.76 L2067.96 1281.31 L2060.02 1281.31 L2060.02 1271.76 Z" fill="#000000" fill-rule="nonzero" fill-opacity="1" /><path clip-path="url(#clip790)" d="M2105.39 1231.77 L2086.2 1261.75 L2105.39 1261.75 L2105.39 1231.77 M2103.39 1225.15 L2112.95 1225.15 L2112.95 1261.75 L2120.96 1261.75 L2120.96 1268.07 L2112.95 1268.07 L2112.95 1281.31 L2105.39 1281.31 L2105.39 1268.07 L2080.03 1268.07 L2080.03 1260.74 L2103.39 1225.15 Z" fill="#000000" fill-rule="nonzero" fill-opacity="1" /></svg>
