<?xml version="1.0" encoding="utf-8"?>
<svg xmlns="http://www.w3.org/2000/svg" xmlns:xlink="http://www.w3.org/1999/xlink" width="600" height="400" viewBox="0 0 2400 1600">
<defs>
  <clipPath id="clip710">
    <rect x="0" y="0" width="2400" height="1600"/>
  </clipPath>
</defs>
<path clip-path="url(#clip710)" d="M0 1600 L2400 1600 L2400 0 L0 0  Z" fill="#ffffff" fill-rule="evenodd" fill-opacity="1"/>
<defs>
  <clipPath id="clip711">
    <rect x="258" y="47" width="2096" height="1404"/>
  </clipPath>
</defs>
<path clip-path="url(#clip710)" d="M258.033 1450.74 L2352.76 1450.74 L2352.76 47.2441 L258.033 47.2441  Z" fill="#ffffff" fill-rule="evenodd" fill-opacity="1"/>
<polyline clip-path="url(#clip711)" style="stroke:#000000; stroke-linecap:round; stroke-linejoin:round; stroke-width:2; stroke-opacity:0.1; fill:none" points="523.452,1450.74 523.452,47.2441 "/>
<polyline clip-path="url(#clip711)" style="stroke:#000000; stroke-linecap:round; stroke-linejoin:round; stroke-width:2; stroke-opacity:0.1; fill:none" points="914.423,1450.74 914.423,47.2441 "/>
<polyline clip-path="url(#clip711)" style="stroke:#000000; stroke-linecap:round; stroke-linejoin:round; stroke-width:2; stroke-opacity:0.1; fill:none" points="1305.39,1450.74 1305.39,47.2441 "/>
<polyline clip-path="url(#clip711)" style="stroke:#000000; stroke-linecap:round; stroke-linejoin:round; stroke-width:2; stroke-opacity:0.1; fill:none" points="1696.37,1450.74 1696.37,47.2441 "/>
<polyline clip-path="url(#clip711)" style="stroke:#000000; stroke-linecap:round; stroke-linejoin:round; stroke-width:2; stroke-opacity:0.1; fill:none" points="2087.34,1450.74 2087.34,47.2441 "/>
<polyline clip-path="url(#clip711)" style="stroke:#000000; stroke-linecap:round; stroke-linejoin:round; stroke-width:2; stroke-opacity:0.1; fill:none" points="258.033,1450.74 2352.76,1450.74 "/>
<polyline clip-path="url(#clip711)" style="stroke:#000000; stroke-linecap:round; stroke-linejoin:round; stroke-width:2; stroke-opacity:0.1; fill:none" points="258.033,1042.99 2352.76,1042.99 "/>
<polyline clip-path="url(#clip711)" style="stroke:#000000; stroke-linecap:round; stroke-linejoin:round; stroke-width:2; stroke-opacity:0.1; fill:none" points="258.033,635.229 2352.76,635.229 "/>
<polyline clip-path="url(#clip711)" style="stroke:#000000; stroke-linecap:round; stroke-linejoin:round; stroke-width:2; stroke-opacity:0.1; fill:none" points="258.033,227.473 2352.76,227.473 "/>
<polyline clip-path="url(#clip710)" style="stroke:#000000; stroke-linecap:round; stroke-linejoin:round; stroke-width:4; stroke-opacity:1; fill:none" points="258.033,1450.74 2352.76,1450.74 "/>
<polyline clip-path="url(#clip710)" style="stroke:#000000; stroke-linecap:round; stroke-linejoin:round; stroke-width:4; stroke-opacity:1; fill:none" points="523.452,1450.74 523.452,1431.85 "/>
<polyline clip-path="url(#clip710)" style="stroke:#000000; stroke-linecap:round; stroke-linejoin:round; stroke-width:4; stroke-opacity:1; fill:none" points="914.423,1450.74 914.423,1431.85 "/>
<polyline clip-path="url(#clip710)" style="stroke:#000000; stroke-linecap:round; stroke-linejoin:round; stroke-width:4; stroke-opacity:1; fill:none" points="1305.39,1450.74 1305.39,1431.85 "/>
<polyline clip-path="url(#clip710)" style="stroke:#000000; stroke-linecap:round; stroke-linejoin:round; stroke-width:4; stroke-opacity:1; fill:none" points="1696.37,1450.74 1696.37,1431.85 "/>
<polyline clip-path="url(#clip710)" style="stroke:#000000; stroke-linecap:round; stroke-linejoin:round; stroke-width:4; stroke-opacity:1; fill:none" points="2087.34,1450.74 2087.34,1431.85 "/>
<path clip-path="url(#clip710)" d="M331.154 1532.99 L375.667 1532.99 L375.667 1538.89 L331.154 1538.89 L331.154 1532.99 Z" fill="#000000" fill-rule="nonzero" fill-opacity="1" /><path clip-path="url(#clip710)" d="M392.021 1552.33 L403.48 1552.33 L403.48 1512.78 L391.015 1515.28 L391.015 1508.89 L403.41 1506.39 L410.424 1506.39 L410.424 1552.33 L421.882 1552.33 L421.882 1558.23 L392.021 1558.23 L392.021 1552.33 Z" fill="#000000" fill-rule="nonzero" fill-opacity="1" /><path clip-path="url(#clip710)" d="M436.049 1549.41 L443.375 1549.41 L443.375 1558.23 L436.049 1558.23 L436.049 1549.41 Z" fill="#000000" fill-rule="nonzero" fill-opacity="1" /><path clip-path="url(#clip710)" d="M473.653 1511.01 Q468.236 1511.01 465.493 1516.36 Q462.785 1521.67 462.785 1532.37 Q462.785 1543.02 465.493 1548.37 Q468.236 1553.68 473.653 1553.68 Q479.104 1553.68 481.813 1548.37 Q484.556 1543.02 484.556 1532.37 Q484.556 1521.67 481.813 1516.36 Q479.104 1511.01 473.653 1511.01 M473.653 1505.46 Q482.368 1505.46 486.952 1512.37 Q491.57 1519.24 491.57 1532.37 Q491.57 1545.46 486.952 1552.37 Q482.368 1559.24 473.653 1559.24 Q464.938 1559.24 460.32 1552.37 Q455.736 1545.46 455.736 1532.37 Q455.736 1519.24 460.32 1512.37 Q464.938 1505.46 473.653 1505.46 Z" fill="#000000" fill-rule="nonzero" fill-opacity="1" /><path clip-path="url(#clip710)" d="M546.153 1520.04 L530.285 1535.98 L546.153 1551.84 L542.021 1556.05 L526.083 1540.11 L510.146 1556.05 L506.049 1551.84 L521.882 1535.98 L506.049 1520.04 L510.146 1515.84 L526.083 1531.77 L542.021 1515.84 L546.153 1520.04 Z" fill="#000000" fill-rule="nonzero" fill-opacity="1" /><path clip-path="url(#clip710)" d="M564.694 1552.33 L576.152 1552.33 L576.152 1512.78 L563.687 1515.28 L563.687 1508.89 L576.083 1506.39 L583.097 1506.39 L583.097 1552.33 L594.555 1552.33 L594.555 1558.23 L564.694 1558.23 L564.694 1552.33 Z" fill="#000000" fill-rule="nonzero" fill-opacity="1" /><path clip-path="url(#clip710)" d="M623.722 1511.01 Q618.305 1511.01 615.562 1516.36 Q612.854 1521.67 612.854 1532.37 Q612.854 1543.02 615.562 1548.37 Q618.305 1553.68 623.722 1553.68 Q629.173 1553.68 631.881 1548.37 Q634.624 1543.02 634.624 1532.37 Q634.624 1521.67 631.881 1516.36 Q629.173 1511.01 623.722 1511.01 M623.722 1505.46 Q632.437 1505.46 637.02 1512.37 Q641.638 1519.24 641.638 1532.37 Q641.638 1545.46 637.02 1552.37 Q632.437 1559.24 623.722 1559.24 Q615.006 1559.24 610.388 1552.37 Q605.805 1545.46 605.805 1532.37 Q605.805 1519.24 610.388 1512.37 Q615.006 1505.46 623.722 1505.46 Z" fill="#000000" fill-rule="nonzero" fill-opacity="1" /><path clip-path="url(#clip710)" d="M641.638 1496.61 L677.806 1496.61 L677.806 1501.4 L641.638 1501.4 L641.638 1496.61 Z" fill="#000000" fill-rule="nonzero" fill-opacity="1" /><path clip-path="url(#clip710)" d="M688.667 1475 L715.75 1475 L715.75 1477.42 L700.459 1517.12 L694.507 1517.12 L708.895 1479.79 L688.667 1479.79 L688.667 1475 Z" fill="#000000" fill-rule="nonzero" fill-opacity="1" /><path clip-path="url(#clip710)" d="M721.631 1532.99 L766.145 1532.99 L766.145 1538.89 L721.631 1538.89 L721.631 1532.99 Z" fill="#000000" fill-rule="nonzero" fill-opacity="1" /><path clip-path="url(#clip710)" d="M781.353 1506.39 L808.888 1506.39 L808.888 1512.3 L787.777 1512.3 L787.777 1525 Q789.304 1524.48 790.832 1524.24 Q792.36 1523.96 793.888 1523.96 Q802.568 1523.96 807.638 1528.72 Q812.707 1533.48 812.707 1541.6 Q812.707 1549.97 807.499 1554.62 Q802.291 1559.24 792.811 1559.24 Q789.548 1559.24 786.145 1558.68 Q782.777 1558.13 779.166 1557.02 L779.166 1549.97 Q782.291 1551.67 785.624 1552.5 Q788.957 1553.34 792.673 1553.34 Q798.679 1553.34 802.186 1550.18 Q805.693 1547.02 805.693 1541.6 Q805.693 1536.18 802.186 1533.02 Q798.679 1529.87 792.673 1529.87 Q789.86 1529.87 787.048 1530.49 Q784.27 1531.12 781.353 1532.43 L781.353 1506.39 Z" fill="#000000" fill-rule="nonzero" fill-opacity="1" /><path clip-path="url(#clip710)" d="M826.527 1549.41 L833.853 1549.41 L833.853 1558.23 L826.527 1558.23 L826.527 1549.41 Z" fill="#000000" fill-rule="nonzero" fill-opacity="1" /><path clip-path="url(#clip710)" d="M864.13 1511.01 Q858.714 1511.01 855.971 1516.36 Q853.262 1521.67 853.262 1532.37 Q853.262 1543.02 855.971 1548.37 Q858.714 1553.68 864.13 1553.68 Q869.582 1553.68 872.29 1548.37 Q875.033 1543.02 875.033 1532.37 Q875.033 1521.67 872.29 1516.36 Q869.582 1511.01 864.13 1511.01 M864.13 1505.46 Q872.846 1505.46 877.429 1512.37 Q882.047 1519.24 882.047 1532.37 Q882.047 1545.46 877.429 1552.37 Q872.846 1559.24 864.13 1559.24 Q855.415 1559.24 850.797 1552.37 Q846.214 1545.46 846.214 1532.37 Q846.214 1519.24 850.797 1512.37 Q855.415 1505.46 864.13 1505.46 Z" fill="#000000" fill-rule="nonzero" fill-opacity="1" /><path clip-path="url(#clip710)" d="M936.63 1520.04 L920.762 1535.98 L936.63 1551.84 L932.498 1556.05 L916.561 1540.11 L900.623 1556.05 L896.526 1551.84 L912.359 1535.98 L896.526 1520.04 L900.623 1515.84 L916.561 1531.77 L932.498 1515.84 L936.63 1520.04 Z" fill="#000000" fill-rule="nonzero" fill-opacity="1" /><path clip-path="url(#clip710)" d="M955.172 1552.33 L966.63 1552.33 L966.63 1512.78 L954.165 1515.28 L954.165 1508.89 L966.56 1506.39 L973.574 1506.39 L973.574 1552.33 L985.033 1552.33 L985.033 1558.23 L955.172 1558.23 L955.172 1552.33 Z" fill="#000000" fill-rule="nonzero" fill-opacity="1" /><path clip-path="url(#clip710)" d="M1014.2 1511.01 Q1008.78 1511.01 1006.04 1516.36 Q1003.33 1521.67 1003.33 1532.37 Q1003.33 1543.02 1006.04 1548.37 Q1008.78 1553.68 1014.2 1553.68 Q1019.65 1553.68 1022.36 1548.37 Q1025.1 1543.02 1025.1 1532.37 Q1025.1 1521.67 1022.36 1516.36 Q1019.65 1511.01 1014.2 1511.01 M1014.2 1505.46 Q1022.91 1505.46 1027.5 1512.37 Q1032.12 1519.24 1032.12 1532.37 Q1032.12 1545.46 1027.5 1552.37 Q1022.91 1559.24 1014.2 1559.24 Q1005.48 1559.24 1000.87 1552.37 Q996.283 1545.46 996.283 1532.37 Q996.283 1519.24 1000.87 1512.37 Q1005.48 1505.46 1014.2 1505.46 Z" fill="#000000" fill-rule="nonzero" fill-opacity="1" /><path clip-path="url(#clip710)" d="M1032.12 1496.61 L1068.28 1496.61 L1068.28 1501.4 L1032.12 1501.4 L1032.12 1496.61 Z" fill="#000000" fill-rule="nonzero" fill-opacity="1" /><path clip-path="url(#clip710)" d="M1092.77 1497.12 Q1088.71 1497.12 1086.37 1499.29 Q1084.05 1501.46 1084.05 1505.27 Q1084.05 1509.08 1086.37 1511.25 Q1088.71 1513.42 1092.77 1513.42 Q1096.83 1513.42 1099.17 1511.25 Q1101.52 1509.05 1101.52 1505.27 Q1101.52 1501.46 1099.17 1499.29 Q1096.86 1497.12 1092.77 1497.12 M1087.07 1494.69 Q1083.4 1493.79 1081.35 1491.28 Q1079.31 1488.76 1079.31 1485.15 Q1079.31 1480.1 1082.9 1477.17 Q1086.51 1474.24 1092.77 1474.24 Q1099.06 1474.24 1102.64 1477.17 Q1106.23 1480.1 1106.23 1485.15 Q1106.23 1488.76 1104.17 1491.28 Q1102.14 1493.79 1098.5 1494.69 Q1102.62 1495.65 1104.9 1498.44 Q1107.22 1501.23 1107.22 1505.27 Q1107.22 1511.39 1103.46 1514.66 Q1099.74 1517.94 1092.77 1517.94 Q1085.8 1517.94 1082.05 1514.66 Q1078.33 1511.39 1078.33 1505.27 Q1078.33 1501.23 1080.64 1498.44 Q1082.95 1495.65 1087.07 1494.69 M1084.98 1485.69 Q1084.98 1488.96 1087.02 1490.8 Q1089.08 1492.63 1092.77 1492.63 Q1096.44 1492.63 1098.5 1490.8 Q1100.59 1488.96 1100.59 1485.69 Q1100.59 1482.42 1098.5 1480.58 Q1096.44 1478.75 1092.77 1478.75 Q1089.08 1478.75 1087.02 1480.58 Q1084.98 1482.42 1084.98 1485.69 Z" fill="#000000" fill-rule="nonzero" fill-opacity="1" /><path clip-path="url(#clip710)" d="M1305.39 1487.52 Q1299.98 1487.52 1297.23 1492.87 Q1294.53 1498.18 1294.53 1508.88 Q1294.53 1519.53 1297.23 1524.88 Q1299.98 1530.19 1305.39 1530.19 Q1310.85 1530.19 1313.55 1524.88 Q1316.3 1519.53 1316.3 1508.88 Q1316.3 1498.18 1313.55 1492.87 Q1310.85 1487.52 1305.39 1487.52 M1305.39 1481.97 Q1314.11 1481.97 1318.69 1488.88 Q1323.31 1495.75 1323.31 1508.88 Q1323.31 1521.97 1318.69 1528.88 Q1314.11 1535.75 1305.39 1535.75 Q1296.68 1535.75 1292.06 1528.88 Q1287.48 1521.97 1287.48 1508.88 Q1287.48 1495.75 1292.06 1488.88 Q1296.68 1481.97 1305.39 1481.97 Z" fill="#000000" fill-rule="nonzero" fill-opacity="1" /><path clip-path="url(#clip710)" d="M1534.53 1506.39 L1562.06 1506.39 L1562.06 1512.3 L1540.95 1512.3 L1540.95 1525 Q1542.48 1524.48 1544.01 1524.24 Q1545.54 1523.96 1547.06 1523.96 Q1555.74 1523.96 1560.81 1528.72 Q1565.88 1533.48 1565.88 1541.6 Q1565.88 1549.97 1560.67 1554.62 Q1555.47 1559.24 1545.99 1559.24 Q1542.72 1559.24 1539.32 1558.68 Q1535.95 1558.13 1532.34 1557.02 L1532.34 1549.97 Q1535.47 1551.67 1538.8 1552.5 Q1542.13 1553.34 1545.85 1553.34 Q1551.85 1553.34 1555.36 1550.18 Q1558.87 1547.02 1558.87 1541.6 Q1558.87 1536.18 1555.36 1533.02 Q1551.85 1529.87 1545.85 1529.87 Q1543.04 1529.87 1540.22 1530.49 Q1537.45 1531.12 1534.53 1532.43 L1534.53 1506.39 Z" fill="#000000" fill-rule="nonzero" fill-opacity="1" /><path clip-path="url(#clip710)" d="M1579.7 1549.41 L1587.03 1549.41 L1587.03 1558.23 L1579.7 1558.23 L1579.7 1549.41 Z" fill="#000000" fill-rule="nonzero" fill-opacity="1" /><path clip-path="url(#clip710)" d="M1617.31 1511.01 Q1611.89 1511.01 1609.15 1516.36 Q1606.44 1521.67 1606.44 1532.37 Q1606.44 1543.02 1609.15 1548.37 Q1611.89 1553.68 1617.31 1553.68 Q1622.76 1553.68 1625.47 1548.37 Q1628.21 1543.02 1628.21 1532.37 Q1628.21 1521.67 1625.47 1516.36 Q1622.76 1511.01 1617.31 1511.01 M1617.31 1505.46 Q1626.02 1505.46 1630.6 1512.37 Q1635.22 1519.24 1635.22 1532.37 Q1635.22 1545.46 1630.6 1552.37 Q1626.02 1559.24 1617.31 1559.24 Q1608.59 1559.24 1603.97 1552.37 Q1599.39 1545.46 1599.39 1532.37 Q1599.39 1519.24 1603.97 1512.37 Q1608.59 1505.46 1617.31 1505.46 Z" fill="#000000" fill-rule="nonzero" fill-opacity="1" /><path clip-path="url(#clip710)" d="M1689.81 1520.04 L1673.94 1535.98 L1689.81 1551.84 L1685.67 1556.05 L1669.74 1540.11 L1653.8 1556.05 L1649.7 1551.84 L1665.53 1535.98 L1649.7 1520.04 L1653.8 1515.84 L1669.74 1531.77 L1685.67 1515.84 L1689.81 1520.04 Z" fill="#000000" fill-rule="nonzero" fill-opacity="1" /><path clip-path="url(#clip710)" d="M1708.35 1552.33 L1719.81 1552.33 L1719.81 1512.78 L1707.34 1515.28 L1707.34 1508.89 L1719.74 1506.39 L1726.75 1506.39 L1726.75 1552.33 L1738.21 1552.33 L1738.21 1558.23 L1708.35 1558.23 L1708.35 1552.33 Z" fill="#000000" fill-rule="nonzero" fill-opacity="1" /><path clip-path="url(#clip710)" d="M1767.37 1511.01 Q1761.96 1511.01 1759.21 1516.36 Q1756.51 1521.67 1756.51 1532.37 Q1756.51 1543.02 1759.21 1548.37 Q1761.96 1553.68 1767.37 1553.68 Q1772.83 1553.68 1775.53 1548.37 Q1778.28 1543.02 1778.28 1532.37 Q1778.28 1521.67 1775.53 1516.36 Q1772.83 1511.01 1767.37 1511.01 M1767.37 1505.46 Q1776.09 1505.46 1780.67 1512.37 Q1785.29 1519.24 1785.29 1532.37 Q1785.29 1545.46 1780.67 1552.37 Q1776.09 1559.24 1767.37 1559.24 Q1758.66 1559.24 1754.04 1552.37 Q1749.46 1545.46 1749.46 1532.37 Q1749.46 1519.24 1754.04 1512.37 Q1758.66 1505.46 1767.37 1505.46 Z" fill="#000000" fill-rule="nonzero" fill-opacity="1" /><path clip-path="url(#clip710)" d="M1785.29 1496.61 L1821.46 1496.61 L1821.46 1501.4 L1785.29 1501.4 L1785.29 1496.61 Z" fill="#000000" fill-rule="nonzero" fill-opacity="1" /><path clip-path="url(#clip710)" d="M1845.95 1497.12 Q1841.88 1497.12 1839.54 1499.29 Q1837.23 1501.46 1837.23 1505.27 Q1837.23 1509.08 1839.54 1511.25 Q1841.88 1513.42 1845.95 1513.42 Q1850.01 1513.42 1852.35 1511.25 Q1854.69 1509.05 1854.69 1505.27 Q1854.69 1501.46 1852.35 1499.29 Q1850.04 1497.12 1845.95 1497.12 M1840.25 1494.69 Q1836.58 1493.79 1834.52 1491.28 Q1832.49 1488.76 1832.49 1485.15 Q1832.49 1480.1 1836.07 1477.17 Q1839.68 1474.24 1845.95 1474.24 Q1852.24 1474.24 1855.82 1477.17 Q1859.4 1480.1 1859.4 1485.15 Q1859.4 1488.76 1857.34 1491.28 Q1855.31 1493.79 1851.67 1494.69 Q1855.79 1495.65 1858.08 1498.44 Q1860.39 1501.23 1860.39 1505.27 Q1860.39 1511.39 1856.64 1514.66 Q1852.91 1517.94 1845.95 1517.94 Q1838.98 1517.94 1835.23 1514.66 Q1831.5 1511.39 1831.5 1505.27 Q1831.5 1501.23 1833.81 1498.44 Q1836.13 1495.65 1840.25 1494.69 M1838.16 1485.69 Q1838.16 1488.96 1840.19 1490.8 Q1842.25 1492.63 1845.95 1492.63 Q1849.61 1492.63 1851.67 1490.8 Q1853.76 1488.96 1853.76 1485.69 Q1853.76 1482.42 1851.67 1480.58 Q1849.61 1478.75 1845.95 1478.75 Q1842.25 1478.75 1840.19 1480.58 Q1838.16 1482.42 1838.16 1485.69 Z" fill="#000000" fill-rule="nonzero" fill-opacity="1" /><path clip-path="url(#clip710)" d="M1925.98 1552.33 L1937.43 1552.33 L1937.43 1512.78 L1924.97 1515.28 L1924.97 1508.89 L1937.36 1506.39 L1944.38 1506.39 L1944.38 1552.33 L1955.84 1552.33 L1955.84 1558.23 L1925.98 1558.23 L1925.98 1552.33 Z" fill="#000000" fill-rule="nonzero" fill-opacity="1" /><path clip-path="url(#clip710)" d="M1970 1549.41 L1977.33 1549.41 L1977.33 1558.23 L1970 1558.23 L1970 1549.41 Z" fill="#000000" fill-rule="nonzero" fill-opacity="1" /><path clip-path="url(#clip710)" d="M2007.61 1511.01 Q2002.19 1511.01 1999.45 1516.36 Q1996.74 1521.67 1996.74 1532.37 Q1996.74 1543.02 1999.45 1548.37 Q2002.19 1553.68 2007.61 1553.68 Q2013.06 1553.68 2015.77 1548.37 Q2018.51 1543.02 2018.51 1532.37 Q2018.51 1521.67 2015.77 1516.36 Q2013.06 1511.01 2007.61 1511.01 M2007.61 1505.46 Q2016.32 1505.46 2020.91 1512.37 Q2025.52 1519.24 2025.52 1532.37 Q2025.52 1545.46 2020.91 1552.37 Q2016.32 1559.24 2007.61 1559.24 Q1998.89 1559.24 1994.27 1552.37 Q1989.69 1545.46 1989.69 1532.37 Q1989.69 1519.24 1994.27 1512.37 Q1998.89 1505.46 2007.61 1505.46 Z" fill="#000000" fill-rule="nonzero" fill-opacity="1" /><path clip-path="url(#clip710)" d="M2080.11 1520.04 L2064.24 1535.98 L2080.11 1551.84 L2075.98 1556.05 L2060.04 1540.11 L2044.1 1556.05 L2040 1551.84 L2055.84 1535.98 L2040 1520.04 L2044.1 1515.84 L2060.04 1531.77 L2075.98 1515.84 L2080.11 1520.04 Z" fill="#000000" fill-rule="nonzero" fill-opacity="1" /><path clip-path="url(#clip710)" d="M2098.65 1552.33 L2110.11 1552.33 L2110.11 1512.78 L2097.64 1515.28 L2097.64 1508.89 L2110.04 1506.39 L2117.05 1506.39 L2117.05 1552.33 L2128.51 1552.33 L2128.51 1558.23 L2098.65 1558.23 L2098.65 1552.33 Z" fill="#000000" fill-rule="nonzero" fill-opacity="1" /><path clip-path="url(#clip710)" d="M2157.68 1511.01 Q2152.26 1511.01 2149.52 1516.36 Q2146.81 1521.67 2146.81 1532.37 Q2146.81 1543.02 2149.52 1548.37 Q2152.26 1553.68 2157.68 1553.68 Q2163.13 1553.68 2165.84 1548.37 Q2168.58 1543.02 2168.58 1532.37 Q2168.58 1521.67 2165.84 1516.36 Q2163.13 1511.01 2157.68 1511.01 M2157.68 1505.46 Q2166.39 1505.46 2170.97 1512.37 Q2175.59 1519.24 2175.59 1532.37 Q2175.59 1545.46 2170.97 1552.37 Q2166.39 1559.24 2157.68 1559.24 Q2148.96 1559.24 2144.34 1552.37 Q2139.76 1545.46 2139.76 1532.37 Q2139.76 1519.24 2144.34 1512.37 Q2148.96 1505.46 2157.68 1505.46 Z" fill="#000000" fill-rule="nonzero" fill-opacity="1" /><path clip-path="url(#clip710)" d="M2175.59 1496.61 L2211.76 1496.61 L2211.76 1501.4 L2175.59 1501.4 L2175.59 1496.61 Z" fill="#000000" fill-rule="nonzero" fill-opacity="1" /><path clip-path="url(#clip710)" d="M2222.62 1475 L2249.7 1475 L2249.7 1477.42 L2234.41 1517.12 L2228.46 1517.12 L2242.85 1479.79 L2222.62 1479.79 L2222.62 1475 Z" fill="#000000" fill-rule="nonzero" fill-opacity="1" /><polyline clip-path="url(#clip710)" style="stroke:#000000; stroke-linecap:round; stroke-linejoin:round; stroke-width:4; stroke-opacity:1; fill:none" points="258.033,1450.74 258.033,47.2441 "/>
<polyline clip-path="url(#clip710)" style="stroke:#000000; stroke-linecap:round; stroke-linejoin:round; stroke-width:4; stroke-opacity:1; fill:none" points="258.033,1450.74 276.931,1450.74 "/>
<polyline clip-path="url(#clip710)" style="stroke:#000000; stroke-linecap:round; stroke-linejoin:round; stroke-width:4; stroke-opacity:1; fill:none" points="258.033,1042.99 276.931,1042.99 "/>
<polyline clip-path="url(#clip710)" style="stroke:#000000; stroke-linecap:round; stroke-linejoin:round; stroke-width:4; stroke-opacity:1; fill:none" points="258.033,635.229 276.931,635.229 "/>
<polyline clip-path="url(#clip710)" style="stroke:#000000; stroke-linecap:round; stroke-linejoin:round; stroke-width:4; stroke-opacity:1; fill:none" points="258.033,227.473 276.931,227.473 "/>
<path clip-path="url(#clip710)" d="M204.116 1429.44 Q198.7 1429.44 195.957 1434.79 Q193.248 1440.1 193.248 1450.8 Q193.248 1461.45 195.957 1466.8 Q198.7 1472.11 204.116 1472.11 Q209.568 1472.11 212.276 1466.8 Q215.019 1461.45 215.019 1450.8 Q215.019 1440.1 212.276 1434.79 Q209.568 1429.44 204.116 1429.44 M204.116 1423.89 Q212.832 1423.89 217.415 1430.8 Q222.033 1437.67 222.033 1450.8 Q222.033 1463.89 217.415 1470.8 Q212.832 1477.67 204.116 1477.67 Q195.401 1477.67 190.783 1470.8 Q186.2 1463.89 186.2 1450.8 Q186.2 1437.67 190.783 1430.8 Q195.401 1423.89 204.116 1423.89 Z" fill="#000000" fill-rule="nonzero" fill-opacity="1" /><path clip-path="url(#clip710)" d="M54.6032 1063 L66.0615 1063 L66.0615 1023.46 L53.5963 1025.96 L53.5963 1019.57 L65.992 1017.07 L73.0059 1017.07 L73.0059 1063 L84.4642 1063 L84.4642 1068.91 L54.6032 1068.91 L54.6032 1063 Z" fill="#000000" fill-rule="nonzero" fill-opacity="1" /><path clip-path="url(#clip710)" d="M113.631 1021.68 Q108.214 1021.68 105.471 1027.03 Q102.763 1032.34 102.763 1043.04 Q102.763 1053.7 105.471 1059.05 Q108.214 1064.36 113.631 1064.36 Q119.082 1064.36 121.79 1059.05 Q124.533 1053.7 124.533 1043.04 Q124.533 1032.34 121.79 1027.03 Q119.082 1021.68 113.631 1021.68 M113.631 1016.13 Q122.346 1016.13 126.929 1023.04 Q131.547 1029.91 131.547 1043.04 Q131.547 1056.13 126.929 1063.04 Q122.346 1069.91 113.631 1069.91 Q104.915 1069.91 100.297 1063.04 Q95.7141 1056.13 95.7141 1043.04 Q95.7141 1029.91 100.297 1023.04 Q104.915 1016.13 113.631 1016.13 Z" fill="#000000" fill-rule="nonzero" fill-opacity="1" /><path clip-path="url(#clip710)" d="M158.873 1021.68 Q153.457 1021.68 150.714 1027.03 Q148.005 1032.34 148.005 1043.04 Q148.005 1053.7 150.714 1059.05 Q153.457 1064.36 158.873 1064.36 Q164.325 1064.36 167.033 1059.05 Q169.776 1053.7 169.776 1043.04 Q169.776 1032.34 167.033 1027.03 Q164.325 1021.68 158.873 1021.68 M158.873 1016.13 Q167.589 1016.13 172.172 1023.04 Q176.79 1029.91 176.79 1043.04 Q176.79 1056.13 172.172 1063.04 Q167.589 1069.91 158.873 1069.91 Q150.158 1069.91 145.54 1063.04 Q140.957 1056.13 140.957 1043.04 Q140.957 1029.91 145.54 1023.04 Q150.158 1016.13 158.873 1016.13 Z" fill="#000000" fill-rule="nonzero" fill-opacity="1" /><path clip-path="url(#clip710)" d="M204.116 1021.68 Q198.7 1021.68 195.957 1027.03 Q193.248 1032.34 193.248 1043.04 Q193.248 1053.7 195.957 1059.05 Q198.7 1064.36 204.116 1064.36 Q209.568 1064.36 212.276 1059.05 Q215.019 1053.7 215.019 1043.04 Q215.019 1032.34 212.276 1027.03 Q209.568 1021.68 204.116 1021.68 M204.116 1016.13 Q212.832 1016.13 217.415 1023.04 Q222.033 1029.91 222.033 1043.04 Q222.033 1056.13 217.415 1063.04 Q212.832 1069.91 204.116 1069.91 Q195.401 1069.91 190.783 1063.04 Q186.2 1056.13 186.2 1043.04 Q186.2 1029.91 190.783 1023.04 Q195.401 1016.13 204.116 1016.13 Z" fill="#000000" fill-rule="nonzero" fill-opacity="1" /><path clip-path="url(#clip710)" d="M59.4296 655.247 L83.9086 655.247 L83.9086 661.149 L50.9921 661.149 L50.9921 655.247 Q54.9852 651.115 61.8601 644.17 Q68.7698 637.191 70.5406 635.177 Q73.9087 631.393 75.2281 628.788 Q76.5823 626.15 76.5823 623.615 Q76.5823 619.483 73.6656 616.879 Q70.7837 614.275 66.1309 614.275 Q62.8323 614.275 59.1518 615.421 Q55.506 616.566 51.3393 618.893 L51.3393 611.809 Q55.5754 610.108 59.256 609.24 Q62.9365 608.372 65.992 608.372 Q74.0476 608.372 78.8392 612.4 Q83.6308 616.427 83.6308 623.164 Q83.6308 626.358 82.4156 629.24 Q81.235 632.087 78.0753 635.976 Q77.2073 636.983 72.5545 641.809 Q67.9018 646.601 59.4296 655.247 Z" fill="#000000" fill-rule="nonzero" fill-opacity="1" /><path clip-path="url(#clip710)" d="M113.631 613.927 Q108.214 613.927 105.471 619.275 Q102.763 624.587 102.763 635.282 Q102.763 645.941 105.471 651.288 Q108.214 656.601 113.631 656.601 Q119.082 656.601 121.79 651.288 Q124.533 645.941 124.533 635.282 Q124.533 624.587 121.79 619.275 Q119.082 613.927 113.631 613.927 M113.631 608.372 Q122.346 608.372 126.929 615.282 Q131.547 622.157 131.547 635.282 Q131.547 648.372 126.929 655.281 Q122.346 662.156 113.631 662.156 Q104.915 662.156 100.297 655.281 Q95.7141 648.372 95.7141 635.282 Q95.7141 622.157 100.297 615.282 Q104.915 608.372 113.631 608.372 Z" fill="#000000" fill-rule="nonzero" fill-opacity="1" /><path clip-path="url(#clip710)" d="M158.873 613.927 Q153.457 613.927 150.714 619.275 Q148.005 624.587 148.005 635.282 Q148.005 645.941 150.714 651.288 Q153.457 656.601 158.873 656.601 Q164.325 656.601 167.033 651.288 Q169.776 645.941 169.776 635.282 Q169.776 624.587 167.033 619.275 Q164.325 613.927 158.873 613.927 M158.873 608.372 Q167.589 608.372 172.172 615.282 Q176.79 622.157 176.79 635.282 Q176.79 648.372 172.172 655.281 Q167.589 662.156 158.873 662.156 Q150.158 662.156 145.54 655.281 Q140.957 648.372 140.957 635.282 Q140.957 622.157 145.54 615.282 Q150.158 608.372 158.873 608.372 Z" fill="#000000" fill-rule="nonzero" fill-opacity="1" /><path clip-path="url(#clip710)" d="M204.116 613.927 Q198.7 613.927 195.957 619.275 Q193.248 624.587 193.248 635.282 Q193.248 645.941 195.957 651.288 Q198.7 656.601 204.116 656.601 Q209.568 656.601 212.276 651.288 Q215.019 645.941 215.019 635.282 Q215.019 624.587 212.276 619.275 Q209.568 613.927 204.116 613.927 M204.116 608.372 Q212.832 608.372 217.415 615.282 Q222.033 622.157 222.033 635.282 Q222.033 648.372 217.415 655.281 Q212.832 662.156 204.116 662.156 Q195.401 662.156 190.783 655.281 Q186.2 648.372 186.2 635.282 Q186.2 622.157 190.783 615.282 Q195.401 608.372 204.116 608.372 Z" fill="#000000" fill-rule="nonzero" fill-opacity="1" /><path clip-path="url(#clip710)" d="M74.6378 225.441 Q79.6725 226.518 82.485 229.921 Q85.3322 233.323 85.3322 238.323 Q85.3322 245.997 80.0545 250.198 Q74.7767 254.4 65.0546 254.4 Q61.7907 254.4 58.3185 253.74 Q54.881 253.115 51.2005 251.83 L51.2005 245.059 Q54.1171 246.761 57.5893 247.629 Q61.0615 248.497 64.8462 248.497 Q71.4434 248.497 74.8809 245.893 Q78.3531 243.288 78.3531 238.323 Q78.3531 233.74 75.1239 231.171 Q71.9295 228.566 66.2004 228.566 L60.1587 228.566 L60.1587 222.802 L66.4782 222.802 Q71.6517 222.802 74.3948 220.754 Q77.1378 218.671 77.1378 214.782 Q77.1378 210.789 74.2906 208.671 Q71.4781 206.518 66.2004 206.518 Q63.3184 206.518 60.0199 207.143 Q56.7213 207.768 52.7629 209.087 L52.7629 202.837 Q56.756 201.726 60.2282 201.171 Q63.7351 200.615 66.8254 200.615 Q74.8114 200.615 79.4642 204.261 Q84.1169 207.872 84.1169 214.053 Q84.1169 218.358 81.6517 221.344 Q79.1864 224.296 74.6378 225.441 Z" fill="#000000" fill-rule="nonzero" fill-opacity="1" /><path clip-path="url(#clip710)" d="M113.631 206.171 Q108.214 206.171 105.471 211.518 Q102.763 216.83 102.763 227.525 Q102.763 238.184 105.471 243.532 Q108.214 248.844 113.631 248.844 Q119.082 248.844 121.79 243.532 Q124.533 238.184 124.533 227.525 Q124.533 216.83 121.79 211.518 Q119.082 206.171 113.631 206.171 M113.631 200.615 Q122.346 200.615 126.929 207.525 Q131.547 214.4 131.547 227.525 Q131.547 240.615 126.929 247.525 Q122.346 254.4 113.631 254.4 Q104.915 254.4 100.297 247.525 Q95.7141 240.615 95.7141 227.525 Q95.7141 214.4 100.297 207.525 Q104.915 200.615 113.631 200.615 Z" fill="#000000" fill-rule="nonzero" fill-opacity="1" /><path clip-path="url(#clip710)" d="M158.873 206.171 Q153.457 206.171 150.714 211.518 Q148.005 216.83 148.005 227.525 Q148.005 238.184 150.714 243.532 Q153.457 248.844 158.873 248.844 Q164.325 248.844 167.033 243.532 Q169.776 238.184 169.776 227.525 Q169.776 216.83 167.033 211.518 Q164.325 206.171 158.873 206.171 M158.873 200.615 Q167.589 200.615 172.172 207.525 Q176.79 214.4 176.79 227.525 Q176.79 240.615 172.172 247.525 Q167.589 254.4 158.873 254.4 Q150.158 254.4 145.54 247.525 Q140.957 240.615 140.957 227.525 Q140.957 214.4 145.54 207.525 Q150.158 200.615 158.873 200.615 Z" fill="#000000" fill-rule="nonzero" fill-opacity="1" /><path clip-path="url(#clip710)" d="M204.116 206.171 Q198.7 206.171 195.957 211.518 Q193.248 216.83 193.248 227.525 Q193.248 238.184 195.957 243.532 Q198.7 248.844 204.116 248.844 Q209.568 248.844 212.276 243.532 Q215.019 238.184 215.019 227.525 Q215.019 216.83 212.276 211.518 Q209.568 206.171 204.116 206.171 M204.116 200.615 Q212.832 200.615 217.415 207.525 Q222.033 214.4 222.033 227.525 Q222.033 240.615 217.415 247.525 Q212.832 254.4 204.116 254.4 Q195.401 254.4 190.783 247.525 Q186.2 240.615 186.2 227.525 Q186.2 214.4 190.783 207.525 Q195.401 200.615 204.116 200.615 Z" fill="#000000" fill-rule="nonzero" fill-opacity="1" /><path clip-path="url(#clip711)" d="M373.246 1450.74 L373.246 1450.74 L396.55 1450.74 L396.55 1450.74 L373.246 1450.74 L373.246 1450.74  Z" fill="#009af9" fill-rule="evenodd" fill-opacity="1"/>
<polyline clip-path="url(#clip711)" style="stroke:#000000; stroke-linecap:round; stroke-linejoin:round; stroke-width:8; stroke-opacity:1; fill:none" points="373.246,1450.74 373.246,1450.74 396.55,1450.74 373.246,1450.74 "/>
<path clip-path="url(#clip711)" d="M396.55 1450.74 L396.55 1450.74 L419.854 1450.74 L419.854 1450.74 L396.55 1450.74 L396.55 1450.74  Z" fill="#009af9" fill-rule="evenodd" fill-opacity="1"/>
<polyline clip-path="url(#clip711)" style="stroke:#000000; stroke-linecap:round; stroke-linejoin:round; stroke-width:8; stroke-opacity:1; fill:none" points="396.55,1450.74 396.55,1450.74 419.854,1450.74 396.55,1450.74 "/>
<path clip-path="url(#clip711)" d="M419.854 1450.74 L419.854 1450.74 L443.157 1450.74 L443.157 1450.74 L419.854 1450.74 L419.854 1450.74  Z" fill="#009af9" fill-rule="evenodd" fill-opacity="1"/>
<polyline clip-path="url(#clip711)" style="stroke:#000000; stroke-linecap:round; stroke-linejoin:round; stroke-width:8; stroke-opacity:1; fill:none" points="419.854,1450.74 419.854,1450.74 443.157,1450.74 419.854,1450.74 "/>
<path clip-path="url(#clip711)" d="M443.157 1450.74 L443.157 1450.74 L466.461 1450.74 L466.461 1450.74 L443.157 1450.74 L443.157 1450.74  Z" fill="#009af9" fill-rule="evenodd" fill-opacity="1"/>
<polyline clip-path="url(#clip711)" style="stroke:#000000; stroke-linecap:round; stroke-linejoin:round; stroke-width:8; stroke-opacity:1; fill:none" points="443.157,1450.74 443.157,1450.74 466.461,1450.74 443.157,1450.74 "/>
<path clip-path="url(#clip711)" d="M466.461 1450.74 L466.461 1450.74 L489.765 1450.74 L489.765 1450.74 L466.461 1450.74 L466.461 1450.74  Z" fill="#009af9" fill-rule="evenodd" fill-opacity="1"/>
<polyline clip-path="url(#clip711)" style="stroke:#000000; stroke-linecap:round; stroke-linejoin:round; stroke-width:8; stroke-opacity:1; fill:none" points="466.461,1450.74 466.461,1450.74 489.765,1450.74 466.461,1450.74 "/>
<path clip-path="url(#clip711)" d="M489.765 1450.74 L489.765 1450.74 L513.069 1450.74 L513.069 1450.74 L489.765 1450.74 L489.765 1450.74  Z" fill="#009af9" fill-rule="evenodd" fill-opacity="1"/>
<polyline clip-path="url(#clip711)" style="stroke:#000000; stroke-linecap:round; stroke-linejoin:round; stroke-width:8; stroke-opacity:1; fill:none" points="489.765,1450.74 489.765,1450.74 513.069,1450.74 489.765,1450.74 "/>
<path clip-path="url(#clip711)" d="M513.069 1450.74 L513.069 1450.74 L536.372 1450.74 L536.372 1450.74 L513.069 1450.74 L513.069 1450.74  Z" fill="#009af9" fill-rule="evenodd" fill-opacity="1"/>
<polyline clip-path="url(#clip711)" style="stroke:#000000; stroke-linecap:round; stroke-linejoin:round; stroke-width:8; stroke-opacity:1; fill:none" points="513.069,1450.74 513.069,1450.74 536.372,1450.74 513.069,1450.74 "/>
<path clip-path="url(#clip711)" d="M536.372 1450.74 L536.372 1450.74 L559.676 1450.74 L559.676 1450.74 L536.372 1450.74 L536.372 1450.74  Z" fill="#009af9" fill-rule="evenodd" fill-opacity="1"/>
<polyline clip-path="url(#clip711)" style="stroke:#000000; stroke-linecap:round; stroke-linejoin:round; stroke-width:8; stroke-opacity:1; fill:none" points="536.372,1450.74 536.372,1450.74 559.676,1450.74 536.372,1450.74 "/>
<path clip-path="url(#clip711)" d="M559.676 1450.74 L559.676 1450.74 L582.98 1450.74 L582.98 1450.74 L559.676 1450.74 L559.676 1450.74  Z" fill="#009af9" fill-rule="evenodd" fill-opacity="1"/>
<polyline clip-path="url(#clip711)" style="stroke:#000000; stroke-linecap:round; stroke-linejoin:round; stroke-width:8; stroke-opacity:1; fill:none" points="559.676,1450.74 559.676,1450.74 582.98,1450.74 559.676,1450.74 "/>
<path clip-path="url(#clip711)" d="M582.98 1450.74 L582.98 1450.74 L606.283 1450.74 L606.283 1450.74 L582.98 1450.74 L582.98 1450.74  Z" fill="#009af9" fill-rule="evenodd" fill-opacity="1"/>
<polyline clip-path="url(#clip711)" style="stroke:#000000; stroke-linecap:round; stroke-linejoin:round; stroke-width:8; stroke-opacity:1; fill:none" points="582.98,1450.74 582.98,1450.74 606.283,1450.74 582.98,1450.74 "/>
<path clip-path="url(#clip711)" d="M606.283 1450.74 L606.283 1450.74 L629.587 1450.74 L629.587 1450.74 L606.283 1450.74 L606.283 1450.74  Z" fill="#009af9" fill-rule="evenodd" fill-opacity="1"/>
<polyline clip-path="url(#clip711)" style="stroke:#000000; stroke-linecap:round; stroke-linejoin:round; stroke-width:8; stroke-opacity:1; fill:none" points="606.283,1450.74 606.283,1450.74 629.587,1450.74 606.283,1450.74 "/>
<path clip-path="url(#clip711)" d="M629.587 1450.74 L629.587 1450.74 L652.891 1450.74 L652.891 1450.74 L629.587 1450.74 L629.587 1450.74  Z" fill="#009af9" fill-rule="evenodd" fill-opacity="1"/>
<polyline clip-path="url(#clip711)" style="stroke:#000000; stroke-linecap:round; stroke-linejoin:round; stroke-width:8; stroke-opacity:1; fill:none" points="629.587,1450.74 629.587,1450.74 652.891,1450.74 629.587,1450.74 "/>
<path clip-path="url(#clip711)" d="M652.891 1450.74 L652.891 1450.74 L676.194 1450.74 L676.194 1450.74 L652.891 1450.74 L652.891 1450.74  Z" fill="#009af9" fill-rule="evenodd" fill-opacity="1"/>
<polyline clip-path="url(#clip711)" style="stroke:#000000; stroke-linecap:round; stroke-linejoin:round; stroke-width:8; stroke-opacity:1; fill:none" points="652.891,1450.74 652.891,1450.74 676.194,1450.74 652.891,1450.74 "/>
<path clip-path="url(#clip711)" d="M676.194 1450.74 L676.194 1450.74 L699.498 1450.74 L699.498 1450.74 L676.194 1450.74 L676.194 1450.74  Z" fill="#009af9" fill-rule="evenodd" fill-opacity="1"/>
<polyline clip-path="url(#clip711)" style="stroke:#000000; stroke-linecap:round; stroke-linejoin:round; stroke-width:8; stroke-opacity:1; fill:none" points="676.194,1450.74 676.194,1450.74 699.498,1450.74 676.194,1450.74 "/>
<path clip-path="url(#clip711)" d="M699.498 1450.74 L699.498 1450.74 L722.802 1450.74 L722.802 1450.74 L699.498 1450.74 L699.498 1450.74  Z" fill="#009af9" fill-rule="evenodd" fill-opacity="1"/>
<polyline clip-path="url(#clip711)" style="stroke:#000000; stroke-linecap:round; stroke-linejoin:round; stroke-width:8; stroke-opacity:1; fill:none" points="699.498,1450.74 699.498,1450.74 722.802,1450.74 699.498,1450.74 "/>
<path clip-path="url(#clip711)" d="M722.802 1450.74 L722.802 1450.74 L746.106 1450.74 L746.106 1450.74 L722.802 1450.74 L722.802 1450.74  Z" fill="#009af9" fill-rule="evenodd" fill-opacity="1"/>
<polyline clip-path="url(#clip711)" style="stroke:#000000; stroke-linecap:round; stroke-linejoin:round; stroke-width:8; stroke-opacity:1; fill:none" points="722.802,1450.74 722.802,1450.74 746.106,1450.74 722.802,1450.74 "/>
<path clip-path="url(#clip711)" d="M746.106 1450.74 L746.106 1450.74 L769.409 1450.74 L769.409 1450.74 L746.106 1450.74 L746.106 1450.74  Z" fill="#009af9" fill-rule="evenodd" fill-opacity="1"/>
<polyline clip-path="url(#clip711)" style="stroke:#000000; stroke-linecap:round; stroke-linejoin:round; stroke-width:8; stroke-opacity:1; fill:none" points="746.106,1450.74 746.106,1450.74 769.409,1450.74 746.106,1450.74 "/>
<path clip-path="url(#clip711)" d="M769.409 1450.74 L769.409 1450.74 L792.713 1450.74 L792.713 1450.74 L769.409 1450.74 L769.409 1450.74  Z" fill="#009af9" fill-rule="evenodd" fill-opacity="1"/>
<polyline clip-path="url(#clip711)" style="stroke:#000000; stroke-linecap:round; stroke-linejoin:round; stroke-width:8; stroke-opacity:1; fill:none" points="769.409,1450.74 769.409,1450.74 792.713,1450.74 769.409,1450.74 "/>
<path clip-path="url(#clip711)" d="M792.713 1450.74 L792.713 1450.74 L816.017 1450.74 L816.017 1450.74 L792.713 1450.74 L792.713 1450.74  Z" fill="#009af9" fill-rule="evenodd" fill-opacity="1"/>
<polyline clip-path="url(#clip711)" style="stroke:#000000; stroke-linecap:round; stroke-linejoin:round; stroke-width:8; stroke-opacity:1; fill:none" points="792.713,1450.74 792.713,1450.74 816.017,1450.74 792.713,1450.74 "/>
<path clip-path="url(#clip711)" d="M816.017 1450.74 L816.017 1450.74 L839.32 1450.74 L839.32 1450.74 L816.017 1450.74 L816.017 1450.74  Z" fill="#009af9" fill-rule="evenodd" fill-opacity="1"/>
<polyline clip-path="url(#clip711)" style="stroke:#000000; stroke-linecap:round; stroke-linejoin:round; stroke-width:8; stroke-opacity:1; fill:none" points="816.017,1450.74 816.017,1450.74 839.32,1450.74 816.017,1450.74 "/>
<path clip-path="url(#clip711)" d="M839.32 1275.41 L839.32 1450.74 L862.624 1450.74 L862.624 1275.41 L839.32 1275.41 L839.32 1275.41  Z" fill="#009af9" fill-rule="evenodd" fill-opacity="1"/>
<polyline clip-path="url(#clip711)" style="stroke:#000000; stroke-linecap:round; stroke-linejoin:round; stroke-width:8; stroke-opacity:1; fill:none" points="839.32,1275.41 839.32,1450.74 862.624,1450.74 862.624,1275.41 839.32,1275.41 "/>
<path clip-path="url(#clip711)" d="M862.624 1277.04 L862.624 1450.74 L885.928 1450.74 L885.928 1277.04 L862.624 1277.04 L862.624 1277.04  Z" fill="#009af9" fill-rule="evenodd" fill-opacity="1"/>
<polyline clip-path="url(#clip711)" style="stroke:#000000; stroke-linecap:round; stroke-linejoin:round; stroke-width:8; stroke-opacity:1; fill:none" points="862.624,1277.04 862.624,1450.74 885.928,1450.74 885.928,1277.04 862.624,1277.04 "/>
<path clip-path="url(#clip711)" d="M885.928 1287.64 L885.928 1450.74 L909.231 1450.74 L909.231 1287.64 L885.928 1287.64 L885.928 1287.64  Z" fill="#009af9" fill-rule="evenodd" fill-opacity="1"/>
<polyline clip-path="url(#clip711)" style="stroke:#000000; stroke-linecap:round; stroke-linejoin:round; stroke-width:8; stroke-opacity:1; fill:none" points="885.928,1287.64 885.928,1450.74 909.231,1450.74 909.231,1287.64 885.928,1287.64 "/>
<path clip-path="url(#clip711)" d="M909.231 1284.79 L909.231 1450.74 L932.535 1450.74 L932.535 1284.79 L909.231 1284.79 L909.231 1284.79  Z" fill="#009af9" fill-rule="evenodd" fill-opacity="1"/>
<polyline clip-path="url(#clip711)" style="stroke:#000000; stroke-linecap:round; stroke-linejoin:round; stroke-width:8; stroke-opacity:1; fill:none" points="909.231,1284.79 909.231,1450.74 932.535,1450.74 932.535,1284.79 909.231,1284.79 "/>
<path clip-path="url(#clip711)" d="M932.535 1289.27 L932.535 1450.74 L955.839 1450.74 L955.839 1289.27 L932.535 1289.27 L932.535 1289.27  Z" fill="#009af9" fill-rule="evenodd" fill-opacity="1"/>
<polyline clip-path="url(#clip711)" style="stroke:#000000; stroke-linecap:round; stroke-linejoin:round; stroke-width:8; stroke-opacity:1; fill:none" points="932.535,1289.27 932.535,1450.74 955.839,1450.74 955.839,1289.27 932.535,1289.27 "/>
<path clip-path="url(#clip711)" d="M955.839 1273.37 L955.839 1450.74 L979.143 1450.74 L979.143 1273.37 L955.839 1273.37 L955.839 1273.37  Z" fill="#009af9" fill-rule="evenodd" fill-opacity="1"/>
<polyline clip-path="url(#clip711)" style="stroke:#000000; stroke-linecap:round; stroke-linejoin:round; stroke-width:8; stroke-opacity:1; fill:none" points="955.839,1273.37 955.839,1450.74 979.143,1450.74 979.143,1273.37 955.839,1273.37 "/>
<path clip-path="url(#clip711)" d="M979.143 1276.22 L979.143 1450.74 L1002.45 1450.74 L1002.45 1276.22 L979.143 1276.22 L979.143 1276.22  Z" fill="#009af9" fill-rule="evenodd" fill-opacity="1"/>
<polyline clip-path="url(#clip711)" style="stroke:#000000; stroke-linecap:round; stroke-linejoin:round; stroke-width:8; stroke-opacity:1; fill:none" points="979.143,1276.22 979.143,1450.74 1002.45,1450.74 1002.45,1276.22 979.143,1276.22 "/>
<path clip-path="url(#clip711)" d="M1002.45 1270.51 L1002.45 1450.74 L1025.75 1450.74 L1025.75 1270.51 L1002.45 1270.51 L1002.45 1270.51  Z" fill="#009af9" fill-rule="evenodd" fill-opacity="1"/>
<polyline clip-path="url(#clip711)" style="stroke:#000000; stroke-linecap:round; stroke-linejoin:round; stroke-width:8; stroke-opacity:1; fill:none" points="1002.45,1270.51 1002.45,1450.74 1025.75,1450.74 1025.75,1270.51 1002.45,1270.51 "/>
<path clip-path="url(#clip711)" d="M1025.75 1279.08 L1025.75 1450.74 L1049.05 1450.74 L1049.05 1279.08 L1025.75 1279.08 L1025.75 1279.08  Z" fill="#009af9" fill-rule="evenodd" fill-opacity="1"/>
<polyline clip-path="url(#clip711)" style="stroke:#000000; stroke-linecap:round; stroke-linejoin:round; stroke-width:8; stroke-opacity:1; fill:none" points="1025.75,1279.08 1025.75,1450.74 1049.05,1450.74 1049.05,1279.08 1025.75,1279.08 "/>
<path clip-path="url(#clip711)" d="M1049.05 1283.97 L1049.05 1450.74 L1072.36 1450.74 L1072.36 1283.97 L1049.05 1283.97 L1049.05 1283.97  Z" fill="#009af9" fill-rule="evenodd" fill-opacity="1"/>
<polyline clip-path="url(#clip711)" style="stroke:#000000; stroke-linecap:round; stroke-linejoin:round; stroke-width:8; stroke-opacity:1; fill:none" points="1049.05,1283.97 1049.05,1450.74 1072.36,1450.74 1072.36,1283.97 1049.05,1283.97 "/>
<path clip-path="url(#clip711)" d="M1072.36 1047.88 L1072.36 1450.74 L1095.66 1450.74 L1095.66 1047.88 L1072.36 1047.88 L1072.36 1047.88  Z" fill="#009af9" fill-rule="evenodd" fill-opacity="1"/>
<polyline clip-path="url(#clip711)" style="stroke:#000000; stroke-linecap:round; stroke-linejoin:round; stroke-width:8; stroke-opacity:1; fill:none" points="1072.36,1047.88 1072.36,1450.74 1095.66,1450.74 1095.66,1047.88 1072.36,1047.88 "/>
<path clip-path="url(#clip711)" d="M1095.66 1048.29 L1095.66 1450.74 L1118.96 1450.74 L1118.96 1048.29 L1095.66 1048.29 L1095.66 1048.29  Z" fill="#009af9" fill-rule="evenodd" fill-opacity="1"/>
<polyline clip-path="url(#clip711)" style="stroke:#000000; stroke-linecap:round; stroke-linejoin:round; stroke-width:8; stroke-opacity:1; fill:none" points="1095.66,1048.29 1095.66,1450.74 1118.96,1450.74 1118.96,1048.29 1095.66,1048.29 "/>
<path clip-path="url(#clip711)" d="M1118.96 1048.29 L1118.96 1450.74 L1142.27 1450.74 L1142.27 1048.29 L1118.96 1048.29 L1118.96 1048.29  Z" fill="#009af9" fill-rule="evenodd" fill-opacity="1"/>
<polyline clip-path="url(#clip711)" style="stroke:#000000; stroke-linecap:round; stroke-linejoin:round; stroke-width:8; stroke-opacity:1; fill:none" points="1118.96,1048.29 1118.96,1450.74 1142.27,1450.74 1142.27,1048.29 1118.96,1048.29 "/>
<path clip-path="url(#clip711)" d="M1142.27 1051.55 L1142.27 1450.74 L1165.57 1450.74 L1165.57 1051.55 L1142.27 1051.55 L1142.27 1051.55  Z" fill="#009af9" fill-rule="evenodd" fill-opacity="1"/>
<polyline clip-path="url(#clip711)" style="stroke:#000000; stroke-linecap:round; stroke-linejoin:round; stroke-width:8; stroke-opacity:1; fill:none" points="1142.27,1051.55 1142.27,1450.74 1165.57,1450.74 1165.57,1051.55 1142.27,1051.55 "/>
<path clip-path="url(#clip711)" d="M1165.57 1042.58 L1165.57 1450.74 L1188.88 1450.74 L1188.88 1042.58 L1165.57 1042.58 L1165.57 1042.58  Z" fill="#009af9" fill-rule="evenodd" fill-opacity="1"/>
<polyline clip-path="url(#clip711)" style="stroke:#000000; stroke-linecap:round; stroke-linejoin:round; stroke-width:8; stroke-opacity:1; fill:none" points="1165.57,1042.58 1165.57,1450.74 1188.88,1450.74 1188.88,1042.58 1165.57,1042.58 "/>
<path clip-path="url(#clip711)" d="M1188.88 808.118 L1188.88 1450.74 L1212.18 1450.74 L1212.18 808.118 L1188.88 808.118 L1188.88 808.118  Z" fill="#009af9" fill-rule="evenodd" fill-opacity="1"/>
<polyline clip-path="url(#clip711)" style="stroke:#000000; stroke-linecap:round; stroke-linejoin:round; stroke-width:8; stroke-opacity:1; fill:none" points="1188.88,808.118 1188.88,1450.74 1212.18,1450.74 1212.18,808.118 1188.88,808.118 "/>
<path clip-path="url(#clip711)" d="M1212.18 807.303 L1212.18 1450.74 L1235.48 1450.74 L1235.48 807.303 L1212.18 807.303 L1212.18 807.303  Z" fill="#009af9" fill-rule="evenodd" fill-opacity="1"/>
<polyline clip-path="url(#clip711)" style="stroke:#000000; stroke-linecap:round; stroke-linejoin:round; stroke-width:8; stroke-opacity:1; fill:none" points="1212.18,807.303 1212.18,1450.74 1235.48,1450.74 1235.48,807.303 1212.18,807.303 "/>
<path clip-path="url(#clip711)" d="M1235.48 670.704 L1235.48 1450.74 L1258.79 1450.74 L1258.79 670.704 L1235.48 670.704 L1235.48 670.704  Z" fill="#009af9" fill-rule="evenodd" fill-opacity="1"/>
<polyline clip-path="url(#clip711)" style="stroke:#000000; stroke-linecap:round; stroke-linejoin:round; stroke-width:8; stroke-opacity:1; fill:none" points="1235.48,670.704 1235.48,1450.74 1258.79,1450.74 1258.79,670.704 1235.48,670.704 "/>
<path clip-path="url(#clip711)" d="M1258.79 535.329 L1258.79 1450.74 L1282.09 1450.74 L1282.09 535.329 L1258.79 535.329 L1258.79 535.329  Z" fill="#009af9" fill-rule="evenodd" fill-opacity="1"/>
<polyline clip-path="url(#clip711)" style="stroke:#000000; stroke-linecap:round; stroke-linejoin:round; stroke-width:8; stroke-opacity:1; fill:none" points="1258.79,535.329 1258.79,1450.74 1282.09,1450.74 1282.09,535.329 1258.79,535.329 "/>
<path clip-path="url(#clip711)" d="M1282.09 82.7189 L1282.09 1450.74 L1305.39 1450.74 L1305.39 82.7189 L1282.09 82.7189 L1282.09 82.7189  Z" fill="#009af9" fill-rule="evenodd" fill-opacity="1"/>
<polyline clip-path="url(#clip711)" style="stroke:#000000; stroke-linecap:round; stroke-linejoin:round; stroke-width:8; stroke-opacity:1; fill:none" points="1282.09,82.7189 1282.09,1450.74 1305.39,1450.74 1305.39,82.7189 1282.09,82.7189 "/>
<path clip-path="url(#clip711)" d="M1305.39 47.2441 L1305.39 1450.74 L1328.7 1450.74 L1328.7 47.2441 L1305.39 47.2441 L1305.39 47.2441  Z" fill="#009af9" fill-rule="evenodd" fill-opacity="1"/>
<polyline clip-path="url(#clip711)" style="stroke:#000000; stroke-linecap:round; stroke-linejoin:round; stroke-width:8; stroke-opacity:1; fill:none" points="1305.39,47.2441 1305.39,1450.74 1328.7,1450.74 1328.7,47.2441 1305.39,47.2441 "/>
<path clip-path="url(#clip711)" d="M1328.7 487.621 L1328.7 1450.74 L1352 1450.74 L1352 487.621 L1328.7 487.621 L1328.7 487.621  Z" fill="#009af9" fill-rule="evenodd" fill-opacity="1"/>
<polyline clip-path="url(#clip711)" style="stroke:#000000; stroke-linecap:round; stroke-linejoin:round; stroke-width:8; stroke-opacity:1; fill:none" points="1328.7,487.621 1328.7,1450.74 1352,1450.74 1352,487.621 1328.7,487.621 "/>
<path clip-path="url(#clip711)" d="M1352 691.5 L1352 1450.74 L1375.31 1450.74 L1375.31 691.5 L1352 691.5 L1352 691.5  Z" fill="#009af9" fill-rule="evenodd" fill-opacity="1"/>
<polyline clip-path="url(#clip711)" style="stroke:#000000; stroke-linecap:round; stroke-linejoin:round; stroke-width:8; stroke-opacity:1; fill:none" points="1352,691.5 1352,1450.74 1375.31,1450.74 1375.31,691.5 1352,691.5 "/>
<path clip-path="url(#clip711)" d="M1375.31 804.856 L1375.31 1450.74 L1398.61 1450.74 L1398.61 804.856 L1375.31 804.856 L1375.31 804.856  Z" fill="#009af9" fill-rule="evenodd" fill-opacity="1"/>
<polyline clip-path="url(#clip711)" style="stroke:#000000; stroke-linecap:round; stroke-linejoin:round; stroke-width:8; stroke-opacity:1; fill:none" points="1375.31,804.856 1375.31,1450.74 1398.61,1450.74 1398.61,804.856 1375.31,804.856 "/>
<path clip-path="url(#clip711)" d="M1398.61 815.458 L1398.61 1450.74 L1421.91 1450.74 L1421.91 815.458 L1398.61 815.458 L1398.61 815.458  Z" fill="#009af9" fill-rule="evenodd" fill-opacity="1"/>
<polyline clip-path="url(#clip711)" style="stroke:#000000; stroke-linecap:round; stroke-linejoin:round; stroke-width:8; stroke-opacity:1; fill:none" points="1398.61,815.458 1398.61,1450.74 1421.91,1450.74 1421.91,815.458 1398.61,815.458 "/>
<path clip-path="url(#clip711)" d="M1421.91 1025.86 L1421.91 1450.74 L1445.22 1450.74 L1445.22 1025.86 L1421.91 1025.86 L1421.91 1025.86  Z" fill="#009af9" fill-rule="evenodd" fill-opacity="1"/>
<polyline clip-path="url(#clip711)" style="stroke:#000000; stroke-linecap:round; stroke-linejoin:round; stroke-width:8; stroke-opacity:1; fill:none" points="1421.91,1025.86 1421.91,1450.74 1445.22,1450.74 1445.22,1025.86 1421.91,1025.86 "/>
<path clip-path="url(#clip711)" d="M1445.22 1036.87 L1445.22 1450.74 L1468.52 1450.74 L1468.52 1036.87 L1445.22 1036.87 L1445.22 1036.87  Z" fill="#009af9" fill-rule="evenodd" fill-opacity="1"/>
<polyline clip-path="url(#clip711)" style="stroke:#000000; stroke-linecap:round; stroke-linejoin:round; stroke-width:8; stroke-opacity:1; fill:none" points="1445.22,1036.87 1445.22,1450.74 1468.52,1450.74 1468.52,1036.87 1445.22,1036.87 "/>
<path clip-path="url(#clip711)" d="M1468.52 1021.38 L1468.52 1450.74 L1491.82 1450.74 L1491.82 1021.38 L1468.52 1021.38 L1468.52 1021.38  Z" fill="#009af9" fill-rule="evenodd" fill-opacity="1"/>
<polyline clip-path="url(#clip711)" style="stroke:#000000; stroke-linecap:round; stroke-linejoin:round; stroke-width:8; stroke-opacity:1; fill:none" points="1468.52,1021.38 1468.52,1450.74 1491.82,1450.74 1491.82,1021.38 1468.52,1021.38 "/>
<path clip-path="url(#clip711)" d="M1491.82 1040.13 L1491.82 1450.74 L1515.13 1450.74 L1515.13 1040.13 L1491.82 1040.13 L1491.82 1040.13  Z" fill="#009af9" fill-rule="evenodd" fill-opacity="1"/>
<polyline clip-path="url(#clip711)" style="stroke:#000000; stroke-linecap:round; stroke-linejoin:round; stroke-width:8; stroke-opacity:1; fill:none" points="1491.82,1040.13 1491.82,1450.74 1515.13,1450.74 1515.13,1040.13 1491.82,1040.13 "/>
<path clip-path="url(#clip711)" d="M1515.13 1031.57 L1515.13 1450.74 L1538.43 1450.74 L1538.43 1031.57 L1515.13 1031.57 L1515.13 1031.57  Z" fill="#009af9" fill-rule="evenodd" fill-opacity="1"/>
<polyline clip-path="url(#clip711)" style="stroke:#000000; stroke-linecap:round; stroke-linejoin:round; stroke-width:8; stroke-opacity:1; fill:none" points="1515.13,1031.57 1515.13,1450.74 1538.43,1450.74 1538.43,1031.57 1515.13,1031.57 "/>
<path clip-path="url(#clip711)" d="M1538.43 1290.49 L1538.43 1450.74 L1561.74 1450.74 L1561.74 1290.49 L1538.43 1290.49 L1538.43 1290.49  Z" fill="#009af9" fill-rule="evenodd" fill-opacity="1"/>
<polyline clip-path="url(#clip711)" style="stroke:#000000; stroke-linecap:round; stroke-linejoin:round; stroke-width:8; stroke-opacity:1; fill:none" points="1538.43,1290.49 1538.43,1450.74 1561.74,1450.74 1561.74,1290.49 1538.43,1290.49 "/>
<path clip-path="url(#clip711)" d="M1561.74 1283.56 L1561.74 1450.74 L1585.04 1450.74 L1585.04 1283.56 L1561.74 1283.56 L1561.74 1283.56  Z" fill="#009af9" fill-rule="evenodd" fill-opacity="1"/>
<polyline clip-path="url(#clip711)" style="stroke:#000000; stroke-linecap:round; stroke-linejoin:round; stroke-width:8; stroke-opacity:1; fill:none" points="1561.74,1283.56 1561.74,1450.74 1585.04,1450.74 1585.04,1283.56 1561.74,1283.56 "/>
<path clip-path="url(#clip711)" d="M1585.04 1287.64 L1585.04 1450.74 L1608.34 1450.74 L1608.34 1287.64 L1585.04 1287.64 L1585.04 1287.64  Z" fill="#009af9" fill-rule="evenodd" fill-opacity="1"/>
<polyline clip-path="url(#clip711)" style="stroke:#000000; stroke-linecap:round; stroke-linejoin:round; stroke-width:8; stroke-opacity:1; fill:none" points="1585.04,1287.64 1585.04,1450.74 1608.34,1450.74 1608.34,1287.64 1585.04,1287.64 "/>
<path clip-path="url(#clip711)" d="M1608.34 1272.15 L1608.34 1450.74 L1631.65 1450.74 L1631.65 1272.15 L1608.34 1272.15 L1608.34 1272.15  Z" fill="#009af9" fill-rule="evenodd" fill-opacity="1"/>
<polyline clip-path="url(#clip711)" style="stroke:#000000; stroke-linecap:round; stroke-linejoin:round; stroke-width:8; stroke-opacity:1; fill:none" points="1608.34,1272.15 1608.34,1450.74 1631.65,1450.74 1631.65,1272.15 1608.34,1272.15 "/>
<path clip-path="url(#clip711)" d="M1631.65 1272.15 L1631.65 1450.74 L1654.95 1450.74 L1654.95 1272.15 L1631.65 1272.15 L1631.65 1272.15  Z" fill="#009af9" fill-rule="evenodd" fill-opacity="1"/>
<polyline clip-path="url(#clip711)" style="stroke:#000000; stroke-linecap:round; stroke-linejoin:round; stroke-width:8; stroke-opacity:1; fill:none" points="1631.65,1272.15 1631.65,1450.74 1654.95,1450.74 1654.95,1272.15 1631.65,1272.15 "/>
<path clip-path="url(#clip711)" d="M1654.95 1281.12 L1654.95 1450.74 L1678.25 1450.74 L1678.25 1281.12 L1654.95 1281.12 L1654.95 1281.12  Z" fill="#009af9" fill-rule="evenodd" fill-opacity="1"/>
<polyline clip-path="url(#clip711)" style="stroke:#000000; stroke-linecap:round; stroke-linejoin:round; stroke-width:8; stroke-opacity:1; fill:none" points="1654.95,1281.12 1654.95,1450.74 1678.25,1450.74 1678.25,1281.12 1654.95,1281.12 "/>
<path clip-path="url(#clip711)" d="M1678.25 1272.15 L1678.25 1450.74 L1701.56 1450.74 L1701.56 1272.15 L1678.25 1272.15 L1678.25 1272.15  Z" fill="#009af9" fill-rule="evenodd" fill-opacity="1"/>
<polyline clip-path="url(#clip711)" style="stroke:#000000; stroke-linecap:round; stroke-linejoin:round; stroke-width:8; stroke-opacity:1; fill:none" points="1678.25,1272.15 1678.25,1450.74 1701.56,1450.74 1701.56,1272.15 1678.25,1272.15 "/>
<path clip-path="url(#clip711)" d="M1701.56 1266.44 L1701.56 1450.74 L1724.86 1450.74 L1724.86 1266.44 L1701.56 1266.44 L1701.56 1266.44  Z" fill="#009af9" fill-rule="evenodd" fill-opacity="1"/>
<polyline clip-path="url(#clip711)" style="stroke:#000000; stroke-linecap:round; stroke-linejoin:round; stroke-width:8; stroke-opacity:1; fill:none" points="1701.56,1266.44 1701.56,1450.74 1724.86,1450.74 1724.86,1266.44 1701.56,1266.44 "/>
<path clip-path="url(#clip711)" d="M1724.86 1272.15 L1724.86 1450.74 L1748.16 1450.74 L1748.16 1272.15 L1724.86 1272.15 L1724.86 1272.15  Z" fill="#009af9" fill-rule="evenodd" fill-opacity="1"/>
<polyline clip-path="url(#clip711)" style="stroke:#000000; stroke-linecap:round; stroke-linejoin:round; stroke-width:8; stroke-opacity:1; fill:none" points="1724.86,1272.15 1724.86,1450.74 1748.16,1450.74 1748.16,1272.15 1724.86,1272.15 "/>
<path clip-path="url(#clip711)" d="M1748.16 1279.08 L1748.16 1450.74 L1771.47 1450.74 L1771.47 1279.08 L1748.16 1279.08 L1748.16 1279.08  Z" fill="#009af9" fill-rule="evenodd" fill-opacity="1"/>
<polyline clip-path="url(#clip711)" style="stroke:#000000; stroke-linecap:round; stroke-linejoin:round; stroke-width:8; stroke-opacity:1; fill:none" points="1748.16,1279.08 1748.16,1450.74 1771.47,1450.74 1771.47,1279.08 1748.16,1279.08 "/>
<path clip-path="url(#clip711)" d="M1771.47 1450.74 L1771.47 1450.74 L1794.77 1450.74 L1794.77 1450.74 L1771.47 1450.74 L1771.47 1450.74  Z" fill="#009af9" fill-rule="evenodd" fill-opacity="1"/>
<polyline clip-path="url(#clip711)" style="stroke:#000000; stroke-linecap:round; stroke-linejoin:round; stroke-width:8; stroke-opacity:1; fill:none" points="1771.47,1450.74 1771.47,1450.74 1794.77,1450.74 1771.47,1450.74 "/>
<path clip-path="url(#clip711)" d="M1794.77 1450.74 L1794.77 1450.74 L1818.08 1450.74 L1818.08 1450.74 L1794.77 1450.74 L1794.77 1450.74  Z" fill="#009af9" fill-rule="evenodd" fill-opacity="1"/>
<polyline clip-path="url(#clip711)" style="stroke:#000000; stroke-linecap:round; stroke-linejoin:round; stroke-width:8; stroke-opacity:1; fill:none" points="1794.77,1450.74 1794.77,1450.74 1818.08,1450.74 1794.77,1450.74 "/>
<path clip-path="url(#clip711)" d="M1818.08 1450.74 L1818.08 1450.74 L1841.38 1450.74 L1841.38 1450.74 L1818.08 1450.74 L1818.08 1450.74  Z" fill="#009af9" fill-rule="evenodd" fill-opacity="1"/>
<polyline clip-path="url(#clip711)" style="stroke:#000000; stroke-linecap:round; stroke-linejoin:round; stroke-width:8; stroke-opacity:1; fill:none" points="1818.08,1450.74 1818.08,1450.74 1841.38,1450.74 1818.08,1450.74 "/>
<path clip-path="url(#clip711)" d="M1841.38 1450.74 L1841.38 1450.74 L1864.68 1450.74 L1864.68 1450.74 L1841.38 1450.74 L1841.38 1450.74  Z" fill="#009af9" fill-rule="evenodd" fill-opacity="1"/>
<polyline clip-path="url(#clip711)" style="stroke:#000000; stroke-linecap:round; stroke-linejoin:round; stroke-width:8; stroke-opacity:1; fill:none" points="1841.38,1450.74 1841.38,1450.74 1864.68,1450.74 1841.38,1450.74 "/>
<path clip-path="url(#clip711)" d="M1864.68 1450.74 L1864.68 1450.74 L1887.99 1450.74 L1887.99 1450.74 L1864.68 1450.74 L1864.68 1450.74  Z" fill="#009af9" fill-rule="evenodd" fill-opacity="1"/>
<polyline clip-path="url(#clip711)" style="stroke:#000000; stroke-linecap:round; stroke-linejoin:round; stroke-width:8; stroke-opacity:1; fill:none" points="1864.68,1450.74 1864.68,1450.74 1887.99,1450.74 1864.68,1450.74 "/>
<path clip-path="url(#clip711)" d="M1887.99 1450.74 L1887.99 1450.74 L1911.29 1450.74 L1911.29 1450.74 L1887.99 1450.74 L1887.99 1450.74  Z" fill="#009af9" fill-rule="evenodd" fill-opacity="1"/>
<polyline clip-path="url(#clip711)" style="stroke:#000000; stroke-linecap:round; stroke-linejoin:round; stroke-width:8; stroke-opacity:1; fill:none" points="1887.99,1450.74 1887.99,1450.74 1911.29,1450.74 1887.99,1450.74 "/>
<path clip-path="url(#clip711)" d="M1911.29 1450.74 L1911.29 1450.74 L1934.59 1450.74 L1934.59 1450.74 L1911.29 1450.74 L1911.29 1450.74  Z" fill="#009af9" fill-rule="evenodd" fill-opacity="1"/>
<polyline clip-path="url(#clip711)" style="stroke:#000000; stroke-linecap:round; stroke-linejoin:round; stroke-width:8; stroke-opacity:1; fill:none" points="1911.29,1450.74 1911.29,1450.74 1934.59,1450.74 1911.29,1450.74 "/>
<path clip-path="url(#clip711)" d="M1934.59 1450.74 L1934.59 1450.74 L1957.9 1450.74 L1957.9 1450.74 L1934.59 1450.74 L1934.59 1450.74  Z" fill="#009af9" fill-rule="evenodd" fill-opacity="1"/>
<polyline clip-path="url(#clip711)" style="stroke:#000000; stroke-linecap:round; stroke-linejoin:round; stroke-width:8; stroke-opacity:1; fill:none" points="1934.59,1450.74 1934.59,1450.74 1957.9,1450.74 1934.59,1450.74 "/>
<path clip-path="url(#clip711)" d="M1957.9 1450.74 L1957.9 1450.74 L1981.2 1450.74 L1981.2 1450.74 L1957.9 1450.74 L1957.9 1450.74  Z" fill="#009af9" fill-rule="evenodd" fill-opacity="1"/>
<polyline clip-path="url(#clip711)" style="stroke:#000000; stroke-linecap:round; stroke-linejoin:round; stroke-width:8; stroke-opacity:1; fill:none" points="1957.9,1450.74 1957.9,1450.74 1981.2,1450.74 1957.9,1450.74 "/>
<path clip-path="url(#clip711)" d="M1981.2 1450.74 L1981.2 1450.74 L2004.51 1450.74 L2004.51 1450.74 L1981.2 1450.74 L1981.2 1450.74  Z" fill="#009af9" fill-rule="evenodd" fill-opacity="1"/>
<polyline clip-path="url(#clip711)" style="stroke:#000000; stroke-linecap:round; stroke-linejoin:round; stroke-width:8; stroke-opacity:1; fill:none" points="1981.2,1450.74 1981.2,1450.74 2004.51,1450.74 1981.2,1450.74 "/>
<path clip-path="url(#clip711)" d="M2004.51 1450.74 L2004.51 1450.74 L2027.81 1450.74 L2027.81 1450.74 L2004.51 1450.74 L2004.51 1450.74  Z" fill="#009af9" fill-rule="evenodd" fill-opacity="1"/>
<polyline clip-path="url(#clip711)" style="stroke:#000000; stroke-linecap:round; stroke-linejoin:round; stroke-width:8; stroke-opacity:1; fill:none" points="2004.51,1450.74 2004.51,1450.74 2027.81,1450.74 2004.51,1450.74 "/>
<path clip-path="url(#clip711)" d="M2027.81 1450.74 L2027.81 1450.74 L2051.11 1450.74 L2051.11 1450.74 L2027.81 1450.74 L2027.81 1450.74  Z" fill="#009af9" fill-rule="evenodd" fill-opacity="1"/>
<polyline clip-path="url(#clip711)" style="stroke:#000000; stroke-linecap:round; stroke-linejoin:round; stroke-width:8; stroke-opacity:1; fill:none" points="2027.81,1450.74 2027.81,1450.74 2051.11,1450.74 2027.81,1450.74 "/>
<path clip-path="url(#clip711)" d="M2051.11 1450.74 L2051.11 1450.74 L2074.42 1450.74 L2074.42 1450.74 L2051.11 1450.74 L2051.11 1450.74  Z" fill="#009af9" fill-rule="evenodd" fill-opacity="1"/>
<polyline clip-path="url(#clip711)" style="stroke:#000000; stroke-linecap:round; stroke-linejoin:round; stroke-width:8; stroke-opacity:1; fill:none" points="2051.11,1450.74 2051.11,1450.74 2074.42,1450.74 2051.11,1450.74 "/>
<path clip-path="url(#clip711)" d="M2074.42 1450.74 L2074.42 1450.74 L2097.72 1450.74 L2097.72 1450.74 L2074.42 1450.74 L2074.42 1450.74  Z" fill="#009af9" fill-rule="evenodd" fill-opacity="1"/>
<polyline clip-path="url(#clip711)" style="stroke:#000000; stroke-linecap:round; stroke-linejoin:round; stroke-width:8; stroke-opacity:1; fill:none" points="2074.42,1450.74 2074.42,1450.74 2097.72,1450.74 2074.42,1450.74 "/>
<path clip-path="url(#clip711)" d="M2097.72 1450.74 L2097.72 1450.74 L2121.02 1450.74 L2121.02 1450.74 L2097.72 1450.74 L2097.72 1450.74  Z" fill="#009af9" fill-rule="evenodd" fill-opacity="1"/>
<polyline clip-path="url(#clip711)" style="stroke:#000000; stroke-linecap:round; stroke-linejoin:round; stroke-width:8; stroke-opacity:1; fill:none" points="2097.72,1450.74 2097.72,1450.74 2121.02,1450.74 2097.72,1450.74 "/>
<path clip-path="url(#clip711)" d="M2121.02 1450.74 L2121.02 1450.74 L2144.33 1450.74 L2144.33 1450.74 L2121.02 1450.74 L2121.02 1450.74  Z" fill="#009af9" fill-rule="evenodd" fill-opacity="1"/>
<polyline clip-path="url(#clip711)" style="stroke:#000000; stroke-linecap:round; stroke-linejoin:round; stroke-width:8; stroke-opacity:1; fill:none" points="2121.02,1450.74 2121.02,1450.74 2144.33,1450.74 2121.02,1450.74 "/>
<path clip-path="url(#clip711)" d="M2144.33 1450.74 L2144.33 1450.74 L2167.63 1450.74 L2167.63 1450.74 L2144.33 1450.74 L2144.33 1450.74  Z" fill="#009af9" fill-rule="evenodd" fill-opacity="1"/>
<polyline clip-path="url(#clip711)" style="stroke:#000000; stroke-linecap:round; stroke-linejoin:round; stroke-width:8; stroke-opacity:1; fill:none" points="2144.33,1450.74 2144.33,1450.74 2167.63,1450.74 2144.33,1450.74 "/>
<path clip-path="url(#clip711)" d="M2167.63 1450.74 L2167.63 1450.74 L2190.94 1450.74 L2190.94 1450.74 L2167.63 1450.74 L2167.63 1450.74  Z" fill="#009af9" fill-rule="evenodd" fill-opacity="1"/>
<polyline clip-path="url(#clip711)" style="stroke:#000000; stroke-linecap:round; stroke-linejoin:round; stroke-width:8; stroke-opacity:1; fill:none" points="2167.63,1450.74 2167.63,1450.74 2190.94,1450.74 2167.63,1450.74 "/>
<path clip-path="url(#clip711)" d="M2190.94 1450.74 L2190.94 1450.74 L2214.24 1450.74 L2214.24 1450.74 L2190.94 1450.74 L2190.94 1450.74  Z" fill="#009af9" fill-rule="evenodd" fill-opacity="1"/>
<polyline clip-path="url(#clip711)" style="stroke:#000000; stroke-linecap:round; stroke-linejoin:round; stroke-width:8; stroke-opacity:1; fill:none" points="2190.94,1450.74 2190.94,1450.74 2214.24,1450.74 2190.94,1450.74 "/>
<path clip-path="url(#clip711)" d="M2214.24 1450.74 L2214.24 1450.74 L2237.54 1450.74 L2237.54 1450.74 L2214.24 1450.74 L2214.24 1450.74  Z" fill="#009af9" fill-rule="evenodd" fill-opacity="1"/>
<polyline clip-path="url(#clip711)" style="stroke:#000000; stroke-linecap:round; stroke-linejoin:round; stroke-width:8; stroke-opacity:1; fill:none" points="2214.24,1450.74 2214.24,1450.74 2237.54,1450.74 2214.24,1450.74 "/>
<circle clip-path="url(#clip711)" style="fill:#009af9; stroke:none; fill-opacity:0" cx="384.898" cy="1450.74" r="2"/>
<circle clip-path="url(#clip711)" style="fill:#009af9; stroke:none; fill-opacity:0" cx="408.202" cy="1450.74" r="2"/>
<circle clip-path="url(#clip711)" style="fill:#009af9; stroke:none; fill-opacity:0" cx="431.506" cy="1450.74" r="2"/>
<circle clip-path="url(#clip711)" style="fill:#009af9; stroke:none; fill-opacity:0" cx="454.809" cy="1450.74" r="2"/>
<circle clip-path="url(#clip711)" style="fill:#009af9; stroke:none; fill-opacity:0" cx="478.113" cy="1450.74" r="2"/>
<circle clip-path="url(#clip711)" style="fill:#009af9; stroke:none; fill-opacity:0" cx="501.417" cy="1450.74" r="2"/>
<circle clip-path="url(#clip711)" style="fill:#009af9; stroke:none; fill-opacity:0" cx="524.72" cy="1450.74" r="2"/>
<circle clip-path="url(#clip711)" style="fill:#009af9; stroke:none; fill-opacity:0" cx="548.024" cy="1450.74" r="2"/>
<circle clip-path="url(#clip711)" style="fill:#009af9; stroke:none; fill-opacity:0" cx="571.328" cy="1450.74" r="2"/>
<circle clip-path="url(#clip711)" style="fill:#009af9; stroke:none; fill-opacity:0" cx="594.632" cy="1450.74" r="2"/>
<circle clip-path="url(#clip711)" style="fill:#009af9; stroke:none; fill-opacity:0" cx="617.935" cy="1450.74" r="2"/>
<circle clip-path="url(#clip711)" style="fill:#009af9; stroke:none; fill-opacity:0" cx="641.239" cy="1450.74" r="2"/>
<circle clip-path="url(#clip711)" style="fill:#009af9; stroke:none; fill-opacity:0" cx="664.543" cy="1450.74" r="2"/>
<circle clip-path="url(#clip711)" style="fill:#009af9; stroke:none; fill-opacity:0" cx="687.846" cy="1450.74" r="2"/>
<circle clip-path="url(#clip711)" style="fill:#009af9; stroke:none; fill-opacity:0" cx="711.15" cy="1450.74" r="2"/>
<circle clip-path="url(#clip711)" style="fill:#009af9; stroke:none; fill-opacity:0" cx="734.454" cy="1450.74" r="2"/>
<circle clip-path="url(#clip711)" style="fill:#009af9; stroke:none; fill-opacity:0" cx="757.757" cy="1450.74" r="2"/>
<circle clip-path="url(#clip711)" style="fill:#009af9; stroke:none; fill-opacity:0" cx="781.061" cy="1450.74" r="2"/>
<circle clip-path="url(#clip711)" style="fill:#009af9; stroke:none; fill-opacity:0" cx="804.365" cy="1450.74" r="2"/>
<circle clip-path="url(#clip711)" style="fill:#009af9; stroke:none; fill-opacity:0" cx="827.669" cy="1450.74" r="2"/>
<circle clip-path="url(#clip711)" style="fill:#009af9; stroke:none; fill-opacity:0" cx="850.972" cy="1275.41" r="2"/>
<circle clip-path="url(#clip711)" style="fill:#009af9; stroke:none; fill-opacity:0" cx="874.276" cy="1277.04" r="2"/>
<circle clip-path="url(#clip711)" style="fill:#009af9; stroke:none; fill-opacity:0" cx="897.58" cy="1287.64" r="2"/>
<circle clip-path="url(#clip711)" style="fill:#009af9; stroke:none; fill-opacity:0" cx="920.883" cy="1284.79" r="2"/>
<circle clip-path="url(#clip711)" style="fill:#009af9; stroke:none; fill-opacity:0" cx="944.187" cy="1289.27" r="2"/>
<circle clip-path="url(#clip711)" style="fill:#009af9; stroke:none; fill-opacity:0" cx="967.491" cy="1273.37" r="2"/>
<circle clip-path="url(#clip711)" style="fill:#009af9; stroke:none; fill-opacity:0" cx="990.794" cy="1276.22" r="2"/>
<circle clip-path="url(#clip711)" style="fill:#009af9; stroke:none; fill-opacity:0" cx="1014.1" cy="1270.51" r="2"/>
<circle clip-path="url(#clip711)" style="fill:#009af9; stroke:none; fill-opacity:0" cx="1037.4" cy="1279.08" r="2"/>
<circle clip-path="url(#clip711)" style="fill:#009af9; stroke:none; fill-opacity:0" cx="1060.71" cy="1283.97" r="2"/>
<circle clip-path="url(#clip711)" style="fill:#009af9; stroke:none; fill-opacity:0" cx="1084.01" cy="1047.88" r="2"/>
<circle clip-path="url(#clip711)" style="fill:#009af9; stroke:none; fill-opacity:0" cx="1107.31" cy="1048.29" r="2"/>
<circle clip-path="url(#clip711)" style="fill:#009af9; stroke:none; fill-opacity:0" cx="1130.62" cy="1048.29" r="2"/>
<circle clip-path="url(#clip711)" style="fill:#009af9; stroke:none; fill-opacity:0" cx="1153.92" cy="1051.55" r="2"/>
<circle clip-path="url(#clip711)" style="fill:#009af9; stroke:none; fill-opacity:0" cx="1177.22" cy="1042.58" r="2"/>
<circle clip-path="url(#clip711)" style="fill:#009af9; stroke:none; fill-opacity:0" cx="1200.53" cy="808.118" r="2"/>
<circle clip-path="url(#clip711)" style="fill:#009af9; stroke:none; fill-opacity:0" cx="1223.83" cy="807.303" r="2"/>
<circle clip-path="url(#clip711)" style="fill:#009af9; stroke:none; fill-opacity:0" cx="1247.14" cy="670.704" r="2"/>
<circle clip-path="url(#clip711)" style="fill:#009af9; stroke:none; fill-opacity:0" cx="1270.44" cy="535.329" r="2"/>
<circle clip-path="url(#clip711)" style="fill:#009af9; stroke:none; fill-opacity:0" cx="1293.74" cy="82.7189" r="2"/>
<circle clip-path="url(#clip711)" style="fill:#009af9; stroke:none; fill-opacity:0" cx="1317.05" cy="47.2441" r="2"/>
<circle clip-path="url(#clip711)" style="fill:#009af9; stroke:none; fill-opacity:0" cx="1340.35" cy="487.621" r="2"/>
<circle clip-path="url(#clip711)" style="fill:#009af9; stroke:none; fill-opacity:0" cx="1363.65" cy="691.5" r="2"/>
<circle clip-path="url(#clip711)" style="fill:#009af9; stroke:none; fill-opacity:0" cx="1386.96" cy="804.856" r="2"/>
<circle clip-path="url(#clip711)" style="fill:#009af9; stroke:none; fill-opacity:0" cx="1410.26" cy="815.458" r="2"/>
<circle clip-path="url(#clip711)" style="fill:#009af9; stroke:none; fill-opacity:0" cx="1433.56" cy="1025.86" r="2"/>
<circle clip-path="url(#clip711)" style="fill:#009af9; stroke:none; fill-opacity:0" cx="1456.87" cy="1036.87" r="2"/>
<circle clip-path="url(#clip711)" style="fill:#009af9; stroke:none; fill-opacity:0" cx="1480.17" cy="1021.38" r="2"/>
<circle clip-path="url(#clip711)" style="fill:#009af9; stroke:none; fill-opacity:0" cx="1503.48" cy="1040.13" r="2"/>
<circle clip-path="url(#clip711)" style="fill:#009af9; stroke:none; fill-opacity:0" cx="1526.78" cy="1031.57" r="2"/>
<circle clip-path="url(#clip711)" style="fill:#009af9; stroke:none; fill-opacity:0" cx="1550.08" cy="1290.49" r="2"/>
<circle clip-path="url(#clip711)" style="fill:#009af9; stroke:none; fill-opacity:0" cx="1573.39" cy="1283.56" r="2"/>
<circle clip-path="url(#clip711)" style="fill:#009af9; stroke:none; fill-opacity:0" cx="1596.69" cy="1287.64" r="2"/>
<circle clip-path="url(#clip711)" style="fill:#009af9; stroke:none; fill-opacity:0" cx="1619.99" cy="1272.15" r="2"/>
<circle clip-path="url(#clip711)" style="fill:#009af9; stroke:none; fill-opacity:0" cx="1643.3" cy="1272.15" r="2"/>
<circle clip-path="url(#clip711)" style="fill:#009af9; stroke:none; fill-opacity:0" cx="1666.6" cy="1281.12" r="2"/>
<circle clip-path="url(#clip711)" style="fill:#009af9; stroke:none; fill-opacity:0" cx="1689.91" cy="1272.15" r="2"/>
<circle clip-path="url(#clip711)" style="fill:#009af9; stroke:none; fill-opacity:0" cx="1713.21" cy="1266.44" r="2"/>
<circle clip-path="url(#clip711)" style="fill:#009af9; stroke:none; fill-opacity:0" cx="1736.51" cy="1272.15" r="2"/>
<circle clip-path="url(#clip711)" style="fill:#009af9; stroke:none; fill-opacity:0" cx="1759.82" cy="1279.08" r="2"/>
<circle clip-path="url(#clip711)" style="fill:#009af9; stroke:none; fill-opacity:0" cx="1783.12" cy="1450.74" r="2"/>
<circle clip-path="url(#clip711)" style="fill:#009af9; stroke:none; fill-opacity:0" cx="1806.42" cy="1450.74" r="2"/>
<circle clip-path="url(#clip711)" style="fill:#009af9; stroke:none; fill-opacity:0" cx="1829.73" cy="1450.74" r="2"/>
<circle clip-path="url(#clip711)" style="fill:#009af9; stroke:none; fill-opacity:0" cx="1853.03" cy="1450.74" r="2"/>
<circle clip-path="url(#clip711)" style="fill:#009af9; stroke:none; fill-opacity:0" cx="1876.34" cy="1450.74" r="2"/>
<circle clip-path="url(#clip711)" style="fill:#009af9; stroke:none; fill-opacity:0" cx="1899.64" cy="1450.74" r="2"/>
<circle clip-path="url(#clip711)" style="fill:#009af9; stroke:none; fill-opacity:0" cx="1922.94" cy="1450.74" r="2"/>
<circle clip-path="url(#clip711)" style="fill:#009af9; stroke:none; fill-opacity:0" cx="1946.25" cy="1450.74" r="2"/>
<circle clip-path="url(#clip711)" style="fill:#009af9; stroke:none; fill-opacity:0" cx="1969.55" cy="1450.74" r="2"/>
<circle clip-path="url(#clip711)" style="fill:#009af9; stroke:none; fill-opacity:0" cx="1992.85" cy="1450.74" r="2"/>
<circle clip-path="url(#clip711)" style="fill:#009af9; stroke:none; fill-opacity:0" cx="2016.16" cy="1450.74" r="2"/>
<circle clip-path="url(#clip711)" style="fill:#009af9; stroke:none; fill-opacity:0" cx="2039.46" cy="1450.74" r="2"/>
<circle clip-path="url(#clip711)" style="fill:#009af9; stroke:none; fill-opacity:0" cx="2062.76" cy="1450.74" r="2"/>
<circle clip-path="url(#clip711)" style="fill:#009af9; stroke:none; fill-opacity:0" cx="2086.07" cy="1450.74" r="2"/>
<circle clip-path="url(#clip711)" style="fill:#009af9; stroke:none; fill-opacity:0" cx="2109.37" cy="1450.74" r="2"/>
<circle clip-path="url(#clip711)" style="fill:#009af9; stroke:none; fill-opacity:0" cx="2132.68" cy="1450.74" r="2"/>
<circle clip-path="url(#clip711)" style="fill:#009af9; stroke:none; fill-opacity:0" cx="2155.98" cy="1450.74" r="2"/>
<circle clip-path="url(#clip711)" style="fill:#009af9; stroke:none; fill-opacity:0" cx="2179.28" cy="1450.74" r="2"/>
<circle clip-path="url(#clip711)" style="fill:#009af9; stroke:none; fill-opacity:0" cx="2202.59" cy="1450.74" r="2"/>
<circle clip-path="url(#clip711)" style="fill:#009af9; stroke:none; fill-opacity:0" cx="2225.89" cy="1450.74" r="2"/>
</svg>
