<?xml version="1.0" encoding="utf-8"?>
<svg xmlns="http://www.w3.org/2000/svg" xmlns:xlink="http://www.w3.org/1999/xlink" width="600" height="400" viewBox="0 0 2400 1600">
<defs>
  <clipPath id="clip650">
    <rect x="0" y="0" width="2400" height="1600"/>
  </clipPath>
</defs>
<path clip-path="url(#clip650)" d="M0 1600 L2400 1600 L2400 0 L0 0  Z" fill="#ffffff" fill-rule="evenodd" fill-opacity="1"/>
<defs>
  <clipPath id="clip651">
    <rect x="329" y="847" width="2024" height="529"/>
  </clipPath>
</defs>
<path clip-path="url(#clip650)" d="M329.714 575.66 L2352.76 575.66 L2352.76 47.2441 L329.714 47.2441  Z" fill="#ffffff" fill-rule="evenodd" fill-opacity="1"/>
<defs>
  <clipPath id="clip652">
    <rect x="329" y="47" width="2024" height="529"/>
  </clipPath>
</defs>
<polyline clip-path="url(#clip652)" style="stroke:#000000; stroke-linecap:round; stroke-linejoin:round; stroke-width:2; stroke-opacity:0.1; fill:none" points="386.97,575.66 386.97,47.2441 "/>
<polyline clip-path="url(#clip652)" style="stroke:#000000; stroke-linecap:round; stroke-linejoin:round; stroke-width:2; stroke-opacity:0.1; fill:none" points="1331.6,575.66 1331.6,47.2441 "/>
<polyline clip-path="url(#clip652)" style="stroke:#000000; stroke-linecap:round; stroke-linejoin:round; stroke-width:2; stroke-opacity:0.1; fill:none" points="2295.5,575.66 2295.5,47.2441 "/>
<polyline clip-path="url(#clip652)" style="stroke:#000000; stroke-linecap:round; stroke-linejoin:round; stroke-width:2; stroke-opacity:0.1; fill:none" points="329.714,551.118 2352.76,551.118 "/>
<polyline clip-path="url(#clip652)" style="stroke:#000000; stroke-linecap:round; stroke-linejoin:round; stroke-width:2; stroke-opacity:0.1; fill:none" points="329.714,71.7859 2352.76,71.7859 "/>
<polyline clip-path="url(#clip650)" style="stroke:#000000; stroke-linecap:round; stroke-linejoin:round; stroke-width:4; stroke-opacity:1; fill:none" points="329.714,575.66 2352.76,575.66 "/>
<polyline clip-path="url(#clip650)" style="stroke:#000000; stroke-linecap:round; stroke-linejoin:round; stroke-width:4; stroke-opacity:1; fill:none" points="386.97,575.66 386.97,556.762 "/>
<polyline clip-path="url(#clip650)" style="stroke:#000000; stroke-linecap:round; stroke-linejoin:round; stroke-width:4; stroke-opacity:1; fill:none" points="1331.6,575.66 1331.6,556.762 "/>
<polyline clip-path="url(#clip650)" style="stroke:#000000; stroke-linecap:round; stroke-linejoin:round; stroke-width:4; stroke-opacity:1; fill:none" points="2295.5,575.66 2295.5,556.762 "/>
<path clip-path="url(#clip650)" d="M372.542 653.757 L384.001 653.757 L384.001 614.209 L371.536 616.709 L371.536 610.32 L383.931 607.82 L390.945 607.82 L390.945 653.757 L402.403 653.757 L402.403 659.66 L372.542 659.66 L372.542 653.757 Z" fill="#000000" fill-rule="nonzero" fill-opacity="1" /><path clip-path="url(#clip650)" d="M1293.64 607.82 L1321.18 607.82 L1321.18 613.723 L1300.07 613.723 L1300.07 626.431 Q1301.6 625.91 1303.12 625.667 Q1304.65 625.389 1306.18 625.389 Q1314.86 625.389 1319.93 630.146 Q1325 634.903 1325 643.028 Q1325 651.396 1319.79 656.049 Q1314.58 660.667 1305.1 660.667 Q1301.84 660.667 1298.44 660.111 Q1295.07 659.556 1291.46 658.445 L1291.46 651.396 Q1294.58 653.097 1297.92 653.931 Q1301.25 654.764 1304.96 654.764 Q1310.97 654.764 1314.48 651.604 Q1317.98 648.445 1317.98 643.028 Q1317.98 637.611 1314.48 634.452 Q1310.97 631.292 1304.96 631.292 Q1302.15 631.292 1299.34 631.917 Q1296.56 632.542 1293.64 633.861 L1293.64 607.82 Z" fill="#000000" fill-rule="nonzero" fill-opacity="1" /><path clip-path="url(#clip650)" d="M1353.82 612.438 Q1348.4 612.438 1345.66 617.785 Q1342.95 623.098 1342.95 633.792 Q1342.95 644.452 1345.66 649.799 Q1348.4 655.111 1353.82 655.111 Q1359.27 655.111 1361.98 649.799 Q1364.72 644.452 1364.72 633.792 Q1364.72 623.098 1361.98 617.785 Q1359.27 612.438 1353.82 612.438 M1353.82 606.882 Q1362.53 606.882 1367.12 613.792 Q1371.73 620.667 1371.73 633.792 Q1371.73 646.882 1367.12 653.792 Q1362.53 660.667 1353.82 660.667 Q1345.1 660.667 1340.48 653.792 Q1335.9 646.882 1335.9 633.792 Q1335.9 620.667 1340.48 613.792 Q1345.1 606.882 1353.82 606.882 Z" fill="#000000" fill-rule="nonzero" fill-opacity="1" /><path clip-path="url(#clip650)" d="M2234.91 653.757 L2246.37 653.757 L2246.37 614.209 L2233.9 616.709 L2233.9 610.32 L2246.3 607.82 L2253.31 607.82 L2253.31 653.757 L2264.77 653.757 L2264.77 659.66 L2234.91 659.66 L2234.91 653.757 Z" fill="#000000" fill-rule="nonzero" fill-opacity="1" /><path clip-path="url(#clip650)" d="M2293.94 612.438 Q2288.52 612.438 2285.78 617.785 Q2283.07 623.098 2283.07 633.792 Q2283.07 644.452 2285.78 649.799 Q2288.52 655.111 2293.94 655.111 Q2299.39 655.111 2302.1 649.799 Q2304.84 644.452 2304.84 633.792 Q2304.84 623.098 2302.1 617.785 Q2299.39 612.438 2293.94 612.438 M2293.94 606.882 Q2302.65 606.882 2307.24 613.792 Q2311.85 620.667 2311.85 633.792 Q2311.85 646.882 2307.24 653.792 Q2302.65 660.667 2293.94 660.667 Q2285.22 660.667 2280.6 653.792 Q2276.02 646.882 2276.02 633.792 Q2276.02 620.667 2280.6 613.792 Q2285.22 606.882 2293.94 606.882 Z" fill="#000000" fill-rule="nonzero" fill-opacity="1" /><path clip-path="url(#clip650)" d="M2339.18 612.438 Q2333.76 612.438 2331.02 617.785 Q2328.31 623.098 2328.31 633.792 Q2328.31 644.452 2331.02 649.799 Q2333.76 655.111 2339.18 655.111 Q2344.63 655.111 2347.34 649.799 Q2350.08 644.452 2350.08 633.792 Q2350.08 623.098 2347.34 617.785 Q2344.63 612.438 2339.18 612.438 M2339.18 606.882 Q2347.9 606.882 2352.48 613.792 Q2357.1 620.667 2357.1 633.792 Q2357.1 646.882 2352.48 653.792 Q2347.9 660.667 2339.18 660.667 Q2330.47 660.667 2325.85 653.792 Q2321.26 646.882 2321.26 633.792 Q2321.26 620.667 2325.85 613.792 Q2330.47 606.882 2339.18 606.882 Z" fill="#000000" fill-rule="nonzero" fill-opacity="1" /><path clip-path="url(#clip650)" d="M1362.24 731.665 Q1362.24 734.669 1360.4 736.46 Q1358.61 738.252 1356.34 738.252 Q1354.34 738.252 1353.28 737.093 Q1352.23 735.933 1352.23 734.458 Q1352.23 733.825 1352.49 733.035 Q1352.76 732.192 1353.34 731.19 Q1353.97 730.189 1355.29 729.451 Q1356.6 728.713 1358.4 728.608 Q1358.03 728.239 1357.92 728.186 Q1357.13 727.554 1355.66 727.343 Q1355.44 727.238 1354.71 727.238 Q1351.07 727.238 1347.38 729.926 Q1343.75 732.561 1339.27 737.567 Q1333.63 743.417 1329.99 745.578 Q1345.96 747.686 1345.96 756.908 Q1345.96 758.436 1345.54 760.281 Q1344.69 763.759 1344.69 766.289 Q1344.69 771.348 1348.12 771.348 Q1351.44 771.348 1353.55 767.975 Q1355.71 764.602 1357.5 758.015 Q1357.76 756.803 1358.03 756.434 Q1358.29 756.065 1359.03 756.065 Q1360.35 756.065 1360.35 757.119 Q1359.13 763.285 1356.45 768.028 Q1353.02 773.772 1347.91 773.772 Q1343.64 773.772 1340.79 770.821 Q1338 767.817 1338 763.074 Q1338 761.915 1338.42 759.28 Q1338.74 758.226 1338.74 757.014 Q1338.74 754.537 1337.37 752.692 Q1336 750.795 1333.79 749.846 Q1331.57 748.898 1329.73 748.476 Q1327.94 748.002 1326.2 747.844 Q1320.93 770.136 1320.19 771.506 Q1319.71 772.455 1318.66 773.087 Q1317.61 773.772 1316.5 773.772 Q1315.45 773.772 1314.39 773.035 Q1313.39 772.349 1313.39 770.716 Q1313.39 769.872 1313.81 768.344 L1329.46 706.158 L1329.78 704.05 Q1329.78 703.417 1329.52 703.101 Q1329.31 702.732 1328.04 702.469 Q1326.83 702.205 1324.4 702.205 Q1323.4 702.205 1322.93 702.152 Q1322.51 702.1 1322.14 701.836 Q1321.77 701.52 1321.77 700.888 Q1321.77 699.992 1322.14 699.517 Q1322.56 698.99 1322.88 698.885 Q1323.19 698.78 1323.82 698.727 Q1324.72 698.674 1327.72 698.411 Q1330.73 698.094 1333.31 697.884 Q1335.89 697.673 1337 697.673 Q1337.63 697.673 1337.95 697.989 Q1338.32 698.253 1338.37 698.569 L1338.42 698.832 L1327.2 744.365 Q1331.84 742.521 1339.16 734.352 Q1347.65 724.866 1354.92 724.866 Q1358.34 724.866 1360.29 726.974 Q1362.24 729.03 1362.24 731.665 Z" fill="#000000" fill-rule="nonzero" fill-opacity="1" /><polyline clip-path="url(#clip650)" style="stroke:#000000; stroke-linecap:round; stroke-linejoin:round; stroke-width:4; stroke-opacity:1; fill:none" points="329.714,575.66 329.714,47.2441 "/>
<polyline clip-path="url(#clip650)" style="stroke:#000000; stroke-linecap:round; stroke-linejoin:round; stroke-width:4; stroke-opacity:1; fill:none" points="329.714,551.118 348.611,551.118 "/>
<polyline clip-path="url(#clip650)" style="stroke:#000000; stroke-linecap:round; stroke-linejoin:round; stroke-width:4; stroke-opacity:1; fill:none" points="329.714,71.7859 348.611,71.7859 "/>
<path clip-path="url(#clip650)" d="M275.797 529.816 Q270.38 529.816 267.637 535.163 Q264.929 540.476 264.929 551.17 Q264.929 561.83 267.637 567.177 Q270.38 572.489 275.797 572.489 Q281.248 572.489 283.957 567.177 Q286.7 561.83 286.7 551.17 Q286.7 540.476 283.957 535.163 Q281.248 529.816 275.797 529.816 M275.797 524.261 Q284.512 524.261 289.096 531.17 Q293.714 538.045 293.714 551.17 Q293.714 564.26 289.096 571.17 Q284.512 578.045 275.797 578.045 Q267.082 578.045 262.464 571.17 Q257.88 564.26 257.88 551.17 Q257.88 538.045 262.464 531.17 Q267.082 524.261 275.797 524.261 Z" fill="#000000" fill-rule="nonzero" fill-opacity="1" /><path clip-path="url(#clip650)" d="M263.853 91.8032 L275.311 91.8032 L275.311 52.2548 L262.846 54.7547 L262.846 48.3659 L275.241 45.8659 L282.255 45.8659 L282.255 91.8032 L293.714 91.8032 L293.714 97.7059 L263.853 97.7059 L263.853 91.8032 Z" fill="#000000" fill-rule="nonzero" fill-opacity="1" /><path clip-path="url(#clip650)" d="M137.72 311.086 Q141.409 311.086 141.409 316.356 L141.409 328.214 Q146.152 324.894 153.162 324.894 Q159.169 324.894 164.808 327.371 Q170.395 329.795 174.294 333.695 Q178.194 337.542 180.566 342.39 Q182.885 347.239 182.885 351.982 Q182.885 359.202 177.984 363.681 Q173.082 368.161 165.81 368.161 Q161.963 368.161 157.694 366.844 Q153.425 365.473 149.473 362.891 Q145.467 360.309 142.253 356.936 Q139.038 353.51 137.088 349.083 Q135.138 344.604 135.138 339.914 L135.138 315.302 Q135.138 313.985 135.243 313.3 Q135.296 312.562 135.929 311.824 Q136.508 311.086 137.72 311.086 M151.897 331.798 Q150.632 331.798 149.525 331.956 Q148.366 332.114 146.838 332.694 Q145.257 333.273 144.15 334.275 Q142.99 335.276 142.2 337.226 Q141.409 339.123 141.409 341.705 Q141.409 345.342 143.412 349.347 Q145.415 353.352 150.368 356.409 Q154.585 358.938 160.065 360.203 Q165.546 361.468 168.814 361.468 Q174.4 361.468 177.457 358.78 Q180.46 356.04 180.46 351.877 Q180.46 348.451 178.142 344.551 Q175.77 340.651 171.291 337.647 Q167.391 335.012 161.699 333.431 Q156.007 331.798 151.897 331.798 Z" fill="#000000" fill-rule="nonzero" fill-opacity="1" /><path clip-path="url(#clip650)" d="M185.401 265.928 Q187.504 265.928 188.758 267.219 Q190.012 268.473 190.012 270.06 Q190.012 271.462 189.201 272.199 Q188.389 272.937 187.356 272.937 Q186.913 272.937 186.36 272.753 Q185.77 272.568 185.069 272.163 Q184.368 271.72 183.852 270.798 Q183.335 269.875 183.261 268.621 Q183.003 268.879 182.966 268.953 Q182.524 269.506 182.376 270.539 Q182.302 270.687 182.302 271.203 Q182.302 273.749 184.184 276.331 Q186.028 278.877 189.533 282.012 Q193.628 285.96 195.14 288.505 Q196.616 277.327 203.071 277.327 Q204.141 277.327 205.432 277.622 Q207.867 278.213 209.638 278.213 Q213.179 278.213 213.179 275.815 Q213.179 273.491 210.818 272.015 Q208.457 270.502 203.846 269.248 Q202.998 269.064 202.739 268.879 Q202.481 268.695 202.481 268.178 Q202.481 267.256 203.219 267.256 Q207.535 268.105 210.855 269.986 Q214.876 272.384 214.876 275.962 Q214.876 278.95 212.811 280.942 Q210.708 282.898 207.388 282.898 Q206.576 282.898 204.732 282.602 Q203.994 282.381 203.145 282.381 Q201.411 282.381 200.12 283.34 Q198.792 284.299 198.128 285.849 Q197.464 287.398 197.169 288.689 Q196.837 289.944 196.726 291.161 Q212.331 294.85 213.29 295.367 Q213.954 295.699 214.397 296.436 Q214.876 297.174 214.876 297.949 Q214.876 298.687 214.36 299.424 Q213.88 300.125 212.737 300.125 Q212.146 300.125 211.077 299.83 L167.546 288.874 L166.07 288.653 Q165.628 288.653 165.406 288.837 Q165.148 288.985 164.964 289.87 Q164.779 290.718 164.779 292.415 Q164.779 293.116 164.742 293.448 Q164.705 293.743 164.521 294.002 Q164.3 294.26 163.857 294.26 Q163.23 294.26 162.898 294.002 Q162.529 293.706 162.455 293.485 Q162.381 293.264 162.345 292.821 Q162.308 292.194 162.123 290.091 Q161.902 287.988 161.754 286.181 Q161.607 284.373 161.607 283.599 Q161.607 283.156 161.828 282.935 Q162.012 282.676 162.234 282.639 L162.418 282.602 L194.292 290.46 Q193 287.214 187.282 282.086 Q180.642 276.147 180.642 271.056 Q180.642 268.658 182.118 267.293 Q183.556 265.928 185.401 265.928 Z" fill="#000000" fill-rule="nonzero" fill-opacity="1" /><circle clip-path="url(#clip652)" cx="386.97" cy="71.7858" r="21.6" fill="#0000ff" fill-rule="evenodd" fill-opacity="1" stroke="none"/>
<circle clip-path="url(#clip652)" cx="406.248" cy="551.118" r="21.6" fill="#0000ff" fill-rule="evenodd" fill-opacity="1" stroke="none"/>
<circle clip-path="url(#clip652)" cx="425.526" cy="551.118" r="21.6" fill="#0000ff" fill-rule="evenodd" fill-opacity="1" stroke="none"/>
<circle clip-path="url(#clip652)" cx="444.804" cy="551.118" r="21.6" fill="#0000ff" fill-rule="evenodd" fill-opacity="1" stroke="none"/>
<circle clip-path="url(#clip652)" cx="464.082" cy="551.118" r="21.6" fill="#0000ff" fill-rule="evenodd" fill-opacity="1" stroke="none"/>
<circle clip-path="url(#clip652)" cx="483.36" cy="551.118" r="21.6" fill="#0000ff" fill-rule="evenodd" fill-opacity="1" stroke="none"/>
<circle clip-path="url(#clip652)" cx="502.638" cy="551.118" r="21.6" fill="#0000ff" fill-rule="evenodd" fill-opacity="1" stroke="none"/>
<circle clip-path="url(#clip652)" cx="521.916" cy="551.118" r="21.6" fill="#0000ff" fill-rule="evenodd" fill-opacity="1" stroke="none"/>
<circle clip-path="url(#clip652)" cx="541.194" cy="551.118" r="21.6" fill="#0000ff" fill-rule="evenodd" fill-opacity="1" stroke="none"/>
<circle clip-path="url(#clip652)" cx="560.472" cy="551.118" r="21.6" fill="#0000ff" fill-rule="evenodd" fill-opacity="1" stroke="none"/>
<circle clip-path="url(#clip652)" cx="579.75" cy="551.118" r="21.6" fill="#0000ff" fill-rule="evenodd" fill-opacity="1" stroke="none"/>
<circle clip-path="url(#clip652)" cx="599.028" cy="551.118" r="21.6" fill="#0000ff" fill-rule="evenodd" fill-opacity="1" stroke="none"/>
<circle clip-path="url(#clip652)" cx="618.307" cy="551.118" r="21.6" fill="#0000ff" fill-rule="evenodd" fill-opacity="1" stroke="none"/>
<circle clip-path="url(#clip652)" cx="637.585" cy="551.118" r="21.6" fill="#0000ff" fill-rule="evenodd" fill-opacity="1" stroke="none"/>
<circle clip-path="url(#clip652)" cx="656.863" cy="551.118" r="21.6" fill="#0000ff" fill-rule="evenodd" fill-opacity="1" stroke="none"/>
<circle clip-path="url(#clip652)" cx="676.141" cy="551.118" r="21.6" fill="#0000ff" fill-rule="evenodd" fill-opacity="1" stroke="none"/>
<circle clip-path="url(#clip652)" cx="695.419" cy="551.118" r="21.6" fill="#0000ff" fill-rule="evenodd" fill-opacity="1" stroke="none"/>
<circle clip-path="url(#clip652)" cx="714.697" cy="551.118" r="21.6" fill="#0000ff" fill-rule="evenodd" fill-opacity="1" stroke="none"/>
<circle clip-path="url(#clip652)" cx="733.975" cy="551.118" r="21.6" fill="#0000ff" fill-rule="evenodd" fill-opacity="1" stroke="none"/>
<circle clip-path="url(#clip652)" cx="753.253" cy="551.118" r="21.6" fill="#0000ff" fill-rule="evenodd" fill-opacity="1" stroke="none"/>
<circle clip-path="url(#clip652)" cx="772.531" cy="551.118" r="21.6" fill="#0000ff" fill-rule="evenodd" fill-opacity="1" stroke="none"/>
<circle clip-path="url(#clip652)" cx="791.809" cy="551.118" r="21.6" fill="#0000ff" fill-rule="evenodd" fill-opacity="1" stroke="none"/>
<circle clip-path="url(#clip652)" cx="811.087" cy="551.118" r="21.6" fill="#0000ff" fill-rule="evenodd" fill-opacity="1" stroke="none"/>
<circle clip-path="url(#clip652)" cx="830.365" cy="551.118" r="21.6" fill="#0000ff" fill-rule="evenodd" fill-opacity="1" stroke="none"/>
<circle clip-path="url(#clip652)" cx="849.644" cy="551.118" r="21.6" fill="#0000ff" fill-rule="evenodd" fill-opacity="1" stroke="none"/>
<circle clip-path="url(#clip652)" cx="868.922" cy="551.118" r="21.6" fill="#0000ff" fill-rule="evenodd" fill-opacity="1" stroke="none"/>
<circle clip-path="url(#clip652)" cx="888.2" cy="551.118" r="21.6" fill="#0000ff" fill-rule="evenodd" fill-opacity="1" stroke="none"/>
<circle clip-path="url(#clip652)" cx="907.478" cy="551.118" r="21.6" fill="#0000ff" fill-rule="evenodd" fill-opacity="1" stroke="none"/>
<circle clip-path="url(#clip652)" cx="926.756" cy="551.118" r="21.6" fill="#0000ff" fill-rule="evenodd" fill-opacity="1" stroke="none"/>
<circle clip-path="url(#clip652)" cx="946.034" cy="551.118" r="21.6" fill="#0000ff" fill-rule="evenodd" fill-opacity="1" stroke="none"/>
<circle clip-path="url(#clip652)" cx="965.312" cy="551.118" r="21.6" fill="#0000ff" fill-rule="evenodd" fill-opacity="1" stroke="none"/>
<circle clip-path="url(#clip652)" cx="984.59" cy="551.118" r="21.6" fill="#0000ff" fill-rule="evenodd" fill-opacity="1" stroke="none"/>
<circle clip-path="url(#clip652)" cx="1003.87" cy="551.118" r="21.6" fill="#0000ff" fill-rule="evenodd" fill-opacity="1" stroke="none"/>
<circle clip-path="url(#clip652)" cx="1023.15" cy="551.118" r="21.6" fill="#0000ff" fill-rule="evenodd" fill-opacity="1" stroke="none"/>
<circle clip-path="url(#clip652)" cx="1042.42" cy="551.118" r="21.6" fill="#0000ff" fill-rule="evenodd" fill-opacity="1" stroke="none"/>
<circle clip-path="url(#clip652)" cx="1061.7" cy="551.118" r="21.6" fill="#0000ff" fill-rule="evenodd" fill-opacity="1" stroke="none"/>
<circle clip-path="url(#clip652)" cx="1080.98" cy="551.118" r="21.6" fill="#0000ff" fill-rule="evenodd" fill-opacity="1" stroke="none"/>
<circle clip-path="url(#clip652)" cx="1100.26" cy="551.118" r="21.6" fill="#0000ff" fill-rule="evenodd" fill-opacity="1" stroke="none"/>
<circle clip-path="url(#clip652)" cx="1119.54" cy="551.118" r="21.6" fill="#0000ff" fill-rule="evenodd" fill-opacity="1" stroke="none"/>
<circle clip-path="url(#clip652)" cx="1138.81" cy="551.118" r="21.6" fill="#0000ff" fill-rule="evenodd" fill-opacity="1" stroke="none"/>
<circle clip-path="url(#clip652)" cx="1158.09" cy="551.118" r="21.6" fill="#0000ff" fill-rule="evenodd" fill-opacity="1" stroke="none"/>
<circle clip-path="url(#clip652)" cx="1177.37" cy="551.118" r="21.6" fill="#0000ff" fill-rule="evenodd" fill-opacity="1" stroke="none"/>
<circle clip-path="url(#clip652)" cx="1196.65" cy="551.118" r="21.6" fill="#0000ff" fill-rule="evenodd" fill-opacity="1" stroke="none"/>
<circle clip-path="url(#clip652)" cx="1215.93" cy="551.118" r="21.6" fill="#0000ff" fill-rule="evenodd" fill-opacity="1" stroke="none"/>
<circle clip-path="url(#clip652)" cx="1235.21" cy="551.118" r="21.6" fill="#0000ff" fill-rule="evenodd" fill-opacity="1" stroke="none"/>
<circle clip-path="url(#clip652)" cx="1254.48" cy="551.118" r="21.6" fill="#0000ff" fill-rule="evenodd" fill-opacity="1" stroke="none"/>
<circle clip-path="url(#clip652)" cx="1273.76" cy="551.118" r="21.6" fill="#0000ff" fill-rule="evenodd" fill-opacity="1" stroke="none"/>
<circle clip-path="url(#clip652)" cx="1293.04" cy="551.118" r="21.6" fill="#0000ff" fill-rule="evenodd" fill-opacity="1" stroke="none"/>
<circle clip-path="url(#clip652)" cx="1312.32" cy="551.118" r="21.6" fill="#0000ff" fill-rule="evenodd" fill-opacity="1" stroke="none"/>
<circle clip-path="url(#clip652)" cx="1331.6" cy="551.118" r="21.6" fill="#0000ff" fill-rule="evenodd" fill-opacity="1" stroke="none"/>
<circle clip-path="url(#clip652)" cx="1350.87" cy="551.118" r="21.6" fill="#0000ff" fill-rule="evenodd" fill-opacity="1" stroke="none"/>
<circle clip-path="url(#clip652)" cx="1370.15" cy="551.118" r="21.6" fill="#0000ff" fill-rule="evenodd" fill-opacity="1" stroke="none"/>
<circle clip-path="url(#clip652)" cx="1389.43" cy="551.118" r="21.6" fill="#0000ff" fill-rule="evenodd" fill-opacity="1" stroke="none"/>
<circle clip-path="url(#clip652)" cx="1408.71" cy="551.118" r="21.6" fill="#0000ff" fill-rule="evenodd" fill-opacity="1" stroke="none"/>
<circle clip-path="url(#clip652)" cx="1427.99" cy="551.118" r="21.6" fill="#0000ff" fill-rule="evenodd" fill-opacity="1" stroke="none"/>
<circle clip-path="url(#clip652)" cx="1447.26" cy="551.118" r="21.6" fill="#0000ff" fill-rule="evenodd" fill-opacity="1" stroke="none"/>
<circle clip-path="url(#clip652)" cx="1466.54" cy="551.118" r="21.6" fill="#0000ff" fill-rule="evenodd" fill-opacity="1" stroke="none"/>
<circle clip-path="url(#clip652)" cx="1485.82" cy="551.118" r="21.6" fill="#0000ff" fill-rule="evenodd" fill-opacity="1" stroke="none"/>
<circle clip-path="url(#clip652)" cx="1505.1" cy="551.118" r="21.6" fill="#0000ff" fill-rule="evenodd" fill-opacity="1" stroke="none"/>
<circle clip-path="url(#clip652)" cx="1524.38" cy="551.118" r="21.6" fill="#0000ff" fill-rule="evenodd" fill-opacity="1" stroke="none"/>
<circle clip-path="url(#clip652)" cx="1543.65" cy="551.118" r="21.6" fill="#0000ff" fill-rule="evenodd" fill-opacity="1" stroke="none"/>
<circle clip-path="url(#clip652)" cx="1562.93" cy="551.118" r="21.6" fill="#0000ff" fill-rule="evenodd" fill-opacity="1" stroke="none"/>
<circle clip-path="url(#clip652)" cx="1582.21" cy="551.118" r="21.6" fill="#0000ff" fill-rule="evenodd" fill-opacity="1" stroke="none"/>
<circle clip-path="url(#clip652)" cx="1601.49" cy="551.118" r="21.6" fill="#0000ff" fill-rule="evenodd" fill-opacity="1" stroke="none"/>
<circle clip-path="url(#clip652)" cx="1620.77" cy="551.118" r="21.6" fill="#0000ff" fill-rule="evenodd" fill-opacity="1" stroke="none"/>
<circle clip-path="url(#clip652)" cx="1640.05" cy="551.118" r="21.6" fill="#0000ff" fill-rule="evenodd" fill-opacity="1" stroke="none"/>
<circle clip-path="url(#clip652)" cx="1659.32" cy="551.118" r="21.6" fill="#0000ff" fill-rule="evenodd" fill-opacity="1" stroke="none"/>
<circle clip-path="url(#clip652)" cx="1678.6" cy="551.118" r="21.6" fill="#0000ff" fill-rule="evenodd" fill-opacity="1" stroke="none"/>
<circle clip-path="url(#clip652)" cx="1697.88" cy="551.118" r="21.6" fill="#0000ff" fill-rule="evenodd" fill-opacity="1" stroke="none"/>
<circle clip-path="url(#clip652)" cx="1717.16" cy="551.118" r="21.6" fill="#0000ff" fill-rule="evenodd" fill-opacity="1" stroke="none"/>
<circle clip-path="url(#clip652)" cx="1736.44" cy="551.118" r="21.6" fill="#0000ff" fill-rule="evenodd" fill-opacity="1" stroke="none"/>
<circle clip-path="url(#clip652)" cx="1755.71" cy="551.118" r="21.6" fill="#0000ff" fill-rule="evenodd" fill-opacity="1" stroke="none"/>
<circle clip-path="url(#clip652)" cx="1774.99" cy="551.118" r="21.6" fill="#0000ff" fill-rule="evenodd" fill-opacity="1" stroke="none"/>
<circle clip-path="url(#clip652)" cx="1794.27" cy="551.118" r="21.6" fill="#0000ff" fill-rule="evenodd" fill-opacity="1" stroke="none"/>
<circle clip-path="url(#clip652)" cx="1813.55" cy="551.118" r="21.6" fill="#0000ff" fill-rule="evenodd" fill-opacity="1" stroke="none"/>
<circle clip-path="url(#clip652)" cx="1832.83" cy="551.118" r="21.6" fill="#0000ff" fill-rule="evenodd" fill-opacity="1" stroke="none"/>
<circle clip-path="url(#clip652)" cx="1852.1" cy="551.118" r="21.6" fill="#0000ff" fill-rule="evenodd" fill-opacity="1" stroke="none"/>
<circle clip-path="url(#clip652)" cx="1871.38" cy="551.118" r="21.6" fill="#0000ff" fill-rule="evenodd" fill-opacity="1" stroke="none"/>
<circle clip-path="url(#clip652)" cx="1890.66" cy="551.118" r="21.6" fill="#0000ff" fill-rule="evenodd" fill-opacity="1" stroke="none"/>
<circle clip-path="url(#clip652)" cx="1909.94" cy="551.118" r="21.6" fill="#0000ff" fill-rule="evenodd" fill-opacity="1" stroke="none"/>
<circle clip-path="url(#clip652)" cx="1929.22" cy="551.118" r="21.6" fill="#0000ff" fill-rule="evenodd" fill-opacity="1" stroke="none"/>
<circle clip-path="url(#clip652)" cx="1948.49" cy="551.118" r="21.6" fill="#0000ff" fill-rule="evenodd" fill-opacity="1" stroke="none"/>
<circle clip-path="url(#clip652)" cx="1967.77" cy="551.118" r="21.6" fill="#0000ff" fill-rule="evenodd" fill-opacity="1" stroke="none"/>
<circle clip-path="url(#clip652)" cx="1987.05" cy="551.118" r="21.6" fill="#0000ff" fill-rule="evenodd" fill-opacity="1" stroke="none"/>
<circle clip-path="url(#clip652)" cx="2006.33" cy="551.118" r="21.6" fill="#0000ff" fill-rule="evenodd" fill-opacity="1" stroke="none"/>
<circle clip-path="url(#clip652)" cx="2025.61" cy="551.118" r="21.6" fill="#0000ff" fill-rule="evenodd" fill-opacity="1" stroke="none"/>
<circle clip-path="url(#clip652)" cx="2044.88" cy="551.118" r="21.6" fill="#0000ff" fill-rule="evenodd" fill-opacity="1" stroke="none"/>
<circle clip-path="url(#clip652)" cx="2064.16" cy="551.118" r="21.6" fill="#0000ff" fill-rule="evenodd" fill-opacity="1" stroke="none"/>
<circle clip-path="url(#clip652)" cx="2083.44" cy="551.118" r="21.6" fill="#0000ff" fill-rule="evenodd" fill-opacity="1" stroke="none"/>
<circle clip-path="url(#clip652)" cx="2102.72" cy="551.118" r="21.6" fill="#0000ff" fill-rule="evenodd" fill-opacity="1" stroke="none"/>
<circle clip-path="url(#clip652)" cx="2122" cy="551.118" r="21.6" fill="#0000ff" fill-rule="evenodd" fill-opacity="1" stroke="none"/>
<circle clip-path="url(#clip652)" cx="2141.28" cy="551.118" r="21.6" fill="#0000ff" fill-rule="evenodd" fill-opacity="1" stroke="none"/>
<circle clip-path="url(#clip652)" cx="2160.55" cy="551.118" r="21.6" fill="#0000ff" fill-rule="evenodd" fill-opacity="1" stroke="none"/>
<circle clip-path="url(#clip652)" cx="2179.83" cy="551.118" r="21.6" fill="#0000ff" fill-rule="evenodd" fill-opacity="1" stroke="none"/>
<circle clip-path="url(#clip652)" cx="2199.11" cy="551.118" r="21.6" fill="#0000ff" fill-rule="evenodd" fill-opacity="1" stroke="none"/>
<circle clip-path="url(#clip652)" cx="2218.39" cy="551.118" r="21.6" fill="#0000ff" fill-rule="evenodd" fill-opacity="1" stroke="none"/>
<circle clip-path="url(#clip652)" cx="2237.67" cy="551.118" r="21.6" fill="#0000ff" fill-rule="evenodd" fill-opacity="1" stroke="none"/>
<circle clip-path="url(#clip652)" cx="2256.94" cy="551.118" r="21.6" fill="#0000ff" fill-rule="evenodd" fill-opacity="1" stroke="none"/>
<circle clip-path="url(#clip652)" cx="2276.22" cy="551.118" r="21.6" fill="#0000ff" fill-rule="evenodd" fill-opacity="1" stroke="none"/>
<circle clip-path="url(#clip652)" cx="2295.5" cy="551.118" r="21.6" fill="#0000ff" fill-rule="evenodd" fill-opacity="1" stroke="none"/>
<path clip-path="url(#clip650)" d="M329.714 1375.66 L2352.76 1375.66 L2352.76 847.244 L329.714 847.244  Z" fill="#ffffff" fill-rule="evenodd" fill-opacity="1"/>
<polyline clip-path="url(#clip651)" style="stroke:#000000; stroke-linecap:round; stroke-linejoin:round; stroke-width:2; stroke-opacity:0.1; fill:none" points="406.248,1375.66 406.248,847.244 "/>
<polyline clip-path="url(#clip651)" style="stroke:#000000; stroke-linecap:round; stroke-linejoin:round; stroke-width:2; stroke-opacity:0.1; fill:none" points="1331.6,1375.66 1331.6,847.244 "/>
<polyline clip-path="url(#clip651)" style="stroke:#000000; stroke-linecap:round; stroke-linejoin:round; stroke-width:2; stroke-opacity:0.1; fill:none" points="2295.5,1375.66 2295.5,847.244 "/>
<polyline clip-path="url(#clip651)" style="stroke:#000000; stroke-linecap:round; stroke-linejoin:round; stroke-width:2; stroke-opacity:0.1; fill:none" points="329.714,1360.7 2352.76,1360.7 "/>
<polyline clip-path="url(#clip651)" style="stroke:#000000; stroke-linecap:round; stroke-linejoin:round; stroke-width:2; stroke-opacity:0.1; fill:none" points="329.714,1123.32 2352.76,1123.32 "/>
<polyline clip-path="url(#clip651)" style="stroke:#000000; stroke-linecap:round; stroke-linejoin:round; stroke-width:2; stroke-opacity:0.1; fill:none" points="329.714,885.938 2352.76,885.938 "/>
<polyline clip-path="url(#clip650)" style="stroke:#000000; stroke-linecap:round; stroke-linejoin:round; stroke-width:4; stroke-opacity:1; fill:none" points="329.714,1375.66 2352.76,1375.66 "/>
<polyline clip-path="url(#clip650)" style="stroke:#000000; stroke-linecap:round; stroke-linejoin:round; stroke-width:4; stroke-opacity:1; fill:none" points="406.248,1375.66 406.248,1356.76 "/>
<polyline clip-path="url(#clip650)" style="stroke:#000000; stroke-linecap:round; stroke-linejoin:round; stroke-width:4; stroke-opacity:1; fill:none" points="1331.6,1375.66 1331.6,1356.76 "/>
<polyline clip-path="url(#clip650)" style="stroke:#000000; stroke-linecap:round; stroke-linejoin:round; stroke-width:4; stroke-opacity:1; fill:none" points="2295.5,1375.66 2295.5,1356.76 "/>
<path clip-path="url(#clip650)" d="M398.227 1453.76 L422.706 1453.76 L422.706 1459.66 L389.789 1459.66 L389.789 1453.76 Q393.782 1449.63 400.657 1442.68 Q407.567 1435.7 409.338 1433.69 Q412.706 1429.9 414.025 1427.3 Q415.379 1424.66 415.379 1422.13 Q415.379 1417.99 412.463 1415.39 Q409.581 1412.79 404.928 1412.79 Q401.63 1412.79 397.949 1413.93 Q394.303 1415.08 390.137 1417.4 L390.137 1410.32 Q394.373 1408.62 398.053 1407.75 Q401.734 1406.88 404.789 1406.88 Q412.845 1406.88 417.636 1410.91 Q422.428 1414.94 422.428 1421.67 Q422.428 1424.87 421.213 1427.75 Q420.032 1430.6 416.873 1434.49 Q416.004 1435.49 411.352 1440.32 Q406.699 1445.11 398.227 1453.76 Z" fill="#000000" fill-rule="nonzero" fill-opacity="1" /><path clip-path="url(#clip650)" d="M1293.64 1407.82 L1321.18 1407.82 L1321.18 1413.72 L1300.07 1413.72 L1300.07 1426.43 Q1301.6 1425.91 1303.12 1425.67 Q1304.65 1425.39 1306.18 1425.39 Q1314.86 1425.39 1319.93 1430.15 Q1325 1434.9 1325 1443.03 Q1325 1451.4 1319.79 1456.05 Q1314.58 1460.67 1305.1 1460.67 Q1301.84 1460.67 1298.44 1460.11 Q1295.07 1459.56 1291.46 1458.44 L1291.46 1451.4 Q1294.58 1453.1 1297.92 1453.93 Q1301.25 1454.76 1304.96 1454.76 Q1310.97 1454.76 1314.48 1451.6 Q1317.98 1448.44 1317.98 1443.03 Q1317.98 1437.61 1314.48 1434.45 Q1310.97 1431.29 1304.96 1431.29 Q1302.15 1431.29 1299.34 1431.92 Q1296.56 1432.54 1293.64 1433.86 L1293.64 1407.82 Z" fill="#000000" fill-rule="nonzero" fill-opacity="1" /><path clip-path="url(#clip650)" d="M1353.82 1412.44 Q1348.4 1412.44 1345.66 1417.79 Q1342.95 1423.1 1342.95 1433.79 Q1342.95 1444.45 1345.66 1449.8 Q1348.4 1455.11 1353.82 1455.11 Q1359.27 1455.11 1361.98 1449.8 Q1364.72 1444.45 1364.72 1433.79 Q1364.72 1423.1 1361.98 1417.79 Q1359.27 1412.44 1353.82 1412.44 M1353.82 1406.88 Q1362.53 1406.88 1367.12 1413.79 Q1371.73 1420.67 1371.73 1433.79 Q1371.73 1446.88 1367.12 1453.79 Q1362.53 1460.67 1353.82 1460.67 Q1345.1 1460.67 1340.48 1453.79 Q1335.9 1446.88 1335.9 1433.79 Q1335.9 1420.67 1340.48 1413.79 Q1345.1 1406.88 1353.82 1406.88 Z" fill="#000000" fill-rule="nonzero" fill-opacity="1" /><path clip-path="url(#clip650)" d="M2234.91 1453.76 L2246.37 1453.76 L2246.37 1414.21 L2233.9 1416.71 L2233.9 1410.32 L2246.3 1407.82 L2253.31 1407.82 L2253.31 1453.76 L2264.77 1453.76 L2264.77 1459.66 L2234.91 1459.66 L2234.91 1453.76 Z" fill="#000000" fill-rule="nonzero" fill-opacity="1" /><path clip-path="url(#clip650)" d="M2293.94 1412.44 Q2288.52 1412.44 2285.78 1417.79 Q2283.07 1423.1 2283.07 1433.79 Q2283.07 1444.45 2285.78 1449.8 Q2288.52 1455.11 2293.94 1455.11 Q2299.39 1455.11 2302.1 1449.8 Q2304.84 1444.45 2304.84 1433.79 Q2304.84 1423.1 2302.1 1417.79 Q2299.39 1412.44 2293.94 1412.44 M2293.94 1406.88 Q2302.65 1406.88 2307.24 1413.79 Q2311.85 1420.67 2311.85 1433.79 Q2311.85 1446.88 2307.24 1453.79 Q2302.65 1460.67 2293.94 1460.67 Q2285.22 1460.67 2280.6 1453.79 Q2276.02 1446.88 2276.02 1433.79 Q2276.02 1420.67 2280.6 1413.79 Q2285.22 1406.88 2293.94 1406.88 Z" fill="#000000" fill-rule="nonzero" fill-opacity="1" /><path clip-path="url(#clip650)" d="M2339.18 1412.44 Q2333.76 1412.44 2331.02 1417.79 Q2328.31 1423.1 2328.31 1433.79 Q2328.31 1444.45 2331.02 1449.8 Q2333.76 1455.11 2339.18 1455.11 Q2344.63 1455.11 2347.34 1449.8 Q2350.08 1444.45 2350.08 1433.79 Q2350.08 1423.1 2347.34 1417.79 Q2344.63 1412.44 2339.18 1412.44 M2339.18 1406.88 Q2347.9 1406.88 2352.48 1413.79 Q2357.1 1420.67 2357.1 1433.79 Q2357.1 1446.88 2352.48 1453.79 Q2347.9 1460.67 2339.18 1460.67 Q2330.47 1460.67 2325.85 1453.79 Q2321.26 1446.88 2321.26 1433.79 Q2321.26 1420.67 2325.85 1413.79 Q2330.47 1406.88 2339.18 1406.88 Z" fill="#000000" fill-rule="nonzero" fill-opacity="1" /><path clip-path="url(#clip650)" d="M1362.24 1531.66 Q1362.24 1534.67 1360.4 1536.46 Q1358.61 1538.25 1356.34 1538.25 Q1354.34 1538.25 1353.28 1537.09 Q1352.23 1535.93 1352.23 1534.46 Q1352.23 1533.83 1352.49 1533.03 Q1352.76 1532.19 1353.34 1531.19 Q1353.97 1530.19 1355.29 1529.45 Q1356.6 1528.71 1358.4 1528.61 Q1358.03 1528.24 1357.92 1528.19 Q1357.13 1527.55 1355.66 1527.34 Q1355.44 1527.24 1354.71 1527.24 Q1351.07 1527.24 1347.38 1529.93 Q1343.75 1532.56 1339.27 1537.57 Q1333.63 1543.42 1329.99 1545.58 Q1345.96 1547.69 1345.96 1556.91 Q1345.96 1558.44 1345.54 1560.28 Q1344.69 1563.76 1344.69 1566.29 Q1344.69 1571.35 1348.12 1571.35 Q1351.44 1571.35 1353.55 1567.98 Q1355.71 1564.6 1357.5 1558.01 Q1357.76 1556.8 1358.03 1556.43 Q1358.29 1556.06 1359.03 1556.06 Q1360.35 1556.06 1360.35 1557.12 Q1359.13 1563.28 1356.45 1568.03 Q1353.02 1573.77 1347.91 1573.77 Q1343.64 1573.77 1340.79 1570.82 Q1338 1567.82 1338 1563.07 Q1338 1561.91 1338.42 1559.28 Q1338.74 1558.23 1338.74 1557.01 Q1338.74 1554.54 1337.37 1552.69 Q1336 1550.79 1333.79 1549.85 Q1331.57 1548.9 1329.73 1548.48 Q1327.94 1548 1326.2 1547.84 Q1320.93 1570.14 1320.19 1571.51 Q1319.71 1572.45 1318.66 1573.09 Q1317.61 1573.77 1316.5 1573.77 Q1315.45 1573.77 1314.39 1573.03 Q1313.39 1572.35 1313.39 1570.72 Q1313.39 1569.87 1313.81 1568.34 L1329.46 1506.16 L1329.78 1504.05 Q1329.78 1503.42 1329.52 1503.1 Q1329.31 1502.73 1328.04 1502.47 Q1326.83 1502.21 1324.4 1502.21 Q1323.4 1502.21 1322.93 1502.15 Q1322.51 1502.1 1322.14 1501.84 Q1321.77 1501.52 1321.77 1500.89 Q1321.77 1499.99 1322.14 1499.52 Q1322.56 1498.99 1322.88 1498.88 Q1323.19 1498.78 1323.82 1498.73 Q1324.72 1498.67 1327.72 1498.41 Q1330.73 1498.09 1333.31 1497.88 Q1335.89 1497.67 1337 1497.67 Q1337.63 1497.67 1337.95 1497.99 Q1338.32 1498.25 1338.37 1498.57 L1338.42 1498.83 L1327.2 1544.37 Q1331.84 1542.52 1339.16 1534.35 Q1347.65 1524.87 1354.92 1524.87 Q1358.34 1524.87 1360.29 1526.97 Q1362.24 1529.03 1362.24 1531.66 Z" fill="#000000" fill-rule="nonzero" fill-opacity="1" /><polyline clip-path="url(#clip650)" style="stroke:#000000; stroke-linecap:round; stroke-linejoin:round; stroke-width:4; stroke-opacity:1; fill:none" points="329.714,1375.66 329.714,847.244 "/>
<polyline clip-path="url(#clip650)" style="stroke:#000000; stroke-linecap:round; stroke-linejoin:round; stroke-width:4; stroke-opacity:1; fill:none" points="329.714,1360.7 348.611,1360.7 "/>
<polyline clip-path="url(#clip650)" style="stroke:#000000; stroke-linecap:round; stroke-linejoin:round; stroke-width:4; stroke-opacity:1; fill:none" points="329.714,1123.32 348.611,1123.32 "/>
<polyline clip-path="url(#clip650)" style="stroke:#000000; stroke-linecap:round; stroke-linejoin:round; stroke-width:4; stroke-opacity:1; fill:none" points="329.714,885.938 348.611,885.938 "/>
<path clip-path="url(#clip650)" d="M155.902 1361.38 L200.415 1361.38 L200.415 1367.28 L155.902 1367.28 L155.902 1361.38 Z" fill="#000000" fill-rule="nonzero" fill-opacity="1" /><path clip-path="url(#clip650)" d="M234.825 1340.9 L217.117 1368.57 L234.825 1368.57 L234.825 1340.9 M232.985 1334.78 L241.804 1334.78 L241.804 1368.57 L249.2 1368.57 L249.2 1374.4 L241.804 1374.4 L241.804 1386.62 L234.825 1386.62 L234.825 1374.4 L211.422 1374.4 L211.422 1367.63 L232.985 1334.78 Z" fill="#000000" fill-rule="nonzero" fill-opacity="1" /><path clip-path="url(#clip650)" d="M275.797 1339.4 Q270.38 1339.4 267.637 1344.75 Q264.929 1350.06 264.929 1360.76 Q264.929 1371.42 267.637 1376.76 Q270.38 1382.08 275.797 1382.08 Q281.248 1382.08 283.957 1376.76 Q286.7 1371.42 286.7 1360.76 Q286.7 1350.06 283.957 1344.75 Q281.248 1339.4 275.797 1339.4 M275.797 1333.85 Q284.512 1333.85 289.096 1340.76 Q293.714 1347.63 293.714 1360.76 Q293.714 1373.85 289.096 1380.76 Q284.512 1387.63 275.797 1387.63 Q267.082 1387.63 262.464 1380.76 Q257.88 1373.85 257.88 1360.76 Q257.88 1347.63 262.464 1340.76 Q267.082 1333.85 275.797 1333.85 Z" fill="#000000" fill-rule="nonzero" fill-opacity="1" /><path clip-path="url(#clip650)" d="M155.902 1124 L200.415 1124 L200.415 1129.9 L155.902 1129.9 L155.902 1124 Z" fill="#000000" fill-rule="nonzero" fill-opacity="1" /><path clip-path="url(#clip650)" d="M221.596 1143.34 L246.075 1143.34 L246.075 1149.24 L213.158 1149.24 L213.158 1143.34 Q217.151 1139.21 224.026 1132.26 Q230.936 1125.28 232.707 1123.27 Q236.075 1119.48 237.394 1116.88 Q238.749 1114.24 238.749 1111.71 Q238.749 1107.57 235.832 1104.97 Q232.95 1102.37 228.297 1102.37 Q224.999 1102.37 221.318 1103.51 Q217.672 1104.66 213.506 1106.98 L213.506 1099.9 Q217.742 1098.2 221.422 1097.33 Q225.103 1096.46 228.158 1096.46 Q236.214 1096.46 241.006 1100.49 Q245.797 1104.52 245.797 1111.26 Q245.797 1114.45 244.582 1117.33 Q243.401 1120.18 240.242 1124.07 Q239.374 1125.07 234.721 1129.9 Q230.068 1134.69 221.596 1143.34 Z" fill="#000000" fill-rule="nonzero" fill-opacity="1" /><path clip-path="url(#clip650)" d="M275.797 1102.02 Q270.38 1102.02 267.637 1107.37 Q264.929 1112.68 264.929 1123.37 Q264.929 1134.03 267.637 1139.38 Q270.38 1144.69 275.797 1144.69 Q281.248 1144.69 283.957 1139.38 Q286.7 1134.03 286.7 1123.37 Q286.7 1112.68 283.957 1107.37 Q281.248 1102.02 275.797 1102.02 M275.797 1096.46 Q284.512 1096.46 289.096 1103.37 Q293.714 1110.25 293.714 1123.37 Q293.714 1136.46 289.096 1143.37 Q284.512 1150.25 275.797 1150.25 Q267.082 1150.25 262.464 1143.37 Q257.88 1136.46 257.88 1123.37 Q257.88 1110.25 262.464 1103.37 Q267.082 1096.46 275.797 1096.46 Z" fill="#000000" fill-rule="nonzero" fill-opacity="1" /><path clip-path="url(#clip650)" d="M275.797 864.636 Q270.38 864.636 267.637 869.983 Q264.929 875.295 264.929 885.99 Q264.929 896.649 267.637 901.997 Q270.38 907.309 275.797 907.309 Q281.248 907.309 283.957 901.997 Q286.7 896.649 286.7 885.99 Q286.7 875.295 283.957 869.983 Q281.248 864.636 275.797 864.636 M275.797 859.08 Q284.512 859.08 289.096 865.99 Q293.714 872.865 293.714 885.99 Q293.714 899.08 289.096 905.99 Q284.512 912.865 275.797 912.865 Q267.082 912.865 262.464 905.99 Q257.88 899.08 257.88 885.99 Q257.88 872.865 262.464 865.99 Q267.082 859.08 275.797 859.08 Z" fill="#000000" fill-rule="nonzero" fill-opacity="1" /><path clip-path="url(#clip650)" d="M79.7054 1322.18 L76.3853 1322.18 Q76.3853 1316.44 75.7002 1315.12 Q74.9624 1313.8 71.4842 1313.8 L15.3581 1313.8 Q11.3529 1313.8 10.3516 1315.22 Q9.35028 1316.59 9.35028 1322.18 L5.97745 1322.18 L4.81804 1306.69 L71.4842 1306.69 Q74.9624 1306.69 75.7002 1305.32 Q76.3853 1303.95 76.3853 1298.25 L79.7054 1298.25 Q79.7054 1299.57 79.6 1302.31 Q79.4946 1305.05 79.4419 1307.06 Q79.3892 1309.06 79.3892 1310.22 Q79.3892 1311.48 79.7054 1322.18 Z" fill="#000000" fill-rule="nonzero" fill-opacity="1" /><path clip-path="url(#clip650)" d="M73.9084 1282.02 Q66.8465 1289.13 56.6226 1289.13 Q46.346 1289.13 38.8626 1282.17 Q31.3264 1275.17 31.3264 1265.15 Q31.3264 1255.35 38.8099 1248.34 Q46.2406 1241.28 56.6226 1241.28 Q66.7938 1241.28 73.8557 1248.39 Q80.9176 1255.46 80.9176 1265.26 Q80.9176 1274.85 73.9084 1282.02 M55.7267 1280.17 Q66.2141 1280.17 70.9572 1277.43 Q78.1771 1273.22 78.1771 1265.15 Q78.1771 1261.15 76.0164 1257.83 Q73.8557 1254.45 70.2194 1252.61 Q65.4763 1250.24 55.7267 1250.24 Q45.3447 1250.24 40.7598 1253.08 Q33.7506 1257.3 33.7506 1265.26 Q33.7506 1268.74 35.5951 1272.16 Q37.3869 1275.53 40.9706 1277.59 Q45.7136 1280.17 55.7267 1280.17 Z" fill="#000000" fill-rule="nonzero" fill-opacity="1" /><path clip-path="url(#clip650)" d="M88.2429 1239.57 Q84.7647 1239.57 81.7608 1236.94 Q78.7568 1234.25 77.4393 1229.61 Q74.4354 1234.36 67.8478 1234.36 Q62.7886 1234.36 58.8888 1231.04 Q54.6727 1236.1 47.7689 1236.1 Q41.3922 1236.1 36.7018 1231.04 Q32.0115 1225.98 32.0115 1218.6 Q32.0115 1212.12 35.9113 1207.16 Q30.8521 1202 30.7994 1195.73 Q30.7994 1192.93 32.5385 1191.62 Q34.2776 1190.25 36.1221 1190.25 Q37.7559 1190.25 38.5464 1191.3 Q39.3369 1192.3 39.3369 1193.36 Q39.3369 1194.67 38.4937 1195.62 Q37.5977 1196.52 36.2275 1196.52 Q33.9614 1196.52 33.2763 1194.78 Q33.1709 1195.09 33.1709 1195.83 Q33.1709 1201.1 37.3869 1205.58 Q41.4976 1201.15 47.8743 1201.15 Q54.2511 1201.15 58.9415 1206.21 Q63.6318 1211.27 63.6318 1218.6 Q63.6318 1224.66 60.259 1229.3 Q62.4197 1231.14 65.3709 1231.14 Q68.0586 1231.14 70.1667 1229.51 Q72.2747 1227.87 72.5909 1225.4 Q72.6963 1224.66 72.6963 1217.33 Q72.6963 1213.01 72.8017 1210.64 Q72.9071 1208.27 73.6449 1204.9 Q74.33 1201.47 75.7002 1198.78 Q79.6 1191.77 88.0321 1191.72 Q94.1981 1191.72 98.0452 1198.84 Q101.945 1205.9 101.945 1215.7 Q101.945 1225.61 97.9925 1232.62 Q94.0927 1239.57 88.2429 1239.57 M88.2429 1233.93 Q92.6698 1233.93 96.0426 1228.72 Q99.4681 1223.5 99.4681 1215.59 Q99.4681 1207.85 96.0953 1202.63 Q92.7752 1197.36 88.2429 1197.36 Q85.0282 1197.36 82.9729 1199.2 Q80.9176 1201.05 80.0744 1204.84 Q79.2838 1208.59 79.1257 1211.22 Q78.9676 1213.86 78.9676 1218.7 L78.9676 1225.08 Q79.1784 1228.77 81.8662 1231.35 Q84.5539 1233.93 88.2429 1233.93 M47.8743 1228.03 Q61.1549 1228.03 61.1549 1218.6 Q61.1549 1213.86 56.8334 1210.96 Q53.9349 1209.22 47.7689 1209.22 Q34.4884 1209.22 34.4884 1218.6 Q34.4884 1223.34 38.8099 1226.29 Q41.7084 1228.03 47.8743 1228.03 Z" fill="#000000" fill-rule="nonzero" fill-opacity="1" /><path clip-path="url(#clip650)" d="M88.5106 1161.78 L86.1496 1161.78 Q86.1496 1152.7 81.317 1148.02 Q81.317 1146.72 81.6121 1146.5 Q81.9073 1146.28 83.2722 1146.28 L125.659 1146.28 Q127.91 1146.28 128.61 1145.17 Q129.311 1144.07 129.311 1139.24 L129.311 1136.84 L131.635 1136.84 Q131.414 1139.49 131.414 1149.09 Q131.414 1158.68 131.635 1161.3 L129.311 1161.3 L129.311 1158.9 Q129.311 1154.14 128.647 1153 Q127.946 1151.85 125.659 1151.85 L86.5186 1151.85 Q88.5106 1155.8 88.5106 1161.78 Z" fill="#000000" fill-rule="nonzero" fill-opacity="1" /><path clip-path="url(#clip650)" d="M107.472 1133.12 Q96.3683 1133.12 90.3183 1130.32 Q81.317 1126.41 81.317 1117.19 Q81.317 1115.23 81.8704 1113.2 Q82.3868 1111.14 84.4158 1108.55 Q86.4448 1105.93 89.7649 1104.35 Q96.1838 1101.32 107.472 1101.32 Q118.502 1101.32 124.516 1104.13 Q133.296 1108.22 133.296 1117.26 Q133.296 1120.65 131.562 1124.12 Q129.828 1127.55 125.659 1129.73 Q119.425 1133.12 107.472 1133.12 M106.55 1126.85 Q117.949 1126.85 122.487 1126.04 Q127.393 1125.12 129.533 1122.61 Q131.635 1120.06 131.635 1117.26 Q131.635 1114.24 129.385 1111.73 Q127.098 1109.18 122.192 1108.41 Q117.359 1107.56 106.55 1107.59 Q96.0363 1107.59 91.8308 1108.33 Q86.9243 1109.33 84.9692 1111.98 Q82.9771 1114.6 82.9771 1117.26 Q82.9771 1118.26 83.2722 1119.33 Q83.5673 1120.36 84.4158 1121.87 Q85.2643 1123.38 87.367 1124.56 Q89.4698 1125.71 92.6423 1126.26 Q96.7372 1126.85 106.55 1126.85 Z" fill="#000000" fill-rule="nonzero" fill-opacity="1" /><path clip-path="url(#clip650)" d="M52.7228 1084.19 Q34.4884 1084.19 19.785 1077.39 Q13.619 1074.49 8.45437 1070.44 Q3.28972 1066.38 1.0236 1063.69 Q-1.24252 1061 -1.24252 1060.27 Q-1.24252 1059.21 -0.188509 1059.16 Q0.338496 1059.16 1.65601 1060.58 Q19.3634 1077.97 52.7228 1077.92 Q86.1876 1077.92 103.21 1061 Q105.054 1059.16 105.634 1059.16 Q106.688 1059.16 106.688 1060.27 Q106.688 1061 104.527 1063.59 Q102.367 1066.17 97.4128 1070.17 Q92.459 1074.18 86.3984 1077.08 Q71.695 1084.19 52.7228 1084.19 Z" fill="#000000" fill-rule="nonzero" fill-opacity="1" /><path clip-path="url(#clip650)" d="M35.7532 985.676 Q39.4423 985.676 39.4423 990.946 L39.4423 1002.8 Q44.1853 999.483 51.1945 999.483 Q57.2023 999.483 62.8413 1001.96 Q68.4275 1004.38 72.3274 1008.28 Q76.2272 1012.13 78.5987 1016.98 Q80.9176 1021.83 80.9176 1026.57 Q80.9176 1033.79 76.0164 1038.27 Q71.1153 1042.75 63.8426 1042.75 Q59.9955 1042.75 55.7267 1041.43 Q51.458 1040.06 47.5054 1037.48 Q43.5002 1034.9 40.2855 1031.53 Q37.0707 1028.1 35.1208 1023.67 Q33.1709 1019.19 33.1709 1014.5 L33.1709 989.892 Q33.1709 988.574 33.2763 987.889 Q33.329 987.151 33.9614 986.413 Q34.5411 985.676 35.7532 985.676 M49.9297 1006.39 Q48.6649 1006.39 47.5581 1006.55 Q46.3987 1006.7 44.8704 1007.28 Q43.2894 1007.86 42.1827 1008.86 Q41.0233 1009.87 40.2328 1011.82 Q39.4423 1013.71 39.4423 1016.29 Q39.4423 1019.93 41.4449 1023.94 Q43.4475 1027.94 48.4014 1031 Q52.6174 1033.53 58.0982 1034.79 Q63.5791 1036.06 66.8465 1036.06 Q72.4328 1036.06 75.4894 1033.37 Q78.4933 1030.63 78.4933 1026.47 Q78.4933 1023.04 76.1745 1019.14 Q73.803 1015.24 69.3235 1012.24 Q65.4236 1009.6 59.732 1008.02 Q54.0403 1006.39 49.9297 1006.39 Z" fill="#000000" fill-rule="nonzero" fill-opacity="1" /><path clip-path="url(#clip650)" d="M83.4338 940.517 Q85.5366 940.517 86.7909 941.808 Q88.0451 943.063 88.0451 944.649 Q88.0451 946.051 87.2336 946.789 Q86.422 947.526 85.389 947.526 Q84.9464 947.526 84.393 947.342 Q83.8028 947.158 83.1018 946.752 Q82.4009 946.309 81.8845 945.387 Q81.368 944.465 81.2942 943.21 Q81.036 943.469 80.9991 943.542 Q80.5564 944.096 80.4088 945.129 Q80.3351 945.276 80.3351 945.793 Q80.3351 948.338 82.2165 950.92 Q84.061 953.466 87.5656 956.601 Q91.6604 960.549 93.1729 963.094 Q94.6485 951.916 101.104 951.916 Q102.174 951.916 103.465 952.212 Q105.9 952.802 107.671 952.802 Q111.212 952.802 111.212 950.404 Q111.212 948.08 108.851 946.604 Q106.49 945.092 101.879 943.837 Q101.031 943.653 100.772 943.469 Q100.514 943.284 100.514 942.768 Q100.514 941.845 101.252 941.845 Q105.568 942.694 108.888 944.575 Q112.909 946.973 112.909 950.551 Q112.909 953.54 110.843 955.532 Q108.741 957.487 105.42 957.487 Q104.609 957.487 102.764 957.192 Q102.027 956.97 101.178 956.97 Q99.4443 956.97 98.1531 957.93 Q96.825 958.889 96.161 960.438 Q95.497 961.987 95.2019 963.279 Q94.8699 964.533 94.7592 965.75 Q110.364 969.439 111.323 969.956 Q111.987 970.288 112.43 971.026 Q112.909 971.763 112.909 972.538 Q112.909 973.276 112.393 974.014 Q111.913 974.715 110.77 974.715 Q110.179 974.715 109.11 974.42 L65.5789 963.463 L64.1033 963.242 Q63.6606 963.242 63.4393 963.426 Q63.181 963.574 62.9966 964.459 Q62.8121 965.308 62.8121 967.005 Q62.8121 967.705 62.7753 968.037 Q62.7384 968.333 62.5539 968.591 Q62.3326 968.849 61.8899 968.849 Q61.2627 968.849 60.9307 968.591 Q60.5618 968.296 60.4881 968.074 Q60.4143 967.853 60.3774 967.41 Q60.3405 966.783 60.156 964.68 Q59.9347 962.578 59.7871 960.77 Q59.6396 958.962 59.6396 958.188 Q59.6396 957.745 59.8609 957.524 Q60.0454 957.266 60.2667 957.229 L60.4512 957.192 L92.3244 965.049 Q91.0333 961.803 85.3153 956.675 Q78.675 950.736 78.675 945.645 Q78.675 943.247 80.1506 941.882 Q81.5893 940.517 83.4338 940.517 Z" fill="#000000" fill-rule="nonzero" fill-opacity="1" /><path clip-path="url(#clip650)" d="M105.634 929.332 Q105.107 929.332 103.79 927.962 Q86.0822 910.571 52.7228 910.571 Q19.258 910.571 2.34111 927.277 Q0.391196 929.332 -0.188509 929.332 Q-1.24252 929.332 -1.24252 928.278 Q-1.24252 927.54 0.918201 924.958 Q3.07892 922.323 8.03277 918.37 Q12.9866 914.365 19.0472 911.414 Q33.7506 904.299 52.7228 904.299 Q70.9572 904.299 85.6606 911.098 Q91.8266 913.996 96.9912 918.054 Q102.156 922.112 104.422 924.8 Q106.688 927.488 106.688 928.278 Q106.688 929.332 105.634 929.332 Z" fill="#000000" fill-rule="nonzero" fill-opacity="1" /><circle clip-path="url(#clip651)" cx="386.97" cy="885.938" r="21.6" fill="#ff0000" fill-rule="evenodd" fill-opacity="1" stroke="none"/>
<circle clip-path="url(#clip651)" cx="406.248" cy="972.758" r="21.6" fill="#ff0000" fill-rule="evenodd" fill-opacity="1" stroke="none"/>
<circle clip-path="url(#clip651)" cx="425.526" cy="997.839" r="21.6" fill="#ff0000" fill-rule="evenodd" fill-opacity="1" stroke="none"/>
<circle clip-path="url(#clip651)" cx="444.804" cy="1053.74" r="21.6" fill="#ff0000" fill-rule="evenodd" fill-opacity="1" stroke="none"/>
<circle clip-path="url(#clip651)" cx="464.082" cy="1059.49" r="21.6" fill="#ff0000" fill-rule="evenodd" fill-opacity="1" stroke="none"/>
<circle clip-path="url(#clip651)" cx="483.36" cy="1079.98" r="21.6" fill="#ff0000" fill-rule="evenodd" fill-opacity="1" stroke="none"/>
<circle clip-path="url(#clip651)" cx="502.638" cy="1134.98" r="21.6" fill="#ff0000" fill-rule="evenodd" fill-opacity="1" stroke="none"/>
<circle clip-path="url(#clip651)" cx="521.916" cy="1138.8" r="21.6" fill="#ff0000" fill-rule="evenodd" fill-opacity="1" stroke="none"/>
<circle clip-path="url(#clip651)" cx="541.194" cy="1168.67" r="21.6" fill="#ff0000" fill-rule="evenodd" fill-opacity="1" stroke="none"/>
<circle clip-path="url(#clip651)" cx="560.472" cy="1218.53" r="21.6" fill="#ff0000" fill-rule="evenodd" fill-opacity="1" stroke="none"/>
<circle clip-path="url(#clip651)" cx="579.75" cy="1229.47" r="21.6" fill="#ff0000" fill-rule="evenodd" fill-opacity="1" stroke="none"/>
<circle clip-path="url(#clip651)" cx="599.028" cy="1261.36" r="21.6" fill="#ff0000" fill-rule="evenodd" fill-opacity="1" stroke="none"/>
<circle clip-path="url(#clip651)" cx="618.307" cy="1299.96" r="21.6" fill="#ff0000" fill-rule="evenodd" fill-opacity="1" stroke="none"/>
<circle clip-path="url(#clip651)" cx="637.585" cy="1302.04" r="21.6" fill="#ff0000" fill-rule="evenodd" fill-opacity="1" stroke="none"/>
<circle clip-path="url(#clip651)" cx="656.863" cy="1313.19" r="21.6" fill="#ff0000" fill-rule="evenodd" fill-opacity="1" stroke="none"/>
</svg>
