<?xml version="1.0" encoding="utf-8"?>
<svg xmlns="http://www.w3.org/2000/svg" xmlns:xlink="http://www.w3.org/1999/xlink" width="600" height="400" viewBox="0 0 2400 1600">
<defs>
  <clipPath id="clip230">
    <rect x="0" y="0" width="2400" height="1600"/>
  </clipPath>
</defs>
<path clip-path="url(#clip230)" d="M0 1600 L2400 1600 L2400 0 L0 0  Z" fill="#ffffff" fill-rule="evenodd" fill-opacity="1"/>
<defs>
  <clipPath id="clip231">
    <rect x="480" y="0" width="1681" height="1600"/>
  </clipPath>
</defs>
<path clip-path="url(#clip230)" d="M318.312 575.66 L2352.76 575.66 L2352.76 47.2441 L318.312 47.2441  Z" fill="#ffffff" fill-rule="evenodd" fill-opacity="1"/>
<defs>
  <clipPath id="clip232">
    <rect x="318" y="47" width="2035" height="529"/>
  </clipPath>
</defs>
<polyline clip-path="url(#clip232)" style="stroke:#000000; stroke-linecap:round; stroke-linejoin:round; stroke-width:2; stroke-opacity:0.1; fill:none" points="375.891,575.66 375.891,47.2441 "/>
<polyline clip-path="url(#clip232)" style="stroke:#000000; stroke-linecap:round; stroke-linejoin:round; stroke-width:2; stroke-opacity:0.1; fill:none" points="1325.84,575.66 1325.84,47.2441 "/>
<polyline clip-path="url(#clip232)" style="stroke:#000000; stroke-linecap:round; stroke-linejoin:round; stroke-width:2; stroke-opacity:0.1; fill:none" points="2295.18,575.66 2295.18,47.2441 "/>
<polyline clip-path="url(#clip230)" style="stroke:#000000; stroke-linecap:round; stroke-linejoin:round; stroke-width:4; stroke-opacity:1; fill:none" points="318.312,575.66 2352.76,575.66 "/>
<polyline clip-path="url(#clip230)" style="stroke:#000000; stroke-linecap:round; stroke-linejoin:round; stroke-width:4; stroke-opacity:1; fill:none" points="375.891,575.66 375.891,556.762 "/>
<polyline clip-path="url(#clip230)" style="stroke:#000000; stroke-linecap:round; stroke-linejoin:round; stroke-width:4; stroke-opacity:1; fill:none" points="1325.84,575.66 1325.84,556.762 "/>
<polyline clip-path="url(#clip230)" style="stroke:#000000; stroke-linecap:round; stroke-linejoin:round; stroke-width:4; stroke-opacity:1; fill:none" points="2295.18,575.66 2295.18,556.762 "/>
<path clip-path="url(#clip230)" d="M361.464 653.757 L372.922 653.757 L372.922 614.209 L360.457 616.709 L360.457 610.32 L372.852 607.82 L379.866 607.82 L379.866 653.757 L391.324 653.757 L391.324 659.66 L361.464 659.66 L361.464 653.757 Z" fill="#000000" fill-rule="nonzero" fill-opacity="1" /><path clip-path="url(#clip230)" d="M1287.89 607.82 L1315.42 607.82 L1315.42 613.723 L1294.31 613.723 L1294.31 626.431 Q1295.84 625.91 1297.37 625.667 Q1298.9 625.389 1300.42 625.389 Q1309.1 625.389 1314.17 630.146 Q1319.24 634.903 1319.24 643.028 Q1319.24 651.396 1314.04 656.049 Q1308.83 660.667 1299.35 660.667 Q1296.08 660.667 1292.68 660.111 Q1289.31 659.556 1285.7 658.445 L1285.7 651.396 Q1288.83 653.097 1292.16 653.931 Q1295.49 654.764 1299.21 654.764 Q1305.22 654.764 1308.72 651.604 Q1312.23 648.445 1312.23 643.028 Q1312.23 637.611 1308.72 634.452 Q1305.22 631.292 1299.21 631.292 Q1296.4 631.292 1293.58 631.917 Q1290.81 632.542 1287.89 633.861 L1287.89 607.82 Z" fill="#000000" fill-rule="nonzero" fill-opacity="1" /><path clip-path="url(#clip230)" d="M1348.06 612.438 Q1342.65 612.438 1339.9 617.785 Q1337.19 623.098 1337.19 633.792 Q1337.19 644.452 1339.9 649.799 Q1342.65 655.111 1348.06 655.111 Q1353.51 655.111 1356.22 649.799 Q1358.97 644.452 1358.97 633.792 Q1358.97 623.098 1356.22 617.785 Q1353.51 612.438 1348.06 612.438 M1348.06 606.882 Q1356.78 606.882 1361.36 613.792 Q1365.98 620.667 1365.98 633.792 Q1365.98 646.882 1361.36 653.792 Q1356.78 660.667 1348.06 660.667 Q1339.35 660.667 1334.73 653.792 Q1330.15 646.882 1330.15 633.792 Q1330.15 620.667 1334.73 613.792 Q1339.35 606.882 1348.06 606.882 Z" fill="#000000" fill-rule="nonzero" fill-opacity="1" /><path clip-path="url(#clip230)" d="M2234.59 653.757 L2246.05 653.757 L2246.05 614.209 L2233.58 616.709 L2233.58 610.32 L2245.98 607.82 L2252.99 607.82 L2252.99 653.757 L2264.45 653.757 L2264.45 659.66 L2234.59 659.66 L2234.59 653.757 Z" fill="#000000" fill-rule="nonzero" fill-opacity="1" /><path clip-path="url(#clip230)" d="M2293.61 612.438 Q2288.2 612.438 2285.46 617.785 Q2282.75 623.098 2282.75 633.792 Q2282.75 644.452 2285.46 649.799 Q2288.2 655.111 2293.61 655.111 Q2299.07 655.111 2301.77 649.799 Q2304.52 644.452 2304.52 633.792 Q2304.52 623.098 2301.77 617.785 Q2299.07 612.438 2293.61 612.438 M2293.61 606.882 Q2302.33 606.882 2306.91 613.792 Q2311.53 620.667 2311.53 633.792 Q2311.53 646.882 2306.91 653.792 Q2302.33 660.667 2293.61 660.667 Q2284.9 660.667 2280.28 653.792 Q2275.7 646.882 2275.7 633.792 Q2275.7 620.667 2280.28 613.792 Q2284.9 606.882 2293.61 606.882 Z" fill="#000000" fill-rule="nonzero" fill-opacity="1" /><path clip-path="url(#clip230)" d="M2338.86 612.438 Q2333.44 612.438 2330.7 617.785 Q2327.99 623.098 2327.99 633.792 Q2327.99 644.452 2330.7 649.799 Q2333.44 655.111 2338.86 655.111 Q2344.31 655.111 2347.02 649.799 Q2349.76 644.452 2349.76 633.792 Q2349.76 623.098 2347.02 617.785 Q2344.31 612.438 2338.86 612.438 M2338.86 606.882 Q2347.57 606.882 2352.16 613.792 Q2356.77 620.667 2356.77 633.792 Q2356.77 646.882 2352.16 653.792 Q2347.57 660.667 2338.86 660.667 Q2330.14 660.667 2325.52 653.792 Q2320.94 646.882 2320.94 633.792 Q2320.94 620.667 2325.52 613.792 Q2330.14 606.882 2338.86 606.882 Z" fill="#000000" fill-rule="nonzero" fill-opacity="1" /><path clip-path="url(#clip230)" d="M1356.54 731.665 Q1356.54 734.669 1354.7 736.46 Q1352.91 738.252 1350.64 738.252 Q1348.64 738.252 1347.58 737.093 Q1346.53 735.933 1346.53 734.458 Q1346.53 733.825 1346.79 733.035 Q1347.06 732.192 1347.64 731.19 Q1348.27 730.189 1349.59 729.451 Q1350.9 728.713 1352.7 728.608 Q1352.33 728.239 1352.22 728.186 Q1351.43 727.554 1349.95 727.343 Q1349.74 727.238 1349.01 727.238 Q1345.37 727.238 1341.68 729.926 Q1338.04 732.561 1333.57 737.567 Q1327.93 743.417 1324.29 745.578 Q1340.26 747.686 1340.26 756.908 Q1340.26 758.436 1339.84 760.281 Q1338.99 763.759 1338.99 766.289 Q1338.99 771.348 1342.42 771.348 Q1345.74 771.348 1347.85 767.975 Q1350.01 764.602 1351.8 758.015 Q1352.06 756.803 1352.33 756.434 Q1352.59 756.065 1353.33 756.065 Q1354.65 756.065 1354.65 757.119 Q1353.43 763.285 1350.75 768.028 Q1347.32 773.772 1342.21 773.772 Q1337.94 773.772 1335.09 770.821 Q1332.3 767.817 1332.3 763.074 Q1332.3 761.915 1332.72 759.28 Q1333.04 758.226 1333.04 757.014 Q1333.04 754.537 1331.67 752.692 Q1330.3 750.795 1328.08 749.846 Q1325.87 748.898 1324.03 748.476 Q1322.23 748.002 1320.5 747.844 Q1315.23 770.136 1314.49 771.506 Q1314.01 772.455 1312.96 773.087 Q1311.91 773.772 1310.8 773.772 Q1309.74 773.772 1308.69 773.035 Q1307.69 772.349 1307.69 770.716 Q1307.69 769.872 1308.11 768.344 L1323.76 706.158 L1324.08 704.05 Q1324.08 703.417 1323.82 703.101 Q1323.6 702.732 1322.34 702.469 Q1321.13 702.205 1318.7 702.205 Q1317.7 702.205 1317.23 702.152 Q1316.81 702.1 1316.44 701.836 Q1316.07 701.52 1316.07 700.888 Q1316.07 699.992 1316.44 699.517 Q1316.86 698.99 1317.18 698.885 Q1317.49 698.78 1318.12 698.727 Q1319.02 698.674 1322.02 698.411 Q1325.03 698.094 1327.61 697.884 Q1330.19 697.673 1331.3 697.673 Q1331.93 697.673 1332.25 697.989 Q1332.62 698.253 1332.67 698.569 L1332.72 698.832 L1321.5 744.365 Q1326.13 742.521 1333.46 734.352 Q1341.94 724.866 1349.22 724.866 Q1352.64 724.866 1354.59 726.974 Q1356.54 729.03 1356.54 731.665 Z" fill="#000000" fill-rule="nonzero" fill-opacity="1" /><polyline clip-path="url(#clip232)" style="stroke:#000000; stroke-linecap:round; stroke-linejoin:round; stroke-width:2; stroke-opacity:0.1; fill:none" points="318.312,551.118 2352.76,551.118 "/>
<polyline clip-path="url(#clip232)" style="stroke:#000000; stroke-linecap:round; stroke-linejoin:round; stroke-width:2; stroke-opacity:0.1; fill:none" points="318.312,71.7859 2352.76,71.7859 "/>
<polyline clip-path="url(#clip230)" style="stroke:#000000; stroke-linecap:round; stroke-linejoin:round; stroke-width:4; stroke-opacity:1; fill:none" points="318.312,575.66 318.312,47.2441 "/>
<polyline clip-path="url(#clip230)" style="stroke:#000000; stroke-linecap:round; stroke-linejoin:round; stroke-width:4; stroke-opacity:1; fill:none" points="318.312,551.118 337.21,551.118 "/>
<polyline clip-path="url(#clip230)" style="stroke:#000000; stroke-linecap:round; stroke-linejoin:round; stroke-width:4; stroke-opacity:1; fill:none" points="318.312,71.7859 337.21,71.7859 "/>
<path clip-path="url(#clip230)" d="M264.395 529.816 Q258.979 529.816 256.236 535.163 Q253.527 540.476 253.527 551.17 Q253.527 561.83 256.236 567.177 Q258.979 572.489 264.395 572.489 Q269.847 572.489 272.555 567.177 Q275.298 561.83 275.298 551.17 Q275.298 540.476 272.555 535.163 Q269.847 529.816 264.395 529.816 M264.395 524.261 Q273.111 524.261 277.694 531.17 Q282.312 538.045 282.312 551.17 Q282.312 564.26 277.694 571.17 Q273.111 578.045 264.395 578.045 Q255.68 578.045 251.062 571.17 Q246.479 564.26 246.479 551.17 Q246.479 538.045 251.062 531.17 Q255.68 524.261 264.395 524.261 Z" fill="#000000" fill-rule="nonzero" fill-opacity="1" /><path clip-path="url(#clip230)" d="M252.451 91.8032 L263.909 91.8032 L263.909 52.2548 L251.444 54.7547 L251.444 48.3659 L263.84 45.8659 L270.854 45.8659 L270.854 91.8032 L282.312 91.8032 L282.312 97.7059 L252.451 97.7059 L252.451 91.8032 Z" fill="#000000" fill-rule="nonzero" fill-opacity="1" /><path clip-path="url(#clip230)" d="M126.319 311.086 Q130.008 311.086 130.008 316.356 L130.008 328.214 Q134.751 324.894 141.76 324.894 Q147.768 324.894 153.407 327.371 Q158.993 329.795 162.893 333.695 Q166.793 337.542 169.164 342.39 Q171.483 347.239 171.483 351.982 Q171.483 359.202 166.582 363.681 Q161.681 368.161 154.408 368.161 Q150.561 368.161 146.292 366.844 Q142.023 365.473 138.071 362.891 Q134.066 360.309 130.851 356.936 Q127.636 353.51 125.686 349.083 Q123.736 344.604 123.736 339.914 L123.736 315.302 Q123.736 313.985 123.842 313.3 Q123.894 312.562 124.527 311.824 Q125.107 311.086 126.319 311.086 M140.495 331.798 Q139.23 331.798 138.124 331.956 Q136.964 332.114 135.436 332.694 Q133.855 333.273 132.748 334.275 Q131.589 335.276 130.798 337.226 Q130.008 339.123 130.008 341.705 Q130.008 345.342 132.01 349.347 Q134.013 353.352 138.967 356.409 Q143.183 358.938 148.664 360.203 Q154.145 361.468 157.412 361.468 Q162.998 361.468 166.055 358.78 Q169.059 356.04 169.059 351.877 Q169.059 348.451 166.74 344.551 Q164.368 340.651 159.889 337.647 Q155.989 335.012 150.297 333.431 Q144.606 331.798 140.495 331.798 Z" fill="#000000" fill-rule="nonzero" fill-opacity="1" /><path clip-path="url(#clip230)" d="M173.999 265.928 Q176.102 265.928 177.356 267.219 Q178.611 268.473 178.611 270.06 Q178.611 271.462 177.799 272.199 Q176.987 272.937 175.954 272.937 Q175.512 272.937 174.958 272.753 Q174.368 272.568 173.667 272.163 Q172.966 271.72 172.45 270.798 Q171.933 269.875 171.86 268.621 Q171.601 268.879 171.565 268.953 Q171.122 269.506 170.974 270.539 Q170.901 270.687 170.901 271.203 Q170.901 273.749 172.782 276.331 Q174.626 278.877 178.131 282.012 Q182.226 285.96 183.738 288.505 Q185.214 277.327 191.67 277.327 Q192.74 277.327 194.031 277.622 Q196.466 278.213 198.236 278.213 Q201.778 278.213 201.778 275.815 Q201.778 273.491 199.417 272.015 Q197.056 270.502 192.444 269.248 Q191.596 269.064 191.338 268.879 Q191.08 268.695 191.08 268.178 Q191.08 267.256 191.817 267.256 Q196.134 268.105 199.454 269.986 Q203.475 272.384 203.475 275.962 Q203.475 278.95 201.409 280.942 Q199.306 282.898 195.986 282.898 Q195.174 282.898 193.33 282.602 Q192.592 282.381 191.744 282.381 Q190.01 282.381 188.719 283.34 Q187.391 284.299 186.726 285.849 Q186.062 287.398 185.767 288.689 Q185.435 289.944 185.325 291.161 Q200.929 294.85 201.888 295.367 Q202.552 295.699 202.995 296.436 Q203.475 297.174 203.475 297.949 Q203.475 298.687 202.958 299.424 Q202.479 300.125 201.335 300.125 Q200.745 300.125 199.675 299.83 L156.144 288.874 L154.669 288.653 Q154.226 288.653 154.005 288.837 Q153.747 288.985 153.562 289.87 Q153.378 290.718 153.378 292.415 Q153.378 293.116 153.341 293.448 Q153.304 293.743 153.119 294.002 Q152.898 294.26 152.455 294.26 Q151.828 294.26 151.496 294.002 Q151.127 293.706 151.054 293.485 Q150.98 293.264 150.943 292.821 Q150.906 292.194 150.721 290.091 Q150.5 287.988 150.353 286.181 Q150.205 284.373 150.205 283.599 Q150.205 283.156 150.426 282.935 Q150.611 282.676 150.832 282.639 L151.017 282.602 L182.89 290.46 Q181.599 287.214 175.881 282.086 Q169.24 276.147 169.24 271.056 Q169.24 268.658 170.716 267.293 Q172.155 265.928 173.999 265.928 Z" fill="#000000" fill-rule="nonzero" fill-opacity="1" /><circle clip-path="url(#clip232)" cx="375.891" cy="71.7858" r="21.6" fill="#0000ff" fill-rule="evenodd" fill-opacity="1" stroke="none"/>
<circle clip-path="url(#clip232)" cx="395.277" cy="551.118" r="21.6" fill="#0000ff" fill-rule="evenodd" fill-opacity="1" stroke="none"/>
<circle clip-path="url(#clip232)" cx="414.664" cy="551.118" r="21.6" fill="#0000ff" fill-rule="evenodd" fill-opacity="1" stroke="none"/>
<circle clip-path="url(#clip232)" cx="434.051" cy="551.118" r="21.6" fill="#0000ff" fill-rule="evenodd" fill-opacity="1" stroke="none"/>
<circle clip-path="url(#clip232)" cx="453.437" cy="551.118" r="21.6" fill="#0000ff" fill-rule="evenodd" fill-opacity="1" stroke="none"/>
<circle clip-path="url(#clip232)" cx="472.824" cy="551.118" r="21.6" fill="#0000ff" fill-rule="evenodd" fill-opacity="1" stroke="none"/>
<circle clip-path="url(#clip232)" cx="492.211" cy="551.118" r="21.6" fill="#0000ff" fill-rule="evenodd" fill-opacity="1" stroke="none"/>
<circle clip-path="url(#clip232)" cx="511.598" cy="551.118" r="21.6" fill="#0000ff" fill-rule="evenodd" fill-opacity="1" stroke="none"/>
<circle clip-path="url(#clip232)" cx="530.984" cy="551.118" r="21.6" fill="#0000ff" fill-rule="evenodd" fill-opacity="1" stroke="none"/>
<circle clip-path="url(#clip232)" cx="550.371" cy="551.118" r="21.6" fill="#0000ff" fill-rule="evenodd" fill-opacity="1" stroke="none"/>
<circle clip-path="url(#clip232)" cx="569.758" cy="551.118" r="21.6" fill="#0000ff" fill-rule="evenodd" fill-opacity="1" stroke="none"/>
<circle clip-path="url(#clip232)" cx="589.145" cy="551.118" r="21.6" fill="#0000ff" fill-rule="evenodd" fill-opacity="1" stroke="none"/>
<circle clip-path="url(#clip232)" cx="608.531" cy="551.118" r="21.6" fill="#0000ff" fill-rule="evenodd" fill-opacity="1" stroke="none"/>
<circle clip-path="url(#clip232)" cx="627.918" cy="551.118" r="21.6" fill="#0000ff" fill-rule="evenodd" fill-opacity="1" stroke="none"/>
<circle clip-path="url(#clip232)" cx="647.305" cy="551.118" r="21.6" fill="#0000ff" fill-rule="evenodd" fill-opacity="1" stroke="none"/>
<circle clip-path="url(#clip232)" cx="666.692" cy="551.118" r="21.6" fill="#0000ff" fill-rule="evenodd" fill-opacity="1" stroke="none"/>
<circle clip-path="url(#clip232)" cx="686.078" cy="551.118" r="21.6" fill="#0000ff" fill-rule="evenodd" fill-opacity="1" stroke="none"/>
<circle clip-path="url(#clip232)" cx="705.465" cy="551.118" r="21.6" fill="#0000ff" fill-rule="evenodd" fill-opacity="1" stroke="none"/>
<circle clip-path="url(#clip232)" cx="724.852" cy="551.118" r="21.6" fill="#0000ff" fill-rule="evenodd" fill-opacity="1" stroke="none"/>
<circle clip-path="url(#clip232)" cx="744.238" cy="551.118" r="21.6" fill="#0000ff" fill-rule="evenodd" fill-opacity="1" stroke="none"/>
<circle clip-path="url(#clip232)" cx="763.625" cy="551.118" r="21.6" fill="#0000ff" fill-rule="evenodd" fill-opacity="1" stroke="none"/>
<circle clip-path="url(#clip232)" cx="783.012" cy="551.118" r="21.6" fill="#0000ff" fill-rule="evenodd" fill-opacity="1" stroke="none"/>
<circle clip-path="url(#clip232)" cx="802.399" cy="551.118" r="21.6" fill="#0000ff" fill-rule="evenodd" fill-opacity="1" stroke="none"/>
<circle clip-path="url(#clip232)" cx="821.785" cy="551.118" r="21.6" fill="#0000ff" fill-rule="evenodd" fill-opacity="1" stroke="none"/>
<circle clip-path="url(#clip232)" cx="841.172" cy="551.118" r="21.6" fill="#0000ff" fill-rule="evenodd" fill-opacity="1" stroke="none"/>
<circle clip-path="url(#clip232)" cx="860.559" cy="551.118" r="21.6" fill="#0000ff" fill-rule="evenodd" fill-opacity="1" stroke="none"/>
<circle clip-path="url(#clip232)" cx="879.946" cy="551.118" r="21.6" fill="#0000ff" fill-rule="evenodd" fill-opacity="1" stroke="none"/>
<circle clip-path="url(#clip232)" cx="899.332" cy="551.118" r="21.6" fill="#0000ff" fill-rule="evenodd" fill-opacity="1" stroke="none"/>
<circle clip-path="url(#clip232)" cx="918.719" cy="551.118" r="21.6" fill="#0000ff" fill-rule="evenodd" fill-opacity="1" stroke="none"/>
<circle clip-path="url(#clip232)" cx="938.106" cy="551.118" r="21.6" fill="#0000ff" fill-rule="evenodd" fill-opacity="1" stroke="none"/>
<circle clip-path="url(#clip232)" cx="957.493" cy="551.118" r="21.6" fill="#0000ff" fill-rule="evenodd" fill-opacity="1" stroke="none"/>
<circle clip-path="url(#clip232)" cx="976.879" cy="551.118" r="21.6" fill="#0000ff" fill-rule="evenodd" fill-opacity="1" stroke="none"/>
<circle clip-path="url(#clip232)" cx="996.266" cy="551.118" r="21.6" fill="#0000ff" fill-rule="evenodd" fill-opacity="1" stroke="none"/>
<circle clip-path="url(#clip232)" cx="1015.65" cy="551.118" r="21.6" fill="#0000ff" fill-rule="evenodd" fill-opacity="1" stroke="none"/>
<circle clip-path="url(#clip232)" cx="1035.04" cy="551.118" r="21.6" fill="#0000ff" fill-rule="evenodd" fill-opacity="1" stroke="none"/>
<circle clip-path="url(#clip232)" cx="1054.43" cy="551.118" r="21.6" fill="#0000ff" fill-rule="evenodd" fill-opacity="1" stroke="none"/>
<circle clip-path="url(#clip232)" cx="1073.81" cy="551.118" r="21.6" fill="#0000ff" fill-rule="evenodd" fill-opacity="1" stroke="none"/>
<circle clip-path="url(#clip232)" cx="1093.2" cy="551.118" r="21.6" fill="#0000ff" fill-rule="evenodd" fill-opacity="1" stroke="none"/>
<circle clip-path="url(#clip232)" cx="1112.59" cy="551.118" r="21.6" fill="#0000ff" fill-rule="evenodd" fill-opacity="1" stroke="none"/>
<circle clip-path="url(#clip232)" cx="1131.97" cy="551.118" r="21.6" fill="#0000ff" fill-rule="evenodd" fill-opacity="1" stroke="none"/>
<circle clip-path="url(#clip232)" cx="1151.36" cy="551.118" r="21.6" fill="#0000ff" fill-rule="evenodd" fill-opacity="1" stroke="none"/>
<circle clip-path="url(#clip232)" cx="1170.75" cy="551.118" r="21.6" fill="#0000ff" fill-rule="evenodd" fill-opacity="1" stroke="none"/>
<circle clip-path="url(#clip232)" cx="1190.13" cy="551.118" r="21.6" fill="#0000ff" fill-rule="evenodd" fill-opacity="1" stroke="none"/>
<circle clip-path="url(#clip232)" cx="1209.52" cy="551.118" r="21.6" fill="#0000ff" fill-rule="evenodd" fill-opacity="1" stroke="none"/>
<circle clip-path="url(#clip232)" cx="1228.91" cy="551.118" r="21.6" fill="#0000ff" fill-rule="evenodd" fill-opacity="1" stroke="none"/>
<circle clip-path="url(#clip232)" cx="1248.29" cy="551.118" r="21.6" fill="#0000ff" fill-rule="evenodd" fill-opacity="1" stroke="none"/>
<circle clip-path="url(#clip232)" cx="1267.68" cy="551.118" r="21.6" fill="#0000ff" fill-rule="evenodd" fill-opacity="1" stroke="none"/>
<circle clip-path="url(#clip232)" cx="1287.07" cy="551.118" r="21.6" fill="#0000ff" fill-rule="evenodd" fill-opacity="1" stroke="none"/>
<circle clip-path="url(#clip232)" cx="1306.45" cy="551.118" r="21.6" fill="#0000ff" fill-rule="evenodd" fill-opacity="1" stroke="none"/>
<circle clip-path="url(#clip232)" cx="1325.84" cy="551.118" r="21.6" fill="#0000ff" fill-rule="evenodd" fill-opacity="1" stroke="none"/>
<circle clip-path="url(#clip232)" cx="1345.23" cy="551.118" r="21.6" fill="#0000ff" fill-rule="evenodd" fill-opacity="1" stroke="none"/>
<circle clip-path="url(#clip232)" cx="1364.61" cy="551.118" r="21.6" fill="#0000ff" fill-rule="evenodd" fill-opacity="1" stroke="none"/>
<circle clip-path="url(#clip232)" cx="1384" cy="551.118" r="21.6" fill="#0000ff" fill-rule="evenodd" fill-opacity="1" stroke="none"/>
<circle clip-path="url(#clip232)" cx="1403.39" cy="551.118" r="21.6" fill="#0000ff" fill-rule="evenodd" fill-opacity="1" stroke="none"/>
<circle clip-path="url(#clip232)" cx="1422.77" cy="551.118" r="21.6" fill="#0000ff" fill-rule="evenodd" fill-opacity="1" stroke="none"/>
<circle clip-path="url(#clip232)" cx="1442.16" cy="551.118" r="21.6" fill="#0000ff" fill-rule="evenodd" fill-opacity="1" stroke="none"/>
<circle clip-path="url(#clip232)" cx="1461.55" cy="551.118" r="21.6" fill="#0000ff" fill-rule="evenodd" fill-opacity="1" stroke="none"/>
<circle clip-path="url(#clip232)" cx="1480.93" cy="551.118" r="21.6" fill="#0000ff" fill-rule="evenodd" fill-opacity="1" stroke="none"/>
<circle clip-path="url(#clip232)" cx="1500.32" cy="551.118" r="21.6" fill="#0000ff" fill-rule="evenodd" fill-opacity="1" stroke="none"/>
<circle clip-path="url(#clip232)" cx="1519.71" cy="551.118" r="21.6" fill="#0000ff" fill-rule="evenodd" fill-opacity="1" stroke="none"/>
<circle clip-path="url(#clip232)" cx="1539.09" cy="551.118" r="21.6" fill="#0000ff" fill-rule="evenodd" fill-opacity="1" stroke="none"/>
<circle clip-path="url(#clip232)" cx="1558.48" cy="551.118" r="21.6" fill="#0000ff" fill-rule="evenodd" fill-opacity="1" stroke="none"/>
<circle clip-path="url(#clip232)" cx="1577.87" cy="551.118" r="21.6" fill="#0000ff" fill-rule="evenodd" fill-opacity="1" stroke="none"/>
<circle clip-path="url(#clip232)" cx="1597.25" cy="551.118" r="21.6" fill="#0000ff" fill-rule="evenodd" fill-opacity="1" stroke="none"/>
<circle clip-path="url(#clip232)" cx="1616.64" cy="551.118" r="21.6" fill="#0000ff" fill-rule="evenodd" fill-opacity="1" stroke="none"/>
<circle clip-path="url(#clip232)" cx="1636.03" cy="551.118" r="21.6" fill="#0000ff" fill-rule="evenodd" fill-opacity="1" stroke="none"/>
<circle clip-path="url(#clip232)" cx="1655.42" cy="551.118" r="21.6" fill="#0000ff" fill-rule="evenodd" fill-opacity="1" stroke="none"/>
<circle clip-path="url(#clip232)" cx="1674.8" cy="551.118" r="21.6" fill="#0000ff" fill-rule="evenodd" fill-opacity="1" stroke="none"/>
<circle clip-path="url(#clip232)" cx="1694.19" cy="551.118" r="21.6" fill="#0000ff" fill-rule="evenodd" fill-opacity="1" stroke="none"/>
<circle clip-path="url(#clip232)" cx="1713.58" cy="551.118" r="21.6" fill="#0000ff" fill-rule="evenodd" fill-opacity="1" stroke="none"/>
<circle clip-path="url(#clip232)" cx="1732.96" cy="551.118" r="21.6" fill="#0000ff" fill-rule="evenodd" fill-opacity="1" stroke="none"/>
<circle clip-path="url(#clip232)" cx="1752.35" cy="551.118" r="21.6" fill="#0000ff" fill-rule="evenodd" fill-opacity="1" stroke="none"/>
<circle clip-path="url(#clip232)" cx="1771.74" cy="551.118" r="21.6" fill="#0000ff" fill-rule="evenodd" fill-opacity="1" stroke="none"/>
<circle clip-path="url(#clip232)" cx="1791.12" cy="551.118" r="21.6" fill="#0000ff" fill-rule="evenodd" fill-opacity="1" stroke="none"/>
<circle clip-path="url(#clip232)" cx="1810.51" cy="551.118" r="21.6" fill="#0000ff" fill-rule="evenodd" fill-opacity="1" stroke="none"/>
<circle clip-path="url(#clip232)" cx="1829.9" cy="551.118" r="21.6" fill="#0000ff" fill-rule="evenodd" fill-opacity="1" stroke="none"/>
<circle clip-path="url(#clip232)" cx="1849.28" cy="551.118" r="21.6" fill="#0000ff" fill-rule="evenodd" fill-opacity="1" stroke="none"/>
<circle clip-path="url(#clip232)" cx="1868.67" cy="551.118" r="21.6" fill="#0000ff" fill-rule="evenodd" fill-opacity="1" stroke="none"/>
<circle clip-path="url(#clip232)" cx="1888.06" cy="551.118" r="21.6" fill="#0000ff" fill-rule="evenodd" fill-opacity="1" stroke="none"/>
<circle clip-path="url(#clip232)" cx="1907.44" cy="551.118" r="21.6" fill="#0000ff" fill-rule="evenodd" fill-opacity="1" stroke="none"/>
<circle clip-path="url(#clip232)" cx="1926.83" cy="551.118" r="21.6" fill="#0000ff" fill-rule="evenodd" fill-opacity="1" stroke="none"/>
<circle clip-path="url(#clip232)" cx="1946.22" cy="551.118" r="21.6" fill="#0000ff" fill-rule="evenodd" fill-opacity="1" stroke="none"/>
<circle clip-path="url(#clip232)" cx="1965.6" cy="551.118" r="21.6" fill="#0000ff" fill-rule="evenodd" fill-opacity="1" stroke="none"/>
<circle clip-path="url(#clip232)" cx="1984.99" cy="551.118" r="21.6" fill="#0000ff" fill-rule="evenodd" fill-opacity="1" stroke="none"/>
<circle clip-path="url(#clip232)" cx="2004.38" cy="551.118" r="21.6" fill="#0000ff" fill-rule="evenodd" fill-opacity="1" stroke="none"/>
<circle clip-path="url(#clip232)" cx="2023.76" cy="551.118" r="21.6" fill="#0000ff" fill-rule="evenodd" fill-opacity="1" stroke="none"/>
<circle clip-path="url(#clip232)" cx="2043.15" cy="551.118" r="21.6" fill="#0000ff" fill-rule="evenodd" fill-opacity="1" stroke="none"/>
<circle clip-path="url(#clip232)" cx="2062.54" cy="551.118" r="21.6" fill="#0000ff" fill-rule="evenodd" fill-opacity="1" stroke="none"/>
<circle clip-path="url(#clip232)" cx="2081.92" cy="551.118" r="21.6" fill="#0000ff" fill-rule="evenodd" fill-opacity="1" stroke="none"/>
<circle clip-path="url(#clip232)" cx="2101.31" cy="551.118" r="21.6" fill="#0000ff" fill-rule="evenodd" fill-opacity="1" stroke="none"/>
<circle clip-path="url(#clip232)" cx="2120.7" cy="551.118" r="21.6" fill="#0000ff" fill-rule="evenodd" fill-opacity="1" stroke="none"/>
<circle clip-path="url(#clip232)" cx="2140.08" cy="551.118" r="21.6" fill="#0000ff" fill-rule="evenodd" fill-opacity="1" stroke="none"/>
<circle clip-path="url(#clip232)" cx="2159.47" cy="551.118" r="21.6" fill="#0000ff" fill-rule="evenodd" fill-opacity="1" stroke="none"/>
<circle clip-path="url(#clip232)" cx="2178.86" cy="551.118" r="21.6" fill="#0000ff" fill-rule="evenodd" fill-opacity="1" stroke="none"/>
<circle clip-path="url(#clip232)" cx="2198.24" cy="551.118" r="21.6" fill="#0000ff" fill-rule="evenodd" fill-opacity="1" stroke="none"/>
<circle clip-path="url(#clip232)" cx="2217.63" cy="551.118" r="21.6" fill="#0000ff" fill-rule="evenodd" fill-opacity="1" stroke="none"/>
<circle clip-path="url(#clip232)" cx="2237.02" cy="551.118" r="21.6" fill="#0000ff" fill-rule="evenodd" fill-opacity="1" stroke="none"/>
<circle clip-path="url(#clip232)" cx="2256.4" cy="551.118" r="21.6" fill="#0000ff" fill-rule="evenodd" fill-opacity="1" stroke="none"/>
<circle clip-path="url(#clip232)" cx="2275.79" cy="551.118" r="21.6" fill="#0000ff" fill-rule="evenodd" fill-opacity="1" stroke="none"/>
<circle clip-path="url(#clip232)" cx="2295.18" cy="551.118" r="21.6" fill="#0000ff" fill-rule="evenodd" fill-opacity="1" stroke="none"/>
<path clip-path="url(#clip230)" d="M318.312 1375.66 L2352.76 1375.66 L2352.76 847.244 L318.312 847.244  Z" fill="#ffffff" fill-rule="evenodd" fill-opacity="1"/>
<defs>
  <clipPath id="clip233">
    <rect x="318" y="847" width="2035" height="529"/>
  </clipPath>
</defs>
<polyline clip-path="url(#clip233)" style="stroke:#000000; stroke-linecap:round; stroke-linejoin:round; stroke-width:2; stroke-opacity:0.1; fill:none" points="395.277,1375.66 395.277,847.244 "/>
<polyline clip-path="url(#clip233)" style="stroke:#000000; stroke-linecap:round; stroke-linejoin:round; stroke-width:2; stroke-opacity:0.1; fill:none" points="1325.84,1375.66 1325.84,847.244 "/>
<polyline clip-path="url(#clip233)" style="stroke:#000000; stroke-linecap:round; stroke-linejoin:round; stroke-width:2; stroke-opacity:0.1; fill:none" points="2295.18,1375.66 2295.18,847.244 "/>
<polyline clip-path="url(#clip230)" style="stroke:#000000; stroke-linecap:round; stroke-linejoin:round; stroke-width:4; stroke-opacity:1; fill:none" points="318.312,1375.66 2352.76,1375.66 "/>
<polyline clip-path="url(#clip230)" style="stroke:#000000; stroke-linecap:round; stroke-linejoin:round; stroke-width:4; stroke-opacity:1; fill:none" points="395.277,1375.66 395.277,1356.76 "/>
<polyline clip-path="url(#clip230)" style="stroke:#000000; stroke-linecap:round; stroke-linejoin:round; stroke-width:4; stroke-opacity:1; fill:none" points="1325.84,1375.66 1325.84,1356.76 "/>
<polyline clip-path="url(#clip230)" style="stroke:#000000; stroke-linecap:round; stroke-linejoin:round; stroke-width:4; stroke-opacity:1; fill:none" points="2295.18,1375.66 2295.18,1356.76 "/>
<path clip-path="url(#clip230)" d="M387.256 1453.76 L411.736 1453.76 L411.736 1459.66 L378.819 1459.66 L378.819 1453.76 Q382.812 1449.63 389.687 1442.68 Q396.597 1435.7 398.368 1433.69 Q401.736 1429.9 403.055 1427.3 Q404.409 1424.66 404.409 1422.13 Q404.409 1417.99 401.493 1415.39 Q398.611 1412.79 393.958 1412.79 Q390.659 1412.79 386.979 1413.93 Q383.333 1415.08 379.166 1417.4 L379.166 1410.32 Q383.402 1408.62 387.083 1407.75 Q390.763 1406.88 393.819 1406.88 Q401.874 1406.88 406.666 1410.91 Q411.458 1414.94 411.458 1421.67 Q411.458 1424.87 410.242 1427.75 Q409.062 1430.6 405.902 1434.49 Q405.034 1435.49 400.381 1440.32 Q395.729 1445.11 387.256 1453.76 Z" fill="#000000" fill-rule="nonzero" fill-opacity="1" /><path clip-path="url(#clip230)" d="M1287.89 1407.82 L1315.42 1407.82 L1315.42 1413.72 L1294.31 1413.72 L1294.31 1426.43 Q1295.84 1425.91 1297.37 1425.67 Q1298.9 1425.39 1300.42 1425.39 Q1309.1 1425.39 1314.17 1430.15 Q1319.24 1434.9 1319.24 1443.03 Q1319.24 1451.4 1314.04 1456.05 Q1308.83 1460.67 1299.35 1460.67 Q1296.08 1460.67 1292.68 1460.11 Q1289.31 1459.56 1285.7 1458.44 L1285.7 1451.4 Q1288.83 1453.1 1292.16 1453.93 Q1295.49 1454.76 1299.21 1454.76 Q1305.22 1454.76 1308.72 1451.6 Q1312.23 1448.44 1312.23 1443.03 Q1312.23 1437.61 1308.72 1434.45 Q1305.22 1431.29 1299.21 1431.29 Q1296.4 1431.29 1293.58 1431.92 Q1290.81 1432.54 1287.89 1433.86 L1287.89 1407.82 Z" fill="#000000" fill-rule="nonzero" fill-opacity="1" /><path clip-path="url(#clip230)" d="M1348.06 1412.44 Q1342.65 1412.44 1339.9 1417.79 Q1337.19 1423.1 1337.19 1433.79 Q1337.19 1444.45 1339.9 1449.8 Q1342.65 1455.11 1348.06 1455.11 Q1353.51 1455.11 1356.22 1449.8 Q1358.97 1444.45 1358.97 1433.79 Q1358.97 1423.1 1356.22 1417.79 Q1353.51 1412.44 1348.06 1412.44 M1348.06 1406.88 Q1356.78 1406.88 1361.36 1413.79 Q1365.98 1420.67 1365.98 1433.79 Q1365.98 1446.88 1361.36 1453.79 Q1356.78 1460.67 1348.06 1460.67 Q1339.35 1460.67 1334.73 1453.79 Q1330.15 1446.88 1330.15 1433.79 Q1330.15 1420.67 1334.73 1413.79 Q1339.35 1406.88 1348.06 1406.88 Z" fill="#000000" fill-rule="nonzero" fill-opacity="1" /><path clip-path="url(#clip230)" d="M2234.59 1453.76 L2246.05 1453.76 L2246.05 1414.21 L2233.58 1416.71 L2233.58 1410.32 L2245.98 1407.82 L2252.99 1407.82 L2252.99 1453.76 L2264.45 1453.76 L2264.45 1459.66 L2234.59 1459.66 L2234.59 1453.76 Z" fill="#000000" fill-rule="nonzero" fill-opacity="1" /><path clip-path="url(#clip230)" d="M2293.61 1412.44 Q2288.2 1412.44 2285.46 1417.79 Q2282.75 1423.1 2282.75 1433.79 Q2282.75 1444.45 2285.46 1449.8 Q2288.2 1455.11 2293.61 1455.11 Q2299.07 1455.11 2301.77 1449.8 Q2304.52 1444.45 2304.52 1433.79 Q2304.52 1423.1 2301.77 1417.79 Q2299.07 1412.44 2293.61 1412.44 M2293.61 1406.88 Q2302.33 1406.88 2306.91 1413.79 Q2311.53 1420.67 2311.53 1433.79 Q2311.53 1446.88 2306.91 1453.79 Q2302.33 1460.67 2293.61 1460.67 Q2284.9 1460.67 2280.28 1453.79 Q2275.7 1446.88 2275.7 1433.79 Q2275.7 1420.67 2280.28 1413.79 Q2284.9 1406.88 2293.61 1406.88 Z" fill="#000000" fill-rule="nonzero" fill-opacity="1" /><path clip-path="url(#clip230)" d="M2338.86 1412.44 Q2333.44 1412.44 2330.7 1417.79 Q2327.99 1423.1 2327.99 1433.79 Q2327.99 1444.45 2330.7 1449.8 Q2333.44 1455.11 2338.86 1455.11 Q2344.31 1455.11 2347.02 1449.8 Q2349.76 1444.45 2349.76 1433.79 Q2349.76 1423.1 2347.02 1417.79 Q2344.31 1412.44 2338.86 1412.44 M2338.86 1406.88 Q2347.57 1406.88 2352.16 1413.79 Q2356.77 1420.67 2356.77 1433.79 Q2356.77 1446.88 2352.16 1453.79 Q2347.57 1460.67 2338.86 1460.67 Q2330.14 1460.67 2325.52 1453.79 Q2320.94 1446.88 2320.94 1433.79 Q2320.94 1420.67 2325.52 1413.79 Q2330.14 1406.88 2338.86 1406.88 Z" fill="#000000" fill-rule="nonzero" fill-opacity="1" /><path clip-path="url(#clip230)" d="M1356.54 1531.66 Q1356.54 1534.67 1354.7 1536.46 Q1352.91 1538.25 1350.64 1538.25 Q1348.64 1538.25 1347.58 1537.09 Q1346.53 1535.93 1346.53 1534.46 Q1346.53 1533.83 1346.79 1533.03 Q1347.06 1532.19 1347.64 1531.19 Q1348.27 1530.19 1349.59 1529.45 Q1350.9 1528.71 1352.7 1528.61 Q1352.33 1528.24 1352.22 1528.19 Q1351.43 1527.55 1349.95 1527.34 Q1349.74 1527.24 1349.01 1527.24 Q1345.37 1527.24 1341.68 1529.93 Q1338.04 1532.56 1333.57 1537.57 Q1327.93 1543.42 1324.29 1545.58 Q1340.26 1547.69 1340.26 1556.91 Q1340.26 1558.44 1339.84 1560.28 Q1338.99 1563.76 1338.99 1566.29 Q1338.99 1571.35 1342.42 1571.35 Q1345.74 1571.35 1347.85 1567.98 Q1350.01 1564.6 1351.8 1558.01 Q1352.06 1556.8 1352.33 1556.43 Q1352.59 1556.06 1353.33 1556.06 Q1354.65 1556.06 1354.65 1557.12 Q1353.43 1563.28 1350.75 1568.03 Q1347.32 1573.77 1342.21 1573.77 Q1337.94 1573.77 1335.09 1570.82 Q1332.3 1567.82 1332.3 1563.07 Q1332.3 1561.91 1332.72 1559.28 Q1333.04 1558.23 1333.04 1557.01 Q1333.04 1554.54 1331.67 1552.69 Q1330.3 1550.79 1328.08 1549.85 Q1325.87 1548.9 1324.03 1548.48 Q1322.23 1548 1320.5 1547.84 Q1315.23 1570.14 1314.49 1571.51 Q1314.01 1572.45 1312.96 1573.09 Q1311.91 1573.77 1310.8 1573.77 Q1309.74 1573.77 1308.69 1573.03 Q1307.69 1572.35 1307.69 1570.72 Q1307.69 1569.87 1308.11 1568.34 L1323.76 1506.16 L1324.08 1504.05 Q1324.08 1503.42 1323.82 1503.1 Q1323.6 1502.73 1322.34 1502.47 Q1321.13 1502.21 1318.7 1502.21 Q1317.7 1502.21 1317.23 1502.15 Q1316.81 1502.1 1316.44 1501.84 Q1316.07 1501.52 1316.07 1500.89 Q1316.07 1499.99 1316.44 1499.52 Q1316.86 1498.99 1317.18 1498.88 Q1317.49 1498.78 1318.12 1498.73 Q1319.02 1498.67 1322.02 1498.41 Q1325.03 1498.09 1327.61 1497.88 Q1330.19 1497.67 1331.3 1497.67 Q1331.93 1497.67 1332.25 1497.99 Q1332.62 1498.25 1332.67 1498.57 L1332.72 1498.83 L1321.5 1544.37 Q1326.13 1542.52 1333.46 1534.35 Q1341.94 1524.87 1349.22 1524.87 Q1352.64 1524.87 1354.59 1526.97 Q1356.54 1529.03 1356.54 1531.66 Z" fill="#000000" fill-rule="nonzero" fill-opacity="1" /><polyline clip-path="url(#clip233)" style="stroke:#000000; stroke-linecap:round; stroke-linejoin:round; stroke-width:2; stroke-opacity:0.1; fill:none" points="318.312,1360.7 2352.76,1360.7 "/>
<polyline clip-path="url(#clip233)" style="stroke:#000000; stroke-linecap:round; stroke-linejoin:round; stroke-width:2; stroke-opacity:0.1; fill:none" points="318.312,1123.32 2352.76,1123.32 "/>
<polyline clip-path="url(#clip233)" style="stroke:#000000; stroke-linecap:round; stroke-linejoin:round; stroke-width:2; stroke-opacity:0.1; fill:none" points="318.312,885.938 2352.76,885.938 "/>
<polyline clip-path="url(#clip230)" style="stroke:#000000; stroke-linecap:round; stroke-linejoin:round; stroke-width:4; stroke-opacity:1; fill:none" points="318.312,1375.66 318.312,847.244 "/>
<polyline clip-path="url(#clip230)" style="stroke:#000000; stroke-linecap:round; stroke-linejoin:round; stroke-width:4; stroke-opacity:1; fill:none" points="318.312,1360.7 337.21,1360.7 "/>
<polyline clip-path="url(#clip230)" style="stroke:#000000; stroke-linecap:round; stroke-linejoin:round; stroke-width:4; stroke-opacity:1; fill:none" points="318.312,1123.32 337.21,1123.32 "/>
<polyline clip-path="url(#clip230)" style="stroke:#000000; stroke-linecap:round; stroke-linejoin:round; stroke-width:4; stroke-opacity:1; fill:none" points="318.312,885.938 337.21,885.938 "/>
<path clip-path="url(#clip230)" d="M144.5 1361.38 L189.014 1361.38 L189.014 1367.28 L144.5 1367.28 L144.5 1361.38 Z" fill="#000000" fill-rule="nonzero" fill-opacity="1" /><path clip-path="url(#clip230)" d="M223.423 1340.9 L205.715 1368.57 L223.423 1368.57 L223.423 1340.9 M221.583 1334.78 L230.402 1334.78 L230.402 1368.57 L237.798 1368.57 L237.798 1374.4 L230.402 1374.4 L230.402 1386.62 L223.423 1386.62 L223.423 1374.4 L200.021 1374.4 L200.021 1367.63 L221.583 1334.78 Z" fill="#000000" fill-rule="nonzero" fill-opacity="1" /><path clip-path="url(#clip230)" d="M264.395 1339.4 Q258.979 1339.4 256.236 1344.75 Q253.527 1350.06 253.527 1360.76 Q253.527 1371.42 256.236 1376.76 Q258.979 1382.08 264.395 1382.08 Q269.847 1382.08 272.555 1376.76 Q275.298 1371.42 275.298 1360.76 Q275.298 1350.06 272.555 1344.75 Q269.847 1339.4 264.395 1339.4 M264.395 1333.85 Q273.111 1333.85 277.694 1340.76 Q282.312 1347.63 282.312 1360.76 Q282.312 1373.85 277.694 1380.76 Q273.111 1387.63 264.395 1387.63 Q255.68 1387.63 251.062 1380.76 Q246.479 1373.85 246.479 1360.76 Q246.479 1347.63 251.062 1340.76 Q255.68 1333.85 264.395 1333.85 Z" fill="#000000" fill-rule="nonzero" fill-opacity="1" /><path clip-path="url(#clip230)" d="M144.5 1124 L189.014 1124 L189.014 1129.9 L144.5 1129.9 L144.5 1124 Z" fill="#000000" fill-rule="nonzero" fill-opacity="1" /><path clip-path="url(#clip230)" d="M210.194 1143.34 L234.673 1143.34 L234.673 1149.24 L201.757 1149.24 L201.757 1143.34 Q205.75 1139.21 212.625 1132.26 Q219.534 1125.28 221.305 1123.27 Q224.673 1119.48 225.993 1116.88 Q227.347 1114.24 227.347 1111.71 Q227.347 1107.57 224.43 1104.97 Q221.548 1102.37 216.896 1102.37 Q213.597 1102.37 209.916 1103.51 Q206.271 1104.66 202.104 1106.98 L202.104 1099.9 Q206.34 1098.2 210.021 1097.33 Q213.701 1096.46 216.757 1096.46 Q224.812 1096.46 229.604 1100.49 Q234.396 1104.52 234.396 1111.26 Q234.396 1114.45 233.18 1117.33 Q232 1120.18 228.84 1124.07 Q227.972 1125.07 223.319 1129.9 Q218.666 1134.69 210.194 1143.34 Z" fill="#000000" fill-rule="nonzero" fill-opacity="1" /><path clip-path="url(#clip230)" d="M264.395 1102.02 Q258.979 1102.02 256.236 1107.37 Q253.527 1112.68 253.527 1123.37 Q253.527 1134.03 256.236 1139.38 Q258.979 1144.69 264.395 1144.69 Q269.847 1144.69 272.555 1139.38 Q275.298 1134.03 275.298 1123.37 Q275.298 1112.68 272.555 1107.37 Q269.847 1102.02 264.395 1102.02 M264.395 1096.46 Q273.111 1096.46 277.694 1103.37 Q282.312 1110.25 282.312 1123.37 Q282.312 1136.46 277.694 1143.37 Q273.111 1150.25 264.395 1150.25 Q255.68 1150.25 251.062 1143.37 Q246.479 1136.46 246.479 1123.37 Q246.479 1110.25 251.062 1103.37 Q255.68 1096.46 264.395 1096.46 Z" fill="#000000" fill-rule="nonzero" fill-opacity="1" /><path clip-path="url(#clip230)" d="M264.395 864.636 Q258.979 864.636 256.236 869.983 Q253.527 875.295 253.527 885.99 Q253.527 896.649 256.236 901.997 Q258.979 907.309 264.395 907.309 Q269.847 907.309 272.555 901.997 Q275.298 896.649 275.298 885.99 Q275.298 875.295 272.555 869.983 Q269.847 864.636 264.395 864.636 M264.395 859.08 Q273.111 859.08 277.694 865.99 Q282.312 872.865 282.312 885.99 Q282.312 899.08 277.694 905.99 Q273.111 912.865 264.395 912.865 Q255.68 912.865 251.062 905.99 Q246.479 899.08 246.479 885.99 Q246.479 872.865 251.062 865.99 Q255.68 859.08 264.395 859.08 Z" fill="#000000" fill-rule="nonzero" fill-opacity="1" /><path clip-path="url(#clip230)" d="M85.3313 1319.88 L82.0112 1319.88 Q82.0112 1314.13 81.3261 1312.82 Q80.5883 1311.5 77.1101 1311.5 L20.984 1311.5 Q16.9788 1311.5 15.9775 1312.92 Q14.9762 1314.29 14.9762 1319.88 L11.6033 1319.88 L10.4439 1304.39 L77.1101 1304.39 Q80.5883 1304.39 81.3261 1303.02 Q82.0112 1301.64 82.0112 1295.95 L85.3313 1295.95 Q85.3313 1297.27 85.2259 1300.01 Q85.1205 1302.75 85.0678 1304.75 Q85.0151 1306.76 85.0151 1307.92 Q85.0151 1309.18 85.3313 1319.88 Z" fill="#000000" fill-rule="nonzero" fill-opacity="1" /><path clip-path="url(#clip230)" d="M79.5343 1279.72 Q72.4724 1286.83 62.2485 1286.83 Q51.9719 1286.83 44.4885 1279.87 Q36.9523 1272.86 36.9523 1262.85 Q36.9523 1253.05 44.4358 1246.04 Q51.8665 1238.98 62.2485 1238.98 Q72.4197 1238.98 79.4816 1246.09 Q86.5435 1253.15 86.5435 1262.96 Q86.5435 1272.55 79.5343 1279.72 M61.3526 1277.87 Q71.84 1277.87 76.5831 1275.13 Q83.803 1270.91 83.803 1262.85 Q83.803 1258.85 81.6423 1255.53 Q79.4816 1252.15 75.8453 1250.31 Q71.1022 1247.94 61.3526 1247.94 Q50.9706 1247.94 46.3857 1250.78 Q39.3765 1255 39.3765 1262.96 Q39.3765 1266.44 41.221 1269.86 Q43.0128 1273.23 46.5965 1275.29 Q51.3395 1277.87 61.3526 1277.87 Z" fill="#000000" fill-rule="nonzero" fill-opacity="1" /><path clip-path="url(#clip230)" d="M93.8688 1237.27 Q90.3906 1237.27 87.3867 1234.64 Q84.3827 1231.95 83.0652 1227.31 Q80.0613 1232.06 73.4737 1232.06 Q68.4145 1232.06 64.5146 1228.74 Q60.2986 1233.79 53.3948 1233.79 Q47.0181 1233.79 42.3277 1228.74 Q37.6374 1223.68 37.6374 1216.3 Q37.6374 1209.82 41.5372 1204.86 Q36.478 1199.7 36.4253 1193.43 Q36.4253 1190.63 38.1644 1189.32 Q39.9035 1187.95 41.748 1187.95 Q43.3817 1187.95 44.1723 1189 Q44.9628 1190 44.9628 1191.05 Q44.9628 1192.37 44.1196 1193.32 Q43.2236 1194.22 41.8534 1194.22 Q39.5873 1194.22 38.9022 1192.48 Q38.7968 1192.79 38.7968 1193.53 Q38.7968 1198.8 43.0128 1203.28 Q47.1235 1198.85 53.5002 1198.85 Q59.877 1198.85 64.5673 1203.91 Q69.2577 1208.97 69.2577 1216.3 Q69.2577 1222.36 65.8849 1227 Q68.0456 1228.84 70.9968 1228.84 Q73.6845 1228.84 75.7926 1227.21 Q77.9006 1225.57 78.2168 1223.1 Q78.3222 1222.36 78.3222 1215.03 Q78.3222 1210.71 78.4276 1208.34 Q78.533 1205.97 79.2708 1202.6 Q79.9559 1199.17 81.3261 1196.48 Q85.2259 1189.47 93.658 1189.42 Q99.824 1189.42 103.671 1196.54 Q107.571 1203.6 107.571 1213.4 Q107.571 1223.31 103.618 1230.32 Q99.7186 1237.27 93.8688 1237.27 M93.8688 1231.63 Q98.2957 1231.63 101.669 1226.42 Q105.094 1221.2 105.094 1213.29 Q105.094 1205.55 101.721 1200.33 Q98.4011 1195.06 93.8688 1195.06 Q90.6541 1195.06 88.5988 1196.9 Q86.5435 1198.75 85.7002 1202.54 Q84.9097 1206.28 84.7516 1208.92 Q84.5935 1211.55 84.5935 1216.4 L84.5935 1222.78 Q84.8043 1226.47 87.4921 1229.05 Q90.1798 1231.63 93.8688 1231.63 M53.5002 1225.73 Q66.7808 1225.73 66.7808 1216.3 Q66.7808 1211.55 62.4593 1208.66 Q59.5608 1206.92 53.3948 1206.92 Q40.1143 1206.92 40.1143 1216.3 Q40.1143 1221.04 44.4358 1223.99 Q47.3343 1225.73 53.5002 1225.73 Z" fill="#000000" fill-rule="nonzero" fill-opacity="1" /><path clip-path="url(#clip230)" d="M72.1053 1176.91 L69.7443 1176.91 Q69.7443 1167.83 64.9117 1163.15 Q64.9117 1161.86 65.2068 1161.64 Q65.5019 1161.42 66.8668 1161.42 L109.254 1161.42 Q111.504 1161.42 112.205 1160.31 Q112.906 1159.2 112.906 1154.37 L112.906 1151.97 L115.23 1151.97 Q115.009 1154.63 115.009 1164.22 Q115.009 1173.81 115.23 1176.43 L112.906 1176.43 L112.906 1174.03 Q112.906 1169.27 112.242 1168.13 Q111.541 1166.99 109.254 1166.99 L70.1132 1166.99 Q72.1053 1170.93 72.1053 1176.91 Z" fill="#000000" fill-rule="nonzero" fill-opacity="1" /><path clip-path="url(#clip230)" d="M91.0669 1148.26 Q79.9629 1148.26 73.9129 1145.45 Q64.9117 1141.54 64.9117 1132.32 Q64.9117 1130.36 65.465 1128.34 Q65.9815 1126.27 68.0104 1123.69 Q70.0394 1121.07 73.3595 1119.48 Q79.7785 1116.46 91.0669 1116.46 Q102.097 1116.46 108.11 1119.26 Q116.89 1123.36 116.89 1132.39 Q116.89 1135.79 115.156 1139.26 Q113.422 1142.69 109.254 1144.86 Q103.019 1148.26 91.0669 1148.26 M90.1447 1141.99 Q101.544 1141.99 106.081 1141.17 Q110.988 1140.25 113.127 1137.74 Q115.23 1135.2 115.23 1132.39 Q115.23 1129.37 112.98 1126.86 Q110.693 1124.31 105.786 1123.54 Q100.954 1122.69 90.1447 1122.73 Q79.6309 1122.73 75.4254 1123.47 Q70.519 1124.46 68.5638 1127.12 Q66.5717 1129.74 66.5717 1132.39 Q66.5717 1133.39 66.8668 1134.46 Q67.162 1135.49 68.0104 1137 Q68.8589 1138.52 70.9617 1139.7 Q73.0644 1140.84 76.237 1141.39 Q80.3318 1141.99 90.1447 1141.99 Z" fill="#000000" fill-rule="nonzero" fill-opacity="1" /><path clip-path="url(#clip230)" d="M58.3487 1099.32 Q40.1143 1099.32 25.4109 1092.53 Q19.2449 1089.63 14.0803 1085.57 Q8.91562 1081.51 6.6495 1078.82 Q4.38338 1076.14 4.38338 1075.4 Q4.38338 1074.34 5.43739 1074.29 Q5.96439 1074.29 7.2819 1075.71 Q24.9893 1093.11 58.3487 1093.05 Q91.8135 1093.05 108.836 1076.14 Q110.68 1074.29 111.26 1074.29 Q112.314 1074.29 112.314 1075.4 Q112.314 1076.14 110.153 1078.72 Q107.993 1081.3 103.039 1085.31 Q98.0849 1089.31 92.0243 1092.21 Q77.3209 1099.32 58.3487 1099.32 Z" fill="#000000" fill-rule="nonzero" fill-opacity="1" /><path clip-path="url(#clip230)" d="M41.3791 1000.81 Q45.0682 1000.81 45.0682 1006.08 L45.0682 1017.94 Q49.8112 1014.62 56.8204 1014.62 Q62.8282 1014.62 68.4672 1017.09 Q74.0534 1019.52 77.9533 1023.42 Q81.8531 1027.26 84.2246 1032.11 Q86.5435 1036.96 86.5435 1041.7 Q86.5435 1048.92 81.6423 1053.4 Q76.7412 1057.88 69.4685 1057.88 Q65.6214 1057.88 61.3526 1056.57 Q57.0839 1055.2 53.1313 1052.61 Q49.1261 1050.03 45.9114 1046.66 Q42.6966 1043.23 40.7467 1038.81 Q38.7968 1034.33 38.7968 1029.64 L38.7968 1005.03 Q38.7968 1003.71 38.9022 1003.02 Q38.9549 1002.28 39.5873 1001.55 Q40.167 1000.81 41.3791 1000.81 M55.5556 1021.52 Q54.2908 1021.52 53.184 1021.68 Q52.0246 1021.84 50.4963 1022.42 Q48.9153 1023 47.8086 1024 Q46.6492 1025 45.8587 1026.95 Q45.0682 1028.85 45.0682 1031.43 Q45.0682 1035.06 47.0708 1039.07 Q49.0734 1043.07 54.0272 1046.13 Q58.2433 1048.66 63.7241 1049.93 Q69.205 1051.19 72.4724 1051.19 Q78.0587 1051.19 81.1153 1048.5 Q84.1192 1045.76 84.1192 1041.6 Q84.1192 1038.17 81.8004 1034.27 Q79.4289 1030.37 74.9493 1027.37 Q71.0495 1024.74 65.3579 1023.15 Q59.6662 1021.52 55.5556 1021.52 Z" fill="#000000" fill-rule="nonzero" fill-opacity="1" /><path clip-path="url(#clip230)" d="M89.0597 955.651 Q91.1625 955.651 92.4168 956.942 Q93.671 958.196 93.671 959.782 Q93.671 961.184 92.8595 961.922 Q92.0479 962.66 91.0149 962.66 Q90.5723 962.66 90.0189 962.475 Q89.4286 962.291 88.7277 961.885 Q88.0268 961.443 87.5104 960.52 Q86.9939 959.598 86.9201 958.344 Q86.6619 958.602 86.625 958.676 Q86.1823 959.229 86.0347 960.262 Q85.961 960.41 85.961 960.926 Q85.961 963.471 87.8424 966.054 Q89.6869 968.599 93.1915 971.735 Q97.2863 975.682 98.7988 978.228 Q100.274 967.05 106.73 967.05 Q107.8 967.05 109.091 967.345 Q111.526 967.935 113.297 967.935 Q116.838 967.935 116.838 965.537 Q116.838 963.213 114.477 961.738 Q112.116 960.225 107.505 958.971 Q106.656 958.786 106.398 958.602 Q106.14 958.418 106.14 957.901 Q106.14 956.979 106.878 956.979 Q111.194 957.827 114.514 959.709 Q118.535 962.107 118.535 965.685 Q118.535 968.673 116.469 970.665 Q114.367 972.62 111.046 972.62 Q110.235 972.62 108.39 972.325 Q107.652 972.104 106.804 972.104 Q105.07 972.104 103.779 973.063 Q102.451 974.022 101.787 975.572 Q101.123 977.121 100.828 978.412 Q100.496 979.666 100.385 980.884 Q115.99 984.573 116.949 985.089 Q117.613 985.421 118.056 986.159 Q118.535 986.897 118.535 987.672 Q118.535 988.409 118.019 989.147 Q117.539 989.848 116.395 989.848 Q115.805 989.848 114.735 989.553 L71.2048 978.597 L69.7292 978.375 Q69.2865 978.375 69.0652 978.56 Q68.8069 978.707 68.6225 979.593 Q68.438 980.441 68.438 982.138 Q68.438 982.839 68.4011 983.171 Q68.3643 983.466 68.1798 983.724 Q67.9585 983.983 67.5158 983.983 Q66.8886 983.983 66.5566 983.724 Q66.1877 983.429 66.1139 983.208 Q66.0402 982.986 66.0033 982.544 Q65.9664 981.917 65.7819 979.814 Q65.5606 977.711 65.413 975.904 Q65.2655 974.096 65.2655 973.321 Q65.2655 972.879 65.4868 972.657 Q65.6713 972.399 65.8926 972.362 L66.0771 972.325 L97.9503 980.183 Q96.6592 976.936 90.9412 971.809 Q84.3009 965.869 84.3009 960.778 Q84.3009 958.381 85.7765 957.016 Q87.2152 955.651 89.0597 955.651 Z" fill="#000000" fill-rule="nonzero" fill-opacity="1" /><path clip-path="url(#clip230)" d="M111.26 944.466 Q110.733 944.466 109.415 943.095 Q91.7081 925.704 58.3487 925.704 Q24.8839 925.704 7.96701 942.41 Q6.01709 944.466 5.43739 944.466 Q4.38338 944.466 4.38338 943.412 Q4.38338 942.674 6.5441 940.091 Q8.70482 937.456 13.6587 933.504 Q18.6125 929.499 24.6731 926.547 Q39.3765 919.433 58.3487 919.433 Q76.5831 919.433 91.2865 926.231 Q97.4525 929.13 102.617 933.188 Q107.782 937.246 110.048 939.933 Q112.314 942.621 112.314 943.412 Q112.314 944.466 111.26 944.466 Z" fill="#000000" fill-rule="nonzero" fill-opacity="1" /><circle clip-path="url(#clip233)" cx="375.891" cy="885.938" r="21.6" fill="#ff0000" fill-rule="evenodd" fill-opacity="1" stroke="none"/>
<circle clip-path="url(#clip233)" cx="395.277" cy="972.758" r="21.6" fill="#ff0000" fill-rule="evenodd" fill-opacity="1" stroke="none"/>
<circle clip-path="url(#clip233)" cx="414.664" cy="997.839" r="21.6" fill="#ff0000" fill-rule="evenodd" fill-opacity="1" stroke="none"/>
<circle clip-path="url(#clip233)" cx="434.051" cy="1053.74" r="21.6" fill="#ff0000" fill-rule="evenodd" fill-opacity="1" stroke="none"/>
<circle clip-path="url(#clip233)" cx="453.437" cy="1059.49" r="21.6" fill="#ff0000" fill-rule="evenodd" fill-opacity="1" stroke="none"/>
<circle clip-path="url(#clip233)" cx="472.824" cy="1079.98" r="21.6" fill="#ff0000" fill-rule="evenodd" fill-opacity="1" stroke="none"/>
<circle clip-path="url(#clip233)" cx="492.211" cy="1134.98" r="21.6" fill="#ff0000" fill-rule="evenodd" fill-opacity="1" stroke="none"/>
<circle clip-path="url(#clip233)" cx="511.598" cy="1138.8" r="21.6" fill="#ff0000" fill-rule="evenodd" fill-opacity="1" stroke="none"/>
<circle clip-path="url(#clip233)" cx="530.984" cy="1168.67" r="21.6" fill="#ff0000" fill-rule="evenodd" fill-opacity="1" stroke="none"/>
<circle clip-path="url(#clip233)" cx="550.371" cy="1218.53" r="21.6" fill="#ff0000" fill-rule="evenodd" fill-opacity="1" stroke="none"/>
<circle clip-path="url(#clip233)" cx="569.758" cy="1229.47" r="21.6" fill="#ff0000" fill-rule="evenodd" fill-opacity="1" stroke="none"/>
<circle clip-path="url(#clip233)" cx="589.145" cy="1261.36" r="21.6" fill="#ff0000" fill-rule="evenodd" fill-opacity="1" stroke="none"/>
<circle clip-path="url(#clip233)" cx="608.531" cy="1299.96" r="21.6" fill="#ff0000" fill-rule="evenodd" fill-opacity="1" stroke="none"/>
<circle clip-path="url(#clip233)" cx="627.918" cy="1302.04" r="21.6" fill="#ff0000" fill-rule="evenodd" fill-opacity="1" stroke="none"/>
<circle clip-path="url(#clip233)" cx="647.305" cy="1313.19" r="21.6" fill="#ff0000" fill-rule="evenodd" fill-opacity="1" stroke="none"/>
</svg>
