<?xml version="1.0" encoding="utf-8"?>
<svg xmlns="http://www.w3.org/2000/svg" xmlns:xlink="http://www.w3.org/1999/xlink" width="600" height="400" viewBox="0 0 2400 1600">
<defs>
  <clipPath id="clip380">
    <rect x="0" y="0" width="2400" height="1600"/>
  </clipPath>
</defs>
<path clip-path="url(#clip380)" d="M0 1600 L2400 1600 L2400 0 L0 0  Z" fill="#ffffff" fill-rule="evenodd" fill-opacity="1"/>
<defs>
  <clipPath id="clip381">
    <rect x="320" y="47" width="2033" height="1338"/>
  </clipPath>
</defs>
<path clip-path="url(#clip380)" d="M320.783 1384.3 L2352.76 1384.3 L2352.76 47.2441 L320.783 47.2441  Z" fill="#ffffff" fill-rule="evenodd" fill-opacity="1"/>
<polyline clip-path="url(#clip381)" style="stroke:#000000; stroke-linecap:round; stroke-linejoin:round; stroke-width:2; stroke-opacity:0.1; fill:none" points="378.292,1384.3 378.292,47.2441 "/>
<polyline clip-path="url(#clip381)" style="stroke:#000000; stroke-linecap:round; stroke-linejoin:round; stroke-width:2; stroke-opacity:0.1; fill:none" points="867.311,1384.3 867.311,47.2441 "/>
<polyline clip-path="url(#clip381)" style="stroke:#000000; stroke-linecap:round; stroke-linejoin:round; stroke-width:2; stroke-opacity:0.1; fill:none" points="1356.33,1384.3 1356.33,47.2441 "/>
<polyline clip-path="url(#clip381)" style="stroke:#000000; stroke-linecap:round; stroke-linejoin:round; stroke-width:2; stroke-opacity:0.1; fill:none" points="1845.35,1384.3 1845.35,47.2441 "/>
<polyline clip-path="url(#clip381)" style="stroke:#000000; stroke-linecap:round; stroke-linejoin:round; stroke-width:2; stroke-opacity:0.1; fill:none" points="2334.37,1384.3 2334.37,47.2441 "/>
<polyline clip-path="url(#clip381)" style="stroke:#000000; stroke-linecap:round; stroke-linejoin:round; stroke-width:2; stroke-opacity:0.1; fill:none" points="320.783,1203.13 2352.76,1203.13 "/>
<polyline clip-path="url(#clip381)" style="stroke:#000000; stroke-linecap:round; stroke-linejoin:round; stroke-width:2; stroke-opacity:0.1; fill:none" points="320.783,963.048 2352.76,963.048 "/>
<polyline clip-path="url(#clip381)" style="stroke:#000000; stroke-linecap:round; stroke-linejoin:round; stroke-width:2; stroke-opacity:0.1; fill:none" points="320.783,722.961 2352.76,722.961 "/>
<polyline clip-path="url(#clip381)" style="stroke:#000000; stroke-linecap:round; stroke-linejoin:round; stroke-width:2; stroke-opacity:0.1; fill:none" points="320.783,482.874 2352.76,482.874 "/>
<polyline clip-path="url(#clip381)" style="stroke:#000000; stroke-linecap:round; stroke-linejoin:round; stroke-width:2; stroke-opacity:0.1; fill:none" points="320.783,242.787 2352.76,242.787 "/>
<polyline clip-path="url(#clip380)" style="stroke:#000000; stroke-linecap:round; stroke-linejoin:round; stroke-width:4; stroke-opacity:1; fill:none" points="320.783,1384.3 2352.76,1384.3 "/>
<polyline clip-path="url(#clip380)" style="stroke:#000000; stroke-linecap:round; stroke-linejoin:round; stroke-width:4; stroke-opacity:1; fill:none" points="378.292,1384.3 378.292,1365.4 "/>
<polyline clip-path="url(#clip380)" style="stroke:#000000; stroke-linecap:round; stroke-linejoin:round; stroke-width:4; stroke-opacity:1; fill:none" points="867.311,1384.3 867.311,1365.4 "/>
<polyline clip-path="url(#clip380)" style="stroke:#000000; stroke-linecap:round; stroke-linejoin:round; stroke-width:4; stroke-opacity:1; fill:none" points="1356.33,1384.3 1356.33,1365.4 "/>
<polyline clip-path="url(#clip380)" style="stroke:#000000; stroke-linecap:round; stroke-linejoin:round; stroke-width:4; stroke-opacity:1; fill:none" points="1845.35,1384.3 1845.35,1365.4 "/>
<polyline clip-path="url(#clip380)" style="stroke:#000000; stroke-linecap:round; stroke-linejoin:round; stroke-width:4; stroke-opacity:1; fill:none" points="2334.37,1384.3 2334.37,1365.4 "/>
<path clip-path="url(#clip380)" d="M378.292 1421.08 Q372.875 1421.08 370.132 1426.43 Q367.424 1431.74 367.424 1442.43 Q367.424 1453.09 370.132 1458.44 Q372.875 1463.75 378.292 1463.75 Q383.743 1463.75 386.451 1458.44 Q389.194 1453.09 389.194 1442.43 Q389.194 1431.74 386.451 1426.43 Q383.743 1421.08 378.292 1421.08 M378.292 1415.52 Q387.007 1415.52 391.59 1422.43 Q396.208 1429.31 396.208 1442.43 Q396.208 1455.52 391.59 1462.43 Q387.007 1469.31 378.292 1469.31 Q369.576 1469.31 364.958 1462.43 Q360.375 1455.52 360.375 1442.43 Q360.375 1429.31 364.958 1422.43 Q369.576 1415.52 378.292 1415.52 Z" fill="#000000" fill-rule="nonzero" fill-opacity="1" /><path clip-path="url(#clip380)" d="M836.217 1462.4 L860.696 1462.4 L860.696 1468.3 L827.78 1468.3 L827.78 1462.4 Q831.773 1458.27 838.648 1451.32 Q845.558 1444.34 847.328 1442.33 Q850.696 1438.54 852.016 1435.94 Q853.37 1433.3 853.37 1430.77 Q853.37 1426.63 850.453 1424.03 Q847.571 1421.43 842.919 1421.43 Q839.62 1421.43 835.94 1422.57 Q832.294 1423.72 828.127 1426.04 L828.127 1418.96 Q832.363 1417.26 836.044 1416.39 Q839.724 1415.52 842.78 1415.52 Q850.835 1415.52 855.627 1419.55 Q860.419 1423.58 860.419 1430.31 Q860.419 1433.51 859.203 1436.39 Q858.023 1439.24 854.863 1443.13 Q853.995 1444.13 849.342 1448.96 Q844.69 1453.75 836.217 1462.4 Z" fill="#000000" fill-rule="nonzero" fill-opacity="1" /><path clip-path="url(#clip380)" d="M875.488 1416.46 L903.023 1416.46 L903.023 1422.36 L881.912 1422.36 L881.912 1435.07 Q883.439 1434.55 884.967 1434.31 Q886.495 1434.03 888.023 1434.03 Q896.703 1434.03 901.773 1438.79 Q906.842 1443.54 906.842 1451.67 Q906.842 1460.04 901.634 1464.69 Q896.425 1469.31 886.946 1469.31 Q883.682 1469.31 880.28 1468.75 Q876.912 1468.2 873.3 1467.08 L873.3 1460.04 Q876.425 1461.74 879.759 1462.57 Q883.092 1463.4 886.807 1463.4 Q892.814 1463.4 896.321 1460.24 Q899.828 1457.08 899.828 1451.67 Q899.828 1446.25 896.321 1443.09 Q892.814 1439.93 886.807 1439.93 Q883.995 1439.93 881.182 1440.56 Q878.405 1441.18 875.488 1442.5 L875.488 1416.46 Z" fill="#000000" fill-rule="nonzero" fill-opacity="1" /><path clip-path="url(#clip380)" d="M1318.38 1416.46 L1345.91 1416.46 L1345.91 1422.36 L1324.8 1422.36 L1324.8 1435.07 Q1326.33 1434.55 1327.86 1434.31 Q1329.39 1434.03 1330.91 1434.03 Q1339.59 1434.03 1344.66 1438.79 Q1349.73 1443.54 1349.73 1451.67 Q1349.73 1460.04 1344.52 1464.69 Q1339.32 1469.31 1329.84 1469.31 Q1326.57 1469.31 1323.17 1468.75 Q1319.8 1468.2 1316.19 1467.08 L1316.19 1460.04 Q1319.32 1461.74 1322.65 1462.57 Q1325.98 1463.4 1329.7 1463.4 Q1335.71 1463.4 1339.21 1460.24 Q1342.72 1457.08 1342.72 1451.67 Q1342.72 1446.25 1339.21 1443.09 Q1335.71 1439.93 1329.7 1439.93 Q1326.89 1439.93 1324.07 1440.56 Q1321.3 1441.18 1318.38 1442.5 L1318.38 1416.46 Z" fill="#000000" fill-rule="nonzero" fill-opacity="1" /><path clip-path="url(#clip380)" d="M1378.55 1421.08 Q1373.14 1421.08 1370.39 1426.43 Q1367.68 1431.74 1367.68 1442.43 Q1367.68 1453.09 1370.39 1458.44 Q1373.14 1463.75 1378.55 1463.75 Q1384 1463.75 1386.71 1458.44 Q1389.46 1453.09 1389.46 1442.43 Q1389.46 1431.74 1386.71 1426.43 Q1384 1421.08 1378.55 1421.08 M1378.55 1415.52 Q1387.27 1415.52 1391.85 1422.43 Q1396.47 1429.31 1396.47 1442.43 Q1396.47 1455.52 1391.85 1462.43 Q1387.27 1469.31 1378.55 1469.31 Q1369.84 1469.31 1365.22 1462.43 Q1360.64 1455.52 1360.64 1442.43 Q1360.64 1429.31 1365.22 1422.43 Q1369.84 1415.52 1378.55 1415.52 Z" fill="#000000" fill-rule="nonzero" fill-opacity="1" /><path clip-path="url(#clip380)" d="M1806.13 1416.46 L1839.46 1416.46 L1839.46 1419.45 L1820.64 1468.3 L1813.32 1468.3 L1831.03 1422.36 L1806.13 1422.36 L1806.13 1416.46 Z" fill="#000000" fill-rule="nonzero" fill-opacity="1" /><path clip-path="url(#clip380)" d="M1853.21 1416.46 L1880.75 1416.46 L1880.75 1422.36 L1859.64 1422.36 L1859.64 1435.07 Q1861.17 1434.55 1862.69 1434.31 Q1864.22 1434.03 1865.75 1434.03 Q1874.43 1434.03 1879.5 1438.79 Q1884.57 1443.54 1884.57 1451.67 Q1884.57 1460.04 1879.36 1464.69 Q1874.15 1469.31 1864.67 1469.31 Q1861.41 1469.31 1858.01 1468.75 Q1854.64 1468.2 1851.03 1467.08 L1851.03 1460.04 Q1854.15 1461.74 1857.48 1462.57 Q1860.82 1463.4 1864.53 1463.4 Q1870.54 1463.4 1874.05 1460.24 Q1877.55 1457.08 1877.55 1451.67 Q1877.55 1446.25 1874.05 1443.09 Q1870.54 1439.93 1864.53 1439.93 Q1861.72 1439.93 1858.91 1440.56 Q1856.13 1441.18 1853.21 1442.5 L1853.21 1416.46 Z" fill="#000000" fill-rule="nonzero" fill-opacity="1" /><path clip-path="url(#clip380)" d="M2273.78 1462.4 L2285.24 1462.4 L2285.24 1422.85 L2272.77 1425.35 L2272.77 1418.96 L2285.17 1416.46 L2292.18 1416.46 L2292.18 1462.4 L2303.64 1462.4 L2303.64 1468.3 L2273.78 1468.3 L2273.78 1462.4 Z" fill="#000000" fill-rule="nonzero" fill-opacity="1" /><path clip-path="url(#clip380)" d="M2332.81 1421.08 Q2327.39 1421.08 2324.65 1426.43 Q2321.94 1431.74 2321.94 1442.43 Q2321.94 1453.09 2324.65 1458.44 Q2327.39 1463.75 2332.81 1463.75 Q2338.26 1463.75 2340.97 1458.44 Q2343.71 1453.09 2343.71 1442.43 Q2343.71 1431.74 2340.97 1426.43 Q2338.26 1421.08 2332.81 1421.08 M2332.81 1415.52 Q2341.52 1415.52 2346.1 1422.43 Q2350.72 1429.31 2350.72 1442.43 Q2350.72 1455.52 2346.1 1462.43 Q2341.52 1469.31 2332.81 1469.31 Q2324.09 1469.31 2319.47 1462.43 Q2314.89 1455.52 2314.89 1442.43 Q2314.89 1429.31 2319.47 1422.43 Q2324.09 1415.52 2332.81 1415.52 Z" fill="#000000" fill-rule="nonzero" fill-opacity="1" /><path clip-path="url(#clip380)" d="M2378.05 1421.08 Q2372.63 1421.08 2369.89 1426.43 Q2367.18 1431.74 2367.18 1442.43 Q2367.18 1453.09 2369.89 1458.44 Q2372.63 1463.75 2378.05 1463.75 Q2383.5 1463.75 2386.21 1458.44 Q2388.95 1453.09 2388.95 1442.43 Q2388.95 1431.74 2386.21 1426.43 Q2383.5 1421.08 2378.05 1421.08 M2378.05 1415.52 Q2386.76 1415.52 2391.35 1422.43 Q2395.97 1429.31 2395.97 1442.43 Q2395.97 1455.52 2391.35 1462.43 Q2386.76 1469.31 2378.05 1469.31 Q2369.33 1469.31 2364.72 1462.43 Q2360.13 1455.52 2360.13 1442.43 Q2360.13 1429.31 2364.72 1422.43 Q2369.33 1415.52 2378.05 1415.52 Z" fill="#000000" fill-rule="nonzero" fill-opacity="1" /><path clip-path="url(#clip380)" d="M1213.6 1537.02 L1213.6 1508.97 L1222.12 1508.97 L1222.12 1581 L1213.6 1581 L1213.6 1573.23 Q1210.91 1577.86 1206.79 1580.12 Q1202.72 1582.35 1196.98 1582.35 Q1187.58 1582.35 1181.65 1574.85 Q1175.77 1567.35 1175.77 1555.12 Q1175.77 1542.9 1181.65 1535.4 Q1187.58 1527.9 1196.98 1527.9 Q1202.72 1527.9 1206.79 1530.17 Q1210.91 1532.39 1213.6 1537.02 M1184.57 1555.12 Q1184.57 1564.52 1188.41 1569.89 Q1192.3 1575.22 1199.06 1575.22 Q1205.82 1575.22 1209.71 1569.89 Q1213.6 1564.52 1213.6 1555.12 Q1213.6 1545.73 1209.71 1540.4 Q1205.82 1535.03 1199.06 1535.03 Q1192.3 1535.03 1188.41 1540.4 Q1184.57 1545.73 1184.57 1555.12 Z" fill="#000000" fill-rule="nonzero" fill-opacity="1" /><path clip-path="url(#clip380)" d="M1284.02 1552.95 L1284.02 1557.12 L1244.85 1557.12 Q1245.4 1565.91 1250.13 1570.54 Q1254.89 1575.12 1263.37 1575.12 Q1268.27 1575.12 1272.86 1573.92 Q1277.49 1572.72 1282.02 1570.31 L1282.02 1578.36 Q1277.44 1580.31 1272.63 1581.33 Q1267.81 1582.35 1262.86 1582.35 Q1250.45 1582.35 1243.18 1575.12 Q1235.96 1567.9 1235.96 1555.59 Q1235.96 1542.86 1242.81 1535.4 Q1249.71 1527.9 1261.38 1527.9 Q1271.84 1527.9 1277.9 1534.66 Q1284.02 1541.37 1284.02 1552.95 M1275.5 1550.45 Q1275.4 1543.46 1271.56 1539.29 Q1267.77 1535.12 1261.47 1535.12 Q1254.34 1535.12 1250.03 1539.15 Q1245.77 1543.18 1245.13 1550.49 L1275.5 1550.45 Z" fill="#000000" fill-rule="nonzero" fill-opacity="1" /><path clip-path="url(#clip380)" d="M1332.12 1554.48 Q1332.12 1545.22 1328.27 1540.12 Q1324.48 1535.03 1317.58 1535.03 Q1310.73 1535.03 1306.89 1540.12 Q1303.09 1545.22 1303.09 1554.48 Q1303.09 1563.69 1306.89 1568.78 Q1310.73 1573.87 1317.58 1573.87 Q1324.48 1573.87 1328.27 1568.78 Q1332.12 1563.69 1332.12 1554.48 M1340.64 1574.57 Q1340.64 1587.81 1334.76 1594.24 Q1328.88 1600.73 1316.75 1600.73 Q1312.26 1600.73 1308.27 1600.03 Q1304.29 1599.38 1300.54 1597.99 L1300.54 1589.71 Q1304.29 1591.74 1307.95 1592.72 Q1311.61 1593.69 1315.4 1593.69 Q1323.78 1593.69 1327.95 1589.29 Q1332.12 1584.94 1332.12 1576.1 L1332.12 1571.88 Q1329.48 1576.47 1325.36 1578.74 Q1321.24 1581 1315.5 1581 Q1305.96 1581 1300.13 1573.74 Q1294.29 1566.47 1294.29 1554.48 Q1294.29 1542.44 1300.13 1535.17 Q1305.96 1527.9 1315.5 1527.9 Q1321.24 1527.9 1325.36 1530.17 Q1329.48 1532.44 1332.12 1537.02 L1332.12 1529.15 L1340.64 1529.15 L1340.64 1574.57 Z" fill="#000000" fill-rule="nonzero" fill-opacity="1" /><path clip-path="url(#clip380)" d="M1388.23 1537.12 Q1386.79 1536.28 1385.08 1535.91 Q1383.41 1535.49 1381.38 1535.49 Q1374.15 1535.49 1370.26 1540.22 Q1366.42 1544.89 1366.42 1553.69 L1366.42 1581 L1357.86 1581 L1357.86 1529.15 L1366.42 1529.15 L1366.42 1537.21 Q1369.11 1532.49 1373.41 1530.22 Q1377.72 1527.9 1383.88 1527.9 Q1384.76 1527.9 1385.82 1528.04 Q1386.88 1528.13 1388.18 1528.37 L1388.23 1537.12 Z" fill="#000000" fill-rule="nonzero" fill-opacity="1" /><path clip-path="url(#clip380)" d="M1439.43 1552.95 L1439.43 1557.12 L1400.26 1557.12 Q1400.82 1565.91 1405.54 1570.54 Q1410.31 1575.12 1418.78 1575.12 Q1423.69 1575.12 1428.27 1573.92 Q1432.9 1572.72 1437.44 1570.31 L1437.44 1578.36 Q1432.86 1580.31 1428.04 1581.33 Q1423.23 1582.35 1418.27 1582.35 Q1405.87 1582.35 1398.6 1575.12 Q1391.38 1567.9 1391.38 1555.59 Q1391.38 1542.86 1398.23 1535.4 Q1405.13 1527.9 1416.79 1527.9 Q1427.26 1527.9 1433.32 1534.66 Q1439.43 1541.37 1439.43 1552.95 M1430.91 1550.45 Q1430.82 1543.46 1426.98 1539.29 Q1423.18 1535.12 1416.88 1535.12 Q1409.76 1535.12 1405.45 1539.15 Q1401.19 1543.18 1400.54 1550.49 L1430.91 1550.45 Z" fill="#000000" fill-rule="nonzero" fill-opacity="1" /><path clip-path="url(#clip380)" d="M1497.76 1552.95 L1497.76 1557.12 L1458.6 1557.12 Q1459.15 1565.91 1463.88 1570.54 Q1468.64 1575.12 1477.12 1575.12 Q1482.02 1575.12 1486.61 1573.92 Q1491.24 1572.72 1495.77 1570.31 L1495.77 1578.36 Q1491.19 1580.31 1486.38 1581.33 Q1481.56 1582.35 1476.61 1582.35 Q1464.2 1582.35 1456.93 1575.12 Q1449.71 1567.9 1449.71 1555.59 Q1449.71 1542.86 1456.56 1535.4 Q1463.46 1527.9 1475.13 1527.9 Q1485.59 1527.9 1491.65 1534.66 Q1497.76 1541.37 1497.76 1552.95 M1489.25 1550.45 Q1489.15 1543.46 1485.31 1539.29 Q1481.51 1535.12 1475.22 1535.12 Q1468.09 1535.12 1463.78 1539.15 Q1459.52 1543.18 1458.88 1550.49 L1489.25 1550.45 Z" fill="#000000" fill-rule="nonzero" fill-opacity="1" /><polyline clip-path="url(#clip380)" style="stroke:#000000; stroke-linecap:round; stroke-linejoin:round; stroke-width:4; stroke-opacity:1; fill:none" points="320.783,1384.3 320.783,47.2441 "/>
<polyline clip-path="url(#clip380)" style="stroke:#000000; stroke-linecap:round; stroke-linejoin:round; stroke-width:4; stroke-opacity:1; fill:none" points="320.783,1203.13 339.681,1203.13 "/>
<polyline clip-path="url(#clip380)" style="stroke:#000000; stroke-linecap:round; stroke-linejoin:round; stroke-width:4; stroke-opacity:1; fill:none" points="320.783,963.048 339.681,963.048 "/>
<polyline clip-path="url(#clip380)" style="stroke:#000000; stroke-linecap:round; stroke-linejoin:round; stroke-width:4; stroke-opacity:1; fill:none" points="320.783,722.961 339.681,722.961 "/>
<polyline clip-path="url(#clip380)" style="stroke:#000000; stroke-linecap:round; stroke-linejoin:round; stroke-width:4; stroke-opacity:1; fill:none" points="320.783,482.874 339.681,482.874 "/>
<polyline clip-path="url(#clip380)" style="stroke:#000000; stroke-linecap:round; stroke-linejoin:round; stroke-width:4; stroke-opacity:1; fill:none" points="320.783,242.787 339.681,242.787 "/>
<path clip-path="url(#clip380)" d="M155.27 1181.83 Q149.853 1181.83 147.11 1187.18 Q144.402 1192.49 144.402 1203.19 Q144.402 1213.85 147.11 1219.19 Q149.853 1224.51 155.27 1224.51 Q160.721 1224.51 163.429 1219.19 Q166.172 1213.85 166.172 1203.19 Q166.172 1192.49 163.429 1187.18 Q160.721 1181.83 155.27 1181.83 M155.27 1176.28 Q163.985 1176.28 168.568 1183.19 Q173.186 1190.06 173.186 1203.19 Q173.186 1216.28 168.568 1223.19 Q163.985 1230.06 155.27 1230.06 Q146.555 1230.06 141.937 1223.19 Q137.353 1216.28 137.353 1203.19 Q137.353 1190.06 141.937 1183.19 Q146.555 1176.28 155.27 1176.28 Z" fill="#000000" fill-rule="nonzero" fill-opacity="1" /><path clip-path="url(#clip380)" d="M185.513 1220.24 L192.839 1220.24 L192.839 1229.05 L185.513 1229.05 L185.513 1220.24 Z" fill="#000000" fill-rule="nonzero" fill-opacity="1" /><path clip-path="url(#clip380)" d="M214.158 1223.15 L238.637 1223.15 L238.637 1229.05 L205.721 1229.05 L205.721 1223.15 Q209.714 1219.02 216.589 1212.08 Q223.499 1205.1 225.269 1203.08 Q228.637 1199.3 229.957 1196.69 Q231.311 1194.06 231.311 1191.52 Q231.311 1187.39 228.394 1184.78 Q225.512 1182.18 220.86 1182.18 Q217.561 1182.18 213.881 1183.33 Q210.235 1184.47 206.068 1186.8 L206.068 1179.71 Q210.304 1178.01 213.985 1177.15 Q217.665 1176.28 220.721 1176.28 Q228.776 1176.28 233.568 1180.31 Q238.36 1184.33 238.36 1191.07 Q238.36 1194.26 237.144 1197.15 Q235.964 1199.99 232.804 1203.88 Q231.936 1204.89 227.283 1209.71 Q222.631 1214.51 214.158 1223.15 Z" fill="#000000" fill-rule="nonzero" fill-opacity="1" /><path clip-path="url(#clip380)" d="M253.429 1177.21 L280.964 1177.21 L280.964 1183.12 L259.853 1183.12 L259.853 1195.83 Q261.38 1195.31 262.908 1195.06 Q264.436 1194.78 265.964 1194.78 Q274.644 1194.78 279.714 1199.54 Q284.783 1204.3 284.783 1212.42 Q284.783 1220.79 279.575 1225.44 Q274.366 1230.06 264.887 1230.06 Q261.623 1230.06 258.221 1229.51 Q254.853 1228.95 251.241 1227.84 L251.241 1220.79 Q254.366 1222.49 257.7 1223.33 Q261.033 1224.16 264.748 1224.16 Q270.755 1224.16 274.262 1221 Q277.769 1217.84 277.769 1212.42 Q277.769 1207.01 274.262 1203.85 Q270.755 1200.69 264.748 1200.69 Q261.936 1200.69 259.123 1201.31 Q256.346 1201.94 253.429 1203.26 L253.429 1177.21 Z" fill="#000000" fill-rule="nonzero" fill-opacity="1" /><path clip-path="url(#clip380)" d="M153.777 941.746 Q148.36 941.746 145.617 947.093 Q142.909 952.406 142.909 963.1 Q142.909 973.76 145.617 979.107 Q148.36 984.419 153.777 984.419 Q159.228 984.419 161.936 979.107 Q164.679 973.76 164.679 963.1 Q164.679 952.406 161.936 947.093 Q159.228 941.746 153.777 941.746 M153.777 936.191 Q162.492 936.191 167.075 943.1 Q171.693 949.975 171.693 963.1 Q171.693 976.19 167.075 983.1 Q162.492 989.975 153.777 989.975 Q145.061 989.975 140.443 983.1 Q135.86 976.19 135.86 963.1 Q135.86 949.975 140.443 943.1 Q145.061 936.191 153.777 936.191 Z" fill="#000000" fill-rule="nonzero" fill-opacity="1" /><path clip-path="url(#clip380)" d="M184.02 980.149 L191.346 980.149 L191.346 988.968 L184.02 988.968 L184.02 980.149 Z" fill="#000000" fill-rule="nonzero" fill-opacity="1" /><path clip-path="url(#clip380)" d="M206.693 937.128 L234.228 937.128 L234.228 943.031 L213.117 943.031 L213.117 955.739 Q214.644 955.218 216.172 954.975 Q217.7 954.697 219.228 954.697 Q227.908 954.697 232.978 959.454 Q238.047 964.211 238.047 972.336 Q238.047 980.704 232.839 985.357 Q227.63 989.975 218.151 989.975 Q214.888 989.975 211.485 989.419 Q208.117 988.864 204.506 987.753 L204.506 980.704 Q207.631 982.406 210.964 983.239 Q214.297 984.072 218.012 984.072 Q224.019 984.072 227.526 980.913 Q231.033 977.753 231.033 972.336 Q231.033 966.92 227.526 963.76 Q224.019 960.6 218.012 960.6 Q215.2 960.6 212.388 961.225 Q209.61 961.85 206.693 963.17 L206.693 937.128 Z" fill="#000000" fill-rule="nonzero" fill-opacity="1" /><path clip-path="url(#clip380)" d="M266.866 941.746 Q261.45 941.746 258.707 947.093 Q255.998 952.406 255.998 963.1 Q255.998 973.76 258.707 979.107 Q261.45 984.419 266.866 984.419 Q272.318 984.419 275.026 979.107 Q277.769 973.76 277.769 963.1 Q277.769 952.406 275.026 947.093 Q272.318 941.746 266.866 941.746 M266.866 936.191 Q275.582 936.191 280.165 943.1 Q284.783 949.975 284.783 963.1 Q284.783 976.19 280.165 983.1 Q275.582 989.975 266.866 989.975 Q258.151 989.975 253.533 983.1 Q248.95 976.19 248.95 963.1 Q248.95 949.975 253.533 943.1 Q258.151 936.191 266.866 936.191 Z" fill="#000000" fill-rule="nonzero" fill-opacity="1" /><path clip-path="url(#clip380)" d="M155.27 701.659 Q149.853 701.659 147.11 707.006 Q144.402 712.319 144.402 723.013 Q144.402 733.673 147.11 739.02 Q149.853 744.333 155.27 744.333 Q160.721 744.333 163.429 739.02 Q166.172 733.673 166.172 723.013 Q166.172 712.319 163.429 707.006 Q160.721 701.659 155.27 701.659 M155.27 696.104 Q163.985 696.104 168.568 703.013 Q173.186 709.888 173.186 723.013 Q173.186 736.103 168.568 743.013 Q163.985 749.888 155.27 749.888 Q146.555 749.888 141.937 743.013 Q137.353 736.103 137.353 723.013 Q137.353 709.888 141.937 703.013 Q146.555 696.104 155.27 696.104 Z" fill="#000000" fill-rule="nonzero" fill-opacity="1" /><path clip-path="url(#clip380)" d="M185.513 740.062 L192.839 740.062 L192.839 748.881 L185.513 748.881 L185.513 740.062 Z" fill="#000000" fill-rule="nonzero" fill-opacity="1" /><path clip-path="url(#clip380)" d="M206.346 697.041 L239.679 697.041 L239.679 700.027 L220.86 748.881 L213.533 748.881 L231.242 702.944 L206.346 702.944 L206.346 697.041 Z" fill="#000000" fill-rule="nonzero" fill-opacity="1" /><path clip-path="url(#clip380)" d="M253.429 697.041 L280.964 697.041 L280.964 702.944 L259.853 702.944 L259.853 715.652 Q261.38 715.131 262.908 714.888 Q264.436 714.611 265.964 714.611 Q274.644 714.611 279.714 719.367 Q284.783 724.124 284.783 732.249 Q284.783 740.617 279.575 745.27 Q274.366 749.888 264.887 749.888 Q261.623 749.888 258.221 749.333 Q254.853 748.777 251.241 747.666 L251.241 740.617 Q254.366 742.319 257.7 743.152 Q261.033 743.985 264.748 743.985 Q270.755 743.985 274.262 740.826 Q277.769 737.666 277.769 732.249 Q277.769 726.833 274.262 723.673 Q270.755 720.513 264.748 720.513 Q261.936 720.513 259.123 721.138 Q256.346 721.763 253.429 723.083 L253.429 697.041 Z" fill="#000000" fill-rule="nonzero" fill-opacity="1" /><path clip-path="url(#clip380)" d="M139.992 502.892 L151.45 502.892 L151.45 463.343 L138.985 465.843 L138.985 459.454 L151.381 456.954 L158.395 456.954 L158.395 502.892 L169.853 502.892 L169.853 508.794 L139.992 508.794 L139.992 502.892 Z" fill="#000000" fill-rule="nonzero" fill-opacity="1" /><path clip-path="url(#clip380)" d="M184.02 499.975 L191.346 499.975 L191.346 508.794 L184.02 508.794 L184.02 499.975 Z" fill="#000000" fill-rule="nonzero" fill-opacity="1" /><path clip-path="url(#clip380)" d="M221.624 461.572 Q216.207 461.572 213.464 466.92 Q210.756 472.232 210.756 482.926 Q210.756 493.586 213.464 498.933 Q216.207 504.246 221.624 504.246 Q227.075 504.246 229.783 498.933 Q232.526 493.586 232.526 482.926 Q232.526 472.232 229.783 466.92 Q227.075 461.572 221.624 461.572 M221.624 456.017 Q230.339 456.017 234.922 462.926 Q239.54 469.801 239.54 482.926 Q239.54 496.017 234.922 502.926 Q230.339 509.801 221.624 509.801 Q212.908 509.801 208.29 502.926 Q203.707 496.017 203.707 482.926 Q203.707 469.801 208.29 462.926 Q212.908 456.017 221.624 456.017 Z" fill="#000000" fill-rule="nonzero" fill-opacity="1" /><path clip-path="url(#clip380)" d="M266.866 461.572 Q261.45 461.572 258.707 466.92 Q255.998 472.232 255.998 482.926 Q255.998 493.586 258.707 498.933 Q261.45 504.246 266.866 504.246 Q272.318 504.246 275.026 498.933 Q277.769 493.586 277.769 482.926 Q277.769 472.232 275.026 466.92 Q272.318 461.572 266.866 461.572 M266.866 456.017 Q275.582 456.017 280.165 462.926 Q284.783 469.801 284.783 482.926 Q284.783 496.017 280.165 502.926 Q275.582 509.801 266.866 509.801 Q258.151 509.801 253.533 502.926 Q248.95 496.017 248.95 482.926 Q248.95 469.801 253.533 462.926 Q258.151 456.017 266.866 456.017 Z" fill="#000000" fill-rule="nonzero" fill-opacity="1" /><path clip-path="url(#clip380)" d="M141.485 262.805 L152.943 262.805 L152.943 223.256 L140.478 225.756 L140.478 219.367 L152.874 216.867 L159.888 216.867 L159.888 262.805 L171.346 262.805 L171.346 268.707 L141.485 268.707 L141.485 262.805 Z" fill="#000000" fill-rule="nonzero" fill-opacity="1" /><path clip-path="url(#clip380)" d="M185.513 259.888 L192.839 259.888 L192.839 268.707 L185.513 268.707 L185.513 259.888 Z" fill="#000000" fill-rule="nonzero" fill-opacity="1" /><path clip-path="url(#clip380)" d="M214.158 262.805 L238.637 262.805 L238.637 268.707 L205.721 268.707 L205.721 262.805 Q209.714 258.673 216.589 251.728 Q223.499 244.749 225.269 242.735 Q228.637 238.951 229.957 236.346 Q231.311 233.708 231.311 231.173 Q231.311 227.041 228.394 224.437 Q225.512 221.833 220.86 221.833 Q217.561 221.833 213.881 222.978 Q210.235 224.124 206.068 226.451 L206.068 219.367 Q210.304 217.666 213.985 216.798 Q217.665 215.93 220.721 215.93 Q228.776 215.93 233.568 219.958 Q238.36 223.985 238.36 230.721 Q238.36 233.916 237.144 236.798 Q235.964 239.645 232.804 243.534 Q231.936 244.541 227.283 249.367 Q222.631 254.159 214.158 262.805 Z" fill="#000000" fill-rule="nonzero" fill-opacity="1" /><path clip-path="url(#clip380)" d="M253.429 216.867 L280.964 216.867 L280.964 222.77 L259.853 222.77 L259.853 235.478 Q261.38 234.958 262.908 234.715 Q264.436 234.437 265.964 234.437 Q274.644 234.437 279.714 239.194 Q284.783 243.951 284.783 252.076 Q284.783 260.444 279.575 265.096 Q274.366 269.714 264.887 269.714 Q261.623 269.714 258.221 269.159 Q254.853 268.603 251.241 267.492 L251.241 260.444 Q254.366 262.145 257.7 262.978 Q261.033 263.812 264.748 263.812 Q270.755 263.812 274.262 260.652 Q277.769 257.492 277.769 252.076 Q277.769 246.659 274.262 243.499 Q270.755 240.339 264.748 240.339 Q261.936 240.339 259.123 240.964 Q256.346 241.589 253.429 242.909 L253.429 216.867 Z" fill="#000000" fill-rule="nonzero" fill-opacity="1" /><path clip-path="url(#clip380)" d="M47.828 787.901 L79.1242 787.901 L79.1242 796.42 L48.1058 796.42 Q40.7447 796.42 37.0873 799.29 Q33.43 802.16 33.43 807.901 Q33.43 814.799 37.8281 818.781 Q42.2262 822.762 49.8188 822.762 L79.1242 822.762 L79.1242 831.327 L27.2726 831.327 L27.2726 822.762 L35.3281 822.762 Q30.6522 819.707 28.3374 815.586 Q26.0226 811.42 26.0226 806.003 Q26.0226 797.068 31.5781 792.485 Q37.0873 787.901 47.828 787.901 Z" fill="#000000" fill-rule="nonzero" fill-opacity="1" /><path clip-path="url(#clip380)" d="M33.2448 750.818 Q33.2448 757.67 38.6151 761.651 Q43.9392 765.633 53.2447 765.633 Q62.5502 765.633 67.9205 761.698 Q73.2446 757.716 73.2446 750.818 Q73.2446 744.013 67.8742 740.031 Q62.5039 736.05 53.2447 736.05 Q44.0318 736.05 38.6614 740.031 Q33.2448 744.013 33.2448 750.818 M26.0226 750.818 Q26.0226 739.707 33.2448 733.364 Q40.467 727.022 53.2447 727.022 Q65.9761 727.022 73.2446 733.364 Q80.4667 739.707 80.4667 750.818 Q80.4667 761.975 73.2446 768.318 Q65.9761 774.614 53.2447 774.614 Q40.467 774.614 33.2448 768.318 Q26.0226 761.975 26.0226 750.818 Z" fill="#000000" fill-rule="nonzero" fill-opacity="1" /><path clip-path="url(#clip380)" d="M35.2355 682.855 Q34.4022 684.291 34.0318 686.004 Q33.6151 687.67 33.6151 689.707 Q33.6151 696.929 38.3373 700.818 Q43.0132 704.661 51.8095 704.661 L79.1242 704.661 L79.1242 713.226 L27.2726 713.226 L27.2726 704.661 L35.3281 704.661 Q30.6059 701.976 28.3374 697.67 Q26.0226 693.365 26.0226 687.207 Q26.0226 686.328 26.1615 685.263 Q26.2541 684.198 26.4856 682.902 L35.2355 682.855 Z" fill="#000000" fill-rule="nonzero" fill-opacity="1" /><path clip-path="url(#clip380)" d="M37.2262 635.217 Q31.4855 632.022 28.7541 627.578 Q26.0226 623.134 26.0226 617.115 Q26.0226 609.013 31.717 604.615 Q37.3651 600.217 47.828 600.217 L79.1242 600.217 L79.1242 608.782 L48.1058 608.782 Q40.6521 608.782 37.041 611.421 Q33.43 614.06 33.43 619.476 Q33.43 626.097 37.8281 629.939 Q42.2262 633.782 49.8188 633.782 L79.1242 633.782 L79.1242 642.346 L48.1058 642.346 Q40.6058 642.346 37.041 644.985 Q33.43 647.624 33.43 653.133 Q33.43 659.661 37.8744 663.504 Q42.2725 667.346 49.8188 667.346 L79.1242 667.346 L79.1242 675.911 L27.2726 675.911 L27.2726 667.346 L35.3281 667.346 Q30.5596 664.43 28.2911 660.356 Q26.0226 656.282 26.0226 650.68 Q26.0226 645.032 28.8929 641.096 Q31.7633 637.115 37.2262 635.217 Z" fill="#000000" fill-rule="nonzero" fill-opacity="1" /><polyline clip-path="url(#clip381)" style="stroke:#ff0000; stroke-linecap:round; stroke-linejoin:round; stroke-width:8; stroke-opacity:1; fill:none" points="378.292,85.0853 397.852,651.221 417.413,823.516 436.974,914.015 456.535,971.433 476.095,1011.58 495.656,1041.34 515.217,1064.23 534.778,1082.29 554.339,1096.78 573.899,1108.54 593.46,1118.18 613.021,1126.14 632.582,1132.76 652.142,1138.35 671.703,1143.15 691.264,1147.37 710.825,1151.21 730.386,1154.84 749.946,1158.4 769.507,1161.99 789.068,1165.69 808.629,1169.52 828.189,1173.46 847.75,1177.42 867.311,1181.28 886.872,1184.86 906.432,1187.99 925.993,1190.49 945.554,1192.23 965.115,1193.2 984.676,1193.47 1004.24,1193.25 1023.8,1192.86 1043.36,1192.67 1062.92,1193.05 1082.48,1194.27 1102.04,1196.45 1121.6,1199.5 1141.16,1203.09 1160.72,1206.69 1180.28,1209.66 1199.84,1211.45 1219.4,1211.78 1238.97,1210.77 1258.53,1208.96 1278.09,1207.16 1297.65,1206.18 1317.21,1206.54 1336.77,1208.33 1356.33,1211.07 1375.89,1213.89 1395.45,1215.86 1415.01,1216.4 1434.57,1215.65 1454.13,1214.46 1473.69,1213.94 1493.26,1214.91 1512.82,1217.42 1532.38,1220.57 1551.94,1222.9 1571.5,1223.22 1591.06,1221.38 1610.62,1218.55 1630.18,1216.49 1649.74,1216.47 1669.3,1218.47 1688.86,1221.16 1708.42,1222.8 1727.98,1222.58 1747.55,1221.38 1767.11,1221.08 1786.67,1222.94 1806.23,1226.39 1825.79,1229.19 1845.35,1229.22 1864.91,1226.53 1884.47,1223.47 1904.03,1222.49 1923.59,1223.96 1943.15,1225.85 1962.71,1225.88 1982.27,1224.17 2001.84,1223.27 2021.4,1225.29 2040.96,1229.25 2060.52,1231.76 2080.08,1230.72 2099.64,1228.08 2119.2,1227.37 2138.76,1229.31 2158.32,1230.92 2177.88,1229.63 2197.44,1227.18 2217,1227.38 2236.56,1230.54 2256.13,1232.59 2275.69,1230.75 2295.25,1227.9 "/>
<circle clip-path="url(#clip381)" cx="378.292" cy="85.0853" r="21.6" fill="#ff0000" fill-rule="evenodd" fill-opacity="1" stroke="none"/>
<circle clip-path="url(#clip381)" cx="397.852" cy="651.221" r="21.6" fill="#ff0000" fill-rule="evenodd" fill-opacity="1" stroke="none"/>
<circle clip-path="url(#clip381)" cx="417.413" cy="823.516" r="21.6" fill="#ff0000" fill-rule="evenodd" fill-opacity="1" stroke="none"/>
<circle clip-path="url(#clip381)" cx="436.974" cy="914.015" r="21.6" fill="#ff0000" fill-rule="evenodd" fill-opacity="1" stroke="none"/>
<circle clip-path="url(#clip381)" cx="456.535" cy="971.433" r="21.6" fill="#ff0000" fill-rule="evenodd" fill-opacity="1" stroke="none"/>
<circle clip-path="url(#clip381)" cx="476.095" cy="1011.58" r="21.6" fill="#ff0000" fill-rule="evenodd" fill-opacity="1" stroke="none"/>
<circle clip-path="url(#clip381)" cx="495.656" cy="1041.34" r="21.6" fill="#ff0000" fill-rule="evenodd" fill-opacity="1" stroke="none"/>
<circle clip-path="url(#clip381)" cx="515.217" cy="1064.23" r="21.6" fill="#ff0000" fill-rule="evenodd" fill-opacity="1" stroke="none"/>
<circle clip-path="url(#clip381)" cx="534.778" cy="1082.29" r="21.6" fill="#ff0000" fill-rule="evenodd" fill-opacity="1" stroke="none"/>
<circle clip-path="url(#clip381)" cx="554.339" cy="1096.78" r="21.6" fill="#ff0000" fill-rule="evenodd" fill-opacity="1" stroke="none"/>
<circle clip-path="url(#clip381)" cx="573.899" cy="1108.54" r="21.6" fill="#ff0000" fill-rule="evenodd" fill-opacity="1" stroke="none"/>
<circle clip-path="url(#clip381)" cx="593.46" cy="1118.18" r="21.6" fill="#ff0000" fill-rule="evenodd" fill-opacity="1" stroke="none"/>
<circle clip-path="url(#clip381)" cx="613.021" cy="1126.14" r="21.6" fill="#ff0000" fill-rule="evenodd" fill-opacity="1" stroke="none"/>
<circle clip-path="url(#clip381)" cx="632.582" cy="1132.76" r="21.6" fill="#ff0000" fill-rule="evenodd" fill-opacity="1" stroke="none"/>
<circle clip-path="url(#clip381)" cx="652.142" cy="1138.35" r="21.6" fill="#ff0000" fill-rule="evenodd" fill-opacity="1" stroke="none"/>
<circle clip-path="url(#clip381)" cx="671.703" cy="1143.15" r="21.6" fill="#ff0000" fill-rule="evenodd" fill-opacity="1" stroke="none"/>
<circle clip-path="url(#clip381)" cx="691.264" cy="1147.37" r="21.6" fill="#ff0000" fill-rule="evenodd" fill-opacity="1" stroke="none"/>
<circle clip-path="url(#clip381)" cx="710.825" cy="1151.21" r="21.6" fill="#ff0000" fill-rule="evenodd" fill-opacity="1" stroke="none"/>
<circle clip-path="url(#clip381)" cx="730.386" cy="1154.84" r="21.6" fill="#ff0000" fill-rule="evenodd" fill-opacity="1" stroke="none"/>
<circle clip-path="url(#clip381)" cx="749.946" cy="1158.4" r="21.6" fill="#ff0000" fill-rule="evenodd" fill-opacity="1" stroke="none"/>
<circle clip-path="url(#clip381)" cx="769.507" cy="1161.99" r="21.6" fill="#ff0000" fill-rule="evenodd" fill-opacity="1" stroke="none"/>
<circle clip-path="url(#clip381)" cx="789.068" cy="1165.69" r="21.6" fill="#ff0000" fill-rule="evenodd" fill-opacity="1" stroke="none"/>
<circle clip-path="url(#clip381)" cx="808.629" cy="1169.52" r="21.6" fill="#ff0000" fill-rule="evenodd" fill-opacity="1" stroke="none"/>
<circle clip-path="url(#clip381)" cx="828.189" cy="1173.46" r="21.6" fill="#ff0000" fill-rule="evenodd" fill-opacity="1" stroke="none"/>
<circle clip-path="url(#clip381)" cx="847.75" cy="1177.42" r="21.6" fill="#ff0000" fill-rule="evenodd" fill-opacity="1" stroke="none"/>
<circle clip-path="url(#clip381)" cx="867.311" cy="1181.28" r="21.6" fill="#ff0000" fill-rule="evenodd" fill-opacity="1" stroke="none"/>
<circle clip-path="url(#clip381)" cx="886.872" cy="1184.86" r="21.6" fill="#ff0000" fill-rule="evenodd" fill-opacity="1" stroke="none"/>
<circle clip-path="url(#clip381)" cx="906.432" cy="1187.99" r="21.6" fill="#ff0000" fill-rule="evenodd" fill-opacity="1" stroke="none"/>
<circle clip-path="url(#clip381)" cx="925.993" cy="1190.49" r="21.6" fill="#ff0000" fill-rule="evenodd" fill-opacity="1" stroke="none"/>
<circle clip-path="url(#clip381)" cx="945.554" cy="1192.23" r="21.6" fill="#ff0000" fill-rule="evenodd" fill-opacity="1" stroke="none"/>
<circle clip-path="url(#clip381)" cx="965.115" cy="1193.2" r="21.6" fill="#ff0000" fill-rule="evenodd" fill-opacity="1" stroke="none"/>
<circle clip-path="url(#clip381)" cx="984.676" cy="1193.47" r="21.6" fill="#ff0000" fill-rule="evenodd" fill-opacity="1" stroke="none"/>
<circle clip-path="url(#clip381)" cx="1004.24" cy="1193.25" r="21.6" fill="#ff0000" fill-rule="evenodd" fill-opacity="1" stroke="none"/>
<circle clip-path="url(#clip381)" cx="1023.8" cy="1192.86" r="21.6" fill="#ff0000" fill-rule="evenodd" fill-opacity="1" stroke="none"/>
<circle clip-path="url(#clip381)" cx="1043.36" cy="1192.67" r="21.6" fill="#ff0000" fill-rule="evenodd" fill-opacity="1" stroke="none"/>
<circle clip-path="url(#clip381)" cx="1062.92" cy="1193.05" r="21.6" fill="#ff0000" fill-rule="evenodd" fill-opacity="1" stroke="none"/>
<circle clip-path="url(#clip381)" cx="1082.48" cy="1194.27" r="21.6" fill="#ff0000" fill-rule="evenodd" fill-opacity="1" stroke="none"/>
<circle clip-path="url(#clip381)" cx="1102.04" cy="1196.45" r="21.6" fill="#ff0000" fill-rule="evenodd" fill-opacity="1" stroke="none"/>
<circle clip-path="url(#clip381)" cx="1121.6" cy="1199.5" r="21.6" fill="#ff0000" fill-rule="evenodd" fill-opacity="1" stroke="none"/>
<circle clip-path="url(#clip381)" cx="1141.16" cy="1203.09" r="21.6" fill="#ff0000" fill-rule="evenodd" fill-opacity="1" stroke="none"/>
<circle clip-path="url(#clip381)" cx="1160.72" cy="1206.69" r="21.6" fill="#ff0000" fill-rule="evenodd" fill-opacity="1" stroke="none"/>
<circle clip-path="url(#clip381)" cx="1180.28" cy="1209.66" r="21.6" fill="#ff0000" fill-rule="evenodd" fill-opacity="1" stroke="none"/>
<circle clip-path="url(#clip381)" cx="1199.84" cy="1211.45" r="21.6" fill="#ff0000" fill-rule="evenodd" fill-opacity="1" stroke="none"/>
<circle clip-path="url(#clip381)" cx="1219.4" cy="1211.78" r="21.6" fill="#ff0000" fill-rule="evenodd" fill-opacity="1" stroke="none"/>
<circle clip-path="url(#clip381)" cx="1238.97" cy="1210.77" r="21.6" fill="#ff0000" fill-rule="evenodd" fill-opacity="1" stroke="none"/>
<circle clip-path="url(#clip381)" cx="1258.53" cy="1208.96" r="21.6" fill="#ff0000" fill-rule="evenodd" fill-opacity="1" stroke="none"/>
<circle clip-path="url(#clip381)" cx="1278.09" cy="1207.16" r="21.6" fill="#ff0000" fill-rule="evenodd" fill-opacity="1" stroke="none"/>
<circle clip-path="url(#clip381)" cx="1297.65" cy="1206.18" r="21.6" fill="#ff0000" fill-rule="evenodd" fill-opacity="1" stroke="none"/>
<circle clip-path="url(#clip381)" cx="1317.21" cy="1206.54" r="21.6" fill="#ff0000" fill-rule="evenodd" fill-opacity="1" stroke="none"/>
<circle clip-path="url(#clip381)" cx="1336.77" cy="1208.33" r="21.6" fill="#ff0000" fill-rule="evenodd" fill-opacity="1" stroke="none"/>
<circle clip-path="url(#clip381)" cx="1356.33" cy="1211.07" r="21.6" fill="#ff0000" fill-rule="evenodd" fill-opacity="1" stroke="none"/>
<circle clip-path="url(#clip381)" cx="1375.89" cy="1213.89" r="21.6" fill="#ff0000" fill-rule="evenodd" fill-opacity="1" stroke="none"/>
<circle clip-path="url(#clip381)" cx="1395.45" cy="1215.86" r="21.6" fill="#ff0000" fill-rule="evenodd" fill-opacity="1" stroke="none"/>
<circle clip-path="url(#clip381)" cx="1415.01" cy="1216.4" r="21.6" fill="#ff0000" fill-rule="evenodd" fill-opacity="1" stroke="none"/>
<circle clip-path="url(#clip381)" cx="1434.57" cy="1215.65" r="21.6" fill="#ff0000" fill-rule="evenodd" fill-opacity="1" stroke="none"/>
<circle clip-path="url(#clip381)" cx="1454.13" cy="1214.46" r="21.6" fill="#ff0000" fill-rule="evenodd" fill-opacity="1" stroke="none"/>
<circle clip-path="url(#clip381)" cx="1473.69" cy="1213.94" r="21.6" fill="#ff0000" fill-rule="evenodd" fill-opacity="1" stroke="none"/>
<circle clip-path="url(#clip381)" cx="1493.26" cy="1214.91" r="21.6" fill="#ff0000" fill-rule="evenodd" fill-opacity="1" stroke="none"/>
<circle clip-path="url(#clip381)" cx="1512.82" cy="1217.42" r="21.6" fill="#ff0000" fill-rule="evenodd" fill-opacity="1" stroke="none"/>
<circle clip-path="url(#clip381)" cx="1532.38" cy="1220.57" r="21.6" fill="#ff0000" fill-rule="evenodd" fill-opacity="1" stroke="none"/>
<circle clip-path="url(#clip381)" cx="1551.94" cy="1222.9" r="21.6" fill="#ff0000" fill-rule="evenodd" fill-opacity="1" stroke="none"/>
<circle clip-path="url(#clip381)" cx="1571.5" cy="1223.22" r="21.6" fill="#ff0000" fill-rule="evenodd" fill-opacity="1" stroke="none"/>
<circle clip-path="url(#clip381)" cx="1591.06" cy="1221.38" r="21.6" fill="#ff0000" fill-rule="evenodd" fill-opacity="1" stroke="none"/>
<circle clip-path="url(#clip381)" cx="1610.62" cy="1218.55" r="21.6" fill="#ff0000" fill-rule="evenodd" fill-opacity="1" stroke="none"/>
<circle clip-path="url(#clip381)" cx="1630.18" cy="1216.49" r="21.6" fill="#ff0000" fill-rule="evenodd" fill-opacity="1" stroke="none"/>
<circle clip-path="url(#clip381)" cx="1649.74" cy="1216.47" r="21.6" fill="#ff0000" fill-rule="evenodd" fill-opacity="1" stroke="none"/>
<circle clip-path="url(#clip381)" cx="1669.3" cy="1218.47" r="21.6" fill="#ff0000" fill-rule="evenodd" fill-opacity="1" stroke="none"/>
<circle clip-path="url(#clip381)" cx="1688.86" cy="1221.16" r="21.6" fill="#ff0000" fill-rule="evenodd" fill-opacity="1" stroke="none"/>
<circle clip-path="url(#clip381)" cx="1708.42" cy="1222.8" r="21.6" fill="#ff0000" fill-rule="evenodd" fill-opacity="1" stroke="none"/>
<circle clip-path="url(#clip381)" cx="1727.98" cy="1222.58" r="21.6" fill="#ff0000" fill-rule="evenodd" fill-opacity="1" stroke="none"/>
<circle clip-path="url(#clip381)" cx="1747.55" cy="1221.38" r="21.6" fill="#ff0000" fill-rule="evenodd" fill-opacity="1" stroke="none"/>
<circle clip-path="url(#clip381)" cx="1767.11" cy="1221.08" r="21.6" fill="#ff0000" fill-rule="evenodd" fill-opacity="1" stroke="none"/>
<circle clip-path="url(#clip381)" cx="1786.67" cy="1222.94" r="21.6" fill="#ff0000" fill-rule="evenodd" fill-opacity="1" stroke="none"/>
<circle clip-path="url(#clip381)" cx="1806.23" cy="1226.39" r="21.6" fill="#ff0000" fill-rule="evenodd" fill-opacity="1" stroke="none"/>
<circle clip-path="url(#clip381)" cx="1825.79" cy="1229.19" r="21.6" fill="#ff0000" fill-rule="evenodd" fill-opacity="1" stroke="none"/>
<circle clip-path="url(#clip381)" cx="1845.35" cy="1229.22" r="21.6" fill="#ff0000" fill-rule="evenodd" fill-opacity="1" stroke="none"/>
<circle clip-path="url(#clip381)" cx="1864.91" cy="1226.53" r="21.6" fill="#ff0000" fill-rule="evenodd" fill-opacity="1" stroke="none"/>
<circle clip-path="url(#clip381)" cx="1884.47" cy="1223.47" r="21.6" fill="#ff0000" fill-rule="evenodd" fill-opacity="1" stroke="none"/>
<circle clip-path="url(#clip381)" cx="1904.03" cy="1222.49" r="21.6" fill="#ff0000" fill-rule="evenodd" fill-opacity="1" stroke="none"/>
<circle clip-path="url(#clip381)" cx="1923.59" cy="1223.96" r="21.6" fill="#ff0000" fill-rule="evenodd" fill-opacity="1" stroke="none"/>
<circle clip-path="url(#clip381)" cx="1943.15" cy="1225.85" r="21.6" fill="#ff0000" fill-rule="evenodd" fill-opacity="1" stroke="none"/>
<circle clip-path="url(#clip381)" cx="1962.71" cy="1225.88" r="21.6" fill="#ff0000" fill-rule="evenodd" fill-opacity="1" stroke="none"/>
<circle clip-path="url(#clip381)" cx="1982.27" cy="1224.17" r="21.6" fill="#ff0000" fill-rule="evenodd" fill-opacity="1" stroke="none"/>
<circle clip-path="url(#clip381)" cx="2001.84" cy="1223.27" r="21.6" fill="#ff0000" fill-rule="evenodd" fill-opacity="1" stroke="none"/>
<circle clip-path="url(#clip381)" cx="2021.4" cy="1225.29" r="21.6" fill="#ff0000" fill-rule="evenodd" fill-opacity="1" stroke="none"/>
<circle clip-path="url(#clip381)" cx="2040.96" cy="1229.25" r="21.6" fill="#ff0000" fill-rule="evenodd" fill-opacity="1" stroke="none"/>
<circle clip-path="url(#clip381)" cx="2060.52" cy="1231.76" r="21.6" fill="#ff0000" fill-rule="evenodd" fill-opacity="1" stroke="none"/>
<circle clip-path="url(#clip381)" cx="2080.08" cy="1230.72" r="21.6" fill="#ff0000" fill-rule="evenodd" fill-opacity="1" stroke="none"/>
<circle clip-path="url(#clip381)" cx="2099.64" cy="1228.08" r="21.6" fill="#ff0000" fill-rule="evenodd" fill-opacity="1" stroke="none"/>
<circle clip-path="url(#clip381)" cx="2119.2" cy="1227.37" r="21.6" fill="#ff0000" fill-rule="evenodd" fill-opacity="1" stroke="none"/>
<circle clip-path="url(#clip381)" cx="2138.76" cy="1229.31" r="21.6" fill="#ff0000" fill-rule="evenodd" fill-opacity="1" stroke="none"/>
<circle clip-path="url(#clip381)" cx="2158.32" cy="1230.92" r="21.6" fill="#ff0000" fill-rule="evenodd" fill-opacity="1" stroke="none"/>
<circle clip-path="url(#clip381)" cx="2177.88" cy="1229.63" r="21.6" fill="#ff0000" fill-rule="evenodd" fill-opacity="1" stroke="none"/>
<circle clip-path="url(#clip381)" cx="2197.44" cy="1227.18" r="21.6" fill="#ff0000" fill-rule="evenodd" fill-opacity="1" stroke="none"/>
<circle clip-path="url(#clip381)" cx="2217" cy="1227.38" r="21.6" fill="#ff0000" fill-rule="evenodd" fill-opacity="1" stroke="none"/>
<circle clip-path="url(#clip381)" cx="2236.56" cy="1230.54" r="21.6" fill="#ff0000" fill-rule="evenodd" fill-opacity="1" stroke="none"/>
<circle clip-path="url(#clip381)" cx="2256.13" cy="1232.59" r="21.6" fill="#ff0000" fill-rule="evenodd" fill-opacity="1" stroke="none"/>
<circle clip-path="url(#clip381)" cx="2275.69" cy="1230.75" r="21.6" fill="#ff0000" fill-rule="evenodd" fill-opacity="1" stroke="none"/>
<circle clip-path="url(#clip381)" cx="2295.25" cy="1227.9" r="21.6" fill="#ff0000" fill-rule="evenodd" fill-opacity="1" stroke="none"/>
<polyline clip-path="url(#clip381)" style="stroke:#0000ff; stroke-linecap:round; stroke-linejoin:round; stroke-width:8; stroke-opacity:1; fill:none" points="378.292,85.0853 397.852,659.101 417.413,835.845 436.974,929.894 456.535,990.51 476.095,1033.73 495.656,1066.54 515.217,1092.55 534.778,1113.83 554.339,1131.64 573.899,1146.85 593.46,1160.03 613.021,1171.59 632.582,1181.85 652.142,1191.02 671.703,1199.29 691.264,1206.8 710.825,1213.65 730.386,1219.95 749.946,1225.75 769.507,1231.12 789.068,1236.11 808.629,1240.76 828.189,1245.12 847.75,1249.2 867.311,1253.04 886.872,1256.67 906.432,1260.09 925.993,1263.33 945.554,1266.41 965.115,1269.33 984.676,1272.11 1004.24,1274.77 1023.8,1277.3 1043.36,1279.72 1062.92,1282.04 1082.48,1284.26 1102.04,1286.4 1121.6,1288.45 1141.16,1290.42 1160.72,1292.32 1180.28,1294.15 1199.84,1295.91 1219.4,1297.61 1238.97,1299.26 1258.53,1300.85 1278.09,1302.39 1297.65,1303.88 1317.21,1305.32 1336.77,1306.72 1356.33,1308.08 1375.89,1309.4 1395.45,1310.68 1415.01,1311.93 1434.57,1313.14 1454.13,1314.31 1473.69,1315.46 1493.26,1316.57 1512.82,1317.66 1532.38,1318.72 1551.94,1319.75 1571.5,1320.76 1591.06,1321.75 1610.62,1322.71 1630.18,1323.64 1649.74,1324.56 1669.3,1325.46 1688.86,1326.33 1708.42,1327.19 1727.98,1328.03 1747.55,1328.85 1767.11,1329.65 1786.67,1330.43 1806.23,1331.2 1825.79,1331.96 1845.35,1332.7 1864.91,1333.42 1884.47,1334.13 1904.03,1334.83 1923.59,1335.51 1943.15,1336.19 1962.71,1336.84 1982.27,1337.49 2001.84,1338.13 2021.4,1338.75 2040.96,1339.36 2060.52,1339.96 2080.08,1340.56 2099.64,1341.14 2119.2,1341.71 2138.76,1342.27 2158.32,1342.83 2177.88,1343.37 2197.44,1343.91 2217,1344.43 2236.56,1344.95 2256.13,1345.46 2275.69,1345.96 2295.25,1346.46 "/>
<circle clip-path="url(#clip381)" cx="378.292" cy="85.0853" r="21.6" fill="#0000ff" fill-rule="evenodd" fill-opacity="1" stroke="none"/>
<circle clip-path="url(#clip381)" cx="397.852" cy="659.101" r="21.6" fill="#0000ff" fill-rule="evenodd" fill-opacity="1" stroke="none"/>
<circle clip-path="url(#clip381)" cx="417.413" cy="835.845" r="21.6" fill="#0000ff" fill-rule="evenodd" fill-opacity="1" stroke="none"/>
<circle clip-path="url(#clip381)" cx="436.974" cy="929.894" r="21.6" fill="#0000ff" fill-rule="evenodd" fill-opacity="1" stroke="none"/>
<circle clip-path="url(#clip381)" cx="456.535" cy="990.51" r="21.6" fill="#0000ff" fill-rule="evenodd" fill-opacity="1" stroke="none"/>
<circle clip-path="url(#clip381)" cx="476.095" cy="1033.73" r="21.6" fill="#0000ff" fill-rule="evenodd" fill-opacity="1" stroke="none"/>
<circle clip-path="url(#clip381)" cx="495.656" cy="1066.54" r="21.6" fill="#0000ff" fill-rule="evenodd" fill-opacity="1" stroke="none"/>
<circle clip-path="url(#clip381)" cx="515.217" cy="1092.55" r="21.6" fill="#0000ff" fill-rule="evenodd" fill-opacity="1" stroke="none"/>
<circle clip-path="url(#clip381)" cx="534.778" cy="1113.83" r="21.6" fill="#0000ff" fill-rule="evenodd" fill-opacity="1" stroke="none"/>
<circle clip-path="url(#clip381)" cx="554.339" cy="1131.64" r="21.6" fill="#0000ff" fill-rule="evenodd" fill-opacity="1" stroke="none"/>
<circle clip-path="url(#clip381)" cx="573.899" cy="1146.85" r="21.6" fill="#0000ff" fill-rule="evenodd" fill-opacity="1" stroke="none"/>
<circle clip-path="url(#clip381)" cx="593.46" cy="1160.03" r="21.6" fill="#0000ff" fill-rule="evenodd" fill-opacity="1" stroke="none"/>
<circle clip-path="url(#clip381)" cx="613.021" cy="1171.59" r="21.6" fill="#0000ff" fill-rule="evenodd" fill-opacity="1" stroke="none"/>
<circle clip-path="url(#clip381)" cx="632.582" cy="1181.85" r="21.6" fill="#0000ff" fill-rule="evenodd" fill-opacity="1" stroke="none"/>
<circle clip-path="url(#clip381)" cx="652.142" cy="1191.02" r="21.6" fill="#0000ff" fill-rule="evenodd" fill-opacity="1" stroke="none"/>
<circle clip-path="url(#clip381)" cx="671.703" cy="1199.29" r="21.6" fill="#0000ff" fill-rule="evenodd" fill-opacity="1" stroke="none"/>
<circle clip-path="url(#clip381)" cx="691.264" cy="1206.8" r="21.6" fill="#0000ff" fill-rule="evenodd" fill-opacity="1" stroke="none"/>
<circle clip-path="url(#clip381)" cx="710.825" cy="1213.65" r="21.6" fill="#0000ff" fill-rule="evenodd" fill-opacity="1" stroke="none"/>
<circle clip-path="url(#clip381)" cx="730.386" cy="1219.95" r="21.6" fill="#0000ff" fill-rule="evenodd" fill-opacity="1" stroke="none"/>
<circle clip-path="url(#clip381)" cx="749.946" cy="1225.75" r="21.6" fill="#0000ff" fill-rule="evenodd" fill-opacity="1" stroke="none"/>
<circle clip-path="url(#clip381)" cx="769.507" cy="1231.12" r="21.6" fill="#0000ff" fill-rule="evenodd" fill-opacity="1" stroke="none"/>
<circle clip-path="url(#clip381)" cx="789.068" cy="1236.11" r="21.6" fill="#0000ff" fill-rule="evenodd" fill-opacity="1" stroke="none"/>
<circle clip-path="url(#clip381)" cx="808.629" cy="1240.76" r="21.6" fill="#0000ff" fill-rule="evenodd" fill-opacity="1" stroke="none"/>
<circle clip-path="url(#clip381)" cx="828.189" cy="1245.12" r="21.6" fill="#0000ff" fill-rule="evenodd" fill-opacity="1" stroke="none"/>
<circle clip-path="url(#clip381)" cx="847.75" cy="1249.2" r="21.6" fill="#0000ff" fill-rule="evenodd" fill-opacity="1" stroke="none"/>
<circle clip-path="url(#clip381)" cx="867.311" cy="1253.04" r="21.6" fill="#0000ff" fill-rule="evenodd" fill-opacity="1" stroke="none"/>
<circle clip-path="url(#clip381)" cx="886.872" cy="1256.67" r="21.6" fill="#0000ff" fill-rule="evenodd" fill-opacity="1" stroke="none"/>
<circle clip-path="url(#clip381)" cx="906.432" cy="1260.09" r="21.6" fill="#0000ff" fill-rule="evenodd" fill-opacity="1" stroke="none"/>
<circle clip-path="url(#clip381)" cx="925.993" cy="1263.33" r="21.6" fill="#0000ff" fill-rule="evenodd" fill-opacity="1" stroke="none"/>
<circle clip-path="url(#clip381)" cx="945.554" cy="1266.41" r="21.6" fill="#0000ff" fill-rule="evenodd" fill-opacity="1" stroke="none"/>
<circle clip-path="url(#clip381)" cx="965.115" cy="1269.33" r="21.6" fill="#0000ff" fill-rule="evenodd" fill-opacity="1" stroke="none"/>
<circle clip-path="url(#clip381)" cx="984.676" cy="1272.11" r="21.6" fill="#0000ff" fill-rule="evenodd" fill-opacity="1" stroke="none"/>
<circle clip-path="url(#clip381)" cx="1004.24" cy="1274.77" r="21.6" fill="#0000ff" fill-rule="evenodd" fill-opacity="1" stroke="none"/>
<circle clip-path="url(#clip381)" cx="1023.8" cy="1277.3" r="21.6" fill="#0000ff" fill-rule="evenodd" fill-opacity="1" stroke="none"/>
<circle clip-path="url(#clip381)" cx="1043.36" cy="1279.72" r="21.6" fill="#0000ff" fill-rule="evenodd" fill-opacity="1" stroke="none"/>
<circle clip-path="url(#clip381)" cx="1062.92" cy="1282.04" r="21.6" fill="#0000ff" fill-rule="evenodd" fill-opacity="1" stroke="none"/>
<circle clip-path="url(#clip381)" cx="1082.48" cy="1284.26" r="21.6" fill="#0000ff" fill-rule="evenodd" fill-opacity="1" stroke="none"/>
<circle clip-path="url(#clip381)" cx="1102.04" cy="1286.4" r="21.6" fill="#0000ff" fill-rule="evenodd" fill-opacity="1" stroke="none"/>
<circle clip-path="url(#clip381)" cx="1121.6" cy="1288.45" r="21.6" fill="#0000ff" fill-rule="evenodd" fill-opacity="1" stroke="none"/>
<circle clip-path="url(#clip381)" cx="1141.16" cy="1290.42" r="21.6" fill="#0000ff" fill-rule="evenodd" fill-opacity="1" stroke="none"/>
<circle clip-path="url(#clip381)" cx="1160.72" cy="1292.32" r="21.6" fill="#0000ff" fill-rule="evenodd" fill-opacity="1" stroke="none"/>
<circle clip-path="url(#clip381)" cx="1180.28" cy="1294.15" r="21.6" fill="#0000ff" fill-rule="evenodd" fill-opacity="1" stroke="none"/>
<circle clip-path="url(#clip381)" cx="1199.84" cy="1295.91" r="21.6" fill="#0000ff" fill-rule="evenodd" fill-opacity="1" stroke="none"/>
<circle clip-path="url(#clip381)" cx="1219.4" cy="1297.61" r="21.6" fill="#0000ff" fill-rule="evenodd" fill-opacity="1" stroke="none"/>
<circle clip-path="url(#clip381)" cx="1238.97" cy="1299.26" r="21.6" fill="#0000ff" fill-rule="evenodd" fill-opacity="1" stroke="none"/>
<circle clip-path="url(#clip381)" cx="1258.53" cy="1300.85" r="21.6" fill="#0000ff" fill-rule="evenodd" fill-opacity="1" stroke="none"/>
<circle clip-path="url(#clip381)" cx="1278.09" cy="1302.39" r="21.6" fill="#0000ff" fill-rule="evenodd" fill-opacity="1" stroke="none"/>
<circle clip-path="url(#clip381)" cx="1297.65" cy="1303.88" r="21.6" fill="#0000ff" fill-rule="evenodd" fill-opacity="1" stroke="none"/>
<circle clip-path="url(#clip381)" cx="1317.21" cy="1305.32" r="21.6" fill="#0000ff" fill-rule="evenodd" fill-opacity="1" stroke="none"/>
<circle clip-path="url(#clip381)" cx="1336.77" cy="1306.72" r="21.6" fill="#0000ff" fill-rule="evenodd" fill-opacity="1" stroke="none"/>
<circle clip-path="url(#clip381)" cx="1356.33" cy="1308.08" r="21.6" fill="#0000ff" fill-rule="evenodd" fill-opacity="1" stroke="none"/>
<circle clip-path="url(#clip381)" cx="1375.89" cy="1309.4" r="21.6" fill="#0000ff" fill-rule="evenodd" fill-opacity="1" stroke="none"/>
<circle clip-path="url(#clip381)" cx="1395.45" cy="1310.68" r="21.6" fill="#0000ff" fill-rule="evenodd" fill-opacity="1" stroke="none"/>
<circle clip-path="url(#clip381)" cx="1415.01" cy="1311.93" r="21.6" fill="#0000ff" fill-rule="evenodd" fill-opacity="1" stroke="none"/>
<circle clip-path="url(#clip381)" cx="1434.57" cy="1313.14" r="21.6" fill="#0000ff" fill-rule="evenodd" fill-opacity="1" stroke="none"/>
<circle clip-path="url(#clip381)" cx="1454.13" cy="1314.31" r="21.6" fill="#0000ff" fill-rule="evenodd" fill-opacity="1" stroke="none"/>
<circle clip-path="url(#clip381)" cx="1473.69" cy="1315.46" r="21.6" fill="#0000ff" fill-rule="evenodd" fill-opacity="1" stroke="none"/>
<circle clip-path="url(#clip381)" cx="1493.26" cy="1316.57" r="21.6" fill="#0000ff" fill-rule="evenodd" fill-opacity="1" stroke="none"/>
<circle clip-path="url(#clip381)" cx="1512.82" cy="1317.66" r="21.6" fill="#0000ff" fill-rule="evenodd" fill-opacity="1" stroke="none"/>
<circle clip-path="url(#clip381)" cx="1532.38" cy="1318.72" r="21.6" fill="#0000ff" fill-rule="evenodd" fill-opacity="1" stroke="none"/>
<circle clip-path="url(#clip381)" cx="1551.94" cy="1319.75" r="21.6" fill="#0000ff" fill-rule="evenodd" fill-opacity="1" stroke="none"/>
<circle clip-path="url(#clip381)" cx="1571.5" cy="1320.76" r="21.6" fill="#0000ff" fill-rule="evenodd" fill-opacity="1" stroke="none"/>
<circle clip-path="url(#clip381)" cx="1591.06" cy="1321.75" r="21.6" fill="#0000ff" fill-rule="evenodd" fill-opacity="1" stroke="none"/>
<circle clip-path="url(#clip381)" cx="1610.62" cy="1322.71" r="21.6" fill="#0000ff" fill-rule="evenodd" fill-opacity="1" stroke="none"/>
<circle clip-path="url(#clip381)" cx="1630.18" cy="1323.64" r="21.6" fill="#0000ff" fill-rule="evenodd" fill-opacity="1" stroke="none"/>
<circle clip-path="url(#clip381)" cx="1649.74" cy="1324.56" r="21.6" fill="#0000ff" fill-rule="evenodd" fill-opacity="1" stroke="none"/>
<circle clip-path="url(#clip381)" cx="1669.3" cy="1325.46" r="21.6" fill="#0000ff" fill-rule="evenodd" fill-opacity="1" stroke="none"/>
<circle clip-path="url(#clip381)" cx="1688.86" cy="1326.33" r="21.6" fill="#0000ff" fill-rule="evenodd" fill-opacity="1" stroke="none"/>
<circle clip-path="url(#clip381)" cx="1708.42" cy="1327.19" r="21.6" fill="#0000ff" fill-rule="evenodd" fill-opacity="1" stroke="none"/>
<circle clip-path="url(#clip381)" cx="1727.98" cy="1328.03" r="21.6" fill="#0000ff" fill-rule="evenodd" fill-opacity="1" stroke="none"/>
<circle clip-path="url(#clip381)" cx="1747.55" cy="1328.85" r="21.6" fill="#0000ff" fill-rule="evenodd" fill-opacity="1" stroke="none"/>
<circle clip-path="url(#clip381)" cx="1767.11" cy="1329.65" r="21.6" fill="#0000ff" fill-rule="evenodd" fill-opacity="1" stroke="none"/>
<circle clip-path="url(#clip381)" cx="1786.67" cy="1330.43" r="21.6" fill="#0000ff" fill-rule="evenodd" fill-opacity="1" stroke="none"/>
<circle clip-path="url(#clip381)" cx="1806.23" cy="1331.2" r="21.6" fill="#0000ff" fill-rule="evenodd" fill-opacity="1" stroke="none"/>
<circle clip-path="url(#clip381)" cx="1825.79" cy="1331.96" r="21.6" fill="#0000ff" fill-rule="evenodd" fill-opacity="1" stroke="none"/>
<circle clip-path="url(#clip381)" cx="1845.35" cy="1332.7" r="21.6" fill="#0000ff" fill-rule="evenodd" fill-opacity="1" stroke="none"/>
<circle clip-path="url(#clip381)" cx="1864.91" cy="1333.42" r="21.6" fill="#0000ff" fill-rule="evenodd" fill-opacity="1" stroke="none"/>
<circle clip-path="url(#clip381)" cx="1884.47" cy="1334.13" r="21.6" fill="#0000ff" fill-rule="evenodd" fill-opacity="1" stroke="none"/>
<circle clip-path="url(#clip381)" cx="1904.03" cy="1334.83" r="21.6" fill="#0000ff" fill-rule="evenodd" fill-opacity="1" stroke="none"/>
<circle clip-path="url(#clip381)" cx="1923.59" cy="1335.51" r="21.6" fill="#0000ff" fill-rule="evenodd" fill-opacity="1" stroke="none"/>
<circle clip-path="url(#clip381)" cx="1943.15" cy="1336.19" r="21.6" fill="#0000ff" fill-rule="evenodd" fill-opacity="1" stroke="none"/>
<circle clip-path="url(#clip381)" cx="1962.71" cy="1336.84" r="21.6" fill="#0000ff" fill-rule="evenodd" fill-opacity="1" stroke="none"/>
<circle clip-path="url(#clip381)" cx="1982.27" cy="1337.49" r="21.6" fill="#0000ff" fill-rule="evenodd" fill-opacity="1" stroke="none"/>
<circle clip-path="url(#clip381)" cx="2001.84" cy="1338.13" r="21.6" fill="#0000ff" fill-rule="evenodd" fill-opacity="1" stroke="none"/>
<circle clip-path="url(#clip381)" cx="2021.4" cy="1338.75" r="21.6" fill="#0000ff" fill-rule="evenodd" fill-opacity="1" stroke="none"/>
<circle clip-path="url(#clip381)" cx="2040.96" cy="1339.36" r="21.6" fill="#0000ff" fill-rule="evenodd" fill-opacity="1" stroke="none"/>
<circle clip-path="url(#clip381)" cx="2060.52" cy="1339.96" r="21.6" fill="#0000ff" fill-rule="evenodd" fill-opacity="1" stroke="none"/>
<circle clip-path="url(#clip381)" cx="2080.08" cy="1340.56" r="21.6" fill="#0000ff" fill-rule="evenodd" fill-opacity="1" stroke="none"/>
<circle clip-path="url(#clip381)" cx="2099.64" cy="1341.14" r="21.6" fill="#0000ff" fill-rule="evenodd" fill-opacity="1" stroke="none"/>
<circle clip-path="url(#clip381)" cx="2119.2" cy="1341.71" r="21.6" fill="#0000ff" fill-rule="evenodd" fill-opacity="1" stroke="none"/>
<circle clip-path="url(#clip381)" cx="2138.76" cy="1342.27" r="21.6" fill="#0000ff" fill-rule="evenodd" fill-opacity="1" stroke="none"/>
<circle clip-path="url(#clip381)" cx="2158.32" cy="1342.83" r="21.6" fill="#0000ff" fill-rule="evenodd" fill-opacity="1" stroke="none"/>
<circle clip-path="url(#clip381)" cx="2177.88" cy="1343.37" r="21.6" fill="#0000ff" fill-rule="evenodd" fill-opacity="1" stroke="none"/>
<circle clip-path="url(#clip381)" cx="2197.44" cy="1343.91" r="21.6" fill="#0000ff" fill-rule="evenodd" fill-opacity="1" stroke="none"/>
<circle clip-path="url(#clip381)" cx="2217" cy="1344.43" r="21.6" fill="#0000ff" fill-rule="evenodd" fill-opacity="1" stroke="none"/>
<circle clip-path="url(#clip381)" cx="2236.56" cy="1344.95" r="21.6" fill="#0000ff" fill-rule="evenodd" fill-opacity="1" stroke="none"/>
<circle clip-path="url(#clip381)" cx="2256.13" cy="1345.46" r="21.6" fill="#0000ff" fill-rule="evenodd" fill-opacity="1" stroke="none"/>
<circle clip-path="url(#clip381)" cx="2275.69" cy="1345.96" r="21.6" fill="#0000ff" fill-rule="evenodd" fill-opacity="1" stroke="none"/>
<circle clip-path="url(#clip381)" cx="2295.25" cy="1346.46" r="21.6" fill="#0000ff" fill-rule="evenodd" fill-opacity="1" stroke="none"/>
<path clip-path="url(#clip380)" d="M1693.1 363.973 L2285.02 363.973 L2285.02 91.8126 L1693.1 91.8126  Z" fill="#ffffff" fill-rule="evenodd" fill-opacity="1"/>
<polyline clip-path="url(#clip380)" style="stroke:#000000; stroke-linecap:round; stroke-linejoin:round; stroke-width:4; stroke-opacity:1; fill:none" points="1693.1,363.973 2285.02,363.973 2285.02,91.8126 1693.1,91.8126 1693.1,363.973 "/>
<polyline clip-path="url(#clip380)" style="stroke:#ff0000; stroke-linecap:round; stroke-linejoin:round; stroke-width:14; stroke-opacity:1; fill:none" points="1715.68,182.533 1851.14,182.533 "/>
<circle clip-path="url(#clip380)" cx="1783.41" cy="182.533" r="10.7512" fill="#ff0000" fill-rule="evenodd" fill-opacity="1" stroke="none"/>
<path clip-path="url(#clip380)" d="M1915.77 188.224 L1915.77 191.87 L1881.5 191.87 Q1881.99 199.567 1886.12 203.618 Q1890.29 207.628 1897.7 207.628 Q1902 207.628 1906.01 206.575 Q1910.06 205.522 1914.03 203.415 L1914.03 210.464 Q1910.02 212.165 1905.8 213.056 Q1901.59 213.947 1897.26 213.947 Q1886.4 213.947 1880.04 207.628 Q1873.72 201.309 1873.72 190.533 Q1873.72 179.393 1879.72 172.871 Q1885.75 166.309 1895.96 166.309 Q1905.12 166.309 1910.42 172.223 Q1915.77 178.097 1915.77 188.224 M1908.32 186.037 Q1908.23 179.92 1904.87 176.274 Q1901.55 172.628 1896.04 172.628 Q1889.8 172.628 1886.04 176.152 Q1882.31 179.677 1881.74 186.077 L1908.32 186.037 Z" fill="#000000" fill-rule="nonzero" fill-opacity="1" /><path clip-path="url(#clip380)" d="M1963.33 176.112 Q1966.12 171.089 1970.01 168.699 Q1973.9 166.309 1979.17 166.309 Q1986.26 166.309 1990.1 171.291 Q1993.95 176.233 1993.95 185.389 L1993.95 212.773 L1986.46 212.773 L1986.46 185.632 Q1986.46 179.11 1984.15 175.95 Q1981.84 172.79 1977.1 172.79 Q1971.31 172.79 1967.95 176.639 Q1964.58 180.487 1964.58 187.13 L1964.58 212.773 L1957.09 212.773 L1957.09 185.632 Q1957.09 179.069 1954.78 175.95 Q1952.47 172.79 1947.65 172.79 Q1941.94 172.79 1938.58 176.679 Q1935.21 180.527 1935.21 187.13 L1935.21 212.773 L1927.72 212.773 L1927.72 167.402 L1935.21 167.402 L1935.21 174.451 Q1937.77 170.279 1941.33 168.294 Q1944.9 166.309 1949.8 166.309 Q1954.74 166.309 1958.18 168.82 Q1961.67 171.332 1963.33 176.112 Z" fill="#000000" fill-rule="nonzero" fill-opacity="1" /><path clip-path="url(#clip380)" d="M2016.03 205.967 L2016.03 230.029 L2008.54 230.029 L2008.54 167.402 L2016.03 167.402 L2016.03 174.289 Q2018.38 170.238 2021.94 168.294 Q2025.55 166.309 2030.53 166.309 Q2038.8 166.309 2043.94 172.871 Q2049.13 179.434 2049.13 190.128 Q2049.13 200.822 2043.94 207.385 Q2038.8 213.947 2030.53 213.947 Q2025.55 213.947 2021.94 212.003 Q2018.38 210.018 2016.03 205.967 M2041.39 190.128 Q2041.39 181.905 2037.99 177.246 Q2034.62 172.547 2028.71 172.547 Q2022.79 172.547 2019.39 177.246 Q2016.03 181.905 2016.03 190.128 Q2016.03 198.351 2019.39 203.05 Q2022.79 207.709 2028.71 207.709 Q2034.62 207.709 2037.99 203.05 Q2041.39 198.351 2041.39 190.128 Z" fill="#000000" fill-rule="nonzero" fill-opacity="1" /><path clip-path="url(#clip380)" d="M2061.48 167.402 L2068.93 167.402 L2068.93 212.773 L2061.48 212.773 L2061.48 167.402 M2061.48 149.741 L2068.93 149.741 L2068.93 159.179 L2061.48 159.179 L2061.48 149.741 Z" fill="#000000" fill-rule="nonzero" fill-opacity="1" /><path clip-path="url(#clip380)" d="M2110.82 174.37 Q2109.56 173.641 2108.07 173.317 Q2106.61 172.952 2104.83 172.952 Q2098.51 172.952 2095.1 177.084 Q2091.74 181.176 2091.74 188.872 L2091.74 212.773 L2084.25 212.773 L2084.25 167.402 L2091.74 167.402 L2091.74 174.451 Q2094.09 170.319 2097.86 168.334 Q2101.63 166.309 2107.01 166.309 Q2107.78 166.309 2108.71 166.43 Q2109.65 166.511 2110.78 166.714 L2110.82 174.37 Z" fill="#000000" fill-rule="nonzero" fill-opacity="1" /><path clip-path="url(#clip380)" d="M2118.64 167.402 L2126.09 167.402 L2126.09 212.773 L2118.64 212.773 L2118.64 167.402 M2118.64 149.741 L2126.09 149.741 L2126.09 159.179 L2118.64 159.179 L2118.64 149.741 Z" fill="#000000" fill-rule="nonzero" fill-opacity="1" /><path clip-path="url(#clip380)" d="M2174.34 169.144 L2174.34 176.112 Q2171.18 174.37 2167.98 173.519 Q2164.82 172.628 2161.58 172.628 Q2154.33 172.628 2150.32 177.246 Q2146.31 181.824 2146.31 190.128 Q2146.31 198.432 2150.32 203.05 Q2154.33 207.628 2161.58 207.628 Q2164.82 207.628 2167.98 206.777 Q2171.18 205.886 2174.34 204.144 L2174.34 211.031 Q2171.22 212.489 2167.86 213.218 Q2164.54 213.947 2160.77 213.947 Q2150.52 213.947 2144.48 207.506 Q2138.45 201.066 2138.45 190.128 Q2138.45 179.029 2144.52 172.669 Q2150.64 166.309 2161.25 166.309 Q2164.7 166.309 2167.98 167.038 Q2171.26 167.727 2174.34 169.144 Z" fill="#000000" fill-rule="nonzero" fill-opacity="1" /><path clip-path="url(#clip380)" d="M2207.92 189.966 Q2198.89 189.966 2195.4 192.032 Q2191.92 194.098 2191.92 199.081 Q2191.92 203.05 2194.51 205.4 Q2197.15 207.709 2201.64 207.709 Q2207.84 207.709 2211.57 203.334 Q2215.33 198.919 2215.33 191.627 L2215.33 189.966 L2207.92 189.966 M2222.79 186.887 L2222.79 212.773 L2215.33 212.773 L2215.33 205.886 Q2212.78 210.018 2208.97 212.003 Q2205.17 213.947 2199.66 213.947 Q2192.69 213.947 2188.56 210.059 Q2184.47 206.129 2184.47 199.567 Q2184.47 191.91 2189.57 188.022 Q2194.71 184.133 2204.88 184.133 L2215.33 184.133 L2215.33 183.404 Q2215.33 178.259 2211.93 175.464 Q2208.57 172.628 2202.45 172.628 Q2198.56 172.628 2194.88 173.56 Q2191.19 174.492 2187.79 176.355 L2187.79 169.468 Q2191.88 167.889 2195.73 167.119 Q2199.58 166.309 2203.22 166.309 Q2213.07 166.309 2217.93 171.413 Q2222.79 176.517 2222.79 186.887 Z" fill="#000000" fill-rule="nonzero" fill-opacity="1" /><path clip-path="url(#clip380)" d="M2238.14 149.741 L2245.59 149.741 L2245.59 212.773 L2238.14 212.773 L2238.14 149.741 Z" fill="#000000" fill-rule="nonzero" fill-opacity="1" /><polyline clip-path="url(#clip380)" style="stroke:#0000ff; stroke-linecap:round; stroke-linejoin:round; stroke-width:14; stroke-opacity:1; fill:none" points="1715.68,273.253 1851.14,273.253 "/>
<circle clip-path="url(#clip380)" cx="1783.41" cy="273.253" r="10.7512" fill="#0000ff" fill-rule="evenodd" fill-opacity="1" stroke="none"/>
<path clip-path="url(#clip380)" d="M1897.18 280.686 Q1888.14 280.686 1884.66 282.752 Q1881.17 284.818 1881.17 289.801 Q1881.17 293.77 1883.77 296.12 Q1886.4 298.429 1890.9 298.429 Q1897.09 298.429 1900.82 294.054 Q1904.59 289.639 1904.59 282.347 L1904.59 280.686 L1897.18 280.686 M1912.04 277.607 L1912.04 303.493 L1904.59 303.493 L1904.59 296.606 Q1902.04 300.738 1898.23 302.723 Q1894.42 304.667 1888.91 304.667 Q1881.94 304.667 1877.81 300.779 Q1873.72 296.849 1873.72 290.287 Q1873.72 282.63 1878.83 278.742 Q1883.97 274.853 1894.14 274.853 L1904.59 274.853 L1904.59 274.124 Q1904.59 268.979 1901.19 266.184 Q1897.82 263.348 1891.71 263.348 Q1887.82 263.348 1884.13 264.28 Q1880.45 265.212 1877.04 267.075 L1877.04 260.188 Q1881.13 258.609 1884.98 257.839 Q1888.83 257.029 1892.48 257.029 Q1902.32 257.029 1907.18 262.133 Q1912.04 267.237 1912.04 277.607 Z" fill="#000000" fill-rule="nonzero" fill-opacity="1" /><path clip-path="url(#clip380)" d="M1965.11 276.109 L1965.11 303.493 L1957.66 303.493 L1957.66 276.352 Q1957.66 269.911 1955.14 266.71 Q1952.63 263.51 1947.61 263.51 Q1941.57 263.51 1938.09 267.359 Q1934.61 271.207 1934.61 277.85 L1934.61 303.493 L1927.11 303.493 L1927.11 258.122 L1934.61 258.122 L1934.61 265.171 Q1937.28 261.08 1940.89 259.054 Q1944.53 257.029 1949.27 257.029 Q1957.09 257.029 1961.1 261.89 Q1965.11 266.71 1965.11 276.109 Z" fill="#000000" fill-rule="nonzero" fill-opacity="1" /><path clip-path="url(#clip380)" d="M2000.6 280.686 Q1991.56 280.686 1988.08 282.752 Q1984.59 284.818 1984.59 289.801 Q1984.59 293.77 1987.19 296.12 Q1989.82 298.429 1994.32 298.429 Q2000.51 298.429 2004.24 294.054 Q2008.01 289.639 2008.01 282.347 L2008.01 280.686 L2000.6 280.686 M2015.46 277.607 L2015.46 303.493 L2008.01 303.493 L2008.01 296.606 Q2005.46 300.738 2001.65 302.723 Q1997.84 304.667 1992.33 304.667 Q1985.36 304.667 1981.23 300.779 Q1977.14 296.849 1977.14 290.287 Q1977.14 282.63 1982.24 278.742 Q1987.39 274.853 1997.56 274.853 L2008.01 274.853 L2008.01 274.124 Q2008.01 268.979 2004.61 266.184 Q2001.24 263.348 1995.13 263.348 Q1991.24 263.348 1987.55 264.28 Q1983.87 265.212 1980.46 267.075 L1980.46 260.188 Q1984.55 258.609 1988.4 257.839 Q1992.25 257.029 1995.9 257.029 Q2005.74 257.029 2010.6 262.133 Q2015.46 267.237 2015.46 277.607 Z" fill="#000000" fill-rule="nonzero" fill-opacity="1" /><path clip-path="url(#clip380)" d="M2030.82 240.461 L2038.27 240.461 L2038.27 303.493 L2030.82 303.493 L2030.82 240.461 Z" fill="#000000" fill-rule="nonzero" fill-opacity="1" /><path clip-path="url(#clip380)" d="M2072.74 307.706 Q2069.58 315.807 2066.58 318.278 Q2063.59 320.749 2058.56 320.749 L2052.61 320.749 L2052.61 314.511 L2056.98 314.511 Q2060.06 314.511 2061.76 313.053 Q2063.47 311.594 2065.53 306.166 L2066.87 302.763 L2048.52 258.122 L2056.42 258.122 L2070.6 293.608 L2084.77 258.122 L2092.67 258.122 L2072.74 307.706 Z" fill="#000000" fill-rule="nonzero" fill-opacity="1" /><path clip-path="url(#clip380)" d="M2110.33 245.241 L2110.33 258.122 L2125.69 258.122 L2125.69 263.915 L2110.33 263.915 L2110.33 288.545 Q2110.33 294.095 2111.83 295.674 Q2113.37 297.254 2118.03 297.254 L2125.69 297.254 L2125.69 303.493 L2118.03 303.493 Q2109.4 303.493 2106.12 300.292 Q2102.84 297.052 2102.84 288.545 L2102.84 263.915 L2097.37 263.915 L2097.37 258.122 L2102.84 258.122 L2102.84 245.241 L2110.33 245.241 Z" fill="#000000" fill-rule="nonzero" fill-opacity="1" /><path clip-path="url(#clip380)" d="M2135.49 258.122 L2142.94 258.122 L2142.94 303.493 L2135.49 303.493 L2135.49 258.122 M2135.49 240.461 L2142.94 240.461 L2142.94 249.899 L2135.49 249.899 L2135.49 240.461 Z" fill="#000000" fill-rule="nonzero" fill-opacity="1" /><path clip-path="url(#clip380)" d="M2191.19 259.864 L2191.19 266.832 Q2188.03 265.09 2184.83 264.239 Q2181.67 263.348 2178.43 263.348 Q2171.18 263.348 2167.17 267.966 Q2163.16 272.544 2163.16 280.848 Q2163.16 289.152 2167.17 293.77 Q2171.18 298.348 2178.43 298.348 Q2181.67 298.348 2184.83 297.497 Q2188.03 296.606 2191.19 294.864 L2191.19 301.751 Q2188.07 303.209 2184.71 303.938 Q2181.39 304.667 2177.62 304.667 Q2167.37 304.667 2161.34 298.226 Q2155.3 291.786 2155.3 280.848 Q2155.3 269.749 2161.38 263.389 Q2167.49 257.029 2178.11 257.029 Q2181.55 257.029 2184.83 257.758 Q2188.11 258.447 2191.19 259.864 Z" fill="#000000" fill-rule="nonzero" fill-opacity="1" /><path clip-path="url(#clip380)" d="M2224.77 280.686 Q2215.74 280.686 2212.26 282.752 Q2208.77 284.818 2208.77 289.801 Q2208.77 293.77 2211.36 296.12 Q2214 298.429 2218.49 298.429 Q2224.69 298.429 2228.42 294.054 Q2232.19 289.639 2232.19 282.347 L2232.19 280.686 L2224.77 280.686 M2239.64 277.607 L2239.64 303.493 L2232.19 303.493 L2232.19 296.606 Q2229.63 300.738 2225.83 302.723 Q2222.02 304.667 2216.51 304.667 Q2209.54 304.667 2205.41 300.779 Q2201.32 296.849 2201.32 290.287 Q2201.32 282.63 2206.42 278.742 Q2211.57 274.853 2221.73 274.853 L2232.19 274.853 L2232.19 274.124 Q2232.19 268.979 2228.78 266.184 Q2225.42 263.348 2219.3 263.348 Q2215.41 263.348 2211.73 264.28 Q2208.04 265.212 2204.64 267.075 L2204.64 260.188 Q2208.73 258.609 2212.58 257.839 Q2216.43 257.029 2220.07 257.029 Q2229.92 257.029 2234.78 262.133 Q2239.64 267.237 2239.64 277.607 Z" fill="#000000" fill-rule="nonzero" fill-opacity="1" /><path clip-path="url(#clip380)" d="M2254.99 240.461 L2262.45 240.461 L2262.45 303.493 L2254.99 303.493 L2254.99 240.461 Z" fill="#000000" fill-rule="nonzero" fill-opacity="1" /></svg>
