<?xml version="1.0" encoding="utf-8"?>
<svg xmlns="http://www.w3.org/2000/svg" xmlns:xlink="http://www.w3.org/1999/xlink" width="600" height="400" viewBox="0 0 2400 1600">
<defs>
  <clipPath id="clip470">
    <rect x="0" y="0" width="2400" height="1600"/>
  </clipPath>
</defs>
<path clip-path="url(#clip470)" d="M0 1600 L2400 1600 L2400 0 L0 0  Z" fill="#ffffff" fill-rule="evenodd" fill-opacity="1"/>
<defs>
  <clipPath id="clip471">
    <rect x="169" y="123" width="2184" height="1262"/>
  </clipPath>
</defs>
<path clip-path="url(#clip470)" d="M169.283 1384.3 L2352.76 1384.3 L2352.76 123.472 L169.283 123.472  Z" fill="#ffffff" fill-rule="evenodd" fill-opacity="1"/>
<polyline clip-path="url(#clip471)" style="stroke:#000000; stroke-linecap:round; stroke-linejoin:round; stroke-width:2; stroke-opacity:0.1; fill:none" points="231.08,1384.3 231.08,123.472 "/>
<polyline clip-path="url(#clip471)" style="stroke:#000000; stroke-linecap:round; stroke-linejoin:round; stroke-width:2; stroke-opacity:0.1; fill:none" points="756.559,1384.3 756.559,123.472 "/>
<polyline clip-path="url(#clip471)" style="stroke:#000000; stroke-linecap:round; stroke-linejoin:round; stroke-width:2; stroke-opacity:0.1; fill:none" points="1282.04,1384.3 1282.04,123.472 "/>
<polyline clip-path="url(#clip471)" style="stroke:#000000; stroke-linecap:round; stroke-linejoin:round; stroke-width:2; stroke-opacity:0.1; fill:none" points="1807.52,1384.3 1807.52,123.472 "/>
<polyline clip-path="url(#clip471)" style="stroke:#000000; stroke-linecap:round; stroke-linejoin:round; stroke-width:2; stroke-opacity:0.1; fill:none" points="2333,1384.3 2333,123.472 "/>
<polyline clip-path="url(#clip471)" style="stroke:#000000; stroke-linecap:round; stroke-linejoin:round; stroke-width:2; stroke-opacity:0.1; fill:none" points="169.283,1348.62 2352.76,1348.62 "/>
<polyline clip-path="url(#clip471)" style="stroke:#000000; stroke-linecap:round; stroke-linejoin:round; stroke-width:2; stroke-opacity:0.1; fill:none" points="169.283,1058.9 2352.76,1058.9 "/>
<polyline clip-path="url(#clip471)" style="stroke:#000000; stroke-linecap:round; stroke-linejoin:round; stroke-width:2; stroke-opacity:0.1; fill:none" points="169.283,769.185 2352.76,769.185 "/>
<polyline clip-path="url(#clip471)" style="stroke:#000000; stroke-linecap:round; stroke-linejoin:round; stroke-width:2; stroke-opacity:0.1; fill:none" points="169.283,479.469 2352.76,479.469 "/>
<polyline clip-path="url(#clip471)" style="stroke:#000000; stroke-linecap:round; stroke-linejoin:round; stroke-width:2; stroke-opacity:0.1; fill:none" points="169.283,189.753 2352.76,189.753 "/>
<polyline clip-path="url(#clip470)" style="stroke:#000000; stroke-linecap:round; stroke-linejoin:round; stroke-width:4; stroke-opacity:1; fill:none" points="169.283,1384.3 2352.76,1384.3 "/>
<polyline clip-path="url(#clip470)" style="stroke:#000000; stroke-linecap:round; stroke-linejoin:round; stroke-width:4; stroke-opacity:1; fill:none" points="231.08,1384.3 231.08,1365.4 "/>
<polyline clip-path="url(#clip470)" style="stroke:#000000; stroke-linecap:round; stroke-linejoin:round; stroke-width:4; stroke-opacity:1; fill:none" points="756.559,1384.3 756.559,1365.4 "/>
<polyline clip-path="url(#clip470)" style="stroke:#000000; stroke-linecap:round; stroke-linejoin:round; stroke-width:4; stroke-opacity:1; fill:none" points="1282.04,1384.3 1282.04,1365.4 "/>
<polyline clip-path="url(#clip470)" style="stroke:#000000; stroke-linecap:round; stroke-linejoin:round; stroke-width:4; stroke-opacity:1; fill:none" points="1807.52,1384.3 1807.52,1365.4 "/>
<polyline clip-path="url(#clip470)" style="stroke:#000000; stroke-linecap:round; stroke-linejoin:round; stroke-width:4; stroke-opacity:1; fill:none" points="2333,1384.3 2333,1365.4 "/>
<path clip-path="url(#clip470)" d="M231.08 1421.08 Q225.663 1421.08 222.92 1426.43 Q220.212 1431.74 220.212 1442.43 Q220.212 1453.09 222.92 1458.44 Q225.663 1463.75 231.08 1463.75 Q236.531 1463.75 239.239 1458.44 Q241.982 1453.09 241.982 1442.43 Q241.982 1431.74 239.239 1426.43 Q236.531 1421.08 231.08 1421.08 M231.08 1415.52 Q239.795 1415.52 244.378 1422.43 Q248.996 1429.31 248.996 1442.43 Q248.996 1455.52 244.378 1462.43 Q239.795 1469.31 231.08 1469.31 Q222.365 1469.31 217.746 1462.43 Q213.163 1455.52 213.163 1442.43 Q213.163 1429.31 217.746 1422.43 Q222.365 1415.52 231.08 1415.52 Z" fill="#000000" fill-rule="nonzero" fill-opacity="1" /><path clip-path="url(#clip470)" d="M725.466 1462.4 L749.945 1462.4 L749.945 1468.3 L717.028 1468.3 L717.028 1462.4 Q721.021 1458.27 727.896 1451.32 Q734.806 1444.34 736.577 1442.33 Q739.945 1438.54 741.264 1435.94 Q742.618 1433.3 742.618 1430.77 Q742.618 1426.63 739.702 1424.03 Q736.82 1421.43 732.167 1421.43 Q728.868 1421.43 725.188 1422.57 Q721.542 1423.72 717.375 1426.04 L717.375 1418.96 Q721.612 1417.26 725.292 1416.39 Q728.973 1415.52 732.028 1415.52 Q740.084 1415.52 744.875 1419.55 Q749.667 1423.58 749.667 1430.31 Q749.667 1433.51 748.452 1436.39 Q747.271 1439.24 744.111 1443.13 Q743.243 1444.13 738.591 1448.96 Q733.938 1453.75 725.466 1462.4 Z" fill="#000000" fill-rule="nonzero" fill-opacity="1" /><path clip-path="url(#clip470)" d="M764.736 1416.46 L792.271 1416.46 L792.271 1422.36 L771.16 1422.36 L771.16 1435.07 Q772.688 1434.55 774.215 1434.31 Q775.743 1434.03 777.271 1434.03 Q785.951 1434.03 791.021 1438.79 Q796.09 1443.54 796.09 1451.67 Q796.09 1460.04 790.882 1464.69 Q785.674 1469.31 776.195 1469.31 Q772.931 1469.31 769.528 1468.75 Q766.16 1468.2 762.549 1467.08 L762.549 1460.04 Q765.674 1461.74 769.007 1462.57 Q772.34 1463.4 776.056 1463.4 Q782.063 1463.4 785.57 1460.24 Q789.076 1457.08 789.076 1451.67 Q789.076 1446.25 785.57 1443.09 Q782.063 1439.93 776.056 1439.93 Q773.243 1439.93 770.431 1440.56 Q767.653 1441.18 764.736 1442.5 L764.736 1416.46 Z" fill="#000000" fill-rule="nonzero" fill-opacity="1" /><path clip-path="url(#clip470)" d="M1244.09 1416.46 L1271.62 1416.46 L1271.62 1422.36 L1250.51 1422.36 L1250.51 1435.07 Q1252.04 1434.55 1253.57 1434.31 Q1255.09 1434.03 1256.62 1434.03 Q1265.3 1434.03 1270.37 1438.79 Q1275.44 1443.54 1275.44 1451.67 Q1275.44 1460.04 1270.23 1464.69 Q1265.03 1469.31 1255.55 1469.31 Q1252.28 1469.31 1248.88 1468.75 Q1245.51 1468.2 1241.9 1467.08 L1241.9 1460.04 Q1245.03 1461.74 1248.36 1462.57 Q1251.69 1463.4 1255.41 1463.4 Q1261.41 1463.4 1264.92 1460.24 Q1268.43 1457.08 1268.43 1451.67 Q1268.43 1446.25 1264.92 1443.09 Q1261.41 1439.93 1255.41 1439.93 Q1252.59 1439.93 1249.78 1440.56 Q1247 1441.18 1244.09 1442.5 L1244.09 1416.46 Z" fill="#000000" fill-rule="nonzero" fill-opacity="1" /><path clip-path="url(#clip470)" d="M1304.26 1421.08 Q1298.84 1421.08 1296.1 1426.43 Q1293.39 1431.74 1293.39 1442.43 Q1293.39 1453.09 1296.1 1458.44 Q1298.84 1463.75 1304.26 1463.75 Q1309.71 1463.75 1312.42 1458.44 Q1315.16 1453.09 1315.16 1442.43 Q1315.16 1431.74 1312.42 1426.43 Q1309.71 1421.08 1304.26 1421.08 M1304.26 1415.52 Q1312.98 1415.52 1317.56 1422.43 Q1322.18 1429.31 1322.18 1442.43 Q1322.18 1455.52 1317.56 1462.43 Q1312.98 1469.31 1304.26 1469.31 Q1295.55 1469.31 1290.93 1462.43 Q1286.34 1455.52 1286.34 1442.43 Q1286.34 1429.31 1290.93 1422.43 Q1295.55 1415.52 1304.26 1415.52 Z" fill="#000000" fill-rule="nonzero" fill-opacity="1" /><path clip-path="url(#clip470)" d="M1768.3 1416.46 L1801.63 1416.46 L1801.63 1419.45 L1782.81 1468.3 L1775.49 1468.3 L1793.2 1422.36 L1768.3 1422.36 L1768.3 1416.46 Z" fill="#000000" fill-rule="nonzero" fill-opacity="1" /><path clip-path="url(#clip470)" d="M1815.38 1416.46 L1842.92 1416.46 L1842.92 1422.36 L1821.81 1422.36 L1821.81 1435.07 Q1823.33 1434.55 1824.86 1434.31 Q1826.39 1434.03 1827.92 1434.03 Q1836.6 1434.03 1841.67 1438.79 Q1846.74 1443.54 1846.74 1451.67 Q1846.74 1460.04 1841.53 1464.69 Q1836.32 1469.31 1826.84 1469.31 Q1823.58 1469.31 1820.17 1468.75 Q1816.81 1468.2 1813.2 1467.08 L1813.2 1460.04 Q1816.32 1461.74 1819.65 1462.57 Q1822.99 1463.4 1826.7 1463.4 Q1832.71 1463.4 1836.22 1460.24 Q1839.72 1457.08 1839.72 1451.67 Q1839.72 1446.25 1836.22 1443.09 Q1832.71 1439.93 1826.7 1439.93 Q1823.89 1439.93 1821.08 1440.56 Q1818.3 1441.18 1815.38 1442.5 L1815.38 1416.46 Z" fill="#000000" fill-rule="nonzero" fill-opacity="1" /><path clip-path="url(#clip470)" d="M2272.41 1462.4 L2283.87 1462.4 L2283.87 1422.85 L2271.4 1425.35 L2271.4 1418.96 L2283.8 1416.46 L2290.81 1416.46 L2290.81 1462.4 L2302.27 1462.4 L2302.27 1468.3 L2272.41 1468.3 L2272.41 1462.4 Z" fill="#000000" fill-rule="nonzero" fill-opacity="1" /><path clip-path="url(#clip470)" d="M2331.44 1421.08 Q2326.02 1421.08 2323.28 1426.43 Q2320.57 1431.74 2320.57 1442.43 Q2320.57 1453.09 2323.28 1458.44 Q2326.02 1463.75 2331.44 1463.75 Q2336.89 1463.75 2339.6 1458.44 Q2342.34 1453.09 2342.34 1442.43 Q2342.34 1431.74 2339.6 1426.43 Q2336.89 1421.08 2331.44 1421.08 M2331.44 1415.52 Q2340.15 1415.52 2344.73 1422.43 Q2349.35 1429.31 2349.35 1442.43 Q2349.35 1455.52 2344.73 1462.43 Q2340.15 1469.31 2331.44 1469.31 Q2322.72 1469.31 2318.1 1462.43 Q2313.52 1455.52 2313.52 1442.43 Q2313.52 1429.31 2318.1 1422.43 Q2322.72 1415.52 2331.44 1415.52 Z" fill="#000000" fill-rule="nonzero" fill-opacity="1" /><path clip-path="url(#clip470)" d="M2376.68 1421.08 Q2371.26 1421.08 2368.52 1426.43 Q2365.81 1431.74 2365.81 1442.43 Q2365.81 1453.09 2368.52 1458.44 Q2371.26 1463.75 2376.68 1463.75 Q2382.13 1463.75 2384.84 1458.44 Q2387.58 1453.09 2387.58 1442.43 Q2387.58 1431.74 2384.84 1426.43 Q2382.13 1421.08 2376.68 1421.08 M2376.68 1415.52 Q2385.39 1415.52 2389.98 1422.43 Q2394.59 1429.31 2394.59 1442.43 Q2394.59 1455.52 2389.98 1462.43 Q2385.39 1469.31 2376.68 1469.31 Q2367.96 1469.31 2363.34 1462.43 Q2358.76 1455.52 2358.76 1442.43 Q2358.76 1429.31 2363.34 1422.43 Q2367.96 1415.52 2376.68 1415.52 Z" fill="#000000" fill-rule="nonzero" fill-opacity="1" /><path clip-path="url(#clip470)" d="M838.591 1519.57 L838.591 1545.54 L850.351 1545.54 Q856.878 1545.54 860.443 1542.16 Q864.008 1538.78 864.008 1532.53 Q864.008 1526.33 860.443 1522.95 Q856.878 1519.57 850.351 1519.57 L838.591 1519.57 M829.24 1511.88 L850.351 1511.88 Q861.971 1511.88 867.897 1517.16 Q873.869 1522.39 873.869 1532.53 Q873.869 1542.76 867.897 1547.99 Q861.971 1553.23 850.351 1553.23 L838.591 1553.23 L838.591 1581 L829.24 1581 L829.24 1511.88 Z" fill="#000000" fill-rule="nonzero" fill-opacity="1" /><path clip-path="url(#clip470)" d="M902.758 1535.12 Q895.906 1535.12 891.924 1540.49 Q887.943 1545.82 887.943 1555.12 Q887.943 1564.43 891.878 1569.8 Q895.86 1575.12 902.758 1575.12 Q909.563 1575.12 913.545 1569.75 Q917.526 1564.38 917.526 1555.12 Q917.526 1545.91 913.545 1540.54 Q909.563 1535.12 902.758 1535.12 M902.758 1527.9 Q913.869 1527.9 920.211 1535.12 Q926.554 1542.35 926.554 1555.12 Q926.554 1567.86 920.211 1575.12 Q913.869 1582.35 902.758 1582.35 Q891.6 1582.35 885.258 1575.12 Q878.961 1567.86 878.961 1555.12 Q878.961 1542.35 885.258 1535.12 Q891.6 1527.9 902.758 1527.9 Z" fill="#000000" fill-rule="nonzero" fill-opacity="1" /><path clip-path="url(#clip470)" d="M940.674 1508.97 L949.193 1508.97 L949.193 1581 L940.674 1581 L940.674 1508.97 Z" fill="#000000" fill-rule="nonzero" fill-opacity="1" /><path clip-path="url(#clip470)" d="M988.591 1585.82 Q984.979 1595.08 981.554 1597.9 Q978.128 1600.73 972.387 1600.73 L965.581 1600.73 L965.581 1593.6 L970.581 1593.6 Q974.1 1593.6 976.044 1591.93 Q977.989 1590.26 980.35 1584.06 L981.878 1580.17 L960.905 1529.15 L969.933 1529.15 L986.137 1569.71 L1002.34 1529.15 L1011.37 1529.15 L988.591 1585.82 Z" fill="#000000" fill-rule="nonzero" fill-opacity="1" /><path clip-path="url(#clip470)" d="M1066.23 1549.71 L1066.23 1581 L1057.71 1581 L1057.71 1549.99 Q1057.71 1542.62 1054.84 1538.97 Q1051.97 1535.31 1046.23 1535.31 Q1039.33 1535.31 1035.35 1539.71 Q1031.37 1544.11 1031.37 1551.7 L1031.37 1581 L1022.8 1581 L1022.8 1529.15 L1031.37 1529.15 L1031.37 1537.21 Q1034.42 1532.53 1038.54 1530.22 Q1042.71 1527.9 1048.13 1527.9 Q1057.06 1527.9 1061.65 1533.46 Q1066.23 1538.97 1066.23 1549.71 Z" fill="#000000" fill-rule="nonzero" fill-opacity="1" /><path clip-path="url(#clip470)" d="M1103.31 1535.12 Q1096.46 1535.12 1092.48 1540.49 Q1088.5 1545.82 1088.5 1555.12 Q1088.5 1564.43 1092.43 1569.8 Q1096.41 1575.12 1103.31 1575.12 Q1110.12 1575.12 1114.1 1569.75 Q1118.08 1564.38 1118.08 1555.12 Q1118.08 1545.91 1114.1 1540.54 Q1110.12 1535.12 1103.31 1535.12 M1103.31 1527.9 Q1114.42 1527.9 1120.77 1535.12 Q1127.11 1542.35 1127.11 1555.12 Q1127.11 1567.86 1120.77 1575.12 Q1114.42 1582.35 1103.31 1582.35 Q1092.15 1582.35 1085.81 1575.12 Q1079.52 1567.86 1079.52 1555.12 Q1079.52 1542.35 1085.81 1535.12 Q1092.15 1527.9 1103.31 1527.9 Z" fill="#000000" fill-rule="nonzero" fill-opacity="1" /><path clip-path="url(#clip470)" d="M1181.6 1539.11 Q1184.79 1533.37 1189.24 1530.63 Q1193.68 1527.9 1199.7 1527.9 Q1207.8 1527.9 1212.2 1533.6 Q1216.6 1539.24 1216.6 1549.71 L1216.6 1581 L1208.03 1581 L1208.03 1549.99 Q1208.03 1542.53 1205.39 1538.92 Q1202.76 1535.31 1197.34 1535.31 Q1190.72 1535.31 1186.88 1539.71 Q1183.03 1544.11 1183.03 1551.7 L1183.03 1581 L1174.47 1581 L1174.47 1549.99 Q1174.47 1542.49 1171.83 1538.92 Q1169.19 1535.31 1163.68 1535.31 Q1157.15 1535.31 1153.31 1539.75 Q1149.47 1544.15 1149.47 1551.7 L1149.47 1581 L1140.9 1581 L1140.9 1529.15 L1149.47 1529.15 L1149.47 1537.21 Q1152.39 1532.44 1156.46 1530.17 Q1160.53 1527.9 1166.14 1527.9 Q1171.78 1527.9 1175.72 1530.77 Q1179.7 1533.64 1181.6 1539.11 Z" fill="#000000" fill-rule="nonzero" fill-opacity="1" /><path clip-path="url(#clip470)" d="M1233.59 1529.15 L1242.11 1529.15 L1242.11 1581 L1233.59 1581 L1233.59 1529.15 M1233.59 1508.97 L1242.11 1508.97 L1242.11 1519.75 L1233.59 1519.75 L1233.59 1508.97 Z" fill="#000000" fill-rule="nonzero" fill-opacity="1" /><path clip-path="url(#clip470)" d="M1283.5 1554.94 Q1273.17 1554.94 1269.19 1557.3 Q1265.21 1559.66 1265.21 1565.36 Q1265.21 1569.89 1268.17 1572.58 Q1271.18 1575.22 1276.32 1575.22 Q1283.4 1575.22 1287.66 1570.22 Q1291.97 1565.17 1291.97 1556.84 L1291.97 1554.94 L1283.5 1554.94 M1300.49 1551.42 L1300.49 1581 L1291.97 1581 L1291.97 1573.13 Q1289.05 1577.86 1284.7 1580.12 Q1280.35 1582.35 1274.05 1582.35 Q1266.09 1582.35 1261.37 1577.9 Q1256.69 1573.41 1256.69 1565.91 Q1256.69 1557.16 1262.52 1552.72 Q1268.4 1548.27 1280.02 1548.27 L1291.97 1548.27 L1291.97 1547.44 Q1291.97 1541.56 1288.08 1538.37 Q1284.24 1535.12 1277.25 1535.12 Q1272.8 1535.12 1268.59 1536.19 Q1264.38 1537.25 1260.49 1539.38 L1260.49 1531.51 Q1265.16 1529.71 1269.56 1528.83 Q1273.96 1527.9 1278.13 1527.9 Q1289.38 1527.9 1294.93 1533.74 Q1300.49 1539.57 1300.49 1551.42 Z" fill="#000000" fill-rule="nonzero" fill-opacity="1" /><path clip-path="url(#clip470)" d="M1318.03 1508.97 L1326.55 1508.97 L1326.55 1581 L1318.03 1581 L1318.03 1508.97 Z" fill="#000000" fill-rule="nonzero" fill-opacity="1" /><path clip-path="url(#clip470)" d="M1408.63 1537.02 L1408.63 1508.97 L1417.15 1508.97 L1417.15 1581 L1408.63 1581 L1408.63 1573.23 Q1405.95 1577.86 1401.83 1580.12 Q1397.76 1582.35 1392.01 1582.35 Q1382.62 1582.35 1376.69 1574.85 Q1370.81 1567.35 1370.81 1555.12 Q1370.81 1542.9 1376.69 1535.4 Q1382.62 1527.9 1392.01 1527.9 Q1397.76 1527.9 1401.83 1530.17 Q1405.95 1532.39 1408.63 1537.02 M1379.61 1555.12 Q1379.61 1564.52 1383.45 1569.89 Q1387.34 1575.22 1394.1 1575.22 Q1400.86 1575.22 1404.75 1569.89 Q1408.63 1564.52 1408.63 1555.12 Q1408.63 1545.73 1404.75 1540.4 Q1400.86 1535.03 1394.1 1535.03 Q1387.34 1535.03 1383.45 1540.4 Q1379.61 1545.73 1379.61 1555.12 Z" fill="#000000" fill-rule="nonzero" fill-opacity="1" /><path clip-path="url(#clip470)" d="M1479.05 1552.95 L1479.05 1557.12 L1439.88 1557.12 Q1440.44 1565.91 1445.16 1570.54 Q1449.93 1575.12 1458.4 1575.12 Q1463.31 1575.12 1467.89 1573.92 Q1472.52 1572.72 1477.06 1570.31 L1477.06 1578.36 Q1472.48 1580.31 1467.66 1581.33 Q1462.85 1582.35 1457.89 1582.35 Q1445.49 1582.35 1438.22 1575.12 Q1431 1567.9 1431 1555.59 Q1431 1542.86 1437.85 1535.4 Q1444.75 1527.9 1456.41 1527.9 Q1466.88 1527.9 1472.94 1534.66 Q1479.05 1541.37 1479.05 1552.95 M1470.53 1550.45 Q1470.44 1543.46 1466.6 1539.29 Q1462.8 1535.12 1456.5 1535.12 Q1449.38 1535.12 1445.07 1539.15 Q1440.81 1543.18 1440.16 1550.49 L1470.53 1550.45 Z" fill="#000000" fill-rule="nonzero" fill-opacity="1" /><path clip-path="url(#clip470)" d="M1527.15 1554.48 Q1527.15 1545.22 1523.31 1540.12 Q1519.51 1535.03 1512.62 1535.03 Q1505.76 1535.03 1501.92 1540.12 Q1498.12 1545.22 1498.12 1554.48 Q1498.12 1563.69 1501.92 1568.78 Q1505.76 1573.87 1512.62 1573.87 Q1519.51 1573.87 1523.31 1568.78 Q1527.15 1563.69 1527.15 1554.48 M1535.67 1574.57 Q1535.67 1587.81 1529.79 1594.24 Q1523.91 1600.73 1511.78 1600.73 Q1507.29 1600.73 1503.31 1600.03 Q1499.33 1599.38 1495.58 1597.99 L1495.58 1589.71 Q1499.33 1591.74 1502.99 1592.72 Q1506.64 1593.69 1510.44 1593.69 Q1518.82 1593.69 1522.99 1589.29 Q1527.15 1584.94 1527.15 1576.1 L1527.15 1571.88 Q1524.51 1576.47 1520.39 1578.74 Q1516.27 1581 1510.53 1581 Q1501 1581 1495.16 1573.74 Q1489.33 1566.47 1489.33 1554.48 Q1489.33 1542.44 1495.16 1535.17 Q1501 1527.9 1510.53 1527.9 Q1516.27 1527.9 1520.39 1530.17 Q1524.51 1532.44 1527.15 1537.02 L1527.15 1529.15 L1535.67 1529.15 L1535.67 1574.57 Z" fill="#000000" fill-rule="nonzero" fill-opacity="1" /><path clip-path="url(#clip470)" d="M1583.26 1537.12 Q1581.83 1536.28 1580.12 1535.91 Q1578.45 1535.49 1576.41 1535.49 Q1569.19 1535.49 1565.3 1540.22 Q1561.46 1544.89 1561.46 1553.69 L1561.46 1581 L1552.89 1581 L1552.89 1529.15 L1561.46 1529.15 L1561.46 1537.21 Q1564.14 1532.49 1568.45 1530.22 Q1572.75 1527.9 1578.91 1527.9 Q1579.79 1527.9 1580.86 1528.04 Q1581.92 1528.13 1583.22 1528.37 L1583.26 1537.12 Z" fill="#000000" fill-rule="nonzero" fill-opacity="1" /><path clip-path="url(#clip470)" d="M1634.47 1552.95 L1634.47 1557.12 L1595.3 1557.12 Q1595.86 1565.91 1600.58 1570.54 Q1605.35 1575.12 1613.82 1575.12 Q1618.73 1575.12 1623.31 1573.92 Q1627.94 1572.72 1632.48 1570.31 L1632.48 1578.36 Q1627.89 1580.31 1623.08 1581.33 Q1618.26 1582.35 1613.31 1582.35 Q1600.9 1582.35 1593.63 1575.12 Q1586.41 1567.9 1586.41 1555.59 Q1586.41 1542.86 1593.26 1535.4 Q1600.16 1527.9 1611.83 1527.9 Q1622.29 1527.9 1628.36 1534.66 Q1634.47 1541.37 1634.47 1552.95 M1625.95 1550.45 Q1625.86 1543.46 1622.01 1539.29 Q1618.22 1535.12 1611.92 1535.12 Q1604.79 1535.12 1600.49 1539.15 Q1596.23 1543.18 1595.58 1550.49 L1625.95 1550.45 Z" fill="#000000" fill-rule="nonzero" fill-opacity="1" /><path clip-path="url(#clip470)" d="M1692.8 1552.95 L1692.8 1557.12 L1653.63 1557.12 Q1654.19 1565.91 1658.91 1570.54 Q1663.68 1575.12 1672.15 1575.12 Q1677.06 1575.12 1681.64 1573.92 Q1686.27 1572.72 1690.81 1570.31 L1690.81 1578.36 Q1686.23 1580.31 1681.41 1581.33 Q1676.6 1582.35 1671.64 1582.35 Q1659.24 1582.35 1651.97 1575.12 Q1644.74 1567.9 1644.74 1555.59 Q1644.74 1542.86 1651.6 1535.4 Q1658.49 1527.9 1670.16 1527.9 Q1680.62 1527.9 1686.69 1534.66 Q1692.8 1541.37 1692.8 1552.95 M1684.28 1550.45 Q1684.19 1543.46 1680.35 1539.29 Q1676.55 1535.12 1670.25 1535.12 Q1663.12 1535.12 1658.82 1539.15 Q1654.56 1543.18 1653.91 1550.49 L1684.28 1550.45 Z" fill="#000000" fill-rule="nonzero" fill-opacity="1" /><polyline clip-path="url(#clip470)" style="stroke:#000000; stroke-linecap:round; stroke-linejoin:round; stroke-width:4; stroke-opacity:1; fill:none" points="169.283,1384.3 169.283,123.472 "/>
<polyline clip-path="url(#clip470)" style="stroke:#000000; stroke-linecap:round; stroke-linejoin:round; stroke-width:4; stroke-opacity:1; fill:none" points="169.283,1348.62 188.181,1348.62 "/>
<polyline clip-path="url(#clip470)" style="stroke:#000000; stroke-linecap:round; stroke-linejoin:round; stroke-width:4; stroke-opacity:1; fill:none" points="169.283,1058.9 188.181,1058.9 "/>
<polyline clip-path="url(#clip470)" style="stroke:#000000; stroke-linecap:round; stroke-linejoin:round; stroke-width:4; stroke-opacity:1; fill:none" points="169.283,769.185 188.181,769.185 "/>
<polyline clip-path="url(#clip470)" style="stroke:#000000; stroke-linecap:round; stroke-linejoin:round; stroke-width:4; stroke-opacity:1; fill:none" points="169.283,479.469 188.181,479.469 "/>
<polyline clip-path="url(#clip470)" style="stroke:#000000; stroke-linecap:round; stroke-linejoin:round; stroke-width:4; stroke-opacity:1; fill:none" points="169.283,189.753 188.181,189.753 "/>
<path clip-path="url(#clip470)" d="M115.367 1327.31 Q109.95 1327.31 107.207 1332.66 Q104.499 1337.97 104.499 1348.67 Q104.499 1359.33 107.207 1364.67 Q109.95 1369.99 115.367 1369.99 Q120.818 1369.99 123.526 1364.67 Q126.27 1359.33 126.27 1348.67 Q126.27 1337.97 123.526 1332.66 Q120.818 1327.31 115.367 1327.31 M115.367 1321.76 Q124.082 1321.76 128.665 1328.67 Q133.283 1335.54 133.283 1348.67 Q133.283 1361.76 128.665 1368.67 Q124.082 1375.54 115.367 1375.54 Q106.652 1375.54 102.034 1368.67 Q97.4502 1361.76 97.4502 1348.67 Q97.4502 1335.54 102.034 1328.67 Q106.652 1321.76 115.367 1321.76 Z" fill="#000000" fill-rule="nonzero" fill-opacity="1" /><path clip-path="url(#clip470)" d="M56.3393 1078.92 L67.7976 1078.92 L67.7976 1039.37 L55.3324 1041.87 L55.3324 1035.48 L67.7281 1032.98 L74.742 1032.98 L74.742 1078.92 L86.2003 1078.92 L86.2003 1084.82 L56.3393 1084.82 L56.3393 1078.92 Z" fill="#000000" fill-rule="nonzero" fill-opacity="1" /><path clip-path="url(#clip470)" d="M115.367 1037.6 Q109.95 1037.6 107.207 1042.95 Q104.499 1048.26 104.499 1058.95 Q104.499 1069.61 107.207 1074.96 Q109.95 1080.27 115.367 1080.27 Q120.818 1080.27 123.526 1074.96 Q126.27 1069.61 126.27 1058.95 Q126.27 1048.26 123.526 1042.95 Q120.818 1037.6 115.367 1037.6 M115.367 1032.04 Q124.082 1032.04 128.665 1038.95 Q133.283 1045.83 133.283 1058.95 Q133.283 1072.04 128.665 1078.95 Q124.082 1085.83 115.367 1085.83 Q106.652 1085.83 102.034 1078.95 Q97.4502 1072.04 97.4502 1058.95 Q97.4502 1045.83 102.034 1038.95 Q106.652 1032.04 115.367 1032.04 Z" fill="#000000" fill-rule="nonzero" fill-opacity="1" /><path clip-path="url(#clip470)" d="M61.1657 789.202 L85.6447 789.202 L85.6447 795.105 L52.7282 795.105 L52.7282 789.202 Q56.7213 785.07 63.5962 778.126 Q70.5059 771.146 72.2767 769.133 Q75.6448 765.348 76.9642 762.744 Q78.3184 760.105 78.3184 757.57 Q78.3184 753.438 75.4017 750.834 Q72.5198 748.23 67.867 748.23 Q64.5684 748.23 60.8879 749.376 Q57.2421 750.522 53.0754 752.848 L53.0754 745.765 Q57.3115 744.063 60.9921 743.195 Q64.6726 742.327 67.7281 742.327 Q75.7837 742.327 80.5753 746.355 Q85.3669 750.383 85.3669 757.119 Q85.3669 760.313 84.1517 763.195 Q82.9711 766.042 79.8114 769.931 Q78.9434 770.938 74.2906 775.764 Q69.6379 780.556 61.1657 789.202 Z" fill="#000000" fill-rule="nonzero" fill-opacity="1" /><path clip-path="url(#clip470)" d="M115.367 747.883 Q109.95 747.883 107.207 753.23 Q104.499 758.542 104.499 769.237 Q104.499 779.896 107.207 785.244 Q109.95 790.556 115.367 790.556 Q120.818 790.556 123.526 785.244 Q126.27 779.896 126.27 769.237 Q126.27 758.542 123.526 753.23 Q120.818 747.883 115.367 747.883 M115.367 742.327 Q124.082 742.327 128.665 749.237 Q133.283 756.112 133.283 769.237 Q133.283 782.327 128.665 789.237 Q124.082 796.112 115.367 796.112 Q106.652 796.112 102.034 789.237 Q97.4502 782.327 97.4502 769.237 Q97.4502 756.112 102.034 749.237 Q106.652 742.327 115.367 742.327 Z" fill="#000000" fill-rule="nonzero" fill-opacity="1" /><path clip-path="url(#clip470)" d="M76.3739 477.438 Q81.4086 478.514 84.2211 481.917 Q87.0683 485.32 87.0683 490.32 Q87.0683 497.993 81.7906 502.194 Q76.5128 506.396 66.7907 506.396 Q63.5268 506.396 60.0546 505.736 Q56.6171 505.111 52.9366 503.826 L52.9366 497.056 Q55.8532 498.757 59.3254 499.625 Q62.7976 500.493 66.5823 500.493 Q73.1795 500.493 76.617 497.889 Q80.0892 495.285 80.0892 490.32 Q80.0892 485.736 76.86 483.167 Q73.6656 480.563 67.9365 480.563 L61.8948 480.563 L61.8948 474.799 L68.2143 474.799 Q73.3878 474.799 76.1309 472.75 Q78.8739 470.667 78.8739 466.778 Q78.8739 462.785 76.0267 460.667 Q73.2142 458.514 67.9365 458.514 Q65.0546 458.514 61.756 459.139 Q58.4574 459.764 54.4991 461.084 L54.4991 454.834 Q58.4921 453.723 61.9643 453.167 Q65.4712 452.611 68.5615 452.611 Q76.5475 452.611 81.2003 456.257 Q85.8531 459.868 85.8531 466.049 Q85.8531 470.354 83.3878 473.34 Q80.9225 476.292 76.3739 477.438 Z" fill="#000000" fill-rule="nonzero" fill-opacity="1" /><path clip-path="url(#clip470)" d="M115.367 458.167 Q109.95 458.167 107.207 463.514 Q104.499 468.827 104.499 479.521 Q104.499 490.181 107.207 495.528 Q109.95 500.84 115.367 500.84 Q120.818 500.84 123.526 495.528 Q126.27 490.181 126.27 479.521 Q126.27 468.827 123.526 463.514 Q120.818 458.167 115.367 458.167 M115.367 452.611 Q124.082 452.611 128.665 459.521 Q133.283 466.396 133.283 479.521 Q133.283 492.611 128.665 499.521 Q124.082 506.396 115.367 506.396 Q106.652 506.396 102.034 499.521 Q97.4502 492.611 97.4502 479.521 Q97.4502 466.396 102.034 459.521 Q106.652 452.611 115.367 452.611 Z" fill="#000000" fill-rule="nonzero" fill-opacity="1" /><path clip-path="url(#clip470)" d="M74.3948 169.944 L56.6865 197.618 L74.3948 197.618 L74.3948 169.944 M72.5545 163.833 L81.3739 163.833 L81.3739 197.618 L88.7697 197.618 L88.7697 203.451 L81.3739 203.451 L81.3739 215.673 L74.3948 215.673 L74.3948 203.451 L50.9921 203.451 L50.9921 196.68 L72.5545 163.833 Z" fill="#000000" fill-rule="nonzero" fill-opacity="1" /><path clip-path="url(#clip470)" d="M115.367 168.451 Q109.95 168.451 107.207 173.798 Q104.499 179.111 104.499 189.805 Q104.499 200.465 107.207 205.812 Q109.95 211.125 115.367 211.125 Q120.818 211.125 123.526 205.812 Q126.27 200.465 126.27 189.805 Q126.27 179.111 123.526 173.798 Q120.818 168.451 115.367 168.451 M115.367 162.896 Q124.082 162.896 128.665 169.805 Q133.283 176.68 133.283 189.805 Q133.283 202.895 128.665 209.805 Q124.082 216.68 115.367 216.68 Q106.652 216.68 102.034 209.805 Q97.4502 202.895 97.4502 189.805 Q97.4502 176.68 102.034 169.805 Q106.652 162.896 115.367 162.896 Z" fill="#000000" fill-rule="nonzero" fill-opacity="1" /><path clip-path="url(#clip470)" d="M946.791 12.096 L957.809 12.096 L984.626 62.6918 L984.626 12.096 L992.566 12.096 L992.566 72.576 L981.548 72.576 L954.731 21.9802 L954.731 72.576 L946.791 72.576 L946.791 12.096 Z" fill="#000000" fill-rule="nonzero" fill-opacity="1" /><path clip-path="url(#clip470)" d="M1037.53 44.2197 Q1040.16 45.1109 1042.64 48.0275 Q1045.15 50.9442 1047.66 56.0483 L1055.96 72.576 L1047.17 72.576 L1039.44 57.061 Q1036.44 50.9847 1033.6 48.9997 Q1030.81 47.0148 1025.95 47.0148 L1017.03 47.0148 L1017.03 72.576 L1008.85 72.576 L1008.85 12.096 L1027.32 12.096 Q1037.69 12.096 1042.8 16.4305 Q1047.9 20.7649 1047.9 29.5149 Q1047.9 35.2267 1045.23 38.994 Q1042.59 42.7613 1037.53 44.2197 M1017.03 18.8205 L1017.03 40.2903 L1027.32 40.2903 Q1033.24 40.2903 1036.23 37.5762 Q1039.27 34.8216 1039.27 29.5149 Q1039.27 24.2082 1036.23 21.5346 Q1033.24 18.8205 1027.32 18.8205 L1017.03 18.8205 Z" fill="#000000" fill-rule="nonzero" fill-opacity="1" /><path clip-path="url(#clip470)" d="M1066.5 12.096 L1078.69 12.096 L1094.12 53.2532 L1109.64 12.096 L1121.83 12.096 L1121.83 72.576 L1113.85 72.576 L1113.85 19.4686 L1098.25 60.9499 L1090.03 60.9499 L1074.43 19.4686 L1074.43 72.576 L1066.5 72.576 L1066.5 12.096 Z" fill="#000000" fill-rule="nonzero" fill-opacity="1" /><path clip-path="url(#clip470)" d="M1174.33 14.0809 L1174.33 22.0612 Q1169.67 19.8332 1165.54 18.7395 Q1161.41 17.6457 1157.56 17.6457 Q1150.88 17.6457 1147.23 20.2383 Q1143.62 22.8309 1143.62 27.611 Q1143.62 31.6214 1146.01 33.6873 Q1148.45 35.7128 1155.17 36.9686 L1160.11 37.9813 Q1169.27 39.7232 1173.6 44.1387 Q1177.98 48.5136 1177.98 55.8863 Q1177.98 64.6767 1172.06 69.2137 Q1166.19 73.7508 1154.8 73.7508 Q1150.51 73.7508 1145.65 72.7785 Q1140.83 71.8063 1135.64 69.9024 L1135.64 61.4765 Q1140.63 64.2716 1145.41 65.6895 Q1150.19 67.1073 1154.8 67.1073 Q1161.81 67.1073 1165.62 64.3527 Q1169.43 61.598 1169.43 56.4939 Q1169.43 52.0379 1166.67 49.5264 Q1163.96 47.0148 1157.72 45.759 L1152.74 44.7868 Q1143.58 42.9639 1139.49 39.075 Q1135.4 35.1862 1135.4 28.2591 Q1135.4 20.2383 1141.03 15.6203 Q1146.7 11.0023 1156.63 11.0023 Q1160.88 11.0023 1165.3 11.7719 Q1169.71 12.5416 1174.33 14.0809 Z" fill="#000000" fill-rule="nonzero" fill-opacity="1" /><path clip-path="url(#clip470)" d="M1190.74 12.096 L1228.98 12.096 L1228.98 18.9825 L1198.92 18.9825 L1198.92 36.8875 L1227.72 36.8875 L1227.72 43.7741 L1198.92 43.7741 L1198.92 65.6895 L1229.71 65.6895 L1229.71 72.576 L1190.74 72.576 L1190.74 12.096 Z" fill="#000000" fill-rule="nonzero" fill-opacity="1" /><path clip-path="url(#clip470)" d="M1276.58 14.324 L1276.58 27.2059 L1291.93 27.2059 L1291.93 32.9987 L1276.58 32.9987 L1276.58 57.6282 Q1276.58 63.1779 1278.07 64.7578 Q1279.61 66.3376 1284.27 66.3376 L1291.93 66.3376 L1291.93 72.576 L1284.27 72.576 Q1275.64 72.576 1272.36 69.3758 Q1269.08 66.1351 1269.08 57.6282 L1269.08 32.9987 L1263.61 32.9987 L1263.61 27.2059 L1269.08 27.2059 L1269.08 14.324 L1276.58 14.324 Z" fill="#000000" fill-rule="nonzero" fill-opacity="1" /><path clip-path="url(#clip470)" d="M1328.02 34.1734 Q1326.77 33.4443 1325.27 33.1202 Q1323.81 32.7556 1322.03 32.7556 Q1315.71 32.7556 1312.3 36.8875 Q1308.94 40.9789 1308.94 48.6757 L1308.94 72.576 L1301.45 72.576 L1301.45 27.2059 L1308.94 27.2059 L1308.94 34.2544 Q1311.29 30.1225 1315.06 28.1376 Q1318.83 26.1121 1324.21 26.1121 Q1324.98 26.1121 1325.92 26.2337 Q1326.85 26.3147 1327.98 26.5172 L1328.02 34.1734 Z" fill="#000000" fill-rule="nonzero" fill-opacity="1" /><path clip-path="url(#clip470)" d="M1356.46 49.7694 Q1347.43 49.7694 1343.94 51.8354 Q1340.46 53.9013 1340.46 58.8839 Q1340.46 62.8538 1343.05 65.2034 Q1345.68 67.5124 1350.18 67.5124 Q1356.38 67.5124 1360.1 63.1374 Q1363.87 58.7219 1363.87 51.4303 L1363.87 49.7694 L1356.46 49.7694 M1371.33 46.6907 L1371.33 72.576 L1363.87 72.576 L1363.87 65.6895 Q1361.32 69.8214 1357.51 71.8063 Q1353.7 73.7508 1348.2 73.7508 Q1341.23 73.7508 1337.1 69.8619 Q1333 65.9325 1333 59.3701 Q1333 51.7138 1338.11 47.825 Q1343.25 43.9361 1353.42 43.9361 L1363.87 43.9361 L1363.87 43.2069 Q1363.87 38.0623 1360.47 35.2672 Q1357.11 32.4315 1350.99 32.4315 Q1347.1 32.4315 1343.42 33.3632 Q1339.73 34.295 1336.33 36.1584 L1336.33 29.2718 Q1340.42 27.692 1344.27 26.9223 Q1348.11 26.1121 1351.76 26.1121 Q1361.6 26.1121 1366.46 31.2163 Q1371.33 36.3204 1371.33 46.6907 Z" fill="#000000" fill-rule="nonzero" fill-opacity="1" /><path clip-path="url(#clip470)" d="M1386.68 27.2059 L1394.13 27.2059 L1394.13 72.576 L1386.68 72.576 L1386.68 27.2059 M1386.68 9.54393 L1394.13 9.54393 L1394.13 18.9825 L1386.68 18.9825 L1386.68 9.54393 Z" fill="#000000" fill-rule="nonzero" fill-opacity="1" /><path clip-path="url(#clip470)" d="M1447.44 45.1919 L1447.44 72.576 L1439.99 72.576 L1439.99 45.4349 Q1439.99 38.994 1437.48 35.7938 Q1434.97 32.5936 1429.94 32.5936 Q1423.91 32.5936 1420.42 36.4419 Q1416.94 40.2903 1416.94 46.9338 L1416.94 72.576 L1409.44 72.576 L1409.44 27.2059 L1416.94 27.2059 L1416.94 34.2544 Q1419.61 30.163 1423.22 28.1376 Q1426.86 26.1121 1431.6 26.1121 Q1439.42 26.1121 1443.43 30.9732 Q1447.44 35.7938 1447.44 45.1919 Z" fill="#000000" fill-rule="nonzero" fill-opacity="1" /><path clip-path="url(#clip470)" d="M1462.31 27.2059 L1469.76 27.2059 L1469.76 72.576 L1462.31 72.576 L1462.31 27.2059 M1462.31 9.54393 L1469.76 9.54393 L1469.76 18.9825 L1462.31 18.9825 L1462.31 9.54393 Z" fill="#000000" fill-rule="nonzero" fill-opacity="1" /><path clip-path="url(#clip470)" d="M1523.07 45.1919 L1523.07 72.576 L1515.62 72.576 L1515.62 45.4349 Q1515.62 38.994 1513.11 35.7938 Q1510.6 32.5936 1505.57 32.5936 Q1499.54 32.5936 1496.05 36.4419 Q1492.57 40.2903 1492.57 46.9338 L1492.57 72.576 L1485.08 72.576 L1485.08 27.2059 L1492.57 27.2059 L1492.57 34.2544 Q1495.24 30.163 1498.85 28.1376 Q1502.49 26.1121 1507.23 26.1121 Q1515.05 26.1121 1519.06 30.9732 Q1523.07 35.7938 1523.07 45.1919 Z" fill="#000000" fill-rule="nonzero" fill-opacity="1" /><path clip-path="url(#clip470)" d="M1567.79 49.3643 Q1567.79 41.2625 1564.43 36.8065 Q1561.11 32.3505 1555.07 32.3505 Q1549.08 32.3505 1545.72 36.8065 Q1542.4 41.2625 1542.4 49.3643 Q1542.4 57.4256 1545.72 61.8816 Q1549.08 66.3376 1555.07 66.3376 Q1561.11 66.3376 1564.43 61.8816 Q1567.79 57.4256 1567.79 49.3643 M1575.25 66.9452 Q1575.25 78.5308 1570.1 84.1616 Q1564.96 89.8329 1554.35 89.8329 Q1550.42 89.8329 1546.93 89.2252 Q1543.45 88.6581 1540.17 87.4428 L1540.17 80.1917 Q1543.45 81.9741 1546.65 82.8248 Q1549.85 83.6755 1553.17 83.6755 Q1560.5 83.6755 1564.15 79.8271 Q1567.79 76.0193 1567.79 68.282 L1567.79 64.5957 Q1565.49 68.6061 1561.88 70.5911 Q1558.27 72.576 1553.25 72.576 Q1544.91 72.576 1539.8 66.2161 Q1534.7 59.8562 1534.7 49.3643 Q1534.7 38.832 1539.8 32.472 Q1544.91 26.1121 1553.25 26.1121 Q1558.27 26.1121 1561.88 28.0971 Q1565.49 30.082 1567.79 34.0924 L1567.79 27.2059 L1575.25 27.2059 L1575.25 66.9452 Z" fill="#000000" fill-rule="nonzero" fill-opacity="1" /><circle clip-path="url(#clip471)" cx="231.08" cy="159.156" r="21.6" fill="#009af9" fill-rule="evenodd" fill-opacity="1" stroke="none"/>
<circle clip-path="url(#clip471)" cx="252.099" cy="1080.86" r="21.6" fill="#009af9" fill-rule="evenodd" fill-opacity="1" stroke="none"/>
<circle clip-path="url(#clip471)" cx="273.118" cy="1318.12" r="21.6" fill="#009af9" fill-rule="evenodd" fill-opacity="1" stroke="none"/>
<circle clip-path="url(#clip471)" cx="294.137" cy="1340.36" r="21.6" fill="#009af9" fill-rule="evenodd" fill-opacity="1" stroke="none"/>
<circle clip-path="url(#clip471)" cx="315.156" cy="1343.97" r="21.6" fill="#009af9" fill-rule="evenodd" fill-opacity="1" stroke="none"/>
<circle clip-path="url(#clip471)" cx="336.176" cy="1347.53" r="21.6" fill="#009af9" fill-rule="evenodd" fill-opacity="1" stroke="none"/>
<circle clip-path="url(#clip471)" cx="357.195" cy="1348.52" r="21.6" fill="#009af9" fill-rule="evenodd" fill-opacity="1" stroke="none"/>
<circle clip-path="url(#clip471)" cx="378.214" cy="1348.52" r="21.6" fill="#009af9" fill-rule="evenodd" fill-opacity="1" stroke="none"/>
<circle clip-path="url(#clip471)" cx="399.233" cy="1348.58" r="21.6" fill="#009af9" fill-rule="evenodd" fill-opacity="1" stroke="none"/>
<circle clip-path="url(#clip471)" cx="420.252" cy="1348.61" r="21.6" fill="#009af9" fill-rule="evenodd" fill-opacity="1" stroke="none"/>
<circle clip-path="url(#clip471)" cx="441.272" cy="1348.61" r="21.6" fill="#009af9" fill-rule="evenodd" fill-opacity="1" stroke="none"/>
<circle clip-path="url(#clip471)" cx="462.291" cy="1348.61" r="21.6" fill="#009af9" fill-rule="evenodd" fill-opacity="1" stroke="none"/>
<circle clip-path="url(#clip471)" cx="483.31" cy="1348.62" r="21.6" fill="#009af9" fill-rule="evenodd" fill-opacity="1" stroke="none"/>
<circle clip-path="url(#clip471)" cx="504.329" cy="1348.62" r="21.6" fill="#009af9" fill-rule="evenodd" fill-opacity="1" stroke="none"/>
<circle clip-path="url(#clip471)" cx="525.348" cy="1348.62" r="21.6" fill="#009af9" fill-rule="evenodd" fill-opacity="1" stroke="none"/>
<circle clip-path="url(#clip471)" cx="546.367" cy="1348.62" r="21.6" fill="#009af9" fill-rule="evenodd" fill-opacity="1" stroke="none"/>
<circle clip-path="url(#clip471)" cx="567.387" cy="1348.62" r="21.6" fill="#009af9" fill-rule="evenodd" fill-opacity="1" stroke="none"/>
<circle clip-path="url(#clip471)" cx="588.406" cy="1348.62" r="21.6" fill="#009af9" fill-rule="evenodd" fill-opacity="1" stroke="none"/>
<circle clip-path="url(#clip471)" cx="609.425" cy="1348.62" r="21.6" fill="#009af9" fill-rule="evenodd" fill-opacity="1" stroke="none"/>
<circle clip-path="url(#clip471)" cx="630.444" cy="1348.62" r="21.6" fill="#009af9" fill-rule="evenodd" fill-opacity="1" stroke="none"/>
<circle clip-path="url(#clip471)" cx="651.463" cy="1348.62" r="21.6" fill="#009af9" fill-rule="evenodd" fill-opacity="1" stroke="none"/>
<circle clip-path="url(#clip471)" cx="672.483" cy="1348.62" r="21.6" fill="#009af9" fill-rule="evenodd" fill-opacity="1" stroke="none"/>
<circle clip-path="url(#clip471)" cx="693.502" cy="1348.62" r="21.6" fill="#009af9" fill-rule="evenodd" fill-opacity="1" stroke="none"/>
<circle clip-path="url(#clip471)" cx="714.521" cy="1348.62" r="21.6" fill="#009af9" fill-rule="evenodd" fill-opacity="1" stroke="none"/>
<circle clip-path="url(#clip471)" cx="735.54" cy="1348.62" r="21.6" fill="#009af9" fill-rule="evenodd" fill-opacity="1" stroke="none"/>
<circle clip-path="url(#clip471)" cx="756.559" cy="1348.62" r="21.6" fill="#009af9" fill-rule="evenodd" fill-opacity="1" stroke="none"/>
<circle clip-path="url(#clip471)" cx="777.578" cy="1348.62" r="21.6" fill="#009af9" fill-rule="evenodd" fill-opacity="1" stroke="none"/>
<circle clip-path="url(#clip471)" cx="798.598" cy="1348.62" r="21.6" fill="#009af9" fill-rule="evenodd" fill-opacity="1" stroke="none"/>
<circle clip-path="url(#clip471)" cx="819.617" cy="1348.62" r="21.6" fill="#009af9" fill-rule="evenodd" fill-opacity="1" stroke="none"/>
<circle clip-path="url(#clip471)" cx="840.636" cy="1348.62" r="21.6" fill="#009af9" fill-rule="evenodd" fill-opacity="1" stroke="none"/>
<circle clip-path="url(#clip471)" cx="861.655" cy="1348.62" r="21.6" fill="#009af9" fill-rule="evenodd" fill-opacity="1" stroke="none"/>
<circle clip-path="url(#clip471)" cx="882.674" cy="1348.62" r="21.6" fill="#009af9" fill-rule="evenodd" fill-opacity="1" stroke="none"/>
<circle clip-path="url(#clip471)" cx="903.694" cy="1348.62" r="21.6" fill="#009af9" fill-rule="evenodd" fill-opacity="1" stroke="none"/>
<circle clip-path="url(#clip471)" cx="924.713" cy="1348.62" r="21.6" fill="#009af9" fill-rule="evenodd" fill-opacity="1" stroke="none"/>
<circle clip-path="url(#clip471)" cx="945.732" cy="1348.62" r="21.6" fill="#009af9" fill-rule="evenodd" fill-opacity="1" stroke="none"/>
<circle clip-path="url(#clip471)" cx="966.751" cy="1348.62" r="21.6" fill="#009af9" fill-rule="evenodd" fill-opacity="1" stroke="none"/>
<circle clip-path="url(#clip471)" cx="987.77" cy="1348.62" r="21.6" fill="#009af9" fill-rule="evenodd" fill-opacity="1" stroke="none"/>
<circle clip-path="url(#clip471)" cx="1008.79" cy="1348.62" r="21.6" fill="#009af9" fill-rule="evenodd" fill-opacity="1" stroke="none"/>
<circle clip-path="url(#clip471)" cx="1029.81" cy="1348.62" r="21.6" fill="#009af9" fill-rule="evenodd" fill-opacity="1" stroke="none"/>
<circle clip-path="url(#clip471)" cx="1050.83" cy="1348.62" r="21.6" fill="#009af9" fill-rule="evenodd" fill-opacity="1" stroke="none"/>
<circle clip-path="url(#clip471)" cx="1071.85" cy="1348.62" r="21.6" fill="#009af9" fill-rule="evenodd" fill-opacity="1" stroke="none"/>
<circle clip-path="url(#clip471)" cx="1092.87" cy="1348.62" r="21.6" fill="#009af9" fill-rule="evenodd" fill-opacity="1" stroke="none"/>
<circle clip-path="url(#clip471)" cx="1113.89" cy="1348.62" r="21.6" fill="#009af9" fill-rule="evenodd" fill-opacity="1" stroke="none"/>
<circle clip-path="url(#clip471)" cx="1134.9" cy="1348.62" r="21.6" fill="#009af9" fill-rule="evenodd" fill-opacity="1" stroke="none"/>
<circle clip-path="url(#clip471)" cx="1155.92" cy="1348.62" r="21.6" fill="#009af9" fill-rule="evenodd" fill-opacity="1" stroke="none"/>
<circle clip-path="url(#clip471)" cx="1176.94" cy="1348.62" r="21.6" fill="#009af9" fill-rule="evenodd" fill-opacity="1" stroke="none"/>
<circle clip-path="url(#clip471)" cx="1197.96" cy="1348.62" r="21.6" fill="#009af9" fill-rule="evenodd" fill-opacity="1" stroke="none"/>
<circle clip-path="url(#clip471)" cx="1218.98" cy="1348.62" r="21.6" fill="#009af9" fill-rule="evenodd" fill-opacity="1" stroke="none"/>
<circle clip-path="url(#clip471)" cx="1240" cy="1348.62" r="21.6" fill="#009af9" fill-rule="evenodd" fill-opacity="1" stroke="none"/>
<circle clip-path="url(#clip471)" cx="1261.02" cy="1348.62" r="21.6" fill="#009af9" fill-rule="evenodd" fill-opacity="1" stroke="none"/>
<circle clip-path="url(#clip471)" cx="1282.04" cy="1348.62" r="21.6" fill="#009af9" fill-rule="evenodd" fill-opacity="1" stroke="none"/>
<circle clip-path="url(#clip471)" cx="1303.06" cy="1348.62" r="21.6" fill="#009af9" fill-rule="evenodd" fill-opacity="1" stroke="none"/>
<circle clip-path="url(#clip471)" cx="1324.08" cy="1348.62" r="21.6" fill="#009af9" fill-rule="evenodd" fill-opacity="1" stroke="none"/>
<circle clip-path="url(#clip471)" cx="1345.1" cy="1348.62" r="21.6" fill="#009af9" fill-rule="evenodd" fill-opacity="1" stroke="none"/>
<circle clip-path="url(#clip471)" cx="1366.12" cy="1348.62" r="21.6" fill="#009af9" fill-rule="evenodd" fill-opacity="1" stroke="none"/>
<circle clip-path="url(#clip471)" cx="1387.13" cy="1348.62" r="21.6" fill="#009af9" fill-rule="evenodd" fill-opacity="1" stroke="none"/>
<circle clip-path="url(#clip471)" cx="1408.15" cy="1348.62" r="21.6" fill="#009af9" fill-rule="evenodd" fill-opacity="1" stroke="none"/>
<circle clip-path="url(#clip471)" cx="1429.17" cy="1348.62" r="21.6" fill="#009af9" fill-rule="evenodd" fill-opacity="1" stroke="none"/>
<circle clip-path="url(#clip471)" cx="1450.19" cy="1348.62" r="21.6" fill="#009af9" fill-rule="evenodd" fill-opacity="1" stroke="none"/>
<circle clip-path="url(#clip471)" cx="1471.21" cy="1348.62" r="21.6" fill="#009af9" fill-rule="evenodd" fill-opacity="1" stroke="none"/>
<circle clip-path="url(#clip471)" cx="1492.23" cy="1348.62" r="21.6" fill="#009af9" fill-rule="evenodd" fill-opacity="1" stroke="none"/>
<circle clip-path="url(#clip471)" cx="1513.25" cy="1348.62" r="21.6" fill="#009af9" fill-rule="evenodd" fill-opacity="1" stroke="none"/>
<circle clip-path="url(#clip471)" cx="1534.27" cy="1348.62" r="21.6" fill="#009af9" fill-rule="evenodd" fill-opacity="1" stroke="none"/>
<circle clip-path="url(#clip471)" cx="1555.29" cy="1348.62" r="21.6" fill="#009af9" fill-rule="evenodd" fill-opacity="1" stroke="none"/>
<circle clip-path="url(#clip471)" cx="1576.31" cy="1348.62" r="21.6" fill="#009af9" fill-rule="evenodd" fill-opacity="1" stroke="none"/>
<circle clip-path="url(#clip471)" cx="1597.33" cy="1348.62" r="21.6" fill="#009af9" fill-rule="evenodd" fill-opacity="1" stroke="none"/>
<circle clip-path="url(#clip471)" cx="1618.35" cy="1348.62" r="21.6" fill="#009af9" fill-rule="evenodd" fill-opacity="1" stroke="none"/>
<circle clip-path="url(#clip471)" cx="1639.36" cy="1348.62" r="21.6" fill="#009af9" fill-rule="evenodd" fill-opacity="1" stroke="none"/>
<circle clip-path="url(#clip471)" cx="1660.38" cy="1348.62" r="21.6" fill="#009af9" fill-rule="evenodd" fill-opacity="1" stroke="none"/>
<circle clip-path="url(#clip471)" cx="1681.4" cy="1348.62" r="21.6" fill="#009af9" fill-rule="evenodd" fill-opacity="1" stroke="none"/>
<circle clip-path="url(#clip471)" cx="1702.42" cy="1348.62" r="21.6" fill="#009af9" fill-rule="evenodd" fill-opacity="1" stroke="none"/>
<circle clip-path="url(#clip471)" cx="1723.44" cy="1348.62" r="21.6" fill="#009af9" fill-rule="evenodd" fill-opacity="1" stroke="none"/>
<circle clip-path="url(#clip471)" cx="1744.46" cy="1348.62" r="21.6" fill="#009af9" fill-rule="evenodd" fill-opacity="1" stroke="none"/>
<circle clip-path="url(#clip471)" cx="1765.48" cy="1348.62" r="21.6" fill="#009af9" fill-rule="evenodd" fill-opacity="1" stroke="none"/>
<circle clip-path="url(#clip471)" cx="1786.5" cy="1348.62" r="21.6" fill="#009af9" fill-rule="evenodd" fill-opacity="1" stroke="none"/>
<circle clip-path="url(#clip471)" cx="1807.52" cy="1348.62" r="21.6" fill="#009af9" fill-rule="evenodd" fill-opacity="1" stroke="none"/>
<circle clip-path="url(#clip471)" cx="1828.54" cy="1348.62" r="21.6" fill="#009af9" fill-rule="evenodd" fill-opacity="1" stroke="none"/>
<circle clip-path="url(#clip471)" cx="1849.56" cy="1348.62" r="21.6" fill="#009af9" fill-rule="evenodd" fill-opacity="1" stroke="none"/>
<circle clip-path="url(#clip471)" cx="1870.58" cy="1348.62" r="21.6" fill="#009af9" fill-rule="evenodd" fill-opacity="1" stroke="none"/>
<circle clip-path="url(#clip471)" cx="1891.6" cy="1348.62" r="21.6" fill="#009af9" fill-rule="evenodd" fill-opacity="1" stroke="none"/>
<circle clip-path="url(#clip471)" cx="1912.61" cy="1348.62" r="21.6" fill="#009af9" fill-rule="evenodd" fill-opacity="1" stroke="none"/>
<circle clip-path="url(#clip471)" cx="1933.63" cy="1348.62" r="21.6" fill="#009af9" fill-rule="evenodd" fill-opacity="1" stroke="none"/>
<circle clip-path="url(#clip471)" cx="1954.65" cy="1348.62" r="21.6" fill="#009af9" fill-rule="evenodd" fill-opacity="1" stroke="none"/>
<circle clip-path="url(#clip471)" cx="1975.67" cy="1348.62" r="21.6" fill="#009af9" fill-rule="evenodd" fill-opacity="1" stroke="none"/>
<circle clip-path="url(#clip471)" cx="1996.69" cy="1348.62" r="21.6" fill="#009af9" fill-rule="evenodd" fill-opacity="1" stroke="none"/>
<circle clip-path="url(#clip471)" cx="2017.71" cy="1348.62" r="21.6" fill="#009af9" fill-rule="evenodd" fill-opacity="1" stroke="none"/>
<circle clip-path="url(#clip471)" cx="2038.73" cy="1348.62" r="21.6" fill="#009af9" fill-rule="evenodd" fill-opacity="1" stroke="none"/>
<circle clip-path="url(#clip471)" cx="2059.75" cy="1348.62" r="21.6" fill="#009af9" fill-rule="evenodd" fill-opacity="1" stroke="none"/>
<circle clip-path="url(#clip471)" cx="2080.77" cy="1348.62" r="21.6" fill="#009af9" fill-rule="evenodd" fill-opacity="1" stroke="none"/>
<circle clip-path="url(#clip471)" cx="2101.79" cy="1348.62" r="21.6" fill="#009af9" fill-rule="evenodd" fill-opacity="1" stroke="none"/>
<circle clip-path="url(#clip471)" cx="2122.81" cy="1348.62" r="21.6" fill="#009af9" fill-rule="evenodd" fill-opacity="1" stroke="none"/>
<circle clip-path="url(#clip471)" cx="2143.83" cy="1348.62" r="21.6" fill="#009af9" fill-rule="evenodd" fill-opacity="1" stroke="none"/>
<circle clip-path="url(#clip471)" cx="2164.84" cy="1348.62" r="21.6" fill="#009af9" fill-rule="evenodd" fill-opacity="1" stroke="none"/>
<circle clip-path="url(#clip471)" cx="2185.86" cy="1348.62" r="21.6" fill="#009af9" fill-rule="evenodd" fill-opacity="1" stroke="none"/>
<circle clip-path="url(#clip471)" cx="2206.88" cy="1348.62" r="21.6" fill="#009af9" fill-rule="evenodd" fill-opacity="1" stroke="none"/>
<circle clip-path="url(#clip471)" cx="2227.9" cy="1348.62" r="21.6" fill="#009af9" fill-rule="evenodd" fill-opacity="1" stroke="none"/>
<circle clip-path="url(#clip471)" cx="2248.92" cy="1348.62" r="21.6" fill="#009af9" fill-rule="evenodd" fill-opacity="1" stroke="none"/>
<circle clip-path="url(#clip471)" cx="2269.94" cy="1348.62" r="21.6" fill="#009af9" fill-rule="evenodd" fill-opacity="1" stroke="none"/>
<circle clip-path="url(#clip471)" cx="2290.96" cy="1348.62" r="21.6" fill="#009af9" fill-rule="evenodd" fill-opacity="1" stroke="none"/>
</svg>
