<?xml version="1.0" encoding="utf-8"?>
<svg xmlns="http://www.w3.org/2000/svg" xmlns:xlink="http://www.w3.org/1999/xlink" width="600" height="400" viewBox="0 0 2400 1600">
<defs>
  <clipPath id="clip140">
    <rect x="0" y="0" width="2400" height="1600"/>
  </clipPath>
</defs>
<path clip-path="url(#clip140)" d="M0 1600 L2400 1600 L2400 0 L0 0  Z" fill="#ffffff" fill-rule="evenodd" fill-opacity="1"/>
<defs>
  <clipPath id="clip141">
    <rect x="353" y="47" width="2000" height="1303"/>
  </clipPath>
</defs>
<path clip-path="url(#clip140)" d="M353.399 1349.74 L2352.76 1349.74 L2352.76 47.2441 L353.399 47.2441  Z" fill="#ffffff" fill-rule="evenodd" fill-opacity="1"/>
<polyline clip-path="url(#clip141)" style="stroke:#000000; stroke-linecap:round; stroke-linejoin:round; stroke-width:2; stroke-opacity:0.1; fill:none" points="371.491,1349.74 371.491,47.2441 "/>
<polyline clip-path="url(#clip141)" style="stroke:#000000; stroke-linecap:round; stroke-linejoin:round; stroke-width:2; stroke-opacity:0.1; fill:none" points="448.478,1349.74 448.478,47.2441 "/>
<polyline clip-path="url(#clip141)" style="stroke:#000000; stroke-linecap:round; stroke-linejoin:round; stroke-width:2; stroke-opacity:0.1; fill:none" points="563.959,1349.74 563.959,47.2441 "/>
<polyline clip-path="url(#clip141)" style="stroke:#000000; stroke-linecap:round; stroke-linejoin:round; stroke-width:2; stroke-opacity:0.1; fill:none" points="2296.17,1349.74 2296.17,47.2441 "/>
<polyline clip-path="url(#clip141)" style="stroke:#000000; stroke-linecap:round; stroke-linejoin:round; stroke-width:2; stroke-opacity:0.1; fill:none" points="353.399,1312.88 2352.76,1312.88 "/>
<polyline clip-path="url(#clip141)" style="stroke:#000000; stroke-linecap:round; stroke-linejoin:round; stroke-width:2; stroke-opacity:0.1; fill:none" points="353.399,1067.12 2352.76,1067.12 "/>
<polyline clip-path="url(#clip141)" style="stroke:#000000; stroke-linecap:round; stroke-linejoin:round; stroke-width:2; stroke-opacity:0.1; fill:none" points="353.399,821.369 2352.76,821.369 "/>
<polyline clip-path="url(#clip141)" style="stroke:#000000; stroke-linecap:round; stroke-linejoin:round; stroke-width:2; stroke-opacity:0.1; fill:none" points="353.399,575.615 2352.76,575.615 "/>
<polyline clip-path="url(#clip141)" style="stroke:#000000; stroke-linecap:round; stroke-linejoin:round; stroke-width:2; stroke-opacity:0.1; fill:none" points="353.399,329.861 2352.76,329.861 "/>
<polyline clip-path="url(#clip141)" style="stroke:#000000; stroke-linecap:round; stroke-linejoin:round; stroke-width:2; stroke-opacity:0.1; fill:none" points="353.399,84.1072 2352.76,84.1072 "/>
<polyline clip-path="url(#clip140)" style="stroke:#000000; stroke-linecap:round; stroke-linejoin:round; stroke-width:4; stroke-opacity:1; fill:none" points="353.399,1349.74 2352.76,1349.74 "/>
<polyline clip-path="url(#clip140)" style="stroke:#000000; stroke-linecap:round; stroke-linejoin:round; stroke-width:4; stroke-opacity:1; fill:none" points="371.491,1349.74 371.491,1330.84 "/>
<polyline clip-path="url(#clip140)" style="stroke:#000000; stroke-linecap:round; stroke-linejoin:round; stroke-width:4; stroke-opacity:1; fill:none" points="448.478,1349.74 448.478,1330.84 "/>
<polyline clip-path="url(#clip140)" style="stroke:#000000; stroke-linecap:round; stroke-linejoin:round; stroke-width:4; stroke-opacity:1; fill:none" points="563.959,1349.74 563.959,1330.84 "/>
<polyline clip-path="url(#clip140)" style="stroke:#000000; stroke-linecap:round; stroke-linejoin:round; stroke-width:4; stroke-opacity:1; fill:none" points="2296.17,1349.74 2296.17,1330.84 "/>
<path clip-path="url(#clip140)" d="M371.491 1392.38 Q364.268 1392.38 360.611 1399.51 Q357 1406.59 357 1420.85 Q357 1435.06 360.611 1442.19 Q364.268 1449.28 371.491 1449.28 Q378.759 1449.28 382.37 1442.19 Q386.027 1435.06 386.027 1420.85 Q386.027 1406.59 382.37 1399.51 Q378.759 1392.38 371.491 1392.38 M371.491 1384.97 Q383.111 1384.97 389.222 1394.18 Q395.379 1403.35 395.379 1420.85 Q395.379 1438.3 389.222 1447.52 Q383.111 1456.68 371.491 1456.68 Q359.87 1456.68 353.713 1447.52 Q347.602 1438.3 347.602 1420.85 Q347.602 1403.35 353.713 1394.18 Q359.87 1384.97 371.491 1384.97 Z" fill="#000000" fill-rule="nonzero" fill-opacity="1" /><path clip-path="url(#clip140)" d="M437.783 1447.47 L470.422 1447.47 L470.422 1455.34 L426.533 1455.34 L426.533 1447.47 Q431.857 1441.96 441.024 1432.7 Q450.237 1423.4 452.598 1420.71 Q457.089 1415.66 458.848 1412.19 Q460.654 1408.67 460.654 1405.29 Q460.654 1399.78 456.765 1396.31 Q452.922 1392.84 446.718 1392.84 Q442.32 1392.84 437.413 1394.37 Q432.552 1395.9 426.996 1399 L426.996 1389.55 Q432.644 1387.28 437.552 1386.13 Q442.459 1384.97 446.533 1384.97 Q457.274 1384.97 463.663 1390.34 Q470.052 1395.71 470.052 1404.69 Q470.052 1408.95 468.431 1412.79 Q466.857 1416.59 462.644 1421.78 Q461.487 1423.12 455.283 1429.55 Q449.08 1435.94 437.783 1447.47 Z" fill="#000000" fill-rule="nonzero" fill-opacity="1" /><path clip-path="url(#clip140)" d="M544.514 1386.22 L581.227 1386.22 L581.227 1394.09 L553.079 1394.09 L553.079 1411.03 Q555.116 1410.34 557.153 1410.02 Q559.19 1409.65 561.227 1409.65 Q572.801 1409.65 579.56 1415.99 Q586.319 1422.33 586.319 1433.16 Q586.319 1444.32 579.375 1450.53 Q572.431 1456.68 559.792 1456.68 Q555.44 1456.68 550.903 1455.94 Q546.412 1455.2 541.598 1453.72 L541.598 1444.32 Q545.764 1446.59 550.209 1447.7 Q554.653 1448.81 559.607 1448.81 Q567.616 1448.81 572.292 1444.6 Q576.968 1440.39 576.968 1433.16 Q576.968 1425.94 572.292 1421.73 Q567.616 1417.52 559.607 1417.52 Q555.857 1417.52 552.107 1418.35 Q548.403 1419.18 544.514 1420.94 L544.514 1386.22 Z" fill="#000000" fill-rule="nonzero" fill-opacity="1" /><path clip-path="url(#clip140)" d="M2245.57 1386.22 L2282.28 1386.22 L2282.28 1394.09 L2254.13 1394.09 L2254.13 1411.03 Q2256.17 1410.34 2258.21 1410.02 Q2260.24 1409.65 2262.28 1409.65 Q2273.86 1409.65 2280.61 1415.99 Q2287.37 1422.33 2287.37 1433.16 Q2287.37 1444.32 2280.43 1450.53 Q2273.49 1456.68 2260.85 1456.68 Q2256.49 1456.68 2251.96 1455.94 Q2247.47 1455.2 2242.65 1453.72 L2242.65 1444.32 Q2246.82 1446.59 2251.26 1447.7 Q2255.71 1448.81 2260.66 1448.81 Q2268.67 1448.81 2273.35 1444.6 Q2278.02 1440.39 2278.02 1433.16 Q2278.02 1425.94 2273.35 1421.73 Q2268.67 1417.52 2260.66 1417.52 Q2256.91 1417.52 2253.16 1418.35 Q2249.46 1419.18 2245.57 1420.94 L2245.57 1386.22 Z" fill="#000000" fill-rule="nonzero" fill-opacity="1" /><path clip-path="url(#clip140)" d="M2325.8 1392.38 Q2318.58 1392.38 2314.92 1399.51 Q2311.31 1406.59 2311.31 1420.85 Q2311.31 1435.06 2314.92 1442.19 Q2318.58 1449.28 2325.8 1449.28 Q2333.07 1449.28 2336.68 1442.19 Q2340.34 1435.06 2340.34 1420.85 Q2340.34 1406.59 2336.68 1399.51 Q2333.07 1392.38 2325.8 1392.38 M2325.8 1384.97 Q2337.42 1384.97 2343.53 1394.18 Q2349.69 1403.35 2349.69 1420.85 Q2349.69 1438.3 2343.53 1447.52 Q2337.42 1456.68 2325.8 1456.68 Q2314.18 1456.68 2308.02 1447.52 Q2301.91 1438.3 2301.91 1420.85 Q2301.91 1403.35 2308.02 1394.18 Q2314.18 1384.97 2325.8 1384.97 Z" fill="#000000" fill-rule="nonzero" fill-opacity="1" /><path clip-path="url(#clip140)" d="M1404.74 1501.26 Q1404.74 1502.02 1404.56 1502.55 Q1404.39 1503.01 1403.98 1503.25 Q1403.57 1503.48 1403.33 1503.54 Q1403.1 1503.6 1402.57 1503.66 Q1400.06 1503.89 1398.3 1504.3 Q1396.6 1504.71 1392.38 1506.82 Q1388.23 1508.93 1383.02 1512.73 L1362.05 1528.95 L1358.54 1531.71 Q1358.54 1531.88 1358.66 1532.23 Q1358.77 1532.53 1358.89 1532.94 Q1359.07 1533.29 1359.12 1533.4 L1376.16 1572.7 Q1377.51 1575.86 1379.15 1576.97 Q1380.79 1578.08 1384.48 1578.14 Q1385.06 1578.14 1385.3 1578.2 Q1385.59 1578.2 1386 1578.32 Q1386.47 1578.38 1386.65 1578.67 Q1386.88 1578.96 1386.88 1579.43 Q1386.88 1581.83 1384.71 1581.83 Q1383.37 1581.83 1378.8 1581.65 Q1374.23 1581.48 1372.94 1581.48 Q1370.54 1581.48 1365.62 1581.65 Q1360.71 1581.83 1358.3 1581.83 Q1356.61 1581.83 1356.61 1580.48 Q1356.61 1579.37 1357.02 1578.84 Q1357.48 1578.26 1357.89 1578.2 Q1358.3 1578.14 1359.24 1578.14 Q1359.94 1578.14 1360.71 1578.08 Q1361.53 1577.97 1362.7 1577.67 Q1363.93 1577.32 1364.69 1576.5 Q1365.51 1575.62 1365.51 1574.39 Q1365.51 1573.4 1364.04 1570.18 L1350.17 1537.91 L1332.31 1551.85 L1327.5 1570.7 Q1327.39 1571.41 1327.09 1572.64 Q1326.8 1573.87 1326.57 1574.74 Q1326.39 1575.62 1326.39 1575.97 Q1326.39 1576.74 1326.86 1577.2 Q1327.39 1577.67 1328.68 1577.91 Q1329.96 1578.08 1330.96 1578.14 Q1332.01 1578.14 1334.18 1578.14 Q1336.87 1578.14 1337.34 1578.61 Q1337.58 1578.9 1337.58 1579.43 Q1337.58 1580.25 1337.34 1580.83 Q1337.11 1581.36 1336.64 1581.54 Q1336.23 1581.71 1335.94 1581.77 Q1335.64 1581.83 1335.18 1581.83 Q1333.95 1581.83 1331.31 1581.71 Q1328.73 1581.6 1327.39 1581.6 L1319.72 1581.48 L1304.49 1581.83 Q1302.68 1581.83 1302.68 1580.37 Q1302.68 1579.25 1303.14 1578.79 Q1303.61 1578.26 1304.14 1578.2 Q1304.67 1578.14 1306.01 1578.14 Q1308.94 1578.14 1310.7 1577.97 Q1312.46 1577.79 1313.57 1577.56 Q1314.74 1577.26 1315.32 1576.44 Q1315.97 1575.62 1316.26 1574.92 Q1316.55 1574.16 1316.96 1572.46 L1333.01 1508.05 Q1333.48 1506.12 1333.48 1505.82 Q1333.48 1504.83 1332.89 1504.48 Q1332.36 1504.07 1330.84 1503.89 Q1327.91 1503.66 1325.69 1503.66 Q1324.23 1503.66 1323.64 1503.6 Q1323.11 1503.54 1322.64 1503.25 Q1322.23 1502.9 1322.23 1502.19 Q1322.23 1499.91 1324.63 1499.91 L1340.09 1500.26 L1355.44 1499.91 Q1357.13 1499.91 1357.13 1501.26 Q1357.13 1502.96 1356.31 1503.31 Q1355.55 1503.66 1353.03 1503.66 Q1348.64 1503.66 1346.65 1504.24 Q1344.72 1504.77 1344.13 1505.71 Q1343.61 1506.59 1342.96 1509.16 L1333.36 1547.63 L1380.15 1511.68 Q1384.48 1508.05 1384.48 1506.18 Q1384.48 1504.95 1383.6 1504.42 Q1382.78 1503.83 1380.73 1503.66 Q1379.27 1503.42 1379.27 1502.31 Q1379.27 1501.2 1379.68 1500.67 Q1380.15 1500.09 1380.5 1500.03 Q1380.91 1499.91 1381.55 1499.91 Q1383.72 1499.91 1388.23 1500.09 Q1392.74 1500.26 1394.9 1500.26 Q1396.37 1500.26 1399.24 1500.09 Q1402.1 1499.91 1403.39 1499.91 Q1404.04 1499.91 1404.39 1500.38 Q1404.74 1500.79 1404.74 1501.26 Z" fill="#000000" fill-rule="nonzero" fill-opacity="1" /><polyline clip-path="url(#clip140)" style="stroke:#000000; stroke-linecap:round; stroke-linejoin:round; stroke-width:4; stroke-opacity:1; fill:none" points="353.399,1349.74 353.399,47.2441 "/>
<polyline clip-path="url(#clip140)" style="stroke:#000000; stroke-linecap:round; stroke-linejoin:round; stroke-width:4; stroke-opacity:1; fill:none" points="353.399,1312.88 372.296,1312.88 "/>
<polyline clip-path="url(#clip140)" style="stroke:#000000; stroke-linecap:round; stroke-linejoin:round; stroke-width:4; stroke-opacity:1; fill:none" points="353.399,1067.12 372.296,1067.12 "/>
<polyline clip-path="url(#clip140)" style="stroke:#000000; stroke-linecap:round; stroke-linejoin:round; stroke-width:4; stroke-opacity:1; fill:none" points="353.399,821.369 372.296,821.369 "/>
<polyline clip-path="url(#clip140)" style="stroke:#000000; stroke-linecap:round; stroke-linejoin:round; stroke-width:4; stroke-opacity:1; fill:none" points="353.399,575.615 372.296,575.615 "/>
<polyline clip-path="url(#clip140)" style="stroke:#000000; stroke-linecap:round; stroke-linejoin:round; stroke-width:4; stroke-opacity:1; fill:none" points="353.399,329.861 372.296,329.861 "/>
<polyline clip-path="url(#clip140)" style="stroke:#000000; stroke-linecap:round; stroke-linejoin:round; stroke-width:4; stroke-opacity:1; fill:none" points="353.399,84.1072 372.296,84.1072 "/>
<path clip-path="url(#clip140)" d="M293.51 1284.47 Q286.288 1284.47 282.63 1291.6 Q279.019 1298.69 279.019 1312.95 Q279.019 1327.16 282.63 1334.29 Q286.288 1341.37 293.51 1341.37 Q300.778 1341.37 304.389 1334.29 Q308.047 1327.16 308.047 1312.95 Q308.047 1298.69 304.389 1291.6 Q300.778 1284.47 293.51 1284.47 M293.51 1277.07 Q305.13 1277.07 311.241 1286.28 Q317.399 1295.45 317.399 1312.95 Q317.399 1330.4 311.241 1339.61 Q305.13 1348.78 293.51 1348.78 Q281.889 1348.78 275.732 1339.61 Q269.621 1330.4 269.621 1312.95 Q269.621 1295.45 275.732 1286.28 Q281.889 1277.07 293.51 1277.07 Z" fill="#000000" fill-rule="nonzero" fill-opacity="1" /><path clip-path="url(#clip140)" d="M221.242 1093.81 L253.88 1093.81 L253.88 1101.68 L209.992 1101.68 L209.992 1093.81 Q215.316 1088.3 224.482 1079.04 Q233.695 1069.74 236.056 1067.05 Q240.547 1062.01 242.306 1058.53 Q244.112 1055.02 244.112 1051.64 Q244.112 1046.13 240.223 1042.66 Q236.38 1039.18 230.177 1039.18 Q225.779 1039.18 220.871 1040.71 Q216.01 1042.24 210.455 1045.34 L210.455 1035.9 Q216.103 1033.63 221.01 1032.47 Q225.918 1031.31 229.992 1031.31 Q240.732 1031.31 247.121 1036.68 Q253.51 1042.05 253.51 1051.03 Q253.51 1055.29 251.89 1059.14 Q250.316 1062.93 246.103 1068.12 Q244.945 1069.46 238.742 1075.9 Q232.538 1082.28 221.242 1093.81 Z" fill="#000000" fill-rule="nonzero" fill-opacity="1" /><path clip-path="url(#clip140)" d="M293.51 1038.72 Q286.288 1038.72 282.63 1045.85 Q279.019 1052.93 279.019 1067.19 Q279.019 1081.41 282.63 1088.53 Q286.288 1095.62 293.51 1095.62 Q300.778 1095.62 304.389 1088.53 Q308.047 1081.41 308.047 1067.19 Q308.047 1052.93 304.389 1045.85 Q300.778 1038.72 293.51 1038.72 M293.51 1031.31 Q305.13 1031.31 311.241 1040.53 Q317.399 1049.69 317.399 1067.19 Q317.399 1084.65 311.241 1093.86 Q305.13 1103.03 293.51 1103.03 Q281.889 1103.03 275.732 1093.86 Q269.621 1084.65 269.621 1067.19 Q269.621 1049.69 275.732 1040.53 Q281.889 1031.31 293.51 1031.31 Z" fill="#000000" fill-rule="nonzero" fill-opacity="1" /><path clip-path="url(#clip140)" d="M238.88 794.957 L215.269 831.855 L238.88 831.855 L238.88 794.957 M236.427 786.809 L248.186 786.809 L248.186 831.855 L258.047 831.855 L258.047 839.633 L248.186 839.633 L248.186 855.929 L238.88 855.929 L238.88 839.633 L207.677 839.633 L207.677 830.605 L236.427 786.809 Z" fill="#000000" fill-rule="nonzero" fill-opacity="1" /><path clip-path="url(#clip140)" d="M293.51 792.966 Q286.288 792.966 282.63 800.096 Q279.019 807.179 279.019 821.438 Q279.019 835.651 282.63 842.781 Q286.288 849.864 293.51 849.864 Q300.778 849.864 304.389 842.781 Q308.047 835.651 308.047 821.438 Q308.047 807.179 304.389 800.096 Q300.778 792.966 293.51 792.966 M293.51 785.559 Q305.13 785.559 311.241 794.772 Q317.399 803.938 317.399 821.438 Q317.399 838.892 311.241 848.105 Q305.13 857.272 293.51 857.272 Q281.889 857.272 275.732 848.105 Q269.621 838.892 269.621 821.438 Q269.621 803.938 275.732 794.772 Q281.889 785.559 293.51 785.559 Z" fill="#000000" fill-rule="nonzero" fill-opacity="1" /><path clip-path="url(#clip140)" d="M234.343 571.888 Q228.047 571.888 224.343 576.194 Q220.686 580.499 220.686 587.999 Q220.686 595.453 224.343 599.805 Q228.047 604.11 234.343 604.11 Q240.64 604.11 244.297 599.805 Q248.001 595.453 248.001 587.999 Q248.001 580.499 244.297 576.194 Q240.64 571.888 234.343 571.888 M252.908 542.583 L252.908 551.101 Q249.39 549.435 245.779 548.555 Q242.214 547.675 238.695 547.675 Q229.436 547.675 224.529 553.925 Q219.668 560.175 218.973 572.814 Q221.705 568.786 225.825 566.657 Q229.945 564.481 234.899 564.481 Q245.316 564.481 251.334 570.823 Q257.399 577.12 257.399 587.999 Q257.399 598.647 251.103 605.082 Q244.806 611.518 234.343 611.518 Q222.353 611.518 216.01 602.351 Q209.668 593.138 209.668 575.684 Q209.668 559.296 217.445 549.573 Q225.223 539.805 238.325 539.805 Q241.843 539.805 245.408 540.499 Q249.019 541.194 252.908 542.583 Z" fill="#000000" fill-rule="nonzero" fill-opacity="1" /><path clip-path="url(#clip140)" d="M293.51 547.212 Q286.288 547.212 282.63 554.342 Q279.019 561.425 279.019 575.684 Q279.019 589.897 282.63 597.027 Q286.288 604.11 293.51 604.11 Q300.778 604.11 304.389 597.027 Q308.047 589.897 308.047 575.684 Q308.047 561.425 304.389 554.342 Q300.778 547.212 293.51 547.212 M293.51 539.805 Q305.13 539.805 311.241 549.018 Q317.399 558.185 317.399 575.684 Q317.399 593.138 311.241 602.351 Q305.13 611.518 293.51 611.518 Q281.889 611.518 275.732 602.351 Q269.621 593.138 269.621 575.684 Q269.621 558.185 275.732 549.018 Q281.889 539.805 293.51 539.805 Z" fill="#000000" fill-rule="nonzero" fill-opacity="1" /><path clip-path="url(#clip140)" d="M233.186 331.597 Q226.519 331.597 222.677 335.162 Q218.881 338.727 218.881 344.977 Q218.881 351.227 222.677 354.792 Q226.519 358.356 233.186 358.356 Q239.853 358.356 243.695 354.792 Q247.538 351.18 247.538 344.977 Q247.538 338.727 243.695 335.162 Q239.899 331.597 233.186 331.597 M223.834 327.616 Q217.816 326.134 214.436 322.014 Q211.103 317.894 211.103 311.968 Q211.103 303.681 216.982 298.866 Q222.908 294.051 233.186 294.051 Q243.51 294.051 249.39 298.866 Q255.269 303.681 255.269 311.968 Q255.269 317.894 251.89 322.014 Q248.556 326.134 242.584 327.616 Q249.343 329.19 253.093 333.773 Q256.89 338.356 256.89 344.977 Q256.89 355.023 250.732 360.393 Q244.621 365.764 233.186 365.764 Q221.751 365.764 215.594 360.393 Q209.482 355.023 209.482 344.977 Q209.482 338.356 213.279 333.773 Q217.075 329.19 223.834 327.616 M220.408 312.847 Q220.408 318.218 223.742 321.227 Q227.121 324.236 233.186 324.236 Q239.205 324.236 242.584 321.227 Q246.01 318.218 246.01 312.847 Q246.01 307.477 242.584 304.468 Q239.205 301.458 233.186 301.458 Q227.121 301.458 223.742 304.468 Q220.408 307.477 220.408 312.847 Z" fill="#000000" fill-rule="nonzero" fill-opacity="1" /><path clip-path="url(#clip140)" d="M293.51 301.458 Q286.288 301.458 282.63 308.588 Q279.019 315.671 279.019 329.931 Q279.019 344.143 282.63 351.273 Q286.288 358.356 293.51 358.356 Q300.778 358.356 304.389 351.273 Q308.047 344.143 308.047 329.931 Q308.047 315.671 304.389 308.588 Q300.778 301.458 293.51 301.458 M293.51 294.051 Q305.13 294.051 311.241 303.264 Q317.399 312.431 317.399 329.931 Q317.399 347.384 311.241 356.597 Q305.13 365.764 293.51 365.764 Q281.889 365.764 275.732 356.597 Q269.621 347.384 269.621 329.931 Q269.621 312.431 275.732 303.264 Q281.889 294.051 293.51 294.051 Z" fill="#000000" fill-rule="nonzero" fill-opacity="1" /><path clip-path="url(#clip140)" d="M154.483 110.797 L169.76 110.797 L169.76 58.0657 L153.14 61.399 L153.14 52.8805 L169.668 49.5472 L179.02 49.5472 L179.02 110.797 L194.297 110.797 L194.297 118.667 L154.483 118.667 L154.483 110.797 Z" fill="#000000" fill-rule="nonzero" fill-opacity="1" /><path clip-path="url(#clip140)" d="M233.186 55.7046 Q225.964 55.7046 222.306 62.8341 Q218.695 69.9174 218.695 84.1766 Q218.695 98.3895 222.306 105.519 Q225.964 112.602 233.186 112.602 Q240.455 112.602 244.066 105.519 Q247.723 98.3895 247.723 84.1766 Q247.723 69.9174 244.066 62.8341 Q240.455 55.7046 233.186 55.7046 M233.186 48.2972 Q244.806 48.2972 250.917 57.5101 Q257.075 66.6767 257.075 84.1766 Q257.075 101.63 250.917 110.843 Q244.806 120.01 233.186 120.01 Q221.566 120.01 215.408 110.843 Q209.297 101.63 209.297 84.1766 Q209.297 66.6767 215.408 57.5101 Q221.566 48.2972 233.186 48.2972 Z" fill="#000000" fill-rule="nonzero" fill-opacity="1" /><path clip-path="url(#clip140)" d="M293.51 55.7046 Q286.288 55.7046 282.63 62.8341 Q279.019 69.9174 279.019 84.1766 Q279.019 98.3895 282.63 105.519 Q286.288 112.602 293.51 112.602 Q300.778 112.602 304.389 105.519 Q308.047 98.3895 308.047 84.1766 Q308.047 69.9174 304.389 62.8341 Q300.778 55.7046 293.51 55.7046 M293.51 48.2972 Q305.13 48.2972 311.241 57.5101 Q317.399 66.6767 317.399 84.1766 Q317.399 101.63 311.241 110.843 Q305.13 120.01 293.51 120.01 Q281.889 120.01 275.732 110.843 Q269.621 101.63 269.621 84.1766 Q269.621 66.6767 275.732 57.5101 Q281.889 48.2972 293.51 48.2972 Z" fill="#000000" fill-rule="nonzero" fill-opacity="1" /><path clip-path="url(#clip140)" d="M4.82016 976.268 L36.938 976.268 L36.938 986.106 L4.82016 986.106 L4.82016 976.268 Z" fill="#000000" fill-rule="nonzero" fill-opacity="1" /><path clip-path="url(#clip140)" d="M4.82016 953.294 L4.82016 898.665 L14.6581 898.665 L14.6581 941.604 L40.2366 941.604 L40.2366 900.458 L50.0745 900.458 L50.0745 941.604 L81.3822 941.604 L81.3822 897.623 L91.2202 897.623 L91.2202 953.294 L4.82016 953.294 Z" fill="#000000" fill-rule="nonzero" fill-opacity="1" /><path clip-path="url(#clip140)" d="M36.3593 841.315 Q35.3177 843.109 34.8547 845.25 Q34.3339 847.334 34.3339 849.88 Q34.3339 858.908 40.2366 863.769 Q46.0815 868.572 57.0768 868.572 L91.2202 868.572 L91.2202 879.278 L26.4057 879.278 L26.4057 868.572 L36.4751 868.572 Q30.5723 865.216 27.7367 859.834 Q24.8432 854.452 24.8432 846.755 Q24.8432 845.656 25.0168 844.325 Q25.1325 842.994 25.4219 841.373 L36.3593 841.315 Z" fill="#000000" fill-rule="nonzero" fill-opacity="1" /><path clip-path="url(#clip140)" d="M36.3593 794.672 Q35.3177 796.466 34.8547 798.607 Q34.3339 800.69 34.3339 803.237 Q34.3339 812.265 40.2366 817.126 Q46.0815 821.929 57.0768 821.929 L91.2202 821.929 L91.2202 832.635 L26.4057 832.635 L26.4057 821.929 L36.4751 821.929 Q30.5723 818.572 27.7367 813.19 Q24.8432 807.809 24.8432 800.112 Q24.8432 799.012 25.0168 797.681 Q25.1325 796.35 25.4219 794.73 L36.3593 794.672 Z" fill="#000000" fill-rule="nonzero" fill-opacity="1" /><path clip-path="url(#clip140)" d="M33.8709 760.992 Q33.8709 769.556 40.5839 774.533 Q47.2389 779.51 58.8708 779.51 Q70.5027 779.51 77.2156 774.591 Q83.8707 769.614 83.8707 760.992 Q83.8707 752.485 77.1577 747.508 Q70.4448 742.531 58.8708 742.531 Q47.3547 742.531 40.6417 747.508 Q33.8709 752.485 33.8709 760.992 M24.8432 760.992 Q24.8432 747.103 33.8709 739.175 Q42.8987 731.246 58.8708 731.246 Q74.7851 731.246 83.8707 739.175 Q92.8984 747.103 92.8984 760.992 Q92.8984 774.938 83.8707 782.867 Q74.7851 790.737 58.8708 790.737 Q42.8987 790.737 33.8709 782.867 Q24.8432 774.938 24.8432 760.992 Z" fill="#000000" fill-rule="nonzero" fill-opacity="1" /><path clip-path="url(#clip140)" d="M36.3593 676.038 Q35.3177 677.832 34.8547 679.974 Q34.3339 682.057 34.3339 684.603 Q34.3339 693.631 40.2366 698.492 Q46.0815 703.295 57.0768 703.295 L91.2202 703.295 L91.2202 714.001 L26.4057 714.001 L26.4057 703.295 L36.4751 703.295 Q30.5723 699.939 27.7367 694.557 Q24.8432 689.175 24.8432 681.478 Q24.8432 680.379 25.0168 679.048 Q25.1325 677.717 25.4219 676.096 L36.3593 676.038 Z" fill="#000000" fill-rule="nonzero" fill-opacity="1" /><path clip-path="url(#clip140)" d="M4.82016 654.8 L36.938 654.8 L36.938 664.638 L4.82016 664.638 L4.82016 654.8 Z" fill="#000000" fill-rule="nonzero" fill-opacity="1" /><path clip-path="url(#clip140)" d="M1.17434 595.599 L1.17434 571.062 L9.44976 571.062 L9.44976 584.951 L98.5697 584.951 L98.5697 571.062 L106.845 571.062 L106.845 595.599 L1.17434 595.599 Z" fill="#000000" fill-rule="nonzero" fill-opacity="1" /><path clip-path="url(#clip140)" d="M53.1995 473.377 Q53.1995 478.412 57.4819 481.306 Q61.7643 484.141 69.4031 484.141 Q76.9263 484.141 81.2665 481.306 Q85.5489 478.412 85.5489 473.377 Q85.5489 468.458 81.2665 465.623 Q76.9263 462.729 69.4031 462.729 Q61.8222 462.729 57.5398 465.623 Q53.1995 468.458 53.1995 473.377 M45.85 473.377 Q45.85 464.234 52.2157 458.852 Q58.5814 453.47 69.4031 453.47 Q80.2248 453.47 86.5906 458.91 Q92.8984 464.292 92.8984 473.377 Q92.8984 482.637 86.5906 488.019 Q80.2248 493.4 69.4031 493.4 Q58.5236 493.4 52.2157 488.019 Q45.85 482.579 45.85 473.377 M10.6072 533.099 Q10.6072 538.076 14.9474 540.97 Q19.2298 543.805 26.7529 543.805 Q34.3918 543.805 38.6741 540.97 Q42.9565 538.134 42.9565 533.099 Q42.9565 528.065 38.6741 525.229 Q34.3918 522.336 26.7529 522.336 Q19.2877 522.336 14.9474 525.229 Q10.6072 528.123 10.6072 533.099 M3.25767 480.843 L3.25767 471.583 L92.8984 525.634 L92.8984 534.893 L3.25767 480.843 M3.25767 533.099 Q3.25767 523.956 9.62337 518.516 Q15.9312 513.076 26.7529 513.076 Q37.6904 513.076 43.9982 518.516 Q50.306 523.898 50.306 533.099 Q50.306 542.301 43.9982 547.683 Q37.6325 553.007 26.7529 553.007 Q15.9891 553.007 9.62337 547.625 Q3.25767 542.243 3.25767 533.099 Z" fill="#000000" fill-rule="nonzero" fill-opacity="1" /><path clip-path="url(#clip140)" d="M1.17434 410.878 L106.845 410.878 L106.845 435.415 L98.5697 435.415 L98.5697 421.584 L9.44976 421.584 L9.44976 435.415 L1.17434 435.415 L1.17434 410.878 Z" fill="#000000" fill-rule="nonzero" fill-opacity="1" /><circle clip-path="url(#clip141)" cx="371.491" cy="84.1072" r="25.2" fill="#0000ff" fill-rule="evenodd" fill-opacity="1" stroke="none"/>
<circle clip-path="url(#clip141)" cx="409.984" cy="402.939" r="25.2" fill="#0000ff" fill-rule="evenodd" fill-opacity="1" stroke="none"/>
<circle clip-path="url(#clip141)" cx="448.478" cy="686.491" r="25.2" fill="#0000ff" fill-rule="evenodd" fill-opacity="1" stroke="none"/>
<circle clip-path="url(#clip141)" cx="486.971" cy="926.888" r="25.2" fill="#0000ff" fill-rule="evenodd" fill-opacity="1" stroke="none"/>
<circle clip-path="url(#clip141)" cx="525.465" cy="1106.85" r="25.2" fill="#0000ff" fill-rule="evenodd" fill-opacity="1" stroke="none"/>
<circle clip-path="url(#clip141)" cx="563.959" cy="1176.9" r="25.2" fill="#0000ff" fill-rule="evenodd" fill-opacity="1" stroke="none"/>
<circle clip-path="url(#clip141)" cx="602.452" cy="1156.77" r="25.2" fill="#0000ff" fill-rule="evenodd" fill-opacity="1" stroke="none"/>
<circle clip-path="url(#clip141)" cx="640.946" cy="1139.61" r="25.2" fill="#0000ff" fill-rule="evenodd" fill-opacity="1" stroke="none"/>
<circle clip-path="url(#clip141)" cx="679.439" cy="1125.08" r="25.2" fill="#0000ff" fill-rule="evenodd" fill-opacity="1" stroke="none"/>
<circle clip-path="url(#clip141)" cx="717.933" cy="1111.78" r="25.2" fill="#0000ff" fill-rule="evenodd" fill-opacity="1" stroke="none"/>
<circle clip-path="url(#clip141)" cx="756.426" cy="1099.8" r="25.2" fill="#0000ff" fill-rule="evenodd" fill-opacity="1" stroke="none"/>
<circle clip-path="url(#clip141)" cx="794.92" cy="1089.65" r="25.2" fill="#0000ff" fill-rule="evenodd" fill-opacity="1" stroke="none"/>
<circle clip-path="url(#clip141)" cx="833.414" cy="1080.32" r="25.2" fill="#0000ff" fill-rule="evenodd" fill-opacity="1" stroke="none"/>
<circle clip-path="url(#clip141)" cx="871.907" cy="1071.5" r="25.2" fill="#0000ff" fill-rule="evenodd" fill-opacity="1" stroke="none"/>
<circle clip-path="url(#clip141)" cx="910.401" cy="1063.7" r="25.2" fill="#0000ff" fill-rule="evenodd" fill-opacity="1" stroke="none"/>
<circle clip-path="url(#clip141)" cx="948.894" cy="1056.46" r="25.2" fill="#0000ff" fill-rule="evenodd" fill-opacity="1" stroke="none"/>
<circle clip-path="url(#clip141)" cx="987.388" cy="1049.51" r="25.2" fill="#0000ff" fill-rule="evenodd" fill-opacity="1" stroke="none"/>
<circle clip-path="url(#clip141)" cx="1025.88" cy="1043.16" r="25.2" fill="#0000ff" fill-rule="evenodd" fill-opacity="1" stroke="none"/>
<circle clip-path="url(#clip141)" cx="1064.38" cy="1037.05" r="25.2" fill="#0000ff" fill-rule="evenodd" fill-opacity="1" stroke="none"/>
<circle clip-path="url(#clip141)" cx="1102.87" cy="1031.44" r="25.2" fill="#0000ff" fill-rule="evenodd" fill-opacity="1" stroke="none"/>
<circle clip-path="url(#clip141)" cx="1141.36" cy="1026.11" r="25.2" fill="#0000ff" fill-rule="evenodd" fill-opacity="1" stroke="none"/>
<circle clip-path="url(#clip141)" cx="1179.86" cy="1021.19" r="25.2" fill="#0000ff" fill-rule="evenodd" fill-opacity="1" stroke="none"/>
<circle clip-path="url(#clip141)" cx="1218.35" cy="1016.63" r="25.2" fill="#0000ff" fill-rule="evenodd" fill-opacity="1" stroke="none"/>
<circle clip-path="url(#clip141)" cx="1256.84" cy="1012.41" r="25.2" fill="#0000ff" fill-rule="evenodd" fill-opacity="1" stroke="none"/>
<circle clip-path="url(#clip141)" cx="1295.34" cy="1008.39" r="25.2" fill="#0000ff" fill-rule="evenodd" fill-opacity="1" stroke="none"/>
<circle clip-path="url(#clip141)" cx="1333.83" cy="1004.63" r="25.2" fill="#0000ff" fill-rule="evenodd" fill-opacity="1" stroke="none"/>
<circle clip-path="url(#clip141)" cx="1372.32" cy="1001.28" r="25.2" fill="#0000ff" fill-rule="evenodd" fill-opacity="1" stroke="none"/>
<circle clip-path="url(#clip141)" cx="1410.82" cy="998.108" r="25.2" fill="#0000ff" fill-rule="evenodd" fill-opacity="1" stroke="none"/>
<circle clip-path="url(#clip141)" cx="1449.31" cy="995.156" r="25.2" fill="#0000ff" fill-rule="evenodd" fill-opacity="1" stroke="none"/>
<circle clip-path="url(#clip141)" cx="1487.8" cy="992.373" r="25.2" fill="#0000ff" fill-rule="evenodd" fill-opacity="1" stroke="none"/>
<circle clip-path="url(#clip141)" cx="1526.3" cy="989.684" r="25.2" fill="#0000ff" fill-rule="evenodd" fill-opacity="1" stroke="none"/>
<circle clip-path="url(#clip141)" cx="1564.79" cy="987.084" r="25.2" fill="#0000ff" fill-rule="evenodd" fill-opacity="1" stroke="none"/>
<circle clip-path="url(#clip141)" cx="1603.29" cy="984.684" r="25.2" fill="#0000ff" fill-rule="evenodd" fill-opacity="1" stroke="none"/>
<circle clip-path="url(#clip141)" cx="1641.78" cy="982.639" r="25.2" fill="#0000ff" fill-rule="evenodd" fill-opacity="1" stroke="none"/>
<circle clip-path="url(#clip141)" cx="1680.27" cy="980.649" r="25.2" fill="#0000ff" fill-rule="evenodd" fill-opacity="1" stroke="none"/>
<circle clip-path="url(#clip141)" cx="1718.77" cy="978.813" r="25.2" fill="#0000ff" fill-rule="evenodd" fill-opacity="1" stroke="none"/>
<circle clip-path="url(#clip141)" cx="1757.26" cy="977.152" r="25.2" fill="#0000ff" fill-rule="evenodd" fill-opacity="1" stroke="none"/>
<circle clip-path="url(#clip141)" cx="1795.75" cy="975.556" r="25.2" fill="#0000ff" fill-rule="evenodd" fill-opacity="1" stroke="none"/>
<circle clip-path="url(#clip141)" cx="1834.25" cy="974.091" r="25.2" fill="#0000ff" fill-rule="evenodd" fill-opacity="1" stroke="none"/>
<circle clip-path="url(#clip141)" cx="1872.74" cy="972.722" r="25.2" fill="#0000ff" fill-rule="evenodd" fill-opacity="1" stroke="none"/>
<circle clip-path="url(#clip141)" cx="1911.23" cy="971.449" r="25.2" fill="#0000ff" fill-rule="evenodd" fill-opacity="1" stroke="none"/>
<circle clip-path="url(#clip141)" cx="1949.73" cy="970.257" r="25.2" fill="#0000ff" fill-rule="evenodd" fill-opacity="1" stroke="none"/>
<circle clip-path="url(#clip141)" cx="1988.22" cy="969.25" r="25.2" fill="#0000ff" fill-rule="evenodd" fill-opacity="1" stroke="none"/>
<circle clip-path="url(#clip141)" cx="2026.72" cy="968.259" r="25.2" fill="#0000ff" fill-rule="evenodd" fill-opacity="1" stroke="none"/>
<circle clip-path="url(#clip141)" cx="2065.21" cy="967.335" r="25.2" fill="#0000ff" fill-rule="evenodd" fill-opacity="1" stroke="none"/>
<circle clip-path="url(#clip141)" cx="2103.7" cy="966.54" r="25.2" fill="#0000ff" fill-rule="evenodd" fill-opacity="1" stroke="none"/>
<circle clip-path="url(#clip141)" cx="2142.2" cy="965.842" r="25.2" fill="#0000ff" fill-rule="evenodd" fill-opacity="1" stroke="none"/>
<circle clip-path="url(#clip141)" cx="2180.69" cy="965.251" r="25.2" fill="#0000ff" fill-rule="evenodd" fill-opacity="1" stroke="none"/>
<circle clip-path="url(#clip141)" cx="2219.18" cy="964.738" r="25.2" fill="#0000ff" fill-rule="evenodd" fill-opacity="1" stroke="none"/>
<circle clip-path="url(#clip141)" cx="2257.68" cy="964.264" r="25.2" fill="#0000ff" fill-rule="evenodd" fill-opacity="1" stroke="none"/>
<circle clip-path="url(#clip141)" cx="2296.17" cy="963.821" r="25.2" fill="#0000ff" fill-rule="evenodd" fill-opacity="1" stroke="none"/>
<path clip-path="url(#clip141)" d="M371.491 56.1072 L343.491 84.1072 L371.491 112.107 L399.491 84.1072 L371.491 56.1072 Z" fill="#ff0000" fill-rule="evenodd" fill-opacity="1" stroke="none"/>
<path clip-path="url(#clip141)" d="M409.984 351.296 L381.984 379.296 L409.984 407.296 L437.984 379.296 L409.984 351.296 Z" fill="#ff0000" fill-rule="evenodd" fill-opacity="1" stroke="none"/>
<path clip-path="url(#clip141)" d="M448.478 609.277 L420.478 637.277 L448.478 665.277 L476.478 637.277 L448.478 609.277 Z" fill="#ff0000" fill-rule="evenodd" fill-opacity="1" stroke="none"/>
<path clip-path="url(#clip141)" d="M486.971 807.508 L458.971 835.508 L486.971 863.508 L514.971 835.508 L486.971 807.508 Z" fill="#ff0000" fill-rule="evenodd" fill-opacity="1" stroke="none"/>
<path clip-path="url(#clip141)" d="M525.465 928.609 L497.465 956.609 L525.465 984.609 L553.465 956.609 L525.465 928.609 Z" fill="#ff0000" fill-rule="evenodd" fill-opacity="1" stroke="none"/>
<path clip-path="url(#clip141)" d="M563.959 975.642 L535.959 1003.64 L563.959 1031.64 L591.959 1003.64 L563.959 975.642 Z" fill="#ff0000" fill-rule="evenodd" fill-opacity="1" stroke="none"/>
<path clip-path="url(#clip141)" d="M602.452 984.705 L574.452 1012.71 L602.452 1040.71 L630.452 1012.71 L602.452 984.705 Z" fill="#ff0000" fill-rule="evenodd" fill-opacity="1" stroke="none"/>
<path clip-path="url(#clip141)" d="M640.946 993.561 L612.946 1021.56 L640.946 1049.56 L668.946 1021.56 L640.946 993.561 Z" fill="#ff0000" fill-rule="evenodd" fill-opacity="1" stroke="none"/>
<path clip-path="url(#clip141)" d="M679.439 1002.02 L651.439 1030.02 L679.439 1058.02 L707.439 1030.02 L679.439 1002.02 Z" fill="#ff0000" fill-rule="evenodd" fill-opacity="1" stroke="none"/>
<path clip-path="url(#clip141)" d="M717.933 1010.6 L689.933 1038.6 L717.933 1066.6 L745.933 1038.6 L717.933 1010.6 Z" fill="#ff0000" fill-rule="evenodd" fill-opacity="1" stroke="none"/>
<path clip-path="url(#clip141)" d="M756.426 1019.14 L728.426 1047.14 L756.426 1075.14 L784.426 1047.14 L756.426 1019.14 Z" fill="#ff0000" fill-rule="evenodd" fill-opacity="1" stroke="none"/>
<path clip-path="url(#clip141)" d="M794.92 1026.98 L766.92 1054.98 L794.92 1082.98 L822.92 1054.98 L794.92 1026.98 Z" fill="#ff0000" fill-rule="evenodd" fill-opacity="1" stroke="none"/>
<path clip-path="url(#clip141)" d="M833.414 1034.71 L805.414 1062.71 L833.414 1090.71 L861.414 1062.71 L833.414 1034.71 Z" fill="#ff0000" fill-rule="evenodd" fill-opacity="1" stroke="none"/>
<path clip-path="url(#clip141)" d="M871.907 1042.54 L843.907 1070.54 L871.907 1098.54 L899.907 1070.54 L871.907 1042.54 Z" fill="#ff0000" fill-rule="evenodd" fill-opacity="1" stroke="none"/>
<path clip-path="url(#clip141)" d="M910.401 1049.91 L882.401 1077.91 L910.401 1105.91 L938.401 1077.91 L910.401 1049.91 Z" fill="#ff0000" fill-rule="evenodd" fill-opacity="1" stroke="none"/>
<path clip-path="url(#clip141)" d="M948.894 1057.28 L920.894 1085.28 L948.894 1113.28 L976.894 1085.28 L948.894 1057.28 Z" fill="#ff0000" fill-rule="evenodd" fill-opacity="1" stroke="none"/>
<path clip-path="url(#clip141)" d="M987.388 1064.75 L959.388 1092.75 L987.388 1120.75 L1015.39 1092.75 L987.388 1064.75 Z" fill="#ff0000" fill-rule="evenodd" fill-opacity="1" stroke="none"/>
<path clip-path="url(#clip141)" d="M1025.88 1071.98 L997.882 1099.98 L1025.88 1127.98 L1053.88 1099.98 L1025.88 1071.98 Z" fill="#ff0000" fill-rule="evenodd" fill-opacity="1" stroke="none"/>
<path clip-path="url(#clip141)" d="M1064.38 1079.24 L1036.38 1107.24 L1064.38 1135.24 L1092.38 1107.24 L1064.38 1079.24 Z" fill="#ff0000" fill-rule="evenodd" fill-opacity="1" stroke="none"/>
<path clip-path="url(#clip141)" d="M1102.87 1086.37 L1074.87 1114.37 L1102.87 1142.37 L1130.87 1114.37 L1102.87 1086.37 Z" fill="#ff0000" fill-rule="evenodd" fill-opacity="1" stroke="none"/>
<path clip-path="url(#clip141)" d="M1141.36 1093.51 L1113.36 1121.51 L1141.36 1149.51 L1169.36 1121.51 L1141.36 1093.51 Z" fill="#ff0000" fill-rule="evenodd" fill-opacity="1" stroke="none"/>
<path clip-path="url(#clip141)" d="M1179.86 1100.5 L1151.86 1128.5 L1179.86 1156.5 L1207.86 1128.5 L1179.86 1100.5 Z" fill="#ff0000" fill-rule="evenodd" fill-opacity="1" stroke="none"/>
<path clip-path="url(#clip141)" d="M1218.35 1107.34 L1190.35 1135.34 L1218.35 1163.34 L1246.35 1135.34 L1218.35 1107.34 Z" fill="#ff0000" fill-rule="evenodd" fill-opacity="1" stroke="none"/>
<path clip-path="url(#clip141)" d="M1256.84 1113.95 L1228.84 1141.95 L1256.84 1169.95 L1284.84 1141.95 L1256.84 1113.95 Z" fill="#ff0000" fill-rule="evenodd" fill-opacity="1" stroke="none"/>
<path clip-path="url(#clip141)" d="M1295.34 1120.61 L1267.34 1148.61 L1295.34 1176.61 L1323.34 1148.61 L1295.34 1120.61 Z" fill="#ff0000" fill-rule="evenodd" fill-opacity="1" stroke="none"/>
<path clip-path="url(#clip141)" d="M1333.83 1127.11 L1305.83 1155.11 L1333.83 1183.11 L1361.83 1155.11 L1333.83 1127.11 Z" fill="#ff0000" fill-rule="evenodd" fill-opacity="1" stroke="none"/>
<path clip-path="url(#clip141)" d="M1372.32 1133.28 L1344.32 1161.28 L1372.32 1189.28 L1400.32 1161.28 L1372.32 1133.28 Z" fill="#ff0000" fill-rule="evenodd" fill-opacity="1" stroke="none"/>
<path clip-path="url(#clip141)" d="M1410.82 1139.54 L1382.82 1167.54 L1410.82 1195.54 L1438.82 1167.54 L1410.82 1139.54 Z" fill="#ff0000" fill-rule="evenodd" fill-opacity="1" stroke="none"/>
<path clip-path="url(#clip141)" d="M1449.31 1145.61 L1421.31 1173.61 L1449.31 1201.61 L1477.31 1173.61 L1449.31 1145.61 Z" fill="#ff0000" fill-rule="evenodd" fill-opacity="1" stroke="none"/>
<path clip-path="url(#clip141)" d="M1487.8 1151.61 L1459.8 1179.61 L1487.8 1207.61 L1515.8 1179.61 L1487.8 1151.61 Z" fill="#ff0000" fill-rule="evenodd" fill-opacity="1" stroke="none"/>
<path clip-path="url(#clip141)" d="M1526.3 1157.79 L1498.3 1185.79 L1526.3 1213.79 L1554.3 1185.79 L1526.3 1157.79 Z" fill="#ff0000" fill-rule="evenodd" fill-opacity="1" stroke="none"/>
<path clip-path="url(#clip141)" d="M1564.79 1164.21 L1536.79 1192.21 L1564.79 1220.21 L1592.79 1192.21 L1564.79 1164.21 Z" fill="#ff0000" fill-rule="evenodd" fill-opacity="1" stroke="none"/>
<path clip-path="url(#clip141)" d="M1603.29 1170.38 L1575.29 1198.38 L1603.29 1226.38 L1631.29 1198.38 L1603.29 1170.38 Z" fill="#ff0000" fill-rule="evenodd" fill-opacity="1" stroke="none"/>
<path clip-path="url(#clip141)" d="M1641.78 1176 L1613.78 1204 L1641.78 1232 L1669.78 1204 L1641.78 1176 Z" fill="#ff0000" fill-rule="evenodd" fill-opacity="1" stroke="none"/>
<path clip-path="url(#clip141)" d="M1680.27 1181.71 L1652.27 1209.71 L1680.27 1237.71 L1708.27 1209.71 L1680.27 1181.71 Z" fill="#ff0000" fill-rule="evenodd" fill-opacity="1" stroke="none"/>
<path clip-path="url(#clip141)" d="M1718.77 1187.34 L1690.77 1215.34 L1718.77 1243.34 L1746.77 1215.34 L1718.77 1187.34 Z" fill="#ff0000" fill-rule="evenodd" fill-opacity="1" stroke="none"/>
<path clip-path="url(#clip141)" d="M1757.26 1192.8 L1729.26 1220.8 L1757.26 1248.8 L1785.26 1220.8 L1757.26 1192.8 Z" fill="#ff0000" fill-rule="evenodd" fill-opacity="1" stroke="none"/>
<path clip-path="url(#clip141)" d="M1795.75 1198.32 L1767.75 1226.32 L1795.75 1254.32 L1823.75 1226.32 L1795.75 1198.32 Z" fill="#ff0000" fill-rule="evenodd" fill-opacity="1" stroke="none"/>
<path clip-path="url(#clip141)" d="M1834.25 1203.75 L1806.25 1231.75 L1834.25 1259.75 L1862.25 1231.75 L1834.25 1203.75 Z" fill="#ff0000" fill-rule="evenodd" fill-opacity="1" stroke="none"/>
<path clip-path="url(#clip141)" d="M1872.74 1209.23 L1844.74 1237.23 L1872.74 1265.23 L1900.74 1237.23 L1872.74 1209.23 Z" fill="#ff0000" fill-rule="evenodd" fill-opacity="1" stroke="none"/>
<path clip-path="url(#clip141)" d="M1911.23 1214.88 L1883.23 1242.88 L1911.23 1270.88 L1939.23 1242.88 L1911.23 1214.88 Z" fill="#ff0000" fill-rule="evenodd" fill-opacity="1" stroke="none"/>
<path clip-path="url(#clip141)" d="M1949.73 1220.45 L1921.73 1248.45 L1949.73 1276.45 L1977.73 1248.45 L1949.73 1220.45 Z" fill="#ff0000" fill-rule="evenodd" fill-opacity="1" stroke="none"/>
<path clip-path="url(#clip141)" d="M1988.22 1225.66 L1960.22 1253.66 L1988.22 1281.66 L2016.22 1253.66 L1988.22 1225.66 Z" fill="#ff0000" fill-rule="evenodd" fill-opacity="1" stroke="none"/>
<path clip-path="url(#clip141)" d="M2026.72 1231.27 L1998.72 1259.27 L2026.72 1287.27 L2054.72 1259.27 L2026.72 1231.27 Z" fill="#ff0000" fill-rule="evenodd" fill-opacity="1" stroke="none"/>
<path clip-path="url(#clip141)" d="M2065.21 1237.01 L2037.21 1265.01 L2065.21 1293.01 L2093.21 1265.01 L2065.21 1237.01 Z" fill="#ff0000" fill-rule="evenodd" fill-opacity="1" stroke="none"/>
<path clip-path="url(#clip141)" d="M2103.7 1242.86 L2075.7 1270.86 L2103.7 1298.86 L2131.7 1270.86 L2103.7 1242.86 Z" fill="#ff0000" fill-rule="evenodd" fill-opacity="1" stroke="none"/>
<path clip-path="url(#clip141)" d="M2142.2 1248.52 L2114.2 1276.52 L2142.2 1304.52 L2170.2 1276.52 L2142.2 1248.52 Z" fill="#ff0000" fill-rule="evenodd" fill-opacity="1" stroke="none"/>
<path clip-path="url(#clip141)" d="M2180.69 1254.19 L2152.69 1282.19 L2180.69 1310.19 L2208.69 1282.19 L2180.69 1254.19 Z" fill="#ff0000" fill-rule="evenodd" fill-opacity="1" stroke="none"/>
<path clip-path="url(#clip141)" d="M2219.18 1260.25 L2191.18 1288.25 L2219.18 1316.25 L2247.18 1288.25 L2219.18 1260.25 Z" fill="#ff0000" fill-rule="evenodd" fill-opacity="1" stroke="none"/>
<path clip-path="url(#clip141)" d="M2257.68 1267.8 L2229.68 1295.8 L2257.68 1323.8 L2285.68 1295.8 L2257.68 1267.8 Z" fill="#ff0000" fill-rule="evenodd" fill-opacity="1" stroke="none"/>
<path clip-path="url(#clip141)" d="M2296.17 1284.88 L2268.17 1312.88 L2296.17 1340.88 L2324.17 1312.88 L2296.17 1284.88 Z" fill="#ff0000" fill-rule="evenodd" fill-opacity="1" stroke="none"/>
<path clip-path="url(#clip140)" d="M540.865 523.327 L2286.11 523.327 L2286.11 90.6606 L540.865 90.6606  Z" fill="#ffffff" fill-rule="evenodd" fill-opacity="1"/>
<polyline clip-path="url(#clip140)" style="stroke:#000000; stroke-linecap:round; stroke-linejoin:round; stroke-width:4; stroke-opacity:1; fill:none" points="540.865,523.327 2286.11,523.327 2286.11,90.6606 540.865,90.6606 540.865,523.327 "/>
<circle clip-path="url(#clip140)" cx="629.725" cy="234.883" r="45.696" fill="#0000ff" fill-rule="evenodd" fill-opacity="1" stroke="none"/>
<path clip-path="url(#clip140)" d="M718.586 253.011 L718.586 249.875 Q722.269 249.875 724.608 249.179 Q726.948 248.432 727.794 247.088 Q728.64 245.695 728.839 244.799 Q729.088 243.853 729.088 242.31 L729.088 189.103 Q729.088 187.66 728.69 187.311 Q728.341 186.963 726.599 186.764 Q723.563 186.565 721.522 186.565 L718.586 186.565 L718.586 183.379 L735.907 183.379 Q737.35 183.379 737.748 183.578 Q738.146 183.777 738.843 184.723 L774.829 237.631 L774.829 194.08 Q774.829 192.537 774.63 191.641 Q774.431 190.745 773.535 189.352 Q772.689 187.958 770.349 187.261 Q768.01 186.565 764.327 186.565 L764.327 183.379 Q775.028 183.678 776.223 183.678 Q777.467 183.678 788.168 183.379 L788.168 186.565 Q784.485 186.565 782.145 187.261 Q779.806 187.958 778.96 189.352 Q778.114 190.745 777.865 191.691 Q777.666 192.587 777.666 194.08 L777.666 250.373 Q777.666 252.016 777.467 252.513 Q777.268 253.011 776.272 253.011 Q775.575 253.011 774.53 251.667 L732.92 190.546 Q732.522 189.949 731.925 189.302 L731.925 242.31 Q731.925 243.853 732.124 244.799 Q732.323 245.695 733.169 247.088 Q734.065 248.432 736.404 249.179 Q738.744 249.875 742.427 249.875 L742.427 253.011 Q731.726 252.712 730.481 252.712 Q729.287 252.712 718.586 253.011 Z" fill="#000000" fill-rule="nonzero" fill-opacity="1" /><path clip-path="url(#clip140)" d="M805.317 253.011 L805.317 249.875 L807.755 249.875 Q813.28 249.875 814.525 248.979 Q815.819 248.034 815.819 245.047 L815.819 191.343 Q815.819 188.406 814.525 187.51 Q813.23 186.565 807.755 186.565 L805.317 186.565 L805.317 183.379 L837.32 183.379 Q848.42 183.379 856.135 188.854 Q863.899 194.279 863.899 201.745 Q863.899 207.469 858.872 211.949 Q853.845 216.428 846.08 218.369 Q856.184 221.853 858.524 230.165 L859.818 238.328 Q860.216 241.265 860.465 242.758 Q860.763 244.251 861.211 246.292 Q861.659 248.332 862.107 249.328 Q862.605 250.274 863.302 251.319 Q863.999 252.314 864.895 252.663 Q865.84 253.011 867.085 253.011 Q869.424 253.011 871.415 250.921 Q873.406 248.83 873.804 243.952 Q874.003 242.31 875.048 242.31 Q876.342 242.31 876.342 243.952 Q876.342 245.396 875.944 247.088 Q875.546 248.731 874.55 250.672 Q873.605 252.613 871.514 253.907 Q869.424 255.251 866.686 255.251 Q858.723 255.251 853.845 250.97 Q851.804 249.129 850.859 246.74 Q849.963 244.351 849.813 242.459 Q849.664 240.568 849.664 236.387 Q849.664 230.464 849.017 227.876 Q848.42 225.288 845.782 222.749 Q842.198 219.265 836.275 219.265 L824.579 219.265 L824.579 245.047 Q824.579 247.984 825.823 248.93 Q827.117 249.875 832.642 249.875 L835.081 249.875 L835.081 253.011 Q831.397 252.712 820.199 252.712 Q809 252.712 805.317 253.011 M824.579 217.025 L835.877 217.025 Q841.302 217.025 844.936 215.731 Q848.619 214.387 850.361 211.998 Q852.103 209.609 852.75 207.22 Q853.397 204.781 853.397 201.745 Q853.397 198.162 852.601 195.474 Q851.804 192.786 850.062 191.193 Q848.32 189.601 846.578 188.605 Q844.836 187.56 842.148 187.162 Q839.461 186.764 837.619 186.664 Q835.777 186.565 832.841 186.565 Q827.864 186.565 826.818 186.764 Q825.674 186.863 825.226 187.411 Q824.778 187.958 824.678 188.605 Q824.579 189.202 824.579 190.646 L824.579 217.025 Z" fill="#000000" fill-rule="nonzero" fill-opacity="1" /><path clip-path="url(#clip140)" d="M879.194 253.011 L879.194 249.875 Q882.877 249.875 885.216 249.179 Q887.556 248.432 888.402 247.088 Q889.298 245.695 889.497 244.799 Q889.696 243.853 889.696 242.31 L889.696 191.343 Q889.696 188.406 888.402 187.51 Q887.158 186.565 881.633 186.565 L879.194 186.565 L879.194 183.379 L896.415 183.379 Q898.257 183.379 898.755 183.727 Q899.252 184.026 899.999 185.619 L922.098 242.708 L944.396 185.32 Q944.894 183.877 945.342 183.628 Q945.84 183.379 947.781 183.379 L965.002 183.379 L965.002 186.565 L962.563 186.565 Q957.038 186.565 955.744 187.51 Q954.5 188.406 954.5 191.343 L954.5 245.047 Q954.5 247.984 955.744 248.93 Q957.038 249.875 962.563 249.875 L965.002 249.875 L965.002 253.011 Q961.219 252.712 950.419 252.712 Q939.518 252.712 935.736 253.011 L935.736 249.875 L938.224 249.875 Q943.749 249.875 944.993 248.979 Q946.238 248.034 946.238 245.047 L946.238 186.565 L946.138 186.565 L921.103 251.07 Q920.406 253.011 919.261 253.011 Q918.017 253.011 917.22 250.771 L892.633 187.361 L892.533 187.361 L892.533 242.31 Q892.533 243.853 892.732 244.799 Q892.931 245.695 893.777 247.088 Q894.673 248.432 897.013 249.179 Q899.352 249.875 903.035 249.875 L903.035 253.011 Q892.334 252.712 891.09 252.712 Q889.895 252.712 879.194 253.011 Z" fill="#000000" fill-rule="nonzero" fill-opacity="1" /><path clip-path="url(#clip140)" d="M981.411 252.812 L981.411 232.405 Q981.411 231.26 981.461 230.862 Q981.511 230.464 981.809 230.165 Q982.108 229.867 982.705 229.867 Q983.85 229.867 983.95 230.912 Q984.248 241.016 990.271 246.59 Q996.194 252.115 1006.35 252.115 Q1012.47 252.115 1016.25 247.735 Q1020.03 243.305 1020.03 237.532 Q1020.03 232.007 1016.85 228.125 Q1015.51 226.383 1013.81 225.288 Q1012.17 224.143 1011.13 223.795 Q1010.13 223.446 1008.19 222.948 Q995.547 219.912 994.75 219.564 Q988.728 217.523 985.045 212.397 Q981.411 207.22 981.411 200.899 Q981.411 192.736 987.135 186.963 Q992.909 181.139 1001.27 181.139 Q1005.45 181.139 1008.94 182.483 Q1012.47 183.777 1013.91 184.972 Q1015.36 186.166 1017.6 188.307 L1021.13 182.483 Q1021.93 181.139 1022.67 181.139 Q1023.47 181.139 1023.62 181.637 Q1023.82 182.085 1023.82 183.578 L1023.82 204.085 Q1023.82 205.229 1023.77 205.627 Q1023.72 206.026 1023.37 206.275 Q1023.07 206.523 1022.47 206.523 Q1021.48 206.523 1021.23 205.329 Q1018.39 184.026 1001.37 184.026 Q995.547 184.026 991.714 187.958 Q987.931 191.84 987.931 197.365 Q987.931 201.845 990.719 205.528 Q993.506 209.161 998.234 210.306 L1011.27 213.442 Q1017.8 214.985 1022.18 220.758 Q1026.56 226.532 1026.56 234.048 Q1026.56 242.708 1020.88 248.979 Q1015.26 255.251 1006.45 255.251 Q1000.13 255.251 995.248 253.16 Q990.37 251.07 987.732 248.133 Q985.692 251.518 984.348 253.409 L984.049 253.907 Q983.253 255.251 982.506 255.251 Q981.71 255.251 981.561 254.753 Q981.411 254.255 981.411 252.812 Z" fill="#000000" fill-rule="nonzero" fill-opacity="1" /><path clip-path="url(#clip140)" d="M1043.53 253.011 L1043.53 249.875 L1045.97 249.875 Q1051.49 249.875 1052.74 248.979 Q1054.03 248.034 1054.03 245.047 L1054.03 191.641 Q1054.03 188.705 1052.74 187.809 Q1051.44 186.863 1045.97 186.863 L1043.53 186.863 L1043.53 183.678 L1100.92 183.678 L1103.75 206.623 L1101.22 206.623 Q1100.52 200.8 1099.57 197.465 Q1098.68 194.08 1096.44 191.492 Q1094.25 188.904 1090.61 187.908 Q1087.03 186.863 1081.21 186.863 L1068.07 186.863 Q1064.58 186.863 1063.84 187.61 Q1063.09 188.307 1063.09 190.945 L1063.09 215.383 L1072.25 215.383 Q1079.27 215.383 1081.26 212.944 Q1083.25 210.505 1083.25 203.487 L1085.84 203.487 L1085.84 230.464 L1083.25 230.464 Q1083.25 223.546 1081.26 221.057 Q1079.27 218.568 1072.25 218.568 L1063.09 218.568 L1063.09 245.794 Q1063.09 248.432 1063.84 249.179 Q1064.63 249.875 1068.07 249.875 L1081.65 249.875 Q1086.03 249.875 1089.22 249.328 Q1092.46 248.731 1094.7 247.337 Q1096.93 245.894 1098.43 244.251 Q1099.97 242.609 1101.02 239.672 Q1102.11 236.686 1102.71 233.948 Q1103.36 231.211 1104.05 226.731 L1106.59 226.731 L1102.31 253.011 L1043.53 253.011 Z" fill="#000000" fill-rule="nonzero" fill-opacity="1" /><path clip-path="url(#clip140)" d="M1139.08 275.359 L1139.08 179.696 Q1139.08 176.66 1141.12 176.66 Q1143.16 176.66 1143.16 179.845 L1143.16 275.11 Q1143.16 278.395 1141.12 278.395 Q1139.08 278.395 1139.08 275.359 M1150.33 275.359 L1150.33 180.442 Q1150.33 176.66 1152.37 176.66 Q1154.41 176.66 1154.41 179.845 L1154.41 275.11 Q1154.41 278.395 1152.37 278.395 Q1150.33 278.395 1150.33 275.359 Z" fill="#000000" fill-rule="nonzero" fill-opacity="1" /><path clip-path="url(#clip140)" d="M1237.96 171.33 L1237.09 172.759 Q1231.69 170.424 1224.96 166.696 Q1218.24 170.424 1212.84 172.759 L1212 171.33 Q1217.89 166.209 1224.96 162.271 Q1232.1 166.243 1237.96 171.33 Z" fill="#000000" fill-rule="nonzero" fill-opacity="1" /><path clip-path="url(#clip140)" d="M1260.1 184.524 Q1260.1 185.42 1259.76 185.917 Q1259.46 186.365 1259.11 186.465 Q1258.76 186.515 1257.86 186.565 Q1250.75 186.913 1244.92 191.741 Q1243.48 192.985 1239.85 196.867 Q1236.26 200.75 1231.48 205.926 Q1226.76 211.102 1224.02 213.89 L1237.16 245.346 Q1237.71 246.59 1237.9 247.138 Q1238.15 247.636 1238.65 248.283 Q1239.2 248.93 1239.6 249.129 Q1240.05 249.328 1240.99 249.577 Q1241.99 249.776 1242.98 249.826 Q1244.03 249.826 1245.92 249.875 Q1246.52 249.875 1246.76 249.925 Q1247.06 249.925 1247.41 250.224 Q1247.76 250.473 1247.76 251.07 Q1247.76 251.966 1247.36 252.464 Q1247.01 252.912 1246.66 252.961 Q1246.37 253.011 1245.82 253.011 Q1244.52 253.011 1240.14 252.862 Q1235.76 252.712 1234.52 252.712 L1221.68 253.011 Q1220.14 253.011 1220.14 251.767 Q1220.14 251.12 1220.24 250.771 Q1220.38 250.373 1220.73 250.224 Q1221.08 250.025 1221.33 249.975 Q1221.58 249.925 1222.18 249.875 Q1224.02 249.676 1225.41 249.129 Q1226.86 248.532 1227.45 247.934 Q1228.1 247.337 1228.1 246.889 L1227.6 245.446 L1217.3 221.107 L1208.09 231.111 L1197.69 242.111 Q1194.95 245.047 1194.95 246.69 Q1194.95 249.427 1199.03 249.875 Q1200.28 249.975 1200.28 250.97 Q1200.28 251.916 1199.88 252.414 Q1199.53 252.862 1199.18 252.961 Q1198.88 253.011 1198.44 253.011 Q1196.59 253.011 1192.71 252.862 Q1188.88 252.712 1186.99 252.712 Q1185.39 252.712 1182.16 252.862 Q1178.92 253.011 1177.43 253.011 Q1176.83 253.011 1176.49 252.712 Q1176.14 252.414 1176.14 252.115 L1176.09 251.866 Q1176.09 251.169 1176.19 250.771 Q1176.34 250.373 1176.73 250.174 Q1177.18 249.975 1177.38 249.975 Q1177.58 249.925 1178.33 249.875 Q1182.56 249.627 1186.14 247.984 Q1189.77 246.342 1193.31 242.509 Q1193.61 242.26 1193.96 241.962 Q1194.35 241.663 1194.65 241.414 L1216.15 218.27 L1204.11 189.8 Q1203.56 188.506 1203.06 187.958 Q1202.57 187.361 1201.02 186.963 Q1199.48 186.565 1196.49 186.565 Q1195.65 186.565 1195.25 186.515 Q1194.85 186.465 1194.5 186.216 Q1194.15 185.967 1194.15 185.42 Q1194.15 184.474 1194.5 184.026 Q1194.9 183.528 1195.2 183.479 Q1195.55 183.379 1196 183.379 Q1197.24 183.379 1201.67 183.528 Q1206.1 183.678 1207.39 183.678 Q1209.53 183.678 1213.81 183.528 Q1218.15 183.379 1220.24 183.379 Q1221.78 183.379 1221.78 184.623 Q1221.78 185.42 1221.43 185.868 Q1221.08 186.316 1220.73 186.415 Q1220.38 186.515 1219.74 186.565 Q1217.8 186.764 1216.3 187.411 Q1214.86 188.008 1214.26 188.605 Q1213.72 189.153 1213.72 189.501 L1214.21 190.845 L1222.77 211.102 L1239.3 193.383 Q1241.24 191.193 1241.24 189.7 Q1241.24 187.012 1237.16 186.565 Q1235.91 186.365 1235.91 185.42 Q1235.91 184.474 1236.31 184.026 Q1236.71 183.528 1237.01 183.479 Q1237.36 183.379 1237.86 183.379 Q1239.7 183.379 1243.48 183.528 Q1247.31 183.678 1249.2 183.678 Q1250.8 183.678 1254.03 183.528 Q1257.27 183.379 1258.76 183.379 Q1259.36 183.379 1259.71 183.678 Q1260.05 183.927 1260.05 184.225 L1260.1 184.524 Z" fill="#000000" fill-rule="nonzero" fill-opacity="1" /><path clip-path="url(#clip140)" d="M1330.9 234.037 Q1330.9 234.49 1330.79 234.803 Q1330.69 235.082 1330.45 235.221 Q1330.2 235.361 1330.06 235.396 Q1329.92 235.431 1329.61 235.465 Q1328.11 235.605 1327.07 235.849 Q1326.06 236.093 1323.55 237.347 Q1321.07 238.601 1317.97 240.866 L1305.5 250.517 L1303.41 252.154 Q1303.41 252.259 1303.48 252.468 Q1303.55 252.642 1303.62 252.886 Q1303.72 253.095 1303.76 253.165 L1313.9 276.543 Q1314.7 278.424 1315.67 279.086 Q1316.65 279.748 1318.84 279.783 Q1319.19 279.783 1319.33 279.818 Q1319.51 279.818 1319.75 279.888 Q1320.03 279.922 1320.13 280.097 Q1320.27 280.271 1320.27 280.549 Q1320.27 281.978 1318.98 281.978 Q1318.18 281.978 1315.46 281.873 Q1312.75 281.769 1311.98 281.769 Q1310.55 281.769 1307.62 281.873 Q1304.7 281.978 1303.27 281.978 Q1302.26 281.978 1302.26 281.177 Q1302.26 280.515 1302.5 280.201 Q1302.78 279.853 1303.03 279.818 Q1303.27 279.783 1303.83 279.783 Q1304.24 279.783 1304.7 279.748 Q1305.19 279.678 1305.88 279.504 Q1306.61 279.295 1307.07 278.807 Q1307.55 278.285 1307.55 277.553 Q1307.55 276.961 1306.68 275.045 L1298.43 255.847 L1287.8 264.139 L1284.94 275.358 Q1284.87 275.776 1284.7 276.508 Q1284.52 277.24 1284.39 277.762 Q1284.28 278.285 1284.28 278.494 Q1284.28 278.947 1284.56 279.226 Q1284.87 279.504 1285.64 279.644 Q1286.41 279.748 1287 279.783 Q1287.63 279.783 1288.91 279.783 Q1290.52 279.783 1290.8 280.062 Q1290.94 280.236 1290.94 280.549 Q1290.94 281.037 1290.8 281.386 Q1290.66 281.699 1290.38 281.804 Q1290.13 281.908 1289.96 281.943 Q1289.79 281.978 1289.51 281.978 Q1288.78 281.978 1287.21 281.908 Q1285.67 281.839 1284.87 281.839 L1280.31 281.769 L1271.25 281.978 Q1270.17 281.978 1270.17 281.107 Q1270.17 280.445 1270.45 280.166 Q1270.73 279.853 1271.04 279.818 Q1271.35 279.783 1272.16 279.783 Q1273.9 279.783 1274.94 279.678 Q1275.99 279.574 1276.65 279.435 Q1277.35 279.26 1277.7 278.773 Q1278.08 278.285 1278.25 277.867 Q1278.43 277.414 1278.67 276.403 L1288.22 238.078 Q1288.5 236.929 1288.5 236.754 Q1288.5 236.162 1288.15 235.953 Q1287.83 235.709 1286.93 235.605 Q1285.19 235.465 1283.86 235.465 Q1282.99 235.465 1282.64 235.431 Q1282.33 235.396 1282.05 235.221 Q1281.81 235.012 1281.81 234.594 Q1281.81 233.236 1283.24 233.236 L1292.43 233.445 L1301.56 233.236 Q1302.57 233.236 1302.57 234.037 Q1302.57 235.047 1302.08 235.256 Q1301.63 235.465 1300.13 235.465 Q1297.52 235.465 1296.34 235.814 Q1295.19 236.127 1294.84 236.685 Q1294.52 237.207 1294.14 238.74 L1288.43 261.631 L1316.26 240.239 Q1318.84 238.078 1318.84 236.964 Q1318.84 236.232 1318.32 235.918 Q1317.83 235.57 1316.61 235.465 Q1315.74 235.326 1315.74 234.664 Q1315.74 234.002 1315.99 233.688 Q1316.26 233.34 1316.47 233.305 Q1316.72 233.236 1317.1 233.236 Q1318.39 233.236 1321.07 233.34 Q1323.76 233.445 1325.04 233.445 Q1325.92 233.445 1327.62 233.34 Q1329.33 233.236 1330.1 233.236 Q1330.48 233.236 1330.69 233.514 Q1330.9 233.758 1330.9 234.037 Z" fill="#000000" fill-rule="nonzero" fill-opacity="1" /><path clip-path="url(#clip140)" d="M1436.76 226.084 Q1437.35 226.681 1437.35 227.527 Q1437.35 228.374 1436.76 228.971 Q1436.16 229.568 1435.31 229.568 L1371.5 229.568 Q1370.66 229.568 1370.06 228.971 Q1369.46 228.374 1369.46 227.527 Q1369.46 226.681 1370.06 226.084 Q1370.66 225.487 1371.5 225.487 L1435.31 225.487 Q1436.16 225.487 1436.76 226.084 Z" fill="#000000" fill-rule="nonzero" fill-opacity="1" /><path clip-path="url(#clip140)" d="M1560.28 184.524 Q1560.28 185.42 1559.93 185.917 Q1559.64 186.365 1559.29 186.465 Q1558.94 186.515 1558.04 186.565 Q1550.93 186.913 1545.1 191.741 Q1543.66 192.985 1540.02 196.867 Q1536.44 200.75 1531.66 205.926 Q1526.93 211.102 1524.2 213.89 L1537.34 245.346 Q1537.88 246.59 1538.08 247.138 Q1538.33 247.636 1538.83 248.283 Q1539.38 248.93 1539.78 249.129 Q1540.22 249.328 1541.17 249.577 Q1542.17 249.776 1543.16 249.826 Q1544.21 249.826 1546.1 249.875 Q1546.69 249.875 1546.94 249.925 Q1547.24 249.925 1547.59 250.224 Q1547.94 250.473 1547.94 251.07 Q1547.94 251.966 1547.54 252.464 Q1547.19 252.912 1546.84 252.961 Q1546.55 253.011 1546 253.011 Q1544.7 253.011 1540.32 252.862 Q1535.94 252.712 1534.7 252.712 L1521.86 253.011 Q1520.31 253.011 1520.31 251.767 Q1520.31 251.12 1520.41 250.771 Q1520.56 250.373 1520.91 250.224 Q1521.26 250.025 1521.51 249.975 Q1521.76 249.925 1522.36 249.875 Q1524.2 249.676 1525.59 249.129 Q1527.03 248.532 1527.63 247.934 Q1528.28 247.337 1528.28 246.889 L1527.78 245.446 L1517.48 221.107 L1508.27 231.111 L1497.87 242.111 Q1495.13 245.047 1495.13 246.69 Q1495.13 249.427 1499.21 249.875 Q1500.46 249.975 1500.46 250.97 Q1500.46 251.916 1500.06 252.414 Q1499.71 252.862 1499.36 252.961 Q1499.06 253.011 1498.61 253.011 Q1496.77 253.011 1492.89 252.862 Q1489.06 252.712 1487.17 252.712 Q1485.57 252.712 1482.34 252.862 Q1479.1 253.011 1477.61 253.011 Q1477.01 253.011 1476.66 252.712 Q1476.32 252.414 1476.32 252.115 L1476.27 251.866 Q1476.27 251.169 1476.37 250.771 Q1476.51 250.373 1476.91 250.174 Q1477.36 249.975 1477.56 249.975 Q1477.76 249.925 1478.51 249.875 Q1482.74 249.627 1486.32 247.984 Q1489.95 246.342 1493.49 242.509 Q1493.79 242.26 1494.13 241.962 Q1494.53 241.663 1494.83 241.414 L1516.33 218.27 L1504.29 189.8 Q1503.74 188.506 1503.24 187.958 Q1502.75 187.361 1501.2 186.963 Q1499.66 186.565 1496.67 186.565 Q1495.83 186.565 1495.43 186.515 Q1495.03 186.465 1494.68 186.216 Q1494.33 185.967 1494.33 185.42 Q1494.33 184.474 1494.68 184.026 Q1495.08 183.528 1495.38 183.479 Q1495.73 183.379 1496.18 183.379 Q1497.42 183.379 1501.85 183.528 Q1506.28 183.678 1507.57 183.678 Q1509.71 183.678 1513.99 183.528 Q1518.32 183.379 1520.41 183.379 Q1521.96 183.379 1521.96 184.623 Q1521.96 185.42 1521.61 185.868 Q1521.26 186.316 1520.91 186.415 Q1520.56 186.515 1519.92 186.565 Q1517.98 186.764 1516.48 187.411 Q1515.04 188.008 1514.44 188.605 Q1513.89 189.153 1513.89 189.501 L1514.39 190.845 L1522.95 211.102 L1539.48 193.383 Q1541.42 191.193 1541.42 189.7 Q1541.42 187.012 1537.34 186.565 Q1536.09 186.365 1536.09 185.42 Q1536.09 184.474 1536.49 184.026 Q1536.89 183.528 1537.19 183.479 Q1537.54 183.379 1538.03 183.379 Q1539.88 183.379 1543.66 183.528 Q1547.49 183.678 1549.38 183.678 Q1550.97 183.678 1554.21 183.528 Q1557.45 183.379 1558.94 183.379 Q1559.54 183.379 1559.88 183.678 Q1560.23 183.927 1560.23 184.225 L1560.28 184.524 Z" fill="#000000" fill-rule="nonzero" fill-opacity="1" /><path clip-path="url(#clip140)" d="M1586.75 275.359 L1586.75 179.696 Q1586.75 176.66 1588.79 176.66 Q1590.83 176.66 1590.83 179.845 L1590.83 275.11 Q1590.83 278.395 1588.79 278.395 Q1586.75 278.395 1586.75 275.359 M1598 275.359 L1598 180.442 Q1598 176.66 1600.04 176.66 Q1602.08 176.66 1602.08 179.845 L1602.08 275.11 Q1602.08 278.395 1600.04 278.395 Q1598 278.395 1598 275.359 Z" fill="#000000" fill-rule="nonzero" fill-opacity="1" /><path clip-path="url(#clip140)" d="M1612.8 306.994 L1612.8 304.799 L1614.51 304.799 Q1618.38 304.799 1619.25 304.172 Q1620.15 303.51 1620.15 301.419 L1620.15 264.035 Q1620.15 261.979 1619.25 261.352 Q1618.34 260.69 1614.51 260.69 L1612.8 260.69 L1612.8 258.461 L1651.96 258.461 L1653.95 274.522 L1652.17 274.522 Q1651.68 270.446 1651.02 268.146 Q1650.4 265.812 1648.93 263.965 Q1647.47 262.119 1644.99 261.422 Q1642.56 260.69 1638.55 260.69 L1629.98 260.69 Q1627.54 260.69 1627.02 261.213 Q1626.49 261.701 1626.49 263.547 L1626.49 281.595 L1632.63 281.595 Q1637.47 281.595 1638.83 279.853 Q1640.19 278.111 1640.19 273.233 L1641.96 273.233 L1641.96 292.152 L1640.19 292.152 Q1640.19 287.239 1638.83 285.532 Q1637.47 283.79 1632.63 283.79 L1626.49 283.79 L1626.49 301.35 Q1626.49 302.848 1626.74 303.44 Q1626.98 303.998 1628.48 304.416 Q1629.98 304.799 1633.25 304.799 L1635.62 304.799 L1635.62 306.994 Q1633.04 306.785 1623.64 306.785 Q1615.31 306.785 1612.8 306.994 Z" fill="#000000" fill-rule="nonzero" fill-opacity="1" /><path clip-path="url(#clip140)" d="M1669.75 277.051 Q1669.75 276.554 1670.14 275.459 L1706.13 179.298 Q1706.13 179.198 1706.38 178.651 Q1706.63 178.103 1706.78 177.755 Q1706.93 177.357 1707.23 177.058 Q1707.57 176.759 1707.97 176.759 Q1708.97 176.759 1708.97 178.004 Q1708.97 178.103 1708.67 179.298 L1672.58 275.558 Q1671.99 277.3 1671.59 277.798 Q1671.24 278.296 1670.64 278.296 Q1669.75 278.296 1669.75 277.051 Z" fill="#000000" fill-rule="nonzero" fill-opacity="1" /><path clip-path="url(#clip140)" d="M1720.22 275.359 L1720.22 179.696 Q1720.22 176.66 1722.26 176.66 Q1724.3 176.66 1724.3 179.845 L1724.3 275.11 Q1724.3 278.395 1722.26 278.395 Q1720.22 278.395 1720.22 275.359 M1731.47 275.359 L1731.47 180.442 Q1731.47 176.66 1733.51 176.66 Q1735.55 176.66 1735.55 179.845 L1735.55 275.11 Q1735.55 278.395 1733.51 278.395 Q1731.47 278.395 1731.47 275.359 Z" fill="#000000" fill-rule="nonzero" fill-opacity="1" /><path clip-path="url(#clip140)" d="M1845.33 184.524 Q1845.33 185.42 1844.98 185.917 Q1844.69 186.365 1844.34 186.465 Q1843.99 186.515 1843.09 186.565 Q1835.97 186.913 1830.15 191.741 Q1828.71 192.985 1825.07 196.867 Q1821.49 200.75 1816.71 205.926 Q1811.98 211.102 1809.25 213.89 L1822.39 245.346 Q1822.93 246.59 1823.13 247.138 Q1823.38 247.636 1823.88 248.283 Q1824.43 248.93 1824.83 249.129 Q1825.27 249.328 1826.22 249.577 Q1827.21 249.776 1828.21 249.826 Q1829.26 249.826 1831.15 249.875 Q1831.74 249.875 1831.99 249.925 Q1832.29 249.925 1832.64 250.224 Q1832.99 250.473 1832.99 251.07 Q1832.99 251.966 1832.59 252.464 Q1832.24 252.912 1831.89 252.961 Q1831.59 253.011 1831.05 253.011 Q1829.75 253.011 1825.37 252.862 Q1820.99 252.712 1819.75 252.712 L1806.91 253.011 Q1805.36 253.011 1805.36 251.767 Q1805.36 251.12 1805.46 250.771 Q1805.61 250.373 1805.96 250.224 Q1806.31 250.025 1806.56 249.975 Q1806.81 249.925 1807.41 249.875 Q1809.25 249.676 1810.64 249.129 Q1812.08 248.532 1812.68 247.934 Q1813.33 247.337 1813.33 246.889 L1812.83 245.446 L1802.53 221.107 L1793.32 231.111 L1782.92 242.111 Q1780.18 245.047 1780.18 246.69 Q1780.18 249.427 1784.26 249.875 Q1785.51 249.975 1785.51 250.97 Q1785.51 251.916 1785.11 252.414 Q1784.76 252.862 1784.41 252.961 Q1784.11 253.011 1783.66 253.011 Q1781.82 253.011 1777.94 252.862 Q1774.11 252.712 1772.22 252.712 Q1770.62 252.712 1767.39 252.862 Q1764.15 253.011 1762.66 253.011 Q1762.06 253.011 1761.71 252.712 Q1761.37 252.414 1761.37 252.115 L1761.32 251.866 Q1761.32 251.169 1761.42 250.771 Q1761.56 250.373 1761.96 250.174 Q1762.41 249.975 1762.61 249.975 Q1762.81 249.925 1763.56 249.875 Q1767.79 249.627 1771.37 247.984 Q1775 246.342 1778.54 242.509 Q1778.84 242.26 1779.18 241.962 Q1779.58 241.663 1779.88 241.414 L1801.38 218.27 L1789.34 189.8 Q1788.79 188.506 1788.29 187.958 Q1787.79 187.361 1786.25 186.963 Q1784.71 186.565 1781.72 186.565 Q1780.88 186.565 1780.48 186.515 Q1780.08 186.465 1779.73 186.216 Q1779.38 185.967 1779.38 185.42 Q1779.38 184.474 1779.73 184.026 Q1780.13 183.528 1780.43 183.479 Q1780.78 183.379 1781.23 183.379 Q1782.47 183.379 1786.9 183.528 Q1791.33 183.678 1792.62 183.678 Q1794.76 183.678 1799.04 183.528 Q1803.37 183.379 1805.46 183.379 Q1807.01 183.379 1807.01 184.623 Q1807.01 185.42 1806.66 185.868 Q1806.31 186.316 1805.96 186.415 Q1805.61 186.515 1804.97 186.565 Q1803.03 186.764 1801.53 187.411 Q1800.09 188.008 1799.49 188.605 Q1798.94 189.153 1798.94 189.501 L1799.44 190.845 L1808 211.102 L1824.53 193.383 Q1826.47 191.193 1826.47 189.7 Q1826.47 187.012 1822.39 186.565 Q1821.14 186.365 1821.14 185.42 Q1821.14 184.474 1821.54 184.026 Q1821.94 183.528 1822.24 183.479 Q1822.59 183.379 1823.08 183.379 Q1824.93 183.379 1828.71 183.528 Q1832.54 183.678 1834.43 183.678 Q1836.02 183.678 1839.26 183.528 Q1842.5 183.379 1843.99 183.379 Q1844.59 183.379 1844.93 183.678 Q1845.28 183.927 1845.28 184.225 L1845.33 184.524 Z" fill="#000000" fill-rule="nonzero" fill-opacity="1" /><path clip-path="url(#clip140)" d="M1871.8 275.359 L1871.8 179.696 Q1871.8 176.66 1873.84 176.66 Q1875.88 176.66 1875.88 179.845 L1875.88 275.11 Q1875.88 278.395 1873.84 278.395 Q1871.8 278.395 1871.8 275.359 M1883.05 275.359 L1883.05 180.442 Q1883.05 176.66 1885.09 176.66 Q1887.13 176.66 1887.13 179.845 L1887.13 275.11 Q1887.13 278.395 1885.09 278.395 Q1883.05 278.395 1883.05 275.359 Z" fill="#000000" fill-rule="nonzero" fill-opacity="1" /><path clip-path="url(#clip140)" d="M1897.85 306.994 L1897.85 304.799 L1899.56 304.799 Q1903.43 304.799 1904.3 304.172 Q1905.2 303.51 1905.2 301.419 L1905.2 264.035 Q1905.2 261.979 1904.3 261.352 Q1903.39 260.69 1899.56 260.69 L1897.85 260.69 L1897.85 258.461 L1937.01 258.461 L1939 274.522 L1937.22 274.522 Q1936.73 270.446 1936.07 268.146 Q1935.45 265.812 1933.98 263.965 Q1932.52 262.119 1930.04 261.422 Q1927.61 260.69 1923.6 260.69 L1915.03 260.69 Q1912.59 260.69 1912.07 261.213 Q1911.54 261.701 1911.54 263.547 L1911.54 281.595 L1917.68 281.595 Q1922.52 281.595 1923.88 279.853 Q1925.24 278.111 1925.24 273.233 L1927.01 273.233 L1927.01 292.152 L1925.24 292.152 Q1925.24 287.239 1923.88 285.532 Q1922.52 283.79 1917.68 283.79 L1911.54 283.79 L1911.54 301.35 Q1911.54 302.848 1911.79 303.44 Q1912.03 303.998 1913.53 304.416 Q1915.03 304.799 1918.3 304.799 L1920.67 304.799 L1920.67 306.994 Q1918.09 306.785 1908.69 306.785 Q1900.36 306.785 1897.85 306.994 Z" fill="#000000" fill-rule="nonzero" fill-opacity="1" /><path clip-path="url(#clip140)" d="M1992.28 223.745 Q1993.88 225.337 1993.88 227.527 Q1993.88 229.717 1992.28 231.36 Q1990.69 232.953 1988.5 232.953 Q1986.31 232.953 1984.67 231.36 Q1983.08 229.717 1983.08 227.527 Q1983.08 225.337 1984.67 223.745 Q1986.31 222.102 1988.5 222.102 Q1990.69 222.102 1992.28 223.745 Z" fill="#000000" fill-rule="nonzero" fill-opacity="1" /><path clip-path="url(#clip140)" d="M2039.4 194.827 L2039.4 191.641 Q2051.65 191.641 2057.97 185.121 Q2059.71 185.121 2060.01 185.519 Q2060.31 185.917 2060.31 187.759 L2060.31 244.948 Q2060.31 247.984 2061.8 248.93 Q2063.29 249.875 2069.81 249.875 L2073.05 249.875 L2073.05 253.011 Q2069.46 252.712 2056.52 252.712 Q2043.58 252.712 2040.05 253.011 L2040.05 249.875 L2043.28 249.875 Q2049.7 249.875 2051.25 248.979 Q2052.79 248.034 2052.79 244.948 L2052.79 192.139 Q2047.46 194.827 2039.4 194.827 Z" fill="#000000" fill-rule="nonzero" fill-opacity="1" /><path clip-path="url(#clip140)" d="M2078.08 220.41 Q2078.08 205.428 2081.86 197.266 Q2087.14 185.121 2099.58 185.121 Q2102.22 185.121 2104.96 185.868 Q2107.75 186.565 2111.23 189.302 Q2114.76 192.04 2116.9 196.519 Q2120.99 205.18 2120.99 220.41 Q2120.99 235.292 2117.2 243.405 Q2111.68 255.251 2099.48 255.251 Q2094.9 255.251 2090.23 252.912 Q2085.6 250.572 2082.66 244.948 Q2078.08 236.536 2078.08 220.41 M2086.54 219.166 Q2086.54 234.545 2087.64 240.667 Q2088.88 247.287 2092.27 250.174 Q2095.7 253.011 2099.48 253.011 Q2103.56 253.011 2106.95 249.975 Q2110.38 246.889 2111.43 240.269 Q2112.57 233.749 2112.52 219.166 Q2112.52 204.98 2111.53 199.306 Q2110.18 192.687 2106.6 190.049 Q2103.07 187.361 2099.48 187.361 Q2098.14 187.361 2096.7 187.759 Q2095.3 188.157 2093.26 189.302 Q2091.22 190.447 2089.63 193.284 Q2088.09 196.121 2087.34 200.401 Q2086.54 205.926 2086.54 219.166 Z" fill="#000000" fill-rule="nonzero" fill-opacity="1" /><path clip-path="url(#clip140)" d="M2128.97 220.41 Q2128.97 205.428 2132.75 197.266 Q2138.02 185.121 2150.47 185.121 Q2153.11 185.121 2155.84 185.868 Q2158.63 186.565 2162.11 189.302 Q2165.65 192.04 2167.79 196.519 Q2171.87 205.18 2171.87 220.41 Q2171.87 235.292 2168.09 243.405 Q2162.56 255.251 2150.37 255.251 Q2145.79 255.251 2141.11 252.912 Q2136.48 250.572 2133.54 244.948 Q2128.97 236.536 2128.97 220.41 M2137.43 219.166 Q2137.43 234.545 2138.52 240.667 Q2139.77 247.287 2143.15 250.174 Q2146.59 253.011 2150.37 253.011 Q2154.45 253.011 2157.83 249.975 Q2161.27 246.889 2162.31 240.269 Q2163.46 233.749 2163.41 219.166 Q2163.41 204.98 2162.41 199.306 Q2161.07 192.687 2157.49 190.049 Q2153.95 187.361 2150.37 187.361 Q2149.02 187.361 2147.58 187.759 Q2146.19 188.157 2144.15 189.302 Q2142.11 190.447 2140.51 193.284 Q2138.97 196.121 2138.22 200.401 Q2137.43 205.926 2137.43 219.166 Z" fill="#000000" fill-rule="nonzero" fill-opacity="1" /><path clip-path="url(#clip140)" d="M2179.85 197.067 Q2179.85 188.307 2184.33 182.433 Q2188.81 176.56 2194.83 176.56 Q2198.51 176.56 2202.15 179.845 Q2210.41 187.709 2221.21 187.66 Q2233.46 187.66 2240.57 178.004 Q2241.82 176.56 2242.71 176.56 Q2243.51 176.56 2244.11 177.207 Q2244.75 177.805 2244.75 178.601 Q2244.75 179.198 2243.96 180.442 L2192.39 257.192 Q2191.25 258.735 2190.35 258.735 Q2189.56 258.735 2188.91 258.088 Q2188.31 257.491 2188.31 256.694 Q2188.31 255.997 2189.21 254.654 L2235 186.465 L2234.9 186.365 Q2229.62 189.949 2221.31 189.899 Q2213.45 189.899 2205.93 185.619 Q2208.07 190.895 2208.07 197.166 Q2208.07 205.727 2204.24 211.7 Q2200.41 217.623 2194.83 217.623 Q2188.81 217.623 2184.33 211.849 Q2179.85 206.026 2179.85 197.067 M2186.87 188.755 Q2186.17 192.338 2186.17 197.166 Q2186.17 201.944 2186.87 205.528 Q2187.56 209.062 2188.56 210.903 Q2189.61 212.745 2191 213.84 Q2192.39 214.885 2193.24 215.134 Q2194.09 215.383 2194.93 215.383 Q2199.11 215.383 2202.3 210.207 Q2205.53 204.98 2205.53 197.067 Q2205.53 189.302 2202.3 184.076 Q2199.11 178.8 2194.93 178.8 Q2194.04 178.8 2193.14 179.049 Q2192.29 179.298 2190.95 180.393 Q2189.61 181.438 2188.56 183.28 Q2187.56 185.121 2186.87 188.755 M2224.99 238.129 Q2224.99 229.369 2229.47 223.496 Q2233.95 217.623 2239.98 217.623 Q2245.5 217.623 2249.33 223.595 Q2253.22 229.568 2253.22 238.229 Q2253.22 246.79 2249.38 252.762 Q2245.6 258.735 2239.98 258.735 Q2233.95 258.735 2229.47 252.912 Q2224.99 247.088 2224.99 238.129 M2232.01 229.817 Q2231.32 233.45 2231.32 238.229 Q2231.32 243.007 2232.01 246.59 Q2232.76 250.174 2233.75 252.016 Q2234.8 253.807 2236.14 254.853 Q2237.54 255.948 2238.38 256.197 Q2239.28 256.495 2240.08 256.495 Q2244.26 256.495 2247.44 251.319 Q2250.68 246.093 2250.68 238.129 Q2250.68 230.365 2247.44 225.138 Q2244.26 219.862 2240.08 219.862 Q2239.18 219.862 2238.28 220.161 Q2237.44 220.41 2236.09 221.505 Q2234.8 222.55 2233.75 224.392 Q2232.76 226.184 2232.01 229.817 Z" fill="#000000" fill-rule="nonzero" fill-opacity="1" /><path clip-path="url(#clip140)" d="M629.725 328.332 L578.952 379.105 L629.725 429.878 L680.499 379.105 L629.725 328.332 Z" fill="#ff0000" fill-rule="evenodd" fill-opacity="1" stroke="none"/>
<path clip-path="url(#clip140)" d="M718.586 397.233 L718.586 394.098 Q722.269 394.098 724.608 393.401 Q726.948 392.654 727.794 391.31 Q728.64 389.917 728.839 389.021 Q729.088 388.075 729.088 386.532 L729.088 333.325 Q729.088 331.882 728.69 331.533 Q728.341 331.185 726.599 330.986 Q723.563 330.787 721.522 330.787 L718.586 330.787 L718.586 327.601 L735.907 327.601 Q737.35 327.601 737.748 327.8 Q738.146 327.999 738.843 328.945 L774.829 381.854 L774.829 338.302 Q774.829 336.759 774.63 335.864 Q774.431 334.968 773.535 333.574 Q772.689 332.18 770.349 331.484 Q768.01 330.787 764.327 330.787 L764.327 327.601 Q775.028 327.9 776.223 327.9 Q777.467 327.9 788.168 327.601 L788.168 330.787 Q784.485 330.787 782.145 331.484 Q779.806 332.18 778.96 333.574 Q778.114 334.968 777.865 335.913 Q777.666 336.809 777.666 338.302 L777.666 394.595 Q777.666 396.238 777.467 396.736 Q777.268 397.233 776.272 397.233 Q775.575 397.233 774.53 395.889 L732.92 334.769 Q732.522 334.171 731.925 333.524 L731.925 386.532 Q731.925 388.075 732.124 389.021 Q732.323 389.917 733.169 391.31 Q734.065 392.654 736.404 393.401 Q738.744 394.098 742.427 394.098 L742.427 397.233 Q731.726 396.935 730.481 396.935 Q729.287 396.935 718.586 397.233 Z" fill="#000000" fill-rule="nonzero" fill-opacity="1" /><path clip-path="url(#clip140)" d="M805.317 397.233 L805.317 394.098 L807.755 394.098 Q813.28 394.098 814.525 393.202 Q815.819 392.256 815.819 389.27 L815.819 335.565 Q815.819 332.628 814.525 331.732 Q813.23 330.787 807.755 330.787 L805.317 330.787 L805.317 327.601 L837.32 327.601 Q848.42 327.601 856.135 333.076 Q863.899 338.501 863.899 345.967 Q863.899 351.691 858.872 356.171 Q853.845 360.65 846.08 362.591 Q856.184 366.076 858.524 374.388 L859.818 382.55 Q860.216 385.487 860.465 386.98 Q860.763 388.473 861.211 390.514 Q861.659 392.555 862.107 393.55 Q862.605 394.496 863.302 395.541 Q863.999 396.536 864.895 396.885 Q865.84 397.233 867.085 397.233 Q869.424 397.233 871.415 395.143 Q873.406 393.052 873.804 388.175 Q874.003 386.532 875.048 386.532 Q876.342 386.532 876.342 388.175 Q876.342 389.618 875.944 391.31 Q875.546 392.953 874.55 394.894 Q873.605 396.835 871.514 398.129 Q869.424 399.473 866.686 399.473 Q858.723 399.473 853.845 395.193 Q851.804 393.351 850.859 390.962 Q849.963 388.573 849.813 386.681 Q849.664 384.79 849.664 380.609 Q849.664 374.686 849.017 372.098 Q848.42 369.51 845.782 366.971 Q842.198 363.487 836.275 363.487 L824.579 363.487 L824.579 389.27 Q824.579 392.206 825.823 393.152 Q827.117 394.098 832.642 394.098 L835.081 394.098 L835.081 397.233 Q831.397 396.935 820.199 396.935 Q809 396.935 805.317 397.233 M824.579 361.248 L835.877 361.248 Q841.302 361.248 844.936 359.954 Q848.619 358.61 850.361 356.221 Q852.103 353.831 852.75 351.442 Q853.397 349.004 853.397 345.967 Q853.397 342.384 852.601 339.696 Q851.804 337.008 850.062 335.416 Q848.32 333.823 846.578 332.827 Q844.836 331.782 842.148 331.384 Q839.461 330.986 837.619 330.886 Q835.777 330.787 832.841 330.787 Q827.864 330.787 826.818 330.986 Q825.674 331.085 825.226 331.633 Q824.778 332.18 824.678 332.827 Q824.579 333.425 824.579 334.868 L824.579 361.248 Z" fill="#000000" fill-rule="nonzero" fill-opacity="1" /><path clip-path="url(#clip140)" d="M879.194 397.233 L879.194 394.098 Q882.877 394.098 885.216 393.401 Q887.556 392.654 888.402 391.31 Q889.298 389.917 889.497 389.021 Q889.696 388.075 889.696 386.532 L889.696 335.565 Q889.696 332.628 888.402 331.732 Q887.158 330.787 881.633 330.787 L879.194 330.787 L879.194 327.601 L896.415 327.601 Q898.257 327.601 898.755 327.95 Q899.252 328.248 899.999 329.841 L922.098 386.93 L944.396 329.542 Q944.894 328.099 945.342 327.85 Q945.84 327.601 947.781 327.601 L965.002 327.601 L965.002 330.787 L962.563 330.787 Q957.038 330.787 955.744 331.732 Q954.5 332.628 954.5 335.565 L954.5 389.27 Q954.5 392.206 955.744 393.152 Q957.038 394.098 962.563 394.098 L965.002 394.098 L965.002 397.233 Q961.219 396.935 950.419 396.935 Q939.518 396.935 935.736 397.233 L935.736 394.098 L938.224 394.098 Q943.749 394.098 944.993 393.202 Q946.238 392.256 946.238 389.27 L946.238 330.787 L946.138 330.787 L921.103 395.292 Q920.406 397.233 919.261 397.233 Q918.017 397.233 917.22 394.994 L892.633 331.583 L892.533 331.583 L892.533 386.532 Q892.533 388.075 892.732 389.021 Q892.931 389.917 893.777 391.31 Q894.673 392.654 897.013 393.401 Q899.352 394.098 903.035 394.098 L903.035 397.233 Q892.334 396.935 891.09 396.935 Q889.895 396.935 879.194 397.233 Z" fill="#000000" fill-rule="nonzero" fill-opacity="1" /><path clip-path="url(#clip140)" d="M981.411 397.034 L981.411 376.627 Q981.411 375.483 981.461 375.084 Q981.511 374.686 981.809 374.388 Q982.108 374.089 982.705 374.089 Q983.85 374.089 983.95 375.134 Q984.248 385.238 990.271 390.813 Q996.194 396.337 1006.35 396.337 Q1012.47 396.337 1016.25 391.957 Q1020.03 387.528 1020.03 381.754 Q1020.03 376.229 1016.85 372.347 Q1015.51 370.605 1013.81 369.51 Q1012.17 368.365 1011.13 368.017 Q1010.13 367.668 1008.19 367.171 Q995.547 364.134 994.75 363.786 Q988.728 361.745 985.045 356.619 Q981.411 351.442 981.411 345.121 Q981.411 336.959 987.135 331.185 Q992.909 325.362 1001.27 325.362 Q1005.45 325.362 1008.94 326.705 Q1012.47 327.999 1013.91 329.194 Q1015.36 330.389 1017.6 332.529 L1021.13 326.705 Q1021.93 325.362 1022.67 325.362 Q1023.47 325.362 1023.62 325.859 Q1023.82 326.307 1023.82 327.8 L1023.82 348.307 Q1023.82 349.451 1023.77 349.85 Q1023.72 350.248 1023.37 350.497 Q1023.07 350.746 1022.47 350.746 Q1021.48 350.746 1021.23 349.551 Q1018.39 328.248 1001.37 328.248 Q995.547 328.248 991.714 332.18 Q987.931 336.063 987.931 341.587 Q987.931 346.067 990.719 349.75 Q993.506 353.384 998.234 354.528 L1011.27 357.664 Q1017.8 359.207 1022.18 364.981 Q1026.56 370.754 1026.56 378.27 Q1026.56 386.93 1020.88 393.202 Q1015.26 399.473 1006.45 399.473 Q1000.13 399.473 995.248 397.383 Q990.37 395.292 987.732 392.356 Q985.692 395.74 984.348 397.631 L984.049 398.129 Q983.253 399.473 982.506 399.473 Q981.71 399.473 981.561 398.975 Q981.411 398.478 981.411 397.034 Z" fill="#000000" fill-rule="nonzero" fill-opacity="1" /><path clip-path="url(#clip140)" d="M1041.9 397.233 L1041.9 394.098 L1044.34 394.098 Q1049.86 394.098 1051.1 393.202 Q1052.4 392.256 1052.4 389.27 L1052.4 335.565 Q1052.4 332.628 1051.1 331.732 Q1049.81 330.787 1044.34 330.787 L1041.9 330.787 L1041.9 327.601 L1079.18 327.601 Q1092.22 327.601 1101.28 338.004 Q1110.38 348.406 1110.38 362.99 Q1110.38 377.274 1101.23 387.279 Q1092.12 397.233 1079.18 397.233 L1041.9 397.233 M1061.16 390.016 Q1061.16 392.654 1061.91 393.401 Q1062.65 394.098 1066.14 394.098 L1076.44 394.098 Q1083.16 394.098 1087.69 391.36 Q1092.22 388.573 1094.56 385.387 Q1100.18 377.722 1100.18 362.99 Q1100.18 347.51 1094.9 340.244 Q1088.09 330.787 1076.34 330.787 L1066.14 330.787 Q1062.65 330.787 1061.91 331.484 Q1061.16 332.18 1061.16 334.868 L1061.16 390.016 Z" fill="#000000" fill-rule="nonzero" fill-opacity="1" /><path clip-path="url(#clip140)" d="M1145.82 419.581 L1145.82 323.918 Q1145.82 320.882 1147.87 320.882 Q1149.91 320.882 1149.91 324.067 L1149.91 419.332 Q1149.91 422.617 1147.87 422.617 Q1145.82 422.617 1145.82 419.581 M1157.07 419.581 L1157.07 324.665 Q1157.07 320.882 1159.11 320.882 Q1161.15 320.882 1161.15 324.067 L1161.15 419.332 Q1161.15 422.617 1159.11 422.617 Q1157.07 422.617 1157.07 419.581 Z" fill="#000000" fill-rule="nonzero" fill-opacity="1" /><path clip-path="url(#clip140)" d="M1244.71 315.552 L1243.84 316.981 Q1238.43 314.646 1231.71 310.918 Q1224.99 314.646 1219.59 316.981 L1218.75 315.552 Q1224.64 310.431 1231.71 306.494 Q1238.85 310.466 1244.71 315.552 Z" fill="#000000" fill-rule="nonzero" fill-opacity="1" /><path clip-path="url(#clip140)" d="M1266.85 328.746 Q1266.85 329.642 1266.5 330.14 Q1266.2 330.588 1265.86 330.687 Q1265.51 330.737 1264.61 330.787 Q1257.49 331.135 1251.67 335.963 Q1250.23 337.207 1246.59 341.09 Q1243.01 344.972 1238.23 350.148 Q1233.5 355.325 1230.77 358.112 L1243.91 389.568 Q1244.45 390.813 1244.65 391.36 Q1244.9 391.858 1245.4 392.505 Q1245.95 393.152 1246.35 393.351 Q1246.79 393.55 1247.74 393.799 Q1248.73 393.998 1249.73 394.048 Q1250.77 394.048 1252.67 394.098 Q1253.26 394.098 1253.51 394.147 Q1253.81 394.147 1254.16 394.446 Q1254.51 394.695 1254.51 395.292 Q1254.51 396.188 1254.11 396.686 Q1253.76 397.134 1253.41 397.184 Q1253.11 397.233 1252.57 397.233 Q1251.27 397.233 1246.89 397.084 Q1242.51 396.935 1241.27 396.935 L1228.43 397.233 Q1226.88 397.233 1226.88 395.989 Q1226.88 395.342 1226.98 394.994 Q1227.13 394.595 1227.48 394.446 Q1227.83 394.247 1228.08 394.197 Q1228.33 394.147 1228.92 394.098 Q1230.77 393.899 1232.16 393.351 Q1233.6 392.754 1234.2 392.156 Q1234.85 391.559 1234.85 391.111 L1234.35 389.668 L1224.05 365.329 L1214.84 375.333 L1204.44 386.333 Q1201.7 389.27 1201.7 390.912 Q1201.7 393.65 1205.78 394.098 Q1207.02 394.197 1207.02 395.193 Q1207.02 396.138 1206.63 396.636 Q1206.28 397.084 1205.93 397.184 Q1205.63 397.233 1205.18 397.233 Q1203.34 397.233 1199.46 397.084 Q1195.63 396.935 1193.74 396.935 Q1192.14 396.935 1188.91 397.084 Q1185.67 397.233 1184.18 397.233 Q1183.58 397.233 1183.23 396.935 Q1182.88 396.636 1182.88 396.337 L1182.84 396.089 Q1182.84 395.392 1182.93 394.994 Q1183.08 394.595 1183.48 394.396 Q1183.93 394.197 1184.13 394.197 Q1184.33 394.147 1185.07 394.098 Q1189.31 393.849 1192.89 392.206 Q1196.52 390.564 1200.06 386.731 Q1200.36 386.482 1200.7 386.184 Q1201.1 385.885 1201.4 385.636 L1222.9 362.492 L1210.86 334.022 Q1210.31 332.728 1209.81 332.18 Q1209.31 331.583 1207.77 331.185 Q1206.23 330.787 1203.24 330.787 Q1202.4 330.787 1202 330.737 Q1201.6 330.687 1201.25 330.438 Q1200.9 330.189 1200.9 329.642 Q1200.9 328.696 1201.25 328.248 Q1201.65 327.751 1201.95 327.701 Q1202.3 327.601 1202.74 327.601 Q1203.99 327.601 1208.42 327.751 Q1212.85 327.9 1214.14 327.9 Q1216.28 327.9 1220.56 327.751 Q1224.89 327.601 1226.98 327.601 Q1228.53 327.601 1228.53 328.846 Q1228.53 329.642 1228.18 330.09 Q1227.83 330.538 1227.48 330.637 Q1227.13 330.737 1226.49 330.787 Q1224.54 330.986 1223.05 331.633 Q1221.61 332.23 1221.01 332.827 Q1220.46 333.375 1220.46 333.723 L1220.96 335.067 L1229.52 355.325 L1246.05 337.606 Q1247.99 335.416 1247.99 333.922 Q1247.99 331.235 1243.91 330.787 Q1242.66 330.588 1242.66 329.642 Q1242.66 328.696 1243.06 328.248 Q1243.46 327.751 1243.76 327.701 Q1244.11 327.601 1244.6 327.601 Q1246.44 327.601 1250.23 327.751 Q1254.06 327.9 1255.95 327.9 Q1257.54 327.9 1260.78 327.751 Q1264.01 327.601 1265.51 327.601 Q1266.1 327.601 1266.45 327.9 Q1266.8 328.149 1266.8 328.447 L1266.85 328.746 Z" fill="#000000" fill-rule="nonzero" fill-opacity="1" /><path clip-path="url(#clip140)" d="M1337.65 378.259 Q1337.65 378.712 1337.54 379.026 Q1337.44 379.304 1337.19 379.444 Q1336.95 379.583 1336.81 379.618 Q1336.67 379.653 1336.36 379.688 Q1334.86 379.827 1333.81 380.071 Q1332.8 380.315 1330.29 381.569 Q1327.82 382.823 1324.72 385.088 L1312.25 394.739 L1310.16 396.376 Q1310.16 396.481 1310.23 396.69 Q1310.3 396.864 1310.37 397.108 Q1310.47 397.317 1310.5 397.387 L1320.64 420.765 Q1321.44 422.646 1322.42 423.308 Q1323.4 423.97 1325.59 424.005 Q1325.94 424.005 1326.08 424.04 Q1326.25 424.04 1326.5 424.11 Q1326.78 424.145 1326.88 424.319 Q1327.02 424.493 1327.02 424.772 Q1327.02 426.2 1325.73 426.2 Q1324.93 426.2 1322.21 426.096 Q1319.49 425.991 1318.73 425.991 Q1317.3 425.991 1314.37 426.096 Q1311.45 426.2 1310.02 426.2 Q1309.01 426.2 1309.01 425.399 Q1309.01 424.737 1309.25 424.423 Q1309.53 424.075 1309.77 424.04 Q1310.02 424.005 1310.57 424.005 Q1310.99 424.005 1311.45 423.97 Q1311.93 423.901 1312.63 423.726 Q1313.36 423.517 1313.81 423.03 Q1314.3 422.507 1314.3 421.775 Q1314.3 421.183 1313.43 419.267 L1305.17 400.069 L1294.55 408.362 L1291.69 419.58 Q1291.62 419.998 1291.45 420.73 Q1291.27 421.462 1291.13 421.984 Q1291.03 422.507 1291.03 422.716 Q1291.03 423.169 1291.31 423.448 Q1291.62 423.726 1292.39 423.866 Q1293.15 423.97 1293.75 424.005 Q1294.37 424.005 1295.66 424.005 Q1297.27 424.005 1297.54 424.284 Q1297.68 424.458 1297.68 424.772 Q1297.68 425.259 1297.54 425.608 Q1297.4 425.921 1297.13 426.026 Q1296.88 426.13 1296.71 426.165 Q1296.53 426.2 1296.25 426.2 Q1295.52 426.2 1293.96 426.13 Q1292.42 426.061 1291.62 426.061 L1287.06 425.991 L1278 426.2 Q1276.92 426.2 1276.92 425.329 Q1276.92 424.667 1277.2 424.388 Q1277.48 424.075 1277.79 424.04 Q1278.1 424.005 1278.9 424.005 Q1280.65 424.005 1281.69 423.901 Q1282.74 423.796 1283.4 423.657 Q1284.1 423.483 1284.44 422.995 Q1284.83 422.507 1285 422.089 Q1285.18 421.636 1285.42 420.626 L1294.97 382.301 Q1295.24 381.151 1295.24 380.977 Q1295.24 380.384 1294.9 380.175 Q1294.58 379.931 1293.68 379.827 Q1291.93 379.688 1290.61 379.688 Q1289.74 379.688 1289.39 379.653 Q1289.08 379.618 1288.8 379.444 Q1288.56 379.235 1288.56 378.817 Q1288.56 377.458 1289.98 377.458 L1299.18 377.667 L1308.31 377.458 Q1309.32 377.458 1309.32 378.259 Q1309.32 379.269 1308.83 379.479 Q1308.38 379.688 1306.88 379.688 Q1304.27 379.688 1303.08 380.036 Q1301.93 380.35 1301.59 380.907 Q1301.27 381.43 1300.89 382.963 L1295.17 405.853 L1323.01 384.461 Q1325.59 382.301 1325.59 381.186 Q1325.59 380.454 1325.07 380.14 Q1324.58 379.792 1323.36 379.688 Q1322.49 379.548 1322.49 378.886 Q1322.49 378.224 1322.73 377.911 Q1323.01 377.562 1323.22 377.527 Q1323.47 377.458 1323.85 377.458 Q1325.14 377.458 1327.82 377.562 Q1330.5 377.667 1331.79 377.667 Q1332.66 377.667 1334.37 377.562 Q1336.08 377.458 1336.84 377.458 Q1337.23 377.458 1337.44 377.736 Q1337.65 377.98 1337.65 378.259 Z" fill="#000000" fill-rule="nonzero" fill-opacity="1" /><path clip-path="url(#clip140)" d="M1443.5 370.306 Q1444.1 370.904 1444.1 371.75 Q1444.1 372.596 1443.5 373.193 Q1442.91 373.79 1442.06 373.79 L1378.25 373.79 Q1377.41 373.79 1376.81 373.193 Q1376.21 372.596 1376.21 371.75 Q1376.21 370.904 1376.81 370.306 Q1377.41 369.709 1378.25 369.709 L1442.06 369.709 Q1442.91 369.709 1443.5 370.306 Z" fill="#000000" fill-rule="nonzero" fill-opacity="1" /><path clip-path="url(#clip140)" d="M1557.13 328.846 Q1557.13 329.493 1556.98 329.891 Q1556.88 330.289 1556.48 330.488 Q1556.13 330.637 1555.88 330.687 Q1555.68 330.737 1555.08 330.787 Q1552.65 330.986 1550.61 331.633 Q1548.56 332.23 1546.82 333.425 Q1545.13 334.619 1544.18 335.416 Q1543.29 336.212 1541.7 337.805 L1540.3 339.248 L1515.02 368.266 Q1514.12 369.261 1513.57 371.451 L1509.99 385.835 Q1508.6 391.808 1508.6 392.256 Q1508.6 393.152 1509.09 393.451 Q1509.64 393.699 1511.33 393.849 L1515.22 394.098 Q1517.51 394.098 1517.85 394.496 Q1518.05 394.745 1518.05 395.193 Q1518.05 396.138 1517.66 396.636 Q1517.31 397.084 1516.96 397.184 Q1516.66 397.233 1516.11 397.233 L1503.07 396.935 L1490.23 397.233 Q1488.79 397.233 1488.79 396.089 Q1488.79 395.342 1488.89 394.944 Q1489.04 394.496 1489.48 394.346 Q1489.93 394.147 1490.28 394.147 Q1490.63 394.098 1491.57 394.098 Q1493.86 394.048 1495.01 394.048 Q1496.2 393.998 1497.35 393.699 Q1498.49 393.401 1498.89 393.202 Q1499.34 392.953 1499.84 392.107 Q1500.38 391.211 1500.53 390.514 Q1500.73 389.817 1501.13 388.075 Q1501.53 386.532 1503.62 378.121 Q1505.71 369.709 1505.71 369.51 Q1505.71 368.962 1505.31 367.768 L1492.77 334.221 Q1492.22 332.728 1491.77 332.131 Q1491.33 331.533 1489.83 331.185 Q1488.34 330.787 1485.35 330.787 Q1484.51 330.787 1484.11 330.737 Q1483.71 330.687 1483.36 330.438 Q1483.01 330.189 1483.01 329.642 Q1483.01 328.696 1483.41 328.248 Q1483.81 327.751 1484.11 327.701 Q1484.46 327.601 1484.96 327.601 Q1486.2 327.601 1490.63 327.751 Q1495.06 327.9 1496.35 327.9 L1509.19 327.601 Q1510.74 327.601 1510.74 328.746 Q1510.74 330.14 1510.19 330.488 Q1509.64 330.787 1508.3 330.787 Q1502.28 330.787 1502.28 333.226 Q1502.28 333.524 1502.87 334.968 L1514.07 365.229 L1537.71 338.004 L1538.06 337.606 Q1538.36 337.207 1538.61 336.909 Q1538.86 336.61 1539.26 336.063 Q1539.66 335.515 1539.85 335.067 Q1540.1 334.619 1540.3 334.072 Q1540.5 333.524 1540.5 333.126 Q1540.5 332.379 1540.05 331.882 Q1539.61 331.334 1538.91 331.135 Q1538.21 330.936 1537.71 330.886 Q1537.22 330.787 1536.82 330.787 Q1535.28 330.787 1535.28 329.542 Q1535.28 328.647 1535.67 328.199 Q1536.07 327.701 1536.37 327.651 Q1536.72 327.601 1537.22 327.601 Q1538.86 327.601 1542.29 327.751 Q1545.73 327.9 1547.42 327.9 Q1548.81 327.9 1551.65 327.751 Q1554.49 327.601 1555.78 327.601 Q1557.13 327.601 1557.13 328.846 Z" fill="#000000" fill-rule="nonzero" fill-opacity="1" /><path clip-path="url(#clip140)" d="M1568.56 419.581 L1568.56 323.918 Q1568.56 320.882 1570.6 320.882 Q1572.64 320.882 1572.64 324.067 L1572.64 419.332 Q1572.64 422.617 1570.6 422.617 Q1568.56 422.617 1568.56 419.581 M1579.8 419.581 L1579.8 324.665 Q1579.8 320.882 1581.84 320.882 Q1583.89 320.882 1583.89 324.067 L1583.89 419.332 Q1583.89 422.617 1581.84 422.617 Q1579.8 422.617 1579.8 419.581 Z" fill="#000000" fill-rule="nonzero" fill-opacity="1" /><path clip-path="url(#clip140)" d="M1594.61 451.216 L1594.61 449.021 L1596.31 449.021 Q1600.18 449.021 1601.05 448.394 Q1601.96 447.732 1601.96 445.642 L1601.96 408.257 Q1601.96 406.202 1601.05 405.575 Q1600.15 404.913 1596.31 404.913 L1594.61 404.913 L1594.61 402.683 L1633.77 402.683 L1635.75 418.744 L1633.98 418.744 Q1633.49 414.668 1632.83 412.368 Q1632.2 410.034 1630.74 408.188 Q1629.27 406.341 1626.8 405.644 Q1624.36 404.913 1620.35 404.913 L1611.78 404.913 Q1609.35 404.913 1608.82 405.435 Q1608.3 405.923 1608.3 407.77 L1608.3 425.817 L1614.43 425.817 Q1619.27 425.817 1620.63 424.075 Q1621.99 422.333 1621.99 417.455 L1623.77 417.455 L1623.77 436.374 L1621.99 436.374 Q1621.99 431.461 1620.63 429.754 Q1619.27 428.012 1614.43 428.012 L1608.3 428.012 L1608.3 445.572 Q1608.3 447.07 1608.54 447.662 Q1608.79 448.22 1610.29 448.638 Q1611.78 449.021 1615.06 449.021 L1617.43 449.021 L1617.43 451.216 Q1614.85 451.007 1605.44 451.007 Q1597.12 451.007 1594.61 451.216 Z" fill="#000000" fill-rule="nonzero" fill-opacity="1" /><path clip-path="url(#clip140)" d="M1651.55 421.273 Q1651.55 420.776 1651.95 419.681 L1687.94 323.52 Q1687.94 323.42 1688.18 322.873 Q1688.43 322.325 1688.58 321.977 Q1688.73 321.579 1689.03 321.28 Q1689.38 320.982 1689.78 320.982 Q1690.77 320.982 1690.77 322.226 Q1690.77 322.325 1690.47 323.52 L1654.39 419.78 Q1653.79 421.522 1653.39 422.02 Q1653.05 422.518 1652.45 422.518 Q1651.55 422.518 1651.55 421.273 Z" fill="#000000" fill-rule="nonzero" fill-opacity="1" /><path clip-path="url(#clip140)" d="M1702.03 419.581 L1702.03 323.918 Q1702.03 320.882 1704.07 320.882 Q1706.11 320.882 1706.11 324.067 L1706.11 419.332 Q1706.11 422.617 1704.07 422.617 Q1702.03 422.617 1702.03 419.581 M1713.28 419.581 L1713.28 324.665 Q1713.28 320.882 1715.32 320.882 Q1717.36 320.882 1717.36 324.067 L1717.36 419.332 Q1717.36 422.617 1715.32 422.617 Q1713.28 422.617 1713.28 419.581 Z" fill="#000000" fill-rule="nonzero" fill-opacity="1" /><path clip-path="url(#clip140)" d="M1817.23 328.846 Q1817.23 329.493 1817.08 329.891 Q1816.98 330.289 1816.59 330.488 Q1816.24 330.637 1815.99 330.687 Q1815.79 330.737 1815.19 330.787 Q1812.75 330.986 1810.71 331.633 Q1808.67 332.23 1806.93 333.425 Q1805.24 334.619 1804.29 335.416 Q1803.4 336.212 1801.8 337.805 L1800.41 339.248 L1775.13 368.266 Q1774.23 369.261 1773.68 371.451 L1770.1 385.835 Q1768.7 391.808 1768.7 392.256 Q1768.7 393.152 1769.2 393.451 Q1769.75 393.699 1771.44 393.849 L1775.32 394.098 Q1777.61 394.098 1777.96 394.496 Q1778.16 394.745 1778.16 395.193 Q1778.16 396.138 1777.76 396.636 Q1777.41 397.084 1777.07 397.184 Q1776.77 397.233 1776.22 397.233 L1763.18 396.935 L1750.34 397.233 Q1748.89 397.233 1748.89 396.089 Q1748.89 395.342 1748.99 394.944 Q1749.14 394.496 1749.59 394.346 Q1750.04 394.147 1750.39 394.147 Q1750.74 394.098 1751.68 394.098 Q1753.97 394.048 1755.12 394.048 Q1756.31 393.998 1757.46 393.699 Q1758.6 393.401 1759 393.202 Q1759.45 392.953 1759.94 392.107 Q1760.49 391.211 1760.64 390.514 Q1760.84 389.817 1761.24 388.075 Q1761.64 386.532 1763.73 378.121 Q1765.82 369.709 1765.82 369.51 Q1765.82 368.962 1765.42 367.768 L1752.88 334.221 Q1752.33 332.728 1751.88 332.131 Q1751.43 331.533 1749.94 331.185 Q1748.45 330.787 1745.46 330.787 Q1744.61 330.787 1744.22 330.737 Q1743.82 330.687 1743.47 330.438 Q1743.12 330.189 1743.12 329.642 Q1743.12 328.696 1743.52 328.248 Q1743.92 327.751 1744.22 327.701 Q1744.56 327.601 1745.06 327.601 Q1746.31 327.601 1750.74 327.751 Q1755.17 327.9 1756.46 327.9 L1769.3 327.601 Q1770.84 327.601 1770.84 328.746 Q1770.84 330.14 1770.3 330.488 Q1769.75 330.787 1768.41 330.787 Q1762.38 330.787 1762.38 333.226 Q1762.38 333.524 1762.98 334.968 L1774.18 365.229 L1797.82 338.004 L1798.17 337.606 Q1798.47 337.207 1798.72 336.909 Q1798.97 336.61 1799.36 336.063 Q1799.76 335.515 1799.96 335.067 Q1800.21 334.619 1800.41 334.072 Q1800.61 333.524 1800.61 333.126 Q1800.61 332.379 1800.16 331.882 Q1799.71 331.334 1799.02 331.135 Q1798.32 330.936 1797.82 330.886 Q1797.32 330.787 1796.93 330.787 Q1795.38 330.787 1795.38 329.542 Q1795.38 328.647 1795.78 328.199 Q1796.18 327.701 1796.48 327.651 Q1796.83 327.601 1797.32 327.601 Q1798.97 327.601 1802.4 327.751 Q1805.83 327.9 1807.53 327.9 Q1808.92 327.9 1811.76 327.751 Q1814.59 327.601 1815.89 327.601 Q1817.23 327.601 1817.23 328.846 Z" fill="#000000" fill-rule="nonzero" fill-opacity="1" /><path clip-path="url(#clip140)" d="M1828.66 419.581 L1828.66 323.918 Q1828.66 320.882 1830.7 320.882 Q1832.74 320.882 1832.74 324.067 L1832.74 419.332 Q1832.74 422.617 1830.7 422.617 Q1828.66 422.617 1828.66 419.581 M1839.91 419.581 L1839.91 324.665 Q1839.91 320.882 1841.95 320.882 Q1843.99 320.882 1843.99 324.067 L1843.99 419.332 Q1843.99 422.617 1841.95 422.617 Q1839.91 422.617 1839.91 419.581 Z" fill="#000000" fill-rule="nonzero" fill-opacity="1" /><path clip-path="url(#clip140)" d="M1854.71 451.216 L1854.71 449.021 L1856.42 449.021 Q1860.29 449.021 1861.16 448.394 Q1862.07 447.732 1862.07 445.642 L1862.07 408.257 Q1862.07 406.202 1861.16 405.575 Q1860.25 404.913 1856.42 404.913 L1854.71 404.913 L1854.71 402.683 L1893.88 402.683 L1895.86 418.744 L1894.08 418.744 Q1893.6 414.668 1892.94 412.368 Q1892.31 410.034 1890.84 408.188 Q1889.38 406.341 1886.91 405.644 Q1884.47 404.913 1880.46 404.913 L1871.89 404.913 Q1869.45 404.913 1868.93 405.435 Q1868.41 405.923 1868.41 407.77 L1868.41 425.817 L1874.54 425.817 Q1879.38 425.817 1880.74 424.075 Q1882.1 422.333 1882.1 417.455 L1883.88 417.455 L1883.88 436.374 L1882.1 436.374 Q1882.1 431.461 1880.74 429.754 Q1879.38 428.012 1874.54 428.012 L1868.41 428.012 L1868.41 445.572 Q1868.41 447.07 1868.65 447.662 Q1868.89 448.22 1870.39 448.638 Q1871.89 449.021 1875.17 449.021 L1877.54 449.021 L1877.54 451.216 Q1874.96 451.007 1865.55 451.007 Q1857.22 451.007 1854.71 451.216 Z" fill="#000000" fill-rule="nonzero" fill-opacity="1" /><path clip-path="url(#clip140)" d="M1949.15 367.967 Q1950.74 369.56 1950.74 371.75 Q1950.74 373.94 1949.15 375.582 Q1947.55 377.175 1945.36 377.175 Q1943.17 377.175 1941.53 375.582 Q1939.94 373.94 1939.94 371.75 Q1939.94 369.56 1941.53 367.967 Q1943.17 366.324 1945.36 366.324 Q1947.55 366.324 1949.15 367.967 Z" fill="#000000" fill-rule="nonzero" fill-opacity="1" /><path clip-path="url(#clip140)" d="M1996.26 339.049 L1996.26 335.864 Q2008.51 335.864 2014.83 329.343 Q2016.57 329.343 2016.87 329.742 Q2017.17 330.14 2017.17 331.981 L2017.17 389.17 Q2017.17 392.206 2018.66 393.152 Q2020.16 394.098 2026.68 394.098 L2029.91 394.098 L2029.91 397.233 Q2026.33 396.935 2013.39 396.935 Q2000.45 396.935 1996.91 397.233 L1996.91 394.098 L2000.15 394.098 Q2006.57 394.098 2008.11 393.202 Q2009.65 392.256 2009.65 389.17 L2009.65 336.361 Q2004.33 339.049 1996.26 339.049 Z" fill="#000000" fill-rule="nonzero" fill-opacity="1" /><path clip-path="url(#clip140)" d="M2034.94 364.632 Q2034.94 349.651 2038.73 341.488 Q2044 329.343 2056.45 329.343 Q2059.08 329.343 2061.82 330.09 Q2064.61 330.787 2068.09 333.524 Q2071.63 336.262 2073.77 340.741 Q2077.85 349.402 2077.85 364.632 Q2077.85 379.514 2074.07 387.627 Q2068.54 399.473 2056.35 399.473 Q2051.77 399.473 2047.09 397.134 Q2042.46 394.794 2039.52 389.17 Q2034.94 380.759 2034.94 364.632 M2043.41 363.388 Q2043.41 378.768 2044.5 384.89 Q2045.74 391.509 2049.13 394.396 Q2052.56 397.233 2056.35 397.233 Q2060.43 397.233 2063.81 394.197 Q2067.25 391.111 2068.29 384.491 Q2069.44 377.971 2069.39 363.388 Q2069.39 349.203 2068.39 343.529 Q2067.05 336.909 2063.46 334.271 Q2059.93 331.583 2056.35 331.583 Q2055 331.583 2053.56 331.981 Q2052.17 332.379 2050.12 333.524 Q2048.08 334.669 2046.49 337.506 Q2044.95 340.343 2044.2 344.624 Q2043.41 350.148 2043.41 363.388 Z" fill="#000000" fill-rule="nonzero" fill-opacity="1" /><path clip-path="url(#clip140)" d="M2085.83 364.632 Q2085.83 349.651 2089.61 341.488 Q2094.89 329.343 2107.33 329.343 Q2109.97 329.343 2112.71 330.09 Q2115.49 330.787 2118.98 333.524 Q2122.51 336.262 2124.65 340.741 Q2128.73 349.402 2128.73 364.632 Q2128.73 379.514 2124.95 387.627 Q2119.43 399.473 2107.23 399.473 Q2102.65 399.473 2097.97 397.134 Q2093.34 394.794 2090.41 389.17 Q2085.83 380.759 2085.83 364.632 M2094.29 363.388 Q2094.29 378.768 2095.38 384.89 Q2096.63 391.509 2100.01 394.396 Q2103.45 397.233 2107.23 397.233 Q2111.31 397.233 2114.7 394.197 Q2118.13 391.111 2119.18 384.491 Q2120.32 377.971 2120.27 363.388 Q2120.27 349.203 2119.28 343.529 Q2117.93 336.909 2114.35 334.271 Q2110.81 331.583 2107.23 331.583 Q2105.89 331.583 2104.44 331.981 Q2103.05 332.379 2101.01 333.524 Q2098.97 334.669 2097.38 337.506 Q2095.83 340.343 2095.09 344.624 Q2094.29 350.148 2094.29 363.388 Z" fill="#000000" fill-rule="nonzero" fill-opacity="1" /><path clip-path="url(#clip140)" d="M2136.71 341.289 Q2136.71 332.529 2141.19 326.656 Q2145.67 320.782 2151.69 320.782 Q2155.38 320.782 2159.01 324.067 Q2167.27 331.932 2178.07 331.882 Q2190.32 331.882 2197.44 322.226 Q2198.68 320.782 2199.58 320.782 Q2200.37 320.782 2200.97 321.429 Q2201.62 322.027 2201.62 322.823 Q2201.62 323.42 2200.82 324.665 L2149.26 401.414 Q2148.11 402.957 2147.22 402.957 Q2146.42 402.957 2145.77 402.31 Q2145.17 401.713 2145.17 400.916 Q2145.17 400.22 2146.07 398.876 L2191.86 330.687 L2191.76 330.588 Q2186.49 334.171 2178.17 334.121 Q2170.31 334.121 2162.79 329.841 Q2164.93 335.117 2164.93 341.388 Q2164.93 349.949 2161.1 355.922 Q2157.27 361.845 2151.69 361.845 Q2145.67 361.845 2141.19 356.071 Q2136.71 350.248 2136.71 341.289 M2143.73 332.977 Q2143.03 336.56 2143.03 341.388 Q2143.03 346.166 2143.73 349.75 Q2144.43 353.284 2145.42 355.126 Q2146.47 356.967 2147.86 358.062 Q2149.26 359.107 2150.1 359.356 Q2150.95 359.605 2151.79 359.605 Q2155.98 359.605 2159.16 354.429 Q2162.4 349.203 2162.4 341.289 Q2162.4 333.524 2159.16 328.298 Q2155.98 323.022 2151.79 323.022 Q2150.9 323.022 2150 323.271 Q2149.16 323.52 2147.81 324.615 Q2146.47 325.66 2145.42 327.502 Q2144.43 329.343 2143.73 332.977 M2181.86 382.351 Q2181.86 373.591 2186.34 367.718 Q2190.82 361.845 2196.84 361.845 Q2202.36 361.845 2206.2 367.818 Q2210.08 373.79 2210.08 382.451 Q2210.08 391.012 2206.25 396.984 Q2202.46 402.957 2196.84 402.957 Q2190.82 402.957 2186.34 397.134 Q2181.86 391.31 2181.86 382.351 M2188.87 374.039 Q2188.18 377.673 2188.18 382.451 Q2188.18 387.229 2188.87 390.813 Q2189.62 394.396 2190.62 396.238 Q2191.66 398.03 2193.01 399.075 Q2194.4 400.17 2195.25 400.419 Q2196.14 400.717 2196.94 400.717 Q2201.12 400.717 2204.3 395.541 Q2207.54 390.315 2207.54 382.351 Q2207.54 374.587 2204.3 369.361 Q2201.12 364.085 2196.94 364.085 Q2196.04 364.085 2195.15 364.383 Q2194.3 364.632 2192.96 365.727 Q2191.66 366.772 2190.62 368.614 Q2189.62 370.406 2188.87 374.039 Z" fill="#000000" fill-rule="nonzero" fill-opacity="1" /></svg>
