<?xml version="1.0" encoding="utf-8"?>
<svg xmlns="http://www.w3.org/2000/svg" xmlns:xlink="http://www.w3.org/1999/xlink" width="600" height="400" viewBox="0 0 2400 1600">
<defs>
  <clipPath id="clip200">
    <rect x="0" y="0" width="2400" height="1600"/>
  </clipPath>
</defs>
<path clip-path="url(#clip200)" d="M0 1600 L2400 1600 L2400 0 L0 0  Z" fill="#ffffff" fill-rule="evenodd" fill-opacity="1"/>
<defs>
  <clipPath id="clip201">
    <rect x="353" y="47" width="2000" height="1303"/>
  </clipPath>
</defs>
<path clip-path="url(#clip200)" d="M353.399 1349.74 L2352.76 1349.74 L2352.76 47.2441 L353.399 47.2441  Z" fill="#ffffff" fill-rule="evenodd" fill-opacity="1"/>
<polyline clip-path="url(#clip201)" style="stroke:#000000; stroke-linecap:round; stroke-linejoin:round; stroke-width:2; stroke-opacity:0.1; fill:none" points="409.984,1349.74 409.984,47.2441 "/>
<polyline clip-path="url(#clip201)" style="stroke:#000000; stroke-linecap:round; stroke-linejoin:round; stroke-width:2; stroke-opacity:0.1; fill:none" points="598.603,1349.74 598.603,47.2441 "/>
<polyline clip-path="url(#clip201)" style="stroke:#000000; stroke-linecap:round; stroke-linejoin:round; stroke-width:2; stroke-opacity:0.1; fill:none" points="1353.08,1349.74 1353.08,47.2441 "/>
<polyline clip-path="url(#clip201)" style="stroke:#000000; stroke-linecap:round; stroke-linejoin:round; stroke-width:2; stroke-opacity:0.1; fill:none" points="2296.17,1349.74 2296.17,47.2441 "/>
<polyline clip-path="url(#clip201)" style="stroke:#000000; stroke-linecap:round; stroke-linejoin:round; stroke-width:2; stroke-opacity:0.1; fill:none" points="353.399,1312.88 2352.76,1312.88 "/>
<polyline clip-path="url(#clip201)" style="stroke:#000000; stroke-linecap:round; stroke-linejoin:round; stroke-width:2; stroke-opacity:0.1; fill:none" points="353.399,1005.68 2352.76,1005.68 "/>
<polyline clip-path="url(#clip201)" style="stroke:#000000; stroke-linecap:round; stroke-linejoin:round; stroke-width:2; stroke-opacity:0.1; fill:none" points="353.399,698.492 2352.76,698.492 "/>
<polyline clip-path="url(#clip201)" style="stroke:#000000; stroke-linecap:round; stroke-linejoin:round; stroke-width:2; stroke-opacity:0.1; fill:none" points="353.399,391.3 2352.76,391.3 "/>
<polyline clip-path="url(#clip201)" style="stroke:#000000; stroke-linecap:round; stroke-linejoin:round; stroke-width:2; stroke-opacity:0.1; fill:none" points="353.399,84.1072 2352.76,84.1072 "/>
<polyline clip-path="url(#clip200)" style="stroke:#000000; stroke-linecap:round; stroke-linejoin:round; stroke-width:4; stroke-opacity:1; fill:none" points="353.399,1349.74 2352.76,1349.74 "/>
<polyline clip-path="url(#clip200)" style="stroke:#000000; stroke-linecap:round; stroke-linejoin:round; stroke-width:4; stroke-opacity:1; fill:none" points="409.984,1349.74 409.984,1330.84 "/>
<polyline clip-path="url(#clip200)" style="stroke:#000000; stroke-linecap:round; stroke-linejoin:round; stroke-width:4; stroke-opacity:1; fill:none" points="598.603,1349.74 598.603,1330.84 "/>
<polyline clip-path="url(#clip200)" style="stroke:#000000; stroke-linecap:round; stroke-linejoin:round; stroke-width:4; stroke-opacity:1; fill:none" points="1353.08,1349.74 1353.08,1330.84 "/>
<polyline clip-path="url(#clip200)" style="stroke:#000000; stroke-linecap:round; stroke-linejoin:round; stroke-width:4; stroke-opacity:1; fill:none" points="2296.17,1349.74 2296.17,1330.84 "/>
<path clip-path="url(#clip200)" d="M409.984 1392.38 Q402.762 1392.38 399.105 1399.51 Q395.493 1406.59 395.493 1420.85 Q395.493 1435.06 399.105 1442.19 Q402.762 1449.28 409.984 1449.28 Q417.253 1449.28 420.864 1442.19 Q424.521 1435.06 424.521 1420.85 Q424.521 1406.59 420.864 1399.51 Q417.253 1392.38 409.984 1392.38 M409.984 1384.97 Q421.604 1384.97 427.716 1394.18 Q433.873 1403.35 433.873 1420.85 Q433.873 1438.3 427.716 1447.52 Q421.604 1456.68 409.984 1456.68 Q398.364 1456.68 392.206 1447.52 Q386.095 1438.3 386.095 1420.85 Q386.095 1403.35 392.206 1394.18 Q398.364 1384.97 409.984 1384.97 Z" fill="#000000" fill-rule="nonzero" fill-opacity="1" /><path clip-path="url(#clip200)" d="M579.367 1447.47 L594.644 1447.47 L594.644 1394.74 L578.024 1398.07 L578.024 1389.55 L594.552 1386.22 L603.904 1386.22 L603.904 1447.47 L619.181 1447.47 L619.181 1455.34 L579.367 1455.34 L579.367 1447.47 Z" fill="#000000" fill-rule="nonzero" fill-opacity="1" /><path clip-path="url(#clip200)" d="M1333.63 1386.22 L1370.35 1386.22 L1370.35 1394.09 L1342.2 1394.09 L1342.2 1411.03 Q1344.23 1410.34 1346.27 1410.02 Q1348.31 1409.65 1350.35 1409.65 Q1361.92 1409.65 1368.68 1415.99 Q1375.44 1422.33 1375.44 1433.16 Q1375.44 1444.32 1368.49 1450.53 Q1361.55 1456.68 1348.91 1456.68 Q1344.56 1456.68 1340.02 1455.94 Q1335.53 1455.2 1330.72 1453.72 L1330.72 1444.32 Q1334.88 1446.59 1339.33 1447.7 Q1343.77 1448.81 1348.73 1448.81 Q1356.73 1448.81 1361.41 1444.6 Q1366.09 1440.39 1366.09 1433.16 Q1366.09 1425.94 1361.41 1421.73 Q1356.73 1417.52 1348.73 1417.52 Q1344.98 1417.52 1341.23 1418.35 Q1337.52 1419.18 1333.63 1420.94 L1333.63 1386.22 Z" fill="#000000" fill-rule="nonzero" fill-opacity="1" /><path clip-path="url(#clip200)" d="M2245.55 1447.47 L2260.82 1447.47 L2260.82 1394.74 L2244.2 1398.07 L2244.2 1389.55 L2260.73 1386.22 L2270.08 1386.22 L2270.08 1447.47 L2285.36 1447.47 L2285.36 1455.34 L2245.55 1455.34 L2245.55 1447.47 Z" fill="#000000" fill-rule="nonzero" fill-opacity="1" /><path clip-path="url(#clip200)" d="M2324.25 1392.38 Q2317.03 1392.38 2313.37 1399.51 Q2309.76 1406.59 2309.76 1420.85 Q2309.76 1435.06 2313.37 1442.19 Q2317.03 1449.28 2324.25 1449.28 Q2331.52 1449.28 2335.13 1442.19 Q2338.79 1435.06 2338.79 1420.85 Q2338.79 1406.59 2335.13 1399.51 Q2331.52 1392.38 2324.25 1392.38 M2324.25 1384.97 Q2335.87 1384.97 2341.98 1394.18 Q2348.14 1403.35 2348.14 1420.85 Q2348.14 1438.3 2341.98 1447.52 Q2335.87 1456.68 2324.25 1456.68 Q2312.63 1456.68 2306.47 1447.52 Q2300.36 1438.3 2300.36 1420.85 Q2300.36 1403.35 2306.47 1394.18 Q2312.63 1384.97 2324.25 1384.97 Z" fill="#000000" fill-rule="nonzero" fill-opacity="1" /><path clip-path="url(#clip200)" d="M1264.04 1538.24 Q1262.25 1537.2 1260.11 1536.73 Q1258.03 1536.21 1255.48 1536.21 Q1246.45 1536.21 1241.59 1542.12 Q1236.79 1547.96 1236.79 1558.96 L1236.79 1593.1 L1226.08 1593.1 L1226.08 1528.29 L1236.79 1528.29 L1236.79 1538.35 Q1240.14 1532.45 1245.53 1529.62 Q1250.91 1526.72 1258.6 1526.72 Q1259.7 1526.72 1261.03 1526.9 Q1262.37 1527.01 1263.99 1527.3 L1264.04 1538.24 Z" fill="#000000" fill-rule="nonzero" fill-opacity="1" /><path clip-path="url(#clip200)" d="M1304.67 1560.52 Q1291.76 1560.52 1286.79 1563.47 Q1281.81 1566.42 1281.81 1573.54 Q1281.81 1579.21 1285.51 1582.57 Q1289.28 1585.87 1295.7 1585.87 Q1304.55 1585.87 1309.88 1579.62 Q1315.26 1573.31 1315.26 1562.89 L1315.26 1560.52 L1304.67 1560.52 M1325.91 1556.12 L1325.91 1593.1 L1315.26 1593.1 L1315.26 1583.26 Q1311.61 1589.16 1306.17 1592 Q1300.73 1594.78 1292.86 1594.78 Q1282.91 1594.78 1277.01 1589.22 Q1271.16 1583.61 1271.16 1574.23 Q1271.16 1563.3 1278.45 1557.74 Q1285.8 1552.19 1300.33 1552.19 L1315.26 1552.19 L1315.26 1551.14 Q1315.26 1543.79 1310.4 1539.8 Q1305.59 1535.75 1296.86 1535.75 Q1291.3 1535.75 1286.03 1537.08 Q1280.77 1538.41 1275.91 1541.07 L1275.91 1531.24 Q1281.75 1528.98 1287.25 1527.88 Q1292.75 1526.72 1297.96 1526.72 Q1312.02 1526.72 1318.96 1534.01 Q1325.91 1541.31 1325.91 1556.12 Z" fill="#000000" fill-rule="nonzero" fill-opacity="1" /><path clip-path="url(#clip200)" d="M1401.72 1553.98 L1401.72 1593.1 L1391.07 1593.1 L1391.07 1554.33 Q1391.07 1545.13 1387.48 1540.55 Q1383.89 1535.98 1376.72 1535.98 Q1368.09 1535.98 1363.12 1541.48 Q1358.14 1546.98 1358.14 1556.47 L1358.14 1593.1 L1347.43 1593.1 L1347.43 1528.29 L1358.14 1528.29 L1358.14 1538.35 Q1361.96 1532.51 1367.11 1529.62 Q1372.32 1526.72 1379.09 1526.72 Q1390.26 1526.72 1395.99 1533.67 Q1401.72 1540.55 1401.72 1553.98 Z" fill="#000000" fill-rule="nonzero" fill-opacity="1" /><path clip-path="url(#clip200)" d="M1422.55 1503.05 L1433.26 1503.05 L1433.26 1556.24 L1465.03 1528.29 L1478.63 1528.29 L1444.25 1558.61 L1480.07 1593.1 L1466.18 1593.1 L1433.26 1561.44 L1433.26 1593.1 L1422.55 1593.1 L1422.55 1503.05 Z" fill="#000000" fill-rule="nonzero" fill-opacity="1" /><polyline clip-path="url(#clip200)" style="stroke:#000000; stroke-linecap:round; stroke-linejoin:round; stroke-width:4; stroke-opacity:1; fill:none" points="353.399,1349.74 353.399,47.2441 "/>
<polyline clip-path="url(#clip200)" style="stroke:#000000; stroke-linecap:round; stroke-linejoin:round; stroke-width:4; stroke-opacity:1; fill:none" points="353.399,1312.88 372.296,1312.88 "/>
<polyline clip-path="url(#clip200)" style="stroke:#000000; stroke-linecap:round; stroke-linejoin:round; stroke-width:4; stroke-opacity:1; fill:none" points="353.399,1005.68 372.296,1005.68 "/>
<polyline clip-path="url(#clip200)" style="stroke:#000000; stroke-linecap:round; stroke-linejoin:round; stroke-width:4; stroke-opacity:1; fill:none" points="353.399,698.492 372.296,698.492 "/>
<polyline clip-path="url(#clip200)" style="stroke:#000000; stroke-linecap:round; stroke-linejoin:round; stroke-width:4; stroke-opacity:1; fill:none" points="353.399,391.3 372.296,391.3 "/>
<polyline clip-path="url(#clip200)" style="stroke:#000000; stroke-linecap:round; stroke-linejoin:round; stroke-width:4; stroke-opacity:1; fill:none" points="353.399,84.1072 372.296,84.1072 "/>
<path clip-path="url(#clip200)" d="M293.51 1284.47 Q286.288 1284.47 282.63 1291.6 Q279.019 1298.69 279.019 1312.95 Q279.019 1327.16 282.63 1334.29 Q286.288 1341.37 293.51 1341.37 Q300.778 1341.37 304.389 1334.29 Q308.047 1327.16 308.047 1312.95 Q308.047 1298.69 304.389 1291.6 Q300.778 1284.47 293.51 1284.47 M293.51 1277.07 Q305.13 1277.07 311.241 1286.28 Q317.399 1295.45 317.399 1312.95 Q317.399 1330.4 311.241 1339.61 Q305.13 1348.78 293.51 1348.78 Q281.889 1348.78 275.732 1339.61 Q269.621 1330.4 269.621 1312.95 Q269.621 1295.45 275.732 1286.28 Q281.889 1277.07 293.51 1277.07 Z" fill="#000000" fill-rule="nonzero" fill-opacity="1" /><path clip-path="url(#clip200)" d="M223.232 1032.37 L255.871 1032.37 L255.871 1040.24 L211.982 1040.24 L211.982 1032.37 Q217.306 1026.86 226.473 1017.61 Q235.686 1008.3 238.047 1005.61 Q242.538 1000.57 244.297 997.096 Q246.103 993.578 246.103 990.198 Q246.103 984.689 242.214 981.217 Q238.371 977.745 232.168 977.745 Q227.769 977.745 222.862 979.272 Q218.001 980.8 212.445 983.902 L212.445 974.458 Q218.094 972.189 223.001 971.032 Q227.908 969.874 231.982 969.874 Q242.723 969.874 249.112 975.245 Q255.501 980.615 255.501 989.596 Q255.501 993.856 253.88 997.698 Q252.306 1001.49 248.093 1006.68 Q246.936 1008.02 240.732 1014.46 Q234.529 1020.85 223.232 1032.37 Z" fill="#000000" fill-rule="nonzero" fill-opacity="1" /><path clip-path="url(#clip200)" d="M275.593 971.124 L312.306 971.124 L312.306 978.995 L284.158 978.995 L284.158 995.939 Q286.195 995.245 288.232 994.921 Q290.269 994.55 292.306 994.55 Q303.88 994.55 310.639 1000.89 Q317.399 1007.24 317.399 1018.07 Q317.399 1029.23 310.454 1035.43 Q303.51 1041.59 290.871 1041.59 Q286.519 1041.59 281.982 1040.85 Q277.491 1040.11 272.677 1038.62 L272.677 1029.23 Q276.843 1031.49 281.288 1032.61 Q285.732 1033.72 290.686 1033.72 Q298.695 1033.72 303.371 1029.5 Q308.047 1025.29 308.047 1018.07 Q308.047 1010.85 303.371 1006.63 Q298.695 1002.42 290.686 1002.42 Q286.936 1002.42 283.186 1003.25 Q279.482 1004.09 275.593 1005.85 L275.593 971.124 Z" fill="#000000" fill-rule="nonzero" fill-opacity="1" /><path clip-path="url(#clip200)" d="M213.279 663.932 L249.991 663.932 L249.991 671.802 L221.843 671.802 L221.843 688.747 Q223.881 688.052 225.918 687.728 Q227.955 687.358 229.992 687.358 Q241.566 687.358 248.325 693.7 Q255.084 700.043 255.084 710.876 Q255.084 722.034 248.14 728.237 Q241.195 734.395 228.556 734.395 Q224.205 734.395 219.668 733.654 Q215.177 732.913 210.362 731.432 L210.362 722.034 Q214.529 724.302 218.973 725.413 Q223.418 726.524 228.371 726.524 Q236.38 726.524 241.056 722.311 Q245.732 718.098 245.732 710.876 Q245.732 703.654 241.056 699.441 Q236.38 695.228 228.371 695.228 Q224.621 695.228 220.871 696.061 Q217.168 696.895 213.279 698.654 L213.279 663.932 Z" fill="#000000" fill-rule="nonzero" fill-opacity="1" /><path clip-path="url(#clip200)" d="M293.51 670.089 Q286.288 670.089 282.63 677.219 Q279.019 684.302 279.019 698.561 Q279.019 712.774 282.63 719.904 Q286.288 726.987 293.51 726.987 Q300.778 726.987 304.389 719.904 Q308.047 712.774 308.047 698.561 Q308.047 684.302 304.389 677.219 Q300.778 670.089 293.51 670.089 M293.51 662.682 Q305.13 662.682 311.241 671.895 Q317.399 681.062 317.399 698.561 Q317.399 716.015 311.241 725.228 Q305.13 734.395 293.51 734.395 Q281.889 734.395 275.732 725.228 Q269.621 716.015 269.621 698.561 Q269.621 681.062 275.732 671.895 Q281.889 662.682 293.51 662.682 Z" fill="#000000" fill-rule="nonzero" fill-opacity="1" /><path clip-path="url(#clip200)" d="M212.816 356.74 L257.26 356.74 L257.26 360.721 L232.168 425.86 L222.399 425.86 L246.01 364.61 L212.816 364.61 L212.816 356.74 Z" fill="#000000" fill-rule="nonzero" fill-opacity="1" /><path clip-path="url(#clip200)" d="M275.593 356.74 L312.306 356.74 L312.306 364.61 L284.158 364.61 L284.158 381.554 Q286.195 380.86 288.232 380.536 Q290.269 380.165 292.306 380.165 Q303.88 380.165 310.639 386.508 Q317.399 392.85 317.399 403.684 Q317.399 414.841 310.454 421.045 Q303.51 427.202 290.871 427.202 Q286.519 427.202 281.982 426.461 Q277.491 425.721 272.677 424.239 L272.677 414.841 Q276.843 417.11 281.288 418.221 Q285.732 419.332 290.686 419.332 Q298.695 419.332 303.371 415.119 Q308.047 410.906 308.047 403.684 Q308.047 396.462 303.371 392.249 Q298.695 388.036 290.686 388.036 Q286.936 388.036 283.186 388.869 Q279.482 389.702 275.593 391.462 L275.593 356.74 Z" fill="#000000" fill-rule="nonzero" fill-opacity="1" /><path clip-path="url(#clip200)" d="M154.483 110.797 L169.76 110.797 L169.76 58.0657 L153.14 61.399 L153.14 52.8805 L169.668 49.5472 L179.02 49.5472 L179.02 110.797 L194.297 110.797 L194.297 118.667 L154.483 118.667 L154.483 110.797 Z" fill="#000000" fill-rule="nonzero" fill-opacity="1" /><path clip-path="url(#clip200)" d="M233.186 55.7046 Q225.964 55.7046 222.306 62.8341 Q218.695 69.9174 218.695 84.1766 Q218.695 98.3895 222.306 105.519 Q225.964 112.602 233.186 112.602 Q240.455 112.602 244.066 105.519 Q247.723 98.3895 247.723 84.1766 Q247.723 69.9174 244.066 62.8341 Q240.455 55.7046 233.186 55.7046 M233.186 48.2972 Q244.806 48.2972 250.917 57.5101 Q257.075 66.6767 257.075 84.1766 Q257.075 101.63 250.917 110.843 Q244.806 120.01 233.186 120.01 Q221.566 120.01 215.408 110.843 Q209.297 101.63 209.297 84.1766 Q209.297 66.6767 215.408 57.5101 Q221.566 48.2972 233.186 48.2972 Z" fill="#000000" fill-rule="nonzero" fill-opacity="1" /><path clip-path="url(#clip200)" d="M293.51 55.7046 Q286.288 55.7046 282.63 62.8341 Q279.019 69.9174 279.019 84.1766 Q279.019 98.3895 282.63 105.519 Q286.288 112.602 293.51 112.602 Q300.778 112.602 304.389 105.519 Q308.047 98.3895 308.047 84.1766 Q308.047 69.9174 304.389 62.8341 Q300.778 55.7046 293.51 55.7046 M293.51 48.2972 Q305.13 48.2972 311.241 57.5101 Q317.399 66.6767 317.399 84.1766 Q317.399 101.63 311.241 110.843 Q305.13 120.01 293.51 120.01 Q281.889 120.01 275.732 110.843 Q269.621 101.63 269.621 84.1766 Q269.621 66.6767 275.732 57.5101 Q281.889 48.2972 293.51 48.2972 Z" fill="#000000" fill-rule="nonzero" fill-opacity="1" /><path clip-path="url(#clip200)" d="M4.82016 909.052 L4.82016 893.312 L77.0999 855.002 L4.82016 855.002 L4.82016 843.659 L91.2202 843.659 L91.2202 859.4 L18.9405 897.71 L91.2202 897.71 L91.2202 909.052 L4.82016 909.052 Z" fill="#000000" fill-rule="nonzero" fill-opacity="1" /><path clip-path="url(#clip200)" d="M50.7111 779.423 Q51.9843 775.662 56.1509 772.132 Q60.3175 768.544 67.6092 764.956 L91.2202 753.092 L91.2202 765.65 L69.0559 776.703 Q60.3754 780.986 57.5398 785.037 Q54.7041 789.03 54.7041 795.974 L54.7041 808.705 L91.2202 808.705 L91.2202 820.395 L4.82016 820.395 L4.82016 794.007 Q4.82016 779.192 11.0123 771.9 Q17.2044 764.609 29.7043 764.609 Q37.864 764.609 43.2459 768.428 Q48.6278 772.189 50.7111 779.423 M14.4266 808.705 L45.0977 808.705 L45.0977 794.007 Q45.0977 785.557 41.2204 781.275 Q37.2853 776.935 29.7043 776.935 Q22.1233 776.935 18.3039 781.275 Q14.4266 785.557 14.4266 794.007 L14.4266 808.705 Z" fill="#000000" fill-rule="nonzero" fill-opacity="1" /><path clip-path="url(#clip200)" d="M4.82016 738.046 L4.82016 720.627 L63.6161 698.579 L4.82016 676.415 L4.82016 658.996 L91.2202 658.996 L91.2202 670.396 L15.3525 670.396 L74.6115 692.676 L74.6115 704.424 L15.3525 726.704 L91.2202 726.704 L91.2202 738.046 L4.82016 738.046 Z" fill="#000000" fill-rule="nonzero" fill-opacity="1" /><path clip-path="url(#clip200)" d="M7.65579 583.996 L19.0562 583.996 Q15.8733 590.651 14.3108 596.554 Q12.7484 602.457 12.7484 607.954 Q12.7484 617.503 16.452 622.711 Q20.1557 627.862 26.9844 627.862 Q32.7135 627.862 35.6649 624.447 Q38.5584 620.975 40.3524 611.369 L41.7991 604.308 Q44.2875 591.23 50.5954 585.038 Q56.8453 578.788 67.3777 578.788 Q79.9355 578.788 86.4169 587.237 Q92.8984 595.628 92.8984 611.889 Q92.8984 618.024 91.5095 624.968 Q90.1206 631.855 87.4007 639.262 L75.3638 639.262 Q79.3568 632.144 81.3822 625.315 Q83.4077 618.487 83.4077 611.889 Q83.4077 601.878 79.4725 596.438 Q75.5374 590.998 68.2457 590.998 Q61.88 590.998 58.2921 594.933 Q54.7041 598.811 52.9102 607.723 L51.5213 614.841 Q48.9171 627.919 43.3616 633.764 Q37.8061 639.609 27.9103 639.609 Q16.452 639.609 9.85485 631.565 Q3.25767 623.463 3.25767 609.285 Q3.25767 603.209 4.3572 596.901 Q5.45673 590.593 7.65579 583.996 Z" fill="#000000" fill-rule="nonzero" fill-opacity="1" /><path clip-path="url(#clip200)" d="M14.4266 548.869 L81.6137 548.869 L81.6137 534.749 Q81.6137 516.867 73.5119 508.591 Q65.4101 500.258 47.9334 500.258 Q30.5723 500.258 22.5284 508.591 Q14.4266 516.867 14.4266 534.749 L14.4266 548.869 M4.82016 560.559 L4.82016 536.543 Q4.82016 511.427 15.2946 499.679 Q25.7112 487.932 47.9334 487.932 Q70.2712 487.932 80.7457 499.737 Q91.2202 511.543 91.2202 536.543 L91.2202 560.559 L4.82016 560.559 Z" fill="#000000" fill-rule="nonzero" fill-opacity="1" /><circle clip-path="url(#clip201)" cx="409.984" cy="84.1072" r="25.2" fill="#009af9" fill-rule="evenodd" fill-opacity="1" stroke="none"/>
<circle clip-path="url(#clip201)" cx="598.603" cy="237.956" r="25.2" fill="#009af9" fill-rule="evenodd" fill-opacity="1" stroke="none"/>
<circle clip-path="url(#clip201)" cx="787.221" cy="577.691" r="25.2" fill="#009af9" fill-rule="evenodd" fill-opacity="1" stroke="none"/>
<circle clip-path="url(#clip201)" cx="975.84" cy="773.995" r="25.2" fill="#009af9" fill-rule="evenodd" fill-opacity="1" stroke="none"/>
<circle clip-path="url(#clip201)" cx="1164.46" cy="901.063" r="25.2" fill="#009af9" fill-rule="evenodd" fill-opacity="1" stroke="none"/>
<circle clip-path="url(#clip201)" cx="1353.08" cy="949.14" r="25.2" fill="#009af9" fill-rule="evenodd" fill-opacity="1" stroke="none"/>
<circle clip-path="url(#clip201)" cx="1541.7" cy="950.318" r="25.2" fill="#009af9" fill-rule="evenodd" fill-opacity="1" stroke="none"/>
<circle clip-path="url(#clip201)" cx="1730.31" cy="951.969" r="25.2" fill="#009af9" fill-rule="evenodd" fill-opacity="1" stroke="none"/>
<circle clip-path="url(#clip201)" cx="1918.93" cy="954.168" r="25.2" fill="#009af9" fill-rule="evenodd" fill-opacity="1" stroke="none"/>
<circle clip-path="url(#clip201)" cx="2107.55" cy="956.711" r="25.2" fill="#009af9" fill-rule="evenodd" fill-opacity="1" stroke="none"/>
<circle clip-path="url(#clip201)" cx="2296.17" cy="958.729" r="25.2" fill="#009af9" fill-rule="evenodd" fill-opacity="1" stroke="none"/>
<line clip-path="url(#clip201)" x1="409.984" y1="84.1072" x2="381.984" y2="56.1072" style="stroke:#e26f46; stroke-width:3.2; stroke-opacity:1"/>
<line clip-path="url(#clip201)" x1="409.984" y1="84.1072" x2="381.984" y2="112.107" style="stroke:#e26f46; stroke-width:3.2; stroke-opacity:1"/>
<line clip-path="url(#clip201)" x1="409.984" y1="84.1072" x2="437.984" y2="112.107" style="stroke:#e26f46; stroke-width:3.2; stroke-opacity:1"/>
<line clip-path="url(#clip201)" x1="409.984" y1="84.1072" x2="437.984" y2="56.1072" style="stroke:#e26f46; stroke-width:3.2; stroke-opacity:1"/>
<line clip-path="url(#clip201)" x1="598.603" y1="358.693" x2="570.603" y2="330.693" style="stroke:#e26f46; stroke-width:3.2; stroke-opacity:1"/>
<line clip-path="url(#clip201)" x1="598.603" y1="358.693" x2="570.603" y2="386.693" style="stroke:#e26f46; stroke-width:3.2; stroke-opacity:1"/>
<line clip-path="url(#clip201)" x1="598.603" y1="358.693" x2="626.603" y2="386.693" style="stroke:#e26f46; stroke-width:3.2; stroke-opacity:1"/>
<line clip-path="url(#clip201)" x1="598.603" y1="358.693" x2="626.603" y2="330.693" style="stroke:#e26f46; stroke-width:3.2; stroke-opacity:1"/>
<line clip-path="url(#clip201)" x1="787.221" y1="611.868" x2="759.221" y2="583.868" style="stroke:#e26f46; stroke-width:3.2; stroke-opacity:1"/>
<line clip-path="url(#clip201)" x1="787.221" y1="611.868" x2="759.221" y2="639.868" style="stroke:#e26f46; stroke-width:3.2; stroke-opacity:1"/>
<line clip-path="url(#clip201)" x1="787.221" y1="611.868" x2="815.221" y2="639.868" style="stroke:#e26f46; stroke-width:3.2; stroke-opacity:1"/>
<line clip-path="url(#clip201)" x1="787.221" y1="611.868" x2="815.221" y2="583.868" style="stroke:#e26f46; stroke-width:3.2; stroke-opacity:1"/>
<line clip-path="url(#clip201)" x1="975.84" y1="817.809" x2="947.84" y2="789.809" style="stroke:#e26f46; stroke-width:3.2; stroke-opacity:1"/>
<line clip-path="url(#clip201)" x1="975.84" y1="817.809" x2="947.84" y2="845.809" style="stroke:#e26f46; stroke-width:3.2; stroke-opacity:1"/>
<line clip-path="url(#clip201)" x1="975.84" y1="817.809" x2="1003.84" y2="845.809" style="stroke:#e26f46; stroke-width:3.2; stroke-opacity:1"/>
<line clip-path="url(#clip201)" x1="975.84" y1="817.809" x2="1003.84" y2="789.809" style="stroke:#e26f46; stroke-width:3.2; stroke-opacity:1"/>
<line clip-path="url(#clip201)" x1="1164.46" y1="938.741" x2="1136.46" y2="910.741" style="stroke:#e26f46; stroke-width:3.2; stroke-opacity:1"/>
<line clip-path="url(#clip201)" x1="1164.46" y1="938.741" x2="1136.46" y2="966.741" style="stroke:#e26f46; stroke-width:3.2; stroke-opacity:1"/>
<line clip-path="url(#clip201)" x1="1164.46" y1="938.741" x2="1192.46" y2="966.741" style="stroke:#e26f46; stroke-width:3.2; stroke-opacity:1"/>
<line clip-path="url(#clip201)" x1="1164.46" y1="938.741" x2="1192.46" y2="910.741" style="stroke:#e26f46; stroke-width:3.2; stroke-opacity:1"/>
<line clip-path="url(#clip201)" x1="1353.08" y1="983.753" x2="1325.08" y2="955.753" style="stroke:#e26f46; stroke-width:3.2; stroke-opacity:1"/>
<line clip-path="url(#clip201)" x1="1353.08" y1="983.753" x2="1325.08" y2="1011.75" style="stroke:#e26f46; stroke-width:3.2; stroke-opacity:1"/>
<line clip-path="url(#clip201)" x1="1353.08" y1="983.753" x2="1381.08" y2="1011.75" style="stroke:#e26f46; stroke-width:3.2; stroke-opacity:1"/>
<line clip-path="url(#clip201)" x1="1353.08" y1="983.753" x2="1381.08" y2="955.753" style="stroke:#e26f46; stroke-width:3.2; stroke-opacity:1"/>
<line clip-path="url(#clip201)" x1="1541.7" y1="986.425" x2="1513.7" y2="958.425" style="stroke:#e26f46; stroke-width:3.2; stroke-opacity:1"/>
<line clip-path="url(#clip201)" x1="1541.7" y1="986.425" x2="1513.7" y2="1014.43" style="stroke:#e26f46; stroke-width:3.2; stroke-opacity:1"/>
<line clip-path="url(#clip201)" x1="1541.7" y1="986.425" x2="1569.7" y2="1014.43" style="stroke:#e26f46; stroke-width:3.2; stroke-opacity:1"/>
<line clip-path="url(#clip201)" x1="1541.7" y1="986.425" x2="1569.7" y2="958.425" style="stroke:#e26f46; stroke-width:3.2; stroke-opacity:1"/>
<line clip-path="url(#clip201)" x1="1730.31" y1="990.084" x2="1702.31" y2="962.084" style="stroke:#e26f46; stroke-width:3.2; stroke-opacity:1"/>
<line clip-path="url(#clip201)" x1="1730.31" y1="990.084" x2="1702.31" y2="1018.08" style="stroke:#e26f46; stroke-width:3.2; stroke-opacity:1"/>
<line clip-path="url(#clip201)" x1="1730.31" y1="990.084" x2="1758.31" y2="1018.08" style="stroke:#e26f46; stroke-width:3.2; stroke-opacity:1"/>
<line clip-path="url(#clip201)" x1="1730.31" y1="990.084" x2="1758.31" y2="962.084" style="stroke:#e26f46; stroke-width:3.2; stroke-opacity:1"/>
<line clip-path="url(#clip201)" x1="1918.93" y1="993.943" x2="1890.93" y2="965.943" style="stroke:#e26f46; stroke-width:3.2; stroke-opacity:1"/>
<line clip-path="url(#clip201)" x1="1918.93" y1="993.943" x2="1890.93" y2="1021.94" style="stroke:#e26f46; stroke-width:3.2; stroke-opacity:1"/>
<line clip-path="url(#clip201)" x1="1918.93" y1="993.943" x2="1946.93" y2="1021.94" style="stroke:#e26f46; stroke-width:3.2; stroke-opacity:1"/>
<line clip-path="url(#clip201)" x1="1918.93" y1="993.943" x2="1946.93" y2="965.943" style="stroke:#e26f46; stroke-width:3.2; stroke-opacity:1"/>
<line clip-path="url(#clip201)" x1="2107.55" y1="999.18" x2="2079.55" y2="971.18" style="stroke:#e26f46; stroke-width:3.2; stroke-opacity:1"/>
<line clip-path="url(#clip201)" x1="2107.55" y1="999.18" x2="2079.55" y2="1027.18" style="stroke:#e26f46; stroke-width:3.2; stroke-opacity:1"/>
<line clip-path="url(#clip201)" x1="2107.55" y1="999.18" x2="2135.55" y2="1027.18" style="stroke:#e26f46; stroke-width:3.2; stroke-opacity:1"/>
<line clip-path="url(#clip201)" x1="2107.55" y1="999.18" x2="2135.55" y2="971.18" style="stroke:#e26f46; stroke-width:3.2; stroke-opacity:1"/>
<line clip-path="url(#clip201)" x1="2296.17" y1="1003.46" x2="2268.17" y2="975.462" style="stroke:#e26f46; stroke-width:3.2; stroke-opacity:1"/>
<line clip-path="url(#clip201)" x1="2296.17" y1="1003.46" x2="2268.17" y2="1031.46" style="stroke:#e26f46; stroke-width:3.2; stroke-opacity:1"/>
<line clip-path="url(#clip201)" x1="2296.17" y1="1003.46" x2="2324.17" y2="1031.46" style="stroke:#e26f46; stroke-width:3.2; stroke-opacity:1"/>
<line clip-path="url(#clip201)" x1="2296.17" y1="1003.46" x2="2324.17" y2="975.462" style="stroke:#e26f46; stroke-width:3.2; stroke-opacity:1"/>
<circle clip-path="url(#clip201)" cx="2296.17" cy="958.729" r="14.4" fill="#000000" fill-rule="evenodd" fill-opacity="1" stroke="none"/>
<line clip-path="url(#clip201)" x1="2296.17" y1="1003.46" x2="2280.17" y2="987.462" style="stroke:#000000; stroke-width:4; stroke-opacity:1"/>
<line clip-path="url(#clip201)" x1="2296.17" y1="1003.46" x2="2280.17" y2="1019.46" style="stroke:#000000; stroke-width:4; stroke-opacity:1"/>
<line clip-path="url(#clip201)" x1="2296.17" y1="1003.46" x2="2312.17" y2="1019.46" style="stroke:#000000; stroke-width:4; stroke-opacity:1"/>
<line clip-path="url(#clip201)" x1="2296.17" y1="1003.46" x2="2312.17" y2="987.462" style="stroke:#000000; stroke-width:4; stroke-opacity:1"/>
<path clip-path="url(#clip200)" d="M1577.46 421.141 L2286.11 421.141 L2286.11 90.6606 L1577.46 90.6606  Z" fill="#ffffff" fill-rule="evenodd" fill-opacity="1"/>
<polyline clip-path="url(#clip200)" style="stroke:#000000; stroke-linecap:round; stroke-linejoin:round; stroke-width:4; stroke-opacity:1; fill:none" points="1577.46,421.141 2286.11,421.141 2286.11,90.6606 1577.46,90.6606 1577.46,421.141 "/>
<circle clip-path="url(#clip200)" cx="1666.32" cy="200.821" r="45.696" fill="#009af9" fill-rule="evenodd" fill-opacity="1" stroke="none"/>
<path clip-path="url(#clip200)" d="M1795.07 210.044 Q1795.07 200.058 1790.94 194.401 Q1786.86 188.695 1779.67 188.695 Q1772.49 188.695 1768.36 194.401 Q1764.28 200.058 1764.28 210.044 Q1764.28 220.029 1768.36 225.735 Q1772.49 231.392 1779.67 231.392 Q1786.86 231.392 1790.94 225.735 Q1795.07 220.029 1795.07 210.044 M1764.28 190.811 Q1767.13 185.892 1771.46 183.53 Q1775.84 181.12 1781.89 181.12 Q1791.92 181.12 1798.17 189.089 Q1804.47 197.058 1804.47 210.044 Q1804.47 223.03 1798.17 230.998 Q1791.92 238.967 1781.89 238.967 Q1775.84 238.967 1771.46 236.606 Q1767.13 234.196 1764.28 229.277 L1764.28 237.541 L1755.18 237.541 L1755.18 161.002 L1764.28 161.002 L1764.28 190.811 Z" fill="#000000" fill-rule="nonzero" fill-opacity="1" /><path clip-path="url(#clip200)" d="M1842.39 242.656 Q1838.55 252.494 1834.91 255.495 Q1831.27 258.495 1825.17 258.495 L1817.94 258.495 L1817.94 250.92 L1823.26 250.92 Q1826.99 250.92 1829.06 249.149 Q1831.13 247.379 1833.63 240.787 L1835.26 236.655 L1812.97 182.448 L1822.57 182.448 L1839.78 225.538 L1857 182.448 L1866.59 182.448 L1842.39 242.656 Z" fill="#000000" fill-rule="nonzero" fill-opacity="1" /><path clip-path="url(#clip200)" d="M1950.75 184.563 L1950.75 193.024 Q1946.92 190.909 1943.03 189.876 Q1939.2 188.794 1935.26 188.794 Q1926.46 188.794 1921.59 194.401 Q1916.72 199.96 1916.72 210.044 Q1916.72 220.128 1921.59 225.735 Q1926.46 231.294 1935.26 231.294 Q1939.2 231.294 1943.03 230.261 Q1946.92 229.178 1950.75 227.063 L1950.75 235.425 Q1946.97 237.196 1942.88 238.082 Q1938.85 238.967 1934.28 238.967 Q1921.83 238.967 1914.5 231.146 Q1907.17 223.325 1907.17 210.044 Q1907.17 196.566 1914.55 188.843 Q1921.98 181.12 1934.87 181.12 Q1939.05 181.12 1943.03 182.006 Q1947.02 182.842 1950.75 184.563 Z" fill="#000000" fill-rule="nonzero" fill-opacity="1" /><path clip-path="url(#clip200)" d="M1987.84 188.794 Q1980.56 188.794 1976.33 194.5 Q1972.1 200.157 1972.1 210.044 Q1972.1 219.931 1976.28 225.637 Q1980.51 231.294 1987.84 231.294 Q1995.07 231.294 1999.3 225.588 Q2003.54 219.882 2003.54 210.044 Q2003.54 200.255 1999.3 194.549 Q1995.07 188.794 1987.84 188.794 M1987.84 181.12 Q1999.65 181.12 2006.39 188.794 Q2013.13 196.467 2013.13 210.044 Q2013.13 223.571 2006.39 231.294 Q1999.65 238.967 1987.84 238.967 Q1975.99 238.967 1969.25 231.294 Q1962.56 223.571 1962.56 210.044 Q1962.56 196.467 1969.25 188.794 Q1975.99 181.12 1987.84 181.12 Z" fill="#000000" fill-rule="nonzero" fill-opacity="1" /><path clip-path="url(#clip200)" d="M2028.13 161.002 L2037.18 161.002 L2037.18 237.541 L2028.13 237.541 L2028.13 161.002 Z" fill="#000000" fill-rule="nonzero" fill-opacity="1" /><path clip-path="url(#clip200)" d="M2055.18 215.799 L2055.18 182.448 L2064.24 182.448 L2064.24 215.455 Q2064.24 223.276 2067.28 227.211 Q2070.33 231.097 2076.43 231.097 Q2083.76 231.097 2087.99 226.424 Q2092.27 221.751 2092.27 213.684 L2092.27 182.448 L2101.32 182.448 L2101.32 237.541 L2092.27 237.541 L2092.27 229.08 Q2088.98 234.097 2084.6 236.557 Q2080.27 238.967 2074.52 238.967 Q2065.02 238.967 2060.1 233.064 Q2055.18 227.162 2055.18 215.799 M2077.96 181.12 L2077.96 181.12 Z" fill="#000000" fill-rule="nonzero" fill-opacity="1" /><path clip-path="url(#clip200)" d="M2162.86 193.024 Q2166.25 186.925 2170.98 184.022 Q2175.7 181.12 2182.09 181.12 Q2190.7 181.12 2195.37 187.171 Q2200.05 193.172 2200.05 204.288 L2200.05 237.541 L2190.95 237.541 L2190.95 204.584 Q2190.95 196.664 2188.14 192.827 Q2185.34 188.991 2179.58 188.991 Q2172.55 188.991 2168.47 193.664 Q2164.39 198.337 2164.39 206.404 L2164.39 237.541 L2155.29 237.541 L2155.29 204.584 Q2155.29 196.615 2152.48 192.827 Q2149.68 188.991 2143.82 188.991 Q2136.89 188.991 2132.81 193.713 Q2128.72 198.386 2128.72 206.404 L2128.72 237.541 L2119.62 237.541 L2119.62 182.448 L2128.72 182.448 L2128.72 191.007 Q2131.82 185.941 2136.15 183.53 Q2140.48 181.12 2146.43 181.12 Q2152.43 181.12 2156.61 184.17 Q2160.84 187.22 2162.86 193.024 Z" fill="#000000" fill-rule="nonzero" fill-opacity="1" /><path clip-path="url(#clip200)" d="M2263.9 204.288 L2263.9 237.541 L2254.84 237.541 L2254.84 204.584 Q2254.84 196.762 2251.79 192.877 Q2248.75 188.991 2242.65 188.991 Q2235.32 188.991 2231.09 193.664 Q2226.86 198.337 2226.86 206.404 L2226.86 237.541 L2217.76 237.541 L2217.76 182.448 L2226.86 182.448 L2226.86 191.007 Q2230.1 186.039 2234.48 183.58 Q2238.91 181.12 2244.66 181.12 Q2254.16 181.12 2259.03 187.023 Q2263.9 192.877 2263.9 204.288 Z" fill="#000000" fill-rule="nonzero" fill-opacity="1" /><line clip-path="url(#clip200)" x1="1666.32" y1="310.981" x2="1615.54" y2="260.207" style="stroke:#e26f46; stroke-width:5.80267; stroke-opacity:1"/>
<line clip-path="url(#clip200)" x1="1666.32" y1="310.981" x2="1615.54" y2="361.754" style="stroke:#e26f46; stroke-width:5.80267; stroke-opacity:1"/>
<line clip-path="url(#clip200)" x1="1666.32" y1="310.981" x2="1717.09" y2="361.754" style="stroke:#e26f46; stroke-width:5.80267; stroke-opacity:1"/>
<line clip-path="url(#clip200)" x1="1666.32" y1="310.981" x2="1717.09" y2="260.207" style="stroke:#e26f46; stroke-width:5.80267; stroke-opacity:1"/>
<path clip-path="url(#clip200)" d="M1795.07 320.204 Q1795.07 310.218 1790.94 304.561 Q1786.86 298.855 1779.67 298.855 Q1772.49 298.855 1768.36 304.561 Q1764.28 310.218 1764.28 320.204 Q1764.28 330.189 1768.36 335.895 Q1772.49 341.552 1779.67 341.552 Q1786.86 341.552 1790.94 335.895 Q1795.07 330.189 1795.07 320.204 M1764.28 300.971 Q1767.13 296.052 1771.46 293.69 Q1775.84 291.28 1781.89 291.28 Q1791.92 291.28 1798.17 299.249 Q1804.47 307.218 1804.47 320.204 Q1804.47 333.19 1798.17 341.158 Q1791.92 349.127 1781.89 349.127 Q1775.84 349.127 1771.46 346.766 Q1767.13 344.356 1764.28 339.437 L1764.28 347.701 L1755.18 347.701 L1755.18 271.162 L1764.28 271.162 L1764.28 300.971 Z" fill="#000000" fill-rule="nonzero" fill-opacity="1" /><path clip-path="url(#clip200)" d="M1842.39 352.816 Q1838.55 362.654 1834.91 365.655 Q1831.27 368.655 1825.17 368.655 L1817.94 368.655 L1817.94 361.08 L1823.26 361.08 Q1826.99 361.08 1829.06 359.309 Q1831.13 357.539 1833.63 350.947 L1835.26 346.815 L1812.97 292.608 L1822.57 292.608 L1839.78 335.698 L1857 292.608 L1866.59 292.608 L1842.39 352.816 Z" fill="#000000" fill-rule="nonzero" fill-opacity="1" /><path clip-path="url(#clip200)" d="M1943.03 301.069 Q1941.51 300.184 1939.69 299.79 Q1937.92 299.347 1935.75 299.347 Q1928.08 299.347 1923.95 304.365 Q1919.86 309.333 1919.86 318.679 L1919.86 347.701 L1910.76 347.701 L1910.76 292.608 L1919.86 292.608 L1919.86 301.167 Q1922.72 296.15 1927.29 293.74 Q1931.87 291.28 1938.41 291.28 Q1939.34 291.28 1940.47 291.428 Q1941.61 291.526 1942.98 291.772 L1943.03 301.069 Z" fill="#000000" fill-rule="nonzero" fill-opacity="1" /><path clip-path="url(#clip200)" d="M1971.66 298.954 Q1964.38 298.954 1960.15 304.66 Q1955.92 310.317 1955.92 320.204 Q1955.92 330.091 1960.1 335.797 Q1964.33 341.454 1971.66 341.454 Q1978.89 341.454 1983.12 335.748 Q1987.35 330.042 1987.35 320.204 Q1987.35 310.415 1983.12 304.709 Q1978.89 298.954 1971.66 298.954 M1971.66 291.28 Q1983.47 291.28 1990.2 298.954 Q1996.94 306.627 1996.94 320.204 Q1996.94 333.731 1990.2 341.454 Q1983.47 349.127 1971.66 349.127 Q1959.81 349.127 1953.07 341.454 Q1946.38 333.731 1946.38 320.204 Q1946.38 306.627 1953.07 298.954 Q1959.81 291.28 1971.66 291.28 Z" fill="#000000" fill-rule="nonzero" fill-opacity="1" /><path clip-path="url(#clip200)" d="M2006.68 292.608 L2015.73 292.608 L2027.05 335.6 L2038.31 292.608 L2048.99 292.608 L2060.3 335.6 L2071.56 292.608 L2080.62 292.608 L2066.2 347.701 L2055.53 347.701 L2043.67 302.545 L2031.77 347.701 L2021.1 347.701 L2006.68 292.608 Z" fill="#000000" fill-rule="nonzero" fill-opacity="1" /></svg>
