<?xml version="1.0" encoding="utf-8"?>
<svg xmlns="http://www.w3.org/2000/svg" xmlns:xlink="http://www.w3.org/1999/xlink" width="600" height="400" viewBox="0 0 2400 1600">
<defs>
  <clipPath id="clip960">
    <rect x="0" y="0" width="2400" height="1600"/>
  </clipPath>
</defs>
<path clip-path="url(#clip960)" d="M0 1600 L2400 1600 L2400 0 L0 0  Z" fill="#ffffff" fill-rule="evenodd" fill-opacity="1"/>
<defs>
  <clipPath id="clip961">
    <rect x="232" y="47" width="2122" height="1295"/>
  </clipPath>
</defs>
<path clip-path="url(#clip960)" d="M232.204 1341.1 L2352.76 1341.1 L2352.76 47.2441 L232.204 47.2441  Z" fill="#ffffff" fill-rule="evenodd" fill-opacity="1"/>
<polyline clip-path="url(#clip961)" style="stroke:#000000; stroke-linecap:round; stroke-linejoin:round; stroke-width:2; stroke-opacity:0.1; fill:none" points="292.22,1341.1 292.22,47.2441 "/>
<polyline clip-path="url(#clip961)" style="stroke:#000000; stroke-linecap:round; stroke-linejoin:round; stroke-width:2; stroke-opacity:0.1; fill:none" points="792.35,1341.1 792.35,47.2441 "/>
<polyline clip-path="url(#clip961)" style="stroke:#000000; stroke-linecap:round; stroke-linejoin:round; stroke-width:2; stroke-opacity:0.1; fill:none" points="1292.48,1341.1 1292.48,47.2441 "/>
<polyline clip-path="url(#clip961)" style="stroke:#000000; stroke-linecap:round; stroke-linejoin:round; stroke-width:2; stroke-opacity:0.1; fill:none" points="1792.61,1341.1 1792.61,47.2441 "/>
<polyline clip-path="url(#clip961)" style="stroke:#000000; stroke-linecap:round; stroke-linejoin:round; stroke-width:2; stroke-opacity:0.1; fill:none" points="2292.74,1341.1 2292.74,47.2441 "/>
<polyline clip-path="url(#clip961)" style="stroke:#000000; stroke-linecap:round; stroke-linejoin:round; stroke-width:2; stroke-opacity:0.1; fill:none" points="232.204,1341.1 2352.76,1341.1 "/>
<polyline clip-path="url(#clip961)" style="stroke:#000000; stroke-linecap:round; stroke-linejoin:round; stroke-width:2; stroke-opacity:0.1; fill:none" points="232.204,500.094 2352.76,500.094 "/>
<polyline clip-path="url(#clip960)" style="stroke:#000000; stroke-linecap:round; stroke-linejoin:round; stroke-width:4; stroke-opacity:1; fill:none" points="232.204,1341.1 2352.76,1341.1 "/>
<polyline clip-path="url(#clip960)" style="stroke:#000000; stroke-linecap:round; stroke-linejoin:round; stroke-width:4; stroke-opacity:1; fill:none" points="292.22,1341.1 292.22,1322.2 "/>
<polyline clip-path="url(#clip960)" style="stroke:#000000; stroke-linecap:round; stroke-linejoin:round; stroke-width:4; stroke-opacity:1; fill:none" points="792.35,1341.1 792.35,1322.2 "/>
<polyline clip-path="url(#clip960)" style="stroke:#000000; stroke-linecap:round; stroke-linejoin:round; stroke-width:4; stroke-opacity:1; fill:none" points="1292.48,1341.1 1292.48,1322.2 "/>
<polyline clip-path="url(#clip960)" style="stroke:#000000; stroke-linecap:round; stroke-linejoin:round; stroke-width:4; stroke-opacity:1; fill:none" points="1792.61,1341.1 1792.61,1322.2 "/>
<polyline clip-path="url(#clip960)" style="stroke:#000000; stroke-linecap:round; stroke-linejoin:round; stroke-width:4; stroke-opacity:1; fill:none" points="2292.74,1341.1 2292.74,1322.2 "/>
<path clip-path="url(#clip960)" d="M252.642 1380.81 Q246.323 1380.81 243.123 1387.05 Q239.963 1393.24 239.963 1405.72 Q239.963 1418.16 243.123 1424.4 Q246.323 1430.59 252.642 1430.59 Q259.002 1430.59 262.162 1424.4 Q265.362 1418.16 265.362 1405.72 Q265.362 1393.24 262.162 1387.05 Q259.002 1380.81 252.642 1380.81 M252.642 1374.33 Q262.81 1374.33 268.157 1382.39 Q273.545 1390.41 273.545 1405.72 Q273.545 1420.99 268.157 1429.05 Q262.81 1437.07 252.642 1437.07 Q242.475 1437.07 237.087 1429.05 Q231.74 1420.99 231.74 1405.72 Q231.74 1390.41 237.087 1382.39 Q242.475 1374.33 252.642 1374.33 Z" fill="#000000" fill-rule="nonzero" fill-opacity="1" /><path clip-path="url(#clip960)" d="M287.926 1425.61 L296.473 1425.61 L296.473 1435.9 L287.926 1435.9 L287.926 1425.61 Z" fill="#000000" fill-rule="nonzero" fill-opacity="1" /><path clip-path="url(#clip960)" d="M331.797 1380.81 Q325.478 1380.81 322.277 1387.05 Q319.118 1393.24 319.118 1405.72 Q319.118 1418.16 322.277 1424.4 Q325.478 1430.59 331.797 1430.59 Q338.157 1430.59 341.317 1424.4 Q344.517 1418.16 344.517 1405.72 Q344.517 1393.24 341.317 1387.05 Q338.157 1380.81 331.797 1380.81 M331.797 1374.33 Q341.965 1374.33 347.312 1382.39 Q352.7 1390.41 352.7 1405.72 Q352.7 1420.99 347.312 1429.05 Q341.965 1437.07 331.797 1437.07 Q321.629 1437.07 316.242 1429.05 Q310.894 1420.99 310.894 1405.72 Q310.894 1390.41 316.242 1382.39 Q321.629 1374.33 331.797 1374.33 Z" fill="#000000" fill-rule="nonzero" fill-opacity="1" /><path clip-path="url(#clip960)" d="M753.643 1380.81 Q747.324 1380.81 744.124 1387.05 Q740.964 1393.24 740.964 1405.72 Q740.964 1418.16 744.124 1424.4 Q747.324 1430.59 753.643 1430.59 Q760.003 1430.59 763.163 1424.4 Q766.363 1418.16 766.363 1405.72 Q766.363 1393.24 763.163 1387.05 Q760.003 1380.81 753.643 1380.81 M753.643 1374.33 Q763.811 1374.33 769.158 1382.39 Q774.546 1390.41 774.546 1405.72 Q774.546 1420.99 769.158 1429.05 Q763.811 1437.07 753.643 1437.07 Q743.476 1437.07 738.088 1429.05 Q732.741 1420.99 732.741 1405.72 Q732.741 1390.41 738.088 1382.39 Q743.476 1374.33 753.643 1374.33 Z" fill="#000000" fill-rule="nonzero" fill-opacity="1" /><path clip-path="url(#clip960)" d="M788.927 1425.61 L797.474 1425.61 L797.474 1435.9 L788.927 1435.9 L788.927 1425.61 Z" fill="#000000" fill-rule="nonzero" fill-opacity="1" /><path clip-path="url(#clip960)" d="M815.379 1375.42 L847.503 1375.42 L847.503 1382.31 L822.873 1382.31 L822.873 1397.13 Q824.656 1396.53 826.438 1396.24 Q828.221 1395.92 830.003 1395.92 Q840.13 1395.92 846.045 1401.47 Q851.959 1407.02 851.959 1416.5 Q851.959 1426.26 845.883 1431.69 Q839.806 1437.07 828.747 1437.07 Q824.939 1437.07 820.969 1436.43 Q817.04 1435.78 812.827 1434.48 L812.827 1426.26 Q816.473 1428.24 820.362 1429.22 Q824.251 1430.19 828.585 1430.19 Q835.593 1430.19 839.685 1426.5 Q843.776 1422.82 843.776 1416.5 Q843.776 1410.18 839.685 1406.49 Q835.593 1402.8 828.585 1402.8 Q825.304 1402.8 822.023 1403.53 Q818.782 1404.26 815.379 1405.8 L815.379 1375.42 Z" fill="#000000" fill-rule="nonzero" fill-opacity="1" /><path clip-path="url(#clip960)" d="M1235 1429.01 L1248.37 1429.01 L1248.37 1382.87 L1233.82 1385.79 L1233.82 1378.34 L1248.28 1375.42 L1256.47 1375.42 L1256.47 1429.01 L1269.84 1429.01 L1269.84 1435.9 L1235 1435.9 L1235 1429.01 Z" fill="#000000" fill-rule="nonzero" fill-opacity="1" /><path clip-path="url(#clip960)" d="M1286.36 1425.61 L1294.91 1425.61 L1294.91 1435.9 L1286.36 1435.9 L1286.36 1425.61 Z" fill="#000000" fill-rule="nonzero" fill-opacity="1" /><path clip-path="url(#clip960)" d="M1330.23 1380.81 Q1323.92 1380.81 1320.71 1387.05 Q1317.56 1393.24 1317.56 1405.72 Q1317.56 1418.16 1320.71 1424.4 Q1323.92 1430.59 1330.23 1430.59 Q1336.59 1430.59 1339.75 1424.4 Q1342.95 1418.16 1342.95 1405.72 Q1342.95 1393.24 1339.75 1387.05 Q1336.59 1380.81 1330.23 1380.81 M1330.23 1374.33 Q1340.4 1374.33 1345.75 1382.39 Q1351.14 1390.41 1351.14 1405.72 Q1351.14 1420.99 1345.75 1429.05 Q1340.4 1437.07 1330.23 1437.07 Q1320.07 1437.07 1314.68 1429.05 Q1309.33 1420.99 1309.33 1405.72 Q1309.33 1390.41 1314.68 1382.39 Q1320.07 1374.33 1330.23 1374.33 Z" fill="#000000" fill-rule="nonzero" fill-opacity="1" /><path clip-path="url(#clip960)" d="M1736 1429.01 L1749.37 1429.01 L1749.37 1382.87 L1734.82 1385.79 L1734.82 1378.34 L1749.29 1375.42 L1757.47 1375.42 L1757.47 1429.01 L1770.84 1429.01 L1770.84 1435.9 L1736 1435.9 L1736 1429.01 Z" fill="#000000" fill-rule="nonzero" fill-opacity="1" /><path clip-path="url(#clip960)" d="M1787.36 1425.61 L1795.91 1425.61 L1795.91 1435.9 L1787.36 1435.9 L1787.36 1425.61 Z" fill="#000000" fill-rule="nonzero" fill-opacity="1" /><path clip-path="url(#clip960)" d="M1813.82 1375.42 L1845.94 1375.42 L1845.94 1382.31 L1821.31 1382.31 L1821.31 1397.13 Q1823.09 1396.53 1824.88 1396.24 Q1826.66 1395.92 1828.44 1395.92 Q1838.57 1395.92 1844.48 1401.47 Q1850.4 1407.02 1850.4 1416.5 Q1850.4 1426.26 1844.32 1431.69 Q1838.24 1437.07 1827.18 1437.07 Q1823.38 1437.07 1819.41 1436.43 Q1815.48 1435.78 1811.26 1434.48 L1811.26 1426.26 Q1814.91 1428.24 1818.8 1429.22 Q1822.69 1430.19 1827.02 1430.19 Q1834.03 1430.19 1838.12 1426.5 Q1842.21 1422.82 1842.21 1416.5 Q1842.21 1410.18 1838.12 1406.49 Q1834.03 1402.8 1827.02 1402.8 Q1823.74 1402.8 1820.46 1403.53 Q1817.22 1404.26 1813.82 1405.8 L1813.82 1375.42 Z" fill="#000000" fill-rule="nonzero" fill-opacity="1" /><path clip-path="url(#clip960)" d="M2242.41 1429.01 L2270.97 1429.01 L2270.97 1435.9 L2232.56 1435.9 L2232.56 1429.01 Q2237.22 1424.19 2245.24 1416.09 Q2253.3 1407.95 2255.37 1405.6 Q2259.3 1401.18 2260.84 1398.15 Q2262.42 1395.07 2262.42 1392.11 Q2262.42 1387.29 2259.02 1384.25 Q2255.65 1381.21 2250.23 1381.21 Q2246.38 1381.21 2242.08 1382.55 Q2237.83 1383.89 2232.97 1386.6 L2232.97 1378.34 Q2237.91 1376.35 2242.21 1375.34 Q2246.5 1374.33 2250.06 1374.33 Q2259.46 1374.33 2265.05 1379.03 Q2270.64 1383.72 2270.64 1391.58 Q2270.64 1395.31 2269.22 1398.67 Q2267.85 1401.99 2264.16 1406.53 Q2263.15 1407.71 2257.72 1413.34 Q2252.29 1418.93 2242.41 1429.01 Z" fill="#000000" fill-rule="nonzero" fill-opacity="1" /><path clip-path="url(#clip960)" d="M2288.14 1425.61 L2296.69 1425.61 L2296.69 1435.9 L2288.14 1435.9 L2288.14 1425.61 Z" fill="#000000" fill-rule="nonzero" fill-opacity="1" /><path clip-path="url(#clip960)" d="M2332.01 1380.81 Q2325.69 1380.81 2322.49 1387.05 Q2319.33 1393.24 2319.33 1405.72 Q2319.33 1418.16 2322.49 1424.4 Q2325.69 1430.59 2332.01 1430.59 Q2338.37 1430.59 2341.53 1424.4 Q2344.73 1418.16 2344.73 1405.72 Q2344.73 1393.24 2341.53 1387.05 Q2338.37 1380.81 2332.01 1380.81 M2332.01 1374.33 Q2342.18 1374.33 2347.53 1382.39 Q2352.92 1390.41 2352.92 1405.72 Q2352.92 1420.99 2347.53 1429.05 Q2342.18 1437.07 2332.01 1437.07 Q2321.85 1437.07 2316.46 1429.05 Q2311.11 1420.99 2311.11 1405.72 Q2311.11 1390.41 2316.46 1382.39 Q2321.85 1374.33 2332.01 1374.33 Z" fill="#000000" fill-rule="nonzero" fill-opacity="1" /><path clip-path="url(#clip960)" d="M1327.9 1501.35 Q1327.9 1506.27 1320.87 1506.27 L1305.06 1506.27 Q1309.49 1512.6 1309.49 1521.94 Q1309.49 1529.95 1306.19 1537.47 Q1302.96 1544.92 1297.76 1550.12 Q1292.63 1555.32 1286.16 1558.48 Q1279.7 1561.57 1273.37 1561.57 Q1263.75 1561.57 1257.77 1555.04 Q1251.8 1548.5 1251.8 1538.81 Q1251.8 1533.68 1253.56 1527.99 Q1255.39 1522.29 1258.83 1517.02 Q1262.27 1511.68 1266.77 1507.4 Q1271.34 1503.11 1277.24 1500.51 Q1283.21 1497.91 1289.46 1497.91 L1322.28 1497.91 Q1324.04 1497.91 1324.95 1498.05 Q1325.93 1498.12 1326.92 1498.97 Q1327.9 1499.74 1327.9 1501.35 M1300.29 1520.26 Q1300.29 1518.57 1300.08 1517.09 Q1299.86 1515.55 1299.09 1513.51 Q1298.32 1511.4 1296.98 1509.93 Q1295.65 1508.38 1293.05 1507.33 Q1290.52 1506.27 1287.08 1506.27 Q1282.23 1506.27 1276.89 1508.94 Q1271.55 1511.61 1267.47 1518.22 Q1264.1 1523.84 1262.41 1531.15 Q1260.73 1538.46 1260.73 1542.81 Q1260.73 1550.26 1264.31 1554.34 Q1267.96 1558.34 1273.51 1558.34 Q1278.08 1558.34 1283.28 1555.25 Q1288.48 1552.09 1292.49 1546.11 Q1296 1540.92 1298.11 1533.33 Q1300.29 1525.74 1300.29 1520.26 Z" fill="#000000" fill-rule="nonzero" fill-opacity="1" /><polyline clip-path="url(#clip960)" style="stroke:#000000; stroke-linecap:round; stroke-linejoin:round; stroke-width:4; stroke-opacity:1; fill:none" points="232.204,1341.1 232.204,47.2441 "/>
<polyline clip-path="url(#clip960)" style="stroke:#000000; stroke-linecap:round; stroke-linejoin:round; stroke-width:4; stroke-opacity:1; fill:none" points="232.204,1341.1 251.102,1341.1 "/>
<polyline clip-path="url(#clip960)" style="stroke:#000000; stroke-linecap:round; stroke-linejoin:round; stroke-width:4; stroke-opacity:1; fill:none" points="232.204,500.094 251.102,500.094 "/>
<path clip-path="url(#clip960)" d="M96.1468 1316.25 Q89.8273 1316.25 86.6271 1322.49 Q83.4674 1328.68 83.4674 1341.16 Q83.4674 1353.6 86.6271 1359.84 Q89.8273 1366.03 96.1468 1366.03 Q102.507 1366.03 105.666 1359.84 Q108.867 1353.6 108.867 1341.16 Q108.867 1328.68 105.666 1322.49 Q102.507 1316.25 96.1468 1316.25 M96.1468 1309.77 Q106.315 1309.77 111.662 1317.83 Q117.049 1325.85 117.049 1341.16 Q117.049 1356.43 111.662 1364.49 Q106.315 1372.51 96.1468 1372.51 Q85.979 1372.51 80.5913 1364.49 Q75.2441 1356.43 75.2441 1341.16 Q75.2441 1325.85 80.5913 1317.83 Q85.979 1309.77 96.1468 1309.77 Z" fill="#000000" fill-rule="nonzero" fill-opacity="1" /><path clip-path="url(#clip960)" d="M131.43 1361.05 L139.978 1361.05 L139.978 1371.34 L131.43 1371.34 L131.43 1361.05 Z" fill="#000000" fill-rule="nonzero" fill-opacity="1" /><path clip-path="url(#clip960)" d="M175.301 1316.25 Q168.982 1316.25 165.782 1322.49 Q162.622 1328.68 162.622 1341.16 Q162.622 1353.6 165.782 1359.84 Q168.982 1366.03 175.301 1366.03 Q181.661 1366.03 184.821 1359.84 Q188.021 1353.6 188.021 1341.16 Q188.021 1328.68 184.821 1322.49 Q181.661 1316.25 175.301 1316.25 M175.301 1309.77 Q185.469 1309.77 190.816 1317.83 Q196.204 1325.85 196.204 1341.16 Q196.204 1356.43 190.816 1364.49 Q185.469 1372.51 175.301 1372.51 Q165.134 1372.51 159.746 1364.49 Q154.399 1356.43 154.399 1341.16 Q154.399 1325.85 159.746 1317.83 Q165.134 1309.77 175.301 1309.77 Z" fill="#000000" fill-rule="nonzero" fill-opacity="1" /><path clip-path="url(#clip960)" d="M81.1989 523.447 L94.5669 523.447 L94.5669 477.307 L80.0242 480.224 L80.0242 472.77 L94.4859 469.854 L102.669 469.854 L102.669 523.447 L116.037 523.447 L116.037 530.334 L81.1989 530.334 L81.1989 523.447 Z" fill="#000000" fill-rule="nonzero" fill-opacity="1" /><path clip-path="url(#clip960)" d="M132.564 520.044 L141.112 520.044 L141.112 530.334 L132.564 530.334 L132.564 520.044 Z" fill="#000000" fill-rule="nonzero" fill-opacity="1" /><path clip-path="url(#clip960)" d="M183.727 497.724 Q189.601 498.98 192.882 502.949 Q196.204 506.919 196.204 512.753 Q196.204 521.705 190.047 526.607 Q183.889 531.508 172.547 531.508 Q168.739 531.508 164.688 530.739 Q160.678 530.01 156.384 528.511 L156.384 520.611 Q159.786 522.596 163.837 523.609 Q167.888 524.622 172.304 524.622 Q180 524.622 184.011 521.584 Q188.062 518.545 188.062 512.753 Q188.062 507.405 184.294 504.408 Q180.568 501.37 173.884 501.37 L166.835 501.37 L166.835 494.645 L174.208 494.645 Q180.244 494.645 183.444 492.255 Q186.644 489.825 186.644 485.288 Q186.644 480.629 183.322 478.158 Q180.041 475.646 173.884 475.646 Q170.521 475.646 166.673 476.376 Q162.825 477.105 158.207 478.644 L158.207 471.352 Q162.865 470.056 166.916 469.408 Q171.007 468.76 174.613 468.76 Q183.93 468.76 189.358 473.013 Q194.786 477.226 194.786 484.437 Q194.786 489.46 191.91 492.944 Q189.034 496.387 183.727 497.724 Z" fill="#000000" fill-rule="nonzero" fill-opacity="1" /><path clip-path="url(#clip961)" d="M292.22 1341.1 L292.22 1341.1 L312.225 1341.1 L312.225 1341.1 L292.22 1341.1 L292.22 1341.1  Z" fill="#009af9" fill-rule="evenodd" fill-opacity="1"/>
<polyline clip-path="url(#clip961)" style="stroke:#000000; stroke-linecap:round; stroke-linejoin:round; stroke-width:0; stroke-opacity:1; fill:none" points="292.22,1341.1 292.22,1341.1 312.225,1341.1 292.22,1341.1 "/>
<path clip-path="url(#clip961)" d="M312.225 1341.1 L312.225 1341.1 L332.23 1341.1 L332.23 1341.1 L312.225 1341.1 L312.225 1341.1  Z" fill="#009af9" fill-rule="evenodd" fill-opacity="1"/>
<polyline clip-path="url(#clip961)" style="stroke:#000000; stroke-linecap:round; stroke-linejoin:round; stroke-width:0; stroke-opacity:1; fill:none" points="312.225,1341.1 312.225,1341.1 332.23,1341.1 312.225,1341.1 "/>
<path clip-path="url(#clip961)" d="M332.23 1341.1 L332.23 1341.1 L352.235 1341.1 L352.235 1341.1 L332.23 1341.1 L332.23 1341.1  Z" fill="#009af9" fill-rule="evenodd" fill-opacity="1"/>
<polyline clip-path="url(#clip961)" style="stroke:#000000; stroke-linecap:round; stroke-linejoin:round; stroke-width:0; stroke-opacity:1; fill:none" points="332.23,1341.1 332.23,1341.1 352.235,1341.1 332.23,1341.1 "/>
<path clip-path="url(#clip961)" d="M352.235 1341.1 L352.235 1341.1 L372.241 1341.1 L372.241 1341.1 L352.235 1341.1 L352.235 1341.1  Z" fill="#009af9" fill-rule="evenodd" fill-opacity="1"/>
<polyline clip-path="url(#clip961)" style="stroke:#000000; stroke-linecap:round; stroke-linejoin:round; stroke-width:0; stroke-opacity:1; fill:none" points="352.235,1341.1 352.235,1341.1 372.241,1341.1 352.235,1341.1 "/>
<path clip-path="url(#clip961)" d="M372.241 1341.1 L372.241 1341.1 L392.246 1341.1 L392.246 1341.1 L372.241 1341.1 L372.241 1341.1  Z" fill="#009af9" fill-rule="evenodd" fill-opacity="1"/>
<polyline clip-path="url(#clip961)" style="stroke:#000000; stroke-linecap:round; stroke-linejoin:round; stroke-width:0; stroke-opacity:1; fill:none" points="372.241,1341.1 372.241,1341.1 392.246,1341.1 372.241,1341.1 "/>
<path clip-path="url(#clip961)" d="M392.246 1341.1 L392.246 1341.1 L412.251 1341.1 L412.251 1341.1 L392.246 1341.1 L392.246 1341.1  Z" fill="#009af9" fill-rule="evenodd" fill-opacity="1"/>
<polyline clip-path="url(#clip961)" style="stroke:#000000; stroke-linecap:round; stroke-linejoin:round; stroke-width:0; stroke-opacity:1; fill:none" points="392.246,1341.1 392.246,1341.1 412.251,1341.1 392.246,1341.1 "/>
<path clip-path="url(#clip961)" d="M412.251 1341.1 L412.251 1341.1 L432.256 1341.1 L432.256 1341.1 L412.251 1341.1 L412.251 1341.1  Z" fill="#009af9" fill-rule="evenodd" fill-opacity="1"/>
<polyline clip-path="url(#clip961)" style="stroke:#000000; stroke-linecap:round; stroke-linejoin:round; stroke-width:0; stroke-opacity:1; fill:none" points="412.251,1341.1 412.251,1341.1 432.256,1341.1 412.251,1341.1 "/>
<path clip-path="url(#clip961)" d="M432.256 1341.1 L432.256 1341.1 L452.261 1341.1 L452.261 1341.1 L432.256 1341.1 L432.256 1341.1  Z" fill="#009af9" fill-rule="evenodd" fill-opacity="1"/>
<polyline clip-path="url(#clip961)" style="stroke:#000000; stroke-linecap:round; stroke-linejoin:round; stroke-width:0; stroke-opacity:1; fill:none" points="432.256,1341.1 432.256,1341.1 452.261,1341.1 432.256,1341.1 "/>
<path clip-path="url(#clip961)" d="M452.261 1341.1 L452.261 1341.1 L472.267 1341.1 L472.267 1341.1 L452.261 1341.1 L452.261 1341.1  Z" fill="#009af9" fill-rule="evenodd" fill-opacity="1"/>
<polyline clip-path="url(#clip961)" style="stroke:#000000; stroke-linecap:round; stroke-linejoin:round; stroke-width:0; stroke-opacity:1; fill:none" points="452.261,1341.1 452.261,1341.1 472.267,1341.1 452.261,1341.1 "/>
<path clip-path="url(#clip961)" d="M472.267 1341.1 L472.267 1341.1 L492.272 1341.1 L492.272 1341.1 L472.267 1341.1 L472.267 1341.1  Z" fill="#009af9" fill-rule="evenodd" fill-opacity="1"/>
<polyline clip-path="url(#clip961)" style="stroke:#000000; stroke-linecap:round; stroke-linejoin:round; stroke-width:0; stroke-opacity:1; fill:none" points="472.267,1341.1 472.267,1341.1 492.272,1341.1 472.267,1341.1 "/>
<path clip-path="url(#clip961)" d="M492.272 1341.1 L492.272 1341.1 L512.277 1341.1 L512.277 1341.1 L492.272 1341.1 L492.272 1341.1  Z" fill="#009af9" fill-rule="evenodd" fill-opacity="1"/>
<polyline clip-path="url(#clip961)" style="stroke:#000000; stroke-linecap:round; stroke-linejoin:round; stroke-width:0; stroke-opacity:1; fill:none" points="492.272,1341.1 492.272,1341.1 512.277,1341.1 492.272,1341.1 "/>
<path clip-path="url(#clip961)" d="M512.277 1341.1 L512.277 1341.1 L532.282 1341.1 L532.282 1341.1 L512.277 1341.1 L512.277 1341.1  Z" fill="#009af9" fill-rule="evenodd" fill-opacity="1"/>
<polyline clip-path="url(#clip961)" style="stroke:#000000; stroke-linecap:round; stroke-linejoin:round; stroke-width:0; stroke-opacity:1; fill:none" points="512.277,1341.1 512.277,1341.1 532.282,1341.1 512.277,1341.1 "/>
<path clip-path="url(#clip961)" d="M532.282 1341.1 L532.282 1341.1 L552.287 1341.1 L552.287 1341.1 L532.282 1341.1 L532.282 1341.1  Z" fill="#009af9" fill-rule="evenodd" fill-opacity="1"/>
<polyline clip-path="url(#clip961)" style="stroke:#000000; stroke-linecap:round; stroke-linejoin:round; stroke-width:0; stroke-opacity:1; fill:none" points="532.282,1341.1 532.282,1341.1 552.287,1341.1 532.282,1341.1 "/>
<path clip-path="url(#clip961)" d="M552.287 1341.1 L552.287 1341.1 L572.293 1341.1 L572.293 1341.1 L552.287 1341.1 L552.287 1341.1  Z" fill="#009af9" fill-rule="evenodd" fill-opacity="1"/>
<polyline clip-path="url(#clip961)" style="stroke:#000000; stroke-linecap:round; stroke-linejoin:round; stroke-width:0; stroke-opacity:1; fill:none" points="552.287,1341.1 552.287,1341.1 572.293,1341.1 552.287,1341.1 "/>
<path clip-path="url(#clip961)" d="M572.293 1341.1 L572.293 1341.1 L592.298 1341.1 L592.298 1341.1 L572.293 1341.1 L572.293 1341.1  Z" fill="#009af9" fill-rule="evenodd" fill-opacity="1"/>
<polyline clip-path="url(#clip961)" style="stroke:#000000; stroke-linecap:round; stroke-linejoin:round; stroke-width:0; stroke-opacity:1; fill:none" points="572.293,1341.1 572.293,1341.1 592.298,1341.1 572.293,1341.1 "/>
<path clip-path="url(#clip961)" d="M592.298 1341.1 L592.298 1341.1 L612.303 1341.1 L612.303 1341.1 L592.298 1341.1 L592.298 1341.1  Z" fill="#009af9" fill-rule="evenodd" fill-opacity="1"/>
<polyline clip-path="url(#clip961)" style="stroke:#000000; stroke-linecap:round; stroke-linejoin:round; stroke-width:0; stroke-opacity:1; fill:none" points="592.298,1341.1 592.298,1341.1 612.303,1341.1 592.298,1341.1 "/>
<path clip-path="url(#clip961)" d="M612.303 1341.1 L612.303 1341.1 L632.308 1341.1 L632.308 1341.1 L612.303 1341.1 L612.303 1341.1  Z" fill="#009af9" fill-rule="evenodd" fill-opacity="1"/>
<polyline clip-path="url(#clip961)" style="stroke:#000000; stroke-linecap:round; stroke-linejoin:round; stroke-width:0; stroke-opacity:1; fill:none" points="612.303,1341.1 612.303,1341.1 632.308,1341.1 612.303,1341.1 "/>
<path clip-path="url(#clip961)" d="M632.308 1341.1 L632.308 1341.1 L652.313 1341.1 L652.313 1341.1 L632.308 1341.1 L632.308 1341.1  Z" fill="#009af9" fill-rule="evenodd" fill-opacity="1"/>
<polyline clip-path="url(#clip961)" style="stroke:#000000; stroke-linecap:round; stroke-linejoin:round; stroke-width:0; stroke-opacity:1; fill:none" points="632.308,1341.1 632.308,1341.1 652.313,1341.1 632.308,1341.1 "/>
<path clip-path="url(#clip961)" d="M652.313 1341.1 L652.313 1341.1 L672.319 1341.1 L672.319 1341.1 L652.313 1341.1 L652.313 1341.1  Z" fill="#009af9" fill-rule="evenodd" fill-opacity="1"/>
<polyline clip-path="url(#clip961)" style="stroke:#000000; stroke-linecap:round; stroke-linejoin:round; stroke-width:0; stroke-opacity:1; fill:none" points="652.313,1341.1 652.313,1341.1 672.319,1341.1 652.313,1341.1 "/>
<path clip-path="url(#clip961)" d="M672.319 1341.1 L672.319 1341.1 L692.324 1341.1 L692.324 1341.1 L672.319 1341.1 L672.319 1341.1  Z" fill="#009af9" fill-rule="evenodd" fill-opacity="1"/>
<polyline clip-path="url(#clip961)" style="stroke:#000000; stroke-linecap:round; stroke-linejoin:round; stroke-width:0; stroke-opacity:1; fill:none" points="672.319,1341.1 672.319,1341.1 692.324,1341.1 672.319,1341.1 "/>
<path clip-path="url(#clip961)" d="M692.324 1341.1 L692.324 1341.1 L712.329 1341.1 L712.329 1341.1 L692.324 1341.1 L692.324 1341.1  Z" fill="#009af9" fill-rule="evenodd" fill-opacity="1"/>
<polyline clip-path="url(#clip961)" style="stroke:#000000; stroke-linecap:round; stroke-linejoin:round; stroke-width:0; stroke-opacity:1; fill:none" points="692.324,1341.1 692.324,1341.1 712.329,1341.1 692.324,1341.1 "/>
<path clip-path="url(#clip961)" d="M712.329 1341.1 L712.329 1341.1 L732.334 1341.1 L732.334 1341.1 L712.329 1341.1 L712.329 1341.1  Z" fill="#009af9" fill-rule="evenodd" fill-opacity="1"/>
<polyline clip-path="url(#clip961)" style="stroke:#000000; stroke-linecap:round; stroke-linejoin:round; stroke-width:0; stroke-opacity:1; fill:none" points="712.329,1341.1 712.329,1341.1 732.334,1341.1 712.329,1341.1 "/>
<path clip-path="url(#clip961)" d="M732.334 1341.1 L732.334 1341.1 L752.339 1341.1 L752.339 1341.1 L732.334 1341.1 L732.334 1341.1  Z" fill="#009af9" fill-rule="evenodd" fill-opacity="1"/>
<polyline clip-path="url(#clip961)" style="stroke:#000000; stroke-linecap:round; stroke-linejoin:round; stroke-width:0; stroke-opacity:1; fill:none" points="732.334,1341.1 732.334,1341.1 752.339,1341.1 732.334,1341.1 "/>
<path clip-path="url(#clip961)" d="M752.339 1338.94 L752.339 1341.1 L772.345 1341.1 L772.345 1338.94 L752.339 1338.94 L752.339 1338.94  Z" fill="#009af9" fill-rule="evenodd" fill-opacity="1"/>
<polyline clip-path="url(#clip961)" style="stroke:#000000; stroke-linecap:round; stroke-linejoin:round; stroke-width:0; stroke-opacity:1; fill:none" points="752.339,1338.94 752.339,1341.1 772.345,1341.1 772.345,1338.94 752.339,1338.94 "/>
<path clip-path="url(#clip961)" d="M772.345 1306.6 L772.345 1341.1 L792.35 1341.1 L792.35 1306.6 L772.345 1306.6 L772.345 1306.6  Z" fill="#009af9" fill-rule="evenodd" fill-opacity="1"/>
<polyline clip-path="url(#clip961)" style="stroke:#000000; stroke-linecap:round; stroke-linejoin:round; stroke-width:0; stroke-opacity:1; fill:none" points="772.345,1306.6 772.345,1341.1 792.35,1341.1 792.35,1306.6 772.345,1306.6 "/>
<path clip-path="url(#clip961)" d="M792.35 1147.02 L792.35 1341.1 L812.355 1341.1 L812.355 1147.02 L792.35 1147.02 L792.35 1147.02  Z" fill="#009af9" fill-rule="evenodd" fill-opacity="1"/>
<polyline clip-path="url(#clip961)" style="stroke:#000000; stroke-linecap:round; stroke-linejoin:round; stroke-width:0; stroke-opacity:1; fill:none" points="792.35,1147.02 792.35,1341.1 812.355,1341.1 812.355,1147.02 792.35,1147.02 "/>
<path clip-path="url(#clip961)" d="M812.355 1019.79 L812.355 1341.1 L832.36 1341.1 L832.36 1019.79 L812.355 1019.79 L812.355 1019.79  Z" fill="#009af9" fill-rule="evenodd" fill-opacity="1"/>
<polyline clip-path="url(#clip961)" style="stroke:#000000; stroke-linecap:round; stroke-linejoin:round; stroke-width:0; stroke-opacity:1; fill:none" points="812.355,1019.79 812.355,1341.1 832.36,1341.1 832.36,1019.79 812.355,1019.79 "/>
<path clip-path="url(#clip961)" d="M832.36 873.155 L832.36 1341.1 L852.365 1341.1 L852.365 873.155 L832.36 873.155 L832.36 873.155  Z" fill="#009af9" fill-rule="evenodd" fill-opacity="1"/>
<polyline clip-path="url(#clip961)" style="stroke:#000000; stroke-linecap:round; stroke-linejoin:round; stroke-width:0; stroke-opacity:1; fill:none" points="832.36,873.155 832.36,1341.1 852.365,1341.1 852.365,873.155 832.36,873.155 "/>
<path clip-path="url(#clip961)" d="M852.365 786.898 L852.365 1341.1 L872.371 1341.1 L872.371 786.898 L852.365 786.898 L852.365 786.898  Z" fill="#009af9" fill-rule="evenodd" fill-opacity="1"/>
<polyline clip-path="url(#clip961)" style="stroke:#000000; stroke-linecap:round; stroke-linejoin:round; stroke-width:0; stroke-opacity:1; fill:none" points="852.365,786.898 852.365,1341.1 872.371,1341.1 872.371,786.898 852.365,786.898 "/>
<path clip-path="url(#clip961)" d="M872.371 728.675 L872.371 1341.1 L892.376 1341.1 L892.376 728.675 L872.371 728.675 L872.371 728.675  Z" fill="#009af9" fill-rule="evenodd" fill-opacity="1"/>
<polyline clip-path="url(#clip961)" style="stroke:#000000; stroke-linecap:round; stroke-linejoin:round; stroke-width:0; stroke-opacity:1; fill:none" points="872.371,728.675 872.371,1341.1 892.376,1341.1 892.376,728.675 872.371,728.675 "/>
<path clip-path="url(#clip961)" d="M892.376 730.831 L892.376 1341.1 L912.381 1341.1 L912.381 730.831 L892.376 730.831 L892.376 730.831  Z" fill="#009af9" fill-rule="evenodd" fill-opacity="1"/>
<polyline clip-path="url(#clip961)" style="stroke:#000000; stroke-linecap:round; stroke-linejoin:round; stroke-width:0; stroke-opacity:1; fill:none" points="892.376,730.831 892.376,1341.1 912.381,1341.1 912.381,730.831 892.376,730.831 "/>
<path clip-path="url(#clip961)" d="M912.381 648.887 L912.381 1341.1 L932.386 1341.1 L932.386 648.887 L912.381 648.887 L912.381 648.887  Z" fill="#009af9" fill-rule="evenodd" fill-opacity="1"/>
<polyline clip-path="url(#clip961)" style="stroke:#000000; stroke-linecap:round; stroke-linejoin:round; stroke-width:0; stroke-opacity:1; fill:none" points="912.381,648.887 912.381,1341.1 932.386,1341.1 932.386,648.887 912.381,648.887 "/>
<path clip-path="url(#clip961)" d="M932.386 666.138 L932.386 1341.1 L952.392 1341.1 L952.392 666.138 L932.386 666.138 L932.386 666.138  Z" fill="#009af9" fill-rule="evenodd" fill-opacity="1"/>
<polyline clip-path="url(#clip961)" style="stroke:#000000; stroke-linecap:round; stroke-linejoin:round; stroke-width:0; stroke-opacity:1; fill:none" points="932.386,666.138 932.386,1341.1 952.392,1341.1 952.392,666.138 932.386,666.138 "/>
<path clip-path="url(#clip961)" d="M952.392 586.351 L952.392 1341.1 L972.397 1341.1 L972.397 586.351 L952.392 586.351 L952.392 586.351  Z" fill="#009af9" fill-rule="evenodd" fill-opacity="1"/>
<polyline clip-path="url(#clip961)" style="stroke:#000000; stroke-linecap:round; stroke-linejoin:round; stroke-width:0; stroke-opacity:1; fill:none" points="952.392,586.351 952.392,1341.1 972.397,1341.1 972.397,586.351 952.392,586.351 "/>
<path clip-path="url(#clip961)" d="M972.397 575.569 L972.397 1341.1 L992.402 1341.1 L992.402 575.569 L972.397 575.569 L972.397 575.569  Z" fill="#009af9" fill-rule="evenodd" fill-opacity="1"/>
<polyline clip-path="url(#clip961)" style="stroke:#000000; stroke-linecap:round; stroke-linejoin:round; stroke-width:0; stroke-opacity:1; fill:none" points="972.397,575.569 972.397,1341.1 992.402,1341.1 992.402,575.569 972.397,575.569 "/>
<path clip-path="url(#clip961)" d="M992.402 564.786 L992.402 1341.1 L1012.41 1341.1 L1012.41 564.786 L992.402 564.786 L992.402 564.786  Z" fill="#009af9" fill-rule="evenodd" fill-opacity="1"/>
<polyline clip-path="url(#clip961)" style="stroke:#000000; stroke-linecap:round; stroke-linejoin:round; stroke-width:0; stroke-opacity:1; fill:none" points="992.402,564.786 992.402,1341.1 1012.41,1341.1 1012.41,564.786 992.402,564.786 "/>
<path clip-path="url(#clip961)" d="M1012.41 515.189 L1012.41 1341.1 L1032.41 1341.1 L1032.41 515.189 L1012.41 515.189 L1012.41 515.189  Z" fill="#009af9" fill-rule="evenodd" fill-opacity="1"/>
<polyline clip-path="url(#clip961)" style="stroke:#000000; stroke-linecap:round; stroke-linejoin:round; stroke-width:0; stroke-opacity:1; fill:none" points="1012.41,515.189 1012.41,1341.1 1032.41,1341.1 1032.41,515.189 1012.41,515.189 "/>
<path clip-path="url(#clip961)" d="M1032.41 566.943 L1032.41 1341.1 L1052.42 1341.1 L1052.42 566.943 L1032.41 566.943 L1032.41 566.943  Z" fill="#009af9" fill-rule="evenodd" fill-opacity="1"/>
<polyline clip-path="url(#clip961)" style="stroke:#000000; stroke-linecap:round; stroke-linejoin:round; stroke-width:0; stroke-opacity:1; fill:none" points="1032.41,566.943 1032.41,1341.1 1052.42,1341.1 1052.42,566.943 1032.41,566.943 "/>
<path clip-path="url(#clip961)" d="M1052.42 545.379 L1052.42 1341.1 L1072.42 1341.1 L1072.42 545.379 L1052.42 545.379 L1052.42 545.379  Z" fill="#009af9" fill-rule="evenodd" fill-opacity="1"/>
<polyline clip-path="url(#clip961)" style="stroke:#000000; stroke-linecap:round; stroke-linejoin:round; stroke-width:0; stroke-opacity:1; fill:none" points="1052.42,545.379 1052.42,1341.1 1072.42,1341.1 1072.42,545.379 1052.42,545.379 "/>
<path clip-path="url(#clip961)" d="M1072.42 560.474 L1072.42 1341.1 L1092.43 1341.1 L1092.43 560.474 L1072.42 560.474 L1072.42 560.474  Z" fill="#009af9" fill-rule="evenodd" fill-opacity="1"/>
<polyline clip-path="url(#clip961)" style="stroke:#000000; stroke-linecap:round; stroke-linejoin:round; stroke-width:0; stroke-opacity:1; fill:none" points="1072.42,560.474 1072.42,1341.1 1092.43,1341.1 1092.43,560.474 1072.42,560.474 "/>
<path clip-path="url(#clip961)" d="M1092.43 497.937 L1092.43 1341.1 L1112.43 1341.1 L1112.43 497.937 L1092.43 497.937 L1092.43 497.937  Z" fill="#009af9" fill-rule="evenodd" fill-opacity="1"/>
<polyline clip-path="url(#clip961)" style="stroke:#000000; stroke-linecap:round; stroke-linejoin:round; stroke-width:0; stroke-opacity:1; fill:none" points="1092.43,497.937 1092.43,1341.1 1112.43,1341.1 1112.43,497.937 1092.43,497.937 "/>
<path clip-path="url(#clip961)" d="M1112.43 541.066 L1112.43 1341.1 L1132.44 1341.1 L1132.44 541.066 L1112.43 541.066 L1112.43 541.066  Z" fill="#009af9" fill-rule="evenodd" fill-opacity="1"/>
<polyline clip-path="url(#clip961)" style="stroke:#000000; stroke-linecap:round; stroke-linejoin:round; stroke-width:0; stroke-opacity:1; fill:none" points="1112.43,541.066 1112.43,1341.1 1132.44,1341.1 1132.44,541.066 1112.43,541.066 "/>
<path clip-path="url(#clip961)" d="M1132.44 482.842 L1132.44 1341.1 L1152.44 1341.1 L1152.44 482.842 L1132.44 482.842 L1132.44 482.842  Z" fill="#009af9" fill-rule="evenodd" fill-opacity="1"/>
<polyline clip-path="url(#clip961)" style="stroke:#000000; stroke-linecap:round; stroke-linejoin:round; stroke-width:0; stroke-opacity:1; fill:none" points="1132.44,482.842 1132.44,1341.1 1152.44,1341.1 1152.44,482.842 1132.44,482.842 "/>
<path clip-path="url(#clip961)" d="M1152.44 538.909 L1152.44 1341.1 L1172.45 1341.1 L1172.45 538.909 L1152.44 538.909 L1152.44 538.909  Z" fill="#009af9" fill-rule="evenodd" fill-opacity="1"/>
<polyline clip-path="url(#clip961)" style="stroke:#000000; stroke-linecap:round; stroke-linejoin:round; stroke-width:0; stroke-opacity:1; fill:none" points="1152.44,538.909 1152.44,1341.1 1172.45,1341.1 1172.45,538.909 1152.44,538.909 "/>
<path clip-path="url(#clip961)" d="M1172.45 491.468 L1172.45 1341.1 L1192.45 1341.1 L1192.45 491.468 L1172.45 491.468 L1172.45 491.468  Z" fill="#009af9" fill-rule="evenodd" fill-opacity="1"/>
<polyline clip-path="url(#clip961)" style="stroke:#000000; stroke-linecap:round; stroke-linejoin:round; stroke-width:0; stroke-opacity:1; fill:none" points="1172.45,491.468 1172.45,1341.1 1192.45,1341.1 1192.45,491.468 1172.45,491.468 "/>
<path clip-path="url(#clip961)" d="M1192.45 534.596 L1192.45 1341.1 L1212.46 1341.1 L1212.46 534.596 L1192.45 534.596 L1192.45 534.596  Z" fill="#009af9" fill-rule="evenodd" fill-opacity="1"/>
<polyline clip-path="url(#clip961)" style="stroke:#000000; stroke-linecap:round; stroke-linejoin:round; stroke-width:0; stroke-opacity:1; fill:none" points="1192.45,534.596 1192.45,1341.1 1212.46,1341.1 1212.46,534.596 1192.45,534.596 "/>
<path clip-path="url(#clip961)" d="M1212.46 482.842 L1212.46 1341.1 L1232.46 1341.1 L1232.46 482.842 L1212.46 482.842 L1212.46 482.842  Z" fill="#009af9" fill-rule="evenodd" fill-opacity="1"/>
<polyline clip-path="url(#clip961)" style="stroke:#000000; stroke-linecap:round; stroke-linejoin:round; stroke-width:0; stroke-opacity:1; fill:none" points="1212.46,482.842 1212.46,1341.1 1232.46,1341.1 1232.46,482.842 1212.46,482.842 "/>
<path clip-path="url(#clip961)" d="M1232.46 536.753 L1232.46 1341.1 L1252.47 1341.1 L1252.47 536.753 L1232.46 536.753 L1232.46 536.753  Z" fill="#009af9" fill-rule="evenodd" fill-opacity="1"/>
<polyline clip-path="url(#clip961)" style="stroke:#000000; stroke-linecap:round; stroke-linejoin:round; stroke-width:0; stroke-opacity:1; fill:none" points="1232.46,536.753 1232.46,1341.1 1252.47,1341.1 1252.47,536.753 1232.46,536.753 "/>
<path clip-path="url(#clip961)" d="M1252.47 517.345 L1252.47 1341.1 L1272.47 1341.1 L1272.47 517.345 L1252.47 517.345 L1252.47 517.345  Z" fill="#009af9" fill-rule="evenodd" fill-opacity="1"/>
<polyline clip-path="url(#clip961)" style="stroke:#000000; stroke-linecap:round; stroke-linejoin:round; stroke-width:0; stroke-opacity:1; fill:none" points="1252.47,517.345 1252.47,1341.1 1272.47,1341.1 1272.47,517.345 1252.47,517.345 "/>
<path clip-path="url(#clip961)" d="M1272.47 566.943 L1272.47 1341.1 L1292.48 1341.1 L1292.48 566.943 L1272.47 566.943 L1272.47 566.943  Z" fill="#009af9" fill-rule="evenodd" fill-opacity="1"/>
<polyline clip-path="url(#clip961)" style="stroke:#000000; stroke-linecap:round; stroke-linejoin:round; stroke-width:0; stroke-opacity:1; fill:none" points="1272.47,566.943 1272.47,1341.1 1292.48,1341.1 1292.48,566.943 1272.47,566.943 "/>
<path clip-path="url(#clip961)" d="M1292.48 538.909 L1292.48 1341.1 L1312.49 1341.1 L1312.49 538.909 L1292.48 538.909 L1292.48 538.909  Z" fill="#009af9" fill-rule="evenodd" fill-opacity="1"/>
<polyline clip-path="url(#clip961)" style="stroke:#000000; stroke-linecap:round; stroke-linejoin:round; stroke-width:0; stroke-opacity:1; fill:none" points="1292.48,538.909 1292.48,1341.1 1312.49,1341.1 1312.49,538.909 1292.48,538.909 "/>
<path clip-path="url(#clip961)" d="M1312.49 536.753 L1312.49 1341.1 L1332.49 1341.1 L1332.49 536.753 L1312.49 536.753 L1312.49 536.753  Z" fill="#009af9" fill-rule="evenodd" fill-opacity="1"/>
<polyline clip-path="url(#clip961)" style="stroke:#000000; stroke-linecap:round; stroke-linejoin:round; stroke-width:0; stroke-opacity:1; fill:none" points="1312.49,536.753 1312.49,1341.1 1332.49,1341.1 1332.49,536.753 1312.49,536.753 "/>
<path clip-path="url(#clip961)" d="M1332.49 573.412 L1332.49 1341.1 L1352.5 1341.1 L1352.5 573.412 L1332.49 573.412 L1332.49 573.412  Z" fill="#009af9" fill-rule="evenodd" fill-opacity="1"/>
<polyline clip-path="url(#clip961)" style="stroke:#000000; stroke-linecap:round; stroke-linejoin:round; stroke-width:0; stroke-opacity:1; fill:none" points="1332.49,573.412 1332.49,1341.1 1352.5,1341.1 1352.5,573.412 1332.49,573.412 "/>
<path clip-path="url(#clip961)" d="M1352.5 549.691 L1352.5 1341.1 L1372.5 1341.1 L1372.5 549.691 L1352.5 549.691 L1352.5 549.691  Z" fill="#009af9" fill-rule="evenodd" fill-opacity="1"/>
<polyline clip-path="url(#clip961)" style="stroke:#000000; stroke-linecap:round; stroke-linejoin:round; stroke-width:0; stroke-opacity:1; fill:none" points="1352.5,549.691 1352.5,1341.1 1372.5,1341.1 1372.5,549.691 1352.5,549.691 "/>
<path clip-path="url(#clip961)" d="M1372.5 599.289 L1372.5 1341.1 L1392.51 1341.1 L1392.51 599.289 L1372.5 599.289 L1372.5 599.289  Z" fill="#009af9" fill-rule="evenodd" fill-opacity="1"/>
<polyline clip-path="url(#clip961)" style="stroke:#000000; stroke-linecap:round; stroke-linejoin:round; stroke-width:0; stroke-opacity:1; fill:none" points="1372.5,599.289 1372.5,1341.1 1392.51,1341.1 1392.51,599.289 1372.5,599.289 "/>
<path clip-path="url(#clip961)" d="M1392.51 545.379 L1392.51 1341.1 L1412.51 1341.1 L1412.51 545.379 L1392.51 545.379 L1392.51 545.379  Z" fill="#009af9" fill-rule="evenodd" fill-opacity="1"/>
<polyline clip-path="url(#clip961)" style="stroke:#000000; stroke-linecap:round; stroke-linejoin:round; stroke-width:0; stroke-opacity:1; fill:none" points="1392.51,545.379 1392.51,1341.1 1412.51,1341.1 1412.51,545.379 1392.51,545.379 "/>
<path clip-path="url(#clip961)" d="M1412.51 623.01 L1412.51 1341.1 L1432.52 1341.1 L1432.52 623.01 L1412.51 623.01 L1412.51 623.01  Z" fill="#009af9" fill-rule="evenodd" fill-opacity="1"/>
<polyline clip-path="url(#clip961)" style="stroke:#000000; stroke-linecap:round; stroke-linejoin:round; stroke-width:0; stroke-opacity:1; fill:none" points="1412.51,623.01 1412.51,1341.1 1432.52,1341.1 1432.52,623.01 1412.51,623.01 "/>
<path clip-path="url(#clip961)" d="M1432.52 614.384 L1432.52 1341.1 L1452.52 1341.1 L1452.52 614.384 L1432.52 614.384 L1432.52 614.384  Z" fill="#009af9" fill-rule="evenodd" fill-opacity="1"/>
<polyline clip-path="url(#clip961)" style="stroke:#000000; stroke-linecap:round; stroke-linejoin:round; stroke-width:0; stroke-opacity:1; fill:none" points="1432.52,614.384 1432.52,1341.1 1452.52,1341.1 1452.52,614.384 1432.52,614.384 "/>
<path clip-path="url(#clip961)" d="M1452.52 648.887 L1452.52 1341.1 L1472.53 1341.1 L1472.53 648.887 L1452.52 648.887 L1452.52 648.887  Z" fill="#009af9" fill-rule="evenodd" fill-opacity="1"/>
<polyline clip-path="url(#clip961)" style="stroke:#000000; stroke-linecap:round; stroke-linejoin:round; stroke-width:0; stroke-opacity:1; fill:none" points="1452.52,648.887 1452.52,1341.1 1472.53,1341.1 1472.53,648.887 1452.52,648.887 "/>
<path clip-path="url(#clip961)" d="M1472.53 666.138 L1472.53 1341.1 L1492.53 1341.1 L1492.53 666.138 L1472.53 666.138 L1472.53 666.138  Z" fill="#009af9" fill-rule="evenodd" fill-opacity="1"/>
<polyline clip-path="url(#clip961)" style="stroke:#000000; stroke-linecap:round; stroke-linejoin:round; stroke-width:0; stroke-opacity:1; fill:none" points="1472.53,666.138 1472.53,1341.1 1492.53,1341.1 1492.53,666.138 1472.53,666.138 "/>
<path clip-path="url(#clip961)" d="M1492.53 689.859 L1492.53 1341.1 L1512.54 1341.1 L1512.54 689.859 L1492.53 689.859 L1492.53 689.859  Z" fill="#009af9" fill-rule="evenodd" fill-opacity="1"/>
<polyline clip-path="url(#clip961)" style="stroke:#000000; stroke-linecap:round; stroke-linejoin:round; stroke-width:0; stroke-opacity:1; fill:none" points="1492.53,689.859 1492.53,1341.1 1512.54,1341.1 1512.54,689.859 1492.53,689.859 "/>
<path clip-path="url(#clip961)" d="M1512.54 674.764 L1512.54 1341.1 L1532.54 1341.1 L1532.54 674.764 L1512.54 674.764 L1512.54 674.764  Z" fill="#009af9" fill-rule="evenodd" fill-opacity="1"/>
<polyline clip-path="url(#clip961)" style="stroke:#000000; stroke-linecap:round; stroke-linejoin:round; stroke-width:0; stroke-opacity:1; fill:none" points="1512.54,674.764 1512.54,1341.1 1532.54,1341.1 1532.54,674.764 1512.54,674.764 "/>
<path clip-path="url(#clip961)" d="M1532.54 726.518 L1532.54 1341.1 L1552.55 1341.1 L1552.55 726.518 L1532.54 726.518 L1532.54 726.518  Z" fill="#009af9" fill-rule="evenodd" fill-opacity="1"/>
<polyline clip-path="url(#clip961)" style="stroke:#000000; stroke-linecap:round; stroke-linejoin:round; stroke-width:0; stroke-opacity:1; fill:none" points="1532.54,726.518 1532.54,1341.1 1552.55,1341.1 1552.55,726.518 1532.54,726.518 "/>
<path clip-path="url(#clip961)" d="M1552.55 717.893 L1552.55 1341.1 L1572.55 1341.1 L1572.55 717.893 L1552.55 717.893 L1552.55 717.893  Z" fill="#009af9" fill-rule="evenodd" fill-opacity="1"/>
<polyline clip-path="url(#clip961)" style="stroke:#000000; stroke-linecap:round; stroke-linejoin:round; stroke-width:0; stroke-opacity:1; fill:none" points="1552.55,717.893 1552.55,1341.1 1572.55,1341.1 1572.55,717.893 1552.55,717.893 "/>
<path clip-path="url(#clip961)" d="M1572.55 748.083 L1572.55 1341.1 L1592.56 1341.1 L1592.56 748.083 L1572.55 748.083 L1572.55 748.083  Z" fill="#009af9" fill-rule="evenodd" fill-opacity="1"/>
<polyline clip-path="url(#clip961)" style="stroke:#000000; stroke-linecap:round; stroke-linejoin:round; stroke-width:0; stroke-opacity:1; fill:none" points="1572.55,748.083 1572.55,1341.1 1592.56,1341.1 1592.56,748.083 1572.55,748.083 "/>
<path clip-path="url(#clip961)" d="M1592.56 780.429 L1592.56 1341.1 L1612.56 1341.1 L1612.56 780.429 L1592.56 780.429 L1592.56 780.429  Z" fill="#009af9" fill-rule="evenodd" fill-opacity="1"/>
<polyline clip-path="url(#clip961)" style="stroke:#000000; stroke-linecap:round; stroke-linejoin:round; stroke-width:0; stroke-opacity:1; fill:none" points="1592.56,780.429 1592.56,1341.1 1612.56,1341.1 1612.56,780.429 1592.56,780.429 "/>
<path clip-path="url(#clip961)" d="M1612.56 810.619 L1612.56 1341.1 L1632.57 1341.1 L1632.57 810.619 L1612.56 810.619 L1612.56 810.619  Z" fill="#009af9" fill-rule="evenodd" fill-opacity="1"/>
<polyline clip-path="url(#clip961)" style="stroke:#000000; stroke-linecap:round; stroke-linejoin:round; stroke-width:0; stroke-opacity:1; fill:none" points="1612.56,810.619 1612.56,1341.1 1632.57,1341.1 1632.57,810.619 1612.56,810.619 "/>
<path clip-path="url(#clip961)" d="M1632.57 840.809 L1632.57 1341.1 L1652.57 1341.1 L1652.57 840.809 L1632.57 840.809 L1632.57 840.809  Z" fill="#009af9" fill-rule="evenodd" fill-opacity="1"/>
<polyline clip-path="url(#clip961)" style="stroke:#000000; stroke-linecap:round; stroke-linejoin:round; stroke-width:0; stroke-opacity:1; fill:none" points="1632.57,840.809 1632.57,1341.1 1652.57,1341.1 1652.57,840.809 1632.57,840.809 "/>
<path clip-path="url(#clip961)" d="M1652.57 873.155 L1652.57 1341.1 L1672.58 1341.1 L1672.58 873.155 L1652.57 873.155 L1652.57 873.155  Z" fill="#009af9" fill-rule="evenodd" fill-opacity="1"/>
<polyline clip-path="url(#clip961)" style="stroke:#000000; stroke-linecap:round; stroke-linejoin:round; stroke-width:0; stroke-opacity:1; fill:none" points="1652.57,873.155 1652.57,1341.1 1672.58,1341.1 1672.58,873.155 1652.57,873.155 "/>
<path clip-path="url(#clip961)" d="M1672.58 903.345 L1672.58 1341.1 L1692.58 1341.1 L1692.58 903.345 L1672.58 903.345 L1672.58 903.345  Z" fill="#009af9" fill-rule="evenodd" fill-opacity="1"/>
<polyline clip-path="url(#clip961)" style="stroke:#000000; stroke-linecap:round; stroke-linejoin:round; stroke-width:0; stroke-opacity:1; fill:none" points="1672.58,903.345 1672.58,1341.1 1692.58,1341.1 1692.58,903.345 1672.58,903.345 "/>
<path clip-path="url(#clip961)" d="M1692.58 950.787 L1692.58 1341.1 L1712.59 1341.1 L1712.59 950.787 L1692.58 950.787 L1692.58 950.787  Z" fill="#009af9" fill-rule="evenodd" fill-opacity="1"/>
<polyline clip-path="url(#clip961)" style="stroke:#000000; stroke-linecap:round; stroke-linejoin:round; stroke-width:0; stroke-opacity:1; fill:none" points="1692.58,950.787 1692.58,1341.1 1712.59,1341.1 1712.59,950.787 1692.58,950.787 "/>
<path clip-path="url(#clip961)" d="M1712.59 1019.79 L1712.59 1341.1 L1732.59 1341.1 L1732.59 1019.79 L1712.59 1019.79 L1712.59 1019.79  Z" fill="#009af9" fill-rule="evenodd" fill-opacity="1"/>
<polyline clip-path="url(#clip961)" style="stroke:#000000; stroke-linecap:round; stroke-linejoin:round; stroke-width:0; stroke-opacity:1; fill:none" points="1712.59,1019.79 1712.59,1341.1 1732.59,1341.1 1732.59,1019.79 1712.59,1019.79 "/>
<path clip-path="url(#clip961)" d="M1732.59 1049.98 L1732.59 1341.1 L1752.6 1341.1 L1752.6 1049.98 L1732.59 1049.98 L1732.59 1049.98  Z" fill="#009af9" fill-rule="evenodd" fill-opacity="1"/>
<polyline clip-path="url(#clip961)" style="stroke:#000000; stroke-linecap:round; stroke-linejoin:round; stroke-width:0; stroke-opacity:1; fill:none" points="1732.59,1049.98 1732.59,1341.1 1752.6,1341.1 1752.6,1049.98 1732.59,1049.98 "/>
<path clip-path="url(#clip961)" d="M1752.6 1138.4 L1752.6 1341.1 L1772.6 1341.1 L1772.6 1138.4 L1752.6 1138.4 L1752.6 1138.4  Z" fill="#009af9" fill-rule="evenodd" fill-opacity="1"/>
<polyline clip-path="url(#clip961)" style="stroke:#000000; stroke-linecap:round; stroke-linejoin:round; stroke-width:0; stroke-opacity:1; fill:none" points="1752.6,1138.4 1752.6,1341.1 1772.6,1341.1 1772.6,1138.4 1752.6,1138.4 "/>
<path clip-path="url(#clip961)" d="M1772.6 1237.59 L1772.6 1341.1 L1792.61 1341.1 L1792.61 1237.59 L1772.6 1237.59 L1772.6 1237.59  Z" fill="#009af9" fill-rule="evenodd" fill-opacity="1"/>
<polyline clip-path="url(#clip961)" style="stroke:#000000; stroke-linecap:round; stroke-linejoin:round; stroke-width:0; stroke-opacity:1; fill:none" points="1772.6,1237.59 1772.6,1341.1 1792.61,1341.1 1792.61,1237.59 1772.6,1237.59 "/>
<path clip-path="url(#clip961)" d="M1792.61 1323.85 L1792.61 1341.1 L1812.62 1341.1 L1812.62 1323.85 L1792.61 1323.85 L1792.61 1323.85  Z" fill="#009af9" fill-rule="evenodd" fill-opacity="1"/>
<polyline clip-path="url(#clip961)" style="stroke:#000000; stroke-linecap:round; stroke-linejoin:round; stroke-width:0; stroke-opacity:1; fill:none" points="1792.61,1323.85 1792.61,1341.1 1812.62,1341.1 1812.62,1323.85 1792.61,1323.85 "/>
<path clip-path="url(#clip961)" d="M1812.62 1338.94 L1812.62 1341.1 L1832.62 1341.1 L1832.62 1338.94 L1812.62 1338.94 L1812.62 1338.94  Z" fill="#009af9" fill-rule="evenodd" fill-opacity="1"/>
<polyline clip-path="url(#clip961)" style="stroke:#000000; stroke-linecap:round; stroke-linejoin:round; stroke-width:0; stroke-opacity:1; fill:none" points="1812.62,1338.94 1812.62,1341.1 1832.62,1341.1 1832.62,1338.94 1812.62,1338.94 "/>
<path clip-path="url(#clip961)" d="M1832.62 1341.1 L1832.62 1341.1 L1852.63 1341.1 L1852.63 1341.1 L1832.62 1341.1 L1832.62 1341.1  Z" fill="#009af9" fill-rule="evenodd" fill-opacity="1"/>
<polyline clip-path="url(#clip961)" style="stroke:#000000; stroke-linecap:round; stroke-linejoin:round; stroke-width:0; stroke-opacity:1; fill:none" points="1832.62,1341.1 1832.62,1341.1 1852.63,1341.1 1832.62,1341.1 "/>
<path clip-path="url(#clip961)" d="M1852.63 1341.1 L1852.63 1341.1 L1872.63 1341.1 L1872.63 1341.1 L1852.63 1341.1 L1852.63 1341.1  Z" fill="#009af9" fill-rule="evenodd" fill-opacity="1"/>
<polyline clip-path="url(#clip961)" style="stroke:#000000; stroke-linecap:round; stroke-linejoin:round; stroke-width:0; stroke-opacity:1; fill:none" points="1852.63,1341.1 1852.63,1341.1 1872.63,1341.1 1852.63,1341.1 "/>
<path clip-path="url(#clip961)" d="M1872.63 1341.1 L1872.63 1341.1 L1892.64 1341.1 L1892.64 1341.1 L1872.63 1341.1 L1872.63 1341.1  Z" fill="#009af9" fill-rule="evenodd" fill-opacity="1"/>
<polyline clip-path="url(#clip961)" style="stroke:#000000; stroke-linecap:round; stroke-linejoin:round; stroke-width:0; stroke-opacity:1; fill:none" points="1872.63,1341.1 1872.63,1341.1 1892.64,1341.1 1872.63,1341.1 "/>
<path clip-path="url(#clip961)" d="M1892.64 1341.1 L1892.64 1341.1 L1912.64 1341.1 L1912.64 1341.1 L1892.64 1341.1 L1892.64 1341.1  Z" fill="#009af9" fill-rule="evenodd" fill-opacity="1"/>
<polyline clip-path="url(#clip961)" style="stroke:#000000; stroke-linecap:round; stroke-linejoin:round; stroke-width:0; stroke-opacity:1; fill:none" points="1892.64,1341.1 1892.64,1341.1 1912.64,1341.1 1892.64,1341.1 "/>
<path clip-path="url(#clip961)" d="M1912.64 1341.1 L1912.64 1341.1 L1932.65 1341.1 L1932.65 1341.1 L1912.64 1341.1 L1912.64 1341.1  Z" fill="#009af9" fill-rule="evenodd" fill-opacity="1"/>
<polyline clip-path="url(#clip961)" style="stroke:#000000; stroke-linecap:round; stroke-linejoin:round; stroke-width:0; stroke-opacity:1; fill:none" points="1912.64,1341.1 1912.64,1341.1 1932.65,1341.1 1912.64,1341.1 "/>
<path clip-path="url(#clip961)" d="M1932.65 1341.1 L1932.65 1341.1 L1952.65 1341.1 L1952.65 1341.1 L1932.65 1341.1 L1932.65 1341.1  Z" fill="#009af9" fill-rule="evenodd" fill-opacity="1"/>
<polyline clip-path="url(#clip961)" style="stroke:#000000; stroke-linecap:round; stroke-linejoin:round; stroke-width:0; stroke-opacity:1; fill:none" points="1932.65,1341.1 1932.65,1341.1 1952.65,1341.1 1932.65,1341.1 "/>
<path clip-path="url(#clip961)" d="M1952.65 1341.1 L1952.65 1341.1 L1972.66 1341.1 L1972.66 1341.1 L1952.65 1341.1 L1952.65 1341.1  Z" fill="#009af9" fill-rule="evenodd" fill-opacity="1"/>
<polyline clip-path="url(#clip961)" style="stroke:#000000; stroke-linecap:round; stroke-linejoin:round; stroke-width:0; stroke-opacity:1; fill:none" points="1952.65,1341.1 1952.65,1341.1 1972.66,1341.1 1952.65,1341.1 "/>
<path clip-path="url(#clip961)" d="M1972.66 1341.1 L1972.66 1341.1 L1992.66 1341.1 L1992.66 1341.1 L1972.66 1341.1 L1972.66 1341.1  Z" fill="#009af9" fill-rule="evenodd" fill-opacity="1"/>
<polyline clip-path="url(#clip961)" style="stroke:#000000; stroke-linecap:round; stroke-linejoin:round; stroke-width:0; stroke-opacity:1; fill:none" points="1972.66,1341.1 1972.66,1341.1 1992.66,1341.1 1972.66,1341.1 "/>
<path clip-path="url(#clip961)" d="M1992.66 1341.1 L1992.66 1341.1 L2012.67 1341.1 L2012.67 1341.1 L1992.66 1341.1 L1992.66 1341.1  Z" fill="#009af9" fill-rule="evenodd" fill-opacity="1"/>
<polyline clip-path="url(#clip961)" style="stroke:#000000; stroke-linecap:round; stroke-linejoin:round; stroke-width:0; stroke-opacity:1; fill:none" points="1992.66,1341.1 1992.66,1341.1 2012.67,1341.1 1992.66,1341.1 "/>
<path clip-path="url(#clip961)" d="M2012.67 1341.1 L2012.67 1341.1 L2032.67 1341.1 L2032.67 1341.1 L2012.67 1341.1 L2012.67 1341.1  Z" fill="#009af9" fill-rule="evenodd" fill-opacity="1"/>
<polyline clip-path="url(#clip961)" style="stroke:#000000; stroke-linecap:round; stroke-linejoin:round; stroke-width:0; stroke-opacity:1; fill:none" points="2012.67,1341.1 2012.67,1341.1 2032.67,1341.1 2012.67,1341.1 "/>
<path clip-path="url(#clip961)" d="M2032.67 1341.1 L2032.67 1341.1 L2052.68 1341.1 L2052.68 1341.1 L2032.67 1341.1 L2032.67 1341.1  Z" fill="#009af9" fill-rule="evenodd" fill-opacity="1"/>
<polyline clip-path="url(#clip961)" style="stroke:#000000; stroke-linecap:round; stroke-linejoin:round; stroke-width:0; stroke-opacity:1; fill:none" points="2032.67,1341.1 2032.67,1341.1 2052.68,1341.1 2032.67,1341.1 "/>
<path clip-path="url(#clip961)" d="M2052.68 1341.1 L2052.68 1341.1 L2072.68 1341.1 L2072.68 1341.1 L2052.68 1341.1 L2052.68 1341.1  Z" fill="#009af9" fill-rule="evenodd" fill-opacity="1"/>
<polyline clip-path="url(#clip961)" style="stroke:#000000; stroke-linecap:round; stroke-linejoin:round; stroke-width:0; stroke-opacity:1; fill:none" points="2052.68,1341.1 2052.68,1341.1 2072.68,1341.1 2052.68,1341.1 "/>
<path clip-path="url(#clip961)" d="M2072.68 1341.1 L2072.68 1341.1 L2092.69 1341.1 L2092.69 1341.1 L2072.68 1341.1 L2072.68 1341.1  Z" fill="#009af9" fill-rule="evenodd" fill-opacity="1"/>
<polyline clip-path="url(#clip961)" style="stroke:#000000; stroke-linecap:round; stroke-linejoin:round; stroke-width:0; stroke-opacity:1; fill:none" points="2072.68,1341.1 2072.68,1341.1 2092.69,1341.1 2072.68,1341.1 "/>
<path clip-path="url(#clip961)" d="M2092.69 1341.1 L2092.69 1341.1 L2112.69 1341.1 L2112.69 1341.1 L2092.69 1341.1 L2092.69 1341.1  Z" fill="#009af9" fill-rule="evenodd" fill-opacity="1"/>
<polyline clip-path="url(#clip961)" style="stroke:#000000; stroke-linecap:round; stroke-linejoin:round; stroke-width:0; stroke-opacity:1; fill:none" points="2092.69,1341.1 2092.69,1341.1 2112.69,1341.1 2092.69,1341.1 "/>
<path clip-path="url(#clip961)" d="M2112.69 1341.1 L2112.69 1341.1 L2132.7 1341.1 L2132.7 1341.1 L2112.69 1341.1 L2112.69 1341.1  Z" fill="#009af9" fill-rule="evenodd" fill-opacity="1"/>
<polyline clip-path="url(#clip961)" style="stroke:#000000; stroke-linecap:round; stroke-linejoin:round; stroke-width:0; stroke-opacity:1; fill:none" points="2112.69,1341.1 2112.69,1341.1 2132.7,1341.1 2112.69,1341.1 "/>
<path clip-path="url(#clip961)" d="M2132.7 1341.1 L2132.7 1341.1 L2152.7 1341.1 L2152.7 1341.1 L2132.7 1341.1 L2132.7 1341.1  Z" fill="#009af9" fill-rule="evenodd" fill-opacity="1"/>
<polyline clip-path="url(#clip961)" style="stroke:#000000; stroke-linecap:round; stroke-linejoin:round; stroke-width:0; stroke-opacity:1; fill:none" points="2132.7,1341.1 2132.7,1341.1 2152.7,1341.1 2132.7,1341.1 "/>
<path clip-path="url(#clip961)" d="M2152.7 1341.1 L2152.7 1341.1 L2172.71 1341.1 L2172.71 1341.1 L2152.7 1341.1 L2152.7 1341.1  Z" fill="#009af9" fill-rule="evenodd" fill-opacity="1"/>
<polyline clip-path="url(#clip961)" style="stroke:#000000; stroke-linecap:round; stroke-linejoin:round; stroke-width:0; stroke-opacity:1; fill:none" points="2152.7,1341.1 2152.7,1341.1 2172.71,1341.1 2152.7,1341.1 "/>
<path clip-path="url(#clip961)" d="M2172.71 1341.1 L2172.71 1341.1 L2192.71 1341.1 L2192.71 1341.1 L2172.71 1341.1 L2172.71 1341.1  Z" fill="#009af9" fill-rule="evenodd" fill-opacity="1"/>
<polyline clip-path="url(#clip961)" style="stroke:#000000; stroke-linecap:round; stroke-linejoin:round; stroke-width:0; stroke-opacity:1; fill:none" points="2172.71,1341.1 2172.71,1341.1 2192.71,1341.1 2172.71,1341.1 "/>
<path clip-path="url(#clip961)" d="M2192.71 1341.1 L2192.71 1341.1 L2212.72 1341.1 L2212.72 1341.1 L2192.71 1341.1 L2192.71 1341.1  Z" fill="#009af9" fill-rule="evenodd" fill-opacity="1"/>
<polyline clip-path="url(#clip961)" style="stroke:#000000; stroke-linecap:round; stroke-linejoin:round; stroke-width:0; stroke-opacity:1; fill:none" points="2192.71,1341.1 2192.71,1341.1 2212.72,1341.1 2192.71,1341.1 "/>
<path clip-path="url(#clip961)" d="M2212.72 1341.1 L2212.72 1341.1 L2232.72 1341.1 L2232.72 1341.1 L2212.72 1341.1 L2212.72 1341.1  Z" fill="#009af9" fill-rule="evenodd" fill-opacity="1"/>
<polyline clip-path="url(#clip961)" style="stroke:#000000; stroke-linecap:round; stroke-linejoin:round; stroke-width:0; stroke-opacity:1; fill:none" points="2212.72,1341.1 2212.72,1341.1 2232.72,1341.1 2212.72,1341.1 "/>
<path clip-path="url(#clip961)" d="M2232.72 1341.1 L2232.72 1341.1 L2252.73 1341.1 L2252.73 1341.1 L2232.72 1341.1 L2232.72 1341.1  Z" fill="#009af9" fill-rule="evenodd" fill-opacity="1"/>
<polyline clip-path="url(#clip961)" style="stroke:#000000; stroke-linecap:round; stroke-linejoin:round; stroke-width:0; stroke-opacity:1; fill:none" points="2232.72,1341.1 2232.72,1341.1 2252.73,1341.1 2232.72,1341.1 "/>
<path clip-path="url(#clip961)" d="M2252.73 1341.1 L2252.73 1341.1 L2272.74 1341.1 L2272.74 1341.1 L2252.73 1341.1 L2252.73 1341.1  Z" fill="#009af9" fill-rule="evenodd" fill-opacity="1"/>
<polyline clip-path="url(#clip961)" style="stroke:#000000; stroke-linecap:round; stroke-linejoin:round; stroke-width:0; stroke-opacity:1; fill:none" points="2252.73,1341.1 2252.73,1341.1 2272.74,1341.1 2252.73,1341.1 "/>
<path clip-path="url(#clip961)" d="M2272.74 1341.1 L2272.74 1341.1 L2292.74 1341.1 L2292.74 1341.1 L2272.74 1341.1 L2272.74 1341.1  Z" fill="#009af9" fill-rule="evenodd" fill-opacity="1"/>
<polyline clip-path="url(#clip961)" style="stroke:#000000; stroke-linecap:round; stroke-linejoin:round; stroke-width:0; stroke-opacity:1; fill:none" points="2272.74,1341.1 2272.74,1341.1 2292.74,1341.1 2272.74,1341.1 "/>
<circle clip-path="url(#clip961)" style="fill:#009af9; stroke:none; fill-opacity:0" cx="302.222" cy="1341.1" r="2"/>
<circle clip-path="url(#clip961)" style="fill:#009af9; stroke:none; fill-opacity:0" cx="322.228" cy="1341.1" r="2"/>
<circle clip-path="url(#clip961)" style="fill:#009af9; stroke:none; fill-opacity:0" cx="342.233" cy="1341.1" r="2"/>
<circle clip-path="url(#clip961)" style="fill:#009af9; stroke:none; fill-opacity:0" cx="362.238" cy="1341.1" r="2"/>
<circle clip-path="url(#clip961)" style="fill:#009af9; stroke:none; fill-opacity:0" cx="382.243" cy="1341.1" r="2"/>
<circle clip-path="url(#clip961)" style="fill:#009af9; stroke:none; fill-opacity:0" cx="402.248" cy="1341.1" r="2"/>
<circle clip-path="url(#clip961)" style="fill:#009af9; stroke:none; fill-opacity:0" cx="422.254" cy="1341.1" r="2"/>
<circle clip-path="url(#clip961)" style="fill:#009af9; stroke:none; fill-opacity:0" cx="442.259" cy="1341.1" r="2"/>
<circle clip-path="url(#clip961)" style="fill:#009af9; stroke:none; fill-opacity:0" cx="462.264" cy="1341.1" r="2"/>
<circle clip-path="url(#clip961)" style="fill:#009af9; stroke:none; fill-opacity:0" cx="482.269" cy="1341.1" r="2"/>
<circle clip-path="url(#clip961)" style="fill:#009af9; stroke:none; fill-opacity:0" cx="502.274" cy="1341.1" r="2"/>
<circle clip-path="url(#clip961)" style="fill:#009af9; stroke:none; fill-opacity:0" cx="522.28" cy="1341.1" r="2"/>
<circle clip-path="url(#clip961)" style="fill:#009af9; stroke:none; fill-opacity:0" cx="542.285" cy="1341.1" r="2"/>
<circle clip-path="url(#clip961)" style="fill:#009af9; stroke:none; fill-opacity:0" cx="562.29" cy="1341.1" r="2"/>
<circle clip-path="url(#clip961)" style="fill:#009af9; stroke:none; fill-opacity:0" cx="582.295" cy="1341.1" r="2"/>
<circle clip-path="url(#clip961)" style="fill:#009af9; stroke:none; fill-opacity:0" cx="602.3" cy="1341.1" r="2"/>
<circle clip-path="url(#clip961)" style="fill:#009af9; stroke:none; fill-opacity:0" cx="622.306" cy="1341.1" r="2"/>
<circle clip-path="url(#clip961)" style="fill:#009af9; stroke:none; fill-opacity:0" cx="642.311" cy="1341.1" r="2"/>
<circle clip-path="url(#clip961)" style="fill:#009af9; stroke:none; fill-opacity:0" cx="662.316" cy="1341.1" r="2"/>
<circle clip-path="url(#clip961)" style="fill:#009af9; stroke:none; fill-opacity:0" cx="682.321" cy="1341.1" r="2"/>
<circle clip-path="url(#clip961)" style="fill:#009af9; stroke:none; fill-opacity:0" cx="702.326" cy="1341.1" r="2"/>
<circle clip-path="url(#clip961)" style="fill:#009af9; stroke:none; fill-opacity:0" cx="722.332" cy="1341.1" r="2"/>
<circle clip-path="url(#clip961)" style="fill:#009af9; stroke:none; fill-opacity:0" cx="742.337" cy="1341.1" r="2"/>
<circle clip-path="url(#clip961)" style="fill:#009af9; stroke:none; fill-opacity:0" cx="762.342" cy="1338.94" r="2"/>
<circle clip-path="url(#clip961)" style="fill:#009af9; stroke:none; fill-opacity:0" cx="782.347" cy="1306.6" r="2"/>
<circle clip-path="url(#clip961)" style="fill:#009af9; stroke:none; fill-opacity:0" cx="802.352" cy="1147.02" r="2"/>
<circle clip-path="url(#clip961)" style="fill:#009af9; stroke:none; fill-opacity:0" cx="822.358" cy="1019.79" r="2"/>
<circle clip-path="url(#clip961)" style="fill:#009af9; stroke:none; fill-opacity:0" cx="842.363" cy="873.155" r="2"/>
<circle clip-path="url(#clip961)" style="fill:#009af9; stroke:none; fill-opacity:0" cx="862.368" cy="786.898" r="2"/>
<circle clip-path="url(#clip961)" style="fill:#009af9; stroke:none; fill-opacity:0" cx="882.373" cy="728.675" r="2"/>
<circle clip-path="url(#clip961)" style="fill:#009af9; stroke:none; fill-opacity:0" cx="902.378" cy="730.831" r="2"/>
<circle clip-path="url(#clip961)" style="fill:#009af9; stroke:none; fill-opacity:0" cx="922.384" cy="648.887" r="2"/>
<circle clip-path="url(#clip961)" style="fill:#009af9; stroke:none; fill-opacity:0" cx="942.389" cy="666.138" r="2"/>
<circle clip-path="url(#clip961)" style="fill:#009af9; stroke:none; fill-opacity:0" cx="962.394" cy="586.351" r="2"/>
<circle clip-path="url(#clip961)" style="fill:#009af9; stroke:none; fill-opacity:0" cx="982.399" cy="575.569" r="2"/>
<circle clip-path="url(#clip961)" style="fill:#009af9; stroke:none; fill-opacity:0" cx="1002.4" cy="564.786" r="2"/>
<circle clip-path="url(#clip961)" style="fill:#009af9; stroke:none; fill-opacity:0" cx="1022.41" cy="515.189" r="2"/>
<circle clip-path="url(#clip961)" style="fill:#009af9; stroke:none; fill-opacity:0" cx="1042.41" cy="566.943" r="2"/>
<circle clip-path="url(#clip961)" style="fill:#009af9; stroke:none; fill-opacity:0" cx="1062.42" cy="545.379" r="2"/>
<circle clip-path="url(#clip961)" style="fill:#009af9; stroke:none; fill-opacity:0" cx="1082.43" cy="560.474" r="2"/>
<circle clip-path="url(#clip961)" style="fill:#009af9; stroke:none; fill-opacity:0" cx="1102.43" cy="497.937" r="2"/>
<circle clip-path="url(#clip961)" style="fill:#009af9; stroke:none; fill-opacity:0" cx="1122.44" cy="541.066" r="2"/>
<circle clip-path="url(#clip961)" style="fill:#009af9; stroke:none; fill-opacity:0" cx="1142.44" cy="482.842" r="2"/>
<circle clip-path="url(#clip961)" style="fill:#009af9; stroke:none; fill-opacity:0" cx="1162.45" cy="538.909" r="2"/>
<circle clip-path="url(#clip961)" style="fill:#009af9; stroke:none; fill-opacity:0" cx="1182.45" cy="491.468" r="2"/>
<circle clip-path="url(#clip961)" style="fill:#009af9; stroke:none; fill-opacity:0" cx="1202.46" cy="534.596" r="2"/>
<circle clip-path="url(#clip961)" style="fill:#009af9; stroke:none; fill-opacity:0" cx="1222.46" cy="482.842" r="2"/>
<circle clip-path="url(#clip961)" style="fill:#009af9; stroke:none; fill-opacity:0" cx="1242.47" cy="536.753" r="2"/>
<circle clip-path="url(#clip961)" style="fill:#009af9; stroke:none; fill-opacity:0" cx="1262.47" cy="517.345" r="2"/>
<circle clip-path="url(#clip961)" style="fill:#009af9; stroke:none; fill-opacity:0" cx="1282.48" cy="566.943" r="2"/>
<circle clip-path="url(#clip961)" style="fill:#009af9; stroke:none; fill-opacity:0" cx="1302.48" cy="538.909" r="2"/>
<circle clip-path="url(#clip961)" style="fill:#009af9; stroke:none; fill-opacity:0" cx="1322.49" cy="536.753" r="2"/>
<circle clip-path="url(#clip961)" style="fill:#009af9; stroke:none; fill-opacity:0" cx="1342.49" cy="573.412" r="2"/>
<circle clip-path="url(#clip961)" style="fill:#009af9; stroke:none; fill-opacity:0" cx="1362.5" cy="549.691" r="2"/>
<circle clip-path="url(#clip961)" style="fill:#009af9; stroke:none; fill-opacity:0" cx="1382.5" cy="599.289" r="2"/>
<circle clip-path="url(#clip961)" style="fill:#009af9; stroke:none; fill-opacity:0" cx="1402.51" cy="545.379" r="2"/>
<circle clip-path="url(#clip961)" style="fill:#009af9; stroke:none; fill-opacity:0" cx="1422.51" cy="623.01" r="2"/>
<circle clip-path="url(#clip961)" style="fill:#009af9; stroke:none; fill-opacity:0" cx="1442.52" cy="614.384" r="2"/>
<circle clip-path="url(#clip961)" style="fill:#009af9; stroke:none; fill-opacity:0" cx="1462.52" cy="648.887" r="2"/>
<circle clip-path="url(#clip961)" style="fill:#009af9; stroke:none; fill-opacity:0" cx="1482.53" cy="666.138" r="2"/>
<circle clip-path="url(#clip961)" style="fill:#009af9; stroke:none; fill-opacity:0" cx="1502.53" cy="689.859" r="2"/>
<circle clip-path="url(#clip961)" style="fill:#009af9; stroke:none; fill-opacity:0" cx="1522.54" cy="674.764" r="2"/>
<circle clip-path="url(#clip961)" style="fill:#009af9; stroke:none; fill-opacity:0" cx="1542.55" cy="726.518" r="2"/>
<circle clip-path="url(#clip961)" style="fill:#009af9; stroke:none; fill-opacity:0" cx="1562.55" cy="717.893" r="2"/>
<circle clip-path="url(#clip961)" style="fill:#009af9; stroke:none; fill-opacity:0" cx="1582.56" cy="748.083" r="2"/>
<circle clip-path="url(#clip961)" style="fill:#009af9; stroke:none; fill-opacity:0" cx="1602.56" cy="780.429" r="2"/>
<circle clip-path="url(#clip961)" style="fill:#009af9; stroke:none; fill-opacity:0" cx="1622.57" cy="810.619" r="2"/>
<circle clip-path="url(#clip961)" style="fill:#009af9; stroke:none; fill-opacity:0" cx="1642.57" cy="840.809" r="2"/>
<circle clip-path="url(#clip961)" style="fill:#009af9; stroke:none; fill-opacity:0" cx="1662.58" cy="873.155" r="2"/>
<circle clip-path="url(#clip961)" style="fill:#009af9; stroke:none; fill-opacity:0" cx="1682.58" cy="903.345" r="2"/>
<circle clip-path="url(#clip961)" style="fill:#009af9; stroke:none; fill-opacity:0" cx="1702.59" cy="950.787" r="2"/>
<circle clip-path="url(#clip961)" style="fill:#009af9; stroke:none; fill-opacity:0" cx="1722.59" cy="1019.79" r="2"/>
<circle clip-path="url(#clip961)" style="fill:#009af9; stroke:none; fill-opacity:0" cx="1742.6" cy="1049.98" r="2"/>
<circle clip-path="url(#clip961)" style="fill:#009af9; stroke:none; fill-opacity:0" cx="1762.6" cy="1138.4" r="2"/>
<circle clip-path="url(#clip961)" style="fill:#009af9; stroke:none; fill-opacity:0" cx="1782.61" cy="1237.59" r="2"/>
<circle clip-path="url(#clip961)" style="fill:#009af9; stroke:none; fill-opacity:0" cx="1802.61" cy="1323.85" r="2"/>
<circle clip-path="url(#clip961)" style="fill:#009af9; stroke:none; fill-opacity:0" cx="1822.62" cy="1338.94" r="2"/>
<circle clip-path="url(#clip961)" style="fill:#009af9; stroke:none; fill-opacity:0" cx="1842.62" cy="1341.1" r="2"/>
<circle clip-path="url(#clip961)" style="fill:#009af9; stroke:none; fill-opacity:0" cx="1862.63" cy="1341.1" r="2"/>
<circle clip-path="url(#clip961)" style="fill:#009af9; stroke:none; fill-opacity:0" cx="1882.63" cy="1341.1" r="2"/>
<circle clip-path="url(#clip961)" style="fill:#009af9; stroke:none; fill-opacity:0" cx="1902.64" cy="1341.1" r="2"/>
<circle clip-path="url(#clip961)" style="fill:#009af9; stroke:none; fill-opacity:0" cx="1922.64" cy="1341.1" r="2"/>
<circle clip-path="url(#clip961)" style="fill:#009af9; stroke:none; fill-opacity:0" cx="1942.65" cy="1341.1" r="2"/>
<circle clip-path="url(#clip961)" style="fill:#009af9; stroke:none; fill-opacity:0" cx="1962.65" cy="1341.1" r="2"/>
<circle clip-path="url(#clip961)" style="fill:#009af9; stroke:none; fill-opacity:0" cx="1982.66" cy="1341.1" r="2"/>
<circle clip-path="url(#clip961)" style="fill:#009af9; stroke:none; fill-opacity:0" cx="2002.66" cy="1341.1" r="2"/>
<circle clip-path="url(#clip961)" style="fill:#009af9; stroke:none; fill-opacity:0" cx="2022.67" cy="1341.1" r="2"/>
<circle clip-path="url(#clip961)" style="fill:#009af9; stroke:none; fill-opacity:0" cx="2042.68" cy="1341.1" r="2"/>
<circle clip-path="url(#clip961)" style="fill:#009af9; stroke:none; fill-opacity:0" cx="2062.68" cy="1341.1" r="2"/>
<circle clip-path="url(#clip961)" style="fill:#009af9; stroke:none; fill-opacity:0" cx="2082.69" cy="1341.1" r="2"/>
<circle clip-path="url(#clip961)" style="fill:#009af9; stroke:none; fill-opacity:0" cx="2102.69" cy="1341.1" r="2"/>
<circle clip-path="url(#clip961)" style="fill:#009af9; stroke:none; fill-opacity:0" cx="2122.7" cy="1341.1" r="2"/>
<circle clip-path="url(#clip961)" style="fill:#009af9; stroke:none; fill-opacity:0" cx="2142.7" cy="1341.1" r="2"/>
<circle clip-path="url(#clip961)" style="fill:#009af9; stroke:none; fill-opacity:0" cx="2162.71" cy="1341.1" r="2"/>
<circle clip-path="url(#clip961)" style="fill:#009af9; stroke:none; fill-opacity:0" cx="2182.71" cy="1341.1" r="2"/>
<circle clip-path="url(#clip961)" style="fill:#009af9; stroke:none; fill-opacity:0" cx="2202.72" cy="1341.1" r="2"/>
<circle clip-path="url(#clip961)" style="fill:#009af9; stroke:none; fill-opacity:0" cx="2222.72" cy="1341.1" r="2"/>
<circle clip-path="url(#clip961)" style="fill:#009af9; stroke:none; fill-opacity:0" cx="2242.73" cy="1341.1" r="2"/>
<circle clip-path="url(#clip961)" style="fill:#009af9; stroke:none; fill-opacity:0" cx="2262.73" cy="1341.1" r="2"/>
<circle clip-path="url(#clip961)" style="fill:#009af9; stroke:none; fill-opacity:0" cx="2282.74" cy="1341.1" r="2"/>
<polyline clip-path="url(#clip961)" style="stroke:#e26f46; stroke-linecap:round; stroke-linejoin:round; stroke-width:12; stroke-opacity:1; fill:none" points="292.22,1341.1 312.225,1341.1 332.23,1341.1 352.235,1341.1 372.241,1341.1 392.246,1341.1 412.251,1341.1 432.256,1341.1 452.261,1341.1 472.267,1341.1 492.272,1341.1 512.277,1341.1 532.282,1341.1 552.287,1341.1 572.293,1341.1 592.298,1341.1 612.303,1341.1 632.308,1341.1 652.313,1341.1 672.319,1341.1 692.324,1341.1 712.329,1341.1 732.334,1341.1 752.339,1341.1 772.345,1341.1 792.35,1341.1 812.355,1022.78 832.36,905.719 852.365,824.916 872.371,763.642 892.376,715.146 912.381,675.852 932.386,643.577 952.392,616.868 972.397,594.704 992.402,576.332 1012.41,561.183 1032.41,548.815 1052.42,538.878 1072.42,531.092 1092.43,525.229 1112.43,521.102 1132.44,518.557 1152.44,517.466 1172.45,517.722 1192.45,519.238 1212.46,521.94 1232.46,525.768 1252.47,530.672 1272.47,536.613 1292.48,543.561 1312.49,551.494 1332.49,560.397 1352.5,570.262 1372.5,581.09 1392.51,592.886 1412.51,605.666 1432.52,619.45 1452.52,634.271 1472.53,650.168 1492.53,667.192 1512.54,685.408 1532.54,704.895 1552.55,725.755 1572.55,748.11 1592.56,772.119 1612.56,797.98 1632.57,825.956 1652.57,856.392 1672.58,889.77 1692.58,926.781 1712.59,968.486 1732.59,1016.67 1752.6,1074.81 1772.6,1151.83 1792.61,1341.1 1812.62,1341.1 1832.62,1341.1 1852.63,1341.1 1872.63,1341.1 1892.64,1341.1 1912.64,1341.1 1932.65,1341.1 1952.65,1341.1 1972.66,1341.1 1992.66,1341.1 2012.67,1341.1 2032.67,1341.1 2052.68,1341.1 2072.68,1341.1 2092.69,1341.1 2112.69,1341.1 2132.7,1341.1 2152.7,1341.1 2172.71,1341.1 2192.71,1341.1 2212.72,1341.1 2232.72,1341.1 2252.73,1341.1 2272.74,1341.1 2292.74,1341.1 "/>
<path clip-path="url(#clip960)" d="M1589.45 440.293 L2282.07 440.293 L2282.07 90.3726 L1589.45 90.3726  Z" fill="#ffffff" fill-rule="evenodd" fill-opacity="1"/>
<polyline clip-path="url(#clip960)" style="stroke:#000000; stroke-linecap:round; stroke-linejoin:round; stroke-width:4; stroke-opacity:1; fill:none" points="1589.45,440.293 2282.07,440.293 2282.07,90.3726 1589.45,90.3726 1589.45,440.293 "/>
<path clip-path="url(#clip960)" d="M1613.01 253.669 L1754.38 253.669 L1754.38 160.357 L1613.01 160.357 L1613.01 253.669  Z" fill="#009af9" fill-rule="evenodd" fill-opacity="1"/>
<polyline clip-path="url(#clip960)" style="stroke:#000000; stroke-linecap:round; stroke-linejoin:round; stroke-width:1.8; stroke-opacity:1; fill:none" points="1613.01,253.669 1754.38,253.669 1754.38,160.357 1613.01,160.357 1613.01,253.669 "/>
<path clip-path="url(#clip960)" d="M1777.94 168.133 L1827.11 168.133 L1827.11 176.987 L1788.46 176.987 L1788.46 200.007 L1825.49 200.007 L1825.49 208.862 L1788.46 208.862 L1788.46 237.039 L1828.04 237.039 L1828.04 245.893 L1777.94 245.893 L1777.94 168.133 Z" fill="#000000" fill-rule="nonzero" fill-opacity="1" /><path clip-path="url(#clip960)" d="M1890.33 198.757 Q1893.93 192.299 1898.93 189.226 Q1903.93 186.153 1910.7 186.153 Q1919.81 186.153 1924.76 192.56 Q1929.71 198.914 1929.71 210.684 L1929.71 245.893 L1920.07 245.893 L1920.07 210.997 Q1920.07 202.612 1917.1 198.549 Q1914.14 194.487 1908.04 194.487 Q1900.59 194.487 1896.27 199.435 Q1891.95 204.382 1891.95 212.924 L1891.95 245.893 L1882.31 245.893 L1882.31 210.997 Q1882.31 202.56 1879.34 198.549 Q1876.38 194.487 1870.18 194.487 Q1862.83 194.487 1858.51 199.487 Q1854.19 204.435 1854.19 212.924 L1854.19 245.893 L1844.55 245.893 L1844.55 187.56 L1854.19 187.56 L1854.19 196.622 Q1857.47 191.257 1862.05 188.705 Q1866.64 186.153 1872.94 186.153 Q1879.29 186.153 1883.72 189.383 Q1888.2 192.612 1890.33 198.757 Z" fill="#000000" fill-rule="nonzero" fill-opacity="1" /><path clip-path="url(#clip960)" d="M1958.09 237.143 L1958.09 268.08 L1948.46 268.08 L1948.46 187.56 L1958.09 187.56 L1958.09 196.414 Q1961.11 191.205 1965.7 188.705 Q1970.33 186.153 1976.74 186.153 Q1987.36 186.153 1993.98 194.591 Q2000.65 203.028 2000.65 216.778 Q2000.65 230.528 1993.98 238.966 Q1987.36 247.403 1976.74 247.403 Q1970.33 247.403 1965.7 244.903 Q1961.11 242.351 1958.09 237.143 M1990.7 216.778 Q1990.7 206.205 1986.32 200.216 Q1982 194.174 1974.4 194.174 Q1966.79 194.174 1962.42 200.216 Q1958.09 206.205 1958.09 216.778 Q1958.09 227.351 1962.42 233.393 Q1966.79 239.382 1974.4 239.382 Q1982 239.382 1986.32 233.393 Q1990.7 227.351 1990.7 216.778 Z" fill="#000000" fill-rule="nonzero" fill-opacity="1" /><path clip-path="url(#clip960)" d="M2016.53 187.56 L2026.11 187.56 L2026.11 245.893 L2016.53 245.893 L2016.53 187.56 M2016.53 164.851 L2026.11 164.851 L2026.11 176.987 L2016.53 176.987 L2016.53 164.851 Z" fill="#000000" fill-rule="nonzero" fill-opacity="1" /><path clip-path="url(#clip960)" d="M2079.97 196.518 Q2078.35 195.58 2076.43 195.164 Q2074.55 194.695 2072.26 194.695 Q2064.14 194.695 2059.76 200.007 Q2055.44 205.268 2055.44 215.164 L2055.44 245.893 L2045.8 245.893 L2045.8 187.56 L2055.44 187.56 L2055.44 196.622 Q2058.46 191.31 2063.3 188.758 Q2068.15 186.153 2075.07 186.153 Q2076.06 186.153 2077.26 186.31 Q2078.46 186.414 2079.92 186.674 L2079.97 196.518 Z" fill="#000000" fill-rule="nonzero" fill-opacity="1" /><path clip-path="url(#clip960)" d="M2090.02 187.56 L2099.6 187.56 L2099.6 245.893 L2090.02 245.893 L2090.02 187.56 M2090.02 164.851 L2099.6 164.851 L2099.6 176.987 L2090.02 176.987 L2090.02 164.851 Z" fill="#000000" fill-rule="nonzero" fill-opacity="1" /><path clip-path="url(#clip960)" d="M2161.63 189.799 L2161.63 198.757 Q2157.57 196.518 2153.46 195.424 Q2149.4 194.278 2145.23 194.278 Q2135.91 194.278 2130.75 200.216 Q2125.59 206.101 2125.59 216.778 Q2125.59 227.455 2130.75 233.393 Q2135.91 239.278 2145.23 239.278 Q2149.4 239.278 2153.46 238.184 Q2157.57 237.039 2161.63 234.799 L2161.63 243.653 Q2157.62 245.528 2153.3 246.466 Q2149.03 247.403 2144.19 247.403 Q2131.01 247.403 2123.25 239.122 Q2115.49 230.841 2115.49 216.778 Q2115.49 202.507 2123.3 194.33 Q2131.17 186.153 2144.81 186.153 Q2149.24 186.153 2153.46 187.091 Q2157.68 187.976 2161.63 189.799 Z" fill="#000000" fill-rule="nonzero" fill-opacity="1" /><path clip-path="url(#clip960)" d="M2204.81 216.57 Q2193.2 216.57 2188.72 219.226 Q2184.24 221.882 2184.24 228.289 Q2184.24 233.393 2187.57 236.414 Q2190.96 239.382 2196.74 239.382 Q2204.71 239.382 2209.5 233.757 Q2214.34 228.08 2214.34 218.705 L2214.34 216.57 L2204.81 216.57 M2223.93 212.612 L2223.93 245.893 L2214.34 245.893 L2214.34 237.039 Q2211.06 242.351 2206.17 244.903 Q2201.27 247.403 2194.19 247.403 Q2185.23 247.403 2179.92 242.403 Q2174.66 237.351 2174.66 228.914 Q2174.66 219.07 2181.22 214.07 Q2187.83 209.07 2200.91 209.07 L2214.34 209.07 L2214.34 208.132 Q2214.34 201.518 2209.97 197.924 Q2205.64 194.278 2197.78 194.278 Q2192.78 194.278 2188.04 195.476 Q2183.3 196.674 2178.93 199.07 L2178.93 190.216 Q2184.19 188.185 2189.13 187.195 Q2194.08 186.153 2198.77 186.153 Q2211.43 186.153 2217.68 192.716 Q2223.93 199.278 2223.93 212.612 Z" fill="#000000" fill-rule="nonzero" fill-opacity="1" /><path clip-path="url(#clip960)" d="M2243.67 164.851 L2253.25 164.851 L2253.25 245.893 L2243.67 245.893 L2243.67 164.851 Z" fill="#000000" fill-rule="nonzero" fill-opacity="1" /><polyline clip-path="url(#clip960)" style="stroke:#e26f46; stroke-linecap:round; stroke-linejoin:round; stroke-width:27; stroke-opacity:1; fill:none" points="1613.01,323.653 1754.38,323.653 "/>
<path clip-path="url(#clip960)" d="M1788.46 293.418 L1788.46 322.637 L1801.69 322.637 Q1809.03 322.637 1813.04 318.835 Q1817.05 315.033 1817.05 308.002 Q1817.05 301.023 1813.04 297.22 Q1809.03 293.418 1801.69 293.418 L1788.46 293.418 M1777.94 284.773 L1801.69 284.773 Q1814.76 284.773 1821.43 290.71 Q1828.15 296.595 1828.15 308.002 Q1828.15 319.512 1821.43 325.397 Q1814.76 331.283 1801.69 331.283 L1788.46 331.283 L1788.46 362.533 L1777.94 362.533 L1777.94 284.773 Z" fill="#000000" fill-rule="nonzero" fill-opacity="1" /><path clip-path="url(#clip960)" d="M1873.77 313.158 Q1872.16 312.22 1870.23 311.804 Q1868.35 311.335 1866.06 311.335 Q1857.94 311.335 1853.56 316.647 Q1849.24 321.908 1849.24 331.804 L1849.24 362.533 L1839.61 362.533 L1839.61 304.2 L1849.24 304.2 L1849.24 313.262 Q1852.26 307.95 1857.11 305.398 Q1861.95 302.793 1868.88 302.793 Q1869.87 302.793 1871.06 302.95 Q1872.26 303.054 1873.72 303.314 L1873.77 313.158 Z" fill="#000000" fill-rule="nonzero" fill-opacity="1" /><path clip-path="url(#clip960)" d="M1931.38 330.97 L1931.38 335.658 L1887.31 335.658 Q1887.94 345.554 1893.25 350.762 Q1898.62 355.918 1908.15 355.918 Q1913.67 355.918 1918.82 354.564 Q1924.03 353.21 1929.14 350.501 L1929.14 359.564 Q1923.98 361.751 1918.56 362.897 Q1913.15 364.043 1907.57 364.043 Q1893.62 364.043 1885.44 355.918 Q1877.31 347.793 1877.31 333.939 Q1877.31 319.616 1885.02 311.231 Q1892.78 302.793 1905.91 302.793 Q1917.68 302.793 1924.5 310.397 Q1931.38 317.95 1931.38 330.97 M1921.79 328.158 Q1921.69 320.293 1917.37 315.606 Q1913.09 310.918 1906.01 310.918 Q1897.99 310.918 1893.15 315.45 Q1888.35 319.981 1887.63 328.21 L1921.79 328.158 Z" fill="#000000" fill-rule="nonzero" fill-opacity="1" /><path clip-path="url(#clip960)" d="M1985.49 313.054 L1985.49 281.491 L1995.07 281.491 L1995.07 362.533 L1985.49 362.533 L1985.49 353.783 Q1982.47 358.991 1977.83 361.543 Q1973.25 364.043 1966.79 364.043 Q1956.22 364.043 1949.55 355.606 Q1942.94 347.168 1942.94 333.418 Q1942.94 319.668 1949.55 311.231 Q1956.22 302.793 1966.79 302.793 Q1973.25 302.793 1977.83 305.345 Q1982.47 307.845 1985.49 313.054 M1952.83 333.418 Q1952.83 343.991 1957.16 350.033 Q1961.53 356.022 1969.14 356.022 Q1976.74 356.022 1981.11 350.033 Q1985.49 343.991 1985.49 333.418 Q1985.49 322.845 1981.11 316.856 Q1976.74 310.814 1969.14 310.814 Q1961.53 310.814 1957.16 316.856 Q1952.83 322.845 1952.83 333.418 Z" fill="#000000" fill-rule="nonzero" fill-opacity="1" /><path clip-path="url(#clip960)" d="M2014.81 304.2 L2024.4 304.2 L2024.4 362.533 L2014.81 362.533 L2014.81 304.2 M2014.81 281.491 L2024.4 281.491 L2024.4 293.627 L2014.81 293.627 L2014.81 281.491 Z" fill="#000000" fill-rule="nonzero" fill-opacity="1" /><path clip-path="url(#clip960)" d="M2086.43 306.439 L2086.43 315.397 Q2082.36 313.158 2078.25 312.064 Q2074.19 310.918 2070.02 310.918 Q2060.7 310.918 2055.54 316.856 Q2050.39 322.741 2050.39 333.418 Q2050.39 344.095 2055.54 350.033 Q2060.7 355.918 2070.02 355.918 Q2074.19 355.918 2078.25 354.824 Q2082.36 353.679 2086.43 351.439 L2086.43 360.293 Q2082.42 362.168 2078.09 363.106 Q2073.82 364.043 2068.98 364.043 Q2055.8 364.043 2048.04 355.762 Q2040.28 347.481 2040.28 333.418 Q2040.28 319.147 2048.09 310.97 Q2055.96 302.793 2069.6 302.793 Q2074.03 302.793 2078.25 303.731 Q2082.47 304.616 2086.43 306.439 Z" fill="#000000" fill-rule="nonzero" fill-opacity="1" /><path clip-path="url(#clip960)" d="M2112.57 287.637 L2112.57 304.2 L2132.31 304.2 L2132.31 311.647 L2112.57 311.647 L2112.57 343.314 Q2112.57 350.449 2114.5 352.481 Q2116.48 354.512 2122.47 354.512 L2132.31 354.512 L2132.31 362.533 L2122.47 362.533 Q2111.37 362.533 2107.16 358.418 Q2102.94 354.251 2102.94 343.314 L2102.94 311.647 L2095.91 311.647 L2095.91 304.2 L2102.94 304.2 L2102.94 287.637 L2112.57 287.637 Z" fill="#000000" fill-rule="nonzero" fill-opacity="1" /><path clip-path="url(#clip960)" d="M2194.81 330.97 L2194.81 335.658 L2150.75 335.658 Q2151.37 345.554 2156.69 350.762 Q2162.05 355.918 2171.58 355.918 Q2177.1 355.918 2182.26 354.564 Q2187.47 353.21 2192.57 350.501 L2192.57 359.564 Q2187.42 361.751 2182 362.897 Q2176.58 364.043 2171.01 364.043 Q2157.05 364.043 2148.87 355.918 Q2140.75 347.793 2140.75 333.939 Q2140.75 319.616 2148.46 311.231 Q2156.22 302.793 2169.34 302.793 Q2181.11 302.793 2187.94 310.397 Q2194.81 317.95 2194.81 330.97 M2185.23 328.158 Q2185.12 320.293 2180.8 315.606 Q2176.53 310.918 2169.45 310.918 Q2161.43 310.918 2156.58 315.45 Q2151.79 319.981 2151.06 328.21 L2185.23 328.158 Z" fill="#000000" fill-rule="nonzero" fill-opacity="1" /><path clip-path="url(#clip960)" d="M2248.93 313.054 L2248.93 281.491 L2258.51 281.491 L2258.51 362.533 L2248.93 362.533 L2248.93 353.783 Q2245.91 358.991 2241.27 361.543 Q2236.69 364.043 2230.23 364.043 Q2219.66 364.043 2212.99 355.606 Q2206.37 347.168 2206.37 333.418 Q2206.37 319.668 2212.99 311.231 Q2219.66 302.793 2230.23 302.793 Q2236.69 302.793 2241.27 305.345 Q2245.91 307.845 2248.93 313.054 M2216.27 333.418 Q2216.27 343.991 2220.59 350.033 Q2224.97 356.022 2232.57 356.022 Q2240.18 356.022 2244.55 350.033 Q2248.93 343.991 2248.93 333.418 Q2248.93 322.845 2244.55 316.856 Q2240.18 310.814 2232.57 310.814 Q2224.97 310.814 2220.59 316.856 Q2216.27 322.845 2216.27 333.418 Z" fill="#000000" fill-rule="nonzero" fill-opacity="1" /><path clip-path="url(#clip960)" d="M424.586 381.775 Q424.914 382.144 424.914 382.513 Q424.914 382.882 424.094 383.947 Q423.316 385.013 421.635 386.448 Q419.954 387.882 417.782 389.235 Q415.61 390.588 412.412 391.489 Q409.215 392.432 405.854 392.432 Q399.583 392.432 395.894 388.292 Q392.246 384.152 392.246 378.209 Q392.246 372.429 395.484 366.896 Q398.722 361.321 403.969 357.878 Q409.215 354.394 414.749 354.394 Q419.135 354.394 421.881 356.443 Q424.627 358.493 424.627 361.608 Q424.627 364.026 423.234 365.502 Q421.84 366.978 419.954 366.978 Q418.643 366.978 417.741 366.24 Q416.839 365.461 416.839 364.026 Q416.839 362.182 418.356 360.747 Q418.93 360.173 419.586 359.928 Q420.282 359.641 420.692 359.641 Q421.102 359.6 422.045 359.6 Q421.184 358.001 419.135 357.14 Q417.126 356.239 414.831 356.239 Q411.429 356.239 408.191 358.616 Q404.952 360.952 402.985 364.641 Q401.017 368.248 399.747 373.372 Q398.476 378.455 398.476 381.406 Q398.476 385.464 400.362 388.005 Q402.247 390.547 406.018 390.547 Q406.756 390.547 407.535 390.506 Q408.355 390.465 410.404 390.014 Q412.494 389.563 414.339 388.784 Q416.183 388.005 418.52 386.325 Q420.897 384.603 422.783 382.267 Q423.439 381.406 423.889 381.406 Q424.258 381.406 424.586 381.775 Z" fill="#000000" fill-rule="nonzero" fill-opacity="1" /><path clip-path="url(#clip960)" d="M451.504 378.742 Q451.586 377.717 453.185 377.717 L504.626 377.717 Q507.045 377.717 507.086 378.66 Q507.086 379.684 504.79 379.643 L453.759 379.643 Q451.504 379.684 451.504 378.742 M451.504 362.346 Q451.504 361.321 453.267 361.362 L504.544 361.362 Q507.045 361.362 507.086 362.346 Q507.086 363.289 504.954 363.289 L453.185 363.289 Q451.504 363.289 451.504 362.346 Z" fill="#000000" fill-rule="nonzero" fill-opacity="1" /><path clip-path="url(#clip960)" d="M539.464 343.573 L539.464 340.95 Q549.548 340.95 554.753 335.58 Q556.188 335.58 556.434 335.908 Q556.68 336.236 556.68 337.752 L556.68 384.849 Q556.68 387.349 557.909 388.128 Q559.139 388.907 564.509 388.907 L567.173 388.907 L567.173 391.489 Q564.222 391.243 553.565 391.243 Q542.907 391.243 539.997 391.489 L539.997 388.907 L542.661 388.907 Q547.949 388.907 549.22 388.169 Q550.49 387.39 550.49 384.849 L550.49 341.359 Q546.105 343.573 539.464 343.573 Z" fill="#000000" fill-rule="nonzero" fill-opacity="1" /><path clip-path="url(#clip960)" d="M581.035 411.287 Q581.035 410.877 581.362 409.975 L610.998 330.784 Q610.998 330.702 611.203 330.251 Q611.408 329.8 611.531 329.513 Q611.654 329.186 611.899 328.94 Q612.186 328.694 612.514 328.694 Q613.334 328.694 613.334 329.718 Q613.334 329.8 613.088 330.784 L583.371 410.057 Q582.879 411.492 582.551 411.902 Q582.264 412.312 581.772 412.312 Q581.035 412.312 581.035 411.287 Z" fill="#000000" fill-rule="nonzero" fill-opacity="1" /><path clip-path="url(#clip960)" d="M622.605 377.635 L622.605 375.053 L648.387 335.662 Q649.043 334.637 650.068 334.678 Q651.01 334.678 651.215 335.047 Q651.42 335.416 651.42 336.851 L651.42 375.053 L659.823 375.053 L659.823 377.635 L651.42 377.635 L651.42 384.931 Q651.42 387.349 652.404 388.128 Q653.429 388.907 657.774 388.907 L659.536 388.907 L659.536 391.489 Q656.093 391.243 648.141 391.243 Q640.23 391.243 636.787 391.489 L636.787 388.907 L638.55 388.907 Q642.895 388.907 643.919 388.169 Q644.944 387.39 644.944 384.931 L644.944 377.635 L622.605 377.635 M624.982 375.053 L645.436 375.053 L645.436 343.737 L624.982 375.053 Z" fill="#000000" fill-rule="nonzero" fill-opacity="1" /><path clip-path="url(#clip960)" d="M665.364 390.137 Q664.175 388.784 664.175 387.021 Q664.175 385.259 665.323 383.947 Q666.512 382.595 668.643 382.595 Q671.143 382.595 672.578 385.013 Q674.013 387.39 674.013 391.407 Q674.013 395.752 672.25 399.769 Q670.488 403.827 668.766 405.754 Q667.044 407.68 666.348 407.68 Q665.528 407.68 665.528 406.778 Q665.528 406.45 666.102 405.836 Q672.127 399.359 672.168 391.407 Q672.168 390.137 672.004 390.137 L671.799 390.301 Q670.365 391.489 668.643 391.489 Q666.553 391.489 665.364 390.137 Z" fill="#000000" fill-rule="nonzero" fill-opacity="1" /><path clip-path="url(#clip960)" d="M700.502 391.489 L700.502 388.907 L702.51 388.907 Q707.06 388.907 708.085 388.169 Q709.151 387.39 709.151 384.931 L709.151 340.704 Q709.151 338.285 708.085 337.547 Q707.019 336.769 702.51 336.769 L700.502 336.769 L700.502 334.145 L731.203 334.145 Q739.196 334.145 744.524 338.449 Q749.853 342.712 749.853 348.328 Q749.853 352.959 745.918 356.648 Q742.024 360.337 735.917 361.526 Q742.885 362.264 747.476 366.486 Q752.107 370.667 752.107 376.118 Q752.107 382.267 746.82 386.898 Q741.532 391.489 733.416 391.489 L700.502 391.489 M716.119 385.546 Q716.119 387.718 716.734 388.333 Q717.349 388.907 720.218 388.907 L730.711 388.907 Q736.737 388.907 740.221 384.972 Q743.705 380.996 743.705 376.036 Q743.705 371.077 740.63 366.855 Q737.597 362.592 731.9 362.592 L716.119 362.592 L716.119 385.546 M716.119 360.747 L728.293 360.747 Q734.769 360.747 738.212 356.853 Q741.696 352.959 741.696 348.328 Q741.696 344.229 738.909 340.499 Q736.163 336.769 730.629 336.769 L720.218 336.769 Q717.349 336.769 716.734 337.342 Q716.119 337.916 716.119 340.13 L716.119 360.747 Z" fill="#000000" fill-rule="nonzero" fill-opacity="1" /><path clip-path="url(#clip960)" d="M764.03 373.003 Q764.03 365.092 769.112 359.477 Q774.195 353.861 781.491 353.861 Q788.869 353.861 792.681 358.657 Q796.534 363.453 796.534 370.339 Q796.534 371.609 796.206 371.855 Q795.878 372.101 794.444 372.101 L770.998 372.101 Q770.998 380.668 773.539 384.685 Q777.064 390.301 783.008 390.301 Q783.827 390.301 784.811 390.137 Q785.795 389.973 787.803 389.276 Q789.812 388.538 791.574 386.612 Q793.337 384.685 794.362 381.652 Q794.608 380.463 795.427 380.504 Q796.534 380.504 796.534 381.488 Q796.534 382.226 795.714 383.906 Q794.936 385.546 793.419 387.513 Q791.902 389.481 788.951 390.956 Q786.041 392.432 782.516 392.432 Q775.138 392.432 769.563 386.857 Q764.03 381.242 764.03 373.003 M771.08 370.339 L791.001 370.339 Q791.001 368.576 790.673 366.609 Q790.386 364.641 789.484 361.936 Q788.623 359.19 786.574 357.468 Q784.524 355.747 781.491 355.747 Q780.138 355.747 778.663 356.32 Q777.228 356.894 775.466 358.288 Q773.703 359.682 772.473 362.838 Q771.244 365.994 771.08 370.339 Z" fill="#000000" fill-rule="nonzero" fill-opacity="1" /><path clip-path="url(#clip960)" d="M799.251 391.489 L799.251 388.907 Q803.719 388.907 804.744 388.374 Q805.81 387.8 805.81 385.095 L805.81 362.592 Q805.81 359.477 804.703 358.698 Q803.637 357.919 799.251 357.919 L799.251 355.296 L810.933 354.394 L810.933 363.617 Q812.122 360.01 814.622 357.222 Q817.164 354.394 821.263 354.394 Q823.968 354.394 825.689 355.911 Q827.452 357.427 827.452 359.518 Q827.452 361.362 826.304 362.305 Q825.198 363.207 823.845 363.207 Q822.328 363.207 821.263 362.264 Q820.238 361.28 820.238 359.6 Q820.238 358.575 820.689 357.796 Q821.181 356.976 821.55 356.689 Q821.918 356.402 822.164 356.32 Q822 356.239 821.263 356.239 Q816.631 356.239 813.967 360.87 Q811.343 365.461 811.343 372.019 L811.343 384.931 Q811.343 387.349 812.327 388.128 Q813.352 388.907 817.738 388.907 L819.5 388.907 L819.5 391.489 Q816.139 391.243 808.843 391.243 Q807.818 391.243 806.22 391.284 Q804.621 391.325 802.53 391.407 Q800.44 391.489 799.251 391.489 Z" fill="#000000" fill-rule="nonzero" fill-opacity="1" /><path clip-path="url(#clip960)" d="M834.455 391.489 L834.455 388.907 Q838.923 388.907 839.948 388.374 Q840.972 387.8 840.972 385.095 L840.972 362.592 Q840.972 359.477 839.866 358.698 Q838.8 357.919 834.455 357.919 L834.455 355.296 L846.26 354.394 L846.26 363.207 Q850.195 354.394 858.68 354.394 Q864.992 354.394 867.493 357.509 Q869.337 359.6 869.706 361.936 Q870.116 364.272 870.116 370.339 L870.116 386.366 Q870.198 388.128 871.55 388.538 Q872.903 388.907 876.674 388.907 L876.674 391.489 Q868.107 391.243 867.247 391.243 Q866.591 391.243 857.778 391.489 L857.778 388.907 Q862.246 388.907 863.271 388.374 Q864.336 387.8 864.336 385.095 L864.336 365.543 Q864.336 361.28 863.025 358.78 Q861.713 356.239 858.106 356.239 Q853.761 356.239 850.277 359.887 Q846.793 363.535 846.793 369.683 L846.793 385.095 Q846.793 387.8 847.818 388.374 Q848.883 388.907 853.31 388.907 L853.31 391.489 Q844.743 391.243 843.924 391.243 Q843.268 391.243 834.455 391.489 Z" fill="#000000" fill-rule="nonzero" fill-opacity="1" /><path clip-path="url(#clip960)" d="M888.122 386.98 Q882.588 381.488 882.588 373.536 Q882.588 365.543 887.999 359.723 Q893.45 353.861 901.238 353.861 Q908.862 353.861 914.314 359.682 Q919.806 365.461 919.806 373.536 Q919.806 381.447 914.273 386.939 Q908.78 392.432 901.156 392.432 Q893.696 392.432 888.122 386.98 M889.556 372.839 Q889.556 380.996 891.688 384.685 Q894.967 390.301 901.238 390.301 Q904.354 390.301 906.936 388.62 Q909.559 386.939 910.994 384.111 Q912.838 380.422 912.838 372.839 Q912.838 364.764 910.625 361.198 Q907.346 355.747 901.156 355.747 Q898.451 355.747 895.787 357.181 Q893.163 358.575 891.565 361.362 Q889.556 365.051 889.556 372.839 Z" fill="#000000" fill-rule="nonzero" fill-opacity="1" /><path clip-path="url(#clip960)" d="M922.479 357.919 L922.479 355.296 L934.816 354.394 L934.816 382.267 Q934.816 384.275 934.98 385.464 Q935.144 386.612 935.8 387.964 Q936.497 389.317 938.054 389.932 Q939.653 390.547 942.194 390.547 Q946.744 390.547 949.531 386.817 Q952.36 383.086 952.36 377.553 L952.36 362.592 Q952.36 359.477 951.253 358.698 Q950.146 357.919 945.801 357.919 L945.801 355.296 L958.139 354.394 L958.139 384.193 Q958.139 387.308 959.205 388.128 Q960.312 388.907 964.697 388.907 L964.697 391.489 L952.606 392.432 L952.606 384.849 Q949.081 392.391 941.784 392.432 Q938.095 392.432 935.554 391.489 Q933.054 390.547 931.783 389.399 Q930.512 388.21 929.816 385.956 Q929.16 383.701 929.078 382.308 Q928.996 380.914 928.996 378.209 L928.996 365.625 Q928.996 359.928 928.176 358.944 Q927.356 357.919 922.479 357.919 Z" fill="#000000" fill-rule="nonzero" fill-opacity="1" /><path clip-path="url(#clip960)" d="M969.268 391.489 L969.268 388.907 Q973.735 388.907 974.76 388.374 Q975.785 387.8 975.785 385.095 L975.785 341.441 Q975.785 338.326 974.678 337.547 Q973.612 336.769 969.268 336.769 L969.268 334.145 L981.318 333.244 L981.318 385.095 Q981.318 387.8 982.384 388.374 Q983.45 388.907 987.877 388.907 L987.877 391.489 Q986.852 391.489 984.721 391.407 Q982.589 391.325 981.032 391.284 Q979.474 391.243 978.572 391.243 Q977.588 391.243 969.268 391.489 Z" fill="#000000" fill-rule="nonzero" fill-opacity="1" /><path clip-path="url(#clip960)" d="M993.294 391.489 L993.294 388.907 Q997.761 388.907 998.786 388.374 Q999.811 387.8 999.811 385.095 L999.811 341.441 Q999.811 338.326 998.704 337.547 Q997.638 336.769 993.294 336.769 L993.294 334.145 L1005.34 333.244 L1005.34 385.095 Q1005.34 387.8 1006.41 388.374 Q1007.48 388.907 1011.9 388.907 L1011.9 391.489 Q1010.88 391.489 1008.75 391.407 Q1006.62 391.325 1005.06 391.284 Q1003.5 391.243 1002.6 391.243 Q1001.61 391.243 993.294 391.489 Z" fill="#000000" fill-rule="nonzero" fill-opacity="1" /><path clip-path="url(#clip960)" d="M1015.64 391.489 L1015.64 388.907 Q1020.11 388.907 1021.13 388.374 Q1022.16 387.8 1022.16 385.095 L1022.16 362.51 Q1022.16 359.395 1021.09 358.657 Q1020.07 357.919 1015.97 357.919 L1015.97 355.296 L1027.69 354.394 L1027.69 385.177 Q1027.69 387.677 1028.59 388.292 Q1029.49 388.907 1033.59 388.907 L1033.59 391.489 Q1025.03 391.243 1024.86 391.243 Q1023.71 391.243 1015.64 391.489 M1019.16 339.761 Q1019.16 338.08 1020.44 336.728 Q1021.75 335.334 1023.59 335.334 Q1025.44 335.334 1026.75 336.605 Q1028.06 337.834 1028.06 339.802 Q1028.06 341.728 1026.75 342.999 Q1025.44 344.229 1023.59 344.229 Q1021.66 344.229 1020.39 342.876 Q1019.16 341.523 1019.16 339.761 Z" fill="#000000" fill-rule="nonzero" fill-opacity="1" /></svg>
