<?xml version="1.0" encoding="utf-8"?>
<svg xmlns="http://www.w3.org/2000/svg" xmlns:xlink="http://www.w3.org/1999/xlink" width="600" height="400" viewBox="0 0 2400 1600">
<defs>
  <clipPath id="clip840">
    <rect x="0" y="0" width="2400" height="1600"/>
  </clipPath>
</defs>
<path clip-path="url(#clip840)" d="M0 1600 L2400 1600 L2400 0 L0 0  Z" fill="#ffffff" fill-rule="evenodd" fill-opacity="1"/>
<defs>
  <clipPath id="clip841">
    <rect x="439" y="47" width="1726" height="1295"/>
  </clipPath>
</defs>
<path clip-path="url(#clip840)" d="M439.054 1341.1 L2164.2 1341.1 L2164.2 47.2441 L439.054 47.2441  Z" fill="#ffffff" fill-rule="evenodd" fill-opacity="1"/>
<polyline clip-path="url(#clip841)" style="stroke:#000000; stroke-linecap:round; stroke-linejoin:round; stroke-width:2; stroke-opacity:0.1; fill:none" points="487.879,1341.1 487.879,47.2441 "/>
<polyline clip-path="url(#clip841)" style="stroke:#000000; stroke-linecap:round; stroke-linejoin:round; stroke-width:2; stroke-opacity:0.1; fill:none" points="894.752,1341.1 894.752,47.2441 "/>
<polyline clip-path="url(#clip841)" style="stroke:#000000; stroke-linecap:round; stroke-linejoin:round; stroke-width:2; stroke-opacity:0.1; fill:none" points="1301.62,1341.1 1301.62,47.2441 "/>
<polyline clip-path="url(#clip841)" style="stroke:#000000; stroke-linecap:round; stroke-linejoin:round; stroke-width:2; stroke-opacity:0.1; fill:none" points="1708.5,1341.1 1708.5,47.2441 "/>
<polyline clip-path="url(#clip841)" style="stroke:#000000; stroke-linecap:round; stroke-linejoin:round; stroke-width:2; stroke-opacity:0.1; fill:none" points="2115.37,1341.1 2115.37,47.2441 "/>
<polyline clip-path="url(#clip841)" style="stroke:#000000; stroke-linecap:round; stroke-linejoin:round; stroke-width:2; stroke-opacity:0.1; fill:none" points="439.054,1304.48 2164.2,1304.48 "/>
<polyline clip-path="url(#clip841)" style="stroke:#000000; stroke-linecap:round; stroke-linejoin:round; stroke-width:2; stroke-opacity:0.1; fill:none" points="439.054,897.608 2164.2,897.608 "/>
<polyline clip-path="url(#clip841)" style="stroke:#000000; stroke-linecap:round; stroke-linejoin:round; stroke-width:2; stroke-opacity:0.1; fill:none" points="439.054,490.736 2164.2,490.736 "/>
<polyline clip-path="url(#clip841)" style="stroke:#000000; stroke-linecap:round; stroke-linejoin:round; stroke-width:2; stroke-opacity:0.1; fill:none" points="439.054,83.8627 2164.2,83.8627 "/>
<polyline clip-path="url(#clip840)" style="stroke:#000000; stroke-linecap:round; stroke-linejoin:round; stroke-width:4; stroke-opacity:1; fill:none" points="439.054,1341.1 2164.2,1341.1 "/>
<polyline clip-path="url(#clip840)" style="stroke:#000000; stroke-linecap:round; stroke-linejoin:round; stroke-width:4; stroke-opacity:1; fill:none" points="487.879,1341.1 487.879,1322.2 "/>
<polyline clip-path="url(#clip840)" style="stroke:#000000; stroke-linecap:round; stroke-linejoin:round; stroke-width:4; stroke-opacity:1; fill:none" points="894.752,1341.1 894.752,1322.2 "/>
<polyline clip-path="url(#clip840)" style="stroke:#000000; stroke-linecap:round; stroke-linejoin:round; stroke-width:4; stroke-opacity:1; fill:none" points="1301.62,1341.1 1301.62,1322.2 "/>
<polyline clip-path="url(#clip840)" style="stroke:#000000; stroke-linecap:round; stroke-linejoin:round; stroke-width:4; stroke-opacity:1; fill:none" points="1708.5,1341.1 1708.5,1322.2 "/>
<polyline clip-path="url(#clip840)" style="stroke:#000000; stroke-linecap:round; stroke-linejoin:round; stroke-width:4; stroke-opacity:1; fill:none" points="2115.37,1341.1 2115.37,1322.2 "/>
<path clip-path="url(#clip840)" d="M487.879 1380.81 Q481.56 1380.81 478.36 1387.05 Q475.2 1393.24 475.2 1405.72 Q475.2 1418.16 478.36 1424.4 Q481.56 1430.59 487.879 1430.59 Q494.239 1430.59 497.399 1424.4 Q500.599 1418.16 500.599 1405.72 Q500.599 1393.24 497.399 1387.05 Q494.239 1380.81 487.879 1380.81 M487.879 1374.33 Q498.047 1374.33 503.394 1382.39 Q508.782 1390.41 508.782 1405.72 Q508.782 1420.99 503.394 1429.05 Q498.047 1437.07 487.879 1437.07 Q477.711 1437.07 472.324 1429.05 Q466.977 1420.99 466.977 1405.72 Q466.977 1390.41 472.324 1382.39 Q477.711 1374.33 487.879 1374.33 Z" fill="#000000" fill-rule="nonzero" fill-opacity="1" /><path clip-path="url(#clip840)" d="M877.921 1429.01 L891.289 1429.01 L891.289 1382.87 L876.746 1385.79 L876.746 1378.34 L891.208 1375.42 L899.39 1375.42 L899.39 1429.01 L912.758 1429.01 L912.758 1435.9 L877.921 1435.9 L877.921 1429.01 Z" fill="#000000" fill-rule="nonzero" fill-opacity="1" /><path clip-path="url(#clip840)" d="M1292.27 1429.01 L1320.83 1429.01 L1320.83 1435.9 L1282.42 1435.9 L1282.42 1429.01 Q1287.08 1424.19 1295.1 1416.09 Q1303.16 1407.95 1305.23 1405.6 Q1309.16 1401.18 1310.7 1398.15 Q1312.28 1395.07 1312.28 1392.11 Q1312.28 1387.29 1308.88 1384.25 Q1305.51 1381.21 1300.09 1381.21 Q1296.24 1381.21 1291.94 1382.55 Q1287.69 1383.89 1282.83 1386.6 L1282.83 1378.34 Q1287.77 1376.35 1292.06 1375.34 Q1296.36 1374.33 1299.92 1374.33 Q1309.32 1374.33 1314.91 1379.03 Q1320.5 1383.72 1320.5 1391.58 Q1320.5 1395.31 1319.08 1398.67 Q1317.71 1401.99 1314.02 1406.53 Q1313.01 1407.71 1307.58 1413.34 Q1302.15 1418.93 1292.27 1429.01 Z" fill="#000000" fill-rule="nonzero" fill-opacity="1" /><path clip-path="url(#clip840)" d="M1715.93 1403.29 Q1721.81 1404.55 1725.09 1408.52 Q1728.41 1412.49 1728.41 1418.32 Q1728.41 1427.27 1722.25 1432.17 Q1716.09 1437.07 1704.75 1437.07 Q1700.94 1437.07 1696.89 1436.3 Q1692.88 1435.58 1688.59 1434.08 L1688.59 1426.18 Q1691.99 1428.16 1696.04 1429.18 Q1700.09 1430.19 1704.51 1430.19 Q1712.2 1430.19 1716.21 1427.15 Q1720.27 1424.11 1720.27 1418.32 Q1720.27 1412.97 1716.5 1409.97 Q1712.77 1406.94 1706.09 1406.94 L1699.04 1406.94 L1699.04 1400.21 L1706.41 1400.21 Q1712.45 1400.21 1715.65 1397.82 Q1718.85 1395.39 1718.85 1390.85 Q1718.85 1386.2 1715.53 1383.72 Q1712.24 1381.21 1706.09 1381.21 Q1702.73 1381.21 1698.88 1381.94 Q1695.03 1382.67 1690.41 1384.21 L1690.41 1376.92 Q1695.07 1375.62 1699.12 1374.97 Q1703.21 1374.33 1706.82 1374.33 Q1716.13 1374.33 1721.56 1378.58 Q1726.99 1382.79 1726.99 1390 Q1726.99 1395.03 1724.11 1398.51 Q1721.24 1401.95 1715.93 1403.29 Z" fill="#000000" fill-rule="nonzero" fill-opacity="1" /><path clip-path="url(#clip840)" d="M2120.64 1382.55 L2099.98 1414.84 L2120.64 1414.84 L2120.64 1382.55 M2118.49 1375.42 L2128.78 1375.42 L2128.78 1414.84 L2137.41 1414.84 L2137.41 1421.64 L2128.78 1421.64 L2128.78 1435.9 L2120.64 1435.9 L2120.64 1421.64 L2093.33 1421.64 L2093.33 1413.74 L2118.49 1375.42 Z" fill="#000000" fill-rule="nonzero" fill-opacity="1" /><path clip-path="url(#clip840)" d="M1327.67 1507.53 Q1327.67 1519.33 1323.87 1532.61 Q1320.15 1545.82 1314.24 1556.5 Q1308.34 1567.11 1300.61 1574.14 Q1292.88 1581.1 1285.5 1581.1 Q1280.8 1581.1 1277.28 1578.5 Q1273.84 1575.83 1271.94 1571.4 Q1270.05 1566.9 1269.13 1561.98 Q1268.22 1557 1268.22 1551.58 Q1268.22 1543.5 1269.98 1534.72 Q1271.73 1525.87 1274.68 1517.86 Q1277.64 1509.78 1281.78 1502.47 Q1285.93 1495.09 1290.49 1489.75 Q1295.13 1484.34 1300.33 1481.18 Q1305.53 1478.01 1310.38 1478.01 Q1313.89 1478.01 1316.7 1479.56 Q1319.58 1481.04 1321.41 1483.64 Q1323.24 1486.17 1324.5 1489.19 Q1325.84 1492.21 1326.47 1495.72 Q1327.1 1499.17 1327.38 1502.05 Q1327.67 1504.86 1327.67 1507.53 M1318.18 1498.6 Q1318.18 1495.02 1317.9 1492.35 Q1317.62 1489.61 1316.84 1486.87 Q1316.07 1484.13 1314.38 1482.65 Q1312.77 1481.18 1310.24 1481.18 Q1302.86 1481.18 1294.57 1496.28 Q1291.9 1500.99 1289.51 1507.39 Q1287.12 1513.78 1286.28 1516.8 Q1285.43 1519.82 1283.47 1527.27 L1313.54 1527.27 Q1318.18 1508.09 1318.18 1498.6 M1312.28 1531.84 L1282.34 1531.84 Q1277.71 1549.41 1277.71 1560.37 Q1277.71 1569.92 1279.67 1573.93 Q1281.71 1577.86 1285.5 1577.86 Q1289.86 1577.86 1293.94 1573.51 Q1298.01 1569.08 1302.16 1561.07 Q1307.64 1550.67 1312.28 1531.84 Z" fill="#000000" fill-rule="nonzero" fill-opacity="1" /><polyline clip-path="url(#clip840)" style="stroke:#000000; stroke-linecap:round; stroke-linejoin:round; stroke-width:4; stroke-opacity:1; fill:none" points="439.054,1341.1 439.054,47.2441 "/>
<polyline clip-path="url(#clip840)" style="stroke:#000000; stroke-linecap:round; stroke-linejoin:round; stroke-width:4; stroke-opacity:1; fill:none" points="439.054,1304.48 454.562,1304.48 "/>
<polyline clip-path="url(#clip840)" style="stroke:#000000; stroke-linecap:round; stroke-linejoin:round; stroke-width:4; stroke-opacity:1; fill:none" points="439.054,897.608 454.562,897.608 "/>
<polyline clip-path="url(#clip840)" style="stroke:#000000; stroke-linecap:round; stroke-linejoin:round; stroke-width:4; stroke-opacity:1; fill:none" points="439.054,490.736 454.562,490.736 "/>
<polyline clip-path="url(#clip840)" style="stroke:#000000; stroke-linecap:round; stroke-linejoin:round; stroke-width:4; stroke-opacity:1; fill:none" points="439.054,83.8627 454.562,83.8627 "/>
<path clip-path="url(#clip840)" d="M368.217 1327.83 L381.585 1327.83 L381.585 1281.69 L367.042 1284.61 L367.042 1277.16 L381.504 1274.24 L389.686 1274.24 L389.686 1327.83 L403.054 1327.83 L403.054 1334.72 L368.217 1334.72 L368.217 1327.83 Z" fill="#000000" fill-rule="nonzero" fill-opacity="1" /><path clip-path="url(#clip840)" d="M374.496 920.962 L403.054 920.962 L403.054 927.848 L364.652 927.848 L364.652 920.962 Q369.31 916.141 377.331 908.039 Q385.393 899.897 387.458 897.548 Q391.388 893.132 392.927 890.094 Q394.507 887.015 394.507 884.058 Q394.507 879.238 391.104 876.199 Q387.742 873.161 382.314 873.161 Q378.465 873.161 374.172 874.498 Q369.918 875.835 365.057 878.549 L365.057 870.285 Q369.999 868.3 374.293 867.287 Q378.587 866.275 382.152 866.275 Q391.55 866.275 397.14 870.974 Q402.73 875.673 402.73 883.532 Q402.73 887.258 401.313 890.621 Q399.935 893.942 396.249 898.479 Q395.236 899.654 389.808 905.285 Q384.38 910.875 374.496 920.962 Z" fill="#000000" fill-rule="nonzero" fill-opacity="1" /><path clip-path="url(#clip840)" d="M390.578 488.366 Q396.451 489.622 399.733 493.591 Q403.054 497.561 403.054 503.395 Q403.054 512.347 396.897 517.249 Q390.74 522.15 379.397 522.15 Q375.589 522.15 371.538 521.381 Q367.528 520.651 363.234 519.153 L363.234 511.253 Q366.637 513.238 370.688 514.251 Q374.739 515.264 379.154 515.264 Q386.851 515.264 390.861 512.226 Q394.912 509.187 394.912 503.395 Q394.912 498.047 391.145 495.05 Q387.418 492.012 380.734 492.012 L373.685 492.012 L373.685 485.287 L381.058 485.287 Q387.094 485.287 390.294 482.897 Q393.494 480.466 393.494 475.929 Q393.494 471.271 390.173 468.8 Q386.891 466.288 380.734 466.288 Q377.372 466.288 373.523 467.017 Q369.675 467.747 365.057 469.286 L365.057 461.994 Q369.716 460.698 373.766 460.05 Q377.858 459.402 381.463 459.402 Q390.78 459.402 396.208 463.655 Q401.637 467.868 401.637 475.079 Q401.637 480.102 398.76 483.586 Q395.884 487.029 390.578 488.366 Z" fill="#000000" fill-rule="nonzero" fill-opacity="1" /><path clip-path="url(#clip840)" d="M386.284 60.7522 L365.624 93.038 L386.284 93.038 L386.284 60.7522 M384.137 53.6227 L394.426 53.6227 L394.426 93.038 L403.054 93.038 L403.054 99.8435 L394.426 99.8435 L394.426 114.103 L386.284 114.103 L386.284 99.8435 L358.981 99.8435 L358.981 91.9442 L384.137 53.6227 Z" fill="#000000" fill-rule="nonzero" fill-opacity="1" /><path clip-path="url(#clip840)" d="M234.892 994.607 Q239.811 994.607 239.811 1001.63 L239.811 1017.44 Q246.135 1013.02 255.481 1013.02 Q263.491 1013.02 271.01 1016.32 Q278.458 1019.55 283.658 1024.75 Q288.858 1029.88 292.02 1036.35 Q295.111 1042.81 295.111 1049.13 Q295.111 1058.76 288.577 1064.73 Q282.042 1070.71 272.345 1070.71 Q267.215 1070.71 261.524 1068.95 Q255.832 1067.12 250.562 1063.68 Q245.222 1060.24 240.935 1055.74 Q236.649 1051.17 234.049 1045.27 Q231.449 1039.3 231.449 1033.04 L231.449 1000.23 Q231.449 998.472 231.59 997.558 Q231.66 996.575 232.503 995.591 Q233.276 994.607 234.892 994.607 M253.794 1022.22 Q252.108 1022.22 250.632 1022.43 Q249.086 1022.64 247.049 1023.42 Q244.941 1024.19 243.465 1025.52 Q241.919 1026.86 240.865 1029.46 Q239.811 1031.99 239.811 1035.43 Q239.811 1040.28 242.481 1045.62 Q245.151 1050.96 251.756 1055.04 Q257.378 1058.41 264.686 1060.1 Q271.993 1061.78 276.35 1061.78 Q283.798 1061.78 287.874 1058.2 Q291.879 1054.55 291.879 1048.99 Q291.879 1044.43 288.787 1039.23 Q285.625 1034.03 279.653 1030.02 Q274.453 1026.51 266.864 1024.4 Q259.275 1022.22 253.794 1022.22 Z" fill="#000000" fill-rule="nonzero" fill-opacity="1" /><path clip-path="url(#clip840)" d="M277.456 979.987 L274.308 979.987 Q274.308 967.887 267.865 961.64 Q267.865 959.919 268.258 959.624 Q268.652 959.329 270.472 959.329 L326.988 959.329 Q329.988 959.329 330.923 957.853 Q331.857 956.377 331.857 949.934 L331.857 946.737 L334.956 946.737 Q334.661 950.278 334.661 963.067 Q334.661 975.856 334.956 979.348 L331.857 979.348 L331.857 976.151 Q331.857 969.805 330.972 968.281 Q330.037 966.756 326.988 966.756 L274.8 966.756 Q277.456 972.019 277.456 979.987 Z" fill="#000000" fill-rule="nonzero" fill-opacity="1" /><path clip-path="url(#clip840)" d="M257.518 931.694 Q233.206 931.694 213.601 922.63 Q205.38 918.765 198.494 913.355 Q191.608 907.944 188.586 904.36 Q185.565 900.777 185.565 899.793 Q185.565 898.388 186.97 898.317 Q187.673 898.317 189.429 900.215 Q213.039 923.403 257.518 923.333 Q302.138 923.333 324.835 900.777 Q327.294 898.317 328.067 898.317 Q329.472 898.317 329.472 899.793 Q329.472 900.777 326.591 904.22 Q323.71 907.663 317.105 913.003 Q310.5 918.344 302.419 922.208 Q282.815 931.694 257.518 931.694 Z" fill="#000000" fill-rule="nonzero" fill-opacity="1" /><path clip-path="url(#clip840)" d="M197.37 756.841 Q198.845 756.841 199.759 757.262 Q200.672 757.614 201.023 758.387 Q201.375 759.089 201.445 759.651 Q201.515 760.143 201.515 760.986 Q201.586 767.662 202.991 771.105 Q204.326 774.478 207.137 777.148 L254.075 820.995 L286.469 829.076 Q286.75 823.033 286.75 820.292 Q286.75 817.833 286.89 816.849 Q286.96 815.795 287.523 815.022 Q288.085 814.249 289.349 814.249 Q293.495 814.249 293.495 818.465 L293.074 840.459 L293.214 850.929 Q293.214 852.756 293.355 856.48 Q293.495 860.134 293.495 861.89 Q293.495 863.225 292.863 864.069 Q292.23 864.842 291.528 864.912 L290.895 865.052 Q290.052 865.052 288.928 864.631 Q287.804 864.209 287.312 863.647 Q286.89 863.225 286.82 862.523 Q286.75 861.75 286.75 858.447 Q286.75 853.388 286.469 850.929 Q286.398 848.961 285.977 848.54 Q285.555 848.048 283.728 847.626 L254.075 840.178 L203.834 862.031 Q202.499 862.663 202.218 863.085 Q201.867 863.507 201.656 864.912 Q201.515 866.95 201.515 870.533 Q201.515 872.922 201.445 873.906 Q201.305 874.89 200.742 875.663 Q200.18 876.436 198.915 876.436 Q197.44 876.436 196.526 876.084 Q195.613 875.663 195.262 874.96 Q194.91 874.187 194.84 873.695 Q194.77 873.203 194.77 872.43 Q194.77 870.814 194.91 867.301 Q195.051 863.788 195.051 862.031 L195.191 852.123 L194.77 829.778 Q194.77 826.616 197.37 826.616 Q198.775 826.616 199.688 827.038 Q200.602 827.389 200.953 828.232 Q201.305 829.005 201.445 829.708 Q201.515 830.34 201.515 831.535 Q201.515 835.119 202.148 839.616 L244.308 821.135 L202.569 782.137 Q201.515 785.369 201.515 788.672 Q201.515 792.537 198.915 792.537 Q197.44 792.537 196.526 792.115 Q195.613 791.693 195.262 790.92 Q194.91 790.147 194.84 789.726 Q194.77 789.304 194.77 788.672 Q194.77 786.072 194.98 780.732 Q195.191 775.321 195.191 772.651 Q195.191 770.473 194.98 765.975 Q194.77 761.478 194.77 759.441 Q194.77 758.176 195.683 757.543 Q196.526 756.841 197.37 756.841 Z" fill="#000000" fill-rule="nonzero" fill-opacity="1" /><path clip-path="url(#clip840)" d="M328.067 780.255 Q327.364 780.255 325.607 778.428 Q301.998 755.24 257.518 755.24 Q212.899 755.24 190.343 777.515 Q187.743 780.255 186.97 780.255 Q185.565 780.255 185.565 778.85 Q185.565 777.866 188.446 774.423 Q191.327 770.909 197.932 765.639 Q204.537 760.299 212.618 756.364 Q232.222 746.878 257.518 746.878 Q281.831 746.878 301.435 755.942 Q309.657 759.807 316.543 765.218 Q323.429 770.628 326.451 774.212 Q329.472 777.796 329.472 778.85 Q329.472 780.255 328.067 780.255 Z" fill="#000000" fill-rule="nonzero" fill-opacity="1" /><path clip-path="url(#clip840)" d="M185.579 635.691 Q201.551 644.997 217.176 649.511 Q232.801 654.024 248.843 654.024 Q264.884 654.024 280.648 649.511 Q296.342 644.927 312.245 635.691 L312.245 646.802 Q295.926 657.219 280.162 662.427 Q264.398 667.566 248.843 667.566 Q233.357 667.566 217.662 662.427 Q201.968 657.288 185.579 646.802 L185.579 635.691 Z" fill="#000000" fill-rule="nonzero" fill-opacity="1" /><path clip-path="url(#clip840)" d="M203.635 575.692 L255.232 594.719 L255.232 556.594 L203.635 575.692 M189.815 583.608 L189.815 567.705 L293.495 528.192 L293.495 542.775 L266.898 552.219 L266.898 598.955 L293.495 608.4 L293.495 623.191 L189.815 583.608 Z" fill="#000000" fill-rule="nonzero" fill-opacity="1" /><path clip-path="url(#clip840)" d="M215.718 531.108 L215.718 517.567 L280.995 493.261 L215.718 468.956 L215.718 455.414 L293.495 484.581 L293.495 501.942 L215.718 531.108 Z" fill="#000000" fill-rule="nonzero" fill-opacity="1" /><path clip-path="url(#clip840)" d="M253.704 386.595 Q239.815 386.595 232.176 392.359 Q224.537 398.054 224.537 408.401 Q224.537 418.678 232.176 424.442 Q239.815 430.137 253.704 430.137 Q267.523 430.137 275.162 424.442 Q282.801 418.678 282.801 408.401 Q282.801 398.054 275.162 392.359 Q267.523 386.595 253.704 386.595 M283.843 373.818 Q303.704 373.818 313.356 382.637 Q323.078 391.456 323.078 409.651 Q323.078 416.387 322.037 422.359 Q321.065 428.331 318.981 433.956 L306.551 433.956 Q309.606 428.331 311.065 422.845 Q312.523 417.359 312.523 411.665 Q312.523 399.095 305.926 392.845 Q299.398 386.595 286.134 386.595 L279.815 386.595 Q286.69 390.554 290.093 396.734 Q293.495 402.915 293.495 411.526 Q293.495 425.831 282.593 434.581 Q271.69 443.331 253.704 443.331 Q235.648 443.331 224.746 434.581 Q213.843 425.831 213.843 411.526 Q213.843 402.915 217.246 396.734 Q220.648 390.554 227.523 386.595 L215.718 386.595 L215.718 373.818 L283.843 373.818 Z" fill="#000000" fill-rule="nonzero" fill-opacity="1" /><path clip-path="url(#clip840)" d="M185.579 349.512 L185.579 338.401 Q201.968 327.985 217.662 322.846 Q233.357 317.637 248.843 317.637 Q264.398 317.637 280.162 322.846 Q295.926 327.985 312.245 338.401 L312.245 349.512 Q296.342 340.276 280.648 335.762 Q264.884 331.179 248.843 331.179 Q232.801 331.179 217.176 335.762 Q201.551 340.276 185.579 349.512 Z" fill="#000000" fill-rule="nonzero" fill-opacity="1" /><polyline clip-path="url(#clip841)" style="stroke:#000000; stroke-linecap:round; stroke-linejoin:round; stroke-width:8; stroke-opacity:1; fill:none" points="487.879,1711.35 498.051,1701.18 508.223,1691.01 518.395,1680.84 528.566,1670.67 538.738,1660.5 548.91,1650.32 559.082,1640.15 569.254,1629.98 579.426,1619.81 589.597,1609.64 599.769,1599.46 609.941,1589.29 620.113,1579.12 630.285,1568.95 640.457,1558.78 650.628,1548.61 660.8,1538.43 670.972,1528.26 681.144,1518.09 691.316,1507.92 701.487,1497.75 711.659,1487.57 721.831,1477.4 732.003,1467.23 742.175,1457.06 752.347,1446.89 762.518,1436.71 772.69,1426.54 782.862,1416.37 793.034,1406.2 803.206,1396.03 813.377,1385.86 823.549,1375.68 833.721,1365.51 843.893,1355.34 854.065,1345.17 864.237,1335 874.408,1324.82 884.58,1314.65 894.752,1304.48 904.924,1294.31 915.096,1284.14 925.268,1273.97 935.439,1263.79 945.611,1253.62 955.783,1243.45 965.955,1233.28 976.127,1223.11 986.298,1212.93 996.47,1202.76 1006.64,1192.59 1016.81,1182.42 1026.99,1172.25 1037.16,1162.08 1047.33,1151.9 1057.5,1141.73 1067.67,1131.56 1077.84,1121.39 1088.02,1111.22 1098.19,1101.04 1108.36,1090.87 1118.53,1080.7 1128.7,1070.53 1138.88,1060.36 1149.05,1050.19 1159.22,1040.01 1169.39,1029.84 1179.56,1019.67 1189.73,1009.5 1199.91,999.327 1210.08,989.155 1220.25,978.983 1230.42,968.811 1240.59,958.639 1250.77,948.468 1260.94,938.296 1271.11,928.124 1281.28,917.952 1291.45,907.78 1301.62,897.608 1311.8,887.437 1321.97,877.265 1332.14,867.093 1342.31,856.921 1352.48,846.749 1362.66,836.577 1372.83,826.406 1383,816.234 1393.17,806.062 1403.34,795.89 1413.51,785.718 1423.69,775.547 1433.86,765.375 1444.03,755.203 1454.2,745.031 1464.37,734.859 1474.55,724.687 1484.72,714.516 1494.89,704.344 1505.06,694.172 1515.23,684 1525.41,673.828 1535.58,663.657 1545.75,653.485 1555.92,643.313 1566.09,633.141 1576.26,622.969 1586.44,612.797 1596.61,602.626 1606.78,592.454 1616.95,582.282 1627.12,572.11 1637.3,561.938 1647.47,551.766 1657.64,541.595 1667.81,531.423 1677.98,521.251 1688.15,511.079 1698.33,500.907 1708.5,490.736 1718.67,480.564 1728.84,470.392 1739.01,460.22 1749.19,450.048 1759.36,439.876 1769.53,429.705 1779.7,419.533 1789.87,409.361 1800.04,399.189 1810.22,389.017 1820.39,378.845 1830.56,368.674 1840.73,358.502 1850.9,348.33 1861.08,338.158 1871.25,327.986 1881.42,317.815 1891.59,307.643 1901.76,297.471 1911.93,287.299 1922.11,277.127 1932.28,266.955 1942.45,256.784 1952.62,246.612 1962.79,236.44 1972.97,226.268 1983.14,216.096 1993.31,205.925 2003.48,195.753 2013.65,185.581 2023.82,175.409 2034,165.237 2044.17,155.065 2054.34,144.894 2064.51,134.722 2074.68,124.55 2084.86,114.378 2095.03,104.206 2105.2,94.0345 2115.37,83.8627 "/>
<polyline clip-path="url(#clip841)" style="stroke:#0000ff; stroke-linecap:round; stroke-linejoin:round; stroke-width:12; stroke-opacity:1; fill:none" points="487.879,897.608 498.051,897.608 508.223,897.608 518.395,897.608 528.566,897.608 538.738,897.608 548.91,897.608 559.082,897.608 569.254,897.608 579.426,897.608 589.597,897.608 599.769,897.608 609.941,897.608 620.113,897.608 630.285,897.608 640.457,897.608 650.628,897.608 660.8,897.608 670.972,897.608 681.144,897.608 691.316,897.608 701.487,897.608 711.659,897.608 721.831,897.608 732.003,897.608 742.175,897.608 752.347,897.608 762.518,897.608 772.69,897.608 782.862,897.608 793.034,897.608 803.206,897.608 813.377,897.608 823.549,897.608 833.721,897.608 843.893,897.608 854.065,897.608 864.237,897.608 874.408,897.608 884.58,897.608 894.752,897.608 904.924,897.36 915.096,896.64 925.268,895.479 935.439,893.91 945.611,891.957 955.783,889.648 965.955,887.004 976.127,884.046 986.298,880.794 996.47,877.265 1006.64,873.475 1016.81,869.44 1026.99,865.174 1037.16,860.688 1047.33,855.996 1057.5,851.109 1067.67,846.035 1077.84,840.787 1088.02,835.371 1098.19,829.796 1108.36,824.071 1118.53,818.203 1128.7,812.197 1138.88,806.062 1149.05,799.802 1159.22,793.424 1169.39,786.933 1179.56,780.333 1189.73,773.63 1199.91,766.828 1210.08,759.931 1220.25,752.942 1230.42,745.867 1240.59,738.708 1250.77,731.469 1260.94,724.152 1271.11,716.761 1281.28,709.299 1291.45,701.769 1301.62,694.172 1311.8,686.512 1321.97,678.79 1332.14,671.01 1342.31,663.172 1352.48,655.28 1362.66,647.334 1372.83,639.338 1383,631.292 1393.17,623.198 1403.34,615.058 1413.51,606.873 1423.69,598.645 1433.86,590.376 1444.03,582.066 1454.2,573.716 1464.37,565.329 1474.55,556.905 1484.72,548.445 1494.89,539.951 1505.06,531.423 1515.23,522.862 1525.41,514.27 1535.58,505.648 1545.75,496.995 1555.92,488.314 1566.09,479.604 1576.26,470.867 1586.44,462.104 1596.61,453.314 1606.78,444.5 1616.95,435.661 1627.12,426.798 1637.3,417.912 1647.47,409.004 1657.64,400.074 1667.81,391.122 1677.98,382.149 1688.15,373.156 1698.33,364.143 1708.5,355.111 1718.67,346.06 1728.84,336.991 1739.01,327.904 1749.19,318.799 1759.36,309.677 1769.53,300.539 1779.7,291.384 1789.87,282.213 1800.04,273.027 1810.22,263.826 1820.39,254.609 1830.56,245.379 1840.73,236.134 1850.9,226.875 1861.08,217.603 1871.25,208.318 1881.42,199.02 1891.59,189.709 1901.76,180.385 1911.93,171.05 1922.11,161.702 1932.28,152.343 1942.45,142.973 1952.62,133.592 1962.79,124.199 1972.97,114.796 1983.14,105.383 1993.31,95.9589 2003.48,86.5251 2013.65,77.0814 2023.82,67.6282 2034,58.1654 2044.17,48.6934 2054.34,39.2123 2064.51,29.7223 2074.68,20.2236 2084.86,10.7162 2095.03,1.20051 2105.2,-8.32348 2115.37,-17.8556 "/>
<path clip-path="url(#clip841)" d="M463.879 913.974 L463.879 961.974 L511.879 961.974 L511.879 913.974 L463.879 913.974 Z" fill="#ffa500" fill-rule="evenodd" fill-opacity="1" stroke="none"/>
<path clip-path="url(#clip841)" d="M565.597 909.366 L565.597 957.366 L613.597 957.366 L613.597 909.366 L565.597 909.366 Z" fill="#ffa500" fill-rule="evenodd" fill-opacity="1" stroke="none"/>
<path clip-path="url(#clip841)" d="M667.316 907.958 L667.316 955.958 L715.316 955.958 L715.316 907.958 L667.316 907.958 Z" fill="#ffa500" fill-rule="evenodd" fill-opacity="1" stroke="none"/>
<path clip-path="url(#clip841)" d="M769.034 902.179 L769.034 950.179 L817.034 950.179 L817.034 902.179 L769.034 902.179 Z" fill="#ffa500" fill-rule="evenodd" fill-opacity="1" stroke="none"/>
<path clip-path="url(#clip841)" d="M870.752 882.425 L870.752 930.425 L918.752 930.425 L918.752 882.425 L870.752 882.425 Z" fill="#ffa500" fill-rule="evenodd" fill-opacity="1" stroke="none"/>
<path clip-path="url(#clip841)" d="M972.47 860.978 L972.47 908.978 L1020.47 908.978 L1020.47 860.978 L972.47 860.978 Z" fill="#ffa500" fill-rule="evenodd" fill-opacity="1" stroke="none"/>
<path clip-path="url(#clip841)" d="M1074.19 813.21 L1074.19 861.21 L1122.19 861.21 L1122.19 813.21 L1074.19 813.21 Z" fill="#ffa500" fill-rule="evenodd" fill-opacity="1" stroke="none"/>
<path clip-path="url(#clip841)" d="M1175.91 744.509 L1175.91 792.509 L1223.91 792.509 L1223.91 744.509 L1175.91 744.509 Z" fill="#ffa500" fill-rule="evenodd" fill-opacity="1" stroke="none"/>
<path clip-path="url(#clip841)" d="M1277.62 678.771 L1277.62 726.771 L1325.62 726.771 L1325.62 678.771 L1277.62 678.771 Z" fill="#ffa500" fill-rule="evenodd" fill-opacity="1" stroke="none"/>
<path clip-path="url(#clip841)" d="M1379.34 594.161 L1379.34 642.161 L1427.34 642.161 L1427.34 594.161 L1379.34 594.161 Z" fill="#ffa500" fill-rule="evenodd" fill-opacity="1" stroke="none"/>
<path clip-path="url(#clip841)" d="M1481.06 505.354 L1481.06 553.354 L1529.06 553.354 L1529.06 505.354 L1481.06 505.354 Z" fill="#ffa500" fill-rule="evenodd" fill-opacity="1" stroke="none"/>
<path clip-path="url(#clip841)" d="M1582.78 426.378 L1582.78 474.378 L1630.78 474.378 L1630.78 426.378 L1582.78 426.378 Z" fill="#ffa500" fill-rule="evenodd" fill-opacity="1" stroke="none"/>
<path clip-path="url(#clip841)" d="M1684.5 338.131 L1684.5 386.131 L1732.5 386.131 L1732.5 338.131 L1684.5 338.131 Z" fill="#ffa500" fill-rule="evenodd" fill-opacity="1" stroke="none"/>
<path clip-path="url(#clip841)" d="M1786.22 259.395 L1786.22 307.395 L1834.22 307.395 L1834.22 259.395 L1786.22 259.395 Z" fill="#ffa500" fill-rule="evenodd" fill-opacity="1" stroke="none"/>
<path clip-path="url(#clip841)" d="M1887.93 164.18 L1887.93 212.18 L1935.93 212.18 L1935.93 164.18 L1887.93 164.18 Z" fill="#ffa500" fill-rule="evenodd" fill-opacity="1" stroke="none"/>
<path clip-path="url(#clip841)" d="M1989.65 122.725 L1989.65 170.725 L2037.65 170.725 L2037.65 122.725 L1989.65 122.725 Z" fill="#ffa500" fill-rule="evenodd" fill-opacity="1" stroke="none"/>
<circle clip-path="url(#clip841)" cx="487.879" cy="904.925" r="21.6" fill="#ff0000" fill-rule="evenodd" fill-opacity="1" stroke="none"/>
<circle clip-path="url(#clip841)" cx="589.597" cy="906.121" r="21.6" fill="#ff0000" fill-rule="evenodd" fill-opacity="1" stroke="none"/>
<circle clip-path="url(#clip841)" cx="691.316" cy="904.548" r="21.6" fill="#ff0000" fill-rule="evenodd" fill-opacity="1" stroke="none"/>
<circle clip-path="url(#clip841)" cx="793.034" cy="902.858" r="21.6" fill="#ff0000" fill-rule="evenodd" fill-opacity="1" stroke="none"/>
<circle clip-path="url(#clip841)" cx="894.752" cy="896.988" r="21.6" fill="#ff0000" fill-rule="evenodd" fill-opacity="1" stroke="none"/>
<circle clip-path="url(#clip841)" cx="996.47" cy="877.049" r="21.6" fill="#ff0000" fill-rule="evenodd" fill-opacity="1" stroke="none"/>
<circle clip-path="url(#clip841)" cx="1098.19" cy="833.999" r="21.6" fill="#ff0000" fill-rule="evenodd" fill-opacity="1" stroke="none"/>
<circle clip-path="url(#clip841)" cx="1199.91" cy="766.675" r="21.6" fill="#ff0000" fill-rule="evenodd" fill-opacity="1" stroke="none"/>
<circle clip-path="url(#clip841)" cx="1301.62" cy="690.689" r="21.6" fill="#ff0000" fill-rule="evenodd" fill-opacity="1" stroke="none"/>
<circle clip-path="url(#clip841)" cx="1403.34" cy="618.276" r="21.6" fill="#ff0000" fill-rule="evenodd" fill-opacity="1" stroke="none"/>
<circle clip-path="url(#clip841)" cx="1505.06" cy="529.28" r="21.6" fill="#ff0000" fill-rule="evenodd" fill-opacity="1" stroke="none"/>
<circle clip-path="url(#clip841)" cx="1606.78" cy="442.966" r="21.6" fill="#ff0000" fill-rule="evenodd" fill-opacity="1" stroke="none"/>
<circle clip-path="url(#clip841)" cx="1708.5" cy="354.631" r="21.6" fill="#ff0000" fill-rule="evenodd" fill-opacity="1" stroke="none"/>
<circle clip-path="url(#clip841)" cx="1810.22" cy="283.02" r="21.6" fill="#ff0000" fill-rule="evenodd" fill-opacity="1" stroke="none"/>
<circle clip-path="url(#clip841)" cx="1911.93" cy="160.35" r="21.6" fill="#ff0000" fill-rule="evenodd" fill-opacity="1" stroke="none"/>
<circle clip-path="url(#clip841)" cx="2013.65" cy="79.477" r="21.6" fill="#ff0000" fill-rule="evenodd" fill-opacity="1" stroke="none"/>
<path clip-path="url(#clip840)" d="M509.13 556.933 L1127.24 556.933 L1127.24 90.3726 L509.13 90.3726  Z" fill="#ffffff" fill-rule="evenodd" fill-opacity="1"/>
<polyline clip-path="url(#clip840)" style="stroke:#000000; stroke-linecap:round; stroke-linejoin:round; stroke-width:4; stroke-opacity:1; fill:none" points="509.13,556.933 1127.24,556.933 1127.24,90.3726 509.13,90.3726 509.13,556.933 "/>
<polyline clip-path="url(#clip840)" style="stroke:#0000ff; stroke-linecap:round; stroke-linejoin:round; stroke-width:27; stroke-opacity:1; fill:none" points="532.488,207.013 672.639,207.013 "/>
<path clip-path="url(#clip840)" d="M712.664 170.997 L712.664 187.56 L732.404 187.56 L732.404 195.007 L712.664 195.007 L712.664 226.674 Q712.664 233.809 714.591 235.841 Q716.57 237.872 722.56 237.872 L732.404 237.872 L732.404 245.893 L722.56 245.893 Q711.466 245.893 707.248 241.778 Q703.029 237.611 703.029 226.674 L703.029 195.007 L695.998 195.007 L695.998 187.56 L703.029 187.56 L703.029 170.997 L712.664 170.997 Z" fill="#000000" fill-rule="nonzero" fill-opacity="1" /><path clip-path="url(#clip840)" d="M793.497 210.684 L793.497 245.893 L783.914 245.893 L783.914 210.997 Q783.914 202.716 780.685 198.601 Q777.455 194.487 770.997 194.487 Q763.237 194.487 758.758 199.435 Q754.279 204.382 754.279 212.924 L754.279 245.893 L744.643 245.893 L744.643 164.851 L754.279 164.851 L754.279 196.622 Q757.716 191.362 762.351 188.758 Q767.039 186.153 773.133 186.153 Q783.185 186.153 788.341 192.403 Q793.497 198.601 793.497 210.684 Z" fill="#000000" fill-rule="nonzero" fill-opacity="1" /><path clip-path="url(#clip840)" d="M862.507 214.33 L862.507 219.018 L818.445 219.018 Q819.07 228.914 824.382 234.122 Q829.747 239.278 839.278 239.278 Q844.799 239.278 849.955 237.924 Q855.163 236.57 860.268 233.861 L860.268 242.924 Q855.111 245.111 849.695 246.257 Q844.278 247.403 838.705 247.403 Q824.747 247.403 816.57 239.278 Q808.445 231.153 808.445 217.299 Q808.445 202.976 816.153 194.591 Q823.914 186.153 837.038 186.153 Q848.809 186.153 855.632 193.757 Q862.507 201.31 862.507 214.33 M852.924 211.518 Q852.82 203.653 848.497 198.966 Q844.226 194.278 837.143 194.278 Q829.122 194.278 824.278 198.81 Q819.486 203.341 818.757 211.57 L852.924 211.518 Z" fill="#000000" fill-rule="nonzero" fill-opacity="1" /><path clip-path="url(#clip840)" d="M900.84 194.278 Q893.132 194.278 888.653 200.32 Q884.174 206.309 884.174 216.778 Q884.174 227.247 888.601 233.289 Q893.08 239.278 900.84 239.278 Q908.496 239.278 912.976 233.236 Q917.455 227.195 917.455 216.778 Q917.455 206.414 912.976 200.372 Q908.496 194.278 900.84 194.278 M900.84 186.153 Q913.34 186.153 920.476 194.278 Q927.611 202.403 927.611 216.778 Q927.611 231.101 920.476 239.278 Q913.34 247.403 900.84 247.403 Q888.288 247.403 881.153 239.278 Q874.07 231.101 874.07 216.778 Q874.07 202.403 881.153 194.278 Q888.288 186.153 900.84 186.153 Z" fill="#000000" fill-rule="nonzero" fill-opacity="1" /><path clip-path="url(#clip840)" d="M977.298 196.518 Q975.684 195.58 973.757 195.164 Q971.882 194.695 969.59 194.695 Q961.465 194.695 957.09 200.007 Q952.767 205.268 952.767 215.164 L952.767 245.893 L943.132 245.893 L943.132 187.56 L952.767 187.56 L952.767 196.622 Q955.788 191.31 960.632 188.758 Q965.475 186.153 972.402 186.153 Q973.392 186.153 974.59 186.31 Q975.788 186.414 977.246 186.674 L977.298 196.518 Z" fill="#000000" fill-rule="nonzero" fill-opacity="1" /><path clip-path="url(#clip840)" d="M1011.62 251.309 Q1007.56 261.726 1003.7 264.903 Q999.85 268.08 993.392 268.08 L985.736 268.08 L985.736 260.059 L991.361 260.059 Q995.319 260.059 997.506 258.184 Q999.694 256.309 1002.35 249.33 L1004.07 244.955 L980.475 187.56 L990.631 187.56 L1008.86 233.184 L1027.09 187.56 L1037.25 187.56 L1011.62 251.309 Z" fill="#000000" fill-rule="nonzero" fill-opacity="1" /><path clip-path="url(#clip840)" d="M549.394 270.483 L549.394 376.822 L655.733 376.822 L655.733 270.483 L549.394 270.483 Z" fill="#ffa500" fill-rule="evenodd" fill-opacity="1" stroke="none"/>
<path clip-path="url(#clip840)" d="M804.139 286.473 Q804.139 288.001 803.454 288.317 Q802.821 288.633 800.713 288.633 Q798.237 288.633 796.708 288.844 Q795.18 289.002 794.231 289.266 Q793.283 289.477 792.703 290.214 Q792.176 290.952 791.965 291.585 Q791.754 292.164 791.385 293.587 L777.051 351.083 Q776.524 353.033 776.524 353.719 Q776.524 354.404 776.946 354.825 Q777.42 355.247 778.579 355.458 Q779.739 355.616 780.635 355.668 Q781.583 355.668 783.533 355.668 Q785.957 355.668 786.326 356.09 Q786.537 356.354 786.537 356.828 Q786.537 357.829 786.115 358.356 Q785.694 358.83 785.325 358.936 Q785.009 358.989 784.482 358.989 Q782.268 358.989 777.736 358.83 Q773.204 358.672 770.99 358.672 L757.604 358.989 Q756.023 358.989 756.023 357.671 Q756.023 356.67 756.445 356.248 Q756.867 355.774 757.341 355.721 Q757.815 355.668 759.027 355.668 Q763.349 355.668 765.193 355.194 Q767.091 354.72 767.618 353.877 Q768.197 352.981 768.83 350.556 L784.271 288.739 L784.166 288.739 L740.582 357.039 L740.266 357.513 Q739.95 357.935 739.844 358.093 Q739.739 358.198 739.423 358.514 Q739.159 358.778 738.843 358.883 Q738.58 358.989 738.211 358.989 Q737.578 358.989 737.209 358.567 Q736.893 358.145 736.788 357.829 Q736.735 357.46 736.577 356.512 L727.302 289.582 L727.196 289.582 L712.493 348.396 Q712.071 350.029 712.071 350.873 Q712.071 353.033 713.6 354.351 Q715.181 355.616 719.397 355.668 Q721.347 355.668 721.347 356.828 Q721.347 358.989 719.397 358.989 Q717.605 358.989 713.863 358.83 Q710.121 358.672 708.277 358.672 Q706.485 358.672 702.849 358.83 Q699.265 358.989 697.526 358.989 Q695.998 358.989 695.998 357.671 Q695.998 355.668 697.947 355.668 Q701.11 355.563 703.27 354.931 Q705.431 354.298 706.643 353.086 Q707.908 351.874 708.488 350.662 Q709.12 349.397 709.594 347.553 L723.296 292.586 Q723.718 290.847 723.718 290.583 Q723.718 289.687 723.191 289.371 Q722.717 289.002 721.347 288.844 Q718.711 288.633 716.709 288.633 Q715.391 288.633 714.864 288.581 Q714.39 288.528 713.968 288.264 Q713.6 287.948 713.6 287.316 Q713.6 286.315 714.021 285.893 Q714.495 285.419 715.022 285.366 Q715.549 285.261 716.814 285.261 L731.623 285.261 Q733.784 285.261 734.258 285.629 Q734.732 285.946 734.943 287.737 L743.375 348.817 L782.795 287.316 Q783.797 285.788 784.324 285.524 Q784.851 285.261 786.959 285.261 L801.24 285.261 Q802.4 285.261 802.874 285.313 Q803.348 285.366 803.717 285.629 Q804.139 285.893 804.139 286.473 Z" fill="#000000" fill-rule="nonzero" fill-opacity="1" /><path clip-path="url(#clip840)" d="M829.595 342.599 Q829.701 341.281 831.756 341.281 L897.895 341.281 Q901.004 341.281 901.057 342.493 Q901.057 343.811 898.106 343.758 L832.494 343.758 Q829.595 343.811 829.595 342.599 M829.595 321.519 Q829.595 320.201 831.861 320.254 L897.79 320.254 Q901.004 320.254 901.057 321.519 Q901.057 322.731 898.317 322.731 L831.756 322.731 Q829.595 322.731 829.595 321.519 Z" fill="#000000" fill-rule="nonzero" fill-opacity="1" /><path clip-path="url(#clip840)" d="M942.681 344.443 Q942.681 341.228 944.525 339.7 Q946.37 338.172 948.741 338.172 Q951.218 338.172 952.958 339.806 Q954.749 341.387 954.749 344.18 Q954.749 347.184 952.641 348.87 Q950.586 350.556 947.635 350.135 Q950.217 354.456 954.96 356.406 Q959.756 358.356 964.183 358.356 Q968.82 358.356 972.562 354.351 Q976.357 350.346 976.357 340.543 Q976.357 332.217 973.089 327.421 Q969.874 322.625 963.498 322.625 L958.755 322.625 Q957.121 322.625 956.647 322.467 Q956.172 322.309 956.172 321.413 Q956.172 320.359 957.806 320.148 Q959.44 320.148 962.022 319.832 Q968.293 319.621 971.613 314.193 Q974.617 309.134 974.617 301.914 Q974.617 295.326 971.455 292.586 Q968.346 289.793 964.288 289.793 Q960.494 289.793 956.33 291.374 Q952.167 292.955 949.901 296.486 Q956.594 296.486 956.594 301.914 Q956.594 304.285 955.066 305.866 Q953.59 307.395 951.113 307.395 Q948.741 307.395 947.16 305.919 Q945.579 304.391 945.579 301.809 Q945.579 295.643 951.06 291.374 Q956.594 287.105 964.71 287.105 Q972.72 287.105 978.623 291.321 Q984.578 295.537 984.578 302.019 Q984.578 308.396 980.362 313.613 Q976.146 318.831 969.453 320.991 Q977.674 322.625 982.575 328.211 Q987.476 333.745 987.476 340.543 Q987.476 348.975 980.836 355.194 Q974.196 361.36 964.499 361.36 Q955.54 361.36 949.11 356.512 Q942.681 351.663 942.681 344.443 Z" fill="#000000" fill-rule="nonzero" fill-opacity="1" /><path clip-path="url(#clip840)" d="M996.558 324.47 Q996.558 308.607 1000.56 299.964 Q1006.15 287.105 1019.32 287.105 Q1022.12 287.105 1025.02 287.896 Q1027.97 288.633 1031.66 291.532 Q1035.4 294.43 1037.66 299.173 Q1041.99 308.343 1041.99 324.47 Q1041.99 340.227 1037.98 348.817 Q1032.13 361.36 1019.22 361.36 Q1014.37 361.36 1009.42 358.883 Q1004.52 356.406 1001.41 350.451 Q996.558 341.545 996.558 324.47 M1005.52 323.152 Q1005.52 339.437 1006.68 345.919 Q1007.99 352.928 1011.58 355.985 Q1015.21 358.989 1019.22 358.989 Q1023.54 358.989 1027.12 355.774 Q1030.76 352.506 1031.87 345.497 Q1033.08 338.593 1033.03 323.152 Q1033.03 308.133 1031.97 302.125 Q1030.55 295.116 1026.76 292.322 Q1023.01 289.477 1019.22 289.477 Q1017.8 289.477 1016.27 289.898 Q1014.79 290.32 1012.63 291.532 Q1010.47 292.744 1008.78 295.748 Q1007.15 298.752 1006.36 303.284 Q1005.52 309.134 1005.52 323.152 Z" fill="#000000" fill-rule="nonzero" fill-opacity="1" /><circle clip-path="url(#clip840)" cx="602.564" cy="440.293" r="47.8523" fill="#ff0000" fill-rule="evenodd" fill-opacity="1" stroke="none"/>
<path clip-path="url(#clip840)" d="M804.139 403.113 Q804.139 404.641 803.454 404.957 Q802.821 405.273 800.713 405.273 Q798.237 405.273 796.708 405.484 Q795.18 405.642 794.231 405.906 Q793.283 406.117 792.703 406.854 Q792.176 407.592 791.965 408.225 Q791.754 408.804 791.385 410.227 L777.051 467.723 Q776.524 469.673 776.524 470.359 Q776.524 471.044 776.946 471.465 Q777.42 471.887 778.579 472.098 Q779.739 472.256 780.635 472.308 Q781.583 472.308 783.533 472.308 Q785.957 472.308 786.326 472.73 Q786.537 472.994 786.537 473.468 Q786.537 474.469 786.115 474.996 Q785.694 475.47 785.325 475.576 Q785.009 475.629 784.482 475.629 Q782.268 475.629 777.736 475.47 Q773.204 475.312 770.99 475.312 L757.604 475.629 Q756.023 475.629 756.023 474.311 Q756.023 473.31 756.445 472.888 Q756.867 472.414 757.341 472.361 Q757.815 472.308 759.027 472.308 Q763.349 472.308 765.193 471.834 Q767.091 471.36 767.618 470.517 Q768.197 469.621 768.83 467.196 L784.271 405.379 L784.166 405.379 L740.582 473.679 L740.266 474.153 Q739.95 474.575 739.844 474.733 Q739.739 474.838 739.423 475.154 Q739.159 475.418 738.843 475.523 Q738.58 475.629 738.211 475.629 Q737.578 475.629 737.209 475.207 Q736.893 474.785 736.788 474.469 Q736.735 474.1 736.577 473.152 L727.302 406.222 L727.196 406.222 L712.493 465.036 Q712.071 466.669 712.071 467.513 Q712.071 469.673 713.6 470.991 Q715.181 472.256 719.397 472.308 Q721.347 472.308 721.347 473.468 Q721.347 475.629 719.397 475.629 Q717.605 475.629 713.863 475.47 Q710.121 475.312 708.277 475.312 Q706.485 475.312 702.849 475.47 Q699.265 475.629 697.526 475.629 Q695.998 475.629 695.998 474.311 Q695.998 472.308 697.947 472.308 Q701.11 472.203 703.27 471.571 Q705.431 470.938 706.643 469.726 Q707.908 468.514 708.488 467.302 Q709.12 466.037 709.594 464.193 L723.296 409.226 Q723.718 407.487 723.718 407.223 Q723.718 406.327 723.191 406.011 Q722.717 405.642 721.347 405.484 Q718.711 405.273 716.709 405.273 Q715.391 405.273 714.864 405.221 Q714.39 405.168 713.968 404.904 Q713.6 404.588 713.6 403.956 Q713.6 402.955 714.021 402.533 Q714.495 402.059 715.022 402.006 Q715.549 401.901 716.814 401.901 L731.623 401.901 Q733.784 401.901 734.258 402.269 Q734.732 402.586 734.943 404.377 L743.375 465.457 L782.795 403.956 Q783.797 402.428 784.324 402.164 Q784.851 401.901 786.959 401.901 L801.24 401.901 Q802.4 401.901 802.874 401.953 Q803.348 402.006 803.717 402.269 Q804.139 402.533 804.139 403.113 Z" fill="#000000" fill-rule="nonzero" fill-opacity="1" /><path clip-path="url(#clip840)" d="M829.595 459.239 Q829.701 457.921 831.756 457.921 L897.895 457.921 Q901.004 457.921 901.057 459.133 Q901.057 460.451 898.106 460.398 L832.494 460.398 Q829.595 460.451 829.595 459.239 M829.595 438.159 Q829.595 436.841 831.861 436.894 L897.79 436.894 Q901.004 436.894 901.057 438.159 Q901.057 439.371 898.317 439.371 L831.756 439.371 Q829.595 439.371 829.595 438.159 Z" fill="#000000" fill-rule="nonzero" fill-opacity="1" /><path clip-path="url(#clip840)" d="M942.681 461.083 Q942.681 457.868 944.525 456.34 Q946.37 454.812 948.741 454.812 Q951.218 454.812 952.958 456.446 Q954.749 458.027 954.749 460.82 Q954.749 463.824 952.641 465.51 Q950.586 467.196 947.635 466.775 Q950.217 471.096 954.96 473.046 Q959.756 474.996 964.183 474.996 Q968.82 474.996 972.562 470.991 Q976.357 466.986 976.357 457.183 Q976.357 448.857 973.089 444.061 Q969.874 439.265 963.498 439.265 L958.755 439.265 Q957.121 439.265 956.647 439.107 Q956.172 438.949 956.172 438.053 Q956.172 436.999 957.806 436.788 Q959.44 436.788 962.022 436.472 Q968.293 436.261 971.613 430.833 Q974.617 425.774 974.617 418.554 Q974.617 411.966 971.455 409.226 Q968.346 406.433 964.288 406.433 Q960.494 406.433 956.33 408.014 Q952.167 409.595 949.901 413.126 Q956.594 413.126 956.594 418.554 Q956.594 420.925 955.066 422.506 Q953.59 424.035 951.113 424.035 Q948.741 424.035 947.16 422.559 Q945.579 421.031 945.579 418.449 Q945.579 412.283 951.06 408.014 Q956.594 403.745 964.71 403.745 Q972.72 403.745 978.623 407.961 Q984.578 412.177 984.578 418.659 Q984.578 425.036 980.362 430.253 Q976.146 435.471 969.453 437.631 Q977.674 439.265 982.575 444.851 Q987.476 450.385 987.476 457.183 Q987.476 465.615 980.836 471.834 Q974.196 478 964.499 478 Q955.54 478 949.11 473.152 Q942.681 468.303 942.681 461.083 Z" fill="#000000" fill-rule="nonzero" fill-opacity="1" /><path clip-path="url(#clip840)" d="M996.558 441.11 Q996.558 425.247 1000.56 416.604 Q1006.15 403.745 1019.32 403.745 Q1022.12 403.745 1025.02 404.536 Q1027.97 405.273 1031.66 408.172 Q1035.4 411.07 1037.66 415.813 Q1041.99 424.983 1041.99 441.11 Q1041.99 456.867 1037.98 465.457 Q1032.13 478 1019.22 478 Q1014.37 478 1009.42 475.523 Q1004.52 473.046 1001.41 467.091 Q996.558 458.185 996.558 441.11 M1005.52 439.792 Q1005.52 456.077 1006.68 462.559 Q1007.99 469.568 1011.58 472.625 Q1015.21 475.629 1019.22 475.629 Q1023.54 475.629 1027.12 472.414 Q1030.76 469.146 1031.87 462.137 Q1033.08 455.233 1033.03 439.792 Q1033.03 424.773 1031.97 418.765 Q1030.55 411.756 1026.76 408.962 Q1023.01 406.117 1019.22 406.117 Q1017.8 406.117 1016.27 406.538 Q1014.79 406.96 1012.63 408.172 Q1010.47 409.384 1008.78 412.388 Q1007.15 415.392 1006.36 419.924 Q1005.52 425.774 1005.52 439.792 Z" fill="#000000" fill-rule="nonzero" fill-opacity="1" /><path clip-path="url(#clip840)" d="M1050.44 441.11 Q1050.44 425.247 1054.44 416.604 Q1060.03 403.745 1073.2 403.745 Q1076 403.745 1078.89 404.536 Q1081.85 405.273 1085.53 408.172 Q1089.28 411.07 1091.54 415.813 Q1095.86 424.983 1095.86 441.11 Q1095.86 456.867 1091.86 465.457 Q1086.01 478 1073.1 478 Q1068.25 478 1063.29 475.523 Q1058.39 473.046 1055.28 467.091 Q1050.44 458.185 1050.44 441.11 M1059.39 439.792 Q1059.39 456.077 1060.55 462.559 Q1061.87 469.568 1065.46 472.625 Q1069.09 475.629 1073.1 475.629 Q1077.42 475.629 1081 472.414 Q1084.64 469.146 1085.74 462.137 Q1086.96 455.233 1086.9 439.792 Q1086.9 424.773 1085.85 418.765 Q1084.43 411.756 1080.63 408.962 Q1076.89 406.117 1073.1 406.117 Q1071.67 406.117 1070.15 406.538 Q1068.67 406.96 1066.51 408.172 Q1064.35 409.384 1062.66 412.388 Q1061.03 415.392 1060.24 419.924 Q1059.39 425.774 1059.39 439.792 Z" fill="#000000" fill-rule="nonzero" fill-opacity="1" /><path clip-path="url(#clip840)" d="M1374.65 264.116 Q1374.98 264.485 1374.98 264.854 Q1374.98 265.223 1374.16 266.289 Q1373.38 267.354 1371.7 268.789 Q1370.02 270.223 1367.85 271.576 Q1365.68 272.929 1362.48 273.831 Q1359.28 274.773 1355.92 274.773 Q1349.65 274.773 1345.96 270.633 Q1342.31 266.493 1342.31 260.55 Q1342.31 254.771 1345.55 249.237 Q1348.79 243.662 1354.04 240.219 Q1359.28 236.735 1364.82 236.735 Q1369.2 236.735 1371.95 238.785 Q1374.69 240.834 1374.69 243.949 Q1374.69 246.368 1373.3 247.843 Q1371.91 249.319 1370.02 249.319 Q1368.71 249.319 1367.81 248.581 Q1366.91 247.802 1366.91 246.368 Q1366.91 244.523 1368.42 243.089 Q1369 242.515 1369.65 242.269 Q1370.35 241.982 1370.76 241.982 Q1371.17 241.941 1372.11 241.941 Q1371.25 240.342 1369.2 239.482 Q1367.19 238.58 1364.9 238.58 Q1361.5 238.58 1358.26 240.957 Q1355.02 243.294 1353.05 246.983 Q1351.08 250.59 1349.81 255.713 Q1348.54 260.796 1348.54 263.747 Q1348.54 267.805 1350.43 270.346 Q1352.31 272.888 1356.08 272.888 Q1356.82 272.888 1357.6 272.847 Q1358.42 272.806 1360.47 272.355 Q1362.56 271.904 1364.41 271.125 Q1366.25 270.346 1368.59 268.666 Q1370.96 266.944 1372.85 264.608 Q1373.51 263.747 1373.96 263.747 Q1374.32 263.747 1374.65 264.116 Z" fill="#000000" fill-rule="nonzero" fill-opacity="1" /><path clip-path="url(#clip840)" d="M1401.57 261.083 Q1401.65 260.058 1403.25 260.058 L1454.69 260.058 Q1457.11 260.058 1457.15 261.001 Q1457.15 262.026 1454.86 261.985 L1403.83 261.985 Q1401.57 262.026 1401.57 261.083 M1401.57 244.687 Q1401.57 243.662 1403.33 243.703 L1454.61 243.703 Q1457.11 243.703 1457.15 244.687 Q1457.15 245.63 1455.02 245.63 L1403.25 245.63 Q1401.57 245.63 1401.57 244.687 Z" fill="#000000" fill-rule="nonzero" fill-opacity="1" /><path clip-path="url(#clip840)" d="M1489.53 225.914 L1489.53 223.291 Q1499.61 223.291 1504.82 217.921 Q1506.25 217.921 1506.5 218.249 Q1506.75 218.577 1506.75 220.094 L1506.75 267.19 Q1506.75 269.691 1507.98 270.469 Q1509.21 271.248 1514.58 271.248 L1517.24 271.248 L1517.24 273.831 Q1514.29 273.585 1503.63 273.585 Q1492.97 273.585 1490.06 273.831 L1490.06 271.248 L1492.73 271.248 Q1498.02 271.248 1499.29 270.51 Q1500.56 269.732 1500.56 267.19 L1500.56 223.701 Q1496.17 225.914 1489.53 225.914 Z" fill="#000000" fill-rule="nonzero" fill-opacity="1" /></svg>
