<?xml version="1.0" encoding="utf-8"?>
<svg xmlns="http://www.w3.org/2000/svg" xmlns:xlink="http://www.w3.org/1999/xlink" width="600" height="400" viewBox="0 0 2400 1600">
<defs>
  <clipPath id="clip040">
    <rect x="0" y="0" width="2400" height="1600"/>
  </clipPath>
</defs>
<path clip-path="url(#clip040)" d="M0 1600 L2400 1600 L2400 0 L0 0  Z" fill="#ffffff" fill-rule="evenodd" fill-opacity="1"/>
<defs>
  <clipPath id="clip041">
    <rect x="262" y="47" width="2091" height="1338"/>
  </clipPath>
</defs>
<path clip-path="url(#clip040)" d="M262.589 1384.3 L2352.76 1384.3 L2352.76 47.2441 L262.589 47.2441  Z" fill="#ffffff" fill-rule="evenodd" fill-opacity="1"/>
<polyline clip-path="url(#clip041)" style="stroke:#000000; stroke-linecap:round; stroke-linejoin:round; stroke-width:2; stroke-opacity:0.1; fill:none" points="321.745,1384.3 321.745,47.2441 "/>
<polyline clip-path="url(#clip041)" style="stroke:#000000; stroke-linecap:round; stroke-linejoin:round; stroke-width:2; stroke-opacity:0.1; fill:none" points="1307.67,1384.3 1307.67,47.2441 "/>
<polyline clip-path="url(#clip041)" style="stroke:#000000; stroke-linecap:round; stroke-linejoin:round; stroke-width:2; stroke-opacity:0.1; fill:none" points="2293.6,1384.3 2293.6,47.2441 "/>
<polyline clip-path="url(#clip041)" style="stroke:#000000; stroke-linecap:round; stroke-linejoin:round; stroke-width:2; stroke-opacity:0.1; fill:none" points="262.589,1200.92 2352.76,1200.92 "/>
<polyline clip-path="url(#clip041)" style="stroke:#000000; stroke-linecap:round; stroke-linejoin:round; stroke-width:2; stroke-opacity:0.1; fill:none" points="262.589,715.772 2352.76,715.772 "/>
<polyline clip-path="url(#clip041)" style="stroke:#000000; stroke-linecap:round; stroke-linejoin:round; stroke-width:2; stroke-opacity:0.1; fill:none" points="262.589,230.628 2352.76,230.628 "/>
<polyline clip-path="url(#clip040)" style="stroke:#000000; stroke-linecap:round; stroke-linejoin:round; stroke-width:4; stroke-opacity:1; fill:none" points="262.589,1384.3 2352.76,1384.3 "/>
<polyline clip-path="url(#clip040)" style="stroke:#000000; stroke-linecap:round; stroke-linejoin:round; stroke-width:4; stroke-opacity:1; fill:none" points="321.745,1384.3 321.745,1365.4 "/>
<polyline clip-path="url(#clip040)" style="stroke:#000000; stroke-linecap:round; stroke-linejoin:round; stroke-width:4; stroke-opacity:1; fill:none" points="1307.67,1384.3 1307.67,1365.4 "/>
<polyline clip-path="url(#clip040)" style="stroke:#000000; stroke-linecap:round; stroke-linejoin:round; stroke-width:4; stroke-opacity:1; fill:none" points="2293.6,1384.3 2293.6,1365.4 "/>
<path clip-path="url(#clip040)" d="M287.821 1421.08 Q282.404 1421.08 279.661 1426.43 Q276.953 1431.74 276.953 1442.43 Q276.953 1453.09 279.661 1458.44 Q282.404 1463.75 287.821 1463.75 Q293.272 1463.75 295.981 1458.44 Q298.724 1453.09 298.724 1442.43 Q298.724 1431.74 295.981 1426.43 Q293.272 1421.08 287.821 1421.08 M287.821 1415.52 Q296.536 1415.52 301.12 1422.43 Q305.738 1429.31 305.738 1442.43 Q305.738 1455.52 301.12 1462.43 Q296.536 1469.31 287.821 1469.31 Q279.106 1469.31 274.488 1462.43 Q269.905 1455.52 269.905 1442.43 Q269.905 1429.31 274.488 1422.43 Q279.106 1415.52 287.821 1415.52 Z" fill="#000000" fill-rule="nonzero" fill-opacity="1" /><path clip-path="url(#clip040)" d="M318.064 1459.48 L325.39 1459.48 L325.39 1468.3 L318.064 1468.3 L318.064 1459.48 Z" fill="#000000" fill-rule="nonzero" fill-opacity="1" /><path clip-path="url(#clip040)" d="M355.668 1421.08 Q350.251 1421.08 347.508 1426.43 Q344.8 1431.74 344.8 1442.43 Q344.8 1453.09 347.508 1458.44 Q350.251 1463.75 355.668 1463.75 Q361.119 1463.75 363.828 1458.44 Q366.571 1453.09 366.571 1442.43 Q366.571 1431.74 363.828 1426.43 Q361.119 1421.08 355.668 1421.08 M355.668 1415.52 Q364.383 1415.52 368.966 1422.43 Q373.585 1429.31 373.585 1442.43 Q373.585 1455.52 368.966 1462.43 Q364.383 1469.31 355.668 1469.31 Q346.953 1469.31 342.335 1462.43 Q337.751 1455.52 337.751 1442.43 Q337.751 1429.31 342.335 1422.43 Q346.953 1415.52 355.668 1415.52 Z" fill="#000000" fill-rule="nonzero" fill-opacity="1" /><path clip-path="url(#clip040)" d="M1274.5 1421.08 Q1269.08 1421.08 1266.34 1426.43 Q1263.63 1431.74 1263.63 1442.43 Q1263.63 1453.09 1266.34 1458.44 Q1269.08 1463.75 1274.5 1463.75 Q1279.95 1463.75 1282.66 1458.44 Q1285.4 1453.09 1285.4 1442.43 Q1285.4 1431.74 1282.66 1426.43 Q1279.95 1421.08 1274.5 1421.08 M1274.5 1415.52 Q1283.21 1415.52 1287.79 1422.43 Q1292.41 1429.31 1292.41 1442.43 Q1292.41 1455.52 1287.79 1462.43 Q1283.21 1469.31 1274.5 1469.31 Q1265.78 1469.31 1261.16 1462.43 Q1256.58 1455.52 1256.58 1442.43 Q1256.58 1429.31 1261.16 1422.43 Q1265.78 1415.52 1274.5 1415.52 Z" fill="#000000" fill-rule="nonzero" fill-opacity="1" /><path clip-path="url(#clip040)" d="M1304.74 1459.48 L1312.06 1459.48 L1312.06 1468.3 L1304.74 1468.3 L1304.74 1459.48 Z" fill="#000000" fill-rule="nonzero" fill-opacity="1" /><path clip-path="url(#clip040)" d="M1327.41 1416.46 L1354.95 1416.46 L1354.95 1422.36 L1333.84 1422.36 L1333.84 1435.07 Q1335.36 1434.55 1336.89 1434.31 Q1338.42 1434.03 1339.95 1434.03 Q1348.63 1434.03 1353.7 1438.79 Q1358.77 1443.54 1358.77 1451.67 Q1358.77 1460.04 1353.56 1464.69 Q1348.35 1469.31 1338.87 1469.31 Q1335.61 1469.31 1332.2 1468.75 Q1328.84 1468.2 1325.22 1467.08 L1325.22 1460.04 Q1328.35 1461.74 1331.68 1462.57 Q1335.02 1463.4 1338.73 1463.4 Q1344.74 1463.4 1348.25 1460.24 Q1351.75 1457.08 1351.75 1451.67 Q1351.75 1446.25 1348.25 1443.09 Q1344.74 1439.93 1338.73 1439.93 Q1335.92 1439.93 1333.11 1440.56 Q1330.33 1441.18 1327.41 1442.5 L1327.41 1416.46 Z" fill="#000000" fill-rule="nonzero" fill-opacity="1" /><path clip-path="url(#clip040)" d="M2244.33 1462.4 L2255.79 1462.4 L2255.79 1422.85 L2243.32 1425.35 L2243.32 1418.96 L2255.72 1416.46 L2262.73 1416.46 L2262.73 1462.4 L2274.19 1462.4 L2274.19 1468.3 L2244.33 1468.3 L2244.33 1462.4 Z" fill="#000000" fill-rule="nonzero" fill-opacity="1" /><path clip-path="url(#clip040)" d="M2288.36 1459.48 L2295.68 1459.48 L2295.68 1468.3 L2288.36 1468.3 L2288.36 1459.48 Z" fill="#000000" fill-rule="nonzero" fill-opacity="1" /><path clip-path="url(#clip040)" d="M2325.96 1421.08 Q2320.54 1421.08 2317.8 1426.43 Q2315.09 1431.74 2315.09 1442.43 Q2315.09 1453.09 2317.8 1458.44 Q2320.54 1463.75 2325.96 1463.75 Q2331.41 1463.75 2334.12 1458.44 Q2336.86 1453.09 2336.86 1442.43 Q2336.86 1431.74 2334.12 1426.43 Q2331.41 1421.08 2325.96 1421.08 M2325.96 1415.52 Q2334.68 1415.52 2339.26 1422.43 Q2343.88 1429.31 2343.88 1442.43 Q2343.88 1455.52 2339.26 1462.43 Q2334.68 1469.31 2325.96 1469.31 Q2317.25 1469.31 2312.63 1462.43 Q2308.04 1455.52 2308.04 1442.43 Q2308.04 1429.31 2312.63 1422.43 Q2317.25 1415.52 2325.96 1415.52 Z" fill="#000000" fill-rule="nonzero" fill-opacity="1" /><path clip-path="url(#clip040)" d="M1320 1528.46 Q1320 1529.77 1319.39 1530.1 Q1318.78 1530.38 1317.09 1530.38 L1308.1 1530.38 L1300.98 1558.67 Q1300.41 1561.15 1300.41 1563.26 Q1300.41 1565.6 1301.12 1566.63 Q1301.87 1567.67 1303.41 1567.67 Q1306.46 1567.67 1309.74 1564.9 Q1313.06 1562.14 1315.87 1555.39 Q1316.25 1554.5 1316.43 1554.31 Q1316.67 1554.08 1317.28 1554.08 Q1318.45 1554.08 1318.45 1555.02 Q1318.45 1555.35 1317.79 1556.84 Q1317.18 1558.34 1315.83 1560.54 Q1314.51 1562.75 1312.78 1564.81 Q1311.09 1566.87 1308.52 1568.37 Q1305.94 1569.82 1303.18 1569.82 Q1299.29 1569.82 1296.81 1567.34 Q1294.37 1564.85 1294.37 1560.97 Q1294.37 1559.7 1295.35 1555.67 Q1296.34 1551.6 1301.68 1530.38 L1293.2 1530.38 Q1292.03 1530.38 1291.56 1530.33 Q1291.14 1530.28 1290.81 1530.05 Q1290.53 1529.77 1290.53 1529.21 Q1290.53 1528.32 1290.9 1527.94 Q1291.28 1527.52 1291.75 1527.47 Q1292.26 1527.38 1293.43 1527.38 L1302.43 1527.38 L1306.18 1512.15 Q1306.55 1510.66 1307.49 1509.81 Q1308.47 1508.92 1309.03 1508.83 Q1309.6 1508.69 1310.02 1508.69 Q1311.28 1508.69 1312.03 1509.39 Q1312.78 1510.05 1312.78 1511.26 Q1312.78 1511.92 1308.85 1527.38 L1317.28 1527.38 Q1318.36 1527.38 1318.78 1527.43 Q1319.25 1527.47 1319.62 1527.71 Q1320 1527.94 1320 1528.46 Z" fill="#000000" fill-rule="nonzero" fill-opacity="1" /><polyline clip-path="url(#clip040)" style="stroke:#000000; stroke-linecap:round; stroke-linejoin:round; stroke-width:4; stroke-opacity:1; fill:none" points="262.589,1384.3 262.589,47.2441 "/>
<polyline clip-path="url(#clip040)" style="stroke:#000000; stroke-linecap:round; stroke-linejoin:round; stroke-width:4; stroke-opacity:1; fill:none" points="262.589,1200.92 281.486,1200.92 "/>
<polyline clip-path="url(#clip040)" style="stroke:#000000; stroke-linecap:round; stroke-linejoin:round; stroke-width:4; stroke-opacity:1; fill:none" points="262.589,715.772 281.486,715.772 "/>
<polyline clip-path="url(#clip040)" style="stroke:#000000; stroke-linecap:round; stroke-linejoin:round; stroke-width:4; stroke-opacity:1; fill:none" points="262.589,230.628 281.486,230.628 "/>
<path clip-path="url(#clip040)" d="M135.86 1201.59 L180.374 1201.59 L180.374 1207.5 L135.86 1207.5 L135.86 1201.59 Z" fill="#000000" fill-rule="nonzero" fill-opacity="1" /><path clip-path="url(#clip040)" d="M196.728 1220.93 L208.186 1220.93 L208.186 1181.38 L195.721 1183.88 L195.721 1177.5 L208.117 1175 L215.131 1175 L215.131 1220.93 L226.589 1220.93 L226.589 1226.84 L196.728 1226.84 L196.728 1220.93 Z" fill="#000000" fill-rule="nonzero" fill-opacity="1" /><path clip-path="url(#clip040)" d="M208.672 694.47 Q203.256 694.47 200.513 699.817 Q197.804 705.13 197.804 715.824 Q197.804 726.484 200.513 731.831 Q203.256 737.143 208.672 737.143 Q214.124 737.143 216.832 731.831 Q219.575 726.484 219.575 715.824 Q219.575 705.13 216.832 699.817 Q214.124 694.47 208.672 694.47 M208.672 688.914 Q217.387 688.914 221.971 695.824 Q226.589 702.699 226.589 715.824 Q226.589 728.914 221.971 735.824 Q217.387 742.699 208.672 742.699 Q199.957 742.699 195.339 735.824 Q190.756 728.914 190.756 715.824 Q190.756 702.699 195.339 695.824 Q199.957 688.914 208.672 688.914 Z" fill="#000000" fill-rule="nonzero" fill-opacity="1" /><path clip-path="url(#clip040)" d="M196.728 250.646 L208.186 250.646 L208.186 211.097 L195.721 213.597 L195.721 207.208 L208.117 204.708 L215.131 204.708 L215.131 250.646 L226.589 250.646 L226.589 256.548 L196.728 256.548 L196.728 250.646 Z" fill="#000000" fill-rule="nonzero" fill-opacity="1" /><path clip-path="url(#clip040)" d="M30.8974 694.77 Q31.5533 694.77 33.0991 695.192 L69.7318 704.374 Q77.8829 706.388 83.5979 712.946 Q89.313 719.458 89.313 726.859 Q89.313 731.309 86.9239 734.167 Q84.5817 737.024 80.9746 737.024 Q77.7892 737.024 76.2433 735.338 Q74.7443 733.652 74.7443 731.637 Q74.7443 730.981 74.9316 730.279 Q75.119 729.576 75.9154 728.827 Q76.7117 728.077 78.0702 728.077 Q80.2719 728.077 82.0052 729.998 Q82.8016 730.935 82.989 731.825 Q83.1763 732.668 83.1763 734.12 Q84.488 733.558 85.378 732.527 Q86.2681 731.497 86.596 730.326 Q86.9708 729.154 87.0645 728.405 Q87.205 727.609 87.205 726.859 Q87.205 720.863 81.162 716.272 Q79.335 714.914 77.5081 713.93 Q75.728 712.899 73.5263 712.15 Q71.3714 711.4 70.2003 711.072 Q69.0292 710.698 66.359 710.042 Q70.7156 714.398 70.7156 719.739 Q70.7156 721.987 70.1066 724.002 Q69.4976 725.969 68.2328 727.702 Q66.9212 729.436 64.6258 730.466 Q62.3304 731.45 59.2854 731.45 Q56.0531 731.45 51.6497 730.185 Q47.2463 728.92 39.1421 725.875 Q34.5982 724.236 32.3965 724.236 Q31.319 724.236 30.6632 724.47 Q29.9605 724.704 29.7263 725.173 Q29.4452 725.641 29.3984 725.922 Q29.3516 726.156 29.3516 726.625 Q29.3516 729.389 32.1622 731.965 Q34.9729 734.542 41.2502 736.322 Q42.4213 736.696 42.7023 736.931 Q42.9834 737.165 42.9834 737.868 Q42.9366 739.039 41.9997 739.039 Q41.6249 739.039 40.1727 738.617 Q38.6737 738.196 36.472 737.212 Q34.2234 736.181 32.2091 734.776 Q30.1479 733.37 28.6957 731.169 Q27.2435 728.92 27.2435 726.344 Q27.2435 722.83 29.5389 720.676 Q31.7875 718.474 35.1135 718.474 Q36.472 718.474 37.6899 718.849 Q38.8611 719.176 41.9997 720.394 Q54.6478 725.313 60.8313 725.313 Q62.3304 725.313 63.5952 725.079 Q64.8131 724.798 66.0311 724.189 Q67.2022 723.58 67.9049 722.362 Q68.5607 721.097 68.5607 719.364 Q68.5607 717.162 67.5301 715.101 Q66.4527 712.993 65.0005 711.681 Q63.5483 710.323 62.3304 709.526 Q61.0655 708.683 60.4097 708.496 L43.1708 704.186 L35.4882 702.265 Q31.319 701.375 30.2885 700.954 Q29.3047 700.392 28.7894 699.408 Q28.2741 698.424 28.2741 697.581 Q28.2741 696.41 28.9768 695.614 Q29.6795 694.77 30.8974 694.77 Z" fill="#000000" fill-rule="nonzero" fill-opacity="1" /><path clip-path="url(#clip041)" d="M356.205 1187.29 L356.205 1235.29 L404.205 1235.29 L404.205 1187.29 L356.205 1187.29 Z" fill="#ff0000" fill-rule="evenodd" fill-opacity="1" stroke="none"/>
<path clip-path="url(#clip041)" d="M990.835 1012.41 L990.835 1060.41 L1038.83 1060.41 L1038.83 1012.41 L990.835 1012.41 Z" fill="#ff0000" fill-rule="evenodd" fill-opacity="1" stroke="none"/>
<path clip-path="url(#clip041)" d="M1770.33 332.658 L1770.33 380.658 L1818.33 380.658 L1818.33 332.658 L1770.33 332.658 Z" fill="#ff0000" fill-rule="evenodd" fill-opacity="1" stroke="none"/>
<path clip-path="url(#clip041)" d="M2152.44 105.881 L2152.44 153.881 L2200.44 153.881 L2200.44 105.881 L2152.44 105.881 Z" fill="#ff0000" fill-rule="evenodd" fill-opacity="1" stroke="none"/>
<circle clip-path="url(#clip041)" cx="380.205" cy="1211.29" r="21.6" fill="#000000" fill-rule="evenodd" fill-opacity="1" stroke="none"/>
<circle clip-path="url(#clip041)" cx="493.191" cy="1220.59" r="21.6" fill="#000000" fill-rule="evenodd" fill-opacity="1" stroke="none"/>
<circle clip-path="url(#clip041)" cx="552.43" cy="1156.74" r="21.6" fill="#000000" fill-rule="evenodd" fill-opacity="1" stroke="none"/>
<circle clip-path="url(#clip041)" cx="702.886" cy="1099.03" r="21.6" fill="#000000" fill-rule="evenodd" fill-opacity="1" stroke="none"/>
<circle clip-path="url(#clip041)" cx="1014.83" cy="1036.41" r="21.6" fill="#000000" fill-rule="evenodd" fill-opacity="1" stroke="none"/>
<circle clip-path="url(#clip041)" cx="1155.68" cy="853.577" r="21.6" fill="#000000" fill-rule="evenodd" fill-opacity="1" stroke="none"/>
<circle clip-path="url(#clip041)" cx="1219.41" cy="789.137" r="21.6" fill="#000000" fill-rule="evenodd" fill-opacity="1" stroke="none"/>
<circle clip-path="url(#clip041)" cx="1401.62" cy="599.197" r="21.6" fill="#000000" fill-rule="evenodd" fill-opacity="1" stroke="none"/>
<circle clip-path="url(#clip041)" cx="1716.9" cy="396.93" r="21.6" fill="#000000" fill-rule="evenodd" fill-opacity="1" stroke="none"/>
<circle clip-path="url(#clip041)" cx="1794.33" cy="356.658" r="21.6" fill="#000000" fill-rule="evenodd" fill-opacity="1" stroke="none"/>
<circle clip-path="url(#clip041)" cx="1794.61" cy="355.128" r="21.6" fill="#000000" fill-rule="evenodd" fill-opacity="1" stroke="none"/>
<circle clip-path="url(#clip041)" cx="1846.69" cy="326.089" r="21.6" fill="#000000" fill-rule="evenodd" fill-opacity="1" stroke="none"/>
<circle clip-path="url(#clip041)" cx="2095.95" cy="249.541" r="21.6" fill="#000000" fill-rule="evenodd" fill-opacity="1" stroke="none"/>
<circle clip-path="url(#clip041)" cx="2176.44" cy="129.881" r="21.6" fill="#000000" fill-rule="evenodd" fill-opacity="1" stroke="none"/>
<circle clip-path="url(#clip041)" cx="2247.6" cy="179.984" r="21.6" fill="#000000" fill-rule="evenodd" fill-opacity="1" stroke="none"/>
<polyline clip-path="url(#clip041)" style="stroke:#0000ff; stroke-linecap:round; stroke-linejoin:round; stroke-width:8; stroke-opacity:1; fill:none" points="321.745,1252.9 341.463,1248.95 361.182,1244.88 380.9,1240.67 400.619,1236.32 420.337,1231.82 440.056,1227.16 459.774,1222.34 479.493,1217.35 499.212,1212.19 518.93,1206.83 538.649,1201.28 558.367,1195.53 578.086,1189.55 597.804,1183.36 617.523,1176.92 637.241,1170.24 656.96,1163.3 676.679,1156.09 696.397,1148.58 716.116,1140.79 735.834,1132.67 755.553,1124.23 775.271,1115.45 794.99,1106.31 814.708,1096.8 834.427,1086.9 854.146,1076.6 873.864,1065.88 893.583,1054.72 913.301,1043.12 933.02,1031.05 952.738,1018.51 972.457,1005.49 992.175,991.971 1011.89,977.953 1031.61,963.432 1051.33,948.408 1071.05,932.883 1090.77,916.867 1110.49,900.372 1130.21,883.416 1149.92,866.022 1169.64,848.22 1189.36,830.045 1209.08,811.537 1228.8,792.743 1248.52,773.712 1268.24,754.501 1287.95,735.167 1307.67,715.772 1327.39,696.377 1347.11,677.043 1366.83,657.832 1386.55,638.801 1406.27,620.007 1425.98,601.499 1445.7,583.324 1465.42,565.522 1485.14,548.128 1504.86,531.172 1524.58,514.677 1544.3,498.661 1564.01,483.136 1583.73,468.112 1603.45,453.591 1623.17,439.573 1642.89,426.056 1662.61,413.031 1682.32,400.491 1702.04,388.426 1721.76,376.822 1741.48,365.666 1761.2,354.944 1780.92,344.641 1800.64,334.741 1820.35,325.23 1840.07,316.091 1859.79,307.309 1879.51,298.87 1899.23,290.758 1918.95,282.959 1938.67,275.459 1958.38,268.244 1978.1,261.302 1997.82,254.62 2017.54,248.186 2037.26,241.989 2056.98,236.018 2076.7,230.262 2096.41,224.711 2116.13,219.357 2135.85,214.189 2155.57,209.2 2175.29,204.382 2195.01,199.726 2214.73,195.226 2234.44,190.874 2254.16,186.664 2273.88,182.59 2293.6,178.646 "/>
<polyline clip-path="url(#clip041)" style="stroke:#ff0000; stroke-linecap:round; stroke-linejoin:round; stroke-width:8; stroke-opacity:1; fill:none" points="321.745,1188.33 341.463,1197 361.182,1204.72 380.9,1211.51 400.619,1217.39 420.337,1222.37 440.056,1226.47 459.774,1229.7 479.493,1232.09 499.212,1233.65 518.93,1234.4 538.649,1234.35 558.367,1233.52 578.086,1231.93 597.804,1229.6 617.523,1226.54 637.241,1222.76 656.96,1218.3 676.679,1213.15 696.397,1207.35 716.116,1200.9 735.834,1193.83 755.553,1186.15 775.271,1177.87 794.99,1169.02 814.708,1159.61 834.427,1149.66 854.146,1139.19 873.864,1128.21 893.583,1116.73 913.301,1104.79 933.02,1092.38 952.738,1079.54 972.457,1066.28 992.175,1052.6 1011.89,1038.54 1031.61,1024.11 1051.33,1009.32 1071.05,994.195 1090.77,978.748 1110.49,962.996 1130.21,946.957 1149.92,930.648 1169.64,914.085 1189.36,897.286 1209.08,880.267 1228.8,863.046 1248.52,845.639 1268.24,828.063 1287.95,810.335 1307.67,792.473 1327.39,774.493 1347.11,756.412 1366.83,738.246 1386.55,720.014 1406.27,701.732 1425.98,683.417 1445.7,665.085 1465.42,646.754 1485.14,628.441 1504.86,610.162 1524.58,591.935 1544.3,573.777 1564.01,555.704 1583.73,537.733 1603.45,519.882 1623.17,502.166 1642.89,484.605 1662.61,467.213 1682.32,450.009 1702.04,433.008 1721.76,416.229 1741.48,399.687 1761.2,383.401 1780.92,367.386 1800.64,351.66 1820.35,336.24 1840.07,321.142 1859.79,306.384 1879.51,291.983 1899.23,277.955 1918.95,264.317 1938.67,251.087 1958.38,238.282 1978.1,225.917 1997.82,214.011 2017.54,202.58 2037.26,191.641 2056.98,181.212 2076.7,171.308 2096.41,161.947 2116.13,153.146 2135.85,144.922 2155.57,137.291 2175.29,130.272 2195.01,123.88 2214.73,118.133 2234.44,113.047 2254.16,108.64 2273.88,104.928 2293.6,101.928 "/>
<polyline clip-path="url(#clip041)" style="stroke:#ffa500; stroke-linecap:round; stroke-linejoin:round; stroke-width:8; stroke-opacity:1; fill:none" points="321.745,1194.89 341.463,1197.97 361.182,1200.31 380.9,1201.93 400.619,1202.84 420.337,1203.06 440.056,1202.6 459.774,1201.47 479.493,1199.7 499.212,1197.29 518.93,1194.25 538.649,1190.61 558.367,1186.38 578.086,1181.57 597.804,1176.2 617.523,1170.27 637.241,1163.81 656.96,1156.83 676.679,1149.34 696.397,1141.35 716.116,1132.89 735.834,1123.96 755.553,1114.58 775.271,1104.77 794.99,1094.54 814.708,1083.89 834.427,1072.86 854.146,1061.44 873.864,1049.66 893.583,1037.53 913.301,1025.07 933.02,1012.28 952.738,999.185 972.457,985.796 992.175,972.128 1011.89,958.195 1031.61,944.012 1051.33,929.593 1071.05,914.952 1090.77,900.102 1110.49,885.06 1130.21,869.838 1149.92,854.451 1169.64,838.914 1189.36,823.24 1209.08,807.445 1228.8,791.541 1248.52,775.544 1268.24,759.467 1287.95,743.326 1307.67,727.133 1327.39,710.904 1347.11,694.653 1366.83,678.394 1386.55,662.142 1406.27,645.91 1425.98,629.712 1445.7,613.564 1465.42,597.479 1485.14,581.472 1504.86,565.557 1524.58,549.748 1544.3,534.059 1564.01,518.506 1583.73,503.101 1603.45,487.859 1623.17,472.795 1642.89,457.923 1662.61,443.257 1682.32,428.811 1702.04,414.6 1721.76,400.638 1741.48,386.938 1761.2,373.517 1780.92,360.386 1800.64,347.562 1820.35,335.058 1840.07,322.889 1859.79,311.068 1879.51,299.611 1899.23,288.53 1918.95,277.842 1938.67,267.559 1958.38,257.696 1978.1,248.267 1997.82,239.288 2017.54,230.771 2037.26,222.731 2056.98,215.183 2076.7,208.14 2096.41,201.617 2116.13,195.629 2135.85,190.189 2155.57,185.312 2175.29,181.012 2195.01,177.304 2214.73,174.201 2234.44,171.717 2254.16,169.868 2273.88,168.668 2293.6,168.13 "/>
<path clip-path="url(#clip040)" d="M332.261 545.413 L1536.1 545.413 L1536.1 91.8126 L332.261 91.8126  Z" fill="#ffffff" fill-rule="evenodd" fill-opacity="1"/>
<polyline clip-path="url(#clip040)" style="stroke:#000000; stroke-linecap:round; stroke-linejoin:round; stroke-width:4; stroke-opacity:1; fill:none" points="332.261,545.413 1536.1,545.413 1536.1,91.8126 332.261,91.8126 332.261,545.413 "/>
<circle clip-path="url(#clip040)" cx="425.157" cy="182.533" r="37.2185" fill="#000000" fill-rule="evenodd" fill-opacity="1" stroke="none"/>
<path clip-path="url(#clip040)" d="M542.278 216.986 Q539.118 225.087 536.121 227.558 Q533.123 230.029 528.1 230.029 L522.145 230.029 L522.145 223.791 L526.52 223.791 Q529.599 223.791 531.3 222.333 Q533.002 220.874 535.067 215.446 L536.404 212.043 L518.054 167.402 L525.953 167.402 L540.131 202.888 L554.309 167.402 L562.209 167.402 L542.278 216.986 Z" fill="#000000" fill-rule="nonzero" fill-opacity="1" /><path clip-path="url(#clip040)" d="M616.774 149.822 Q611.346 159.139 608.713 168.253 Q606.08 177.368 606.08 186.725 Q606.08 196.083 608.713 205.278 Q611.387 214.433 616.774 223.71 L610.293 223.71 Q604.216 214.19 601.178 204.995 Q598.181 195.799 598.181 186.725 Q598.181 177.692 601.178 168.537 Q604.176 159.382 610.293 149.822 L616.774 149.822 Z" fill="#000000" fill-rule="nonzero" fill-opacity="1" /><path clip-path="url(#clip040)" d="M668.95 185.389 L668.95 212.773 L661.496 212.773 L661.496 185.632 Q661.496 179.191 658.985 175.99 Q656.473 172.79 651.45 172.79 Q645.414 172.79 641.93 176.639 Q638.447 180.487 638.447 187.13 L638.447 212.773 L630.952 212.773 L630.952 167.402 L638.447 167.402 L638.447 174.451 Q641.12 170.36 644.725 168.334 Q648.371 166.309 653.111 166.309 Q660.929 166.309 664.939 171.17 Q668.95 175.99 668.95 185.389 Z" fill="#000000" fill-rule="nonzero" fill-opacity="1" /><path clip-path="url(#clip040)" d="M701.398 172.628 Q695.402 172.628 691.919 177.327 Q688.435 181.986 688.435 190.128 Q688.435 198.27 691.878 202.969 Q695.362 207.628 701.398 207.628 Q707.352 207.628 710.836 202.929 Q714.32 198.23 714.32 190.128 Q714.32 182.067 710.836 177.368 Q707.352 172.628 701.398 172.628 M701.398 166.309 Q711.12 166.309 716.67 172.628 Q722.219 178.948 722.219 190.128 Q722.219 201.268 716.67 207.628 Q711.12 213.947 701.398 213.947 Q691.635 213.947 686.085 207.628 Q680.576 201.268 680.576 190.128 Q680.576 178.948 686.085 172.628 Q691.635 166.309 701.398 166.309 Z" fill="#000000" fill-rule="nonzero" fill-opacity="1" /><path clip-path="url(#clip040)" d="M734.575 167.402 L742.028 167.402 L742.028 212.773 L734.575 212.773 L734.575 167.402 M734.575 149.741 L742.028 149.741 L742.028 159.179 L734.575 159.179 L734.575 149.741 Z" fill="#000000" fill-rule="nonzero" fill-opacity="1" /><path clip-path="url(#clip040)" d="M786.548 168.739 L786.548 175.788 Q783.388 174.168 779.985 173.357 Q776.582 172.547 772.937 172.547 Q767.387 172.547 764.592 174.249 Q761.837 175.95 761.837 179.353 Q761.837 181.945 763.822 183.444 Q765.807 184.902 771.802 186.239 L774.354 186.806 Q782.294 188.508 785.616 191.627 Q788.978 194.706 788.978 200.255 Q788.978 206.575 783.955 210.261 Q778.972 213.947 770.222 213.947 Q766.577 213.947 762.607 213.218 Q758.677 212.53 754.302 211.112 L754.302 203.415 Q758.434 205.562 762.445 206.656 Q766.455 207.709 770.385 207.709 Q775.651 207.709 778.486 205.927 Q781.322 204.104 781.322 200.822 Q781.322 197.784 779.256 196.164 Q777.231 194.544 770.304 193.045 L767.711 192.437 Q760.784 190.979 757.705 187.981 Q754.627 184.943 754.627 179.677 Q754.627 173.276 759.164 169.793 Q763.701 166.309 772.045 166.309 Q776.177 166.309 779.823 166.916 Q783.469 167.524 786.548 168.739 Z" fill="#000000" fill-rule="nonzero" fill-opacity="1" /><path clip-path="url(#clip040)" d="M819.725 216.986 Q816.565 225.087 813.567 227.558 Q810.569 230.029 805.546 230.029 L799.592 230.029 L799.592 223.791 L803.967 223.791 Q807.045 223.791 808.747 222.333 Q810.448 220.874 812.514 215.446 L813.851 212.043 L795.5 167.402 L803.399 167.402 L817.578 202.888 L831.756 167.402 L839.655 167.402 L819.725 216.986 Z" fill="#000000" fill-rule="nonzero" fill-opacity="1" /><path clip-path="url(#clip040)" d="M906.171 174.289 L906.171 149.741 L913.624 149.741 L913.624 212.773 L906.171 212.773 L906.171 205.967 Q903.821 210.018 900.216 212.003 Q896.651 213.947 891.628 213.947 Q883.405 213.947 878.22 207.385 Q873.075 200.822 873.075 190.128 Q873.075 179.434 878.22 172.871 Q883.405 166.309 891.628 166.309 Q896.651 166.309 900.216 168.294 Q903.821 170.238 906.171 174.289 M880.772 190.128 Q880.772 198.351 884.134 203.05 Q887.537 207.709 893.451 207.709 Q899.365 207.709 902.768 203.05 Q906.171 198.351 906.171 190.128 Q906.171 181.905 902.768 177.246 Q899.365 172.547 893.451 172.547 Q887.537 172.547 884.134 177.246 Q880.772 181.905 880.772 190.128 Z" fill="#000000" fill-rule="nonzero" fill-opacity="1" /><path clip-path="url(#clip040)" d="M949.597 189.966 Q940.563 189.966 937.079 192.032 Q933.595 194.098 933.595 199.081 Q933.595 203.05 936.188 205.4 Q938.821 207.709 943.318 207.709 Q949.516 207.709 953.242 203.334 Q957.01 198.919 957.01 191.627 L957.01 189.966 L949.597 189.966 M964.463 186.887 L964.463 212.773 L957.01 212.773 L957.01 205.886 Q954.458 210.018 950.65 212.003 Q946.842 213.947 941.333 213.947 Q934.365 213.947 930.233 210.059 Q926.142 206.129 926.142 199.567 Q926.142 191.91 931.246 188.022 Q936.391 184.133 946.558 184.133 L957.01 184.133 L957.01 183.404 Q957.01 178.259 953.607 175.464 Q950.245 172.628 944.128 172.628 Q940.239 172.628 936.553 173.56 Q932.866 174.492 929.464 176.355 L929.464 169.468 Q933.555 167.889 937.403 167.119 Q941.252 166.309 944.897 166.309 Q954.741 166.309 959.602 171.413 Q964.463 176.517 964.463 186.887 Z" fill="#000000" fill-rule="nonzero" fill-opacity="1" /><path clip-path="url(#clip040)" d="M987.189 154.521 L987.189 167.402 L1002.54 167.402 L1002.54 173.195 L987.189 173.195 L987.189 197.825 Q987.189 203.375 988.688 204.954 Q990.227 206.534 994.886 206.534 L1002.54 206.534 L1002.54 212.773 L994.886 212.773 Q986.257 212.773 982.976 209.572 Q979.695 206.332 979.695 197.825 L979.695 173.195 L974.226 173.195 L974.226 167.402 L979.695 167.402 L979.695 154.521 L987.189 154.521 Z" fill="#000000" fill-rule="nonzero" fill-opacity="1" /><path clip-path="url(#clip040)" d="M1032.96 189.966 Q1023.93 189.966 1020.45 192.032 Q1016.96 194.098 1016.96 199.081 Q1016.96 203.05 1019.56 205.4 Q1022.19 207.709 1026.69 207.709 Q1032.88 207.709 1036.61 203.334 Q1040.38 198.919 1040.38 191.627 L1040.38 189.966 L1032.96 189.966 M1047.83 186.887 L1047.83 212.773 L1040.38 212.773 L1040.38 205.886 Q1037.83 210.018 1034.02 212.003 Q1030.21 213.947 1024.7 213.947 Q1017.73 213.947 1013.6 210.059 Q1009.51 206.129 1009.51 199.567 Q1009.51 191.91 1014.61 188.022 Q1019.76 184.133 1029.93 184.133 L1040.38 184.133 L1040.38 183.404 Q1040.38 178.259 1036.97 175.464 Q1033.61 172.628 1027.5 172.628 Q1023.61 172.628 1019.92 173.56 Q1016.23 174.492 1012.83 176.355 L1012.83 169.468 Q1016.92 167.889 1020.77 167.119 Q1024.62 166.309 1028.27 166.309 Q1038.11 166.309 1042.97 171.413 Q1047.83 176.517 1047.83 186.887 Z" fill="#000000" fill-rule="nonzero" fill-opacity="1" /><path clip-path="url(#clip040)" d="M1062.01 149.822 L1068.49 149.822 Q1074.57 159.382 1077.56 168.537 Q1080.6 177.692 1080.6 186.725 Q1080.6 195.799 1077.56 204.995 Q1074.57 214.19 1068.49 223.71 L1062.01 223.71 Q1067.4 214.433 1070.03 205.278 Q1072.7 196.083 1072.7 186.725 Q1072.7 177.368 1070.03 168.253 Q1067.4 159.139 1062.01 149.822 Z" fill="#000000" fill-rule="nonzero" fill-opacity="1" /><polyline clip-path="url(#clip040)" style="stroke:#0000ff; stroke-linecap:round; stroke-linejoin:round; stroke-width:14; stroke-opacity:1; fill:none" points="355.485,273.253 494.83,273.253 "/>
<path clip-path="url(#clip040)" d="M550.299 259.459 L550.299 266.508 Q547.139 264.888 543.736 264.077 Q540.334 263.267 536.688 263.267 Q531.138 263.267 528.343 264.969 Q525.588 266.67 525.588 270.073 Q525.588 272.665 527.573 274.164 Q529.558 275.622 535.554 276.959 L538.106 277.526 Q546.045 279.228 549.367 282.347 Q552.729 285.426 552.729 290.975 Q552.729 297.295 547.706 300.981 Q542.724 304.667 533.974 304.667 Q530.328 304.667 526.358 303.938 Q522.429 303.25 518.054 301.832 L518.054 294.135 Q522.186 296.282 526.196 297.376 Q530.206 298.429 534.136 298.429 Q539.402 298.429 542.238 296.647 Q545.073 294.824 545.073 291.542 Q545.073 288.504 543.007 286.884 Q540.982 285.264 534.055 283.765 L531.462 283.157 Q524.535 281.699 521.456 278.701 Q518.378 275.663 518.378 270.397 Q518.378 263.996 522.915 260.513 Q527.452 257.029 535.797 257.029 Q539.929 257.029 543.574 257.636 Q547.22 258.244 550.299 259.459 Z" fill="#000000" fill-rule="nonzero" fill-opacity="1" /><path clip-path="url(#clip040)" d="M582.504 240.542 Q577.075 249.859 574.442 258.973 Q571.809 268.088 571.809 277.445 Q571.809 286.803 574.442 295.998 Q577.116 305.153 582.504 314.43 L576.022 314.43 Q569.946 304.91 566.908 295.715 Q563.91 286.519 563.91 277.445 Q563.91 268.412 566.908 259.257 Q569.905 250.102 576.022 240.542 L582.504 240.542 Z" fill="#000000" fill-rule="nonzero" fill-opacity="1" /><path clip-path="url(#clip040)" d="M604.338 245.241 L604.338 258.122 L619.691 258.122 L619.691 263.915 L604.338 263.915 L604.338 288.545 Q604.338 294.095 605.837 295.674 Q607.376 297.254 612.035 297.254 L619.691 297.254 L619.691 303.493 L612.035 303.493 Q603.406 303.493 600.125 300.292 Q596.844 297.052 596.844 288.545 L596.844 263.915 L591.375 263.915 L591.375 258.122 L596.844 258.122 L596.844 245.241 L604.338 245.241 Z" fill="#000000" fill-rule="nonzero" fill-opacity="1" /><path clip-path="url(#clip040)" d="M628.319 240.542 L634.801 240.542 Q640.877 250.102 643.875 259.257 Q646.913 268.412 646.913 277.445 Q646.913 286.519 643.875 295.715 Q640.877 304.91 634.801 314.43 L628.319 314.43 Q633.707 305.153 636.34 295.998 Q639.014 286.803 639.014 277.445 Q639.014 268.088 636.34 258.973 Q633.707 249.859 628.319 240.542 Z" fill="#000000" fill-rule="nonzero" fill-opacity="1" /><path clip-path="url(#clip040)" d="M690.136 293.203 L698.684 293.203 L698.684 303.493 L690.136 303.493 L690.136 293.203 M690.136 260.594 L698.684 260.594 L698.684 270.883 L690.136 270.883 L690.136 260.594 Z" fill="#000000" fill-rule="nonzero" fill-opacity="1" /><path clip-path="url(#clip040)" d="M742.555 240.461 L750.008 240.461 L750.008 303.493 L742.555 303.493 L742.555 240.461 Z" fill="#000000" fill-rule="nonzero" fill-opacity="1" /><path clip-path="url(#clip040)" d="M786.224 280.686 Q777.19 280.686 773.706 282.752 Q770.222 284.818 770.222 289.801 Q770.222 293.77 772.815 296.12 Q775.448 298.429 779.945 298.429 Q786.143 298.429 789.869 294.054 Q793.637 289.639 793.637 282.347 L793.637 280.686 L786.224 280.686 M801.09 277.607 L801.09 303.493 L793.637 303.493 L793.637 296.606 Q791.085 300.738 787.277 302.723 Q783.469 304.667 777.96 304.667 Q770.992 304.667 766.86 300.779 Q762.769 296.849 762.769 290.287 Q762.769 282.63 767.873 278.742 Q773.018 274.853 783.185 274.853 L793.637 274.853 L793.637 274.124 Q793.637 268.979 790.234 266.184 Q786.872 263.348 780.755 263.348 Q776.866 263.348 773.18 264.28 Q769.493 265.212 766.091 267.075 L766.091 260.188 Q770.182 258.609 774.03 257.839 Q777.879 257.029 781.525 257.029 Q791.368 257.029 796.229 262.133 Q801.09 267.237 801.09 277.607 Z" fill="#000000" fill-rule="nonzero" fill-opacity="1" /><path clip-path="url(#clip040)" d="M823.816 245.241 L823.816 258.122 L839.169 258.122 L839.169 263.915 L823.816 263.915 L823.816 288.545 Q823.816 294.095 825.315 295.674 Q826.854 297.254 831.513 297.254 L839.169 297.254 L839.169 303.493 L831.513 303.493 Q822.884 303.493 819.603 300.292 Q816.322 297.052 816.322 288.545 L816.322 263.915 L810.853 263.915 L810.853 258.122 L816.322 258.122 L816.322 245.241 L823.816 245.241 Z" fill="#000000" fill-rule="nonzero" fill-opacity="1" /><path clip-path="url(#clip040)" d="M887.78 278.944 L887.78 282.59 L853.509 282.59 Q853.995 290.287 858.127 294.338 Q862.3 298.348 869.713 298.348 Q874.007 298.348 878.017 297.295 Q882.068 296.242 886.038 294.135 L886.038 301.184 Q882.027 302.885 877.815 303.776 Q873.602 304.667 869.267 304.667 Q858.411 304.667 852.051 298.348 Q845.731 292.029 845.731 281.253 Q845.731 270.113 851.727 263.591 Q857.763 257.029 867.971 257.029 Q877.126 257.029 882.433 262.943 Q887.78 268.817 887.78 278.944 M880.326 276.757 Q880.245 270.64 876.883 266.994 Q873.561 263.348 868.052 263.348 Q861.813 263.348 858.046 266.872 Q854.319 270.397 853.752 276.797 L880.326 276.757 Z" fill="#000000" fill-rule="nonzero" fill-opacity="1" /><path clip-path="url(#clip040)" d="M937.727 276.109 L937.727 303.493 L930.274 303.493 L930.274 276.352 Q930.274 269.911 927.762 266.71 Q925.251 263.51 920.227 263.51 Q914.192 263.51 910.708 267.359 Q907.224 271.207 907.224 277.85 L907.224 303.493 L899.73 303.493 L899.73 258.122 L907.224 258.122 L907.224 265.171 Q909.898 261.08 913.503 259.054 Q917.149 257.029 921.888 257.029 Q929.707 257.029 933.717 261.89 Q937.727 266.71 937.727 276.109 Z" fill="#000000" fill-rule="nonzero" fill-opacity="1" /><path clip-path="url(#clip040)" d="M959.967 245.241 L959.967 258.122 L975.32 258.122 L975.32 263.915 L959.967 263.915 L959.967 288.545 Q959.967 294.095 961.466 295.674 Q963.005 297.254 967.664 297.254 L975.32 297.254 L975.32 303.493 L967.664 303.493 Q959.035 303.493 955.754 300.292 Q952.473 297.052 952.473 288.545 L952.473 263.915 L947.004 263.915 L947.004 258.122 L952.473 258.122 L952.473 245.241 L959.967 245.241 Z" fill="#000000" fill-rule="nonzero" fill-opacity="1" /><path clip-path="url(#clip040)" d="M1040.42 259.459 L1040.42 266.508 Q1037.26 264.888 1033.86 264.077 Q1030.45 263.267 1026.81 263.267 Q1021.26 263.267 1018.46 264.969 Q1015.71 266.67 1015.71 270.073 Q1015.71 272.665 1017.69 274.164 Q1019.68 275.622 1025.67 276.959 L1028.22 277.526 Q1036.16 279.228 1039.49 282.347 Q1042.85 285.426 1042.85 290.975 Q1042.85 297.295 1037.83 300.981 Q1032.84 304.667 1024.09 304.667 Q1020.45 304.667 1016.48 303.938 Q1012.55 303.25 1008.17 301.832 L1008.17 294.135 Q1012.3 296.282 1016.31 297.376 Q1020.33 298.429 1024.25 298.429 Q1029.52 298.429 1032.36 296.647 Q1035.19 294.824 1035.19 291.542 Q1035.19 288.504 1033.13 286.884 Q1031.1 285.264 1024.17 283.765 L1021.58 283.157 Q1014.65 281.699 1011.58 278.701 Q1008.5 275.663 1008.5 270.397 Q1008.5 263.996 1013.03 260.513 Q1017.57 257.029 1025.92 257.029 Q1030.05 257.029 1033.69 257.636 Q1037.34 258.244 1040.42 259.459 Z" fill="#000000" fill-rule="nonzero" fill-opacity="1" /><path clip-path="url(#clip040)" d="M1054.72 258.122 L1062.17 258.122 L1062.17 303.493 L1054.72 303.493 L1054.72 258.122 M1054.72 240.461 L1062.17 240.461 L1062.17 249.899 L1054.72 249.899 L1054.72 240.461 Z" fill="#000000" fill-rule="nonzero" fill-opacity="1" /><path clip-path="url(#clip040)" d="M1107.62 280.281 Q1107.62 272.179 1104.26 267.723 Q1100.94 263.267 1094.9 263.267 Q1088.91 263.267 1085.54 267.723 Q1082.22 272.179 1082.22 280.281 Q1082.22 288.342 1085.54 292.798 Q1088.91 297.254 1094.9 297.254 Q1100.94 297.254 1104.26 292.798 Q1107.62 288.342 1107.62 280.281 M1115.08 297.862 Q1115.08 309.447 1109.93 315.078 Q1104.79 320.749 1094.17 320.749 Q1090.24 320.749 1086.76 320.142 Q1083.28 319.575 1080 318.359 L1080 311.108 Q1083.28 312.891 1086.48 313.741 Q1089.68 314.592 1093 314.592 Q1100.33 314.592 1103.98 310.744 Q1107.62 306.936 1107.62 299.199 L1107.62 295.512 Q1105.31 299.523 1101.71 301.508 Q1098.1 303.493 1093.08 303.493 Q1084.73 303.493 1079.63 297.133 Q1074.53 290.773 1074.53 280.281 Q1074.53 269.749 1079.63 263.389 Q1084.73 257.029 1093.08 257.029 Q1098.1 257.029 1101.71 259.014 Q1105.31 260.999 1107.62 265.009 L1107.62 258.122 L1115.08 258.122 L1115.08 297.862 Z" fill="#000000" fill-rule="nonzero" fill-opacity="1" /><path clip-path="url(#clip040)" d="M1168.14 276.109 L1168.14 303.493 L1160.69 303.493 L1160.69 276.352 Q1160.69 269.911 1158.18 266.71 Q1155.67 263.51 1150.64 263.51 Q1144.61 263.51 1141.12 267.359 Q1137.64 271.207 1137.64 277.85 L1137.64 303.493 L1130.15 303.493 L1130.15 258.122 L1137.64 258.122 L1137.64 265.171 Q1140.31 261.08 1143.92 259.054 Q1147.56 257.029 1152.3 257.029 Q1160.12 257.029 1164.13 261.89 Q1168.14 266.71 1168.14 276.109 Z" fill="#000000" fill-rule="nonzero" fill-opacity="1" /><path clip-path="url(#clip040)" d="M1203.63 280.686 Q1194.6 280.686 1191.11 282.752 Q1187.63 284.818 1187.63 289.801 Q1187.63 293.77 1190.22 296.12 Q1192.85 298.429 1197.35 298.429 Q1203.55 298.429 1207.27 294.054 Q1211.04 289.639 1211.04 282.347 L1211.04 280.686 L1203.63 280.686 M1218.5 277.607 L1218.5 303.493 L1211.04 303.493 L1211.04 296.606 Q1208.49 300.738 1204.68 302.723 Q1200.87 304.667 1195.36 304.667 Q1188.4 304.667 1184.27 300.779 Q1180.17 296.849 1180.17 290.287 Q1180.17 282.63 1185.28 278.742 Q1190.42 274.853 1200.59 274.853 L1211.04 274.853 L1211.04 274.124 Q1211.04 268.979 1207.64 266.184 Q1204.28 263.348 1198.16 263.348 Q1194.27 263.348 1190.58 264.28 Q1186.9 265.212 1183.5 267.075 L1183.5 260.188 Q1187.59 258.609 1191.44 257.839 Q1195.28 257.029 1198.93 257.029 Q1208.77 257.029 1213.63 262.133 Q1218.5 267.237 1218.5 277.607 Z" fill="#000000" fill-rule="nonzero" fill-opacity="1" /><path clip-path="url(#clip040)" d="M1233.85 240.461 L1241.3 240.461 L1241.3 303.493 L1233.85 303.493 L1233.85 240.461 Z" fill="#000000" fill-rule="nonzero" fill-opacity="1" /><polyline clip-path="url(#clip040)" style="stroke:#ff0000; stroke-linecap:round; stroke-linejoin:round; stroke-width:14; stroke-opacity:1; fill:none" points="355.485,363.973 494.83,363.973 "/>
<path clip-path="url(#clip040)" d="M518.054 333.733 L552.81 333.733 L552.81 340.619 L526.237 340.619 L526.237 358.443 L550.218 358.443 L550.218 365.33 L526.237 365.33 L526.237 394.213 L518.054 394.213 L518.054 333.733 Z" fill="#000000" fill-rule="nonzero" fill-opacity="1" /><path clip-path="url(#clip040)" d="M559.413 348.842 L566.867 348.842 L566.867 394.213 L559.413 394.213 L559.413 348.842 M559.413 331.181 L566.867 331.181 L566.867 340.619 L559.413 340.619 L559.413 331.181 Z" fill="#000000" fill-rule="nonzero" fill-opacity="1" /><path clip-path="url(#clip040)" d="M589.836 335.961 L589.836 348.842 L605.189 348.842 L605.189 354.635 L589.836 354.635 L589.836 379.265 Q589.836 384.815 591.335 386.394 Q592.874 387.974 597.532 387.974 L605.189 387.974 L605.189 394.213 L597.532 394.213 Q588.904 394.213 585.623 391.012 Q582.342 387.772 582.342 379.265 L582.342 354.635 L576.873 354.635 L576.873 348.842 L582.342 348.842 L582.342 335.961 L589.836 335.961 Z" fill="#000000" fill-rule="nonzero" fill-opacity="1" /><path clip-path="url(#clip040)" d="M664.899 340.862 L644.239 373.148 L664.899 373.148 L664.899 340.862 M662.752 333.733 L673.041 333.733 L673.041 373.148 L681.67 373.148 L681.67 379.953 L673.041 379.953 L673.041 394.213 L664.899 394.213 L664.899 379.953 L637.596 379.953 L637.596 372.054 L662.752 333.733 Z" fill="#000000" fill-rule="nonzero" fill-opacity="1" /><path clip-path="url(#clip040)" d="M738.099 354.068 Q732.103 354.068 728.62 358.767 Q725.136 363.426 725.136 371.568 Q725.136 379.71 728.579 384.409 Q732.063 389.068 738.099 389.068 Q744.054 389.068 747.537 384.369 Q751.021 379.67 751.021 371.568 Q751.021 363.507 747.537 358.808 Q744.054 354.068 738.099 354.068 M738.099 347.749 Q747.821 347.749 753.371 354.068 Q758.92 360.388 758.92 371.568 Q758.92 382.708 753.371 389.068 Q747.821 395.387 738.099 395.387 Q728.336 395.387 722.786 389.068 Q717.277 382.708 717.277 371.568 Q717.277 360.388 722.786 354.068 Q728.336 347.749 738.099 347.749 Z" fill="#000000" fill-rule="nonzero" fill-opacity="1" /><path clip-path="url(#clip040)" d="M794.244 331.181 L794.244 337.378 L787.115 337.378 Q783.104 337.378 781.525 338.999 Q779.985 340.619 779.985 344.832 L779.985 348.842 L792.259 348.842 L792.259 354.635 L779.985 354.635 L779.985 394.213 L772.491 394.213 L772.491 354.635 L765.361 354.635 L765.361 348.842 L772.491 348.842 L772.491 345.683 Q772.491 338.108 776.015 334.664 Q779.54 331.181 787.196 331.181 L794.244 331.181 Z" fill="#000000" fill-rule="nonzero" fill-opacity="1" /><path clip-path="url(#clip040)" d="M829.325 387.326 L842.693 387.326 L842.693 341.186 L828.15 344.103 L828.15 336.649 L842.612 333.733 L850.795 333.733 L850.795 387.326 L864.163 387.326 L864.163 394.213 L829.325 394.213 L829.325 387.326 Z" fill="#000000" fill-rule="nonzero" fill-opacity="1" /><path clip-path="url(#clip040)" d="M880.772 333.733 L912.895 333.733 L912.895 340.619 L888.266 340.619 L888.266 355.445 Q890.048 354.838 891.831 354.554 Q893.613 354.23 895.395 354.23 Q905.523 354.23 911.437 359.78 Q917.351 365.33 917.351 374.809 Q917.351 384.571 911.275 390 Q905.199 395.387 894.14 395.387 Q890.332 395.387 886.362 394.739 Q882.433 394.091 878.22 392.795 L878.22 384.571 Q881.865 386.556 885.754 387.529 Q889.643 388.501 893.978 388.501 Q900.986 388.501 905.077 384.815 Q909.169 381.128 909.169 374.809 Q909.169 368.489 905.077 364.803 Q900.986 361.117 893.978 361.117 Q890.696 361.117 887.415 361.846 Q884.174 362.575 880.772 364.114 L880.772 333.733 Z" fill="#000000" fill-rule="nonzero" fill-opacity="1" /><path clip-path="url(#clip040)" d="M966.003 387.407 L966.003 411.469 L958.509 411.469 L958.509 348.842 L966.003 348.842 L966.003 355.729 Q968.352 351.678 971.917 349.734 Q975.522 347.749 980.505 347.749 Q988.769 347.749 993.913 354.311 Q999.099 360.874 999.099 371.568 Q999.099 382.262 993.913 388.825 Q988.769 395.387 980.505 395.387 Q975.522 395.387 971.917 393.443 Q968.352 391.458 966.003 387.407 M991.361 371.568 Q991.361 363.345 987.959 358.686 Q984.596 353.987 978.682 353.987 Q972.768 353.987 969.365 358.686 Q966.003 363.345 966.003 371.568 Q966.003 379.791 969.365 384.49 Q972.768 389.149 978.682 389.149 Q984.596 389.149 987.959 384.49 Q991.361 379.791 991.361 371.568 Z" fill="#000000" fill-rule="nonzero" fill-opacity="1" /><path clip-path="url(#clip040)" d="M1029.03 354.068 Q1023.04 354.068 1019.56 358.767 Q1016.07 363.426 1016.07 371.568 Q1016.07 379.71 1019.52 384.409 Q1023 389.068 1029.03 389.068 Q1034.99 389.068 1038.47 384.369 Q1041.96 379.67 1041.96 371.568 Q1041.96 363.507 1038.47 358.808 Q1034.99 354.068 1029.03 354.068 M1029.03 347.749 Q1038.76 347.749 1044.31 354.068 Q1049.86 360.388 1049.86 371.568 Q1049.86 382.708 1044.31 389.068 Q1038.76 395.387 1029.03 395.387 Q1019.27 395.387 1013.72 389.068 Q1008.21 382.708 1008.21 371.568 Q1008.21 360.388 1013.72 354.068 Q1019.27 347.749 1029.03 347.749 Z" fill="#000000" fill-rule="nonzero" fill-opacity="1" /><path clip-path="url(#clip040)" d="M1062.21 348.842 L1069.67 348.842 L1069.67 394.213 L1062.21 394.213 L1062.21 348.842 M1062.21 331.181 L1069.67 331.181 L1069.67 340.619 L1062.21 340.619 L1062.21 331.181 Z" fill="#000000" fill-rule="nonzero" fill-opacity="1" /><path clip-path="url(#clip040)" d="M1122.98 366.829 L1122.98 394.213 L1115.52 394.213 L1115.52 367.072 Q1115.52 360.631 1113.01 357.43 Q1110.5 354.23 1105.48 354.23 Q1099.44 354.23 1095.96 358.079 Q1092.47 361.927 1092.47 368.57 L1092.47 394.213 L1084.98 394.213 L1084.98 348.842 L1092.47 348.842 L1092.47 355.891 Q1095.15 351.8 1098.75 349.774 Q1102.4 347.749 1107.14 347.749 Q1114.95 347.749 1118.96 352.61 Q1122.98 357.43 1122.98 366.829 Z" fill="#000000" fill-rule="nonzero" fill-opacity="1" /><path clip-path="url(#clip040)" d="M1145.21 335.961 L1145.21 348.842 L1160.57 348.842 L1160.57 354.635 L1145.21 354.635 L1145.21 379.265 Q1145.21 384.815 1146.71 386.394 Q1148.25 387.974 1152.91 387.974 L1160.57 387.974 L1160.57 394.213 L1152.91 394.213 Q1144.28 394.213 1141 391.012 Q1137.72 387.772 1137.72 379.265 L1137.72 354.635 L1132.25 354.635 L1132.25 348.842 L1137.72 348.842 L1137.72 335.961 L1145.21 335.961 Z" fill="#000000" fill-rule="nonzero" fill-opacity="1" /><path clip-path="url(#clip040)" d="M1199.29 350.179 L1199.29 357.228 Q1196.13 355.608 1192.73 354.797 Q1189.33 353.987 1185.68 353.987 Q1180.13 353.987 1177.34 355.689 Q1174.58 357.39 1174.58 360.793 Q1174.58 363.385 1176.57 364.884 Q1178.55 366.342 1184.55 367.679 L1187.1 368.246 Q1195.04 369.948 1198.36 373.067 Q1201.72 376.146 1201.72 381.695 Q1201.72 388.015 1196.7 391.701 Q1191.72 395.387 1182.97 395.387 Q1179.32 395.387 1175.35 394.658 Q1171.42 393.97 1167.05 392.552 L1167.05 384.855 Q1171.18 387.002 1175.19 388.096 Q1179.2 389.149 1183.13 389.149 Q1188.4 389.149 1191.23 387.367 Q1194.07 385.544 1194.07 382.262 Q1194.07 379.224 1192 377.604 Q1189.98 375.984 1183.05 374.485 L1180.46 373.877 Q1173.53 372.419 1170.45 369.421 Q1167.37 366.383 1167.37 361.117 Q1167.37 354.716 1171.91 351.233 Q1176.45 347.749 1184.79 347.749 Q1188.92 347.749 1192.57 348.356 Q1196.22 348.964 1199.29 350.179 Z" fill="#000000" fill-rule="nonzero" fill-opacity="1" /><polyline clip-path="url(#clip040)" style="stroke:#ffa500; stroke-linecap:round; stroke-linejoin:round; stroke-width:14; stroke-opacity:1; fill:none" points="355.485,454.693 494.83,454.693 "/>
<path clip-path="url(#clip040)" d="M518.054 424.453 L552.81 424.453 L552.81 431.339 L526.237 431.339 L526.237 449.163 L550.218 449.163 L550.218 456.05 L526.237 456.05 L526.237 484.933 L518.054 484.933 L518.054 424.453 Z" fill="#000000" fill-rule="nonzero" fill-opacity="1" /><path clip-path="url(#clip040)" d="M559.413 439.562 L566.867 439.562 L566.867 484.933 L559.413 484.933 L559.413 439.562 M559.413 421.901 L566.867 421.901 L566.867 431.339 L559.413 431.339 L559.413 421.901 Z" fill="#000000" fill-rule="nonzero" fill-opacity="1" /><path clip-path="url(#clip040)" d="M589.836 426.681 L589.836 439.562 L605.189 439.562 L605.189 445.355 L589.836 445.355 L589.836 469.985 Q589.836 475.535 591.335 477.114 Q592.874 478.694 597.532 478.694 L605.189 478.694 L605.189 484.933 L597.532 484.933 Q588.904 484.933 585.623 481.732 Q582.342 478.492 582.342 469.985 L582.342 445.355 L576.873 445.355 L576.873 439.562 L582.342 439.562 L582.342 426.681 L589.836 426.681 Z" fill="#000000" fill-rule="nonzero" fill-opacity="1" /><path clip-path="url(#clip040)" d="M674.014 441.304 L674.014 448.272 Q670.854 446.53 667.654 445.679 Q664.494 444.788 661.253 444.788 Q654.002 444.788 649.992 449.406 Q645.981 453.984 645.981 462.288 Q645.981 470.592 649.992 475.21 Q654.002 479.788 661.253 479.788 Q664.494 479.788 667.654 478.937 Q670.854 478.046 674.014 476.304 L674.014 483.191 Q670.894 484.649 667.532 485.378 Q664.21 486.107 660.443 486.107 Q650.194 486.107 644.158 479.666 Q638.123 473.226 638.123 462.288 Q638.123 451.189 644.199 444.829 Q650.316 438.469 660.929 438.469 Q664.372 438.469 667.654 439.198 Q670.935 439.887 674.014 441.304 Z" fill="#000000" fill-rule="nonzero" fill-opacity="1" /><path clip-path="url(#clip040)" d="M686.207 467.028 L686.207 439.562 L693.66 439.562 L693.66 466.744 Q693.66 473.185 696.172 476.426 Q698.684 479.626 703.707 479.626 Q709.742 479.626 713.226 475.778 Q716.751 471.929 716.751 465.286 L716.751 439.562 L724.204 439.562 L724.204 484.933 L716.751 484.933 L716.751 477.965 Q714.036 482.097 710.431 484.122 Q706.866 486.107 702.127 486.107 Q694.309 486.107 690.258 481.246 Q686.207 476.385 686.207 467.028 M704.962 438.469 L704.962 438.469 Z" fill="#000000" fill-rule="nonzero" fill-opacity="1" /><path clip-path="url(#clip040)" d="M772.126 462.288 Q772.126 454.065 768.724 449.406 Q765.361 444.707 759.447 444.707 Q753.533 444.707 750.13 449.406 Q746.768 454.065 746.768 462.288 Q746.768 470.511 750.13 475.21 Q753.533 479.869 759.447 479.869 Q765.361 479.869 768.724 475.21 Q772.126 470.511 772.126 462.288 M746.768 446.449 Q749.117 442.398 752.682 440.454 Q756.287 438.469 761.27 438.469 Q769.534 438.469 774.678 445.031 Q779.864 451.594 779.864 462.288 Q779.864 472.982 774.678 479.545 Q769.534 486.107 761.27 486.107 Q756.287 486.107 752.682 484.163 Q749.117 482.178 746.768 478.127 L746.768 484.933 L739.274 484.933 L739.274 421.901 L746.768 421.901 L746.768 446.449 Z" fill="#000000" fill-rule="nonzero" fill-opacity="1" /><path clip-path="url(#clip040)" d="M792.219 439.562 L799.673 439.562 L799.673 484.933 L792.219 484.933 L792.219 439.562 M792.219 421.901 L799.673 421.901 L799.673 431.339 L792.219 431.339 L792.219 421.901 Z" fill="#000000" fill-rule="nonzero" fill-opacity="1" /><path clip-path="url(#clip040)" d="M847.919 441.304 L847.919 448.272 Q844.759 446.53 841.559 445.679 Q838.399 444.788 835.158 444.788 Q827.907 444.788 823.897 449.406 Q819.887 453.984 819.887 462.288 Q819.887 470.592 823.897 475.21 Q827.907 479.788 835.158 479.788 Q838.399 479.788 841.559 478.937 Q844.759 478.046 847.919 476.304 L847.919 483.191 Q844.8 484.649 841.437 485.378 Q838.116 486.107 834.348 486.107 Q824.1 486.107 818.064 479.666 Q812.028 473.226 812.028 462.288 Q812.028 451.189 818.104 444.829 Q824.221 438.469 834.834 438.469 Q838.278 438.469 841.559 439.198 Q844.84 439.887 847.919 441.304 Z" fill="#000000" fill-rule="nonzero" fill-opacity="1" /><path clip-path="url(#clip040)" d="M894.626 426.681 L894.626 439.562 L909.979 439.562 L909.979 445.355 L894.626 445.355 L894.626 469.985 Q894.626 475.535 896.125 477.114 Q897.664 478.694 902.322 478.694 L909.979 478.694 L909.979 484.933 L902.322 484.933 Q893.694 484.933 890.413 481.732 Q887.132 478.492 887.132 469.985 L887.132 445.355 L881.663 445.355 L881.663 439.562 L887.132 439.562 L887.132 426.681 L894.626 426.681 Z" fill="#000000" fill-rule="nonzero" fill-opacity="1" /><path clip-path="url(#clip040)" d="M937.363 444.788 Q931.367 444.788 927.884 449.487 Q924.4 454.146 924.4 462.288 Q924.4 470.43 927.843 475.129 Q931.327 479.788 937.363 479.788 Q943.318 479.788 946.801 475.089 Q950.285 470.39 950.285 462.288 Q950.285 454.227 946.801 449.528 Q943.318 444.788 937.363 444.788 M937.363 438.469 Q947.085 438.469 952.635 444.788 Q958.184 451.108 958.184 462.288 Q958.184 473.428 952.635 479.788 Q947.085 486.107 937.363 486.107 Q927.6 486.107 922.05 479.788 Q916.541 473.428 916.541 462.288 Q916.541 451.108 922.05 444.788 Q927.6 438.469 937.363 438.469 Z" fill="#000000" fill-rule="nonzero" fill-opacity="1" /><path clip-path="url(#clip040)" d="M997.235 424.453 L1009.43 424.453 L1024.86 465.61 L1040.38 424.453 L1052.57 424.453 L1052.57 484.933 L1044.59 484.933 L1044.59 431.825 L1028.99 473.307 L1020.77 473.307 L1005.17 431.825 L1005.17 484.933 L997.235 484.933 L997.235 424.453 Z" fill="#000000" fill-rule="nonzero" fill-opacity="1" /><path clip-path="url(#clip040)" d="M1069.46 447.259 L1121.4 447.259 L1121.4 454.065 L1069.46 454.065 L1069.46 447.259 M1069.46 463.787 L1121.4 463.787 L1121.4 470.673 L1069.46 470.673 L1069.46 463.787 Z" fill="#000000" fill-rule="nonzero" fill-opacity="1" /><path clip-path="url(#clip040)" d="M1140.48 478.046 L1153.84 478.046 L1153.84 431.906 L1139.3 434.823 L1139.3 427.369 L1153.76 424.453 L1161.94 424.453 L1161.94 478.046 L1175.31 478.046 L1175.31 484.933 L1140.48 484.933 L1140.48 478.046 Z" fill="#000000" fill-rule="nonzero" fill-opacity="1" /><path clip-path="url(#clip040)" d="M1191.92 424.453 L1224.05 424.453 L1224.05 431.339 L1199.42 431.339 L1199.42 446.165 Q1201.2 445.558 1202.98 445.274 Q1204.76 444.95 1206.55 444.95 Q1216.67 444.95 1222.59 450.5 Q1228.5 456.05 1228.5 465.529 Q1228.5 475.291 1222.42 480.72 Q1216.35 486.107 1205.29 486.107 Q1201.48 486.107 1197.51 485.459 Q1193.58 484.811 1189.37 483.515 L1189.37 475.291 Q1193.02 477.276 1196.9 478.249 Q1200.79 479.221 1205.13 479.221 Q1212.14 479.221 1216.23 475.535 Q1220.32 471.848 1220.32 465.529 Q1220.32 459.209 1216.23 455.523 Q1212.14 451.837 1205.13 451.837 Q1201.85 451.837 1198.57 452.566 Q1195.32 453.295 1191.92 454.834 L1191.92 424.453 Z" fill="#000000" fill-rule="nonzero" fill-opacity="1" /><path clip-path="url(#clip040)" d="M1277.15 478.127 L1277.15 502.189 L1269.66 502.189 L1269.66 439.562 L1277.15 439.562 L1277.15 446.449 Q1279.5 442.398 1283.07 440.454 Q1286.67 438.469 1291.65 438.469 Q1299.92 438.469 1305.06 445.031 Q1310.25 451.594 1310.25 462.288 Q1310.25 472.982 1305.06 479.545 Q1299.92 486.107 1291.65 486.107 Q1286.67 486.107 1283.07 484.163 Q1279.5 482.178 1277.15 478.127 M1302.51 462.288 Q1302.51 454.065 1299.11 449.406 Q1295.75 444.707 1289.83 444.707 Q1283.92 444.707 1280.51 449.406 Q1277.15 454.065 1277.15 462.288 Q1277.15 470.511 1280.51 475.21 Q1283.92 479.869 1289.83 479.869 Q1295.75 479.869 1299.11 475.21 Q1302.51 470.511 1302.51 462.288 Z" fill="#000000" fill-rule="nonzero" fill-opacity="1" /><path clip-path="url(#clip040)" d="M1340.18 444.788 Q1334.19 444.788 1330.71 449.487 Q1327.22 454.146 1327.22 462.288 Q1327.22 470.43 1330.67 475.129 Q1334.15 479.788 1340.18 479.788 Q1346.14 479.788 1349.62 475.089 Q1353.11 470.39 1353.11 462.288 Q1353.11 454.227 1349.62 449.528 Q1346.14 444.788 1340.18 444.788 M1340.18 438.469 Q1349.91 438.469 1355.46 444.788 Q1361.01 451.108 1361.01 462.288 Q1361.01 473.428 1355.46 479.788 Q1349.91 486.107 1340.18 486.107 Q1330.42 486.107 1324.87 479.788 Q1319.36 473.428 1319.36 462.288 Q1319.36 451.108 1324.87 444.788 Q1330.42 438.469 1340.18 438.469 Z" fill="#000000" fill-rule="nonzero" fill-opacity="1" /><path clip-path="url(#clip040)" d="M1373.36 439.562 L1380.82 439.562 L1380.82 484.933 L1373.36 484.933 L1373.36 439.562 M1373.36 421.901 L1380.82 421.901 L1380.82 431.339 L1373.36 431.339 L1373.36 421.901 Z" fill="#000000" fill-rule="nonzero" fill-opacity="1" /><path clip-path="url(#clip040)" d="M1434.13 457.549 L1434.13 484.933 L1426.67 484.933 L1426.67 457.792 Q1426.67 451.351 1424.16 448.15 Q1421.65 444.95 1416.63 444.95 Q1410.59 444.95 1407.11 448.799 Q1403.62 452.647 1403.62 459.29 L1403.62 484.933 L1396.13 484.933 L1396.13 439.562 L1403.62 439.562 L1403.62 446.611 Q1406.3 442.52 1409.9 440.494 Q1413.55 438.469 1418.29 438.469 Q1426.1 438.469 1430.11 443.33 Q1434.13 448.15 1434.13 457.549 Z" fill="#000000" fill-rule="nonzero" fill-opacity="1" /><path clip-path="url(#clip040)" d="M1456.36 426.681 L1456.36 439.562 L1471.72 439.562 L1471.72 445.355 L1456.36 445.355 L1456.36 469.985 Q1456.36 475.535 1457.86 477.114 Q1459.4 478.694 1464.06 478.694 L1471.72 478.694 L1471.72 484.933 L1464.06 484.933 Q1455.43 484.933 1452.15 481.732 Q1448.87 478.492 1448.87 469.985 L1448.87 445.355 L1443.4 445.355 L1443.4 439.562 L1448.87 439.562 L1448.87 426.681 L1456.36 426.681 Z" fill="#000000" fill-rule="nonzero" fill-opacity="1" /><path clip-path="url(#clip040)" d="M1510.44 440.899 L1510.44 447.948 Q1507.28 446.328 1503.88 445.517 Q1500.48 444.707 1496.83 444.707 Q1491.28 444.707 1488.49 446.409 Q1485.73 448.11 1485.73 451.513 Q1485.73 454.105 1487.72 455.604 Q1489.7 457.062 1495.7 458.399 L1498.25 458.966 Q1506.19 460.668 1509.51 463.787 Q1512.87 466.866 1512.87 472.415 Q1512.87 478.735 1507.85 482.421 Q1502.87 486.107 1494.12 486.107 Q1490.47 486.107 1486.5 485.378 Q1482.57 484.69 1478.2 483.272 L1478.2 475.575 Q1482.33 477.722 1486.34 478.816 Q1490.35 479.869 1494.28 479.869 Q1499.55 479.869 1502.38 478.087 Q1505.22 476.264 1505.22 472.982 Q1505.22 469.944 1503.15 468.324 Q1501.13 466.704 1494.2 465.205 L1491.61 464.597 Q1484.68 463.139 1481.6 460.141 Q1478.52 457.103 1478.52 451.837 Q1478.52 445.436 1483.06 441.953 Q1487.6 438.469 1495.94 438.469 Q1500.07 438.469 1503.72 439.076 Q1507.37 439.684 1510.44 440.899 Z" fill="#000000" fill-rule="nonzero" fill-opacity="1" /></svg>
