<?xml version="1.0" encoding="utf-8"?>
<svg xmlns="http://www.w3.org/2000/svg" xmlns:xlink="http://www.w3.org/1999/xlink" width="600" height="350" viewBox="0 0 2400 1400">
<defs>
  <clipPath id="clip410">
    <rect x="0" y="0" width="2400" height="1400"/>
  </clipPath>
</defs>
<path clip-path="url(#clip410)" d="M0 1400 L2400 1400 L2400 0 L0 0  Z" fill="#ffffff" fill-rule="evenodd" fill-opacity="1"/>
<defs>
  <clipPath id="clip411">
    <rect x="386" y="131" width="1967" height="969"/>
  </clipPath>
</defs>
<path clip-path="url(#clip410)" d="M386.502 1099.37 L2352.76 1099.37 L2352.76 131.032 L386.502 131.032  Z" fill="#ffffff" fill-rule="evenodd" fill-opacity="1"/>
<polyline clip-path="url(#clip411)" style="stroke:#000000; stroke-linecap:round; stroke-linejoin:round; stroke-width:2; stroke-opacity:0.1; fill:none" points="442.151,1099.37 442.151,131.032 "/>
<polyline clip-path="url(#clip411)" style="stroke:#000000; stroke-linecap:round; stroke-linejoin:round; stroke-width:2; stroke-opacity:0.1; fill:none" points="512.149,1099.37 512.149,131.032 "/>
<polyline clip-path="url(#clip411)" style="stroke:#000000; stroke-linecap:round; stroke-linejoin:round; stroke-width:2; stroke-opacity:0.1; fill:none" points="617.146,1099.37 617.146,131.032 "/>
<polyline clip-path="url(#clip411)" style="stroke:#000000; stroke-linecap:round; stroke-linejoin:round; stroke-width:2; stroke-opacity:0.1; fill:none" points="2297.11,1099.37 2297.11,131.032 "/>
<polyline clip-path="url(#clip411)" style="stroke:#000000; stroke-linecap:round; stroke-linejoin:round; stroke-width:2; stroke-opacity:0.1; fill:none" points="386.502,1071.96 2352.76,1071.96 "/>
<polyline clip-path="url(#clip411)" style="stroke:#000000; stroke-linecap:round; stroke-linejoin:round; stroke-width:2; stroke-opacity:0.1; fill:none" points="386.502,869.601 2352.76,869.601 "/>
<polyline clip-path="url(#clip411)" style="stroke:#000000; stroke-linecap:round; stroke-linejoin:round; stroke-width:2; stroke-opacity:0.1; fill:none" points="386.502,667.24 2352.76,667.24 "/>
<polyline clip-path="url(#clip411)" style="stroke:#000000; stroke-linecap:round; stroke-linejoin:round; stroke-width:2; stroke-opacity:0.1; fill:none" points="386.502,464.879 2352.76,464.879 "/>
<polyline clip-path="url(#clip411)" style="stroke:#000000; stroke-linecap:round; stroke-linejoin:round; stroke-width:2; stroke-opacity:0.1; fill:none" points="386.502,262.518 2352.76,262.518 "/>
<polyline clip-path="url(#clip410)" style="stroke:#000000; stroke-linecap:round; stroke-linejoin:round; stroke-width:4; stroke-opacity:1; fill:none" points="386.502,1099.37 2352.76,1099.37 "/>
<polyline clip-path="url(#clip410)" style="stroke:#000000; stroke-linecap:round; stroke-linejoin:round; stroke-width:4; stroke-opacity:1; fill:none" points="442.151,1099.37 442.151,1080.47 "/>
<polyline clip-path="url(#clip410)" style="stroke:#000000; stroke-linecap:round; stroke-linejoin:round; stroke-width:4; stroke-opacity:1; fill:none" points="512.149,1099.37 512.149,1080.47 "/>
<polyline clip-path="url(#clip410)" style="stroke:#000000; stroke-linecap:round; stroke-linejoin:round; stroke-width:4; stroke-opacity:1; fill:none" points="617.146,1099.37 617.146,1080.47 "/>
<polyline clip-path="url(#clip410)" style="stroke:#000000; stroke-linecap:round; stroke-linejoin:round; stroke-width:4; stroke-opacity:1; fill:none" points="2297.11,1099.37 2297.11,1080.47 "/>
<path clip-path="url(#clip410)" d="M425.319 1187.28 L438.687 1187.28 L438.687 1141.14 L424.144 1144.06 L424.144 1136.6 L438.606 1133.69 L446.789 1133.69 L446.789 1187.28 L460.157 1187.28 L460.157 1194.17 L425.319 1194.17 L425.319 1187.28 Z" fill="#000000" fill-rule="nonzero" fill-opacity="1" /><path clip-path="url(#clip410)" d="M519.582 1161.56 Q525.456 1162.81 528.737 1166.78 Q532.059 1170.75 532.059 1176.59 Q532.059 1185.54 525.902 1190.44 Q519.744 1195.34 508.402 1195.34 Q504.594 1195.34 500.543 1194.57 Q496.533 1193.84 492.239 1192.34 L492.239 1184.45 Q495.641 1186.43 499.692 1187.44 Q503.743 1188.46 508.159 1188.46 Q515.855 1188.46 519.866 1185.42 Q523.917 1182.38 523.917 1176.59 Q523.917 1171.24 520.149 1168.24 Q516.423 1165.2 509.739 1165.2 L502.69 1165.2 L502.69 1158.48 L510.063 1158.48 Q516.099 1158.48 519.299 1156.09 Q522.499 1153.66 522.499 1149.12 Q522.499 1144.46 519.177 1141.99 Q515.896 1139.48 509.739 1139.48 Q506.376 1139.48 502.528 1140.21 Q498.68 1140.94 494.062 1142.48 L494.062 1135.19 Q498.72 1133.89 502.771 1133.24 Q506.862 1132.59 510.468 1132.59 Q519.785 1132.59 525.213 1136.85 Q530.641 1141.06 530.641 1148.27 Q530.641 1153.29 527.765 1156.78 Q524.889 1160.22 519.582 1161.56 Z" fill="#000000" fill-rule="nonzero" fill-opacity="1" /><path clip-path="url(#clip410)" d="M617.855 1160.67 Q612.346 1160.67 609.105 1164.43 Q605.905 1168.2 605.905 1174.76 Q605.905 1181.29 609.105 1185.09 Q612.346 1188.86 617.855 1188.86 Q623.365 1188.86 626.565 1185.09 Q629.806 1181.29 629.806 1174.76 Q629.806 1168.2 626.565 1164.43 Q623.365 1160.67 617.855 1160.67 M634.099 1135.02 L634.099 1142.48 Q631.021 1141.02 627.861 1140.25 Q624.742 1139.48 621.663 1139.48 Q613.561 1139.48 609.267 1144.95 Q605.014 1150.42 604.406 1161.48 Q606.796 1157.95 610.402 1156.09 Q614.007 1154.19 618.341 1154.19 Q627.456 1154.19 632.722 1159.74 Q638.029 1165.24 638.029 1174.76 Q638.029 1184.08 632.52 1189.71 Q627.01 1195.34 617.855 1195.34 Q607.364 1195.34 601.814 1187.32 Q596.264 1179.26 596.264 1163.99 Q596.264 1149.65 603.07 1141.14 Q609.875 1132.59 621.339 1132.59 Q624.418 1132.59 627.537 1133.2 Q630.697 1133.81 634.099 1135.02 Z" fill="#000000" fill-rule="nonzero" fill-opacity="1" /><path clip-path="url(#clip410)" d="M2252.41 1133.69 L2284.53 1133.69 L2284.53 1140.57 L2259.9 1140.57 L2259.9 1155.4 Q2261.68 1154.79 2263.46 1154.51 Q2265.25 1154.19 2267.03 1154.19 Q2277.16 1154.19 2283.07 1159.74 Q2288.99 1165.28 2288.99 1174.76 Q2288.99 1184.53 2282.91 1189.95 Q2276.83 1195.34 2265.77 1195.34 Q2261.97 1195.34 2258 1194.69 Q2254.07 1194.05 2249.85 1192.75 L2249.85 1184.53 Q2253.5 1186.51 2257.39 1187.48 Q2261.28 1188.46 2265.61 1188.46 Q2272.62 1188.46 2276.71 1184.77 Q2280.8 1181.08 2280.8 1174.76 Q2280.8 1168.44 2276.71 1164.76 Q2272.62 1161.07 2265.61 1161.07 Q2262.33 1161.07 2259.05 1161.8 Q2255.81 1162.53 2252.41 1164.07 L2252.41 1133.69 Z" fill="#000000" fill-rule="nonzero" fill-opacity="1" /><path clip-path="url(#clip410)" d="M2327.59 1140.82 L2306.93 1173.1 L2327.59 1173.1 L2327.59 1140.82 M2325.44 1133.69 L2335.73 1133.69 L2335.73 1173.1 L2344.36 1173.1 L2344.36 1179.91 L2335.73 1179.91 L2335.73 1194.17 L2327.59 1194.17 L2327.59 1179.91 L2300.29 1179.91 L2300.29 1172.01 L2325.44 1133.69 Z" fill="#000000" fill-rule="nonzero" fill-opacity="1" /><path clip-path="url(#clip410)" d="M1397.64 1282.42 Q1397.64 1286.42 1395.18 1288.81 Q1392.79 1291.2 1389.77 1291.2 Q1387.1 1291.2 1385.69 1289.65 Q1384.29 1288.11 1384.29 1286.14 Q1384.29 1285.3 1384.64 1284.24 Q1384.99 1283.12 1385.76 1281.78 Q1386.61 1280.45 1388.36 1279.47 Q1390.12 1278.48 1392.51 1278.34 Q1392.02 1277.85 1391.88 1277.78 Q1390.82 1276.94 1388.85 1276.65 Q1388.57 1276.51 1387.59 1276.51 Q1382.74 1276.51 1377.82 1280.1 Q1372.97 1283.61 1367 1290.29 Q1359.48 1298.09 1354.63 1300.97 Q1375.92 1303.78 1375.92 1316.07 Q1375.92 1318.11 1375.36 1320.57 Q1374.24 1325.21 1374.24 1328.58 Q1374.24 1335.33 1378.81 1335.33 Q1383.23 1335.33 1386.04 1330.83 Q1388.92 1326.33 1391.31 1317.55 Q1391.66 1315.93 1392.02 1315.44 Q1392.37 1314.95 1393.35 1314.95 Q1395.11 1314.95 1395.11 1316.36 Q1393.49 1324.58 1389.91 1330.9 Q1385.34 1338.56 1378.52 1338.56 Q1372.83 1338.56 1369.04 1334.63 Q1365.31 1330.62 1365.31 1324.3 Q1365.31 1322.75 1365.88 1319.24 Q1366.3 1317.83 1366.3 1316.22 Q1366.3 1312.91 1364.47 1310.45 Q1362.64 1307.92 1359.69 1306.66 Q1356.74 1305.39 1354.28 1304.83 Q1351.89 1304.2 1349.57 1303.99 Q1342.55 1333.71 1341.56 1335.54 Q1340.93 1336.8 1339.53 1337.65 Q1338.12 1338.56 1336.65 1338.56 Q1335.24 1338.56 1333.83 1337.58 Q1332.5 1336.66 1332.5 1334.48 Q1332.5 1333.36 1333.06 1331.32 L1353.93 1248.41 L1354.35 1245.6 Q1354.35 1244.75 1354 1244.33 Q1353.72 1243.84 1352.03 1243.49 Q1350.42 1243.14 1347.19 1243.14 Q1345.85 1243.14 1345.22 1243.07 Q1344.66 1243 1344.16 1242.65 Q1343.67 1242.22 1343.67 1241.38 Q1343.67 1240.19 1344.16 1239.55 Q1344.73 1238.85 1345.15 1238.71 Q1345.57 1238.57 1346.41 1238.5 Q1347.61 1238.43 1351.61 1238.08 Q1355.62 1237.66 1359.06 1237.38 Q1362.5 1237.09 1363.98 1237.09 Q1364.82 1237.09 1365.24 1237.52 Q1365.74 1237.87 1365.81 1238.29 L1365.88 1238.64 L1350.91 1299.35 Q1357.09 1296.89 1366.86 1286 Q1378.17 1273.35 1387.87 1273.35 Q1392.44 1273.35 1395.04 1276.16 Q1397.64 1278.9 1397.64 1282.42 Z" fill="#000000" fill-rule="nonzero" fill-opacity="1" /><polyline clip-path="url(#clip410)" style="stroke:#000000; stroke-linecap:round; stroke-linejoin:round; stroke-width:4; stroke-opacity:1; fill:none" points="386.502,1099.37 386.502,131.032 "/>
<polyline clip-path="url(#clip410)" style="stroke:#000000; stroke-linecap:round; stroke-linejoin:round; stroke-width:4; stroke-opacity:1; fill:none" points="386.502,1071.96 405.399,1071.96 "/>
<polyline clip-path="url(#clip410)" style="stroke:#000000; stroke-linecap:round; stroke-linejoin:round; stroke-width:4; stroke-opacity:1; fill:none" points="386.502,869.601 405.399,869.601 "/>
<polyline clip-path="url(#clip410)" style="stroke:#000000; stroke-linecap:round; stroke-linejoin:round; stroke-width:4; stroke-opacity:1; fill:none" points="386.502,667.24 405.399,667.24 "/>
<polyline clip-path="url(#clip410)" style="stroke:#000000; stroke-linecap:round; stroke-linejoin:round; stroke-width:4; stroke-opacity:1; fill:none" points="386.502,464.879 405.399,464.879 "/>
<polyline clip-path="url(#clip410)" style="stroke:#000000; stroke-linecap:round; stroke-linejoin:round; stroke-width:4; stroke-opacity:1; fill:none" points="386.502,262.518 405.399,262.518 "/>
<path clip-path="url(#clip410)" d="M329.599 1047.11 Q323.28 1047.11 320.08 1053.35 Q316.92 1059.55 316.92 1072.02 Q316.92 1084.46 320.08 1090.7 Q323.28 1096.9 329.599 1096.9 Q335.959 1096.9 339.119 1090.7 Q342.319 1084.46 342.319 1072.02 Q342.319 1059.55 339.119 1053.35 Q335.959 1047.11 329.599 1047.11 M329.599 1040.63 Q339.767 1040.63 345.114 1048.69 Q350.502 1056.71 350.502 1072.02 Q350.502 1087.29 345.114 1095.36 Q339.767 1103.38 329.599 1103.38 Q319.431 1103.38 314.044 1095.36 Q308.697 1087.29 308.697 1072.02 Q308.697 1056.71 314.044 1048.69 Q319.431 1040.63 329.599 1040.63 Z" fill="#000000" fill-rule="nonzero" fill-opacity="1" /><path clip-path="url(#clip410)" d="M207.951 892.955 L221.319 892.955 L221.319 846.815 L206.776 849.731 L206.776 842.278 L221.237 839.361 L229.42 839.361 L229.42 892.955 L242.788 892.955 L242.788 899.841 L207.951 899.841 L207.951 892.955 Z" fill="#000000" fill-rule="nonzero" fill-opacity="1" /><path clip-path="url(#clip410)" d="M276.816 844.749 Q270.496 844.749 267.296 850.987 Q264.137 857.185 264.137 869.662 Q264.137 882.098 267.296 888.337 Q270.496 894.534 276.816 894.534 Q283.176 894.534 286.336 888.337 Q289.536 882.098 289.536 869.662 Q289.536 857.185 286.336 850.987 Q283.176 844.749 276.816 844.749 M276.816 838.267 Q286.984 838.267 292.331 846.329 Q297.719 854.349 297.719 869.662 Q297.719 884.934 292.331 892.995 Q286.984 901.016 276.816 901.016 Q266.648 901.016 261.26 892.995 Q255.913 884.934 255.913 869.662 Q255.913 854.349 261.26 846.329 Q266.648 838.267 276.816 838.267 Z" fill="#000000" fill-rule="nonzero" fill-opacity="1" /><path clip-path="url(#clip410)" d="M329.599 844.749 Q323.28 844.749 320.08 850.987 Q316.92 857.185 316.92 869.662 Q316.92 882.098 320.08 888.337 Q323.28 894.534 329.599 894.534 Q335.959 894.534 339.119 888.337 Q342.319 882.098 342.319 869.662 Q342.319 857.185 339.119 850.987 Q335.959 844.749 329.599 844.749 M329.599 838.267 Q339.767 838.267 345.114 846.329 Q350.502 854.349 350.502 869.662 Q350.502 884.934 345.114 892.995 Q339.767 901.016 329.599 901.016 Q319.431 901.016 314.044 892.995 Q308.697 884.934 308.697 869.662 Q308.697 854.349 314.044 846.329 Q319.431 838.267 329.599 838.267 Z" fill="#000000" fill-rule="nonzero" fill-opacity="1" /><path clip-path="url(#clip410)" d="M213.581 690.593 L242.14 690.593 L242.14 697.48 L203.738 697.48 L203.738 690.593 Q208.396 685.773 216.417 677.671 Q224.478 669.529 226.544 667.179 Q230.474 662.764 232.013 659.726 Q233.593 656.647 233.593 653.69 Q233.593 648.869 230.19 645.831 Q226.828 642.793 221.4 642.793 Q217.551 642.793 213.257 644.13 Q209.004 645.466 204.143 648.18 L204.143 639.917 Q209.085 637.932 213.379 636.919 Q217.673 635.906 221.237 635.906 Q230.636 635.906 236.226 640.605 Q241.816 645.304 241.816 653.163 Q241.816 656.89 240.398 660.252 Q239.021 663.574 235.335 668.111 Q234.322 669.286 228.894 674.916 Q223.465 680.507 213.581 690.593 Z" fill="#000000" fill-rule="nonzero" fill-opacity="1" /><path clip-path="url(#clip410)" d="M276.816 642.388 Q270.496 642.388 267.296 648.626 Q264.137 654.824 264.137 667.301 Q264.137 679.737 267.296 685.975 Q270.496 692.173 276.816 692.173 Q283.176 692.173 286.336 685.975 Q289.536 679.737 289.536 667.301 Q289.536 654.824 286.336 648.626 Q283.176 642.388 276.816 642.388 M276.816 635.906 Q286.984 635.906 292.331 643.968 Q297.719 651.988 297.719 667.301 Q297.719 682.573 292.331 690.634 Q286.984 698.655 276.816 698.655 Q266.648 698.655 261.26 690.634 Q255.913 682.573 255.913 667.301 Q255.913 651.988 261.26 643.968 Q266.648 635.906 276.816 635.906 Z" fill="#000000" fill-rule="nonzero" fill-opacity="1" /><path clip-path="url(#clip410)" d="M329.599 642.388 Q323.28 642.388 320.08 648.626 Q316.92 654.824 316.92 667.301 Q316.92 679.737 320.08 685.975 Q323.28 692.173 329.599 692.173 Q335.959 692.173 339.119 685.975 Q342.319 679.737 342.319 667.301 Q342.319 654.824 339.119 648.626 Q335.959 642.388 329.599 642.388 M329.599 635.906 Q339.767 635.906 345.114 643.968 Q350.502 651.988 350.502 667.301 Q350.502 682.573 345.114 690.634 Q339.767 698.655 329.599 698.655 Q319.431 698.655 314.044 690.634 Q308.697 682.573 308.697 667.301 Q308.697 651.988 314.044 643.968 Q319.431 635.906 329.599 635.906 Z" fill="#000000" fill-rule="nonzero" fill-opacity="1" /><path clip-path="url(#clip410)" d="M231.324 462.509 Q237.198 463.765 240.479 467.735 Q243.801 471.705 243.801 477.538 Q243.801 486.49 237.644 491.392 Q231.486 496.294 220.144 496.294 Q216.336 496.294 212.285 495.524 Q208.275 494.795 203.981 493.296 L203.981 485.397 Q207.383 487.382 211.434 488.394 Q215.485 489.407 219.901 489.407 Q227.597 489.407 231.608 486.369 Q235.659 483.331 235.659 477.538 Q235.659 472.191 231.891 469.193 Q228.165 466.155 221.481 466.155 L214.432 466.155 L214.432 459.43 L221.805 459.43 Q227.84 459.43 231.041 457.04 Q234.241 454.61 234.241 450.073 Q234.241 445.414 230.919 442.943 Q227.638 440.432 221.481 440.432 Q218.118 440.432 214.27 441.161 Q210.422 441.89 205.804 443.429 L205.804 436.138 Q210.462 434.841 214.513 434.193 Q218.604 433.545 222.21 433.545 Q231.527 433.545 236.955 437.799 Q242.383 442.012 242.383 449.222 Q242.383 454.245 239.507 457.729 Q236.631 461.172 231.324 462.509 Z" fill="#000000" fill-rule="nonzero" fill-opacity="1" /><path clip-path="url(#clip410)" d="M276.816 440.027 Q270.496 440.027 267.296 446.265 Q264.137 452.463 264.137 464.94 Q264.137 477.376 267.296 483.614 Q270.496 489.812 276.816 489.812 Q283.176 489.812 286.336 483.614 Q289.536 477.376 289.536 464.94 Q289.536 452.463 286.336 446.265 Q283.176 440.027 276.816 440.027 M276.816 433.545 Q286.984 433.545 292.331 441.606 Q297.719 449.627 297.719 464.94 Q297.719 480.212 292.331 488.273 Q286.984 496.294 276.816 496.294 Q266.648 496.294 261.26 488.273 Q255.913 480.212 255.913 464.94 Q255.913 449.627 261.26 441.606 Q266.648 433.545 276.816 433.545 Z" fill="#000000" fill-rule="nonzero" fill-opacity="1" /><path clip-path="url(#clip410)" d="M329.599 440.027 Q323.28 440.027 320.08 446.265 Q316.92 452.463 316.92 464.94 Q316.92 477.376 320.08 483.614 Q323.28 489.812 329.599 489.812 Q335.959 489.812 339.119 483.614 Q342.319 477.376 342.319 464.94 Q342.319 452.463 339.119 446.265 Q335.959 440.027 329.599 440.027 M329.599 433.545 Q339.767 433.545 345.114 441.606 Q350.502 449.627 350.502 464.94 Q350.502 480.212 345.114 488.273 Q339.767 496.294 329.599 496.294 Q319.431 496.294 314.044 488.273 Q308.697 480.212 308.697 464.94 Q308.697 449.627 314.044 441.606 Q319.431 433.545 329.599 433.545 Z" fill="#000000" fill-rule="nonzero" fill-opacity="1" /><path clip-path="url(#clip410)" d="M229.015 239.407 L208.356 271.693 L229.015 271.693 L229.015 239.407 M226.868 232.278 L237.158 232.278 L237.158 271.693 L245.786 271.693 L245.786 278.499 L237.158 278.499 L237.158 292.758 L229.015 292.758 L229.015 278.499 L201.712 278.499 L201.712 270.599 L226.868 232.278 Z" fill="#000000" fill-rule="nonzero" fill-opacity="1" /><path clip-path="url(#clip410)" d="M276.816 237.666 Q270.496 237.666 267.296 243.904 Q264.137 250.102 264.137 262.579 Q264.137 275.015 267.296 281.253 Q270.496 287.451 276.816 287.451 Q283.176 287.451 286.336 281.253 Q289.536 275.015 289.536 262.579 Q289.536 250.102 286.336 243.904 Q283.176 237.666 276.816 237.666 M276.816 231.184 Q286.984 231.184 292.331 239.245 Q297.719 247.266 297.719 262.579 Q297.719 277.851 292.331 285.912 Q286.984 293.933 276.816 293.933 Q266.648 293.933 261.26 285.912 Q255.913 277.851 255.913 262.579 Q255.913 247.266 261.26 239.245 Q266.648 231.184 276.816 231.184 Z" fill="#000000" fill-rule="nonzero" fill-opacity="1" /><path clip-path="url(#clip410)" d="M329.599 237.666 Q323.28 237.666 320.08 243.904 Q316.92 250.102 316.92 262.579 Q316.92 275.015 320.08 281.253 Q323.28 287.451 329.599 287.451 Q335.959 287.451 339.119 281.253 Q342.319 275.015 342.319 262.579 Q342.319 250.102 339.119 243.904 Q335.959 237.666 329.599 237.666 M329.599 231.184 Q339.767 231.184 345.114 239.245 Q350.502 247.266 350.502 262.579 Q350.502 277.851 345.114 285.912 Q339.767 293.933 329.599 293.933 Q319.431 293.933 314.044 285.912 Q308.697 277.851 308.697 262.579 Q308.697 247.266 314.044 239.245 Q319.431 231.184 329.599 231.184 Z" fill="#000000" fill-rule="nonzero" fill-opacity="1" /><path clip-path="url(#clip410)" d="M53.506 614.715 Q58.4247 614.715 58.4247 621.742 L58.4247 637.552 Q64.7488 633.125 74.0943 633.125 Q82.1048 633.125 89.6234 636.428 Q97.0718 639.66 102.272 644.86 Q107.471 649.989 110.633 656.454 Q113.725 662.919 113.725 669.243 Q113.725 678.869 107.19 684.842 Q100.655 690.815 90.9585 690.815 Q85.829 690.815 80.1373 689.058 Q74.4457 687.231 69.1756 683.788 Q63.8353 680.345 59.549 675.848 Q55.2627 671.28 52.6628 665.378 Q50.0629 659.405 50.0629 653.151 L50.0629 620.337 Q50.0629 618.58 50.2034 617.666 Q50.2737 616.683 51.1169 615.699 Q51.8899 614.715 53.506 614.715 M72.4079 642.33 Q70.7215 642.33 69.2459 642.541 Q67.7 642.752 65.6623 643.525 Q63.5542 644.298 62.0786 645.633 Q60.5327 646.968 59.4787 649.568 Q58.4247 652.097 58.4247 655.54 Q58.4247 660.389 61.0949 665.729 Q63.765 671.07 70.3702 675.145 Q75.9916 678.518 83.2994 680.204 Q90.6072 681.891 94.9637 681.891 Q102.412 681.891 106.488 678.307 Q110.493 674.653 110.493 669.102 Q110.493 664.535 107.401 659.335 Q104.239 654.135 98.2663 650.13 Q93.0665 646.617 85.4777 644.509 Q77.8888 642.33 72.4079 642.33 Z" fill="#000000" fill-rule="nonzero" fill-opacity="1" /><path clip-path="url(#clip410)" d="M117.068 554.499 Q119.871 554.499 121.544 556.22 Q123.216 557.893 123.216 560.008 Q123.216 561.877 122.134 562.861 Q121.052 563.844 119.674 563.844 Q119.084 563.844 118.346 563.598 Q117.559 563.353 116.625 562.811 Q115.69 562.221 115.002 560.992 Q114.313 559.762 114.215 558.09 Q113.87 558.434 113.821 558.532 Q113.231 559.27 113.034 560.647 Q112.936 560.844 112.936 561.533 Q112.936 564.927 115.444 568.37 Q117.904 571.764 122.577 575.944 Q128.036 581.207 130.053 584.601 Q132.02 569.698 140.628 569.698 Q142.055 569.698 143.776 570.091 Q147.023 570.878 149.384 570.878 Q154.105 570.878 154.105 567.681 Q154.105 564.582 150.958 562.615 Q147.81 560.598 141.661 558.926 Q140.53 558.68 140.186 558.434 Q139.841 558.188 139.841 557.499 Q139.841 556.27 140.825 556.27 Q146.58 557.401 151.007 559.909 Q156.368 563.107 156.368 567.878 Q156.368 571.862 153.614 574.518 Q150.81 577.125 146.383 577.125 Q145.301 577.125 142.842 576.731 Q141.858 576.436 140.727 576.436 Q138.415 576.436 136.693 577.715 Q134.922 578.994 134.037 581.06 Q133.152 583.126 132.758 584.847 Q132.316 586.52 132.168 588.143 Q152.974 593.062 154.253 593.75 Q155.138 594.193 155.729 595.177 Q156.368 596.16 156.368 597.193 Q156.368 598.177 155.679 599.161 Q155.04 600.095 153.515 600.095 Q152.728 600.095 151.302 599.702 L93.261 585.093 L91.2935 584.798 Q90.7033 584.798 90.4081 585.044 Q90.0638 585.241 89.8179 586.421 Q89.572 587.553 89.572 589.815 Q89.572 590.75 89.5228 591.192 Q89.4736 591.586 89.2276 591.93 Q88.9325 592.275 88.3423 592.275 Q87.5061 592.275 87.0634 591.93 Q86.5715 591.537 86.4732 591.242 Q86.3748 590.947 86.3256 590.356 Q86.2764 589.52 86.0305 586.716 Q85.7354 583.913 85.5386 581.503 Q85.3419 579.092 85.3419 578.059 Q85.3419 577.469 85.637 577.174 Q85.8829 576.83 86.178 576.781 L86.424 576.731 L128.922 587.208 Q127.2 582.88 119.576 576.043 Q110.722 568.124 110.722 561.336 Q110.722 558.139 112.69 556.319 Q114.608 554.499 117.068 554.499 Z" fill="#000000" fill-rule="nonzero" fill-opacity="1" /><path clip-path="url(#clip410)" d="M1015.83 18.1041 L1015.83 28.3644 Q1009.84 25.4999 1004.53 24.0936 Q999.214 22.6874 994.266 22.6874 Q985.673 22.6874 980.985 26.0207 Q976.35 29.354 976.35 35.4998 Q976.35 40.656 979.423 43.3123 Q982.548 45.9164 991.193 47.531 L997.548 48.8331 Q1009.32 51.0726 1014.89 56.7497 Q1020.52 62.3747 1020.52 71.8538 Q1020.52 83.1558 1012.91 88.9891 Q1005.36 94.8224 990.725 94.8224 Q985.204 94.8224 978.954 93.5724 Q972.756 92.3224 966.089 89.8745 L966.089 79.0412 Q972.496 82.635 978.641 84.4579 Q984.787 86.2808 990.725 86.2808 Q999.735 86.2808 1004.63 82.7391 Q1009.53 79.1975 1009.53 72.635 Q1009.53 66.9059 1005.98 63.6767 Q1002.5 60.4476 994.475 58.833 L988.068 57.583 Q976.298 55.2393 971.037 50.2393 Q965.777 45.2393 965.777 36.3331 Q965.777 26.0207 973.016 20.0832 Q980.308 14.1458 993.068 14.1458 Q998.537 14.1458 1004.21 15.1353 Q1009.89 16.1249 1015.83 18.1041 Z" fill="#000000" fill-rule="nonzero" fill-opacity="1" /><path clip-path="url(#clip410)" d="M1036.51 34.979 L1046.09 34.979 L1046.09 93.312 L1036.51 93.312 L1036.51 34.979 M1036.51 12.2708 L1046.09 12.2708 L1046.09 24.4061 L1036.51 24.4061 L1036.51 12.2708 Z" fill="#000000" fill-rule="nonzero" fill-opacity="1" /><path clip-path="url(#clip410)" d="M1114.63 58.1039 L1114.63 93.312 L1105.05 93.312 L1105.05 58.4164 Q1105.05 50.1351 1101.82 46.0206 Q1098.59 41.906 1092.13 41.906 Q1084.37 41.906 1079.89 46.8539 Q1075.41 51.8018 1075.41 60.3434 L1075.41 93.312 L1065.78 93.312 L1065.78 34.979 L1075.41 34.979 L1075.41 44.0414 Q1078.85 38.781 1083.48 36.1769 Q1088.17 33.5727 1094.27 33.5727 Q1104.32 33.5727 1109.47 39.8227 Q1114.63 46.0206 1114.63 58.1039 Z" fill="#000000" fill-rule="nonzero" fill-opacity="1" /><path clip-path="url(#clip410)" d="M1172.13 63.4684 Q1172.13 53.0518 1167.81 47.3227 Q1163.54 41.5935 1155.78 41.5935 Q1148.07 41.5935 1143.74 47.3227 Q1139.47 53.0518 1139.47 63.4684 Q1139.47 73.8329 1143.74 79.5621 Q1148.07 85.2912 1155.78 85.2912 Q1163.54 85.2912 1167.81 79.5621 Q1172.13 73.8329 1172.13 63.4684 M1181.71 86.0725 Q1181.71 100.968 1175.1 108.208 Q1168.48 115.499 1154.84 115.499 Q1149.79 115.499 1145.31 114.718 Q1140.83 113.989 1136.61 112.426 L1136.61 103.104 Q1140.83 105.395 1144.94 106.489 Q1149.06 107.583 1153.33 107.583 Q1162.75 107.583 1167.44 102.635 Q1172.13 97.7391 1172.13 87.7912 L1172.13 83.0516 Q1169.16 88.2079 1164.53 90.7599 Q1159.89 93.312 1153.43 93.312 Q1142.7 93.312 1136.14 85.135 Q1129.58 76.9579 1129.58 63.4684 Q1129.58 49.9268 1136.14 41.7498 Q1142.7 33.5727 1153.43 33.5727 Q1159.89 33.5727 1164.53 36.1248 Q1169.16 38.6769 1172.13 43.8331 L1172.13 34.979 L1181.71 34.979 L1181.71 86.0725 Z" fill="#000000" fill-rule="nonzero" fill-opacity="1" /><path clip-path="url(#clip410)" d="M1200.46 70.2913 L1200.46 34.979 L1210.05 34.979 L1210.05 69.9267 Q1210.05 78.2079 1213.28 82.3746 Q1216.5 86.4891 1222.96 86.4891 Q1230.72 86.4891 1235.2 81.5412 Q1239.73 76.5933 1239.73 68.0517 L1239.73 34.979 L1249.32 34.979 L1249.32 93.312 L1239.73 93.312 L1239.73 84.3537 Q1236.24 89.6662 1231.61 92.2703 Q1227.03 94.8224 1220.93 94.8224 Q1210.88 94.8224 1205.67 88.5724 Q1200.46 82.3225 1200.46 70.2913 M1224.58 33.5727 L1224.58 33.5727 Z" fill="#000000" fill-rule="nonzero" fill-opacity="1" /><path clip-path="url(#clip410)" d="M1269.06 12.2708 L1278.64 12.2708 L1278.64 93.312 L1269.06 93.312 L1269.06 12.2708 Z" fill="#000000" fill-rule="nonzero" fill-opacity="1" /><path clip-path="url(#clip410)" d="M1325.2 63.9892 Q1313.59 63.9892 1309.11 66.6455 Q1304.63 69.3017 1304.63 75.7079 Q1304.63 80.8121 1307.96 83.8329 Q1311.35 86.8016 1317.13 86.8016 Q1325.1 86.8016 1329.89 81.1766 Q1334.73 75.4996 1334.73 66.1246 L1334.73 63.9892 L1325.2 63.9892 M1344.32 60.0309 L1344.32 93.312 L1334.73 93.312 L1334.73 84.4579 Q1331.45 89.7704 1326.56 92.3224 Q1321.66 94.8224 1314.58 94.8224 Q1305.62 94.8224 1300.31 89.8224 Q1295.05 84.7704 1295.05 76.3329 Q1295.05 66.4892 1301.61 61.4893 Q1308.22 56.4893 1321.3 56.4893 L1334.73 56.4893 L1334.73 55.5518 Q1334.73 48.9372 1330.36 45.3435 Q1326.04 41.6977 1318.17 41.6977 Q1313.17 41.6977 1308.43 42.8956 Q1303.69 44.0935 1299.32 46.4893 L1299.32 37.6352 Q1304.58 35.604 1309.53 34.6144 Q1314.47 33.5727 1319.16 33.5727 Q1331.82 33.5727 1338.07 40.1352 Q1344.32 46.6977 1344.32 60.0309 Z" fill="#000000" fill-rule="nonzero" fill-opacity="1" /><path clip-path="url(#clip410)" d="M1397.86 43.9373 Q1396.24 42.9998 1394.32 42.5831 Q1392.44 42.1144 1390.15 42.1144 Q1382.02 42.1144 1377.65 47.4268 Q1373.33 52.6872 1373.33 62.583 L1373.33 93.312 L1363.69 93.312 L1363.69 34.979 L1373.33 34.979 L1373.33 44.0414 Q1376.35 38.729 1381.19 36.1769 Q1386.04 33.5727 1392.96 33.5727 Q1393.95 33.5727 1395.15 33.729 Q1396.35 33.8332 1397.81 34.0936 L1397.86 43.9373 Z" fill="#000000" fill-rule="nonzero" fill-opacity="1" /><path clip-path="url(#clip410)" d="M1434.94 34.979 L1445.1 34.979 L1463.33 83.9371 L1481.56 34.979 L1491.71 34.979 L1469.84 93.312 L1456.82 93.312 L1434.94 34.979 Z" fill="#000000" fill-rule="nonzero" fill-opacity="1" /><path clip-path="url(#clip410)" d="M1531.45 63.9892 Q1519.84 63.9892 1515.36 66.6455 Q1510.88 69.3017 1510.88 75.7079 Q1510.88 80.8121 1514.21 83.8329 Q1517.6 86.8016 1523.38 86.8016 Q1531.35 86.8016 1536.14 81.1766 Q1540.98 75.4996 1540.98 66.1246 L1540.98 63.9892 L1531.45 63.9892 M1550.57 60.0309 L1550.57 93.312 L1540.98 93.312 L1540.98 84.4579 Q1537.7 89.7704 1532.81 92.3224 Q1527.91 94.8224 1520.83 94.8224 Q1511.87 94.8224 1506.56 89.8224 Q1501.29 84.7704 1501.29 76.3329 Q1501.29 66.4892 1507.86 61.4893 Q1514.47 56.4893 1527.54 56.4893 L1540.98 56.4893 L1540.98 55.5518 Q1540.98 48.9372 1536.61 45.3435 Q1532.28 41.6977 1524.42 41.6977 Q1519.42 41.6977 1514.68 42.8956 Q1509.94 44.0935 1505.57 46.4893 L1505.57 37.6352 Q1510.83 35.604 1515.77 34.6144 Q1520.72 33.5727 1525.41 33.5727 Q1538.07 33.5727 1544.32 40.1352 Q1550.57 46.6977 1550.57 60.0309 Z" fill="#000000" fill-rule="nonzero" fill-opacity="1" /><path clip-path="url(#clip410)" d="M1570.3 12.2708 L1579.89 12.2708 L1579.89 93.312 L1570.3 93.312 L1570.3 12.2708 Z" fill="#000000" fill-rule="nonzero" fill-opacity="1" /><path clip-path="url(#clip410)" d="M1598.95 70.2913 L1598.95 34.979 L1608.53 34.979 L1608.53 69.9267 Q1608.53 78.2079 1611.76 82.3746 Q1614.99 86.4891 1621.45 86.4891 Q1629.21 86.4891 1633.69 81.5412 Q1638.22 76.5933 1638.22 68.0517 L1638.22 34.979 L1647.8 34.979 L1647.8 93.312 L1638.22 93.312 L1638.22 84.3537 Q1634.73 89.6662 1630.1 92.2703 Q1625.51 94.8224 1619.42 94.8224 Q1609.37 94.8224 1604.16 88.5724 Q1598.95 82.3225 1598.95 70.2913 M1623.07 33.5727 L1623.07 33.5727 Z" fill="#000000" fill-rule="nonzero" fill-opacity="1" /><path clip-path="url(#clip410)" d="M1717.44 61.7497 L1717.44 66.4371 L1673.38 66.4371 Q1674 76.3329 1679.31 81.5412 Q1684.68 86.6975 1694.21 86.6975 Q1699.73 86.6975 1704.89 85.3433 Q1710.1 83.9891 1715.2 81.2808 L1715.2 90.3433 Q1710.04 92.5308 1704.63 93.6766 Q1699.21 94.8224 1693.64 94.8224 Q1679.68 94.8224 1671.5 86.6975 Q1663.38 78.5725 1663.38 64.7184 Q1663.38 50.3956 1671.09 42.0102 Q1678.85 33.5727 1691.97 33.5727 Q1703.74 33.5727 1710.56 41.1769 Q1717.44 48.7289 1717.44 61.7497 M1707.86 58.9372 Q1707.75 51.0726 1703.43 46.3852 Q1699.16 41.6977 1692.08 41.6977 Q1684.05 41.6977 1679.21 46.2289 Q1674.42 50.7601 1673.69 58.9893 L1707.86 58.9372 Z" fill="#000000" fill-rule="nonzero" fill-opacity="1" /><path clip-path="url(#clip410)" d="M1770.36 36.6977 L1770.36 45.7602 Q1766.29 43.6768 1761.92 42.6352 Q1757.54 41.5935 1752.86 41.5935 Q1745.72 41.5935 1742.13 43.781 Q1738.59 45.9685 1738.59 50.3435 Q1738.59 53.6768 1741.14 55.6039 Q1743.69 57.4789 1751.4 59.1976 L1754.68 59.9268 Q1764.89 62.1143 1769.16 66.1246 Q1773.48 70.083 1773.48 77.2183 Q1773.48 85.3433 1767.02 90.0829 Q1760.62 94.8224 1749.37 94.8224 Q1744.68 94.8224 1739.57 93.8849 Q1734.52 92.9995 1728.9 91.1766 L1728.9 81.2808 Q1734.21 84.0412 1739.37 85.4475 Q1744.52 86.8016 1749.57 86.8016 Q1756.35 86.8016 1759.99 84.51 Q1763.64 82.1662 1763.64 77.9475 Q1763.64 74.0413 1760.98 71.9579 Q1758.38 69.8746 1749.47 67.9476 L1746.14 67.1663 Q1737.23 65.2913 1733.27 61.4372 Q1729.31 57.5309 1729.31 50.7601 Q1729.31 42.531 1735.15 38.0519 Q1740.98 33.5727 1751.71 33.5727 Q1757.02 33.5727 1761.71 34.354 Q1766.4 35.1352 1770.36 36.6977 Z" fill="#000000" fill-rule="nonzero" fill-opacity="1" /><path clip-path="url(#clip411)" d="M466.151 134.438 L418.151 134.438 L442.151 182.438 L466.151 134.438 Z" fill="#ff0000" fill-rule="evenodd" fill-opacity="1" stroke="none"/>
<path clip-path="url(#clip411)" d="M501.15 383.743 L453.15 383.743 L477.15 431.743 L501.15 383.743 Z" fill="#ff0000" fill-rule="evenodd" fill-opacity="1" stroke="none"/>
<path clip-path="url(#clip411)" d="M536.149 412.191 L488.149 412.191 L512.149 460.191 L536.149 412.191 Z" fill="#ff0000" fill-rule="evenodd" fill-opacity="1" stroke="none"/>
<path clip-path="url(#clip411)" d="M571.148 419.564 L523.148 419.564 L547.148 467.564 L571.148 419.564 Z" fill="#ff0000" fill-rule="evenodd" fill-opacity="1" stroke="none"/>
<path clip-path="url(#clip411)" d="M606.147 428.697 L558.147 428.697 L582.147 476.697 L606.147 428.697 Z" fill="#ff0000" fill-rule="evenodd" fill-opacity="1" stroke="none"/>
<path clip-path="url(#clip411)" d="M641.146 438.389 L593.146 438.389 L617.146 486.389 L641.146 438.389 Z" fill="#ff0000" fill-rule="evenodd" fill-opacity="1" stroke="none"/>
<path clip-path="url(#clip411)" d="M676.146 450.767 L628.146 450.767 L652.146 498.767 L676.146 450.767 Z" fill="#ff0000" fill-rule="evenodd" fill-opacity="1" stroke="none"/>
<path clip-path="url(#clip411)" d="M711.145 460.518 L663.145 460.518 L687.145 508.518 L711.145 460.518 Z" fill="#ff0000" fill-rule="evenodd" fill-opacity="1" stroke="none"/>
<path clip-path="url(#clip411)" d="M746.144 477.637 L698.144 477.637 L722.144 525.637 L746.144 477.637 Z" fill="#ff0000" fill-rule="evenodd" fill-opacity="1" stroke="none"/>
<path clip-path="url(#clip411)" d="M781.143 481.936 L733.143 481.936 L757.143 529.936 L781.143 481.936 Z" fill="#ff0000" fill-rule="evenodd" fill-opacity="1" stroke="none"/>
<path clip-path="url(#clip411)" d="M816.142 494.022 L768.142 494.022 L792.142 542.022 L816.142 494.022 Z" fill="#ff0000" fill-rule="evenodd" fill-opacity="1" stroke="none"/>
<path clip-path="url(#clip411)" d="M851.142 501.769 L803.142 501.769 L827.142 549.769 L851.142 501.769 Z" fill="#ff0000" fill-rule="evenodd" fill-opacity="1" stroke="none"/>
<path clip-path="url(#clip411)" d="M886.141 513.947 L838.141 513.947 L862.141 561.947 L886.141 513.947 Z" fill="#ff0000" fill-rule="evenodd" fill-opacity="1" stroke="none"/>
<path clip-path="url(#clip411)" d="M921.14 514.918 L873.14 514.918 L897.14 562.918 L921.14 514.918 Z" fill="#ff0000" fill-rule="evenodd" fill-opacity="1" stroke="none"/>
<path clip-path="url(#clip411)" d="M956.139 529.1 L908.139 529.1 L932.139 577.1 L956.139 529.1 Z" fill="#ff0000" fill-rule="evenodd" fill-opacity="1" stroke="none"/>
<path clip-path="url(#clip411)" d="M991.138 537.518 L943.138 537.518 L967.138 585.518 L991.138 537.518 Z" fill="#ff0000" fill-rule="evenodd" fill-opacity="1" stroke="none"/>
<path clip-path="url(#clip411)" d="M1026.14 550.837 L978.137 550.837 L1002.14 598.837 L1026.14 550.837 Z" fill="#ff0000" fill-rule="evenodd" fill-opacity="1" stroke="none"/>
<path clip-path="url(#clip411)" d="M1061.14 559.69 L1013.14 559.69 L1037.14 607.69 L1061.14 559.69 Z" fill="#ff0000" fill-rule="evenodd" fill-opacity="1" stroke="none"/>
<path clip-path="url(#clip411)" d="M1096.14 567.795 L1048.14 567.795 L1072.14 615.795 L1096.14 567.795 Z" fill="#ff0000" fill-rule="evenodd" fill-opacity="1" stroke="none"/>
<path clip-path="url(#clip411)" d="M1131.14 569.61 L1083.14 569.61 L1107.14 617.61 L1131.14 569.61 Z" fill="#ff0000" fill-rule="evenodd" fill-opacity="1" stroke="none"/>
<path clip-path="url(#clip411)" d="M1166.13 579.227 L1118.13 579.227 L1142.13 627.227 L1166.13 579.227 Z" fill="#ff0000" fill-rule="evenodd" fill-opacity="1" stroke="none"/>
<path clip-path="url(#clip411)" d="M1201.13 583.429 L1153.13 583.429 L1177.13 631.429 L1201.13 583.429 Z" fill="#ff0000" fill-rule="evenodd" fill-opacity="1" stroke="none"/>
<path clip-path="url(#clip411)" d="M1236.13 597.229 L1188.13 597.229 L1212.13 645.229 L1236.13 597.229 Z" fill="#ff0000" fill-rule="evenodd" fill-opacity="1" stroke="none"/>
<path clip-path="url(#clip411)" d="M1271.13 607.222 L1223.13 607.222 L1247.13 655.222 L1271.13 607.222 Z" fill="#ff0000" fill-rule="evenodd" fill-opacity="1" stroke="none"/>
<path clip-path="url(#clip411)" d="M1306.13 610.433 L1258.13 610.433 L1282.13 658.433 L1306.13 610.433 Z" fill="#ff0000" fill-rule="evenodd" fill-opacity="1" stroke="none"/>
<path clip-path="url(#clip411)" d="M1341.13 614.467 L1293.13 614.467 L1317.13 662.467 L1341.13 614.467 Z" fill="#ff0000" fill-rule="evenodd" fill-opacity="1" stroke="none"/>
<path clip-path="url(#clip411)" d="M1376.13 625.69 L1328.13 625.69 L1352.13 673.69 L1376.13 625.69 Z" fill="#ff0000" fill-rule="evenodd" fill-opacity="1" stroke="none"/>
<path clip-path="url(#clip411)" d="M1411.13 635.127 L1363.13 635.127 L1387.13 683.127 L1411.13 635.127 Z" fill="#ff0000" fill-rule="evenodd" fill-opacity="1" stroke="none"/>
<path clip-path="url(#clip411)" d="M1446.13 643.533 L1398.13 643.533 L1422.13 691.533 L1446.13 643.533 Z" fill="#ff0000" fill-rule="evenodd" fill-opacity="1" stroke="none"/>
<path clip-path="url(#clip411)" d="M1481.13 646.812 L1433.13 646.812 L1457.13 694.812 L1481.13 646.812 Z" fill="#ff0000" fill-rule="evenodd" fill-opacity="1" stroke="none"/>
<path clip-path="url(#clip411)" d="M1516.13 648.364 L1468.13 648.364 L1492.13 696.364 L1516.13 648.364 Z" fill="#ff0000" fill-rule="evenodd" fill-opacity="1" stroke="none"/>
<path clip-path="url(#clip411)" d="M1551.13 661.574 L1503.13 661.574 L1527.13 709.574 L1551.13 661.574 Z" fill="#ff0000" fill-rule="evenodd" fill-opacity="1" stroke="none"/>
<path clip-path="url(#clip411)" d="M1586.12 673.344 L1538.12 673.344 L1562.12 721.344 L1586.12 673.344 Z" fill="#ff0000" fill-rule="evenodd" fill-opacity="1" stroke="none"/>
<path clip-path="url(#clip411)" d="M1621.12 676.769 L1573.12 676.769 L1597.12 724.769 L1621.12 676.769 Z" fill="#ff0000" fill-rule="evenodd" fill-opacity="1" stroke="none"/>
<path clip-path="url(#clip411)" d="M1656.12 684.199 L1608.12 684.199 L1632.12 732.199 L1656.12 684.199 Z" fill="#ff0000" fill-rule="evenodd" fill-opacity="1" stroke="none"/>
<path clip-path="url(#clip411)" d="M1691.12 692.936 L1643.12 692.936 L1667.12 740.936 L1691.12 692.936 Z" fill="#ff0000" fill-rule="evenodd" fill-opacity="1" stroke="none"/>
<path clip-path="url(#clip411)" d="M1726.12 701.645 L1678.12 701.645 L1702.12 749.645 L1726.12 701.645 Z" fill="#ff0000" fill-rule="evenodd" fill-opacity="1" stroke="none"/>
<path clip-path="url(#clip411)" d="M1761.12 707.583 L1713.12 707.583 L1737.12 755.583 L1761.12 707.583 Z" fill="#ff0000" fill-rule="evenodd" fill-opacity="1" stroke="none"/>
<path clip-path="url(#clip411)" d="M1796.12 715.592 L1748.12 715.592 L1772.12 763.592 L1796.12 715.592 Z" fill="#ff0000" fill-rule="evenodd" fill-opacity="1" stroke="none"/>
<path clip-path="url(#clip411)" d="M1831.12 717.248 L1783.12 717.248 L1807.12 765.248 L1831.12 717.248 Z" fill="#ff0000" fill-rule="evenodd" fill-opacity="1" stroke="none"/>
<path clip-path="url(#clip411)" d="M1866.12 729.095 L1818.12 729.095 L1842.12 777.095 L1866.12 729.095 Z" fill="#ff0000" fill-rule="evenodd" fill-opacity="1" stroke="none"/>
<path clip-path="url(#clip411)" d="M1901.12 739.427 L1853.12 739.427 L1877.12 787.427 L1901.12 739.427 Z" fill="#ff0000" fill-rule="evenodd" fill-opacity="1" stroke="none"/>
<path clip-path="url(#clip411)" d="M1936.12 743.556 L1888.12 743.556 L1912.12 791.556 L1936.12 743.556 Z" fill="#ff0000" fill-rule="evenodd" fill-opacity="1" stroke="none"/>
<path clip-path="url(#clip411)" d="M1971.12 760.076 L1923.12 760.076 L1947.12 808.076 L1971.12 760.076 Z" fill="#ff0000" fill-rule="evenodd" fill-opacity="1" stroke="none"/>
<path clip-path="url(#clip411)" d="M2006.11 761.319 L1958.11 761.319 L1982.11 809.319 L2006.11 761.319 Z" fill="#ff0000" fill-rule="evenodd" fill-opacity="1" stroke="none"/>
<path clip-path="url(#clip411)" d="M2041.11 774.869 L1993.11 774.869 L2017.11 822.869 L2041.11 774.869 Z" fill="#ff0000" fill-rule="evenodd" fill-opacity="1" stroke="none"/>
<path clip-path="url(#clip411)" d="M2076.11 780.29 L2028.11 780.29 L2052.11 828.29 L2076.11 780.29 Z" fill="#ff0000" fill-rule="evenodd" fill-opacity="1" stroke="none"/>
<path clip-path="url(#clip411)" d="M2111.11 789.339 L2063.11 789.339 L2087.11 837.339 L2111.11 789.339 Z" fill="#ff0000" fill-rule="evenodd" fill-opacity="1" stroke="none"/>
<path clip-path="url(#clip411)" d="M2146.11 796.316 L2098.11 796.316 L2122.11 844.316 L2146.11 796.316 Z" fill="#ff0000" fill-rule="evenodd" fill-opacity="1" stroke="none"/>
<path clip-path="url(#clip411)" d="M2181.11 799.784 L2133.11 799.784 L2157.11 847.784 L2181.11 799.784 Z" fill="#ff0000" fill-rule="evenodd" fill-opacity="1" stroke="none"/>
<path clip-path="url(#clip411)" d="M2216.11 819.723 L2168.11 819.723 L2192.11 867.723 L2216.11 819.723 Z" fill="#ff0000" fill-rule="evenodd" fill-opacity="1" stroke="none"/>
<path clip-path="url(#clip411)" d="M2251.11 821.516 L2203.11 821.516 L2227.11 869.516 L2251.11 821.516 Z" fill="#ff0000" fill-rule="evenodd" fill-opacity="1" stroke="none"/>
<path clip-path="url(#clip411)" d="M2286.11 831.797 L2238.11 831.797 L2262.11 879.797 L2286.11 831.797 Z" fill="#ff0000" fill-rule="evenodd" fill-opacity="1" stroke="none"/>
<path clip-path="url(#clip411)" d="M2321.11 842.736 L2273.11 842.736 L2297.11 890.736 L2321.11 842.736 Z" fill="#ff0000" fill-rule="evenodd" fill-opacity="1" stroke="none"/>
<path clip-path="url(#clip411)" d="M442.151 304.716 L418.151 352.716 L466.151 352.716 L442.151 304.716 Z" fill="#0000ff" fill-rule="evenodd" fill-opacity="1" stroke="none"/>
<path clip-path="url(#clip411)" d="M477.15 702.746 L453.15 750.746 L501.15 750.746 L477.15 702.746 Z" fill="#0000ff" fill-rule="evenodd" fill-opacity="1" stroke="none"/>
<path clip-path="url(#clip411)" d="M512.149 779.571 L488.149 827.571 L536.149 827.571 L512.149 779.571 Z" fill="#0000ff" fill-rule="evenodd" fill-opacity="1" stroke="none"/>
<path clip-path="url(#clip411)" d="M547.148 949.039 L523.148 997.039 L571.148 997.039 L547.148 949.039 Z" fill="#0000ff" fill-rule="evenodd" fill-opacity="1" stroke="none"/>
<path clip-path="url(#clip411)" d="M582.147 994.514 L558.147 1042.51 L606.147 1042.51 L582.147 994.514 Z" fill="#0000ff" fill-rule="evenodd" fill-opacity="1" stroke="none"/>
<path clip-path="url(#clip411)" d="M617.146 1047.96 L593.146 1095.96 L641.146 1095.96 L617.146 1047.96 Z" fill="#0000ff" fill-rule="evenodd" fill-opacity="1" stroke="none"/>
<path clip-path="url(#clip411)" d="M652.146 1047.96 L628.146 1095.96 L676.146 1095.96 L652.146 1047.96 Z" fill="#0000ff" fill-rule="evenodd" fill-opacity="1" stroke="none"/>
<path clip-path="url(#clip411)" d="M687.145 1047.96 L663.145 1095.96 L711.145 1095.96 L687.145 1047.96 Z" fill="#0000ff" fill-rule="evenodd" fill-opacity="1" stroke="none"/>
<path clip-path="url(#clip411)" d="M722.144 1047.96 L698.144 1095.96 L746.144 1095.96 L722.144 1047.96 Z" fill="#0000ff" fill-rule="evenodd" fill-opacity="1" stroke="none"/>
<path clip-path="url(#clip411)" d="M757.143 1047.96 L733.143 1095.96 L781.143 1095.96 L757.143 1047.96 Z" fill="#0000ff" fill-rule="evenodd" fill-opacity="1" stroke="none"/>
<path clip-path="url(#clip411)" d="M792.142 1047.96 L768.142 1095.96 L816.142 1095.96 L792.142 1047.96 Z" fill="#0000ff" fill-rule="evenodd" fill-opacity="1" stroke="none"/>
<path clip-path="url(#clip411)" d="M827.142 1047.96 L803.142 1095.96 L851.142 1095.96 L827.142 1047.96 Z" fill="#0000ff" fill-rule="evenodd" fill-opacity="1" stroke="none"/>
<path clip-path="url(#clip411)" d="M862.141 1047.96 L838.141 1095.96 L886.141 1095.96 L862.141 1047.96 Z" fill="#0000ff" fill-rule="evenodd" fill-opacity="1" stroke="none"/>
<path clip-path="url(#clip411)" d="M897.14 1047.96 L873.14 1095.96 L921.14 1095.96 L897.14 1047.96 Z" fill="#0000ff" fill-rule="evenodd" fill-opacity="1" stroke="none"/>
<path clip-path="url(#clip411)" d="M932.139 1047.96 L908.139 1095.96 L956.139 1095.96 L932.139 1047.96 Z" fill="#0000ff" fill-rule="evenodd" fill-opacity="1" stroke="none"/>
<path clip-path="url(#clip411)" d="M967.138 1047.96 L943.138 1095.96 L991.138 1095.96 L967.138 1047.96 Z" fill="#0000ff" fill-rule="evenodd" fill-opacity="1" stroke="none"/>
<path clip-path="url(#clip411)" d="M1002.14 1047.96 L978.137 1095.96 L1026.14 1095.96 L1002.14 1047.96 Z" fill="#0000ff" fill-rule="evenodd" fill-opacity="1" stroke="none"/>
<path clip-path="url(#clip411)" d="M1037.14 1047.96 L1013.14 1095.96 L1061.14 1095.96 L1037.14 1047.96 Z" fill="#0000ff" fill-rule="evenodd" fill-opacity="1" stroke="none"/>
<path clip-path="url(#clip411)" d="M1072.14 1047.96 L1048.14 1095.96 L1096.14 1095.96 L1072.14 1047.96 Z" fill="#0000ff" fill-rule="evenodd" fill-opacity="1" stroke="none"/>
<path clip-path="url(#clip411)" d="M1107.14 1047.96 L1083.14 1095.96 L1131.14 1095.96 L1107.14 1047.96 Z" fill="#0000ff" fill-rule="evenodd" fill-opacity="1" stroke="none"/>
<path clip-path="url(#clip411)" d="M1142.13 1047.96 L1118.13 1095.96 L1166.13 1095.96 L1142.13 1047.96 Z" fill="#0000ff" fill-rule="evenodd" fill-opacity="1" stroke="none"/>
<path clip-path="url(#clip411)" d="M1177.13 1047.96 L1153.13 1095.96 L1201.13 1095.96 L1177.13 1047.96 Z" fill="#0000ff" fill-rule="evenodd" fill-opacity="1" stroke="none"/>
<path clip-path="url(#clip411)" d="M1212.13 1047.96 L1188.13 1095.96 L1236.13 1095.96 L1212.13 1047.96 Z" fill="#0000ff" fill-rule="evenodd" fill-opacity="1" stroke="none"/>
<path clip-path="url(#clip411)" d="M1247.13 1047.96 L1223.13 1095.96 L1271.13 1095.96 L1247.13 1047.96 Z" fill="#0000ff" fill-rule="evenodd" fill-opacity="1" stroke="none"/>
<path clip-path="url(#clip411)" d="M1282.13 1047.96 L1258.13 1095.96 L1306.13 1095.96 L1282.13 1047.96 Z" fill="#0000ff" fill-rule="evenodd" fill-opacity="1" stroke="none"/>
<path clip-path="url(#clip411)" d="M1317.13 1047.96 L1293.13 1095.96 L1341.13 1095.96 L1317.13 1047.96 Z" fill="#0000ff" fill-rule="evenodd" fill-opacity="1" stroke="none"/>
<path clip-path="url(#clip411)" d="M1352.13 1047.96 L1328.13 1095.96 L1376.13 1095.96 L1352.13 1047.96 Z" fill="#0000ff" fill-rule="evenodd" fill-opacity="1" stroke="none"/>
<path clip-path="url(#clip411)" d="M1387.13 1047.96 L1363.13 1095.96 L1411.13 1095.96 L1387.13 1047.96 Z" fill="#0000ff" fill-rule="evenodd" fill-opacity="1" stroke="none"/>
<path clip-path="url(#clip411)" d="M1422.13 1047.96 L1398.13 1095.96 L1446.13 1095.96 L1422.13 1047.96 Z" fill="#0000ff" fill-rule="evenodd" fill-opacity="1" stroke="none"/>
<path clip-path="url(#clip411)" d="M1457.13 1047.96 L1433.13 1095.96 L1481.13 1095.96 L1457.13 1047.96 Z" fill="#0000ff" fill-rule="evenodd" fill-opacity="1" stroke="none"/>
<path clip-path="url(#clip411)" d="M1492.13 1047.96 L1468.13 1095.96 L1516.13 1095.96 L1492.13 1047.96 Z" fill="#0000ff" fill-rule="evenodd" fill-opacity="1" stroke="none"/>
<path clip-path="url(#clip411)" d="M1527.13 1047.96 L1503.13 1095.96 L1551.13 1095.96 L1527.13 1047.96 Z" fill="#0000ff" fill-rule="evenodd" fill-opacity="1" stroke="none"/>
<path clip-path="url(#clip411)" d="M1562.12 1047.96 L1538.12 1095.96 L1586.12 1095.96 L1562.12 1047.96 Z" fill="#0000ff" fill-rule="evenodd" fill-opacity="1" stroke="none"/>
<path clip-path="url(#clip411)" d="M1597.12 1047.96 L1573.12 1095.96 L1621.12 1095.96 L1597.12 1047.96 Z" fill="#0000ff" fill-rule="evenodd" fill-opacity="1" stroke="none"/>
<path clip-path="url(#clip411)" d="M1632.12 1047.96 L1608.12 1095.96 L1656.12 1095.96 L1632.12 1047.96 Z" fill="#0000ff" fill-rule="evenodd" fill-opacity="1" stroke="none"/>
<path clip-path="url(#clip411)" d="M1667.12 1047.96 L1643.12 1095.96 L1691.12 1095.96 L1667.12 1047.96 Z" fill="#0000ff" fill-rule="evenodd" fill-opacity="1" stroke="none"/>
<path clip-path="url(#clip411)" d="M1702.12 1047.96 L1678.12 1095.96 L1726.12 1095.96 L1702.12 1047.96 Z" fill="#0000ff" fill-rule="evenodd" fill-opacity="1" stroke="none"/>
<path clip-path="url(#clip411)" d="M1737.12 1047.96 L1713.12 1095.96 L1761.12 1095.96 L1737.12 1047.96 Z" fill="#0000ff" fill-rule="evenodd" fill-opacity="1" stroke="none"/>
<path clip-path="url(#clip411)" d="M1772.12 1047.96 L1748.12 1095.96 L1796.12 1095.96 L1772.12 1047.96 Z" fill="#0000ff" fill-rule="evenodd" fill-opacity="1" stroke="none"/>
<path clip-path="url(#clip411)" d="M1807.12 1047.96 L1783.12 1095.96 L1831.12 1095.96 L1807.12 1047.96 Z" fill="#0000ff" fill-rule="evenodd" fill-opacity="1" stroke="none"/>
<path clip-path="url(#clip411)" d="M1842.12 1047.96 L1818.12 1095.96 L1866.12 1095.96 L1842.12 1047.96 Z" fill="#0000ff" fill-rule="evenodd" fill-opacity="1" stroke="none"/>
<path clip-path="url(#clip411)" d="M1877.12 1047.96 L1853.12 1095.96 L1901.12 1095.96 L1877.12 1047.96 Z" fill="#0000ff" fill-rule="evenodd" fill-opacity="1" stroke="none"/>
<path clip-path="url(#clip411)" d="M1912.12 1047.96 L1888.12 1095.96 L1936.12 1095.96 L1912.12 1047.96 Z" fill="#0000ff" fill-rule="evenodd" fill-opacity="1" stroke="none"/>
<path clip-path="url(#clip411)" d="M1947.12 1047.96 L1923.12 1095.96 L1971.12 1095.96 L1947.12 1047.96 Z" fill="#0000ff" fill-rule="evenodd" fill-opacity="1" stroke="none"/>
<path clip-path="url(#clip411)" d="M1982.11 1047.96 L1958.11 1095.96 L2006.11 1095.96 L1982.11 1047.96 Z" fill="#0000ff" fill-rule="evenodd" fill-opacity="1" stroke="none"/>
<path clip-path="url(#clip411)" d="M2017.11 1047.96 L1993.11 1095.96 L2041.11 1095.96 L2017.11 1047.96 Z" fill="#0000ff" fill-rule="evenodd" fill-opacity="1" stroke="none"/>
<path clip-path="url(#clip411)" d="M2052.11 1047.96 L2028.11 1095.96 L2076.11 1095.96 L2052.11 1047.96 Z" fill="#0000ff" fill-rule="evenodd" fill-opacity="1" stroke="none"/>
<path clip-path="url(#clip411)" d="M2087.11 1047.96 L2063.11 1095.96 L2111.11 1095.96 L2087.11 1047.96 Z" fill="#0000ff" fill-rule="evenodd" fill-opacity="1" stroke="none"/>
<path clip-path="url(#clip411)" d="M2122.11 1047.96 L2098.11 1095.96 L2146.11 1095.96 L2122.11 1047.96 Z" fill="#0000ff" fill-rule="evenodd" fill-opacity="1" stroke="none"/>
<path clip-path="url(#clip411)" d="M2157.11 1047.96 L2133.11 1095.96 L2181.11 1095.96 L2157.11 1047.96 Z" fill="#0000ff" fill-rule="evenodd" fill-opacity="1" stroke="none"/>
<path clip-path="url(#clip411)" d="M2192.11 1047.96 L2168.11 1095.96 L2216.11 1095.96 L2192.11 1047.96 Z" fill="#0000ff" fill-rule="evenodd" fill-opacity="1" stroke="none"/>
<path clip-path="url(#clip411)" d="M2227.11 1047.96 L2203.11 1095.96 L2251.11 1095.96 L2227.11 1047.96 Z" fill="#0000ff" fill-rule="evenodd" fill-opacity="1" stroke="none"/>
<path clip-path="url(#clip411)" d="M2262.11 1047.96 L2238.11 1095.96 L2286.11 1095.96 L2262.11 1047.96 Z" fill="#0000ff" fill-rule="evenodd" fill-opacity="1" stroke="none"/>
<path clip-path="url(#clip411)" d="M2297.11 1047.96 L2273.11 1095.96 L2321.11 1095.96 L2297.11 1047.96 Z" fill="#0000ff" fill-rule="evenodd" fill-opacity="1" stroke="none"/>
<path clip-path="url(#clip410)" d="M1677 513.23 L2287.21 513.23 L2287.21 163.31 L1677 163.31  Z" fill="#ffffff" fill-rule="evenodd" fill-opacity="1"/>
<polyline clip-path="url(#clip410)" style="stroke:#000000; stroke-linecap:round; stroke-linejoin:round; stroke-width:4; stroke-opacity:1; fill:none" points="1677,513.23 2287.21,513.23 2287.21,163.31 1677,163.31 1677,513.23 "/>
<path clip-path="url(#clip410)" d="M1817.56 226.781 L1711.22 226.781 L1764.39 333.119 L1817.56 226.781 Z" fill="#ff0000" fill-rule="evenodd" fill-opacity="1" stroke="none"/>
<path clip-path="url(#clip410)" d="M1851.78 241.07 L1863.08 241.07 L1884.64 273.049 L1906.05 241.07 L1917.35 241.07 L1889.85 281.799 L1889.85 318.83 L1879.28 318.83 L1879.28 281.799 L1851.78 241.07 Z" fill="#000000" fill-rule="nonzero" fill-opacity="1" /><path clip-path="url(#clip410)" d="M1984.12 237.893 Q1977.14 249.872 1973.75 261.591 Q1970.37 273.309 1970.37 285.341 Q1970.37 297.372 1973.75 309.195 Q1977.19 320.965 1984.12 332.892 L1975.79 332.892 Q1967.97 320.653 1964.07 308.83 Q1960.21 297.007 1960.21 285.341 Q1960.21 273.726 1964.07 261.955 Q1967.92 250.185 1975.79 237.893 L1984.12 237.893 Z" fill="#000000" fill-rule="nonzero" fill-opacity="1" /><path clip-path="url(#clip410)" d="M2041.1 269.351 L2041.1 237.789 L2050.68 237.789 L2050.68 318.83 L2041.1 318.83 L2041.1 310.08 Q2038.08 315.288 2033.44 317.84 Q2028.86 320.34 2022.4 320.34 Q2011.83 320.34 2005.16 311.903 Q1998.55 303.465 1998.55 289.716 Q1998.55 275.966 2005.16 267.528 Q2011.83 259.091 2022.4 259.091 Q2028.86 259.091 2033.44 261.643 Q2038.08 264.143 2041.1 269.351 M2008.44 289.716 Q2008.44 300.288 2012.76 306.33 Q2017.14 312.32 2024.74 312.32 Q2032.35 312.32 2036.72 306.33 Q2041.1 300.288 2041.1 289.716 Q2041.1 279.143 2036.72 273.153 Q2032.35 267.112 2024.74 267.112 Q2017.14 267.112 2012.76 273.153 Q2008.44 279.143 2008.44 289.716 Z" fill="#000000" fill-rule="nonzero" fill-opacity="1" /><path clip-path="url(#clip410)" d="M2096.93 289.507 Q2085.32 289.507 2080.84 292.163 Q2076.36 294.82 2076.36 301.226 Q2076.36 306.33 2079.69 309.351 Q2083.08 312.32 2088.86 312.32 Q2096.83 312.32 2101.62 306.695 Q2106.46 301.018 2106.46 291.643 L2106.46 289.507 L2096.93 289.507 M2116.04 285.549 L2116.04 318.83 L2106.46 318.83 L2106.46 309.976 Q2103.18 315.288 2098.28 317.84 Q2093.39 320.34 2086.31 320.34 Q2077.35 320.34 2072.03 315.34 Q2066.77 310.288 2066.77 301.851 Q2066.77 292.007 2073.34 287.007 Q2079.95 282.007 2093.02 282.007 L2106.46 282.007 L2106.46 281.07 Q2106.46 274.455 2102.09 270.861 Q2097.76 267.216 2089.9 267.216 Q2084.9 267.216 2080.16 268.414 Q2075.42 269.611 2071.04 272.007 L2071.04 263.153 Q2076.31 261.122 2081.25 260.132 Q2086.2 259.091 2090.89 259.091 Q2103.54 259.091 2109.79 265.653 Q2116.04 272.216 2116.04 285.549 Z" fill="#000000" fill-rule="nonzero" fill-opacity="1" /><path clip-path="url(#clip410)" d="M2145.26 243.935 L2145.26 260.497 L2165 260.497 L2165 267.945 L2145.26 267.945 L2145.26 299.611 Q2145.26 306.747 2147.19 308.778 Q2149.17 310.809 2155.16 310.809 L2165 310.809 L2165 318.83 L2155.16 318.83 Q2144.07 318.83 2139.85 314.715 Q2135.63 310.549 2135.63 299.611 L2135.63 267.945 L2128.6 267.945 L2128.6 260.497 L2135.63 260.497 L2135.63 243.935 L2145.26 243.935 Z" fill="#000000" fill-rule="nonzero" fill-opacity="1" /><path clip-path="url(#clip410)" d="M2204.12 289.507 Q2192.5 289.507 2188.02 292.163 Q2183.54 294.82 2183.54 301.226 Q2183.54 306.33 2186.88 309.351 Q2190.26 312.32 2196.04 312.32 Q2204.01 312.32 2208.8 306.695 Q2213.65 301.018 2213.65 291.643 L2213.65 289.507 L2204.12 289.507 M2223.23 285.549 L2223.23 318.83 L2213.65 318.83 L2213.65 309.976 Q2210.37 315.288 2205.47 317.84 Q2200.58 320.34 2193.49 320.34 Q2184.53 320.34 2179.22 315.34 Q2173.96 310.288 2173.96 301.851 Q2173.96 292.007 2180.52 287.007 Q2187.14 282.007 2200.21 282.007 L2213.65 282.007 L2213.65 281.07 Q2213.65 274.455 2209.27 270.861 Q2204.95 267.216 2197.09 267.216 Q2192.09 267.216 2187.35 268.414 Q2182.61 269.611 2178.23 272.007 L2178.23 263.153 Q2183.49 261.122 2188.44 260.132 Q2193.39 259.091 2198.08 259.091 Q2210.73 259.091 2216.98 265.653 Q2223.23 272.216 2223.23 285.549 Z" fill="#000000" fill-rule="nonzero" fill-opacity="1" /><path clip-path="url(#clip410)" d="M2241.46 237.893 L2249.79 237.893 Q2257.61 250.185 2261.46 261.955 Q2265.37 273.726 2265.37 285.341 Q2265.37 297.007 2261.46 308.83 Q2257.61 320.653 2249.79 332.892 L2241.46 332.892 Q2248.39 320.965 2251.77 309.195 Q2255.21 297.372 2255.21 285.341 Q2255.21 273.309 2251.77 261.591 Q2248.39 249.872 2241.46 237.893 Z" fill="#000000" fill-rule="nonzero" fill-opacity="1" /><path clip-path="url(#clip410)" d="M1764.39 343.421 L1711.22 449.759 L1817.56 449.759 L1764.39 343.421 Z" fill="#0000ff" fill-rule="evenodd" fill-opacity="1" stroke="none"/>
<path clip-path="url(#clip410)" d="M1855.32 357.71 L1866.62 357.71 L1885.94 386.616 L1905.37 357.71 L1916.67 357.71 L1891.67 395.054 L1918.34 435.47 L1907.04 435.47 L1885.16 402.397 L1863.13 435.47 L1851.78 435.47 L1879.54 393.96 L1855.32 357.71 Z" fill="#000000" fill-rule="nonzero" fill-opacity="1" /><path clip-path="url(#clip410)" d="M1941.2 360.575 L1941.2 377.137 L1960.94 377.137 L1960.94 384.585 L1941.2 384.585 L1941.2 416.251 Q1941.2 423.387 1943.13 425.418 Q1945.11 427.449 1951.1 427.449 L1960.94 427.449 L1960.94 435.47 L1951.1 435.47 Q1940 435.47 1935.79 431.355 Q1931.57 427.189 1931.57 416.251 L1931.57 384.585 L1924.54 384.585 L1924.54 377.137 L1931.57 377.137 L1931.57 360.575 L1941.2 360.575 Z" fill="#000000" fill-rule="nonzero" fill-opacity="1" /><path clip-path="url(#clip410)" d="M2007.35 386.095 Q2005.73 385.158 2003.81 384.741 Q2001.93 384.272 1999.64 384.272 Q1991.51 384.272 1987.14 389.585 Q1982.82 394.845 1982.82 404.741 L1982.82 435.47 L1973.18 435.47 L1973.18 377.137 L1982.82 377.137 L1982.82 386.199 Q1985.84 380.887 1990.68 378.335 Q1995.52 375.731 2002.45 375.731 Q2003.44 375.731 2004.64 375.887 Q2005.84 375.991 2007.3 376.252 L2007.35 386.095 Z" fill="#000000" fill-rule="nonzero" fill-opacity="1" /><path clip-path="url(#clip410)" d="M2016.41 412.449 L2016.41 377.137 L2025.99 377.137 L2025.99 412.085 Q2025.99 420.366 2029.22 424.533 Q2032.45 428.647 2038.91 428.647 Q2046.67 428.647 2051.15 423.699 Q2055.68 418.751 2055.68 410.21 L2055.68 377.137 L2065.26 377.137 L2065.26 435.47 L2055.68 435.47 L2055.68 426.512 Q2052.19 431.824 2047.56 434.428 Q2042.97 436.98 2036.88 436.98 Q2026.83 436.98 2021.62 430.73 Q2016.41 424.48 2016.41 412.449 M2040.52 375.731 L2040.52 375.731 Z" fill="#000000" fill-rule="nonzero" fill-opacity="1" /><path clip-path="url(#clip410)" d="M2134.9 403.908 L2134.9 408.595 L2090.84 408.595 Q2091.46 418.491 2096.77 423.699 Q2102.14 428.855 2111.67 428.855 Q2117.19 428.855 2122.35 427.501 Q2127.56 426.147 2132.66 423.439 L2132.66 432.501 Q2127.5 434.689 2122.09 435.835 Q2116.67 436.98 2111.1 436.98 Q2097.14 436.98 2088.96 428.855 Q2080.84 420.73 2080.84 406.876 Q2080.84 392.554 2088.54 384.168 Q2096.31 375.731 2109.43 375.731 Q2121.2 375.731 2128.02 383.335 Q2134.9 390.887 2134.9 403.908 M2125.32 401.095 Q2125.21 393.231 2120.89 388.543 Q2116.62 383.856 2109.53 383.856 Q2101.51 383.856 2096.67 388.387 Q2091.88 392.918 2091.15 401.147 L2125.32 401.095 Z" fill="#000000" fill-rule="nonzero" fill-opacity="1" /></svg>
