<?xml version="1.0" encoding="utf-8"?>
<svg xmlns="http://www.w3.org/2000/svg" xmlns:xlink="http://www.w3.org/1999/xlink" width="600" height="350" viewBox="0 0 2400 1400">
<defs>
  <clipPath id="clip140">
    <rect x="0" y="0" width="2400" height="1400"/>
  </clipPath>
</defs>
<path clip-path="url(#clip140)" d="M0 1400 L2400 1400 L2400 0 L0 0  Z" fill="#ffffff" fill-rule="evenodd" fill-opacity="1"/>
<defs>
  <clipPath id="clip141">
    <rect x="384" y="131" width="1969" height="969"/>
  </clipPath>
</defs>
<path clip-path="url(#clip140)" d="M384.476 1099.37 L2352.76 1099.37 L2352.76 131.032 L384.476 131.032  Z" fill="#ffffff" fill-rule="evenodd" fill-opacity="1"/>
<polyline clip-path="url(#clip141)" style="stroke:#000000; stroke-linecap:round; stroke-linejoin:round; stroke-width:2; stroke-opacity:0.1; fill:none" points="440.182,1099.37 440.182,131.032 "/>
<polyline clip-path="url(#clip141)" style="stroke:#000000; stroke-linecap:round; stroke-linejoin:round; stroke-width:2; stroke-opacity:0.1; fill:none" points="510.253,1099.37 510.253,131.032 "/>
<polyline clip-path="url(#clip141)" style="stroke:#000000; stroke-linecap:round; stroke-linejoin:round; stroke-width:2; stroke-opacity:0.1; fill:none" points="615.359,1099.37 615.359,131.032 "/>
<polyline clip-path="url(#clip141)" style="stroke:#000000; stroke-linecap:round; stroke-linejoin:round; stroke-width:2; stroke-opacity:0.1; fill:none" points="2297.05,1099.37 2297.05,131.032 "/>
<polyline clip-path="url(#clip141)" style="stroke:#000000; stroke-linecap:round; stroke-linejoin:round; stroke-width:2; stroke-opacity:0.1; fill:none" points="384.476,1071.96 2352.76,1071.96 "/>
<polyline clip-path="url(#clip141)" style="stroke:#000000; stroke-linecap:round; stroke-linejoin:round; stroke-width:2; stroke-opacity:0.1; fill:none" points="384.476,823.24 2352.76,823.24 "/>
<polyline clip-path="url(#clip141)" style="stroke:#000000; stroke-linecap:round; stroke-linejoin:round; stroke-width:2; stroke-opacity:0.1; fill:none" points="384.476,574.518 2352.76,574.518 "/>
<polyline clip-path="url(#clip141)" style="stroke:#000000; stroke-linecap:round; stroke-linejoin:round; stroke-width:2; stroke-opacity:0.1; fill:none" points="384.476,325.796 2352.76,325.796 "/>
<polyline clip-path="url(#clip140)" style="stroke:#000000; stroke-linecap:round; stroke-linejoin:round; stroke-width:4; stroke-opacity:1; fill:none" points="384.476,1099.37 2352.76,1099.37 "/>
<polyline clip-path="url(#clip140)" style="stroke:#000000; stroke-linecap:round; stroke-linejoin:round; stroke-width:4; stroke-opacity:1; fill:none" points="440.182,1099.37 440.182,1080.47 "/>
<polyline clip-path="url(#clip140)" style="stroke:#000000; stroke-linecap:round; stroke-linejoin:round; stroke-width:4; stroke-opacity:1; fill:none" points="510.253,1099.37 510.253,1080.47 "/>
<polyline clip-path="url(#clip140)" style="stroke:#000000; stroke-linecap:round; stroke-linejoin:round; stroke-width:4; stroke-opacity:1; fill:none" points="615.359,1099.37 615.359,1080.47 "/>
<polyline clip-path="url(#clip140)" style="stroke:#000000; stroke-linecap:round; stroke-linejoin:round; stroke-width:4; stroke-opacity:1; fill:none" points="2297.05,1099.37 2297.05,1080.47 "/>
<path clip-path="url(#clip140)" d="M423.351 1187.28 L436.719 1187.28 L436.719 1141.14 L422.176 1144.06 L422.176 1136.6 L436.638 1133.69 L444.821 1133.69 L444.821 1187.28 L458.189 1187.28 L458.189 1194.17 L423.351 1194.17 L423.351 1187.28 Z" fill="#000000" fill-rule="nonzero" fill-opacity="1" /><path clip-path="url(#clip140)" d="M517.686 1161.56 Q523.56 1162.81 526.841 1166.78 Q530.163 1170.75 530.163 1176.59 Q530.163 1185.54 524.006 1190.44 Q517.848 1195.34 506.506 1195.34 Q502.698 1195.34 498.647 1194.57 Q494.637 1193.84 490.343 1192.34 L490.343 1184.45 Q493.745 1186.43 497.796 1187.44 Q501.847 1188.46 506.263 1188.46 Q513.959 1188.46 517.97 1185.42 Q522.021 1182.38 522.021 1176.59 Q522.021 1171.24 518.253 1168.24 Q514.527 1165.2 507.843 1165.2 L500.794 1165.2 L500.794 1158.48 L508.167 1158.48 Q514.203 1158.48 517.403 1156.09 Q520.603 1153.66 520.603 1149.12 Q520.603 1144.46 517.281 1141.99 Q514 1139.48 507.843 1139.48 Q504.48 1139.48 500.632 1140.21 Q496.784 1140.94 492.166 1142.48 L492.166 1135.19 Q496.824 1133.89 500.875 1133.24 Q504.966 1132.59 508.572 1132.59 Q517.889 1132.59 523.317 1136.85 Q528.745 1141.06 528.745 1148.27 Q528.745 1153.29 525.869 1156.78 Q522.993 1160.22 517.686 1161.56 Z" fill="#000000" fill-rule="nonzero" fill-opacity="1" /><path clip-path="url(#clip140)" d="M616.067 1160.67 Q610.558 1160.67 607.318 1164.43 Q604.117 1168.2 604.117 1174.76 Q604.117 1181.29 607.318 1185.09 Q610.558 1188.86 616.067 1188.86 Q621.577 1188.86 624.777 1185.09 Q628.018 1181.29 628.018 1174.76 Q628.018 1168.2 624.777 1164.43 Q621.577 1160.67 616.067 1160.67 M632.312 1135.02 L632.312 1142.48 Q629.233 1141.02 626.073 1140.25 Q622.954 1139.48 619.875 1139.48 Q611.774 1139.48 607.48 1144.95 Q603.226 1150.42 602.618 1161.48 Q605.009 1157.95 608.614 1156.09 Q612.219 1154.19 616.554 1154.19 Q625.668 1154.19 630.934 1159.74 Q636.241 1165.24 636.241 1174.76 Q636.241 1184.08 630.732 1189.71 Q625.223 1195.34 616.067 1195.34 Q605.576 1195.34 600.026 1187.32 Q594.476 1179.26 594.476 1163.99 Q594.476 1149.65 601.282 1141.14 Q608.087 1132.59 619.551 1132.59 Q622.63 1132.59 625.749 1133.2 Q628.909 1133.81 632.312 1135.02 Z" fill="#000000" fill-rule="nonzero" fill-opacity="1" /><path clip-path="url(#clip140)" d="M2252.35 1133.69 L2284.47 1133.69 L2284.47 1140.57 L2259.84 1140.57 L2259.84 1155.4 Q2261.62 1154.79 2263.41 1154.51 Q2265.19 1154.19 2266.97 1154.19 Q2277.1 1154.19 2283.01 1159.74 Q2288.93 1165.28 2288.93 1174.76 Q2288.93 1184.53 2282.85 1189.95 Q2276.78 1195.34 2265.72 1195.34 Q2261.91 1195.34 2257.94 1194.69 Q2254.01 1194.05 2249.8 1192.75 L2249.8 1184.53 Q2253.44 1186.51 2257.33 1187.48 Q2261.22 1188.46 2265.55 1188.46 Q2272.56 1188.46 2276.65 1184.77 Q2280.74 1181.08 2280.74 1174.76 Q2280.74 1168.44 2276.65 1164.76 Q2272.56 1161.07 2265.55 1161.07 Q2262.27 1161.07 2258.99 1161.8 Q2255.75 1162.53 2252.35 1164.07 L2252.35 1133.69 Z" fill="#000000" fill-rule="nonzero" fill-opacity="1" /><path clip-path="url(#clip140)" d="M2327.53 1140.82 L2306.87 1173.1 L2327.53 1173.1 L2327.53 1140.82 M2325.39 1133.69 L2335.68 1133.69 L2335.68 1173.1 L2344.3 1173.1 L2344.3 1179.91 L2335.68 1179.91 L2335.68 1194.17 L2327.53 1194.17 L2327.53 1179.91 L2300.23 1179.91 L2300.23 1172.01 L2325.39 1133.69 Z" fill="#000000" fill-rule="nonzero" fill-opacity="1" /><path clip-path="url(#clip140)" d="M1396.62 1282.42 Q1396.62 1286.42 1394.17 1288.81 Q1391.78 1291.2 1388.75 1291.2 Q1386.08 1291.2 1384.68 1289.65 Q1383.27 1288.11 1383.27 1286.14 Q1383.27 1285.3 1383.63 1284.24 Q1383.98 1283.12 1384.75 1281.78 Q1385.59 1280.45 1387.35 1279.47 Q1389.11 1278.48 1391.5 1278.34 Q1391 1277.85 1390.86 1277.78 Q1389.81 1276.94 1387.84 1276.65 Q1387.56 1276.51 1386.58 1276.51 Q1381.73 1276.51 1376.81 1280.1 Q1371.96 1283.61 1365.99 1290.29 Q1358.47 1298.09 1353.62 1300.97 Q1374.91 1303.78 1374.91 1316.07 Q1374.91 1318.11 1374.35 1320.57 Q1373.23 1325.21 1373.23 1328.58 Q1373.23 1335.33 1377.79 1335.33 Q1382.22 1335.33 1385.03 1330.83 Q1387.91 1326.33 1390.3 1317.55 Q1390.65 1315.93 1391 1315.44 Q1391.35 1314.95 1392.34 1314.95 Q1394.1 1314.95 1394.1 1316.36 Q1392.48 1324.58 1388.9 1330.9 Q1384.33 1338.56 1377.51 1338.56 Q1371.82 1338.56 1368.03 1334.63 Q1364.3 1330.62 1364.3 1324.3 Q1364.3 1322.75 1364.86 1319.24 Q1365.29 1317.83 1365.29 1316.22 Q1365.29 1312.91 1363.46 1310.45 Q1361.63 1307.92 1358.68 1306.66 Q1355.73 1305.39 1353.27 1304.83 Q1350.88 1304.2 1348.56 1303.99 Q1341.54 1333.71 1340.55 1335.54 Q1339.92 1336.8 1338.51 1337.65 Q1337.11 1338.56 1335.63 1338.56 Q1334.23 1338.56 1332.82 1337.58 Q1331.49 1336.66 1331.49 1334.48 Q1331.49 1333.36 1332.05 1331.32 L1352.92 1248.41 L1353.34 1245.6 Q1353.34 1244.75 1352.99 1244.33 Q1352.71 1243.84 1351.02 1243.49 Q1349.41 1243.14 1346.17 1243.14 Q1344.84 1243.14 1344.21 1243.07 Q1343.64 1243 1343.15 1242.65 Q1342.66 1242.22 1342.66 1241.38 Q1342.66 1240.19 1343.15 1239.55 Q1343.71 1238.85 1344.14 1238.71 Q1344.56 1238.57 1345.4 1238.5 Q1346.59 1238.43 1350.6 1238.08 Q1354.6 1237.66 1358.05 1237.38 Q1361.49 1237.09 1362.97 1237.09 Q1363.81 1237.09 1364.23 1237.52 Q1364.72 1237.87 1364.79 1238.29 L1364.86 1238.64 L1349.9 1299.35 Q1356.08 1296.89 1365.85 1286 Q1377.16 1273.35 1386.86 1273.35 Q1391.43 1273.35 1394.02 1276.16 Q1396.62 1278.9 1396.62 1282.42 Z" fill="#000000" fill-rule="nonzero" fill-opacity="1" /><polyline clip-path="url(#clip140)" style="stroke:#000000; stroke-linecap:round; stroke-linejoin:round; stroke-width:4; stroke-opacity:1; fill:none" points="384.476,1099.37 384.476,131.032 "/>
<polyline clip-path="url(#clip140)" style="stroke:#000000; stroke-linecap:round; stroke-linejoin:round; stroke-width:4; stroke-opacity:1; fill:none" points="384.476,1071.96 403.374,1071.96 "/>
<polyline clip-path="url(#clip140)" style="stroke:#000000; stroke-linecap:round; stroke-linejoin:round; stroke-width:4; stroke-opacity:1; fill:none" points="384.476,823.24 403.374,823.24 "/>
<polyline clip-path="url(#clip140)" style="stroke:#000000; stroke-linecap:round; stroke-linejoin:round; stroke-width:4; stroke-opacity:1; fill:none" points="384.476,574.518 403.374,574.518 "/>
<polyline clip-path="url(#clip140)" style="stroke:#000000; stroke-linecap:round; stroke-linejoin:round; stroke-width:4; stroke-opacity:1; fill:none" points="384.476,325.796 403.374,325.796 "/>
<path clip-path="url(#clip140)" d="M327.574 1047.11 Q321.254 1047.11 318.054 1053.35 Q314.894 1059.55 314.894 1072.02 Q314.894 1084.46 318.054 1090.7 Q321.254 1096.9 327.574 1096.9 Q333.934 1096.9 337.093 1090.7 Q340.294 1084.46 340.294 1072.02 Q340.294 1059.55 337.093 1053.35 Q333.934 1047.11 327.574 1047.11 M327.574 1040.63 Q337.741 1040.63 343.089 1048.69 Q348.476 1056.71 348.476 1072.02 Q348.476 1087.29 343.089 1095.36 Q337.741 1103.38 327.574 1103.38 Q317.406 1103.38 312.018 1095.36 Q306.671 1087.29 306.671 1072.02 Q306.671 1056.71 312.018 1048.69 Q317.406 1040.63 327.574 1040.63 Z" fill="#000000" fill-rule="nonzero" fill-opacity="1" /><path clip-path="url(#clip140)" d="M205.925 846.593 L219.293 846.593 L219.293 800.454 L204.75 803.37 L204.75 795.917 L219.212 793 L227.395 793 L227.395 846.593 L240.763 846.593 L240.763 853.48 L205.925 853.48 L205.925 846.593 Z" fill="#000000" fill-rule="nonzero" fill-opacity="1" /><path clip-path="url(#clip140)" d="M274.79 798.388 Q268.471 798.388 265.271 804.626 Q262.111 810.824 262.111 823.301 Q262.111 835.737 265.271 841.975 Q268.471 848.173 274.79 848.173 Q281.15 848.173 284.31 841.975 Q287.51 835.737 287.51 823.301 Q287.51 810.824 284.31 804.626 Q281.15 798.388 274.79 798.388 M274.79 791.906 Q284.958 791.906 290.305 799.968 Q295.693 807.988 295.693 823.301 Q295.693 838.573 290.305 846.634 Q284.958 854.655 274.79 854.655 Q264.623 854.655 259.235 846.634 Q253.888 838.573 253.888 823.301 Q253.888 807.988 259.235 799.968 Q264.623 791.906 274.79 791.906 Z" fill="#000000" fill-rule="nonzero" fill-opacity="1" /><path clip-path="url(#clip140)" d="M327.574 798.388 Q321.254 798.388 318.054 804.626 Q314.894 810.824 314.894 823.301 Q314.894 835.737 318.054 841.975 Q321.254 848.173 327.574 848.173 Q333.934 848.173 337.093 841.975 Q340.294 835.737 340.294 823.301 Q340.294 810.824 337.093 804.626 Q333.934 798.388 327.574 798.388 M327.574 791.906 Q337.741 791.906 343.089 799.968 Q348.476 807.988 348.476 823.301 Q348.476 838.573 343.089 846.634 Q337.741 854.655 327.574 854.655 Q317.406 854.655 312.018 846.634 Q306.671 838.573 306.671 823.301 Q306.671 807.988 312.018 799.968 Q317.406 791.906 327.574 791.906 Z" fill="#000000" fill-rule="nonzero" fill-opacity="1" /><path clip-path="url(#clip140)" d="M211.556 597.871 L240.115 597.871 L240.115 604.758 L201.712 604.758 L201.712 597.871 Q206.371 593.051 214.391 584.949 Q222.453 576.807 224.519 574.457 Q228.448 570.042 229.987 567.003 Q231.567 563.925 231.567 560.967 Q231.567 556.147 228.165 553.109 Q224.802 550.071 219.374 550.071 Q215.526 550.071 211.232 551.407 Q206.978 552.744 202.117 555.458 L202.117 547.194 Q207.059 545.209 211.353 544.197 Q215.647 543.184 219.212 543.184 Q228.61 543.184 234.2 547.883 Q239.791 552.582 239.791 560.441 Q239.791 564.168 238.373 567.53 Q236.996 570.852 233.309 575.389 Q232.296 576.563 226.868 582.194 Q221.44 587.784 211.556 597.871 Z" fill="#000000" fill-rule="nonzero" fill-opacity="1" /><path clip-path="url(#clip140)" d="M274.79 549.665 Q268.471 549.665 265.271 555.904 Q262.111 562.102 262.111 574.579 Q262.111 587.015 265.271 593.253 Q268.471 599.451 274.79 599.451 Q281.15 599.451 284.31 593.253 Q287.51 587.015 287.51 574.579 Q287.51 562.102 284.31 555.904 Q281.15 549.665 274.79 549.665 M274.79 543.184 Q284.958 543.184 290.305 551.245 Q295.693 559.266 295.693 574.579 Q295.693 589.85 290.305 597.912 Q284.958 605.933 274.79 605.933 Q264.623 605.933 259.235 597.912 Q253.888 589.85 253.888 574.579 Q253.888 559.266 259.235 551.245 Q264.623 543.184 274.79 543.184 Z" fill="#000000" fill-rule="nonzero" fill-opacity="1" /><path clip-path="url(#clip140)" d="M327.574 549.665 Q321.254 549.665 318.054 555.904 Q314.894 562.102 314.894 574.579 Q314.894 587.015 318.054 593.253 Q321.254 599.451 327.574 599.451 Q333.934 599.451 337.093 593.253 Q340.294 587.015 340.294 574.579 Q340.294 562.102 337.093 555.904 Q333.934 549.665 327.574 549.665 M327.574 543.184 Q337.741 543.184 343.089 551.245 Q348.476 559.266 348.476 574.579 Q348.476 589.85 343.089 597.912 Q337.741 605.933 327.574 605.933 Q317.406 605.933 312.018 597.912 Q306.671 589.85 306.671 574.579 Q306.671 559.266 312.018 551.245 Q317.406 543.184 327.574 543.184 Z" fill="#000000" fill-rule="nonzero" fill-opacity="1" /><path clip-path="url(#clip140)" d="M229.299 323.426 Q235.173 324.682 238.454 328.651 Q241.776 332.621 241.776 338.455 Q241.776 347.407 235.618 352.309 Q229.461 357.21 218.118 357.21 Q214.31 357.21 210.26 356.441 Q206.249 355.711 201.955 354.213 L201.955 346.313 Q205.358 348.298 209.409 349.311 Q213.46 350.324 217.875 350.324 Q225.572 350.324 229.582 347.286 Q233.633 344.247 233.633 338.455 Q233.633 333.107 229.866 330.11 Q226.139 327.072 219.455 327.072 L212.407 327.072 L212.407 320.347 L219.779 320.347 Q225.815 320.347 229.015 317.957 Q232.215 315.527 232.215 310.99 Q232.215 306.331 228.894 303.86 Q225.612 301.348 219.455 301.348 Q216.093 301.348 212.244 302.078 Q208.396 302.807 203.778 304.346 L203.778 297.054 Q208.437 295.758 212.488 295.11 Q216.579 294.462 220.184 294.462 Q229.501 294.462 234.93 298.715 Q240.358 302.928 240.358 310.139 Q240.358 315.162 237.482 318.646 Q234.605 322.089 229.299 323.426 Z" fill="#000000" fill-rule="nonzero" fill-opacity="1" /><path clip-path="url(#clip140)" d="M274.79 300.943 Q268.471 300.943 265.271 307.182 Q262.111 313.38 262.111 325.856 Q262.111 338.293 265.271 344.531 Q268.471 350.729 274.79 350.729 Q281.15 350.729 284.31 344.531 Q287.51 338.293 287.51 325.856 Q287.51 313.38 284.31 307.182 Q281.15 300.943 274.79 300.943 M274.79 294.462 Q284.958 294.462 290.305 302.523 Q295.693 310.544 295.693 325.856 Q295.693 341.128 290.305 349.19 Q284.958 357.21 274.79 357.21 Q264.623 357.21 259.235 349.19 Q253.888 341.128 253.888 325.856 Q253.888 310.544 259.235 302.523 Q264.623 294.462 274.79 294.462 Z" fill="#000000" fill-rule="nonzero" fill-opacity="1" /><path clip-path="url(#clip140)" d="M327.574 300.943 Q321.254 300.943 318.054 307.182 Q314.894 313.38 314.894 325.856 Q314.894 338.293 318.054 344.531 Q321.254 350.729 327.574 350.729 Q333.934 350.729 337.093 344.531 Q340.294 338.293 340.294 325.856 Q340.294 313.38 337.093 307.182 Q333.934 300.943 327.574 300.943 M327.574 294.462 Q337.741 294.462 343.089 302.523 Q348.476 310.544 348.476 325.856 Q348.476 341.128 343.089 349.19 Q337.741 357.21 327.574 357.21 Q317.406 357.21 312.018 349.19 Q306.671 341.128 306.671 325.856 Q306.671 310.544 312.018 302.523 Q317.406 294.462 327.574 294.462 Z" fill="#000000" fill-rule="nonzero" fill-opacity="1" /><path clip-path="url(#clip140)" d="M53.506 614.715 Q58.4247 614.715 58.4247 621.742 L58.4247 637.552 Q64.7488 633.125 74.0943 633.125 Q82.1048 633.125 89.6234 636.428 Q97.0718 639.66 102.272 644.86 Q107.471 649.989 110.633 656.454 Q113.725 662.919 113.725 669.243 Q113.725 678.869 107.19 684.842 Q100.655 690.815 90.9585 690.815 Q85.829 690.815 80.1373 689.058 Q74.4457 687.231 69.1756 683.788 Q63.8353 680.345 59.549 675.848 Q55.2627 671.28 52.6628 665.378 Q50.0629 659.405 50.0629 653.151 L50.0629 620.337 Q50.0629 618.58 50.2034 617.666 Q50.2737 616.683 51.1169 615.699 Q51.8899 614.715 53.506 614.715 M72.4079 642.33 Q70.7215 642.33 69.2459 642.541 Q67.7 642.752 65.6623 643.525 Q63.5542 644.298 62.0786 645.633 Q60.5327 646.968 59.4787 649.568 Q58.4247 652.097 58.4247 655.54 Q58.4247 660.389 61.0949 665.729 Q63.765 671.07 70.3702 675.145 Q75.9916 678.518 83.2994 680.204 Q90.6072 681.891 94.9637 681.891 Q102.412 681.891 106.488 678.307 Q110.493 674.653 110.493 669.102 Q110.493 664.535 107.401 659.335 Q104.239 654.135 98.2663 650.13 Q93.0665 646.617 85.4777 644.509 Q77.8888 642.33 72.4079 642.33 Z" fill="#000000" fill-rule="nonzero" fill-opacity="1" /><path clip-path="url(#clip140)" d="M117.068 554.499 Q119.871 554.499 121.544 556.22 Q123.216 557.893 123.216 560.008 Q123.216 561.877 122.134 562.861 Q121.052 563.844 119.674 563.844 Q119.084 563.844 118.346 563.598 Q117.559 563.353 116.625 562.811 Q115.69 562.221 115.002 560.992 Q114.313 559.762 114.215 558.09 Q113.87 558.434 113.821 558.532 Q113.231 559.27 113.034 560.647 Q112.936 560.844 112.936 561.533 Q112.936 564.927 115.444 568.37 Q117.904 571.764 122.577 575.944 Q128.036 581.207 130.053 584.601 Q132.02 569.698 140.628 569.698 Q142.055 569.698 143.776 570.091 Q147.023 570.878 149.384 570.878 Q154.105 570.878 154.105 567.681 Q154.105 564.582 150.958 562.615 Q147.81 560.598 141.661 558.926 Q140.53 558.68 140.186 558.434 Q139.841 558.188 139.841 557.499 Q139.841 556.27 140.825 556.27 Q146.58 557.401 151.007 559.909 Q156.368 563.107 156.368 567.878 Q156.368 571.862 153.614 574.518 Q150.81 577.125 146.383 577.125 Q145.301 577.125 142.842 576.731 Q141.858 576.436 140.727 576.436 Q138.415 576.436 136.693 577.715 Q134.922 578.994 134.037 581.06 Q133.152 583.126 132.758 584.847 Q132.316 586.52 132.168 588.143 Q152.974 593.062 154.253 593.75 Q155.138 594.193 155.729 595.177 Q156.368 596.16 156.368 597.193 Q156.368 598.177 155.679 599.161 Q155.04 600.095 153.515 600.095 Q152.728 600.095 151.302 599.702 L93.261 585.093 L91.2935 584.798 Q90.7033 584.798 90.4081 585.044 Q90.0638 585.241 89.8179 586.421 Q89.572 587.553 89.572 589.815 Q89.572 590.75 89.5228 591.192 Q89.4736 591.586 89.2276 591.93 Q88.9325 592.275 88.3423 592.275 Q87.5061 592.275 87.0634 591.93 Q86.5715 591.537 86.4732 591.242 Q86.3748 590.947 86.3256 590.356 Q86.2764 589.52 86.0305 586.716 Q85.7354 583.913 85.5386 581.503 Q85.3419 579.092 85.3419 578.059 Q85.3419 577.469 85.637 577.174 Q85.8829 576.83 86.178 576.781 L86.424 576.731 L128.922 587.208 Q127.2 582.88 119.576 576.043 Q110.722 568.124 110.722 561.336 Q110.722 558.139 112.69 556.319 Q114.608 554.499 117.068 554.499 Z" fill="#000000" fill-rule="nonzero" fill-opacity="1" /><path clip-path="url(#clip140)" d="M1014.82 18.1041 L1014.82 28.3644 Q1008.83 25.4999 1003.51 24.0936 Q998.201 22.6874 993.254 22.6874 Q984.66 22.6874 979.972 26.0207 Q975.337 29.354 975.337 35.4998 Q975.337 40.656 978.41 43.3123 Q981.535 45.9164 990.181 47.531 L996.535 48.8331 Q1008.31 51.0726 1013.88 56.7497 Q1019.5 62.3747 1019.5 71.8538 Q1019.5 83.1558 1011.9 88.9891 Q1004.35 94.8224 989.712 94.8224 Q984.191 94.8224 977.941 93.5724 Q971.743 92.3224 965.077 89.8745 L965.077 79.0412 Q971.483 82.635 977.629 84.4579 Q983.774 86.2808 989.712 86.2808 Q998.722 86.2808 1003.62 82.7391 Q1008.51 79.1975 1008.51 72.635 Q1008.51 66.9059 1004.97 63.6767 Q1001.48 60.4476 993.462 58.833 L987.056 57.583 Q975.285 55.2393 970.025 50.2393 Q964.764 45.2393 964.764 36.3331 Q964.764 26.0207 972.004 20.0832 Q979.295 14.1458 992.056 14.1458 Q997.524 14.1458 1003.2 15.1353 Q1008.88 16.1249 1014.82 18.1041 Z" fill="#000000" fill-rule="nonzero" fill-opacity="1" /><path clip-path="url(#clip140)" d="M1035.49 34.979 L1045.08 34.979 L1045.08 93.312 L1035.49 93.312 L1035.49 34.979 M1035.49 12.2708 L1045.08 12.2708 L1045.08 24.4061 L1035.49 24.4061 L1035.49 12.2708 Z" fill="#000000" fill-rule="nonzero" fill-opacity="1" /><path clip-path="url(#clip140)" d="M1113.62 58.1039 L1113.62 93.312 L1104.03 93.312 L1104.03 58.4164 Q1104.03 50.1351 1100.81 46.0206 Q1097.58 41.906 1091.12 41.906 Q1083.36 41.906 1078.88 46.8539 Q1074.4 51.8018 1074.4 60.3434 L1074.4 93.312 L1064.76 93.312 L1064.76 34.979 L1074.4 34.979 L1074.4 44.0414 Q1077.84 38.781 1082.47 36.1769 Q1087.16 33.5727 1093.25 33.5727 Q1103.31 33.5727 1108.46 39.8227 Q1113.62 46.0206 1113.62 58.1039 Z" fill="#000000" fill-rule="nonzero" fill-opacity="1" /><path clip-path="url(#clip140)" d="M1171.12 63.4684 Q1171.12 53.0518 1166.79 47.3227 Q1162.52 41.5935 1154.76 41.5935 Q1147.05 41.5935 1142.73 47.3227 Q1138.46 53.0518 1138.46 63.4684 Q1138.46 73.8329 1142.73 79.5621 Q1147.05 85.2912 1154.76 85.2912 Q1162.52 85.2912 1166.79 79.5621 Q1171.12 73.8329 1171.12 63.4684 M1180.7 86.0725 Q1180.7 100.968 1174.09 108.208 Q1167.47 115.499 1153.83 115.499 Q1148.77 115.499 1144.29 114.718 Q1139.82 113.989 1135.6 112.426 L1135.6 103.104 Q1139.82 105.395 1143.93 106.489 Q1148.04 107.583 1152.32 107.583 Q1161.74 107.583 1166.43 102.635 Q1171.12 97.7391 1171.12 87.7912 L1171.12 83.0516 Q1168.15 88.2079 1163.51 90.7599 Q1158.88 93.312 1152.42 93.312 Q1141.69 93.312 1135.13 85.135 Q1128.57 76.9579 1128.57 63.4684 Q1128.57 49.9268 1135.13 41.7498 Q1141.69 33.5727 1152.42 33.5727 Q1158.88 33.5727 1163.51 36.1248 Q1168.15 38.6769 1171.12 43.8331 L1171.12 34.979 L1180.7 34.979 L1180.7 86.0725 Z" fill="#000000" fill-rule="nonzero" fill-opacity="1" /><path clip-path="url(#clip140)" d="M1199.45 70.2913 L1199.45 34.979 L1209.03 34.979 L1209.03 69.9267 Q1209.03 78.2079 1212.26 82.3746 Q1215.49 86.4891 1221.95 86.4891 Q1229.71 86.4891 1234.19 81.5412 Q1238.72 76.5933 1238.72 68.0517 L1238.72 34.979 L1248.3 34.979 L1248.3 93.312 L1238.72 93.312 L1238.72 84.3537 Q1235.23 89.6662 1230.6 92.2703 Q1226.01 94.8224 1219.92 94.8224 Q1209.87 94.8224 1204.66 88.5724 Q1199.45 82.3225 1199.45 70.2913 M1223.56 33.5727 L1223.56 33.5727 Z" fill="#000000" fill-rule="nonzero" fill-opacity="1" /><path clip-path="url(#clip140)" d="M1268.04 12.2708 L1277.63 12.2708 L1277.63 93.312 L1268.04 93.312 L1268.04 12.2708 Z" fill="#000000" fill-rule="nonzero" fill-opacity="1" /><path clip-path="url(#clip140)" d="M1324.19 63.9892 Q1312.57 63.9892 1308.1 66.6455 Q1303.62 69.3017 1303.62 75.7079 Q1303.62 80.8121 1306.95 83.8329 Q1310.34 86.8016 1316.12 86.8016 Q1324.09 86.8016 1328.88 81.1766 Q1333.72 75.4996 1333.72 66.1246 L1333.72 63.9892 L1324.19 63.9892 M1343.3 60.0309 L1343.3 93.312 L1333.72 93.312 L1333.72 84.4579 Q1330.44 89.7704 1325.54 92.3224 Q1320.65 94.8224 1313.56 94.8224 Q1304.61 94.8224 1299.29 89.8224 Q1294.03 84.7704 1294.03 76.3329 Q1294.03 66.4892 1300.6 61.4893 Q1307.21 56.4893 1320.28 56.4893 L1333.72 56.4893 L1333.72 55.5518 Q1333.72 48.9372 1329.35 45.3435 Q1325.02 41.6977 1317.16 41.6977 Q1312.16 41.6977 1307.42 42.8956 Q1302.68 44.0935 1298.3 46.4893 L1298.3 37.6352 Q1303.56 35.604 1308.51 34.6144 Q1313.46 33.5727 1318.15 33.5727 Q1330.8 33.5727 1337.05 40.1352 Q1343.3 46.6977 1343.3 60.0309 Z" fill="#000000" fill-rule="nonzero" fill-opacity="1" /><path clip-path="url(#clip140)" d="M1396.85 43.9373 Q1395.23 42.9998 1393.3 42.5831 Q1391.43 42.1144 1389.14 42.1144 Q1381.01 42.1144 1376.64 47.4268 Q1372.31 52.6872 1372.31 62.583 L1372.31 93.312 L1362.68 93.312 L1362.68 34.979 L1372.31 34.979 L1372.31 44.0414 Q1375.33 38.729 1380.18 36.1769 Q1385.02 33.5727 1391.95 33.5727 Q1392.94 33.5727 1394.14 33.729 Q1395.33 33.8332 1396.79 34.0936 L1396.85 43.9373 Z" fill="#000000" fill-rule="nonzero" fill-opacity="1" /><path clip-path="url(#clip140)" d="M1433.93 34.979 L1444.08 34.979 L1462.31 83.9371 L1480.54 34.979 L1490.7 34.979 L1468.82 93.312 L1455.8 93.312 L1433.93 34.979 Z" fill="#000000" fill-rule="nonzero" fill-opacity="1" /><path clip-path="url(#clip140)" d="M1530.44 63.9892 Q1518.82 63.9892 1514.34 66.6455 Q1509.87 69.3017 1509.87 75.7079 Q1509.87 80.8121 1513.2 83.8329 Q1516.58 86.8016 1522.37 86.8016 Q1530.33 86.8016 1535.13 81.1766 Q1539.97 75.4996 1539.97 66.1246 L1539.97 63.9892 L1530.44 63.9892 M1549.55 60.0309 L1549.55 93.312 L1539.97 93.312 L1539.97 84.4579 Q1536.69 89.7704 1531.79 92.3224 Q1526.9 94.8224 1519.81 94.8224 Q1510.85 94.8224 1505.54 89.8224 Q1500.28 84.7704 1500.28 76.3329 Q1500.28 66.4892 1506.84 61.4893 Q1513.46 56.4893 1526.53 56.4893 L1539.97 56.4893 L1539.97 55.5518 Q1539.97 48.9372 1535.59 45.3435 Q1531.27 41.6977 1523.41 41.6977 Q1518.41 41.6977 1513.67 42.8956 Q1508.93 44.0935 1504.55 46.4893 L1504.55 37.6352 Q1509.81 35.604 1514.76 34.6144 Q1519.71 33.5727 1524.4 33.5727 Q1537.05 33.5727 1543.3 40.1352 Q1549.55 46.6977 1549.55 60.0309 Z" fill="#000000" fill-rule="nonzero" fill-opacity="1" /><path clip-path="url(#clip140)" d="M1569.29 12.2708 L1578.88 12.2708 L1578.88 93.312 L1569.29 93.312 L1569.29 12.2708 Z" fill="#000000" fill-rule="nonzero" fill-opacity="1" /><path clip-path="url(#clip140)" d="M1597.94 70.2913 L1597.94 34.979 L1607.52 34.979 L1607.52 69.9267 Q1607.52 78.2079 1610.75 82.3746 Q1613.98 86.4891 1620.44 86.4891 Q1628.2 86.4891 1632.68 81.5412 Q1637.21 76.5933 1637.21 68.0517 L1637.21 34.979 L1646.79 34.979 L1646.79 93.312 L1637.21 93.312 L1637.21 84.3537 Q1633.72 89.6662 1629.08 92.2703 Q1624.5 94.8224 1618.41 94.8224 Q1608.35 94.8224 1603.15 88.5724 Q1597.94 82.3225 1597.94 70.2913 M1622.05 33.5727 L1622.05 33.5727 Z" fill="#000000" fill-rule="nonzero" fill-opacity="1" /><path clip-path="url(#clip140)" d="M1716.43 61.7497 L1716.43 66.4371 L1672.36 66.4371 Q1672.99 76.3329 1678.3 81.5412 Q1683.67 86.6975 1693.2 86.6975 Q1698.72 86.6975 1703.87 85.3433 Q1709.08 83.9891 1714.19 81.2808 L1714.19 90.3433 Q1709.03 92.5308 1703.61 93.6766 Q1698.2 94.8224 1692.62 94.8224 Q1678.67 94.8224 1670.49 86.6975 Q1662.36 78.5725 1662.36 64.7184 Q1662.36 50.3956 1670.07 42.0102 Q1677.83 33.5727 1690.96 33.5727 Q1702.73 33.5727 1709.55 41.1769 Q1716.43 48.7289 1716.43 61.7497 M1706.84 58.9372 Q1706.74 51.0726 1702.42 46.3852 Q1698.15 41.6977 1691.06 41.6977 Q1683.04 41.6977 1678.2 46.2289 Q1673.41 50.7601 1672.68 58.9893 L1706.84 58.9372 Z" fill="#000000" fill-rule="nonzero" fill-opacity="1" /><path clip-path="url(#clip140)" d="M1769.34 36.6977 L1769.34 45.7602 Q1765.28 43.6768 1760.91 42.6352 Q1756.53 41.5935 1751.84 41.5935 Q1744.71 41.5935 1741.11 43.781 Q1737.57 45.9685 1737.57 50.3435 Q1737.57 53.6768 1740.12 55.6039 Q1742.68 57.4789 1750.38 59.1976 L1753.67 59.9268 Q1763.87 62.1143 1768.15 66.1246 Q1772.47 70.083 1772.47 77.2183 Q1772.47 85.3433 1766.01 90.0829 Q1759.6 94.8224 1748.35 94.8224 Q1743.67 94.8224 1738.56 93.8849 Q1733.51 92.9995 1727.89 91.1766 L1727.89 81.2808 Q1733.2 84.0412 1738.35 85.4475 Q1743.51 86.8016 1748.56 86.8016 Q1755.33 86.8016 1758.98 84.51 Q1762.62 82.1662 1762.62 77.9475 Q1762.62 74.0413 1759.97 71.9579 Q1757.36 69.8746 1748.46 67.9476 L1745.12 67.1663 Q1736.22 65.2913 1732.26 61.4372 Q1728.3 57.5309 1728.3 50.7601 Q1728.3 42.531 1734.14 38.0519 Q1739.97 33.5727 1750.7 33.5727 Q1756.01 33.5727 1760.7 34.354 Q1765.38 35.1352 1769.34 36.6977 Z" fill="#000000" fill-rule="nonzero" fill-opacity="1" /><path clip-path="url(#clip141)" d="M464.182 137.647 L416.182 137.647 L440.182 185.647 L464.182 137.647 Z" fill="#ff0000" fill-rule="evenodd" fill-opacity="1" stroke="none"/>
<path clip-path="url(#clip141)" d="M499.218 620.768 L451.218 620.768 L475.218 668.768 L499.218 620.768 Z" fill="#ff0000" fill-rule="evenodd" fill-opacity="1" stroke="none"/>
<path clip-path="url(#clip141)" d="M534.253 713.205 L486.253 713.205 L510.253 761.205 L534.253 713.205 Z" fill="#ff0000" fill-rule="evenodd" fill-opacity="1" stroke="none"/>
<path clip-path="url(#clip141)" d="M569.288 923.108 L521.288 923.108 L545.288 971.108 L569.288 923.108 Z" fill="#ff0000" fill-rule="evenodd" fill-opacity="1" stroke="none"/>
<path clip-path="url(#clip141)" d="M604.323 964.863 L556.323 964.863 L580.323 1012.86 L604.323 964.863 Z" fill="#ff0000" fill-rule="evenodd" fill-opacity="1" stroke="none"/>
<path clip-path="url(#clip141)" d="M639.359 979.833 L591.359 979.833 L615.359 1027.83 L639.359 979.833 Z" fill="#ff0000" fill-rule="evenodd" fill-opacity="1" stroke="none"/>
<path clip-path="url(#clip141)" d="M674.394 980.056 L626.394 980.056 L650.394 1028.06 L674.394 980.056 Z" fill="#ff0000" fill-rule="evenodd" fill-opacity="1" stroke="none"/>
<path clip-path="url(#clip141)" d="M709.429 982.267 L661.429 982.267 L685.429 1030.27 L709.429 982.267 Z" fill="#ff0000" fill-rule="evenodd" fill-opacity="1" stroke="none"/>
<path clip-path="url(#clip141)" d="M744.464 985.294 L696.464 985.294 L720.464 1033.29 L744.464 985.294 Z" fill="#ff0000" fill-rule="evenodd" fill-opacity="1" stroke="none"/>
<path clip-path="url(#clip141)" d="M779.5 986.875 L731.5 986.875 L755.5 1034.88 L779.5 986.875 Z" fill="#ff0000" fill-rule="evenodd" fill-opacity="1" stroke="none"/>
<path clip-path="url(#clip141)" d="M814.535 987.769 L766.535 987.769 L790.535 1035.77 L814.535 987.769 Z" fill="#ff0000" fill-rule="evenodd" fill-opacity="1" stroke="none"/>
<path clip-path="url(#clip141)" d="M849.57 989.246 L801.57 989.246 L825.57 1037.25 L849.57 989.246 Z" fill="#ff0000" fill-rule="evenodd" fill-opacity="1" stroke="none"/>
<path clip-path="url(#clip141)" d="M884.605 989.937 L836.605 989.937 L860.605 1037.94 L884.605 989.937 Z" fill="#ff0000" fill-rule="evenodd" fill-opacity="1" stroke="none"/>
<path clip-path="url(#clip141)" d="M919.64 990.092 L871.64 990.092 L895.64 1038.09 L919.64 990.092 Z" fill="#ff0000" fill-rule="evenodd" fill-opacity="1" stroke="none"/>
<path clip-path="url(#clip141)" d="M954.676 991.128 L906.676 991.128 L930.676 1039.13 L954.676 991.128 Z" fill="#ff0000" fill-rule="evenodd" fill-opacity="1" stroke="none"/>
<path clip-path="url(#clip141)" d="M989.711 992.582 L941.711 992.582 L965.711 1040.58 L989.711 992.582 Z" fill="#ff0000" fill-rule="evenodd" fill-opacity="1" stroke="none"/>
<path clip-path="url(#clip141)" d="M1024.75 994.183 L976.746 994.183 L1000.75 1042.18 L1024.75 994.183 Z" fill="#ff0000" fill-rule="evenodd" fill-opacity="1" stroke="none"/>
<path clip-path="url(#clip141)" d="M1059.78 994.874 L1011.78 994.874 L1035.78 1042.87 L1059.78 994.874 Z" fill="#ff0000" fill-rule="evenodd" fill-opacity="1" stroke="none"/>
<path clip-path="url(#clip141)" d="M1094.82 995.851 L1046.82 995.851 L1070.82 1043.85 L1094.82 995.851 Z" fill="#ff0000" fill-rule="evenodd" fill-opacity="1" stroke="none"/>
<path clip-path="url(#clip141)" d="M1129.85 996.452 L1081.85 996.452 L1105.85 1044.45 L1129.85 996.452 Z" fill="#ff0000" fill-rule="evenodd" fill-opacity="1" stroke="none"/>
<path clip-path="url(#clip141)" d="M1164.89 997.658 L1116.89 997.658 L1140.89 1045.66 L1164.89 997.658 Z" fill="#ff0000" fill-rule="evenodd" fill-opacity="1" stroke="none"/>
<path clip-path="url(#clip141)" d="M1199.92 998.767 L1151.92 998.767 L1175.92 1046.77 L1199.92 998.767 Z" fill="#ff0000" fill-rule="evenodd" fill-opacity="1" stroke="none"/>
<path clip-path="url(#clip141)" d="M1234.96 1000.07 L1186.96 1000.07 L1210.96 1048.07 L1234.96 1000.07 Z" fill="#ff0000" fill-rule="evenodd" fill-opacity="1" stroke="none"/>
<path clip-path="url(#clip141)" d="M1269.99 1001.44 L1221.99 1001.44 L1245.99 1049.44 L1269.99 1001.44 Z" fill="#ff0000" fill-rule="evenodd" fill-opacity="1" stroke="none"/>
<path clip-path="url(#clip141)" d="M1305.03 1001.63 L1257.03 1001.63 L1281.03 1049.63 L1305.03 1001.63 Z" fill="#ff0000" fill-rule="evenodd" fill-opacity="1" stroke="none"/>
<path clip-path="url(#clip141)" d="M1340.06 1002.08 L1292.06 1002.08 L1316.06 1050.08 L1340.06 1002.08 Z" fill="#ff0000" fill-rule="evenodd" fill-opacity="1" stroke="none"/>
<path clip-path="url(#clip141)" d="M1375.1 1003.68 L1327.1 1003.68 L1351.1 1051.68 L1375.1 1003.68 Z" fill="#ff0000" fill-rule="evenodd" fill-opacity="1" stroke="none"/>
<path clip-path="url(#clip141)" d="M1410.13 1004.4 L1362.13 1004.4 L1386.13 1052.4 L1410.13 1004.4 Z" fill="#ff0000" fill-rule="evenodd" fill-opacity="1" stroke="none"/>
<path clip-path="url(#clip141)" d="M1445.17 1004.84 L1397.17 1004.84 L1421.17 1052.84 L1445.17 1004.84 Z" fill="#ff0000" fill-rule="evenodd" fill-opacity="1" stroke="none"/>
<path clip-path="url(#clip141)" d="M1480.2 1005.21 L1432.2 1005.21 L1456.2 1053.21 L1480.2 1005.21 Z" fill="#ff0000" fill-rule="evenodd" fill-opacity="1" stroke="none"/>
<path clip-path="url(#clip141)" d="M1515.24 1006.31 L1467.24 1006.31 L1491.24 1054.31 L1515.24 1006.31 Z" fill="#ff0000" fill-rule="evenodd" fill-opacity="1" stroke="none"/>
<path clip-path="url(#clip141)" d="M1550.27 1007.19 L1502.27 1007.19 L1526.27 1055.19 L1550.27 1007.19 Z" fill="#ff0000" fill-rule="evenodd" fill-opacity="1" stroke="none"/>
<path clip-path="url(#clip141)" d="M1585.31 1007.6 L1537.31 1007.6 L1561.31 1055.6 L1585.31 1007.6 Z" fill="#ff0000" fill-rule="evenodd" fill-opacity="1" stroke="none"/>
<path clip-path="url(#clip141)" d="M1620.35 1008.62 L1572.35 1008.62 L1596.35 1056.62 L1620.35 1008.62 Z" fill="#ff0000" fill-rule="evenodd" fill-opacity="1" stroke="none"/>
<path clip-path="url(#clip141)" d="M1655.38 1010.12 L1607.38 1010.12 L1631.38 1058.12 L1655.38 1010.12 Z" fill="#ff0000" fill-rule="evenodd" fill-opacity="1" stroke="none"/>
<path clip-path="url(#clip141)" d="M1690.42 1010.74 L1642.42 1010.74 L1666.42 1058.74 L1690.42 1010.74 Z" fill="#ff0000" fill-rule="evenodd" fill-opacity="1" stroke="none"/>
<path clip-path="url(#clip141)" d="M1725.45 1011.83 L1677.45 1011.83 L1701.45 1059.83 L1725.45 1011.83 Z" fill="#ff0000" fill-rule="evenodd" fill-opacity="1" stroke="none"/>
<path clip-path="url(#clip141)" d="M1760.49 1012.42 L1712.49 1012.42 L1736.49 1060.42 L1760.49 1012.42 Z" fill="#ff0000" fill-rule="evenodd" fill-opacity="1" stroke="none"/>
<path clip-path="url(#clip141)" d="M1795.52 1012.55 L1747.52 1012.55 L1771.52 1060.55 L1795.52 1012.55 Z" fill="#ff0000" fill-rule="evenodd" fill-opacity="1" stroke="none"/>
<path clip-path="url(#clip141)" d="M1830.56 1013.63 L1782.56 1013.63 L1806.56 1061.63 L1830.56 1013.63 Z" fill="#ff0000" fill-rule="evenodd" fill-opacity="1" stroke="none"/>
<path clip-path="url(#clip141)" d="M1865.59 1014.56 L1817.59 1014.56 L1841.59 1062.56 L1865.59 1014.56 Z" fill="#ff0000" fill-rule="evenodd" fill-opacity="1" stroke="none"/>
<path clip-path="url(#clip141)" d="M1900.63 1015.89 L1852.63 1015.89 L1876.63 1063.89 L1900.63 1015.89 Z" fill="#ff0000" fill-rule="evenodd" fill-opacity="1" stroke="none"/>
<path clip-path="url(#clip141)" d="M1935.66 1016.72 L1887.66 1016.72 L1911.66 1064.72 L1935.66 1016.72 Z" fill="#ff0000" fill-rule="evenodd" fill-opacity="1" stroke="none"/>
<path clip-path="url(#clip141)" d="M1970.7 1017.82 L1922.7 1017.82 L1946.7 1065.82 L1970.7 1017.82 Z" fill="#ff0000" fill-rule="evenodd" fill-opacity="1" stroke="none"/>
<path clip-path="url(#clip141)" d="M2005.73 1018.18 L1957.73 1018.18 L1981.73 1066.18 L2005.73 1018.18 Z" fill="#ff0000" fill-rule="evenodd" fill-opacity="1" stroke="none"/>
<path clip-path="url(#clip141)" d="M2040.77 1019.16 L1992.77 1019.16 L2016.77 1067.16 L2040.77 1019.16 Z" fill="#ff0000" fill-rule="evenodd" fill-opacity="1" stroke="none"/>
<path clip-path="url(#clip141)" d="M2075.8 1019.95 L2027.8 1019.95 L2051.8 1067.95 L2075.8 1019.95 Z" fill="#ff0000" fill-rule="evenodd" fill-opacity="1" stroke="none"/>
<path clip-path="url(#clip141)" d="M2110.84 1021.46 L2062.84 1021.46 L2086.84 1069.46 L2110.84 1021.46 Z" fill="#ff0000" fill-rule="evenodd" fill-opacity="1" stroke="none"/>
<path clip-path="url(#clip141)" d="M2145.87 1021.71 L2097.87 1021.71 L2121.87 1069.71 L2145.87 1021.71 Z" fill="#ff0000" fill-rule="evenodd" fill-opacity="1" stroke="none"/>
<path clip-path="url(#clip141)" d="M2180.91 1022.28 L2132.91 1022.28 L2156.91 1070.28 L2180.91 1022.28 Z" fill="#ff0000" fill-rule="evenodd" fill-opacity="1" stroke="none"/>
<path clip-path="url(#clip141)" d="M2215.94 1024.9 L2167.94 1024.9 L2191.94 1072.9 L2215.94 1024.9 Z" fill="#ff0000" fill-rule="evenodd" fill-opacity="1" stroke="none"/>
<path clip-path="url(#clip141)" d="M2250.98 1025.19 L2202.98 1025.19 L2226.98 1073.19 L2250.98 1025.19 Z" fill="#ff0000" fill-rule="evenodd" fill-opacity="1" stroke="none"/>
<path clip-path="url(#clip141)" d="M2286.01 1026.98 L2238.01 1026.98 L2262.01 1074.98 L2286.01 1026.98 Z" fill="#ff0000" fill-rule="evenodd" fill-opacity="1" stroke="none"/>
<path clip-path="url(#clip141)" d="M2321.05 1028.08 L2273.05 1028.08 L2297.05 1076.08 L2321.05 1028.08 Z" fill="#ff0000" fill-rule="evenodd" fill-opacity="1" stroke="none"/>
<path clip-path="url(#clip141)" d="M440.182 134.438 L416.182 182.438 L464.182 182.438 L440.182 134.438 Z" fill="#0000ff" fill-rule="evenodd" fill-opacity="1" stroke="none"/>
<path clip-path="url(#clip141)" d="M475.218 623.657 L451.218 671.657 L499.218 671.657 L475.218 623.657 Z" fill="#0000ff" fill-rule="evenodd" fill-opacity="1" stroke="none"/>
<path clip-path="url(#clip141)" d="M510.253 718.083 L486.253 766.083 L534.253 766.083 L510.253 718.083 Z" fill="#0000ff" fill-rule="evenodd" fill-opacity="1" stroke="none"/>
<path clip-path="url(#clip141)" d="M545.288 926.375 L521.288 974.375 L569.288 974.375 L545.288 926.375 Z" fill="#0000ff" fill-rule="evenodd" fill-opacity="1" stroke="none"/>
<path clip-path="url(#clip141)" d="M580.323 982.27 L556.323 1030.27 L604.323 1030.27 L580.323 982.27 Z" fill="#0000ff" fill-rule="evenodd" fill-opacity="1" stroke="none"/>
<path clip-path="url(#clip141)" d="M615.359 1047.96 L591.359 1095.96 L639.359 1095.96 L615.359 1047.96 Z" fill="#0000ff" fill-rule="evenodd" fill-opacity="1" stroke="none"/>
<path clip-path="url(#clip141)" d="M650.394 1047.96 L626.394 1095.96 L674.394 1095.96 L650.394 1047.96 Z" fill="#0000ff" fill-rule="evenodd" fill-opacity="1" stroke="none"/>
<path clip-path="url(#clip141)" d="M685.429 1047.96 L661.429 1095.96 L709.429 1095.96 L685.429 1047.96 Z" fill="#0000ff" fill-rule="evenodd" fill-opacity="1" stroke="none"/>
<path clip-path="url(#clip141)" d="M720.464 1047.96 L696.464 1095.96 L744.464 1095.96 L720.464 1047.96 Z" fill="#0000ff" fill-rule="evenodd" fill-opacity="1" stroke="none"/>
<path clip-path="url(#clip141)" d="M755.5 1047.96 L731.5 1095.96 L779.5 1095.96 L755.5 1047.96 Z" fill="#0000ff" fill-rule="evenodd" fill-opacity="1" stroke="none"/>
<path clip-path="url(#clip141)" d="M790.535 1047.96 L766.535 1095.96 L814.535 1095.96 L790.535 1047.96 Z" fill="#0000ff" fill-rule="evenodd" fill-opacity="1" stroke="none"/>
<path clip-path="url(#clip141)" d="M825.57 1047.96 L801.57 1095.96 L849.57 1095.96 L825.57 1047.96 Z" fill="#0000ff" fill-rule="evenodd" fill-opacity="1" stroke="none"/>
<path clip-path="url(#clip141)" d="M860.605 1047.96 L836.605 1095.96 L884.605 1095.96 L860.605 1047.96 Z" fill="#0000ff" fill-rule="evenodd" fill-opacity="1" stroke="none"/>
<path clip-path="url(#clip141)" d="M895.64 1047.96 L871.64 1095.96 L919.64 1095.96 L895.64 1047.96 Z" fill="#0000ff" fill-rule="evenodd" fill-opacity="1" stroke="none"/>
<path clip-path="url(#clip141)" d="M930.676 1047.96 L906.676 1095.96 L954.676 1095.96 L930.676 1047.96 Z" fill="#0000ff" fill-rule="evenodd" fill-opacity="1" stroke="none"/>
<path clip-path="url(#clip141)" d="M965.711 1047.96 L941.711 1095.96 L989.711 1095.96 L965.711 1047.96 Z" fill="#0000ff" fill-rule="evenodd" fill-opacity="1" stroke="none"/>
<path clip-path="url(#clip141)" d="M1000.75 1047.96 L976.746 1095.96 L1024.75 1095.96 L1000.75 1047.96 Z" fill="#0000ff" fill-rule="evenodd" fill-opacity="1" stroke="none"/>
<path clip-path="url(#clip141)" d="M1035.78 1047.96 L1011.78 1095.96 L1059.78 1095.96 L1035.78 1047.96 Z" fill="#0000ff" fill-rule="evenodd" fill-opacity="1" stroke="none"/>
<path clip-path="url(#clip141)" d="M1070.82 1047.96 L1046.82 1095.96 L1094.82 1095.96 L1070.82 1047.96 Z" fill="#0000ff" fill-rule="evenodd" fill-opacity="1" stroke="none"/>
<path clip-path="url(#clip141)" d="M1105.85 1047.96 L1081.85 1095.96 L1129.85 1095.96 L1105.85 1047.96 Z" fill="#0000ff" fill-rule="evenodd" fill-opacity="1" stroke="none"/>
<path clip-path="url(#clip141)" d="M1140.89 1047.96 L1116.89 1095.96 L1164.89 1095.96 L1140.89 1047.96 Z" fill="#0000ff" fill-rule="evenodd" fill-opacity="1" stroke="none"/>
<path clip-path="url(#clip141)" d="M1175.92 1047.96 L1151.92 1095.96 L1199.92 1095.96 L1175.92 1047.96 Z" fill="#0000ff" fill-rule="evenodd" fill-opacity="1" stroke="none"/>
<path clip-path="url(#clip141)" d="M1210.96 1047.96 L1186.96 1095.96 L1234.96 1095.96 L1210.96 1047.96 Z" fill="#0000ff" fill-rule="evenodd" fill-opacity="1" stroke="none"/>
<path clip-path="url(#clip141)" d="M1245.99 1047.96 L1221.99 1095.96 L1269.99 1095.96 L1245.99 1047.96 Z" fill="#0000ff" fill-rule="evenodd" fill-opacity="1" stroke="none"/>
<path clip-path="url(#clip141)" d="M1281.03 1047.96 L1257.03 1095.96 L1305.03 1095.96 L1281.03 1047.96 Z" fill="#0000ff" fill-rule="evenodd" fill-opacity="1" stroke="none"/>
<path clip-path="url(#clip141)" d="M1316.06 1047.96 L1292.06 1095.96 L1340.06 1095.96 L1316.06 1047.96 Z" fill="#0000ff" fill-rule="evenodd" fill-opacity="1" stroke="none"/>
<path clip-path="url(#clip141)" d="M1351.1 1047.96 L1327.1 1095.96 L1375.1 1095.96 L1351.1 1047.96 Z" fill="#0000ff" fill-rule="evenodd" fill-opacity="1" stroke="none"/>
<path clip-path="url(#clip141)" d="M1386.13 1047.96 L1362.13 1095.96 L1410.13 1095.96 L1386.13 1047.96 Z" fill="#0000ff" fill-rule="evenodd" fill-opacity="1" stroke="none"/>
<path clip-path="url(#clip141)" d="M1421.17 1047.96 L1397.17 1095.96 L1445.17 1095.96 L1421.17 1047.96 Z" fill="#0000ff" fill-rule="evenodd" fill-opacity="1" stroke="none"/>
<path clip-path="url(#clip141)" d="M1456.2 1047.96 L1432.2 1095.96 L1480.2 1095.96 L1456.2 1047.96 Z" fill="#0000ff" fill-rule="evenodd" fill-opacity="1" stroke="none"/>
<path clip-path="url(#clip141)" d="M1491.24 1047.96 L1467.24 1095.96 L1515.24 1095.96 L1491.24 1047.96 Z" fill="#0000ff" fill-rule="evenodd" fill-opacity="1" stroke="none"/>
<path clip-path="url(#clip141)" d="M1526.27 1047.96 L1502.27 1095.96 L1550.27 1095.96 L1526.27 1047.96 Z" fill="#0000ff" fill-rule="evenodd" fill-opacity="1" stroke="none"/>
<path clip-path="url(#clip141)" d="M1561.31 1047.96 L1537.31 1095.96 L1585.31 1095.96 L1561.31 1047.96 Z" fill="#0000ff" fill-rule="evenodd" fill-opacity="1" stroke="none"/>
<path clip-path="url(#clip141)" d="M1596.35 1047.96 L1572.35 1095.96 L1620.35 1095.96 L1596.35 1047.96 Z" fill="#0000ff" fill-rule="evenodd" fill-opacity="1" stroke="none"/>
<path clip-path="url(#clip141)" d="M1631.38 1047.96 L1607.38 1095.96 L1655.38 1095.96 L1631.38 1047.96 Z" fill="#0000ff" fill-rule="evenodd" fill-opacity="1" stroke="none"/>
<path clip-path="url(#clip141)" d="M1666.42 1047.96 L1642.42 1095.96 L1690.42 1095.96 L1666.42 1047.96 Z" fill="#0000ff" fill-rule="evenodd" fill-opacity="1" stroke="none"/>
<path clip-path="url(#clip141)" d="M1701.45 1047.96 L1677.45 1095.96 L1725.45 1095.96 L1701.45 1047.96 Z" fill="#0000ff" fill-rule="evenodd" fill-opacity="1" stroke="none"/>
<path clip-path="url(#clip141)" d="M1736.49 1047.96 L1712.49 1095.96 L1760.49 1095.96 L1736.49 1047.96 Z" fill="#0000ff" fill-rule="evenodd" fill-opacity="1" stroke="none"/>
<path clip-path="url(#clip141)" d="M1771.52 1047.96 L1747.52 1095.96 L1795.52 1095.96 L1771.52 1047.96 Z" fill="#0000ff" fill-rule="evenodd" fill-opacity="1" stroke="none"/>
<path clip-path="url(#clip141)" d="M1806.56 1047.96 L1782.56 1095.96 L1830.56 1095.96 L1806.56 1047.96 Z" fill="#0000ff" fill-rule="evenodd" fill-opacity="1" stroke="none"/>
<path clip-path="url(#clip141)" d="M1841.59 1047.96 L1817.59 1095.96 L1865.59 1095.96 L1841.59 1047.96 Z" fill="#0000ff" fill-rule="evenodd" fill-opacity="1" stroke="none"/>
<path clip-path="url(#clip141)" d="M1876.63 1047.96 L1852.63 1095.96 L1900.63 1095.96 L1876.63 1047.96 Z" fill="#0000ff" fill-rule="evenodd" fill-opacity="1" stroke="none"/>
<path clip-path="url(#clip141)" d="M1911.66 1047.96 L1887.66 1095.96 L1935.66 1095.96 L1911.66 1047.96 Z" fill="#0000ff" fill-rule="evenodd" fill-opacity="1" stroke="none"/>
<path clip-path="url(#clip141)" d="M1946.7 1047.96 L1922.7 1095.96 L1970.7 1095.96 L1946.7 1047.96 Z" fill="#0000ff" fill-rule="evenodd" fill-opacity="1" stroke="none"/>
<path clip-path="url(#clip141)" d="M1981.73 1047.96 L1957.73 1095.96 L2005.73 1095.96 L1981.73 1047.96 Z" fill="#0000ff" fill-rule="evenodd" fill-opacity="1" stroke="none"/>
<path clip-path="url(#clip141)" d="M2016.77 1047.96 L1992.77 1095.96 L2040.77 1095.96 L2016.77 1047.96 Z" fill="#0000ff" fill-rule="evenodd" fill-opacity="1" stroke="none"/>
<path clip-path="url(#clip141)" d="M2051.8 1047.96 L2027.8 1095.96 L2075.8 1095.96 L2051.8 1047.96 Z" fill="#0000ff" fill-rule="evenodd" fill-opacity="1" stroke="none"/>
<path clip-path="url(#clip141)" d="M2086.84 1047.96 L2062.84 1095.96 L2110.84 1095.96 L2086.84 1047.96 Z" fill="#0000ff" fill-rule="evenodd" fill-opacity="1" stroke="none"/>
<path clip-path="url(#clip141)" d="M2121.87 1047.96 L2097.87 1095.96 L2145.87 1095.96 L2121.87 1047.96 Z" fill="#0000ff" fill-rule="evenodd" fill-opacity="1" stroke="none"/>
<path clip-path="url(#clip141)" d="M2156.91 1047.96 L2132.91 1095.96 L2180.91 1095.96 L2156.91 1047.96 Z" fill="#0000ff" fill-rule="evenodd" fill-opacity="1" stroke="none"/>
<path clip-path="url(#clip141)" d="M2191.94 1047.96 L2167.94 1095.96 L2215.94 1095.96 L2191.94 1047.96 Z" fill="#0000ff" fill-rule="evenodd" fill-opacity="1" stroke="none"/>
<path clip-path="url(#clip141)" d="M2226.98 1047.96 L2202.98 1095.96 L2250.98 1095.96 L2226.98 1047.96 Z" fill="#0000ff" fill-rule="evenodd" fill-opacity="1" stroke="none"/>
<path clip-path="url(#clip141)" d="M2262.01 1047.96 L2238.01 1095.96 L2286.01 1095.96 L2262.01 1047.96 Z" fill="#0000ff" fill-rule="evenodd" fill-opacity="1" stroke="none"/>
<path clip-path="url(#clip141)" d="M2297.05 1047.96 L2273.05 1095.96 L2321.05 1095.96 L2297.05 1047.96 Z" fill="#0000ff" fill-rule="evenodd" fill-opacity="1" stroke="none"/>
<path clip-path="url(#clip140)" d="M1676.73 513.23 L2287.15 513.23 L2287.15 163.31 L1676.73 163.31  Z" fill="#ffffff" fill-rule="evenodd" fill-opacity="1"/>
<polyline clip-path="url(#clip140)" style="stroke:#000000; stroke-linecap:round; stroke-linejoin:round; stroke-width:4; stroke-opacity:1; fill:none" points="1676.73,513.23 2287.15,513.23 2287.15,163.31 1676.73,163.31 1676.73,513.23 "/>
<path clip-path="url(#clip140)" d="M1817.38 226.781 L1711.04 226.781 L1764.21 333.119 L1817.38 226.781 Z" fill="#ff0000" fill-rule="evenodd" fill-opacity="1" stroke="none"/>
<path clip-path="url(#clip140)" d="M1851.69 241.07 L1862.99 241.07 L1884.55 273.049 L1905.96 241.07 L1917.26 241.07 L1889.76 281.799 L1889.76 318.83 L1879.19 318.83 L1879.19 281.799 L1851.69 241.07 Z" fill="#000000" fill-rule="nonzero" fill-opacity="1" /><path clip-path="url(#clip140)" d="M1984.03 237.893 Q1977.05 249.872 1973.66 261.591 Q1970.28 273.309 1970.28 285.341 Q1970.28 297.372 1973.66 309.195 Q1977.1 320.965 1984.03 332.892 L1975.7 332.892 Q1967.88 320.653 1963.98 308.83 Q1960.12 297.007 1960.12 285.341 Q1960.12 273.726 1963.98 261.955 Q1967.83 250.185 1975.7 237.893 L1984.03 237.893 Z" fill="#000000" fill-rule="nonzero" fill-opacity="1" /><path clip-path="url(#clip140)" d="M2041.01 269.351 L2041.01 237.789 L2050.59 237.789 L2050.59 318.83 L2041.01 318.83 L2041.01 310.08 Q2037.99 315.288 2033.35 317.84 Q2028.77 320.34 2022.31 320.34 Q2011.74 320.34 2005.07 311.903 Q1998.46 303.465 1998.46 289.716 Q1998.46 275.966 2005.07 267.528 Q2011.74 259.091 2022.31 259.091 Q2028.77 259.091 2033.35 261.643 Q2037.99 264.143 2041.01 269.351 M2008.35 289.716 Q2008.35 300.288 2012.67 306.33 Q2017.05 312.32 2024.65 312.32 Q2032.26 312.32 2036.63 306.33 Q2041.01 300.288 2041.01 289.716 Q2041.01 279.143 2036.63 273.153 Q2032.26 267.112 2024.65 267.112 Q2017.05 267.112 2012.67 273.153 Q2008.35 279.143 2008.35 289.716 Z" fill="#000000" fill-rule="nonzero" fill-opacity="1" /><path clip-path="url(#clip140)" d="M2096.84 289.507 Q2085.23 289.507 2080.75 292.163 Q2076.27 294.82 2076.27 301.226 Q2076.27 306.33 2079.6 309.351 Q2082.99 312.32 2088.77 312.32 Q2096.74 312.32 2101.53 306.695 Q2106.37 301.018 2106.37 291.643 L2106.37 289.507 L2096.84 289.507 M2115.95 285.549 L2115.95 318.83 L2106.37 318.83 L2106.37 309.976 Q2103.09 315.288 2098.19 317.84 Q2093.3 320.34 2086.22 320.34 Q2077.26 320.34 2071.94 315.34 Q2066.68 310.288 2066.68 301.851 Q2066.68 292.007 2073.25 287.007 Q2079.86 282.007 2092.93 282.007 L2106.37 282.007 L2106.37 281.07 Q2106.37 274.455 2102 270.861 Q2097.67 267.216 2089.81 267.216 Q2084.81 267.216 2080.07 268.414 Q2075.33 269.611 2070.95 272.007 L2070.95 263.153 Q2076.22 261.122 2081.16 260.132 Q2086.11 259.091 2090.8 259.091 Q2103.45 259.091 2109.7 265.653 Q2115.95 272.216 2115.95 285.549 Z" fill="#000000" fill-rule="nonzero" fill-opacity="1" /><path clip-path="url(#clip140)" d="M2145.17 243.935 L2145.17 260.497 L2164.91 260.497 L2164.91 267.945 L2145.17 267.945 L2145.17 299.611 Q2145.17 306.747 2147.1 308.778 Q2149.08 310.809 2155.07 310.809 L2164.91 310.809 L2164.91 318.83 L2155.07 318.83 Q2143.98 318.83 2139.76 314.715 Q2135.54 310.549 2135.54 299.611 L2135.54 267.945 L2128.51 267.945 L2128.51 260.497 L2135.54 260.497 L2135.54 243.935 L2145.17 243.935 Z" fill="#000000" fill-rule="nonzero" fill-opacity="1" /><path clip-path="url(#clip140)" d="M2204.03 289.507 Q2192.41 289.507 2187.93 292.163 Q2183.45 294.82 2183.45 301.226 Q2183.45 306.33 2186.79 309.351 Q2190.17 312.32 2195.95 312.32 Q2203.92 312.32 2208.71 306.695 Q2213.56 301.018 2213.56 291.643 L2213.56 289.507 L2204.03 289.507 M2223.14 285.549 L2223.14 318.83 L2213.56 318.83 L2213.56 309.976 Q2210.28 315.288 2205.38 317.84 Q2200.49 320.34 2193.4 320.34 Q2184.44 320.34 2179.13 315.34 Q2173.87 310.288 2173.87 301.851 Q2173.87 292.007 2180.43 287.007 Q2187.05 282.007 2200.12 282.007 L2213.56 282.007 L2213.56 281.07 Q2213.56 274.455 2209.18 270.861 Q2204.86 267.216 2197 267.216 Q2192 267.216 2187.26 268.414 Q2182.52 269.611 2178.14 272.007 L2178.14 263.153 Q2183.4 261.122 2188.35 260.132 Q2193.3 259.091 2197.99 259.091 Q2210.64 259.091 2216.89 265.653 Q2223.14 272.216 2223.14 285.549 Z" fill="#000000" fill-rule="nonzero" fill-opacity="1" /><path clip-path="url(#clip140)" d="M2241.37 237.893 L2249.7 237.893 Q2257.52 250.185 2261.37 261.955 Q2265.28 273.726 2265.28 285.341 Q2265.28 297.007 2261.37 308.83 Q2257.52 320.653 2249.7 332.892 L2241.37 332.892 Q2248.3 320.965 2251.68 309.195 Q2255.12 297.372 2255.12 285.341 Q2255.12 273.309 2251.68 261.591 Q2248.3 249.872 2241.37 237.893 Z" fill="#000000" fill-rule="nonzero" fill-opacity="1" /><path clip-path="url(#clip140)" d="M1764.21 343.421 L1711.04 449.759 L1817.38 449.759 L1764.21 343.421 Z" fill="#0000ff" fill-rule="evenodd" fill-opacity="1" stroke="none"/>
<path clip-path="url(#clip140)" d="M1855.23 357.71 L1866.53 357.71 L1885.85 386.616 L1905.28 357.71 L1916.58 357.71 L1891.58 395.054 L1918.25 435.47 L1906.95 435.47 L1885.07 402.397 L1863.04 435.47 L1851.69 435.47 L1879.45 393.96 L1855.23 357.71 Z" fill="#000000" fill-rule="nonzero" fill-opacity="1" /><path clip-path="url(#clip140)" d="M1941.11 360.575 L1941.11 377.137 L1960.85 377.137 L1960.85 384.585 L1941.11 384.585 L1941.11 416.251 Q1941.11 423.387 1943.04 425.418 Q1945.02 427.449 1951.01 427.449 L1960.85 427.449 L1960.85 435.47 L1951.01 435.47 Q1939.91 435.47 1935.7 431.355 Q1931.48 427.189 1931.48 416.251 L1931.48 384.585 L1924.45 384.585 L1924.45 377.137 L1931.48 377.137 L1931.48 360.575 L1941.11 360.575 Z" fill="#000000" fill-rule="nonzero" fill-opacity="1" /><path clip-path="url(#clip140)" d="M2007.26 386.095 Q2005.64 385.158 2003.72 384.741 Q2001.84 384.272 1999.55 384.272 Q1991.42 384.272 1987.05 389.585 Q1982.73 394.845 1982.73 404.741 L1982.73 435.47 L1973.09 435.47 L1973.09 377.137 L1982.73 377.137 L1982.73 386.199 Q1985.75 380.887 1990.59 378.335 Q1995.43 375.731 2002.36 375.731 Q2003.35 375.731 2004.55 375.887 Q2005.75 375.991 2007.21 376.252 L2007.26 386.095 Z" fill="#000000" fill-rule="nonzero" fill-opacity="1" /><path clip-path="url(#clip140)" d="M2016.32 412.449 L2016.32 377.137 L2025.9 377.137 L2025.9 412.085 Q2025.9 420.366 2029.13 424.533 Q2032.36 428.647 2038.82 428.647 Q2046.58 428.647 2051.06 423.699 Q2055.59 418.751 2055.59 410.21 L2055.59 377.137 L2065.17 377.137 L2065.17 435.47 L2055.59 435.47 L2055.59 426.512 Q2052.1 431.824 2047.47 434.428 Q2042.88 436.98 2036.79 436.98 Q2026.74 436.98 2021.53 430.73 Q2016.32 424.48 2016.32 412.449 M2040.43 375.731 L2040.43 375.731 Z" fill="#000000" fill-rule="nonzero" fill-opacity="1" /><path clip-path="url(#clip140)" d="M2134.81 403.908 L2134.81 408.595 L2090.75 408.595 Q2091.37 418.491 2096.68 423.699 Q2102.05 428.855 2111.58 428.855 Q2117.1 428.855 2122.26 427.501 Q2127.47 426.147 2132.57 423.439 L2132.57 432.501 Q2127.41 434.689 2122 435.835 Q2116.58 436.98 2111.01 436.98 Q2097.05 436.98 2088.87 428.855 Q2080.75 420.73 2080.75 406.876 Q2080.75 392.554 2088.45 384.168 Q2096.22 375.731 2109.34 375.731 Q2121.11 375.731 2127.93 383.335 Q2134.81 390.887 2134.81 403.908 M2125.23 401.095 Q2125.12 393.231 2120.8 388.543 Q2116.53 383.856 2109.44 383.856 Q2101.42 383.856 2096.58 388.387 Q2091.79 392.918 2091.06 401.147 L2125.23 401.095 Z" fill="#000000" fill-rule="nonzero" fill-opacity="1" /></svg>
