<?xml version="1.0" encoding="utf-8"?>
<svg xmlns="http://www.w3.org/2000/svg" xmlns:xlink="http://www.w3.org/1999/xlink" width="600" height="400" viewBox="0 0 2400 1600">
<defs>
  <clipPath id="clip430">
    <rect x="0" y="0" width="2400" height="1600"/>
  </clipPath>
</defs>
<path clip-path="url(#clip430)" d="M0 1600 L2400 1600 L2400 0 L0 0  Z" fill="#ffffff" fill-rule="evenodd" fill-opacity="1"/>
<defs>
  <clipPath id="clip431">
    <rect x="286" y="123" width="2067" height="1270"/>
  </clipPath>
</defs>
<path clip-path="url(#clip430)" d="M286.414 1392.94 L2352.76 1392.94 L2352.76 123.472 L286.414 123.472  Z" fill="#ffffff" fill-rule="evenodd" fill-opacity="1"/>
<polyline clip-path="url(#clip431)" style="stroke:#000000; stroke-linecap:round; stroke-linejoin:round; stroke-width:2; stroke-opacity:0.1; fill:none" points="329.3,1392.94 329.3,123.472 "/>
<polyline clip-path="url(#clip431)" style="stroke:#000000; stroke-linecap:round; stroke-linejoin:round; stroke-width:2; stroke-opacity:0.1; fill:none" points="641.201,1392.94 641.201,123.472 "/>
<polyline clip-path="url(#clip431)" style="stroke:#000000; stroke-linecap:round; stroke-linejoin:round; stroke-width:2; stroke-opacity:0.1; fill:none" points="953.102,1392.94 953.102,123.472 "/>
<polyline clip-path="url(#clip431)" style="stroke:#000000; stroke-linecap:round; stroke-linejoin:round; stroke-width:2; stroke-opacity:0.1; fill:none" points="1265,1392.94 1265,123.472 "/>
<polyline clip-path="url(#clip431)" style="stroke:#000000; stroke-linecap:round; stroke-linejoin:round; stroke-width:2; stroke-opacity:0.1; fill:none" points="1576.9,1392.94 1576.9,123.472 "/>
<polyline clip-path="url(#clip431)" style="stroke:#000000; stroke-linecap:round; stroke-linejoin:round; stroke-width:2; stroke-opacity:0.1; fill:none" points="1888.8,1392.94 1888.8,123.472 "/>
<polyline clip-path="url(#clip431)" style="stroke:#000000; stroke-linecap:round; stroke-linejoin:round; stroke-width:2; stroke-opacity:0.1; fill:none" points="2200.7,1392.94 2200.7,123.472 "/>
<polyline clip-path="url(#clip431)" style="stroke:#000000; stroke-linecap:round; stroke-linejoin:round; stroke-width:2; stroke-opacity:0.1; fill:none" points="286.414,1357.23 2352.76,1357.23 "/>
<polyline clip-path="url(#clip431)" style="stroke:#000000; stroke-linecap:round; stroke-linejoin:round; stroke-width:2; stroke-opacity:0.1; fill:none" points="286.414,1161.73 2352.76,1161.73 "/>
<polyline clip-path="url(#clip431)" style="stroke:#000000; stroke-linecap:round; stroke-linejoin:round; stroke-width:2; stroke-opacity:0.1; fill:none" points="286.414,966.236 2352.76,966.236 "/>
<polyline clip-path="url(#clip431)" style="stroke:#000000; stroke-linecap:round; stroke-linejoin:round; stroke-width:2; stroke-opacity:0.1; fill:none" points="286.414,770.739 2352.76,770.739 "/>
<polyline clip-path="url(#clip431)" style="stroke:#000000; stroke-linecap:round; stroke-linejoin:round; stroke-width:2; stroke-opacity:0.1; fill:none" points="286.414,575.242 2352.76,575.242 "/>
<polyline clip-path="url(#clip431)" style="stroke:#000000; stroke-linecap:round; stroke-linejoin:round; stroke-width:2; stroke-opacity:0.1; fill:none" points="286.414,379.745 2352.76,379.745 "/>
<polyline clip-path="url(#clip431)" style="stroke:#000000; stroke-linecap:round; stroke-linejoin:round; stroke-width:2; stroke-opacity:0.1; fill:none" points="286.414,184.248 2352.76,184.248 "/>
<polyline clip-path="url(#clip430)" style="stroke:#000000; stroke-linecap:round; stroke-linejoin:round; stroke-width:4; stroke-opacity:1; fill:none" points="286.414,1392.94 2352.76,1392.94 "/>
<polyline clip-path="url(#clip430)" style="stroke:#000000; stroke-linecap:round; stroke-linejoin:round; stroke-width:4; stroke-opacity:1; fill:none" points="329.3,1392.94 329.3,1374.04 "/>
<polyline clip-path="url(#clip430)" style="stroke:#000000; stroke-linecap:round; stroke-linejoin:round; stroke-width:4; stroke-opacity:1; fill:none" points="641.201,1392.94 641.201,1374.04 "/>
<polyline clip-path="url(#clip430)" style="stroke:#000000; stroke-linecap:round; stroke-linejoin:round; stroke-width:4; stroke-opacity:1; fill:none" points="953.102,1392.94 953.102,1374.04 "/>
<polyline clip-path="url(#clip430)" style="stroke:#000000; stroke-linecap:round; stroke-linejoin:round; stroke-width:4; stroke-opacity:1; fill:none" points="1265,1392.94 1265,1374.04 "/>
<polyline clip-path="url(#clip430)" style="stroke:#000000; stroke-linecap:round; stroke-linejoin:round; stroke-width:4; stroke-opacity:1; fill:none" points="1576.9,1392.94 1576.9,1374.04 "/>
<polyline clip-path="url(#clip430)" style="stroke:#000000; stroke-linecap:round; stroke-linejoin:round; stroke-width:4; stroke-opacity:1; fill:none" points="1888.8,1392.94 1888.8,1374.04 "/>
<polyline clip-path="url(#clip430)" style="stroke:#000000; stroke-linecap:round; stroke-linejoin:round; stroke-width:4; stroke-opacity:1; fill:none" points="2200.7,1392.94 2200.7,1374.04 "/>
<path clip-path="url(#clip430)" d="M329.3 1429.72 Q323.884 1429.72 321.141 1435.07 Q318.432 1440.38 318.432 1451.07 Q318.432 1461.73 321.141 1467.08 Q323.884 1472.39 329.3 1472.39 Q334.752 1472.39 337.46 1467.08 Q340.203 1461.73 340.203 1451.07 Q340.203 1440.38 337.46 1435.07 Q334.752 1429.72 329.3 1429.72 M329.3 1424.16 Q338.016 1424.16 342.599 1431.07 Q347.217 1437.95 347.217 1451.07 Q347.217 1464.16 342.599 1471.07 Q338.016 1477.95 329.3 1477.95 Q320.585 1477.95 315.967 1471.07 Q311.384 1464.16 311.384 1451.07 Q311.384 1437.95 315.967 1431.07 Q320.585 1424.16 329.3 1424.16 Z" fill="#000000" fill-rule="nonzero" fill-opacity="1" /><path clip-path="url(#clip430)" d="M609.361 1471.04 L633.84 1471.04 L633.84 1476.94 L600.923 1476.94 L600.923 1471.04 Q604.916 1466.91 611.791 1459.96 Q618.701 1452.98 620.472 1450.97 Q623.84 1447.18 625.159 1444.58 Q626.514 1441.94 626.514 1439.41 Q626.514 1435.27 623.597 1432.67 Q620.715 1430.07 616.062 1430.07 Q612.764 1430.07 609.083 1431.21 Q605.437 1432.36 601.271 1434.68 L601.271 1427.6 Q605.507 1425.9 609.187 1425.03 Q612.868 1424.16 615.923 1424.16 Q623.979 1424.16 628.77 1428.19 Q633.562 1432.22 633.562 1438.95 Q633.562 1442.15 632.347 1445.03 Q631.166 1447.88 628.007 1451.77 Q627.139 1452.77 622.486 1457.6 Q617.833 1462.39 609.361 1471.04 Z" fill="#000000" fill-rule="nonzero" fill-opacity="1" /><path clip-path="url(#clip430)" d="M663.562 1429.72 Q658.145 1429.72 655.402 1435.07 Q652.694 1440.38 652.694 1451.07 Q652.694 1461.73 655.402 1467.08 Q658.145 1472.39 663.562 1472.39 Q669.013 1472.39 671.722 1467.08 Q674.465 1461.73 674.465 1451.07 Q674.465 1440.38 671.722 1435.07 Q669.013 1429.72 663.562 1429.72 M663.562 1424.16 Q672.277 1424.16 676.86 1431.07 Q681.479 1437.95 681.479 1451.07 Q681.479 1464.16 676.86 1471.07 Q672.277 1477.95 663.562 1477.95 Q654.847 1477.95 650.229 1471.07 Q645.645 1464.16 645.645 1451.07 Q645.645 1437.95 650.229 1431.07 Q654.847 1424.16 663.562 1424.16 Z" fill="#000000" fill-rule="nonzero" fill-opacity="1" /><path clip-path="url(#clip430)" d="M935.359 1431.21 L917.65 1458.88 L935.359 1458.88 L935.359 1431.21 M933.518 1425.1 L942.338 1425.1 L942.338 1458.88 L949.734 1458.88 L949.734 1464.72 L942.338 1464.72 L942.338 1476.94 L935.359 1476.94 L935.359 1464.72 L911.956 1464.72 L911.956 1457.95 L933.518 1425.1 Z" fill="#000000" fill-rule="nonzero" fill-opacity="1" /><path clip-path="url(#clip430)" d="M976.331 1429.72 Q970.914 1429.72 968.171 1435.07 Q965.463 1440.38 965.463 1451.07 Q965.463 1461.73 968.171 1467.08 Q970.914 1472.39 976.331 1472.39 Q981.782 1472.39 984.49 1467.08 Q987.233 1461.73 987.233 1451.07 Q987.233 1440.38 984.49 1435.07 Q981.782 1429.72 976.331 1429.72 M976.331 1424.16 Q985.046 1424.16 989.629 1431.07 Q994.247 1437.95 994.247 1451.07 Q994.247 1464.16 989.629 1471.07 Q985.046 1477.95 976.331 1477.95 Q967.615 1477.95 962.997 1471.07 Q958.414 1464.16 958.414 1451.07 Q958.414 1437.95 962.997 1431.07 Q967.615 1424.16 976.331 1424.16 Z" fill="#000000" fill-rule="nonzero" fill-opacity="1" /><path clip-path="url(#clip430)" d="M1243.11 1448.22 Q1238.39 1448.22 1235.61 1451.45 Q1232.87 1454.68 1232.87 1460.31 Q1232.87 1465.9 1235.61 1469.16 Q1238.39 1472.39 1243.11 1472.39 Q1247.83 1472.39 1250.58 1469.16 Q1253.35 1465.9 1253.35 1460.31 Q1253.35 1454.68 1250.58 1451.45 Q1247.83 1448.22 1243.11 1448.22 M1257.03 1426.25 L1257.03 1432.63 Q1254.39 1431.38 1251.69 1430.72 Q1249.01 1430.07 1246.37 1430.07 Q1239.43 1430.07 1235.75 1434.75 Q1232.1 1439.44 1231.58 1448.92 Q1233.63 1445.9 1236.72 1444.3 Q1239.81 1442.67 1243.53 1442.67 Q1251.34 1442.67 1255.85 1447.43 Q1260.4 1452.15 1260.4 1460.31 Q1260.4 1468.29 1255.68 1473.12 Q1250.96 1477.95 1243.11 1477.95 Q1234.12 1477.95 1229.36 1471.07 Q1224.6 1464.16 1224.6 1451.07 Q1224.6 1438.78 1230.44 1431.49 Q1236.27 1424.16 1246.1 1424.16 Q1248.74 1424.16 1251.41 1424.68 Q1254.12 1425.2 1257.03 1426.25 Z" fill="#000000" fill-rule="nonzero" fill-opacity="1" /><path clip-path="url(#clip430)" d="M1287.48 1429.72 Q1282.07 1429.72 1279.33 1435.07 Q1276.62 1440.38 1276.62 1451.07 Q1276.62 1461.73 1279.33 1467.08 Q1282.07 1472.39 1287.48 1472.39 Q1292.94 1472.39 1295.64 1467.08 Q1298.39 1461.73 1298.39 1451.07 Q1298.39 1440.38 1295.64 1435.07 Q1292.94 1429.72 1287.48 1429.72 M1287.48 1424.16 Q1296.2 1424.16 1300.78 1431.07 Q1305.4 1437.95 1305.4 1451.07 Q1305.4 1464.16 1300.78 1471.07 Q1296.2 1477.95 1287.48 1477.95 Q1278.77 1477.95 1274.15 1471.07 Q1269.57 1464.16 1269.57 1451.07 Q1269.57 1437.95 1274.15 1431.07 Q1278.77 1424.16 1287.48 1424.16 Z" fill="#000000" fill-rule="nonzero" fill-opacity="1" /><path clip-path="url(#clip430)" d="M1554.21 1452.32 Q1549.21 1452.32 1546.33 1455 Q1543.48 1457.67 1543.48 1462.36 Q1543.48 1467.04 1546.33 1469.72 Q1549.21 1472.39 1554.21 1472.39 Q1559.21 1472.39 1562.09 1469.72 Q1564.98 1467.01 1564.98 1462.36 Q1564.98 1457.67 1562.09 1455 Q1559.25 1452.32 1554.21 1452.32 M1547.2 1449.34 Q1542.68 1448.22 1540.15 1445.13 Q1537.65 1442.04 1537.65 1437.6 Q1537.65 1431.38 1542.06 1427.77 Q1546.5 1424.16 1554.21 1424.16 Q1561.96 1424.16 1566.36 1427.77 Q1570.77 1431.38 1570.77 1437.6 Q1570.77 1442.04 1568.24 1445.13 Q1565.74 1448.22 1561.26 1449.34 Q1566.33 1450.52 1569.14 1453.95 Q1571.99 1457.39 1571.99 1462.36 Q1571.99 1469.89 1567.37 1473.92 Q1562.79 1477.95 1554.21 1477.95 Q1545.64 1477.95 1541.02 1473.92 Q1536.43 1469.89 1536.43 1462.36 Q1536.43 1457.39 1539.28 1453.95 Q1542.13 1450.52 1547.2 1449.34 M1544.63 1438.26 Q1544.63 1442.29 1547.13 1444.54 Q1549.66 1446.8 1554.21 1446.8 Q1558.73 1446.8 1561.26 1444.54 Q1563.83 1442.29 1563.83 1438.26 Q1563.83 1434.23 1561.26 1431.97 Q1558.73 1429.72 1554.21 1429.72 Q1549.66 1429.72 1547.13 1431.97 Q1544.63 1434.23 1544.63 1438.26 Z" fill="#000000" fill-rule="nonzero" fill-opacity="1" /><path clip-path="url(#clip430)" d="M1599.45 1429.72 Q1594.04 1429.72 1591.3 1435.07 Q1588.59 1440.38 1588.59 1451.07 Q1588.59 1461.73 1591.3 1467.08 Q1594.04 1472.39 1599.45 1472.39 Q1604.91 1472.39 1607.61 1467.08 Q1610.36 1461.73 1610.36 1451.07 Q1610.36 1440.38 1607.61 1435.07 Q1604.91 1429.72 1599.45 1429.72 M1599.45 1424.16 Q1608.17 1424.16 1612.75 1431.07 Q1617.37 1437.95 1617.37 1451.07 Q1617.37 1464.16 1612.75 1471.07 Q1608.17 1477.95 1599.45 1477.95 Q1590.74 1477.95 1586.12 1471.07 Q1581.54 1464.16 1581.54 1451.07 Q1581.54 1437.95 1586.12 1431.07 Q1590.74 1424.16 1599.45 1424.16 Z" fill="#000000" fill-rule="nonzero" fill-opacity="1" /><path clip-path="url(#clip430)" d="M1828.21 1471.04 L1839.67 1471.04 L1839.67 1431.49 L1827.21 1433.99 L1827.21 1427.6 L1839.6 1425.1 L1846.62 1425.1 L1846.62 1471.04 L1858.07 1471.04 L1858.07 1476.94 L1828.21 1476.94 L1828.21 1471.04 Z" fill="#000000" fill-rule="nonzero" fill-opacity="1" /><path clip-path="url(#clip430)" d="M1887.24 1429.72 Q1881.82 1429.72 1879.08 1435.07 Q1876.37 1440.38 1876.37 1451.07 Q1876.37 1461.73 1879.08 1467.08 Q1881.82 1472.39 1887.24 1472.39 Q1892.69 1472.39 1895.4 1467.08 Q1898.14 1461.73 1898.14 1451.07 Q1898.14 1440.38 1895.4 1435.07 Q1892.69 1429.72 1887.24 1429.72 M1887.24 1424.16 Q1895.96 1424.16 1900.54 1431.07 Q1905.16 1437.95 1905.16 1451.07 Q1905.16 1464.16 1900.54 1471.07 Q1895.96 1477.95 1887.24 1477.95 Q1878.53 1477.95 1873.91 1471.07 Q1869.32 1464.16 1869.32 1451.07 Q1869.32 1437.95 1873.91 1431.07 Q1878.53 1424.16 1887.24 1424.16 Z" fill="#000000" fill-rule="nonzero" fill-opacity="1" /><path clip-path="url(#clip430)" d="M1932.48 1429.72 Q1927.07 1429.72 1924.32 1435.07 Q1921.62 1440.38 1921.62 1451.07 Q1921.62 1461.73 1924.32 1467.08 Q1927.07 1472.39 1932.48 1472.39 Q1937.94 1472.39 1940.64 1467.08 Q1943.39 1461.73 1943.39 1451.07 Q1943.39 1440.38 1940.64 1435.07 Q1937.94 1429.72 1932.48 1429.72 M1932.48 1424.16 Q1941.2 1424.16 1945.78 1431.07 Q1950.4 1437.95 1950.4 1451.07 Q1950.4 1464.16 1945.78 1471.07 Q1941.2 1477.95 1932.48 1477.95 Q1923.77 1477.95 1919.15 1471.07 Q1914.57 1464.16 1914.57 1451.07 Q1914.57 1437.95 1919.15 1431.07 Q1923.77 1424.16 1932.48 1424.16 Z" fill="#000000" fill-rule="nonzero" fill-opacity="1" /><path clip-path="url(#clip430)" d="M2140.11 1471.04 L2151.57 1471.04 L2151.57 1431.49 L2139.11 1433.99 L2139.11 1427.6 L2151.5 1425.1 L2158.52 1425.1 L2158.52 1471.04 L2169.98 1471.04 L2169.98 1476.94 L2140.11 1476.94 L2140.11 1471.04 Z" fill="#000000" fill-rule="nonzero" fill-opacity="1" /><path clip-path="url(#clip430)" d="M2190.18 1471.04 L2214.66 1471.04 L2214.66 1476.94 L2181.75 1476.94 L2181.75 1471.04 Q2185.74 1466.91 2192.61 1459.96 Q2199.52 1452.98 2201.29 1450.97 Q2204.66 1447.18 2205.98 1444.58 Q2207.34 1441.94 2207.34 1439.41 Q2207.34 1435.27 2204.42 1432.67 Q2201.54 1430.07 2196.88 1430.07 Q2193.59 1430.07 2189.91 1431.21 Q2186.26 1432.36 2182.09 1434.68 L2182.09 1427.6 Q2186.33 1425.9 2190.01 1425.03 Q2193.69 1424.16 2196.75 1424.16 Q2204.8 1424.16 2209.59 1428.19 Q2214.38 1432.22 2214.38 1438.95 Q2214.38 1442.15 2213.17 1445.03 Q2211.99 1447.88 2208.83 1451.77 Q2207.96 1452.77 2203.31 1457.6 Q2198.66 1462.39 2190.18 1471.04 Z" fill="#000000" fill-rule="nonzero" fill-opacity="1" /><path clip-path="url(#clip430)" d="M2244.38 1429.72 Q2238.97 1429.72 2236.22 1435.07 Q2233.52 1440.38 2233.52 1451.07 Q2233.52 1461.73 2236.22 1467.08 Q2238.97 1472.39 2244.38 1472.39 Q2249.84 1472.39 2252.54 1467.08 Q2255.29 1461.73 2255.29 1451.07 Q2255.29 1440.38 2252.54 1435.07 Q2249.84 1429.72 2244.38 1429.72 M2244.38 1424.16 Q2253.1 1424.16 2257.68 1431.07 Q2262.3 1437.95 2262.3 1451.07 Q2262.3 1464.16 2257.68 1471.07 Q2253.1 1477.95 2244.38 1477.95 Q2235.67 1477.95 2231.05 1471.07 Q2226.47 1464.16 2226.47 1451.07 Q2226.47 1437.95 2231.05 1431.07 Q2235.67 1424.16 2244.38 1424.16 Z" fill="#000000" fill-rule="nonzero" fill-opacity="1" /><path clip-path="url(#clip430)" d="M1335.92 1539.56 Q1335.92 1541.89 1334.49 1543.29 Q1333.1 1544.68 1331.33 1544.68 Q1329.78 1544.68 1328.96 1543.78 Q1328.14 1542.88 1328.14 1541.73 Q1328.14 1541.24 1328.34 1540.62 Q1328.55 1539.97 1329 1539.19 Q1329.49 1538.41 1330.51 1537.83 Q1331.54 1537.26 1332.93 1537.18 Q1332.64 1536.89 1332.56 1536.85 Q1331.95 1536.36 1330.8 1536.19 Q1330.64 1536.11 1330.06 1536.11 Q1327.23 1536.11 1324.37 1538.2 Q1321.54 1540.25 1318.05 1544.15 Q1313.67 1548.7 1310.84 1550.38 Q1323.26 1552.02 1323.26 1559.19 Q1323.26 1560.38 1322.93 1561.81 Q1322.27 1564.52 1322.27 1566.49 Q1322.27 1570.42 1324.94 1570.42 Q1327.52 1570.42 1329.16 1567.8 Q1330.84 1565.17 1332.23 1560.05 Q1332.44 1559.11 1332.64 1558.82 Q1332.85 1558.53 1333.42 1558.53 Q1334.45 1558.53 1334.45 1559.35 Q1333.51 1564.15 1331.42 1567.84 Q1328.75 1572.31 1324.77 1572.31 Q1321.45 1572.31 1319.24 1570.01 Q1317.07 1567.67 1317.07 1563.98 Q1317.07 1563.08 1317.4 1561.03 Q1317.64 1560.21 1317.64 1559.27 Q1317.64 1557.34 1316.58 1555.91 Q1315.51 1554.43 1313.79 1553.7 Q1312.07 1552.96 1310.63 1552.63 Q1309.24 1552.26 1307.89 1552.14 Q1303.79 1569.48 1303.21 1570.54 Q1302.85 1571.28 1302.03 1571.77 Q1301.21 1572.31 1300.35 1572.31 Q1299.53 1572.31 1298.71 1571.73 Q1297.93 1571.2 1297.93 1569.93 Q1297.93 1569.27 1298.25 1568.08 L1310.43 1519.72 L1310.67 1518.08 Q1310.67 1517.58 1310.47 1517.34 Q1310.31 1517.05 1309.32 1516.85 Q1308.38 1516.64 1306.49 1516.64 Q1305.71 1516.64 1305.35 1516.6 Q1305.02 1516.56 1304.73 1516.36 Q1304.44 1516.11 1304.44 1515.62 Q1304.44 1514.92 1304.73 1514.55 Q1305.06 1514.14 1305.31 1514.06 Q1305.55 1513.98 1306.04 1513.94 Q1306.74 1513.9 1309.08 1513.69 Q1311.41 1513.44 1313.42 1513.28 Q1315.43 1513.12 1316.29 1513.12 Q1316.78 1513.12 1317.03 1513.36 Q1317.31 1513.57 1317.36 1513.81 L1317.4 1514.02 L1308.67 1549.43 Q1312.27 1548 1317.97 1541.65 Q1324.57 1534.27 1330.23 1534.27 Q1332.89 1534.27 1334.41 1535.91 Q1335.92 1537.51 1335.92 1539.56 Z" fill="#000000" fill-rule="nonzero" fill-opacity="1" /><polyline clip-path="url(#clip430)" style="stroke:#000000; stroke-linecap:round; stroke-linejoin:round; stroke-width:4; stroke-opacity:1; fill:none" points="286.414,1392.94 286.414,123.472 "/>
<polyline clip-path="url(#clip430)" style="stroke:#000000; stroke-linecap:round; stroke-linejoin:round; stroke-width:4; stroke-opacity:1; fill:none" points="286.414,1357.23 305.312,1357.23 "/>
<polyline clip-path="url(#clip430)" style="stroke:#000000; stroke-linecap:round; stroke-linejoin:round; stroke-width:4; stroke-opacity:1; fill:none" points="286.414,1161.73 305.312,1161.73 "/>
<polyline clip-path="url(#clip430)" style="stroke:#000000; stroke-linecap:round; stroke-linejoin:round; stroke-width:4; stroke-opacity:1; fill:none" points="286.414,966.236 305.312,966.236 "/>
<polyline clip-path="url(#clip430)" style="stroke:#000000; stroke-linecap:round; stroke-linejoin:round; stroke-width:4; stroke-opacity:1; fill:none" points="286.414,770.739 305.312,770.739 "/>
<polyline clip-path="url(#clip430)" style="stroke:#000000; stroke-linecap:round; stroke-linejoin:round; stroke-width:4; stroke-opacity:1; fill:none" points="286.414,575.242 305.312,575.242 "/>
<polyline clip-path="url(#clip430)" style="stroke:#000000; stroke-linecap:round; stroke-linejoin:round; stroke-width:4; stroke-opacity:1; fill:none" points="286.414,379.745 305.312,379.745 "/>
<polyline clip-path="url(#clip430)" style="stroke:#000000; stroke-linecap:round; stroke-linejoin:round; stroke-width:4; stroke-opacity:1; fill:none" points="286.414,184.248 305.312,184.248 "/>
<path clip-path="url(#clip430)" d="M232.497 1335.93 Q227.081 1335.93 224.338 1341.28 Q221.629 1346.59 221.629 1357.28 Q221.629 1367.94 224.338 1373.29 Q227.081 1378.6 232.497 1378.6 Q237.949 1378.6 240.657 1373.29 Q243.4 1367.94 243.4 1357.28 Q243.4 1346.59 240.657 1341.28 Q237.949 1335.93 232.497 1335.93 M232.497 1330.37 Q241.213 1330.37 245.796 1337.28 Q250.414 1344.16 250.414 1357.28 Q250.414 1370.37 245.796 1377.28 Q241.213 1384.16 232.497 1384.16 Q223.782 1384.16 219.164 1377.28 Q214.581 1370.37 214.581 1357.28 Q214.581 1344.16 219.164 1337.28 Q223.782 1330.37 232.497 1330.37 Z" fill="#000000" fill-rule="nonzero" fill-opacity="1" /><path clip-path="url(#clip430)" d="M178.296 1181.75 L202.775 1181.75 L202.775 1187.65 L169.859 1187.65 L169.859 1181.75 Q173.852 1177.62 180.727 1170.67 Q187.637 1163.69 189.407 1161.68 Q192.775 1157.9 194.095 1155.29 Q195.449 1152.65 195.449 1150.12 Q195.449 1145.99 192.532 1143.38 Q189.65 1140.78 184.998 1140.78 Q181.699 1140.78 178.018 1141.92 Q174.373 1143.07 170.206 1145.4 L170.206 1138.31 Q174.442 1136.61 178.123 1135.74 Q181.803 1134.88 184.859 1134.88 Q192.914 1134.88 197.706 1138.9 Q202.498 1142.93 202.498 1149.67 Q202.498 1152.86 201.282 1155.74 Q200.102 1158.59 196.942 1162.48 Q196.074 1163.49 191.421 1168.31 Q186.768 1173.1 178.296 1181.75 Z" fill="#000000" fill-rule="nonzero" fill-opacity="1" /><path clip-path="url(#clip430)" d="M232.497 1140.43 Q227.081 1140.43 224.338 1145.78 Q221.629 1151.09 221.629 1161.79 Q221.629 1172.44 224.338 1177.79 Q227.081 1183.1 232.497 1183.1 Q237.949 1183.1 240.657 1177.79 Q243.4 1172.44 243.4 1161.79 Q243.4 1151.09 240.657 1145.78 Q237.949 1140.43 232.497 1140.43 M232.497 1134.88 Q241.213 1134.88 245.796 1141.79 Q250.414 1148.66 250.414 1161.79 Q250.414 1174.88 245.796 1181.79 Q241.213 1188.66 232.497 1188.66 Q223.782 1188.66 219.164 1181.79 Q214.581 1174.88 214.581 1161.79 Q214.581 1148.66 219.164 1141.79 Q223.782 1134.88 232.497 1134.88 Z" fill="#000000" fill-rule="nonzero" fill-opacity="1" /><path clip-path="url(#clip430)" d="M191.525 946.427 L173.817 974.101 L191.525 974.101 L191.525 946.427 M189.685 940.316 L198.504 940.316 L198.504 974.101 L205.9 974.101 L205.9 979.934 L198.504 979.934 L198.504 992.156 L191.525 992.156 L191.525 979.934 L168.123 979.934 L168.123 973.163 L189.685 940.316 Z" fill="#000000" fill-rule="nonzero" fill-opacity="1" /><path clip-path="url(#clip430)" d="M232.497 944.934 Q227.081 944.934 224.338 950.281 Q221.629 955.594 221.629 966.288 Q221.629 976.948 224.338 982.295 Q227.081 987.607 232.497 987.607 Q237.949 987.607 240.657 982.295 Q243.4 976.948 243.4 966.288 Q243.4 955.594 240.657 950.281 Q237.949 944.934 232.497 944.934 M232.497 939.379 Q241.213 939.379 245.796 946.288 Q250.414 953.163 250.414 966.288 Q250.414 979.378 245.796 986.288 Q241.213 993.163 232.497 993.163 Q223.782 993.163 219.164 986.288 Q214.581 979.378 214.581 966.288 Q214.581 953.163 219.164 946.288 Q223.782 939.379 232.497 939.379 Z" fill="#000000" fill-rule="nonzero" fill-opacity="1" /><path clip-path="url(#clip430)" d="M188.123 767.944 Q183.4 767.944 180.623 771.173 Q177.88 774.402 177.88 780.027 Q177.88 785.617 180.623 788.881 Q183.4 792.11 188.123 792.11 Q192.845 792.11 195.588 788.881 Q198.366 785.617 198.366 780.027 Q198.366 774.402 195.588 771.173 Q192.845 767.944 188.123 767.944 M202.046 745.965 L202.046 752.354 Q199.407 751.104 196.699 750.444 Q194.025 749.784 191.386 749.784 Q184.442 749.784 180.762 754.472 Q177.116 759.159 176.595 768.638 Q178.643 765.618 181.734 764.02 Q184.824 762.388 188.539 762.388 Q196.352 762.388 200.866 767.145 Q205.414 771.867 205.414 780.027 Q205.414 788.013 200.692 792.84 Q195.97 797.666 188.123 797.666 Q179.13 797.666 174.373 790.791 Q169.616 783.881 169.616 770.791 Q169.616 758.5 175.449 751.208 Q181.282 743.882 191.109 743.882 Q193.748 743.882 196.421 744.402 Q199.129 744.923 202.046 745.965 Z" fill="#000000" fill-rule="nonzero" fill-opacity="1" /><path clip-path="url(#clip430)" d="M232.497 749.437 Q227.081 749.437 224.338 754.784 Q221.629 760.097 221.629 770.791 Q221.629 781.451 224.338 786.798 Q227.081 792.11 232.497 792.11 Q237.949 792.11 240.657 786.798 Q243.4 781.451 243.4 770.791 Q243.4 760.097 240.657 754.784 Q237.949 749.437 232.497 749.437 M232.497 743.882 Q241.213 743.882 245.796 750.791 Q250.414 757.666 250.414 770.791 Q250.414 783.881 245.796 790.791 Q241.213 797.666 232.497 797.666 Q223.782 797.666 219.164 790.791 Q214.581 783.881 214.581 770.791 Q214.581 757.666 219.164 750.791 Q223.782 743.882 232.497 743.882 Z" fill="#000000" fill-rule="nonzero" fill-opacity="1" /><path clip-path="url(#clip430)" d="M187.255 576.544 Q182.255 576.544 179.373 579.218 Q176.525 581.891 176.525 586.579 Q176.525 591.266 179.373 593.94 Q182.255 596.613 187.255 596.613 Q192.255 596.613 195.136 593.94 Q198.018 591.231 198.018 586.579 Q198.018 581.891 195.136 579.218 Q192.289 576.544 187.255 576.544 M180.241 573.558 Q175.727 572.447 173.192 569.357 Q170.692 566.266 170.692 561.822 Q170.692 555.607 175.102 551.996 Q179.546 548.384 187.255 548.384 Q194.998 548.384 199.407 551.996 Q203.817 555.607 203.817 561.822 Q203.817 566.266 201.282 569.357 Q198.782 572.447 194.303 573.558 Q199.373 574.738 202.185 578.176 Q205.032 581.613 205.032 586.579 Q205.032 594.113 200.414 598.141 Q195.831 602.169 187.255 602.169 Q178.678 602.169 174.06 598.141 Q169.477 594.113 169.477 586.579 Q169.477 581.613 172.324 578.176 Q175.171 574.738 180.241 573.558 M177.671 562.482 Q177.671 566.509 180.171 568.766 Q182.706 571.023 187.255 571.023 Q191.768 571.023 194.303 568.766 Q196.873 566.509 196.873 562.482 Q196.873 558.454 194.303 556.197 Q191.768 553.94 187.255 553.94 Q182.706 553.94 180.171 556.197 Q177.671 558.454 177.671 562.482 Z" fill="#000000" fill-rule="nonzero" fill-opacity="1" /><path clip-path="url(#clip430)" d="M232.497 553.94 Q227.081 553.94 224.338 559.287 Q221.629 564.6 221.629 575.294 Q221.629 585.954 224.338 591.301 Q227.081 596.613 232.497 596.613 Q237.949 596.613 240.657 591.301 Q243.4 585.954 243.4 575.294 Q243.4 564.6 240.657 559.287 Q237.949 553.94 232.497 553.94 M232.497 548.384 Q241.213 548.384 245.796 555.294 Q250.414 562.169 250.414 575.294 Q250.414 588.384 245.796 595.294 Q241.213 602.169 232.497 602.169 Q223.782 602.169 219.164 595.294 Q214.581 588.384 214.581 575.294 Q214.581 562.169 219.164 555.294 Q223.782 548.384 232.497 548.384 Z" fill="#000000" fill-rule="nonzero" fill-opacity="1" /><path clip-path="url(#clip430)" d="M128.227 399.762 L139.685 399.762 L139.685 360.214 L127.22 362.714 L127.22 356.325 L139.616 353.825 L146.63 353.825 L146.63 399.762 L158.088 399.762 L158.088 405.665 L128.227 405.665 L128.227 399.762 Z" fill="#000000" fill-rule="nonzero" fill-opacity="1" /><path clip-path="url(#clip430)" d="M187.255 358.443 Q181.838 358.443 179.095 363.79 Q176.387 369.103 176.387 379.797 Q176.387 390.457 179.095 395.804 Q181.838 401.116 187.255 401.116 Q192.706 401.116 195.414 395.804 Q198.157 390.457 198.157 379.797 Q198.157 369.103 195.414 363.79 Q192.706 358.443 187.255 358.443 M187.255 352.887 Q195.97 352.887 200.553 359.797 Q205.171 366.672 205.171 379.797 Q205.171 392.887 200.553 399.797 Q195.97 406.672 187.255 406.672 Q178.539 406.672 173.921 399.797 Q169.338 392.887 169.338 379.797 Q169.338 366.672 173.921 359.797 Q178.539 352.887 187.255 352.887 Z" fill="#000000" fill-rule="nonzero" fill-opacity="1" /><path clip-path="url(#clip430)" d="M232.497 358.443 Q227.081 358.443 224.338 363.79 Q221.629 369.103 221.629 379.797 Q221.629 390.457 224.338 395.804 Q227.081 401.116 232.497 401.116 Q237.949 401.116 240.657 395.804 Q243.4 390.457 243.4 379.797 Q243.4 369.103 240.657 363.79 Q237.949 358.443 232.497 358.443 M232.497 352.887 Q241.213 352.887 245.796 359.797 Q250.414 366.672 250.414 379.797 Q250.414 392.887 245.796 399.797 Q241.213 406.672 232.497 406.672 Q223.782 406.672 219.164 399.797 Q214.581 392.887 214.581 379.797 Q214.581 366.672 219.164 359.797 Q223.782 352.887 232.497 352.887 Z" fill="#000000" fill-rule="nonzero" fill-opacity="1" /><path clip-path="url(#clip430)" d="M128.227 204.265 L139.685 204.265 L139.685 164.717 L127.22 167.217 L127.22 160.828 L139.616 158.328 L146.63 158.328 L146.63 204.265 L158.088 204.265 L158.088 210.168 L128.227 210.168 L128.227 204.265 Z" fill="#000000" fill-rule="nonzero" fill-opacity="1" /><path clip-path="url(#clip430)" d="M178.296 204.265 L202.775 204.265 L202.775 210.168 L169.859 210.168 L169.859 204.265 Q173.852 200.133 180.727 193.189 Q187.637 186.21 189.407 184.196 Q192.775 180.411 194.095 177.807 Q195.449 175.168 195.449 172.633 Q195.449 168.501 192.532 165.897 Q189.65 163.293 184.998 163.293 Q181.699 163.293 178.018 164.439 Q174.373 165.585 170.206 167.911 L170.206 160.828 Q174.442 159.126 178.123 158.258 Q181.803 157.39 184.859 157.39 Q192.914 157.39 197.706 161.418 Q202.498 165.446 202.498 172.182 Q202.498 175.376 201.282 178.258 Q200.102 181.106 196.942 184.994 Q196.074 186.001 191.421 190.828 Q186.768 195.619 178.296 204.265 Z" fill="#000000" fill-rule="nonzero" fill-opacity="1" /><path clip-path="url(#clip430)" d="M232.497 162.946 Q227.081 162.946 224.338 168.293 Q221.629 173.606 221.629 184.3 Q221.629 194.96 224.338 200.307 Q227.081 205.619 232.497 205.619 Q237.949 205.619 240.657 200.307 Q243.4 194.96 243.4 184.3 Q243.4 173.606 240.657 168.293 Q237.949 162.946 232.497 162.946 M232.497 157.39 Q241.213 157.39 245.796 164.3 Q250.414 171.175 250.414 184.3 Q250.414 197.39 245.796 204.3 Q241.213 211.175 232.497 211.175 Q223.782 211.175 219.164 204.3 Q214.581 197.39 214.581 184.3 Q214.581 171.175 219.164 164.3 Q223.782 157.39 232.497 157.39 Z" fill="#000000" fill-rule="nonzero" fill-opacity="1" /><path clip-path="url(#clip430)" d="M25.7577 757.92 Q28.627 757.92 28.627 762.019 L28.627 771.241 Q32.316 768.659 37.7676 768.659 Q42.4404 768.659 46.8262 770.586 Q51.1711 772.471 54.2043 775.504 Q57.2375 778.497 59.082 782.268 Q60.8855 786.039 60.8855 789.728 Q60.8855 795.343 57.0735 798.827 Q53.2615 802.311 47.605 802.311 Q44.6128 802.311 41.2927 801.287 Q37.9725 800.221 34.8983 798.212 Q31.7831 796.204 29.2828 793.581 Q26.7825 790.916 25.2659 787.473 Q23.7492 783.989 23.7492 780.341 L23.7492 761.199 Q23.7492 760.174 23.8312 759.641 Q23.8722 759.068 24.3641 758.494 Q24.815 757.92 25.7577 757.92 M36.7838 774.029 Q35.8001 774.029 34.9393 774.152 Q34.0376 774.275 32.8489 774.726 Q31.6192 775.176 30.7584 775.955 Q29.8567 776.734 29.2418 778.251 Q28.627 779.726 28.627 781.735 Q28.627 784.563 30.1846 787.678 Q31.7422 790.793 35.5952 793.171 Q38.8743 795.138 43.1372 796.122 Q47.4001 797.106 49.9414 797.106 Q54.2863 797.106 56.6636 795.015 Q59 792.884 59 789.646 Q59 786.981 57.1965 783.948 Q55.352 780.915 51.8679 778.579 Q48.8347 776.529 44.4078 775.299 Q39.981 774.029 36.7838 774.029 Z" fill="#000000" fill-rule="nonzero" fill-opacity="1" /><path clip-path="url(#clip430)" d="M62.8437 722.8 Q64.4791 722.8 65.4547 723.804 Q66.4302 724.78 66.4302 726.014 Q66.4302 727.104 65.799 727.678 Q65.1677 728.252 64.3644 728.252 Q64.02 728.252 63.5897 728.108 Q63.1306 727.965 62.5854 727.649 Q62.0403 727.305 61.6386 726.588 Q61.2369 725.87 61.1795 724.895 Q60.9786 725.096 60.95 725.153 Q60.6056 725.583 60.4909 726.387 Q60.4335 726.502 60.4335 726.903 Q60.4335 728.883 61.8968 730.892 Q63.3314 732.871 66.0572 735.31 Q69.2421 738.38 70.4185 740.36 Q71.5662 731.666 76.5874 731.666 Q77.4194 731.666 78.4237 731.896 Q80.3174 732.355 81.6946 732.355 Q84.4491 732.355 84.4491 730.49 Q84.4491 728.682 82.6128 727.534 Q80.7765 726.358 77.1899 725.383 Q76.53 725.239 76.3291 725.096 Q76.1283 724.952 76.1283 724.55 Q76.1283 723.833 76.7021 723.833 Q80.0592 724.493 82.6415 725.956 Q85.769 727.821 85.769 730.605 Q85.769 732.929 84.1622 734.478 Q82.5267 735.999 79.9444 735.999 Q79.3131 735.999 77.8785 735.769 Q77.3047 735.597 76.6447 735.597 Q75.2962 735.597 74.292 736.343 Q73.259 737.089 72.7426 738.294 Q72.2261 739.499 71.9966 740.503 Q71.7383 741.479 71.6523 742.426 Q83.7892 745.295 84.5352 745.697 Q85.0516 745.955 85.396 746.529 Q85.769 747.103 85.769 747.705 Q85.769 748.279 85.3673 748.853 Q84.9943 749.398 84.1048 749.398 Q83.6457 749.398 82.8136 749.169 L48.9565 740.647 L47.8088 740.475 Q47.4645 740.475 47.2923 740.618 Q47.0915 740.733 46.948 741.422 Q46.8046 742.082 46.8046 743.401 Q46.8046 743.947 46.7759 744.205 Q46.7472 744.434 46.6037 744.635 Q46.4315 744.836 46.0872 744.836 Q45.5995 744.836 45.3412 744.635 Q45.0543 744.406 44.9969 744.234 Q44.9395 744.061 44.9108 743.717 Q44.8822 743.229 44.7387 741.594 Q44.5665 739.958 44.4518 738.552 Q44.337 737.146 44.337 736.544 Q44.337 736.2 44.5092 736.027 Q44.6526 735.827 44.8248 735.798 L44.9682 735.769 L69.7585 741.881 Q68.7543 739.356 64.307 735.368 Q59.1423 730.748 59.1423 726.788 Q59.1423 724.923 60.29 723.862 Q61.409 722.8 62.8437 722.8 Z" fill="#000000" fill-rule="nonzero" fill-opacity="1" /><path clip-path="url(#clip430)" d="M1153.23 14.0809 L1153.23 22.0612 Q1148.58 19.8332 1144.44 18.7395 Q1140.31 17.6457 1136.46 17.6457 Q1129.78 17.6457 1126.13 20.2383 Q1122.53 22.8309 1122.53 27.611 Q1122.53 31.6214 1124.92 33.6873 Q1127.35 35.7128 1134.07 36.9686 L1139.02 37.9813 Q1148.17 39.7232 1152.51 44.1387 Q1156.88 48.5136 1156.88 55.8863 Q1156.88 64.6767 1150.97 69.2137 Q1145.09 73.7508 1133.71 73.7508 Q1129.42 73.7508 1124.55 72.7785 Q1119.73 71.8063 1114.55 69.9024 L1114.55 61.4765 Q1119.53 64.2716 1124.31 65.6895 Q1129.09 67.1073 1133.71 67.1073 Q1140.72 67.1073 1144.53 64.3527 Q1148.33 61.598 1148.33 56.4939 Q1148.33 52.0379 1145.58 49.5264 Q1142.86 47.0148 1136.63 45.759 L1131.64 44.7868 Q1122.49 42.9639 1118.4 39.075 Q1114.31 35.1862 1114.31 28.2591 Q1114.31 20.2383 1119.94 15.6203 Q1125.61 11.0023 1135.53 11.0023 Q1139.79 11.0023 1144.2 11.7719 Q1148.62 12.5416 1153.23 14.0809 Z" fill="#000000" fill-rule="nonzero" fill-opacity="1" /><path clip-path="url(#clip430)" d="M1201.97 28.9478 L1201.97 35.9153 Q1198.81 34.1734 1195.61 33.3227 Q1192.45 32.4315 1189.21 32.4315 Q1181.96 32.4315 1177.95 37.0496 Q1173.93 41.6271 1173.93 49.9314 Q1173.93 58.2358 1177.95 62.8538 Q1181.96 67.4314 1189.21 67.4314 Q1192.45 67.4314 1195.61 66.5807 Q1198.81 65.6895 1201.97 63.9476 L1201.97 70.8341 Q1198.85 72.2924 1195.49 73.0216 Q1192.16 73.7508 1188.4 73.7508 Q1178.15 73.7508 1172.11 67.3098 Q1166.08 60.8689 1166.08 49.9314 Q1166.08 38.832 1172.15 32.472 Q1178.27 26.1121 1188.88 26.1121 Q1192.33 26.1121 1195.61 26.8413 Q1198.89 27.5299 1201.97 28.9478 Z" fill="#000000" fill-rule="nonzero" fill-opacity="1" /><path clip-path="url(#clip430)" d="M1241.22 34.1734 Q1239.96 33.4443 1238.47 33.1202 Q1237.01 32.7556 1235.22 32.7556 Q1228.91 32.7556 1225.5 36.8875 Q1222.14 40.9789 1222.14 48.6757 L1222.14 72.576 L1214.65 72.576 L1214.65 27.2059 L1222.14 27.2059 L1222.14 34.2544 Q1224.49 30.1225 1228.26 28.1376 Q1232.02 26.1121 1237.41 26.1121 Q1238.18 26.1121 1239.11 26.2337 Q1240.05 26.3147 1241.18 26.5172 L1241.22 34.1734 Z" fill="#000000" fill-rule="nonzero" fill-opacity="1" /><path clip-path="url(#clip430)" d="M1286.02 48.0275 L1286.02 51.6733 L1251.75 51.6733 Q1252.24 59.3701 1256.37 63.421 Q1260.54 67.4314 1267.96 67.4314 Q1272.25 67.4314 1276.26 66.3781 Q1280.31 65.3249 1284.28 63.2184 L1284.28 70.267 Q1280.27 71.9684 1276.06 72.8596 Q1271.85 73.7508 1267.51 73.7508 Q1256.65 73.7508 1250.29 67.4314 Q1243.97 61.1119 1243.97 50.3365 Q1243.97 39.1965 1249.97 32.6746 Q1256.01 26.1121 1266.21 26.1121 Q1275.37 26.1121 1280.68 32.0264 Q1286.02 37.9003 1286.02 48.0275 M1278.57 45.84 Q1278.49 39.7232 1275.13 36.0774 Q1271.8 32.4315 1266.3 32.4315 Q1260.06 32.4315 1256.29 35.9558 Q1252.56 39.4801 1252 45.8805 L1278.57 45.84 Z" fill="#000000" fill-rule="nonzero" fill-opacity="1" /><path clip-path="url(#clip430)" d="M1337.06 48.0275 L1337.06 51.6733 L1302.79 51.6733 Q1303.28 59.3701 1307.41 63.421 Q1311.58 67.4314 1319 67.4314 Q1323.29 67.4314 1327.3 66.3781 Q1331.35 65.3249 1335.32 63.2184 L1335.32 70.267 Q1331.31 71.9684 1327.1 72.8596 Q1322.89 73.7508 1318.55 73.7508 Q1307.7 73.7508 1301.34 67.4314 Q1295.02 61.1119 1295.02 50.3365 Q1295.02 39.1965 1301.01 32.6746 Q1307.05 26.1121 1317.26 26.1121 Q1326.41 26.1121 1331.72 32.0264 Q1337.06 37.9003 1337.06 48.0275 M1329.61 45.84 Q1329.53 39.7232 1326.17 36.0774 Q1322.85 32.4315 1317.34 32.4315 Q1311.1 32.4315 1307.33 35.9558 Q1303.6 39.4801 1303.04 45.8805 L1329.61 45.84 Z" fill="#000000" fill-rule="nonzero" fill-opacity="1" /><path clip-path="url(#clip430)" d="M1382.88 65.7705 L1382.88 89.8329 L1375.39 89.8329 L1375.39 27.2059 L1382.88 27.2059 L1382.88 34.0924 Q1385.23 30.0415 1388.79 28.0971 Q1392.4 26.1121 1397.38 26.1121 Q1405.65 26.1121 1410.79 32.6746 Q1415.98 39.2371 1415.98 49.9314 Q1415.98 60.6258 1410.79 67.1883 Q1405.65 73.7508 1397.38 73.7508 Q1392.4 73.7508 1388.79 71.8063 Q1385.23 69.8214 1382.88 65.7705 M1408.24 49.9314 Q1408.24 41.7081 1404.84 37.0496 Q1401.47 32.3505 1395.56 32.3505 Q1389.65 32.3505 1386.24 37.0496 Q1382.88 41.7081 1382.88 49.9314 Q1382.88 58.1548 1386.24 62.8538 Q1389.65 67.5124 1395.56 67.5124 Q1401.47 67.5124 1404.84 62.8538 Q1408.24 58.1548 1408.24 49.9314 Z" fill="#000000" fill-rule="nonzero" fill-opacity="1" /><path clip-path="url(#clip430)" d="M1428.33 9.54393 L1435.79 9.54393 L1435.79 72.576 L1428.33 72.576 L1428.33 9.54393 Z" fill="#000000" fill-rule="nonzero" fill-opacity="1" /><path clip-path="url(#clip430)" d="M1468.96 32.4315 Q1462.97 32.4315 1459.48 37.1306 Q1456 41.7891 1456 49.9314 Q1456 58.0738 1459.44 62.7728 Q1462.93 67.4314 1468.96 67.4314 Q1474.92 67.4314 1478.4 62.7323 Q1481.88 58.0333 1481.88 49.9314 Q1481.88 41.8701 1478.4 37.1711 Q1474.92 32.4315 1468.96 32.4315 M1468.96 26.1121 Q1478.68 26.1121 1484.23 32.4315 Q1489.78 38.7509 1489.78 49.9314 Q1489.78 61.0714 1484.23 67.4314 Q1478.68 73.7508 1468.96 73.7508 Q1459.2 73.7508 1453.65 67.4314 Q1448.14 61.0714 1448.14 49.9314 Q1448.14 38.7509 1453.65 32.4315 Q1459.2 26.1121 1468.96 26.1121 Z" fill="#000000" fill-rule="nonzero" fill-opacity="1" /><path clip-path="url(#clip430)" d="M1509.51 14.324 L1509.51 27.2059 L1524.86 27.2059 L1524.86 32.9987 L1509.51 32.9987 L1509.51 57.6282 Q1509.51 63.1779 1511.01 64.7578 Q1512.55 66.3376 1517.21 66.3376 L1524.86 66.3376 L1524.86 72.576 L1517.21 72.576 Q1508.58 72.576 1505.3 69.3758 Q1502.02 66.1351 1502.02 57.6282 L1502.02 32.9987 L1496.55 32.9987 L1496.55 27.2059 L1502.02 27.2059 L1502.02 14.324 L1509.51 14.324 Z" fill="#000000" fill-rule="nonzero" fill-opacity="1" /><circle clip-path="url(#clip431)" cx="344.895" cy="159.4" r="14.4" fill="#009af9" fill-rule="evenodd" fill-opacity="1" stroke="none"/>
<circle clip-path="url(#clip431)" cx="360.49" cy="1288.03" r="14.4" fill="#009af9" fill-rule="evenodd" fill-opacity="1" stroke="none"/>
<circle clip-path="url(#clip431)" cx="376.085" cy="1290.29" r="14.4" fill="#009af9" fill-rule="evenodd" fill-opacity="1" stroke="none"/>
<circle clip-path="url(#clip431)" cx="391.68" cy="1292.24" r="14.4" fill="#009af9" fill-rule="evenodd" fill-opacity="1" stroke="none"/>
<circle clip-path="url(#clip431)" cx="407.275" cy="1295.49" r="14.4" fill="#009af9" fill-rule="evenodd" fill-opacity="1" stroke="none"/>
<circle clip-path="url(#clip431)" cx="422.87" cy="1296.87" r="14.4" fill="#009af9" fill-rule="evenodd" fill-opacity="1" stroke="none"/>
<circle clip-path="url(#clip431)" cx="438.466" cy="1299.33" r="14.4" fill="#009af9" fill-rule="evenodd" fill-opacity="1" stroke="none"/>
<circle clip-path="url(#clip431)" cx="454.061" cy="1300.54" r="14.4" fill="#009af9" fill-rule="evenodd" fill-opacity="1" stroke="none"/>
<circle clip-path="url(#clip431)" cx="469.656" cy="1301.09" r="14.4" fill="#009af9" fill-rule="evenodd" fill-opacity="1" stroke="none"/>
<circle clip-path="url(#clip431)" cx="485.251" cy="1302.18" r="14.4" fill="#009af9" fill-rule="evenodd" fill-opacity="1" stroke="none"/>
<circle clip-path="url(#clip431)" cx="500.846" cy="1303.86" r="14.4" fill="#009af9" fill-rule="evenodd" fill-opacity="1" stroke="none"/>
<circle clip-path="url(#clip431)" cx="516.441" cy="1304.93" r="14.4" fill="#009af9" fill-rule="evenodd" fill-opacity="1" stroke="none"/>
<circle clip-path="url(#clip431)" cx="532.036" cy="1305.6" r="14.4" fill="#009af9" fill-rule="evenodd" fill-opacity="1" stroke="none"/>
<circle clip-path="url(#clip431)" cx="547.631" cy="1306.46" r="14.4" fill="#009af9" fill-rule="evenodd" fill-opacity="1" stroke="none"/>
<circle clip-path="url(#clip431)" cx="563.226" cy="1306.89" r="14.4" fill="#009af9" fill-rule="evenodd" fill-opacity="1" stroke="none"/>
<circle clip-path="url(#clip431)" cx="578.821" cy="1307.91" r="14.4" fill="#009af9" fill-rule="evenodd" fill-opacity="1" stroke="none"/>
<circle clip-path="url(#clip431)" cx="594.416" cy="1308.56" r="14.4" fill="#009af9" fill-rule="evenodd" fill-opacity="1" stroke="none"/>
<circle clip-path="url(#clip431)" cx="610.011" cy="1309.78" r="14.4" fill="#009af9" fill-rule="evenodd" fill-opacity="1" stroke="none"/>
<circle clip-path="url(#clip431)" cx="625.606" cy="1310.26" r="14.4" fill="#009af9" fill-rule="evenodd" fill-opacity="1" stroke="none"/>
<circle clip-path="url(#clip431)" cx="641.201" cy="1311.23" r="14.4" fill="#009af9" fill-rule="evenodd" fill-opacity="1" stroke="none"/>
<circle clip-path="url(#clip431)" cx="656.796" cy="1312.62" r="14.4" fill="#009af9" fill-rule="evenodd" fill-opacity="1" stroke="none"/>
<circle clip-path="url(#clip431)" cx="672.391" cy="1313.71" r="14.4" fill="#009af9" fill-rule="evenodd" fill-opacity="1" stroke="none"/>
<circle clip-path="url(#clip431)" cx="687.986" cy="1314.53" r="14.4" fill="#009af9" fill-rule="evenodd" fill-opacity="1" stroke="none"/>
<circle clip-path="url(#clip431)" cx="703.581" cy="1315.43" r="14.4" fill="#009af9" fill-rule="evenodd" fill-opacity="1" stroke="none"/>
<circle clip-path="url(#clip431)" cx="719.176" cy="1316.51" r="14.4" fill="#009af9" fill-rule="evenodd" fill-opacity="1" stroke="none"/>
<circle clip-path="url(#clip431)" cx="734.771" cy="1317.21" r="14.4" fill="#009af9" fill-rule="evenodd" fill-opacity="1" stroke="none"/>
<circle clip-path="url(#clip431)" cx="750.366" cy="1317.59" r="14.4" fill="#009af9" fill-rule="evenodd" fill-opacity="1" stroke="none"/>
<circle clip-path="url(#clip431)" cx="765.961" cy="1318.23" r="14.4" fill="#009af9" fill-rule="evenodd" fill-opacity="1" stroke="none"/>
<circle clip-path="url(#clip431)" cx="781.556" cy="1319.12" r="14.4" fill="#009af9" fill-rule="evenodd" fill-opacity="1" stroke="none"/>
<circle clip-path="url(#clip431)" cx="797.151" cy="1319.48" r="14.4" fill="#009af9" fill-rule="evenodd" fill-opacity="1" stroke="none"/>
<circle clip-path="url(#clip431)" cx="812.746" cy="1320.36" r="14.4" fill="#009af9" fill-rule="evenodd" fill-opacity="1" stroke="none"/>
<circle clip-path="url(#clip431)" cx="828.341" cy="1320.72" r="14.4" fill="#009af9" fill-rule="evenodd" fill-opacity="1" stroke="none"/>
<circle clip-path="url(#clip431)" cx="843.936" cy="1321.26" r="14.4" fill="#009af9" fill-rule="evenodd" fill-opacity="1" stroke="none"/>
<circle clip-path="url(#clip431)" cx="859.531" cy="1322.58" r="14.4" fill="#009af9" fill-rule="evenodd" fill-opacity="1" stroke="none"/>
<circle clip-path="url(#clip431)" cx="875.126" cy="1322.97" r="14.4" fill="#009af9" fill-rule="evenodd" fill-opacity="1" stroke="none"/>
<circle clip-path="url(#clip431)" cx="890.721" cy="1323.54" r="14.4" fill="#009af9" fill-rule="evenodd" fill-opacity="1" stroke="none"/>
<circle clip-path="url(#clip431)" cx="906.317" cy="1324.51" r="14.4" fill="#009af9" fill-rule="evenodd" fill-opacity="1" stroke="none"/>
<circle clip-path="url(#clip431)" cx="921.912" cy="1324.96" r="14.4" fill="#009af9" fill-rule="evenodd" fill-opacity="1" stroke="none"/>
<circle clip-path="url(#clip431)" cx="937.507" cy="1326.18" r="14.4" fill="#009af9" fill-rule="evenodd" fill-opacity="1" stroke="none"/>
<circle clip-path="url(#clip431)" cx="953.102" cy="1326.42" r="14.4" fill="#009af9" fill-rule="evenodd" fill-opacity="1" stroke="none"/>
<circle clip-path="url(#clip431)" cx="968.697" cy="1327.05" r="14.4" fill="#009af9" fill-rule="evenodd" fill-opacity="1" stroke="none"/>
<circle clip-path="url(#clip431)" cx="984.292" cy="1327.75" r="14.4" fill="#009af9" fill-rule="evenodd" fill-opacity="1" stroke="none"/>
<circle clip-path="url(#clip431)" cx="999.887" cy="1328.22" r="14.4" fill="#009af9" fill-rule="evenodd" fill-opacity="1" stroke="none"/>
<circle clip-path="url(#clip431)" cx="1015.48" cy="1328.77" r="14.4" fill="#009af9" fill-rule="evenodd" fill-opacity="1" stroke="none"/>
<circle clip-path="url(#clip431)" cx="1031.08" cy="1329.28" r="14.4" fill="#009af9" fill-rule="evenodd" fill-opacity="1" stroke="none"/>
<circle clip-path="url(#clip431)" cx="1046.67" cy="1329.74" r="14.4" fill="#009af9" fill-rule="evenodd" fill-opacity="1" stroke="none"/>
<circle clip-path="url(#clip431)" cx="1062.27" cy="1330.16" r="14.4" fill="#009af9" fill-rule="evenodd" fill-opacity="1" stroke="none"/>
<circle clip-path="url(#clip431)" cx="1077.86" cy="1330.94" r="14.4" fill="#009af9" fill-rule="evenodd" fill-opacity="1" stroke="none"/>
<circle clip-path="url(#clip431)" cx="1093.46" cy="1331.3" r="14.4" fill="#009af9" fill-rule="evenodd" fill-opacity="1" stroke="none"/>
<circle clip-path="url(#clip431)" cx="1109.05" cy="1331.55" r="14.4" fill="#009af9" fill-rule="evenodd" fill-opacity="1" stroke="none"/>
<circle clip-path="url(#clip431)" cx="1124.65" cy="1332.48" r="14.4" fill="#009af9" fill-rule="evenodd" fill-opacity="1" stroke="none"/>
<circle clip-path="url(#clip431)" cx="1140.24" cy="1332.75" r="14.4" fill="#009af9" fill-rule="evenodd" fill-opacity="1" stroke="none"/>
<circle clip-path="url(#clip431)" cx="1155.84" cy="1333.64" r="14.4" fill="#009af9" fill-rule="evenodd" fill-opacity="1" stroke="none"/>
<circle clip-path="url(#clip431)" cx="1171.43" cy="1334.08" r="14.4" fill="#009af9" fill-rule="evenodd" fill-opacity="1" stroke="none"/>
<circle clip-path="url(#clip431)" cx="1187.03" cy="1334.57" r="14.4" fill="#009af9" fill-rule="evenodd" fill-opacity="1" stroke="none"/>
<circle clip-path="url(#clip431)" cx="1202.62" cy="1335.16" r="14.4" fill="#009af9" fill-rule="evenodd" fill-opacity="1" stroke="none"/>
<circle clip-path="url(#clip431)" cx="1218.22" cy="1335.66" r="14.4" fill="#009af9" fill-rule="evenodd" fill-opacity="1" stroke="none"/>
<circle clip-path="url(#clip431)" cx="1233.81" cy="1336.22" r="14.4" fill="#009af9" fill-rule="evenodd" fill-opacity="1" stroke="none"/>
<circle clip-path="url(#clip431)" cx="1249.41" cy="1336.37" r="14.4" fill="#009af9" fill-rule="evenodd" fill-opacity="1" stroke="none"/>
<circle clip-path="url(#clip431)" cx="1265" cy="1337.04" r="14.4" fill="#009af9" fill-rule="evenodd" fill-opacity="1" stroke="none"/>
<circle clip-path="url(#clip431)" cx="1280.6" cy="1337.58" r="14.4" fill="#009af9" fill-rule="evenodd" fill-opacity="1" stroke="none"/>
<circle clip-path="url(#clip431)" cx="1296.19" cy="1338.04" r="14.4" fill="#009af9" fill-rule="evenodd" fill-opacity="1" stroke="none"/>
<circle clip-path="url(#clip431)" cx="1311.79" cy="1338.33" r="14.4" fill="#009af9" fill-rule="evenodd" fill-opacity="1" stroke="none"/>
<circle clip-path="url(#clip431)" cx="1327.38" cy="1339.15" r="14.4" fill="#009af9" fill-rule="evenodd" fill-opacity="1" stroke="none"/>
<circle clip-path="url(#clip431)" cx="1342.98" cy="1339.71" r="14.4" fill="#009af9" fill-rule="evenodd" fill-opacity="1" stroke="none"/>
<circle clip-path="url(#clip431)" cx="1358.57" cy="1340.24" r="14.4" fill="#009af9" fill-rule="evenodd" fill-opacity="1" stroke="none"/>
<circle clip-path="url(#clip431)" cx="1374.17" cy="1340.47" r="14.4" fill="#009af9" fill-rule="evenodd" fill-opacity="1" stroke="none"/>
<circle clip-path="url(#clip431)" cx="1389.76" cy="1341.13" r="14.4" fill="#009af9" fill-rule="evenodd" fill-opacity="1" stroke="none"/>
<circle clip-path="url(#clip431)" cx="1405.36" cy="1341.4" r="14.4" fill="#009af9" fill-rule="evenodd" fill-opacity="1" stroke="none"/>
<circle clip-path="url(#clip431)" cx="1420.95" cy="1341.74" r="14.4" fill="#009af9" fill-rule="evenodd" fill-opacity="1" stroke="none"/>
<circle clip-path="url(#clip431)" cx="1436.55" cy="1342.2" r="14.4" fill="#009af9" fill-rule="evenodd" fill-opacity="1" stroke="none"/>
<circle clip-path="url(#clip431)" cx="1452.14" cy="1342.75" r="14.4" fill="#009af9" fill-rule="evenodd" fill-opacity="1" stroke="none"/>
<circle clip-path="url(#clip431)" cx="1467.74" cy="1342.83" r="14.4" fill="#009af9" fill-rule="evenodd" fill-opacity="1" stroke="none"/>
<circle clip-path="url(#clip431)" cx="1483.33" cy="1343.11" r="14.4" fill="#009af9" fill-rule="evenodd" fill-opacity="1" stroke="none"/>
<circle clip-path="url(#clip431)" cx="1498.93" cy="1343.58" r="14.4" fill="#009af9" fill-rule="evenodd" fill-opacity="1" stroke="none"/>
<circle clip-path="url(#clip431)" cx="1514.52" cy="1343.9" r="14.4" fill="#009af9" fill-rule="evenodd" fill-opacity="1" stroke="none"/>
<circle clip-path="url(#clip431)" cx="1530.12" cy="1344.3" r="14.4" fill="#009af9" fill-rule="evenodd" fill-opacity="1" stroke="none"/>
<circle clip-path="url(#clip431)" cx="1545.71" cy="1344.7" r="14.4" fill="#009af9" fill-rule="evenodd" fill-opacity="1" stroke="none"/>
<circle clip-path="url(#clip431)" cx="1561.31" cy="1344.83" r="14.4" fill="#009af9" fill-rule="evenodd" fill-opacity="1" stroke="none"/>
<circle clip-path="url(#clip431)" cx="1576.9" cy="1345.19" r="14.4" fill="#009af9" fill-rule="evenodd" fill-opacity="1" stroke="none"/>
<circle clip-path="url(#clip431)" cx="1592.5" cy="1345.62" r="14.4" fill="#009af9" fill-rule="evenodd" fill-opacity="1" stroke="none"/>
<circle clip-path="url(#clip431)" cx="1608.09" cy="1345.88" r="14.4" fill="#009af9" fill-rule="evenodd" fill-opacity="1" stroke="none"/>
<circle clip-path="url(#clip431)" cx="1623.69" cy="1346.19" r="14.4" fill="#009af9" fill-rule="evenodd" fill-opacity="1" stroke="none"/>
<circle clip-path="url(#clip431)" cx="1639.28" cy="1346.5" r="14.4" fill="#009af9" fill-rule="evenodd" fill-opacity="1" stroke="none"/>
<circle clip-path="url(#clip431)" cx="1654.88" cy="1346.74" r="14.4" fill="#009af9" fill-rule="evenodd" fill-opacity="1" stroke="none"/>
<circle clip-path="url(#clip431)" cx="1670.47" cy="1347.39" r="14.4" fill="#009af9" fill-rule="evenodd" fill-opacity="1" stroke="none"/>
<circle clip-path="url(#clip431)" cx="1686.07" cy="1347.6" r="14.4" fill="#009af9" fill-rule="evenodd" fill-opacity="1" stroke="none"/>
<circle clip-path="url(#clip431)" cx="1701.66" cy="1347.84" r="14.4" fill="#009af9" fill-rule="evenodd" fill-opacity="1" stroke="none"/>
<circle clip-path="url(#clip431)" cx="1717.26" cy="1347.91" r="14.4" fill="#009af9" fill-rule="evenodd" fill-opacity="1" stroke="none"/>
<circle clip-path="url(#clip431)" cx="1732.85" cy="1348.35" r="14.4" fill="#009af9" fill-rule="evenodd" fill-opacity="1" stroke="none"/>
<circle clip-path="url(#clip431)" cx="1748.45" cy="1348.64" r="14.4" fill="#009af9" fill-rule="evenodd" fill-opacity="1" stroke="none"/>
<circle clip-path="url(#clip431)" cx="1764.04" cy="1348.83" r="14.4" fill="#009af9" fill-rule="evenodd" fill-opacity="1" stroke="none"/>
<circle clip-path="url(#clip431)" cx="1779.64" cy="1349.12" r="14.4" fill="#009af9" fill-rule="evenodd" fill-opacity="1" stroke="none"/>
<circle clip-path="url(#clip431)" cx="1795.23" cy="1349.39" r="14.4" fill="#009af9" fill-rule="evenodd" fill-opacity="1" stroke="none"/>
<circle clip-path="url(#clip431)" cx="1810.83" cy="1349.64" r="14.4" fill="#009af9" fill-rule="evenodd" fill-opacity="1" stroke="none"/>
<circle clip-path="url(#clip431)" cx="1826.42" cy="1350.04" r="14.4" fill="#009af9" fill-rule="evenodd" fill-opacity="1" stroke="none"/>
<circle clip-path="url(#clip431)" cx="1842.02" cy="1350.4" r="14.4" fill="#009af9" fill-rule="evenodd" fill-opacity="1" stroke="none"/>
<circle clip-path="url(#clip431)" cx="1857.61" cy="1350.69" r="14.4" fill="#009af9" fill-rule="evenodd" fill-opacity="1" stroke="none"/>
<circle clip-path="url(#clip431)" cx="1873.21" cy="1350.84" r="14.4" fill="#009af9" fill-rule="evenodd" fill-opacity="1" stroke="none"/>
<circle clip-path="url(#clip431)" cx="1888.8" cy="1351.06" r="14.4" fill="#009af9" fill-rule="evenodd" fill-opacity="1" stroke="none"/>
<circle clip-path="url(#clip431)" cx="1904.4" cy="1351.31" r="14.4" fill="#009af9" fill-rule="evenodd" fill-opacity="1" stroke="none"/>
<circle clip-path="url(#clip431)" cx="1919.99" cy="1351.88" r="14.4" fill="#009af9" fill-rule="evenodd" fill-opacity="1" stroke="none"/>
<circle clip-path="url(#clip431)" cx="1935.59" cy="1352.06" r="14.4" fill="#009af9" fill-rule="evenodd" fill-opacity="1" stroke="none"/>
<circle clip-path="url(#clip431)" cx="1951.18" cy="1352.31" r="14.4" fill="#009af9" fill-rule="evenodd" fill-opacity="1" stroke="none"/>
<circle clip-path="url(#clip431)" cx="1966.78" cy="1352.48" r="14.4" fill="#009af9" fill-rule="evenodd" fill-opacity="1" stroke="none"/>
<circle clip-path="url(#clip431)" cx="1982.37" cy="1352.87" r="14.4" fill="#009af9" fill-rule="evenodd" fill-opacity="1" stroke="none"/>
<circle clip-path="url(#clip431)" cx="1997.97" cy="1353" r="14.4" fill="#009af9" fill-rule="evenodd" fill-opacity="1" stroke="none"/>
<circle clip-path="url(#clip431)" cx="2013.56" cy="1353.24" r="14.4" fill="#009af9" fill-rule="evenodd" fill-opacity="1" stroke="none"/>
<circle clip-path="url(#clip431)" cx="2029.16" cy="1353.45" r="14.4" fill="#009af9" fill-rule="evenodd" fill-opacity="1" stroke="none"/>
<circle clip-path="url(#clip431)" cx="2044.75" cy="1353.69" r="14.4" fill="#009af9" fill-rule="evenodd" fill-opacity="1" stroke="none"/>
<circle clip-path="url(#clip431)" cx="2060.35" cy="1353.71" r="14.4" fill="#009af9" fill-rule="evenodd" fill-opacity="1" stroke="none"/>
<circle clip-path="url(#clip431)" cx="2075.94" cy="1354.2" r="14.4" fill="#009af9" fill-rule="evenodd" fill-opacity="1" stroke="none"/>
<circle clip-path="url(#clip431)" cx="2091.54" cy="1354.29" r="14.4" fill="#009af9" fill-rule="evenodd" fill-opacity="1" stroke="none"/>
<circle clip-path="url(#clip431)" cx="2107.13" cy="1354.46" r="14.4" fill="#009af9" fill-rule="evenodd" fill-opacity="1" stroke="none"/>
<circle clip-path="url(#clip431)" cx="2122.73" cy="1354.73" r="14.4" fill="#009af9" fill-rule="evenodd" fill-opacity="1" stroke="none"/>
<circle clip-path="url(#clip431)" cx="2138.32" cy="1354.89" r="14.4" fill="#009af9" fill-rule="evenodd" fill-opacity="1" stroke="none"/>
<circle clip-path="url(#clip431)" cx="2153.92" cy="1355.28" r="14.4" fill="#009af9" fill-rule="evenodd" fill-opacity="1" stroke="none"/>
<circle clip-path="url(#clip431)" cx="2169.51" cy="1355.52" r="14.4" fill="#009af9" fill-rule="evenodd" fill-opacity="1" stroke="none"/>
<circle clip-path="url(#clip431)" cx="2185.11" cy="1355.58" r="14.4" fill="#009af9" fill-rule="evenodd" fill-opacity="1" stroke="none"/>
<circle clip-path="url(#clip431)" cx="2200.7" cy="1355.83" r="14.4" fill="#009af9" fill-rule="evenodd" fill-opacity="1" stroke="none"/>
<circle clip-path="url(#clip431)" cx="2216.3" cy="1356.01" r="14.4" fill="#009af9" fill-rule="evenodd" fill-opacity="1" stroke="none"/>
<circle clip-path="url(#clip431)" cx="2231.89" cy="1356.18" r="14.4" fill="#009af9" fill-rule="evenodd" fill-opacity="1" stroke="none"/>
<circle clip-path="url(#clip431)" cx="2247.49" cy="1356.24" r="14.4" fill="#009af9" fill-rule="evenodd" fill-opacity="1" stroke="none"/>
<circle clip-path="url(#clip431)" cx="2263.08" cy="1356.51" r="14.4" fill="#009af9" fill-rule="evenodd" fill-opacity="1" stroke="none"/>
<circle clip-path="url(#clip431)" cx="2278.68" cy="1356.8" r="14.4" fill="#009af9" fill-rule="evenodd" fill-opacity="1" stroke="none"/>
<circle clip-path="url(#clip431)" cx="2294.27" cy="1357.01" r="14.4" fill="#009af9" fill-rule="evenodd" fill-opacity="1" stroke="none"/>
</svg>
