<?xml version="1.0" encoding="utf-8"?>
<svg xmlns="http://www.w3.org/2000/svg" xmlns:xlink="http://www.w3.org/1999/xlink" width="600" height="400" viewBox="0 0 2400 1600">
<defs>
  <clipPath id="clip460">
    <rect x="0" y="0" width="2400" height="1600"/>
  </clipPath>
</defs>
<path clip-path="url(#clip460)" d="M0 1600 L2400 1600 L2400 0 L0 0  Z" fill="#ffffff" fill-rule="evenodd" fill-opacity="1"/>
<defs>
  <clipPath id="clip461">
    <rect x="1378" y="47" width="975" height="1347"/>
  </clipPath>
</defs>
<path clip-path="url(#clip460)" d="M178.589 1392.94 L1152.76 1392.94 L1152.76 47.2441 L178.589 47.2441  Z" fill="#ffffff" fill-rule="evenodd" fill-opacity="1"/>
<defs>
  <clipPath id="clip462">
    <rect x="178" y="47" width="975" height="1347"/>
  </clipPath>
</defs>
<polyline clip-path="url(#clip462)" style="stroke:#000000; stroke-linecap:round; stroke-linejoin:round; stroke-width:2; stroke-opacity:0.1; fill:none" points="298.786,1392.94 298.786,47.2441 "/>
<polyline clip-path="url(#clip462)" style="stroke:#000000; stroke-linecap:round; stroke-linejoin:round; stroke-width:2; stroke-opacity:0.1; fill:none" points="484.038,1392.94 484.038,47.2441 "/>
<polyline clip-path="url(#clip462)" style="stroke:#000000; stroke-linecap:round; stroke-linejoin:round; stroke-width:2; stroke-opacity:0.1; fill:none" points="669.291,1392.94 669.291,47.2441 "/>
<polyline clip-path="url(#clip462)" style="stroke:#000000; stroke-linecap:round; stroke-linejoin:round; stroke-width:2; stroke-opacity:0.1; fill:none" points="854.543,1392.94 854.543,47.2441 "/>
<polyline clip-path="url(#clip462)" style="stroke:#000000; stroke-linecap:round; stroke-linejoin:round; stroke-width:2; stroke-opacity:0.1; fill:none" points="1039.8,1392.94 1039.8,47.2441 "/>
<polyline clip-path="url(#clip462)" style="stroke:#000000; stroke-linecap:round; stroke-linejoin:round; stroke-width:2; stroke-opacity:0.1; fill:none" points="178.589,1326.27 1152.76,1326.27 "/>
<polyline clip-path="url(#clip462)" style="stroke:#000000; stroke-linecap:round; stroke-linejoin:round; stroke-width:2; stroke-opacity:0.1; fill:none" points="178.589,1121.46 1152.76,1121.46 "/>
<polyline clip-path="url(#clip462)" style="stroke:#000000; stroke-linecap:round; stroke-linejoin:round; stroke-width:2; stroke-opacity:0.1; fill:none" points="178.589,916.645 1152.76,916.645 "/>
<polyline clip-path="url(#clip462)" style="stroke:#000000; stroke-linecap:round; stroke-linejoin:round; stroke-width:2; stroke-opacity:0.1; fill:none" points="178.589,711.835 1152.76,711.835 "/>
<polyline clip-path="url(#clip462)" style="stroke:#000000; stroke-linecap:round; stroke-linejoin:round; stroke-width:2; stroke-opacity:0.1; fill:none" points="178.589,507.025 1152.76,507.025 "/>
<polyline clip-path="url(#clip462)" style="stroke:#000000; stroke-linecap:round; stroke-linejoin:round; stroke-width:2; stroke-opacity:0.1; fill:none" points="178.589,302.215 1152.76,302.215 "/>
<polyline clip-path="url(#clip462)" style="stroke:#000000; stroke-linecap:round; stroke-linejoin:round; stroke-width:2; stroke-opacity:0.1; fill:none" points="178.589,97.4049 1152.76,97.4049 "/>
<polyline clip-path="url(#clip460)" style="stroke:#000000; stroke-linecap:round; stroke-linejoin:round; stroke-width:4; stroke-opacity:1; fill:none" points="178.589,1392.94 1152.76,1392.94 "/>
<polyline clip-path="url(#clip460)" style="stroke:#000000; stroke-linecap:round; stroke-linejoin:round; stroke-width:4; stroke-opacity:1; fill:none" points="298.786,1392.94 298.786,1374.04 "/>
<polyline clip-path="url(#clip460)" style="stroke:#000000; stroke-linecap:round; stroke-linejoin:round; stroke-width:4; stroke-opacity:1; fill:none" points="484.038,1392.94 484.038,1374.04 "/>
<polyline clip-path="url(#clip460)" style="stroke:#000000; stroke-linecap:round; stroke-linejoin:round; stroke-width:4; stroke-opacity:1; fill:none" points="669.291,1392.94 669.291,1374.04 "/>
<polyline clip-path="url(#clip460)" style="stroke:#000000; stroke-linecap:round; stroke-linejoin:round; stroke-width:4; stroke-opacity:1; fill:none" points="854.543,1392.94 854.543,1374.04 "/>
<polyline clip-path="url(#clip460)" style="stroke:#000000; stroke-linecap:round; stroke-linejoin:round; stroke-width:4; stroke-opacity:1; fill:none" points="1039.8,1392.94 1039.8,1374.04 "/>
<path clip-path="url(#clip460)" d="M219.776 1451.7 L264.289 1451.7 L264.289 1457.6 L219.776 1457.6 L219.776 1451.7 Z" fill="#000000" fill-rule="nonzero" fill-opacity="1" /><path clip-path="url(#clip460)" d="M294.428 1429.72 Q289.012 1429.72 286.269 1435.07 Q283.56 1440.38 283.56 1451.07 Q283.56 1461.73 286.269 1467.08 Q289.012 1472.39 294.428 1472.39 Q299.88 1472.39 302.588 1467.08 Q305.331 1461.73 305.331 1451.07 Q305.331 1440.38 302.588 1435.07 Q299.88 1429.72 294.428 1429.72 M294.428 1424.16 Q303.143 1424.16 307.727 1431.07 Q312.345 1437.95 312.345 1451.07 Q312.345 1464.16 307.727 1471.07 Q303.143 1477.95 294.428 1477.95 Q285.713 1477.95 281.095 1471.07 Q276.512 1464.16 276.512 1451.07 Q276.512 1437.95 281.095 1431.07 Q285.713 1424.16 294.428 1424.16 Z" fill="#000000" fill-rule="nonzero" fill-opacity="1" /><path clip-path="url(#clip460)" d="M324.671 1468.12 L331.997 1468.12 L331.997 1476.94 L324.671 1476.94 L324.671 1468.12 Z" fill="#000000" fill-rule="nonzero" fill-opacity="1" /><path clip-path="url(#clip460)" d="M353.317 1471.04 L377.796 1471.04 L377.796 1476.94 L344.879 1476.94 L344.879 1471.04 Q348.872 1466.91 355.747 1459.96 Q362.657 1452.98 364.428 1450.97 Q367.796 1447.18 369.115 1444.58 Q370.469 1441.94 370.469 1439.41 Q370.469 1435.27 367.553 1432.67 Q364.671 1430.07 360.018 1430.07 Q356.72 1430.07 353.039 1431.21 Q349.393 1432.36 345.227 1434.68 L345.227 1427.6 Q349.463 1425.9 353.143 1425.03 Q356.824 1424.16 359.879 1424.16 Q367.935 1424.16 372.726 1428.19 Q377.518 1432.22 377.518 1438.95 Q377.518 1442.15 376.303 1445.03 Q375.122 1447.88 371.963 1451.77 Q371.094 1452.77 366.442 1457.6 Q361.789 1462.39 353.317 1471.04 Z" fill="#000000" fill-rule="nonzero" fill-opacity="1" /><path clip-path="url(#clip460)" d="M404.75 1451.7 L449.264 1451.7 L449.264 1457.6 L404.75 1457.6 L404.75 1451.7 Z" fill="#000000" fill-rule="nonzero" fill-opacity="1" /><path clip-path="url(#clip460)" d="M479.403 1429.72 Q473.986 1429.72 471.243 1435.07 Q468.535 1440.38 468.535 1451.07 Q468.535 1461.73 471.243 1467.08 Q473.986 1472.39 479.403 1472.39 Q484.854 1472.39 487.562 1467.08 Q490.306 1461.73 490.306 1451.07 Q490.306 1440.38 487.562 1435.07 Q484.854 1429.72 479.403 1429.72 M479.403 1424.16 Q488.118 1424.16 492.701 1431.07 Q497.319 1437.95 497.319 1451.07 Q497.319 1464.16 492.701 1471.07 Q488.118 1477.95 479.403 1477.95 Q470.688 1477.95 466.07 1471.07 Q461.486 1464.16 461.486 1451.07 Q461.486 1437.95 466.07 1431.07 Q470.688 1424.16 479.403 1424.16 Z" fill="#000000" fill-rule="nonzero" fill-opacity="1" /><path clip-path="url(#clip460)" d="M509.646 1468.12 L516.972 1468.12 L516.972 1476.94 L509.646 1476.94 L509.646 1468.12 Z" fill="#000000" fill-rule="nonzero" fill-opacity="1" /><path clip-path="url(#clip460)" d="M533.465 1471.04 L544.923 1471.04 L544.923 1431.49 L532.458 1433.99 L532.458 1427.6 L544.854 1425.1 L551.868 1425.1 L551.868 1471.04 L563.326 1471.04 L563.326 1476.94 L533.465 1476.94 L533.465 1471.04 Z" fill="#000000" fill-rule="nonzero" fill-opacity="1" /><path clip-path="url(#clip460)" d="M635.367 1429.72 Q629.951 1429.72 627.207 1435.07 Q624.499 1440.38 624.499 1451.07 Q624.499 1461.73 627.207 1467.08 Q629.951 1472.39 635.367 1472.39 Q640.819 1472.39 643.527 1467.08 Q646.27 1461.73 646.27 1451.07 Q646.27 1440.38 643.527 1435.07 Q640.819 1429.72 635.367 1429.72 M635.367 1424.16 Q644.082 1424.16 648.666 1431.07 Q653.284 1437.95 653.284 1451.07 Q653.284 1464.16 648.666 1471.07 Q644.082 1477.95 635.367 1477.95 Q626.652 1477.95 622.034 1471.07 Q617.451 1464.16 617.451 1451.07 Q617.451 1437.95 622.034 1431.07 Q626.652 1424.16 635.367 1424.16 Z" fill="#000000" fill-rule="nonzero" fill-opacity="1" /><path clip-path="url(#clip460)" d="M665.61 1468.12 L672.936 1468.12 L672.936 1476.94 L665.61 1476.94 L665.61 1468.12 Z" fill="#000000" fill-rule="nonzero" fill-opacity="1" /><path clip-path="url(#clip460)" d="M703.214 1429.72 Q697.797 1429.72 695.054 1435.07 Q692.346 1440.38 692.346 1451.07 Q692.346 1461.73 695.054 1467.08 Q697.797 1472.39 703.214 1472.39 Q708.665 1472.39 711.374 1467.08 Q714.117 1461.73 714.117 1451.07 Q714.117 1440.38 711.374 1435.07 Q708.665 1429.72 703.214 1429.72 M703.214 1424.16 Q711.929 1424.16 716.513 1431.07 Q721.131 1437.95 721.131 1451.07 Q721.131 1464.16 716.513 1471.07 Q711.929 1477.95 703.214 1477.95 Q694.499 1477.95 689.881 1471.07 Q685.297 1464.16 685.297 1451.07 Q685.297 1437.95 689.881 1431.07 Q694.499 1424.16 703.214 1424.16 Z" fill="#000000" fill-rule="nonzero" fill-opacity="1" /><path clip-path="url(#clip460)" d="M821.54 1429.72 Q816.123 1429.72 813.38 1435.07 Q810.672 1440.38 810.672 1451.07 Q810.672 1461.73 813.38 1467.08 Q816.123 1472.39 821.54 1472.39 Q826.991 1472.39 829.699 1467.08 Q832.442 1461.73 832.442 1451.07 Q832.442 1440.38 829.699 1435.07 Q826.991 1429.72 821.54 1429.72 M821.54 1424.16 Q830.255 1424.16 834.838 1431.07 Q839.456 1437.95 839.456 1451.07 Q839.456 1464.16 834.838 1471.07 Q830.255 1477.95 821.54 1477.95 Q812.824 1477.95 808.206 1471.07 Q803.623 1464.16 803.623 1451.07 Q803.623 1437.95 808.206 1431.07 Q812.824 1424.16 821.54 1424.16 Z" fill="#000000" fill-rule="nonzero" fill-opacity="1" /><path clip-path="url(#clip460)" d="M851.783 1468.12 L859.109 1468.12 L859.109 1476.94 L851.783 1476.94 L851.783 1468.12 Z" fill="#000000" fill-rule="nonzero" fill-opacity="1" /><path clip-path="url(#clip460)" d="M875.602 1471.04 L887.06 1471.04 L887.06 1431.49 L874.595 1433.99 L874.595 1427.6 L886.991 1425.1 L894.005 1425.1 L894.005 1471.04 L905.463 1471.04 L905.463 1476.94 L875.602 1476.94 L875.602 1471.04 Z" fill="#000000" fill-rule="nonzero" fill-opacity="1" /><path clip-path="url(#clip460)" d="M1007.07 1429.72 Q1001.65 1429.72 998.91 1435.07 Q996.202 1440.38 996.202 1451.07 Q996.202 1461.73 998.91 1467.08 Q1001.65 1472.39 1007.07 1472.39 Q1012.52 1472.39 1015.23 1467.08 Q1017.97 1461.73 1017.97 1451.07 Q1017.97 1440.38 1015.23 1435.07 Q1012.52 1429.72 1007.07 1429.72 M1007.07 1424.16 Q1015.79 1424.16 1020.37 1431.07 Q1024.99 1437.95 1024.99 1451.07 Q1024.99 1464.16 1020.37 1471.07 Q1015.79 1477.95 1007.07 1477.95 Q998.355 1477.95 993.737 1471.07 Q989.153 1464.16 989.153 1451.07 Q989.153 1437.95 993.737 1431.07 Q998.355 1424.16 1007.07 1424.16 Z" fill="#000000" fill-rule="nonzero" fill-opacity="1" /><path clip-path="url(#clip460)" d="M1037.31 1468.12 L1044.64 1468.12 L1044.64 1476.94 L1037.31 1476.94 L1037.31 1468.12 Z" fill="#000000" fill-rule="nonzero" fill-opacity="1" /><path clip-path="url(#clip460)" d="M1065.96 1471.04 L1090.44 1471.04 L1090.44 1476.94 L1057.52 1476.94 L1057.52 1471.04 Q1061.51 1466.91 1068.39 1459.96 Q1075.3 1452.98 1077.07 1450.97 Q1080.44 1447.18 1081.76 1444.58 Q1083.11 1441.94 1083.11 1439.41 Q1083.11 1435.27 1080.19 1432.67 Q1077.31 1430.07 1072.66 1430.07 Q1069.36 1430.07 1065.68 1431.21 Q1062.03 1432.36 1057.87 1434.68 L1057.87 1427.6 Q1062.1 1425.9 1065.78 1425.03 Q1069.47 1424.16 1072.52 1424.16 Q1080.58 1424.16 1085.37 1428.19 Q1090.16 1432.22 1090.16 1438.95 Q1090.16 1442.15 1088.94 1445.03 Q1087.76 1447.88 1084.6 1451.77 Q1083.74 1452.77 1079.08 1457.6 Q1074.43 1462.39 1065.96 1471.04 Z" fill="#000000" fill-rule="nonzero" fill-opacity="1" /><path clip-path="url(#clip460)" d="M480.853 1518.47 Q480.853 1518.84 480.525 1520.11 Q480.238 1521.34 479.295 1523.76 Q478.394 1526.14 477 1528.8 Q475.647 1531.42 473.147 1534.74 Q470.647 1538.06 467.531 1540.97 Q461.67 1546.47 455.399 1549.42 Q449.168 1552.37 443.84 1553.31 L442.651 1553.31 Q441.339 1553.31 441.339 1552.29 L442.241 1548.52 L447.365 1527.98 Q448.963 1521.71 448.963 1521.18 Q448.963 1520.69 448.758 1520.44 Q448.594 1520.15 447.611 1519.95 Q446.668 1519.74 444.782 1519.74 Q444.004 1519.74 443.635 1519.7 Q443.307 1519.66 443.02 1519.46 Q442.733 1519.21 442.733 1518.72 Q442.733 1518.02 443.02 1517.65 Q443.348 1517.24 443.594 1517.16 Q443.84 1517.08 444.331 1517.04 Q445.028 1517 447.365 1516.79 Q449.701 1516.55 451.71 1516.38 Q453.718 1516.22 454.579 1516.22 Q455.071 1516.22 455.358 1516.46 Q455.644 1516.67 455.644 1516.91 L455.685 1517.12 L447.447 1550.53 Q450.48 1549.54 453.472 1547.9 Q456.505 1546.26 459.784 1543.56 Q463.064 1540.81 465.851 1537.41 Q468.638 1534.01 471.097 1529.25 Q473.598 1524.46 475.155 1518.96 Q475.442 1517.86 476.139 1517.2 Q476.877 1516.55 477.41 1516.38 Q477.943 1516.22 478.435 1516.22 Q479.541 1516.22 480.197 1516.83 Q480.853 1517.41 480.853 1518.47 Z" fill="#000000" fill-rule="nonzero" fill-opacity="1" /><path clip-path="url(#clip460)" d="M518.691 1546.65 Q518.691 1548.25 517.686 1549.17 Q516.682 1550.06 515.534 1550.06 Q514.444 1550.06 513.87 1549.43 Q513.296 1548.8 513.296 1548 Q513.296 1546.91 514.1 1545.96 Q514.903 1545.01 516.108 1544.81 Q514.932 1544.07 513.182 1544.07 Q512.034 1544.07 511.03 1544.67 Q510.054 1545.27 509.452 1546.05 Q508.878 1546.82 508.361 1547.94 Q507.873 1549.03 507.673 1549.69 Q507.5 1550.32 507.357 1551.01 L505.349 1559.04 Q504.373 1562.86 504.373 1564.21 Q504.373 1565.87 505.176 1566.99 Q505.98 1568.08 507.587 1568.08 Q508.218 1568.08 508.935 1567.91 Q509.652 1567.71 510.571 1567.19 Q511.517 1566.65 512.35 1565.84 Q513.21 1565.01 514.042 1563.61 Q514.874 1562.2 515.42 1560.39 Q515.592 1559.76 516.166 1559.76 Q516.883 1559.76 516.883 1560.33 Q516.883 1560.82 516.481 1561.85 Q516.108 1562.86 515.276 1564.18 Q514.473 1565.47 513.411 1566.65 Q512.35 1567.79 510.771 1568.6 Q509.193 1569.4 507.472 1569.4 Q505.004 1569.4 503.369 1568.08 Q501.733 1566.76 501.131 1564.93 Q500.987 1565.18 500.786 1565.53 Q500.586 1565.87 499.983 1566.65 Q499.409 1567.39 498.749 1567.97 Q498.089 1568.51 497.056 1568.94 Q496.052 1569.4 494.962 1569.4 Q493.585 1569.4 492.351 1569 Q491.146 1568.6 490.285 1567.68 Q489.424 1566.76 489.424 1565.5 Q489.424 1564.09 490.371 1563.12 Q491.347 1562.11 492.666 1562.11 Q493.499 1562.11 494.158 1562.6 Q494.847 1563.09 494.847 1564.15 Q494.847 1565.33 494.044 1566.22 Q493.24 1567.11 492.093 1567.34 Q493.269 1568.08 495.019 1568.08 Q496.913 1568.08 498.405 1566.42 Q499.897 1564.75 500.614 1561.97 Q502.393 1555.28 503.082 1552.3 Q503.77 1549.29 503.77 1548 Q503.77 1546.79 503.455 1545.96 Q503.139 1545.13 502.594 1544.75 Q502.078 1544.35 501.59 1544.21 Q501.131 1544.07 500.614 1544.07 Q499.754 1544.07 498.778 1544.41 Q497.831 1544.75 496.683 1545.56 Q495.564 1546.33 494.503 1547.94 Q493.441 1549.55 492.724 1551.76 Q492.58 1552.42 491.949 1552.42 Q491.261 1552.39 491.261 1551.81 Q491.261 1551.32 491.634 1550.32 Q492.035 1549.29 492.839 1548 Q493.671 1546.71 494.732 1545.56 Q495.823 1544.38 497.401 1543.58 Q499.008 1542.77 500.729 1542.77 Q501.504 1542.77 502.25 1542.95 Q503.024 1543.09 503.943 1543.52 Q504.889 1543.95 505.722 1544.9 Q506.554 1545.84 507.07 1547.22 Q507.414 1546.56 507.873 1545.93 Q508.361 1545.3 509.107 1544.52 Q509.882 1543.72 510.944 1543.26 Q512.034 1542.77 513.239 1542.77 Q514.415 1542.77 515.563 1543.09 Q516.711 1543.38 517.686 1544.32 Q518.691 1545.24 518.691 1546.65 Z" fill="#000000" fill-rule="nonzero" fill-opacity="1" /><path clip-path="url(#clip460)" d="M579.463 1490.36 Q574.035 1499.68 571.402 1508.79 Q568.769 1517.91 568.769 1527.27 Q568.769 1536.62 571.402 1545.82 Q574.076 1554.97 579.463 1564.25 L572.982 1564.25 Q566.905 1554.73 563.867 1545.53 Q560.87 1536.34 560.87 1527.27 Q560.87 1518.23 563.867 1509.08 Q566.865 1499.92 572.982 1490.36 L579.463 1490.36 Z" fill="#000000" fill-rule="nonzero" fill-opacity="1" /><path clip-path="url(#clip460)" d="M626.575 1509.68 L626.575 1516.65 Q623.416 1514.91 620.215 1514.06 Q617.056 1513.17 613.815 1513.17 Q606.564 1513.17 602.553 1517.79 Q598.543 1522.36 598.543 1530.67 Q598.543 1538.97 602.553 1543.59 Q606.564 1548.17 613.815 1548.17 Q617.056 1548.17 620.215 1547.32 Q623.416 1546.43 626.575 1544.68 L626.575 1551.57 Q623.456 1553.03 620.094 1553.76 Q616.772 1554.49 613.005 1554.49 Q602.756 1554.49 596.72 1548.05 Q590.684 1541.61 590.684 1530.67 Q590.684 1519.57 596.761 1513.21 Q602.877 1506.85 613.491 1506.85 Q616.934 1506.85 620.215 1507.58 Q623.497 1508.27 626.575 1509.68 Z" fill="#000000" fill-rule="nonzero" fill-opacity="1" /><path clip-path="url(#clip460)" d="M674.862 1516.65 Q677.657 1511.63 681.546 1509.24 Q685.435 1506.85 690.701 1506.85 Q697.79 1506.85 701.638 1511.83 Q705.487 1516.77 705.487 1525.93 L705.487 1553.31 L697.993 1553.31 L697.993 1526.17 Q697.993 1519.65 695.684 1516.49 Q693.375 1513.33 688.635 1513.33 Q682.842 1513.33 679.48 1517.18 Q676.118 1521.03 676.118 1527.67 L676.118 1553.31 L668.624 1553.31 L668.624 1526.17 Q668.624 1519.61 666.315 1516.49 Q664.006 1513.33 659.185 1513.33 Q653.473 1513.33 650.111 1517.22 Q646.749 1521.07 646.749 1527.67 L646.749 1553.31 L639.255 1553.31 L639.255 1507.94 L646.749 1507.94 L646.749 1514.99 Q649.301 1510.82 652.866 1508.83 Q656.43 1506.85 661.332 1506.85 Q666.274 1506.85 669.717 1509.36 Q673.201 1511.87 674.862 1516.65 Z" fill="#000000" fill-rule="nonzero" fill-opacity="1" /><path clip-path="url(#clip460)" d="M751.262 1492.83 L773.258 1515.4 L765.116 1515.4 L747.292 1499.4 L729.468 1515.4 L721.326 1515.4 L743.322 1492.83 L751.262 1492.83 Z" fill="#000000" fill-rule="nonzero" fill-opacity="1" /><path clip-path="url(#clip460)" d="M786.1 1527.27 L807.934 1527.27 L807.934 1533.91 L786.1 1533.91 L786.1 1527.27 Z" fill="#000000" fill-rule="nonzero" fill-opacity="1" /><path clip-path="url(#clip460)" d="M822.274 1546.43 L835.642 1546.43 L835.642 1500.29 L821.1 1503.2 L821.1 1495.75 L835.561 1492.83 L843.744 1492.83 L843.744 1546.43 L857.112 1546.43 L857.112 1553.31 L822.274 1553.31 L822.274 1546.43 Z" fill="#000000" fill-rule="nonzero" fill-opacity="1" /><path clip-path="url(#clip460)" d="M871.412 1490.36 L877.893 1490.36 Q883.97 1499.92 886.967 1509.08 Q890.006 1518.23 890.006 1527.27 Q890.006 1536.34 886.967 1545.53 Q883.97 1554.73 877.893 1564.25 L871.412 1564.25 Q876.8 1554.97 879.433 1545.82 Q882.106 1536.62 882.106 1527.27 Q882.106 1517.91 879.433 1508.79 Q876.8 1499.68 871.412 1490.36 Z" fill="#000000" fill-rule="nonzero" fill-opacity="1" /><polyline clip-path="url(#clip460)" style="stroke:#000000; stroke-linecap:round; stroke-linejoin:round; stroke-width:4; stroke-opacity:1; fill:none" points="178.589,1392.94 178.589,47.2441 "/>
<polyline clip-path="url(#clip460)" style="stroke:#000000; stroke-linecap:round; stroke-linejoin:round; stroke-width:4; stroke-opacity:1; fill:none" points="178.589,1326.27 197.486,1326.27 "/>
<polyline clip-path="url(#clip460)" style="stroke:#000000; stroke-linecap:round; stroke-linejoin:round; stroke-width:4; stroke-opacity:1; fill:none" points="178.589,1121.46 197.486,1121.46 "/>
<polyline clip-path="url(#clip460)" style="stroke:#000000; stroke-linecap:round; stroke-linejoin:round; stroke-width:4; stroke-opacity:1; fill:none" points="178.589,916.645 197.486,916.645 "/>
<polyline clip-path="url(#clip460)" style="stroke:#000000; stroke-linecap:round; stroke-linejoin:round; stroke-width:4; stroke-opacity:1; fill:none" points="178.589,711.835 197.486,711.835 "/>
<polyline clip-path="url(#clip460)" style="stroke:#000000; stroke-linecap:round; stroke-linejoin:round; stroke-width:4; stroke-opacity:1; fill:none" points="178.589,507.025 197.486,507.025 "/>
<polyline clip-path="url(#clip460)" style="stroke:#000000; stroke-linecap:round; stroke-linejoin:round; stroke-width:4; stroke-opacity:1; fill:none" points="178.589,302.215 197.486,302.215 "/>
<polyline clip-path="url(#clip460)" style="stroke:#000000; stroke-linecap:round; stroke-linejoin:round; stroke-width:4; stroke-opacity:1; fill:none" points="178.589,97.4049 197.486,97.4049 "/>
<path clip-path="url(#clip460)" d="M50.9921 1326.94 L95.5058 1326.94 L95.5058 1332.85 L50.9921 1332.85 L50.9921 1326.94 Z" fill="#000000" fill-rule="nonzero" fill-opacity="1" /><path clip-path="url(#clip460)" d="M131.894 1324.23 Q136.929 1325.31 139.742 1328.71 Q142.589 1332.12 142.589 1337.12 Q142.589 1344.79 137.311 1348.99 Q132.033 1353.19 122.311 1353.19 Q119.047 1353.19 115.575 1352.53 Q112.138 1351.91 108.457 1350.62 L108.457 1343.85 Q111.374 1345.55 114.846 1346.42 Q118.318 1347.29 122.103 1347.29 Q128.7 1347.29 132.138 1344.69 Q135.61 1342.08 135.61 1337.12 Q135.61 1332.53 132.381 1329.96 Q129.186 1327.36 123.457 1327.36 L117.415 1327.36 L117.415 1321.6 L123.735 1321.6 Q128.908 1321.6 131.651 1319.55 Q134.394 1317.46 134.394 1313.57 Q134.394 1309.58 131.547 1307.46 Q128.735 1305.31 123.457 1305.31 Q120.575 1305.31 117.276 1305.94 Q113.978 1306.56 110.02 1307.88 L110.02 1301.63 Q114.013 1300.52 117.485 1299.96 Q120.992 1299.41 124.082 1299.41 Q132.068 1299.41 136.721 1303.05 Q141.374 1306.67 141.374 1312.85 Q141.374 1317.15 138.908 1320.14 Q136.443 1323.09 131.894 1324.23 Z" fill="#000000" fill-rule="nonzero" fill-opacity="1" /><path clip-path="url(#clip460)" d="M52.4157 1122.13 L96.9294 1122.13 L96.9294 1128.04 L52.4157 1128.04 L52.4157 1122.13 Z" fill="#000000" fill-rule="nonzero" fill-opacity="1" /><path clip-path="url(#clip460)" d="M118.11 1141.47 L142.589 1141.47 L142.589 1147.38 L109.672 1147.38 L109.672 1141.47 Q113.665 1137.34 120.54 1130.4 Q127.45 1123.42 129.221 1121.4 Q132.589 1117.62 133.908 1115.01 Q135.263 1112.38 135.263 1109.84 Q135.263 1105.71 132.346 1103.1 Q129.464 1100.5 124.811 1100.5 Q121.513 1100.5 117.832 1101.65 Q114.186 1102.79 110.02 1105.12 L110.02 1098.04 Q114.256 1096.33 117.936 1095.47 Q121.617 1094.6 124.672 1094.6 Q132.728 1094.6 137.519 1098.63 Q142.311 1102.65 142.311 1109.39 Q142.311 1112.58 141.096 1115.47 Q139.915 1118.31 136.756 1122.2 Q135.888 1123.21 131.235 1128.04 Q126.582 1132.83 118.11 1141.47 Z" fill="#000000" fill-rule="nonzero" fill-opacity="1" /><path clip-path="url(#clip460)" d="M51.8602 917.322 L96.3738 917.322 L96.3738 923.225 L51.8602 923.225 L51.8602 917.322 Z" fill="#000000" fill-rule="nonzero" fill-opacity="1" /><path clip-path="url(#clip460)" d="M112.728 936.663 L124.186 936.663 L124.186 897.114 L111.721 899.614 L111.721 893.225 L124.117 890.725 L131.131 890.725 L131.131 936.663 L142.589 936.663 L142.589 942.565 L112.728 942.565 L112.728 936.663 Z" fill="#000000" fill-rule="nonzero" fill-opacity="1" /><path clip-path="url(#clip460)" d="M124.672 690.533 Q119.256 690.533 116.513 695.881 Q113.804 701.193 113.804 711.887 Q113.804 722.547 116.513 727.894 Q119.256 733.207 124.672 733.207 Q130.124 733.207 132.832 727.894 Q135.575 722.547 135.575 711.887 Q135.575 701.193 132.832 695.881 Q130.124 690.533 124.672 690.533 M124.672 684.978 Q133.388 684.978 137.971 691.887 Q142.589 698.762 142.589 711.887 Q142.589 724.978 137.971 731.887 Q133.388 738.762 124.672 738.762 Q115.957 738.762 111.339 731.887 Q106.756 724.978 106.756 711.887 Q106.756 698.762 111.339 691.887 Q115.957 684.978 124.672 684.978 Z" fill="#000000" fill-rule="nonzero" fill-opacity="1" /><path clip-path="url(#clip460)" d="M112.728 527.042 L124.186 527.042 L124.186 487.494 L111.721 489.994 L111.721 483.605 L124.117 481.105 L131.131 481.105 L131.131 527.042 L142.589 527.042 L142.589 532.945 L112.728 532.945 L112.728 527.042 Z" fill="#000000" fill-rule="nonzero" fill-opacity="1" /><path clip-path="url(#clip460)" d="M118.11 322.232 L142.589 322.232 L142.589 328.135 L109.672 328.135 L109.672 322.232 Q113.665 318.1 120.54 311.156 Q127.45 304.177 129.221 302.163 Q132.589 298.378 133.908 295.774 Q135.263 293.135 135.263 290.601 Q135.263 286.469 132.346 283.864 Q129.464 281.26 124.811 281.26 Q121.513 281.26 117.832 282.406 Q114.186 283.552 110.02 285.878 L110.02 278.795 Q114.256 277.094 117.936 276.226 Q121.617 275.358 124.672 275.358 Q132.728 275.358 137.519 279.385 Q142.311 283.413 142.311 290.149 Q142.311 293.344 141.096 296.225 Q139.915 299.073 136.756 302.962 Q135.888 303.969 131.235 308.795 Q126.582 313.587 118.11 322.232 Z" fill="#000000" fill-rule="nonzero" fill-opacity="1" /><path clip-path="url(#clip460)" d="M131.894 95.3737 Q136.929 96.4501 139.742 99.8528 Q142.589 103.256 142.589 108.256 Q142.589 115.929 137.311 120.13 Q132.033 124.332 122.311 124.332 Q119.047 124.332 115.575 123.672 Q112.138 123.047 108.457 121.762 L108.457 114.992 Q111.374 116.693 114.846 117.561 Q118.318 118.429 122.103 118.429 Q128.7 118.429 132.138 115.825 Q135.61 113.221 135.61 108.256 Q135.61 103.672 132.381 101.103 Q129.186 98.4987 123.457 98.4987 L117.415 98.4987 L117.415 92.7348 L123.735 92.7348 Q128.908 92.7348 131.651 90.6862 Q134.394 88.6029 134.394 84.714 Q134.394 80.721 131.547 78.6029 Q128.735 76.4502 123.457 76.4502 Q120.575 76.4502 117.276 77.0752 Q113.978 77.7002 110.02 79.0196 L110.02 72.7696 Q114.013 71.6585 117.485 71.103 Q120.992 70.5474 124.082 70.5474 Q132.068 70.5474 136.721 74.1932 Q141.374 77.8043 141.374 83.9849 Q141.374 88.2904 138.908 91.2765 Q136.443 94.2279 131.894 95.3737 Z" fill="#000000" fill-rule="nonzero" fill-opacity="1" /><polyline clip-path="url(#clip462)" style="stroke:#009af9; stroke-linecap:round; stroke-linejoin:round; stroke-width:4; stroke-opacity:1; fill:none" points="206.16,317.575 213.396,304.072 220.632,300.025 227.869,285.435 235.105,285.546 242.342,261.473 249.578,261.158 256.815,254.176 264.051,245.269 271.287,230.115 278.524,240.229 285.76,216.524 292.997,215.655 300.233,205.606 307.47,201.942 314.706,178.229 321.942,177.707 329.179,167.221 336.415,159.355 343.652,156.473 350.888,148.94 358.124,127.504 365.361,126.914 372.597,112.565 379.834,104.601 387.07,104.077 394.307,85.3298 401.543,86.8214 408.779,1354.85 416.016,1351.45 423.252,1350.12 430.489,1341.15 437.725,1326.16 444.962,1320.3 452.198,1310.77 459.434,1300.42 466.671,1291.93 473.907,1278.32 481.144,1274.12 488.38,1268.2 495.616,1254.91 502.853,1248.88 510.089,1244.09 517.326,1237.41 524.562,1226.01 531.799,1212.59 539.035,1208.99 546.271,1207.58 553.508,1186.98 560.744,1178.99 567.981,1174.32 575.217,1166.66 582.454,1160.76 589.69,1151.19 596.926,1138.56 604.163,1130.82 611.399,1121.63 618.636,1112.17 625.872,1107.9 633.108,1093.22 640.345,1089.45 647.581,1079.17 654.818,1076.37 662.054,1064.47 669.291,1053.43 676.527,1045.17 683.763,1036.47 691,1029.85 698.236,1016.05 705.473,1011.07 712.709,999.794 719.946,995.042 727.182,989.331 734.418,977.589 741.655,969.103 748.891,961.997 756.128,955.416 763.364,941.905 770.6,925.289 777.837,925.159 785.073,917.373 792.31,912.573 799.546,896.326 806.783,889.742 814.019,886.254 821.255,872.172 828.492,865.143 835.728,859.509 842.965,854.275 850.201,836.712 857.438,837.243 864.674,823.931 871.91,810.71 879.147,799.855 886.383,802.793 893.62,791.968 900.856,774.394 908.092,777.689 915.329,759.239 922.565,754.457 929.802,741.646 937.038,733.101 944.275,728.343 951.511,720.6 958.747,713.029 965.984,707.589 973.22,689.136 980.457,680.461 987.693,677.504 994.93,680.094 1002.17,662.362 1009.4,652.533 1016.64,642.616 1023.88,632.879 1031.11,617.285 1038.35,614.472 1045.58,609.456 1052.82,601.941 1060.06,593.887 1067.29,580.046 1074.53,570.752 1081.77,560.436 1089,564.622 1096.24,548.054 1103.48,543.306 1110.71,535.771 1117.95,526.841 1125.19,517.93 "/>
<path clip-path="url(#clip460)" d="M1378.59 1392.94 L2352.76 1392.94 L2352.76 47.2441 L1378.59 47.2441  Z" fill="#ffffff" fill-rule="evenodd" fill-opacity="1"/>
<polyline clip-path="url(#clip461)" style="stroke:#000000; stroke-linecap:round; stroke-linejoin:round; stroke-width:2; stroke-opacity:0.1; fill:none" points="1492.92,1392.94 1492.92,47.2441 "/>
<polyline clip-path="url(#clip461)" style="stroke:#000000; stroke-linecap:round; stroke-linejoin:round; stroke-width:2; stroke-opacity:0.1; fill:none" points="1681.13,1392.94 1681.13,47.2441 "/>
<polyline clip-path="url(#clip461)" style="stroke:#000000; stroke-linecap:round; stroke-linejoin:round; stroke-width:2; stroke-opacity:0.1; fill:none" points="1869.35,1392.94 1869.35,47.2441 "/>
<polyline clip-path="url(#clip461)" style="stroke:#000000; stroke-linecap:round; stroke-linejoin:round; stroke-width:2; stroke-opacity:0.1; fill:none" points="2057.56,1392.94 2057.56,47.2441 "/>
<polyline clip-path="url(#clip461)" style="stroke:#000000; stroke-linecap:round; stroke-linejoin:round; stroke-width:2; stroke-opacity:0.1; fill:none" points="2245.78,1392.94 2245.78,47.2441 "/>
<polyline clip-path="url(#clip461)" style="stroke:#000000; stroke-linecap:round; stroke-linejoin:round; stroke-width:2; stroke-opacity:0.1; fill:none" points="1378.59,1328.51 2352.76,1328.51 "/>
<polyline clip-path="url(#clip461)" style="stroke:#000000; stroke-linecap:round; stroke-linejoin:round; stroke-width:2; stroke-opacity:0.1; fill:none" points="1378.59,1124.71 2352.76,1124.71 "/>
<polyline clip-path="url(#clip461)" style="stroke:#000000; stroke-linecap:round; stroke-linejoin:round; stroke-width:2; stroke-opacity:0.1; fill:none" points="1378.59,920.914 2352.76,920.914 "/>
<polyline clip-path="url(#clip461)" style="stroke:#000000; stroke-linecap:round; stroke-linejoin:round; stroke-width:2; stroke-opacity:0.1; fill:none" points="1378.59,717.116 2352.76,717.116 "/>
<polyline clip-path="url(#clip461)" style="stroke:#000000; stroke-linecap:round; stroke-linejoin:round; stroke-width:2; stroke-opacity:0.1; fill:none" points="1378.59,513.317 2352.76,513.317 "/>
<polyline clip-path="url(#clip461)" style="stroke:#000000; stroke-linecap:round; stroke-linejoin:round; stroke-width:2; stroke-opacity:0.1; fill:none" points="1378.59,309.519 2352.76,309.519 "/>
<polyline clip-path="url(#clip461)" style="stroke:#000000; stroke-linecap:round; stroke-linejoin:round; stroke-width:2; stroke-opacity:0.1; fill:none" points="1378.59,105.72 2352.76,105.72 "/>
<polyline clip-path="url(#clip460)" style="stroke:#000000; stroke-linecap:round; stroke-linejoin:round; stroke-width:4; stroke-opacity:1; fill:none" points="1378.59,1392.94 2352.76,1392.94 "/>
<polyline clip-path="url(#clip460)" style="stroke:#000000; stroke-linecap:round; stroke-linejoin:round; stroke-width:4; stroke-opacity:1; fill:none" points="1492.92,1392.94 1492.92,1374.04 "/>
<polyline clip-path="url(#clip460)" style="stroke:#000000; stroke-linecap:round; stroke-linejoin:round; stroke-width:4; stroke-opacity:1; fill:none" points="1681.13,1392.94 1681.13,1374.04 "/>
<polyline clip-path="url(#clip460)" style="stroke:#000000; stroke-linecap:round; stroke-linejoin:round; stroke-width:4; stroke-opacity:1; fill:none" points="1869.35,1392.94 1869.35,1374.04 "/>
<polyline clip-path="url(#clip460)" style="stroke:#000000; stroke-linecap:round; stroke-linejoin:round; stroke-width:4; stroke-opacity:1; fill:none" points="2057.56,1392.94 2057.56,1374.04 "/>
<polyline clip-path="url(#clip460)" style="stroke:#000000; stroke-linecap:round; stroke-linejoin:round; stroke-width:4; stroke-opacity:1; fill:none" points="2245.78,1392.94 2245.78,1374.04 "/>
<path clip-path="url(#clip460)" d="M1413.91 1451.7 L1458.42 1451.7 L1458.42 1457.6 L1413.91 1457.6 L1413.91 1451.7 Z" fill="#000000" fill-rule="nonzero" fill-opacity="1" /><path clip-path="url(#clip460)" d="M1488.56 1429.72 Q1483.14 1429.72 1480.4 1435.07 Q1477.69 1440.38 1477.69 1451.07 Q1477.69 1461.73 1480.4 1467.08 Q1483.14 1472.39 1488.56 1472.39 Q1494.01 1472.39 1496.72 1467.08 Q1499.46 1461.73 1499.46 1451.07 Q1499.46 1440.38 1496.72 1435.07 Q1494.01 1429.72 1488.56 1429.72 M1488.56 1424.16 Q1497.27 1424.16 1501.86 1431.07 Q1506.47 1437.95 1506.47 1451.07 Q1506.47 1464.16 1501.86 1471.07 Q1497.27 1477.95 1488.56 1477.95 Q1479.84 1477.95 1475.22 1471.07 Q1470.64 1464.16 1470.64 1451.07 Q1470.64 1437.95 1475.22 1431.07 Q1479.84 1424.16 1488.56 1424.16 Z" fill="#000000" fill-rule="nonzero" fill-opacity="1" /><path clip-path="url(#clip460)" d="M1518.8 1468.12 L1526.13 1468.12 L1526.13 1476.94 L1518.8 1476.94 L1518.8 1468.12 Z" fill="#000000" fill-rule="nonzero" fill-opacity="1" /><path clip-path="url(#clip460)" d="M1547.45 1471.04 L1571.93 1471.04 L1571.93 1476.94 L1539.01 1476.94 L1539.01 1471.04 Q1543 1466.91 1549.88 1459.96 Q1556.79 1452.98 1558.56 1450.97 Q1561.93 1447.18 1563.25 1444.58 Q1564.6 1441.94 1564.6 1439.41 Q1564.6 1435.27 1561.68 1432.67 Q1558.8 1430.07 1554.15 1430.07 Q1550.85 1430.07 1547.17 1431.21 Q1543.52 1432.36 1539.36 1434.68 L1539.36 1427.6 Q1543.59 1425.9 1547.27 1425.03 Q1550.95 1424.16 1554.01 1424.16 Q1562.06 1424.16 1566.86 1428.19 Q1571.65 1432.22 1571.65 1438.95 Q1571.65 1442.15 1570.43 1445.03 Q1569.25 1447.88 1566.09 1451.77 Q1565.22 1452.77 1560.57 1457.6 Q1555.92 1462.39 1547.45 1471.04 Z" fill="#000000" fill-rule="nonzero" fill-opacity="1" /><path clip-path="url(#clip460)" d="M1601.84 1451.7 L1646.36 1451.7 L1646.36 1457.6 L1601.84 1457.6 L1601.84 1451.7 Z" fill="#000000" fill-rule="nonzero" fill-opacity="1" /><path clip-path="url(#clip460)" d="M1676.5 1429.72 Q1671.08 1429.72 1668.34 1435.07 Q1665.63 1440.38 1665.63 1451.07 Q1665.63 1461.73 1668.34 1467.08 Q1671.08 1472.39 1676.5 1472.39 Q1681.95 1472.39 1684.66 1467.08 Q1687.4 1461.73 1687.4 1451.07 Q1687.4 1440.38 1684.66 1435.07 Q1681.95 1429.72 1676.5 1429.72 M1676.5 1424.16 Q1685.21 1424.16 1689.8 1431.07 Q1694.41 1437.95 1694.41 1451.07 Q1694.41 1464.16 1689.8 1471.07 Q1685.21 1477.95 1676.5 1477.95 Q1667.78 1477.95 1663.16 1471.07 Q1658.58 1464.16 1658.58 1451.07 Q1658.58 1437.95 1663.16 1431.07 Q1667.78 1424.16 1676.5 1424.16 Z" fill="#000000" fill-rule="nonzero" fill-opacity="1" /><path clip-path="url(#clip460)" d="M1706.74 1468.12 L1714.07 1468.12 L1714.07 1476.94 L1706.74 1476.94 L1706.74 1468.12 Z" fill="#000000" fill-rule="nonzero" fill-opacity="1" /><path clip-path="url(#clip460)" d="M1730.56 1471.04 L1742.02 1471.04 L1742.02 1431.49 L1729.55 1433.99 L1729.55 1427.6 L1741.95 1425.1 L1748.96 1425.1 L1748.96 1471.04 L1760.42 1471.04 L1760.42 1476.94 L1730.56 1476.94 L1730.56 1471.04 Z" fill="#000000" fill-rule="nonzero" fill-opacity="1" /><path clip-path="url(#clip460)" d="M1835.43 1429.72 Q1830.01 1429.72 1827.27 1435.07 Q1824.56 1440.38 1824.56 1451.07 Q1824.56 1461.73 1827.27 1467.08 Q1830.01 1472.39 1835.43 1472.39 Q1840.88 1472.39 1843.58 1467.08 Q1846.33 1461.73 1846.33 1451.07 Q1846.33 1440.38 1843.58 1435.07 Q1840.88 1429.72 1835.43 1429.72 M1835.43 1424.16 Q1844.14 1424.16 1848.72 1431.07 Q1853.34 1437.95 1853.34 1451.07 Q1853.34 1464.16 1848.72 1471.07 Q1844.14 1477.95 1835.43 1477.95 Q1826.71 1477.95 1822.09 1471.07 Q1817.51 1464.16 1817.51 1451.07 Q1817.51 1437.95 1822.09 1431.07 Q1826.71 1424.16 1835.43 1424.16 Z" fill="#000000" fill-rule="nonzero" fill-opacity="1" /><path clip-path="url(#clip460)" d="M1865.67 1468.12 L1872.99 1468.12 L1872.99 1476.94 L1865.67 1476.94 L1865.67 1468.12 Z" fill="#000000" fill-rule="nonzero" fill-opacity="1" /><path clip-path="url(#clip460)" d="M1903.27 1429.72 Q1897.86 1429.72 1895.11 1435.07 Q1892.4 1440.38 1892.4 1451.07 Q1892.4 1461.73 1895.11 1467.08 Q1897.86 1472.39 1903.27 1472.39 Q1908.72 1472.39 1911.43 1467.08 Q1914.17 1461.73 1914.17 1451.07 Q1914.17 1440.38 1911.43 1435.07 Q1908.72 1429.72 1903.27 1429.72 M1903.27 1424.16 Q1911.99 1424.16 1916.57 1431.07 Q1921.19 1437.95 1921.19 1451.07 Q1921.19 1464.16 1916.57 1471.07 Q1911.99 1477.95 1903.27 1477.95 Q1894.56 1477.95 1889.94 1471.07 Q1885.36 1464.16 1885.36 1451.07 Q1885.36 1437.95 1889.94 1431.07 Q1894.56 1424.16 1903.27 1424.16 Z" fill="#000000" fill-rule="nonzero" fill-opacity="1" /><path clip-path="url(#clip460)" d="M2024.56 1429.72 Q2019.14 1429.72 2016.4 1435.07 Q2013.69 1440.38 2013.69 1451.07 Q2013.69 1461.73 2016.4 1467.08 Q2019.14 1472.39 2024.56 1472.39 Q2030.01 1472.39 2032.72 1467.08 Q2035.46 1461.73 2035.46 1451.07 Q2035.46 1440.38 2032.72 1435.07 Q2030.01 1429.72 2024.56 1429.72 M2024.56 1424.16 Q2033.28 1424.16 2037.86 1431.07 Q2042.48 1437.95 2042.48 1451.07 Q2042.48 1464.16 2037.86 1471.07 Q2033.28 1477.95 2024.56 1477.95 Q2015.85 1477.95 2011.23 1471.07 Q2006.65 1464.16 2006.65 1451.07 Q2006.65 1437.95 2011.23 1431.07 Q2015.85 1424.16 2024.56 1424.16 Z" fill="#000000" fill-rule="nonzero" fill-opacity="1" /><path clip-path="url(#clip460)" d="M2054.8 1468.12 L2062.13 1468.12 L2062.13 1476.94 L2054.8 1476.94 L2054.8 1468.12 Z" fill="#000000" fill-rule="nonzero" fill-opacity="1" /><path clip-path="url(#clip460)" d="M2078.62 1471.04 L2090.08 1471.04 L2090.08 1431.49 L2077.62 1433.99 L2077.62 1427.6 L2090.01 1425.1 L2097.03 1425.1 L2097.03 1471.04 L2108.48 1471.04 L2108.48 1476.94 L2078.62 1476.94 L2078.62 1471.04 Z" fill="#000000" fill-rule="nonzero" fill-opacity="1" /><path clip-path="url(#clip460)" d="M2213.06 1429.72 Q2207.64 1429.72 2204.9 1435.07 Q2202.19 1440.38 2202.19 1451.07 Q2202.19 1461.73 2204.9 1467.08 Q2207.64 1472.39 2213.06 1472.39 Q2218.51 1472.39 2221.22 1467.08 Q2223.96 1461.73 2223.96 1451.07 Q2223.96 1440.38 2221.22 1435.07 Q2218.51 1429.72 2213.06 1429.72 M2213.06 1424.16 Q2221.77 1424.16 2226.35 1431.07 Q2230.97 1437.95 2230.97 1451.07 Q2230.97 1464.16 2226.35 1471.07 Q2221.77 1477.95 2213.06 1477.95 Q2204.34 1477.95 2199.72 1471.07 Q2195.14 1464.16 2195.14 1451.07 Q2195.14 1437.95 2199.72 1431.07 Q2204.34 1424.16 2213.06 1424.16 Z" fill="#000000" fill-rule="nonzero" fill-opacity="1" /><path clip-path="url(#clip460)" d="M2243.3 1468.12 L2250.63 1468.12 L2250.63 1476.94 L2243.3 1476.94 L2243.3 1468.12 Z" fill="#000000" fill-rule="nonzero" fill-opacity="1" /><path clip-path="url(#clip460)" d="M2271.94 1471.04 L2296.42 1471.04 L2296.42 1476.94 L2263.51 1476.94 L2263.51 1471.04 Q2267.5 1466.91 2274.37 1459.96 Q2281.28 1452.98 2283.06 1450.97 Q2286.42 1447.18 2287.74 1444.58 Q2289.1 1441.94 2289.1 1439.41 Q2289.1 1435.27 2286.18 1432.67 Q2283.3 1430.07 2278.65 1430.07 Q2275.35 1430.07 2271.67 1431.21 Q2268.02 1432.36 2263.85 1434.68 L2263.85 1427.6 Q2268.09 1425.9 2271.77 1425.03 Q2275.45 1424.16 2278.51 1424.16 Q2286.56 1424.16 2291.35 1428.19 Q2296.15 1432.22 2296.15 1438.95 Q2296.15 1442.15 2294.93 1445.03 Q2293.75 1447.88 2290.59 1451.77 Q2289.72 1452.77 2285.07 1457.6 Q2280.42 1462.39 2271.94 1471.04 Z" fill="#000000" fill-rule="nonzero" fill-opacity="1" /><path clip-path="url(#clip460)" d="M1681.92 1512.83 Q1681.92 1513.2 1681.59 1514.47 Q1681.3 1515.7 1680.36 1518.12 Q1679.46 1520.5 1678.07 1523.16 Q1676.71 1525.79 1674.21 1529.11 Q1671.71 1532.43 1668.6 1535.34 Q1662.74 1540.83 1656.46 1543.78 Q1650.23 1546.73 1644.91 1547.67 L1643.72 1547.67 Q1642.41 1547.67 1642.41 1546.65 L1643.31 1542.88 L1648.43 1522.34 Q1650.03 1516.07 1650.03 1515.54 Q1650.03 1515.05 1649.82 1514.8 Q1649.66 1514.51 1648.68 1514.31 Q1647.73 1514.1 1645.85 1514.1 Q1645.07 1514.1 1644.7 1514.06 Q1644.37 1514.02 1644.09 1513.82 Q1643.8 1513.57 1643.8 1513.08 Q1643.8 1512.38 1644.09 1512.01 Q1644.41 1511.6 1644.66 1511.52 Q1644.91 1511.44 1645.4 1511.4 Q1646.09 1511.36 1648.43 1511.15 Q1650.77 1510.91 1652.78 1510.74 Q1654.78 1510.58 1655.65 1510.58 Q1656.14 1510.58 1656.42 1510.83 Q1656.71 1511.03 1656.71 1511.28 L1656.75 1511.48 L1648.51 1544.89 Q1651.55 1543.9 1654.54 1542.26 Q1657.57 1540.62 1660.85 1537.92 Q1664.13 1535.17 1666.92 1531.77 Q1669.7 1528.37 1672.16 1523.61 Q1674.66 1518.82 1676.22 1513.33 Q1676.51 1512.22 1677.21 1511.56 Q1677.94 1510.91 1678.48 1510.74 Q1679.01 1510.58 1679.5 1510.58 Q1680.61 1510.58 1681.26 1511.19 Q1681.92 1511.77 1681.92 1512.83 Z" fill="#000000" fill-rule="nonzero" fill-opacity="1" /><path clip-path="url(#clip460)" d="M1717.61 1539.37 Q1717.61 1539.78 1717.35 1540.72 L1711.72 1563.16 Q1710.49 1568.15 1706.47 1571.65 Q1702.48 1575.15 1697.95 1575.15 Q1695.22 1575.15 1693.47 1573.69 Q1691.72 1572.26 1691.72 1570.05 Q1691.72 1568.1 1692.76 1567.15 Q1693.79 1566.23 1695.02 1566.23 Q1695.43 1566.23 1695.86 1566.35 Q1696.29 1566.46 1696.75 1566.95 Q1697.2 1567.44 1697.2 1568.27 Q1697.2 1569.62 1696.03 1570.68 Q1695.45 1571.17 1694.91 1571.28 Q1694.39 1571.39 1693.5 1571.39 Q1693.85 1572.2 1694.48 1572.74 Q1695.11 1573.29 1695.83 1573.49 Q1696.54 1573.72 1697 1573.78 Q1697.49 1573.86 1697.95 1573.86 Q1701.62 1573.86 1704.44 1570.16 Q1705.27 1569.04 1705.87 1567.92 Q1706.5 1566.83 1706.96 1565.48 Q1707.42 1564.16 1707.62 1563.45 Q1707.85 1562.73 1708.25 1561.09 Q1705.58 1563.76 1702.31 1563.76 Q1700.93 1563.76 1699.7 1563.39 Q1698.5 1563.02 1697.43 1562.24 Q1696.37 1561.44 1695.74 1560.03 Q1695.14 1558.63 1695.14 1556.76 Q1695.14 1554.78 1695.91 1552.08 Q1696.69 1549.39 1698.55 1544.42 Q1699.56 1541.64 1699.56 1540.29 Q1699.56 1539.63 1699.41 1539.23 Q1699.27 1538.8 1698.98 1538.66 Q1698.7 1538.48 1698.52 1538.46 Q1698.38 1538.43 1698.09 1538.43 Q1696.4 1538.43 1694.82 1540.15 Q1693.25 1541.87 1692.15 1545.72 Q1691.93 1546.43 1691.78 1546.6 Q1691.64 1546.78 1691.21 1546.78 Q1690.49 1546.75 1690.49 1546.17 Q1690.49 1545.94 1690.75 1545.06 Q1691.01 1544.14 1691.61 1542.79 Q1692.24 1541.41 1693.1 1540.18 Q1693.96 1538.92 1695.31 1538.03 Q1696.69 1537.14 1698.27 1537.14 Q1700.42 1537.14 1701.74 1538.54 Q1703.09 1539.92 1703.09 1541.96 Q1703.09 1542.79 1702.86 1543.53 Q1702.66 1544.25 1701.91 1546.17 Q1698.9 1553.92 1698.9 1557.71 Q1698.9 1558.63 1699.04 1559.4 Q1699.21 1560.15 1699.59 1560.89 Q1699.96 1561.61 1700.71 1562.04 Q1701.48 1562.44 1702.54 1562.44 Q1703.89 1562.44 1705.15 1561.81 Q1706.44 1561.15 1707.25 1560.26 Q1708.08 1559.37 1708.57 1558.63 Q1709.08 1557.85 1709.2 1557.45 L1711.84 1546.89 L1713.01 1542.19 Q1713.56 1539.63 1713.82 1539 Q1714.16 1538.4 1714.76 1538.08 Q1715.37 1537.77 1715.88 1537.77 Q1716.6 1537.77 1717.09 1538.2 Q1717.61 1538.63 1717.61 1539.37 Z" fill="#000000" fill-rule="nonzero" fill-opacity="1" /><path clip-path="url(#clip460)" d="M1778.4 1484.72 Q1772.97 1494.04 1770.34 1503.15 Q1767.7 1512.27 1767.7 1521.63 Q1767.7 1530.98 1770.34 1540.18 Q1773.01 1549.34 1778.4 1558.61 L1771.92 1558.61 Q1765.84 1549.09 1762.8 1539.9 Q1759.8 1530.7 1759.8 1521.63 Q1759.8 1512.59 1762.8 1503.44 Q1765.8 1494.28 1771.92 1484.72 L1778.4 1484.72 Z" fill="#000000" fill-rule="nonzero" fill-opacity="1" /><path clip-path="url(#clip460)" d="M1825.51 1504.05 L1825.51 1511.01 Q1822.35 1509.27 1819.15 1508.42 Q1815.99 1507.53 1812.75 1507.53 Q1805.5 1507.53 1801.49 1512.15 Q1797.48 1516.73 1797.48 1525.03 Q1797.48 1533.33 1801.49 1537.95 Q1805.5 1542.53 1812.75 1542.53 Q1815.99 1542.53 1819.15 1541.68 Q1822.35 1540.79 1825.51 1539.05 L1825.51 1545.93 Q1822.39 1547.39 1819.03 1548.12 Q1815.71 1548.85 1811.94 1548.85 Q1801.69 1548.85 1795.65 1542.41 Q1789.62 1535.97 1789.62 1525.03 Q1789.62 1513.93 1795.69 1507.57 Q1801.81 1501.21 1812.42 1501.21 Q1815.87 1501.21 1819.15 1501.94 Q1822.43 1502.63 1825.51 1504.05 Z" fill="#000000" fill-rule="nonzero" fill-opacity="1" /><path clip-path="url(#clip460)" d="M1873.8 1511.01 Q1876.59 1505.99 1880.48 1503.6 Q1884.37 1501.21 1889.63 1501.21 Q1896.72 1501.21 1900.57 1506.19 Q1904.42 1511.14 1904.42 1520.29 L1904.42 1547.67 L1896.93 1547.67 L1896.93 1520.53 Q1896.93 1514.01 1894.62 1510.85 Q1892.31 1507.69 1887.57 1507.69 Q1881.78 1507.69 1878.41 1511.54 Q1875.05 1515.39 1875.05 1522.03 L1875.05 1547.67 L1867.56 1547.67 L1867.56 1520.53 Q1867.56 1513.97 1865.25 1510.85 Q1862.94 1507.69 1858.12 1507.69 Q1852.41 1507.69 1849.04 1511.58 Q1845.68 1515.43 1845.68 1522.03 L1845.68 1547.67 L1838.19 1547.67 L1838.19 1502.3 L1845.68 1502.3 L1845.68 1509.35 Q1848.23 1505.18 1851.8 1503.2 Q1855.36 1501.21 1860.27 1501.21 Q1865.21 1501.21 1868.65 1503.72 Q1872.13 1506.23 1873.8 1511.01 Z" fill="#000000" fill-rule="nonzero" fill-opacity="1" /><path clip-path="url(#clip460)" d="M1950.2 1487.19 L1972.19 1509.76 L1964.05 1509.76 L1946.23 1493.76 L1928.4 1509.76 L1920.26 1509.76 L1942.26 1487.19 L1950.2 1487.19 Z" fill="#000000" fill-rule="nonzero" fill-opacity="1" /><path clip-path="url(#clip460)" d="M1985.03 1521.63 L2006.87 1521.63 L2006.87 1528.27 L1985.03 1528.27 L1985.03 1521.63 Z" fill="#000000" fill-rule="nonzero" fill-opacity="1" /><path clip-path="url(#clip460)" d="M2021.21 1540.79 L2034.58 1540.79 L2034.58 1494.65 L2020.03 1497.56 L2020.03 1490.11 L2034.49 1487.19 L2042.68 1487.19 L2042.68 1540.79 L2056.05 1540.79 L2056.05 1547.67 L2021.21 1547.67 L2021.21 1540.79 Z" fill="#000000" fill-rule="nonzero" fill-opacity="1" /><path clip-path="url(#clip460)" d="M2070.35 1484.72 L2076.83 1484.72 Q2082.9 1494.28 2085.9 1503.44 Q2088.94 1512.59 2088.94 1521.63 Q2088.94 1530.7 2085.9 1539.9 Q2082.9 1549.09 2076.83 1558.61 L2070.35 1558.61 Q2075.73 1549.34 2078.37 1540.18 Q2081.04 1530.98 2081.04 1521.63 Q2081.04 1512.27 2078.37 1503.15 Q2075.73 1494.04 2070.35 1484.72 Z" fill="#000000" fill-rule="nonzero" fill-opacity="1" /><polyline clip-path="url(#clip460)" style="stroke:#000000; stroke-linecap:round; stroke-linejoin:round; stroke-width:4; stroke-opacity:1; fill:none" points="1378.59,1392.94 1378.59,47.2441 "/>
<polyline clip-path="url(#clip460)" style="stroke:#000000; stroke-linecap:round; stroke-linejoin:round; stroke-width:4; stroke-opacity:1; fill:none" points="1378.59,1328.51 1397.49,1328.51 "/>
<polyline clip-path="url(#clip460)" style="stroke:#000000; stroke-linecap:round; stroke-linejoin:round; stroke-width:4; stroke-opacity:1; fill:none" points="1378.59,1124.71 1397.49,1124.71 "/>
<polyline clip-path="url(#clip460)" style="stroke:#000000; stroke-linecap:round; stroke-linejoin:round; stroke-width:4; stroke-opacity:1; fill:none" points="1378.59,920.914 1397.49,920.914 "/>
<polyline clip-path="url(#clip460)" style="stroke:#000000; stroke-linecap:round; stroke-linejoin:round; stroke-width:4; stroke-opacity:1; fill:none" points="1378.59,717.116 1397.49,717.116 "/>
<polyline clip-path="url(#clip460)" style="stroke:#000000; stroke-linecap:round; stroke-linejoin:round; stroke-width:4; stroke-opacity:1; fill:none" points="1378.59,513.317 1397.49,513.317 "/>
<polyline clip-path="url(#clip460)" style="stroke:#000000; stroke-linecap:round; stroke-linejoin:round; stroke-width:4; stroke-opacity:1; fill:none" points="1378.59,309.519 1397.49,309.519 "/>
<polyline clip-path="url(#clip460)" style="stroke:#000000; stroke-linecap:round; stroke-linejoin:round; stroke-width:4; stroke-opacity:1; fill:none" points="1378.59,105.72 1397.49,105.72 "/>
<path clip-path="url(#clip460)" d="M1250.99 1329.19 L1295.51 1329.19 L1295.51 1335.09 L1250.99 1335.09 L1250.99 1329.19 Z" fill="#000000" fill-rule="nonzero" fill-opacity="1" /><path clip-path="url(#clip460)" d="M1331.89 1326.48 Q1336.93 1327.56 1339.74 1330.96 Q1342.59 1334.36 1342.59 1339.36 Q1342.59 1347.04 1337.31 1351.24 Q1332.03 1355.44 1322.31 1355.44 Q1319.05 1355.44 1315.58 1354.78 Q1312.14 1354.15 1308.46 1352.87 L1308.46 1346.1 Q1311.37 1347.8 1314.85 1348.67 Q1318.32 1349.54 1322.1 1349.54 Q1328.7 1349.54 1332.14 1346.93 Q1335.61 1344.33 1335.61 1339.36 Q1335.61 1334.78 1332.38 1332.21 Q1329.19 1329.61 1323.46 1329.61 L1317.42 1329.61 L1317.42 1323.84 L1323.73 1323.84 Q1328.91 1323.84 1331.65 1321.79 Q1334.39 1319.71 1334.39 1315.82 Q1334.39 1311.83 1331.55 1309.71 Q1328.73 1307.56 1323.46 1307.56 Q1320.58 1307.56 1317.28 1308.18 Q1313.98 1308.81 1310.02 1310.13 L1310.02 1303.88 Q1314.01 1302.77 1317.48 1302.21 Q1320.99 1301.65 1324.08 1301.65 Q1332.07 1301.65 1336.72 1305.3 Q1341.37 1308.91 1341.37 1315.09 Q1341.37 1319.4 1338.91 1322.38 Q1336.44 1325.33 1331.89 1326.48 Z" fill="#000000" fill-rule="nonzero" fill-opacity="1" /><path clip-path="url(#clip460)" d="M1252.42 1125.39 L1296.93 1125.39 L1296.93 1131.29 L1252.42 1131.29 L1252.42 1125.39 Z" fill="#000000" fill-rule="nonzero" fill-opacity="1" /><path clip-path="url(#clip460)" d="M1318.11 1144.73 L1342.59 1144.73 L1342.59 1150.63 L1309.67 1150.63 L1309.67 1144.73 Q1313.67 1140.6 1320.54 1133.65 Q1327.45 1126.67 1329.22 1124.66 Q1332.59 1120.88 1333.91 1118.27 Q1335.26 1115.63 1335.26 1113.1 Q1335.26 1108.97 1332.35 1106.36 Q1329.46 1103.76 1324.81 1103.76 Q1321.51 1103.76 1317.83 1104.9 Q1314.19 1106.05 1310.02 1108.38 L1310.02 1101.29 Q1314.26 1099.59 1317.94 1098.72 Q1321.62 1097.86 1324.67 1097.86 Q1332.73 1097.86 1337.52 1101.88 Q1342.31 1105.91 1342.31 1112.65 Q1342.31 1115.84 1341.1 1118.72 Q1339.92 1121.57 1336.76 1125.46 Q1335.89 1126.47 1331.23 1131.29 Q1326.58 1136.08 1318.11 1144.73 Z" fill="#000000" fill-rule="nonzero" fill-opacity="1" /><path clip-path="url(#clip460)" d="M1251.86 921.592 L1296.37 921.592 L1296.37 927.494 L1251.86 927.494 L1251.86 921.592 Z" fill="#000000" fill-rule="nonzero" fill-opacity="1" /><path clip-path="url(#clip460)" d="M1312.73 940.932 L1324.19 940.932 L1324.19 901.383 L1311.72 903.883 L1311.72 897.494 L1324.12 894.994 L1331.13 894.994 L1331.13 940.932 L1342.59 940.932 L1342.59 946.834 L1312.73 946.834 L1312.73 940.932 Z" fill="#000000" fill-rule="nonzero" fill-opacity="1" /><path clip-path="url(#clip460)" d="M1324.67 695.814 Q1319.26 695.814 1316.51 701.161 Q1313.8 706.474 1313.8 717.168 Q1313.8 727.828 1316.51 733.175 Q1319.26 738.487 1324.67 738.487 Q1330.12 738.487 1332.83 733.175 Q1335.58 727.828 1335.58 717.168 Q1335.58 706.474 1332.83 701.161 Q1330.12 695.814 1324.67 695.814 M1324.67 690.258 Q1333.39 690.258 1337.97 697.168 Q1342.59 704.043 1342.59 717.168 Q1342.59 730.258 1337.97 737.168 Q1333.39 744.043 1324.67 744.043 Q1315.96 744.043 1311.34 737.168 Q1306.76 730.258 1306.76 717.168 Q1306.76 704.043 1311.34 697.168 Q1315.96 690.258 1324.67 690.258 Z" fill="#000000" fill-rule="nonzero" fill-opacity="1" /><path clip-path="url(#clip460)" d="M1312.73 533.335 L1324.19 533.335 L1324.19 493.786 L1311.72 496.286 L1311.72 489.897 L1324.12 487.397 L1331.13 487.397 L1331.13 533.335 L1342.59 533.335 L1342.59 539.237 L1312.73 539.237 L1312.73 533.335 Z" fill="#000000" fill-rule="nonzero" fill-opacity="1" /><path clip-path="url(#clip460)" d="M1318.11 329.536 L1342.59 329.536 L1342.59 335.439 L1309.67 335.439 L1309.67 329.536 Q1313.67 325.404 1320.54 318.46 Q1327.45 311.481 1329.22 309.467 Q1332.59 305.682 1333.91 303.078 Q1335.26 300.439 1335.26 297.904 Q1335.26 293.772 1332.35 291.168 Q1329.46 288.564 1324.81 288.564 Q1321.51 288.564 1317.83 289.71 Q1314.19 290.856 1310.02 293.182 L1310.02 286.099 Q1314.26 284.397 1317.94 283.529 Q1321.62 282.661 1324.67 282.661 Q1332.73 282.661 1337.52 286.689 Q1342.31 290.717 1342.31 297.453 Q1342.31 300.647 1341.1 303.529 Q1339.92 306.377 1336.76 310.265 Q1335.89 311.272 1331.23 316.099 Q1326.58 320.89 1318.11 329.536 Z" fill="#000000" fill-rule="nonzero" fill-opacity="1" /><path clip-path="url(#clip460)" d="M1331.89 103.689 Q1336.93 104.765 1339.74 108.168 Q1342.59 111.571 1342.59 116.571 Q1342.59 124.245 1337.31 128.446 Q1332.03 132.647 1322.31 132.647 Q1319.05 132.647 1315.58 131.988 Q1312.14 131.363 1308.46 130.078 L1308.46 123.307 Q1311.37 125.008 1314.85 125.876 Q1318.32 126.745 1322.1 126.745 Q1328.7 126.745 1332.14 124.14 Q1335.61 121.536 1335.61 116.571 Q1335.61 111.988 1332.38 109.418 Q1329.19 106.814 1323.46 106.814 L1317.42 106.814 L1317.42 101.05 L1323.73 101.05 Q1328.91 101.05 1331.65 99.0016 Q1334.39 96.9183 1334.39 93.0294 Q1334.39 89.0364 1331.55 86.9184 Q1328.73 84.7656 1323.46 84.7656 Q1320.58 84.7656 1317.28 85.3906 Q1313.98 86.0156 1310.02 87.335 L1310.02 81.0851 Q1314.01 79.9739 1317.48 79.4184 Q1320.99 78.8628 1324.08 78.8628 Q1332.07 78.8628 1336.72 82.5087 Q1341.37 86.1197 1341.37 92.3003 Q1341.37 96.6058 1338.91 99.5919 Q1336.44 102.543 1331.89 103.689 Z" fill="#000000" fill-rule="nonzero" fill-opacity="1" /><polyline clip-path="url(#clip461)" style="stroke:#009af9; stroke-linecap:round; stroke-linejoin:round; stroke-width:4; stroke-opacity:1; fill:none" points="1406.16,717.116 1413.51,674.187 1420.86,619.236 1428.22,576.262 1435.57,529.78 1442.92,488.839 1450.27,435.788 1457.63,389.02 1464.98,346.729 1472.33,314.624 1479.68,257.627 1487.03,210.832 1494.39,163.693 1501.74,119.034 1509.09,1354.85 1516.44,1297.1 1523.79,1258.19 1531.15,1201.21 1538.5,1165.67 1545.85,1130.72 1553.2,1065.69 1560.56,1029.04 1567.91,992.921 1575.26,936.55 1582.61,890.121 1589.96,851.654 1597.32,794.362 1604.67,740.883 1612.02,709.218 1619.37,657.83 1626.73,608.134 1634.08,576.213 1641.43,523.953 1648.78,477.678 1656.13,431.278 1663.49,383.271 1670.84,343.102 1678.19,291.164 1685.54,245.555 1692.9,207.833 1700.25,158.797 1707.6,109.388 1714.95,1345.59 1722.3,1298.13 1729.66,1252.61 1737.01,1202.26 1744.36,1157.25 1751.71,1112.22 1759.07,1064.27 1766.42,1018.61 1773.77,975.275 1781.12,929.158 1788.47,883.495 1795.83,838.844 1803.18,790.941 1810.53,738.211 1817.88,703.724 1825.24,652.048 1832.59,602.656 1839.94,562.782 1847.29,512.637 1854.64,465.792 1862,418.745 1869.35,377.516 1876.7,330.643 1884.05,283.99 1891.41,242.621 1898.76,191.509 1906.11,145.381 1913.46,98.3816 1920.81,1336.67 1928.17,1287.6 1935.52,1244.75 1942.87,1197.3 1950.22,1150.86 1957.57,1107.48 1964.93,1055.18 1972.28,1014.54 1979.63,966.424 1986.98,920.366 1994.34,876.846 2001.69,825.602 2009.04,781.738 2016.39,740.048 2023.74,689.934 2031.1,642.973 2038.45,605.099 2045.8,557.688 2053.15,507.752 2060.51,459.402 2067.86,414.59 2075.21,369.54 2082.56,318.694 2089.91,273.568 2097.27,230.266 2104.62,187.723 2111.97,133.083 2119.32,92.1775 2126.68,1329.58 2134.03,1281.59 2141.38,1235.43 2148.73,1183.12 2156.08,1145.91 2163.44,1101.41 2170.79,1049.35 2178.14,1011.29 2185.49,960.3 2192.85,916.511 2200.2,874.851 2207.55,824.172 2214.9,773.657 2222.25,723.105 2229.61,678.104 2236.96,641.672 2244.31,596.737 2251.66,534.656 2259.02,502.015 2266.37,454.087 2273.72,410.223 2281.07,357.685 2288.42,307.105 2295.78,275.964 2303.13,227.348 2310.48,176.785 2317.83,131.394 2325.19,85.3298 "/>
</svg>
