<?xml version="1.0" encoding="utf-8"?>
<svg xmlns="http://www.w3.org/2000/svg" xmlns:xlink="http://www.w3.org/1999/xlink" width="600" height="400" viewBox="0 0 2400 1600">
<defs>
  <clipPath id="clip660">
    <rect x="0" y="0" width="2400" height="1600"/>
  </clipPath>
</defs>
<path clip-path="url(#clip660)" d="M0 1600 L2400 1600 L2400 0 L0 0  Z" fill="#ffffff" fill-rule="evenodd" fill-opacity="1"/>
<defs>
  <clipPath id="clip661">
    <rect x="164" y="47" width="2189" height="1329"/>
  </clipPath>
</defs>
<path clip-path="url(#clip660)" d="M164.943 1375.66 L2352.76 1375.66 L2352.76 47.2441 L164.943 47.2441  Z" fill="#ffffff" fill-rule="evenodd" fill-opacity="1"/>
<polyline clip-path="url(#clip661)" style="stroke:#000000; stroke-linecap:round; stroke-linejoin:round; stroke-width:2; stroke-opacity:0.1; fill:none" points="285.277,1375.66 285.277,47.2441 "/>
<polyline clip-path="url(#clip661)" style="stroke:#000000; stroke-linecap:round; stroke-linejoin:round; stroke-width:2; stroke-opacity:0.1; fill:none" points="609.801,1375.66 609.801,47.2441 "/>
<polyline clip-path="url(#clip661)" style="stroke:#000000; stroke-linecap:round; stroke-linejoin:round; stroke-width:2; stroke-opacity:0.1; fill:none" points="934.325,1375.66 934.325,47.2441 "/>
<polyline clip-path="url(#clip661)" style="stroke:#000000; stroke-linecap:round; stroke-linejoin:round; stroke-width:2; stroke-opacity:0.1; fill:none" points="1258.85,1375.66 1258.85,47.2441 "/>
<polyline clip-path="url(#clip661)" style="stroke:#000000; stroke-linecap:round; stroke-linejoin:round; stroke-width:2; stroke-opacity:0.1; fill:none" points="1583.37,1375.66 1583.37,47.2441 "/>
<polyline clip-path="url(#clip661)" style="stroke:#000000; stroke-linecap:round; stroke-linejoin:round; stroke-width:2; stroke-opacity:0.1; fill:none" points="1907.9,1375.66 1907.9,47.2441 "/>
<polyline clip-path="url(#clip661)" style="stroke:#000000; stroke-linecap:round; stroke-linejoin:round; stroke-width:2; stroke-opacity:0.1; fill:none" points="2232.42,1375.66 2232.42,47.2441 "/>
<polyline clip-path="url(#clip661)" style="stroke:#000000; stroke-linecap:round; stroke-linejoin:round; stroke-width:2; stroke-opacity:0.1; fill:none" points="164.943,1375.66 2352.76,1375.66 "/>
<polyline clip-path="url(#clip661)" style="stroke:#000000; stroke-linecap:round; stroke-linejoin:round; stroke-width:2; stroke-opacity:0.1; fill:none" points="164.943,1171.29 2352.76,1171.29 "/>
<polyline clip-path="url(#clip661)" style="stroke:#000000; stroke-linecap:round; stroke-linejoin:round; stroke-width:2; stroke-opacity:0.1; fill:none" points="164.943,966.917 2352.76,966.917 "/>
<polyline clip-path="url(#clip661)" style="stroke:#000000; stroke-linecap:round; stroke-linejoin:round; stroke-width:2; stroke-opacity:0.1; fill:none" points="164.943,762.545 2352.76,762.545 "/>
<polyline clip-path="url(#clip661)" style="stroke:#000000; stroke-linecap:round; stroke-linejoin:round; stroke-width:2; stroke-opacity:0.1; fill:none" points="164.943,558.173 2352.76,558.173 "/>
<polyline clip-path="url(#clip661)" style="stroke:#000000; stroke-linecap:round; stroke-linejoin:round; stroke-width:2; stroke-opacity:0.1; fill:none" points="164.943,353.802 2352.76,353.802 "/>
<polyline clip-path="url(#clip661)" style="stroke:#000000; stroke-linecap:round; stroke-linejoin:round; stroke-width:2; stroke-opacity:0.1; fill:none" points="164.943,149.43 2352.76,149.43 "/>
<polyline clip-path="url(#clip660)" style="stroke:#000000; stroke-linecap:round; stroke-linejoin:round; stroke-width:4; stroke-opacity:1; fill:none" points="164.943,1375.66 2352.76,1375.66 "/>
<polyline clip-path="url(#clip660)" style="stroke:#000000; stroke-linecap:round; stroke-linejoin:round; stroke-width:4; stroke-opacity:1; fill:none" points="285.277,1375.66 285.277,1356.76 "/>
<polyline clip-path="url(#clip660)" style="stroke:#000000; stroke-linecap:round; stroke-linejoin:round; stroke-width:4; stroke-opacity:1; fill:none" points="609.801,1375.66 609.801,1356.76 "/>
<polyline clip-path="url(#clip660)" style="stroke:#000000; stroke-linecap:round; stroke-linejoin:round; stroke-width:4; stroke-opacity:1; fill:none" points="934.325,1375.66 934.325,1356.76 "/>
<polyline clip-path="url(#clip660)" style="stroke:#000000; stroke-linecap:round; stroke-linejoin:round; stroke-width:4; stroke-opacity:1; fill:none" points="1258.85,1375.66 1258.85,1356.76 "/>
<polyline clip-path="url(#clip660)" style="stroke:#000000; stroke-linecap:round; stroke-linejoin:round; stroke-width:4; stroke-opacity:1; fill:none" points="1583.37,1375.66 1583.37,1356.76 "/>
<polyline clip-path="url(#clip660)" style="stroke:#000000; stroke-linecap:round; stroke-linejoin:round; stroke-width:4; stroke-opacity:1; fill:none" points="1907.9,1375.66 1907.9,1356.76 "/>
<polyline clip-path="url(#clip660)" style="stroke:#000000; stroke-linecap:round; stroke-linejoin:round; stroke-width:4; stroke-opacity:1; fill:none" points="2232.42,1375.66 2232.42,1356.76 "/>
<path clip-path="url(#clip660)" d="M217.117 1434.42 L261.631 1434.42 L261.631 1440.32 L217.117 1440.32 L217.117 1434.42 Z" fill="#000000" fill-rule="nonzero" fill-opacity="1" /><path clip-path="url(#clip660)" d="M277.985 1453.76 L289.443 1453.76 L289.443 1414.21 L276.978 1416.71 L276.978 1410.32 L289.374 1407.82 L296.388 1407.82 L296.388 1453.76 L307.846 1453.76 L307.846 1459.66 L277.985 1459.66 L277.985 1453.76 Z" fill="#000000" fill-rule="nonzero" fill-opacity="1" /><path clip-path="url(#clip660)" d="M322.082 1407.82 L349.617 1407.82 L349.617 1413.72 L328.506 1413.72 L328.506 1426.43 Q330.033 1425.91 331.561 1425.67 Q333.089 1425.39 334.617 1425.39 Q343.297 1425.39 348.367 1430.15 Q353.436 1434.9 353.436 1443.03 Q353.436 1451.4 348.228 1456.05 Q343.019 1460.67 333.54 1460.67 Q330.276 1460.67 326.874 1460.11 Q323.506 1459.56 319.895 1458.44 L319.895 1451.4 Q323.02 1453.1 326.353 1453.93 Q329.686 1454.76 333.401 1454.76 Q339.408 1454.76 342.915 1451.6 Q346.422 1448.44 346.422 1443.03 Q346.422 1437.61 342.915 1434.45 Q339.408 1431.29 333.401 1431.29 Q330.589 1431.29 327.776 1431.92 Q324.999 1432.54 322.082 1433.86 L322.082 1407.82 Z" fill="#000000" fill-rule="nonzero" fill-opacity="1" /><path clip-path="url(#clip660)" d="M540.895 1434.42 L585.409 1434.42 L585.409 1440.32 L540.895 1440.32 L540.895 1434.42 Z" fill="#000000" fill-rule="nonzero" fill-opacity="1" /><path clip-path="url(#clip660)" d="M601.763 1453.76 L613.221 1453.76 L613.221 1414.21 L600.756 1416.71 L600.756 1410.32 L613.152 1407.82 L620.165 1407.82 L620.165 1453.76 L631.624 1453.76 L631.624 1459.66 L601.763 1459.66 L601.763 1453.76 Z" fill="#000000" fill-rule="nonzero" fill-opacity="1" /><path clip-path="url(#clip660)" d="M660.79 1412.44 Q655.374 1412.44 652.631 1417.79 Q649.922 1423.1 649.922 1433.79 Q649.922 1444.45 652.631 1449.8 Q655.374 1455.11 660.79 1455.11 Q666.242 1455.11 668.95 1449.8 Q671.693 1444.45 671.693 1433.79 Q671.693 1423.1 668.95 1417.79 Q666.242 1412.44 660.79 1412.44 M660.79 1406.88 Q669.506 1406.88 674.089 1413.79 Q678.707 1420.67 678.707 1433.79 Q678.707 1446.88 674.089 1453.79 Q669.506 1460.67 660.79 1460.67 Q652.075 1460.67 647.457 1453.79 Q642.874 1446.88 642.874 1433.79 Q642.874 1420.67 647.457 1413.79 Q652.075 1406.88 660.79 1406.88 Z" fill="#000000" fill-rule="nonzero" fill-opacity="1" /><path clip-path="url(#clip660)" d="M888.787 1434.42 L933.301 1434.42 L933.301 1440.32 L888.787 1440.32 L888.787 1434.42 Z" fill="#000000" fill-rule="nonzero" fill-opacity="1" /><path clip-path="url(#clip660)" d="M948.509 1407.82 L976.044 1407.82 L976.044 1413.72 L954.933 1413.72 L954.933 1426.43 Q956.461 1425.91 957.988 1425.67 Q959.516 1425.39 961.044 1425.39 Q969.724 1425.39 974.794 1430.15 Q979.863 1434.9 979.863 1443.03 Q979.863 1451.4 974.655 1456.05 Q969.447 1460.67 959.967 1460.67 Q956.704 1460.67 953.301 1460.11 Q949.933 1459.56 946.322 1458.44 L946.322 1451.4 Q949.447 1453.1 952.78 1453.93 Q956.113 1454.76 959.829 1454.76 Q965.835 1454.76 969.342 1451.6 Q972.849 1448.44 972.849 1443.03 Q972.849 1437.61 969.342 1434.45 Q965.835 1431.29 959.829 1431.29 Q957.016 1431.29 954.204 1431.92 Q951.426 1432.54 948.509 1433.86 L948.509 1407.82 Z" fill="#000000" fill-rule="nonzero" fill-opacity="1" /><path clip-path="url(#clip660)" d="M1258.85 1412.44 Q1253.43 1412.44 1250.69 1417.79 Q1247.98 1423.1 1247.98 1433.79 Q1247.98 1444.45 1250.69 1449.8 Q1253.43 1455.11 1258.85 1455.11 Q1264.3 1455.11 1267.01 1449.8 Q1269.75 1444.45 1269.75 1433.79 Q1269.75 1423.1 1267.01 1417.79 Q1264.3 1412.44 1258.85 1412.44 M1258.85 1406.88 Q1267.56 1406.88 1272.15 1413.79 Q1276.77 1420.67 1276.77 1433.79 Q1276.77 1446.88 1272.15 1453.79 Q1267.56 1460.67 1258.85 1460.67 Q1250.13 1460.67 1245.52 1453.79 Q1240.93 1446.88 1240.93 1433.79 Q1240.93 1420.67 1245.52 1413.79 Q1250.13 1406.88 1258.85 1406.88 Z" fill="#000000" fill-rule="nonzero" fill-opacity="1" /><path clip-path="url(#clip660)" d="M1568.79 1407.82 L1596.33 1407.82 L1596.33 1413.72 L1575.21 1413.72 L1575.21 1426.43 Q1576.74 1425.91 1578.27 1425.67 Q1579.8 1425.39 1581.33 1425.39 Q1590.01 1425.39 1595.08 1430.15 Q1600.14 1434.9 1600.14 1443.03 Q1600.14 1451.4 1594.94 1456.05 Q1589.73 1460.67 1580.25 1460.67 Q1576.98 1460.67 1573.58 1460.11 Q1570.21 1459.56 1566.6 1458.44 L1566.6 1451.4 Q1569.73 1453.1 1573.06 1453.93 Q1576.39 1454.76 1580.11 1454.76 Q1586.12 1454.76 1589.62 1451.6 Q1593.13 1448.44 1593.13 1443.03 Q1593.13 1437.61 1589.62 1434.45 Q1586.12 1431.29 1580.11 1431.29 Q1577.3 1431.29 1574.48 1431.92 Q1571.71 1432.54 1568.79 1433.86 L1568.79 1407.82 Z" fill="#000000" fill-rule="nonzero" fill-opacity="1" /><path clip-path="url(#clip660)" d="M1869.93 1453.76 L1881.39 1453.76 L1881.39 1414.21 L1868.92 1416.71 L1868.92 1410.32 L1881.32 1407.82 L1888.33 1407.82 L1888.33 1453.76 L1899.79 1453.76 L1899.79 1459.66 L1869.93 1459.66 L1869.93 1453.76 Z" fill="#000000" fill-rule="nonzero" fill-opacity="1" /><path clip-path="url(#clip660)" d="M1928.96 1412.44 Q1923.54 1412.44 1920.8 1417.79 Q1918.09 1423.1 1918.09 1433.79 Q1918.09 1444.45 1920.8 1449.8 Q1923.54 1455.11 1928.96 1455.11 Q1934.41 1455.11 1937.12 1449.8 Q1939.86 1444.45 1939.86 1433.79 Q1939.86 1423.1 1937.12 1417.79 Q1934.41 1412.44 1928.96 1412.44 M1928.96 1406.88 Q1937.67 1406.88 1942.26 1413.79 Q1946.87 1420.67 1946.87 1433.79 Q1946.87 1446.88 1942.26 1453.79 Q1937.67 1460.67 1928.96 1460.67 Q1920.24 1460.67 1915.62 1453.79 Q1911.04 1446.88 1911.04 1433.79 Q1911.04 1420.67 1915.62 1413.79 Q1920.24 1406.88 1928.96 1406.88 Z" fill="#000000" fill-rule="nonzero" fill-opacity="1" /><path clip-path="url(#clip660)" d="M2195.2 1453.76 L2206.66 1453.76 L2206.66 1414.21 L2194.19 1416.71 L2194.19 1410.32 L2206.59 1407.82 L2213.6 1407.82 L2213.6 1453.76 L2225.06 1453.76 L2225.06 1459.66 L2195.2 1459.66 L2195.2 1453.76 Z" fill="#000000" fill-rule="nonzero" fill-opacity="1" /><path clip-path="url(#clip660)" d="M2239.3 1407.82 L2266.83 1407.82 L2266.83 1413.72 L2245.72 1413.72 L2245.72 1426.43 Q2247.25 1425.91 2248.78 1425.67 Q2250.3 1425.39 2251.83 1425.39 Q2260.51 1425.39 2265.58 1430.15 Q2270.65 1434.9 2270.65 1443.03 Q2270.65 1451.4 2265.44 1456.05 Q2260.23 1460.67 2250.76 1460.67 Q2247.49 1460.67 2244.09 1460.11 Q2240.72 1459.56 2237.11 1458.44 L2237.11 1451.4 Q2240.23 1453.1 2243.57 1453.93 Q2246.9 1454.76 2250.62 1454.76 Q2256.62 1454.76 2260.13 1451.6 Q2263.64 1448.44 2263.64 1443.03 Q2263.64 1437.61 2260.13 1434.45 Q2256.62 1431.29 2250.62 1431.29 Q2247.8 1431.29 2244.99 1431.92 Q2242.21 1432.54 2239.3 1433.86 L2239.3 1407.82 Z" fill="#000000" fill-rule="nonzero" fill-opacity="1" /><path clip-path="url(#clip660)" d="M1146.69 1549.29 L1161.38 1501.79 L1170.23 1501.79 L1155.54 1549.29 L1170.23 1596.79 L1161.38 1596.79 L1146.69 1549.29 Z" fill="#000000" fill-rule="nonzero" fill-opacity="1" /><path clip-path="url(#clip660)" d="M1237.31 1524.4 L1216.22 1552.78 L1238.41 1582.73 L1227.1 1582.73 L1210.13 1559.82 L1193.15 1582.73 L1181.84 1582.73 L1204.5 1552.21 L1183.77 1524.4 L1195.07 1524.4 L1210.54 1545.18 L1226.01 1524.4 L1237.31 1524.4 Z" fill="#000000" fill-rule="nonzero" fill-opacity="1" /><path clip-path="url(#clip660)" d="M1254.4 1569.5 L1265.39 1569.5 L1265.39 1578.46 L1256.84 1595.13 L1250.13 1595.13 L1254.4 1578.46 L1254.4 1569.5 Z" fill="#000000" fill-rule="nonzero" fill-opacity="1" /><path clip-path="url(#clip660)" d="M1278.98 1524.4 L1289.14 1524.4 L1307.36 1573.36 L1325.59 1524.4 L1335.75 1524.4 L1313.88 1582.73 L1300.85 1582.73 L1278.98 1524.4 Z" fill="#000000" fill-rule="nonzero" fill-opacity="1" /><path clip-path="url(#clip660)" d="M1371.01 1549.29 L1356.32 1596.79 L1347.47 1596.79 L1362.16 1549.29 L1347.47 1501.79 L1356.32 1501.79 L1371.01 1549.29 Z" fill="#000000" fill-rule="nonzero" fill-opacity="1" /><polyline clip-path="url(#clip660)" style="stroke:#000000; stroke-linecap:round; stroke-linejoin:round; stroke-width:4; stroke-opacity:1; fill:none" points="164.943,1375.66 164.943,47.2441 "/>
<polyline clip-path="url(#clip660)" style="stroke:#000000; stroke-linecap:round; stroke-linejoin:round; stroke-width:4; stroke-opacity:1; fill:none" points="164.943,1375.66 183.841,1375.66 "/>
<polyline clip-path="url(#clip660)" style="stroke:#000000; stroke-linecap:round; stroke-linejoin:round; stroke-width:4; stroke-opacity:1; fill:none" points="164.943,1171.29 183.841,1171.29 "/>
<polyline clip-path="url(#clip660)" style="stroke:#000000; stroke-linecap:round; stroke-linejoin:round; stroke-width:4; stroke-opacity:1; fill:none" points="164.943,966.917 183.841,966.917 "/>
<polyline clip-path="url(#clip660)" style="stroke:#000000; stroke-linecap:round; stroke-linejoin:round; stroke-width:4; stroke-opacity:1; fill:none" points="164.943,762.545 183.841,762.545 "/>
<polyline clip-path="url(#clip660)" style="stroke:#000000; stroke-linecap:round; stroke-linejoin:round; stroke-width:4; stroke-opacity:1; fill:none" points="164.943,558.173 183.841,558.173 "/>
<polyline clip-path="url(#clip660)" style="stroke:#000000; stroke-linecap:round; stroke-linejoin:round; stroke-width:4; stroke-opacity:1; fill:none" points="164.943,353.802 183.841,353.802 "/>
<polyline clip-path="url(#clip660)" style="stroke:#000000; stroke-linecap:round; stroke-linejoin:round; stroke-width:4; stroke-opacity:1; fill:none" points="164.943,149.43 183.841,149.43 "/>
<path clip-path="url(#clip660)" d="M111.027 1354.36 Q105.61 1354.36 102.867 1359.71 Q100.159 1365.02 100.159 1375.71 Q100.159 1386.37 102.867 1391.72 Q105.61 1397.03 111.027 1397.03 Q116.478 1397.03 119.186 1391.72 Q121.929 1386.37 121.929 1375.71 Q121.929 1365.02 119.186 1359.71 Q116.478 1354.36 111.027 1354.36 M111.027 1348.8 Q119.742 1348.8 124.325 1355.71 Q128.943 1362.59 128.943 1375.71 Q128.943 1388.8 124.325 1395.71 Q119.742 1402.59 111.027 1402.59 Q102.311 1402.59 97.6933 1395.71 Q93.11 1388.8 93.11 1375.71 Q93.11 1362.59 97.6933 1355.71 Q102.311 1348.8 111.027 1348.8 Z" fill="#000000" fill-rule="nonzero" fill-opacity="1" /><path clip-path="url(#clip660)" d="M104.464 1191.31 L128.943 1191.31 L128.943 1197.21 L96.0266 1197.21 L96.0266 1191.31 Q100.02 1187.17 106.895 1180.23 Q113.804 1173.25 115.575 1171.24 Q118.943 1167.45 120.263 1164.85 Q121.617 1162.21 121.617 1159.67 Q121.617 1155.54 118.7 1152.94 Q115.818 1150.33 111.165 1150.33 Q107.867 1150.33 104.186 1151.48 Q100.54 1152.63 96.3738 1154.95 L96.3738 1147.87 Q100.61 1146.17 104.29 1145.3 Q107.971 1144.43 111.027 1144.43 Q119.082 1144.43 123.874 1148.46 Q128.665 1152.49 128.665 1159.22 Q128.665 1162.42 127.45 1165.3 Q126.27 1168.15 123.11 1172.03 Q122.242 1173.04 117.589 1177.87 Q112.936 1182.66 104.464 1191.31 Z" fill="#000000" fill-rule="nonzero" fill-opacity="1" /><path clip-path="url(#clip660)" d="M114.568 947.108 L96.8599 974.781 L114.568 974.781 L114.568 947.108 M112.728 940.997 L121.547 940.997 L121.547 974.781 L128.943 974.781 L128.943 980.614 L121.547 980.614 L121.547 992.837 L114.568 992.837 L114.568 980.614 L91.1655 980.614 L91.1655 973.844 L112.728 940.997 Z" fill="#000000" fill-rule="nonzero" fill-opacity="1" /><path clip-path="url(#clip660)" d="M111.652 759.75 Q106.929 759.75 104.152 762.979 Q101.409 766.208 101.409 771.833 Q101.409 777.423 104.152 780.687 Q106.929 783.916 111.652 783.916 Q116.374 783.916 119.117 780.687 Q121.895 777.423 121.895 771.833 Q121.895 766.208 119.117 762.979 Q116.374 759.75 111.652 759.75 M125.575 737.771 L125.575 744.16 Q122.936 742.91 120.228 742.25 Q117.554 741.59 114.915 741.59 Q107.971 741.59 104.29 746.278 Q100.645 750.965 100.124 760.444 Q102.172 757.423 105.263 755.826 Q108.353 754.194 112.068 754.194 Q119.881 754.194 124.395 758.951 Q128.943 763.673 128.943 771.833 Q128.943 779.819 124.221 784.645 Q119.499 789.472 111.652 789.472 Q102.659 789.472 97.9016 782.597 Q93.1447 775.687 93.1447 762.597 Q93.1447 750.305 98.978 743.014 Q104.811 735.687 114.638 735.687 Q117.276 735.687 119.95 736.208 Q122.658 736.729 125.575 737.771 Z" fill="#000000" fill-rule="nonzero" fill-opacity="1" /><path clip-path="url(#clip660)" d="M111.165 559.475 Q106.165 559.475 103.284 562.149 Q100.436 564.822 100.436 569.51 Q100.436 574.197 103.284 576.871 Q106.165 579.545 111.165 579.545 Q116.165 579.545 119.047 576.871 Q121.929 574.163 121.929 569.51 Q121.929 564.822 119.047 562.149 Q116.2 559.475 111.165 559.475 M104.152 556.489 Q99.6377 555.378 97.103 552.288 Q94.603 549.198 94.603 544.753 Q94.603 538.538 99.0127 534.927 Q103.457 531.316 111.165 531.316 Q118.908 531.316 123.318 534.927 Q127.728 538.538 127.728 544.753 Q127.728 549.198 125.193 552.288 Q122.693 555.378 118.214 556.489 Q123.283 557.67 126.096 561.107 Q128.943 564.545 128.943 569.51 Q128.943 577.045 124.325 581.072 Q119.742 585.1 111.165 585.1 Q102.589 585.1 97.971 581.072 Q93.3877 577.045 93.3877 569.51 Q93.3877 564.545 96.2349 561.107 Q99.0821 557.67 104.152 556.489 M101.582 545.413 Q101.582 549.441 104.082 551.698 Q106.617 553.955 111.165 553.955 Q115.679 553.955 118.214 551.698 Q120.783 549.441 120.783 545.413 Q120.783 541.385 118.214 539.128 Q115.679 536.871 111.165 536.871 Q106.617 536.871 104.082 539.128 Q101.582 541.385 101.582 545.413 Z" fill="#000000" fill-rule="nonzero" fill-opacity="1" /><path clip-path="url(#clip660)" d="M51.9991 373.819 L63.4573 373.819 L63.4573 334.27 L50.9921 336.77 L50.9921 330.382 L63.3879 327.882 L70.4017 327.882 L70.4017 373.819 L81.86 373.819 L81.86 379.722 L51.9991 379.722 L51.9991 373.819 Z" fill="#000000" fill-rule="nonzero" fill-opacity="1" /><path clip-path="url(#clip660)" d="M111.027 332.5 Q105.61 332.5 102.867 337.847 Q100.159 343.159 100.159 353.854 Q100.159 364.513 102.867 369.861 Q105.61 375.173 111.027 375.173 Q116.478 375.173 119.186 369.861 Q121.929 364.513 121.929 353.854 Q121.929 343.159 119.186 337.847 Q116.478 332.5 111.027 332.5 M111.027 326.944 Q119.742 326.944 124.325 333.854 Q128.943 340.729 128.943 353.854 Q128.943 366.944 124.325 373.854 Q119.742 380.729 111.027 380.729 Q102.311 380.729 97.6933 373.854 Q93.11 366.944 93.11 353.854 Q93.11 340.729 97.6933 333.854 Q102.311 326.944 111.027 326.944 Z" fill="#000000" fill-rule="nonzero" fill-opacity="1" /><path clip-path="url(#clip660)" d="M54.3949 169.447 L65.8532 169.447 L65.8532 129.899 L53.3879 132.399 L53.3879 126.01 L65.7837 123.51 L72.7976 123.51 L72.7976 169.447 L84.2558 169.447 L84.2558 175.35 L54.3949 175.35 L54.3949 169.447 Z" fill="#000000" fill-rule="nonzero" fill-opacity="1" /><path clip-path="url(#clip660)" d="M104.464 169.447 L128.943 169.447 L128.943 175.35 L96.0266 175.35 L96.0266 169.447 Q100.02 165.315 106.895 158.371 Q113.804 151.392 115.575 149.378 Q118.943 145.593 120.263 142.989 Q121.617 140.35 121.617 137.815 Q121.617 133.683 118.7 131.079 Q115.818 128.475 111.165 128.475 Q107.867 128.475 104.186 129.621 Q100.54 130.767 96.3738 133.093 L96.3738 126.01 Q100.61 124.309 104.29 123.44 Q107.971 122.572 111.027 122.572 Q119.082 122.572 123.874 126.6 Q128.665 130.628 128.665 137.364 Q128.665 140.558 127.45 143.44 Q126.27 146.288 123.11 150.176 Q122.242 151.183 117.589 156.01 Q112.936 160.801 104.464 169.447 Z" fill="#000000" fill-rule="nonzero" fill-opacity="1" /><path clip-path="url(#clip661)" d="M285.277 1375.66 L285.277 1375.66 L350.182 1375.66 L350.182 1375.66 L285.277 1375.66 L285.277 1375.66  Z" fill="#008000" fill-rule="evenodd" fill-opacity="0.5"/>
<polyline clip-path="url(#clip661)" style="stroke:#008000; stroke-linecap:round; stroke-linejoin:round; stroke-width:8; stroke-opacity:0.5; fill:none" points="285.277,1375.66 285.277,1375.66 350.182,1375.66 285.277,1375.66 "/>
<path clip-path="url(#clip661)" d="M350.182 1375.66 L350.182 1375.66 L415.086 1375.66 L415.086 1375.66 L350.182 1375.66 L350.182 1375.66  Z" fill="#008000" fill-rule="evenodd" fill-opacity="0.5"/>
<polyline clip-path="url(#clip661)" style="stroke:#008000; stroke-linecap:round; stroke-linejoin:round; stroke-width:8; stroke-opacity:0.5; fill:none" points="350.182,1375.66 350.182,1375.66 415.086,1375.66 350.182,1375.66 "/>
<path clip-path="url(#clip661)" d="M415.086 1273.47 L415.086 1375.66 L479.991 1375.66 L479.991 1273.47 L415.086 1273.47 L415.086 1273.47  Z" fill="#008000" fill-rule="evenodd" fill-opacity="0.5"/>
<polyline clip-path="url(#clip661)" style="stroke:#008000; stroke-linecap:round; stroke-linejoin:round; stroke-width:8; stroke-opacity:0.5; fill:none" points="415.086,1273.47 415.086,1375.66 479.991,1375.66 479.991,1273.47 415.086,1273.47 "/>
<path clip-path="url(#clip661)" d="M479.991 1273.47 L479.991 1375.66 L544.896 1375.66 L544.896 1273.47 L479.991 1273.47 L479.991 1273.47  Z" fill="#008000" fill-rule="evenodd" fill-opacity="0.5"/>
<polyline clip-path="url(#clip661)" style="stroke:#008000; stroke-linecap:round; stroke-linejoin:round; stroke-width:8; stroke-opacity:0.5; fill:none" points="479.991,1273.47 479.991,1375.66 544.896,1375.66 544.896,1273.47 479.991,1273.47 "/>
<path clip-path="url(#clip661)" d="M544.896 1273.47 L544.896 1375.66 L609.801 1375.66 L609.801 1273.47 L544.896 1273.47 L544.896 1273.47  Z" fill="#008000" fill-rule="evenodd" fill-opacity="0.5"/>
<polyline clip-path="url(#clip661)" style="stroke:#008000; stroke-linecap:round; stroke-linejoin:round; stroke-width:8; stroke-opacity:0.5; fill:none" points="544.896,1273.47 544.896,1375.66 609.801,1375.66 609.801,1273.47 544.896,1273.47 "/>
<path clip-path="url(#clip661)" d="M609.801 1171.29 L609.801 1375.66 L674.706 1375.66 L674.706 1171.29 L609.801 1171.29 L609.801 1171.29  Z" fill="#008000" fill-rule="evenodd" fill-opacity="0.5"/>
<polyline clip-path="url(#clip661)" style="stroke:#008000; stroke-linecap:round; stroke-linejoin:round; stroke-width:8; stroke-opacity:0.5; fill:none" points="609.801,1171.29 609.801,1375.66 674.706,1375.66 674.706,1171.29 609.801,1171.29 "/>
<path clip-path="url(#clip661)" d="M674.706 762.545 L674.706 1375.66 L739.611 1375.66 L739.611 762.545 L674.706 762.545 L674.706 762.545  Z" fill="#008000" fill-rule="evenodd" fill-opacity="0.5"/>
<polyline clip-path="url(#clip661)" style="stroke:#008000; stroke-linecap:round; stroke-linejoin:round; stroke-width:8; stroke-opacity:0.5; fill:none" points="674.706,762.545 674.706,1375.66 739.611,1375.66 739.611,762.545 674.706,762.545 "/>
<path clip-path="url(#clip661)" d="M739.611 762.545 L739.611 1375.66 L804.516 1375.66 L804.516 762.545 L739.611 762.545 L739.611 762.545  Z" fill="#008000" fill-rule="evenodd" fill-opacity="0.5"/>
<polyline clip-path="url(#clip661)" style="stroke:#008000; stroke-linecap:round; stroke-linejoin:round; stroke-width:8; stroke-opacity:0.5; fill:none" points="739.611,762.545 739.611,1375.66 804.516,1375.66 804.516,762.545 739.611,762.545 "/>
<path clip-path="url(#clip661)" d="M804.516 864.731 L804.516 1375.66 L869.42 1375.66 L869.42 864.731 L804.516 864.731 L804.516 864.731  Z" fill="#008000" fill-rule="evenodd" fill-opacity="0.5"/>
<polyline clip-path="url(#clip661)" style="stroke:#008000; stroke-linecap:round; stroke-linejoin:round; stroke-width:8; stroke-opacity:0.5; fill:none" points="804.516,864.731 804.516,1375.66 869.42,1375.66 869.42,864.731 804.516,864.731 "/>
<path clip-path="url(#clip661)" d="M869.42 762.545 L869.42 1375.66 L934.325 1375.66 L934.325 762.545 L869.42 762.545 L869.42 762.545  Z" fill="#008000" fill-rule="evenodd" fill-opacity="0.5"/>
<polyline clip-path="url(#clip661)" style="stroke:#008000; stroke-linecap:round; stroke-linejoin:round; stroke-width:8; stroke-opacity:0.5; fill:none" points="869.42,762.545 869.42,1375.66 934.325,1375.66 934.325,762.545 869.42,762.545 "/>
<path clip-path="url(#clip661)" d="M934.325 762.545 L934.325 1375.66 L999.23 1375.66 L999.23 762.545 L934.325 762.545 L934.325 762.545  Z" fill="#008000" fill-rule="evenodd" fill-opacity="0.5"/>
<polyline clip-path="url(#clip661)" style="stroke:#008000; stroke-linecap:round; stroke-linejoin:round; stroke-width:8; stroke-opacity:0.5; fill:none" points="934.325,762.545 934.325,1375.66 999.23,1375.66 999.23,762.545 934.325,762.545 "/>
<path clip-path="url(#clip661)" d="M999.23 966.917 L999.23 1375.66 L1064.13 1375.66 L1064.13 966.917 L999.23 966.917 L999.23 966.917  Z" fill="#008000" fill-rule="evenodd" fill-opacity="0.5"/>
<polyline clip-path="url(#clip661)" style="stroke:#008000; stroke-linecap:round; stroke-linejoin:round; stroke-width:8; stroke-opacity:0.5; fill:none" points="999.23,966.917 999.23,1375.66 1064.13,1375.66 1064.13,966.917 999.23,966.917 "/>
<path clip-path="url(#clip661)" d="M1064.13 47.2441 L1064.13 1375.66 L1129.04 1375.66 L1129.04 47.2441 L1064.13 47.2441 L1064.13 47.2441  Z" fill="#008000" fill-rule="evenodd" fill-opacity="0.5"/>
<polyline clip-path="url(#clip661)" style="stroke:#008000; stroke-linecap:round; stroke-linejoin:round; stroke-width:8; stroke-opacity:0.5; fill:none" points="1064.13,47.2441 1064.13,1375.66 1129.04,1375.66 1129.04,47.2441 1064.13,47.2441 "/>
<path clip-path="url(#clip661)" d="M1129.04 1069.1 L1129.04 1375.66 L1193.94 1375.66 L1193.94 1069.1 L1129.04 1069.1 L1129.04 1069.1  Z" fill="#008000" fill-rule="evenodd" fill-opacity="0.5"/>
<polyline clip-path="url(#clip661)" style="stroke:#008000; stroke-linecap:round; stroke-linejoin:round; stroke-width:8; stroke-opacity:0.5; fill:none" points="1129.04,1069.1 1129.04,1375.66 1193.94,1375.66 1193.94,1069.1 1129.04,1069.1 "/>
<path clip-path="url(#clip661)" d="M1193.94 1069.1 L1193.94 1375.66 L1258.85 1375.66 L1258.85 1069.1 L1193.94 1069.1 L1193.94 1069.1  Z" fill="#008000" fill-rule="evenodd" fill-opacity="0.5"/>
<polyline clip-path="url(#clip661)" style="stroke:#008000; stroke-linecap:round; stroke-linejoin:round; stroke-width:8; stroke-opacity:0.5; fill:none" points="1193.94,1069.1 1193.94,1375.66 1258.85,1375.66 1258.85,1069.1 1193.94,1069.1 "/>
<path clip-path="url(#clip661)" d="M1258.85 1273.47 L1258.85 1375.66 L1323.75 1375.66 L1323.75 1273.47 L1258.85 1273.47 L1258.85 1273.47  Z" fill="#008000" fill-rule="evenodd" fill-opacity="0.5"/>
<polyline clip-path="url(#clip661)" style="stroke:#008000; stroke-linecap:round; stroke-linejoin:round; stroke-width:8; stroke-opacity:0.5; fill:none" points="1258.85,1273.47 1258.85,1375.66 1323.75,1375.66 1323.75,1273.47 1258.85,1273.47 "/>
<path clip-path="url(#clip661)" d="M1323.75 1171.29 L1323.75 1375.66 L1388.66 1375.66 L1388.66 1171.29 L1323.75 1171.29 L1323.75 1171.29  Z" fill="#008000" fill-rule="evenodd" fill-opacity="0.5"/>
<polyline clip-path="url(#clip661)" style="stroke:#008000; stroke-linecap:round; stroke-linejoin:round; stroke-width:8; stroke-opacity:0.5; fill:none" points="1323.75,1171.29 1323.75,1375.66 1388.66,1375.66 1388.66,1171.29 1323.75,1171.29 "/>
<path clip-path="url(#clip661)" d="M1388.66 1375.66 L1388.66 1375.66 L1453.56 1375.66 L1453.56 1375.66 L1388.66 1375.66 L1388.66 1375.66  Z" fill="#008000" fill-rule="evenodd" fill-opacity="0.5"/>
<polyline clip-path="url(#clip661)" style="stroke:#008000; stroke-linecap:round; stroke-linejoin:round; stroke-width:8; stroke-opacity:0.5; fill:none" points="1388.66,1375.66 1388.66,1375.66 1453.56,1375.66 1388.66,1375.66 "/>
<path clip-path="url(#clip661)" d="M1453.56 1375.66 L1453.56 1375.66 L1518.47 1375.66 L1518.47 1375.66 L1453.56 1375.66 L1453.56 1375.66  Z" fill="#008000" fill-rule="evenodd" fill-opacity="0.5"/>
<polyline clip-path="url(#clip661)" style="stroke:#008000; stroke-linecap:round; stroke-linejoin:round; stroke-width:8; stroke-opacity:0.5; fill:none" points="1453.56,1375.66 1453.56,1375.66 1518.47,1375.66 1453.56,1375.66 "/>
<path clip-path="url(#clip661)" d="M1518.47 1375.66 L1518.47 1375.66 L1583.37 1375.66 L1583.37 1375.66 L1518.47 1375.66 L1518.47 1375.66  Z" fill="#008000" fill-rule="evenodd" fill-opacity="0.5"/>
<polyline clip-path="url(#clip661)" style="stroke:#008000; stroke-linecap:round; stroke-linejoin:round; stroke-width:8; stroke-opacity:0.5; fill:none" points="1518.47,1375.66 1518.47,1375.66 1583.37,1375.66 1518.47,1375.66 "/>
<path clip-path="url(#clip661)" d="M1583.37 1375.66 L1583.37 1375.66 L1648.28 1375.66 L1648.28 1375.66 L1583.37 1375.66 L1583.37 1375.66  Z" fill="#008000" fill-rule="evenodd" fill-opacity="0.5"/>
<polyline clip-path="url(#clip661)" style="stroke:#008000; stroke-linecap:round; stroke-linejoin:round; stroke-width:8; stroke-opacity:0.5; fill:none" points="1583.37,1375.66 1583.37,1375.66 1648.28,1375.66 1583.37,1375.66 "/>
<path clip-path="url(#clip661)" d="M1648.28 1375.66 L1648.28 1375.66 L1713.18 1375.66 L1713.18 1375.66 L1648.28 1375.66 L1648.28 1375.66  Z" fill="#008000" fill-rule="evenodd" fill-opacity="0.5"/>
<polyline clip-path="url(#clip661)" style="stroke:#008000; stroke-linecap:round; stroke-linejoin:round; stroke-width:8; stroke-opacity:0.5; fill:none" points="1648.28,1375.66 1648.28,1375.66 1713.18,1375.66 1648.28,1375.66 "/>
<path clip-path="url(#clip661)" d="M1713.18 1375.66 L1713.18 1375.66 L1778.09 1375.66 L1778.09 1375.66 L1713.18 1375.66 L1713.18 1375.66  Z" fill="#008000" fill-rule="evenodd" fill-opacity="0.5"/>
<polyline clip-path="url(#clip661)" style="stroke:#008000; stroke-linecap:round; stroke-linejoin:round; stroke-width:8; stroke-opacity:0.5; fill:none" points="1713.18,1375.66 1713.18,1375.66 1778.09,1375.66 1713.18,1375.66 "/>
<path clip-path="url(#clip661)" d="M1778.09 1375.66 L1778.09 1375.66 L1842.99 1375.66 L1842.99 1375.66 L1778.09 1375.66 L1778.09 1375.66  Z" fill="#008000" fill-rule="evenodd" fill-opacity="0.5"/>
<polyline clip-path="url(#clip661)" style="stroke:#008000; stroke-linecap:round; stroke-linejoin:round; stroke-width:8; stroke-opacity:0.5; fill:none" points="1778.09,1375.66 1778.09,1375.66 1842.99,1375.66 1778.09,1375.66 "/>
<path clip-path="url(#clip661)" d="M1842.99 1375.66 L1842.99 1375.66 L1907.9 1375.66 L1907.9 1375.66 L1842.99 1375.66 L1842.99 1375.66  Z" fill="#008000" fill-rule="evenodd" fill-opacity="0.5"/>
<polyline clip-path="url(#clip661)" style="stroke:#008000; stroke-linecap:round; stroke-linejoin:round; stroke-width:8; stroke-opacity:0.5; fill:none" points="1842.99,1375.66 1842.99,1375.66 1907.9,1375.66 1842.99,1375.66 "/>
<path clip-path="url(#clip661)" d="M1907.9 1375.66 L1907.9 1375.66 L1972.8 1375.66 L1972.8 1375.66 L1907.9 1375.66 L1907.9 1375.66  Z" fill="#008000" fill-rule="evenodd" fill-opacity="0.5"/>
<polyline clip-path="url(#clip661)" style="stroke:#008000; stroke-linecap:round; stroke-linejoin:round; stroke-width:8; stroke-opacity:0.5; fill:none" points="1907.9,1375.66 1907.9,1375.66 1972.8,1375.66 1907.9,1375.66 "/>
<path clip-path="url(#clip661)" d="M1972.8 1375.66 L1972.8 1375.66 L2037.71 1375.66 L2037.71 1375.66 L1972.8 1375.66 L1972.8 1375.66  Z" fill="#008000" fill-rule="evenodd" fill-opacity="0.5"/>
<polyline clip-path="url(#clip661)" style="stroke:#008000; stroke-linecap:round; stroke-linejoin:round; stroke-width:8; stroke-opacity:0.5; fill:none" points="1972.8,1375.66 1972.8,1375.66 2037.71,1375.66 1972.8,1375.66 "/>
<path clip-path="url(#clip661)" d="M2037.71 1375.66 L2037.71 1375.66 L2102.61 1375.66 L2102.61 1375.66 L2037.71 1375.66 L2037.71 1375.66  Z" fill="#008000" fill-rule="evenodd" fill-opacity="0.5"/>
<polyline clip-path="url(#clip661)" style="stroke:#008000; stroke-linecap:round; stroke-linejoin:round; stroke-width:8; stroke-opacity:0.5; fill:none" points="2037.71,1375.66 2037.71,1375.66 2102.61,1375.66 2037.71,1375.66 "/>
<path clip-path="url(#clip661)" d="M2102.61 1375.66 L2102.61 1375.66 L2167.52 1375.66 L2167.52 1375.66 L2102.61 1375.66 L2102.61 1375.66  Z" fill="#008000" fill-rule="evenodd" fill-opacity="0.5"/>
<polyline clip-path="url(#clip661)" style="stroke:#008000; stroke-linecap:round; stroke-linejoin:round; stroke-width:8; stroke-opacity:0.5; fill:none" points="2102.61,1375.66 2102.61,1375.66 2167.52,1375.66 2102.61,1375.66 "/>
<path clip-path="url(#clip661)" d="M2167.52 1375.66 L2167.52 1375.66 L2232.42 1375.66 L2232.42 1375.66 L2167.52 1375.66 L2167.52 1375.66  Z" fill="#008000" fill-rule="evenodd" fill-opacity="0.5"/>
<polyline clip-path="url(#clip661)" style="stroke:#008000; stroke-linecap:round; stroke-linejoin:round; stroke-width:8; stroke-opacity:0.5; fill:none" points="2167.52,1375.66 2167.52,1375.66 2232.42,1375.66 2167.52,1375.66 "/>
<circle clip-path="url(#clip661)" style="fill:#008000; stroke:none; fill-opacity:0" cx="317.729" cy="1375.66" r="2"/>
<circle clip-path="url(#clip661)" style="fill:#008000; stroke:none; fill-opacity:0" cx="382.634" cy="1375.66" r="2"/>
<circle clip-path="url(#clip661)" style="fill:#008000; stroke:none; fill-opacity:0" cx="447.539" cy="1273.47" r="2"/>
<circle clip-path="url(#clip661)" style="fill:#008000; stroke:none; fill-opacity:0" cx="512.444" cy="1273.47" r="2"/>
<circle clip-path="url(#clip661)" style="fill:#008000; stroke:none; fill-opacity:0" cx="577.349" cy="1273.47" r="2"/>
<circle clip-path="url(#clip661)" style="fill:#008000; stroke:none; fill-opacity:0" cx="642.253" cy="1171.29" r="2"/>
<circle clip-path="url(#clip661)" style="fill:#008000; stroke:none; fill-opacity:0" cx="707.158" cy="762.545" r="2"/>
<circle clip-path="url(#clip661)" style="fill:#008000; stroke:none; fill-opacity:0" cx="772.063" cy="762.545" r="2"/>
<circle clip-path="url(#clip661)" style="fill:#008000; stroke:none; fill-opacity:0" cx="836.968" cy="864.731" r="2"/>
<circle clip-path="url(#clip661)" style="fill:#008000; stroke:none; fill-opacity:0" cx="901.873" cy="762.545" r="2"/>
<circle clip-path="url(#clip661)" style="fill:#008000; stroke:none; fill-opacity:0" cx="966.778" cy="762.545" r="2"/>
<circle clip-path="url(#clip661)" style="fill:#008000; stroke:none; fill-opacity:0" cx="1031.68" cy="966.917" r="2"/>
<circle clip-path="url(#clip661)" style="fill:#008000; stroke:none; fill-opacity:0" cx="1096.59" cy="47.2441" r="2"/>
<circle clip-path="url(#clip661)" style="fill:#008000; stroke:none; fill-opacity:0" cx="1161.49" cy="1069.1" r="2"/>
<circle clip-path="url(#clip661)" style="fill:#008000; stroke:none; fill-opacity:0" cx="1226.4" cy="1069.1" r="2"/>
<circle clip-path="url(#clip661)" style="fill:#008000; stroke:none; fill-opacity:0" cx="1291.3" cy="1273.47" r="2"/>
<circle clip-path="url(#clip661)" style="fill:#008000; stroke:none; fill-opacity:0" cx="1356.21" cy="1171.29" r="2"/>
<circle clip-path="url(#clip661)" style="fill:#008000; stroke:none; fill-opacity:0" cx="1421.11" cy="1375.66" r="2"/>
<circle clip-path="url(#clip661)" style="fill:#008000; stroke:none; fill-opacity:0" cx="1486.02" cy="1375.66" r="2"/>
<circle clip-path="url(#clip661)" style="fill:#008000; stroke:none; fill-opacity:0" cx="1550.92" cy="1375.66" r="2"/>
<circle clip-path="url(#clip661)" style="fill:#008000; stroke:none; fill-opacity:0" cx="1615.83" cy="1375.66" r="2"/>
<circle clip-path="url(#clip661)" style="fill:#008000; stroke:none; fill-opacity:0" cx="1680.73" cy="1375.66" r="2"/>
<circle clip-path="url(#clip661)" style="fill:#008000; stroke:none; fill-opacity:0" cx="1745.64" cy="1375.66" r="2"/>
<circle clip-path="url(#clip661)" style="fill:#008000; stroke:none; fill-opacity:0" cx="1810.54" cy="1375.66" r="2"/>
<circle clip-path="url(#clip661)" style="fill:#008000; stroke:none; fill-opacity:0" cx="1875.45" cy="1375.66" r="2"/>
<circle clip-path="url(#clip661)" style="fill:#008000; stroke:none; fill-opacity:0" cx="1940.35" cy="1375.66" r="2"/>
<circle clip-path="url(#clip661)" style="fill:#008000; stroke:none; fill-opacity:0" cx="2005.26" cy="1375.66" r="2"/>
<circle clip-path="url(#clip661)" style="fill:#008000; stroke:none; fill-opacity:0" cx="2070.16" cy="1375.66" r="2"/>
<circle clip-path="url(#clip661)" style="fill:#008000; stroke:none; fill-opacity:0" cx="2135.07" cy="1375.66" r="2"/>
<circle clip-path="url(#clip661)" style="fill:#008000; stroke:none; fill-opacity:0" cx="2199.97" cy="1375.66" r="2"/>
<path clip-path="url(#clip661)" d="M285.277 1375.66 L285.277 1375.66 L350.182 1375.66 L350.182 1375.66 L285.277 1375.66 L285.277 1375.66  Z" fill="#0000ff" fill-rule="evenodd" fill-opacity="0.5"/>
<polyline clip-path="url(#clip661)" style="stroke:#0000ff; stroke-linecap:round; stroke-linejoin:round; stroke-width:8; stroke-opacity:0.5; fill:none" points="285.277,1375.66 285.277,1375.66 350.182,1375.66 285.277,1375.66 "/>
<path clip-path="url(#clip661)" d="M350.182 1375.66 L350.182 1375.66 L415.086 1375.66 L415.086 1375.66 L350.182 1375.66 L350.182 1375.66  Z" fill="#0000ff" fill-rule="evenodd" fill-opacity="0.5"/>
<polyline clip-path="url(#clip661)" style="stroke:#0000ff; stroke-linecap:round; stroke-linejoin:round; stroke-width:8; stroke-opacity:0.5; fill:none" points="350.182,1375.66 350.182,1375.66 415.086,1375.66 350.182,1375.66 "/>
<path clip-path="url(#clip661)" d="M415.086 1375.66 L415.086 1375.66 L479.991 1375.66 L479.991 1375.66 L415.086 1375.66 L415.086 1375.66  Z" fill="#0000ff" fill-rule="evenodd" fill-opacity="0.5"/>
<polyline clip-path="url(#clip661)" style="stroke:#0000ff; stroke-linecap:round; stroke-linejoin:round; stroke-width:8; stroke-opacity:0.5; fill:none" points="415.086,1375.66 415.086,1375.66 479.991,1375.66 415.086,1375.66 "/>
<path clip-path="url(#clip661)" d="M479.991 1375.66 L479.991 1375.66 L544.896 1375.66 L544.896 1375.66 L479.991 1375.66 L479.991 1375.66  Z" fill="#0000ff" fill-rule="evenodd" fill-opacity="0.5"/>
<polyline clip-path="url(#clip661)" style="stroke:#0000ff; stroke-linecap:round; stroke-linejoin:round; stroke-width:8; stroke-opacity:0.5; fill:none" points="479.991,1375.66 479.991,1375.66 544.896,1375.66 479.991,1375.66 "/>
<path clip-path="url(#clip661)" d="M544.896 1375.66 L544.896 1375.66 L609.801 1375.66 L609.801 1375.66 L544.896 1375.66 L544.896 1375.66  Z" fill="#0000ff" fill-rule="evenodd" fill-opacity="0.5"/>
<polyline clip-path="url(#clip661)" style="stroke:#0000ff; stroke-linecap:round; stroke-linejoin:round; stroke-width:8; stroke-opacity:0.5; fill:none" points="544.896,1375.66 544.896,1375.66 609.801,1375.66 544.896,1375.66 "/>
<path clip-path="url(#clip661)" d="M609.801 1375.66 L609.801 1375.66 L674.706 1375.66 L674.706 1375.66 L609.801 1375.66 L609.801 1375.66  Z" fill="#0000ff" fill-rule="evenodd" fill-opacity="0.5"/>
<polyline clip-path="url(#clip661)" style="stroke:#0000ff; stroke-linecap:round; stroke-linejoin:round; stroke-width:8; stroke-opacity:0.5; fill:none" points="609.801,1375.66 609.801,1375.66 674.706,1375.66 609.801,1375.66 "/>
<path clip-path="url(#clip661)" d="M674.706 1375.66 L674.706 1375.66 L739.611 1375.66 L739.611 1375.66 L674.706 1375.66 L674.706 1375.66  Z" fill="#0000ff" fill-rule="evenodd" fill-opacity="0.5"/>
<polyline clip-path="url(#clip661)" style="stroke:#0000ff; stroke-linecap:round; stroke-linejoin:round; stroke-width:8; stroke-opacity:0.5; fill:none" points="674.706,1375.66 674.706,1375.66 739.611,1375.66 674.706,1375.66 "/>
<path clip-path="url(#clip661)" d="M739.611 1375.66 L739.611 1375.66 L804.516 1375.66 L804.516 1375.66 L739.611 1375.66 L739.611 1375.66  Z" fill="#0000ff" fill-rule="evenodd" fill-opacity="0.5"/>
<polyline clip-path="url(#clip661)" style="stroke:#0000ff; stroke-linecap:round; stroke-linejoin:round; stroke-width:8; stroke-opacity:0.5; fill:none" points="739.611,1375.66 739.611,1375.66 804.516,1375.66 739.611,1375.66 "/>
<path clip-path="url(#clip661)" d="M804.516 1375.66 L804.516 1375.66 L869.42 1375.66 L869.42 1375.66 L804.516 1375.66 L804.516 1375.66  Z" fill="#0000ff" fill-rule="evenodd" fill-opacity="0.5"/>
<polyline clip-path="url(#clip661)" style="stroke:#0000ff; stroke-linecap:round; stroke-linejoin:round; stroke-width:8; stroke-opacity:0.5; fill:none" points="804.516,1375.66 804.516,1375.66 869.42,1375.66 804.516,1375.66 "/>
<path clip-path="url(#clip661)" d="M869.42 1375.66 L869.42 1375.66 L934.325 1375.66 L934.325 1375.66 L869.42 1375.66 L869.42 1375.66  Z" fill="#0000ff" fill-rule="evenodd" fill-opacity="0.5"/>
<polyline clip-path="url(#clip661)" style="stroke:#0000ff; stroke-linecap:round; stroke-linejoin:round; stroke-width:8; stroke-opacity:0.5; fill:none" points="869.42,1375.66 869.42,1375.66 934.325,1375.66 869.42,1375.66 "/>
<path clip-path="url(#clip661)" d="M934.325 1273.47 L934.325 1375.66 L999.23 1375.66 L999.23 1273.47 L934.325 1273.47 L934.325 1273.47  Z" fill="#0000ff" fill-rule="evenodd" fill-opacity="0.5"/>
<polyline clip-path="url(#clip661)" style="stroke:#0000ff; stroke-linecap:round; stroke-linejoin:round; stroke-width:8; stroke-opacity:0.5; fill:none" points="934.325,1273.47 934.325,1375.66 999.23,1375.66 999.23,1273.47 934.325,1273.47 "/>
<path clip-path="url(#clip661)" d="M999.23 1375.66 L999.23 1375.66 L1064.13 1375.66 L1064.13 1375.66 L999.23 1375.66 L999.23 1375.66  Z" fill="#0000ff" fill-rule="evenodd" fill-opacity="0.5"/>
<polyline clip-path="url(#clip661)" style="stroke:#0000ff; stroke-linecap:round; stroke-linejoin:round; stroke-width:8; stroke-opacity:0.5; fill:none" points="999.23,1375.66 999.23,1375.66 1064.13,1375.66 999.23,1375.66 "/>
<path clip-path="url(#clip661)" d="M1064.13 1375.66 L1064.13 1375.66 L1129.04 1375.66 L1129.04 1375.66 L1064.13 1375.66 L1064.13 1375.66  Z" fill="#0000ff" fill-rule="evenodd" fill-opacity="0.5"/>
<polyline clip-path="url(#clip661)" style="stroke:#0000ff; stroke-linecap:round; stroke-linejoin:round; stroke-width:8; stroke-opacity:0.5; fill:none" points="1064.13,1375.66 1064.13,1375.66 1129.04,1375.66 1064.13,1375.66 "/>
<path clip-path="url(#clip661)" d="M1129.04 1273.47 L1129.04 1375.66 L1193.94 1375.66 L1193.94 1273.47 L1129.04 1273.47 L1129.04 1273.47  Z" fill="#0000ff" fill-rule="evenodd" fill-opacity="0.5"/>
<polyline clip-path="url(#clip661)" style="stroke:#0000ff; stroke-linecap:round; stroke-linejoin:round; stroke-width:8; stroke-opacity:0.5; fill:none" points="1129.04,1273.47 1129.04,1375.66 1193.94,1375.66 1193.94,1273.47 1129.04,1273.47 "/>
<path clip-path="url(#clip661)" d="M1193.94 1273.47 L1193.94 1375.66 L1258.85 1375.66 L1258.85 1273.47 L1193.94 1273.47 L1193.94 1273.47  Z" fill="#0000ff" fill-rule="evenodd" fill-opacity="0.5"/>
<polyline clip-path="url(#clip661)" style="stroke:#0000ff; stroke-linecap:round; stroke-linejoin:round; stroke-width:8; stroke-opacity:0.5; fill:none" points="1193.94,1273.47 1193.94,1375.66 1258.85,1375.66 1258.85,1273.47 1193.94,1273.47 "/>
<path clip-path="url(#clip661)" d="M1258.85 966.917 L1258.85 1375.66 L1323.75 1375.66 L1323.75 966.917 L1258.85 966.917 L1258.85 966.917  Z" fill="#0000ff" fill-rule="evenodd" fill-opacity="0.5"/>
<polyline clip-path="url(#clip661)" style="stroke:#0000ff; stroke-linecap:round; stroke-linejoin:round; stroke-width:8; stroke-opacity:0.5; fill:none" points="1258.85,966.917 1258.85,1375.66 1323.75,1375.66 1323.75,966.917 1258.85,966.917 "/>
<path clip-path="url(#clip661)" d="M1323.75 1069.1 L1323.75 1375.66 L1388.66 1375.66 L1388.66 1069.1 L1323.75 1069.1 L1323.75 1069.1  Z" fill="#0000ff" fill-rule="evenodd" fill-opacity="0.5"/>
<polyline clip-path="url(#clip661)" style="stroke:#0000ff; stroke-linecap:round; stroke-linejoin:round; stroke-width:8; stroke-opacity:0.5; fill:none" points="1323.75,1069.1 1323.75,1375.66 1388.66,1375.66 1388.66,1069.1 1323.75,1069.1 "/>
<path clip-path="url(#clip661)" d="M1388.66 762.545 L1388.66 1375.66 L1453.56 1375.66 L1453.56 762.545 L1388.66 762.545 L1388.66 762.545  Z" fill="#0000ff" fill-rule="evenodd" fill-opacity="0.5"/>
<polyline clip-path="url(#clip661)" style="stroke:#0000ff; stroke-linecap:round; stroke-linejoin:round; stroke-width:8; stroke-opacity:0.5; fill:none" points="1388.66,762.545 1388.66,1375.66 1453.56,1375.66 1453.56,762.545 1388.66,762.545 "/>
<path clip-path="url(#clip661)" d="M1453.56 558.173 L1453.56 1375.66 L1518.47 1375.66 L1518.47 558.173 L1453.56 558.173 L1453.56 558.173  Z" fill="#0000ff" fill-rule="evenodd" fill-opacity="0.5"/>
<polyline clip-path="url(#clip661)" style="stroke:#0000ff; stroke-linecap:round; stroke-linejoin:round; stroke-width:8; stroke-opacity:0.5; fill:none" points="1453.56,558.173 1453.56,1375.66 1518.47,1375.66 1518.47,558.173 1453.56,558.173 "/>
<path clip-path="url(#clip661)" d="M1518.47 660.359 L1518.47 1375.66 L1583.37 1375.66 L1583.37 660.359 L1518.47 660.359 L1518.47 660.359  Z" fill="#0000ff" fill-rule="evenodd" fill-opacity="0.5"/>
<polyline clip-path="url(#clip661)" style="stroke:#0000ff; stroke-linecap:round; stroke-linejoin:round; stroke-width:8; stroke-opacity:0.5; fill:none" points="1518.47,660.359 1518.47,1375.66 1583.37,1375.66 1583.37,660.359 1518.47,660.359 "/>
<path clip-path="url(#clip661)" d="M1583.37 762.545 L1583.37 1375.66 L1648.28 1375.66 L1648.28 762.545 L1583.37 762.545 L1583.37 762.545  Z" fill="#0000ff" fill-rule="evenodd" fill-opacity="0.5"/>
<polyline clip-path="url(#clip661)" style="stroke:#0000ff; stroke-linecap:round; stroke-linejoin:round; stroke-width:8; stroke-opacity:0.5; fill:none" points="1583.37,762.545 1583.37,1375.66 1648.28,1375.66 1648.28,762.545 1583.37,762.545 "/>
<path clip-path="url(#clip661)" d="M1648.28 966.917 L1648.28 1375.66 L1713.18 1375.66 L1713.18 966.917 L1648.28 966.917 L1648.28 966.917  Z" fill="#0000ff" fill-rule="evenodd" fill-opacity="0.5"/>
<polyline clip-path="url(#clip661)" style="stroke:#0000ff; stroke-linecap:round; stroke-linejoin:round; stroke-width:8; stroke-opacity:0.5; fill:none" points="1648.28,966.917 1648.28,1375.66 1713.18,1375.66 1713.18,966.917 1648.28,966.917 "/>
<path clip-path="url(#clip661)" d="M1713.18 864.731 L1713.18 1375.66 L1778.09 1375.66 L1778.09 864.731 L1713.18 864.731 L1713.18 864.731  Z" fill="#0000ff" fill-rule="evenodd" fill-opacity="0.5"/>
<polyline clip-path="url(#clip661)" style="stroke:#0000ff; stroke-linecap:round; stroke-linejoin:round; stroke-width:8; stroke-opacity:0.5; fill:none" points="1713.18,864.731 1713.18,1375.66 1778.09,1375.66 1778.09,864.731 1713.18,864.731 "/>
<path clip-path="url(#clip661)" d="M1778.09 1171.29 L1778.09 1375.66 L1842.99 1375.66 L1842.99 1171.29 L1778.09 1171.29 L1778.09 1171.29  Z" fill="#0000ff" fill-rule="evenodd" fill-opacity="0.5"/>
<polyline clip-path="url(#clip661)" style="stroke:#0000ff; stroke-linecap:round; stroke-linejoin:round; stroke-width:8; stroke-opacity:0.5; fill:none" points="1778.09,1171.29 1778.09,1375.66 1842.99,1375.66 1842.99,1171.29 1778.09,1171.29 "/>
<path clip-path="url(#clip661)" d="M1842.99 1273.47 L1842.99 1375.66 L1907.9 1375.66 L1907.9 1273.47 L1842.99 1273.47 L1842.99 1273.47  Z" fill="#0000ff" fill-rule="evenodd" fill-opacity="0.5"/>
<polyline clip-path="url(#clip661)" style="stroke:#0000ff; stroke-linecap:round; stroke-linejoin:round; stroke-width:8; stroke-opacity:0.5; fill:none" points="1842.99,1273.47 1842.99,1375.66 1907.9,1375.66 1907.9,1273.47 1842.99,1273.47 "/>
<path clip-path="url(#clip661)" d="M1907.9 1273.47 L1907.9 1375.66 L1972.8 1375.66 L1972.8 1273.47 L1907.9 1273.47 L1907.9 1273.47  Z" fill="#0000ff" fill-rule="evenodd" fill-opacity="0.5"/>
<polyline clip-path="url(#clip661)" style="stroke:#0000ff; stroke-linecap:round; stroke-linejoin:round; stroke-width:8; stroke-opacity:0.5; fill:none" points="1907.9,1273.47 1907.9,1375.66 1972.8,1375.66 1972.8,1273.47 1907.9,1273.47 "/>
<path clip-path="url(#clip661)" d="M1972.8 1375.66 L1972.8 1375.66 L2037.71 1375.66 L2037.71 1375.66 L1972.8 1375.66 L1972.8 1375.66  Z" fill="#0000ff" fill-rule="evenodd" fill-opacity="0.5"/>
<polyline clip-path="url(#clip661)" style="stroke:#0000ff; stroke-linecap:round; stroke-linejoin:round; stroke-width:8; stroke-opacity:0.5; fill:none" points="1972.8,1375.66 1972.8,1375.66 2037.71,1375.66 1972.8,1375.66 "/>
<path clip-path="url(#clip661)" d="M2037.71 1375.66 L2037.71 1375.66 L2102.61 1375.66 L2102.61 1375.66 L2037.71 1375.66 L2037.71 1375.66  Z" fill="#0000ff" fill-rule="evenodd" fill-opacity="0.5"/>
<polyline clip-path="url(#clip661)" style="stroke:#0000ff; stroke-linecap:round; stroke-linejoin:round; stroke-width:8; stroke-opacity:0.5; fill:none" points="2037.71,1375.66 2037.71,1375.66 2102.61,1375.66 2037.71,1375.66 "/>
<path clip-path="url(#clip661)" d="M2102.61 1375.66 L2102.61 1375.66 L2167.52 1375.66 L2167.52 1375.66 L2102.61 1375.66 L2102.61 1375.66  Z" fill="#0000ff" fill-rule="evenodd" fill-opacity="0.5"/>
<polyline clip-path="url(#clip661)" style="stroke:#0000ff; stroke-linecap:round; stroke-linejoin:round; stroke-width:8; stroke-opacity:0.5; fill:none" points="2102.61,1375.66 2102.61,1375.66 2167.52,1375.66 2102.61,1375.66 "/>
<path clip-path="url(#clip661)" d="M2167.52 1375.66 L2167.52 1375.66 L2232.42 1375.66 L2232.42 1375.66 L2167.52 1375.66 L2167.52 1375.66  Z" fill="#0000ff" fill-rule="evenodd" fill-opacity="0.5"/>
<polyline clip-path="url(#clip661)" style="stroke:#0000ff; stroke-linecap:round; stroke-linejoin:round; stroke-width:8; stroke-opacity:0.5; fill:none" points="2167.52,1375.66 2167.52,1375.66 2232.42,1375.66 2167.52,1375.66 "/>
<circle clip-path="url(#clip661)" style="fill:#0000ff; stroke:none; fill-opacity:0" cx="317.729" cy="1375.66" r="2"/>
<circle clip-path="url(#clip661)" style="fill:#0000ff; stroke:none; fill-opacity:0" cx="382.634" cy="1375.66" r="2"/>
<circle clip-path="url(#clip661)" style="fill:#0000ff; stroke:none; fill-opacity:0" cx="447.539" cy="1375.66" r="2"/>
<circle clip-path="url(#clip661)" style="fill:#0000ff; stroke:none; fill-opacity:0" cx="512.444" cy="1375.66" r="2"/>
<circle clip-path="url(#clip661)" style="fill:#0000ff; stroke:none; fill-opacity:0" cx="577.349" cy="1375.66" r="2"/>
<circle clip-path="url(#clip661)" style="fill:#0000ff; stroke:none; fill-opacity:0" cx="642.253" cy="1375.66" r="2"/>
<circle clip-path="url(#clip661)" style="fill:#0000ff; stroke:none; fill-opacity:0" cx="707.158" cy="1375.66" r="2"/>
<circle clip-path="url(#clip661)" style="fill:#0000ff; stroke:none; fill-opacity:0" cx="772.063" cy="1375.66" r="2"/>
<circle clip-path="url(#clip661)" style="fill:#0000ff; stroke:none; fill-opacity:0" cx="836.968" cy="1375.66" r="2"/>
<circle clip-path="url(#clip661)" style="fill:#0000ff; stroke:none; fill-opacity:0" cx="901.873" cy="1375.66" r="2"/>
<circle clip-path="url(#clip661)" style="fill:#0000ff; stroke:none; fill-opacity:0" cx="966.778" cy="1273.47" r="2"/>
<circle clip-path="url(#clip661)" style="fill:#0000ff; stroke:none; fill-opacity:0" cx="1031.68" cy="1375.66" r="2"/>
<circle clip-path="url(#clip661)" style="fill:#0000ff; stroke:none; fill-opacity:0" cx="1096.59" cy="1375.66" r="2"/>
<circle clip-path="url(#clip661)" style="fill:#0000ff; stroke:none; fill-opacity:0" cx="1161.49" cy="1273.47" r="2"/>
<circle clip-path="url(#clip661)" style="fill:#0000ff; stroke:none; fill-opacity:0" cx="1226.4" cy="1273.47" r="2"/>
<circle clip-path="url(#clip661)" style="fill:#0000ff; stroke:none; fill-opacity:0" cx="1291.3" cy="966.917" r="2"/>
<circle clip-path="url(#clip661)" style="fill:#0000ff; stroke:none; fill-opacity:0" cx="1356.21" cy="1069.1" r="2"/>
<circle clip-path="url(#clip661)" style="fill:#0000ff; stroke:none; fill-opacity:0" cx="1421.11" cy="762.545" r="2"/>
<circle clip-path="url(#clip661)" style="fill:#0000ff; stroke:none; fill-opacity:0" cx="1486.02" cy="558.173" r="2"/>
<circle clip-path="url(#clip661)" style="fill:#0000ff; stroke:none; fill-opacity:0" cx="1550.92" cy="660.359" r="2"/>
<circle clip-path="url(#clip661)" style="fill:#0000ff; stroke:none; fill-opacity:0" cx="1615.83" cy="762.545" r="2"/>
<circle clip-path="url(#clip661)" style="fill:#0000ff; stroke:none; fill-opacity:0" cx="1680.73" cy="966.917" r="2"/>
<circle clip-path="url(#clip661)" style="fill:#0000ff; stroke:none; fill-opacity:0" cx="1745.64" cy="864.731" r="2"/>
<circle clip-path="url(#clip661)" style="fill:#0000ff; stroke:none; fill-opacity:0" cx="1810.54" cy="1171.29" r="2"/>
<circle clip-path="url(#clip661)" style="fill:#0000ff; stroke:none; fill-opacity:0" cx="1875.45" cy="1273.47" r="2"/>
<circle clip-path="url(#clip661)" style="fill:#0000ff; stroke:none; fill-opacity:0" cx="1940.35" cy="1273.47" r="2"/>
<circle clip-path="url(#clip661)" style="fill:#0000ff; stroke:none; fill-opacity:0" cx="2005.26" cy="1375.66" r="2"/>
<circle clip-path="url(#clip661)" style="fill:#0000ff; stroke:none; fill-opacity:0" cx="2070.16" cy="1375.66" r="2"/>
<circle clip-path="url(#clip661)" style="fill:#0000ff; stroke:none; fill-opacity:0" cx="2135.07" cy="1375.66" r="2"/>
<circle clip-path="url(#clip661)" style="fill:#0000ff; stroke:none; fill-opacity:0" cx="2199.97" cy="1375.66" r="2"/>
<path clip-path="url(#clip660)" d="M1297.56 441.445 L2279.83 441.445 L2279.83 91.5246 L1297.56 91.5246  Z" fill="#ffffff" fill-rule="evenodd" fill-opacity="1"/>
<polyline clip-path="url(#clip660)" style="stroke:#000000; stroke-linecap:round; stroke-linejoin:round; stroke-width:4; stroke-opacity:1; fill:none" points="1297.56,441.445 2279.83,441.445 2279.83,91.5246 1297.56,91.5246 1297.56,441.445 "/>
<path clip-path="url(#clip660)" d="M1321.87 254.821 L1467.73 254.821 L1467.73 161.509 L1321.87 161.509 L1321.87 254.821  Z" fill="#008000" fill-rule="evenodd" fill-opacity="0.5"/>
<polyline clip-path="url(#clip660)" style="stroke:#008000; stroke-linecap:round; stroke-linejoin:round; stroke-width:18; stroke-opacity:1; fill:none" points="1321.87,254.821 1467.73,254.821 1467.73,161.509 1321.87,161.509 1321.87,254.821 "/>
<path clip-path="url(#clip660)" d="M1538.18 190.951 L1538.18 199.909 Q1534.12 197.67 1530 196.576 Q1525.94 195.43 1521.77 195.43 Q1512.45 195.43 1507.29 201.368 Q1502.14 207.253 1502.14 217.93 Q1502.14 228.607 1507.29 234.545 Q1512.45 240.43 1521.77 240.43 Q1525.94 240.43 1530 239.336 Q1534.12 238.191 1538.18 235.951 L1538.18 244.805 Q1534.17 246.68 1529.85 247.618 Q1525.58 248.555 1520.73 248.555 Q1507.56 248.555 1499.79 240.274 Q1492.03 231.993 1492.03 217.93 Q1492.03 203.659 1499.85 195.482 Q1507.71 187.305 1521.36 187.305 Q1525.78 187.305 1530 188.243 Q1534.22 189.128 1538.18 190.951 Z" fill="#000000" fill-rule="nonzero" fill-opacity="1" /><path clip-path="url(#clip660)" d="M1554.85 166.003 L1564.43 166.003 L1564.43 247.045 L1554.85 247.045 L1554.85 166.003 Z" fill="#000000" fill-rule="nonzero" fill-opacity="1" /><path clip-path="url(#clip660)" d="M1610.99 217.722 Q1599.38 217.722 1594.9 220.378 Q1590.42 223.034 1590.42 229.441 Q1590.42 234.545 1593.75 237.566 Q1597.14 240.534 1602.92 240.534 Q1610.89 240.534 1615.68 234.909 Q1620.52 229.232 1620.52 219.857 L1620.52 217.722 L1610.99 217.722 M1630.11 213.764 L1630.11 247.045 L1620.52 247.045 L1620.52 238.191 Q1617.24 243.503 1612.35 246.055 Q1607.45 248.555 1600.37 248.555 Q1591.41 248.555 1586.1 243.555 Q1580.84 238.503 1580.84 230.066 Q1580.84 220.222 1587.4 215.222 Q1594.01 210.222 1607.09 210.222 L1620.52 210.222 L1620.52 209.284 Q1620.52 202.67 1616.15 199.076 Q1611.83 195.43 1603.96 195.43 Q1598.96 195.43 1594.22 196.628 Q1589.48 197.826 1585.11 200.222 L1585.11 191.368 Q1590.37 189.337 1595.31 188.347 Q1600.26 187.305 1604.95 187.305 Q1617.61 187.305 1623.86 193.868 Q1630.11 200.43 1630.11 213.764 Z" fill="#000000" fill-rule="nonzero" fill-opacity="1" /><path clip-path="url(#clip660)" d="M1687.03 190.43 L1687.03 199.493 Q1682.97 197.409 1678.6 196.368 Q1674.22 195.326 1669.53 195.326 Q1662.4 195.326 1658.8 197.514 Q1655.26 199.701 1655.26 204.076 Q1655.26 207.409 1657.81 209.336 Q1660.37 211.211 1668.08 212.93 L1671.36 213.659 Q1681.56 215.847 1685.84 219.857 Q1690.16 223.816 1690.16 230.951 Q1690.16 239.076 1683.7 243.815 Q1677.29 248.555 1666.04 248.555 Q1661.36 248.555 1656.25 247.618 Q1651.2 246.732 1645.58 244.909 L1645.58 235.013 Q1650.89 237.774 1656.04 239.18 Q1661.2 240.534 1666.25 240.534 Q1673.02 240.534 1676.67 238.243 Q1680.31 235.899 1680.31 231.68 Q1680.31 227.774 1677.66 225.691 Q1675.05 223.607 1666.15 221.68 L1662.81 220.899 Q1653.91 219.024 1649.95 215.17 Q1645.99 211.264 1645.99 204.493 Q1645.99 196.264 1651.83 191.784 Q1657.66 187.305 1668.39 187.305 Q1673.7 187.305 1678.39 188.087 Q1683.07 188.868 1687.03 190.43 Z" fill="#000000" fill-rule="nonzero" fill-opacity="1" /><path clip-path="url(#clip660)" d="M1742.61 190.43 L1742.61 199.493 Q1738.54 197.409 1734.17 196.368 Q1729.79 195.326 1725.11 195.326 Q1717.97 195.326 1714.38 197.514 Q1710.84 199.701 1710.84 204.076 Q1710.84 207.409 1713.39 209.336 Q1715.94 211.211 1723.65 212.93 L1726.93 213.659 Q1737.14 215.847 1741.41 219.857 Q1745.73 223.816 1745.73 230.951 Q1745.73 239.076 1739.27 243.815 Q1732.87 248.555 1721.62 248.555 Q1716.93 248.555 1711.82 247.618 Q1706.77 246.732 1701.15 244.909 L1701.15 235.013 Q1706.46 237.774 1711.62 239.18 Q1716.77 240.534 1721.82 240.534 Q1728.6 240.534 1732.24 238.243 Q1735.89 235.899 1735.89 231.68 Q1735.89 227.774 1733.23 225.691 Q1730.63 223.607 1721.72 221.68 L1718.39 220.899 Q1709.48 219.024 1705.52 215.17 Q1701.56 211.264 1701.56 204.493 Q1701.56 196.264 1707.4 191.784 Q1713.23 187.305 1723.96 187.305 Q1729.27 187.305 1733.96 188.087 Q1738.65 188.868 1742.61 190.43 Z" fill="#000000" fill-rule="nonzero" fill-opacity="1" /><path clip-path="url(#clip660)" d="M1818.75 176.212 Q1810.63 176.212 1806.51 184.232 Q1802.45 192.201 1802.45 208.243 Q1802.45 224.232 1806.51 232.253 Q1810.63 240.222 1818.75 240.222 Q1826.93 240.222 1830.99 232.253 Q1835.11 224.232 1835.11 208.243 Q1835.11 192.201 1830.99 184.232 Q1826.93 176.212 1818.75 176.212 M1818.75 167.878 Q1831.82 167.878 1838.7 178.243 Q1845.63 188.555 1845.63 208.243 Q1845.63 227.878 1838.7 238.243 Q1831.82 248.555 1818.75 248.555 Q1805.68 248.555 1798.75 238.243 Q1791.88 227.878 1791.88 208.243 Q1791.88 188.555 1798.75 178.243 Q1805.68 167.878 1818.75 167.878 Z" fill="#000000" fill-rule="nonzero" fill-opacity="1" /><path clip-path="url(#clip660)" d="M1865.21 233.816 L1876.2 233.816 L1876.2 247.045 L1865.21 247.045 L1865.21 233.816 M1865.21 191.889 L1876.2 191.889 L1876.2 205.118 L1865.21 205.118 L1865.21 191.889 Z" fill="#000000" fill-rule="nonzero" fill-opacity="1" /><path clip-path="url(#clip660)" d="M1934.27 245.43 L1934.27 235.847 Q1938.23 237.722 1942.29 238.711 Q1946.35 239.701 1950.26 239.701 Q1960.68 239.701 1966.15 232.722 Q1971.67 225.691 1972.45 211.42 Q1969.43 215.899 1964.79 218.295 Q1960.16 220.691 1954.53 220.691 Q1942.87 220.691 1936.04 213.659 Q1929.27 206.576 1929.27 194.337 Q1929.27 182.357 1936.35 175.118 Q1943.44 167.878 1955.21 167.878 Q1968.7 167.878 1975.78 178.243 Q1982.92 188.555 1982.92 208.243 Q1982.92 226.628 1974.17 237.618 Q1965.47 248.555 1950.73 248.555 Q1946.77 248.555 1942.71 247.774 Q1938.65 246.993 1934.27 245.43 M1955.21 212.461 Q1962.29 212.461 1966.41 207.618 Q1970.57 202.774 1970.57 194.337 Q1970.57 185.951 1966.41 181.107 Q1962.29 176.212 1955.21 176.212 Q1948.13 176.212 1943.96 181.107 Q1939.84 185.951 1939.84 194.337 Q1939.84 202.774 1943.96 207.618 Q1948.13 212.461 1955.21 212.461 Z" fill="#000000" fill-rule="nonzero" fill-opacity="1" /><path clip-path="url(#clip660)" d="M2001.93 169.285 L2043.23 169.285 L2043.23 178.139 L2011.56 178.139 L2011.56 197.201 Q2013.85 196.42 2016.15 196.055 Q2018.44 195.639 2020.73 195.639 Q2033.75 195.639 2041.35 202.774 Q2048.96 209.909 2048.96 222.097 Q2048.96 234.649 2041.15 241.628 Q2033.33 248.555 2019.11 248.555 Q2014.22 248.555 2009.11 247.722 Q2004.06 246.888 1998.65 245.222 L1998.65 234.649 Q2003.33 237.201 2008.33 238.451 Q2013.33 239.701 2018.91 239.701 Q2027.92 239.701 2033.18 234.961 Q2038.44 230.222 2038.44 222.097 Q2038.44 213.972 2033.18 209.232 Q2027.92 204.493 2018.91 204.493 Q2014.69 204.493 2010.47 205.43 Q2006.3 206.368 2001.93 208.347 L2001.93 169.285 Z" fill="#000000" fill-rule="nonzero" fill-opacity="1" /><path clip-path="url(#clip660)" d="M2069.69 233.816 L2080.68 233.816 L2080.68 247.045 L2069.69 247.045 L2069.69 233.816 Z" fill="#000000" fill-rule="nonzero" fill-opacity="1" /><path clip-path="url(#clip660)" d="M2126.09 176.212 Q2117.97 176.212 2113.85 184.232 Q2109.79 192.201 2109.79 208.243 Q2109.79 224.232 2113.85 232.253 Q2117.97 240.222 2126.09 240.222 Q2134.27 240.222 2138.33 232.253 Q2142.45 224.232 2142.45 208.243 Q2142.45 192.201 2138.33 184.232 Q2134.27 176.212 2126.09 176.212 M2126.09 167.878 Q2139.17 167.878 2146.04 178.243 Q2152.97 188.555 2152.97 208.243 Q2152.97 227.878 2146.04 238.243 Q2139.17 248.555 2126.09 248.555 Q2113.02 248.555 2106.09 238.243 Q2099.22 227.878 2099.22 208.243 Q2099.22 188.555 2106.09 178.243 Q2113.02 167.878 2126.09 167.878 Z" fill="#000000" fill-rule="nonzero" fill-opacity="1" /><path clip-path="url(#clip660)" d="M2237.6 212.826 Q2233.07 212.826 2230.47 216.68 Q2227.92 220.534 2227.92 227.409 Q2227.92 234.18 2230.47 238.086 Q2233.07 241.94 2237.6 241.94 Q2242.03 241.94 2244.58 238.086 Q2247.19 234.18 2247.19 227.409 Q2247.19 220.586 2244.58 216.732 Q2242.03 212.826 2237.6 212.826 M2237.6 206.212 Q2245.83 206.212 2250.68 211.941 Q2255.52 217.67 2255.52 227.409 Q2255.52 237.149 2250.62 242.878 Q2245.78 248.555 2237.6 248.555 Q2229.27 248.555 2224.43 242.878 Q2219.58 237.149 2219.58 227.409 Q2219.58 217.618 2224.43 211.941 Q2229.32 206.212 2237.6 206.212 M2183.85 174.493 Q2179.37 174.493 2176.77 178.399 Q2174.22 182.253 2174.22 189.024 Q2174.22 195.899 2176.77 199.753 Q2179.32 203.607 2183.85 203.607 Q2188.38 203.607 2190.94 199.753 Q2193.54 195.899 2193.54 189.024 Q2193.54 182.305 2190.94 178.399 Q2188.33 174.493 2183.85 174.493 M2230.88 167.878 L2239.22 167.878 L2190.57 248.555 L2182.24 248.555 L2230.88 167.878 M2183.85 167.878 Q2192.08 167.878 2196.98 173.608 Q2201.87 179.285 2201.87 189.024 Q2201.87 198.868 2196.98 204.545 Q2192.13 210.222 2183.85 210.222 Q2175.57 210.222 2170.73 204.545 Q2165.94 198.816 2165.94 189.024 Q2165.94 179.337 2170.78 173.608 Q2175.62 167.878 2183.85 167.878 Z" fill="#000000" fill-rule="nonzero" fill-opacity="1" /><path clip-path="url(#clip660)" d="M1321.87 371.461 L1467.73 371.461 L1467.73 278.149 L1321.87 278.149 L1321.87 371.461  Z" fill="#0000ff" fill-rule="evenodd" fill-opacity="0.5"/>
<polyline clip-path="url(#clip660)" style="stroke:#0000ff; stroke-linecap:round; stroke-linejoin:round; stroke-width:18; stroke-opacity:1; fill:none" points="1321.87,371.461 1467.73,371.461 1467.73,278.149 1321.87,278.149 1321.87,371.461 "/>
<path clip-path="url(#clip660)" d="M1538.18 307.591 L1538.18 316.549 Q1534.12 314.31 1530 313.216 Q1525.94 312.07 1521.77 312.07 Q1512.45 312.07 1507.29 318.008 Q1502.14 323.893 1502.14 334.57 Q1502.14 345.247 1507.29 351.185 Q1512.45 357.07 1521.77 357.07 Q1525.94 357.07 1530 355.976 Q1534.12 354.831 1538.18 352.591 L1538.18 361.445 Q1534.17 363.32 1529.85 364.258 Q1525.58 365.195 1520.73 365.195 Q1507.56 365.195 1499.79 356.914 Q1492.03 348.633 1492.03 334.57 Q1492.03 320.299 1499.85 312.122 Q1507.71 303.945 1521.36 303.945 Q1525.78 303.945 1530 304.883 Q1534.22 305.768 1538.18 307.591 Z" fill="#000000" fill-rule="nonzero" fill-opacity="1" /><path clip-path="url(#clip660)" d="M1554.85 282.643 L1564.43 282.643 L1564.43 363.685 L1554.85 363.685 L1554.85 282.643 Z" fill="#000000" fill-rule="nonzero" fill-opacity="1" /><path clip-path="url(#clip660)" d="M1610.99 334.362 Q1599.38 334.362 1594.9 337.018 Q1590.42 339.674 1590.42 346.081 Q1590.42 351.185 1593.75 354.206 Q1597.14 357.174 1602.92 357.174 Q1610.89 357.174 1615.68 351.549 Q1620.52 345.872 1620.52 336.497 L1620.52 334.362 L1610.99 334.362 M1630.11 330.404 L1630.11 363.685 L1620.52 363.685 L1620.52 354.831 Q1617.24 360.143 1612.35 362.695 Q1607.45 365.195 1600.37 365.195 Q1591.41 365.195 1586.1 360.195 Q1580.84 355.143 1580.84 346.706 Q1580.84 336.862 1587.4 331.862 Q1594.01 326.862 1607.09 326.862 L1620.52 326.862 L1620.52 325.924 Q1620.52 319.31 1616.15 315.716 Q1611.83 312.07 1603.96 312.07 Q1598.96 312.07 1594.22 313.268 Q1589.48 314.466 1585.11 316.862 L1585.11 308.008 Q1590.37 305.977 1595.31 304.987 Q1600.26 303.945 1604.95 303.945 Q1617.61 303.945 1623.86 310.508 Q1630.11 317.07 1630.11 330.404 Z" fill="#000000" fill-rule="nonzero" fill-opacity="1" /><path clip-path="url(#clip660)" d="M1687.03 307.07 L1687.03 316.133 Q1682.97 314.049 1678.6 313.008 Q1674.22 311.966 1669.53 311.966 Q1662.4 311.966 1658.8 314.154 Q1655.26 316.341 1655.26 320.716 Q1655.26 324.049 1657.81 325.976 Q1660.37 327.851 1668.08 329.57 L1671.36 330.299 Q1681.56 332.487 1685.84 336.497 Q1690.16 340.456 1690.16 347.591 Q1690.16 355.716 1683.7 360.455 Q1677.29 365.195 1666.04 365.195 Q1661.36 365.195 1656.25 364.258 Q1651.2 363.372 1645.58 361.549 L1645.58 351.653 Q1650.89 354.414 1656.04 355.82 Q1661.2 357.174 1666.25 357.174 Q1673.02 357.174 1676.67 354.883 Q1680.31 352.539 1680.31 348.32 Q1680.31 344.414 1677.66 342.331 Q1675.05 340.247 1666.15 338.32 L1662.81 337.539 Q1653.91 335.664 1649.95 331.81 Q1645.99 327.904 1645.99 321.133 Q1645.99 312.904 1651.83 308.424 Q1657.66 303.945 1668.39 303.945 Q1673.7 303.945 1678.39 304.727 Q1683.07 305.508 1687.03 307.07 Z" fill="#000000" fill-rule="nonzero" fill-opacity="1" /><path clip-path="url(#clip660)" d="M1742.61 307.07 L1742.61 316.133 Q1738.54 314.049 1734.17 313.008 Q1729.79 311.966 1725.11 311.966 Q1717.97 311.966 1714.38 314.154 Q1710.84 316.341 1710.84 320.716 Q1710.84 324.049 1713.39 325.976 Q1715.94 327.851 1723.65 329.57 L1726.93 330.299 Q1737.14 332.487 1741.41 336.497 Q1745.73 340.456 1745.73 347.591 Q1745.73 355.716 1739.27 360.455 Q1732.87 365.195 1721.62 365.195 Q1716.93 365.195 1711.82 364.258 Q1706.77 363.372 1701.15 361.549 L1701.15 351.653 Q1706.46 354.414 1711.62 355.82 Q1716.77 357.174 1721.82 357.174 Q1728.6 357.174 1732.24 354.883 Q1735.89 352.539 1735.89 348.32 Q1735.89 344.414 1733.23 342.331 Q1730.63 340.247 1721.72 338.32 L1718.39 337.539 Q1709.48 335.664 1705.52 331.81 Q1701.56 327.904 1701.56 321.133 Q1701.56 312.904 1707.4 308.424 Q1713.23 303.945 1723.96 303.945 Q1729.27 303.945 1733.96 304.727 Q1738.65 305.508 1742.61 307.07 Z" fill="#000000" fill-rule="nonzero" fill-opacity="1" /><path clip-path="url(#clip660)" d="M1798.07 354.831 L1815.26 354.831 L1815.26 295.508 L1796.56 299.258 L1796.56 289.675 L1815.16 285.925 L1825.68 285.925 L1825.68 354.831 L1842.87 354.831 L1842.87 363.685 L1798.07 363.685 L1798.07 354.831 Z" fill="#000000" fill-rule="nonzero" fill-opacity="1" /><path clip-path="url(#clip660)" d="M1865.21 350.456 L1876.2 350.456 L1876.2 363.685 L1865.21 363.685 L1865.21 350.456 M1865.21 308.529 L1876.2 308.529 L1876.2 321.758 L1865.21 321.758 L1865.21 308.529 Z" fill="#000000" fill-rule="nonzero" fill-opacity="1" /><path clip-path="url(#clip660)" d="M1934.27 362.07 L1934.27 352.487 Q1938.23 354.362 1942.29 355.351 Q1946.35 356.341 1950.26 356.341 Q1960.68 356.341 1966.15 349.362 Q1971.67 342.331 1972.45 328.06 Q1969.43 332.539 1964.79 334.935 Q1960.16 337.331 1954.53 337.331 Q1942.87 337.331 1936.04 330.299 Q1929.27 323.216 1929.27 310.977 Q1929.27 298.997 1936.35 291.758 Q1943.44 284.518 1955.21 284.518 Q1968.7 284.518 1975.78 294.883 Q1982.92 305.195 1982.92 324.883 Q1982.92 343.268 1974.17 354.258 Q1965.47 365.195 1950.73 365.195 Q1946.77 365.195 1942.71 364.414 Q1938.65 363.633 1934.27 362.07 M1955.21 329.101 Q1962.29 329.101 1966.41 324.258 Q1970.57 319.414 1970.57 310.977 Q1970.57 302.591 1966.41 297.747 Q1962.29 292.852 1955.21 292.852 Q1948.13 292.852 1943.96 297.747 Q1939.84 302.591 1939.84 310.977 Q1939.84 319.414 1943.96 324.258 Q1948.13 329.101 1955.21 329.101 Z" fill="#000000" fill-rule="nonzero" fill-opacity="1" /><path clip-path="url(#clip660)" d="M2030.73 295.091 L2004.17 336.601 L2030.73 336.601 L2030.73 295.091 M2027.97 285.925 L2041.2 285.925 L2041.2 336.601 L2052.29 336.601 L2052.29 345.351 L2041.2 345.351 L2041.2 363.685 L2030.73 363.685 L2030.73 345.351 L1995.63 345.351 L1995.63 335.195 L2027.97 285.925 Z" fill="#000000" fill-rule="nonzero" fill-opacity="1" /><path clip-path="url(#clip660)" d="M2069.69 350.456 L2080.68 350.456 L2080.68 363.685 L2069.69 363.685 L2069.69 350.456 Z" fill="#000000" fill-rule="nonzero" fill-opacity="1" /><path clip-path="url(#clip660)" d="M2126.09 292.852 Q2117.97 292.852 2113.85 300.872 Q2109.79 308.841 2109.79 324.883 Q2109.79 340.872 2113.85 348.893 Q2117.97 356.862 2126.09 356.862 Q2134.27 356.862 2138.33 348.893 Q2142.45 340.872 2142.45 324.883 Q2142.45 308.841 2138.33 300.872 Q2134.27 292.852 2126.09 292.852 M2126.09 284.518 Q2139.17 284.518 2146.04 294.883 Q2152.97 305.195 2152.97 324.883 Q2152.97 344.518 2146.04 354.883 Q2139.17 365.195 2126.09 365.195 Q2113.02 365.195 2106.09 354.883 Q2099.22 344.518 2099.22 324.883 Q2099.22 305.195 2106.09 294.883 Q2113.02 284.518 2126.09 284.518 Z" fill="#000000" fill-rule="nonzero" fill-opacity="1" /><path clip-path="url(#clip660)" d="M2237.6 329.466 Q2233.07 329.466 2230.47 333.32 Q2227.92 337.174 2227.92 344.049 Q2227.92 350.82 2230.47 354.726 Q2233.07 358.58 2237.6 358.58 Q2242.03 358.58 2244.58 354.726 Q2247.19 350.82 2247.19 344.049 Q2247.19 337.226 2244.58 333.372 Q2242.03 329.466 2237.6 329.466 M2237.6 322.852 Q2245.83 322.852 2250.68 328.581 Q2255.52 334.31 2255.52 344.049 Q2255.52 353.789 2250.62 359.518 Q2245.78 365.195 2237.6 365.195 Q2229.27 365.195 2224.43 359.518 Q2219.58 353.789 2219.58 344.049 Q2219.58 334.258 2224.43 328.581 Q2229.32 322.852 2237.6 322.852 M2183.85 291.133 Q2179.37 291.133 2176.77 295.039 Q2174.22 298.893 2174.22 305.664 Q2174.22 312.539 2176.77 316.393 Q2179.32 320.247 2183.85 320.247 Q2188.38 320.247 2190.94 316.393 Q2193.54 312.539 2193.54 305.664 Q2193.54 298.945 2190.94 295.039 Q2188.33 291.133 2183.85 291.133 M2230.88 284.518 L2239.22 284.518 L2190.57 365.195 L2182.24 365.195 L2230.88 284.518 M2183.85 284.518 Q2192.08 284.518 2196.98 290.248 Q2201.87 295.925 2201.87 305.664 Q2201.87 315.508 2196.98 321.185 Q2192.13 326.862 2183.85 326.862 Q2175.57 326.862 2170.73 321.185 Q2165.94 315.456 2165.94 305.664 Q2165.94 295.977 2170.78 290.248 Q2175.62 284.518 2183.85 284.518 Z" fill="#000000" fill-rule="nonzero" fill-opacity="1" /></svg>
