<?xml version="1.0" encoding="utf-8"?>
<svg xmlns="http://www.w3.org/2000/svg" xmlns:xlink="http://www.w3.org/1999/xlink" width="600" height="400" viewBox="0 0 2400 1600">
<defs>
  <clipPath id="clip630">
    <rect x="0" y="0" width="2400" height="1600"/>
  </clipPath>
</defs>
<path clip-path="url(#clip630)" d="M0 1600 L2400 1600 L2400 0 L0 0  Z" fill="#ffffff" fill-rule="evenodd" fill-opacity="1"/>
<defs>
  <clipPath id="clip631">
    <rect x="285" y="47" width="2069" height="1329"/>
  </clipPath>
</defs>
<path clip-path="url(#clip630)" d="M285.2 1375.66 L2352.76 1375.66 L2352.76 47.2441 L285.2 47.2441  Z" fill="#ffffff" fill-rule="evenodd" fill-opacity="1"/>
<polyline clip-path="url(#clip631)" style="stroke:#000000; stroke-linecap:round; stroke-linejoin:round; stroke-width:2; stroke-opacity:0.1; fill:none" points="285.2,1375.66 285.2,47.2441 "/>
<polyline clip-path="url(#clip631)" style="stroke:#000000; stroke-linecap:round; stroke-linejoin:round; stroke-width:2; stroke-opacity:0.1; fill:none" points="543.644,1375.66 543.644,47.2441 "/>
<polyline clip-path="url(#clip631)" style="stroke:#000000; stroke-linecap:round; stroke-linejoin:round; stroke-width:2; stroke-opacity:0.1; fill:none" points="802.089,1375.66 802.089,47.2441 "/>
<polyline clip-path="url(#clip631)" style="stroke:#000000; stroke-linecap:round; stroke-linejoin:round; stroke-width:2; stroke-opacity:0.1; fill:none" points="1060.53,1375.66 1060.53,47.2441 "/>
<polyline clip-path="url(#clip631)" style="stroke:#000000; stroke-linecap:round; stroke-linejoin:round; stroke-width:2; stroke-opacity:0.1; fill:none" points="1318.98,1375.66 1318.98,47.2441 "/>
<polyline clip-path="url(#clip631)" style="stroke:#000000; stroke-linecap:round; stroke-linejoin:round; stroke-width:2; stroke-opacity:0.1; fill:none" points="1577.42,1375.66 1577.42,47.2441 "/>
<polyline clip-path="url(#clip631)" style="stroke:#000000; stroke-linecap:round; stroke-linejoin:round; stroke-width:2; stroke-opacity:0.1; fill:none" points="1835.87,1375.66 1835.87,47.2441 "/>
<polyline clip-path="url(#clip631)" style="stroke:#000000; stroke-linecap:round; stroke-linejoin:round; stroke-width:2; stroke-opacity:0.1; fill:none" points="2094.31,1375.66 2094.31,47.2441 "/>
<polyline clip-path="url(#clip631)" style="stroke:#000000; stroke-linecap:round; stroke-linejoin:round; stroke-width:2; stroke-opacity:0.1; fill:none" points="2352.76,1375.66 2352.76,47.2441 "/>
<polyline clip-path="url(#clip631)" style="stroke:#000000; stroke-linecap:round; stroke-linejoin:round; stroke-width:2; stroke-opacity:0.1; fill:none" points="285.2,1375.66 2352.76,1375.66 "/>
<polyline clip-path="url(#clip631)" style="stroke:#000000; stroke-linecap:round; stroke-linejoin:round; stroke-width:2; stroke-opacity:0.1; fill:none" points="285.2,1264.96 2352.76,1264.96 "/>
<polyline clip-path="url(#clip631)" style="stroke:#000000; stroke-linecap:round; stroke-linejoin:round; stroke-width:2; stroke-opacity:0.1; fill:none" points="285.2,1154.26 2352.76,1154.26 "/>
<polyline clip-path="url(#clip631)" style="stroke:#000000; stroke-linecap:round; stroke-linejoin:round; stroke-width:2; stroke-opacity:0.1; fill:none" points="285.2,1043.56 2352.76,1043.56 "/>
<polyline clip-path="url(#clip631)" style="stroke:#000000; stroke-linecap:round; stroke-linejoin:round; stroke-width:2; stroke-opacity:0.1; fill:none" points="285.2,932.855 2352.76,932.855 "/>
<polyline clip-path="url(#clip631)" style="stroke:#000000; stroke-linecap:round; stroke-linejoin:round; stroke-width:2; stroke-opacity:0.1; fill:none" points="285.2,822.153 2352.76,822.153 "/>
<polyline clip-path="url(#clip631)" style="stroke:#000000; stroke-linecap:round; stroke-linejoin:round; stroke-width:2; stroke-opacity:0.1; fill:none" points="285.2,711.452 2352.76,711.452 "/>
<polyline clip-path="url(#clip631)" style="stroke:#000000; stroke-linecap:round; stroke-linejoin:round; stroke-width:2; stroke-opacity:0.1; fill:none" points="285.2,600.751 2352.76,600.751 "/>
<polyline clip-path="url(#clip631)" style="stroke:#000000; stroke-linecap:round; stroke-linejoin:round; stroke-width:2; stroke-opacity:0.1; fill:none" points="285.2,490.049 2352.76,490.049 "/>
<polyline clip-path="url(#clip631)" style="stroke:#000000; stroke-linecap:round; stroke-linejoin:round; stroke-width:2; stroke-opacity:0.1; fill:none" points="285.2,379.348 2352.76,379.348 "/>
<polyline clip-path="url(#clip631)" style="stroke:#000000; stroke-linecap:round; stroke-linejoin:round; stroke-width:2; stroke-opacity:0.1; fill:none" points="285.2,268.647 2352.76,268.647 "/>
<polyline clip-path="url(#clip631)" style="stroke:#000000; stroke-linecap:round; stroke-linejoin:round; stroke-width:2; stroke-opacity:0.1; fill:none" points="285.2,157.945 2352.76,157.945 "/>
<polyline clip-path="url(#clip631)" style="stroke:#000000; stroke-linecap:round; stroke-linejoin:round; stroke-width:2; stroke-opacity:0.1; fill:none" points="285.2,47.2441 2352.76,47.2441 "/>
<polyline clip-path="url(#clip630)" style="stroke:#000000; stroke-linecap:round; stroke-linejoin:round; stroke-width:4; stroke-opacity:1; fill:none" points="285.2,1375.66 2352.76,1375.66 "/>
<polyline clip-path="url(#clip630)" style="stroke:#000000; stroke-linecap:round; stroke-linejoin:round; stroke-width:4; stroke-opacity:1; fill:none" points="285.2,1375.66 285.2,1356.76 "/>
<polyline clip-path="url(#clip630)" style="stroke:#000000; stroke-linecap:round; stroke-linejoin:round; stroke-width:4; stroke-opacity:1; fill:none" points="543.644,1375.66 543.644,1356.76 "/>
<polyline clip-path="url(#clip630)" style="stroke:#000000; stroke-linecap:round; stroke-linejoin:round; stroke-width:4; stroke-opacity:1; fill:none" points="802.089,1375.66 802.089,1356.76 "/>
<polyline clip-path="url(#clip630)" style="stroke:#000000; stroke-linecap:round; stroke-linejoin:round; stroke-width:4; stroke-opacity:1; fill:none" points="1060.53,1375.66 1060.53,1356.76 "/>
<polyline clip-path="url(#clip630)" style="stroke:#000000; stroke-linecap:round; stroke-linejoin:round; stroke-width:4; stroke-opacity:1; fill:none" points="1318.98,1375.66 1318.98,1356.76 "/>
<polyline clip-path="url(#clip630)" style="stroke:#000000; stroke-linecap:round; stroke-linejoin:round; stroke-width:4; stroke-opacity:1; fill:none" points="1577.42,1375.66 1577.42,1356.76 "/>
<polyline clip-path="url(#clip630)" style="stroke:#000000; stroke-linecap:round; stroke-linejoin:round; stroke-width:4; stroke-opacity:1; fill:none" points="1835.87,1375.66 1835.87,1356.76 "/>
<polyline clip-path="url(#clip630)" style="stroke:#000000; stroke-linecap:round; stroke-linejoin:round; stroke-width:4; stroke-opacity:1; fill:none" points="2094.31,1375.66 2094.31,1356.76 "/>
<polyline clip-path="url(#clip630)" style="stroke:#000000; stroke-linecap:round; stroke-linejoin:round; stroke-width:4; stroke-opacity:1; fill:none" points="2352.76,1375.66 2352.76,1356.76 "/>
<path clip-path="url(#clip630)" d="M285.2 1412.44 Q279.783 1412.44 277.04 1417.79 Q274.332 1423.1 274.332 1433.79 Q274.332 1444.45 277.04 1449.8 Q279.783 1455.11 285.2 1455.11 Q290.651 1455.11 293.36 1449.8 Q296.103 1444.45 296.103 1433.79 Q296.103 1423.1 293.36 1417.79 Q290.651 1412.44 285.2 1412.44 M285.2 1406.88 Q293.915 1406.88 298.498 1413.79 Q303.117 1420.67 303.117 1433.79 Q303.117 1446.88 298.498 1453.79 Q293.915 1460.67 285.2 1460.67 Q276.485 1460.67 271.867 1453.79 Q267.283 1446.88 267.283 1433.79 Q267.283 1420.67 271.867 1413.79 Q276.485 1406.88 285.2 1406.88 Z" fill="#000000" fill-rule="nonzero" fill-opacity="1" /><path clip-path="url(#clip630)" d="M535.624 1453.76 L560.103 1453.76 L560.103 1459.66 L527.186 1459.66 L527.186 1453.76 Q531.179 1449.63 538.054 1442.68 Q544.964 1435.7 546.735 1433.69 Q550.103 1429.9 551.422 1427.3 Q552.776 1424.66 552.776 1422.13 Q552.776 1417.99 549.86 1415.39 Q546.978 1412.79 542.325 1412.79 Q539.026 1412.79 535.346 1413.93 Q531.7 1415.08 527.533 1417.4 L527.533 1410.32 Q531.769 1408.62 535.45 1407.75 Q539.131 1406.88 542.186 1406.88 Q550.242 1406.88 555.033 1410.91 Q559.825 1414.94 559.825 1421.67 Q559.825 1424.87 558.61 1427.75 Q557.429 1430.6 554.269 1434.49 Q553.401 1435.49 548.749 1440.32 Q544.096 1445.11 535.624 1453.76 Z" fill="#000000" fill-rule="nonzero" fill-opacity="1" /><path clip-path="url(#clip630)" d="M806.603 1413.93 L788.895 1441.6 L806.603 1441.6 L806.603 1413.93 M804.763 1407.82 L813.582 1407.82 L813.582 1441.6 L820.978 1441.6 L820.978 1447.44 L813.582 1447.44 L813.582 1459.66 L806.603 1459.66 L806.603 1447.44 L783.2 1447.44 L783.2 1440.67 L804.763 1407.82 Z" fill="#000000" fill-rule="nonzero" fill-opacity="1" /><path clip-path="url(#clip630)" d="M1061.14 1430.94 Q1056.42 1430.94 1053.64 1434.17 Q1050.9 1437.4 1050.9 1443.03 Q1050.9 1448.62 1053.64 1451.88 Q1056.42 1455.11 1061.14 1455.11 Q1065.86 1455.11 1068.61 1451.88 Q1071.38 1448.62 1071.38 1443.03 Q1071.38 1437.4 1068.61 1434.17 Q1065.86 1430.94 1061.14 1430.94 M1075.06 1408.97 L1075.06 1415.35 Q1072.43 1414.1 1069.72 1413.44 Q1067.04 1412.79 1064.4 1412.79 Q1057.46 1412.79 1053.78 1417.47 Q1050.13 1422.16 1049.61 1431.64 Q1051.66 1428.62 1054.75 1427.02 Q1057.84 1425.39 1061.56 1425.39 Q1069.37 1425.39 1073.88 1430.15 Q1078.43 1434.87 1078.43 1443.03 Q1078.43 1451.01 1073.71 1455.84 Q1068.99 1460.67 1061.14 1460.67 Q1052.15 1460.67 1047.39 1453.79 Q1042.63 1446.88 1042.63 1433.79 Q1042.63 1421.5 1048.47 1414.21 Q1054.3 1406.88 1064.13 1406.88 Q1066.77 1406.88 1069.44 1407.4 Q1072.15 1407.92 1075.06 1408.97 Z" fill="#000000" fill-rule="nonzero" fill-opacity="1" /><path clip-path="url(#clip630)" d="M1318.98 1435.04 Q1313.98 1435.04 1311.1 1437.72 Q1308.25 1440.39 1308.25 1445.08 Q1308.25 1449.76 1311.1 1452.44 Q1313.98 1455.11 1318.98 1455.11 Q1323.98 1455.11 1326.86 1452.44 Q1329.74 1449.73 1329.74 1445.08 Q1329.74 1440.39 1326.86 1437.72 Q1324.01 1435.04 1318.98 1435.04 M1311.96 1432.06 Q1307.45 1430.94 1304.92 1427.85 Q1302.42 1424.76 1302.42 1420.32 Q1302.42 1414.1 1306.83 1410.49 Q1311.27 1406.88 1318.98 1406.88 Q1326.72 1406.88 1331.13 1410.49 Q1335.54 1414.1 1335.54 1420.32 Q1335.54 1424.76 1333.01 1427.85 Q1330.51 1430.94 1326.03 1432.06 Q1331.1 1433.24 1333.91 1436.67 Q1336.76 1440.11 1336.76 1445.08 Q1336.76 1452.61 1332.14 1456.64 Q1327.55 1460.67 1318.98 1460.67 Q1310.4 1460.67 1305.78 1456.64 Q1301.2 1452.61 1301.2 1445.08 Q1301.2 1440.11 1304.05 1436.67 Q1306.89 1433.24 1311.96 1432.06 M1309.39 1420.98 Q1309.39 1425.01 1311.89 1427.26 Q1314.43 1429.52 1318.98 1429.52 Q1323.49 1429.52 1326.03 1427.26 Q1328.6 1425.01 1328.6 1420.98 Q1328.6 1416.95 1326.03 1414.69 Q1323.49 1412.44 1318.98 1412.44 Q1314.43 1412.44 1311.89 1414.69 Q1309.39 1416.95 1309.39 1420.98 Z" fill="#000000" fill-rule="nonzero" fill-opacity="1" /><path clip-path="url(#clip630)" d="M1539.45 1453.76 L1550.91 1453.76 L1550.91 1414.21 L1538.45 1416.71 L1538.45 1410.32 L1550.84 1407.82 L1557.86 1407.82 L1557.86 1453.76 L1569.31 1453.76 L1569.31 1459.66 L1539.45 1459.66 L1539.45 1453.76 Z" fill="#000000" fill-rule="nonzero" fill-opacity="1" /><path clip-path="url(#clip630)" d="M1598.48 1412.44 Q1593.06 1412.44 1590.32 1417.79 Q1587.61 1423.1 1587.61 1433.79 Q1587.61 1444.45 1590.32 1449.8 Q1593.06 1455.11 1598.48 1455.11 Q1603.93 1455.11 1606.64 1449.8 Q1609.38 1444.45 1609.38 1433.79 Q1609.38 1423.1 1606.64 1417.79 Q1603.93 1412.44 1598.48 1412.44 M1598.48 1406.88 Q1607.2 1406.88 1611.78 1413.79 Q1616.4 1420.67 1616.4 1433.79 Q1616.4 1446.88 1611.78 1453.79 Q1607.2 1460.67 1598.48 1460.67 Q1589.77 1460.67 1585.15 1453.79 Q1580.56 1446.88 1580.56 1433.79 Q1580.56 1420.67 1585.15 1413.79 Q1589.77 1406.88 1598.48 1406.88 Z" fill="#000000" fill-rule="nonzero" fill-opacity="1" /><path clip-path="url(#clip630)" d="M1799.1 1453.76 L1810.55 1453.76 L1810.55 1414.21 L1798.09 1416.71 L1798.09 1410.32 L1810.49 1407.82 L1817.5 1407.82 L1817.5 1453.76 L1828.96 1453.76 L1828.96 1459.66 L1799.1 1459.66 L1799.1 1453.76 Z" fill="#000000" fill-rule="nonzero" fill-opacity="1" /><path clip-path="url(#clip630)" d="M1849.17 1453.76 L1873.64 1453.76 L1873.64 1459.66 L1840.73 1459.66 L1840.73 1453.76 Q1844.72 1449.63 1851.6 1442.68 Q1858.51 1435.7 1860.28 1433.69 Q1863.64 1429.9 1864.96 1427.3 Q1866.32 1424.66 1866.32 1422.13 Q1866.32 1417.99 1863.4 1415.39 Q1860.52 1412.79 1855.87 1412.79 Q1852.57 1412.79 1848.89 1413.93 Q1845.24 1415.08 1841.08 1417.4 L1841.08 1410.32 Q1845.31 1408.62 1848.99 1407.75 Q1852.67 1406.88 1855.73 1406.88 Q1863.78 1406.88 1868.58 1410.91 Q1873.37 1414.94 1873.37 1421.67 Q1873.37 1424.87 1872.15 1427.75 Q1870.97 1430.6 1867.81 1434.49 Q1866.94 1435.49 1862.29 1440.32 Q1857.64 1445.11 1849.17 1453.76 Z" fill="#000000" fill-rule="nonzero" fill-opacity="1" /><path clip-path="url(#clip630)" d="M2055.98 1453.76 L2067.44 1453.76 L2067.44 1414.21 L2054.97 1416.71 L2054.97 1410.32 L2067.37 1407.82 L2074.38 1407.82 L2074.38 1453.76 L2085.84 1453.76 L2085.84 1459.66 L2055.98 1459.66 L2055.98 1453.76 Z" fill="#000000" fill-rule="nonzero" fill-opacity="1" /><path clip-path="url(#clip630)" d="M2119.28 1413.93 L2101.57 1441.6 L2119.28 1441.6 L2119.28 1413.93 M2117.44 1407.82 L2126.26 1407.82 L2126.26 1441.6 L2133.65 1441.6 L2133.65 1447.44 L2126.26 1447.44 L2126.26 1459.66 L2119.28 1459.66 L2119.28 1447.44 L2095.87 1447.44 L2095.87 1440.67 L2117.44 1407.82 Z" fill="#000000" fill-rule="nonzero" fill-opacity="1" /><path clip-path="url(#clip630)" d="M2314.67 1453.76 L2326.12 1453.76 L2326.12 1414.21 L2313.66 1416.71 L2313.66 1410.32 L2326.05 1407.82 L2333.07 1407.82 L2333.07 1453.76 L2344.53 1453.76 L2344.53 1459.66 L2314.67 1459.66 L2314.67 1453.76 Z" fill="#000000" fill-rule="nonzero" fill-opacity="1" /><path clip-path="url(#clip630)" d="M2374.56 1430.94 Q2369.84 1430.94 2367.06 1434.17 Q2364.32 1437.4 2364.32 1443.03 Q2364.32 1448.62 2367.06 1451.88 Q2369.84 1455.11 2374.56 1455.11 Q2379.28 1455.11 2382.03 1451.88 Q2384.8 1448.62 2384.8 1443.03 Q2384.8 1437.4 2382.03 1434.17 Q2379.28 1430.94 2374.56 1430.94 M2388.48 1408.97 L2388.48 1415.35 Q2385.85 1414.1 2383.14 1413.44 Q2380.46 1412.79 2377.83 1412.79 Q2370.88 1412.79 2367.2 1417.47 Q2363.55 1422.16 2363.03 1431.64 Q2365.08 1428.62 2368.17 1427.02 Q2371.26 1425.39 2374.98 1425.39 Q2382.79 1425.39 2387.3 1430.15 Q2391.85 1434.87 2391.85 1443.03 Q2391.85 1451.01 2387.13 1455.84 Q2382.41 1460.67 2374.56 1460.67 Q2365.57 1460.67 2360.81 1453.79 Q2356.05 1446.88 2356.05 1433.79 Q2356.05 1421.5 2361.89 1414.21 Q2367.72 1406.88 2377.55 1406.88 Q2380.19 1406.88 2382.86 1407.4 Q2385.57 1407.92 2388.48 1408.97 Z" fill="#000000" fill-rule="nonzero" fill-opacity="1" /><path clip-path="url(#clip630)" d="M1102.52 1504.97 L1113.04 1504.97 L1113.04 1582.73 L1102.52 1582.73 L1102.52 1504.97 Z" fill="#000000" fill-rule="nonzero" fill-opacity="1" /><path clip-path="url(#clip630)" d="M1143.04 1507.84 L1143.04 1524.4 L1162.78 1524.4 L1162.78 1531.85 L1143.04 1531.85 L1143.04 1563.51 Q1143.04 1570.65 1144.97 1572.68 Q1146.95 1574.71 1152.94 1574.71 L1162.78 1574.71 L1162.78 1582.73 L1152.94 1582.73 Q1141.84 1582.73 1137.62 1578.62 Q1133.41 1574.45 1133.41 1563.51 L1133.41 1531.85 L1126.37 1531.85 L1126.37 1524.4 L1133.41 1524.4 L1133.41 1507.84 L1143.04 1507.84 Z" fill="#000000" fill-rule="nonzero" fill-opacity="1" /><path clip-path="url(#clip630)" d="M1225.28 1551.17 L1225.28 1555.86 L1181.22 1555.86 Q1181.84 1565.75 1187.16 1570.96 Q1192.52 1576.12 1202.05 1576.12 Q1207.57 1576.12 1212.73 1574.76 Q1217.94 1573.41 1223.04 1570.7 L1223.04 1579.76 Q1217.88 1581.95 1212.47 1583.1 Q1207.05 1584.24 1201.48 1584.24 Q1187.52 1584.24 1179.34 1576.12 Q1171.22 1567.99 1171.22 1554.14 Q1171.22 1539.82 1178.93 1531.43 Q1186.69 1522.99 1199.81 1522.99 Q1211.58 1522.99 1218.41 1530.6 Q1225.28 1538.15 1225.28 1551.17 M1215.7 1548.36 Q1215.59 1540.49 1211.27 1535.81 Q1207 1531.12 1199.92 1531.12 Q1191.9 1531.12 1187.05 1535.65 Q1182.26 1540.18 1181.53 1548.41 L1215.7 1548.36 Z" fill="#000000" fill-rule="nonzero" fill-opacity="1" /><path clip-path="url(#clip630)" d="M1274.81 1533.36 Q1273.2 1532.42 1271.27 1532 Q1269.39 1531.53 1267.1 1531.53 Q1258.98 1531.53 1254.6 1536.85 Q1250.28 1542.11 1250.28 1552 L1250.28 1582.73 L1240.65 1582.73 L1240.65 1524.4 L1250.28 1524.4 L1250.28 1533.46 Q1253.3 1528.15 1258.14 1525.6 Q1262.99 1522.99 1269.92 1522.99 Q1270.91 1522.99 1272.1 1523.15 Q1273.3 1523.25 1274.76 1523.51 L1274.81 1533.36 Z" fill="#000000" fill-rule="nonzero" fill-opacity="1" /><path clip-path="url(#clip630)" d="M1311.37 1553.41 Q1299.76 1553.41 1295.28 1556.07 Q1290.8 1558.72 1290.8 1565.13 Q1290.8 1570.23 1294.13 1573.25 Q1297.52 1576.22 1303.3 1576.22 Q1311.27 1576.22 1316.06 1570.6 Q1320.9 1564.92 1320.9 1555.54 L1320.9 1553.41 L1311.37 1553.41 M1330.49 1549.45 L1330.49 1582.73 L1320.9 1582.73 L1320.9 1573.88 Q1317.62 1579.19 1312.73 1581.74 Q1307.83 1584.24 1300.75 1584.24 Q1291.79 1584.24 1286.48 1579.24 Q1281.22 1574.19 1281.22 1565.75 Q1281.22 1555.91 1287.78 1550.91 Q1294.39 1545.91 1307.47 1545.91 L1320.9 1545.91 L1320.9 1544.97 Q1320.9 1538.36 1316.53 1534.76 Q1312.21 1531.12 1304.34 1531.12 Q1299.34 1531.12 1294.6 1532.32 Q1289.86 1533.51 1285.49 1535.91 L1285.49 1527.06 Q1290.75 1525.02 1295.7 1524.03 Q1300.64 1522.99 1305.33 1522.99 Q1317.99 1522.99 1324.24 1529.56 Q1330.49 1536.12 1330.49 1549.45 Z" fill="#000000" fill-rule="nonzero" fill-opacity="1" /><path clip-path="url(#clip630)" d="M1359.71 1507.84 L1359.71 1524.4 L1379.45 1524.4 L1379.45 1531.85 L1359.71 1531.85 L1359.71 1563.51 Q1359.71 1570.65 1361.63 1572.68 Q1363.61 1574.71 1369.6 1574.71 L1379.45 1574.71 L1379.45 1582.73 L1369.6 1582.73 Q1358.51 1582.73 1354.29 1578.62 Q1350.07 1574.45 1350.07 1563.51 L1350.07 1531.85 L1343.04 1531.85 L1343.04 1524.4 L1350.07 1524.4 L1350.07 1507.84 L1359.71 1507.84 Z" fill="#000000" fill-rule="nonzero" fill-opacity="1" /><path clip-path="url(#clip630)" d="M1392.05 1524.4 L1401.63 1524.4 L1401.63 1582.73 L1392.05 1582.73 L1392.05 1524.4 M1392.05 1501.69 L1401.63 1501.69 L1401.63 1513.83 L1392.05 1513.83 L1392.05 1501.69 Z" fill="#000000" fill-rule="nonzero" fill-opacity="1" /><path clip-path="url(#clip630)" d="M1444.29 1531.12 Q1436.58 1531.12 1432.1 1537.16 Q1427.62 1543.15 1427.62 1553.62 Q1427.62 1564.09 1432.05 1570.13 Q1436.53 1576.12 1444.29 1576.12 Q1451.95 1576.12 1456.43 1570.08 Q1460.9 1564.03 1460.9 1553.62 Q1460.9 1543.25 1456.43 1537.21 Q1451.95 1531.12 1444.29 1531.12 M1444.29 1522.99 Q1456.79 1522.99 1463.93 1531.12 Q1471.06 1539.24 1471.06 1553.62 Q1471.06 1567.94 1463.93 1576.12 Q1456.79 1584.24 1444.29 1584.24 Q1431.74 1584.24 1424.6 1576.12 Q1417.52 1567.94 1417.52 1553.62 Q1417.52 1539.24 1424.6 1531.12 Q1431.74 1522.99 1444.29 1522.99 Z" fill="#000000" fill-rule="nonzero" fill-opacity="1" /><path clip-path="url(#clip630)" d="M1535.44 1547.52 L1535.44 1582.73 L1525.85 1582.73 L1525.85 1547.84 Q1525.85 1539.55 1522.62 1535.44 Q1519.39 1531.33 1512.94 1531.33 Q1505.17 1531.33 1500.7 1536.27 Q1496.22 1541.22 1496.22 1549.76 L1496.22 1582.73 L1486.58 1582.73 L1486.58 1524.4 L1496.22 1524.4 L1496.22 1533.46 Q1499.65 1528.2 1504.29 1525.6 Q1508.98 1522.99 1515.07 1522.99 Q1525.12 1522.99 1530.28 1529.24 Q1535.44 1535.44 1535.44 1547.52 Z" fill="#000000" fill-rule="nonzero" fill-opacity="1" /><polyline clip-path="url(#clip630)" style="stroke:#000000; stroke-linecap:round; stroke-linejoin:round; stroke-width:4; stroke-opacity:1; fill:none" points="285.2,1375.66 285.2,47.2441 "/>
<polyline clip-path="url(#clip630)" style="stroke:#000000; stroke-linecap:round; stroke-linejoin:round; stroke-width:4; stroke-opacity:1; fill:none" points="285.2,1375.66 304.098,1375.66 "/>
<polyline clip-path="url(#clip630)" style="stroke:#000000; stroke-linecap:round; stroke-linejoin:round; stroke-width:4; stroke-opacity:1; fill:none" points="285.2,1264.96 304.098,1264.96 "/>
<polyline clip-path="url(#clip630)" style="stroke:#000000; stroke-linecap:round; stroke-linejoin:round; stroke-width:4; stroke-opacity:1; fill:none" points="285.2,1154.26 304.098,1154.26 "/>
<polyline clip-path="url(#clip630)" style="stroke:#000000; stroke-linecap:round; stroke-linejoin:round; stroke-width:4; stroke-opacity:1; fill:none" points="285.2,1043.56 304.098,1043.56 "/>
<polyline clip-path="url(#clip630)" style="stroke:#000000; stroke-linecap:round; stroke-linejoin:round; stroke-width:4; stroke-opacity:1; fill:none" points="285.2,932.855 304.098,932.855 "/>
<polyline clip-path="url(#clip630)" style="stroke:#000000; stroke-linecap:round; stroke-linejoin:round; stroke-width:4; stroke-opacity:1; fill:none" points="285.2,822.153 304.098,822.153 "/>
<polyline clip-path="url(#clip630)" style="stroke:#000000; stroke-linecap:round; stroke-linejoin:round; stroke-width:4; stroke-opacity:1; fill:none" points="285.2,711.452 304.098,711.452 "/>
<polyline clip-path="url(#clip630)" style="stroke:#000000; stroke-linecap:round; stroke-linejoin:round; stroke-width:4; stroke-opacity:1; fill:none" points="285.2,600.751 304.098,600.751 "/>
<polyline clip-path="url(#clip630)" style="stroke:#000000; stroke-linecap:round; stroke-linejoin:round; stroke-width:4; stroke-opacity:1; fill:none" points="285.2,490.049 304.098,490.049 "/>
<polyline clip-path="url(#clip630)" style="stroke:#000000; stroke-linecap:round; stroke-linejoin:round; stroke-width:4; stroke-opacity:1; fill:none" points="285.2,379.348 304.098,379.348 "/>
<polyline clip-path="url(#clip630)" style="stroke:#000000; stroke-linecap:round; stroke-linejoin:round; stroke-width:4; stroke-opacity:1; fill:none" points="285.2,268.647 304.098,268.647 "/>
<polyline clip-path="url(#clip630)" style="stroke:#000000; stroke-linecap:round; stroke-linejoin:round; stroke-width:4; stroke-opacity:1; fill:none" points="285.2,157.945 304.098,157.945 "/>
<polyline clip-path="url(#clip630)" style="stroke:#000000; stroke-linecap:round; stroke-linejoin:round; stroke-width:4; stroke-opacity:1; fill:none" points="285.2,47.2441 304.098,47.2441 "/>
<path clip-path="url(#clip630)" d="M156.909 1376.34 L201.422 1376.34 L201.422 1382.24 L156.909 1382.24 L156.909 1376.34 Z" fill="#000000" fill-rule="nonzero" fill-opacity="1" /><path clip-path="url(#clip630)" d="M216.77 1400.5 L216.77 1394.11 Q219.408 1395.36 222.117 1396.02 Q224.825 1396.68 227.429 1396.68 Q234.374 1396.68 238.019 1392.03 Q241.7 1387.34 242.221 1377.83 Q240.207 1380.82 237.117 1382.41 Q234.026 1384.01 230.276 1384.01 Q222.499 1384.01 217.95 1379.32 Q213.436 1374.6 213.436 1366.44 Q213.436 1358.46 218.158 1353.63 Q222.881 1348.8 230.728 1348.8 Q239.721 1348.8 244.443 1355.71 Q249.2 1362.59 249.2 1375.71 Q249.2 1387.97 243.367 1395.3 Q237.568 1402.59 227.742 1402.59 Q225.103 1402.59 222.395 1402.07 Q219.686 1401.55 216.77 1400.5 M230.728 1378.52 Q235.45 1378.52 238.193 1375.3 Q240.971 1372.07 240.971 1366.44 Q240.971 1360.85 238.193 1357.62 Q235.45 1354.36 230.728 1354.36 Q226.006 1354.36 223.228 1357.62 Q220.485 1360.85 220.485 1366.44 Q220.485 1372.07 223.228 1375.3 Q226.006 1378.52 230.728 1378.52 Z" fill="#000000" fill-rule="nonzero" fill-opacity="1" /><path clip-path="url(#clip630)" d="M156.77 1265.64 L201.284 1265.64 L201.284 1271.54 L156.77 1271.54 L156.77 1265.64 Z" fill="#000000" fill-rule="nonzero" fill-opacity="1" /><path clip-path="url(#clip630)" d="M231.422 1266.26 Q226.422 1266.26 223.54 1268.93 Q220.693 1271.61 220.693 1276.3 Q220.693 1280.98 223.54 1283.66 Q226.422 1286.33 231.422 1286.33 Q236.422 1286.33 239.304 1283.66 Q242.186 1280.95 242.186 1276.3 Q242.186 1271.61 239.304 1268.93 Q236.457 1266.26 231.422 1266.26 M224.408 1263.27 Q219.895 1262.16 217.36 1259.07 Q214.86 1255.98 214.86 1251.54 Q214.86 1245.32 219.27 1241.71 Q223.714 1238.1 231.422 1238.1 Q239.165 1238.1 243.575 1241.71 Q247.985 1245.32 247.985 1251.54 Q247.985 1255.98 245.45 1259.07 Q242.95 1262.16 238.471 1263.27 Q243.54 1264.46 246.353 1267.89 Q249.2 1271.33 249.2 1276.3 Q249.2 1283.83 244.582 1287.86 Q239.999 1291.89 231.422 1291.89 Q222.846 1291.89 218.228 1287.86 Q213.645 1283.83 213.645 1276.3 Q213.645 1271.33 216.492 1267.89 Q219.339 1264.46 224.408 1263.27 M221.839 1252.2 Q221.839 1256.23 224.339 1258.48 Q226.874 1260.74 231.422 1260.74 Q235.936 1260.74 238.471 1258.48 Q241.04 1256.23 241.04 1252.2 Q241.04 1248.17 238.471 1245.91 Q235.936 1243.66 231.422 1243.66 Q226.874 1243.66 224.339 1245.91 Q221.839 1248.17 221.839 1252.2 Z" fill="#000000" fill-rule="nonzero" fill-opacity="1" /><path clip-path="url(#clip630)" d="M157.985 1154.93 L202.499 1154.93 L202.499 1160.84 L157.985 1160.84 L157.985 1154.93 Z" fill="#000000" fill-rule="nonzero" fill-opacity="1" /><path clip-path="url(#clip630)" d="M215.867 1128.34 L249.2 1128.34 L249.2 1131.32 L230.381 1180.18 L223.054 1180.18 L240.762 1134.24 L215.867 1134.24 L215.867 1128.34 Z" fill="#000000" fill-rule="nonzero" fill-opacity="1" /><path clip-path="url(#clip630)" d="M156.388 1044.23 L200.902 1044.23 L200.902 1050.14 L156.388 1050.14 L156.388 1044.23 Z" fill="#000000" fill-rule="nonzero" fill-opacity="1" /><path clip-path="url(#clip630)" d="M231.908 1040.76 Q227.186 1040.76 224.408 1043.99 Q221.665 1047.22 221.665 1052.84 Q221.665 1058.43 224.408 1061.7 Q227.186 1064.93 231.908 1064.93 Q236.631 1064.93 239.374 1061.7 Q242.151 1058.43 242.151 1052.84 Q242.151 1047.22 239.374 1043.99 Q236.631 1040.76 231.908 1040.76 M245.832 1018.78 L245.832 1025.17 Q243.193 1023.92 240.485 1023.26 Q237.811 1022.6 235.172 1022.6 Q228.228 1022.6 224.547 1027.29 Q220.901 1031.98 220.381 1041.46 Q222.429 1038.43 225.52 1036.84 Q228.61 1035.21 232.325 1035.21 Q240.137 1035.21 244.651 1039.96 Q249.2 1044.68 249.2 1052.84 Q249.2 1060.83 244.478 1065.66 Q239.756 1070.48 231.908 1070.48 Q222.915 1070.48 218.158 1063.61 Q213.402 1056.7 213.402 1043.61 Q213.402 1031.32 219.235 1024.02 Q225.068 1016.7 234.894 1016.7 Q237.533 1016.7 240.207 1017.22 Q242.915 1017.74 245.832 1018.78 Z" fill="#000000" fill-rule="nonzero" fill-opacity="1" /><path clip-path="url(#clip630)" d="M158.124 933.532 L202.638 933.532 L202.638 939.434 L158.124 939.434 L158.124 933.532 Z" fill="#000000" fill-rule="nonzero" fill-opacity="1" /><path clip-path="url(#clip630)" d="M217.846 906.935 L245.381 906.935 L245.381 912.837 L224.27 912.837 L224.27 925.546 Q225.797 925.025 227.325 924.782 Q228.853 924.504 230.381 924.504 Q239.061 924.504 244.131 929.261 Q249.2 934.018 249.2 942.143 Q249.2 950.511 243.992 955.164 Q238.783 959.782 229.304 959.782 Q226.04 959.782 222.638 959.226 Q219.27 958.67 215.658 957.559 L215.658 950.511 Q218.783 952.212 222.117 953.045 Q225.45 953.879 229.165 953.879 Q235.172 953.879 238.679 950.719 Q242.186 947.559 242.186 942.143 Q242.186 936.726 238.679 933.566 Q235.172 930.407 229.165 930.407 Q226.353 930.407 223.54 931.032 Q220.763 931.657 217.846 932.976 L217.846 906.935 Z" fill="#000000" fill-rule="nonzero" fill-opacity="1" /><path clip-path="url(#clip630)" d="M155.902 822.83 L200.415 822.83 L200.415 828.733 L155.902 828.733 L155.902 822.83 Z" fill="#000000" fill-rule="nonzero" fill-opacity="1" /><path clip-path="url(#clip630)" d="M234.825 802.344 L217.117 830.018 L234.825 830.018 L234.825 802.344 M232.985 796.233 L241.804 796.233 L241.804 830.018 L249.2 830.018 L249.2 835.851 L241.804 835.851 L241.804 848.073 L234.825 848.073 L234.825 835.851 L211.422 835.851 L211.422 829.08 L232.985 796.233 Z" fill="#000000" fill-rule="nonzero" fill-opacity="1" /><path clip-path="url(#clip630)" d="M157.603 712.129 L202.117 712.129 L202.117 718.032 L157.603 718.032 L157.603 712.129 Z" fill="#000000" fill-rule="nonzero" fill-opacity="1" /><path clip-path="url(#clip630)" d="M238.506 709.421 Q243.54 710.497 246.353 713.9 Q249.2 717.303 249.2 722.303 Q249.2 729.976 243.922 734.178 Q238.644 738.379 228.922 738.379 Q225.658 738.379 222.186 737.719 Q218.749 737.094 215.068 735.809 L215.068 729.039 Q217.985 730.74 221.457 731.608 Q224.929 732.476 228.714 732.476 Q235.311 732.476 238.749 729.872 Q242.221 727.268 242.221 722.303 Q242.221 717.719 238.992 715.15 Q235.797 712.546 230.068 712.546 L224.026 712.546 L224.026 706.782 L230.346 706.782 Q235.519 706.782 238.262 704.733 Q241.006 702.65 241.006 698.761 Q241.006 694.768 238.158 692.65 Q235.346 690.497 230.068 690.497 Q227.186 690.497 223.888 691.122 Q220.589 691.747 216.631 693.067 L216.631 686.817 Q220.624 685.706 224.096 685.15 Q227.603 684.594 230.693 684.594 Q238.679 684.594 243.332 688.24 Q247.985 691.851 247.985 698.032 Q247.985 702.337 245.519 705.324 Q243.054 708.275 238.506 709.421 Z" fill="#000000" fill-rule="nonzero" fill-opacity="1" /><path clip-path="url(#clip630)" d="M159.027 601.428 L203.54 601.428 L203.54 607.33 L159.027 607.33 L159.027 601.428 Z" fill="#000000" fill-rule="nonzero" fill-opacity="1" /><path clip-path="url(#clip630)" d="M224.721 620.768 L249.2 620.768 L249.2 626.671 L216.283 626.671 L216.283 620.768 Q220.276 616.636 227.151 609.692 Q234.061 602.712 235.832 600.699 Q239.2 596.914 240.519 594.31 Q241.874 591.671 241.874 589.136 Q241.874 585.004 238.957 582.4 Q236.075 579.796 231.422 579.796 Q228.124 579.796 224.443 580.942 Q220.797 582.088 216.631 584.414 L216.631 577.331 Q220.867 575.629 224.547 574.761 Q228.228 573.893 231.283 573.893 Q239.339 573.893 244.131 577.921 Q248.922 581.949 248.922 588.685 Q248.922 591.879 247.707 594.761 Q246.526 597.608 243.367 601.497 Q242.499 602.504 237.846 607.33 Q233.193 612.122 224.721 620.768 Z" fill="#000000" fill-rule="nonzero" fill-opacity="1" /><path clip-path="url(#clip630)" d="M158.471 490.726 L202.985 490.726 L202.985 496.629 L158.471 496.629 L158.471 490.726 Z" fill="#000000" fill-rule="nonzero" fill-opacity="1" /><path clip-path="url(#clip630)" d="M219.339 510.067 L230.797 510.067 L230.797 470.518 L218.332 473.018 L218.332 466.629 L230.728 464.129 L237.742 464.129 L237.742 510.067 L249.2 510.067 L249.2 515.969 L219.339 515.969 L219.339 510.067 Z" fill="#000000" fill-rule="nonzero" fill-opacity="1" /><path clip-path="url(#clip630)" d="M231.283 358.046 Q225.867 358.046 223.124 363.393 Q220.415 368.706 220.415 379.4 Q220.415 390.06 223.124 395.407 Q225.867 400.719 231.283 400.719 Q236.735 400.719 239.443 395.407 Q242.186 390.06 242.186 379.4 Q242.186 368.706 239.443 363.393 Q236.735 358.046 231.283 358.046 M231.283 352.491 Q239.999 352.491 244.582 359.4 Q249.2 366.275 249.2 379.4 Q249.2 392.49 244.582 399.4 Q239.999 406.275 231.283 406.275 Q222.568 406.275 217.95 399.4 Q213.367 392.49 213.367 379.4 Q213.367 366.275 217.95 359.4 Q222.568 352.491 231.283 352.491 Z" fill="#000000" fill-rule="nonzero" fill-opacity="1" /><path clip-path="url(#clip630)" d="M219.339 288.664 L230.797 288.664 L230.797 249.116 L218.332 251.616 L218.332 245.227 L230.728 242.727 L237.742 242.727 L237.742 288.664 L249.2 288.664 L249.2 294.567 L219.339 294.567 L219.339 288.664 Z" fill="#000000" fill-rule="nonzero" fill-opacity="1" /><path clip-path="url(#clip630)" d="M224.721 177.963 L249.2 177.963 L249.2 183.865 L216.283 183.865 L216.283 177.963 Q220.276 173.831 227.151 166.886 Q234.061 159.907 235.832 157.893 Q239.2 154.109 240.519 151.504 Q241.874 148.866 241.874 146.331 Q241.874 142.199 238.957 139.595 Q236.075 136.991 231.422 136.991 Q228.124 136.991 224.443 138.136 Q220.797 139.282 216.631 141.609 L216.631 134.525 Q220.867 132.824 224.547 131.956 Q228.228 131.088 231.283 131.088 Q239.339 131.088 244.131 135.116 Q248.922 139.143 248.922 145.879 Q248.922 149.074 247.707 151.956 Q246.526 154.803 243.367 158.692 Q242.499 159.699 237.846 164.525 Q233.193 169.317 224.721 177.963 Z" fill="#000000" fill-rule="nonzero" fill-opacity="1" /><path clip-path="url(#clip630)" d="M238.506 45.2129 Q243.54 46.2892 246.353 49.692 Q249.2 53.0948 249.2 58.0947 Q249.2 65.7683 243.922 69.9697 Q238.644 74.171 228.922 74.171 Q225.658 74.171 222.186 73.5113 Q218.749 72.8863 215.068 71.6016 L215.068 64.8308 Q217.985 66.5322 221.457 67.4002 Q224.929 68.2683 228.714 68.2683 Q235.311 68.2683 238.749 65.6641 Q242.221 63.06 242.221 58.0947 Q242.221 53.5114 238.992 50.942 Q235.797 48.3378 230.068 48.3378 L224.026 48.3378 L224.026 42.574 L230.346 42.574 Q235.519 42.574 238.262 40.5254 Q241.006 38.4421 241.006 34.5532 Q241.006 30.5602 238.158 28.4421 Q235.346 26.2893 230.068 26.2893 Q227.186 26.2893 223.888 26.9143 Q220.589 27.5393 216.631 28.8588 L216.631 22.6088 Q220.624 21.4977 224.096 20.9422 Q227.603 20.3866 230.693 20.3866 Q238.679 20.3866 243.332 24.0324 Q247.985 27.6435 247.985 33.824 Q247.985 38.1296 245.519 41.1157 Q243.054 44.067 238.506 45.2129 Z" fill="#000000" fill-rule="nonzero" fill-opacity="1" /><path clip-path="url(#clip630)" d="M79.7054 1107.34 L76.3853 1107.34 Q76.3853 1101.59 75.7002 1100.27 Q74.9624 1098.96 71.4842 1098.96 L15.3581 1098.96 Q11.3529 1098.96 10.3516 1100.38 Q9.35028 1101.75 9.35028 1107.34 L5.97745 1107.34 L4.81804 1091.84 L71.4842 1091.84 Q74.9624 1091.84 75.7002 1090.47 Q76.3853 1089.1 76.3853 1083.41 L79.7054 1083.41 Q79.7054 1084.73 79.6 1087.47 Q79.4946 1090.21 79.4419 1092.21 Q79.3892 1094.21 79.3892 1095.37 Q79.3892 1096.64 79.7054 1107.34 Z" fill="#000000" fill-rule="nonzero" fill-opacity="1" /><path clip-path="url(#clip630)" d="M73.9084 1067.17 Q66.8465 1074.29 56.6226 1074.29 Q46.346 1074.29 38.8626 1067.33 Q31.3264 1060.32 31.3264 1050.31 Q31.3264 1040.51 38.8099 1033.5 Q46.2406 1026.43 56.6226 1026.43 Q66.7938 1026.43 73.8557 1033.55 Q80.9176 1040.61 80.9176 1050.41 Q80.9176 1060 73.9084 1067.17 M55.7267 1065.33 Q66.2141 1065.33 70.9572 1062.59 Q78.1771 1058.37 78.1771 1050.31 Q78.1771 1046.3 76.0164 1042.98 Q73.8557 1039.61 70.2194 1037.77 Q65.4763 1035.39 55.7267 1035.39 Q45.3447 1035.39 40.7598 1038.24 Q33.7506 1042.46 33.7506 1050.41 Q33.7506 1053.89 35.5951 1057.32 Q37.3869 1060.69 40.9706 1062.75 Q45.7136 1065.33 55.7267 1065.33 Z" fill="#000000" fill-rule="nonzero" fill-opacity="1" /><path clip-path="url(#clip630)" d="M88.2429 1024.73 Q84.7647 1024.73 81.7608 1022.09 Q78.7568 1019.41 77.4393 1014.77 Q74.4354 1019.51 67.8478 1019.51 Q62.7886 1019.51 58.8888 1016.19 Q54.6727 1021.25 47.7689 1021.25 Q41.3922 1021.25 36.7018 1016.19 Q32.0115 1011.13 32.0115 1003.75 Q32.0115 997.272 35.9113 992.318 Q30.8521 987.154 30.7994 980.882 Q30.7994 978.089 32.5385 976.772 Q34.2776 975.401 36.1221 975.401 Q37.7559 975.401 38.5464 976.455 Q39.3369 977.457 39.3369 978.511 Q39.3369 979.828 38.4937 980.777 Q37.5977 981.673 36.2275 981.673 Q33.9614 981.673 33.2763 979.934 Q33.1709 980.25 33.1709 980.988 Q33.1709 986.258 37.3869 990.737 Q41.4976 986.31 47.8743 986.31 Q54.2511 986.31 58.9415 991.37 Q63.6318 996.429 63.6318 1003.75 Q63.6318 1009.81 60.259 1014.45 Q62.4197 1016.3 65.3709 1016.3 Q68.0586 1016.3 70.1667 1014.66 Q72.2747 1013.03 72.5909 1010.55 Q72.6963 1009.81 72.6963 1002.49 Q72.6963 998.168 72.8017 995.797 Q72.9071 993.425 73.6449 990.052 Q74.33 986.627 75.7002 983.939 Q79.6 976.93 88.0321 976.877 Q94.1981 976.877 98.0452 983.992 Q101.945 991.054 101.945 1000.86 Q101.945 1010.76 97.9925 1017.77 Q94.0927 1024.73 88.2429 1024.73 M88.2429 1019.09 Q92.6698 1019.09 96.0426 1013.87 Q99.4681 1008.66 99.4681 1000.75 Q99.4681 993.003 96.0953 987.786 Q92.7752 982.516 88.2429 982.516 Q85.0282 982.516 82.9729 984.361 Q80.9176 986.205 80.0744 990 Q79.2838 993.741 79.1257 996.376 Q78.9676 999.011 78.9676 1003.86 L78.9676 1010.24 Q79.1784 1013.93 81.8662 1016.51 Q84.5539 1019.09 88.2429 1019.09 M47.8743 1013.19 Q61.1549 1013.19 61.1549 1003.75 Q61.1549 999.011 56.8334 996.113 Q53.9349 994.374 47.7689 994.374 Q34.4884 994.374 34.4884 1003.75 Q34.4884 1008.5 38.8099 1011.45 Q41.7084 1013.19 47.8743 1013.19 Z" fill="#000000" fill-rule="nonzero" fill-opacity="1" /><path clip-path="url(#clip630)" d="M88.5106 946.931 L86.1496 946.931 Q86.1496 937.856 81.317 933.171 Q81.317 931.88 81.6121 931.659 Q81.9073 931.437 83.2722 931.437 L125.659 931.437 Q127.91 931.437 128.61 930.331 Q129.311 929.224 129.311 924.391 L129.311 921.993 L131.635 921.993 Q131.414 924.649 131.414 934.241 Q131.414 943.832 131.635 946.452 L129.311 946.452 L129.311 944.054 Q129.311 939.295 128.647 938.151 Q127.946 937.008 125.659 937.008 L86.5186 937.008 Q88.5106 940.955 88.5106 946.931 Z" fill="#000000" fill-rule="nonzero" fill-opacity="1" /><path clip-path="url(#clip630)" d="M107.472 918.279 Q96.3683 918.279 90.3183 915.475 Q81.317 911.565 81.317 902.342 Q81.317 900.387 81.8704 898.358 Q82.3868 896.292 84.4158 893.71 Q86.4448 891.09 89.7649 889.504 Q96.1838 886.479 107.472 886.479 Q118.502 886.479 124.516 889.283 Q133.296 893.378 133.296 902.416 Q133.296 905.81 131.562 909.277 Q129.828 912.708 125.659 914.885 Q119.425 918.279 107.472 918.279 M106.55 912.007 Q117.949 912.007 122.487 911.196 Q127.393 910.273 129.533 907.765 Q131.635 905.219 131.635 902.416 Q131.635 899.391 129.385 896.882 Q127.098 894.337 122.192 893.562 Q117.359 892.714 106.55 892.75 Q96.0363 892.75 91.8308 893.488 Q86.9243 894.484 84.9692 897.14 Q82.9771 899.76 82.9771 902.416 Q82.9771 903.412 83.2722 904.482 Q83.5673 905.514 84.4158 907.027 Q85.2643 908.539 87.367 909.72 Q89.4698 910.864 92.6423 911.417 Q96.7372 912.007 106.55 912.007 Z" fill="#000000" fill-rule="nonzero" fill-opacity="1" /><path clip-path="url(#clip630)" d="M52.7228 869.347 Q34.4884 869.347 19.785 862.548 Q13.619 859.65 8.45437 855.592 Q3.28972 851.534 1.0236 848.846 Q-1.24252 846.159 -1.24252 845.421 Q-1.24252 844.367 -0.188509 844.314 Q0.338496 844.314 1.65601 845.737 Q19.3634 863.128 52.7228 863.075 Q86.1876 863.075 103.21 846.159 Q105.054 844.314 105.634 844.314 Q106.688 844.314 106.688 845.421 Q106.688 846.159 104.527 848.741 Q102.367 851.323 97.4128 855.328 Q92.459 859.334 86.3984 862.232 Q71.695 869.347 52.7228 869.347 Z" fill="#000000" fill-rule="nonzero" fill-opacity="1" /><path clip-path="url(#clip630)" d="M103.368 825.746 L2.07761 825.746 Q-1.13712 825.746 -1.13712 823.585 Q-1.13712 821.424 2.23571 821.424 L103.104 821.424 Q106.583 821.424 106.583 823.585 Q106.583 825.746 103.368 825.746 M103.368 813.836 L2.86812 813.836 Q-1.13712 813.836 -1.13712 811.675 Q-1.13712 809.514 2.23571 809.514 L103.104 809.514 Q106.583 809.514 106.583 811.675 Q106.583 813.836 103.368 813.836 Z" fill="#000000" fill-rule="nonzero" fill-opacity="1" /><path clip-path="url(#clip630)" d="M79.7054 711.537 L79.3892 723.394 L79.7054 736.359 L74.6462 736.359 L74.6462 732.143 L60.6279 744 L72.3801 754.488 L73.4341 755.226 Q73.9084 755.226 74.2773 754.013 Q74.6462 752.749 74.6462 751.273 L79.7054 751.273 L79.3892 762.393 L79.7054 772.301 L74.6462 772.301 Q74.6462 768.98 74.5935 767.452 Q74.4881 765.871 74.0138 764.079 Q73.5395 762.287 72.5909 761.392 L56.728 747.268 L36.8599 764.079 L36.8599 771.774 L31.8007 771.774 L32.1169 759.863 L31.8007 746.846 L36.8599 746.846 L36.8599 751.168 L49.2446 740.575 L39.1261 731.51 Q39.0734 731.458 37.8086 730.614 Q36.8599 732.301 36.8599 734.725 L31.8007 734.725 L32.1169 723.605 L31.8007 713.698 L36.8599 713.698 Q36.8599 718.019 37.1761 720.285 Q37.4396 722.499 37.8086 723.184 Q38.1775 723.816 39.1261 724.712 L53.1444 737.307 L74.6462 719.178 L74.6462 711.537 L79.7054 711.537 Z" fill="#000000" fill-rule="nonzero" fill-opacity="1" /><path clip-path="url(#clip630)" d="M82.2307 666.411 Q84.3335 666.411 85.5877 667.702 Q86.842 668.957 86.842 670.543 Q86.842 671.945 86.0304 672.683 Q85.2188 673.42 84.1859 673.42 Q83.7432 673.42 83.1899 673.236 Q82.5996 673.052 81.8987 672.646 Q81.1978 672.203 80.6813 671.281 Q80.1649 670.359 80.0911 669.104 Q79.8329 669.363 79.796 669.436 Q79.3533 669.99 79.2057 671.023 Q79.1319 671.17 79.1319 671.687 Q79.1319 674.232 81.0133 676.814 Q82.8579 679.36 86.3624 682.495 Q90.4573 686.443 91.9698 688.988 Q93.4454 677.81 99.9012 677.81 Q100.971 677.81 102.262 678.106 Q104.697 678.696 106.468 678.696 Q110.009 678.696 110.009 676.298 Q110.009 673.974 107.648 672.498 Q105.287 670.986 100.676 669.731 Q99.8274 669.547 99.5692 669.363 Q99.311 669.178 99.311 668.662 Q99.311 667.739 100.049 667.739 Q104.365 668.588 107.685 670.469 Q111.706 672.867 111.706 676.445 Q111.706 679.434 109.64 681.426 Q107.538 683.381 104.217 683.381 Q103.406 683.381 101.561 683.086 Q100.823 682.864 99.975 682.864 Q98.2411 682.864 96.95 683.824 Q95.6219 684.783 94.9579 686.332 Q94.2939 687.881 93.9987 689.173 Q93.6667 690.427 93.5561 691.644 Q109.161 695.333 110.12 695.85 Q110.784 696.182 111.227 696.92 Q111.706 697.657 111.706 698.432 Q111.706 699.17 111.19 699.908 Q110.71 700.609 109.566 700.609 Q108.976 700.609 107.906 700.314 L64.3758 689.357 L62.9002 689.136 Q62.4575 689.136 62.2362 689.32 Q61.9779 689.468 61.7935 690.353 Q61.609 691.202 61.609 692.899 Q61.609 693.599 61.5721 693.931 Q61.5352 694.227 61.3508 694.485 Q61.1294 694.743 60.6868 694.743 Q60.0596 694.743 59.7276 694.485 Q59.3587 694.19 59.2849 693.968 Q59.2111 693.747 59.1743 693.304 Q59.1374 692.677 58.9529 690.574 Q58.7316 688.472 58.584 686.664 Q58.4364 684.856 58.4364 684.082 Q58.4364 683.639 58.6578 683.418 Q58.8422 683.16 59.0636 683.123 L59.248 683.086 L91.1213 690.943 Q89.8301 687.697 84.1121 682.569 Q77.4719 676.63 77.4719 671.539 Q77.4719 669.141 78.9475 667.776 Q80.3862 666.411 82.2307 666.411 Z" fill="#000000" fill-rule="nonzero" fill-opacity="1" /><path clip-path="url(#clip630)" d="M51.1945 554.032 Q51.8269 553.4 52.7228 553.4 Q53.6187 553.4 54.2511 554.032 Q54.8835 554.665 54.8835 555.561 L54.8835 623.123 Q54.8835 624.018 54.2511 624.651 Q53.6187 625.283 52.7228 625.283 Q51.8269 625.283 51.1945 624.651 Q50.5621 624.018 50.5621 623.123 L50.5621 555.561 Q50.5621 554.665 51.1945 554.032 Z" fill="#000000" fill-rule="nonzero" fill-opacity="1" /><path clip-path="url(#clip630)" d="M79.7054 451.434 L79.3892 463.291 L79.7054 476.256 L74.6462 476.256 L74.6462 472.04 L60.6279 483.897 L72.3801 494.385 L73.4341 495.123 Q73.9084 495.123 74.2773 493.91 Q74.6462 492.646 74.6462 491.17 L79.7054 491.17 L79.3892 502.29 L79.7054 512.197 L74.6462 512.197 Q74.6462 508.877 74.5935 507.349 Q74.4881 505.768 74.0138 503.976 Q73.5395 502.184 72.5909 501.288 L56.728 487.165 L36.8599 503.976 L36.8599 511.67 L31.8007 511.67 L32.1169 499.76 L31.8007 486.743 L36.8599 486.743 L36.8599 491.065 L49.2446 480.472 L39.1261 471.407 Q39.0734 471.355 37.8086 470.511 Q36.8599 472.198 36.8599 474.622 L31.8007 474.622 L32.1169 463.502 L31.8007 453.595 L36.8599 453.595 Q36.8599 457.916 37.1761 460.182 Q37.4396 462.396 37.8086 463.081 Q38.1775 463.713 39.1261 464.609 L53.1444 477.204 L74.6462 459.075 L74.6462 451.434 L79.7054 451.434 Z" fill="#000000" fill-rule="nonzero" fill-opacity="1" /><path clip-path="url(#clip630)" d="M87.8071 440.506 Q86.5159 440.506 85.6675 438.772 L80.6873 428.258 L75.7071 438.919 Q74.9692 440.506 73.6781 440.506 Q72.9403 440.506 72.2763 439.915 Q71.5753 439.288 71.5753 438.477 Q71.5753 437.886 72.3869 436.817 L79.1747 427.446 Q66.7058 428.59 66.3369 428.553 Q65.5991 428.553 65.0457 428 Q64.4555 427.446 64.4555 426.524 Q64.4555 425.786 65.0089 425.196 Q65.5253 424.569 66.3369 424.569 L79.1747 425.676 L72.9772 417.302 Q71.5384 415.346 71.5753 414.645 Q71.5753 413.797 72.2394 413.207 Q72.9034 412.617 73.6781 412.617 Q74.9692 412.617 75.7808 414.35 L80.761 424.864 L85.7781 414.203 Q86.5159 412.617 87.8071 412.617 Q88.5449 412.617 89.2458 413.244 Q89.9098 413.834 89.9098 414.645 Q89.9098 415.088 89.4672 415.863 Q89.3934 416.01 88.2129 417.597 Q87.0324 419.183 85.2248 421.655 Q83.4171 424.089 82.2735 425.676 Q94.7425 424.532 95.1114 424.569 Q95.8492 424.569 96.4394 425.122 Q97.0297 425.676 97.0297 426.598 Q97.0297 427.336 96.5132 427.963 Q95.9599 428.553 95.1114 428.553 L82.2735 427.446 L89.9098 437.997 Q89.9098 439.141 89.3565 439.768 Q88.7662 440.358 88.4342 440.432 Q88.1022 440.506 87.8071 440.506 Z" fill="#000000" fill-rule="nonzero" fill-opacity="1" /><path clip-path="url(#clip630)" d="M103.368 391.574 L2.07761 391.574 Q-1.13712 391.574 -1.13712 389.413 Q-1.13712 387.252 2.23571 387.252 L103.104 387.252 Q106.583 387.252 106.583 389.413 Q106.583 391.574 103.368 391.574 M103.368 379.664 L2.86812 379.664 Q-1.13712 379.664 -1.13712 377.503 Q-1.13712 375.342 2.23571 375.342 L103.104 375.342 Q106.583 375.342 106.583 377.503 Q106.583 379.664 103.368 379.664 Z" fill="#000000" fill-rule="nonzero" fill-opacity="1" /><path clip-path="url(#clip630)" d="M105.634 344.177 Q105.107 344.177 103.79 342.806 Q86.0822 325.415 52.7228 325.415 Q19.258 325.415 2.34111 342.121 Q0.391196 344.177 -0.188509 344.177 Q-1.24252 344.177 -1.24252 343.123 Q-1.24252 342.385 0.918201 339.802 Q3.07892 337.167 8.03277 333.215 Q12.9866 329.21 19.0472 326.258 Q33.7506 319.144 52.7228 319.144 Q70.9572 319.144 85.6606 325.942 Q91.8266 328.841 96.9912 332.899 Q102.156 336.957 104.422 339.644 Q106.688 342.332 106.688 343.123 Q106.688 344.177 105.634 344.177 Z" fill="#000000" fill-rule="nonzero" fill-opacity="1" /><polyline clip-path="url(#clip631)" style="stroke:#009af9; stroke-linecap:round; stroke-linejoin:round; stroke-width:8; stroke-opacity:1; fill:none" points="285.2,276.845 414.422,147.493 543.644,157.614 672.867,174.873 802.089,184.952 931.311,226.76 1060.53,311.868 1189.76,357.219 1318.98,339.509 1448.2,376.84 1577.42,432.207 1706.64,457.595 1835.87,607.723 1965.09,679.311 2094.31,870.831 2223.53,1174.4 "/>
<path clip-path="url(#clip631)" d="M285.2 300.845 L268.232 293.813 L261.2 276.845 L268.232 259.877 L285.2 252.845 L302.168 259.877 L309.2 276.845 L302.168 293.813 Z" fill="#009af9" fill-rule="evenodd" fill-opacity="1" stroke="none"/>
<path clip-path="url(#clip631)" d="M414.422 171.493 L397.454 164.461 L390.422 147.493 L397.454 130.525 L414.422 123.493 L431.39 130.525 L438.422 147.493 L431.39 164.461 Z" fill="#009af9" fill-rule="evenodd" fill-opacity="1" stroke="none"/>
<path clip-path="url(#clip631)" d="M543.644 181.614 L526.676 174.582 L519.644 157.614 L526.676 140.646 L543.644 133.614 L560.612 140.646 L567.644 157.614 L560.612 174.582 Z" fill="#009af9" fill-rule="evenodd" fill-opacity="1" stroke="none"/>
<path clip-path="url(#clip631)" d="M672.867 198.873 L655.899 191.841 L648.867 174.873 L655.899 157.905 L672.867 150.873 L689.835 157.905 L696.867 174.873 L689.835 191.841 Z" fill="#009af9" fill-rule="evenodd" fill-opacity="1" stroke="none"/>
<path clip-path="url(#clip631)" d="M802.089 208.952 L785.121 201.92 L778.089 184.952 L785.121 167.984 L802.089 160.952 L819.057 167.984 L826.089 184.952 L819.057 201.92 Z" fill="#009af9" fill-rule="evenodd" fill-opacity="1" stroke="none"/>
<path clip-path="url(#clip631)" d="M931.311 250.76 L914.343 243.728 L907.311 226.76 L914.343 209.792 L931.311 202.76 L948.279 209.792 L955.311 226.76 L948.279 243.728 Z" fill="#009af9" fill-rule="evenodd" fill-opacity="1" stroke="none"/>
<path clip-path="url(#clip631)" d="M1060.53 335.868 L1043.57 328.836 L1036.53 311.868 L1043.57 294.9 L1060.53 287.868 L1077.5 294.9 L1084.53 311.868 L1077.5 328.836 Z" fill="#009af9" fill-rule="evenodd" fill-opacity="1" stroke="none"/>
<path clip-path="url(#clip631)" d="M1189.76 381.219 L1172.79 374.187 L1165.76 357.219 L1172.79 340.251 L1189.76 333.219 L1206.72 340.251 L1213.76 357.219 L1206.72 374.187 Z" fill="#009af9" fill-rule="evenodd" fill-opacity="1" stroke="none"/>
<path clip-path="url(#clip631)" d="M1318.98 363.509 L1302.01 356.477 L1294.98 339.509 L1302.01 322.541 L1318.98 315.509 L1335.95 322.541 L1342.98 339.509 L1335.95 356.477 Z" fill="#009af9" fill-rule="evenodd" fill-opacity="1" stroke="none"/>
<path clip-path="url(#clip631)" d="M1448.2 400.84 L1431.23 393.808 L1424.2 376.84 L1431.23 359.872 L1448.2 352.84 L1465.17 359.872 L1472.2 376.84 L1465.17 393.808 Z" fill="#009af9" fill-rule="evenodd" fill-opacity="1" stroke="none"/>
<path clip-path="url(#clip631)" d="M1577.42 456.207 L1560.45 449.175 L1553.42 432.207 L1560.45 415.239 L1577.42 408.207 L1594.39 415.239 L1601.42 432.207 L1594.39 449.175 Z" fill="#009af9" fill-rule="evenodd" fill-opacity="1" stroke="none"/>
<path clip-path="url(#clip631)" d="M1706.64 481.595 L1689.68 474.563 L1682.64 457.595 L1689.68 440.627 L1706.64 433.595 L1723.61 440.627 L1730.64 457.595 L1723.61 474.563 Z" fill="#009af9" fill-rule="evenodd" fill-opacity="1" stroke="none"/>
<path clip-path="url(#clip631)" d="M1835.87 631.723 L1818.9 624.691 L1811.87 607.723 L1818.9 590.755 L1835.87 583.723 L1852.83 590.755 L1859.87 607.723 L1852.83 624.691 Z" fill="#009af9" fill-rule="evenodd" fill-opacity="1" stroke="none"/>
<path clip-path="url(#clip631)" d="M1965.09 703.311 L1948.12 696.279 L1941.09 679.311 L1948.12 662.343 L1965.09 655.311 L1982.06 662.343 L1989.09 679.311 L1982.06 696.279 Z" fill="#009af9" fill-rule="evenodd" fill-opacity="1" stroke="none"/>
<path clip-path="url(#clip631)" d="M2094.31 894.831 L2077.34 887.799 L2070.31 870.831 L2077.34 853.863 L2094.31 846.831 L2111.28 853.863 L2118.31 870.831 L2111.28 887.799 Z" fill="#009af9" fill-rule="evenodd" fill-opacity="1" stroke="none"/>
<path clip-path="url(#clip631)" d="M2223.53 1198.4 L2206.57 1191.37 L2199.53 1174.4 L2206.57 1157.43 L2223.53 1150.4 L2240.5 1157.43 L2247.53 1174.4 L2240.5 1191.37 Z" fill="#009af9" fill-rule="evenodd" fill-opacity="1" stroke="none"/>
<path clip-path="url(#clip630)" d="M1929.79 324.805 L2283.84 324.805 L2283.84 91.5246 L1929.79 91.5246  Z" fill="#ffffff" fill-rule="evenodd" fill-opacity="1"/>
<polyline clip-path="url(#clip630)" style="stroke:#000000; stroke-linecap:round; stroke-linejoin:round; stroke-width:4; stroke-opacity:1; fill:none" points="1929.79,324.805 2283.84,324.805 2283.84,91.5246 1929.79,91.5246 1929.79,324.805 "/>
<polyline clip-path="url(#clip630)" style="stroke:#009af9; stroke-linecap:round; stroke-linejoin:round; stroke-width:18; stroke-opacity:1; fill:none" points="1952.76,208.165 2090.6,208.165 "/>
<path clip-path="url(#clip630)" d="M2021.68 217.618 L2015 214.848 L2012.23 208.165 L2015 201.481 L2021.68 198.711 L2028.37 201.481 L2031.14 208.165 L2028.37 214.848 Z" fill="#009af9" fill-rule="evenodd" fill-opacity="1" stroke="none"/>
<path clip-path="url(#clip630)" d="M2149.62 176.42 Q2138.16 176.42 2131.39 184.962 Q2124.67 193.503 2124.67 208.243 Q2124.67 222.93 2131.39 231.472 Q2138.16 240.013 2149.62 240.013 Q2161.07 240.013 2167.74 231.472 Q2174.46 222.93 2174.46 208.243 Q2174.46 193.503 2167.74 184.962 Q2161.07 176.42 2149.62 176.42 M2164.35 245.638 L2178.21 260.795 L2165.5 260.795 L2153.99 248.347 Q2152.27 248.451 2151.33 248.503 Q2150.45 248.555 2149.62 248.555 Q2133.21 248.555 2123.37 237.618 Q2113.57 226.628 2113.57 208.243 Q2113.57 189.805 2123.37 178.868 Q2133.21 167.878 2149.62 167.878 Q2165.97 167.878 2175.76 178.868 Q2185.55 189.805 2185.55 208.243 Q2185.55 221.784 2180.08 231.42 Q2174.67 241.055 2164.35 245.638 Z" fill="#000000" fill-rule="nonzero" fill-opacity="1" /><path clip-path="url(#clip630)" d="M2202.01 169.285 L2216.18 169.285 L2250.66 234.336 L2250.66 169.285 L2260.86 169.285 L2260.86 247.045 L2246.7 247.045 L2212.22 181.993 L2212.22 247.045 L2202.01 247.045 L2202.01 169.285 Z" fill="#000000" fill-rule="nonzero" fill-opacity="1" /></svg>
