<?xml version="1.0" encoding="utf-8"?>
<svg xmlns="http://www.w3.org/2000/svg" xmlns:xlink="http://www.w3.org/1999/xlink" width="600" height="400" viewBox="0 0 2400 1600">
<defs>
  <clipPath id="clip840">
    <rect x="0" y="0" width="2400" height="1600"/>
  </clipPath>
</defs>
<path clip-path="url(#clip840)" d="M0 1600 L2400 1600 L2400 0 L0 0  Z" fill="#ffffff" fill-rule="evenodd" fill-opacity="1"/>
<defs>
  <clipPath id="clip841">
    <rect x="262" y="47" width="2091" height="1338"/>
  </clipPath>
</defs>
<path clip-path="url(#clip840)" d="M262.589 1384.3 L2352.76 1384.3 L2352.76 47.2441 L262.589 47.2441  Z" fill="#ffffff" fill-rule="evenodd" fill-opacity="1"/>
<polyline clip-path="url(#clip841)" style="stroke:#000000; stroke-linecap:round; stroke-linejoin:round; stroke-width:2; stroke-opacity:0.1; fill:none" points="321.745,1384.3 321.745,47.2441 "/>
<polyline clip-path="url(#clip841)" style="stroke:#000000; stroke-linecap:round; stroke-linejoin:round; stroke-width:2; stroke-opacity:0.1; fill:none" points="1307.67,1384.3 1307.67,47.2441 "/>
<polyline clip-path="url(#clip841)" style="stroke:#000000; stroke-linecap:round; stroke-linejoin:round; stroke-width:2; stroke-opacity:0.1; fill:none" points="2293.6,1384.3 2293.6,47.2441 "/>
<polyline clip-path="url(#clip841)" style="stroke:#000000; stroke-linecap:round; stroke-linejoin:round; stroke-width:2; stroke-opacity:0.1; fill:none" points="262.589,1259.47 2352.76,1259.47 "/>
<polyline clip-path="url(#clip841)" style="stroke:#000000; stroke-linecap:round; stroke-linejoin:round; stroke-width:2; stroke-opacity:0.1; fill:none" points="262.589,824.511 2352.76,824.511 "/>
<polyline clip-path="url(#clip841)" style="stroke:#000000; stroke-linecap:round; stroke-linejoin:round; stroke-width:2; stroke-opacity:0.1; fill:none" points="262.589,389.555 2352.76,389.555 "/>
<polyline clip-path="url(#clip840)" style="stroke:#000000; stroke-linecap:round; stroke-linejoin:round; stroke-width:4; stroke-opacity:1; fill:none" points="262.589,1384.3 2352.76,1384.3 "/>
<polyline clip-path="url(#clip840)" style="stroke:#000000; stroke-linecap:round; stroke-linejoin:round; stroke-width:4; stroke-opacity:1; fill:none" points="321.745,1384.3 321.745,1365.4 "/>
<polyline clip-path="url(#clip840)" style="stroke:#000000; stroke-linecap:round; stroke-linejoin:round; stroke-width:4; stroke-opacity:1; fill:none" points="1307.67,1384.3 1307.67,1365.4 "/>
<polyline clip-path="url(#clip840)" style="stroke:#000000; stroke-linecap:round; stroke-linejoin:round; stroke-width:4; stroke-opacity:1; fill:none" points="2293.6,1384.3 2293.6,1365.4 "/>
<path clip-path="url(#clip840)" d="M287.821 1421.08 Q282.404 1421.08 279.661 1426.43 Q276.953 1431.74 276.953 1442.43 Q276.953 1453.09 279.661 1458.44 Q282.404 1463.75 287.821 1463.75 Q293.272 1463.75 295.981 1458.44 Q298.724 1453.09 298.724 1442.43 Q298.724 1431.74 295.981 1426.43 Q293.272 1421.08 287.821 1421.08 M287.821 1415.52 Q296.536 1415.52 301.12 1422.43 Q305.738 1429.31 305.738 1442.43 Q305.738 1455.52 301.12 1462.43 Q296.536 1469.31 287.821 1469.31 Q279.106 1469.31 274.488 1462.43 Q269.905 1455.52 269.905 1442.43 Q269.905 1429.31 274.488 1422.43 Q279.106 1415.52 287.821 1415.52 Z" fill="#000000" fill-rule="nonzero" fill-opacity="1" /><path clip-path="url(#clip840)" d="M318.064 1459.48 L325.39 1459.48 L325.39 1468.3 L318.064 1468.3 L318.064 1459.48 Z" fill="#000000" fill-rule="nonzero" fill-opacity="1" /><path clip-path="url(#clip840)" d="M355.668 1421.08 Q350.251 1421.08 347.508 1426.43 Q344.8 1431.74 344.8 1442.43 Q344.8 1453.09 347.508 1458.44 Q350.251 1463.75 355.668 1463.75 Q361.119 1463.75 363.828 1458.44 Q366.571 1453.09 366.571 1442.43 Q366.571 1431.74 363.828 1426.43 Q361.119 1421.08 355.668 1421.08 M355.668 1415.52 Q364.383 1415.52 368.966 1422.43 Q373.585 1429.31 373.585 1442.43 Q373.585 1455.52 368.966 1462.43 Q364.383 1469.31 355.668 1469.31 Q346.953 1469.31 342.335 1462.43 Q337.751 1455.52 337.751 1442.43 Q337.751 1429.31 342.335 1422.43 Q346.953 1415.52 355.668 1415.52 Z" fill="#000000" fill-rule="nonzero" fill-opacity="1" /><path clip-path="url(#clip840)" d="M1274.5 1421.08 Q1269.08 1421.08 1266.34 1426.43 Q1263.63 1431.74 1263.63 1442.43 Q1263.63 1453.09 1266.34 1458.44 Q1269.08 1463.75 1274.5 1463.75 Q1279.95 1463.75 1282.66 1458.44 Q1285.4 1453.09 1285.4 1442.43 Q1285.4 1431.74 1282.66 1426.43 Q1279.95 1421.08 1274.5 1421.08 M1274.5 1415.52 Q1283.21 1415.52 1287.79 1422.43 Q1292.41 1429.31 1292.41 1442.43 Q1292.41 1455.52 1287.79 1462.43 Q1283.21 1469.31 1274.5 1469.31 Q1265.78 1469.31 1261.16 1462.43 Q1256.58 1455.52 1256.58 1442.43 Q1256.58 1429.31 1261.16 1422.43 Q1265.78 1415.52 1274.5 1415.52 Z" fill="#000000" fill-rule="nonzero" fill-opacity="1" /><path clip-path="url(#clip840)" d="M1304.74 1459.48 L1312.06 1459.48 L1312.06 1468.3 L1304.74 1468.3 L1304.74 1459.48 Z" fill="#000000" fill-rule="nonzero" fill-opacity="1" /><path clip-path="url(#clip840)" d="M1327.41 1416.46 L1354.95 1416.46 L1354.95 1422.36 L1333.84 1422.36 L1333.84 1435.07 Q1335.36 1434.55 1336.89 1434.31 Q1338.42 1434.03 1339.95 1434.03 Q1348.63 1434.03 1353.7 1438.79 Q1358.77 1443.54 1358.77 1451.67 Q1358.77 1460.04 1353.56 1464.69 Q1348.35 1469.31 1338.87 1469.31 Q1335.61 1469.31 1332.2 1468.75 Q1328.84 1468.2 1325.22 1467.08 L1325.22 1460.04 Q1328.35 1461.74 1331.68 1462.57 Q1335.02 1463.4 1338.73 1463.4 Q1344.74 1463.4 1348.25 1460.24 Q1351.75 1457.08 1351.75 1451.67 Q1351.75 1446.25 1348.25 1443.09 Q1344.74 1439.93 1338.73 1439.93 Q1335.92 1439.93 1333.11 1440.56 Q1330.33 1441.18 1327.41 1442.5 L1327.41 1416.46 Z" fill="#000000" fill-rule="nonzero" fill-opacity="1" /><path clip-path="url(#clip840)" d="M2244.33 1462.4 L2255.79 1462.4 L2255.79 1422.85 L2243.32 1425.35 L2243.32 1418.96 L2255.72 1416.46 L2262.73 1416.46 L2262.73 1462.4 L2274.19 1462.4 L2274.19 1468.3 L2244.33 1468.3 L2244.33 1462.4 Z" fill="#000000" fill-rule="nonzero" fill-opacity="1" /><path clip-path="url(#clip840)" d="M2288.36 1459.48 L2295.68 1459.48 L2295.68 1468.3 L2288.36 1468.3 L2288.36 1459.48 Z" fill="#000000" fill-rule="nonzero" fill-opacity="1" /><path clip-path="url(#clip840)" d="M2325.96 1421.08 Q2320.54 1421.08 2317.8 1426.43 Q2315.09 1431.74 2315.09 1442.43 Q2315.09 1453.09 2317.8 1458.44 Q2320.54 1463.75 2325.96 1463.75 Q2331.41 1463.75 2334.12 1458.44 Q2336.86 1453.09 2336.86 1442.43 Q2336.86 1431.74 2334.12 1426.43 Q2331.41 1421.08 2325.96 1421.08 M2325.96 1415.52 Q2334.68 1415.52 2339.26 1422.43 Q2343.88 1429.31 2343.88 1442.43 Q2343.88 1455.52 2339.26 1462.43 Q2334.68 1469.31 2325.96 1469.31 Q2317.25 1469.31 2312.63 1462.43 Q2308.04 1455.52 2308.04 1442.43 Q2308.04 1429.31 2312.63 1422.43 Q2317.25 1415.52 2325.96 1415.52 Z" fill="#000000" fill-rule="nonzero" fill-opacity="1" /><path clip-path="url(#clip840)" d="M1320 1528.46 Q1320 1529.77 1319.39 1530.1 Q1318.78 1530.38 1317.09 1530.38 L1308.1 1530.38 L1300.98 1558.67 Q1300.41 1561.15 1300.41 1563.26 Q1300.41 1565.6 1301.12 1566.63 Q1301.87 1567.67 1303.41 1567.67 Q1306.46 1567.67 1309.74 1564.9 Q1313.06 1562.14 1315.87 1555.39 Q1316.25 1554.5 1316.43 1554.31 Q1316.67 1554.08 1317.28 1554.08 Q1318.45 1554.08 1318.45 1555.02 Q1318.45 1555.35 1317.79 1556.84 Q1317.18 1558.34 1315.83 1560.54 Q1314.51 1562.75 1312.78 1564.81 Q1311.09 1566.87 1308.52 1568.37 Q1305.94 1569.82 1303.18 1569.82 Q1299.29 1569.82 1296.81 1567.34 Q1294.37 1564.85 1294.37 1560.97 Q1294.37 1559.7 1295.35 1555.67 Q1296.34 1551.6 1301.68 1530.38 L1293.2 1530.38 Q1292.03 1530.38 1291.56 1530.33 Q1291.14 1530.28 1290.81 1530.05 Q1290.53 1529.77 1290.53 1529.21 Q1290.53 1528.32 1290.9 1527.94 Q1291.28 1527.52 1291.75 1527.47 Q1292.26 1527.38 1293.43 1527.38 L1302.43 1527.38 L1306.18 1512.15 Q1306.55 1510.66 1307.49 1509.81 Q1308.47 1508.92 1309.03 1508.83 Q1309.6 1508.69 1310.02 1508.69 Q1311.28 1508.69 1312.03 1509.39 Q1312.78 1510.05 1312.78 1511.26 Q1312.78 1511.92 1308.85 1527.38 L1317.28 1527.38 Q1318.36 1527.38 1318.78 1527.43 Q1319.25 1527.47 1319.62 1527.71 Q1320 1527.94 1320 1528.46 Z" fill="#000000" fill-rule="nonzero" fill-opacity="1" /><polyline clip-path="url(#clip840)" style="stroke:#000000; stroke-linecap:round; stroke-linejoin:round; stroke-width:4; stroke-opacity:1; fill:none" points="262.589,1384.3 262.589,47.2441 "/>
<polyline clip-path="url(#clip840)" style="stroke:#000000; stroke-linecap:round; stroke-linejoin:round; stroke-width:4; stroke-opacity:1; fill:none" points="262.589,1259.47 281.486,1259.47 "/>
<polyline clip-path="url(#clip840)" style="stroke:#000000; stroke-linecap:round; stroke-linejoin:round; stroke-width:4; stroke-opacity:1; fill:none" points="262.589,824.511 281.486,824.511 "/>
<polyline clip-path="url(#clip840)" style="stroke:#000000; stroke-linecap:round; stroke-linejoin:round; stroke-width:4; stroke-opacity:1; fill:none" points="262.589,389.555 281.486,389.555 "/>
<path clip-path="url(#clip840)" d="M135.86 1260.14 L180.374 1260.14 L180.374 1266.05 L135.86 1266.05 L135.86 1260.14 Z" fill="#000000" fill-rule="nonzero" fill-opacity="1" /><path clip-path="url(#clip840)" d="M196.728 1279.48 L208.186 1279.48 L208.186 1239.94 L195.721 1242.44 L195.721 1236.05 L208.117 1233.55 L215.131 1233.55 L215.131 1279.48 L226.589 1279.48 L226.589 1285.39 L196.728 1285.39 L196.728 1279.48 Z" fill="#000000" fill-rule="nonzero" fill-opacity="1" /><path clip-path="url(#clip840)" d="M208.672 803.209 Q203.256 803.209 200.513 808.556 Q197.804 813.869 197.804 824.563 Q197.804 835.223 200.513 840.57 Q203.256 845.882 208.672 845.882 Q214.124 845.882 216.832 840.57 Q219.575 835.223 219.575 824.563 Q219.575 813.869 216.832 808.556 Q214.124 803.209 208.672 803.209 M208.672 797.654 Q217.387 797.654 221.971 804.563 Q226.589 811.438 226.589 824.563 Q226.589 837.653 221.971 844.563 Q217.387 851.438 208.672 851.438 Q199.957 851.438 195.339 844.563 Q190.756 837.653 190.756 824.563 Q190.756 811.438 195.339 804.563 Q199.957 797.654 208.672 797.654 Z" fill="#000000" fill-rule="nonzero" fill-opacity="1" /><path clip-path="url(#clip840)" d="M196.728 409.572 L208.186 409.572 L208.186 370.024 L195.721 372.524 L195.721 366.135 L208.117 363.635 L215.131 363.635 L215.131 409.572 L226.589 409.572 L226.589 415.475 L196.728 415.475 L196.728 409.572 Z" fill="#000000" fill-rule="nonzero" fill-opacity="1" /><path clip-path="url(#clip840)" d="M30.8974 694.77 Q31.5533 694.77 33.0991 695.192 L69.7318 704.374 Q77.8829 706.388 83.5979 712.946 Q89.313 719.458 89.313 726.859 Q89.313 731.309 86.9239 734.167 Q84.5817 737.024 80.9746 737.024 Q77.7892 737.024 76.2433 735.338 Q74.7443 733.652 74.7443 731.637 Q74.7443 730.981 74.9316 730.279 Q75.119 729.576 75.9154 728.827 Q76.7117 728.077 78.0702 728.077 Q80.2719 728.077 82.0052 729.998 Q82.8016 730.935 82.989 731.825 Q83.1763 732.668 83.1763 734.12 Q84.488 733.558 85.378 732.527 Q86.2681 731.497 86.596 730.326 Q86.9708 729.154 87.0645 728.405 Q87.205 727.609 87.205 726.859 Q87.205 720.863 81.162 716.272 Q79.335 714.914 77.5081 713.93 Q75.728 712.899 73.5263 712.15 Q71.3714 711.4 70.2003 711.072 Q69.0292 710.698 66.359 710.042 Q70.7156 714.398 70.7156 719.739 Q70.7156 721.987 70.1066 724.002 Q69.4976 725.969 68.2328 727.702 Q66.9212 729.436 64.6258 730.466 Q62.3304 731.45 59.2854 731.45 Q56.0531 731.45 51.6497 730.185 Q47.2463 728.92 39.1421 725.875 Q34.5982 724.236 32.3965 724.236 Q31.319 724.236 30.6632 724.47 Q29.9605 724.704 29.7263 725.173 Q29.4452 725.641 29.3984 725.922 Q29.3516 726.156 29.3516 726.625 Q29.3516 729.389 32.1622 731.965 Q34.9729 734.542 41.2502 736.322 Q42.4213 736.696 42.7023 736.931 Q42.9834 737.165 42.9834 737.868 Q42.9366 739.039 41.9997 739.039 Q41.6249 739.039 40.1727 738.617 Q38.6737 738.196 36.472 737.212 Q34.2234 736.181 32.2091 734.776 Q30.1479 733.37 28.6957 731.169 Q27.2435 728.92 27.2435 726.344 Q27.2435 722.83 29.5389 720.676 Q31.7875 718.474 35.1135 718.474 Q36.472 718.474 37.6899 718.849 Q38.8611 719.176 41.9997 720.394 Q54.6478 725.313 60.8313 725.313 Q62.3304 725.313 63.5952 725.079 Q64.8131 724.798 66.0311 724.189 Q67.2022 723.58 67.9049 722.362 Q68.5607 721.097 68.5607 719.364 Q68.5607 717.162 67.5301 715.101 Q66.4527 712.993 65.0005 711.681 Q63.5483 710.323 62.3304 709.526 Q61.0655 708.683 60.4097 708.496 L43.1708 704.186 L35.4882 702.265 Q31.319 701.375 30.2885 700.954 Q29.3047 700.392 28.7894 699.408 Q28.2741 698.424 28.2741 697.581 Q28.2741 696.41 28.9768 695.614 Q29.6795 694.77 30.8974 694.77 Z" fill="#000000" fill-rule="nonzero" fill-opacity="1" /><circle clip-path="url(#clip841)" cx="380.205" cy="1270.07" r="21.6" fill="#000000" fill-rule="evenodd" fill-opacity="1" stroke="none"/>
<circle clip-path="url(#clip841)" cx="493.191" cy="694.024" r="21.6" fill="#000000" fill-rule="evenodd" fill-opacity="1" stroke="none"/>
<circle clip-path="url(#clip841)" cx="552.43" cy="1333.04" r="21.6" fill="#000000" fill-rule="evenodd" fill-opacity="1" stroke="none"/>
<circle clip-path="url(#clip841)" cx="702.886" cy="1183.8" r="21.6" fill="#000000" fill-rule="evenodd" fill-opacity="1" stroke="none"/>
<circle clip-path="url(#clip841)" cx="1014.83" cy="1063.76" r="21.6" fill="#000000" fill-rule="evenodd" fill-opacity="1" stroke="none"/>
<circle clip-path="url(#clip841)" cx="1219.41" cy="865.223" r="21.6" fill="#000000" fill-rule="evenodd" fill-opacity="1" stroke="none"/>
<circle clip-path="url(#clip841)" cx="1401.62" cy="700.442" r="21.6" fill="#000000" fill-rule="evenodd" fill-opacity="1" stroke="none"/>
<circle clip-path="url(#clip841)" cx="1794.33" cy="540.023" r="21.6" fill="#000000" fill-rule="evenodd" fill-opacity="1" stroke="none"/>
<circle clip-path="url(#clip841)" cx="1794.61" cy="477.41" r="21.6" fill="#000000" fill-rule="evenodd" fill-opacity="1" stroke="none"/>
<circle clip-path="url(#clip841)" cx="1846.69" cy="954.998" r="21.6" fill="#000000" fill-rule="evenodd" fill-opacity="1" stroke="none"/>
<circle clip-path="url(#clip841)" cx="2176.44" cy="324.94" r="21.6" fill="#000000" fill-rule="evenodd" fill-opacity="1" stroke="none"/>
<circle clip-path="url(#clip841)" cx="2247.6" cy="366.882" r="21.6" fill="#000000" fill-rule="evenodd" fill-opacity="1" stroke="none"/>
<polyline clip-path="url(#clip841)" style="stroke:#0000ff; stroke-linecap:round; stroke-linejoin:round; stroke-width:8; stroke-opacity:1; fill:none" points="321.745,1306.07 341.463,1302.54 361.182,1298.88 380.9,1295.11 400.619,1291.21 420.337,1287.17 440.056,1283 459.774,1278.68 479.493,1274.21 499.212,1269.57 518.93,1264.77 538.649,1259.8 558.367,1254.64 578.086,1249.28 597.804,1243.73 617.523,1237.96 637.241,1231.97 656.96,1225.74 676.679,1219.27 696.397,1212.55 716.116,1205.56 735.834,1198.29 755.553,1190.72 775.271,1182.85 794.99,1174.65 814.708,1166.12 834.427,1157.25 854.146,1148.01 873.864,1138.4 893.583,1128.4 913.301,1117.99 933.02,1107.18 952.738,1095.93 972.457,1084.26 992.175,1072.14 1011.89,1059.57 1031.61,1046.55 1051.33,1033.08 1071.05,1019.16 1090.77,1004.8 1110.49,990.015 1130.21,974.813 1149.92,959.218 1169.64,943.258 1189.36,926.963 1209.08,910.369 1228.8,893.519 1248.52,876.457 1268.24,859.234 1287.95,841.9 1307.67,824.511 1327.39,807.122 1347.11,789.788 1366.83,772.565 1386.55,755.503 1406.27,738.653 1425.98,722.059 1445.7,705.764 1465.42,689.804 1485.14,674.209 1504.86,659.007 1524.58,644.219 1544.3,629.859 1564.01,615.941 1583.73,602.471 1603.45,589.452 1623.17,576.885 1642.89,564.765 1662.61,553.088 1682.32,541.846 1702.04,531.028 1721.76,520.625 1741.48,510.623 1761.2,501.01 1780.92,491.773 1800.64,482.897 1820.35,474.37 1840.07,466.176 1859.79,458.303 1879.51,450.737 1899.23,443.464 1918.95,436.472 1938.67,429.748 1958.38,423.279 1978.1,417.055 1997.82,411.065 2017.54,405.296 2037.26,399.74 2056.98,394.387 2076.7,389.226 2096.41,384.25 2116.13,379.449 2135.85,374.816 2155.57,370.343 2175.29,366.023 2195.01,361.849 2214.73,357.814 2234.44,353.913 2254.16,350.138 2273.88,346.486 2293.6,342.95 "/>
<polyline clip-path="url(#clip841)" style="stroke:#ff00ff; stroke-linecap:round; stroke-linejoin:round; stroke-width:8; stroke-opacity:1; fill:none" points="321.745,1144.91 341.463,1143.16 361.182,1141.24 380.9,1139.14 400.619,1136.87 420.337,1134.42 440.056,1131.81 459.774,1129.03 479.493,1126.07 499.212,1122.96 518.93,1119.67 538.649,1116.23 558.367,1112.62 578.086,1108.85 597.804,1104.92 617.523,1100.83 637.241,1096.59 656.96,1092.19 676.679,1087.64 696.397,1082.93 716.116,1078.08 735.834,1073.07 755.553,1067.92 775.271,1062.62 794.99,1057.18 814.708,1051.59 834.427,1045.86 854.146,1039.99 873.864,1033.98 893.583,1027.83 913.301,1021.54 933.02,1015.12 952.738,1008.57 972.457,1001.88 992.175,995.062 1011.89,988.114 1031.61,981.038 1051.33,973.836 1071.05,966.508 1090.77,959.056 1110.49,951.481 1130.21,943.785 1149.92,935.97 1169.64,928.036 1189.36,919.986 1209.08,911.82 1228.8,903.54 1248.52,895.147 1268.24,886.643 1287.95,878.03 1307.67,869.308 1327.39,860.479 1347.11,851.544 1366.83,842.506 1386.55,833.364 1406.27,824.122 1425.98,814.779 1445.7,805.338 1465.42,795.8 1485.14,786.166 1504.86,776.438 1524.58,766.617 1544.3,756.705 1564.01,746.703 1583.73,736.612 1603.45,726.434 1623.17,716.17 1642.89,705.822 1662.61,695.391 1682.32,684.879 1702.04,674.286 1721.76,663.615 1741.48,652.867 1761.2,642.043 1780.92,631.144 1800.64,620.172 1820.35,609.129 1840.07,598.016 1859.79,586.833 1879.51,575.584 1899.23,564.268 1918.95,552.888 1938.67,541.445 1958.38,529.94 1978.1,518.375 1997.82,506.751 2017.54,495.07 2037.26,483.332 2056.98,471.54 2076.7,459.695 2096.41,447.798 2116.13,435.851 2135.85,423.854 2155.57,411.811 2175.29,399.721 2195.01,387.586 2214.73,375.408 2234.44,363.188 2254.16,350.928 2273.88,338.628 2293.6,326.291 "/>
<polyline clip-path="url(#clip841)" style="stroke:#008000; stroke-linecap:round; stroke-linejoin:round; stroke-width:8; stroke-opacity:1; fill:none" stroke-dasharray="32, 20" points="321.745,1271.66 341.463,1271.68 361.182,1271.13 380.9,1270.03 400.619,1268.38 420.337,1266.21 440.056,1263.51 459.774,1260.31 479.493,1256.61 499.212,1252.44 518.93,1247.78 538.649,1242.67 558.367,1237.11 578.086,1231.12 597.804,1224.7 617.523,1217.87 637.241,1210.63 656.96,1203.01 676.679,1195 696.397,1186.63 716.116,1177.91 735.834,1168.84 755.553,1159.45 775.271,1149.73 794.99,1139.7 814.708,1129.38 834.427,1118.78 854.146,1107.9 873.864,1096.76 893.583,1085.37 913.301,1073.75 933.02,1061.9 952.738,1049.83 972.457,1037.56 992.175,1025.1 1011.89,1012.47 1031.61,999.661 1051.33,986.7 1071.05,973.596 1090.77,960.359 1110.49,947.002 1130.21,933.537 1149.92,919.974 1169.64,906.326 1189.36,892.604 1209.08,878.821 1228.8,864.987 1248.52,851.115 1268.24,837.216 1287.95,823.301 1307.67,809.384 1327.39,795.475 1347.11,781.585 1366.83,767.728 1386.55,753.914 1406.27,740.155 1425.98,726.463 1445.7,712.85 1465.42,699.327 1485.14,685.906 1504.86,672.598 1524.58,659.416 1544.3,646.371 1564.01,633.475 1583.73,620.739 1603.45,608.176 1623.17,595.797 1642.89,583.613 1662.61,571.636 1682.32,559.879 1702.04,548.352 1721.76,537.068 1741.48,526.038 1761.2,515.274 1780.92,504.788 1800.64,494.59 1820.35,484.694 1840.07,475.111 1859.79,465.852 1879.51,456.929 1899.23,448.353 1918.95,440.138 1938.67,432.294 1958.38,424.832 1978.1,417.765 1997.82,411.105 2017.54,404.863 2037.26,399.05 2056.98,393.679 2076.7,388.762 2096.41,384.309 2116.13,380.332 2135.85,376.844 2155.57,373.856 2175.29,371.38 2195.01,369.427 2214.73,368.01 2234.44,367.139 2254.16,366.827 2273.88,367.085 2293.6,367.925 "/>
<path clip-path="url(#clip840)" d="M332.261 545.413 L1397.84 545.413 L1397.84 91.8126 L332.261 91.8126  Z" fill="#ffffff" fill-rule="evenodd" fill-opacity="1"/>
<polyline clip-path="url(#clip840)" style="stroke:#000000; stroke-linecap:round; stroke-linejoin:round; stroke-width:4; stroke-opacity:1; fill:none" points="332.261,545.413 1397.84,545.413 1397.84,91.8126 332.261,91.8126 332.261,545.413 "/>
<circle clip-path="url(#clip840)" cx="425.157" cy="182.533" r="37.2185" fill="#000000" fill-rule="evenodd" fill-opacity="1" stroke="none"/>
<path clip-path="url(#clip840)" d="M542.278 216.986 Q539.118 225.087 536.121 227.558 Q533.123 230.029 528.1 230.029 L522.145 230.029 L522.145 223.791 L526.52 223.791 Q529.599 223.791 531.3 222.333 Q533.002 220.874 535.067 215.446 L536.404 212.043 L518.054 167.402 L525.953 167.402 L540.131 202.888 L554.309 167.402 L562.209 167.402 L542.278 216.986 Z" fill="#000000" fill-rule="nonzero" fill-opacity="1" /><path clip-path="url(#clip840)" d="M616.774 149.822 Q611.346 159.139 608.713 168.253 Q606.08 177.368 606.08 186.725 Q606.08 196.083 608.713 205.278 Q611.387 214.433 616.774 223.71 L610.293 223.71 Q604.216 214.19 601.178 204.995 Q598.181 195.799 598.181 186.725 Q598.181 177.692 601.178 168.537 Q604.176 159.382 610.293 149.822 L616.774 149.822 Z" fill="#000000" fill-rule="nonzero" fill-opacity="1" /><path clip-path="url(#clip840)" d="M661.091 174.289 L661.091 149.741 L668.545 149.741 L668.545 212.773 L661.091 212.773 L661.091 205.967 Q658.742 210.018 655.136 212.003 Q651.572 213.947 646.548 213.947 Q638.325 213.947 633.14 207.385 Q627.995 200.822 627.995 190.128 Q627.995 179.434 633.14 172.871 Q638.325 166.309 646.548 166.309 Q651.572 166.309 655.136 168.294 Q658.742 170.238 661.091 174.289 M635.692 190.128 Q635.692 198.351 639.054 203.05 Q642.457 207.709 648.371 207.709 Q654.286 207.709 657.688 203.05 Q661.091 198.351 661.091 190.128 Q661.091 181.905 657.688 177.246 Q654.286 172.547 648.371 172.547 Q642.457 172.547 639.054 177.246 Q635.692 181.905 635.692 190.128 Z" fill="#000000" fill-rule="nonzero" fill-opacity="1" /><path clip-path="url(#clip840)" d="M704.517 189.966 Q695.483 189.966 692 192.032 Q688.516 194.098 688.516 199.081 Q688.516 203.05 691.108 205.4 Q693.741 207.709 698.238 207.709 Q704.436 207.709 708.163 203.334 Q711.93 198.919 711.93 191.627 L711.93 189.966 L704.517 189.966 M719.384 186.887 L719.384 212.773 L711.93 212.773 L711.93 205.886 Q709.378 210.018 705.57 212.003 Q701.762 213.947 696.253 213.947 Q689.285 213.947 685.154 210.059 Q681.062 206.129 681.062 199.567 Q681.062 191.91 686.166 188.022 Q691.311 184.133 701.479 184.133 L711.93 184.133 L711.93 183.404 Q711.93 178.259 708.527 175.464 Q705.165 172.628 699.048 172.628 Q695.159 172.628 691.473 173.56 Q687.787 174.492 684.384 176.355 L684.384 169.468 Q688.475 167.889 692.324 167.119 Q696.172 166.309 699.818 166.309 Q709.661 166.309 714.523 171.413 Q719.384 176.517 719.384 186.887 Z" fill="#000000" fill-rule="nonzero" fill-opacity="1" /><path clip-path="url(#clip840)" d="M742.109 154.521 L742.109 167.402 L757.462 167.402 L757.462 173.195 L742.109 173.195 L742.109 197.825 Q742.109 203.375 743.608 204.954 Q745.147 206.534 749.806 206.534 L757.462 206.534 L757.462 212.773 L749.806 212.773 Q741.178 212.773 737.896 209.572 Q734.615 206.332 734.615 197.825 L734.615 173.195 L729.146 173.195 L729.146 167.402 L734.615 167.402 L734.615 154.521 L742.109 154.521 Z" fill="#000000" fill-rule="nonzero" fill-opacity="1" /><path clip-path="url(#clip840)" d="M787.884 189.966 Q778.851 189.966 775.367 192.032 Q771.883 194.098 771.883 199.081 Q771.883 203.05 774.476 205.4 Q777.109 207.709 781.606 207.709 Q787.803 207.709 791.53 203.334 Q795.298 198.919 795.298 191.627 L795.298 189.966 L787.884 189.966 M802.751 186.887 L802.751 212.773 L795.298 212.773 L795.298 205.886 Q792.746 210.018 788.938 212.003 Q785.13 213.947 779.621 213.947 Q772.653 213.947 768.521 210.059 Q764.43 206.129 764.43 199.567 Q764.43 191.91 769.534 188.022 Q774.678 184.133 784.846 184.133 L795.298 184.133 L795.298 183.404 Q795.298 178.259 791.895 175.464 Q788.533 172.628 782.416 172.628 Q778.527 172.628 774.841 173.56 Q771.154 174.492 767.751 176.355 L767.751 169.468 Q771.843 167.889 775.691 167.119 Q779.54 166.309 783.185 166.309 Q793.029 166.309 797.89 171.413 Q802.751 176.517 802.751 186.887 Z" fill="#000000" fill-rule="nonzero" fill-opacity="1" /><path clip-path="url(#clip840)" d="M840.141 167.402 L847.595 167.402 L856.912 202.807 L866.188 167.402 L874.979 167.402 L884.296 202.807 L893.573 167.402 L901.026 167.402 L889.157 212.773 L880.367 212.773 L870.604 175.585 L860.801 212.773 L852.01 212.773 L840.141 167.402 Z" fill="#000000" fill-rule="nonzero" fill-opacity="1" /><path clip-path="url(#clip840)" d="M912.328 167.402 L919.782 167.402 L919.782 212.773 L912.328 212.773 L912.328 167.402 M912.328 149.741 L919.782 149.741 L919.782 159.179 L912.328 159.179 L912.328 149.741 Z" fill="#000000" fill-rule="nonzero" fill-opacity="1" /><path clip-path="url(#clip840)" d="M942.751 154.521 L942.751 167.402 L958.103 167.402 L958.103 173.195 L942.751 173.195 L942.751 197.825 Q942.751 203.375 944.249 204.954 Q945.789 206.534 950.447 206.534 L958.103 206.534 L958.103 212.773 L950.447 212.773 Q941.819 212.773 938.538 209.572 Q935.256 206.332 935.256 197.825 L935.256 173.195 L929.788 173.195 L929.788 167.402 L935.256 167.402 L935.256 154.521 L942.751 154.521 Z" fill="#000000" fill-rule="nonzero" fill-opacity="1" /><path clip-path="url(#clip840)" d="M1005.62 185.389 L1005.62 212.773 L998.167 212.773 L998.167 185.632 Q998.167 179.191 995.655 175.99 Q993.144 172.79 988.121 172.79 Q982.085 172.79 978.601 176.639 Q975.117 180.487 975.117 187.13 L975.117 212.773 L967.623 212.773 L967.623 149.741 L975.117 149.741 L975.117 174.451 Q977.791 170.36 981.396 168.334 Q985.042 166.309 989.781 166.309 Q997.6 166.309 1001.61 171.17 Q1005.62 175.99 1005.62 185.389 Z" fill="#000000" fill-rule="nonzero" fill-opacity="1" /><path clip-path="url(#clip840)" d="M1064.44 172.628 Q1058.44 172.628 1054.96 177.327 Q1051.48 181.986 1051.48 190.128 Q1051.48 198.27 1054.92 202.969 Q1058.4 207.628 1064.44 207.628 Q1070.39 207.628 1073.88 202.929 Q1077.36 198.23 1077.36 190.128 Q1077.36 182.067 1073.88 177.368 Q1070.39 172.628 1064.44 172.628 M1064.44 166.309 Q1074.16 166.309 1079.71 172.628 Q1085.26 178.948 1085.26 190.128 Q1085.26 201.268 1079.71 207.628 Q1074.16 213.947 1064.44 213.947 Q1054.68 213.947 1049.13 207.628 Q1043.62 201.268 1043.62 190.128 Q1043.62 178.948 1049.13 172.628 Q1054.68 166.309 1064.44 166.309 Z" fill="#000000" fill-rule="nonzero" fill-opacity="1" /><path clip-path="url(#clip840)" d="M1096.85 194.868 L1096.85 167.402 L1104.3 167.402 L1104.3 194.584 Q1104.3 201.025 1106.81 204.266 Q1109.32 207.466 1114.35 207.466 Q1120.38 207.466 1123.87 203.618 Q1127.39 199.769 1127.39 193.126 L1127.39 167.402 L1134.84 167.402 L1134.84 212.773 L1127.39 212.773 L1127.39 205.805 Q1124.68 209.937 1121.07 211.962 Q1117.51 213.947 1112.77 213.947 Q1104.95 213.947 1100.9 209.086 Q1096.85 204.225 1096.85 194.868 M1115.6 166.309 L1115.6 166.309 Z" fill="#000000" fill-rule="nonzero" fill-opacity="1" /><path clip-path="url(#clip840)" d="M1157.57 154.521 L1157.57 167.402 L1172.92 167.402 L1172.92 173.195 L1157.57 173.195 L1157.57 197.825 Q1157.57 203.375 1159.07 204.954 Q1160.61 206.534 1165.27 206.534 L1172.92 206.534 L1172.92 212.773 L1165.27 212.773 Q1156.64 212.773 1153.36 209.572 Q1150.08 206.332 1150.08 197.825 L1150.08 173.195 L1144.61 173.195 L1144.61 167.402 L1150.08 167.402 L1150.08 154.521 L1157.57 154.521 Z" fill="#000000" fill-rule="nonzero" fill-opacity="1" /><path clip-path="url(#clip840)" d="M1182.73 149.741 L1190.18 149.741 L1190.18 212.773 L1182.73 212.773 L1182.73 149.741 Z" fill="#000000" fill-rule="nonzero" fill-opacity="1" /><path clip-path="url(#clip840)" d="M1205.78 167.402 L1213.23 167.402 L1213.23 212.773 L1205.78 212.773 L1205.78 167.402 M1205.78 149.741 L1213.23 149.741 L1213.23 159.179 L1205.78 159.179 L1205.78 149.741 Z" fill="#000000" fill-rule="nonzero" fill-opacity="1" /><path clip-path="url(#clip840)" d="M1267.63 188.224 L1267.63 191.87 L1233.36 191.87 Q1233.85 199.567 1237.98 203.618 Q1242.15 207.628 1249.57 207.628 Q1253.86 207.628 1257.87 206.575 Q1261.92 205.522 1265.89 203.415 L1265.89 210.464 Q1261.88 212.165 1257.67 213.056 Q1253.45 213.947 1249.12 213.947 Q1238.26 213.947 1231.9 207.628 Q1225.58 201.309 1225.58 190.533 Q1225.58 179.393 1231.58 172.871 Q1237.62 166.309 1247.82 166.309 Q1256.98 166.309 1262.29 172.223 Q1267.63 178.097 1267.63 188.224 M1260.18 186.037 Q1260.1 179.92 1256.74 176.274 Q1253.41 172.628 1247.91 172.628 Q1241.67 172.628 1237.9 176.152 Q1234.17 179.677 1233.61 186.077 L1260.18 186.037 Z" fill="#000000" fill-rule="nonzero" fill-opacity="1" /><path clip-path="url(#clip840)" d="M1306.16 174.37 Q1304.9 173.641 1303.4 173.317 Q1301.94 172.952 1300.16 172.952 Q1293.84 172.952 1290.44 177.084 Q1287.08 181.176 1287.08 188.872 L1287.08 212.773 L1279.58 212.773 L1279.58 167.402 L1287.08 167.402 L1287.08 174.451 Q1289.43 170.319 1293.19 168.334 Q1296.96 166.309 1302.35 166.309 Q1303.12 166.309 1304.05 166.43 Q1304.98 166.511 1306.12 166.714 L1306.16 174.37 Z" fill="#000000" fill-rule="nonzero" fill-opacity="1" /><path clip-path="url(#clip840)" d="M1342.9 168.739 L1342.9 175.788 Q1339.74 174.168 1336.34 173.357 Q1332.93 172.547 1329.29 172.547 Q1323.74 172.547 1320.94 174.249 Q1318.19 175.95 1318.19 179.353 Q1318.19 181.945 1320.17 183.444 Q1322.16 184.902 1328.15 186.239 L1330.71 186.806 Q1338.65 188.508 1341.97 191.627 Q1345.33 194.706 1345.33 200.255 Q1345.33 206.575 1340.31 210.261 Q1335.32 213.947 1326.57 213.947 Q1322.93 213.947 1318.96 213.218 Q1315.03 212.53 1310.65 211.112 L1310.65 203.415 Q1314.79 205.562 1318.8 206.656 Q1322.81 207.709 1326.74 207.709 Q1332 207.709 1334.84 205.927 Q1337.67 204.104 1337.67 200.822 Q1337.67 197.784 1335.61 196.164 Q1333.58 194.544 1326.65 193.045 L1324.06 192.437 Q1317.14 190.979 1314.06 187.981 Q1310.98 184.943 1310.98 179.677 Q1310.98 173.276 1315.51 169.793 Q1320.05 166.309 1328.4 166.309 Q1332.53 166.309 1336.17 166.916 Q1339.82 167.524 1342.9 168.739 Z" fill="#000000" fill-rule="nonzero" fill-opacity="1" /><path clip-path="url(#clip840)" d="M1356.02 149.822 L1362.51 149.822 Q1368.58 159.382 1371.58 168.537 Q1374.62 177.692 1374.62 186.725 Q1374.62 195.799 1371.58 204.995 Q1368.58 214.19 1362.51 223.71 L1356.02 223.71 Q1361.41 214.433 1364.04 205.278 Q1366.72 196.083 1366.72 186.725 Q1366.72 177.368 1364.04 168.253 Q1361.41 159.139 1356.02 149.822 Z" fill="#000000" fill-rule="nonzero" fill-opacity="1" /><polyline clip-path="url(#clip840)" style="stroke:#0000ff; stroke-linecap:round; stroke-linejoin:round; stroke-width:14; stroke-opacity:1; fill:none" points="355.485,273.253 494.83,273.253 "/>
<path clip-path="url(#clip840)" d="M550.299 259.459 L550.299 266.508 Q547.139 264.888 543.736 264.077 Q540.334 263.267 536.688 263.267 Q531.138 263.267 528.343 264.969 Q525.588 266.67 525.588 270.073 Q525.588 272.665 527.573 274.164 Q529.558 275.622 535.554 276.959 L538.106 277.526 Q546.045 279.228 549.367 282.347 Q552.729 285.426 552.729 290.975 Q552.729 297.295 547.706 300.981 Q542.724 304.667 533.974 304.667 Q530.328 304.667 526.358 303.938 Q522.429 303.25 518.054 301.832 L518.054 294.135 Q522.186 296.282 526.196 297.376 Q530.206 298.429 534.136 298.429 Q539.402 298.429 542.238 296.647 Q545.073 294.824 545.073 291.542 Q545.073 288.504 543.007 286.884 Q540.982 285.264 534.055 283.765 L531.462 283.157 Q524.535 281.699 521.456 278.701 Q518.378 275.663 518.378 270.397 Q518.378 263.996 522.915 260.513 Q527.452 257.029 535.797 257.029 Q539.929 257.029 543.574 257.636 Q547.22 258.244 550.299 259.459 Z" fill="#000000" fill-rule="nonzero" fill-opacity="1" /><path clip-path="url(#clip840)" d="M582.504 240.542 Q577.075 249.859 574.442 258.973 Q571.809 268.088 571.809 277.445 Q571.809 286.803 574.442 295.998 Q577.116 305.153 582.504 314.43 L576.022 314.43 Q569.946 304.91 566.908 295.715 Q563.91 286.519 563.91 277.445 Q563.91 268.412 566.908 259.257 Q569.905 250.102 576.022 240.542 L582.504 240.542 Z" fill="#000000" fill-rule="nonzero" fill-opacity="1" /><path clip-path="url(#clip840)" d="M604.338 245.241 L604.338 258.122 L619.691 258.122 L619.691 263.915 L604.338 263.915 L604.338 288.545 Q604.338 294.095 605.837 295.674 Q607.376 297.254 612.035 297.254 L619.691 297.254 L619.691 303.493 L612.035 303.493 Q603.406 303.493 600.125 300.292 Q596.844 297.052 596.844 288.545 L596.844 263.915 L591.375 263.915 L591.375 258.122 L596.844 258.122 L596.844 245.241 L604.338 245.241 Z" fill="#000000" fill-rule="nonzero" fill-opacity="1" /><path clip-path="url(#clip840)" d="M628.319 240.542 L634.801 240.542 Q640.877 250.102 643.875 259.257 Q646.913 268.412 646.913 277.445 Q646.913 286.519 643.875 295.715 Q640.877 304.91 634.801 314.43 L628.319 314.43 Q633.707 305.153 636.34 295.998 Q639.014 286.803 639.014 277.445 Q639.014 268.088 636.34 258.973 Q633.707 249.859 628.319 240.542 Z" fill="#000000" fill-rule="nonzero" fill-opacity="1" /><path clip-path="url(#clip840)" d="M690.136 293.203 L698.684 293.203 L698.684 303.493 L690.136 303.493 L690.136 293.203 M690.136 260.594 L698.684 260.594 L698.684 270.883 L690.136 270.883 L690.136 260.594 Z" fill="#000000" fill-rule="nonzero" fill-opacity="1" /><path clip-path="url(#clip840)" d="M742.555 240.461 L750.008 240.461 L750.008 303.493 L742.555 303.493 L742.555 240.461 Z" fill="#000000" fill-rule="nonzero" fill-opacity="1" /><path clip-path="url(#clip840)" d="M786.224 280.686 Q777.19 280.686 773.706 282.752 Q770.222 284.818 770.222 289.801 Q770.222 293.77 772.815 296.12 Q775.448 298.429 779.945 298.429 Q786.143 298.429 789.869 294.054 Q793.637 289.639 793.637 282.347 L793.637 280.686 L786.224 280.686 M801.09 277.607 L801.09 303.493 L793.637 303.493 L793.637 296.606 Q791.085 300.738 787.277 302.723 Q783.469 304.667 777.96 304.667 Q770.992 304.667 766.86 300.779 Q762.769 296.849 762.769 290.287 Q762.769 282.63 767.873 278.742 Q773.018 274.853 783.185 274.853 L793.637 274.853 L793.637 274.124 Q793.637 268.979 790.234 266.184 Q786.872 263.348 780.755 263.348 Q776.866 263.348 773.18 264.28 Q769.493 265.212 766.091 267.075 L766.091 260.188 Q770.182 258.609 774.03 257.839 Q777.879 257.029 781.525 257.029 Q791.368 257.029 796.229 262.133 Q801.09 267.237 801.09 277.607 Z" fill="#000000" fill-rule="nonzero" fill-opacity="1" /><path clip-path="url(#clip840)" d="M823.816 245.241 L823.816 258.122 L839.169 258.122 L839.169 263.915 L823.816 263.915 L823.816 288.545 Q823.816 294.095 825.315 295.674 Q826.854 297.254 831.513 297.254 L839.169 297.254 L839.169 303.493 L831.513 303.493 Q822.884 303.493 819.603 300.292 Q816.322 297.052 816.322 288.545 L816.322 263.915 L810.853 263.915 L810.853 258.122 L816.322 258.122 L816.322 245.241 L823.816 245.241 Z" fill="#000000" fill-rule="nonzero" fill-opacity="1" /><path clip-path="url(#clip840)" d="M887.78 278.944 L887.78 282.59 L853.509 282.59 Q853.995 290.287 858.127 294.338 Q862.3 298.348 869.713 298.348 Q874.007 298.348 878.017 297.295 Q882.068 296.242 886.038 294.135 L886.038 301.184 Q882.027 302.885 877.815 303.776 Q873.602 304.667 869.267 304.667 Q858.411 304.667 852.051 298.348 Q845.731 292.029 845.731 281.253 Q845.731 270.113 851.727 263.591 Q857.763 257.029 867.971 257.029 Q877.126 257.029 882.433 262.943 Q887.78 268.817 887.78 278.944 M880.326 276.757 Q880.245 270.64 876.883 266.994 Q873.561 263.348 868.052 263.348 Q861.813 263.348 858.046 266.872 Q854.319 270.397 853.752 276.797 L880.326 276.757 Z" fill="#000000" fill-rule="nonzero" fill-opacity="1" /><path clip-path="url(#clip840)" d="M937.727 276.109 L937.727 303.493 L930.274 303.493 L930.274 276.352 Q930.274 269.911 927.762 266.71 Q925.251 263.51 920.227 263.51 Q914.192 263.51 910.708 267.359 Q907.224 271.207 907.224 277.85 L907.224 303.493 L899.73 303.493 L899.73 258.122 L907.224 258.122 L907.224 265.171 Q909.898 261.08 913.503 259.054 Q917.149 257.029 921.888 257.029 Q929.707 257.029 933.717 261.89 Q937.727 266.71 937.727 276.109 Z" fill="#000000" fill-rule="nonzero" fill-opacity="1" /><path clip-path="url(#clip840)" d="M959.967 245.241 L959.967 258.122 L975.32 258.122 L975.32 263.915 L959.967 263.915 L959.967 288.545 Q959.967 294.095 961.466 295.674 Q963.005 297.254 967.664 297.254 L975.32 297.254 L975.32 303.493 L967.664 303.493 Q959.035 303.493 955.754 300.292 Q952.473 297.052 952.473 288.545 L952.473 263.915 L947.004 263.915 L947.004 258.122 L952.473 258.122 L952.473 245.241 L959.967 245.241 Z" fill="#000000" fill-rule="nonzero" fill-opacity="1" /><path clip-path="url(#clip840)" d="M1040.42 259.459 L1040.42 266.508 Q1037.26 264.888 1033.86 264.077 Q1030.45 263.267 1026.81 263.267 Q1021.26 263.267 1018.46 264.969 Q1015.71 266.67 1015.71 270.073 Q1015.71 272.665 1017.69 274.164 Q1019.68 275.622 1025.67 276.959 L1028.22 277.526 Q1036.16 279.228 1039.49 282.347 Q1042.85 285.426 1042.85 290.975 Q1042.85 297.295 1037.83 300.981 Q1032.84 304.667 1024.09 304.667 Q1020.45 304.667 1016.48 303.938 Q1012.55 303.25 1008.17 301.832 L1008.17 294.135 Q1012.3 296.282 1016.31 297.376 Q1020.33 298.429 1024.25 298.429 Q1029.52 298.429 1032.36 296.647 Q1035.19 294.824 1035.19 291.542 Q1035.19 288.504 1033.13 286.884 Q1031.1 285.264 1024.17 283.765 L1021.58 283.157 Q1014.65 281.699 1011.58 278.701 Q1008.5 275.663 1008.5 270.397 Q1008.5 263.996 1013.03 260.513 Q1017.57 257.029 1025.92 257.029 Q1030.05 257.029 1033.69 257.636 Q1037.34 258.244 1040.42 259.459 Z" fill="#000000" fill-rule="nonzero" fill-opacity="1" /><path clip-path="url(#clip840)" d="M1054.72 258.122 L1062.17 258.122 L1062.17 303.493 L1054.72 303.493 L1054.72 258.122 M1054.72 240.461 L1062.17 240.461 L1062.17 249.899 L1054.72 249.899 L1054.72 240.461 Z" fill="#000000" fill-rule="nonzero" fill-opacity="1" /><path clip-path="url(#clip840)" d="M1107.62 280.281 Q1107.62 272.179 1104.26 267.723 Q1100.94 263.267 1094.9 263.267 Q1088.91 263.267 1085.54 267.723 Q1082.22 272.179 1082.22 280.281 Q1082.22 288.342 1085.54 292.798 Q1088.91 297.254 1094.9 297.254 Q1100.94 297.254 1104.26 292.798 Q1107.62 288.342 1107.62 280.281 M1115.08 297.862 Q1115.08 309.447 1109.93 315.078 Q1104.79 320.749 1094.17 320.749 Q1090.24 320.749 1086.76 320.142 Q1083.28 319.575 1080 318.359 L1080 311.108 Q1083.28 312.891 1086.48 313.741 Q1089.68 314.592 1093 314.592 Q1100.33 314.592 1103.98 310.744 Q1107.62 306.936 1107.62 299.199 L1107.62 295.512 Q1105.31 299.523 1101.71 301.508 Q1098.1 303.493 1093.08 303.493 Q1084.73 303.493 1079.63 297.133 Q1074.53 290.773 1074.53 280.281 Q1074.53 269.749 1079.63 263.389 Q1084.73 257.029 1093.08 257.029 Q1098.1 257.029 1101.71 259.014 Q1105.31 260.999 1107.62 265.009 L1107.62 258.122 L1115.08 258.122 L1115.08 297.862 Z" fill="#000000" fill-rule="nonzero" fill-opacity="1" /><path clip-path="url(#clip840)" d="M1168.14 276.109 L1168.14 303.493 L1160.69 303.493 L1160.69 276.352 Q1160.69 269.911 1158.18 266.71 Q1155.67 263.51 1150.64 263.51 Q1144.61 263.51 1141.12 267.359 Q1137.64 271.207 1137.64 277.85 L1137.64 303.493 L1130.15 303.493 L1130.15 258.122 L1137.64 258.122 L1137.64 265.171 Q1140.31 261.08 1143.92 259.054 Q1147.56 257.029 1152.3 257.029 Q1160.12 257.029 1164.13 261.89 Q1168.14 266.71 1168.14 276.109 Z" fill="#000000" fill-rule="nonzero" fill-opacity="1" /><path clip-path="url(#clip840)" d="M1203.63 280.686 Q1194.6 280.686 1191.11 282.752 Q1187.63 284.818 1187.63 289.801 Q1187.63 293.77 1190.22 296.12 Q1192.85 298.429 1197.35 298.429 Q1203.55 298.429 1207.27 294.054 Q1211.04 289.639 1211.04 282.347 L1211.04 280.686 L1203.63 280.686 M1218.5 277.607 L1218.5 303.493 L1211.04 303.493 L1211.04 296.606 Q1208.49 300.738 1204.68 302.723 Q1200.87 304.667 1195.36 304.667 Q1188.4 304.667 1184.27 300.779 Q1180.17 296.849 1180.17 290.287 Q1180.17 282.63 1185.28 278.742 Q1190.42 274.853 1200.59 274.853 L1211.04 274.853 L1211.04 274.124 Q1211.04 268.979 1207.64 266.184 Q1204.28 263.348 1198.16 263.348 Q1194.27 263.348 1190.58 264.28 Q1186.9 265.212 1183.5 267.075 L1183.5 260.188 Q1187.59 258.609 1191.44 257.839 Q1195.28 257.029 1198.93 257.029 Q1208.77 257.029 1213.63 262.133 Q1218.5 267.237 1218.5 277.607 Z" fill="#000000" fill-rule="nonzero" fill-opacity="1" /><path clip-path="url(#clip840)" d="M1233.85 240.461 L1241.3 240.461 L1241.3 303.493 L1233.85 303.493 L1233.85 240.461 Z" fill="#000000" fill-rule="nonzero" fill-opacity="1" /><polyline clip-path="url(#clip840)" style="stroke:#ff00ff; stroke-linecap:round; stroke-linejoin:round; stroke-width:14; stroke-opacity:1; fill:none" points="355.485,363.973 494.83,363.973 "/>
<path clip-path="url(#clip840)" d="M518.054 333.733 L526.237 333.733 L526.237 387.326 L555.687 387.326 L555.687 394.213 L518.054 394.213 L518.054 333.733 Z" fill="#000000" fill-rule="nonzero" fill-opacity="1" /><path clip-path="url(#clip840)" d="M600.53 335.718 L600.53 343.698 Q595.872 341.47 591.74 340.376 Q587.608 339.282 583.759 339.282 Q577.075 339.282 573.43 341.875 Q569.824 344.468 569.824 349.248 Q569.824 353.258 572.214 355.324 Q574.645 357.349 581.369 358.605 L586.311 359.618 Q595.466 361.36 599.801 365.775 Q604.176 370.15 604.176 377.523 Q604.176 386.313 598.262 390.85 Q592.388 395.387 581.005 395.387 Q576.711 395.387 571.85 394.415 Q567.029 393.443 561.844 391.539 L561.844 383.113 Q566.827 385.908 571.607 387.326 Q576.387 388.744 581.005 388.744 Q588.013 388.744 591.821 385.989 Q595.629 383.235 595.629 378.131 Q595.629 373.675 592.874 371.163 Q590.16 368.651 583.921 367.396 L578.939 366.423 Q569.784 364.601 565.692 360.712 Q561.601 356.823 561.601 349.896 Q561.601 341.875 567.232 337.257 Q572.903 332.639 582.828 332.639 Q587.081 332.639 591.497 333.409 Q595.912 334.178 600.53 335.718 Z" fill="#000000" fill-rule="nonzero" fill-opacity="1" /><path clip-path="url(#clip840)" d="M665.952 331.181 L665.952 337.378 L658.823 337.378 Q654.812 337.378 653.232 338.999 Q651.693 340.619 651.693 344.832 L651.693 348.842 L663.967 348.842 L663.967 354.635 L651.693 354.635 L651.693 394.213 L644.199 394.213 L644.199 354.635 L637.069 354.635 L637.069 348.842 L644.199 348.842 L644.199 345.683 Q644.199 338.108 647.723 334.664 Q651.247 331.181 658.904 331.181 L665.952 331.181 Z" fill="#000000" fill-rule="nonzero" fill-opacity="1" /><path clip-path="url(#clip840)" d="M672.191 348.842 L679.644 348.842 L679.644 394.213 L672.191 394.213 L672.191 348.842 M672.191 331.181 L679.644 331.181 L679.644 340.619 L672.191 340.619 L672.191 331.181 Z" fill="#000000" fill-rule="nonzero" fill-opacity="1" /><path clip-path="url(#clip840)" d="M702.613 335.961 L702.613 348.842 L717.966 348.842 L717.966 354.635 L702.613 354.635 L702.613 379.265 Q702.613 384.815 704.112 386.394 Q705.651 387.974 710.31 387.974 L717.966 387.974 L717.966 394.213 L710.31 394.213 Q701.681 394.213 698.4 391.012 Q695.119 387.772 695.119 379.265 L695.119 354.635 L689.65 354.635 L689.65 348.842 L695.119 348.842 L695.119 335.961 L702.613 335.961 Z" fill="#000000" fill-rule="nonzero" fill-opacity="1" /><polyline clip-path="url(#clip840)" style="stroke:#008000; stroke-linecap:round; stroke-linejoin:round; stroke-width:14; stroke-opacity:1; fill:none" stroke-dasharray="56, 35" points="355.485,454.693 494.83,454.693 "/>
<path clip-path="url(#clip840)" d="M546.734 456.576 Q549.367 457.467 551.838 460.384 Q554.35 463.301 556.861 468.405 L565.166 484.933 L556.375 484.933 L548.638 469.418 Q545.64 463.341 542.805 461.356 Q540.01 459.371 535.149 459.371 L526.237 459.371 L526.237 484.933 L518.054 484.933 L518.054 424.453 L536.526 424.453 Q546.896 424.453 552 428.787 Q557.104 433.122 557.104 441.872 Q557.104 447.583 554.431 451.351 Q551.798 455.118 546.734 456.576 M526.237 431.177 L526.237 452.647 L536.526 452.647 Q542.44 452.647 545.438 449.933 Q548.476 447.178 548.476 441.872 Q548.476 436.565 545.438 433.891 Q542.44 431.177 536.526 431.177 L526.237 431.177 Z" fill="#000000" fill-rule="nonzero" fill-opacity="1" /><path clip-path="url(#clip840)" d="M589.228 444.788 Q583.233 444.788 579.749 449.487 Q576.265 454.146 576.265 462.288 Q576.265 470.43 579.708 475.129 Q583.192 479.788 589.228 479.788 Q595.183 479.788 598.667 475.089 Q602.15 470.39 602.15 462.288 Q602.15 454.227 598.667 449.528 Q595.183 444.788 589.228 444.788 M589.228 438.469 Q598.95 438.469 604.5 444.788 Q610.05 451.108 610.05 462.288 Q610.05 473.428 604.5 479.788 Q598.95 486.107 589.228 486.107 Q579.465 486.107 573.916 479.788 Q568.406 473.428 568.406 462.288 Q568.406 451.108 573.916 444.788 Q579.465 438.469 589.228 438.469 Z" fill="#000000" fill-rule="nonzero" fill-opacity="1" /><path clip-path="url(#clip840)" d="M654.974 462.288 Q654.974 454.065 651.572 449.406 Q648.209 444.707 642.295 444.707 Q636.381 444.707 632.978 449.406 Q629.616 454.065 629.616 462.288 Q629.616 470.511 632.978 475.21 Q636.381 479.869 642.295 479.869 Q648.209 479.869 651.572 475.21 Q654.974 470.511 654.974 462.288 M629.616 446.449 Q631.965 442.398 635.53 440.454 Q639.135 438.469 644.118 438.469 Q652.382 438.469 657.526 445.031 Q662.711 451.594 662.711 462.288 Q662.711 472.982 657.526 479.545 Q652.382 486.107 644.118 486.107 Q639.135 486.107 635.53 484.163 Q631.965 482.178 629.616 478.127 L629.616 484.933 L622.121 484.933 L622.121 421.901 L629.616 421.901 L629.616 446.449 Z" fill="#000000" fill-rule="nonzero" fill-opacity="1" /><path clip-path="url(#clip840)" d="M674.297 467.028 L674.297 439.562 L681.751 439.562 L681.751 466.744 Q681.751 473.185 684.262 476.426 Q686.774 479.626 691.797 479.626 Q697.833 479.626 701.317 475.778 Q704.841 471.929 704.841 465.286 L704.841 439.562 L712.295 439.562 L712.295 484.933 L704.841 484.933 L704.841 477.965 Q702.127 482.097 698.521 484.122 Q694.957 486.107 690.217 486.107 Q682.399 486.107 678.348 481.246 Q674.297 476.385 674.297 467.028 M693.053 438.469 L693.053 438.469 Z" fill="#000000" fill-rule="nonzero" fill-opacity="1" /><path clip-path="url(#clip840)" d="M756.571 440.899 L756.571 447.948 Q753.411 446.328 750.008 445.517 Q746.606 444.707 742.96 444.707 Q737.41 444.707 734.615 446.409 Q731.86 448.11 731.86 451.513 Q731.86 454.105 733.845 455.604 Q735.83 457.062 741.826 458.399 L744.378 458.966 Q752.317 460.668 755.639 463.787 Q759.001 466.866 759.001 472.415 Q759.001 478.735 753.978 482.421 Q748.996 486.107 740.246 486.107 Q736.6 486.107 732.63 485.378 Q728.701 484.69 724.326 483.272 L724.326 475.575 Q728.458 477.722 732.468 478.816 Q736.478 479.869 740.408 479.869 Q745.674 479.869 748.51 478.087 Q751.345 476.264 751.345 472.982 Q751.345 469.944 749.279 468.324 Q747.254 466.704 740.327 465.205 L737.734 464.597 Q730.807 463.139 727.729 460.141 Q724.65 457.103 724.65 451.837 Q724.65 445.436 729.187 441.953 Q733.724 438.469 742.069 438.469 Q746.201 438.469 749.846 439.076 Q753.492 439.684 756.571 440.899 Z" fill="#000000" fill-rule="nonzero" fill-opacity="1" /><path clip-path="url(#clip840)" d="M778.243 426.681 L778.243 439.562 L793.596 439.562 L793.596 445.355 L778.243 445.355 L778.243 469.985 Q778.243 475.535 779.742 477.114 Q781.281 478.694 785.94 478.694 L793.596 478.694 L793.596 484.933 L785.94 484.933 Q777.312 484.933 774.03 481.732 Q770.749 478.492 770.749 469.985 L770.749 445.355 L765.28 445.355 L765.28 439.562 L770.749 439.562 L770.749 426.681 L778.243 426.681 Z" fill="#000000" fill-rule="nonzero" fill-opacity="1" /><path clip-path="url(#clip840)" d="M852.739 421.901 L852.739 428.098 L845.61 428.098 Q841.599 428.098 840.02 429.719 Q838.48 431.339 838.48 435.552 L838.48 439.562 L850.754 439.562 L850.754 445.355 L838.48 445.355 L838.48 484.933 L830.986 484.933 L830.986 445.355 L823.856 445.355 L823.856 439.562 L830.986 439.562 L830.986 436.403 Q830.986 428.828 834.51 425.384 Q838.035 421.901 845.691 421.901 L852.739 421.901 Z" fill="#000000" fill-rule="nonzero" fill-opacity="1" /><path clip-path="url(#clip840)" d="M858.978 439.562 L866.431 439.562 L866.431 484.933 L858.978 484.933 L858.978 439.562 M858.978 421.901 L866.431 421.901 L866.431 431.339 L858.978 431.339 L858.978 421.901 Z" fill="#000000" fill-rule="nonzero" fill-opacity="1" /><path clip-path="url(#clip840)" d="M889.4 426.681 L889.4 439.562 L904.753 439.562 L904.753 445.355 L889.4 445.355 L889.4 469.985 Q889.4 475.535 890.899 477.114 Q892.438 478.694 897.097 478.694 L904.753 478.694 L904.753 484.933 L897.097 484.933 Q888.468 484.933 885.187 481.732 Q881.906 478.492 881.906 469.985 L881.906 445.355 L876.437 445.355 L876.437 439.562 L881.906 439.562 L881.906 426.681 L889.4 426.681 Z" fill="#000000" fill-rule="nonzero" fill-opacity="1" /><path clip-path="url(#clip840)" d="M948.138 478.127 L948.138 502.189 L940.644 502.189 L940.644 439.562 L948.138 439.562 L948.138 446.449 Q950.488 442.398 954.053 440.454 Q957.658 438.469 962.64 438.469 Q970.904 438.469 976.049 445.031 Q981.234 451.594 981.234 462.288 Q981.234 472.982 976.049 479.545 Q970.904 486.107 962.64 486.107 Q957.658 486.107 954.053 484.163 Q950.488 482.178 948.138 478.127 M973.497 462.288 Q973.497 454.065 970.094 449.406 Q966.732 444.707 960.818 444.707 Q954.903 444.707 951.5 449.406 Q948.138 454.065 948.138 462.288 Q948.138 470.511 951.5 475.21 Q954.903 479.869 960.818 479.869 Q966.732 479.869 970.094 475.21 Q973.497 470.511 973.497 462.288 Z" fill="#000000" fill-rule="nonzero" fill-opacity="1" /><path clip-path="url(#clip840)" d="M994.562 447.259 L1046.49 447.259 L1046.49 454.065 L994.562 454.065 L994.562 447.259 M994.562 463.787 L1046.49 463.787 L1046.49 470.673 L994.562 470.673 L994.562 463.787 Z" fill="#000000" fill-rule="nonzero" fill-opacity="1" /><path clip-path="url(#clip840)" d="M1065.57 478.046 L1078.94 478.046 L1078.94 431.906 L1064.4 434.823 L1064.4 427.369 L1078.86 424.453 L1087.04 424.453 L1087.04 478.046 L1100.41 478.046 L1100.41 484.933 L1065.57 484.933 L1065.57 478.046 Z" fill="#000000" fill-rule="nonzero" fill-opacity="1" /><path clip-path="url(#clip840)" d="M1116.94 474.643 L1125.49 474.643 L1125.49 484.933 L1116.94 484.933 L1116.94 474.643 Z" fill="#000000" fill-rule="nonzero" fill-opacity="1" /><path clip-path="url(#clip840)" d="M1144.73 478.046 L1158.1 478.046 L1158.1 431.906 L1143.55 434.823 L1143.55 427.369 L1158.02 424.453 L1166.2 424.453 L1166.2 478.046 L1179.57 478.046 L1179.57 484.933 L1144.73 484.933 L1144.73 478.046 Z" fill="#000000" fill-rule="nonzero" fill-opacity="1" /></svg>
