<?xml version="1.0" encoding="utf-8"?>
<svg xmlns="http://www.w3.org/2000/svg" xmlns:xlink="http://www.w3.org/1999/xlink" width="600" height="400" viewBox="0 0 2400 1600">
<defs>
  <clipPath id="clip580">
    <rect x="0" y="0" width="2400" height="1600"/>
  </clipPath>
</defs>
<path clip-path="url(#clip580)" d="M0 1600 L2400 1600 L2400 0 L0 0  Z" fill="#ffffff" fill-rule="evenodd" fill-opacity="1"/>
<defs>
  <clipPath id="clip581">
    <rect x="239" y="47" width="2114" height="1303"/>
  </clipPath>
</defs>
<path clip-path="url(#clip580)" d="M239.51 1349.74 L2352.76 1349.74 L2352.76 47.2441 L239.51 47.2441  Z" fill="#ffffff" fill-rule="evenodd" fill-opacity="1"/>
<polyline clip-path="url(#clip581)" style="stroke:#000000; stroke-linecap:round; stroke-linejoin:round; stroke-width:2; stroke-opacity:0.1; fill:none" points="299.319,1349.74 299.319,47.2441 "/>
<polyline clip-path="url(#clip581)" style="stroke:#000000; stroke-linecap:round; stroke-linejoin:round; stroke-width:2; stroke-opacity:0.1; fill:none" points="462.064,1349.74 462.064,47.2441 "/>
<polyline clip-path="url(#clip581)" style="stroke:#000000; stroke-linecap:round; stroke-linejoin:round; stroke-width:2; stroke-opacity:0.1; fill:none" points="2292.95,1349.74 2292.95,47.2441 "/>
<polyline clip-path="url(#clip581)" style="stroke:#000000; stroke-linecap:round; stroke-linejoin:round; stroke-width:2; stroke-opacity:0.1; fill:none" points="239.51,1312.88 2352.76,1312.88 "/>
<polyline clip-path="url(#clip581)" style="stroke:#000000; stroke-linecap:round; stroke-linejoin:round; stroke-width:2; stroke-opacity:0.1; fill:none" points="239.51,1089.46 2352.76,1089.46 "/>
<polyline clip-path="url(#clip581)" style="stroke:#000000; stroke-linecap:round; stroke-linejoin:round; stroke-width:2; stroke-opacity:0.1; fill:none" points="239.51,866.051 2352.76,866.051 "/>
<polyline clip-path="url(#clip581)" style="stroke:#000000; stroke-linecap:round; stroke-linejoin:round; stroke-width:2; stroke-opacity:0.1; fill:none" points="239.51,642.639 2352.76,642.639 "/>
<polyline clip-path="url(#clip581)" style="stroke:#000000; stroke-linecap:round; stroke-linejoin:round; stroke-width:2; stroke-opacity:0.1; fill:none" points="239.51,419.226 2352.76,419.226 "/>
<polyline clip-path="url(#clip581)" style="stroke:#000000; stroke-linecap:round; stroke-linejoin:round; stroke-width:2; stroke-opacity:0.1; fill:none" points="239.51,195.814 2352.76,195.814 "/>
<polyline clip-path="url(#clip580)" style="stroke:#000000; stroke-linecap:round; stroke-linejoin:round; stroke-width:4; stroke-opacity:1; fill:none" points="239.51,1349.74 2352.76,1349.74 "/>
<polyline clip-path="url(#clip580)" style="stroke:#000000; stroke-linecap:round; stroke-linejoin:round; stroke-width:4; stroke-opacity:1; fill:none" points="299.319,1349.74 299.319,1330.84 "/>
<polyline clip-path="url(#clip580)" style="stroke:#000000; stroke-linecap:round; stroke-linejoin:round; stroke-width:4; stroke-opacity:1; fill:none" points="462.064,1349.74 462.064,1330.84 "/>
<polyline clip-path="url(#clip580)" style="stroke:#000000; stroke-linecap:round; stroke-linejoin:round; stroke-width:4; stroke-opacity:1; fill:none" points="2292.95,1349.74 2292.95,1330.84 "/>
<path clip-path="url(#clip580)" d="M280.083 1447.47 L295.361 1447.47 L295.361 1394.74 L278.741 1398.07 L278.741 1389.55 L295.268 1386.22 L304.62 1386.22 L304.62 1447.47 L319.898 1447.47 L319.898 1455.34 L280.083 1455.34 L280.083 1447.47 Z" fill="#000000" fill-rule="nonzero" fill-opacity="1" /><path clip-path="url(#clip580)" d="M442.62 1386.22 L479.333 1386.22 L479.333 1394.09 L451.185 1394.09 L451.185 1411.03 Q453.222 1410.34 455.259 1410.02 Q457.296 1409.65 459.333 1409.65 Q470.907 1409.65 477.666 1415.99 Q484.425 1422.33 484.425 1433.16 Q484.425 1444.32 477.481 1450.53 Q470.536 1456.68 457.898 1456.68 Q453.546 1456.68 449.009 1455.94 Q444.518 1455.2 439.703 1453.72 L439.703 1444.32 Q443.87 1446.59 448.314 1447.7 Q452.759 1448.81 457.712 1448.81 Q465.722 1448.81 470.398 1444.6 Q475.073 1440.39 475.073 1433.16 Q475.073 1425.94 470.398 1421.73 Q465.722 1417.52 457.712 1417.52 Q453.962 1417.52 450.212 1418.35 Q446.509 1419.18 442.62 1420.94 L442.62 1386.22 Z" fill="#000000" fill-rule="nonzero" fill-opacity="1" /><path clip-path="url(#clip580)" d="M2242.35 1386.22 L2279.06 1386.22 L2279.06 1394.09 L2250.91 1394.09 L2250.91 1411.03 Q2252.95 1410.34 2254.98 1410.02 Q2257.02 1409.65 2259.06 1409.65 Q2270.63 1409.65 2277.39 1415.99 Q2284.15 1422.33 2284.15 1433.16 Q2284.15 1444.32 2277.21 1450.53 Q2270.26 1456.68 2257.62 1456.68 Q2253.27 1456.68 2248.73 1455.94 Q2244.24 1455.2 2239.43 1453.72 L2239.43 1444.32 Q2243.6 1446.59 2248.04 1447.7 Q2252.48 1448.81 2257.44 1448.81 Q2265.45 1448.81 2270.12 1444.6 Q2274.8 1440.39 2274.8 1433.16 Q2274.8 1425.94 2270.12 1421.73 Q2265.45 1417.52 2257.44 1417.52 Q2253.69 1417.52 2249.94 1418.35 Q2246.23 1419.18 2242.35 1420.94 L2242.35 1386.22 Z" fill="#000000" fill-rule="nonzero" fill-opacity="1" /><path clip-path="url(#clip580)" d="M2322.58 1392.38 Q2315.35 1392.38 2311.7 1399.51 Q2308.09 1406.59 2308.09 1420.85 Q2308.09 1435.06 2311.7 1442.19 Q2315.35 1449.28 2322.58 1449.28 Q2329.85 1449.28 2333.46 1442.19 Q2337.11 1435.06 2337.11 1420.85 Q2337.11 1406.59 2333.46 1399.51 Q2329.85 1392.38 2322.58 1392.38 M2322.58 1384.97 Q2334.2 1384.97 2340.31 1394.18 Q2346.47 1403.35 2346.47 1420.85 Q2346.47 1438.3 2340.31 1447.52 Q2334.2 1456.68 2322.58 1456.68 Q2310.96 1456.68 2304.8 1447.52 Q2298.69 1438.3 2298.69 1420.85 Q2298.69 1403.35 2304.8 1394.18 Q2310.96 1384.97 2322.58 1384.97 Z" fill="#000000" fill-rule="nonzero" fill-opacity="1" /><path clip-path="url(#clip580)" d="M1319.47 1536.37 Q1319.47 1539.7 1317.42 1541.7 Q1315.43 1543.69 1312.91 1543.69 Q1310.69 1543.69 1309.52 1542.4 Q1308.35 1541.11 1308.35 1539.47 Q1308.35 1538.77 1308.64 1537.89 Q1308.93 1536.95 1309.58 1535.84 Q1310.28 1534.73 1311.74 1533.91 Q1313.21 1533.09 1315.2 1532.97 Q1314.79 1532.56 1314.67 1532.5 Q1313.79 1531.8 1312.15 1531.57 Q1311.92 1531.45 1311.1 1531.45 Q1307.06 1531.45 1302.96 1534.43 Q1298.92 1537.36 1293.94 1542.93 Q1287.68 1549.43 1283.64 1551.83 Q1301.38 1554.17 1301.38 1564.42 Q1301.38 1566.11 1300.91 1568.16 Q1299.97 1572.03 1299.97 1574.84 Q1299.97 1580.46 1303.78 1580.46 Q1307.47 1580.46 1309.81 1576.71 Q1312.21 1572.96 1314.2 1565.65 Q1314.5 1564.3 1314.79 1563.89 Q1315.08 1563.48 1315.9 1563.48 Q1317.36 1563.48 1317.36 1564.65 Q1316.02 1571.5 1313.03 1576.77 Q1309.22 1583.15 1303.55 1583.15 Q1298.8 1583.15 1295.64 1579.87 Q1292.54 1576.54 1292.54 1571.27 Q1292.54 1569.98 1293 1567.05 Q1293.36 1565.88 1293.36 1564.53 Q1293.36 1561.78 1291.83 1559.73 Q1290.31 1557.62 1287.85 1556.57 Q1285.39 1555.52 1283.34 1555.05 Q1281.35 1554.52 1279.42 1554.34 Q1273.56 1579.11 1272.74 1580.64 Q1272.22 1581.69 1271.05 1582.39 Q1269.88 1583.15 1268.65 1583.15 Q1267.47 1583.15 1266.3 1582.33 Q1265.19 1581.57 1265.19 1579.76 Q1265.19 1578.82 1265.66 1577.12 L1283.05 1508.03 L1283.4 1505.68 Q1283.4 1504.98 1283.11 1504.63 Q1282.87 1504.22 1281.47 1503.93 Q1280.12 1503.63 1277.43 1503.63 Q1276.32 1503.63 1275.79 1503.58 Q1275.32 1503.52 1274.91 1503.22 Q1274.5 1502.87 1274.5 1502.17 Q1274.5 1501.17 1274.91 1500.65 Q1275.38 1500.06 1275.73 1499.95 Q1276.08 1499.83 1276.78 1499.77 Q1277.78 1499.71 1281.12 1499.42 Q1284.46 1499.07 1287.33 1498.83 Q1290.19 1498.6 1291.42 1498.6 Q1292.13 1498.6 1292.48 1498.95 Q1292.89 1499.24 1292.95 1499.59 L1293 1499.89 L1280.53 1550.48 Q1285.69 1548.43 1293.82 1539.35 Q1303.25 1528.81 1311.33 1528.81 Q1315.14 1528.81 1317.31 1531.16 Q1319.47 1533.44 1319.47 1536.37 Z" fill="#000000" fill-rule="nonzero" fill-opacity="1" /><polyline clip-path="url(#clip580)" style="stroke:#000000; stroke-linecap:round; stroke-linejoin:round; stroke-width:4; stroke-opacity:1; fill:none" points="239.51,1349.74 239.51,47.2441 "/>
<polyline clip-path="url(#clip580)" style="stroke:#000000; stroke-linecap:round; stroke-linejoin:round; stroke-width:4; stroke-opacity:1; fill:none" points="239.51,1312.88 258.408,1312.88 "/>
<polyline clip-path="url(#clip580)" style="stroke:#000000; stroke-linecap:round; stroke-linejoin:round; stroke-width:4; stroke-opacity:1; fill:none" points="239.51,1089.46 258.408,1089.46 "/>
<polyline clip-path="url(#clip580)" style="stroke:#000000; stroke-linecap:round; stroke-linejoin:round; stroke-width:4; stroke-opacity:1; fill:none" points="239.51,866.051 258.408,866.051 "/>
<polyline clip-path="url(#clip580)" style="stroke:#000000; stroke-linecap:round; stroke-linejoin:round; stroke-width:4; stroke-opacity:1; fill:none" points="239.51,642.639 258.408,642.639 "/>
<polyline clip-path="url(#clip580)" style="stroke:#000000; stroke-linecap:round; stroke-linejoin:round; stroke-width:4; stroke-opacity:1; fill:none" points="239.51,419.226 258.408,419.226 "/>
<polyline clip-path="url(#clip580)" style="stroke:#000000; stroke-linecap:round; stroke-linejoin:round; stroke-width:4; stroke-opacity:1; fill:none" points="239.51,195.814 258.408,195.814 "/>
<path clip-path="url(#clip580)" d="M179.621 1284.47 Q172.399 1284.47 168.742 1291.6 Q165.131 1298.69 165.131 1312.95 Q165.131 1327.16 168.742 1334.29 Q172.399 1341.37 179.621 1341.37 Q186.89 1341.37 190.501 1334.29 Q194.158 1327.16 194.158 1312.95 Q194.158 1298.69 190.501 1291.6 Q186.89 1284.47 179.621 1284.47 M179.621 1277.07 Q191.242 1277.07 197.353 1286.28 Q203.51 1295.45 203.51 1312.95 Q203.51 1330.4 197.353 1339.61 Q191.242 1348.78 179.621 1348.78 Q168.001 1348.78 161.844 1339.61 Q155.733 1330.4 155.733 1312.95 Q155.733 1295.45 161.844 1286.28 Q168.001 1277.07 179.621 1277.07 Z" fill="#000000" fill-rule="nonzero" fill-opacity="1" /><path clip-path="url(#clip580)" d="M163.696 1116.15 L178.973 1116.15 L178.973 1063.42 L162.353 1066.76 L162.353 1058.24 L178.881 1054.9 L188.233 1054.9 L188.233 1116.15 L203.51 1116.15 L203.51 1124.02 L163.696 1124.02 L163.696 1116.15 Z" fill="#000000" fill-rule="nonzero" fill-opacity="1" /><path clip-path="url(#clip580)" d="M170.872 892.741 L203.51 892.741 L203.51 900.611 L159.622 900.611 L159.622 892.741 Q164.946 887.232 174.112 877.973 Q183.325 868.667 185.686 865.982 Q190.177 860.936 191.936 857.464 Q193.742 853.945 193.742 850.565 Q193.742 845.056 189.853 841.584 Q186.01 838.112 179.807 838.112 Q175.409 838.112 170.501 839.64 Q165.64 841.167 160.085 844.269 L160.085 834.825 Q165.733 832.556 170.64 831.399 Q175.547 830.241 179.621 830.241 Q190.362 830.241 196.751 835.612 Q203.14 840.982 203.14 849.964 Q203.14 854.223 201.52 858.065 Q199.945 861.862 195.733 867.047 Q194.575 868.389 188.371 874.825 Q182.168 881.213 170.872 892.741 Z" fill="#000000" fill-rule="nonzero" fill-opacity="1" /><path clip-path="url(#clip580)" d="M189.251 639.93 Q195.964 641.366 199.714 645.903 Q203.51 650.44 203.51 657.106 Q203.51 667.338 196.473 672.94 Q189.436 678.541 176.473 678.541 Q172.122 678.541 167.492 677.662 Q162.909 676.828 158.001 675.115 L158.001 666.088 Q161.89 668.356 166.52 669.514 Q171.149 670.671 176.196 670.671 Q184.992 670.671 189.575 667.199 Q194.205 663.727 194.205 657.106 Q194.205 650.995 189.899 647.569 Q185.64 644.097 178.001 644.097 L169.946 644.097 L169.946 636.412 L178.372 636.412 Q185.27 636.412 188.927 633.681 Q192.584 630.903 192.584 625.718 Q192.584 620.394 188.788 617.569 Q185.038 614.699 178.001 614.699 Q174.159 614.699 169.76 615.532 Q165.362 616.366 160.085 618.125 L160.085 609.792 Q165.409 608.31 170.038 607.57 Q174.714 606.829 178.834 606.829 Q189.483 606.829 195.686 611.69 Q201.89 616.505 201.89 624.745 Q201.89 630.486 198.603 634.468 Q195.316 638.403 189.251 639.93 Z" fill="#000000" fill-rule="nonzero" fill-opacity="1" /><path clip-path="url(#clip580)" d="M184.344 392.814 L160.733 429.712 L184.344 429.712 L184.344 392.814 M181.89 384.666 L193.649 384.666 L193.649 429.712 L203.51 429.712 L203.51 437.49 L193.649 437.49 L193.649 453.786 L184.344 453.786 L184.344 437.49 L153.14 437.49 L153.14 428.462 L181.89 384.666 Z" fill="#000000" fill-rule="nonzero" fill-opacity="1" /><path clip-path="url(#clip580)" d="M161.705 161.254 L198.418 161.254 L198.418 169.124 L170.27 169.124 L170.27 186.068 Q172.307 185.374 174.344 185.05 Q176.381 184.679 178.418 184.679 Q189.992 184.679 196.751 191.022 Q203.51 197.364 203.51 208.198 Q203.51 219.355 196.566 225.559 Q189.621 231.716 176.983 231.716 Q172.631 231.716 168.094 230.975 Q163.603 230.235 158.788 228.753 L158.788 219.355 Q162.955 221.624 167.399 222.735 Q171.844 223.846 176.797 223.846 Q184.807 223.846 189.483 219.633 Q194.158 215.42 194.158 208.198 Q194.158 200.976 189.483 196.763 Q184.807 192.55 176.797 192.55 Q173.047 192.55 169.297 193.383 Q165.594 194.216 161.705 195.976 L161.705 161.254 Z" fill="#000000" fill-rule="nonzero" fill-opacity="1" /><path clip-path="url(#clip580)" d="M41.4097 668.976 Q45.5086 668.976 45.5086 674.832 L45.5086 688.007 Q50.7787 684.318 58.5666 684.318 Q65.242 684.318 71.5075 687.07 Q77.7145 689.763 82.0476 694.096 Q86.3808 698.371 89.0158 703.758 Q91.5923 709.145 91.5923 714.415 Q91.5923 722.438 86.1465 727.415 Q80.7008 732.392 72.6201 732.392 Q68.3455 732.392 63.6024 730.928 Q58.8594 729.406 54.4677 726.537 Q50.0174 723.667 46.4455 719.92 Q42.8736 716.114 40.707 711.195 Q38.5404 706.218 38.5404 701.006 L38.5404 673.66 Q38.5404 672.197 38.6575 671.435 Q38.7161 670.615 39.4188 669.796 Q40.0629 668.976 41.4097 668.976 M57.1613 691.988 Q55.7559 691.988 54.5262 692.164 Q53.238 692.34 51.5399 692.984 Q49.7832 693.628 48.5535 694.741 Q47.2653 695.853 46.3869 698.02 Q45.5086 700.128 45.5086 702.997 Q45.5086 707.037 47.7337 711.488 Q49.9589 715.938 55.4631 719.334 Q60.1476 722.145 66.2375 723.55 Q72.3273 724.956 75.9578 724.956 Q82.1647 724.956 85.561 721.969 Q88.8987 718.924 88.8987 714.298 Q88.8987 710.492 86.3222 706.159 Q83.6872 701.826 78.7099 698.488 Q74.3768 695.56 68.0527 693.804 Q61.7286 691.988 57.1613 691.988 Z" fill="#000000" fill-rule="nonzero" fill-opacity="1" /><path clip-path="url(#clip581)" d="M299.319 218.505 L275.071 204.505 L275.071 176.505 L299.319 162.505 L323.567 176.505 L323.567 204.505 Z" fill="#ff0000" fill-rule="evenodd" fill-opacity="1" stroke="none"/>
<path clip-path="url(#clip581)" d="M340.005 435.729 L315.757 421.729 L315.757 393.729 L340.005 379.729 L364.253 393.729 L364.253 421.729 Z" fill="#ff0000" fill-rule="evenodd" fill-opacity="1" stroke="none"/>
<path clip-path="url(#clip581)" d="M380.692 669.265 L356.444 655.265 L356.444 627.265 L380.692 613.265 L404.94 627.265 L404.94 655.265 Z" fill="#ff0000" fill-rule="evenodd" fill-opacity="1" stroke="none"/>
<path clip-path="url(#clip581)" d="M421.378 894.515 L397.13 880.515 L397.13 852.515 L421.378 838.515 L445.626 852.515 L445.626 880.515 Z" fill="#ff0000" fill-rule="evenodd" fill-opacity="1" stroke="none"/>
<path clip-path="url(#clip581)" d="M462.064 1092.34 L437.816 1078.34 L437.816 1050.34 L462.064 1036.34 L486.312 1050.34 L486.312 1078.34 Z" fill="#ff0000" fill-rule="evenodd" fill-opacity="1" stroke="none"/>
<path clip-path="url(#clip581)" d="M502.751 1236.47 L478.503 1222.47 L478.503 1194.47 L502.751 1180.47 L526.999 1194.47 L526.999 1222.47 Z" fill="#ff0000" fill-rule="evenodd" fill-opacity="1" stroke="none"/>
<path clip-path="url(#clip581)" d="M543.437 1239.2 L519.189 1225.2 L519.189 1197.2 L543.437 1183.2 L567.685 1197.2 L567.685 1225.2 Z" fill="#ff0000" fill-rule="evenodd" fill-opacity="1" stroke="none"/>
<path clip-path="url(#clip581)" d="M584.123 1242.96 L559.875 1228.96 L559.875 1200.96 L584.123 1186.96 L608.371 1200.96 L608.371 1228.96 Z" fill="#ff0000" fill-rule="evenodd" fill-opacity="1" stroke="none"/>
<path clip-path="url(#clip581)" d="M624.809 1243.76 L600.561 1229.76 L600.561 1201.76 L624.809 1187.76 L649.057 1201.76 L649.057 1229.76 Z" fill="#ff0000" fill-rule="evenodd" fill-opacity="1" stroke="none"/>
<path clip-path="url(#clip581)" d="M665.496 1245.47 L641.248 1231.47 L641.248 1203.47 L665.496 1189.47 L689.744 1203.47 L689.744 1231.47 Z" fill="#ff0000" fill-rule="evenodd" fill-opacity="1" stroke="none"/>
<path clip-path="url(#clip581)" d="M706.182 1250.89 L681.934 1236.89 L681.934 1208.89 L706.182 1194.89 L730.43 1208.89 L730.43 1236.89 Z" fill="#ff0000" fill-rule="evenodd" fill-opacity="1" stroke="none"/>
<path clip-path="url(#clip581)" d="M746.868 1252.79 L722.62 1238.79 L722.62 1210.79 L746.868 1196.79 L771.116 1210.79 L771.116 1238.79 Z" fill="#ff0000" fill-rule="evenodd" fill-opacity="1" stroke="none"/>
<path clip-path="url(#clip581)" d="M787.555 1253.66 L763.307 1239.66 L763.307 1211.66 L787.555 1197.66 L811.803 1211.66 L811.803 1239.66 Z" fill="#ff0000" fill-rule="evenodd" fill-opacity="1" stroke="none"/>
<path clip-path="url(#clip581)" d="M828.241 1257.58 L803.993 1243.58 L803.993 1215.58 L828.241 1201.58 L852.489 1215.58 L852.489 1243.58 Z" fill="#ff0000" fill-rule="evenodd" fill-opacity="1" stroke="none"/>
<path clip-path="url(#clip581)" d="M868.927 1258.86 L844.679 1244.86 L844.679 1216.86 L868.927 1202.86 L893.175 1216.86 L893.175 1244.86 Z" fill="#ff0000" fill-rule="evenodd" fill-opacity="1" stroke="none"/>
<path clip-path="url(#clip581)" d="M909.613 1259.63 L885.365 1245.63 L885.365 1217.63 L909.613 1203.63 L933.861 1217.63 L933.861 1245.63 Z" fill="#ff0000" fill-rule="evenodd" fill-opacity="1" stroke="none"/>
<path clip-path="url(#clip581)" d="M950.3 1262.27 L926.052 1248.27 L926.052 1220.27 L950.3 1206.27 L974.548 1220.27 L974.548 1248.27 Z" fill="#ff0000" fill-rule="evenodd" fill-opacity="1" stroke="none"/>
<path clip-path="url(#clip581)" d="M990.986 1263.42 L966.738 1249.42 L966.738 1221.42 L990.986 1207.42 L1015.23 1221.42 L1015.23 1249.42 Z" fill="#ff0000" fill-rule="evenodd" fill-opacity="1" stroke="none"/>
<path clip-path="url(#clip581)" d="M1031.67 1265.46 L1007.42 1251.46 L1007.42 1223.46 L1031.67 1209.46 L1055.92 1223.46 L1055.92 1251.46 Z" fill="#ff0000" fill-rule="evenodd" fill-opacity="1" stroke="none"/>
<path clip-path="url(#clip581)" d="M1072.36 1266.77 L1048.11 1252.77 L1048.11 1224.77 L1072.36 1210.77 L1096.61 1224.77 L1096.61 1252.77 Z" fill="#ff0000" fill-rule="evenodd" fill-opacity="1" stroke="none"/>
<path clip-path="url(#clip581)" d="M1113.04 1268.87 L1088.8 1254.87 L1088.8 1226.87 L1113.04 1212.87 L1137.29 1226.87 L1137.29 1254.87 Z" fill="#ff0000" fill-rule="evenodd" fill-opacity="1" stroke="none"/>
<path clip-path="url(#clip581)" d="M1153.73 1271.01 L1129.48 1257.01 L1129.48 1229.01 L1153.73 1215.01 L1177.98 1229.01 L1177.98 1257.01 Z" fill="#ff0000" fill-rule="evenodd" fill-opacity="1" stroke="none"/>
<path clip-path="url(#clip581)" d="M1194.42 1273.45 L1170.17 1259.45 L1170.17 1231.45 L1194.42 1217.45 L1218.67 1231.45 L1218.67 1259.45 Z" fill="#ff0000" fill-rule="evenodd" fill-opacity="1" stroke="none"/>
<path clip-path="url(#clip581)" d="M1235.1 1274.48 L1210.86 1260.48 L1210.86 1232.48 L1235.1 1218.48 L1259.35 1232.48 L1259.35 1260.48 Z" fill="#ff0000" fill-rule="evenodd" fill-opacity="1" stroke="none"/>
<path clip-path="url(#clip581)" d="M1275.79 1276.63 L1251.54 1262.63 L1251.54 1234.63 L1275.79 1220.63 L1300.04 1234.63 L1300.04 1262.63 Z" fill="#ff0000" fill-rule="evenodd" fill-opacity="1" stroke="none"/>
<path clip-path="url(#clip581)" d="M1316.48 1279.45 L1292.23 1265.45 L1292.23 1237.45 L1316.48 1223.45 L1340.72 1237.45 L1340.72 1265.45 Z" fill="#ff0000" fill-rule="evenodd" fill-opacity="1" stroke="none"/>
<path clip-path="url(#clip581)" d="M1357.16 1280.34 L1332.91 1266.34 L1332.91 1238.34 L1357.16 1224.34 L1381.41 1238.34 L1381.41 1266.34 Z" fill="#ff0000" fill-rule="evenodd" fill-opacity="1" stroke="none"/>
<path clip-path="url(#clip581)" d="M1397.85 1282.48 L1373.6 1268.48 L1373.6 1240.48 L1397.85 1226.48 L1422.1 1240.48 L1422.1 1268.48 Z" fill="#ff0000" fill-rule="evenodd" fill-opacity="1" stroke="none"/>
<path clip-path="url(#clip581)" d="M1438.54 1284.06 L1414.29 1270.06 L1414.29 1242.06 L1438.54 1228.06 L1462.78 1242.06 L1462.78 1270.06 Z" fill="#ff0000" fill-rule="evenodd" fill-opacity="1" stroke="none"/>
<path clip-path="url(#clip581)" d="M1479.22 1284.51 L1454.97 1270.51 L1454.97 1242.51 L1479.22 1228.51 L1503.47 1242.51 L1503.47 1270.51 Z" fill="#ff0000" fill-rule="evenodd" fill-opacity="1" stroke="none"/>
<path clip-path="url(#clip581)" d="M1519.91 1284.85 L1495.66 1270.85 L1495.66 1242.85 L1519.91 1228.85 L1544.16 1242.85 L1544.16 1270.85 Z" fill="#ff0000" fill-rule="evenodd" fill-opacity="1" stroke="none"/>
<path clip-path="url(#clip581)" d="M1560.59 1287.38 L1536.35 1273.38 L1536.35 1245.38 L1560.59 1231.38 L1584.84 1245.38 L1584.84 1273.38 Z" fill="#ff0000" fill-rule="evenodd" fill-opacity="1" stroke="none"/>
<path clip-path="url(#clip581)" d="M1601.28 1291.12 L1577.03 1277.12 L1577.03 1249.12 L1601.28 1235.12 L1625.53 1249.12 L1625.53 1277.12 Z" fill="#ff0000" fill-rule="evenodd" fill-opacity="1" stroke="none"/>
<path clip-path="url(#clip581)" d="M1641.97 1291.99 L1617.72 1277.99 L1617.72 1249.99 L1641.97 1235.99 L1666.21 1249.99 L1666.21 1277.99 Z" fill="#ff0000" fill-rule="evenodd" fill-opacity="1" stroke="none"/>
<path clip-path="url(#clip581)" d="M1682.65 1293.65 L1658.4 1279.65 L1658.4 1251.65 L1682.65 1237.65 L1706.9 1251.65 L1706.9 1279.65 Z" fill="#ff0000" fill-rule="evenodd" fill-opacity="1" stroke="none"/>
<path clip-path="url(#clip581)" d="M1723.34 1295.68 L1699.09 1281.68 L1699.09 1253.68 L1723.34 1239.68 L1747.59 1253.68 L1747.59 1281.68 Z" fill="#ff0000" fill-rule="evenodd" fill-opacity="1" stroke="none"/>
<path clip-path="url(#clip581)" d="M1764.03 1296.76 L1739.78 1282.76 L1739.78 1254.76 L1764.03 1240.76 L1788.27 1254.76 L1788.27 1282.76 Z" fill="#ff0000" fill-rule="evenodd" fill-opacity="1" stroke="none"/>
<path clip-path="url(#clip581)" d="M1804.71 1298.48 L1780.46 1284.48 L1780.46 1256.48 L1804.71 1242.48 L1828.96 1256.48 L1828.96 1284.48 Z" fill="#ff0000" fill-rule="evenodd" fill-opacity="1" stroke="none"/>
<path clip-path="url(#clip581)" d="M1845.4 1299.69 L1821.15 1285.69 L1821.15 1257.69 L1845.4 1243.69 L1869.65 1257.69 L1869.65 1285.69 Z" fill="#ff0000" fill-rule="evenodd" fill-opacity="1" stroke="none"/>
<path clip-path="url(#clip581)" d="M1886.08 1300.59 L1861.84 1286.59 L1861.84 1258.59 L1886.08 1244.59 L1910.33 1258.59 L1910.33 1286.59 Z" fill="#ff0000" fill-rule="evenodd" fill-opacity="1" stroke="none"/>
<path clip-path="url(#clip581)" d="M1926.77 1302.45 L1902.52 1288.45 L1902.52 1260.45 L1926.77 1246.45 L1951.02 1260.45 L1951.02 1288.45 Z" fill="#ff0000" fill-rule="evenodd" fill-opacity="1" stroke="none"/>
<path clip-path="url(#clip581)" d="M1967.46 1305.19 L1943.21 1291.19 L1943.21 1263.19 L1967.46 1249.19 L1991.7 1263.19 L1991.7 1291.19 Z" fill="#ff0000" fill-rule="evenodd" fill-opacity="1" stroke="none"/>
<path clip-path="url(#clip581)" d="M2008.14 1305.56 L1983.9 1291.56 L1983.9 1263.56 L2008.14 1249.56 L2032.39 1263.56 L2032.39 1291.56 Z" fill="#ff0000" fill-rule="evenodd" fill-opacity="1" stroke="none"/>
<path clip-path="url(#clip581)" d="M2048.83 1306.96 L2024.58 1292.96 L2024.58 1264.96 L2048.83 1250.96 L2073.08 1264.96 L2073.08 1292.96 Z" fill="#ff0000" fill-rule="evenodd" fill-opacity="1" stroke="none"/>
<path clip-path="url(#clip581)" d="M2089.52 1308.66 L2065.27 1294.66 L2065.27 1266.66 L2089.52 1252.66 L2113.76 1266.66 L2113.76 1294.66 Z" fill="#ff0000" fill-rule="evenodd" fill-opacity="1" stroke="none"/>
<path clip-path="url(#clip581)" d="M2130.2 1311.28 L2105.95 1297.28 L2105.95 1269.28 L2130.2 1255.28 L2154.45 1269.28 L2154.45 1297.28 Z" fill="#ff0000" fill-rule="evenodd" fill-opacity="1" stroke="none"/>
<path clip-path="url(#clip581)" d="M2170.89 1313.49 L2146.64 1299.49 L2146.64 1271.49 L2170.89 1257.49 L2195.14 1271.49 L2195.14 1299.49 Z" fill="#ff0000" fill-rule="evenodd" fill-opacity="1" stroke="none"/>
<path clip-path="url(#clip581)" d="M2211.57 1315.16 L2187.33 1301.16 L2187.33 1273.16 L2211.57 1259.16 L2235.82 1273.16 L2235.82 1301.16 Z" fill="#ff0000" fill-rule="evenodd" fill-opacity="1" stroke="none"/>
<path clip-path="url(#clip581)" d="M2252.26 1315.95 L2228.01 1301.95 L2228.01 1273.95 L2252.26 1259.95 L2276.51 1273.95 L2276.51 1301.95 Z" fill="#ff0000" fill-rule="evenodd" fill-opacity="1" stroke="none"/>
<path clip-path="url(#clip581)" d="M2292.95 1316.88 L2268.7 1302.88 L2268.7 1274.88 L2292.95 1260.88 L2317.2 1274.88 L2317.2 1302.88 Z" fill="#ff0000" fill-rule="evenodd" fill-opacity="1" stroke="none"/>
<circle clip-path="url(#clip581)" cx="299.319" cy="195.814" r="25.2" fill="#0000ff" fill-rule="evenodd" fill-opacity="1" stroke="none"/>
<circle clip-path="url(#clip581)" cx="340.005" cy="419.226" r="25.2" fill="#0000ff" fill-rule="evenodd" fill-opacity="1" stroke="none"/>
<circle clip-path="url(#clip581)" cx="380.692" cy="642.639" r="25.2" fill="#0000ff" fill-rule="evenodd" fill-opacity="1" stroke="none"/>
<circle clip-path="url(#clip581)" cx="421.378" cy="866.051" r="25.2" fill="#0000ff" fill-rule="evenodd" fill-opacity="1" stroke="none"/>
<circle clip-path="url(#clip581)" cx="462.064" cy="1089.46" r="25.2" fill="#0000ff" fill-rule="evenodd" fill-opacity="1" stroke="none"/>
<circle clip-path="url(#clip581)" cx="502.751" cy="1312.88" r="25.2" fill="#0000ff" fill-rule="evenodd" fill-opacity="1" stroke="none"/>
<circle clip-path="url(#clip581)" cx="543.437" cy="1312.88" r="25.2" fill="#0000ff" fill-rule="evenodd" fill-opacity="1" stroke="none"/>
<circle clip-path="url(#clip581)" cx="584.123" cy="1312.88" r="25.2" fill="#0000ff" fill-rule="evenodd" fill-opacity="1" stroke="none"/>
<circle clip-path="url(#clip581)" cx="624.809" cy="1312.88" r="25.2" fill="#0000ff" fill-rule="evenodd" fill-opacity="1" stroke="none"/>
<circle clip-path="url(#clip581)" cx="665.496" cy="1312.88" r="25.2" fill="#0000ff" fill-rule="evenodd" fill-opacity="1" stroke="none"/>
<circle clip-path="url(#clip581)" cx="706.182" cy="1312.88" r="25.2" fill="#0000ff" fill-rule="evenodd" fill-opacity="1" stroke="none"/>
<circle clip-path="url(#clip581)" cx="746.868" cy="1312.88" r="25.2" fill="#0000ff" fill-rule="evenodd" fill-opacity="1" stroke="none"/>
<circle clip-path="url(#clip581)" cx="787.555" cy="1312.88" r="25.2" fill="#0000ff" fill-rule="evenodd" fill-opacity="1" stroke="none"/>
<circle clip-path="url(#clip581)" cx="828.241" cy="1312.88" r="25.2" fill="#0000ff" fill-rule="evenodd" fill-opacity="1" stroke="none"/>
<circle clip-path="url(#clip581)" cx="868.927" cy="1312.88" r="25.2" fill="#0000ff" fill-rule="evenodd" fill-opacity="1" stroke="none"/>
<circle clip-path="url(#clip581)" cx="909.613" cy="1312.88" r="25.2" fill="#0000ff" fill-rule="evenodd" fill-opacity="1" stroke="none"/>
<circle clip-path="url(#clip581)" cx="950.3" cy="1312.88" r="25.2" fill="#0000ff" fill-rule="evenodd" fill-opacity="1" stroke="none"/>
<circle clip-path="url(#clip581)" cx="990.986" cy="1312.88" r="25.2" fill="#0000ff" fill-rule="evenodd" fill-opacity="1" stroke="none"/>
<circle clip-path="url(#clip581)" cx="1031.67" cy="1312.88" r="25.2" fill="#0000ff" fill-rule="evenodd" fill-opacity="1" stroke="none"/>
<circle clip-path="url(#clip581)" cx="1072.36" cy="1312.88" r="25.2" fill="#0000ff" fill-rule="evenodd" fill-opacity="1" stroke="none"/>
<circle clip-path="url(#clip581)" cx="1113.04" cy="1312.88" r="25.2" fill="#0000ff" fill-rule="evenodd" fill-opacity="1" stroke="none"/>
<circle clip-path="url(#clip581)" cx="1153.73" cy="1312.88" r="25.2" fill="#0000ff" fill-rule="evenodd" fill-opacity="1" stroke="none"/>
<circle clip-path="url(#clip581)" cx="1194.42" cy="1312.88" r="25.2" fill="#0000ff" fill-rule="evenodd" fill-opacity="1" stroke="none"/>
<circle clip-path="url(#clip581)" cx="1235.1" cy="1312.88" r="25.2" fill="#0000ff" fill-rule="evenodd" fill-opacity="1" stroke="none"/>
<circle clip-path="url(#clip581)" cx="1275.79" cy="1312.88" r="25.2" fill="#0000ff" fill-rule="evenodd" fill-opacity="1" stroke="none"/>
<circle clip-path="url(#clip581)" cx="1316.48" cy="1312.88" r="25.2" fill="#0000ff" fill-rule="evenodd" fill-opacity="1" stroke="none"/>
<circle clip-path="url(#clip581)" cx="1357.16" cy="1312.88" r="25.2" fill="#0000ff" fill-rule="evenodd" fill-opacity="1" stroke="none"/>
<circle clip-path="url(#clip581)" cx="1397.85" cy="1312.88" r="25.2" fill="#0000ff" fill-rule="evenodd" fill-opacity="1" stroke="none"/>
<circle clip-path="url(#clip581)" cx="1438.54" cy="1312.88" r="25.2" fill="#0000ff" fill-rule="evenodd" fill-opacity="1" stroke="none"/>
<circle clip-path="url(#clip581)" cx="1479.22" cy="1312.88" r="25.2" fill="#0000ff" fill-rule="evenodd" fill-opacity="1" stroke="none"/>
<circle clip-path="url(#clip581)" cx="1519.91" cy="1312.88" r="25.2" fill="#0000ff" fill-rule="evenodd" fill-opacity="1" stroke="none"/>
<circle clip-path="url(#clip581)" cx="1560.59" cy="1312.88" r="25.2" fill="#0000ff" fill-rule="evenodd" fill-opacity="1" stroke="none"/>
<circle clip-path="url(#clip581)" cx="1601.28" cy="1312.88" r="25.2" fill="#0000ff" fill-rule="evenodd" fill-opacity="1" stroke="none"/>
<circle clip-path="url(#clip581)" cx="1641.97" cy="1312.88" r="25.2" fill="#0000ff" fill-rule="evenodd" fill-opacity="1" stroke="none"/>
<circle clip-path="url(#clip581)" cx="1682.65" cy="1312.88" r="25.2" fill="#0000ff" fill-rule="evenodd" fill-opacity="1" stroke="none"/>
<circle clip-path="url(#clip581)" cx="1723.34" cy="1312.88" r="25.2" fill="#0000ff" fill-rule="evenodd" fill-opacity="1" stroke="none"/>
<circle clip-path="url(#clip581)" cx="1764.03" cy="1312.88" r="25.2" fill="#0000ff" fill-rule="evenodd" fill-opacity="1" stroke="none"/>
<circle clip-path="url(#clip581)" cx="1804.71" cy="1312.88" r="25.2" fill="#0000ff" fill-rule="evenodd" fill-opacity="1" stroke="none"/>
<circle clip-path="url(#clip581)" cx="1845.4" cy="1312.88" r="25.2" fill="#0000ff" fill-rule="evenodd" fill-opacity="1" stroke="none"/>
<circle clip-path="url(#clip581)" cx="1886.08" cy="1312.88" r="25.2" fill="#0000ff" fill-rule="evenodd" fill-opacity="1" stroke="none"/>
<circle clip-path="url(#clip581)" cx="1926.77" cy="1312.88" r="25.2" fill="#0000ff" fill-rule="evenodd" fill-opacity="1" stroke="none"/>
<circle clip-path="url(#clip581)" cx="1967.46" cy="1312.88" r="25.2" fill="#0000ff" fill-rule="evenodd" fill-opacity="1" stroke="none"/>
<circle clip-path="url(#clip581)" cx="2008.14" cy="1312.88" r="25.2" fill="#0000ff" fill-rule="evenodd" fill-opacity="1" stroke="none"/>
<circle clip-path="url(#clip581)" cx="2048.83" cy="1312.88" r="25.2" fill="#0000ff" fill-rule="evenodd" fill-opacity="1" stroke="none"/>
<circle clip-path="url(#clip581)" cx="2089.52" cy="1312.88" r="25.2" fill="#0000ff" fill-rule="evenodd" fill-opacity="1" stroke="none"/>
<circle clip-path="url(#clip581)" cx="2130.2" cy="1312.88" r="25.2" fill="#0000ff" fill-rule="evenodd" fill-opacity="1" stroke="none"/>
<circle clip-path="url(#clip581)" cx="2170.89" cy="1312.88" r="25.2" fill="#0000ff" fill-rule="evenodd" fill-opacity="1" stroke="none"/>
<circle clip-path="url(#clip581)" cx="2211.57" cy="1312.88" r="25.2" fill="#0000ff" fill-rule="evenodd" fill-opacity="1" stroke="none"/>
<circle clip-path="url(#clip581)" cx="2252.26" cy="1312.88" r="25.2" fill="#0000ff" fill-rule="evenodd" fill-opacity="1" stroke="none"/>
<circle clip-path="url(#clip581)" cx="2292.95" cy="1312.88" r="25.2" fill="#0000ff" fill-rule="evenodd" fill-opacity="1" stroke="none"/>
<path clip-path="url(#clip580)" d="M1397.81 421.141 L2282.31 421.141 L2282.31 90.6606 L1397.81 90.6606  Z" fill="#ffffff" fill-rule="evenodd" fill-opacity="1"/>
<polyline clip-path="url(#clip580)" style="stroke:#000000; stroke-linecap:round; stroke-linejoin:round; stroke-width:4; stroke-opacity:1; fill:none" points="1397.81,421.141 2282.31,421.141 2282.31,90.6606 1397.81,90.6606 1397.81,421.141 "/>
<path clip-path="url(#clip580)" d="M1491.73 251.594 L1447.76 226.207 L1447.76 175.434 L1491.73 150.047 L1535.7 175.434 L1535.7 226.207 Z" fill="#ff0000" fill-rule="evenodd" fill-opacity="1" stroke="none"/>
<path clip-path="url(#clip580)" d="M1639.56 181.49 Q1639.56 184.974 1634.58 184.974 L1623.38 184.974 Q1626.52 189.454 1626.52 196.074 Q1626.52 201.748 1624.18 207.073 Q1621.89 212.349 1618.21 216.032 Q1614.57 219.716 1609.99 221.955 Q1605.42 224.145 1600.94 224.145 Q1594.12 224.145 1589.89 219.517 Q1585.66 214.888 1585.66 208.019 Q1585.66 204.386 1586.9 200.354 Q1588.19 196.322 1590.63 192.59 Q1593.07 188.807 1596.26 185.771 Q1599.49 182.735 1603.67 180.893 Q1607.9 179.051 1612.33 179.051 L1635.58 179.051 Q1636.82 179.051 1637.47 179.151 Q1638.17 179.201 1638.86 179.798 Q1639.56 180.345 1639.56 181.49 M1620 194.879 Q1620 193.685 1619.85 192.639 Q1619.7 191.544 1619.15 190.101 Q1618.6 188.608 1617.66 187.562 Q1616.71 186.467 1614.87 185.721 Q1613.08 184.974 1610.64 184.974 Q1607.21 184.974 1603.42 186.866 Q1599.64 188.757 1596.75 193.436 Q1594.37 197.417 1593.17 202.594 Q1591.98 207.77 1591.98 210.856 Q1591.98 216.132 1594.51 219.019 Q1597.1 221.856 1601.04 221.856 Q1604.27 221.856 1607.95 219.666 Q1611.64 217.426 1614.47 213.195 Q1616.96 209.512 1618.46 204.137 Q1620 198.761 1620 194.879 Z" fill="#000000" fill-rule="nonzero" fill-opacity="1" /><path clip-path="url(#clip580)" d="M1682.21 226.524 Q1682.21 228.51 1680.99 229.695 Q1679.8 230.88 1678.31 230.88 Q1676.98 230.88 1676.28 230.113 Q1675.59 229.347 1675.59 228.371 Q1675.59 227.953 1675.76 227.43 Q1675.94 226.873 1676.32 226.211 Q1676.74 225.549 1677.61 225.061 Q1678.48 224.573 1679.66 224.504 Q1679.42 224.26 1679.35 224.225 Q1678.83 223.807 1677.85 223.667 Q1677.71 223.598 1677.23 223.598 Q1674.82 223.598 1672.38 225.375 Q1669.98 227.117 1667.02 230.427 Q1663.29 234.294 1660.89 235.722 Q1671.44 237.116 1671.44 243.213 Q1671.44 244.224 1671.16 245.443 Q1670.61 247.743 1670.61 249.415 Q1670.61 252.76 1672.87 252.76 Q1675.07 252.76 1676.46 250.53 Q1677.89 248.3 1679.07 243.945 Q1679.25 243.144 1679.42 242.9 Q1679.59 242.656 1680.08 242.656 Q1680.95 242.656 1680.95 243.353 Q1680.15 247.429 1678.38 250.565 Q1676.11 254.362 1672.73 254.362 Q1669.91 254.362 1668.03 252.411 Q1666.18 250.425 1666.18 247.29 Q1666.18 246.523 1666.46 244.781 Q1666.67 244.084 1666.67 243.283 Q1666.67 241.645 1665.76 240.426 Q1664.86 239.172 1663.39 238.545 Q1661.93 237.917 1660.71 237.639 Q1659.53 237.325 1658.38 237.221 Q1654.89 251.958 1654.4 252.864 Q1654.09 253.491 1653.39 253.909 Q1652.7 254.362 1651.97 254.362 Q1651.27 254.362 1650.57 253.874 Q1649.91 253.422 1649.91 252.342 Q1649.91 251.784 1650.19 250.774 L1660.54 209.661 L1660.75 208.268 Q1660.75 207.85 1660.57 207.641 Q1660.43 207.397 1659.6 207.223 Q1658.79 207.048 1657.19 207.048 Q1656.53 207.048 1656.22 207.014 Q1655.94 206.979 1655.69 206.804 Q1655.45 206.595 1655.45 206.177 Q1655.45 205.585 1655.69 205.271 Q1655.97 204.923 1656.18 204.853 Q1656.39 204.784 1656.81 204.749 Q1657.4 204.714 1659.39 204.54 Q1661.37 204.331 1663.08 204.191 Q1664.79 204.052 1665.52 204.052 Q1665.94 204.052 1666.15 204.261 Q1666.39 204.435 1666.42 204.644 L1666.46 204.819 L1659.04 234.921 Q1662.1 233.702 1666.95 228.301 Q1672.56 222.03 1677.36 222.03 Q1679.63 222.03 1680.92 223.424 Q1682.21 224.782 1682.21 226.524 Z" fill="#000000" fill-rule="nonzero" fill-opacity="1" /><path clip-path="url(#clip580)" d="M1692.77 197.517 Q1692.77 180.296 1699.19 166.409 Q1701.93 160.586 1705.76 155.708 Q1709.59 150.83 1712.13 148.69 Q1714.67 146.55 1715.37 146.55 Q1716.36 146.55 1716.41 147.545 Q1716.41 148.043 1715.07 149.287 Q1698.64 166.011 1698.69 197.517 Q1698.69 229.123 1714.67 245.199 Q1716.41 246.941 1716.41 247.489 Q1716.41 248.484 1715.37 248.484 Q1714.67 248.484 1712.23 246.444 Q1709.79 244.403 1706.01 239.724 Q1702.23 235.046 1699.49 229.322 Q1692.77 215.435 1692.77 197.517 Z" fill="#000000" fill-rule="nonzero" fill-opacity="1" /><path clip-path="url(#clip580)" d="M1798.27 154.613 Q1798.27 155.26 1798.12 155.658 Q1798.02 156.056 1797.62 156.255 Q1797.27 156.405 1797.03 156.455 Q1796.83 156.504 1796.23 156.554 Q1793.79 156.753 1791.75 157.4 Q1789.71 157.997 1787.97 159.192 Q1786.27 160.387 1785.33 161.183 Q1784.43 161.979 1782.84 163.572 L1781.45 165.015 L1756.16 194.033 Q1755.27 195.028 1754.72 197.218 L1751.14 211.603 Q1749.74 217.575 1749.74 218.023 Q1749.74 218.919 1750.24 219.218 Q1750.79 219.467 1752.48 219.616 L1756.36 219.865 Q1758.65 219.865 1759 220.263 Q1759.2 220.512 1759.2 220.96 Q1759.2 221.906 1758.8 222.403 Q1758.45 222.851 1758.1 222.951 Q1757.8 223.001 1757.26 223.001 L1744.22 222.702 L1731.38 223.001 Q1729.93 223.001 1729.93 221.856 Q1729.93 221.109 1730.03 220.711 Q1730.18 220.263 1730.63 220.114 Q1731.08 219.915 1731.43 219.915 Q1731.77 219.865 1732.72 219.865 Q1735.01 219.815 1736.15 219.815 Q1737.35 219.765 1738.49 219.467 Q1739.64 219.168 1740.04 218.969 Q1740.48 218.72 1740.98 217.874 Q1741.53 216.978 1741.68 216.281 Q1741.88 215.584 1742.28 213.842 Q1742.67 212.299 1744.76 203.888 Q1746.85 195.476 1746.85 195.277 Q1746.85 194.73 1746.46 193.535 L1733.91 159.988 Q1733.37 158.495 1732.92 157.898 Q1732.47 157.301 1730.98 156.952 Q1729.48 156.554 1726.5 156.554 Q1725.65 156.554 1725.25 156.504 Q1724.86 156.455 1724.51 156.206 Q1724.16 155.957 1724.16 155.409 Q1724.16 154.464 1724.56 154.016 Q1724.95 153.518 1725.25 153.468 Q1725.6 153.369 1726.1 153.369 Q1727.34 153.369 1731.77 153.518 Q1736.2 153.667 1737.5 153.667 L1750.34 153.369 Q1751.88 153.369 1751.88 154.513 Q1751.88 155.907 1751.33 156.255 Q1750.79 156.554 1749.44 156.554 Q1743.42 156.554 1743.42 158.993 Q1743.42 159.292 1744.02 160.735 L1755.22 190.997 L1778.86 163.771 L1779.21 163.373 Q1779.51 162.975 1779.75 162.676 Q1780 162.377 1780.4 161.83 Q1780.8 161.282 1781 160.835 Q1781.25 160.387 1781.45 159.839 Q1781.65 159.292 1781.65 158.893 Q1781.65 158.147 1781.2 157.649 Q1780.75 157.102 1780.05 156.902 Q1779.36 156.703 1778.86 156.654 Q1778.36 156.554 1777.96 156.554 Q1776.42 156.554 1776.42 155.31 Q1776.42 154.414 1776.82 153.966 Q1777.22 153.468 1777.51 153.418 Q1777.86 153.369 1778.36 153.369 Q1780 153.369 1783.44 153.518 Q1786.87 153.667 1788.56 153.667 Q1789.96 153.667 1792.8 153.518 Q1795.63 153.369 1796.93 153.369 Q1798.27 153.369 1798.27 154.613 Z" fill="#000000" fill-rule="nonzero" fill-opacity="1" /><path clip-path="url(#clip580)" d="M1810.1 247.489 Q1810.1 246.991 1811.4 245.747 Q1827.82 229.023 1827.82 197.517 Q1827.82 165.911 1812.05 149.934 Q1810.1 148.093 1810.1 147.545 Q1810.1 146.55 1811.1 146.55 Q1811.8 146.55 1814.24 148.59 Q1816.72 150.631 1820.46 155.31 Q1824.24 159.988 1827.03 165.712 Q1833.75 179.599 1833.75 197.517 Q1833.75 214.738 1827.33 228.625 Q1824.59 234.448 1820.76 239.326 Q1816.92 244.204 1814.39 246.344 Q1811.85 248.484 1811.1 248.484 Q1810.1 248.484 1810.1 247.489 Z" fill="#000000" fill-rule="nonzero" fill-opacity="1" /><path clip-path="url(#clip580)" d="M1876.18 223.001 L1876.18 219.865 Q1881.6 219.865 1882.84 219.218 Q1884.09 218.521 1884.09 215.236 L1884.09 187.911 Q1884.09 184.128 1882.75 183.182 Q1881.45 182.237 1876.18 182.237 L1876.18 179.051 L1890.51 177.956 L1890.51 188.657 Q1895.29 177.956 1905.59 177.956 Q1913.26 177.956 1916.29 181.739 Q1918.53 184.277 1918.98 187.115 Q1919.48 189.952 1919.48 197.318 L1919.48 216.779 Q1919.58 218.919 1921.22 219.417 Q1922.86 219.865 1927.44 219.865 L1927.44 223.001 Q1917.04 222.702 1915.99 222.702 Q1915.2 222.702 1904.5 223.001 L1904.5 219.865 Q1909.92 219.865 1911.17 219.218 Q1912.46 218.521 1912.46 215.236 L1912.46 191.495 Q1912.46 186.318 1910.87 183.282 Q1909.27 180.196 1904.89 180.196 Q1899.62 180.196 1895.39 184.626 Q1891.16 189.056 1891.16 196.522 L1891.16 215.236 Q1891.16 218.521 1892.4 219.218 Q1893.7 219.865 1899.07 219.865 L1899.07 223.001 Q1888.67 222.702 1887.67 222.702 Q1886.88 222.702 1876.18 223.001 Z" fill="#000000" fill-rule="nonzero" fill-opacity="1" /><path clip-path="url(#clip580)" d="M1941.34 217.526 Q1934.62 210.856 1934.62 201.2 Q1934.62 191.495 1941.19 184.427 Q1947.81 177.309 1957.27 177.309 Q1966.52 177.309 1973.14 184.377 Q1979.81 191.395 1979.81 201.2 Q1979.81 210.806 1973.09 217.476 Q1966.43 224.145 1957.17 224.145 Q1948.11 224.145 1941.34 217.526 M1943.08 200.354 Q1943.08 210.259 1945.67 214.738 Q1949.65 221.557 1957.27 221.557 Q1961.05 221.557 1964.19 219.517 Q1967.37 217.476 1969.11 214.042 Q1971.35 209.562 1971.35 200.354 Q1971.35 190.549 1968.67 186.219 Q1964.68 179.599 1957.17 179.599 Q1953.88 179.599 1950.65 181.341 Q1947.46 183.033 1945.52 186.418 Q1943.08 190.897 1943.08 200.354 Z" fill="#000000" fill-rule="nonzero" fill-opacity="1" /><path clip-path="url(#clip580)" d="M1983.06 223.001 L1983.06 219.865 Q1988.48 219.865 1989.73 219.218 Q1990.97 218.521 1990.97 215.236 L1990.97 187.811 Q1990.97 184.029 1989.68 183.133 Q1988.43 182.237 1983.46 182.237 L1983.46 179.051 L1997.69 177.956 L1997.69 215.336 Q1997.69 218.372 1998.79 219.118 Q1999.88 219.865 2004.86 219.865 L2004.86 223.001 Q1994.46 222.702 1994.26 222.702 Q1992.86 222.702 1983.06 223.001 M1987.34 160.187 Q1987.34 158.147 1988.88 156.504 Q1990.47 154.812 1992.71 154.812 Q1994.95 154.812 1996.55 156.355 Q1998.14 157.848 1998.14 160.237 Q1998.14 162.577 1996.55 164.12 Q1994.95 165.613 1992.71 165.613 Q1990.37 165.613 1988.83 163.97 Q1987.34 162.328 1987.34 160.187 Z" fill="#000000" fill-rule="nonzero" fill-opacity="1" /><path clip-path="url(#clip580)" d="M2013.86 221.657 L2013.86 208.218 Q2013.86 207.073 2013.91 206.675 Q2013.96 206.277 2014.26 205.978 Q2014.56 205.68 2015.16 205.68 Q2015.85 205.68 2016.1 205.978 Q2016.4 206.277 2016.6 207.422 Q2018.14 214.44 2021.43 218.173 Q2024.76 221.856 2030.79 221.856 Q2036.51 221.856 2039.4 219.317 Q2042.28 216.779 2042.28 212.598 Q2042.28 205.132 2031.68 203.241 Q2025.56 201.997 2023.02 201.2 Q2020.48 200.354 2018.24 198.512 Q2013.86 194.929 2013.86 189.852 Q2013.86 184.775 2017.7 181.042 Q2021.58 177.309 2030.14 177.309 Q2035.86 177.309 2039.74 180.196 Q2040.89 179.3 2041.49 178.554 Q2042.83 177.309 2043.53 177.309 Q2044.32 177.309 2044.47 177.857 Q2044.62 178.355 2044.62 179.798 L2044.62 190.051 Q2044.62 191.196 2044.57 191.594 Q2044.52 191.992 2044.22 192.291 Q2043.93 192.54 2043.28 192.54 Q2042.13 192.54 2042.08 191.594 Q2041.29 179.25 2030.14 179.25 Q2024.12 179.25 2021.43 181.59 Q2018.74 183.879 2018.74 187.015 Q2018.74 188.757 2019.54 190.101 Q2020.38 191.395 2021.43 192.191 Q2022.52 192.938 2024.51 193.685 Q2026.5 194.381 2027.7 194.63 Q2028.94 194.879 2031.28 195.377 Q2039.45 196.92 2042.88 200.254 Q2047.16 204.535 2047.16 209.96 Q2047.16 215.983 2043.08 220.064 Q2039 224.145 2030.79 224.145 Q2024.17 224.145 2019.54 219.716 Q2018.94 220.313 2018.49 220.86 Q2018.04 221.358 2017.84 221.557 Q2017.7 221.756 2017.65 221.906 Q2017.6 222.005 2017.5 222.105 Q2015.46 224.145 2014.96 224.145 Q2014.16 224.145 2014.01 223.598 Q2013.86 223.1 2013.86 221.657 Z" fill="#000000" fill-rule="nonzero" fill-opacity="1" /><path clip-path="url(#clip580)" d="M2051.15 235.643 Q2051.15 233.503 2052.39 232.358 Q2053.68 231.263 2055.43 231.263 Q2057.27 231.263 2058.46 232.408 Q2059.71 233.602 2059.71 235.543 Q2059.71 239.326 2055.72 239.824 Q2057.67 241.665 2060.5 241.665 Q2063.54 241.665 2065.98 239.426 Q2068.47 237.186 2069.51 235.046 Q2070.61 232.905 2072.15 229.023 Q2073.59 225.987 2074.69 223.001 L2059.41 185.771 Q2058.41 183.332 2056.87 182.784 Q2055.33 182.237 2051.15 182.237 L2051.15 179.051 Q2055.72 179.35 2061.05 179.35 Q2064.19 179.35 2072.15 179.051 L2072.15 182.237 Q2066.43 182.237 2066.43 184.875 Q2066.43 185.173 2067.02 186.716 L2078.37 214.141 L2088.67 189.056 Q2089.27 187.612 2089.27 186.617 Q2089.27 182.436 2084.49 182.237 L2084.49 179.051 Q2091.21 179.35 2093.35 179.35 Q2097.53 179.35 2100.97 179.051 L2100.97 182.237 Q2094.15 182.237 2091.51 188.757 L2073.54 232.258 Q2068.67 243.855 2060.5 243.905 Q2056.62 243.905 2053.88 241.516 Q2051.15 239.127 2051.15 235.643 Z" fill="#000000" fill-rule="nonzero" fill-opacity="1" /><circle clip-path="url(#clip580)" cx="1491.73" cy="310.981" r="45.696" fill="#0000ff" fill-rule="evenodd" fill-opacity="1" stroke="none"/>
<path clip-path="url(#clip580)" d="M1639.56 291.65 Q1639.56 295.134 1634.58 295.134 L1623.38 295.134 Q1626.52 299.614 1626.52 306.234 Q1626.52 311.908 1624.18 317.233 Q1621.89 322.509 1618.21 326.192 Q1614.57 329.876 1609.99 332.115 Q1605.42 334.305 1600.94 334.305 Q1594.12 334.305 1589.89 329.677 Q1585.66 325.048 1585.66 318.179 Q1585.66 314.546 1586.9 310.514 Q1588.19 306.482 1590.63 302.75 Q1593.07 298.967 1596.26 295.931 Q1599.49 292.895 1603.67 291.053 Q1607.9 289.211 1612.33 289.211 L1635.58 289.211 Q1636.82 289.211 1637.47 289.311 Q1638.17 289.361 1638.86 289.958 Q1639.56 290.505 1639.56 291.65 M1620 305.039 Q1620 303.845 1619.85 302.799 Q1619.7 301.704 1619.15 300.261 Q1618.6 298.768 1617.66 297.722 Q1616.71 296.627 1614.87 295.881 Q1613.08 295.134 1610.64 295.134 Q1607.21 295.134 1603.42 297.026 Q1599.64 298.917 1596.75 303.596 Q1594.37 307.577 1593.17 312.754 Q1591.98 317.93 1591.98 321.016 Q1591.98 326.292 1594.51 329.179 Q1597.1 332.016 1601.04 332.016 Q1604.27 332.016 1607.95 329.826 Q1611.64 327.586 1614.47 323.355 Q1616.96 319.672 1618.46 314.297 Q1620 308.921 1620 305.039 Z" fill="#000000" fill-rule="nonzero" fill-opacity="1" /><path clip-path="url(#clip580)" d="M1682.21 336.684 Q1682.21 338.67 1680.99 339.855 Q1679.8 341.04 1678.31 341.04 Q1676.98 341.04 1676.28 340.273 Q1675.59 339.507 1675.59 338.531 Q1675.59 338.113 1675.76 337.59 Q1675.94 337.033 1676.32 336.371 Q1676.74 335.709 1677.61 335.221 Q1678.48 334.733 1679.66 334.664 Q1679.42 334.42 1679.35 334.385 Q1678.83 333.967 1677.85 333.827 Q1677.71 333.758 1677.23 333.758 Q1674.82 333.758 1672.38 335.535 Q1669.98 337.277 1667.02 340.587 Q1663.29 344.454 1660.89 345.882 Q1671.44 347.276 1671.44 353.373 Q1671.44 354.384 1671.16 355.603 Q1670.61 357.903 1670.61 359.575 Q1670.61 362.92 1672.87 362.92 Q1675.07 362.92 1676.46 360.69 Q1677.89 358.46 1679.07 354.105 Q1679.25 353.304 1679.42 353.06 Q1679.59 352.816 1680.08 352.816 Q1680.95 352.816 1680.95 353.513 Q1680.15 357.589 1678.38 360.725 Q1676.11 364.522 1672.73 364.522 Q1669.91 364.522 1668.03 362.571 Q1666.18 360.585 1666.18 357.45 Q1666.18 356.683 1666.46 354.941 Q1666.67 354.244 1666.67 353.443 Q1666.67 351.805 1665.76 350.586 Q1664.86 349.332 1663.39 348.705 Q1661.93 348.077 1660.71 347.799 Q1659.53 347.485 1658.38 347.381 Q1654.89 362.118 1654.4 363.024 Q1654.09 363.651 1653.39 364.069 Q1652.7 364.522 1651.97 364.522 Q1651.27 364.522 1650.57 364.034 Q1649.91 363.582 1649.91 362.502 Q1649.91 361.944 1650.19 360.934 L1660.54 319.821 L1660.75 318.428 Q1660.75 318.01 1660.57 317.801 Q1660.43 317.557 1659.6 317.383 Q1658.79 317.208 1657.19 317.208 Q1656.53 317.208 1656.22 317.174 Q1655.94 317.139 1655.69 316.964 Q1655.45 316.755 1655.45 316.337 Q1655.45 315.745 1655.69 315.431 Q1655.97 315.083 1656.18 315.013 Q1656.39 314.944 1656.81 314.909 Q1657.4 314.874 1659.39 314.7 Q1661.37 314.491 1663.08 314.351 Q1664.79 314.212 1665.52 314.212 Q1665.94 314.212 1666.15 314.421 Q1666.39 314.595 1666.42 314.804 L1666.46 314.979 L1659.04 345.081 Q1662.1 343.862 1666.95 338.461 Q1672.56 332.19 1677.36 332.19 Q1679.63 332.19 1680.92 333.584 Q1682.21 334.942 1682.21 336.684 Z" fill="#000000" fill-rule="nonzero" fill-opacity="1" /><path clip-path="url(#clip580)" d="M1692.77 307.677 Q1692.77 290.456 1699.19 276.569 Q1701.93 270.746 1705.76 265.868 Q1709.59 260.99 1712.13 258.85 Q1714.67 256.71 1715.37 256.71 Q1716.36 256.71 1716.41 257.705 Q1716.41 258.203 1715.07 259.447 Q1698.64 276.171 1698.69 307.677 Q1698.69 339.283 1714.67 355.359 Q1716.41 357.101 1716.41 357.649 Q1716.41 358.644 1715.37 358.644 Q1714.67 358.644 1712.23 356.604 Q1709.79 354.563 1706.01 349.884 Q1702.23 345.206 1699.49 339.482 Q1692.77 325.595 1692.77 307.677 Z" fill="#000000" fill-rule="nonzero" fill-opacity="1" /><path clip-path="url(#clip580)" d="M1807.77 264.673 Q1807.77 265.569 1807.42 266.067 Q1807.12 266.515 1806.77 266.615 Q1806.42 266.664 1805.53 266.714 Q1798.41 267.062 1792.59 271.89 Q1791.14 273.135 1787.51 277.017 Q1783.93 280.899 1779.15 286.076 Q1774.42 291.252 1771.68 294.039 L1784.82 325.496 Q1785.37 326.74 1785.57 327.287 Q1785.82 327.785 1786.31 328.432 Q1786.86 329.079 1787.26 329.278 Q1787.71 329.477 1788.65 329.726 Q1789.65 329.925 1790.65 329.975 Q1791.69 329.975 1793.58 330.025 Q1794.18 330.025 1794.43 330.075 Q1794.73 330.075 1795.07 330.373 Q1795.42 330.622 1795.42 331.219 Q1795.42 332.115 1795.03 332.613 Q1794.68 333.061 1794.33 333.111 Q1794.03 333.161 1793.48 333.161 Q1792.19 333.161 1787.81 333.011 Q1783.43 332.862 1782.18 332.862 L1769.34 333.161 Q1767.8 333.161 1767.8 331.916 Q1767.8 331.269 1767.9 330.921 Q1768.05 330.523 1768.4 330.373 Q1768.75 330.174 1768.99 330.124 Q1769.24 330.075 1769.84 330.025 Q1771.68 329.826 1773.08 329.278 Q1774.52 328.681 1775.12 328.084 Q1775.76 327.487 1775.76 327.039 L1775.27 325.595 L1764.96 301.256 L1755.75 311.261 L1745.35 322.26 Q1742.61 325.197 1742.61 326.839 Q1742.61 329.577 1746.7 330.025 Q1747.94 330.124 1747.94 331.12 Q1747.94 332.066 1747.54 332.563 Q1747.19 333.011 1746.85 333.111 Q1746.55 333.161 1746.1 333.161 Q1744.26 333.161 1740.37 333.011 Q1736.54 332.862 1734.65 332.862 Q1733.06 332.862 1729.82 333.011 Q1726.59 333.161 1725.09 333.161 Q1724.5 333.161 1724.15 332.862 Q1723.8 332.563 1723.8 332.265 L1723.75 332.016 Q1723.75 331.319 1723.85 330.921 Q1724 330.523 1724.4 330.324 Q1724.85 330.124 1725.04 330.124 Q1725.24 330.075 1725.99 330.025 Q1730.22 329.776 1733.8 328.134 Q1737.44 326.491 1740.97 322.659 Q1741.27 322.41 1741.62 322.111 Q1742.02 321.812 1742.32 321.564 L1763.82 298.419 L1751.77 269.949 Q1751.23 268.655 1750.73 268.108 Q1750.23 267.51 1748.69 267.112 Q1747.14 266.714 1744.16 266.714 Q1743.31 266.714 1742.91 266.664 Q1742.51 266.615 1742.17 266.366 Q1741.82 266.117 1741.82 265.569 Q1741.82 264.624 1742.17 264.176 Q1742.56 263.678 1742.86 263.628 Q1743.21 263.529 1743.66 263.529 Q1744.9 263.529 1749.33 263.678 Q1753.76 263.827 1755.06 263.827 Q1757.2 263.827 1761.48 263.678 Q1765.81 263.529 1767.9 263.529 Q1769.44 263.529 1769.44 264.773 Q1769.44 265.569 1769.09 266.017 Q1768.75 266.465 1768.4 266.565 Q1768.05 266.664 1767.4 266.714 Q1765.46 266.913 1763.97 267.56 Q1762.52 268.157 1761.93 268.755 Q1761.38 269.302 1761.38 269.651 L1761.88 270.995 L1770.44 291.252 L1786.96 273.533 Q1788.9 271.343 1788.9 269.85 Q1788.9 267.162 1784.82 266.714 Q1783.58 266.515 1783.58 265.569 Q1783.58 264.624 1783.98 264.176 Q1784.37 263.678 1784.67 263.628 Q1785.02 263.529 1785.52 263.529 Q1787.36 263.529 1791.14 263.678 Q1794.98 263.827 1796.87 263.827 Q1798.46 263.827 1801.69 263.678 Q1804.93 263.529 1806.42 263.529 Q1807.02 263.529 1807.37 263.827 Q1807.72 264.076 1807.72 264.375 L1807.77 264.673 Z" fill="#000000" fill-rule="nonzero" fill-opacity="1" /><path clip-path="url(#clip580)" d="M1817.91 357.649 Q1817.91 357.151 1819.21 355.907 Q1835.63 339.183 1835.63 307.677 Q1835.63 276.071 1819.85 260.094 Q1817.91 258.253 1817.91 257.705 Q1817.91 256.71 1818.91 256.71 Q1819.6 256.71 1822.04 258.75 Q1824.53 260.791 1828.26 265.47 Q1832.05 270.148 1834.83 275.872 Q1841.55 289.759 1841.55 307.677 Q1841.55 324.898 1835.13 338.785 Q1832.39 344.608 1828.56 349.486 Q1824.73 354.364 1822.19 356.504 Q1819.65 358.644 1818.91 358.644 Q1817.91 358.644 1817.91 357.649 Z" fill="#000000" fill-rule="nonzero" fill-opacity="1" /><path clip-path="url(#clip580)" d="M1883.98 333.161 L1883.98 330.025 Q1889.41 330.025 1890.65 329.378 Q1891.9 328.681 1891.9 325.396 L1891.9 298.071 Q1891.9 294.288 1890.55 293.342 Q1889.26 292.397 1883.98 292.397 L1883.98 289.211 L1898.32 288.116 L1898.32 298.817 Q1903.09 288.116 1913.4 288.116 Q1921.06 288.116 1924.1 291.899 Q1926.34 294.437 1926.79 297.275 Q1927.28 300.112 1927.28 307.478 L1927.28 326.939 Q1927.38 329.079 1929.03 329.577 Q1930.67 330.025 1935.25 330.025 L1935.25 333.161 Q1924.85 332.862 1923.8 332.862 Q1923 332.862 1912.3 333.161 L1912.3 330.025 Q1917.73 330.025 1918.97 329.378 Q1920.27 328.681 1920.27 325.396 L1920.27 301.655 Q1920.27 296.478 1918.67 293.442 Q1917.08 290.356 1912.7 290.356 Q1907.42 290.356 1903.19 294.786 Q1898.96 299.216 1898.96 306.682 L1898.96 325.396 Q1898.96 328.681 1900.21 329.378 Q1901.5 330.025 1906.88 330.025 L1906.88 333.161 Q1896.47 332.862 1895.48 332.862 Q1894.68 332.862 1883.98 333.161 Z" fill="#000000" fill-rule="nonzero" fill-opacity="1" /><path clip-path="url(#clip580)" d="M1949.15 327.686 Q1942.43 321.016 1942.43 311.36 Q1942.43 301.655 1949 294.587 Q1955.62 287.469 1965.07 287.469 Q1974.33 287.469 1980.95 294.537 Q1987.62 301.555 1987.62 311.36 Q1987.62 320.966 1980.9 327.636 Q1974.23 334.305 1964.97 334.305 Q1955.92 334.305 1949.15 327.686 M1950.89 310.514 Q1950.89 320.419 1953.48 324.898 Q1957.46 331.717 1965.07 331.717 Q1968.86 331.717 1971.99 329.677 Q1975.18 327.636 1976.92 324.202 Q1979.16 319.722 1979.16 310.514 Q1979.16 300.709 1976.47 296.379 Q1972.49 289.759 1964.97 289.759 Q1961.69 289.759 1958.45 291.501 Q1955.27 293.193 1953.33 296.578 Q1950.89 301.057 1950.89 310.514 Z" fill="#000000" fill-rule="nonzero" fill-opacity="1" /><path clip-path="url(#clip580)" d="M1990.86 333.161 L1990.86 330.025 Q1996.29 330.025 1997.53 329.378 Q1998.78 328.681 1998.78 325.396 L1998.78 297.971 Q1998.78 294.189 1997.48 293.293 Q1996.24 292.397 1991.26 292.397 L1991.26 289.211 L2005.5 288.116 L2005.5 325.496 Q2005.5 328.532 2006.59 329.278 Q2007.69 330.025 2012.66 330.025 L2012.66 333.161 Q2002.26 332.862 2002.06 332.862 Q2000.67 332.862 1990.86 333.161 M1995.14 270.347 Q1995.14 268.307 1996.69 266.664 Q1998.28 264.972 2000.52 264.972 Q2002.76 264.972 2004.35 266.515 Q2005.94 268.008 2005.94 270.397 Q2005.94 272.737 2004.35 274.28 Q2002.76 275.773 2000.52 275.773 Q1998.18 275.773 1996.64 274.13 Q1995.14 272.488 1995.14 270.347 Z" fill="#000000" fill-rule="nonzero" fill-opacity="1" /><path clip-path="url(#clip580)" d="M2021.67 331.817 L2021.67 318.378 Q2021.67 317.233 2021.72 316.835 Q2021.77 316.437 2022.07 316.138 Q2022.37 315.84 2022.96 315.84 Q2023.66 315.84 2023.91 316.138 Q2024.21 316.437 2024.41 317.582 Q2025.95 324.6 2029.23 328.333 Q2032.57 332.016 2038.59 332.016 Q2044.32 332.016 2047.2 329.477 Q2050.09 326.939 2050.09 322.758 Q2050.09 315.292 2039.49 313.401 Q2033.37 312.157 2030.83 311.36 Q2028.29 310.514 2026.05 308.672 Q2021.67 305.089 2021.67 300.012 Q2021.67 294.935 2025.5 291.202 Q2029.38 287.469 2037.94 287.469 Q2043.67 287.469 2047.55 290.356 Q2048.7 289.46 2049.29 288.714 Q2050.64 287.469 2051.33 287.469 Q2052.13 287.469 2052.28 288.017 Q2052.43 288.515 2052.43 289.958 L2052.43 300.211 Q2052.43 301.356 2052.38 301.754 Q2052.33 302.152 2052.03 302.451 Q2051.73 302.7 2051.08 302.7 Q2049.94 302.7 2049.89 301.754 Q2049.09 289.41 2037.94 289.41 Q2031.92 289.41 2029.23 291.75 Q2026.55 294.039 2026.55 297.175 Q2026.55 298.917 2027.34 300.261 Q2028.19 301.555 2029.23 302.351 Q2030.33 303.098 2032.32 303.845 Q2034.31 304.541 2035.51 304.79 Q2036.75 305.039 2039.09 305.537 Q2047.25 307.08 2050.69 310.414 Q2054.97 314.695 2054.97 320.12 Q2054.97 326.143 2050.89 330.224 Q2046.8 334.305 2038.59 334.305 Q2031.97 334.305 2027.34 329.876 Q2026.75 330.473 2026.3 331.02 Q2025.85 331.518 2025.65 331.717 Q2025.5 331.916 2025.45 332.066 Q2025.4 332.165 2025.3 332.265 Q2023.26 334.305 2022.76 334.305 Q2021.97 334.305 2021.82 333.758 Q2021.67 333.26 2021.67 331.817 Z" fill="#000000" fill-rule="nonzero" fill-opacity="1" /><path clip-path="url(#clip580)" d="M2060.99 310.713 Q2060.99 301.107 2067.16 294.288 Q2073.34 287.469 2082.19 287.469 Q2091.15 287.469 2095.78 293.293 Q2100.46 299.116 2100.46 307.478 Q2100.46 309.021 2100.06 309.319 Q2099.67 309.618 2097.92 309.618 L2069.45 309.618 Q2069.45 320.021 2072.54 324.898 Q2076.82 331.717 2084.04 331.717 Q2085.03 331.717 2086.23 331.518 Q2087.42 331.319 2089.86 330.473 Q2092.3 329.577 2094.44 327.238 Q2096.58 324.898 2097.82 321.215 Q2098.12 319.772 2099.12 319.822 Q2100.46 319.822 2100.46 321.016 Q2100.46 321.912 2099.47 323.953 Q2098.52 325.944 2096.68 328.333 Q2094.84 330.722 2091.25 332.514 Q2087.72 334.305 2083.44 334.305 Q2074.48 334.305 2067.71 327.536 Q2060.99 320.717 2060.99 310.713 M2069.55 307.478 L2093.74 307.478 Q2093.74 305.338 2093.34 302.949 Q2093 300.56 2091.9 297.275 Q2090.86 293.94 2088.37 291.849 Q2085.88 289.759 2082.19 289.759 Q2080.55 289.759 2078.76 290.456 Q2077.02 291.152 2074.88 292.845 Q2072.74 294.537 2071.24 298.37 Q2069.75 302.202 2069.55 307.478 Z" fill="#000000" fill-rule="nonzero" fill-opacity="1" /><path clip-path="url(#clip580)" d="M2105.8 333.161 L2105.8 330.025 Q2111.22 330.025 2112.47 329.378 Q2113.71 328.681 2113.71 325.396 L2113.71 272.388 Q2113.71 268.605 2112.37 267.66 Q2111.08 266.714 2105.8 266.714 L2105.8 263.529 L2120.43 262.434 L2120.43 325.396 Q2120.43 328.681 2121.73 329.378 Q2123.02 330.025 2128.4 330.025 L2128.4 333.161 Q2127.15 333.161 2124.56 333.061 Q2121.98 332.962 2120.08 332.912 Q2118.19 332.862 2117.1 332.862 Q2115.9 332.862 2105.8 333.161 Z" fill="#000000" fill-rule="nonzero" fill-opacity="1" /><path clip-path="url(#clip580)" d="M2134.97 310.713 Q2134.97 301.107 2141.14 294.288 Q2147.32 287.469 2156.18 287.469 Q2165.14 287.469 2169.76 293.293 Q2174.44 299.116 2174.44 307.478 Q2174.44 309.021 2174.04 309.319 Q2173.65 309.618 2171.9 309.618 L2143.43 309.618 Q2143.43 320.021 2146.52 324.898 Q2150.8 331.717 2158.02 331.717 Q2159.01 331.717 2160.21 331.518 Q2161.4 331.319 2163.84 330.473 Q2166.28 329.577 2168.42 327.238 Q2170.56 324.898 2171.8 321.215 Q2172.1 319.772 2173.1 319.822 Q2174.44 319.822 2174.44 321.016 Q2174.44 321.912 2173.45 323.953 Q2172.5 325.944 2170.66 328.333 Q2168.82 330.722 2165.23 332.514 Q2161.7 334.305 2157.42 334.305 Q2148.46 334.305 2141.69 327.536 Q2134.97 320.717 2134.97 310.713 M2143.53 307.478 L2167.72 307.478 Q2167.72 305.338 2167.33 302.949 Q2166.98 300.56 2165.88 297.275 Q2164.84 293.94 2162.35 291.849 Q2159.86 289.759 2156.18 289.759 Q2154.53 289.759 2152.74 290.456 Q2151 291.152 2148.86 292.845 Q2146.72 294.537 2145.23 298.37 Q2143.73 302.202 2143.53 307.478 Z" fill="#000000" fill-rule="nonzero" fill-opacity="1" /><path clip-path="url(#clip580)" d="M2179.78 331.817 L2179.78 318.378 Q2179.78 317.233 2179.83 316.835 Q2179.88 316.437 2180.18 316.138 Q2180.48 315.84 2181.07 315.84 Q2181.77 315.84 2182.02 316.138 Q2182.32 316.437 2182.52 317.582 Q2184.06 324.6 2187.35 328.333 Q2190.68 332.016 2196.7 332.016 Q2202.43 332.016 2205.31 329.477 Q2208.2 326.939 2208.2 322.758 Q2208.2 315.292 2197.6 313.401 Q2191.48 312.157 2188.94 311.36 Q2186.4 310.514 2184.16 308.672 Q2179.78 305.089 2179.78 300.012 Q2179.78 294.935 2183.61 291.202 Q2187.5 287.469 2196.06 287.469 Q2201.78 287.469 2205.66 290.356 Q2206.81 289.46 2207.4 288.714 Q2208.75 287.469 2209.45 287.469 Q2210.24 287.469 2210.39 288.017 Q2210.54 288.515 2210.54 289.958 L2210.54 300.211 Q2210.54 301.356 2210.49 301.754 Q2210.44 302.152 2210.14 302.451 Q2209.84 302.7 2209.2 302.7 Q2208.05 302.7 2208 301.754 Q2207.21 289.41 2196.06 289.41 Q2190.03 289.41 2187.35 291.75 Q2184.66 294.039 2184.66 297.175 Q2184.66 298.917 2185.45 300.261 Q2186.3 301.555 2187.35 302.351 Q2188.44 303.098 2190.43 303.845 Q2192.42 304.541 2193.62 304.79 Q2194.86 305.039 2197.2 305.537 Q2205.36 307.08 2208.8 310.414 Q2213.08 314.695 2213.08 320.12 Q2213.08 326.143 2209 330.224 Q2204.92 334.305 2196.7 334.305 Q2190.08 334.305 2185.45 329.876 Q2184.86 330.473 2184.41 331.02 Q2183.96 331.518 2183.76 331.717 Q2183.61 331.916 2183.56 332.066 Q2183.51 332.165 2183.41 332.265 Q2181.37 334.305 2180.88 334.305 Q2180.08 334.305 2179.93 333.758 Q2179.78 333.26 2179.78 331.817 Z" fill="#000000" fill-rule="nonzero" fill-opacity="1" /><path clip-path="url(#clip580)" d="M2219.1 331.817 L2219.1 318.378 Q2219.1 317.233 2219.15 316.835 Q2219.2 316.437 2219.5 316.138 Q2219.8 315.84 2220.4 315.84 Q2221.09 315.84 2221.34 316.138 Q2221.64 316.437 2221.84 317.582 Q2223.38 324.6 2226.67 328.333 Q2230 332.016 2236.03 332.016 Q2241.75 332.016 2244.64 329.477 Q2247.52 326.939 2247.52 322.758 Q2247.52 315.292 2236.92 313.401 Q2230.8 312.157 2228.26 311.36 Q2225.72 310.514 2223.48 308.672 Q2219.1 305.089 2219.1 300.012 Q2219.1 294.935 2222.94 291.202 Q2226.82 287.469 2235.38 287.469 Q2241.1 287.469 2244.99 290.356 Q2246.13 289.46 2246.73 288.714 Q2248.07 287.469 2248.77 287.469 Q2249.56 287.469 2249.71 288.017 Q2249.86 288.515 2249.86 289.958 L2249.86 300.211 Q2249.86 301.356 2249.81 301.754 Q2249.76 302.152 2249.46 302.451 Q2249.17 302.7 2248.52 302.7 Q2247.37 302.7 2247.32 301.754 Q2246.53 289.41 2235.38 289.41 Q2229.36 289.41 2226.67 291.75 Q2223.98 294.039 2223.98 297.175 Q2223.98 298.917 2224.78 300.261 Q2225.62 301.555 2226.67 302.351 Q2227.76 303.098 2229.75 303.845 Q2231.75 304.541 2232.94 304.79 Q2234.18 305.039 2236.52 305.537 Q2244.69 307.08 2248.12 310.414 Q2252.4 314.695 2252.4 320.12 Q2252.4 326.143 2248.32 330.224 Q2244.24 334.305 2236.03 334.305 Q2229.41 334.305 2224.78 329.876 Q2224.18 330.473 2223.73 331.02 Q2223.28 331.518 2223.09 331.717 Q2222.94 331.916 2222.89 332.066 Q2222.84 332.165 2222.74 332.265 Q2220.7 334.305 2220.2 334.305 Q2219.4 334.305 2219.25 333.758 Q2219.1 333.26 2219.1 331.817 Z" fill="#000000" fill-rule="nonzero" fill-opacity="1" /></svg>
