<?xml version="1.0" encoding="utf-8"?>
<svg xmlns="http://www.w3.org/2000/svg" xmlns:xlink="http://www.w3.org/1999/xlink" width="600" height="400" viewBox="0 0 2400 1600">
<defs>
  <clipPath id="clip090">
    <rect x="0" y="0" width="2400" height="1600"/>
  </clipPath>
</defs>
<path clip-path="url(#clip090)" d="M0 1600 L2400 1600 L2400 0 L0 0  Z" fill="#ffffff" fill-rule="evenodd" fill-opacity="1"/>
<defs>
  <clipPath id="clip091">
    <rect x="655" y="123" width="1301" height="1301"/>
  </clipPath>
</defs>
<path clip-path="url(#clip090)" d="M655.126 1423.18 L1954.83 1423.18 L1954.83 123.472 L655.126 123.472  Z" fill="#ffffff" fill-rule="evenodd" fill-opacity="1"/>
<polyline clip-path="url(#clip091)" style="stroke:#000000; stroke-linecap:round; stroke-linejoin:round; stroke-width:2; stroke-opacity:0.1; fill:none" points="655.126,1423.18 655.126,123.472 "/>
<polyline clip-path="url(#clip091)" style="stroke:#000000; stroke-linecap:round; stroke-linejoin:round; stroke-width:2; stroke-opacity:0.1; fill:none" points="980.053,1423.18 980.053,123.472 "/>
<polyline clip-path="url(#clip091)" style="stroke:#000000; stroke-linecap:round; stroke-linejoin:round; stroke-width:2; stroke-opacity:0.1; fill:none" points="1304.98,1423.18 1304.98,123.472 "/>
<polyline clip-path="url(#clip091)" style="stroke:#000000; stroke-linecap:round; stroke-linejoin:round; stroke-width:2; stroke-opacity:0.1; fill:none" points="1629.91,1423.18 1629.91,123.472 "/>
<polyline clip-path="url(#clip091)" style="stroke:#000000; stroke-linecap:round; stroke-linejoin:round; stroke-width:2; stroke-opacity:0.1; fill:none" points="1954.83,1423.18 1954.83,123.472 "/>
<polyline clip-path="url(#clip091)" style="stroke:#000000; stroke-linecap:round; stroke-linejoin:round; stroke-width:2; stroke-opacity:0.1; fill:none" points="655.126,1423.18 1954.83,1423.18 "/>
<polyline clip-path="url(#clip091)" style="stroke:#000000; stroke-linecap:round; stroke-linejoin:round; stroke-width:2; stroke-opacity:0.1; fill:none" points="655.126,1098.25 1954.83,1098.25 "/>
<polyline clip-path="url(#clip091)" style="stroke:#000000; stroke-linecap:round; stroke-linejoin:round; stroke-width:2; stroke-opacity:0.1; fill:none" points="655.126,773.326 1954.83,773.326 "/>
<polyline clip-path="url(#clip091)" style="stroke:#000000; stroke-linecap:round; stroke-linejoin:round; stroke-width:2; stroke-opacity:0.1; fill:none" points="655.126,448.399 1954.83,448.399 "/>
<polyline clip-path="url(#clip091)" style="stroke:#000000; stroke-linecap:round; stroke-linejoin:round; stroke-width:2; stroke-opacity:0.1; fill:none" points="655.126,123.472 1954.83,123.472 "/>
<polyline clip-path="url(#clip090)" style="stroke:#000000; stroke-linecap:round; stroke-linejoin:round; stroke-width:4; stroke-opacity:1; fill:none" points="655.126,1423.18 1954.83,1423.18 "/>
<polyline clip-path="url(#clip090)" style="stroke:#000000; stroke-linecap:round; stroke-linejoin:round; stroke-width:4; stroke-opacity:1; fill:none" points="655.126,1423.18 655.126,1404.28 "/>
<polyline clip-path="url(#clip090)" style="stroke:#000000; stroke-linecap:round; stroke-linejoin:round; stroke-width:4; stroke-opacity:1; fill:none" points="980.053,1423.18 980.053,1404.28 "/>
<polyline clip-path="url(#clip090)" style="stroke:#000000; stroke-linecap:round; stroke-linejoin:round; stroke-width:4; stroke-opacity:1; fill:none" points="1304.98,1423.18 1304.98,1404.28 "/>
<polyline clip-path="url(#clip090)" style="stroke:#000000; stroke-linecap:round; stroke-linejoin:round; stroke-width:4; stroke-opacity:1; fill:none" points="1629.91,1423.18 1629.91,1404.28 "/>
<polyline clip-path="url(#clip090)" style="stroke:#000000; stroke-linecap:round; stroke-linejoin:round; stroke-width:4; stroke-opacity:1; fill:none" points="1954.83,1423.18 1954.83,1404.28 "/>
<path clip-path="url(#clip090)" d="M601.654 1468.75 L631.33 1468.75 L631.33 1472.69 L601.654 1472.69 L601.654 1468.75 Z" fill="#000000" fill-rule="nonzero" fill-opacity="1" /><path clip-path="url(#clip090)" d="M642.233 1481.64 L649.872 1481.64 L649.872 1455.28 L641.561 1456.95 L641.561 1452.69 L649.825 1451.02 L654.501 1451.02 L654.501 1481.64 L662.14 1481.64 L662.14 1485.58 L642.233 1485.58 L642.233 1481.64 Z" fill="#000000" fill-rule="nonzero" fill-opacity="1" /><path clip-path="url(#clip090)" d="M671.584 1479.7 L676.469 1479.7 L676.469 1485.58 L671.584 1485.58 L671.584 1479.7 Z" fill="#000000" fill-rule="nonzero" fill-opacity="1" /><path clip-path="url(#clip090)" d="M696.654 1454.1 Q693.043 1454.1 691.214 1457.66 Q689.408 1461.2 689.408 1468.33 Q689.408 1475.44 691.214 1479.01 Q693.043 1482.55 696.654 1482.55 Q700.288 1482.55 702.093 1479.01 Q703.922 1475.44 703.922 1468.33 Q703.922 1461.2 702.093 1457.66 Q700.288 1454.1 696.654 1454.1 M696.654 1450.39 Q702.464 1450.39 705.519 1455 Q708.598 1459.58 708.598 1468.33 Q708.598 1477.06 705.519 1481.67 Q702.464 1486.25 696.654 1486.25 Q690.844 1486.25 687.765 1481.67 Q684.709 1477.06 684.709 1468.33 Q684.709 1459.58 687.765 1455 Q690.844 1450.39 696.654 1450.39 Z" fill="#000000" fill-rule="nonzero" fill-opacity="1" /><path clip-path="url(#clip090)" d="M927.079 1468.75 L956.755 1468.75 L956.755 1472.69 L927.079 1472.69 L927.079 1468.75 Z" fill="#000000" fill-rule="nonzero" fill-opacity="1" /><path clip-path="url(#clip090)" d="M976.847 1454.1 Q973.236 1454.1 971.407 1457.66 Q969.602 1461.2 969.602 1468.33 Q969.602 1475.44 971.407 1479.01 Q973.236 1482.55 976.847 1482.55 Q980.481 1482.55 982.287 1479.01 Q984.116 1475.44 984.116 1468.33 Q984.116 1461.2 982.287 1457.66 Q980.481 1454.1 976.847 1454.1 M976.847 1450.39 Q982.657 1450.39 985.713 1455 Q988.791 1459.58 988.791 1468.33 Q988.791 1477.06 985.713 1481.67 Q982.657 1486.25 976.847 1486.25 Q971.037 1486.25 967.958 1481.67 Q964.903 1477.06 964.903 1468.33 Q964.903 1459.58 967.958 1455 Q971.037 1450.39 976.847 1450.39 Z" fill="#000000" fill-rule="nonzero" fill-opacity="1" /><path clip-path="url(#clip090)" d="M997.009 1479.7 L1001.89 1479.7 L1001.89 1485.58 L997.009 1485.58 L997.009 1479.7 Z" fill="#000000" fill-rule="nonzero" fill-opacity="1" /><path clip-path="url(#clip090)" d="M1012.12 1451.02 L1030.48 1451.02 L1030.48 1454.96 L1016.41 1454.96 L1016.41 1463.43 Q1017.43 1463.08 1018.44 1462.92 Q1019.46 1462.73 1020.48 1462.73 Q1026.27 1462.73 1029.65 1465.9 Q1033.03 1469.08 1033.03 1474.49 Q1033.03 1480.07 1029.56 1483.17 Q1026.08 1486.25 1019.76 1486.25 Q1017.59 1486.25 1015.32 1485.88 Q1013.07 1485.51 1010.67 1484.77 L1010.67 1480.07 Q1012.75 1481.2 1014.97 1481.76 Q1017.19 1482.32 1019.67 1482.32 Q1023.68 1482.32 1026.01 1480.21 Q1028.35 1478.1 1028.35 1474.49 Q1028.35 1470.88 1026.01 1468.77 Q1023.68 1466.67 1019.67 1466.67 Q1017.8 1466.67 1015.92 1467.08 Q1014.07 1467.5 1012.12 1468.38 L1012.12 1451.02 Z" fill="#000000" fill-rule="nonzero" fill-opacity="1" /><path clip-path="url(#clip090)" d="M1282.36 1454.1 Q1278.75 1454.1 1276.92 1457.66 Q1275.12 1461.2 1275.12 1468.33 Q1275.12 1475.44 1276.92 1479.01 Q1278.75 1482.55 1282.36 1482.55 Q1286 1482.55 1287.8 1479.01 Q1289.63 1475.44 1289.63 1468.33 Q1289.63 1461.2 1287.8 1457.66 Q1286 1454.1 1282.36 1454.1 M1282.36 1450.39 Q1288.17 1450.39 1291.23 1455 Q1294.31 1459.58 1294.31 1468.33 Q1294.31 1477.06 1291.23 1481.67 Q1288.17 1486.25 1282.36 1486.25 Q1276.55 1486.25 1273.48 1481.67 Q1270.42 1477.06 1270.42 1468.33 Q1270.42 1459.58 1273.48 1455 Q1276.55 1450.39 1282.36 1450.39 Z" fill="#000000" fill-rule="nonzero" fill-opacity="1" /><path clip-path="url(#clip090)" d="M1302.53 1479.7 L1307.41 1479.7 L1307.41 1485.58 L1302.53 1485.58 L1302.53 1479.7 Z" fill="#000000" fill-rule="nonzero" fill-opacity="1" /><path clip-path="url(#clip090)" d="M1327.6 1454.1 Q1323.98 1454.1 1322.16 1457.66 Q1320.35 1461.2 1320.35 1468.33 Q1320.35 1475.44 1322.16 1479.01 Q1323.98 1482.55 1327.6 1482.55 Q1331.23 1482.55 1333.04 1479.01 Q1334.86 1475.44 1334.86 1468.33 Q1334.86 1461.2 1333.04 1457.66 Q1331.23 1454.1 1327.6 1454.1 M1327.6 1450.39 Q1333.41 1450.39 1336.46 1455 Q1339.54 1459.58 1339.54 1468.33 Q1339.54 1477.06 1336.46 1481.67 Q1333.41 1486.25 1327.6 1486.25 Q1321.79 1486.25 1318.71 1481.67 Q1315.65 1477.06 1315.65 1468.33 Q1315.65 1459.58 1318.71 1455 Q1321.79 1450.39 1327.6 1450.39 Z" fill="#000000" fill-rule="nonzero" fill-opacity="1" /><path clip-path="url(#clip090)" d="M1607.79 1454.1 Q1604.18 1454.1 1602.35 1457.66 Q1600.54 1461.2 1600.54 1468.33 Q1600.54 1475.44 1602.35 1479.01 Q1604.18 1482.55 1607.79 1482.55 Q1611.42 1482.55 1613.23 1479.01 Q1615.06 1475.44 1615.06 1468.33 Q1615.06 1461.2 1613.23 1457.66 Q1611.42 1454.1 1607.79 1454.1 M1607.79 1450.39 Q1613.6 1450.39 1616.65 1455 Q1619.73 1459.58 1619.73 1468.33 Q1619.73 1477.06 1616.65 1481.67 Q1613.6 1486.25 1607.79 1486.25 Q1601.98 1486.25 1598.9 1481.67 Q1595.84 1477.06 1595.84 1468.33 Q1595.84 1459.58 1598.9 1455 Q1601.98 1450.39 1607.79 1450.39 Z" fill="#000000" fill-rule="nonzero" fill-opacity="1" /><path clip-path="url(#clip090)" d="M1627.95 1479.7 L1632.84 1479.7 L1632.84 1485.58 L1627.95 1485.58 L1627.95 1479.7 Z" fill="#000000" fill-rule="nonzero" fill-opacity="1" /><path clip-path="url(#clip090)" d="M1643.07 1451.02 L1661.42 1451.02 L1661.42 1454.96 L1647.35 1454.96 L1647.35 1463.43 Q1648.37 1463.08 1649.39 1462.92 Q1650.4 1462.73 1651.42 1462.73 Q1657.21 1462.73 1660.59 1465.9 Q1663.97 1469.08 1663.97 1474.49 Q1663.97 1480.07 1660.5 1483.17 Q1657.02 1486.25 1650.71 1486.25 Q1648.53 1486.25 1646.26 1485.88 Q1644.02 1485.51 1641.61 1484.77 L1641.61 1480.07 Q1643.69 1481.2 1645.91 1481.76 Q1648.14 1482.32 1650.61 1482.32 Q1654.62 1482.32 1656.96 1480.21 Q1659.29 1478.1 1659.29 1474.49 Q1659.29 1470.88 1656.96 1468.77 Q1654.62 1466.67 1650.61 1466.67 Q1648.74 1466.67 1646.86 1467.08 Q1645.01 1467.5 1643.07 1468.38 L1643.07 1451.02 Z" fill="#000000" fill-rule="nonzero" fill-opacity="1" /><path clip-path="url(#clip090)" d="M1921.99 1481.64 L1929.63 1481.64 L1929.63 1455.28 L1921.32 1456.95 L1921.32 1452.69 L1929.58 1451.02 L1934.26 1451.02 L1934.26 1481.64 L1941.89 1481.64 L1941.89 1485.58 L1921.99 1485.58 L1921.99 1481.64 Z" fill="#000000" fill-rule="nonzero" fill-opacity="1" /><path clip-path="url(#clip090)" d="M1951.34 1479.7 L1956.22 1479.7 L1956.22 1485.58 L1951.34 1485.58 L1951.34 1479.7 Z" fill="#000000" fill-rule="nonzero" fill-opacity="1" /><path clip-path="url(#clip090)" d="M1976.41 1454.1 Q1972.8 1454.1 1970.97 1457.66 Q1969.16 1461.2 1969.16 1468.33 Q1969.16 1475.44 1970.97 1479.01 Q1972.8 1482.55 1976.41 1482.55 Q1980.04 1482.55 1981.85 1479.01 Q1983.68 1475.44 1983.68 1468.33 Q1983.68 1461.2 1981.85 1457.66 Q1980.04 1454.1 1976.41 1454.1 M1976.41 1450.39 Q1982.22 1450.39 1985.27 1455 Q1988.35 1459.58 1988.35 1468.33 Q1988.35 1477.06 1985.27 1481.67 Q1982.22 1486.25 1976.41 1486.25 Q1970.6 1486.25 1967.52 1481.67 Q1964.46 1477.06 1964.46 1468.33 Q1964.46 1459.58 1967.52 1455 Q1970.6 1450.39 1976.41 1450.39 Z" fill="#000000" fill-rule="nonzero" fill-opacity="1" /><path clip-path="url(#clip090)" d="M1319.15 1528.8 Q1319.15 1530.61 1318.03 1531.64 Q1316.9 1532.64 1315.61 1532.64 Q1314.39 1532.64 1313.74 1531.93 Q1313.1 1531.22 1313.1 1530.32 Q1313.1 1529.09 1314 1528.03 Q1314.9 1526.97 1316.25 1526.74 Q1314.93 1525.91 1312.97 1525.91 Q1311.68 1525.91 1310.55 1526.58 Q1309.46 1527.26 1308.78 1528.13 Q1308.14 1529 1307.56 1530.25 Q1307.01 1531.48 1306.79 1532.22 Q1306.59 1532.93 1306.43 1533.7 L1304.18 1542.72 Q1303.08 1547 1303.08 1548.51 Q1303.08 1550.38 1303.98 1551.64 Q1304.89 1552.86 1306.69 1552.86 Q1307.4 1552.86 1308.2 1552.67 Q1309.01 1552.44 1310.04 1551.86 Q1311.1 1551.25 1312.04 1550.35 Q1313 1549.42 1313.94 1547.84 Q1314.87 1546.26 1315.48 1544.23 Q1315.68 1543.52 1316.32 1543.52 Q1317.12 1543.52 1317.12 1544.17 Q1317.12 1544.71 1316.67 1545.87 Q1316.25 1547 1315.32 1548.48 Q1314.42 1549.93 1313.23 1551.25 Q1312.04 1552.54 1310.26 1553.44 Q1308.49 1554.34 1306.56 1554.34 Q1303.79 1554.34 1301.96 1552.86 Q1300.12 1551.38 1299.44 1549.32 Q1299.28 1549.61 1299.06 1550 Q1298.83 1550.38 1298.16 1551.25 Q1297.51 1552.09 1296.77 1552.73 Q1296.03 1553.34 1294.87 1553.83 Q1293.74 1554.34 1292.52 1554.34 Q1290.97 1554.34 1289.59 1553.89 Q1288.24 1553.44 1287.27 1552.41 Q1286.3 1551.38 1286.3 1549.96 Q1286.3 1548.38 1287.37 1547.29 Q1288.46 1546.16 1289.94 1546.16 Q1290.88 1546.16 1291.62 1546.71 Q1292.39 1547.26 1292.39 1548.45 Q1292.39 1549.77 1291.49 1550.77 Q1290.59 1551.77 1289.3 1552.02 Q1290.62 1552.86 1292.58 1552.86 Q1294.71 1552.86 1296.38 1550.99 Q1298.06 1549.13 1298.86 1546 Q1300.86 1538.5 1301.63 1535.15 Q1302.41 1531.77 1302.41 1530.32 Q1302.41 1528.96 1302.05 1528.03 Q1301.7 1527.1 1301.09 1526.68 Q1300.51 1526.23 1299.96 1526.07 Q1299.44 1525.91 1298.86 1525.91 Q1297.9 1525.91 1296.8 1526.29 Q1295.74 1526.68 1294.45 1527.58 Q1293.2 1528.45 1292 1530.25 Q1290.81 1532.06 1290.01 1534.54 Q1289.85 1535.28 1289.14 1535.28 Q1288.36 1535.24 1288.36 1534.6 Q1288.36 1534.05 1288.78 1532.93 Q1289.23 1531.77 1290.14 1530.32 Q1291.07 1528.87 1292.26 1527.58 Q1293.49 1526.26 1295.26 1525.36 Q1297.06 1524.46 1298.99 1524.46 Q1299.86 1524.46 1300.7 1524.65 Q1301.57 1524.81 1302.6 1525.29 Q1303.66 1525.78 1304.6 1526.84 Q1305.53 1527.9 1306.11 1529.45 Q1306.5 1528.71 1307.01 1528 Q1307.56 1527.29 1308.4 1526.42 Q1309.27 1525.52 1310.46 1525 Q1311.68 1524.46 1313.03 1524.46 Q1314.35 1524.46 1315.64 1524.81 Q1316.93 1525.13 1318.03 1526.19 Q1319.15 1527.23 1319.15 1528.8 Z" fill="#000000" fill-rule="nonzero" fill-opacity="1" /><polyline clip-path="url(#clip090)" style="stroke:#000000; stroke-linecap:round; stroke-linejoin:round; stroke-width:4; stroke-opacity:1; fill:none" points="655.126,1423.18 655.126,123.472 "/>
<polyline clip-path="url(#clip090)" style="stroke:#000000; stroke-linecap:round; stroke-linejoin:round; stroke-width:4; stroke-opacity:1; fill:none" points="655.126,1423.18 666.847,1423.18 "/>
<polyline clip-path="url(#clip090)" style="stroke:#000000; stroke-linecap:round; stroke-linejoin:round; stroke-width:4; stroke-opacity:1; fill:none" points="655.126,1098.25 666.847,1098.25 "/>
<polyline clip-path="url(#clip090)" style="stroke:#000000; stroke-linecap:round; stroke-linejoin:round; stroke-width:4; stroke-opacity:1; fill:none" points="655.126,773.326 666.847,773.326 "/>
<polyline clip-path="url(#clip090)" style="stroke:#000000; stroke-linecap:round; stroke-linejoin:round; stroke-width:4; stroke-opacity:1; fill:none" points="655.126,448.399 666.847,448.399 "/>
<polyline clip-path="url(#clip090)" style="stroke:#000000; stroke-linecap:round; stroke-linejoin:round; stroke-width:4; stroke-opacity:1; fill:none" points="655.126,123.472 666.847,123.472 "/>
<path clip-path="url(#clip090)" d="M512.182 1423.63 L541.858 1423.63 L541.858 1427.57 L512.182 1427.57 L512.182 1423.63 Z" fill="#000000" fill-rule="nonzero" fill-opacity="1" /><path clip-path="url(#clip090)" d="M552.761 1436.52 L560.4 1436.52 L560.4 1410.16 L552.089 1411.83 L552.089 1407.57 L560.353 1405.9 L565.029 1405.9 L565.029 1436.52 L572.668 1436.52 L572.668 1440.46 L552.761 1440.46 L552.761 1436.52 Z" fill="#000000" fill-rule="nonzero" fill-opacity="1" /><path clip-path="url(#clip090)" d="M582.112 1434.58 L586.997 1434.58 L586.997 1440.46 L582.112 1440.46 L582.112 1434.58 Z" fill="#000000" fill-rule="nonzero" fill-opacity="1" /><path clip-path="url(#clip090)" d="M607.182 1408.98 Q603.571 1408.98 601.742 1412.54 Q599.936 1416.08 599.936 1423.21 Q599.936 1430.32 601.742 1433.89 Q603.571 1437.43 607.182 1437.43 Q610.816 1437.43 612.622 1433.89 Q614.45 1430.32 614.45 1423.21 Q614.45 1416.08 612.622 1412.54 Q610.816 1408.98 607.182 1408.98 M607.182 1405.27 Q612.992 1405.27 616.047 1409.88 Q619.126 1414.46 619.126 1423.21 Q619.126 1431.94 616.047 1436.55 Q612.992 1441.13 607.182 1441.13 Q601.372 1441.13 598.293 1436.55 Q595.237 1431.94 595.237 1423.21 Q595.237 1414.46 598.293 1409.88 Q601.372 1405.27 607.182 1405.27 Z" fill="#000000" fill-rule="nonzero" fill-opacity="1" /><path clip-path="url(#clip090)" d="M513.178 1098.7 L542.853 1098.7 L542.853 1102.64 L513.178 1102.64 L513.178 1098.7 Z" fill="#000000" fill-rule="nonzero" fill-opacity="1" /><path clip-path="url(#clip090)" d="M562.946 1084.05 Q559.335 1084.05 557.506 1087.62 Q555.701 1091.16 555.701 1098.29 Q555.701 1105.39 557.506 1108.96 Q559.335 1112.5 562.946 1112.5 Q566.58 1112.5 568.386 1108.96 Q570.214 1105.39 570.214 1098.29 Q570.214 1091.16 568.386 1087.62 Q566.58 1084.05 562.946 1084.05 M562.946 1080.35 Q568.756 1080.35 571.812 1084.95 Q574.89 1089.54 574.89 1098.29 Q574.89 1107.01 571.812 1111.62 Q568.756 1116.2 562.946 1116.2 Q557.136 1116.2 554.057 1111.62 Q551.001 1107.01 551.001 1098.29 Q551.001 1089.54 554.057 1084.95 Q557.136 1080.35 562.946 1080.35 Z" fill="#000000" fill-rule="nonzero" fill-opacity="1" /><path clip-path="url(#clip090)" d="M583.108 1109.65 L587.992 1109.65 L587.992 1115.53 L583.108 1115.53 L583.108 1109.65 Z" fill="#000000" fill-rule="nonzero" fill-opacity="1" /><path clip-path="url(#clip090)" d="M598.223 1080.97 L616.58 1080.97 L616.58 1084.91 L602.506 1084.91 L602.506 1093.38 Q603.524 1093.03 604.543 1092.87 Q605.561 1092.69 606.58 1092.69 Q612.367 1092.69 615.746 1095.86 Q619.126 1099.03 619.126 1104.45 Q619.126 1110.02 615.654 1113.13 Q612.182 1116.2 605.862 1116.2 Q603.686 1116.2 601.418 1115.83 Q599.173 1115.46 596.765 1114.72 L596.765 1110.02 Q598.848 1111.16 601.071 1111.71 Q603.293 1112.27 605.77 1112.27 Q609.774 1112.27 612.112 1110.16 Q614.45 1108.06 614.45 1104.45 Q614.45 1100.83 612.112 1098.73 Q609.774 1096.62 605.77 1096.62 Q603.895 1096.62 602.02 1097.04 Q600.168 1097.45 598.223 1098.33 L598.223 1080.97 Z" fill="#000000" fill-rule="nonzero" fill-opacity="1" /><path clip-path="url(#clip090)" d="M561.95 759.125 Q558.339 759.125 556.511 762.689 Q554.705 766.231 554.705 773.361 Q554.705 780.467 556.511 784.032 Q558.339 787.574 561.95 787.574 Q565.585 787.574 567.39 784.032 Q569.219 780.467 569.219 773.361 Q569.219 766.231 567.39 762.689 Q565.585 759.125 561.95 759.125 M561.95 755.421 Q567.761 755.421 570.816 760.027 Q573.895 764.611 573.895 773.361 Q573.895 782.088 570.816 786.694 Q567.761 791.277 561.95 791.277 Q556.14 791.277 553.062 786.694 Q550.006 782.088 550.006 773.361 Q550.006 764.611 553.062 760.027 Q556.14 755.421 561.95 755.421 Z" fill="#000000" fill-rule="nonzero" fill-opacity="1" /><path clip-path="url(#clip090)" d="M582.112 784.726 L586.997 784.726 L586.997 790.606 L582.112 790.606 L582.112 784.726 Z" fill="#000000" fill-rule="nonzero" fill-opacity="1" /><path clip-path="url(#clip090)" d="M607.182 759.125 Q603.571 759.125 601.742 762.689 Q599.936 766.231 599.936 773.361 Q599.936 780.467 601.742 784.032 Q603.571 787.574 607.182 787.574 Q610.816 787.574 612.622 784.032 Q614.45 780.467 614.45 773.361 Q614.45 766.231 612.622 762.689 Q610.816 759.125 607.182 759.125 M607.182 755.421 Q612.992 755.421 616.047 760.027 Q619.126 764.611 619.126 773.361 Q619.126 782.088 616.047 786.694 Q612.992 791.277 607.182 791.277 Q601.372 791.277 598.293 786.694 Q595.237 782.088 595.237 773.361 Q595.237 764.611 598.293 760.027 Q601.372 755.421 607.182 755.421 Z" fill="#000000" fill-rule="nonzero" fill-opacity="1" /><path clip-path="url(#clip090)" d="M562.946 434.198 Q559.335 434.198 557.506 437.763 Q555.701 441.304 555.701 448.434 Q555.701 455.54 557.506 459.105 Q559.335 462.647 562.946 462.647 Q566.58 462.647 568.386 459.105 Q570.214 455.54 570.214 448.434 Q570.214 441.304 568.386 437.763 Q566.58 434.198 562.946 434.198 M562.946 430.494 Q568.756 430.494 571.812 435.101 Q574.89 439.684 574.89 448.434 Q574.89 457.161 571.812 461.767 Q568.756 466.35 562.946 466.35 Q557.136 466.35 554.057 461.767 Q551.001 457.161 551.001 448.434 Q551.001 439.684 554.057 435.101 Q557.136 430.494 562.946 430.494 Z" fill="#000000" fill-rule="nonzero" fill-opacity="1" /><path clip-path="url(#clip090)" d="M583.108 459.799 L587.992 459.799 L587.992 465.679 L583.108 465.679 L583.108 459.799 Z" fill="#000000" fill-rule="nonzero" fill-opacity="1" /><path clip-path="url(#clip090)" d="M598.223 431.119 L616.58 431.119 L616.58 435.054 L602.506 435.054 L602.506 443.526 Q603.524 443.179 604.543 443.017 Q605.561 442.832 606.58 442.832 Q612.367 442.832 615.746 446.003 Q619.126 449.175 619.126 454.591 Q619.126 460.17 615.654 463.272 Q612.182 466.35 605.862 466.35 Q603.686 466.35 601.418 465.98 Q599.173 465.61 596.765 464.869 L596.765 460.17 Q598.848 461.304 601.071 461.86 Q603.293 462.415 605.77 462.415 Q609.774 462.415 612.112 460.309 Q614.45 458.202 614.45 454.591 Q614.45 450.98 612.112 448.874 Q609.774 446.767 605.77 446.767 Q603.895 446.767 602.02 447.184 Q600.168 447.6 598.223 448.48 L598.223 431.119 Z" fill="#000000" fill-rule="nonzero" fill-opacity="1" /><path clip-path="url(#clip090)" d="M552.761 136.817 L560.4 136.817 L560.4 110.451 L552.089 112.118 L552.089 107.859 L560.353 106.192 L565.029 106.192 L565.029 136.817 L572.668 136.817 L572.668 140.752 L552.761 140.752 L552.761 136.817 Z" fill="#000000" fill-rule="nonzero" fill-opacity="1" /><path clip-path="url(#clip090)" d="M582.112 134.873 L586.997 134.873 L586.997 140.752 L582.112 140.752 L582.112 134.873 Z" fill="#000000" fill-rule="nonzero" fill-opacity="1" /><path clip-path="url(#clip090)" d="M607.182 109.271 Q603.571 109.271 601.742 112.836 Q599.936 116.377 599.936 123.507 Q599.936 130.613 601.742 134.178 Q603.571 137.72 607.182 137.72 Q610.816 137.72 612.622 134.178 Q614.45 130.613 614.45 123.507 Q614.45 116.377 612.622 112.836 Q610.816 109.271 607.182 109.271 M607.182 105.567 Q612.992 105.567 616.047 110.174 Q619.126 114.757 619.126 123.507 Q619.126 132.234 616.047 136.84 Q612.992 141.423 607.182 141.423 Q601.372 141.423 598.293 136.84 Q595.237 132.234 595.237 123.507 Q595.237 114.757 598.293 110.174 Q601.372 105.567 607.182 105.567 Z" fill="#000000" fill-rule="nonzero" fill-opacity="1" /><path clip-path="url(#clip090)" d="M428.778 758.889 Q429.229 758.889 430.292 759.178 L455.477 765.491 Q461.081 766.876 465.01 771.384 Q468.939 775.861 468.939 780.95 Q468.939 784.009 467.296 785.974 Q465.686 787.938 463.206 787.938 Q461.016 787.938 459.953 786.779 Q458.923 785.619 458.923 784.235 Q458.923 783.784 459.052 783.301 Q459.181 782.817 459.728 782.302 Q460.276 781.787 461.209 781.787 Q462.723 781.787 463.915 783.107 Q464.462 783.751 464.591 784.363 Q464.72 784.943 464.72 785.941 Q465.622 785.555 466.234 784.846 Q466.846 784.138 467.071 783.333 Q467.329 782.528 467.393 782.012 Q467.49 781.465 467.49 780.95 Q467.49 776.827 463.335 773.671 Q462.079 772.737 460.823 772.061 Q459.599 771.352 458.086 770.837 Q456.604 770.322 455.799 770.096 Q454.994 769.839 453.158 769.388 Q456.153 772.383 456.153 776.054 Q456.153 777.6 455.734 778.985 Q455.316 780.338 454.446 781.529 Q453.544 782.721 451.966 783.429 Q450.388 784.106 448.295 784.106 Q446.073 784.106 443.045 783.236 Q440.018 782.367 434.446 780.273 Q431.322 779.146 429.809 779.146 Q429.068 779.146 428.617 779.307 Q428.134 779.468 427.973 779.79 Q427.78 780.112 427.748 780.305 Q427.715 780.466 427.715 780.789 Q427.715 782.689 429.648 784.46 Q431.58 786.231 435.896 787.455 Q436.701 787.713 436.894 787.874 Q437.087 788.035 437.087 788.518 Q437.055 789.323 436.411 789.323 Q436.153 789.323 435.155 789.033 Q434.124 788.743 432.611 788.067 Q431.065 787.359 429.68 786.392 Q428.263 785.426 427.265 783.912 Q426.266 782.367 426.266 780.595 Q426.266 778.18 427.844 776.698 Q429.39 775.185 431.677 775.185 Q432.611 775.185 433.448 775.442 Q434.253 775.668 436.411 776.505 Q445.107 779.887 449.358 779.887 Q450.388 779.887 451.258 779.726 Q452.095 779.532 452.933 779.114 Q453.738 778.695 454.221 777.858 Q454.672 776.988 454.672 775.797 Q454.672 774.283 453.963 772.866 Q453.222 771.417 452.224 770.515 Q451.226 769.581 450.388 769.033 Q449.519 768.454 449.068 768.325 L437.216 765.362 L431.934 764.041 Q429.068 763.43 428.36 763.14 Q427.683 762.753 427.329 762.077 Q426.975 761.401 426.975 760.821 Q426.975 760.016 427.458 759.468 Q427.941 758.889 428.778 758.889 Z" fill="#000000" fill-rule="nonzero" fill-opacity="1" /><path clip-path="url(#clip090)" d="M926.828 12.096 L935.011 12.096 L935.011 65.6895 L964.461 65.6895 L964.461 72.576 L926.828 72.576 L926.828 12.096 Z" fill="#000000" fill-rule="nonzero" fill-opacity="1" /><path clip-path="url(#clip090)" d="M972.725 27.2059 L980.178 27.2059 L980.178 72.576 L972.725 72.576 L972.725 27.2059 M972.725 9.54393 L980.178 9.54393 L980.178 18.9825 L972.725 18.9825 L972.725 9.54393 Z" fill="#000000" fill-rule="nonzero" fill-opacity="1" /><path clip-path="url(#clip090)" d="M1025.63 49.3643 Q1025.63 41.2625 1022.27 36.8065 Q1018.95 32.3505 1012.91 32.3505 Q1006.91 32.3505 1003.55 36.8065 Q1000.23 41.2625 1000.23 49.3643 Q1000.23 57.4256 1003.55 61.8816 Q1006.91 66.3376 1012.91 66.3376 Q1018.95 66.3376 1022.27 61.8816 Q1025.63 57.4256 1025.63 49.3643 M1033.08 66.9452 Q1033.08 78.5308 1027.94 84.1616 Q1022.79 89.8329 1012.18 89.8329 Q1008.25 89.8329 1004.77 89.2252 Q1001.28 88.6581 998.002 87.4428 L998.002 80.1917 Q1001.28 81.9741 1004.48 82.8248 Q1007.68 83.6755 1011.01 83.6755 Q1018.34 83.6755 1021.98 79.8271 Q1025.63 76.0193 1025.63 68.282 L1025.63 64.5957 Q1023.32 68.6061 1019.72 70.5911 Q1016.11 72.576 1011.09 72.576 Q1002.74 72.576 997.638 66.2161 Q992.534 59.8562 992.534 49.3643 Q992.534 38.832 997.638 32.472 Q1002.74 26.1121 1011.09 26.1121 Q1016.11 26.1121 1019.72 28.0971 Q1023.32 30.082 1025.63 34.0924 L1025.63 27.2059 L1033.08 27.2059 L1033.08 66.9452 Z" fill="#000000" fill-rule="nonzero" fill-opacity="1" /><path clip-path="url(#clip090)" d="M1086.15 45.1919 L1086.15 72.576 L1078.7 72.576 L1078.7 45.4349 Q1078.7 38.994 1076.18 35.7938 Q1073.67 32.5936 1068.65 32.5936 Q1062.61 32.5936 1059.13 36.4419 Q1055.65 40.2903 1055.65 46.9338 L1055.65 72.576 L1048.15 72.576 L1048.15 9.54393 L1055.65 9.54393 L1055.65 34.2544 Q1058.32 30.163 1061.93 28.1376 Q1065.57 26.1121 1070.31 26.1121 Q1078.13 26.1121 1082.14 30.9732 Q1086.15 35.7938 1086.15 45.1919 Z" fill="#000000" fill-rule="nonzero" fill-opacity="1" /><path clip-path="url(#clip090)" d="M1108.39 14.324 L1108.39 27.2059 L1123.74 27.2059 L1123.74 32.9987 L1108.39 32.9987 L1108.39 57.6282 Q1108.39 63.1779 1109.89 64.7578 Q1111.43 66.3376 1116.09 66.3376 L1123.74 66.3376 L1123.74 72.576 L1116.09 72.576 Q1107.46 72.576 1104.18 69.3758 Q1100.9 66.1351 1100.9 57.6282 L1100.9 32.9987 L1095.43 32.9987 L1095.43 27.2059 L1100.9 27.2059 L1100.9 14.324 L1108.39 14.324 Z" fill="#000000" fill-rule="nonzero" fill-opacity="1" /><path clip-path="url(#clip090)" d="M1133.55 27.2059 L1141 27.2059 L1141 72.576 L1133.55 72.576 L1133.55 27.2059 M1133.55 9.54393 L1141 9.54393 L1141 18.9825 L1133.55 18.9825 L1133.55 9.54393 Z" fill="#000000" fill-rule="nonzero" fill-opacity="1" /><path clip-path="url(#clip090)" d="M1194.31 45.1919 L1194.31 72.576 L1186.86 72.576 L1186.86 45.4349 Q1186.86 38.994 1184.34 35.7938 Q1181.83 32.5936 1176.81 32.5936 Q1170.77 32.5936 1167.29 36.4419 Q1163.81 40.2903 1163.81 46.9338 L1163.81 72.576 L1156.31 72.576 L1156.31 27.2059 L1163.81 27.2059 L1163.81 34.2544 Q1166.48 30.163 1170.08 28.1376 Q1173.73 26.1121 1178.47 26.1121 Q1186.29 26.1121 1190.3 30.9732 Q1194.31 35.7938 1194.31 45.1919 Z" fill="#000000" fill-rule="nonzero" fill-opacity="1" /><path clip-path="url(#clip090)" d="M1239.03 49.3643 Q1239.03 41.2625 1235.67 36.8065 Q1232.35 32.3505 1226.31 32.3505 Q1220.32 32.3505 1216.95 36.8065 Q1213.63 41.2625 1213.63 49.3643 Q1213.63 57.4256 1216.95 61.8816 Q1220.32 66.3376 1226.31 66.3376 Q1232.35 66.3376 1235.67 61.8816 Q1239.03 57.4256 1239.03 49.3643 M1246.48 66.9452 Q1246.48 78.5308 1241.34 84.1616 Q1236.2 89.8329 1225.58 89.8329 Q1221.65 89.8329 1218.17 89.2252 Q1214.69 88.6581 1211.4 87.4428 L1211.4 80.1917 Q1214.69 81.9741 1217.89 82.8248 Q1221.09 83.6755 1224.41 83.6755 Q1231.74 83.6755 1235.39 79.8271 Q1239.03 76.0193 1239.03 68.282 L1239.03 64.5957 Q1236.72 68.6061 1233.12 70.5911 Q1229.51 72.576 1224.49 72.576 Q1216.14 72.576 1211.04 66.2161 Q1205.94 59.8562 1205.94 49.3643 Q1205.94 38.832 1211.04 32.472 Q1216.14 26.1121 1224.49 26.1121 Q1229.51 26.1121 1233.12 28.0971 Q1236.72 30.082 1239.03 34.0924 L1239.03 27.2059 L1246.48 27.2059 L1246.48 66.9452 Z" fill="#000000" fill-rule="nonzero" fill-opacity="1" /><path clip-path="url(#clip090)" d="M1318.06 34.0924 L1318.06 9.54393 L1325.52 9.54393 L1325.52 72.576 L1318.06 72.576 L1318.06 65.7705 Q1315.71 69.8214 1312.11 71.8063 Q1308.54 73.7508 1303.52 73.7508 Q1295.3 73.7508 1290.11 67.1883 Q1284.97 60.6258 1284.97 49.9314 Q1284.97 39.2371 1290.11 32.6746 Q1295.3 26.1121 1303.52 26.1121 Q1308.54 26.1121 1312.11 28.0971 Q1315.71 30.0415 1318.06 34.0924 M1292.67 49.9314 Q1292.67 58.1548 1296.03 62.8538 Q1299.43 67.5124 1305.34 67.5124 Q1311.26 67.5124 1314.66 62.8538 Q1318.06 58.1548 1318.06 49.9314 Q1318.06 41.7081 1314.66 37.0496 Q1311.26 32.3505 1305.34 32.3505 Q1299.43 32.3505 1296.03 37.0496 Q1292.67 41.7081 1292.67 49.9314 Z" fill="#000000" fill-rule="nonzero" fill-opacity="1" /><path clip-path="url(#clip090)" d="M1340.87 27.2059 L1348.32 27.2059 L1348.32 72.576 L1340.87 72.576 L1340.87 27.2059 M1340.87 9.54393 L1348.32 9.54393 L1348.32 18.9825 L1340.87 18.9825 L1340.87 9.54393 Z" fill="#000000" fill-rule="nonzero" fill-opacity="1" /><path clip-path="url(#clip090)" d="M1390.21 34.1734 Q1388.96 33.4443 1387.46 33.1202 Q1386 32.7556 1384.22 32.7556 Q1377.9 32.7556 1374.49 36.8875 Q1371.13 40.9789 1371.13 48.6757 L1371.13 72.576 L1363.64 72.576 L1363.64 27.2059 L1371.13 27.2059 L1371.13 34.2544 Q1373.48 30.1225 1377.25 28.1376 Q1381.02 26.1121 1386.4 26.1121 Q1387.17 26.1121 1388.1 26.2337 Q1389.04 26.3147 1390.17 26.5172 L1390.21 34.1734 Z" fill="#000000" fill-rule="nonzero" fill-opacity="1" /><path clip-path="url(#clip090)" d="M1435.01 48.0275 L1435.01 51.6733 L1400.74 51.6733 Q1401.23 59.3701 1405.36 63.421 Q1409.53 67.4314 1416.95 67.4314 Q1421.24 67.4314 1425.25 66.3781 Q1429.3 65.3249 1433.27 63.2184 L1433.27 70.267 Q1429.26 71.9684 1425.05 72.8596 Q1420.84 73.7508 1416.5 73.7508 Q1405.64 73.7508 1399.29 67.4314 Q1392.97 61.1119 1392.97 50.3365 Q1392.97 39.1965 1398.96 32.6746 Q1405 26.1121 1415.21 26.1121 Q1424.36 26.1121 1429.67 32.0264 Q1435.01 37.9003 1435.01 48.0275 M1427.56 45.84 Q1427.48 39.7232 1424.12 36.0774 Q1420.8 32.4315 1415.29 32.4315 Q1409.05 32.4315 1405.28 35.9558 Q1401.55 39.4801 1400.99 45.8805 L1427.56 45.84 Z" fill="#000000" fill-rule="nonzero" fill-opacity="1" /><path clip-path="url(#clip090)" d="M1479.9 28.9478 L1479.9 35.9153 Q1476.74 34.1734 1473.54 33.3227 Q1470.38 32.4315 1467.14 32.4315 Q1459.89 32.4315 1455.88 37.0496 Q1451.87 41.6271 1451.87 49.9314 Q1451.87 58.2358 1455.88 62.8538 Q1459.89 67.4314 1467.14 67.4314 Q1470.38 67.4314 1473.54 66.5807 Q1476.74 65.6895 1479.9 63.9476 L1479.9 70.8341 Q1476.78 72.2924 1473.42 73.0216 Q1470.09 73.7508 1466.33 73.7508 Q1456.08 73.7508 1450.04 67.3098 Q1444.01 60.8689 1444.01 49.9314 Q1444.01 38.832 1450.08 32.472 Q1456.2 26.1121 1466.81 26.1121 Q1470.26 26.1121 1473.54 26.8413 Q1476.82 27.5299 1479.9 28.9478 Z" fill="#000000" fill-rule="nonzero" fill-opacity="1" /><path clip-path="url(#clip090)" d="M1500.23 14.324 L1500.23 27.2059 L1515.59 27.2059 L1515.59 32.9987 L1500.23 32.9987 L1500.23 57.6282 Q1500.23 63.1779 1501.73 64.7578 Q1503.27 66.3376 1507.93 66.3376 L1515.59 66.3376 L1515.59 72.576 L1507.93 72.576 Q1499.3 72.576 1496.02 69.3758 Q1492.74 66.1351 1492.74 57.6282 L1492.74 32.9987 L1487.27 32.9987 L1487.27 27.2059 L1492.74 27.2059 L1492.74 14.324 L1500.23 14.324 Z" fill="#000000" fill-rule="nonzero" fill-opacity="1" /><path clip-path="url(#clip090)" d="M1525.39 27.2059 L1532.84 27.2059 L1532.84 72.576 L1525.39 72.576 L1525.39 27.2059 M1525.39 9.54393 L1532.84 9.54393 L1532.84 18.9825 L1525.39 18.9825 L1525.39 9.54393 Z" fill="#000000" fill-rule="nonzero" fill-opacity="1" /><path clip-path="url(#clip090)" d="M1566.02 32.4315 Q1560.02 32.4315 1556.54 37.1306 Q1553.06 41.7891 1553.06 49.9314 Q1553.06 58.0738 1556.5 62.7728 Q1559.98 67.4314 1566.02 67.4314 Q1571.98 67.4314 1575.46 62.7323 Q1578.94 58.0333 1578.94 49.9314 Q1578.94 41.8701 1575.46 37.1711 Q1571.98 32.4315 1566.02 32.4315 M1566.02 26.1121 Q1575.74 26.1121 1581.29 32.4315 Q1586.84 38.7509 1586.84 49.9314 Q1586.84 61.0714 1581.29 67.4314 Q1575.74 73.7508 1566.02 73.7508 Q1556.26 73.7508 1550.71 67.4314 Q1545.2 61.0714 1545.2 49.9314 Q1545.2 38.7509 1550.71 32.4315 Q1556.26 26.1121 1566.02 26.1121 Z" fill="#000000" fill-rule="nonzero" fill-opacity="1" /><path clip-path="url(#clip090)" d="M1636.91 45.1919 L1636.91 72.576 L1629.46 72.576 L1629.46 45.4349 Q1629.46 38.994 1626.95 35.7938 Q1624.43 32.5936 1619.41 32.5936 Q1613.38 32.5936 1609.89 36.4419 Q1606.41 40.2903 1606.41 46.9338 L1606.41 72.576 L1598.91 72.576 L1598.91 27.2059 L1606.41 27.2059 L1606.41 34.2544 Q1609.08 30.163 1612.69 28.1376 Q1616.33 26.1121 1621.07 26.1121 Q1628.89 26.1121 1632.9 30.9732 Q1636.91 35.7938 1636.91 45.1919 Z" fill="#000000" fill-rule="nonzero" fill-opacity="1" /><path clip-path="url(#clip090)" d="M1680.7 28.5427 L1680.7 35.5912 Q1677.54 33.9709 1674.14 33.1607 Q1670.74 32.3505 1667.09 32.3505 Q1661.54 32.3505 1658.75 34.0519 Q1655.99 35.7533 1655.99 39.156 Q1655.99 41.7486 1657.98 43.2475 Q1659.96 44.7058 1665.96 46.0426 L1668.51 46.6097 Q1676.45 48.3111 1679.77 51.4303 Q1683.13 54.509 1683.13 60.0587 Q1683.13 66.3781 1678.11 70.0644 Q1673.13 73.7508 1664.38 73.7508 Q1660.73 73.7508 1656.76 73.0216 Q1652.83 72.3329 1648.46 70.9151 L1648.46 63.2184 Q1652.59 65.3654 1656.6 66.4591 Q1660.61 67.5124 1664.54 67.5124 Q1669.8 67.5124 1672.64 65.73 Q1675.48 63.9071 1675.48 60.6258 Q1675.48 57.5877 1673.41 55.9673 Q1671.38 54.3469 1664.46 52.8481 L1661.86 52.2405 Q1654.94 50.7821 1651.86 47.7845 Q1648.78 44.7463 1648.78 39.4801 Q1648.78 33.0797 1653.32 29.5959 Q1657.85 26.1121 1666.2 26.1121 Q1670.33 26.1121 1673.98 26.7198 Q1677.62 27.3274 1680.7 28.5427 Z" fill="#000000" fill-rule="nonzero" fill-opacity="1" /><polyline clip-path="url(#clip091)" style="stroke:#000000; stroke-linecap:round; stroke-linejoin:round; stroke-width:4; stroke-opacity:1; fill:none" points="1954.83,773.326 1954.73,761.984 1954.44,750.646 1953.94,739.315 1953.25,727.994 1952.36,716.687 1951.27,705.398 1949.99,694.129 1948.51,682.884 1946.83,671.666 1944.96,660.48 1942.89,649.328 1940.63,638.214 1938.18,627.141 1935.53,616.112 1932.69,605.131 1929.66,594.202 1926.44,583.327 1923.03,572.51 1919.43,561.754 1915.64,551.063 1911.67,540.439 1907.51,529.886 1903.17,519.408 1898.65,509.007 1893.95,498.686 1889.06,488.449 1884,478.299 1878.77,468.238 1873.35,458.271 1867.77,448.399 1862.01,438.627 1856.09,428.956 1849.99,419.39 1843.73,409.932 1837.31,400.585 1830.72,391.351 1823.98,382.234 1817.07,373.236 1810.01,364.36 1802.8,355.608 1795.43,346.983 1787.92,338.489 1780.25,330.127 1772.45,321.9 1764.5,313.81 1756.41,305.86 1748.18,298.053 1739.82,290.39 1731.32,282.875 1722.7,275.509 1713.95,268.295 1705.07,261.234 1696.07,254.33 1686.95,247.583 1677.72,240.997 1668.37,234.573 1658.92,228.313 1649.35,222.219 1639.68,216.293 1629.91,210.536 1620.04,204.951 1610.07,199.539 1600.01,194.302 1589.86,189.241 1579.62,184.358 1569.3,179.655 1558.9,175.132 1548.42,170.792 1537.87,166.635 1527.24,162.663 1516.55,158.877 1505.8,155.278 1494.98,151.868 1484.1,148.646 1473.17,145.615 1462.19,142.776 1451.17,140.128 1440.09,137.673 1428.98,135.412 1417.83,133.345 1406.64,131.473 1395.42,129.796 1384.18,128.316 1372.91,127.032 1361.62,125.945 1350.31,125.055 1338.99,124.363 1327.66,123.868 1316.32,123.571 1304.98,123.472 1293.64,123.571 1282.3,123.868 1270.97,124.363 1259.65,125.055 1248.34,125.945 1237.05,127.032 1225.78,128.316 1214.54,129.796 1203.32,131.473 1192.13,133.345 1180.98,135.412 1169.87,137.673 1158.79,140.128 1147.77,142.776 1136.79,145.615 1125.86,148.646 1114.98,151.868 1104.16,155.278 1093.41,158.877 1082.72,162.663 1072.09,166.635 1061.54,170.792 1051.06,175.132 1040.66,179.655 1030.34,184.358 1020.1,189.241 1009.95,194.302 999.892,199.539 989.925,204.951 980.053,210.536 970.28,216.293 960.61,222.219 951.044,228.313 941.586,234.573 932.239,240.997 923.005,247.583 913.888,254.33 904.89,261.234 896.014,268.295 887.262,275.509 878.637,282.875 870.143,290.39 861.781,298.053 853.554,305.86 845.464,313.81 837.514,321.9 829.707,330.127 822.044,338.489 814.529,346.983 807.163,355.608 799.949,364.36 792.888,373.236 785.984,382.234 779.237,391.351 772.651,400.585 766.227,409.932 759.967,419.39 753.873,428.956 747.946,438.627 742.19,448.399 736.605,458.271 731.193,468.238 725.956,478.299 720.895,488.449 716.012,498.686 711.309,509.007 706.786,519.408 702.446,529.886 698.289,540.439 694.317,551.063 690.531,561.754 686.932,572.51 683.522,583.327 680.3,594.202 677.269,605.131 674.43,616.112 671.782,627.141 669.327,638.214 667.066,649.328 664.999,660.48 663.127,671.666 661.45,682.884 659.97,694.129 658.686,705.398 657.599,716.687 656.709,727.994 656.017,739.315 655.522,750.646 655.225,761.984 655.126,773.326 655.225,784.667 655.522,796.006 656.017,807.337 656.709,818.657 657.599,829.964 658.686,841.254 659.97,852.523 661.45,863.768 663.127,874.986 664.999,886.172 667.066,897.324 669.327,908.438 671.782,919.511 674.43,930.54 677.269,941.521 680.3,952.45 683.522,963.325 686.932,974.142 690.531,984.898 694.317,995.589 698.289,1006.21 702.446,1016.77 706.786,1027.24 711.309,1037.65 716.012,1047.97 720.895,1058.2 725.956,1068.35 731.193,1078.41 736.605,1088.38 742.19,1098.25 747.946,1108.03 753.873,1117.7 759.967,1127.26 766.227,1136.72 772.651,1146.07 779.237,1155.3 785.984,1164.42 792.888,1173.42 799.949,1182.29 807.163,1191.04 814.529,1199.67 822.044,1208.16 829.707,1216.53 837.514,1224.75 845.464,1232.84 853.554,1240.79 861.781,1248.6 870.143,1256.26 878.637,1263.78 887.262,1271.14 896.014,1278.36 904.89,1285.42 913.888,1292.32 923.005,1299.07 932.239,1305.66 941.586,1312.08 951.044,1318.34 960.61,1324.43 970.28,1330.36 980.053,1336.12 989.925,1341.7 999.892,1347.11 1009.95,1352.35 1020.1,1357.41 1030.34,1362.29 1040.66,1367 1051.06,1371.52 1061.54,1375.86 1072.09,1380.02 1082.72,1383.99 1093.41,1387.77 1104.16,1391.37 1114.98,1394.78 1125.86,1398.01 1136.79,1401.04 1147.77,1403.88 1158.79,1406.52 1169.87,1408.98 1180.98,1411.24 1192.13,1413.31 1203.32,1415.18 1214.54,1416.86 1225.78,1418.34 1237.05,1419.62 1248.34,1420.71 1259.65,1421.6 1270.97,1422.29 1282.3,1422.78 1293.64,1423.08 1304.98,1423.18 1316.32,1423.08 1327.66,1422.78 1338.99,1422.29 1350.31,1421.6 1361.62,1420.71 1372.91,1419.62 1384.18,1418.34 1395.42,1416.86 1406.64,1415.18 1417.83,1413.31 1428.98,1411.24 1440.09,1408.98 1451.17,1406.52 1462.19,1403.88 1473.17,1401.04 1484.1,1398.01 1494.98,1394.78 1505.8,1391.37 1516.55,1387.77 1527.24,1383.99 1537.87,1380.02 1548.42,1375.86 1558.9,1371.52 1569.3,1367 1579.62,1362.29 1589.86,1357.41 1600.01,1352.35 1610.07,1347.11 1620.04,1341.7 1629.91,1336.12 1639.68,1330.36 1649.35,1324.43 1658.92,1318.34 1668.37,1312.08 1677.72,1305.66 1686.95,1299.07 1696.07,1292.32 1705.07,1285.42 1713.95,1278.36 1722.7,1271.14 1731.32,1263.78 1739.82,1256.26 1748.18,1248.6 1756.41,1240.79 1764.5,1232.84 1772.45,1224.75 1780.25,1216.53 1787.92,1208.16 1795.43,1199.67 1802.8,1191.04 1810.01,1182.29 1817.07,1173.42 1823.98,1164.42 1830.72,1155.3 1837.31,1146.07 1843.73,1136.72 1849.99,1127.26 1856.09,1117.7 1862.01,1108.03 1867.77,1098.25 1873.35,1088.38 1878.77,1078.41 1884,1068.35 1889.06,1058.2 1893.95,1047.97 1898.65,1037.65 1903.17,1027.24 1907.51,1016.77 1911.67,1006.21 1915.64,995.589 1919.43,984.898 1923.03,974.142 1926.44,963.325 1929.66,952.45 1932.69,941.521 1935.53,930.54 1938.18,919.511 1940.63,908.438 1942.89,897.324 1944.96,886.172 1946.83,874.986 1948.51,863.768 1949.99,852.523 1951.27,841.254 1952.36,829.964 1953.25,818.657 1953.94,807.337 1954.44,796.006 1954.73,784.667 1954.83,773.326 "/>
<circle clip-path="url(#clip091)" cx="1723.34" cy="505.802" r="14.4" fill="#ff0000" fill-rule="evenodd" fill-opacity="1" stroke="none"/>
<circle clip-path="url(#clip091)" cx="1632.62" cy="399.257" r="14.4" fill="#ff0000" fill-rule="evenodd" fill-opacity="1" stroke="none"/>
<circle clip-path="url(#clip091)" cx="1507.01" cy="343.203" r="14.4" fill="#ff0000" fill-rule="evenodd" fill-opacity="1" stroke="none"/>
<circle clip-path="url(#clip091)" cx="1371.9" cy="346.717" r="14.4" fill="#ff0000" fill-rule="evenodd" fill-opacity="1" stroke="none"/>
<circle clip-path="url(#clip091)" cx="1253.63" cy="407.055" r="14.4" fill="#ff0000" fill-rule="evenodd" fill-opacity="1" stroke="none"/>
<circle clip-path="url(#clip091)" cx="1174.39" cy="510.593" r="14.4" fill="#ff0000" fill-rule="evenodd" fill-opacity="1" stroke="none"/>
<circle clip-path="url(#clip091)" cx="1148.03" cy="635.842" r="14.4" fill="#ff0000" fill-rule="evenodd" fill-opacity="1" stroke="none"/>
<circle clip-path="url(#clip091)" cx="1177.69" cy="757.894" r="14.4" fill="#ff0000" fill-rule="evenodd" fill-opacity="1" stroke="none"/>
<circle clip-path="url(#clip091)" cx="1255.58" cy="853.37" r="14.4" fill="#ff0000" fill-rule="evenodd" fill-opacity="1" stroke="none"/>
<circle clip-path="url(#clip091)" cx="1364.87" cy="904.901" r="14.4" fill="#ff0000" fill-rule="evenodd" fill-opacity="1" stroke="none"/>
<circle clip-path="url(#clip091)" cx="1483.31" cy="904.269" r="14.4" fill="#ff0000" fill-rule="evenodd" fill-opacity="1" stroke="none"/>
<circle clip-path="url(#clip091)" cx="1587.74" cy="853.652" r="14.4" fill="#ff0000" fill-rule="evenodd" fill-opacity="1" stroke="none"/>
<path clip-path="url(#clip090)" d="M724.978 270.476 L1032.84 270.476 L1032.84 166.796 L724.978 166.796  Z" fill="#ffffff" fill-rule="evenodd" fill-opacity="1"/>
<polyline clip-path="url(#clip090)" style="stroke:#000000; stroke-linecap:round; stroke-linejoin:round; stroke-width:4; stroke-opacity:1; fill:none" points="724.978,270.476 1032.84,270.476 1032.84,166.796 724.978,166.796 724.978,270.476 "/>
<circle clip-path="url(#clip090)" cx="818.113" cy="218.636" r="20.48" fill="#ff0000" fill-rule="evenodd" fill-opacity="1" stroke="none"/>
<path clip-path="url(#clip090)" d="M911.249 201.356 L940.485 201.356 L940.485 205.291 L928.217 205.291 L928.217 235.916 L923.518 235.916 L923.518 205.291 L911.249 205.291 L911.249 201.356 Z" fill="#000000" fill-rule="nonzero" fill-opacity="1" /><path clip-path="url(#clip090)" d="M952.869 213.971 Q952.152 213.555 951.295 213.37 Q950.462 213.161 949.443 213.161 Q945.832 213.161 943.888 215.522 Q941.967 217.86 941.967 222.258 L941.967 235.916 L937.684 235.916 L937.684 209.99 L941.967 209.99 L941.967 214.018 Q943.309 211.657 945.462 210.522 Q947.615 209.365 950.693 209.365 Q951.133 209.365 951.666 209.434 Q952.198 209.481 952.846 209.596 L952.869 213.971 Z" fill="#000000" fill-rule="nonzero" fill-opacity="1" /><path clip-path="url(#clip090)" d="M956.897 225.684 L956.897 209.99 L961.156 209.99 L961.156 225.522 Q961.156 229.203 962.591 231.055 Q964.027 232.883 966.897 232.883 Q970.346 232.883 972.337 230.684 Q974.351 228.485 974.351 224.689 L974.351 209.99 L978.61 209.99 L978.61 235.916 L974.351 235.916 L974.351 231.934 Q972.8 234.295 970.74 235.453 Q968.703 236.587 965.994 236.587 Q961.527 236.587 959.212 233.809 Q956.897 231.031 956.897 225.684 M967.615 209.365 L967.615 209.365 Z" fill="#000000" fill-rule="nonzero" fill-opacity="1" /><path clip-path="url(#clip090)" d="M1009.56 221.888 L1009.56 223.971 L989.976 223.971 Q990.253 228.369 992.614 230.684 Q994.999 232.976 999.235 232.976 Q1001.69 232.976 1003.98 232.374 Q1006.29 231.772 1008.56 230.569 L1008.56 234.596 Q1006.27 235.568 1003.86 236.078 Q1001.46 236.587 998.98 236.587 Q992.776 236.587 989.142 232.976 Q985.531 229.365 985.531 223.207 Q985.531 216.842 988.957 213.115 Q992.406 209.365 998.239 209.365 Q1003.47 209.365 1006.5 212.745 Q1009.56 216.101 1009.56 221.888 M1005.3 220.638 Q1005.25 217.143 1003.33 215.059 Q1001.43 212.976 998.286 212.976 Q994.721 212.976 992.568 214.99 Q990.439 217.004 990.114 220.661 L1005.3 220.638 Z" fill="#000000" fill-rule="nonzero" fill-opacity="1" /></svg>
