<?xml version="1.0" encoding="utf-8"?>
<svg xmlns="http://www.w3.org/2000/svg" xmlns:xlink="http://www.w3.org/1999/xlink" width="500" height="500" viewBox="0 0 2000 2000">
<defs>
  <clipPath id="clip070">
    <rect x="0" y="0" width="2000" height="2000"/>
  </clipPath>
</defs>
<path clip-path="url(#clip070)" d="M0 2000 L2000 2000 L2000 0 L0 0  Z" fill="#ffffff" fill-rule="evenodd" fill-opacity="1"/>
<defs>
  <clipPath id="clip071">
    <rect x="310" y="56" width="1643" height="1643"/>
  </clipPath>
</defs>
<path clip-path="url(#clip070)" d="M310.701 1698.08 L1952.76 1698.08 L1952.76 56.0244 L310.701 56.0244  Z" fill="#ffffff" fill-rule="evenodd" fill-opacity="1"/>
<polyline clip-path="url(#clip071)" style="stroke:#000000; stroke-linecap:round; stroke-linejoin:round; stroke-width:2; stroke-opacity:0.1; fill:none" points="515.958,1698.08 515.958,56.0244 "/>
<polyline clip-path="url(#clip071)" style="stroke:#000000; stroke-linecap:round; stroke-linejoin:round; stroke-width:2; stroke-opacity:0.1; fill:none" points="823.843,1698.08 823.843,56.0244 "/>
<polyline clip-path="url(#clip071)" style="stroke:#000000; stroke-linecap:round; stroke-linejoin:round; stroke-width:2; stroke-opacity:0.1; fill:none" points="1131.73,1698.08 1131.73,56.0244 "/>
<polyline clip-path="url(#clip071)" style="stroke:#000000; stroke-linecap:round; stroke-linejoin:round; stroke-width:2; stroke-opacity:0.1; fill:none" points="1439.61,1698.08 1439.61,56.0244 "/>
<polyline clip-path="url(#clip071)" style="stroke:#000000; stroke-linecap:round; stroke-linejoin:round; stroke-width:2; stroke-opacity:0.1; fill:none" points="1747.5,1698.08 1747.5,56.0244 "/>
<polyline clip-path="url(#clip071)" style="stroke:#000000; stroke-linecap:round; stroke-linejoin:round; stroke-width:2; stroke-opacity:0.1; fill:none" points="310.701,1492.82 1952.76,1492.82 "/>
<polyline clip-path="url(#clip071)" style="stroke:#000000; stroke-linecap:round; stroke-linejoin:round; stroke-width:2; stroke-opacity:0.1; fill:none" points="310.701,1184.94 1952.76,1184.94 "/>
<polyline clip-path="url(#clip071)" style="stroke:#000000; stroke-linecap:round; stroke-linejoin:round; stroke-width:2; stroke-opacity:0.1; fill:none" points="310.701,877.052 1952.76,877.052 "/>
<polyline clip-path="url(#clip071)" style="stroke:#000000; stroke-linecap:round; stroke-linejoin:round; stroke-width:2; stroke-opacity:0.1; fill:none" points="310.701,569.167 1952.76,569.167 "/>
<polyline clip-path="url(#clip071)" style="stroke:#000000; stroke-linecap:round; stroke-linejoin:round; stroke-width:2; stroke-opacity:0.1; fill:none" points="310.701,261.281 1952.76,261.281 "/>
<polyline clip-path="url(#clip070)" style="stroke:#000000; stroke-linecap:round; stroke-linejoin:round; stroke-width:4; stroke-opacity:1; fill:none" points="310.701,1698.08 1952.76,1698.08 "/>
<polyline clip-path="url(#clip070)" style="stroke:#000000; stroke-linecap:round; stroke-linejoin:round; stroke-width:4; stroke-opacity:1; fill:none" points="515.958,1698.08 515.958,1679.38 "/>
<polyline clip-path="url(#clip070)" style="stroke:#000000; stroke-linecap:round; stroke-linejoin:round; stroke-width:4; stroke-opacity:1; fill:none" points="823.843,1698.08 823.843,1679.38 "/>
<polyline clip-path="url(#clip070)" style="stroke:#000000; stroke-linecap:round; stroke-linejoin:round; stroke-width:4; stroke-opacity:1; fill:none" points="1131.73,1698.08 1131.73,1679.38 "/>
<polyline clip-path="url(#clip070)" style="stroke:#000000; stroke-linecap:round; stroke-linejoin:round; stroke-width:4; stroke-opacity:1; fill:none" points="1439.61,1698.08 1439.61,1679.38 "/>
<polyline clip-path="url(#clip070)" style="stroke:#000000; stroke-linecap:round; stroke-linejoin:round; stroke-width:4; stroke-opacity:1; fill:none" points="1747.5,1698.08 1747.5,1679.38 "/>
<path clip-path="url(#clip070)" d="M461.817 1760.23 L513.75 1760.23 L513.75 1767.12 L461.817 1767.12 L461.817 1760.23 Z" fill="#000000" fill-rule="nonzero" fill-opacity="1" /><path clip-path="url(#clip070)" d="M549.925 1756.18 Q544.415 1756.18 541.175 1759.95 Q537.974 1763.71 537.974 1770.28 Q537.974 1776.8 541.175 1780.61 Q544.415 1784.37 549.925 1784.37 Q555.434 1784.37 558.634 1780.61 Q561.875 1776.8 561.875 1770.28 Q561.875 1763.71 558.634 1759.95 Q555.434 1756.18 549.925 1756.18 M566.169 1730.54 L566.169 1737.99 Q563.09 1736.53 559.93 1735.76 Q556.811 1734.99 553.732 1734.99 Q545.631 1734.99 541.337 1740.46 Q537.083 1745.93 536.476 1756.99 Q538.866 1753.46 542.471 1751.6 Q546.076 1749.7 550.411 1749.7 Q559.525 1749.7 564.791 1755.25 Q570.098 1760.76 570.098 1770.28 Q570.098 1779.59 564.589 1785.22 Q559.08 1790.85 549.925 1790.85 Q539.433 1790.85 533.883 1782.83 Q528.333 1774.77 528.333 1759.5 Q528.333 1745.16 535.139 1736.65 Q541.944 1728.11 553.408 1728.11 Q556.487 1728.11 559.606 1728.71 Q562.766 1729.32 566.169 1730.54 Z" fill="#000000" fill-rule="nonzero" fill-opacity="1" /><path clip-path="url(#clip070)" d="M770.412 1760.23 L822.344 1760.23 L822.344 1767.12 L770.412 1767.12 L770.412 1760.23 Z" fill="#000000" fill-rule="nonzero" fill-opacity="1" /><path clip-path="url(#clip070)" d="M864.798 1757.07 Q870.671 1758.33 873.953 1762.3 Q877.274 1766.27 877.274 1772.1 Q877.274 1781.05 871.117 1785.95 Q864.96 1790.85 853.617 1790.85 Q849.809 1790.85 845.758 1790.08 Q841.748 1789.36 837.454 1787.86 L837.454 1779.96 Q840.857 1781.94 844.908 1782.96 Q848.959 1783.97 853.374 1783.97 Q861.071 1783.97 865.081 1780.93 Q869.132 1777.89 869.132 1772.1 Q869.132 1766.75 865.365 1763.75 Q861.638 1760.72 854.954 1760.72 L847.905 1760.72 L847.905 1753.99 L855.278 1753.99 Q861.314 1753.99 864.514 1751.6 Q867.714 1749.17 867.714 1744.63 Q867.714 1739.97 864.393 1737.5 Q861.111 1734.99 854.954 1734.99 Q851.592 1734.99 847.743 1735.72 Q843.895 1736.45 839.277 1737.99 L839.277 1730.7 Q843.936 1729.4 847.986 1728.75 Q852.078 1728.11 855.683 1728.11 Q865 1728.11 870.428 1732.36 Q875.857 1736.57 875.857 1743.78 Q875.857 1748.81 872.981 1752.29 Q870.104 1755.73 864.798 1757.07 Z" fill="#000000" fill-rule="nonzero" fill-opacity="1" /><path clip-path="url(#clip070)" d="M1131.73 1734.59 Q1125.41 1734.59 1122.21 1740.83 Q1119.05 1747.02 1119.05 1759.5 Q1119.05 1771.94 1122.21 1778.17 Q1125.41 1784.37 1131.73 1784.37 Q1138.09 1784.37 1141.25 1778.17 Q1144.45 1771.94 1144.45 1759.5 Q1144.45 1747.02 1141.25 1740.83 Q1138.09 1734.59 1131.73 1734.59 M1131.73 1728.11 Q1141.9 1728.11 1147.24 1736.17 Q1152.63 1744.19 1152.63 1759.5 Q1152.63 1774.77 1147.24 1782.83 Q1141.9 1790.85 1131.73 1790.85 Q1121.56 1790.85 1116.17 1782.83 Q1110.83 1774.77 1110.83 1759.5 Q1110.83 1744.19 1116.17 1736.17 Q1121.56 1728.11 1131.73 1728.11 Z" fill="#000000" fill-rule="nonzero" fill-opacity="1" /><path clip-path="url(#clip070)" d="M1447.05 1757.07 Q1452.92 1758.33 1456.2 1762.3 Q1459.52 1766.27 1459.52 1772.1 Q1459.52 1781.05 1453.37 1785.95 Q1447.21 1790.85 1435.87 1790.85 Q1432.06 1790.85 1428.01 1790.08 Q1424 1789.36 1419.7 1787.86 L1419.7 1779.96 Q1423.11 1781.94 1427.16 1782.96 Q1431.21 1783.97 1435.62 1783.97 Q1443.32 1783.97 1447.33 1780.93 Q1451.38 1777.89 1451.38 1772.1 Q1451.38 1766.75 1447.61 1763.75 Q1443.89 1760.72 1437.2 1760.72 L1430.15 1760.72 L1430.15 1753.99 L1437.53 1753.99 Q1443.56 1753.99 1446.76 1751.6 Q1449.96 1749.17 1449.96 1744.63 Q1449.96 1739.97 1446.64 1737.5 Q1443.36 1734.99 1437.2 1734.99 Q1433.84 1734.99 1429.99 1735.72 Q1426.14 1736.45 1421.53 1737.99 L1421.53 1730.7 Q1426.18 1729.4 1430.24 1728.75 Q1434.33 1728.11 1437.93 1728.11 Q1447.25 1728.11 1452.68 1732.36 Q1458.11 1736.57 1458.11 1743.78 Q1458.11 1748.81 1455.23 1752.29 Q1452.35 1755.73 1447.05 1757.07 Z" fill="#000000" fill-rule="nonzero" fill-opacity="1" /><path clip-path="url(#clip070)" d="M1748.21 1756.18 Q1742.7 1756.18 1739.46 1759.95 Q1736.26 1763.71 1736.26 1770.28 Q1736.26 1776.8 1739.46 1780.61 Q1742.7 1784.37 1748.21 1784.37 Q1753.72 1784.37 1756.92 1780.61 Q1760.16 1776.8 1760.16 1770.28 Q1760.16 1763.71 1756.92 1759.95 Q1753.72 1756.18 1748.21 1756.18 M1764.45 1730.54 L1764.45 1737.99 Q1761.37 1736.53 1758.21 1735.76 Q1755.09 1734.99 1752.02 1734.99 Q1743.91 1734.99 1739.62 1740.46 Q1735.37 1745.93 1734.76 1756.99 Q1737.15 1753.46 1740.75 1751.6 Q1744.36 1749.7 1748.69 1749.7 Q1757.81 1749.7 1763.07 1755.25 Q1768.38 1760.76 1768.38 1770.28 Q1768.38 1779.59 1762.87 1785.22 Q1757.36 1790.85 1748.21 1790.85 Q1737.72 1790.85 1732.17 1782.83 Q1726.62 1774.77 1726.62 1759.5 Q1726.62 1745.16 1733.42 1736.65 Q1740.23 1728.11 1751.69 1728.11 Q1754.77 1728.11 1757.89 1728.71 Q1761.05 1729.32 1764.45 1730.54 Z" fill="#000000" fill-rule="nonzero" fill-opacity="1" /><path clip-path="url(#clip070)" d="M1134.63 1831.37 Q1134.63 1833.99 1132.99 1835.49 Q1131.35 1836.95 1129.48 1836.95 Q1127.7 1836.95 1126.76 1835.92 Q1125.83 1834.88 1125.83 1833.57 Q1125.83 1831.79 1127.14 1830.25 Q1128.45 1828.7 1130.42 1828.37 Q1128.5 1827.16 1125.64 1827.16 Q1123.76 1827.16 1122.13 1828.14 Q1120.53 1829.12 1119.55 1830.39 Q1118.61 1831.65 1117.77 1833.48 Q1116.97 1835.26 1116.64 1836.34 Q1116.36 1837.37 1116.13 1838.49 L1112.85 1851.61 Q1111.26 1857.84 1111.26 1860.04 Q1111.26 1862.76 1112.57 1864.58 Q1113.88 1866.36 1116.5 1866.36 Q1117.53 1866.36 1118.71 1866.08 Q1119.88 1865.76 1121.38 1864.91 Q1122.92 1864.02 1124.28 1862.71 Q1125.69 1861.35 1127.04 1859.06 Q1128.4 1856.76 1129.29 1853.81 Q1129.57 1852.78 1130.51 1852.78 Q1131.68 1852.78 1131.68 1853.72 Q1131.68 1854.51 1131.03 1856.2 Q1130.42 1857.84 1129.06 1859.99 Q1127.75 1862.1 1126.01 1864.02 Q1124.28 1865.9 1121.7 1867.21 Q1119.13 1868.52 1116.32 1868.52 Q1112.29 1868.52 1109.62 1866.36 Q1106.95 1864.21 1105.96 1861.21 Q1105.73 1861.63 1105.4 1862.2 Q1105.07 1862.76 1104.09 1864.02 Q1103.15 1865.24 1102.08 1866.18 Q1101 1867.07 1099.31 1867.77 Q1097.67 1868.52 1095.89 1868.52 Q1093.64 1868.52 1091.63 1867.86 Q1089.66 1867.21 1088.26 1865.71 Q1086.85 1864.21 1086.85 1862.15 Q1086.85 1859.85 1088.4 1858.26 Q1089.99 1856.62 1092.14 1856.62 Q1093.5 1856.62 1094.58 1857.42 Q1095.7 1858.21 1095.7 1859.95 Q1095.7 1861.87 1094.39 1863.32 Q1093.08 1864.77 1091.21 1865.15 Q1093.13 1866.36 1095.99 1866.36 Q1099.08 1866.36 1101.51 1863.65 Q1103.95 1860.93 1105.12 1856.39 Q1108.02 1845.47 1109.15 1840.6 Q1110.27 1835.68 1110.27 1833.57 Q1110.27 1831.61 1109.76 1830.25 Q1109.24 1828.89 1108.35 1828.28 Q1107.51 1827.62 1106.71 1827.39 Q1105.96 1827.16 1105.12 1827.16 Q1103.72 1827.16 1102.12 1827.72 Q1100.58 1828.28 1098.7 1829.59 Q1096.88 1830.86 1095.14 1833.48 Q1093.41 1836.1 1092.24 1839.71 Q1092 1840.79 1090.97 1840.79 Q1089.85 1840.74 1089.85 1839.8 Q1089.85 1839.01 1090.46 1837.37 Q1091.11 1835.68 1092.43 1833.57 Q1093.78 1831.47 1095.52 1829.59 Q1097.3 1827.67 1099.87 1826.36 Q1102.5 1825.05 1105.31 1825.05 Q1106.57 1825.05 1107.79 1825.33 Q1109.06 1825.56 1110.55 1826.27 Q1112.1 1826.97 1113.46 1828.51 Q1114.82 1830.06 1115.66 1832.31 Q1116.22 1831.23 1116.97 1830.2 Q1117.77 1829.17 1118.99 1827.9 Q1120.25 1826.59 1121.98 1825.84 Q1123.76 1825.05 1125.73 1825.05 Q1127.65 1825.05 1129.53 1825.56 Q1131.4 1826.03 1132.99 1827.58 Q1134.63 1829.08 1134.63 1831.37 Z" fill="#000000" fill-rule="nonzero" fill-opacity="1" /><path clip-path="url(#clip070)" d="M1144.41 1856.76 L1144.41 1854.66 Q1152.48 1854.66 1156.64 1850.37 Q1157.79 1850.37 1157.98 1850.63 Q1158.18 1850.89 1158.18 1852.1 L1158.18 1889.78 Q1158.18 1891.78 1159.16 1892.4 Q1160.15 1893.03 1164.44 1893.03 L1166.58 1893.03 L1166.58 1895.09 Q1164.21 1894.9 1155.69 1894.9 Q1147.16 1894.9 1144.83 1895.09 L1144.83 1893.03 L1146.97 1893.03 Q1151.2 1893.03 1152.21 1892.44 Q1153.23 1891.81 1153.23 1889.78 L1153.23 1854.99 Q1149.72 1856.76 1144.41 1856.76 Z" fill="#000000" fill-rule="nonzero" fill-opacity="1" /><polyline clip-path="url(#clip070)" style="stroke:#000000; stroke-linecap:round; stroke-linejoin:round; stroke-width:4; stroke-opacity:1; fill:none" points="310.701,1698.08 310.701,56.0244 "/>
<polyline clip-path="url(#clip070)" style="stroke:#000000; stroke-linecap:round; stroke-linejoin:round; stroke-width:4; stroke-opacity:1; fill:none" points="310.701,1492.82 329.598,1492.82 "/>
<polyline clip-path="url(#clip070)" style="stroke:#000000; stroke-linecap:round; stroke-linejoin:round; stroke-width:4; stroke-opacity:1; fill:none" points="310.701,1184.94 329.598,1184.94 "/>
<polyline clip-path="url(#clip070)" style="stroke:#000000; stroke-linecap:round; stroke-linejoin:round; stroke-width:4; stroke-opacity:1; fill:none" points="310.701,877.052 329.598,877.052 "/>
<polyline clip-path="url(#clip070)" style="stroke:#000000; stroke-linecap:round; stroke-linejoin:round; stroke-width:4; stroke-opacity:1; fill:none" points="310.701,569.167 329.598,569.167 "/>
<polyline clip-path="url(#clip070)" style="stroke:#000000; stroke-linecap:round; stroke-linejoin:round; stroke-width:4; stroke-opacity:1; fill:none" points="310.701,261.281 329.598,261.281 "/>
<path clip-path="url(#clip070)" d="M172.42 1493.61 L224.353 1493.61 L224.353 1500.5 L172.42 1500.5 L172.42 1493.61 Z" fill="#000000" fill-rule="nonzero" fill-opacity="1" /><path clip-path="url(#clip070)" d="M260.527 1489.56 Q255.018 1489.56 251.777 1493.33 Q248.577 1497.1 248.577 1503.66 Q248.577 1510.18 251.777 1513.99 Q255.018 1517.76 260.527 1517.76 Q266.037 1517.76 269.237 1513.99 Q272.477 1510.18 272.477 1503.66 Q272.477 1497.1 269.237 1493.33 Q266.037 1489.56 260.527 1489.56 M276.771 1463.92 L276.771 1471.37 Q273.693 1469.91 270.533 1469.15 Q267.414 1468.38 264.335 1468.38 Q256.233 1468.38 251.939 1473.84 Q247.686 1479.31 247.078 1490.37 Q249.468 1486.85 253.074 1484.98 Q256.679 1483.08 261.013 1483.08 Q270.128 1483.08 275.394 1488.63 Q280.701 1494.14 280.701 1503.66 Q280.701 1512.98 275.192 1518.61 Q269.682 1524.24 260.527 1524.24 Q250.035 1524.24 244.486 1516.22 Q238.936 1508.16 238.936 1492.88 Q238.936 1478.54 245.742 1470.04 Q252.547 1461.49 264.011 1461.49 Q267.09 1461.49 270.209 1462.1 Q273.369 1462.7 276.771 1463.92 Z" fill="#000000" fill-rule="nonzero" fill-opacity="1" /><path clip-path="url(#clip070)" d="M173.838 1185.73 L225.771 1185.73 L225.771 1192.61 L173.838 1192.61 L173.838 1185.73 Z" fill="#000000" fill-rule="nonzero" fill-opacity="1" /><path clip-path="url(#clip070)" d="M268.224 1182.57 Q274.098 1183.82 277.379 1187.79 Q280.701 1191.76 280.701 1197.6 Q280.701 1206.55 274.543 1211.45 Q268.386 1216.35 257.044 1216.35 Q253.236 1216.35 249.185 1215.58 Q245.174 1214.85 240.88 1213.35 L240.88 1205.46 Q244.283 1207.44 248.334 1208.45 Q252.385 1209.47 256.8 1209.47 Q264.497 1209.47 268.508 1206.43 Q272.559 1203.39 272.559 1197.6 Q272.559 1192.25 268.791 1189.25 Q265.064 1186.21 258.38 1186.21 L251.332 1186.21 L251.332 1179.49 L258.704 1179.49 Q264.74 1179.49 267.94 1177.1 Q271.141 1174.67 271.141 1170.13 Q271.141 1165.47 267.819 1163 Q264.538 1160.49 258.38 1160.49 Q255.018 1160.49 251.17 1161.22 Q247.321 1161.95 242.703 1163.49 L242.703 1156.2 Q247.362 1154.9 251.413 1154.25 Q255.504 1153.6 259.11 1153.6 Q268.427 1153.6 273.855 1157.86 Q279.283 1162.07 279.283 1169.28 Q279.283 1174.3 276.407 1177.79 Q273.531 1181.23 268.224 1182.57 Z" fill="#000000" fill-rule="nonzero" fill-opacity="1" /><path clip-path="url(#clip070)" d="M259.798 852.2 Q253.479 852.2 250.279 858.438 Q247.119 864.636 247.119 877.113 Q247.119 889.549 250.279 895.787 Q253.479 901.985 259.798 901.985 Q266.158 901.985 269.318 895.787 Q272.518 889.549 272.518 877.113 Q272.518 864.636 269.318 858.438 Q266.158 852.2 259.798 852.2 M259.798 845.718 Q269.966 845.718 275.313 853.78 Q280.701 861.8 280.701 877.113 Q280.701 892.385 275.313 900.446 Q269.966 908.467 259.798 908.467 Q249.63 908.467 244.243 900.446 Q238.895 892.385 238.895 877.113 Q238.895 861.8 244.243 853.78 Q249.63 845.718 259.798 845.718 Z" fill="#000000" fill-rule="nonzero" fill-opacity="1" /><path clip-path="url(#clip070)" d="M268.224 566.797 Q274.098 568.053 277.379 572.023 Q280.701 575.992 280.701 581.826 Q280.701 590.778 274.543 595.68 Q268.386 600.581 257.044 600.581 Q253.236 600.581 249.185 599.812 Q245.174 599.083 240.88 597.584 L240.88 589.684 Q244.283 591.669 248.334 592.682 Q252.385 593.695 256.8 593.695 Q264.497 593.695 268.508 590.657 Q272.559 587.619 272.559 581.826 Q272.559 576.479 268.791 573.481 Q265.064 570.443 258.38 570.443 L251.332 570.443 L251.332 563.718 L258.704 563.718 Q264.74 563.718 267.94 561.328 Q271.141 558.898 271.141 554.361 Q271.141 549.702 267.819 547.231 Q264.538 544.719 258.38 544.719 Q255.018 544.719 251.17 545.449 Q247.321 546.178 242.703 547.717 L242.703 540.425 Q247.362 539.129 251.413 538.481 Q255.504 537.833 259.11 537.833 Q268.427 537.833 273.855 542.086 Q279.283 546.299 279.283 553.51 Q279.283 558.533 276.407 562.017 Q273.531 565.46 268.224 566.797 Z" fill="#000000" fill-rule="nonzero" fill-opacity="1" /><path clip-path="url(#clip070)" d="M260.527 258.02 Q255.018 258.02 251.777 261.788 Q248.577 265.555 248.577 272.117 Q248.577 278.639 251.777 282.447 Q255.018 286.215 260.527 286.215 Q266.037 286.215 269.237 282.447 Q272.477 278.639 272.477 272.117 Q272.477 265.555 269.237 261.788 Q266.037 258.02 260.527 258.02 M276.771 232.378 L276.771 239.832 Q273.693 238.373 270.533 237.604 Q267.414 236.834 264.335 236.834 Q256.233 236.834 251.939 242.303 Q247.686 247.772 247.078 258.831 Q249.468 255.306 253.074 253.443 Q256.679 251.539 261.013 251.539 Q270.128 251.539 275.394 257.089 Q280.701 262.598 280.701 272.117 Q280.701 281.435 275.192 287.065 Q269.682 292.696 260.527 292.696 Q250.035 292.696 244.486 284.675 Q238.936 276.614 238.936 261.342 Q238.936 247.002 245.742 238.495 Q252.547 229.948 264.011 229.948 Q267.09 229.948 270.209 230.555 Q273.369 231.163 276.771 232.378 Z" fill="#000000" fill-rule="nonzero" fill-opacity="1" /><path clip-path="url(#clip070)" d="M72.048 876.449 Q74.6713 876.449 76.1704 878.089 Q77.6226 879.728 77.6226 881.602 Q77.6226 883.382 76.592 884.319 Q75.5614 885.256 74.2497 885.256 Q72.4696 885.256 70.9238 883.944 Q69.3779 882.633 69.05 880.665 Q67.832 882.586 67.832 885.443 Q67.832 887.317 68.8157 888.957 Q69.7995 890.549 71.0643 891.533 Q72.3291 892.47 74.1561 893.313 Q75.9362 894.11 77.0136 894.437 Q78.0442 894.718 79.1685 894.953 L92.285 898.232 Q98.5154 899.825 100.717 899.825 Q103.434 899.825 105.261 898.513 Q107.041 897.201 107.041 894.578 Q107.041 893.547 106.76 892.376 Q106.432 891.205 105.589 889.706 Q104.699 888.16 103.387 886.802 Q102.029 885.396 99.7334 884.038 Q97.438 882.679 94.4867 881.789 Q93.4561 881.508 93.4561 880.571 Q93.4561 879.4 94.393 879.4 Q95.1894 879.4 96.8758 880.056 Q98.5154 880.665 100.67 882.024 Q102.778 883.335 104.699 885.068 Q106.573 886.802 107.884 889.378 Q109.196 891.955 109.196 894.765 Q109.196 898.794 107.041 901.464 Q104.886 904.134 101.888 905.118 Q102.31 905.352 102.872 905.68 Q103.434 906.008 104.699 906.992 Q105.917 907.929 106.854 909.006 Q107.744 910.084 108.447 911.77 Q109.196 913.41 109.196 915.19 Q109.196 917.438 108.54 919.453 Q107.884 921.42 106.385 922.825 Q104.886 924.231 102.825 924.231 Q100.53 924.231 98.937 922.685 Q97.2974 921.092 97.2974 918.937 Q97.2974 917.579 98.0938 916.501 Q98.8902 915.377 100.623 915.377 Q102.544 915.377 103.996 916.689 Q105.448 918 105.823 919.874 Q107.041 917.954 107.041 915.096 Q107.041 912.004 104.324 909.568 Q101.607 907.132 97.0632 905.961 Q86.1483 903.057 81.2765 901.933 Q76.3578 900.808 74.2497 900.808 Q72.2823 900.808 70.9238 901.324 Q69.5653 901.839 68.9563 902.729 Q68.3004 903.572 68.0662 904.369 Q67.832 905.118 67.832 905.961 Q67.832 907.367 68.3941 908.959 Q68.9563 910.505 70.2679 912.379 Q71.5327 914.206 74.1561 915.939 Q76.7794 917.672 80.3864 918.844 Q81.4639 919.078 81.4639 920.108 Q81.417 921.233 80.4801 921.233 Q79.6838 921.233 78.0442 920.624 Q76.3578 919.968 74.2497 918.656 Q72.1417 917.298 70.2679 915.564 Q68.3473 913.784 67.0356 911.208 Q65.724 908.585 65.724 905.774 Q65.724 904.509 66.005 903.291 Q66.2393 902.026 66.9419 900.527 Q67.6446 898.981 69.1905 897.623 Q70.7364 896.264 72.9849 895.421 Q71.9075 894.859 70.8769 894.11 Q69.8463 893.313 68.5815 892.095 Q67.2699 890.83 66.5203 889.097 Q65.724 887.317 65.724 885.35 Q65.724 883.429 66.2393 881.555 Q66.7077 879.681 68.2536 878.089 Q69.7526 876.449 72.048 876.449 Z" fill="#000000" fill-rule="nonzero" fill-opacity="1" /><path clip-path="url(#clip070)" d="M135.77 866.673 Q134.557 866.673 134.196 866.575 Q133.835 866.444 133.278 865.919 L118.915 853.032 Q110.98 845.982 104.061 845.982 Q99.5682 845.982 96.3546 848.343 Q93.1411 850.671 93.1411 854.967 Q93.1411 857.918 94.9446 860.41 Q96.7481 862.902 99.9617 864.05 Q99.8961 863.853 99.8961 863.164 Q99.8961 861.492 100.945 860.574 Q101.995 859.623 103.405 859.623 Q105.208 859.623 106.094 860.803 Q106.946 861.951 106.946 863.099 Q106.946 863.558 106.848 864.181 Q106.749 864.771 105.831 865.722 Q104.88 866.673 103.208 866.673 Q98.5188 866.673 94.7806 863.132 Q91.0424 859.557 91.0424 854.114 Q91.0424 847.949 94.715 843.916 Q98.3549 839.85 104.061 839.85 Q106.061 839.85 107.897 840.473 Q109.701 841.063 111.111 841.883 Q112.521 842.67 114.783 844.834 Q117.046 846.998 118.653 848.736 Q120.26 850.474 123.67 854.376 L130.589 861.492 L130.589 849.392 Q130.589 843.49 130.064 843.03 Q129.113 842.375 124.096 841.555 L124.096 839.85 L135.77 841.752 L135.77 866.673 Z" fill="#000000" fill-rule="nonzero" fill-opacity="1" /><circle clip-path="url(#clip071)" cx="1118.46" cy="810.621" r="18" fill="#0000ff" fill-rule="evenodd" fill-opacity="1" stroke="none"/>
<circle clip-path="url(#clip071)" cx="1138.48" cy="870.198" r="18" fill="#0000ff" fill-rule="evenodd" fill-opacity="1" stroke="none"/>
<circle clip-path="url(#clip071)" cx="1023.34" cy="893.021" r="18" fill="#0000ff" fill-rule="evenodd" fill-opacity="1" stroke="none"/>
<circle clip-path="url(#clip071)" cx="1123.28" cy="874.238" r="18" fill="#0000ff" fill-rule="evenodd" fill-opacity="1" stroke="none"/>
<circle clip-path="url(#clip071)" cx="1193" cy="815.821" r="18" fill="#0000ff" fill-rule="evenodd" fill-opacity="1" stroke="none"/>
<circle clip-path="url(#clip071)" cx="1114.1" cy="863.23" r="18" fill="#0000ff" fill-rule="evenodd" fill-opacity="1" stroke="none"/>
<circle clip-path="url(#clip071)" cx="1128.04" cy="860.603" r="18" fill="#0000ff" fill-rule="evenodd" fill-opacity="1" stroke="none"/>
<circle clip-path="url(#clip071)" cx="1205.59" cy="851.639" r="18" fill="#0000ff" fill-rule="evenodd" fill-opacity="1" stroke="none"/>
<circle clip-path="url(#clip071)" cx="1107.73" cy="900.015" r="18" fill="#0000ff" fill-rule="evenodd" fill-opacity="1" stroke="none"/>
<circle clip-path="url(#clip071)" cx="1126.44" cy="879.414" r="18" fill="#0000ff" fill-rule="evenodd" fill-opacity="1" stroke="none"/>
<circle clip-path="url(#clip071)" cx="1077.94" cy="899.698" r="18" fill="#0000ff" fill-rule="evenodd" fill-opacity="1" stroke="none"/>
<circle clip-path="url(#clip071)" cx="1016.24" cy="969.707" r="18" fill="#0000ff" fill-rule="evenodd" fill-opacity="1" stroke="none"/>
<circle clip-path="url(#clip071)" cx="1140.32" cy="897.836" r="18" fill="#0000ff" fill-rule="evenodd" fill-opacity="1" stroke="none"/>
<circle clip-path="url(#clip071)" cx="1132.64" cy="911.482" r="18" fill="#0000ff" fill-rule="evenodd" fill-opacity="1" stroke="none"/>
<circle clip-path="url(#clip071)" cx="1195.93" cy="855.109" r="18" fill="#0000ff" fill-rule="evenodd" fill-opacity="1" stroke="none"/>
<circle clip-path="url(#clip071)" cx="1112.39" cy="1006.68" r="18" fill="#0000ff" fill-rule="evenodd" fill-opacity="1" stroke="none"/>
<circle clip-path="url(#clip071)" cx="1099.78" cy="946.04" r="18" fill="#0000ff" fill-rule="evenodd" fill-opacity="1" stroke="none"/>
<circle clip-path="url(#clip071)" cx="1148.9" cy="889.115" r="18" fill="#0000ff" fill-rule="evenodd" fill-opacity="1" stroke="none"/>
<circle clip-path="url(#clip071)" cx="1199.48" cy="935.652" r="18" fill="#0000ff" fill-rule="evenodd" fill-opacity="1" stroke="none"/>
<circle clip-path="url(#clip071)" cx="1140.87" cy="906.506" r="18" fill="#0000ff" fill-rule="evenodd" fill-opacity="1" stroke="none"/>
<circle clip-path="url(#clip071)" cx="1129.93" cy="877.215" r="18" fill="#0000ff" fill-rule="evenodd" fill-opacity="1" stroke="none"/>
<circle clip-path="url(#clip071)" cx="1165.78" cy="796.99" r="18" fill="#0000ff" fill-rule="evenodd" fill-opacity="1" stroke="none"/>
<circle clip-path="url(#clip071)" cx="1131" cy="918.602" r="18" fill="#0000ff" fill-rule="evenodd" fill-opacity="1" stroke="none"/>
<circle clip-path="url(#clip071)" cx="1137.18" cy="877.933" r="18" fill="#0000ff" fill-rule="evenodd" fill-opacity="1" stroke="none"/>
<circle clip-path="url(#clip071)" cx="1159.55" cy="942.956" r="18" fill="#0000ff" fill-rule="evenodd" fill-opacity="1" stroke="none"/>
<circle clip-path="url(#clip071)" cx="1201.97" cy="855.354" r="18" fill="#0000ff" fill-rule="evenodd" fill-opacity="1" stroke="none"/>
<circle clip-path="url(#clip071)" cx="1124.23" cy="882.226" r="18" fill="#0000ff" fill-rule="evenodd" fill-opacity="1" stroke="none"/>
<circle clip-path="url(#clip071)" cx="1033.23" cy="833.952" r="18" fill="#0000ff" fill-rule="evenodd" fill-opacity="1" stroke="none"/>
<circle clip-path="url(#clip071)" cx="1096.17" cy="858.552" r="18" fill="#0000ff" fill-rule="evenodd" fill-opacity="1" stroke="none"/>
<circle clip-path="url(#clip071)" cx="1157.25" cy="879.191" r="18" fill="#0000ff" fill-rule="evenodd" fill-opacity="1" stroke="none"/>
<circle clip-path="url(#clip071)" cx="1088.76" cy="930.085" r="18" fill="#0000ff" fill-rule="evenodd" fill-opacity="1" stroke="none"/>
<circle clip-path="url(#clip071)" cx="1118.33" cy="882.682" r="18" fill="#0000ff" fill-rule="evenodd" fill-opacity="1" stroke="none"/>
<circle clip-path="url(#clip071)" cx="1118.49" cy="887.826" r="18" fill="#0000ff" fill-rule="evenodd" fill-opacity="1" stroke="none"/>
<circle clip-path="url(#clip071)" cx="1133.29" cy="869.997" r="18" fill="#0000ff" fill-rule="evenodd" fill-opacity="1" stroke="none"/>
<circle clip-path="url(#clip071)" cx="1139.62" cy="857.451" r="18" fill="#0000ff" fill-rule="evenodd" fill-opacity="1" stroke="none"/>
<circle clip-path="url(#clip071)" cx="1121.23" cy="867.144" r="18" fill="#0000ff" fill-rule="evenodd" fill-opacity="1" stroke="none"/>
<circle clip-path="url(#clip071)" cx="1109.67" cy="927.667" r="18" fill="#0000ff" fill-rule="evenodd" fill-opacity="1" stroke="none"/>
<circle clip-path="url(#clip071)" cx="1189.39" cy="846.671" r="18" fill="#0000ff" fill-rule="evenodd" fill-opacity="1" stroke="none"/>
<circle clip-path="url(#clip071)" cx="1136.76" cy="921.632" r="18" fill="#0000ff" fill-rule="evenodd" fill-opacity="1" stroke="none"/>
<circle clip-path="url(#clip071)" cx="1139.85" cy="917.181" r="18" fill="#0000ff" fill-rule="evenodd" fill-opacity="1" stroke="none"/>
<path clip-path="url(#clip071)" d="M811.841 640.322 L807.141 653.842 L792.821 654.142 L804.241 662.802 L800.081 676.502 L811.841 668.322 L823.601 676.502 L819.441 662.802 L830.861 654.142 L816.541 653.842 L811.841 640.322 Z" fill="#ff0000" fill-rule="evenodd" fill-opacity="1" stroke="none"/>
<path clip-path="url(#clip071)" d="M887.38 1058.08 L882.68 1071.6 L868.36 1071.9 L879.78 1080.56 L875.62 1094.26 L887.38 1086.08 L899.14 1094.26 L894.98 1080.56 L906.4 1071.9 L892.08 1071.6 L887.38 1058.08 Z" fill="#ff0000" fill-rule="evenodd" fill-opacity="1" stroke="none"/>
<path clip-path="url(#clip071)" d="M1420.2 1001.91 L1415.5 1015.43 L1401.18 1015.73 L1412.6 1024.39 L1408.44 1038.09 L1420.2 1029.91 L1431.96 1038.09 L1427.8 1024.39 L1439.22 1015.73 L1424.9 1015.43 L1420.2 1001.91 Z" fill="#ff0000" fill-rule="evenodd" fill-opacity="1" stroke="none"/>
<path clip-path="url(#clip071)" d="M1263.26 1185.11 L1258.56 1198.63 L1244.24 1198.93 L1255.66 1207.59 L1251.5 1221.29 L1263.26 1213.11 L1275.02 1221.29 L1270.86 1207.59 L1282.28 1198.93 L1267.96 1198.63 L1263.26 1185.11 Z" fill="#ff0000" fill-rule="evenodd" fill-opacity="1" stroke="none"/>
<path clip-path="url(#clip071)" d="M1428.36 899.682 L1423.66 913.202 L1409.34 913.502 L1420.76 922.162 L1416.6 935.862 L1428.36 927.682 L1440.12 935.862 L1435.96 922.162 L1447.38 913.502 L1433.06 913.202 L1428.36 899.682 Z" fill="#ff0000" fill-rule="evenodd" fill-opacity="1" stroke="none"/>
<path clip-path="url(#clip071)" d="M871.601 659.647 L866.901 673.167 L852.581 673.467 L864.001 682.127 L859.841 695.827 L871.601 687.647 L883.361 695.827 L879.201 682.127 L890.621 673.467 L876.301 673.167 L871.601 659.647 Z" fill="#ff0000" fill-rule="evenodd" fill-opacity="1" stroke="none"/>
<path clip-path="url(#clip071)" d="M889.042 762.084 L884.342 775.604 L870.022 775.904 L881.442 784.564 L877.282 798.264 L889.042 790.084 L900.802 798.264 L896.642 784.564 L908.062 775.904 L893.742 775.604 L889.042 762.084 Z" fill="#ff0000" fill-rule="evenodd" fill-opacity="1" stroke="none"/>
<path clip-path="url(#clip071)" d="M924.338 697.093 L919.638 710.613 L905.318 710.913 L916.738 719.573 L912.578 733.273 L924.338 725.093 L936.098 733.273 L931.938 719.573 L943.358 710.913 L929.038 710.613 L924.338 697.093 Z" fill="#ff0000" fill-rule="evenodd" fill-opacity="1" stroke="none"/>
<path clip-path="url(#clip071)" d="M849.607 729.542 L844.907 743.062 L830.587 743.362 L842.007 752.022 L837.847 765.722 L849.607 757.542 L861.367 765.722 L857.207 752.022 L868.627 743.362 L854.307 743.062 L849.607 729.542 Z" fill="#ff0000" fill-rule="evenodd" fill-opacity="1" stroke="none"/>
<path clip-path="url(#clip071)" d="M994.652 542.612 L989.952 556.132 L975.632 556.432 L987.052 565.092 L982.892 578.792 L994.652 570.612 L1006.41 578.792 L1002.25 565.092 L1013.67 556.432 L999.352 556.132 L994.652 542.612 Z" fill="#ff0000" fill-rule="evenodd" fill-opacity="1" stroke="none"/>
<path clip-path="url(#clip071)" d="M865.731 775.089 L861.031 788.609 L846.711 788.909 L858.131 797.569 L853.971 811.269 L865.731 803.089 L877.491 811.269 L873.331 797.569 L884.751 788.909 L870.431 788.609 L865.731 775.089 Z" fill="#ff0000" fill-rule="evenodd" fill-opacity="1" stroke="none"/>
<path clip-path="url(#clip071)" d="M1034.58 561.679 L1029.88 575.199 L1015.56 575.499 L1026.98 584.159 L1022.82 597.859 L1034.58 589.679 L1046.34 597.859 L1042.18 584.159 L1053.6 575.499 L1039.28 575.199 L1034.58 561.679 Z" fill="#ff0000" fill-rule="evenodd" fill-opacity="1" stroke="none"/>
<path clip-path="url(#clip071)" d="M1117.27 1116.11 L1112.57 1129.63 L1098.25 1129.93 L1109.67 1138.59 L1105.51 1152.29 L1117.27 1144.11 L1129.03 1152.29 L1124.87 1138.59 L1136.29 1129.93 L1121.97 1129.63 L1117.27 1116.11 Z" fill="#ff0000" fill-rule="evenodd" fill-opacity="1" stroke="none"/>
<path clip-path="url(#clip071)" d="M915.102 537.934 L910.402 551.454 L896.082 551.754 L907.502 560.414 L903.342 574.114 L915.102 565.934 L926.862 574.114 L922.702 560.414 L934.122 551.754 L919.802 551.454 L915.102 537.934 Z" fill="#ff0000" fill-rule="evenodd" fill-opacity="1" stroke="none"/>
<path clip-path="url(#clip071)" d="M845.821 972.93 L841.121 986.45 L826.801 986.75 L838.221 995.41 L834.061 1009.11 L845.821 1000.93 L857.581 1009.11 L853.421 995.41 L864.841 986.75 L850.521 986.45 L845.821 972.93 Z" fill="#ff0000" fill-rule="evenodd" fill-opacity="1" stroke="none"/>
<path clip-path="url(#clip071)" d="M830.983 1091.72 L826.283 1105.24 L811.963 1105.54 L823.383 1114.2 L819.223 1127.9 L830.983 1119.72 L842.743 1127.9 L838.583 1114.2 L850.003 1105.54 L835.683 1105.24 L830.983 1091.72 Z" fill="#ff0000" fill-rule="evenodd" fill-opacity="1" stroke="none"/>
<path clip-path="url(#clip071)" d="M1275.12 600.778 L1270.42 614.298 L1256.1 614.598 L1267.52 623.258 L1263.36 636.958 L1275.12 628.778 L1286.88 636.958 L1282.72 623.258 L1294.14 614.598 L1279.82 614.298 L1275.12 600.778 Z" fill="#ff0000" fill-rule="evenodd" fill-opacity="1" stroke="none"/>
<path clip-path="url(#clip071)" d="M972.592 1111.78 L967.892 1125.3 L953.572 1125.6 L964.992 1134.26 L960.832 1147.96 L972.592 1139.78 L984.352 1147.96 L980.192 1134.26 L991.612 1125.6 L977.292 1125.3 L972.592 1111.78 Z" fill="#ff0000" fill-rule="evenodd" fill-opacity="1" stroke="none"/>
<path clip-path="url(#clip071)" d="M884.629 803.441 L879.929 816.961 L865.609 817.261 L877.029 825.921 L872.869 839.621 L884.629 831.441 L896.389 839.621 L892.229 825.921 L903.649 817.261 L889.329 816.961 L884.629 803.441 Z" fill="#ff0000" fill-rule="evenodd" fill-opacity="1" stroke="none"/>
<path clip-path="url(#clip071)" d="M1345.29 713.747 L1340.59 727.267 L1326.27 727.567 L1337.69 736.227 L1333.53 749.927 L1345.29 741.747 L1357.05 749.927 L1352.89 736.227 L1364.31 727.567 L1349.99 727.267 L1345.29 713.747 Z" fill="#ff0000" fill-rule="evenodd" fill-opacity="1" stroke="none"/>
<path clip-path="url(#clip071)" d="M853.883 717.534 L849.183 731.054 L834.863 731.354 L846.283 740.014 L842.123 753.714 L853.883 745.534 L865.643 753.714 L861.483 740.014 L872.903 731.354 L858.583 731.054 L853.883 717.534 Z" fill="#ff0000" fill-rule="evenodd" fill-opacity="1" stroke="none"/>
<path clip-path="url(#clip071)" d="M918.678 991.35 L913.978 1004.87 L899.658 1005.17 L911.078 1013.83 L906.918 1027.53 L918.678 1019.35 L930.438 1027.53 L926.278 1013.83 L937.698 1005.17 L923.378 1004.87 L918.678 991.35 Z" fill="#ff0000" fill-rule="evenodd" fill-opacity="1" stroke="none"/>
<path clip-path="url(#clip071)" d="M796.174 938.404 L791.474 951.924 L777.154 952.224 L788.574 960.884 L784.414 974.584 L796.174 966.404 L807.934 974.584 L803.774 960.884 L815.194 952.224 L800.874 951.924 L796.174 938.404 Z" fill="#ff0000" fill-rule="evenodd" fill-opacity="1" stroke="none"/>
<path clip-path="url(#clip071)" d="M1323.56 1083 L1318.86 1096.52 L1304.54 1096.82 L1315.96 1105.48 L1311.8 1119.18 L1323.56 1111 L1335.32 1119.18 L1331.16 1105.48 L1342.58 1096.82 L1328.26 1096.52 L1323.56 1083 Z" fill="#ff0000" fill-rule="evenodd" fill-opacity="1" stroke="none"/>
<path clip-path="url(#clip071)" d="M819.108 1041.84 L814.408 1055.36 L800.088 1055.66 L811.508 1064.32 L807.348 1078.02 L819.108 1069.84 L830.868 1078.02 L826.708 1064.32 L838.128 1055.66 L823.808 1055.36 L819.108 1041.84 Z" fill="#ff0000" fill-rule="evenodd" fill-opacity="1" stroke="none"/>
<path clip-path="url(#clip071)" d="M1176.33 598.662 L1171.63 612.182 L1157.31 612.482 L1168.73 621.142 L1164.57 634.842 L1176.33 626.662 L1188.09 634.842 L1183.93 621.142 L1195.35 612.482 L1181.03 612.182 L1176.33 598.662 Z" fill="#ff0000" fill-rule="evenodd" fill-opacity="1" stroke="none"/>
<path clip-path="url(#clip071)" d="M1270.68 605.823 L1265.98 619.343 L1251.66 619.643 L1263.08 628.303 L1258.92 642.003 L1270.68 633.823 L1282.44 642.003 L1278.28 628.303 L1289.7 619.643 L1275.38 619.343 L1270.68 605.823 Z" fill="#ff0000" fill-rule="evenodd" fill-opacity="1" stroke="none"/>
<path clip-path="url(#clip071)" d="M906.209 683.921 L901.509 697.441 L887.189 697.741 L898.609 706.401 L894.449 720.101 L906.209 711.921 L917.969 720.101 L913.809 706.401 L925.229 697.741 L910.909 697.441 L906.209 683.921 Z" fill="#ff0000" fill-rule="evenodd" fill-opacity="1" stroke="none"/>
<path clip-path="url(#clip071)" d="M852.368 637.72 L847.668 651.24 L833.348 651.54 L844.768 660.2 L840.608 673.9 L852.368 665.72 L864.128 673.9 L859.968 660.2 L871.388 651.54 L857.068 651.24 L852.368 637.72 Z" fill="#ff0000" fill-rule="evenodd" fill-opacity="1" stroke="none"/>
<path clip-path="url(#clip071)" d="M897.045 1141.55 L892.345 1155.07 L878.025 1155.37 L889.445 1164.03 L885.285 1177.73 L897.045 1169.55 L908.805 1177.73 L904.645 1164.03 L916.065 1155.37 L901.745 1155.07 L897.045 1141.55 Z" fill="#ff0000" fill-rule="evenodd" fill-opacity="1" stroke="none"/>
<path clip-path="url(#clip071)" d="M1275.76 637.171 L1271.06 650.691 L1256.74 650.991 L1268.16 659.651 L1264 673.351 L1275.76 665.171 L1287.52 673.351 L1283.36 659.651 L1294.78 650.991 L1280.46 650.691 L1275.76 637.171 Z" fill="#ff0000" fill-rule="evenodd" fill-opacity="1" stroke="none"/>
<path clip-path="url(#clip071)" d="M1190.79 492.584 L1186.09 506.104 L1171.77 506.404 L1183.19 515.064 L1179.03 528.764 L1190.79 520.584 L1202.55 528.764 L1198.39 515.064 L1209.81 506.404 L1195.49 506.104 L1190.79 492.584 Z" fill="#ff0000" fill-rule="evenodd" fill-opacity="1" stroke="none"/>
<path clip-path="url(#clip071)" d="M1249.28 1138.44 L1244.58 1151.96 L1230.26 1152.26 L1241.68 1160.92 L1237.52 1174.62 L1249.28 1166.44 L1261.04 1174.62 L1256.88 1160.92 L1268.3 1152.26 L1253.98 1151.96 L1249.28 1138.44 Z" fill="#ff0000" fill-rule="evenodd" fill-opacity="1" stroke="none"/>
<path clip-path="url(#clip071)" d="M1379.41 1060.84 L1374.71 1074.36 L1360.39 1074.66 L1371.81 1083.32 L1367.65 1097.02 L1379.41 1088.84 L1391.17 1097.02 L1387.01 1083.32 L1398.43 1074.66 L1384.11 1074.36 L1379.41 1060.84 Z" fill="#ff0000" fill-rule="evenodd" fill-opacity="1" stroke="none"/>
<path clip-path="url(#clip071)" d="M1336.15 620.446 L1331.45 633.966 L1317.13 634.266 L1328.55 642.926 L1324.39 656.626 L1336.15 648.446 L1347.91 656.626 L1343.75 642.926 L1355.17 634.266 L1340.85 633.966 L1336.15 620.446 Z" fill="#ff0000" fill-rule="evenodd" fill-opacity="1" stroke="none"/>
<path clip-path="url(#clip071)" d="M1174.84 1183.49 L1170.14 1197.01 L1155.82 1197.31 L1167.24 1205.97 L1163.08 1219.67 L1174.84 1211.49 L1186.6 1219.67 L1182.44 1205.97 L1193.86 1197.31 L1179.54 1197.01 L1174.84 1183.49 Z" fill="#ff0000" fill-rule="evenodd" fill-opacity="1" stroke="none"/>
<path clip-path="url(#clip071)" d="M1188.03 538.87 L1183.33 552.39 L1169.01 552.69 L1180.43 561.35 L1176.27 575.05 L1188.03 566.87 L1199.79 575.05 L1195.63 561.35 L1207.05 552.69 L1192.73 552.39 L1188.03 538.87 Z" fill="#ff0000" fill-rule="evenodd" fill-opacity="1" stroke="none"/>
<path clip-path="url(#clip071)" d="M1333.31 1132.84 L1328.61 1146.36 L1314.29 1146.66 L1325.71 1155.32 L1321.55 1169.02 L1333.31 1160.84 L1345.07 1169.02 L1340.91 1155.32 L1352.33 1146.66 L1338.01 1146.36 L1333.31 1132.84 Z" fill="#ff0000" fill-rule="evenodd" fill-opacity="1" stroke="none"/>
<path clip-path="url(#clip071)" d="M947.292 637.293 L942.592 650.813 L928.272 651.113 L939.692 659.773 L935.532 673.473 L947.292 665.293 L959.052 673.473 L954.892 659.773 L966.312 651.113 L951.992 650.813 L947.292 637.293 Z" fill="#ff0000" fill-rule="evenodd" fill-opacity="1" stroke="none"/>
<path clip-path="url(#clip071)" d="M1464.41 695.721 L1459.71 709.241 L1445.39 709.541 L1456.81 718.201 L1452.65 731.901 L1464.41 723.721 L1476.17 731.901 L1472.01 718.201 L1483.43 709.541 L1469.11 709.241 L1464.41 695.721 Z" fill="#ff0000" fill-rule="evenodd" fill-opacity="1" stroke="none"/>
<path clip-path="url(#clip071)" d="M826.802 869.728 L822.102 883.248 L807.782 883.548 L819.202 892.208 L815.042 905.908 L826.802 897.728 L838.562 905.908 L834.402 892.208 L845.822 883.548 L831.502 883.248 L826.802 869.728 Z" fill="#ff0000" fill-rule="evenodd" fill-opacity="1" stroke="none"/>
<path clip-path="url(#clip071)" d="M969.057 1034.57 L964.357 1048.09 L950.037 1048.39 L961.457 1057.05 L957.297 1070.75 L969.057 1062.57 L980.817 1070.75 L976.657 1057.05 L988.077 1048.39 L973.757 1048.09 L969.057 1034.57 Z" fill="#ff0000" fill-rule="evenodd" fill-opacity="1" stroke="none"/>
<path clip-path="url(#clip071)" d="M1197.78 508.655 L1193.08 522.175 L1178.76 522.475 L1190.18 531.135 L1186.02 544.835 L1197.78 536.655 L1209.54 544.835 L1205.38 531.135 L1216.8 522.475 L1202.48 522.175 L1197.78 508.655 Z" fill="#ff0000" fill-rule="evenodd" fill-opacity="1" stroke="none"/>
<path clip-path="url(#clip071)" d="M1315.8 1013.38 L1311.1 1026.9 L1296.78 1027.2 L1308.2 1035.86 L1304.04 1049.56 L1315.8 1041.38 L1327.56 1049.56 L1323.4 1035.86 L1334.82 1027.2 L1320.5 1026.9 L1315.8 1013.38 Z" fill="#ff0000" fill-rule="evenodd" fill-opacity="1" stroke="none"/>
<path clip-path="url(#clip071)" d="M1376.57 1026.73 L1371.87 1040.25 L1357.55 1040.55 L1368.97 1049.21 L1364.81 1062.91 L1376.57 1054.73 L1388.33 1062.91 L1384.17 1049.21 L1395.59 1040.55 L1381.27 1040.25 L1376.57 1026.73 Z" fill="#ff0000" fill-rule="evenodd" fill-opacity="1" stroke="none"/>
<path clip-path="url(#clip071)" d="M1435.59 943.298 L1430.89 956.818 L1416.57 957.118 L1427.99 965.778 L1423.83 979.478 L1435.59 971.298 L1447.35 979.478 L1443.19 965.778 L1454.61 957.118 L1440.29 956.818 L1435.59 943.298 Z" fill="#ff0000" fill-rule="evenodd" fill-opacity="1" stroke="none"/>
<path clip-path="url(#clip071)" d="M736.814 812.658 L732.114 826.178 L717.794 826.478 L729.214 835.138 L725.054 848.838 L736.814 840.658 L748.574 848.838 L744.414 835.138 L755.834 826.478 L741.514 826.178 L736.814 812.658 Z" fill="#ff0000" fill-rule="evenodd" fill-opacity="1" stroke="none"/>
<path clip-path="url(#clip071)" d="M1169.12 542.355 L1164.42 555.875 L1150.1 556.175 L1161.52 564.835 L1157.36 578.535 L1169.12 570.355 L1180.88 578.535 L1176.72 564.835 L1188.14 556.175 L1173.82 555.875 L1169.12 542.355 Z" fill="#ff0000" fill-rule="evenodd" fill-opacity="1" stroke="none"/>
<path clip-path="url(#clip071)" d="M1182.44 1125.28 L1177.74 1138.8 L1163.42 1139.1 L1174.84 1147.76 L1170.68 1161.46 L1182.44 1153.28 L1194.2 1161.46 L1190.04 1147.76 L1201.46 1139.1 L1187.14 1138.8 L1182.44 1125.28 Z" fill="#ff0000" fill-rule="evenodd" fill-opacity="1" stroke="none"/>
<path clip-path="url(#clip071)" d="M1160.24 615.377 L1155.54 628.897 L1141.22 629.197 L1152.64 637.857 L1148.48 651.557 L1160.24 643.377 L1172 651.557 L1167.84 637.857 L1179.26 629.197 L1164.94 628.897 L1160.24 615.377 Z" fill="#ff0000" fill-rule="evenodd" fill-opacity="1" stroke="none"/>
<path clip-path="url(#clip071)" d="M789.798 971.165 L785.098 984.685 L770.778 984.985 L782.198 993.645 L778.038 1007.35 L789.798 999.165 L801.558 1007.35 L797.398 993.645 L808.818 984.985 L794.498 984.685 L789.798 971.165 Z" fill="#ff0000" fill-rule="evenodd" fill-opacity="1" stroke="none"/>
<path clip-path="url(#clip071)" d="M1308.57 546.316 L1303.87 559.836 L1289.55 560.136 L1300.97 568.796 L1296.81 582.496 L1308.57 574.316 L1320.33 582.496 L1316.17 568.796 L1327.59 560.136 L1313.27 559.836 L1308.57 546.316 Z" fill="#ff0000" fill-rule="evenodd" fill-opacity="1" stroke="none"/>
<path clip-path="url(#clip071)" d="M1321.24 1191.14 L1316.54 1204.66 L1302.22 1204.96 L1313.64 1213.62 L1309.48 1227.32 L1321.24 1219.14 L1333 1227.32 L1328.84 1213.62 L1340.26 1204.96 L1325.94 1204.66 L1321.24 1191.14 Z" fill="#ff0000" fill-rule="evenodd" fill-opacity="1" stroke="none"/>
<path clip-path="url(#clip071)" d="M1452.45 700.058 L1447.75 713.578 L1433.43 713.878 L1444.85 722.538 L1440.69 736.238 L1452.45 728.058 L1464.21 736.238 L1460.05 722.538 L1471.47 713.878 L1457.15 713.578 L1452.45 700.058 Z" fill="#ff0000" fill-rule="evenodd" fill-opacity="1" stroke="none"/>
<path clip-path="url(#clip071)" d="M1413.98 792.913 L1409.28 806.433 L1394.96 806.733 L1406.38 815.393 L1402.22 829.093 L1413.98 820.913 L1425.74 829.093 L1421.58 815.393 L1433 806.733 L1418.68 806.433 L1413.98 792.913 Z" fill="#ff0000" fill-rule="evenodd" fill-opacity="1" stroke="none"/>
<path clip-path="url(#clip071)" d="M1380.98 759.113 L1376.28 772.633 L1361.96 772.933 L1373.38 781.593 L1369.22 795.293 L1380.98 787.113 L1392.74 795.293 L1388.58 781.593 L1400 772.933 L1385.68 772.633 L1380.98 759.113 Z" fill="#ff0000" fill-rule="evenodd" fill-opacity="1" stroke="none"/>
<path clip-path="url(#clip071)" d="M1406.39 1088.75 L1401.69 1102.27 L1387.37 1102.57 L1398.79 1111.23 L1394.63 1124.93 L1406.39 1116.75 L1418.15 1124.93 L1413.99 1111.23 L1425.41 1102.57 L1411.09 1102.27 L1406.39 1088.75 Z" fill="#ff0000" fill-rule="evenodd" fill-opacity="1" stroke="none"/>
<path clip-path="url(#clip071)" d="M1505.1 799.167 L1500.4 812.687 L1486.08 812.987 L1497.5 821.647 L1493.34 835.347 L1505.1 827.167 L1516.86 835.347 L1512.7 821.647 L1524.12 812.987 L1509.8 812.687 L1505.1 799.167 Z" fill="#ff0000" fill-rule="evenodd" fill-opacity="1" stroke="none"/>
<path clip-path="url(#clip071)" d="M914.528 609.942 L909.828 623.462 L895.508 623.762 L906.928 632.422 L902.768 646.122 L914.528 637.942 L926.288 646.122 L922.128 632.422 L933.548 623.762 L919.228 623.462 L914.528 609.942 Z" fill="#ff0000" fill-rule="evenodd" fill-opacity="1" stroke="none"/>
<path clip-path="url(#clip071)" d="M1043.34 1143.42 L1038.64 1156.94 L1024.32 1157.24 L1035.74 1165.9 L1031.58 1179.6 L1043.34 1171.42 L1055.1 1179.6 L1050.94 1165.9 L1062.36 1157.24 L1048.04 1156.94 L1043.34 1143.42 Z" fill="#ff0000" fill-rule="evenodd" fill-opacity="1" stroke="none"/>
<path clip-path="url(#clip071)" d="M1248.86 636.952 L1244.16 650.472 L1229.84 650.772 L1241.26 659.432 L1237.1 673.132 L1248.86 664.952 L1260.62 673.132 L1256.46 659.432 L1267.88 650.772 L1253.56 650.472 L1248.86 636.952 Z" fill="#ff0000" fill-rule="evenodd" fill-opacity="1" stroke="none"/>
<path clip-path="url(#clip071)" d="M856.223 611.599 L851.523 625.119 L837.203 625.419 L848.623 634.079 L844.463 647.779 L856.223 639.599 L867.983 647.779 L863.823 634.079 L875.243 625.419 L860.923 625.119 L856.223 611.599 Z" fill="#ff0000" fill-rule="evenodd" fill-opacity="1" stroke="none"/>
<path clip-path="url(#clip071)" d="M893.608 646.471 L888.908 659.991 L874.588 660.291 L886.008 668.951 L881.848 682.651 L893.608 674.471 L905.368 682.651 L901.208 668.951 L912.628 660.291 L898.308 659.991 L893.608 646.471 Z" fill="#ff0000" fill-rule="evenodd" fill-opacity="1" stroke="none"/>
<path clip-path="url(#clip071)" d="M1314.76 1147.33 L1310.06 1160.85 L1295.74 1161.15 L1307.16 1169.81 L1303 1183.51 L1314.76 1175.33 L1326.52 1183.51 L1322.36 1169.81 L1333.78 1161.15 L1319.46 1160.85 L1314.76 1147.33 Z" fill="#ff0000" fill-rule="evenodd" fill-opacity="1" stroke="none"/>
<path clip-path="url(#clip071)" d="M896.433 662.122 L891.733 675.642 L877.413 675.942 L888.833 684.602 L884.673 698.302 L896.433 690.122 L908.193 698.302 L904.033 684.602 L915.453 675.942 L901.133 675.642 L896.433 662.122 Z" fill="#ff0000" fill-rule="evenodd" fill-opacity="1" stroke="none"/>
<path clip-path="url(#clip071)" d="M1552.98 765.17 L1548.28 778.69 L1533.96 778.99 L1545.38 787.65 L1541.22 801.35 L1552.98 793.17 L1564.74 801.35 L1560.58 787.65 L1572 778.99 L1557.68 778.69 L1552.98 765.17 Z" fill="#ff0000" fill-rule="evenodd" fill-opacity="1" stroke="none"/>
<path clip-path="url(#clip071)" d="M945.637 1093.57 L940.937 1107.09 L926.617 1107.39 L938.037 1116.05 L933.877 1129.75 L945.637 1121.57 L957.397 1129.75 L953.237 1116.05 L964.657 1107.39 L950.337 1107.09 L945.637 1093.57 Z" fill="#ff0000" fill-rule="evenodd" fill-opacity="1" stroke="none"/>
<path clip-path="url(#clip071)" d="M1395.87 755.372 L1391.17 768.892 L1376.85 769.192 L1388.27 777.852 L1384.11 791.552 L1395.87 783.372 L1407.63 791.552 L1403.47 777.852 L1414.89 769.192 L1400.57 768.892 L1395.87 755.372 Z" fill="#ff0000" fill-rule="evenodd" fill-opacity="1" stroke="none"/>
<path clip-path="url(#clip071)" d="M949.172 1029.34 L944.472 1042.86 L930.152 1043.16 L941.572 1051.82 L937.412 1065.52 L949.172 1057.34 L960.932 1065.52 L956.772 1051.82 L968.192 1043.16 L953.872 1042.86 L949.172 1029.34 Z" fill="#ff0000" fill-rule="evenodd" fill-opacity="1" stroke="none"/>
<path clip-path="url(#clip071)" d="M807.262 553.972 L802.562 567.492 L788.242 567.792 L799.662 576.452 L795.502 590.152 L807.262 581.972 L819.022 590.152 L814.862 576.452 L826.282 567.792 L811.962 567.492 L807.262 553.972 Z" fill="#ff0000" fill-rule="evenodd" fill-opacity="1" stroke="none"/>
<path clip-path="url(#clip071)" d="M1479.37 829.712 L1474.67 843.232 L1460.35 843.532 L1471.77 852.192 L1467.61 865.892 L1479.37 857.712 L1491.13 865.892 L1486.97 852.192 L1498.39 843.532 L1484.07 843.232 L1479.37 829.712 Z" fill="#ff0000" fill-rule="evenodd" fill-opacity="1" stroke="none"/>
<path clip-path="url(#clip071)" d="M910.971 1003.33 L906.271 1016.85 L891.951 1017.15 L903.371 1025.81 L899.211 1039.51 L910.971 1031.33 L922.731 1039.51 L918.571 1025.81 L929.991 1017.15 L915.671 1016.85 L910.971 1003.33 Z" fill="#ff0000" fill-rule="evenodd" fill-opacity="1" stroke="none"/>
<path clip-path="url(#clip071)" d="M766.553 912.245 L761.853 925.765 L747.533 926.065 L758.953 934.725 L754.793 948.425 L766.553 940.245 L778.313 948.425 L774.153 934.725 L785.573 926.065 L771.253 925.765 L766.553 912.245 Z" fill="#ff0000" fill-rule="evenodd" fill-opacity="1" stroke="none"/>
<path clip-path="url(#clip071)" d="M1393.16 845.475 L1388.46 858.995 L1374.14 859.295 L1385.56 867.955 L1381.4 881.655 L1393.16 873.475 L1404.92 881.655 L1400.76 867.955 L1412.18 859.295 L1397.86 858.995 L1393.16 845.475 Z" fill="#ff0000" fill-rule="evenodd" fill-opacity="1" stroke="none"/>
<path clip-path="url(#clip071)" d="M826.098 875.183 L821.398 888.703 L807.078 889.003 L818.498 897.663 L814.338 911.363 L826.098 903.183 L837.858 911.363 L833.698 897.663 L845.118 889.003 L830.798 888.703 L826.098 875.183 Z" fill="#ff0000" fill-rule="evenodd" fill-opacity="1" stroke="none"/>
<path clip-path="url(#clip071)" d="M1190.21 578.168 L1185.51 591.688 L1171.19 591.988 L1182.61 600.648 L1178.45 614.348 L1190.21 606.168 L1201.97 614.348 L1197.81 600.648 L1209.23 591.988 L1194.91 591.688 L1190.21 578.168 Z" fill="#ff0000" fill-rule="evenodd" fill-opacity="1" stroke="none"/>
<path clip-path="url(#clip071)" d="M885.905 1028.87 L881.205 1042.39 L866.885 1042.69 L878.305 1051.35 L874.145 1065.05 L885.905 1056.87 L897.665 1065.05 L893.505 1051.35 L904.925 1042.69 L890.605 1042.39 L885.905 1028.87 Z" fill="#ff0000" fill-rule="evenodd" fill-opacity="1" stroke="none"/>
<path clip-path="url(#clip071)" d="M926.428 943.273 L921.728 956.793 L907.408 957.093 L918.828 965.753 L914.668 979.453 L926.428 971.273 L938.188 979.453 L934.028 965.753 L945.448 957.093 L931.128 956.793 L926.428 943.273 Z" fill="#ff0000" fill-rule="evenodd" fill-opacity="1" stroke="none"/>
<path clip-path="url(#clip071)" d="M901.876 1046.39 L897.176 1059.91 L882.856 1060.21 L894.276 1068.87 L890.116 1082.57 L901.876 1074.39 L913.636 1082.57 L909.476 1068.87 L920.896 1060.21 L906.576 1059.91 L901.876 1046.39 Z" fill="#ff0000" fill-rule="evenodd" fill-opacity="1" stroke="none"/>
<path clip-path="url(#clip071)" d="M1398.87 1008.01 L1394.17 1021.53 L1379.85 1021.83 L1391.27 1030.49 L1387.11 1044.19 L1398.87 1036.01 L1410.63 1044.19 L1406.47 1030.49 L1417.89 1021.83 L1403.57 1021.53 L1398.87 1008.01 Z" fill="#ff0000" fill-rule="evenodd" fill-opacity="1" stroke="none"/>
<path clip-path="url(#clip071)" d="M1615.84 1331.92 L1595.84 1371.92 L1635.84 1371.92 L1615.84 1331.92 Z" fill="#ffa500" fill-rule="evenodd" fill-opacity="1" stroke="none"/>
<path clip-path="url(#clip071)" d="M1057.65 287.276 L1037.65 327.276 L1077.65 327.276 L1057.65 287.276 Z" fill="#ffa500" fill-rule="evenodd" fill-opacity="1" stroke="none"/>
<path clip-path="url(#clip071)" d="M1211.89 1451.68 L1191.89 1491.68 L1231.89 1491.68 L1211.89 1451.68 Z" fill="#ffa500" fill-rule="evenodd" fill-opacity="1" stroke="none"/>
<path clip-path="url(#clip071)" d="M797.237 1358.11 L777.237 1398.11 L817.237 1398.11 L797.237 1358.11 Z" fill="#ffa500" fill-rule="evenodd" fill-opacity="1" stroke="none"/>
<path clip-path="url(#clip071)" d="M765.624 1336 L745.624 1376 L785.624 1376 L765.624 1336 Z" fill="#ffa500" fill-rule="evenodd" fill-opacity="1" stroke="none"/>
<path clip-path="url(#clip071)" d="M1507.5 330.829 L1487.5 370.829 L1527.5 370.829 L1507.5 330.829 Z" fill="#ffa500" fill-rule="evenodd" fill-opacity="1" stroke="none"/>
<path clip-path="url(#clip071)" d="M956.924 1378.94 L936.924 1418.94 L976.924 1418.94 L956.924 1378.94 Z" fill="#ffa500" fill-rule="evenodd" fill-opacity="1" stroke="none"/>
<path clip-path="url(#clip071)" d="M564.418 547.24 L544.418 587.24 L584.418 587.24 L564.418 547.24 Z" fill="#ffa500" fill-rule="evenodd" fill-opacity="1" stroke="none"/>
<path clip-path="url(#clip071)" d="M828.323 1354.04 L808.323 1394.04 L848.323 1394.04 L828.323 1354.04 Z" fill="#ffa500" fill-rule="evenodd" fill-opacity="1" stroke="none"/>
<path clip-path="url(#clip071)" d="M1761.38 870.7 L1741.38 910.7 L1781.38 910.7 L1761.38 870.7 Z" fill="#ffa500" fill-rule="evenodd" fill-opacity="1" stroke="none"/>
<path clip-path="url(#clip071)" d="M602.992 667.182 L582.992 707.182 L622.992 707.182 L602.992 667.182 Z" fill="#ffa500" fill-rule="evenodd" fill-opacity="1" stroke="none"/>
<path clip-path="url(#clip071)" d="M676.876 1320.29 L656.876 1360.29 L696.876 1360.29 L676.876 1320.29 Z" fill="#ffa500" fill-rule="evenodd" fill-opacity="1" stroke="none"/>
<path clip-path="url(#clip071)" d="M1524.82 1367.47 L1504.82 1407.47 L1544.82 1407.47 L1524.82 1367.47 Z" fill="#ffa500" fill-rule="evenodd" fill-opacity="1" stroke="none"/>
<path clip-path="url(#clip071)" d="M1390.8 232.719 L1370.8 272.719 L1410.8 272.719 L1390.8 232.719 Z" fill="#ffa500" fill-rule="evenodd" fill-opacity="1" stroke="none"/>
<path clip-path="url(#clip071)" d="M1620.68 1237.33 L1600.68 1277.33 L1640.68 1277.33 L1620.68 1237.33 Z" fill="#ffa500" fill-rule="evenodd" fill-opacity="1" stroke="none"/>
<path clip-path="url(#clip071)" d="M535.135 979.108 L515.135 1019.11 L555.135 1019.11 L535.135 979.108 Z" fill="#ffa500" fill-rule="evenodd" fill-opacity="1" stroke="none"/>
<path clip-path="url(#clip071)" d="M1658.2 1244.4 L1638.2 1284.4 L1678.2 1284.4 L1658.2 1244.4 Z" fill="#ffa500" fill-rule="evenodd" fill-opacity="1" stroke="none"/>
<path clip-path="url(#clip071)" d="M571.164 1032.46 L551.164 1072.46 L591.164 1072.46 L571.164 1032.46 Z" fill="#ffa500" fill-rule="evenodd" fill-opacity="1" stroke="none"/>
<path clip-path="url(#clip071)" d="M545.212 1106.03 L525.212 1146.03 L565.212 1146.03 L545.212 1106.03 Z" fill="#ffa500" fill-rule="evenodd" fill-opacity="1" stroke="none"/>
<path clip-path="url(#clip071)" d="M1286.63 1497.16 L1266.63 1537.16 L1306.63 1537.16 L1286.63 1497.16 Z" fill="#ffa500" fill-rule="evenodd" fill-opacity="1" stroke="none"/>
<path clip-path="url(#clip071)" d="M1734.32 883.157 L1714.32 923.157 L1754.32 923.157 L1734.32 883.157 Z" fill="#ffa500" fill-rule="evenodd" fill-opacity="1" stroke="none"/>
<path clip-path="url(#clip071)" d="M1661.3 442.877 L1641.3 482.877 L1681.3 482.877 L1661.3 442.877 Z" fill="#ffa500" fill-rule="evenodd" fill-opacity="1" stroke="none"/>
<path clip-path="url(#clip071)" d="M627.421 1210.47 L607.421 1250.47 L647.421 1250.47 L627.421 1210.47 Z" fill="#ffa500" fill-rule="evenodd" fill-opacity="1" stroke="none"/>
<path clip-path="url(#clip071)" d="M1596.12 1259.44 L1576.12 1299.44 L1616.12 1299.44 L1596.12 1259.44 Z" fill="#ffa500" fill-rule="evenodd" fill-opacity="1" stroke="none"/>
<path clip-path="url(#clip071)" d="M1399.07 285.633 L1379.07 325.633 L1419.07 325.633 L1399.07 285.633 Z" fill="#ffa500" fill-rule="evenodd" fill-opacity="1" stroke="none"/>
<path clip-path="url(#clip071)" d="M1863.98 928.323 L1843.98 968.323 L1883.98 968.323 L1863.98 928.323 Z" fill="#ffa500" fill-rule="evenodd" fill-opacity="1" stroke="none"/>
<path clip-path="url(#clip071)" d="M444.393 823.541 L424.393 863.541 L464.393 863.541 L444.393 823.541 Z" fill="#ffa500" fill-rule="evenodd" fill-opacity="1" stroke="none"/>
<path clip-path="url(#clip071)" d="M1648.28 806.741 L1628.28 846.741 L1668.28 846.741 L1648.28 806.741 Z" fill="#ffa500" fill-rule="evenodd" fill-opacity="1" stroke="none"/>
<path clip-path="url(#clip071)" d="M920.871 246.406 L900.871 286.406 L940.871 286.406 L920.871 246.406 Z" fill="#ffa500" fill-rule="evenodd" fill-opacity="1" stroke="none"/>
<path clip-path="url(#clip071)" d="M1756.8 683.283 L1736.8 723.283 L1776.8 723.283 L1756.8 683.283 Z" fill="#ffa500" fill-rule="evenodd" fill-opacity="1" stroke="none"/>
<path clip-path="url(#clip071)" d="M498.901 980.754 L478.901 1020.75 L518.901 1020.75 L498.901 980.754 Z" fill="#ffa500" fill-rule="evenodd" fill-opacity="1" stroke="none"/>
<path clip-path="url(#clip071)" d="M685.974 372.125 L665.974 412.125 L705.974 412.125 L685.974 372.125 Z" fill="#ffa500" fill-rule="evenodd" fill-opacity="1" stroke="none"/>
<path clip-path="url(#clip071)" d="M1694.59 456.096 L1674.59 496.096 L1714.59 496.096 L1694.59 456.096 Z" fill="#ffa500" fill-rule="evenodd" fill-opacity="1" stroke="none"/>
<path clip-path="url(#clip071)" d="M1827.38 579.611 L1807.38 619.611 L1847.38 619.611 L1827.38 579.611 Z" fill="#ffa500" fill-rule="evenodd" fill-opacity="1" stroke="none"/>
<path clip-path="url(#clip071)" d="M1824.71 924.103 L1804.71 964.103 L1844.71 964.103 L1824.71 924.103 Z" fill="#ffa500" fill-rule="evenodd" fill-opacity="1" stroke="none"/>
<path clip-path="url(#clip071)" d="M520.82 990.617 L500.82 1030.62 L540.82 1030.62 L520.82 990.617 Z" fill="#ffa500" fill-rule="evenodd" fill-opacity="1" stroke="none"/>
<path clip-path="url(#clip071)" d="M1177.81 206.458 L1157.81 246.458 L1197.81 246.458 L1177.81 206.458 Z" fill="#ffa500" fill-rule="evenodd" fill-opacity="1" stroke="none"/>
<path clip-path="url(#clip071)" d="M626.917 534.425 L606.917 574.425 L646.917 574.425 L626.917 534.425 Z" fill="#ffa500" fill-rule="evenodd" fill-opacity="1" stroke="none"/>
<path clip-path="url(#clip071)" d="M1376.47 1480.2 L1356.47 1520.2 L1396.47 1520.2 L1376.47 1480.2 Z" fill="#ffa500" fill-rule="evenodd" fill-opacity="1" stroke="none"/>
<path clip-path="url(#clip071)" d="M778.56 407.144 L758.56 447.144 L798.56 447.144 L778.56 407.144 Z" fill="#ffa500" fill-rule="evenodd" fill-opacity="1" stroke="none"/>
<path clip-path="url(#clip071)" d="M901.278 1363.73 L881.278 1403.73 L921.278 1403.73 L901.278 1363.73 Z" fill="#ffa500" fill-rule="evenodd" fill-opacity="1" stroke="none"/>
<path clip-path="url(#clip071)" d="M821.292 312.906 L801.292 352.906 L841.292 352.906 L821.292 312.906 Z" fill="#ffa500" fill-rule="evenodd" fill-opacity="1" stroke="none"/>
<path clip-path="url(#clip071)" d="M1220.17 262.16 L1200.17 302.16 L1240.17 302.16 L1220.17 262.16 Z" fill="#ffa500" fill-rule="evenodd" fill-opacity="1" stroke="none"/>
<path clip-path="url(#clip071)" d="M1779.71 894.185 L1759.71 934.185 L1799.71 934.185 L1779.71 894.185 Z" fill="#ffa500" fill-rule="evenodd" fill-opacity="1" stroke="none"/>
<path clip-path="url(#clip071)" d="M1670.66 1172.53 L1650.66 1212.53 L1690.66 1212.53 L1670.66 1172.53 Z" fill="#ffa500" fill-rule="evenodd" fill-opacity="1" stroke="none"/>
<path clip-path="url(#clip071)" d="M587.695 668.223 L567.695 708.223 L607.695 708.223 L587.695 668.223 Z" fill="#ffa500" fill-rule="evenodd" fill-opacity="1" stroke="none"/>
<path clip-path="url(#clip071)" d="M744.773 344.48 L724.773 384.48 L764.773 384.48 L744.773 344.48 Z" fill="#ffa500" fill-rule="evenodd" fill-opacity="1" stroke="none"/>
<path clip-path="url(#clip071)" d="M1643.32 1344.73 L1623.32 1384.73 L1663.32 1384.73 L1643.32 1344.73 Z" fill="#ffa500" fill-rule="evenodd" fill-opacity="1" stroke="none"/>
<path clip-path="url(#clip071)" d="M1073.97 268.241 L1053.97 308.241 L1093.97 308.241 L1073.97 268.241 Z" fill="#ffa500" fill-rule="evenodd" fill-opacity="1" stroke="none"/>
<path clip-path="url(#clip071)" d="M811.499 340.179 L791.499 380.179 L831.499 380.179 L811.499 340.179 Z" fill="#ffa500" fill-rule="evenodd" fill-opacity="1" stroke="none"/>
<path clip-path="url(#clip071)" d="M578.375 1165.67 L558.375 1205.67 L598.375 1205.67 L578.375 1165.67 Z" fill="#ffa500" fill-rule="evenodd" fill-opacity="1" stroke="none"/>
<path clip-path="url(#clip071)" d="M1079.12 1460.96 L1059.12 1500.96 L1099.12 1500.96 L1079.12 1460.96 Z" fill="#ffa500" fill-rule="evenodd" fill-opacity="1" stroke="none"/>
<path clip-path="url(#clip071)" d="M900.958 203.872 L880.958 243.872 L920.958 243.872 L900.958 203.872 Z" fill="#ffa500" fill-rule="evenodd" fill-opacity="1" stroke="none"/>
<path clip-path="url(#clip071)" d="M1758.72 664.004 L1738.72 704.004 L1778.72 704.004 L1758.72 664.004 Z" fill="#ffa500" fill-rule="evenodd" fill-opacity="1" stroke="none"/>
<path clip-path="url(#clip071)" d="M603.433 576.034 L583.433 616.034 L623.433 616.034 L603.433 576.034 Z" fill="#ffa500" fill-rule="evenodd" fill-opacity="1" stroke="none"/>
<path clip-path="url(#clip071)" d="M510.119 923.644 L490.119 963.644 L530.119 963.644 L510.119 923.644 Z" fill="#ffa500" fill-rule="evenodd" fill-opacity="1" stroke="none"/>
<path clip-path="url(#clip071)" d="M1029.52 1433.52 L1009.52 1473.52 L1049.52 1473.52 L1029.52 1433.52 Z" fill="#ffa500" fill-rule="evenodd" fill-opacity="1" stroke="none"/>
<path clip-path="url(#clip071)" d="M1116.76 1462.98 L1096.76 1502.98 L1136.76 1502.98 L1116.76 1462.98 Z" fill="#ffa500" fill-rule="evenodd" fill-opacity="1" stroke="none"/>
<path clip-path="url(#clip071)" d="M1741.8 706.902 L1721.8 746.902 L1761.8 746.902 L1741.8 706.902 Z" fill="#ffa500" fill-rule="evenodd" fill-opacity="1" stroke="none"/>
<path clip-path="url(#clip071)" d="M1604.81 345.555 L1584.81 385.555 L1624.81 385.555 L1604.81 345.555 Z" fill="#ffa500" fill-rule="evenodd" fill-opacity="1" stroke="none"/>
<path clip-path="url(#clip071)" d="M575.973 597.515 L555.973 637.515 L595.973 637.515 L575.973 597.515 Z" fill="#ffa500" fill-rule="evenodd" fill-opacity="1" stroke="none"/>
<path clip-path="url(#clip071)" d="M626.879 1128.85 L606.879 1168.85 L646.879 1168.85 L626.879 1128.85 Z" fill="#ffa500" fill-rule="evenodd" fill-opacity="1" stroke="none"/>
<path clip-path="url(#clip071)" d="M1375.69 376.936 L1355.69 416.936 L1395.69 416.936 L1375.69 376.936 Z" fill="#ffa500" fill-rule="evenodd" fill-opacity="1" stroke="none"/>
<path clip-path="url(#clip071)" d="M881.652 371.959 L861.652 411.959 L901.652 411.959 L881.652 371.959 Z" fill="#ffa500" fill-rule="evenodd" fill-opacity="1" stroke="none"/>
<path clip-path="url(#clip071)" d="M560.874 574.386 L540.874 614.386 L580.874 614.386 L560.874 574.386 Z" fill="#ffa500" fill-rule="evenodd" fill-opacity="1" stroke="none"/>
<path clip-path="url(#clip071)" d="M653.007 437.663 L633.007 477.663 L673.007 477.663 L653.007 437.663 Z" fill="#ffa500" fill-rule="evenodd" fill-opacity="1" stroke="none"/>
<path clip-path="url(#clip071)" d="M1278.33 317.664 L1258.33 357.664 L1298.33 357.664 L1278.33 317.664 Z" fill="#ffa500" fill-rule="evenodd" fill-opacity="1" stroke="none"/>
<path clip-path="url(#clip071)" d="M791.943 1405.18 L771.943 1445.18 L811.943 1445.18 L791.943 1405.18 Z" fill="#ffa500" fill-rule="evenodd" fill-opacity="1" stroke="none"/>
<path clip-path="url(#clip071)" d="M459.33 734.979 L439.33 774.979 L479.33 774.979 L459.33 734.979 Z" fill="#ffa500" fill-rule="evenodd" fill-opacity="1" stroke="none"/>
<path clip-path="url(#clip071)" d="M1330.79 1402.51 L1310.79 1442.51 L1350.79 1442.51 L1330.79 1402.51 Z" fill="#ffa500" fill-rule="evenodd" fill-opacity="1" stroke="none"/>
<path clip-path="url(#clip071)" d="M1650.96 1332.05 L1630.96 1372.05 L1670.96 1372.05 L1650.96 1332.05 Z" fill="#ffa500" fill-rule="evenodd" fill-opacity="1" stroke="none"/>
<path clip-path="url(#clip071)" d="M446.413 1181.67 L426.413 1221.67 L466.413 1221.67 L446.413 1181.67 Z" fill="#ffa500" fill-rule="evenodd" fill-opacity="1" stroke="none"/>
<path clip-path="url(#clip071)" d="M421.261 799.031 L401.261 839.031 L441.261 839.031 L421.261 799.031 Z" fill="#ffa500" fill-rule="evenodd" fill-opacity="1" stroke="none"/>
<path clip-path="url(#clip071)" d="M1076.33 1603.28 L1056.33 1643.28 L1096.33 1643.28 L1076.33 1603.28 Z" fill="#ffa500" fill-rule="evenodd" fill-opacity="1" stroke="none"/>
<path clip-path="url(#clip071)" d="M705.179 366.32 L685.179 406.32 L725.179 406.32 L705.179 366.32 Z" fill="#ffa500" fill-rule="evenodd" fill-opacity="1" stroke="none"/>
<path clip-path="url(#clip071)" d="M1129.58 1460.19 L1109.58 1500.19 L1149.58 1500.19 L1129.58 1460.19 Z" fill="#ffa500" fill-rule="evenodd" fill-opacity="1" stroke="none"/>
<path clip-path="url(#clip071)" d="M668.815 1347.62 L648.815 1387.62 L688.815 1387.62 L668.815 1347.62 Z" fill="#ffa500" fill-rule="evenodd" fill-opacity="1" stroke="none"/>
<path clip-path="url(#clip071)" d="M1753.43 992.364 L1733.43 1032.36 L1773.43 1032.36 L1753.43 992.364 Z" fill="#ffa500" fill-rule="evenodd" fill-opacity="1" stroke="none"/>
<path clip-path="url(#clip071)" d="M1667.43 1157.88 L1647.43 1197.88 L1687.43 1197.88 L1667.43 1157.88 Z" fill="#ffa500" fill-rule="evenodd" fill-opacity="1" stroke="none"/>
<path clip-path="url(#clip071)" d="M1861.39 657.44 L1841.39 697.44 L1881.39 697.44 L1861.39 657.44 Z" fill="#ffa500" fill-rule="evenodd" fill-opacity="1" stroke="none"/>
<path clip-path="url(#clip071)" d="M1111.04 1529.87 L1091.04 1569.87 L1131.04 1569.87 L1111.04 1529.87 Z" fill="#ffa500" fill-rule="evenodd" fill-opacity="1" stroke="none"/>
<path clip-path="url(#clip071)" d="M650.877 1372.08 L630.877 1412.08 L670.877 1412.08 L650.877 1372.08 Z" fill="#ffa500" fill-rule="evenodd" fill-opacity="1" stroke="none"/>
<path clip-path="url(#clip071)" d="M534.721 1119.88 L514.721 1159.88 L554.721 1159.88 L534.721 1119.88 Z" fill="#ffa500" fill-rule="evenodd" fill-opacity="1" stroke="none"/>
<path clip-path="url(#clip071)" d="M1263.79 1502.69 L1243.79 1542.69 L1283.79 1542.69 L1263.79 1502.69 Z" fill="#ffa500" fill-rule="evenodd" fill-opacity="1" stroke="none"/>
<path clip-path="url(#clip071)" d="M1208.58 1515.06 L1188.58 1555.06 L1228.58 1555.06 L1208.58 1515.06 Z" fill="#ffa500" fill-rule="evenodd" fill-opacity="1" stroke="none"/>
<path clip-path="url(#clip071)" d="M1628.76 490.873 L1608.76 530.873 L1648.76 530.873 L1628.76 490.873 Z" fill="#ffa500" fill-rule="evenodd" fill-opacity="1" stroke="none"/>
<path clip-path="url(#clip071)" d="M496.234 1124.19 L476.234 1164.19 L516.234 1164.19 L496.234 1124.19 Z" fill="#ffa500" fill-rule="evenodd" fill-opacity="1" stroke="none"/>
<path clip-path="url(#clip071)" d="M565.769 1182.99 L545.769 1222.99 L585.769 1222.99 L565.769 1182.99 Z" fill="#ffa500" fill-rule="evenodd" fill-opacity="1" stroke="none"/>
<path clip-path="url(#clip071)" d="M523.543 906.324 L503.543 946.324 L543.543 946.324 L523.543 906.324 Z" fill="#ffa500" fill-rule="evenodd" fill-opacity="1" stroke="none"/>
<path clip-path="url(#clip071)" d="M1018.96 212.748 L998.961 252.748 L1038.96 252.748 L1018.96 212.748 Z" fill="#ffa500" fill-rule="evenodd" fill-opacity="1" stroke="none"/>
<path clip-path="url(#clip071)" d="M1624.55 1317.99 L1604.55 1357.99 L1644.55 1357.99 L1624.55 1317.99 Z" fill="#ffa500" fill-rule="evenodd" fill-opacity="1" stroke="none"/>
<path clip-path="url(#clip071)" d="M682.574 1329.23 L662.574 1369.23 L702.574 1369.23 L682.574 1329.23 Z" fill="#ffa500" fill-rule="evenodd" fill-opacity="1" stroke="none"/>
<path clip-path="url(#clip071)" d="M886.74 1334.36 L866.74 1374.36 L906.74 1374.36 L886.74 1334.36 Z" fill="#ffa500" fill-rule="evenodd" fill-opacity="1" stroke="none"/>
<path clip-path="url(#clip071)" d="M1686.24 1000.81 L1666.24 1040.81 L1706.24 1040.81 L1686.24 1000.81 Z" fill="#ffa500" fill-rule="evenodd" fill-opacity="1" stroke="none"/>
<path clip-path="url(#clip071)" d="M494.679 982.283 L474.679 1022.28 L514.679 1022.28 L494.679 982.283 Z" fill="#ffa500" fill-rule="evenodd" fill-opacity="1" stroke="none"/>
<path clip-path="url(#clip071)" d="M1725.09 1002.62 L1705.09 1042.62 L1745.09 1042.62 L1725.09 1002.62 Z" fill="#ffa500" fill-rule="evenodd" fill-opacity="1" stroke="none"/>
<path clip-path="url(#clip071)" d="M476.828 640.129 L456.828 680.129 L496.828 680.129 L476.828 640.129 Z" fill="#ffa500" fill-rule="evenodd" fill-opacity="1" stroke="none"/>
<path clip-path="url(#clip071)" d="M1188.22 262.372 L1168.22 302.372 L1208.22 302.372 L1188.22 262.372 Z" fill="#ffa500" fill-rule="evenodd" fill-opacity="1" stroke="none"/>
<path clip-path="url(#clip071)" d="M1484.18 310.029 L1464.18 350.029 L1504.18 350.029 L1484.18 310.029 Z" fill="#ffa500" fill-rule="evenodd" fill-opacity="1" stroke="none"/>
<path clip-path="url(#clip071)" d="M1645.78 1029.03 L1625.78 1069.03 L1665.78 1069.03 L1645.78 1029.03 Z" fill="#ffa500" fill-rule="evenodd" fill-opacity="1" stroke="none"/>
<path clip-path="url(#clip071)" d="M1692.9 1117.79 L1672.9 1157.79 L1712.9 1157.79 L1692.9 1117.79 Z" fill="#ffa500" fill-rule="evenodd" fill-opacity="1" stroke="none"/>
<path clip-path="url(#clip071)" d="M1414.74 290.592 L1394.74 330.592 L1434.74 330.592 L1414.74 290.592 Z" fill="#ffa500" fill-rule="evenodd" fill-opacity="1" stroke="none"/>
<path clip-path="url(#clip071)" d="M713.63 348.879 L693.63 388.879 L733.63 388.879 L713.63 348.879 Z" fill="#ffa500" fill-rule="evenodd" fill-opacity="1" stroke="none"/>
<path clip-path="url(#clip071)" d="M846.991 324.885 L826.991 364.885 L866.991 364.885 L846.991 324.885 Z" fill="#ffa500" fill-rule="evenodd" fill-opacity="1" stroke="none"/>
<path clip-path="url(#clip071)" d="M1504.16 1295.01 L1484.16 1335.01 L1524.16 1335.01 L1504.16 1295.01 Z" fill="#ffa500" fill-rule="evenodd" fill-opacity="1" stroke="none"/>
<path clip-path="url(#clip071)" d="M1165.93 228.097 L1145.93 268.097 L1185.93 268.097 L1165.93 228.097 Z" fill="#ffa500" fill-rule="evenodd" fill-opacity="1" stroke="none"/>
<path clip-path="url(#clip071)" d="M1605.22 428.434 L1585.22 468.434 L1625.22 468.434 L1605.22 428.434 Z" fill="#ffa500" fill-rule="evenodd" fill-opacity="1" stroke="none"/>
<path clip-path="url(#clip071)" d="M524.516 627.616 L504.516 667.616 L544.516 667.616 L524.516 627.616 Z" fill="#ffa500" fill-rule="evenodd" fill-opacity="1" stroke="none"/>
<path clip-path="url(#clip071)" d="M1528.51 328.343 L1508.51 368.343 L1548.51 368.343 L1528.51 328.343 Z" fill="#ffa500" fill-rule="evenodd" fill-opacity="1" stroke="none"/>
<path clip-path="url(#clip071)" d="M522.611 708.313 L502.611 748.313 L542.611 748.313 L522.611 708.313 Z" fill="#ffa500" fill-rule="evenodd" fill-opacity="1" stroke="none"/>
<path clip-path="url(#clip071)" d="M1587.25 499.521 L1567.25 539.521 L1607.25 539.521 L1587.25 499.521 Z" fill="#ffa500" fill-rule="evenodd" fill-opacity="1" stroke="none"/>
<path clip-path="url(#clip071)" d="M565.884 1139.18 L545.884 1179.18 L585.884 1179.18 L565.884 1139.18 Z" fill="#ffa500" fill-rule="evenodd" fill-opacity="1" stroke="none"/>
<path clip-path="url(#clip071)" d="M624.361 476.612 L604.361 516.612 L644.361 516.612 L624.361 476.612 Z" fill="#ffa500" fill-rule="evenodd" fill-opacity="1" stroke="none"/>
<path clip-path="url(#clip071)" d="M1363.4 1438.26 L1343.4 1478.26 L1383.4 1478.26 L1363.4 1438.26 Z" fill="#ffa500" fill-rule="evenodd" fill-opacity="1" stroke="none"/>
<path clip-path="url(#clip071)" d="M1319.48 1448.29 L1299.48 1488.29 L1339.48 1488.29 L1319.48 1448.29 Z" fill="#ffa500" fill-rule="evenodd" fill-opacity="1" stroke="none"/>
<path clip-path="url(#clip071)" d="M1102.81 1487.49 L1082.81 1527.49 L1122.81 1527.49 L1102.81 1487.49 Z" fill="#ffa500" fill-rule="evenodd" fill-opacity="1" stroke="none"/>
<path clip-path="url(#clip071)" d="M907.449 297.569 L887.449 337.569 L927.449 337.569 L907.449 297.569 Z" fill="#ffa500" fill-rule="evenodd" fill-opacity="1" stroke="none"/>
<path clip-path="url(#clip071)" d="M929.093 1327.62 L909.093 1367.62 L949.093 1367.62 L929.093 1327.62 Z" fill="#ffa500" fill-rule="evenodd" fill-opacity="1" stroke="none"/>
<path clip-path="url(#clip071)" d="M751.648 1400.21 L731.648 1440.21 L771.648 1440.21 L751.648 1400.21 Z" fill="#ffa500" fill-rule="evenodd" fill-opacity="1" stroke="none"/>
<path clip-path="url(#clip071)" d="M1804.95 894.905 L1784.95 934.905 L1824.95 934.905 L1804.95 894.905 Z" fill="#ffa500" fill-rule="evenodd" fill-opacity="1" stroke="none"/>
<polyline clip-path="url(#clip071)" style="stroke:#808080; stroke-linecap:round; stroke-linejoin:round; stroke-width:4; stroke-opacity:1; fill:none" points="1285.67,877.052 1285.37,867.386 1284.46,857.758 1282.94,848.206 1280.83,838.768 1278.14,829.481 1274.86,820.382 1271.02,811.506 1266.63,802.89 1261.71,794.565 1256.27,786.567 1250.34,778.925 1243.95,771.671 1237.11,764.833 1229.86,758.437 1222.21,752.51 1214.21,747.074 1205.89,742.151 1197.27,737.76 1188.4,733.92 1179.3,730.644 1170.01,727.946 1160.57,725.836 1151.02,724.323 1141.39,723.413 1131.73,723.109 1122.06,723.413 1112.43,724.323 1102.88,725.836 1093.44,727.946 1084.16,730.644 1075.06,733.92 1066.18,737.76 1057.57,742.151 1049.24,747.074 1041.24,752.51 1033.6,758.437 1026.35,764.833 1019.51,771.671 1013.11,778.925 1007.19,786.567 1001.75,794.565 996.827,802.89 992.437,811.506 988.596,820.382 985.32,829.481 982.622,838.768 980.512,848.206 979,857.758 978.089,867.386 977.786,877.052 978.089,886.718 979,896.346 980.512,905.898 982.622,915.336 985.32,924.623 988.596,933.722 992.437,942.598 996.827,951.214 1001.75,959.539 1007.19,967.537 1013.11,975.179 1019.51,982.433 1026.35,989.271 1033.6,995.667 1041.24,1001.59 1049.24,1007.03 1057.57,1011.95 1066.18,1016.34 1075.06,1020.18 1084.16,1023.46 1093.44,1026.16 1102.88,1028.27 1112.43,1029.78 1122.06,1030.69 1131.73,1030.99 1141.39,1030.69 1151.02,1029.78 1160.57,1028.27 1170.01,1026.16 1179.3,1023.46 1188.4,1020.18 1197.27,1016.34 1205.89,1011.95 1214.21,1007.03 1222.21,1001.59 1229.86,995.667 1237.11,989.271 1243.95,982.433 1250.34,975.179 1256.27,967.537 1261.71,959.539 1266.63,951.214 1271.02,942.598 1274.86,933.722 1278.14,924.623 1280.83,915.336 1282.94,905.898 1284.46,896.346 1285.37,886.718 1285.67,877.052 "/>
<polyline clip-path="url(#clip071)" style="stroke:#808080; stroke-linecap:round; stroke-linejoin:round; stroke-width:4; stroke-opacity:1; fill:none" points="1593.56,877.052 1592.65,848.054 1589.91,819.17 1585.38,790.514 1579.05,762.2 1570.95,734.339 1561.13,707.042 1549.6,680.415 1536.43,654.565 1521.66,629.592 1505.36,605.596 1487.57,582.672 1468.39,560.909 1447.87,540.394 1426.11,521.207 1403.18,503.425 1379.19,487.118 1354.22,472.349 1328.37,459.178 1301.74,447.655 1274.44,437.827 1246.58,429.733 1218.27,423.404 1189.61,418.866 1160.73,416.135 1131.73,415.224 1102.73,416.135 1073.85,418.866 1045.19,423.404 1016.88,429.733 989.016,437.827 961.718,447.655 935.092,459.178 909.241,472.349 884.269,487.118 860.273,503.425 837.348,521.207 815.585,540.394 795.07,560.909 775.884,582.672 758.102,605.596 741.794,629.592 727.025,654.565 713.854,680.415 702.332,707.042 692.504,734.339 684.41,762.2 678.081,790.514 673.542,819.17 670.812,848.054 669.9,877.052 670.812,906.05 673.542,934.934 678.081,963.59 684.41,991.904 692.504,1019.76 702.332,1047.06 713.854,1073.69 727.025,1099.54 741.794,1124.51 758.102,1148.51 775.884,1171.43 795.07,1193.19 815.585,1213.71 837.348,1232.9 860.273,1250.68 884.269,1266.99 909.241,1281.75 935.092,1294.93 961.718,1306.45 989.016,1316.28 1016.88,1324.37 1045.19,1330.7 1073.85,1335.24 1102.73,1337.97 1131.73,1338.88 1160.73,1337.97 1189.61,1335.24 1218.27,1330.7 1246.58,1324.37 1274.44,1316.28 1301.74,1306.45 1328.37,1294.93 1354.22,1281.75 1379.19,1266.99 1403.18,1250.68 1426.11,1232.9 1447.87,1213.71 1468.39,1193.19 1487.57,1171.43 1505.36,1148.51 1521.66,1124.51 1536.43,1099.54 1549.6,1073.69 1561.13,1047.06 1570.95,1019.76 1579.05,991.904 1585.38,963.59 1589.91,934.934 1592.65,906.05 1593.56,877.052 "/>
<path clip-path="url(#clip070)" d="M1420.81 526.065 L1898.02 526.065 L1898.02 111.345 L1420.81 111.345  Z" fill="#ffffff" fill-rule="evenodd" fill-opacity="1"/>
<polyline clip-path="url(#clip070)" style="stroke:#000000; stroke-linecap:round; stroke-linejoin:round; stroke-width:4; stroke-opacity:1; fill:none" points="1420.81,526.065 1898.02,526.065 1898.02,111.345 1420.81,111.345 1420.81,526.065 "/>
<circle clip-path="url(#clip070)" cx="1493.79" cy="215.025" r="41.8909" fill="#0000ff" fill-rule="evenodd" fill-opacity="1" stroke="none"/>
<path clip-path="url(#clip070)" d="M1607.79 199.724 L1607.79 207.687 Q1604.18 205.696 1600.52 204.724 Q1596.91 203.706 1593.2 203.706 Q1584.92 203.706 1580.33 208.983 Q1575.75 214.215 1575.75 223.705 Q1575.75 233.196 1580.33 238.474 Q1584.92 243.705 1593.2 243.705 Q1596.91 243.705 1600.52 242.733 Q1604.18 241.715 1607.79 239.724 L1607.79 247.594 Q1604.22 249.261 1600.38 250.094 Q1596.58 250.928 1592.28 250.928 Q1580.56 250.928 1573.67 243.566 Q1566.77 236.205 1566.77 223.705 Q1566.77 211.02 1573.71 203.752 Q1580.7 196.483 1592.83 196.483 Q1596.77 196.483 1600.52 197.317 Q1604.27 198.104 1607.79 199.724 Z" fill="#000000" fill-rule="nonzero" fill-opacity="1" /><path clip-path="url(#clip070)" d="M1622.6 177.548 L1631.12 177.548 L1631.12 249.585 L1622.6 249.585 L1622.6 177.548 Z" fill="#000000" fill-rule="nonzero" fill-opacity="1" /><path clip-path="url(#clip070)" d="M1672.51 223.52 Q1662.18 223.52 1658.2 225.881 Q1654.22 228.242 1654.22 233.937 Q1654.22 238.474 1657.18 241.159 Q1660.19 243.798 1665.33 243.798 Q1672.42 243.798 1676.67 238.798 Q1680.98 233.752 1680.98 225.418 L1680.98 223.52 L1672.51 223.52 M1689.5 220.002 L1689.5 249.585 L1680.98 249.585 L1680.98 241.715 Q1678.06 246.437 1673.71 248.705 Q1669.36 250.928 1663.06 250.928 Q1655.1 250.928 1650.38 246.483 Q1645.7 241.992 1645.7 234.492 Q1645.7 225.742 1651.54 221.298 Q1657.42 216.854 1669.04 216.854 L1680.98 216.854 L1680.98 216.02 Q1680.98 210.141 1677.09 206.946 Q1673.25 203.706 1666.26 203.706 Q1661.81 203.706 1657.6 204.77 Q1653.39 205.835 1649.5 207.965 L1649.5 200.094 Q1654.18 198.289 1658.57 197.409 Q1662.97 196.483 1667.14 196.483 Q1678.39 196.483 1683.94 202.317 Q1689.5 208.15 1689.5 220.002 Z" fill="#000000" fill-rule="nonzero" fill-opacity="1" /><path clip-path="url(#clip070)" d="M1740.1 199.261 L1740.1 207.317 Q1736.49 205.465 1732.6 204.539 Q1728.71 203.613 1724.55 203.613 Q1718.2 203.613 1715.01 205.557 Q1711.86 207.502 1711.86 211.391 Q1711.86 214.354 1714.13 216.067 Q1716.4 217.733 1723.25 219.261 L1726.17 219.909 Q1735.24 221.854 1739.04 225.418 Q1742.88 228.937 1742.88 235.279 Q1742.88 242.502 1737.14 246.715 Q1731.44 250.928 1721.44 250.928 Q1717.28 250.928 1712.74 250.094 Q1708.25 249.307 1703.25 247.687 L1703.25 238.891 Q1707.97 241.344 1712.55 242.594 Q1717.14 243.798 1721.63 243.798 Q1727.65 243.798 1730.89 241.761 Q1734.13 239.678 1734.13 235.928 Q1734.13 232.455 1731.77 230.604 Q1729.45 228.752 1721.54 227.039 L1718.57 226.344 Q1710.66 224.678 1707.14 221.252 Q1703.62 217.78 1703.62 211.761 Q1703.62 204.446 1708.8 200.465 Q1713.99 196.483 1723.53 196.483 Q1728.25 196.483 1732.42 197.178 Q1736.58 197.872 1740.1 199.261 Z" fill="#000000" fill-rule="nonzero" fill-opacity="1" /><path clip-path="url(#clip070)" d="M1789.5 199.261 L1789.5 207.317 Q1785.89 205.465 1782 204.539 Q1778.11 203.613 1773.94 203.613 Q1767.6 203.613 1764.41 205.557 Q1761.26 207.502 1761.26 211.391 Q1761.26 214.354 1763.53 216.067 Q1765.79 217.733 1772.65 219.261 L1775.56 219.909 Q1784.64 221.854 1788.43 225.418 Q1792.28 228.937 1792.28 235.279 Q1792.28 242.502 1786.54 246.715 Q1780.84 250.928 1770.84 250.928 Q1766.67 250.928 1762.14 250.094 Q1757.65 249.307 1752.65 247.687 L1752.65 238.891 Q1757.37 241.344 1761.95 242.594 Q1766.54 243.798 1771.03 243.798 Q1777.04 243.798 1780.29 241.761 Q1783.53 239.678 1783.53 235.928 Q1783.53 232.455 1781.17 230.604 Q1778.85 228.752 1770.93 227.039 L1767.97 226.344 Q1760.05 224.678 1756.54 221.252 Q1753.02 217.78 1753.02 211.761 Q1753.02 204.446 1758.2 200.465 Q1763.39 196.483 1772.92 196.483 Q1777.65 196.483 1781.81 197.178 Q1785.98 197.872 1789.5 199.261 Z" fill="#000000" fill-rule="nonzero" fill-opacity="1" /><path clip-path="url(#clip070)" d="M1838.8 241.715 L1854.08 241.715 L1854.08 188.983 L1837.46 192.317 L1837.46 183.798 L1853.99 180.465 L1863.34 180.465 L1863.34 241.715 L1878.62 241.715 L1878.62 249.585 L1838.8 249.585 L1838.8 241.715 Z" fill="#000000" fill-rule="nonzero" fill-opacity="1" /><path clip-path="url(#clip070)" d="M1493.79 272.159 L1482.85 303.624 L1449.52 304.322 L1476.1 324.477 L1466.42 356.36 L1493.79 337.323 L1521.16 356.36 L1511.48 324.477 L1538.05 304.322 L1504.73 303.624 L1493.79 272.159 Z" fill="#ff0000" fill-rule="evenodd" fill-opacity="1" stroke="none"/>
<path clip-path="url(#clip070)" d="M1607.79 303.404 L1607.79 311.367 Q1604.18 309.376 1600.52 308.404 Q1596.91 307.386 1593.2 307.386 Q1584.92 307.386 1580.33 312.663 Q1575.75 317.895 1575.75 327.385 Q1575.75 336.876 1580.33 342.154 Q1584.92 347.385 1593.2 347.385 Q1596.91 347.385 1600.52 346.413 Q1604.18 345.395 1607.79 343.404 L1607.79 351.274 Q1604.22 352.941 1600.38 353.774 Q1596.58 354.608 1592.28 354.608 Q1580.56 354.608 1573.67 347.246 Q1566.77 339.885 1566.77 327.385 Q1566.77 314.7 1573.71 307.432 Q1580.7 300.163 1592.83 300.163 Q1596.77 300.163 1600.52 300.997 Q1604.27 301.784 1607.79 303.404 Z" fill="#000000" fill-rule="nonzero" fill-opacity="1" /><path clip-path="url(#clip070)" d="M1622.6 281.228 L1631.12 281.228 L1631.12 353.265 L1622.6 353.265 L1622.6 281.228 Z" fill="#000000" fill-rule="nonzero" fill-opacity="1" /><path clip-path="url(#clip070)" d="M1672.51 327.2 Q1662.18 327.2 1658.2 329.561 Q1654.22 331.922 1654.22 337.617 Q1654.22 342.154 1657.18 344.839 Q1660.19 347.478 1665.33 347.478 Q1672.42 347.478 1676.67 342.478 Q1680.98 337.432 1680.98 329.098 L1680.98 327.2 L1672.51 327.2 M1689.5 323.682 L1689.5 353.265 L1680.98 353.265 L1680.98 345.395 Q1678.06 350.117 1673.71 352.385 Q1669.36 354.608 1663.06 354.608 Q1655.1 354.608 1650.38 350.163 Q1645.7 345.672 1645.7 338.172 Q1645.7 329.422 1651.54 324.978 Q1657.42 320.534 1669.04 320.534 L1680.98 320.534 L1680.98 319.7 Q1680.98 313.821 1677.09 310.626 Q1673.25 307.386 1666.26 307.386 Q1661.81 307.386 1657.6 308.45 Q1653.39 309.515 1649.5 311.645 L1649.5 303.774 Q1654.18 301.969 1658.57 301.089 Q1662.97 300.163 1667.14 300.163 Q1678.39 300.163 1683.94 305.997 Q1689.5 311.83 1689.5 323.682 Z" fill="#000000" fill-rule="nonzero" fill-opacity="1" /><path clip-path="url(#clip070)" d="M1740.1 302.941 L1740.1 310.997 Q1736.49 309.145 1732.6 308.219 Q1728.71 307.293 1724.55 307.293 Q1718.2 307.293 1715.01 309.237 Q1711.86 311.182 1711.86 315.071 Q1711.86 318.034 1714.13 319.747 Q1716.4 321.413 1723.25 322.941 L1726.17 323.589 Q1735.24 325.534 1739.04 329.098 Q1742.88 332.617 1742.88 338.959 Q1742.88 346.182 1737.14 350.395 Q1731.44 354.608 1721.44 354.608 Q1717.28 354.608 1712.74 353.774 Q1708.25 352.987 1703.25 351.367 L1703.25 342.571 Q1707.97 345.024 1712.55 346.274 Q1717.14 347.478 1721.63 347.478 Q1727.65 347.478 1730.89 345.441 Q1734.13 343.358 1734.13 339.608 Q1734.13 336.135 1731.77 334.284 Q1729.45 332.432 1721.54 330.719 L1718.57 330.024 Q1710.66 328.358 1707.14 324.932 Q1703.62 321.46 1703.62 315.441 Q1703.62 308.126 1708.8 304.145 Q1713.99 300.163 1723.53 300.163 Q1728.25 300.163 1732.42 300.858 Q1736.58 301.552 1740.1 302.941 Z" fill="#000000" fill-rule="nonzero" fill-opacity="1" /><path clip-path="url(#clip070)" d="M1789.5 302.941 L1789.5 310.997 Q1785.89 309.145 1782 308.219 Q1778.11 307.293 1773.94 307.293 Q1767.6 307.293 1764.41 309.237 Q1761.26 311.182 1761.26 315.071 Q1761.26 318.034 1763.53 319.747 Q1765.79 321.413 1772.65 322.941 L1775.56 323.589 Q1784.64 325.534 1788.43 329.098 Q1792.28 332.617 1792.28 338.959 Q1792.28 346.182 1786.54 350.395 Q1780.84 354.608 1770.84 354.608 Q1766.67 354.608 1762.14 353.774 Q1757.65 352.987 1752.65 351.367 L1752.65 342.571 Q1757.37 345.024 1761.95 346.274 Q1766.54 347.478 1771.03 347.478 Q1777.04 347.478 1780.29 345.441 Q1783.53 343.358 1783.53 339.608 Q1783.53 336.135 1781.17 334.284 Q1778.85 332.432 1770.93 330.719 L1767.97 330.024 Q1760.05 328.358 1756.54 324.932 Q1753.02 321.46 1753.02 315.441 Q1753.02 308.126 1758.2 304.145 Q1763.39 300.163 1772.92 300.163 Q1777.65 300.163 1781.81 300.858 Q1785.98 301.552 1789.5 302.941 Z" fill="#000000" fill-rule="nonzero" fill-opacity="1" /><path clip-path="url(#clip070)" d="M1845.24 345.395 L1877.88 345.395 L1877.88 353.265 L1833.99 353.265 L1833.99 345.395 Q1839.31 339.885 1848.48 330.626 Q1857.69 321.321 1860.05 318.636 Q1864.54 313.589 1866.3 310.117 Q1868.11 306.599 1868.11 303.219 Q1868.11 297.71 1864.22 294.237 Q1860.38 290.765 1854.17 290.765 Q1849.78 290.765 1844.87 292.293 Q1840.01 293.821 1834.45 296.923 L1834.45 287.478 Q1840.1 285.21 1845.01 284.052 Q1849.91 282.895 1853.99 282.895 Q1864.73 282.895 1871.12 288.265 Q1877.51 293.636 1877.51 302.617 Q1877.51 306.876 1875.89 310.719 Q1874.31 314.515 1870.1 319.7 Q1868.94 321.043 1862.74 327.478 Q1856.54 333.867 1845.24 345.395 Z" fill="#000000" fill-rule="nonzero" fill-opacity="1" /><path clip-path="url(#clip070)" d="M1493.79 375.839 L1447.24 468.93 L1540.33 468.93 L1493.79 375.839 Z" fill="#ffa500" fill-rule="evenodd" fill-opacity="1" stroke="none"/>
<path clip-path="url(#clip070)" d="M1607.79 407.084 L1607.79 415.047 Q1604.18 413.056 1600.52 412.084 Q1596.91 411.066 1593.2 411.066 Q1584.92 411.066 1580.33 416.343 Q1575.75 421.575 1575.75 431.065 Q1575.75 440.556 1580.33 445.834 Q1584.92 451.065 1593.2 451.065 Q1596.91 451.065 1600.52 450.093 Q1604.18 449.075 1607.79 447.084 L1607.79 454.954 Q1604.22 456.621 1600.38 457.454 Q1596.58 458.288 1592.28 458.288 Q1580.56 458.288 1573.67 450.926 Q1566.77 443.565 1566.77 431.065 Q1566.77 418.38 1573.71 411.112 Q1580.7 403.843 1592.83 403.843 Q1596.77 403.843 1600.52 404.677 Q1604.27 405.464 1607.79 407.084 Z" fill="#000000" fill-rule="nonzero" fill-opacity="1" /><path clip-path="url(#clip070)" d="M1622.6 384.908 L1631.12 384.908 L1631.12 456.945 L1622.6 456.945 L1622.6 384.908 Z" fill="#000000" fill-rule="nonzero" fill-opacity="1" /><path clip-path="url(#clip070)" d="M1672.51 430.88 Q1662.18 430.88 1658.2 433.241 Q1654.22 435.602 1654.22 441.297 Q1654.22 445.834 1657.18 448.519 Q1660.19 451.158 1665.33 451.158 Q1672.42 451.158 1676.67 446.158 Q1680.98 441.112 1680.98 432.778 L1680.98 430.88 L1672.51 430.88 M1689.5 427.362 L1689.5 456.945 L1680.98 456.945 L1680.98 449.075 Q1678.06 453.797 1673.71 456.065 Q1669.36 458.288 1663.06 458.288 Q1655.1 458.288 1650.38 453.843 Q1645.7 449.352 1645.7 441.852 Q1645.7 433.102 1651.54 428.658 Q1657.42 424.214 1669.04 424.214 L1680.98 424.214 L1680.98 423.38 Q1680.98 417.501 1677.09 414.306 Q1673.25 411.066 1666.26 411.066 Q1661.81 411.066 1657.6 412.13 Q1653.39 413.195 1649.5 415.325 L1649.5 407.454 Q1654.18 405.649 1658.57 404.769 Q1662.97 403.843 1667.14 403.843 Q1678.39 403.843 1683.94 409.677 Q1689.5 415.51 1689.5 427.362 Z" fill="#000000" fill-rule="nonzero" fill-opacity="1" /><path clip-path="url(#clip070)" d="M1740.1 406.621 L1740.1 414.677 Q1736.49 412.825 1732.6 411.899 Q1728.71 410.973 1724.55 410.973 Q1718.2 410.973 1715.01 412.917 Q1711.86 414.862 1711.86 418.751 Q1711.86 421.714 1714.13 423.427 Q1716.4 425.093 1723.25 426.621 L1726.17 427.269 Q1735.24 429.214 1739.04 432.778 Q1742.88 436.297 1742.88 442.639 Q1742.88 449.862 1737.14 454.075 Q1731.44 458.288 1721.44 458.288 Q1717.28 458.288 1712.74 457.454 Q1708.25 456.667 1703.25 455.047 L1703.25 446.251 Q1707.97 448.704 1712.55 449.954 Q1717.14 451.158 1721.63 451.158 Q1727.65 451.158 1730.89 449.121 Q1734.13 447.038 1734.13 443.288 Q1734.13 439.815 1731.77 437.964 Q1729.45 436.112 1721.54 434.399 L1718.57 433.704 Q1710.66 432.038 1707.14 428.612 Q1703.62 425.14 1703.62 419.121 Q1703.62 411.806 1708.8 407.825 Q1713.99 403.843 1723.53 403.843 Q1728.25 403.843 1732.42 404.538 Q1736.58 405.232 1740.1 406.621 Z" fill="#000000" fill-rule="nonzero" fill-opacity="1" /><path clip-path="url(#clip070)" d="M1789.5 406.621 L1789.5 414.677 Q1785.89 412.825 1782 411.899 Q1778.11 410.973 1773.94 410.973 Q1767.6 410.973 1764.41 412.917 Q1761.26 414.862 1761.26 418.751 Q1761.26 421.714 1763.53 423.427 Q1765.79 425.093 1772.65 426.621 L1775.56 427.269 Q1784.64 429.214 1788.43 432.778 Q1792.28 436.297 1792.28 442.639 Q1792.28 449.862 1786.54 454.075 Q1780.84 458.288 1770.84 458.288 Q1766.67 458.288 1762.14 457.454 Q1757.65 456.667 1752.65 455.047 L1752.65 446.251 Q1757.37 448.704 1761.95 449.954 Q1766.54 451.158 1771.03 451.158 Q1777.04 451.158 1780.29 449.121 Q1783.53 447.038 1783.53 443.288 Q1783.53 439.815 1781.17 437.964 Q1778.85 436.112 1770.93 434.399 L1767.97 433.704 Q1760.05 432.038 1756.54 428.612 Q1753.02 425.14 1753.02 419.121 Q1753.02 411.806 1758.2 407.825 Q1763.39 403.843 1772.92 403.843 Q1777.65 403.843 1781.81 404.538 Q1785.98 405.232 1789.5 406.621 Z" fill="#000000" fill-rule="nonzero" fill-opacity="1" /><path clip-path="url(#clip070)" d="M1865.52 419.677 Q1872.23 421.112 1875.98 425.649 Q1879.78 430.186 1879.78 436.852 Q1879.78 447.084 1872.74 452.686 Q1865.7 458.288 1852.74 458.288 Q1848.39 458.288 1843.76 457.408 Q1839.17 456.575 1834.27 454.862 L1834.27 445.834 Q1838.16 448.102 1842.79 449.26 Q1847.41 450.417 1852.46 450.417 Q1861.26 450.417 1865.84 446.945 Q1870.47 443.473 1870.47 436.852 Q1870.47 430.741 1866.16 427.315 Q1861.91 423.843 1854.27 423.843 L1846.21 423.843 L1846.21 416.158 L1854.64 416.158 Q1861.54 416.158 1865.19 413.427 Q1868.85 410.649 1868.85 405.464 Q1868.85 400.14 1865.05 397.316 Q1861.3 394.445 1854.27 394.445 Q1850.42 394.445 1846.03 395.279 Q1841.63 396.112 1836.35 397.871 L1836.35 389.538 Q1841.67 388.056 1846.3 387.316 Q1850.98 386.575 1855.1 386.575 Q1865.75 386.575 1871.95 391.436 Q1878.16 396.251 1878.16 404.492 Q1878.16 410.232 1874.87 414.214 Q1871.58 418.149 1865.52 419.677 Z" fill="#000000" fill-rule="nonzero" fill-opacity="1" /></svg>
