<?xml version="1.0" encoding="utf-8"?>
<svg xmlns="http://www.w3.org/2000/svg" xmlns:xlink="http://www.w3.org/1999/xlink" width="600" height="400" viewBox="0 0 2400 1600">
<defs>
  <clipPath id="clip630">
    <rect x="0" y="0" width="2400" height="1600"/>
  </clipPath>
</defs>
<path clip-path="url(#clip630)" d="M0 1600 L2400 1600 L2400 0 L0 0  Z" fill="#ffffff" fill-rule="evenodd" fill-opacity="1"/>
<defs>
  <clipPath id="clip631">
    <rect x="373" y="47" width="1980" height="1295"/>
  </clipPath>
</defs>
<path clip-path="url(#clip630)" d="M373.897 1341.1 L2352.76 1341.1 L2352.76 47.2441 L373.897 47.2441  Z" fill="#ffffff" fill-rule="evenodd" fill-opacity="1"/>
<polyline clip-path="url(#clip631)" style="stroke:#000000; stroke-linecap:round; stroke-linejoin:round; stroke-width:2; stroke-opacity:0.1; fill:none" points="429.903,1341.1 429.903,47.2441 "/>
<polyline clip-path="url(#clip631)" style="stroke:#000000; stroke-linecap:round; stroke-linejoin:round; stroke-width:2; stroke-opacity:0.1; fill:none" points="896.615,1341.1 896.615,47.2441 "/>
<polyline clip-path="url(#clip631)" style="stroke:#000000; stroke-linecap:round; stroke-linejoin:round; stroke-width:2; stroke-opacity:0.1; fill:none" points="1363.33,1341.1 1363.33,47.2441 "/>
<polyline clip-path="url(#clip631)" style="stroke:#000000; stroke-linecap:round; stroke-linejoin:round; stroke-width:2; stroke-opacity:0.1; fill:none" points="1830.04,1341.1 1830.04,47.2441 "/>
<polyline clip-path="url(#clip631)" style="stroke:#000000; stroke-linecap:round; stroke-linejoin:round; stroke-width:2; stroke-opacity:0.1; fill:none" points="2296.75,1341.1 2296.75,47.2441 "/>
<polyline clip-path="url(#clip631)" style="stroke:#000000; stroke-linecap:round; stroke-linejoin:round; stroke-width:2; stroke-opacity:0.1; fill:none" points="373.897,1304.48 2352.76,1304.48 "/>
<polyline clip-path="url(#clip631)" style="stroke:#000000; stroke-linecap:round; stroke-linejoin:round; stroke-width:2; stroke-opacity:0.1; fill:none" points="373.897,694.172 2352.76,694.172 "/>
<polyline clip-path="url(#clip631)" style="stroke:#000000; stroke-linecap:round; stroke-linejoin:round; stroke-width:2; stroke-opacity:0.1; fill:none" points="373.897,83.8627 2352.76,83.8627 "/>
<polyline clip-path="url(#clip630)" style="stroke:#000000; stroke-linecap:round; stroke-linejoin:round; stroke-width:4; stroke-opacity:1; fill:none" points="373.897,1341.1 2352.76,1341.1 "/>
<polyline clip-path="url(#clip630)" style="stroke:#000000; stroke-linecap:round; stroke-linejoin:round; stroke-width:4; stroke-opacity:1; fill:none" points="429.903,1341.1 429.903,1322.2 "/>
<polyline clip-path="url(#clip630)" style="stroke:#000000; stroke-linecap:round; stroke-linejoin:round; stroke-width:4; stroke-opacity:1; fill:none" points="896.615,1341.1 896.615,1322.2 "/>
<polyline clip-path="url(#clip630)" style="stroke:#000000; stroke-linecap:round; stroke-linejoin:round; stroke-width:4; stroke-opacity:1; fill:none" points="1363.33,1341.1 1363.33,1322.2 "/>
<polyline clip-path="url(#clip630)" style="stroke:#000000; stroke-linecap:round; stroke-linejoin:round; stroke-width:4; stroke-opacity:1; fill:none" points="1830.04,1341.1 1830.04,1322.2 "/>
<polyline clip-path="url(#clip630)" style="stroke:#000000; stroke-linecap:round; stroke-linejoin:round; stroke-width:4; stroke-opacity:1; fill:none" points="2296.75,1341.1 2296.75,1322.2 "/>
<path clip-path="url(#clip630)" d="M429.903 1380.81 Q423.583 1380.81 420.383 1387.05 Q417.224 1393.24 417.224 1405.72 Q417.224 1418.16 420.383 1424.4 Q423.583 1430.59 429.903 1430.59 Q436.263 1430.59 439.422 1424.4 Q442.623 1418.16 442.623 1405.72 Q442.623 1393.24 439.422 1387.05 Q436.263 1380.81 429.903 1380.81 M429.903 1374.33 Q440.071 1374.33 445.418 1382.39 Q450.806 1390.41 450.806 1405.72 Q450.806 1420.99 445.418 1429.05 Q440.071 1437.07 429.903 1437.07 Q419.735 1437.07 414.347 1429.05 Q409 1420.99 409 1405.72 Q409 1390.41 414.347 1382.39 Q419.735 1374.33 429.903 1374.33 Z" fill="#000000" fill-rule="nonzero" fill-opacity="1" /><path clip-path="url(#clip630)" d="M879.783 1429.01 L893.151 1429.01 L893.151 1382.87 L878.609 1385.79 L878.609 1378.34 L893.07 1375.42 L901.253 1375.42 L901.253 1429.01 L914.621 1429.01 L914.621 1435.9 L879.783 1435.9 L879.783 1429.01 Z" fill="#000000" fill-rule="nonzero" fill-opacity="1" /><path clip-path="url(#clip630)" d="M1353.97 1429.01 L1382.53 1429.01 L1382.53 1435.9 L1344.13 1435.9 L1344.13 1429.01 Q1348.78 1424.19 1356.8 1416.09 Q1364.87 1407.95 1366.93 1405.6 Q1370.86 1401.18 1372.4 1398.15 Q1373.98 1395.07 1373.98 1392.11 Q1373.98 1387.29 1370.58 1384.25 Q1367.22 1381.21 1361.79 1381.21 Q1357.94 1381.21 1353.65 1382.55 Q1349.39 1383.89 1344.53 1386.6 L1344.53 1378.34 Q1349.47 1376.35 1353.77 1375.34 Q1358.06 1374.33 1361.63 1374.33 Q1371.02 1374.33 1376.61 1379.03 Q1382.2 1383.72 1382.2 1391.58 Q1382.2 1395.31 1380.79 1398.67 Q1379.41 1401.99 1375.72 1406.53 Q1374.71 1407.71 1369.28 1413.34 Q1363.85 1418.93 1353.97 1429.01 Z" fill="#000000" fill-rule="nonzero" fill-opacity="1" /><path clip-path="url(#clip630)" d="M1837.47 1403.29 Q1843.35 1404.55 1846.63 1408.52 Q1849.95 1412.49 1849.95 1418.32 Q1849.95 1427.27 1843.79 1432.17 Q1837.63 1437.07 1826.29 1437.07 Q1822.48 1437.07 1818.43 1436.3 Q1814.42 1435.58 1810.13 1434.08 L1810.13 1426.18 Q1813.53 1428.16 1817.58 1429.18 Q1821.63 1430.19 1826.05 1430.19 Q1833.75 1430.19 1837.76 1427.15 Q1841.81 1424.11 1841.81 1418.32 Q1841.81 1412.97 1838.04 1409.97 Q1834.31 1406.94 1827.63 1406.94 L1820.58 1406.94 L1820.58 1400.21 L1827.95 1400.21 Q1833.99 1400.21 1837.19 1397.82 Q1840.39 1395.39 1840.39 1390.85 Q1840.39 1386.2 1837.07 1383.72 Q1833.79 1381.21 1827.63 1381.21 Q1824.27 1381.21 1820.42 1381.94 Q1816.57 1382.67 1811.95 1384.21 L1811.95 1376.92 Q1816.61 1375.62 1820.66 1374.97 Q1824.75 1374.33 1828.36 1374.33 Q1837.67 1374.33 1843.1 1378.58 Q1848.53 1382.79 1848.53 1390 Q1848.53 1395.03 1845.65 1398.51 Q1842.78 1401.95 1837.47 1403.29 Z" fill="#000000" fill-rule="nonzero" fill-opacity="1" /><path clip-path="url(#clip630)" d="M2302.02 1382.55 L2281.36 1414.84 L2302.02 1414.84 L2302.02 1382.55 M2299.87 1375.42 L2310.16 1375.42 L2310.16 1414.84 L2318.79 1414.84 L2318.79 1421.64 L2310.16 1421.64 L2310.16 1435.9 L2302.02 1435.9 L2302.02 1421.64 L2274.71 1421.64 L2274.71 1413.74 L2299.87 1375.42 Z" fill="#000000" fill-rule="nonzero" fill-opacity="1" /><path clip-path="url(#clip630)" d="M1389.37 1507.53 Q1389.37 1519.33 1385.57 1532.61 Q1381.85 1545.82 1375.95 1556.5 Q1370.04 1567.11 1362.31 1574.14 Q1354.58 1581.1 1347.21 1581.1 Q1342.5 1581.1 1338.99 1578.5 Q1335.54 1575.83 1333.65 1571.4 Q1331.75 1566.9 1330.83 1561.98 Q1329.92 1557 1329.92 1551.58 Q1329.92 1543.5 1331.68 1534.72 Q1333.43 1525.87 1336.39 1517.86 Q1339.34 1509.78 1343.48 1502.47 Q1347.63 1495.09 1352.2 1489.75 Q1356.83 1484.34 1362.03 1481.18 Q1367.23 1478.01 1372.08 1478.01 Q1375.59 1478.01 1378.41 1479.56 Q1381.29 1481.04 1383.11 1483.64 Q1384.94 1486.17 1386.21 1489.19 Q1387.54 1492.21 1388.17 1495.72 Q1388.8 1499.17 1389.09 1502.05 Q1389.37 1504.86 1389.37 1507.53 M1379.88 1498.6 Q1379.88 1495.02 1379.6 1492.35 Q1379.32 1489.61 1378.55 1486.87 Q1377.77 1484.13 1376.09 1482.65 Q1374.47 1481.18 1371.94 1481.18 Q1364.56 1481.18 1356.27 1496.28 Q1353.6 1500.99 1351.21 1507.39 Q1348.82 1513.78 1347.98 1516.8 Q1347.14 1519.82 1345.17 1527.27 L1375.24 1527.27 Q1379.88 1508.09 1379.88 1498.6 M1373.98 1531.84 L1344.04 1531.84 Q1339.41 1549.41 1339.41 1560.37 Q1339.41 1569.92 1341.37 1573.93 Q1343.41 1577.86 1347.21 1577.86 Q1351.56 1577.86 1355.64 1573.51 Q1359.71 1569.08 1363.86 1561.07 Q1369.34 1550.67 1373.98 1531.84 Z" fill="#000000" fill-rule="nonzero" fill-opacity="1" /><polyline clip-path="url(#clip630)" style="stroke:#000000; stroke-linecap:round; stroke-linejoin:round; stroke-width:4; stroke-opacity:1; fill:none" points="373.897,1341.1 373.897,47.2441 "/>
<polyline clip-path="url(#clip630)" style="stroke:#000000; stroke-linecap:round; stroke-linejoin:round; stroke-width:4; stroke-opacity:1; fill:none" points="373.897,1304.48 392.795,1304.48 "/>
<polyline clip-path="url(#clip630)" style="stroke:#000000; stroke-linecap:round; stroke-linejoin:round; stroke-width:4; stroke-opacity:1; fill:none" points="373.897,694.172 392.795,694.172 "/>
<polyline clip-path="url(#clip630)" style="stroke:#000000; stroke-linecap:round; stroke-linejoin:round; stroke-width:4; stroke-opacity:1; fill:none" points="373.897,83.8627 392.795,83.8627 "/>
<path clip-path="url(#clip630)" d="M237.84 1279.63 Q231.521 1279.63 228.32 1285.87 Q225.161 1292.07 225.161 1304.54 Q225.161 1316.98 228.32 1323.22 Q231.521 1329.41 237.84 1329.41 Q244.2 1329.41 247.36 1323.22 Q250.56 1316.98 250.56 1304.54 Q250.56 1292.07 247.36 1285.87 Q244.2 1279.63 237.84 1279.63 M237.84 1273.15 Q248.008 1273.15 253.355 1281.21 Q258.743 1289.23 258.743 1304.54 Q258.743 1319.81 253.355 1327.88 Q248.008 1335.9 237.84 1335.9 Q227.672 1335.9 222.285 1327.88 Q216.937 1319.81 216.937 1304.54 Q216.937 1289.23 222.285 1281.21 Q227.672 1273.15 237.84 1273.15 Z" fill="#000000" fill-rule="nonzero" fill-opacity="1" /><path clip-path="url(#clip630)" d="M273.123 1324.43 L281.671 1324.43 L281.671 1334.72 L273.123 1334.72 L273.123 1324.43 Z" fill="#000000" fill-rule="nonzero" fill-opacity="1" /><path clip-path="url(#clip630)" d="M316.995 1279.63 Q310.675 1279.63 307.475 1285.87 Q304.315 1292.07 304.315 1304.54 Q304.315 1316.98 307.475 1323.22 Q310.675 1329.41 316.995 1329.41 Q323.355 1329.41 326.514 1323.22 Q329.715 1316.98 329.715 1304.54 Q329.715 1292.07 326.514 1285.87 Q323.355 1279.63 316.995 1279.63 M316.995 1273.15 Q327.163 1273.15 332.51 1281.21 Q337.897 1289.23 337.897 1304.54 Q337.897 1319.81 332.51 1327.88 Q327.163 1335.9 316.995 1335.9 Q306.827 1335.9 301.439 1327.88 Q296.092 1319.81 296.092 1304.54 Q296.092 1289.23 301.439 1281.21 Q306.827 1273.15 316.995 1273.15 Z" fill="#000000" fill-rule="nonzero" fill-opacity="1" /><path clip-path="url(#clip630)" d="M239.582 669.32 Q233.263 669.32 230.062 675.558 Q226.903 681.756 226.903 694.233 Q226.903 706.669 230.062 712.907 Q233.263 719.105 239.582 719.105 Q245.942 719.105 249.102 712.907 Q252.302 706.669 252.302 694.233 Q252.302 681.756 249.102 675.558 Q245.942 669.32 239.582 669.32 M239.582 662.838 Q249.75 662.838 255.097 670.9 Q260.485 678.92 260.485 694.233 Q260.485 709.505 255.097 717.566 Q249.75 725.587 239.582 725.587 Q229.414 725.587 224.027 717.566 Q218.679 709.505 218.679 694.233 Q218.679 678.92 224.027 670.9 Q229.414 662.838 239.582 662.838 Z" fill="#000000" fill-rule="nonzero" fill-opacity="1" /><path clip-path="url(#clip630)" d="M274.865 714.123 L283.413 714.123 L283.413 724.412 L274.865 724.412 L274.865 714.123 Z" fill="#000000" fill-rule="nonzero" fill-opacity="1" /><path clip-path="url(#clip630)" d="M301.318 663.932 L333.441 663.932 L333.441 670.819 L308.812 670.819 L308.812 685.645 Q310.594 685.037 312.377 684.754 Q314.159 684.43 315.942 684.43 Q326.069 684.43 331.983 689.979 Q337.897 695.529 337.897 705.008 Q337.897 714.771 331.821 720.199 Q325.745 725.587 314.686 725.587 Q310.878 725.587 306.908 724.939 Q302.979 724.29 298.766 722.994 L298.766 714.771 Q302.412 716.756 306.3 717.728 Q310.189 718.7 314.524 718.7 Q321.532 718.7 325.623 715.014 Q329.715 711.328 329.715 705.008 Q329.715 698.689 325.623 695.002 Q321.532 691.316 314.524 691.316 Q311.242 691.316 307.961 692.045 Q304.721 692.774 301.318 694.314 L301.318 663.932 Z" fill="#000000" fill-rule="nonzero" fill-opacity="1" /><path clip-path="url(#clip630)" d="M221.758 107.216 L235.126 107.216 L235.126 61.0763 L220.583 63.993 L220.583 56.5393 L235.045 53.6227 L243.228 53.6227 L243.228 107.216 L256.596 107.216 L256.596 114.103 L221.758 114.103 L221.758 107.216 Z" fill="#000000" fill-rule="nonzero" fill-opacity="1" /><path clip-path="url(#clip630)" d="M273.123 103.813 L281.671 103.813 L281.671 114.103 L273.123 114.103 L273.123 103.813 Z" fill="#000000" fill-rule="nonzero" fill-opacity="1" /><path clip-path="url(#clip630)" d="M316.995 59.0104 Q310.675 59.0104 307.475 65.2487 Q304.315 71.4466 304.315 83.9234 Q304.315 96.3597 307.475 102.598 Q310.675 108.796 316.995 108.796 Q323.355 108.796 326.514 102.598 Q329.715 96.3597 329.715 83.9234 Q329.715 71.4466 326.514 65.2487 Q323.355 59.0104 316.995 59.0104 M316.995 52.5289 Q327.163 52.5289 332.51 60.5902 Q337.897 68.611 337.897 83.9234 Q337.897 99.1953 332.51 107.257 Q327.163 115.277 316.995 115.277 Q306.827 115.277 301.439 107.257 Q296.092 99.1953 296.092 83.9234 Q296.092 68.611 301.439 60.5902 Q306.827 52.5289 316.995 52.5289 Z" fill="#000000" fill-rule="nonzero" fill-opacity="1" /><path clip-path="url(#clip630)" d="M195.739 1149.24 L61.7388 1149.24 Q56.3985 1149.24 56.3985 1146.36 Q56.3985 1143.47 60.6848 1143.47 L194.685 1143.47 Q200.025 1143.47 200.025 1146.36 Q200.025 1149.24 195.739 1149.24 Z" fill="#000000" fill-rule="nonzero" fill-opacity="1" /><path clip-path="url(#clip630)" d="M197.285 1057.3 Q198.479 1057.3 199.322 1058.15 Q200.165 1058.99 200.165 1060.18 Q200.165 1062.22 198.268 1062.92 L129.195 1089.7 Q128.914 1089.84 128.212 1089.84 Q127.509 1089.84 127.228 1089.7 L58.1552 1062.92 Q56.258 1062.22 56.258 1060.18 Q56.258 1058.99 57.1012 1058.15 Q57.9444 1057.3 59.1389 1057.3 Q59.8416 1057.3 60.1227 1057.44 L128.212 1083.93 L196.301 1057.44 Q196.582 1057.3 197.285 1057.3 Z" fill="#000000" fill-rule="nonzero" fill-opacity="1" /><path clip-path="url(#clip630)" d="M81.8109 957.677 L83.8276 958.906 Q80.532 966.53 75.269 976.023 Q80.532 985.517 83.8276 993.141 L81.8109 994.321 Q74.5804 986.008 69.0222 976.023 Q74.6296 965.94 81.8109 957.677 Z" fill="#000000" fill-rule="nonzero" fill-opacity="1" /><path clip-path="url(#clip630)" d="M142.898 945.972 Q143.389 945.972 145.568 946.534 Q147.676 947.096 151.119 948.502 Q154.562 949.837 157.162 951.453 Q165.313 956.161 165.313 963.961 Q165.313 966.35 164.891 968.809 Q164.47 971.198 162.572 974.711 Q160.675 978.225 157.443 980.333 Q165.313 988.765 165.313 998.673 Q165.313 1001.62 164.962 1004.36 Q164.61 1007.03 163.416 1010.34 Q162.221 1013.64 160.324 1015.96 Q158.356 1018.28 154.843 1019.89 Q151.33 1021.51 146.622 1021.51 Q141.633 1021.51 135.098 1019.54 Q128.493 1017.57 116.407 1012.73 Q116.126 1012.66 114.791 1012.16 Q113.385 1011.67 112.402 1011.39 Q111.418 1011.04 109.942 1010.76 Q108.467 1010.41 107.342 1010.41 Q105.937 1010.41 105.234 1010.9 Q104.532 1011.32 104.461 1011.74 Q104.321 1012.16 104.321 1012.87 Q104.321 1013.78 104.602 1014.83 Q104.813 1015.89 105.867 1017.72 Q106.921 1019.47 108.677 1021.09 Q110.434 1022.7 113.877 1024.53 Q117.25 1026.36 121.747 1027.69 Q122.661 1027.97 123.082 1028.47 Q123.504 1028.96 123.574 1029.45 Q123.574 1029.87 123.574 1031 Q123.574 1031.77 123.574 1032.12 Q123.504 1032.47 123.363 1033.17 Q123.223 1033.81 122.801 1034.16 Q122.309 1034.44 121.607 1034.44 Q120.553 1034.44 118.164 1033.6 Q115.704 1032.75 112.472 1030.93 Q109.169 1029.03 106.218 1026.57 Q103.267 1024.04 101.229 1020.17 Q99.1211 1016.31 99.1211 1012.02 Q99.1211 1005.63 102.634 1000.71 Q106.148 995.792 112.121 995.792 Q113.315 995.792 114.369 996.002 Q115.423 996.213 116.196 996.494 Q116.969 996.705 119.288 997.619 Q126.806 1000.5 130.32 1001.83 Q133.763 1003.1 139.665 1004.65 Q145.568 1006.12 149.643 1006.12 Q151.049 1006.12 152.103 1006.05 Q153.086 1005.98 154.773 1005.56 Q156.389 1005.07 157.443 1004.22 Q158.497 1003.38 159.34 1001.62 Q160.183 999.867 160.183 997.478 Q160.183 992.63 157.302 988.695 Q154.421 984.689 150.838 981.949 Q148.097 981.668 140.719 979.771 L107.904 971.549 Q103.759 970.285 102.072 967.474 Q100.316 964.593 100.316 962.063 Q100.316 958.972 102.283 957.145 Q104.18 955.318 106.64 955.318 Q107.413 955.318 118.585 958.058 L131.374 961.361 L144.303 964.523 Q152.665 966.56 154.843 966.56 Q160.183 966.56 160.183 963.258 Q160.183 960.236 157.021 957.847 Q153.789 955.458 145.779 953.42 Q141.703 952.437 141.563 952.296 Q140.86 951.593 140.86 949.415 Q140.86 945.972 142.898 945.972 Z" fill="#000000" fill-rule="nonzero" fill-opacity="1" /><path clip-path="url(#clip630)" d="M161.87 935.385 Q159.551 937.423 156.529 937.423 Q153.508 937.423 151.259 935.455 Q148.941 933.418 148.941 929.764 Q148.941 925.477 153.086 923.018 Q157.162 920.559 164.048 920.559 Q171.496 920.559 178.383 923.58 Q185.339 926.602 188.642 929.553 Q191.944 932.504 191.944 933.699 Q191.944 935.104 190.398 935.104 Q189.836 935.104 188.782 934.12 Q177.68 923.791 164.048 923.721 Q161.87 923.721 161.87 924.002 L162.151 924.353 Q164.189 926.812 164.189 929.764 Q164.189 933.347 161.87 935.385 Z" fill="#000000" fill-rule="nonzero" fill-opacity="1" /><path clip-path="url(#clip630)" d="M142.898 786.682 Q143.389 786.682 145.568 787.244 Q147.676 787.807 151.119 789.212 Q154.562 790.547 157.162 792.163 Q165.313 796.871 165.313 804.671 Q165.313 807.06 164.891 809.519 Q164.47 811.908 162.572 815.422 Q160.675 818.935 157.443 821.043 Q165.313 829.475 165.313 839.383 Q165.313 842.334 164.962 845.075 Q164.61 847.745 163.416 851.047 Q162.221 854.35 160.324 856.669 Q158.356 858.987 154.843 860.604 Q151.33 862.22 146.622 862.22 Q141.633 862.22 135.098 860.252 Q128.493 858.285 116.407 853.436 Q116.126 853.366 114.791 852.874 Q113.385 852.382 112.402 852.101 Q111.418 851.75 109.942 851.469 Q108.467 851.118 107.342 851.118 Q105.937 851.118 105.234 851.609 Q104.532 852.031 104.461 852.453 Q104.321 852.874 104.321 853.577 Q104.321 854.49 104.602 855.544 Q104.813 856.598 105.867 858.425 Q106.921 860.182 108.677 861.798 Q110.434 863.414 113.877 865.241 Q117.25 867.068 121.747 868.403 Q122.661 868.684 123.082 869.176 Q123.504 869.668 123.574 870.16 Q123.574 870.582 123.574 871.706 Q123.574 872.479 123.574 872.83 Q123.504 873.181 123.363 873.884 Q123.223 874.517 122.801 874.868 Q122.309 875.149 121.607 875.149 Q120.553 875.149 118.164 874.306 Q115.704 873.463 112.472 871.636 Q109.169 869.738 106.218 867.279 Q103.267 864.749 101.229 860.885 Q99.1211 857.02 99.1211 852.734 Q99.1211 846.339 102.634 841.421 Q106.148 836.502 112.121 836.502 Q113.315 836.502 114.369 836.713 Q115.423 836.924 116.196 837.205 Q116.969 837.415 119.288 838.329 Q126.806 841.21 130.32 842.545 Q133.763 843.81 139.665 845.356 Q145.568 846.831 149.643 846.831 Q151.049 846.831 152.103 846.761 Q153.086 846.691 154.773 846.269 Q156.389 845.777 157.443 844.934 Q158.497 844.091 159.34 842.334 Q160.183 840.577 160.183 838.188 Q160.183 833.34 157.302 829.405 Q154.421 825.4 150.838 822.659 Q148.097 822.378 140.719 820.481 L107.904 812.26 Q103.759 810.995 102.072 808.184 Q100.316 805.303 100.316 802.774 Q100.316 799.682 102.283 797.855 Q104.18 796.028 106.64 796.028 Q107.413 796.028 118.585 798.768 L131.374 802.071 L144.303 805.233 Q152.665 807.271 154.843 807.271 Q160.183 807.271 160.183 803.968 Q160.183 800.947 157.021 798.558 Q153.789 796.168 145.779 794.131 Q141.703 793.147 141.563 793.006 Q140.86 792.304 140.86 790.125 Q140.86 786.682 142.898 786.682 Z" fill="#000000" fill-rule="nonzero" fill-opacity="1" /><path clip-path="url(#clip630)" d="M127.228 745.81 Q127.509 745.67 128.212 745.67 Q128.914 745.67 129.195 745.81 L198.268 772.582 Q200.165 773.285 200.165 775.252 Q200.165 776.447 199.322 777.29 Q198.479 778.133 197.285 778.133 Q196.582 778.133 196.301 777.992 L128.212 751.572 L60.1227 777.992 Q59.8416 778.133 59.1389 778.133 Q57.9444 778.133 57.1012 777.29 Q56.258 776.447 56.258 775.252 Q56.258 773.285 58.1552 772.582 L127.228 745.81 Z" fill="#000000" fill-rule="nonzero" fill-opacity="1" /><path clip-path="url(#clip630)" d="M195.739 722.735 L61.7388 722.735 Q56.3985 722.735 56.3985 719.854 Q56.3985 716.973 60.6848 716.973 L194.685 716.973 Q200.025 716.973 200.025 719.854 Q200.025 722.735 195.739 722.735 Z" fill="#000000" fill-rule="nonzero" fill-opacity="1" /><path clip-path="url(#clip630)" d="M77.3566 701.672 Q75.5367 701.672 74.9956 701.524 Q74.4545 701.328 73.6184 700.541 L52.0744 681.21 Q40.1711 670.635 29.7926 670.635 Q23.054 670.635 18.2336 674.176 Q13.4133 677.669 13.4133 684.112 Q13.4133 688.539 16.1186 692.277 Q18.8239 696.016 23.6442 697.737 Q23.5459 697.442 23.5459 696.409 Q23.5459 693.9 25.1198 692.523 Q26.6938 691.097 28.8089 691.097 Q31.5142 691.097 32.8422 692.868 Q34.1211 694.589 34.1211 696.311 Q34.1211 696.999 33.9735 697.934 Q33.826 698.819 32.4487 700.246 Q31.0223 701.672 28.5138 701.672 Q21.48 701.672 15.8727 696.36 Q10.2653 690.998 10.2653 682.833 Q10.2653 673.586 15.7743 667.536 Q21.2341 661.437 29.7926 661.437 Q32.793 661.437 35.5475 662.372 Q38.2528 663.257 40.3679 664.487 Q42.4829 665.667 45.8768 668.913 Q49.2707 672.16 51.6809 674.767 Q54.0911 677.374 59.2065 683.227 L69.585 693.9 L69.585 675.75 Q69.585 666.897 68.798 666.208 Q67.3716 665.224 59.846 663.995 L59.846 661.437 L77.3566 664.29 L77.3566 701.672 Z" fill="#000000" fill-rule="nonzero" fill-opacity="1" /><path clip-path="url(#clip630)" d="M56.2725 557.162 Q72.2447 566.467 87.8696 570.981 Q103.494 575.495 119.536 575.495 Q135.578 575.495 151.341 570.981 Q167.036 566.398 182.939 557.162 L182.939 568.273 Q166.619 578.689 150.855 583.898 Q135.092 589.036 119.536 589.036 Q104.05 589.036 88.3557 583.898 Q72.6613 578.759 56.2725 568.273 L56.2725 557.162 Z" fill="#000000" fill-rule="nonzero" fill-opacity="1" /><path clip-path="url(#clip630)" d="M74.328 497.162 L125.925 516.19 L125.925 478.065 L74.328 497.162 M60.5086 505.079 L60.5086 489.176 L164.189 449.662 L164.189 464.245 L137.592 473.69 L137.592 520.426 L164.189 529.87 L164.189 544.662 L60.5086 505.079 Z" fill="#000000" fill-rule="nonzero" fill-opacity="1" /><path clip-path="url(#clip630)" d="M86.4112 452.579 L86.4112 439.037 L151.689 414.732 L86.4112 390.426 L86.4112 376.885 L164.189 406.051 L164.189 423.412 L86.4112 452.579 Z" fill="#000000" fill-rule="nonzero" fill-opacity="1" /><path clip-path="url(#clip630)" d="M124.397 308.066 Q110.508 308.066 102.869 313.83 Q95.2306 319.524 95.2306 329.871 Q95.2306 340.149 102.869 345.913 Q110.508 351.607 124.397 351.607 Q138.217 351.607 145.855 345.913 Q153.494 340.149 153.494 329.871 Q153.494 319.524 145.855 313.83 Q138.217 308.066 124.397 308.066 M154.536 295.288 Q174.397 295.288 184.05 304.107 Q193.772 312.927 193.772 331.121 Q193.772 337.857 192.73 343.829 Q191.758 349.802 189.675 355.427 L177.244 355.427 Q180.3 349.802 181.758 344.316 Q183.216 338.829 183.216 333.135 Q183.216 320.566 176.619 314.316 Q170.091 308.066 156.828 308.066 L150.508 308.066 Q157.383 312.024 160.786 318.205 Q164.189 324.385 164.189 332.996 Q164.189 347.302 153.286 356.052 Q142.383 364.802 124.397 364.802 Q106.342 364.802 95.439 356.052 Q84.5363 347.302 84.5363 332.996 Q84.5363 324.385 87.939 318.205 Q91.3418 312.024 98.2167 308.066 L86.4112 308.066 L86.4112 295.288 L154.536 295.288 Z" fill="#000000" fill-rule="nonzero" fill-opacity="1" /><path clip-path="url(#clip630)" d="M56.2725 270.983 L56.2725 259.872 Q72.6613 249.455 88.3557 244.316 Q104.05 239.108 119.536 239.108 Q135.092 239.108 150.855 244.316 Q166.619 249.455 182.939 259.872 L182.939 270.983 Q167.036 261.747 151.341 257.233 Q135.578 252.649 119.536 252.649 Q103.494 252.649 87.8696 257.233 Q72.2447 261.747 56.2725 270.983 Z" fill="#000000" fill-rule="nonzero" fill-opacity="1" /><polyline clip-path="url(#clip631)" style="stroke:#0000ff; stroke-linecap:round; stroke-linejoin:round; stroke-width:12; stroke-opacity:1; fill:none" points="429.903,1304.48 445.46,1304.48 461.017,1304.48 476.574,1304.48 492.131,1304.48 507.688,1304.48 523.245,1304.48 538.802,1304.48 554.359,1304.48 569.916,1304.48 585.474,1304.48 601.031,1304.48 616.588,1304.48 632.145,1304.48 647.702,1304.48 663.259,1304.48 678.816,1304.48 694.373,1304.48 709.93,1304.48 725.487,1304.48 741.044,1304.48 756.601,1304.48 772.158,1304.48 787.715,1304.48 803.272,1304.48 818.829,1304.48 834.387,1304.48 849.944,1304.48 865.501,1304.48 881.058,1304.48 896.615,1304.48 912.172,1304.48 927.729,1304.48 943.286,1304.48 958.843,1304.48 974.4,1304.48 989.957,1304.48 1005.51,1304.48 1021.07,1304.48 1036.63,1304.48 1052.19,1252.01 1067.74,1190.85 1083.3,1134.27 1098.86,1081.82 1114.41,1033.13 1129.97,987.845 1145.53,945.667 1161.08,906.322 1176.64,869.568 1192.2,835.185 1207.76,802.98 1223.31,772.773 1238.87,744.407 1254.43,717.738 1269.98,692.634 1285.54,668.977 1301.1,646.661 1316.66,625.587 1332.21,605.666 1347.77,586.816 1363.33,568.964 1378.88,552.039 1394.44,535.981 1410,520.732 1425.55,506.238 1441.11,492.452 1456.67,479.328 1472.23,466.824 1487.78,454.904 1503.34,443.531 1518.9,432.672 1534.45,422.297 1550.01,412.379 1565.57,402.89 1581.13,393.807 1596.68,385.107 1612.24,376.768 1627.8,368.772 1643.35,361.099 1658.91,353.733 1674.47,346.657 1690.03,339.856 1705.58,333.317 1721.14,327.026 1736.7,320.97 1752.25,315.139 1767.81,309.522 1783.37,304.107 1798.92,298.885 1814.48,293.848 1830.04,288.986 1845.6,284.292 1861.15,279.758 1876.71,275.377 1892.27,271.142 1907.82,267.047 1923.38,263.085 1938.94,259.251 1954.5,255.539 1970.05,251.944 1985.61,248.462 2001.17,245.087 2016.72,241.816 2032.28,238.643 2047.84,235.566 2063.39,232.58 2078.95,229.682 2094.51,226.868 2110.07,224.136 2125.62,221.481 2141.18,218.901 2156.74,216.394 2172.29,213.956 2187.85,211.586 2203.41,209.279 2218.97,207.036 2234.52,204.852 2250.08,202.726 2265.64,200.655 2281.19,198.639 2296.75,196.675 2312.31,194.761 2327.86,192.896 2343.42,191.077 2358.98,189.304 2374.54,187.575 2390.09,185.888 2405.65,184.242 2421.21,182.636 2436.76,181.069 2452.32,179.538 2467.88,178.044 2483.44,176.585 2498.99,175.159 2514.55,173.766 2530.11,172.405 2545.66,171.075 2561.22,169.775 2576.78,168.504 2592.33,167.261 2607.89,166.045 2623.45,164.856 2639.01,163.692 2654.56,162.554 2670.12,161.44 2685.68,160.349 2701.23,159.281 2716.79,158.236 2732.35,157.213 2747.91,156.21 2763.46,155.228 2779.02,154.266 2794.58,153.323 2810.13,152.4 2825.69,151.494 2841.25,150.607 2856.8,149.737 2872.36,148.884 2887.92,148.047 2903.48,147.227 2919.03,146.422 2934.59,145.633 2950.15,144.859 2965.7,144.099 2981.26,143.353 2996.82,142.621 3012.38,141.903 3027.93,141.197 3043.49,140.505 3059.05,139.825 3074.6,139.157 3090.16,138.502 3105.72,137.857 3121.27,137.225 3136.83,136.603 3152.39,135.992 3167.95,135.392 3183.5,134.802 3199.06,134.222 3214.62,133.652 3230.17,133.092 3245.73,132.541 3261.29,132 3276.85,131.467 3292.4,130.944 3307.96,130.429 3323.52,129.922 3339.07,129.424 3354.63,128.933 3370.19,128.451 3385.74,127.976 3401.3,127.509 3416.86,127.049 3432.42,126.597 3447.97,126.152 3463.53,125.713 3479.09,125.282 3494.64,124.857 3510.2,124.438 3525.76,124.026 3541.32,123.62 3556.87,123.221 3572.43,122.827 3587.99,122.44 3603.54,122.058 3619.1,121.681 3634.66,121.311 3650.21,120.945 3665.77,120.586 3681.33,120.231 3696.89,119.881 3712.44,119.537 3728,119.197 3743.56,118.862 3759.11,118.532 3774.67,118.207 3790.23,117.886 3805.79,117.57 3821.34,117.258 3836.9,116.951 3852.46,116.647 3868.01,116.348 3883.57,116.053 3899.13,115.762 3914.69,115.475 3930.24,115.192 3945.8,114.912 3961.36,114.636 3976.91,114.364 3992.47,114.096 4008.03,113.831 4023.58,113.57 4039.14,113.312 4054.7,113.057 4070.26,112.806 4085.81,112.557 4101.37,112.313 4116.93,112.071 4132.48,111.832 4148.04,111.596 4163.6,111.364 "/>
<path clip-path="url(#clip631)" d="M405.903 1244.09 L405.903 1292.09 L453.903 1292.09 L453.903 1244.09 L405.903 1244.09 Z" fill="#ffa500" fill-rule="evenodd" fill-opacity="1" stroke="none"/>
<path clip-path="url(#clip631)" d="M522.581 1246.57 L522.581 1294.57 L570.581 1294.57 L570.581 1246.57 L522.581 1246.57 Z" fill="#ffa500" fill-rule="evenodd" fill-opacity="1" stroke="none"/>
<path clip-path="url(#clip631)" d="M639.259 1227.74 L639.259 1275.74 L687.259 1275.74 L687.259 1227.74 L639.259 1227.74 Z" fill="#ffa500" fill-rule="evenodd" fill-opacity="1" stroke="none"/>
<path clip-path="url(#clip631)" d="M755.937 1204.39 L755.937 1252.39 L803.937 1252.39 L803.937 1204.39 L755.937 1204.39 Z" fill="#ffa500" fill-rule="evenodd" fill-opacity="1" stroke="none"/>
<path clip-path="url(#clip631)" d="M872.615 1146.81 L872.615 1194.81 L920.615 1194.81 L920.615 1146.81 L872.615 1146.81 Z" fill="#ffa500" fill-rule="evenodd" fill-opacity="1" stroke="none"/>
<path clip-path="url(#clip631)" d="M989.293 1034.64 L989.293 1082.64 L1037.29 1082.64 L1037.29 1034.64 L989.293 1034.64 Z" fill="#ffa500" fill-rule="evenodd" fill-opacity="1" stroke="none"/>
<path clip-path="url(#clip631)" d="M1105.97 950.24 L1105.97 998.24 L1153.97 998.24 L1153.97 950.24 L1105.97 950.24 Z" fill="#ffa500" fill-rule="evenodd" fill-opacity="1" stroke="none"/>
<path clip-path="url(#clip631)" d="M1222.65 757.367 L1222.65 805.367 L1270.65 805.367 L1270.65 757.367 L1222.65 757.367 Z" fill="#ffa500" fill-rule="evenodd" fill-opacity="1" stroke="none"/>
<path clip-path="url(#clip631)" d="M1339.33 630.317 L1339.33 678.317 L1387.33 678.317 L1387.33 630.317 L1339.33 630.317 Z" fill="#ffa500" fill-rule="evenodd" fill-opacity="1" stroke="none"/>
<path clip-path="url(#clip631)" d="M1456 514.556 L1456 562.556 L1504 562.556 L1504 514.556 L1456 514.556 Z" fill="#ffa500" fill-rule="evenodd" fill-opacity="1" stroke="none"/>
<path clip-path="url(#clip631)" d="M1572.68 437.3 L1572.68 485.3 L1620.68 485.3 L1620.68 437.3 L1572.68 437.3 Z" fill="#ffa500" fill-rule="evenodd" fill-opacity="1" stroke="none"/>
<path clip-path="url(#clip631)" d="M1689.36 353.032 L1689.36 401.032 L1737.36 401.032 L1737.36 353.032 L1689.36 353.032 Z" fill="#ffa500" fill-rule="evenodd" fill-opacity="1" stroke="none"/>
<path clip-path="url(#clip631)" d="M1806.04 336.619 L1806.04 384.619 L1854.04 384.619 L1854.04 336.619 L1806.04 336.619 Z" fill="#ffa500" fill-rule="evenodd" fill-opacity="1" stroke="none"/>
<path clip-path="url(#clip631)" d="M1922.72 288.81 L1922.72 336.81 L1970.72 336.81 L1970.72 288.81 L1922.72 288.81 Z" fill="#ffa500" fill-rule="evenodd" fill-opacity="1" stroke="none"/>
<path clip-path="url(#clip631)" d="M2039.39 257.592 L2039.39 305.592 L2087.39 305.592 L2087.39 257.592 L2039.39 257.592 Z" fill="#ffa500" fill-rule="evenodd" fill-opacity="1" stroke="none"/>
<path clip-path="url(#clip631)" d="M2156.07 238.465 L2156.07 286.465 L2204.07 286.465 L2204.07 238.465 L2156.07 238.465 Z" fill="#ffa500" fill-rule="evenodd" fill-opacity="1" stroke="none"/>
<path clip-path="url(#clip631)" d="M2272.75 216.568 L2272.75 264.568 L2320.75 264.568 L2320.75 216.568 L2272.75 216.568 Z" fill="#ffa500" fill-rule="evenodd" fill-opacity="1" stroke="none"/>
<circle clip-path="url(#clip631)" cx="429.903" cy="1300.29" r="21.6" fill="#ff0000" fill-rule="evenodd" fill-opacity="1" stroke="none"/>
<circle clip-path="url(#clip631)" cx="546.581" cy="1300.28" r="21.6" fill="#ff0000" fill-rule="evenodd" fill-opacity="1" stroke="none"/>
<circle clip-path="url(#clip631)" cx="663.259" cy="1297.82" r="21.6" fill="#ff0000" fill-rule="evenodd" fill-opacity="1" stroke="none"/>
<circle clip-path="url(#clip631)" cx="779.937" cy="1293.53" r="21.6" fill="#ff0000" fill-rule="evenodd" fill-opacity="1" stroke="none"/>
<circle clip-path="url(#clip631)" cx="896.615" cy="1280.54" r="21.6" fill="#ff0000" fill-rule="evenodd" fill-opacity="1" stroke="none"/>
<circle clip-path="url(#clip631)" cx="1013.29" cy="1214.87" r="21.6" fill="#ff0000" fill-rule="evenodd" fill-opacity="1" stroke="none"/>
<circle clip-path="url(#clip631)" cx="1129.97" cy="1026.81" r="21.6" fill="#ff0000" fill-rule="evenodd" fill-opacity="1" stroke="none"/>
<circle clip-path="url(#clip631)" cx="1246.65" cy="744.884" r="21.6" fill="#ff0000" fill-rule="evenodd" fill-opacity="1" stroke="none"/>
<circle clip-path="url(#clip631)" cx="1363.33" cy="580.985" r="21.6" fill="#ff0000" fill-rule="evenodd" fill-opacity="1" stroke="none"/>
<circle clip-path="url(#clip631)" cx="1480" cy="468.275" r="21.6" fill="#ff0000" fill-rule="evenodd" fill-opacity="1" stroke="none"/>
<circle clip-path="url(#clip631)" cx="1596.68" cy="393.747" r="21.6" fill="#ff0000" fill-rule="evenodd" fill-opacity="1" stroke="none"/>
<circle clip-path="url(#clip631)" cx="1713.36" cy="337.966" r="21.6" fill="#ff0000" fill-rule="evenodd" fill-opacity="1" stroke="none"/>
<circle clip-path="url(#clip631)" cx="1830.04" cy="295.949" r="21.6" fill="#ff0000" fill-rule="evenodd" fill-opacity="1" stroke="none"/>
<circle clip-path="url(#clip631)" cx="1946.72" cy="264.838" r="21.6" fill="#ff0000" fill-rule="evenodd" fill-opacity="1" stroke="none"/>
<circle clip-path="url(#clip631)" cx="2063.39" cy="239.534" r="21.6" fill="#ff0000" fill-rule="evenodd" fill-opacity="1" stroke="none"/>
<circle clip-path="url(#clip631)" cx="2180.07" cy="217.339" r="21.6" fill="#ff0000" fill-rule="evenodd" fill-opacity="1" stroke="none"/>
<circle clip-path="url(#clip631)" cx="2296.75" cy="201.548" r="21.6" fill="#ff0000" fill-rule="evenodd" fill-opacity="1" stroke="none"/>
<path clip-path="url(#clip630)" d="M1681.02 1297.97 L2286.79 1297.97 L2286.79 831.411 L1681.02 831.411  Z" fill="#ffffff" fill-rule="evenodd" fill-opacity="1"/>
<polyline clip-path="url(#clip630)" style="stroke:#000000; stroke-linecap:round; stroke-linejoin:round; stroke-width:4; stroke-opacity:1; fill:none" points="1681.02,1297.97 2286.79,1297.97 2286.79,831.411 1681.02,831.411 1681.02,1297.97 "/>
<polyline clip-path="url(#clip630)" style="stroke:#0000ff; stroke-linecap:round; stroke-linejoin:round; stroke-width:27; stroke-opacity:1; fill:none" points="1703.01,948.051 1834.94,948.051 "/>
<path clip-path="url(#clip630)" d="M1873.59 912.036 L1873.59 928.598 L1893.33 928.598 L1893.33 936.046 L1873.59 936.046 L1873.59 967.713 Q1873.59 974.848 1875.52 976.879 Q1877.5 978.911 1883.49 978.911 L1893.33 978.911 L1893.33 986.931 L1883.49 986.931 Q1872.39 986.931 1868.17 982.817 Q1863.95 978.65 1863.95 967.713 L1863.95 936.046 L1856.92 936.046 L1856.92 928.598 L1863.95 928.598 L1863.95 912.036 L1873.59 912.036 Z" fill="#000000" fill-rule="nonzero" fill-opacity="1" /><path clip-path="url(#clip630)" d="M1954.42 951.723 L1954.42 986.931 L1944.84 986.931 L1944.84 952.036 Q1944.84 943.754 1941.61 939.64 Q1938.38 935.525 1931.92 935.525 Q1924.16 935.525 1919.68 940.473 Q1915.2 945.421 1915.2 953.963 L1915.2 986.931 L1905.57 986.931 L1905.57 905.89 L1915.2 905.89 L1915.2 937.661 Q1918.64 932.4 1923.28 929.796 Q1927.96 927.192 1934.06 927.192 Q1944.11 927.192 1949.27 933.442 Q1954.42 939.64 1954.42 951.723 Z" fill="#000000" fill-rule="nonzero" fill-opacity="1" /><path clip-path="url(#clip630)" d="M2023.43 955.369 L2023.43 960.056 L1979.37 960.056 Q1980 969.952 1985.31 975.161 Q1990.67 980.317 2000.2 980.317 Q2005.72 980.317 2010.88 978.963 Q2016.09 977.608 2021.19 974.9 L2021.19 983.963 Q2016.04 986.15 2010.62 987.296 Q2005.2 988.442 1999.63 988.442 Q1985.67 988.442 1977.5 980.317 Q1969.37 972.192 1969.37 958.338 Q1969.37 944.015 1977.08 935.63 Q1984.84 927.192 1997.96 927.192 Q2009.74 927.192 2016.56 934.796 Q2023.43 942.348 2023.43 955.369 M2013.85 952.557 Q2013.75 944.692 2009.42 940.004 Q2005.15 935.317 1998.07 935.317 Q1990.05 935.317 1985.2 939.848 Q1980.41 944.379 1979.68 952.609 L2013.85 952.557 Z" fill="#000000" fill-rule="nonzero" fill-opacity="1" /><path clip-path="url(#clip630)" d="M2061.77 935.317 Q2054.06 935.317 2049.58 941.359 Q2045.1 947.348 2045.1 957.817 Q2045.1 968.286 2049.53 974.327 Q2054.01 980.317 2061.77 980.317 Q2069.42 980.317 2073.9 974.275 Q2078.38 968.234 2078.38 957.817 Q2078.38 947.452 2073.9 941.411 Q2069.42 935.317 2061.77 935.317 M2061.77 927.192 Q2074.27 927.192 2081.4 935.317 Q2088.54 943.442 2088.54 957.817 Q2088.54 972.14 2081.4 980.317 Q2074.27 988.442 2061.77 988.442 Q2049.21 988.442 2042.08 980.317 Q2035 972.14 2035 957.817 Q2035 943.442 2042.08 935.317 Q2049.21 927.192 2061.77 927.192 Z" fill="#000000" fill-rule="nonzero" fill-opacity="1" /><path clip-path="url(#clip630)" d="M2138.22 937.557 Q2136.61 936.619 2134.68 936.202 Q2132.81 935.734 2130.52 935.734 Q2122.39 935.734 2118.02 941.046 Q2113.69 946.307 2113.69 956.202 L2113.69 986.931 L2104.06 986.931 L2104.06 928.598 L2113.69 928.598 L2113.69 937.661 Q2116.71 932.348 2121.56 929.796 Q2126.4 927.192 2133.33 927.192 Q2134.32 927.192 2135.52 927.348 Q2136.71 927.452 2138.17 927.713 L2138.22 937.557 Z" fill="#000000" fill-rule="nonzero" fill-opacity="1" /><path clip-path="url(#clip630)" d="M2172.55 992.348 Q2168.48 1002.76 2164.63 1005.94 Q2160.78 1009.12 2154.32 1009.12 L2146.66 1009.12 L2146.66 1001.1 L2152.29 1001.1 Q2156.24 1001.1 2158.43 999.223 Q2160.62 997.348 2163.28 990.369 L2164.99 985.994 L2141.4 928.598 L2151.56 928.598 L2169.79 974.223 L2188.02 928.598 L2198.17 928.598 L2172.55 992.348 Z" fill="#000000" fill-rule="nonzero" fill-opacity="1" /><path clip-path="url(#clip630)" d="M1715.8 1011.52 L1715.8 1117.86 L1822.14 1117.86 L1822.14 1011.52 L1715.8 1011.52 Z" fill="#ffa500" fill-rule="evenodd" fill-opacity="1" stroke="none"/>
<path clip-path="url(#clip630)" d="M1965.06 1027.51 Q1965.06 1029.04 1964.38 1029.36 Q1963.75 1029.67 1961.64 1029.67 Q1959.16 1029.67 1957.63 1029.88 Q1956.11 1030.04 1955.16 1030.3 Q1954.21 1030.52 1953.63 1031.25 Q1953.1 1031.99 1952.89 1032.62 Q1952.68 1033.2 1952.31 1034.63 L1937.98 1092.12 Q1937.45 1094.07 1937.45 1094.76 Q1937.45 1095.44 1937.87 1095.86 Q1938.35 1096.29 1939.51 1096.5 Q1940.66 1096.65 1941.56 1096.71 Q1942.51 1096.71 1944.46 1096.71 Q1946.88 1096.71 1947.25 1097.13 Q1947.46 1097.39 1947.46 1097.87 Q1947.46 1098.87 1947.04 1099.39 Q1946.62 1099.87 1946.25 1099.97 Q1945.93 1100.03 1945.41 1100.03 Q1943.19 1100.03 1938.66 1099.87 Q1934.13 1099.71 1931.92 1099.71 L1918.53 1100.03 Q1916.95 1100.03 1916.95 1098.71 Q1916.95 1097.71 1917.37 1097.29 Q1917.79 1096.81 1918.27 1096.76 Q1918.74 1096.71 1919.95 1096.71 Q1924.27 1096.71 1926.12 1096.23 Q1928.02 1095.76 1928.54 1094.92 Q1929.12 1094.02 1929.76 1091.6 L1945.2 1029.78 L1945.09 1029.78 L1901.51 1098.08 L1901.19 1098.55 Q1900.88 1098.97 1900.77 1099.13 Q1900.66 1099.24 1900.35 1099.55 Q1900.09 1099.82 1899.77 1099.92 Q1899.51 1100.03 1899.14 1100.03 Q1898.5 1100.03 1898.14 1099.61 Q1897.82 1099.18 1897.71 1098.87 Q1897.66 1098.5 1897.5 1097.55 L1888.23 1030.62 L1888.12 1030.62 L1873.42 1089.43 Q1873 1091.07 1873 1091.91 Q1873 1094.07 1874.53 1095.39 Q1876.11 1096.65 1880.32 1096.71 Q1882.27 1096.71 1882.27 1097.87 Q1882.27 1100.03 1880.32 1100.03 Q1878.53 1100.03 1874.79 1099.87 Q1871.05 1099.71 1869.2 1099.71 Q1867.41 1099.71 1863.77 1099.87 Q1860.19 1100.03 1858.45 1100.03 Q1856.92 1100.03 1856.92 1098.71 Q1856.92 1096.71 1858.87 1096.71 Q1862.04 1096.6 1864.2 1095.97 Q1866.36 1095.34 1867.57 1094.12 Q1868.83 1092.91 1869.41 1091.7 Q1870.05 1090.44 1870.52 1088.59 L1884.22 1033.62 Q1884.64 1031.89 1884.64 1031.62 Q1884.64 1030.73 1884.12 1030.41 Q1883.64 1030.04 1882.27 1029.88 Q1879.64 1029.67 1877.63 1029.67 Q1876.32 1029.67 1875.79 1029.62 Q1875.32 1029.57 1874.89 1029.3 Q1874.53 1028.99 1874.53 1028.35 Q1874.53 1027.35 1874.95 1026.93 Q1875.42 1026.46 1875.95 1026.4 Q1876.48 1026.3 1877.74 1026.3 L1892.55 1026.3 Q1894.71 1026.3 1895.18 1026.67 Q1895.66 1026.98 1895.87 1028.78 L1904.3 1089.86 L1943.72 1028.35 Q1944.72 1026.83 1945.25 1026.56 Q1945.78 1026.3 1947.88 1026.3 L1962.17 1026.3 Q1963.33 1026.3 1963.8 1026.35 Q1964.27 1026.4 1964.64 1026.67 Q1965.06 1026.93 1965.06 1027.51 Z" fill="#000000" fill-rule="nonzero" fill-opacity="1" /><path clip-path="url(#clip630)" d="M1990.52 1083.64 Q1990.63 1082.32 1992.68 1082.32 L2058.82 1082.32 Q2061.93 1082.32 2061.98 1083.53 Q2061.98 1084.85 2059.03 1084.8 L1993.42 1084.8 Q1990.52 1084.85 1990.52 1083.64 M1990.52 1062.56 Q1990.52 1061.24 1992.79 1061.29 L2058.72 1061.29 Q2061.93 1061.29 2061.98 1062.56 Q2061.98 1063.77 2059.24 1063.77 L1992.68 1063.77 Q1990.52 1063.77 1990.52 1062.56 Z" fill="#000000" fill-rule="nonzero" fill-opacity="1" /><path clip-path="url(#clip630)" d="M2103.61 1085.48 Q2103.61 1082.27 2105.45 1080.74 Q2107.3 1079.21 2109.67 1079.21 Q2112.14 1079.21 2113.88 1080.84 Q2115.68 1082.43 2115.68 1085.22 Q2115.68 1088.22 2113.57 1089.91 Q2111.51 1091.6 2108.56 1091.17 Q2111.14 1095.5 2115.89 1097.44 Q2120.68 1099.39 2125.11 1099.39 Q2129.75 1099.39 2133.49 1095.39 Q2137.28 1091.38 2137.28 1081.58 Q2137.28 1073.26 2134.01 1068.46 Q2130.8 1063.66 2124.42 1063.66 L2119.68 1063.66 Q2118.05 1063.66 2117.57 1063.51 Q2117.1 1063.35 2117.1 1062.45 Q2117.1 1061.4 2118.73 1061.19 Q2120.37 1061.19 2122.95 1060.87 Q2129.22 1060.66 2132.54 1055.23 Q2135.54 1050.17 2135.54 1042.95 Q2135.54 1036.37 2132.38 1033.62 Q2129.27 1030.83 2125.21 1030.83 Q2121.42 1030.83 2117.26 1032.41 Q2113.09 1033.99 2110.83 1037.52 Q2117.52 1037.52 2117.52 1042.95 Q2117.52 1045.32 2115.99 1046.91 Q2114.52 1048.43 2112.04 1048.43 Q2109.67 1048.43 2108.09 1046.96 Q2106.51 1045.43 2106.51 1042.85 Q2106.51 1036.68 2111.99 1032.41 Q2117.52 1028.14 2125.64 1028.14 Q2133.65 1028.14 2139.55 1032.36 Q2145.5 1036.58 2145.5 1043.06 Q2145.5 1049.43 2141.29 1054.65 Q2137.07 1059.87 2130.38 1062.03 Q2138.6 1063.66 2143.5 1069.25 Q2148.4 1074.78 2148.4 1081.58 Q2148.4 1090.01 2141.76 1096.23 Q2135.12 1102.4 2125.42 1102.4 Q2116.47 1102.4 2110.04 1097.55 Q2103.61 1092.7 2103.61 1085.48 Z" fill="#000000" fill-rule="nonzero" fill-opacity="1" /><path clip-path="url(#clip630)" d="M2157.48 1065.51 Q2157.48 1049.65 2161.49 1041 Q2167.08 1028.14 2180.25 1028.14 Q2183.04 1028.14 2185.94 1028.93 Q2188.89 1029.67 2192.58 1032.57 Q2196.32 1035.47 2198.59 1040.21 Q2202.91 1049.38 2202.91 1065.51 Q2202.91 1081.27 2198.91 1089.86 Q2193.06 1102.4 2180.15 1102.4 Q2175.3 1102.4 2170.34 1099.92 Q2165.44 1097.44 2162.33 1091.49 Q2157.48 1082.58 2157.48 1065.51 M2166.44 1064.19 Q2166.44 1080.48 2167.6 1086.96 Q2168.92 1093.97 2172.5 1097.02 Q2176.14 1100.03 2180.15 1100.03 Q2184.47 1100.03 2188.05 1096.81 Q2191.69 1093.55 2192.79 1086.54 Q2194.01 1079.63 2193.95 1064.19 Q2193.95 1049.17 2192.9 1043.16 Q2191.48 1036.15 2187.68 1033.36 Q2183.94 1030.52 2180.15 1030.52 Q2178.72 1030.52 2177.19 1030.94 Q2175.72 1031.36 2173.56 1032.57 Q2171.4 1033.78 2169.71 1036.79 Q2168.08 1039.79 2167.29 1044.32 Q2166.44 1050.17 2166.44 1064.19 Z" fill="#000000" fill-rule="nonzero" fill-opacity="1" /><circle clip-path="url(#clip630)" cx="1768.97" cy="1181.33" r="47.8523" fill="#ff0000" fill-rule="evenodd" fill-opacity="1" stroke="none"/>
<path clip-path="url(#clip630)" d="M1965.06 1144.15 Q1965.06 1145.68 1964.38 1146 Q1963.75 1146.31 1961.64 1146.31 Q1959.16 1146.31 1957.63 1146.52 Q1956.11 1146.68 1955.16 1146.94 Q1954.21 1147.16 1953.63 1147.89 Q1953.1 1148.63 1952.89 1149.26 Q1952.68 1149.84 1952.31 1151.27 L1937.98 1208.76 Q1937.45 1210.71 1937.45 1211.4 Q1937.45 1212.08 1937.87 1212.5 Q1938.35 1212.93 1939.51 1213.14 Q1940.66 1213.29 1941.56 1213.35 Q1942.51 1213.35 1944.46 1213.35 Q1946.88 1213.35 1947.25 1213.77 Q1947.46 1214.03 1947.46 1214.51 Q1947.46 1215.51 1947.04 1216.03 Q1946.62 1216.51 1946.25 1216.61 Q1945.93 1216.67 1945.41 1216.67 Q1943.19 1216.67 1938.66 1216.51 Q1934.13 1216.35 1931.92 1216.35 L1918.53 1216.67 Q1916.95 1216.67 1916.95 1215.35 Q1916.95 1214.35 1917.37 1213.93 Q1917.79 1213.45 1918.27 1213.4 Q1918.74 1213.35 1919.95 1213.35 Q1924.27 1213.35 1926.12 1212.87 Q1928.02 1212.4 1928.54 1211.56 Q1929.12 1210.66 1929.76 1208.24 L1945.2 1146.42 L1945.09 1146.42 L1901.51 1214.72 L1901.19 1215.19 Q1900.88 1215.61 1900.77 1215.77 Q1900.66 1215.88 1900.35 1216.19 Q1900.09 1216.46 1899.77 1216.56 Q1899.51 1216.67 1899.14 1216.67 Q1898.5 1216.67 1898.14 1216.25 Q1897.82 1215.82 1897.71 1215.51 Q1897.66 1215.14 1897.5 1214.19 L1888.23 1147.26 L1888.12 1147.26 L1873.42 1206.07 Q1873 1207.71 1873 1208.55 Q1873 1210.71 1874.53 1212.03 Q1876.11 1213.29 1880.32 1213.35 Q1882.27 1213.35 1882.27 1214.51 Q1882.27 1216.67 1880.32 1216.67 Q1878.53 1216.67 1874.79 1216.51 Q1871.05 1216.35 1869.2 1216.35 Q1867.41 1216.35 1863.77 1216.51 Q1860.19 1216.67 1858.45 1216.67 Q1856.92 1216.67 1856.92 1215.35 Q1856.92 1213.35 1858.87 1213.35 Q1862.04 1213.24 1864.2 1212.61 Q1866.36 1211.98 1867.57 1210.76 Q1868.83 1209.55 1869.41 1208.34 Q1870.05 1207.08 1870.52 1205.23 L1884.22 1150.26 Q1884.64 1148.53 1884.64 1148.26 Q1884.64 1147.37 1884.12 1147.05 Q1883.64 1146.68 1882.27 1146.52 Q1879.64 1146.31 1877.63 1146.31 Q1876.32 1146.31 1875.79 1146.26 Q1875.32 1146.21 1874.89 1145.94 Q1874.53 1145.63 1874.53 1144.99 Q1874.53 1143.99 1874.95 1143.57 Q1875.42 1143.1 1875.95 1143.04 Q1876.48 1142.94 1877.74 1142.94 L1892.55 1142.94 Q1894.71 1142.94 1895.18 1143.31 Q1895.66 1143.62 1895.87 1145.42 L1904.3 1206.5 L1943.72 1144.99 Q1944.72 1143.47 1945.25 1143.2 Q1945.78 1142.94 1947.88 1142.94 L1962.17 1142.94 Q1963.33 1142.94 1963.8 1142.99 Q1964.27 1143.04 1964.64 1143.31 Q1965.06 1143.57 1965.06 1144.15 Z" fill="#000000" fill-rule="nonzero" fill-opacity="1" /><path clip-path="url(#clip630)" d="M1990.52 1200.28 Q1990.63 1198.96 1992.68 1198.96 L2058.82 1198.96 Q2061.93 1198.96 2061.98 1200.17 Q2061.98 1201.49 2059.03 1201.44 L1993.42 1201.44 Q1990.52 1201.49 1990.52 1200.28 M1990.52 1179.2 Q1990.52 1177.88 1992.79 1177.93 L2058.72 1177.93 Q2061.93 1177.93 2061.98 1179.2 Q2061.98 1180.41 2059.24 1180.41 L1992.68 1180.41 Q1990.52 1180.41 1990.52 1179.2 Z" fill="#000000" fill-rule="nonzero" fill-opacity="1" /><path clip-path="url(#clip630)" d="M2103.61 1202.12 Q2103.61 1198.91 2105.45 1197.38 Q2107.3 1195.85 2109.67 1195.85 Q2112.14 1195.85 2113.88 1197.48 Q2115.68 1199.07 2115.68 1201.86 Q2115.68 1204.86 2113.57 1206.55 Q2111.51 1208.24 2108.56 1207.81 Q2111.14 1212.14 2115.89 1214.08 Q2120.68 1216.03 2125.11 1216.03 Q2129.75 1216.03 2133.49 1212.03 Q2137.28 1208.02 2137.28 1198.22 Q2137.28 1189.9 2134.01 1185.1 Q2130.8 1180.3 2124.42 1180.3 L2119.68 1180.3 Q2118.05 1180.3 2117.57 1180.15 Q2117.1 1179.99 2117.1 1179.09 Q2117.1 1178.04 2118.73 1177.83 Q2120.37 1177.83 2122.95 1177.51 Q2129.22 1177.3 2132.54 1171.87 Q2135.54 1166.81 2135.54 1159.59 Q2135.54 1153.01 2132.38 1150.26 Q2129.27 1147.47 2125.21 1147.47 Q2121.42 1147.47 2117.26 1149.05 Q2113.09 1150.63 2110.83 1154.16 Q2117.52 1154.16 2117.52 1159.59 Q2117.52 1161.96 2115.99 1163.55 Q2114.52 1165.07 2112.04 1165.07 Q2109.67 1165.07 2108.09 1163.6 Q2106.51 1162.07 2106.51 1159.49 Q2106.51 1153.32 2111.99 1149.05 Q2117.52 1144.78 2125.64 1144.78 Q2133.65 1144.78 2139.55 1149 Q2145.5 1153.22 2145.5 1159.7 Q2145.5 1166.07 2141.29 1171.29 Q2137.07 1176.51 2130.38 1178.67 Q2138.6 1180.3 2143.5 1185.89 Q2148.4 1191.42 2148.4 1198.22 Q2148.4 1206.65 2141.76 1212.87 Q2135.12 1219.04 2125.42 1219.04 Q2116.47 1219.04 2110.04 1214.19 Q2103.61 1209.34 2103.61 1202.12 Z" fill="#000000" fill-rule="nonzero" fill-opacity="1" /><path clip-path="url(#clip630)" d="M2157.48 1182.15 Q2157.48 1166.29 2161.49 1157.64 Q2167.08 1144.78 2180.25 1144.78 Q2183.04 1144.78 2185.94 1145.57 Q2188.89 1146.31 2192.58 1149.21 Q2196.32 1152.11 2198.59 1156.85 Q2202.91 1166.02 2202.91 1182.15 Q2202.91 1197.91 2198.91 1206.5 Q2193.06 1219.04 2180.15 1219.04 Q2175.3 1219.04 2170.34 1216.56 Q2165.44 1214.08 2162.33 1208.13 Q2157.48 1199.22 2157.48 1182.15 M2166.44 1180.83 Q2166.44 1197.12 2167.6 1203.6 Q2168.92 1210.61 2172.5 1213.66 Q2176.14 1216.67 2180.15 1216.67 Q2184.47 1216.67 2188.05 1213.45 Q2191.69 1210.19 2192.79 1203.18 Q2194.01 1196.27 2193.95 1180.83 Q2193.95 1165.81 2192.9 1159.8 Q2191.48 1152.79 2187.68 1150 Q2183.94 1147.16 2180.15 1147.16 Q2178.72 1147.16 2177.19 1147.58 Q2175.72 1148 2173.56 1149.21 Q2171.4 1150.42 2169.71 1153.43 Q2168.08 1156.43 2167.29 1160.96 Q2166.44 1166.81 2166.44 1180.83 Z" fill="#000000" fill-rule="nonzero" fill-opacity="1" /><path clip-path="url(#clip630)" d="M2211.36 1182.15 Q2211.36 1166.29 2215.37 1157.64 Q2220.95 1144.78 2234.13 1144.78 Q2236.92 1144.78 2239.82 1145.57 Q2242.77 1146.31 2246.46 1149.21 Q2250.2 1152.11 2252.47 1156.85 Q2256.79 1166.02 2256.79 1182.15 Q2256.79 1197.91 2252.78 1206.5 Q2246.93 1219.04 2234.02 1219.04 Q2229.17 1219.04 2224.22 1216.56 Q2219.32 1214.08 2216.21 1208.13 Q2211.36 1199.22 2211.36 1182.15 M2220.32 1180.83 Q2220.32 1197.12 2221.48 1203.6 Q2222.8 1210.61 2226.38 1213.66 Q2230.02 1216.67 2234.02 1216.67 Q2238.34 1216.67 2241.93 1213.45 Q2245.56 1210.19 2246.67 1203.18 Q2247.88 1196.27 2247.83 1180.83 Q2247.83 1165.81 2246.78 1159.8 Q2245.35 1152.79 2241.56 1150 Q2237.82 1147.16 2234.02 1147.16 Q2232.6 1147.16 2231.07 1147.58 Q2229.6 1148 2227.43 1149.21 Q2225.27 1150.42 2223.59 1153.43 Q2221.95 1156.43 2221.16 1160.96 Q2220.32 1166.81 2220.32 1180.83 Z" fill="#000000" fill-rule="nonzero" fill-opacity="1" /></svg>
