<?xml version="1.0" encoding="utf-8"?>
<svg xmlns="http://www.w3.org/2000/svg" xmlns:xlink="http://www.w3.org/1999/xlink" width="600" height="400" viewBox="0 0 2400 1600">
<defs>
  <clipPath id="clip260">
    <rect x="0" y="0" width="2400" height="1600"/>
  </clipPath>
</defs>
<path clip-path="url(#clip260)" d="M0 1600 L2400 1600 L2400 0 L0 0  Z" fill="#ffffff" fill-rule="evenodd" fill-opacity="1"/>
<defs>
  <clipPath id="clip261">
    <rect x="256" y="123" width="2098" height="1301"/>
  </clipPath>
</defs>
<path clip-path="url(#clip260)" d="M256.209 1423.18 L2352.76 1423.18 L2352.76 123.472 L256.209 123.472  Z" fill="#ffffff" fill-rule="evenodd" fill-opacity="1"/>
<polyline clip-path="url(#clip261)" style="stroke:#000000; stroke-linecap:round; stroke-linejoin:round; stroke-width:2; stroke-opacity:0.1; fill:none" points="315.545,1423.18 315.545,123.472 "/>
<polyline clip-path="url(#clip261)" style="stroke:#000000; stroke-linecap:round; stroke-linejoin:round; stroke-width:2; stroke-opacity:0.1; fill:none" points="447.403,1423.18 447.403,123.472 "/>
<polyline clip-path="url(#clip261)" style="stroke:#000000; stroke-linecap:round; stroke-linejoin:round; stroke-width:2; stroke-opacity:0.1; fill:none" points="579.262,1423.18 579.262,123.472 "/>
<polyline clip-path="url(#clip261)" style="stroke:#000000; stroke-linecap:round; stroke-linejoin:round; stroke-width:2; stroke-opacity:0.1; fill:none" points="711.12,1423.18 711.12,123.472 "/>
<polyline clip-path="url(#clip261)" style="stroke:#000000; stroke-linecap:round; stroke-linejoin:round; stroke-width:2; stroke-opacity:0.1; fill:none" points="842.978,1423.18 842.978,123.472 "/>
<polyline clip-path="url(#clip261)" style="stroke:#000000; stroke-linecap:round; stroke-linejoin:round; stroke-width:2; stroke-opacity:0.1; fill:none" points="974.836,1423.18 974.836,123.472 "/>
<polyline clip-path="url(#clip261)" style="stroke:#000000; stroke-linecap:round; stroke-linejoin:round; stroke-width:2; stroke-opacity:0.1; fill:none" points="1106.69,1423.18 1106.69,123.472 "/>
<polyline clip-path="url(#clip261)" style="stroke:#000000; stroke-linecap:round; stroke-linejoin:round; stroke-width:2; stroke-opacity:0.1; fill:none" points="1238.55,1423.18 1238.55,123.472 "/>
<polyline clip-path="url(#clip261)" style="stroke:#000000; stroke-linecap:round; stroke-linejoin:round; stroke-width:2; stroke-opacity:0.1; fill:none" points="1370.41,1423.18 1370.41,123.472 "/>
<polyline clip-path="url(#clip261)" style="stroke:#000000; stroke-linecap:round; stroke-linejoin:round; stroke-width:2; stroke-opacity:0.1; fill:none" points="1502.27,1423.18 1502.27,123.472 "/>
<polyline clip-path="url(#clip261)" style="stroke:#000000; stroke-linecap:round; stroke-linejoin:round; stroke-width:2; stroke-opacity:0.1; fill:none" points="1634.13,1423.18 1634.13,123.472 "/>
<polyline clip-path="url(#clip261)" style="stroke:#000000; stroke-linecap:round; stroke-linejoin:round; stroke-width:2; stroke-opacity:0.1; fill:none" points="1765.99,1423.18 1765.99,123.472 "/>
<polyline clip-path="url(#clip261)" style="stroke:#000000; stroke-linecap:round; stroke-linejoin:round; stroke-width:2; stroke-opacity:0.1; fill:none" points="1897.84,1423.18 1897.84,123.472 "/>
<polyline clip-path="url(#clip261)" style="stroke:#000000; stroke-linecap:round; stroke-linejoin:round; stroke-width:2; stroke-opacity:0.1; fill:none" points="2029.7,1423.18 2029.7,123.472 "/>
<polyline clip-path="url(#clip261)" style="stroke:#000000; stroke-linecap:round; stroke-linejoin:round; stroke-width:2; stroke-opacity:0.1; fill:none" points="2161.56,1423.18 2161.56,123.472 "/>
<polyline clip-path="url(#clip261)" style="stroke:#000000; stroke-linecap:round; stroke-linejoin:round; stroke-width:2; stroke-opacity:0.1; fill:none" points="256.209,1386.4 2352.76,1386.4 "/>
<polyline clip-path="url(#clip261)" style="stroke:#000000; stroke-linecap:round; stroke-linejoin:round; stroke-width:2; stroke-opacity:0.1; fill:none" points="256.209,773.326 2352.76,773.326 "/>
<polyline clip-path="url(#clip261)" style="stroke:#000000; stroke-linecap:round; stroke-linejoin:round; stroke-width:2; stroke-opacity:0.1; fill:none" points="256.209,160.256 2352.76,160.256 "/>
<polyline clip-path="url(#clip260)" style="stroke:#000000; stroke-linecap:round; stroke-linejoin:round; stroke-width:4; stroke-opacity:1; fill:none" points="256.209,1423.18 2352.76,1423.18 "/>
<polyline clip-path="url(#clip260)" style="stroke:#000000; stroke-linecap:round; stroke-linejoin:round; stroke-width:4; stroke-opacity:1; fill:none" points="315.545,1423.18 315.545,1404.28 "/>
<polyline clip-path="url(#clip260)" style="stroke:#000000; stroke-linecap:round; stroke-linejoin:round; stroke-width:4; stroke-opacity:1; fill:none" points="447.403,1423.18 447.403,1404.28 "/>
<polyline clip-path="url(#clip260)" style="stroke:#000000; stroke-linecap:round; stroke-linejoin:round; stroke-width:4; stroke-opacity:1; fill:none" points="579.262,1423.18 579.262,1404.28 "/>
<polyline clip-path="url(#clip260)" style="stroke:#000000; stroke-linecap:round; stroke-linejoin:round; stroke-width:4; stroke-opacity:1; fill:none" points="711.12,1423.18 711.12,1404.28 "/>
<polyline clip-path="url(#clip260)" style="stroke:#000000; stroke-linecap:round; stroke-linejoin:round; stroke-width:4; stroke-opacity:1; fill:none" points="842.978,1423.18 842.978,1404.28 "/>
<polyline clip-path="url(#clip260)" style="stroke:#000000; stroke-linecap:round; stroke-linejoin:round; stroke-width:4; stroke-opacity:1; fill:none" points="974.836,1423.18 974.836,1404.28 "/>
<polyline clip-path="url(#clip260)" style="stroke:#000000; stroke-linecap:round; stroke-linejoin:round; stroke-width:4; stroke-opacity:1; fill:none" points="1106.69,1423.18 1106.69,1404.28 "/>
<polyline clip-path="url(#clip260)" style="stroke:#000000; stroke-linecap:round; stroke-linejoin:round; stroke-width:4; stroke-opacity:1; fill:none" points="1238.55,1423.18 1238.55,1404.28 "/>
<polyline clip-path="url(#clip260)" style="stroke:#000000; stroke-linecap:round; stroke-linejoin:round; stroke-width:4; stroke-opacity:1; fill:none" points="1370.41,1423.18 1370.41,1404.28 "/>
<polyline clip-path="url(#clip260)" style="stroke:#000000; stroke-linecap:round; stroke-linejoin:round; stroke-width:4; stroke-opacity:1; fill:none" points="1502.27,1423.18 1502.27,1404.28 "/>
<polyline clip-path="url(#clip260)" style="stroke:#000000; stroke-linecap:round; stroke-linejoin:round; stroke-width:4; stroke-opacity:1; fill:none" points="1634.13,1423.18 1634.13,1404.28 "/>
<polyline clip-path="url(#clip260)" style="stroke:#000000; stroke-linecap:round; stroke-linejoin:round; stroke-width:4; stroke-opacity:1; fill:none" points="1765.99,1423.18 1765.99,1404.28 "/>
<polyline clip-path="url(#clip260)" style="stroke:#000000; stroke-linecap:round; stroke-linejoin:round; stroke-width:4; stroke-opacity:1; fill:none" points="1897.84,1423.18 1897.84,1404.28 "/>
<polyline clip-path="url(#clip260)" style="stroke:#000000; stroke-linecap:round; stroke-linejoin:round; stroke-width:4; stroke-opacity:1; fill:none" points="2029.7,1423.18 2029.7,1404.28 "/>
<polyline clip-path="url(#clip260)" style="stroke:#000000; stroke-linecap:round; stroke-linejoin:round; stroke-width:4; stroke-opacity:1; fill:none" points="2161.56,1423.18 2161.56,1404.28 "/>
<path clip-path="url(#clip260)" d="M305.927 1481.64 L313.566 1481.64 L313.566 1455.28 L305.256 1456.95 L305.256 1452.69 L313.519 1451.02 L318.195 1451.02 L318.195 1481.64 L325.834 1481.64 L325.834 1485.58 L305.927 1485.58 L305.927 1481.64 Z" fill="#000000" fill-rule="nonzero" fill-opacity="1" /><path clip-path="url(#clip260)" d="M442.056 1481.64 L458.375 1481.64 L458.375 1485.58 L436.431 1485.58 L436.431 1481.64 Q439.093 1478.89 443.676 1474.26 Q448.283 1469.61 449.463 1468.27 Q451.709 1465.74 452.588 1464.01 Q453.491 1462.25 453.491 1460.56 Q453.491 1457.8 451.547 1456.07 Q449.625 1454.33 446.524 1454.33 Q444.325 1454.33 441.871 1455.09 Q439.44 1455.86 436.663 1457.41 L436.663 1452.69 Q439.487 1451.55 441.94 1450.97 Q444.394 1450.39 446.431 1450.39 Q451.801 1450.39 454.996 1453.08 Q458.19 1455.77 458.19 1460.26 Q458.19 1462.39 457.38 1464.31 Q456.593 1466.2 454.487 1468.8 Q453.908 1469.47 450.806 1472.69 Q447.704 1475.88 442.056 1481.64 Z" fill="#000000" fill-rule="nonzero" fill-opacity="1" /><path clip-path="url(#clip260)" d="M583.509 1466.95 Q586.866 1467.66 588.741 1469.93 Q590.639 1472.2 590.639 1475.53 Q590.639 1480.65 587.12 1483.45 Q583.602 1486.25 577.12 1486.25 Q574.944 1486.25 572.63 1485.81 Q570.338 1485.39 567.884 1484.54 L567.884 1480.02 Q569.829 1481.16 572.144 1481.74 Q574.458 1482.32 576.981 1482.32 Q581.38 1482.32 583.671 1480.58 Q585.986 1478.84 585.986 1475.53 Q585.986 1472.48 583.833 1470.77 Q581.704 1469.03 577.884 1469.03 L573.856 1469.03 L573.856 1465.19 L578.069 1465.19 Q581.518 1465.19 583.347 1463.82 Q585.176 1462.43 585.176 1459.84 Q585.176 1457.18 583.278 1455.77 Q581.403 1454.33 577.884 1454.33 Q575.963 1454.33 573.764 1454.75 Q571.565 1455.16 568.926 1456.04 L568.926 1451.88 Q571.588 1451.14 573.903 1450.77 Q576.241 1450.39 578.301 1450.39 Q583.625 1450.39 586.727 1452.83 Q589.829 1455.23 589.829 1459.35 Q589.829 1462.22 588.185 1464.21 Q586.542 1466.18 583.509 1466.95 Z" fill="#000000" fill-rule="nonzero" fill-opacity="1" /><path clip-path="url(#clip260)" d="M714.129 1455.09 L702.324 1473.54 L714.129 1473.54 L714.129 1455.09 M712.902 1451.02 L718.782 1451.02 L718.782 1473.54 L723.712 1473.54 L723.712 1477.43 L718.782 1477.43 L718.782 1485.58 L714.129 1485.58 L714.129 1477.43 L698.527 1477.43 L698.527 1472.92 L712.902 1451.02 Z" fill="#000000" fill-rule="nonzero" fill-opacity="1" /><path clip-path="url(#clip260)" d="M833.256 1451.02 L851.612 1451.02 L851.612 1454.96 L837.538 1454.96 L837.538 1463.43 Q838.557 1463.08 839.575 1462.92 Q840.594 1462.73 841.612 1462.73 Q847.399 1462.73 850.779 1465.9 Q854.159 1469.08 854.159 1474.49 Q854.159 1480.07 850.686 1483.17 Q847.214 1486.25 840.895 1486.25 Q838.719 1486.25 836.45 1485.88 Q834.205 1485.51 831.798 1484.77 L831.798 1480.07 Q833.881 1481.2 836.103 1481.76 Q838.325 1482.32 840.802 1482.32 Q844.807 1482.32 847.145 1480.21 Q849.483 1478.1 849.483 1474.49 Q849.483 1470.88 847.145 1468.77 Q844.807 1466.67 840.802 1466.67 Q838.927 1466.67 837.052 1467.08 Q835.2 1467.5 833.256 1468.38 L833.256 1451.02 Z" fill="#000000" fill-rule="nonzero" fill-opacity="1" /><path clip-path="url(#clip260)" d="M975.242 1466.44 Q972.093 1466.44 970.242 1468.59 Q968.413 1470.74 968.413 1474.49 Q968.413 1478.22 970.242 1480.39 Q972.093 1482.55 975.242 1482.55 Q978.39 1482.55 980.218 1480.39 Q982.07 1478.22 982.07 1474.49 Q982.07 1470.74 980.218 1468.59 Q978.39 1466.44 975.242 1466.44 M984.524 1451.78 L984.524 1456.04 Q982.765 1455.21 980.959 1454.77 Q979.177 1454.33 977.417 1454.33 Q972.788 1454.33 970.334 1457.45 Q967.904 1460.58 967.556 1466.9 Q968.922 1464.89 970.982 1463.82 Q973.043 1462.73 975.519 1462.73 Q980.728 1462.73 983.737 1465.9 Q986.769 1469.05 986.769 1474.49 Q986.769 1479.82 983.621 1483.03 Q980.473 1486.25 975.242 1486.25 Q969.246 1486.25 966.075 1481.67 Q962.904 1477.06 962.904 1468.33 Q962.904 1460.14 966.793 1455.28 Q970.681 1450.39 977.232 1450.39 Q978.992 1450.39 980.774 1450.74 Q982.58 1451.09 984.524 1451.78 Z" fill="#000000" fill-rule="nonzero" fill-opacity="1" /><path clip-path="url(#clip260)" d="M1095.58 1451.02 L1117.81 1451.02 L1117.81 1453.01 L1105.26 1485.58 L1100.38 1485.58 L1112.18 1454.96 L1095.58 1454.96 L1095.58 1451.02 Z" fill="#000000" fill-rule="nonzero" fill-opacity="1" /><path clip-path="url(#clip260)" d="M1238.55 1469.17 Q1235.22 1469.17 1233.3 1470.95 Q1231.4 1472.73 1231.4 1475.86 Q1231.4 1478.98 1233.3 1480.77 Q1235.22 1482.55 1238.55 1482.55 Q1241.89 1482.55 1243.81 1480.77 Q1245.73 1478.96 1245.73 1475.86 Q1245.73 1472.73 1243.81 1470.95 Q1241.91 1469.17 1238.55 1469.17 M1233.88 1467.18 Q1230.87 1466.44 1229.18 1464.38 Q1227.51 1462.32 1227.51 1459.35 Q1227.51 1455.21 1230.45 1452.8 Q1233.41 1450.39 1238.55 1450.39 Q1243.72 1450.39 1246.65 1452.8 Q1249.59 1455.21 1249.59 1459.35 Q1249.59 1462.32 1247.9 1464.38 Q1246.24 1466.44 1243.25 1467.18 Q1246.63 1467.96 1248.51 1470.26 Q1250.4 1472.55 1250.4 1475.86 Q1250.4 1480.88 1247.33 1483.57 Q1244.27 1486.25 1238.55 1486.25 Q1232.84 1486.25 1229.76 1483.57 Q1226.7 1480.88 1226.7 1475.86 Q1226.7 1472.55 1228.6 1470.26 Q1230.5 1467.96 1233.88 1467.18 M1232.16 1459.79 Q1232.16 1462.48 1233.83 1463.98 Q1235.52 1465.49 1238.55 1465.49 Q1241.56 1465.49 1243.25 1463.98 Q1244.97 1462.48 1244.97 1459.79 Q1244.97 1457.11 1243.25 1455.6 Q1241.56 1454.1 1238.55 1454.1 Q1235.52 1454.1 1233.83 1455.6 Q1232.16 1457.11 1232.16 1459.79 Z" fill="#000000" fill-rule="nonzero" fill-opacity="1" /><path clip-path="url(#clip260)" d="M1360.71 1484.86 L1360.71 1480.6 Q1362.47 1481.44 1364.28 1481.88 Q1366.08 1482.32 1367.82 1482.32 Q1372.45 1482.32 1374.88 1479.21 Q1377.33 1476.09 1377.68 1469.75 Q1376.34 1471.74 1374.28 1472.8 Q1372.22 1473.87 1369.72 1473.87 Q1364.53 1473.87 1361.5 1470.74 Q1358.49 1467.59 1358.49 1462.15 Q1358.49 1456.83 1361.64 1453.61 Q1364.79 1450.39 1370.02 1450.39 Q1376.01 1450.39 1379.16 1455 Q1382.33 1459.58 1382.33 1468.33 Q1382.33 1476.51 1378.44 1481.39 Q1374.58 1486.25 1368.03 1486.25 Q1366.27 1486.25 1364.46 1485.9 Q1362.66 1485.56 1360.71 1484.86 M1370.02 1470.21 Q1373.17 1470.21 1374.99 1468.06 Q1376.85 1465.9 1376.85 1462.15 Q1376.85 1458.43 1374.99 1456.27 Q1373.17 1454.1 1370.02 1454.1 Q1366.87 1454.1 1365.02 1456.27 Q1363.19 1458.43 1363.19 1462.15 Q1363.19 1465.9 1365.02 1468.06 Q1366.87 1470.21 1370.02 1470.21 Z" fill="#000000" fill-rule="nonzero" fill-opacity="1" /><path clip-path="url(#clip260)" d="M1476.96 1481.64 L1484.6 1481.64 L1484.6 1455.28 L1476.29 1456.95 L1476.29 1452.69 L1484.55 1451.02 L1489.23 1451.02 L1489.23 1481.64 L1496.86 1481.64 L1496.86 1485.58 L1476.96 1485.58 L1476.96 1481.64 Z" fill="#000000" fill-rule="nonzero" fill-opacity="1" /><path clip-path="url(#clip260)" d="M1516.31 1454.1 Q1512.7 1454.1 1510.87 1457.66 Q1509.06 1461.2 1509.06 1468.33 Q1509.06 1475.44 1510.87 1479.01 Q1512.7 1482.55 1516.31 1482.55 Q1519.94 1482.55 1521.75 1479.01 Q1523.58 1475.44 1523.58 1468.33 Q1523.58 1461.2 1521.75 1457.66 Q1519.94 1454.1 1516.31 1454.1 M1516.31 1450.39 Q1522.12 1450.39 1525.17 1455 Q1528.25 1459.58 1528.25 1468.33 Q1528.25 1477.06 1525.17 1481.67 Q1522.12 1486.25 1516.31 1486.25 Q1510.5 1486.25 1507.42 1481.67 Q1504.36 1477.06 1504.36 1468.33 Q1504.36 1459.58 1507.42 1455 Q1510.5 1450.39 1516.31 1450.39 Z" fill="#000000" fill-rule="nonzero" fill-opacity="1" /><path clip-path="url(#clip260)" d="M1609.43 1481.64 L1617.07 1481.64 L1617.07 1455.28 L1608.76 1456.95 L1608.76 1452.69 L1617.02 1451.02 L1621.7 1451.02 L1621.7 1481.64 L1629.34 1481.64 L1629.34 1485.58 L1609.43 1485.58 L1609.43 1481.64 Z" fill="#000000" fill-rule="nonzero" fill-opacity="1" /><path clip-path="url(#clip260)" d="M1639.59 1481.64 L1647.23 1481.64 L1647.23 1455.28 L1638.92 1456.95 L1638.92 1452.69 L1647.18 1451.02 L1651.86 1451.02 L1651.86 1481.64 L1659.5 1481.64 L1659.5 1485.58 L1639.59 1485.58 L1639.59 1481.64 Z" fill="#000000" fill-rule="nonzero" fill-opacity="1" /><path clip-path="url(#clip260)" d="M1741.47 1481.64 L1749.11 1481.64 L1749.11 1455.28 L1740.8 1456.95 L1740.8 1452.69 L1749.07 1451.02 L1753.74 1451.02 L1753.74 1481.64 L1761.38 1481.64 L1761.38 1485.58 L1741.47 1485.58 L1741.47 1481.64 Z" fill="#000000" fill-rule="nonzero" fill-opacity="1" /><path clip-path="url(#clip260)" d="M1774.85 1481.64 L1791.17 1481.64 L1791.17 1485.58 L1769.23 1485.58 L1769.23 1481.64 Q1771.89 1478.89 1776.47 1474.26 Q1781.08 1469.61 1782.26 1468.27 Q1784.5 1465.74 1785.38 1464.01 Q1786.29 1462.25 1786.29 1460.56 Q1786.29 1457.8 1784.34 1456.07 Q1782.42 1454.33 1779.32 1454.33 Q1777.12 1454.33 1774.67 1455.09 Q1772.24 1455.86 1769.46 1457.41 L1769.46 1452.69 Q1772.28 1451.55 1774.74 1450.97 Q1777.19 1450.39 1779.23 1450.39 Q1784.6 1450.39 1787.79 1453.08 Q1790.99 1455.77 1790.99 1460.26 Q1790.99 1462.39 1790.18 1464.31 Q1789.39 1466.2 1787.28 1468.8 Q1786.7 1469.47 1783.6 1472.69 Q1780.5 1475.88 1774.85 1481.64 Z" fill="#000000" fill-rule="nonzero" fill-opacity="1" /><path clip-path="url(#clip260)" d="M1872.86 1481.64 L1880.5 1481.64 L1880.5 1455.28 L1872.19 1456.95 L1872.19 1452.69 L1880.45 1451.02 L1885.12 1451.02 L1885.12 1481.64 L1892.76 1481.64 L1892.76 1485.58 L1872.86 1485.58 L1872.86 1481.64 Z" fill="#000000" fill-rule="nonzero" fill-opacity="1" /><path clip-path="url(#clip260)" d="M1916.37 1466.95 Q1919.73 1467.66 1921.61 1469.93 Q1923.5 1472.2 1923.5 1475.53 Q1923.5 1480.65 1919.99 1483.45 Q1916.47 1486.25 1909.99 1486.25 Q1907.81 1486.25 1905.5 1485.81 Q1903.2 1485.39 1900.75 1484.54 L1900.75 1480.02 Q1902.69 1481.16 1905.01 1481.74 Q1907.32 1482.32 1909.85 1482.32 Q1914.25 1482.32 1916.54 1480.58 Q1918.85 1478.84 1918.85 1475.53 Q1918.85 1472.48 1916.7 1470.77 Q1914.57 1469.03 1910.75 1469.03 L1906.72 1469.03 L1906.72 1465.19 L1910.93 1465.19 Q1914.38 1465.19 1916.21 1463.82 Q1918.04 1462.43 1918.04 1459.84 Q1918.04 1457.18 1916.14 1455.77 Q1914.27 1454.33 1910.75 1454.33 Q1908.83 1454.33 1906.63 1454.75 Q1904.43 1455.16 1901.79 1456.04 L1901.79 1451.88 Q1904.45 1451.14 1906.77 1450.77 Q1909.11 1450.39 1911.17 1450.39 Q1916.49 1450.39 1919.59 1452.83 Q1922.69 1455.23 1922.69 1459.35 Q1922.69 1462.22 1921.05 1464.21 Q1919.41 1466.18 1916.37 1466.95 Z" fill="#000000" fill-rule="nonzero" fill-opacity="1" /><path clip-path="url(#clip260)" d="M2004.15 1481.64 L2011.79 1481.64 L2011.79 1455.28 L2003.48 1456.95 L2003.48 1452.69 L2011.74 1451.02 L2016.42 1451.02 L2016.42 1481.64 L2024.05 1481.64 L2024.05 1485.58 L2004.15 1485.58 L2004.15 1481.64 Z" fill="#000000" fill-rule="nonzero" fill-opacity="1" /><path clip-path="url(#clip260)" d="M2046.35 1455.09 L2034.54 1473.54 L2046.35 1473.54 L2046.35 1455.09 M2045.12 1451.02 L2051 1451.02 L2051 1473.54 L2055.93 1473.54 L2055.93 1477.43 L2051 1477.43 L2051 1485.58 L2046.35 1485.58 L2046.35 1477.43 L2030.74 1477.43 L2030.74 1472.92 L2045.12 1451.02 Z" fill="#000000" fill-rule="nonzero" fill-opacity="1" /><path clip-path="url(#clip260)" d="M2136.75 1481.64 L2144.39 1481.64 L2144.39 1455.28 L2136.08 1456.95 L2136.08 1452.69 L2144.34 1451.02 L2149.02 1451.02 L2149.02 1481.64 L2156.65 1481.64 L2156.65 1485.58 L2136.75 1485.58 L2136.75 1481.64 Z" fill="#000000" fill-rule="nonzero" fill-opacity="1" /><path clip-path="url(#clip260)" d="M2166.14 1451.02 L2184.5 1451.02 L2184.5 1454.96 L2170.43 1454.96 L2170.43 1463.43 Q2171.45 1463.08 2172.46 1462.92 Q2173.48 1462.73 2174.5 1462.73 Q2180.29 1462.73 2183.67 1465.9 Q2187.05 1469.08 2187.05 1474.49 Q2187.05 1480.07 2183.58 1483.17 Q2180.1 1486.25 2173.78 1486.25 Q2171.61 1486.25 2169.34 1485.88 Q2167.09 1485.51 2164.69 1484.77 L2164.69 1480.07 Q2166.77 1481.2 2168.99 1481.76 Q2171.21 1482.32 2173.69 1482.32 Q2177.7 1482.32 2180.03 1480.21 Q2182.37 1478.1 2182.37 1474.49 Q2182.37 1470.88 2180.03 1468.77 Q2177.7 1466.67 2173.69 1466.67 Q2171.82 1466.67 2169.94 1467.08 Q2168.09 1467.5 2166.14 1468.38 L2166.14 1451.02 Z" fill="#000000" fill-rule="nonzero" fill-opacity="1" /><path clip-path="url(#clip260)" d="M1310.07 1519.53 Q1310.07 1520.95 1308.91 1522.01 Q1307.78 1523.05 1306.56 1523.05 Q1305.43 1523.05 1304.72 1522.37 Q1304.04 1521.66 1304.04 1520.66 Q1304.04 1519.34 1305.17 1518.25 Q1306.3 1517.15 1307.62 1517.15 Q1308.71 1517.15 1309.39 1517.83 Q1310.07 1518.5 1310.07 1519.53 M1310.65 1551.32 Q1310.65 1551.58 1310.36 1552.61 Q1310.07 1553.61 1309.36 1555.15 Q1308.68 1556.67 1307.75 1558.09 Q1306.81 1559.5 1305.27 1560.5 Q1303.75 1561.5 1302.01 1561.5 Q1299.66 1561.5 1298.12 1559.95 Q1296.6 1558.41 1296.6 1556.09 Q1296.6 1554.83 1298.12 1550.81 Q1302.5 1539.08 1302.66 1538.6 Q1303.4 1536.77 1303.4 1535.15 Q1303.4 1534.41 1303.24 1533.96 Q1303.08 1533.48 1302.76 1533.32 Q1302.43 1533.13 1302.24 1533.09 Q1302.08 1533.06 1301.76 1533.06 Q1299.86 1533.06 1298.09 1534.99 Q1296.31 1536.93 1295.09 1541.24 Q1294.83 1542.05 1294.67 1542.24 Q1294.51 1542.43 1294.03 1542.43 Q1293.22 1542.4 1293.22 1541.76 Q1293.22 1541.56 1293.45 1540.82 Q1293.67 1540.05 1294.09 1538.89 Q1294.51 1537.7 1295.25 1536.48 Q1295.99 1535.22 1296.89 1534.12 Q1297.83 1533.03 1299.15 1532.32 Q1300.47 1531.61 1301.95 1531.61 Q1304.37 1531.61 1305.85 1533.19 Q1307.36 1534.74 1307.36 1537.02 Q1307.36 1538.28 1306.49 1540.5 Q1305.43 1543.4 1305.04 1544.33 L1302.47 1551.26 Q1301.53 1553.77 1301.24 1554.54 Q1300.98 1555.28 1300.76 1556.19 Q1300.57 1557.05 1300.57 1557.86 Q1300.57 1558.99 1300.92 1559.5 Q1301.31 1560.02 1302.14 1560.02 Q1304.46 1560.02 1306.17 1557.73 Q1307.88 1555.41 1308.87 1551.87 Q1308.91 1551.77 1308.94 1551.61 Q1309.2 1550.81 1309.45 1550.71 Q1309.58 1550.68 1309.84 1550.68 Q1310.65 1550.68 1310.65 1551.32 Z" fill="#000000" fill-rule="nonzero" fill-opacity="1" /><polyline clip-path="url(#clip260)" style="stroke:#000000; stroke-linecap:round; stroke-linejoin:round; stroke-width:4; stroke-opacity:1; fill:none" points="256.209,1423.18 256.209,123.472 "/>
<polyline clip-path="url(#clip260)" style="stroke:#000000; stroke-linecap:round; stroke-linejoin:round; stroke-width:4; stroke-opacity:1; fill:none" points="256.209,1386.4 275.106,1386.4 "/>
<polyline clip-path="url(#clip260)" style="stroke:#000000; stroke-linecap:round; stroke-linejoin:round; stroke-width:4; stroke-opacity:1; fill:none" points="256.209,773.326 275.106,773.326 "/>
<polyline clip-path="url(#clip260)" style="stroke:#000000; stroke-linecap:round; stroke-linejoin:round; stroke-width:4; stroke-opacity:1; fill:none" points="256.209,160.256 275.106,160.256 "/>
<path clip-path="url(#clip260)" d="M114.26 1386.85 L143.936 1386.85 L143.936 1390.78 L114.26 1390.78 L114.26 1386.85 Z" fill="#000000" fill-rule="nonzero" fill-opacity="1" /><path clip-path="url(#clip260)" d="M164.028 1372.19 Q160.417 1372.19 158.589 1375.76 Q156.783 1379.3 156.783 1386.43 Q156.783 1393.54 158.589 1397.1 Q160.417 1400.64 164.028 1400.64 Q167.663 1400.64 169.468 1397.1 Q171.297 1393.54 171.297 1386.43 Q171.297 1379.3 169.468 1375.76 Q167.663 1372.19 164.028 1372.19 M164.028 1368.49 Q169.839 1368.49 172.894 1373.1 Q175.973 1377.68 175.973 1386.43 Q175.973 1395.16 172.894 1399.76 Q169.839 1404.35 164.028 1404.35 Q158.218 1404.35 155.14 1399.76 Q152.084 1395.16 152.084 1386.43 Q152.084 1377.68 155.14 1373.1 Q158.218 1368.49 164.028 1368.49 Z" fill="#000000" fill-rule="nonzero" fill-opacity="1" /><path clip-path="url(#clip260)" d="M184.19 1397.8 L189.075 1397.8 L189.075 1403.68 L184.19 1403.68 L184.19 1397.8 Z" fill="#000000" fill-rule="nonzero" fill-opacity="1" /><path clip-path="url(#clip260)" d="M199.306 1369.12 L217.662 1369.12 L217.662 1373.05 L203.588 1373.05 L203.588 1381.52 Q204.607 1381.18 205.625 1381.01 Q206.644 1380.83 207.662 1380.83 Q213.449 1380.83 216.829 1384 Q220.209 1387.17 220.209 1392.59 Q220.209 1398.17 216.736 1401.27 Q213.264 1404.35 206.945 1404.35 Q204.769 1404.35 202.5 1403.98 Q200.255 1403.61 197.848 1402.87 L197.848 1398.17 Q199.931 1399.3 202.153 1399.86 Q204.375 1400.41 206.852 1400.41 Q210.857 1400.41 213.195 1398.31 Q215.533 1396.2 215.533 1392.59 Q215.533 1388.98 213.195 1386.87 Q210.857 1384.76 206.852 1384.76 Q204.977 1384.76 203.102 1385.18 Q201.25 1385.6 199.306 1386.48 L199.306 1369.12 Z" fill="#000000" fill-rule="nonzero" fill-opacity="1" /><path clip-path="url(#clip260)" d="M163.033 759.125 Q159.422 759.125 157.593 762.689 Q155.788 766.231 155.788 773.361 Q155.788 780.467 157.593 784.032 Q159.422 787.574 163.033 787.574 Q166.667 787.574 168.473 784.032 Q170.302 780.467 170.302 773.361 Q170.302 766.231 168.473 762.689 Q166.667 759.125 163.033 759.125 M163.033 755.421 Q168.843 755.421 171.899 760.027 Q174.977 764.611 174.977 773.361 Q174.977 782.088 171.899 786.694 Q168.843 791.277 163.033 791.277 Q157.223 791.277 154.144 786.694 Q151.089 782.088 151.089 773.361 Q151.089 764.611 154.144 760.027 Q157.223 755.421 163.033 755.421 Z" fill="#000000" fill-rule="nonzero" fill-opacity="1" /><path clip-path="url(#clip260)" d="M183.195 784.726 L188.079 784.726 L188.079 790.606 L183.195 790.606 L183.195 784.726 Z" fill="#000000" fill-rule="nonzero" fill-opacity="1" /><path clip-path="url(#clip260)" d="M208.264 759.125 Q204.653 759.125 202.824 762.689 Q201.019 766.231 201.019 773.361 Q201.019 780.467 202.824 784.032 Q204.653 787.574 208.264 787.574 Q211.899 787.574 213.704 784.032 Q215.533 780.467 215.533 773.361 Q215.533 766.231 213.704 762.689 Q211.899 759.125 208.264 759.125 M208.264 755.421 Q214.074 755.421 217.13 760.027 Q220.209 764.611 220.209 773.361 Q220.209 782.088 217.13 786.694 Q214.074 791.277 208.264 791.277 Q202.454 791.277 199.375 786.694 Q196.32 782.088 196.32 773.361 Q196.32 764.611 199.375 760.027 Q202.454 755.421 208.264 755.421 Z" fill="#000000" fill-rule="nonzero" fill-opacity="1" /><path clip-path="url(#clip260)" d="M164.028 146.055 Q160.417 146.055 158.589 149.62 Q156.783 153.161 156.783 160.291 Q156.783 167.397 158.589 170.962 Q160.417 174.504 164.028 174.504 Q167.663 174.504 169.468 170.962 Q171.297 167.397 171.297 160.291 Q171.297 153.161 169.468 149.62 Q167.663 146.055 164.028 146.055 M164.028 142.351 Q169.839 142.351 172.894 146.958 Q175.973 151.541 175.973 160.291 Q175.973 169.018 172.894 173.624 Q169.839 178.208 164.028 178.208 Q158.218 178.208 155.14 173.624 Q152.084 169.018 152.084 160.291 Q152.084 151.541 155.14 146.958 Q158.218 142.351 164.028 142.351 Z" fill="#000000" fill-rule="nonzero" fill-opacity="1" /><path clip-path="url(#clip260)" d="M184.19 171.657 L189.075 171.657 L189.075 177.536 L184.19 177.536 L184.19 171.657 Z" fill="#000000" fill-rule="nonzero" fill-opacity="1" /><path clip-path="url(#clip260)" d="M199.306 142.976 L217.662 142.976 L217.662 146.911 L203.588 146.911 L203.588 155.384 Q204.607 155.036 205.625 154.874 Q206.644 154.689 207.662 154.689 Q213.449 154.689 216.829 157.86 Q220.209 161.032 220.209 166.448 Q220.209 172.027 216.736 175.129 Q213.264 178.208 206.945 178.208 Q204.769 178.208 202.5 177.837 Q200.255 177.467 197.848 176.726 L197.848 172.027 Q199.931 173.161 202.153 173.717 Q204.375 174.272 206.852 174.272 Q210.857 174.272 213.195 172.166 Q215.533 170.059 215.533 166.448 Q215.533 162.837 213.195 160.731 Q210.857 158.624 206.852 158.624 Q204.977 158.624 203.102 159.041 Q201.25 159.458 199.306 160.337 L199.306 142.976 Z" fill="#000000" fill-rule="nonzero" fill-opacity="1" /><path clip-path="url(#clip260)" d="M54.8032 798.612 Q58.9578 799.449 61.341 800.577 Q64.9803 802.412 64.9803 805.472 Q64.9803 807.597 63.7887 809.208 Q62.5649 810.786 60.5359 811.333 Q61.341 811.945 61.8885 812.493 Q62.436 813.008 63.2734 814.006 Q64.0785 815.005 64.5294 816.357 Q64.9803 817.678 64.9803 819.192 Q64.9803 820.351 64.7549 821.414 Q64.5616 822.477 64.0141 823.604 Q63.4344 824.699 62.5649 825.504 Q61.6953 826.277 60.2782 826.792 Q58.8612 827.307 57.0577 827.307 Q54.8032 827.307 51.7437 826.438 Q48.6841 825.536 43.2091 823.475 Q40.3106 822.348 38.7003 822.348 Q37.9596 822.348 37.4765 822.509 Q36.9934 822.67 36.8324 822.992 Q36.6391 823.282 36.6069 823.475 Q36.5425 823.668 36.5425 823.99 Q36.5425 825.987 38.5715 827.726 Q40.6005 829.465 44.7228 830.657 Q45.528 830.915 45.7212 831.076 Q45.9144 831.237 45.9144 831.72 Q45.8822 832.525 45.2381 832.525 Q44.9805 832.525 43.9821 832.235 Q42.9515 831.945 41.4378 831.269 Q39.8919 830.56 38.5071 829.594 Q37.09 828.628 36.0916 827.114 Q35.0933 825.568 35.0933 823.797 Q35.0933 821.382 36.6713 819.9 Q38.2172 818.386 40.5038 818.386 Q41.9209 818.386 44.6584 819.514 Q54.1591 823.088 58.1205 823.088 Q63.4988 823.088 63.4988 818.998 Q63.4988 817.646 62.9513 816.39 Q62.4038 815.101 61.6309 814.264 Q60.8579 813.427 60.0206 812.783 Q59.1832 812.106 58.6357 811.816 Q58.0882 811.494 57.9594 811.462 L38.1206 806.535 Q37.3477 806.341 36.8324 805.987 Q36.2849 805.601 36.0916 805.15 Q35.8984 804.699 35.8662 804.441 Q35.8018 804.184 35.8018 803.958 Q35.8018 803.153 36.2849 802.606 Q36.768 802.026 37.6053 802.026 Q37.7663 802.026 38.5393 802.219 Q39.28 802.38 40.375 802.638 Q41.4378 802.895 42.0175 803.024 Q46.0755 804.055 46.4941 804.151 L53.6116 805.987 Q54.0303 806.084 55.383 806.406 Q56.7356 806.696 57.4441 806.857 Q58.1205 807.018 59.0544 807.179 Q59.9562 807.308 60.4715 807.308 Q62.0818 807.308 62.7903 806.825 Q63.4988 806.341 63.4988 805.279 Q63.4988 804.28 62.8225 803.507 Q62.114 802.702 60.7613 802.09 Q59.3765 801.478 58.2493 801.124 Q57.1221 800.77 55.3507 800.319 Q54.5778 800.158 54.3846 800.029 Q54.1591 799.868 54.1591 799.417 Q54.1591 798.612 54.8032 798.612 Z" fill="#000000" fill-rule="nonzero" fill-opacity="1" /><path clip-path="url(#clip260)" d="M75.8109 791.907 Q74.4358 791.907 73.9172 791.163 Q73.3762 790.419 73.3762 789.63 Q73.3762 788.57 74.0525 787.961 Q74.7063 787.33 75.6306 787.33 Q76.5549 787.33 77.2312 787.961 Q77.885 788.57 77.885 789.63 Q77.885 790.148 77.7948 790.419 Q79.914 789.81 81.447 787.961 Q82.98 786.09 82.98 783.633 Q82.98 780.544 79.9816 778.696 Q78.0428 777.591 73.6467 777.591 Q69.7691 777.591 67.8303 778.425 Q64.8771 779.71 64.8771 782.348 Q64.8771 786.09 68.1009 788.3 Q68.5067 788.57 68.5292 788.886 Q68.5292 789.337 68.2812 789.449 Q68.0107 789.54 67.3118 789.54 L53.6501 789.54 Q52.5454 789.54 52.5454 789.089 Q52.5454 788.908 52.6807 788.525 Q53.9657 785.617 53.9883 782.393 Q53.9883 779.079 52.6356 776.103 Q52.5003 775.878 52.5003 775.743 Q52.5003 775.292 53.0189 775.269 Q53.1992 775.269 53.7403 775.652 Q54.2588 776.013 54.9577 776.802 Q55.634 777.591 56.2878 778.606 Q56.9415 779.62 57.3924 781.108 Q57.8208 782.573 57.8208 784.197 Q57.8208 786.135 57.2121 788.119 L66.2072 788.119 Q63.8626 785.73 63.8626 782.258 Q63.8626 778.561 66.8384 776.013 Q69.8142 773.466 73.9623 773.466 Q78.3133 773.466 81.2892 776.487 Q84.265 779.485 84.265 783.543 Q84.265 787.24 81.6273 789.585 Q78.9897 791.907 75.8109 791.907 Z" fill="#000000" fill-rule="nonzero" fill-opacity="1" /><path clip-path="url(#clip260)" d="M80.729 766.612 L14.7714 766.612 L14.7714 756.66 L16.285 756.66 L16.285 762.2 L79.2153 762.2 L79.2153 756.66 L80.729 756.66 L80.729 766.612 Z" fill="#000000" fill-rule="nonzero" fill-opacity="1" /><path clip-path="url(#clip260)" d="M23.0161 738.482 Q24.4331 738.482 25.4959 739.641 Q26.5265 740.769 26.5265 741.993 Q26.5265 743.12 25.8502 743.828 Q25.1416 744.505 24.1433 744.505 Q22.8228 744.505 21.7278 743.377 Q20.6328 742.25 20.6328 740.93 Q20.6328 739.835 21.3092 739.158 Q21.9855 738.482 23.0161 738.482 M54.8032 737.902 Q55.0609 737.902 56.0915 738.192 Q57.0899 738.482 58.6357 739.191 Q60.1494 739.867 61.5665 740.801 Q62.9835 741.735 63.9819 743.281 Q64.9803 744.794 64.9803 746.534 Q64.9803 748.885 63.4344 750.43 Q61.8885 751.944 59.5697 751.944 Q58.3137 751.944 54.288 750.43 Q42.565 746.05 42.0819 745.889 Q40.2462 745.149 38.6359 745.149 Q37.8952 745.149 37.4443 745.31 Q36.9612 745.471 36.8002 745.793 Q36.6069 746.115 36.5747 746.308 Q36.5425 746.469 36.5425 746.791 Q36.5425 748.691 38.4749 750.463 Q40.4072 752.234 44.7228 753.458 Q45.528 753.715 45.7212 753.876 Q45.9144 754.038 45.9144 754.521 Q45.8822 755.326 45.2381 755.326 Q45.0449 755.326 44.3041 755.1 Q43.5312 754.875 42.3718 754.456 Q41.1802 754.038 39.9563 753.297 Q38.7003 752.556 37.6053 751.654 Q36.5103 750.72 35.8018 749.4 Q35.0933 748.079 35.0933 746.598 Q35.0933 744.183 36.6713 742.701 Q38.2172 741.187 40.5038 741.187 Q41.7599 741.187 43.9821 742.057 Q46.8806 743.12 47.8146 743.506 L54.7388 746.083 Q57.2509 747.017 58.0238 747.306 Q58.7646 747.564 59.6663 747.79 Q60.5359 747.983 61.341 747.983 Q62.4682 747.983 62.9835 747.629 Q63.4988 747.242 63.4988 746.405 Q63.4988 744.086 61.2122 742.379 Q58.8934 740.672 55.3507 739.674 Q55.2541 739.641 55.0931 739.609 Q54.288 739.352 54.1913 739.094 Q54.1591 738.965 54.1591 738.708 Q54.1591 737.902 54.8032 737.902 Z" fill="#000000" fill-rule="nonzero" fill-opacity="1" /><path clip-path="url(#clip260)" d="M79.2153 732.277 L79.2153 726.738 L16.285 726.738 L16.285 732.277 L14.7714 732.277 L14.7714 722.326 L80.729 722.326 L80.729 732.277 L79.2153 732.277 Z" fill="#000000" fill-rule="nonzero" fill-opacity="1" /><path clip-path="url(#clip260)" d="M836.927 12.096 L869.051 12.096 L869.051 18.9825 L844.421 18.9825 L844.421 33.8088 Q846.203 33.2012 847.986 32.9176 Q849.768 32.5936 851.551 32.5936 Q861.678 32.5936 867.592 38.1433 Q873.507 43.6931 873.507 53.1722 Q873.507 62.9348 867.43 68.3631 Q861.354 73.7508 850.295 73.7508 Q846.487 73.7508 842.517 73.1026 Q838.588 72.4545 834.375 71.1582 L834.375 62.9348 Q838.021 64.9198 841.91 65.892 Q845.798 66.8642 850.133 66.8642 Q857.141 66.8642 861.232 63.1779 Q865.324 59.4916 865.324 53.1722 Q865.324 46.8528 861.232 43.1664 Q857.141 39.4801 850.133 39.4801 Q846.852 39.4801 843.57 40.2093 Q840.33 40.9384 836.927 42.4778 L836.927 12.096 Z" fill="#000000" fill-rule="nonzero" fill-opacity="1" /><path clip-path="url(#clip260)" d="M895.949 14.324 L895.949 27.2059 L911.302 27.2059 L911.302 32.9987 L895.949 32.9987 L895.949 57.6282 Q895.949 63.1779 897.447 64.7578 Q898.987 66.3376 903.645 66.3376 L911.302 66.3376 L911.302 72.576 L903.645 72.576 Q895.017 72.576 891.736 69.3758 Q888.454 66.1351 888.454 57.6282 L888.454 32.9987 L882.986 32.9987 L882.986 27.2059 L888.454 27.2059 L888.454 14.324 L895.949 14.324 Z" fill="#000000" fill-rule="nonzero" fill-opacity="1" /><path clip-path="url(#clip260)" d="M958.819 45.1919 L958.819 72.576 L951.365 72.576 L951.365 45.4349 Q951.365 38.994 948.853 35.7938 Q946.342 32.5936 941.319 32.5936 Q935.283 32.5936 931.799 36.4419 Q928.315 40.2903 928.315 46.9338 L928.315 72.576 L920.821 72.576 L920.821 9.54393 L928.315 9.54393 L928.315 34.2544 Q930.989 30.163 934.594 28.1376 Q938.24 26.1121 942.98 26.1121 Q950.798 26.1121 954.808 30.9732 Q958.819 35.7938 958.819 45.1919 Z" fill="#000000" fill-rule="nonzero" fill-opacity="1" /><path clip-path="url(#clip260)" d="M1000.06 9.54393 L1007.51 9.54393 L1007.51 72.576 L1000.06 72.576 L1000.06 9.54393 Z" fill="#000000" fill-rule="nonzero" fill-opacity="1" /><path clip-path="url(#clip260)" d="M1061.91 48.0275 L1061.91 51.6733 L1027.64 51.6733 Q1028.13 59.3701 1032.26 63.421 Q1036.43 67.4314 1043.85 67.4314 Q1048.14 67.4314 1052.15 66.3781 Q1056.2 65.3249 1060.17 63.2184 L1060.17 70.267 Q1056.16 71.9684 1051.95 72.8596 Q1047.74 73.7508 1043.4 73.7508 Q1032.55 73.7508 1026.19 67.4314 Q1019.87 61.1119 1019.87 50.3365 Q1019.87 39.1965 1025.86 32.6746 Q1031.9 26.1121 1042.11 26.1121 Q1051.26 26.1121 1056.57 32.0264 Q1061.91 37.9003 1061.91 48.0275 M1054.46 45.84 Q1054.38 39.7232 1051.02 36.0774 Q1047.7 32.4315 1042.19 32.4315 Q1035.95 32.4315 1032.18 35.9558 Q1028.45 39.4801 1027.89 45.8805 L1054.46 45.84 Z" fill="#000000" fill-rule="nonzero" fill-opacity="1" /><path clip-path="url(#clip260)" d="M1097.12 9.54393 L1097.12 15.7418 L1089.99 15.7418 Q1085.98 15.7418 1084.4 17.3622 Q1082.86 18.9825 1082.86 23.1955 L1082.86 27.2059 L1095.13 27.2059 L1095.13 32.9987 L1082.86 32.9987 L1082.86 72.576 L1075.36 72.576 L1075.36 32.9987 L1068.23 32.9987 L1068.23 27.2059 L1075.36 27.2059 L1075.36 24.0462 Q1075.36 16.471 1078.89 13.0277 Q1082.41 9.54393 1090.07 9.54393 L1097.12 9.54393 Z" fill="#000000" fill-rule="nonzero" fill-opacity="1" /><path clip-path="url(#clip260)" d="M1109.27 14.324 L1109.27 27.2059 L1124.62 27.2059 L1124.62 32.9987 L1109.27 32.9987 L1109.27 57.6282 Q1109.27 63.1779 1110.77 64.7578 Q1112.31 66.3376 1116.97 66.3376 L1124.62 66.3376 L1124.62 72.576 L1116.97 72.576 Q1108.34 72.576 1105.06 69.3758 Q1101.78 66.1351 1101.78 57.6282 L1101.78 32.9987 L1096.31 32.9987 L1096.31 27.2059 L1101.78 27.2059 L1101.78 14.324 L1109.27 14.324 Z" fill="#000000" fill-rule="nonzero" fill-opacity="1" /><path clip-path="url(#clip260)" d="M1189.72 28.5427 L1189.72 35.5912 Q1186.56 33.9709 1183.16 33.1607 Q1179.75 32.3505 1176.11 32.3505 Q1170.56 32.3505 1167.76 34.0519 Q1165.01 35.7533 1165.01 39.156 Q1165.01 41.7486 1166.99 43.2475 Q1168.98 44.7058 1174.97 46.0426 L1177.53 46.6097 Q1185.47 48.3111 1188.79 51.4303 Q1192.15 54.509 1192.15 60.0587 Q1192.15 66.3781 1187.13 70.0644 Q1182.14 73.7508 1173.4 73.7508 Q1169.75 73.7508 1165.78 73.0216 Q1161.85 72.3329 1157.47 70.9151 L1157.47 63.2184 Q1161.61 65.3654 1165.62 66.4591 Q1169.63 67.5124 1173.56 67.5124 Q1178.82 67.5124 1181.66 65.73 Q1184.49 63.9071 1184.49 60.6258 Q1184.49 57.5877 1182.43 55.9673 Q1180.4 54.3469 1173.48 52.8481 L1170.88 52.2405 Q1163.96 50.7821 1160.88 47.7845 Q1157.8 44.7463 1157.8 39.4801 Q1157.8 33.0797 1162.34 29.5959 Q1166.87 26.1121 1175.22 26.1121 Q1179.35 26.1121 1183 26.7198 Q1186.64 27.3274 1189.72 28.5427 Z" fill="#000000" fill-rule="nonzero" fill-opacity="1" /><path clip-path="url(#clip260)" d="M1204.02 27.2059 L1211.47 27.2059 L1211.47 72.576 L1204.02 72.576 L1204.02 27.2059 M1204.02 9.54393 L1211.47 9.54393 L1211.47 18.9825 L1204.02 18.9825 L1204.02 9.54393 Z" fill="#000000" fill-rule="nonzero" fill-opacity="1" /><path clip-path="url(#clip260)" d="M1264.78 45.1919 L1264.78 72.576 L1257.33 72.576 L1257.33 45.4349 Q1257.33 38.994 1254.82 35.7938 Q1252.31 32.5936 1247.28 32.5936 Q1241.25 32.5936 1237.76 36.4419 Q1234.28 40.2903 1234.28 46.9338 L1234.28 72.576 L1226.79 72.576 L1226.79 27.2059 L1234.28 27.2059 L1234.28 34.2544 Q1236.95 30.163 1240.56 28.1376 Q1244.2 26.1121 1248.94 26.1121 Q1256.76 26.1121 1260.77 30.9732 Q1264.78 35.7938 1264.78 45.1919 Z" fill="#000000" fill-rule="nonzero" fill-opacity="1" /><path clip-path="url(#clip260)" d="M1309.51 49.3643 Q1309.51 41.2625 1306.14 36.8065 Q1302.82 32.3505 1296.79 32.3505 Q1290.79 32.3505 1287.43 36.8065 Q1284.11 41.2625 1284.11 49.3643 Q1284.11 57.4256 1287.43 61.8816 Q1290.79 66.3376 1296.79 66.3376 Q1302.82 66.3376 1306.14 61.8816 Q1309.51 57.4256 1309.51 49.3643 M1316.96 66.9452 Q1316.96 78.5308 1311.81 84.1616 Q1306.67 89.8329 1296.06 89.8329 Q1292.13 89.8329 1288.64 89.2252 Q1285.16 88.6581 1281.88 87.4428 L1281.88 80.1917 Q1285.16 81.9741 1288.36 82.8248 Q1291.56 83.6755 1294.88 83.6755 Q1302.21 83.6755 1305.86 79.8271 Q1309.51 76.0193 1309.51 68.282 L1309.51 64.5957 Q1307.2 68.6061 1303.59 70.5911 Q1299.99 72.576 1294.96 72.576 Q1286.62 72.576 1281.51 66.2161 Q1276.41 59.8562 1276.41 49.3643 Q1276.41 38.832 1281.51 32.472 Q1286.62 26.1121 1294.96 26.1121 Q1299.99 26.1121 1303.59 28.0971 Q1307.2 30.082 1309.51 34.0924 L1309.51 27.2059 L1316.96 27.2059 L1316.96 66.9452 Z" fill="#000000" fill-rule="nonzero" fill-opacity="1" /><path clip-path="url(#clip260)" d="M1331.54 54.671 L1331.54 27.2059 L1339 27.2059 L1339 54.3874 Q1339 60.8284 1341.51 64.0691 Q1344.02 67.2693 1349.04 67.2693 Q1355.08 67.2693 1358.56 63.421 Q1362.09 59.5726 1362.09 52.9291 L1362.09 27.2059 L1369.54 27.2059 L1369.54 72.576 L1362.09 72.576 L1362.09 65.6084 Q1359.37 69.7404 1355.77 71.7658 Q1352.2 73.7508 1347.46 73.7508 Q1339.64 73.7508 1335.59 68.8897 Q1331.54 64.0286 1331.54 54.671 M1350.3 26.1121 L1350.3 26.1121 Z" fill="#000000" fill-rule="nonzero" fill-opacity="1" /><path clip-path="url(#clip260)" d="M1384.89 9.54393 L1392.35 9.54393 L1392.35 72.576 L1384.89 72.576 L1384.89 9.54393 Z" fill="#000000" fill-rule="nonzero" fill-opacity="1" /><path clip-path="url(#clip260)" d="M1428.56 49.7694 Q1419.53 49.7694 1416.04 51.8354 Q1412.56 53.9013 1412.56 58.8839 Q1412.56 62.8538 1415.15 65.2034 Q1417.79 67.5124 1422.28 67.5124 Q1428.48 67.5124 1432.21 63.1374 Q1435.97 58.7219 1435.97 51.4303 L1435.97 49.7694 L1428.56 49.7694 M1443.43 46.6907 L1443.43 72.576 L1435.97 72.576 L1435.97 65.6895 Q1433.42 69.8214 1429.61 71.8063 Q1425.81 73.7508 1420.3 73.7508 Q1413.33 73.7508 1409.2 69.8619 Q1405.11 65.9325 1405.11 59.3701 Q1405.11 51.7138 1410.21 47.825 Q1415.36 43.9361 1425.52 43.9361 L1435.97 43.9361 L1435.97 43.2069 Q1435.97 38.0623 1432.57 35.2672 Q1429.21 32.4315 1423.09 32.4315 Q1419.2 32.4315 1415.52 33.3632 Q1411.83 34.295 1408.43 36.1584 L1408.43 29.2718 Q1412.52 27.692 1416.37 26.9223 Q1420.22 26.1121 1423.86 26.1121 Q1433.71 26.1121 1438.57 31.2163 Q1443.43 36.3204 1443.43 46.6907 Z" fill="#000000" fill-rule="nonzero" fill-opacity="1" /><path clip-path="url(#clip260)" d="M1485.07 34.1734 Q1483.82 33.4443 1482.32 33.1202 Q1480.86 32.7556 1479.08 32.7556 Q1472.76 32.7556 1469.35 36.8875 Q1465.99 40.9789 1465.99 48.6757 L1465.99 72.576 L1458.5 72.576 L1458.5 27.2059 L1465.99 27.2059 L1465.99 34.2544 Q1468.34 30.1225 1472.11 28.1376 Q1475.88 26.1121 1481.26 26.1121 Q1482.03 26.1121 1482.97 26.2337 Q1483.9 26.3147 1485.03 26.5172 L1485.07 34.1734 Z" fill="#000000" fill-rule="nonzero" fill-opacity="1" /><path clip-path="url(#clip260)" d="M1513.91 27.2059 L1521.81 27.2059 L1535.99 65.2844 L1550.17 27.2059 L1558.07 27.2059 L1541.06 72.576 L1530.93 72.576 L1513.91 27.2059 Z" fill="#000000" fill-rule="nonzero" fill-opacity="1" /><path clip-path="url(#clip260)" d="M1607.17 48.0275 L1607.17 51.6733 L1572.9 51.6733 Q1573.38 59.3701 1577.51 63.421 Q1581.69 67.4314 1589.1 67.4314 Q1593.39 67.4314 1597.4 66.3781 Q1601.45 65.3249 1605.42 63.2184 L1605.42 70.267 Q1601.41 71.9684 1597.2 72.8596 Q1592.99 73.7508 1588.65 73.7508 Q1577.8 73.7508 1571.44 67.4314 Q1565.12 61.1119 1565.12 50.3365 Q1565.12 39.1965 1571.11 32.6746 Q1577.15 26.1121 1587.36 26.1121 Q1596.51 26.1121 1601.82 32.0264 Q1607.17 37.9003 1607.17 48.0275 M1599.71 45.84 Q1599.63 39.7232 1596.27 36.0774 Q1592.95 32.4315 1587.44 32.4315 Q1581.2 32.4315 1577.43 35.9558 Q1573.71 39.4801 1573.14 45.8805 L1599.71 45.84 Z" fill="#000000" fill-rule="nonzero" fill-opacity="1" /><path clip-path="url(#clip260)" d="M1652.05 28.9478 L1652.05 35.9153 Q1648.89 34.1734 1645.69 33.3227 Q1642.53 32.4315 1639.29 32.4315 Q1632.04 32.4315 1628.03 37.0496 Q1624.02 41.6271 1624.02 49.9314 Q1624.02 58.2358 1628.03 62.8538 Q1632.04 67.4314 1639.29 67.4314 Q1642.53 67.4314 1645.69 66.5807 Q1648.89 65.6895 1652.05 63.9476 L1652.05 70.8341 Q1648.93 72.2924 1645.57 73.0216 Q1642.25 73.7508 1638.48 73.7508 Q1628.23 73.7508 1622.19 67.3098 Q1616.16 60.8689 1616.16 49.9314 Q1616.16 38.832 1622.24 32.472 Q1628.35 26.1121 1638.97 26.1121 Q1642.41 26.1121 1645.69 26.8413 Q1648.97 27.5299 1652.05 28.9478 Z" fill="#000000" fill-rule="nonzero" fill-opacity="1" /><path clip-path="url(#clip260)" d="M1672.39 14.324 L1672.39 27.2059 L1687.74 27.2059 L1687.74 32.9987 L1672.39 32.9987 L1672.39 57.6282 Q1672.39 63.1779 1673.88 64.7578 Q1675.42 66.3376 1680.08 66.3376 L1687.74 66.3376 L1687.74 72.576 L1680.08 72.576 Q1671.45 72.576 1668.17 69.3758 Q1664.89 66.1351 1664.89 57.6282 L1664.89 32.9987 L1659.42 32.9987 L1659.42 27.2059 L1664.89 27.2059 L1664.89 14.324 L1672.39 14.324 Z" fill="#000000" fill-rule="nonzero" fill-opacity="1" /><path clip-path="url(#clip260)" d="M1715.12 32.4315 Q1709.13 32.4315 1705.64 37.1306 Q1702.16 41.7891 1702.16 49.9314 Q1702.16 58.0738 1705.6 62.7728 Q1709.09 67.4314 1715.12 67.4314 Q1721.08 67.4314 1724.56 62.7323 Q1728.04 58.0333 1728.04 49.9314 Q1728.04 41.8701 1724.56 37.1711 Q1721.08 32.4315 1715.12 32.4315 M1715.12 26.1121 Q1724.84 26.1121 1730.39 32.4315 Q1735.94 38.7509 1735.94 49.9314 Q1735.94 61.0714 1730.39 67.4314 Q1724.84 73.7508 1715.12 73.7508 Q1705.36 73.7508 1699.81 67.4314 Q1694.3 61.0714 1694.3 49.9314 Q1694.3 38.7509 1699.81 32.4315 Q1705.36 26.1121 1715.12 26.1121 Z" fill="#000000" fill-rule="nonzero" fill-opacity="1" /><path clip-path="url(#clip260)" d="M1774.59 34.1734 Q1773.33 33.4443 1771.84 33.1202 Q1770.38 32.7556 1768.59 32.7556 Q1762.27 32.7556 1758.87 36.8875 Q1755.51 40.9789 1755.51 48.6757 L1755.51 72.576 L1748.02 72.576 L1748.02 27.2059 L1755.51 27.2059 L1755.51 34.2544 Q1757.86 30.1225 1761.63 28.1376 Q1765.39 26.1121 1770.78 26.1121 Q1771.55 26.1121 1772.48 26.2337 Q1773.41 26.3147 1774.55 26.5172 L1774.59 34.1734 Z" fill="#000000" fill-rule="nonzero" fill-opacity="1" /><circle clip-path="url(#clip261)" cx="315.545" cy="1133.77" r="14.4" fill="#0000ff" fill-rule="evenodd" fill-opacity="1" stroke="none"/>
<circle clip-path="url(#clip261)" cx="447.403" cy="1173.83" r="14.4" fill="#0000ff" fill-rule="evenodd" fill-opacity="1" stroke="none"/>
<circle clip-path="url(#clip261)" cx="579.262" cy="857.899" r="14.4" fill="#0000ff" fill-rule="evenodd" fill-opacity="1" stroke="none"/>
<circle clip-path="url(#clip261)" cx="711.12" cy="466.791" r="14.4" fill="#0000ff" fill-rule="evenodd" fill-opacity="1" stroke="none"/>
<circle clip-path="url(#clip261)" cx="842.978" cy="348.15" r="14.4" fill="#0000ff" fill-rule="evenodd" fill-opacity="1" stroke="none"/>
<circle clip-path="url(#clip261)" cx="974.836" cy="607.431" r="14.4" fill="#0000ff" fill-rule="evenodd" fill-opacity="1" stroke="none"/>
<circle clip-path="url(#clip261)" cx="1106.69" cy="1014.17" r="14.4" fill="#0000ff" fill-rule="evenodd" fill-opacity="1" stroke="none"/>
<circle clip-path="url(#clip261)" cx="1238.55" cy="1206.83" r="14.4" fill="#0000ff" fill-rule="evenodd" fill-opacity="1" stroke="none"/>
<circle clip-path="url(#clip261)" cx="1370.41" cy="1014.17" r="14.4" fill="#0000ff" fill-rule="evenodd" fill-opacity="1" stroke="none"/>
<circle clip-path="url(#clip261)" cx="1502.27" cy="607.431" r="14.4" fill="#0000ff" fill-rule="evenodd" fill-opacity="1" stroke="none"/>
<circle clip-path="url(#clip261)" cx="1634.13" cy="348.15" r="14.4" fill="#0000ff" fill-rule="evenodd" fill-opacity="1" stroke="none"/>
<circle clip-path="url(#clip261)" cx="1765.99" cy="466.791" r="14.4" fill="#0000ff" fill-rule="evenodd" fill-opacity="1" stroke="none"/>
<circle clip-path="url(#clip261)" cx="1897.84" cy="857.899" r="14.4" fill="#0000ff" fill-rule="evenodd" fill-opacity="1" stroke="none"/>
<circle clip-path="url(#clip261)" cx="2029.7" cy="1173.83" r="14.4" fill="#0000ff" fill-rule="evenodd" fill-opacity="1" stroke="none"/>
<circle clip-path="url(#clip261)" cx="2161.56" cy="1133.77" r="14.4" fill="#0000ff" fill-rule="evenodd" fill-opacity="1" stroke="none"/>
<polyline clip-path="url(#clip261)" style="stroke:#0000ff; stroke-linecap:round; stroke-linejoin:round; stroke-width:4; stroke-opacity:1; fill:none" points="315.545,773.326 315.545,1133.77 "/>
<polyline clip-path="url(#clip261)" style="stroke:#0000ff; stroke-linecap:round; stroke-linejoin:round; stroke-width:4; stroke-opacity:1; fill:none" points="447.403,773.326 447.403,1173.83 "/>
<polyline clip-path="url(#clip261)" style="stroke:#0000ff; stroke-linecap:round; stroke-linejoin:round; stroke-width:4; stroke-opacity:1; fill:none" points="579.262,773.326 579.262,857.899 "/>
<polyline clip-path="url(#clip261)" style="stroke:#0000ff; stroke-linecap:round; stroke-linejoin:round; stroke-width:4; stroke-opacity:1; fill:none" points="711.12,773.326 711.12,466.791 "/>
<polyline clip-path="url(#clip261)" style="stroke:#0000ff; stroke-linecap:round; stroke-linejoin:round; stroke-width:4; stroke-opacity:1; fill:none" points="842.978,773.326 842.978,348.15 "/>
<polyline clip-path="url(#clip261)" style="stroke:#0000ff; stroke-linecap:round; stroke-linejoin:round; stroke-width:4; stroke-opacity:1; fill:none" points="974.836,773.326 974.836,607.431 "/>
<polyline clip-path="url(#clip261)" style="stroke:#0000ff; stroke-linecap:round; stroke-linejoin:round; stroke-width:4; stroke-opacity:1; fill:none" points="1106.69,773.326 1106.69,1014.17 "/>
<polyline clip-path="url(#clip261)" style="stroke:#0000ff; stroke-linecap:round; stroke-linejoin:round; stroke-width:4; stroke-opacity:1; fill:none" points="1238.55,773.326 1238.55,1206.83 "/>
<polyline clip-path="url(#clip261)" style="stroke:#0000ff; stroke-linecap:round; stroke-linejoin:round; stroke-width:4; stroke-opacity:1; fill:none" points="1370.41,773.326 1370.41,1014.17 "/>
<polyline clip-path="url(#clip261)" style="stroke:#0000ff; stroke-linecap:round; stroke-linejoin:round; stroke-width:4; stroke-opacity:1; fill:none" points="1502.27,773.326 1502.27,607.431 "/>
<polyline clip-path="url(#clip261)" style="stroke:#0000ff; stroke-linecap:round; stroke-linejoin:round; stroke-width:4; stroke-opacity:1; fill:none" points="1634.13,773.326 1634.13,348.15 "/>
<polyline clip-path="url(#clip261)" style="stroke:#0000ff; stroke-linecap:round; stroke-linejoin:round; stroke-width:4; stroke-opacity:1; fill:none" points="1765.99,773.326 1765.99,466.791 "/>
<polyline clip-path="url(#clip261)" style="stroke:#0000ff; stroke-linecap:round; stroke-linejoin:round; stroke-width:4; stroke-opacity:1; fill:none" points="1897.84,773.326 1897.84,857.899 "/>
<polyline clip-path="url(#clip261)" style="stroke:#0000ff; stroke-linecap:round; stroke-linejoin:round; stroke-width:4; stroke-opacity:1; fill:none" points="2029.7,773.326 2029.7,1173.83 "/>
<polyline clip-path="url(#clip261)" style="stroke:#0000ff; stroke-linecap:round; stroke-linejoin:round; stroke-width:4; stroke-opacity:1; fill:none" points="2161.56,773.326 2161.56,1133.77 "/>
</svg>
