<?xml version="1.0" encoding="utf-8"?>
<svg xmlns="http://www.w3.org/2000/svg" xmlns:xlink="http://www.w3.org/1999/xlink" width="600" height="400" viewBox="0 0 2400 1600">
<defs>
  <clipPath id="clip290">
    <rect x="0" y="0" width="2400" height="1600"/>
  </clipPath>
</defs>
<path clip-path="url(#clip290)" d="M0 1600 L2400 1600 L2400 0 L0 0  Z" fill="#ffffff" fill-rule="evenodd" fill-opacity="1"/>
<defs>
  <clipPath id="clip291">
    <rect x="174" y="123" width="2180" height="1301"/>
  </clipPath>
</defs>
<path clip-path="url(#clip290)" d="M174.149 1423.18 L2352.76 1423.18 L2352.76 123.472 L174.149 123.472  Z" fill="#ffffff" fill-rule="evenodd" fill-opacity="1"/>
<polyline clip-path="url(#clip291)" style="stroke:#000000; stroke-linecap:round; stroke-linejoin:round; stroke-width:2; stroke-opacity:0.1; fill:none" points="235.808,1423.18 235.808,123.472 "/>
<polyline clip-path="url(#clip291)" style="stroke:#000000; stroke-linecap:round; stroke-linejoin:round; stroke-width:2; stroke-opacity:0.1; fill:none" points="382.614,1423.18 382.614,123.472 "/>
<polyline clip-path="url(#clip291)" style="stroke:#000000; stroke-linecap:round; stroke-linejoin:round; stroke-width:2; stroke-opacity:0.1; fill:none" points="529.42,1423.18 529.42,123.472 "/>
<polyline clip-path="url(#clip291)" style="stroke:#000000; stroke-linecap:round; stroke-linejoin:round; stroke-width:2; stroke-opacity:0.1; fill:none" points="676.227,1423.18 676.227,123.472 "/>
<polyline clip-path="url(#clip291)" style="stroke:#000000; stroke-linecap:round; stroke-linejoin:round; stroke-width:2; stroke-opacity:0.1; fill:none" points="823.033,1423.18 823.033,123.472 "/>
<polyline clip-path="url(#clip291)" style="stroke:#000000; stroke-linecap:round; stroke-linejoin:round; stroke-width:2; stroke-opacity:0.1; fill:none" points="969.84,1423.18 969.84,123.472 "/>
<polyline clip-path="url(#clip291)" style="stroke:#000000; stroke-linecap:round; stroke-linejoin:round; stroke-width:2; stroke-opacity:0.1; fill:none" points="1116.65,1423.18 1116.65,123.472 "/>
<polyline clip-path="url(#clip291)" style="stroke:#000000; stroke-linecap:round; stroke-linejoin:round; stroke-width:2; stroke-opacity:0.1; fill:none" points="1263.45,1423.18 1263.45,123.472 "/>
<polyline clip-path="url(#clip291)" style="stroke:#000000; stroke-linecap:round; stroke-linejoin:round; stroke-width:2; stroke-opacity:0.1; fill:none" points="1410.26,1423.18 1410.26,123.472 "/>
<polyline clip-path="url(#clip291)" style="stroke:#000000; stroke-linecap:round; stroke-linejoin:round; stroke-width:2; stroke-opacity:0.1; fill:none" points="1557.07,1423.18 1557.07,123.472 "/>
<polyline clip-path="url(#clip291)" style="stroke:#000000; stroke-linecap:round; stroke-linejoin:round; stroke-width:2; stroke-opacity:0.1; fill:none" points="1703.87,1423.18 1703.87,123.472 "/>
<polyline clip-path="url(#clip291)" style="stroke:#000000; stroke-linecap:round; stroke-linejoin:round; stroke-width:2; stroke-opacity:0.1; fill:none" points="1850.68,1423.18 1850.68,123.472 "/>
<polyline clip-path="url(#clip291)" style="stroke:#000000; stroke-linecap:round; stroke-linejoin:round; stroke-width:2; stroke-opacity:0.1; fill:none" points="1997.48,1423.18 1997.48,123.472 "/>
<polyline clip-path="url(#clip291)" style="stroke:#000000; stroke-linecap:round; stroke-linejoin:round; stroke-width:2; stroke-opacity:0.1; fill:none" points="2144.29,1423.18 2144.29,123.472 "/>
<polyline clip-path="url(#clip291)" style="stroke:#000000; stroke-linecap:round; stroke-linejoin:round; stroke-width:2; stroke-opacity:0.1; fill:none" points="2291.1,1423.18 2291.1,123.472 "/>
<polyline clip-path="url(#clip291)" style="stroke:#000000; stroke-linecap:round; stroke-linejoin:round; stroke-width:2; stroke-opacity:0.1; fill:none" points="174.149,1386.4 2352.76,1386.4 "/>
<polyline clip-path="url(#clip291)" style="stroke:#000000; stroke-linecap:round; stroke-linejoin:round; stroke-width:2; stroke-opacity:0.1; fill:none" points="174.149,773.326 2352.76,773.326 "/>
<polyline clip-path="url(#clip291)" style="stroke:#000000; stroke-linecap:round; stroke-linejoin:round; stroke-width:2; stroke-opacity:0.1; fill:none" points="174.149,160.256 2352.76,160.256 "/>
<polyline clip-path="url(#clip290)" style="stroke:#000000; stroke-linecap:round; stroke-linejoin:round; stroke-width:4; stroke-opacity:1; fill:none" points="174.149,1423.18 2352.76,1423.18 "/>
<polyline clip-path="url(#clip290)" style="stroke:#000000; stroke-linecap:round; stroke-linejoin:round; stroke-width:4; stroke-opacity:1; fill:none" points="235.808,1423.18 235.808,1404.28 "/>
<polyline clip-path="url(#clip290)" style="stroke:#000000; stroke-linecap:round; stroke-linejoin:round; stroke-width:4; stroke-opacity:1; fill:none" points="382.614,1423.18 382.614,1404.28 "/>
<polyline clip-path="url(#clip290)" style="stroke:#000000; stroke-linecap:round; stroke-linejoin:round; stroke-width:4; stroke-opacity:1; fill:none" points="529.42,1423.18 529.42,1404.28 "/>
<polyline clip-path="url(#clip290)" style="stroke:#000000; stroke-linecap:round; stroke-linejoin:round; stroke-width:4; stroke-opacity:1; fill:none" points="676.227,1423.18 676.227,1404.28 "/>
<polyline clip-path="url(#clip290)" style="stroke:#000000; stroke-linecap:round; stroke-linejoin:round; stroke-width:4; stroke-opacity:1; fill:none" points="823.033,1423.18 823.033,1404.28 "/>
<polyline clip-path="url(#clip290)" style="stroke:#000000; stroke-linecap:round; stroke-linejoin:round; stroke-width:4; stroke-opacity:1; fill:none" points="969.84,1423.18 969.84,1404.28 "/>
<polyline clip-path="url(#clip290)" style="stroke:#000000; stroke-linecap:round; stroke-linejoin:round; stroke-width:4; stroke-opacity:1; fill:none" points="1116.65,1423.18 1116.65,1404.28 "/>
<polyline clip-path="url(#clip290)" style="stroke:#000000; stroke-linecap:round; stroke-linejoin:round; stroke-width:4; stroke-opacity:1; fill:none" points="1263.45,1423.18 1263.45,1404.28 "/>
<polyline clip-path="url(#clip290)" style="stroke:#000000; stroke-linecap:round; stroke-linejoin:round; stroke-width:4; stroke-opacity:1; fill:none" points="1410.26,1423.18 1410.26,1404.28 "/>
<polyline clip-path="url(#clip290)" style="stroke:#000000; stroke-linecap:round; stroke-linejoin:round; stroke-width:4; stroke-opacity:1; fill:none" points="1557.07,1423.18 1557.07,1404.28 "/>
<polyline clip-path="url(#clip290)" style="stroke:#000000; stroke-linecap:round; stroke-linejoin:round; stroke-width:4; stroke-opacity:1; fill:none" points="1703.87,1423.18 1703.87,1404.28 "/>
<polyline clip-path="url(#clip290)" style="stroke:#000000; stroke-linecap:round; stroke-linejoin:round; stroke-width:4; stroke-opacity:1; fill:none" points="1850.68,1423.18 1850.68,1404.28 "/>
<polyline clip-path="url(#clip290)" style="stroke:#000000; stroke-linecap:round; stroke-linejoin:round; stroke-width:4; stroke-opacity:1; fill:none" points="1997.48,1423.18 1997.48,1404.28 "/>
<polyline clip-path="url(#clip290)" style="stroke:#000000; stroke-linecap:round; stroke-linejoin:round; stroke-width:4; stroke-opacity:1; fill:none" points="2144.29,1423.18 2144.29,1404.28 "/>
<polyline clip-path="url(#clip290)" style="stroke:#000000; stroke-linecap:round; stroke-linejoin:round; stroke-width:4; stroke-opacity:1; fill:none" points="2291.1,1423.18 2291.1,1404.28 "/>
<path clip-path="url(#clip290)" d="M226.19 1481.64 L233.828 1481.64 L233.828 1455.28 L225.518 1456.95 L225.518 1452.69 L233.782 1451.02 L238.458 1451.02 L238.458 1481.64 L246.097 1481.64 L246.097 1485.58 L226.19 1485.58 L226.19 1481.64 Z" fill="#000000" fill-rule="nonzero" fill-opacity="1" /><path clip-path="url(#clip290)" d="M377.267 1481.64 L393.586 1481.64 L393.586 1485.58 L371.642 1485.58 L371.642 1481.64 Q374.304 1478.89 378.887 1474.26 Q383.494 1469.61 384.674 1468.27 Q386.92 1465.74 387.799 1464.01 Q388.702 1462.25 388.702 1460.56 Q388.702 1457.8 386.758 1456.07 Q384.836 1454.33 381.734 1454.33 Q379.535 1454.33 377.082 1455.09 Q374.651 1455.86 371.873 1457.41 L371.873 1452.69 Q374.697 1451.55 377.151 1450.97 Q379.605 1450.39 381.642 1450.39 Q387.012 1450.39 390.207 1453.08 Q393.401 1455.77 393.401 1460.26 Q393.401 1462.39 392.591 1464.31 Q391.804 1466.2 389.697 1468.8 Q389.119 1469.47 386.017 1472.69 Q382.915 1475.88 377.267 1481.64 Z" fill="#000000" fill-rule="nonzero" fill-opacity="1" /><path clip-path="url(#clip290)" d="M533.668 1466.95 Q537.025 1467.66 538.9 1469.93 Q540.798 1472.2 540.798 1475.53 Q540.798 1480.65 537.279 1483.45 Q533.761 1486.25 527.279 1486.25 Q525.103 1486.25 522.788 1485.81 Q520.497 1485.39 518.043 1484.54 L518.043 1480.02 Q519.988 1481.16 522.302 1481.74 Q524.617 1482.32 527.14 1482.32 Q531.538 1482.32 533.83 1480.58 Q536.145 1478.84 536.145 1475.53 Q536.145 1472.48 533.992 1470.77 Q531.863 1469.03 528.043 1469.03 L524.015 1469.03 L524.015 1465.19 L528.228 1465.19 Q531.677 1465.19 533.506 1463.82 Q535.335 1462.43 535.335 1459.84 Q535.335 1457.18 533.437 1455.77 Q531.562 1454.33 528.043 1454.33 Q526.122 1454.33 523.923 1454.75 Q521.724 1455.16 519.085 1456.04 L519.085 1451.88 Q521.747 1451.14 524.062 1450.77 Q526.4 1450.39 528.46 1450.39 Q533.784 1450.39 536.886 1452.83 Q539.987 1455.23 539.987 1459.35 Q539.987 1462.22 538.344 1464.21 Q536.7 1466.18 533.668 1466.95 Z" fill="#000000" fill-rule="nonzero" fill-opacity="1" /><path clip-path="url(#clip290)" d="M679.236 1455.09 L667.431 1473.54 L679.236 1473.54 L679.236 1455.09 M678.009 1451.02 L683.889 1451.02 L683.889 1473.54 L688.819 1473.54 L688.819 1477.43 L683.889 1477.43 L683.889 1485.58 L679.236 1485.58 L679.236 1477.43 L663.634 1477.43 L663.634 1472.92 L678.009 1451.02 Z" fill="#000000" fill-rule="nonzero" fill-opacity="1" /><path clip-path="url(#clip290)" d="M813.311 1451.02 L831.667 1451.02 L831.667 1454.96 L817.593 1454.96 L817.593 1463.43 Q818.612 1463.08 819.63 1462.92 Q820.649 1462.73 821.667 1462.73 Q827.454 1462.73 830.834 1465.9 Q834.214 1469.08 834.214 1474.49 Q834.214 1480.07 830.742 1483.17 Q827.269 1486.25 820.95 1486.25 Q818.774 1486.25 816.505 1485.88 Q814.26 1485.51 811.853 1484.77 L811.853 1480.07 Q813.936 1481.2 816.158 1481.76 Q818.38 1482.32 820.857 1482.32 Q824.862 1482.32 827.2 1480.21 Q829.538 1478.1 829.538 1474.49 Q829.538 1470.88 827.2 1468.77 Q824.862 1466.67 820.857 1466.67 Q818.982 1466.67 817.107 1467.08 Q815.255 1467.5 813.311 1468.38 L813.311 1451.02 Z" fill="#000000" fill-rule="nonzero" fill-opacity="1" /><path clip-path="url(#clip290)" d="M970.245 1466.44 Q967.097 1466.44 965.245 1468.59 Q963.416 1470.74 963.416 1474.49 Q963.416 1478.22 965.245 1480.39 Q967.097 1482.55 970.245 1482.55 Q973.393 1482.55 975.222 1480.39 Q977.073 1478.22 977.073 1474.49 Q977.073 1470.74 975.222 1468.59 Q973.393 1466.44 970.245 1466.44 M979.527 1451.78 L979.527 1456.04 Q977.768 1455.21 975.962 1454.77 Q974.18 1454.33 972.421 1454.33 Q967.791 1454.33 965.337 1457.45 Q962.907 1460.58 962.56 1466.9 Q963.925 1464.89 965.985 1463.82 Q968.046 1462.73 970.522 1462.73 Q975.731 1462.73 978.74 1465.9 Q981.772 1469.05 981.772 1474.49 Q981.772 1479.82 978.624 1483.03 Q975.476 1486.25 970.245 1486.25 Q964.249 1486.25 961.078 1481.67 Q957.907 1477.06 957.907 1468.33 Q957.907 1460.14 961.796 1455.28 Q965.685 1450.39 972.235 1450.39 Q973.995 1450.39 975.777 1450.74 Q977.583 1451.09 979.527 1451.78 Z" fill="#000000" fill-rule="nonzero" fill-opacity="1" /><path clip-path="url(#clip290)" d="M1105.53 1451.02 L1127.76 1451.02 L1127.76 1453.01 L1115.21 1485.58 L1110.33 1485.58 L1122.13 1454.96 L1105.53 1454.96 L1105.53 1451.02 Z" fill="#000000" fill-rule="nonzero" fill-opacity="1" /><path clip-path="url(#clip290)" d="M1263.45 1469.17 Q1260.12 1469.17 1258.2 1470.95 Q1256.3 1472.73 1256.3 1475.86 Q1256.3 1478.98 1258.2 1480.77 Q1260.12 1482.55 1263.45 1482.55 Q1266.79 1482.55 1268.71 1480.77 Q1270.63 1478.96 1270.63 1475.86 Q1270.63 1472.73 1268.71 1470.95 Q1266.81 1469.17 1263.45 1469.17 M1258.78 1467.18 Q1255.77 1466.44 1254.08 1464.38 Q1252.41 1462.32 1252.41 1459.35 Q1252.41 1455.21 1255.35 1452.8 Q1258.31 1450.39 1263.45 1450.39 Q1268.61 1450.39 1271.55 1452.8 Q1274.49 1455.21 1274.49 1459.35 Q1274.49 1462.32 1272.8 1464.38 Q1271.14 1466.44 1268.15 1467.18 Q1271.53 1467.96 1273.41 1470.26 Q1275.3 1472.55 1275.3 1475.86 Q1275.3 1480.88 1272.23 1483.57 Q1269.17 1486.25 1263.45 1486.25 Q1257.73 1486.25 1254.66 1483.57 Q1251.6 1480.88 1251.6 1475.86 Q1251.6 1472.55 1253.5 1470.26 Q1255.4 1467.96 1258.78 1467.18 M1257.06 1459.79 Q1257.06 1462.48 1258.73 1463.98 Q1260.42 1465.49 1263.45 1465.49 Q1266.46 1465.49 1268.15 1463.98 Q1269.86 1462.48 1269.86 1459.79 Q1269.86 1457.11 1268.15 1455.6 Q1266.46 1454.1 1263.45 1454.1 Q1260.42 1454.1 1258.73 1455.6 Q1257.06 1457.11 1257.06 1459.79 Z" fill="#000000" fill-rule="nonzero" fill-opacity="1" /><path clip-path="url(#clip290)" d="M1400.56 1484.86 L1400.56 1480.6 Q1402.32 1481.44 1404.12 1481.88 Q1405.93 1482.32 1407.67 1482.32 Q1412.3 1482.32 1414.73 1479.21 Q1417.18 1476.09 1417.53 1469.75 Q1416.18 1471.74 1414.12 1472.8 Q1412.06 1473.87 1409.56 1473.87 Q1404.38 1473.87 1401.35 1470.74 Q1398.34 1467.59 1398.34 1462.15 Q1398.34 1456.83 1401.49 1453.61 Q1404.63 1450.39 1409.87 1450.39 Q1415.86 1450.39 1419.01 1455 Q1422.18 1459.58 1422.18 1468.33 Q1422.18 1476.51 1418.29 1481.39 Q1414.43 1486.25 1407.87 1486.25 Q1406.12 1486.25 1404.31 1485.9 Q1402.5 1485.56 1400.56 1484.86 M1409.87 1470.21 Q1413.01 1470.21 1414.84 1468.06 Q1416.69 1465.9 1416.69 1462.15 Q1416.69 1458.43 1414.84 1456.27 Q1413.01 1454.1 1409.87 1454.1 Q1406.72 1454.1 1404.87 1456.27 Q1403.04 1458.43 1403.04 1462.15 Q1403.04 1465.9 1404.87 1468.06 Q1406.72 1470.21 1409.87 1470.21 Z" fill="#000000" fill-rule="nonzero" fill-opacity="1" /><path clip-path="url(#clip290)" d="M1531.75 1481.64 L1539.39 1481.64 L1539.39 1455.28 L1531.08 1456.95 L1531.08 1452.69 L1539.35 1451.02 L1544.02 1451.02 L1544.02 1481.64 L1551.66 1481.64 L1551.66 1485.58 L1531.75 1485.58 L1531.75 1481.64 Z" fill="#000000" fill-rule="nonzero" fill-opacity="1" /><path clip-path="url(#clip290)" d="M1571.1 1454.1 Q1567.49 1454.1 1565.66 1457.66 Q1563.86 1461.2 1563.86 1468.33 Q1563.86 1475.44 1565.66 1479.01 Q1567.49 1482.55 1571.1 1482.55 Q1574.74 1482.55 1576.54 1479.01 Q1578.37 1475.44 1578.37 1468.33 Q1578.37 1461.2 1576.54 1457.66 Q1574.74 1454.1 1571.1 1454.1 M1571.1 1450.39 Q1576.91 1450.39 1579.97 1455 Q1583.05 1459.58 1583.05 1468.33 Q1583.05 1477.06 1579.97 1481.67 Q1576.91 1486.25 1571.1 1486.25 Q1565.29 1486.25 1562.22 1481.67 Q1559.16 1477.06 1559.16 1468.33 Q1559.16 1459.58 1562.22 1455 Q1565.29 1450.39 1571.1 1450.39 Z" fill="#000000" fill-rule="nonzero" fill-opacity="1" /><path clip-path="url(#clip290)" d="M1679.17 1481.64 L1686.81 1481.64 L1686.81 1455.28 L1678.5 1456.95 L1678.5 1452.69 L1686.77 1451.02 L1691.44 1451.02 L1691.44 1481.64 L1699.08 1481.64 L1699.08 1485.58 L1679.17 1485.58 L1679.17 1481.64 Z" fill="#000000" fill-rule="nonzero" fill-opacity="1" /><path clip-path="url(#clip290)" d="M1709.33 1481.64 L1716.97 1481.64 L1716.97 1455.28 L1708.66 1456.95 L1708.66 1452.69 L1716.93 1451.02 L1721.6 1451.02 L1721.6 1481.64 L1729.24 1481.64 L1729.24 1485.58 L1709.33 1485.58 L1709.33 1481.64 Z" fill="#000000" fill-rule="nonzero" fill-opacity="1" /><path clip-path="url(#clip290)" d="M1826.16 1481.64 L1833.8 1481.64 L1833.8 1455.28 L1825.49 1456.95 L1825.49 1452.69 L1833.76 1451.02 L1838.43 1451.02 L1838.43 1481.64 L1846.07 1481.64 L1846.07 1485.58 L1826.16 1485.58 L1826.16 1481.64 Z" fill="#000000" fill-rule="nonzero" fill-opacity="1" /><path clip-path="url(#clip290)" d="M1859.54 1481.64 L1875.86 1481.64 L1875.86 1485.58 L1853.92 1485.58 L1853.92 1481.64 Q1856.58 1478.89 1861.16 1474.26 Q1865.77 1469.61 1866.95 1468.27 Q1869.2 1465.74 1870.08 1464.01 Q1870.98 1462.25 1870.98 1460.56 Q1870.98 1457.8 1869.03 1456.07 Q1867.11 1454.33 1864.01 1454.33 Q1861.81 1454.33 1859.36 1455.09 Q1856.93 1455.86 1854.15 1457.41 L1854.15 1452.69 Q1856.97 1451.55 1859.43 1450.97 Q1861.88 1450.39 1863.92 1450.39 Q1869.29 1450.39 1872.48 1453.08 Q1875.68 1455.77 1875.68 1460.26 Q1875.68 1462.39 1874.87 1464.31 Q1874.08 1466.2 1871.97 1468.8 Q1871.4 1469.47 1868.29 1472.69 Q1865.19 1475.88 1859.54 1481.64 Z" fill="#000000" fill-rule="nonzero" fill-opacity="1" /><path clip-path="url(#clip290)" d="M1972.5 1481.64 L1980.13 1481.64 L1980.13 1455.28 L1971.82 1456.95 L1971.82 1452.69 L1980.09 1451.02 L1984.76 1451.02 L1984.76 1481.64 L1992.4 1481.64 L1992.4 1485.58 L1972.5 1485.58 L1972.5 1481.64 Z" fill="#000000" fill-rule="nonzero" fill-opacity="1" /><path clip-path="url(#clip290)" d="M2016.01 1466.95 Q2019.37 1467.66 2021.25 1469.93 Q2023.14 1472.2 2023.14 1475.53 Q2023.14 1480.65 2019.63 1483.45 Q2016.11 1486.25 2009.63 1486.25 Q2007.45 1486.25 2005.13 1485.81 Q2002.84 1485.39 2000.39 1484.54 L2000.39 1480.02 Q2002.33 1481.16 2004.65 1481.74 Q2006.96 1482.32 2009.49 1482.32 Q2013.88 1482.32 2016.18 1480.58 Q2018.49 1478.84 2018.49 1475.53 Q2018.49 1472.48 2016.34 1470.77 Q2014.21 1469.03 2010.39 1469.03 L2006.36 1469.03 L2006.36 1465.19 L2010.57 1465.19 Q2014.02 1465.19 2015.85 1463.82 Q2017.68 1462.43 2017.68 1459.84 Q2017.68 1457.18 2015.78 1455.77 Q2013.91 1454.33 2010.39 1454.33 Q2008.47 1454.33 2006.27 1454.75 Q2004.07 1455.16 2001.43 1456.04 L2001.43 1451.88 Q2004.09 1451.14 2006.41 1450.77 Q2008.75 1450.39 2010.81 1450.39 Q2016.13 1450.39 2019.23 1452.83 Q2022.33 1455.23 2022.33 1459.35 Q2022.33 1462.22 2020.69 1464.21 Q2019.05 1466.18 2016.01 1466.95 Z" fill="#000000" fill-rule="nonzero" fill-opacity="1" /><path clip-path="url(#clip290)" d="M2118.74 1481.64 L2126.37 1481.64 L2126.37 1455.28 L2118.06 1456.95 L2118.06 1452.69 L2126.33 1451.02 L2131 1451.02 L2131 1481.64 L2138.64 1481.64 L2138.64 1485.58 L2118.74 1485.58 L2118.74 1481.64 Z" fill="#000000" fill-rule="nonzero" fill-opacity="1" /><path clip-path="url(#clip290)" d="M2160.93 1455.09 L2149.13 1473.54 L2160.93 1473.54 L2160.93 1455.09 M2159.71 1451.02 L2165.59 1451.02 L2165.59 1473.54 L2170.52 1473.54 L2170.52 1477.43 L2165.59 1477.43 L2165.59 1485.58 L2160.93 1485.58 L2160.93 1477.43 L2145.33 1477.43 L2145.33 1472.92 L2159.71 1451.02 Z" fill="#000000" fill-rule="nonzero" fill-opacity="1" /><path clip-path="url(#clip290)" d="M2266.28 1481.64 L2273.92 1481.64 L2273.92 1455.28 L2265.61 1456.95 L2265.61 1452.69 L2273.88 1451.02 L2278.55 1451.02 L2278.55 1481.64 L2286.19 1481.64 L2286.19 1485.58 L2266.28 1485.58 L2266.28 1481.64 Z" fill="#000000" fill-rule="nonzero" fill-opacity="1" /><path clip-path="url(#clip290)" d="M2295.68 1451.02 L2314.04 1451.02 L2314.04 1454.96 L2299.96 1454.96 L2299.96 1463.43 Q2300.98 1463.08 2302 1462.92 Q2303.02 1462.73 2304.04 1462.73 Q2309.82 1462.73 2313.2 1465.9 Q2316.58 1469.08 2316.58 1474.49 Q2316.58 1480.07 2313.11 1483.17 Q2309.64 1486.25 2303.32 1486.25 Q2301.14 1486.25 2298.87 1485.88 Q2296.63 1485.51 2294.22 1484.77 L2294.22 1480.07 Q2296.31 1481.2 2298.53 1481.76 Q2300.75 1482.32 2303.23 1482.32 Q2307.23 1482.32 2309.57 1480.21 Q2311.91 1478.1 2311.91 1474.49 Q2311.91 1470.88 2309.57 1468.77 Q2307.23 1466.67 2303.23 1466.67 Q2301.35 1466.67 2299.48 1467.08 Q2297.62 1467.5 2295.68 1468.38 L2295.68 1451.02 Z" fill="#000000" fill-rule="nonzero" fill-opacity="1" /><path clip-path="url(#clip290)" d="M1276.29 1536.84 Q1276.29 1538.67 1275.16 1539.77 Q1274.07 1540.86 1272.68 1540.86 Q1271.46 1540.86 1270.81 1540.15 Q1270.17 1539.45 1270.17 1538.54 Q1270.17 1538.16 1270.33 1537.67 Q1270.49 1537.16 1270.85 1536.55 Q1271.23 1535.94 1272.04 1535.48 Q1272.84 1535.03 1273.94 1534.97 Q1273.71 1534.74 1273.65 1534.71 Q1273.17 1534.32 1272.26 1534.2 Q1272.13 1534.13 1271.68 1534.13 Q1269.46 1534.13 1267.21 1535.77 Q1264.99 1537.38 1262.25 1540.44 Q1258.8 1544.02 1256.58 1545.34 Q1266.34 1546.63 1266.34 1552.26 Q1266.34 1553.2 1266.08 1554.32 Q1265.56 1556.45 1265.56 1558 Q1265.56 1561.09 1267.66 1561.09 Q1269.69 1561.09 1270.98 1559.03 Q1272.3 1556.97 1273.39 1552.94 Q1273.55 1552.2 1273.71 1551.97 Q1273.87 1551.75 1274.32 1551.75 Q1275.13 1551.75 1275.13 1552.39 Q1274.39 1556.16 1272.75 1559.06 Q1270.65 1562.57 1267.53 1562.57 Q1264.92 1562.57 1263.18 1560.77 Q1261.47 1558.93 1261.47 1556.03 Q1261.47 1555.32 1261.73 1553.71 Q1261.93 1553.07 1261.93 1552.33 Q1261.93 1550.81 1261.09 1549.69 Q1260.25 1548.53 1258.9 1547.95 Q1257.55 1547.37 1256.42 1547.11 Q1255.32 1546.82 1254.26 1546.72 Q1251.04 1560.35 1250.59 1561.18 Q1250.3 1561.76 1249.66 1562.15 Q1249.01 1562.57 1248.33 1562.57 Q1247.69 1562.57 1247.05 1562.12 Q1246.43 1561.7 1246.43 1560.7 Q1246.43 1560.19 1246.69 1559.25 L1256.26 1521.25 L1256.45 1519.96 Q1256.45 1519.57 1256.29 1519.38 Q1256.16 1519.16 1255.39 1518.99 Q1254.65 1518.83 1253.17 1518.83 Q1252.55 1518.83 1252.26 1518.8 Q1252.01 1518.77 1251.78 1518.61 Q1251.56 1518.42 1251.56 1518.03 Q1251.56 1517.48 1251.78 1517.19 Q1252.04 1516.87 1252.23 1516.8 Q1252.42 1516.74 1252.81 1516.71 Q1253.36 1516.68 1255.19 1516.52 Q1257.03 1516.32 1258.61 1516.19 Q1260.19 1516.06 1260.86 1516.06 Q1261.25 1516.06 1261.44 1516.26 Q1261.67 1516.42 1261.7 1516.61 L1261.73 1516.77 L1254.87 1544.6 Q1257.71 1543.47 1262.18 1538.48 Q1267.37 1532.68 1271.81 1532.68 Q1273.91 1532.68 1275.1 1533.97 Q1276.29 1535.23 1276.29 1536.84 Z" fill="#000000" fill-rule="nonzero" fill-opacity="1" /><polyline clip-path="url(#clip290)" style="stroke:#000000; stroke-linecap:round; stroke-linejoin:round; stroke-width:4; stroke-opacity:1; fill:none" points="174.149,1423.18 174.149,123.472 "/>
<polyline clip-path="url(#clip290)" style="stroke:#000000; stroke-linecap:round; stroke-linejoin:round; stroke-width:4; stroke-opacity:1; fill:none" points="174.149,1386.4 193.047,1386.4 "/>
<polyline clip-path="url(#clip290)" style="stroke:#000000; stroke-linecap:round; stroke-linejoin:round; stroke-width:4; stroke-opacity:1; fill:none" points="174.149,773.326 193.047,773.326 "/>
<polyline clip-path="url(#clip290)" style="stroke:#000000; stroke-linecap:round; stroke-linejoin:round; stroke-width:4; stroke-opacity:1; fill:none" points="174.149,160.256 193.047,160.256 "/>
<path clip-path="url(#clip290)" d="M126.205 1372.19 Q122.593 1372.19 120.765 1375.76 Q118.959 1379.3 118.959 1386.43 Q118.959 1393.54 120.765 1397.1 Q122.593 1400.64 126.205 1400.64 Q129.839 1400.64 131.644 1397.1 Q133.473 1393.54 133.473 1386.43 Q133.473 1379.3 131.644 1375.76 Q129.839 1372.19 126.205 1372.19 M126.205 1368.49 Q132.015 1368.49 135.07 1373.1 Q138.149 1377.68 138.149 1386.43 Q138.149 1395.16 135.07 1399.76 Q132.015 1404.35 126.205 1404.35 Q120.394 1404.35 117.316 1399.76 Q114.26 1395.16 114.26 1386.43 Q114.26 1377.68 117.316 1373.1 Q120.394 1368.49 126.205 1368.49 Z" fill="#000000" fill-rule="nonzero" fill-opacity="1" /><path clip-path="url(#clip290)" d="M118.242 786.671 L125.88 786.671 L125.88 760.305 L117.57 761.972 L117.57 757.713 L125.834 756.046 L130.51 756.046 L130.51 786.671 L138.149 786.671 L138.149 790.606 L118.242 790.606 L118.242 786.671 Z" fill="#000000" fill-rule="nonzero" fill-opacity="1" /><path clip-path="url(#clip290)" d="M121.83 173.601 L138.149 173.601 L138.149 177.536 L116.205 177.536 L116.205 173.601 Q118.867 170.847 123.45 166.217 Q128.056 161.564 129.237 160.222 Q131.482 157.698 132.362 155.962 Q133.265 154.203 133.265 152.513 Q133.265 149.759 131.32 148.023 Q129.399 146.286 126.297 146.286 Q124.098 146.286 121.644 147.05 Q119.214 147.814 116.436 149.365 L116.436 144.643 Q119.26 143.509 121.714 142.93 Q124.168 142.351 126.205 142.351 Q131.575 142.351 134.769 145.036 Q137.964 147.722 137.964 152.212 Q137.964 154.342 137.154 156.263 Q136.367 158.161 134.26 160.754 Q133.681 161.425 130.58 164.643 Q127.478 167.837 121.83 173.601 Z" fill="#000000" fill-rule="nonzero" fill-opacity="1" /><path clip-path="url(#clip290)" d="M26.8313 773.1 Q29.0857 773.1 29.0857 776.32 L29.0857 783.566 Q31.9842 781.537 36.2676 781.537 Q39.9391 781.537 43.3851 783.051 Q46.7989 784.533 49.1821 786.916 Q51.5654 789.267 53.0146 792.23 Q54.4317 795.193 54.4317 798.091 Q54.4317 802.503 51.4366 805.241 Q48.4414 807.978 43.997 807.978 Q41.646 807.978 39.0373 807.173 Q36.4286 806.336 34.0132 804.758 Q31.5655 803.18 29.601 801.119 Q27.6364 799.025 26.4448 796.32 Q25.2532 793.582 25.2532 790.716 L25.2532 775.676 Q25.2532 774.871 25.3176 774.452 Q25.3498 774.001 25.7363 773.55 Q26.0905 773.1 26.8313 773.1 M35.4947 785.756 Q34.7217 785.756 34.0454 785.853 Q33.3369 785.95 32.4029 786.304 Q31.4367 786.658 30.7604 787.27 Q30.0519 787.882 29.5688 789.074 Q29.0857 790.233 29.0857 791.811 Q29.0857 794.033 30.3095 796.481 Q31.5333 798.929 34.5607 800.797 Q37.1372 802.342 40.4866 803.115 Q43.836 803.888 45.8327 803.888 Q49.2466 803.888 51.1145 802.246 Q52.9502 800.571 52.9502 798.027 Q52.9502 795.933 51.5332 793.55 Q50.0839 791.167 47.3464 789.331 Q44.9632 787.721 41.4849 786.755 Q38.0067 785.756 35.4947 785.756 Z" fill="#000000" fill-rule="nonzero" fill-opacity="1" /><path clip-path="url(#clip290)" d="M55.9689 745.509 Q57.2539 745.509 58.0204 746.298 Q58.7869 747.064 58.7869 748.034 Q58.7869 748.89 58.291 749.341 Q57.795 749.792 57.1638 749.792 Q56.8932 749.792 56.5551 749.68 Q56.1944 749.567 55.766 749.319 Q55.3377 749.048 55.0221 748.485 Q54.7065 747.921 54.6614 747.155 Q54.5036 747.312 54.481 747.357 Q54.2105 747.696 54.1203 748.327 Q54.0752 748.417 54.0752 748.733 Q54.0752 750.288 55.225 751.866 Q56.3522 753.422 58.4939 755.338 Q60.9963 757.75 61.9206 759.306 Q62.8223 752.475 66.7676 752.475 Q67.4213 752.475 68.2104 752.655 Q69.6983 753.016 70.7804 753.016 Q72.9446 753.016 72.9446 751.551 Q72.9446 750.13 71.5018 749.229 Q70.059 748.304 67.241 747.538 Q66.7225 747.425 66.5647 747.312 Q66.4069 747.2 66.4069 746.884 Q66.4069 746.32 66.8577 746.32 Q69.4954 746.839 71.5244 747.989 Q73.9817 749.454 73.9817 751.641 Q73.9817 753.467 72.7192 754.684 Q71.4342 755.879 69.4052 755.879 Q68.9092 755.879 67.782 755.699 Q67.3312 755.564 66.8126 755.564 Q65.7531 755.564 64.964 756.15 Q64.1524 756.736 63.7466 757.683 Q63.3409 758.63 63.1605 759.419 Q62.9576 760.185 62.89 760.929 Q72.4261 763.183 73.0123 763.499 Q73.4181 763.702 73.6886 764.153 Q73.9817 764.604 73.9817 765.077 Q73.9817 765.528 73.6661 765.979 Q73.373 766.407 72.6741 766.407 Q72.3134 766.407 71.6596 766.227 L45.0576 759.531 L44.1558 759.396 Q43.8853 759.396 43.75 759.509 Q43.5922 759.599 43.4795 760.14 Q43.3668 760.658 43.3668 761.696 Q43.3668 762.124 43.3442 762.327 Q43.3217 762.507 43.209 762.665 Q43.0737 762.823 42.8032 762.823 Q42.4199 762.823 42.217 762.665 Q41.9916 762.485 41.9465 762.349 Q41.9014 762.214 41.8789 761.944 Q41.8563 761.56 41.7436 760.275 Q41.6083 758.99 41.5182 757.886 Q41.428 756.781 41.428 756.307 Q41.428 756.037 41.5633 755.902 Q41.676 755.744 41.8112 755.721 L41.924 755.699 L61.4021 760.501 Q60.613 758.517 57.1187 755.383 Q53.0607 751.754 53.0607 748.642 Q53.0607 747.177 53.9625 746.343 Q54.8417 745.509 55.9689 745.509 Z" fill="#000000" fill-rule="nonzero" fill-opacity="1" /><path clip-path="url(#clip290)" d="M632.949 65.6895 L646.317 65.6895 L646.317 19.5497 L631.775 22.4663 L631.775 15.0127 L646.236 12.096 L654.419 12.096 L654.419 65.6895 L667.787 65.6895 L667.787 72.576 L632.949 72.576 L632.949 65.6895 Z" fill="#000000" fill-rule="nonzero" fill-opacity="1" /><path clip-path="url(#clip290)" d="M684.396 12.096 L716.52 12.096 L716.52 18.9825 L691.89 18.9825 L691.89 33.8088 Q693.672 33.2012 695.455 32.9176 Q697.237 32.5936 699.02 32.5936 Q709.147 32.5936 715.061 38.1433 Q720.976 43.6931 720.976 53.1722 Q720.976 62.9348 714.899 68.3631 Q708.823 73.7508 697.764 73.7508 Q693.956 73.7508 689.986 73.1026 Q686.057 72.4545 681.844 71.1582 L681.844 62.9348 Q685.49 64.9198 689.379 65.892 Q693.267 66.8642 697.602 66.8642 Q704.61 66.8642 708.701 63.1779 Q712.793 59.4916 712.793 53.1722 Q712.793 46.8528 708.701 43.1664 Q704.61 39.4801 697.602 39.4801 Q694.321 39.4801 691.039 40.2093 Q687.799 40.9384 684.396 42.4778 L684.396 12.096 Z" fill="#000000" fill-rule="nonzero" fill-opacity="1" /><path clip-path="url(#clip290)" d="M791.34 28.5427 L791.34 35.5912 Q788.18 33.9709 784.777 33.1607 Q781.375 32.3505 777.729 32.3505 Q772.179 32.3505 769.384 34.0519 Q766.629 35.7533 766.629 39.156 Q766.629 41.7486 768.614 43.2475 Q770.599 44.7058 776.594 46.0426 L779.147 46.6097 Q787.086 48.3111 790.408 51.4303 Q793.77 54.509 793.77 60.0587 Q793.77 66.3781 788.747 70.0644 Q783.765 73.7508 775.015 73.7508 Q771.369 73.7508 767.399 73.0216 Q763.47 72.3329 759.095 70.9151 L759.095 63.2184 Q763.227 65.3654 767.237 66.4591 Q771.247 67.5124 775.177 67.5124 Q780.443 67.5124 783.278 65.73 Q786.114 63.9071 786.114 60.6258 Q786.114 57.5877 784.048 55.9673 Q782.023 54.3469 775.096 52.8481 L772.503 52.2405 Q765.576 50.7821 762.497 47.7845 Q759.419 44.7463 759.419 39.4801 Q759.419 33.0797 763.956 29.5959 Q768.493 26.1121 776.838 26.1121 Q780.969 26.1121 784.615 26.7198 Q788.261 27.3274 791.34 28.5427 Z" fill="#000000" fill-rule="nonzero" fill-opacity="1" /><path clip-path="url(#clip290)" d="M805.639 27.2059 L813.093 27.2059 L813.093 72.576 L805.639 72.576 L805.639 27.2059 M805.639 9.54393 L813.093 9.54393 L813.093 18.9825 L805.639 18.9825 L805.639 9.54393 Z" fill="#000000" fill-rule="nonzero" fill-opacity="1" /><path clip-path="url(#clip290)" d="M866.403 45.1919 L866.403 72.576 L858.949 72.576 L858.949 45.4349 Q858.949 38.994 856.438 35.7938 Q853.926 32.5936 848.903 32.5936 Q842.867 32.5936 839.384 36.4419 Q835.9 40.2903 835.9 46.9338 L835.9 72.576 L828.406 72.576 L828.406 27.2059 L835.9 27.2059 L835.9 34.2544 Q838.573 30.163 842.179 28.1376 Q845.824 26.1121 850.564 26.1121 Q858.382 26.1121 862.393 30.9732 Q866.403 35.7938 866.403 45.1919 Z" fill="#000000" fill-rule="nonzero" fill-opacity="1" /><path clip-path="url(#clip290)" d="M911.125 49.3643 Q911.125 41.2625 907.763 36.8065 Q904.441 32.3505 898.405 32.3505 Q892.41 32.3505 889.048 36.8065 Q885.726 41.2625 885.726 49.3643 Q885.726 57.4256 889.048 61.8816 Q892.41 66.3376 898.405 66.3376 Q904.441 66.3376 907.763 61.8816 Q911.125 57.4256 911.125 49.3643 M918.579 66.9452 Q918.579 78.5308 913.434 84.1616 Q908.289 89.8329 897.676 89.8329 Q893.747 89.8329 890.263 89.2252 Q886.779 88.6581 883.498 87.4428 L883.498 80.1917 Q886.779 81.9741 889.979 82.8248 Q893.18 83.6755 896.501 83.6755 Q903.833 83.6755 907.479 79.8271 Q911.125 76.0193 911.125 68.282 L911.125 64.5957 Q908.816 68.6061 905.211 70.5911 Q901.605 72.576 896.582 72.576 Q888.237 72.576 883.133 66.2161 Q878.029 59.8562 878.029 49.3643 Q878.029 38.832 883.133 32.472 Q888.237 26.1121 896.582 26.1121 Q901.605 26.1121 905.211 28.0971 Q908.816 30.082 911.125 34.0924 L911.125 27.2059 L918.579 27.2059 L918.579 66.9452 Z" fill="#000000" fill-rule="nonzero" fill-opacity="1" /><path clip-path="url(#clip290)" d="M933.162 54.671 L933.162 27.2059 L940.616 27.2059 L940.616 54.3874 Q940.616 60.8284 943.127 64.0691 Q945.639 67.2693 950.662 67.2693 Q956.698 67.2693 960.181 63.421 Q963.706 59.5726 963.706 52.9291 L963.706 27.2059 L971.159 27.2059 L971.159 72.576 L963.706 72.576 L963.706 65.6084 Q960.992 69.7404 957.386 71.7658 Q953.822 73.7508 949.082 73.7508 Q941.264 73.7508 937.213 68.8897 Q933.162 64.0286 933.162 54.671 M951.918 26.1121 L951.918 26.1121 Z" fill="#000000" fill-rule="nonzero" fill-opacity="1" /><path clip-path="url(#clip290)" d="M986.512 9.54393 L993.966 9.54393 L993.966 72.576 L986.512 72.576 L986.512 9.54393 Z" fill="#000000" fill-rule="nonzero" fill-opacity="1" /><path clip-path="url(#clip290)" d="M1030.18 49.7694 Q1021.15 49.7694 1017.66 51.8354 Q1014.18 53.9013 1014.18 58.8839 Q1014.18 62.8538 1016.77 65.2034 Q1019.41 67.5124 1023.9 67.5124 Q1030.1 67.5124 1033.83 63.1374 Q1037.59 58.7219 1037.59 51.4303 L1037.59 49.7694 L1030.18 49.7694 M1045.05 46.6907 L1045.05 72.576 L1037.59 72.576 L1037.59 65.6895 Q1035.04 69.8214 1031.23 71.8063 Q1027.43 73.7508 1021.92 73.7508 Q1014.95 73.7508 1010.82 69.8619 Q1006.73 65.9325 1006.73 59.3701 Q1006.73 51.7138 1011.83 47.825 Q1016.98 43.9361 1027.14 43.9361 L1037.59 43.9361 L1037.59 43.2069 Q1037.59 38.0623 1034.19 35.2672 Q1030.83 32.4315 1024.71 32.4315 Q1020.82 32.4315 1017.14 33.3632 Q1013.45 34.295 1010.05 36.1584 L1010.05 29.2718 Q1014.14 27.692 1017.99 26.9223 Q1021.84 26.1121 1025.48 26.1121 Q1035.33 26.1121 1040.19 31.2163 Q1045.05 36.3204 1045.05 46.6907 Z" fill="#000000" fill-rule="nonzero" fill-opacity="1" /><path clip-path="url(#clip290)" d="M1086.69 34.1734 Q1085.44 33.4443 1083.94 33.1202 Q1082.48 32.7556 1080.7 32.7556 Q1074.38 32.7556 1070.97 36.8875 Q1067.61 40.9789 1067.61 48.6757 L1067.61 72.576 L1060.12 72.576 L1060.12 27.2059 L1067.61 27.2059 L1067.61 34.2544 Q1069.96 30.1225 1073.73 28.1376 Q1077.5 26.1121 1082.88 26.1121 Q1083.65 26.1121 1084.58 26.2337 Q1085.52 26.3147 1086.65 26.5172 L1086.69 34.1734 Z" fill="#000000" fill-rule="nonzero" fill-opacity="1" /><path clip-path="url(#clip290)" d="M1115.53 27.2059 L1123.43 27.2059 L1137.61 65.2844 L1151.79 27.2059 L1159.69 27.2059 L1142.67 72.576 L1132.55 72.576 L1115.53 27.2059 Z" fill="#000000" fill-rule="nonzero" fill-opacity="1" /><path clip-path="url(#clip290)" d="M1190.6 49.7694 Q1181.56 49.7694 1178.08 51.8354 Q1174.6 53.9013 1174.6 58.8839 Q1174.6 62.8538 1177.19 65.2034 Q1179.82 67.5124 1184.32 67.5124 Q1190.52 67.5124 1194.24 63.1374 Q1198.01 58.7219 1198.01 51.4303 L1198.01 49.7694 L1190.6 49.7694 M1205.46 46.6907 L1205.46 72.576 L1198.01 72.576 L1198.01 65.6895 Q1195.46 69.8214 1191.65 71.8063 Q1187.84 73.7508 1182.33 73.7508 Q1175.37 73.7508 1171.23 69.8619 Q1167.14 65.9325 1167.14 59.3701 Q1167.14 51.7138 1172.25 47.825 Q1177.39 43.9361 1187.56 43.9361 L1198.01 43.9361 L1198.01 43.2069 Q1198.01 38.0623 1194.61 35.2672 Q1191.25 32.4315 1185.13 32.4315 Q1181.24 32.4315 1177.55 33.3632 Q1173.87 34.295 1170.46 36.1584 L1170.46 29.2718 Q1174.56 27.692 1178.4 26.9223 Q1182.25 26.1121 1185.9 26.1121 Q1195.74 26.1121 1200.6 31.2163 Q1205.46 36.3204 1205.46 46.6907 Z" fill="#000000" fill-rule="nonzero" fill-opacity="1" /><path clip-path="url(#clip290)" d="M1220.82 9.54393 L1228.27 9.54393 L1228.27 72.576 L1220.82 72.576 L1220.82 9.54393 Z" fill="#000000" fill-rule="nonzero" fill-opacity="1" /><path clip-path="url(#clip290)" d="M1243.1 54.671 L1243.1 27.2059 L1250.55 27.2059 L1250.55 54.3874 Q1250.55 60.8284 1253.06 64.0691 Q1255.57 67.2693 1260.6 67.2693 Q1266.63 67.2693 1270.12 63.421 Q1273.64 59.5726 1273.64 52.9291 L1273.64 27.2059 L1281.09 27.2059 L1281.09 72.576 L1273.64 72.576 L1273.64 65.6084 Q1270.93 69.7404 1267.32 71.7658 Q1263.76 73.7508 1259.02 73.7508 Q1251.2 73.7508 1247.15 68.8897 Q1243.1 64.0286 1243.1 54.671 M1261.85 26.1121 L1261.85 26.1121 Z" fill="#000000" fill-rule="nonzero" fill-opacity="1" /><path clip-path="url(#clip290)" d="M1335.25 48.0275 L1335.25 51.6733 L1300.98 51.6733 Q1301.47 59.3701 1305.6 63.421 Q1309.77 67.4314 1317.19 67.4314 Q1321.48 67.4314 1325.49 66.3781 Q1329.54 65.3249 1333.51 63.2184 L1333.51 70.267 Q1329.5 71.9684 1325.29 72.8596 Q1321.08 73.7508 1316.74 73.7508 Q1305.89 73.7508 1299.53 67.4314 Q1293.21 61.1119 1293.21 50.3365 Q1293.21 39.1965 1299.2 32.6746 Q1305.24 26.1121 1315.45 26.1121 Q1324.6 26.1121 1329.91 32.0264 Q1335.25 37.9003 1335.25 48.0275 M1327.8 45.84 Q1327.72 39.7232 1324.36 36.0774 Q1321.04 32.4315 1315.53 32.4315 Q1309.29 32.4315 1305.52 35.9558 Q1301.79 39.4801 1301.23 45.8805 L1327.8 45.84 Z" fill="#000000" fill-rule="nonzero" fill-opacity="1" /><path clip-path="url(#clip290)" d="M1376.41 28.5427 L1376.41 35.5912 Q1373.25 33.9709 1369.85 33.1607 Q1366.45 32.3505 1362.8 32.3505 Q1357.25 32.3505 1354.46 34.0519 Q1351.7 35.7533 1351.7 39.156 Q1351.7 41.7486 1353.69 43.2475 Q1355.67 44.7058 1361.67 46.0426 L1364.22 46.6097 Q1372.16 48.3111 1375.48 51.4303 Q1378.84 54.509 1378.84 60.0587 Q1378.84 66.3781 1373.82 70.0644 Q1368.84 73.7508 1360.09 73.7508 Q1356.44 73.7508 1352.47 73.0216 Q1348.54 72.3329 1344.17 70.9151 L1344.17 63.2184 Q1348.3 65.3654 1352.31 66.4591 Q1356.32 67.5124 1360.25 67.5124 Q1365.51 67.5124 1368.35 65.73 Q1371.19 63.9071 1371.19 60.6258 Q1371.19 57.5877 1369.12 55.9673 Q1367.09 54.3469 1360.17 52.8481 L1357.58 52.2405 Q1350.65 50.7821 1347.57 47.7845 Q1344.49 44.7463 1344.49 39.4801 Q1344.49 33.0797 1349.03 29.5959 Q1353.56 26.1121 1361.91 26.1121 Q1366.04 26.1121 1369.69 26.7198 Q1373.33 27.3274 1376.41 28.5427 Z" fill="#000000" fill-rule="nonzero" fill-opacity="1" /><path clip-path="url(#clip290)" d="M1434.99 9.62495 Q1429.56 18.942 1426.93 28.0566 Q1424.29 37.1711 1424.29 46.5287 Q1424.29 55.8863 1426.93 65.0818 Q1429.6 74.2369 1434.99 83.5134 L1428.51 83.5134 Q1422.43 73.9938 1419.39 64.7983 Q1416.39 55.6027 1416.39 46.5287 Q1416.39 37.4952 1419.39 28.3401 Q1422.39 19.1851 1428.51 9.62495 L1434.99 9.62495 Z" fill="#000000" fill-rule="nonzero" fill-opacity="1" /><path clip-path="url(#clip290)" d="M1448.68 54.671 L1448.68 27.2059 L1456.13 27.2059 L1456.13 54.3874 Q1456.13 60.8284 1458.65 64.0691 Q1461.16 67.2693 1466.18 67.2693 Q1472.22 67.2693 1475.7 63.421 Q1479.22 59.5726 1479.22 52.9291 L1479.22 27.2059 L1486.68 27.2059 L1486.68 72.576 L1479.22 72.576 L1479.22 65.6084 Q1476.51 69.7404 1472.9 71.7658 Q1469.34 73.7508 1464.6 73.7508 Q1456.78 73.7508 1452.73 68.8897 Q1448.68 64.0286 1448.68 54.671 M1467.44 26.1121 L1467.44 26.1121 Z" fill="#000000" fill-rule="nonzero" fill-opacity="1" /><path clip-path="url(#clip290)" d="M1539.74 45.1919 L1539.74 72.576 L1532.29 72.576 L1532.29 45.4349 Q1532.29 38.994 1529.78 35.7938 Q1527.27 32.5936 1522.24 32.5936 Q1516.21 32.5936 1512.72 36.4419 Q1509.24 40.2903 1509.24 46.9338 L1509.24 72.576 L1501.75 72.576 L1501.75 27.2059 L1509.24 27.2059 L1509.24 34.2544 Q1511.91 30.163 1515.52 28.1376 Q1519.17 26.1121 1523.91 26.1121 Q1531.72 26.1121 1535.73 30.9732 Q1539.74 35.7938 1539.74 45.1919 Z" fill="#000000" fill-rule="nonzero" fill-opacity="1" /><path clip-path="url(#clip290)" d="M1572.19 32.4315 Q1566.2 32.4315 1562.71 37.1306 Q1559.23 41.7891 1559.23 49.9314 Q1559.23 58.0738 1562.67 62.7728 Q1566.16 67.4314 1572.19 67.4314 Q1578.15 67.4314 1581.63 62.7323 Q1585.11 58.0333 1585.11 49.9314 Q1585.11 41.8701 1581.63 37.1711 Q1578.15 32.4315 1572.19 32.4315 M1572.19 26.1121 Q1581.91 26.1121 1587.46 32.4315 Q1593.01 38.7509 1593.01 49.9314 Q1593.01 61.0714 1587.46 67.4314 Q1581.91 73.7508 1572.19 73.7508 Q1562.43 73.7508 1556.88 67.4314 Q1551.37 61.0714 1551.37 49.9314 Q1551.37 38.7509 1556.88 32.4315 Q1562.43 26.1121 1572.19 26.1121 Z" fill="#000000" fill-rule="nonzero" fill-opacity="1" /><path clip-path="url(#clip290)" d="M1631.66 34.1734 Q1630.4 33.4443 1628.9 33.1202 Q1627.45 32.7556 1625.66 32.7556 Q1619.34 32.7556 1615.94 36.8875 Q1612.58 40.9789 1612.58 48.6757 L1612.58 72.576 L1605.09 72.576 L1605.09 27.2059 L1612.58 27.2059 L1612.58 34.2544 Q1614.93 30.1225 1618.7 28.1376 Q1622.46 26.1121 1627.85 26.1121 Q1628.62 26.1121 1629.55 26.2337 Q1630.48 26.3147 1631.62 26.5172 L1631.66 34.1734 Z" fill="#000000" fill-rule="nonzero" fill-opacity="1" /><path clip-path="url(#clip290)" d="M1667.87 34.0924 L1667.87 9.54393 L1675.33 9.54393 L1675.33 72.576 L1667.87 72.576 L1667.87 65.7705 Q1665.52 69.8214 1661.92 71.8063 Q1658.35 73.7508 1653.33 73.7508 Q1645.11 73.7508 1639.92 67.1883 Q1634.78 60.6258 1634.78 49.9314 Q1634.78 39.2371 1639.92 32.6746 Q1645.11 26.1121 1653.33 26.1121 Q1658.35 26.1121 1661.92 28.0971 Q1665.52 30.0415 1667.87 34.0924 M1642.48 49.9314 Q1642.48 58.1548 1645.84 62.8538 Q1649.24 67.5124 1655.15 67.5124 Q1661.07 67.5124 1664.47 62.8538 Q1667.87 58.1548 1667.87 49.9314 Q1667.87 41.7081 1664.47 37.0496 Q1661.07 32.3505 1655.15 32.3505 Q1649.24 32.3505 1645.84 37.0496 Q1642.48 41.7081 1642.48 49.9314 Z" fill="#000000" fill-rule="nonzero" fill-opacity="1" /><path clip-path="url(#clip290)" d="M1729.49 48.0275 L1729.49 51.6733 L1695.22 51.6733 Q1695.7 59.3701 1699.84 63.421 Q1704.01 67.4314 1711.42 67.4314 Q1715.72 67.4314 1719.73 66.3781 Q1723.78 65.3249 1727.75 63.2184 L1727.75 70.267 Q1723.74 71.9684 1719.52 72.8596 Q1715.31 73.7508 1710.98 73.7508 Q1700.12 73.7508 1693.76 67.4314 Q1687.44 61.1119 1687.44 50.3365 Q1687.44 39.1965 1693.44 32.6746 Q1699.47 26.1121 1709.68 26.1121 Q1718.83 26.1121 1724.14 32.0264 Q1729.49 37.9003 1729.49 48.0275 M1722.04 45.84 Q1721.95 39.7232 1718.59 36.0774 Q1715.27 32.4315 1709.76 32.4315 Q1703.52 32.4315 1699.76 35.9558 Q1696.03 39.4801 1695.46 45.8805 L1722.04 45.84 Z" fill="#000000" fill-rule="nonzero" fill-opacity="1" /><path clip-path="url(#clip290)" d="M1768.01 34.1734 Q1766.76 33.4443 1765.26 33.1202 Q1763.8 32.7556 1762.02 32.7556 Q1755.7 32.7556 1752.3 36.8875 Q1748.93 40.9789 1748.93 48.6757 L1748.93 72.576 L1741.44 72.576 L1741.44 27.2059 L1748.93 27.2059 L1748.93 34.2544 Q1751.28 30.1225 1755.05 28.1376 Q1758.82 26.1121 1764.2 26.1121 Q1764.97 26.1121 1765.91 26.2337 Q1766.84 26.3147 1767.97 26.5172 L1768.01 34.1734 Z" fill="#000000" fill-rule="nonzero" fill-opacity="1" /><path clip-path="url(#clip290)" d="M1812.82 48.0275 L1812.82 51.6733 L1778.55 51.6733 Q1779.03 59.3701 1783.16 63.421 Q1787.34 67.4314 1794.75 67.4314 Q1799.04 67.4314 1803.05 66.3781 Q1807.1 65.3249 1811.07 63.2184 L1811.07 70.267 Q1807.06 71.9684 1802.85 72.8596 Q1798.64 73.7508 1794.3 73.7508 Q1783.45 73.7508 1777.09 67.4314 Q1770.77 61.1119 1770.77 50.3365 Q1770.77 39.1965 1776.76 32.6746 Q1782.8 26.1121 1793.01 26.1121 Q1802.16 26.1121 1807.47 32.0264 Q1812.82 37.9003 1812.82 48.0275 M1805.36 45.84 Q1805.28 39.7232 1801.92 36.0774 Q1798.6 32.4315 1793.09 32.4315 Q1786.85 32.4315 1783.08 35.9558 Q1779.36 39.4801 1778.79 45.8805 L1805.36 45.84 Z" fill="#000000" fill-rule="nonzero" fill-opacity="1" /><path clip-path="url(#clip290)" d="M1854.9 34.0924 L1854.9 9.54393 L1862.36 9.54393 L1862.36 72.576 L1854.9 72.576 L1854.9 65.7705 Q1852.56 69.8214 1848.95 71.8063 Q1845.39 73.7508 1840.36 73.7508 Q1832.14 73.7508 1826.95 67.1883 Q1821.81 60.6258 1821.81 49.9314 Q1821.81 39.2371 1826.95 32.6746 Q1832.14 26.1121 1840.36 26.1121 Q1845.39 26.1121 1848.95 28.0971 Q1852.56 30.0415 1854.9 34.0924 M1829.51 49.9314 Q1829.51 58.1548 1832.87 62.8538 Q1836.27 67.5124 1842.18 67.5124 Q1848.1 67.5124 1851.5 62.8538 Q1854.9 58.1548 1854.9 49.9314 Q1854.9 41.7081 1851.5 37.0496 Q1848.1 32.3505 1842.18 32.3505 Q1836.27 32.3505 1832.87 37.0496 Q1829.51 41.7081 1829.51 49.9314 Z" fill="#000000" fill-rule="nonzero" fill-opacity="1" /><path clip-path="url(#clip290)" d="M1876.54 9.62495 L1883.02 9.62495 Q1889.09 19.1851 1892.09 28.3401 Q1895.13 37.4952 1895.13 46.5287 Q1895.13 55.6027 1892.09 64.7983 Q1889.09 73.9938 1883.02 83.5134 L1876.54 83.5134 Q1881.92 74.2369 1884.56 65.0818 Q1887.23 55.8863 1887.23 46.5287 Q1887.23 37.1711 1884.56 28.0566 Q1881.92 18.942 1876.54 9.62495 Z" fill="#000000" fill-rule="nonzero" fill-opacity="1" /><circle clip-path="url(#clip291)" cx="235.808" cy="1266.21" r="14.4" fill="#ff0000" fill-rule="evenodd" fill-opacity="1" stroke="none"/>
<circle clip-path="url(#clip291)" cx="382.614" cy="1147.19" r="14.4" fill="#ff0000" fill-rule="evenodd" fill-opacity="1" stroke="none"/>
<circle clip-path="url(#clip291)" cx="529.42" cy="1030.47" r="14.4" fill="#ff0000" fill-rule="evenodd" fill-opacity="1" stroke="none"/>
<circle clip-path="url(#clip291)" cx="676.227" cy="917.172" r="14.4" fill="#ff0000" fill-rule="evenodd" fill-opacity="1" stroke="none"/>
<circle clip-path="url(#clip291)" cx="823.033" cy="808.398" r="14.4" fill="#ff0000" fill-rule="evenodd" fill-opacity="1" stroke="none"/>
<circle clip-path="url(#clip291)" cx="969.84" cy="705.189" r="14.4" fill="#ff0000" fill-rule="evenodd" fill-opacity="1" stroke="none"/>
<circle clip-path="url(#clip291)" cx="1116.65" cy="608.541" r="14.4" fill="#ff0000" fill-rule="evenodd" fill-opacity="1" stroke="none"/>
<circle clip-path="url(#clip291)" cx="1263.45" cy="519.384" r="14.4" fill="#ff0000" fill-rule="evenodd" fill-opacity="1" stroke="none"/>
<circle clip-path="url(#clip291)" cx="1410.26" cy="438.577" r="14.4" fill="#ff0000" fill-rule="evenodd" fill-opacity="1" stroke="none"/>
<circle clip-path="url(#clip291)" cx="1557.07" cy="366.898" r="14.4" fill="#ff0000" fill-rule="evenodd" fill-opacity="1" stroke="none"/>
<circle clip-path="url(#clip291)" cx="1703.87" cy="305.037" r="14.4" fill="#ff0000" fill-rule="evenodd" fill-opacity="1" stroke="none"/>
<circle clip-path="url(#clip291)" cx="1850.68" cy="253.591" r="14.4" fill="#ff0000" fill-rule="evenodd" fill-opacity="1" stroke="none"/>
<circle clip-path="url(#clip291)" cx="1997.48" cy="213.053" r="14.4" fill="#ff0000" fill-rule="evenodd" fill-opacity="1" stroke="none"/>
<circle clip-path="url(#clip291)" cx="2144.29" cy="183.816" r="14.4" fill="#ff0000" fill-rule="evenodd" fill-opacity="1" stroke="none"/>
<circle clip-path="url(#clip291)" cx="2291.1" cy="166.161" r="14.4" fill="#ff0000" fill-rule="evenodd" fill-opacity="1" stroke="none"/>
</svg>
