<?xml version="1.0" encoding="utf-8"?>
<svg xmlns="http://www.w3.org/2000/svg" xmlns:xlink="http://www.w3.org/1999/xlink" width="600" height="400" viewBox="0 0 2400 1600">
<defs>
  <clipPath id="clip230">
    <rect x="0" y="0" width="2400" height="1600"/>
  </clipPath>
</defs>
<path clip-path="url(#clip230)" d="M0 1600 L2400 1600 L2400 0 L0 0  Z" fill="#ffffff" fill-rule="evenodd" fill-opacity="1"/>
<defs>
  <clipPath id="clip231">
    <rect x="256" y="123" width="2098" height="1301"/>
  </clipPath>
</defs>
<path clip-path="url(#clip230)" d="M256.209 1423.18 L2352.76 1423.18 L2352.76 123.472 L256.209 123.472  Z" fill="#ffffff" fill-rule="evenodd" fill-opacity="1"/>
<polyline clip-path="url(#clip231)" style="stroke:#000000; stroke-linecap:round; stroke-linejoin:round; stroke-width:2; stroke-opacity:0.1; fill:none" points="315.545,1423.18 315.545,123.472 "/>
<polyline clip-path="url(#clip231)" style="stroke:#000000; stroke-linecap:round; stroke-linejoin:round; stroke-width:2; stroke-opacity:0.1; fill:none" points="447.403,1423.18 447.403,123.472 "/>
<polyline clip-path="url(#clip231)" style="stroke:#000000; stroke-linecap:round; stroke-linejoin:round; stroke-width:2; stroke-opacity:0.1; fill:none" points="579.262,1423.18 579.262,123.472 "/>
<polyline clip-path="url(#clip231)" style="stroke:#000000; stroke-linecap:round; stroke-linejoin:round; stroke-width:2; stroke-opacity:0.1; fill:none" points="711.12,1423.18 711.12,123.472 "/>
<polyline clip-path="url(#clip231)" style="stroke:#000000; stroke-linecap:round; stroke-linejoin:round; stroke-width:2; stroke-opacity:0.1; fill:none" points="842.978,1423.18 842.978,123.472 "/>
<polyline clip-path="url(#clip231)" style="stroke:#000000; stroke-linecap:round; stroke-linejoin:round; stroke-width:2; stroke-opacity:0.1; fill:none" points="974.836,1423.18 974.836,123.472 "/>
<polyline clip-path="url(#clip231)" style="stroke:#000000; stroke-linecap:round; stroke-linejoin:round; stroke-width:2; stroke-opacity:0.1; fill:none" points="1106.69,1423.18 1106.69,123.472 "/>
<polyline clip-path="url(#clip231)" style="stroke:#000000; stroke-linecap:round; stroke-linejoin:round; stroke-width:2; stroke-opacity:0.1; fill:none" points="1238.55,1423.18 1238.55,123.472 "/>
<polyline clip-path="url(#clip231)" style="stroke:#000000; stroke-linecap:round; stroke-linejoin:round; stroke-width:2; stroke-opacity:0.1; fill:none" points="1370.41,1423.18 1370.41,123.472 "/>
<polyline clip-path="url(#clip231)" style="stroke:#000000; stroke-linecap:round; stroke-linejoin:round; stroke-width:2; stroke-opacity:0.1; fill:none" points="1502.27,1423.18 1502.27,123.472 "/>
<polyline clip-path="url(#clip231)" style="stroke:#000000; stroke-linecap:round; stroke-linejoin:round; stroke-width:2; stroke-opacity:0.1; fill:none" points="1634.13,1423.18 1634.13,123.472 "/>
<polyline clip-path="url(#clip231)" style="stroke:#000000; stroke-linecap:round; stroke-linejoin:round; stroke-width:2; stroke-opacity:0.1; fill:none" points="1765.99,1423.18 1765.99,123.472 "/>
<polyline clip-path="url(#clip231)" style="stroke:#000000; stroke-linecap:round; stroke-linejoin:round; stroke-width:2; stroke-opacity:0.1; fill:none" points="1897.84,1423.18 1897.84,123.472 "/>
<polyline clip-path="url(#clip231)" style="stroke:#000000; stroke-linecap:round; stroke-linejoin:round; stroke-width:2; stroke-opacity:0.1; fill:none" points="2029.7,1423.18 2029.7,123.472 "/>
<polyline clip-path="url(#clip231)" style="stroke:#000000; stroke-linecap:round; stroke-linejoin:round; stroke-width:2; stroke-opacity:0.1; fill:none" points="2161.56,1423.18 2161.56,123.472 "/>
<polyline clip-path="url(#clip231)" style="stroke:#000000; stroke-linecap:round; stroke-linejoin:round; stroke-width:2; stroke-opacity:0.1; fill:none" points="2293.42,1423.18 2293.42,123.472 "/>
<polyline clip-path="url(#clip231)" style="stroke:#000000; stroke-linecap:round; stroke-linejoin:round; stroke-width:2; stroke-opacity:0.1; fill:none" points="256.209,1386.4 2352.76,1386.4 "/>
<polyline clip-path="url(#clip231)" style="stroke:#000000; stroke-linecap:round; stroke-linejoin:round; stroke-width:2; stroke-opacity:0.1; fill:none" points="256.209,773.326 2352.76,773.326 "/>
<polyline clip-path="url(#clip231)" style="stroke:#000000; stroke-linecap:round; stroke-linejoin:round; stroke-width:2; stroke-opacity:0.1; fill:none" points="256.209,160.256 2352.76,160.256 "/>
<polyline clip-path="url(#clip230)" style="stroke:#000000; stroke-linecap:round; stroke-linejoin:round; stroke-width:4; stroke-opacity:1; fill:none" points="256.209,1423.18 2352.76,1423.18 "/>
<polyline clip-path="url(#clip230)" style="stroke:#000000; stroke-linecap:round; stroke-linejoin:round; stroke-width:4; stroke-opacity:1; fill:none" points="315.545,1423.18 315.545,1404.28 "/>
<polyline clip-path="url(#clip230)" style="stroke:#000000; stroke-linecap:round; stroke-linejoin:round; stroke-width:4; stroke-opacity:1; fill:none" points="447.403,1423.18 447.403,1404.28 "/>
<polyline clip-path="url(#clip230)" style="stroke:#000000; stroke-linecap:round; stroke-linejoin:round; stroke-width:4; stroke-opacity:1; fill:none" points="579.262,1423.18 579.262,1404.28 "/>
<polyline clip-path="url(#clip230)" style="stroke:#000000; stroke-linecap:round; stroke-linejoin:round; stroke-width:4; stroke-opacity:1; fill:none" points="711.12,1423.18 711.12,1404.28 "/>
<polyline clip-path="url(#clip230)" style="stroke:#000000; stroke-linecap:round; stroke-linejoin:round; stroke-width:4; stroke-opacity:1; fill:none" points="842.978,1423.18 842.978,1404.28 "/>
<polyline clip-path="url(#clip230)" style="stroke:#000000; stroke-linecap:round; stroke-linejoin:round; stroke-width:4; stroke-opacity:1; fill:none" points="974.836,1423.18 974.836,1404.28 "/>
<polyline clip-path="url(#clip230)" style="stroke:#000000; stroke-linecap:round; stroke-linejoin:round; stroke-width:4; stroke-opacity:1; fill:none" points="1106.69,1423.18 1106.69,1404.28 "/>
<polyline clip-path="url(#clip230)" style="stroke:#000000; stroke-linecap:round; stroke-linejoin:round; stroke-width:4; stroke-opacity:1; fill:none" points="1238.55,1423.18 1238.55,1404.28 "/>
<polyline clip-path="url(#clip230)" style="stroke:#000000; stroke-linecap:round; stroke-linejoin:round; stroke-width:4; stroke-opacity:1; fill:none" points="1370.41,1423.18 1370.41,1404.28 "/>
<polyline clip-path="url(#clip230)" style="stroke:#000000; stroke-linecap:round; stroke-linejoin:round; stroke-width:4; stroke-opacity:1; fill:none" points="1502.27,1423.18 1502.27,1404.28 "/>
<polyline clip-path="url(#clip230)" style="stroke:#000000; stroke-linecap:round; stroke-linejoin:round; stroke-width:4; stroke-opacity:1; fill:none" points="1634.13,1423.18 1634.13,1404.28 "/>
<polyline clip-path="url(#clip230)" style="stroke:#000000; stroke-linecap:round; stroke-linejoin:round; stroke-width:4; stroke-opacity:1; fill:none" points="1765.99,1423.18 1765.99,1404.28 "/>
<polyline clip-path="url(#clip230)" style="stroke:#000000; stroke-linecap:round; stroke-linejoin:round; stroke-width:4; stroke-opacity:1; fill:none" points="1897.84,1423.18 1897.84,1404.28 "/>
<polyline clip-path="url(#clip230)" style="stroke:#000000; stroke-linecap:round; stroke-linejoin:round; stroke-width:4; stroke-opacity:1; fill:none" points="2029.7,1423.18 2029.7,1404.28 "/>
<polyline clip-path="url(#clip230)" style="stroke:#000000; stroke-linecap:round; stroke-linejoin:round; stroke-width:4; stroke-opacity:1; fill:none" points="2161.56,1423.18 2161.56,1404.28 "/>
<polyline clip-path="url(#clip230)" style="stroke:#000000; stroke-linecap:round; stroke-linejoin:round; stroke-width:4; stroke-opacity:1; fill:none" points="2293.42,1423.18 2293.42,1404.28 "/>
<path clip-path="url(#clip230)" d="M305.927 1481.64 L313.566 1481.64 L313.566 1455.28 L305.256 1456.95 L305.256 1452.69 L313.519 1451.02 L318.195 1451.02 L318.195 1481.64 L325.834 1481.64 L325.834 1485.58 L305.927 1485.58 L305.927 1481.64 Z" fill="#000000" fill-rule="nonzero" fill-opacity="1" /><path clip-path="url(#clip230)" d="M442.056 1481.64 L458.375 1481.64 L458.375 1485.58 L436.431 1485.58 L436.431 1481.64 Q439.093 1478.89 443.676 1474.26 Q448.283 1469.61 449.463 1468.27 Q451.709 1465.74 452.588 1464.01 Q453.491 1462.25 453.491 1460.56 Q453.491 1457.8 451.547 1456.07 Q449.625 1454.33 446.524 1454.33 Q444.325 1454.33 441.871 1455.09 Q439.44 1455.86 436.663 1457.41 L436.663 1452.69 Q439.487 1451.55 441.94 1450.97 Q444.394 1450.39 446.431 1450.39 Q451.801 1450.39 454.996 1453.08 Q458.19 1455.77 458.19 1460.26 Q458.19 1462.39 457.38 1464.31 Q456.593 1466.2 454.487 1468.8 Q453.908 1469.47 450.806 1472.69 Q447.704 1475.88 442.056 1481.64 Z" fill="#000000" fill-rule="nonzero" fill-opacity="1" /><path clip-path="url(#clip230)" d="M583.509 1466.95 Q586.866 1467.66 588.741 1469.93 Q590.639 1472.2 590.639 1475.53 Q590.639 1480.65 587.12 1483.45 Q583.602 1486.25 577.12 1486.25 Q574.944 1486.25 572.63 1485.81 Q570.338 1485.39 567.884 1484.54 L567.884 1480.02 Q569.829 1481.16 572.144 1481.74 Q574.458 1482.32 576.981 1482.32 Q581.38 1482.32 583.671 1480.58 Q585.986 1478.84 585.986 1475.53 Q585.986 1472.48 583.833 1470.77 Q581.704 1469.03 577.884 1469.03 L573.856 1469.03 L573.856 1465.19 L578.069 1465.19 Q581.518 1465.19 583.347 1463.82 Q585.176 1462.43 585.176 1459.84 Q585.176 1457.18 583.278 1455.77 Q581.403 1454.33 577.884 1454.33 Q575.963 1454.33 573.764 1454.75 Q571.565 1455.16 568.926 1456.04 L568.926 1451.88 Q571.588 1451.14 573.903 1450.77 Q576.241 1450.39 578.301 1450.39 Q583.625 1450.39 586.727 1452.83 Q589.829 1455.23 589.829 1459.35 Q589.829 1462.22 588.185 1464.21 Q586.542 1466.18 583.509 1466.95 Z" fill="#000000" fill-rule="nonzero" fill-opacity="1" /><path clip-path="url(#clip230)" d="M714.129 1455.09 L702.324 1473.54 L714.129 1473.54 L714.129 1455.09 M712.902 1451.02 L718.782 1451.02 L718.782 1473.54 L723.712 1473.54 L723.712 1477.43 L718.782 1477.43 L718.782 1485.58 L714.129 1485.58 L714.129 1477.43 L698.527 1477.43 L698.527 1472.92 L712.902 1451.02 Z" fill="#000000" fill-rule="nonzero" fill-opacity="1" /><path clip-path="url(#clip230)" d="M833.256 1451.02 L851.612 1451.02 L851.612 1454.96 L837.538 1454.96 L837.538 1463.43 Q838.557 1463.08 839.575 1462.92 Q840.594 1462.73 841.612 1462.73 Q847.399 1462.73 850.779 1465.9 Q854.159 1469.08 854.159 1474.49 Q854.159 1480.07 850.686 1483.17 Q847.214 1486.25 840.895 1486.25 Q838.719 1486.25 836.45 1485.88 Q834.205 1485.51 831.798 1484.77 L831.798 1480.07 Q833.881 1481.2 836.103 1481.76 Q838.325 1482.32 840.802 1482.32 Q844.807 1482.32 847.145 1480.21 Q849.483 1478.1 849.483 1474.49 Q849.483 1470.88 847.145 1468.77 Q844.807 1466.67 840.802 1466.67 Q838.927 1466.67 837.052 1467.08 Q835.2 1467.5 833.256 1468.38 L833.256 1451.02 Z" fill="#000000" fill-rule="nonzero" fill-opacity="1" /><path clip-path="url(#clip230)" d="M975.242 1466.44 Q972.093 1466.44 970.242 1468.59 Q968.413 1470.74 968.413 1474.49 Q968.413 1478.22 970.242 1480.39 Q972.093 1482.55 975.242 1482.55 Q978.39 1482.55 980.218 1480.39 Q982.07 1478.22 982.07 1474.49 Q982.07 1470.74 980.218 1468.59 Q978.39 1466.44 975.242 1466.44 M984.524 1451.78 L984.524 1456.04 Q982.765 1455.21 980.959 1454.77 Q979.177 1454.33 977.417 1454.33 Q972.788 1454.33 970.334 1457.45 Q967.904 1460.58 967.556 1466.9 Q968.922 1464.89 970.982 1463.82 Q973.043 1462.73 975.519 1462.73 Q980.728 1462.73 983.737 1465.9 Q986.769 1469.05 986.769 1474.49 Q986.769 1479.82 983.621 1483.03 Q980.473 1486.25 975.242 1486.25 Q969.246 1486.25 966.075 1481.67 Q962.904 1477.06 962.904 1468.33 Q962.904 1460.14 966.793 1455.28 Q970.681 1450.39 977.232 1450.39 Q978.992 1450.39 980.774 1450.74 Q982.58 1451.09 984.524 1451.78 Z" fill="#000000" fill-rule="nonzero" fill-opacity="1" /><path clip-path="url(#clip230)" d="M1095.58 1451.02 L1117.81 1451.02 L1117.81 1453.01 L1105.26 1485.58 L1100.38 1485.58 L1112.18 1454.96 L1095.58 1454.96 L1095.58 1451.02 Z" fill="#000000" fill-rule="nonzero" fill-opacity="1" /><path clip-path="url(#clip230)" d="M1238.55 1469.17 Q1235.22 1469.17 1233.3 1470.95 Q1231.4 1472.73 1231.4 1475.86 Q1231.4 1478.98 1233.3 1480.77 Q1235.22 1482.55 1238.55 1482.55 Q1241.89 1482.55 1243.81 1480.77 Q1245.73 1478.96 1245.73 1475.86 Q1245.73 1472.73 1243.81 1470.95 Q1241.91 1469.17 1238.55 1469.17 M1233.88 1467.18 Q1230.87 1466.44 1229.18 1464.38 Q1227.51 1462.32 1227.51 1459.35 Q1227.51 1455.21 1230.45 1452.8 Q1233.41 1450.39 1238.55 1450.39 Q1243.72 1450.39 1246.65 1452.8 Q1249.59 1455.21 1249.59 1459.35 Q1249.59 1462.32 1247.9 1464.38 Q1246.24 1466.44 1243.25 1467.18 Q1246.63 1467.96 1248.51 1470.26 Q1250.4 1472.55 1250.4 1475.86 Q1250.4 1480.88 1247.33 1483.57 Q1244.27 1486.25 1238.55 1486.25 Q1232.84 1486.25 1229.76 1483.57 Q1226.7 1480.88 1226.7 1475.86 Q1226.7 1472.55 1228.6 1470.26 Q1230.5 1467.96 1233.88 1467.18 M1232.16 1459.79 Q1232.16 1462.48 1233.83 1463.98 Q1235.52 1465.49 1238.55 1465.49 Q1241.56 1465.49 1243.25 1463.98 Q1244.97 1462.48 1244.97 1459.79 Q1244.97 1457.11 1243.25 1455.6 Q1241.56 1454.1 1238.55 1454.1 Q1235.52 1454.1 1233.83 1455.6 Q1232.16 1457.11 1232.16 1459.79 Z" fill="#000000" fill-rule="nonzero" fill-opacity="1" /><path clip-path="url(#clip230)" d="M1360.71 1484.86 L1360.71 1480.6 Q1362.47 1481.44 1364.28 1481.88 Q1366.08 1482.32 1367.82 1482.32 Q1372.45 1482.32 1374.88 1479.21 Q1377.33 1476.09 1377.68 1469.75 Q1376.34 1471.74 1374.28 1472.8 Q1372.22 1473.87 1369.72 1473.87 Q1364.53 1473.87 1361.5 1470.74 Q1358.49 1467.59 1358.49 1462.15 Q1358.49 1456.83 1361.64 1453.61 Q1364.79 1450.39 1370.02 1450.39 Q1376.01 1450.39 1379.16 1455 Q1382.33 1459.58 1382.33 1468.33 Q1382.33 1476.51 1378.44 1481.39 Q1374.58 1486.25 1368.03 1486.25 Q1366.27 1486.25 1364.46 1485.9 Q1362.66 1485.56 1360.71 1484.86 M1370.02 1470.21 Q1373.17 1470.21 1374.99 1468.06 Q1376.85 1465.9 1376.85 1462.15 Q1376.85 1458.43 1374.99 1456.27 Q1373.17 1454.1 1370.02 1454.1 Q1366.87 1454.1 1365.02 1456.27 Q1363.19 1458.43 1363.19 1462.15 Q1363.19 1465.9 1365.02 1468.06 Q1366.87 1470.21 1370.02 1470.21 Z" fill="#000000" fill-rule="nonzero" fill-opacity="1" /><path clip-path="url(#clip230)" d="M1476.96 1481.64 L1484.6 1481.64 L1484.6 1455.28 L1476.29 1456.95 L1476.29 1452.69 L1484.55 1451.02 L1489.23 1451.02 L1489.23 1481.64 L1496.86 1481.64 L1496.86 1485.58 L1476.96 1485.58 L1476.96 1481.64 Z" fill="#000000" fill-rule="nonzero" fill-opacity="1" /><path clip-path="url(#clip230)" d="M1516.31 1454.1 Q1512.7 1454.1 1510.87 1457.66 Q1509.06 1461.2 1509.06 1468.33 Q1509.06 1475.44 1510.87 1479.01 Q1512.7 1482.55 1516.31 1482.55 Q1519.94 1482.55 1521.75 1479.01 Q1523.58 1475.44 1523.58 1468.33 Q1523.58 1461.2 1521.75 1457.66 Q1519.94 1454.1 1516.31 1454.1 M1516.31 1450.39 Q1522.12 1450.39 1525.17 1455 Q1528.25 1459.58 1528.25 1468.33 Q1528.25 1477.06 1525.17 1481.67 Q1522.12 1486.25 1516.31 1486.25 Q1510.5 1486.25 1507.42 1481.67 Q1504.36 1477.06 1504.36 1468.33 Q1504.36 1459.58 1507.42 1455 Q1510.5 1450.39 1516.31 1450.39 Z" fill="#000000" fill-rule="nonzero" fill-opacity="1" /><path clip-path="url(#clip230)" d="M1609.43 1481.64 L1617.07 1481.64 L1617.07 1455.28 L1608.76 1456.95 L1608.76 1452.69 L1617.02 1451.02 L1621.7 1451.02 L1621.7 1481.64 L1629.34 1481.64 L1629.34 1485.58 L1609.43 1485.58 L1609.43 1481.64 Z" fill="#000000" fill-rule="nonzero" fill-opacity="1" /><path clip-path="url(#clip230)" d="M1639.59 1481.64 L1647.23 1481.64 L1647.23 1455.28 L1638.92 1456.95 L1638.92 1452.69 L1647.18 1451.02 L1651.86 1451.02 L1651.86 1481.64 L1659.5 1481.64 L1659.5 1485.58 L1639.59 1485.58 L1639.59 1481.64 Z" fill="#000000" fill-rule="nonzero" fill-opacity="1" /><path clip-path="url(#clip230)" d="M1741.47 1481.64 L1749.11 1481.64 L1749.11 1455.28 L1740.8 1456.95 L1740.8 1452.69 L1749.07 1451.02 L1753.74 1451.02 L1753.74 1481.64 L1761.38 1481.64 L1761.38 1485.58 L1741.47 1485.58 L1741.47 1481.64 Z" fill="#000000" fill-rule="nonzero" fill-opacity="1" /><path clip-path="url(#clip230)" d="M1774.85 1481.64 L1791.17 1481.64 L1791.17 1485.58 L1769.23 1485.58 L1769.23 1481.64 Q1771.89 1478.89 1776.47 1474.26 Q1781.08 1469.61 1782.26 1468.27 Q1784.5 1465.74 1785.38 1464.01 Q1786.29 1462.25 1786.29 1460.56 Q1786.29 1457.8 1784.34 1456.07 Q1782.42 1454.33 1779.32 1454.33 Q1777.12 1454.33 1774.67 1455.09 Q1772.24 1455.86 1769.46 1457.41 L1769.46 1452.69 Q1772.28 1451.55 1774.74 1450.97 Q1777.19 1450.39 1779.23 1450.39 Q1784.6 1450.39 1787.79 1453.08 Q1790.99 1455.77 1790.99 1460.26 Q1790.99 1462.39 1790.18 1464.31 Q1789.39 1466.2 1787.28 1468.8 Q1786.7 1469.47 1783.6 1472.69 Q1780.5 1475.88 1774.85 1481.64 Z" fill="#000000" fill-rule="nonzero" fill-opacity="1" /><path clip-path="url(#clip230)" d="M1872.86 1481.64 L1880.5 1481.64 L1880.5 1455.28 L1872.19 1456.95 L1872.19 1452.69 L1880.45 1451.02 L1885.12 1451.02 L1885.12 1481.64 L1892.76 1481.64 L1892.76 1485.58 L1872.86 1485.58 L1872.86 1481.64 Z" fill="#000000" fill-rule="nonzero" fill-opacity="1" /><path clip-path="url(#clip230)" d="M1916.37 1466.95 Q1919.73 1467.66 1921.61 1469.93 Q1923.5 1472.2 1923.5 1475.53 Q1923.5 1480.65 1919.99 1483.45 Q1916.47 1486.25 1909.99 1486.25 Q1907.81 1486.25 1905.5 1485.81 Q1903.2 1485.39 1900.75 1484.54 L1900.75 1480.02 Q1902.69 1481.16 1905.01 1481.74 Q1907.32 1482.32 1909.85 1482.32 Q1914.25 1482.32 1916.54 1480.58 Q1918.85 1478.84 1918.85 1475.53 Q1918.85 1472.48 1916.7 1470.77 Q1914.57 1469.03 1910.75 1469.03 L1906.72 1469.03 L1906.72 1465.19 L1910.93 1465.19 Q1914.38 1465.19 1916.21 1463.82 Q1918.04 1462.43 1918.04 1459.84 Q1918.04 1457.18 1916.14 1455.77 Q1914.27 1454.33 1910.75 1454.33 Q1908.83 1454.33 1906.63 1454.75 Q1904.43 1455.16 1901.79 1456.04 L1901.79 1451.88 Q1904.45 1451.14 1906.77 1450.77 Q1909.11 1450.39 1911.17 1450.39 Q1916.49 1450.39 1919.59 1452.83 Q1922.69 1455.23 1922.69 1459.35 Q1922.69 1462.22 1921.05 1464.21 Q1919.41 1466.18 1916.37 1466.95 Z" fill="#000000" fill-rule="nonzero" fill-opacity="1" /><path clip-path="url(#clip230)" d="M2004.15 1481.64 L2011.79 1481.64 L2011.79 1455.28 L2003.48 1456.95 L2003.48 1452.69 L2011.74 1451.02 L2016.42 1451.02 L2016.42 1481.64 L2024.05 1481.64 L2024.05 1485.58 L2004.15 1485.58 L2004.15 1481.64 Z" fill="#000000" fill-rule="nonzero" fill-opacity="1" /><path clip-path="url(#clip230)" d="M2046.35 1455.09 L2034.54 1473.54 L2046.35 1473.54 L2046.35 1455.09 M2045.12 1451.02 L2051 1451.02 L2051 1473.54 L2055.93 1473.54 L2055.93 1477.43 L2051 1477.43 L2051 1485.58 L2046.35 1485.58 L2046.35 1477.43 L2030.74 1477.43 L2030.74 1472.92 L2045.12 1451.02 Z" fill="#000000" fill-rule="nonzero" fill-opacity="1" /><path clip-path="url(#clip230)" d="M2136.75 1481.64 L2144.39 1481.64 L2144.39 1455.28 L2136.08 1456.95 L2136.08 1452.69 L2144.34 1451.02 L2149.02 1451.02 L2149.02 1481.64 L2156.65 1481.64 L2156.65 1485.58 L2136.75 1485.58 L2136.75 1481.64 Z" fill="#000000" fill-rule="nonzero" fill-opacity="1" /><path clip-path="url(#clip230)" d="M2166.14 1451.02 L2184.5 1451.02 L2184.5 1454.96 L2170.43 1454.96 L2170.43 1463.43 Q2171.45 1463.08 2172.46 1462.92 Q2173.48 1462.73 2174.5 1462.73 Q2180.29 1462.73 2183.67 1465.9 Q2187.05 1469.08 2187.05 1474.49 Q2187.05 1480.07 2183.58 1483.17 Q2180.1 1486.25 2173.78 1486.25 Q2171.61 1486.25 2169.34 1485.88 Q2167.09 1485.51 2164.69 1484.77 L2164.69 1480.07 Q2166.77 1481.2 2168.99 1481.76 Q2171.21 1482.32 2173.69 1482.32 Q2177.7 1482.32 2180.03 1480.21 Q2182.37 1478.1 2182.37 1474.49 Q2182.37 1470.88 2180.03 1468.77 Q2177.7 1466.67 2173.69 1466.67 Q2171.82 1466.67 2169.94 1467.08 Q2168.09 1467.5 2166.14 1468.38 L2166.14 1451.02 Z" fill="#000000" fill-rule="nonzero" fill-opacity="1" /><path clip-path="url(#clip230)" d="M2268.03 1481.64 L2275.67 1481.64 L2275.67 1455.28 L2267.35 1456.95 L2267.35 1452.69 L2275.62 1451.02 L2280.29 1451.02 L2280.29 1481.64 L2287.93 1481.64 L2287.93 1485.58 L2268.03 1485.58 L2268.03 1481.64 Z" fill="#000000" fill-rule="nonzero" fill-opacity="1" /><path clip-path="url(#clip230)" d="M2307.96 1466.44 Q2304.81 1466.44 2302.96 1468.59 Q2301.13 1470.74 2301.13 1474.49 Q2301.13 1478.22 2302.96 1480.39 Q2304.81 1482.55 2307.96 1482.55 Q2311.1 1482.55 2312.93 1480.39 Q2314.79 1478.22 2314.79 1474.49 Q2314.79 1470.74 2312.93 1468.59 Q2311.1 1466.44 2307.96 1466.44 M2317.24 1451.78 L2317.24 1456.04 Q2315.48 1455.21 2313.67 1454.77 Q2311.89 1454.33 2310.13 1454.33 Q2305.5 1454.33 2303.05 1457.45 Q2300.62 1460.58 2300.27 1466.9 Q2301.64 1464.89 2303.7 1463.82 Q2305.76 1462.73 2308.23 1462.73 Q2313.44 1462.73 2316.45 1465.9 Q2319.48 1469.05 2319.48 1474.49 Q2319.48 1479.82 2316.34 1483.03 Q2313.19 1486.25 2307.96 1486.25 Q2301.96 1486.25 2298.79 1481.67 Q2295.62 1477.06 2295.62 1468.33 Q2295.62 1460.14 2299.51 1455.28 Q2303.4 1450.39 2309.95 1450.39 Q2311.71 1450.39 2313.49 1450.74 Q2315.29 1451.09 2317.24 1451.78 Z" fill="#000000" fill-rule="nonzero" fill-opacity="1" /><path clip-path="url(#clip230)" d="M1310.07 1519.53 Q1310.07 1520.95 1308.91 1522.01 Q1307.78 1523.05 1306.56 1523.05 Q1305.43 1523.05 1304.72 1522.37 Q1304.04 1521.66 1304.04 1520.66 Q1304.04 1519.34 1305.17 1518.25 Q1306.3 1517.15 1307.62 1517.15 Q1308.71 1517.15 1309.39 1517.83 Q1310.07 1518.5 1310.07 1519.53 M1310.65 1551.32 Q1310.65 1551.58 1310.36 1552.61 Q1310.07 1553.61 1309.36 1555.15 Q1308.68 1556.67 1307.75 1558.09 Q1306.81 1559.5 1305.27 1560.5 Q1303.75 1561.5 1302.01 1561.5 Q1299.66 1561.5 1298.12 1559.95 Q1296.6 1558.41 1296.6 1556.09 Q1296.6 1554.83 1298.12 1550.81 Q1302.5 1539.08 1302.66 1538.6 Q1303.4 1536.77 1303.4 1535.15 Q1303.4 1534.41 1303.24 1533.96 Q1303.08 1533.48 1302.76 1533.32 Q1302.43 1533.13 1302.24 1533.09 Q1302.08 1533.06 1301.76 1533.06 Q1299.86 1533.06 1298.09 1534.99 Q1296.31 1536.93 1295.09 1541.24 Q1294.83 1542.05 1294.67 1542.24 Q1294.51 1542.43 1294.03 1542.43 Q1293.22 1542.4 1293.22 1541.76 Q1293.22 1541.56 1293.45 1540.82 Q1293.67 1540.05 1294.09 1538.89 Q1294.51 1537.7 1295.25 1536.48 Q1295.99 1535.22 1296.89 1534.12 Q1297.83 1533.03 1299.15 1532.32 Q1300.47 1531.61 1301.95 1531.61 Q1304.37 1531.61 1305.85 1533.19 Q1307.36 1534.74 1307.36 1537.02 Q1307.36 1538.28 1306.49 1540.5 Q1305.43 1543.4 1305.04 1544.33 L1302.47 1551.26 Q1301.53 1553.77 1301.24 1554.54 Q1300.98 1555.28 1300.76 1556.19 Q1300.57 1557.05 1300.57 1557.86 Q1300.57 1558.99 1300.92 1559.5 Q1301.31 1560.02 1302.14 1560.02 Q1304.46 1560.02 1306.17 1557.73 Q1307.88 1555.41 1308.87 1551.87 Q1308.91 1551.77 1308.94 1551.61 Q1309.2 1550.81 1309.45 1550.71 Q1309.58 1550.68 1309.84 1550.68 Q1310.65 1550.68 1310.65 1551.32 Z" fill="#000000" fill-rule="nonzero" fill-opacity="1" /><polyline clip-path="url(#clip230)" style="stroke:#000000; stroke-linecap:round; stroke-linejoin:round; stroke-width:4; stroke-opacity:1; fill:none" points="256.209,1423.18 256.209,123.472 "/>
<polyline clip-path="url(#clip230)" style="stroke:#000000; stroke-linecap:round; stroke-linejoin:round; stroke-width:4; stroke-opacity:1; fill:none" points="256.209,1386.4 275.106,1386.4 "/>
<polyline clip-path="url(#clip230)" style="stroke:#000000; stroke-linecap:round; stroke-linejoin:round; stroke-width:4; stroke-opacity:1; fill:none" points="256.209,773.326 275.106,773.326 "/>
<polyline clip-path="url(#clip230)" style="stroke:#000000; stroke-linecap:round; stroke-linejoin:round; stroke-width:4; stroke-opacity:1; fill:none" points="256.209,160.256 275.106,160.256 "/>
<path clip-path="url(#clip230)" d="M114.26 1386.85 L143.936 1386.85 L143.936 1390.78 L114.26 1390.78 L114.26 1386.85 Z" fill="#000000" fill-rule="nonzero" fill-opacity="1" /><path clip-path="url(#clip230)" d="M164.028 1372.19 Q160.417 1372.19 158.589 1375.76 Q156.783 1379.3 156.783 1386.43 Q156.783 1393.54 158.589 1397.1 Q160.417 1400.64 164.028 1400.64 Q167.663 1400.64 169.468 1397.1 Q171.297 1393.54 171.297 1386.43 Q171.297 1379.3 169.468 1375.76 Q167.663 1372.19 164.028 1372.19 M164.028 1368.49 Q169.839 1368.49 172.894 1373.1 Q175.973 1377.68 175.973 1386.43 Q175.973 1395.16 172.894 1399.76 Q169.839 1404.35 164.028 1404.35 Q158.218 1404.35 155.14 1399.76 Q152.084 1395.16 152.084 1386.43 Q152.084 1377.68 155.14 1373.1 Q158.218 1368.49 164.028 1368.49 Z" fill="#000000" fill-rule="nonzero" fill-opacity="1" /><path clip-path="url(#clip230)" d="M184.19 1397.8 L189.075 1397.8 L189.075 1403.68 L184.19 1403.68 L184.19 1397.8 Z" fill="#000000" fill-rule="nonzero" fill-opacity="1" /><path clip-path="url(#clip230)" d="M199.306 1369.12 L217.662 1369.12 L217.662 1373.05 L203.588 1373.05 L203.588 1381.52 Q204.607 1381.18 205.625 1381.01 Q206.644 1380.83 207.662 1380.83 Q213.449 1380.83 216.829 1384 Q220.209 1387.17 220.209 1392.59 Q220.209 1398.17 216.736 1401.27 Q213.264 1404.35 206.945 1404.35 Q204.769 1404.35 202.5 1403.98 Q200.255 1403.61 197.848 1402.87 L197.848 1398.17 Q199.931 1399.3 202.153 1399.86 Q204.375 1400.41 206.852 1400.41 Q210.857 1400.41 213.195 1398.31 Q215.533 1396.2 215.533 1392.59 Q215.533 1388.98 213.195 1386.87 Q210.857 1384.76 206.852 1384.76 Q204.977 1384.76 203.102 1385.18 Q201.25 1385.6 199.306 1386.48 L199.306 1369.12 Z" fill="#000000" fill-rule="nonzero" fill-opacity="1" /><path clip-path="url(#clip230)" d="M163.033 759.125 Q159.422 759.125 157.593 762.689 Q155.788 766.231 155.788 773.361 Q155.788 780.467 157.593 784.032 Q159.422 787.574 163.033 787.574 Q166.667 787.574 168.473 784.032 Q170.302 780.467 170.302 773.361 Q170.302 766.231 168.473 762.689 Q166.667 759.125 163.033 759.125 M163.033 755.421 Q168.843 755.421 171.899 760.027 Q174.977 764.611 174.977 773.361 Q174.977 782.088 171.899 786.694 Q168.843 791.277 163.033 791.277 Q157.223 791.277 154.144 786.694 Q151.089 782.088 151.089 773.361 Q151.089 764.611 154.144 760.027 Q157.223 755.421 163.033 755.421 Z" fill="#000000" fill-rule="nonzero" fill-opacity="1" /><path clip-path="url(#clip230)" d="M183.195 784.726 L188.079 784.726 L188.079 790.606 L183.195 790.606 L183.195 784.726 Z" fill="#000000" fill-rule="nonzero" fill-opacity="1" /><path clip-path="url(#clip230)" d="M208.264 759.125 Q204.653 759.125 202.824 762.689 Q201.019 766.231 201.019 773.361 Q201.019 780.467 202.824 784.032 Q204.653 787.574 208.264 787.574 Q211.899 787.574 213.704 784.032 Q215.533 780.467 215.533 773.361 Q215.533 766.231 213.704 762.689 Q211.899 759.125 208.264 759.125 M208.264 755.421 Q214.074 755.421 217.13 760.027 Q220.209 764.611 220.209 773.361 Q220.209 782.088 217.13 786.694 Q214.074 791.277 208.264 791.277 Q202.454 791.277 199.375 786.694 Q196.32 782.088 196.32 773.361 Q196.32 764.611 199.375 760.027 Q202.454 755.421 208.264 755.421 Z" fill="#000000" fill-rule="nonzero" fill-opacity="1" /><path clip-path="url(#clip230)" d="M164.028 146.055 Q160.417 146.055 158.589 149.62 Q156.783 153.161 156.783 160.291 Q156.783 167.397 158.589 170.962 Q160.417 174.504 164.028 174.504 Q167.663 174.504 169.468 170.962 Q171.297 167.397 171.297 160.291 Q171.297 153.161 169.468 149.62 Q167.663 146.055 164.028 146.055 M164.028 142.351 Q169.839 142.351 172.894 146.958 Q175.973 151.541 175.973 160.291 Q175.973 169.018 172.894 173.624 Q169.839 178.208 164.028 178.208 Q158.218 178.208 155.14 173.624 Q152.084 169.018 152.084 160.291 Q152.084 151.541 155.14 146.958 Q158.218 142.351 164.028 142.351 Z" fill="#000000" fill-rule="nonzero" fill-opacity="1" /><path clip-path="url(#clip230)" d="M184.19 171.657 L189.075 171.657 L189.075 177.536 L184.19 177.536 L184.19 171.657 Z" fill="#000000" fill-rule="nonzero" fill-opacity="1" /><path clip-path="url(#clip230)" d="M199.306 142.976 L217.662 142.976 L217.662 146.911 L203.588 146.911 L203.588 155.384 Q204.607 155.036 205.625 154.874 Q206.644 154.689 207.662 154.689 Q213.449 154.689 216.829 157.86 Q220.209 161.032 220.209 166.448 Q220.209 172.027 216.736 175.129 Q213.264 178.208 206.945 178.208 Q204.769 178.208 202.5 177.837 Q200.255 177.467 197.848 176.726 L197.848 172.027 Q199.931 173.161 202.153 173.717 Q204.375 174.272 206.852 174.272 Q210.857 174.272 213.195 172.166 Q215.533 170.059 215.533 166.448 Q215.533 162.837 213.195 160.731 Q210.857 158.624 206.852 158.624 Q204.977 158.624 203.102 159.041 Q201.25 159.458 199.306 160.337 L199.306 142.976 Z" fill="#000000" fill-rule="nonzero" fill-opacity="1" /><path clip-path="url(#clip230)" d="M39.6987 801.119 Q40.536 801.119 42.1785 801.344 Q43.821 801.569 46.2043 802.117 Q48.5875 802.664 51.0996 803.47 Q53.6116 804.243 56.1237 805.466 Q58.6035 806.69 60.5681 808.139 Q62.5327 809.589 63.7565 811.618 Q64.9803 813.647 64.9803 815.933 Q64.9803 816.996 64.8193 818.027 Q64.6582 819.057 64.1429 820.346 Q63.6277 821.634 62.7903 822.568 Q61.9207 823.502 60.3749 824.146 Q58.829 824.79 56.8 824.79 Q54.7066 824.79 51.9047 824.017 Q49.0706 823.212 43.2735 821.022 Q40.2784 819.895 38.6359 819.895 Q37.8952 819.895 37.4443 820.056 Q36.9612 820.217 36.8002 820.539 Q36.6069 820.861 36.5747 821.054 Q36.5425 821.215 36.5425 821.537 Q36.5425 823.308 38.3783 825.112 Q40.214 826.915 44.7228 828.204 Q45.528 828.461 45.7212 828.622 Q45.9144 828.783 45.9144 829.267 Q45.8822 830.072 45.2381 830.072 Q45.0449 830.072 44.3041 829.846 Q43.5312 829.621 42.3718 829.202 Q41.1802 828.783 39.9563 828.043 Q38.7003 827.302 37.6053 826.4 Q36.5103 825.466 35.8018 824.146 Q35.0933 822.825 35.0933 821.344 Q35.0933 818.928 36.6713 817.447 Q38.2172 815.933 40.5038 815.933 Q41.7599 815.933 43.7888 816.738 Q47.4603 818.091 49.2316 818.703 Q51.003 819.315 53.515 819.959 Q56.0271 820.571 57.7662 820.571 Q60.4071 820.571 61.9529 819.347 Q63.4988 818.123 63.4988 815.676 Q63.4988 813.486 61.9207 811.521 Q60.3104 809.524 58.0238 808.204 Q55.705 806.883 53.1285 805.885 Q50.5199 804.887 48.5553 804.436 Q46.5585 803.953 45.6246 803.953 Q42.3718 803.953 40.2462 806.175 Q39.6343 806.787 39.2478 807.012 Q38.8613 807.238 38.2494 807.238 Q37.1222 807.238 36.1238 806.239 Q35.0933 805.209 35.0933 804.017 Q35.0933 802.922 36.1883 802.02 Q37.2833 801.119 39.6987 801.119 Z" fill="#000000" fill-rule="nonzero" fill-opacity="1" /><path clip-path="url(#clip230)" d="M75.8109 794.36 Q74.4358 794.36 73.9172 793.616 Q73.3762 792.872 73.3762 792.083 Q73.3762 791.023 74.0525 790.415 Q74.7063 789.783 75.6306 789.783 Q76.5549 789.783 77.2312 790.415 Q77.885 791.023 77.885 792.083 Q77.885 792.601 77.7948 792.872 Q79.914 792.263 81.447 790.415 Q82.98 788.543 82.98 786.086 Q82.98 782.998 79.9816 781.149 Q78.0428 780.044 73.6467 780.044 Q69.7691 780.044 67.8303 780.878 Q64.8771 782.163 64.8771 784.801 Q64.8771 788.543 68.1009 790.753 Q68.5067 791.023 68.5292 791.339 Q68.5292 791.79 68.2812 791.902 Q68.0107 791.993 67.3118 791.993 L53.6501 791.993 Q52.5454 791.993 52.5454 791.542 Q52.5454 791.361 52.6807 790.978 Q53.9657 788.07 53.9883 784.846 Q53.9883 781.532 52.6356 778.556 Q52.5003 778.331 52.5003 778.196 Q52.5003 777.745 53.0189 777.722 Q53.1992 777.722 53.7403 778.105 Q54.2588 778.466 54.9577 779.255 Q55.634 780.044 56.2878 781.059 Q56.9415 782.073 57.3924 783.561 Q57.8208 785.027 57.8208 786.65 Q57.8208 788.589 57.2121 790.572 L66.2072 790.572 Q63.8626 788.183 63.8626 784.711 Q63.8626 781.014 66.8384 778.466 Q69.8142 775.919 73.9623 775.919 Q78.3133 775.919 81.2892 778.94 Q84.265 781.938 84.265 785.996 Q84.265 789.693 81.6273 792.038 Q78.9897 794.36 75.8109 794.36 Z" fill="#000000" fill-rule="nonzero" fill-opacity="1" /><path clip-path="url(#clip230)" d="M80.729 769.065 L14.7714 769.065 L14.7714 759.113 L16.285 759.113 L16.285 764.653 L79.2153 764.653 L79.2153 759.113 L80.729 759.113 L80.729 769.065 Z" fill="#000000" fill-rule="nonzero" fill-opacity="1" /><path clip-path="url(#clip230)" d="M23.0161 740.935 Q24.4331 740.935 25.4959 742.095 Q26.5265 743.222 26.5265 744.446 Q26.5265 745.573 25.8502 746.281 Q25.1416 746.958 24.1433 746.958 Q22.8228 746.958 21.7278 745.83 Q20.6328 744.703 20.6328 743.383 Q20.6328 742.288 21.3092 741.612 Q21.9855 740.935 23.0161 740.935 M54.8032 740.356 Q55.0609 740.356 56.0915 740.645 Q57.0899 740.935 58.6357 741.644 Q60.1494 742.32 61.5665 743.254 Q62.9835 744.188 63.9819 745.734 Q64.9803 747.248 64.9803 748.987 Q64.9803 751.338 63.4344 752.884 Q61.8885 754.397 59.5697 754.397 Q58.3137 754.397 54.288 752.884 Q42.565 748.504 42.0819 748.343 Q40.2462 747.602 38.6359 747.602 Q37.8952 747.602 37.4443 747.763 Q36.9612 747.924 36.8002 748.246 Q36.6069 748.568 36.5747 748.761 Q36.5425 748.922 36.5425 749.244 Q36.5425 751.144 38.4749 752.916 Q40.4072 754.687 44.7228 755.911 Q45.528 756.169 45.7212 756.33 Q45.9144 756.491 45.9144 756.974 Q45.8822 757.779 45.2381 757.779 Q45.0449 757.779 44.3041 757.553 Q43.5312 757.328 42.3718 756.909 Q41.1802 756.491 39.9563 755.75 Q38.7003 755.009 37.6053 754.107 Q36.5103 753.173 35.8018 751.853 Q35.0933 750.533 35.0933 749.051 Q35.0933 746.636 36.6713 745.154 Q38.2172 743.641 40.5038 743.641 Q41.7599 743.641 43.9821 744.51 Q46.8806 745.573 47.8146 745.959 L54.7388 748.536 Q57.2509 749.47 58.0238 749.76 Q58.7646 750.017 59.6663 750.243 Q60.5359 750.436 61.341 750.436 Q62.4682 750.436 62.9835 750.082 Q63.4988 749.695 63.4988 748.858 Q63.4988 746.539 61.2122 744.832 Q58.8934 743.125 55.3507 742.127 Q55.2541 742.095 55.0931 742.062 Q54.288 741.805 54.1913 741.547 Q54.1591 741.418 54.1591 741.161 Q54.1591 740.356 54.8032 740.356 Z" fill="#000000" fill-rule="nonzero" fill-opacity="1" /><path clip-path="url(#clip230)" d="M79.2153 734.731 L79.2153 729.191 L16.285 729.191 L16.285 734.731 L14.7714 734.731 L14.7714 724.779 L80.729 724.779 L80.729 734.731 L79.2153 734.731 Z" fill="#000000" fill-rule="nonzero" fill-opacity="1" /><path clip-path="url(#clip230)" d="M806.646 12.096 L838.77 12.096 L838.77 18.9825 L814.141 18.9825 L814.141 33.8088 Q815.923 33.2012 817.705 32.9176 Q819.488 32.5936 821.27 32.5936 Q831.397 32.5936 837.312 38.1433 Q843.226 43.6931 843.226 53.1722 Q843.226 62.9348 837.15 68.3631 Q831.073 73.7508 820.014 73.7508 Q816.207 73.7508 812.237 73.1026 Q808.307 72.4545 804.094 71.1582 L804.094 62.9348 Q807.74 64.9198 811.629 65.892 Q815.518 66.8642 819.852 66.8642 Q826.86 66.8642 830.952 63.1779 Q835.043 59.4916 835.043 53.1722 Q835.043 46.8528 830.952 43.1664 Q826.86 39.4801 819.852 39.4801 Q816.571 39.4801 813.29 40.2093 Q810.049 40.9384 806.646 42.4778 L806.646 12.096 Z" fill="#000000" fill-rule="nonzero" fill-opacity="1" /><path clip-path="url(#clip230)" d="M865.668 14.324 L865.668 27.2059 L881.021 27.2059 L881.021 32.9987 L865.668 32.9987 L865.668 57.6282 Q865.668 63.1779 867.167 64.7578 Q868.706 66.3376 873.365 66.3376 L881.021 66.3376 L881.021 72.576 L873.365 72.576 Q864.736 72.576 861.455 69.3758 Q858.174 66.1351 858.174 57.6282 L858.174 32.9987 L852.705 32.9987 L852.705 27.2059 L858.174 27.2059 L858.174 14.324 L865.668 14.324 Z" fill="#000000" fill-rule="nonzero" fill-opacity="1" /><path clip-path="url(#clip230)" d="M928.538 45.1919 L928.538 72.576 L921.084 72.576 L921.084 45.4349 Q921.084 38.994 918.573 35.7938 Q916.061 32.5936 911.038 32.5936 Q905.002 32.5936 901.519 36.4419 Q898.035 40.2903 898.035 46.9338 L898.035 72.576 L890.541 72.576 L890.541 9.54393 L898.035 9.54393 L898.035 34.2544 Q900.708 30.163 904.314 28.1376 Q907.96 26.1121 912.699 26.1121 Q920.517 26.1121 924.528 30.9732 Q928.538 35.7938 928.538 45.1919 Z" fill="#000000" fill-rule="nonzero" fill-opacity="1" /><path clip-path="url(#clip230)" d="M996.067 34.1734 Q994.811 33.4443 993.312 33.1202 Q991.854 32.7556 990.071 32.7556 Q983.752 32.7556 980.349 36.8875 Q976.987 40.9789 976.987 48.6757 L976.987 72.576 L969.493 72.576 L969.493 27.2059 L976.987 27.2059 L976.987 34.2544 Q979.336 30.1225 983.104 28.1376 Q986.871 26.1121 992.259 26.1121 Q993.029 26.1121 993.96 26.2337 Q994.892 26.3147 996.026 26.5172 L996.067 34.1734 Z" fill="#000000" fill-rule="nonzero" fill-opacity="1" /><path clip-path="url(#clip230)" d="M1003.88 27.2059 L1011.34 27.2059 L1011.34 72.576 L1003.88 72.576 L1003.88 27.2059 M1003.88 9.54393 L1011.34 9.54393 L1011.34 18.9825 L1003.88 18.9825 L1003.88 9.54393 Z" fill="#000000" fill-rule="nonzero" fill-opacity="1" /><path clip-path="url(#clip230)" d="M1056.79 49.3643 Q1056.79 41.2625 1053.43 36.8065 Q1050.11 32.3505 1044.07 32.3505 Q1038.07 32.3505 1034.71 36.8065 Q1031.39 41.2625 1031.39 49.3643 Q1031.39 57.4256 1034.71 61.8816 Q1038.07 66.3376 1044.07 66.3376 Q1050.11 66.3376 1053.43 61.8816 Q1056.79 57.4256 1056.79 49.3643 M1064.24 66.9452 Q1064.24 78.5308 1059.1 84.1616 Q1053.95 89.8329 1043.34 89.8329 Q1039.41 89.8329 1035.93 89.2252 Q1032.44 88.6581 1029.16 87.4428 L1029.16 80.1917 Q1032.44 81.9741 1035.64 82.8248 Q1038.84 83.6755 1042.17 83.6755 Q1049.5 83.6755 1053.14 79.8271 Q1056.79 76.0193 1056.79 68.282 L1056.79 64.5957 Q1054.48 68.6061 1050.88 70.5911 Q1047.27 72.576 1042.25 72.576 Q1033.9 72.576 1028.8 66.2161 Q1023.69 59.8562 1023.69 49.3643 Q1023.69 38.832 1028.8 32.472 Q1033.9 26.1121 1042.25 26.1121 Q1047.27 26.1121 1050.88 28.0971 Q1054.48 30.082 1056.79 34.0924 L1056.79 27.2059 L1064.24 27.2059 L1064.24 66.9452 Z" fill="#000000" fill-rule="nonzero" fill-opacity="1" /><path clip-path="url(#clip230)" d="M1117.31 45.1919 L1117.31 72.576 L1109.86 72.576 L1109.86 45.4349 Q1109.86 38.994 1107.35 35.7938 Q1104.83 32.5936 1099.81 32.5936 Q1093.77 32.5936 1090.29 36.4419 Q1086.81 40.2903 1086.81 46.9338 L1086.81 72.576 L1079.31 72.576 L1079.31 9.54393 L1086.81 9.54393 L1086.81 34.2544 Q1089.48 30.163 1093.09 28.1376 Q1096.73 26.1121 1101.47 26.1121 Q1109.29 26.1121 1113.3 30.9732 Q1117.31 35.7938 1117.31 45.1919 Z" fill="#000000" fill-rule="nonzero" fill-opacity="1" /><path clip-path="url(#clip230)" d="M1139.55 14.324 L1139.55 27.2059 L1154.9 27.2059 L1154.9 32.9987 L1139.55 32.9987 L1139.55 57.6282 Q1139.55 63.1779 1141.05 64.7578 Q1142.59 66.3376 1147.25 66.3376 L1154.9 66.3376 L1154.9 72.576 L1147.25 72.576 Q1138.62 72.576 1135.34 69.3758 Q1132.06 66.1351 1132.06 57.6282 L1132.06 32.9987 L1126.59 32.9987 L1126.59 27.2059 L1132.06 27.2059 L1132.06 14.324 L1139.55 14.324 Z" fill="#000000" fill-rule="nonzero" fill-opacity="1" /><path clip-path="url(#clip230)" d="M1220 28.5427 L1220 35.5912 Q1216.84 33.9709 1213.44 33.1607 Q1210.04 32.3505 1206.39 32.3505 Q1200.84 32.3505 1198.04 34.0519 Q1195.29 35.7533 1195.29 39.156 Q1195.29 41.7486 1197.28 43.2475 Q1199.26 44.7058 1205.26 46.0426 L1207.81 46.6097 Q1215.75 48.3111 1219.07 51.4303 Q1222.43 54.509 1222.43 60.0587 Q1222.43 66.3781 1217.41 70.0644 Q1212.43 73.7508 1203.68 73.7508 Q1200.03 73.7508 1196.06 73.0216 Q1192.13 72.3329 1187.76 70.9151 L1187.76 63.2184 Q1191.89 65.3654 1195.9 66.4591 Q1199.91 67.5124 1203.84 67.5124 Q1209.1 67.5124 1211.94 65.73 Q1214.78 63.9071 1214.78 60.6258 Q1214.78 57.5877 1212.71 55.9673 Q1210.68 54.3469 1203.76 52.8481 L1201.16 52.2405 Q1194.24 50.7821 1191.16 47.7845 Q1188.08 44.7463 1188.08 39.4801 Q1188.08 33.0797 1192.62 29.5959 Q1197.15 26.1121 1205.5 26.1121 Q1209.63 26.1121 1213.28 26.7198 Q1216.92 27.3274 1220 28.5427 Z" fill="#000000" fill-rule="nonzero" fill-opacity="1" /><path clip-path="url(#clip230)" d="M1234.3 27.2059 L1241.75 27.2059 L1241.75 72.576 L1234.3 72.576 L1234.3 27.2059 M1234.3 9.54393 L1241.75 9.54393 L1241.75 18.9825 L1234.3 18.9825 L1234.3 9.54393 Z" fill="#000000" fill-rule="nonzero" fill-opacity="1" /><path clip-path="url(#clip230)" d="M1295.06 45.1919 L1295.06 72.576 L1287.61 72.576 L1287.61 45.4349 Q1287.61 38.994 1285.1 35.7938 Q1282.59 32.5936 1277.56 32.5936 Q1271.53 32.5936 1268.04 36.4419 Q1264.56 40.2903 1264.56 46.9338 L1264.56 72.576 L1257.07 72.576 L1257.07 27.2059 L1264.56 27.2059 L1264.56 34.2544 Q1267.23 30.163 1270.84 28.1376 Q1274.49 26.1121 1279.22 26.1121 Q1287.04 26.1121 1291.05 30.9732 Q1295.06 35.7938 1295.06 45.1919 Z" fill="#000000" fill-rule="nonzero" fill-opacity="1" /><path clip-path="url(#clip230)" d="M1339.79 49.3643 Q1339.79 41.2625 1336.42 36.8065 Q1333.1 32.3505 1327.07 32.3505 Q1321.07 32.3505 1317.71 36.8065 Q1314.39 41.2625 1314.39 49.3643 Q1314.39 57.4256 1317.71 61.8816 Q1321.07 66.3376 1327.07 66.3376 Q1333.1 66.3376 1336.42 61.8816 Q1339.79 57.4256 1339.79 49.3643 M1347.24 66.9452 Q1347.24 78.5308 1342.09 84.1616 Q1336.95 89.8329 1326.34 89.8329 Q1322.41 89.8329 1318.92 89.2252 Q1315.44 88.6581 1312.16 87.4428 L1312.16 80.1917 Q1315.44 81.9741 1318.64 82.8248 Q1321.84 83.6755 1325.16 83.6755 Q1332.49 83.6755 1336.14 79.8271 Q1339.79 76.0193 1339.79 68.282 L1339.79 64.5957 Q1337.48 68.6061 1333.87 70.5911 Q1330.27 72.576 1325.24 72.576 Q1316.9 72.576 1311.79 66.2161 Q1306.69 59.8562 1306.69 49.3643 Q1306.69 38.832 1311.79 32.472 Q1316.9 26.1121 1325.24 26.1121 Q1330.27 26.1121 1333.87 28.0971 Q1337.48 30.082 1339.79 34.0924 L1339.79 27.2059 L1347.24 27.2059 L1347.24 66.9452 Z" fill="#000000" fill-rule="nonzero" fill-opacity="1" /><path clip-path="url(#clip230)" d="M1361.82 54.671 L1361.82 27.2059 L1369.28 27.2059 L1369.28 54.3874 Q1369.28 60.8284 1371.79 64.0691 Q1374.3 67.2693 1379.32 67.2693 Q1385.36 67.2693 1388.84 63.421 Q1392.37 59.5726 1392.37 52.9291 L1392.37 27.2059 L1399.82 27.2059 L1399.82 72.576 L1392.37 72.576 L1392.37 65.6084 Q1389.65 69.7404 1386.05 71.7658 Q1382.48 73.7508 1377.74 73.7508 Q1369.92 73.7508 1365.87 68.8897 Q1361.82 64.0286 1361.82 54.671 M1380.58 26.1121 L1380.58 26.1121 Z" fill="#000000" fill-rule="nonzero" fill-opacity="1" /><path clip-path="url(#clip230)" d="M1415.17 9.54393 L1422.63 9.54393 L1422.63 72.576 L1415.17 72.576 L1415.17 9.54393 Z" fill="#000000" fill-rule="nonzero" fill-opacity="1" /><path clip-path="url(#clip230)" d="M1458.84 49.7694 Q1449.81 49.7694 1446.32 51.8354 Q1442.84 53.9013 1442.84 58.8839 Q1442.84 62.8538 1445.43 65.2034 Q1448.07 67.5124 1452.56 67.5124 Q1458.76 67.5124 1462.49 63.1374 Q1466.26 58.7219 1466.26 51.4303 L1466.26 49.7694 L1458.84 49.7694 M1473.71 46.6907 L1473.71 72.576 L1466.26 72.576 L1466.26 65.6895 Q1463.7 69.8214 1459.9 71.8063 Q1456.09 73.7508 1450.58 73.7508 Q1443.61 73.7508 1439.48 69.8619 Q1435.39 65.9325 1435.39 59.3701 Q1435.39 51.7138 1440.49 47.825 Q1445.64 43.9361 1455.8 43.9361 L1466.26 43.9361 L1466.26 43.2069 Q1466.26 38.0623 1462.85 35.2672 Q1459.49 32.4315 1453.37 32.4315 Q1449.48 32.4315 1445.8 33.3632 Q1442.11 34.295 1438.71 36.1584 L1438.71 29.2718 Q1442.8 27.692 1446.65 26.9223 Q1450.5 26.1121 1454.14 26.1121 Q1463.99 26.1121 1468.85 31.2163 Q1473.71 36.3204 1473.71 46.6907 Z" fill="#000000" fill-rule="nonzero" fill-opacity="1" /><path clip-path="url(#clip230)" d="M1515.35 34.1734 Q1514.1 33.4443 1512.6 33.1202 Q1511.14 32.7556 1509.36 32.7556 Q1503.04 32.7556 1499.63 36.8875 Q1496.27 40.9789 1496.27 48.6757 L1496.27 72.576 L1488.78 72.576 L1488.78 27.2059 L1496.27 27.2059 L1496.27 34.2544 Q1498.62 30.1225 1502.39 28.1376 Q1506.16 26.1121 1511.54 26.1121 Q1512.31 26.1121 1513.25 26.2337 Q1514.18 26.3147 1515.31 26.5172 L1515.35 34.1734 Z" fill="#000000" fill-rule="nonzero" fill-opacity="1" /><path clip-path="url(#clip230)" d="M1544.19 27.2059 L1552.09 27.2059 L1566.27 65.2844 L1580.45 27.2059 L1588.35 27.2059 L1571.34 72.576 L1561.21 72.576 L1544.19 27.2059 Z" fill="#000000" fill-rule="nonzero" fill-opacity="1" /><path clip-path="url(#clip230)" d="M1637.45 48.0275 L1637.45 51.6733 L1603.18 51.6733 Q1603.66 59.3701 1607.79 63.421 Q1611.97 67.4314 1619.38 67.4314 Q1623.67 67.4314 1627.68 66.3781 Q1631.73 65.3249 1635.7 63.2184 L1635.7 70.267 Q1631.69 71.9684 1627.48 72.8596 Q1623.27 73.7508 1618.93 73.7508 Q1608.08 73.7508 1601.72 67.4314 Q1595.4 61.1119 1595.4 50.3365 Q1595.4 39.1965 1601.39 32.6746 Q1607.43 26.1121 1617.64 26.1121 Q1626.79 26.1121 1632.1 32.0264 Q1637.45 37.9003 1637.45 48.0275 M1629.99 45.84 Q1629.91 39.7232 1626.55 36.0774 Q1623.23 32.4315 1617.72 32.4315 Q1611.48 32.4315 1607.71 35.9558 Q1603.99 39.4801 1603.42 45.8805 L1629.99 45.84 Z" fill="#000000" fill-rule="nonzero" fill-opacity="1" /><path clip-path="url(#clip230)" d="M1682.33 28.9478 L1682.33 35.9153 Q1679.17 34.1734 1675.97 33.3227 Q1672.81 32.4315 1669.57 32.4315 Q1662.32 32.4315 1658.31 37.0496 Q1654.3 41.6271 1654.3 49.9314 Q1654.3 58.2358 1658.31 62.8538 Q1662.32 67.4314 1669.57 67.4314 Q1672.81 67.4314 1675.97 66.5807 Q1679.17 65.6895 1682.33 63.9476 L1682.33 70.8341 Q1679.21 72.2924 1675.85 73.0216 Q1672.53 73.7508 1668.76 73.7508 Q1658.51 73.7508 1652.48 67.3098 Q1646.44 60.8689 1646.44 49.9314 Q1646.44 38.832 1652.52 32.472 Q1658.63 26.1121 1669.25 26.1121 Q1672.69 26.1121 1675.97 26.8413 Q1679.25 27.5299 1682.33 28.9478 Z" fill="#000000" fill-rule="nonzero" fill-opacity="1" /><path clip-path="url(#clip230)" d="M1702.67 14.324 L1702.67 27.2059 L1718.02 27.2059 L1718.02 32.9987 L1702.67 32.9987 L1702.67 57.6282 Q1702.67 63.1779 1704.16 64.7578 Q1705.7 66.3376 1710.36 66.3376 L1718.02 66.3376 L1718.02 72.576 L1710.36 72.576 Q1701.73 72.576 1698.45 69.3758 Q1695.17 66.1351 1695.17 57.6282 L1695.17 32.9987 L1689.7 32.9987 L1689.7 27.2059 L1695.17 27.2059 L1695.17 14.324 L1702.67 14.324 Z" fill="#000000" fill-rule="nonzero" fill-opacity="1" /><path clip-path="url(#clip230)" d="M1745.4 32.4315 Q1739.41 32.4315 1735.92 37.1306 Q1732.44 41.7891 1732.44 49.9314 Q1732.44 58.0738 1735.88 62.7728 Q1739.37 67.4314 1745.4 67.4314 Q1751.36 67.4314 1754.84 62.7323 Q1758.33 58.0333 1758.33 49.9314 Q1758.33 41.8701 1754.84 37.1711 Q1751.36 32.4315 1745.4 32.4315 M1745.4 26.1121 Q1755.13 26.1121 1760.67 32.4315 Q1766.22 38.7509 1766.22 49.9314 Q1766.22 61.0714 1760.67 67.4314 Q1755.13 73.7508 1745.4 73.7508 Q1735.64 73.7508 1730.09 67.4314 Q1724.58 61.0714 1724.58 49.9314 Q1724.58 38.7509 1730.09 32.4315 Q1735.64 26.1121 1745.4 26.1121 Z" fill="#000000" fill-rule="nonzero" fill-opacity="1" /><path clip-path="url(#clip230)" d="M1804.87 34.1734 Q1803.61 33.4443 1802.12 33.1202 Q1800.66 32.7556 1798.87 32.7556 Q1792.56 32.7556 1789.15 36.8875 Q1785.79 40.9789 1785.79 48.6757 L1785.79 72.576 L1778.3 72.576 L1778.3 27.2059 L1785.79 27.2059 L1785.79 34.2544 Q1788.14 30.1225 1791.91 28.1376 Q1795.67 26.1121 1801.06 26.1121 Q1801.83 26.1121 1802.76 26.2337 Q1803.7 26.3147 1804.83 26.5172 L1804.87 34.1734 Z" fill="#000000" fill-rule="nonzero" fill-opacity="1" /><circle clip-path="url(#clip231)" cx="315.545" cy="391.008" r="14.4" fill="#0000ff" fill-rule="evenodd" fill-opacity="1" stroke="none"/>
<circle clip-path="url(#clip231)" cx="447.403" cy="730.835" r="14.4" fill="#0000ff" fill-rule="evenodd" fill-opacity="1" stroke="none"/>
<circle clip-path="url(#clip231)" cx="579.262" cy="1108.43" r="14.4" fill="#0000ff" fill-rule="evenodd" fill-opacity="1" stroke="none"/>
<circle clip-path="url(#clip231)" cx="711.12" cy="1188.17" r="14.4" fill="#0000ff" fill-rule="evenodd" fill-opacity="1" stroke="none"/>
<circle clip-path="url(#clip231)" cx="842.978" cy="899.166" r="14.4" fill="#0000ff" fill-rule="evenodd" fill-opacity="1" stroke="none"/>
<circle clip-path="url(#clip231)" cx="974.836" cy="498.313" r="14.4" fill="#0000ff" fill-rule="evenodd" fill-opacity="1" stroke="none"/>
<circle clip-path="url(#clip231)" cx="1106.69" cy="341.908" r="14.4" fill="#0000ff" fill-rule="evenodd" fill-opacity="1" stroke="none"/>
<circle clip-path="url(#clip231)" cx="1238.55" cy="568.973" r="14.4" fill="#0000ff" fill-rule="evenodd" fill-opacity="1" stroke="none"/>
<circle clip-path="url(#clip231)" cx="1370.41" cy="977.679" r="14.4" fill="#0000ff" fill-rule="evenodd" fill-opacity="1" stroke="none"/>
<circle clip-path="url(#clip231)" cx="1502.27" cy="1204.74" r="14.4" fill="#0000ff" fill-rule="evenodd" fill-opacity="1" stroke="none"/>
<circle clip-path="url(#clip231)" cx="1634.13" cy="1048.34" r="14.4" fill="#0000ff" fill-rule="evenodd" fill-opacity="1" stroke="none"/>
<circle clip-path="url(#clip231)" cx="1765.99" cy="647.486" r="14.4" fill="#0000ff" fill-rule="evenodd" fill-opacity="1" stroke="none"/>
<circle clip-path="url(#clip231)" cx="1897.84" cy="358.487" r="14.4" fill="#0000ff" fill-rule="evenodd" fill-opacity="1" stroke="none"/>
<circle clip-path="url(#clip231)" cx="2029.7" cy="438.222" r="14.4" fill="#0000ff" fill-rule="evenodd" fill-opacity="1" stroke="none"/>
<circle clip-path="url(#clip231)" cx="2161.56" cy="815.817" r="14.4" fill="#0000ff" fill-rule="evenodd" fill-opacity="1" stroke="none"/>
<circle clip-path="url(#clip231)" cx="2293.42" cy="1155.64" r="14.4" fill="#0000ff" fill-rule="evenodd" fill-opacity="1" stroke="none"/>
<polyline clip-path="url(#clip231)" style="stroke:#0000ff; stroke-linecap:round; stroke-linejoin:round; stroke-width:4; stroke-opacity:1; fill:none" points="315.545,773.326 315.545,391.008 "/>
<polyline clip-path="url(#clip231)" style="stroke:#0000ff; stroke-linecap:round; stroke-linejoin:round; stroke-width:4; stroke-opacity:1; fill:none" points="447.403,773.326 447.403,730.835 "/>
<polyline clip-path="url(#clip231)" style="stroke:#0000ff; stroke-linecap:round; stroke-linejoin:round; stroke-width:4; stroke-opacity:1; fill:none" points="579.262,773.326 579.262,1108.43 "/>
<polyline clip-path="url(#clip231)" style="stroke:#0000ff; stroke-linecap:round; stroke-linejoin:round; stroke-width:4; stroke-opacity:1; fill:none" points="711.12,773.326 711.12,1188.17 "/>
<polyline clip-path="url(#clip231)" style="stroke:#0000ff; stroke-linecap:round; stroke-linejoin:round; stroke-width:4; stroke-opacity:1; fill:none" points="842.978,773.326 842.978,899.166 "/>
<polyline clip-path="url(#clip231)" style="stroke:#0000ff; stroke-linecap:round; stroke-linejoin:round; stroke-width:4; stroke-opacity:1; fill:none" points="974.836,773.326 974.836,498.313 "/>
<polyline clip-path="url(#clip231)" style="stroke:#0000ff; stroke-linecap:round; stroke-linejoin:round; stroke-width:4; stroke-opacity:1; fill:none" points="1106.69,773.326 1106.69,341.908 "/>
<polyline clip-path="url(#clip231)" style="stroke:#0000ff; stroke-linecap:round; stroke-linejoin:round; stroke-width:4; stroke-opacity:1; fill:none" points="1238.55,773.326 1238.55,568.973 "/>
<polyline clip-path="url(#clip231)" style="stroke:#0000ff; stroke-linecap:round; stroke-linejoin:round; stroke-width:4; stroke-opacity:1; fill:none" points="1370.41,773.326 1370.41,977.679 "/>
<polyline clip-path="url(#clip231)" style="stroke:#0000ff; stroke-linecap:round; stroke-linejoin:round; stroke-width:4; stroke-opacity:1; fill:none" points="1502.27,773.326 1502.27,1204.74 "/>
<polyline clip-path="url(#clip231)" style="stroke:#0000ff; stroke-linecap:round; stroke-linejoin:round; stroke-width:4; stroke-opacity:1; fill:none" points="1634.13,773.326 1634.13,1048.34 "/>
<polyline clip-path="url(#clip231)" style="stroke:#0000ff; stroke-linecap:round; stroke-linejoin:round; stroke-width:4; stroke-opacity:1; fill:none" points="1765.99,773.326 1765.99,647.486 "/>
<polyline clip-path="url(#clip231)" style="stroke:#0000ff; stroke-linecap:round; stroke-linejoin:round; stroke-width:4; stroke-opacity:1; fill:none" points="1897.84,773.326 1897.84,358.487 "/>
<polyline clip-path="url(#clip231)" style="stroke:#0000ff; stroke-linecap:round; stroke-linejoin:round; stroke-width:4; stroke-opacity:1; fill:none" points="2029.7,773.326 2029.7,438.222 "/>
<polyline clip-path="url(#clip231)" style="stroke:#0000ff; stroke-linecap:round; stroke-linejoin:round; stroke-width:4; stroke-opacity:1; fill:none" points="2161.56,773.326 2161.56,815.817 "/>
<polyline clip-path="url(#clip231)" style="stroke:#0000ff; stroke-linecap:round; stroke-linejoin:round; stroke-width:4; stroke-opacity:1; fill:none" points="2293.42,773.326 2293.42,1155.64 "/>
</svg>
