<?xml version="1.0" encoding="utf-8"?>
<svg xmlns="http://www.w3.org/2000/svg" xmlns:xlink="http://www.w3.org/1999/xlink" width="600" height="400" viewBox="0 0 2400 1600">
<defs>
  <clipPath id="clip720">
    <rect x="0" y="0" width="2400" height="1600"/>
  </clipPath>
</defs>
<path clip-path="url(#clip720)" d="M0 1600 L2400 1600 L2400 0 L0 0  Z" fill="#ffffff" fill-rule="evenodd" fill-opacity="1"/>
<defs>
  <clipPath id="clip721">
    <rect x="214" y="47" width="2139" height="1423"/>
  </clipPath>
</defs>
<path clip-path="url(#clip720)" d="M214.526 1469.17 L2352.76 1469.17 L2352.76 47.2441 L214.526 47.2441  Z" fill="#ffffff" fill-rule="evenodd" fill-opacity="1"/>
<polyline clip-path="url(#clip721)" style="stroke:#000000; stroke-linecap:round; stroke-linejoin:round; stroke-width:2; stroke-opacity:0.1; fill:none" points="249.508,1469.17 249.508,47.2441 "/>
<polyline clip-path="url(#clip721)" style="stroke:#000000; stroke-linecap:round; stroke-linejoin:round; stroke-width:2; stroke-opacity:0.1; fill:none" points="760.191,1469.17 760.191,47.2441 "/>
<polyline clip-path="url(#clip721)" style="stroke:#000000; stroke-linecap:round; stroke-linejoin:round; stroke-width:2; stroke-opacity:0.1; fill:none" points="1270.87,1469.17 1270.87,47.2441 "/>
<polyline clip-path="url(#clip721)" style="stroke:#000000; stroke-linecap:round; stroke-linejoin:round; stroke-width:2; stroke-opacity:0.1; fill:none" points="1781.56,1469.17 1781.56,47.2441 "/>
<polyline clip-path="url(#clip721)" style="stroke:#000000; stroke-linecap:round; stroke-linejoin:round; stroke-width:2; stroke-opacity:0.1; fill:none" points="2292.24,1469.17 2292.24,47.2441 "/>
<polyline clip-path="url(#clip721)" style="stroke:#000000; stroke-linecap:round; stroke-linejoin:round; stroke-width:2; stroke-opacity:0.1; fill:none" points="214.526,1428.92 2352.76,1428.92 "/>
<polyline clip-path="url(#clip721)" style="stroke:#000000; stroke-linecap:round; stroke-linejoin:round; stroke-width:2; stroke-opacity:0.1; fill:none" points="214.526,1229.14 2352.76,1229.14 "/>
<polyline clip-path="url(#clip721)" style="stroke:#000000; stroke-linecap:round; stroke-linejoin:round; stroke-width:2; stroke-opacity:0.1; fill:none" points="214.526,1029.36 2352.76,1029.36 "/>
<polyline clip-path="url(#clip721)" style="stroke:#000000; stroke-linecap:round; stroke-linejoin:round; stroke-width:2; stroke-opacity:0.1; fill:none" points="214.526,829.575 2352.76,829.575 "/>
<polyline clip-path="url(#clip721)" style="stroke:#000000; stroke-linecap:round; stroke-linejoin:round; stroke-width:2; stroke-opacity:0.1; fill:none" points="214.526,629.792 2352.76,629.792 "/>
<polyline clip-path="url(#clip721)" style="stroke:#000000; stroke-linecap:round; stroke-linejoin:round; stroke-width:2; stroke-opacity:0.1; fill:none" points="214.526,430.009 2352.76,430.009 "/>
<polyline clip-path="url(#clip721)" style="stroke:#000000; stroke-linecap:round; stroke-linejoin:round; stroke-width:2; stroke-opacity:0.1; fill:none" points="214.526,230.226 2352.76,230.226 "/>
<polyline clip-path="url(#clip720)" style="stroke:#000000; stroke-linecap:round; stroke-linejoin:round; stroke-width:4; stroke-opacity:1; fill:none" points="214.526,1469.17 2352.76,1469.17 "/>
<polyline clip-path="url(#clip720)" style="stroke:#000000; stroke-linecap:round; stroke-linejoin:round; stroke-width:4; stroke-opacity:1; fill:none" points="249.508,1469.17 249.508,1450.27 "/>
<polyline clip-path="url(#clip720)" style="stroke:#000000; stroke-linecap:round; stroke-linejoin:round; stroke-width:4; stroke-opacity:1; fill:none" points="760.191,1469.17 760.191,1450.27 "/>
<polyline clip-path="url(#clip720)" style="stroke:#000000; stroke-linecap:round; stroke-linejoin:round; stroke-width:4; stroke-opacity:1; fill:none" points="1270.87,1469.17 1270.87,1450.27 "/>
<polyline clip-path="url(#clip720)" style="stroke:#000000; stroke-linecap:round; stroke-linejoin:round; stroke-width:4; stroke-opacity:1; fill:none" points="1781.56,1469.17 1781.56,1450.27 "/>
<polyline clip-path="url(#clip720)" style="stroke:#000000; stroke-linecap:round; stroke-linejoin:round; stroke-width:4; stroke-opacity:1; fill:none" points="2292.24,1469.17 2292.24,1450.27 "/>
<path clip-path="url(#clip720)" d="M249.508 1505.95 Q244.091 1505.95 241.348 1511.29 Q238.64 1516.61 238.64 1527.3 Q238.64 1537.96 241.348 1543.31 Q244.091 1548.62 249.508 1548.62 Q254.959 1548.62 257.668 1543.31 Q260.411 1537.96 260.411 1527.3 Q260.411 1516.61 257.668 1511.29 Q254.959 1505.95 249.508 1505.95 M249.508 1500.39 Q258.223 1500.39 262.806 1507.3 Q267.425 1514.18 267.425 1527.3 Q267.425 1540.39 262.806 1547.3 Q258.223 1554.17 249.508 1554.17 Q240.793 1554.17 236.175 1547.3 Q231.591 1540.39 231.591 1527.3 Q231.591 1514.18 236.175 1507.3 Q240.793 1500.39 249.508 1500.39 Z" fill="#000000" fill-rule="nonzero" fill-opacity="1" /><path clip-path="url(#clip720)" d="M728.351 1547.27 L752.83 1547.27 L752.83 1553.17 L719.913 1553.17 L719.913 1547.27 Q723.906 1543.13 730.781 1536.19 Q737.691 1529.21 739.462 1527.2 Q742.83 1523.41 744.149 1520.81 Q745.504 1518.17 745.504 1515.63 Q745.504 1511.5 742.587 1508.9 Q739.705 1506.29 735.052 1506.29 Q731.754 1506.29 728.073 1507.44 Q724.427 1508.58 720.261 1510.91 L720.261 1503.83 Q724.497 1502.13 728.177 1501.26 Q731.858 1500.39 734.913 1500.39 Q742.969 1500.39 747.76 1504.42 Q752.552 1508.45 752.552 1515.18 Q752.552 1518.38 751.337 1521.26 Q750.156 1524.11 746.997 1527.99 Q746.129 1529 741.476 1533.83 Q736.823 1538.62 728.351 1547.27 Z" fill="#000000" fill-rule="nonzero" fill-opacity="1" /><path clip-path="url(#clip720)" d="M782.552 1505.95 Q777.135 1505.95 774.392 1511.29 Q771.684 1516.61 771.684 1527.3 Q771.684 1537.96 774.392 1543.31 Q777.135 1548.62 782.552 1548.62 Q788.003 1548.62 790.712 1543.31 Q793.455 1537.96 793.455 1527.3 Q793.455 1516.61 790.712 1511.29 Q788.003 1505.95 782.552 1505.95 M782.552 1500.39 Q791.267 1500.39 795.85 1507.3 Q800.469 1514.18 800.469 1527.3 Q800.469 1540.39 795.85 1547.3 Q791.267 1554.17 782.552 1554.17 Q773.837 1554.17 769.219 1547.3 Q764.635 1540.39 764.635 1527.3 Q764.635 1514.18 769.219 1507.3 Q773.837 1500.39 782.552 1500.39 Z" fill="#000000" fill-rule="nonzero" fill-opacity="1" /><path clip-path="url(#clip720)" d="M1253.13 1507.44 L1235.42 1535.11 L1253.13 1535.11 L1253.13 1507.44 M1251.29 1501.33 L1260.11 1501.33 L1260.11 1535.11 L1267.51 1535.11 L1267.51 1540.95 L1260.11 1540.95 L1260.11 1553.17 L1253.13 1553.17 L1253.13 1540.95 L1229.73 1540.95 L1229.73 1534.17 L1251.29 1501.33 Z" fill="#000000" fill-rule="nonzero" fill-opacity="1" /><path clip-path="url(#clip720)" d="M1294.1 1505.95 Q1288.69 1505.95 1285.94 1511.29 Q1283.24 1516.61 1283.24 1527.3 Q1283.24 1537.96 1285.94 1543.31 Q1288.69 1548.62 1294.1 1548.62 Q1299.55 1548.62 1302.26 1543.31 Q1305.01 1537.96 1305.01 1527.3 Q1305.01 1516.61 1302.26 1511.29 Q1299.55 1505.95 1294.1 1505.95 M1294.1 1500.39 Q1302.82 1500.39 1307.4 1507.3 Q1312.02 1514.18 1312.02 1527.3 Q1312.02 1540.39 1307.4 1547.3 Q1302.82 1554.17 1294.1 1554.17 Q1285.39 1554.17 1280.77 1547.3 Q1276.19 1540.39 1276.19 1527.3 Q1276.19 1514.18 1280.77 1507.3 Q1285.39 1500.39 1294.1 1500.39 Z" fill="#000000" fill-rule="nonzero" fill-opacity="1" /><path clip-path="url(#clip720)" d="M1759.66 1524.45 Q1754.94 1524.45 1752.16 1527.68 Q1749.42 1530.91 1749.42 1536.54 Q1749.42 1542.13 1752.16 1545.39 Q1754.94 1548.62 1759.66 1548.62 Q1764.39 1548.62 1767.13 1545.39 Q1769.91 1542.13 1769.91 1536.54 Q1769.91 1530.91 1767.13 1527.68 Q1764.39 1524.45 1759.66 1524.45 M1773.59 1502.47 L1773.59 1508.86 Q1770.95 1507.61 1768.24 1506.95 Q1765.57 1506.29 1762.93 1506.29 Q1755.98 1506.29 1752.3 1510.98 Q1748.66 1515.67 1748.14 1525.15 Q1750.19 1522.13 1753.28 1520.53 Q1756.37 1518.9 1760.08 1518.9 Q1767.89 1518.9 1772.41 1523.65 Q1776.96 1528.38 1776.96 1536.54 Q1776.96 1544.52 1772.23 1549.35 Q1767.51 1554.17 1759.66 1554.17 Q1750.67 1554.17 1745.91 1547.3 Q1741.16 1540.39 1741.16 1527.3 Q1741.16 1515.01 1746.99 1507.72 Q1752.82 1500.39 1762.65 1500.39 Q1765.29 1500.39 1767.96 1500.91 Q1770.67 1501.43 1773.59 1502.47 Z" fill="#000000" fill-rule="nonzero" fill-opacity="1" /><path clip-path="url(#clip720)" d="M1804.04 1505.95 Q1798.62 1505.95 1795.88 1511.29 Q1793.17 1516.61 1793.17 1527.3 Q1793.17 1537.96 1795.88 1543.31 Q1798.62 1548.62 1804.04 1548.62 Q1809.49 1548.62 1812.2 1543.31 Q1814.94 1537.96 1814.94 1527.3 Q1814.94 1516.61 1812.2 1511.29 Q1809.49 1505.95 1804.04 1505.95 M1804.04 1500.39 Q1812.75 1500.39 1817.34 1507.3 Q1821.96 1514.18 1821.96 1527.3 Q1821.96 1540.39 1817.34 1547.3 Q1812.75 1554.17 1804.04 1554.17 Q1795.32 1554.17 1790.71 1547.3 Q1786.12 1540.39 1786.12 1527.3 Q1786.12 1514.18 1790.71 1507.3 Q1795.32 1500.39 1804.04 1500.39 Z" fill="#000000" fill-rule="nonzero" fill-opacity="1" /><path clip-path="url(#clip720)" d="M2269.55 1528.55 Q2264.55 1528.55 2261.67 1531.22 Q2258.82 1533.9 2258.82 1538.58 Q2258.82 1543.27 2261.67 1545.95 Q2264.55 1548.62 2269.55 1548.62 Q2274.55 1548.62 2277.43 1545.95 Q2280.31 1543.24 2280.31 1538.58 Q2280.31 1533.9 2277.43 1531.22 Q2274.58 1528.55 2269.55 1528.55 M2262.54 1525.56 Q2258.02 1524.45 2255.49 1521.36 Q2252.99 1518.27 2252.99 1513.83 Q2252.99 1507.61 2257.4 1504 Q2261.84 1500.39 2269.55 1500.39 Q2277.29 1500.39 2281.7 1504 Q2286.11 1507.61 2286.11 1513.83 Q2286.11 1518.27 2283.58 1521.36 Q2281.08 1524.45 2276.6 1525.56 Q2281.67 1526.74 2284.48 1530.18 Q2287.33 1533.62 2287.33 1538.58 Q2287.33 1546.12 2282.71 1550.15 Q2278.13 1554.17 2269.55 1554.17 Q2260.97 1554.17 2256.35 1550.15 Q2251.77 1546.12 2251.77 1538.58 Q2251.77 1533.62 2254.62 1530.18 Q2257.47 1526.74 2262.54 1525.56 M2259.97 1514.49 Q2259.97 1518.52 2262.47 1520.77 Q2265 1523.03 2269.55 1523.03 Q2274.06 1523.03 2276.6 1520.77 Q2279.17 1518.52 2279.17 1514.49 Q2279.17 1510.46 2276.6 1508.2 Q2274.06 1505.95 2269.55 1505.95 Q2265 1505.95 2262.47 1508.2 Q2259.97 1510.46 2259.97 1514.49 Z" fill="#000000" fill-rule="nonzero" fill-opacity="1" /><path clip-path="url(#clip720)" d="M2314.79 1505.95 Q2309.38 1505.95 2306.63 1511.29 Q2303.92 1516.61 2303.92 1527.3 Q2303.92 1537.96 2306.63 1543.31 Q2309.38 1548.62 2314.79 1548.62 Q2320.24 1548.62 2322.95 1543.31 Q2325.69 1537.96 2325.69 1527.3 Q2325.69 1516.61 2322.95 1511.29 Q2320.24 1505.95 2314.79 1505.95 M2314.79 1500.39 Q2323.51 1500.39 2328.09 1507.3 Q2332.71 1514.18 2332.71 1527.3 Q2332.71 1540.39 2328.09 1547.3 Q2323.51 1554.17 2314.79 1554.17 Q2306.08 1554.17 2301.46 1547.3 Q2296.88 1540.39 2296.88 1527.3 Q2296.88 1514.18 2301.46 1507.3 Q2306.08 1500.39 2314.79 1500.39 Z" fill="#000000" fill-rule="nonzero" fill-opacity="1" /><polyline clip-path="url(#clip720)" style="stroke:#000000; stroke-linecap:round; stroke-linejoin:round; stroke-width:4; stroke-opacity:1; fill:none" points="214.526,1469.17 214.526,47.2441 "/>
<polyline clip-path="url(#clip720)" style="stroke:#000000; stroke-linecap:round; stroke-linejoin:round; stroke-width:4; stroke-opacity:1; fill:none" points="214.526,1428.92 233.424,1428.92 "/>
<polyline clip-path="url(#clip720)" style="stroke:#000000; stroke-linecap:round; stroke-linejoin:round; stroke-width:4; stroke-opacity:1; fill:none" points="214.526,1229.14 233.424,1229.14 "/>
<polyline clip-path="url(#clip720)" style="stroke:#000000; stroke-linecap:round; stroke-linejoin:round; stroke-width:4; stroke-opacity:1; fill:none" points="214.526,1029.36 233.424,1029.36 "/>
<polyline clip-path="url(#clip720)" style="stroke:#000000; stroke-linecap:round; stroke-linejoin:round; stroke-width:4; stroke-opacity:1; fill:none" points="214.526,829.575 233.424,829.575 "/>
<polyline clip-path="url(#clip720)" style="stroke:#000000; stroke-linecap:round; stroke-linejoin:round; stroke-width:4; stroke-opacity:1; fill:none" points="214.526,629.792 233.424,629.792 "/>
<polyline clip-path="url(#clip720)" style="stroke:#000000; stroke-linecap:round; stroke-linejoin:round; stroke-width:4; stroke-opacity:1; fill:none" points="214.526,430.009 233.424,430.009 "/>
<polyline clip-path="url(#clip720)" style="stroke:#000000; stroke-linecap:round; stroke-linejoin:round; stroke-width:4; stroke-opacity:1; fill:none" points="214.526,230.226 233.424,230.226 "/>
<path clip-path="url(#clip720)" d="M160.61 1407.62 Q155.193 1407.62 152.45 1412.97 Q149.742 1418.28 149.742 1428.98 Q149.742 1439.64 152.45 1444.98 Q155.193 1450.3 160.61 1450.3 Q166.061 1450.3 168.769 1444.98 Q171.512 1439.64 171.512 1428.98 Q171.512 1418.28 168.769 1412.97 Q166.061 1407.62 160.61 1407.62 M160.61 1402.07 Q169.325 1402.07 173.908 1408.98 Q178.526 1415.85 178.526 1428.98 Q178.526 1442.07 173.908 1448.98 Q169.325 1455.85 160.61 1455.85 Q151.894 1455.85 147.276 1448.98 Q142.693 1442.07 142.693 1428.98 Q142.693 1415.85 147.276 1408.98 Q151.894 1402.07 160.61 1402.07 Z" fill="#000000" fill-rule="nonzero" fill-opacity="1" /><path clip-path="url(#clip720)" d="M56.3393 1249.16 L67.7976 1249.16 L67.7976 1209.61 L55.3324 1212.11 L55.3324 1205.72 L67.7281 1203.22 L74.742 1203.22 L74.742 1249.16 L86.2003 1249.16 L86.2003 1255.06 L56.3393 1255.06 L56.3393 1249.16 Z" fill="#000000" fill-rule="nonzero" fill-opacity="1" /><path clip-path="url(#clip720)" d="M115.367 1207.84 Q109.95 1207.84 107.207 1213.19 Q104.499 1218.5 104.499 1229.19 Q104.499 1239.85 107.207 1245.2 Q109.95 1250.51 115.367 1250.51 Q120.818 1250.51 123.526 1245.2 Q126.27 1239.85 126.27 1229.19 Q126.27 1218.5 123.526 1213.19 Q120.818 1207.84 115.367 1207.84 M115.367 1202.28 Q124.082 1202.28 128.665 1209.19 Q133.283 1216.07 133.283 1229.19 Q133.283 1242.28 128.665 1249.19 Q124.082 1256.07 115.367 1256.07 Q106.652 1256.07 102.034 1249.19 Q97.4502 1242.28 97.4502 1229.19 Q97.4502 1216.07 102.034 1209.19 Q106.652 1202.28 115.367 1202.28 Z" fill="#000000" fill-rule="nonzero" fill-opacity="1" /><path clip-path="url(#clip720)" d="M160.61 1207.84 Q155.193 1207.84 152.45 1213.19 Q149.742 1218.5 149.742 1229.19 Q149.742 1239.85 152.45 1245.2 Q155.193 1250.51 160.61 1250.51 Q166.061 1250.51 168.769 1245.2 Q171.512 1239.85 171.512 1229.19 Q171.512 1218.5 168.769 1213.19 Q166.061 1207.84 160.61 1207.84 M160.61 1202.28 Q169.325 1202.28 173.908 1209.19 Q178.526 1216.07 178.526 1229.19 Q178.526 1242.28 173.908 1249.19 Q169.325 1256.07 160.61 1256.07 Q151.894 1256.07 147.276 1249.19 Q142.693 1242.28 142.693 1229.19 Q142.693 1216.07 147.276 1209.19 Q151.894 1202.28 160.61 1202.28 Z" fill="#000000" fill-rule="nonzero" fill-opacity="1" /><path clip-path="url(#clip720)" d="M61.1657 1049.38 L85.6447 1049.38 L85.6447 1055.28 L52.7282 1055.28 L52.7282 1049.38 Q56.7213 1045.24 63.5962 1038.3 Q70.5059 1031.32 72.2767 1029.31 Q75.6448 1025.52 76.9642 1022.92 Q78.3184 1020.28 78.3184 1017.74 Q78.3184 1013.61 75.4017 1011.01 Q72.5198 1008.4 67.867 1008.4 Q64.5684 1008.4 60.8879 1009.55 Q57.2421 1010.7 53.0754 1013.02 L53.0754 1005.94 Q57.3115 1004.24 60.9921 1003.37 Q64.6726 1002.5 67.7281 1002.5 Q75.7837 1002.5 80.5753 1006.53 Q85.3669 1010.56 85.3669 1017.29 Q85.3669 1020.49 84.1517 1023.37 Q82.9711 1026.22 79.8114 1030.11 Q78.9434 1031.11 74.2906 1035.94 Q69.6379 1040.73 61.1657 1049.38 Z" fill="#000000" fill-rule="nonzero" fill-opacity="1" /><path clip-path="url(#clip720)" d="M115.367 1008.06 Q109.95 1008.06 107.207 1013.4 Q104.499 1018.72 104.499 1029.41 Q104.499 1040.07 107.207 1045.42 Q109.95 1050.73 115.367 1050.73 Q120.818 1050.73 123.526 1045.42 Q126.27 1040.07 126.27 1029.41 Q126.27 1018.72 123.526 1013.4 Q120.818 1008.06 115.367 1008.06 M115.367 1002.5 Q124.082 1002.5 128.665 1009.41 Q133.283 1016.29 133.283 1029.41 Q133.283 1042.5 128.665 1049.41 Q124.082 1056.29 115.367 1056.29 Q106.652 1056.29 102.034 1049.41 Q97.4502 1042.5 97.4502 1029.41 Q97.4502 1016.29 102.034 1009.41 Q106.652 1002.5 115.367 1002.5 Z" fill="#000000" fill-rule="nonzero" fill-opacity="1" /><path clip-path="url(#clip720)" d="M160.61 1008.06 Q155.193 1008.06 152.45 1013.4 Q149.742 1018.72 149.742 1029.41 Q149.742 1040.07 152.45 1045.42 Q155.193 1050.73 160.61 1050.73 Q166.061 1050.73 168.769 1045.42 Q171.512 1040.07 171.512 1029.41 Q171.512 1018.72 168.769 1013.4 Q166.061 1008.06 160.61 1008.06 M160.61 1002.5 Q169.325 1002.5 173.908 1009.41 Q178.526 1016.29 178.526 1029.41 Q178.526 1042.5 173.908 1049.41 Q169.325 1056.29 160.61 1056.29 Q151.894 1056.29 147.276 1049.41 Q142.693 1042.5 142.693 1029.41 Q142.693 1016.29 147.276 1009.41 Q151.894 1002.5 160.61 1002.5 Z" fill="#000000" fill-rule="nonzero" fill-opacity="1" /><path clip-path="url(#clip720)" d="M76.3739 827.544 Q81.4086 828.621 84.2211 832.023 Q87.0683 835.426 87.0683 840.426 Q87.0683 848.1 81.7906 852.301 Q76.5128 856.502 66.7907 856.502 Q63.5268 856.502 60.0546 855.843 Q56.6171 855.218 52.9366 853.933 L52.9366 847.162 Q55.8532 848.864 59.3254 849.732 Q62.7976 850.6 66.5823 850.6 Q73.1795 850.6 76.617 847.996 Q80.0892 845.391 80.0892 840.426 Q80.0892 835.843 76.86 833.273 Q73.6656 830.669 67.9365 830.669 L61.8948 830.669 L61.8948 824.905 L68.2143 824.905 Q73.3878 824.905 76.1309 822.857 Q78.8739 820.773 78.8739 816.885 Q78.8739 812.892 76.0267 810.773 Q73.2142 808.621 67.9365 808.621 Q65.0546 808.621 61.756 809.246 Q58.4574 809.871 54.4991 811.19 L54.4991 804.94 Q58.4921 803.829 61.9643 803.274 Q65.4712 802.718 68.5615 802.718 Q76.5475 802.718 81.2003 806.364 Q85.8531 809.975 85.8531 816.155 Q85.8531 820.461 83.3878 823.447 Q80.9225 826.398 76.3739 827.544 Z" fill="#000000" fill-rule="nonzero" fill-opacity="1" /><path clip-path="url(#clip720)" d="M115.367 808.274 Q109.95 808.274 107.207 813.621 Q104.499 818.933 104.499 829.628 Q104.499 840.287 107.207 845.634 Q109.95 850.947 115.367 850.947 Q120.818 850.947 123.526 845.634 Q126.27 840.287 126.27 829.628 Q126.27 818.933 123.526 813.621 Q120.818 808.274 115.367 808.274 M115.367 802.718 Q124.082 802.718 128.665 809.628 Q133.283 816.503 133.283 829.628 Q133.283 842.718 128.665 849.627 Q124.082 856.502 115.367 856.502 Q106.652 856.502 102.034 849.627 Q97.4502 842.718 97.4502 829.628 Q97.4502 816.503 102.034 809.628 Q106.652 802.718 115.367 802.718 Z" fill="#000000" fill-rule="nonzero" fill-opacity="1" /><path clip-path="url(#clip720)" d="M160.61 808.274 Q155.193 808.274 152.45 813.621 Q149.742 818.933 149.742 829.628 Q149.742 840.287 152.45 845.634 Q155.193 850.947 160.61 850.947 Q166.061 850.947 168.769 845.634 Q171.512 840.287 171.512 829.628 Q171.512 818.933 168.769 813.621 Q166.061 808.274 160.61 808.274 M160.61 802.718 Q169.325 802.718 173.908 809.628 Q178.526 816.503 178.526 829.628 Q178.526 842.718 173.908 849.627 Q169.325 856.502 160.61 856.502 Q151.894 856.502 147.276 849.627 Q142.693 842.718 142.693 829.628 Q142.693 816.503 147.276 809.628 Q151.894 802.718 160.61 802.718 Z" fill="#000000" fill-rule="nonzero" fill-opacity="1" /><path clip-path="url(#clip720)" d="M74.3948 609.983 L56.6865 637.657 L74.3948 637.657 L74.3948 609.983 M72.5545 603.872 L81.3739 603.872 L81.3739 637.657 L88.7697 637.657 L88.7697 643.49 L81.3739 643.49 L81.3739 655.712 L74.3948 655.712 L74.3948 643.49 L50.9921 643.49 L50.9921 636.719 L72.5545 603.872 Z" fill="#000000" fill-rule="nonzero" fill-opacity="1" /><path clip-path="url(#clip720)" d="M115.367 608.49 Q109.95 608.49 107.207 613.838 Q104.499 619.15 104.499 629.844 Q104.499 640.504 107.207 645.851 Q109.95 651.164 115.367 651.164 Q120.818 651.164 123.526 645.851 Q126.27 640.504 126.27 629.844 Q126.27 619.15 123.526 613.838 Q120.818 608.49 115.367 608.49 M115.367 602.935 Q124.082 602.935 128.665 609.845 Q133.283 616.72 133.283 629.844 Q133.283 642.935 128.665 649.844 Q124.082 656.719 115.367 656.719 Q106.652 656.719 102.034 649.844 Q97.4502 642.935 97.4502 629.844 Q97.4502 616.72 102.034 609.845 Q106.652 602.935 115.367 602.935 Z" fill="#000000" fill-rule="nonzero" fill-opacity="1" /><path clip-path="url(#clip720)" d="M160.61 608.49 Q155.193 608.49 152.45 613.838 Q149.742 619.15 149.742 629.844 Q149.742 640.504 152.45 645.851 Q155.193 651.164 160.61 651.164 Q166.061 651.164 168.769 645.851 Q171.512 640.504 171.512 629.844 Q171.512 619.15 168.769 613.838 Q166.061 608.49 160.61 608.49 M160.61 602.935 Q169.325 602.935 173.908 609.845 Q178.526 616.72 178.526 629.844 Q178.526 642.935 173.908 649.844 Q169.325 656.719 160.61 656.719 Q151.894 656.719 147.276 649.844 Q142.693 642.935 142.693 629.844 Q142.693 616.72 147.276 609.845 Q151.894 602.935 160.61 602.935 Z" fill="#000000" fill-rule="nonzero" fill-opacity="1" /><path clip-path="url(#clip720)" d="M55.1935 404.089 L82.7281 404.089 L82.7281 409.992 L61.6171 409.992 L61.6171 422.7 Q63.1448 422.179 64.6726 421.936 Q66.2004 421.659 67.7281 421.659 Q76.4087 421.659 81.4781 426.416 Q86.5475 431.172 86.5475 439.297 Q86.5475 447.665 81.3392 452.318 Q76.1309 456.936 66.6518 456.936 Q63.3879 456.936 59.9851 456.381 Q56.6171 455.825 53.006 454.714 L53.006 447.665 Q56.131 449.367 59.4643 450.2 Q62.7976 451.033 66.5129 451.033 Q72.5198 451.033 76.0267 447.874 Q79.5336 444.714 79.5336 439.297 Q79.5336 433.881 76.0267 430.721 Q72.5198 427.561 66.5129 427.561 Q63.7004 427.561 60.8879 428.186 Q58.1101 428.811 55.1935 430.131 L55.1935 404.089 Z" fill="#000000" fill-rule="nonzero" fill-opacity="1" /><path clip-path="url(#clip720)" d="M115.367 408.707 Q109.95 408.707 107.207 414.055 Q104.499 419.367 104.499 430.061 Q104.499 440.721 107.207 446.068 Q109.95 451.381 115.367 451.381 Q120.818 451.381 123.526 446.068 Q126.27 440.721 126.27 430.061 Q126.27 419.367 123.526 414.055 Q120.818 408.707 115.367 408.707 M115.367 403.152 Q124.082 403.152 128.665 410.061 Q133.283 416.936 133.283 430.061 Q133.283 443.152 128.665 450.061 Q124.082 456.936 115.367 456.936 Q106.652 456.936 102.034 450.061 Q97.4502 443.152 97.4502 430.061 Q97.4502 416.936 102.034 410.061 Q106.652 403.152 115.367 403.152 Z" fill="#000000" fill-rule="nonzero" fill-opacity="1" /><path clip-path="url(#clip720)" d="M160.61 408.707 Q155.193 408.707 152.45 414.055 Q149.742 419.367 149.742 430.061 Q149.742 440.721 152.45 446.068 Q155.193 451.381 160.61 451.381 Q166.061 451.381 168.769 446.068 Q171.512 440.721 171.512 430.061 Q171.512 419.367 168.769 414.055 Q166.061 408.707 160.61 408.707 M160.61 403.152 Q169.325 403.152 173.908 410.061 Q178.526 416.936 178.526 430.061 Q178.526 443.152 173.908 450.061 Q169.325 456.936 160.61 456.936 Q151.894 456.936 147.276 450.061 Q142.693 443.152 142.693 430.061 Q142.693 416.936 147.276 410.061 Q151.894 403.152 160.61 403.152 Z" fill="#000000" fill-rule="nonzero" fill-opacity="1" /><path clip-path="url(#clip720)" d="M70.992 227.431 Q66.2698 227.431 63.4921 230.66 Q60.749 233.889 60.749 239.514 Q60.749 245.105 63.4921 248.368 Q66.2698 251.598 70.992 251.598 Q75.7142 251.598 78.4573 248.368 Q81.235 245.105 81.235 239.514 Q81.235 233.889 78.4573 230.66 Q75.7142 227.431 70.992 227.431 M84.9156 205.452 L84.9156 211.841 Q82.2767 210.591 79.5684 209.931 Q76.8948 209.271 74.2559 209.271 Q67.3115 209.271 63.6309 213.959 Q59.9851 218.646 59.4643 228.126 Q61.5129 225.105 64.6032 223.507 Q67.6934 221.876 71.4087 221.876 Q79.2211 221.876 83.735 226.632 Q88.2836 231.355 88.2836 239.514 Q88.2836 247.5 83.5614 252.327 Q78.8392 257.153 70.992 257.153 Q61.999 257.153 57.2421 250.278 Q52.4852 243.368 52.4852 230.278 Q52.4852 217.987 58.3185 210.695 Q64.1518 203.369 73.9781 203.369 Q76.617 203.369 79.2906 203.89 Q81.9989 204.41 84.9156 205.452 Z" fill="#000000" fill-rule="nonzero" fill-opacity="1" /><path clip-path="url(#clip720)" d="M115.367 208.924 Q109.95 208.924 107.207 214.271 Q104.499 219.584 104.499 230.278 Q104.499 240.938 107.207 246.285 Q109.95 251.598 115.367 251.598 Q120.818 251.598 123.526 246.285 Q126.27 240.938 126.27 230.278 Q126.27 219.584 123.526 214.271 Q120.818 208.924 115.367 208.924 M115.367 203.369 Q124.082 203.369 128.665 210.278 Q133.283 217.153 133.283 230.278 Q133.283 243.368 128.665 250.278 Q124.082 257.153 115.367 257.153 Q106.652 257.153 102.034 250.278 Q97.4502 243.368 97.4502 230.278 Q97.4502 217.153 102.034 210.278 Q106.652 203.369 115.367 203.369 Z" fill="#000000" fill-rule="nonzero" fill-opacity="1" /><path clip-path="url(#clip720)" d="M160.61 208.924 Q155.193 208.924 152.45 214.271 Q149.742 219.584 149.742 230.278 Q149.742 240.938 152.45 246.285 Q155.193 251.598 160.61 251.598 Q166.061 251.598 168.769 246.285 Q171.512 240.938 171.512 230.278 Q171.512 219.584 168.769 214.271 Q166.061 208.924 160.61 208.924 M160.61 203.369 Q169.325 203.369 173.908 210.278 Q178.526 217.153 178.526 230.278 Q178.526 243.368 173.908 250.278 Q169.325 257.153 160.61 257.153 Q151.894 257.153 147.276 250.278 Q142.693 243.368 142.693 230.278 Q142.693 217.153 147.276 210.278 Q151.894 203.369 160.61 203.369 Z" fill="#000000" fill-rule="nonzero" fill-opacity="1" /><circle clip-path="url(#clip721)" cx="275.042" cy="87.4872" r="14.4" fill="#009af9" fill-rule="evenodd" fill-opacity="1" stroke="none"/>
<circle clip-path="url(#clip721)" cx="300.576" cy="699.991" r="14.4" fill="#009af9" fill-rule="evenodd" fill-opacity="1" stroke="none"/>
<circle clip-path="url(#clip721)" cx="326.11" cy="1323.01" r="14.4" fill="#009af9" fill-rule="evenodd" fill-opacity="1" stroke="none"/>
<circle clip-path="url(#clip721)" cx="351.645" cy="1326.94" r="14.4" fill="#009af9" fill-rule="evenodd" fill-opacity="1" stroke="none"/>
<circle clip-path="url(#clip721)" cx="377.179" cy="1380.69" r="14.4" fill="#009af9" fill-rule="evenodd" fill-opacity="1" stroke="none"/>
<circle clip-path="url(#clip721)" cx="402.713" cy="1395.07" r="14.4" fill="#009af9" fill-rule="evenodd" fill-opacity="1" stroke="none"/>
<circle clip-path="url(#clip721)" cx="428.247" cy="1399.4" r="14.4" fill="#009af9" fill-rule="evenodd" fill-opacity="1" stroke="none"/>
<circle clip-path="url(#clip721)" cx="453.781" cy="1405.87" r="14.4" fill="#009af9" fill-rule="evenodd" fill-opacity="1" stroke="none"/>
<circle clip-path="url(#clip721)" cx="479.315" cy="1408.75" r="14.4" fill="#009af9" fill-rule="evenodd" fill-opacity="1" stroke="none"/>
<circle clip-path="url(#clip721)" cx="504.849" cy="1409.79" r="14.4" fill="#009af9" fill-rule="evenodd" fill-opacity="1" stroke="none"/>
<circle clip-path="url(#clip721)" cx="530.384" cy="1413.24" r="14.4" fill="#009af9" fill-rule="evenodd" fill-opacity="1" stroke="none"/>
<circle clip-path="url(#clip721)" cx="555.918" cy="1415.65" r="14.4" fill="#009af9" fill-rule="evenodd" fill-opacity="1" stroke="none"/>
<circle clip-path="url(#clip721)" cx="581.452" cy="1416.76" r="14.4" fill="#009af9" fill-rule="evenodd" fill-opacity="1" stroke="none"/>
<circle clip-path="url(#clip721)" cx="606.986" cy="1419.22" r="14.4" fill="#009af9" fill-rule="evenodd" fill-opacity="1" stroke="none"/>
<circle clip-path="url(#clip721)" cx="632.52" cy="1420.72" r="14.4" fill="#009af9" fill-rule="evenodd" fill-opacity="1" stroke="none"/>
<circle clip-path="url(#clip721)" cx="658.054" cy="1420.73" r="14.4" fill="#009af9" fill-rule="evenodd" fill-opacity="1" stroke="none"/>
<circle clip-path="url(#clip721)" cx="683.589" cy="1421.61" r="14.4" fill="#009af9" fill-rule="evenodd" fill-opacity="1" stroke="none"/>
<circle clip-path="url(#clip721)" cx="709.123" cy="1422.06" r="14.4" fill="#009af9" fill-rule="evenodd" fill-opacity="1" stroke="none"/>
<circle clip-path="url(#clip721)" cx="734.657" cy="1422.98" r="14.4" fill="#009af9" fill-rule="evenodd" fill-opacity="1" stroke="none"/>
<circle clip-path="url(#clip721)" cx="760.191" cy="1423.16" r="14.4" fill="#009af9" fill-rule="evenodd" fill-opacity="1" stroke="none"/>
<circle clip-path="url(#clip721)" cx="785.725" cy="1423.35" r="14.4" fill="#009af9" fill-rule="evenodd" fill-opacity="1" stroke="none"/>
<circle clip-path="url(#clip721)" cx="811.259" cy="1423.56" r="14.4" fill="#009af9" fill-rule="evenodd" fill-opacity="1" stroke="none"/>
<circle clip-path="url(#clip721)" cx="836.793" cy="1423.59" r="14.4" fill="#009af9" fill-rule="evenodd" fill-opacity="1" stroke="none"/>
<circle clip-path="url(#clip721)" cx="862.328" cy="1423.83" r="14.4" fill="#009af9" fill-rule="evenodd" fill-opacity="1" stroke="none"/>
<circle clip-path="url(#clip721)" cx="887.862" cy="1424.07" r="14.4" fill="#009af9" fill-rule="evenodd" fill-opacity="1" stroke="none"/>
<circle clip-path="url(#clip721)" cx="913.396" cy="1424.65" r="14.4" fill="#009af9" fill-rule="evenodd" fill-opacity="1" stroke="none"/>
<circle clip-path="url(#clip721)" cx="938.93" cy="1425.06" r="14.4" fill="#009af9" fill-rule="evenodd" fill-opacity="1" stroke="none"/>
<circle clip-path="url(#clip721)" cx="964.464" cy="1425.2" r="14.4" fill="#009af9" fill-rule="evenodd" fill-opacity="1" stroke="none"/>
<circle clip-path="url(#clip721)" cx="989.998" cy="1425.35" r="14.4" fill="#009af9" fill-rule="evenodd" fill-opacity="1" stroke="none"/>
<circle clip-path="url(#clip721)" cx="1015.53" cy="1425.45" r="14.4" fill="#009af9" fill-rule="evenodd" fill-opacity="1" stroke="none"/>
<circle clip-path="url(#clip721)" cx="1041.07" cy="1425.69" r="14.4" fill="#009af9" fill-rule="evenodd" fill-opacity="1" stroke="none"/>
<circle clip-path="url(#clip721)" cx="1066.6" cy="1425.71" r="14.4" fill="#009af9" fill-rule="evenodd" fill-opacity="1" stroke="none"/>
<circle clip-path="url(#clip721)" cx="1092.13" cy="1425.85" r="14.4" fill="#009af9" fill-rule="evenodd" fill-opacity="1" stroke="none"/>
<circle clip-path="url(#clip721)" cx="1117.67" cy="1426.07" r="14.4" fill="#009af9" fill-rule="evenodd" fill-opacity="1" stroke="none"/>
<circle clip-path="url(#clip721)" cx="1143.2" cy="1426.23" r="14.4" fill="#009af9" fill-rule="evenodd" fill-opacity="1" stroke="none"/>
<circle clip-path="url(#clip721)" cx="1168.74" cy="1426.28" r="14.4" fill="#009af9" fill-rule="evenodd" fill-opacity="1" stroke="none"/>
<circle clip-path="url(#clip721)" cx="1194.27" cy="1426.31" r="14.4" fill="#009af9" fill-rule="evenodd" fill-opacity="1" stroke="none"/>
<circle clip-path="url(#clip721)" cx="1219.81" cy="1426.36" r="14.4" fill="#009af9" fill-rule="evenodd" fill-opacity="1" stroke="none"/>
<circle clip-path="url(#clip721)" cx="1245.34" cy="1426.52" r="14.4" fill="#009af9" fill-rule="evenodd" fill-opacity="1" stroke="none"/>
<circle clip-path="url(#clip721)" cx="1270.87" cy="1426.69" r="14.4" fill="#009af9" fill-rule="evenodd" fill-opacity="1" stroke="none"/>
<circle clip-path="url(#clip721)" cx="1296.41" cy="1426.75" r="14.4" fill="#009af9" fill-rule="evenodd" fill-opacity="1" stroke="none"/>
<circle clip-path="url(#clip721)" cx="1321.94" cy="1426.77" r="14.4" fill="#009af9" fill-rule="evenodd" fill-opacity="1" stroke="none"/>
<circle clip-path="url(#clip721)" cx="1347.48" cy="1426.84" r="14.4" fill="#009af9" fill-rule="evenodd" fill-opacity="1" stroke="none"/>
<circle clip-path="url(#clip721)" cx="1373.01" cy="1426.85" r="14.4" fill="#009af9" fill-rule="evenodd" fill-opacity="1" stroke="none"/>
<circle clip-path="url(#clip721)" cx="1398.54" cy="1426.91" r="14.4" fill="#009af9" fill-rule="evenodd" fill-opacity="1" stroke="none"/>
<circle clip-path="url(#clip721)" cx="1424.08" cy="1426.92" r="14.4" fill="#009af9" fill-rule="evenodd" fill-opacity="1" stroke="none"/>
<circle clip-path="url(#clip721)" cx="1449.61" cy="1427" r="14.4" fill="#009af9" fill-rule="evenodd" fill-opacity="1" stroke="none"/>
<circle clip-path="url(#clip721)" cx="1475.15" cy="1427.05" r="14.4" fill="#009af9" fill-rule="evenodd" fill-opacity="1" stroke="none"/>
<circle clip-path="url(#clip721)" cx="1500.68" cy="1427.15" r="14.4" fill="#009af9" fill-rule="evenodd" fill-opacity="1" stroke="none"/>
<circle clip-path="url(#clip721)" cx="1526.22" cy="1427.17" r="14.4" fill="#009af9" fill-rule="evenodd" fill-opacity="1" stroke="none"/>
<circle clip-path="url(#clip721)" cx="1551.75" cy="1427.2" r="14.4" fill="#009af9" fill-rule="evenodd" fill-opacity="1" stroke="none"/>
<circle clip-path="url(#clip721)" cx="1577.28" cy="1427.22" r="14.4" fill="#009af9" fill-rule="evenodd" fill-opacity="1" stroke="none"/>
<circle clip-path="url(#clip721)" cx="1602.82" cy="1427.22" r="14.4" fill="#009af9" fill-rule="evenodd" fill-opacity="1" stroke="none"/>
<circle clip-path="url(#clip721)" cx="1628.35" cy="1427.22" r="14.4" fill="#009af9" fill-rule="evenodd" fill-opacity="1" stroke="none"/>
<circle clip-path="url(#clip721)" cx="1653.89" cy="1427.29" r="14.4" fill="#009af9" fill-rule="evenodd" fill-opacity="1" stroke="none"/>
<circle clip-path="url(#clip721)" cx="1679.42" cy="1427.29" r="14.4" fill="#009af9" fill-rule="evenodd" fill-opacity="1" stroke="none"/>
<circle clip-path="url(#clip721)" cx="1704.95" cy="1427.3" r="14.4" fill="#009af9" fill-rule="evenodd" fill-opacity="1" stroke="none"/>
<circle clip-path="url(#clip721)" cx="1730.49" cy="1427.3" r="14.4" fill="#009af9" fill-rule="evenodd" fill-opacity="1" stroke="none"/>
<circle clip-path="url(#clip721)" cx="1756.02" cy="1427.34" r="14.4" fill="#009af9" fill-rule="evenodd" fill-opacity="1" stroke="none"/>
<circle clip-path="url(#clip721)" cx="1781.56" cy="1427.35" r="14.4" fill="#009af9" fill-rule="evenodd" fill-opacity="1" stroke="none"/>
<circle clip-path="url(#clip721)" cx="1807.09" cy="1427.36" r="14.4" fill="#009af9" fill-rule="evenodd" fill-opacity="1" stroke="none"/>
<circle clip-path="url(#clip721)" cx="1832.63" cy="1427.38" r="14.4" fill="#009af9" fill-rule="evenodd" fill-opacity="1" stroke="none"/>
<circle clip-path="url(#clip721)" cx="1858.16" cy="1427.41" r="14.4" fill="#009af9" fill-rule="evenodd" fill-opacity="1" stroke="none"/>
<circle clip-path="url(#clip721)" cx="1883.69" cy="1427.41" r="14.4" fill="#009af9" fill-rule="evenodd" fill-opacity="1" stroke="none"/>
<circle clip-path="url(#clip721)" cx="1909.23" cy="1427.44" r="14.4" fill="#009af9" fill-rule="evenodd" fill-opacity="1" stroke="none"/>
<circle clip-path="url(#clip721)" cx="1934.76" cy="1427.44" r="14.4" fill="#009af9" fill-rule="evenodd" fill-opacity="1" stroke="none"/>
<circle clip-path="url(#clip721)" cx="1960.3" cy="1427.49" r="14.4" fill="#009af9" fill-rule="evenodd" fill-opacity="1" stroke="none"/>
<circle clip-path="url(#clip721)" cx="1985.83" cy="1427.5" r="14.4" fill="#009af9" fill-rule="evenodd" fill-opacity="1" stroke="none"/>
<circle clip-path="url(#clip721)" cx="2011.36" cy="1427.51" r="14.4" fill="#009af9" fill-rule="evenodd" fill-opacity="1" stroke="none"/>
<circle clip-path="url(#clip721)" cx="2036.9" cy="1427.52" r="14.4" fill="#009af9" fill-rule="evenodd" fill-opacity="1" stroke="none"/>
<circle clip-path="url(#clip721)" cx="2062.43" cy="1427.53" r="14.4" fill="#009af9" fill-rule="evenodd" fill-opacity="1" stroke="none"/>
<circle clip-path="url(#clip721)" cx="2087.97" cy="1427.53" r="14.4" fill="#009af9" fill-rule="evenodd" fill-opacity="1" stroke="none"/>
<circle clip-path="url(#clip721)" cx="2113.5" cy="1427.58" r="14.4" fill="#009af9" fill-rule="evenodd" fill-opacity="1" stroke="none"/>
<circle clip-path="url(#clip721)" cx="2139.04" cy="1427.58" r="14.4" fill="#009af9" fill-rule="evenodd" fill-opacity="1" stroke="none"/>
<circle clip-path="url(#clip721)" cx="2164.57" cy="1427.58" r="14.4" fill="#009af9" fill-rule="evenodd" fill-opacity="1" stroke="none"/>
<circle clip-path="url(#clip721)" cx="2190.1" cy="1427.59" r="14.4" fill="#009af9" fill-rule="evenodd" fill-opacity="1" stroke="none"/>
<circle clip-path="url(#clip721)" cx="2215.64" cy="1427.59" r="14.4" fill="#009af9" fill-rule="evenodd" fill-opacity="1" stroke="none"/>
<circle clip-path="url(#clip721)" cx="2241.17" cy="1427.93" r="14.4" fill="#009af9" fill-rule="evenodd" fill-opacity="1" stroke="none"/>
<circle clip-path="url(#clip721)" cx="2266.71" cy="1427.93" r="14.4" fill="#009af9" fill-rule="evenodd" fill-opacity="1" stroke="none"/>
<circle clip-path="url(#clip721)" cx="2292.24" cy="1428.92" r="14.4" fill="#009af9" fill-rule="evenodd" fill-opacity="1" stroke="none"/>
<path clip-path="url(#clip720)" d="M869.32 276.082 L2281.48 276.082 L2281.48 94.6416 L869.32 94.6416  Z" fill="#ffffff" fill-rule="evenodd" fill-opacity="1"/>
<polyline clip-path="url(#clip720)" style="stroke:#000000; stroke-linecap:round; stroke-linejoin:round; stroke-width:4; stroke-opacity:1; fill:none" points="869.32,276.082 2281.48,276.082 2281.48,94.6416 869.32,94.6416 869.32,276.082 "/>
<circle clip-path="url(#clip720)" cx="964.353" cy="185.362" r="35.84" fill="#009af9" fill-rule="evenodd" fill-opacity="1" stroke="none"/>
<path clip-path="url(#clip720)" d="M1091.63 171.568 L1091.63 178.617 Q1088.47 176.996 1085.07 176.186 Q1081.66 175.376 1078.02 175.376 Q1072.47 175.376 1069.67 177.077 Q1066.92 178.779 1066.92 182.182 Q1066.92 184.774 1068.9 186.273 Q1070.89 187.731 1076.88 189.068 L1079.44 189.635 Q1087.38 191.337 1090.7 194.456 Q1094.06 197.535 1094.06 203.084 Q1094.06 209.404 1089.04 213.09 Q1084.05 216.776 1075.31 216.776 Q1071.66 216.776 1067.69 216.047 Q1063.76 215.358 1059.38 213.941 L1059.38 206.244 Q1063.52 208.391 1067.53 209.485 Q1071.54 210.538 1075.47 210.538 Q1080.73 210.538 1083.57 208.756 Q1086.4 206.933 1086.4 203.651 Q1086.4 200.613 1084.34 198.993 Q1082.31 197.372 1075.39 195.874 L1072.79 195.266 Q1065.87 193.808 1062.79 190.81 Q1059.71 187.772 1059.71 182.506 Q1059.71 176.105 1064.25 172.621 Q1068.78 169.138 1077.13 169.138 Q1081.26 169.138 1084.91 169.745 Q1088.55 170.353 1091.63 171.568 Z" fill="#000000" fill-rule="nonzero" fill-opacity="1" /><path clip-path="url(#clip720)" d="M1105.93 170.231 L1113.38 170.231 L1113.38 215.602 L1105.93 215.602 L1105.93 170.231 M1105.93 152.569 L1113.38 152.569 L1113.38 162.008 L1105.93 162.008 L1105.93 152.569 Z" fill="#000000" fill-rule="nonzero" fill-opacity="1" /><path clip-path="url(#clip720)" d="M1166.69 188.217 L1166.69 215.602 L1159.24 215.602 L1159.24 188.46 Q1159.24 182.02 1156.73 178.819 Q1154.22 175.619 1149.19 175.619 Q1143.16 175.619 1139.67 179.467 Q1136.19 183.316 1136.19 189.959 L1136.19 215.602 L1128.7 215.602 L1128.7 170.231 L1136.19 170.231 L1136.19 177.28 Q1138.86 173.189 1142.47 171.163 Q1146.11 169.138 1150.85 169.138 Q1158.67 169.138 1162.68 173.999 Q1166.69 178.819 1166.69 188.217 Z" fill="#000000" fill-rule="nonzero" fill-opacity="1" /><path clip-path="url(#clip720)" d="M1211.42 192.39 Q1211.42 184.288 1208.05 179.832 Q1204.73 175.376 1198.7 175.376 Q1192.7 175.376 1189.34 179.832 Q1186.02 184.288 1186.02 192.39 Q1186.02 200.451 1189.34 204.907 Q1192.7 209.363 1198.7 209.363 Q1204.73 209.363 1208.05 204.907 Q1211.42 200.451 1211.42 192.39 M1218.87 209.971 Q1218.87 221.556 1213.72 227.187 Q1208.58 232.858 1197.97 232.858 Q1194.04 232.858 1190.55 232.251 Q1187.07 231.684 1183.79 230.468 L1183.79 223.217 Q1187.07 225 1190.27 225.85 Q1193.47 226.701 1196.79 226.701 Q1204.12 226.701 1207.77 222.853 Q1211.42 219.045 1211.42 211.308 L1211.42 207.621 Q1209.11 211.632 1205.5 213.617 Q1201.9 215.602 1196.87 215.602 Q1188.53 215.602 1183.42 209.242 Q1178.32 202.882 1178.32 192.39 Q1178.32 181.858 1183.42 175.498 Q1188.53 169.138 1196.87 169.138 Q1201.9 169.138 1205.5 171.123 Q1209.11 173.108 1211.42 177.118 L1211.42 170.231 L1218.87 170.231 L1218.87 209.971 Z" fill="#000000" fill-rule="nonzero" fill-opacity="1" /><path clip-path="url(#clip720)" d="M1233.45 197.697 L1233.45 170.231 L1240.91 170.231 L1240.91 197.413 Q1240.91 203.854 1243.42 207.095 Q1245.93 210.295 1250.95 210.295 Q1256.99 210.295 1260.47 206.447 Q1264 202.598 1264 195.955 L1264 170.231 L1271.45 170.231 L1271.45 215.602 L1264 215.602 L1264 208.634 Q1261.28 212.766 1257.68 214.791 Q1254.11 216.776 1249.37 216.776 Q1241.55 216.776 1237.5 211.915 Q1233.45 207.054 1233.45 197.697 M1252.21 169.138 L1252.21 169.138 Z" fill="#000000" fill-rule="nonzero" fill-opacity="1" /><path clip-path="url(#clip720)" d="M1286.8 152.569 L1294.26 152.569 L1294.26 215.602 L1286.8 215.602 L1286.8 152.569 Z" fill="#000000" fill-rule="nonzero" fill-opacity="1" /><path clip-path="url(#clip720)" d="M1330.47 192.795 Q1321.44 192.795 1317.95 194.861 Q1314.47 196.927 1314.47 201.909 Q1314.47 205.879 1317.06 208.229 Q1319.7 210.538 1324.19 210.538 Q1330.39 210.538 1334.12 206.163 Q1337.88 201.747 1337.88 194.456 L1337.88 192.795 L1330.47 192.795 M1345.34 189.716 L1345.34 215.602 L1337.88 215.602 L1337.88 208.715 Q1335.33 212.847 1331.52 214.832 Q1327.72 216.776 1322.21 216.776 Q1315.24 216.776 1311.11 212.887 Q1307.02 208.958 1307.02 202.396 Q1307.02 194.739 1312.12 190.851 Q1317.27 186.962 1327.43 186.962 L1337.88 186.962 L1337.88 186.232 Q1337.88 181.088 1334.48 178.293 Q1331.12 175.457 1325 175.457 Q1321.11 175.457 1317.43 176.389 Q1313.74 177.321 1310.34 179.184 L1310.34 172.297 Q1314.43 170.718 1318.28 169.948 Q1322.13 169.138 1325.77 169.138 Q1335.62 169.138 1340.48 174.242 Q1345.34 179.346 1345.34 189.716 Z" fill="#000000" fill-rule="nonzero" fill-opacity="1" /><path clip-path="url(#clip720)" d="M1386.98 177.199 Q1385.73 176.47 1384.23 176.146 Q1382.77 175.781 1380.99 175.781 Q1374.67 175.781 1371.26 179.913 Q1367.9 184.005 1367.9 191.701 L1367.9 215.602 L1360.41 215.602 L1360.41 170.231 L1367.9 170.231 L1367.9 177.28 Q1370.25 173.148 1374.02 171.163 Q1377.79 169.138 1383.17 169.138 Q1383.94 169.138 1384.88 169.259 Q1385.81 169.34 1386.94 169.543 L1386.98 177.199 Z" fill="#000000" fill-rule="nonzero" fill-opacity="1" /><path clip-path="url(#clip720)" d="M1415.82 170.231 L1423.72 170.231 L1437.9 208.31 L1452.08 170.231 L1459.98 170.231 L1442.97 215.602 L1432.84 215.602 L1415.82 170.231 Z" fill="#000000" fill-rule="nonzero" fill-opacity="1" /><path clip-path="url(#clip720)" d="M1490.89 192.795 Q1481.85 192.795 1478.37 194.861 Q1474.89 196.927 1474.89 201.909 Q1474.89 205.879 1477.48 208.229 Q1480.11 210.538 1484.61 210.538 Q1490.81 210.538 1494.53 206.163 Q1498.3 201.747 1498.3 194.456 L1498.3 192.795 L1490.89 192.795 M1505.75 189.716 L1505.75 215.602 L1498.3 215.602 L1498.3 208.715 Q1495.75 212.847 1491.94 214.832 Q1488.13 216.776 1482.62 216.776 Q1475.66 216.776 1471.52 212.887 Q1467.43 208.958 1467.43 202.396 Q1467.43 194.739 1472.54 190.851 Q1477.68 186.962 1487.85 186.962 L1498.3 186.962 L1498.3 186.232 Q1498.3 181.088 1494.9 178.293 Q1491.54 175.457 1485.42 175.457 Q1481.53 175.457 1477.84 176.389 Q1474.16 177.321 1470.75 179.184 L1470.75 172.297 Q1474.85 170.718 1478.69 169.948 Q1482.54 169.138 1486.19 169.138 Q1496.03 169.138 1500.89 174.242 Q1505.75 179.346 1505.75 189.716 Z" fill="#000000" fill-rule="nonzero" fill-opacity="1" /><path clip-path="url(#clip720)" d="M1521.11 152.569 L1528.56 152.569 L1528.56 215.602 L1521.11 215.602 L1521.11 152.569 Z" fill="#000000" fill-rule="nonzero" fill-opacity="1" /><path clip-path="url(#clip720)" d="M1543.39 197.697 L1543.39 170.231 L1550.84 170.231 L1550.84 197.413 Q1550.84 203.854 1553.35 207.095 Q1555.86 210.295 1560.89 210.295 Q1566.92 210.295 1570.41 206.447 Q1573.93 202.598 1573.93 195.955 L1573.93 170.231 L1581.38 170.231 L1581.38 215.602 L1573.93 215.602 L1573.93 208.634 Q1571.22 212.766 1567.61 214.791 Q1564.05 216.776 1559.31 216.776 Q1551.49 216.776 1547.44 211.915 Q1543.39 207.054 1543.39 197.697 M1562.14 169.138 L1562.14 169.138 Z" fill="#000000" fill-rule="nonzero" fill-opacity="1" /><path clip-path="url(#clip720)" d="M1635.55 191.053 L1635.55 194.699 L1601.27 194.699 Q1601.76 202.396 1605.89 206.447 Q1610.06 210.457 1617.48 210.457 Q1621.77 210.457 1625.78 209.404 Q1629.83 208.35 1633.8 206.244 L1633.8 213.293 Q1629.79 214.994 1625.58 215.885 Q1621.37 216.776 1617.03 216.776 Q1606.18 216.776 1599.82 210.457 Q1593.5 204.137 1593.5 193.362 Q1593.5 182.222 1599.49 175.7 Q1605.53 169.138 1615.74 169.138 Q1624.89 169.138 1630.2 175.052 Q1635.55 180.926 1635.55 191.053 M1628.09 188.866 Q1628.01 182.749 1624.65 179.103 Q1621.33 175.457 1615.82 175.457 Q1609.58 175.457 1605.81 178.981 Q1602.08 182.506 1601.52 188.906 L1628.09 188.866 Z" fill="#000000" fill-rule="nonzero" fill-opacity="1" /><path clip-path="url(#clip720)" d="M1676.7 171.568 L1676.7 178.617 Q1673.54 176.996 1670.14 176.186 Q1666.74 175.376 1663.09 175.376 Q1657.54 175.376 1654.75 177.077 Q1651.99 178.779 1651.99 182.182 Q1651.99 184.774 1653.98 186.273 Q1655.96 187.731 1661.96 189.068 L1664.51 189.635 Q1672.45 191.337 1675.77 194.456 Q1679.13 197.535 1679.13 203.084 Q1679.13 209.404 1674.11 213.09 Q1669.13 216.776 1660.38 216.776 Q1656.73 216.776 1652.76 216.047 Q1648.83 215.358 1644.46 213.941 L1644.46 206.244 Q1648.59 208.391 1652.6 209.485 Q1656.61 210.538 1660.54 210.538 Q1665.81 210.538 1668.64 208.756 Q1671.48 206.933 1671.48 203.651 Q1671.48 200.613 1669.41 198.993 Q1667.39 197.372 1660.46 195.874 L1657.87 195.266 Q1650.94 193.808 1647.86 190.81 Q1644.78 187.772 1644.78 182.506 Q1644.78 176.105 1649.32 172.621 Q1653.86 169.138 1662.2 169.138 Q1666.33 169.138 1669.98 169.745 Q1673.62 170.353 1676.7 171.568 Z" fill="#000000" fill-rule="nonzero" fill-opacity="1" /><path clip-path="url(#clip720)" d="M1735.28 152.651 Q1729.85 161.968 1727.22 171.082 Q1724.58 180.197 1724.58 189.554 Q1724.58 198.912 1727.22 208.107 Q1729.89 217.262 1735.28 226.539 L1728.8 226.539 Q1722.72 217.019 1719.68 207.824 Q1716.68 198.628 1716.68 189.554 Q1716.68 180.521 1719.68 171.366 Q1722.68 162.211 1728.8 152.651 L1735.28 152.651 Z" fill="#000000" fill-rule="nonzero" fill-opacity="1" /><path clip-path="url(#clip720)" d="M1782.31 192.957 Q1782.31 184.734 1778.91 180.075 Q1775.54 175.376 1769.63 175.376 Q1763.72 175.376 1760.31 180.075 Q1756.95 184.734 1756.95 192.957 Q1756.95 201.18 1760.31 205.879 Q1763.72 210.538 1769.63 210.538 Q1775.54 210.538 1778.91 205.879 Q1782.31 201.18 1782.31 192.957 M1756.95 177.118 Q1759.3 173.067 1762.87 171.123 Q1766.47 169.138 1771.45 169.138 Q1779.72 169.138 1784.86 175.7 Q1790.05 182.263 1790.05 192.957 Q1790.05 203.651 1784.86 210.214 Q1779.72 216.776 1771.45 216.776 Q1766.47 216.776 1762.87 214.832 Q1759.3 212.847 1756.95 208.796 L1756.95 215.602 L1749.46 215.602 L1749.46 152.569 L1756.95 152.569 L1756.95 177.118 Z" fill="#000000" fill-rule="nonzero" fill-opacity="1" /><path clip-path="url(#clip720)" d="M1802.4 170.231 L1809.86 170.231 L1809.86 215.602 L1802.4 215.602 L1802.4 170.231 M1802.4 152.569 L1809.86 152.569 L1809.86 162.008 L1802.4 162.008 L1802.4 152.569 Z" fill="#000000" fill-rule="nonzero" fill-opacity="1" /><path clip-path="url(#clip720)" d="M1846.07 192.795 Q1837.04 192.795 1833.55 194.861 Q1830.07 196.927 1830.07 201.909 Q1830.07 205.879 1832.66 208.229 Q1835.3 210.538 1839.79 210.538 Q1845.99 210.538 1849.72 206.163 Q1853.48 201.747 1853.48 194.456 L1853.48 192.795 L1846.07 192.795 M1860.94 189.716 L1860.94 215.602 L1853.48 215.602 L1853.48 208.715 Q1850.93 212.847 1847.12 214.832 Q1843.32 216.776 1837.81 216.776 Q1830.84 216.776 1826.71 212.887 Q1822.62 208.958 1822.62 202.396 Q1822.62 194.739 1827.72 190.851 Q1832.86 186.962 1843.03 186.962 L1853.48 186.962 L1853.48 186.232 Q1853.48 181.088 1850.08 178.293 Q1846.72 175.457 1840.6 175.457 Q1836.71 175.457 1833.03 176.389 Q1829.34 177.321 1825.94 179.184 L1825.94 172.297 Q1830.03 170.718 1833.88 169.948 Q1837.73 169.138 1841.37 169.138 Q1851.22 169.138 1856.08 174.242 Q1860.94 179.346 1860.94 189.716 Z" fill="#000000" fill-rule="nonzero" fill-opacity="1" /><path clip-path="url(#clip720)" d="M1905.21 171.568 L1905.21 178.617 Q1902.05 176.996 1898.65 176.186 Q1895.25 175.376 1891.6 175.376 Q1886.05 175.376 1883.26 177.077 Q1880.5 178.779 1880.5 182.182 Q1880.5 184.774 1882.49 186.273 Q1884.47 187.731 1890.47 189.068 L1893.02 189.635 Q1900.96 191.337 1904.28 194.456 Q1907.64 197.535 1907.64 203.084 Q1907.64 209.404 1902.62 213.09 Q1897.64 216.776 1888.89 216.776 Q1885.24 216.776 1881.27 216.047 Q1877.34 215.358 1872.97 213.941 L1872.97 206.244 Q1877.1 208.391 1881.11 209.485 Q1885.12 210.538 1889.05 210.538 Q1894.32 210.538 1897.15 208.756 Q1899.99 206.933 1899.99 203.651 Q1899.99 200.613 1897.92 198.993 Q1895.9 197.372 1888.97 195.874 L1886.38 195.266 Q1879.45 193.808 1876.37 190.81 Q1873.29 187.772 1873.29 182.506 Q1873.29 176.105 1877.83 172.621 Q1882.37 169.138 1890.71 169.138 Q1894.84 169.138 1898.49 169.745 Q1902.14 170.353 1905.21 171.568 Z" fill="#000000" fill-rule="nonzero" fill-opacity="1" /><path clip-path="url(#clip720)" d="M1958.32 191.053 L1958.32 194.699 L1924.05 194.699 Q1924.54 202.396 1928.67 206.447 Q1932.84 210.457 1940.25 210.457 Q1944.55 210.457 1948.56 209.404 Q1952.61 208.35 1956.58 206.244 L1956.58 213.293 Q1952.57 214.994 1948.36 215.885 Q1944.14 216.776 1939.81 216.776 Q1928.95 216.776 1922.59 210.457 Q1916.27 204.137 1916.27 193.362 Q1916.27 182.222 1922.27 175.7 Q1928.3 169.138 1938.51 169.138 Q1947.67 169.138 1952.97 175.052 Q1958.32 180.926 1958.32 191.053 M1950.87 188.866 Q1950.79 182.749 1947.42 179.103 Q1944.1 175.457 1938.59 175.457 Q1932.35 175.457 1928.59 178.981 Q1924.86 182.506 1924.29 188.906 L1950.87 188.866 Z" fill="#000000" fill-rule="nonzero" fill-opacity="1" /><path clip-path="url(#clip720)" d="M2000.41 177.118 L2000.41 152.569 L2007.86 152.569 L2007.86 215.602 L2000.41 215.602 L2000.41 208.796 Q1998.06 212.847 1994.46 214.832 Q1990.89 216.776 1985.87 216.776 Q1977.64 216.776 1972.46 210.214 Q1967.31 203.651 1967.31 192.957 Q1967.31 182.263 1972.46 175.7 Q1977.64 169.138 1985.87 169.138 Q1990.89 169.138 1994.46 171.123 Q1998.06 173.067 2000.41 177.118 M1975.01 192.957 Q1975.01 201.18 1978.37 205.879 Q1981.78 210.538 1987.69 210.538 Q1993.6 210.538 1997.01 205.879 Q2000.41 201.18 2000.41 192.957 Q2000.41 184.734 1997.01 180.075 Q1993.6 175.376 1987.69 175.376 Q1981.78 175.376 1978.37 180.075 Q1975.01 184.734 1975.01 192.957 Z" fill="#000000" fill-rule="nonzero" fill-opacity="1" /><path clip-path="url(#clip720)" d="M2082.24 171.973 L2082.24 178.941 Q2079.08 177.199 2075.88 176.348 Q2072.72 175.457 2069.48 175.457 Q2062.23 175.457 2058.22 180.075 Q2054.21 184.653 2054.21 192.957 Q2054.21 201.261 2058.22 205.879 Q2062.23 210.457 2069.48 210.457 Q2072.72 210.457 2075.88 209.606 Q2079.08 208.715 2082.24 206.973 L2082.24 213.86 Q2079.12 215.318 2075.76 216.047 Q2072.44 216.776 2068.67 216.776 Q2058.42 216.776 2052.38 210.335 Q2046.35 203.894 2046.35 192.957 Q2046.35 181.858 2052.42 175.498 Q2058.54 169.138 2069.15 169.138 Q2072.6 169.138 2075.88 169.867 Q2079.16 170.555 2082.24 171.973 Z" fill="#000000" fill-rule="nonzero" fill-opacity="1" /><path clip-path="url(#clip720)" d="M2115.82 192.795 Q2106.79 192.795 2103.3 194.861 Q2099.82 196.927 2099.82 201.909 Q2099.82 205.879 2102.41 208.229 Q2105.04 210.538 2109.54 210.538 Q2115.74 210.538 2119.47 206.163 Q2123.23 201.747 2123.23 194.456 L2123.23 192.795 L2115.82 192.795 M2130.69 189.716 L2130.69 215.602 L2123.23 215.602 L2123.23 208.715 Q2120.68 212.847 2116.87 214.832 Q2113.07 216.776 2107.56 216.776 Q2100.59 216.776 2096.46 212.887 Q2092.37 208.958 2092.37 202.396 Q2092.37 194.739 2097.47 190.851 Q2102.61 186.962 2112.78 186.962 L2123.23 186.962 L2123.23 186.232 Q2123.23 181.088 2119.83 178.293 Q2116.47 175.457 2110.35 175.457 Q2106.46 175.457 2102.78 176.389 Q2099.09 177.321 2095.69 179.184 L2095.69 172.297 Q2099.78 170.718 2103.63 169.948 Q2107.48 169.138 2111.12 169.138 Q2120.96 169.138 2125.83 174.242 Q2130.69 179.346 2130.69 189.716 Z" fill="#000000" fill-rule="nonzero" fill-opacity="1" /><path clip-path="url(#clip720)" d="M2174.96 171.568 L2174.96 178.617 Q2171.8 176.996 2168.4 176.186 Q2165 175.376 2161.35 175.376 Q2155.8 175.376 2153.01 177.077 Q2150.25 178.779 2150.25 182.182 Q2150.25 184.774 2152.24 186.273 Q2154.22 187.731 2160.22 189.068 L2162.77 189.635 Q2170.71 191.337 2174.03 194.456 Q2177.39 197.535 2177.39 203.084 Q2177.39 209.404 2172.37 213.09 Q2167.39 216.776 2158.64 216.776 Q2154.99 216.776 2151.02 216.047 Q2147.09 215.358 2142.72 213.941 L2142.72 206.244 Q2146.85 208.391 2150.86 209.485 Q2154.87 210.538 2158.8 210.538 Q2164.07 210.538 2166.9 208.756 Q2169.74 206.933 2169.74 203.651 Q2169.74 200.613 2167.67 198.993 Q2165.65 197.372 2158.72 195.874 L2156.13 195.266 Q2149.2 193.808 2146.12 190.81 Q2143.04 187.772 2143.04 182.506 Q2143.04 176.105 2147.58 172.621 Q2152.12 169.138 2160.46 169.138 Q2164.59 169.138 2168.24 169.745 Q2171.88 170.353 2174.96 171.568 Z" fill="#000000" fill-rule="nonzero" fill-opacity="1" /><path clip-path="url(#clip720)" d="M2228.07 191.053 L2228.07 194.699 L2193.8 194.699 Q2194.29 202.396 2198.42 206.447 Q2202.59 210.457 2210 210.457 Q2214.3 210.457 2218.31 209.404 Q2222.36 208.35 2226.33 206.244 L2226.33 213.293 Q2222.32 214.994 2218.11 215.885 Q2213.89 216.776 2209.56 216.776 Q2198.7 216.776 2192.34 210.457 Q2186.02 204.137 2186.02 193.362 Q2186.02 182.222 2192.02 175.7 Q2198.05 169.138 2208.26 169.138 Q2217.42 169.138 2222.72 175.052 Q2228.07 180.926 2228.07 191.053 M2220.62 188.866 Q2220.54 182.749 2217.17 179.103 Q2213.85 175.457 2208.34 175.457 Q2202.1 175.457 2198.34 178.981 Q2194.61 182.506 2194.04 188.906 L2220.62 188.866 Z" fill="#000000" fill-rule="nonzero" fill-opacity="1" /><path clip-path="url(#clip720)" d="M2239.13 152.651 L2245.61 152.651 Q2251.69 162.211 2254.69 171.366 Q2257.72 180.521 2257.72 189.554 Q2257.72 198.628 2254.69 207.824 Q2251.69 217.019 2245.61 226.539 L2239.13 226.539 Q2244.52 217.262 2247.15 208.107 Q2249.82 198.912 2249.82 189.554 Q2249.82 180.197 2247.15 171.082 Q2244.52 161.968 2239.13 152.651 Z" fill="#000000" fill-rule="nonzero" fill-opacity="1" /></svg>
