<?xml version="1.0" encoding="utf-8"?>
<svg xmlns="http://www.w3.org/2000/svg" xmlns:xlink="http://www.w3.org/1999/xlink" width="600" height="400" viewBox="0 0 2400 1600">
<defs>
  <clipPath id="clip830">
    <rect x="0" y="0" width="2400" height="1600"/>
  </clipPath>
</defs>
<path clip-path="url(#clip830)" d="M0 1600 L2400 1600 L2400 0 L0 0  Z" fill="#ffffff" fill-rule="evenodd" fill-opacity="1"/>
<defs>
  <clipPath id="clip831">
    <rect x="177" y="123" width="2176" height="1347"/>
  </clipPath>
</defs>
<path clip-path="url(#clip830)" d="M177.721 1469.17 L2352.76 1469.17 L2352.76 123.472 L177.721 123.472  Z" fill="#ffffff" fill-rule="evenodd" fill-opacity="1"/>
<polyline clip-path="url(#clip831)" style="stroke:#000000; stroke-linecap:round; stroke-linejoin:round; stroke-width:2; stroke-opacity:0.1; fill:none" points="274.867,1469.17 274.867,123.472 "/>
<polyline clip-path="url(#clip831)" style="stroke:#000000; stroke-linecap:round; stroke-linejoin:round; stroke-width:2; stroke-opacity:0.1; fill:none" points="521.326,1469.17 521.326,123.472 "/>
<polyline clip-path="url(#clip831)" style="stroke:#000000; stroke-linecap:round; stroke-linejoin:round; stroke-width:2; stroke-opacity:0.1; fill:none" points="767.785,1469.17 767.785,123.472 "/>
<polyline clip-path="url(#clip831)" style="stroke:#000000; stroke-linecap:round; stroke-linejoin:round; stroke-width:2; stroke-opacity:0.1; fill:none" points="1014.24,1469.17 1014.24,123.472 "/>
<polyline clip-path="url(#clip831)" style="stroke:#000000; stroke-linecap:round; stroke-linejoin:round; stroke-width:2; stroke-opacity:0.1; fill:none" points="1260.7,1469.17 1260.7,123.472 "/>
<polyline clip-path="url(#clip831)" style="stroke:#000000; stroke-linecap:round; stroke-linejoin:round; stroke-width:2; stroke-opacity:0.1; fill:none" points="1507.16,1469.17 1507.16,123.472 "/>
<polyline clip-path="url(#clip831)" style="stroke:#000000; stroke-linecap:round; stroke-linejoin:round; stroke-width:2; stroke-opacity:0.1; fill:none" points="1753.62,1469.17 1753.62,123.472 "/>
<polyline clip-path="url(#clip831)" style="stroke:#000000; stroke-linecap:round; stroke-linejoin:round; stroke-width:2; stroke-opacity:0.1; fill:none" points="2000.08,1469.17 2000.08,123.472 "/>
<polyline clip-path="url(#clip831)" style="stroke:#000000; stroke-linecap:round; stroke-linejoin:round; stroke-width:2; stroke-opacity:0.1; fill:none" points="2246.54,1469.17 2246.54,123.472 "/>
<polyline clip-path="url(#clip831)" style="stroke:#000000; stroke-linecap:round; stroke-linejoin:round; stroke-width:2; stroke-opacity:0.1; fill:none" points="177.721,1252.31 2352.76,1252.31 "/>
<polyline clip-path="url(#clip831)" style="stroke:#000000; stroke-linecap:round; stroke-linejoin:round; stroke-width:2; stroke-opacity:0.1; fill:none" points="177.721,1005.85 2352.76,1005.85 "/>
<polyline clip-path="url(#clip831)" style="stroke:#000000; stroke-linecap:round; stroke-linejoin:round; stroke-width:2; stroke-opacity:0.1; fill:none" points="177.721,759.395 2352.76,759.395 "/>
<polyline clip-path="url(#clip831)" style="stroke:#000000; stroke-linecap:round; stroke-linejoin:round; stroke-width:2; stroke-opacity:0.1; fill:none" points="177.721,512.935 2352.76,512.935 "/>
<polyline clip-path="url(#clip831)" style="stroke:#000000; stroke-linecap:round; stroke-linejoin:round; stroke-width:2; stroke-opacity:0.1; fill:none" points="177.721,266.476 2352.76,266.476 "/>
<polyline clip-path="url(#clip830)" style="stroke:#000000; stroke-linecap:round; stroke-linejoin:round; stroke-width:4; stroke-opacity:1; fill:none" points="177.721,1469.17 2352.76,1469.17 "/>
<polyline clip-path="url(#clip830)" style="stroke:#000000; stroke-linecap:round; stroke-linejoin:round; stroke-width:4; stroke-opacity:1; fill:none" points="274.867,1469.17 274.867,1450.27 "/>
<polyline clip-path="url(#clip830)" style="stroke:#000000; stroke-linecap:round; stroke-linejoin:round; stroke-width:4; stroke-opacity:1; fill:none" points="521.326,1469.17 521.326,1450.27 "/>
<polyline clip-path="url(#clip830)" style="stroke:#000000; stroke-linecap:round; stroke-linejoin:round; stroke-width:4; stroke-opacity:1; fill:none" points="767.785,1469.17 767.785,1450.27 "/>
<polyline clip-path="url(#clip830)" style="stroke:#000000; stroke-linecap:round; stroke-linejoin:round; stroke-width:4; stroke-opacity:1; fill:none" points="1014.24,1469.17 1014.24,1450.27 "/>
<polyline clip-path="url(#clip830)" style="stroke:#000000; stroke-linecap:round; stroke-linejoin:round; stroke-width:4; stroke-opacity:1; fill:none" points="1260.7,1469.17 1260.7,1450.27 "/>
<polyline clip-path="url(#clip830)" style="stroke:#000000; stroke-linecap:round; stroke-linejoin:round; stroke-width:4; stroke-opacity:1; fill:none" points="1507.16,1469.17 1507.16,1450.27 "/>
<polyline clip-path="url(#clip830)" style="stroke:#000000; stroke-linecap:round; stroke-linejoin:round; stroke-width:4; stroke-opacity:1; fill:none" points="1753.62,1469.17 1753.62,1450.27 "/>
<polyline clip-path="url(#clip830)" style="stroke:#000000; stroke-linecap:round; stroke-linejoin:round; stroke-width:4; stroke-opacity:1; fill:none" points="2000.08,1469.17 2000.08,1450.27 "/>
<polyline clip-path="url(#clip830)" style="stroke:#000000; stroke-linecap:round; stroke-linejoin:round; stroke-width:4; stroke-opacity:1; fill:none" points="2246.54,1469.17 2246.54,1450.27 "/>
<path clip-path="url(#clip830)" d="M228.218 1527.92 L272.731 1527.92 L272.731 1533.83 L228.218 1533.83 L228.218 1527.92 Z" fill="#000000" fill-rule="nonzero" fill-opacity="1" /><path clip-path="url(#clip830)" d="M307.141 1507.44 L289.432 1535.11 L307.141 1535.11 L307.141 1507.44 M305.3 1501.33 L314.12 1501.33 L314.12 1535.11 L321.516 1535.11 L321.516 1540.95 L314.12 1540.95 L314.12 1553.17 L307.141 1553.17 L307.141 1540.95 L283.738 1540.95 L283.738 1534.17 L305.3 1501.33 Z" fill="#000000" fill-rule="nonzero" fill-opacity="1" /><path clip-path="url(#clip830)" d="M475.527 1527.92 L520.041 1527.92 L520.041 1533.83 L475.527 1533.83 L475.527 1527.92 Z" fill="#000000" fill-rule="nonzero" fill-opacity="1" /><path clip-path="url(#clip830)" d="M556.43 1525.22 Q561.464 1526.29 564.277 1529.7 Q567.124 1533.1 567.124 1538.1 Q567.124 1545.77 561.846 1549.97 Q556.569 1554.17 546.846 1554.17 Q543.583 1554.17 540.11 1553.52 Q536.673 1552.89 532.992 1551.61 L532.992 1544.83 Q535.909 1546.54 539.381 1547.4 Q542.853 1548.27 546.638 1548.27 Q553.235 1548.27 556.673 1545.67 Q560.145 1543.06 560.145 1538.1 Q560.145 1533.52 556.916 1530.95 Q553.721 1528.34 547.992 1528.34 L541.951 1528.34 L541.951 1522.58 L548.27 1522.58 Q553.444 1522.58 556.187 1520.53 Q558.93 1518.45 558.93 1514.56 Q558.93 1510.56 556.082 1508.45 Q553.27 1506.29 547.992 1506.29 Q545.11 1506.29 541.812 1506.92 Q538.513 1507.54 534.555 1508.86 L534.555 1502.61 Q538.548 1501.5 542.02 1500.95 Q545.527 1500.39 548.617 1500.39 Q556.603 1500.39 561.256 1504.04 Q565.909 1507.65 565.909 1513.83 Q565.909 1518.13 563.444 1521.12 Q560.978 1524.07 556.43 1525.22 Z" fill="#000000" fill-rule="nonzero" fill-opacity="1" /><path clip-path="url(#clip830)" d="M722.698 1527.92 L767.212 1527.92 L767.212 1533.83 L722.698 1533.83 L722.698 1527.92 Z" fill="#000000" fill-rule="nonzero" fill-opacity="1" /><path clip-path="url(#clip830)" d="M788.392 1547.27 L812.871 1547.27 L812.871 1553.17 L779.955 1553.17 L779.955 1547.27 Q783.948 1543.13 790.823 1536.19 Q797.733 1529.21 799.503 1527.2 Q802.871 1523.41 804.191 1520.81 Q805.545 1518.17 805.545 1515.63 Q805.545 1511.5 802.628 1508.9 Q799.746 1506.29 795.094 1506.29 Q791.795 1506.29 788.115 1507.44 Q784.469 1508.58 780.302 1510.91 L780.302 1503.83 Q784.538 1502.13 788.219 1501.26 Q791.899 1500.39 794.955 1500.39 Q803.01 1500.39 807.802 1504.42 Q812.594 1508.45 812.594 1515.18 Q812.594 1518.38 811.378 1521.26 Q810.198 1524.11 807.038 1527.99 Q806.17 1529 801.517 1533.83 Q796.865 1538.62 788.392 1547.27 Z" fill="#000000" fill-rule="nonzero" fill-opacity="1" /><path clip-path="url(#clip830)" d="M968.88 1527.92 L1013.39 1527.92 L1013.39 1533.83 L968.88 1533.83 L968.88 1527.92 Z" fill="#000000" fill-rule="nonzero" fill-opacity="1" /><path clip-path="url(#clip830)" d="M1029.75 1547.27 L1041.21 1547.27 L1041.21 1507.72 L1028.74 1510.22 L1028.74 1503.83 L1041.14 1501.33 L1048.15 1501.33 L1048.15 1547.27 L1059.61 1547.27 L1059.61 1553.17 L1029.75 1553.17 L1029.75 1547.27 Z" fill="#000000" fill-rule="nonzero" fill-opacity="1" /><path clip-path="url(#clip830)" d="M1260.7 1505.95 Q1255.29 1505.95 1252.54 1511.29 Q1249.83 1516.61 1249.83 1527.3 Q1249.83 1537.96 1252.54 1543.31 Q1255.29 1548.62 1260.7 1548.62 Q1266.15 1548.62 1268.86 1543.31 Q1271.61 1537.96 1271.61 1527.3 Q1271.61 1516.61 1268.86 1511.29 Q1266.15 1505.95 1260.7 1505.95 M1260.7 1500.39 Q1269.42 1500.39 1274 1507.3 Q1278.62 1514.18 1278.62 1527.3 Q1278.62 1540.39 1274 1547.3 Q1269.42 1554.17 1260.7 1554.17 Q1251.99 1554.17 1247.37 1547.3 Q1242.79 1540.39 1242.79 1527.3 Q1242.79 1514.18 1247.37 1507.3 Q1251.99 1500.39 1260.7 1500.39 Z" fill="#000000" fill-rule="nonzero" fill-opacity="1" /><path clip-path="url(#clip830)" d="M1492.74 1547.27 L1504.19 1547.27 L1504.19 1507.72 L1491.73 1510.22 L1491.73 1503.83 L1504.12 1501.33 L1511.14 1501.33 L1511.14 1547.27 L1522.6 1547.27 L1522.6 1553.17 L1492.74 1553.17 L1492.74 1547.27 Z" fill="#000000" fill-rule="nonzero" fill-opacity="1" /><path clip-path="url(#clip830)" d="M1745.6 1547.27 L1770.08 1547.27 L1770.08 1553.17 L1737.16 1553.17 L1737.16 1547.27 Q1741.16 1543.13 1748.03 1536.19 Q1754.94 1529.21 1756.71 1527.2 Q1760.08 1523.41 1761.4 1520.81 Q1762.75 1518.17 1762.75 1515.63 Q1762.75 1511.5 1759.84 1508.9 Q1756.95 1506.29 1752.3 1506.29 Q1749 1506.29 1745.32 1507.44 Q1741.68 1508.58 1737.51 1510.91 L1737.51 1503.83 Q1741.75 1502.13 1745.43 1501.26 Q1749.11 1500.39 1752.16 1500.39 Q1760.22 1500.39 1765.01 1504.42 Q1769.8 1508.45 1769.8 1515.18 Q1769.8 1518.38 1768.59 1521.26 Q1767.41 1524.11 1764.25 1527.99 Q1763.38 1529 1758.73 1533.83 Q1754.07 1538.62 1745.6 1547.27 Z" fill="#000000" fill-rule="nonzero" fill-opacity="1" /><path clip-path="url(#clip830)" d="M2006.45 1525.22 Q2011.49 1526.29 2014.3 1529.7 Q2017.15 1533.1 2017.15 1538.1 Q2017.15 1545.77 2011.87 1549.97 Q2006.59 1554.17 1996.87 1554.17 Q1993.6 1554.17 1990.13 1553.52 Q1986.69 1552.89 1983.01 1551.61 L1983.01 1544.83 Q1985.93 1546.54 1989.4 1547.4 Q1992.88 1548.27 1996.66 1548.27 Q2003.26 1548.27 2006.69 1545.67 Q2010.17 1543.06 2010.17 1538.1 Q2010.17 1533.52 2006.94 1530.95 Q2003.74 1528.34 1998.01 1528.34 L1991.97 1528.34 L1991.97 1522.58 L1998.29 1522.58 Q2003.47 1522.58 2006.21 1520.53 Q2008.95 1518.45 2008.95 1514.56 Q2008.95 1510.56 2006.1 1508.45 Q2003.29 1506.29 1998.01 1506.29 Q1995.13 1506.29 1991.83 1506.92 Q1988.54 1507.54 1984.58 1508.86 L1984.58 1502.61 Q1988.57 1501.5 1992.04 1500.95 Q1995.55 1500.39 1998.64 1500.39 Q2006.63 1500.39 2011.28 1504.04 Q2015.93 1507.65 2015.93 1513.83 Q2015.93 1518.13 2013.47 1521.12 Q2011 1524.07 2006.45 1525.22 Z" fill="#000000" fill-rule="nonzero" fill-opacity="1" /><path clip-path="url(#clip830)" d="M2251.05 1507.44 L2233.35 1535.11 L2251.05 1535.11 L2251.05 1507.44 M2249.21 1501.33 L2258.03 1501.33 L2258.03 1535.11 L2265.43 1535.11 L2265.43 1540.95 L2258.03 1540.95 L2258.03 1553.17 L2251.05 1553.17 L2251.05 1540.95 L2227.65 1540.95 L2227.65 1534.17 L2249.21 1501.33 Z" fill="#000000" fill-rule="nonzero" fill-opacity="1" /><polyline clip-path="url(#clip830)" style="stroke:#000000; stroke-linecap:round; stroke-linejoin:round; stroke-width:4; stroke-opacity:1; fill:none" points="177.721,1469.17 177.721,123.472 "/>
<polyline clip-path="url(#clip830)" style="stroke:#000000; stroke-linecap:round; stroke-linejoin:round; stroke-width:4; stroke-opacity:1; fill:none" points="177.721,1252.31 196.618,1252.31 "/>
<polyline clip-path="url(#clip830)" style="stroke:#000000; stroke-linecap:round; stroke-linejoin:round; stroke-width:4; stroke-opacity:1; fill:none" points="177.721,1005.85 196.618,1005.85 "/>
<polyline clip-path="url(#clip830)" style="stroke:#000000; stroke-linecap:round; stroke-linejoin:round; stroke-width:4; stroke-opacity:1; fill:none" points="177.721,759.395 196.618,759.395 "/>
<polyline clip-path="url(#clip830)" style="stroke:#000000; stroke-linecap:round; stroke-linejoin:round; stroke-width:4; stroke-opacity:1; fill:none" points="177.721,512.935 196.618,512.935 "/>
<polyline clip-path="url(#clip830)" style="stroke:#000000; stroke-linecap:round; stroke-linejoin:round; stroke-width:4; stroke-opacity:1; fill:none" points="177.721,266.476 196.618,266.476 "/>
<path clip-path="url(#clip830)" d="M51.5477 1252.99 L96.0613 1252.99 L96.0613 1258.89 L51.5477 1258.89 L51.5477 1252.99 Z" fill="#000000" fill-rule="nonzero" fill-opacity="1" /><path clip-path="url(#clip830)" d="M117.242 1272.33 L141.721 1272.33 L141.721 1278.23 L108.804 1278.23 L108.804 1272.33 Q112.797 1268.2 119.672 1261.25 Q126.582 1254.27 128.353 1252.26 Q131.721 1248.48 133.04 1245.87 Q134.394 1243.23 134.394 1240.7 Q134.394 1236.57 131.478 1233.96 Q128.596 1231.36 123.943 1231.36 Q120.645 1231.36 116.964 1232.5 Q113.318 1233.65 109.152 1235.98 L109.152 1228.89 Q113.388 1227.19 117.068 1226.32 Q120.749 1225.46 123.804 1225.46 Q131.86 1225.46 136.651 1229.48 Q141.443 1233.51 141.443 1240.25 Q141.443 1243.44 140.228 1246.32 Q139.047 1249.17 135.888 1253.06 Q135.019 1254.07 130.367 1258.89 Q125.714 1263.68 117.242 1272.33 Z" fill="#000000" fill-rule="nonzero" fill-opacity="1" /><path clip-path="url(#clip830)" d="M50.9921 1006.53 L95.5058 1006.53 L95.5058 1012.43 L50.9921 1012.43 L50.9921 1006.53 Z" fill="#000000" fill-rule="nonzero" fill-opacity="1" /><path clip-path="url(#clip830)" d="M111.86 1025.87 L123.318 1025.87 L123.318 986.323 L110.853 988.823 L110.853 982.434 L123.249 979.934 L130.263 979.934 L130.263 1025.87 L141.721 1025.87 L141.721 1031.77 L111.86 1031.77 L111.86 1025.87 Z" fill="#000000" fill-rule="nonzero" fill-opacity="1" /><path clip-path="url(#clip830)" d="M123.804 738.093 Q118.388 738.093 115.645 743.44 Q112.936 748.752 112.936 759.447 Q112.936 770.106 115.645 775.454 Q118.388 780.766 123.804 780.766 Q129.256 780.766 131.964 775.454 Q134.707 770.106 134.707 759.447 Q134.707 748.752 131.964 743.44 Q129.256 738.093 123.804 738.093 M123.804 732.537 Q132.519 732.537 137.103 739.447 Q141.721 746.322 141.721 759.447 Q141.721 772.537 137.103 779.447 Q132.519 786.322 123.804 786.322 Q115.089 786.322 110.471 779.447 Q105.888 772.537 105.888 759.447 Q105.888 746.322 110.471 739.447 Q115.089 732.537 123.804 732.537 Z" fill="#000000" fill-rule="nonzero" fill-opacity="1" /><path clip-path="url(#clip830)" d="M111.86 532.953 L123.318 532.953 L123.318 493.404 L110.853 495.904 L110.853 489.515 L123.249 487.015 L130.263 487.015 L130.263 532.953 L141.721 532.953 L141.721 538.855 L111.86 538.855 L111.86 532.953 Z" fill="#000000" fill-rule="nonzero" fill-opacity="1" /><path clip-path="url(#clip830)" d="M117.242 286.494 L141.721 286.494 L141.721 292.396 L108.804 292.396 L108.804 286.494 Q112.797 282.362 119.672 275.417 Q126.582 268.438 128.353 266.424 Q131.721 262.64 133.04 260.035 Q134.394 257.397 134.394 254.862 Q134.394 250.73 131.478 248.126 Q128.596 245.522 123.943 245.522 Q120.645 245.522 116.964 246.667 Q113.318 247.813 109.152 250.14 L109.152 243.056 Q113.388 241.355 117.068 240.487 Q120.749 239.619 123.804 239.619 Q131.86 239.619 136.651 243.647 Q141.443 247.674 141.443 254.41 Q141.443 257.605 140.228 260.487 Q139.047 263.334 135.888 267.223 Q135.019 268.23 130.367 273.056 Q125.714 277.848 117.242 286.494 Z" fill="#000000" fill-rule="nonzero" fill-opacity="1" /><path clip-path="url(#clip830)" d="M464.8 12.096 L472.983 12.096 L472.983 65.6895 L502.433 65.6895 L502.433 72.576 L464.8 72.576 L464.8 12.096 Z" fill="#000000" fill-rule="nonzero" fill-opacity="1" /><path clip-path="url(#clip830)" d="M526.819 32.4315 Q520.824 32.4315 517.34 37.1306 Q513.856 41.7891 513.856 49.9314 Q513.856 58.0738 517.3 62.7728 Q520.783 67.4314 526.819 67.4314 Q532.774 67.4314 536.258 62.7323 Q539.742 58.0333 539.742 49.9314 Q539.742 41.8701 536.258 37.1711 Q532.774 32.4315 526.819 32.4315 M526.819 26.1121 Q536.541 26.1121 542.091 32.4315 Q547.641 38.7509 547.641 49.9314 Q547.641 61.0714 542.091 67.4314 Q536.541 73.7508 526.819 73.7508 Q517.057 73.7508 511.507 67.4314 Q505.998 61.0714 505.998 49.9314 Q505.998 38.7509 511.507 32.4315 Q517.057 26.1121 526.819 26.1121 Z" fill="#000000" fill-rule="nonzero" fill-opacity="1" /><path clip-path="url(#clip830)" d="M592.646 28.9478 L592.646 35.9153 Q589.487 34.1734 586.287 33.3227 Q583.127 32.4315 579.886 32.4315 Q572.635 32.4315 568.625 37.0496 Q564.614 41.6271 564.614 49.9314 Q564.614 58.2358 568.625 62.8538 Q572.635 67.4314 579.886 67.4314 Q583.127 67.4314 586.287 66.5807 Q589.487 65.6895 592.646 63.9476 L592.646 70.8341 Q589.527 72.2924 586.165 73.0216 Q582.843 73.7508 579.076 73.7508 Q568.827 73.7508 562.791 67.3098 Q556.755 60.8689 556.755 49.9314 Q556.755 38.832 562.832 32.472 Q568.949 26.1121 579.562 26.1121 Q583.005 26.1121 586.287 26.8413 Q589.568 27.5299 592.646 28.9478 Z" fill="#000000" fill-rule="nonzero" fill-opacity="1" /><path clip-path="url(#clip830)" d="M626.228 49.7694 Q617.195 49.7694 613.711 51.8354 Q610.227 53.9013 610.227 58.8839 Q610.227 62.8538 612.82 65.2034 Q615.453 67.5124 619.95 67.5124 Q626.147 67.5124 629.874 63.1374 Q633.642 58.7219 633.642 51.4303 L633.642 49.7694 L626.228 49.7694 M641.095 46.6907 L641.095 72.576 L633.642 72.576 L633.642 65.6895 Q631.09 69.8214 627.282 71.8063 Q623.474 73.7508 617.965 73.7508 Q610.997 73.7508 606.865 69.8619 Q602.774 65.9325 602.774 59.3701 Q602.774 51.7138 607.878 47.825 Q613.023 43.9361 623.19 43.9361 L633.642 43.9361 L633.642 43.2069 Q633.642 38.0623 630.239 35.2672 Q626.877 32.4315 620.76 32.4315 Q616.871 32.4315 613.185 33.3632 Q609.498 34.295 606.095 36.1584 L606.095 29.2718 Q610.187 27.692 614.035 26.9223 Q617.884 26.1121 621.529 26.1121 Q631.373 26.1121 636.234 31.2163 Q641.095 36.3204 641.095 46.6907 Z" fill="#000000" fill-rule="nonzero" fill-opacity="1" /><path clip-path="url(#clip830)" d="M663.821 14.324 L663.821 27.2059 L679.174 27.2059 L679.174 32.9987 L663.821 32.9987 L663.821 57.6282 Q663.821 63.1779 665.32 64.7578 Q666.859 66.3376 671.518 66.3376 L679.174 66.3376 L679.174 72.576 L671.518 72.576 Q662.889 72.576 659.608 69.3758 Q656.327 66.1351 656.327 57.6282 L656.327 32.9987 L650.858 32.9987 L650.858 27.2059 L656.327 27.2059 L656.327 14.324 L663.821 14.324 Z" fill="#000000" fill-rule="nonzero" fill-opacity="1" /><path clip-path="url(#clip830)" d="M688.977 27.2059 L696.431 27.2059 L696.431 72.576 L688.977 72.576 L688.977 27.2059 M688.977 9.54393 L696.431 9.54393 L696.431 18.9825 L688.977 18.9825 L688.977 9.54393 Z" fill="#000000" fill-rule="nonzero" fill-opacity="1" /><path clip-path="url(#clip830)" d="M729.608 32.4315 Q723.612 32.4315 720.128 37.1306 Q716.645 41.7891 716.645 49.9314 Q716.645 58.0738 720.088 62.7728 Q723.572 67.4314 729.608 67.4314 Q735.562 67.4314 739.046 62.7323 Q742.53 58.0333 742.53 49.9314 Q742.53 41.8701 739.046 37.1711 Q735.562 32.4315 729.608 32.4315 M729.608 26.1121 Q739.33 26.1121 744.879 32.4315 Q750.429 38.7509 750.429 49.9314 Q750.429 61.0714 744.879 67.4314 Q739.33 73.7508 729.608 73.7508 Q719.845 73.7508 714.295 67.4314 Q708.786 61.0714 708.786 49.9314 Q708.786 38.7509 714.295 32.4315 Q719.845 26.1121 729.608 26.1121 Z" fill="#000000" fill-rule="nonzero" fill-opacity="1" /><path clip-path="url(#clip830)" d="M800.498 45.1919 L800.498 72.576 L793.045 72.576 L793.045 45.4349 Q793.045 38.994 790.533 35.7938 Q788.022 32.5936 782.998 32.5936 Q776.963 32.5936 773.479 36.4419 Q769.995 40.2903 769.995 46.9338 L769.995 72.576 L762.501 72.576 L762.501 27.2059 L769.995 27.2059 L769.995 34.2544 Q772.669 30.163 776.274 28.1376 Q779.92 26.1121 784.659 26.1121 Q792.478 26.1121 796.488 30.9732 Q800.498 35.7938 800.498 45.1919 Z" fill="#000000" fill-rule="nonzero" fill-opacity="1" /><path clip-path="url(#clip830)" d="M880.544 48.0275 L880.544 51.6733 L846.274 51.6733 Q846.76 59.3701 850.892 63.421 Q855.064 67.4314 862.477 67.4314 Q866.771 67.4314 870.782 66.3781 Q874.832 65.3249 878.802 63.2184 L878.802 70.267 Q874.792 71.9684 870.579 72.8596 Q866.366 73.7508 862.032 73.7508 Q851.175 73.7508 844.815 67.4314 Q838.496 61.1119 838.496 50.3365 Q838.496 39.1965 844.491 32.6746 Q850.527 26.1121 860.735 26.1121 Q869.89 26.1121 875.197 32.0264 Q880.544 37.9003 880.544 48.0275 M873.091 45.84 Q873.01 39.7232 869.647 36.0774 Q866.326 32.4315 860.816 32.4315 Q854.578 32.4315 850.811 35.9558 Q847.084 39.4801 846.517 45.8805 L873.091 45.84 Z" fill="#000000" fill-rule="nonzero" fill-opacity="1" /><path clip-path="url(#clip830)" d="M921.701 28.5427 L921.701 35.5912 Q918.542 33.9709 915.139 33.1607 Q911.736 32.3505 908.09 32.3505 Q902.541 32.3505 899.746 34.0519 Q896.991 35.7533 896.991 39.156 Q896.991 41.7486 898.976 43.2475 Q900.961 44.7058 906.956 46.0426 L909.508 46.6097 Q917.448 48.3111 920.77 51.4303 Q924.132 54.509 924.132 60.0587 Q924.132 66.3781 919.109 70.0644 Q914.126 73.7508 905.376 73.7508 Q901.73 73.7508 897.761 73.0216 Q893.831 72.3329 889.456 70.9151 L889.456 63.2184 Q893.588 65.3654 897.599 66.4591 Q901.609 67.5124 905.538 67.5124 Q910.804 67.5124 913.64 65.73 Q916.476 63.9071 916.476 60.6258 Q916.476 57.5877 914.41 55.9673 Q912.384 54.3469 905.457 52.8481 L902.865 52.2405 Q895.938 50.7821 892.859 47.7845 Q889.78 44.7463 889.78 39.4801 Q889.78 33.0797 894.317 29.5959 Q898.854 26.1121 907.199 26.1121 Q911.331 26.1121 914.977 26.7198 Q918.623 27.3274 921.701 28.5427 Z" fill="#000000" fill-rule="nonzero" fill-opacity="1" /><path clip-path="url(#clip830)" d="M943.374 14.324 L943.374 27.2059 L958.727 27.2059 L958.727 32.9987 L943.374 32.9987 L943.374 57.6282 Q943.374 63.1779 944.873 64.7578 Q946.412 66.3376 951.07 66.3376 L958.727 66.3376 L958.727 72.576 L951.07 72.576 Q942.442 72.576 939.161 69.3758 Q935.88 66.1351 935.88 57.6282 L935.88 32.9987 L930.411 32.9987 L930.411 27.2059 L935.88 27.2059 L935.88 14.324 L943.374 14.324 Z" fill="#000000" fill-rule="nonzero" fill-opacity="1" /><path clip-path="url(#clip830)" d="M968.53 27.2059 L975.984 27.2059 L975.984 72.576 L968.53 72.576 L968.53 27.2059 M968.53 9.54393 L975.984 9.54393 L975.984 18.9825 L968.53 18.9825 L968.53 9.54393 Z" fill="#000000" fill-rule="nonzero" fill-opacity="1" /><path clip-path="url(#clip830)" d="M1026.9 35.9153 Q1029.7 30.8922 1033.59 28.5022 Q1037.48 26.1121 1042.74 26.1121 Q1049.83 26.1121 1053.68 31.0947 Q1057.53 36.0368 1057.53 45.1919 L1057.53 72.576 L1050.03 72.576 L1050.03 45.4349 Q1050.03 38.913 1047.73 35.7533 Q1045.42 32.5936 1040.68 32.5936 Q1034.88 32.5936 1031.52 36.4419 Q1028.16 40.2903 1028.16 46.9338 L1028.16 72.576 L1020.67 72.576 L1020.67 45.4349 Q1020.67 38.8725 1018.36 35.7533 Q1016.05 32.5936 1011.23 32.5936 Q1005.51 32.5936 1002.15 36.4824 Q998.79 40.3308 998.79 46.9338 L998.79 72.576 L991.296 72.576 L991.296 27.2059 L998.79 27.2059 L998.79 34.2544 Q1001.34 30.082 1004.91 28.0971 Q1008.47 26.1121 1013.37 26.1121 Q1018.32 26.1121 1021.76 28.6237 Q1025.24 31.1352 1026.9 35.9153 Z" fill="#000000" fill-rule="nonzero" fill-opacity="1" /><path clip-path="url(#clip830)" d="M1093.01 49.7694 Q1083.98 49.7694 1080.5 51.8354 Q1077.01 53.9013 1077.01 58.8839 Q1077.01 62.8538 1079.61 65.2034 Q1082.24 67.5124 1086.74 67.5124 Q1092.93 67.5124 1096.66 63.1374 Q1100.43 58.7219 1100.43 51.4303 L1100.43 49.7694 L1093.01 49.7694 M1107.88 46.6907 L1107.88 72.576 L1100.43 72.576 L1100.43 65.6895 Q1097.88 69.8214 1094.07 71.8063 Q1090.26 73.7508 1084.75 73.7508 Q1077.78 73.7508 1073.65 69.8619 Q1069.56 65.9325 1069.56 59.3701 Q1069.56 51.7138 1074.66 47.825 Q1079.81 43.9361 1089.98 43.9361 L1100.43 43.9361 L1100.43 43.2069 Q1100.43 38.0623 1097.02 35.2672 Q1093.66 32.4315 1087.55 32.4315 Q1083.66 32.4315 1079.97 33.3632 Q1076.28 34.295 1072.88 36.1584 L1072.88 29.2718 Q1076.97 27.692 1080.82 26.9223 Q1084.67 26.1121 1088.32 26.1121 Q1098.16 26.1121 1103.02 31.2163 Q1107.88 36.3204 1107.88 46.6907 Z" fill="#000000" fill-rule="nonzero" fill-opacity="1" /><path clip-path="url(#clip830)" d="M1130.61 14.324 L1130.61 27.2059 L1145.96 27.2059 L1145.96 32.9987 L1130.61 32.9987 L1130.61 57.6282 Q1130.61 63.1779 1132.11 64.7578 Q1133.64 66.3376 1138.3 66.3376 L1145.96 66.3376 L1145.96 72.576 L1138.3 72.576 Q1129.67 72.576 1126.39 69.3758 Q1123.11 66.1351 1123.11 57.6282 L1123.11 32.9987 L1117.64 32.9987 L1117.64 27.2059 L1123.11 27.2059 L1123.11 14.324 L1130.61 14.324 Z" fill="#000000" fill-rule="nonzero" fill-opacity="1" /><path clip-path="url(#clip830)" d="M1194.57 48.0275 L1194.57 51.6733 L1160.3 51.6733 Q1160.79 59.3701 1164.92 63.421 Q1169.09 67.4314 1176.5 67.4314 Q1180.8 67.4314 1184.81 66.3781 Q1188.86 65.3249 1192.83 63.2184 L1192.83 70.267 Q1188.82 71.9684 1184.61 72.8596 Q1180.39 73.7508 1176.06 73.7508 Q1165.2 73.7508 1158.84 67.4314 Q1152.52 61.1119 1152.52 50.3365 Q1152.52 39.1965 1158.52 32.6746 Q1164.55 26.1121 1174.76 26.1121 Q1183.92 26.1121 1189.22 32.0264 Q1194.57 37.9003 1194.57 48.0275 M1187.12 45.84 Q1187.04 39.7232 1183.67 36.0774 Q1180.35 32.4315 1174.84 32.4315 Q1168.6 32.4315 1164.84 35.9558 Q1161.11 39.4801 1160.54 45.8805 L1187.12 45.84 Z" fill="#000000" fill-rule="nonzero" fill-opacity="1" /><path clip-path="url(#clip830)" d="M1235.73 28.5427 L1235.73 35.5912 Q1232.57 33.9709 1229.17 33.1607 Q1225.76 32.3505 1222.12 32.3505 Q1216.57 32.3505 1213.77 34.0519 Q1211.02 35.7533 1211.02 39.156 Q1211.02 41.7486 1213 43.2475 Q1214.99 44.7058 1220.98 46.0426 L1223.53 46.6097 Q1231.47 48.3111 1234.8 51.4303 Q1238.16 54.509 1238.16 60.0587 Q1238.16 66.3781 1233.13 70.0644 Q1228.15 73.7508 1219.4 73.7508 Q1215.76 73.7508 1211.79 73.0216 Q1207.86 72.3329 1203.48 70.9151 L1203.48 63.2184 Q1207.61 65.3654 1211.62 66.4591 Q1215.64 67.5124 1219.56 67.5124 Q1224.83 67.5124 1227.67 65.73 Q1230.5 63.9071 1230.5 60.6258 Q1230.5 57.5877 1228.44 55.9673 Q1226.41 54.3469 1219.48 52.8481 L1216.89 52.2405 Q1209.96 50.7821 1206.89 47.7845 Q1203.81 44.7463 1203.81 39.4801 Q1203.81 33.0797 1208.34 29.5959 Q1212.88 26.1121 1221.23 26.1121 Q1225.36 26.1121 1229 26.7198 Q1232.65 27.3274 1235.73 28.5427 Z" fill="#000000" fill-rule="nonzero" fill-opacity="1" /><path clip-path="url(#clip830)" d="M1294.3 9.62495 Q1288.88 18.942 1286.24 28.0566 Q1283.61 37.1711 1283.61 46.5287 Q1283.61 55.8863 1286.24 65.0818 Q1288.92 74.2369 1294.3 83.5134 L1287.82 83.5134 Q1281.75 73.9938 1278.71 64.7983 Q1275.71 55.6027 1275.71 46.5287 Q1275.71 37.4952 1278.71 28.3401 Q1281.71 19.1851 1287.82 9.62495 L1294.3 9.62495 Z" fill="#000000" fill-rule="nonzero" fill-opacity="1" /><path clip-path="url(#clip830)" d="M1346.48 45.1919 L1346.48 72.576 L1339.03 72.576 L1339.03 45.4349 Q1339.03 38.994 1336.51 35.7938 Q1334 32.5936 1328.98 32.5936 Q1322.94 32.5936 1319.46 36.4419 Q1315.98 40.2903 1315.98 46.9338 L1315.98 72.576 L1308.48 72.576 L1308.48 27.2059 L1315.98 27.2059 L1315.98 34.2544 Q1318.65 30.163 1322.25 28.1376 Q1325.9 26.1121 1330.64 26.1121 Q1338.46 26.1121 1342.47 30.9732 Q1346.48 35.7938 1346.48 45.1919 Z" fill="#000000" fill-rule="nonzero" fill-opacity="1" /><path clip-path="url(#clip830)" d="M1378.93 32.4315 Q1372.93 32.4315 1369.45 37.1306 Q1365.96 41.7891 1365.96 49.9314 Q1365.96 58.0738 1369.41 62.7728 Q1372.89 67.4314 1378.93 67.4314 Q1384.88 67.4314 1388.37 62.7323 Q1391.85 58.0333 1391.85 49.9314 Q1391.85 41.8701 1388.37 37.1711 Q1384.88 32.4315 1378.93 32.4315 M1378.93 26.1121 Q1388.65 26.1121 1394.2 32.4315 Q1399.75 38.7509 1399.75 49.9314 Q1399.75 61.0714 1394.2 67.4314 Q1388.65 73.7508 1378.93 73.7508 Q1369.16 73.7508 1363.61 67.4314 Q1358.11 61.0714 1358.11 49.9314 Q1358.11 38.7509 1363.61 32.4315 Q1369.16 26.1121 1378.93 26.1121 Z" fill="#000000" fill-rule="nonzero" fill-opacity="1" /><path clip-path="url(#clip830)" d="M1412.1 27.2059 L1419.56 27.2059 L1419.56 72.576 L1412.1 72.576 L1412.1 27.2059 M1412.1 9.54393 L1419.56 9.54393 L1419.56 18.9825 L1412.1 18.9825 L1412.1 9.54393 Z" fill="#000000" fill-rule="nonzero" fill-opacity="1" /><path clip-path="url(#clip830)" d="M1464.08 28.5427 L1464.08 35.5912 Q1460.92 33.9709 1457.51 33.1607 Q1454.11 32.3505 1450.47 32.3505 Q1444.92 32.3505 1442.12 34.0519 Q1439.37 35.7533 1439.37 39.156 Q1439.37 41.7486 1441.35 43.2475 Q1443.34 44.7058 1449.33 46.0426 L1451.88 46.6097 Q1459.82 48.3111 1463.15 51.4303 Q1466.51 54.509 1466.51 60.0587 Q1466.51 66.3781 1461.48 70.0644 Q1456.5 73.7508 1447.75 73.7508 Q1444.11 73.7508 1440.14 73.0216 Q1436.21 72.3329 1431.83 70.9151 L1431.83 63.2184 Q1435.96 65.3654 1439.97 66.4591 Q1443.98 67.5124 1447.91 67.5124 Q1453.18 67.5124 1456.02 65.73 Q1458.85 63.9071 1458.85 60.6258 Q1458.85 57.5877 1456.79 55.9673 Q1454.76 54.3469 1447.83 52.8481 L1445.24 52.2405 Q1438.31 50.7821 1435.23 47.7845 Q1432.16 44.7463 1432.16 39.4801 Q1432.16 33.0797 1436.69 29.5959 Q1441.23 26.1121 1449.57 26.1121 Q1453.71 26.1121 1457.35 26.7198 Q1461 27.3274 1464.08 28.5427 Z" fill="#000000" fill-rule="nonzero" fill-opacity="1" /><path clip-path="url(#clip830)" d="M1497.25 76.7889 Q1494.09 84.8907 1491.1 87.3618 Q1488.1 89.8329 1483.08 89.8329 L1477.12 89.8329 L1477.12 83.5945 L1481.5 83.5945 Q1484.57 83.5945 1486.28 82.1361 Q1487.98 80.6778 1490.04 75.2496 L1491.38 71.8468 L1473.03 27.2059 L1480.93 27.2059 L1495.11 62.6918 L1509.29 27.2059 L1517.18 27.2059 L1497.25 76.7889 Z" fill="#000000" fill-rule="nonzero" fill-opacity="1" /><path clip-path="url(#clip830)" d="M1586.5 28.9478 L1586.5 35.9153 Q1583.34 34.1734 1580.14 33.3227 Q1576.98 32.4315 1573.73 32.4315 Q1566.48 32.4315 1562.47 37.0496 Q1558.46 41.6271 1558.46 49.9314 Q1558.46 58.2358 1562.47 62.8538 Q1566.48 67.4314 1573.73 67.4314 Q1576.98 67.4314 1580.14 66.5807 Q1583.34 65.6895 1586.5 63.9476 L1586.5 70.8341 Q1583.38 72.2924 1580.01 73.0216 Q1576.69 73.7508 1572.92 73.7508 Q1562.68 73.7508 1556.64 67.3098 Q1550.6 60.8689 1550.6 49.9314 Q1550.6 38.832 1556.68 32.472 Q1562.8 26.1121 1573.41 26.1121 Q1576.85 26.1121 1580.14 26.8413 Q1583.42 27.5299 1586.5 28.9478 Z" fill="#000000" fill-rule="nonzero" fill-opacity="1" /><path clip-path="url(#clip830)" d="M1620.08 49.7694 Q1611.04 49.7694 1607.56 51.8354 Q1604.08 53.9013 1604.08 58.8839 Q1604.08 62.8538 1606.67 65.2034 Q1609.3 67.5124 1613.8 67.5124 Q1620 67.5124 1623.72 63.1374 Q1627.49 58.7219 1627.49 51.4303 L1627.49 49.7694 L1620.08 49.7694 M1634.94 46.6907 L1634.94 72.576 L1627.49 72.576 L1627.49 65.6895 Q1624.94 69.8214 1621.13 71.8063 Q1617.32 73.7508 1611.81 73.7508 Q1604.85 73.7508 1600.71 69.8619 Q1596.62 65.9325 1596.62 59.3701 Q1596.62 51.7138 1601.73 47.825 Q1606.87 43.9361 1617.04 43.9361 L1627.49 43.9361 L1627.49 43.2069 Q1627.49 38.0623 1624.09 35.2672 Q1620.73 32.4315 1614.61 32.4315 Q1610.72 32.4315 1607.03 33.3632 Q1603.35 34.295 1599.94 36.1584 L1599.94 29.2718 Q1604.04 27.692 1607.88 26.9223 Q1611.73 26.1121 1615.38 26.1121 Q1625.22 26.1121 1630.08 31.2163 Q1634.94 36.3204 1634.94 46.6907 Z" fill="#000000" fill-rule="nonzero" fill-opacity="1" /><path clip-path="url(#clip830)" d="M1679.22 28.5427 L1679.22 35.5912 Q1676.06 33.9709 1672.66 33.1607 Q1669.26 32.3505 1665.61 32.3505 Q1660.06 32.3505 1657.26 34.0519 Q1654.51 35.7533 1654.51 39.156 Q1654.51 41.7486 1656.49 43.2475 Q1658.48 44.7058 1664.48 46.0426 L1667.03 46.6097 Q1674.97 48.3111 1678.29 51.4303 Q1681.65 54.509 1681.65 60.0587 Q1681.65 66.3781 1676.63 70.0644 Q1671.65 73.7508 1662.9 73.7508 Q1659.25 73.7508 1655.28 73.0216 Q1651.35 72.3329 1646.98 70.9151 L1646.98 63.2184 Q1651.11 65.3654 1655.12 66.4591 Q1659.13 67.5124 1663.06 67.5124 Q1668.32 67.5124 1671.16 65.73 Q1673.99 63.9071 1673.99 60.6258 Q1673.99 57.5877 1671.93 55.9673 Q1669.9 54.3469 1662.98 52.8481 L1660.38 52.2405 Q1653.46 50.7821 1650.38 47.7845 Q1647.3 44.7463 1647.3 39.4801 Q1647.3 33.0797 1651.84 29.5959 Q1656.37 26.1121 1664.72 26.1121 Q1668.85 26.1121 1672.5 26.7198 Q1676.14 27.3274 1679.22 28.5427 Z" fill="#000000" fill-rule="nonzero" fill-opacity="1" /><path clip-path="url(#clip830)" d="M1732.33 48.0275 L1732.33 51.6733 L1698.06 51.6733 Q1698.54 59.3701 1702.68 63.421 Q1706.85 67.4314 1714.26 67.4314 Q1718.55 67.4314 1722.57 66.3781 Q1726.62 65.3249 1730.59 63.2184 L1730.59 70.267 Q1726.58 71.9684 1722.36 72.8596 Q1718.15 73.7508 1713.82 73.7508 Q1702.96 73.7508 1696.6 67.4314 Q1690.28 61.1119 1690.28 50.3365 Q1690.28 39.1965 1696.27 32.6746 Q1702.31 26.1121 1712.52 26.1121 Q1721.67 26.1121 1726.98 32.0264 Q1732.33 37.9003 1732.33 48.0275 M1724.87 45.84 Q1724.79 39.7232 1721.43 36.0774 Q1718.11 32.4315 1712.6 32.4315 Q1706.36 32.4315 1702.59 35.9558 Q1698.87 39.4801 1698.3 45.8805 L1724.87 45.84 Z" fill="#000000" fill-rule="nonzero" fill-opacity="1" /><path clip-path="url(#clip830)" d="M1767.17 46.5287 L1789 46.5287 L1789 53.1722 L1767.17 53.1722 L1767.17 46.5287 Z" fill="#000000" fill-rule="nonzero" fill-opacity="1" /><path clip-path="url(#clip830)" d="M1850.21 9.54393 L1850.21 15.7418 L1843.08 15.7418 Q1839.07 15.7418 1837.49 17.3622 Q1835.95 18.9825 1835.95 23.1955 L1835.95 27.2059 L1848.22 27.2059 L1848.22 32.9987 L1835.95 32.9987 L1835.95 72.576 L1828.46 72.576 L1828.46 32.9987 L1821.33 32.9987 L1821.33 27.2059 L1828.46 27.2059 L1828.46 24.0462 Q1828.46 16.471 1831.98 13.0277 Q1835.5 9.54393 1843.16 9.54393 L1850.21 9.54393 Z" fill="#000000" fill-rule="nonzero" fill-opacity="1" /><path clip-path="url(#clip830)" d="M1856.45 27.2059 L1863.9 27.2059 L1863.9 72.576 L1856.45 72.576 L1856.45 27.2059 M1856.45 9.54393 L1863.9 9.54393 L1863.9 18.9825 L1856.45 18.9825 L1856.45 9.54393 Z" fill="#000000" fill-rule="nonzero" fill-opacity="1" /><path clip-path="url(#clip830)" d="M1886.87 14.324 L1886.87 27.2059 L1902.22 27.2059 L1902.22 32.9987 L1886.87 32.9987 L1886.87 57.6282 Q1886.87 63.1779 1888.37 64.7578 Q1889.91 66.3376 1894.57 66.3376 L1902.22 66.3376 L1902.22 72.576 L1894.57 72.576 Q1885.94 72.576 1882.66 69.3758 Q1879.38 66.1351 1879.38 57.6282 L1879.38 32.9987 L1873.91 32.9987 L1873.91 27.2059 L1879.38 27.2059 L1879.38 14.324 L1886.87 14.324 Z" fill="#000000" fill-rule="nonzero" fill-opacity="1" /><path clip-path="url(#clip830)" d="M1919.4 14.324 L1919.4 27.2059 L1934.75 27.2059 L1934.75 32.9987 L1919.4 32.9987 L1919.4 57.6282 Q1919.4 63.1779 1920.9 64.7578 Q1922.44 66.3376 1927.1 66.3376 L1934.75 66.3376 L1934.75 72.576 L1927.1 72.576 Q1918.47 72.576 1915.19 69.3758 Q1911.9 66.1351 1911.9 57.6282 L1911.9 32.9987 L1906.44 32.9987 L1906.44 27.2059 L1911.9 27.2059 L1911.9 14.324 L1919.4 14.324 Z" fill="#000000" fill-rule="nonzero" fill-opacity="1" /><path clip-path="url(#clip830)" d="M1983.36 48.0275 L1983.36 51.6733 L1949.09 51.6733 Q1949.58 59.3701 1953.71 63.421 Q1957.88 67.4314 1965.3 67.4314 Q1969.59 67.4314 1973.6 66.3781 Q1977.65 65.3249 1981.62 63.2184 L1981.62 70.267 Q1977.61 71.9684 1973.4 72.8596 Q1969.18 73.7508 1964.85 73.7508 Q1953.99 73.7508 1947.63 67.4314 Q1941.31 61.1119 1941.31 50.3365 Q1941.31 39.1965 1947.31 32.6746 Q1953.35 26.1121 1963.55 26.1121 Q1972.71 26.1121 1978.02 32.0264 Q1983.36 37.9003 1983.36 48.0275 M1975.91 45.84 Q1975.83 39.7232 1972.47 36.0774 Q1969.14 32.4315 1963.63 32.4315 Q1957.4 32.4315 1953.63 35.9558 Q1949.9 39.4801 1949.33 45.8805 L1975.91 45.84 Z" fill="#000000" fill-rule="nonzero" fill-opacity="1" /><path clip-path="url(#clip830)" d="M2025.45 34.0924 L2025.45 9.54393 L2032.9 9.54393 L2032.9 72.576 L2025.45 72.576 L2025.45 65.7705 Q2023.1 69.8214 2019.5 71.8063 Q2015.93 73.7508 2010.91 73.7508 Q2002.69 73.7508 1997.5 67.1883 Q1992.36 60.6258 1992.36 49.9314 Q1992.36 39.2371 1997.5 32.6746 Q2002.69 26.1121 2010.91 26.1121 Q2015.93 26.1121 2019.5 28.0971 Q2023.1 30.0415 2025.45 34.0924 M2000.05 49.9314 Q2000.05 58.1548 2003.41 62.8538 Q2006.82 67.5124 2012.73 67.5124 Q2018.65 67.5124 2022.05 62.8538 Q2025.45 58.1548 2025.45 49.9314 Q2025.45 41.7081 2022.05 37.0496 Q2018.65 32.3505 2012.73 32.3505 Q2006.82 32.3505 2003.41 37.0496 Q2000.05 41.7081 2000.05 49.9314 Z" fill="#000000" fill-rule="nonzero" fill-opacity="1" /><path clip-path="url(#clip830)" d="M2047.08 9.62495 L2053.56 9.62495 Q2059.64 19.1851 2062.64 28.3401 Q2065.68 37.4952 2065.68 46.5287 Q2065.68 55.6027 2062.64 64.7983 Q2059.64 73.9938 2053.56 83.5134 L2047.08 83.5134 Q2052.47 74.2369 2055.1 65.0818 Q2057.78 55.8863 2057.78 46.5287 Q2057.78 37.1711 2055.1 28.0566 Q2052.47 18.942 2047.08 9.62495 Z" fill="#000000" fill-rule="nonzero" fill-opacity="1" /><circle clip-path="url(#clip831)" cx="1141.72" cy="908.819" r="14.4" fill="#009af9" fill-rule="evenodd" fill-opacity="1" stroke="none"/>
<circle clip-path="url(#clip831)" cx="1074.29" cy="779.358" r="14.4" fill="#009af9" fill-rule="evenodd" fill-opacity="1" stroke="none"/>
<circle clip-path="url(#clip831)" cx="1009.85" cy="639.763" r="14.4" fill="#009af9" fill-rule="evenodd" fill-opacity="1" stroke="none"/>
<circle clip-path="url(#clip831)" cx="947.704" cy="530.56" r="14.4" fill="#009af9" fill-rule="evenodd" fill-opacity="1" stroke="none"/>
<circle clip-path="url(#clip831)" cx="896.385" cy="415.401" r="14.4" fill="#009af9" fill-rule="evenodd" fill-opacity="1" stroke="none"/>
<circle clip-path="url(#clip831)" cx="888.587" cy="532.612" r="14.4" fill="#009af9" fill-rule="evenodd" fill-opacity="1" stroke="none"/>
<circle clip-path="url(#clip831)" cx="893.403" cy="662.036" r="14.4" fill="#009af9" fill-rule="evenodd" fill-opacity="1" stroke="none"/>
<circle clip-path="url(#clip831)" cx="895.344" cy="776.472" r="14.4" fill="#009af9" fill-rule="evenodd" fill-opacity="1" stroke="none"/>
<circle clip-path="url(#clip831)" cx="882.439" cy="879.796" r="14.4" fill="#009af9" fill-rule="evenodd" fill-opacity="1" stroke="none"/>
<circle clip-path="url(#clip831)" cx="892.824" cy="1012.56" r="14.4" fill="#009af9" fill-rule="evenodd" fill-opacity="1" stroke="none"/>
<circle clip-path="url(#clip831)" cx="892.605" cy="1153.67" r="14.4" fill="#009af9" fill-rule="evenodd" fill-opacity="1" stroke="none"/>
<circle clip-path="url(#clip831)" cx="910.894" cy="1278.26" r="14.4" fill="#009af9" fill-rule="evenodd" fill-opacity="1" stroke="none"/>
<circle clip-path="url(#clip831)" cx="899.938" cy="1399.71" r="14.4" fill="#009af9" fill-rule="evenodd" fill-opacity="1" stroke="none"/>
<circle clip-path="url(#clip831)" cx="763.75" cy="1402.45" r="14.4" fill="#009af9" fill-rule="evenodd" fill-opacity="1" stroke="none"/>
<circle clip-path="url(#clip831)" cx="641.504" cy="1391.72" r="14.4" fill="#009af9" fill-rule="evenodd" fill-opacity="1" stroke="none"/>
<circle clip-path="url(#clip831)" cx="506.226" cy="1379.75" r="14.4" fill="#009af9" fill-rule="evenodd" fill-opacity="1" stroke="none"/>
<circle clip-path="url(#clip831)" cx="412.686" cy="1431.08" r="14.4" fill="#009af9" fill-rule="evenodd" fill-opacity="1" stroke="none"/>
<circle clip-path="url(#clip831)" cx="420.426" cy="1291.35" r="14.4" fill="#009af9" fill-rule="evenodd" fill-opacity="1" stroke="none"/>
<circle clip-path="url(#clip831)" cx="408.185" cy="1161.17" r="14.4" fill="#009af9" fill-rule="evenodd" fill-opacity="1" stroke="none"/>
<circle clip-path="url(#clip831)" cx="516.719" cy="1159.11" r="14.4" fill="#009af9" fill-rule="evenodd" fill-opacity="1" stroke="none"/>
<circle clip-path="url(#clip831)" cx="641.836" cy="1169.27" r="14.4" fill="#009af9" fill-rule="evenodd" fill-opacity="1" stroke="none"/>
<circle clip-path="url(#clip831)" cx="640.606" cy="1024.82" r="14.4" fill="#009af9" fill-rule="evenodd" fill-opacity="1" stroke="none"/>
<circle clip-path="url(#clip831)" cx="629.072" cy="911.117" r="14.4" fill="#009af9" fill-rule="evenodd" fill-opacity="1" stroke="none"/>
<circle clip-path="url(#clip831)" cx="635.515" cy="772.672" r="14.4" fill="#009af9" fill-rule="evenodd" fill-opacity="1" stroke="none"/>
<circle clip-path="url(#clip831)" cx="650.381" cy="681.739" r="14.4" fill="#009af9" fill-rule="evenodd" fill-opacity="1" stroke="none"/>
<circle clip-path="url(#clip831)" cx="629.497" cy="546.365" r="14.4" fill="#009af9" fill-rule="evenodd" fill-opacity="1" stroke="none"/>
<circle clip-path="url(#clip831)" cx="650.413" cy="411.529" r="14.4" fill="#009af9" fill-rule="evenodd" fill-opacity="1" stroke="none"/>
<circle clip-path="url(#clip831)" cx="522.754" cy="415.609" r="14.4" fill="#009af9" fill-rule="evenodd" fill-opacity="1" stroke="none"/>
<circle clip-path="url(#clip831)" cx="406.65" cy="406.008" r="14.4" fill="#009af9" fill-rule="evenodd" fill-opacity="1" stroke="none"/>
<circle clip-path="url(#clip831)" cx="390.187" cy="300.048" r="14.4" fill="#009af9" fill-rule="evenodd" fill-opacity="1" stroke="none"/>
<circle clip-path="url(#clip831)" cx="391.011" cy="163.255" r="14.4" fill="#009af9" fill-rule="evenodd" fill-opacity="1" stroke="none"/>
<circle clip-path="url(#clip831)" cx="511.308" cy="174.449" r="14.4" fill="#009af9" fill-rule="evenodd" fill-opacity="1" stroke="none"/>
<circle clip-path="url(#clip831)" cx="645.931" cy="161.558" r="14.4" fill="#009af9" fill-rule="evenodd" fill-opacity="1" stroke="none"/>
<circle clip-path="url(#clip831)" cx="764.307" cy="167.964" r="14.4" fill="#009af9" fill-rule="evenodd" fill-opacity="1" stroke="none"/>
<circle clip-path="url(#clip831)" cx="878.833" cy="165.171" r="14.4" fill="#009af9" fill-rule="evenodd" fill-opacity="1" stroke="none"/>
<circle clip-path="url(#clip831)" cx="948.863" cy="294.623" r="14.4" fill="#009af9" fill-rule="evenodd" fill-opacity="1" stroke="none"/>
<circle clip-path="url(#clip831)" cx="1016.89" cy="425.338" r="14.4" fill="#009af9" fill-rule="evenodd" fill-opacity="1" stroke="none"/>
<circle clip-path="url(#clip831)" cx="1084.16" cy="529.759" r="14.4" fill="#009af9" fill-rule="evenodd" fill-opacity="1" stroke="none"/>
<circle clip-path="url(#clip831)" cx="1125.44" cy="665.548" r="14.4" fill="#009af9" fill-rule="evenodd" fill-opacity="1" stroke="none"/>
<circle clip-path="url(#clip831)" cx="1264.49" cy="654.992" r="14.4" fill="#009af9" fill-rule="evenodd" fill-opacity="1" stroke="none"/>
<circle clip-path="url(#clip831)" cx="1380.52" cy="666.701" r="14.4" fill="#009af9" fill-rule="evenodd" fill-opacity="1" stroke="none"/>
<circle clip-path="url(#clip831)" cx="1439.46" cy="564.457" r="14.4" fill="#009af9" fill-rule="evenodd" fill-opacity="1" stroke="none"/>
<circle clip-path="url(#clip831)" cx="1492.96" cy="409.27" r="14.4" fill="#009af9" fill-rule="evenodd" fill-opacity="1" stroke="none"/>
<circle clip-path="url(#clip831)" cx="1567.15" cy="287.268" r="14.4" fill="#009af9" fill-rule="evenodd" fill-opacity="1" stroke="none"/>
<circle clip-path="url(#clip831)" cx="1643.99" cy="177.882" r="14.4" fill="#009af9" fill-rule="evenodd" fill-opacity="1" stroke="none"/>
<circle clip-path="url(#clip831)" cx="1755.03" cy="172.782" r="14.4" fill="#009af9" fill-rule="evenodd" fill-opacity="1" stroke="none"/>
<circle clip-path="url(#clip831)" cx="1880.51" cy="181.149" r="14.4" fill="#009af9" fill-rule="evenodd" fill-opacity="1" stroke="none"/>
<circle clip-path="url(#clip831)" cx="2005.45" cy="171.043" r="14.4" fill="#009af9" fill-rule="evenodd" fill-opacity="1" stroke="none"/>
<circle clip-path="url(#clip831)" cx="2119.19" cy="162.976" r="14.4" fill="#009af9" fill-rule="evenodd" fill-opacity="1" stroke="none"/>
<circle clip-path="url(#clip831)" cx="2134.19" cy="285.933" r="14.4" fill="#009af9" fill-rule="evenodd" fill-opacity="1" stroke="none"/>
<circle clip-path="url(#clip831)" cx="2118.5" cy="405.804" r="14.4" fill="#009af9" fill-rule="evenodd" fill-opacity="1" stroke="none"/>
<circle clip-path="url(#clip831)" cx="2002.58" cy="404.529" r="14.4" fill="#009af9" fill-rule="evenodd" fill-opacity="1" stroke="none"/>
<circle clip-path="url(#clip831)" cx="1875.83" cy="399.93" r="14.4" fill="#009af9" fill-rule="evenodd" fill-opacity="1" stroke="none"/>
<circle clip-path="url(#clip831)" cx="1884.44" cy="544.018" r="14.4" fill="#009af9" fill-rule="evenodd" fill-opacity="1" stroke="none"/>
<circle clip-path="url(#clip831)" cx="1883.4" cy="659.472" r="14.4" fill="#009af9" fill-rule="evenodd" fill-opacity="1" stroke="none"/>
<circle clip-path="url(#clip831)" cx="1878.96" cy="788.116" r="14.4" fill="#009af9" fill-rule="evenodd" fill-opacity="1" stroke="none"/>
<circle clip-path="url(#clip831)" cx="1870.96" cy="922.704" r="14.4" fill="#009af9" fill-rule="evenodd" fill-opacity="1" stroke="none"/>
<circle clip-path="url(#clip831)" cx="1877.55" cy="1041.12" r="14.4" fill="#009af9" fill-rule="evenodd" fill-opacity="1" stroke="none"/>
<circle clip-path="url(#clip831)" cx="1880.58" cy="1148.16" r="14.4" fill="#009af9" fill-rule="evenodd" fill-opacity="1" stroke="none"/>
<circle clip-path="url(#clip831)" cx="1999.44" cy="1150.5" r="14.4" fill="#009af9" fill-rule="evenodd" fill-opacity="1" stroke="none"/>
<circle clip-path="url(#clip831)" cx="2113.32" cy="1154.57" r="14.4" fill="#009af9" fill-rule="evenodd" fill-opacity="1" stroke="none"/>
<circle clip-path="url(#clip831)" cx="2140.29" cy="1277.78" r="14.4" fill="#009af9" fill-rule="evenodd" fill-opacity="1" stroke="none"/>
<circle clip-path="url(#clip831)" cx="2122.92" cy="1395.18" r="14.4" fill="#009af9" fill-rule="evenodd" fill-opacity="1" stroke="none"/>
<circle clip-path="url(#clip831)" cx="2002.84" cy="1399.66" r="14.4" fill="#009af9" fill-rule="evenodd" fill-opacity="1" stroke="none"/>
<circle clip-path="url(#clip831)" cx="1874.11" cy="1404.79" r="14.4" fill="#009af9" fill-rule="evenodd" fill-opacity="1" stroke="none"/>
<circle clip-path="url(#clip831)" cx="1732.73" cy="1399.21" r="14.4" fill="#009af9" fill-rule="evenodd" fill-opacity="1" stroke="none"/>
<circle clip-path="url(#clip831)" cx="1649.22" cy="1405.78" r="14.4" fill="#009af9" fill-rule="evenodd" fill-opacity="1" stroke="none"/>
<circle clip-path="url(#clip831)" cx="1626.39" cy="1278.88" r="14.4" fill="#009af9" fill-rule="evenodd" fill-opacity="1" stroke="none"/>
<circle clip-path="url(#clip831)" cx="1619.71" cy="1148.01" r="14.4" fill="#009af9" fill-rule="evenodd" fill-opacity="1" stroke="none"/>
<circle clip-path="url(#clip831)" cx="1629.07" cy="1036.37" r="14.4" fill="#009af9" fill-rule="evenodd" fill-opacity="1" stroke="none"/>
<circle clip-path="url(#clip831)" cx="1640.74" cy="913.87" r="14.4" fill="#009af9" fill-rule="evenodd" fill-opacity="1" stroke="none"/>
<circle clip-path="url(#clip831)" cx="1633.59" cy="770.917" r="14.4" fill="#009af9" fill-rule="evenodd" fill-opacity="1" stroke="none"/>
<circle clip-path="url(#clip831)" cx="1652.36" cy="652.625" r="14.4" fill="#009af9" fill-rule="evenodd" fill-opacity="1" stroke="none"/>
<circle clip-path="url(#clip831)" cx="1639.85" cy="538.545" r="14.4" fill="#009af9" fill-rule="evenodd" fill-opacity="1" stroke="none"/>
<circle clip-path="url(#clip831)" cx="1621.09" cy="404.442" r="14.4" fill="#009af9" fill-rule="evenodd" fill-opacity="1" stroke="none"/>
<circle clip-path="url(#clip831)" cx="1570.27" cy="541.322" r="14.4" fill="#009af9" fill-rule="evenodd" fill-opacity="1" stroke="none"/>
<circle clip-path="url(#clip831)" cx="1493.65" cy="666.265" r="14.4" fill="#009af9" fill-rule="evenodd" fill-opacity="1" stroke="none"/>
<circle clip-path="url(#clip831)" cx="1447.19" cy="790.386" r="14.4" fill="#009af9" fill-rule="evenodd" fill-opacity="1" stroke="none"/>
<circle clip-path="url(#clip831)" cx="1385.51" cy="905.101" r="14.4" fill="#009af9" fill-rule="evenodd" fill-opacity="1" stroke="none"/>
<circle clip-path="url(#clip831)" cx="1247.08" cy="896.569" r="14.4" fill="#009af9" fill-rule="evenodd" fill-opacity="1" stroke="none"/>
</svg>
