<?xml version="1.0" encoding="utf-8"?>
<svg xmlns="http://www.w3.org/2000/svg" xmlns:xlink="http://www.w3.org/1999/xlink" width="600" height="400" viewBox="0 0 2400 1600">
<defs>
  <clipPath id="clip890">
    <rect x="0" y="0" width="2400" height="1600"/>
  </clipPath>
</defs>
<path clip-path="url(#clip890)" d="M0 1600 L2400 1600 L2400 0 L0 0  Z" fill="#ffffff" fill-rule="evenodd" fill-opacity="1"/>
<defs>
  <clipPath id="clip891">
    <rect x="480" y="0" width="1681" height="1600"/>
  </clipPath>
</defs>
<path clip-path="url(#clip890)" d="M275.394 1375.66 L2352.76 1375.66 L2352.76 47.2441 L275.394 47.2441  Z" fill="#ffffff" fill-rule="evenodd" fill-opacity="1"/>
<defs>
  <clipPath id="clip892">
    <rect x="275" y="47" width="2078" height="1329"/>
  </clipPath>
</defs>
<polyline clip-path="url(#clip892)" style="stroke:#000000; stroke-linecap:round; stroke-linejoin:round; stroke-width:2; stroke-opacity:0.1; fill:none" points="275.394,1375.66 275.394,47.2441 "/>
<polyline clip-path="url(#clip892)" style="stroke:#000000; stroke-linecap:round; stroke-linejoin:round; stroke-width:2; stroke-opacity:0.1; fill:none" points="794.734,1375.66 794.734,47.2441 "/>
<polyline clip-path="url(#clip892)" style="stroke:#000000; stroke-linecap:round; stroke-linejoin:round; stroke-width:2; stroke-opacity:0.1; fill:none" points="1314.07,1375.66 1314.07,47.2441 "/>
<polyline clip-path="url(#clip892)" style="stroke:#000000; stroke-linecap:round; stroke-linejoin:round; stroke-width:2; stroke-opacity:0.1; fill:none" points="1833.42,1375.66 1833.42,47.2441 "/>
<polyline clip-path="url(#clip892)" style="stroke:#000000; stroke-linecap:round; stroke-linejoin:round; stroke-width:2; stroke-opacity:0.1; fill:none" points="2352.76,1375.66 2352.76,47.2441 "/>
<polyline clip-path="url(#clip890)" style="stroke:#000000; stroke-linecap:round; stroke-linejoin:round; stroke-width:4; stroke-opacity:1; fill:none" points="275.394,1375.66 2352.76,1375.66 "/>
<polyline clip-path="url(#clip890)" style="stroke:#000000; stroke-linecap:round; stroke-linejoin:round; stroke-width:4; stroke-opacity:1; fill:none" points="275.394,1375.66 275.394,1356.76 "/>
<polyline clip-path="url(#clip890)" style="stroke:#000000; stroke-linecap:round; stroke-linejoin:round; stroke-width:4; stroke-opacity:1; fill:none" points="794.734,1375.66 794.734,1356.76 "/>
<polyline clip-path="url(#clip890)" style="stroke:#000000; stroke-linecap:round; stroke-linejoin:round; stroke-width:4; stroke-opacity:1; fill:none" points="1314.07,1375.66 1314.07,1356.76 "/>
<polyline clip-path="url(#clip890)" style="stroke:#000000; stroke-linecap:round; stroke-linejoin:round; stroke-width:4; stroke-opacity:1; fill:none" points="1833.42,1375.66 1833.42,1356.76 "/>
<polyline clip-path="url(#clip890)" style="stroke:#000000; stroke-linecap:round; stroke-linejoin:round; stroke-width:4; stroke-opacity:1; fill:none" points="2352.76,1375.66 2352.76,1356.76 "/>
<path clip-path="url(#clip890)" d="M275.394 1412.44 Q269.977 1412.44 267.234 1417.79 Q264.526 1423.1 264.526 1433.79 Q264.526 1444.45 267.234 1449.8 Q269.977 1455.11 275.394 1455.11 Q280.845 1455.11 283.554 1449.8 Q286.297 1444.45 286.297 1433.79 Q286.297 1423.1 283.554 1417.79 Q280.845 1412.44 275.394 1412.44 M275.394 1406.88 Q284.109 1406.88 288.692 1413.79 Q293.31 1420.67 293.31 1433.79 Q293.31 1446.88 288.692 1453.79 Q284.109 1460.67 275.394 1460.67 Q266.679 1460.67 262.061 1453.79 Q257.477 1446.88 257.477 1433.79 Q257.477 1420.67 262.061 1413.79 Q266.679 1406.88 275.394 1406.88 Z" fill="#000000" fill-rule="nonzero" fill-opacity="1" /><path clip-path="url(#clip890)" d="M762.894 1453.76 L787.373 1453.76 L787.373 1459.66 L754.457 1459.66 L754.457 1453.76 Q758.45 1449.63 765.325 1442.68 Q772.235 1435.7 774.005 1433.69 Q777.373 1429.9 778.693 1427.3 Q780.047 1424.66 780.047 1422.13 Q780.047 1417.99 777.13 1415.39 Q774.248 1412.79 769.596 1412.79 Q766.297 1412.79 762.617 1413.93 Q758.971 1415.08 754.804 1417.4 L754.804 1410.32 Q759.04 1408.62 762.721 1407.75 Q766.401 1406.88 769.457 1406.88 Q777.512 1406.88 782.304 1410.91 Q787.096 1414.94 787.096 1421.67 Q787.096 1424.87 785.88 1427.75 Q784.7 1430.6 781.54 1434.49 Q780.672 1435.49 776.019 1440.32 Q771.366 1445.11 762.894 1453.76 Z" fill="#000000" fill-rule="nonzero" fill-opacity="1" /><path clip-path="url(#clip890)" d="M817.095 1412.44 Q811.679 1412.44 808.936 1417.79 Q806.227 1423.1 806.227 1433.79 Q806.227 1444.45 808.936 1449.8 Q811.679 1455.11 817.095 1455.11 Q822.547 1455.11 825.255 1449.8 Q827.998 1444.45 827.998 1433.79 Q827.998 1423.1 825.255 1417.79 Q822.547 1412.44 817.095 1412.44 M817.095 1406.88 Q825.811 1406.88 830.394 1413.79 Q835.012 1420.67 835.012 1433.79 Q835.012 1446.88 830.394 1453.79 Q825.811 1460.67 817.095 1460.67 Q808.38 1460.67 803.762 1453.79 Q799.179 1446.88 799.179 1433.79 Q799.179 1420.67 803.762 1413.79 Q808.38 1406.88 817.095 1406.88 Z" fill="#000000" fill-rule="nonzero" fill-opacity="1" /><path clip-path="url(#clip890)" d="M1296.33 1413.93 L1278.62 1441.6 L1296.33 1441.6 L1296.33 1413.93 M1294.49 1407.82 L1303.31 1407.82 L1303.31 1441.6 L1310.71 1441.6 L1310.71 1447.44 L1303.31 1447.44 L1303.31 1459.66 L1296.33 1459.66 L1296.33 1447.44 L1272.93 1447.44 L1272.93 1440.67 L1294.49 1407.82 Z" fill="#000000" fill-rule="nonzero" fill-opacity="1" /><path clip-path="url(#clip890)" d="M1337.3 1412.44 Q1331.89 1412.44 1329.14 1417.79 Q1326.44 1423.1 1326.44 1433.79 Q1326.44 1444.45 1329.14 1449.8 Q1331.89 1455.11 1337.3 1455.11 Q1342.76 1455.11 1345.46 1449.8 Q1348.21 1444.45 1348.21 1433.79 Q1348.21 1423.1 1345.46 1417.79 Q1342.76 1412.44 1337.3 1412.44 M1337.3 1406.88 Q1346.02 1406.88 1350.6 1413.79 Q1355.22 1420.67 1355.22 1433.79 Q1355.22 1446.88 1350.6 1453.79 Q1346.02 1460.67 1337.3 1460.67 Q1328.59 1460.67 1323.97 1453.79 Q1319.39 1446.88 1319.39 1433.79 Q1319.39 1420.67 1323.97 1413.79 Q1328.59 1406.88 1337.3 1406.88 Z" fill="#000000" fill-rule="nonzero" fill-opacity="1" /><path clip-path="url(#clip890)" d="M1811.52 1430.94 Q1806.8 1430.94 1804.02 1434.17 Q1801.28 1437.4 1801.28 1443.03 Q1801.28 1448.62 1804.02 1451.88 Q1806.8 1455.11 1811.52 1455.11 Q1816.25 1455.11 1818.99 1451.88 Q1821.77 1448.62 1821.77 1443.03 Q1821.77 1437.4 1818.99 1434.17 Q1816.25 1430.94 1811.52 1430.94 M1825.45 1408.97 L1825.45 1415.35 Q1822.81 1414.1 1820.1 1413.44 Q1817.43 1412.79 1814.79 1412.79 Q1807.84 1412.79 1804.16 1417.47 Q1800.52 1422.16 1800 1431.64 Q1802.04 1428.62 1805.13 1427.02 Q1808.22 1425.39 1811.94 1425.39 Q1819.75 1425.39 1824.27 1430.15 Q1828.81 1434.87 1828.81 1443.03 Q1828.81 1451.01 1824.09 1455.84 Q1819.37 1460.67 1811.52 1460.67 Q1802.53 1460.67 1797.77 1453.79 Q1793.02 1446.88 1793.02 1433.79 Q1793.02 1421.5 1798.85 1414.21 Q1804.68 1406.88 1814.51 1406.88 Q1817.15 1406.88 1819.82 1407.4 Q1822.53 1407.92 1825.45 1408.97 Z" fill="#000000" fill-rule="nonzero" fill-opacity="1" /><path clip-path="url(#clip890)" d="M1855.9 1412.44 Q1850.48 1412.44 1847.74 1417.79 Q1845.03 1423.1 1845.03 1433.79 Q1845.03 1444.45 1847.74 1449.8 Q1850.48 1455.11 1855.9 1455.11 Q1861.35 1455.11 1864.06 1449.8 Q1866.8 1444.45 1866.8 1433.79 Q1866.8 1423.1 1864.06 1417.79 Q1861.35 1412.44 1855.9 1412.44 M1855.9 1406.88 Q1864.61 1406.88 1869.2 1413.79 Q1873.81 1420.67 1873.81 1433.79 Q1873.81 1446.88 1869.2 1453.79 Q1864.61 1460.67 1855.9 1460.67 Q1847.18 1460.67 1842.56 1453.79 Q1837.98 1446.88 1837.98 1433.79 Q1837.98 1420.67 1842.56 1413.79 Q1847.18 1406.88 1855.9 1406.88 Z" fill="#000000" fill-rule="nonzero" fill-opacity="1" /><path clip-path="url(#clip890)" d="M2330.07 1435.04 Q2325.07 1435.04 2322.18 1437.72 Q2319.34 1440.39 2319.34 1445.08 Q2319.34 1449.76 2322.18 1452.44 Q2325.07 1455.11 2330.07 1455.11 Q2335.07 1455.11 2337.95 1452.44 Q2340.83 1449.73 2340.83 1445.08 Q2340.83 1440.39 2337.95 1437.72 Q2335.1 1435.04 2330.07 1435.04 M2323.05 1432.06 Q2318.54 1430.94 2316 1427.85 Q2313.5 1424.76 2313.5 1420.32 Q2313.5 1414.1 2317.91 1410.49 Q2322.36 1406.88 2330.07 1406.88 Q2337.81 1406.88 2342.22 1410.49 Q2346.63 1414.1 2346.63 1420.32 Q2346.63 1424.76 2344.09 1427.85 Q2341.59 1430.94 2337.11 1432.06 Q2342.18 1433.24 2345 1436.67 Q2347.84 1440.11 2347.84 1445.08 Q2347.84 1452.61 2343.22 1456.64 Q2338.64 1460.67 2330.07 1460.67 Q2321.49 1460.67 2316.87 1456.64 Q2312.29 1452.61 2312.29 1445.08 Q2312.29 1440.11 2315.13 1436.67 Q2317.98 1433.24 2323.05 1432.06 M2320.48 1420.98 Q2320.48 1425.01 2322.98 1427.26 Q2325.52 1429.52 2330.07 1429.52 Q2334.58 1429.52 2337.11 1427.26 Q2339.68 1425.01 2339.68 1420.98 Q2339.68 1416.95 2337.11 1414.69 Q2334.58 1412.44 2330.07 1412.44 Q2325.52 1412.44 2322.98 1414.69 Q2320.48 1416.95 2320.48 1420.98 Z" fill="#000000" fill-rule="nonzero" fill-opacity="1" /><path clip-path="url(#clip890)" d="M2375.31 1412.44 Q2369.89 1412.44 2367.15 1417.79 Q2364.44 1423.1 2364.44 1433.79 Q2364.44 1444.45 2367.15 1449.8 Q2369.89 1455.11 2375.31 1455.11 Q2380.76 1455.11 2383.47 1449.8 Q2386.21 1444.45 2386.21 1433.79 Q2386.21 1423.1 2383.47 1417.79 Q2380.76 1412.44 2375.31 1412.44 M2375.31 1406.88 Q2384.02 1406.88 2388.61 1413.79 Q2393.22 1420.67 2393.22 1433.79 Q2393.22 1446.88 2388.61 1453.79 Q2384.02 1460.67 2375.31 1460.67 Q2366.59 1460.67 2361.97 1453.79 Q2357.39 1446.88 2357.39 1433.79 Q2357.39 1420.67 2361.97 1413.79 Q2366.59 1406.88 2375.31 1406.88 Z" fill="#000000" fill-rule="nonzero" fill-opacity="1" /><path clip-path="url(#clip890)" d="M1097.62 1504.97 L1108.14 1504.97 L1108.14 1582.73 L1097.62 1582.73 L1097.62 1504.97 Z" fill="#000000" fill-rule="nonzero" fill-opacity="1" /><path clip-path="url(#clip890)" d="M1138.14 1507.84 L1138.14 1524.4 L1157.88 1524.4 L1157.88 1531.85 L1138.14 1531.85 L1138.14 1563.51 Q1138.14 1570.65 1140.07 1572.68 Q1142.04 1574.71 1148.03 1574.71 L1157.88 1574.71 L1157.88 1582.73 L1148.03 1582.73 Q1136.94 1582.73 1132.72 1578.62 Q1128.5 1574.45 1128.5 1563.51 L1128.5 1531.85 L1121.47 1531.85 L1121.47 1524.4 L1128.5 1524.4 L1128.5 1507.84 L1138.14 1507.84 Z" fill="#000000" fill-rule="nonzero" fill-opacity="1" /><path clip-path="url(#clip890)" d="M1220.38 1551.17 L1220.38 1555.86 L1176.32 1555.86 Q1176.94 1565.75 1182.25 1570.96 Q1187.62 1576.12 1197.15 1576.12 Q1202.67 1576.12 1207.83 1574.76 Q1213.03 1573.41 1218.14 1570.7 L1218.14 1579.76 Q1212.98 1581.95 1207.57 1583.1 Q1202.15 1584.24 1196.58 1584.24 Q1182.62 1584.24 1174.44 1576.12 Q1166.32 1567.99 1166.32 1554.14 Q1166.32 1539.82 1174.02 1531.43 Q1181.78 1522.99 1194.91 1522.99 Q1206.68 1522.99 1213.5 1530.6 Q1220.38 1538.15 1220.38 1551.17 M1210.79 1548.36 Q1210.69 1540.49 1206.37 1535.81 Q1202.1 1531.12 1195.01 1531.12 Q1186.99 1531.12 1182.15 1535.65 Q1177.36 1540.18 1176.63 1548.41 L1210.79 1548.36 Z" fill="#000000" fill-rule="nonzero" fill-opacity="1" /><path clip-path="url(#clip890)" d="M1269.91 1533.36 Q1268.29 1532.42 1266.37 1532 Q1264.49 1531.53 1262.2 1531.53 Q1254.08 1531.53 1249.7 1536.85 Q1245.38 1542.11 1245.38 1552 L1245.38 1582.73 L1235.74 1582.73 L1235.74 1524.4 L1245.38 1524.4 L1245.38 1533.46 Q1248.4 1528.15 1253.24 1525.6 Q1258.09 1522.99 1265.01 1522.99 Q1266 1522.99 1267.2 1523.15 Q1268.4 1523.25 1269.86 1523.51 L1269.91 1533.36 Z" fill="#000000" fill-rule="nonzero" fill-opacity="1" /><path clip-path="url(#clip890)" d="M1306.47 1553.41 Q1294.86 1553.41 1290.38 1556.07 Q1285.9 1558.72 1285.9 1565.13 Q1285.9 1570.23 1289.23 1573.25 Q1292.62 1576.22 1298.4 1576.22 Q1306.37 1576.22 1311.16 1570.6 Q1316 1564.92 1316 1555.54 L1316 1553.41 L1306.47 1553.41 M1325.59 1549.45 L1325.59 1582.73 L1316 1582.73 L1316 1573.88 Q1312.72 1579.19 1307.82 1581.74 Q1302.93 1584.24 1295.85 1584.24 Q1286.89 1584.24 1281.58 1579.24 Q1276.31 1574.19 1276.31 1565.75 Q1276.31 1555.91 1282.88 1550.91 Q1289.49 1545.91 1302.56 1545.91 L1316 1545.91 L1316 1544.97 Q1316 1538.36 1311.63 1534.76 Q1307.3 1531.12 1299.44 1531.12 Q1294.44 1531.12 1289.7 1532.32 Q1284.96 1533.51 1280.59 1535.91 L1280.59 1527.06 Q1285.85 1525.02 1290.79 1524.03 Q1295.74 1522.99 1300.43 1522.99 Q1313.09 1522.99 1319.34 1529.56 Q1325.59 1536.12 1325.59 1549.45 Z" fill="#000000" fill-rule="nonzero" fill-opacity="1" /><path clip-path="url(#clip890)" d="M1354.8 1507.84 L1354.8 1524.4 L1374.54 1524.4 L1374.54 1531.85 L1354.8 1531.85 L1354.8 1563.51 Q1354.8 1570.65 1356.73 1572.68 Q1358.71 1574.71 1364.7 1574.71 L1374.54 1574.71 L1374.54 1582.73 L1364.7 1582.73 Q1353.61 1582.73 1349.39 1578.62 Q1345.17 1574.45 1345.17 1563.51 L1345.17 1531.85 L1338.14 1531.85 L1338.14 1524.4 L1345.17 1524.4 L1345.17 1507.84 L1354.8 1507.84 Z" fill="#000000" fill-rule="nonzero" fill-opacity="1" /><path clip-path="url(#clip890)" d="M1387.15 1524.4 L1396.73 1524.4 L1396.73 1582.73 L1387.15 1582.73 L1387.15 1524.4 M1387.15 1501.69 L1396.73 1501.69 L1396.73 1513.83 L1387.15 1513.83 L1387.15 1501.69 Z" fill="#000000" fill-rule="nonzero" fill-opacity="1" /><path clip-path="url(#clip890)" d="M1439.39 1531.12 Q1431.68 1531.12 1427.2 1537.16 Q1422.72 1543.15 1422.72 1553.62 Q1422.72 1564.09 1427.15 1570.13 Q1431.63 1576.12 1439.39 1576.12 Q1447.04 1576.12 1451.52 1570.08 Q1456 1564.03 1456 1553.62 Q1456 1543.25 1451.52 1537.21 Q1447.04 1531.12 1439.39 1531.12 M1439.39 1522.99 Q1451.89 1522.99 1459.02 1531.12 Q1466.16 1539.24 1466.16 1553.62 Q1466.16 1567.94 1459.02 1576.12 Q1451.89 1584.24 1439.39 1584.24 Q1426.83 1584.24 1419.7 1576.12 Q1412.62 1567.94 1412.62 1553.62 Q1412.62 1539.24 1419.7 1531.12 Q1426.83 1522.99 1439.39 1522.99 Z" fill="#000000" fill-rule="nonzero" fill-opacity="1" /><path clip-path="url(#clip890)" d="M1530.53 1547.52 L1530.53 1582.73 L1520.95 1582.73 L1520.95 1547.84 Q1520.95 1539.55 1517.72 1535.44 Q1514.49 1531.33 1508.03 1531.33 Q1500.27 1531.33 1495.79 1536.27 Q1491.31 1541.22 1491.31 1549.76 L1491.31 1582.73 L1481.68 1582.73 L1481.68 1524.4 L1491.31 1524.4 L1491.31 1533.46 Q1494.75 1528.2 1499.39 1525.6 Q1504.07 1522.99 1510.17 1522.99 Q1520.22 1522.99 1525.38 1529.24 Q1530.53 1535.44 1530.53 1547.52 Z" fill="#000000" fill-rule="nonzero" fill-opacity="1" /><polyline clip-path="url(#clip892)" style="stroke:#000000; stroke-linecap:round; stroke-linejoin:round; stroke-width:2; stroke-opacity:0.1; fill:none" points="275.394,1375.66 2352.76,1375.66 "/>
<polyline clip-path="url(#clip892)" style="stroke:#000000; stroke-linecap:round; stroke-linejoin:round; stroke-width:2; stroke-opacity:0.1; fill:none" points="275.394,1043.56 2352.76,1043.56 "/>
<polyline clip-path="url(#clip892)" style="stroke:#000000; stroke-linecap:round; stroke-linejoin:round; stroke-width:2; stroke-opacity:0.1; fill:none" points="275.394,711.452 2352.76,711.452 "/>
<polyline clip-path="url(#clip892)" style="stroke:#000000; stroke-linecap:round; stroke-linejoin:round; stroke-width:2; stroke-opacity:0.1; fill:none" points="275.394,379.348 2352.76,379.348 "/>
<polyline clip-path="url(#clip892)" style="stroke:#000000; stroke-linecap:round; stroke-linejoin:round; stroke-width:2; stroke-opacity:0.1; fill:none" points="275.394,47.2441 2352.76,47.2441 "/>
<polyline clip-path="url(#clip890)" style="stroke:#000000; stroke-linecap:round; stroke-linejoin:round; stroke-width:4; stroke-opacity:1; fill:none" points="275.394,1375.66 275.394,47.2441 "/>
<polyline clip-path="url(#clip890)" style="stroke:#000000; stroke-linecap:round; stroke-linejoin:round; stroke-width:4; stroke-opacity:1; fill:none" points="275.394,1375.66 294.292,1375.66 "/>
<polyline clip-path="url(#clip890)" style="stroke:#000000; stroke-linecap:round; stroke-linejoin:round; stroke-width:4; stroke-opacity:1; fill:none" points="275.394,1043.56 294.292,1043.56 "/>
<polyline clip-path="url(#clip890)" style="stroke:#000000; stroke-linecap:round; stroke-linejoin:round; stroke-width:4; stroke-opacity:1; fill:none" points="275.394,711.452 294.292,711.452 "/>
<polyline clip-path="url(#clip890)" style="stroke:#000000; stroke-linecap:round; stroke-linejoin:round; stroke-width:4; stroke-opacity:1; fill:none" points="275.394,379.348 294.292,379.348 "/>
<polyline clip-path="url(#clip890)" style="stroke:#000000; stroke-linecap:round; stroke-linejoin:round; stroke-width:4; stroke-opacity:1; fill:none" points="275.394,47.2441 294.292,47.2441 "/>
<path clip-path="url(#clip890)" d="M147.797 1376.34 L192.311 1376.34 L192.311 1382.24 L147.797 1382.24 L147.797 1376.34 Z" fill="#000000" fill-rule="nonzero" fill-opacity="1" /><path clip-path="url(#clip890)" d="M228.7 1373.63 Q233.734 1374.7 236.547 1378.11 Q239.394 1381.51 239.394 1386.51 Q239.394 1394.18 234.116 1398.39 Q228.838 1402.59 219.116 1402.59 Q215.852 1402.59 212.38 1401.93 Q208.943 1401.3 205.262 1400.02 L205.262 1393.25 Q208.179 1394.95 211.651 1395.82 Q215.123 1396.68 218.908 1396.68 Q225.505 1396.68 228.943 1394.08 Q232.415 1391.48 232.415 1386.51 Q232.415 1381.93 229.186 1379.36 Q225.991 1376.75 220.262 1376.75 L214.22 1376.75 L214.22 1370.99 L220.54 1370.99 Q225.713 1370.99 228.456 1368.94 Q231.199 1366.86 231.199 1362.97 Q231.199 1358.98 228.352 1356.86 Q225.54 1354.71 220.262 1354.71 Q217.38 1354.71 214.082 1355.33 Q210.783 1355.96 206.825 1357.27 L206.825 1351.02 Q210.818 1349.91 214.29 1349.36 Q217.797 1348.8 220.887 1348.8 Q228.873 1348.8 233.526 1352.45 Q238.179 1356.06 238.179 1362.24 Q238.179 1366.55 235.713 1369.53 Q233.248 1372.48 228.7 1373.63 Z" fill="#000000" fill-rule="nonzero" fill-opacity="1" /><path clip-path="url(#clip890)" d="M149.221 1044.23 L193.734 1044.23 L193.734 1050.14 L149.221 1050.14 L149.221 1044.23 Z" fill="#000000" fill-rule="nonzero" fill-opacity="1" /><path clip-path="url(#clip890)" d="M214.915 1063.57 L239.394 1063.57 L239.394 1069.48 L206.477 1069.48 L206.477 1063.57 Q210.47 1059.44 217.345 1052.5 Q224.255 1045.52 226.026 1043.5 Q229.394 1039.72 230.713 1037.11 Q232.068 1034.48 232.068 1031.94 Q232.068 1027.81 229.151 1025.21 Q226.269 1022.6 221.616 1022.6 Q218.318 1022.6 214.637 1023.75 Q210.991 1024.89 206.825 1027.22 L206.825 1020.14 Q211.061 1018.43 214.741 1017.57 Q218.422 1016.7 221.477 1016.7 Q229.533 1016.7 234.324 1020.73 Q239.116 1024.75 239.116 1031.49 Q239.116 1034.68 237.901 1037.57 Q236.72 1040.41 233.561 1044.3 Q232.693 1045.31 228.04 1050.14 Q223.387 1054.93 214.915 1063.57 Z" fill="#000000" fill-rule="nonzero" fill-opacity="1" /><path clip-path="url(#clip890)" d="M148.665 712.129 L193.179 712.129 L193.179 718.032 L148.665 718.032 L148.665 712.129 Z" fill="#000000" fill-rule="nonzero" fill-opacity="1" /><path clip-path="url(#clip890)" d="M209.533 731.469 L220.991 731.469 L220.991 691.921 L208.526 694.421 L208.526 688.032 L220.922 685.532 L227.936 685.532 L227.936 731.469 L239.394 731.469 L239.394 737.372 L209.533 737.372 L209.533 731.469 Z" fill="#000000" fill-rule="nonzero" fill-opacity="1" /><path clip-path="url(#clip890)" d="M221.477 358.046 Q216.061 358.046 213.318 363.393 Q210.609 368.706 210.609 379.4 Q210.609 390.06 213.318 395.407 Q216.061 400.719 221.477 400.719 Q226.929 400.719 229.637 395.407 Q232.38 390.06 232.38 379.4 Q232.38 368.706 229.637 363.393 Q226.929 358.046 221.477 358.046 M221.477 352.491 Q230.193 352.491 234.776 359.4 Q239.394 366.275 239.394 379.4 Q239.394 392.49 234.776 399.4 Q230.193 406.275 221.477 406.275 Q212.762 406.275 208.144 399.4 Q203.561 392.49 203.561 379.4 Q203.561 366.275 208.144 359.4 Q212.762 352.491 221.477 352.491 Z" fill="#000000" fill-rule="nonzero" fill-opacity="1" /><path clip-path="url(#clip890)" d="M209.533 67.2613 L220.991 67.2613 L220.991 27.7129 L208.526 30.2129 L208.526 23.8241 L220.922 21.3241 L227.936 21.3241 L227.936 67.2613 L239.394 67.2613 L239.394 73.1641 L209.533 73.1641 L209.533 67.2613 Z" fill="#000000" fill-rule="nonzero" fill-opacity="1" /><path clip-path="url(#clip890)" d="M82.5421 1125.99 L79.222 1125.99 Q79.222 1120.25 78.5368 1118.93 Q77.799 1117.62 74.3208 1117.62 L18.1948 1117.62 Q14.1895 1117.62 13.1882 1119.04 Q12.1869 1120.41 12.1869 1125.99 L8.81408 1125.99 L7.65467 1110.5 L74.3208 1110.5 Q77.799 1110.5 78.5368 1109.13 Q79.222 1107.76 79.222 1102.07 L82.5421 1102.07 Q82.5421 1103.39 82.4367 1106.13 Q82.3313 1108.87 82.2786 1110.87 Q82.2259 1112.87 82.2259 1114.03 Q82.2259 1115.3 82.5421 1125.99 Z" fill="#000000" fill-rule="nonzero" fill-opacity="1" /><path clip-path="url(#clip890)" d="M76.745 1085.83 Q69.6832 1092.95 59.4593 1092.95 Q49.1827 1092.95 41.6992 1085.99 Q34.163 1078.98 34.163 1068.97 Q34.163 1059.16 41.6465 1052.16 Q49.0773 1045.09 59.4593 1045.09 Q69.6305 1045.09 76.6923 1052.21 Q83.7542 1059.27 83.7542 1069.07 Q83.7542 1078.66 76.745 1085.83 M58.5634 1083.99 Q69.0508 1083.99 73.7938 1081.25 Q81.0138 1077.03 81.0138 1068.97 Q81.0138 1064.96 78.853 1061.64 Q76.6923 1058.27 73.056 1056.42 Q68.3129 1054.05 58.5634 1054.05 Q48.1814 1054.05 43.5964 1056.9 Q36.5872 1061.11 36.5872 1069.07 Q36.5872 1072.55 38.4318 1075.98 Q40.2236 1079.35 43.8072 1081.4 Q48.5503 1083.99 58.5634 1083.99 Z" fill="#000000" fill-rule="nonzero" fill-opacity="1" /><path clip-path="url(#clip890)" d="M91.0796 1043.39 Q87.6013 1043.39 84.5974 1040.75 Q81.5935 1038.07 80.276 1033.43 Q77.272 1038.17 70.6845 1038.17 Q65.6252 1038.17 61.7254 1034.85 Q57.5093 1039.91 50.6056 1039.91 Q44.2288 1039.91 39.5385 1034.85 Q34.8481 1029.79 34.8481 1022.41 Q34.8481 1015.93 38.748 1010.98 Q33.6887 1005.81 33.636 999.542 Q33.636 996.748 35.3751 995.431 Q37.1143 994.061 38.9588 994.061 Q40.5925 994.061 41.383 995.115 Q42.1735 996.116 42.1735 997.17 Q42.1735 998.488 41.3303 999.436 Q40.4344 1000.33 39.0642 1000.33 Q36.798 1000.33 36.1129 998.593 Q36.0075 998.909 36.0075 999.647 Q36.0075 1004.92 40.2236 1009.4 Q44.3342 1004.97 50.711 1004.97 Q57.0877 1004.97 61.7781 1010.03 Q66.4684 1015.09 66.4684 1022.41 Q66.4684 1028.47 63.0956 1033.11 Q65.2563 1034.96 68.2075 1034.96 Q70.8953 1034.96 73.0033 1033.32 Q75.1113 1031.69 75.4275 1029.21 Q75.5329 1028.47 75.5329 1021.15 Q75.5329 1016.83 75.6383 1014.46 Q75.7437 1012.08 76.4815 1008.71 Q77.1666 1005.29 78.5368 1002.6 Q82.4367 995.589 90.8688 995.536 Q97.0347 995.536 100.882 1002.65 Q104.782 1009.71 104.782 1019.52 Q104.782 1029.42 100.829 1036.43 Q96.9293 1043.39 91.0796 1043.39 M91.0796 1037.75 Q95.5064 1037.75 98.8792 1032.53 Q102.305 1027.31 102.305 1019.41 Q102.305 1011.66 98.9319 1006.45 Q95.6118 1001.18 91.0796 1001.18 Q87.8648 1001.18 85.8095 1003.02 Q83.7542 1004.86 82.911 1008.66 Q82.1205 1012.4 81.9624 1015.04 Q81.8043 1017.67 81.8043 1022.52 L81.8043 1028.9 Q82.0151 1032.58 84.7028 1035.17 Q87.3905 1037.75 91.0796 1037.75 M50.711 1031.85 Q63.9915 1031.85 63.9915 1022.41 Q63.9915 1017.67 59.6701 1014.77 Q56.7715 1013.03 50.6056 1013.03 Q37.3251 1013.03 37.3251 1022.41 Q37.3251 1027.16 41.6465 1030.11 Q44.545 1031.85 50.711 1031.85 Z" fill="#000000" fill-rule="nonzero" fill-opacity="1" /><path clip-path="url(#clip890)" d="M69.316 983.025 L66.955 983.025 Q66.955 973.95 62.1224 969.265 Q62.1224 967.973 62.4175 967.752 Q62.7126 967.531 64.0776 967.531 L106.465 967.531 Q108.715 967.531 109.416 966.424 Q110.117 965.317 110.117 960.485 L110.117 958.087 L112.441 958.087 Q112.219 960.743 112.219 970.334 Q112.219 979.926 112.441 982.545 L110.117 982.545 L110.117 980.147 Q110.117 975.388 109.453 974.245 Q108.752 973.101 106.465 973.101 L67.3239 973.101 Q69.316 977.048 69.316 983.025 Z" fill="#000000" fill-rule="nonzero" fill-opacity="1" /><path clip-path="url(#clip890)" d="M88.2777 954.372 Q77.1737 954.372 71.1236 951.568 Q62.1224 947.658 62.1224 938.435 Q62.1224 936.48 62.6757 934.451 Q63.1922 932.385 65.2212 929.803 Q67.2502 927.184 70.5703 925.598 Q76.9892 922.573 88.2777 922.573 Q99.3079 922.573 105.321 925.376 Q114.101 929.471 114.101 938.509 Q114.101 941.903 112.367 945.371 Q110.633 948.802 106.465 950.978 Q100.23 954.372 88.2777 954.372 M87.3554 948.101 Q98.7545 948.101 103.292 947.289 Q108.198 946.367 110.338 943.858 Q112.441 941.313 112.441 938.509 Q112.441 935.484 110.191 932.976 Q107.903 930.43 102.997 929.655 Q98.1643 928.807 87.3554 928.844 Q76.8416 928.844 72.6361 929.582 Q67.7297 930.578 65.7745 933.234 Q63.7825 935.853 63.7825 938.509 Q63.7825 939.505 64.0776 940.575 Q64.3727 941.608 65.2212 943.12 Q66.0697 944.633 68.1724 945.813 Q70.2752 946.957 73.4477 947.51 Q77.5426 948.101 87.3554 948.101 Z" fill="#000000" fill-rule="nonzero" fill-opacity="1" /><path clip-path="url(#clip890)" d="M55.5594 905.44 Q37.3251 905.44 22.6216 898.642 Q16.4557 895.743 11.291 891.685 Q6.12636 887.627 3.86023 884.94 Q1.59411 882.252 1.59411 881.514 Q1.59411 880.46 2.64812 880.408 Q3.17513 880.408 4.49264 881.83 Q22.2 899.222 55.5594 899.169 Q89.0242 899.169 106.047 882.252 Q107.891 880.408 108.471 880.408 Q109.525 880.408 109.525 881.514 Q109.525 882.252 107.364 884.834 Q105.203 887.417 100.249 891.422 Q95.2956 895.427 89.235 898.326 Q74.5316 905.44 55.5594 905.44 Z" fill="#000000" fill-rule="nonzero" fill-opacity="1" /><path clip-path="url(#clip890)" d="M106.205 861.839 L4.91424 861.839 Q1.69951 861.839 1.69951 859.679 Q1.69951 857.518 5.07235 857.518 L105.941 857.518 Q109.419 857.518 109.419 859.679 Q109.419 861.839 106.205 861.839 M106.205 849.929 L5.70475 849.929 Q1.69951 849.929 1.69951 847.768 Q1.69951 845.608 5.07235 845.608 L105.941 845.608 Q109.419 845.608 109.419 847.768 Q109.419 849.929 106.205 849.929 Z" fill="#000000" fill-rule="nonzero" fill-opacity="1" /><path clip-path="url(#clip890)" d="M82.5421 747.63 L82.2259 759.488 L82.5421 772.452 L77.4828 772.452 L77.4828 768.236 L63.4645 780.094 L75.2167 790.581 L76.2707 791.319 Q76.745 791.319 77.1139 790.107 Q77.4828 788.842 77.4828 787.366 L82.5421 787.366 L82.2259 798.486 L82.5421 808.394 L77.4828 808.394 Q77.4828 805.074 77.4301 803.546 Q77.3247 801.965 76.8504 800.173 Q76.3761 798.381 75.4275 797.485 L59.5647 783.361 L39.6966 800.173 L39.6966 807.867 L34.6373 807.867 L34.9535 795.957 L34.6373 782.94 L39.6966 782.94 L39.6966 787.261 L52.0812 776.668 L41.9627 767.604 Q41.91 767.551 40.6452 766.708 Q39.6966 768.394 39.6966 770.819 L34.6373 770.819 L34.9535 759.699 L34.6373 749.791 L39.6966 749.791 Q39.6966 754.112 40.0128 756.379 Q40.2763 758.592 40.6452 759.277 Q41.0141 759.91 41.9627 760.805 L55.981 773.401 L77.4828 755.272 L77.4828 747.63 L82.5421 747.63 Z" fill="#000000" fill-rule="nonzero" fill-opacity="1" /><path clip-path="url(#clip890)" d="M85.0674 702.505 Q87.1701 702.505 88.4244 703.796 Q89.6787 705.05 89.6787 706.636 Q89.6787 708.038 88.8671 708.776 Q88.0555 709.514 87.0225 709.514 Q86.5799 709.514 86.0265 709.329 Q85.4363 709.145 84.7353 708.739 Q84.0344 708.297 83.518 707.374 Q83.0015 706.452 82.9277 705.198 Q82.6695 705.456 82.6326 705.53 Q82.1899 706.083 82.0423 707.116 Q81.9686 707.264 81.9686 707.78 Q81.9686 710.325 83.85 712.908 Q85.6945 715.453 89.1991 718.589 Q93.2939 722.536 94.8064 725.082 Q96.282 713.904 102.738 713.904 Q103.808 713.904 105.099 714.199 Q107.534 714.789 109.304 714.789 Q112.846 714.789 112.846 712.391 Q112.846 710.067 110.485 708.592 Q108.124 707.079 103.513 705.825 Q102.664 705.64 102.406 705.456 Q102.148 705.272 102.148 704.755 Q102.148 703.833 102.885 703.833 Q107.202 704.681 110.522 706.563 Q114.543 708.961 114.543 712.539 Q114.543 715.527 112.477 717.519 Q110.374 719.474 107.054 719.474 Q106.242 719.474 104.398 719.179 Q103.66 718.958 102.812 718.958 Q101.078 718.958 99.7866 719.917 Q98.4586 720.876 97.7945 722.426 Q97.1305 723.975 96.8354 725.266 Q96.5034 726.52 96.3927 727.738 Q111.997 731.427 112.956 731.943 Q113.62 732.275 114.063 733.013 Q114.543 733.751 114.543 734.526 Q114.543 735.263 114.026 736.001 Q113.547 736.702 112.403 736.702 Q111.813 736.702 110.743 736.407 L67.2124 725.451 L65.7368 725.229 Q65.2941 725.229 65.0728 725.414 Q64.8146 725.561 64.6301 726.447 Q64.4457 727.295 64.4457 728.992 Q64.4457 729.693 64.4088 730.025 Q64.3719 730.32 64.1874 730.578 Q63.9661 730.837 63.5234 730.837 Q62.8963 730.837 62.5642 730.578 Q62.1953 730.283 62.1216 730.062 Q62.0478 729.84 62.0109 729.398 Q61.974 728.771 61.7895 726.668 Q61.5682 724.565 61.4206 722.758 Q61.2731 720.95 61.2731 720.175 Q61.2731 719.733 61.4944 719.511 Q61.6789 719.253 61.9002 719.216 L62.0847 719.179 L93.9579 727.037 Q92.6668 723.79 86.9488 718.663 Q80.3085 712.723 80.3085 707.632 Q80.3085 705.235 81.7841 703.87 Q83.2228 702.505 85.0674 702.505 Z" fill="#000000" fill-rule="nonzero" fill-opacity="1" /><path clip-path="url(#clip890)" d="M54.0311 590.126 Q54.6635 589.493 55.5594 589.493 Q56.4553 589.493 57.0877 590.126 Q57.7201 590.758 57.7201 591.654 L57.7201 659.216 Q57.7201 660.112 57.0877 660.744 Q56.4553 661.377 55.5594 661.377 Q54.6635 661.377 54.0311 660.744 Q53.3987 660.112 53.3987 659.216 L53.3987 591.654 Q53.3987 590.758 54.0311 590.126 Z" fill="#000000" fill-rule="nonzero" fill-opacity="1" /><path clip-path="url(#clip890)" d="M82.5421 487.527 L82.2259 499.385 L82.5421 512.349 L77.4828 512.349 L77.4828 508.133 L63.4645 519.991 L75.2167 530.478 L76.2707 531.216 Q76.745 531.216 77.1139 530.004 Q77.4828 528.739 77.4828 527.263 L82.5421 527.263 L82.2259 538.383 L82.5421 548.291 L77.4828 548.291 Q77.4828 544.971 77.4301 543.442 Q77.3247 541.861 76.8504 540.07 Q76.3761 538.278 75.4275 537.382 L59.5647 523.258 L39.6966 540.07 L39.6966 547.764 L34.6373 547.764 L34.9535 535.854 L34.6373 522.837 L39.6966 522.837 L39.6966 527.158 L52.0812 516.565 L41.9627 507.501 Q41.91 507.448 40.6452 506.605 Q39.6966 508.291 39.6966 510.715 L34.6373 510.715 L34.9535 499.596 L34.6373 489.688 L39.6966 489.688 Q39.6966 494.009 40.0128 496.276 Q40.2763 498.489 40.6452 499.174 Q41.0141 499.806 41.9627 500.702 L55.981 513.298 L77.4828 495.169 L77.4828 487.527 L82.5421 487.527 Z" fill="#000000" fill-rule="nonzero" fill-opacity="1" /><path clip-path="url(#clip890)" d="M90.6437 455.639 Q89.3526 455.639 88.5041 453.905 L83.5239 443.391 L78.5437 454.053 Q77.8059 455.639 76.5147 455.639 Q75.7769 455.639 75.1129 455.049 Q74.412 454.422 74.412 453.61 Q74.412 453.02 75.2236 451.95 L82.0114 442.58 Q69.5424 443.723 69.1735 443.687 Q68.4357 443.687 67.8824 443.133 Q67.2921 442.58 67.2921 441.658 Q67.2921 440.92 67.8455 440.33 Q68.362 439.702 69.1735 439.702 L82.0114 440.809 L75.8138 432.435 Q74.3751 430.48 74.412 429.779 Q74.412 428.93 75.076 428.34 Q75.74 427.75 76.5147 427.75 Q77.8059 427.75 78.6175 429.484 L83.5977 439.998 L88.6148 429.336 Q89.3526 427.75 90.6437 427.75 Q91.3815 427.75 92.0824 428.377 Q92.7465 428.967 92.7465 429.779 Q92.7465 430.222 92.3038 430.996 Q92.23 431.144 91.0495 432.73 Q89.869 434.316 88.0614 436.788 Q86.2538 439.223 85.1102 440.809 Q97.5791 439.666 97.948 439.702 Q98.6858 439.702 99.2761 440.256 Q99.8663 440.809 99.8663 441.731 Q99.8663 442.469 99.3498 443.096 Q98.7965 443.687 97.948 443.687 L85.1102 442.58 L92.7465 453.131 Q92.7465 454.274 92.1931 454.901 Q91.6029 455.491 91.2709 455.565 Q90.9388 455.639 90.6437 455.639 Z" fill="#000000" fill-rule="nonzero" fill-opacity="1" /><path clip-path="url(#clip890)" d="M106.205 385.747 L4.91424 385.747 Q1.69951 385.747 1.69951 383.587 Q1.69951 381.426 5.07235 381.426 L105.941 381.426 Q109.419 381.426 109.419 383.587 Q109.419 385.747 106.205 385.747 M106.205 373.837 L5.70475 373.837 Q1.69951 373.837 1.69951 371.676 Q1.69951 369.516 5.07235 369.516 L105.941 369.516 Q109.419 369.516 109.419 371.676 Q109.419 373.837 106.205 373.837 Z" fill="#000000" fill-rule="nonzero" fill-opacity="1" /><path clip-path="url(#clip890)" d="M108.471 338.35 Q107.944 338.35 106.626 336.98 Q88.9188 319.589 55.5594 319.589 Q22.0946 319.589 5.17775 336.295 Q3.22783 338.35 2.64812 338.35 Q1.59411 338.35 1.59411 337.296 Q1.59411 336.558 3.75483 333.976 Q5.91555 331.341 10.8694 327.388 Q15.8232 323.383 21.8838 320.432 Q36.5872 313.317 55.5594 313.317 Q73.7938 313.317 88.4972 320.116 Q94.6632 323.014 99.8278 327.072 Q104.992 331.13 107.259 333.818 Q109.525 336.505 109.525 337.296 Q109.525 338.35 108.471 338.35 Z" fill="#000000" fill-rule="nonzero" fill-opacity="1" /><polyline clip-path="url(#clip892)" style="stroke:#008000; stroke-linecap:round; stroke-linejoin:round; stroke-width:8; stroke-opacity:1; fill:none" points="275.394,85.9538 301.361,116.013 327.328,148.379 353.295,182.314 379.262,207.107 405.229,218.952 431.196,226.666 457.163,232.492 483.13,237.266 509.097,241.39 535.064,245.08 561.031,248.468 586.998,251.634 612.965,254.632 638.932,257.502 664.899,260.268 690.866,262.951 716.833,265.566 742.8,268.123 768.767,270.633 794.734,273.101 820.701,275.535 846.668,277.938 872.635,280.315 898.602,282.669 924.57,285.003 950.537,287.319 976.504,289.618 1002.47,291.904 1028.44,294.177 1054.4,296.439 1080.37,298.691 1106.34,300.933 1132.31,303.168 1158.27,305.395 1184.24,307.615 1210.21,309.828 1236.17,312.036 1262.14,314.239 1288.11,316.438 1314.07,318.631 1340.04,320.821 1366.01,323.007 1391.98,325.19 1417.94,327.369 1443.91,329.546 1469.88,331.719 1495.84,333.89 1521.81,336.059 1547.78,338.225 1573.75,340.389 1599.71,342.552 1625.68,344.712 1651.65,346.87 1677.61,349.027 1703.58,351.181 1729.55,353.335 1755.51,355.486 1781.48,357.637 1807.45,359.786 1833.42,361.933 1859.38,364.08 1885.35,366.225 1911.32,368.369 1937.28,370.511 1963.25,372.653 1989.22,374.793 2015.18,376.933 2041.15,379.071 2067.12,381.208 2093.09,383.344 2119.05,385.48 2145.02,387.614 2170.99,389.748 2196.95,391.88 2222.92,394.012 2248.89,396.143 2274.85,398.273 2300.82,400.402 2326.79,402.53 2352.76,404.657 2378.72,406.784 2404.69,408.91 2430.66,411.035 2456.62,413.159 2482.59,415.283 2508.56,417.406 2534.53,419.528 2560.49,421.649 2586.46,423.77 2612.43,425.89 2638.39,428.009 2664.36,430.128 2690.33,432.246 2716.29,434.363 2742.26,436.48 2768.23,438.596 2794.2,440.711 2820.16,442.826 2846.13,444.94 2872.1,447.054 2898.06,449.166 2924.03,451.279 2950,453.39 2975.96,455.501 3001.93,457.612 3027.9,459.722 3053.87,461.831 3079.83,463.94 3105.8,466.048 3131.77,468.156 3157.73,470.263 3183.7,472.37 3209.67,474.476 3235.63,476.581 3261.6,478.686 3287.57,480.791 3313.54,482.895 3339.5,484.998 3365.47,487.101 3391.44,489.204 3417.4,491.306 3443.37,493.407 3469.34,495.508 3495.31,497.609 3521.27,499.709 3547.24,501.808 3573.21,503.908 3599.17,506.006 3625.14,508.105 3651.11,510.203 3677.07,512.3 3703.04,514.397 3729.01,516.493 3754.98,518.59 3780.94,520.685 3806.91,522.781 3832.88,524.876 3858.84,526.97 3884.81,529.064 3910.78,531.158 3936.74,533.251 3962.71,535.344 3988.68,537.437 4014.65,539.529 4040.61,541.621 4066.58,543.712 4092.55,545.803 4118.51,547.894 4144.48,549.984 4170.45,552.074 4196.41,554.164 4222.38,556.253 4248.35,558.342 4274.32,560.43 4300.28,562.519 4326.25,564.606 4352.22,566.694 4378.18,568.781 4404.15,570.868 4430.12,572.955 4456.08,575.041 4482.05,577.127 4508.02,579.213 4533.99,581.298 4559.95,583.383 4585.92,585.468 4611.89,587.552 4637.85,589.637 4663.82,591.721 4689.79,593.804 4715.76,595.887 4741.72,597.97 4767.69,600.053 4793.66,602.136 4819.62,604.218 4845.59,606.3 4871.56,608.382 4897.52,610.463 4923.49,612.544 4949.46,614.625 4975.43,616.706 5001.39,618.786 5027.36,620.866 5053.33,622.946 5079.29,625.026 5105.26,627.105 5131.23,629.184 5157.19,631.263 5183.16,633.342 5209.13,635.42 5235.1,637.499 5261.06,639.577 5287.03,641.654 5313,643.732 5338.96,645.809 5364.93,647.886 5390.9,649.963 5416.86,652.04 5442.83,654.116 5468.8,656.193 5494.77,658.269 5520.73,660.345 5546.7,662.42 5572.67,664.496 5598.63,666.571 5624.6,668.646 5650.57,670.721 5676.54,672.796 5702.5,674.87 5728.47,676.944 5754.44,679.018 5780.4,681.092 5806.37,683.166 5832.34,685.24 5858.3,687.313 5884.27,689.386 5910.24,691.459 5936.21,693.532 5962.17,695.605 5988.14,697.677 6014.11,699.75 6040.07,701.822 6066.04,703.894 6092.01,705.966 6117.97,708.037 6143.94,710.109 6169.91,712.18 6195.88,714.251 6221.84,716.322 6247.81,718.393 6273.78,720.464 6299.74,722.535 6325.71,724.605 6351.68,726.675 6377.64,728.746 6403.61,730.816 6429.58,732.885 6455.55,734.955 6481.51,737.025 6507.48,739.094 6533.45,741.163 6559.41,743.233 6585.38,745.302 6611.35,747.371 6637.32,749.439 6663.28,751.508 6689.25,753.576 6715.22,755.645 6741.18,757.713 6767.15,759.781 6793.12,761.849 6819.08,763.917 6845.05,765.985 6871.02,768.052 6896.99,770.12 6922.95,772.187 6948.92,774.255 6974.89,776.322 7000.85,778.389 7026.82,780.456 7052.79,782.523 7078.75,784.589 7104.72,786.656 7130.69,788.722 7156.66,790.789 7182.62,792.855 7208.59,794.921 7234.56,796.987 7260.52,799.053 7286.49,801.119 7312.46,803.185 7338.42,805.25 7364.39,807.316 7390.36,809.381 7416.33,811.447 7442.29,813.512 7468.26,815.577 7494.23,817.642 7520.19,819.707 7546.16,821.772 7572.13,823.837 7598.09,825.901 7624.06,827.966 7650.03,830.03 7676,832.095 7701.96,834.159 7727.93,836.223 7753.9,838.287 7779.86,840.351 7805.83,842.415 7831.8,844.479 7857.77,846.543 7883.73,848.607 7909.7,850.67 7935.67,852.734 7961.63,854.797 7987.6,856.861 8013.57,858.924 8039.53,860.987 8065.5,863.051 "/>
<polyline clip-path="url(#clip892)" style="stroke:#0000ff; stroke-linecap:round; stroke-linejoin:round; stroke-width:8; stroke-opacity:1; fill:none" points="275.394,85.9538 301.361,116.013 327.328,158.261 353.295,209.051 379.262,230.393 405.229,240.418 431.196,247.213 457.163,253.505 483.13,260.258 509.097,267.752 535.064,276.01 561.031,284.993 586.998,294.682 612.965,305.104 638.932,316.334 664.899,328.479 690.866,341.654 716.833,355.971 742.8,371.545 768.767,388.505 794.734,407.012 820.701,427.281 846.668,449.589 872.635,474.3 898.602,501.887 924.57,532.954 950.537,568.199 976.504,608.011 1002.47,650.599 1028.44,686.095 1054.4,694.707 1080.37,675.434 1106.34,679.058 1132.31,682.592 1158.27,687.023 1184.24,692.282 1210.21,698.315 1236.17,705.08 1262.14,712.551 1288.11,720.714 1314.07,729.576 1340.04,739.158 1366.01,749.5 1391.98,760.664 1417.94,772.726 1443.91,785.785 1469.88,799.955 1495.84,815.377 1521.81,832.214 1547.78,850.662 1573.75,870.958 1599.71,893.393 1625.68,918.32 1651.65,946.157 1677.61,977.342 1703.58,1012.12 1729.55,1049.78 1755.51,1086.41 1781.48,1111.73 1807.45,1115.06 1833.42,1117.91 1859.38,1120.75 1885.35,1124.38 1911.32,1128.79 1937.28,1133.95 1963.25,1139.89 1989.22,1146.6 2015.18,1154.1 2041.15,1162.42 2067.12,1171.58 2093.09,1181.62 2119.05,1192.59 2145.02,1204.54 2170.99,1217.53 2196.95,1231.65 2222.92,1246.97 2248.89,1263.61 2274.85,1281.68 2300.82,1301.31 2326.79,1322.66 2352.76,1345.87 2378.72,1371.05 2404.69,1398.15 2430.66,1426.78 2456.62,1455.71 2482.59,1482.23 2508.56,1502 2534.53,1511.24 2560.49,1514.05 2586.46,1516.86 2612.43,1520.47 2638.39,1524.86 2664.36,1530.02 2690.33,1535.98 2716.29,1542.73 2742.26,1550.29 2768.23,1558.7 2794.2,1567.98 2820.16,1578.16 2846.13,1589.29 2872.1,1601.41 2898.06,1614.6 2924.03,1628.91 2950,1644.43 2975.96,1661.26 3001.93,1679.5 3027.9,1699.27 3053.87,1720.69 3079.83,1743.84 3105.8,1768.76 3131.77,1795.27 3157.73,1822.77 3183.7,1849.83 3209.67,1873.75 3235.63,1890.91 3261.6,1898.84 3287.57,1901.69 3313.54,1904.54 3339.5,1908.19 3365.47,1912.63 3391.44,1917.87 3417.4,1923.91 3443.37,1930.76 3469.34,1938.45 3495.31,1946.99 3521.27,1956.42 3547.24,1966.77 3573.21,1978.1 3599.17,1990.45 3625.14,2003.88 3651.11,2018.48 3677.07,2034.32 3703.04,2051.5 3729.01,2070.14 3754.98,2090.35 3780.94,2112.25 3806.91,2135.91 3832.88,2161.32 3858.84,2188.22 3884.81,2215.8 3910.78,2242.31 3936.74,2264.66 3962.71,2279.32 3988.68,2281.87 4014.65,2284.42 4040.61,2287.68 4066.58,2291.66 4092.55,2296.34 4118.51,2301.72 4144.48,2307.82 4170.45,2314.65 4196.41,2322.22 4222.38,2330.56 4248.35,2339.69 4274.32,2349.65 4300.28,2360.47 4326.25,2372.2 4352.22,2384.88 4378.18,2398.6 4404.15,2413.41 4430.12,2429.42 4456.08,2446.72 4482.05,2465.43 4508.02,2485.71 4533.99,2507.69 4559.95,2531.53 4585.92,2557.3 4611.89,2584.93 4637.85,2613.83 4663.82,2642.42 4689.79,2667.35 4715.76,2683.85 4741.72,2688.88 4767.69,2692.09 4793.66,2695.31 4819.62,2699.44 4845.59,2704.48 4871.56,2710.44 4897.52,2717.33 4923.49,2725.19 4949.46,2734.06 4975.43,2743.97 5001.39,2755.01 5027.36,2767.23 5053.33,2780.75 5079.29,2795.68 5105.26,2812.18 5131.23,2830.45 5157.19,2850.74 5183.16,2873.4 5209.13,2898.89 5235.1,2927.87 5261.06,2961.23 5287.03,3000.26 5313,3046.52 5338.96,3100.27 5364.93,3150.54 5390.9,3160.56 5416.86,3162.9 5442.83,3165.24 5468.8,3168.23 5494.77,3171.88 5520.73,3176.17 5546.7,3181.11 5572.67,3186.71 5598.63,3192.97 5624.6,3199.93 5650.57,3207.58 5676.54,3215.97 5702.5,3225.11 5728.47,3235.05 5754.44,3245.83 5780.4,3257.51 5806.37,3270.14 5832.34,3283.8 5858.3,3298.59 5884.27,3314.61 5910.24,3332.02 5936.21,3350.99 5962.17,3371.74 5988.14,3394.55 6014.11,3419.75 6040.07,3447.77 6066.04,3478.99 6092.01,3513.56 6117.97,3550.43 6143.94,3584.92 6169.91,3606.12 6195.88,3605.15 6221.84,3608.41 6247.81,3611.66 6273.78,3615.85 6299.74,3620.97 6325.71,3627.01 6351.68,3634.01 6377.64,3642 6403.61,3651.02 6429.58,3661.11 6455.55,3672.36 6481.51,3684.84 6507.48,3698.67 6533.45,3713.98 6559.41,3730.95 6585.38,3749.82 6611.35,3770.88 6637.32,3794.57 6663.28,3821.5 6689.25,3852.56 6715.22,3889.2 6741.18,3933.85 6767.15,3991.14 6793.12,4070.33 6819.08,4171.13 6845.05,4140.31 6871.02,4143.08 6896.99,4145.84 6922.95,4149.39 6948.92,4153.7 6974.89,4158.79 7000.85,4164.65 7026.82,4171.29 7052.79,4178.74 7078.75,4187.01 7104.72,4196.14 7130.69,4206.15 7156.66,4217.08 7182.62,4228.99 7208.59,4241.92 7234.56,4255.94 7260.52,4271.12 7286.49,4287.55 7312.46,4305.32 7338.42,4324.55 7364.39,4345.35 7390.36,4367.81 7416.33,4391.96 7442.29,4417.7 7468.26,4444.57 7494.23,4471.49 7520.19,4496.26 7546.16,4515.65 7572.13,4526.73 7598.09,4529.54 7624.06,4532.34 7650.03,4535.94 7676,4540.34 7701.96,4545.53 7727.93,4551.48 7753.9,4558.22 7779.86,4565.79 7805.83,4574.21 7831.8,4583.48 7857.77,4593.64 7883.73,4604.77 7909.7,4616.91 7935.67,4630.12 7961.63,4644.44 7987.6,4659.99 8013.57,4676.86 8039.53,4695.18 8065.5,4715.02 8091.47,4736.47 8117.44,4759.66 8143.4,4784.63 8169.37,4810.97 8195.34,4838.34 8221.3,4865.25 8247.27,4888.47 8273.24,4903.51 8299.2,4910.24 8325.17,4913.28 8351.14,4916.3 8377.11,4919.9 8403.07,4924.3 8429.04,4930.03 8455.01,4935.4 8480.97,4941.15 8506.94,4947.23 8532.91,4954.23 8558.87,4961.58 8584.84,4970.45 8610.81,4979.95 8636.78,4990.72 8662.74,5002.39 8688.71,5014 8714.68,5026.39 8740.64,5040.69 8766.61,5056.44 8792.58,5073.92 8818.55,5090.65 8844.51,5106.97 8870.48,5126.28 8896.45,5146.06 8922.41,5167.29 8948.38,5189.94 8974.35,5218.44 9000.31,5243.7 9026.28,5261.27 9052.25,5262.08 9078.22,5263.03 9104.18,5264.97 9130.15,5267.1 9156.12,5269.39 9182.08,5273.17 9208.05,5276.91 9234.02,5280.63 9259.98,5284.21 9285.95,5286.5 9311.92,5289.81 9337.89,5294.48 9363.85,5297.67 9389.82,5305.86 9415.79,5311.42 9441.75,5316.95 9467.72,5322.12 9493.69,5327.07 9519.65,5331.67 9545.62,5335.74 9571.59,5338.88 9597.56,5340.65 9623.52,5341.24 9649.49,5340.52 9675.46,5338.97 9701.42,5336.53 9727.39,5336.53 9753.36,5336.53 9779.33,5336.53 9805.29,5336.53 9831.26,5336.53 9857.23,5336.53 9883.19,5336.53 9909.16,5336.53 9935.13,5336.53 9961.09,5336.53 9987.06,5336.53 10013,5336.53 10039,5336.53 10065,5336.53 10090.9,5336.53 10116.9,5336.53 10142.9,5336.53 10168.8,5336.53 10194.8,5336.53 10220.8,5336.53 10246.7,5336.53 10272.7,5336.53 10298.7,5336.53 10324.6,5336.53 10350.6,5336.53 10376.6,5336.53 10402.5,5336.53 10428.5,5336.53 10454.5,5336.53 10480.4,5336.53 10506.4,5336.53 10532.4,5336.53 10558.3,5336.53 10584.3,5336.53 10610.3,5336.53 10636.2,5336.53 10662.2,5336.53 10688.2,5336.53 10714.1,5336.53 10740.1,5336.53 10766.1,5336.53 10792,5336.53 10818,5336.53 10844,5336.53 10869.9,5336.53 10895.9,5336.53 10921.9,5336.53 10947.8,5336.53 10973.8,5336.53 10999.8,5336.53 11025.7,5336.53 11051.7,5336.53 11077.7,5336.53 11103.6,5336.53 11129.6,5336.53 11155.6,5336.53 11181.5,5336.53 11207.5,5336.53 11233.5,5336.53 11259.4,5336.53 11285.4,5336.53 11311.4,5336.53 11337.3,5336.53 11363.3,5336.53 11389.3,5336.53 11415.2,5336.53 11441.2,5336.53 11467.2,5336.53 11493.1,5336.53 11519.1,5336.53 11545.1,5336.53 11571,5336.53 11597,5336.53 11623,5336.53 11649,5336.53 11674.9,5336.53 11700.9,5336.53 11726.9,5336.53 11752.8,5336.53 11778.8,5336.53 11804.8,5336.53 11830.7,5336.53 11856.7,5336.53 11882.7,5336.53 11908.6,5336.53 11934.6,5336.53 11960.6,5336.53 11986.5,5336.53 12012.5,5336.53 12038.5,5336.53 12064.4,5336.53 12090.4,5336.53 12116.4,5336.53 12142.3,5336.53 12168.3,5336.53 12194.3,5336.53 12220.2,5336.53 12246.2,5336.53 12272.2,5336.53 12298.1,5336.53 12324.1,5336.53 12350.1,5336.53 12376,5336.53 12402,5336.53 12428,5336.53 12453.9,5336.53 12479.9,5336.53 12505.9,5336.53 12531.8,5336.53 12557.8,5336.53 12583.8,5336.53 12609.7,5336.53 12635.7,5336.53 12661.7,5336.53 12687.6,5336.53 12713.6,5336.53 12739.6,5336.53 12765.5,5336.53 12791.5,5336.53 12817.5,5336.53 12843.4,5336.53 12869.4,5336.53 12895.4,5336.53 12921.3,5336.53 12947.3,5336.53 12973.3,5336.53 12999.2,5336.53 13025.2,5336.53 13051.2,5336.53 13077.1,5336.53 13103.1,5336.53 13129.1,5336.53 13155,5336.53 13181,5336.53 13207,5336.53 13232.9,5336.53 13258.9,5336.53 "/>
<polyline clip-path="url(#clip892)" style="stroke:#ff0000; stroke-linecap:round; stroke-linejoin:round; stroke-width:8; stroke-opacity:1; fill:none" points="275.394,85.9538 301.361,136.776 327.328,210.13 353.295,235.03 379.262,240.781 405.229,243.792 431.196,248.527 457.163,254.72 483.13,262.213 509.097,270.895 535.064,280.698 561.031,291.59 586.998,303.6 612.965,316.84 638.932,331.531 664.899,347.991 690.866,366.608 716.833,387.812 742.8,412.084 768.767,440.021 794.734,472.469 820.701,510.736 846.668,556.921 872.635,614.096 898.602,682.442 924.57,726.377 950.537,730.03 976.504,735.816 1002.47,743.436 1028.44,752.713 1054.4,763.548 1080.37,775.933 1106.34,789.958 1132.31,805.82 1158.27,823.818 1184.24,844.359 1210.21,867.964 1236.17,895.316 1262.14,927.344 1288.11,965.39 1314.07,1011.47 1340.04,1068.41 1366.01,1136.42 1391.98,1185.32 1417.94,1188.38 1443.91,1193.28 1469.88,1199.79 1495.84,1207.8 1521.81,1217.27 1547.78,1228.2 1573.75,1240.65 1599.71,1254.73 1625.68,1270.63 1651.65,1288.53 1677.61,1308.69 1703.58,1331.4 1729.55,1356.98 1755.51,1385.81 1781.48,1418.26 1807.45,1454.52 1833.42,1493.94 1859.38,1533.24 1885.35,1563.61 1911.32,1574.52 1937.28,1577.61 1963.25,1582.64 1989.22,1589.48 2015.18,1598.1 2041.15,1608.56 2067.12,1620.91 2093.09,1635.29 2119.05,1651.86 2145.02,1670.83 2170.99,1692.53 2196.95,1717.33 2222.92,1745.75 2248.89,1778.44 2274.85,1816.14 2300.82,1859.26 2326.79,1906.08 2352.76,1947.07 2378.72,1962.95 2404.69,1965.48 2430.66,1969.59 2456.62,1975.17 2482.59,1982.21 2508.56,1990.71 2534.53,2000.72 2560.49,2012.28 2586.46,2025.48 2612.43,2040.42 2638.39,2057.24 2664.36,2076.11 2690.33,2097.24 2716.29,2120.93 2742.26,2147.52 2768.23,2177.43 2794.2,2211.12 2820.16,2248.82 2846.13,2289.7 2872.1,2329.28 2898.06,2356.15 2924.03,2360.02 2950,2363.28 2975.96,2368.59 3001.93,2375.86 3027.9,2385.1 3053.87,2396.39 3079.83,2409.86 3105.8,2425.69 3131.77,2444.15 3157.73,2465.62 3183.7,2490.63 3209.67,2519.98 3235.63,2554.93 3261.6,2597.62 3287.57,2652.09 3313.54,2727.46 3339.5,2848.7 3365.47,2912.09 3391.44,2914.71 3417.4,2918.95 3443.37,2924.72 3469.34,2932.02 3495.31,2940.84 3521.27,2951.25 3547.24,2963.28 3573.21,2977.05 3599.17,2992.65 3625.14,3010.24 3651.11,3030 3677.07,3052.17 3703.04,3077.04 3729.01,3104.97 3754.98,3136.34 3780.94,3171.43 3806.91,3209.95 3832.88,3249.55 3858.84,3283.04 3884.81,3299.24 3910.78,3302.26 3936.74,3307.16 3962.71,3313.84 3988.68,3322.32 4014.65,3332.62 4040.61,3344.83 4066.58,3359.07 4092.55,3375.49 4118.51,3394.29 4144.48,3415.77 4170.45,3440.27 4196.41,3468.25 4222.38,3500.3 4248.35,3537.03 4274.32,3578.7 4300.28,3623.58 4326.25,3663.34 4352.22,3681.33 4378.18,3683.8 4404.15,3687.83 4430.12,3693.31 4456.08,3700.22 4482.05,3708.58 4508.02,3718.42 4533.99,3729.81 4559.95,3742.8 4585.92,3757.51 4611.89,3774.07 4637.85,3792.65 4663.82,3813.46 4689.79,3836.79 4715.76,3863 4741.72,3892.53 4767.69,3925.9 4793.66,3963.54 4819.62,4005.06 4845.59,4046.85 4871.56,4077.69 4897.52,4084.16 4923.49,4087.42 4949.46,4092.73 4975.43,4099.99 5001.39,4109.23 5027.36,4120.51 5053.33,4133.98 5079.29,4149.8 5105.26,4168.26 5131.23,4189.72 5157.19,4214.72 5183.16,4244.05 5209.13,4278.97 5235.1,4321.58 5261.06,4375.91 5287.03,4450.92 5313,4570.49 5338.96,4632.65 5364.93,4635.22 5390.9,4639.38 5416.86,4645.05 5442.83,4652.24 5468.8,4660.94 5494.77,4671.15 5520.73,4683.02 5546.7,4696.57 5572.67,4711.89 5598.63,4729.02 5624.6,4748.29 5650.57,4769.98 5676.54,4794.24 5702.5,4821.49 5728.47,4852 5754.44,4886.27 5780.4,4923.99 5806.37,4963.36 5832.34,4997.36 5858.3,5017.37 5884.27,5019.44 5910.24,5023.96 5936.21,5029.82 5962.17,5037.22 5988.14,5046.03 6014.11,5055.96 6040.07,5068.28 6066.04,5081.53 6092.01,5097.9 6117.97,5116.41 6143.94,5140.24 6169.91,5167.42 6195.88,5193.93 6221.84,5218.61 6247.81,5239.86 6273.78,5256.19 6299.74,5271.57 6325.71,5285.97 6351.68,5298.61 6377.64,5309.47 6403.61,5310.65 6429.58,5312.58 6455.55,5314.86 6481.51,5316.52 6507.48,5319.93 6533.45,5322.11 6559.41,5322.41 6585.38,5323.02 6611.35,5323.57 6637.32,5324.05 6663.28,5324.47 6689.25,5326.26 6715.22,5329.64 6741.18,5332.38 6767.15,5332.07 6793.12,5331.61 6819.08,5332.07 6845.05,5331.45 6871.02,5332.07 6896.99,5331.45 6922.95,5332.07 6948.92,5331.45 6974.89,5332.07 7000.85,5331.45 7026.82,5332.07 7052.79,5331.45 7078.75,5332.07 7104.72,5331.45 7130.69,5332.07 7156.66,5331.45 7182.62,5332.07 7208.59,5331.45 7234.56,5332.07 7260.52,5331.45 7286.49,5332.07 7312.46,5331.45 7338.42,5332.07 7364.39,5331.45 7390.36,5332.07 7416.33,5331.45 7442.29,5332.07 7468.26,5331.45 7494.23,5332.07 7520.19,5331.45 7546.16,5332.07 7572.13,5331.45 7598.09,5332.07 7624.06,5331.45 7650.03,5332.07 7676,5331.45 7701.96,5332.07 7727.93,5331.45 7753.9,5332.07 7779.86,5331.45 7805.83,5332.07 7831.8,5331.45 7857.77,5332.07 7883.73,5331.45 7909.7,5332.07 7935.67,5331.45 7961.63,5332.07 7987.6,5331.45 8013.57,5332.07 8039.53,5331.45 8065.5,5332.07 8091.47,5331.45 8117.44,5332.07 8143.4,5331.45 8169.37,5332.07 8195.34,5331.45 8221.3,5332.07 8247.27,5331.45 8273.24,5332.07 8299.2,5331.45 8325.17,5332.07 8351.14,5331.45 8377.11,5332.07 8403.07,5331.45 8429.04,5332.07 8455.01,5331.45 8480.97,5332.07 8506.94,5331.45 8532.91,5332.07 8558.87,5331.45 8584.84,5332.07 8610.81,5331.45 8636.78,5332.07 8662.74,5331.45 8688.71,5332.07 8714.68,5331.45 8740.64,5332.07 8766.61,5331.45 8792.58,5332.07 8818.55,5331.45 8844.51,5332.07 8870.48,5331.45 8896.45,5332.07 8922.41,5331.45 8948.38,5332.07 8974.35,5331.45 9000.31,5332.07 9026.28,5331.45 9052.25,5332.07 9078.22,5331.45 9104.18,5332.07 9130.15,5331.45 9156.12,5332.07 9182.08,5331.45 9208.05,5332.07 9234.02,5331.45 9259.98,5332.07 9285.95,5331.45 9311.92,5332.07 9337.89,5331.45 9363.85,5332.07 9389.82,5331.45 9415.79,5332.07 9441.75,5331.45 9467.72,5332.07 9493.69,5331.45 9519.65,5332.07 9545.62,5331.45 9571.59,5332.07 9597.56,5331.45 9623.52,5332.07 9649.49,5331.45 9675.46,5332.07 9701.42,5331.45 9727.39,5332.07 9753.36,5331.45 9779.33,5332.07 9805.29,5331.45 9831.26,5332.07 9857.23,5331.45 9883.19,5332.07 9909.16,5331.45 9935.13,5332.07 9961.09,5331.45 9987.06,5332.07 10013,5331.45 10039,5332.07 10065,5331.45 10090.9,5332.07 10116.9,5331.45 10142.9,5332.07 10168.8,5331.45 10194.8,5332.07 10220.8,5331.45 10246.7,5332.07 10272.7,5331.45 10298.7,5332.07 10324.6,5331.45 10350.6,5332.07 10376.6,5331.45 10402.5,5332.07 10428.5,5331.45 10454.5,5332.07 10480.4,5331.45 10506.4,5332.07 10532.4,5331.45 10558.3,5332.07 10584.3,5331.45 10610.3,5332.07 10636.2,5331.45 10662.2,5332.07 10688.2,5331.45 10714.1,5332.07 10740.1,5331.45 10766.1,5332.07 10792,5331.45 10818,5332.07 10844,5331.45 10869.9,5332.07 10895.9,5331.45 10921.9,5332.07 10947.8,5331.45 10973.8,5332.07 10999.8,5331.45 11025.7,5332.07 11051.7,5331.45 11077.7,5332.07 11103.6,5331.45 11129.6,5332.07 11155.6,5331.45 11181.5,5332.07 11207.5,5331.45 11233.5,5332.07 11259.4,5331.45 11285.4,5332.07 11311.4,5331.45 11337.3,5332.07 11363.3,5331.45 11389.3,5332.07 11415.2,5331.45 11441.2,5332.07 11467.2,5331.45 11493.1,5332.07 11519.1,5331.45 11545.1,5332.07 11571,5331.45 11597,5332.07 11623,5331.45 11649,5332.07 11674.9,5331.45 11700.9,5332.07 11726.9,5331.45 11752.8,5332.07 11778.8,5331.45 11804.8,5332.07 11830.7,5331.45 11856.7,5332.07 11882.7,5331.45 11908.6,5332.07 11934.6,5331.45 11960.6,5332.07 11986.5,5331.45 12012.5,5332.07 12038.5,5331.45 12064.4,5332.07 12090.4,5331.45 12116.4,5332.07 12142.3,5331.45 12168.3,5332.07 12194.3,5331.45 12220.2,5332.07 12246.2,5331.45 12272.2,5332.07 12298.1,5331.45 12324.1,5332.07 12350.1,5331.45 12376,5332.07 12402,5331.45 12428,5332.07 12453.9,5331.45 12479.9,5332.07 12505.9,5331.45 12531.8,5332.07 12557.8,5331.45 12583.8,5332.07 12609.7,5331.45 12635.7,5332.07 12661.7,5331.45 12687.6,5332.07 12713.6,5331.45 12739.6,5332.07 12765.5,5331.45 12791.5,5332.07 12817.5,5331.45 12843.4,5332.07 12869.4,5331.45 12895.4,5332.07 12921.3,5331.45 12947.3,5332.07 12973.3,5331.45 12999.2,5332.07 13025.2,5331.45 13051.2,5332.07 13077.1,5331.45 13103.1,5332.07 13129.1,5331.45 13155,5332.07 13181,5331.45 13207,5332.07 13232.9,5331.45 13258.9,5332.07 "/>
<circle clip-path="url(#clip892)" cx="1106.34" cy="679.058" r="21.6" fill="#0000ff" fill-rule="evenodd" fill-opacity="1" stroke="none"/>
<circle clip-path="url(#clip892)" cx="1833.42" cy="1117.91" r="21.6" fill="#0000ff" fill-rule="evenodd" fill-opacity="1" stroke="none"/>
<circle clip-path="url(#clip892)" cx="405.229" cy="243.792" r="21.6" fill="#ff0000" fill-rule="evenodd" fill-opacity="1" stroke="none"/>
<circle clip-path="url(#clip892)" cx="950.537" cy="730.03" r="21.6" fill="#ff0000" fill-rule="evenodd" fill-opacity="1" stroke="none"/>
<circle clip-path="url(#clip892)" cx="1417.94" cy="1188.38" r="21.6" fill="#ff0000" fill-rule="evenodd" fill-opacity="1" stroke="none"/>
<path clip-path="url(#clip890)" d="M874.427 558.085 L2283.51 558.085 L2283.51 91.5246 L874.427 91.5246  Z" fill="#ffffff" fill-rule="evenodd" fill-opacity="1"/>
<polyline clip-path="url(#clip890)" style="stroke:#000000; stroke-linecap:round; stroke-linejoin:round; stroke-width:4; stroke-opacity:1; fill:none" points="874.427,558.085 2283.51,558.085 2283.51,91.5246 874.427,91.5246 874.427,558.085 "/>
<polyline clip-path="url(#clip890)" style="stroke:#008000; stroke-linecap:round; stroke-linejoin:round; stroke-width:18; stroke-opacity:1; fill:none" points="897.508,208.165 1036,208.165 "/>
<path clip-path="url(#clip890)" d="M1116.58 235.951 L1116.58 215.066 L1099.39 215.066 L1099.39 206.42 L1127 206.42 L1127 239.805 Q1120.9 244.128 1113.56 246.368 Q1106.22 248.555 1097.88 248.555 Q1079.65 248.555 1069.34 237.93 Q1059.08 227.253 1059.08 208.243 Q1059.08 189.18 1069.34 178.555 Q1079.65 167.878 1097.88 167.878 Q1105.49 167.878 1112.31 169.753 Q1119.18 171.628 1124.97 175.274 L1124.97 186.472 Q1119.13 181.524 1112.57 179.024 Q1106.01 176.524 1098.77 176.524 Q1084.5 176.524 1077.31 184.493 Q1070.17 192.462 1070.17 208.243 Q1070.17 223.972 1077.31 231.941 Q1084.5 239.909 1098.77 239.909 Q1104.34 239.909 1108.72 238.972 Q1113.09 237.982 1116.58 235.951 Z" fill="#000000" fill-rule="nonzero" fill-opacity="1" /><path clip-path="url(#clip890)" d="M1156.74 177.93 L1156.74 238.399 L1169.44 238.399 Q1185.54 238.399 1192.99 231.107 Q1200.49 223.816 1200.49 208.086 Q1200.49 192.462 1192.99 185.222 Q1185.54 177.93 1169.44 177.93 L1156.74 177.93 M1146.22 169.285 L1167.83 169.285 Q1190.43 169.285 1201.01 178.712 Q1211.58 188.087 1211.58 208.086 Q1211.58 228.191 1200.96 237.618 Q1190.33 247.045 1167.83 247.045 L1146.22 247.045 L1146.22 169.285 Z" fill="#000000" fill-rule="nonzero" fill-opacity="1" /><polyline clip-path="url(#clip890)" style="stroke:#0000ff; stroke-linecap:round; stroke-linejoin:round; stroke-width:18; stroke-opacity:1; fill:none" points="897.508,324.805 1036,324.805 "/>
<path clip-path="url(#clip890)" d="M1059.08 285.925 L1073.25 285.925 L1107.73 350.976 L1107.73 285.925 L1117.93 285.925 L1117.93 363.685 L1103.77 363.685 L1069.29 298.633 L1069.29 363.685 L1059.08 363.685 L1059.08 285.925 Z" fill="#000000" fill-rule="nonzero" fill-opacity="1" /><path clip-path="url(#clip890)" d="M1188.35 332.122 L1188.35 336.81 L1144.29 336.81 Q1144.91 346.706 1150.23 351.914 Q1155.59 357.07 1165.12 357.07 Q1170.64 357.07 1175.8 355.716 Q1181.01 354.362 1186.11 351.653 L1186.11 360.716 Q1180.96 362.903 1175.54 364.049 Q1170.12 365.195 1164.55 365.195 Q1150.59 365.195 1142.41 357.07 Q1134.29 348.945 1134.29 335.091 Q1134.29 320.768 1142 312.383 Q1149.76 303.945 1162.88 303.945 Q1174.65 303.945 1181.48 311.549 Q1188.35 319.102 1188.35 332.122 M1178.77 329.31 Q1178.66 321.445 1174.34 316.758 Q1170.07 312.07 1162.99 312.07 Q1154.97 312.07 1150.12 316.602 Q1145.33 321.133 1144.6 329.362 L1178.77 329.31 Z" fill="#000000" fill-rule="nonzero" fill-opacity="1" /><path clip-path="url(#clip890)" d="M1241.27 307.07 L1241.27 316.133 Q1237.21 314.049 1232.83 313.008 Q1228.46 311.966 1223.77 311.966 Q1216.63 311.966 1213.04 314.154 Q1209.5 316.341 1209.5 320.716 Q1209.5 324.049 1212.05 325.976 Q1214.6 327.851 1222.31 329.57 L1225.59 330.299 Q1235.8 332.487 1240.07 336.497 Q1244.39 340.456 1244.39 347.591 Q1244.39 355.716 1237.93 360.455 Q1231.53 365.195 1220.28 365.195 Q1215.59 365.195 1210.49 364.258 Q1205.43 363.372 1199.81 361.549 L1199.81 351.653 Q1205.12 354.414 1210.28 355.82 Q1215.43 357.174 1220.49 357.174 Q1227.26 357.174 1230.9 354.883 Q1234.55 352.539 1234.55 348.32 Q1234.55 344.414 1231.89 342.331 Q1229.29 340.247 1220.38 338.32 L1217.05 337.539 Q1208.14 335.664 1204.18 331.81 Q1200.23 327.904 1200.23 321.133 Q1200.23 312.904 1206.06 308.424 Q1211.89 303.945 1222.62 303.945 Q1227.93 303.945 1232.62 304.727 Q1237.31 305.508 1241.27 307.07 Z" fill="#000000" fill-rule="nonzero" fill-opacity="1" /><path clip-path="url(#clip890)" d="M1269.13 288.789 L1269.13 305.352 L1288.87 305.352 L1288.87 312.799 L1269.13 312.799 L1269.13 344.466 Q1269.13 351.601 1271.06 353.633 Q1273.04 355.664 1279.03 355.664 L1288.87 355.664 L1288.87 363.685 L1279.03 363.685 Q1267.93 363.685 1263.72 359.57 Q1259.5 355.403 1259.5 344.466 L1259.5 312.799 L1252.47 312.799 L1252.47 305.352 L1259.5 305.352 L1259.5 288.789 L1269.13 288.789 Z" fill="#000000" fill-rule="nonzero" fill-opacity="1" /><path clip-path="url(#clip890)" d="M1351.37 332.122 L1351.37 336.81 L1307.31 336.81 Q1307.93 346.706 1313.25 351.914 Q1318.61 357.07 1328.14 357.07 Q1333.66 357.07 1338.82 355.716 Q1344.03 354.362 1349.13 351.653 L1349.13 360.716 Q1343.98 362.903 1338.56 364.049 Q1333.14 365.195 1327.57 365.195 Q1313.61 365.195 1305.43 357.07 Q1297.31 348.945 1297.31 335.091 Q1297.31 320.768 1305.02 312.383 Q1312.78 303.945 1325.9 303.945 Q1337.67 303.945 1344.5 311.549 Q1351.37 319.102 1351.37 332.122 M1341.79 329.31 Q1341.68 321.445 1337.36 316.758 Q1333.09 312.07 1326.01 312.07 Q1317.99 312.07 1313.14 316.602 Q1308.35 321.133 1307.62 329.362 L1341.79 329.31 Z" fill="#000000" fill-rule="nonzero" fill-opacity="1" /><path clip-path="url(#clip890)" d="M1400.9 314.31 Q1399.29 313.372 1397.36 312.956 Q1395.49 312.487 1393.19 312.487 Q1385.07 312.487 1380.69 317.799 Q1376.37 323.06 1376.37 332.956 L1376.37 363.685 L1366.74 363.685 L1366.74 305.352 L1376.37 305.352 L1376.37 314.414 Q1379.39 309.102 1384.24 306.55 Q1389.08 303.945 1396.01 303.945 Q1397 303.945 1398.19 304.102 Q1399.39 304.206 1400.85 304.466 L1400.9 314.31 Z" fill="#000000" fill-rule="nonzero" fill-opacity="1" /><path clip-path="url(#clip890)" d="M1431.21 312.07 Q1423.51 312.07 1419.03 318.112 Q1414.55 324.101 1414.55 334.57 Q1414.55 345.039 1418.97 351.081 Q1423.45 357.07 1431.21 357.07 Q1438.87 357.07 1443.35 351.028 Q1447.83 344.987 1447.83 334.57 Q1447.83 324.206 1443.35 318.164 Q1438.87 312.07 1431.21 312.07 M1431.21 303.945 Q1443.71 303.945 1450.85 312.07 Q1457.99 320.195 1457.99 334.57 Q1457.99 348.893 1450.85 357.07 Q1443.71 365.195 1431.21 365.195 Q1418.66 365.195 1411.53 357.07 Q1404.44 348.893 1404.44 334.57 Q1404.44 320.195 1411.53 312.07 Q1418.66 303.945 1431.21 303.945 Z" fill="#000000" fill-rule="nonzero" fill-opacity="1" /><path clip-path="url(#clip890)" d="M1467 305.352 L1477.15 305.352 L1495.38 354.31 L1513.61 305.352 L1523.77 305.352 L1501.89 363.685 L1488.87 363.685 L1467 305.352 Z" fill="#000000" fill-rule="nonzero" fill-opacity="1" /><path clip-path="url(#clip890)" d="M1571.32 285.925 L1616.01 285.925 L1616.01 294.779 L1581.84 294.779 L1581.84 317.695 L1612.67 317.695 L1612.67 326.549 L1581.84 326.549 L1581.84 363.685 L1571.32 363.685 L1571.32 285.925 Z" fill="#000000" fill-rule="nonzero" fill-opacity="1" /><path clip-path="url(#clip890)" d="M1685.69 352.591 L1685.69 331.706 L1668.5 331.706 L1668.5 323.06 L1696.11 323.06 L1696.11 356.445 Q1690.02 360.768 1682.67 363.008 Q1675.33 365.195 1666.99 365.195 Q1648.77 365.195 1638.45 354.57 Q1628.19 343.893 1628.19 324.883 Q1628.19 305.82 1638.45 295.195 Q1648.77 284.518 1666.99 284.518 Q1674.6 284.518 1681.42 286.393 Q1688.3 288.268 1694.08 291.914 L1694.08 303.112 Q1688.24 298.164 1681.68 295.664 Q1675.12 293.164 1667.88 293.164 Q1653.61 293.164 1646.42 301.133 Q1639.29 309.102 1639.29 324.883 Q1639.29 340.612 1646.42 348.581 Q1653.61 356.549 1667.88 356.549 Q1673.45 356.549 1677.83 355.612 Q1682.2 354.622 1685.69 352.591 Z" fill="#000000" fill-rule="nonzero" fill-opacity="1" /><path clip-path="url(#clip890)" d="M1715.33 285.925 L1731 285.925 L1750.85 338.841 L1770.8 285.925 L1786.47 285.925 L1786.47 363.685 L1776.21 363.685 L1776.21 295.404 L1756.16 348.737 L1745.59 348.737 L1725.54 295.404 L1725.54 363.685 L1715.33 363.685 L1715.33 285.925 Z" fill="#000000" fill-rule="nonzero" fill-opacity="1" /><path clip-path="url(#clip890)" d="M1863.87 282.748 Q1856.89 294.727 1853.5 306.445 Q1850.12 318.164 1850.12 330.195 Q1850.12 342.226 1853.5 354.049 Q1856.94 365.82 1863.87 377.747 L1855.54 377.747 Q1847.72 365.508 1843.82 353.685 Q1839.96 341.862 1839.96 330.195 Q1839.96 318.581 1843.82 306.81 Q1847.67 295.039 1855.54 282.748 L1863.87 282.748 Z" fill="#000000" fill-rule="nonzero" fill-opacity="1" /><path clip-path="url(#clip890)" d="M1916.26 314.31 Q1914.65 313.372 1912.72 312.956 Q1910.85 312.487 1908.56 312.487 Q1900.43 312.487 1896.06 317.799 Q1891.73 323.06 1891.73 332.956 L1891.73 363.685 L1882.1 363.685 L1882.1 305.352 L1891.73 305.352 L1891.73 314.414 Q1894.75 309.102 1899.6 306.55 Q1904.44 303.945 1911.37 303.945 Q1912.36 303.945 1913.56 304.102 Q1914.75 304.206 1916.21 304.466 L1916.26 314.31 Z" fill="#000000" fill-rule="nonzero" fill-opacity="1" /><path clip-path="url(#clip890)" d="M1973.87 332.122 L1973.87 336.81 L1929.81 336.81 Q1930.43 346.706 1935.74 351.914 Q1941.11 357.07 1950.64 357.07 Q1956.16 357.07 1961.32 355.716 Q1966.52 354.362 1971.63 351.653 L1971.63 360.716 Q1966.47 362.903 1961.06 364.049 Q1955.64 365.195 1950.07 365.195 Q1936.11 365.195 1927.93 357.07 Q1919.81 348.945 1919.81 335.091 Q1919.81 320.768 1927.51 312.383 Q1935.27 303.945 1948.4 303.945 Q1960.17 303.945 1966.99 311.549 Q1973.87 319.102 1973.87 332.122 M1964.28 329.31 Q1964.18 321.445 1959.86 316.758 Q1955.59 312.07 1948.5 312.07 Q1940.48 312.07 1935.64 316.602 Q1930.85 321.133 1930.12 329.362 L1964.28 329.31 Z" fill="#000000" fill-rule="nonzero" fill-opacity="1" /><path clip-path="url(#clip890)" d="M2026.78 307.07 L2026.78 316.133 Q2022.72 314.049 2018.35 313.008 Q2013.97 311.966 2009.28 311.966 Q2002.15 311.966 1998.56 314.154 Q1995.01 316.341 1995.01 320.716 Q1995.01 324.049 1997.57 325.976 Q2000.12 327.851 2007.83 329.57 L2011.11 330.299 Q2021.32 332.487 2025.59 336.497 Q2029.91 340.456 2029.91 347.591 Q2029.91 355.716 2023.45 360.455 Q2017.04 365.195 2005.79 365.195 Q2001.11 365.195 1996 364.258 Q1990.95 363.372 1985.33 361.549 L1985.33 351.653 Q1990.64 354.414 1995.79 355.82 Q2000.95 357.174 2006 357.174 Q2012.77 357.174 2016.42 354.883 Q2020.07 352.539 2020.07 348.32 Q2020.07 344.414 2017.41 342.331 Q2014.81 340.247 2005.9 338.32 L2002.57 337.539 Q1993.66 335.664 1989.7 331.81 Q1985.74 327.904 1985.74 321.133 Q1985.74 312.904 1991.58 308.424 Q1997.41 303.945 2008.14 303.945 Q2013.45 303.945 2018.14 304.727 Q2022.83 305.508 2026.78 307.07 Z" fill="#000000" fill-rule="nonzero" fill-opacity="1" /><path clip-path="url(#clip890)" d="M2054.65 288.789 L2054.65 305.352 L2074.39 305.352 L2074.39 312.799 L2054.65 312.799 L2054.65 344.466 Q2054.65 351.601 2056.58 353.633 Q2058.55 355.664 2064.54 355.664 L2074.39 355.664 L2074.39 363.685 L2064.54 363.685 Q2053.45 363.685 2049.23 359.57 Q2045.01 355.403 2045.01 344.466 L2045.01 312.799 L2037.98 312.799 L2037.98 305.352 L2045.01 305.352 L2045.01 288.789 L2054.65 288.789 Z" fill="#000000" fill-rule="nonzero" fill-opacity="1" /><path clip-path="url(#clip890)" d="M2113.5 334.362 Q2101.89 334.362 2097.41 337.018 Q2092.93 339.674 2092.93 346.081 Q2092.93 351.185 2096.26 354.206 Q2099.65 357.174 2105.43 357.174 Q2113.4 357.174 2118.19 351.549 Q2123.03 345.872 2123.03 336.497 L2123.03 334.362 L2113.5 334.362 M2132.62 330.404 L2132.62 363.685 L2123.03 363.685 L2123.03 354.831 Q2119.75 360.143 2114.86 362.695 Q2109.96 365.195 2102.88 365.195 Q2093.92 365.195 2088.61 360.195 Q2083.35 355.143 2083.35 346.706 Q2083.35 336.862 2089.91 331.862 Q2096.52 326.862 2109.6 326.862 L2123.03 326.862 L2123.03 325.924 Q2123.03 319.31 2118.66 315.716 Q2114.34 312.07 2106.47 312.07 Q2101.47 312.07 2096.73 313.268 Q2091.99 314.466 2087.62 316.862 L2087.62 308.008 Q2092.88 305.977 2097.83 304.987 Q2102.77 303.945 2107.46 303.945 Q2120.12 303.945 2126.37 310.508 Q2132.62 317.07 2132.62 330.404 Z" fill="#000000" fill-rule="nonzero" fill-opacity="1" /><path clip-path="url(#clip890)" d="M2186.16 314.31 Q2184.54 313.372 2182.62 312.956 Q2180.74 312.487 2178.45 312.487 Q2170.33 312.487 2165.95 317.799 Q2161.63 323.06 2161.63 332.956 L2161.63 363.685 L2151.99 363.685 L2151.99 305.352 L2161.63 305.352 L2161.63 314.414 Q2164.65 309.102 2169.49 306.55 Q2174.34 303.945 2181.26 303.945 Q2182.25 303.945 2183.45 304.102 Q2184.65 304.206 2186.11 304.466 L2186.16 314.31 Z" fill="#000000" fill-rule="nonzero" fill-opacity="1" /><path clip-path="url(#clip890)" d="M2205.69 288.789 L2205.69 305.352 L2225.43 305.352 L2225.43 312.799 L2205.69 312.799 L2205.69 344.466 Q2205.69 351.601 2207.62 353.633 Q2209.6 355.664 2215.59 355.664 L2225.43 355.664 L2225.43 363.685 L2215.59 363.685 Q2204.49 363.685 2200.27 359.57 Q2196.05 355.403 2196.05 344.466 L2196.05 312.799 L2189.02 312.799 L2189.02 305.352 L2196.05 305.352 L2196.05 288.789 L2205.69 288.789 Z" fill="#000000" fill-rule="nonzero" fill-opacity="1" /><path clip-path="url(#clip890)" d="M2236.52 282.748 L2244.86 282.748 Q2252.67 295.039 2256.52 306.81 Q2260.43 318.581 2260.43 330.195 Q2260.43 341.862 2256.52 353.685 Q2252.67 365.508 2244.86 377.747 L2236.52 377.747 Q2243.45 365.82 2246.84 354.049 Q2250.27 342.226 2250.27 330.195 Q2250.27 318.164 2246.84 306.445 Q2243.45 294.727 2236.52 282.748 Z" fill="#000000" fill-rule="nonzero" fill-opacity="1" /><polyline clip-path="url(#clip890)" style="stroke:#ff0000; stroke-linecap:round; stroke-linejoin:round; stroke-width:18; stroke-opacity:1; fill:none" points="897.508,441.445 1036,441.445 "/>
<path clip-path="url(#clip890)" d="M1095.12 409.7 Q1083.66 409.7 1076.89 418.242 Q1070.17 426.783 1070.17 441.523 Q1070.17 456.21 1076.89 464.752 Q1083.66 473.293 1095.12 473.293 Q1106.58 473.293 1113.25 464.752 Q1119.97 456.21 1119.97 441.523 Q1119.97 426.783 1113.25 418.242 Q1106.58 409.7 1095.12 409.7 M1095.12 401.158 Q1111.48 401.158 1121.27 412.148 Q1131.06 423.085 1131.06 441.523 Q1131.06 459.908 1121.27 470.898 Q1111.48 481.835 1095.12 481.835 Q1078.72 481.835 1068.87 470.898 Q1059.08 459.96 1059.08 441.523 Q1059.08 423.085 1068.87 412.148 Q1078.72 401.158 1095.12 401.158 Z" fill="#000000" fill-rule="nonzero" fill-opacity="1" /><path clip-path="url(#clip890)" d="M1200.54 469.231 L1200.54 448.346 L1183.35 448.346 L1183.35 439.7 L1210.96 439.7 L1210.96 473.085 Q1204.86 477.408 1197.52 479.648 Q1190.17 481.835 1181.84 481.835 Q1163.61 481.835 1153.3 471.21 Q1143.04 460.533 1143.04 441.523 Q1143.04 422.46 1153.3 411.835 Q1163.61 401.158 1181.84 401.158 Q1189.44 401.158 1196.27 403.033 Q1203.14 404.908 1208.92 408.554 L1208.92 419.752 Q1203.09 414.804 1196.53 412.304 Q1189.97 409.804 1182.73 409.804 Q1168.46 409.804 1161.27 417.773 Q1154.13 425.742 1154.13 441.523 Q1154.13 457.252 1161.27 465.221 Q1168.46 473.189 1182.73 473.189 Q1188.3 473.189 1192.67 472.252 Q1197.05 471.262 1200.54 469.231 Z" fill="#000000" fill-rule="nonzero" fill-opacity="1" /><path clip-path="url(#clip890)" d="M1230.17 402.565 L1245.85 402.565 L1265.69 455.481 L1285.64 402.565 L1301.32 402.565 L1301.32 480.325 L1291.06 480.325 L1291.06 412.044 L1271.01 465.377 L1260.43 465.377 L1240.38 412.044 L1240.38 480.325 L1230.17 480.325 L1230.17 402.565 Z" fill="#000000" fill-rule="nonzero" fill-opacity="1" /><path clip-path="url(#clip890)" d="M1324.96 471.471 L1342.15 471.471 L1342.15 412.148 L1323.45 415.898 L1323.45 406.315 L1342.05 402.565 L1352.57 402.565 L1352.57 471.471 L1369.76 471.471 L1369.76 480.325 L1324.96 480.325 L1324.96 471.471 Z" fill="#000000" fill-rule="nonzero" fill-opacity="1" /><path clip-path="url(#clip890)" d="M1446.58 399.388 Q1439.6 411.367 1436.21 423.085 Q1432.83 434.804 1432.83 446.835 Q1432.83 458.866 1436.21 470.689 Q1439.65 482.46 1446.58 494.387 L1438.25 494.387 Q1430.43 482.148 1426.53 470.325 Q1422.67 458.502 1422.67 446.835 Q1422.67 435.221 1426.53 423.45 Q1430.38 411.679 1438.25 399.388 L1446.58 399.388 Z" fill="#000000" fill-rule="nonzero" fill-opacity="1" /><path clip-path="url(#clip890)" d="M1498.97 430.95 Q1497.36 430.012 1495.43 429.596 Q1493.56 429.127 1491.27 429.127 Q1483.14 429.127 1478.77 434.439 Q1474.44 439.7 1474.44 449.596 L1474.44 480.325 L1464.81 480.325 L1464.81 421.992 L1474.44 421.992 L1474.44 431.054 Q1477.46 425.742 1482.31 423.19 Q1487.15 420.585 1494.08 420.585 Q1495.07 420.585 1496.27 420.742 Q1497.46 420.846 1498.92 421.106 L1498.97 430.95 Z" fill="#000000" fill-rule="nonzero" fill-opacity="1" /><path clip-path="url(#clip890)" d="M1556.58 448.762 L1556.58 453.45 L1512.52 453.45 Q1513.14 463.346 1518.45 468.554 Q1523.82 473.71 1533.35 473.71 Q1538.87 473.71 1544.03 472.356 Q1549.23 471.002 1554.34 468.293 L1554.34 477.356 Q1549.18 479.543 1543.77 480.689 Q1538.35 481.835 1532.78 481.835 Q1518.82 481.835 1510.64 473.71 Q1502.52 465.585 1502.52 451.731 Q1502.52 437.408 1510.22 429.023 Q1517.98 420.585 1531.11 420.585 Q1542.88 420.585 1549.7 428.189 Q1556.58 435.742 1556.58 448.762 M1547 445.95 Q1546.89 438.085 1542.57 433.398 Q1538.3 428.71 1531.21 428.71 Q1523.19 428.71 1518.35 433.242 Q1513.56 437.773 1512.83 446.002 L1547 445.95 Z" fill="#000000" fill-rule="nonzero" fill-opacity="1" /><path clip-path="url(#clip890)" d="M1609.49 423.71 L1609.49 432.773 Q1605.43 430.689 1601.06 429.648 Q1596.68 428.606 1591.99 428.606 Q1584.86 428.606 1581.27 430.794 Q1577.72 432.981 1577.72 437.356 Q1577.72 440.689 1580.28 442.616 Q1582.83 444.491 1590.54 446.21 L1593.82 446.939 Q1604.03 449.127 1608.3 453.137 Q1612.62 457.096 1612.62 464.231 Q1612.62 472.356 1606.16 477.095 Q1599.76 481.835 1588.51 481.835 Q1583.82 481.835 1578.71 480.898 Q1573.66 480.012 1568.04 478.189 L1568.04 468.293 Q1573.35 471.054 1578.51 472.46 Q1583.66 473.814 1588.71 473.814 Q1595.48 473.814 1599.13 471.523 Q1602.78 469.179 1602.78 464.96 Q1602.78 461.054 1600.12 458.971 Q1597.52 456.887 1588.61 454.96 L1585.28 454.179 Q1576.37 452.304 1572.41 448.45 Q1568.45 444.544 1568.45 437.773 Q1568.45 429.544 1574.29 425.064 Q1580.12 420.585 1590.85 420.585 Q1596.16 420.585 1600.85 421.367 Q1605.54 422.148 1609.49 423.71 Z" fill="#000000" fill-rule="nonzero" fill-opacity="1" /><path clip-path="url(#clip890)" d="M1637.36 405.429 L1637.36 421.992 L1657.1 421.992 L1657.1 429.439 L1637.36 429.439 L1637.36 461.106 Q1637.36 468.241 1639.29 470.273 Q1641.27 472.304 1647.25 472.304 L1657.1 472.304 L1657.1 480.325 L1647.25 480.325 Q1636.16 480.325 1631.94 476.21 Q1627.72 472.043 1627.72 461.106 L1627.72 429.439 L1620.69 429.439 L1620.69 421.992 L1627.72 421.992 L1627.72 405.429 L1637.36 405.429 Z" fill="#000000" fill-rule="nonzero" fill-opacity="1" /><path clip-path="url(#clip890)" d="M1696.21 451.002 Q1684.6 451.002 1680.12 453.658 Q1675.64 456.314 1675.64 462.721 Q1675.64 467.825 1678.97 470.846 Q1682.36 473.814 1688.14 473.814 Q1696.11 473.814 1700.9 468.189 Q1705.74 462.512 1705.74 453.137 L1705.74 451.002 L1696.21 451.002 M1715.33 447.044 L1715.33 480.325 L1705.74 480.325 L1705.74 471.471 Q1702.46 476.783 1697.57 479.335 Q1692.67 481.835 1685.59 481.835 Q1676.63 481.835 1671.32 476.835 Q1666.06 471.783 1666.06 463.346 Q1666.06 453.502 1672.62 448.502 Q1679.23 443.502 1692.31 443.502 L1705.74 443.502 L1705.74 442.564 Q1705.74 435.95 1701.37 432.356 Q1697.05 428.71 1689.18 428.71 Q1684.18 428.71 1679.44 429.908 Q1674.7 431.106 1670.33 433.502 L1670.33 424.648 Q1675.59 422.617 1680.54 421.627 Q1685.48 420.585 1690.17 420.585 Q1702.83 420.585 1709.08 427.148 Q1715.33 433.71 1715.33 447.044 Z" fill="#000000" fill-rule="nonzero" fill-opacity="1" /><path clip-path="url(#clip890)" d="M1768.87 430.95 Q1767.25 430.012 1765.33 429.596 Q1763.45 429.127 1761.16 429.127 Q1753.04 429.127 1748.66 434.439 Q1744.34 439.7 1744.34 449.596 L1744.34 480.325 L1734.7 480.325 L1734.7 421.992 L1744.34 421.992 L1744.34 431.054 Q1747.36 425.742 1752.2 423.19 Q1757.05 420.585 1763.97 420.585 Q1764.96 420.585 1766.16 420.742 Q1767.36 420.846 1768.82 421.106 L1768.87 430.95 Z" fill="#000000" fill-rule="nonzero" fill-opacity="1" /><path clip-path="url(#clip890)" d="M1788.4 405.429 L1788.4 421.992 L1808.14 421.992 L1808.14 429.439 L1788.4 429.439 L1788.4 461.106 Q1788.4 468.241 1790.33 470.273 Q1792.31 472.304 1798.3 472.304 L1808.14 472.304 L1808.14 480.325 L1798.3 480.325 Q1787.2 480.325 1782.98 476.21 Q1778.76 472.043 1778.76 461.106 L1778.76 429.439 L1771.73 429.439 L1771.73 421.992 L1778.76 421.992 L1778.76 405.429 L1788.4 405.429 Z" fill="#000000" fill-rule="nonzero" fill-opacity="1" /><path clip-path="url(#clip890)" d="M1819.23 399.388 L1827.57 399.388 Q1835.38 411.679 1839.23 423.45 Q1843.14 435.221 1843.14 446.835 Q1843.14 458.502 1839.23 470.325 Q1835.38 482.148 1827.57 494.387 L1819.23 494.387 Q1826.16 482.46 1829.55 470.689 Q1832.98 458.866 1832.98 446.835 Q1832.98 434.804 1829.55 423.085 Q1826.16 411.367 1819.23 399.388 Z" fill="#000000" fill-rule="nonzero" fill-opacity="1" /></svg>
