<?xml version="1.0" encoding="utf-8"?>
<svg xmlns="http://www.w3.org/2000/svg" xmlns:xlink="http://www.w3.org/1999/xlink" width="600" height="400" viewBox="0 0 2400 1600">
<defs>
  <clipPath id="clip700">
    <rect x="0" y="0" width="2400" height="1600"/>
  </clipPath>
</defs>
<path clip-path="url(#clip700)" d="M0 1600 L2400 1600 L2400 0 L0 0  Z" fill="#ffffff" fill-rule="evenodd" fill-opacity="1"/>
<defs>
  <clipPath id="clip701">
    <rect x="232" y="47" width="2121" height="1329"/>
  </clipPath>
</defs>
<path clip-path="url(#clip700)" d="M232.79 1375.66 L2352.76 1375.66 L2352.76 47.2441 L232.79 47.2441  Z" fill="#ffffff" fill-rule="evenodd" fill-opacity="1"/>
<polyline clip-path="url(#clip701)" style="stroke:#000000; stroke-linecap:round; stroke-linejoin:round; stroke-width:2; stroke-opacity:0.1; fill:none" points="506.622,1375.66 506.622,47.2441 "/>
<polyline clip-path="url(#clip701)" style="stroke:#000000; stroke-linecap:round; stroke-linejoin:round; stroke-width:2; stroke-opacity:0.1; fill:none" points="899.697,1375.66 899.697,47.2441 "/>
<polyline clip-path="url(#clip701)" style="stroke:#000000; stroke-linecap:round; stroke-linejoin:round; stroke-width:2; stroke-opacity:0.1; fill:none" points="1292.77,1375.66 1292.77,47.2441 "/>
<polyline clip-path="url(#clip701)" style="stroke:#000000; stroke-linecap:round; stroke-linejoin:round; stroke-width:2; stroke-opacity:0.1; fill:none" points="1685.85,1375.66 1685.85,47.2441 "/>
<polyline clip-path="url(#clip701)" style="stroke:#000000; stroke-linecap:round; stroke-linejoin:round; stroke-width:2; stroke-opacity:0.1; fill:none" points="2078.92,1375.66 2078.92,47.2441 "/>
<polyline clip-path="url(#clip701)" style="stroke:#000000; stroke-linecap:round; stroke-linejoin:round; stroke-width:2; stroke-opacity:0.1; fill:none" points="232.79,1375.66 2352.76,1375.66 "/>
<polyline clip-path="url(#clip701)" style="stroke:#000000; stroke-linecap:round; stroke-linejoin:round; stroke-width:2; stroke-opacity:0.1; fill:none" points="232.79,1073.75 2352.76,1073.75 "/>
<polyline clip-path="url(#clip701)" style="stroke:#000000; stroke-linecap:round; stroke-linejoin:round; stroke-width:2; stroke-opacity:0.1; fill:none" points="232.79,771.835 2352.76,771.835 "/>
<polyline clip-path="url(#clip701)" style="stroke:#000000; stroke-linecap:round; stroke-linejoin:round; stroke-width:2; stroke-opacity:0.1; fill:none" points="232.79,469.922 2352.76,469.922 "/>
<polyline clip-path="url(#clip701)" style="stroke:#000000; stroke-linecap:round; stroke-linejoin:round; stroke-width:2; stroke-opacity:0.1; fill:none" points="232.79,168.009 2352.76,168.009 "/>
<polyline clip-path="url(#clip700)" style="stroke:#000000; stroke-linecap:round; stroke-linejoin:round; stroke-width:4; stroke-opacity:1; fill:none" points="232.79,1375.66 2352.76,1375.66 "/>
<polyline clip-path="url(#clip700)" style="stroke:#000000; stroke-linecap:round; stroke-linejoin:round; stroke-width:4; stroke-opacity:1; fill:none" points="506.622,1375.66 506.622,1356.76 "/>
<polyline clip-path="url(#clip700)" style="stroke:#000000; stroke-linecap:round; stroke-linejoin:round; stroke-width:4; stroke-opacity:1; fill:none" points="899.697,1375.66 899.697,1356.76 "/>
<polyline clip-path="url(#clip700)" style="stroke:#000000; stroke-linecap:round; stroke-linejoin:round; stroke-width:4; stroke-opacity:1; fill:none" points="1292.77,1375.66 1292.77,1356.76 "/>
<polyline clip-path="url(#clip700)" style="stroke:#000000; stroke-linecap:round; stroke-linejoin:round; stroke-width:4; stroke-opacity:1; fill:none" points="1685.85,1375.66 1685.85,1356.76 "/>
<polyline clip-path="url(#clip700)" style="stroke:#000000; stroke-linecap:round; stroke-linejoin:round; stroke-width:4; stroke-opacity:1; fill:none" points="2078.92,1375.66 2078.92,1356.76 "/>
<path clip-path="url(#clip700)" d="M437.716 1434.42 L482.23 1434.42 L482.23 1440.32 L437.716 1440.32 L437.716 1434.42 Z" fill="#000000" fill-rule="nonzero" fill-opacity="1" /><path clip-path="url(#clip700)" d="M498.584 1453.76 L510.042 1453.76 L510.042 1414.21 L497.577 1416.71 L497.577 1410.32 L509.973 1407.82 L516.987 1407.82 L516.987 1453.76 L528.445 1453.76 L528.445 1459.66 L498.584 1459.66 L498.584 1453.76 Z" fill="#000000" fill-rule="nonzero" fill-opacity="1" /><path clip-path="url(#clip700)" d="M557.611 1412.44 Q552.195 1412.44 549.452 1417.79 Q546.743 1423.1 546.743 1433.79 Q546.743 1444.45 549.452 1449.8 Q552.195 1455.11 557.611 1455.11 Q563.063 1455.11 565.771 1449.8 Q568.514 1444.45 568.514 1433.79 Q568.514 1423.1 565.771 1417.79 Q563.063 1412.44 557.611 1412.44 M557.611 1406.88 Q566.327 1406.88 570.91 1413.79 Q575.528 1420.67 575.528 1433.79 Q575.528 1446.88 570.91 1453.79 Q566.327 1460.67 557.611 1460.67 Q548.896 1460.67 544.278 1453.79 Q539.695 1446.88 539.695 1433.79 Q539.695 1420.67 544.278 1413.79 Q548.896 1406.88 557.611 1406.88 Z" fill="#000000" fill-rule="nonzero" fill-opacity="1" /><path clip-path="url(#clip700)" d="M854.16 1434.42 L898.673 1434.42 L898.673 1440.32 L854.16 1440.32 L854.16 1434.42 Z" fill="#000000" fill-rule="nonzero" fill-opacity="1" /><path clip-path="url(#clip700)" d="M913.881 1407.82 L941.416 1407.82 L941.416 1413.72 L920.305 1413.72 L920.305 1426.43 Q921.833 1425.91 923.361 1425.67 Q924.888 1425.39 926.416 1425.39 Q935.097 1425.39 940.166 1430.15 Q945.235 1434.9 945.235 1443.03 Q945.235 1451.4 940.027 1456.05 Q934.819 1460.67 925.34 1460.67 Q922.076 1460.67 918.673 1460.11 Q915.305 1459.56 911.694 1458.44 L911.694 1451.4 Q914.819 1453.1 918.152 1453.93 Q921.486 1454.76 925.201 1454.76 Q931.208 1454.76 934.715 1451.6 Q938.222 1448.44 938.222 1443.03 Q938.222 1437.61 934.715 1434.45 Q931.208 1431.29 925.201 1431.29 Q922.388 1431.29 919.576 1431.92 Q916.798 1432.54 913.881 1433.86 L913.881 1407.82 Z" fill="#000000" fill-rule="nonzero" fill-opacity="1" /><path clip-path="url(#clip700)" d="M1292.77 1412.44 Q1287.36 1412.44 1284.61 1417.79 Q1281.9 1423.1 1281.9 1433.79 Q1281.9 1444.45 1284.61 1449.8 Q1287.36 1455.11 1292.77 1455.11 Q1298.22 1455.11 1300.93 1449.8 Q1303.68 1444.45 1303.68 1433.79 Q1303.68 1423.1 1300.93 1417.79 Q1298.22 1412.44 1292.77 1412.44 M1292.77 1406.88 Q1301.49 1406.88 1306.07 1413.79 Q1310.69 1420.67 1310.69 1433.79 Q1310.69 1446.88 1306.07 1453.79 Q1301.49 1460.67 1292.77 1460.67 Q1284.06 1460.67 1279.44 1453.79 Q1274.86 1446.88 1274.86 1433.79 Q1274.86 1420.67 1279.44 1413.79 Q1284.06 1406.88 1292.77 1406.88 Z" fill="#000000" fill-rule="nonzero" fill-opacity="1" /><path clip-path="url(#clip700)" d="M1671.27 1407.82 L1698.8 1407.82 L1698.8 1413.72 L1677.69 1413.72 L1677.69 1426.43 Q1679.22 1425.91 1680.74 1425.67 Q1682.27 1425.39 1683.8 1425.39 Q1692.48 1425.39 1697.55 1430.15 Q1702.62 1434.9 1702.62 1443.03 Q1702.62 1451.4 1697.41 1456.05 Q1692.2 1460.67 1682.72 1460.67 Q1679.46 1460.67 1676.06 1460.11 Q1672.69 1459.56 1669.08 1458.44 L1669.08 1451.4 Q1672.2 1453.1 1675.54 1453.93 Q1678.87 1454.76 1682.58 1454.76 Q1688.59 1454.76 1692.1 1451.6 Q1695.61 1448.44 1695.61 1443.03 Q1695.61 1437.61 1692.1 1434.45 Q1688.59 1431.29 1682.58 1431.29 Q1679.77 1431.29 1676.96 1431.92 Q1674.18 1432.54 1671.27 1433.86 L1671.27 1407.82 Z" fill="#000000" fill-rule="nonzero" fill-opacity="1" /><path clip-path="url(#clip700)" d="M2040.96 1453.76 L2052.41 1453.76 L2052.41 1414.21 L2039.95 1416.71 L2039.95 1410.32 L2052.34 1407.82 L2059.36 1407.82 L2059.36 1453.76 L2070.82 1453.76 L2070.82 1459.66 L2040.96 1459.66 L2040.96 1453.76 Z" fill="#000000" fill-rule="nonzero" fill-opacity="1" /><path clip-path="url(#clip700)" d="M2099.98 1412.44 Q2094.57 1412.44 2091.82 1417.79 Q2089.11 1423.1 2089.11 1433.79 Q2089.11 1444.45 2091.82 1449.8 Q2094.57 1455.11 2099.98 1455.11 Q2105.43 1455.11 2108.14 1449.8 Q2110.89 1444.45 2110.89 1433.79 Q2110.89 1423.1 2108.14 1417.79 Q2105.43 1412.44 2099.98 1412.44 M2099.98 1406.88 Q2108.7 1406.88 2113.28 1413.79 Q2117.9 1420.67 2117.9 1433.79 Q2117.9 1446.88 2113.28 1453.79 Q2108.7 1460.67 2099.98 1460.67 Q2091.27 1460.67 2086.65 1453.79 Q2082.07 1446.88 2082.07 1433.79 Q2082.07 1420.67 2086.65 1413.79 Q2091.27 1406.88 2099.98 1406.88 Z" fill="#000000" fill-rule="nonzero" fill-opacity="1" /><path clip-path="url(#clip700)" d="M1180.61 1549.29 L1195.3 1501.79 L1204.15 1501.79 L1189.47 1549.29 L1204.15 1596.79 L1195.3 1596.79 L1180.61 1549.29 Z" fill="#000000" fill-rule="nonzero" fill-opacity="1" /><path clip-path="url(#clip700)" d="M1271.24 1524.4 L1250.14 1552.78 L1272.33 1582.73 L1261.03 1582.73 L1244.05 1559.82 L1227.07 1582.73 L1215.77 1582.73 L1238.42 1552.21 L1217.7 1524.4 L1229 1524.4 L1244.47 1545.18 L1259.93 1524.4 L1271.24 1524.4 Z" fill="#000000" fill-rule="nonzero" fill-opacity="1" /><path clip-path="url(#clip700)" d="M1288.32 1569.5 L1299.31 1569.5 L1299.31 1578.46 L1290.77 1595.13 L1284.05 1595.13 L1288.32 1578.46 L1288.32 1569.5 Z" fill="#000000" fill-rule="nonzero" fill-opacity="1" /><path clip-path="url(#clip700)" d="M1312.9 1524.4 L1323.06 1524.4 L1341.29 1573.36 L1359.52 1524.4 L1369.67 1524.4 L1347.8 1582.73 L1334.78 1582.73 L1312.9 1524.4 Z" fill="#000000" fill-rule="nonzero" fill-opacity="1" /><path clip-path="url(#clip700)" d="M1404.93 1549.29 L1390.25 1596.79 L1381.39 1596.79 L1396.08 1549.29 L1381.39 1501.79 L1390.25 1501.79 L1404.93 1549.29 Z" fill="#000000" fill-rule="nonzero" fill-opacity="1" /><polyline clip-path="url(#clip700)" style="stroke:#000000; stroke-linecap:round; stroke-linejoin:round; stroke-width:4; stroke-opacity:1; fill:none" points="232.79,1375.66 232.79,47.2441 "/>
<polyline clip-path="url(#clip700)" style="stroke:#000000; stroke-linecap:round; stroke-linejoin:round; stroke-width:4; stroke-opacity:1; fill:none" points="232.79,1375.66 251.688,1375.66 "/>
<polyline clip-path="url(#clip700)" style="stroke:#000000; stroke-linecap:round; stroke-linejoin:round; stroke-width:4; stroke-opacity:1; fill:none" points="232.79,1073.75 251.688,1073.75 "/>
<polyline clip-path="url(#clip700)" style="stroke:#000000; stroke-linecap:round; stroke-linejoin:round; stroke-width:4; stroke-opacity:1; fill:none" points="232.79,771.835 251.688,771.835 "/>
<polyline clip-path="url(#clip700)" style="stroke:#000000; stroke-linecap:round; stroke-linejoin:round; stroke-width:4; stroke-opacity:1; fill:none" points="232.79,469.922 251.688,469.922 "/>
<polyline clip-path="url(#clip700)" style="stroke:#000000; stroke-linecap:round; stroke-linejoin:round; stroke-width:4; stroke-opacity:1; fill:none" points="232.79,168.009 251.688,168.009 "/>
<path clip-path="url(#clip700)" d="M111.027 1354.36 Q105.61 1354.36 102.867 1359.71 Q100.159 1365.02 100.159 1375.71 Q100.159 1386.37 102.867 1391.72 Q105.61 1397.03 111.027 1397.03 Q116.478 1397.03 119.186 1391.72 Q121.929 1386.37 121.929 1375.71 Q121.929 1365.02 119.186 1359.71 Q116.478 1354.36 111.027 1354.36 M111.027 1348.8 Q119.742 1348.8 124.325 1355.71 Q128.943 1362.59 128.943 1375.71 Q128.943 1388.8 124.325 1395.71 Q119.742 1402.59 111.027 1402.59 Q102.311 1402.59 97.6933 1395.71 Q93.11 1388.8 93.11 1375.71 Q93.11 1362.59 97.6933 1355.71 Q102.311 1348.8 111.027 1348.8 Z" fill="#000000" fill-rule="nonzero" fill-opacity="1" /><path clip-path="url(#clip700)" d="M141.269 1392.76 L148.596 1392.76 L148.596 1401.58 L141.269 1401.58 L141.269 1392.76 Z" fill="#000000" fill-rule="nonzero" fill-opacity="1" /><path clip-path="url(#clip700)" d="M178.873 1354.36 Q173.457 1354.36 170.714 1359.71 Q168.005 1365.02 168.005 1375.71 Q168.005 1386.37 170.714 1391.72 Q173.457 1397.03 178.873 1397.03 Q184.325 1397.03 187.033 1391.72 Q189.776 1386.37 189.776 1375.71 Q189.776 1365.02 187.033 1359.71 Q184.325 1354.36 178.873 1354.36 M178.873 1348.8 Q187.589 1348.8 192.172 1355.71 Q196.79 1362.59 196.79 1375.71 Q196.79 1388.8 192.172 1395.71 Q187.589 1402.59 178.873 1402.59 Q170.158 1402.59 165.54 1395.71 Q160.957 1388.8 160.957 1375.71 Q160.957 1362.59 165.54 1355.71 Q170.158 1348.8 178.873 1348.8 Z" fill="#000000" fill-rule="nonzero" fill-opacity="1" /><path clip-path="url(#clip700)" d="M103.561 1093.76 L128.04 1093.76 L128.04 1099.67 L95.1238 1099.67 L95.1238 1093.76 Q99.1169 1089.63 105.992 1082.69 Q112.902 1075.71 114.672 1073.7 Q118.04 1069.91 119.36 1067.31 Q120.714 1064.67 120.714 1062.13 Q120.714 1058 117.797 1055.4 Q114.915 1052.79 110.263 1052.79 Q106.964 1052.79 103.284 1053.94 Q99.6377 1055.08 95.4711 1057.41 L95.4711 1050.33 Q99.7071 1048.63 103.388 1047.76 Q107.068 1046.89 110.124 1046.89 Q118.179 1046.89 122.971 1050.92 Q127.763 1054.95 127.763 1061.68 Q127.763 1064.88 126.547 1067.76 Q125.367 1070.6 122.207 1074.49 Q121.339 1075.5 116.686 1080.33 Q112.033 1085.12 103.561 1093.76 Z" fill="#000000" fill-rule="nonzero" fill-opacity="1" /><path clip-path="url(#clip700)" d="M142.762 1090.85 L150.089 1090.85 L150.089 1099.67 L142.762 1099.67 L142.762 1090.85 Z" fill="#000000" fill-rule="nonzero" fill-opacity="1" /><path clip-path="url(#clip700)" d="M165.436 1047.83 L192.971 1047.83 L192.971 1053.73 L171.86 1053.73 L171.86 1066.44 Q173.387 1065.92 174.915 1065.67 Q176.443 1065.4 177.971 1065.4 Q186.651 1065.4 191.721 1070.15 Q196.79 1074.91 196.79 1083.04 Q196.79 1091.4 191.582 1096.06 Q186.373 1100.67 176.894 1100.67 Q173.63 1100.67 170.228 1100.12 Q166.86 1099.56 163.248 1098.45 L163.248 1091.4 Q166.373 1093.1 169.707 1093.94 Q173.04 1094.77 176.755 1094.77 Q182.762 1094.77 186.269 1091.61 Q189.776 1088.45 189.776 1083.04 Q189.776 1077.62 186.269 1074.46 Q182.762 1071.3 176.755 1071.3 Q173.943 1071.3 171.13 1071.92 Q168.353 1072.55 165.436 1073.87 L165.436 1047.83 Z" fill="#000000" fill-rule="nonzero" fill-opacity="1" /><path clip-path="url(#clip700)" d="M96.0961 745.915 L123.631 745.915 L123.631 751.817 L102.52 751.817 L102.52 764.526 Q104.047 764.005 105.575 763.762 Q107.103 763.484 108.631 763.484 Q117.311 763.484 122.381 768.241 Q127.45 772.998 127.45 781.123 Q127.45 789.491 122.242 794.143 Q117.033 798.761 107.554 798.761 Q104.29 798.761 100.888 798.206 Q97.5197 797.65 93.9086 796.539 L93.9086 789.491 Q97.0335 791.192 100.367 792.025 Q103.7 792.859 107.415 792.859 Q113.422 792.859 116.929 789.699 Q120.436 786.539 120.436 781.123 Q120.436 775.706 116.929 772.546 Q113.422 769.387 107.415 769.387 Q104.603 769.387 101.79 770.012 Q99.0127 770.637 96.0961 771.956 L96.0961 745.915 Z" fill="#000000" fill-rule="nonzero" fill-opacity="1" /><path clip-path="url(#clip700)" d="M141.269 788.935 L148.596 788.935 L148.596 797.755 L141.269 797.755 L141.269 788.935 Z" fill="#000000" fill-rule="nonzero" fill-opacity="1" /><path clip-path="url(#clip700)" d="M178.873 750.533 Q173.457 750.533 170.714 755.88 Q168.005 761.192 168.005 771.887 Q168.005 782.546 170.714 787.893 Q173.457 793.206 178.873 793.206 Q184.325 793.206 187.033 787.893 Q189.776 782.546 189.776 771.887 Q189.776 761.192 187.033 755.88 Q184.325 750.533 178.873 750.533 M178.873 744.977 Q187.589 744.977 192.172 751.887 Q196.79 758.762 196.79 771.887 Q196.79 784.977 192.172 791.886 Q187.589 798.761 178.873 798.761 Q170.158 798.761 165.54 791.886 Q160.957 784.977 160.957 771.887 Q160.957 758.762 165.54 751.887 Q170.158 744.977 178.873 744.977 Z" fill="#000000" fill-rule="nonzero" fill-opacity="1" /><path clip-path="url(#clip700)" d="M95.7488 444.002 L129.082 444.002 L129.082 446.988 L110.263 495.842 L102.936 495.842 L120.645 449.905 L95.7488 449.905 L95.7488 444.002 Z" fill="#000000" fill-rule="nonzero" fill-opacity="1" /><path clip-path="url(#clip700)" d="M142.762 487.022 L150.089 487.022 L150.089 495.842 L142.762 495.842 L142.762 487.022 Z" fill="#000000" fill-rule="nonzero" fill-opacity="1" /><path clip-path="url(#clip700)" d="M165.436 444.002 L192.971 444.002 L192.971 449.905 L171.86 449.905 L171.86 462.613 Q173.387 462.092 174.915 461.849 Q176.443 461.571 177.971 461.571 Q186.651 461.571 191.721 466.328 Q196.79 471.085 196.79 479.21 Q196.79 487.578 191.582 492.231 Q186.373 496.849 176.894 496.849 Q173.63 496.849 170.228 496.293 Q166.86 495.738 163.248 494.627 L163.248 487.578 Q166.373 489.279 169.707 490.113 Q173.04 490.946 176.755 490.946 Q182.762 490.946 186.269 487.786 Q189.776 484.627 189.776 479.21 Q189.776 473.793 186.269 470.634 Q182.762 467.474 176.755 467.474 Q173.943 467.474 171.13 468.099 Q168.353 468.724 165.436 470.043 L165.436 444.002 Z" fill="#000000" fill-rule="nonzero" fill-opacity="1" /><path clip-path="url(#clip700)" d="M51.9991 188.026 L63.4573 188.026 L63.4573 148.478 L50.9921 150.978 L50.9921 144.589 L63.3879 142.089 L70.4017 142.089 L70.4017 188.026 L81.86 188.026 L81.86 193.929 L51.9991 193.929 L51.9991 188.026 Z" fill="#000000" fill-rule="nonzero" fill-opacity="1" /><path clip-path="url(#clip700)" d="M111.027 146.707 Q105.61 146.707 102.867 152.054 Q100.159 157.367 100.159 168.061 Q100.159 178.721 102.867 184.068 Q105.61 189.381 111.027 189.381 Q116.478 189.381 119.186 184.068 Q121.929 178.721 121.929 168.061 Q121.929 157.367 119.186 152.054 Q116.478 146.707 111.027 146.707 M111.027 141.152 Q119.742 141.152 124.325 148.061 Q128.943 154.936 128.943 168.061 Q128.943 181.151 124.325 188.061 Q119.742 194.936 111.027 194.936 Q102.311 194.936 97.6933 188.061 Q93.11 181.151 93.11 168.061 Q93.11 154.936 97.6933 148.061 Q102.311 141.152 111.027 141.152 Z" fill="#000000" fill-rule="nonzero" fill-opacity="1" /><path clip-path="url(#clip700)" d="M141.269 185.11 L148.596 185.11 L148.596 193.929 L141.269 193.929 L141.269 185.11 Z" fill="#000000" fill-rule="nonzero" fill-opacity="1" /><path clip-path="url(#clip700)" d="M178.873 146.707 Q173.457 146.707 170.714 152.054 Q168.005 157.367 168.005 168.061 Q168.005 178.721 170.714 184.068 Q173.457 189.381 178.873 189.381 Q184.325 189.381 187.033 184.068 Q189.776 178.721 189.776 168.061 Q189.776 157.367 187.033 152.054 Q184.325 146.707 178.873 146.707 M178.873 141.152 Q187.589 141.152 192.172 148.061 Q196.79 154.936 196.79 168.061 Q196.79 181.151 192.172 188.061 Q187.589 194.936 178.873 194.936 Q170.158 194.936 165.54 188.061 Q160.957 181.151 160.957 168.061 Q160.957 154.936 165.54 148.061 Q170.158 141.152 178.873 141.152 Z" fill="#000000" fill-rule="nonzero" fill-opacity="1" /><path clip-path="url(#clip701)" d="M349.392 1375.66 L349.392 1375.66 L428.007 1375.66 L428.007 1375.66 L349.392 1375.66 L349.392 1375.66  Z" fill="#008000" fill-rule="evenodd" fill-opacity="0.5"/>
<polyline clip-path="url(#clip701)" style="stroke:#008000; stroke-linecap:round; stroke-linejoin:round; stroke-width:8; stroke-opacity:0.5; fill:none" points="349.392,1375.66 349.392,1375.66 428.007,1375.66 349.392,1375.66 "/>
<path clip-path="url(#clip701)" d="M428.007 1375.66 L428.007 1375.66 L506.622 1375.66 L506.622 1375.66 L428.007 1375.66 L428.007 1375.66  Z" fill="#008000" fill-rule="evenodd" fill-opacity="0.5"/>
<polyline clip-path="url(#clip701)" style="stroke:#008000; stroke-linecap:round; stroke-linejoin:round; stroke-width:8; stroke-opacity:0.5; fill:none" points="428.007,1375.66 428.007,1375.66 506.622,1375.66 428.007,1375.66 "/>
<path clip-path="url(#clip701)" d="M506.622 1254.89 L506.622 1375.66 L585.237 1375.66 L585.237 1254.89 L506.622 1254.89 L506.622 1254.89  Z" fill="#008000" fill-rule="evenodd" fill-opacity="0.5"/>
<polyline clip-path="url(#clip701)" style="stroke:#008000; stroke-linecap:round; stroke-linejoin:round; stroke-width:8; stroke-opacity:0.5; fill:none" points="506.622,1254.89 506.622,1375.66 585.237,1375.66 585.237,1254.89 506.622,1254.89 "/>
<path clip-path="url(#clip701)" d="M585.237 1134.13 L585.237 1375.66 L663.852 1375.66 L663.852 1134.13 L585.237 1134.13 L585.237 1134.13  Z" fill="#008000" fill-rule="evenodd" fill-opacity="0.5"/>
<polyline clip-path="url(#clip701)" style="stroke:#008000; stroke-linecap:round; stroke-linejoin:round; stroke-width:8; stroke-opacity:0.5; fill:none" points="585.237,1134.13 585.237,1375.66 663.852,1375.66 663.852,1134.13 585.237,1134.13 "/>
<path clip-path="url(#clip701)" d="M663.852 892.6 L663.852 1375.66 L742.467 1375.66 L742.467 892.6 L663.852 892.6 L663.852 892.6  Z" fill="#008000" fill-rule="evenodd" fill-opacity="0.5"/>
<polyline clip-path="url(#clip701)" style="stroke:#008000; stroke-linecap:round; stroke-linejoin:round; stroke-width:8; stroke-opacity:0.5; fill:none" points="663.852,892.6 663.852,1375.66 742.467,1375.66 742.467,892.6 663.852,892.6 "/>
<path clip-path="url(#clip701)" d="M742.467 892.6 L742.467 1375.66 L821.082 1375.66 L821.082 892.6 L742.467 892.6 L742.467 892.6  Z" fill="#008000" fill-rule="evenodd" fill-opacity="0.5"/>
<polyline clip-path="url(#clip701)" style="stroke:#008000; stroke-linecap:round; stroke-linejoin:round; stroke-width:8; stroke-opacity:0.5; fill:none" points="742.467,892.6 742.467,1375.66 821.082,1375.66 821.082,892.6 742.467,892.6 "/>
<path clip-path="url(#clip701)" d="M821.082 409.539 L821.082 1375.66 L899.697 1375.66 L899.697 409.539 L821.082 409.539 L821.082 409.539  Z" fill="#008000" fill-rule="evenodd" fill-opacity="0.5"/>
<polyline clip-path="url(#clip701)" style="stroke:#008000; stroke-linecap:round; stroke-linejoin:round; stroke-width:8; stroke-opacity:0.5; fill:none" points="821.082,409.539 821.082,1375.66 899.697,1375.66 899.697,409.539 821.082,409.539 "/>
<path clip-path="url(#clip701)" d="M899.697 409.539 L899.697 1375.66 L978.313 1375.66 L978.313 409.539 L899.697 409.539 L899.697 409.539  Z" fill="#008000" fill-rule="evenodd" fill-opacity="0.5"/>
<polyline clip-path="url(#clip701)" style="stroke:#008000; stroke-linecap:round; stroke-linejoin:round; stroke-width:8; stroke-opacity:0.5; fill:none" points="899.697,409.539 899.697,1375.66 978.313,1375.66 978.313,409.539 899.697,409.539 "/>
<path clip-path="url(#clip701)" d="M978.313 288.774 L978.313 1375.66 L1056.93 1375.66 L1056.93 288.774 L978.313 288.774 L978.313 288.774  Z" fill="#008000" fill-rule="evenodd" fill-opacity="0.5"/>
<polyline clip-path="url(#clip701)" style="stroke:#008000; stroke-linecap:round; stroke-linejoin:round; stroke-width:8; stroke-opacity:0.5; fill:none" points="978.313,288.774 978.313,1375.66 1056.93,1375.66 1056.93,288.774 978.313,288.774 "/>
<path clip-path="url(#clip701)" d="M1056.93 651.069 L1056.93 1375.66 L1135.54 1375.66 L1135.54 651.069 L1056.93 651.069 L1056.93 651.069  Z" fill="#008000" fill-rule="evenodd" fill-opacity="0.5"/>
<polyline clip-path="url(#clip701)" style="stroke:#008000; stroke-linecap:round; stroke-linejoin:round; stroke-width:8; stroke-opacity:0.5; fill:none" points="1056.93,651.069 1056.93,1375.66 1135.54,1375.66 1135.54,651.069 1056.93,651.069 "/>
<path clip-path="url(#clip701)" d="M1135.54 47.2441 L1135.54 1375.66 L1214.16 1375.66 L1214.16 47.2441 L1135.54 47.2441 L1135.54 47.2441  Z" fill="#008000" fill-rule="evenodd" fill-opacity="0.5"/>
<polyline clip-path="url(#clip701)" style="stroke:#008000; stroke-linecap:round; stroke-linejoin:round; stroke-width:8; stroke-opacity:0.5; fill:none" points="1135.54,47.2441 1135.54,1375.66 1214.16,1375.66 1214.16,47.2441 1135.54,47.2441 "/>
<path clip-path="url(#clip701)" d="M1214.16 1013.36 L1214.16 1375.66 L1292.77 1375.66 L1292.77 1013.36 L1214.16 1013.36 L1214.16 1013.36  Z" fill="#008000" fill-rule="evenodd" fill-opacity="0.5"/>
<polyline clip-path="url(#clip701)" style="stroke:#008000; stroke-linecap:round; stroke-linejoin:round; stroke-width:8; stroke-opacity:0.5; fill:none" points="1214.16,1013.36 1214.16,1375.66 1292.77,1375.66 1292.77,1013.36 1214.16,1013.36 "/>
<path clip-path="url(#clip701)" d="M1292.77 892.6 L1292.77 1375.66 L1371.39 1375.66 L1371.39 892.6 L1292.77 892.6 L1292.77 892.6  Z" fill="#008000" fill-rule="evenodd" fill-opacity="0.5"/>
<polyline clip-path="url(#clip701)" style="stroke:#008000; stroke-linecap:round; stroke-linejoin:round; stroke-width:8; stroke-opacity:0.5; fill:none" points="1292.77,892.6 1292.77,1375.66 1371.39,1375.66 1371.39,892.6 1292.77,892.6 "/>
<path clip-path="url(#clip701)" d="M1371.39 1375.66 L1371.39 1375.66 L1450 1375.66 L1450 1375.66 L1371.39 1375.66 L1371.39 1375.66  Z" fill="#008000" fill-rule="evenodd" fill-opacity="0.5"/>
<polyline clip-path="url(#clip701)" style="stroke:#008000; stroke-linecap:round; stroke-linejoin:round; stroke-width:8; stroke-opacity:0.5; fill:none" points="1371.39,1375.66 1371.39,1375.66 1450,1375.66 1371.39,1375.66 "/>
<path clip-path="url(#clip701)" d="M1450 1375.66 L1450 1375.66 L1528.62 1375.66 L1528.62 1375.66 L1450 1375.66 L1450 1375.66  Z" fill="#008000" fill-rule="evenodd" fill-opacity="0.5"/>
<polyline clip-path="url(#clip701)" style="stroke:#008000; stroke-linecap:round; stroke-linejoin:round; stroke-width:8; stroke-opacity:0.5; fill:none" points="1450,1375.66 1450,1375.66 1528.62,1375.66 1450,1375.66 "/>
<path clip-path="url(#clip701)" d="M1528.62 1375.66 L1528.62 1375.66 L1607.23 1375.66 L1607.23 1375.66 L1528.62 1375.66 L1528.62 1375.66  Z" fill="#008000" fill-rule="evenodd" fill-opacity="0.5"/>
<polyline clip-path="url(#clip701)" style="stroke:#008000; stroke-linecap:round; stroke-linejoin:round; stroke-width:8; stroke-opacity:0.5; fill:none" points="1528.62,1375.66 1528.62,1375.66 1607.23,1375.66 1528.62,1375.66 "/>
<path clip-path="url(#clip701)" d="M1607.23 1375.66 L1607.23 1375.66 L1685.85 1375.66 L1685.85 1375.66 L1607.23 1375.66 L1607.23 1375.66  Z" fill="#008000" fill-rule="evenodd" fill-opacity="0.5"/>
<polyline clip-path="url(#clip701)" style="stroke:#008000; stroke-linecap:round; stroke-linejoin:round; stroke-width:8; stroke-opacity:0.5; fill:none" points="1607.23,1375.66 1607.23,1375.66 1685.85,1375.66 1607.23,1375.66 "/>
<path clip-path="url(#clip701)" d="M1685.85 1375.66 L1685.85 1375.66 L1764.46 1375.66 L1764.46 1375.66 L1685.85 1375.66 L1685.85 1375.66  Z" fill="#008000" fill-rule="evenodd" fill-opacity="0.5"/>
<polyline clip-path="url(#clip701)" style="stroke:#008000; stroke-linecap:round; stroke-linejoin:round; stroke-width:8; stroke-opacity:0.5; fill:none" points="1685.85,1375.66 1685.85,1375.66 1764.46,1375.66 1685.85,1375.66 "/>
<path clip-path="url(#clip701)" d="M1764.46 1375.66 L1764.46 1375.66 L1843.08 1375.66 L1843.08 1375.66 L1764.46 1375.66 L1764.46 1375.66  Z" fill="#008000" fill-rule="evenodd" fill-opacity="0.5"/>
<polyline clip-path="url(#clip701)" style="stroke:#008000; stroke-linecap:round; stroke-linejoin:round; stroke-width:8; stroke-opacity:0.5; fill:none" points="1764.46,1375.66 1764.46,1375.66 1843.08,1375.66 1764.46,1375.66 "/>
<path clip-path="url(#clip701)" d="M1843.08 1375.66 L1843.08 1375.66 L1921.69 1375.66 L1921.69 1375.66 L1843.08 1375.66 L1843.08 1375.66  Z" fill="#008000" fill-rule="evenodd" fill-opacity="0.5"/>
<polyline clip-path="url(#clip701)" style="stroke:#008000; stroke-linecap:round; stroke-linejoin:round; stroke-width:8; stroke-opacity:0.5; fill:none" points="1843.08,1375.66 1843.08,1375.66 1921.69,1375.66 1843.08,1375.66 "/>
<path clip-path="url(#clip701)" d="M1921.69 1375.66 L1921.69 1375.66 L2000.31 1375.66 L2000.31 1375.66 L1921.69 1375.66 L1921.69 1375.66  Z" fill="#008000" fill-rule="evenodd" fill-opacity="0.5"/>
<polyline clip-path="url(#clip701)" style="stroke:#008000; stroke-linecap:round; stroke-linejoin:round; stroke-width:8; stroke-opacity:0.5; fill:none" points="1921.69,1375.66 1921.69,1375.66 2000.31,1375.66 1921.69,1375.66 "/>
<path clip-path="url(#clip701)" d="M2000.31 1375.66 L2000.31 1375.66 L2078.92 1375.66 L2078.92 1375.66 L2000.31 1375.66 L2000.31 1375.66  Z" fill="#008000" fill-rule="evenodd" fill-opacity="0.5"/>
<polyline clip-path="url(#clip701)" style="stroke:#008000; stroke-linecap:round; stroke-linejoin:round; stroke-width:8; stroke-opacity:0.5; fill:none" points="2000.31,1375.66 2000.31,1375.66 2078.92,1375.66 2000.31,1375.66 "/>
<path clip-path="url(#clip701)" d="M2078.92 1375.66 L2078.92 1375.66 L2157.54 1375.66 L2157.54 1375.66 L2078.92 1375.66 L2078.92 1375.66  Z" fill="#008000" fill-rule="evenodd" fill-opacity="0.5"/>
<polyline clip-path="url(#clip701)" style="stroke:#008000; stroke-linecap:round; stroke-linejoin:round; stroke-width:8; stroke-opacity:0.5; fill:none" points="2078.92,1375.66 2078.92,1375.66 2157.54,1375.66 2078.92,1375.66 "/>
<path clip-path="url(#clip701)" d="M2157.54 1375.66 L2157.54 1375.66 L2236.15 1375.66 L2236.15 1375.66 L2157.54 1375.66 L2157.54 1375.66  Z" fill="#008000" fill-rule="evenodd" fill-opacity="0.5"/>
<polyline clip-path="url(#clip701)" style="stroke:#008000; stroke-linecap:round; stroke-linejoin:round; stroke-width:8; stroke-opacity:0.5; fill:none" points="2157.54,1375.66 2157.54,1375.66 2236.15,1375.66 2157.54,1375.66 "/>
<circle clip-path="url(#clip701)" style="fill:#008000; stroke:none; fill-opacity:0" cx="388.699" cy="1375.66" r="2"/>
<circle clip-path="url(#clip701)" style="fill:#008000; stroke:none; fill-opacity:0" cx="467.314" cy="1375.66" r="2"/>
<circle clip-path="url(#clip701)" style="fill:#008000; stroke:none; fill-opacity:0" cx="545.93" cy="1254.89" r="2"/>
<circle clip-path="url(#clip701)" style="fill:#008000; stroke:none; fill-opacity:0" cx="624.545" cy="1134.13" r="2"/>
<circle clip-path="url(#clip701)" style="fill:#008000; stroke:none; fill-opacity:0" cx="703.16" cy="892.6" r="2"/>
<circle clip-path="url(#clip701)" style="fill:#008000; stroke:none; fill-opacity:0" cx="781.775" cy="892.6" r="2"/>
<circle clip-path="url(#clip701)" style="fill:#008000; stroke:none; fill-opacity:0" cx="860.39" cy="409.539" r="2"/>
<circle clip-path="url(#clip701)" style="fill:#008000; stroke:none; fill-opacity:0" cx="939.005" cy="409.539" r="2"/>
<circle clip-path="url(#clip701)" style="fill:#008000; stroke:none; fill-opacity:0" cx="1017.62" cy="288.774" r="2"/>
<circle clip-path="url(#clip701)" style="fill:#008000; stroke:none; fill-opacity:0" cx="1096.24" cy="651.069" r="2"/>
<circle clip-path="url(#clip701)" style="fill:#008000; stroke:none; fill-opacity:0" cx="1174.85" cy="47.2441" r="2"/>
<circle clip-path="url(#clip701)" style="fill:#008000; stroke:none; fill-opacity:0" cx="1253.47" cy="1013.36" r="2"/>
<circle clip-path="url(#clip701)" style="fill:#008000; stroke:none; fill-opacity:0" cx="1332.08" cy="892.6" r="2"/>
<circle clip-path="url(#clip701)" style="fill:#008000; stroke:none; fill-opacity:0" cx="1410.7" cy="1375.66" r="2"/>
<circle clip-path="url(#clip701)" style="fill:#008000; stroke:none; fill-opacity:0" cx="1489.31" cy="1375.66" r="2"/>
<circle clip-path="url(#clip701)" style="fill:#008000; stroke:none; fill-opacity:0" cx="1567.93" cy="1375.66" r="2"/>
<circle clip-path="url(#clip701)" style="fill:#008000; stroke:none; fill-opacity:0" cx="1646.54" cy="1375.66" r="2"/>
<circle clip-path="url(#clip701)" style="fill:#008000; stroke:none; fill-opacity:0" cx="1725.16" cy="1375.66" r="2"/>
<circle clip-path="url(#clip701)" style="fill:#008000; stroke:none; fill-opacity:0" cx="1803.77" cy="1375.66" r="2"/>
<circle clip-path="url(#clip701)" style="fill:#008000; stroke:none; fill-opacity:0" cx="1882.39" cy="1375.66" r="2"/>
<circle clip-path="url(#clip701)" style="fill:#008000; stroke:none; fill-opacity:0" cx="1961" cy="1375.66" r="2"/>
<circle clip-path="url(#clip701)" style="fill:#008000; stroke:none; fill-opacity:0" cx="2039.62" cy="1375.66" r="2"/>
<circle clip-path="url(#clip701)" style="fill:#008000; stroke:none; fill-opacity:0" cx="2118.23" cy="1375.66" r="2"/>
<circle clip-path="url(#clip701)" style="fill:#008000; stroke:none; fill-opacity:0" cx="2196.85" cy="1375.66" r="2"/>
<path clip-path="url(#clip701)" d="M349.392 1375.66 L349.392 1375.66 L428.007 1375.66 L428.007 1375.66 L349.392 1375.66 L349.392 1375.66  Z" fill="#0000ff" fill-rule="evenodd" fill-opacity="0.5"/>
<polyline clip-path="url(#clip701)" style="stroke:#0000ff; stroke-linecap:round; stroke-linejoin:round; stroke-width:8; stroke-opacity:0.5; fill:none" points="349.392,1375.66 349.392,1375.66 428.007,1375.66 349.392,1375.66 "/>
<path clip-path="url(#clip701)" d="M428.007 1375.66 L428.007 1375.66 L506.622 1375.66 L506.622 1375.66 L428.007 1375.66 L428.007 1375.66  Z" fill="#0000ff" fill-rule="evenodd" fill-opacity="0.5"/>
<polyline clip-path="url(#clip701)" style="stroke:#0000ff; stroke-linecap:round; stroke-linejoin:round; stroke-width:8; stroke-opacity:0.5; fill:none" points="428.007,1375.66 428.007,1375.66 506.622,1375.66 428.007,1375.66 "/>
<path clip-path="url(#clip701)" d="M506.622 1375.66 L506.622 1375.66 L585.237 1375.66 L585.237 1375.66 L506.622 1375.66 L506.622 1375.66  Z" fill="#0000ff" fill-rule="evenodd" fill-opacity="0.5"/>
<polyline clip-path="url(#clip701)" style="stroke:#0000ff; stroke-linecap:round; stroke-linejoin:round; stroke-width:8; stroke-opacity:0.5; fill:none" points="506.622,1375.66 506.622,1375.66 585.237,1375.66 506.622,1375.66 "/>
<path clip-path="url(#clip701)" d="M585.237 1375.66 L585.237 1375.66 L663.852 1375.66 L663.852 1375.66 L585.237 1375.66 L585.237 1375.66  Z" fill="#0000ff" fill-rule="evenodd" fill-opacity="0.5"/>
<polyline clip-path="url(#clip701)" style="stroke:#0000ff; stroke-linecap:round; stroke-linejoin:round; stroke-width:8; stroke-opacity:0.5; fill:none" points="585.237,1375.66 585.237,1375.66 663.852,1375.66 585.237,1375.66 "/>
<path clip-path="url(#clip701)" d="M663.852 1375.66 L663.852 1375.66 L742.467 1375.66 L742.467 1375.66 L663.852 1375.66 L663.852 1375.66  Z" fill="#0000ff" fill-rule="evenodd" fill-opacity="0.5"/>
<polyline clip-path="url(#clip701)" style="stroke:#0000ff; stroke-linecap:round; stroke-linejoin:round; stroke-width:8; stroke-opacity:0.5; fill:none" points="663.852,1375.66 663.852,1375.66 742.467,1375.66 663.852,1375.66 "/>
<path clip-path="url(#clip701)" d="M742.467 1375.66 L742.467 1375.66 L821.082 1375.66 L821.082 1375.66 L742.467 1375.66 L742.467 1375.66  Z" fill="#0000ff" fill-rule="evenodd" fill-opacity="0.5"/>
<polyline clip-path="url(#clip701)" style="stroke:#0000ff; stroke-linecap:round; stroke-linejoin:round; stroke-width:8; stroke-opacity:0.5; fill:none" points="742.467,1375.66 742.467,1375.66 821.082,1375.66 742.467,1375.66 "/>
<path clip-path="url(#clip701)" d="M821.082 1375.66 L821.082 1375.66 L899.697 1375.66 L899.697 1375.66 L821.082 1375.66 L821.082 1375.66  Z" fill="#0000ff" fill-rule="evenodd" fill-opacity="0.5"/>
<polyline clip-path="url(#clip701)" style="stroke:#0000ff; stroke-linecap:round; stroke-linejoin:round; stroke-width:8; stroke-opacity:0.5; fill:none" points="821.082,1375.66 821.082,1375.66 899.697,1375.66 821.082,1375.66 "/>
<path clip-path="url(#clip701)" d="M899.697 1375.66 L899.697 1375.66 L978.313 1375.66 L978.313 1375.66 L899.697 1375.66 L899.697 1375.66  Z" fill="#0000ff" fill-rule="evenodd" fill-opacity="0.5"/>
<polyline clip-path="url(#clip701)" style="stroke:#0000ff; stroke-linecap:round; stroke-linejoin:round; stroke-width:8; stroke-opacity:0.5; fill:none" points="899.697,1375.66 899.697,1375.66 978.313,1375.66 899.697,1375.66 "/>
<path clip-path="url(#clip701)" d="M978.313 1375.66 L978.313 1375.66 L1056.93 1375.66 L1056.93 1375.66 L978.313 1375.66 L978.313 1375.66  Z" fill="#0000ff" fill-rule="evenodd" fill-opacity="0.5"/>
<polyline clip-path="url(#clip701)" style="stroke:#0000ff; stroke-linecap:round; stroke-linejoin:round; stroke-width:8; stroke-opacity:0.5; fill:none" points="978.313,1375.66 978.313,1375.66 1056.93,1375.66 978.313,1375.66 "/>
<path clip-path="url(#clip701)" d="M1056.93 1254.89 L1056.93 1375.66 L1135.54 1375.66 L1135.54 1254.89 L1056.93 1254.89 L1056.93 1254.89  Z" fill="#0000ff" fill-rule="evenodd" fill-opacity="0.5"/>
<polyline clip-path="url(#clip701)" style="stroke:#0000ff; stroke-linecap:round; stroke-linejoin:round; stroke-width:8; stroke-opacity:0.5; fill:none" points="1056.93,1254.89 1056.93,1375.66 1135.54,1375.66 1135.54,1254.89 1056.93,1254.89 "/>
<path clip-path="url(#clip701)" d="M1135.54 1375.66 L1135.54 1375.66 L1214.16 1375.66 L1214.16 1375.66 L1135.54 1375.66 L1135.54 1375.66  Z" fill="#0000ff" fill-rule="evenodd" fill-opacity="0.5"/>
<polyline clip-path="url(#clip701)" style="stroke:#0000ff; stroke-linecap:round; stroke-linejoin:round; stroke-width:8; stroke-opacity:0.5; fill:none" points="1135.54,1375.66 1135.54,1375.66 1214.16,1375.66 1135.54,1375.66 "/>
<path clip-path="url(#clip701)" d="M1214.16 1013.36 L1214.16 1375.66 L1292.77 1375.66 L1292.77 1013.36 L1214.16 1013.36 L1214.16 1013.36  Z" fill="#0000ff" fill-rule="evenodd" fill-opacity="0.5"/>
<polyline clip-path="url(#clip701)" style="stroke:#0000ff; stroke-linecap:round; stroke-linejoin:round; stroke-width:8; stroke-opacity:0.5; fill:none" points="1214.16,1013.36 1214.16,1375.66 1292.77,1375.66 1292.77,1013.36 1214.16,1013.36 "/>
<path clip-path="url(#clip701)" d="M1292.77 1013.36 L1292.77 1375.66 L1371.39 1375.66 L1371.39 1013.36 L1292.77 1013.36 L1292.77 1013.36  Z" fill="#0000ff" fill-rule="evenodd" fill-opacity="0.5"/>
<polyline clip-path="url(#clip701)" style="stroke:#0000ff; stroke-linecap:round; stroke-linejoin:round; stroke-width:8; stroke-opacity:0.5; fill:none" points="1292.77,1013.36 1292.77,1375.66 1371.39,1375.66 1371.39,1013.36 1292.77,1013.36 "/>
<path clip-path="url(#clip701)" d="M1371.39 530.304 L1371.39 1375.66 L1450 1375.66 L1450 530.304 L1371.39 530.304 L1371.39 530.304  Z" fill="#0000ff" fill-rule="evenodd" fill-opacity="0.5"/>
<polyline clip-path="url(#clip701)" style="stroke:#0000ff; stroke-linecap:round; stroke-linejoin:round; stroke-width:8; stroke-opacity:0.5; fill:none" points="1371.39,530.304 1371.39,1375.66 1450,1375.66 1450,530.304 1371.39,530.304 "/>
<path clip-path="url(#clip701)" d="M1450 409.539 L1450 1375.66 L1528.62 1375.66 L1528.62 409.539 L1450 409.539 L1450 409.539  Z" fill="#0000ff" fill-rule="evenodd" fill-opacity="0.5"/>
<polyline clip-path="url(#clip701)" style="stroke:#0000ff; stroke-linecap:round; stroke-linejoin:round; stroke-width:8; stroke-opacity:0.5; fill:none" points="1450,409.539 1450,1375.66 1528.62,1375.66 1528.62,409.539 1450,409.539 "/>
<path clip-path="url(#clip701)" d="M1528.62 47.2441 L1528.62 1375.66 L1607.23 1375.66 L1607.23 47.2441 L1528.62 47.2441 L1528.62 47.2441  Z" fill="#0000ff" fill-rule="evenodd" fill-opacity="0.5"/>
<polyline clip-path="url(#clip701)" style="stroke:#0000ff; stroke-linecap:round; stroke-linejoin:round; stroke-width:8; stroke-opacity:0.5; fill:none" points="1528.62,47.2441 1528.62,1375.66 1607.23,1375.66 1607.23,47.2441 1528.62,47.2441 "/>
<path clip-path="url(#clip701)" d="M1607.23 651.069 L1607.23 1375.66 L1685.85 1375.66 L1685.85 651.069 L1607.23 651.069 L1607.23 651.069  Z" fill="#0000ff" fill-rule="evenodd" fill-opacity="0.5"/>
<polyline clip-path="url(#clip701)" style="stroke:#0000ff; stroke-linecap:round; stroke-linejoin:round; stroke-width:8; stroke-opacity:0.5; fill:none" points="1607.23,651.069 1607.23,1375.66 1685.85,1375.66 1685.85,651.069 1607.23,651.069 "/>
<path clip-path="url(#clip701)" d="M1685.85 771.835 L1685.85 1375.66 L1764.46 1375.66 L1764.46 771.835 L1685.85 771.835 L1685.85 771.835  Z" fill="#0000ff" fill-rule="evenodd" fill-opacity="0.5"/>
<polyline clip-path="url(#clip701)" style="stroke:#0000ff; stroke-linecap:round; stroke-linejoin:round; stroke-width:8; stroke-opacity:0.5; fill:none" points="1685.85,771.835 1685.85,1375.66 1764.46,1375.66 1764.46,771.835 1685.85,771.835 "/>
<path clip-path="url(#clip701)" d="M1764.46 892.6 L1764.46 1375.66 L1843.08 1375.66 L1843.08 892.6 L1764.46 892.6 L1764.46 892.6  Z" fill="#0000ff" fill-rule="evenodd" fill-opacity="0.5"/>
<polyline clip-path="url(#clip701)" style="stroke:#0000ff; stroke-linecap:round; stroke-linejoin:round; stroke-width:8; stroke-opacity:0.5; fill:none" points="1764.46,892.6 1764.46,1375.66 1843.08,1375.66 1843.08,892.6 1764.46,892.6 "/>
<path clip-path="url(#clip701)" d="M1843.08 1134.13 L1843.08 1375.66 L1921.69 1375.66 L1921.69 1134.13 L1843.08 1134.13 L1843.08 1134.13  Z" fill="#0000ff" fill-rule="evenodd" fill-opacity="0.5"/>
<polyline clip-path="url(#clip701)" style="stroke:#0000ff; stroke-linecap:round; stroke-linejoin:round; stroke-width:8; stroke-opacity:0.5; fill:none" points="1843.08,1134.13 1843.08,1375.66 1921.69,1375.66 1921.69,1134.13 1843.08,1134.13 "/>
<path clip-path="url(#clip701)" d="M1921.69 1375.66 L1921.69 1375.66 L2000.31 1375.66 L2000.31 1375.66 L1921.69 1375.66 L1921.69 1375.66  Z" fill="#0000ff" fill-rule="evenodd" fill-opacity="0.5"/>
<polyline clip-path="url(#clip701)" style="stroke:#0000ff; stroke-linecap:round; stroke-linejoin:round; stroke-width:8; stroke-opacity:0.5; fill:none" points="1921.69,1375.66 1921.69,1375.66 2000.31,1375.66 1921.69,1375.66 "/>
<path clip-path="url(#clip701)" d="M2000.31 1375.66 L2000.31 1375.66 L2078.92 1375.66 L2078.92 1375.66 L2000.31 1375.66 L2000.31 1375.66  Z" fill="#0000ff" fill-rule="evenodd" fill-opacity="0.5"/>
<polyline clip-path="url(#clip701)" style="stroke:#0000ff; stroke-linecap:round; stroke-linejoin:round; stroke-width:8; stroke-opacity:0.5; fill:none" points="2000.31,1375.66 2000.31,1375.66 2078.92,1375.66 2000.31,1375.66 "/>
<path clip-path="url(#clip701)" d="M2078.92 1375.66 L2078.92 1375.66 L2157.54 1375.66 L2157.54 1375.66 L2078.92 1375.66 L2078.92 1375.66  Z" fill="#0000ff" fill-rule="evenodd" fill-opacity="0.5"/>
<polyline clip-path="url(#clip701)" style="stroke:#0000ff; stroke-linecap:round; stroke-linejoin:round; stroke-width:8; stroke-opacity:0.5; fill:none" points="2078.92,1375.66 2078.92,1375.66 2157.54,1375.66 2078.92,1375.66 "/>
<path clip-path="url(#clip701)" d="M2157.54 1375.66 L2157.54 1375.66 L2236.15 1375.66 L2236.15 1375.66 L2157.54 1375.66 L2157.54 1375.66  Z" fill="#0000ff" fill-rule="evenodd" fill-opacity="0.5"/>
<polyline clip-path="url(#clip701)" style="stroke:#0000ff; stroke-linecap:round; stroke-linejoin:round; stroke-width:8; stroke-opacity:0.5; fill:none" points="2157.54,1375.66 2157.54,1375.66 2236.15,1375.66 2157.54,1375.66 "/>
<circle clip-path="url(#clip701)" style="fill:#0000ff; stroke:none; fill-opacity:0" cx="388.699" cy="1375.66" r="2"/>
<circle clip-path="url(#clip701)" style="fill:#0000ff; stroke:none; fill-opacity:0" cx="467.314" cy="1375.66" r="2"/>
<circle clip-path="url(#clip701)" style="fill:#0000ff; stroke:none; fill-opacity:0" cx="545.93" cy="1375.66" r="2"/>
<circle clip-path="url(#clip701)" style="fill:#0000ff; stroke:none; fill-opacity:0" cx="624.545" cy="1375.66" r="2"/>
<circle clip-path="url(#clip701)" style="fill:#0000ff; stroke:none; fill-opacity:0" cx="703.16" cy="1375.66" r="2"/>
<circle clip-path="url(#clip701)" style="fill:#0000ff; stroke:none; fill-opacity:0" cx="781.775" cy="1375.66" r="2"/>
<circle clip-path="url(#clip701)" style="fill:#0000ff; stroke:none; fill-opacity:0" cx="860.39" cy="1375.66" r="2"/>
<circle clip-path="url(#clip701)" style="fill:#0000ff; stroke:none; fill-opacity:0" cx="939.005" cy="1375.66" r="2"/>
<circle clip-path="url(#clip701)" style="fill:#0000ff; stroke:none; fill-opacity:0" cx="1017.62" cy="1375.66" r="2"/>
<circle clip-path="url(#clip701)" style="fill:#0000ff; stroke:none; fill-opacity:0" cx="1096.24" cy="1254.89" r="2"/>
<circle clip-path="url(#clip701)" style="fill:#0000ff; stroke:none; fill-opacity:0" cx="1174.85" cy="1375.66" r="2"/>
<circle clip-path="url(#clip701)" style="fill:#0000ff; stroke:none; fill-opacity:0" cx="1253.47" cy="1013.36" r="2"/>
<circle clip-path="url(#clip701)" style="fill:#0000ff; stroke:none; fill-opacity:0" cx="1332.08" cy="1013.36" r="2"/>
<circle clip-path="url(#clip701)" style="fill:#0000ff; stroke:none; fill-opacity:0" cx="1410.7" cy="530.304" r="2"/>
<circle clip-path="url(#clip701)" style="fill:#0000ff; stroke:none; fill-opacity:0" cx="1489.31" cy="409.539" r="2"/>
<circle clip-path="url(#clip701)" style="fill:#0000ff; stroke:none; fill-opacity:0" cx="1567.93" cy="47.2441" r="2"/>
<circle clip-path="url(#clip701)" style="fill:#0000ff; stroke:none; fill-opacity:0" cx="1646.54" cy="651.069" r="2"/>
<circle clip-path="url(#clip701)" style="fill:#0000ff; stroke:none; fill-opacity:0" cx="1725.16" cy="771.835" r="2"/>
<circle clip-path="url(#clip701)" style="fill:#0000ff; stroke:none; fill-opacity:0" cx="1803.77" cy="892.6" r="2"/>
<circle clip-path="url(#clip701)" style="fill:#0000ff; stroke:none; fill-opacity:0" cx="1882.39" cy="1134.13" r="2"/>
<circle clip-path="url(#clip701)" style="fill:#0000ff; stroke:none; fill-opacity:0" cx="1961" cy="1375.66" r="2"/>
<circle clip-path="url(#clip701)" style="fill:#0000ff; stroke:none; fill-opacity:0" cx="2039.62" cy="1375.66" r="2"/>
<circle clip-path="url(#clip701)" style="fill:#0000ff; stroke:none; fill-opacity:0" cx="2118.23" cy="1375.66" r="2"/>
<circle clip-path="url(#clip701)" style="fill:#0000ff; stroke:none; fill-opacity:0" cx="2196.85" cy="1375.66" r="2"/>
<path clip-path="url(#clip700)" d="M1306.61 441.445 L2282.09 441.445 L2282.09 91.5246 L1306.61 91.5246  Z" fill="#ffffff" fill-rule="evenodd" fill-opacity="1"/>
<polyline clip-path="url(#clip700)" style="stroke:#000000; stroke-linecap:round; stroke-linejoin:round; stroke-width:4; stroke-opacity:1; fill:none" points="1306.61,441.445 2282.09,441.445 2282.09,91.5246 1306.61,91.5246 1306.61,441.445 "/>
<path clip-path="url(#clip700)" d="M1330.16 254.821 L1471.49 254.821 L1471.49 161.509 L1330.16 161.509 L1330.16 254.821  Z" fill="#008000" fill-rule="evenodd" fill-opacity="0.5"/>
<polyline clip-path="url(#clip700)" style="stroke:#008000; stroke-linecap:round; stroke-linejoin:round; stroke-width:18; stroke-opacity:1; fill:none" points="1330.16,254.821 1471.49,254.821 1471.49,161.509 1330.16,161.509 1330.16,254.821 "/>
<path clip-path="url(#clip700)" d="M1541.2 190.951 L1541.2 199.909 Q1537.13 197.67 1533.02 196.576 Q1528.96 195.43 1524.79 195.43 Q1515.47 195.43 1510.31 201.368 Q1505.15 207.253 1505.15 217.93 Q1505.15 228.607 1510.31 234.545 Q1515.47 240.43 1524.79 240.43 Q1528.96 240.43 1533.02 239.336 Q1537.13 238.191 1541.2 235.951 L1541.2 244.805 Q1537.18 246.68 1532.86 247.618 Q1528.59 248.555 1523.75 248.555 Q1510.57 248.555 1502.81 240.274 Q1495.05 231.993 1495.05 217.93 Q1495.05 203.659 1502.86 195.482 Q1510.73 187.305 1524.37 187.305 Q1528.8 187.305 1533.02 188.243 Q1537.24 189.128 1541.2 190.951 Z" fill="#000000" fill-rule="nonzero" fill-opacity="1" /><path clip-path="url(#clip700)" d="M1557.86 166.003 L1567.45 166.003 L1567.45 247.045 L1557.86 247.045 L1557.86 166.003 Z" fill="#000000" fill-rule="nonzero" fill-opacity="1" /><path clip-path="url(#clip700)" d="M1614.01 217.722 Q1602.39 217.722 1597.91 220.378 Q1593.43 223.034 1593.43 229.441 Q1593.43 234.545 1596.77 237.566 Q1600.15 240.534 1605.93 240.534 Q1613.9 240.534 1618.69 234.909 Q1623.54 229.232 1623.54 219.857 L1623.54 217.722 L1614.01 217.722 M1633.12 213.764 L1633.12 247.045 L1623.54 247.045 L1623.54 238.191 Q1620.26 243.503 1615.36 246.055 Q1610.47 248.555 1603.38 248.555 Q1594.42 248.555 1589.11 243.555 Q1583.85 238.503 1583.85 230.066 Q1583.85 220.222 1590.41 215.222 Q1597.03 210.222 1610.1 210.222 L1623.54 210.222 L1623.54 209.284 Q1623.54 202.67 1619.16 199.076 Q1614.84 195.43 1606.98 195.43 Q1601.98 195.43 1597.24 196.628 Q1592.5 197.826 1588.12 200.222 L1588.12 191.368 Q1593.38 189.337 1598.33 188.347 Q1603.28 187.305 1607.97 187.305 Q1620.62 187.305 1626.87 193.868 Q1633.12 200.43 1633.12 213.764 Z" fill="#000000" fill-rule="nonzero" fill-opacity="1" /><path clip-path="url(#clip700)" d="M1690.05 190.43 L1690.05 199.493 Q1685.99 197.409 1681.61 196.368 Q1677.24 195.326 1672.55 195.326 Q1665.41 195.326 1661.82 197.514 Q1658.28 199.701 1658.28 204.076 Q1658.28 207.409 1660.83 209.336 Q1663.38 211.211 1671.09 212.93 L1674.37 213.659 Q1684.58 215.847 1688.85 219.857 Q1693.17 223.816 1693.17 230.951 Q1693.17 239.076 1686.72 243.815 Q1680.31 248.555 1669.06 248.555 Q1664.37 248.555 1659.27 247.618 Q1654.22 246.732 1648.59 244.909 L1648.59 235.013 Q1653.9 237.774 1659.06 239.18 Q1664.22 240.534 1669.27 240.534 Q1676.04 240.534 1679.68 238.243 Q1683.33 235.899 1683.33 231.68 Q1683.33 227.774 1680.67 225.691 Q1678.07 223.607 1669.16 221.68 L1665.83 220.899 Q1656.92 219.024 1652.97 215.17 Q1649.01 211.264 1649.01 204.493 Q1649.01 196.264 1654.84 191.784 Q1660.67 187.305 1671.4 187.305 Q1676.72 187.305 1681.4 188.087 Q1686.09 188.868 1690.05 190.43 Z" fill="#000000" fill-rule="nonzero" fill-opacity="1" /><path clip-path="url(#clip700)" d="M1745.62 190.43 L1745.62 199.493 Q1741.56 197.409 1737.18 196.368 Q1732.81 195.326 1728.12 195.326 Q1720.99 195.326 1717.39 197.514 Q1713.85 199.701 1713.85 204.076 Q1713.85 207.409 1716.4 209.336 Q1718.95 211.211 1726.66 212.93 L1729.94 213.659 Q1740.15 215.847 1744.42 219.857 Q1748.75 223.816 1748.75 230.951 Q1748.75 239.076 1742.29 243.815 Q1735.88 248.555 1724.63 248.555 Q1719.94 248.555 1714.84 247.618 Q1709.79 246.732 1704.16 244.909 L1704.16 235.013 Q1709.48 237.774 1714.63 239.18 Q1719.79 240.534 1724.84 240.534 Q1731.61 240.534 1735.26 238.243 Q1738.9 235.899 1738.9 231.68 Q1738.9 227.774 1736.25 225.691 Q1733.64 223.607 1724.74 221.68 L1721.4 220.899 Q1712.5 219.024 1708.54 215.17 Q1704.58 211.264 1704.58 204.493 Q1704.58 196.264 1710.41 191.784 Q1716.25 187.305 1726.98 187.305 Q1732.29 187.305 1736.98 188.087 Q1741.66 188.868 1745.62 190.43 Z" fill="#000000" fill-rule="nonzero" fill-opacity="1" /><path clip-path="url(#clip700)" d="M1821.77 176.212 Q1813.64 176.212 1809.53 184.232 Q1805.46 192.201 1805.46 208.243 Q1805.46 224.232 1809.53 232.253 Q1813.64 240.222 1821.77 240.222 Q1829.94 240.222 1834.01 232.253 Q1838.12 224.232 1838.12 208.243 Q1838.12 192.201 1834.01 184.232 Q1829.94 176.212 1821.77 176.212 M1821.77 167.878 Q1834.84 167.878 1841.71 178.243 Q1848.64 188.555 1848.64 208.243 Q1848.64 227.878 1841.71 238.243 Q1834.84 248.555 1821.77 248.555 Q1808.69 248.555 1801.77 238.243 Q1794.89 227.878 1794.89 208.243 Q1794.89 188.555 1801.77 178.243 Q1808.69 167.878 1821.77 167.878 Z" fill="#000000" fill-rule="nonzero" fill-opacity="1" /><path clip-path="url(#clip700)" d="M1868.22 233.816 L1879.21 233.816 L1879.21 247.045 L1868.22 247.045 L1868.22 233.816 M1868.22 191.889 L1879.21 191.889 L1879.21 205.118 L1868.22 205.118 L1868.22 191.889 Z" fill="#000000" fill-rule="nonzero" fill-opacity="1" /><path clip-path="url(#clip700)" d="M1937.29 245.43 L1937.29 235.847 Q1941.25 237.722 1945.31 238.711 Q1949.37 239.701 1953.28 239.701 Q1963.69 239.701 1969.16 232.722 Q1974.68 225.691 1975.46 211.42 Q1972.44 215.899 1967.81 218.295 Q1963.17 220.691 1957.55 220.691 Q1945.88 220.691 1939.06 213.659 Q1932.29 206.576 1932.29 194.337 Q1932.29 182.357 1939.37 175.118 Q1946.45 167.878 1958.22 167.878 Q1971.71 167.878 1978.8 178.243 Q1985.93 188.555 1985.93 208.243 Q1985.93 226.628 1977.18 237.618 Q1968.48 248.555 1953.75 248.555 Q1949.79 248.555 1945.72 247.774 Q1941.66 246.993 1937.29 245.43 M1958.22 212.461 Q1965.31 212.461 1969.42 207.618 Q1973.59 202.774 1973.59 194.337 Q1973.59 185.951 1969.42 181.107 Q1965.31 176.212 1958.22 176.212 Q1951.14 176.212 1946.97 181.107 Q1942.86 185.951 1942.86 194.337 Q1942.86 202.774 1946.97 207.618 Q1951.14 212.461 1958.22 212.461 Z" fill="#000000" fill-rule="nonzero" fill-opacity="1" /><path clip-path="url(#clip700)" d="M2036.71 205.118 Q2044.27 206.732 2048.48 211.836 Q2052.76 216.941 2052.76 224.441 Q2052.76 235.951 2044.84 242.253 Q2036.92 248.555 2022.34 248.555 Q2017.44 248.555 2012.23 247.565 Q2007.08 246.628 2001.56 244.701 L2001.56 234.545 Q2005.93 237.097 2011.14 238.399 Q2016.35 239.701 2022.03 239.701 Q2031.92 239.701 2037.08 235.795 Q2042.29 231.888 2042.29 224.441 Q2042.29 217.566 2037.44 213.711 Q2032.65 209.805 2024.06 209.805 L2014.99 209.805 L2014.99 201.159 L2024.47 201.159 Q2032.23 201.159 2036.35 198.087 Q2040.46 194.962 2040.46 189.128 Q2040.46 183.139 2036.19 179.962 Q2031.97 176.732 2024.06 176.732 Q2019.73 176.732 2014.79 177.67 Q2009.84 178.607 2003.9 180.587 L2003.9 171.212 Q2009.89 169.545 2015.1 168.712 Q2020.36 167.878 2024.99 167.878 Q2036.97 167.878 2043.95 173.347 Q2050.93 178.764 2050.93 188.035 Q2050.93 194.493 2047.23 198.972 Q2043.54 203.399 2036.71 205.118 Z" fill="#000000" fill-rule="nonzero" fill-opacity="1" /><path clip-path="url(#clip700)" d="M2072.7 233.816 L2083.69 233.816 L2083.69 247.045 L2072.7 247.045 L2072.7 233.816 Z" fill="#000000" fill-rule="nonzero" fill-opacity="1" /><path clip-path="url(#clip700)" d="M2138.48 205.118 Q2146.04 206.732 2150.25 211.836 Q2154.53 216.941 2154.53 224.441 Q2154.53 235.951 2146.61 242.253 Q2138.69 248.555 2124.11 248.555 Q2119.21 248.555 2114 247.565 Q2108.85 246.628 2103.33 244.701 L2103.33 234.545 Q2107.7 237.097 2112.91 238.399 Q2118.12 239.701 2123.8 239.701 Q2133.69 239.701 2138.85 235.795 Q2144.06 231.888 2144.06 224.441 Q2144.06 217.566 2139.21 213.711 Q2134.42 209.805 2125.83 209.805 L2116.77 209.805 L2116.77 201.159 L2126.24 201.159 Q2134 201.159 2138.12 198.087 Q2142.23 194.962 2142.23 189.128 Q2142.23 183.139 2137.96 179.962 Q2133.74 176.732 2125.83 176.732 Q2121.5 176.732 2116.56 177.67 Q2111.61 178.607 2105.67 180.587 L2105.67 171.212 Q2111.66 169.545 2116.87 168.712 Q2122.13 167.878 2126.77 167.878 Q2138.74 167.878 2145.72 173.347 Q2152.7 178.764 2152.7 188.035 Q2152.7 194.493 2149 198.972 Q2145.31 203.399 2138.48 205.118 Z" fill="#000000" fill-rule="nonzero" fill-opacity="1" /><path clip-path="url(#clip700)" d="M2240.62 212.826 Q2236.09 212.826 2233.48 216.68 Q2230.93 220.534 2230.93 227.409 Q2230.93 234.18 2233.48 238.086 Q2236.09 241.94 2240.62 241.94 Q2245.05 241.94 2247.6 238.086 Q2250.2 234.18 2250.2 227.409 Q2250.2 220.586 2247.6 216.732 Q2245.05 212.826 2240.62 212.826 M2240.62 206.212 Q2248.85 206.212 2253.69 211.941 Q2258.54 217.67 2258.54 227.409 Q2258.54 237.149 2253.64 242.878 Q2248.8 248.555 2240.62 248.555 Q2232.29 248.555 2227.44 242.878 Q2222.6 237.149 2222.6 227.409 Q2222.6 217.618 2227.44 211.941 Q2232.34 206.212 2240.62 206.212 M2186.87 174.493 Q2182.39 174.493 2179.79 178.399 Q2177.23 182.253 2177.23 189.024 Q2177.23 195.899 2179.79 199.753 Q2182.34 203.607 2186.87 203.607 Q2191.4 203.607 2193.95 199.753 Q2196.56 195.899 2196.56 189.024 Q2196.56 182.305 2193.95 178.399 Q2191.35 174.493 2186.87 174.493 M2233.9 167.878 L2242.23 167.878 L2193.59 248.555 L2185.25 248.555 L2233.9 167.878 M2186.87 167.878 Q2195.1 167.878 2199.99 173.608 Q2204.89 179.285 2204.89 189.024 Q2204.89 198.868 2199.99 204.545 Q2195.15 210.222 2186.87 210.222 Q2178.59 210.222 2173.74 204.545 Q2168.95 198.816 2168.95 189.024 Q2168.95 179.337 2173.8 173.608 Q2178.64 167.878 2186.87 167.878 Z" fill="#000000" fill-rule="nonzero" fill-opacity="1" /><path clip-path="url(#clip700)" d="M1330.16 371.461 L1471.49 371.461 L1471.49 278.149 L1330.16 278.149 L1330.16 371.461  Z" fill="#0000ff" fill-rule="evenodd" fill-opacity="0.5"/>
<polyline clip-path="url(#clip700)" style="stroke:#0000ff; stroke-linecap:round; stroke-linejoin:round; stroke-width:18; stroke-opacity:1; fill:none" points="1330.16,371.461 1471.49,371.461 1471.49,278.149 1330.16,278.149 1330.16,371.461 "/>
<path clip-path="url(#clip700)" d="M1541.2 307.591 L1541.2 316.549 Q1537.13 314.31 1533.02 313.216 Q1528.96 312.07 1524.79 312.07 Q1515.47 312.07 1510.31 318.008 Q1505.15 323.893 1505.15 334.57 Q1505.15 345.247 1510.31 351.185 Q1515.47 357.07 1524.79 357.07 Q1528.96 357.07 1533.02 355.976 Q1537.13 354.831 1541.2 352.591 L1541.2 361.445 Q1537.18 363.32 1532.86 364.258 Q1528.59 365.195 1523.75 365.195 Q1510.57 365.195 1502.81 356.914 Q1495.05 348.633 1495.05 334.57 Q1495.05 320.299 1502.86 312.122 Q1510.73 303.945 1524.37 303.945 Q1528.8 303.945 1533.02 304.883 Q1537.24 305.768 1541.2 307.591 Z" fill="#000000" fill-rule="nonzero" fill-opacity="1" /><path clip-path="url(#clip700)" d="M1557.86 282.643 L1567.45 282.643 L1567.45 363.685 L1557.86 363.685 L1557.86 282.643 Z" fill="#000000" fill-rule="nonzero" fill-opacity="1" /><path clip-path="url(#clip700)" d="M1614.01 334.362 Q1602.39 334.362 1597.91 337.018 Q1593.43 339.674 1593.43 346.081 Q1593.43 351.185 1596.77 354.206 Q1600.15 357.174 1605.93 357.174 Q1613.9 357.174 1618.69 351.549 Q1623.54 345.872 1623.54 336.497 L1623.54 334.362 L1614.01 334.362 M1633.12 330.404 L1633.12 363.685 L1623.54 363.685 L1623.54 354.831 Q1620.26 360.143 1615.36 362.695 Q1610.47 365.195 1603.38 365.195 Q1594.42 365.195 1589.11 360.195 Q1583.85 355.143 1583.85 346.706 Q1583.85 336.862 1590.41 331.862 Q1597.03 326.862 1610.1 326.862 L1623.54 326.862 L1623.54 325.924 Q1623.54 319.31 1619.16 315.716 Q1614.84 312.07 1606.98 312.07 Q1601.98 312.07 1597.24 313.268 Q1592.5 314.466 1588.12 316.862 L1588.12 308.008 Q1593.38 305.977 1598.33 304.987 Q1603.28 303.945 1607.97 303.945 Q1620.62 303.945 1626.87 310.508 Q1633.12 317.07 1633.12 330.404 Z" fill="#000000" fill-rule="nonzero" fill-opacity="1" /><path clip-path="url(#clip700)" d="M1690.05 307.07 L1690.05 316.133 Q1685.99 314.049 1681.61 313.008 Q1677.24 311.966 1672.55 311.966 Q1665.41 311.966 1661.82 314.154 Q1658.28 316.341 1658.28 320.716 Q1658.28 324.049 1660.83 325.976 Q1663.38 327.851 1671.09 329.57 L1674.37 330.299 Q1684.58 332.487 1688.85 336.497 Q1693.17 340.456 1693.17 347.591 Q1693.17 355.716 1686.72 360.455 Q1680.31 365.195 1669.06 365.195 Q1664.37 365.195 1659.27 364.258 Q1654.22 363.372 1648.59 361.549 L1648.59 351.653 Q1653.9 354.414 1659.06 355.82 Q1664.22 357.174 1669.27 357.174 Q1676.04 357.174 1679.68 354.883 Q1683.33 352.539 1683.33 348.32 Q1683.33 344.414 1680.67 342.331 Q1678.07 340.247 1669.16 338.32 L1665.83 337.539 Q1656.92 335.664 1652.97 331.81 Q1649.01 327.904 1649.01 321.133 Q1649.01 312.904 1654.84 308.424 Q1660.67 303.945 1671.4 303.945 Q1676.72 303.945 1681.4 304.727 Q1686.09 305.508 1690.05 307.07 Z" fill="#000000" fill-rule="nonzero" fill-opacity="1" /><path clip-path="url(#clip700)" d="M1745.62 307.07 L1745.62 316.133 Q1741.56 314.049 1737.18 313.008 Q1732.81 311.966 1728.12 311.966 Q1720.99 311.966 1717.39 314.154 Q1713.85 316.341 1713.85 320.716 Q1713.85 324.049 1716.4 325.976 Q1718.95 327.851 1726.66 329.57 L1729.94 330.299 Q1740.15 332.487 1744.42 336.497 Q1748.75 340.456 1748.75 347.591 Q1748.75 355.716 1742.29 360.455 Q1735.88 365.195 1724.63 365.195 Q1719.94 365.195 1714.84 364.258 Q1709.79 363.372 1704.16 361.549 L1704.16 351.653 Q1709.48 354.414 1714.63 355.82 Q1719.79 357.174 1724.84 357.174 Q1731.61 357.174 1735.26 354.883 Q1738.9 352.539 1738.9 348.32 Q1738.9 344.414 1736.25 342.331 Q1733.64 340.247 1724.74 338.32 L1721.4 337.539 Q1712.5 335.664 1708.54 331.81 Q1704.58 327.904 1704.58 321.133 Q1704.58 312.904 1710.41 308.424 Q1716.25 303.945 1726.98 303.945 Q1732.29 303.945 1736.98 304.727 Q1741.66 305.508 1745.62 307.07 Z" fill="#000000" fill-rule="nonzero" fill-opacity="1" /><path clip-path="url(#clip700)" d="M1801.09 354.831 L1818.28 354.831 L1818.28 295.508 L1799.58 299.258 L1799.58 289.675 L1818.17 285.925 L1828.69 285.925 L1828.69 354.831 L1845.88 354.831 L1845.88 363.685 L1801.09 363.685 L1801.09 354.831 Z" fill="#000000" fill-rule="nonzero" fill-opacity="1" /><path clip-path="url(#clip700)" d="M1868.22 350.456 L1879.21 350.456 L1879.21 363.685 L1868.22 363.685 L1868.22 350.456 M1868.22 308.529 L1879.21 308.529 L1879.21 321.758 L1868.22 321.758 L1868.22 308.529 Z" fill="#000000" fill-rule="nonzero" fill-opacity="1" /><path clip-path="url(#clip700)" d="M1937.29 362.07 L1937.29 352.487 Q1941.25 354.362 1945.31 355.351 Q1949.37 356.341 1953.28 356.341 Q1963.69 356.341 1969.16 349.362 Q1974.68 342.331 1975.46 328.06 Q1972.44 332.539 1967.81 334.935 Q1963.17 337.331 1957.55 337.331 Q1945.88 337.331 1939.06 330.299 Q1932.29 323.216 1932.29 310.977 Q1932.29 298.997 1939.37 291.758 Q1946.45 284.518 1958.22 284.518 Q1971.71 284.518 1978.8 294.883 Q1985.93 305.195 1985.93 324.883 Q1985.93 343.268 1977.18 354.258 Q1968.48 365.195 1953.75 365.195 Q1949.79 365.195 1945.72 364.414 Q1941.66 363.633 1937.29 362.07 M1958.22 329.101 Q1965.31 329.101 1969.42 324.258 Q1973.59 319.414 1973.59 310.977 Q1973.59 302.591 1969.42 297.747 Q1965.31 292.852 1958.22 292.852 Q1951.14 292.852 1946.97 297.747 Q1942.86 302.591 1942.86 310.977 Q1942.86 319.414 1946.97 324.258 Q1951.14 329.101 1958.22 329.101 Z" fill="#000000" fill-rule="nonzero" fill-opacity="1" /><path clip-path="url(#clip700)" d="M2013.9 354.831 L2050.62 354.831 L2050.62 363.685 L2001.24 363.685 L2001.24 354.831 Q2007.23 348.633 2017.55 338.216 Q2027.91 327.747 2030.57 324.726 Q2035.62 319.049 2037.6 315.143 Q2039.63 311.185 2039.63 307.383 Q2039.63 301.185 2035.26 297.279 Q2030.93 293.372 2023.95 293.372 Q2019.01 293.372 2013.48 295.091 Q2008.02 296.81 2001.77 300.3 L2001.77 289.675 Q2008.12 287.123 2013.64 285.82 Q2019.16 284.518 2023.74 284.518 Q2035.83 284.518 2043.02 290.56 Q2050.2 296.602 2050.2 306.706 Q2050.2 311.497 2048.38 315.82 Q2046.61 320.091 2041.87 325.924 Q2040.57 327.435 2033.59 334.674 Q2026.61 341.862 2013.9 354.831 Z" fill="#000000" fill-rule="nonzero" fill-opacity="1" /><path clip-path="url(#clip700)" d="M2072.7 350.456 L2083.69 350.456 L2083.69 363.685 L2072.7 363.685 L2072.7 350.456 Z" fill="#000000" fill-rule="nonzero" fill-opacity="1" /><path clip-path="url(#clip700)" d="M2129.11 292.852 Q2120.98 292.852 2116.87 300.872 Q2112.81 308.841 2112.81 324.883 Q2112.81 340.872 2116.87 348.893 Q2120.98 356.862 2129.11 356.862 Q2137.29 356.862 2141.35 348.893 Q2145.46 340.872 2145.46 324.883 Q2145.46 308.841 2141.35 300.872 Q2137.29 292.852 2129.11 292.852 M2129.11 284.518 Q2142.18 284.518 2149.06 294.883 Q2155.98 305.195 2155.98 324.883 Q2155.98 344.518 2149.06 354.883 Q2142.18 365.195 2129.11 365.195 Q2116.04 365.195 2109.11 354.883 Q2102.23 344.518 2102.23 324.883 Q2102.23 305.195 2109.11 294.883 Q2116.04 284.518 2129.11 284.518 Z" fill="#000000" fill-rule="nonzero" fill-opacity="1" /><path clip-path="url(#clip700)" d="M2240.62 329.466 Q2236.09 329.466 2233.48 333.32 Q2230.93 337.174 2230.93 344.049 Q2230.93 350.82 2233.48 354.726 Q2236.09 358.58 2240.62 358.58 Q2245.05 358.58 2247.6 354.726 Q2250.2 350.82 2250.2 344.049 Q2250.2 337.226 2247.6 333.372 Q2245.05 329.466 2240.62 329.466 M2240.62 322.852 Q2248.85 322.852 2253.69 328.581 Q2258.54 334.31 2258.54 344.049 Q2258.54 353.789 2253.64 359.518 Q2248.8 365.195 2240.62 365.195 Q2232.29 365.195 2227.44 359.518 Q2222.6 353.789 2222.6 344.049 Q2222.6 334.258 2227.44 328.581 Q2232.34 322.852 2240.62 322.852 M2186.87 291.133 Q2182.39 291.133 2179.79 295.039 Q2177.23 298.893 2177.23 305.664 Q2177.23 312.539 2179.79 316.393 Q2182.34 320.247 2186.87 320.247 Q2191.4 320.247 2193.95 316.393 Q2196.56 312.539 2196.56 305.664 Q2196.56 298.945 2193.95 295.039 Q2191.35 291.133 2186.87 291.133 M2233.9 284.518 L2242.23 284.518 L2193.59 365.195 L2185.25 365.195 L2233.9 284.518 M2186.87 284.518 Q2195.1 284.518 2199.99 290.248 Q2204.89 295.925 2204.89 305.664 Q2204.89 315.508 2199.99 321.185 Q2195.15 326.862 2186.87 326.862 Q2178.59 326.862 2173.74 321.185 Q2168.95 315.456 2168.95 305.664 Q2168.95 295.977 2173.8 290.248 Q2178.64 284.518 2186.87 284.518 Z" fill="#000000" fill-rule="nonzero" fill-opacity="1" /></svg>
