<?xml version="1.0" encoding="utf-8"?>
<svg xmlns="http://www.w3.org/2000/svg" xmlns:xlink="http://www.w3.org/1999/xlink" width="600" height="400" viewBox="0 0 2400 1600">
<defs>
  <clipPath id="clip830">
    <rect x="0" y="0" width="2400" height="1600"/>
  </clipPath>
</defs>
<path clip-path="url(#clip830)" d="M0 1600 L2400 1600 L2400 0 L0 0  Z" fill="#ffffff" fill-rule="evenodd" fill-opacity="1"/>
<defs>
  <clipPath id="clip831">
    <rect x="177" y="140" width="2177" height="1236"/>
  </clipPath>
</defs>
<path clip-path="url(#clip830)" d="M177.165 1375.66 L2352.76 1375.66 L2352.76 140.752 L177.165 140.752  Z" fill="#ffffff" fill-rule="evenodd" fill-opacity="1"/>
<polyline clip-path="url(#clip831)" style="stroke:#000000; stroke-linecap:round; stroke-linejoin:round; stroke-width:2; stroke-opacity:0.1; fill:none" points="231.897,1375.66 231.897,140.752 "/>
<polyline clip-path="url(#clip831)" style="stroke:#000000; stroke-linecap:round; stroke-linejoin:round; stroke-width:2; stroke-opacity:0.1; fill:none" points="916.045,1375.66 916.045,140.752 "/>
<polyline clip-path="url(#clip831)" style="stroke:#000000; stroke-linecap:round; stroke-linejoin:round; stroke-width:2; stroke-opacity:0.1; fill:none" points="1600.19,1375.66 1600.19,140.752 "/>
<polyline clip-path="url(#clip831)" style="stroke:#000000; stroke-linecap:round; stroke-linejoin:round; stroke-width:2; stroke-opacity:0.1; fill:none" points="2284.34,1375.66 2284.34,140.752 "/>
<polyline clip-path="url(#clip831)" style="stroke:#000000; stroke-linecap:round; stroke-linejoin:round; stroke-width:2; stroke-opacity:0.1; fill:none" points="177.165,1363.86 2352.76,1363.86 "/>
<polyline clip-path="url(#clip831)" style="stroke:#000000; stroke-linecap:round; stroke-linejoin:round; stroke-width:2; stroke-opacity:0.1; fill:none" points="177.165,1024.39 2352.76,1024.39 "/>
<polyline clip-path="url(#clip831)" style="stroke:#000000; stroke-linecap:round; stroke-linejoin:round; stroke-width:2; stroke-opacity:0.1; fill:none" points="177.165,684.914 2352.76,684.914 "/>
<polyline clip-path="url(#clip831)" style="stroke:#000000; stroke-linecap:round; stroke-linejoin:round; stroke-width:2; stroke-opacity:0.1; fill:none" points="177.165,345.44 2352.76,345.44 "/>
<polyline clip-path="url(#clip830)" style="stroke:#000000; stroke-linecap:round; stroke-linejoin:round; stroke-width:4; stroke-opacity:1; fill:none" points="177.165,1375.66 2352.76,1375.66 "/>
<polyline clip-path="url(#clip830)" style="stroke:#000000; stroke-linecap:round; stroke-linejoin:round; stroke-width:4; stroke-opacity:1; fill:none" points="231.897,1375.66 231.897,1356.76 "/>
<polyline clip-path="url(#clip830)" style="stroke:#000000; stroke-linecap:round; stroke-linejoin:round; stroke-width:4; stroke-opacity:1; fill:none" points="916.045,1375.66 916.045,1356.76 "/>
<polyline clip-path="url(#clip830)" style="stroke:#000000; stroke-linecap:round; stroke-linejoin:round; stroke-width:4; stroke-opacity:1; fill:none" points="1600.19,1375.66 1600.19,1356.76 "/>
<polyline clip-path="url(#clip830)" style="stroke:#000000; stroke-linecap:round; stroke-linejoin:round; stroke-width:4; stroke-opacity:1; fill:none" points="2284.34,1375.66 2284.34,1356.76 "/>
<path clip-path="url(#clip830)" d="M231.897 1412.44 Q226.48 1412.44 223.737 1417.79 Q221.029 1423.1 221.029 1433.79 Q221.029 1444.45 223.737 1449.8 Q226.48 1455.11 231.897 1455.11 Q237.348 1455.11 240.057 1449.8 Q242.8 1444.45 242.8 1433.79 Q242.8 1423.1 240.057 1417.79 Q237.348 1412.44 231.897 1412.44 M231.897 1406.88 Q240.612 1406.88 245.196 1413.79 Q249.814 1420.67 249.814 1433.79 Q249.814 1446.88 245.196 1453.79 Q240.612 1460.67 231.897 1460.67 Q223.182 1460.67 218.564 1453.79 Q213.981 1446.88 213.981 1433.79 Q213.981 1420.67 218.564 1413.79 Q223.182 1406.88 231.897 1406.88 Z" fill="#000000" fill-rule="nonzero" fill-opacity="1" /><path clip-path="url(#clip830)" d="M855.455 1453.76 L866.913 1453.76 L866.913 1414.21 L854.448 1416.71 L854.448 1410.32 L866.844 1407.82 L873.858 1407.82 L873.858 1453.76 L885.316 1453.76 L885.316 1459.66 L855.455 1459.66 L855.455 1453.76 Z" fill="#000000" fill-rule="nonzero" fill-opacity="1" /><path clip-path="url(#clip830)" d="M914.483 1412.44 Q909.066 1412.44 906.323 1417.79 Q903.615 1423.1 903.615 1433.79 Q903.615 1444.45 906.323 1449.8 Q909.066 1455.11 914.483 1455.11 Q919.934 1455.11 922.642 1449.8 Q925.385 1444.45 925.385 1433.79 Q925.385 1423.1 922.642 1417.79 Q919.934 1412.44 914.483 1412.44 M914.483 1406.88 Q923.198 1406.88 927.781 1413.79 Q932.399 1420.67 932.399 1433.79 Q932.399 1446.88 927.781 1453.79 Q923.198 1460.67 914.483 1460.67 Q905.767 1460.67 901.149 1453.79 Q896.566 1446.88 896.566 1433.79 Q896.566 1420.67 901.149 1413.79 Q905.767 1406.88 914.483 1406.88 Z" fill="#000000" fill-rule="nonzero" fill-opacity="1" /><path clip-path="url(#clip830)" d="M959.725 1412.44 Q954.309 1412.44 951.566 1417.79 Q948.857 1423.1 948.857 1433.79 Q948.857 1444.45 951.566 1449.8 Q954.309 1455.11 959.725 1455.11 Q965.177 1455.11 967.885 1449.8 Q970.628 1444.45 970.628 1433.79 Q970.628 1423.1 967.885 1417.79 Q965.177 1412.44 959.725 1412.44 M959.725 1406.88 Q968.441 1406.88 973.024 1413.79 Q977.642 1420.67 977.642 1433.79 Q977.642 1446.88 973.024 1453.79 Q968.441 1460.67 959.725 1460.67 Q951.01 1460.67 946.392 1453.79 Q941.809 1446.88 941.809 1433.79 Q941.809 1420.67 946.392 1413.79 Q951.01 1406.88 959.725 1406.88 Z" fill="#000000" fill-rule="nonzero" fill-opacity="1" /><path clip-path="url(#clip830)" d="M1545.73 1453.76 L1570.21 1453.76 L1570.21 1459.66 L1537.29 1459.66 L1537.29 1453.76 Q1541.29 1449.63 1548.16 1442.68 Q1555.07 1435.7 1556.84 1433.69 Q1560.21 1429.9 1561.53 1427.3 Q1562.88 1424.66 1562.88 1422.13 Q1562.88 1417.99 1559.97 1415.39 Q1557.09 1412.79 1552.43 1412.79 Q1549.13 1412.79 1545.45 1413.93 Q1541.81 1415.08 1537.64 1417.4 L1537.64 1410.32 Q1541.88 1408.62 1545.56 1407.75 Q1549.24 1406.88 1552.29 1406.88 Q1560.35 1406.88 1565.14 1410.91 Q1569.93 1414.94 1569.93 1421.67 Q1569.93 1424.87 1568.72 1427.75 Q1567.54 1430.6 1564.38 1434.49 Q1563.51 1435.49 1558.86 1440.32 Q1554.2 1445.11 1545.73 1453.76 Z" fill="#000000" fill-rule="nonzero" fill-opacity="1" /><path clip-path="url(#clip830)" d="M1599.93 1412.44 Q1594.52 1412.44 1591.77 1417.79 Q1589.06 1423.1 1589.06 1433.79 Q1589.06 1444.45 1591.77 1449.8 Q1594.52 1455.11 1599.93 1455.11 Q1605.38 1455.11 1608.09 1449.8 Q1610.84 1444.45 1610.84 1433.79 Q1610.84 1423.1 1608.09 1417.79 Q1605.38 1412.44 1599.93 1412.44 M1599.93 1406.88 Q1608.65 1406.88 1613.23 1413.79 Q1617.85 1420.67 1617.85 1433.79 Q1617.85 1446.88 1613.23 1453.79 Q1608.65 1460.67 1599.93 1460.67 Q1591.22 1460.67 1586.6 1453.79 Q1582.02 1446.88 1582.02 1433.79 Q1582.02 1420.67 1586.6 1413.79 Q1591.22 1406.88 1599.93 1406.88 Z" fill="#000000" fill-rule="nonzero" fill-opacity="1" /><path clip-path="url(#clip830)" d="M1645.18 1412.44 Q1639.76 1412.44 1637.02 1417.79 Q1634.31 1423.1 1634.31 1433.79 Q1634.31 1444.45 1637.02 1449.8 Q1639.76 1455.11 1645.18 1455.11 Q1650.63 1455.11 1653.34 1449.8 Q1656.08 1444.45 1656.08 1433.79 Q1656.08 1423.1 1653.34 1417.79 Q1650.63 1412.44 1645.18 1412.44 M1645.18 1406.88 Q1653.89 1406.88 1658.47 1413.79 Q1663.09 1420.67 1663.09 1433.79 Q1663.09 1446.88 1658.47 1453.79 Q1653.89 1460.67 1645.18 1460.67 Q1636.46 1460.67 1631.84 1453.79 Q1627.26 1446.88 1627.26 1433.79 Q1627.26 1420.67 1631.84 1413.79 Q1636.46 1406.88 1645.18 1406.88 Z" fill="#000000" fill-rule="nonzero" fill-opacity="1" /><path clip-path="url(#clip830)" d="M2244.98 1431.71 Q2250.02 1432.78 2252.83 1436.19 Q2255.68 1439.59 2255.68 1444.59 Q2255.68 1452.26 2250.4 1456.47 Q2245.12 1460.67 2235.4 1460.67 Q2232.14 1460.67 2228.66 1460.01 Q2225.23 1459.38 2221.55 1458.1 L2221.55 1451.33 Q2224.46 1453.03 2227.94 1453.9 Q2231.41 1454.76 2235.19 1454.76 Q2241.79 1454.76 2245.23 1452.16 Q2248.7 1449.56 2248.7 1444.59 Q2248.7 1440.01 2245.47 1437.44 Q2242.28 1434.83 2236.55 1434.83 L2230.5 1434.83 L2230.5 1429.07 L2236.82 1429.07 Q2242 1429.07 2244.74 1427.02 Q2247.48 1424.94 2247.48 1421.05 Q2247.48 1417.06 2244.64 1414.94 Q2241.82 1412.79 2236.55 1412.79 Q2233.66 1412.79 2230.37 1413.41 Q2227.07 1414.04 2223.11 1415.35 L2223.11 1409.1 Q2227.1 1407.99 2230.57 1407.44 Q2234.08 1406.88 2237.17 1406.88 Q2245.16 1406.88 2249.81 1410.53 Q2254.46 1414.14 2254.46 1420.32 Q2254.46 1424.63 2252 1427.61 Q2249.53 1430.56 2244.98 1431.71 Z" fill="#000000" fill-rule="nonzero" fill-opacity="1" /><path clip-path="url(#clip830)" d="M2283.98 1412.44 Q2278.56 1412.44 2275.82 1417.79 Q2273.11 1423.1 2273.11 1433.79 Q2273.11 1444.45 2275.82 1449.8 Q2278.56 1455.11 2283.98 1455.11 Q2289.43 1455.11 2292.14 1449.8 Q2294.88 1444.45 2294.88 1433.79 Q2294.88 1423.1 2292.14 1417.79 Q2289.43 1412.44 2283.98 1412.44 M2283.98 1406.88 Q2292.69 1406.88 2297.28 1413.79 Q2301.89 1420.67 2301.89 1433.79 Q2301.89 1446.88 2297.28 1453.79 Q2292.69 1460.67 2283.98 1460.67 Q2275.26 1460.67 2270.64 1453.79 Q2266.06 1446.88 2266.06 1433.79 Q2266.06 1420.67 2270.64 1413.79 Q2275.26 1406.88 2283.98 1406.88 Z" fill="#000000" fill-rule="nonzero" fill-opacity="1" /><path clip-path="url(#clip830)" d="M2329.22 1412.44 Q2323.8 1412.44 2321.06 1417.79 Q2318.35 1423.1 2318.35 1433.79 Q2318.35 1444.45 2321.06 1449.8 Q2323.8 1455.11 2329.22 1455.11 Q2334.67 1455.11 2337.38 1449.8 Q2340.12 1444.45 2340.12 1433.79 Q2340.12 1423.1 2337.38 1417.79 Q2334.67 1412.44 2329.22 1412.44 M2329.22 1406.88 Q2337.93 1406.88 2342.52 1413.79 Q2347.14 1420.67 2347.14 1433.79 Q2347.14 1446.88 2342.52 1453.79 Q2337.93 1460.67 2329.22 1460.67 Q2320.5 1460.67 2315.89 1453.79 Q2311.3 1446.88 2311.3 1433.79 Q2311.3 1420.67 2315.89 1413.79 Q2320.5 1406.88 2329.22 1406.88 Z" fill="#000000" fill-rule="nonzero" fill-opacity="1" /><path clip-path="url(#clip830)" d="M1048.5 1504.97 L1059.02 1504.97 L1059.02 1582.73 L1048.5 1582.73 L1048.5 1504.97 Z" fill="#000000" fill-rule="nonzero" fill-opacity="1" /><path clip-path="url(#clip830)" d="M1089.02 1507.84 L1089.02 1524.4 L1108.76 1524.4 L1108.76 1531.85 L1089.02 1531.85 L1089.02 1563.51 Q1089.02 1570.65 1090.95 1572.68 Q1092.93 1574.71 1098.92 1574.71 L1108.76 1574.71 L1108.76 1582.73 L1098.92 1582.73 Q1087.83 1582.73 1083.61 1578.62 Q1079.39 1574.45 1079.39 1563.51 L1079.39 1531.85 L1072.36 1531.85 L1072.36 1524.4 L1079.39 1524.4 L1079.39 1507.84 L1089.02 1507.84 Z" fill="#000000" fill-rule="nonzero" fill-opacity="1" /><path clip-path="url(#clip830)" d="M1171.26 1551.17 L1171.26 1555.86 L1127.2 1555.86 Q1127.83 1565.75 1133.14 1570.96 Q1138.5 1576.12 1148.03 1576.12 Q1153.55 1576.12 1158.71 1574.76 Q1163.92 1573.41 1169.02 1570.7 L1169.02 1579.76 Q1163.87 1581.95 1158.45 1583.1 Q1153.03 1584.24 1147.46 1584.24 Q1133.5 1584.24 1125.33 1576.12 Q1117.2 1567.99 1117.2 1554.14 Q1117.2 1539.82 1124.91 1531.43 Q1132.67 1522.99 1145.79 1522.99 Q1157.57 1522.99 1164.39 1530.6 Q1171.26 1538.15 1171.26 1551.17 M1161.68 1548.36 Q1161.58 1540.49 1157.25 1535.81 Q1152.98 1531.12 1145.9 1531.12 Q1137.88 1531.12 1133.03 1535.65 Q1128.24 1540.18 1127.51 1548.41 L1161.68 1548.36 Z" fill="#000000" fill-rule="nonzero" fill-opacity="1" /><path clip-path="url(#clip830)" d="M1220.79 1533.36 Q1219.18 1532.42 1217.25 1532 Q1215.38 1531.53 1213.09 1531.53 Q1204.96 1531.53 1200.59 1536.85 Q1196.26 1542.11 1196.26 1552 L1196.26 1582.73 L1186.63 1582.73 L1186.63 1524.4 L1196.26 1524.4 L1196.26 1533.46 Q1199.28 1528.15 1204.13 1525.6 Q1208.97 1522.99 1215.9 1522.99 Q1216.89 1522.99 1218.09 1523.15 Q1219.28 1523.25 1220.74 1523.51 L1220.79 1533.36 Z" fill="#000000" fill-rule="nonzero" fill-opacity="1" /><path clip-path="url(#clip830)" d="M1257.36 1553.41 Q1245.74 1553.41 1241.26 1556.07 Q1236.78 1558.72 1236.78 1565.13 Q1236.78 1570.23 1240.12 1573.25 Q1243.5 1576.22 1249.28 1576.22 Q1257.25 1576.22 1262.04 1570.6 Q1266.89 1564.92 1266.89 1555.54 L1266.89 1553.41 L1257.36 1553.41 M1276.47 1549.45 L1276.47 1582.73 L1266.89 1582.73 L1266.89 1573.88 Q1263.61 1579.19 1258.71 1581.74 Q1253.81 1584.24 1246.73 1584.24 Q1237.77 1584.24 1232.46 1579.24 Q1227.2 1574.19 1227.2 1565.75 Q1227.2 1555.91 1233.76 1550.91 Q1240.38 1545.91 1253.45 1545.91 L1266.89 1545.91 L1266.89 1544.97 Q1266.89 1538.36 1262.51 1534.76 Q1258.19 1531.12 1250.33 1531.12 Q1245.33 1531.12 1240.59 1532.32 Q1235.85 1533.51 1231.47 1535.91 L1231.47 1527.06 Q1236.73 1525.02 1241.68 1524.03 Q1246.63 1522.99 1251.31 1522.99 Q1263.97 1522.99 1270.22 1529.56 Q1276.47 1536.12 1276.47 1549.45 Z" fill="#000000" fill-rule="nonzero" fill-opacity="1" /><path clip-path="url(#clip830)" d="M1305.69 1507.84 L1305.69 1524.4 L1325.43 1524.4 L1325.43 1531.85 L1305.69 1531.85 L1305.69 1563.51 Q1305.69 1570.65 1307.62 1572.68 Q1309.6 1574.71 1315.59 1574.71 L1325.43 1574.71 L1325.43 1582.73 L1315.59 1582.73 Q1304.49 1582.73 1300.27 1578.62 Q1296.05 1574.45 1296.05 1563.51 L1296.05 1531.85 L1289.02 1531.85 L1289.02 1524.4 L1296.05 1524.4 L1296.05 1507.84 L1305.69 1507.84 Z" fill="#000000" fill-rule="nonzero" fill-opacity="1" /><path clip-path="url(#clip830)" d="M1338.03 1524.4 L1347.62 1524.4 L1347.62 1582.73 L1338.03 1582.73 L1338.03 1524.4 M1338.03 1501.69 L1347.62 1501.69 L1347.62 1513.83 L1338.03 1513.83 L1338.03 1501.69 Z" fill="#000000" fill-rule="nonzero" fill-opacity="1" /><path clip-path="url(#clip830)" d="M1390.27 1531.12 Q1382.56 1531.12 1378.08 1537.16 Q1373.61 1543.15 1373.61 1553.62 Q1373.61 1564.09 1378.03 1570.13 Q1382.51 1576.12 1390.27 1576.12 Q1397.93 1576.12 1402.41 1570.08 Q1406.89 1564.03 1406.89 1553.62 Q1406.89 1543.25 1402.41 1537.21 Q1397.93 1531.12 1390.27 1531.12 M1390.27 1522.99 Q1402.77 1522.99 1409.91 1531.12 Q1417.04 1539.24 1417.04 1553.62 Q1417.04 1567.94 1409.91 1576.12 Q1402.77 1584.24 1390.27 1584.24 Q1377.72 1584.24 1370.59 1576.12 Q1363.5 1567.94 1363.5 1553.62 Q1363.5 1539.24 1370.59 1531.12 Q1377.72 1522.99 1390.27 1522.99 Z" fill="#000000" fill-rule="nonzero" fill-opacity="1" /><path clip-path="url(#clip830)" d="M1481.42 1547.52 L1481.42 1582.73 L1471.83 1582.73 L1471.83 1547.84 Q1471.83 1539.55 1468.61 1535.44 Q1465.38 1531.33 1458.92 1531.33 Q1451.16 1531.33 1446.68 1536.27 Q1442.2 1541.22 1442.2 1549.76 L1442.2 1582.73 L1432.56 1582.73 L1432.56 1524.4 L1442.2 1524.4 L1442.2 1533.46 Q1445.64 1528.2 1450.27 1525.6 Q1454.96 1522.99 1461.05 1522.99 Q1471.11 1522.99 1476.26 1529.24 Q1481.42 1535.44 1481.42 1547.52 Z" fill="#000000" fill-rule="nonzero" fill-opacity="1" /><polyline clip-path="url(#clip830)" style="stroke:#000000; stroke-linecap:round; stroke-linejoin:round; stroke-width:4; stroke-opacity:1; fill:none" points="177.165,1375.66 177.165,140.752 "/>
<polyline clip-path="url(#clip830)" style="stroke:#000000; stroke-linecap:round; stroke-linejoin:round; stroke-width:4; stroke-opacity:1; fill:none" points="177.165,1363.86 196.063,1363.86 "/>
<polyline clip-path="url(#clip830)" style="stroke:#000000; stroke-linecap:round; stroke-linejoin:round; stroke-width:4; stroke-opacity:1; fill:none" points="177.165,1024.39 196.063,1024.39 "/>
<polyline clip-path="url(#clip830)" style="stroke:#000000; stroke-linecap:round; stroke-linejoin:round; stroke-width:4; stroke-opacity:1; fill:none" points="177.165,684.914 196.063,684.914 "/>
<polyline clip-path="url(#clip830)" style="stroke:#000000; stroke-linecap:round; stroke-linejoin:round; stroke-width:4; stroke-opacity:1; fill:none" points="177.165,345.44 196.063,345.44 "/>
<path clip-path="url(#clip830)" d="M50.9921 1364.54 L95.5058 1364.54 L95.5058 1370.44 L50.9921 1370.44 L50.9921 1364.54 Z" fill="#000000" fill-rule="nonzero" fill-opacity="1" /><path clip-path="url(#clip830)" d="M116.686 1383.88 L141.165 1383.88 L141.165 1389.78 L108.249 1389.78 L108.249 1383.88 Q112.242 1379.75 119.117 1372.8 Q126.026 1365.83 127.797 1363.81 Q131.165 1360.03 132.485 1357.42 Q133.839 1354.78 133.839 1352.25 Q133.839 1348.12 130.922 1345.51 Q128.04 1342.91 123.388 1342.91 Q120.089 1342.91 116.408 1344.05 Q112.763 1345.2 108.596 1347.53 L108.596 1340.44 Q112.832 1338.74 116.513 1337.87 Q120.193 1337.01 123.249 1337.01 Q131.304 1337.01 136.096 1341.03 Q140.887 1345.06 140.887 1351.8 Q140.887 1354.99 139.672 1357.87 Q138.492 1360.72 135.332 1364.61 Q134.464 1365.62 129.811 1370.44 Q125.158 1375.23 116.686 1383.88 Z" fill="#000000" fill-rule="nonzero" fill-opacity="1" /><path clip-path="url(#clip830)" d="M123.249 1003.09 Q117.832 1003.09 115.089 1008.43 Q112.381 1013.75 112.381 1024.44 Q112.381 1035.1 115.089 1040.45 Q117.832 1045.76 123.249 1045.76 Q128.7 1045.76 131.408 1040.45 Q134.151 1035.1 134.151 1024.44 Q134.151 1013.75 131.408 1008.43 Q128.7 1003.09 123.249 1003.09 M123.249 997.531 Q131.964 997.531 136.547 1004.44 Q141.165 1011.32 141.165 1024.44 Q141.165 1037.53 136.547 1044.44 Q131.964 1051.32 123.249 1051.32 Q114.533 1051.32 109.915 1044.44 Q105.332 1037.53 105.332 1024.44 Q105.332 1011.32 109.915 1004.44 Q114.533 997.531 123.249 997.531 Z" fill="#000000" fill-rule="nonzero" fill-opacity="1" /><path clip-path="url(#clip830)" d="M116.686 704.931 L141.165 704.931 L141.165 710.834 L108.249 710.834 L108.249 704.931 Q112.242 700.799 119.117 693.855 Q126.026 686.876 127.797 684.862 Q131.165 681.077 132.485 678.473 Q133.839 675.834 133.839 673.3 Q133.839 669.168 130.922 666.564 Q128.04 663.959 123.388 663.959 Q120.089 663.959 116.408 665.105 Q112.763 666.251 108.596 668.577 L108.596 661.494 Q112.832 659.793 116.513 658.925 Q120.193 658.057 123.249 658.057 Q131.304 658.057 136.096 662.084 Q140.887 666.112 140.887 672.848 Q140.887 676.043 139.672 678.925 Q138.492 681.772 135.332 685.661 Q134.464 686.668 129.811 691.494 Q125.158 696.286 116.686 704.931 Z" fill="#000000" fill-rule="nonzero" fill-opacity="1" /><path clip-path="url(#clip830)" d="M126.79 325.631 L109.082 353.304 L126.79 353.304 L126.79 325.631 M124.95 319.52 L133.769 319.52 L133.769 353.304 L141.165 353.304 L141.165 359.137 L133.769 359.137 L133.769 371.36 L126.79 371.36 L126.79 359.137 L103.388 359.137 L103.388 352.367 L124.95 319.52 Z" fill="#000000" fill-rule="nonzero" fill-opacity="1" /><path clip-path="url(#clip830)" d="M1246.21 82.2183 L1246.21 61.333 L1229.02 61.333 L1229.02 52.6872 L1256.63 52.6872 L1256.63 86.0725 Q1250.53 90.3953 1243.19 92.6349 Q1235.85 94.8224 1227.51 94.8224 Q1209.28 94.8224 1198.97 84.1975 Q1188.71 73.5204 1188.71 54.5101 Q1188.71 35.4477 1198.97 24.8228 Q1209.28 14.1458 1227.51 14.1458 Q1235.12 14.1458 1241.94 16.0207 Q1248.81 17.8957 1254.6 21.5416 L1254.6 32.7394 Q1248.76 27.7915 1242.2 25.2915 Q1235.64 22.7915 1228.4 22.7915 Q1214.13 22.7915 1206.94 30.7603 Q1199.8 38.729 1199.8 54.5101 Q1199.8 70.2392 1206.94 78.2079 Q1214.13 86.1766 1228.4 86.1766 Q1233.97 86.1766 1238.35 85.2391 Q1242.72 84.2495 1246.21 82.2183 Z" fill="#000000" fill-rule="nonzero" fill-opacity="1" /><path clip-path="url(#clip830)" d="M1286.37 24.1978 L1286.37 84.6662 L1299.07 84.6662 Q1315.17 84.6662 1322.62 77.3746 Q1330.12 70.083 1330.12 54.3539 Q1330.12 38.729 1322.62 31.4894 Q1315.17 24.1978 1299.07 24.1978 L1286.37 24.1978 M1275.85 15.552 L1297.46 15.552 Q1320.06 15.552 1330.64 24.979 Q1341.21 34.354 1341.21 54.3539 Q1341.21 74.4579 1330.59 83.885 Q1319.96 93.312 1297.46 93.312 L1275.85 93.312 L1275.85 15.552 Z" fill="#000000" fill-rule="nonzero" fill-opacity="1" /><polyline clip-path="url(#clip831)" style="stroke:#009af9; stroke-linecap:round; stroke-linejoin:round; stroke-width:8; stroke-opacity:1; fill:none" points="238.739,1194.13 245.58,1041.67 252.422,923.627 259.263,822.6 266.104,768.66 272.946,757.573 279.787,754.868 286.629,754.789 293.47,755.676 300.312,756.903 307.153,758.208 313.995,759.479 320.836,760.666 327.678,761.756 334.519,762.746 341.361,763.642 348.202,764.45 355.044,765.179 361.885,765.836 368.727,766.429 375.568,766.964 382.41,767.447 389.251,767.882 396.093,768.275 402.934,768.629 409.776,768.948 416.617,769.234 423.459,769.492 430.3,769.722 437.141,769.928 443.983,770.112 450.824,770.275 457.666,770.419 464.507,770.546 471.349,770.657 478.19,770.753 485.032,770.837 491.873,770.907 498.715,770.967 505.556,771.016 512.398,771.056 519.239,771.088 526.081,771.111 532.922,771.128 539.764,771.137 546.605,771.141 553.447,771.139 560.288,771.133 567.13,771.121 573.971,771.106 580.813,771.087 587.654,771.065 594.496,771.039 601.337,771.011 608.178,770.98 615.02,770.947 621.861,770.912 628.703,770.876 635.544,770.838 642.386,770.798 649.227,770.757 656.069,770.715 662.91,770.672 669.752,770.628 676.593,770.584 683.435,770.539 690.276,770.493 697.118,770.447 703.959,770.401 710.801,770.354 717.642,770.307 724.484,770.26 731.325,770.213 738.167,770.166 745.008,770.119 751.85,770.072 758.691,770.025 765.533,769.978 772.374,769.931 779.215,769.885 786.057,769.839 792.898,769.793 799.74,769.747 806.581,769.702 813.423,769.656 820.264,769.612 827.106,769.567 833.947,769.523 840.789,769.479 847.63,769.436 854.472,769.393 861.313,769.35 868.155,769.308 874.996,769.266 881.838,769.225 888.679,769.184 895.521,769.143 902.362,769.103 909.204,769.063 916.045,769.024 922.887,768.985 929.728,768.946 936.57,768.908 943.411,768.87 950.252,768.833 957.094,768.796 963.935,768.76 970.777,768.724 977.618,768.688 984.46,768.653 991.301,768.618 998.143,768.584 1004.98,768.55 1011.83,768.517 1018.67,768.484 1025.51,768.451 1032.35,768.419 1039.19,768.387 1046.03,768.356 1052.87,768.325 1059.72,768.294 1066.56,768.264 1073.4,768.234 1080.24,768.204 1087.08,768.175 1093.92,768.147 1100.77,768.118 1107.61,768.09 1114.45,768.063 1121.29,768.036 1128.13,768.009 1134.97,767.982 1141.81,767.956 1148.66,767.93 1155.5,767.905 1162.34,767.88 1169.18,767.855 1176.02,767.831 1182.86,767.807 1189.7,767.783 1196.55,767.76 1203.39,767.737 1210.23,767.714 1217.07,767.692 1223.91,767.67 1230.75,767.648 1237.59,767.626 1244.44,767.605 1251.28,767.584 1258.12,767.564 1264.96,767.544 1271.8,767.524 1278.64,767.504 1285.49,767.485 1292.33,767.466 1299.17,767.447 1306.01,767.428 1312.85,767.41 1319.69,767.392 1326.53,767.374 1333.38,767.357 1340.22,767.339 1347.06,767.322 1353.9,767.306 1360.74,767.289 1367.58,767.273 1374.42,767.257 1381.27,767.241 1388.11,767.226 1394.95,767.21 1401.79,767.195 1408.63,767.181 1415.47,767.166 1422.31,767.152 1429.16,767.137 1436,767.124 1442.84,767.11 1449.68,767.096 1456.52,767.083 1463.36,767.07 1470.2,767.057 1477.05,767.044 1483.89,767.032 1490.73,767.019 1497.57,767.007 1504.41,766.995 1511.25,766.983 1518.1,766.972 1524.94,766.96 1531.78,766.949 1538.62,766.938 1545.46,766.927 1552.3,766.916 1559.14,766.906 1565.99,766.895 1572.83,766.885 1579.67,766.875 1586.51,766.865 1593.35,766.855 1600.19,766.846 1607.03,766.836 1613.88,766.827 1620.72,766.818 1627.56,766.809 1634.4,766.8 1641.24,766.791 1648.08,766.782 1654.92,766.774 1661.77,766.765 1668.61,766.757 1675.45,766.749 1682.29,766.741 1689.13,766.733 1695.97,766.726 1702.82,766.718 1709.66,766.711 1716.5,766.703 1723.34,766.696 1730.18,766.689 1737.02,766.682 1743.86,766.675 1750.71,766.668 1757.55,766.661 1764.39,766.655 1771.23,766.648 1778.07,766.642 1784.91,766.636 1791.75,766.629 1798.6,766.623 1805.44,766.617 1812.28,766.611 1819.12,766.606 1825.96,766.6 1832.8,766.594 1839.64,766.589 1846.49,766.583 1853.33,766.578 1860.17,766.573 1867.01,766.568 1873.85,766.562 1880.69,766.557 1887.54,766.552 1894.38,766.548 1901.22,766.543 1908.06,766.538 1914.9,766.533 1921.74,766.529 1928.58,766.524 1935.43,766.52 1942.27,766.516 1949.11,766.511 1955.95,766.507 1962.79,766.503 1969.63,766.499 1976.47,766.495 1983.32,766.491 1990.16,766.487 1997,766.483 2003.84,766.479 2010.68,766.476 2017.52,766.472 2024.36,766.468 2031.21,766.465 2038.05,766.461 2044.89,766.458 2051.73,766.455 2058.57,766.451 2065.41,766.448 2072.26,766.445 2079.1,766.442 2085.94,766.439 2092.78,766.435 2099.62,766.432 2106.46,766.43 2113.3,766.427 2120.15,766.424 2126.99,766.421 2133.83,766.418 2140.67,766.415 2147.51,766.413 2154.35,766.41 2161.19,766.407 2168.04,766.405 2174.88,766.402 2181.72,766.4 2188.56,766.397 2195.4,766.395 2202.24,766.393 2209.08,766.39 2215.93,766.388 2222.77,766.386 2229.61,766.383 2236.45,766.381 2243.29,766.379 2250.13,766.377 2256.98,766.375 2263.82,766.373 2270.66,766.371 2277.5,766.369 2284.34,766.367 2291.18,766.365 "/>
<polyline clip-path="url(#clip831)" style="stroke:#e26f46; stroke-linecap:round; stroke-linejoin:round; stroke-width:8; stroke-opacity:1; fill:none" points="238.739,515.177 245.58,709.02 252.422,863.233 259.263,998.233 266.104,1095.5 272.946,1139.6 279.787,1167.59 286.629,1188.37 293.47,1205.02 300.312,1218.94 307.153,1230.86 313.995,1241.25 320.836,1250.41 327.678,1258.55 334.519,1265.83 341.361,1272.38 348.202,1278.29 355.044,1283.64 361.885,1288.51 368.727,1292.93 375.568,1296.97 382.41,1300.66 389.251,1304.03 396.093,1307.13 402.934,1309.96 409.776,1312.56 416.617,1314.95 423.459,1317.15 430.3,1319.17 437.141,1321.03 443.983,1322.74 450.824,1324.32 457.666,1325.77 464.507,1327.1 471.349,1328.33 478.19,1329.46 485.032,1330.5 491.873,1331.46 498.715,1332.34 505.556,1333.15 512.398,1333.89 519.239,1334.57 526.081,1335.2 532.922,1335.77 539.764,1336.3 546.605,1336.78 553.447,1337.22 560.288,1337.62 567.13,1337.98 573.971,1338.31 580.813,1338.61 587.654,1338.89 594.496,1339.13 601.337,1339.35 608.178,1339.55 615.02,1339.73 621.861,1339.89 628.703,1340.03 635.544,1340.15 642.386,1340.26 649.227,1340.35 656.069,1340.43 662.91,1340.5 669.752,1340.56 676.593,1340.61 683.435,1340.64 690.276,1340.67 697.118,1340.69 703.959,1340.7 710.801,1340.71 717.642,1340.71 724.484,1340.7 731.325,1340.69 738.167,1340.68 745.008,1340.65 751.85,1340.63 758.691,1340.6 765.533,1340.57 772.374,1340.54 779.215,1340.5 786.057,1340.46 792.898,1340.42 799.74,1340.37 806.581,1340.33 813.423,1340.28 820.264,1340.23 827.106,1340.18 833.947,1340.13 840.789,1340.08 847.63,1340.03 854.472,1339.98 861.313,1339.92 868.155,1339.87 874.996,1339.82 881.838,1339.76 888.679,1339.71 895.521,1339.65 902.362,1339.6 909.204,1339.55 916.045,1339.49 922.887,1339.44 929.728,1339.39 936.57,1339.33 943.411,1339.28 950.252,1339.23 957.094,1339.18 963.935,1339.13 970.777,1339.08 977.618,1339.03 984.46,1338.98 991.301,1338.93 998.143,1338.88 1004.98,1338.83 1011.83,1338.79 1018.67,1338.74 1025.51,1338.69 1032.35,1338.65 1039.19,1338.6 1046.03,1338.56 1052.87,1338.52 1059.72,1338.47 1066.56,1338.43 1073.4,1338.39 1080.24,1338.35 1087.08,1338.31 1093.92,1338.27 1100.77,1338.23 1107.61,1338.19 1114.45,1338.15 1121.29,1338.12 1128.13,1338.08 1134.97,1338.04 1141.81,1338.01 1148.66,1337.97 1155.5,1337.94 1162.34,1337.91 1169.18,1337.87 1176.02,1337.84 1182.86,1337.81 1189.7,1337.78 1196.55,1337.75 1203.39,1337.72 1210.23,1337.69 1217.07,1337.66 1223.91,1337.63 1230.75,1337.6 1237.59,1337.57 1244.44,1337.54 1251.28,1337.52 1258.12,1337.49 1264.96,1337.47 1271.8,1337.44 1278.64,1337.42 1285.49,1337.39 1292.33,1337.37 1299.17,1337.34 1306.01,1337.32 1312.85,1337.3 1319.69,1337.27 1326.53,1337.25 1333.38,1337.23 1340.22,1337.21 1347.06,1337.19 1353.9,1337.17 1360.74,1337.15 1367.58,1337.13 1374.42,1337.11 1381.27,1337.09 1388.11,1337.07 1394.95,1337.05 1401.79,1337.03 1408.63,1337.01 1415.47,1337 1422.31,1336.98 1429.16,1336.96 1436,1336.94 1442.84,1336.93 1449.68,1336.91 1456.52,1336.9 1463.36,1336.88 1470.2,1336.87 1477.05,1336.85 1483.89,1336.84 1490.73,1336.82 1497.57,1336.81 1504.41,1336.79 1511.25,1336.78 1518.1,1336.76 1524.94,1336.75 1531.78,1336.74 1538.62,1336.72 1545.46,1336.71 1552.3,1336.7 1559.14,1336.69 1565.99,1336.67 1572.83,1336.66 1579.67,1336.65 1586.51,1336.64 1593.35,1336.63 1600.19,1336.62 1607.03,1336.61 1613.88,1336.59 1620.72,1336.58 1627.56,1336.57 1634.4,1336.56 1641.24,1336.55 1648.08,1336.54 1654.92,1336.53 1661.77,1336.52 1668.61,1336.51 1675.45,1336.5 1682.29,1336.5 1689.13,1336.49 1695.97,1336.48 1702.82,1336.47 1709.66,1336.46 1716.5,1336.45 1723.34,1336.44 1730.18,1336.44 1737.02,1336.43 1743.86,1336.42 1750.71,1336.41 1757.55,1336.4 1764.39,1336.4 1771.23,1336.39 1778.07,1336.38 1784.91,1336.37 1791.75,1336.37 1798.6,1336.36 1805.44,1336.35 1812.28,1336.35 1819.12,1336.34 1825.96,1336.33 1832.8,1336.33 1839.64,1336.32 1846.49,1336.31 1853.33,1336.31 1860.17,1336.3 1867.01,1336.3 1873.85,1336.29 1880.69,1336.28 1887.54,1336.28 1894.38,1336.27 1901.22,1336.27 1908.06,1336.26 1914.9,1336.26 1921.74,1336.25 1928.58,1336.25 1935.43,1336.24 1942.27,1336.23 1949.11,1336.23 1955.95,1336.22 1962.79,1336.22 1969.63,1336.22 1976.47,1336.21 1983.32,1336.21 1990.16,1336.2 1997,1336.2 2003.84,1336.19 2010.68,1336.19 2017.52,1336.18 2024.36,1336.18 2031.21,1336.18 2038.05,1336.17 2044.89,1336.17 2051.73,1336.16 2058.57,1336.16 2065.41,1336.16 2072.26,1336.15 2079.1,1336.15 2085.94,1336.14 2092.78,1336.14 2099.62,1336.14 2106.46,1336.13 2113.3,1336.13 2120.15,1336.13 2126.99,1336.12 2133.83,1336.12 2140.67,1336.12 2147.51,1336.11 2154.35,1336.11 2161.19,1336.11 2168.04,1336.1 2174.88,1336.1 2181.72,1336.1 2188.56,1336.09 2195.4,1336.09 2202.24,1336.09 2209.08,1336.09 2215.93,1336.08 2222.77,1336.08 2229.61,1336.08 2236.45,1336.08 2243.29,1336.07 2250.13,1336.07 2256.98,1336.07 2263.82,1336.06 2270.66,1336.06 2277.5,1336.06 2284.34,1336.06 2291.18,1336.06 "/>
<polyline clip-path="url(#clip831)" style="stroke:#3da44d; stroke-linecap:round; stroke-linejoin:round; stroke-width:8; stroke-opacity:1; fill:none" points="238.739,953.651 245.58,996.094 252.422,1049.35 259.263,1104.38 266.104,1142.98 272.946,1159.93 279.787,1169.44 286.629,1175.19 293.47,1178.66 300.312,1180.64 307.153,1181.58 313.995,1181.81 320.836,1181.51 327.678,1180.84 334.519,1179.9 341.361,1178.75 348.202,1177.46 355.044,1176.07 361.885,1174.6 368.727,1173.08 375.568,1171.53 382.41,1169.95 389.251,1168.37 396.093,1166.79 402.934,1165.21 409.776,1163.64 416.617,1162.08 423.459,1160.54 430.3,1159.01 437.141,1157.51 443.983,1156.02 450.824,1154.56 457.666,1153.12 464.507,1151.69 471.349,1150.29 478.19,1148.92 485.032,1147.56 491.873,1146.23 498.715,1144.91 505.556,1143.62 512.398,1142.35 519.239,1141.1 526.081,1139.87 532.922,1138.66 539.764,1137.47 546.605,1136.3 553.447,1135.15 560.288,1134.02 567.13,1132.91 573.971,1131.81 580.813,1130.73 587.654,1129.67 594.496,1128.63 601.337,1127.6 608.178,1126.6 615.02,1125.6 621.861,1124.63 628.703,1123.66 635.544,1122.72 642.386,1121.79 649.227,1120.87 656.069,1119.97 662.91,1119.09 669.752,1118.22 676.593,1117.36 683.435,1116.51 690.276,1115.68 697.118,1114.86 703.959,1114.06 710.801,1113.27 717.642,1112.49 724.484,1111.72 731.325,1110.97 738.167,1110.22 745.008,1109.49 751.85,1108.77 758.691,1108.06 765.533,1107.37 772.374,1106.68 779.215,1106.01 786.057,1105.34 792.898,1104.69 799.74,1104.04 806.581,1103.41 813.423,1102.78 820.264,1102.17 827.106,1101.56 833.947,1100.97 840.789,1100.38 847.63,1099.81 854.472,1099.24 861.313,1098.68 868.155,1098.13 874.996,1097.58 881.838,1097.05 888.679,1096.52 895.521,1096.01 902.362,1095.5 909.204,1095 916.045,1094.5 922.887,1094.02 929.728,1093.54 936.57,1093.07 943.411,1092.6 950.252,1092.14 957.094,1091.69 963.935,1091.25 970.777,1090.81 977.618,1090.38 984.46,1089.96 991.301,1089.54 998.143,1089.13 1004.98,1088.73 1011.83,1088.33 1018.67,1087.94 1025.51,1087.55 1032.35,1087.17 1039.19,1086.8 1046.03,1086.43 1052.87,1086.06 1059.72,1085.7 1066.56,1085.35 1073.4,1085 1080.24,1084.66 1087.08,1084.33 1093.92,1083.99 1100.77,1083.67 1107.61,1083.34 1114.45,1083.03 1121.29,1082.72 1128.13,1082.41 1134.97,1082.1 1141.81,1081.81 1148.66,1081.51 1155.5,1081.22 1162.34,1080.94 1169.18,1080.65 1176.02,1080.38 1182.86,1080.1 1189.7,1079.84 1196.55,1079.57 1203.39,1079.31 1210.23,1079.05 1217.07,1078.8 1223.91,1078.55 1230.75,1078.3 1237.59,1078.06 1244.44,1077.82 1251.28,1077.59 1258.12,1077.36 1264.96,1077.13 1271.8,1076.9 1278.64,1076.68 1285.49,1076.46 1292.33,1076.25 1299.17,1076.04 1306.01,1075.83 1312.85,1075.62 1319.69,1075.42 1326.53,1075.22 1333.38,1075.02 1340.22,1074.83 1347.06,1074.64 1353.9,1074.45 1360.74,1074.26 1367.58,1074.08 1374.42,1073.9 1381.27,1073.72 1388.11,1073.55 1394.95,1073.37 1401.79,1073.2 1408.63,1073.04 1415.47,1072.87 1422.31,1072.71 1429.16,1072.55 1436,1072.39 1442.84,1072.23 1449.68,1072.08 1456.52,1071.93 1463.36,1071.78 1470.2,1071.63 1477.05,1071.49 1483.89,1071.34 1490.73,1071.2 1497.57,1071.06 1504.41,1070.93 1511.25,1070.79 1518.1,1070.66 1524.94,1070.53 1531.78,1070.4 1538.62,1070.27 1545.46,1070.15 1552.3,1070.02 1559.14,1069.9 1565.99,1069.78 1572.83,1069.66 1579.67,1069.55 1586.51,1069.43 1593.35,1069.32 1600.19,1069.21 1607.03,1069.1 1613.88,1068.99 1620.72,1068.88 1627.56,1068.78 1634.4,1068.67 1641.24,1068.57 1648.08,1068.47 1654.92,1068.37 1661.77,1068.27 1668.61,1068.17 1675.45,1068.08 1682.29,1067.98 1689.13,1067.89 1695.97,1067.8 1702.82,1067.71 1709.66,1067.62 1716.5,1067.53 1723.34,1067.45 1730.18,1067.36 1737.02,1067.28 1743.86,1067.2 1750.71,1067.11 1757.55,1067.03 1764.39,1066.95 1771.23,1066.88 1778.07,1066.8 1784.91,1066.72 1791.75,1066.65 1798.6,1066.57 1805.44,1066.5 1812.28,1066.43 1819.12,1066.36 1825.96,1066.29 1832.8,1066.22 1839.64,1066.15 1846.49,1066.09 1853.33,1066.02 1860.17,1065.96 1867.01,1065.89 1873.85,1065.83 1880.69,1065.77 1887.54,1065.7 1894.38,1065.64 1901.22,1065.58 1908.06,1065.53 1914.9,1065.47 1921.74,1065.41 1928.58,1065.35 1935.43,1065.3 1942.27,1065.24 1949.11,1065.19 1955.95,1065.14 1962.79,1065.08 1969.63,1065.03 1976.47,1064.98 1983.32,1064.93 1990.16,1064.88 1997,1064.83 2003.84,1064.78 2010.68,1064.74 2017.52,1064.69 2024.36,1064.64 2031.21,1064.6 2038.05,1064.55 2044.89,1064.51 2051.73,1064.46 2058.57,1064.42 2065.41,1064.38 2072.26,1064.34 2079.1,1064.3 2085.94,1064.25 2092.78,1064.21 2099.62,1064.17 2106.46,1064.14 2113.3,1064.1 2120.15,1064.06 2126.99,1064.02 2133.83,1063.98 2140.67,1063.95 2147.51,1063.91 2154.35,1063.88 2161.19,1063.84 2168.04,1063.81 2174.88,1063.77 2181.72,1063.74 2188.56,1063.71 2195.4,1063.67 2202.24,1063.64 2209.08,1063.61 2215.93,1063.58 2222.77,1063.55 2229.61,1063.52 2236.45,1063.49 2243.29,1063.46 2250.13,1063.43 2256.98,1063.4 2263.82,1063.37 2270.66,1063.34 2277.5,1063.32 2284.34,1063.29 2291.18,1063.26 "/>
<polyline clip-path="url(#clip831)" style="stroke:#c271d2; stroke-linecap:round; stroke-linejoin:round; stroke-width:8; stroke-opacity:1; fill:none" points="238.739,970.815 245.58,1012.98 252.422,1066.54 259.263,1122.08 266.104,1161.82 272.946,1180.4 279.787,1191.45 286.629,1198.65 293.47,1203.5 300.312,1206.8 307.153,1209.01 313.995,1210.44 320.836,1211.3 327.678,1211.74 334.519,1211.86 341.361,1211.75 348.202,1211.45 355.044,1211.02 361.885,1210.47 368.727,1209.85 375.568,1209.17 382.41,1208.44 389.251,1207.68 396.093,1206.89 402.934,1206.08 409.776,1205.26 416.617,1204.43 423.459,1203.6 430.3,1202.76 437.141,1201.92 443.983,1201.08 450.824,1200.25 457.666,1199.42 464.507,1198.59 471.349,1197.77 478.19,1196.95 485.032,1196.14 491.873,1195.34 498.715,1194.54 505.556,1193.75 512.398,1192.96 519.239,1192.18 526.081,1191.41 532.922,1190.65 539.764,1189.89 546.605,1189.14 553.447,1188.4 560.288,1187.67 567.13,1186.94 573.971,1186.22 580.813,1185.5 587.654,1184.8 594.496,1184.1 601.337,1183.41 608.178,1182.72 615.02,1182.04 621.861,1181.37 628.703,1180.7 635.544,1180.04 642.386,1179.39 649.227,1178.75 656.069,1178.11 662.91,1177.47 669.752,1176.85 676.593,1176.23 683.435,1175.62 690.276,1175.01 697.118,1174.41 703.959,1173.82 710.801,1173.23 717.642,1172.65 724.484,1172.07 731.325,1171.51 738.167,1170.94 745.008,1170.39 751.85,1169.84 758.691,1169.29 765.533,1168.75 772.374,1168.22 779.215,1167.69 786.057,1167.17 792.898,1166.66 799.74,1166.15 806.581,1165.64 813.423,1165.14 820.264,1164.65 827.106,1164.16 833.947,1163.68 840.789,1163.2 847.63,1162.73 854.472,1162.27 861.313,1161.81 868.155,1161.35 874.996,1160.9 881.838,1160.46 888.679,1160.02 895.521,1159.58 902.362,1159.15 909.204,1158.73 916.045,1158.31 922.887,1157.89 929.728,1157.48 936.57,1157.08 943.411,1156.68 950.252,1156.28 957.094,1155.89 963.935,1155.5 970.777,1155.12 977.618,1154.74 984.46,1154.37 991.301,1154 998.143,1153.64 1004.98,1153.28 1011.83,1152.92 1018.67,1152.57 1025.51,1152.22 1032.35,1151.88 1039.19,1151.54 1046.03,1151.21 1052.87,1150.88 1059.72,1150.55 1066.56,1150.23 1073.4,1149.91 1080.24,1149.6 1087.08,1149.28 1093.92,1148.98 1100.77,1148.67 1107.61,1148.37 1114.45,1148.08 1121.29,1147.79 1128.13,1147.5 1134.97,1147.21 1141.81,1146.93 1148.66,1146.65 1155.5,1146.38 1162.34,1146.11 1169.18,1145.84 1176.02,1145.58 1182.86,1145.31 1189.7,1145.06 1196.55,1144.8 1203.39,1144.55 1210.23,1144.3 1217.07,1144.06 1223.91,1143.82 1230.75,1143.58 1237.59,1143.34 1244.44,1143.11 1251.28,1142.88 1258.12,1142.65 1264.96,1142.43 1271.8,1142.21 1278.64,1141.99 1285.49,1141.77 1292.33,1141.56 1299.17,1141.35 1306.01,1141.14 1312.85,1140.94 1319.69,1140.73 1326.53,1140.53 1333.38,1140.34 1340.22,1140.14 1347.06,1139.95 1353.9,1139.76 1360.74,1139.57 1367.58,1139.39 1374.42,1139.21 1381.27,1139.03 1388.11,1138.85 1394.95,1138.67 1401.79,1138.5 1408.63,1138.33 1415.47,1138.16 1422.31,1138 1429.16,1137.83 1436,1137.67 1442.84,1137.51 1449.68,1137.35 1456.52,1137.2 1463.36,1137.04 1470.2,1136.89 1477.05,1136.74 1483.89,1136.59 1490.73,1136.45 1497.57,1136.3 1504.41,1136.16 1511.25,1136.02 1518.1,1135.88 1524.94,1135.75 1531.78,1135.61 1538.62,1135.48 1545.46,1135.35 1552.3,1135.22 1559.14,1135.09 1565.99,1134.96 1572.83,1134.84 1579.67,1134.72 1586.51,1134.6 1593.35,1134.48 1600.19,1134.36 1607.03,1134.24 1613.88,1134.13 1620.72,1134.01 1627.56,1133.9 1634.4,1133.79 1641.24,1133.68 1648.08,1133.58 1654.92,1133.47 1661.77,1133.37 1668.61,1133.26 1675.45,1133.16 1682.29,1133.06 1689.13,1132.96 1695.97,1132.87 1702.82,1132.77 1709.66,1132.67 1716.5,1132.58 1723.34,1132.49 1730.18,1132.4 1737.02,1132.31 1743.86,1132.22 1750.71,1132.13 1757.55,1132.04 1764.39,1131.96 1771.23,1131.87 1778.07,1131.79 1784.91,1131.71 1791.75,1131.63 1798.6,1131.55 1805.44,1131.47 1812.28,1131.39 1819.12,1131.32 1825.96,1131.24 1832.8,1131.17 1839.64,1131.09 1846.49,1131.02 1853.33,1130.95 1860.17,1130.88 1867.01,1130.81 1873.85,1130.74 1880.69,1130.67 1887.54,1130.61 1894.38,1130.54 1901.22,1130.48 1908.06,1130.41 1914.9,1130.35 1921.74,1130.29 1928.58,1130.23 1935.43,1130.17 1942.27,1130.11 1949.11,1130.05 1955.95,1129.99 1962.79,1129.93 1969.63,1129.87 1976.47,1129.82 1983.32,1129.76 1990.16,1129.71 1997,1129.66 2003.84,1129.6 2010.68,1129.55 2017.52,1129.5 2024.36,1129.45 2031.21,1129.4 2038.05,1129.35 2044.89,1129.3 2051.73,1129.25 2058.57,1129.21 2065.41,1129.16 2072.26,1129.11 2079.1,1129.07 2085.94,1129.02 2092.78,1128.98 2099.62,1128.94 2106.46,1128.89 2113.3,1128.85 2120.15,1128.81 2126.99,1128.77 2133.83,1128.73 2140.67,1128.69 2147.51,1128.65 2154.35,1128.61 2161.19,1128.57 2168.04,1128.53 2174.88,1128.49 2181.72,1128.46 2188.56,1128.42 2195.4,1128.39 2202.24,1128.35 2209.08,1128.32 2215.93,1128.28 2222.77,1128.25 2229.61,1128.21 2236.45,1128.18 2243.29,1128.15 2250.13,1128.12 2256.98,1128.08 2263.82,1128.05 2270.66,1128.02 2277.5,1127.99 2284.34,1127.96 2291.18,1127.93 "/>
<polyline clip-path="url(#clip831)" style="stroke:#ac8d18; stroke-linecap:round; stroke-linejoin:round; stroke-width:8; stroke-opacity:1; fill:none" points="238.739,868.599 245.58,917.8 252.422,976.25 259.263,1036.33 266.104,1080.5 272.946,1102.05 279.787,1115.57 286.629,1124.96 293.47,1131.83 300.312,1137.01 307.153,1141 313.995,1144.13 320.836,1146.61 327.678,1148.6 334.519,1150.21 341.361,1151.52 348.202,1152.6 355.044,1153.49 361.885,1154.23 368.727,1154.84 375.568,1155.35 382.41,1155.78 389.251,1156.13 396.093,1156.42 402.934,1156.65 409.776,1156.84 416.617,1156.99 423.459,1157.1 430.3,1157.19 437.141,1157.24 443.983,1157.28 450.824,1157.29 457.666,1157.27 464.507,1157.25 471.349,1157.2 478.19,1157.14 485.032,1157.07 491.873,1156.98 498.715,1156.88 505.556,1156.77 512.398,1156.65 519.239,1156.52 526.081,1156.39 532.922,1156.24 539.764,1156.09 546.605,1155.93 553.447,1155.76 560.288,1155.59 567.13,1155.41 573.971,1155.23 580.813,1155.04 587.654,1154.85 594.496,1154.65 601.337,1154.45 608.178,1154.25 615.02,1154.04 621.861,1153.83 628.703,1153.61 635.544,1153.4 642.386,1153.18 649.227,1152.96 656.069,1152.73 662.91,1152.51 669.752,1152.28 676.593,1152.05 683.435,1151.83 690.276,1151.59 697.118,1151.36 703.959,1151.13 710.801,1150.9 717.642,1150.66 724.484,1150.43 731.325,1150.19 738.167,1149.96 745.008,1149.72 751.85,1149.48 758.691,1149.25 765.533,1149.01 772.374,1148.78 779.215,1148.54 786.057,1148.31 792.898,1148.07 799.74,1147.84 806.581,1147.6 813.423,1147.37 820.264,1147.14 827.106,1146.9 833.947,1146.67 840.789,1146.44 847.63,1146.21 854.472,1145.98 861.313,1145.75 868.155,1145.53 874.996,1145.3 881.838,1145.07 888.679,1144.85 895.521,1144.63 902.362,1144.4 909.204,1144.18 916.045,1143.96 922.887,1143.75 929.728,1143.53 936.57,1143.31 943.411,1143.1 950.252,1142.88 957.094,1142.67 963.935,1142.46 970.777,1142.25 977.618,1142.04 984.46,1141.84 991.301,1141.63 998.143,1141.43 1004.98,1141.22 1011.83,1141.02 1018.67,1140.82 1025.51,1140.63 1032.35,1140.43 1039.19,1140.23 1046.03,1140.04 1052.87,1139.85 1059.72,1139.66 1066.56,1139.47 1073.4,1139.28 1080.24,1139.1 1087.08,1138.91 1093.92,1138.73 1100.77,1138.55 1107.61,1138.37 1114.45,1138.19 1121.29,1138.01 1128.13,1137.84 1134.97,1137.66 1141.81,1137.49 1148.66,1137.32 1155.5,1137.15 1162.34,1136.98 1169.18,1136.82 1176.02,1136.65 1182.86,1136.49 1189.7,1136.33 1196.55,1136.16 1203.39,1136.01 1210.23,1135.85 1217.07,1135.69 1223.91,1135.54 1230.75,1135.39 1237.59,1135.23 1244.44,1135.08 1251.28,1134.94 1258.12,1134.79 1264.96,1134.64 1271.8,1134.5 1278.64,1134.36 1285.49,1134.21 1292.33,1134.07 1299.17,1133.94 1306.01,1133.8 1312.85,1133.66 1319.69,1133.53 1326.53,1133.4 1333.38,1133.26 1340.22,1133.13 1347.06,1133 1353.9,1132.88 1360.74,1132.75 1367.58,1132.62 1374.42,1132.5 1381.27,1132.38 1388.11,1132.26 1394.95,1132.14 1401.79,1132.02 1408.63,1131.9 1415.47,1131.79 1422.31,1131.67 1429.16,1131.56 1436,1131.44 1442.84,1131.33 1449.68,1131.22 1456.52,1131.12 1463.36,1131.01 1470.2,1130.9 1477.05,1130.8 1483.89,1130.69 1490.73,1130.59 1497.57,1130.49 1504.41,1130.39 1511.25,1130.29 1518.1,1130.19 1524.94,1130.09 1531.78,1129.99 1538.62,1129.9 1545.46,1129.81 1552.3,1129.71 1559.14,1129.62 1565.99,1129.53 1572.83,1129.44 1579.67,1129.35 1586.51,1129.26 1593.35,1129.18 1600.19,1129.09 1607.03,1129.01 1613.88,1128.92 1620.72,1128.84 1627.56,1128.76 1634.4,1128.68 1641.24,1128.6 1648.08,1128.52 1654.92,1128.44 1661.77,1128.36 1668.61,1128.28 1675.45,1128.21 1682.29,1128.13 1689.13,1128.06 1695.97,1127.99 1702.82,1127.91 1709.66,1127.84 1716.5,1127.77 1723.34,1127.7 1730.18,1127.64 1737.02,1127.57 1743.86,1127.5 1750.71,1127.43 1757.55,1127.37 1764.39,1127.3 1771.23,1127.24 1778.07,1127.18 1784.91,1127.11 1791.75,1127.05 1798.6,1126.99 1805.44,1126.93 1812.28,1126.87 1819.12,1126.81 1825.96,1126.76 1832.8,1126.7 1839.64,1126.64 1846.49,1126.59 1853.33,1126.53 1860.17,1126.48 1867.01,1126.42 1873.85,1126.37 1880.69,1126.32 1887.54,1126.26 1894.38,1126.21 1901.22,1126.16 1908.06,1126.11 1914.9,1126.06 1921.74,1126.01 1928.58,1125.97 1935.43,1125.92 1942.27,1125.87 1949.11,1125.82 1955.95,1125.78 1962.79,1125.73 1969.63,1125.69 1976.47,1125.64 1983.32,1125.6 1990.16,1125.56 1997,1125.51 2003.84,1125.47 2010.68,1125.43 2017.52,1125.39 2024.36,1125.35 2031.21,1125.31 2038.05,1125.27 2044.89,1125.23 2051.73,1125.19 2058.57,1125.15 2065.41,1125.12 2072.26,1125.08 2079.1,1125.04 2085.94,1125.01 2092.78,1124.97 2099.62,1124.94 2106.46,1124.9 2113.3,1124.87 2120.15,1124.83 2126.99,1124.8 2133.83,1124.77 2140.67,1124.73 2147.51,1124.7 2154.35,1124.67 2161.19,1124.64 2168.04,1124.61 2174.88,1124.58 2181.72,1124.55 2188.56,1124.52 2195.4,1124.49 2202.24,1124.46 2209.08,1124.43 2215.93,1124.4 2222.77,1124.37 2229.61,1124.35 2236.45,1124.32 2243.29,1124.29 2250.13,1124.27 2256.98,1124.24 2263.82,1124.21 2270.66,1124.19 2277.5,1124.16 2284.34,1124.14 2291.18,1124.11 "/>
<polyline clip-path="url(#clip831)" style="stroke:#00a9ad; stroke-linecap:round; stroke-linejoin:round; stroke-width:8; stroke-opacity:1; fill:none" points="238.739,1018.39 245.58,1057.34 252.422,1106.07 259.263,1155.81 266.104,1190.51 272.946,1204.33 279.787,1210.96 286.629,1214.01 293.47,1214.91 300.312,1214.42 307.153,1212.98 313.995,1210.88 320.836,1208.33 327.678,1205.45 334.519,1202.35 341.361,1199.1 348.202,1195.75 355.044,1192.33 361.885,1188.87 368.727,1185.41 375.568,1181.94 382.41,1178.49 389.251,1175.07 396.093,1171.68 402.934,1168.32 409.776,1165.01 416.617,1161.74 423.459,1158.52 430.3,1155.34 437.141,1152.21 443.983,1149.14 450.824,1146.11 457.666,1143.12 464.507,1140.19 471.349,1137.31 478.19,1134.47 485.032,1131.69 491.873,1128.95 498.715,1126.25 505.556,1123.6 512.398,1121 519.239,1118.44 526.081,1115.93 532.922,1113.46 539.764,1111.03 546.605,1108.64 553.447,1106.29 560.288,1103.98 567.13,1101.72 573.971,1099.49 580.813,1097.3 587.654,1095.14 594.496,1093.03 601.337,1090.95 608.178,1088.9 615.02,1086.89 621.861,1084.92 628.703,1082.98 635.544,1081.07 642.386,1079.19 649.227,1077.35 656.069,1075.54 662.91,1073.75 669.752,1072 676.593,1070.28 683.435,1068.59 690.276,1066.93 697.118,1065.29 703.959,1063.68 710.801,1062.1 717.642,1060.55 724.484,1059.02 731.325,1057.52 738.167,1056.05 745.008,1054.6 751.85,1053.17 758.691,1051.77 765.533,1050.39 772.374,1049.04 779.215,1047.7 786.057,1046.4 792.898,1045.11 799.74,1043.84 806.581,1042.6 813.423,1041.38 820.264,1040.17 827.106,1038.99 833.947,1037.83 840.789,1036.69 847.63,1035.56 854.472,1034.46 861.313,1033.37 868.155,1032.31 874.996,1031.26 881.838,1030.23 888.679,1029.21 895.521,1028.21 902.362,1027.23 909.204,1026.27 916.045,1025.32 922.887,1024.39 929.728,1023.47 936.57,1022.57 943.411,1021.69 950.252,1020.82 957.094,1019.96 963.935,1019.12 970.777,1018.29 977.618,1017.47 984.46,1016.67 991.301,1015.89 998.143,1015.11 1004.98,1014.35 1011.83,1013.6 1018.67,1012.87 1025.51,1012.14 1032.35,1011.43 1039.19,1010.73 1046.03,1010.05 1052.87,1009.37 1059.72,1008.7 1066.56,1008.05 1073.4,1007.41 1080.24,1006.77 1087.08,1006.15 1093.92,1005.54 1100.77,1004.94 1107.61,1004.35 1114.45,1003.76 1121.29,1003.19 1128.13,1002.63 1134.97,1002.08 1141.81,1001.53 1148.66,1001 1155.5,1000.47 1162.34,999.952 1169.18,999.443 1176.02,998.943 1182.86,998.45 1189.7,997.966 1196.55,997.489 1203.39,997.021 1210.23,996.56 1217.07,996.107 1223.91,995.661 1230.75,995.223 1237.59,994.792 1244.44,994.368 1251.28,993.951 1258.12,993.541 1264.96,993.137 1271.8,992.74 1278.64,992.35 1285.49,991.966 1292.33,991.588 1299.17,991.217 1306.01,990.852 1312.85,990.492 1319.69,990.139 1326.53,989.791 1333.38,989.449 1340.22,989.112 1347.06,988.781 1353.9,988.456 1360.74,988.136 1367.58,987.821 1374.42,987.511 1381.27,987.206 1388.11,986.906 1394.95,986.611 1401.79,986.321 1408.63,986.036 1415.47,985.755 1422.31,985.479 1429.16,985.207 1436,984.939 1442.84,984.676 1449.68,984.418 1456.52,984.163 1463.36,983.913 1470.2,983.666 1477.05,983.424 1483.89,983.186 1490.73,982.951 1497.57,982.72 1504.41,982.493 1511.25,982.27 1518.1,982.05 1524.94,981.834 1531.78,981.621 1538.62,981.412 1545.46,981.206 1552.3,981.004 1559.14,980.804 1565.99,980.608 1572.83,980.415 1579.67,980.225 1586.51,980.039 1593.35,979.855 1600.19,979.674 1607.03,979.496 1613.88,979.321 1620.72,979.149 1627.56,978.979 1634.4,978.813 1641.24,978.649 1648.08,978.487 1654.92,978.328 1661.77,978.172 1668.61,978.018 1675.45,977.867 1682.29,977.718 1689.13,977.571 1695.97,977.427 1702.82,977.285 1709.66,977.146 1716.5,977.008 1723.34,976.873 1730.18,976.74 1737.02,976.609 1743.86,976.48 1750.71,976.354 1757.55,976.229 1764.39,976.106 1771.23,975.985 1778.07,975.866 1784.91,975.749 1791.75,975.634 1798.6,975.521 1805.44,975.41 1812.28,975.3 1819.12,975.192 1825.96,975.086 1832.8,974.981 1839.64,974.878 1846.49,974.777 1853.33,974.677 1860.17,974.579 1867.01,974.482 1873.85,974.387 1880.69,974.294 1887.54,974.202 1894.38,974.111 1901.22,974.022 1908.06,973.934 1914.9,973.848 1921.74,973.763 1928.58,973.679 1935.43,973.597 1942.27,973.516 1949.11,973.436 1955.95,973.358 1962.79,973.281 1969.63,973.205 1976.47,973.13 1983.32,973.056 1990.16,972.984 1997,972.912 2003.84,972.842 2010.68,972.773 2017.52,972.705 2024.36,972.638 2031.21,972.572 2038.05,972.507 2044.89,972.443 2051.73,972.38 2058.57,972.318 2065.41,972.257 2072.26,972.198 2079.1,972.139 2085.94,972.08 2092.78,972.023 2099.62,971.967 2106.46,971.912 2113.3,971.857 2120.15,971.803 2126.99,971.751 2133.83,971.698 2140.67,971.647 2147.51,971.597 2154.35,971.547 2161.19,971.498 2168.04,971.45 2174.88,971.403 2181.72,971.356 2188.56,971.311 2195.4,971.265 2202.24,971.221 2209.08,971.177 2215.93,971.134 2222.77,971.092 2229.61,971.05 2236.45,971.009 2243.29,970.968 2250.13,970.929 2256.98,970.889 2263.82,970.851 2270.66,970.813 2277.5,970.775 2284.34,970.739 2291.18,970.702 "/>
<polyline clip-path="url(#clip831)" style="stroke:#ed5d92; stroke-linecap:round; stroke-linejoin:round; stroke-width:8; stroke-opacity:1; fill:none" points="238.739,175.702 245.58,269.222 252.422,381.825 259.263,497.06 266.104,583.356 272.946,628.563 279.787,658.499 286.629,680.485 293.47,697.553 300.312,711.309 307.153,722.722 313.995,732.423 320.836,740.839 327.678,748.272 334.519,754.94 341.361,761.005 348.202,766.586 355.044,771.774 361.885,776.639 368.727,781.235 375.568,785.604 382.41,789.781 389.251,793.79 396.093,797.655 402.934,801.391 409.776,805.013 416.617,808.533 423.459,811.959 430.3,815.299 437.141,818.561 443.983,821.75 450.824,824.87 457.666,827.925 464.507,830.92 471.349,833.856 478.19,836.737 485.032,839.565 491.873,842.343 498.715,845.071 505.556,847.751 512.398,850.386 519.239,852.977 526.081,855.524 532.922,858.03 539.764,860.494 546.605,862.919 553.447,865.305 560.288,867.653 567.13,869.965 573.971,872.239 580.813,874.479 587.654,876.684 594.496,878.854 601.337,880.992 608.178,883.097 615.02,885.17 621.861,887.211 628.703,889.222 635.544,891.202 642.386,893.153 649.227,895.074 656.069,896.967 662.91,898.832 669.752,900.669 676.593,902.479 683.435,904.262 690.276,906.019 697.118,907.75 703.959,909.456 710.801,911.137 717.642,912.793 724.484,914.425 731.325,916.033 738.167,917.618 745.008,919.18 751.85,920.719 758.691,922.236 765.533,923.731 772.374,925.204 779.215,926.656 786.057,928.087 792.898,929.497 799.74,930.887 806.581,932.257 813.423,933.608 820.264,934.939 827.106,936.25 833.947,937.543 840.789,938.818 847.63,940.074 854.472,941.312 861.313,942.533 868.155,943.736 874.996,944.922 881.838,946.091 888.679,947.243 895.521,948.379 902.362,949.498 909.204,950.602 916.045,951.69 922.887,952.762 929.728,953.819 936.57,954.861 943.411,955.889 950.252,956.901 957.094,957.899 963.935,958.883 970.777,959.853 977.618,960.809 984.46,961.752 991.301,962.681 998.143,963.597 1004.98,964.5 1011.83,965.39 1018.67,966.268 1025.51,967.133 1032.35,967.986 1039.19,968.826 1046.03,969.655 1052.87,970.472 1059.72,971.277 1066.56,972.071 1073.4,972.854 1080.24,973.626 1087.08,974.386 1093.92,975.136 1100.77,975.875 1107.61,976.604 1114.45,977.322 1121.29,978.03 1128.13,978.729 1134.97,979.417 1141.81,980.095 1148.66,980.764 1155.5,981.424 1162.34,982.074 1169.18,982.714 1176.02,983.346 1182.86,983.969 1189.7,984.583 1196.55,985.188 1203.39,985.785 1210.23,986.373 1217.07,986.953 1223.91,987.524 1230.75,988.088 1237.59,988.644 1244.44,989.191 1251.28,989.731 1258.12,990.263 1264.96,990.788 1271.8,991.306 1278.64,991.816 1285.49,992.318 1292.33,992.814 1299.17,993.302 1306.01,993.784 1312.85,994.259 1319.69,994.727 1326.53,995.189 1333.38,995.644 1340.22,996.092 1347.06,996.534 1353.9,996.97 1360.74,997.4 1367.58,997.823 1374.42,998.241 1381.27,998.653 1388.11,999.058 1394.95,999.459 1401.79,999.853 1408.63,1000.24 1415.47,1000.63 1422.31,1001 1429.16,1001.38 1436,1001.74 1442.84,1002.1 1449.68,1002.46 1456.52,1002.81 1463.36,1003.16 1470.2,1003.5 1477.05,1003.84 1483.89,1004.17 1490.73,1004.5 1497.57,1004.82 1504.41,1005.14 1511.25,1005.46 1518.1,1005.76 1524.94,1006.07 1531.78,1006.37 1538.62,1006.67 1545.46,1006.96 1552.3,1007.25 1559.14,1007.53 1565.99,1007.81 1572.83,1008.09 1579.67,1008.36 1586.51,1008.63 1593.35,1008.89 1600.19,1009.15 1607.03,1009.41 1613.88,1009.66 1620.72,1009.91 1627.56,1010.16 1634.4,1010.4 1641.24,1010.64 1648.08,1010.88 1654.92,1011.11 1661.77,1011.34 1668.61,1011.57 1675.45,1011.79 1682.29,1012.01 1689.13,1012.22 1695.97,1012.44 1702.82,1012.65 1709.66,1012.86 1716.5,1013.06 1723.34,1013.26 1730.18,1013.46 1737.02,1013.66 1743.86,1013.85 1750.71,1014.04 1757.55,1014.23 1764.39,1014.41 1771.23,1014.6 1778.07,1014.78 1784.91,1014.95 1791.75,1015.13 1798.6,1015.3 1805.44,1015.47 1812.28,1015.64 1819.12,1015.8 1825.96,1015.97 1832.8,1016.13 1839.64,1016.28 1846.49,1016.44 1853.33,1016.59 1860.17,1016.75 1867.01,1016.9 1873.85,1017.04 1880.69,1017.19 1887.54,1017.33 1894.38,1017.47 1901.22,1017.61 1908.06,1017.75 1914.9,1017.88 1921.74,1018.02 1928.58,1018.15 1935.43,1018.28 1942.27,1018.41 1949.11,1018.53 1955.95,1018.66 1962.79,1018.78 1969.63,1018.9 1976.47,1019.02 1983.32,1019.14 1990.16,1019.25 1997,1019.36 2003.84,1019.48 2010.68,1019.59 2017.52,1019.7 2024.36,1019.8 2031.21,1019.91 2038.05,1020.02 2044.89,1020.12 2051.73,1020.22 2058.57,1020.32 2065.41,1020.42 2072.26,1020.52 2079.1,1020.61 2085.94,1020.71 2092.78,1020.8 2099.62,1020.89 2106.46,1020.98 2113.3,1021.07 2120.15,1021.16 2126.99,1021.25 2133.83,1021.33 2140.67,1021.42 2147.51,1021.5 2154.35,1021.58 2161.19,1021.66 2168.04,1021.74 2174.88,1021.82 2181.72,1021.9 2188.56,1021.98 2195.4,1022.05 2202.24,1022.13 2209.08,1022.2 2215.93,1022.27 2222.77,1022.34 2229.61,1022.41 2236.45,1022.48 2243.29,1022.55 2250.13,1022.62 2256.98,1022.68 2263.82,1022.75 2270.66,1022.81 2277.5,1022.88 2284.34,1022.94 2291.18,1023 "/>
</svg>
