<?xml version="1.0" encoding="utf-8"?>
<svg xmlns="http://www.w3.org/2000/svg" xmlns:xlink="http://www.w3.org/1999/xlink" width="600" height="400" viewBox="0 0 2400 1600">
<defs>
  <clipPath id="clip890">
    <rect x="0" y="0" width="2400" height="1600"/>
  </clipPath>
</defs>
<path clip-path="url(#clip890)" d="M0 1600 L2400 1600 L2400 0 L0 0  Z" fill="#ffffff" fill-rule="evenodd" fill-opacity="1"/>
<defs>
  <clipPath id="clip891">
    <rect x="177" y="140" width="2177" height="1236"/>
  </clipPath>
</defs>
<path clip-path="url(#clip890)" d="M177.165 1375.66 L2352.76 1375.66 L2352.76 140.752 L177.165 140.752  Z" fill="#ffffff" fill-rule="evenodd" fill-opacity="1"/>
<polyline clip-path="url(#clip891)" style="stroke:#000000; stroke-linecap:round; stroke-linejoin:round; stroke-width:2; stroke-opacity:0.1; fill:none" points="234.634,1375.66 234.634,140.752 "/>
<polyline clip-path="url(#clip891)" style="stroke:#000000; stroke-linecap:round; stroke-linejoin:round; stroke-width:2; stroke-opacity:0.1; fill:none" points="645.122,1375.66 645.122,140.752 "/>
<polyline clip-path="url(#clip891)" style="stroke:#000000; stroke-linecap:round; stroke-linejoin:round; stroke-width:2; stroke-opacity:0.1; fill:none" points="1055.61,1375.66 1055.61,140.752 "/>
<polyline clip-path="url(#clip891)" style="stroke:#000000; stroke-linecap:round; stroke-linejoin:round; stroke-width:2; stroke-opacity:0.1; fill:none" points="1466.1,1375.66 1466.1,140.752 "/>
<polyline clip-path="url(#clip891)" style="stroke:#000000; stroke-linecap:round; stroke-linejoin:round; stroke-width:2; stroke-opacity:0.1; fill:none" points="1876.59,1375.66 1876.59,140.752 "/>
<polyline clip-path="url(#clip891)" style="stroke:#000000; stroke-linecap:round; stroke-linejoin:round; stroke-width:2; stroke-opacity:0.1; fill:none" points="2287.08,1375.66 2287.08,140.752 "/>
<polyline clip-path="url(#clip891)" style="stroke:#000000; stroke-linecap:round; stroke-linejoin:round; stroke-width:2; stroke-opacity:0.1; fill:none" points="177.165,1345.75 2352.76,1345.75 "/>
<polyline clip-path="url(#clip891)" style="stroke:#000000; stroke-linecap:round; stroke-linejoin:round; stroke-width:2; stroke-opacity:0.1; fill:none" points="177.165,1011.45 2352.76,1011.45 "/>
<polyline clip-path="url(#clip891)" style="stroke:#000000; stroke-linecap:round; stroke-linejoin:round; stroke-width:2; stroke-opacity:0.1; fill:none" points="177.165,677.152 2352.76,677.152 "/>
<polyline clip-path="url(#clip891)" style="stroke:#000000; stroke-linecap:round; stroke-linejoin:round; stroke-width:2; stroke-opacity:0.1; fill:none" points="177.165,342.852 2352.76,342.852 "/>
<polyline clip-path="url(#clip890)" style="stroke:#000000; stroke-linecap:round; stroke-linejoin:round; stroke-width:4; stroke-opacity:1; fill:none" points="177.165,1375.66 2352.76,1375.66 "/>
<polyline clip-path="url(#clip890)" style="stroke:#000000; stroke-linecap:round; stroke-linejoin:round; stroke-width:4; stroke-opacity:1; fill:none" points="234.634,1375.66 234.634,1356.76 "/>
<polyline clip-path="url(#clip890)" style="stroke:#000000; stroke-linecap:round; stroke-linejoin:round; stroke-width:4; stroke-opacity:1; fill:none" points="645.122,1375.66 645.122,1356.76 "/>
<polyline clip-path="url(#clip890)" style="stroke:#000000; stroke-linecap:round; stroke-linejoin:round; stroke-width:4; stroke-opacity:1; fill:none" points="1055.61,1375.66 1055.61,1356.76 "/>
<polyline clip-path="url(#clip890)" style="stroke:#000000; stroke-linecap:round; stroke-linejoin:round; stroke-width:4; stroke-opacity:1; fill:none" points="1466.1,1375.66 1466.1,1356.76 "/>
<polyline clip-path="url(#clip890)" style="stroke:#000000; stroke-linecap:round; stroke-linejoin:round; stroke-width:4; stroke-opacity:1; fill:none" points="1876.59,1375.66 1876.59,1356.76 "/>
<polyline clip-path="url(#clip890)" style="stroke:#000000; stroke-linecap:round; stroke-linejoin:round; stroke-width:4; stroke-opacity:1; fill:none" points="2287.08,1375.66 2287.08,1356.76 "/>
<path clip-path="url(#clip890)" d="M234.634 1412.44 Q229.217 1412.44 226.474 1417.79 Q223.766 1423.1 223.766 1433.79 Q223.766 1444.45 226.474 1449.8 Q229.217 1455.11 234.634 1455.11 Q240.085 1455.11 242.793 1449.8 Q245.536 1444.45 245.536 1433.79 Q245.536 1423.1 242.793 1417.79 Q240.085 1412.44 234.634 1412.44 M234.634 1406.88 Q243.349 1406.88 247.932 1413.79 Q252.55 1420.67 252.55 1433.79 Q252.55 1446.88 247.932 1453.79 Q243.349 1460.67 234.634 1460.67 Q225.918 1460.67 221.3 1453.79 Q216.717 1446.88 216.717 1433.79 Q216.717 1420.67 221.3 1413.79 Q225.918 1406.88 234.634 1406.88 Z" fill="#000000" fill-rule="nonzero" fill-opacity="1" /><path clip-path="url(#clip890)" d="M584.533 1453.76 L595.991 1453.76 L595.991 1414.21 L583.526 1416.71 L583.526 1410.32 L595.921 1407.82 L602.935 1407.82 L602.935 1453.76 L614.393 1453.76 L614.393 1459.66 L584.533 1459.66 L584.533 1453.76 Z" fill="#000000" fill-rule="nonzero" fill-opacity="1" /><path clip-path="url(#clip890)" d="M643.56 1412.44 Q638.143 1412.44 635.4 1417.79 Q632.692 1423.1 632.692 1433.79 Q632.692 1444.45 635.4 1449.8 Q638.143 1455.11 643.56 1455.11 Q649.011 1455.11 651.72 1449.8 Q654.463 1444.45 654.463 1433.79 Q654.463 1423.1 651.72 1417.79 Q649.011 1412.44 643.56 1412.44 M643.56 1406.88 Q652.275 1406.88 656.859 1413.79 Q661.477 1420.67 661.477 1433.79 Q661.477 1446.88 656.859 1453.79 Q652.275 1460.67 643.56 1460.67 Q634.845 1460.67 630.227 1453.79 Q625.643 1446.88 625.643 1433.79 Q625.643 1420.67 630.227 1413.79 Q634.845 1406.88 643.56 1406.88 Z" fill="#000000" fill-rule="nonzero" fill-opacity="1" /><path clip-path="url(#clip890)" d="M688.803 1412.44 Q683.386 1412.44 680.643 1417.79 Q677.935 1423.1 677.935 1433.79 Q677.935 1444.45 680.643 1449.8 Q683.386 1455.11 688.803 1455.11 Q694.254 1455.11 696.962 1449.8 Q699.706 1444.45 699.706 1433.79 Q699.706 1423.1 696.962 1417.79 Q694.254 1412.44 688.803 1412.44 M688.803 1406.88 Q697.518 1406.88 702.101 1413.79 Q706.719 1420.67 706.719 1433.79 Q706.719 1446.88 702.101 1453.79 Q697.518 1460.67 688.803 1460.67 Q680.088 1460.67 675.47 1453.79 Q670.886 1446.88 670.886 1433.79 Q670.886 1420.67 675.47 1413.79 Q680.088 1406.88 688.803 1406.88 Z" fill="#000000" fill-rule="nonzero" fill-opacity="1" /><path clip-path="url(#clip890)" d="M1001.15 1453.76 L1025.63 1453.76 L1025.63 1459.66 L992.712 1459.66 L992.712 1453.76 Q996.705 1449.63 1003.58 1442.68 Q1010.49 1435.7 1012.26 1433.69 Q1015.63 1429.9 1016.95 1427.3 Q1018.3 1424.66 1018.3 1422.13 Q1018.3 1417.99 1015.39 1415.39 Q1012.5 1412.79 1007.85 1412.79 Q1004.55 1412.79 1000.87 1413.93 Q997.226 1415.08 993.06 1417.4 L993.06 1410.32 Q997.296 1408.62 1000.98 1407.75 Q1004.66 1406.88 1007.71 1406.88 Q1015.77 1406.88 1020.56 1410.91 Q1025.35 1414.94 1025.35 1421.67 Q1025.35 1424.87 1024.14 1427.75 Q1022.96 1430.6 1019.8 1434.49 Q1018.93 1435.49 1014.27 1440.32 Q1009.62 1445.11 1001.15 1453.76 Z" fill="#000000" fill-rule="nonzero" fill-opacity="1" /><path clip-path="url(#clip890)" d="M1055.35 1412.44 Q1049.93 1412.44 1047.19 1417.79 Q1044.48 1423.1 1044.48 1433.79 Q1044.48 1444.45 1047.19 1449.8 Q1049.93 1455.11 1055.35 1455.11 Q1060.8 1455.11 1063.51 1449.8 Q1066.25 1444.45 1066.25 1433.79 Q1066.25 1423.1 1063.51 1417.79 Q1060.8 1412.44 1055.35 1412.44 M1055.35 1406.88 Q1064.07 1406.88 1068.65 1413.79 Q1073.27 1420.67 1073.27 1433.79 Q1073.27 1446.88 1068.65 1453.79 Q1064.07 1460.67 1055.35 1460.67 Q1046.64 1460.67 1042.02 1453.79 Q1037.43 1446.88 1037.43 1433.79 Q1037.43 1420.67 1042.02 1413.79 Q1046.64 1406.88 1055.35 1406.88 Z" fill="#000000" fill-rule="nonzero" fill-opacity="1" /><path clip-path="url(#clip890)" d="M1100.59 1412.44 Q1095.18 1412.44 1092.43 1417.79 Q1089.73 1423.1 1089.73 1433.79 Q1089.73 1444.45 1092.43 1449.8 Q1095.18 1455.11 1100.59 1455.11 Q1106.05 1455.11 1108.75 1449.8 Q1111.5 1444.45 1111.5 1433.79 Q1111.5 1423.1 1108.75 1417.79 Q1106.05 1412.44 1100.59 1412.44 M1100.59 1406.88 Q1109.31 1406.88 1113.89 1413.79 Q1118.51 1420.67 1118.51 1433.79 Q1118.51 1446.88 1113.89 1453.79 Q1109.31 1460.67 1100.59 1460.67 Q1091.88 1460.67 1087.26 1453.79 Q1082.68 1446.88 1082.68 1433.79 Q1082.68 1420.67 1087.26 1413.79 Q1091.88 1406.88 1100.59 1406.88 Z" fill="#000000" fill-rule="nonzero" fill-opacity="1" /><path clip-path="url(#clip890)" d="M1426.74 1431.71 Q1431.78 1432.78 1434.59 1436.19 Q1437.44 1439.59 1437.44 1444.59 Q1437.44 1452.26 1432.16 1456.47 Q1426.88 1460.67 1417.16 1460.67 Q1413.9 1460.67 1410.42 1460.01 Q1406.99 1459.38 1403.31 1458.1 L1403.31 1451.33 Q1406.22 1453.03 1409.69 1453.9 Q1413.17 1454.76 1416.95 1454.76 Q1423.55 1454.76 1426.99 1452.16 Q1430.46 1449.56 1430.46 1444.59 Q1430.46 1440.01 1427.23 1437.44 Q1424.03 1434.83 1418.31 1434.83 L1412.26 1434.83 L1412.26 1429.07 L1418.58 1429.07 Q1423.76 1429.07 1426.5 1427.02 Q1429.24 1424.94 1429.24 1421.05 Q1429.24 1417.06 1426.4 1414.94 Q1423.58 1412.79 1418.31 1412.79 Q1415.42 1412.79 1412.12 1413.41 Q1408.83 1414.04 1404.87 1415.35 L1404.87 1409.1 Q1408.86 1407.99 1412.33 1407.44 Q1415.84 1406.88 1418.93 1406.88 Q1426.92 1406.88 1431.57 1410.53 Q1436.22 1414.14 1436.22 1420.32 Q1436.22 1424.63 1433.76 1427.61 Q1431.29 1430.56 1426.74 1431.71 Z" fill="#000000" fill-rule="nonzero" fill-opacity="1" /><path clip-path="url(#clip890)" d="M1465.74 1412.44 Q1460.32 1412.44 1457.58 1417.79 Q1454.87 1423.1 1454.87 1433.79 Q1454.87 1444.45 1457.58 1449.8 Q1460.32 1455.11 1465.74 1455.11 Q1471.19 1455.11 1473.9 1449.8 Q1476.64 1444.45 1476.64 1433.79 Q1476.64 1423.1 1473.9 1417.79 Q1471.19 1412.44 1465.74 1412.44 M1465.74 1406.88 Q1474.45 1406.88 1479.03 1413.79 Q1483.65 1420.67 1483.65 1433.79 Q1483.65 1446.88 1479.03 1453.79 Q1474.45 1460.67 1465.74 1460.67 Q1457.02 1460.67 1452.4 1453.79 Q1447.82 1446.88 1447.82 1433.79 Q1447.82 1420.67 1452.4 1413.79 Q1457.02 1406.88 1465.74 1406.88 Z" fill="#000000" fill-rule="nonzero" fill-opacity="1" /><path clip-path="url(#clip890)" d="M1510.98 1412.44 Q1505.56 1412.44 1502.82 1417.79 Q1500.11 1423.1 1500.11 1433.79 Q1500.11 1444.45 1502.82 1449.8 Q1505.56 1455.11 1510.98 1455.11 Q1516.43 1455.11 1519.14 1449.8 Q1521.88 1444.45 1521.88 1433.79 Q1521.88 1423.1 1519.14 1417.79 Q1516.43 1412.44 1510.98 1412.44 M1510.98 1406.88 Q1519.69 1406.88 1524.28 1413.79 Q1528.89 1420.67 1528.89 1433.79 Q1528.89 1446.88 1524.28 1453.79 Q1519.69 1460.67 1510.98 1460.67 Q1502.26 1460.67 1497.65 1453.79 Q1493.06 1446.88 1493.06 1433.79 Q1493.06 1420.67 1497.65 1413.79 Q1502.26 1406.88 1510.98 1406.88 Z" fill="#000000" fill-rule="nonzero" fill-opacity="1" /><path clip-path="url(#clip890)" d="M1836.22 1413.93 L1818.52 1441.6 L1836.22 1441.6 L1836.22 1413.93 M1834.38 1407.82 L1843.2 1407.82 L1843.2 1441.6 L1850.6 1441.6 L1850.6 1447.44 L1843.2 1447.44 L1843.2 1459.66 L1836.22 1459.66 L1836.22 1447.44 L1812.82 1447.44 L1812.82 1440.67 L1834.38 1407.82 Z" fill="#000000" fill-rule="nonzero" fill-opacity="1" /><path clip-path="url(#clip890)" d="M1877.2 1412.44 Q1871.78 1412.44 1869.04 1417.79 Q1866.33 1423.1 1866.33 1433.79 Q1866.33 1444.45 1869.04 1449.8 Q1871.78 1455.11 1877.2 1455.11 Q1882.65 1455.11 1885.36 1449.8 Q1888.1 1444.45 1888.1 1433.79 Q1888.1 1423.1 1885.36 1417.79 Q1882.65 1412.44 1877.2 1412.44 M1877.2 1406.88 Q1885.91 1406.88 1890.5 1413.79 Q1895.11 1420.67 1895.11 1433.79 Q1895.11 1446.88 1890.5 1453.79 Q1885.91 1460.67 1877.2 1460.67 Q1868.48 1460.67 1863.86 1453.79 Q1859.28 1446.88 1859.28 1433.79 Q1859.28 1420.67 1863.86 1413.79 Q1868.48 1406.88 1877.2 1406.88 Z" fill="#000000" fill-rule="nonzero" fill-opacity="1" /><path clip-path="url(#clip890)" d="M1922.44 1412.44 Q1917.02 1412.44 1914.28 1417.79 Q1911.57 1423.1 1911.57 1433.79 Q1911.57 1444.45 1914.28 1449.8 Q1917.02 1455.11 1922.44 1455.11 Q1927.89 1455.11 1930.6 1449.8 Q1933.34 1444.45 1933.34 1433.79 Q1933.34 1423.1 1930.6 1417.79 Q1927.89 1412.44 1922.44 1412.44 M1922.44 1406.88 Q1931.15 1406.88 1935.74 1413.79 Q1940.36 1420.67 1940.36 1433.79 Q1940.36 1446.88 1935.74 1453.79 Q1931.15 1460.67 1922.44 1460.67 Q1913.72 1460.67 1909.11 1453.79 Q1904.52 1446.88 1904.52 1433.79 Q1904.52 1420.67 1909.11 1413.79 Q1913.72 1406.88 1922.44 1406.88 Z" fill="#000000" fill-rule="nonzero" fill-opacity="1" /><path clip-path="url(#clip890)" d="M2226.51 1407.82 L2254.04 1407.82 L2254.04 1413.72 L2232.93 1413.72 L2232.93 1426.43 Q2234.46 1425.91 2235.98 1425.67 Q2237.51 1425.39 2239.04 1425.39 Q2247.72 1425.39 2252.79 1430.15 Q2257.86 1434.9 2257.86 1443.03 Q2257.86 1451.4 2252.65 1456.05 Q2247.44 1460.67 2237.96 1460.67 Q2234.7 1460.67 2231.3 1460.11 Q2227.93 1459.56 2224.32 1458.44 L2224.32 1451.4 Q2227.44 1453.1 2230.78 1453.93 Q2234.11 1454.76 2237.82 1454.76 Q2243.83 1454.76 2247.34 1451.6 Q2250.85 1448.44 2250.85 1443.03 Q2250.85 1437.61 2247.34 1434.45 Q2243.83 1431.29 2237.82 1431.29 Q2235.01 1431.29 2232.2 1431.92 Q2229.42 1432.54 2226.51 1433.86 L2226.51 1407.82 Z" fill="#000000" fill-rule="nonzero" fill-opacity="1" /><path clip-path="url(#clip890)" d="M2286.68 1412.44 Q2281.26 1412.44 2278.52 1417.79 Q2275.81 1423.1 2275.81 1433.79 Q2275.81 1444.45 2278.52 1449.8 Q2281.26 1455.11 2286.68 1455.11 Q2292.13 1455.11 2294.84 1449.8 Q2297.58 1444.45 2297.58 1433.79 Q2297.58 1423.1 2294.84 1417.79 Q2292.13 1412.44 2286.68 1412.44 M2286.68 1406.88 Q2295.39 1406.88 2299.98 1413.79 Q2304.59 1420.67 2304.59 1433.79 Q2304.59 1446.88 2299.98 1453.79 Q2295.39 1460.67 2286.68 1460.67 Q2277.96 1460.67 2273.35 1453.79 Q2268.76 1446.88 2268.76 1433.79 Q2268.76 1420.67 2273.35 1413.79 Q2277.96 1406.88 2286.68 1406.88 Z" fill="#000000" fill-rule="nonzero" fill-opacity="1" /><path clip-path="url(#clip890)" d="M2331.92 1412.44 Q2326.5 1412.44 2323.76 1417.79 Q2321.05 1423.1 2321.05 1433.79 Q2321.05 1444.45 2323.76 1449.8 Q2326.5 1455.11 2331.92 1455.11 Q2337.37 1455.11 2340.08 1449.8 Q2342.82 1444.45 2342.82 1433.79 Q2342.82 1423.1 2340.08 1417.79 Q2337.37 1412.44 2331.92 1412.44 M2331.92 1406.88 Q2340.64 1406.88 2345.22 1413.79 Q2349.84 1420.67 2349.84 1433.79 Q2349.84 1446.88 2345.22 1453.79 Q2340.64 1460.67 2331.92 1460.67 Q2323.21 1460.67 2318.59 1453.79 Q2314 1446.88 2314 1433.79 Q2314 1420.67 2318.59 1413.79 Q2323.21 1406.88 2331.92 1406.88 Z" fill="#000000" fill-rule="nonzero" fill-opacity="1" /><path clip-path="url(#clip890)" d="M1048.5 1504.97 L1059.02 1504.97 L1059.02 1582.73 L1048.5 1582.73 L1048.5 1504.97 Z" fill="#000000" fill-rule="nonzero" fill-opacity="1" /><path clip-path="url(#clip890)" d="M1089.02 1507.84 L1089.02 1524.4 L1108.76 1524.4 L1108.76 1531.85 L1089.02 1531.85 L1089.02 1563.51 Q1089.02 1570.65 1090.95 1572.68 Q1092.93 1574.71 1098.92 1574.71 L1108.76 1574.71 L1108.76 1582.73 L1098.92 1582.73 Q1087.83 1582.73 1083.61 1578.62 Q1079.39 1574.45 1079.39 1563.51 L1079.39 1531.85 L1072.36 1531.85 L1072.36 1524.4 L1079.39 1524.4 L1079.39 1507.84 L1089.02 1507.84 Z" fill="#000000" fill-rule="nonzero" fill-opacity="1" /><path clip-path="url(#clip890)" d="M1171.26 1551.17 L1171.26 1555.86 L1127.2 1555.86 Q1127.83 1565.75 1133.14 1570.96 Q1138.5 1576.12 1148.03 1576.12 Q1153.55 1576.12 1158.71 1574.76 Q1163.92 1573.41 1169.02 1570.7 L1169.02 1579.76 Q1163.87 1581.95 1158.45 1583.1 Q1153.03 1584.24 1147.46 1584.24 Q1133.5 1584.24 1125.33 1576.12 Q1117.2 1567.99 1117.2 1554.14 Q1117.2 1539.82 1124.91 1531.43 Q1132.67 1522.99 1145.79 1522.99 Q1157.57 1522.99 1164.39 1530.6 Q1171.26 1538.15 1171.26 1551.17 M1161.68 1548.36 Q1161.58 1540.49 1157.25 1535.81 Q1152.98 1531.12 1145.9 1531.12 Q1137.88 1531.12 1133.03 1535.65 Q1128.24 1540.18 1127.51 1548.41 L1161.68 1548.36 Z" fill="#000000" fill-rule="nonzero" fill-opacity="1" /><path clip-path="url(#clip890)" d="M1220.79 1533.36 Q1219.18 1532.42 1217.25 1532 Q1215.38 1531.53 1213.09 1531.53 Q1204.96 1531.53 1200.59 1536.85 Q1196.26 1542.11 1196.26 1552 L1196.26 1582.73 L1186.63 1582.73 L1186.63 1524.4 L1196.26 1524.4 L1196.26 1533.46 Q1199.28 1528.15 1204.13 1525.6 Q1208.97 1522.99 1215.9 1522.99 Q1216.89 1522.99 1218.09 1523.15 Q1219.28 1523.25 1220.74 1523.51 L1220.79 1533.36 Z" fill="#000000" fill-rule="nonzero" fill-opacity="1" /><path clip-path="url(#clip890)" d="M1257.36 1553.41 Q1245.74 1553.41 1241.26 1556.07 Q1236.78 1558.72 1236.78 1565.13 Q1236.78 1570.23 1240.12 1573.25 Q1243.5 1576.22 1249.28 1576.22 Q1257.25 1576.22 1262.04 1570.6 Q1266.89 1564.92 1266.89 1555.54 L1266.89 1553.41 L1257.36 1553.41 M1276.47 1549.45 L1276.47 1582.73 L1266.89 1582.73 L1266.89 1573.88 Q1263.61 1579.19 1258.71 1581.74 Q1253.81 1584.24 1246.73 1584.24 Q1237.77 1584.24 1232.46 1579.24 Q1227.2 1574.19 1227.2 1565.75 Q1227.2 1555.91 1233.76 1550.91 Q1240.38 1545.91 1253.45 1545.91 L1266.89 1545.91 L1266.89 1544.97 Q1266.89 1538.36 1262.51 1534.76 Q1258.19 1531.12 1250.33 1531.12 Q1245.33 1531.12 1240.59 1532.32 Q1235.85 1533.51 1231.47 1535.91 L1231.47 1527.06 Q1236.73 1525.02 1241.68 1524.03 Q1246.63 1522.99 1251.31 1522.99 Q1263.97 1522.99 1270.22 1529.56 Q1276.47 1536.12 1276.47 1549.45 Z" fill="#000000" fill-rule="nonzero" fill-opacity="1" /><path clip-path="url(#clip890)" d="M1305.69 1507.84 L1305.69 1524.4 L1325.43 1524.4 L1325.43 1531.85 L1305.69 1531.85 L1305.69 1563.51 Q1305.69 1570.65 1307.62 1572.68 Q1309.6 1574.71 1315.59 1574.71 L1325.43 1574.71 L1325.43 1582.73 L1315.59 1582.73 Q1304.49 1582.73 1300.27 1578.62 Q1296.05 1574.45 1296.05 1563.51 L1296.05 1531.85 L1289.02 1531.85 L1289.02 1524.4 L1296.05 1524.4 L1296.05 1507.84 L1305.69 1507.84 Z" fill="#000000" fill-rule="nonzero" fill-opacity="1" /><path clip-path="url(#clip890)" d="M1338.03 1524.4 L1347.62 1524.4 L1347.62 1582.73 L1338.03 1582.73 L1338.03 1524.4 M1338.03 1501.69 L1347.62 1501.69 L1347.62 1513.83 L1338.03 1513.83 L1338.03 1501.69 Z" fill="#000000" fill-rule="nonzero" fill-opacity="1" /><path clip-path="url(#clip890)" d="M1390.27 1531.12 Q1382.56 1531.12 1378.08 1537.16 Q1373.61 1543.15 1373.61 1553.62 Q1373.61 1564.09 1378.03 1570.13 Q1382.51 1576.12 1390.27 1576.12 Q1397.93 1576.12 1402.41 1570.08 Q1406.89 1564.03 1406.89 1553.62 Q1406.89 1543.25 1402.41 1537.21 Q1397.93 1531.12 1390.27 1531.12 M1390.27 1522.99 Q1402.77 1522.99 1409.91 1531.12 Q1417.04 1539.24 1417.04 1553.62 Q1417.04 1567.94 1409.91 1576.12 Q1402.77 1584.24 1390.27 1584.24 Q1377.72 1584.24 1370.59 1576.12 Q1363.5 1567.94 1363.5 1553.62 Q1363.5 1539.24 1370.59 1531.12 Q1377.72 1522.99 1390.27 1522.99 Z" fill="#000000" fill-rule="nonzero" fill-opacity="1" /><path clip-path="url(#clip890)" d="M1481.42 1547.52 L1481.42 1582.73 L1471.83 1582.73 L1471.83 1547.84 Q1471.83 1539.55 1468.61 1535.44 Q1465.38 1531.33 1458.92 1531.33 Q1451.16 1531.33 1446.68 1536.27 Q1442.2 1541.22 1442.2 1549.76 L1442.2 1582.73 L1432.56 1582.73 L1432.56 1524.4 L1442.2 1524.4 L1442.2 1533.46 Q1445.64 1528.2 1450.27 1525.6 Q1454.96 1522.99 1461.05 1522.99 Q1471.11 1522.99 1476.26 1529.24 Q1481.42 1535.44 1481.42 1547.52 Z" fill="#000000" fill-rule="nonzero" fill-opacity="1" /><polyline clip-path="url(#clip890)" style="stroke:#000000; stroke-linecap:round; stroke-linejoin:round; stroke-width:4; stroke-opacity:1; fill:none" points="177.165,1375.66 177.165,140.752 "/>
<polyline clip-path="url(#clip890)" style="stroke:#000000; stroke-linecap:round; stroke-linejoin:round; stroke-width:4; stroke-opacity:1; fill:none" points="177.165,1345.75 196.063,1345.75 "/>
<polyline clip-path="url(#clip890)" style="stroke:#000000; stroke-linecap:round; stroke-linejoin:round; stroke-width:4; stroke-opacity:1; fill:none" points="177.165,1011.45 196.063,1011.45 "/>
<polyline clip-path="url(#clip890)" style="stroke:#000000; stroke-linecap:round; stroke-linejoin:round; stroke-width:4; stroke-opacity:1; fill:none" points="177.165,677.152 196.063,677.152 "/>
<polyline clip-path="url(#clip890)" style="stroke:#000000; stroke-linecap:round; stroke-linejoin:round; stroke-width:4; stroke-opacity:1; fill:none" points="177.165,342.852 196.063,342.852 "/>
<path clip-path="url(#clip890)" d="M50.9921 1346.43 L95.5058 1346.43 L95.5058 1352.33 L50.9921 1352.33 L50.9921 1346.43 Z" fill="#000000" fill-rule="nonzero" fill-opacity="1" /><path clip-path="url(#clip890)" d="M116.686 1365.77 L141.165 1365.77 L141.165 1371.67 L108.249 1371.67 L108.249 1365.77 Q112.242 1361.64 119.117 1354.69 Q126.026 1347.71 127.797 1345.7 Q131.165 1341.92 132.485 1339.31 Q133.839 1336.67 133.839 1334.14 Q133.839 1330.01 130.922 1327.4 Q128.04 1324.8 123.388 1324.8 Q120.089 1324.8 116.408 1325.94 Q112.763 1327.09 108.596 1329.42 L108.596 1322.33 Q112.832 1320.63 116.513 1319.76 Q120.193 1318.89 123.249 1318.89 Q131.304 1318.89 136.096 1322.92 Q140.887 1326.95 140.887 1333.69 Q140.887 1336.88 139.672 1339.76 Q138.492 1342.61 135.332 1346.5 Q134.464 1347.51 129.811 1352.33 Q125.158 1357.12 116.686 1365.77 Z" fill="#000000" fill-rule="nonzero" fill-opacity="1" /><path clip-path="url(#clip890)" d="M123.249 990.15 Q117.832 990.15 115.089 995.497 Q112.381 1000.81 112.381 1011.5 Q112.381 1022.16 115.089 1027.51 Q117.832 1032.82 123.249 1032.82 Q128.7 1032.82 131.408 1027.51 Q134.151 1022.16 134.151 1011.5 Q134.151 1000.81 131.408 995.497 Q128.7 990.15 123.249 990.15 M123.249 984.595 Q131.964 984.595 136.547 991.504 Q141.165 998.379 141.165 1011.5 Q141.165 1024.59 136.547 1031.5 Q131.964 1038.38 123.249 1038.38 Q114.533 1038.38 109.915 1031.5 Q105.332 1024.59 105.332 1011.5 Q105.332 998.379 109.915 991.504 Q114.533 984.595 123.249 984.595 Z" fill="#000000" fill-rule="nonzero" fill-opacity="1" /><path clip-path="url(#clip890)" d="M116.686 697.17 L141.165 697.17 L141.165 703.072 L108.249 703.072 L108.249 697.17 Q112.242 693.038 119.117 686.093 Q126.026 679.114 127.797 677.1 Q131.165 673.315 132.485 670.711 Q133.839 668.072 133.839 665.538 Q133.839 661.406 130.922 658.802 Q128.04 656.198 123.388 656.198 Q120.089 656.198 116.408 657.343 Q112.763 658.489 108.596 660.816 L108.596 653.732 Q112.832 652.031 116.513 651.163 Q120.193 650.295 123.249 650.295 Q131.304 650.295 136.096 654.323 Q140.887 658.35 140.887 665.086 Q140.887 668.281 139.672 671.163 Q138.492 674.01 135.332 677.899 Q134.464 678.906 129.811 683.732 Q125.158 688.524 116.686 697.17 Z" fill="#000000" fill-rule="nonzero" fill-opacity="1" /><path clip-path="url(#clip890)" d="M126.79 323.043 L109.082 350.717 L126.79 350.717 L126.79 323.043 M124.95 316.932 L133.769 316.932 L133.769 350.717 L141.165 350.717 L141.165 356.55 L133.769 356.55 L133.769 368.772 L126.79 368.772 L126.79 356.55 L103.388 356.55 L103.388 349.779 L124.95 316.932 Z" fill="#000000" fill-rule="nonzero" fill-opacity="1" /><path clip-path="url(#clip890)" d="M1179.88 22.6874 Q1168.42 22.6874 1161.65 31.229 Q1154.94 39.7706 1154.94 54.5101 Q1154.94 69.1975 1161.65 77.7392 Q1168.42 86.2808 1179.88 86.2808 Q1191.34 86.2808 1198.01 77.7392 Q1204.73 69.1975 1204.73 54.5101 Q1204.73 39.7706 1198.01 31.229 Q1191.34 22.6874 1179.88 22.6874 M1179.88 14.1458 Q1196.24 14.1458 1206.03 25.1353 Q1215.82 36.0727 1215.82 54.5101 Q1215.82 72.8954 1206.03 83.885 Q1196.24 94.8224 1179.88 94.8224 Q1163.48 94.8224 1153.63 83.885 Q1143.84 72.9475 1143.84 54.5101 Q1143.84 36.0727 1153.63 25.1353 Q1163.48 14.1458 1179.88 14.1458 Z" fill="#000000" fill-rule="nonzero" fill-opacity="1" /><path clip-path="url(#clip890)" d="M1285.3 82.2183 L1285.3 61.333 L1268.11 61.333 L1268.11 52.6872 L1295.72 52.6872 L1295.72 86.0725 Q1289.62 90.3953 1282.28 92.6349 Q1274.93 94.8224 1266.6 94.8224 Q1248.37 94.8224 1238.06 84.1975 Q1227.8 73.5204 1227.8 54.5101 Q1227.8 35.4477 1238.06 24.8228 Q1248.37 14.1458 1266.6 14.1458 Q1274.21 14.1458 1281.03 16.0207 Q1287.9 17.8957 1293.68 21.5416 L1293.68 32.7394 Q1287.85 27.7915 1281.29 25.2915 Q1274.73 22.7915 1267.49 22.7915 Q1253.22 22.7915 1246.03 30.7603 Q1238.89 38.729 1238.89 54.5101 Q1238.89 70.2392 1246.03 78.2079 Q1253.22 86.1766 1267.49 86.1766 Q1273.06 86.1766 1277.43 85.2391 Q1281.81 84.2495 1285.3 82.2183 Z" fill="#000000" fill-rule="nonzero" fill-opacity="1" /><path clip-path="url(#clip890)" d="M1314.93 15.552 L1330.61 15.552 L1350.45 68.4684 L1370.4 15.552 L1386.08 15.552 L1386.08 93.312 L1375.82 93.312 L1375.82 25.0311 L1355.77 78.3642 L1345.19 78.3642 L1325.14 25.0311 L1325.14 93.312 L1314.93 93.312 L1314.93 15.552 Z" fill="#000000" fill-rule="nonzero" fill-opacity="1" /><polyline clip-path="url(#clip891)" style="stroke:#009af9; stroke-linecap:round; stroke-linejoin:round; stroke-width:8; stroke-opacity:1; fill:none" points="238.739,1178.6 242.843,935.678 246.948,702.065 251.053,641.862 255.158,629.223 259.263,635.739 263.368,646.173 267.473,659.94 271.578,676.344 275.683,694.457 279.787,713.139 283.892,731.115 287.997,747.11 292.102,760.035 296.207,769.168 300.312,774.292 304.417,775.723 308.522,774.199 312.627,770.697 316.731,766.219 320.836,761.638 324.941,757.607 329.046,754.529 333.151,752.575 337.256,751.722 341.361,751.804 345.466,752.174 349.571,752.728 353.675,753.395 357.78,754.112 361.885,754.825 365.99,755.484 370.095,756.055 374.2,756.516 378.305,756.859 382.41,757.088 386.515,757.217 390.619,757.268 394.724,757.265 398.829,757.232 402.934,757.19 407.039,757.155 411.144,757.137 415.249,757.142 419.354,757.152 423.459,757.167 427.563,757.184 431.668,757.203 435.773,757.221 439.878,757.236 443.983,757.249 448.088,757.258 452.193,757.263 456.298,757.265 460.403,757.264 464.507,757.261 468.612,757.257 472.717,757.252 476.822,757.247 480.927,757.242 485.032,757.239 489.137,757.237 493.242,757.236 497.347,757.236 501.451,757.236 505.556,757.237 509.661,757.237 513.766,757.238 517.871,757.239 521.976,757.239 526.081,757.24 530.186,757.24 534.291,757.241 538.395,757.241 542.5,757.241 546.605,757.241 550.71,757.242 554.815,757.242 558.92,757.242 563.025,757.242 567.13,757.242 571.235,757.242 575.339,757.242 579.444,757.242 583.549,757.242 587.654,757.242 591.759,757.242 595.864,757.242 599.969,757.242 604.074,757.242 608.178,757.242 612.283,757.242 616.388,757.242 620.493,757.242 624.598,757.242 628.703,757.242 632.808,757.242 636.913,757.242 641.018,757.242 645.122,757.242 649.227,757.242 653.332,757.242 657.437,757.242 661.542,757.242 665.647,757.242 669.752,757.242 673.857,757.242 677.962,757.242 682.066,757.242 686.171,757.242 690.276,757.242 694.381,757.242 698.486,757.242 702.591,757.242 706.696,757.242 710.801,757.242 714.906,757.242 719.01,757.242 723.115,757.242 727.22,757.242 731.325,757.242 735.43,757.242 739.535,757.242 743.64,757.242 747.745,757.242 751.85,757.242 755.954,757.242 760.059,757.242 764.164,757.242 768.269,757.242 772.374,757.242 776.479,757.242 780.584,757.242 784.689,757.242 788.794,757.242 792.898,757.242 797.003,757.242 801.108,757.242 805.213,757.242 809.318,757.242 813.423,757.242 817.528,757.242 821.633,757.242 825.738,757.242 829.842,757.242 833.947,757.242 838.052,757.242 842.157,757.242 846.262,757.242 850.367,757.242 854.472,757.242 858.577,757.242 862.682,757.242 866.786,757.242 870.891,757.242 874.996,757.242 879.101,757.242 883.206,757.242 887.311,757.242 891.416,757.242 895.521,757.242 899.626,757.242 903.73,757.242 907.835,757.242 911.94,757.242 916.045,757.242 920.15,757.242 924.255,757.242 928.36,757.242 932.465,757.242 936.57,757.242 940.674,757.242 944.779,757.242 948.884,757.242 952.989,757.242 957.094,757.242 961.199,757.242 965.304,757.242 969.409,757.242 973.514,757.242 977.618,757.242 981.723,757.242 985.828,757.242 989.933,757.242 994.038,757.242 998.143,757.242 1002.25,757.242 1006.35,757.242 1010.46,757.242 1014.56,757.242 1018.67,757.242 1022.77,757.242 1026.88,757.242 1030.98,757.242 1035.09,757.242 1039.19,757.242 1043.3,757.242 1047.4,757.242 1051.51,757.242 1055.61,757.242 1059.72,757.242 1063.82,757.242 1067.93,757.242 1072.03,757.242 1076.14,757.242 1080.24,757.242 1084.35,757.242 1088.45,757.242 1092.56,757.242 1096.66,757.242 1100.77,757.242 1104.87,757.242 1108.97,757.242 1113.08,757.242 1117.18,757.242 1121.29,757.242 1125.39,757.242 1129.5,757.242 1133.6,757.242 1137.71,757.242 1141.81,757.242 1145.92,757.242 1150.02,757.242 1154.13,757.242 1158.23,757.242 1162.34,757.242 1166.44,757.242 1170.55,757.242 1174.65,757.242 1178.76,757.242 1182.86,757.242 1186.97,757.242 1191.07,757.242 1195.18,757.242 1199.28,757.242 1203.39,757.242 1207.49,757.242 1211.6,757.242 1215.7,757.242 1219.81,757.242 1223.91,757.242 1228.02,757.242 1232.12,757.242 1236.23,757.242 1240.33,757.242 1244.44,757.242 1248.54,757.242 1252.65,757.242 1256.75,757.242 1260.86,757.242 1264.96,757.242 1269.07,757.242 1273.17,757.242 1277.28,757.242 1281.38,757.242 1285.49,757.242 1289.59,757.242 1293.69,757.242 1297.8,757.242 1301.9,757.242 1306.01,757.242 1310.11,757.242 1314.22,757.242 1318.32,757.242 1322.43,757.242 1326.53,757.242 1330.64,757.242 1334.74,757.242 1338.85,757.242 1342.95,757.242 1347.06,757.242 1351.16,757.242 1355.27,757.242 1359.37,757.242 1363.48,757.242 1367.58,757.242 1371.69,757.242 1375.79,757.242 1379.9,757.242 1384,757.242 1388.11,757.242 1392.21,757.242 1396.32,757.242 1400.42,757.242 1404.53,757.242 1408.63,757.242 1412.74,757.242 1416.84,757.242 1420.95,757.242 1425.05,757.242 1429.16,757.242 1433.26,757.242 1437.37,757.242 1441.47,757.242 1445.58,757.242 1449.68,757.242 1453.79,757.242 1457.89,757.242 1462,757.242 1466.1,757.242 1470.2,757.242 1474.31,757.242 1478.41,757.242 1482.52,757.242 1486.62,757.242 1490.73,757.242 1494.83,757.242 1498.94,757.242 1503.04,757.242 1507.15,757.242 1511.25,757.242 1515.36,757.242 1519.46,757.242 1523.57,757.242 1527.67,757.242 1531.78,757.242 1535.88,757.242 1539.99,757.242 1544.09,757.242 1548.2,757.242 1552.3,757.242 1556.41,757.242 1560.51,757.242 1564.62,757.242 1568.72,757.242 1572.83,757.242 1576.93,757.242 1581.04,757.242 1585.14,757.242 1589.25,757.242 1593.35,757.242 1597.46,757.242 1601.56,757.242 1605.67,757.242 1609.77,757.242 1613.88,757.242 1617.98,757.242 1622.09,757.242 1626.19,757.242 1630.3,757.242 1634.4,757.242 1638.51,757.242 1642.61,757.242 1646.72,757.242 1650.82,757.242 1654.92,757.242 1659.03,757.242 1663.13,757.242 1667.24,757.242 1671.34,757.242 1675.45,757.242 1679.55,757.242 1683.66,757.242 1687.76,757.242 1691.87,757.242 1695.97,757.242 1700.08,757.242 1704.18,757.242 1708.29,757.242 1712.39,757.242 1716.5,757.242 1720.6,757.242 1724.71,757.242 1728.81,757.242 1732.92,757.242 1737.02,757.242 1741.13,757.242 1745.23,757.242 1749.34,757.242 1753.44,757.242 1757.55,757.242 1761.65,757.242 1765.76,757.242 1769.86,757.242 1773.97,757.242 1778.07,757.242 1782.18,757.242 1786.28,757.242 1790.39,757.242 1794.49,757.242 1798.6,757.242 1802.7,757.242 1806.81,757.242 1810.91,757.242 1815.02,757.242 1819.12,757.242 1823.23,757.242 1827.33,757.242 1831.44,757.242 1835.54,757.242 1839.64,757.242 1843.75,757.242 1847.85,757.242 1851.96,757.242 1856.06,757.242 1860.17,757.242 1864.27,757.242 1868.38,757.242 1872.48,757.242 1876.59,757.242 1880.69,757.242 1884.8,757.242 1888.9,757.242 1893.01,757.242 1897.11,757.242 1901.22,757.242 1905.32,757.242 1909.43,757.242 1913.53,757.242 1917.64,757.242 1921.74,757.242 1925.85,757.242 1929.95,757.242 1934.06,757.242 1938.16,757.242 1942.27,757.242 1946.37,757.242 1950.48,757.242 1954.58,757.242 1958.69,757.242 1962.79,757.242 1966.9,757.242 1971,757.242 1975.11,757.242 1979.21,757.242 1983.32,757.242 1987.42,757.242 1991.53,757.242 1995.63,757.242 1999.74,757.242 2003.84,757.242 2007.95,757.242 2012.05,757.242 2016.16,757.242 2020.26,757.242 2024.36,757.242 2028.47,757.242 2032.57,757.242 2036.68,757.242 2040.78,757.242 2044.89,757.242 2048.99,757.242 2053.1,757.242 2057.2,757.242 2061.31,757.242 2065.41,757.242 2069.52,757.242 2073.62,757.242 2077.73,757.242 2081.83,757.242 2085.94,757.242 2090.04,757.242 2094.15,757.242 2098.25,757.242 2102.36,757.242 2106.46,757.242 2110.57,757.242 2114.67,757.242 2118.78,757.242 2122.88,757.242 2126.99,757.242 2131.09,757.242 2135.2,757.242 2139.3,757.242 2143.41,757.242 2147.51,757.242 2151.62,757.242 2155.72,757.242 2159.83,757.242 2163.93,757.242 2168.04,757.242 2172.14,757.242 2176.25,757.242 2180.35,757.242 2184.46,757.242 2188.56,757.242 2192.67,757.242 2196.77,757.242 2200.88,757.242 2204.98,757.242 2209.08,757.242 2213.19,757.242 2217.29,757.242 2221.4,757.242 2225.5,757.242 2229.61,757.242 2233.71,757.242 2237.82,757.242 2241.92,757.242 2246.03,757.242 2250.13,757.242 2254.24,757.242 2258.34,757.242 2262.45,757.242 2266.55,757.242 2270.66,757.242 2274.76,757.242 2278.87,757.242 2282.97,757.242 2287.08,757.242 2291.18,757.242 "/>
<polyline clip-path="url(#clip891)" style="stroke:#e26f46; stroke-linecap:round; stroke-linejoin:round; stroke-width:8; stroke-opacity:1; fill:none" points="238.739,510.002 242.843,818.867 246.948,1119.21 251.053,1259.39 255.158,1331.5 259.263,1333.34 263.368,1335.71 267.473,1337.97 271.578,1339.7 275.683,1340.65 279.787,1340.71 283.892,1339.87 287.997,1338.21 292.102,1335.9 296.207,1333.17 300.312,1330.25 304.417,1327.35 308.522,1324.64 312.627,1322.25 316.731,1320.26 320.836,1318.73 324.941,1317.65 329.046,1317.03 333.151,1316.79 337.256,1316.88 341.361,1317.18 345.466,1317.27 349.571,1317.41 353.675,1317.57 357.78,1317.74 361.885,1317.91 365.99,1318.06 370.095,1318.19 374.2,1318.29 378.305,1318.36 382.41,1318.4 386.515,1318.42 390.619,1318.41 394.724,1318.38 398.829,1318.35 402.934,1318.31 407.039,1318.27 411.144,1318.23 415.249,1318.2 419.354,1318.2 423.459,1318.2 427.563,1318.21 431.668,1318.21 435.773,1318.21 439.878,1318.21 443.983,1318.21 448.088,1318.21 452.193,1318.21 456.298,1318.21 460.403,1318.21 464.507,1318.21 468.612,1318.21 472.717,1318.21 476.822,1318.21 480.927,1318.21 485.032,1318.21 489.137,1318.21 493.242,1318.21 497.347,1318.21 501.451,1318.21 505.556,1318.21 509.661,1318.21 513.766,1318.21 517.871,1318.21 521.976,1318.21 526.081,1318.21 530.186,1318.21 534.291,1318.21 538.395,1318.21 542.5,1318.21 546.605,1318.21 550.71,1318.21 554.815,1318.21 558.92,1318.21 563.025,1318.21 567.13,1318.21 571.235,1318.21 575.339,1318.21 579.444,1318.21 583.549,1318.21 587.654,1318.21 591.759,1318.21 595.864,1318.21 599.969,1318.21 604.074,1318.21 608.178,1318.21 612.283,1318.21 616.388,1318.21 620.493,1318.21 624.598,1318.21 628.703,1318.21 632.808,1318.21 636.913,1318.21 641.018,1318.21 645.122,1318.21 649.227,1318.21 653.332,1318.21 657.437,1318.21 661.542,1318.21 665.647,1318.21 669.752,1318.21 673.857,1318.21 677.962,1318.21 682.066,1318.21 686.171,1318.21 690.276,1318.21 694.381,1318.21 698.486,1318.21 702.591,1318.21 706.696,1318.21 710.801,1318.21 714.906,1318.21 719.01,1318.21 723.115,1318.21 727.22,1318.21 731.325,1318.21 735.43,1318.21 739.535,1318.21 743.64,1318.21 747.745,1318.21 751.85,1318.21 755.954,1318.21 760.059,1318.21 764.164,1318.21 768.269,1318.21 772.374,1318.21 776.479,1318.21 780.584,1318.21 784.689,1318.21 788.794,1318.21 792.898,1318.21 797.003,1318.21 801.108,1318.21 805.213,1318.21 809.318,1318.21 813.423,1318.21 817.528,1318.21 821.633,1318.21 825.738,1318.21 829.842,1318.21 833.947,1318.21 838.052,1318.21 842.157,1318.21 846.262,1318.21 850.367,1318.21 854.472,1318.21 858.577,1318.21 862.682,1318.21 866.786,1318.21 870.891,1318.21 874.996,1318.21 879.101,1318.21 883.206,1318.21 887.311,1318.21 891.416,1318.21 895.521,1318.21 899.626,1318.21 903.73,1318.21 907.835,1318.21 911.94,1318.21 916.045,1318.21 920.15,1318.21 924.255,1318.21 928.36,1318.21 932.465,1318.21 936.57,1318.21 940.674,1318.21 944.779,1318.21 948.884,1318.21 952.989,1318.21 957.094,1318.21 961.199,1318.21 965.304,1318.21 969.409,1318.21 973.514,1318.21 977.618,1318.21 981.723,1318.21 985.828,1318.21 989.933,1318.21 994.038,1318.21 998.143,1318.21 1002.25,1318.21 1006.35,1318.21 1010.46,1318.21 1014.56,1318.21 1018.67,1318.21 1022.77,1318.21 1026.88,1318.21 1030.98,1318.21 1035.09,1318.21 1039.19,1318.21 1043.3,1318.21 1047.4,1318.21 1051.51,1318.21 1055.61,1318.21 1059.72,1318.21 1063.82,1318.21 1067.93,1318.21 1072.03,1318.21 1076.14,1318.21 1080.24,1318.21 1084.35,1318.21 1088.45,1318.21 1092.56,1318.21 1096.66,1318.21 1100.77,1318.21 1104.87,1318.21 1108.97,1318.21 1113.08,1318.21 1117.18,1318.21 1121.29,1318.21 1125.39,1318.21 1129.5,1318.21 1133.6,1318.21 1137.71,1318.21 1141.81,1318.21 1145.92,1318.21 1150.02,1318.21 1154.13,1318.21 1158.23,1318.21 1162.34,1318.21 1166.44,1318.21 1170.55,1318.21 1174.65,1318.21 1178.76,1318.21 1182.86,1318.21 1186.97,1318.21 1191.07,1318.21 1195.18,1318.21 1199.28,1318.21 1203.39,1318.21 1207.49,1318.21 1211.6,1318.21 1215.7,1318.21 1219.81,1318.21 1223.91,1318.21 1228.02,1318.21 1232.12,1318.21 1236.23,1318.21 1240.33,1318.21 1244.44,1318.21 1248.54,1318.21 1252.65,1318.21 1256.75,1318.21 1260.86,1318.21 1264.96,1318.21 1269.07,1318.21 1273.17,1318.21 1277.28,1318.21 1281.38,1318.21 1285.49,1318.21 1289.59,1318.21 1293.69,1318.21 1297.8,1318.21 1301.9,1318.21 1306.01,1318.21 1310.11,1318.21 1314.22,1318.21 1318.32,1318.21 1322.43,1318.21 1326.53,1318.21 1330.64,1318.21 1334.74,1318.21 1338.85,1318.21 1342.95,1318.21 1347.06,1318.21 1351.16,1318.21 1355.27,1318.21 1359.37,1318.21 1363.48,1318.21 1367.58,1318.21 1371.69,1318.21 1375.79,1318.21 1379.9,1318.21 1384,1318.21 1388.11,1318.21 1392.21,1318.21 1396.32,1318.21 1400.42,1318.21 1404.53,1318.21 1408.63,1318.21 1412.74,1318.21 1416.84,1318.21 1420.95,1318.21 1425.05,1318.21 1429.16,1318.21 1433.26,1318.21 1437.37,1318.21 1441.47,1318.21 1445.58,1318.21 1449.68,1318.21 1453.79,1318.21 1457.89,1318.21 1462,1318.21 1466.1,1318.21 1470.2,1318.21 1474.31,1318.21 1478.41,1318.21 1482.52,1318.21 1486.62,1318.21 1490.73,1318.21 1494.83,1318.21 1498.94,1318.21 1503.04,1318.21 1507.15,1318.21 1511.25,1318.21 1515.36,1318.21 1519.46,1318.21 1523.57,1318.21 1527.67,1318.21 1531.78,1318.21 1535.88,1318.21 1539.99,1318.21 1544.09,1318.21 1548.2,1318.21 1552.3,1318.21 1556.41,1318.21 1560.51,1318.21 1564.62,1318.21 1568.72,1318.21 1572.83,1318.21 1576.93,1318.21 1581.04,1318.21 1585.14,1318.21 1589.25,1318.21 1593.35,1318.21 1597.46,1318.21 1601.56,1318.21 1605.67,1318.21 1609.77,1318.21 1613.88,1318.21 1617.98,1318.21 1622.09,1318.21 1626.19,1318.21 1630.3,1318.21 1634.4,1318.21 1638.51,1318.21 1642.61,1318.21 1646.72,1318.21 1650.82,1318.21 1654.92,1318.21 1659.03,1318.21 1663.13,1318.21 1667.24,1318.21 1671.34,1318.21 1675.45,1318.21 1679.55,1318.21 1683.66,1318.21 1687.76,1318.21 1691.87,1318.21 1695.97,1318.21 1700.08,1318.21 1704.18,1318.21 1708.29,1318.21 1712.39,1318.21 1716.5,1318.21 1720.6,1318.21 1724.71,1318.21 1728.81,1318.21 1732.92,1318.21 1737.02,1318.21 1741.13,1318.21 1745.23,1318.21 1749.34,1318.21 1753.44,1318.21 1757.55,1318.21 1761.65,1318.21 1765.76,1318.21 1769.86,1318.21 1773.97,1318.21 1778.07,1318.21 1782.18,1318.21 1786.28,1318.21 1790.39,1318.21 1794.49,1318.21 1798.6,1318.21 1802.7,1318.21 1806.81,1318.21 1810.91,1318.21 1815.02,1318.21 1819.12,1318.21 1823.23,1318.21 1827.33,1318.21 1831.44,1318.21 1835.54,1318.21 1839.64,1318.21 1843.75,1318.21 1847.85,1318.21 1851.96,1318.21 1856.06,1318.21 1860.17,1318.21 1864.27,1318.21 1868.38,1318.21 1872.48,1318.21 1876.59,1318.21 1880.69,1318.21 1884.8,1318.21 1888.9,1318.21 1893.01,1318.21 1897.11,1318.21 1901.22,1318.21 1905.32,1318.21 1909.43,1318.21 1913.53,1318.21 1917.64,1318.21 1921.74,1318.21 1925.85,1318.21 1929.95,1318.21 1934.06,1318.21 1938.16,1318.21 1942.27,1318.21 1946.37,1318.21 1950.48,1318.21 1954.58,1318.21 1958.69,1318.21 1962.79,1318.21 1966.9,1318.21 1971,1318.21 1975.11,1318.21 1979.21,1318.21 1983.32,1318.21 1987.42,1318.21 1991.53,1318.21 1995.63,1318.21 1999.74,1318.21 2003.84,1318.21 2007.95,1318.21 2012.05,1318.21 2016.16,1318.21 2020.26,1318.21 2024.36,1318.21 2028.47,1318.21 2032.57,1318.21 2036.68,1318.21 2040.78,1318.21 2044.89,1318.21 2048.99,1318.21 2053.1,1318.21 2057.2,1318.21 2061.31,1318.21 2065.41,1318.21 2069.52,1318.21 2073.62,1318.21 2077.73,1318.21 2081.83,1318.21 2085.94,1318.21 2090.04,1318.21 2094.15,1318.21 2098.25,1318.21 2102.36,1318.21 2106.46,1318.21 2110.57,1318.21 2114.67,1318.21 2118.78,1318.21 2122.88,1318.21 2126.99,1318.21 2131.09,1318.21 2135.2,1318.21 2139.3,1318.21 2143.41,1318.21 2147.51,1318.21 2151.62,1318.21 2155.72,1318.21 2159.83,1318.21 2163.93,1318.21 2168.04,1318.21 2172.14,1318.21 2176.25,1318.21 2180.35,1318.21 2184.46,1318.21 2188.56,1318.21 2192.67,1318.21 2196.77,1318.21 2200.88,1318.21 2204.98,1318.21 2209.08,1318.21 2213.19,1318.21 2217.29,1318.21 2221.4,1318.21 2225.5,1318.21 2229.61,1318.21 2233.71,1318.21 2237.82,1318.21 2241.92,1318.21 2246.03,1318.21 2250.13,1318.21 2254.24,1318.21 2258.34,1318.21 2262.45,1318.21 2266.55,1318.21 2270.66,1318.21 2274.76,1318.21 2278.87,1318.21 2282.97,1318.21 2287.08,1318.21 2291.18,1318.21 "/>
<polyline clip-path="url(#clip891)" style="stroke:#3da44d; stroke-linecap:round; stroke-linejoin:round; stroke-width:8; stroke-opacity:1; fill:none" points="238.739,941.793 242.843,1009.42 246.948,1130.28 251.053,1188.87 255.158,1208.3 259.263,1202.89 263.368,1194.84 267.473,1185.21 271.578,1174.79 275.683,1164.21 279.787,1153.9 283.892,1144.1 287.997,1134.85 292.102,1126.05 296.207,1117.58 300.312,1109.33 304.417,1101.3 308.522,1093.53 312.627,1086.12 316.731,1079.17 320.836,1072.72 324.941,1066.81 329.046,1061.4 333.151,1056.5 337.256,1052.08 341.361,1048.14 345.466,1048.13 349.571,1048.11 353.675,1048.1 357.78,1048.1 361.885,1048.11 365.99,1048.13 370.095,1048.17 374.2,1048.21 378.305,1048.27 382.41,1048.32 386.515,1048.38 390.619,1048.42 394.724,1048.46 398.829,1048.48 402.934,1048.48 407.039,1048.47 411.144,1048.44 415.249,1048.39 419.354,1048.38 423.459,1048.36 427.563,1048.34 431.668,1048.31 435.773,1048.28 439.878,1048.25 443.983,1048.21 448.088,1048.18 452.193,1048.14 456.298,1048.1 460.403,1048.07 464.507,1048.03 468.612,1048 472.717,1047.97 476.822,1047.94 480.927,1047.91 485.032,1047.89 489.137,1047.87 493.242,1047.85 497.347,1047.84 501.451,1047.84 505.556,1047.84 509.661,1047.84 513.766,1047.84 517.871,1047.84 521.976,1047.85 526.081,1047.85 530.186,1047.85 534.291,1047.85 538.395,1047.85 542.5,1047.85 546.605,1047.86 550.71,1047.86 554.815,1047.86 558.92,1047.86 563.025,1047.86 567.13,1047.86 571.235,1047.86 575.339,1047.86 579.444,1047.86 583.549,1047.86 587.654,1047.86 591.759,1047.86 595.864,1047.86 599.969,1047.86 604.074,1047.86 608.178,1047.86 612.283,1047.86 616.388,1047.86 620.493,1047.86 624.598,1047.86 628.703,1047.86 632.808,1047.86 636.913,1047.86 641.018,1047.86 645.122,1047.86 649.227,1047.86 653.332,1047.86 657.437,1047.86 661.542,1047.86 665.647,1047.86 669.752,1047.86 673.857,1047.86 677.962,1047.86 682.066,1047.86 686.171,1047.86 690.276,1047.86 694.381,1047.86 698.486,1047.86 702.591,1047.86 706.696,1047.86 710.801,1047.86 714.906,1047.86 719.01,1047.86 723.115,1047.86 727.22,1047.86 731.325,1047.86 735.43,1047.86 739.535,1047.86 743.64,1047.86 747.745,1047.86 751.85,1047.86 755.954,1047.86 760.059,1047.86 764.164,1047.86 768.269,1047.86 772.374,1047.86 776.479,1047.86 780.584,1047.86 784.689,1047.86 788.794,1047.86 792.898,1047.86 797.003,1047.86 801.108,1047.86 805.213,1047.86 809.318,1047.86 813.423,1047.86 817.528,1047.86 821.633,1047.86 825.738,1047.86 829.842,1047.86 833.947,1047.86 838.052,1047.86 842.157,1047.86 846.262,1047.86 850.367,1047.86 854.472,1047.86 858.577,1047.86 862.682,1047.86 866.786,1047.86 870.891,1047.86 874.996,1047.86 879.101,1047.86 883.206,1047.86 887.311,1047.86 891.416,1047.86 895.521,1047.86 899.626,1047.86 903.73,1047.86 907.835,1047.86 911.94,1047.86 916.045,1047.86 920.15,1047.86 924.255,1047.86 928.36,1047.86 932.465,1047.86 936.57,1047.86 940.674,1047.86 944.779,1047.86 948.884,1047.86 952.989,1047.86 957.094,1047.86 961.199,1047.86 965.304,1047.86 969.409,1047.86 973.514,1047.86 977.618,1047.86 981.723,1047.86 985.828,1047.86 989.933,1047.86 994.038,1047.86 998.143,1047.86 1002.25,1047.86 1006.35,1047.86 1010.46,1047.86 1014.56,1047.86 1018.67,1047.86 1022.77,1047.86 1026.88,1047.86 1030.98,1047.86 1035.09,1047.86 1039.19,1047.86 1043.3,1047.86 1047.4,1047.86 1051.51,1047.86 1055.61,1047.86 1059.72,1047.86 1063.82,1047.86 1067.93,1047.86 1072.03,1047.86 1076.14,1047.86 1080.24,1047.86 1084.35,1047.86 1088.45,1047.86 1092.56,1047.86 1096.66,1047.86 1100.77,1047.86 1104.87,1047.86 1108.97,1047.86 1113.08,1047.86 1117.18,1047.86 1121.29,1047.86 1125.39,1047.86 1129.5,1047.86 1133.6,1047.86 1137.71,1047.86 1141.81,1047.86 1145.92,1047.86 1150.02,1047.86 1154.13,1047.86 1158.23,1047.86 1162.34,1047.86 1166.44,1047.86 1170.55,1047.86 1174.65,1047.86 1178.76,1047.86 1182.86,1047.86 1186.97,1047.86 1191.07,1047.86 1195.18,1047.86 1199.28,1047.86 1203.39,1047.86 1207.49,1047.86 1211.6,1047.86 1215.7,1047.86 1219.81,1047.86 1223.91,1047.86 1228.02,1047.86 1232.12,1047.86 1236.23,1047.86 1240.33,1047.86 1244.44,1047.86 1248.54,1047.86 1252.65,1047.86 1256.75,1047.86 1260.86,1047.86 1264.96,1047.86 1269.07,1047.86 1273.17,1047.86 1277.28,1047.86 1281.38,1047.86 1285.49,1047.86 1289.59,1047.86 1293.69,1047.86 1297.8,1047.86 1301.9,1047.86 1306.01,1047.86 1310.11,1047.86 1314.22,1047.86 1318.32,1047.86 1322.43,1047.86 1326.53,1047.86 1330.64,1047.86 1334.74,1047.86 1338.85,1047.86 1342.95,1047.86 1347.06,1047.86 1351.16,1047.86 1355.27,1047.86 1359.37,1047.86 1363.48,1047.86 1367.58,1047.86 1371.69,1047.86 1375.79,1047.86 1379.9,1047.86 1384,1047.86 1388.11,1047.86 1392.21,1047.86 1396.32,1047.86 1400.42,1047.86 1404.53,1047.86 1408.63,1047.86 1412.74,1047.86 1416.84,1047.86 1420.95,1047.86 1425.05,1047.86 1429.16,1047.86 1433.26,1047.86 1437.37,1047.86 1441.47,1047.86 1445.58,1047.86 1449.68,1047.86 1453.79,1047.86 1457.89,1047.86 1462,1047.86 1466.1,1047.86 1470.2,1047.86 1474.31,1047.86 1478.41,1047.86 1482.52,1047.86 1486.62,1047.86 1490.73,1047.86 1494.83,1047.86 1498.94,1047.86 1503.04,1047.86 1507.15,1047.86 1511.25,1047.86 1515.36,1047.86 1519.46,1047.86 1523.57,1047.86 1527.67,1047.86 1531.78,1047.86 1535.88,1047.86 1539.99,1047.86 1544.09,1047.86 1548.2,1047.86 1552.3,1047.86 1556.41,1047.86 1560.51,1047.86 1564.62,1047.86 1568.72,1047.86 1572.83,1047.86 1576.93,1047.86 1581.04,1047.86 1585.14,1047.86 1589.25,1047.86 1593.35,1047.86 1597.46,1047.86 1601.56,1047.86 1605.67,1047.86 1609.77,1047.86 1613.88,1047.86 1617.98,1047.86 1622.09,1047.86 1626.19,1047.86 1630.3,1047.86 1634.4,1047.86 1638.51,1047.86 1642.61,1047.86 1646.72,1047.86 1650.82,1047.86 1654.92,1047.86 1659.03,1047.86 1663.13,1047.86 1667.24,1047.86 1671.34,1047.86 1675.45,1047.86 1679.55,1047.86 1683.66,1047.86 1687.76,1047.86 1691.87,1047.86 1695.97,1047.86 1700.08,1047.86 1704.18,1047.86 1708.29,1047.86 1712.39,1047.86 1716.5,1047.86 1720.6,1047.86 1724.71,1047.86 1728.81,1047.86 1732.92,1047.86 1737.02,1047.86 1741.13,1047.86 1745.23,1047.86 1749.34,1047.86 1753.44,1047.86 1757.55,1047.86 1761.65,1047.86 1765.76,1047.86 1769.86,1047.86 1773.97,1047.86 1778.07,1047.86 1782.18,1047.86 1786.28,1047.86 1790.39,1047.86 1794.49,1047.86 1798.6,1047.86 1802.7,1047.86 1806.81,1047.86 1810.91,1047.86 1815.02,1047.86 1819.12,1047.86 1823.23,1047.86 1827.33,1047.86 1831.44,1047.86 1835.54,1047.86 1839.64,1047.86 1843.75,1047.86 1847.85,1047.86 1851.96,1047.86 1856.06,1047.86 1860.17,1047.86 1864.27,1047.86 1868.38,1047.86 1872.48,1047.86 1876.59,1047.86 1880.69,1047.86 1884.8,1047.86 1888.9,1047.86 1893.01,1047.86 1897.11,1047.86 1901.22,1047.86 1905.32,1047.86 1909.43,1047.86 1913.53,1047.86 1917.64,1047.86 1921.74,1047.86 1925.85,1047.86 1929.95,1047.86 1934.06,1047.86 1938.16,1047.86 1942.27,1047.86 1946.37,1047.86 1950.48,1047.86 1954.58,1047.86 1958.69,1047.86 1962.79,1047.86 1966.9,1047.86 1971,1047.86 1975.11,1047.86 1979.21,1047.86 1983.32,1047.86 1987.42,1047.86 1991.53,1047.86 1995.63,1047.86 1999.74,1047.86 2003.84,1047.86 2007.95,1047.86 2012.05,1047.86 2016.16,1047.86 2020.26,1047.86 2024.36,1047.86 2028.47,1047.86 2032.57,1047.86 2036.68,1047.86 2040.78,1047.86 2044.89,1047.86 2048.99,1047.86 2053.1,1047.86 2057.2,1047.86 2061.31,1047.86 2065.41,1047.86 2069.52,1047.86 2073.62,1047.86 2077.73,1047.86 2081.83,1047.86 2085.94,1047.86 2090.04,1047.86 2094.15,1047.86 2098.25,1047.86 2102.36,1047.86 2106.46,1047.86 2110.57,1047.86 2114.67,1047.86 2118.78,1047.86 2122.88,1047.86 2126.99,1047.86 2131.09,1047.86 2135.2,1047.86 2139.3,1047.86 2143.41,1047.86 2147.51,1047.86 2151.62,1047.86 2155.72,1047.86 2159.83,1047.86 2163.93,1047.86 2168.04,1047.86 2172.14,1047.86 2176.25,1047.86 2180.35,1047.86 2184.46,1047.86 2188.56,1047.86 2192.67,1047.86 2196.77,1047.86 2200.88,1047.86 2204.98,1047.86 2209.08,1047.86 2213.19,1047.86 2217.29,1047.86 2221.4,1047.86 2225.5,1047.86 2229.61,1047.86 2233.71,1047.86 2237.82,1047.86 2241.92,1047.86 2246.03,1047.86 2250.13,1047.86 2254.24,1047.86 2258.34,1047.86 2262.45,1047.86 2266.55,1047.86 2270.66,1047.86 2274.76,1047.86 2278.87,1047.86 2282.97,1047.86 2287.08,1047.86 2291.18,1047.86 "/>
<polyline clip-path="url(#clip891)" style="stroke:#c271d2; stroke-linecap:round; stroke-linejoin:round; stroke-width:8; stroke-opacity:1; fill:none" points="238.739,958.695 242.843,1025.88 246.948,1147.94 251.053,1210.91 255.158,1235.84 259.263,1231.65 263.368,1225.6 267.473,1218.65 271.578,1211.52 275.683,1204.68 279.787,1198.38 283.892,1192.65 287.997,1187.34 292.102,1182.21 296.207,1177 300.312,1171.54 304.417,1165.81 308.522,1159.85 312.627,1153.79 316.731,1147.78 320.836,1141.9 324.941,1136.25 329.046,1130.83 333.151,1125.69 337.256,1120.83 341.361,1116.3 345.466,1116.17 349.571,1115.98 353.675,1115.73 357.78,1115.44 361.885,1115.12 365.99,1114.78 370.095,1114.42 374.2,1114.06 378.305,1113.7 382.41,1113.35 386.515,1113.01 390.619,1112.68 394.724,1112.38 398.829,1112.1 402.934,1111.85 407.039,1111.63 411.144,1111.44 415.249,1111.28 419.354,1111.28 423.459,1111.29 427.563,1111.29 431.668,1111.3 435.773,1111.31 439.878,1111.32 443.983,1111.33 448.088,1111.34 452.193,1111.35 456.298,1111.36 460.403,1111.37 464.507,1111.38 468.612,1111.38 472.717,1111.39 476.822,1111.4 480.927,1111.4 485.032,1111.4 489.137,1111.4 493.242,1111.4 497.347,1111.4 501.451,1111.4 505.556,1111.4 509.661,1111.4 513.766,1111.39 517.871,1111.39 521.976,1111.39 526.081,1111.39 530.186,1111.39 534.291,1111.38 538.395,1111.38 542.5,1111.38 546.605,1111.38 550.71,1111.38 554.815,1111.37 558.92,1111.37 563.025,1111.37 567.13,1111.37 571.235,1111.37 575.339,1111.37 579.444,1111.37 583.549,1111.37 587.654,1111.37 591.759,1111.37 595.864,1111.37 599.969,1111.37 604.074,1111.37 608.178,1111.37 612.283,1111.37 616.388,1111.37 620.493,1111.37 624.598,1111.37 628.703,1111.37 632.808,1111.37 636.913,1111.37 641.018,1111.37 645.122,1111.37 649.227,1111.37 653.332,1111.37 657.437,1111.37 661.542,1111.37 665.647,1111.37 669.752,1111.37 673.857,1111.37 677.962,1111.37 682.066,1111.37 686.171,1111.37 690.276,1111.37 694.381,1111.37 698.486,1111.37 702.591,1111.37 706.696,1111.37 710.801,1111.37 714.906,1111.37 719.01,1111.37 723.115,1111.37 727.22,1111.37 731.325,1111.37 735.43,1111.37 739.535,1111.37 743.64,1111.37 747.745,1111.37 751.85,1111.37 755.954,1111.37 760.059,1111.37 764.164,1111.37 768.269,1111.37 772.374,1111.37 776.479,1111.37 780.584,1111.37 784.689,1111.37 788.794,1111.37 792.898,1111.37 797.003,1111.37 801.108,1111.37 805.213,1111.37 809.318,1111.37 813.423,1111.37 817.528,1111.37 821.633,1111.37 825.738,1111.37 829.842,1111.37 833.947,1111.37 838.052,1111.37 842.157,1111.37 846.262,1111.37 850.367,1111.37 854.472,1111.37 858.577,1111.37 862.682,1111.37 866.786,1111.37 870.891,1111.37 874.996,1111.37 879.101,1111.37 883.206,1111.37 887.311,1111.37 891.416,1111.37 895.521,1111.37 899.626,1111.37 903.73,1111.37 907.835,1111.37 911.94,1111.37 916.045,1111.37 920.15,1111.37 924.255,1111.37 928.36,1111.37 932.465,1111.37 936.57,1111.37 940.674,1111.37 944.779,1111.37 948.884,1111.37 952.989,1111.37 957.094,1111.37 961.199,1111.37 965.304,1111.37 969.409,1111.37 973.514,1111.37 977.618,1111.37 981.723,1111.37 985.828,1111.37 989.933,1111.37 994.038,1111.37 998.143,1111.37 1002.25,1111.37 1006.35,1111.37 1010.46,1111.37 1014.56,1111.37 1018.67,1111.37 1022.77,1111.37 1026.88,1111.37 1030.98,1111.37 1035.09,1111.37 1039.19,1111.37 1043.3,1111.37 1047.4,1111.37 1051.51,1111.37 1055.61,1111.37 1059.72,1111.37 1063.82,1111.37 1067.93,1111.37 1072.03,1111.37 1076.14,1111.37 1080.24,1111.37 1084.35,1111.37 1088.45,1111.37 1092.56,1111.37 1096.66,1111.37 1100.77,1111.37 1104.87,1111.37 1108.97,1111.37 1113.08,1111.37 1117.18,1111.37 1121.29,1111.37 1125.39,1111.37 1129.5,1111.37 1133.6,1111.37 1137.71,1111.37 1141.81,1111.37 1145.92,1111.37 1150.02,1111.37 1154.13,1111.37 1158.23,1111.37 1162.34,1111.37 1166.44,1111.37 1170.55,1111.37 1174.65,1111.37 1178.76,1111.37 1182.86,1111.37 1186.97,1111.37 1191.07,1111.37 1195.18,1111.37 1199.28,1111.37 1203.39,1111.37 1207.49,1111.37 1211.6,1111.37 1215.7,1111.37 1219.81,1111.37 1223.91,1111.37 1228.02,1111.37 1232.12,1111.37 1236.23,1111.37 1240.33,1111.37 1244.44,1111.37 1248.54,1111.37 1252.65,1111.37 1256.75,1111.37 1260.86,1111.37 1264.96,1111.37 1269.07,1111.37 1273.17,1111.37 1277.28,1111.37 1281.38,1111.37 1285.49,1111.37 1289.59,1111.37 1293.69,1111.37 1297.8,1111.37 1301.9,1111.37 1306.01,1111.37 1310.11,1111.37 1314.22,1111.37 1318.32,1111.37 1322.43,1111.37 1326.53,1111.37 1330.64,1111.37 1334.74,1111.37 1338.85,1111.37 1342.95,1111.37 1347.06,1111.37 1351.16,1111.37 1355.27,1111.37 1359.37,1111.37 1363.48,1111.37 1367.58,1111.37 1371.69,1111.37 1375.79,1111.37 1379.9,1111.37 1384,1111.37 1388.11,1111.37 1392.21,1111.37 1396.32,1111.37 1400.42,1111.37 1404.53,1111.37 1408.63,1111.37 1412.74,1111.37 1416.84,1111.37 1420.95,1111.37 1425.05,1111.37 1429.16,1111.37 1433.26,1111.37 1437.37,1111.37 1441.47,1111.37 1445.58,1111.37 1449.68,1111.37 1453.79,1111.37 1457.89,1111.37 1462,1111.37 1466.1,1111.37 1470.2,1111.37 1474.31,1111.37 1478.41,1111.37 1482.52,1111.37 1486.62,1111.37 1490.73,1111.37 1494.83,1111.37 1498.94,1111.37 1503.04,1111.37 1507.15,1111.37 1511.25,1111.37 1515.36,1111.37 1519.46,1111.37 1523.57,1111.37 1527.67,1111.37 1531.78,1111.37 1535.88,1111.37 1539.99,1111.37 1544.09,1111.37 1548.2,1111.37 1552.3,1111.37 1556.41,1111.37 1560.51,1111.37 1564.62,1111.37 1568.72,1111.37 1572.83,1111.37 1576.93,1111.37 1581.04,1111.37 1585.14,1111.37 1589.25,1111.37 1593.35,1111.37 1597.46,1111.37 1601.56,1111.37 1605.67,1111.37 1609.77,1111.37 1613.88,1111.37 1617.98,1111.37 1622.09,1111.37 1626.19,1111.37 1630.3,1111.37 1634.4,1111.37 1638.51,1111.37 1642.61,1111.37 1646.72,1111.37 1650.82,1111.37 1654.92,1111.37 1659.03,1111.37 1663.13,1111.37 1667.24,1111.37 1671.34,1111.37 1675.45,1111.37 1679.55,1111.37 1683.66,1111.37 1687.76,1111.37 1691.87,1111.37 1695.97,1111.37 1700.08,1111.37 1704.18,1111.37 1708.29,1111.37 1712.39,1111.37 1716.5,1111.37 1720.6,1111.37 1724.71,1111.37 1728.81,1111.37 1732.92,1111.37 1737.02,1111.37 1741.13,1111.37 1745.23,1111.37 1749.34,1111.37 1753.44,1111.37 1757.55,1111.37 1761.65,1111.37 1765.76,1111.37 1769.86,1111.37 1773.97,1111.37 1778.07,1111.37 1782.18,1111.37 1786.28,1111.37 1790.39,1111.37 1794.49,1111.37 1798.6,1111.37 1802.7,1111.37 1806.81,1111.37 1810.91,1111.37 1815.02,1111.37 1819.12,1111.37 1823.23,1111.37 1827.33,1111.37 1831.44,1111.37 1835.54,1111.37 1839.64,1111.37 1843.75,1111.37 1847.85,1111.37 1851.96,1111.37 1856.06,1111.37 1860.17,1111.37 1864.27,1111.37 1868.38,1111.37 1872.48,1111.37 1876.59,1111.37 1880.69,1111.37 1884.8,1111.37 1888.9,1111.37 1893.01,1111.37 1897.11,1111.37 1901.22,1111.37 1905.32,1111.37 1909.43,1111.37 1913.53,1111.37 1917.64,1111.37 1921.74,1111.37 1925.85,1111.37 1929.95,1111.37 1934.06,1111.37 1938.16,1111.37 1942.27,1111.37 1946.37,1111.37 1950.48,1111.37 1954.58,1111.37 1958.69,1111.37 1962.79,1111.37 1966.9,1111.37 1971,1111.37 1975.11,1111.37 1979.21,1111.37 1983.32,1111.37 1987.42,1111.37 1991.53,1111.37 1995.63,1111.37 1999.74,1111.37 2003.84,1111.37 2007.95,1111.37 2012.05,1111.37 2016.16,1111.37 2020.26,1111.37 2024.36,1111.37 2028.47,1111.37 2032.57,1111.37 2036.68,1111.37 2040.78,1111.37 2044.89,1111.37 2048.99,1111.37 2053.1,1111.37 2057.2,1111.37 2061.31,1111.37 2065.41,1111.37 2069.52,1111.37 2073.62,1111.37 2077.73,1111.37 2081.83,1111.37 2085.94,1111.37 2090.04,1111.37 2094.15,1111.37 2098.25,1111.37 2102.36,1111.37 2106.46,1111.37 2110.57,1111.37 2114.67,1111.37 2118.78,1111.37 2122.88,1111.37 2126.99,1111.37 2131.09,1111.37 2135.2,1111.37 2139.3,1111.37 2143.41,1111.37 2147.51,1111.37 2151.62,1111.37 2155.72,1111.37 2159.83,1111.37 2163.93,1111.37 2168.04,1111.37 2172.14,1111.37 2176.25,1111.37 2180.35,1111.37 2184.46,1111.37 2188.56,1111.37 2192.67,1111.37 2196.77,1111.37 2200.88,1111.37 2204.98,1111.37 2209.08,1111.37 2213.19,1111.37 2217.29,1111.37 2221.4,1111.37 2225.5,1111.37 2229.61,1111.37 2233.71,1111.37 2237.82,1111.37 2241.92,1111.37 2246.03,1111.37 2250.13,1111.37 2254.24,1111.37 2258.34,1111.37 2262.45,1111.37 2266.55,1111.37 2270.66,1111.37 2274.76,1111.37 2278.87,1111.37 2282.97,1111.37 2287.08,1111.37 2291.18,1111.37 "/>
<polyline clip-path="url(#clip891)" style="stroke:#ac8d18; stroke-linecap:round; stroke-linejoin:round; stroke-width:8; stroke-opacity:1; fill:none" points="238.739,858.037 242.843,936.432 246.948,1068.63 251.053,1139.19 255.158,1170.31 259.263,1167.52 263.368,1163.64 267.473,1159.45 271.578,1155.54 275.683,1152.28 279.787,1149.84 283.892,1148.17 287.997,1147.03 292.102,1146.1 296.207,1145.05 300.312,1143.67 304.417,1141.84 308.522,1139.6 312.627,1137.05 316.731,1134.31 320.836,1131.46 324.941,1128.58 329.046,1125.66 333.151,1122.72 337.256,1119.76 341.361,1116.8 345.466,1116.63 349.571,1116.34 353.675,1115.98 357.78,1115.54 361.885,1115.05 365.99,1114.5 370.095,1113.92 374.2,1113.31 378.305,1112.69 382.41,1112.05 386.515,1111.43 390.619,1110.81 394.724,1110.23 398.829,1109.68 402.934,1109.16 407.039,1108.7 411.144,1108.29 415.249,1107.93 419.354,1107.93 423.459,1107.93 427.563,1107.93 431.668,1107.93 435.773,1107.93 439.878,1107.93 443.983,1107.93 448.088,1107.93 452.193,1107.93 456.298,1107.92 460.403,1107.92 464.507,1107.92 468.612,1107.91 472.717,1107.91 476.822,1107.9 480.927,1107.9 485.032,1107.9 489.137,1107.89 493.242,1107.89 497.347,1107.88 501.451,1107.88 505.556,1107.88 509.661,1107.88 513.766,1107.88 517.871,1107.88 521.976,1107.88 526.081,1107.88 530.186,1107.88 534.291,1107.88 538.395,1107.87 542.5,1107.87 546.605,1107.87 550.71,1107.87 554.815,1107.87 558.92,1107.87 563.025,1107.87 567.13,1107.87 571.235,1107.87 575.339,1107.87 579.444,1107.87 583.549,1107.87 587.654,1107.87 591.759,1107.87 595.864,1107.87 599.969,1107.87 604.074,1107.87 608.178,1107.87 612.283,1107.87 616.388,1107.87 620.493,1107.87 624.598,1107.87 628.703,1107.87 632.808,1107.87 636.913,1107.87 641.018,1107.87 645.122,1107.87 649.227,1107.87 653.332,1107.87 657.437,1107.87 661.542,1107.87 665.647,1107.87 669.752,1107.87 673.857,1107.87 677.962,1107.87 682.066,1107.87 686.171,1107.87 690.276,1107.87 694.381,1107.87 698.486,1107.87 702.591,1107.87 706.696,1107.87 710.801,1107.87 714.906,1107.87 719.01,1107.87 723.115,1107.87 727.22,1107.87 731.325,1107.87 735.43,1107.87 739.535,1107.87 743.64,1107.87 747.745,1107.87 751.85,1107.87 755.954,1107.87 760.059,1107.87 764.164,1107.87 768.269,1107.87 772.374,1107.87 776.479,1107.87 780.584,1107.87 784.689,1107.87 788.794,1107.87 792.898,1107.87 797.003,1107.87 801.108,1107.87 805.213,1107.87 809.318,1107.87 813.423,1107.87 817.528,1107.87 821.633,1107.87 825.738,1107.87 829.842,1107.87 833.947,1107.87 838.052,1107.87 842.157,1107.87 846.262,1107.87 850.367,1107.87 854.472,1107.87 858.577,1107.87 862.682,1107.87 866.786,1107.87 870.891,1107.87 874.996,1107.87 879.101,1107.87 883.206,1107.87 887.311,1107.87 891.416,1107.87 895.521,1107.87 899.626,1107.87 903.73,1107.87 907.835,1107.87 911.94,1107.87 916.045,1107.87 920.15,1107.87 924.255,1107.87 928.36,1107.87 932.465,1107.87 936.57,1107.87 940.674,1107.87 944.779,1107.87 948.884,1107.87 952.989,1107.87 957.094,1107.87 961.199,1107.87 965.304,1107.87 969.409,1107.87 973.514,1107.87 977.618,1107.87 981.723,1107.87 985.828,1107.87 989.933,1107.87 994.038,1107.87 998.143,1107.87 1002.25,1107.87 1006.35,1107.87 1010.46,1107.87 1014.56,1107.87 1018.67,1107.87 1022.77,1107.87 1026.88,1107.87 1030.98,1107.87 1035.09,1107.87 1039.19,1107.87 1043.3,1107.87 1047.4,1107.87 1051.51,1107.87 1055.61,1107.87 1059.72,1107.87 1063.82,1107.87 1067.93,1107.87 1072.03,1107.87 1076.14,1107.87 1080.24,1107.87 1084.35,1107.87 1088.45,1107.87 1092.56,1107.87 1096.66,1107.87 1100.77,1107.87 1104.87,1107.87 1108.97,1107.87 1113.08,1107.87 1117.18,1107.87 1121.29,1107.87 1125.39,1107.87 1129.5,1107.87 1133.6,1107.87 1137.71,1107.87 1141.81,1107.87 1145.92,1107.87 1150.02,1107.87 1154.13,1107.87 1158.23,1107.87 1162.34,1107.87 1166.44,1107.87 1170.55,1107.87 1174.65,1107.87 1178.76,1107.87 1182.86,1107.87 1186.97,1107.87 1191.07,1107.87 1195.18,1107.87 1199.28,1107.87 1203.39,1107.87 1207.49,1107.87 1211.6,1107.87 1215.7,1107.87 1219.81,1107.87 1223.91,1107.87 1228.02,1107.87 1232.12,1107.87 1236.23,1107.87 1240.33,1107.87 1244.44,1107.87 1248.54,1107.87 1252.65,1107.87 1256.75,1107.87 1260.86,1107.87 1264.96,1107.87 1269.07,1107.87 1273.17,1107.87 1277.28,1107.87 1281.38,1107.87 1285.49,1107.87 1289.59,1107.87 1293.69,1107.87 1297.8,1107.87 1301.9,1107.87 1306.01,1107.87 1310.11,1107.87 1314.22,1107.87 1318.32,1107.87 1322.43,1107.87 1326.53,1107.87 1330.64,1107.87 1334.74,1107.87 1338.85,1107.87 1342.95,1107.87 1347.06,1107.87 1351.16,1107.87 1355.27,1107.87 1359.37,1107.87 1363.48,1107.87 1367.58,1107.87 1371.69,1107.87 1375.79,1107.87 1379.9,1107.87 1384,1107.87 1388.11,1107.87 1392.21,1107.87 1396.32,1107.87 1400.42,1107.87 1404.53,1107.87 1408.63,1107.87 1412.74,1107.87 1416.84,1107.87 1420.95,1107.87 1425.05,1107.87 1429.16,1107.87 1433.26,1107.87 1437.37,1107.87 1441.47,1107.87 1445.58,1107.87 1449.68,1107.87 1453.79,1107.87 1457.89,1107.87 1462,1107.87 1466.1,1107.87 1470.2,1107.87 1474.31,1107.87 1478.41,1107.87 1482.52,1107.87 1486.62,1107.87 1490.73,1107.87 1494.83,1107.87 1498.94,1107.87 1503.04,1107.87 1507.15,1107.87 1511.25,1107.87 1515.36,1107.87 1519.46,1107.87 1523.57,1107.87 1527.67,1107.87 1531.78,1107.87 1535.88,1107.87 1539.99,1107.87 1544.09,1107.87 1548.2,1107.87 1552.3,1107.87 1556.41,1107.87 1560.51,1107.87 1564.62,1107.87 1568.72,1107.87 1572.83,1107.87 1576.93,1107.87 1581.04,1107.87 1585.14,1107.87 1589.25,1107.87 1593.35,1107.87 1597.46,1107.87 1601.56,1107.87 1605.67,1107.87 1609.77,1107.87 1613.88,1107.87 1617.98,1107.87 1622.09,1107.87 1626.19,1107.87 1630.3,1107.87 1634.4,1107.87 1638.51,1107.87 1642.61,1107.87 1646.72,1107.87 1650.82,1107.87 1654.92,1107.87 1659.03,1107.87 1663.13,1107.87 1667.24,1107.87 1671.34,1107.87 1675.45,1107.87 1679.55,1107.87 1683.66,1107.87 1687.76,1107.87 1691.87,1107.87 1695.97,1107.87 1700.08,1107.87 1704.18,1107.87 1708.29,1107.87 1712.39,1107.87 1716.5,1107.87 1720.6,1107.87 1724.71,1107.87 1728.81,1107.87 1732.92,1107.87 1737.02,1107.87 1741.13,1107.87 1745.23,1107.87 1749.34,1107.87 1753.44,1107.87 1757.55,1107.87 1761.65,1107.87 1765.76,1107.87 1769.86,1107.87 1773.97,1107.87 1778.07,1107.87 1782.18,1107.87 1786.28,1107.87 1790.39,1107.87 1794.49,1107.87 1798.6,1107.87 1802.7,1107.87 1806.81,1107.87 1810.91,1107.87 1815.02,1107.87 1819.12,1107.87 1823.23,1107.87 1827.33,1107.87 1831.44,1107.87 1835.54,1107.87 1839.64,1107.87 1843.75,1107.87 1847.85,1107.87 1851.96,1107.87 1856.06,1107.87 1860.17,1107.87 1864.27,1107.87 1868.38,1107.87 1872.48,1107.87 1876.59,1107.87 1880.69,1107.87 1884.8,1107.87 1888.9,1107.87 1893.01,1107.87 1897.11,1107.87 1901.22,1107.87 1905.32,1107.87 1909.43,1107.87 1913.53,1107.87 1917.64,1107.87 1921.74,1107.87 1925.85,1107.87 1929.95,1107.87 1934.06,1107.87 1938.16,1107.87 1942.27,1107.87 1946.37,1107.87 1950.48,1107.87 1954.58,1107.87 1958.69,1107.87 1962.79,1107.87 1966.9,1107.87 1971,1107.87 1975.11,1107.87 1979.21,1107.87 1983.32,1107.87 1987.42,1107.87 1991.53,1107.87 1995.63,1107.87 1999.74,1107.87 2003.84,1107.87 2007.95,1107.87 2012.05,1107.87 2016.16,1107.87 2020.26,1107.87 2024.36,1107.87 2028.47,1107.87 2032.57,1107.87 2036.68,1107.87 2040.78,1107.87 2044.89,1107.87 2048.99,1107.87 2053.1,1107.87 2057.2,1107.87 2061.31,1107.87 2065.41,1107.87 2069.52,1107.87 2073.62,1107.87 2077.73,1107.87 2081.83,1107.87 2085.94,1107.87 2090.04,1107.87 2094.15,1107.87 2098.25,1107.87 2102.36,1107.87 2106.46,1107.87 2110.57,1107.87 2114.67,1107.87 2118.78,1107.87 2122.88,1107.87 2126.99,1107.87 2131.09,1107.87 2135.2,1107.87 2139.3,1107.87 2143.41,1107.87 2147.51,1107.87 2151.62,1107.87 2155.72,1107.87 2159.83,1107.87 2163.93,1107.87 2168.04,1107.87 2172.14,1107.87 2176.25,1107.87 2180.35,1107.87 2184.46,1107.87 2188.56,1107.87 2192.67,1107.87 2196.77,1107.87 2200.88,1107.87 2204.98,1107.87 2209.08,1107.87 2213.19,1107.87 2217.29,1107.87 2221.4,1107.87 2225.5,1107.87 2229.61,1107.87 2233.71,1107.87 2237.82,1107.87 2241.92,1107.87 2246.03,1107.87 2250.13,1107.87 2254.24,1107.87 2258.34,1107.87 2262.45,1107.87 2266.55,1107.87 2270.66,1107.87 2274.76,1107.87 2278.87,1107.87 2282.97,1107.87 2287.08,1107.87 2291.18,1107.87 "/>
<polyline clip-path="url(#clip891)" style="stroke:#00a9ad; stroke-linecap:round; stroke-linejoin:round; stroke-width:8; stroke-opacity:1; fill:none" points="238.739,1005.54 242.843,1067.6 246.948,1177.68 251.053,1227.03 255.158,1238.3 259.263,1230.96 263.368,1219.86 267.473,1206.16 271.578,1190.75 275.683,1174.31 279.787,1157.33 283.892,1140.15 287.997,1122.9 292.102,1105.68 296.207,1088.51 300.312,1071.49 304.417,1054.76 308.522,1038.55 312.627,1023.09 316.731,1008.58 320.836,995.174 324.941,982.973 329.046,972.022 333.151,962.338 337.256,953.929 341.361,946.797 345.466,946.947 349.571,947.191 353.675,947.524 357.78,947.941 361.885,948.436 365.99,948.999 370.095,949.62 374.2,950.286 378.305,950.981 382.41,951.692 386.515,952.403 390.619,953.1 394.724,953.77 398.829,954.402 402.934,954.984 407.039,955.509 411.144,955.971 415.249,956.366 419.354,956.364 423.459,956.36 427.563,956.355 431.668,956.35 435.773,956.344 439.878,956.338 443.983,956.332 448.088,956.326 452.193,956.32 456.298,956.315 460.403,956.31 464.507,956.306 468.612,956.301 472.717,956.298 476.822,956.294 480.927,956.291 485.032,956.288 489.137,956.286 493.242,956.283 497.347,956.281 501.451,956.281 505.556,956.281 509.661,956.281 513.766,956.281 517.871,956.281 521.976,956.281 526.081,956.281 530.186,956.281 534.291,956.281 538.395,956.281 542.5,956.281 546.605,956.281 550.71,956.281 554.815,956.281 558.92,956.281 563.025,956.281 567.13,956.281 571.235,956.28 575.339,956.28 579.444,956.28 583.549,956.28 587.654,956.28 591.759,956.28 595.864,956.28 599.969,956.28 604.074,956.28 608.178,956.28 612.283,956.28 616.388,956.28 620.493,956.28 624.598,956.279 628.703,956.279 632.808,956.279 636.913,956.279 641.018,956.279 645.122,956.279 649.227,956.279 653.332,956.279 657.437,956.279 661.542,956.279 665.647,956.279 669.752,956.279 673.857,956.279 677.962,956.279 682.066,956.279 686.171,956.279 690.276,956.279 694.381,956.279 698.486,956.279 702.591,956.279 706.696,956.279 710.801,956.279 714.906,956.279 719.01,956.279 723.115,956.279 727.22,956.279 731.325,956.279 735.43,956.279 739.535,956.279 743.64,956.279 747.745,956.279 751.85,956.279 755.954,956.279 760.059,956.279 764.164,956.279 768.269,956.279 772.374,956.279 776.479,956.279 780.584,956.279 784.689,956.279 788.794,956.279 792.898,956.279 797.003,956.279 801.108,956.279 805.213,956.279 809.318,956.279 813.423,956.279 817.528,956.279 821.633,956.279 825.738,956.279 829.842,956.279 833.947,956.279 838.052,956.279 842.157,956.279 846.262,956.279 850.367,956.279 854.472,956.279 858.577,956.279 862.682,956.279 866.786,956.279 870.891,956.279 874.996,956.279 879.101,956.279 883.206,956.279 887.311,956.279 891.416,956.279 895.521,956.279 899.626,956.279 903.73,956.279 907.835,956.279 911.94,956.279 916.045,956.279 920.15,956.279 924.255,956.279 928.36,956.279 932.465,956.279 936.57,956.279 940.674,956.279 944.779,956.279 948.884,956.279 952.989,956.279 957.094,956.279 961.199,956.279 965.304,956.279 969.409,956.279 973.514,956.279 977.618,956.279 981.723,956.279 985.828,956.279 989.933,956.279 994.038,956.279 998.143,956.279 1002.25,956.279 1006.35,956.279 1010.46,956.279 1014.56,956.279 1018.67,956.279 1022.77,956.279 1026.88,956.279 1030.98,956.279 1035.09,956.279 1039.19,956.279 1043.3,956.279 1047.4,956.279 1051.51,956.279 1055.61,956.279 1059.72,956.279 1063.82,956.279 1067.93,956.279 1072.03,956.279 1076.14,956.279 1080.24,956.279 1084.35,956.279 1088.45,956.279 1092.56,956.279 1096.66,956.279 1100.77,956.279 1104.87,956.279 1108.97,956.279 1113.08,956.279 1117.18,956.279 1121.29,956.279 1125.39,956.279 1129.5,956.279 1133.6,956.279 1137.71,956.279 1141.81,956.279 1145.92,956.279 1150.02,956.279 1154.13,956.279 1158.23,956.279 1162.34,956.279 1166.44,956.279 1170.55,956.279 1174.65,956.279 1178.76,956.279 1182.86,956.279 1186.97,956.279 1191.07,956.279 1195.18,956.279 1199.28,956.279 1203.39,956.279 1207.49,956.279 1211.6,956.279 1215.7,956.279 1219.81,956.279 1223.91,956.279 1228.02,956.279 1232.12,956.279 1236.23,956.279 1240.33,956.279 1244.44,956.279 1248.54,956.279 1252.65,956.279 1256.75,956.279 1260.86,956.279 1264.96,956.279 1269.07,956.279 1273.17,956.279 1277.28,956.279 1281.38,956.279 1285.49,956.279 1289.59,956.279 1293.69,956.279 1297.8,956.279 1301.9,956.279 1306.01,956.279 1310.11,956.279 1314.22,956.279 1318.32,956.279 1322.43,956.279 1326.53,956.279 1330.64,956.279 1334.74,956.279 1338.85,956.279 1342.95,956.279 1347.06,956.279 1351.16,956.279 1355.27,956.279 1359.37,956.279 1363.48,956.279 1367.58,956.279 1371.69,956.279 1375.79,956.279 1379.9,956.279 1384,956.279 1388.11,956.279 1392.21,956.279 1396.32,956.279 1400.42,956.279 1404.53,956.279 1408.63,956.279 1412.74,956.279 1416.84,956.279 1420.95,956.279 1425.05,956.279 1429.16,956.279 1433.26,956.279 1437.37,956.279 1441.47,956.279 1445.58,956.279 1449.68,956.279 1453.79,956.279 1457.89,956.279 1462,956.279 1466.1,956.279 1470.2,956.279 1474.31,956.279 1478.41,956.279 1482.52,956.279 1486.62,956.279 1490.73,956.279 1494.83,956.279 1498.94,956.279 1503.04,956.279 1507.15,956.279 1511.25,956.279 1515.36,956.279 1519.46,956.279 1523.57,956.279 1527.67,956.279 1531.78,956.279 1535.88,956.279 1539.99,956.279 1544.09,956.279 1548.2,956.279 1552.3,956.279 1556.41,956.279 1560.51,956.279 1564.62,956.279 1568.72,956.279 1572.83,956.279 1576.93,956.279 1581.04,956.279 1585.14,956.279 1589.25,956.279 1593.35,956.279 1597.46,956.279 1601.56,956.279 1605.67,956.279 1609.77,956.279 1613.88,956.279 1617.98,956.279 1622.09,956.279 1626.19,956.279 1630.3,956.279 1634.4,956.279 1638.51,956.279 1642.61,956.279 1646.72,956.279 1650.82,956.279 1654.92,956.279 1659.03,956.279 1663.13,956.279 1667.24,956.279 1671.34,956.279 1675.45,956.279 1679.55,956.279 1683.66,956.279 1687.76,956.279 1691.87,956.279 1695.97,956.279 1700.08,956.279 1704.18,956.279 1708.29,956.279 1712.39,956.279 1716.5,956.279 1720.6,956.279 1724.71,956.279 1728.81,956.279 1732.92,956.279 1737.02,956.279 1741.13,956.279 1745.23,956.279 1749.34,956.279 1753.44,956.279 1757.55,956.279 1761.65,956.279 1765.76,956.279 1769.86,956.279 1773.97,956.279 1778.07,956.279 1782.18,956.279 1786.28,956.279 1790.39,956.279 1794.49,956.279 1798.6,956.279 1802.7,956.279 1806.81,956.279 1810.91,956.279 1815.02,956.279 1819.12,956.279 1823.23,956.279 1827.33,956.279 1831.44,956.279 1835.54,956.279 1839.64,956.279 1843.75,956.279 1847.85,956.279 1851.96,956.279 1856.06,956.279 1860.17,956.279 1864.27,956.279 1868.38,956.279 1872.48,956.279 1876.59,956.279 1880.69,956.279 1884.8,956.279 1888.9,956.279 1893.01,956.279 1897.11,956.279 1901.22,956.279 1905.32,956.279 1909.43,956.279 1913.53,956.279 1917.64,956.279 1921.74,956.279 1925.85,956.279 1929.95,956.279 1934.06,956.279 1938.16,956.279 1942.27,956.279 1946.37,956.279 1950.48,956.279 1954.58,956.279 1958.69,956.279 1962.79,956.279 1966.9,956.279 1971,956.279 1975.11,956.279 1979.21,956.279 1983.32,956.279 1987.42,956.279 1991.53,956.279 1995.63,956.279 1999.74,956.279 2003.84,956.279 2007.95,956.279 2012.05,956.279 2016.16,956.279 2020.26,956.279 2024.36,956.279 2028.47,956.279 2032.57,956.279 2036.68,956.279 2040.78,956.279 2044.89,956.279 2048.99,956.279 2053.1,956.279 2057.2,956.279 2061.31,956.279 2065.41,956.279 2069.52,956.279 2073.62,956.279 2077.73,956.279 2081.83,956.279 2085.94,956.279 2090.04,956.279 2094.15,956.279 2098.25,956.279 2102.36,956.279 2106.46,956.279 2110.57,956.279 2114.67,956.279 2118.78,956.279 2122.88,956.279 2126.99,956.279 2131.09,956.279 2135.2,956.279 2139.3,956.279 2143.41,956.279 2147.51,956.279 2151.62,956.279 2155.72,956.279 2159.83,956.279 2163.93,956.279 2168.04,956.279 2172.14,956.279 2176.25,956.279 2180.35,956.279 2184.46,956.279 2188.56,956.279 2192.67,956.279 2196.77,956.279 2200.88,956.279 2204.98,956.279 2209.08,956.279 2213.19,956.279 2217.29,956.279 2221.4,956.279 2225.5,956.279 2229.61,956.279 2233.71,956.279 2237.82,956.279 2241.92,956.279 2246.03,956.279 2250.13,956.279 2254.24,956.279 2258.34,956.279 2262.45,956.279 2266.55,956.279 2270.66,956.279 2274.76,956.279 2278.87,956.279 2282.97,956.279 2287.08,956.279 2291.18,956.279 "/>
<polyline clip-path="url(#clip891)" style="stroke:#ed5d92; stroke-linecap:round; stroke-linejoin:round; stroke-width:8; stroke-opacity:1; fill:none" points="238.739,175.702 242.843,324.714 246.948,577.738 251.053,721.324 255.158,791.567 259.263,789.487 263.368,787.297 267.473,786.34 271.578,787.624 275.683,791.821 279.787,799.204 283.892,809.642 287.997,822.66 292.102,837.568 296.207,853.627 300.312,870.207 304.417,886.875 308.522,903.385 312.627,919.607 316.731,935.438 320.836,950.742 324.941,965.337 329.046,979.015 333.151,991.575 337.256,1002.86 341.361,1012.77 345.466,1012.74 349.571,1012.72 353.675,1012.7 357.78,1012.7 361.885,1012.71 365.99,1012.75 370.095,1012.81 374.2,1012.89 378.305,1012.99 382.41,1013.1 386.515,1013.21 390.619,1013.34 394.724,1013.46 398.829,1013.59 402.934,1013.71 407.039,1013.82 411.144,1013.93 415.249,1014.03 419.354,1014.03 423.459,1014.04 427.563,1014.05 431.668,1014.06 435.773,1014.07 439.878,1014.08 443.983,1014.09 448.088,1014.11 452.193,1014.12 456.298,1014.14 460.403,1014.16 464.507,1014.18 468.612,1014.19 472.717,1014.21 476.822,1014.23 480.927,1014.25 485.032,1014.26 489.137,1014.28 493.242,1014.29 497.347,1014.3 501.451,1014.3 505.556,1014.3 509.661,1014.3 513.766,1014.3 517.871,1014.3 521.976,1014.3 526.081,1014.3 530.186,1014.3 534.291,1014.3 538.395,1014.31 542.5,1014.31 546.605,1014.31 550.71,1014.31 554.815,1014.31 558.92,1014.31 563.025,1014.31 567.13,1014.31 571.235,1014.31 575.339,1014.31 579.444,1014.31 583.549,1014.31 587.654,1014.31 591.759,1014.31 595.864,1014.31 599.969,1014.31 604.074,1014.31 608.178,1014.31 612.283,1014.31 616.388,1014.31 620.493,1014.31 624.598,1014.31 628.703,1014.31 632.808,1014.31 636.913,1014.31 641.018,1014.31 645.122,1014.31 649.227,1014.31 653.332,1014.31 657.437,1014.31 661.542,1014.31 665.647,1014.31 669.752,1014.31 673.857,1014.31 677.962,1014.31 682.066,1014.31 686.171,1014.31 690.276,1014.31 694.381,1014.31 698.486,1014.31 702.591,1014.31 706.696,1014.31 710.801,1014.31 714.906,1014.31 719.01,1014.31 723.115,1014.31 727.22,1014.31 731.325,1014.31 735.43,1014.31 739.535,1014.31 743.64,1014.31 747.745,1014.31 751.85,1014.31 755.954,1014.31 760.059,1014.31 764.164,1014.31 768.269,1014.31 772.374,1014.31 776.479,1014.31 780.584,1014.31 784.689,1014.31 788.794,1014.31 792.898,1014.31 797.003,1014.31 801.108,1014.31 805.213,1014.31 809.318,1014.31 813.423,1014.31 817.528,1014.31 821.633,1014.31 825.738,1014.31 829.842,1014.31 833.947,1014.31 838.052,1014.31 842.157,1014.31 846.262,1014.31 850.367,1014.31 854.472,1014.31 858.577,1014.31 862.682,1014.31 866.786,1014.31 870.891,1014.31 874.996,1014.31 879.101,1014.31 883.206,1014.31 887.311,1014.31 891.416,1014.31 895.521,1014.31 899.626,1014.31 903.73,1014.31 907.835,1014.31 911.94,1014.31 916.045,1014.31 920.15,1014.31 924.255,1014.31 928.36,1014.31 932.465,1014.31 936.57,1014.31 940.674,1014.31 944.779,1014.31 948.884,1014.31 952.989,1014.31 957.094,1014.31 961.199,1014.31 965.304,1014.31 969.409,1014.31 973.514,1014.31 977.618,1014.31 981.723,1014.31 985.828,1014.31 989.933,1014.31 994.038,1014.31 998.143,1014.31 1002.25,1014.31 1006.35,1014.31 1010.46,1014.31 1014.56,1014.31 1018.67,1014.31 1022.77,1014.31 1026.88,1014.31 1030.98,1014.31 1035.09,1014.31 1039.19,1014.31 1043.3,1014.31 1047.4,1014.31 1051.51,1014.31 1055.61,1014.31 1059.72,1014.31 1063.82,1014.31 1067.93,1014.31 1072.03,1014.31 1076.14,1014.31 1080.24,1014.31 1084.35,1014.31 1088.45,1014.31 1092.56,1014.31 1096.66,1014.31 1100.77,1014.31 1104.87,1014.31 1108.97,1014.31 1113.08,1014.31 1117.18,1014.31 1121.29,1014.31 1125.39,1014.31 1129.5,1014.31 1133.6,1014.31 1137.71,1014.31 1141.81,1014.31 1145.92,1014.31 1150.02,1014.31 1154.13,1014.31 1158.23,1014.31 1162.34,1014.31 1166.44,1014.31 1170.55,1014.31 1174.65,1014.31 1178.76,1014.31 1182.86,1014.31 1186.97,1014.31 1191.07,1014.31 1195.18,1014.31 1199.28,1014.31 1203.39,1014.31 1207.49,1014.31 1211.6,1014.31 1215.7,1014.31 1219.81,1014.31 1223.91,1014.31 1228.02,1014.31 1232.12,1014.31 1236.23,1014.31 1240.33,1014.31 1244.44,1014.31 1248.54,1014.31 1252.65,1014.31 1256.75,1014.31 1260.86,1014.31 1264.96,1014.31 1269.07,1014.31 1273.17,1014.31 1277.28,1014.31 1281.38,1014.31 1285.49,1014.31 1289.59,1014.31 1293.69,1014.31 1297.8,1014.31 1301.9,1014.31 1306.01,1014.31 1310.11,1014.31 1314.22,1014.31 1318.32,1014.31 1322.43,1014.31 1326.53,1014.31 1330.64,1014.31 1334.74,1014.31 1338.85,1014.31 1342.95,1014.31 1347.06,1014.31 1351.16,1014.31 1355.27,1014.31 1359.37,1014.31 1363.48,1014.31 1367.58,1014.31 1371.69,1014.31 1375.79,1014.31 1379.9,1014.31 1384,1014.31 1388.11,1014.31 1392.21,1014.31 1396.32,1014.31 1400.42,1014.31 1404.53,1014.31 1408.63,1014.31 1412.74,1014.31 1416.84,1014.31 1420.95,1014.31 1425.05,1014.31 1429.16,1014.31 1433.26,1014.31 1437.37,1014.31 1441.47,1014.31 1445.58,1014.31 1449.68,1014.31 1453.79,1014.31 1457.89,1014.31 1462,1014.31 1466.1,1014.31 1470.2,1014.31 1474.31,1014.31 1478.41,1014.31 1482.52,1014.31 1486.62,1014.31 1490.73,1014.31 1494.83,1014.31 1498.94,1014.31 1503.04,1014.31 1507.15,1014.31 1511.25,1014.31 1515.36,1014.31 1519.46,1014.31 1523.57,1014.31 1527.67,1014.31 1531.78,1014.31 1535.88,1014.31 1539.99,1014.31 1544.09,1014.31 1548.2,1014.31 1552.3,1014.31 1556.41,1014.31 1560.51,1014.31 1564.62,1014.31 1568.72,1014.31 1572.83,1014.31 1576.93,1014.31 1581.04,1014.31 1585.14,1014.31 1589.25,1014.31 1593.35,1014.31 1597.46,1014.31 1601.56,1014.31 1605.67,1014.31 1609.77,1014.31 1613.88,1014.31 1617.98,1014.31 1622.09,1014.31 1626.19,1014.31 1630.3,1014.31 1634.4,1014.31 1638.51,1014.31 1642.61,1014.31 1646.72,1014.31 1650.82,1014.31 1654.92,1014.31 1659.03,1014.31 1663.13,1014.31 1667.24,1014.31 1671.34,1014.31 1675.45,1014.31 1679.55,1014.31 1683.66,1014.31 1687.76,1014.31 1691.87,1014.31 1695.97,1014.31 1700.08,1014.31 1704.18,1014.31 1708.29,1014.31 1712.39,1014.31 1716.5,1014.31 1720.6,1014.31 1724.71,1014.31 1728.81,1014.31 1732.92,1014.31 1737.02,1014.31 1741.13,1014.31 1745.23,1014.31 1749.34,1014.31 1753.44,1014.31 1757.55,1014.31 1761.65,1014.31 1765.76,1014.31 1769.86,1014.31 1773.97,1014.31 1778.07,1014.31 1782.18,1014.31 1786.28,1014.31 1790.39,1014.31 1794.49,1014.31 1798.6,1014.31 1802.7,1014.31 1806.81,1014.31 1810.91,1014.31 1815.02,1014.31 1819.12,1014.31 1823.23,1014.31 1827.33,1014.31 1831.44,1014.31 1835.54,1014.31 1839.64,1014.31 1843.75,1014.31 1847.85,1014.31 1851.96,1014.31 1856.06,1014.31 1860.17,1014.31 1864.27,1014.31 1868.38,1014.31 1872.48,1014.31 1876.59,1014.31 1880.69,1014.31 1884.8,1014.31 1888.9,1014.31 1893.01,1014.31 1897.11,1014.31 1901.22,1014.31 1905.32,1014.31 1909.43,1014.31 1913.53,1014.31 1917.64,1014.31 1921.74,1014.31 1925.85,1014.31 1929.95,1014.31 1934.06,1014.31 1938.16,1014.31 1942.27,1014.31 1946.37,1014.31 1950.48,1014.31 1954.58,1014.31 1958.69,1014.31 1962.79,1014.31 1966.9,1014.31 1971,1014.31 1975.11,1014.31 1979.21,1014.31 1983.32,1014.31 1987.42,1014.31 1991.53,1014.31 1995.63,1014.31 1999.74,1014.31 2003.84,1014.31 2007.95,1014.31 2012.05,1014.31 2016.16,1014.31 2020.26,1014.31 2024.36,1014.31 2028.47,1014.31 2032.57,1014.31 2036.68,1014.31 2040.78,1014.31 2044.89,1014.31 2048.99,1014.31 2053.1,1014.31 2057.2,1014.31 2061.31,1014.31 2065.41,1014.31 2069.52,1014.31 2073.62,1014.31 2077.73,1014.31 2081.83,1014.31 2085.94,1014.31 2090.04,1014.31 2094.15,1014.31 2098.25,1014.31 2102.36,1014.31 2106.46,1014.31 2110.57,1014.31 2114.67,1014.31 2118.78,1014.31 2122.88,1014.31 2126.99,1014.31 2131.09,1014.31 2135.2,1014.31 2139.3,1014.31 2143.41,1014.31 2147.51,1014.31 2151.62,1014.31 2155.72,1014.31 2159.83,1014.31 2163.93,1014.31 2168.04,1014.31 2172.14,1014.31 2176.25,1014.31 2180.35,1014.31 2184.46,1014.31 2188.56,1014.31 2192.67,1014.31 2196.77,1014.31 2200.88,1014.31 2204.98,1014.31 2209.08,1014.31 2213.19,1014.31 2217.29,1014.31 2221.4,1014.31 2225.5,1014.31 2229.61,1014.31 2233.71,1014.31 2237.82,1014.31 2241.92,1014.31 2246.03,1014.31 2250.13,1014.31 2254.24,1014.31 2258.34,1014.31 2262.45,1014.31 2266.55,1014.31 2270.66,1014.31 2274.76,1014.31 2278.87,1014.31 2282.97,1014.31 2287.08,1014.31 2291.18,1014.31 "/>
</svg>
