<?xml version="1.0" encoding="utf-8"?>
<svg xmlns="http://www.w3.org/2000/svg" xmlns:xlink="http://www.w3.org/1999/xlink" width="550" height="500" viewBox="0 0 2200 2000">
<defs>
  <clipPath id="clip030">
    <rect x="0" y="0" width="2200" height="2000"/>
  </clipPath>
</defs>
<path clip-path="url(#clip030)" d="M0 2000 L2200 2000 L2200 0 L0 0  Z" fill="#ffffff" fill-rule="evenodd" fill-opacity="1"/>
<defs>
  <clipPath id="clip031">
    <rect x="257" y="145" width="1896" height="1645"/>
  </clipPath>
</defs>
<path clip-path="url(#clip030)" d="M257.415 1789.33 L2152.76 1789.33 L2152.76 145.465 L257.415 145.465  Z" fill="#ffffff" fill-rule="evenodd" fill-opacity="1"/>
<polyline clip-path="url(#clip031)" style="stroke:#000000; stroke-linecap:round; stroke-linejoin:round; stroke-width:2; stroke-opacity:0.1; fill:none" points="404.289,1789.33 404.289,145.465 "/>
<polyline clip-path="url(#clip031)" style="stroke:#000000; stroke-linecap:round; stroke-linejoin:round; stroke-width:2; stroke-opacity:0.1; fill:none" points="801.751,1789.33 801.751,145.465 "/>
<polyline clip-path="url(#clip031)" style="stroke:#000000; stroke-linecap:round; stroke-linejoin:round; stroke-width:2; stroke-opacity:0.1; fill:none" points="1199.21,1789.33 1199.21,145.465 "/>
<polyline clip-path="url(#clip031)" style="stroke:#000000; stroke-linecap:round; stroke-linejoin:round; stroke-width:2; stroke-opacity:0.1; fill:none" points="1596.67,1789.33 1596.67,145.465 "/>
<polyline clip-path="url(#clip031)" style="stroke:#000000; stroke-linecap:round; stroke-linejoin:round; stroke-width:2; stroke-opacity:0.1; fill:none" points="1994.14,1789.33 1994.14,145.465 "/>
<polyline clip-path="url(#clip031)" style="stroke:#000000; stroke-linecap:round; stroke-linejoin:round; stroke-width:2; stroke-opacity:0.1; fill:none" points="257.415,1764.82 2152.76,1764.82 "/>
<polyline clip-path="url(#clip031)" style="stroke:#000000; stroke-linecap:round; stroke-linejoin:round; stroke-width:2; stroke-opacity:0.1; fill:none" points="257.415,1367.36 2152.76,1367.36 "/>
<polyline clip-path="url(#clip031)" style="stroke:#000000; stroke-linecap:round; stroke-linejoin:round; stroke-width:2; stroke-opacity:0.1; fill:none" points="257.415,969.897 2152.76,969.897 "/>
<polyline clip-path="url(#clip031)" style="stroke:#000000; stroke-linecap:round; stroke-linejoin:round; stroke-width:2; stroke-opacity:0.1; fill:none" points="257.415,572.435 2152.76,572.435 "/>
<polyline clip-path="url(#clip031)" style="stroke:#000000; stroke-linecap:round; stroke-linejoin:round; stroke-width:2; stroke-opacity:0.1; fill:none" points="257.415,174.973 2152.76,174.973 "/>
<polyline clip-path="url(#clip030)" style="stroke:#000000; stroke-linecap:round; stroke-linejoin:round; stroke-width:4; stroke-opacity:1; fill:none" points="257.415,1789.33 2152.76,1789.33 "/>
<polyline clip-path="url(#clip030)" style="stroke:#000000; stroke-linecap:round; stroke-linejoin:round; stroke-width:4; stroke-opacity:1; fill:none" points="404.289,1789.33 404.289,1770.43 "/>
<polyline clip-path="url(#clip030)" style="stroke:#000000; stroke-linecap:round; stroke-linejoin:round; stroke-width:4; stroke-opacity:1; fill:none" points="801.751,1789.33 801.751,1770.43 "/>
<polyline clip-path="url(#clip030)" style="stroke:#000000; stroke-linecap:round; stroke-linejoin:round; stroke-width:4; stroke-opacity:1; fill:none" points="1199.21,1789.33 1199.21,1770.43 "/>
<polyline clip-path="url(#clip030)" style="stroke:#000000; stroke-linecap:round; stroke-linejoin:round; stroke-width:4; stroke-opacity:1; fill:none" points="1596.67,1789.33 1596.67,1770.43 "/>
<polyline clip-path="url(#clip030)" style="stroke:#000000; stroke-linecap:round; stroke-linejoin:round; stroke-width:4; stroke-opacity:1; fill:none" points="1994.14,1789.33 1994.14,1770.43 "/>
<path clip-path="url(#clip030)" d="M358.351 1833.3 L388.027 1833.3 L388.027 1837.24 L358.351 1837.24 L358.351 1833.3 Z" fill="#000000" fill-rule="nonzero" fill-opacity="1" /><path clip-path="url(#clip030)" d="M398.93 1846.2 L406.569 1846.2 L406.569 1819.83 L398.259 1821.5 L398.259 1817.24 L406.522 1815.57 L411.198 1815.57 L411.198 1846.2 L418.837 1846.2 L418.837 1850.13 L398.93 1850.13 L398.93 1846.2 Z" fill="#000000" fill-rule="nonzero" fill-opacity="1" /><path clip-path="url(#clip030)" d="M438.282 1818.65 Q434.67 1818.65 432.842 1822.22 Q431.036 1825.76 431.036 1832.89 Q431.036 1839.99 432.842 1843.56 Q434.67 1847.1 438.282 1847.1 Q441.916 1847.1 443.721 1843.56 Q445.55 1839.99 445.55 1832.89 Q445.55 1825.76 443.721 1822.22 Q441.916 1818.65 438.282 1818.65 M438.282 1814.95 Q444.092 1814.95 447.147 1819.55 Q450.226 1824.14 450.226 1832.89 Q450.226 1841.61 447.147 1846.22 Q444.092 1850.8 438.282 1850.8 Q432.471 1850.8 429.393 1846.22 Q426.337 1841.61 426.337 1832.89 Q426.337 1824.14 429.393 1819.55 Q432.471 1814.95 438.282 1814.95 Z" fill="#000000" fill-rule="nonzero" fill-opacity="1" /><path clip-path="url(#clip030)" d="M771.392 1833.3 L801.068 1833.3 L801.068 1837.24 L771.392 1837.24 L771.392 1833.3 Z" fill="#000000" fill-rule="nonzero" fill-opacity="1" /><path clip-path="url(#clip030)" d="M811.207 1815.57 L829.563 1815.57 L829.563 1819.51 L815.489 1819.51 L815.489 1827.98 Q816.508 1827.63 817.526 1827.47 Q818.545 1827.29 819.563 1827.29 Q825.35 1827.29 828.73 1830.46 Q832.109 1833.63 832.109 1839.04 Q832.109 1844.62 828.637 1847.73 Q825.165 1850.8 818.845 1850.8 Q816.67 1850.8 814.401 1850.43 Q812.156 1850.06 809.748 1849.32 L809.748 1844.62 Q811.832 1845.76 814.054 1846.31 Q816.276 1846.87 818.753 1846.87 Q822.757 1846.87 825.095 1844.76 Q827.433 1842.66 827.433 1839.04 Q827.433 1835.43 825.095 1833.33 Q822.757 1831.22 818.753 1831.22 Q816.878 1831.22 815.003 1831.64 Q813.151 1832.05 811.207 1832.93 L811.207 1815.57 Z" fill="#000000" fill-rule="nonzero" fill-opacity="1" /><path clip-path="url(#clip030)" d="M1199.21 1818.65 Q1195.6 1818.65 1193.77 1822.22 Q1191.97 1825.76 1191.97 1832.89 Q1191.97 1839.99 1193.77 1843.56 Q1195.6 1847.1 1199.21 1847.1 Q1202.85 1847.1 1204.65 1843.56 Q1206.48 1839.99 1206.48 1832.89 Q1206.48 1825.76 1204.65 1822.22 Q1202.85 1818.65 1199.21 1818.65 M1199.21 1814.95 Q1205.02 1814.95 1208.08 1819.55 Q1211.16 1824.14 1211.16 1832.89 Q1211.16 1841.61 1208.08 1846.22 Q1205.02 1850.8 1199.21 1850.8 Q1193.4 1850.8 1190.32 1846.22 Q1187.27 1841.61 1187.27 1832.89 Q1187.27 1824.14 1190.32 1819.55 Q1193.4 1814.95 1199.21 1814.95 Z" fill="#000000" fill-rule="nonzero" fill-opacity="1" /><path clip-path="url(#clip030)" d="M1586.95 1815.57 L1605.31 1815.57 L1605.31 1819.51 L1591.23 1819.51 L1591.23 1827.98 Q1592.25 1827.63 1593.27 1827.47 Q1594.29 1827.29 1595.31 1827.29 Q1601.1 1827.29 1604.48 1830.46 Q1607.86 1833.63 1607.86 1839.04 Q1607.86 1844.62 1604.38 1847.73 Q1600.91 1850.8 1594.59 1850.8 Q1592.42 1850.8 1590.15 1850.43 Q1587.9 1850.06 1585.49 1849.32 L1585.49 1844.62 Q1587.58 1845.76 1589.8 1846.31 Q1592.02 1846.87 1594.5 1846.87 Q1598.5 1846.87 1600.84 1844.76 Q1603.18 1842.66 1603.18 1839.04 Q1603.18 1835.43 1600.84 1833.33 Q1598.5 1831.22 1594.5 1831.22 Q1592.62 1831.22 1590.75 1831.64 Q1588.9 1832.05 1586.95 1832.93 L1586.95 1815.57 Z" fill="#000000" fill-rule="nonzero" fill-opacity="1" /><path clip-path="url(#clip030)" d="M1968.82 1846.2 L1976.46 1846.2 L1976.46 1819.83 L1968.15 1821.5 L1968.15 1817.24 L1976.42 1815.57 L1981.09 1815.57 L1981.09 1846.2 L1988.73 1846.2 L1988.73 1850.13 L1968.82 1850.13 L1968.82 1846.2 Z" fill="#000000" fill-rule="nonzero" fill-opacity="1" /><path clip-path="url(#clip030)" d="M2008.18 1818.65 Q2004.56 1818.65 2002.74 1822.22 Q2000.93 1825.76 2000.93 1832.89 Q2000.93 1839.99 2002.74 1843.56 Q2004.56 1847.1 2008.18 1847.1 Q2011.81 1847.1 2013.62 1843.56 Q2015.44 1839.99 2015.44 1832.89 Q2015.44 1825.76 2013.62 1822.22 Q2011.81 1818.65 2008.18 1818.65 M2008.18 1814.95 Q2013.99 1814.95 2017.04 1819.55 Q2020.12 1824.14 2020.12 1832.89 Q2020.12 1841.61 2017.04 1846.22 Q2013.99 1850.8 2008.18 1850.8 Q2002.37 1850.8 1999.29 1846.22 Q1996.23 1841.61 1996.23 1832.89 Q1996.23 1824.14 1999.29 1819.55 Q2002.37 1814.95 2008.18 1814.95 Z" fill="#000000" fill-rule="nonzero" fill-opacity="1" /><path clip-path="url(#clip030)" d="M1207.09 1882.81 Q1207.09 1884.62 1205.96 1885.65 Q1204.83 1886.65 1203.54 1886.65 Q1202.32 1886.65 1201.68 1885.94 Q1201.03 1885.23 1201.03 1884.33 Q1201.03 1883.1 1201.93 1882.04 Q1202.84 1880.98 1204.19 1880.75 Q1202.87 1879.91 1200.9 1879.91 Q1199.62 1879.91 1198.49 1880.59 Q1197.39 1881.27 1196.72 1882.14 Q1196.07 1883.01 1195.49 1884.26 Q1194.95 1885.49 1194.72 1886.23 Q1194.53 1886.94 1194.37 1887.71 L1192.11 1896.73 Q1191.02 1901.01 1191.02 1902.52 Q1191.02 1904.39 1191.92 1905.65 Q1192.82 1906.87 1194.62 1906.87 Q1195.33 1906.87 1196.14 1906.68 Q1196.94 1906.45 1197.97 1905.87 Q1199.04 1905.26 1199.97 1904.36 Q1200.94 1903.43 1201.87 1901.85 Q1202.8 1900.27 1203.42 1898.24 Q1203.61 1897.53 1204.25 1897.53 Q1205.06 1897.53 1205.06 1898.18 Q1205.06 1898.72 1204.61 1899.88 Q1204.19 1901.01 1203.25 1902.49 Q1202.35 1903.94 1201.16 1905.26 Q1199.97 1906.55 1198.2 1907.45 Q1196.43 1908.35 1194.49 1908.35 Q1191.72 1908.35 1189.89 1906.87 Q1188.05 1905.39 1187.38 1903.33 Q1187.22 1903.62 1186.99 1904 Q1186.77 1904.39 1186.09 1905.26 Q1185.44 1906.1 1184.7 1906.74 Q1183.96 1907.35 1182.8 1907.84 Q1181.68 1908.35 1180.45 1908.35 Q1178.91 1908.35 1177.52 1907.9 Q1176.17 1907.45 1175.2 1906.42 Q1174.24 1905.39 1174.24 1903.97 Q1174.24 1902.39 1175.3 1901.3 Q1176.39 1900.17 1177.88 1900.17 Q1178.81 1900.17 1179.55 1900.72 Q1180.32 1901.27 1180.32 1902.46 Q1180.32 1903.78 1179.42 1904.78 Q1178.52 1905.78 1177.23 1906.03 Q1178.55 1906.87 1180.52 1906.87 Q1182.64 1906.87 1184.32 1905 Q1185.99 1903.14 1186.8 1900.01 Q1188.79 1892.51 1189.57 1889.16 Q1190.34 1885.78 1190.34 1884.33 Q1190.34 1882.97 1189.99 1882.04 Q1189.63 1881.11 1189.02 1880.69 Q1188.44 1880.24 1187.89 1880.08 Q1187.38 1879.91 1186.8 1879.91 Q1185.83 1879.91 1184.74 1880.3 Q1183.67 1880.69 1182.39 1881.59 Q1181.13 1882.46 1179.94 1884.26 Q1178.75 1886.07 1177.94 1888.55 Q1177.78 1889.29 1177.07 1889.29 Q1176.3 1889.25 1176.3 1888.61 Q1176.3 1888.06 1176.72 1886.94 Q1177.17 1885.78 1178.07 1884.33 Q1179 1882.88 1180.2 1881.59 Q1181.42 1880.27 1183.19 1879.37 Q1184.99 1878.47 1186.93 1878.47 Q1187.8 1878.47 1188.63 1878.66 Q1189.5 1878.82 1190.53 1879.3 Q1191.6 1879.79 1192.53 1880.85 Q1193.46 1881.91 1194.04 1883.46 Q1194.43 1882.72 1194.95 1882.01 Q1195.49 1881.3 1196.33 1880.43 Q1197.2 1879.53 1198.39 1879.01 Q1199.62 1878.47 1200.97 1878.47 Q1202.29 1878.47 1203.58 1878.82 Q1204.86 1879.14 1205.96 1880.2 Q1207.09 1881.24 1207.09 1882.81 Z" fill="#000000" fill-rule="nonzero" fill-opacity="1" /><path clip-path="url(#clip030)" d="M1213.8 1900.26 L1213.8 1898.82 Q1219.35 1898.82 1222.21 1895.87 Q1223 1895.87 1223.14 1896.05 Q1223.27 1896.23 1223.27 1897.06 L1223.27 1922.97 Q1223.27 1924.34 1223.95 1924.77 Q1224.63 1925.2 1227.58 1925.2 L1229.04 1925.2 L1229.04 1926.62 Q1227.42 1926.48 1221.56 1926.48 Q1215.7 1926.48 1214.1 1926.62 L1214.1 1925.2 L1215.56 1925.2 Q1218.47 1925.2 1219.17 1924.79 Q1219.87 1924.36 1219.87 1922.97 L1219.87 1899.05 Q1217.46 1900.26 1213.8 1900.26 Z" fill="#000000" fill-rule="nonzero" fill-opacity="1" /><polyline clip-path="url(#clip030)" style="stroke:#000000; stroke-linecap:round; stroke-linejoin:round; stroke-width:4; stroke-opacity:1; fill:none" points="257.415,1789.33 257.415,145.465 "/>
<polyline clip-path="url(#clip030)" style="stroke:#000000; stroke-linecap:round; stroke-linejoin:round; stroke-width:4; stroke-opacity:1; fill:none" points="257.415,1764.82 276.312,1764.82 "/>
<polyline clip-path="url(#clip030)" style="stroke:#000000; stroke-linecap:round; stroke-linejoin:round; stroke-width:4; stroke-opacity:1; fill:none" points="257.415,1367.36 276.312,1367.36 "/>
<polyline clip-path="url(#clip030)" style="stroke:#000000; stroke-linecap:round; stroke-linejoin:round; stroke-width:4; stroke-opacity:1; fill:none" points="257.415,969.897 276.312,969.897 "/>
<polyline clip-path="url(#clip030)" style="stroke:#000000; stroke-linecap:round; stroke-linejoin:round; stroke-width:4; stroke-opacity:1; fill:none" points="257.415,572.435 276.312,572.435 "/>
<polyline clip-path="url(#clip030)" style="stroke:#000000; stroke-linecap:round; stroke-linejoin:round; stroke-width:4; stroke-opacity:1; fill:none" points="257.415,174.973 276.312,174.973 "/>
<path clip-path="url(#clip030)" d="M132.54 1765.27 L162.216 1765.27 L162.216 1769.21 L132.54 1769.21 L132.54 1765.27 Z" fill="#000000" fill-rule="nonzero" fill-opacity="1" /><path clip-path="url(#clip030)" d="M173.119 1778.17 L180.757 1778.17 L180.757 1751.8 L172.447 1753.47 L172.447 1749.21 L180.711 1747.54 L185.387 1747.54 L185.387 1778.17 L193.026 1778.17 L193.026 1782.1 L173.119 1782.1 L173.119 1778.17 Z" fill="#000000" fill-rule="nonzero" fill-opacity="1" /><path clip-path="url(#clip030)" d="M212.47 1750.62 Q208.859 1750.62 207.03 1754.18 Q205.225 1757.73 205.225 1764.86 Q205.225 1771.96 207.03 1775.53 Q208.859 1779.07 212.47 1779.07 Q216.105 1779.07 217.91 1775.53 Q219.739 1771.96 219.739 1764.86 Q219.739 1757.73 217.91 1754.18 Q216.105 1750.62 212.47 1750.62 M212.47 1746.92 Q218.28 1746.92 221.336 1751.52 Q224.415 1756.11 224.415 1764.86 Q224.415 1773.58 221.336 1778.19 Q218.28 1782.77 212.47 1782.77 Q206.66 1782.77 203.581 1778.19 Q200.526 1773.58 200.526 1764.86 Q200.526 1756.11 203.581 1751.52 Q206.66 1746.92 212.47 1746.92 Z" fill="#000000" fill-rule="nonzero" fill-opacity="1" /><path clip-path="url(#clip030)" d="M163.697 1367.81 L193.373 1367.81 L193.373 1371.75 L163.697 1371.75 L163.697 1367.81 Z" fill="#000000" fill-rule="nonzero" fill-opacity="1" /><path clip-path="url(#clip030)" d="M203.512 1350.08 L221.868 1350.08 L221.868 1354.01 L207.794 1354.01 L207.794 1362.49 Q208.813 1362.14 209.831 1361.98 Q210.85 1361.79 211.868 1361.79 Q217.655 1361.79 221.035 1364.96 Q224.415 1368.13 224.415 1373.55 Q224.415 1379.13 220.942 1382.23 Q217.47 1385.31 211.151 1385.31 Q208.975 1385.31 206.706 1384.94 Q204.461 1384.57 202.054 1383.83 L202.054 1379.13 Q204.137 1380.26 206.359 1380.82 Q208.581 1381.37 211.058 1381.37 Q215.063 1381.37 217.401 1379.27 Q219.739 1377.16 219.739 1373.55 Q219.739 1369.94 217.401 1367.83 Q215.063 1365.73 211.058 1365.73 Q209.183 1365.73 207.308 1366.14 Q205.456 1366.56 203.512 1367.44 L203.512 1350.08 Z" fill="#000000" fill-rule="nonzero" fill-opacity="1" /><path clip-path="url(#clip030)" d="M212.47 955.696 Q208.859 955.696 207.03 959.26 Q205.225 962.802 205.225 969.932 Q205.225 977.038 207.03 980.603 Q208.859 984.144 212.47 984.144 Q216.105 984.144 217.91 980.603 Q219.739 977.038 219.739 969.932 Q219.739 962.802 217.91 959.26 Q216.105 955.696 212.47 955.696 M212.47 951.992 Q218.28 951.992 221.336 956.598 Q224.415 961.182 224.415 969.932 Q224.415 978.658 221.336 983.265 Q218.28 987.848 212.47 987.848 Q206.66 987.848 203.581 983.265 Q200.526 978.658 200.526 969.932 Q200.526 961.182 203.581 956.598 Q206.66 951.992 212.47 951.992 Z" fill="#000000" fill-rule="nonzero" fill-opacity="1" /><path clip-path="url(#clip030)" d="M203.512 555.155 L221.868 555.155 L221.868 559.09 L207.794 559.09 L207.794 567.562 Q208.813 567.215 209.831 567.053 Q210.85 566.868 211.868 566.868 Q217.655 566.868 221.035 570.039 Q224.415 573.21 224.415 578.627 Q224.415 584.206 220.942 587.307 Q217.47 590.386 211.151 590.386 Q208.975 590.386 206.706 590.016 Q204.461 589.645 202.054 588.905 L202.054 584.206 Q204.137 585.34 206.359 585.895 Q208.581 586.451 211.058 586.451 Q215.063 586.451 217.401 584.345 Q219.739 582.238 219.739 578.627 Q219.739 575.016 217.401 572.909 Q215.063 570.803 211.058 570.803 Q209.183 570.803 207.308 571.22 Q205.456 571.636 203.512 572.516 L203.512 555.155 Z" fill="#000000" fill-rule="nonzero" fill-opacity="1" /><path clip-path="url(#clip030)" d="M173.119 188.318 L180.757 188.318 L180.757 161.952 L172.447 163.619 L172.447 159.36 L180.711 157.693 L185.387 157.693 L185.387 188.318 L193.026 188.318 L193.026 192.253 L173.119 192.253 L173.119 188.318 Z" fill="#000000" fill-rule="nonzero" fill-opacity="1" /><path clip-path="url(#clip030)" d="M212.47 160.772 Q208.859 160.772 207.03 164.336 Q205.225 167.878 205.225 175.008 Q205.225 182.114 207.03 185.679 Q208.859 189.221 212.47 189.221 Q216.105 189.221 217.91 185.679 Q219.739 182.114 219.739 175.008 Q219.739 167.878 217.91 164.336 Q216.105 160.772 212.47 160.772 M212.47 157.068 Q218.28 157.068 221.336 161.674 Q224.415 166.258 224.415 175.008 Q224.415 183.734 221.336 188.341 Q218.28 192.924 212.47 192.924 Q206.66 192.924 203.581 188.341 Q200.526 183.734 200.526 175.008 Q200.526 166.258 203.581 161.674 Q206.66 157.068 212.47 157.068 Z" fill="#000000" fill-rule="nonzero" fill-opacity="1" /><path clip-path="url(#clip030)" d="M51.157 966.981 Q52.9605 966.981 53.9911 968.108 Q54.9895 969.236 54.9895 970.524 Q54.9895 971.748 54.281 972.392 Q53.5725 973.036 52.6707 973.036 Q51.4469 973.036 50.3841 972.134 Q49.3213 971.232 49.0958 969.88 Q48.2585 971.2 48.2585 973.165 Q48.2585 974.453 48.9348 975.58 Q49.6111 976.675 50.4807 977.351 Q51.3502 977.996 52.6063 978.575 Q53.8301 979.123 54.5708 979.348 Q55.2794 979.541 56.0523 979.702 L65.0699 981.957 Q69.3533 983.052 70.867 983.052 Q72.7349 983.052 73.991 982.15 Q75.2148 981.248 75.2148 979.445 Q75.2148 978.736 75.0216 977.931 Q74.7961 977.126 74.2164 976.095 Q73.6045 975.033 72.7027 974.099 Q71.7688 973.132 70.1907 972.198 Q68.6126 971.264 66.5836 970.653 Q65.8751 970.459 65.8751 969.815 Q65.8751 969.01 66.5192 969.01 Q67.0667 969.01 68.2261 969.461 Q69.3533 969.88 70.8348 970.814 Q72.2841 971.715 73.6045 972.907 Q74.8927 974.099 75.7945 975.87 Q76.6963 977.641 76.6963 979.574 Q76.6963 982.343 75.2148 984.179 Q73.7333 986.015 71.6721 986.691 Q71.962 986.852 72.3485 987.078 Q72.7349 987.303 73.6045 987.979 Q74.4419 988.623 75.086 989.364 Q75.6979 990.105 76.181 991.264 Q76.6963 992.392 76.6963 993.615 Q76.6963 995.161 76.2454 996.546 Q75.7945 997.899 74.7639 998.865 Q73.7333 999.831 72.3163 999.831 Q70.7382 999.831 69.6432 998.768 Q68.516 997.673 68.516 996.192 Q68.516 995.258 69.0635 994.517 Q69.611 993.744 70.8026 993.744 Q72.123 993.744 73.1214 994.646 Q74.1198 995.548 74.3774 996.836 Q75.2148 995.516 75.2148 993.551 Q75.2148 991.425 73.3469 989.751 Q71.4789 988.076 68.3549 987.271 Q60.851 985.274 57.5016 984.501 Q54.12 983.728 52.6707 983.728 Q51.318 983.728 50.3841 984.082 Q49.4501 984.437 49.0314 985.049 Q48.5805 985.628 48.4195 986.176 Q48.2585 986.691 48.2585 987.271 Q48.2585 988.237 48.645 989.332 Q49.0314 990.395 49.9332 991.683 Q50.8027 992.939 52.6063 994.131 Q54.4098 995.322 56.8897 996.127 Q57.6304 996.288 57.6304 996.997 Q57.5982 997.77 56.9541 997.77 Q56.4066 997.77 55.2794 997.351 Q54.12 996.9 52.6707 995.999 Q51.2214 995.065 49.9332 993.873 Q48.6128 992.649 47.711 990.878 Q46.8092 989.074 46.8092 987.142 Q46.8092 986.272 47.0025 985.435 Q47.1635 984.566 47.6466 983.535 Q48.1297 982.472 49.1925 981.538 Q50.2552 980.604 51.8011 980.024 Q51.0604 979.638 50.3519 979.123 Q49.6433 978.575 48.7738 977.738 Q47.872 976.868 47.3567 975.677 Q46.8092 974.453 46.8092 973.1 Q46.8092 971.78 47.1635 970.492 Q47.4855 969.203 48.5483 968.108 Q49.5789 966.981 51.157 966.981 Z" fill="#000000" fill-rule="nonzero" fill-opacity="1" /><path clip-path="url(#clip030)" d="M94.9615 960.264 Q94.1273 960.264 93.8793 960.196 Q93.6314 960.106 93.2481 959.745 L83.3738 950.885 Q77.9181 946.038 73.1613 946.038 Q70.0728 946.038 67.8635 947.662 Q65.6541 949.262 65.6541 952.216 Q65.6541 954.244 66.8941 955.958 Q68.134 957.671 70.3433 958.46 Q70.2982 958.325 70.2982 957.852 Q70.2982 956.702 71.0196 956.071 Q71.741 955.417 72.7104 955.417 Q73.9504 955.417 74.5591 956.228 Q75.1452 957.017 75.1452 957.806 Q75.1452 958.122 75.0776 958.55 Q75.0099 958.956 74.3787 959.61 Q73.7249 960.264 72.5752 960.264 Q69.3514 960.264 66.7813 957.829 Q64.2113 955.372 64.2113 951.629 Q64.2113 947.391 66.7362 944.618 Q69.2386 941.823 73.1613 941.823 Q74.5365 941.823 75.799 942.251 Q77.0389 942.657 78.0083 943.22 Q78.9777 943.761 80.5332 945.249 Q82.0888 946.737 83.1934 947.932 Q84.2981 949.127 86.6427 951.81 L91.3995 956.702 L91.3995 948.383 Q91.3995 944.325 91.0388 944.009 Q90.385 943.559 86.9358 942.995 L86.9358 941.823 L94.9615 943.13 L94.9615 960.264 Z" fill="#000000" fill-rule="nonzero" fill-opacity="1" /><path clip-path="url(#clip030)" d="M793.655 18.8205 L793.655 65.8515 L803.539 65.8515 Q816.057 65.8515 821.849 60.1802 Q827.683 54.509 827.683 42.2752 Q827.683 30.1225 821.849 24.4918 Q816.057 18.8205 803.539 18.8205 L793.655 18.8205 M785.472 12.096 L802.284 12.096 Q819.865 12.096 828.088 19.4281 Q836.311 26.7198 836.311 42.2752 Q836.311 57.9117 828.047 65.2439 Q819.784 72.576 802.284 72.576 L785.472 72.576 L785.472 12.096 Z" fill="#000000" fill-rule="nonzero" fill-opacity="1" /><path clip-path="url(#clip030)" d="M869.65 49.7694 Q860.617 49.7694 857.133 51.8354 Q853.649 53.9013 853.649 58.8839 Q853.649 62.8538 856.242 65.2034 Q858.875 67.5124 863.371 67.5124 Q869.569 67.5124 873.296 63.1374 Q877.063 58.7219 877.063 51.4303 L877.063 49.7694 L869.65 49.7694 M884.517 46.6907 L884.517 72.576 L877.063 72.576 L877.063 65.6895 Q874.511 69.8214 870.703 71.8063 Q866.896 73.7508 861.386 73.7508 Q854.419 73.7508 850.287 69.8619 Q846.195 65.9325 846.195 59.3701 Q846.195 51.7138 851.3 47.825 Q856.444 43.9361 866.612 43.9361 L877.063 43.9361 L877.063 43.2069 Q877.063 38.0623 873.661 35.2672 Q870.298 32.4315 864.181 32.4315 Q860.293 32.4315 856.606 33.3632 Q852.92 34.295 849.517 36.1584 L849.517 29.2718 Q853.609 27.692 857.457 26.9223 Q861.305 26.1121 864.951 26.1121 Q874.795 26.1121 879.656 31.2163 Q884.517 36.3204 884.517 46.6907 Z" fill="#000000" fill-rule="nonzero" fill-opacity="1" /><path clip-path="url(#clip030)" d="M907.243 14.324 L907.243 27.2059 L922.595 27.2059 L922.595 32.9987 L907.243 32.9987 L907.243 57.6282 Q907.243 63.1779 908.741 64.7578 Q910.281 66.3376 914.939 66.3376 L922.595 66.3376 L922.595 72.576 L914.939 72.576 Q906.311 72.576 903.03 69.3758 Q899.748 66.1351 899.748 57.6282 L899.748 32.9987 L894.28 32.9987 L894.28 27.2059 L899.748 27.2059 L899.748 14.324 L907.243 14.324 Z" fill="#000000" fill-rule="nonzero" fill-opacity="1" /><path clip-path="url(#clip030)" d="M953.018 49.7694 Q943.984 49.7694 940.5 51.8354 Q937.017 53.9013 937.017 58.8839 Q937.017 62.8538 939.609 65.2034 Q942.242 67.5124 946.739 67.5124 Q952.937 67.5124 956.664 63.1374 Q960.431 58.7219 960.431 51.4303 L960.431 49.7694 L953.018 49.7694 M967.885 46.6907 L967.885 72.576 L960.431 72.576 L960.431 65.6895 Q957.879 69.8214 954.071 71.8063 Q950.263 73.7508 944.754 73.7508 Q937.786 73.7508 933.654 69.8619 Q929.563 65.9325 929.563 59.3701 Q929.563 51.7138 934.667 47.825 Q939.812 43.9361 949.98 43.9361 L960.431 43.9361 L960.431 43.2069 Q960.431 38.0623 957.028 35.2672 Q953.666 32.4315 947.549 32.4315 Q943.66 32.4315 939.974 33.3632 Q936.288 34.295 932.885 36.1584 L932.885 29.2718 Q936.976 27.692 940.825 26.9223 Q944.673 26.1121 948.319 26.1121 Q958.162 26.1121 963.024 31.2163 Q967.885 36.3204 967.885 46.6907 Z" fill="#000000" fill-rule="nonzero" fill-opacity="1" /><path clip-path="url(#clip030)" d="M1030.23 49.7694 Q1021.19 49.7694 1017.71 51.8354 Q1014.23 53.9013 1014.23 58.8839 Q1014.23 62.8538 1016.82 65.2034 Q1019.45 67.5124 1023.95 67.5124 Q1030.15 67.5124 1033.87 63.1374 Q1037.64 58.7219 1037.64 51.4303 L1037.64 49.7694 L1030.23 49.7694 M1045.09 46.6907 L1045.09 72.576 L1037.64 72.576 L1037.64 65.6895 Q1035.09 69.8214 1031.28 71.8063 Q1027.47 73.7508 1021.96 73.7508 Q1015 73.7508 1010.86 69.8619 Q1006.77 65.9325 1006.77 59.3701 Q1006.77 51.7138 1011.88 47.825 Q1017.02 43.9361 1027.19 43.9361 L1037.64 43.9361 L1037.64 43.2069 Q1037.64 38.0623 1034.24 35.2672 Q1030.88 32.4315 1024.76 32.4315 Q1020.87 32.4315 1017.18 33.3632 Q1013.5 34.295 1010.1 36.1584 L1010.1 29.2718 Q1014.19 27.692 1018.03 26.9223 Q1021.88 26.1121 1025.53 26.1121 Q1035.37 26.1121 1040.23 31.2163 Q1045.09 36.3204 1045.09 46.6907 Z" fill="#000000" fill-rule="nonzero" fill-opacity="1" /><path clip-path="url(#clip030)" d="M1098.16 45.1919 L1098.16 72.576 L1090.71 72.576 L1090.71 45.4349 Q1090.71 38.994 1088.2 35.7938 Q1085.68 32.5936 1080.66 32.5936 Q1074.63 32.5936 1071.14 36.4419 Q1067.66 40.2903 1067.66 46.9338 L1067.66 72.576 L1060.16 72.576 L1060.16 27.2059 L1067.66 27.2059 L1067.66 34.2544 Q1070.33 30.163 1073.94 28.1376 Q1077.58 26.1121 1082.32 26.1121 Q1090.14 26.1121 1094.15 30.9732 Q1098.16 35.7938 1098.16 45.1919 Z" fill="#000000" fill-rule="nonzero" fill-opacity="1" /><path clip-path="url(#clip030)" d="M1142.88 34.0924 L1142.88 9.54393 L1150.34 9.54393 L1150.34 72.576 L1142.88 72.576 L1142.88 65.7705 Q1140.53 69.8214 1136.93 71.8063 Q1133.36 73.7508 1128.34 73.7508 Q1120.12 73.7508 1114.93 67.1883 Q1109.79 60.6258 1109.79 49.9314 Q1109.79 39.2371 1114.93 32.6746 Q1120.12 26.1121 1128.34 26.1121 Q1133.36 26.1121 1136.93 28.0971 Q1140.53 30.0415 1142.88 34.0924 M1117.48 49.9314 Q1117.48 58.1548 1120.85 62.8538 Q1124.25 67.5124 1130.16 67.5124 Q1136.08 67.5124 1139.48 62.8538 Q1142.88 58.1548 1142.88 49.9314 Q1142.88 41.7081 1139.48 37.0496 Q1136.08 32.3505 1130.16 32.3505 Q1124.25 32.3505 1120.85 37.0496 Q1117.48 41.7081 1117.48 49.9314 Z" fill="#000000" fill-rule="nonzero" fill-opacity="1" /><path clip-path="url(#clip030)" d="M1228.64 14.0809 L1228.64 22.0612 Q1223.98 19.8332 1219.85 18.7395 Q1215.72 17.6457 1211.87 17.6457 Q1205.19 17.6457 1201.54 20.2383 Q1197.94 22.8309 1197.94 27.611 Q1197.94 31.6214 1200.33 33.6873 Q1202.76 35.7128 1209.48 36.9686 L1214.42 37.9813 Q1223.58 39.7232 1227.91 44.1387 Q1232.29 48.5136 1232.29 55.8863 Q1232.29 64.6767 1226.37 69.2137 Q1220.5 73.7508 1209.12 73.7508 Q1204.82 73.7508 1199.96 72.7785 Q1195.14 71.8063 1189.96 69.9024 L1189.96 61.4765 Q1194.94 64.2716 1199.72 65.6895 Q1204.5 67.1073 1209.12 67.1073 Q1216.12 67.1073 1219.93 64.3527 Q1223.74 61.598 1223.74 56.4939 Q1223.74 52.0379 1220.99 49.5264 Q1218.27 47.0148 1212.03 45.759 L1207.05 44.7868 Q1197.89 42.9639 1193.8 39.075 Q1189.71 35.1862 1189.71 28.2591 Q1189.71 20.2383 1195.34 15.6203 Q1201.01 11.0023 1210.94 11.0023 Q1215.19 11.0023 1219.61 11.7719 Q1224.02 12.5416 1228.64 14.0809 Z" fill="#000000" fill-rule="nonzero" fill-opacity="1" /><path clip-path="url(#clip030)" d="M1243.95 54.671 L1243.95 27.2059 L1251.41 27.2059 L1251.41 54.3874 Q1251.41 60.8284 1253.92 64.0691 Q1256.43 67.2693 1261.45 67.2693 Q1267.49 67.2693 1270.97 63.421 Q1274.5 59.5726 1274.5 52.9291 L1274.5 27.2059 L1281.95 27.2059 L1281.95 72.576 L1274.5 72.576 L1274.5 65.6084 Q1271.78 69.7404 1268.18 71.7658 Q1264.61 73.7508 1259.87 73.7508 Q1252.06 73.7508 1248 68.8897 Q1243.95 64.0286 1243.95 54.671 M1262.71 26.1121 L1262.71 26.1121 Z" fill="#000000" fill-rule="nonzero" fill-opacity="1" /><path clip-path="url(#clip030)" d="M1329.87 49.9314 Q1329.87 41.7081 1326.47 37.0496 Q1323.11 32.3505 1317.19 32.3505 Q1311.28 32.3505 1307.88 37.0496 Q1304.51 41.7081 1304.51 49.9314 Q1304.51 58.1548 1307.88 62.8538 Q1311.28 67.5124 1317.19 67.5124 Q1323.11 67.5124 1326.47 62.8538 Q1329.87 58.1548 1329.87 49.9314 M1304.51 34.0924 Q1306.86 30.0415 1310.43 28.0971 Q1314.03 26.1121 1319.02 26.1121 Q1327.28 26.1121 1332.43 32.6746 Q1337.61 39.2371 1337.61 49.9314 Q1337.61 60.6258 1332.43 67.1883 Q1327.28 73.7508 1319.02 73.7508 Q1314.03 73.7508 1310.43 71.8063 Q1306.86 69.8214 1304.51 65.7705 L1304.51 72.576 L1297.02 72.576 L1297.02 9.54393 L1304.51 9.54393 L1304.51 34.0924 Z" fill="#000000" fill-rule="nonzero" fill-opacity="1" /><path clip-path="url(#clip030)" d="M1378.89 28.5427 L1378.89 35.5912 Q1375.73 33.9709 1372.33 33.1607 Q1368.92 32.3505 1365.28 32.3505 Q1359.73 32.3505 1356.93 34.0519 Q1354.18 35.7533 1354.18 39.156 Q1354.18 41.7486 1356.16 43.2475 Q1358.15 44.7058 1364.14 46.0426 L1366.7 46.6097 Q1374.64 48.3111 1377.96 51.4303 Q1381.32 54.509 1381.32 60.0587 Q1381.32 66.3781 1376.3 70.0644 Q1371.31 73.7508 1362.56 73.7508 Q1358.92 73.7508 1354.95 73.0216 Q1351.02 72.3329 1346.64 70.9151 L1346.64 63.2184 Q1350.78 65.3654 1354.79 66.4591 Q1358.8 67.5124 1362.73 67.5124 Q1367.99 67.5124 1370.83 65.73 Q1373.66 63.9071 1373.66 60.6258 Q1373.66 57.5877 1371.6 55.9673 Q1369.57 54.3469 1362.65 52.8481 L1360.05 52.2405 Q1353.13 50.7821 1350.05 47.7845 Q1346.97 44.7463 1346.97 39.4801 Q1346.97 33.0797 1351.51 29.5959 Q1356.04 26.1121 1364.39 26.1121 Q1368.52 26.1121 1372.16 26.7198 Q1375.81 27.3274 1378.89 28.5427 Z" fill="#000000" fill-rule="nonzero" fill-opacity="1" /><path clip-path="url(#clip030)" d="M1400.4 65.7705 L1400.4 89.8329 L1392.91 89.8329 L1392.91 27.2059 L1400.4 27.2059 L1400.4 34.0924 Q1402.75 30.0415 1406.31 28.0971 Q1409.92 26.1121 1414.9 26.1121 Q1423.17 26.1121 1428.31 32.6746 Q1433.5 39.2371 1433.5 49.9314 Q1433.5 60.6258 1428.31 67.1883 Q1423.17 73.7508 1414.9 73.7508 Q1409.92 73.7508 1406.31 71.8063 Q1402.75 69.8214 1400.4 65.7705 M1425.76 49.9314 Q1425.76 41.7081 1422.36 37.0496 Q1418.99 32.3505 1413.08 32.3505 Q1407.16 32.3505 1403.76 37.0496 Q1400.4 41.7081 1400.4 49.9314 Q1400.4 58.1548 1403.76 62.8538 Q1407.16 67.5124 1413.08 67.5124 Q1418.99 67.5124 1422.36 62.8538 Q1425.76 58.1548 1425.76 49.9314 Z" fill="#000000" fill-rule="nonzero" fill-opacity="1" /><path clip-path="url(#clip030)" d="M1466.47 49.7694 Q1457.44 49.7694 1453.95 51.8354 Q1450.47 53.9013 1450.47 58.8839 Q1450.47 62.8538 1453.06 65.2034 Q1455.69 67.5124 1460.19 67.5124 Q1466.39 67.5124 1470.12 63.1374 Q1473.88 58.7219 1473.88 51.4303 L1473.88 49.7694 L1466.47 49.7694 M1481.34 46.6907 L1481.34 72.576 L1473.88 72.576 L1473.88 65.6895 Q1471.33 69.8214 1467.52 71.8063 Q1463.72 73.7508 1458.21 73.7508 Q1451.24 73.7508 1447.11 69.8619 Q1443.02 65.9325 1443.02 59.3701 Q1443.02 51.7138 1448.12 47.825 Q1453.26 43.9361 1463.43 43.9361 L1473.88 43.9361 L1473.88 43.2069 Q1473.88 38.0623 1470.48 35.2672 Q1467.12 32.4315 1461 32.4315 Q1457.11 32.4315 1453.43 33.3632 Q1449.74 34.295 1446.34 36.1584 L1446.34 29.2718 Q1450.43 27.692 1454.28 26.9223 Q1458.13 26.1121 1461.77 26.1121 Q1471.61 26.1121 1476.48 31.2163 Q1481.34 36.3204 1481.34 46.6907 Z" fill="#000000" fill-rule="nonzero" fill-opacity="1" /><path clip-path="url(#clip030)" d="M1529.34 28.9478 L1529.34 35.9153 Q1526.18 34.1734 1522.98 33.3227 Q1519.82 32.4315 1516.58 32.4315 Q1509.33 32.4315 1505.32 37.0496 Q1501.31 41.6271 1501.31 49.9314 Q1501.31 58.2358 1505.32 62.8538 Q1509.33 67.4314 1516.58 67.4314 Q1519.82 67.4314 1522.98 66.5807 Q1526.18 65.6895 1529.34 63.9476 L1529.34 70.8341 Q1526.22 72.2924 1522.86 73.0216 Q1519.54 73.7508 1515.77 73.7508 Q1505.52 73.7508 1499.48 67.3098 Q1493.45 60.8689 1493.45 49.9314 Q1493.45 38.832 1499.53 32.472 Q1505.64 26.1121 1516.26 26.1121 Q1519.7 26.1121 1522.98 26.8413 Q1526.26 27.5299 1529.34 28.9478 Z" fill="#000000" fill-rule="nonzero" fill-opacity="1" /><path clip-path="url(#clip030)" d="M1581.11 48.0275 L1581.11 51.6733 L1546.84 51.6733 Q1547.33 59.3701 1551.46 63.421 Q1555.63 67.4314 1563.04 67.4314 Q1567.34 67.4314 1571.35 66.3781 Q1575.4 65.3249 1579.37 63.2184 L1579.37 70.267 Q1575.36 71.9684 1571.15 72.8596 Q1566.93 73.7508 1562.6 73.7508 Q1551.74 73.7508 1545.38 67.4314 Q1539.06 61.1119 1539.06 50.3365 Q1539.06 39.1965 1545.06 32.6746 Q1551.09 26.1121 1561.3 26.1121 Q1570.46 26.1121 1575.76 32.0264 Q1581.11 37.9003 1581.11 48.0275 M1573.66 45.84 Q1573.58 39.7232 1570.21 36.0774 Q1566.89 32.4315 1561.38 32.4315 Q1555.14 32.4315 1551.38 35.9558 Q1547.65 39.4801 1547.08 45.8805 L1573.66 45.84 Z" fill="#000000" fill-rule="nonzero" fill-opacity="1" /><path clip-path="url(#clip030)" d="M1622.27 28.5427 L1622.27 35.5912 Q1619.11 33.9709 1615.71 33.1607 Q1612.3 32.3505 1608.66 32.3505 Q1603.11 32.3505 1600.31 34.0519 Q1597.56 35.7533 1597.56 39.156 Q1597.56 41.7486 1599.54 43.2475 Q1601.53 44.7058 1607.52 46.0426 L1610.07 46.6097 Q1618.01 48.3111 1621.34 51.4303 Q1624.7 54.509 1624.7 60.0587 Q1624.7 66.3781 1619.68 70.0644 Q1614.69 73.7508 1605.94 73.7508 Q1602.3 73.7508 1598.33 73.0216 Q1594.4 72.3329 1590.02 70.9151 L1590.02 63.2184 Q1594.15 65.3654 1598.16 66.4591 Q1602.18 67.5124 1606.1 67.5124 Q1611.37 67.5124 1614.21 65.73 Q1617.04 63.9071 1617.04 60.6258 Q1617.04 57.5877 1614.98 55.9673 Q1612.95 54.3469 1606.02 52.8481 L1603.43 52.2405 Q1596.5 50.7821 1593.43 47.7845 Q1590.35 44.7463 1590.35 39.4801 Q1590.35 33.0797 1594.88 29.5959 Q1599.42 26.1121 1607.77 26.1121 Q1611.9 26.1121 1615.54 26.7198 Q1619.19 27.3274 1622.27 28.5427 Z" fill="#000000" fill-rule="nonzero" fill-opacity="1" /><polyline clip-path="url(#clip031)" style="stroke:#009af9; stroke-linecap:round; stroke-linejoin:round; stroke-width:4; stroke-opacity:1; fill:none" points="444.035,1725.07 523.527,1645.58 603.02,1566.09 682.512,1486.6 762.004,1407.11 841.497,1327.61 920.989,1248.12 1000.48,1168.63 1079.97,1089.14 1159.47,1009.64 1238.96,930.151 1318.45,850.658 1397.94,771.166 1477.44,691.673 1556.93,612.181 1636.42,532.689 1715.91,453.196 1795.41,373.704 1874.9,294.211 1954.39,214.719 "/>
<polyline clip-path="url(#clip031)" style="stroke:#e26f46; stroke-linecap:round; stroke-linejoin:round; stroke-width:4; stroke-opacity:1; fill:none" points="444.035,214.719 523.527,294.211 603.02,373.704 682.512,453.196 762.004,532.689 841.497,612.181 920.989,691.673 1000.48,771.166 1079.97,850.658 1159.47,930.151 1238.96,1009.64 1318.45,1089.14 1397.94,1168.63 1477.44,1248.12 1556.93,1327.61 1636.42,1407.11 1715.91,1486.6 1795.41,1566.09 1874.9,1645.58 1954.39,1725.07 "/>
<circle clip-path="url(#clip031)" cx="470.424" cy="1711.54" r="18" fill="#009af9" fill-rule="evenodd" fill-opacity="1" stroke="none"/>
<circle clip-path="url(#clip031)" cx="570.851" cy="1593.71" r="18" fill="#009af9" fill-rule="evenodd" fill-opacity="1" stroke="none"/>
<circle clip-path="url(#clip031)" cx="631.393" cy="1529.81" r="18" fill="#009af9" fill-rule="evenodd" fill-opacity="1" stroke="none"/>
<circle clip-path="url(#clip031)" cx="628.958" cy="1535.47" r="18" fill="#009af9" fill-rule="evenodd" fill-opacity="1" stroke="none"/>
<circle clip-path="url(#clip031)" cx="743.794" cy="1369.39" r="18" fill="#009af9" fill-rule="evenodd" fill-opacity="1" stroke="none"/>
<circle clip-path="url(#clip031)" cx="830.465" cy="1375.12" r="18" fill="#009af9" fill-rule="evenodd" fill-opacity="1" stroke="none"/>
<circle clip-path="url(#clip031)" cx="849.492" cy="1277.88" r="18" fill="#009af9" fill-rule="evenodd" fill-opacity="1" stroke="none"/>
<circle clip-path="url(#clip031)" cx="993.43" cy="1153.88" r="18" fill="#009af9" fill-rule="evenodd" fill-opacity="1" stroke="none"/>
<circle clip-path="url(#clip031)" cx="1029.87" cy="1091.37" r="18" fill="#009af9" fill-rule="evenodd" fill-opacity="1" stroke="none"/>
<circle clip-path="url(#clip031)" cx="1171.54" cy="1001.39" r="18" fill="#009af9" fill-rule="evenodd" fill-opacity="1" stroke="none"/>
<circle clip-path="url(#clip031)" cx="1222.29" cy="965.557" r="18" fill="#009af9" fill-rule="evenodd" fill-opacity="1" stroke="none"/>
<circle clip-path="url(#clip031)" cx="1335.18" cy="850.725" r="18" fill="#009af9" fill-rule="evenodd" fill-opacity="1" stroke="none"/>
<circle clip-path="url(#clip031)" cx="1409.62" cy="790.721" r="18" fill="#009af9" fill-rule="evenodd" fill-opacity="1" stroke="none"/>
<circle clip-path="url(#clip031)" cx="1461.42" cy="820.343" r="18" fill="#009af9" fill-rule="evenodd" fill-opacity="1" stroke="none"/>
<circle clip-path="url(#clip031)" cx="1558.52" cy="731.314" r="18" fill="#009af9" fill-rule="evenodd" fill-opacity="1" stroke="none"/>
<circle clip-path="url(#clip031)" cx="1642.36" cy="502.113" r="18" fill="#009af9" fill-rule="evenodd" fill-opacity="1" stroke="none"/>
<circle clip-path="url(#clip031)" cx="1682.75" cy="488.821" r="18" fill="#009af9" fill-rule="evenodd" fill-opacity="1" stroke="none"/>
<circle clip-path="url(#clip031)" cx="1811.65" cy="366.344" r="18" fill="#009af9" fill-rule="evenodd" fill-opacity="1" stroke="none"/>
<circle clip-path="url(#clip031)" cx="1914.33" cy="268.31" r="18" fill="#009af9" fill-rule="evenodd" fill-opacity="1" stroke="none"/>
<circle clip-path="url(#clip031)" cx="1965.53" cy="193.621" r="18" fill="#009af9" fill-rule="evenodd" fill-opacity="1" stroke="none"/>
<circle clip-path="url(#clip031)" cx="469.249" cy="191.989" r="18" fill="#e26f46" fill-rule="evenodd" fill-opacity="1" stroke="none"/>
<circle clip-path="url(#clip031)" cx="504.001" cy="328.32" r="18" fill="#e26f46" fill-rule="evenodd" fill-opacity="1" stroke="none"/>
<circle clip-path="url(#clip031)" cx="597.35" cy="322.594" r="18" fill="#e26f46" fill-rule="evenodd" fill-opacity="1" stroke="none"/>
<circle clip-path="url(#clip031)" cx="667.61" cy="481.144" r="18" fill="#e26f46" fill-rule="evenodd" fill-opacity="1" stroke="none"/>
<circle clip-path="url(#clip031)" cx="768.785" cy="543.505" r="18" fill="#e26f46" fill-rule="evenodd" fill-opacity="1" stroke="none"/>
<circle clip-path="url(#clip031)" cx="875.968" cy="668.96" r="18" fill="#e26f46" fill-rule="evenodd" fill-opacity="1" stroke="none"/>
<circle clip-path="url(#clip031)" cx="925.302" cy="713.984" r="18" fill="#e26f46" fill-rule="evenodd" fill-opacity="1" stroke="none"/>
<circle clip-path="url(#clip031)" cx="1080.99" cy="773.589" r="18" fill="#e26f46" fill-rule="evenodd" fill-opacity="1" stroke="none"/>
<circle clip-path="url(#clip031)" cx="1029.7" cy="810.028" r="18" fill="#e26f46" fill-rule="evenodd" fill-opacity="1" stroke="none"/>
<circle clip-path="url(#clip031)" cx="1202.59" cy="914.023" r="18" fill="#e26f46" fill-rule="evenodd" fill-opacity="1" stroke="none"/>
<circle clip-path="url(#clip031)" cx="1261.88" cy="1054.98" r="18" fill="#e26f46" fill-rule="evenodd" fill-opacity="1" stroke="none"/>
<circle clip-path="url(#clip031)" cx="1316.04" cy="1113.89" r="18" fill="#e26f46" fill-rule="evenodd" fill-opacity="1" stroke="none"/>
<circle clip-path="url(#clip031)" cx="1406.66" cy="1194.95" r="18" fill="#e26f46" fill-rule="evenodd" fill-opacity="1" stroke="none"/>
<circle clip-path="url(#clip031)" cx="1431.95" cy="1172.02" r="18" fill="#e26f46" fill-rule="evenodd" fill-opacity="1" stroke="none"/>
<circle clip-path="url(#clip031)" cx="1528.72" cy="1268.73" r="18" fill="#e26f46" fill-rule="evenodd" fill-opacity="1" stroke="none"/>
<circle clip-path="url(#clip031)" cx="1580.56" cy="1356.54" r="18" fill="#e26f46" fill-rule="evenodd" fill-opacity="1" stroke="none"/>
<circle clip-path="url(#clip031)" cx="1799.97" cy="1525.14" r="18" fill="#e26f46" fill-rule="evenodd" fill-opacity="1" stroke="none"/>
<circle clip-path="url(#clip031)" cx="1799.16" cy="1601.18" r="18" fill="#e26f46" fill-rule="evenodd" fill-opacity="1" stroke="none"/>
<circle clip-path="url(#clip031)" cx="1897.33" cy="1630.64" r="18" fill="#e26f46" fill-rule="evenodd" fill-opacity="1" stroke="none"/>
<circle clip-path="url(#clip031)" cx="1966.14" cy="1742.81" r="18" fill="#e26f46" fill-rule="evenodd" fill-opacity="1" stroke="none"/>
</svg>
