<?xml version="1.0" encoding="utf-8"?>
<svg xmlns="http://www.w3.org/2000/svg" xmlns:xlink="http://www.w3.org/1999/xlink" width="600" height="400" viewBox="0 0 2400 1600">
<defs>
  <clipPath id="clip940">
    <rect x="0" y="0" width="2400" height="1600"/>
  </clipPath>
</defs>
<path clip-path="url(#clip940)" d="M0 1600 L2400 1600 L2400 0 L0 0  Z" fill="#ffffff" fill-rule="evenodd" fill-opacity="1"/>
<defs>
  <clipPath id="clip941">
    <rect x="209" y="47" width="2144" height="1338"/>
  </clipPath>
</defs>
<path clip-path="url(#clip940)" d="M209.638 1384.3 L2352.76 1384.3 L2352.76 47.2441 L209.638 47.2441  Z" fill="#ffffff" fill-rule="evenodd" fill-opacity="1"/>
<polyline clip-path="url(#clip941)" style="stroke:#000000; stroke-linecap:round; stroke-linejoin:round; stroke-width:2; stroke-opacity:0.1; fill:none" points="270.292,1384.3 270.292,47.2441 "/>
<polyline clip-path="url(#clip941)" style="stroke:#000000; stroke-linecap:round; stroke-linejoin:round; stroke-width:2; stroke-opacity:0.1; fill:none" points="472.473,1384.3 472.473,47.2441 "/>
<polyline clip-path="url(#clip941)" style="stroke:#000000; stroke-linecap:round; stroke-linejoin:round; stroke-width:2; stroke-opacity:0.1; fill:none" points="674.654,1384.3 674.654,47.2441 "/>
<polyline clip-path="url(#clip941)" style="stroke:#000000; stroke-linecap:round; stroke-linejoin:round; stroke-width:2; stroke-opacity:0.1; fill:none" points="876.835,1384.3 876.835,47.2441 "/>
<polyline clip-path="url(#clip941)" style="stroke:#000000; stroke-linecap:round; stroke-linejoin:round; stroke-width:2; stroke-opacity:0.1; fill:none" points="1079.02,1384.3 1079.02,47.2441 "/>
<polyline clip-path="url(#clip941)" style="stroke:#000000; stroke-linecap:round; stroke-linejoin:round; stroke-width:2; stroke-opacity:0.1; fill:none" points="1281.2,1384.3 1281.2,47.2441 "/>
<polyline clip-path="url(#clip941)" style="stroke:#000000; stroke-linecap:round; stroke-linejoin:round; stroke-width:2; stroke-opacity:0.1; fill:none" points="1483.38,1384.3 1483.38,47.2441 "/>
<polyline clip-path="url(#clip941)" style="stroke:#000000; stroke-linecap:round; stroke-linejoin:round; stroke-width:2; stroke-opacity:0.1; fill:none" points="1685.56,1384.3 1685.56,47.2441 "/>
<polyline clip-path="url(#clip941)" style="stroke:#000000; stroke-linecap:round; stroke-linejoin:round; stroke-width:2; stroke-opacity:0.1; fill:none" points="1887.74,1384.3 1887.74,47.2441 "/>
<polyline clip-path="url(#clip941)" style="stroke:#000000; stroke-linecap:round; stroke-linejoin:round; stroke-width:2; stroke-opacity:0.1; fill:none" points="2089.92,1384.3 2089.92,47.2441 "/>
<polyline clip-path="url(#clip941)" style="stroke:#000000; stroke-linecap:round; stroke-linejoin:round; stroke-width:2; stroke-opacity:0.1; fill:none" points="2292.1,1384.3 2292.1,47.2441 "/>
<polyline clip-path="url(#clip941)" style="stroke:#000000; stroke-linecap:round; stroke-linejoin:round; stroke-width:2; stroke-opacity:0.1; fill:none" points="209.638,1346.46 2352.76,1346.46 "/>
<polyline clip-path="url(#clip941)" style="stroke:#000000; stroke-linecap:round; stroke-linejoin:round; stroke-width:2; stroke-opacity:0.1; fill:none" points="209.638,1119.15 2352.76,1119.15 "/>
<polyline clip-path="url(#clip941)" style="stroke:#000000; stroke-linecap:round; stroke-linejoin:round; stroke-width:2; stroke-opacity:0.1; fill:none" points="209.638,891.851 2352.76,891.851 "/>
<polyline clip-path="url(#clip941)" style="stroke:#000000; stroke-linecap:round; stroke-linejoin:round; stroke-width:2; stroke-opacity:0.1; fill:none" points="209.638,664.547 2352.76,664.547 "/>
<polyline clip-path="url(#clip941)" style="stroke:#000000; stroke-linecap:round; stroke-linejoin:round; stroke-width:2; stroke-opacity:0.1; fill:none" points="209.638,437.243 2352.76,437.243 "/>
<polyline clip-path="url(#clip941)" style="stroke:#000000; stroke-linecap:round; stroke-linejoin:round; stroke-width:2; stroke-opacity:0.1; fill:none" points="209.638,209.939 2352.76,209.939 "/>
<polyline clip-path="url(#clip940)" style="stroke:#000000; stroke-linecap:round; stroke-linejoin:round; stroke-width:4; stroke-opacity:1; fill:none" points="209.638,1384.3 2352.76,1384.3 "/>
<polyline clip-path="url(#clip940)" style="stroke:#000000; stroke-linecap:round; stroke-linejoin:round; stroke-width:4; stroke-opacity:1; fill:none" points="270.292,1384.3 270.292,1365.4 "/>
<polyline clip-path="url(#clip940)" style="stroke:#000000; stroke-linecap:round; stroke-linejoin:round; stroke-width:4; stroke-opacity:1; fill:none" points="472.473,1384.3 472.473,1365.4 "/>
<polyline clip-path="url(#clip940)" style="stroke:#000000; stroke-linecap:round; stroke-linejoin:round; stroke-width:4; stroke-opacity:1; fill:none" points="674.654,1384.3 674.654,1365.4 "/>
<polyline clip-path="url(#clip940)" style="stroke:#000000; stroke-linecap:round; stroke-linejoin:round; stroke-width:4; stroke-opacity:1; fill:none" points="876.835,1384.3 876.835,1365.4 "/>
<polyline clip-path="url(#clip940)" style="stroke:#000000; stroke-linecap:round; stroke-linejoin:round; stroke-width:4; stroke-opacity:1; fill:none" points="1079.02,1384.3 1079.02,1365.4 "/>
<polyline clip-path="url(#clip940)" style="stroke:#000000; stroke-linecap:round; stroke-linejoin:round; stroke-width:4; stroke-opacity:1; fill:none" points="1281.2,1384.3 1281.2,1365.4 "/>
<polyline clip-path="url(#clip940)" style="stroke:#000000; stroke-linecap:round; stroke-linejoin:round; stroke-width:4; stroke-opacity:1; fill:none" points="1483.38,1384.3 1483.38,1365.4 "/>
<polyline clip-path="url(#clip940)" style="stroke:#000000; stroke-linecap:round; stroke-linejoin:round; stroke-width:4; stroke-opacity:1; fill:none" points="1685.56,1384.3 1685.56,1365.4 "/>
<polyline clip-path="url(#clip940)" style="stroke:#000000; stroke-linecap:round; stroke-linejoin:round; stroke-width:4; stroke-opacity:1; fill:none" points="1887.74,1384.3 1887.74,1365.4 "/>
<polyline clip-path="url(#clip940)" style="stroke:#000000; stroke-linecap:round; stroke-linejoin:round; stroke-width:4; stroke-opacity:1; fill:none" points="2089.92,1384.3 2089.92,1365.4 "/>
<polyline clip-path="url(#clip940)" style="stroke:#000000; stroke-linecap:round; stroke-linejoin:round; stroke-width:4; stroke-opacity:1; fill:none" points="2292.1,1384.3 2292.1,1365.4 "/>
<path clip-path="url(#clip940)" d="M270.292 1421.08 Q264.875 1421.08 262.132 1426.43 Q259.424 1431.74 259.424 1442.43 Q259.424 1453.09 262.132 1458.44 Q264.875 1463.75 270.292 1463.75 Q275.743 1463.75 278.452 1458.44 Q281.195 1453.09 281.195 1442.43 Q281.195 1431.74 278.452 1426.43 Q275.743 1421.08 270.292 1421.08 M270.292 1415.52 Q279.007 1415.52 283.591 1422.43 Q288.209 1429.31 288.209 1442.43 Q288.209 1455.52 283.591 1462.43 Q279.007 1469.31 270.292 1469.31 Q261.577 1469.31 256.959 1462.43 Q252.375 1455.52 252.375 1442.43 Q252.375 1429.31 256.959 1422.43 Q261.577 1415.52 270.292 1415.52 Z" fill="#000000" fill-rule="nonzero" fill-opacity="1" /><path clip-path="url(#clip940)" d="M434.504 1462.4 L445.963 1462.4 L445.963 1422.85 L433.497 1425.35 L433.497 1418.96 L445.893 1416.46 L452.907 1416.46 L452.907 1462.4 L464.365 1462.4 L464.365 1468.3 L434.504 1468.3 L434.504 1462.4 Z" fill="#000000" fill-rule="nonzero" fill-opacity="1" /><path clip-path="url(#clip940)" d="M493.532 1421.08 Q488.115 1421.08 485.372 1426.43 Q482.664 1431.74 482.664 1442.43 Q482.664 1453.09 485.372 1458.44 Q488.115 1463.75 493.532 1463.75 Q498.983 1463.75 501.692 1458.44 Q504.435 1453.09 504.435 1442.43 Q504.435 1431.74 501.692 1426.43 Q498.983 1421.08 493.532 1421.08 M493.532 1415.52 Q502.247 1415.52 506.83 1422.43 Q511.448 1429.31 511.448 1442.43 Q511.448 1455.52 506.83 1462.43 Q502.247 1469.31 493.532 1469.31 Q484.817 1469.31 480.199 1462.43 Q475.615 1455.52 475.615 1442.43 Q475.615 1429.31 480.199 1422.43 Q484.817 1415.52 493.532 1415.52 Z" fill="#000000" fill-rule="nonzero" fill-opacity="1" /><path clip-path="url(#clip940)" d="M642.814 1462.4 L667.293 1462.4 L667.293 1468.3 L634.376 1468.3 L634.376 1462.4 Q638.369 1458.27 645.244 1451.32 Q652.154 1444.34 653.925 1442.33 Q657.293 1438.54 658.612 1435.94 Q659.967 1433.3 659.967 1430.77 Q659.967 1426.63 657.05 1424.03 Q654.168 1421.43 649.515 1421.43 Q646.217 1421.43 642.536 1422.57 Q638.89 1423.72 634.724 1426.04 L634.724 1418.96 Q638.96 1417.26 642.64 1416.39 Q646.321 1415.52 649.376 1415.52 Q657.432 1415.52 662.223 1419.55 Q667.015 1423.58 667.015 1430.31 Q667.015 1433.51 665.8 1436.39 Q664.619 1439.24 661.46 1443.13 Q660.592 1444.13 655.939 1448.96 Q651.286 1453.75 642.814 1462.4 Z" fill="#000000" fill-rule="nonzero" fill-opacity="1" /><path clip-path="url(#clip940)" d="M697.015 1421.08 Q691.598 1421.08 688.855 1426.43 Q686.147 1431.74 686.147 1442.43 Q686.147 1453.09 688.855 1458.44 Q691.598 1463.75 697.015 1463.75 Q702.466 1463.75 705.175 1458.44 Q707.918 1453.09 707.918 1442.43 Q707.918 1431.74 705.175 1426.43 Q702.466 1421.08 697.015 1421.08 M697.015 1415.52 Q705.73 1415.52 710.313 1422.43 Q714.932 1429.31 714.932 1442.43 Q714.932 1455.52 710.313 1462.43 Q705.73 1469.31 697.015 1469.31 Q688.3 1469.31 683.682 1462.43 Q679.098 1455.52 679.098 1442.43 Q679.098 1429.31 683.682 1422.43 Q688.3 1415.52 697.015 1415.52 Z" fill="#000000" fill-rule="nonzero" fill-opacity="1" /><path clip-path="url(#clip940)" d="M860.099 1440.35 Q865.134 1441.42 867.946 1444.83 Q870.793 1448.23 870.793 1453.23 Q870.793 1460.9 865.516 1465.11 Q860.238 1469.31 850.516 1469.31 Q847.252 1469.31 843.78 1468.65 Q840.342 1468.02 836.662 1466.74 L836.662 1459.97 Q839.578 1461.67 843.05 1462.54 Q846.523 1463.4 850.307 1463.4 Q856.904 1463.4 860.342 1460.8 Q863.814 1458.2 863.814 1453.23 Q863.814 1448.65 860.585 1446.08 Q857.391 1443.47 851.661 1443.47 L845.62 1443.47 L845.62 1437.71 L851.939 1437.71 Q857.113 1437.71 859.856 1435.66 Q862.599 1433.58 862.599 1429.69 Q862.599 1425.7 859.752 1423.58 Q856.939 1421.43 851.661 1421.43 Q848.779 1421.43 845.481 1422.05 Q842.182 1422.68 838.224 1423.99 L838.224 1417.74 Q842.217 1416.63 845.689 1416.08 Q849.196 1415.52 852.286 1415.52 Q860.272 1415.52 864.925 1419.17 Q869.578 1422.78 869.578 1428.96 Q869.578 1433.27 867.113 1436.25 Q864.647 1439.2 860.099 1440.35 Z" fill="#000000" fill-rule="nonzero" fill-opacity="1" /><path clip-path="url(#clip940)" d="M899.092 1421.08 Q893.675 1421.08 890.932 1426.43 Q888.224 1431.74 888.224 1442.43 Q888.224 1453.09 890.932 1458.44 Q893.675 1463.75 899.092 1463.75 Q904.543 1463.75 907.251 1458.44 Q909.994 1453.09 909.994 1442.43 Q909.994 1431.74 907.251 1426.43 Q904.543 1421.08 899.092 1421.08 M899.092 1415.52 Q907.807 1415.52 912.39 1422.43 Q917.008 1429.31 917.008 1442.43 Q917.008 1455.52 912.39 1462.43 Q907.807 1469.31 899.092 1469.31 Q890.376 1469.31 885.758 1462.43 Q881.175 1455.52 881.175 1442.43 Q881.175 1429.31 885.758 1422.43 Q890.376 1415.52 899.092 1415.52 Z" fill="#000000" fill-rule="nonzero" fill-opacity="1" /><path clip-path="url(#clip940)" d="M1061.27 1422.57 L1043.56 1450.24 L1061.27 1450.24 L1061.27 1422.57 M1059.43 1416.46 L1068.25 1416.46 L1068.25 1450.24 L1075.65 1450.24 L1075.65 1456.08 L1068.25 1456.08 L1068.25 1468.3 L1061.27 1468.3 L1061.27 1456.08 L1037.87 1456.08 L1037.87 1449.31 L1059.43 1416.46 Z" fill="#000000" fill-rule="nonzero" fill-opacity="1" /><path clip-path="url(#clip940)" d="M1102.24 1421.08 Q1096.83 1421.08 1094.09 1426.43 Q1091.38 1431.74 1091.38 1442.43 Q1091.38 1453.09 1094.09 1458.44 Q1096.83 1463.75 1102.24 1463.75 Q1107.7 1463.75 1110.4 1458.44 Q1113.15 1453.09 1113.15 1442.43 Q1113.15 1431.74 1110.4 1426.43 Q1107.7 1421.08 1102.24 1421.08 M1102.24 1415.52 Q1110.96 1415.52 1115.54 1422.43 Q1120.16 1429.31 1120.16 1442.43 Q1120.16 1455.52 1115.54 1462.43 Q1110.96 1469.31 1102.24 1469.31 Q1093.53 1469.31 1088.91 1462.43 Q1084.33 1455.52 1084.33 1442.43 Q1084.33 1429.31 1088.91 1422.43 Q1093.53 1415.52 1102.24 1415.52 Z" fill="#000000" fill-rule="nonzero" fill-opacity="1" /><path clip-path="url(#clip940)" d="M1243.25 1416.46 L1270.78 1416.46 L1270.78 1422.36 L1249.67 1422.36 L1249.67 1435.07 Q1251.2 1434.55 1252.72 1434.31 Q1254.25 1434.03 1255.78 1434.03 Q1264.46 1434.03 1269.53 1438.79 Q1274.6 1443.54 1274.6 1451.67 Q1274.6 1460.04 1269.39 1464.69 Q1264.18 1469.31 1254.7 1469.31 Q1251.44 1469.31 1248.04 1468.75 Q1244.67 1468.2 1241.06 1467.08 L1241.06 1460.04 Q1244.18 1461.74 1247.52 1462.57 Q1250.85 1463.4 1254.57 1463.4 Q1260.57 1463.4 1264.08 1460.24 Q1267.59 1457.08 1267.59 1451.67 Q1267.59 1446.25 1264.08 1443.09 Q1260.57 1439.93 1254.57 1439.93 Q1251.75 1439.93 1248.94 1440.56 Q1246.16 1441.18 1243.25 1442.5 L1243.25 1416.46 Z" fill="#000000" fill-rule="nonzero" fill-opacity="1" /><path clip-path="url(#clip940)" d="M1303.42 1421.08 Q1298 1421.08 1295.26 1426.43 Q1292.55 1431.74 1292.55 1442.43 Q1292.55 1453.09 1295.26 1458.44 Q1298 1463.75 1303.42 1463.75 Q1308.87 1463.75 1311.58 1458.44 Q1314.32 1453.09 1314.32 1442.43 Q1314.32 1431.74 1311.58 1426.43 Q1308.87 1421.08 1303.42 1421.08 M1303.42 1415.52 Q1312.13 1415.52 1316.72 1422.43 Q1321.34 1429.31 1321.34 1442.43 Q1321.34 1455.52 1316.72 1462.43 Q1312.13 1469.31 1303.42 1469.31 Q1294.7 1469.31 1290.09 1462.43 Q1285.5 1455.52 1285.5 1442.43 Q1285.5 1429.31 1290.09 1422.43 Q1294.7 1415.52 1303.42 1415.52 Z" fill="#000000" fill-rule="nonzero" fill-opacity="1" /><path clip-path="url(#clip940)" d="M1461.49 1439.58 Q1456.76 1439.58 1453.99 1442.81 Q1451.24 1446.04 1451.24 1451.67 Q1451.24 1457.26 1453.99 1460.52 Q1456.76 1463.75 1461.49 1463.75 Q1466.21 1463.75 1468.95 1460.52 Q1471.73 1457.26 1471.73 1451.67 Q1471.73 1446.04 1468.95 1442.81 Q1466.21 1439.58 1461.49 1439.58 M1475.41 1417.61 L1475.41 1423.99 Q1472.77 1422.74 1470.06 1422.08 Q1467.39 1421.43 1464.75 1421.43 Q1457.8 1421.43 1454.12 1426.11 Q1450.48 1430.8 1449.96 1440.28 Q1452.01 1437.26 1455.1 1435.66 Q1458.19 1434.03 1461.9 1434.03 Q1469.71 1434.03 1474.23 1438.79 Q1478.78 1443.51 1478.78 1451.67 Q1478.78 1459.65 1474.05 1464.48 Q1469.33 1469.31 1461.49 1469.31 Q1452.49 1469.31 1447.74 1462.43 Q1442.98 1455.52 1442.98 1442.43 Q1442.98 1430.14 1448.81 1422.85 Q1454.65 1415.52 1464.47 1415.52 Q1467.11 1415.52 1469.78 1416.04 Q1472.49 1416.56 1475.41 1417.61 Z" fill="#000000" fill-rule="nonzero" fill-opacity="1" /><path clip-path="url(#clip940)" d="M1505.86 1421.08 Q1500.44 1421.08 1497.7 1426.43 Q1494.99 1431.74 1494.99 1442.43 Q1494.99 1453.09 1497.7 1458.44 Q1500.44 1463.75 1505.86 1463.75 Q1511.31 1463.75 1514.02 1458.44 Q1516.76 1453.09 1516.76 1442.43 Q1516.76 1431.74 1514.02 1426.43 Q1511.31 1421.08 1505.86 1421.08 M1505.86 1415.52 Q1514.58 1415.52 1519.16 1422.43 Q1523.78 1429.31 1523.78 1442.43 Q1523.78 1455.52 1519.16 1462.43 Q1514.58 1469.31 1505.86 1469.31 Q1497.15 1469.31 1492.53 1462.43 Q1487.94 1455.52 1487.94 1442.43 Q1487.94 1429.31 1492.53 1422.43 Q1497.15 1415.52 1505.86 1415.52 Z" fill="#000000" fill-rule="nonzero" fill-opacity="1" /><path clip-path="url(#clip940)" d="M1645.59 1416.46 L1678.93 1416.46 L1678.93 1419.45 L1660.11 1468.3 L1652.78 1468.3 L1670.49 1422.36 L1645.59 1422.36 L1645.59 1416.46 Z" fill="#000000" fill-rule="nonzero" fill-opacity="1" /><path clip-path="url(#clip940)" d="M1707.61 1421.08 Q1702.19 1421.08 1699.45 1426.43 Q1696.74 1431.74 1696.74 1442.43 Q1696.74 1453.09 1699.45 1458.44 Q1702.19 1463.75 1707.61 1463.75 Q1713.06 1463.75 1715.77 1458.44 Q1718.51 1453.09 1718.51 1442.43 Q1718.51 1431.74 1715.77 1426.43 Q1713.06 1421.08 1707.61 1421.08 M1707.61 1415.52 Q1716.32 1415.52 1720.91 1422.43 Q1725.52 1429.31 1725.52 1442.43 Q1725.52 1455.52 1720.91 1462.43 Q1716.32 1469.31 1707.61 1469.31 Q1698.89 1469.31 1694.27 1462.43 Q1689.69 1455.52 1689.69 1442.43 Q1689.69 1429.31 1694.27 1422.43 Q1698.89 1415.52 1707.61 1415.52 Z" fill="#000000" fill-rule="nonzero" fill-opacity="1" /><path clip-path="url(#clip940)" d="M1865.05 1443.68 Q1860.05 1443.68 1857.17 1446.36 Q1854.32 1449.03 1854.32 1453.72 Q1854.32 1458.4 1857.17 1461.08 Q1860.05 1463.75 1865.05 1463.75 Q1870.05 1463.75 1872.93 1461.08 Q1875.81 1458.37 1875.81 1453.72 Q1875.81 1449.03 1872.93 1446.36 Q1870.08 1443.68 1865.05 1443.68 M1858.03 1440.7 Q1853.52 1439.58 1850.99 1436.49 Q1848.49 1433.4 1848.49 1428.96 Q1848.49 1422.74 1852.9 1419.13 Q1857.34 1415.52 1865.05 1415.52 Q1872.79 1415.52 1877.2 1419.13 Q1881.61 1422.74 1881.61 1428.96 Q1881.61 1433.4 1879.08 1436.49 Q1876.58 1439.58 1872.1 1440.7 Q1877.17 1441.88 1879.98 1445.31 Q1882.83 1448.75 1882.83 1453.72 Q1882.83 1461.25 1878.21 1465.28 Q1873.63 1469.31 1865.05 1469.31 Q1856.47 1469.31 1851.85 1465.28 Q1847.27 1461.25 1847.27 1453.72 Q1847.27 1448.75 1850.12 1445.31 Q1852.97 1441.88 1858.03 1440.7 M1855.47 1429.62 Q1855.47 1433.65 1857.97 1435.9 Q1860.5 1438.16 1865.05 1438.16 Q1869.56 1438.16 1872.1 1435.9 Q1874.67 1433.65 1874.67 1429.62 Q1874.67 1425.59 1872.1 1423.33 Q1869.56 1421.08 1865.05 1421.08 Q1860.5 1421.08 1857.97 1423.33 Q1855.47 1425.59 1855.47 1429.62 Z" fill="#000000" fill-rule="nonzero" fill-opacity="1" /><path clip-path="url(#clip940)" d="M1910.29 1421.08 Q1904.88 1421.08 1902.13 1426.43 Q1899.42 1431.74 1899.42 1442.43 Q1899.42 1453.09 1902.13 1458.44 Q1904.88 1463.75 1910.29 1463.75 Q1915.74 1463.75 1918.45 1458.44 Q1921.19 1453.09 1921.19 1442.43 Q1921.19 1431.74 1918.45 1426.43 Q1915.74 1421.08 1910.29 1421.08 M1910.29 1415.52 Q1919.01 1415.52 1923.59 1422.43 Q1928.21 1429.31 1928.21 1442.43 Q1928.21 1455.52 1923.59 1462.43 Q1919.01 1469.31 1910.29 1469.31 Q1901.58 1469.31 1896.96 1462.43 Q1892.38 1455.52 1892.38 1442.43 Q1892.38 1429.31 1896.96 1422.43 Q1901.58 1415.52 1910.29 1415.52 Z" fill="#000000" fill-rule="nonzero" fill-opacity="1" /><path clip-path="url(#clip940)" d="M2052.61 1467.22 L2052.61 1460.83 Q2055.25 1462.08 2057.96 1462.74 Q2060.67 1463.4 2063.27 1463.4 Q2070.22 1463.4 2073.86 1458.75 Q2077.54 1454.06 2078.06 1444.55 Q2076.05 1447.54 2072.96 1449.13 Q2069.87 1450.73 2066.12 1450.73 Q2058.34 1450.73 2053.79 1446.04 Q2049.28 1441.32 2049.28 1433.16 Q2049.28 1425.18 2054 1420.35 Q2058.72 1415.52 2066.57 1415.52 Q2075.56 1415.52 2080.29 1422.43 Q2085.04 1429.31 2085.04 1442.43 Q2085.04 1454.69 2079.21 1462.02 Q2073.41 1469.31 2063.58 1469.31 Q2060.95 1469.31 2058.24 1468.79 Q2055.53 1468.27 2052.61 1467.22 M2066.57 1445.24 Q2071.29 1445.24 2074.04 1442.02 Q2076.81 1438.79 2076.81 1433.16 Q2076.81 1427.57 2074.04 1424.34 Q2071.29 1421.08 2066.57 1421.08 Q2061.85 1421.08 2059.07 1424.34 Q2056.33 1427.57 2056.33 1433.16 Q2056.33 1438.79 2059.07 1442.02 Q2061.85 1445.24 2066.57 1445.24 Z" fill="#000000" fill-rule="nonzero" fill-opacity="1" /><path clip-path="url(#clip940)" d="M2112.65 1421.08 Q2107.23 1421.08 2104.49 1426.43 Q2101.78 1431.74 2101.78 1442.43 Q2101.78 1453.09 2104.49 1458.44 Q2107.23 1463.75 2112.65 1463.75 Q2118.1 1463.75 2120.81 1458.44 Q2123.55 1453.09 2123.55 1442.43 Q2123.55 1431.74 2120.81 1426.43 Q2118.1 1421.08 2112.65 1421.08 M2112.65 1415.52 Q2121.36 1415.52 2125.94 1422.43 Q2130.56 1429.31 2130.56 1442.43 Q2130.56 1455.52 2125.94 1462.43 Q2121.36 1469.31 2112.65 1469.31 Q2103.93 1469.31 2099.31 1462.43 Q2094.73 1455.52 2094.73 1442.43 Q2094.73 1429.31 2099.31 1422.43 Q2103.93 1415.52 2112.65 1415.52 Z" fill="#000000" fill-rule="nonzero" fill-opacity="1" /><path clip-path="url(#clip940)" d="M2231.51 1462.4 L2242.97 1462.4 L2242.97 1422.85 L2230.5 1425.35 L2230.5 1418.96 L2242.9 1416.46 L2249.91 1416.46 L2249.91 1462.4 L2261.37 1462.4 L2261.37 1468.3 L2231.51 1468.3 L2231.51 1462.4 Z" fill="#000000" fill-rule="nonzero" fill-opacity="1" /><path clip-path="url(#clip940)" d="M2290.54 1421.08 Q2285.12 1421.08 2282.38 1426.43 Q2279.67 1431.74 2279.67 1442.43 Q2279.67 1453.09 2282.38 1458.44 Q2285.12 1463.75 2290.54 1463.75 Q2295.99 1463.75 2298.7 1458.44 Q2301.44 1453.09 2301.44 1442.43 Q2301.44 1431.74 2298.7 1426.43 Q2295.99 1421.08 2290.54 1421.08 M2290.54 1415.52 Q2299.25 1415.52 2303.84 1422.43 Q2308.46 1429.31 2308.46 1442.43 Q2308.46 1455.52 2303.84 1462.43 Q2299.25 1469.31 2290.54 1469.31 Q2281.82 1469.31 2277.21 1462.43 Q2272.62 1455.52 2272.62 1442.43 Q2272.62 1429.31 2277.21 1422.43 Q2281.82 1415.52 2290.54 1415.52 Z" fill="#000000" fill-rule="nonzero" fill-opacity="1" /><path clip-path="url(#clip940)" d="M2335.78 1421.08 Q2330.37 1421.08 2327.62 1426.43 Q2324.91 1431.74 2324.91 1442.43 Q2324.91 1453.09 2327.62 1458.44 Q2330.37 1463.75 2335.78 1463.75 Q2341.23 1463.75 2343.94 1458.44 Q2346.68 1453.09 2346.68 1442.43 Q2346.68 1431.74 2343.94 1426.43 Q2341.23 1421.08 2335.78 1421.08 M2335.78 1415.52 Q2344.5 1415.52 2349.08 1422.43 Q2353.7 1429.31 2353.7 1442.43 Q2353.7 1455.52 2349.08 1462.43 Q2344.5 1469.31 2335.78 1469.31 Q2327.07 1469.31 2322.45 1462.43 Q2317.87 1455.52 2317.87 1442.43 Q2317.87 1429.31 2322.45 1422.43 Q2327.07 1415.52 2335.78 1415.52 Z" fill="#000000" fill-rule="nonzero" fill-opacity="1" /><path clip-path="url(#clip940)" d="M1258.19 1508.97 L1266.75 1508.97 L1266.75 1551.51 L1292.17 1529.15 L1303.05 1529.15 L1275.55 1553.41 L1304.21 1581 L1293.09 1581 L1266.75 1555.68 L1266.75 1581 L1258.19 1581 L1258.19 1508.97 Z" fill="#000000" fill-rule="nonzero" fill-opacity="1" /><polyline clip-path="url(#clip940)" style="stroke:#000000; stroke-linecap:round; stroke-linejoin:round; stroke-width:4; stroke-opacity:1; fill:none" points="209.638,1384.3 209.638,47.2441 "/>
<polyline clip-path="url(#clip940)" style="stroke:#000000; stroke-linecap:round; stroke-linejoin:round; stroke-width:4; stroke-opacity:1; fill:none" points="209.638,1346.46 228.535,1346.46 "/>
<polyline clip-path="url(#clip940)" style="stroke:#000000; stroke-linecap:round; stroke-linejoin:round; stroke-width:4; stroke-opacity:1; fill:none" points="209.638,1119.15 228.535,1119.15 "/>
<polyline clip-path="url(#clip940)" style="stroke:#000000; stroke-linecap:round; stroke-linejoin:round; stroke-width:4; stroke-opacity:1; fill:none" points="209.638,891.851 228.535,891.851 "/>
<polyline clip-path="url(#clip940)" style="stroke:#000000; stroke-linecap:round; stroke-linejoin:round; stroke-width:4; stroke-opacity:1; fill:none" points="209.638,664.547 228.535,664.547 "/>
<polyline clip-path="url(#clip940)" style="stroke:#000000; stroke-linecap:round; stroke-linejoin:round; stroke-width:4; stroke-opacity:1; fill:none" points="209.638,437.243 228.535,437.243 "/>
<polyline clip-path="url(#clip940)" style="stroke:#000000; stroke-linecap:round; stroke-linejoin:round; stroke-width:4; stroke-opacity:1; fill:none" points="209.638,209.939 228.535,209.939 "/>
<path clip-path="url(#clip940)" d="M155.721 1325.16 Q150.305 1325.16 147.561 1330.5 Q144.853 1335.82 144.853 1346.51 Q144.853 1357.17 147.561 1362.52 Q150.305 1367.83 155.721 1367.83 Q161.173 1367.83 163.881 1362.52 Q166.624 1357.17 166.624 1346.51 Q166.624 1335.82 163.881 1330.5 Q161.173 1325.16 155.721 1325.16 M155.721 1319.6 Q164.436 1319.6 169.02 1326.51 Q173.638 1333.39 173.638 1346.51 Q173.638 1359.6 169.02 1366.51 Q164.436 1373.39 155.721 1373.39 Q147.006 1373.39 142.388 1366.51 Q137.805 1359.6 137.805 1346.51 Q137.805 1333.39 142.388 1326.51 Q147.006 1319.6 155.721 1319.6 Z" fill="#000000" fill-rule="nonzero" fill-opacity="1" /><path clip-path="url(#clip940)" d="M143.777 1139.17 L155.235 1139.17 L155.235 1099.62 L142.77 1102.12 L142.77 1095.73 L155.166 1093.23 L162.179 1093.23 L162.179 1139.17 L173.638 1139.17 L173.638 1145.07 L143.777 1145.07 L143.777 1139.17 Z" fill="#000000" fill-rule="nonzero" fill-opacity="1" /><path clip-path="url(#clip940)" d="M149.159 911.868 L173.638 911.868 L173.638 917.771 L140.721 917.771 L140.721 911.868 Q144.714 907.736 151.589 900.792 Q158.499 893.813 160.27 891.799 Q163.638 888.014 164.957 885.41 Q166.311 882.771 166.311 880.236 Q166.311 876.104 163.395 873.5 Q160.513 870.896 155.86 870.896 Q152.561 870.896 148.881 872.042 Q145.235 873.188 141.068 875.514 L141.068 868.431 Q145.305 866.729 148.985 865.861 Q152.666 864.993 155.721 864.993 Q163.777 864.993 168.568 869.021 Q173.36 873.049 173.36 879.785 Q173.36 882.979 172.145 885.861 Q170.964 888.708 167.804 892.597 Q166.936 893.604 162.284 898.431 Q157.631 903.222 149.159 911.868 Z" fill="#000000" fill-rule="nonzero" fill-opacity="1" /><path clip-path="url(#clip940)" d="M162.943 662.516 Q167.978 663.592 170.791 666.995 Q173.638 670.397 173.638 675.397 Q173.638 683.071 168.36 687.272 Q163.082 691.474 153.36 691.474 Q150.096 691.474 146.624 690.814 Q143.187 690.189 139.506 688.904 L139.506 682.133 Q142.423 683.835 145.895 684.703 Q149.367 685.571 153.152 685.571 Q159.749 685.571 163.186 682.967 Q166.659 680.363 166.659 675.397 Q166.659 670.814 163.429 668.245 Q160.235 665.641 154.506 665.641 L148.464 665.641 L148.464 659.877 L154.784 659.877 Q159.957 659.877 162.7 657.828 Q165.443 655.745 165.443 651.856 Q165.443 647.863 162.596 645.745 Q159.784 643.592 154.506 643.592 Q151.624 643.592 148.325 644.217 Q145.027 644.842 141.068 646.161 L141.068 639.911 Q145.061 638.8 148.534 638.245 Q152.041 637.689 155.131 637.689 Q163.117 637.689 167.77 641.335 Q172.422 644.946 172.422 651.127 Q172.422 655.432 169.957 658.418 Q167.492 661.37 162.943 662.516 Z" fill="#000000" fill-rule="nonzero" fill-opacity="1" /><path clip-path="url(#clip940)" d="M159.263 417.434 L141.555 445.107 L159.263 445.107 L159.263 417.434 M157.423 411.323 L166.242 411.323 L166.242 445.107 L173.638 445.107 L173.638 450.941 L166.242 450.941 L166.242 463.163 L159.263 463.163 L159.263 450.941 L135.86 450.941 L135.86 444.17 L157.423 411.323 Z" fill="#000000" fill-rule="nonzero" fill-opacity="1" /><path clip-path="url(#clip940)" d="M142.284 184.019 L169.818 184.019 L169.818 189.922 L148.707 189.922 L148.707 202.63 Q150.235 202.109 151.763 201.866 Q153.291 201.588 154.818 201.588 Q163.499 201.588 168.568 206.345 Q173.638 211.102 173.638 219.227 Q173.638 227.595 168.429 232.248 Q163.221 236.866 153.742 236.866 Q150.478 236.866 147.075 236.31 Q143.707 235.755 140.096 234.644 L140.096 227.595 Q143.221 229.296 146.555 230.13 Q149.888 230.963 153.603 230.963 Q159.61 230.963 163.117 227.803 Q166.624 224.644 166.624 219.227 Q166.624 213.81 163.117 210.651 Q159.61 207.491 153.603 207.491 Q150.791 207.491 147.978 208.116 Q145.2 208.741 142.284 210.06 L142.284 184.019 Z" fill="#000000" fill-rule="nonzero" fill-opacity="1" /><path clip-path="url(#clip940)" d="M25.0572 715.446 Q28.3363 715.446 28.3363 720.131 L28.3363 730.671 Q32.5524 727.72 38.7827 727.72 Q44.123 727.72 49.1354 729.921 Q54.101 732.076 57.5675 735.543 Q61.0341 738.962 63.1421 743.272 Q65.2032 747.582 65.2032 751.798 Q65.2032 758.216 60.8467 762.197 Q56.4901 766.179 50.0255 766.179 Q46.6058 766.179 42.8114 765.008 Q39.017 763.79 35.5036 761.495 Q31.9434 759.199 29.0858 756.201 Q26.2283 753.156 24.495 749.221 Q22.7618 745.239 22.7618 741.07 L22.7618 719.194 Q22.7618 718.023 22.8555 717.414 Q22.9023 716.758 23.4644 716.102 Q23.9797 715.446 25.0572 715.446 M37.6585 733.856 Q36.5342 733.856 35.5504 733.997 Q34.5198 734.137 33.1613 734.653 Q31.756 735.168 30.7723 736.058 Q29.7417 736.948 29.039 738.681 Q28.3363 740.368 28.3363 742.663 Q28.3363 745.895 30.1164 749.456 Q31.8965 753.016 36.2999 755.733 Q40.0475 757.981 44.9194 759.106 Q49.7913 760.23 52.6957 760.23 Q57.6612 760.23 60.3782 757.841 Q63.0484 755.405 63.0484 751.704 Q63.0484 748.659 60.9872 745.193 Q58.8792 741.726 54.8974 739.056 Q51.4308 736.714 46.3716 735.308 Q41.3124 733.856 37.6585 733.856 Z" fill="#000000" fill-rule="nonzero" fill-opacity="1" /><path clip-path="url(#clip940)" d="M67.4294 675.307 Q69.2985 675.307 70.4134 676.455 Q71.5283 677.57 71.5283 678.98 Q71.5283 680.226 70.8069 680.882 Q70.0855 681.538 69.1673 681.538 Q68.7738 681.538 68.2819 681.374 Q67.7573 681.21 67.1342 680.849 Q66.5112 680.455 66.0521 679.636 Q65.593 678.816 65.5275 677.701 Q65.2979 677.93 65.2651 677.996 Q64.8716 678.488 64.7405 679.406 Q64.6749 679.537 64.6749 679.996 Q64.6749 682.259 66.3472 684.554 Q67.9868 686.817 71.102 689.604 Q74.7418 693.113 76.0863 695.375 Q77.3979 685.44 83.1364 685.44 Q84.0874 685.44 85.2351 685.702 Q87.3993 686.227 88.9733 686.227 Q92.1213 686.227 92.1213 684.095 Q92.1213 682.029 90.0226 680.718 Q87.924 679.373 83.8251 678.258 Q83.0709 678.094 82.8413 677.93 Q82.6118 677.766 82.6118 677.307 Q82.6118 676.488 83.2676 676.488 Q87.1042 677.242 90.0554 678.914 Q93.6297 681.046 93.6297 684.226 Q93.6297 686.883 91.7934 688.653 Q89.9243 690.391 86.973 690.391 Q86.2516 690.391 84.6121 690.129 Q83.9562 689.932 83.202 689.932 Q81.6608 689.932 80.5131 690.785 Q79.3326 691.637 78.7424 693.015 Q78.1522 694.392 77.8898 695.539 Q77.5947 696.654 77.4963 697.736 Q91.3671 701.016 92.2197 701.475 Q92.8099 701.77 93.2034 702.426 Q93.6297 703.081 93.6297 703.77 Q93.6297 704.426 93.1706 705.082 Q92.7443 705.705 91.7278 705.705 Q91.2031 705.705 90.2522 705.442 L51.5583 695.703 L50.2467 695.507 Q49.8532 695.507 49.6564 695.671 Q49.4269 695.802 49.2629 696.589 Q49.099 697.343 49.099 698.851 Q49.099 699.474 49.0662 699.77 Q49.0334 700.032 48.8694 700.261 Q48.6727 700.491 48.2792 700.491 Q47.7217 700.491 47.4266 700.261 Q47.0987 699.999 47.0331 699.802 Q46.9675 699.606 46.9347 699.212 Q46.9019 698.655 46.738 696.786 Q46.5412 694.916 46.4101 693.31 Q46.2789 691.703 46.2789 691.014 Q46.2789 690.621 46.4756 690.424 Q46.6396 690.194 46.8363 690.162 L47.0003 690.129 L75.3321 697.113 Q74.1844 694.228 69.1017 689.67 Q63.1993 684.39 63.1993 679.865 Q63.1993 677.734 64.5109 676.52 Q65.7898 675.307 67.4294 675.307 Z" fill="#000000" fill-rule="nonzero" fill-opacity="1" /><circle clip-path="url(#clip941)" cx="290.51" cy="85.0853" r="21.6" fill="#009af9" fill-rule="evenodd" fill-opacity="1" stroke="none"/>
<circle clip-path="url(#clip941)" cx="310.728" cy="93.1975" r="21.6" fill="#009af9" fill-rule="evenodd" fill-opacity="1" stroke="none"/>
<circle clip-path="url(#clip941)" cx="330.946" cy="1074.39" r="21.6" fill="#009af9" fill-rule="evenodd" fill-opacity="1" stroke="none"/>
<circle clip-path="url(#clip941)" cx="351.164" cy="1074.73" r="21.6" fill="#009af9" fill-rule="evenodd" fill-opacity="1" stroke="none"/>
<circle clip-path="url(#clip941)" cx="371.383" cy="1120.56" r="21.6" fill="#009af9" fill-rule="evenodd" fill-opacity="1" stroke="none"/>
<circle clip-path="url(#clip941)" cx="391.601" cy="1123.21" r="21.6" fill="#009af9" fill-rule="evenodd" fill-opacity="1" stroke="none"/>
<circle clip-path="url(#clip941)" cx="411.819" cy="1124.58" r="21.6" fill="#009af9" fill-rule="evenodd" fill-opacity="1" stroke="none"/>
<circle clip-path="url(#clip941)" cx="432.037" cy="1127.2" r="21.6" fill="#009af9" fill-rule="evenodd" fill-opacity="1" stroke="none"/>
<circle clip-path="url(#clip941)" cx="452.255" cy="1128.36" r="21.6" fill="#009af9" fill-rule="evenodd" fill-opacity="1" stroke="none"/>
<circle clip-path="url(#clip941)" cx="472.473" cy="1131.39" r="21.6" fill="#009af9" fill-rule="evenodd" fill-opacity="1" stroke="none"/>
<circle clip-path="url(#clip941)" cx="492.691" cy="1133.8" r="21.6" fill="#009af9" fill-rule="evenodd" fill-opacity="1" stroke="none"/>
<circle clip-path="url(#clip941)" cx="512.909" cy="1137.01" r="21.6" fill="#009af9" fill-rule="evenodd" fill-opacity="1" stroke="none"/>
<circle clip-path="url(#clip941)" cx="533.127" cy="1140.06" r="21.6" fill="#009af9" fill-rule="evenodd" fill-opacity="1" stroke="none"/>
<circle clip-path="url(#clip941)" cx="553.345" cy="1143.39" r="21.6" fill="#009af9" fill-rule="evenodd" fill-opacity="1" stroke="none"/>
<circle clip-path="url(#clip941)" cx="573.563" cy="1146.7" r="21.6" fill="#009af9" fill-rule="evenodd" fill-opacity="1" stroke="none"/>
<circle clip-path="url(#clip941)" cx="593.782" cy="1149.96" r="21.6" fill="#009af9" fill-rule="evenodd" fill-opacity="1" stroke="none"/>
<circle clip-path="url(#clip941)" cx="614" cy="1153" r="21.6" fill="#009af9" fill-rule="evenodd" fill-opacity="1" stroke="none"/>
<circle clip-path="url(#clip941)" cx="634.218" cy="1156.02" r="21.6" fill="#009af9" fill-rule="evenodd" fill-opacity="1" stroke="none"/>
<circle clip-path="url(#clip941)" cx="654.436" cy="1158.64" r="21.6" fill="#009af9" fill-rule="evenodd" fill-opacity="1" stroke="none"/>
<circle clip-path="url(#clip941)" cx="674.654" cy="1161.58" r="21.6" fill="#009af9" fill-rule="evenodd" fill-opacity="1" stroke="none"/>
<circle clip-path="url(#clip941)" cx="694.872" cy="1164.37" r="21.6" fill="#009af9" fill-rule="evenodd" fill-opacity="1" stroke="none"/>
<circle clip-path="url(#clip941)" cx="715.09" cy="1167.14" r="21.6" fill="#009af9" fill-rule="evenodd" fill-opacity="1" stroke="none"/>
<circle clip-path="url(#clip941)" cx="735.308" cy="1169.69" r="21.6" fill="#009af9" fill-rule="evenodd" fill-opacity="1" stroke="none"/>
<circle clip-path="url(#clip941)" cx="755.526" cy="1172.16" r="21.6" fill="#009af9" fill-rule="evenodd" fill-opacity="1" stroke="none"/>
<circle clip-path="url(#clip941)" cx="775.744" cy="1174.07" r="21.6" fill="#009af9" fill-rule="evenodd" fill-opacity="1" stroke="none"/>
<circle clip-path="url(#clip941)" cx="795.963" cy="1176.24" r="21.6" fill="#009af9" fill-rule="evenodd" fill-opacity="1" stroke="none"/>
<circle clip-path="url(#clip941)" cx="816.181" cy="1177.85" r="21.6" fill="#009af9" fill-rule="evenodd" fill-opacity="1" stroke="none"/>
<circle clip-path="url(#clip941)" cx="836.399" cy="1179.51" r="21.6" fill="#009af9" fill-rule="evenodd" fill-opacity="1" stroke="none"/>
<circle clip-path="url(#clip941)" cx="856.617" cy="1180.83" r="21.6" fill="#009af9" fill-rule="evenodd" fill-opacity="1" stroke="none"/>
<circle clip-path="url(#clip941)" cx="876.835" cy="1182.05" r="21.6" fill="#009af9" fill-rule="evenodd" fill-opacity="1" stroke="none"/>
<circle clip-path="url(#clip941)" cx="897.053" cy="1183.26" r="21.6" fill="#009af9" fill-rule="evenodd" fill-opacity="1" stroke="none"/>
<circle clip-path="url(#clip941)" cx="917.271" cy="1184.65" r="21.6" fill="#009af9" fill-rule="evenodd" fill-opacity="1" stroke="none"/>
<circle clip-path="url(#clip941)" cx="937.489" cy="1186.34" r="21.6" fill="#009af9" fill-rule="evenodd" fill-opacity="1" stroke="none"/>
<circle clip-path="url(#clip941)" cx="957.707" cy="1188.49" r="21.6" fill="#009af9" fill-rule="evenodd" fill-opacity="1" stroke="none"/>
<circle clip-path="url(#clip941)" cx="977.925" cy="1190.65" r="21.6" fill="#009af9" fill-rule="evenodd" fill-opacity="1" stroke="none"/>
<circle clip-path="url(#clip941)" cx="998.143" cy="1193.61" r="21.6" fill="#009af9" fill-rule="evenodd" fill-opacity="1" stroke="none"/>
<circle clip-path="url(#clip941)" cx="1018.36" cy="1195.68" r="21.6" fill="#009af9" fill-rule="evenodd" fill-opacity="1" stroke="none"/>
<circle clip-path="url(#clip941)" cx="1038.58" cy="1198.72" r="21.6" fill="#009af9" fill-rule="evenodd" fill-opacity="1" stroke="none"/>
<circle clip-path="url(#clip941)" cx="1058.8" cy="1200.19" r="21.6" fill="#009af9" fill-rule="evenodd" fill-opacity="1" stroke="none"/>
<circle clip-path="url(#clip941)" cx="1079.02" cy="1201.94" r="21.6" fill="#009af9" fill-rule="evenodd" fill-opacity="1" stroke="none"/>
<circle clip-path="url(#clip941)" cx="1099.23" cy="1202.43" r="21.6" fill="#009af9" fill-rule="evenodd" fill-opacity="1" stroke="none"/>
<circle clip-path="url(#clip941)" cx="1119.45" cy="1202.49" r="21.6" fill="#009af9" fill-rule="evenodd" fill-opacity="1" stroke="none"/>
<circle clip-path="url(#clip941)" cx="1139.67" cy="1202.53" r="21.6" fill="#009af9" fill-rule="evenodd" fill-opacity="1" stroke="none"/>
<circle clip-path="url(#clip941)" cx="1159.89" cy="1203.91" r="21.6" fill="#009af9" fill-rule="evenodd" fill-opacity="1" stroke="none"/>
<circle clip-path="url(#clip941)" cx="1180.11" cy="1205.51" r="21.6" fill="#009af9" fill-rule="evenodd" fill-opacity="1" stroke="none"/>
<circle clip-path="url(#clip941)" cx="1200.32" cy="1208.74" r="21.6" fill="#009af9" fill-rule="evenodd" fill-opacity="1" stroke="none"/>
<circle clip-path="url(#clip941)" cx="1220.54" cy="1210.91" r="21.6" fill="#009af9" fill-rule="evenodd" fill-opacity="1" stroke="none"/>
<circle clip-path="url(#clip941)" cx="1240.76" cy="1213.38" r="21.6" fill="#009af9" fill-rule="evenodd" fill-opacity="1" stroke="none"/>
<circle clip-path="url(#clip941)" cx="1260.98" cy="1214.52" r="21.6" fill="#009af9" fill-rule="evenodd" fill-opacity="1" stroke="none"/>
<circle clip-path="url(#clip941)" cx="1281.2" cy="1214.74" r="21.6" fill="#009af9" fill-rule="evenodd" fill-opacity="1" stroke="none"/>
<circle clip-path="url(#clip941)" cx="1301.41" cy="1214.9" r="21.6" fill="#009af9" fill-rule="evenodd" fill-opacity="1" stroke="none"/>
<circle clip-path="url(#clip941)" cx="1321.63" cy="1216.29" r="21.6" fill="#009af9" fill-rule="evenodd" fill-opacity="1" stroke="none"/>
<circle clip-path="url(#clip941)" cx="1341.85" cy="1218.03" r="21.6" fill="#009af9" fill-rule="evenodd" fill-opacity="1" stroke="none"/>
<circle clip-path="url(#clip941)" cx="1362.07" cy="1219.71" r="21.6" fill="#009af9" fill-rule="evenodd" fill-opacity="1" stroke="none"/>
<circle clip-path="url(#clip941)" cx="1382.29" cy="1220.4" r="21.6" fill="#009af9" fill-rule="evenodd" fill-opacity="1" stroke="none"/>
<circle clip-path="url(#clip941)" cx="1402.51" cy="1220.4" r="21.6" fill="#009af9" fill-rule="evenodd" fill-opacity="1" stroke="none"/>
<circle clip-path="url(#clip941)" cx="1422.72" cy="1221.05" r="21.6" fill="#009af9" fill-rule="evenodd" fill-opacity="1" stroke="none"/>
<circle clip-path="url(#clip941)" cx="1442.94" cy="1223.2" r="21.6" fill="#009af9" fill-rule="evenodd" fill-opacity="1" stroke="none"/>
<circle clip-path="url(#clip941)" cx="1463.16" cy="1225.61" r="21.6" fill="#009af9" fill-rule="evenodd" fill-opacity="1" stroke="none"/>
<circle clip-path="url(#clip941)" cx="1483.38" cy="1227.39" r="21.6" fill="#009af9" fill-rule="evenodd" fill-opacity="1" stroke="none"/>
<circle clip-path="url(#clip941)" cx="1503.6" cy="1227.7" r="21.6" fill="#009af9" fill-rule="evenodd" fill-opacity="1" stroke="none"/>
<circle clip-path="url(#clip941)" cx="1523.81" cy="1227.93" r="21.6" fill="#009af9" fill-rule="evenodd" fill-opacity="1" stroke="none"/>
<circle clip-path="url(#clip941)" cx="1544.03" cy="1229.04" r="21.6" fill="#009af9" fill-rule="evenodd" fill-opacity="1" stroke="none"/>
<circle clip-path="url(#clip941)" cx="1564.25" cy="1229.99" r="21.6" fill="#009af9" fill-rule="evenodd" fill-opacity="1" stroke="none"/>
<circle clip-path="url(#clip941)" cx="1584.47" cy="1230.02" r="21.6" fill="#009af9" fill-rule="evenodd" fill-opacity="1" stroke="none"/>
<circle clip-path="url(#clip941)" cx="1604.69" cy="1230.43" r="21.6" fill="#009af9" fill-rule="evenodd" fill-opacity="1" stroke="none"/>
<circle clip-path="url(#clip941)" cx="1624.9" cy="1232.53" r="21.6" fill="#009af9" fill-rule="evenodd" fill-opacity="1" stroke="none"/>
<circle clip-path="url(#clip941)" cx="1645.12" cy="1234.5" r="21.6" fill="#009af9" fill-rule="evenodd" fill-opacity="1" stroke="none"/>
<circle clip-path="url(#clip941)" cx="1665.34" cy="1235.31" r="21.6" fill="#009af9" fill-rule="evenodd" fill-opacity="1" stroke="none"/>
<circle clip-path="url(#clip941)" cx="1685.56" cy="1236" r="21.6" fill="#009af9" fill-rule="evenodd" fill-opacity="1" stroke="none"/>
<circle clip-path="url(#clip941)" cx="1705.78" cy="1237.23" r="21.6" fill="#009af9" fill-rule="evenodd" fill-opacity="1" stroke="none"/>
<circle clip-path="url(#clip941)" cx="1725.99" cy="1237.34" r="21.6" fill="#009af9" fill-rule="evenodd" fill-opacity="1" stroke="none"/>
<circle clip-path="url(#clip941)" cx="1746.21" cy="1237.49" r="21.6" fill="#009af9" fill-rule="evenodd" fill-opacity="1" stroke="none"/>
<circle clip-path="url(#clip941)" cx="1766.43" cy="1239.08" r="21.6" fill="#009af9" fill-rule="evenodd" fill-opacity="1" stroke="none"/>
<circle clip-path="url(#clip941)" cx="1786.65" cy="1239.81" r="21.6" fill="#009af9" fill-rule="evenodd" fill-opacity="1" stroke="none"/>
<circle clip-path="url(#clip941)" cx="1806.87" cy="1241.13" r="21.6" fill="#009af9" fill-rule="evenodd" fill-opacity="1" stroke="none"/>
<circle clip-path="url(#clip941)" cx="1827.09" cy="1242.03" r="21.6" fill="#009af9" fill-rule="evenodd" fill-opacity="1" stroke="none"/>
<circle clip-path="url(#clip941)" cx="1847.3" cy="1244.28" r="21.6" fill="#009af9" fill-rule="evenodd" fill-opacity="1" stroke="none"/>
<circle clip-path="url(#clip941)" cx="1867.52" cy="1251.47" r="21.6" fill="#009af9" fill-rule="evenodd" fill-opacity="1" stroke="none"/>
<circle clip-path="url(#clip941)" cx="1887.74" cy="1313.19" r="21.6" fill="#009af9" fill-rule="evenodd" fill-opacity="1" stroke="none"/>
<circle clip-path="url(#clip941)" cx="1907.96" cy="1328.23" r="21.6" fill="#009af9" fill-rule="evenodd" fill-opacity="1" stroke="none"/>
<circle clip-path="url(#clip941)" cx="1928.18" cy="1345.2" r="21.6" fill="#009af9" fill-rule="evenodd" fill-opacity="1" stroke="none"/>
<circle clip-path="url(#clip941)" cx="1948.39" cy="1345.92" r="21.6" fill="#009af9" fill-rule="evenodd" fill-opacity="1" stroke="none"/>
<circle clip-path="url(#clip941)" cx="1968.61" cy="1346.44" r="21.6" fill="#009af9" fill-rule="evenodd" fill-opacity="1" stroke="none"/>
<circle clip-path="url(#clip941)" cx="1988.83" cy="1346.45" r="21.6" fill="#009af9" fill-rule="evenodd" fill-opacity="1" stroke="none"/>
<circle clip-path="url(#clip941)" cx="2009.05" cy="1346.46" r="21.6" fill="#009af9" fill-rule="evenodd" fill-opacity="1" stroke="none"/>
<circle clip-path="url(#clip941)" cx="2029.27" cy="1346.46" r="21.6" fill="#009af9" fill-rule="evenodd" fill-opacity="1" stroke="none"/>
<circle clip-path="url(#clip941)" cx="2049.48" cy="1346.46" r="21.6" fill="#009af9" fill-rule="evenodd" fill-opacity="1" stroke="none"/>
<circle clip-path="url(#clip941)" cx="2069.7" cy="1346.46" r="21.6" fill="#009af9" fill-rule="evenodd" fill-opacity="1" stroke="none"/>
<circle clip-path="url(#clip941)" cx="2089.92" cy="1346.46" r="21.6" fill="#009af9" fill-rule="evenodd" fill-opacity="1" stroke="none"/>
<circle clip-path="url(#clip941)" cx="2110.14" cy="1346.46" r="21.6" fill="#009af9" fill-rule="evenodd" fill-opacity="1" stroke="none"/>
<circle clip-path="url(#clip941)" cx="2130.36" cy="1346.46" r="21.6" fill="#009af9" fill-rule="evenodd" fill-opacity="1" stroke="none"/>
<circle clip-path="url(#clip941)" cx="2150.57" cy="1346.46" r="21.6" fill="#009af9" fill-rule="evenodd" fill-opacity="1" stroke="none"/>
<circle clip-path="url(#clip941)" cx="2170.79" cy="1346.46" r="21.6" fill="#009af9" fill-rule="evenodd" fill-opacity="1" stroke="none"/>
<circle clip-path="url(#clip941)" cx="2191.01" cy="1346.46" r="21.6" fill="#009af9" fill-rule="evenodd" fill-opacity="1" stroke="none"/>
<circle clip-path="url(#clip941)" cx="2211.23" cy="1346.46" r="21.6" fill="#009af9" fill-rule="evenodd" fill-opacity="1" stroke="none"/>
<circle clip-path="url(#clip941)" cx="2231.45" cy="1346.46" r="21.6" fill="#009af9" fill-rule="evenodd" fill-opacity="1" stroke="none"/>
<circle clip-path="url(#clip941)" cx="2251.67" cy="1346.46" r="21.6" fill="#009af9" fill-rule="evenodd" fill-opacity="1" stroke="none"/>
<circle clip-path="url(#clip941)" cx="2271.88" cy="1346.46" r="21.6" fill="#009af9" fill-rule="evenodd" fill-opacity="1" stroke="none"/>
</svg>
