<?xml version="1.0" encoding="utf-8"?>
<svg xmlns="http://www.w3.org/2000/svg" xmlns:xlink="http://www.w3.org/1999/xlink" width="600" height="400" viewBox="0 0 2400 1600">
<defs>
  <clipPath id="clip060">
    <rect x="0" y="0" width="2400" height="1600"/>
  </clipPath>
</defs>
<path clip-path="url(#clip060)" d="M0 1600 L2400 1600 L2400 0 L0 0  Z" fill="#ffffff" fill-rule="evenodd" fill-opacity="1"/>
<defs>
  <clipPath id="clip061">
    <rect x="262" y="47" width="2091" height="1338"/>
  </clipPath>
</defs>
<path clip-path="url(#clip060)" d="M262.589 1384.3 L2352.76 1384.3 L2352.76 47.2441 L262.589 47.2441  Z" fill="#ffffff" fill-rule="evenodd" fill-opacity="1"/>
<polyline clip-path="url(#clip061)" style="stroke:#000000; stroke-linecap:round; stroke-linejoin:round; stroke-width:2; stroke-opacity:0.1; fill:none" points="321.745,1384.3 321.745,47.2441 "/>
<polyline clip-path="url(#clip061)" style="stroke:#000000; stroke-linecap:round; stroke-linejoin:round; stroke-width:2; stroke-opacity:0.1; fill:none" points="1307.67,1384.3 1307.67,47.2441 "/>
<polyline clip-path="url(#clip061)" style="stroke:#000000; stroke-linecap:round; stroke-linejoin:round; stroke-width:2; stroke-opacity:0.1; fill:none" points="2293.6,1384.3 2293.6,47.2441 "/>
<polyline clip-path="url(#clip061)" style="stroke:#000000; stroke-linecap:round; stroke-linejoin:round; stroke-width:2; stroke-opacity:0.1; fill:none" points="262.589,1136.23 2352.76,1136.23 "/>
<polyline clip-path="url(#clip061)" style="stroke:#000000; stroke-linecap:round; stroke-linejoin:round; stroke-width:2; stroke-opacity:0.1; fill:none" points="262.589,715.772 2352.76,715.772 "/>
<polyline clip-path="url(#clip061)" style="stroke:#000000; stroke-linecap:round; stroke-linejoin:round; stroke-width:2; stroke-opacity:0.1; fill:none" points="262.589,295.314 2352.76,295.314 "/>
<polyline clip-path="url(#clip060)" style="stroke:#000000; stroke-linecap:round; stroke-linejoin:round; stroke-width:4; stroke-opacity:1; fill:none" points="262.589,1384.3 2352.76,1384.3 "/>
<polyline clip-path="url(#clip060)" style="stroke:#000000; stroke-linecap:round; stroke-linejoin:round; stroke-width:4; stroke-opacity:1; fill:none" points="321.745,1384.3 321.745,1365.4 "/>
<polyline clip-path="url(#clip060)" style="stroke:#000000; stroke-linecap:round; stroke-linejoin:round; stroke-width:4; stroke-opacity:1; fill:none" points="1307.67,1384.3 1307.67,1365.4 "/>
<polyline clip-path="url(#clip060)" style="stroke:#000000; stroke-linecap:round; stroke-linejoin:round; stroke-width:4; stroke-opacity:1; fill:none" points="2293.6,1384.3 2293.6,1365.4 "/>
<path clip-path="url(#clip060)" d="M276.38 1443.06 L320.894 1443.06 L320.894 1448.96 L276.38 1448.96 L276.38 1443.06 Z" fill="#000000" fill-rule="nonzero" fill-opacity="1" /><path clip-path="url(#clip060)" d="M337.248 1462.4 L348.706 1462.4 L348.706 1422.85 L336.241 1425.35 L336.241 1418.96 L348.637 1416.46 L355.651 1416.46 L355.651 1462.4 L367.109 1462.4 L367.109 1468.3 L337.248 1468.3 L337.248 1462.4 Z" fill="#000000" fill-rule="nonzero" fill-opacity="1" /><path clip-path="url(#clip060)" d="M1307.67 1421.08 Q1302.26 1421.08 1299.51 1426.43 Q1296.8 1431.74 1296.8 1442.43 Q1296.8 1453.09 1299.51 1458.44 Q1302.26 1463.75 1307.67 1463.75 Q1313.12 1463.75 1315.83 1458.44 Q1318.58 1453.09 1318.58 1442.43 Q1318.58 1431.74 1315.83 1426.43 Q1313.12 1421.08 1307.67 1421.08 M1307.67 1415.52 Q1316.39 1415.52 1320.97 1422.43 Q1325.59 1429.31 1325.59 1442.43 Q1325.59 1455.52 1320.97 1462.43 Q1316.39 1469.31 1307.67 1469.31 Q1298.96 1469.31 1294.34 1462.43 Q1289.76 1455.52 1289.76 1442.43 Q1289.76 1429.31 1294.34 1422.43 Q1298.96 1415.52 1307.67 1415.52 Z" fill="#000000" fill-rule="nonzero" fill-opacity="1" /><path clip-path="url(#clip060)" d="M2279.17 1462.4 L2290.63 1462.4 L2290.63 1422.85 L2278.17 1425.35 L2278.17 1418.96 L2290.56 1416.46 L2297.58 1416.46 L2297.58 1462.4 L2309.03 1462.4 L2309.03 1468.3 L2279.17 1468.3 L2279.17 1462.4 Z" fill="#000000" fill-rule="nonzero" fill-opacity="1" /><path clip-path="url(#clip060)" d="M1331.84 1529.15 L1313.09 1554.38 L1332.81 1581 L1322.76 1581 L1307.67 1560.63 L1292.58 1581 L1282.53 1581 L1302.67 1553.87 L1284.25 1529.15 L1294.29 1529.15 L1308.04 1547.62 L1321.79 1529.15 L1331.84 1529.15 Z" fill="#000000" fill-rule="nonzero" fill-opacity="1" /><polyline clip-path="url(#clip060)" style="stroke:#000000; stroke-linecap:round; stroke-linejoin:round; stroke-width:4; stroke-opacity:1; fill:none" points="262.589,1384.3 262.589,47.2441 "/>
<polyline clip-path="url(#clip060)" style="stroke:#000000; stroke-linecap:round; stroke-linejoin:round; stroke-width:4; stroke-opacity:1; fill:none" points="262.589,1136.23 281.486,1136.23 "/>
<polyline clip-path="url(#clip060)" style="stroke:#000000; stroke-linecap:round; stroke-linejoin:round; stroke-width:4; stroke-opacity:1; fill:none" points="262.589,715.772 281.486,715.772 "/>
<polyline clip-path="url(#clip060)" style="stroke:#000000; stroke-linecap:round; stroke-linejoin:round; stroke-width:4; stroke-opacity:1; fill:none" points="262.589,295.314 281.486,295.314 "/>
<path clip-path="url(#clip060)" d="M135.86 1136.91 L180.374 1136.91 L180.374 1142.81 L135.86 1142.81 L135.86 1136.91 Z" fill="#000000" fill-rule="nonzero" fill-opacity="1" /><path clip-path="url(#clip060)" d="M196.728 1156.25 L208.186 1156.25 L208.186 1116.7 L195.721 1119.2 L195.721 1112.81 L208.117 1110.31 L215.131 1110.31 L215.131 1156.25 L226.589 1156.25 L226.589 1162.15 L196.728 1162.15 L196.728 1156.25 Z" fill="#000000" fill-rule="nonzero" fill-opacity="1" /><path clip-path="url(#clip060)" d="M208.672 694.47 Q203.256 694.47 200.513 699.817 Q197.804 705.13 197.804 715.824 Q197.804 726.484 200.513 731.831 Q203.256 737.143 208.672 737.143 Q214.124 737.143 216.832 731.831 Q219.575 726.484 219.575 715.824 Q219.575 705.13 216.832 699.817 Q214.124 694.47 208.672 694.47 M208.672 688.914 Q217.387 688.914 221.971 695.824 Q226.589 702.699 226.589 715.824 Q226.589 728.914 221.971 735.824 Q217.387 742.699 208.672 742.699 Q199.957 742.699 195.339 735.824 Q190.756 728.914 190.756 715.824 Q190.756 702.699 195.339 695.824 Q199.957 688.914 208.672 688.914 Z" fill="#000000" fill-rule="nonzero" fill-opacity="1" /><path clip-path="url(#clip060)" d="M196.728 315.331 L208.186 315.331 L208.186 275.783 L195.721 278.283 L195.721 271.894 L208.117 269.394 L215.131 269.394 L215.131 315.331 L226.589 315.331 L226.589 321.234 L196.728 321.234 L196.728 315.331 Z" fill="#000000" fill-rule="nonzero" fill-opacity="1" /><path clip-path="url(#clip060)" d="M83.9389 713.318 Q93.1982 716.929 96.0222 720.355 Q98.8463 723.781 98.8463 729.522 L98.8463 736.327 L91.7167 736.327 L91.7167 731.327 Q91.7167 727.809 90.05 725.865 Q88.3834 723.92 82.1797 721.559 L78.2908 720.031 L27.2726 741.003 L27.2726 731.976 L67.8279 715.772 L27.2726 699.568 L27.2726 690.541 L83.9389 713.318 Z" fill="#000000" fill-rule="nonzero" fill-opacity="1" /><circle clip-path="url(#clip061)" cx="321.745" cy="1181.28" r="21.6" fill="#009af9" fill-rule="evenodd" fill-opacity="1" stroke="none"/>
<circle clip-path="url(#clip061)" cx="341.662" cy="1177.83" r="21.6" fill="#009af9" fill-rule="evenodd" fill-opacity="1" stroke="none"/>
<circle clip-path="url(#clip061)" cx="361.58" cy="1174.26" r="21.6" fill="#009af9" fill-rule="evenodd" fill-opacity="1" stroke="none"/>
<circle clip-path="url(#clip061)" cx="381.498" cy="1170.57" r="21.6" fill="#009af9" fill-rule="evenodd" fill-opacity="1" stroke="none"/>
<circle clip-path="url(#clip061)" cx="401.415" cy="1166.76" r="21.6" fill="#009af9" fill-rule="evenodd" fill-opacity="1" stroke="none"/>
<circle clip-path="url(#clip061)" cx="421.333" cy="1162.81" r="21.6" fill="#009af9" fill-rule="evenodd" fill-opacity="1" stroke="none"/>
<circle clip-path="url(#clip061)" cx="441.251" cy="1158.73" r="21.6" fill="#009af9" fill-rule="evenodd" fill-opacity="1" stroke="none"/>
<circle clip-path="url(#clip061)" cx="461.169" cy="1154.5" r="21.6" fill="#009af9" fill-rule="evenodd" fill-opacity="1" stroke="none"/>
<circle clip-path="url(#clip061)" cx="481.086" cy="1150.12" r="21.6" fill="#009af9" fill-rule="evenodd" fill-opacity="1" stroke="none"/>
<circle clip-path="url(#clip061)" cx="501.004" cy="1145.58" r="21.6" fill="#009af9" fill-rule="evenodd" fill-opacity="1" stroke="none"/>
<circle clip-path="url(#clip061)" cx="520.922" cy="1140.88" r="21.6" fill="#009af9" fill-rule="evenodd" fill-opacity="1" stroke="none"/>
<circle clip-path="url(#clip061)" cx="540.84" cy="1136" r="21.6" fill="#009af9" fill-rule="evenodd" fill-opacity="1" stroke="none"/>
<circle clip-path="url(#clip061)" cx="560.757" cy="1130.94" r="21.6" fill="#009af9" fill-rule="evenodd" fill-opacity="1" stroke="none"/>
<circle clip-path="url(#clip061)" cx="580.675" cy="1125.69" r="21.6" fill="#009af9" fill-rule="evenodd" fill-opacity="1" stroke="none"/>
<circle clip-path="url(#clip061)" cx="600.593" cy="1120.24" r="21.6" fill="#009af9" fill-rule="evenodd" fill-opacity="1" stroke="none"/>
<circle clip-path="url(#clip061)" cx="620.511" cy="1114.57" r="21.6" fill="#009af9" fill-rule="evenodd" fill-opacity="1" stroke="none"/>
<circle clip-path="url(#clip061)" cx="640.428" cy="1108.69" r="21.6" fill="#009af9" fill-rule="evenodd" fill-opacity="1" stroke="none"/>
<circle clip-path="url(#clip061)" cx="660.346" cy="1102.57" r="21.6" fill="#009af9" fill-rule="evenodd" fill-opacity="1" stroke="none"/>
<circle clip-path="url(#clip061)" cx="680.264" cy="1096.21" r="21.6" fill="#009af9" fill-rule="evenodd" fill-opacity="1" stroke="none"/>
<circle clip-path="url(#clip061)" cx="700.181" cy="1089.6" r="21.6" fill="#009af9" fill-rule="evenodd" fill-opacity="1" stroke="none"/>
<circle clip-path="url(#clip061)" cx="720.099" cy="1082.72" r="21.6" fill="#009af9" fill-rule="evenodd" fill-opacity="1" stroke="none"/>
<circle clip-path="url(#clip061)" cx="740.017" cy="1075.56" r="21.6" fill="#009af9" fill-rule="evenodd" fill-opacity="1" stroke="none"/>
<circle clip-path="url(#clip061)" cx="759.935" cy="1068.11" r="21.6" fill="#009af9" fill-rule="evenodd" fill-opacity="1" stroke="none"/>
<circle clip-path="url(#clip061)" cx="779.852" cy="1060.35" r="21.6" fill="#009af9" fill-rule="evenodd" fill-opacity="1" stroke="none"/>
<circle clip-path="url(#clip061)" cx="799.77" cy="1052.27" r="21.6" fill="#009af9" fill-rule="evenodd" fill-opacity="1" stroke="none"/>
<circle clip-path="url(#clip061)" cx="819.688" cy="1043.86" r="21.6" fill="#009af9" fill-rule="evenodd" fill-opacity="1" stroke="none"/>
<circle clip-path="url(#clip061)" cx="839.606" cy="1035.11" r="21.6" fill="#009af9" fill-rule="evenodd" fill-opacity="1" stroke="none"/>
<circle clip-path="url(#clip061)" cx="859.523" cy="1025.99" r="21.6" fill="#009af9" fill-rule="evenodd" fill-opacity="1" stroke="none"/>
<circle clip-path="url(#clip061)" cx="879.441" cy="1016.5" r="21.6" fill="#009af9" fill-rule="evenodd" fill-opacity="1" stroke="none"/>
<circle clip-path="url(#clip061)" cx="899.359" cy="1006.62" r="21.6" fill="#009af9" fill-rule="evenodd" fill-opacity="1" stroke="none"/>
<circle clip-path="url(#clip061)" cx="919.277" cy="996.346" r="21.6" fill="#009af9" fill-rule="evenodd" fill-opacity="1" stroke="none"/>
<circle clip-path="url(#clip061)" cx="939.194" cy="985.657" r="21.6" fill="#009af9" fill-rule="evenodd" fill-opacity="1" stroke="none"/>
<circle clip-path="url(#clip061)" cx="959.112" cy="974.545" r="21.6" fill="#009af9" fill-rule="evenodd" fill-opacity="1" stroke="none"/>
<circle clip-path="url(#clip061)" cx="979.03" cy="963.002" r="21.6" fill="#009af9" fill-rule="evenodd" fill-opacity="1" stroke="none"/>
<circle clip-path="url(#clip061)" cx="998.947" cy="951.021" r="21.6" fill="#009af9" fill-rule="evenodd" fill-opacity="1" stroke="none"/>
<circle clip-path="url(#clip061)" cx="1018.87" cy="938.596" r="21.6" fill="#009af9" fill-rule="evenodd" fill-opacity="1" stroke="none"/>
<circle clip-path="url(#clip061)" cx="1038.78" cy="925.726" r="21.6" fill="#009af9" fill-rule="evenodd" fill-opacity="1" stroke="none"/>
<circle clip-path="url(#clip061)" cx="1058.7" cy="912.412" r="21.6" fill="#009af9" fill-rule="evenodd" fill-opacity="1" stroke="none"/>
<circle clip-path="url(#clip061)" cx="1078.62" cy="898.657" r="21.6" fill="#009af9" fill-rule="evenodd" fill-opacity="1" stroke="none"/>
<circle clip-path="url(#clip061)" cx="1098.54" cy="884.472" r="21.6" fill="#009af9" fill-rule="evenodd" fill-opacity="1" stroke="none"/>
<circle clip-path="url(#clip061)" cx="1118.45" cy="869.868" r="21.6" fill="#009af9" fill-rule="evenodd" fill-opacity="1" stroke="none"/>
<circle clip-path="url(#clip061)" cx="1138.37" cy="854.865" r="21.6" fill="#009af9" fill-rule="evenodd" fill-opacity="1" stroke="none"/>
<circle clip-path="url(#clip061)" cx="1158.29" cy="839.485" r="21.6" fill="#009af9" fill-rule="evenodd" fill-opacity="1" stroke="none"/>
<circle clip-path="url(#clip061)" cx="1178.21" cy="823.757" r="21.6" fill="#009af9" fill-rule="evenodd" fill-opacity="1" stroke="none"/>
<circle clip-path="url(#clip061)" cx="1198.12" cy="807.713" r="21.6" fill="#009af9" fill-rule="evenodd" fill-opacity="1" stroke="none"/>
<circle clip-path="url(#clip061)" cx="1218.04" cy="791.393" r="21.6" fill="#009af9" fill-rule="evenodd" fill-opacity="1" stroke="none"/>
<circle clip-path="url(#clip061)" cx="1237.96" cy="774.839" r="21.6" fill="#009af9" fill-rule="evenodd" fill-opacity="1" stroke="none"/>
<circle clip-path="url(#clip061)" cx="1257.88" cy="758.099" r="21.6" fill="#009af9" fill-rule="evenodd" fill-opacity="1" stroke="none"/>
<circle clip-path="url(#clip061)" cx="1277.8" cy="741.223" r="21.6" fill="#009af9" fill-rule="evenodd" fill-opacity="1" stroke="none"/>
<circle clip-path="url(#clip061)" cx="1297.71" cy="724.265" r="21.6" fill="#009af9" fill-rule="evenodd" fill-opacity="1" stroke="none"/>
<circle clip-path="url(#clip061)" cx="1317.63" cy="707.279" r="21.6" fill="#009af9" fill-rule="evenodd" fill-opacity="1" stroke="none"/>
<circle clip-path="url(#clip061)" cx="1337.55" cy="690.321" r="21.6" fill="#009af9" fill-rule="evenodd" fill-opacity="1" stroke="none"/>
<circle clip-path="url(#clip061)" cx="1357.47" cy="673.445" r="21.6" fill="#009af9" fill-rule="evenodd" fill-opacity="1" stroke="none"/>
<circle clip-path="url(#clip061)" cx="1377.38" cy="656.705" r="21.6" fill="#009af9" fill-rule="evenodd" fill-opacity="1" stroke="none"/>
<circle clip-path="url(#clip061)" cx="1397.3" cy="640.151" r="21.6" fill="#009af9" fill-rule="evenodd" fill-opacity="1" stroke="none"/>
<circle clip-path="url(#clip061)" cx="1417.22" cy="623.831" r="21.6" fill="#009af9" fill-rule="evenodd" fill-opacity="1" stroke="none"/>
<circle clip-path="url(#clip061)" cx="1437.14" cy="607.787" r="21.6" fill="#009af9" fill-rule="evenodd" fill-opacity="1" stroke="none"/>
<circle clip-path="url(#clip061)" cx="1457.06" cy="592.059" r="21.6" fill="#009af9" fill-rule="evenodd" fill-opacity="1" stroke="none"/>
<circle clip-path="url(#clip061)" cx="1476.97" cy="576.679" r="21.6" fill="#009af9" fill-rule="evenodd" fill-opacity="1" stroke="none"/>
<circle clip-path="url(#clip061)" cx="1496.89" cy="561.676" r="21.6" fill="#009af9" fill-rule="evenodd" fill-opacity="1" stroke="none"/>
<circle clip-path="url(#clip061)" cx="1516.81" cy="547.072" r="21.6" fill="#009af9" fill-rule="evenodd" fill-opacity="1" stroke="none"/>
<circle clip-path="url(#clip061)" cx="1536.73" cy="532.887" r="21.6" fill="#009af9" fill-rule="evenodd" fill-opacity="1" stroke="none"/>
<circle clip-path="url(#clip061)" cx="1556.64" cy="519.132" r="21.6" fill="#009af9" fill-rule="evenodd" fill-opacity="1" stroke="none"/>
<circle clip-path="url(#clip061)" cx="1576.56" cy="505.818" r="21.6" fill="#009af9" fill-rule="evenodd" fill-opacity="1" stroke="none"/>
<circle clip-path="url(#clip061)" cx="1596.48" cy="492.948" r="21.6" fill="#009af9" fill-rule="evenodd" fill-opacity="1" stroke="none"/>
<circle clip-path="url(#clip061)" cx="1616.4" cy="480.523" r="21.6" fill="#009af9" fill-rule="evenodd" fill-opacity="1" stroke="none"/>
<circle clip-path="url(#clip061)" cx="1636.31" cy="468.542" r="21.6" fill="#009af9" fill-rule="evenodd" fill-opacity="1" stroke="none"/>
<circle clip-path="url(#clip061)" cx="1656.23" cy="456.999" r="21.6" fill="#009af9" fill-rule="evenodd" fill-opacity="1" stroke="none"/>
<circle clip-path="url(#clip061)" cx="1676.15" cy="445.887" r="21.6" fill="#009af9" fill-rule="evenodd" fill-opacity="1" stroke="none"/>
<circle clip-path="url(#clip061)" cx="1696.07" cy="435.198" r="21.6" fill="#009af9" fill-rule="evenodd" fill-opacity="1" stroke="none"/>
<circle clip-path="url(#clip061)" cx="1715.99" cy="424.92" r="21.6" fill="#009af9" fill-rule="evenodd" fill-opacity="1" stroke="none"/>
<circle clip-path="url(#clip061)" cx="1735.9" cy="415.042" r="21.6" fill="#009af9" fill-rule="evenodd" fill-opacity="1" stroke="none"/>
<circle clip-path="url(#clip061)" cx="1755.82" cy="405.552" r="21.6" fill="#009af9" fill-rule="evenodd" fill-opacity="1" stroke="none"/>
<circle clip-path="url(#clip061)" cx="1775.74" cy="396.435" r="21.6" fill="#009af9" fill-rule="evenodd" fill-opacity="1" stroke="none"/>
<circle clip-path="url(#clip061)" cx="1795.66" cy="387.679" r="21.6" fill="#009af9" fill-rule="evenodd" fill-opacity="1" stroke="none"/>
<circle clip-path="url(#clip061)" cx="1815.57" cy="379.27" r="21.6" fill="#009af9" fill-rule="evenodd" fill-opacity="1" stroke="none"/>
<circle clip-path="url(#clip061)" cx="1835.49" cy="371.194" r="21.6" fill="#009af9" fill-rule="evenodd" fill-opacity="1" stroke="none"/>
<circle clip-path="url(#clip061)" cx="1855.41" cy="363.436" r="21.6" fill="#009af9" fill-rule="evenodd" fill-opacity="1" stroke="none"/>
<circle clip-path="url(#clip061)" cx="1875.33" cy="355.984" r="21.6" fill="#009af9" fill-rule="evenodd" fill-opacity="1" stroke="none"/>
<circle clip-path="url(#clip061)" cx="1895.25" cy="348.825" r="21.6" fill="#009af9" fill-rule="evenodd" fill-opacity="1" stroke="none"/>
<circle clip-path="url(#clip061)" cx="1915.16" cy="341.944" r="21.6" fill="#009af9" fill-rule="evenodd" fill-opacity="1" stroke="none"/>
<circle clip-path="url(#clip061)" cx="1935.08" cy="335.33" r="21.6" fill="#009af9" fill-rule="evenodd" fill-opacity="1" stroke="none"/>
<circle clip-path="url(#clip061)" cx="1955" cy="328.971" r="21.6" fill="#009af9" fill-rule="evenodd" fill-opacity="1" stroke="none"/>
<circle clip-path="url(#clip061)" cx="1974.92" cy="322.855" r="21.6" fill="#009af9" fill-rule="evenodd" fill-opacity="1" stroke="none"/>
<circle clip-path="url(#clip061)" cx="1994.83" cy="316.971" r="21.6" fill="#009af9" fill-rule="evenodd" fill-opacity="1" stroke="none"/>
<circle clip-path="url(#clip061)" cx="2014.75" cy="311.307" r="21.6" fill="#009af9" fill-rule="evenodd" fill-opacity="1" stroke="none"/>
<circle clip-path="url(#clip061)" cx="2034.67" cy="305.854" r="21.6" fill="#009af9" fill-rule="evenodd" fill-opacity="1" stroke="none"/>
<circle clip-path="url(#clip061)" cx="2054.59" cy="300.602" r="21.6" fill="#009af9" fill-rule="evenodd" fill-opacity="1" stroke="none"/>
<circle clip-path="url(#clip061)" cx="2074.51" cy="295.542" r="21.6" fill="#009af9" fill-rule="evenodd" fill-opacity="1" stroke="none"/>
<circle clip-path="url(#clip061)" cx="2094.42" cy="290.664" r="21.6" fill="#009af9" fill-rule="evenodd" fill-opacity="1" stroke="none"/>
<circle clip-path="url(#clip061)" cx="2114.34" cy="285.96" r="21.6" fill="#009af9" fill-rule="evenodd" fill-opacity="1" stroke="none"/>
<circle clip-path="url(#clip061)" cx="2134.26" cy="281.423" r="21.6" fill="#009af9" fill-rule="evenodd" fill-opacity="1" stroke="none"/>
<circle clip-path="url(#clip061)" cx="2154.18" cy="277.044" r="21.6" fill="#009af9" fill-rule="evenodd" fill-opacity="1" stroke="none"/>
<circle clip-path="url(#clip061)" cx="2174.09" cy="272.816" r="21.6" fill="#009af9" fill-rule="evenodd" fill-opacity="1" stroke="none"/>
<circle clip-path="url(#clip061)" cx="2194.01" cy="268.732" r="21.6" fill="#009af9" fill-rule="evenodd" fill-opacity="1" stroke="none"/>
<circle clip-path="url(#clip061)" cx="2213.93" cy="264.787" r="21.6" fill="#009af9" fill-rule="evenodd" fill-opacity="1" stroke="none"/>
<circle clip-path="url(#clip061)" cx="2233.85" cy="260.973" r="21.6" fill="#009af9" fill-rule="evenodd" fill-opacity="1" stroke="none"/>
<circle clip-path="url(#clip061)" cx="2253.76" cy="257.284" r="21.6" fill="#009af9" fill-rule="evenodd" fill-opacity="1" stroke="none"/>
<circle clip-path="url(#clip061)" cx="2273.68" cy="253.716" r="21.6" fill="#009af9" fill-rule="evenodd" fill-opacity="1" stroke="none"/>
<circle clip-path="url(#clip061)" cx="2293.6" cy="250.263" r="21.6" fill="#009af9" fill-rule="evenodd" fill-opacity="1" stroke="none"/>
<polyline clip-path="url(#clip061)" style="stroke:#e26f46; stroke-linecap:round; stroke-linejoin:round; stroke-width:8; stroke-opacity:1; fill:none" points="321.745,1235.8 341.662,1226.74 361.58,1217.68 381.498,1208.62 401.415,1199.56 421.333,1190.5 441.251,1181.44 461.169,1172.38 481.086,1163.32 501.004,1154.26 520.922,1145.2 540.84,1136.14 560.757,1127.08 580.675,1118.02 600.593,1108.95 620.511,1099.89 640.428,1090.83 660.346,1081.77 680.264,1072.71 700.181,1063.65 720.099,1054.59 740.017,1045.53 759.935,1036.47 779.852,1027.41 799.77,1018.35 819.688,1009.29 839.606,1000.23 859.523,991.166 879.441,982.105 899.359,973.045 919.277,963.984 939.194,954.923 959.112,945.863 979.03,936.802 998.947,927.741 1018.87,918.681 1038.78,909.62 1058.7,900.559 1078.62,891.499 1098.54,882.438 1118.45,873.377 1138.37,864.317 1158.29,855.256 1178.21,846.195 1198.12,837.135 1218.04,828.074 1237.96,819.013 1257.88,809.953 1277.8,800.892 1297.71,791.831 1317.63,782.771 1337.55,773.71 1357.47,764.649 1377.38,755.589 1397.3,746.528 1417.22,737.467 1437.14,728.407 1457.06,719.346 1476.97,710.285 1496.89,701.225 1516.81,692.164 1536.73,683.103 1556.64,674.043 1576.56,664.982 1596.48,655.921 1616.4,646.861 1636.31,637.8 1656.23,628.739 1676.15,619.679 1696.07,610.618 1715.99,601.557 1735.9,592.497 1755.82,583.436 1775.74,574.375 1795.66,565.315 1815.57,556.254 1835.49,547.193 1855.41,538.133 1875.33,529.072 1895.25,520.011 1915.16,510.951 1935.08,501.89 1955,492.829 1974.92,483.769 1994.83,474.708 2014.75,465.647 2034.67,456.586 2054.59,447.526 2074.51,438.465 2094.42,429.404 2114.34,420.344 2134.26,411.283 2154.18,402.222 2174.09,393.162 2194.01,384.101 2213.93,375.04 2233.85,365.98 2253.76,356.919 2273.68,347.858 2293.6,338.798 "/>
<polyline clip-path="url(#clip061)" style="stroke:#3da44d; stroke-linecap:round; stroke-linejoin:round; stroke-width:8; stroke-opacity:1; fill:none" points="321.745,1181.28 341.662,1177.83 361.58,1174.26 381.498,1170.57 401.415,1166.76 421.333,1162.81 441.251,1158.73 461.169,1154.5 481.086,1150.12 501.004,1145.58 520.922,1140.88 540.84,1136 560.757,1130.94 580.675,1125.69 600.593,1120.24 620.511,1114.57 640.428,1108.69 660.346,1102.57 680.264,1096.21 700.181,1089.6 720.099,1082.72 740.017,1075.56 759.935,1068.11 779.852,1060.35 799.77,1052.27 819.688,1043.86 839.606,1035.11 859.523,1025.99 879.441,1016.5 899.359,1006.62 919.277,996.347 939.194,985.657 959.112,974.546 979.03,963.003 998.947,951.021 1018.87,938.596 1038.78,925.726 1058.7,912.411 1078.62,898.656 1098.54,884.471 1118.45,869.868 1138.37,854.865 1158.29,839.486 1178.21,823.757 1198.12,807.714 1218.04,791.393 1237.96,774.839 1257.88,758.098 1277.8,741.223 1297.71,724.265 1317.63,707.281 1337.55,690.322 1357.47,673.438 1377.38,656.673 1397.3,640.059 1417.22,623.616 1437.14,607.344 1457.06,591.215 1476.97,575.173 1496.89,559.119 1516.81,542.907 1536.73,526.329 1556.64,509.107 1576.56,490.88 1596.48,471.186 1616.4,449.447 1636.31,424.951 1656.23,396.832 1676.15,364.045 1696.07,325.342 1715.99,279.246 1735.9,224.016 1755.82,157.619 1775.74,77.6911 1795.66,-18.5042 1815.57,-134.116 1835.49,-272.755 1855.41,-438.543 1875.33,-636.172 1895.25,-870.957 1915.16,-1148.91 1935.08,-1476.8 1955,-1862.23 1974.92,-2313.73 1994.83,-2840.82 2014.75,-3454.12 2034.67,-4165.44 2054.59,-4987.9 2074.51,-5936.02 2094.42,-7025.85 2114.34,-8275.12 2134.26,-9703.34 2154.18,-11332 2174.09,-13184.5 2194.01,-15286.9 2213.93,-17667.2 2233.85,-20356.5 2253.76,-23388.2 2273.68,-26799.2 2293.6,-30629.4 "/>
<polyline clip-path="url(#clip061)" style="stroke:#c271d2; stroke-linecap:round; stroke-linejoin:round; stroke-width:8; stroke-opacity:1; fill:none" points="321.745,1181.28 341.662,1177.83 361.58,1174.26 381.498,1170.57 401.415,1166.76 421.333,1162.81 441.251,1158.73 461.169,1154.5 481.086,1150.12 501.004,1145.58 520.922,1140.88 540.84,1136 560.757,1130.94 580.675,1125.69 600.593,1120.24 620.511,1114.57 640.428,1108.69 660.346,1102.57 680.264,1096.21 700.181,1089.6 720.099,1082.72 740.017,1075.56 759.935,1068.11 779.852,1060.35 799.77,1052.27 819.688,1043.86 839.606,1035.11 859.523,1025.99 879.441,1016.5 899.359,1006.62 919.277,996.346 939.194,985.657 959.112,974.545 979.03,963.002 998.947,951.021 1018.87,938.596 1038.78,925.726 1058.7,912.412 1078.62,898.657 1098.54,884.472 1118.45,869.868 1138.37,854.865 1158.29,839.485 1178.21,823.757 1198.12,807.713 1218.04,791.393 1237.96,774.839 1257.88,758.099 1277.8,741.223 1297.71,724.265 1317.63,707.352 1337.55,691.222 1357.47,678.692 1377.38,675.613 1397.3,687.06 1417.22,708.466 1437.14,723.755 1457.06,721.473 1476.97,711.487 1496.89,711.936 1516.81,720.782 1536.73,721.368 1556.64,714.62 1576.56,715.674 1596.48,721.59 1616.4,719.226 1636.31,715.255 1656.23,719.305 1676.15,720.932 1696.07,716.411 1715.99,717.589 1735.9,720.471 1755.82,716.621 1775.74,716.3 1795.66,719.533 1815.57,716.795 1835.49,716.852 1855.41,719.568 1875.33,716.381 1895.25,717.244 1915.16,718.587 1935.08,715.636 1955,718.516 1974.92,717.247 1994.83,716.487 2014.75,718.308 2034.67,715.783 2054.59,718.618 2074.51,715.741 2094.42,718.231 2114.34,715.87 2134.26,718.247 2154.18,715.745 2174.09,717.642 2194.01,717.469 2213.93,715.621 2233.85,715.939 2253.76,715.97 2273.68,715.45 2293.6,707.305 "/>
<path clip-path="url(#clip060)" d="M332.261 454.693 L751.358 454.693 L751.358 91.8126 L332.261 91.8126  Z" fill="#ffffff" fill-rule="evenodd" fill-opacity="1"/>
<polyline clip-path="url(#clip060)" style="stroke:#000000; stroke-linecap:round; stroke-linejoin:round; stroke-width:4; stroke-opacity:1; fill:none" points="332.261,454.693 751.358,454.693 751.358,91.8126 332.261,91.8126 332.261,454.693 "/>
<polyline clip-path="url(#clip060)" style="stroke:#e26f46; stroke-linecap:round; stroke-linejoin:round; stroke-width:14; stroke-opacity:1; fill:none" points="355.485,182.533 494.83,182.533 "/>
<path clip-path="url(#clip060)" d="M518.054 149.741 L525.548 149.741 L525.548 186.968 L547.787 167.402 L557.307 167.402 L533.245 188.629 L558.32 212.773 L548.598 212.773 L525.548 190.614 L525.548 212.773 L518.054 212.773 L518.054 149.741 Z" fill="#000000" fill-rule="nonzero" fill-opacity="1" /><path clip-path="url(#clip060)" d="M567.353 175.099 L619.286 175.099 L619.286 181.905 L567.353 181.905 L567.353 175.099 M567.353 191.627 L619.286 191.627 L619.286 198.513 L567.353 198.513 L567.353 191.627 Z" fill="#000000" fill-rule="nonzero" fill-opacity="1" /><path clip-path="url(#clip060)" d="M643.996 205.886 L672.555 205.886 L672.555 212.773 L634.153 212.773 L634.153 205.886 Q638.811 201.066 646.832 192.964 Q654.893 184.821 656.959 182.472 Q660.889 178.056 662.428 175.018 Q664.008 171.94 664.008 168.982 Q664.008 164.162 660.605 161.124 Q657.243 158.085 651.815 158.085 Q647.966 158.085 643.672 159.422 Q639.419 160.759 634.558 163.473 L634.558 155.209 Q639.5 153.224 643.794 152.212 Q648.088 151.199 651.653 151.199 Q661.051 151.199 666.641 155.898 Q672.231 160.597 672.231 168.456 Q672.231 172.183 670.813 175.545 Q669.436 178.867 665.75 183.404 Q664.737 184.578 659.309 190.209 Q653.881 195.799 643.996 205.886 Z" fill="#000000" fill-rule="nonzero" fill-opacity="1" /><polyline clip-path="url(#clip060)" style="stroke:#3da44d; stroke-linecap:round; stroke-linejoin:round; stroke-width:14; stroke-opacity:1; fill:none" points="355.485,273.253 494.83,273.253 "/>
<path clip-path="url(#clip060)" d="M518.054 240.461 L525.548 240.461 L525.548 277.688 L547.787 258.122 L557.307 258.122 L533.245 279.349 L558.32 303.493 L548.598 303.493 L525.548 281.334 L525.548 303.493 L518.054 303.493 L518.054 240.461 Z" fill="#000000" fill-rule="nonzero" fill-opacity="1" /><path clip-path="url(#clip060)" d="M567.353 265.819 L619.286 265.819 L619.286 272.625 L567.353 272.625 L567.353 265.819 M567.353 282.347 L619.286 282.347 L619.286 289.233 L567.353 289.233 L567.353 282.347 Z" fill="#000000" fill-rule="nonzero" fill-opacity="1" /><path clip-path="url(#clip060)" d="M638.366 296.606 L651.734 296.606 L651.734 250.466 L637.191 253.383 L637.191 245.929 L651.653 243.013 L659.835 243.013 L659.835 296.606 L673.203 296.606 L673.203 303.493 L638.366 303.493 L638.366 296.606 Z" fill="#000000" fill-rule="nonzero" fill-opacity="1" /><path clip-path="url(#clip060)" d="M707.231 248.4 Q700.912 248.4 697.711 254.639 Q694.552 260.837 694.552 273.313 Q694.552 285.75 697.711 291.988 Q700.912 298.186 707.231 298.186 Q713.591 298.186 716.751 291.988 Q719.951 285.75 719.951 273.313 Q719.951 260.837 716.751 254.639 Q713.591 248.4 707.231 248.4 M707.231 241.919 Q717.399 241.919 722.746 249.98 Q728.134 258.001 728.134 273.313 Q728.134 288.585 722.746 296.647 Q717.399 304.667 707.231 304.667 Q697.063 304.667 691.675 296.647 Q686.328 288.585 686.328 273.313 Q686.328 258.001 691.675 249.98 Q697.063 241.919 707.231 241.919 Z" fill="#000000" fill-rule="nonzero" fill-opacity="1" /><polyline clip-path="url(#clip060)" style="stroke:#c271d2; stroke-linecap:round; stroke-linejoin:round; stroke-width:14; stroke-opacity:1; fill:none" points="355.485,363.973 494.83,363.973 "/>
<path clip-path="url(#clip060)" d="M518.054 331.181 L525.548 331.181 L525.548 368.408 L547.787 348.842 L557.307 348.842 L533.245 370.069 L558.32 394.213 L548.598 394.213 L525.548 372.054 L525.548 394.213 L518.054 394.213 L518.054 331.181 Z" fill="#000000" fill-rule="nonzero" fill-opacity="1" /><path clip-path="url(#clip060)" d="M567.353 356.539 L619.286 356.539 L619.286 363.345 L567.353 363.345 L567.353 356.539 M567.353 373.067 L619.286 373.067 L619.286 379.953 L567.353 379.953 L567.353 373.067 Z" fill="#000000" fill-rule="nonzero" fill-opacity="1" /><path clip-path="url(#clip060)" d="M637.191 392.957 L637.191 385.503 Q640.269 386.962 643.429 387.731 Q646.589 388.501 649.627 388.501 Q657.729 388.501 661.982 383.073 Q666.276 377.604 666.884 366.504 Q664.534 369.988 660.929 371.852 Q657.324 373.715 652.949 373.715 Q643.875 373.715 638.568 368.246 Q633.302 362.737 633.302 353.217 Q633.302 343.9 638.811 338.27 Q644.32 332.639 653.475 332.639 Q663.967 332.639 669.477 340.7 Q675.026 348.721 675.026 364.033 Q675.026 378.333 668.221 386.88 Q661.456 395.387 649.992 395.387 Q646.913 395.387 643.753 394.78 Q640.594 394.172 637.191 392.957 M653.475 367.315 Q658.985 367.315 662.185 363.547 Q665.426 359.78 665.426 353.217 Q665.426 346.696 662.185 342.928 Q658.985 339.12 653.475 339.12 Q647.966 339.12 644.725 342.928 Q641.525 346.696 641.525 353.217 Q641.525 359.78 644.725 363.547 Q647.966 367.315 653.475 367.315 Z" fill="#000000" fill-rule="nonzero" fill-opacity="1" /><path clip-path="url(#clip060)" d="M689.974 392.957 L689.974 385.503 Q693.053 386.962 696.212 387.731 Q699.372 388.501 702.41 388.501 Q710.512 388.501 714.766 383.073 Q719.06 377.604 719.667 366.504 Q717.318 369.988 713.712 371.852 Q710.107 373.715 705.732 373.715 Q696.658 373.715 691.351 368.246 Q686.085 362.737 686.085 353.217 Q686.085 343.9 691.594 338.27 Q697.104 332.639 706.259 332.639 Q716.751 332.639 722.26 340.7 Q727.81 348.721 727.81 364.033 Q727.81 378.333 721.004 386.88 Q714.239 395.387 702.775 395.387 Q699.696 395.387 696.537 394.78 Q693.377 394.172 689.974 392.957 M706.259 367.315 Q711.768 367.315 714.968 363.547 Q718.209 359.78 718.209 353.217 Q718.209 346.696 714.968 342.928 Q711.768 339.12 706.259 339.12 Q700.749 339.12 697.509 342.928 Q694.309 346.696 694.309 353.217 Q694.309 359.78 697.509 363.547 Q700.749 367.315 706.259 367.315 Z" fill="#000000" fill-rule="nonzero" fill-opacity="1" /></svg>
