<?xml version="1.0" encoding="utf-8"?>
<svg xmlns="http://www.w3.org/2000/svg" xmlns:xlink="http://www.w3.org/1999/xlink" width="600" height="350" viewBox="0 0 2400 1400">
<defs>
  <clipPath id="clip460">
    <rect x="0" y="0" width="2400" height="1400"/>
  </clipPath>
</defs>
<path clip-path="url(#clip460)" d="M0 1400 L2400 1400 L2400 0 L0 0  Z" fill="#ffffff" fill-rule="evenodd" fill-opacity="1"/>
<defs>
  <clipPath id="clip461">
    <rect x="437" y="131" width="1916" height="969"/>
  </clipPath>
</defs>
<path clip-path="url(#clip460)" d="M437.26 1099.37 L2352.76 1099.37 L2352.76 131.032 L437.26 131.032  Z" fill="#ffffff" fill-rule="evenodd" fill-opacity="1"/>
<polyline clip-path="url(#clip461)" style="stroke:#000000; stroke-linecap:round; stroke-linejoin:round; stroke-width:2; stroke-opacity:0.1; fill:none" points="491.472,1099.37 491.472,131.032 "/>
<polyline clip-path="url(#clip461)" style="stroke:#000000; stroke-linecap:round; stroke-linejoin:round; stroke-width:2; stroke-opacity:0.1; fill:none" points="559.663,1099.37 559.663,131.032 "/>
<polyline clip-path="url(#clip461)" style="stroke:#000000; stroke-linecap:round; stroke-linejoin:round; stroke-width:2; stroke-opacity:0.1; fill:none" points="661.95,1099.37 661.95,131.032 "/>
<polyline clip-path="url(#clip461)" style="stroke:#000000; stroke-linecap:round; stroke-linejoin:round; stroke-width:2; stroke-opacity:0.1; fill:none" points="2298.54,1099.37 2298.54,131.032 "/>
<polyline clip-path="url(#clip461)" style="stroke:#000000; stroke-linecap:round; stroke-linejoin:round; stroke-width:2; stroke-opacity:0.1; fill:none" points="437.26,1071.96 2352.76,1071.96 "/>
<polyline clip-path="url(#clip461)" style="stroke:#000000; stroke-linecap:round; stroke-linejoin:round; stroke-width:2; stroke-opacity:0.1; fill:none" points="437.26,824.573 2352.76,824.573 "/>
<polyline clip-path="url(#clip461)" style="stroke:#000000; stroke-linecap:round; stroke-linejoin:round; stroke-width:2; stroke-opacity:0.1; fill:none" points="437.26,577.183 2352.76,577.183 "/>
<polyline clip-path="url(#clip461)" style="stroke:#000000; stroke-linecap:round; stroke-linejoin:round; stroke-width:2; stroke-opacity:0.1; fill:none" points="437.26,329.793 2352.76,329.793 "/>
<polyline clip-path="url(#clip460)" style="stroke:#000000; stroke-linecap:round; stroke-linejoin:round; stroke-width:4; stroke-opacity:1; fill:none" points="437.26,1099.37 2352.76,1099.37 "/>
<polyline clip-path="url(#clip460)" style="stroke:#000000; stroke-linecap:round; stroke-linejoin:round; stroke-width:4; stroke-opacity:1; fill:none" points="491.472,1099.37 491.472,1080.47 "/>
<polyline clip-path="url(#clip460)" style="stroke:#000000; stroke-linecap:round; stroke-linejoin:round; stroke-width:4; stroke-opacity:1; fill:none" points="559.663,1099.37 559.663,1080.47 "/>
<polyline clip-path="url(#clip460)" style="stroke:#000000; stroke-linecap:round; stroke-linejoin:round; stroke-width:4; stroke-opacity:1; fill:none" points="661.95,1099.37 661.95,1080.47 "/>
<polyline clip-path="url(#clip460)" style="stroke:#000000; stroke-linecap:round; stroke-linejoin:round; stroke-width:4; stroke-opacity:1; fill:none" points="2298.54,1099.37 2298.54,1080.47 "/>
<path clip-path="url(#clip460)" d="M474.64 1187.28 L488.008 1187.28 L488.008 1141.14 L473.466 1144.06 L473.466 1136.6 L487.927 1133.69 L496.11 1133.69 L496.11 1187.28 L509.478 1187.28 L509.478 1194.17 L474.64 1194.17 L474.64 1187.28 Z" fill="#000000" fill-rule="nonzero" fill-opacity="1" /><path clip-path="url(#clip460)" d="M567.097 1161.56 Q572.97 1162.81 576.252 1166.78 Q579.573 1170.75 579.573 1176.59 Q579.573 1185.54 573.416 1190.44 Q567.259 1195.34 555.916 1195.34 Q552.108 1195.34 548.057 1194.57 Q544.047 1193.84 539.753 1192.34 L539.753 1184.45 Q543.156 1186.43 547.207 1187.44 Q551.258 1188.46 555.673 1188.46 Q563.37 1188.46 567.38 1185.42 Q571.431 1182.38 571.431 1176.59 Q571.431 1171.24 567.664 1168.24 Q563.937 1165.2 557.253 1165.2 L550.204 1165.2 L550.204 1158.48 L557.577 1158.48 Q563.613 1158.48 566.813 1156.09 Q570.013 1153.66 570.013 1149.12 Q570.013 1144.46 566.692 1141.99 Q563.41 1139.48 557.253 1139.48 Q553.891 1139.48 550.042 1140.21 Q546.194 1140.94 541.576 1142.48 L541.576 1135.19 Q546.234 1133.89 550.285 1133.24 Q554.377 1132.59 557.982 1132.59 Q567.299 1132.59 572.727 1136.85 Q578.156 1141.06 578.156 1148.27 Q578.156 1153.29 575.279 1156.78 Q572.403 1160.22 567.097 1161.56 Z" fill="#000000" fill-rule="nonzero" fill-opacity="1" /><path clip-path="url(#clip460)" d="M662.659 1160.67 Q657.15 1160.67 653.909 1164.43 Q650.709 1168.2 650.709 1174.76 Q650.709 1181.29 653.909 1185.09 Q657.15 1188.86 662.659 1188.86 Q668.168 1188.86 671.369 1185.09 Q674.609 1181.29 674.609 1174.76 Q674.609 1168.2 671.369 1164.43 Q668.168 1160.67 662.659 1160.67 M678.903 1135.02 L678.903 1142.48 Q675.825 1141.02 672.665 1140.25 Q669.546 1139.48 666.467 1139.48 Q658.365 1139.48 654.071 1144.95 Q649.818 1150.42 649.21 1161.48 Q651.6 1157.95 655.206 1156.09 Q658.811 1154.19 663.145 1154.19 Q672.26 1154.19 677.526 1159.74 Q682.833 1165.24 682.833 1174.76 Q682.833 1184.08 677.323 1189.71 Q671.814 1195.34 662.659 1195.34 Q652.167 1195.34 646.618 1187.32 Q641.068 1179.26 641.068 1163.99 Q641.068 1149.65 647.873 1141.14 Q654.679 1132.59 666.143 1132.59 Q669.222 1132.59 672.341 1133.2 Q675.501 1133.81 678.903 1135.02 Z" fill="#000000" fill-rule="nonzero" fill-opacity="1" /><path clip-path="url(#clip460)" d="M2253.84 1133.69 L2285.97 1133.69 L2285.97 1140.57 L2261.34 1140.57 L2261.34 1155.4 Q2263.12 1154.79 2264.9 1154.51 Q2266.68 1154.19 2268.47 1154.19 Q2278.59 1154.19 2284.51 1159.74 Q2290.42 1165.28 2290.42 1174.76 Q2290.42 1184.53 2284.35 1189.95 Q2278.27 1195.34 2267.21 1195.34 Q2263.4 1195.34 2259.43 1194.69 Q2255.5 1194.05 2251.29 1192.75 L2251.29 1184.53 Q2254.94 1186.51 2258.82 1187.48 Q2262.71 1188.46 2267.05 1188.46 Q2274.06 1188.46 2278.15 1184.77 Q2282.24 1181.08 2282.24 1174.76 Q2282.24 1168.44 2278.15 1164.76 Q2274.06 1161.07 2267.05 1161.07 Q2263.77 1161.07 2260.49 1161.8 Q2257.24 1162.53 2253.84 1164.07 L2253.84 1133.69 Z" fill="#000000" fill-rule="nonzero" fill-opacity="1" /><path clip-path="url(#clip460)" d="M2329.03 1140.82 L2308.37 1173.1 L2329.03 1173.1 L2329.03 1140.82 M2326.88 1133.69 L2337.17 1133.69 L2337.17 1173.1 L2345.8 1173.1 L2345.8 1179.91 L2337.17 1179.91 L2337.17 1194.17 L2329.03 1194.17 L2329.03 1179.91 L2301.72 1179.91 L2301.72 1172.01 L2326.88 1133.69 Z" fill="#000000" fill-rule="nonzero" fill-opacity="1" /><path clip-path="url(#clip460)" d="M1423.02 1282.42 Q1423.02 1286.42 1420.56 1288.81 Q1418.17 1291.2 1415.15 1291.2 Q1412.48 1291.2 1411.07 1289.65 Q1409.67 1288.11 1409.67 1286.14 Q1409.67 1285.3 1410.02 1284.24 Q1410.37 1283.12 1411.14 1281.78 Q1411.98 1280.45 1413.74 1279.47 Q1415.5 1278.48 1417.89 1278.34 Q1417.4 1277.85 1417.25 1277.78 Q1416.2 1276.94 1414.23 1276.65 Q1413.95 1276.51 1412.97 1276.51 Q1408.12 1276.51 1403.2 1280.1 Q1398.35 1283.61 1392.38 1290.29 Q1384.86 1298.09 1380.01 1300.97 Q1401.3 1303.78 1401.3 1316.07 Q1401.3 1318.11 1400.74 1320.57 Q1399.62 1325.21 1399.62 1328.58 Q1399.62 1335.33 1404.18 1335.33 Q1408.61 1335.33 1411.42 1330.83 Q1414.3 1326.33 1416.69 1317.55 Q1417.04 1315.93 1417.4 1315.44 Q1417.75 1314.95 1418.73 1314.95 Q1420.49 1314.95 1420.49 1316.36 Q1418.87 1324.58 1415.29 1330.9 Q1410.72 1338.56 1403.9 1338.56 Q1398.21 1338.56 1394.42 1334.63 Q1390.69 1330.62 1390.69 1324.3 Q1390.69 1322.75 1391.26 1319.24 Q1391.68 1317.83 1391.68 1316.22 Q1391.68 1312.91 1389.85 1310.45 Q1388.02 1307.92 1385.07 1306.66 Q1382.12 1305.39 1379.66 1304.83 Q1377.27 1304.2 1374.95 1303.99 Q1367.93 1333.71 1366.94 1335.54 Q1366.31 1336.8 1364.91 1337.65 Q1363.5 1338.56 1362.02 1338.56 Q1360.62 1338.56 1359.21 1337.58 Q1357.88 1336.66 1357.88 1334.48 Q1357.88 1333.36 1358.44 1331.32 L1379.31 1248.41 L1379.73 1245.6 Q1379.73 1244.75 1379.38 1244.33 Q1379.1 1243.84 1377.41 1243.49 Q1375.8 1243.14 1372.56 1243.14 Q1371.23 1243.14 1370.6 1243.07 Q1370.03 1243 1369.54 1242.65 Q1369.05 1242.22 1369.05 1241.38 Q1369.05 1240.19 1369.54 1239.55 Q1370.11 1238.85 1370.53 1238.71 Q1370.95 1238.57 1371.79 1238.5 Q1372.99 1238.43 1376.99 1238.08 Q1381 1237.66 1384.44 1237.38 Q1387.88 1237.09 1389.36 1237.09 Q1390.2 1237.09 1390.62 1237.52 Q1391.12 1237.87 1391.19 1238.29 L1391.26 1238.64 L1376.29 1299.35 Q1382.47 1296.89 1392.24 1286 Q1403.55 1273.35 1413.25 1273.35 Q1417.82 1273.35 1420.42 1276.16 Q1423.02 1278.9 1423.02 1282.42 Z" fill="#000000" fill-rule="nonzero" fill-opacity="1" /><polyline clip-path="url(#clip460)" style="stroke:#000000; stroke-linecap:round; stroke-linejoin:round; stroke-width:4; stroke-opacity:1; fill:none" points="437.26,1099.37 437.26,131.032 "/>
<polyline clip-path="url(#clip460)" style="stroke:#000000; stroke-linecap:round; stroke-linejoin:round; stroke-width:4; stroke-opacity:1; fill:none" points="437.26,1071.96 456.157,1071.96 "/>
<polyline clip-path="url(#clip460)" style="stroke:#000000; stroke-linecap:round; stroke-linejoin:round; stroke-width:4; stroke-opacity:1; fill:none" points="437.26,824.573 456.157,824.573 "/>
<polyline clip-path="url(#clip460)" style="stroke:#000000; stroke-linecap:round; stroke-linejoin:round; stroke-width:4; stroke-opacity:1; fill:none" points="437.26,577.183 456.157,577.183 "/>
<polyline clip-path="url(#clip460)" style="stroke:#000000; stroke-linecap:round; stroke-linejoin:round; stroke-width:4; stroke-opacity:1; fill:none" points="437.26,329.793 456.157,329.793 "/>
<path clip-path="url(#clip460)" d="M380.357 1047.11 Q374.038 1047.11 370.837 1053.35 Q367.678 1059.55 367.678 1072.02 Q367.678 1084.46 370.837 1090.7 Q374.038 1096.9 380.357 1096.9 Q386.717 1096.9 389.877 1090.7 Q393.077 1084.46 393.077 1072.02 Q393.077 1059.55 389.877 1053.35 Q386.717 1047.11 380.357 1047.11 M380.357 1040.63 Q390.525 1040.63 395.872 1048.69 Q401.26 1056.71 401.26 1072.02 Q401.26 1087.29 395.872 1095.36 Q390.525 1103.38 380.357 1103.38 Q370.189 1103.38 364.802 1095.36 Q359.454 1087.29 359.454 1072.02 Q359.454 1056.71 364.802 1048.69 Q370.189 1040.63 380.357 1040.63 Z" fill="#000000" fill-rule="nonzero" fill-opacity="1" /><path clip-path="url(#clip460)" d="M205.925 847.926 L219.293 847.926 L219.293 801.786 L204.75 804.703 L204.75 797.249 L219.212 794.333 L227.395 794.333 L227.395 847.926 L240.763 847.926 L240.763 854.813 L205.925 854.813 L205.925 847.926 Z" fill="#000000" fill-rule="nonzero" fill-opacity="1" /><path clip-path="url(#clip460)" d="M274.79 799.72 Q268.471 799.72 265.271 805.959 Q262.111 812.157 262.111 824.633 Q262.111 837.07 265.271 843.308 Q268.471 849.506 274.79 849.506 Q281.15 849.506 284.31 843.308 Q287.51 837.07 287.51 824.633 Q287.51 812.157 284.31 805.959 Q281.15 799.72 274.79 799.72 M274.79 793.239 Q284.958 793.239 290.305 801.3 Q295.693 809.321 295.693 824.633 Q295.693 839.905 290.305 847.967 Q284.958 855.987 274.79 855.987 Q264.623 855.987 259.235 847.967 Q253.888 839.905 253.888 824.633 Q253.888 809.321 259.235 801.3 Q264.623 793.239 274.79 793.239 Z" fill="#000000" fill-rule="nonzero" fill-opacity="1" /><path clip-path="url(#clip460)" d="M327.574 799.72 Q321.254 799.72 318.054 805.959 Q314.894 812.157 314.894 824.633 Q314.894 837.07 318.054 843.308 Q321.254 849.506 327.574 849.506 Q333.934 849.506 337.093 843.308 Q340.294 837.07 340.294 824.633 Q340.294 812.157 337.093 805.959 Q333.934 799.72 327.574 799.72 M327.574 793.239 Q337.741 793.239 343.089 801.3 Q348.476 809.321 348.476 824.633 Q348.476 839.905 343.089 847.967 Q337.741 855.987 327.574 855.987 Q317.406 855.987 312.018 847.967 Q306.671 839.905 306.671 824.633 Q306.671 809.321 312.018 801.3 Q317.406 793.239 327.574 793.239 Z" fill="#000000" fill-rule="nonzero" fill-opacity="1" /><path clip-path="url(#clip460)" d="M380.357 799.72 Q374.038 799.72 370.837 805.959 Q367.678 812.157 367.678 824.633 Q367.678 837.07 370.837 843.308 Q374.038 849.506 380.357 849.506 Q386.717 849.506 389.877 843.308 Q393.077 837.07 393.077 824.633 Q393.077 812.157 389.877 805.959 Q386.717 799.72 380.357 799.72 M380.357 793.239 Q390.525 793.239 395.872 801.3 Q401.26 809.321 401.26 824.633 Q401.26 839.905 395.872 847.967 Q390.525 855.987 380.357 855.987 Q370.189 855.987 364.802 847.967 Q359.454 839.905 359.454 824.633 Q359.454 809.321 364.802 801.3 Q370.189 793.239 380.357 793.239 Z" fill="#000000" fill-rule="nonzero" fill-opacity="1" /><path clip-path="url(#clip460)" d="M211.556 600.536 L240.115 600.536 L240.115 607.423 L201.712 607.423 L201.712 600.536 Q206.371 595.716 214.391 587.614 Q222.453 579.472 224.519 577.122 Q228.448 572.707 229.987 569.669 Q231.567 566.59 231.567 563.633 Q231.567 558.812 228.165 555.774 Q224.802 552.736 219.374 552.736 Q215.526 552.736 211.232 554.073 Q206.978 555.409 202.117 558.124 L202.117 549.86 Q207.059 547.875 211.353 546.862 Q215.647 545.849 219.212 545.849 Q228.61 545.849 234.2 550.548 Q239.791 555.247 239.791 563.106 Q239.791 566.833 238.373 570.195 Q236.996 573.517 233.309 578.054 Q232.296 579.229 226.868 584.859 Q221.44 590.45 211.556 600.536 Z" fill="#000000" fill-rule="nonzero" fill-opacity="1" /><path clip-path="url(#clip460)" d="M274.79 552.331 Q268.471 552.331 265.271 558.569 Q262.111 564.767 262.111 577.244 Q262.111 589.68 265.271 595.918 Q268.471 602.116 274.79 602.116 Q281.15 602.116 284.31 595.918 Q287.51 589.68 287.51 577.244 Q287.51 564.767 284.31 558.569 Q281.15 552.331 274.79 552.331 M274.79 545.849 Q284.958 545.849 290.305 553.911 Q295.693 561.931 295.693 577.244 Q295.693 592.516 290.305 600.577 Q284.958 608.598 274.79 608.598 Q264.623 608.598 259.235 600.577 Q253.888 592.516 253.888 577.244 Q253.888 561.931 259.235 553.911 Q264.623 545.849 274.79 545.849 Z" fill="#000000" fill-rule="nonzero" fill-opacity="1" /><path clip-path="url(#clip460)" d="M327.574 552.331 Q321.254 552.331 318.054 558.569 Q314.894 564.767 314.894 577.244 Q314.894 589.68 318.054 595.918 Q321.254 602.116 327.574 602.116 Q333.934 602.116 337.093 595.918 Q340.294 589.68 340.294 577.244 Q340.294 564.767 337.093 558.569 Q333.934 552.331 327.574 552.331 M327.574 545.849 Q337.741 545.849 343.089 553.911 Q348.476 561.931 348.476 577.244 Q348.476 592.516 343.089 600.577 Q337.741 608.598 327.574 608.598 Q317.406 608.598 312.018 600.577 Q306.671 592.516 306.671 577.244 Q306.671 561.931 312.018 553.911 Q317.406 545.849 327.574 545.849 Z" fill="#000000" fill-rule="nonzero" fill-opacity="1" /><path clip-path="url(#clip460)" d="M380.357 552.331 Q374.038 552.331 370.837 558.569 Q367.678 564.767 367.678 577.244 Q367.678 589.68 370.837 595.918 Q374.038 602.116 380.357 602.116 Q386.717 602.116 389.877 595.918 Q393.077 589.68 393.077 577.244 Q393.077 564.767 389.877 558.569 Q386.717 552.331 380.357 552.331 M380.357 545.849 Q390.525 545.849 395.872 553.911 Q401.26 561.931 401.26 577.244 Q401.26 592.516 395.872 600.577 Q390.525 608.598 380.357 608.598 Q370.189 608.598 364.802 600.577 Q359.454 592.516 359.454 577.244 Q359.454 561.931 364.802 553.911 Q370.189 545.849 380.357 545.849 Z" fill="#000000" fill-rule="nonzero" fill-opacity="1" /><path clip-path="url(#clip460)" d="M229.299 327.424 Q235.173 328.679 238.454 332.649 Q241.776 336.619 241.776 342.453 Q241.776 351.405 235.618 356.307 Q229.461 361.208 218.118 361.208 Q214.31 361.208 210.26 360.439 Q206.249 359.709 201.955 358.211 L201.955 350.311 Q205.358 352.296 209.409 353.309 Q213.46 354.322 217.875 354.322 Q225.572 354.322 229.582 351.283 Q233.633 348.245 233.633 342.453 Q233.633 337.105 229.866 334.108 Q226.139 331.069 219.455 331.069 L212.407 331.069 L212.407 324.345 L219.779 324.345 Q225.815 324.345 229.015 321.955 Q232.215 319.524 232.215 314.987 Q232.215 310.329 228.894 307.858 Q225.612 305.346 219.455 305.346 Q216.093 305.346 212.244 306.075 Q208.396 306.805 203.778 308.344 L203.778 301.052 Q208.437 299.756 212.488 299.108 Q216.579 298.46 220.184 298.46 Q229.501 298.46 234.93 302.713 Q240.358 306.926 240.358 314.137 Q240.358 319.16 237.482 322.644 Q234.605 326.087 229.299 327.424 Z" fill="#000000" fill-rule="nonzero" fill-opacity="1" /><path clip-path="url(#clip460)" d="M274.79 304.941 Q268.471 304.941 265.271 311.18 Q262.111 317.377 262.111 329.854 Q262.111 342.29 265.271 348.529 Q268.471 354.727 274.79 354.727 Q281.15 354.727 284.31 348.529 Q287.51 342.29 287.51 329.854 Q287.51 317.377 284.31 311.18 Q281.15 304.941 274.79 304.941 M274.79 298.46 Q284.958 298.46 290.305 306.521 Q295.693 314.542 295.693 329.854 Q295.693 345.126 290.305 353.187 Q284.958 361.208 274.79 361.208 Q264.623 361.208 259.235 353.187 Q253.888 345.126 253.888 329.854 Q253.888 314.542 259.235 306.521 Q264.623 298.46 274.79 298.46 Z" fill="#000000" fill-rule="nonzero" fill-opacity="1" /><path clip-path="url(#clip460)" d="M327.574 304.941 Q321.254 304.941 318.054 311.18 Q314.894 317.377 314.894 329.854 Q314.894 342.29 318.054 348.529 Q321.254 354.727 327.574 354.727 Q333.934 354.727 337.093 348.529 Q340.294 342.29 340.294 329.854 Q340.294 317.377 337.093 311.18 Q333.934 304.941 327.574 304.941 M327.574 298.46 Q337.741 298.46 343.089 306.521 Q348.476 314.542 348.476 329.854 Q348.476 345.126 343.089 353.187 Q337.741 361.208 327.574 361.208 Q317.406 361.208 312.018 353.187 Q306.671 345.126 306.671 329.854 Q306.671 314.542 312.018 306.521 Q317.406 298.46 327.574 298.46 Z" fill="#000000" fill-rule="nonzero" fill-opacity="1" /><path clip-path="url(#clip460)" d="M380.357 304.941 Q374.038 304.941 370.837 311.18 Q367.678 317.377 367.678 329.854 Q367.678 342.29 370.837 348.529 Q374.038 354.727 380.357 354.727 Q386.717 354.727 389.877 348.529 Q393.077 342.29 393.077 329.854 Q393.077 317.377 389.877 311.18 Q386.717 304.941 380.357 304.941 M380.357 298.46 Q390.525 298.46 395.872 306.521 Q401.26 314.542 401.26 329.854 Q401.26 345.126 395.872 353.187 Q390.525 361.208 380.357 361.208 Q370.189 361.208 364.802 353.187 Q359.454 345.126 359.454 329.854 Q359.454 314.542 364.802 306.521 Q370.189 298.46 380.357 298.46 Z" fill="#000000" fill-rule="nonzero" fill-opacity="1" /><path clip-path="url(#clip460)" d="M53.506 614.715 Q58.4247 614.715 58.4247 621.742 L58.4247 637.552 Q64.7488 633.125 74.0943 633.125 Q82.1048 633.125 89.6234 636.428 Q97.0718 639.66 102.272 644.86 Q107.471 649.989 110.633 656.454 Q113.725 662.919 113.725 669.243 Q113.725 678.869 107.19 684.842 Q100.655 690.815 90.9585 690.815 Q85.829 690.815 80.1373 689.058 Q74.4457 687.231 69.1756 683.788 Q63.8353 680.345 59.549 675.848 Q55.2627 671.28 52.6628 665.378 Q50.0629 659.405 50.0629 653.151 L50.0629 620.337 Q50.0629 618.58 50.2034 617.666 Q50.2737 616.683 51.1169 615.699 Q51.8899 614.715 53.506 614.715 M72.4079 642.33 Q70.7215 642.33 69.2459 642.541 Q67.7 642.752 65.6623 643.525 Q63.5542 644.298 62.0786 645.633 Q60.5327 646.968 59.4787 649.568 Q58.4247 652.097 58.4247 655.54 Q58.4247 660.389 61.0949 665.729 Q63.765 671.07 70.3702 675.145 Q75.9916 678.518 83.2994 680.204 Q90.6072 681.891 94.9637 681.891 Q102.412 681.891 106.488 678.307 Q110.493 674.653 110.493 669.102 Q110.493 664.535 107.401 659.335 Q104.239 654.135 98.2663 650.13 Q93.0665 646.617 85.4777 644.509 Q77.8888 642.33 72.4079 642.33 Z" fill="#000000" fill-rule="nonzero" fill-opacity="1" /><path clip-path="url(#clip460)" d="M117.068 554.499 Q119.871 554.499 121.544 556.22 Q123.216 557.893 123.216 560.008 Q123.216 561.877 122.134 562.861 Q121.052 563.844 119.674 563.844 Q119.084 563.844 118.346 563.598 Q117.559 563.353 116.625 562.811 Q115.69 562.221 115.002 560.992 Q114.313 559.762 114.215 558.09 Q113.87 558.434 113.821 558.532 Q113.231 559.27 113.034 560.647 Q112.936 560.844 112.936 561.533 Q112.936 564.927 115.444 568.37 Q117.904 571.764 122.577 575.944 Q128.036 581.207 130.053 584.601 Q132.02 569.698 140.628 569.698 Q142.055 569.698 143.776 570.091 Q147.023 570.878 149.384 570.878 Q154.105 570.878 154.105 567.681 Q154.105 564.582 150.958 562.615 Q147.81 560.598 141.661 558.926 Q140.53 558.68 140.186 558.434 Q139.841 558.188 139.841 557.499 Q139.841 556.27 140.825 556.27 Q146.58 557.401 151.007 559.909 Q156.368 563.107 156.368 567.878 Q156.368 571.862 153.614 574.518 Q150.81 577.125 146.383 577.125 Q145.301 577.125 142.842 576.731 Q141.858 576.436 140.727 576.436 Q138.415 576.436 136.693 577.715 Q134.922 578.994 134.037 581.06 Q133.152 583.126 132.758 584.847 Q132.316 586.52 132.168 588.143 Q152.974 593.062 154.253 593.75 Q155.138 594.193 155.729 595.177 Q156.368 596.16 156.368 597.193 Q156.368 598.177 155.679 599.161 Q155.04 600.095 153.515 600.095 Q152.728 600.095 151.302 599.702 L93.261 585.093 L91.2935 584.798 Q90.7033 584.798 90.4081 585.044 Q90.0638 585.241 89.8179 586.421 Q89.572 587.553 89.572 589.815 Q89.572 590.75 89.5228 591.192 Q89.4736 591.586 89.2276 591.93 Q88.9325 592.275 88.3423 592.275 Q87.5061 592.275 87.0634 591.93 Q86.5715 591.537 86.4732 591.242 Q86.3748 590.947 86.3256 590.356 Q86.2764 589.52 86.0305 586.716 Q85.7354 583.913 85.5386 581.503 Q85.3419 579.092 85.3419 578.059 Q85.3419 577.469 85.637 577.174 Q85.8829 576.83 86.178 576.781 L86.424 576.731 L128.922 587.208 Q127.2 582.88 119.576 576.043 Q110.722 568.124 110.722 561.336 Q110.722 558.139 112.69 556.319 Q114.608 554.499 117.068 554.499 Z" fill="#000000" fill-rule="nonzero" fill-opacity="1" /><path clip-path="url(#clip460)" d="M1038.06 36.6977 L1038.06 45.7602 Q1033.99 43.6768 1029.62 42.6352 Q1025.24 41.5935 1020.56 41.5935 Q1013.42 41.5935 1009.83 43.781 Q1006.29 45.9685 1006.29 50.3435 Q1006.29 53.6768 1008.84 55.6039 Q1011.39 57.4789 1019.1 59.1976 L1022.38 59.9268 Q1032.59 62.1143 1036.86 66.1246 Q1041.18 70.083 1041.18 77.2183 Q1041.18 85.3433 1034.72 90.0829 Q1028.32 94.8224 1017.07 94.8224 Q1012.38 94.8224 1007.28 93.8849 Q1002.22 92.9995 996.598 91.1766 L996.598 81.2808 Q1001.91 84.0412 1007.07 85.4475 Q1012.22 86.8016 1017.28 86.8016 Q1024.05 86.8016 1027.69 84.51 Q1031.34 82.1662 1031.34 77.9475 Q1031.34 74.0413 1028.68 71.9579 Q1026.08 69.8746 1017.17 67.9476 L1013.84 67.1663 Q1004.93 65.2913 1000.97 61.4372 Q997.015 57.5309 997.015 50.7601 Q997.015 42.531 1002.85 38.0519 Q1008.68 33.5727 1019.41 33.5727 Q1024.72 33.5727 1029.41 34.354 Q1034.1 35.1352 1038.06 36.6977 Z" fill="#000000" fill-rule="nonzero" fill-opacity="1" /><path clip-path="url(#clip460)" d="M1056.44 34.979 L1066.03 34.979 L1066.03 93.312 L1056.44 93.312 L1056.44 34.979 M1056.44 12.2708 L1066.03 12.2708 L1066.03 24.4061 L1056.44 24.4061 L1056.44 12.2708 Z" fill="#000000" fill-rule="nonzero" fill-opacity="1" /><path clip-path="url(#clip460)" d="M1134.57 58.1039 L1134.57 93.312 L1124.98 93.312 L1124.98 58.4164 Q1124.98 50.1351 1121.75 46.0206 Q1118.52 41.906 1112.07 41.906 Q1104.31 41.906 1099.83 46.8539 Q1095.35 51.8018 1095.35 60.3434 L1095.35 93.312 L1085.71 93.312 L1085.71 34.979 L1095.35 34.979 L1095.35 44.0414 Q1098.79 38.781 1103.42 36.1769 Q1108.11 33.5727 1114.2 33.5727 Q1124.25 33.5727 1129.41 39.8227 Q1134.57 46.0206 1134.57 58.1039 Z" fill="#000000" fill-rule="nonzero" fill-opacity="1" /><path clip-path="url(#clip460)" d="M1192.07 63.4684 Q1192.07 53.0518 1187.74 47.3227 Q1183.47 41.5935 1175.71 41.5935 Q1168 41.5935 1163.68 47.3227 Q1159.41 53.0518 1159.41 63.4684 Q1159.41 73.8329 1163.68 79.5621 Q1168 85.2912 1175.71 85.2912 Q1183.47 85.2912 1187.74 79.5621 Q1192.07 73.8329 1192.07 63.4684 M1201.65 86.0725 Q1201.65 100.968 1195.03 108.208 Q1188.42 115.499 1174.77 115.499 Q1169.72 115.499 1165.24 114.718 Q1160.76 113.989 1156.55 112.426 L1156.55 103.104 Q1160.76 105.395 1164.88 106.489 Q1168.99 107.583 1173.26 107.583 Q1182.69 107.583 1187.38 102.635 Q1192.07 97.7391 1192.07 87.7912 L1192.07 83.0516 Q1189.1 88.2079 1184.46 90.7599 Q1179.83 93.312 1173.37 93.312 Q1162.64 93.312 1156.08 85.135 Q1149.51 76.9579 1149.51 63.4684 Q1149.51 49.9268 1156.08 41.7498 Q1162.64 33.5727 1173.37 33.5727 Q1179.83 33.5727 1184.46 36.1248 Q1189.1 38.6769 1192.07 43.8331 L1192.07 34.979 L1201.65 34.979 L1201.65 86.0725 Z" fill="#000000" fill-rule="nonzero" fill-opacity="1" /><path clip-path="url(#clip460)" d="M1220.4 70.2913 L1220.4 34.979 L1229.98 34.979 L1229.98 69.9267 Q1229.98 78.2079 1233.21 82.3746 Q1236.44 86.4891 1242.9 86.4891 Q1250.66 86.4891 1255.14 81.5412 Q1259.67 76.5933 1259.67 68.0517 L1259.67 34.979 L1269.25 34.979 L1269.25 93.312 L1259.67 93.312 L1259.67 84.3537 Q1256.18 89.6662 1251.55 92.2703 Q1246.96 94.8224 1240.87 94.8224 Q1230.82 94.8224 1225.61 88.5724 Q1220.4 82.3225 1220.4 70.2913 M1244.51 33.5727 L1244.51 33.5727 Z" fill="#000000" fill-rule="nonzero" fill-opacity="1" /><path clip-path="url(#clip460)" d="M1288.99 12.2708 L1298.58 12.2708 L1298.58 93.312 L1288.99 93.312 L1288.99 12.2708 Z" fill="#000000" fill-rule="nonzero" fill-opacity="1" /><path clip-path="url(#clip460)" d="M1345.14 63.9892 Q1333.52 63.9892 1329.04 66.6455 Q1324.57 69.3017 1324.57 75.7079 Q1324.57 80.8121 1327.9 83.8329 Q1331.28 86.8016 1337.07 86.8016 Q1345.03 86.8016 1349.83 81.1766 Q1354.67 75.4996 1354.67 66.1246 L1354.67 63.9892 L1345.14 63.9892 M1364.25 60.0309 L1364.25 93.312 L1354.67 93.312 L1354.67 84.4579 Q1351.39 89.7704 1346.49 92.3224 Q1341.6 94.8224 1334.51 94.8224 Q1325.56 94.8224 1320.24 89.8224 Q1314.98 84.7704 1314.98 76.3329 Q1314.98 66.4892 1321.54 61.4893 Q1328.16 56.4893 1341.23 56.4893 L1354.67 56.4893 L1354.67 55.5518 Q1354.67 48.9372 1350.29 45.3435 Q1345.97 41.6977 1338.11 41.6977 Q1333.11 41.6977 1328.37 42.8956 Q1323.63 44.0935 1319.25 46.4893 L1319.25 37.6352 Q1324.51 35.604 1329.46 34.6144 Q1334.41 33.5727 1339.1 33.5727 Q1351.75 33.5727 1358 40.1352 Q1364.25 46.6977 1364.25 60.0309 Z" fill="#000000" fill-rule="nonzero" fill-opacity="1" /><path clip-path="url(#clip460)" d="M1417.79 43.9373 Q1416.18 42.9998 1414.25 42.5831 Q1412.38 42.1144 1410.09 42.1144 Q1401.96 42.1144 1397.59 47.4268 Q1393.26 52.6872 1393.26 62.583 L1393.26 93.312 L1383.63 93.312 L1383.63 34.979 L1393.26 34.979 L1393.26 44.0414 Q1396.28 38.729 1401.13 36.1769 Q1405.97 33.5727 1412.9 33.5727 Q1413.89 33.5727 1415.09 33.729 Q1416.28 33.8332 1417.74 34.0936 L1417.79 43.9373 Z" fill="#000000" fill-rule="nonzero" fill-opacity="1" /><path clip-path="url(#clip460)" d="M1454.88 34.979 L1465.03 34.979 L1483.26 83.9371 L1501.49 34.979 L1511.65 34.979 L1489.77 93.312 L1476.75 93.312 L1454.88 34.979 Z" fill="#000000" fill-rule="nonzero" fill-opacity="1" /><path clip-path="url(#clip460)" d="M1551.39 63.9892 Q1539.77 63.9892 1535.29 66.6455 Q1530.81 69.3017 1530.81 75.7079 Q1530.81 80.8121 1534.15 83.8329 Q1537.53 86.8016 1543.31 86.8016 Q1551.28 86.8016 1556.07 81.1766 Q1560.92 75.4996 1560.92 66.1246 L1560.92 63.9892 L1551.39 63.9892 M1570.5 60.0309 L1570.5 93.312 L1560.92 93.312 L1560.92 84.4579 Q1557.64 89.7704 1552.74 92.3224 Q1547.85 94.8224 1540.76 94.8224 Q1531.8 94.8224 1526.49 89.8224 Q1521.23 84.7704 1521.23 76.3329 Q1521.23 66.4892 1527.79 61.4893 Q1534.41 56.4893 1547.48 56.4893 L1560.92 56.4893 L1560.92 55.5518 Q1560.92 48.9372 1556.54 45.3435 Q1552.22 41.6977 1544.36 41.6977 Q1539.36 41.6977 1534.62 42.8956 Q1529.88 44.0935 1525.5 46.4893 L1525.5 37.6352 Q1530.76 35.604 1535.71 34.6144 Q1540.66 33.5727 1545.35 33.5727 Q1558 33.5727 1564.25 40.1352 Q1570.5 46.6977 1570.5 60.0309 Z" fill="#000000" fill-rule="nonzero" fill-opacity="1" /><path clip-path="url(#clip460)" d="M1590.24 12.2708 L1599.82 12.2708 L1599.82 93.312 L1590.24 93.312 L1590.24 12.2708 Z" fill="#000000" fill-rule="nonzero" fill-opacity="1" /><path clip-path="url(#clip460)" d="M1618.89 70.2913 L1618.89 34.979 L1628.47 34.979 L1628.47 69.9267 Q1628.47 78.2079 1631.7 82.3746 Q1634.93 86.4891 1641.39 86.4891 Q1649.15 86.4891 1653.63 81.5412 Q1658.16 76.5933 1658.16 68.0517 L1658.16 34.979 L1667.74 34.979 L1667.74 93.312 L1658.16 93.312 L1658.16 84.3537 Q1654.67 89.6662 1650.03 92.2703 Q1645.45 94.8224 1639.36 94.8224 Q1629.3 94.8224 1624.1 88.5724 Q1618.89 82.3225 1618.89 70.2913 M1643 33.5727 L1643 33.5727 Z" fill="#000000" fill-rule="nonzero" fill-opacity="1" /><path clip-path="url(#clip460)" d="M1737.38 61.7497 L1737.38 66.4371 L1693.31 66.4371 Q1693.94 76.3329 1699.25 81.5412 Q1704.62 86.6975 1714.15 86.6975 Q1719.67 86.6975 1724.82 85.3433 Q1730.03 83.9891 1735.14 81.2808 L1735.14 90.3433 Q1729.98 92.5308 1724.56 93.6766 Q1719.15 94.8224 1713.57 94.8224 Q1699.62 94.8224 1691.44 86.6975 Q1683.31 78.5725 1683.31 64.7184 Q1683.31 50.3956 1691.02 42.0102 Q1698.78 33.5727 1711.91 33.5727 Q1723.68 33.5727 1730.5 41.1769 Q1737.38 48.7289 1737.38 61.7497 M1727.79 58.9372 Q1727.69 51.0726 1723.37 46.3852 Q1719.09 41.6977 1712.01 41.6977 Q1703.99 41.6977 1699.15 46.2289 Q1694.36 50.7601 1693.63 58.9893 L1727.79 58.9372 Z" fill="#000000" fill-rule="nonzero" fill-opacity="1" /><path clip-path="url(#clip460)" d="M1790.29 36.6977 L1790.29 45.7602 Q1786.23 43.6768 1781.85 42.6352 Q1777.48 41.5935 1772.79 41.5935 Q1765.66 41.5935 1762.06 43.781 Q1758.52 45.9685 1758.52 50.3435 Q1758.52 53.6768 1761.07 55.6039 Q1763.63 57.4789 1771.33 59.1976 L1774.62 59.9268 Q1784.82 62.1143 1789.09 66.1246 Q1793.42 70.083 1793.42 77.2183 Q1793.42 85.3433 1786.96 90.0829 Q1780.55 94.8224 1769.3 94.8224 Q1764.62 94.8224 1759.51 93.8849 Q1754.46 92.9995 1748.83 91.1766 L1748.83 81.2808 Q1754.15 84.0412 1759.3 85.4475 Q1764.46 86.8016 1769.51 86.8016 Q1776.28 86.8016 1779.93 84.51 Q1783.57 82.1662 1783.57 77.9475 Q1783.57 74.0413 1780.92 71.9579 Q1778.31 69.8746 1769.41 67.9476 L1766.07 67.1663 Q1757.17 65.2913 1753.21 61.4372 Q1749.25 57.5309 1749.25 50.7601 Q1749.25 42.531 1755.08 38.0519 Q1760.92 33.5727 1771.65 33.5727 Q1776.96 33.5727 1781.65 34.354 Q1786.33 35.1352 1790.29 36.6977 Z" fill="#000000" fill-rule="nonzero" fill-opacity="1" /><polyline clip-path="url(#clip461)" style="stroke:#00ffff; stroke-linecap:round; stroke-linejoin:round; stroke-width:12; stroke-opacity:1; fill:none" points="491.472,973.094 6594.6,973.094 "/>
<path clip-path="url(#clip461)" d="M491.472 139.332 L467.472 187.332 L515.472 187.332 L491.472 139.332 Z" fill="#0000ff" fill-rule="evenodd" fill-opacity="1" stroke="none"/>
<path clip-path="url(#clip461)" d="M525.568 625.93 L501.568 673.93 L549.568 673.93 L525.568 625.93 Z" fill="#0000ff" fill-rule="evenodd" fill-opacity="1" stroke="none"/>
<path clip-path="url(#clip461)" d="M559.663 719.85 L535.663 767.85 L583.663 767.85 L559.663 719.85 Z" fill="#0000ff" fill-rule="evenodd" fill-opacity="1" stroke="none"/>
<path clip-path="url(#clip461)" d="M593.759 927.027 L569.759 975.027 L617.759 975.027 L593.759 927.027 Z" fill="#0000ff" fill-rule="evenodd" fill-opacity="1" stroke="none"/>
<path clip-path="url(#clip461)" d="M627.855 982.621 L603.855 1030.62 L651.855 1030.62 L627.855 982.621 Z" fill="#0000ff" fill-rule="evenodd" fill-opacity="1" stroke="none"/>
<path clip-path="url(#clip461)" d="M661.95 1047.96 L637.95 1095.96 L685.95 1095.96 L661.95 1047.96 Z" fill="#0000ff" fill-rule="evenodd" fill-opacity="1" stroke="none"/>
<path clip-path="url(#clip461)" d="M696.046 1047.96 L672.046 1095.96 L720.046 1095.96 L696.046 1047.96 Z" fill="#0000ff" fill-rule="evenodd" fill-opacity="1" stroke="none"/>
<path clip-path="url(#clip461)" d="M730.142 1047.96 L706.142 1095.96 L754.142 1095.96 L730.142 1047.96 Z" fill="#0000ff" fill-rule="evenodd" fill-opacity="1" stroke="none"/>
<path clip-path="url(#clip461)" d="M764.237 1047.96 L740.237 1095.96 L788.237 1095.96 L764.237 1047.96 Z" fill="#0000ff" fill-rule="evenodd" fill-opacity="1" stroke="none"/>
<path clip-path="url(#clip461)" d="M798.333 1047.96 L774.333 1095.96 L822.333 1095.96 L798.333 1047.96 Z" fill="#0000ff" fill-rule="evenodd" fill-opacity="1" stroke="none"/>
<path clip-path="url(#clip461)" d="M832.429 1047.96 L808.429 1095.96 L856.429 1095.96 L832.429 1047.96 Z" fill="#0000ff" fill-rule="evenodd" fill-opacity="1" stroke="none"/>
<path clip-path="url(#clip461)" d="M866.524 1047.96 L842.524 1095.96 L890.524 1095.96 L866.524 1047.96 Z" fill="#0000ff" fill-rule="evenodd" fill-opacity="1" stroke="none"/>
<path clip-path="url(#clip461)" d="M900.62 1047.96 L876.62 1095.96 L924.62 1095.96 L900.62 1047.96 Z" fill="#0000ff" fill-rule="evenodd" fill-opacity="1" stroke="none"/>
<path clip-path="url(#clip461)" d="M934.716 1047.96 L910.716 1095.96 L958.716 1095.96 L934.716 1047.96 Z" fill="#0000ff" fill-rule="evenodd" fill-opacity="1" stroke="none"/>
<path clip-path="url(#clip461)" d="M968.812 1047.96 L944.812 1095.96 L992.812 1095.96 L968.812 1047.96 Z" fill="#0000ff" fill-rule="evenodd" fill-opacity="1" stroke="none"/>
<path clip-path="url(#clip461)" d="M1002.91 1047.96 L978.907 1095.96 L1026.91 1095.96 L1002.91 1047.96 Z" fill="#0000ff" fill-rule="evenodd" fill-opacity="1" stroke="none"/>
<path clip-path="url(#clip461)" d="M1037 1047.96 L1013 1095.96 L1061 1095.96 L1037 1047.96 Z" fill="#0000ff" fill-rule="evenodd" fill-opacity="1" stroke="none"/>
<path clip-path="url(#clip461)" d="M1071.1 1047.96 L1047.1 1095.96 L1095.1 1095.96 L1071.1 1047.96 Z" fill="#0000ff" fill-rule="evenodd" fill-opacity="1" stroke="none"/>
<path clip-path="url(#clip461)" d="M1105.19 1047.96 L1081.19 1095.96 L1129.19 1095.96 L1105.19 1047.96 Z" fill="#0000ff" fill-rule="evenodd" fill-opacity="1" stroke="none"/>
<path clip-path="url(#clip461)" d="M1139.29 1047.96 L1115.29 1095.96 L1163.29 1095.96 L1139.29 1047.96 Z" fill="#0000ff" fill-rule="evenodd" fill-opacity="1" stroke="none"/>
<path clip-path="url(#clip461)" d="M1173.39 1047.96 L1149.39 1095.96 L1197.39 1095.96 L1173.39 1047.96 Z" fill="#0000ff" fill-rule="evenodd" fill-opacity="1" stroke="none"/>
<path clip-path="url(#clip461)" d="M1207.48 1047.96 L1183.48 1095.96 L1231.48 1095.96 L1207.48 1047.96 Z" fill="#0000ff" fill-rule="evenodd" fill-opacity="1" stroke="none"/>
<path clip-path="url(#clip461)" d="M1241.58 1047.96 L1217.58 1095.96 L1265.58 1095.96 L1241.58 1047.96 Z" fill="#0000ff" fill-rule="evenodd" fill-opacity="1" stroke="none"/>
<path clip-path="url(#clip461)" d="M1275.67 1047.96 L1251.67 1095.96 L1299.67 1095.96 L1275.67 1047.96 Z" fill="#0000ff" fill-rule="evenodd" fill-opacity="1" stroke="none"/>
<path clip-path="url(#clip461)" d="M1309.77 1047.96 L1285.77 1095.96 L1333.77 1095.96 L1309.77 1047.96 Z" fill="#0000ff" fill-rule="evenodd" fill-opacity="1" stroke="none"/>
<path clip-path="url(#clip461)" d="M1343.86 1047.96 L1319.86 1095.96 L1367.86 1095.96 L1343.86 1047.96 Z" fill="#0000ff" fill-rule="evenodd" fill-opacity="1" stroke="none"/>
<path clip-path="url(#clip461)" d="M1377.96 1047.96 L1353.96 1095.96 L1401.96 1095.96 L1377.96 1047.96 Z" fill="#0000ff" fill-rule="evenodd" fill-opacity="1" stroke="none"/>
<path clip-path="url(#clip461)" d="M1412.06 1047.96 L1388.06 1095.96 L1436.06 1095.96 L1412.06 1047.96 Z" fill="#0000ff" fill-rule="evenodd" fill-opacity="1" stroke="none"/>
<path clip-path="url(#clip461)" d="M1446.15 1047.96 L1422.15 1095.96 L1470.15 1095.96 L1446.15 1047.96 Z" fill="#0000ff" fill-rule="evenodd" fill-opacity="1" stroke="none"/>
<path clip-path="url(#clip461)" d="M1480.25 1047.96 L1456.25 1095.96 L1504.25 1095.96 L1480.25 1047.96 Z" fill="#0000ff" fill-rule="evenodd" fill-opacity="1" stroke="none"/>
<path clip-path="url(#clip461)" d="M1514.34 1047.96 L1490.34 1095.96 L1538.34 1095.96 L1514.34 1047.96 Z" fill="#0000ff" fill-rule="evenodd" fill-opacity="1" stroke="none"/>
<path clip-path="url(#clip461)" d="M1548.44 1047.96 L1524.44 1095.96 L1572.44 1095.96 L1548.44 1047.96 Z" fill="#0000ff" fill-rule="evenodd" fill-opacity="1" stroke="none"/>
<path clip-path="url(#clip461)" d="M1582.53 1047.96 L1558.53 1095.96 L1606.53 1095.96 L1582.53 1047.96 Z" fill="#0000ff" fill-rule="evenodd" fill-opacity="1" stroke="none"/>
<path clip-path="url(#clip461)" d="M1616.63 1047.96 L1592.63 1095.96 L1640.63 1095.96 L1616.63 1047.96 Z" fill="#0000ff" fill-rule="evenodd" fill-opacity="1" stroke="none"/>
<path clip-path="url(#clip461)" d="M1650.73 1047.96 L1626.73 1095.96 L1674.73 1095.96 L1650.73 1047.96 Z" fill="#0000ff" fill-rule="evenodd" fill-opacity="1" stroke="none"/>
<path clip-path="url(#clip461)" d="M1684.82 1047.96 L1660.82 1095.96 L1708.82 1095.96 L1684.82 1047.96 Z" fill="#0000ff" fill-rule="evenodd" fill-opacity="1" stroke="none"/>
<path clip-path="url(#clip461)" d="M1718.92 1047.96 L1694.92 1095.96 L1742.92 1095.96 L1718.92 1047.96 Z" fill="#0000ff" fill-rule="evenodd" fill-opacity="1" stroke="none"/>
<path clip-path="url(#clip461)" d="M1753.01 1047.96 L1729.01 1095.96 L1777.01 1095.96 L1753.01 1047.96 Z" fill="#0000ff" fill-rule="evenodd" fill-opacity="1" stroke="none"/>
<path clip-path="url(#clip461)" d="M1787.11 1047.96 L1763.11 1095.96 L1811.11 1095.96 L1787.11 1047.96 Z" fill="#0000ff" fill-rule="evenodd" fill-opacity="1" stroke="none"/>
<path clip-path="url(#clip461)" d="M1821.2 1047.96 L1797.2 1095.96 L1845.2 1095.96 L1821.2 1047.96 Z" fill="#0000ff" fill-rule="evenodd" fill-opacity="1" stroke="none"/>
<path clip-path="url(#clip461)" d="M1855.3 1047.96 L1831.3 1095.96 L1879.3 1095.96 L1855.3 1047.96 Z" fill="#0000ff" fill-rule="evenodd" fill-opacity="1" stroke="none"/>
<path clip-path="url(#clip461)" d="M1889.4 1047.96 L1865.4 1095.96 L1913.4 1095.96 L1889.4 1047.96 Z" fill="#0000ff" fill-rule="evenodd" fill-opacity="1" stroke="none"/>
<path clip-path="url(#clip461)" d="M1923.49 1047.96 L1899.49 1095.96 L1947.49 1095.96 L1923.49 1047.96 Z" fill="#0000ff" fill-rule="evenodd" fill-opacity="1" stroke="none"/>
<path clip-path="url(#clip461)" d="M1957.59 1047.96 L1933.59 1095.96 L1981.59 1095.96 L1957.59 1047.96 Z" fill="#0000ff" fill-rule="evenodd" fill-opacity="1" stroke="none"/>
<path clip-path="url(#clip461)" d="M1991.68 1047.96 L1967.68 1095.96 L2015.68 1095.96 L1991.68 1047.96 Z" fill="#0000ff" fill-rule="evenodd" fill-opacity="1" stroke="none"/>
<path clip-path="url(#clip461)" d="M2025.78 1047.96 L2001.78 1095.96 L2049.78 1095.96 L2025.78 1047.96 Z" fill="#0000ff" fill-rule="evenodd" fill-opacity="1" stroke="none"/>
<path clip-path="url(#clip461)" d="M2059.87 1047.96 L2035.87 1095.96 L2083.87 1095.96 L2059.87 1047.96 Z" fill="#0000ff" fill-rule="evenodd" fill-opacity="1" stroke="none"/>
<path clip-path="url(#clip461)" d="M2093.97 1047.96 L2069.97 1095.96 L2117.97 1095.96 L2093.97 1047.96 Z" fill="#0000ff" fill-rule="evenodd" fill-opacity="1" stroke="none"/>
<path clip-path="url(#clip461)" d="M2128.07 1047.96 L2104.07 1095.96 L2152.07 1095.96 L2128.07 1047.96 Z" fill="#0000ff" fill-rule="evenodd" fill-opacity="1" stroke="none"/>
<path clip-path="url(#clip461)" d="M2162.16 1047.96 L2138.16 1095.96 L2186.16 1095.96 L2162.16 1047.96 Z" fill="#0000ff" fill-rule="evenodd" fill-opacity="1" stroke="none"/>
<path clip-path="url(#clip461)" d="M2196.26 1047.96 L2172.26 1095.96 L2220.26 1095.96 L2196.26 1047.96 Z" fill="#0000ff" fill-rule="evenodd" fill-opacity="1" stroke="none"/>
<path clip-path="url(#clip461)" d="M2230.35 1047.96 L2206.35 1095.96 L2254.35 1095.96 L2230.35 1047.96 Z" fill="#0000ff" fill-rule="evenodd" fill-opacity="1" stroke="none"/>
<path clip-path="url(#clip461)" d="M2264.45 1047.96 L2240.45 1095.96 L2288.45 1095.96 L2264.45 1047.96 Z" fill="#0000ff" fill-rule="evenodd" fill-opacity="1" stroke="none"/>
<path clip-path="url(#clip461)" d="M2298.54 1047.96 L2274.54 1095.96 L2322.54 1095.96 L2298.54 1047.96 Z" fill="#0000ff" fill-rule="evenodd" fill-opacity="1" stroke="none"/>
<path clip-path="url(#clip461)" d="M515.472 317.143 L467.472 317.143 L491.472 365.143 L515.472 317.143 Z" fill="#ff0000" fill-rule="evenodd" fill-opacity="1" stroke="none"/>
<path clip-path="url(#clip461)" d="M549.568 696.869 L501.568 696.869 L525.568 744.869 L549.568 696.869 Z" fill="#ff0000" fill-rule="evenodd" fill-opacity="1" stroke="none"/>
<path clip-path="url(#clip461)" d="M583.663 785.751 L535.663 785.751 L559.663 833.751 L583.663 785.751 Z" fill="#ff0000" fill-rule="evenodd" fill-opacity="1" stroke="none"/>
<path clip-path="url(#clip461)" d="M617.759 929.113 L569.759 929.113 L593.759 977.113 L617.759 929.113 Z" fill="#ff0000" fill-rule="evenodd" fill-opacity="1" stroke="none"/>
<path clip-path="url(#clip461)" d="M651.855 931.899 L603.855 931.899 L627.855 979.899 L651.855 931.899 Z" fill="#ff0000" fill-rule="evenodd" fill-opacity="1" stroke="none"/>
<path clip-path="url(#clip461)" d="M685.95 935.168 L637.95 935.168 L661.95 983.168 L685.95 935.168 Z" fill="#ff0000" fill-rule="evenodd" fill-opacity="1" stroke="none"/>
<path clip-path="url(#clip461)" d="M720.046 942.609 L672.046 942.609 L696.046 990.609 L720.046 942.609 Z" fill="#ff0000" fill-rule="evenodd" fill-opacity="1" stroke="none"/>
<path clip-path="url(#clip461)" d="M754.142 945.159 L706.142 945.159 L730.142 993.159 L754.142 945.159 Z" fill="#ff0000" fill-rule="evenodd" fill-opacity="1" stroke="none"/>
<path clip-path="url(#clip461)" d="M788.237 947.991 L740.237 947.991 L764.237 995.991 L788.237 947.991 Z" fill="#ff0000" fill-rule="evenodd" fill-opacity="1" stroke="none"/>
<path clip-path="url(#clip461)" d="M822.333 954.614 L774.333 954.614 L798.333 1002.61 L822.333 954.614 Z" fill="#ff0000" fill-rule="evenodd" fill-opacity="1" stroke="none"/>
<path clip-path="url(#clip461)" d="M856.429 957.697 L808.429 957.697 L832.429 1005.7 L856.429 957.697 Z" fill="#ff0000" fill-rule="evenodd" fill-opacity="1" stroke="none"/>
<path clip-path="url(#clip461)" d="M890.524 959.582 L842.524 959.582 L866.524 1007.58 L890.524 959.582 Z" fill="#ff0000" fill-rule="evenodd" fill-opacity="1" stroke="none"/>
<path clip-path="url(#clip461)" d="M924.62 962.411 L876.62 962.411 L900.62 1010.41 L924.62 962.411 Z" fill="#ff0000" fill-rule="evenodd" fill-opacity="1" stroke="none"/>
<path clip-path="url(#clip461)" d="M958.716 965.547 L910.716 965.547 L934.716 1013.55 L958.716 965.547 Z" fill="#ff0000" fill-rule="evenodd" fill-opacity="1" stroke="none"/>
<path clip-path="url(#clip461)" d="M992.812 966.316 L944.812 966.316 L968.812 1014.32 L992.812 966.316 Z" fill="#ff0000" fill-rule="evenodd" fill-opacity="1" stroke="none"/>
<path clip-path="url(#clip461)" d="M1026.91 969.285 L978.907 969.285 L1002.91 1017.28 L1026.91 969.285 Z" fill="#ff0000" fill-rule="evenodd" fill-opacity="1" stroke="none"/>
<path clip-path="url(#clip461)" d="M1061 973.405 L1013 973.405 L1037 1021.41 L1061 973.405 Z" fill="#ff0000" fill-rule="evenodd" fill-opacity="1" stroke="none"/>
<path clip-path="url(#clip461)" d="M1095.1 975.098 L1047.1 975.098 L1071.1 1023.1 L1095.1 975.098 Z" fill="#ff0000" fill-rule="evenodd" fill-opacity="1" stroke="none"/>
<path clip-path="url(#clip461)" d="M1129.19 978.186 L1081.19 978.186 L1105.19 1026.19 L1129.19 978.186 Z" fill="#ff0000" fill-rule="evenodd" fill-opacity="1" stroke="none"/>
<path clip-path="url(#clip461)" d="M1163.29 982.142 L1115.29 982.142 L1139.29 1030.14 L1163.29 982.142 Z" fill="#ff0000" fill-rule="evenodd" fill-opacity="1" stroke="none"/>
<path clip-path="url(#clip461)" d="M1197.39 982.573 L1149.39 982.573 L1173.39 1030.57 L1197.39 982.573 Z" fill="#ff0000" fill-rule="evenodd" fill-opacity="1" stroke="none"/>
<path clip-path="url(#clip461)" d="M1231.48 984.083 L1183.48 984.083 L1207.48 1032.08 L1231.48 984.083 Z" fill="#ff0000" fill-rule="evenodd" fill-opacity="1" stroke="none"/>
<path clip-path="url(#clip461)" d="M1265.58 986.926 L1217.58 986.926 L1241.58 1034.93 L1265.58 986.926 Z" fill="#ff0000" fill-rule="evenodd" fill-opacity="1" stroke="none"/>
<path clip-path="url(#clip461)" d="M1299.67 988.098 L1251.67 988.098 L1275.67 1036.1 L1299.67 988.098 Z" fill="#ff0000" fill-rule="evenodd" fill-opacity="1" stroke="none"/>
<path clip-path="url(#clip461)" d="M1333.77 989.312 L1285.77 989.312 L1309.77 1037.31 L1333.77 989.312 Z" fill="#ff0000" fill-rule="evenodd" fill-opacity="1" stroke="none"/>
<path clip-path="url(#clip461)" d="M1367.86 990.525 L1319.86 990.525 L1343.86 1038.52 L1367.86 990.525 Z" fill="#ff0000" fill-rule="evenodd" fill-opacity="1" stroke="none"/>
<path clip-path="url(#clip461)" d="M1401.96 994.806 L1353.96 994.806 L1377.96 1042.81 L1401.96 994.806 Z" fill="#ff0000" fill-rule="evenodd" fill-opacity="1" stroke="none"/>
<path clip-path="url(#clip461)" d="M1436.06 996.287 L1388.06 996.287 L1412.06 1044.29 L1436.06 996.287 Z" fill="#ff0000" fill-rule="evenodd" fill-opacity="1" stroke="none"/>
<path clip-path="url(#clip461)" d="M1470.15 998.208 L1422.15 998.208 L1446.15 1046.21 L1470.15 998.208 Z" fill="#ff0000" fill-rule="evenodd" fill-opacity="1" stroke="none"/>
<path clip-path="url(#clip461)" d="M1504.25 1002.26 L1456.25 1002.26 L1480.25 1050.26 L1504.25 1002.26 Z" fill="#ff0000" fill-rule="evenodd" fill-opacity="1" stroke="none"/>
<path clip-path="url(#clip461)" d="M1538.34 1003.07 L1490.34 1003.07 L1514.34 1051.07 L1538.34 1003.07 Z" fill="#ff0000" fill-rule="evenodd" fill-opacity="1" stroke="none"/>
<path clip-path="url(#clip461)" d="M1572.44 1004.08 L1524.44 1004.08 L1548.44 1052.08 L1572.44 1004.08 Z" fill="#ff0000" fill-rule="evenodd" fill-opacity="1" stroke="none"/>
<path clip-path="url(#clip461)" d="M1606.53 1007.48 L1558.53 1007.48 L1582.53 1055.48 L1606.53 1007.48 Z" fill="#ff0000" fill-rule="evenodd" fill-opacity="1" stroke="none"/>
<path clip-path="url(#clip461)" d="M1640.63 1010.07 L1592.63 1010.07 L1616.63 1058.07 L1640.63 1010.07 Z" fill="#ff0000" fill-rule="evenodd" fill-opacity="1" stroke="none"/>
<path clip-path="url(#clip461)" d="M1674.73 1012.71 L1626.73 1012.71 L1650.73 1060.71 L1674.73 1012.71 Z" fill="#ff0000" fill-rule="evenodd" fill-opacity="1" stroke="none"/>
<path clip-path="url(#clip461)" d="M1708.82 1015.84 L1660.82 1015.84 L1684.82 1063.84 L1708.82 1015.84 Z" fill="#ff0000" fill-rule="evenodd" fill-opacity="1" stroke="none"/>
<path clip-path="url(#clip461)" d="M1742.92 1020.85 L1694.92 1020.85 L1718.92 1068.85 L1742.92 1020.85 Z" fill="#ff0000" fill-rule="evenodd" fill-opacity="1" stroke="none"/>
<path clip-path="url(#clip461)" d="M1777.01 1023.29 L1729.01 1023.29 L1753.01 1071.29 L1777.01 1023.29 Z" fill="#ff0000" fill-rule="evenodd" fill-opacity="1" stroke="none"/>
<path clip-path="url(#clip461)" d="M1811.11 1024.08 L1763.11 1024.08 L1787.11 1072.08 L1811.11 1024.08 Z" fill="#ff0000" fill-rule="evenodd" fill-opacity="1" stroke="none"/>
<path clip-path="url(#clip461)" d="M1845.2 1024.81 L1797.2 1024.81 L1821.2 1072.81 L1845.2 1024.81 Z" fill="#ff0000" fill-rule="evenodd" fill-opacity="1" stroke="none"/>
<path clip-path="url(#clip461)" d="M1879.3 1025.98 L1831.3 1025.98 L1855.3 1073.98 L1879.3 1025.98 Z" fill="#ff0000" fill-rule="evenodd" fill-opacity="1" stroke="none"/>
<path clip-path="url(#clip461)" d="M1913.4 1026.23 L1865.4 1026.23 L1889.4 1074.23 L1913.4 1026.23 Z" fill="#ff0000" fill-rule="evenodd" fill-opacity="1" stroke="none"/>
<path clip-path="url(#clip461)" d="M1947.49 1026.83 L1899.49 1026.83 L1923.49 1074.83 L1947.49 1026.83 Z" fill="#ff0000" fill-rule="evenodd" fill-opacity="1" stroke="none"/>
<path clip-path="url(#clip461)" d="M1981.59 1027.8 L1933.59 1027.8 L1957.59 1075.8 L1981.59 1027.8 Z" fill="#ff0000" fill-rule="evenodd" fill-opacity="1" stroke="none"/>
<path clip-path="url(#clip461)" d="M2015.68 1028.53 L1967.68 1028.53 L1991.68 1076.53 L2015.68 1028.53 Z" fill="#ff0000" fill-rule="evenodd" fill-opacity="1" stroke="none"/>
<path clip-path="url(#clip461)" d="M2049.78 1029.6 L2001.78 1029.6 L2025.78 1077.6 L2049.78 1029.6 Z" fill="#ff0000" fill-rule="evenodd" fill-opacity="1" stroke="none"/>
<path clip-path="url(#clip461)" d="M2083.87 1029.85 L2035.87 1029.85 L2059.87 1077.85 L2083.87 1029.85 Z" fill="#ff0000" fill-rule="evenodd" fill-opacity="1" stroke="none"/>
<path clip-path="url(#clip461)" d="M2117.97 1030.37 L2069.97 1030.37 L2093.97 1078.37 L2117.97 1030.37 Z" fill="#ff0000" fill-rule="evenodd" fill-opacity="1" stroke="none"/>
<path clip-path="url(#clip461)" d="M2152.07 1030.39 L2104.07 1030.39 L2128.07 1078.39 L2152.07 1030.39 Z" fill="#ff0000" fill-rule="evenodd" fill-opacity="1" stroke="none"/>
<path clip-path="url(#clip461)" d="M2186.16 1031.16 L2138.16 1031.16 L2162.16 1079.16 L2186.16 1031.16 Z" fill="#ff0000" fill-rule="evenodd" fill-opacity="1" stroke="none"/>
<path clip-path="url(#clip461)" d="M2220.26 1031.66 L2172.26 1031.66 L2196.26 1079.66 L2220.26 1031.66 Z" fill="#ff0000" fill-rule="evenodd" fill-opacity="1" stroke="none"/>
<path clip-path="url(#clip461)" d="M2254.35 1032.97 L2206.35 1032.97 L2230.35 1080.97 L2254.35 1032.97 Z" fill="#ff0000" fill-rule="evenodd" fill-opacity="1" stroke="none"/>
<path clip-path="url(#clip461)" d="M2288.45 1033.4 L2240.45 1033.4 L2264.45 1081.4 L2288.45 1033.4 Z" fill="#ff0000" fill-rule="evenodd" fill-opacity="1" stroke="none"/>
<path clip-path="url(#clip461)" d="M2322.54 1034.75 L2274.54 1034.75 L2298.54 1082.75 L2322.54 1034.75 Z" fill="#ff0000" fill-rule="evenodd" fill-opacity="1" stroke="none"/>
<path clip-path="url(#clip461)" d="M491.472 182.438 L470.688 170.438 L470.688 146.438 L491.472 134.438 L512.256 146.438 L512.256 170.438 Z" fill="#008000" fill-rule="evenodd" fill-opacity="0.8" stroke="none"/>
<path clip-path="url(#clip461)" d="M525.568 657.096 L504.784 645.096 L504.784 621.096 L525.568 609.096 L546.352 621.096 L546.352 645.096 Z" fill="#008000" fill-rule="evenodd" fill-opacity="0.8" stroke="none"/>
<path clip-path="url(#clip461)" d="M559.663 768.198 L538.879 756.198 L538.879 732.198 L559.663 720.198 L580.447 732.198 L580.447 756.198 Z" fill="#008000" fill-rule="evenodd" fill-opacity="0.8" stroke="none"/>
<path clip-path="url(#clip460)" d="M1683.76 629.87 L2288.91 629.87 L2288.91 163.31 L1683.76 163.31  Z" fill="#ffffff" fill-rule="evenodd" fill-opacity="1"/>
<polyline clip-path="url(#clip460)" style="stroke:#000000; stroke-linecap:round; stroke-linejoin:round; stroke-width:4; stroke-opacity:1; fill:none" points="1683.76,629.87 2288.91,629.87 2288.91,163.31 1683.76,163.31 1683.76,629.87 "/>
<path clip-path="url(#clip460)" d="M1768.9 226.781 L1715.73 333.119 L1822.07 333.119 L1768.9 226.781 Z" fill="#0000ff" fill-rule="evenodd" fill-opacity="1" stroke="none"/>
<path clip-path="url(#clip460)" d="M1857.57 241.07 L1868.87 241.07 L1888.2 269.976 L1907.62 241.07 L1918.93 241.07 L1893.93 278.414 L1920.59 318.83 L1909.29 318.83 L1887.42 285.757 L1865.39 318.83 L1854.03 318.83 L1881.79 277.32 L1857.57 241.07 Z" fill="#000000" fill-rule="nonzero" fill-opacity="1" /><path clip-path="url(#clip460)" d="M1943.46 243.935 L1943.46 260.497 L1963.2 260.497 L1963.2 267.945 L1943.46 267.945 L1943.46 299.611 Q1943.46 306.747 1945.38 308.778 Q1947.36 310.809 1953.35 310.809 L1963.2 310.809 L1963.2 318.83 L1953.35 318.83 Q1942.26 318.83 1938.04 314.715 Q1933.82 310.549 1933.82 299.611 L1933.82 267.945 L1926.79 267.945 L1926.79 260.497 L1933.82 260.497 L1933.82 243.935 L1943.46 243.935 Z" fill="#000000" fill-rule="nonzero" fill-opacity="1" /><path clip-path="url(#clip460)" d="M2009.6 269.455 Q2007.99 268.518 2006.06 268.101 Q2004.19 267.632 2001.89 267.632 Q1993.77 267.632 1989.4 272.945 Q1985.07 278.205 1985.07 288.101 L1985.07 318.83 L1975.44 318.83 L1975.44 260.497 L1985.07 260.497 L1985.07 269.559 Q1988.09 264.247 1992.94 261.695 Q1997.78 259.091 2004.71 259.091 Q2005.7 259.091 2006.89 259.247 Q2008.09 259.351 2009.55 259.612 L2009.6 269.455 Z" fill="#000000" fill-rule="nonzero" fill-opacity="1" /><path clip-path="url(#clip460)" d="M2018.67 295.809 L2018.67 260.497 L2028.25 260.497 L2028.25 295.445 Q2028.25 303.726 2031.48 307.893 Q2034.71 312.007 2041.17 312.007 Q2048.93 312.007 2053.41 307.059 Q2057.94 302.111 2057.94 293.57 L2057.94 260.497 L2067.52 260.497 L2067.52 318.83 L2057.94 318.83 L2057.94 309.872 Q2054.45 315.184 2049.81 317.788 Q2045.23 320.34 2039.13 320.34 Q2029.08 320.34 2023.87 314.09 Q2018.67 307.84 2018.67 295.809 M2042.78 259.091 L2042.78 259.091 Z" fill="#000000" fill-rule="nonzero" fill-opacity="1" /><path clip-path="url(#clip460)" d="M2137.15 287.268 L2137.15 291.955 L2093.09 291.955 Q2093.72 301.851 2099.03 307.059 Q2104.39 312.215 2113.93 312.215 Q2119.45 312.215 2124.6 310.861 Q2129.81 309.507 2134.92 306.799 L2134.92 315.861 Q2129.76 318.049 2124.34 319.195 Q2118.93 320.34 2113.35 320.34 Q2099.39 320.34 2091.22 312.215 Q2083.09 304.09 2083.09 290.236 Q2083.09 275.914 2090.8 267.528 Q2098.56 259.091 2111.69 259.091 Q2123.46 259.091 2130.28 266.695 Q2137.15 274.247 2137.15 287.268 M2127.57 284.455 Q2127.47 276.591 2123.14 271.903 Q2118.87 267.216 2111.79 267.216 Q2103.77 267.216 2098.93 271.747 Q2094.13 276.278 2093.4 284.507 L2127.57 284.455 Z" fill="#000000" fill-rule="nonzero" fill-opacity="1" /><path clip-path="url(#clip460)" d="M1822.07 343.421 L1715.73 343.421 L1768.9 449.759 L1822.07 343.421 Z" fill="#ff0000" fill-rule="evenodd" fill-opacity="1" stroke="none"/>
<path clip-path="url(#clip460)" d="M1854.03 357.71 L1865.33 357.71 L1886.9 389.689 L1908.3 357.71 L1919.6 357.71 L1892.1 398.439 L1892.1 435.47 L1881.53 435.47 L1881.53 398.439 L1854.03 357.71 Z" fill="#000000" fill-rule="nonzero" fill-opacity="1" /><path clip-path="url(#clip460)" d="M1986.37 354.533 Q1979.4 366.512 1976.01 378.231 Q1972.62 389.949 1972.62 401.981 Q1972.62 414.012 1976.01 425.835 Q1979.45 437.605 1986.37 449.532 L1978.04 449.532 Q1970.23 437.293 1966.32 425.47 Q1962.47 413.647 1962.47 401.981 Q1962.47 390.366 1966.32 378.595 Q1970.18 366.825 1978.04 354.533 L1986.37 354.533 Z" fill="#000000" fill-rule="nonzero" fill-opacity="1" /><path clip-path="url(#clip460)" d="M2043.35 385.991 L2043.35 354.429 L2052.94 354.429 L2052.94 435.47 L2043.35 435.47 L2043.35 426.72 Q2040.33 431.928 2035.7 434.48 Q2031.11 436.98 2024.66 436.98 Q2014.08 436.98 2007.42 428.543 Q2000.8 420.105 2000.8 406.356 Q2000.8 392.606 2007.42 384.168 Q2014.08 375.731 2024.66 375.731 Q2031.11 375.731 2035.7 378.283 Q2040.33 380.783 2043.35 385.991 M2010.7 406.356 Q2010.7 416.928 2015.02 422.97 Q2019.39 428.96 2027 428.96 Q2034.6 428.96 2038.98 422.97 Q2043.35 416.928 2043.35 406.356 Q2043.35 395.783 2038.98 389.793 Q2034.6 383.752 2027 383.752 Q2019.39 383.752 2015.02 389.793 Q2010.7 395.783 2010.7 406.356 Z" fill="#000000" fill-rule="nonzero" fill-opacity="1" /><path clip-path="url(#clip460)" d="M2099.19 406.147 Q2087.57 406.147 2083.09 408.803 Q2078.61 411.46 2078.61 417.866 Q2078.61 422.97 2081.95 425.991 Q2085.33 428.96 2091.11 428.96 Q2099.08 428.96 2103.87 423.335 Q2108.72 417.658 2108.72 408.283 L2108.72 406.147 L2099.19 406.147 M2118.3 402.189 L2118.3 435.47 L2108.72 435.47 L2108.72 426.616 Q2105.44 431.928 2100.54 434.48 Q2095.64 436.98 2088.56 436.98 Q2079.6 436.98 2074.29 431.98 Q2069.03 426.928 2069.03 418.491 Q2069.03 408.647 2075.59 403.647 Q2082.21 398.647 2095.28 398.647 L2108.72 398.647 L2108.72 397.71 Q2108.72 391.095 2104.34 387.501 Q2100.02 383.856 2092.15 383.856 Q2087.15 383.856 2082.42 385.054 Q2077.68 386.251 2073.3 388.647 L2073.3 379.793 Q2078.56 377.762 2083.51 376.772 Q2088.46 375.731 2093.14 375.731 Q2105.8 375.731 2112.05 382.293 Q2118.3 388.856 2118.3 402.189 Z" fill="#000000" fill-rule="nonzero" fill-opacity="1" /><path clip-path="url(#clip460)" d="M2147.52 360.575 L2147.52 377.137 L2167.26 377.137 L2167.26 384.585 L2147.52 384.585 L2147.52 416.251 Q2147.52 423.387 2149.45 425.418 Q2151.43 427.449 2157.41 427.449 L2167.26 427.449 L2167.26 435.47 L2157.41 435.47 Q2146.32 435.47 2142.1 431.355 Q2137.88 427.189 2137.88 416.251 L2137.88 384.585 L2130.85 384.585 L2130.85 377.137 L2137.88 377.137 L2137.88 360.575 L2147.52 360.575 Z" fill="#000000" fill-rule="nonzero" fill-opacity="1" /><path clip-path="url(#clip460)" d="M2206.37 406.147 Q2194.76 406.147 2190.28 408.803 Q2185.8 411.46 2185.8 417.866 Q2185.8 422.97 2189.13 425.991 Q2192.52 428.96 2198.3 428.96 Q2206.27 428.96 2211.06 423.335 Q2215.9 417.658 2215.9 408.283 L2215.9 406.147 L2206.37 406.147 M2225.49 402.189 L2225.49 435.47 L2215.9 435.47 L2215.9 426.616 Q2212.62 431.928 2207.73 434.48 Q2202.83 436.98 2195.75 436.98 Q2186.79 436.98 2181.48 431.98 Q2176.22 426.928 2176.22 418.491 Q2176.22 408.647 2182.78 403.647 Q2189.39 398.647 2202.47 398.647 L2215.9 398.647 L2215.9 397.71 Q2215.9 391.095 2211.53 387.501 Q2207.21 383.856 2199.34 383.856 Q2194.34 383.856 2189.6 385.054 Q2184.86 386.251 2180.49 388.647 L2180.49 379.793 Q2185.75 377.762 2190.7 376.772 Q2195.64 375.731 2200.33 375.731 Q2212.99 375.731 2219.24 382.293 Q2225.49 388.856 2225.49 402.189 Z" fill="#000000" fill-rule="nonzero" fill-opacity="1" /><path clip-path="url(#clip460)" d="M2243.72 354.533 L2252.05 354.533 Q2259.86 366.825 2263.72 378.595 Q2267.62 390.366 2267.62 401.981 Q2267.62 413.647 2263.72 425.47 Q2259.86 437.293 2252.05 449.532 L2243.72 449.532 Q2250.64 437.605 2254.03 425.835 Q2257.47 414.012 2257.47 401.981 Q2257.47 389.949 2254.03 378.231 Q2250.64 366.512 2243.72 354.533 Z" fill="#000000" fill-rule="nonzero" fill-opacity="1" /><path clip-path="url(#clip460)" d="M1768.9 566.399 L1722.85 539.815 L1722.85 486.645 L1768.9 460.061 L1814.94 486.645 L1814.94 539.815 Z" fill="#008000" fill-rule="evenodd" fill-opacity="0.8" stroke="none"/>
<path clip-path="url(#clip460)" d="M1854.03 474.35 L1865.33 474.35 L1886.9 506.329 L1908.3 474.35 L1919.6 474.35 L1892.1 515.079 L1892.1 552.11 L1881.53 552.11 L1881.53 515.079 L1854.03 474.35 Z" fill="#000000" fill-rule="nonzero" fill-opacity="1" /><path clip-path="url(#clip460)" d="M1946.48 474.35 L1955.33 474.35 L1928.25 562.006 L1919.4 562.006 L1946.48 474.35 Z" fill="#000000" fill-rule="nonzero" fill-opacity="1" /><path clip-path="url(#clip460)" d="M1974.66 543.36 L1974.66 574.297 L1965.02 574.297 L1965.02 493.777 L1974.66 493.777 L1974.66 502.631 Q1977.68 497.423 1982.26 494.923 Q1986.9 492.371 1993.3 492.371 Q2003.93 492.371 2010.54 500.808 Q2017.21 509.246 2017.21 522.996 Q2017.21 536.745 2010.54 545.183 Q2003.93 553.62 1993.3 553.62 Q1986.9 553.62 1982.26 551.12 Q1977.68 548.568 1974.66 543.36 M2007.26 522.996 Q2007.26 512.423 2002.88 506.433 Q1998.56 500.392 1990.96 500.392 Q1983.35 500.392 1978.98 506.433 Q1974.66 512.423 1974.66 522.996 Q1974.66 533.568 1978.98 539.61 Q1983.35 545.6 1990.96 545.6 Q1998.56 545.6 2002.88 539.61 Q2007.26 533.568 2007.26 522.996 Z" fill="#000000" fill-rule="nonzero" fill-opacity="1" /></svg>
