<?xml version="1.0" encoding="utf-8"?>
<svg xmlns="http://www.w3.org/2000/svg" xmlns:xlink="http://www.w3.org/1999/xlink" width="600" height="400" viewBox="0 0 2400 1600">
<defs>
  <clipPath id="clip280">
    <rect x="0" y="0" width="2400" height="1600"/>
  </clipPath>
</defs>
<path clip-path="url(#clip280)" d="M0 1600 L2400 1600 L2400 0 L0 0  Z" fill="#ffffff" fill-rule="evenodd" fill-opacity="1"/>
<defs>
  <clipPath id="clip281">
    <rect x="439" y="47" width="1726" height="1295"/>
  </clipPath>
</defs>
<path clip-path="url(#clip280)" d="M439.054 1341.1 L2164.2 1341.1 L2164.2 47.2441 L439.054 47.2441  Z" fill="#ffffff" fill-rule="evenodd" fill-opacity="1"/>
<polyline clip-path="url(#clip281)" style="stroke:#000000; stroke-linecap:round; stroke-linejoin:round; stroke-width:2; stroke-opacity:0.1; fill:none" points="487.879,1341.1 487.879,47.2441 "/>
<polyline clip-path="url(#clip281)" style="stroke:#000000; stroke-linecap:round; stroke-linejoin:round; stroke-width:2; stroke-opacity:0.1; fill:none" points="894.752,1341.1 894.752,47.2441 "/>
<polyline clip-path="url(#clip281)" style="stroke:#000000; stroke-linecap:round; stroke-linejoin:round; stroke-width:2; stroke-opacity:0.1; fill:none" points="1301.62,1341.1 1301.62,47.2441 "/>
<polyline clip-path="url(#clip281)" style="stroke:#000000; stroke-linecap:round; stroke-linejoin:round; stroke-width:2; stroke-opacity:0.1; fill:none" points="1708.5,1341.1 1708.5,47.2441 "/>
<polyline clip-path="url(#clip281)" style="stroke:#000000; stroke-linecap:round; stroke-linejoin:round; stroke-width:2; stroke-opacity:0.1; fill:none" points="2115.37,1341.1 2115.37,47.2441 "/>
<polyline clip-path="url(#clip281)" style="stroke:#000000; stroke-linecap:round; stroke-linejoin:round; stroke-width:2; stroke-opacity:0.1; fill:none" points="439.054,1304.48 2164.2,1304.48 "/>
<polyline clip-path="url(#clip281)" style="stroke:#000000; stroke-linecap:round; stroke-linejoin:round; stroke-width:2; stroke-opacity:0.1; fill:none" points="439.054,897.608 2164.2,897.608 "/>
<polyline clip-path="url(#clip281)" style="stroke:#000000; stroke-linecap:round; stroke-linejoin:round; stroke-width:2; stroke-opacity:0.1; fill:none" points="439.054,490.736 2164.2,490.736 "/>
<polyline clip-path="url(#clip281)" style="stroke:#000000; stroke-linecap:round; stroke-linejoin:round; stroke-width:2; stroke-opacity:0.1; fill:none" points="439.054,83.8627 2164.2,83.8627 "/>
<polyline clip-path="url(#clip280)" style="stroke:#000000; stroke-linecap:round; stroke-linejoin:round; stroke-width:4; stroke-opacity:1; fill:none" points="439.054,1341.1 2164.2,1341.1 "/>
<polyline clip-path="url(#clip280)" style="stroke:#000000; stroke-linecap:round; stroke-linejoin:round; stroke-width:4; stroke-opacity:1; fill:none" points="487.879,1341.1 487.879,1322.2 "/>
<polyline clip-path="url(#clip280)" style="stroke:#000000; stroke-linecap:round; stroke-linejoin:round; stroke-width:4; stroke-opacity:1; fill:none" points="894.752,1341.1 894.752,1322.2 "/>
<polyline clip-path="url(#clip280)" style="stroke:#000000; stroke-linecap:round; stroke-linejoin:round; stroke-width:4; stroke-opacity:1; fill:none" points="1301.62,1341.1 1301.62,1322.2 "/>
<polyline clip-path="url(#clip280)" style="stroke:#000000; stroke-linecap:round; stroke-linejoin:round; stroke-width:4; stroke-opacity:1; fill:none" points="1708.5,1341.1 1708.5,1322.2 "/>
<polyline clip-path="url(#clip280)" style="stroke:#000000; stroke-linecap:round; stroke-linejoin:round; stroke-width:4; stroke-opacity:1; fill:none" points="2115.37,1341.1 2115.37,1322.2 "/>
<path clip-path="url(#clip280)" d="M487.879 1380.81 Q481.56 1380.81 478.36 1387.05 Q475.2 1393.24 475.2 1405.72 Q475.2 1418.16 478.36 1424.4 Q481.56 1430.59 487.879 1430.59 Q494.239 1430.59 497.399 1424.4 Q500.599 1418.16 500.599 1405.72 Q500.599 1393.24 497.399 1387.05 Q494.239 1380.81 487.879 1380.81 M487.879 1374.33 Q498.047 1374.33 503.394 1382.39 Q508.782 1390.41 508.782 1405.72 Q508.782 1420.99 503.394 1429.05 Q498.047 1437.07 487.879 1437.07 Q477.711 1437.07 472.324 1429.05 Q466.977 1420.99 466.977 1405.72 Q466.977 1390.41 472.324 1382.39 Q477.711 1374.33 487.879 1374.33 Z" fill="#000000" fill-rule="nonzero" fill-opacity="1" /><path clip-path="url(#clip280)" d="M877.921 1429.01 L891.289 1429.01 L891.289 1382.87 L876.746 1385.79 L876.746 1378.34 L891.208 1375.42 L899.39 1375.42 L899.39 1429.01 L912.758 1429.01 L912.758 1435.9 L877.921 1435.9 L877.921 1429.01 Z" fill="#000000" fill-rule="nonzero" fill-opacity="1" /><path clip-path="url(#clip280)" d="M1292.27 1429.01 L1320.83 1429.01 L1320.83 1435.9 L1282.42 1435.9 L1282.42 1429.01 Q1287.08 1424.19 1295.1 1416.09 Q1303.16 1407.95 1305.23 1405.6 Q1309.16 1401.18 1310.7 1398.15 Q1312.28 1395.07 1312.28 1392.11 Q1312.28 1387.29 1308.88 1384.25 Q1305.51 1381.21 1300.09 1381.21 Q1296.24 1381.21 1291.94 1382.55 Q1287.69 1383.89 1282.83 1386.6 L1282.83 1378.34 Q1287.77 1376.35 1292.06 1375.34 Q1296.36 1374.33 1299.92 1374.33 Q1309.32 1374.33 1314.91 1379.03 Q1320.5 1383.72 1320.5 1391.58 Q1320.5 1395.31 1319.08 1398.67 Q1317.71 1401.99 1314.02 1406.53 Q1313.01 1407.71 1307.58 1413.34 Q1302.15 1418.93 1292.27 1429.01 Z" fill="#000000" fill-rule="nonzero" fill-opacity="1" /><path clip-path="url(#clip280)" d="M1715.93 1403.29 Q1721.81 1404.55 1725.09 1408.52 Q1728.41 1412.49 1728.41 1418.32 Q1728.41 1427.27 1722.25 1432.17 Q1716.09 1437.07 1704.75 1437.07 Q1700.94 1437.07 1696.89 1436.3 Q1692.88 1435.58 1688.59 1434.08 L1688.59 1426.18 Q1691.99 1428.16 1696.04 1429.18 Q1700.09 1430.19 1704.51 1430.19 Q1712.2 1430.19 1716.21 1427.15 Q1720.27 1424.11 1720.27 1418.32 Q1720.27 1412.97 1716.5 1409.97 Q1712.77 1406.94 1706.09 1406.94 L1699.04 1406.94 L1699.04 1400.21 L1706.41 1400.21 Q1712.45 1400.21 1715.65 1397.82 Q1718.85 1395.39 1718.85 1390.85 Q1718.85 1386.2 1715.53 1383.72 Q1712.24 1381.21 1706.09 1381.21 Q1702.73 1381.21 1698.88 1381.94 Q1695.03 1382.67 1690.41 1384.21 L1690.41 1376.92 Q1695.07 1375.62 1699.12 1374.97 Q1703.21 1374.33 1706.82 1374.33 Q1716.13 1374.33 1721.56 1378.58 Q1726.99 1382.79 1726.99 1390 Q1726.99 1395.03 1724.11 1398.51 Q1721.24 1401.95 1715.93 1403.29 Z" fill="#000000" fill-rule="nonzero" fill-opacity="1" /><path clip-path="url(#clip280)" d="M2120.64 1382.55 L2099.98 1414.84 L2120.64 1414.84 L2120.64 1382.55 M2118.49 1375.42 L2128.78 1375.42 L2128.78 1414.84 L2137.41 1414.84 L2137.41 1421.64 L2128.78 1421.64 L2128.78 1435.9 L2120.64 1435.9 L2120.64 1421.64 L2093.33 1421.64 L2093.33 1413.74 L2118.49 1375.42 Z" fill="#000000" fill-rule="nonzero" fill-opacity="1" /><path clip-path="url(#clip280)" d="M1327.67 1507.53 Q1327.67 1519.33 1323.87 1532.61 Q1320.15 1545.82 1314.24 1556.5 Q1308.34 1567.11 1300.61 1574.14 Q1292.88 1581.1 1285.5 1581.1 Q1280.8 1581.1 1277.28 1578.5 Q1273.84 1575.83 1271.94 1571.4 Q1270.05 1566.9 1269.13 1561.98 Q1268.22 1557 1268.22 1551.58 Q1268.22 1543.5 1269.98 1534.72 Q1271.73 1525.87 1274.68 1517.86 Q1277.64 1509.78 1281.78 1502.47 Q1285.93 1495.09 1290.49 1489.75 Q1295.13 1484.34 1300.33 1481.18 Q1305.53 1478.01 1310.38 1478.01 Q1313.89 1478.01 1316.7 1479.56 Q1319.58 1481.04 1321.41 1483.64 Q1323.24 1486.17 1324.5 1489.19 Q1325.84 1492.21 1326.47 1495.72 Q1327.1 1499.17 1327.38 1502.05 Q1327.67 1504.86 1327.67 1507.53 M1318.18 1498.6 Q1318.18 1495.02 1317.9 1492.35 Q1317.62 1489.61 1316.84 1486.87 Q1316.07 1484.13 1314.38 1482.65 Q1312.77 1481.18 1310.24 1481.18 Q1302.86 1481.18 1294.57 1496.28 Q1291.9 1500.99 1289.51 1507.39 Q1287.12 1513.78 1286.28 1516.8 Q1285.43 1519.82 1283.47 1527.27 L1313.54 1527.27 Q1318.18 1508.09 1318.18 1498.6 M1312.28 1531.84 L1282.34 1531.84 Q1277.71 1549.41 1277.71 1560.37 Q1277.71 1569.92 1279.67 1573.93 Q1281.71 1577.86 1285.5 1577.86 Q1289.86 1577.86 1293.94 1573.51 Q1298.01 1569.08 1302.16 1561.07 Q1307.64 1550.67 1312.28 1531.84 Z" fill="#000000" fill-rule="nonzero" fill-opacity="1" /><polyline clip-path="url(#clip280)" style="stroke:#000000; stroke-linecap:round; stroke-linejoin:round; stroke-width:4; stroke-opacity:1; fill:none" points="439.054,1341.1 439.054,47.2441 "/>
<polyline clip-path="url(#clip280)" style="stroke:#000000; stroke-linecap:round; stroke-linejoin:round; stroke-width:4; stroke-opacity:1; fill:none" points="439.054,1304.48 454.562,1304.48 "/>
<polyline clip-path="url(#clip280)" style="stroke:#000000; stroke-linecap:round; stroke-linejoin:round; stroke-width:4; stroke-opacity:1; fill:none" points="439.054,897.608 454.562,897.608 "/>
<polyline clip-path="url(#clip280)" style="stroke:#000000; stroke-linecap:round; stroke-linejoin:round; stroke-width:4; stroke-opacity:1; fill:none" points="439.054,490.736 454.562,490.736 "/>
<polyline clip-path="url(#clip280)" style="stroke:#000000; stroke-linecap:round; stroke-linejoin:round; stroke-width:4; stroke-opacity:1; fill:none" points="439.054,83.8627 454.562,83.8627 "/>
<path clip-path="url(#clip280)" d="M368.217 1327.83 L381.585 1327.83 L381.585 1281.69 L367.042 1284.61 L367.042 1277.16 L381.504 1274.24 L389.686 1274.24 L389.686 1327.83 L403.054 1327.83 L403.054 1334.72 L368.217 1334.72 L368.217 1327.83 Z" fill="#000000" fill-rule="nonzero" fill-opacity="1" /><path clip-path="url(#clip280)" d="M374.496 920.962 L403.054 920.962 L403.054 927.848 L364.652 927.848 L364.652 920.962 Q369.31 916.141 377.331 908.039 Q385.393 899.897 387.458 897.548 Q391.388 893.132 392.927 890.094 Q394.507 887.015 394.507 884.058 Q394.507 879.238 391.104 876.199 Q387.742 873.161 382.314 873.161 Q378.465 873.161 374.172 874.498 Q369.918 875.835 365.057 878.549 L365.057 870.285 Q369.999 868.3 374.293 867.287 Q378.587 866.275 382.152 866.275 Q391.55 866.275 397.14 870.974 Q402.73 875.673 402.73 883.532 Q402.73 887.258 401.313 890.621 Q399.935 893.942 396.249 898.479 Q395.236 899.654 389.808 905.285 Q384.38 910.875 374.496 920.962 Z" fill="#000000" fill-rule="nonzero" fill-opacity="1" /><path clip-path="url(#clip280)" d="M390.578 488.366 Q396.451 489.622 399.733 493.591 Q403.054 497.561 403.054 503.395 Q403.054 512.347 396.897 517.249 Q390.74 522.15 379.397 522.15 Q375.589 522.15 371.538 521.381 Q367.528 520.651 363.234 519.153 L363.234 511.253 Q366.637 513.238 370.688 514.251 Q374.739 515.264 379.154 515.264 Q386.851 515.264 390.861 512.226 Q394.912 509.187 394.912 503.395 Q394.912 498.047 391.145 495.05 Q387.418 492.012 380.734 492.012 L373.685 492.012 L373.685 485.287 L381.058 485.287 Q387.094 485.287 390.294 482.897 Q393.494 480.466 393.494 475.929 Q393.494 471.271 390.173 468.8 Q386.891 466.288 380.734 466.288 Q377.372 466.288 373.523 467.017 Q369.675 467.747 365.057 469.286 L365.057 461.994 Q369.716 460.698 373.766 460.05 Q377.858 459.402 381.463 459.402 Q390.78 459.402 396.208 463.655 Q401.637 467.868 401.637 475.079 Q401.637 480.102 398.76 483.586 Q395.884 487.029 390.578 488.366 Z" fill="#000000" fill-rule="nonzero" fill-opacity="1" /><path clip-path="url(#clip280)" d="M386.284 60.7522 L365.624 93.038 L386.284 93.038 L386.284 60.7522 M384.137 53.6227 L394.426 53.6227 L394.426 93.038 L403.054 93.038 L403.054 99.8435 L394.426 99.8435 L394.426 114.103 L386.284 114.103 L386.284 99.8435 L358.981 99.8435 L358.981 91.9442 L384.137 53.6227 Z" fill="#000000" fill-rule="nonzero" fill-opacity="1" /><path clip-path="url(#clip280)" d="M234.892 994.607 Q239.811 994.607 239.811 1001.63 L239.811 1017.44 Q246.135 1013.02 255.481 1013.02 Q263.491 1013.02 271.01 1016.32 Q278.458 1019.55 283.658 1024.75 Q288.858 1029.88 292.02 1036.35 Q295.111 1042.81 295.111 1049.13 Q295.111 1058.76 288.577 1064.73 Q282.042 1070.71 272.345 1070.71 Q267.215 1070.71 261.524 1068.95 Q255.832 1067.12 250.562 1063.68 Q245.222 1060.24 240.935 1055.74 Q236.649 1051.17 234.049 1045.27 Q231.449 1039.3 231.449 1033.04 L231.449 1000.23 Q231.449 998.472 231.59 997.558 Q231.66 996.575 232.503 995.591 Q233.276 994.607 234.892 994.607 M253.794 1022.22 Q252.108 1022.22 250.632 1022.43 Q249.086 1022.64 247.049 1023.42 Q244.941 1024.19 243.465 1025.52 Q241.919 1026.86 240.865 1029.46 Q239.811 1031.99 239.811 1035.43 Q239.811 1040.28 242.481 1045.62 Q245.151 1050.96 251.756 1055.04 Q257.378 1058.41 264.686 1060.1 Q271.993 1061.78 276.35 1061.78 Q283.798 1061.78 287.874 1058.2 Q291.879 1054.55 291.879 1048.99 Q291.879 1044.43 288.787 1039.23 Q285.625 1034.03 279.653 1030.02 Q274.453 1026.51 266.864 1024.4 Q259.275 1022.22 253.794 1022.22 Z" fill="#000000" fill-rule="nonzero" fill-opacity="1" /><path clip-path="url(#clip280)" d="M277.456 979.987 L274.308 979.987 Q274.308 967.887 267.865 961.64 Q267.865 959.919 268.258 959.624 Q268.652 959.329 270.472 959.329 L326.988 959.329 Q329.988 959.329 330.923 957.853 Q331.857 956.377 331.857 949.934 L331.857 946.737 L334.956 946.737 Q334.661 950.278 334.661 963.067 Q334.661 975.856 334.956 979.348 L331.857 979.348 L331.857 976.151 Q331.857 969.805 330.972 968.281 Q330.037 966.756 326.988 966.756 L274.8 966.756 Q277.456 972.019 277.456 979.987 Z" fill="#000000" fill-rule="nonzero" fill-opacity="1" /><path clip-path="url(#clip280)" d="M257.518 931.694 Q233.206 931.694 213.601 922.63 Q205.38 918.765 198.494 913.355 Q191.608 907.944 188.586 904.36 Q185.565 900.777 185.565 899.793 Q185.565 898.388 186.97 898.317 Q187.673 898.317 189.429 900.215 Q213.039 923.403 257.518 923.333 Q302.138 923.333 324.835 900.777 Q327.294 898.317 328.067 898.317 Q329.472 898.317 329.472 899.793 Q329.472 900.777 326.591 904.22 Q323.71 907.663 317.105 913.003 Q310.5 918.344 302.419 922.208 Q282.815 931.694 257.518 931.694 Z" fill="#000000" fill-rule="nonzero" fill-opacity="1" /><path clip-path="url(#clip280)" d="M197.37 756.841 Q198.845 756.841 199.759 757.262 Q200.672 757.614 201.023 758.387 Q201.375 759.089 201.445 759.651 Q201.515 760.143 201.515 760.986 Q201.586 767.662 202.991 771.105 Q204.326 774.478 207.137 777.148 L254.075 820.995 L286.469 829.076 Q286.75 823.033 286.75 820.292 Q286.75 817.833 286.89 816.849 Q286.96 815.795 287.523 815.022 Q288.085 814.249 289.349 814.249 Q293.495 814.249 293.495 818.465 L293.074 840.459 L293.214 850.929 Q293.214 852.756 293.355 856.48 Q293.495 860.134 293.495 861.89 Q293.495 863.225 292.863 864.069 Q292.23 864.842 291.528 864.912 L290.895 865.052 Q290.052 865.052 288.928 864.631 Q287.804 864.209 287.312 863.647 Q286.89 863.225 286.82 862.523 Q286.75 861.75 286.75 858.447 Q286.75 853.388 286.469 850.929 Q286.398 848.961 285.977 848.54 Q285.555 848.048 283.728 847.626 L254.075 840.178 L203.834 862.031 Q202.499 862.663 202.218 863.085 Q201.867 863.507 201.656 864.912 Q201.515 866.95 201.515 870.533 Q201.515 872.922 201.445 873.906 Q201.305 874.89 200.742 875.663 Q200.18 876.436 198.915 876.436 Q197.44 876.436 196.526 876.084 Q195.613 875.663 195.262 874.96 Q194.91 874.187 194.84 873.695 Q194.77 873.203 194.77 872.43 Q194.77 870.814 194.91 867.301 Q195.051 863.788 195.051 862.031 L195.191 852.123 L194.77 829.778 Q194.77 826.616 197.37 826.616 Q198.775 826.616 199.688 827.038 Q200.602 827.389 200.953 828.232 Q201.305 829.005 201.445 829.708 Q201.515 830.34 201.515 831.535 Q201.515 835.119 202.148 839.616 L244.308 821.135 L202.569 782.137 Q201.515 785.369 201.515 788.672 Q201.515 792.537 198.915 792.537 Q197.44 792.537 196.526 792.115 Q195.613 791.693 195.262 790.92 Q194.91 790.147 194.84 789.726 Q194.77 789.304 194.77 788.672 Q194.77 786.072 194.98 780.732 Q195.191 775.321 195.191 772.651 Q195.191 770.473 194.98 765.975 Q194.77 761.478 194.77 759.441 Q194.77 758.176 195.683 757.543 Q196.526 756.841 197.37 756.841 Z" fill="#000000" fill-rule="nonzero" fill-opacity="1" /><path clip-path="url(#clip280)" d="M328.067 780.255 Q327.364 780.255 325.607 778.428 Q301.998 755.24 257.518 755.24 Q212.899 755.24 190.343 777.515 Q187.743 780.255 186.97 780.255 Q185.565 780.255 185.565 778.85 Q185.565 777.866 188.446 774.423 Q191.327 770.909 197.932 765.639 Q204.537 760.299 212.618 756.364 Q232.222 746.878 257.518 746.878 Q281.831 746.878 301.435 755.942 Q309.657 759.807 316.543 765.218 Q323.429 770.628 326.451 774.212 Q329.472 777.796 329.472 778.85 Q329.472 780.255 328.067 780.255 Z" fill="#000000" fill-rule="nonzero" fill-opacity="1" /><path clip-path="url(#clip280)" d="M185.579 635.691 Q201.551 644.997 217.176 649.511 Q232.801 654.024 248.843 654.024 Q264.884 654.024 280.648 649.511 Q296.342 644.927 312.245 635.691 L312.245 646.802 Q295.926 657.219 280.162 662.427 Q264.398 667.566 248.843 667.566 Q233.357 667.566 217.662 662.427 Q201.968 657.288 185.579 646.802 L185.579 635.691 Z" fill="#000000" fill-rule="nonzero" fill-opacity="1" /><path clip-path="url(#clip280)" d="M203.635 575.692 L255.232 594.719 L255.232 556.594 L203.635 575.692 M189.815 583.608 L189.815 567.705 L293.495 528.192 L293.495 542.775 L266.898 552.219 L266.898 598.955 L293.495 608.4 L293.495 623.191 L189.815 583.608 Z" fill="#000000" fill-rule="nonzero" fill-opacity="1" /><path clip-path="url(#clip280)" d="M215.718 531.108 L215.718 517.567 L280.995 493.261 L215.718 468.956 L215.718 455.414 L293.495 484.581 L293.495 501.942 L215.718 531.108 Z" fill="#000000" fill-rule="nonzero" fill-opacity="1" /><path clip-path="url(#clip280)" d="M253.704 386.595 Q239.815 386.595 232.176 392.359 Q224.537 398.054 224.537 408.401 Q224.537 418.678 232.176 424.442 Q239.815 430.137 253.704 430.137 Q267.523 430.137 275.162 424.442 Q282.801 418.678 282.801 408.401 Q282.801 398.054 275.162 392.359 Q267.523 386.595 253.704 386.595 M283.843 373.818 Q303.704 373.818 313.356 382.637 Q323.078 391.456 323.078 409.651 Q323.078 416.387 322.037 422.359 Q321.065 428.331 318.981 433.956 L306.551 433.956 Q309.606 428.331 311.065 422.845 Q312.523 417.359 312.523 411.665 Q312.523 399.095 305.926 392.845 Q299.398 386.595 286.134 386.595 L279.815 386.595 Q286.69 390.554 290.093 396.734 Q293.495 402.915 293.495 411.526 Q293.495 425.831 282.593 434.581 Q271.69 443.331 253.704 443.331 Q235.648 443.331 224.746 434.581 Q213.843 425.831 213.843 411.526 Q213.843 402.915 217.246 396.734 Q220.648 390.554 227.523 386.595 L215.718 386.595 L215.718 373.818 L283.843 373.818 Z" fill="#000000" fill-rule="nonzero" fill-opacity="1" /><path clip-path="url(#clip280)" d="M185.579 349.512 L185.579 338.401 Q201.968 327.985 217.662 322.846 Q233.357 317.637 248.843 317.637 Q264.398 317.637 280.162 322.846 Q295.926 327.985 312.245 338.401 L312.245 349.512 Q296.342 340.276 280.648 335.762 Q264.884 331.179 248.843 331.179 Q232.801 331.179 217.176 335.762 Q201.551 340.276 185.579 349.512 Z" fill="#000000" fill-rule="nonzero" fill-opacity="1" /><polyline clip-path="url(#clip281)" style="stroke:#0000ff; stroke-linecap:round; stroke-linejoin:round; stroke-width:12; stroke-opacity:1; fill:none" points="487.879,1188.25 501.442,1188.25 515.004,1188.25 528.566,1188.25 542.129,1188.25 555.691,1188.25 569.254,1188.25 582.816,1188.25 596.379,1188.25 609.941,1188.25 623.503,1188.25 637.066,1188.25 650.628,1188.25 664.191,1188.25 677.753,1188.25 691.316,1188.25 704.878,1188.25 718.44,1188.25 732.003,1188.25 745.565,1188.25 759.128,1188.25 772.69,1188.25 786.253,1188.25 799.815,1188.25 813.377,1188.25 826.94,1188.25 840.502,1188.25 854.065,1188.25 867.627,1188.25 881.19,1188.25 894.752,1188.25 908.315,1188.25 921.877,1188.25 935.439,1188.25 949.002,1188.25 962.564,1188.25 976.127,1188.25 989.689,1188.25 1003.25,1188.25 1016.81,1188.25 1030.38,1188.15 1043.94,1187.73 1057.5,1187.02 1071.06,1186.03 1084.63,1184.79 1098.19,1183.31 1111.75,1181.6 1125.31,1179.69 1138.88,1177.58 1152.44,1175.28 1166,1172.81 1179.56,1170.18 1193.13,1167.4 1206.69,1164.47 1220.25,1161.4 1233.81,1158.21 1247.38,1154.89 1260.94,1151.45 1274.5,1147.91 1288.06,1144.26 1301.62,1140.51 1315.19,1136.67 1328.75,1132.74 1342.31,1128.72 1355.87,1124.62 1369.44,1120.44 1383,1116.19 1396.56,1111.87 1410.12,1107.48 1423.69,1103.02 1437.25,1098.5 1450.81,1093.93 1464.37,1089.29 1477.94,1084.6 1491.5,1079.86 1505.06,1075.07 1518.62,1070.23 1532.19,1065.34 1545.75,1060.41 1559.31,1055.43 1572.87,1050.41 1586.44,1045.36 1600,1040.26 1613.56,1035.13 1627.12,1029.96 1640.69,1024.75 1654.25,1019.52 1667.81,1014.25 1681.37,1008.95 1694.94,1003.62 1708.5,998.261 1722.06,992.873 1735.62,987.459 1749.19,982.018 1762.75,976.552 1776.31,971.061 1789.87,965.546 1803.43,960.008 1817,954.447 1830.56,948.864 1844.12,943.261 1857.68,937.637 1871.25,931.992 1884.81,926.329 1898.37,920.647 1911.93,914.946 1925.5,909.228 1939.06,903.492 1952.62,897.74 1966.18,891.971 1979.75,886.187 1993.31,880.387 2006.87,874.571 2020.43,868.742 2034,862.898 2047.56,857.04 2061.12,851.169 2074.68,845.284 2088.25,839.387 2101.81,833.477 2115.37,827.555 2128.93,821.62 2142.5,815.675 2156.06,809.718 2169.62,803.75 2183.18,797.771 2196.75,791.781 2210.31,785.782 2223.87,779.772 2237.43,773.752 2250.99,767.723 2264.56,761.684 2278.12,755.636 2291.68,749.58 2305.24,743.514 2318.81,737.44 2332.37,731.358 2345.93,725.267 2359.49,719.168 2373.06,713.062 2386.62,706.948 2400.18,700.826 2413.74,694.697 2427.31,688.561 2440.87,682.417 2454.43,676.267 2467.99,670.11 2481.56,663.946 2495.12,657.776 2508.68,651.6 2522.24,645.417 2535.81,639.228 2549.37,633.033 2562.93,626.833 2576.49,620.626 2590.06,614.414 2603.62,608.196 2617.18,601.973 2630.74,595.745 2644.31,589.511 2657.87,583.272 2671.43,577.029 2684.99,570.78 2698.56,564.526 2712.12,558.268 2725.68,552.005 2739.24,545.737 2752.8,539.465 2766.37,533.188 2779.93,526.907 2793.49,520.622 2807.05,514.332 2820.62,508.038 2834.18,501.741 2847.74,495.439 2861.3,489.133 2874.87,482.824 2888.43,476.511 2901.99,470.194 2915.55,463.873 2929.12,457.549 2942.68,451.221 2956.24,444.89 2969.8,438.555 2983.37,432.217 2996.93,425.876 3010.49,419.531 3024.05,413.183 3037.62,406.832 3051.18,400.478 3064.74,394.121 3078.3,387.76 3091.87,381.397 3105.43,375.031 3118.99,368.662 3132.55,362.29 3146.12,355.916 3159.68,349.538 3173.24,343.158 3186.8,336.776 3200.37,330.39 3213.93,324.002 3227.49,317.612 3241.05,311.219 3254.61,304.823 3268.18,298.425 3281.74,292.025 3295.3,285.622 3308.86,279.217 3322.43,272.81 3335.99,266.401 3349.55,259.989 3363.11,253.575 3376.68,247.159 3390.24,240.74 3403.8,234.32 3417.36,227.897 3430.93,221.473 3444.49,215.046 3458.05,208.618 3471.61,202.187 3485.18,195.754 3498.74,189.32 3512.3,182.884 3525.86,176.446 3539.43,170.006 3552.99,163.564 3566.55,157.12 3580.11,150.675 3593.68,144.228 3607.24,137.779 3620.8,131.328 3634.36,124.876 3647.93,118.422 3661.49,111.966 3675.05,105.509 3688.61,99.0506 3702.17,92.5902 3715.74,86.1283 3729.3,79.6649 3742.86,73.2 "/>
<path clip-path="url(#clip281)" d="M463.879 1171.61 L463.879 1219.61 L511.879 1219.61 L511.879 1171.61 L463.879 1171.61 Z" fill="#ffa500" fill-rule="evenodd" fill-opacity="1" stroke="none"/>
<path clip-path="url(#clip281)" d="M565.597 1171.82 L565.597 1219.82 L613.597 1219.82 L613.597 1171.82 L565.597 1171.82 Z" fill="#ffa500" fill-rule="evenodd" fill-opacity="1" stroke="none"/>
<path clip-path="url(#clip281)" d="M667.316 1168.52 L667.316 1216.52 L715.316 1216.52 L715.316 1168.52 L667.316 1168.52 Z" fill="#ffa500" fill-rule="evenodd" fill-opacity="1" stroke="none"/>
<path clip-path="url(#clip281)" d="M769.034 1167.44 L769.034 1215.44 L817.034 1215.44 L817.034 1167.44 L769.034 1167.44 Z" fill="#ffa500" fill-rule="evenodd" fill-opacity="1" stroke="none"/>
<path clip-path="url(#clip281)" d="M870.752 1163.04 L870.752 1211.04 L918.752 1211.04 L918.752 1163.04 L870.752 1163.04 Z" fill="#ffa500" fill-rule="evenodd" fill-opacity="1" stroke="none"/>
<path clip-path="url(#clip281)" d="M972.47 1153.71 L972.47 1201.71 L1020.47 1201.71 L1020.47 1153.71 L972.47 1153.71 Z" fill="#ffa500" fill-rule="evenodd" fill-opacity="1" stroke="none"/>
<path clip-path="url(#clip281)" d="M1074.19 1141.27 L1074.19 1189.27 L1122.19 1189.27 L1122.19 1141.27 L1074.19 1141.27 Z" fill="#ffa500" fill-rule="evenodd" fill-opacity="1" stroke="none"/>
<path clip-path="url(#clip281)" d="M1175.91 1118.4 L1175.91 1166.4 L1223.91 1166.4 L1223.91 1118.4 L1175.91 1118.4 Z" fill="#ffa500" fill-rule="evenodd" fill-opacity="1" stroke="none"/>
<path clip-path="url(#clip281)" d="M1277.62 1092.28 L1277.62 1140.28 L1325.62 1140.28 L1325.62 1092.28 L1277.62 1092.28 Z" fill="#ffa500" fill-rule="evenodd" fill-opacity="1" stroke="none"/>
<path clip-path="url(#clip281)" d="M1379.34 1066.15 L1379.34 1114.15 L1427.34 1114.15 L1427.34 1066.15 L1379.34 1066.15 Z" fill="#ffa500" fill-rule="evenodd" fill-opacity="1" stroke="none"/>
<path clip-path="url(#clip281)" d="M1481.06 1034.55 L1481.06 1082.55 L1529.06 1082.55 L1529.06 1034.55 L1481.06 1034.55 Z" fill="#ffa500" fill-rule="evenodd" fill-opacity="1" stroke="none"/>
<path clip-path="url(#clip281)" d="M1582.78 990.375 L1582.78 1038.37 L1630.78 1038.37 L1630.78 990.375 L1582.78 990.375 Z" fill="#ffa500" fill-rule="evenodd" fill-opacity="1" stroke="none"/>
<path clip-path="url(#clip281)" d="M1684.5 953.484 L1684.5 1001.48 L1732.5 1001.48 L1732.5 953.484 L1684.5 953.484 Z" fill="#ffa500" fill-rule="evenodd" fill-opacity="1" stroke="none"/>
<path clip-path="url(#clip281)" d="M1786.22 911.374 L1786.22 959.374 L1834.22 959.374 L1834.22 911.374 L1786.22 911.374 Z" fill="#ffa500" fill-rule="evenodd" fill-opacity="1" stroke="none"/>
<path clip-path="url(#clip281)" d="M1887.93 866.493 L1887.93 914.493 L1935.93 914.493 L1935.93 866.493 L1887.93 866.493 Z" fill="#ffa500" fill-rule="evenodd" fill-opacity="1" stroke="none"/>
<path clip-path="url(#clip281)" d="M1989.65 818.555 L1989.65 866.555 L2037.65 866.555 L2037.65 818.555 L1989.65 818.555 Z" fill="#ffa500" fill-rule="evenodd" fill-opacity="1" stroke="none"/>
<path clip-path="url(#clip281)" d="M2091.37 777.064 L2091.37 825.064 L2139.37 825.064 L2139.37 777.064 L2091.37 777.064 Z" fill="#ffa500" fill-rule="evenodd" fill-opacity="1" stroke="none"/>
<circle clip-path="url(#clip281)" cx="487.879" cy="1190.74" r="21.6" fill="#ff0000" fill-rule="evenodd" fill-opacity="1" stroke="none"/>
<circle clip-path="url(#clip281)" cx="589.597" cy="1190.41" r="21.6" fill="#ff0000" fill-rule="evenodd" fill-opacity="1" stroke="none"/>
<circle clip-path="url(#clip281)" cx="691.316" cy="1190.08" r="21.6" fill="#ff0000" fill-rule="evenodd" fill-opacity="1" stroke="none"/>
<circle clip-path="url(#clip281)" cx="793.034" cy="1190.32" r="21.6" fill="#ff0000" fill-rule="evenodd" fill-opacity="1" stroke="none"/>
<circle clip-path="url(#clip281)" cx="894.752" cy="1189.93" r="21.6" fill="#ff0000" fill-rule="evenodd" fill-opacity="1" stroke="none"/>
<circle clip-path="url(#clip281)" cx="996.47" cy="1187.74" r="21.6" fill="#ff0000" fill-rule="evenodd" fill-opacity="1" stroke="none"/>
<circle clip-path="url(#clip281)" cx="1098.19" cy="1180.24" r="21.6" fill="#ff0000" fill-rule="evenodd" fill-opacity="1" stroke="none"/>
<circle clip-path="url(#clip281)" cx="1199.91" cy="1162.95" r="21.6" fill="#ff0000" fill-rule="evenodd" fill-opacity="1" stroke="none"/>
<circle clip-path="url(#clip281)" cx="1301.62" cy="1139.19" r="21.6" fill="#ff0000" fill-rule="evenodd" fill-opacity="1" stroke="none"/>
<circle clip-path="url(#clip281)" cx="1403.34" cy="1107.53" r="21.6" fill="#ff0000" fill-rule="evenodd" fill-opacity="1" stroke="none"/>
<circle clip-path="url(#clip281)" cx="1505.06" cy="1074.3" r="21.6" fill="#ff0000" fill-rule="evenodd" fill-opacity="1" stroke="none"/>
<circle clip-path="url(#clip281)" cx="1606.78" cy="1036.82" r="21.6" fill="#ff0000" fill-rule="evenodd" fill-opacity="1" stroke="none"/>
<circle clip-path="url(#clip281)" cx="1708.5" cy="993.394" r="21.6" fill="#ff0000" fill-rule="evenodd" fill-opacity="1" stroke="none"/>
<circle clip-path="url(#clip281)" cx="1810.22" cy="956.099" r="21.6" fill="#ff0000" fill-rule="evenodd" fill-opacity="1" stroke="none"/>
<circle clip-path="url(#clip281)" cx="1911.93" cy="914.024" r="21.6" fill="#ff0000" fill-rule="evenodd" fill-opacity="1" stroke="none"/>
<circle clip-path="url(#clip281)" cx="2013.65" cy="867.296" r="21.6" fill="#ff0000" fill-rule="evenodd" fill-opacity="1" stroke="none"/>
<circle clip-path="url(#clip281)" cx="2115.37" cy="822.64" r="21.6" fill="#ff0000" fill-rule="evenodd" fill-opacity="1" stroke="none"/>
<polyline clip-path="url(#clip281)" style="stroke:#000000; stroke-linecap:round; stroke-linejoin:round; stroke-width:8; stroke-opacity:1; fill:none" points="487.879,1711.35 589.597,1661.51 691.316,1611.67 793.034,1561.83 894.752,1511.99 996.47,1462.14 1098.19,1412.3 1199.91,1362.46 1301.62,1312.62 1403.34,1262.78 1505.06,1212.93 1606.78,1163.09 1708.5,1113.25 1810.22,1063.41 1911.93,1013.57 2013.65,963.725 2115.37,913.883 "/>
<path clip-path="url(#clip280)" d="M509.13 673.573 L1127.24 673.573 L1127.24 90.3726 L509.13 90.3726  Z" fill="#ffffff" fill-rule="evenodd" fill-opacity="1"/>
<polyline clip-path="url(#clip280)" style="stroke:#000000; stroke-linecap:round; stroke-linejoin:round; stroke-width:4; stroke-opacity:1; fill:none" points="509.13,673.573 1127.24,673.573 1127.24,90.3726 509.13,90.3726 509.13,673.573 "/>
<polyline clip-path="url(#clip280)" style="stroke:#0000ff; stroke-linecap:round; stroke-linejoin:round; stroke-width:27; stroke-opacity:1; fill:none" points="532.488,207.013 672.639,207.013 "/>
<path clip-path="url(#clip280)" d="M712.664 170.997 L712.664 187.56 L732.404 187.56 L732.404 195.007 L712.664 195.007 L712.664 226.674 Q712.664 233.809 714.591 235.841 Q716.57 237.872 722.56 237.872 L732.404 237.872 L732.404 245.893 L722.56 245.893 Q711.466 245.893 707.248 241.778 Q703.029 237.611 703.029 226.674 L703.029 195.007 L695.998 195.007 L695.998 187.56 L703.029 187.56 L703.029 170.997 L712.664 170.997 Z" fill="#000000" fill-rule="nonzero" fill-opacity="1" /><path clip-path="url(#clip280)" d="M793.497 210.684 L793.497 245.893 L783.914 245.893 L783.914 210.997 Q783.914 202.716 780.685 198.601 Q777.455 194.487 770.997 194.487 Q763.237 194.487 758.758 199.435 Q754.279 204.382 754.279 212.924 L754.279 245.893 L744.643 245.893 L744.643 164.851 L754.279 164.851 L754.279 196.622 Q757.716 191.362 762.351 188.758 Q767.039 186.153 773.133 186.153 Q783.185 186.153 788.341 192.403 Q793.497 198.601 793.497 210.684 Z" fill="#000000" fill-rule="nonzero" fill-opacity="1" /><path clip-path="url(#clip280)" d="M862.507 214.33 L862.507 219.018 L818.445 219.018 Q819.07 228.914 824.382 234.122 Q829.747 239.278 839.278 239.278 Q844.799 239.278 849.955 237.924 Q855.163 236.57 860.268 233.861 L860.268 242.924 Q855.111 245.111 849.695 246.257 Q844.278 247.403 838.705 247.403 Q824.747 247.403 816.57 239.278 Q808.445 231.153 808.445 217.299 Q808.445 202.976 816.153 194.591 Q823.914 186.153 837.038 186.153 Q848.809 186.153 855.632 193.757 Q862.507 201.31 862.507 214.33 M852.924 211.518 Q852.82 203.653 848.497 198.966 Q844.226 194.278 837.143 194.278 Q829.122 194.278 824.278 198.81 Q819.486 203.341 818.757 211.57 L852.924 211.518 Z" fill="#000000" fill-rule="nonzero" fill-opacity="1" /><path clip-path="url(#clip280)" d="M900.84 194.278 Q893.132 194.278 888.653 200.32 Q884.174 206.309 884.174 216.778 Q884.174 227.247 888.601 233.289 Q893.08 239.278 900.84 239.278 Q908.496 239.278 912.976 233.236 Q917.455 227.195 917.455 216.778 Q917.455 206.414 912.976 200.372 Q908.496 194.278 900.84 194.278 M900.84 186.153 Q913.34 186.153 920.476 194.278 Q927.611 202.403 927.611 216.778 Q927.611 231.101 920.476 239.278 Q913.34 247.403 900.84 247.403 Q888.288 247.403 881.153 239.278 Q874.07 231.101 874.07 216.778 Q874.07 202.403 881.153 194.278 Q888.288 186.153 900.84 186.153 Z" fill="#000000" fill-rule="nonzero" fill-opacity="1" /><path clip-path="url(#clip280)" d="M977.298 196.518 Q975.684 195.58 973.757 195.164 Q971.882 194.695 969.59 194.695 Q961.465 194.695 957.09 200.007 Q952.767 205.268 952.767 215.164 L952.767 245.893 L943.132 245.893 L943.132 187.56 L952.767 187.56 L952.767 196.622 Q955.788 191.31 960.632 188.758 Q965.475 186.153 972.402 186.153 Q973.392 186.153 974.59 186.31 Q975.788 186.414 977.246 186.674 L977.298 196.518 Z" fill="#000000" fill-rule="nonzero" fill-opacity="1" /><path clip-path="url(#clip280)" d="M1011.62 251.309 Q1007.56 261.726 1003.7 264.903 Q999.85 268.08 993.392 268.08 L985.736 268.08 L985.736 260.059 L991.361 260.059 Q995.319 260.059 997.506 258.184 Q999.694 256.309 1002.35 249.33 L1004.07 244.955 L980.475 187.56 L990.631 187.56 L1008.86 233.184 L1027.09 187.56 L1037.25 187.56 L1011.62 251.309 Z" fill="#000000" fill-rule="nonzero" fill-opacity="1" /><path clip-path="url(#clip280)" d="M549.394 270.483 L549.394 376.822 L655.733 376.822 L655.733 270.483 L549.394 270.483 Z" fill="#ffa500" fill-rule="evenodd" fill-opacity="1" stroke="none"/>
<path clip-path="url(#clip280)" d="M804.139 286.473 Q804.139 288.001 803.454 288.317 Q802.821 288.633 800.713 288.633 Q798.237 288.633 796.708 288.844 Q795.18 289.002 794.231 289.266 Q793.283 289.477 792.703 290.214 Q792.176 290.952 791.965 291.585 Q791.754 292.164 791.385 293.587 L777.051 351.083 Q776.524 353.033 776.524 353.719 Q776.524 354.404 776.946 354.825 Q777.42 355.247 778.579 355.458 Q779.739 355.616 780.635 355.668 Q781.583 355.668 783.533 355.668 Q785.957 355.668 786.326 356.09 Q786.537 356.354 786.537 356.828 Q786.537 357.829 786.115 358.356 Q785.694 358.83 785.325 358.936 Q785.009 358.989 784.482 358.989 Q782.268 358.989 777.736 358.83 Q773.204 358.672 770.99 358.672 L757.604 358.989 Q756.023 358.989 756.023 357.671 Q756.023 356.67 756.445 356.248 Q756.867 355.774 757.341 355.721 Q757.815 355.668 759.027 355.668 Q763.349 355.668 765.193 355.194 Q767.091 354.72 767.618 353.877 Q768.197 352.981 768.83 350.556 L784.271 288.739 L784.166 288.739 L740.582 357.039 L740.266 357.513 Q739.95 357.935 739.844 358.093 Q739.739 358.198 739.423 358.514 Q739.159 358.778 738.843 358.883 Q738.58 358.989 738.211 358.989 Q737.578 358.989 737.209 358.567 Q736.893 358.145 736.788 357.829 Q736.735 357.46 736.577 356.512 L727.302 289.582 L727.196 289.582 L712.493 348.396 Q712.071 350.029 712.071 350.873 Q712.071 353.033 713.6 354.351 Q715.181 355.616 719.397 355.668 Q721.347 355.668 721.347 356.828 Q721.347 358.989 719.397 358.989 Q717.605 358.989 713.863 358.83 Q710.121 358.672 708.277 358.672 Q706.485 358.672 702.849 358.83 Q699.265 358.989 697.526 358.989 Q695.998 358.989 695.998 357.671 Q695.998 355.668 697.947 355.668 Q701.11 355.563 703.27 354.931 Q705.431 354.298 706.643 353.086 Q707.908 351.874 708.488 350.662 Q709.12 349.397 709.594 347.553 L723.296 292.586 Q723.718 290.847 723.718 290.583 Q723.718 289.687 723.191 289.371 Q722.717 289.002 721.347 288.844 Q718.711 288.633 716.709 288.633 Q715.391 288.633 714.864 288.581 Q714.39 288.528 713.968 288.264 Q713.6 287.948 713.6 287.316 Q713.6 286.315 714.021 285.893 Q714.495 285.419 715.022 285.366 Q715.549 285.261 716.814 285.261 L731.623 285.261 Q733.784 285.261 734.258 285.629 Q734.732 285.946 734.943 287.737 L743.375 348.817 L782.795 287.316 Q783.797 285.788 784.324 285.524 Q784.851 285.261 786.959 285.261 L801.24 285.261 Q802.4 285.261 802.874 285.313 Q803.348 285.366 803.717 285.629 Q804.139 285.893 804.139 286.473 Z" fill="#000000" fill-rule="nonzero" fill-opacity="1" /><path clip-path="url(#clip280)" d="M829.595 342.599 Q829.701 341.281 831.756 341.281 L897.895 341.281 Q901.004 341.281 901.057 342.493 Q901.057 343.811 898.106 343.758 L832.494 343.758 Q829.595 343.811 829.595 342.599 M829.595 321.519 Q829.595 320.201 831.861 320.254 L897.79 320.254 Q901.004 320.254 901.057 321.519 Q901.057 322.731 898.317 322.731 L831.756 322.731 Q829.595 322.731 829.595 321.519 Z" fill="#000000" fill-rule="nonzero" fill-opacity="1" /><path clip-path="url(#clip280)" d="M942.681 344.443 Q942.681 341.228 944.525 339.7 Q946.37 338.172 948.741 338.172 Q951.218 338.172 952.958 339.806 Q954.749 341.387 954.749 344.18 Q954.749 347.184 952.641 348.87 Q950.586 350.556 947.635 350.135 Q950.217 354.456 954.96 356.406 Q959.756 358.356 964.183 358.356 Q968.82 358.356 972.562 354.351 Q976.357 350.346 976.357 340.543 Q976.357 332.217 973.089 327.421 Q969.874 322.625 963.498 322.625 L958.755 322.625 Q957.121 322.625 956.647 322.467 Q956.172 322.309 956.172 321.413 Q956.172 320.359 957.806 320.148 Q959.44 320.148 962.022 319.832 Q968.293 319.621 971.613 314.193 Q974.617 309.134 974.617 301.914 Q974.617 295.326 971.455 292.586 Q968.346 289.793 964.288 289.793 Q960.494 289.793 956.33 291.374 Q952.167 292.955 949.901 296.486 Q956.594 296.486 956.594 301.914 Q956.594 304.285 955.066 305.866 Q953.59 307.395 951.113 307.395 Q948.741 307.395 947.16 305.919 Q945.579 304.391 945.579 301.809 Q945.579 295.643 951.06 291.374 Q956.594 287.105 964.71 287.105 Q972.72 287.105 978.623 291.321 Q984.578 295.537 984.578 302.019 Q984.578 308.396 980.362 313.613 Q976.146 318.831 969.453 320.991 Q977.674 322.625 982.575 328.211 Q987.476 333.745 987.476 340.543 Q987.476 348.975 980.836 355.194 Q974.196 361.36 964.499 361.36 Q955.54 361.36 949.11 356.512 Q942.681 351.663 942.681 344.443 Z" fill="#000000" fill-rule="nonzero" fill-opacity="1" /><path clip-path="url(#clip280)" d="M996.558 324.47 Q996.558 308.607 1000.56 299.964 Q1006.15 287.105 1019.32 287.105 Q1022.12 287.105 1025.02 287.896 Q1027.97 288.633 1031.66 291.532 Q1035.4 294.43 1037.66 299.173 Q1041.99 308.343 1041.99 324.47 Q1041.99 340.227 1037.98 348.817 Q1032.13 361.36 1019.22 361.36 Q1014.37 361.36 1009.42 358.883 Q1004.52 356.406 1001.41 350.451 Q996.558 341.545 996.558 324.47 M1005.52 323.152 Q1005.52 339.437 1006.68 345.919 Q1007.99 352.928 1011.58 355.985 Q1015.21 358.989 1019.22 358.989 Q1023.54 358.989 1027.12 355.774 Q1030.76 352.506 1031.87 345.497 Q1033.08 338.593 1033.03 323.152 Q1033.03 308.133 1031.97 302.125 Q1030.55 295.116 1026.76 292.322 Q1023.01 289.477 1019.22 289.477 Q1017.8 289.477 1016.27 289.898 Q1014.79 290.32 1012.63 291.532 Q1010.47 292.744 1008.78 295.748 Q1007.15 298.752 1006.36 303.284 Q1005.52 309.134 1005.52 323.152 Z" fill="#000000" fill-rule="nonzero" fill-opacity="1" /><circle clip-path="url(#clip280)" cx="602.564" cy="440.293" r="47.8523" fill="#ff0000" fill-rule="evenodd" fill-opacity="1" stroke="none"/>
<path clip-path="url(#clip280)" d="M804.139 403.113 Q804.139 404.641 803.454 404.957 Q802.821 405.273 800.713 405.273 Q798.237 405.273 796.708 405.484 Q795.18 405.642 794.231 405.906 Q793.283 406.117 792.703 406.854 Q792.176 407.592 791.965 408.225 Q791.754 408.804 791.385 410.227 L777.051 467.723 Q776.524 469.673 776.524 470.359 Q776.524 471.044 776.946 471.465 Q777.42 471.887 778.579 472.098 Q779.739 472.256 780.635 472.308 Q781.583 472.308 783.533 472.308 Q785.957 472.308 786.326 472.73 Q786.537 472.994 786.537 473.468 Q786.537 474.469 786.115 474.996 Q785.694 475.47 785.325 475.576 Q785.009 475.629 784.482 475.629 Q782.268 475.629 777.736 475.47 Q773.204 475.312 770.99 475.312 L757.604 475.629 Q756.023 475.629 756.023 474.311 Q756.023 473.31 756.445 472.888 Q756.867 472.414 757.341 472.361 Q757.815 472.308 759.027 472.308 Q763.349 472.308 765.193 471.834 Q767.091 471.36 767.618 470.517 Q768.197 469.621 768.83 467.196 L784.271 405.379 L784.166 405.379 L740.582 473.679 L740.266 474.153 Q739.95 474.575 739.844 474.733 Q739.739 474.838 739.423 475.154 Q739.159 475.418 738.843 475.523 Q738.58 475.629 738.211 475.629 Q737.578 475.629 737.209 475.207 Q736.893 474.785 736.788 474.469 Q736.735 474.1 736.577 473.152 L727.302 406.222 L727.196 406.222 L712.493 465.036 Q712.071 466.669 712.071 467.513 Q712.071 469.673 713.6 470.991 Q715.181 472.256 719.397 472.308 Q721.347 472.308 721.347 473.468 Q721.347 475.629 719.397 475.629 Q717.605 475.629 713.863 475.47 Q710.121 475.312 708.277 475.312 Q706.485 475.312 702.849 475.47 Q699.265 475.629 697.526 475.629 Q695.998 475.629 695.998 474.311 Q695.998 472.308 697.947 472.308 Q701.11 472.203 703.27 471.571 Q705.431 470.938 706.643 469.726 Q707.908 468.514 708.488 467.302 Q709.12 466.037 709.594 464.193 L723.296 409.226 Q723.718 407.487 723.718 407.223 Q723.718 406.327 723.191 406.011 Q722.717 405.642 721.347 405.484 Q718.711 405.273 716.709 405.273 Q715.391 405.273 714.864 405.221 Q714.39 405.168 713.968 404.904 Q713.6 404.588 713.6 403.956 Q713.6 402.955 714.021 402.533 Q714.495 402.059 715.022 402.006 Q715.549 401.901 716.814 401.901 L731.623 401.901 Q733.784 401.901 734.258 402.269 Q734.732 402.586 734.943 404.377 L743.375 465.457 L782.795 403.956 Q783.797 402.428 784.324 402.164 Q784.851 401.901 786.959 401.901 L801.24 401.901 Q802.4 401.901 802.874 401.953 Q803.348 402.006 803.717 402.269 Q804.139 402.533 804.139 403.113 Z" fill="#000000" fill-rule="nonzero" fill-opacity="1" /><path clip-path="url(#clip280)" d="M829.595 459.239 Q829.701 457.921 831.756 457.921 L897.895 457.921 Q901.004 457.921 901.057 459.133 Q901.057 460.451 898.106 460.398 L832.494 460.398 Q829.595 460.451 829.595 459.239 M829.595 438.159 Q829.595 436.841 831.861 436.894 L897.79 436.894 Q901.004 436.894 901.057 438.159 Q901.057 439.371 898.317 439.371 L831.756 439.371 Q829.595 439.371 829.595 438.159 Z" fill="#000000" fill-rule="nonzero" fill-opacity="1" /><path clip-path="url(#clip280)" d="M942.681 461.083 Q942.681 457.868 944.525 456.34 Q946.37 454.812 948.741 454.812 Q951.218 454.812 952.958 456.446 Q954.749 458.027 954.749 460.82 Q954.749 463.824 952.641 465.51 Q950.586 467.196 947.635 466.775 Q950.217 471.096 954.96 473.046 Q959.756 474.996 964.183 474.996 Q968.82 474.996 972.562 470.991 Q976.357 466.986 976.357 457.183 Q976.357 448.857 973.089 444.061 Q969.874 439.265 963.498 439.265 L958.755 439.265 Q957.121 439.265 956.647 439.107 Q956.172 438.949 956.172 438.053 Q956.172 436.999 957.806 436.788 Q959.44 436.788 962.022 436.472 Q968.293 436.261 971.613 430.833 Q974.617 425.774 974.617 418.554 Q974.617 411.966 971.455 409.226 Q968.346 406.433 964.288 406.433 Q960.494 406.433 956.33 408.014 Q952.167 409.595 949.901 413.126 Q956.594 413.126 956.594 418.554 Q956.594 420.925 955.066 422.506 Q953.59 424.035 951.113 424.035 Q948.741 424.035 947.16 422.559 Q945.579 421.031 945.579 418.449 Q945.579 412.283 951.06 408.014 Q956.594 403.745 964.71 403.745 Q972.72 403.745 978.623 407.961 Q984.578 412.177 984.578 418.659 Q984.578 425.036 980.362 430.253 Q976.146 435.471 969.453 437.631 Q977.674 439.265 982.575 444.851 Q987.476 450.385 987.476 457.183 Q987.476 465.615 980.836 471.834 Q974.196 478 964.499 478 Q955.54 478 949.11 473.152 Q942.681 468.303 942.681 461.083 Z" fill="#000000" fill-rule="nonzero" fill-opacity="1" /><path clip-path="url(#clip280)" d="M996.558 441.11 Q996.558 425.247 1000.56 416.604 Q1006.15 403.745 1019.32 403.745 Q1022.12 403.745 1025.02 404.536 Q1027.97 405.273 1031.66 408.172 Q1035.4 411.07 1037.66 415.813 Q1041.99 424.983 1041.99 441.11 Q1041.99 456.867 1037.98 465.457 Q1032.13 478 1019.22 478 Q1014.37 478 1009.42 475.523 Q1004.52 473.046 1001.41 467.091 Q996.558 458.185 996.558 441.11 M1005.52 439.792 Q1005.52 456.077 1006.68 462.559 Q1007.99 469.568 1011.58 472.625 Q1015.21 475.629 1019.22 475.629 Q1023.54 475.629 1027.12 472.414 Q1030.76 469.146 1031.87 462.137 Q1033.08 455.233 1033.03 439.792 Q1033.03 424.773 1031.97 418.765 Q1030.55 411.756 1026.76 408.962 Q1023.01 406.117 1019.22 406.117 Q1017.8 406.117 1016.27 406.538 Q1014.79 406.96 1012.63 408.172 Q1010.47 409.384 1008.78 412.388 Q1007.15 415.392 1006.36 419.924 Q1005.52 425.774 1005.52 439.792 Z" fill="#000000" fill-rule="nonzero" fill-opacity="1" /><path clip-path="url(#clip280)" d="M1050.44 441.11 Q1050.44 425.247 1054.44 416.604 Q1060.03 403.745 1073.2 403.745 Q1076 403.745 1078.89 404.536 Q1081.85 405.273 1085.53 408.172 Q1089.28 411.07 1091.54 415.813 Q1095.86 424.983 1095.86 441.11 Q1095.86 456.867 1091.86 465.457 Q1086.01 478 1073.1 478 Q1068.25 478 1063.29 475.523 Q1058.39 473.046 1055.28 467.091 Q1050.44 458.185 1050.44 441.11 M1059.39 439.792 Q1059.39 456.077 1060.55 462.559 Q1061.87 469.568 1065.46 472.625 Q1069.09 475.629 1073.1 475.629 Q1077.42 475.629 1081 472.414 Q1084.64 469.146 1085.74 462.137 Q1086.96 455.233 1086.9 439.792 Q1086.9 424.773 1085.85 418.765 Q1084.43 411.756 1080.63 408.962 Q1076.89 406.117 1073.1 406.117 Q1071.67 406.117 1070.15 406.538 Q1068.67 406.96 1066.51 408.172 Q1064.35 409.384 1062.66 412.388 Q1061.03 415.392 1060.24 419.924 Q1059.39 425.774 1059.39 439.792 Z" fill="#000000" fill-rule="nonzero" fill-opacity="1" /><polyline clip-path="url(#clip280)" style="stroke:#000000; stroke-linecap:round; stroke-linejoin:round; stroke-width:18; stroke-opacity:1; fill:none" points="532.488,556.933 672.639,556.933 "/>
<path clip-path="url(#clip280)" d="M752.387 553.792 Q752.387 561.486 748.487 568.917 Q744.64 576.348 738.58 580.933 Q732.519 585.465 726.353 585.465 Q722.664 585.465 720.187 583.462 Q717.763 581.407 716.445 578.509 Q715.444 582.092 713.283 590.682 Q711.123 599.273 711.123 600.116 Q711.123 600.59 711.228 600.801 Q711.333 601.012 711.808 601.275 Q712.282 601.591 713.441 601.697 Q714.601 601.855 716.551 601.855 Q717.552 601.855 717.921 601.855 Q718.343 601.908 718.711 602.171 Q719.133 602.435 719.133 603.014 Q719.133 605.175 717.183 605.175 Q715.444 605.175 711.86 605.017 Q708.277 604.859 706.485 604.859 Q704.957 604.859 701.9 605.017 Q698.843 605.175 697.42 605.175 Q695.998 605.175 695.998 603.91 Q695.998 603.172 696.208 602.698 Q696.366 602.277 696.788 602.066 Q697.21 601.908 697.579 601.855 Q697.895 601.855 698.527 601.855 Q700.951 601.855 702.005 601.433 Q703.059 601.064 703.428 600.274 Q703.85 599.536 704.324 597.428 L716.445 549.365 Q717.183 546.15 717.183 543.884 Q717.183 541.039 716.287 539.985 Q715.391 538.931 713.81 538.931 Q711.07 538.931 709.278 542.198 Q707.486 545.465 705.958 551.789 Q705.484 553.529 705.167 553.897 Q704.904 554.266 704.113 554.266 Q702.796 554.214 702.796 553.16 Q702.796 552.896 703.218 551.21 Q703.639 549.471 704.43 546.941 Q705.273 544.359 706.169 542.725 Q706.696 541.618 707.17 540.88 Q707.644 540.143 708.593 538.983 Q709.594 537.824 711.017 537.191 Q712.44 536.559 714.179 536.559 Q717.552 536.559 720.345 538.562 Q723.138 540.564 723.876 544.622 Q726.88 541.091 730.569 538.825 Q734.258 536.559 738 536.559 Q744.219 536.559 748.276 541.407 Q752.387 546.203 752.387 553.792 M744.587 549.049 Q744.587 544.253 742.743 541.618 Q740.951 538.931 737.684 538.931 Q733.626 538.931 728.935 543.041 Q724.298 546.941 723.349 550.577 L718.026 571.71 L717.71 573.449 Q717.71 573.766 717.868 574.714 Q718.079 575.61 718.659 577.086 Q719.291 578.561 720.134 579.879 Q721.03 581.144 722.611 582.092 Q724.245 583.041 726.248 583.041 Q729.462 583.041 732.941 580.195 Q736.472 577.349 739.107 571.974 Q740.74 568.495 742.638 561.012 Q744.587 553.476 744.587 549.049 Z" fill="#000000" fill-rule="nonzero" fill-opacity="1" /><path clip-path="url(#clip280)" d="M818.105 530.288 Q818.105 539.141 815.259 549.102 Q812.466 559.009 808.039 567.02 Q803.612 574.978 797.815 580.248 Q792.018 585.465 786.485 585.465 Q782.954 585.465 780.319 583.515 Q777.736 581.513 776.314 578.192 Q774.891 574.82 774.206 571.131 Q773.52 567.389 773.52 563.331 Q773.52 557.27 774.838 550.683 Q776.155 544.042 778.369 538.035 Q780.582 531.974 783.692 526.493 Q786.801 520.96 790.226 516.954 Q793.705 512.896 797.605 510.525 Q801.504 508.153 805.141 508.153 Q807.776 508.153 809.884 509.313 Q812.044 510.42 813.415 512.369 Q814.785 514.267 815.734 516.533 Q816.735 518.799 817.209 521.434 Q817.683 524.016 817.894 526.177 Q818.105 528.285 818.105 530.288 M810.99 523.595 Q810.99 520.907 810.78 518.904 Q810.569 516.849 809.989 514.794 Q809.409 512.738 808.145 511.632 Q806.933 510.525 805.035 510.525 Q799.502 510.525 793.283 521.856 Q791.28 525.386 789.489 530.182 Q787.697 534.978 787.064 537.244 Q786.432 539.51 784.956 545.096 L807.512 545.096 Q810.99 530.709 810.99 523.595 M806.564 548.522 L784.113 548.522 Q780.635 561.697 780.635 569.918 Q780.635 577.086 782.111 580.09 Q783.639 583.041 786.485 583.041 Q789.752 583.041 792.809 579.773 Q795.865 576.453 798.975 570.445 Q803.085 562.646 806.564 548.522 Z" fill="#000000" fill-rule="nonzero" fill-opacity="1" /><path clip-path="url(#clip280)" d="M1781.53 264.077 Q1781.85 264.446 1781.85 264.815 Q1781.85 265.184 1781.03 266.249 Q1780.25 267.315 1778.57 268.75 Q1776.89 270.184 1774.72 271.537 Q1772.55 272.89 1769.35 273.791 Q1766.15 274.734 1762.79 274.734 Q1756.52 274.734 1752.83 270.594 Q1749.19 266.454 1749.19 260.511 Q1749.19 254.731 1752.42 249.198 Q1755.66 243.623 1760.91 240.18 Q1766.15 236.696 1771.69 236.696 Q1776.07 236.696 1778.82 238.746 Q1781.57 240.795 1781.57 243.91 Q1781.57 246.329 1780.17 247.804 Q1778.78 249.28 1776.89 249.28 Q1775.58 249.28 1774.68 248.542 Q1773.78 247.763 1773.78 246.329 Q1773.78 244.484 1775.3 243.05 Q1775.87 242.476 1776.52 242.23 Q1777.22 241.943 1777.63 241.943 Q1778.04 241.902 1778.98 241.902 Q1778.12 240.303 1776.07 239.442 Q1774.07 238.541 1771.77 238.541 Q1768.37 238.541 1765.13 240.918 Q1761.89 243.254 1759.92 246.944 Q1757.96 250.551 1756.69 255.674 Q1755.42 260.757 1755.42 263.708 Q1755.42 267.766 1757.3 270.307 Q1759.19 272.849 1762.96 272.849 Q1763.7 272.849 1764.47 272.808 Q1765.29 272.767 1767.34 272.316 Q1769.43 271.865 1771.28 271.086 Q1773.12 270.307 1775.46 268.627 Q1777.84 266.905 1779.72 264.569 Q1780.38 263.708 1780.83 263.708 Q1781.2 263.708 1781.53 264.077 Z" fill="#000000" fill-rule="nonzero" fill-opacity="1" /><path clip-path="url(#clip280)" d="M1808.44 261.044 Q1808.53 260.019 1810.12 260.019 L1861.57 260.019 Q1863.98 260.019 1864.03 260.962 Q1864.03 261.987 1861.73 261.946 L1810.7 261.946 Q1808.44 261.987 1808.44 261.044 M1808.44 244.648 Q1808.44 243.623 1810.21 243.664 L1861.48 243.664 Q1863.98 243.664 1864.03 244.648 Q1864.03 245.591 1861.89 245.591 L1810.12 245.591 Q1808.44 245.591 1808.44 244.648 Z" fill="#000000" fill-rule="nonzero" fill-opacity="1" /><path clip-path="url(#clip280)" d="M1896.4 246.944 Q1896.4 234.606 1899.52 227.884 Q1903.86 217.882 1914.11 217.882 Q1916.28 217.882 1918.54 218.497 Q1920.83 219.071 1923.7 221.325 Q1926.61 223.58 1928.38 227.269 Q1931.74 234.401 1931.74 246.944 Q1931.74 259.199 1928.62 265.881 Q1924.07 275.636 1914.03 275.636 Q1910.26 275.636 1906.41 273.71 Q1902.59 271.783 1900.17 267.151 Q1896.4 260.224 1896.4 246.944 M1903.37 245.919 Q1903.37 258.584 1904.27 263.626 Q1905.3 269.078 1908.09 271.455 Q1910.91 273.791 1914.03 273.791 Q1917.39 273.791 1920.18 271.291 Q1923.01 268.75 1923.87 263.298 Q1924.81 257.929 1924.77 245.919 Q1924.77 234.237 1923.95 229.564 Q1922.84 224.112 1919.89 221.94 Q1916.98 219.727 1914.03 219.727 Q1912.92 219.727 1911.73 220.055 Q1910.59 220.382 1908.91 221.325 Q1907.22 222.268 1905.91 224.604 Q1904.64 226.941 1904.03 230.466 Q1903.37 235.016 1903.37 245.919 Z" fill="#000000" fill-rule="nonzero" fill-opacity="1" /><path clip-path="url(#clip280)" d="M1939.24 272.439 Q1937.97 271.086 1937.97 269.324 Q1937.97 267.561 1939.24 266.29 Q1940.52 264.979 1942.44 264.979 Q1944.29 264.979 1945.52 266.208 Q1946.79 267.397 1946.79 269.365 Q1946.79 271.291 1945.43 272.562 Q1944.12 273.791 1942.44 273.791 Q1940.52 273.791 1939.24 272.439 Z" fill="#000000" fill-rule="nonzero" fill-opacity="1" /><path clip-path="url(#clip280)" d="M1961.07 234.319 L1963.82 217.062 L1965.91 217.062 Q1966.16 218.087 1966.57 218.538 Q1967.02 218.989 1969.39 219.358 Q1971.81 219.727 1976.69 219.727 L1997.06 219.727 Q1997.06 221.653 1996.32 222.678 L1984.97 238.623 Q1981.36 243.664 1979.76 252.969 Q1978.82 259.199 1978.86 266.741 L1978.86 271.004 Q1978.86 275.636 1974.97 275.636 Q1971.12 275.636 1971.12 271.004 Q1971.12 254.977 1981.44 239.442 Q1982.55 237.844 1986.61 232.146 Q1990.71 226.449 1990.87 226.203 L1973.49 226.203 Q1965.87 226.203 1965.25 226.695 Q1964.43 227.433 1963.16 234.319 L1961.07 234.319 Z" fill="#000000" fill-rule="nonzero" fill-opacity="1" /><path clip-path="url(#clip280)" d="M1793.04 365.083 Q1793.04 371.068 1790.01 376.847 Q1787.02 382.627 1782.3 386.193 Q1777.59 389.718 1772.79 389.718 Q1769.93 389.718 1768 388.16 Q1766.11 386.562 1765.09 384.307 Q1764.31 387.095 1762.63 393.776 Q1760.95 400.457 1760.95 401.113 Q1760.95 401.482 1761.03 401.646 Q1761.11 401.81 1761.48 402.015 Q1761.85 402.261 1762.75 402.343 Q1763.65 402.466 1765.17 402.466 Q1765.95 402.466 1766.24 402.466 Q1766.56 402.507 1766.85 402.712 Q1767.18 402.917 1767.18 403.367 Q1767.18 405.048 1765.66 405.048 Q1764.31 405.048 1761.52 404.925 Q1758.74 404.802 1757.34 404.802 Q1756.15 404.802 1753.78 404.925 Q1751.4 405.048 1750.29 405.048 Q1749.19 405.048 1749.19 404.064 Q1749.19 403.49 1749.35 403.121 Q1749.47 402.794 1749.8 402.63 Q1750.13 402.507 1750.41 402.466 Q1750.66 402.466 1751.15 402.466 Q1753.04 402.466 1753.86 402.138 Q1754.68 401.851 1754.96 401.236 Q1755.29 400.662 1755.66 399.023 L1765.09 361.64 Q1765.66 359.14 1765.66 357.377 Q1765.66 355.164 1764.97 354.344 Q1764.27 353.524 1763.04 353.524 Q1760.91 353.524 1759.51 356.066 Q1758.12 358.607 1756.93 363.526 Q1756.56 364.878 1756.32 365.165 Q1756.11 365.452 1755.5 365.452 Q1754.47 365.411 1754.47 364.592 Q1754.47 364.387 1754.8 363.075 Q1755.13 361.722 1755.74 359.755 Q1756.4 357.746 1757.1 356.476 Q1757.51 355.615 1757.87 355.041 Q1758.24 354.467 1758.98 353.565 Q1759.76 352.664 1760.87 352.172 Q1761.97 351.68 1763.33 351.68 Q1765.95 351.68 1768.12 353.238 Q1770.29 354.795 1770.87 357.951 Q1773.2 355.205 1776.07 353.442 Q1778.94 351.68 1781.85 351.68 Q1786.69 351.68 1789.85 355.451 Q1793.04 359.181 1793.04 365.083 M1786.98 361.394 Q1786.98 357.664 1785.54 355.615 Q1784.15 353.524 1781.61 353.524 Q1778.45 353.524 1774.8 356.722 Q1771.2 359.755 1770.46 362.583 L1766.32 379.02 L1766.07 380.372 Q1766.07 380.618 1766.2 381.356 Q1766.36 382.053 1766.81 383.201 Q1767.3 384.348 1767.96 385.373 Q1768.66 386.357 1769.88 387.095 Q1771.16 387.832 1772.71 387.832 Q1775.21 387.832 1777.92 385.619 Q1780.66 383.406 1782.71 379.225 Q1783.99 376.519 1785.46 370.699 Q1786.98 364.837 1786.98 361.394 Z" fill="#000000" fill-rule="nonzero" fill-opacity="1" /><path clip-path="url(#clip280)" d="M1814.29 376.028 Q1814.37 375.003 1815.97 375.003 L1867.41 375.003 Q1869.83 375.003 1869.87 375.946 Q1869.87 376.97 1867.58 376.929 L1816.54 376.929 Q1814.29 376.97 1814.29 376.028 M1814.29 359.632 Q1814.29 358.607 1816.05 358.648 L1867.33 358.648 Q1869.83 358.648 1869.87 359.632 Q1869.87 360.575 1867.74 360.575 L1815.97 360.575 Q1814.29 360.575 1814.29 359.632 Z" fill="#000000" fill-rule="nonzero" fill-opacity="1" /><path clip-path="url(#clip280)" d="M1902.25 361.927 Q1902.25 349.589 1905.36 342.867 Q1909.71 332.866 1919.96 332.866 Q1922.13 332.866 1924.38 333.481 Q1926.68 334.055 1929.55 336.309 Q1932.46 338.563 1934.22 342.252 Q1937.58 349.385 1937.58 361.927 Q1937.58 374.183 1934.47 380.864 Q1929.92 390.62 1919.87 390.62 Q1916.1 390.62 1912.25 388.693 Q1908.44 386.767 1906.02 382.135 Q1902.25 375.208 1902.25 361.927 M1909.22 360.903 Q1909.22 373.568 1910.12 378.61 Q1911.14 384.061 1913.93 386.439 Q1916.76 388.775 1919.87 388.775 Q1923.24 388.775 1926.02 386.275 Q1928.85 383.734 1929.71 378.282 Q1930.66 372.912 1930.61 360.903 Q1930.61 349.221 1929.79 344.548 Q1928.69 339.096 1925.74 336.924 Q1922.83 334.71 1919.87 334.71 Q1918.77 334.71 1917.58 335.038 Q1916.43 335.366 1914.75 336.309 Q1913.07 337.252 1911.76 339.588 Q1910.49 341.924 1909.87 345.45 Q1909.22 349.999 1909.22 360.903 Z" fill="#000000" fill-rule="nonzero" fill-opacity="1" /><path clip-path="url(#clip280)" d="M1945.09 387.423 Q1943.82 386.07 1943.82 384.307 Q1943.82 382.545 1945.09 381.274 Q1946.36 379.963 1948.29 379.963 Q1950.13 379.963 1951.36 381.192 Q1952.63 382.381 1952.63 384.348 Q1952.63 386.275 1951.28 387.546 Q1949.97 388.775 1948.29 388.775 Q1946.36 388.775 1945.09 387.423 Z" fill="#000000" fill-rule="nonzero" fill-opacity="1" /><path clip-path="url(#clip280)" d="M1966.92 374.921 L1966.92 372.339 L1992.7 332.948 Q1993.36 331.923 1994.38 331.964 Q1995.32 331.964 1995.53 332.333 Q1995.73 332.702 1995.73 334.137 L1995.73 372.339 L2004.14 372.339 L2004.14 374.921 L1995.73 374.921 L1995.73 382.217 Q1995.73 384.635 1996.72 385.414 Q1997.74 386.193 2002.09 386.193 L2003.85 386.193 L2003.85 388.775 Q2000.41 388.529 1992.46 388.529 Q1984.54 388.529 1981.1 388.775 L1981.1 386.193 L1982.86 386.193 Q1987.21 386.193 1988.23 385.455 Q1989.26 384.676 1989.26 382.217 L1989.26 374.921 L1966.92 374.921 M1969.3 372.339 L1989.75 372.339 L1989.75 341.023 L1969.3 372.339 Z" fill="#000000" fill-rule="nonzero" fill-opacity="1" /><path clip-path="url(#clip280)" d="M2010.51 351.762 Q2010.51 347.294 2011.82 344.261 Q2013.13 341.187 2015.87 338.153 Q2020.92 332.866 2028.21 332.866 Q2031.33 332.866 2034.07 334.178 Q2036.86 335.489 2039.48 338.481 Q2042.15 341.433 2043.75 347.294 Q2045.35 353.115 2045.35 361.148 Q2045.35 374.142 2039.03 382.381 Q2032.76 390.62 2024.28 390.62 Q2018.91 390.62 2015.75 388.201 Q2012.6 385.742 2012.6 381.561 Q2012.6 379.389 2013.83 378.487 Q2015.06 377.544 2016.45 377.544 Q2017.97 377.544 2019.15 378.569 Q2020.34 379.553 2020.34 381.397 Q2020.34 382.914 2019.36 384.102 Q2018.42 385.25 2015.96 385.25 Q2018.38 388.283 2024.2 388.283 Q2026.29 388.283 2028.38 387.341 Q2030.47 386.357 2032.72 384.02 Q2035.02 381.643 2036.41 376.683 Q2037.8 371.724 2037.8 364.756 L2037.8 362.091 Q2034.44 370.494 2027.31 370.494 Q2020.26 370.494 2015.38 365.083 Q2010.51 359.673 2010.51 351.762 M2018.05 351.844 Q2018.05 360.165 2019.56 363.239 Q2022.15 368.527 2027.39 368.527 Q2032.52 368.527 2035.06 363.977 Q2037.64 359.386 2037.64 353.442 Q2037.64 345.204 2036.29 341.597 Q2033.79 334.956 2028.21 334.956 Q2022.68 334.956 2019.81 340.244 Q2018.05 343.359 2018.05 351.844 Z" fill="#000000" fill-rule="nonzero" fill-opacity="1" /></svg>
